<svg viewBox="0 0 95.6001 74.2002" xmlns="http://www.w3.org/2000/svg" xmlns:xlink="http://www.w3.org/1999/xlink" width="95.600098" height="74.200195" fill="none" customFrame="#000000">
	<g id="Group">
		<g id="Group">
			<g id="Group">
				<g id="Group">
					<path id="Vector" d="M47.6271 73.9001C47.4769 73.9001 47.3052 73.8357 47.1764 73.7284L15.6671 42.4123L12.6836 39.4288C3.75455 30.4998 3.75455 15.9686 12.6836 7.01806C21.6127 -1.93246 36.1438 -1.91099 45.0944 7.01806L47.6486 9.57228L50.2028 7.01806C54.5386 2.68232 60.2909 0.299805 66.4082 0.299805C72.5255 0.299805 78.2778 2.68232 82.6136 7.01806C91.5426 15.9471 91.5426 30.4783 82.6136 39.4288L79.6301 42.4123L48.0564 73.7284C47.9276 73.8572 47.7774 73.9001 47.6271 73.9001ZM28.8675 1.56619C23.0722 1.56619 17.6418 3.81991 13.5422 7.91955C5.10679 16.3764 5.10679 30.1134 13.5422 38.5488L16.5257 41.5323L47.6057 72.3976L78.7071 41.5323L81.6906 38.5488C90.1475 30.1134 90.1475 16.3549 81.6906 7.91955C77.591 3.81991 72.1606 1.56619 66.3653 1.56619C60.57 1.56619 55.1396 3.81991 51.0399 7.91955L48.0564 10.9031C47.8203 11.1392 47.4125 11.1392 47.1764 10.9031L44.1929 7.91955C40.0932 3.81991 34.6628 1.56619 28.8675 1.56619Z" fill="rgb(63,72,87)" fill-rule="nonzero"/>
					<path id="Vector" d="M47.1764 73.7284L15.6671 42.4123L12.6836 39.4288C3.75455 30.4998 3.75455 15.9686 12.6836 7.01806C21.6127 -1.93246 36.1438 -1.91099 45.0944 7.01806L47.6486 9.57228L50.2028 7.01806C54.5386 2.68232 60.2909 0.299805 66.4082 0.299805C72.5255 0.299805 78.2778 2.68232 82.6136 7.01806C91.5426 15.9471 91.5426 30.4783 82.6136 39.4288L79.6301 42.4123L48.0564 73.7284C47.9276 73.8572 47.7774 73.9001 47.6271 73.9001C47.4769 73.9001 47.3052 73.8357 47.1764 73.7284ZM13.5422 7.91955C5.10679 16.3764 5.10679 30.1134 13.5422 38.5488L16.5257 41.5323L47.6057 72.3976L78.7071 41.5323L81.6906 38.5488C90.1475 30.1134 90.1475 16.3549 81.6906 7.91955C77.591 3.81991 72.1606 1.56619 66.3653 1.56619C60.57 1.56619 55.1396 3.81991 51.0399 7.91955L48.0564 10.9031C47.8203 11.1392 47.4125 11.1392 47.1764 10.9031L44.1929 7.91955C40.0932 3.81991 34.6628 1.56619 28.8675 1.56619C23.0722 1.56619 17.6418 3.81991 13.5422 7.91955Z" fill-rule="nonzero" stroke="rgb(63,72,87)" stroke-width="0.600000024"/>
				</g>
				<g id="Group">
					<path id="Vector" d="M47.6283 54.8629C47.3708 54.8629 47.1347 54.7127 47.0488 54.4551L36.4026 26.0367L33.0328 42.9289C32.9684 43.2294 32.7108 43.4226 32.4103 43.4226L0.922507 43.4226C0.579081 43.4226 0.300049 43.1435 0.300049 42.8001C0.300049 42.4567 0.579081 42.1777 0.922507 42.1777L31.8737 42.1777L35.587 23.6327C35.6514 23.3537 35.866 23.1605 36.1451 23.139C36.4241 23.1175 36.6817 23.2893 36.789 23.5468L47.4352 51.9653L50.805 35.073C50.8694 34.7725 51.127 34.5794 51.4275 34.5794L94.6776 34.5794C95.021 34.5794 95.3 34.8584 95.3 35.2018C95.3 35.5453 95.021 35.8243 94.6776 35.8243L51.9426 35.8243L48.2293 54.3692C48.1649 54.6483 47.9503 54.8415 47.6713 54.8629C47.6498 54.8629 47.6283 54.8629 47.6283 54.8629Z" fill="rgb(63,72,87)" fill-rule="nonzero"/>
					<path id="Vector" d="M47.0488 54.4551L36.4026 26.0367L33.0328 42.9289C32.9684 43.2294 32.7108 43.4226 32.4103 43.4226L0.922507 43.4226C0.579081 43.4226 0.300049 43.1435 0.300049 42.8001C0.300049 42.4567 0.579081 42.1777 0.922507 42.1777L31.8737 42.1777L35.587 23.6327C35.6514 23.3537 35.866 23.1605 36.1451 23.139C36.4241 23.1175 36.6817 23.2893 36.789 23.5468L47.4352 51.9653L50.805 35.073C50.8694 34.7725 51.127 34.5794 51.4275 34.5794L94.6776 34.5794C95.021 34.5794 95.3 34.8584 95.3 35.2018C95.3 35.5453 95.021 35.8243 94.6776 35.8243L51.9426 35.8243L48.2293 54.3692C48.1649 54.6483 47.9503 54.8415 47.6713 54.8629C47.6498 54.8629 47.6283 54.8629 47.6283 54.8629C47.3708 54.8629 47.1347 54.7127 47.0488 54.4551Z" fill-rule="nonzero" stroke="rgb(63,72,87)" stroke-width="0.600000024"/>
				</g>
			</g>
		</g>
	</g>
</svg>
