<svg viewBox="0 0 53 66.5894" xmlns="http://www.w3.org/2000/svg" xmlns:xlink="http://www.w3.org/1999/xlink" width="53.000000" height="66.589355" fill="none" customFrame="#000000">
	<g id="Group">
		<path id="Vector" d="M53 21.3086C53 14.5922 41.5622 0.88786 41.0818 0.313362C40.7371 -0.104454 40.0268 -0.104454 39.6821 0.313362C39.3687 0.689397 34.4594 6.57016 31.0333 12.5032C27.1894 7.30134 24.0871 3.59322 24.0453 3.55144C23.8677 3.34253 23.617 3.22763 23.3455 3.22763C23.0739 3.22763 22.8232 3.34253 22.6456 3.55144C21.716 4.64821 0 30.6677 0 43.244C0 55.8203 10.4663 66.5895 23.3455 66.5895C36.2247 66.5895 46.6909 56.1232 46.6909 43.244C46.6909 40.6849 45.7718 37.3737 43.9752 33.4044C49.1874 31.8481 53 27.0118 53 21.3086ZM44.863 43.2336C44.863 55.0995 35.2115 64.7511 23.3455 64.7511C11.4795 64.7511 1.82795 55.0995 1.82795 43.2336C1.82795 32.5375 19.5642 10.2052 23.3455 5.5674C24.5362 7.02976 27.1163 10.2469 30.0619 14.258C28.704 16.8589 27.7639 19.3658 27.7639 21.2982C27.7639 28.2548 33.4253 33.9162 40.3819 33.9162C40.9878 33.9162 41.5727 33.864 42.1472 33.7805C43.9438 37.6766 44.863 40.8624 44.863 43.2336ZM40.3715 32.0988C34.4176 32.0988 29.5813 27.2625 29.5813 21.3086C29.5813 19.5643 30.5423 17.1827 31.8898 14.6758C31.8898 14.6549 31.9107 14.634 31.9316 14.6131C34.5847 9.72468 38.742 4.38707 40.3819 2.35022C43.9438 6.74774 51.1721 16.6187 51.1721 21.3191C51.1721 27.2625 46.3254 32.0988 40.3715 32.0988Z" fill="rgb(63,72,87)" fill-rule="nonzero"/>
		<path id="Vector" d="M47.9045 20.3989C47.4031 20.3989 46.9853 20.8063 46.9853 21.3181C46.9853 24.9636 44.0188 27.9301 40.3733 27.9301C39.8719 27.9301 39.4541 28.3374 39.4541 28.8493C39.4541 29.3611 39.8615 29.7685 40.3733 29.7685C45.032 29.7685 48.8132 25.9768 48.8132 21.3286C48.8132 20.8063 48.4058 20.3989 47.9045 20.3989Z" fill="rgb(63,72,87)" fill-rule="nonzero"/>
		<path id="Vector" d="M35.6416 40.1835L27.7657 40.1835L27.7657 32.3077C27.7657 31.4825 27.0972 30.814 26.272 30.814L20.4331 30.814C19.6079 30.814 18.9393 31.4825 18.9393 32.3077L18.9393 40.1835L11.0635 40.1835C10.2383 40.1835 9.56982 40.852 9.56982 41.6772L9.56982 47.5162C9.56982 48.3414 10.2383 49.0099 11.0635 49.0099L18.9393 49.0099L18.9393 56.8857C18.9393 57.7109 19.6079 58.3794 20.4331 58.3794L26.272 58.3794C27.0972 58.3794 27.7657 57.7109 27.7657 56.8857L27.7657 49.0099L35.6416 49.0099C36.4668 49.0099 37.1353 48.3414 37.1353 47.5162L37.1353 41.6772C37.1353 40.852 36.4668 40.1835 35.6416 40.1835ZM35.3073 47.1924L26.8465 47.1924C26.3451 47.1924 25.9273 47.5997 25.9273 48.1116L25.9273 56.5723L20.7569 56.5723L20.7569 48.1116C20.7569 47.6102 20.3495 47.1924 19.8377 47.1924L11.3769 47.1924L11.3769 42.0114L19.8377 42.0114C20.3391 42.0114 20.7569 41.6041 20.7569 41.0923L20.7569 32.6315L25.9378 32.6315L25.9378 41.0923C25.9378 41.5936 26.3451 42.0114 26.857 42.0114L35.3178 42.0114L35.3178 47.1924L35.3073 47.1924Z" fill="rgb(63,72,87)" fill-rule="nonzero"/>
	</g>
</svg>
