<svg width="42" height="42" viewBox="0 0 42 42" fill="none" xmlns="http://www.w3.org/2000/svg">
<g clip-path="url(#clip0_1_4834)">
<path d="M31.334 42C30.9539 42 30.5359 41.9177 30.1559 41.791C16.2086 36.6677 5.33335 25.7877 0.209236 11.8426C-0.253137 10.6267 0.0825586 9.19541 1.00731 8.2708L4.61762 4.66103C5.12433 4.15439 5.79572 3.90741 6.50512 3.90741C7.22085 3.90741 7.89224 4.19872 8.39262 4.66103L14.4858 10.7533C14.9925 11.2599 15.2395 11.9312 15.2395 12.6405C15.2395 13.3498 14.9482 14.0274 14.4858 14.5277L11.3379 17.5485C10.7488 18.1375 10.6221 19.1001 11.0845 19.8157C13.8968 24.2678 17.5958 28.0042 22.1752 30.9047C22.8909 31.367 23.8536 31.2403 24.4427 30.6514L27.5083 27.5862C28.015 27.0796 28.6864 26.8326 29.3958 26.8326C30.1052 26.8326 30.7829 27.1239 31.2833 27.5862L37.3765 33.6785C37.8832 34.1852 38.1302 34.8564 38.1302 35.5657C38.1302 36.275 37.8389 36.9526 37.3765 37.4529L33.7662 41.0627C33.0948 41.6517 32.2144 41.9873 31.3276 41.9873L31.334 42ZM6.46712 4.87002C6.00474 4.87002 5.58671 5.041 5.28901 5.37665L1.6787 8.94842C1.00731 9.61971 0.798288 10.6267 1.08965 11.5133C6.08708 25.1607 16.7977 35.8697 30.4915 40.9107C31.372 41.2464 32.379 40.9931 33.0568 40.3218L36.6671 36.712C37.0028 36.3764 37.1738 35.9584 37.1738 35.5341C37.1738 35.0718 37.0028 34.6538 36.6671 34.3561L30.5739 28.2639C30.2382 27.9282 29.8202 27.7572 29.3958 27.7572C28.9334 27.7572 28.5154 27.9282 28.2177 28.2639L25.1521 31.329C24.2273 32.2536 22.7579 32.4183 21.6684 31.709C17.0067 28.7262 13.143 24.9074 10.2864 20.3287C9.61506 19.2394 9.77974 17.8082 10.7045 16.8836L13.7701 13.8184C14.1058 13.4828 14.2768 13.0648 14.2768 12.6405C14.2768 12.1782 14.1058 11.7602 13.7701 11.4626L7.67689 5.33232C7.34119 5.041 6.92316 4.87002 6.46078 4.87002H6.46712Z" fill="#3F4857"/>
<path d="M36.3691 30.9554C36.2424 30.9554 36.1157 30.911 36.0334 30.8287C35.8623 30.6577 35.8623 30.3221 36.0334 30.1574C42.7093 23.4825 42.7093 12.6469 36.0334 5.96562C32.7967 2.72949 28.515 0.968938 23.9356 0.968938C19.3562 0.968938 15.0745 2.73583 11.8822 5.96562C11.7112 6.13661 11.3755 6.13661 11.2109 5.96562C11.0462 5.79463 11.0398 5.45899 11.2109 5.29433C14.6122 1.88721 19.1472 0 23.9356 0C28.7241 0 33.3035 1.88721 36.7048 5.29433C43.7607 12.3492 43.7607 23.7738 36.7048 30.8287C36.6224 30.911 36.4957 30.9554 36.3691 30.9554Z" fill="#3F4857"/>
</g>
<defs>
<clipPath id="clip0_1_4834">
<rect width="42" height="42" fill="white"/>
</clipPath>
</defs>
</svg>
