<svg width="103" height="103" viewBox="0 0 103 103" fill="none" xmlns="http://www.w3.org/2000/svg">
<circle cx="51.5" cy="51.5" r="51.073" fill="#FAF67E" stroke="white" stroke-width="0.85405"/>
<path d="M55.0751 29.24H51.9531V32.39H51.0431V29.24H47.9351V28.4H51.0431V25.25H51.9531V28.4H55.0751V29.24ZM21.023 44.216C21.9377 44.216 22.6843 44.5007 23.263 45.07C23.8417 45.63 24.131 46.4467 24.131 47.52V52H23.165V47.632C23.165 46.8013 22.955 46.1667 22.535 45.728C22.1243 45.2893 21.5597 45.07 20.841 45.07C20.1037 45.07 19.5157 45.3033 19.077 45.77C18.6383 46.2367 18.419 46.9227 18.419 47.828V52H17.439V44.356H18.419V45.658C18.6617 45.1913 19.0117 44.8367 19.469 44.594C19.9263 44.342 20.4443 44.216 21.023 44.216ZM32.6544 47.786C32.6544 48.122 32.645 48.3787 32.6264 48.556H26.2844C26.3124 49.1347 26.4524 49.6293 26.7044 50.04C26.9564 50.4507 27.2877 50.7633 27.6984 50.978C28.109 51.1833 28.557 51.286 29.0424 51.286C29.677 51.286 30.209 51.132 30.6384 50.824C31.077 50.516 31.3664 50.1007 31.5064 49.578H32.5424C32.3557 50.3247 31.9544 50.936 31.3384 51.412C30.7317 51.8787 29.9664 52.112 29.0424 52.112C28.3237 52.112 27.6797 51.9533 27.1104 51.636C26.541 51.3093 26.093 50.852 25.7664 50.264C25.449 49.6667 25.2904 48.9713 25.2904 48.178C25.2904 47.3847 25.449 46.6893 25.7664 46.092C26.0837 45.4947 26.527 45.0373 27.0964 44.72C27.6657 44.4027 28.3144 44.244 29.0424 44.244C29.7704 44.244 30.405 44.4027 30.9464 44.72C31.497 45.0373 31.917 45.4667 32.2064 46.008C32.505 46.54 32.6544 47.1327 32.6544 47.786ZM31.6604 47.758C31.6697 47.1887 31.553 46.7033 31.3104 46.302C31.077 45.9007 30.755 45.5973 30.3444 45.392C29.9337 45.1867 29.4857 45.084 29.0004 45.084C28.2724 45.084 27.6517 45.3173 27.1384 45.784C26.625 46.2507 26.3404 46.9087 26.2844 47.758H31.6604ZM40.5093 44.356V52H39.5293V50.656C39.3053 51.132 38.96 51.496 38.4933 51.748C38.0267 52 37.504 52.126 36.9253 52.126C36.0107 52.126 35.264 51.846 34.6853 51.286C34.1067 50.7167 33.8173 49.8953 33.8173 48.822V44.356H34.7833V48.71C34.7833 49.5407 34.9887 50.1753 35.3993 50.614C35.8193 51.0527 36.3887 51.272 37.1073 51.272C37.8447 51.272 38.4327 51.0387 38.8713 50.572C39.31 50.1053 39.5293 49.4193 39.5293 48.514V44.356H40.5093ZM45.9585 42.914C45.7625 42.914 45.5945 42.844 45.4545 42.704C45.3145 42.564 45.2445 42.3913 45.2445 42.186C45.2445 41.9807 45.3145 41.8127 45.4545 41.682C45.5945 41.542 45.7625 41.472 45.9585 41.472C46.1545 41.472 46.3225 41.542 46.4625 41.682C46.6025 41.8127 46.6725 41.9807 46.6725 42.186C46.6725 42.3913 46.6025 42.564 46.4625 42.704C46.3225 42.844 46.1545 42.914 45.9585 42.914ZM46.4485 44.356V52H45.4685V44.356H46.4485ZM51.6917 44.216C52.6064 44.216 53.3531 44.5007 53.9317 45.07C54.5104 45.63 54.7997 46.4467 54.7997 47.52V52H53.8337V47.632C53.8337 46.8013 53.6237 46.1667 53.2037 45.728C52.7931 45.2893 52.2284 45.07 51.5097 45.07C50.7724 45.07 50.1844 45.3033 49.7457 45.77C49.3071 46.2367 49.0877 46.9227 49.0877 47.828V52H48.1077V44.356H49.0877V45.658C49.3304 45.1913 49.6804 44.8367 50.1377 44.594C50.5951 44.342 51.1131 44.216 51.6917 44.216ZM60.1789 42.914C59.9829 42.914 59.8149 42.844 59.6749 42.704C59.5349 42.564 59.4649 42.3913 59.4649 42.186C59.4649 41.9807 59.5349 41.8127 59.6749 41.682C59.8149 41.542 59.9829 41.472 60.1789 41.472C60.3749 41.472 60.5429 41.542 60.6829 41.682C60.8229 41.8127 60.8929 41.9807 60.8929 42.186C60.8929 42.3913 60.8229 42.564 60.6829 42.704C60.5429 42.844 60.3749 42.914 60.1789 42.914ZM60.6689 44.356V52H59.6889V44.356H60.6689ZM65.9681 44.216C66.5468 44.216 67.0648 44.3373 67.5221 44.58C67.9888 44.8227 68.3528 45.196 68.6141 45.7C68.8848 46.1947 69.0201 46.8013 69.0201 47.52V52H68.0541V47.632C68.0541 46.8013 67.8441 46.1667 67.4241 45.728C67.0135 45.2893 66.4488 45.07 65.7301 45.07C64.9928 45.07 64.4048 45.3033 63.9661 45.77C63.5275 46.2367 63.3081 46.9227 63.3081 47.828V52H62.3281V41.64H63.3081V45.658C63.5508 45.2007 63.9055 44.846 64.3721 44.594C64.8481 44.342 65.3801 44.216 65.9681 44.216ZM71.6075 45.714C71.8222 45.238 72.1488 44.8693 72.5875 44.608C73.0355 44.3467 73.5815 44.216 74.2255 44.216V45.238H73.9595C73.2502 45.238 72.6808 45.4293 72.2515 45.812C71.8222 46.1947 71.6075 46.834 71.6075 47.73V52H70.6275V44.356H71.6075V45.714ZM82.0558 47.786C82.0558 48.122 82.0464 48.3787 82.0278 48.556H75.6858C75.7138 49.1347 75.8538 49.6293 76.1058 50.04C76.3578 50.4507 76.6891 50.7633 77.0998 50.978C77.5104 51.1833 77.9584 51.286 78.4438 51.286C79.0784 51.286 79.6104 51.132 80.0398 50.824C80.4784 50.516 80.7678 50.1007 80.9078 49.578H81.9438C81.7571 50.3247 81.3558 50.936 80.7398 51.412C80.1331 51.8787 79.3678 52.112 78.4438 52.112C77.7251 52.112 77.0811 51.9533 76.5118 51.636C75.9424 51.3093 75.4944 50.852 75.1678 50.264C74.8504 49.6667 74.6918 48.9713 74.6918 48.178C74.6918 47.3847 74.8504 46.6893 75.1678 46.092C75.4851 45.4947 75.9284 45.0373 76.4978 44.72C77.0671 44.4027 77.7158 44.244 78.4438 44.244C79.1718 44.244 79.8064 44.4027 80.3478 44.72C80.8984 45.0373 81.3184 45.4667 81.6078 46.008C81.9064 46.54 82.0558 47.1327 82.0558 47.786ZM81.0618 47.758C81.0711 47.1887 80.9544 46.7033 80.7118 46.302C80.4784 45.9007 80.1564 45.5973 79.7458 45.392C79.3351 45.1867 78.8871 45.084 78.4018 45.084C77.6738 45.084 77.0531 45.3173 76.5398 45.784C76.0264 46.2507 75.7418 46.9087 75.6858 47.758H81.0618ZM84.2687 45.714C84.4834 45.238 84.8101 44.8693 85.2487 44.608C85.6967 44.3467 86.2427 44.216 86.8867 44.216V45.238H86.6207C85.9114 45.238 85.3421 45.4293 84.9127 45.812C84.4834 46.1947 84.2687 46.834 84.2687 47.73V52H83.2887V44.356H84.2687V45.714ZM40.6794 63.028C40.6794 63.868 40.404 64.5447 39.8534 65.058C39.3027 65.5713 38.4767 65.828 37.3754 65.828H35.4014V70H34.4214V60.214H37.3754C38.4674 60.214 39.2887 60.4707 39.8394 60.984C40.3994 61.4973 40.6794 62.1787 40.6794 63.028ZM37.3754 64.988C38.906 64.988 39.6714 64.3347 39.6714 63.028C39.6714 62.3747 39.4894 61.88 39.1254 61.544C38.7614 61.208 38.178 61.04 37.3754 61.04H35.4014V64.988H37.3754ZM42.7437 63.714C42.9584 63.238 43.285 62.8693 43.7237 62.608C44.1717 62.3467 44.7177 62.216 45.3617 62.216V63.238H45.0957C44.3864 63.238 43.817 63.4293 43.3877 63.812C42.9584 64.1947 42.7437 64.834 42.7437 65.73V70H41.7637V62.356H42.7437V63.714ZM45.828 66.164C45.828 65.38 45.982 64.694 46.29 64.106C46.6073 63.5087 47.0413 63.0513 47.592 62.734C48.152 62.4073 48.782 62.244 49.482 62.244C50.21 62.244 50.8353 62.412 51.358 62.748C51.89 63.084 52.2726 63.5133 52.506 64.036V62.356H53.486V70H52.506V68.306C52.2633 68.8287 51.876 69.2627 51.344 69.608C50.8213 69.944 50.196 70.112 49.468 70.112C48.7773 70.112 48.152 69.9487 47.592 69.622C47.0413 69.2953 46.6073 68.8333 46.29 68.236C45.982 67.6387 45.828 66.948 45.828 66.164ZM52.506 66.178C52.506 65.562 52.38 65.0207 52.128 64.554C51.876 64.0873 51.5306 63.728 51.092 63.476C50.6626 63.224 50.1866 63.098 49.664 63.098C49.1226 63.098 48.6373 63.2193 48.208 63.462C47.7786 63.7047 47.438 64.0593 47.186 64.526C46.9433 64.9833 46.822 65.5293 46.822 66.164C46.822 66.7893 46.9433 67.34 47.186 67.816C47.438 68.2827 47.7786 68.642 48.208 68.894C48.6373 69.1367 49.1226 69.258 49.664 69.258C50.1866 69.258 50.6626 69.132 51.092 68.88C51.5306 68.628 51.876 68.2687 52.128 67.802C52.38 67.3353 52.506 66.794 52.506 66.178ZM59.1672 70L57.1932 66.92L55.2892 70H54.2532L56.7172 66.178L54.2812 62.356H55.3872L57.3332 65.394L59.2232 62.356H60.2452L57.8092 66.136L60.2732 70H59.1672ZM61.5327 60.914C61.3367 60.914 61.1687 60.844 61.0287 60.704C60.8887 60.564 60.8187 60.3913 60.8187 60.186C60.8187 59.9807 60.8887 59.8127 61.0287 59.682C61.1687 59.542 61.3367 59.472 61.5327 59.472C61.7287 59.472 61.8967 59.542 62.0367 59.682C62.1767 59.8127 62.2467 59.9807 62.2467 60.186C62.2467 60.3913 62.1767 60.564 62.0367 60.704C61.8967 60.844 61.7287 60.914 61.5327 60.914ZM62.0227 62.356V70H61.0427V62.356H62.0227ZM66.3139 70.112C65.4366 70.112 64.7179 69.9113 64.1579 69.51C63.6072 69.0993 63.2992 68.544 63.2339 67.844H64.2419C64.2886 68.2733 64.4892 68.6233 64.8439 68.894C65.2079 69.1553 65.6932 69.286 66.2999 69.286C66.8319 69.286 67.2472 69.16 67.5459 68.908C67.8539 68.656 68.0079 68.3433 68.0079 67.97C68.0079 67.7087 67.9239 67.494 67.7559 67.326C67.5879 67.158 67.3732 67.0273 67.1119 66.934C66.8599 66.8313 66.5146 66.724 66.0759 66.612C65.5066 66.4627 65.0446 66.3133 64.6899 66.164C64.3352 66.0147 64.0319 65.7953 63.7799 65.506C63.5372 65.2073 63.4159 64.8107 63.4159 64.316C63.4159 63.9427 63.5279 63.5973 63.7519 63.28C63.9759 62.9627 64.2932 62.7107 64.7039 62.524C65.1146 62.3373 65.5812 62.244 66.1039 62.244C66.9252 62.244 67.5879 62.454 68.0919 62.874C68.5959 63.2847 68.8666 63.854 68.9039 64.582H67.9239C67.8959 64.134 67.7186 63.7747 67.3919 63.504C67.0746 63.224 66.6359 63.084 66.0759 63.084C65.5812 63.084 65.1799 63.2007 64.8719 63.434C64.5639 63.6673 64.4099 63.9567 64.4099 64.302C64.4099 64.6007 64.4986 64.848 64.6759 65.044C64.8626 65.2307 65.0912 65.38 65.3619 65.492C65.6326 65.5947 65.9966 65.7113 66.4539 65.842C67.0046 65.9913 67.4432 66.136 67.7699 66.276C68.0966 66.416 68.3766 66.6213 68.6099 66.892C68.8432 67.1627 68.9646 67.522 68.9739 67.97C68.9739 68.3807 68.8619 68.7493 68.6379 69.076C68.4139 69.3933 68.1012 69.6453 67.6999 69.832C67.2986 70.0187 66.8366 70.112 66.3139 70.112Z" fill="#4E4E4E"/>
</svg>
