<svg width="103" height="103" viewBox="0 0 103 103" fill="none" xmlns="http://www.w3.org/2000/svg">
<circle cx="51.5039" cy="51.5015" r="51.073" fill="#FAF67E" stroke="white" stroke-width="0.85405"/>
<path d="M55.079 20.2415H51.957V23.3915H51.047V20.2415H47.939V19.4015H51.047V16.2515H51.957V19.4015H55.079V20.2415ZM32.0985 38.7875C32.0985 39.1235 32.0892 39.3801 32.0705 39.5575H25.7285C25.7565 40.1361 25.8965 40.6308 26.1485 41.0415C26.4005 41.4521 26.7319 41.7648 27.1425 41.9795C27.5532 42.1848 28.0012 42.2875 28.4865 42.2875C29.1212 42.2875 29.6532 42.1335 30.0825 41.8255C30.5212 41.5175 30.8105 41.1021 30.9505 40.5795H31.9865C31.7999 41.3261 31.3985 41.9375 30.7825 42.4135C30.1759 42.8801 29.4105 43.1135 28.4865 43.1135C27.7679 43.1135 27.1239 42.9548 26.5545 42.6375C25.9852 42.3108 25.5372 41.8535 25.2105 41.2655C24.8932 40.6681 24.7345 39.9728 24.7345 39.1795C24.7345 38.3861 24.8932 37.6908 25.2105 37.0935C25.5279 36.4961 25.9712 36.0388 26.5405 35.7215C27.1099 35.4041 27.7585 35.2455 28.4865 35.2455C29.2145 35.2455 29.8492 35.4041 30.3905 35.7215C30.9412 36.0388 31.3612 36.4681 31.6505 37.0095C31.9492 37.5415 32.0985 38.1341 32.0985 38.7875ZM31.1045 38.7595C31.1139 38.1901 30.9972 37.7048 30.7545 37.3035C30.5212 36.9021 30.1992 36.5988 29.7885 36.3935C29.3779 36.1881 28.9299 36.0855 28.4445 36.0855C27.7165 36.0855 27.0959 36.3188 26.5825 36.7855C26.0692 37.2521 25.7845 37.9101 25.7285 38.7595H31.1045ZM38.5395 43.0015L36.1175 38.9135H34.3115V43.0015H33.3315V33.2155H36.2715C37.3635 33.2155 38.1895 33.4768 38.7495 33.9995C39.3189 34.5221 39.6035 35.2081 39.6035 36.0575C39.6035 36.7668 39.3982 37.3735 38.9875 37.8775C38.5862 38.3721 37.9889 38.6941 37.1955 38.8435L39.7155 43.0015H38.5395ZM34.3115 38.1155H36.2855C37.0509 38.1155 37.6249 37.9288 38.0075 37.5555C38.3995 37.1821 38.5955 36.6828 38.5955 36.0575C38.5955 35.4135 38.4089 34.9188 38.0355 34.5735C37.6622 34.2188 37.0742 34.0415 36.2715 34.0415H34.3115V38.1155ZM47.9043 38.7875C47.9043 39.1235 47.895 39.3801 47.8763 39.5575H41.5343C41.5623 40.1361 41.7023 40.6308 41.9543 41.0415C42.2063 41.4521 42.5377 41.7648 42.9483 41.9795C43.359 42.1848 43.807 42.2875 44.2923 42.2875C44.927 42.2875 45.459 42.1335 45.8883 41.8255C46.327 41.5175 46.6163 41.1021 46.7563 40.5795H47.7923C47.6057 41.3261 47.2043 41.9375 46.5883 42.4135C45.9817 42.8801 45.2163 43.1135 44.2923 43.1135C43.5737 43.1135 42.9297 42.9548 42.3603 42.6375C41.791 42.3108 41.343 41.8535 41.0163 41.2655C40.699 40.6681 40.5403 39.9728 40.5403 39.1795C40.5403 38.3861 40.699 37.6908 41.0163 37.0935C41.3337 36.4961 41.777 36.0388 42.3463 35.7215C42.9157 35.4041 43.5643 35.2455 44.2923 35.2455C45.0203 35.2455 45.655 35.4041 46.1963 35.7215C46.747 36.0388 47.167 36.4681 47.4563 37.0095C47.755 37.5415 47.9043 38.1341 47.9043 38.7875ZM46.9103 38.7595C46.9197 38.1901 46.803 37.7048 46.5603 37.3035C46.327 36.9021 46.005 36.5988 45.5943 36.3935C45.1837 36.1881 44.7357 36.0855 44.2503 36.0855C43.5223 36.0855 42.9017 36.3188 42.3883 36.7855C41.875 37.2521 41.5903 37.9101 41.5343 38.7595H46.9103ZM49.6553 42.1895H53.6593V43.0015H48.5353V42.1895L52.4693 36.1695H48.6053V35.3575H53.5893V36.1695L49.6553 42.1895ZM61.673 38.7875C61.673 39.1235 61.6637 39.3801 61.645 39.5575H55.303C55.331 40.1361 55.471 40.6308 55.723 41.0415C55.975 41.4521 56.3063 41.7648 56.717 41.9795C57.1277 42.1848 57.5757 42.2875 58.061 42.2875C58.6957 42.2875 59.2277 42.1335 59.657 41.8255C60.0957 41.5175 60.385 41.1021 60.525 40.5795H61.561C61.3743 41.3261 60.973 41.9375 60.357 42.4135C59.7503 42.8801 58.985 43.1135 58.061 43.1135C57.3423 43.1135 56.6983 42.9548 56.129 42.6375C55.5597 42.3108 55.1117 41.8535 54.785 41.2655C54.4677 40.6681 54.309 39.9728 54.309 39.1795C54.309 38.3861 54.4677 37.6908 54.785 37.0935C55.1023 36.4961 55.5457 36.0388 56.115 35.7215C56.6843 35.4041 57.333 35.2455 58.061 35.2455C58.789 35.2455 59.4237 35.4041 59.965 35.7215C60.5157 36.0388 60.9357 36.4681 61.225 37.0095C61.5237 37.5415 61.673 38.1341 61.673 38.7875ZM60.679 38.7595C60.6883 38.1901 60.5717 37.7048 60.329 37.3035C60.0957 36.9021 59.7737 36.5988 59.363 36.3935C58.9523 36.1881 58.5043 36.0855 58.019 36.0855C57.291 36.0855 56.6703 36.3188 56.157 36.7855C55.6437 37.2521 55.359 37.9101 55.303 38.7595H60.679ZM63.872 37.0375C64.1146 36.5241 64.4973 36.0995 65.02 35.7635C65.552 35.4181 66.182 35.2455 66.91 35.2455C67.6006 35.2455 68.2213 35.4088 68.772 35.7355C69.332 36.0528 69.766 36.5101 70.074 37.1075C70.3913 37.6955 70.55 38.3815 70.55 39.1655C70.55 39.9495 70.3913 40.6401 70.074 41.2375C69.766 41.8348 69.332 42.2968 68.772 42.6235C68.2213 42.9501 67.6006 43.1135 66.91 43.1135C66.1913 43.1135 65.566 42.9455 65.034 42.6095C64.502 42.2641 64.1146 41.8348 63.872 41.3215V46.6135H62.906V35.3575H63.872V37.0375ZM69.556 39.1655C69.556 38.5308 69.43 37.9848 69.178 37.5275C68.9353 37.0608 68.5993 36.7061 68.17 36.4635C67.7406 36.2208 67.2553 36.0995 66.714 36.0995C66.1913 36.0995 65.7106 36.2255 65.272 36.4775C64.8426 36.7295 64.502 37.0888 64.25 37.5555C63.998 38.0221 63.872 38.5635 63.872 39.1795C63.872 39.7955 63.998 40.3368 64.25 40.8035C64.502 41.2701 64.8426 41.6295 65.272 41.8815C65.7106 42.1335 66.1913 42.2595 66.714 42.2595C67.2553 42.2595 67.7406 42.1381 68.17 41.8955C68.5993 41.6435 68.9353 41.2841 69.178 40.8175C69.43 40.3415 69.556 39.7908 69.556 39.1655ZM73.0672 36.1835V40.9295C73.0672 41.3961 73.1559 41.7181 73.3332 41.8955C73.5106 42.0728 73.8232 42.1615 74.2712 42.1615H75.1672V43.0015H74.1172C73.4266 43.0015 72.9132 42.8428 72.5772 42.5255C72.2412 42.1988 72.0732 41.6668 72.0732 40.9295V36.1835H71.0092V35.3575H72.0732V33.4395H73.0672V35.3575H75.1672V36.1835H73.0672ZM15.846 55.0375C16.0886 54.5241 16.4713 54.0995 16.994 53.7635C17.526 53.4181 18.156 53.2455 18.884 53.2455C19.5746 53.2455 20.1953 53.4088 20.746 53.7355C21.306 54.0528 21.74 54.5101 22.048 55.1075C22.3653 55.6955 22.524 56.3815 22.524 57.1655C22.524 57.9495 22.3653 58.6401 22.048 59.2375C21.74 59.8348 21.306 60.2968 20.746 60.6235C20.1953 60.9501 19.5746 61.1135 18.884 61.1135C18.1653 61.1135 17.54 60.9455 17.008 60.6095C16.476 60.2641 16.0886 59.8348 15.846 59.3215V64.6135H14.88V53.3575H15.846V55.0375ZM21.53 57.1655C21.53 56.5308 21.404 55.9848 21.152 55.5275C20.9093 55.0608 20.5733 54.7061 20.144 54.4635C19.7146 54.2208 19.2293 54.0995 18.688 54.0995C18.1653 54.0995 17.6846 54.2255 17.246 54.4775C16.8166 54.7295 16.476 55.0888 16.224 55.5555C15.972 56.0221 15.846 56.5635 15.846 57.1795C15.846 57.7955 15.972 58.3368 16.224 58.8035C16.476 59.2701 16.8166 59.6295 17.246 59.8815C17.6846 60.1335 18.1653 60.2595 18.688 60.2595C19.2293 60.2595 19.7146 60.1381 20.144 59.8955C20.5733 59.6435 20.9093 59.2841 21.152 58.8175C21.404 58.3415 21.53 57.7908 21.53 57.1655ZM30.6832 56.7875C30.6832 57.1235 30.6739 57.3801 30.6552 57.5575H24.3132C24.3412 58.1361 24.4812 58.6308 24.7332 59.0415C24.9852 59.4521 25.3166 59.7648 25.7272 59.9795C26.1379 60.1848 26.5859 60.2875 27.0712 60.2875C27.7059 60.2875 28.2379 60.1335 28.6672 59.8255C29.1059 59.5175 29.3952 59.1021 29.5352 58.5795H30.5712C30.3846 59.3261 29.9832 59.9375 29.3672 60.4135C28.7606 60.8801 27.9952 61.1135 27.0712 61.1135C26.3526 61.1135 25.7086 60.9548 25.1392 60.6375C24.5699 60.3108 24.1219 59.8535 23.7952 59.2655C23.4779 58.6681 23.3192 57.9728 23.3192 57.1795C23.3192 56.3861 23.4779 55.6908 23.7952 55.0935C24.1126 54.4961 24.5559 54.0388 25.1252 53.7215C25.6946 53.4041 26.3432 53.2455 27.0712 53.2455C27.7992 53.2455 28.4339 53.4041 28.9752 53.7215C29.5259 54.0388 29.9459 54.4681 30.2352 55.0095C30.5339 55.5415 30.6832 56.1341 30.6832 56.7875ZM29.6892 56.7595C29.6986 56.1901 29.5819 55.7048 29.3392 55.3035C29.1059 54.9021 28.7839 54.5988 28.3732 54.3935C27.9626 54.1881 27.5146 54.0855 27.0292 54.0855C26.3012 54.0855 25.6806 54.3188 25.1672 54.7855C24.6539 55.2521 24.3692 55.9101 24.3132 56.7595H29.6892ZM32.8962 54.7155C33.1109 54.2395 33.4375 53.8708 33.8762 53.6095C34.3242 53.3481 34.8702 53.2175 35.5142 53.2175V54.2395H35.2482C34.5389 54.2395 33.9695 54.4308 33.5402 54.8135C33.1109 55.1961 32.8962 55.8355 32.8962 56.7315V61.0015H31.9162V53.3575H32.8962V54.7155ZM45.3803 58.6775H40.9283L40.0743 61.0015H39.0383L42.6083 51.3415H43.7143L47.2703 61.0015H46.2343L45.3803 58.6775ZM45.0863 57.8655L43.1543 52.5735L41.2223 57.8655H45.0863ZM49.2491 55.0375C49.4918 54.5241 49.8744 54.0995 50.3971 53.7635C50.9291 53.4181 51.5591 53.2455 52.2871 53.2455C52.9778 53.2455 53.5984 53.4088 54.1491 53.7355C54.7091 54.0528 55.1431 54.5101 55.4511 55.1075C55.7684 55.6955 55.9271 56.3815 55.9271 57.1655C55.9271 57.9495 55.7684 58.6401 55.4511 59.2375C55.1431 59.8348 54.7091 60.2968 54.1491 60.6235C53.5984 60.9501 52.9778 61.1135 52.2871 61.1135C51.5684 61.1135 50.9431 60.9455 50.4111 60.6095C49.8791 60.2641 49.4918 59.8348 49.2491 59.3215V64.6135H48.2831V53.3575H49.2491V55.0375ZM54.9331 57.1655C54.9331 56.5308 54.8071 55.9848 54.5551 55.5275C54.3124 55.0608 53.9764 54.7061 53.5471 54.4635C53.1178 54.2208 52.6324 54.0995 52.0911 54.0995C51.5684 54.0995 51.0878 54.2255 50.6491 54.4775C50.2198 54.7295 49.8791 55.0888 49.6271 55.5555C49.3751 56.0221 49.2491 56.5635 49.2491 57.1795C49.2491 57.7955 49.3751 58.3368 49.6271 58.8035C49.8791 59.2701 50.2198 59.6295 50.6491 59.8815C51.0878 60.1335 51.5684 60.2595 52.0911 60.2595C52.6324 60.2595 53.1178 60.1381 53.5471 59.8955C53.9764 59.6435 54.3124 59.2841 54.5551 58.8175C54.8071 58.3415 54.9331 57.7908 54.9331 57.1655ZM58.1364 55.0375C58.379 54.5241 58.7617 54.0995 59.2844 53.7635C59.8164 53.4181 60.4464 53.2455 61.1744 53.2455C61.865 53.2455 62.4857 53.4088 63.0364 53.7355C63.5964 54.0528 64.0304 54.5101 64.3384 55.1075C64.6557 55.6955 64.8144 56.3815 64.8144 57.1655C64.8144 57.9495 64.6557 58.6401 64.3384 59.2375C64.0304 59.8348 63.5964 60.2968 63.0364 60.6235C62.4857 60.9501 61.865 61.1135 61.1744 61.1135C60.4557 61.1135 59.8304 60.9455 59.2984 60.6095C58.7664 60.2641 58.379 59.8348 58.1364 59.3215V64.6135H57.1704V53.3575H58.1364V55.0375ZM63.8204 57.1655C63.8204 56.5308 63.6944 55.9848 63.4424 55.5275C63.1997 55.0608 62.8637 54.7061 62.4344 54.4635C62.005 54.2208 61.5197 54.0995 60.9784 54.0995C60.4557 54.0995 59.975 54.2255 59.5364 54.4775C59.107 54.7295 58.7664 55.0888 58.5144 55.5555C58.2624 56.0221 58.1364 56.5635 58.1364 57.1795C58.1364 57.7955 58.2624 58.3368 58.5144 58.8035C58.7664 59.2701 59.107 59.6295 59.5364 59.8815C59.975 60.1335 60.4557 60.2595 60.9784 60.2595C61.5197 60.2595 62.005 60.1381 62.4344 59.8955C62.8637 59.6435 63.1997 59.2841 63.4424 58.8175C63.6944 58.3415 63.8204 57.7908 63.8204 57.1655ZM68.8914 57.1655C68.8914 56.3815 69.0454 55.6955 69.3534 55.1075C69.6707 54.5101 70.1047 54.0528 70.6554 53.7355C71.2154 53.4088 71.8454 53.2455 72.5454 53.2455C73.2734 53.2455 73.8987 53.4135 74.4214 53.7495C74.9534 54.0855 75.3361 54.5148 75.5694 55.0375V53.3575H76.5494V61.0015H75.5694V59.3075C75.3267 59.8301 74.9394 60.2641 74.4074 60.6095C73.8847 60.9455 73.2594 61.1135 72.5314 61.1135C71.8407 61.1135 71.2154 60.9501 70.6554 60.6235C70.1047 60.2968 69.6707 59.8348 69.3534 59.2375C69.0454 58.6401 68.8914 57.9495 68.8914 57.1655ZM75.5694 57.1795C75.5694 56.5635 75.4434 56.0221 75.1914 55.5555C74.9394 55.0888 74.5941 54.7295 74.1554 54.4775C73.7261 54.2255 73.2501 54.0995 72.7274 54.0995C72.1861 54.0995 71.7007 54.2208 71.2714 54.4635C70.8421 54.7061 70.5014 55.0608 70.2494 55.5275C70.0067 55.9848 69.8854 56.5308 69.8854 57.1655C69.8854 57.7908 70.0067 58.3415 70.2494 58.8175C70.5014 59.2841 70.8421 59.6435 71.2714 59.8955C71.7007 60.1381 72.1861 60.2595 72.7274 60.2595C73.2501 60.2595 73.7261 60.1335 74.1554 59.8815C74.5941 59.6295 74.9394 59.2701 75.1914 58.8035C75.4434 58.3368 75.5694 57.7955 75.5694 57.1795ZM81.8107 53.2175C82.7253 53.2175 83.472 53.5021 84.0507 54.0715C84.6293 54.6315 84.9187 55.4481 84.9187 56.5215V61.0015H83.9527V56.6335C83.9527 55.8028 83.7427 55.1681 83.3227 54.7295C82.912 54.2908 82.3473 54.0715 81.6287 54.0715C80.8913 54.0715 80.3033 54.3048 79.8647 54.7715C79.426 55.2381 79.2067 55.9241 79.2067 56.8295V61.0015H78.2267V53.3575H79.2067V54.6595C79.4493 54.1928 79.7993 53.8381 80.2567 53.5955C80.714 53.3435 81.232 53.2175 81.8107 53.2175ZM27.4756 76.6775H23.0236L22.1696 79.0015H21.1336L24.7036 69.3415H25.8096L29.3656 79.0015H28.3296L27.4756 76.6775ZM27.1816 75.8655L25.2496 70.5735L23.3176 75.8655H27.1816ZM31.3444 73.0375C31.5871 72.5241 31.9697 72.0995 32.4924 71.7635C33.0244 71.4181 33.6544 71.2455 34.3824 71.2455C35.0731 71.2455 35.6937 71.4088 36.2444 71.7355C36.8044 72.0528 37.2384 72.5101 37.5464 73.1075C37.8637 73.6955 38.0224 74.3815 38.0224 75.1655C38.0224 75.9495 37.8637 76.6401 37.5464 77.2375C37.2384 77.8348 36.8044 78.2968 36.2444 78.6235C35.6937 78.9501 35.0731 79.1135 34.3824 79.1135C33.6637 79.1135 33.0384 78.9455 32.5064 78.6095C31.9744 78.2641 31.5871 77.8348 31.3444 77.3215V82.6135H30.3784V71.3575H31.3444V73.0375ZM37.0284 75.1655C37.0284 74.5308 36.9024 73.9848 36.6504 73.5275C36.4077 73.0608 36.0717 72.7061 35.6424 72.4635C35.2131 72.2208 34.7277 72.0995 34.1864 72.0995C33.6637 72.0995 33.1831 72.2255 32.7444 72.4775C32.3151 72.7295 31.9744 73.0888 31.7224 73.5555C31.4704 74.0221 31.3444 74.5635 31.3444 75.1795C31.3444 75.7955 31.4704 76.3368 31.7224 76.8035C31.9744 77.2701 32.3151 77.6295 32.7444 77.8815C33.1831 78.1335 33.6637 78.2595 34.1864 78.2595C34.7277 78.2595 35.2131 78.1381 35.6424 77.8955C36.0717 77.6435 36.4077 77.2841 36.6504 76.8175C36.9024 76.3415 37.0284 75.7908 37.0284 75.1655ZM42.6117 79.1135C41.893 79.1135 41.2443 78.9548 40.6657 78.6375C40.0963 78.3108 39.6437 77.8535 39.3077 77.2655C38.981 76.6681 38.8177 75.9728 38.8177 75.1795C38.8177 74.3861 38.9857 73.6955 39.3217 73.1075C39.6577 72.5101 40.115 72.0528 40.6937 71.7355C41.2723 71.4088 41.921 71.2455 42.6397 71.2455C43.3583 71.2455 44.007 71.4088 44.5857 71.7355C45.1737 72.0528 45.631 72.5101 45.9577 73.1075C46.2937 73.6955 46.4617 74.3861 46.4617 75.1795C46.4617 75.9635 46.2937 76.6541 45.9577 77.2515C45.6217 77.8488 45.1597 78.3108 44.5717 78.6375C43.9837 78.9548 43.3303 79.1135 42.6117 79.1135ZM42.6117 78.2595C43.1157 78.2595 43.5823 78.1475 44.0117 77.9235C44.441 77.6901 44.7863 77.3448 45.0477 76.8875C45.3183 76.4208 45.4537 75.8515 45.4537 75.1795C45.4537 74.5075 45.323 73.9428 45.0617 73.4855C44.8003 73.0188 44.455 72.6735 44.0257 72.4495C43.5963 72.2161 43.1297 72.0995 42.6257 72.0995C42.1217 72.0995 41.655 72.2161 41.2257 72.4495C40.7963 72.6735 40.451 73.0188 40.1897 73.4855C39.9377 73.9428 39.8117 74.5075 39.8117 75.1795C39.8117 75.8515 39.9377 76.4208 40.1897 76.8875C40.451 77.3448 40.7917 77.6901 41.2117 77.9235C41.641 78.1475 42.1077 78.2595 42.6117 78.2595ZM48.9621 72.1835V76.9295C48.9621 77.3961 49.0508 77.7181 49.2281 77.8955C49.4054 78.0728 49.7181 78.1615 50.1661 78.1615H51.0621V79.0015H50.0121C49.3214 79.0015 48.8081 78.8428 48.4721 78.5255C48.1361 78.1988 47.9681 77.6668 47.9681 76.9295V72.1835H46.9041V71.3575H47.9681V69.4395H48.9621V71.3575H51.0621V72.1835H48.9621ZM55.7583 71.2175C56.337 71.2175 56.855 71.3388 57.3123 71.5815C57.779 71.8241 58.143 72.1975 58.4043 72.7015C58.675 73.1961 58.8103 73.8028 58.8103 74.5215V79.0015H57.8443V74.6335C57.8443 73.8028 57.6343 73.1681 57.2143 72.7295C56.8037 72.2908 56.239 72.0715 55.5203 72.0715C54.783 72.0715 54.195 72.3048 53.7563 72.7715C53.3177 73.2381 53.0983 73.9241 53.0983 74.8295V79.0015H52.1183V68.6415H53.0983V72.6595C53.341 72.2021 53.6957 71.8475 54.1623 71.5955C54.6383 71.3435 55.1703 71.2175 55.7583 71.2175ZM67.3337 74.7875C67.3337 75.1235 67.3244 75.3801 67.3057 75.5575H60.9637C60.9917 76.1361 61.1317 76.6308 61.3837 77.0415C61.6357 77.4521 61.967 77.7648 62.3777 77.9795C62.7884 78.1848 63.2364 78.2875 63.7217 78.2875C64.3564 78.2875 64.8884 78.1335 65.3177 77.8255C65.7564 77.5175 66.0457 77.1021 66.1857 76.5795H67.2217C67.035 77.3261 66.6337 77.9375 66.0177 78.4135C65.411 78.8801 64.6457 79.1135 63.7217 79.1135C63.003 79.1135 62.359 78.9548 61.7897 78.6375C61.2204 78.3108 60.7724 77.8535 60.4457 77.2655C60.1284 76.6681 59.9697 75.9728 59.9697 75.1795C59.9697 74.3861 60.1284 73.6908 60.4457 73.0935C60.763 72.4961 61.2064 72.0388 61.7757 71.7215C62.345 71.4041 62.9937 71.2455 63.7217 71.2455C64.4497 71.2455 65.0844 71.4041 65.6257 71.7215C66.1764 72.0388 66.5964 72.4681 66.8857 73.0095C67.1844 73.5415 67.3337 74.1341 67.3337 74.7875ZM66.3397 74.7595C66.349 74.1901 66.2324 73.7048 65.9897 73.3035C65.7564 72.9021 65.4344 72.5988 65.0237 72.3935C64.613 72.1881 64.165 72.0855 63.6797 72.0855C62.9517 72.0855 62.331 72.3188 61.8177 72.7855C61.3044 73.2521 61.0197 73.9101 60.9637 74.7595H66.3397ZM72.6967 79.0015L69.5467 75.5715V79.0015H68.5667V68.6415H69.5467V74.7735L72.6267 71.3575H73.9987L70.3727 75.1655L74.0267 79.0015H72.6967ZM81.6492 74.7875C81.6492 75.1235 81.6399 75.3801 81.6212 75.5575H75.2792C75.3072 76.1361 75.4472 76.6308 75.6992 77.0415C75.9512 77.4521 76.2826 77.7648 76.6932 77.9795C77.1039 78.1848 77.5519 78.2875 78.0372 78.2875C78.6719 78.2875 79.2039 78.1335 79.6332 77.8255C80.0719 77.5175 80.3612 77.1021 80.5012 76.5795H81.5372C81.3506 77.3261 80.9492 77.9375 80.3332 78.4135C79.7266 78.8801 78.9612 79.1135 78.0372 79.1135C77.3186 79.1135 76.6746 78.9548 76.1052 78.6375C75.5359 78.3108 75.0879 77.8535 74.7612 77.2655C74.4439 76.6681 74.2852 75.9728 74.2852 75.1795C74.2852 74.3861 74.4439 73.6908 74.7612 73.0935C75.0786 72.4961 75.5219 72.0388 76.0912 71.7215C76.6606 71.4041 77.3092 71.2455 78.0372 71.2455C78.7652 71.2455 79.3999 71.4041 79.9412 71.7215C80.4919 72.0388 80.9119 72.4681 81.2012 73.0095C81.4999 73.5415 81.6492 74.1341 81.6492 74.7875ZM80.6552 74.7595C80.6646 74.1901 80.5479 73.7048 80.3052 73.3035C80.0719 72.9021 79.7499 72.5988 79.3392 72.3935C78.9286 72.1881 78.4806 72.0855 77.9952 72.0855C77.2672 72.0855 76.6466 72.3188 76.1332 72.7855C75.6199 73.2521 75.3352 73.9101 75.2792 74.7595H80.6552Z" fill="#4E4E4E"/>
</svg>
