<svg viewBox="0 0 73.3252 80.1694" xmlns="http://www.w3.org/2000/svg" xmlns:xlink="http://www.w3.org/1999/xlink" width="73.325195" height="80.169434" fill="none" customFrame="#000000">
	<g id="Group">
		<g id="Group">
			<path id="Vector" d="M28.2181 80.1695C24.2076 80.1695 19.8292 78.0162 15.598 73.912C4.6887 63.2741 -2.02611 42.6241 0.549431 27.6059C1.8372 20.152 5.20381 15.1643 10.0605 13.5815C14.8253 12.0355 20.3995 13.9864 25.753 19.0845C31.8791 24.9188 41.4638 24.9188 47.5715 19.0845C52.9249 13.9864 58.4992 12.0171 63.2639 13.5815C68.1207 15.1643 71.4873 20.1336 72.775 27.6059C75.3506 42.6241 68.6358 63.2741 57.7081 73.912C52.2811 79.1941 46.6333 81.2186 41.7765 79.6542C39.8265 79.0285 38.1156 77.8322 36.6622 76.1205C35.2089 77.8322 33.498 79.0285 31.5479 79.6542C30.4809 79.9855 29.3587 80.1695 28.2181 80.1695ZM13.372 14.8514C12.4153 14.8514 11.4955 14.9987 10.6124 15.2747C6.41799 16.6367 3.47451 21.1274 2.31552 27.9003C-0.168041 42.348 6.3628 62.4091 16.8673 72.6236C21.7977 77.4273 26.82 79.3045 31.0144 77.9426C32.9277 77.3168 34.6018 76.0469 35.9632 74.1328C36.3127 73.6359 37.0486 73.6359 37.4165 74.1328C38.7779 76.0285 40.452 77.3168 42.3652 77.9426C46.5597 79.3045 51.582 77.4273 56.5123 72.6236C67.0168 62.4091 73.5293 42.348 71.0641 27.9003C68.6726 13.968 58.9407 10.7288 48.8409 20.3728C42.0341 26.8697 31.364 26.8697 24.5572 20.3728C20.7123 16.7471 16.8489 14.8514 13.372 14.8514Z" fill="#fff" fill-rule="nonzero"/>
		</g>
		<g id="Group">
			<path id="Vector" d="M26.691 13.5672C23.7476 11.3034 22.0735 7.73291 22.1838 4.01517C22.2022 3.62868 22.4598 3.29739 22.8093 3.18696C26.3783 2.11949 30.26 2.83728 33.2035 5.10105C36.147 7.36482 37.8211 10.9353 37.7107 14.6531C37.6923 15.0396 37.4347 15.3708 37.0852 15.4813C33.5346 16.5303 29.6529 15.831 26.691 13.5672ZM23.9683 4.71455C24.0787 7.62249 25.4585 10.3648 27.7765 12.15C30.0944 13.9353 33.0931 14.5794 35.9262 13.9353C35.8158 11.0273 34.4361 8.28505 32.1181 6.4998C29.8001 4.71455 26.8014 4.07039 23.9683 4.71455Z" fill="#fff" fill-rule="nonzero"/>
		</g>
		<g id="Group">
			<path id="Vector" d="M36.8284 24.9388C36.3316 24.9388 35.9453 24.5339 35.9453 24.0554L35.9453 13.3623C35.9453 6.00041 41.9426 0.000488281 49.3013 0.000488281C49.7981 0.000488281 50.1844 0.40539 50.1844 0.883911C50.1844 1.36243 49.7797 1.76733 49.3013 1.76733C42.9177 1.76733 37.7298 6.95745 37.7298 13.3439L37.7298 24.037C37.7114 24.5523 37.3251 24.9388 36.8284 24.9388Z" fill="#fff" fill-rule="nonzero"/>
		</g>
		<g id="Group">
			<path id="Vector" d="M12.2312 48.2414C8.60702 43.6218 8.1655 35.9102 11.2194 30.8858C14.402 25.6404 20.2154 25.3276 23.9867 30.1312C27.6109 34.7507 28.0524 42.4623 24.9985 47.4868C23.4532 50.0082 21.264 51.4806 18.8356 51.6278C16.1865 51.7935 13.8869 50.3579 12.2312 48.2414ZM17.7686 28.5116C15.5978 28.5116 13.8685 29.9471 12.7463 31.806C10.0788 36.1863 10.4835 43.1065 13.6477 47.1371C15.1011 48.9959 16.9223 49.953 18.7436 49.8426C18.8356 49.8057 21.4479 49.9162 23.49 46.5481C24.7778 44.4316 25.4032 41.6525 25.2193 38.7446C24.8881 33.0207 21.5767 28.5116 17.7686 28.5116Z" fill="#fff" fill-rule="nonzero"/>
		</g>
	</g>
</svg>
