<svg viewBox="0 0 82 73.4492" xmlns="http://www.w3.org/2000/svg" xmlns:xlink="http://www.w3.org/1999/xlink" width="82.000000" height="73.449219" fill="none" customFrame="#000000">
	<g id="Group 750">
		<path id="Vector" d="M43.5681 47.8189L38.4488 47.8189C37.9729 47.8189 37.5998 47.433 37.5998 46.9699L37.5998 42.6995L33.3295 42.6995C32.8535 42.6995 32.4805 42.3136 32.4805 41.8505L32.4805 36.7312C32.4805 36.2553 32.8664 35.8822 33.3295 35.8822L37.5998 35.8822L37.5998 31.5989C37.5998 31.123 37.9857 30.75 38.4488 30.75L43.5681 30.75C44.0441 30.75 44.4171 31.1359 44.4171 31.5989L44.4171 35.8694L48.6875 35.8694C49.1634 35.8694 49.5365 36.2553 49.5365 36.7183L49.5365 41.8377C49.5365 42.3136 49.1506 42.6866 48.6875 42.6866L44.4171 42.6866L44.4171 46.9571C44.43 47.433 44.0441 47.8189 43.5681 47.8189ZM39.2849 46.0953L42.7064 46.0953L42.7064 41.8248C42.7064 41.3489 43.0922 40.9759 43.5553 40.9759L47.8258 40.9759L47.8258 37.5544L43.5553 37.5544C43.0794 37.5544 42.7064 37.1685 42.7064 36.7055L42.7064 32.435L39.2849 32.435L39.2849 36.7055C39.2849 37.1814 38.899 37.5544 38.4359 37.5544L34.1656 37.5544L34.1656 40.9759L38.4359 40.9759C38.9118 40.9759 39.2849 41.3618 39.2849 41.8248L39.2849 46.0953Z" fill="#fff" fill-rule="nonzero"/>
		<path id="Vector" d="M41.0115 56.3666C31.5831 56.3666 23.9297 48.7004 23.9297 39.2848C23.9297 29.8693 31.5959 22.2031 41.0115 22.2031C50.427 22.2031 58.0932 29.8693 58.0932 39.2848C58.0932 48.7004 50.427 56.3666 41.0115 56.3666ZM41.0115 23.901C32.5349 23.901 25.6405 30.8083 25.6405 39.272C25.6405 47.7357 32.5478 54.643 41.0115 54.643C49.4751 54.643 56.3825 47.7357 56.3825 39.272C56.3825 30.8083 49.4751 23.901 41.0115 23.901Z" fill="#fff" fill-rule="nonzero"/>
		<path id="Vector" d="M60.6459 66.6161C60.1699 66.6161 59.7969 66.2302 59.7969 65.7672L59.7969 53.8177C59.7969 53.3418 60.1828 52.9688 60.6459 52.9688L72.5954 52.9688C73.0713 52.9688 73.4442 53.3546 73.4442 53.8177C73.4442 54.2808 73.0585 54.6666 72.5954 54.6666L61.4948 54.6666L61.4948 65.7672C61.4948 66.2302 61.1218 66.6161 60.6459 66.6161Z" fill="#fff" fill-rule="nonzero"/>
		<path id="Vector" d="M75.633 73.4493L6.36715 73.4493C2.85562 73.4493 0 70.5938 0 67.0823L0 13.1874C0 9.67584 2.85562 6.82031 6.36715 6.82031L75.633 6.82031C79.1445 6.82031 82 9.67584 82 13.1874L82 67.0823C82 70.5938 79.1445 73.4493 75.633 73.4493ZM6.36715 8.53106C3.7946 8.53106 1.71085 10.6148 1.71085 13.1874L1.71085 67.0823C1.71085 69.6548 3.7946 71.7386 6.36715 71.7386L75.633 71.7386C78.2056 71.7386 80.2893 69.6548 80.2893 67.0823L80.2893 13.1874C80.2893 10.6148 78.2056 8.53106 75.633 8.53106L6.36715 8.53106Z" fill="#fff" fill-rule="nonzero"/>
		<path id="Vector" d="M60.6486 66.6122L7.69258 66.6122C7.21666 66.6122 6.84375 66.2263 6.84375 65.7632L6.84375 14.5052C6.84375 14.0293 7.22952 13.6562 7.69258 13.6562L72.5981 13.6562C73.074 13.6562 73.4469 14.0421 73.4469 14.5052L73.4469 53.8009C73.4469 54.0324 73.357 54.2382 73.2026 54.4054L61.2531 66.3549C61.0987 66.5093 60.8801 66.625 60.6486 66.625L60.6486 66.6122ZM8.54156 64.9014L60.3012 64.9014L71.762 53.4407L71.762 15.3541L8.55444 15.3541L8.55444 64.9014L8.54156 64.9014Z" fill="#fff" fill-rule="nonzero"/>
		<path id="Vector" d="M21.3506 15.3581C20.8747 15.3581 20.5018 14.9722 20.5018 14.5092L20.5018 5.11937C20.5018 3.22855 18.9711 1.69788 17.0803 1.69788C15.1895 1.69788 13.6588 3.22855 13.6588 5.11937L13.6588 7.67906C13.6588 8.15498 13.273 8.528 12.8099 8.528C12.3469 8.528 11.9609 8.14212 11.9609 7.67906L11.9609 5.11937C11.9609 2.28957 14.2505 0 17.0803 0C19.9101 0 22.1996 2.28957 22.1996 5.11937L22.1996 14.5092C22.1996 14.9851 21.8266 15.3581 21.3506 15.3581Z" fill="#fff" fill-rule="nonzero"/>
		<path id="Vector" d="M36.7219 15.3581C36.246 15.3581 35.8729 14.9722 35.8729 14.5092L35.8729 5.11937C35.8729 3.22855 34.3422 1.69788 32.4514 1.69788C30.5606 1.69788 29.03 3.22855 29.03 5.11937L29.03 7.67906C29.03 8.15498 28.6441 8.528 28.181 8.528C27.718 8.528 27.332 8.14212 27.332 7.67906L27.332 5.11937C27.332 2.28957 29.6216 0 32.4514 0C35.2812 0 37.5709 2.28957 37.5709 5.11937L37.5709 14.5092C37.5709 14.9851 37.1978 15.3581 36.7219 15.3581Z" fill="#fff" fill-rule="nonzero"/>
		<path id="Vector" d="M52.1085 15.3581C51.6325 15.3581 51.2595 14.9722 51.2595 14.5092L51.2595 5.11937C51.2595 3.22855 49.7289 1.69788 47.8381 1.69788C45.9473 1.69788 44.4166 3.22855 44.4166 5.11937L44.4166 7.67906C44.4166 8.15498 44.0306 8.528 43.5676 8.528C43.1045 8.528 42.7188 8.14212 42.7188 7.67906L42.7188 5.11937C42.7188 2.28957 45.0083 0 47.8381 0C50.6679 0 52.9574 2.28957 52.9574 5.11937L52.9574 14.5092C52.9574 14.9851 52.5844 15.3581 52.1085 15.3581Z" fill="#fff" fill-rule="nonzero"/>
		<path id="Vector" d="M67.4758 15.3581C66.9999 15.3581 66.6268 14.9722 66.6268 14.5092L66.6268 5.11937C66.6268 3.22855 65.0961 1.69788 63.2053 1.69788C61.3145 1.69788 59.7838 3.22855 59.7838 5.11937L59.7838 7.67906C59.7838 8.15498 59.398 8.528 58.9349 8.528C58.4719 8.528 58.0859 8.14212 58.0859 7.67906L58.0859 5.11937C58.0859 2.28957 60.3755 0 63.2053 0C66.0351 0 68.3246 2.28957 68.3246 5.11937L68.3246 14.5092C68.3246 14.9851 67.9517 15.3581 67.4758 15.3581Z" fill="#fff" fill-rule="nonzero"/>
	</g>
</svg>
