<svg width="216" height="38" viewBox="0 0 216 38" fill="none" xmlns="http://www.w3.org/2000/svg">
<g clip-path="url(#clip0_46_928)">
<path d="M48.3498 18.8227H43.5613L42.7392 21.1662H40.7815L44.8792 9.68097H47.0519L51.1496 21.1662H49.1755L48.3534 18.8227H48.3498ZM47.823 17.289L45.9637 11.9586L44.0881 17.289H47.823Z" fill="#3F4857"/>
<path d="M55.1945 8.95526V21.1662H53.3188V8.95526H55.1945Z" fill="#3F4857"/>
<path d="M60.1142 8.95526V21.1662H58.2385V8.95526H60.1142Z" fill="#3F4857"/>
<path d="M68.4955 12.3462C69.0387 12.6277 69.4634 12.9768 69.7715 13.3936V12.0738H71.6635V21.3142C71.6635 22.1496 71.4886 22.8954 71.1367 23.5498C70.7849 24.2043 70.2782 24.7179 69.6147 25.0927C68.9512 25.4656 68.1583 25.6538 67.2378 25.6538C66.0092 25.6538 64.9884 25.365 64.1773 24.7874C63.3661 24.2097 62.905 23.4255 62.7956 22.4366H64.6549C64.797 22.91 65.1014 23.2921 65.5681 23.5827C66.0347 23.8734 66.5907 24.0196 67.2378 24.0196C67.9942 24.0196 68.6067 23.7893 69.0733 23.3268C69.54 22.8643 69.7733 22.1935 69.7733 21.3142V19.797C69.4543 20.2266 69.0241 20.5867 68.4809 20.8773C67.9377 21.168 67.3216 21.3142 66.629 21.3142C65.8397 21.3142 65.1178 21.1131 64.4653 20.7128C63.8127 20.3107 63.2969 19.7495 62.9177 19.0292C62.5386 18.309 62.3508 17.4919 62.3508 16.5779C62.3508 15.6639 62.5404 14.856 62.9177 14.1522C63.2969 13.4484 63.8109 12.9019 64.4653 12.5107C65.1178 12.1195 65.8397 11.9239 66.629 11.9239C67.3307 11.9239 67.9541 12.0647 68.4973 12.3443L68.4955 12.3462ZM69.385 14.9785C69.128 14.516 68.7908 14.165 68.3734 13.9219C67.956 13.6806 67.5075 13.5581 67.0245 13.5581C66.5415 13.5581 66.0912 13.6769 65.6756 13.9127C65.2582 14.1485 64.921 14.4959 64.664 14.9529C64.4051 15.4099 64.2775 15.9509 64.2775 16.5779C64.2775 17.2049 64.407 17.7551 64.664 18.2286C64.921 18.702 65.2619 19.0622 65.6847 19.3089C66.1076 19.5557 66.5542 19.68 67.0263 19.68C67.4984 19.68 67.9578 19.5594 68.3752 19.3162C68.7926 19.0749 69.1298 18.7203 69.3869 18.2524C69.6439 17.7844 69.7733 17.2378 69.7733 16.6108C69.7733 15.9838 69.6439 15.4391 69.3869 14.9766L69.385 14.9785Z" fill="#3F4857"/>
<path d="M82.7681 17.3219H75.8414C75.8961 18.0476 76.1641 18.6308 76.6471 19.0713C77.1301 19.5118 77.7225 19.7312 78.4243 19.7312C79.4342 19.7312 80.1469 19.3071 80.5625 18.4607H82.5858C82.3124 19.2961 81.8147 19.9816 81.0966 20.5154C80.3784 21.0492 79.487 21.316 78.4225 21.316C77.5567 21.316 76.7802 21.1205 76.0948 20.7293C75.4094 20.3399 74.8717 19.7879 74.4816 19.0786C74.0915 18.3693 73.8965 17.5468 73.8965 16.6108C73.8965 15.6749 74.0861 14.8541 74.4634 14.1431C74.8407 13.432 75.3748 12.8854 76.0602 12.5015C76.7455 12.1158 77.533 11.9239 78.4207 11.9239C79.3084 11.9239 80.0393 12.1104 80.7083 12.4851C81.3773 12.8598 81.8986 13.3845 82.2723 14.0608C82.6441 14.7372 82.8319 15.5159 82.8319 16.3951C82.8319 16.737 82.81 17.0441 82.7663 17.3183L82.7681 17.3219ZM80.876 15.8029C80.8651 15.1101 80.6172 14.5544 80.1359 14.1358C79.6529 13.7171 79.055 13.5088 78.3423 13.5088C77.6952 13.5088 77.1411 13.7153 76.6799 14.1266C76.2187 14.5379 75.9453 15.0973 75.8578 15.801H80.876V15.8029Z" fill="#3F4857"/>
<path d="M98.1471 12.3114C98.7122 12.6076 99.1569 13.0481 99.4796 13.6312C99.8022 14.2144 99.9644 14.9181 99.9644 15.7425V21.1058H98.1052V16.0241C98.1052 15.2106 97.9028 14.5854 97.4963 14.1504C97.0899 13.7153 96.5357 13.4978 95.834 13.4978C95.1322 13.4978 94.5744 13.7153 94.1643 14.1504C93.7523 14.5854 93.5463 15.2088 93.5463 16.0241V21.1058H91.6871V16.0241C91.6871 15.2106 91.4847 14.5854 91.0783 14.1504C90.6718 13.7153 90.1176 13.4978 89.4159 13.4978C88.7141 13.4978 88.1563 13.7153 87.7462 14.1504C87.3342 14.5854 87.1301 15.2088 87.1301 16.0241V21.1058H85.2544V12.0135H87.1301V13.0536C87.4363 12.6807 87.8264 12.3882 88.2985 12.1798C88.7706 11.9714 89.2755 11.8672 89.8114 11.8672C90.5351 11.8672 91.1822 12.0208 91.7527 12.3297C92.3232 12.6386 92.7625 13.0828 93.0688 13.666C93.3422 13.1157 93.7705 12.6789 94.352 12.3535C94.9335 12.0299 95.5587 11.8672 96.2277 11.8672C96.9404 11.8672 97.5802 12.0153 98.1453 12.3133L98.1471 12.3114Z" fill="#3F4857"/>
<path d="M110.987 17.3219H104.06C104.115 18.0476 104.383 18.6308 104.866 19.0713C105.349 19.5118 105.941 19.7312 106.643 19.7312C107.653 19.7312 108.366 19.3071 108.781 18.4607H110.805C110.531 19.2961 110.033 19.9816 109.315 20.5154C108.597 21.0492 107.706 21.316 106.641 21.316C105.775 21.316 104.999 21.1205 104.314 20.7293C103.628 20.3399 103.09 19.7879 102.7 19.0786C102.31 18.3693 102.115 17.5468 102.115 16.6108C102.115 15.6749 102.305 14.8541 102.682 14.1431C103.059 13.432 103.594 12.8854 104.279 12.5015C104.964 12.1158 105.752 11.9239 106.639 11.9239C107.527 11.9239 108.258 12.1104 108.927 12.4851C109.596 12.8598 110.117 13.3845 110.491 14.0608C110.863 14.7372 111.051 15.5159 111.051 16.3951C111.051 16.737 111.029 17.0441 110.985 17.3183L110.987 17.3219ZM109.095 15.8029C109.084 15.1101 108.836 14.5544 108.355 14.1358C107.872 13.7171 107.274 13.5088 106.561 13.5088C105.914 13.5088 105.36 13.7153 104.899 14.1266C104.437 14.5379 104.164 15.0973 104.077 15.801H109.095V15.8029Z" fill="#3F4857"/>
<path d="M113.57 10.5346C113.34 10.3043 113.223 10.0173 113.223 9.67731C113.223 9.33731 113.338 9.05032 113.57 8.81999C113.799 8.58967 114.086 8.47268 114.425 8.47268C114.764 8.47268 115.033 8.58784 115.263 8.81999C115.493 9.05032 115.609 9.33731 115.609 9.67731C115.609 10.0173 115.495 10.3043 115.263 10.5346C115.033 10.765 114.753 10.882 114.425 10.882C114.097 10.882 113.799 10.7668 113.57 10.5346ZM115.347 12.0848V21.1771H113.471V12.0848H115.347Z" fill="#3F4857"/>
<path d="M124.882 12.3718C125.447 12.6679 125.888 13.1084 126.207 13.6916C126.525 14.2747 126.685 14.9784 126.685 15.8029V21.1662H124.826V16.0844C124.826 15.2709 124.623 14.6458 124.217 14.2107C123.81 13.7756 123.256 13.5581 122.555 13.5581C121.853 13.5581 121.295 13.7756 120.885 14.2107C120.473 14.6458 120.269 15.2691 120.269 16.0844V21.1662H118.393V12.0738H120.269V13.1139C120.575 12.741 120.969 12.4485 121.444 12.2401C121.922 12.0317 122.429 11.9276 122.966 11.9276C123.679 11.9276 124.319 12.0756 124.884 12.3736L124.882 12.3718Z" fill="#3F4857"/>
<path d="M129.224 14.1522C129.603 13.4484 130.117 12.9019 130.772 12.5107C131.424 12.1195 132.146 11.9239 132.935 11.9239C133.648 11.9239 134.271 12.0647 134.804 12.3443C135.336 12.6258 135.761 12.975 136.08 13.3918V12.072H137.972V21.1643H136.08V19.8116C135.761 20.2412 135.329 20.5977 134.78 20.8846C134.231 21.1698 133.606 21.3142 132.904 21.3142C132.126 21.3142 131.413 21.1131 130.764 20.7128C130.117 20.3107 129.605 19.7495 129.226 19.0292C128.847 18.309 128.659 17.4919 128.659 16.5779C128.659 15.6639 128.849 14.856 129.226 14.1522H129.224ZM135.689 14.9785C135.432 14.516 135.095 14.165 134.678 13.9219C134.26 13.6806 133.812 13.5581 133.329 13.5581C132.846 13.5581 132.396 13.6769 131.98 13.9127C131.563 14.1485 131.225 14.4959 130.968 14.9529C130.71 15.4099 130.582 15.9509 130.582 16.5779C130.582 17.2049 130.711 17.7551 130.968 18.2286C131.225 18.702 131.566 19.0622 131.989 19.3089C132.412 19.5557 132.859 19.68 133.331 19.68C133.803 19.68 134.262 19.5594 134.68 19.3162C135.097 19.0749 135.434 18.7203 135.691 18.2524C135.948 17.7844 136.078 17.2378 136.078 16.6108C136.078 15.9838 135.948 15.4391 135.691 14.9766L135.689 14.9785Z" fill="#3F4857"/>
<path d="M160.361 13.6093V18.6417C160.361 18.9835 160.441 19.2285 160.6 19.3766C160.758 19.5246 161.03 19.5996 161.415 19.5996H162.567V21.168H161.087C160.243 21.168 159.596 20.9706 159.145 20.5739C158.695 20.1772 158.471 19.5338 158.471 18.6435V13.6111H157.401V12.0756H158.471V9.81441H160.363V12.0756H162.569V13.6111H160.363L160.361 13.6093Z" fill="#3F4857"/>
<path d="M168.046 12.3535C168.595 12.0683 169.215 11.9239 169.905 11.9239C170.695 11.9239 171.417 12.1195 172.069 12.5107C172.722 12.9019 173.234 13.4484 173.608 14.1522C173.981 14.856 174.167 15.6658 174.167 16.5779C174.167 17.4901 173.981 18.3072 173.608 19.0292C173.234 19.7495 172.722 20.3107 172.069 20.7128C171.417 21.115 170.695 21.3142 169.905 21.3142C169.215 21.3142 168.6 21.1735 168.063 20.8938C167.525 20.6123 167.086 20.265 166.747 19.8464V25.4893H164.871V12.0738H166.747V13.41C167.064 12.9914 167.498 12.6405 168.046 12.3535ZM171.872 14.9529C171.613 14.4959 171.274 14.1504 170.851 13.9127C170.429 13.6769 169.977 13.5581 169.493 13.5581C169.01 13.5581 168.575 13.6788 168.152 13.9219C167.729 14.1632 167.39 14.516 167.131 14.9785C166.872 15.4409 166.745 15.9857 166.745 16.6127C166.745 17.2397 166.874 17.7862 167.131 18.2542C167.388 18.7221 167.729 19.0768 168.152 19.3181C168.575 19.5594 169.021 19.6818 169.493 19.6818C169.966 19.6818 170.429 19.5575 170.851 19.3108C171.274 19.064 171.613 18.702 171.872 18.2304C172.129 17.757 172.259 17.2068 172.259 16.5798C172.259 15.9528 172.129 15.4117 171.872 14.9547V14.9529Z" fill="#3F4857"/>
<path d="M183.374 14.1522C183.753 13.4484 184.267 12.9019 184.922 12.5107C185.574 12.1195 186.296 11.9239 187.085 11.9239C187.798 11.9239 188.421 12.0647 188.954 12.3443C189.486 12.6258 189.911 12.975 190.23 13.3918V12.072H192.122V21.1643H190.23V19.8116C189.911 20.2412 189.479 20.5977 188.93 20.8846C188.381 21.1698 187.756 21.3142 187.054 21.3142C186.276 21.3142 185.563 21.1131 184.914 20.7128C184.267 20.3107 183.755 19.7495 183.376 19.0292C182.997 18.309 182.809 17.4919 182.809 16.5779C182.809 15.6639 182.999 14.856 183.376 14.1522H183.374ZM189.84 14.9785C189.583 14.516 189.245 14.165 188.828 13.9219C188.411 13.6806 187.962 13.5581 187.479 13.5581C186.996 13.5581 186.546 13.6769 186.13 13.9127C185.713 14.1485 185.376 14.4959 185.119 14.9529C184.86 15.4099 184.732 15.9509 184.732 16.5779C184.732 17.2049 184.862 17.7551 185.119 18.2286C185.376 18.702 185.716 19.0622 186.139 19.3089C186.562 19.5557 187.009 19.68 187.481 19.68C187.953 19.68 188.412 19.5594 188.83 19.3162C189.247 19.0749 189.584 18.7203 189.841 18.2524C190.098 17.7844 190.228 17.2378 190.228 16.6108C190.228 15.9838 190.098 15.4391 189.841 14.9766L189.84 14.9785Z" fill="#3F4857"/>
<path d="M199.229 16.5615L202.158 21.1662H200.036L198.079 18.0805L196.236 21.1662H194.278L197.207 16.6949L194.278 12.0738H196.402L198.359 15.1594L200.202 12.0738H202.16L199.231 16.5615H199.229Z" fill="#3F4857"/>
<path d="M204.231 10.5218C204.001 10.2915 203.884 10.0045 203.884 9.66452C203.884 9.32451 203.999 9.03752 204.231 8.8072C204.46 8.57687 204.746 8.45988 205.085 8.45988C205.425 8.45988 205.694 8.57504 205.924 8.8072C206.154 9.03752 206.27 9.32451 206.27 9.66452C206.27 10.0045 206.155 10.2915 205.924 10.5218C205.694 10.7522 205.414 10.8692 205.085 10.8692C204.757 10.8692 204.46 10.754 204.231 10.5218ZM206.008 12.0738V21.1662H204.132V12.0738H206.008Z" fill="#3F4857"/>
<path d="M209.945 20.9267C209.38 20.6689 208.933 20.3161 208.603 19.8701C208.274 19.4241 208.099 18.9269 208.077 18.3767H210.018C210.051 18.7624 210.235 19.0841 210.568 19.3418C210.902 19.5996 211.323 19.7294 211.828 19.7294C212.333 19.7294 212.763 19.627 213.053 19.4241C213.343 19.2212 213.489 18.9598 213.489 18.6399C213.489 18.2999 213.326 18.0458 213.004 17.8813C212.679 17.7168 212.167 17.534 211.465 17.3365C210.785 17.1501 210.231 16.9691 209.803 16.7918C209.374 16.6163 209.004 16.3458 208.693 15.9838C208.381 15.6201 208.224 15.143 208.224 14.5489C208.224 14.0645 208.366 13.6221 208.653 13.2199C208.937 12.8178 209.347 12.5015 209.879 12.2712C210.412 12.0409 211.022 11.9239 211.713 11.9239C212.745 11.9239 213.574 12.1853 214.207 12.7081C214.837 13.2309 215.175 13.9438 215.218 14.845H213.343C213.31 14.4374 213.146 14.1138 212.849 13.8707C212.553 13.6294 212.152 13.5069 211.648 13.5069C211.143 13.5069 210.774 13.6002 210.512 13.7866C210.249 13.9731 210.116 14.2217 210.116 14.5288C210.116 14.7701 210.204 14.9748 210.379 15.1393C210.554 15.3038 210.769 15.4336 211.02 15.5268C211.272 15.6201 211.646 15.7389 212.14 15.8815C212.798 16.057 213.337 16.2361 213.76 16.4171C214.183 16.598 214.548 16.8649 214.854 17.2177C215.16 17.5705 215.32 18.0367 215.331 18.6198C215.331 19.1371 215.189 19.5996 214.903 20.0054C214.617 20.413 214.214 20.7311 213.695 20.9633C213.173 21.1936 212.563 21.3106 211.859 21.3106C211.155 21.3106 210.506 21.1808 209.941 20.923L209.945 20.9267Z" fill="#3F4857"/>
<path d="M150.476 19.627H155.418V21.1607H148.305V19.627L153.261 13.6038H148.305V12.0701H155.418V13.6038L150.476 19.627Z" fill="#3F4857"/>
<path d="M180.656 11.8307C181.263 11.8307 181.726 11.9074 182.182 12.0866L181.708 13.9146C181.291 13.6952 180.685 13.5819 180.202 13.5819C178.943 13.5819 178.042 14.6129 178.042 16.1612V21.168H176.117V12.0665H178.022V13.092C178.618 12.2273 179.548 11.8288 180.656 11.8288V11.8307Z" fill="#3F4857"/>
<path d="M145.214 11.827C145.821 11.827 146.284 11.9038 146.739 12.0829L146.265 13.9109C145.848 13.6916 145.243 13.5782 144.76 13.5782C143.5 13.5782 142.6 14.6092 142.6 16.1575V21.1643H140.675V12.0628H142.58V13.0883C143.176 12.2237 144.105 11.8252 145.214 11.8252V11.827Z" fill="#3F4857"/>
<path d="M20.1768 25.8293C19.1232 25.2864 18.5909 24.4455 18.9938 23.2537C19.3784 22.1112 20.514 21.6469 21.4381 21.0583C22.1363 20.6123 22.8545 19.7129 21.9412 19.0877C22.3933 18.6947 22.4808 18.5997 22.8873 18.1153C22.9602 18.1372 23.0367 18.1482 23.1024 18.1865C24.052 18.7459 24.1341 19.6197 23.7166 20.5611C23.4013 21.274 22.8763 21.6707 22.0852 22.1953C21.409 22.6413 20.1695 23.1075 20.0382 23.6942C19.9744 23.9831 20.0729 24.3011 20.1786 24.5333C20.1786 24.9665 20.1749 25.3979 20.1786 25.8312L20.1768 25.8293Z" fill="#3F4857"/>
<path d="M20.3099 29.6973C19.8651 29.2732 19.7977 28.6554 20.1987 28.1472C20.6744 27.5421 21.6879 27.3794 21.522 26.4161C21.4564 26.0322 21.4601 25.7068 21.4564 25.0671C21.4564 25.0323 21.4473 24.9939 21.5056 25.0177C21.5986 25.0543 21.9978 25.3961 22.0762 25.4875C22.6795 26.1839 22.572 27.151 21.9759 27.8109C21.4181 28.4287 20.2151 28.7248 20.3081 29.6955L20.3099 29.6973Z" fill="#3F4857"/>
<path d="M21.2869 22.9631L21.245 26.7104C21.1666 27.1619 20.8531 27.4014 20.4885 27.6116C20.4813 27.4617 20.4685 27.2186 20.4648 27.0687C20.4375 26.1401 20.4102 25.0122 20.4175 24.0434C20.4211 23.5462 20.4904 23.4548 20.9789 23.1714C21.019 23.1477 21.2687 22.9411 21.2888 22.9649L21.2869 22.9631Z" fill="#3F4857"/>
<path d="M21.2194 31.7995C21.2194 31.7995 20.9314 32.2821 20.8858 32.3589H20.8658C20.802 32.2656 20.5358 31.7995 20.5358 31.7995C20.5358 31.7995 20.534 29.6516 20.5413 29.5511C20.5523 29.3847 20.6215 29.2312 20.6926 29.1489C20.8093 29.0118 21.1119 28.7395 21.2176 28.7066V31.7995H21.2194Z" fill="#3F4857"/>
<path d="M26.2139 14.7646C26.1957 14.8962 26.0097 14.951 25.8931 14.9419C25.9277 15.0607 26.0116 15.1101 26.0116 15.249C26.0116 15.4373 25.904 15.2325 25.8603 15.1942C25.6288 14.9931 25.3207 14.8871 25.0546 14.7426C24.3163 15.1265 23.4013 15.2033 22.6084 14.9346C21.8063 14.664 21.4272 14.1211 20.4648 14.207C19.4458 14.2966 18.93 15.5616 19.6263 16.3604L19.5388 16.7717C19.2526 17.0843 19.176 17.1702 18.8352 17.4188C17.7196 16.6291 17.6832 14.9108 18.5927 13.9127C19.464 12.9567 21.0936 12.8013 22.3113 12.8836C22.9821 12.9293 23.2719 13.1468 23.8351 13.41C24.2398 13.5983 24.8304 13.7994 25.1895 14.0188C25.4647 14.1869 25.2806 14.3039 25.2624 14.5598C25.2788 14.5927 25.5923 14.7664 25.616 14.7664H26.2157L26.2139 14.7646ZM22.581 13.4466C22.2219 13.5252 22.7433 13.9274 22.9656 13.9566C23.1443 13.9804 23.7148 13.9749 23.4305 13.7171C23.2609 13.5636 22.8034 13.3972 22.581 13.4466Z" fill="#3F4857"/>
<path d="M21.44 19.4095V20.5867C21.44 20.5867 21.2815 20.7969 21.2104 20.8481C21.0117 20.9888 20.4102 21.3471 20.4102 21.3471V20.2503L21.44 19.4095Z" fill="#3F4857"/>
<path d="M21.5893 19.053C20.7654 19.5009 20.3954 19.9304 19.6608 20.5172C18.5452 21.4093 17.6848 22.6742 16.4162 23.3817C15.8857 23.6778 15.3498 23.8478 14.7538 23.9593C14.628 24.1384 14.5824 24.3596 14.4913 24.5571C14.0247 25.5515 13.2937 26.8475 12.4735 27.575C12.0524 27.948 11.5475 28.2477 11.1282 28.6261L11.141 28.6956C12.293 30.2695 12.9492 31.5637 11.9576 33.4264C11.7917 33.739 11.2905 34.3312 11.2102 34.5835C11.0571 35.057 11.4837 35.7315 11.6896 36.1464C12.1271 36.2525 12.5719 36.1976 12.9802 36.4206C13.5434 36.7296 13.6473 37.3236 13.7002 37.9104C13.702 37.9269 13.6838 37.9287 13.6546 37.9287H10.1603L8.48516 35.1813C8.35391 34.9016 8.15158 34.6164 8.19168 34.2929C8.21903 34.068 8.3849 33.9072 8.47604 33.717C8.94815 32.7373 8.44506 31.8726 7.89275 31.0701C7.33314 32.081 6.63319 33.0297 5.77829 33.8084C5.20958 34.3258 4.8359 34.3495 4.7794 35.2361C4.7721 35.3659 4.76664 36.2013 4.81585 36.2342C5.26062 36.2415 5.72908 36.2744 6.11916 36.5084C6.63136 36.8173 6.65871 37.3858 6.68058 37.9287H2.42069C2.40975 37.6691 2.43527 37.4023 2.42069 37.1427C2.35142 35.8558 1.73714 34.6676 1.86838 33.3606C1.90848 32.9657 2.50089 32.3278 2.71234 31.9311C3.33573 30.7557 3.38495 29.7723 3.33938 28.4671L3.29016 28.3922C2.26757 28.0083 1.36528 26.9188 1.11738 25.8074C0.710897 23.994 2.00691 21.2155 2.55193 19.4314C2.95841 18.0988 3.37584 16.0935 2.64125 14.803C2.56833 14.675 2.50271 14.5215 2.35324 14.5544C1.72802 14.6933 1.55303 14.8761 0.878595 14.5726C0.740062 14.5105 0.133068 14.1924 0.0510416 14.112C0.029168 14.0919 -0.00364251 14.0827 0.0018259 14.0407C0.00547151 13.9987 0.0255224 13.9657 0.0492188 13.9328C0.138536 13.8177 0.707251 13.4832 0.860367 13.4247C1.9504 12.9987 3.0933 13.8414 3.50161 14.834C4.41666 17.055 2.94019 20.7804 2.33866 23.0307C2.11263 23.8807 1.76265 25.1676 2.29856 25.9445C2.5738 26.343 2.97664 26.9298 3.41776 27.0943L3.63103 26.5404C4.29088 25.2937 5.71267 24.2847 6.24311 22.9503C6.4983 22.3105 6.65688 21.6213 6.91755 20.9815L6.92484 20.605L6.58762 20.7585L6.34154 18.8209L5.67622 19.1225C5.627 19.1462 5.61971 19.0749 5.61424 19.0439C5.59783 18.9543 5.57961 18.8062 5.57414 18.7148C5.52675 17.9142 5.60513 17.0825 5.76006 16.2982L4.87236 16.7297C4.82497 15.4793 5.1075 14.1979 5.79105 13.145C5.79834 13.0828 5.78923 13.1048 5.74548 13.0993C5.64523 13.0865 5.483 13.0956 5.37728 13.0993C5.33171 13.1011 5.12026 13.1797 5.1476 13.0847C5.20046 12.9037 5.47206 12.4686 5.5869 12.295C6.14468 11.4559 6.97952 10.7741 7.87452 10.3299C7.88363 10.286 7.87999 10.2897 7.85447 10.2659C7.81072 10.2239 7.41882 9.9771 7.47532 9.90033C7.705 9.83086 7.93832 9.77237 8.17528 9.72484C9.33823 9.49452 11.8063 9.42323 12.818 10.0776C13.2281 10.3427 13.445 10.595 13.3921 11.0867C13.8934 11.2018 14.5423 11.2786 14.9233 11.668C15.009 11.7539 15.1092 11.9659 15.1858 12.019C15.4045 12.1707 16.0115 12.3791 16.3013 12.529C16.4891 12.6277 17.1909 12.8525 17.2711 12.9896C17.3695 13.1614 17.2219 13.6861 17.1143 13.8195C17.0815 13.8597 17.0159 13.8689 16.9958 13.9164C16.9411 14.0498 16.9794 14.4721 16.8901 14.6439C16.7388 14.9309 16.2649 14.9766 15.9842 14.9565C15.6032 14.9309 14.7428 14.2747 14.7994 14.9583C14.8467 15.5214 15.3972 15.5378 15.8055 15.5305C15.9204 15.5287 16.4216 15.5451 16.4216 15.5451C16.5584 15.7608 16.3068 16.4573 16.1355 16.6346C15.6524 17.1355 14.1468 16.5761 13.5762 16.2964C13.3739 17.0185 14.4002 17.3347 14.8504 17.81C14.8686 17.8813 14.8322 17.8685 14.8121 17.8922C14.5916 18.15 14.5751 18.0659 14.4949 18.2633C14.4767 18.3346 14.5095 18.3145 14.5332 18.3328C14.865 18.596 16.0042 19.0859 16.4107 19.064C16.5948 19.0548 17.426 18.6271 17.6411 18.5138C18.3265 18.15 19.1814 17.5742 19.6918 16.9984C19.8321 16.8393 19.8795 16.5542 19.9998 16.3988C20.029 16.3622 20.3844 16.2032 20.3844 16.1922V14.4776C20.7727 14.4026 21.1245 14.4374 21.4617 14.6622L21.4781 16.1374C22.0887 16.1941 22.2473 16.1813 22.5809 16.9728C22.8233 17.4097 22.796 17.4279 22.7869 17.6765C22.7832 17.7661 22.7158 17.9782 22.7158 17.9782L21.5893 19.0439V19.053ZM13.3229 12.5856C13.5635 12.8525 14.1085 13.017 14.3838 12.7099C14.2671 12.2109 13.5434 11.9842 13.2226 12.4047C13.2153 12.4485 13.2901 12.5491 13.3229 12.5856Z" fill="#3F4857"/>
<path d="M24.6225 36.3512C24.3691 36.1409 23.8642 36.1373 23.6947 36.4517C23.5835 36.6619 23.8806 36.5705 24.0337 36.5705C24.4876 36.5705 24.5496 37.2505 23.9736 37.2962C23.5744 37.3273 23.3174 37.0312 23.0695 36.7643C23.0695 36.7643 23.0695 36.7643 23.0695 36.7625H23.0713C23.0713 36.7625 22.3312 35.7955 21.5492 34.7864C22.3276 33.9053 23.2517 32.9292 23.5634 32.6477C23.6856 32.7098 24.0264 32.9676 24.1012 33.0334C24.5496 33.4282 25.1803 33.8962 25.6269 34.2983C25.379 33.123 24.6571 31.8287 23.6199 31.1469C23.3739 31.1396 22.1763 32.357 21.9557 32.5965C21.7206 32.8506 20.8785 33.9236 20.8785 33.9236C20.3881 33.2966 19.9634 32.7647 19.8103 32.5965C19.5897 32.357 18.3903 31.1396 18.1461 31.1469C17.1089 31.8269 16.3871 33.1211 16.1392 34.2983C16.5857 33.898 17.2146 33.4301 17.663 33.0334C17.7378 32.9676 18.0804 32.708 18.2008 32.6477C18.5416 32.9548 19.464 33.8998 20.2259 34.7718C20.2332 34.7791 20.235 34.7846 20.235 34.7846L20.2222 34.8029C19.6936 35.514 18.99 36.4426 18.6929 36.7643C18.4468 37.0312 18.1898 37.3273 17.7888 37.2962C17.2128 37.2505 17.2729 36.5705 17.7286 36.5705C17.8818 36.5705 18.1789 36.6619 18.0677 36.4517C17.8982 36.1355 17.3932 36.1409 17.1399 36.3512C16.7389 36.6839 16.8027 37.4023 17.231 37.7002C17.869 38.1426 18.6036 37.8446 19.1523 37.4443C19.6553 37.0787 20.492 36.0569 20.8821 35.5651C21.2722 36.0569 22.1088 37.0787 22.6119 37.4443C23.1624 37.8428 23.897 38.1426 24.5332 37.7002C24.9634 37.4023 25.0253 36.6839 24.6243 36.3512H24.6225Z" fill="#3F4857"/>
<path d="M28.2717 5.27372C28.217 5.21705 28.1332 5.22802 28.0621 5.20425C27.2692 4.94102 26.3687 4.54435 25.6943 5.34501C25.5302 5.5406 25.1474 6.29007 25.6068 6.32298C25.7781 6.33577 26.2302 6.05792 26.427 5.98114C26.6148 5.90802 26.9739 5.77641 27.1707 5.81663C27.2108 5.82394 27.2473 5.85136 27.2601 5.89157C26.7679 6.03964 26.314 6.43631 25.8219 6.56427C25.7253 6.58986 25.6141 6.58986 25.5175 6.61362C25.1729 6.69771 24.5933 7.04685 24.2652 7.23148C23.9225 7.42159 23.598 7.64826 23.2481 7.81826C23.2207 7.79084 23.3593 7.44718 23.3884 7.38869C23.516 7.11083 23.773 6.62459 23.9079 6.40158C24.0009 6.24803 24.3782 6.23706 24.5514 6.15115C25.6651 5.60092 24.8485 4.39629 24.9907 3.50058C25.0107 3.37993 25.1456 3.19896 24.9761 3.17885C24.0355 3.06918 22.3585 4.98307 23.4212 5.80383C23.629 5.96286 23.6874 5.90254 23.8204 5.7234C24.0428 5.42727 24.2014 4.99038 24.3563 4.65038C24.4001 4.64855 24.4092 4.63758 24.4055 4.68876C24.3964 4.82586 24.3618 5.00866 24.3272 5.14393C24.2105 5.59727 23.8186 5.96286 23.5835 6.35771C22.8799 7.54041 22.7978 8.3959 21.376 9.40312C21.3505 9.41957 21.1901 9.56032 21.1737 9.54204C21.2357 9.23312 21.0571 8.55676 21.1792 8.29354C21.2284 8.18751 21.5474 8.16741 21.6713 8.12902C22.5572 7.85848 22.9017 6.78545 23.0293 6.26448C22.6083 6.09265 21.9375 6.27545 21.5656 6.599C21.4271 6.71965 21.263 7.00298 21.1464 7.13825V5.80383C21.1464 5.62834 21.5292 5.77093 21.6622 5.7563C21.9247 5.72888 22.1908 5.73802 22.3585 5.53512C22.6885 5.13845 22.6283 4.5736 22.9382 4.16596C22.446 3.97585 21.8773 3.89908 21.4909 4.28478C21.4052 4.3707 21.1956 4.67597 21.1956 4.67597C21.2229 4.55715 21.1938 4.24822 21.3359 4.07639C21.593 3.76563 22.0432 3.66692 22.2856 3.27574C23.0457 2.04916 21.8336 0.641621 20.7982 0.069464C20.4683 -0.113334 20.5868 0.0987117 20.5321 0.349145C20.4027 0.948721 19.7866 1.34539 19.6316 1.95411C19.4384 2.71089 19.679 3.23735 20.3134 3.64864C20.4154 3.71445 20.7563 3.86069 20.7855 3.9594C20.8019 4.50597 20.7271 5.04887 20.6633 5.58813L20.2568 5.22071C19.9597 4.90812 20.1657 4.72532 20.1238 4.36521C20.0545 3.75467 19.1832 3.26111 18.6291 3.20445C18.4687 3.18799 18.2864 3.21541 18.1242 3.20445L18.0895 3.26477C18.5471 3.77295 18.3192 4.52973 18.7439 5.04156C18.8624 5.18415 19.0994 5.34866 19.2816 5.38705C19.4129 5.41447 19.6061 5.40533 19.6735 5.38522C19.936 5.30845 19.6444 4.85877 19.4603 4.54984C19.3819 4.41822 19.247 4.31037 19.2233 4.16779C19.3309 4.06177 19.6918 4.58091 19.7373 4.6778C19.885 4.9849 19.8376 5.22436 20.0563 5.52232C20.2824 5.83125 20.3844 5.78555 20.5558 6.14018C20.6232 6.2791 20.6196 6.9847 20.6159 7.15105C20.4373 6.56427 19.4256 5.92996 18.7694 6.20781L18.7457 6.25717C18.9499 6.95546 18.959 7.63546 19.6954 7.99192C19.8376 8.05955 20.4646 8.20762 20.4883 8.24052C20.636 8.4416 20.4555 9.31537 20.5357 9.5914C20.5266 9.6042 20.3443 9.45613 20.3206 9.43968C19.1905 8.68655 18.3156 7.1675 17.4206 6.11641C17.0997 5.73985 16.8938 5.26275 16.9375 4.75091C17.1162 5.03425 17.3914 5.93727 17.7323 6.03233C17.8708 6.07071 18.0294 5.8934 18.0968 5.78738C18.6911 4.83317 17.3167 3.55542 16.4709 3.31961C16.4107 3.30316 16.1574 3.22273 16.1428 3.29402C16.5237 4.18607 15.5449 5.24812 16.2686 6.0305C16.4144 6.18771 16.6422 6.31018 16.85 6.35953C17.0086 6.39792 17.1781 6.36867 17.3057 6.48384C17.4862 6.64653 18.0075 7.49654 18.1643 7.75245C18.1825 7.7817 18.2791 7.92794 18.2645 7.94256C17.807 7.69213 17.3641 7.40879 16.9029 7.16933C16.6167 7.02126 16.2558 6.83298 15.9605 6.72147C15.729 6.63373 15.5011 6.62276 15.2806 6.54233C15.0892 6.47287 14.8778 6.33943 14.6809 6.25717C14.4348 6.1548 14.1814 6.06706 13.9244 5.99028C13.8442 5.88792 14.2507 5.91351 14.2872 5.91716C14.4148 5.93179 14.5806 5.98846 14.7064 6.02867C14.9361 6.10179 15.2769 6.30104 15.4902 6.33394C15.8274 6.38878 15.6944 5.8806 15.6287 5.7106C15.2988 4.86425 14.3619 4.8807 13.6528 5.11103C13.5708 5.13845 12.7524 5.31942 12.725 5.34501C12.6886 5.37791 12.6685 5.62103 12.6685 5.68867C12.6594 6.75803 13.7932 7.83837 14.9087 7.26987C15.0418 7.20223 15.1803 7.09438 15.2988 7.00298C15.3353 6.97374 15.3845 6.90244 15.4137 6.88965C15.4847 6.85674 15.9003 7.06331 16.0024 7.10901C16.7224 7.4417 17.4534 7.8603 18.0877 8.33375L16.7425 8.39225C16.6349 8.36848 16.5766 8.18203 16.5073 8.09611C16.2649 7.78901 15.853 7.69944 15.4866 7.80181C15.1876 7.8859 14.8304 8.1473 14.5897 8.33558C14.3637 8.51289 14.1559 8.64999 13.9244 8.8401C13.8151 8.92967 13.7458 8.94064 13.9044 9.11064C14.2835 9.68097 15.6379 10.6169 16.4891 10.1764C16.8391 9.99355 17.1198 9.38118 16.9594 9.01193C16.8683 8.80171 16.1482 8.92601 15.9623 8.96257C15.7782 8.99913 15.5668 9.06129 15.2806 9.02655C15.2642 8.96075 15.2952 8.96623 15.328 8.96075C15.5212 8.93333 15.7272 8.87849 15.9459 8.7944C16.4034 8.61892 16.9758 8.67193 17.4169 8.70117C18.0221 8.74322 18.6838 8.84924 19.1212 9.30989C18.9864 9.33548 18.8496 9.33914 18.7166 9.37387C18.5452 9.41774 18.3866 9.5457 18.239 9.5786C17.9583 9.63893 17.8726 9.58409 17.6192 9.79248C17.1435 10.1855 17.2583 10.8198 17.1362 11.3645C17.6411 11.54 18.5835 11.3627 18.8624 10.8637C19.0028 10.6132 19.1686 9.88388 18.7038 9.91678C18.527 9.92957 18.1023 10.339 18.0093 10.5017L17.9601 10.4889C18.3338 9.41957 19.5624 9.32269 20.1147 10.3317C20.3443 10.7522 20.3443 11.3042 20.3662 11.7795C20.3808 12.1122 20.3662 12.3718 20.3735 12.6971V12.7447L20.4045 12.7373C20.7545 12.6478 20.9914 12.6204 21.3596 12.6222V12.4668C21.3852 11.8873 21.3596 10.7449 21.5237 10.3738C21.8463 9.64258 22.9017 9.43968 23.2882 10.2805C23.3155 10.3372 23.3684 10.4378 23.3465 10.4999C23.1259 10.3116 22.8033 9.71022 22.5044 10.1361C22.3731 10.3244 22.4078 10.637 22.5044 10.8363C22.7887 11.4249 23.6655 11.3572 24.2105 11.4559L24.267 11.423C24.0246 10.849 24.216 10.1891 23.6345 9.77785C23.4322 9.63527 23.2809 9.67731 23.0731 9.63161C22.9674 9.60785 22.8069 9.49269 22.6721 9.45247C22.5919 9.42871 22.5062 9.42688 22.4242 9.4086C22.6557 9.15086 22.9582 8.83279 23.2973 8.72677C23.6327 8.62074 24.4785 8.60795 24.8175 8.69203C25.0909 8.75967 25.3224 8.90408 25.5557 9.05397L25.543 9.10333C25.2495 8.98634 24.4785 8.72859 24.2087 8.90408C24.0355 9.01741 24.1303 9.47258 24.1923 9.64989C24.3983 10.233 24.8795 10.3829 25.4427 10.2202C25.7562 10.1307 26.0242 9.91678 26.3213 9.78516C26.5036 9.70291 26.7077 9.74312 26.6913 9.49817C26.6658 9.08688 26.2156 8.24784 25.8911 7.99375C25.4701 7.66471 24.8777 7.65191 24.5186 8.07783C24.4584 8.14912 24.3636 8.35934 24.3053 8.37031C23.9863 8.33375 23.6655 8.34289 23.3465 8.31913C23.31 8.31547 23.2736 8.33923 23.2845 8.28257C23.7913 7.88407 24.3673 7.53492 24.9342 7.226C25.0855 7.14374 25.4591 6.91341 25.6013 6.88051C25.6961 6.85857 25.7289 6.97008 25.8091 7.03954C26.4835 7.62998 27.6009 7.49836 27.9746 6.62825C28.0348 6.48749 28.2079 6.01405 28.2371 5.87695C28.2571 5.77824 28.3009 5.33221 28.2608 5.2664L28.2717 5.27372ZM20.4537 7.82923C20.337 7.69213 20.2295 7.54041 20.1019 7.41428C19.9123 7.22965 19.6845 7.10718 19.4967 6.92804C19.5241 6.88782 19.5314 6.8933 19.5733 6.89696C19.905 6.939 20.5212 7.40331 20.4537 7.8274V7.82923ZM21.1573 7.7488C21.1828 7.58976 21.2703 7.40514 21.3779 7.28632C21.4635 7.19126 21.9539 6.83115 22.0614 6.9061C22.0942 6.93169 22.0961 6.96277 22.0742 6.99567C22.0468 7.04137 21.5984 7.35213 21.5055 7.43804C21.387 7.54772 21.2375 7.68116 21.1774 7.83106C21.1318 7.83654 21.1555 7.77622 21.1591 7.7488H21.1573ZM21.932 4.74909C21.9976 4.7235 22.0815 4.67597 22.1325 4.74909L21.1992 5.38522C21.274 5.02877 21.5948 4.87887 21.932 4.74909ZM21.0242 1.32528C21.418 1.90293 21.6221 2.78584 21.1628 3.3781L21.1245 2.22465C21.0972 1.92303 20.9586 1.64152 20.9732 1.33808L21.0242 1.32528Z" fill="#3F4857"/>
<path d="M46.2827 29.5529C46.9918 29.9149 47.5386 30.434 47.9251 31.1104C48.3115 31.7867 48.5047 32.5764 48.5047 33.4794C48.5047 34.3824 48.3115 35.1648 47.9251 35.8284C47.5386 36.4919 46.9918 37.0001 46.2827 37.3547C45.5737 37.7075 44.7479 37.8848 43.8074 37.8848H40.9182V29.0118H43.8074C44.7497 29.0118 45.5755 29.1928 46.2827 29.5547V29.5529ZM46.1879 35.854C46.7403 35.2928 47.0155 34.5012 47.0155 33.4794C47.0155 32.4576 46.7403 31.6459 46.1879 31.0665C45.6356 30.487 44.8427 30.1982 43.8074 30.1982H42.3692V36.6966H43.8074C44.8427 36.6966 45.6356 36.4151 46.1879 35.854Z" fill="#718892"/>
<path d="M54.755 37.7057C54.5764 37.5265 54.4871 37.3054 54.4871 37.0421C54.4871 36.7789 54.5764 36.5577 54.755 36.3786C54.9336 36.1994 55.1542 36.1099 55.4167 36.1099C55.6792 36.1099 55.887 36.1994 56.0656 36.3786C56.2442 36.5577 56.3336 36.7789 56.3336 37.0421C56.3336 37.3054 56.2442 37.5265 56.0656 37.7057C55.887 37.8848 55.6719 37.9744 55.4167 37.9744C55.1615 37.9744 54.9336 37.8848 54.755 37.7057Z" fill="#718892"/>
<path d="M71.1858 31.0793C71.6233 31.3096 71.966 31.6496 72.2175 32.1011C72.4673 32.5526 72.593 33.0974 72.593 33.7353V37.8848H71.1548V33.9529C71.1548 33.3222 70.9981 32.8396 70.6846 32.5033C70.371 32.1669 69.9427 31.9987 69.3995 31.9987C68.8563 31.9987 68.4261 32.1669 68.1071 32.5033C67.7881 32.8396 67.6295 33.3222 67.6295 33.9529V37.8848H66.1913V33.9529C66.1913 33.3222 66.0346 32.8396 65.7211 32.5033C65.4075 32.1669 64.9792 31.9987 64.436 31.9987C63.8928 31.9987 63.4626 32.1669 63.1436 32.5033C62.8246 32.8396 62.666 33.3222 62.666 33.9529V37.8848H61.2151V30.8508H62.666V31.6551C62.903 31.3663 63.2056 31.1396 63.5702 30.9787C63.9347 30.8179 64.3248 30.7356 64.7422 30.7356C65.3018 30.7356 65.8031 30.8544 66.2442 31.0939C66.6853 31.3315 67.0244 31.677 67.2632 32.1285C67.4746 31.7026 67.8063 31.3644 68.2566 31.114C68.7068 30.8636 69.1899 30.7374 69.7075 30.7374C70.2598 30.7374 70.7538 30.8526 71.1913 31.0829L71.1858 31.0793Z" fill="#718892"/>
<path d="M80.8159 34.9089H75.4568C75.4987 35.4701 75.7065 35.9216 76.0802 36.2616C76.4539 36.6016 76.9114 36.7716 77.4546 36.7716C78.2348 36.7716 78.7871 36.4444 79.1097 35.7881H80.6755C80.4641 36.4352 80.0795 36.9654 79.5235 37.3785C78.9675 37.7916 78.2785 37.9982 77.4546 37.9982C76.7838 37.9982 76.1841 37.8464 75.6537 37.5448C75.1233 37.2432 74.7077 36.8173 74.4069 36.2689C74.1061 35.7205 73.9548 35.0844 73.9548 34.3605C73.9548 33.6366 74.1007 33.0005 74.3941 32.4521C74.6876 31.9037 75.0977 31.4796 75.63 31.1816C76.1604 30.8837 76.7692 30.7356 77.4564 30.7356C78.1436 30.7356 78.7087 30.88 79.2264 31.1688C79.7441 31.4577 80.1469 31.8653 80.4367 32.3881C80.7247 32.9109 80.8687 33.5141 80.8687 34.1941C80.8687 34.4574 80.8523 34.6968 80.8177 34.9089H80.8159ZM79.3522 33.7353C79.343 33.1997 79.1535 32.7702 78.7798 32.4466C78.4061 32.123 77.9431 31.9622 77.3926 31.9622C76.8914 31.9622 76.463 32.1212 76.1076 32.4411C75.7521 32.761 75.5389 33.1924 75.4714 33.7372H79.354L79.3522 33.7353Z" fill="#718892"/>
<path d="M82.2484 32.4576C82.5418 31.9128 82.9392 31.4887 83.446 31.1871C83.9509 30.8855 84.5141 30.7338 85.1321 30.7338C85.5896 30.7338 86.0416 30.8343 86.4882 31.0336C86.933 31.2328 87.2884 31.4997 87.5509 31.8324V28.436H89.0146V37.883H87.5509V36.8228C87.314 37.1628 86.984 37.4443 86.5648 37.6655C86.1437 37.8867 85.6625 37.9982 85.1193 37.9982C84.5087 37.9982 83.9509 37.8428 83.446 37.532C82.941 37.2213 82.5418 36.788 82.2484 36.2305C81.9549 35.673 81.8091 35.0405 81.8091 34.3349C81.8091 33.6293 81.9549 33.0023 82.2484 32.4576ZM87.252 33.0974C87.0533 32.7391 86.7908 32.4667 86.4682 32.2803C86.1455 32.0938 85.7974 31.9987 85.4237 31.9987C85.05 31.9987 84.7019 32.0901 84.3792 32.2729C84.0566 32.4557 83.7959 32.7245 83.5954 33.0773C83.3967 33.4301 83.2965 33.8505 83.2965 34.3349C83.2965 34.8193 83.3967 35.2452 83.5954 35.6108C83.7941 35.9764 84.0584 36.2561 84.3847 36.448C84.711 36.64 85.0573 36.735 85.4219 36.735C85.7864 36.735 86.1437 36.6418 86.4663 36.4535C86.789 36.2671 87.0496 35.991 87.2502 35.6309C87.4488 35.269 87.5491 34.8449 87.5491 34.3605C87.5491 33.8761 87.4488 33.4538 87.2502 33.0974H87.252Z" fill="#718892"/>
<path d="M90.8485 37.7057C90.6699 37.5265 90.5806 37.3054 90.5806 37.0421C90.5806 36.7789 90.6699 36.5577 90.8485 36.3786C91.0272 36.1994 91.2477 36.1099 91.5102 36.1099C91.7727 36.1099 91.9805 36.1994 92.1591 36.3786C92.3378 36.5577 92.4271 36.7789 92.4271 37.0421C92.4271 37.3054 92.3378 37.5265 92.1591 37.7057C91.9805 37.8848 91.7654 37.9744 91.5102 37.9744C91.255 37.9744 91.0272 37.8848 90.8485 37.7057Z" fill="#718892"/>
<path d="M102.509 29.0118V30.2H98.7539V32.8177H101.681V34.0059H98.7539V37.8867H97.303V29.0137H102.511L102.509 29.0118Z" fill="#718892"/>
<path d="M109.811 29.6498C109.633 29.4707 109.543 29.2495 109.543 28.9862C109.543 28.723 109.633 28.5018 109.811 28.3227C109.99 28.1435 110.21 28.054 110.473 28.054C110.735 28.054 110.943 28.1435 111.122 28.3227C111.3 28.5018 111.39 28.723 111.39 28.9862C111.39 29.2495 111.3 29.4707 111.122 29.6498C110.943 29.8289 110.726 29.9185 110.473 29.9185C110.219 29.9185 109.99 29.8289 109.811 29.6498ZM111.187 30.8489V37.883H109.736V30.8489H111.187Z" fill="#718892"/>
<path d="M119.474 34.9089H114.115C114.157 35.4701 114.365 35.9216 114.738 36.2616C115.112 36.6016 115.569 36.7716 116.113 36.7716C116.893 36.7716 117.445 36.4444 117.768 35.7881H119.333C119.122 36.4352 118.737 36.9654 118.181 37.3785C117.626 37.7916 116.936 37.9982 116.113 37.9982C115.442 37.9982 114.842 37.8464 114.312 37.5448C113.781 37.2432 113.366 36.8173 113.065 36.2689C112.764 35.7205 112.613 35.0844 112.613 34.3605C112.613 33.6366 112.759 33.0005 113.052 32.4521C113.346 31.9037 113.756 31.4796 114.288 31.1816C114.818 30.8837 115.427 30.7356 116.114 30.7356C116.802 30.7356 117.367 30.88 117.884 31.1688C118.402 31.4577 118.805 31.8653 119.095 32.3881C119.383 32.9109 119.527 33.5141 119.527 34.1941C119.527 34.4574 119.51 34.6968 119.476 34.9089H119.474ZM118.01 33.7353C118.001 33.1997 117.811 32.7702 117.438 32.4466C117.064 32.123 116.601 31.9622 116.051 31.9622C115.549 31.9622 115.121 32.1212 114.766 32.4411C114.41 32.761 114.197 33.1924 114.129 33.7372H118.012L118.01 33.7353Z" fill="#718892"/>
<path d="M120.907 32.4576C121.2 31.9128 121.597 31.4887 122.104 31.1871C122.609 30.8855 123.172 30.7338 123.79 30.7338C124.248 30.7338 124.7 30.8343 125.146 31.0336C125.591 31.2328 125.947 31.4997 126.209 31.8324V28.436H127.673V37.883H126.209V36.8228C125.972 37.1628 125.642 37.4443 125.223 37.6655C124.802 37.8867 124.321 37.9982 123.777 37.9982C123.167 37.9982 122.609 37.8428 122.104 37.532C121.599 37.2213 121.2 36.788 120.907 36.2305C120.613 35.673 120.467 35.0405 120.467 34.3349C120.467 33.6293 120.613 33.0023 120.907 32.4576ZM125.91 33.0974C125.711 32.7391 125.449 32.4667 125.126 32.2803C124.804 32.0938 124.456 31.9987 124.082 31.9987C123.708 31.9987 123.36 32.0901 123.037 32.2729C122.715 32.4557 122.454 32.7245 122.254 33.0773C122.055 33.4301 121.955 33.8505 121.955 34.3349C121.955 34.8193 122.055 35.2452 122.254 35.6108C122.452 35.9764 122.717 36.2561 123.043 36.448C123.369 36.64 123.716 36.735 124.08 36.735C124.445 36.735 124.802 36.6418 125.125 36.4535C125.447 36.2671 125.708 35.991 125.908 35.6309C126.107 35.269 126.207 34.8449 126.207 34.3605C126.207 33.8761 126.107 33.4538 125.908 33.0974H125.91Z" fill="#718892"/>
<path d="M135.961 34.9089H130.602C130.644 35.4701 130.852 35.9216 131.225 36.2616C131.599 36.6016 132.057 36.7716 132.6 36.7716C133.38 36.7716 133.932 36.4444 134.255 35.7881H135.821C135.609 36.4352 135.225 36.9654 134.669 37.3785C134.113 37.7916 133.424 37.9982 132.6 37.9982C131.929 37.9982 131.329 37.8464 130.799 37.5448C130.269 37.2432 129.853 36.8173 129.552 36.2689C129.251 35.7205 129.1 35.0844 129.1 34.3605C129.1 33.6366 129.246 33.0005 129.539 32.4521C129.833 31.9037 130.243 31.4796 130.775 31.1816C131.306 30.8837 131.915 30.7356 132.602 30.7356C133.289 30.7356 133.854 30.88 134.372 31.1688C134.889 31.4577 135.292 31.8653 135.582 32.3881C135.87 32.9109 136.014 33.5141 136.014 34.1941C136.014 34.4574 135.998 34.6968 135.963 34.9089H135.961ZM134.497 33.7353C134.488 33.1997 134.299 32.7702 133.925 32.4466C133.551 32.123 133.088 31.9622 132.538 31.9622C132.037 31.9622 131.608 32.1212 131.253 32.4411C130.897 32.761 130.684 33.1924 130.617 33.7372H134.499L134.497 33.7353Z" fill="#718892"/>
<path d="M143.531 29.6498C143.352 29.4707 143.263 29.2495 143.263 28.9862C143.263 28.723 143.352 28.5018 143.531 28.3227C143.71 28.1435 143.93 28.054 144.193 28.054C144.455 28.054 144.663 28.1435 144.842 28.3227C145.02 28.5018 145.11 28.723 145.11 28.9862C145.11 29.2495 145.02 29.4707 144.842 29.6498C144.663 29.8289 144.446 29.9185 144.193 29.9185C143.939 29.9185 143.71 29.8289 143.531 29.6498ZM144.906 30.8489V37.883H143.455V30.8489H144.906Z" fill="#718892"/>
<path d="M149.732 34.3733L152.966 37.8848H151.005L148.407 34.8595V37.8848H146.956V28.4378H148.407V33.9273L150.954 30.8508H152.966L149.732 34.3751V34.3733Z" fill="#718892"/>
<path d="M160.388 34.9089H155.029C155.071 35.4701 155.279 35.9216 155.653 36.2616C156.026 36.6016 156.484 36.7716 157.027 36.7716C157.807 36.7716 158.36 36.4444 158.682 35.7881H160.248C160.037 36.4352 159.652 36.9654 159.096 37.3785C158.54 37.7916 157.851 37.9982 157.027 37.9982C156.356 37.9982 155.757 37.8464 155.226 37.5448C154.696 37.2432 154.28 36.8173 153.979 36.2689C153.679 35.7205 153.527 35.0844 153.527 34.3605C153.527 33.6366 153.673 33.0005 153.967 32.4521C154.26 31.9037 154.67 31.4796 155.203 31.1816C155.733 30.8837 156.342 30.7356 157.029 30.7356C157.716 30.7356 158.281 30.88 158.799 31.1688C159.317 31.4577 159.719 31.8653 160.009 32.3881C160.297 32.9109 160.441 33.5141 160.441 34.1941C160.441 34.4574 160.425 34.6968 160.39 34.9089H160.388ZM158.925 33.7353C158.916 33.1997 158.726 32.7702 158.352 32.4466C157.979 32.123 157.516 31.9622 156.965 31.9622C156.464 31.9622 156.036 32.1212 155.68 32.4411C155.325 32.761 155.111 33.1924 155.044 33.7372H158.926L158.925 33.7353Z" fill="#718892"/>
<path d="M166.486 37.66C166.01 37.4516 165.636 37.1555 165.365 36.7734C165.093 36.3895 164.956 35.9435 164.956 35.4335H166.509C166.544 35.8174 166.693 36.1318 166.961 36.3786C167.229 36.6254 167.605 36.7497 168.088 36.7497C168.571 36.7497 168.979 36.629 169.26 36.3859C169.541 36.1428 169.681 35.8302 169.681 35.4481C169.681 35.1502 169.594 34.9071 169.42 34.7206C169.245 34.5342 169.03 34.3879 168.771 34.2874C168.513 34.185 168.153 34.0753 167.696 33.9547C167.118 33.8011 166.65 33.6458 166.289 33.4885C165.928 33.3313 165.62 33.0864 165.366 32.7537C165.111 32.421 164.984 31.9786 164.984 31.4266C164.984 30.9166 165.111 30.4687 165.366 30.0867C165.622 29.7028 165.977 29.4103 166.436 29.2056C166.896 29.0009 167.424 28.8985 168.028 28.8985C168.884 28.8985 169.588 29.1142 170.135 29.5438C170.682 29.9733 170.986 30.5638 171.044 31.3114H169.44C169.415 30.9879 169.262 30.7118 168.983 30.4815C168.702 30.2512 168.334 30.136 167.875 30.136C167.459 30.136 167.118 30.2421 166.856 30.4559C166.593 30.668 166.46 30.9751 166.46 31.3754C166.46 31.6478 166.542 31.8708 166.708 32.0463C166.874 32.2218 167.084 32.3589 167.339 32.4612C167.594 32.5636 167.942 32.6733 168.383 32.7939C168.968 32.9566 169.446 33.1175 169.816 33.2783C170.186 33.4392 170.499 33.6896 170.758 34.026C171.017 34.3623 171.147 34.812 171.147 35.3732C171.147 35.8247 171.026 36.2506 170.784 36.6491C170.541 37.0494 170.19 37.3712 169.727 37.6125C169.264 37.8556 168.719 37.9762 168.092 37.9762C167.497 37.9762 166.963 37.872 166.487 37.6636L166.486 37.66Z" fill="#718892"/>
<path d="M172.82 32.4521C173.113 31.9037 173.518 31.4796 174.036 31.1816C174.553 30.8837 175.148 30.7356 175.818 30.7356C176.668 30.7356 177.37 30.9385 177.926 31.3425C178.482 31.7465 178.857 32.3241 179.052 33.0718H177.486C177.359 32.7226 177.155 32.4503 176.876 32.2547C176.595 32.0591 176.243 31.9604 175.818 31.9604C175.224 31.9604 174.75 32.1706 174.398 32.5928C174.047 33.0133 173.87 33.6037 173.87 34.3605C173.87 35.1173 174.047 35.7095 174.398 36.1355C174.75 36.5614 175.224 36.7734 175.818 36.7734C176.659 36.7734 177.215 36.4023 177.486 35.662H179.052C178.848 36.3768 178.467 36.9453 177.906 37.3657C177.346 37.788 176.65 37.9982 175.818 37.9982C175.148 37.9982 174.553 37.8464 174.036 37.5448C173.518 37.2432 173.113 36.8173 172.82 36.2689C172.526 35.7205 172.381 35.0844 172.381 34.3605C172.381 33.6366 172.526 33.0005 172.82 32.4521Z" fill="#718892"/>
<path d="M185.563 31.0793C185.982 31.3096 186.314 31.6496 186.557 32.1011C186.799 32.5526 186.919 33.0974 186.919 33.7353V37.8848H185.481V33.9529C185.481 33.3222 185.324 32.8396 185.011 32.5033C184.697 32.1669 184.269 31.9987 183.726 31.9987C183.183 31.9987 182.752 32.1669 182.433 32.5033C182.114 32.8396 181.956 33.3222 181.956 33.9529V37.8848H180.505V28.4378H181.956V31.6679C182.202 31.3699 182.514 31.1396 182.891 30.9787C183.268 30.8179 183.682 30.7356 184.132 30.7356C184.666 30.7356 185.144 30.8508 185.565 31.0811L185.563 31.0793Z" fill="#718892"/>
<path d="M195.144 34.9089H189.785C189.827 35.4701 190.034 35.9216 190.408 36.2616C190.782 36.6016 191.239 36.7716 191.782 36.7716C192.563 36.7716 193.115 36.4444 193.438 35.7881H195.003C194.792 36.4352 194.407 36.9654 193.851 37.3785C193.295 37.7916 192.606 37.9982 191.782 37.9982C191.112 37.9982 190.512 37.8464 189.982 37.5448C189.451 37.2432 189.036 36.8173 188.735 36.2689C188.434 35.7205 188.283 35.0844 188.283 34.3605C188.283 33.6366 188.429 33.0005 188.722 32.4521C189.015 31.9037 189.426 31.4796 189.958 31.1816C190.488 30.8837 191.097 30.7356 191.784 30.7356C192.472 30.7356 193.037 30.88 193.554 31.1688C194.072 31.4577 194.475 31.8653 194.765 32.3881C195.053 32.9109 195.197 33.5141 195.197 34.1941C195.197 34.4574 195.18 34.6968 195.146 34.9089H195.144ZM193.68 33.7353C193.671 33.1997 193.481 32.7702 193.108 32.4466C192.734 32.123 192.271 31.9622 191.721 31.9622C191.219 31.9622 190.791 32.1212 190.435 32.4411C190.08 32.761 189.867 33.1924 189.799 33.7372H193.682L193.68 33.7353Z" fill="#718892"/>
<path d="M202.998 34.9089H197.639C197.681 35.4701 197.889 35.9216 198.263 36.2616C198.636 36.6016 199.094 36.7716 199.637 36.7716C200.417 36.7716 200.969 36.4444 201.292 35.7881H202.858C202.646 36.4352 202.262 36.9654 201.706 37.3785C201.15 37.7916 200.461 37.9982 199.637 37.9982C198.966 37.9982 198.366 37.8464 197.836 37.5448C197.306 37.2432 196.89 36.8173 196.589 36.2689C196.288 35.7205 196.137 35.0844 196.137 34.3605C196.137 33.6366 196.283 33.0005 196.577 32.4521C196.87 31.9037 197.28 31.4796 197.812 31.1816C198.343 30.8837 198.952 30.7356 199.639 30.7356C200.326 30.7356 200.891 30.88 201.409 31.1688C201.926 31.4577 202.329 31.8653 202.619 32.3881C202.907 32.9109 203.051 33.5141 203.051 34.1941C203.051 34.4574 203.035 34.6968 203 34.9089H202.998ZM201.535 33.7353C201.525 33.1997 201.336 32.7702 200.962 32.4466C200.588 32.123 200.125 31.9622 199.575 31.9622C199.074 31.9622 198.645 32.1212 198.29 32.4411C197.934 32.761 197.721 33.1924 197.654 33.7372H201.536L201.535 33.7353Z" fill="#718892"/>
<path d="M205.928 28.436V37.883H204.477V28.436H205.928Z" fill="#718892"/>
<path d="M53.3934 30.6789C53.8619 30.6789 54.221 30.7374 54.5728 30.8782L54.2064 32.2931C53.8837 32.1249 53.4153 32.0353 53.0416 32.0353C52.0664 32.0353 51.3701 32.8341 51.3701 34.0315V37.9049H49.8809V30.8636H51.3555V31.6569C51.8167 30.9879 52.5349 30.6789 53.3934 30.6789Z" fill="#718892"/>
<path d="M107.144 30.6661C107.613 30.6661 107.97 30.7246 108.322 30.8636L107.956 32.2748C107.633 32.1066 107.166 32.0189 106.793 32.0189C105.819 32.0189 105.125 32.8159 105.125 34.0113V37.8775H103.639V30.8489H105.11V31.6405C105.571 30.9732 106.288 30.6643 107.144 30.6643V30.6661Z" fill="#718892"/>
<path d="M140.965 30.6661C141.433 30.6661 141.79 30.7246 142.142 30.8636L141.776 32.2748C141.453 32.1066 140.987 32.0189 140.613 32.0189C139.64 32.0189 138.945 32.8159 138.945 34.0113V37.8775H137.459V30.8489H138.93V31.6405C139.392 30.9732 140.108 30.6643 140.965 30.6643V30.6661Z" fill="#718892"/>
</g>
<defs>
<clipPath id="clip0_46_928">
<rect width="215.333" height="38" fill="white"/>
</clipPath>
</defs>
</svg>
