<svg viewBox="0 0 95 79.0063" xmlns="http://www.w3.org/2000/svg" xmlns:xlink="http://www.w3.org/1999/xlink" width="95.000000" height="79.006348" fill="none" customFrame="#000000">
	<g id="Group">
		<g id="Group">
			<g id="Group">
				<g id="Group">
					<path id="Vector" d="M83.0985 79.0058L11.8779 79.0058C5.33919 79.0058 0 73.6901 0 67.1279L0 25.5903C0 19.0516 5.31567 13.7124 11.8779 13.7124L83.1221 13.7124C89.6608 13.7124 95 19.0281 95 25.5903L95 67.1514C94.9765 73.6901 89.6608 79.0058 83.0985 79.0058ZM11.8779 15.0766C6.09185 15.0766 1.3642 19.7807 1.3642 25.5903L1.3642 67.1514C1.3642 72.9375 6.06833 77.6651 11.8779 77.6651L83.1221 77.6651C88.9081 77.6651 93.6358 72.961 93.6358 67.1514L93.6358 25.5903C93.6358 19.8043 88.9317 15.0766 83.1221 15.0766L11.8779 15.0766Z" fill="rgb(63,72,87)" fill-rule="nonzero"/>
				</g>
				<g id="Group">
					<path id="Vector" d="M64.6113 15.0763L30.3652 15.0763C29.9889 15.0763 29.6831 14.7705 29.6831 14.3942L29.6831 6.39713C29.6831 2.86903 32.5526 -0.000488281 36.0807 -0.000488281L58.9193 -0.000488281C62.4474 -0.000488281 65.3169 2.86903 65.3169 6.39713L65.3169 14.3942C65.2934 14.7705 64.9876 15.0763 64.6113 15.0763ZM31.0473 13.7121L63.9292 13.7121L63.9292 6.39713C63.9292 3.62169 61.6712 1.36371 58.8958 1.36371L36.0572 1.36371C33.2818 1.36371 31.0238 3.62169 31.0238 6.39713L31.0238 13.7121L31.0473 13.7121Z" fill="rgb(63,72,87)" fill-rule="nonzero"/>
				</g>
				<g id="Group">
					<path id="Vector" d="M82.8867 15.0884L73.7607 15.0884C73.3844 15.0884 73.0786 14.7826 73.0786 14.4063L73.0786 9.84326C73.0786 6.95021 75.4307 4.59814 78.3237 4.59814C81.2168 4.59814 83.5688 6.95021 83.5688 9.84326L83.5688 14.4063C83.5688 14.7826 83.2631 15.0884 82.8867 15.0884ZM74.4193 13.7242L82.1811 13.7242L82.1811 9.84326C82.1811 7.70287 80.4406 5.96234 78.3002 5.96234C76.1598 5.96234 74.4193 7.70287 74.4193 9.84326L74.4193 13.7242Z" fill="rgb(63,72,87)" fill-rule="nonzero"/>
				</g>
				<g id="Group">
					<path id="Vector" d="M21.2393 15.0884L12.1133 15.0884C11.7369 15.0884 11.4312 14.7826 11.4312 14.4063L11.4312 9.84326C11.4312 6.95021 13.7832 4.59814 16.6763 4.59814C19.5693 4.59814 21.9214 6.95021 21.9214 9.84326L21.9214 14.4063C21.9214 14.7826 21.6156 15.0884 21.2393 15.0884ZM12.7954 13.7242L20.5572 13.7242L20.5572 9.84326C20.5572 7.70287 18.8166 5.96234 16.6763 5.96234C14.5359 5.96234 12.7954 7.70287 12.7954 9.84326L12.7954 13.7242Z" fill="rgb(63,72,87)" fill-rule="nonzero"/>
				</g>
				<g id="Group">
					<path id="Vector" d="M25.8025 79.0058L14.395 79.0058C14.0187 79.0058 13.7129 78.7 13.7129 78.3237L13.7129 14.3945C13.7129 14.0182 14.0187 13.7124 14.395 13.7124L25.8025 13.7124C26.1788 13.7124 26.4846 14.0182 26.4846 14.3945L26.4846 78.3237C26.4846 78.7 26.1788 79.0058 25.8025 79.0058ZM15.0771 77.6416L25.1204 77.6416L25.1204 15.0766L15.0771 15.0766L15.0771 77.6416Z" fill="rgb(63,72,87)" fill-rule="nonzero"/>
				</g>
				<g id="Group">
					<path id="Vector" d="M80.5813 79.0058L69.1738 79.0058C68.7975 79.0058 68.4917 78.7 68.4917 78.3237L68.4917 14.3945C68.4917 14.0182 68.7975 13.7124 69.1738 13.7124L80.5813 13.7124C80.9577 13.7124 81.2634 14.0182 81.2634 14.3945L81.2634 78.3237C81.2869 78.7 80.9812 79.0058 80.5813 79.0058ZM69.8559 77.6416L79.8992 77.6416L79.8992 15.0766L69.8559 15.0766L69.8559 77.6416Z" fill="rgb(63,72,87)" fill-rule="nonzero"/>
				</g>
				<g id="Group">
					<path id="Vector" d="M52.0517 59.6088L42.9257 59.6088C42.5494 59.6088 42.2436 59.303 42.2436 58.9267L42.2436 51.6118L34.9287 51.6118C34.5524 51.6118 34.2466 51.306 34.2466 50.9297L34.2466 41.8036C34.2466 41.4273 34.5524 41.1215 34.9287 41.1215L42.2436 41.1215L42.2436 33.8066C42.2436 33.4303 42.5494 33.1245 42.9257 33.1245L52.0517 33.1245C52.4281 33.1245 52.7338 33.4303 52.7338 33.8066L52.7338 41.1215L60.0488 41.1215C60.4251 41.1215 60.7309 41.4273 60.7309 41.8036L60.7309 50.9297C60.7309 51.306 60.4251 51.6118 60.0488 51.6118L52.7338 51.6118L52.7338 58.9267C52.7338 59.303 52.4281 59.6088 52.0517 59.6088ZM43.6078 58.2446L51.3696 58.2446L51.3696 50.9297C51.3696 50.5533 51.6754 50.2476 52.0517 50.2476L59.3667 50.2476L59.3667 42.4857L52.0517 42.4857C51.6754 42.4857 51.3696 42.18 51.3696 41.8036L51.3696 34.4887L43.6078 34.4887L43.6078 41.8036C43.6078 42.18 43.302 42.4857 42.9257 42.4857L35.6108 42.4857L35.6108 50.2476L42.9257 50.2476C43.302 50.2476 43.6078 50.5533 43.6078 50.9297L43.6078 58.2446Z" fill="rgb(63,72,87)" fill-rule="nonzero"/>
				</g>
			</g>
		</g>
	</g>
</svg>
