<svg width="91" height="77" viewBox="0 0 91 77" fill="none" xmlns="http://www.w3.org/2000/svg">
<path d="M70.5786 76.0072H20.4173C20.0728 76.0072 19.793 75.7273 19.793 75.3828V1.62433C19.793 1.27987 20.0728 1 20.4173 1H67.8235C68.168 1 68.4479 1.27987 68.4479 1.62433C68.4479 1.96878 68.168 2.24865 67.8235 2.24865H21.0416V74.737H69.9328V2.27018H55.9393C55.5948 2.27018 55.3149 1.99031 55.3149 1.64585C55.3149 1.3014 55.5948 1.02153 55.9393 1.02153H70.5571C70.9015 1.02153 71.1814 1.3014 71.1814 1.64585V75.4044C71.2029 75.7273 70.9231 76.0072 70.5786 76.0072Z" fill="#3F4857" stroke="#3F4857" stroke-width="0.2"/>
<path d="M89.3738 76.0113H70.5579C70.2135 76.0113 69.9336 75.7314 69.9336 75.387V21.0491C69.9336 20.7047 70.2135 20.4248 70.5579 20.4248H89.3738C89.7183 20.4248 89.9981 20.7047 89.9981 21.0491V75.387C90.0197 75.7314 89.7398 76.0113 89.3738 76.0113ZM71.2038 74.7627H88.7495V21.6735H71.2038V74.7627Z" fill="#3F4857" stroke="#3F4857" stroke-width="0.2"/>
<path d="M20.4187 76.0113H1.62433C1.27987 76.0113 1 75.7314 1 75.387V21.0491C1 20.7047 1.27987 20.4248 1.62433 20.4248H20.4402C20.7847 20.4248 21.0645 20.7047 21.0645 21.0491V75.387C21.043 75.7314 20.7631 76.0113 20.4187 76.0113ZM2.24865 74.7627H19.7944V21.6735H2.24865V74.7627Z" fill="#3F4857" stroke="#3F4857" stroke-width="0.2"/>
<path d="M55.9386 76.0121H35.0345C34.69 76.0121 34.4102 75.7322 34.4102 75.3877V44.0423C34.4102 43.6978 34.69 43.418 35.0345 43.418H55.9386C56.2831 43.418 56.5629 43.6978 56.5629 44.0423V75.3877C56.5629 75.7322 56.2831 76.0121 55.9386 76.0121ZM35.6803 74.7634H55.3143V44.6666H35.6803V74.7634Z" fill="#3F4857" stroke="#3F4857" stroke-width="0.2"/>
<path d="M35.0594 17.4909H26.7064C26.3619 17.4909 26.082 17.211 26.082 16.8665V8.51348C26.082 8.16903 26.3619 7.88916 26.7064 7.88916H35.0594C35.4039 7.88916 35.6837 8.16903 35.6837 8.51348V16.8665C35.6837 17.211 35.4039 17.4909 35.0594 17.4909ZM27.3307 16.2422H34.4351V9.13781H27.3307V16.2422Z" fill="#3F4857" stroke="#3F4857" stroke-width="0.2"/>
<path d="M49.6766 17.4909H41.3235C40.9791 17.4909 40.6992 17.211 40.6992 16.8665V8.51348C40.6992 8.16903 40.9791 7.88916 41.3235 7.88916H49.6766C50.021 7.88916 50.3009 8.16903 50.3009 8.51348V16.8665C50.3009 17.211 50.021 17.4909 49.6766 17.4909ZM41.9479 16.2422H49.0523V9.13781H41.9479V16.2422Z" fill="#3F4857" stroke="#3F4857" stroke-width="0.2"/>
<path d="M64.3211 17.4909H55.9681C55.6236 17.4909 55.3438 17.211 55.3438 16.8665V8.51348C55.3438 8.16903 55.6236 7.88916 55.9681 7.88916H64.3211C64.6656 7.88916 64.9454 8.16903 64.9454 8.51348V16.8665C64.9454 17.211 64.6656 17.4909 64.3211 17.4909ZM56.5709 16.2422H63.6753V9.13781H56.5709V16.2422Z" fill="#3F4857" stroke="#3F4857" stroke-width="0.2"/>
<path d="M35.0594 34.2164H26.7064C26.3619 34.2164 26.082 33.9366 26.082 33.5921V25.2391C26.082 24.8946 26.3619 24.6147 26.7064 24.6147H35.0594C35.4039 24.6147 35.6837 24.8946 35.6837 25.2391V33.5921C35.6837 33.9366 35.4039 34.2164 35.0594 34.2164ZM27.3307 32.9678H34.4351V25.8634H27.3307V32.9678Z" fill="#3F4857" stroke="#3F4857" stroke-width="0.2"/>
<path d="M49.6766 34.2164H41.3235C40.9791 34.2164 40.6992 33.9366 40.6992 33.5921V25.2391C40.6992 24.8946 40.9791 24.6147 41.3235 24.6147H49.6766C50.021 24.6147 50.3009 24.8946 50.3009 25.2391V33.5921C50.3009 33.9366 50.021 34.2164 49.6766 34.2164ZM41.9479 32.9678H49.0523V25.8634H41.9479V32.9678Z" fill="#3F4857" stroke="#3F4857" stroke-width="0.2"/>
<path d="M64.3211 34.2164H55.9681C55.6236 34.2164 55.3438 33.9366 55.3438 33.5921V25.2391C55.3438 24.8946 55.6236 24.6147 55.9681 24.6147H64.3211C64.6656 24.6147 64.9454 24.8946 64.9454 25.2391V33.5921C64.9454 33.9366 64.6656 34.2164 64.3211 34.2164ZM56.5709 32.9678H63.6753V25.8634H56.5709V32.9678Z" fill="#3F4857" stroke="#3F4857" stroke-width="0.2"/>
<path d="M89.3738 65.5719H70.5579C70.2135 65.5719 69.9336 65.292 69.9336 64.9476C69.9336 64.6031 70.2135 64.3232 70.5579 64.3232H89.3738C89.7183 64.3232 89.9981 64.6031 89.9981 64.9476C89.9981 65.292 89.7398 65.5719 89.3738 65.5719Z" fill="#3F4857" stroke="#3F4857" stroke-width="0.2"/>
<path d="M20.4187 65.5719H1.62433C1.27987 65.5719 1 65.292 1 64.9476C1 64.6031 1.27987 64.3232 1.62433 64.3232H20.4402C20.7847 64.3232 21.0645 64.6031 21.0645 64.9476C21.0645 65.292 20.7631 65.5719 20.4187 65.5719Z" fill="#3F4857" stroke="#3F4857" stroke-width="0.2"/>
</svg>
