<svg viewBox="0 0 81.4312 68.6338" xmlns="http://www.w3.org/2000/svg" xmlns:xlink="http://www.w3.org/1999/xlink" width="81.431152" height="68.633789" fill="none" customFrame="#000000">
	<g id="Group">
		<g id="Group">
			<g id="Group">
				<path id="Vector" d="M63.6625 68.6288L17.767 68.6288C17.4519 68.6288 17.1958 68.3728 17.1958 68.0576L17.1958 0.57172C17.1958 0.256558 17.4519 0.000488281 17.767 0.000488281L61.1417 0.000488281C61.4569 0.000488281 61.713 0.256558 61.713 0.57172C61.713 0.886882 61.4569 1.14295 61.1417 1.14295L18.3383 1.14295L18.3383 67.4667L63.0716 67.4667L63.0716 1.16265L50.2681 1.16265C49.953 1.16265 49.6969 0.906579 49.6969 0.591417C49.6969 0.276255 49.953 0.0201855 50.2681 0.0201855L63.6428 0.0201855C63.958 0.0201855 64.214 0.276255 64.214 0.591417L64.214 68.0773C64.2337 68.3728 63.9777 68.6288 63.6625 68.6288Z" fill="rgb(0,0,0)" fill-rule="nonzero"/>
			</g>
			<g id="Group">
				<path id="Vector" d="M80.8592 68.6327L63.6435 68.6327C63.3283 68.6327 63.0723 68.3766 63.0723 68.0615L63.0723 18.3447C63.0723 18.0295 63.3283 17.7734 63.6435 17.7734L80.8592 17.7734C81.1744 17.7734 81.4305 18.0295 81.4305 18.3447L81.4305 68.0615C81.4502 68.3766 81.1941 68.6327 80.8592 68.6327ZM64.2344 67.4903L80.288 67.4903L80.288 18.9159L64.2344 18.9159L64.2344 67.4903Z" fill="rgb(0,0,0)" fill-rule="nonzero"/>
			</g>
			<g id="Group">
				<path id="Vector" d="M17.7673 68.6327L0.571232 68.6327C0.25607 68.6327 0 68.3766 0 68.0615L0 18.3447C0 18.0295 0.25607 17.7734 0.571232 17.7734L17.787 17.7734C18.1021 17.7734 18.3582 18.0295 18.3582 18.3447L18.3582 68.0615C18.3385 68.3766 18.0824 68.6327 17.7673 68.6327ZM1.14246 67.4903L17.196 67.4903L17.196 18.9159L1.14246 18.9159L1.14246 67.4903Z" fill="rgb(0,0,0)" fill-rule="nonzero"/>
			</g>
			<g id="Group">
				<path id="Vector" d="M50.2684 68.6332L31.142 68.6332C30.8269 68.6332 30.5708 68.3772 30.5708 68.062L30.5708 39.3823C30.5708 39.0671 30.8269 38.811 31.142 38.811L50.2684 38.811C50.5836 38.811 50.8397 39.0671 50.8397 39.3823L50.8397 68.062C50.8397 68.3772 50.5836 68.6332 50.2684 68.6332ZM31.733 67.4908L49.6972 67.4908L49.6972 39.9535L31.733 39.9535L31.733 67.4908Z" fill="rgb(0,0,0)" fill-rule="nonzero"/>
			</g>
			<g id="Group">
				<path id="Vector" d="M31.1617 15.0889L23.519 15.0889C23.2038 15.0889 22.9478 14.8328 22.9478 14.5176L22.9478 6.87494C22.9478 6.55978 23.2038 6.30371 23.519 6.30371L31.1617 6.30371C31.4768 6.30371 31.7329 6.55978 31.7329 6.87494L31.7329 14.5176C31.7329 14.8328 31.4768 15.0889 31.1617 15.0889ZM24.0902 13.9464L30.5904 13.9464L30.5904 7.44617L24.0902 7.44617L24.0902 13.9464Z" fill="rgb(0,0,0)" fill-rule="nonzero"/>
			</g>
			<g id="Group">
				<path id="Vector" d="M44.5362 15.0889L36.8935 15.0889C36.5783 15.0889 36.3223 14.8328 36.3223 14.5176L36.3223 6.87494C36.3223 6.55978 36.5783 6.30371 36.8935 6.30371L44.5362 6.30371C44.8513 6.30371 45.1074 6.55978 45.1074 6.87494L45.1074 14.5176C45.1074 14.8328 44.8513 15.0889 44.5362 15.0889ZM37.4647 13.9464L43.9649 13.9464L43.9649 7.44617L37.4647 7.44617L37.4647 13.9464Z" fill="rgb(0,0,0)" fill-rule="nonzero"/>
			</g>
			<g id="Group">
				<path id="Vector" d="M57.9307 15.0889L50.288 15.0889C49.9729 15.0889 49.7168 14.8328 49.7168 14.5176L49.7168 6.87494C49.7168 6.55978 49.9729 6.30371 50.288 6.30371L57.9307 6.30371C58.2459 6.30371 58.5019 6.55978 58.5019 6.87494L58.5019 14.5176C58.5019 14.8328 58.2459 15.0889 57.9307 15.0889ZM50.8396 13.9464L57.3398 13.9464L57.3398 7.44617L50.8396 7.44617L50.8396 13.9464Z" fill="rgb(0,0,0)" fill-rule="nonzero"/>
			</g>
			<g id="Group">
				<path id="Vector" d="M31.1617 30.3921L23.519 30.3921C23.2038 30.3921 22.9478 30.136 22.9478 29.8208L22.9478 22.1782C22.9478 21.863 23.2038 21.6069 23.519 21.6069L31.1617 21.6069C31.4768 21.6069 31.7329 21.863 31.7329 22.1782L31.7329 29.8208C31.7329 30.136 31.4768 30.3921 31.1617 30.3921ZM24.0902 29.2496L30.5904 29.2496L30.5904 22.7494L24.0902 22.7494L24.0902 29.2496Z" fill="rgb(0,0,0)" fill-rule="nonzero"/>
			</g>
			<g id="Group">
				<path id="Vector" d="M44.5362 30.3921L36.8935 30.3921C36.5783 30.3921 36.3223 30.136 36.3223 29.8208L36.3223 22.1782C36.3223 21.863 36.5783 21.6069 36.8935 21.6069L44.5362 21.6069C44.8513 21.6069 45.1074 21.863 45.1074 22.1782L45.1074 29.8208C45.1074 30.136 44.8513 30.3921 44.5362 30.3921ZM37.4647 29.2496L43.9649 29.2496L43.9649 22.7494L37.4647 22.7494L37.4647 29.2496Z" fill="rgb(0,0,0)" fill-rule="nonzero"/>
			</g>
			<g id="Group">
				<path id="Vector" d="M57.9307 30.3921L50.288 30.3921C49.9729 30.3921 49.7168 30.136 49.7168 29.8208L49.7168 22.1782C49.7168 21.863 49.9729 21.6069 50.288 21.6069L57.9307 21.6069C58.2459 21.6069 58.5019 21.863 58.5019 22.1782L58.5019 29.8208C58.5019 30.136 58.2459 30.3921 57.9307 30.3921ZM50.8396 29.2496L57.3398 29.2496L57.3398 22.7494L50.8396 22.7494L50.8396 29.2496Z" fill="rgb(0,0,0)" fill-rule="nonzero"/>
			</g>
			<g id="Group">
				<path id="Vector" d="M80.8592 59.0804L63.6435 59.0804C63.3283 59.0804 63.0723 58.8244 63.0723 58.5092C63.0723 58.1941 63.3283 57.938 63.6435 57.938L80.8592 57.938C81.1744 57.938 81.4305 58.1941 81.4305 58.5092C81.4305 58.8244 81.1941 59.0804 80.8592 59.0804Z" fill="rgb(0,0,0)" fill-rule="nonzero"/>
			</g>
			<g id="Group">
				<path id="Vector" d="M17.7673 59.0804L0.571232 59.0804C0.25607 59.0804 0 58.8244 0 58.5092C0 58.1941 0.25607 57.938 0.571232 57.938L17.787 57.938C18.1021 57.938 18.3582 58.1941 18.3582 58.5092C18.3582 58.8244 18.0824 59.0804 17.7673 59.0804Z" fill="rgb(0,0,0)" fill-rule="nonzero"/>
			</g>
		</g>
	</g>
</svg>
