<svg viewBox="0 0 66.5166 55.0415" xmlns="http://www.w3.org/2000/svg" xmlns:xlink="http://www.w3.org/1999/xlink" width="66.516602" height="55.041504" fill="none" customFrame="#000000">
	<g id="Group 407">
		<path id="Vector" d="M52.6739 47.168L14.1594 47.168C6.57018 47.168 0.401855 40.9995 0.401855 33.4102L0.401855 21.2272C0.401855 20.7892 0.756942 20.4458 1.18317 20.4458L65.662 20.4458C66.1001 20.4458 66.4436 20.801 66.4436 21.2272L66.4436 33.4102C66.4436 40.9995 60.275 47.168 52.6858 47.168L52.6739 47.168ZM1.97662 22.0086L1.97662 33.4102C1.97662 40.1352 7.43447 45.5933 14.1594 45.5933L52.6858 45.5933C59.4107 45.5933 64.8688 40.1352 64.8688 33.4102L64.8688 22.0086L1.97662 22.0086Z" fill="rgb(63,72,87)" fill-rule="nonzero"/>
		<path id="Vector" d="M45.0233 55.0416L20.8113 55.0416C16.2175 55.0416 12.4761 51.3002 12.4761 46.7064L12.4761 46.3986C12.4761 45.9605 12.8314 45.6172 13.2577 45.6172L52.5772 45.6172C53.0153 45.6172 53.3585 45.9724 53.3585 46.3986L53.3585 46.7064C53.3585 51.2884 49.6171 55.0416 45.0233 55.0416ZM14.0627 47.1682C14.3113 50.6727 17.2357 53.4551 20.8113 53.4551L45.0233 53.4551C48.5989 53.4551 51.5236 50.6727 51.7722 47.1682L14.0745 47.1682L14.0627 47.1682Z" fill="rgb(63,72,87)" fill-rule="nonzero"/>
		<path id="Vector" d="M48.0844 22.0086L30.7746 22.0086C30.4668 22.0086 30.171 21.831 30.0644 21.535C29.9342 21.239 30.0051 20.9193 30.2063 20.6944L47.6106 1.8456C50.1917 -0.948569 54.8684 -0.557859 56.8219 2.93485C57.8401 4.77 57.7929 6.93666 56.6918 8.73629L48.7475 21.6415C48.6054 21.8902 48.3567 22.0204 48.0844 22.0204L48.0844 22.0086ZM32.5861 20.4457L47.6462 20.4457L55.3657 7.90751C56.1589 6.60515 56.1945 5.03047 55.4486 3.70443C54.0397 1.17073 50.6415 0.898422 48.7709 2.91117L32.5861 20.4576L32.5861 20.4457Z" fill="rgb(63,72,87)" fill-rule="nonzero"/>
		<path id="Vector" d="M9.15007 9.78293C8.72385 9.72373 8.41623 9.30934 8.48727 8.89495C8.9727 5.568 10.7011 2.57256 13.3414 0.465102C13.6374 0.240148 14.04 0.240148 14.336 0.465102C16.8579 2.50153 18.5628 5.35489 19.1311 8.52792C19.214 8.95415 18.918 9.3567 18.4917 9.43958C18.0655 9.52246 17.6629 9.22646 17.5801 8.80024C17.1302 6.21919 15.8042 3.86309 13.8388 2.12266C11.7906 3.95781 10.4406 6.4323 10.0499 9.14359C9.96702 9.54614 9.57629 9.85397 9.13822 9.79477L9.15007 9.78293Z" fill="rgb(63,72,87)" fill-rule="nonzero"/>
		<path id="Vector" d="M14.1485 21.9831C5.90812 22.4922 -0.828808 15.4831 0.0828468 7.21898C0.118366 6.84011 0.402622 6.5678 0.781492 6.52044C4.83066 6.08237 8.79688 7.46761 11.6621 10.3447C12.6803 11.3629 13.5092 12.5113 14.1485 13.7782C16.552 8.9831 21.7849 5.89294 27.5153 6.53228C27.8942 6.5678 28.1666 6.85195 28.2139 7.23082C29.1256 15.4831 22.4008 22.504 14.1485 21.9949L14.1485 21.9831ZM14.2075 20.4084C21.2284 20.8583 27.1128 15.116 26.7221 8.02408C21.2759 7.71625 16.5163 11.1616 14.9061 16.0632C14.7877 16.3829 14.5034 16.596 14.1601 16.596C13.8167 16.596 13.5209 16.3829 13.4143 16.0632C11.8041 11.1734 7.08013 7.71625 1.59836 8.02408C1.20765 15.0924 7.09205 20.8583 14.113 20.4084L14.2075 20.4084Z" fill="rgb(63,72,87)" fill-rule="nonzero"/>
		<path id="Vector" d="M65.735 29.8685L1.25617 29.8685C0.8181 29.8685 0.474854 29.5133 0.474854 29.0871C0.474854 28.6609 0.82994 28.3057 1.25617 28.3057L65.735 28.3057C66.1731 28.3057 66.5166 28.6609 66.5166 29.0871C66.5166 29.5133 66.1731 29.8685 65.735 29.8685Z" fill="rgb(63,72,87)" fill-rule="nonzero"/>
	</g>
</svg>
