<svg viewBox="0 0 75 75" xmlns="http://www.w3.org/2000/svg" xmlns:xlink="http://www.w3.org/1999/xlink" width="75.000000" height="75.000000" fill="none" customFrame="#000000">
	<g id="Group 393">
		<path id="Vector" d="M73.6766 57.6817C71.968 55.973 68.9877 55.973 67.2791 57.6817L66.3157 58.6452L60.8817 53.2108L65.2751 48.817C65.8147 48.2774 66.0973 47.5708 66.0973 46.8256C66.0973 46.0805 65.8018 45.361 65.2751 44.8343L62.8729 42.4318C61.8066 41.3655 59.9439 41.3655 58.8777 42.4318L56.514 44.7957L33.3907 21.6447L23.1393 11.3924C21.6877 9.94069 19.324 9.73513 17.6026 10.7501L15.7913 8.93859C14.725 7.87225 12.8623 7.87225 11.7961 8.93859L11.1666 9.56811L1.91731 0.317974C1.48053 -0.105991 0.761142 -0.105991 0.337215 0.317974C-0.112405 0.767633 -0.112405 1.48709 0.337215 1.9239L9.57368 11.1612L8.94422 11.7907C7.85228 12.8956 7.85228 14.6814 8.94422 15.7863L10.7555 17.5977C10.3188 18.3044 10.0875 19.1009 10.0875 19.9488C10.0875 21.1565 10.5628 22.2871 11.4107 23.1478L21.662 33.4001L44.7853 56.5254L42.4216 58.8893C41.8821 59.4289 41.5994 60.1355 41.5994 60.8807C41.5994 61.6258 41.8949 62.3453 42.4216 62.872L44.8239 65.2745C45.3762 65.8269 46.0956 66.0967 46.815 66.0967C47.5344 66.0967 48.2667 65.8269 48.8062 65.2745L53.1996 60.8807L58.6336 66.3151L57.6701 67.2787C55.9102 69.0388 55.9102 71.9038 57.6701 73.6767C58.518 74.5375 59.6613 75 60.8688 75C62.0764 75 63.2069 74.5246 64.0676 73.6767L73.6766 64.0668C74.5373 63.2061 74.9997 62.0755 74.9997 60.8678C75.0126 59.673 74.5373 58.5425 73.6766 57.6945L73.6766 57.6817ZM10.5243 13.3709L11.9374 11.9577L13.3505 10.5445C13.4918 10.4032 13.6716 10.3775 13.7616 10.3775C13.8515 10.3775 14.0185 10.4032 14.1726 10.5445L15.8812 12.2532L12.2329 15.9019L10.5243 14.1932C10.2931 13.9619 10.2931 13.6022 10.5243 13.3709ZM12.9908 18.3172L13.0422 18.2658L18.2835 13.0241L18.3348 12.9727C18.7588 12.5487 19.3369 12.3046 19.9406 12.3046C20.5444 12.3046 21.1225 12.5359 21.5464 12.9727L31.0013 22.4284L22.4456 30.9848L12.9908 21.5291C12.1044 20.6426 12.1044 19.2037 12.9908 18.3172ZM24.0386 32.5907L32.5942 24.0343L36.6408 28.0812L32.864 31.8584C32.4272 32.2952 32.4272 33.0146 32.864 33.4515C33.0824 33.6699 33.3778 33.7855 33.6604 33.7855C33.9431 33.7855 34.2385 33.6699 34.4569 33.4515L38.2337 29.6743L42.2803 33.7213L38.5035 37.4984C38.0667 37.9352 38.0667 38.6547 38.5035 39.0915C38.7219 39.3099 39.0173 39.4255 39.3 39.4255C39.5826 39.4255 39.878 39.3099 40.0964 39.0915L43.8732 35.3143L47.9198 39.3613L44.143 43.1384C43.7062 43.5752 43.7062 44.2947 44.143 44.7315C44.3614 44.9499 44.6568 45.0655 44.9395 45.0655C45.2221 45.0655 45.5175 44.9499 45.7359 44.7315L49.5127 40.9543L54.9467 46.3888L46.3911 54.9452L24.0386 32.5907ZM47.2261 63.6943C47.0077 63.9127 46.6352 63.9127 46.4168 63.6943L44.0145 61.2918C43.8732 61.1505 43.8475 60.9706 43.8475 60.8807C43.8475 60.7265 43.9118 60.5852 44.0145 60.4696L60.4706 44.012C60.5734 43.9093 60.7275 43.845 60.8817 43.845C61.0358 43.845 61.1772 43.9093 61.2928 44.012L63.695 46.4145C63.8363 46.5558 63.862 46.7357 63.862 46.8256C63.862 46.9798 63.7978 47.1211 63.695 47.2367L47.2261 63.6943ZM54.8054 59.2876L59.3016 54.791L64.7356 60.2255L60.2394 64.7221L54.8054 59.2876ZM72.0965 62.4995L62.4875 72.1093C61.6268 72.9701 60.1366 72.9701 59.2759 72.1093C58.4152 71.2486 58.3895 69.784 59.2759 68.8975L68.8849 59.2876C69.3088 58.8636 69.8869 58.6195 70.4907 58.6195C71.0945 58.6195 71.6726 58.8508 72.0965 59.2876C72.5204 59.7116 72.7645 60.2897 72.7645 60.8935C72.7645 61.4974 72.5204 62.0627 72.0965 62.4995Z" fill="#fff" fill-rule="nonzero"/>
	</g>
</svg>
