<svg width="36" height="36" viewBox="0 0 36 36" fill="none" xmlns="http://www.w3.org/2000/svg">
<g clip-path="url(#clip0_1_4832)">
<path d="M33.7534 12.3374H23.6561V2.24018C23.6561 1.18213 22.8005 0.326538 21.7425 0.326538H14.2577C13.1997 0.326538 12.3441 1.18213 12.3441 2.24018V12.3374H2.2403C1.18225 12.3374 0.32666 13.193 0.32666 14.2511V21.7358C0.32666 22.7939 1.18225 23.6495 2.2403 23.6495H12.3375V33.7467C12.3375 34.8048 13.1931 35.6604 14.2512 35.6604H21.7359C22.794 35.6604 23.6496 34.8048 23.6496 33.7467V23.6495H33.7468C34.8049 23.6495 35.6605 22.7939 35.6605 21.7358V14.2511C35.6605 13.193 34.8049 12.3374 33.7468 12.3374H33.7534Z" stroke="#3F4857" stroke-miterlimit="10"/>
</g>
<defs>
<clipPath id="clip0_1_4832">
<rect width="36" height="36" fill="white"/>
</clipPath>
</defs>
</svg>
