<svg viewBox="0 0 65.9072 67" xmlns="http://www.w3.org/2000/svg" xmlns:xlink="http://www.w3.org/1999/xlink" width="65.907227" height="67.000000" fill="none" customFrame="#000000">
	<g id="Group">
		<path id="Vector" d="M64.9614 43.3987C59.928 43.3987 55.8403 47.4864 55.8403 52.5198L55.8403 57.8789C55.8403 61.893 52.5723 65.1611 48.5582 65.1611L42.3794 65.1611C38.3653 65.1611 35.0972 61.893 35.0972 57.8789L35.0972 57.8369L36.5684 57.8369C37.6823 57.8369 38.5859 56.9332 38.5859 55.8193L38.5859 54.4743L38.67 54.4743C45.2166 54.4743 50.5442 49.1466 50.5442 42.6001L50.5442 17.0022C50.5442 14.6799 48.6528 12.7989 46.341 12.7989L39.6788 12.7989L39.6788 10.3505C39.6788 9.23667 38.7751 8.33297 37.6612 8.33297L35.0972 8.33297L35.0972 6.08422L39.91 6.08422C41.5808 6.08422 42.9469 4.71816 42.9469 3.04737C42.9469 1.37657 41.5808 0.0105081 39.91 0.0105081L36.4213 0.0105081C35.9169 0.0105081 35.4965 0.420326 35.4965 0.935226C35.4965 1.45013 35.9064 1.85994 36.4213 1.85994L39.91 1.85994C40.572 1.85994 41.1079 2.39586 41.1079 3.05787C41.1079 3.71989 40.572 4.2558 39.91 4.2558L27.2582 4.2558L27.2582 0.924718C27.2582 0.420326 26.8484 0 26.3335 0L3.03687 0C1.36608 0 0 1.36606 0 3.03686L0 66.0753C0 66.5797 0.409823 67 0.924723 67C1.43962 67 1.83893 66.5797 1.83893 66.0753L1.83893 3.04737C1.83893 2.38535 2.37486 1.84944 3.03687 1.84944L25.4087 1.84944L25.4087 4.2453L5.15951 4.2453C4.65512 4.2453 4.23479 4.65511 4.23479 5.17001L4.23479 66.0753C4.23479 66.5797 4.64461 67 5.15951 67C5.67441 67 6.07371 66.5797 6.07371 66.0753L6.07371 6.08422L33.2688 6.08422L33.2688 8.34348L30.7048 8.34348C29.591 8.34348 28.6873 9.24718 28.6873 10.361L28.6873 12.8094L22.0251 12.8094C19.7028 12.8094 17.8218 14.7009 17.8218 17.0127L17.8218 42.6001C17.8218 49.1466 23.1495 54.4743 29.6961 54.4743L29.7906 54.4743L29.7906 55.8193C29.7906 56.9332 30.6943 57.8369 31.8082 57.8369L33.2793 57.8369L33.2793 57.8789C33.2793 62.9123 37.367 67 42.4004 67L48.5792 67C53.6126 67 57.7003 62.9123 57.7003 57.8789L57.7003 52.5198C57.7003 48.5056 60.9683 45.2376 64.9824 45.2376C65.4868 45.2376 65.9072 44.8278 65.9072 44.3129C65.9072 43.798 65.4763 43.3987 64.9614 43.3987ZM30.5262 10.3505C30.5262 10.256 30.6103 10.1719 30.7048 10.1719L37.6823 10.1719C37.7768 10.1719 37.8609 10.256 37.8609 10.3505L37.8609 12.7989L30.5262 12.7989L30.5262 10.3505ZM22.0251 14.6379L46.3515 14.6379C47.6545 14.6379 48.7158 15.6992 48.7158 17.0022L48.7158 37.8924C47.003 37.0412 45.0485 36.2742 41.6228 36.2742C37.6823 36.2742 35.6857 37.304 33.7522 38.2917C31.9343 39.2269 30.2215 40.1096 26.7223 40.1096C23.223 40.1096 21.5102 39.2269 19.7028 38.2917L19.6502 38.2602L19.6502 17.0022C19.6502 15.6992 20.7221 14.6379 22.0251 14.6379ZM19.6607 42.5896L19.6607 40.3303C21.3736 41.1815 23.3281 41.9486 26.7432 41.9486C30.6943 41.9486 32.6804 40.9188 34.6139 39.931C36.4318 38.9958 38.1341 38.1131 41.6439 38.1131C45.1536 38.1131 46.8559 38.9958 48.6738 39.931L48.7369 39.9625L48.7369 42.5896C48.7369 48.1273 44.2288 52.6248 38.7015 52.6248L29.6961 52.6248C24.1688 52.6248 19.6607 48.1273 19.6607 42.5896ZM31.6296 55.8088L31.6296 54.4638L36.7575 54.4638L36.7575 55.8088C36.7575 55.9034 36.6735 55.9875 36.5789 55.9875L31.7977 55.9875C31.7031 55.9875 31.6296 55.9139 31.6296 55.8088Z" fill="rgb(63,72,87)" fill-rule="nonzero"/>
		<path id="Vector" d="M34.1918 35.1416C37.7645 35.1416 40.6753 32.2308 40.6753 28.658C40.6753 25.3795 35.5158 18.339 34.9273 17.5509C34.5806 17.078 33.7924 17.0886 33.4562 17.5509C32.8677 18.339 27.7083 25.3795 27.7083 28.658C27.7083 32.2308 30.619 35.1416 34.1918 35.1416ZM34.1918 19.6631C36.2303 22.5633 38.8364 26.8611 38.8364 28.658C38.8364 31.222 36.7558 33.3026 34.1918 33.3026C31.6278 33.3026 29.5472 31.222 29.5472 28.658C29.5472 26.8717 32.1532 22.5738 34.1918 19.6631Z" fill="rgb(63,72,87)" fill-rule="nonzero"/>
	</g>
</svg>
