<svg viewBox="0 0 228 40.6853" xmlns="http://www.w3.org/2000/svg" xmlns:xlink="http://www.w3.org/1999/xlink" width="228.000000" height="40.685303" fill="none">
	<rect id="Isolationsmodus" width="228.000000" height="40.685299" x="0.000000" y="0.000000" fill="rgb(255,255,255)" fill-opacity="0"/>
	<g id="Group 653">
		<path id="Vector" d="M47.131 19.2083L42.9478 19.2083L42.2288 21.2731L40.5176 21.2731L44.0968 11.1555L45.995 11.1555L49.5742 21.2731L47.8486 21.2731L47.1296 19.2083L47.131 19.2083ZM46.6708 17.856L45.0459 13.1607L43.4066 17.856L46.6695 17.856L46.6708 17.856ZM52.8645 10.5157L52.8645 21.2731L51.2253 21.2731L51.2253 10.5157L52.8645 10.5157ZM56.9432 10.5157L56.9432 21.2731L55.3039 21.2731L55.3039 10.5157L56.9432 10.5157ZM62.5735 13.1317C63.1866 13.1317 63.7278 13.2572 64.1984 13.5097C64.6782 13.7516 65.0507 14.057 65.32 14.4258L65.32 13.2625L66.9737 13.2625L66.9737 21.4039C66.9737 22.1402 66.8207 22.7946 66.5135 23.3669C66.2063 23.9485 65.7606 24.4033 65.1762 24.7337C64.601 25.0629 63.9108 25.2281 63.1055 25.2281C62.0323 25.2281 61.1407 24.9717 60.4322 24.4575C59.7224 23.9538 59.321 23.2651 59.2243 22.3927L60.8492 22.3927C60.9734 22.8091 61.2375 23.1435 61.6401 23.396C62.0519 23.6577 62.5408 23.7886 63.1068 23.7886C63.7683 23.7886 64.3004 23.585 64.703 23.1779C65.1148 22.7708 65.3213 22.1799 65.3213 21.4039L65.3213 20.0662C65.0429 20.4443 64.6651 20.7642 64.1853 21.0259C63.716 21.2784 63.1787 21.4039 62.5748 21.4039C61.8846 21.4039 61.2519 21.2295 60.6767 20.8805C60.1106 20.5223 59.6609 20.0279 59.325 19.3973C58.9995 18.7575 58.8361 18.0358 58.8361 17.2308C58.8361 16.4258 58.9995 15.7146 59.325 15.0933C59.6609 14.4734 60.1106 13.9935 60.6767 13.6538C61.2519 13.3048 61.8846 13.1303 62.5748 13.1303L62.5735 13.1317ZM65.32 17.2612C65.32 16.7086 65.205 16.2288 64.9749 15.8217C64.754 15.4145 64.4625 15.1039 64.0977 14.8911C63.733 14.6782 63.3408 14.5712 62.9186 14.5712C62.4964 14.5712 62.1042 14.6782 61.7395 14.8911C61.3747 15.0946 61.078 15.4 60.8479 15.8071C60.627 16.205 60.5172 16.6796 60.5172 17.2321C60.5172 17.7846 60.627 18.2685 60.8479 18.6862C61.078 19.1026 61.3747 19.4225 61.7395 19.6458C62.1133 19.8587 62.5055 19.9657 62.9186 19.9657C63.3317 19.9657 63.733 19.8587 64.0977 19.6458C64.4625 19.433 64.754 19.1224 64.9749 18.7152C65.205 18.2989 65.32 17.8137 65.32 17.2612ZM76.6735 17.0722C76.6735 17.3722 76.6539 17.6445 76.616 17.8864L70.5634 17.8864C70.6118 18.5262 70.8457 19.0391 71.268 19.4277C71.6902 19.815 72.2066 20.0094 72.821 20.0094C73.7034 20.0094 74.3256 19.6366 74.6904 18.8897L76.4591 18.8897C76.2198 19.626 75.7832 20.2314 75.1505 20.7073C74.527 21.1726 73.7518 21.4053 72.821 21.4053C72.0641 21.4053 71.383 21.2361 70.7791 20.8963C70.1843 20.5474 69.715 20.0622 69.3699 19.4423C69.0339 18.8117 68.8666 18.086 68.8666 17.2612C68.8666 16.4363 69.03 15.7159 69.3555 15.0946C69.6915 14.4641 70.1555 13.9803 70.7503 13.6406C71.3543 13.3009 72.0445 13.1317 72.821 13.1317C73.5975 13.1317 74.2341 13.2969 74.8198 13.626C75.4041 13.9552 75.8591 14.4205 76.1859 15.0219C76.5114 15.6128 76.6748 16.2962 76.6748 17.0722L76.6735 17.0722ZM74.9623 16.5487C74.9531 15.938 74.7374 15.4489 74.3152 15.0801C73.8929 14.7113 73.3714 14.5276 72.7478 14.5276C72.1818 14.5276 71.6981 14.7113 71.2954 15.0801C70.8928 15.4383 70.6536 15.9287 70.5765 16.5487L74.961 16.5487L74.9623 16.5487ZM88.138 13.1317C88.7616 13.1317 89.3172 13.2625 89.8061 13.5243C90.3042 13.786 90.6924 14.1733 90.9709 14.6875C91.2584 15.2017 91.4022 15.8217 91.4022 16.5487L91.4022 21.2731L89.7773 21.2731L89.7773 16.7959C89.7773 16.0781 89.5995 15.5309 89.2453 15.1528C88.891 14.7655 88.406 14.5712 87.7929 14.5712C87.1798 14.5712 86.6909 14.7655 86.3262 15.1528C85.9719 15.5309 85.7941 16.0781 85.7941 16.7959L85.7941 21.2731L84.1692 21.2731L84.1692 16.7959C84.1692 16.0781 83.9914 15.5309 83.6372 15.1528C83.2829 14.7655 82.7979 14.5712 82.1848 14.5712C81.5717 14.5712 81.0828 14.7655 80.7181 15.1528C80.3638 15.5309 80.1861 16.0781 80.1861 16.7959L80.1861 21.2731L78.5468 21.2731L78.5468 13.2625L80.1861 13.2625L80.1861 14.1786C80.454 13.8494 80.7952 13.5917 81.207 13.4079C81.6188 13.2242 82.0606 13.1317 82.5299 13.1317C83.1627 13.1317 83.7274 13.2678 84.2267 13.5388C84.7248 13.8098 85.1091 14.2024 85.3771 14.7166C85.6164 14.2315 85.9902 13.8494 86.4987 13.5679C87.0073 13.2771 87.5537 13.1317 88.138 13.1317ZM100.962 17.0722C100.962 17.3722 100.943 17.6445 100.905 17.8864L94.8521 17.8864C94.9004 18.5262 95.1344 19.0391 95.5567 19.4277C95.9789 19.815 96.4966 20.0094 97.1097 20.0094C97.9921 20.0094 98.6143 19.6366 98.979 18.8897L100.748 18.8897C100.509 19.626 100.072 20.2314 99.4392 20.7073C98.8156 21.1726 98.0405 21.4053 97.1097 21.4053C96.3528 21.4053 95.6717 21.2361 95.0678 20.8963C94.473 20.5474 94.0037 20.0622 93.6586 19.4423C93.3226 18.8117 93.1553 18.086 93.1553 17.2612C93.1553 16.4363 93.3187 15.7159 93.6442 15.0946C93.9801 14.4641 94.4442 13.9803 95.039 13.6406C95.643 13.3009 96.3332 13.1317 97.1097 13.1317C97.8862 13.1317 98.5228 13.2969 99.1085 13.626C99.6928 13.9552 100.148 14.4205 100.475 15.0219C100.8 15.6128 100.963 16.2962 100.963 17.0722L100.962 17.0722ZM99.2523 16.5487C99.2431 15.938 99.0274 15.4489 98.6052 15.0801C98.1829 14.7113 97.6613 14.5276 97.0378 14.5276C96.4718 14.5276 95.9881 14.7113 95.5854 15.0801C95.1828 15.4383 94.9436 15.9287 94.8665 16.5487L99.251 16.5487L99.2523 16.5487ZM103.697 12.2011C103.4 12.2011 103.15 12.0993 102.949 11.8957C102.748 11.6921 102.647 11.4397 102.647 11.1396C102.647 10.8395 102.748 10.587 102.949 10.3835C103.15 10.1799 103.4 10.0781 103.697 10.0781C103.994 10.0781 104.229 10.1799 104.43 10.3835C104.632 10.587 104.732 10.8395 104.732 11.1396C104.732 11.4397 104.632 11.6921 104.43 11.8957C104.229 12.0993 103.985 12.2011 103.697 12.2011ZM104.502 13.2625L104.502 21.2731L102.863 21.2731L102.863 13.2625L104.502 13.2625ZM110.938 13.1317C111.561 13.1317 112.117 13.2625 112.606 13.5243C113.104 13.786 113.492 14.1733 113.771 14.6875C114.049 15.2017 114.188 15.8217 114.188 16.5487L114.188 21.2731L112.563 21.2731L112.563 16.7959C112.563 16.0781 112.385 15.5309 112.031 15.1528C111.676 14.7655 111.191 14.5712 110.578 14.5712C109.965 14.5712 109.476 14.7655 109.112 15.1528C108.757 15.5309 108.579 16.0781 108.579 16.7959L108.579 21.2731L106.94 21.2731L106.94 13.2625L108.579 13.2625L108.579 14.1786C108.847 13.8494 109.189 13.5917 109.6 13.4079C110.023 13.2242 110.467 13.1317 110.938 13.1317ZM115.754 17.2321C115.754 16.4271 115.917 15.7159 116.243 15.0946C116.579 14.4747 117.028 13.9948 117.594 13.6551C118.169 13.3061 118.802 13.1317 119.492 13.1317C120.116 13.1317 120.657 13.2572 121.117 13.5097C121.587 13.7516 121.96 14.057 122.239 14.4258L122.239 13.2625L123.893 13.2625L123.893 21.2731L122.239 21.2731L122.239 20.0807C121.96 20.4588 121.583 20.7734 121.103 21.0259C120.623 21.2784 120.078 21.4039 119.464 21.4039C118.783 21.4039 118.16 21.2295 117.594 20.8805C117.028 20.5223 116.579 20.0279 116.243 19.3973C115.917 18.7575 115.754 18.0358 115.754 17.2308L115.754 17.2321ZM122.238 17.2612C122.238 16.7086 122.123 16.2288 121.893 15.8217C121.672 15.4145 121.38 15.1039 121.015 14.8911C120.651 14.6782 120.258 14.5712 119.836 14.5712C119.414 14.5712 119.022 14.6782 118.657 14.8911C118.292 15.0946 117.996 15.4 117.766 15.8071C117.545 16.205 117.435 16.6796 117.435 17.2321C117.435 17.7846 117.545 18.2685 117.766 18.6862C117.996 19.1026 118.292 19.4225 118.657 19.6458C119.031 19.8587 119.424 19.9657 119.836 19.9657C120.248 19.9657 120.651 19.8587 121.015 19.6458C121.38 19.433 121.672 19.1224 121.893 18.7152C122.123 18.2989 122.238 17.8137 122.238 17.2612ZM134.48 19.9208L138.798 19.9208L138.798 21.2731L132.582 21.2731L132.582 19.9208L136.914 14.6148L132.582 14.6148L132.582 13.2625L138.798 13.2625L138.798 14.6148L134.48 19.9208ZM142.718 14.6148L142.718 19.0484C142.718 19.3484 142.785 19.5665 142.92 19.7027C143.063 19.8283 143.303 19.8917 143.639 19.8917L144.645 19.8917L144.645 21.2731L143.351 21.2731C142.612 21.2731 142.048 21.0986 141.654 20.7496C141.261 20.4006 141.065 19.8336 141.065 19.0484L141.065 14.6148L140.13 14.6148L140.13 13.2625L141.065 13.2625L141.065 11.2705L142.718 11.2705L142.718 13.2625L144.645 13.2625L144.645 14.6148L142.718 14.6148ZM148.082 14.4403C148.36 14.0715 148.738 13.7622 149.218 13.5097C149.698 13.2572 150.239 13.1317 150.843 13.1317C151.533 13.1317 152.161 13.3061 152.727 13.6551C153.302 13.9948 153.751 14.4734 154.078 15.0946C154.404 15.7146 154.567 16.4271 154.567 17.2321C154.567 18.0371 154.404 18.7589 154.078 19.3987C153.753 20.0292 153.302 20.5223 152.727 20.8818C152.161 21.2308 151.533 21.4053 150.843 21.4053C150.239 21.4053 149.702 21.2837 149.232 21.0417C148.763 20.7893 148.38 20.4799 148.082 20.1111L148.034 25.0827L146.394 25.0827L146.443 13.2638L148.082 13.2638L148.082 14.4416L148.082 14.4403ZM152.898 17.2321C152.898 16.6796 152.783 16.205 152.553 15.8071C152.332 15.4 152.035 15.0946 151.661 14.8911C151.296 14.6782 150.904 14.5712 150.482 14.5712C150.06 14.5712 149.677 14.6782 149.303 14.8911C148.938 15.1039 148.641 15.4145 148.411 15.8217C148.19 16.2288 148.081 16.7086 148.081 17.2612C148.081 17.8137 148.19 18.2975 148.411 18.7152C148.641 19.1224 148.938 19.433 149.303 19.6458C149.677 19.8587 150.069 19.9657 150.482 19.9657C150.895 19.9657 151.296 19.8587 151.661 19.6458C152.035 19.4225 152.332 19.1026 152.553 18.6862C152.783 18.2698 152.898 17.7846 152.898 17.2321ZM158.114 14.4258C158.354 14.0186 158.669 13.704 159.063 13.4806C159.465 13.248 159.94 13.1317 160.486 13.1317L160.486 14.8474L160.069 14.8474C159.428 14.8474 158.939 15.0127 158.603 15.3418C158.277 15.671 158.114 16.2433 158.114 17.0576L158.114 21.2731L156.474 21.2731L156.474 13.2625L158.114 13.2625L158.114 14.4258ZM161.66 17.2321C161.66 16.4271 161.824 15.7159 162.149 15.0946C162.485 14.4747 162.935 13.9948 163.501 13.6551C164.077 13.3061 164.709 13.1317 165.399 13.1317C166.023 13.1317 166.564 13.2572 167.024 13.5097C167.493 13.7516 167.867 14.057 168.144 14.4258L168.144 13.2625L169.798 13.2625L169.798 21.2731L168.144 21.2731L168.144 20.0807C167.867 20.4588 167.488 20.7734 167.01 21.0259C166.53 21.2784 165.985 21.4039 165.37 21.4039C164.691 21.4039 164.068 21.2295 163.501 20.8805C162.936 20.5223 162.485 20.0279 162.149 19.3973C161.824 18.7575 161.66 18.0358 161.66 17.2308L161.66 17.2321ZM168.144 17.2612C168.144 16.7086 168.029 16.2288 167.8 15.8217C167.58 15.4145 167.288 15.1039 166.923 14.8911C166.559 14.6782 166.165 14.5712 165.744 14.5712C165.323 14.5712 164.93 14.6782 164.566 14.8911C164.202 15.0946 163.905 15.4 163.675 15.8071C163.454 16.205 163.344 16.6796 163.344 17.2321C163.344 17.7846 163.454 18.2685 163.675 18.6862C163.905 19.1026 164.202 19.4225 164.566 19.6458C164.939 19.8587 165.332 19.9657 165.744 19.9657C166.156 19.9657 166.559 19.8587 166.923 19.6458C167.288 19.433 167.58 19.1224 167.8 18.7152C168.031 18.2989 168.144 17.8137 168.144 17.2612ZM176.018 17.2176L178.806 21.2731L176.785 21.2731L174.921 18.554L173.167 21.2731L171.303 21.2731L174.091 17.3339L171.303 13.2638L173.324 13.2638L175.188 15.9829L176.942 13.2638L178.806 13.2638L176.018 17.2176ZM180.847 12.2011C180.55 12.2011 180.3 12.0993 180.1 11.8957C179.899 11.6921 179.798 11.4397 179.798 11.1396C179.798 10.8395 179.899 10.587 180.1 10.3835C180.302 10.1799 180.551 10.0781 180.847 10.0781C181.142 10.0781 181.379 10.1799 181.58 10.3835C181.781 10.587 181.881 10.8395 181.881 11.1396C181.881 11.4397 181.78 11.6921 181.58 11.8957C181.379 12.0993 181.134 12.2011 180.847 12.2011ZM181.652 13.2625L181.652 21.2731L180.013 21.2731L180.013 13.2625L181.652 13.2625ZM186.966 21.4039C186.344 21.4039 185.783 21.2929 185.285 21.0695C184.796 20.8369 184.408 20.5262 184.12 20.1389C183.834 19.741 183.68 19.3008 183.66 18.8157L185.357 18.8157C185.386 19.1554 185.544 19.441 185.831 19.6736C186.129 19.897 186.497 20.008 186.937 20.008C187.378 20.008 187.752 19.9208 188.001 19.7463C188.259 19.5626 188.388 19.3299 188.388 19.0484C188.388 18.7483 188.245 18.5249 187.958 18.3795C187.68 18.2341 187.234 18.0741 186.621 17.8997C186.026 17.7344 185.542 17.5745 185.169 17.4198C184.795 17.2652 184.468 17.0272 184.189 16.7073C183.921 16.3874 183.788 15.9658 183.788 15.4423C183.788 15.0153 183.912 14.628 184.161 14.279C184.41 13.9208 184.766 13.6393 185.225 13.4357C185.694 13.2321 186.231 13.1303 186.834 13.1303C187.735 13.1303 188.459 13.363 189.005 13.8283C189.561 14.2843 189.859 14.9083 189.897 15.704L188.258 15.704C188.229 15.3458 188.085 15.0603 187.826 14.8461C187.569 14.6333 187.218 14.5262 186.777 14.5262C186.335 14.5262 186.014 14.6082 185.784 14.7734C185.554 14.9387 185.439 15.1568 185.439 15.4277C185.439 15.6406 185.516 15.8203 185.669 15.9658C185.822 16.1112 186.009 16.2275 186.23 16.3147C186.45 16.3927 186.777 16.4945 187.208 16.6201C187.783 16.7747 188.252 16.9347 188.617 17.0999C188.991 17.2546 189.311 17.4872 189.581 17.7979C189.85 18.1085 189.988 18.5196 189.998 19.0338C189.998 19.4899 189.873 19.897 189.624 20.2552C189.375 20.6135 189.02 20.895 188.56 21.0986C188.109 21.3022 187.578 21.4039 186.963 21.4039L186.966 21.4039Z" fill="rgb(63,72,87)" fill-rule="nonzero"/>
		<path id="Vector" d="M130.147 13.1081C130.652 13.1081 131.039 13.1744 131.418 13.3302L131.024 14.9122C130.677 14.7226 130.172 14.6252 129.77 14.6252C128.72 14.6252 127.971 15.5174 127.971 16.8565L127.971 21.1881L126.368 21.1881L126.368 13.3146L127.955 13.3146L127.955 14.2017C128.452 13.4536 129.225 13.1081 130.147 13.1081Z" fill="rgb(63,72,87)" fill-rule="nonzero"/>
	</g>
	<path id="Vector" d="M43.9915 31.605C44.968 31.605 45.8208 31.7951 46.5498 32.1776C47.288 32.5508 47.8542 33.0932 48.2508 33.8048C48.6543 34.5072 48.8583 35.3301 48.8583 36.2712C48.8583 37.2123 48.6566 38.0306 48.2508 38.7237C47.8542 39.4168 47.288 39.9499 46.5498 40.3231C45.8208 40.6871 44.968 40.8702 43.9915 40.8702L40.9976 40.8702L40.9976 31.6027L43.9915 31.6027L43.9915 31.605ZM43.9915 39.6324C45.0643 39.6324 45.885 39.338 46.4581 38.7515C47.0289 38.165 47.3155 37.3375 47.3155 36.2712C47.3155 35.2049 47.0289 34.3565 46.4581 33.7515C45.8873 33.1465 45.0643 32.8452 43.9915 32.8452L42.5014 32.8452L42.5014 39.6324L43.9915 39.6324ZM51.8499 34.5906C52.07 34.2174 52.3588 33.9277 52.721 33.7237C53.0901 33.5104 53.5257 33.4038 54.0254 33.4038L54.0254 34.9777L53.6426 34.9777C53.0534 34.9777 52.6064 35.1284 52.2969 35.4321C51.9989 35.7334 51.8476 36.2596 51.8476 37.006L51.8476 40.8725L50.3438 40.8725L50.3438 33.5267L51.8476 33.5267L51.8476 34.593L51.8499 34.5906ZM56.0152 40.9652C55.7424 40.9652 55.5132 40.8725 55.3298 40.6847C55.1464 40.497 55.0524 40.2675 55.0524 39.9917C55.0524 39.7158 55.1441 39.484 55.3298 39.2986C55.5155 39.1108 55.7424 39.0181 56.0152 39.0181C56.288 39.0181 56.5035 39.1108 56.6869 39.2986C56.8726 39.4863 56.9643 39.7158 56.9643 39.9917C56.9643 40.2675 56.8726 40.4993 56.6869 40.6847C56.5012 40.8702 56.2789 40.9652 56.0152 40.9652ZM70.8105 33.4038C71.3814 33.4038 71.8926 33.5243 72.3396 33.7631C72.7958 34.0042 73.1534 34.3588 73.4079 34.8294C73.6715 35.3 73.8045 35.8702 73.8045 36.5355L73.8045 40.8679L72.3144 40.8679L72.3144 36.7603C72.3144 36.102 72.1516 35.6013 71.8261 35.2536C71.5006 34.8989 71.0558 34.7204 70.4942 34.7204C69.9325 34.7204 69.4832 34.8989 69.1485 35.2536C68.823 35.6013 68.6602 36.102 68.6602 36.7603L68.6602 40.8679L67.1702 40.8679L67.1702 36.7603C67.1702 36.102 67.0074 35.6013 66.6819 35.2536C66.3564 34.8989 65.9116 34.7204 65.35 34.7204C64.7883 34.7204 64.339 34.8989 64.0043 35.2536C63.6788 35.6013 63.516 36.102 63.516 36.7603L63.516 40.8679L62.0122 40.8679L62.0122 33.522L63.516 33.522L63.516 34.3611C63.7613 34.0598 64.0731 33.8234 64.4514 33.6541C64.8296 33.4849 65.2331 33.4015 65.664 33.4015C66.244 33.4015 66.7621 33.5267 67.2206 33.7747C67.6768 34.0227 68.0298 34.3843 68.2751 34.8549C68.4952 34.4098 68.8368 34.0598 69.3044 33.8025C69.7698 33.5359 70.2718 33.4015 70.8083 33.4015L70.8105 33.4038ZM82.3758 37.0176C82.3758 37.2935 82.3575 37.5415 82.3231 37.764L76.7709 37.764C76.8144 38.3505 77.0299 38.821 77.4173 39.178C77.8047 39.5327 78.2793 39.7112 78.8409 39.7112C79.6501 39.7112 80.2209 39.3681 80.5556 38.6843L82.1787 38.6843C81.9586 39.3588 81.5597 39.9152 80.9797 40.3509C80.4089 40.7775 79.696 40.9907 78.8432 40.9907C78.1486 40.9907 77.5251 40.8354 76.9703 40.5248C76.4247 40.2049 75.9937 39.7598 75.6774 39.1919C75.3702 38.6147 75.2166 37.9471 75.2166 37.1915C75.2166 36.4358 75.3656 35.7728 75.6659 35.2049C75.9731 34.6277 76.3995 34.1827 76.9451 33.872C77.4998 33.5614 78.1326 33.4061 78.8432 33.4061C79.5538 33.4061 80.1407 33.5568 80.6771 33.8605C81.2136 34.1641 81.6308 34.5883 81.9288 35.14C82.2268 35.6824 82.3781 36.3083 82.3781 37.0199L82.3758 37.0176ZM80.8055 36.5378C80.7963 35.9768 80.5992 35.5294 80.2118 35.191C79.8244 34.8526 79.3452 34.6834 78.7744 34.6834C78.2563 34.6834 77.8116 34.8526 77.4425 35.191C77.0735 35.5202 76.8534 35.9699 76.7823 36.5378L80.8032 36.5378L80.8055 36.5378ZM83.3524 37.166C83.3524 36.4288 83.5014 35.7752 83.8017 35.2049C84.1089 34.637 84.5215 34.1966 85.0419 33.886C85.5692 33.5661 86.1537 33.4061 86.7956 33.4061C87.2702 33.4061 87.7355 33.5127 88.194 33.726C88.6594 33.93 89.0284 34.2058 89.3012 34.5535L89.3012 31.007L90.8165 31.007L90.8165 40.8748L89.3012 40.8748L89.3012 39.7691C89.056 40.1238 88.7121 40.4182 88.2719 40.65C87.841 40.8818 87.3435 40.9977 86.7819 40.9977C86.1492 40.9977 85.5692 40.8377 85.0419 40.5178C84.5238 40.1887 84.1112 39.7367 83.8017 39.1572C83.5037 38.5707 83.3524 37.9077 83.3524 37.1706L83.3524 37.166ZM89.3012 37.1915C89.3012 36.6838 89.1958 36.2457 88.9849 35.8725C88.7832 35.4993 88.5149 35.2142 88.1803 35.0195C87.8456 34.8248 87.4856 34.7251 87.0982 34.7251C86.7108 34.7251 86.3509 34.8224 86.0162 35.0195C85.6815 35.2072 85.4087 35.4854 85.1978 35.8586C84.9961 36.2225 84.8952 36.6583 84.8952 37.166C84.8952 37.6736 84.9961 38.1164 85.1978 38.4988C85.4087 38.8813 85.6815 39.1734 86.0162 39.3797C86.3601 39.5744 86.72 39.6741 87.0982 39.6741C87.4765 39.6741 87.8456 39.5767 88.1803 39.3797C88.5149 39.185 88.7832 38.8999 88.9849 38.5267C89.1958 38.1442 89.3012 37.6991 89.3012 37.1938L89.3012 37.1915ZM93.3978 40.9652C93.125 40.9652 92.8958 40.8725 92.7124 40.6847C92.529 40.497 92.435 40.2675 92.435 39.9917C92.435 39.7158 92.5267 39.484 92.7124 39.2986C92.8981 39.1108 93.125 39.0181 93.3978 39.0181C93.6706 39.0181 93.8861 39.1108 94.0695 39.2986C94.2552 39.4863 94.3469 39.7158 94.3469 39.9917C94.3469 40.2675 94.2552 40.4993 94.0695 40.6847C93.8838 40.8725 93.6614 40.9652 93.3978 40.9652ZM104.791 31.605L104.791 32.8452L100.901 32.8452L100.901 35.5781L103.934 35.5781L103.934 36.8183L100.901 36.8183L100.901 40.8725L99.3971 40.8725L99.3971 31.605L104.791 31.605ZM106.79 40.9652C106.517 40.9652 106.288 40.8725 106.105 40.6847C105.919 40.497 105.827 40.2675 105.827 39.9917C105.827 39.7158 105.919 39.484 106.105 39.2986C106.29 39.1108 106.517 39.0181 106.79 39.0181C107.063 39.0181 107.278 39.1108 107.462 39.2986C107.648 39.4863 107.739 39.7158 107.739 39.9917C107.739 40.2675 107.648 40.4993 107.462 40.6847C107.276 40.8725 107.054 40.9652 106.79 40.9652ZM115.809 40.9652C115.194 40.9652 114.639 40.8586 114.147 40.6453C113.654 40.4228 113.269 40.1122 112.987 39.7112C112.705 39.3102 112.565 38.8442 112.565 38.3111L114.174 38.3111C114.208 38.7121 114.362 39.0389 114.635 39.2986C114.917 39.5559 115.307 39.6857 115.809 39.6857C116.311 39.6857 116.732 39.5605 117.021 39.3125C117.312 39.0552 117.457 38.726 117.457 38.325C117.457 38.0144 117.365 37.7594 117.179 37.5647C117.003 37.37 116.778 37.217 116.508 37.1103C116.244 37.0037 115.875 36.8878 115.401 36.7626C114.802 36.6027 114.314 36.4427 113.938 36.2828C113.569 36.1136 113.252 35.8563 112.989 35.5086C112.725 35.1609 112.592 34.6996 112.592 34.1224C112.592 33.5892 112.725 33.1233 112.989 32.7223C113.252 32.3213 113.622 32.0153 114.096 31.802C114.571 31.5888 115.121 31.4822 115.744 31.4822C116.632 31.4822 117.358 31.7093 117.92 32.1613C118.491 32.6064 118.807 33.2184 118.869 34.0019L117.207 34.0019C117.179 33.6634 117.021 33.376 116.732 33.1349C116.441 32.8938 116.061 32.7756 115.586 32.7756C115.155 32.7756 114.804 32.8869 114.532 33.1094C114.259 33.3319 114.124 33.6518 114.124 34.0691C114.124 34.3542 114.206 34.5883 114.373 34.7761C114.55 34.9546 114.77 35.096 115.034 35.2026C115.297 35.3092 115.657 35.4251 116.116 35.5503C116.723 35.7195 117.214 35.8887 117.592 36.0579C117.979 36.2272 118.305 36.4891 118.569 36.8438C118.841 37.1915 118.977 37.6574 118.977 38.2439C118.977 38.7144 118.848 39.1595 118.594 39.5767C118.349 39.994 117.982 40.3324 117.5 40.5897C117.026 40.8377 116.464 40.9629 115.813 40.9629L115.809 40.9652ZM120.247 37.1915C120.247 36.4358 120.396 35.7728 120.696 35.2049C121.003 34.6277 121.425 34.1827 121.961 33.872C122.498 33.5614 123.112 33.4061 123.807 33.4061C124.687 33.4061 125.412 33.6194 125.982 34.0459C126.562 34.4631 126.954 35.0635 127.156 35.847L125.533 35.847C125.4 35.4831 125.189 35.198 124.9 34.994C124.609 34.79 124.245 34.688 123.807 34.688C123.192 34.688 122.7 34.9105 122.33 35.3556C121.971 35.7914 121.789 36.4033 121.789 37.1961C121.789 37.9889 121.971 38.6055 122.33 39.0505C122.7 39.4956 123.192 39.7181 123.807 39.7181C124.678 39.7181 125.253 39.331 125.535 38.5591L127.158 38.5591C126.947 39.3055 126.551 39.9012 125.971 40.3463C125.391 40.7821 124.669 41 123.809 41C123.115 41 122.5 40.8447 121.964 40.5341C121.427 40.2142 121.005 39.7691 120.698 39.2012C120.4 38.624 120.249 37.9564 120.249 37.2007L120.247 37.1915ZM132.413 33.4038C132.967 33.4038 133.458 33.5243 133.889 33.7631C134.329 34.0042 134.671 34.3588 134.918 34.8294C135.173 35.3 135.301 35.8702 135.301 36.5355L135.301 40.8679L133.811 40.8679L133.811 36.7603C133.811 36.102 133.648 35.6013 133.323 35.2536C132.997 34.8989 132.552 34.7204 131.991 34.7204C131.429 34.7204 130.98 34.8989 130.645 35.2536C130.32 35.6013 130.157 36.102 130.157 36.7603L130.157 40.8679L128.653 40.8679L128.653 31L130.157 31L130.157 34.3727C130.411 34.0621 130.732 33.821 131.12 33.6518C131.516 33.4826 131.945 33.3992 132.413 33.3992L132.413 33.4038ZM143.877 37.0176C143.877 37.2935 143.859 37.5415 143.824 37.764L138.272 37.764C138.316 38.3505 138.531 38.821 138.918 39.178C139.306 39.5327 139.78 39.7112 140.342 39.7112C141.151 39.7112 141.722 39.3681 142.057 38.6843L143.68 38.6843C143.46 39.3588 143.061 39.9152 142.481 40.3509C141.91 40.7775 141.197 40.9907 140.344 40.9907C139.65 40.9907 139.026 40.8354 138.471 40.5248C137.926 40.2049 137.495 39.7598 137.179 39.1919C136.871 38.6147 136.718 37.9471 136.718 37.1915C136.718 36.4358 136.867 35.7728 137.167 35.2049C137.474 34.6277 137.901 34.1827 138.446 33.872C139.001 33.5614 139.634 33.4061 140.344 33.4061C141.055 33.4061 141.642 33.5568 142.178 33.8605C142.715 34.1641 143.132 34.5883 143.43 35.14C143.728 35.6824 143.879 36.3083 143.879 37.0199L143.877 37.0176ZM142.309 36.5378C142.3 35.9768 142.103 35.5294 141.715 35.191C141.328 34.8526 140.849 34.6834 140.278 34.6834C139.76 34.6834 139.315 34.8526 138.946 35.191C138.577 35.5202 138.357 35.9699 138.286 36.5378L142.307 36.5378L142.309 36.5378ZM152.015 37.0176C152.015 37.2935 151.997 37.5415 151.962 37.764L146.41 37.764C146.454 38.3505 146.669 38.821 147.057 39.178C147.444 39.535 147.919 39.7112 148.48 39.7112C149.289 39.7112 149.86 39.3681 150.195 38.6843L151.818 38.6843C151.598 39.3588 151.199 39.9152 150.619 40.3509C150.048 40.7775 149.335 40.9907 148.482 40.9907C147.788 40.9907 147.164 40.8354 146.61 40.5248C146.064 40.2049 145.633 39.7598 145.317 39.1919C145.009 38.6147 144.856 37.9471 144.856 37.1915C144.856 36.4358 145.005 35.7728 145.305 35.2049C145.612 34.6277 146.039 34.1827 146.584 33.872C147.139 33.5614 147.772 33.4061 148.482 33.4061C149.193 33.4061 149.78 33.5568 150.316 33.8605C150.853 34.1641 151.27 34.5883 151.568 35.14C151.866 35.6824 152.017 36.3083 152.017 37.0199L152.015 37.0176ZM150.447 36.5378C150.438 35.9768 150.241 35.5294 149.853 35.191C149.466 34.8526 148.987 34.6834 148.416 34.6834C147.898 34.6834 147.453 34.8526 147.084 35.191C146.715 35.5202 146.495 35.9699 146.424 36.5378L150.445 36.5378L150.447 36.5378ZM154.998 31.0046L154.998 40.8725L153.494 40.8725L153.494 31.0046L154.998 31.0046Z" fill="rgb(132,139,159)" fill-rule="nonzero"/>
	<g id="Group">
		<path id="Vector" d="M21.6254 27.6106C20.4958 27.0319 19.9268 26.1317 20.358 24.8578C20.7712 23.6364 21.9894 23.1412 22.978 22.51C23.7257 22.0329 24.4963 21.0705 23.5191 20.4032C24.0044 19.9834 24.0978 19.8818 24.534 19.3637C24.6127 19.3883 24.693 19.3998 24.7635 19.4408C25.7817 20.0376 25.8686 20.9721 25.4226 21.9788C25.0849 22.7395 24.5225 23.1658 23.6732 23.7249C22.9485 24.202 21.6189 24.7004 21.4779 25.3267C21.409 25.635 21.5156 25.976 21.6287 26.2236C21.6303 26.6859 21.6238 27.1483 21.6271 27.6106L21.6254 27.6106Z" fill="rgb(63,72,87)" fill-rule="nonzero"/>
		<path id="Vector" d="M21.7705 31.7466C21.2951 31.2941 21.2213 30.6334 21.6508 30.0907C22.1607 29.4447 23.2461 29.2693 23.0707 28.2396C23.0002 27.8297 23.0051 27.4822 23.0002 26.7968C23.0002 26.7591 22.9903 26.7198 23.0543 26.7444C23.1543 26.7837 23.5822 27.1493 23.6658 27.2477C24.3135 27.9921 24.1971 29.0266 23.5576 29.7316C22.9608 30.3924 21.6689 30.7088 21.7705 31.7466Z" fill="rgb(63,72,87)" fill-rule="nonzero"/>
		<path id="Vector" d="M22.8205 24.5478L22.7746 28.5548C22.691 29.0385 22.3549 29.2926 21.9647 29.5172C21.9565 29.3565 21.9434 29.0975 21.9384 28.9368C21.9089 27.9449 21.8794 26.7398 21.8876 25.702C21.8909 25.1708 21.9647 25.0724 22.4893 24.7691C22.5336 24.7445 22.8008 24.5232 22.8222 24.5478L22.8205 24.5478Z" fill="rgb(63,72,87)" fill-rule="nonzero"/>
		<path id="Vector" d="M22.7444 33.998C22.7379 34.034 22.4444 34.5488 22.4034 34.5898C22.3739 34.6193 22.3706 34.6407 22.3165 34.6275C22.264 34.4324 22.1148 34.2291 22.0591 34.0422C21.9968 33.8324 22.0017 32.7913 22.0017 32.1256C22.0017 31.8862 21.9951 31.6977 22.0017 31.5895C22.0132 31.4124 22.1804 31.1599 22.1804 31.1599C22.1804 31.1599 22.651 30.7041 22.7657 30.6697C22.7821 30.6648 22.7444 30.7205 22.7444 30.7238L22.7444 33.9996L22.7444 33.998Z" fill="rgb(63,72,87)" fill-rule="nonzero"/>
		<path id="Vector" d="M28.1009 15.7826C28.0812 15.9236 27.8812 15.9827 27.7566 15.9712C27.7927 16.0991 27.8828 16.1515 27.8828 16.2991C27.8828 16.5007 27.7681 16.281 27.7222 16.2401C27.4746 16.0253 27.145 15.9122 26.8581 15.7564C26.0662 16.1679 25.0858 16.2483 24.2365 15.9613C23.3774 15.6711 22.9708 15.0924 21.9379 15.1826C20.8443 15.2776 20.2934 16.6303 21.0377 17.4845L20.9443 17.9239C20.6377 18.2583 20.5541 18.3485 20.1885 18.6158C18.9916 17.7714 18.9539 15.9351 19.9294 14.8678C20.864 13.8447 22.6117 13.6807 23.9151 13.7676C24.6333 13.8152 24.9448 14.048 25.5498 14.33C25.9842 14.5317 26.6155 14.7464 27.0024 14.9793C27.2975 15.158 27.1008 15.2842 27.0811 15.558C27.0991 15.5924 27.4336 15.7777 27.4598 15.7777L28.1025 15.7777L28.1009 15.7826ZM24.2053 14.3743C23.8217 14.4595 24.3791 14.8874 24.6169 14.9202C24.8071 14.9465 25.4202 14.9399 25.1153 14.6645C24.9349 14.5005 24.4431 14.3218 24.2037 14.3743L24.2053 14.3743Z" fill="rgb(63,72,87)" fill-rule="nonzero"/>
		<path id="Vector" d="M22.9818 20.7485L22.9818 22.0077C22.9818 22.0077 22.8113 22.2339 22.7359 22.288C22.5228 22.4389 21.8784 22.8209 21.8784 22.8209L21.8784 21.6486L22.9818 20.7501L22.9818 20.7485Z" fill="rgb(63,72,87)" fill-rule="nonzero"/>
		<path id="Vector" d="M23.144 20.3683C22.2603 20.8471 21.8652 21.3045 21.0766 21.9341C19.8813 22.8867 18.9599 24.2393 17.5991 24.9967C17.0318 25.3132 16.4563 25.4952 15.8169 25.6149C15.6808 25.8067 15.6333 26.0444 15.5349 26.2526C15.0348 27.3167 14.2511 28.7005 13.3723 29.4793C12.9215 29.8777 12.3788 30.199 11.9295 30.6024L11.9427 30.6761C13.1772 32.3583 13.8822 33.7437 12.8182 35.7325C12.6395 36.0653 12.1033 36.6998 12.0164 36.9687C11.8525 37.4737 12.3083 38.1951 12.5313 38.6394C13.0002 38.7525 13.4773 38.6935 13.915 38.9312C14.5184 39.2608 14.6299 39.8969 14.6856 40.5249C14.6741 40.5413 14.643 40.5429 14.6364 40.5429L10.8917 40.5429L9.09641 37.6048C8.95541 37.3048 8.73899 37.0015 8.78162 36.6539C8.81113 36.4145 8.9882 36.2407 9.08657 36.0374C9.59319 34.9898 9.05378 34.0667 8.46191 33.2092C7.86183 34.2897 7.11256 35.3029 6.19606 36.1358C5.58779 36.69 5.18446 36.7129 5.12543 37.6622C5.11724 37.8016 5.11068 38.6951 5.16478 38.7279C5.64189 38.7345 6.14359 38.7706 6.56332 39.0214C7.11256 39.351 7.14207 39.9592 7.16503 40.5413L2.59726 40.5413C2.58414 40.2625 2.61365 39.9789 2.59726 39.7018C2.52348 38.3262 1.86438 37.0572 2.00538 35.6587C2.04801 35.2357 2.68251 34.5553 2.90877 34.1306C3.5777 32.8748 3.63017 31.8238 3.58098 30.4286L3.52852 30.3499C2.4333 29.94 1.46433 28.7759 1.19873 27.5872C0.764246 25.6493 2.15294 22.6784 2.73498 20.7716C3.16946 19.3469 3.61869 17.2024 2.83171 15.8251C2.75465 15.6891 2.68251 15.5235 2.52348 15.5595C1.8529 15.7087 1.66436 15.9038 0.942956 15.5792C0.793758 15.512 0.144498 15.1726 0.0543231 15.0873C0.0313694 15.0644 -0.00306101 15.0562 0.000218079 15.0103C0.00349717 14.966 0.0248113 14.9299 0.0526835 14.8955C0.149417 14.7725 0.757688 14.4151 0.921642 14.3512C2.09064 13.8954 3.31374 14.7971 3.7515 15.8579C4.73194 18.2336 3.14814 22.2144 2.50544 24.6196C2.26279 25.528 1.88897 26.9052 2.46281 27.7348C2.75629 28.1611 3.19077 28.7874 3.66296 28.9644L3.8925 28.3726C4.59914 27.0396 6.12392 25.9608 6.69284 24.536C6.96664 23.8507 7.13552 23.1162 7.41588 22.4325L7.42408 22.0292L7.06338 22.1931L6.80105 20.1224L6.08785 20.4454C6.03538 20.4716 6.02718 20.3945 6.02227 20.3601C6.00423 20.265 5.98456 20.106 5.97964 20.0076C5.92881 19.1518 6.01407 18.2631 6.17802 17.4253L5.22545 17.886C5.17462 16.5482 5.4763 15.1792 6.21081 14.0544C6.21901 13.9872 6.20753 14.0118 6.16327 14.0052C6.0567 13.9905 5.8829 14.0003 5.76814 14.0052C5.71895 14.0069 5.49269 14.0921 5.5222 13.9888C5.57795 13.7954 5.86979 13.3297 5.99275 13.1445C6.58955 12.2476 7.48638 11.5197 8.44387 11.0442C8.45371 10.9983 8.45043 11.0016 8.42256 10.977C8.37665 10.9327 7.95529 10.6671 8.01595 10.5851C8.26188 10.5114 8.51273 10.4474 8.76522 10.3982C10.0129 10.1507 12.6575 10.0769 13.7412 10.7753C14.1806 11.0573 14.4135 11.3279 14.3577 11.8542C14.8955 11.9771 15.589 12.0591 16.0005 12.4755C16.0923 12.569 16.1989 12.7936 16.2825 12.851C16.517 13.0133 17.1663 13.2347 17.4778 13.397C17.6794 13.5019 18.432 13.7413 18.5172 13.8905C18.6238 14.0741 18.4648 14.6348 18.3484 14.7775C18.3139 14.8201 18.2418 14.8316 18.2205 14.8824C18.1631 15.025 18.2024 15.4775 18.1073 15.6595C17.9467 15.9678 17.4384 16.0153 17.1367 15.994C16.7285 15.9661 15.8054 15.266 15.8677 15.9956C15.9186 16.5974 16.5088 16.6154 16.9466 16.6072C17.0695 16.6056 17.6073 16.6236 17.6073 16.6236C17.7532 16.8531 17.4827 17.5991 17.3007 17.7893C16.7842 18.3254 15.1676 17.7254 14.5577 17.4286C14.3413 18.2008 15.4415 18.5386 15.9251 19.0468C15.9448 19.1223 15.9054 19.1091 15.8841 19.1354C15.648 19.4108 15.6316 19.3206 15.5431 19.5305C15.5251 19.6059 15.5579 19.5846 15.5841 19.6059C15.9399 19.8879 17.1613 20.4109 17.5958 20.388C17.7942 20.3781 18.6845 19.9207 18.914 19.7994C19.6485 19.4092 20.565 18.796 21.1126 18.1795C21.2635 18.009 21.3143 17.7057 21.4422 17.5385C21.4717 17.4991 21.8553 17.3302 21.8553 17.3171L21.8553 15.4841C22.2718 15.4038 22.6489 15.4415 23.0096 15.6809L23.0276 17.2581C23.6834 17.3188 23.8523 17.3056 24.2114 18.1516C24.4704 18.6189 24.4426 18.6386 24.4311 18.9042C24.4278 18.9993 24.354 19.2255 24.354 19.2255L23.1473 20.365L23.144 20.3683ZM14.2839 13.4544C14.5413 13.7396 15.125 13.9151 15.4201 13.5872C15.2955 13.0527 14.52 12.8117 14.1757 13.2609C14.1692 13.3084 14.2479 13.415 14.2839 13.4544Z" fill="rgb(63,72,87)" fill-rule="nonzero"/>
		<path id="Vector" d="M26.3564 38.812C26.0843 38.5873 25.5432 38.5824 25.3629 38.9202C25.2432 39.1448 25.5613 39.0464 25.7252 39.0464C26.2122 39.0464 26.2778 39.7727 25.6596 39.8219C25.2317 39.8563 24.9546 39.5383 24.6907 39.253C24.6907 39.253 24.6907 39.253 24.689 39.2514L24.6923 39.2514C24.6923 39.2514 23.8988 38.2168 23.061 37.138C23.8939 36.1952 24.8858 35.1525 25.2202 34.8508C25.3498 34.9164 25.7154 35.1935 25.7974 35.264C26.2794 35.687 26.9549 36.187 27.432 36.615C27.1664 35.3591 26.3925 33.9737 25.2809 33.2473C25.0186 33.2391 23.7332 34.5393 23.4971 34.7967C23.2462 35.0689 22.7609 35.6771 22.3494 36.2067L22.3445 36.2018L22.3412 36.2067C22.3412 36.2067 22.3396 36.2084 22.3379 36.21C21.8133 35.5411 21.3608 34.9754 21.1952 34.7967C20.9591 34.5409 19.6737 33.2391 19.4113 33.2473C18.2997 33.9753 17.5259 35.3591 17.2603 36.615C17.7374 36.1854 18.4129 35.687 18.8949 35.264C18.9752 35.1935 19.3425 34.9164 19.472 34.8508C19.8376 35.1787 20.8263 36.1903 21.6428 37.1216C21.6329 37.1347 21.628 37.1413 21.628 37.1413L21.6395 37.1544C21.0722 37.9151 20.3196 38.9071 19.9999 39.2514C19.736 39.5366 19.4589 39.8531 19.031 39.8203C18.4129 39.7711 18.4784 39.0448 18.9654 39.0448C19.1293 39.0448 19.4474 39.1415 19.3277 38.9185C19.1457 38.5808 18.6047 38.5857 18.3342 38.8103C17.9046 39.1661 17.9718 39.935 18.4325 40.2531C19.1162 40.7253 19.9032 40.4072 20.4934 39.9793C21.0328 39.5891 21.9297 38.4972 22.3478 37.9709C22.7658 38.4972 23.6627 39.5875 24.2021 39.9793C24.7923 40.4056 25.5793 40.7253 26.263 40.2531C26.7237 39.935 26.7909 39.1661 26.3614 38.8103L26.3564 38.812Z" fill="rgb(63,72,87)" fill-rule="nonzero"/>
		<path id="Vector" d="M30.3059 5.63743C30.2468 5.57677 30.1567 5.58824 30.0812 5.56365C29.2303 5.28165 28.2663 4.857 27.5432 5.71449C27.3678 5.92271 26.9563 6.72445 27.4498 6.75888C27.6334 6.77199 28.1171 6.47524 28.3302 6.39326C28.5319 6.31456 28.9172 6.1752 29.127 6.21783C29.1713 6.22602 29.209 6.25554 29.2221 6.29816C28.6958 6.45556 28.2072 6.88184 27.681 7.01628C27.5777 7.04252 27.458 7.04252 27.3547 7.06875C26.9858 7.15893 26.3644 7.53274 26.0119 7.72785C25.6446 7.93115 25.2971 8.1738 24.92 8.35579C24.8904 8.32628 25.0396 7.96066 25.0692 7.89672C25.2069 7.59996 25.4823 7.07859 25.6266 6.84085C25.7266 6.6769 26.1299 6.66542 26.3168 6.57361C27.5104 5.98665 26.6349 4.69797 26.789 3.74047C26.8103 3.61095 26.9546 3.41748 26.7726 3.39781C25.7643 3.27976 23.9657 5.32591 25.1069 6.20307C25.3282 6.37358 25.3921 6.308 25.5348 6.11617C25.7725 5.79974 25.943 5.33247 26.1086 4.97013C26.1562 4.96849 26.166 4.95702 26.1627 5.00948C26.1529 5.1554 26.1168 5.35215 26.0791 5.49479C25.9545 5.98009 25.5331 6.3703 25.2823 6.79331C24.5281 8.0574 24.4396 8.97226 22.9164 10.0494C22.8902 10.0675 22.7164 10.2183 22.7 10.1986C22.7672 9.86909 22.5754 9.14605 22.7066 8.86405C22.759 8.75092 23.1017 8.72961 23.2345 8.68862C24.1838 8.39842 24.5527 7.25238 24.6904 6.69493C24.2379 6.51131 23.5214 6.70641 23.1214 7.05399C22.9722 7.18352 22.7967 7.4852 22.6721 7.63111L22.6721 6.20471C22.6721 6.0178 23.082 6.16864 23.2247 6.15388C23.5067 6.12437 23.792 6.13421 23.9723 5.91779C24.3248 5.49315 24.2609 4.8898 24.5937 4.45368C24.0674 4.25037 23.4558 4.16676 23.0427 4.57992C22.9509 4.67174 22.7279 4.99801 22.7279 4.99801C22.7574 4.87012 22.7262 4.54057 22.8787 4.35694C23.1542 4.02576 23.6378 3.91919 23.8969 3.5011C24.7101 2.18947 23.4132 0.686003 22.3032 0.0744532C21.9491 -0.120653 22.0753 0.105605 22.018 0.37449C21.8802 1.01555 21.2195 1.44019 21.0523 2.08945C20.8441 2.89775 21.1031 3.46175 21.7835 3.89951C21.8934 3.97001 22.259 4.12577 22.2901 4.23234C22.3082 4.81602 22.2278 5.39641 22.1606 5.97353L21.7261 5.58004C21.4064 5.24558 21.6278 5.05047 21.5851 4.66518C21.5113 4.01264 20.5768 3.48471 19.9816 3.42568C19.8095 3.40765 19.6144 3.4388 19.4406 3.42568L19.4029 3.48962C19.8931 4.03395 19.6488 4.84061 20.1046 5.38986C20.2309 5.54233 20.485 5.71777 20.6817 5.76039C20.8211 5.78991 21.0293 5.78007 21.1015 5.75875C21.3818 5.67678 21.0687 5.19475 20.8736 4.8652C20.7899 4.7242 20.6457 4.60943 20.6194 4.45696C20.7358 4.34383 21.1211 4.89963 21.1703 5.00128C21.3294 5.32919 21.2785 5.58496 21.513 5.90467C21.754 6.23422 21.8638 6.18504 22.0475 6.56541C22.1196 6.71461 22.1163 7.4688 22.1131 7.64587C21.9212 7.01792 20.8375 6.34079 20.1325 6.63755L20.1063 6.69002C20.326 7.43765 20.3342 8.16397 21.1244 8.5427C21.2752 8.61484 21.9491 8.77224 21.9753 8.80831C22.1344 9.02309 21.9409 9.95599 22.0278 10.2527C22.018 10.2659 21.8229 10.1085 21.7966 10.0904C20.5866 9.28541 19.6472 7.66227 18.688 6.53754C18.3454 6.13585 18.124 5.62431 18.1716 5.07834C18.3634 5.38166 18.6585 6.34735 19.0242 6.449C19.1717 6.48999 19.3422 6.30144 19.4144 6.18668C20.0521 5.16688 18.5782 3.80114 17.6715 3.54865C17.6076 3.53061 17.3354 3.44372 17.319 3.52242C17.7289 4.47663 16.678 5.6112 17.4535 6.44736C17.6092 6.61624 17.8535 6.74576 18.0765 6.79987C18.2454 6.84085 18.4274 6.8097 18.5651 6.93267C18.7602 7.10646 19.3176 8.01477 19.4849 8.28857C19.5045 8.31972 19.6078 8.47548 19.5914 8.49187C19.1012 8.22463 18.6274 7.92131 18.1306 7.66554C17.824 7.50815 17.4371 7.30648 17.1206 7.1868C16.8731 7.09334 16.6288 7.08187 16.391 6.99497C16.1845 6.91955 15.9598 6.77855 15.7483 6.69002C15.4844 6.58017 15.2122 6.48671 14.9384 6.40474C14.8532 6.29653 15.2893 6.32276 15.327 6.32768C15.4647 6.34243 15.6418 6.40473 15.7762 6.44736C16.0222 6.52606 16.3894 6.73756 16.6157 6.77363C16.9764 6.83102 16.8354 6.28997 16.7649 6.10798C16.4107 5.20295 15.4073 5.22098 14.6482 5.46692C14.5597 5.49643 13.6842 5.68989 13.653 5.71613C13.6137 5.75056 13.594 6.01124 13.5923 6.08338C13.5825 7.22615 14.799 8.38203 15.9943 7.77375C16.1369 7.70161 16.2845 7.58685 16.4124 7.48847C16.4517 7.45732 16.5042 7.38026 16.5353 7.36715C16.6124 7.33272 17.0583 7.55242 17.1666 7.6016C17.9388 7.95738 18.7225 8.40498 19.4029 8.9116L17.9617 8.9739C17.8453 8.94767 17.783 8.74928 17.7109 8.65747C17.4518 8.32956 17.0108 8.23447 16.6173 8.34268C16.296 8.43121 15.9139 8.71321 15.6565 8.91324C15.4139 9.10179 15.1925 9.24934 14.9433 9.45265C14.8253 9.54938 14.7515 9.55922 14.922 9.74121C15.327 10.3511 16.7796 11.3529 17.6928 10.8791C18.0683 10.6839 18.37 10.0281 18.1978 9.63464C18.0995 9.40838 17.3272 9.54282 17.1288 9.58217C16.9305 9.62152 16.7042 9.6871 16.3976 9.64939C16.3812 9.57889 16.4124 9.58381 16.4484 9.57889C16.655 9.55102 16.8764 9.49036 17.1108 9.40182C17.601 9.21491 18.2159 9.27066 18.688 9.30181C19.3373 9.34608 20.0456 9.46085 20.5145 9.95107C20.3702 9.97894 20.2243 9.98222 20.0817 10.0183C19.898 10.0642 19.7275 10.2019 19.5685 10.2364C19.2668 10.3019 19.175 10.2429 18.9045 10.4659C18.3946 10.8856 18.5175 11.5627 18.388 12.1464C18.9291 12.335 19.939 12.1431 20.2391 11.6119C20.3899 11.3447 20.567 10.5643 20.0685 10.6003C19.8784 10.6134 19.4242 11.0512 19.3226 11.225L19.2684 11.2119C19.6701 10.0691 20.9867 9.96419 21.5786 11.0446C21.8245 11.4939 21.8261 12.0841 21.8491 12.5924C21.8655 12.9482 21.8475 13.2269 21.8573 13.5728L21.8573 13.6236L21.8917 13.6155C22.2655 13.5187 22.5213 13.4908 22.9164 13.4925L22.9164 13.3253C22.9427 12.7055 22.9164 11.4857 23.0919 11.0873C23.4378 10.3052 24.5691 10.0888 24.9839 10.9889C25.0118 11.0496 25.0692 11.1561 25.0478 11.2234C24.8117 11.0217 24.4658 10.379 24.1461 10.8348C24.0051 11.0364 24.0428 11.3709 24.1461 11.5841C24.451 12.2136 25.3905 12.1415 25.9758 12.2464L26.0365 12.212C25.7758 11.5988 25.9824 10.8922 25.3594 10.4528C25.1429 10.3003 24.9806 10.3446 24.7576 10.2954C24.6445 10.2708 24.4724 10.1462 24.3264 10.1035C24.2412 10.079 24.1477 10.0757 24.0608 10.0576C24.31 9.7822 24.633 9.44281 24.9954 9.32804C25.3561 9.21327 26.2611 9.2018 26.6251 9.29197C26.9186 9.36411 27.1661 9.51823 27.4153 9.67891L27.4022 9.73301C27.0874 9.60841 26.2611 9.33132 25.9709 9.51987C25.784 9.6412 25.8873 10.1281 25.9529 10.3167C26.1726 10.9397 26.6907 11.1004 27.294 10.925C27.6301 10.8282 27.917 10.6003 28.2368 10.4593C28.4319 10.3724 28.6499 10.4151 28.6335 10.1527C28.6057 9.71334 28.1236 8.81487 27.776 8.54434C27.3252 8.19184 26.689 8.18036 26.3054 8.63452C26.2414 8.70994 26.1381 8.93455 26.0758 8.94767C25.7348 8.90832 25.3889 8.91816 25.0478 8.89356C25.0085 8.89028 24.9691 8.91488 24.9806 8.85421C25.5233 8.42793 26.1414 8.05576 26.748 7.72457C26.9104 7.63603 27.312 7.39174 27.4629 7.35567C27.5645 7.33108 27.6006 7.4524 27.6859 7.52618C28.4089 8.15577 29.6074 8.01641 30.0075 7.08679C30.0714 6.93759 30.2567 6.43097 30.2878 6.28505C30.3108 6.17848 30.355 5.70301 30.3141 5.63251L30.3059 5.63743ZM21.9261 8.36891C21.8015 8.22299 21.6868 8.05904 21.5491 7.92623C21.3458 7.72785 21.1031 7.59832 20.8998 7.4065C20.9293 7.36387 20.9375 7.36879 20.9818 7.37371C21.3376 7.41797 21.9983 7.91475 21.9261 8.36891ZM22.6787 8.28365C22.7066 8.11478 22.8 7.91639 22.9148 7.78851C23.005 7.68686 23.5329 7.30157 23.646 7.3819C23.6821 7.40978 23.6821 7.44257 23.6591 7.47864C23.6296 7.52618 23.1476 7.86065 23.0492 7.95247C22.923 8.06887 22.7623 8.21315 22.6967 8.37219C22.6475 8.37875 22.6721 8.31316 22.6771 8.28529L22.6787 8.28365ZM23.5083 5.0767C23.5772 5.05047 23.669 4.99801 23.7231 5.0767L22.723 5.75711C22.8033 5.37674 23.146 5.21606 23.5083 5.0767ZM22.5361 1.41888C22.9574 2.03535 23.1771 2.97973 22.6853 3.61259L22.6443 2.37965C22.6148 2.0583 22.4672 1.75499 22.482 1.432L22.5361 1.41888Z" fill="rgb(63,72,87)" fill-rule="nonzero"/>
	</g>
</svg>
