<svg width="228" height="40" viewBox="0 0 228 40" fill="none" xmlns="http://www.w3.org/2000/svg">
<g clip-path="url(#clip0_46_1591)">
<path d="M51.7169 19.8133H46.6842L45.8202 22.2801H43.7627L48.0693 10.1904H50.3529L54.6595 22.2801H52.5847L51.7207 19.8133H51.7169ZM51.1632 18.1989L49.2092 12.588L47.2379 18.1989H51.1632Z" fill="white"/>
<path d="M58.9105 9.42676V22.2803H56.9392V9.42676H58.9105Z" fill="white"/>
<path d="M64.0812 9.42676V22.2803H62.1099V9.42676H64.0812Z" fill="white"/>
<path d="M72.8896 12.9962C73.4605 13.2926 73.9069 13.6601 74.2306 14.0988V12.7095H76.2192V22.4363C76.2192 23.3157 76.0353 24.1007 75.6655 24.7896C75.2958 25.4784 74.7632 26.0191 74.0659 26.4136C73.3686 26.8061 72.5352 27.0043 71.5678 27.0043C70.2765 27.0043 69.2037 26.7003 68.3512 26.0923C67.4987 25.4842 67.014 24.6587 66.8991 23.6178H68.8531C69.0026 24.1161 69.3225 24.5183 69.8129 24.8242C70.3034 25.1302 70.8877 25.2841 71.5678 25.2841C72.3628 25.2841 73.0065 25.0417 73.4969 24.5548C73.9874 24.068 74.2326 23.3618 74.2326 22.4363V20.8392C73.8973 21.2914 73.4452 21.6705 72.8743 21.9764C72.3034 22.2824 71.6559 22.4363 70.9279 22.4363C70.0984 22.4363 69.3397 22.2246 68.6539 21.8032C67.9681 21.3799 67.4259 20.7892 67.0274 20.0311C66.629 19.2729 66.4316 18.4128 66.4316 17.4507C66.4316 16.4886 66.6309 15.6382 67.0274 14.8973C67.4259 14.1565 67.9662 13.5812 68.6539 13.1694C69.3397 12.7576 70.0984 12.5518 70.9279 12.5518C71.6655 12.5518 72.3207 12.6999 72.8915 12.9943L72.8896 12.9962ZM73.8245 15.7671C73.5544 15.2803 73.2 14.9108 72.7613 14.6549C72.3226 14.4009 71.8513 14.272 71.3436 14.272C70.8359 14.272 70.3628 14.3971 69.926 14.6453C69.4873 14.8935 69.1328 15.2591 68.8627 15.7401C68.5907 16.2212 68.4566 16.7907 68.4566 17.4507C68.4566 18.1107 68.5926 18.6899 68.8627 19.1883C69.1328 19.6866 69.4911 20.0657 69.9355 20.3255C70.38 20.5852 70.8494 20.7161 71.3455 20.7161C71.8417 20.7161 72.3245 20.5891 72.7632 20.3332C73.2019 20.0792 73.5563 19.7059 73.8264 19.2133C74.0965 18.7207 74.2326 18.1454 74.2326 17.4854C74.2326 16.8254 74.0965 16.252 73.8264 15.7651L73.8245 15.7671Z" fill="white"/>
<path d="M87.8899 18.2339H80.61C80.6675 18.9978 80.9491 19.6116 81.4568 20.0753C81.9645 20.5391 82.5871 20.77 83.3246 20.77C84.386 20.77 85.135 20.3235 85.5718 19.4326H87.6983C87.4109 20.312 86.8879 21.0336 86.1331 21.5954C85.3783 22.1573 84.4415 22.4382 83.3227 22.4382C82.4127 22.4382 81.5966 22.2323 80.8763 21.8206C80.156 21.4107 79.5908 20.8296 79.1809 20.083C78.7709 19.3364 78.5659 18.4706 78.5659 17.4854C78.5659 16.5002 78.7652 15.6362 79.1617 14.8877C79.5583 14.1392 80.1196 13.5639 80.8399 13.1598C81.5602 12.7538 82.3878 12.5518 83.3208 12.5518C84.2538 12.5518 85.022 12.748 85.7251 13.1425C86.4281 13.5369 86.9761 14.0892 87.3688 14.8011C87.7596 15.5131 87.9569 16.3328 87.9569 17.2583C87.9569 17.6181 87.9339 17.9414 87.8879 18.23L87.8899 18.2339ZM85.9013 16.6349C85.8898 15.9056 85.6293 15.3207 85.1235 14.88C84.6159 14.4394 83.9875 14.22 83.2384 14.22C82.5583 14.22 81.976 14.4375 81.4913 14.8704C81.0066 15.3033 80.7192 15.8921 80.6273 16.633H85.9013V16.6349Z" fill="white"/>
<path d="M104.053 12.9598C104.647 13.2715 105.115 13.7352 105.454 14.349C105.793 14.9628 105.963 15.7037 105.963 16.5715V22.217H104.009V16.8678C104.009 16.0115 103.797 15.3535 103.369 14.8955C102.942 14.4375 102.36 14.2086 101.622 14.2086C100.885 14.2086 100.298 14.4375 99.8674 14.8955C99.4344 15.3535 99.2179 16.0096 99.2179 16.8678V22.217H97.2639V16.8678C97.2639 16.0115 97.0512 15.3535 96.624 14.8955C96.1968 14.4375 95.6144 14.2086 94.8768 14.2086C94.1393 14.2086 93.553 14.4375 93.122 14.8955C92.689 15.3535 92.4745 16.0096 92.4745 16.8678V22.217H90.5032V12.6461H92.4745V13.741C92.7963 13.3485 93.2063 13.0406 93.7025 12.8212C94.1987 12.6019 94.7293 12.4922 95.2925 12.4922C96.0531 12.4922 96.7332 12.6538 97.3328 12.979C97.9324 13.3042 98.3941 13.7718 98.716 14.3856C99.0033 13.8064 99.4535 13.3465 100.065 13.004C100.676 12.6634 101.333 12.4922 102.036 12.4922C102.785 12.4922 103.457 12.648 104.051 12.9617L104.053 12.9598Z" fill="white"/>
<path d="M117.548 18.2339H110.268C110.325 18.9978 110.607 19.6116 111.114 20.0753C111.622 20.5391 112.245 20.77 112.982 20.77C114.044 20.77 114.793 20.3235 115.23 19.4326H117.356C117.069 20.312 116.546 21.0336 115.791 21.5954C115.036 22.1573 114.099 22.4382 112.98 22.4382C112.07 22.4382 111.254 22.2323 110.534 21.8206C109.814 21.4107 109.249 20.8296 108.839 20.083C108.429 19.3364 108.224 18.4706 108.224 17.4854C108.224 16.5002 108.423 15.6362 108.819 14.8877C109.216 14.1392 109.777 13.5639 110.498 13.1598C111.218 12.7538 112.046 12.5518 112.979 12.5518C113.911 12.5518 114.68 12.748 115.383 13.1425C116.086 13.5369 116.634 14.0892 117.026 14.8011C117.417 15.5131 117.615 16.3328 117.615 17.2583C117.615 17.6181 117.592 17.9414 117.546 18.23L117.548 18.2339ZM115.559 16.6349C115.548 15.9056 115.287 15.3207 114.781 14.88C114.274 14.4394 113.645 14.22 112.896 14.22C112.216 14.22 111.634 14.4375 111.149 14.8704C110.664 15.3033 110.377 15.8921 110.285 16.633H115.559V16.6349Z" fill="white"/>
<path d="M120.262 11.0894C120.021 10.847 119.898 10.5449 119.898 10.187C119.898 9.82909 120.019 9.52699 120.262 9.28454C120.504 9.04209 120.804 8.91895 121.161 8.91895C121.517 8.91895 121.801 9.04017 122.042 9.28454C122.283 9.52699 122.406 9.82909 122.406 10.187C122.406 10.5449 122.285 10.847 122.042 11.0894C121.801 11.3319 121.505 11.455 121.161 11.455C120.816 11.455 120.504 11.3338 120.262 11.0894ZM122.13 12.7211V22.292H120.159V12.7211H122.13Z" fill="white"/>
<path d="M132.151 13.0232C132.745 13.335 133.209 13.7987 133.544 14.4125C133.877 15.0263 134.046 15.7671 134.046 16.6349V22.2805H132.092V16.9313C132.092 16.075 131.879 15.4169 131.452 14.959C131.025 14.501 130.443 14.272 129.705 14.272C128.967 14.272 128.381 14.501 127.95 14.959C127.517 15.4169 127.303 16.0731 127.303 16.9313V22.2805H125.331V12.7096H127.303V13.8045C127.624 13.4119 128.038 13.1041 128.538 12.8847C129.04 12.6653 129.573 12.5557 130.138 12.5557C130.887 12.5557 131.559 12.7115 132.153 13.0252L132.151 13.0232Z" fill="white"/>
<path d="M136.715 14.8973C137.113 14.1565 137.653 13.5812 138.341 13.1694C139.027 12.7576 139.786 12.5518 140.615 12.5518C141.364 12.5518 142.019 12.6999 142.579 12.9943C143.138 13.2906 143.585 13.6582 143.92 14.0969V12.7076H145.908V22.2785H143.92V20.8546C143.585 21.3068 143.131 21.682 142.554 21.9841C141.977 22.2843 141.32 22.4363 140.583 22.4363C139.765 22.4363 139.016 22.2246 138.334 21.8032C137.653 21.3799 137.115 20.7892 136.717 20.0311C136.318 19.2729 136.121 18.4128 136.121 17.4507C136.121 16.4886 136.32 15.6382 136.717 14.8973H136.715ZM143.51 15.7671C143.24 15.2803 142.885 14.9108 142.447 14.6549C142.008 14.4009 141.537 14.272 141.029 14.272C140.521 14.272 140.048 14.3971 139.611 14.6453C139.173 14.8935 138.818 15.2591 138.548 15.7401C138.276 16.2212 138.142 16.7907 138.142 17.4507C138.142 18.1107 138.278 18.6899 138.548 19.1883C138.818 19.6866 139.176 20.0657 139.621 20.3255C140.065 20.5852 140.535 20.7161 141.031 20.7161C141.527 20.7161 142.01 20.5891 142.449 20.3332C142.887 20.0792 143.242 19.7059 143.512 19.2133C143.782 18.7207 143.918 18.1454 143.918 17.4854C143.918 16.8254 143.782 16.252 143.512 15.7651L143.51 15.7671Z" fill="white"/>
<path d="M169.44 14.3257V19.623C169.44 19.9828 169.524 20.2406 169.691 20.3965C169.857 20.5523 170.143 20.6312 170.547 20.6312H171.758V22.2822H170.202C169.315 22.2822 168.635 22.0744 168.162 21.6568C167.689 21.2393 167.453 20.562 167.453 19.6249V14.3276H166.328V12.7113H167.453V10.3311H169.441V12.7113H171.76V14.3276H169.441L169.44 14.3257Z" fill="white"/>
<path d="M177.516 13.0039C178.093 12.7038 178.744 12.5518 179.47 12.5518C180.3 12.5518 181.059 12.7576 181.744 13.1694C182.43 13.5812 182.969 14.1565 183.361 14.8973C183.754 15.6382 183.95 16.4906 183.95 17.4507C183.95 18.4109 183.754 19.271 183.361 20.0311C182.969 20.7892 182.43 21.3799 181.744 21.8032C181.059 22.2266 180.3 22.4363 179.47 22.4363C178.744 22.4363 178.099 22.2881 177.534 21.9937C176.969 21.6974 176.507 21.3318 176.151 20.8912V26.8311H174.179V12.7095H176.151V14.1161C176.484 13.6755 176.94 13.306 177.516 13.0039ZM181.538 15.7401C181.266 15.2591 180.909 14.8954 180.465 14.6453C180.02 14.3971 179.545 14.272 179.038 14.272C178.53 14.272 178.072 14.399 177.628 14.6549C177.183 14.9089 176.827 15.2803 176.555 15.7671C176.283 16.2539 176.149 16.8273 176.149 17.4873C176.149 18.1473 176.285 18.7226 176.555 19.2152C176.825 19.7078 177.183 20.0811 177.628 20.3351C178.072 20.5891 178.541 20.718 179.038 20.718C179.534 20.718 180.02 20.5872 180.465 20.3274C180.909 20.0676 181.266 19.6866 181.538 19.1902C181.808 18.6918 181.944 18.1127 181.944 17.4527C181.944 16.7927 181.808 16.2231 181.538 15.7421V15.7401Z" fill="white"/>
<path d="M193.626 14.8973C194.024 14.1565 194.565 13.5812 195.252 13.1694C195.938 12.7576 196.697 12.5518 197.526 12.5518C198.275 12.5518 198.931 12.6999 199.49 12.9943C200.049 13.2906 200.496 13.6582 200.831 14.0969V12.7076H202.82V22.2785H200.831V20.8546C200.496 21.3068 200.042 21.682 199.465 21.9841C198.888 22.2843 198.231 22.4363 197.494 22.4363C196.676 22.4363 195.927 22.2246 195.245 21.8032C194.565 21.3799 194.026 20.7892 193.628 20.0311C193.229 19.2729 193.032 18.4128 193.032 17.4507C193.032 16.4886 193.231 15.6382 193.628 14.8973H193.626ZM200.421 15.7671C200.151 15.2803 199.796 14.9108 199.358 14.6549C198.919 14.4009 198.448 14.272 197.94 14.272C197.432 14.272 196.959 14.3971 196.522 14.6453C196.084 14.8935 195.729 15.2591 195.459 15.7401C195.187 16.2212 195.053 16.7907 195.053 17.4507C195.053 18.1107 195.189 18.6899 195.459 19.1883C195.729 19.6866 196.088 20.0657 196.532 20.3255C196.976 20.5852 197.446 20.7161 197.942 20.7161C198.438 20.7161 198.921 20.5891 199.36 20.3332C199.798 20.0792 200.153 19.7059 200.423 19.2133C200.693 18.7207 200.829 18.1454 200.829 17.4854C200.829 16.8254 200.693 16.252 200.423 15.7651L200.421 15.7671Z" fill="white"/>
<path d="M210.289 17.4329L213.368 22.2799H211.138L209.08 19.0319L207.143 22.2799H205.086L208.165 17.5733L205.086 12.709H207.318L209.375 15.957L211.312 12.709H213.37L210.291 17.4329H210.289Z" fill="white"/>
<path d="M215.546 11.0758C215.304 10.8333 215.182 10.5312 215.182 10.1733C215.182 9.81541 215.303 9.51332 215.546 9.27087C215.787 9.02842 216.088 8.90527 216.444 8.90527C216.801 8.90527 217.084 9.0265 217.326 9.27087C217.567 9.51332 217.69 9.81541 217.69 10.1733C217.69 10.5312 217.569 10.8333 217.326 11.0758C217.084 11.3182 216.789 11.4414 216.444 11.4414C216.1 11.4414 215.787 11.3201 215.546 11.0758ZM217.414 12.7094V22.2803H215.442V12.7094H217.414Z" fill="white"/>
<path d="M221.552 22.0284C220.958 21.7571 220.489 21.3857 220.142 20.9162C219.795 20.4467 219.611 19.9233 219.588 19.3441H221.628C221.663 19.7501 221.856 20.0888 222.207 20.3601C222.558 20.6314 223 20.768 223.531 20.768C224.061 20.768 224.514 20.6603 224.818 20.4467C225.123 20.2331 225.276 19.958 225.276 19.6212C225.276 19.2633 225.105 18.9959 224.766 18.8227C224.425 18.6495 223.887 18.4571 223.15 18.2493C222.435 18.053 221.853 17.8625 221.402 17.6759C220.952 17.4911 220.563 17.2064 220.236 16.8254C219.908 16.4425 219.743 15.9402 219.743 15.3149C219.743 14.805 219.893 14.3393 220.194 13.916C220.492 13.4927 220.923 13.1598 221.483 12.9174C222.042 12.6749 222.684 12.5518 223.41 12.5518C224.494 12.5518 225.366 12.8269 226.031 13.3772C226.694 13.9276 227.048 14.678 227.094 15.6266H225.123C225.088 15.1975 224.916 14.8569 224.604 14.601C224.293 14.347 223.872 14.2181 223.341 14.2181C222.81 14.2181 222.423 14.3162 222.148 14.5125C221.872 14.7088 221.732 14.9705 221.732 15.2937C221.732 15.5477 221.824 15.7632 222.008 15.9364C222.192 16.1096 222.418 16.2462 222.682 16.3443C222.946 16.4425 223.339 16.5675 223.858 16.7176C224.55 16.9023 225.117 17.0909 225.561 17.2814C226.006 17.4719 226.389 17.7528 226.711 18.1242C227.033 18.4956 227.201 18.9862 227.213 19.6001C227.213 20.1446 227.063 20.6314 226.763 21.0586C226.462 21.4877 226.038 21.8225 225.492 22.0669C224.945 22.3093 224.303 22.4325 223.563 22.4325C222.824 22.4325 222.142 22.2958 221.548 22.0245L221.552 22.0284Z" fill="white"/>
<path d="M159.05 20.6597H164.244V22.2741H156.769V20.6597L161.978 14.3195H156.769V12.7051H164.244V14.3195L159.05 20.6597Z" fill="white"/>
<path d="M190.769 12.4531C191.407 12.4531 191.894 12.5339 192.373 12.7225L191.875 14.6467C191.436 14.4158 190.8 14.2965 190.292 14.2965C188.969 14.2965 188.022 15.3817 188.022 17.0115V22.2818H185.999V12.7013H188.001V13.7808C188.628 12.8706 189.605 12.4512 190.769 12.4512V12.4531Z" fill="white"/>
<path d="M153.52 12.4492C154.158 12.4492 154.644 12.53 155.123 12.7186L154.625 14.6428C154.186 14.4119 153.55 14.2926 153.043 14.2926C151.719 14.2926 150.773 15.3778 150.773 17.0076V22.2779H148.75V12.6974H150.751V13.7769C151.378 12.8667 152.355 12.4473 153.52 12.4473V12.4492Z" fill="white"/>
<path d="M22.107 27.1894C20.9997 26.6179 20.4403 25.7328 20.8637 24.4782C21.2679 23.2756 22.4614 22.7869 23.4327 22.1673C24.1664 21.6978 24.9212 20.7511 23.9614 20.093C24.4365 19.6793 24.5285 19.5792 24.9557 19.0693C25.0323 19.0924 25.1128 19.104 25.1817 19.1444C26.1799 19.7332 26.2661 20.6529 25.8274 21.6439C25.4959 22.3943 24.9442 22.8119 24.1128 23.3641C23.402 23.8336 22.0993 24.3243 21.9614 24.942C21.8943 25.246 21.9978 25.5808 22.1089 25.8252C22.1089 26.2812 22.1051 26.7353 22.1089 27.1913L22.107 27.1894Z" fill="white"/>
<path d="M22.2468 31.2608C21.7793 30.8144 21.7085 30.164 22.1299 29.6291C22.6299 28.9922 23.6951 28.8209 23.5208 27.8069C23.4518 27.4028 23.4556 27.0603 23.4518 26.3869C23.4518 26.3503 23.4422 26.3099 23.5035 26.3349C23.6012 26.3734 24.0208 26.7332 24.1032 26.8294C24.7373 27.5625 24.6242 28.5804 23.9978 29.2751C23.4116 29.9254 22.1472 30.2371 22.2449 31.2589L22.2468 31.2608Z" fill="white"/>
<path d="M23.2737 24.172L23.2296 28.1165C23.1473 28.5918 22.8178 28.8439 22.4346 29.0652C22.4269 28.9074 22.4135 28.6515 22.4097 28.4937C22.381 27.5162 22.3522 26.329 22.3599 25.3091C22.3637 24.7858 22.4365 24.6896 22.9499 24.3913C22.9921 24.3663 23.2546 24.1489 23.2756 24.1739L23.2737 24.172Z" fill="white"/>
<path d="M23.2027 33.4735C23.2027 33.4735 22.9001 33.9815 22.8522 34.0623H22.8311C22.764 33.9642 22.4843 33.4735 22.4843 33.4735C22.4843 33.4735 22.4824 31.2126 22.4901 31.1067C22.5016 30.9316 22.5744 30.77 22.6491 30.6834C22.7717 30.5391 23.0897 30.2524 23.2008 30.2178V33.4735H23.2027Z" fill="white"/>
<path d="M28.4519 15.5421C28.4327 15.6806 28.2373 15.7383 28.1147 15.7287C28.1511 15.8538 28.2392 15.9057 28.2392 16.052C28.2392 16.2502 28.1262 16.0347 28.0802 15.9943C27.8369 15.7826 27.5131 15.671 27.2334 15.519C26.4576 15.9231 25.4959 16.0039 24.6625 15.721C23.8196 15.4362 23.4211 14.8648 22.4096 14.9552C21.3387 15.0495 20.7965 16.381 21.5283 17.2219L21.4364 17.6548C21.1356 17.9839 21.0552 18.0743 20.6969 18.336C19.5245 17.5047 19.4862 15.696 20.4421 14.6454C21.3578 13.639 23.0705 13.4755 24.3502 13.5621C25.0552 13.6102 25.3598 13.8392 25.9518 14.1162C26.3771 14.3144 26.9978 14.5261 27.3752 14.757C27.6645 14.934 27.471 15.0572 27.4518 15.3266C27.4691 15.3612 27.7986 15.544 27.8235 15.544H28.4538L28.4519 15.5421ZM24.6338 14.1547C24.2564 14.2375 24.8043 14.6608 25.038 14.6916C25.2257 14.7166 25.8254 14.7108 25.5265 14.4395C25.3483 14.2779 24.8675 14.1028 24.6338 14.1547Z" fill="white"/>
<path d="M23.4347 20.4316V21.6708C23.4347 21.6708 23.268 21.8921 23.1933 21.946C22.9845 22.0941 22.3523 22.4713 22.3523 22.4713V21.3168L23.4347 20.4316Z" fill="white"/>
<path d="M23.5917 20.0563C22.7258 20.5277 22.3369 20.9799 21.5648 21.5976C20.3924 22.5366 19.4881 23.8681 18.1548 24.6128C17.5973 24.9245 17.0341 25.1034 16.4076 25.2208C16.2754 25.4094 16.2275 25.6422 16.1317 25.85C15.6413 26.8968 14.8731 28.261 14.011 29.0269C13.5685 29.4194 13.0378 29.735 12.5972 30.1333L12.6106 30.2064C13.8214 31.8631 14.511 33.2254 13.4689 35.1862C13.2945 35.5152 12.7677 36.1387 12.6834 36.4042C12.5225 36.9026 12.9708 37.6126 13.1872 38.0494C13.647 38.161 14.1145 38.1033 14.5436 38.338C15.1356 38.6632 15.2448 39.2885 15.3003 39.9062C15.3022 39.9235 15.2831 39.9255 15.2524 39.9255H11.5799L9.81936 37.0334C9.68143 36.739 9.46878 36.4388 9.51092 36.0982C9.53966 35.8616 9.71399 35.6922 9.80978 35.4921C10.306 34.4608 9.77721 33.5506 9.19674 32.7059C8.60861 33.77 7.87296 34.7686 6.97447 35.5883C6.37676 36.1329 5.98403 36.1579 5.92464 37.0911C5.91698 37.2277 5.91123 38.1071 5.96296 38.1417C6.4304 38.1494 6.92275 38.1841 7.33272 38.4304C7.87104 38.7555 7.89978 39.354 7.92277 39.9255H3.44567C3.43417 39.6522 3.46099 39.3713 3.44567 39.0981C3.37287 37.7434 2.72726 36.4927 2.86519 35.1169C2.90734 34.7013 3.52996 34.0297 3.75219 33.6122C4.40737 32.3749 4.4591 31.3397 4.4112 29.9659L4.35948 29.887C3.28474 29.4829 2.33645 28.3361 2.07591 27.1662C1.64869 25.2574 3.01079 22.3326 3.5836 20.4546C4.01081 19.0519 4.44952 16.941 3.67747 15.5826C3.60084 15.4479 3.53187 15.2862 3.37478 15.3209C2.71768 15.4671 2.53377 15.6595 1.82494 15.3401C1.67935 15.2747 1.0414 14.9399 0.955193 14.8552C0.932204 14.8341 0.897721 14.8244 0.903468 14.7802C0.9073 14.7359 0.928373 14.7013 0.953278 14.6667C1.04715 14.5454 1.64486 14.1933 1.80579 14.1317C2.9514 13.6834 4.15258 14.5704 4.5817 15.6153C5.54341 17.9532 3.99165 21.8747 3.35946 24.2433C3.1219 25.1381 2.75408 26.4927 3.31731 27.3105C3.60659 27.73 4.02997 28.3476 4.49358 28.5208L4.71772 27.9378C5.41122 26.6255 6.90551 25.5633 7.46299 24.1587C7.73119 23.4852 7.89786 22.7598 8.17182 22.0863L8.17948 21.6899L7.82507 21.8516L7.56644 19.8119L6.86719 20.1294C6.81547 20.1544 6.8078 20.0794 6.80206 20.0467C6.78481 19.9524 6.76566 19.7965 6.75991 19.7003C6.7101 18.8575 6.79248 17.982 6.95532 17.1566L6.02235 17.6107C5.97254 16.2945 6.26948 14.9457 6.98788 13.8373C6.99555 13.7719 6.98597 13.795 6.93999 13.7892C6.83462 13.7758 6.66412 13.7854 6.55301 13.7892C6.50512 13.7911 6.28289 13.8739 6.31162 13.7738C6.36718 13.5833 6.65263 13.1254 6.77332 12.9426C7.35954 12.0594 8.23695 11.3417 9.17758 10.8741C9.18716 10.8279 9.18333 10.8317 9.15651 10.8067C9.11053 10.7625 8.69865 10.5027 8.75803 10.4219C8.99942 10.3488 9.24463 10.2872 9.49368 10.2372C10.7159 9.99473 13.3099 9.91968 14.3731 10.6085C14.8041 10.8875 15.0321 11.1531 14.9766 11.6707C15.5034 11.7919 16.1854 11.8727 16.5858 12.2826C16.6758 12.373 16.7812 12.5962 16.8616 12.652C17.0915 12.8117 17.7295 13.0311 18.0341 13.1889C18.2314 13.2928 18.969 13.5295 19.0533 13.6738C19.1567 13.8546 19.0015 14.4069 18.8885 14.5474C18.854 14.5897 18.7851 14.5993 18.764 14.6493C18.7065 14.7898 18.7467 15.2343 18.6529 15.4152C18.4939 15.7173 17.9958 15.7654 17.7007 15.7442C17.3004 15.7173 16.3961 15.0265 16.4555 15.7461C16.5053 16.3388 17.0839 16.3561 17.513 16.3484C17.6337 16.3465 18.1605 16.3638 18.1605 16.3638C18.3042 16.5908 18.0398 17.324 17.8598 17.5106C17.3521 18.0378 15.7697 17.449 15.17 17.1546C14.9574 17.9147 16.036 18.2476 16.5092 18.7479C16.5283 18.8229 16.49 18.8094 16.4689 18.8344C16.2371 19.1058 16.2199 19.0172 16.1356 19.2251C16.1164 19.3001 16.1509 19.2789 16.1758 19.2982C16.5245 19.5753 17.7218 20.0909 18.149 20.0678C18.3425 20.0582 19.2161 19.608 19.4422 19.4887C20.1625 19.1058 21.061 18.4996 21.5974 17.8935C21.7449 17.7261 21.7947 17.4259 21.9211 17.2624C21.9518 17.2239 22.3254 17.0565 22.3254 17.0449V15.2401C22.7334 15.1612 23.1032 15.1977 23.4576 15.4344L23.4748 16.9872C24.1166 17.0469 24.2833 17.0334 24.6338 17.8666C24.8886 18.3265 24.8599 18.3457 24.8503 18.6074C24.8465 18.7017 24.7756 18.9249 24.7756 18.9249L23.5917 20.0467V20.0563ZM14.9038 13.2485C15.1566 13.5295 15.7294 13.7026 16.0187 13.3794C15.8961 12.8541 15.1356 12.6155 14.7984 13.058C14.7907 13.1042 14.8693 13.21 14.9038 13.2485Z" fill="white"/>
<path d="M26.7794 38.2643C26.5131 38.043 25.9825 38.0392 25.8043 38.3702C25.6874 38.5914 25.9997 38.4952 26.1606 38.4952C26.6377 38.4952 26.7028 39.211 26.0974 39.2591C25.6779 39.2918 25.4077 38.9801 25.1472 38.6992C25.1472 38.6992 25.1472 38.6992 25.1472 38.6973H25.1491C25.1491 38.6973 24.3713 37.6794 23.5495 36.6172C24.3675 35.6898 25.3388 34.6623 25.6664 34.3659C25.7947 34.4313 26.153 34.7027 26.2315 34.7719C26.7028 35.1876 27.3656 35.6801 27.835 36.1035C27.5745 34.8662 26.8158 33.5039 25.7258 32.7862C25.4671 32.7785 24.2085 34.06 23.9767 34.312C23.7295 34.5795 22.8445 35.709 22.8445 35.709C22.3291 35.049 21.8828 34.4891 21.7218 34.312C21.49 34.06 20.2295 32.7785 19.9728 32.7862C18.8827 33.502 18.1241 34.8643 17.8635 36.1035C18.3329 35.6821 18.9938 35.1895 19.4651 34.7719C19.5436 34.7027 19.9038 34.4294 20.0302 34.3659C20.3885 34.6892 21.3578 35.684 22.1586 36.6018C22.1663 36.6095 22.1682 36.6153 22.1682 36.6153L22.1548 36.6345C21.5992 37.383 20.8598 38.3605 20.5475 38.6992C20.2889 38.9801 20.0187 39.2918 19.5973 39.2591C18.9919 39.211 19.0551 38.4952 19.5341 38.4952C19.695 38.4952 20.0072 38.5914 19.8904 38.3702C19.7122 38.0373 19.1816 38.043 18.9153 38.2643C18.4938 38.6145 18.5609 39.3707 19.0111 39.6844C19.6816 40.15 20.4536 39.8364 21.0303 39.415C21.559 39.0302 22.4383 37.9545 22.8483 37.4369C23.2583 37.9545 24.1376 39.0302 24.6663 39.415C25.2449 39.8345 26.0169 40.15 26.6855 39.6844C27.1377 39.3707 27.2028 38.6145 26.7813 38.2643H26.7794Z" fill="white"/>
<path d="M30.6149 5.55154C30.5575 5.49189 30.4693 5.50343 30.3946 5.47842C29.5613 5.20133 28.6149 4.78379 27.9061 5.62658C27.7336 5.83247 27.3313 6.62138 27.8141 6.65602C27.9942 6.66949 28.4693 6.37701 28.6762 6.2962C28.8735 6.21923 29.2509 6.08069 29.4578 6.12302C29.5 6.13072 29.5383 6.15958 29.5517 6.20191C29.0344 6.35777 28.5574 6.77532 28.0402 6.91001C27.9386 6.93695 27.8218 6.93695 27.7202 6.96197C27.3582 7.05048 26.7489 7.418 26.4041 7.61234C26.0439 7.81246 25.7029 8.05105 25.3351 8.23C25.3064 8.20114 25.452 7.83939 25.4826 7.77782C25.6167 7.48534 25.8869 6.97351 26.0286 6.73876C26.1263 6.57713 26.5229 6.56558 26.7049 6.47515C27.8754 5.89597 27.0172 4.62793 27.1666 3.68507C27.1877 3.55808 27.3294 3.36758 27.1513 3.34642C26.1627 3.23097 24.4002 5.24559 25.5171 6.10955C25.7355 6.27695 25.7968 6.21346 25.9367 6.02489C26.1704 5.71317 26.3371 5.25329 26.4999 4.89539C26.5459 4.89346 26.5555 4.88192 26.5516 4.9358C26.542 5.08011 26.5056 5.27253 26.4692 5.41492C26.3466 5.89212 25.9348 6.27695 25.6876 6.69258C24.9481 7.93753 24.8619 8.83805 23.3676 9.89827C23.3408 9.91559 23.1722 10.0638 23.155 10.0445C23.2201 9.71933 23.0324 9.00738 23.1607 8.73029C23.2125 8.61869 23.5477 8.59752 23.678 8.55712C24.6091 8.27234 24.9711 7.14284 25.1052 6.59445C24.6627 6.41357 23.9577 6.60599 23.5669 6.94657C23.4213 7.07357 23.2489 7.37182 23.1263 7.51421V6.10955C23.1263 5.92483 23.5286 6.07491 23.6684 6.05952C23.9443 6.03066 24.224 6.04028 24.4002 5.82669C24.747 5.40915 24.6838 4.81457 25.0094 4.38548C24.4922 4.18536 23.8945 4.10455 23.4883 4.51055C23.3983 4.60099 23.178 4.92233 23.178 4.92233C23.2067 4.79726 23.1761 4.47207 23.3255 4.29119C23.5956 3.96408 24.0688 3.86018 24.3236 3.4484C25.1225 2.15727 23.8485 0.675646 22.7604 0.0733758C22.4136 -0.119043 22.5381 0.104163 22.4807 0.367776C22.3446 0.99891 21.6971 1.41646 21.5343 2.05721C21.3312 2.85383 21.5841 3.40799 22.2508 3.84093C22.3581 3.9102 22.7163 4.06414 22.7469 4.16805C22.7642 4.74338 22.6856 5.31486 22.6186 5.8825L22.1914 5.49573C21.8791 5.1667 22.0956 4.97428 22.0515 4.59522C21.9787 3.95254 21.063 3.43301 20.4806 3.37336C20.312 3.35604 20.1205 3.3849 19.95 3.37336L19.9136 3.43685C20.3944 3.97178 20.1549 4.76839 20.6013 5.30716C20.7258 5.45725 20.9749 5.63043 21.1665 5.67084C21.3044 5.6997 21.5075 5.69008 21.5783 5.66891C21.8542 5.5881 21.5477 5.11475 21.3542 4.78956C21.2718 4.65102 21.1301 4.53749 21.1052 4.3874C21.2182 4.2758 21.5975 4.82227 21.6454 4.92425C21.8006 5.24751 21.7508 5.49958 21.9806 5.81323C22.2182 6.13841 22.3255 6.09031 22.5056 6.4636C22.5764 6.60984 22.5726 7.35257 22.5688 7.52768C22.381 6.91001 21.3178 6.24232 20.6281 6.5348L20.6032 6.58675C20.8178 7.32179 20.8274 8.03759 21.6013 8.4128C21.7508 8.484 22.4098 8.63986 22.4347 8.67449C22.5899 8.88615 22.4002 9.80591 22.4845 10.0965C22.4749 10.1099 22.2833 9.95408 22.2584 9.93676C21.0707 9.14399 20.1511 7.54499 19.2105 6.43859C18.8733 6.0422 18.6568 5.53999 18.7028 5.00122C18.8905 5.29947 19.1798 6.25002 19.5381 6.35007C19.6837 6.39048 19.8503 6.20384 19.9212 6.09223C20.5458 5.08781 19.1013 3.7428 18.2124 3.49458C18.1492 3.47726 17.8829 3.3926 17.8675 3.46764C18.2679 4.40665 17.2392 5.5246 17.9997 6.34815C18.153 6.51363 18.3925 6.64255 18.6108 6.6945C18.7775 6.73491 18.9557 6.70412 19.0898 6.82535C19.2794 6.9966 19.8273 7.89135 19.9921 8.16073C20.0113 8.19152 20.1128 8.34546 20.0975 8.36085C19.6166 8.09724 19.1511 7.79899 18.6664 7.54692C18.3656 7.39106 17.9863 7.19287 17.676 7.07549C17.4327 6.98313 17.1932 6.97159 16.9614 6.88692C16.7602 6.8138 16.538 6.67334 16.3311 6.58675C16.0725 6.47899 15.8062 6.38663 15.5361 6.30582C15.4518 6.19806 15.879 6.225 15.9173 6.22885C16.0514 6.24424 16.2257 6.30389 16.3579 6.34622C16.5993 6.42319 16.9576 6.63293 17.1817 6.66756C17.5361 6.72529 17.3963 6.19037 17.3273 6.01142C16.9805 5.12052 15.9959 5.13784 15.2506 5.38028C15.1644 5.40915 14.3042 5.59964 14.2755 5.62658C14.2372 5.66121 14.2161 5.91713 14.2161 5.98833C14.2065 7.11398 15.3981 8.25117 16.5706 7.65275C16.7104 7.58155 16.856 7.46803 16.9805 7.37182C17.0189 7.34103 17.0706 7.26599 17.1012 7.25252C17.176 7.21788 17.6127 7.43531 17.72 7.48342C18.4767 7.83362 19.245 8.27426 19.9116 8.77262L18.4978 8.8342C18.3848 8.80918 18.3235 8.61292 18.2507 8.52248C17.9959 8.19922 17.5629 8.10493 17.1779 8.21269C16.8637 8.3012 16.4882 8.57636 16.2353 8.77455C15.9978 8.96119 15.7794 9.10551 15.5361 9.30562C15.4211 9.39991 15.3483 9.41146 15.515 9.5904C15.9135 10.1908 17.3369 11.1759 18.2315 10.7122C18.5994 10.5198 18.8944 9.87518 18.7258 9.4865C18.63 9.26522 17.8733 9.39606 17.6779 9.43454C17.4844 9.47303 17.2622 9.53845 16.9614 9.50189C16.9441 9.43262 16.9767 9.43839 17.0112 9.43262C17.2143 9.40376 17.4307 9.34603 17.6606 9.25752C18.1415 9.0728 18.743 9.1286 19.2066 9.15939C19.8427 9.20364 20.5381 9.31525 20.9979 9.80014C20.8561 9.82708 20.7124 9.83093 20.5726 9.86749C20.3925 9.91367 20.2258 10.0484 20.0706 10.083C19.7756 10.1465 19.6856 10.0888 19.4193 10.3081C18.9193 10.7218 19.04 11.3895 18.9116 11.9629C19.4423 12.1476 20.4327 11.961 20.7258 11.4357C20.8733 11.1721 21.0477 10.4043 20.5592 10.439C20.3733 10.4524 19.927 10.8835 19.8293 11.0547L19.7775 11.0412C20.1703 9.91559 21.4615 9.81361 22.042 10.8758C22.2833 11.3183 22.2833 11.8994 22.3063 12.3997C22.3217 12.7499 22.3063 13.0232 22.314 13.3657V13.4157L22.3466 13.408C22.7144 13.3137 22.9634 13.2848 23.3504 13.2868V13.1232C23.3772 12.5132 23.3504 11.3106 23.5228 10.92C23.8619 10.1503 24.9711 9.93676 25.3773 10.8219C25.406 10.8815 25.4616 10.9874 25.4386 11.0528C25.2068 10.8546 24.8677 10.2215 24.5535 10.6699C24.4156 10.8681 24.452 11.1971 24.5535 11.4068C24.8524 12.0264 25.7738 11.9552 26.3466 12.0591L26.406 12.0245C26.1512 11.4203 26.3524 10.7257 25.7413 10.2927C25.5286 10.1426 25.3696 10.1869 25.1512 10.1388C25.0401 10.1138 24.8715 9.99256 24.7297 9.95023C24.6455 9.92521 24.5554 9.92329 24.4692 9.90405C24.7125 9.63274 25.0305 9.29793 25.3868 9.18633C25.7393 9.07472 26.6283 9.06125 26.9846 9.14977C27.2719 9.22096 27.5152 9.37297 27.7605 9.53075L27.7471 9.58271C27.4386 9.45956 26.6283 9.18825 26.3447 9.37297C26.1627 9.49227 26.2623 9.97139 26.3275 10.158C26.544 10.7719 27.0497 10.9296 27.6417 10.7584C27.9712 10.6641 28.2528 10.439 28.5651 10.3004C28.7566 10.2138 28.9712 10.2562 28.954 9.99833C28.9271 9.56539 28.454 8.68219 28.113 8.41473C27.6704 8.06837 27.0478 8.0549 26.6704 8.50324C26.6072 8.57828 26.5076 8.79956 26.4463 8.81111C26.111 8.77262 25.7738 8.78225 25.4386 8.75723C25.4003 8.75338 25.3619 8.7784 25.3734 8.71875C25.906 8.29928 26.5114 7.93176 27.1072 7.60657C27.2662 7.51998 27.6589 7.27753 27.8084 7.2429C27.908 7.21981 27.9425 7.33718 28.0267 7.4103C28.7356 8.03181 29.9099 7.89327 30.3027 6.97736C30.3659 6.8292 30.5479 6.33083 30.5785 6.18652C30.5996 6.08261 30.6456 5.61311 30.6034 5.54384L30.6149 5.55154ZM22.3983 8.24155C22.2757 8.09724 22.1626 7.93753 22.0285 7.80476C21.8293 7.61042 21.5898 7.4815 21.3925 7.29293C21.4212 7.25059 21.4289 7.25637 21.473 7.26021C21.8216 7.30447 22.4692 7.79321 22.3983 8.23962V8.24155ZM23.1378 8.15689C23.1646 7.98948 23.2565 7.79514 23.3696 7.67007C23.4596 7.57001 23.9749 7.19094 24.088 7.26983C24.1225 7.29677 24.1244 7.32948 24.1014 7.36412C24.0726 7.41222 23.6014 7.73934 23.5037 7.82977C23.3791 7.94522 23.2221 8.08569 23.1588 8.24347C23.1109 8.24925 23.1358 8.18575 23.1397 8.15689H23.1378ZM23.952 4.99929C24.0209 4.97236 24.109 4.92233 24.1627 4.99929L23.1818 5.66891C23.2604 5.29369 23.5975 5.13591 23.952 4.99929ZM22.9979 1.39529C23.4117 2.00334 23.6263 2.93272 23.1435 3.55615L23.1033 2.34199C23.0745 2.0245 22.9289 1.72818 22.9443 1.40876L22.9979 1.39529Z" fill="white"/>
<path d="M49.5443 31.1076C50.2895 31.4886 50.8643 32.0351 51.2704 32.7471C51.6765 33.459 51.8796 34.2902 51.8796 35.2408C51.8796 36.1913 51.6765 37.0149 51.2704 37.7134C50.8643 38.4119 50.2895 38.9468 49.5443 39.3201C48.7991 39.6914 47.9312 39.8781 46.9427 39.8781H43.9062V30.5381H46.9427C47.9332 30.5381 48.801 30.7286 49.5443 31.1096V31.1076ZM49.4447 37.7403C50.0251 37.1496 50.3144 36.3164 50.3144 35.2408C50.3144 34.1652 50.0251 33.3108 49.4447 32.7009C48.8642 32.0909 48.0309 31.7869 46.9427 31.7869H45.4312V38.6274H46.9427C48.0309 38.6274 48.8642 38.331 49.4447 37.7403Z" fill="#9AB3C1"/>
<path d="M58.4486 39.6896C58.2609 39.501 58.167 39.2682 58.167 38.9911C58.167 38.714 58.2609 38.4812 58.4486 38.2926C58.6364 38.1041 58.8682 38.0098 59.144 38.0098C59.4199 38.0098 59.6383 38.1041 59.826 38.2926C60.0138 38.4812 60.1076 38.714 60.1076 38.9911C60.1076 39.2682 60.0138 39.501 59.826 39.6896C59.6383 39.8782 59.4122 39.9724 59.144 39.9724C58.8758 39.9724 58.6364 39.8782 58.4486 39.6896Z" fill="#9AB3C1"/>
<path d="M75.7172 32.7153C76.177 32.9577 76.5371 33.3156 76.8015 33.7909C77.064 34.2662 77.1961 34.8396 77.1961 35.5111V39.879H75.6846V35.7401C75.6846 35.0762 75.5199 34.5683 75.1904 34.2142C74.8608 33.8602 74.4106 33.6831 73.8398 33.6831C73.2689 33.6831 72.8167 33.8602 72.4815 34.2142C72.1462 34.5683 71.9796 35.0762 71.9796 35.7401V39.879H70.468V35.7401C70.468 35.0762 70.3033 34.5683 69.9738 34.2142C69.6443 33.8602 69.1941 33.6831 68.6232 33.6831C68.0523 33.6831 67.6002 33.8602 67.2649 34.2142C66.9296 34.5683 66.763 35.0762 66.763 35.7401V39.879H65.238V32.4747H66.763V33.3214C67.012 33.0174 67.33 32.7788 67.7132 32.6094C68.0963 32.4401 68.5063 32.3535 68.945 32.3535C69.5331 32.3535 70.06 32.4786 70.5236 32.7307C70.9872 32.9808 71.3435 33.3445 71.5945 33.8197C71.8167 33.3714 72.1654 33.0154 72.6386 32.7518C73.1118 32.4882 73.6194 32.3554 74.1635 32.3554C74.744 32.3554 75.2631 32.4767 75.7229 32.7191L75.7172 32.7153Z" fill="#9AB3C1"/>
<path d="M85.8381 36.7464H80.2058C80.2498 37.3372 80.4682 37.8124 80.861 38.1703C81.2537 38.5282 81.7345 38.7072 82.3054 38.7072C83.1254 38.7072 83.7058 38.3628 84.0449 37.672H85.6906C85.4683 38.3531 85.0641 38.9111 84.4798 39.346C83.8955 39.7809 83.1714 39.9983 82.3054 39.9983C81.6004 39.9983 80.9702 39.8386 80.4127 39.5211C79.8552 39.2036 79.4184 38.7553 79.1023 38.178C78.7862 37.6008 78.6272 36.9312 78.6272 36.1692C78.6272 35.4072 78.7805 34.7376 79.0889 34.1603C79.3973 33.5831 79.8284 33.1367 80.3878 32.823C80.9453 32.5094 81.5851 32.3535 82.3073 32.3535C83.0296 32.3535 83.6235 32.5055 84.1675 32.8095C84.7116 33.1136 85.135 33.5427 85.4396 34.093C85.7423 34.6433 85.8936 35.2783 85.8936 35.9941C85.8936 36.2712 85.8764 36.5232 85.84 36.7464H85.8381ZM84.2997 35.5111C84.2901 34.9473 84.0909 34.4951 83.6982 34.1546C83.3055 33.814 82.8189 33.6446 82.2403 33.6446C81.7135 33.6446 81.2633 33.812 80.8897 34.1488C80.5161 34.4855 80.292 34.9396 80.2211 35.513H84.3016L84.2997 35.5111Z" fill="#9AB3C1"/>
<path d="M87.344 34.1658C87.6525 33.5924 88.0701 33.146 88.6027 32.8285C89.1333 32.511 89.7253 32.3513 90.3747 32.3513C90.8556 32.3513 91.3307 32.4572 91.8001 32.6669C92.2675 32.8766 92.6411 33.1576 92.9169 33.5078V29.9326H94.4553V39.8768H92.9169V38.7608C92.6679 39.1187 92.3211 39.415 91.8805 39.6478C91.438 39.8807 90.9322 39.998 90.3613 39.998C89.7195 39.998 89.1333 39.8345 88.6027 39.5074C88.072 39.1803 87.6525 38.7242 87.344 38.1374C87.0356 37.5505 86.8823 36.8847 86.8823 36.142C86.8823 35.3992 87.0356 34.7392 87.344 34.1658ZM92.6028 34.8393C92.3939 34.4622 92.1181 34.1754 91.779 33.9792C91.4399 33.7829 91.074 33.6829 90.6813 33.6829C90.2885 33.6829 89.9226 33.7791 89.5835 33.9715C89.2444 34.1639 88.9705 34.4468 88.7598 34.8181C88.5509 35.1895 88.4456 35.6321 88.4456 36.142C88.4456 36.6519 88.5509 37.1002 88.7598 37.4851C88.9686 37.8699 89.2464 38.1643 89.5893 38.3663C89.9322 38.5684 90.2962 38.6684 90.6793 38.6684C91.0625 38.6684 91.438 38.5703 91.7771 38.3721C92.1161 38.1758 92.3901 37.8853 92.6008 37.5062C92.8096 37.1252 92.915 36.6788 92.915 36.1689C92.915 35.659 92.8096 35.2145 92.6008 34.8393H92.6028Z" fill="#9AB3C1"/>
<path d="M96.3824 39.6896C96.1947 39.501 96.1008 39.2682 96.1008 38.9911C96.1008 38.714 96.1947 38.4812 96.3824 38.2926C96.5702 38.1041 96.802 38.0098 97.0779 38.0098C97.3537 38.0098 97.5721 38.1041 97.7599 38.2926C97.9476 38.4812 98.0415 38.714 98.0415 38.9911C98.0415 39.2682 97.9476 39.501 97.7599 39.6896C97.5721 39.8782 97.3461 39.9724 97.0779 39.9724C96.8097 39.9724 96.5702 39.8782 96.3824 39.6896Z" fill="#9AB3C1"/>
<path d="M108.637 30.5381V31.7888H104.691V34.5442H107.768V35.795H104.691V39.88H103.166V30.54H108.639L108.637 30.5381Z" fill="#9AB3C1"/>
<path d="M116.312 31.2101C116.124 31.0215 116.03 30.7887 116.03 30.5116C116.03 30.2345 116.124 30.0017 116.312 29.8131C116.5 29.6246 116.731 29.5303 117.007 29.5303C117.283 29.5303 117.502 29.6246 117.689 29.8131C117.877 30.0017 117.971 30.2345 117.971 30.5116C117.971 30.7887 117.877 31.0215 117.689 31.2101C117.502 31.3987 117.274 31.4929 117.007 31.4929C116.741 31.4929 116.5 31.3987 116.312 31.2101ZM117.758 32.4724V39.8766H116.233V32.4724H117.758Z" fill="#9AB3C1"/>
<path d="M126.467 36.7464H120.835C120.879 37.3372 121.097 37.8124 121.49 38.1703C121.883 38.5282 122.364 38.7072 122.935 38.7072C123.755 38.7072 124.335 38.3628 124.674 37.672H126.32C126.097 38.3531 125.693 38.9111 125.109 39.346C124.525 39.7809 123.801 39.9983 122.935 39.9983C122.23 39.9983 121.599 39.8386 121.042 39.5211C120.484 39.2036 120.048 38.7553 119.731 38.178C119.415 37.6008 119.256 36.9312 119.256 36.1692C119.256 35.4072 119.41 34.7376 119.718 34.1603C120.026 33.5831 120.458 33.1367 121.017 32.823C121.574 32.5094 122.214 32.3535 122.937 32.3535C123.659 32.3535 124.253 32.5055 124.797 32.8095C125.341 33.1136 125.764 33.5427 126.069 34.093C126.371 34.6433 126.523 35.2783 126.523 35.9941C126.523 36.2712 126.506 36.5232 126.469 36.7464H126.467ZM124.929 35.5111C124.919 34.9473 124.72 34.4951 124.327 34.1546C123.935 33.814 123.448 33.6446 122.869 33.6446C122.343 33.6446 121.892 33.812 121.519 34.1488C121.145 34.4855 120.921 34.9396 120.85 35.513H124.931L124.929 35.5111Z" fill="#9AB3C1"/>
<path d="M127.973 34.1658C128.282 33.5924 128.699 33.146 129.232 32.8285C129.762 32.511 130.354 32.3513 131.004 32.3513C131.485 32.3513 131.96 32.4572 132.429 32.6669C132.897 32.8766 133.27 33.1576 133.546 33.5078V29.9326H135.084V39.8768H133.546V38.7608C133.297 39.1187 132.95 39.415 132.51 39.6478C132.067 39.8807 131.561 39.998 130.99 39.998C130.349 39.998 129.762 39.8345 129.232 39.5074C128.701 39.1803 128.282 38.7242 127.973 38.1374C127.665 37.5505 127.511 36.8847 127.511 36.142C127.511 35.3992 127.665 34.7392 127.973 34.1658ZM133.232 34.8393C133.023 34.4622 132.747 34.1754 132.408 33.9792C132.069 33.7829 131.703 33.6829 131.31 33.6829C130.918 33.6829 130.552 33.7791 130.213 33.9715C129.874 34.1639 129.6 34.4468 129.389 34.8181C129.18 35.1895 129.075 35.6321 129.075 36.142C129.075 36.6519 129.18 37.1002 129.389 37.4851C129.598 37.8699 129.876 38.1643 130.218 38.3663C130.561 38.5684 130.925 38.6684 131.308 38.6684C131.692 38.6684 132.067 38.5703 132.406 38.3721C132.745 38.1758 133.019 37.8853 133.23 37.5062C133.439 37.1252 133.544 36.6788 133.544 36.1689C133.544 35.659 133.439 35.2145 133.23 34.8393H133.232Z" fill="#9AB3C1"/>
<path d="M143.795 36.7464H138.163C138.207 37.3372 138.426 37.8124 138.818 38.1703C139.211 38.5282 139.692 38.7072 140.263 38.7072C141.083 38.7072 141.663 38.3628 142.002 37.672H143.648C143.426 38.3531 143.021 38.9111 142.437 39.346C141.853 39.7809 141.129 39.9983 140.263 39.9983C139.558 39.9983 138.927 39.8386 138.37 39.5211C137.812 39.2036 137.376 38.7553 137.06 38.178C136.743 37.6008 136.584 36.9312 136.584 36.1692C136.584 35.4072 136.738 34.7376 137.046 34.1603C137.355 33.5831 137.786 33.1367 138.345 32.823C138.903 32.5094 139.542 32.3535 140.265 32.3535C140.987 32.3535 141.581 32.5055 142.125 32.8095C142.669 33.1136 143.092 33.5427 143.397 34.093C143.7 34.6433 143.851 35.2783 143.851 35.9941C143.851 36.2712 143.834 36.5232 143.797 36.7464H143.795ZM142.257 35.5111C142.247 34.9473 142.048 34.4951 141.655 34.1546C141.263 33.814 140.776 33.6446 140.198 33.6446C139.671 33.6446 139.221 33.812 138.847 34.1488C138.473 34.4855 138.249 34.9396 138.178 35.513H142.259L142.257 35.5111Z" fill="#9AB3C1"/>
<path d="M151.751 31.2101C151.564 31.0215 151.47 30.7887 151.47 30.5116C151.47 30.2345 151.564 30.0017 151.751 29.8131C151.939 29.6246 152.171 29.5303 152.447 29.5303C152.723 29.5303 152.941 29.6246 153.129 29.8131C153.317 30.0017 153.41 30.2345 153.41 30.5116C153.41 30.7887 153.317 31.0215 153.129 31.2101C152.941 31.3987 152.713 31.4929 152.447 31.4929C152.18 31.4929 151.939 31.3987 151.751 31.2101ZM153.196 32.4724V39.8766H151.671V32.4724H153.196Z" fill="#9AB3C1"/>
<path d="M158.269 36.1824L161.667 39.8788H159.606L156.876 36.6942V39.8788H155.351V29.9346H156.876V35.7129L159.552 32.4745H161.667L158.269 36.1843V36.1824Z" fill="#9AB3C1"/>
<path d="M169.468 36.7464H163.836C163.88 37.3372 164.098 37.8124 164.491 38.1703C164.884 38.5282 165.365 38.7072 165.936 38.7072C166.756 38.7072 167.336 38.3628 167.675 37.672H169.321C169.098 38.3531 168.694 38.9111 168.11 39.346C167.526 39.7809 166.801 39.9983 165.936 39.9983C165.231 39.9983 164.6 39.8386 164.043 39.5211C163.485 39.2036 163.049 38.7553 162.732 38.178C162.416 37.6008 162.257 36.9312 162.257 36.1692C162.257 35.4072 162.411 34.7376 162.719 34.1603C163.027 33.5831 163.458 33.1367 164.018 32.823C164.575 32.5094 165.215 32.3535 165.937 32.3535C166.66 32.3535 167.254 32.5055 167.798 32.8095C168.342 33.1136 168.765 33.5427 169.07 34.093C169.372 34.6433 169.524 35.2783 169.524 35.9941C169.524 36.2712 169.507 36.5232 169.47 36.7464H169.468ZM167.93 35.5111C167.92 34.9473 167.721 34.4951 167.328 34.1546C166.936 33.814 166.449 33.6446 165.87 33.6446C165.344 33.6446 164.893 33.812 164.52 34.1488C164.146 34.4855 163.922 34.9396 163.851 35.513H167.932L167.93 35.5111Z" fill="#9AB3C1"/>
<path d="M175.876 39.6416C175.376 39.4222 174.984 39.1105 174.698 38.7083C174.413 38.3043 174.269 37.8348 174.269 37.2979H175.901C175.938 37.702 176.095 38.033 176.376 38.2927C176.658 38.5525 177.053 38.6833 177.56 38.6833C178.068 38.6833 178.497 38.5563 178.792 38.3004C179.087 38.0445 179.235 37.7155 179.235 37.3133C179.235 36.9997 179.143 36.7437 178.961 36.5475C178.777 36.3512 178.551 36.1973 178.279 36.0915C178.007 35.9837 177.629 35.8682 177.148 35.7412C176.541 35.5796 176.049 35.4161 175.669 35.2506C175.29 35.0851 174.966 34.8273 174.7 34.4771C174.432 34.1269 174.298 33.6612 174.298 33.0801C174.298 32.5432 174.432 32.0718 174.7 31.6697C174.968 31.2656 175.342 30.9577 175.825 30.7422C176.307 30.5267 176.863 30.4189 177.497 30.4189C178.397 30.4189 179.137 30.646 179.712 31.0982C180.286 31.5504 180.606 32.1719 180.668 32.9589H178.982C178.955 32.6183 178.794 32.3277 178.501 32.0853C178.206 31.8428 177.819 31.7216 177.336 31.7216C176.899 31.7216 176.541 31.8332 176.265 32.0584C175.989 32.2816 175.85 32.6048 175.85 33.0262C175.85 33.3129 175.936 33.5477 176.11 33.7324C176.284 33.9171 176.505 34.0614 176.773 34.1692C177.041 34.2769 177.407 34.3924 177.871 34.5194C178.486 34.6906 178.988 34.86 179.376 35.0293C179.765 35.1986 180.095 35.4622 180.367 35.8163C180.639 36.1703 180.775 36.6437 180.775 37.2344C180.775 37.7097 180.648 38.158 180.394 38.5775C180.139 38.9989 179.769 39.3376 179.283 39.5915C178.796 39.8475 178.223 39.9745 177.564 39.9745C176.94 39.9745 176.378 39.8648 175.878 39.6454L175.876 39.6416Z" fill="#9AB3C1"/>
<path d="M182.533 34.1603C182.842 33.5831 183.267 33.1367 183.811 32.823C184.355 32.5094 184.98 32.3535 185.685 32.3535C186.578 32.3535 187.315 32.5671 187.899 32.9923C188.484 33.4176 188.878 34.0256 189.083 34.8126H187.438C187.304 34.4451 187.089 34.1584 186.796 33.9525C186.501 33.7466 186.131 33.6427 185.685 33.6427C185.06 33.6427 184.562 33.864 184.193 34.3085C183.823 34.7511 183.637 35.3726 183.637 36.1692C183.637 36.9658 183.823 37.5892 184.193 38.0376C184.562 38.4859 185.06 38.7091 185.685 38.7091C186.568 38.7091 187.152 38.3185 187.438 37.5392H189.083C188.869 38.2916 188.468 38.89 187.878 39.3325C187.29 39.777 186.558 39.9983 185.685 39.9983C184.98 39.9983 184.355 39.8386 183.811 39.5211C183.267 39.2036 182.842 38.7553 182.533 38.178C182.225 37.6008 182.072 36.9312 182.072 36.1692C182.072 35.4072 182.225 34.7376 182.533 34.1603Z" fill="#9AB3C1"/>
<path d="M195.927 32.715C196.367 32.9575 196.716 33.3154 196.971 33.7906C197.225 34.2659 197.352 34.8393 197.352 35.5109V39.8788H195.84V35.7398C195.84 35.076 195.676 34.568 195.346 34.214C195.017 33.8599 194.566 33.6829 193.995 33.6829C193.425 33.6829 192.972 33.8599 192.637 34.214C192.302 34.568 192.135 35.076 192.135 35.7398V39.8788H190.61V29.9346H192.135V33.3346C192.394 33.021 192.721 32.7785 193.118 32.6092C193.515 32.4399 193.949 32.3533 194.423 32.3533C194.984 32.3533 195.486 32.4745 195.928 32.7169L195.927 32.715Z" fill="#9AB3C1"/>
<path d="M205.996 36.7464H200.363C200.408 37.3372 200.626 37.8124 201.019 38.1703C201.411 38.5282 201.892 38.7072 202.463 38.7072C203.283 38.7072 203.864 38.3628 204.203 37.672H205.848C205.626 38.3531 205.222 38.9111 204.638 39.346C204.053 39.7809 203.329 39.9983 202.463 39.9983C201.758 39.9983 201.128 39.8386 200.57 39.5211C200.013 39.2036 199.576 38.7553 199.26 38.178C198.944 37.6008 198.785 36.9312 198.785 36.1692C198.785 35.4072 198.938 34.7376 199.247 34.1603C199.555 33.5831 199.986 33.1367 200.545 32.823C201.103 32.5094 201.743 32.3535 202.465 32.3535C203.187 32.3535 203.781 32.5055 204.325 32.8095C204.869 33.1136 205.293 33.5427 205.597 34.093C205.9 34.6433 206.051 35.2783 206.051 35.9941C206.051 36.2712 206.034 36.5232 205.998 36.7464H205.996ZM204.457 35.5111C204.448 34.9473 204.249 34.4951 203.856 34.1546C203.463 33.814 202.977 33.6446 202.398 33.6446C201.871 33.6446 201.421 33.812 201.047 34.1488C200.674 34.4855 200.45 34.9396 200.379 35.513H204.459L204.457 35.5111Z" fill="#9AB3C1"/>
<path d="M214.251 36.7464H208.618C208.662 37.3372 208.881 37.8124 209.274 38.1703C209.666 38.5282 210.147 38.7072 210.718 38.7072C211.538 38.7072 212.118 38.3628 212.458 37.672H214.103C213.881 38.3531 213.477 38.9111 212.892 39.346C212.308 39.7809 211.584 39.9983 210.718 39.9983C210.013 39.9983 209.383 39.8386 208.825 39.5211C208.268 39.2036 207.831 38.7553 207.515 38.178C207.199 37.6008 207.04 36.9312 207.04 36.1692C207.04 35.4072 207.193 34.7376 207.501 34.1603C207.81 33.5831 208.241 33.1367 208.8 32.823C209.358 32.5094 209.998 32.3535 210.72 32.3535C211.442 32.3535 212.036 32.5055 212.58 32.8095C213.124 33.1136 213.548 33.5427 213.852 34.093C214.155 34.6433 214.306 35.2783 214.306 35.9941C214.306 36.2712 214.289 36.5232 214.253 36.7464H214.251ZM212.712 35.5111C212.703 34.9473 212.504 34.4951 212.111 34.1546C211.718 33.814 211.231 33.6446 210.653 33.6446C210.126 33.6446 209.676 33.812 209.302 34.1488C208.929 34.4855 208.705 34.9396 208.634 35.513H212.714L212.712 35.5111Z" fill="#9AB3C1"/>
<path d="M217.329 29.9326V39.8768H215.804V29.9326H217.329Z" fill="#9AB3C1"/>
<path d="M57.0176 32.293C57.5099 32.293 57.8873 32.3545 58.2571 32.5027L57.872 33.992C57.5329 33.815 57.0406 33.7207 56.6478 33.7207C55.6229 33.7207 54.8911 34.5616 54.8911 35.8219V39.8993H53.3259V32.4873H54.8758V33.3224C55.3605 32.6182 56.1153 32.293 57.0176 32.293Z" fill="#9AB3C1"/>
<path d="M113.509 32.2802C114.002 32.2802 114.377 32.3418 114.747 32.4881L114.362 33.9735C114.023 33.7965 113.532 33.7041 113.139 33.7041C112.116 33.7041 111.387 34.5431 111.387 35.8015V39.8712H109.825V32.4727H111.371V33.3058C111.856 32.6035 112.609 32.2783 113.509 32.2783V32.2802Z" fill="#9AB3C1"/>
<path d="M149.054 32.2802C149.546 32.2802 149.922 32.3418 150.292 32.4881L149.907 33.9735C149.568 33.7965 149.077 33.7041 148.684 33.7041C147.661 33.7041 146.931 34.5431 146.931 35.8015V39.8712H145.37V32.4727H146.916V33.3058C147.401 32.6035 148.154 32.2783 149.054 32.2783V32.2802Z" fill="#9AB3C1"/>
</g>
<defs>
<clipPath id="clip0_46_1591">
<rect width="226.313" height="40" fill="white" transform="translate(0.901611)"/>
</clipPath>
</defs>
</svg>
