<svg viewBox="0 0 77.0415 74.8506" xmlns="http://www.w3.org/2000/svg" xmlns:xlink="http://www.w3.org/1999/xlink" width="77.041504" height="74.850586" fill="none" customFrame="#000000">
	<g id="Group 748">
		<path id="Vector" d="M71.4031 74.4505C70.5508 74.4051 69.7216 74.1571 68.9844 73.727C68.0945 73.2237 67.2308 72.6754 66.3967 72.0843C65.8659 71.7228 65.317 71.3491 64.7502 70.9871C62.4124 69.5026 59.5904 68.1289 56.3919 69.2011C53.1549 70.2963 49.114 71.3047 46.5876 69.3591C44.5254 67.771 43.6966 64.4475 44.0536 59.1986C44.144 57.7732 44.3392 57.1424 44.6507 55.2151C44.9268 53.5069 45.5258 52.3921 45.8588 51.0813C45.8724 51.0199 45.8989 50.9621 45.9365 50.9117C45.9741 50.8613 46.0221 50.8196 46.0771 50.7891C46.1321 50.7587 46.193 50.7404 46.2557 50.7353C46.3184 50.7302 46.3814 50.7386 46.4406 50.7597C46.9588 50.9349 47.5032 51.0201 48.0502 51.0115L48.3278 51.0115C48.3466 51.0107 48.3654 51.0088 48.384 51.0057C48.439 50.998 48.4944 50.9938 48.55 50.993L48.7345 50.993C48.7814 50.9858 48.8307 50.9808 48.8802 50.9763C48.9141 50.9742 48.9479 50.9703 48.9815 50.9647C49.0328 50.9531 49.0847 50.9448 49.137 50.9397C49.1633 50.9367 49.1911 50.9337 49.2218 50.9275C49.2358 50.9247 49.2497 50.9227 49.2638 50.9212C49.2848 50.9161 49.3102 50.9103 49.3394 50.9062C49.3802 50.8969 49.4215 50.8898 49.4632 50.8849C49.481 50.8832 49.4988 50.8804 49.5163 50.8766C49.5931 50.8608 49.6439 50.8544 49.692 50.8488C49.7076 50.8469 49.7226 50.8458 49.7373 50.8435C49.7771 50.8304 49.8178 50.8205 49.8591 50.8137C49.9052 50.7993 49.953 50.7912 50.0012 50.7896C50.0314 50.7837 50.06 50.7794 50.0886 50.7753C50.1078 50.7731 50.1268 50.7699 50.1456 50.7656C50.6376 50.6667 51.1459 50.538 51.8142 50.344C51.8573 50.333 51.8874 50.3224 51.9177 50.3123C51.9598 50.2983 52.0019 50.2846 52.0411 50.2736C52.0905 50.2551 52.1399 50.24 52.1894 50.225C52.2232 50.215 52.2573 50.2053 52.291 50.1918C52.3503 50.168 52.4088 50.1499 52.4676 50.1323C52.5014 50.1221 52.5354 50.1125 52.5693 50.099C52.5879 50.0916 52.6069 50.0855 52.6263 50.0806C52.8303 50.0296 53.0366 49.9609 53.255 49.8882C53.4001 49.8398 53.545 49.793 53.6899 49.7462C53.8319 49.7005 53.9739 49.6546 54.1115 49.6088C54.1963 49.5805 54.2857 49.5522 54.375 49.524C54.4615 49.4967 54.5479 49.4695 54.6297 49.4422C54.7705 49.4015 54.8752 49.3666 54.9798 49.3317C55.1118 49.282 55.273 49.2277 55.4358 49.1734C55.5385 49.1274 55.644 49.0879 55.7518 49.0554L55.8146 49.0349C55.8734 49.0153 55.9369 48.9957 56.0003 48.9762C56.0529 48.9601 56.1055 48.9439 56.1547 48.9278C56.3307 48.8577 56.4995 48.7997 56.7159 48.7346C56.8968 48.6742 57.0949 48.6096 57.2931 48.5451C57.4873 48.4819 57.6815 48.4186 57.8715 48.3554C58.0034 48.3022 58.1384 48.2571 58.2757 48.2203C58.3266 48.201 58.3773 48.1853 58.4283 48.1701C58.462 48.1599 58.4961 48.1503 58.53 48.1368C58.5486 48.1293 58.5677 48.1231 58.5871 48.1183C58.6532 48.1018 58.7192 48.0809 58.7852 48.0603C58.8672 48.0346 58.9492 48.0093 59.0312 47.9887C59.0844 47.9733 59.1567 47.954 59.2289 47.9347C59.2912 47.9181 59.3535 47.9015 59.4122 47.885C59.4454 47.8708 59.48 47.8604 59.5155 47.8538C59.5795 47.8376 59.6401 47.8214 59.7008 47.8052C59.7722 47.7861 59.8438 47.767 59.9199 47.748L60.3642 47.6369L60.3989 47.6297C60.4428 47.6224 60.4869 47.6109 60.5309 47.5999C60.5979 47.5831 60.665 47.5669 60.732 47.5557C60.8382 47.538 60.9443 47.5205 61.0327 47.5028L61.0569 47.4986C61.1698 47.4825 61.268 47.4664 61.3649 47.4503C61.4211 47.4313 61.4789 47.4174 61.5375 47.4086C61.5849 47.3937 61.634 47.3853 61.6837 47.3836C61.7177 47.3764 61.752 47.371 61.7866 47.3673C61.8364 47.3587 61.8863 47.3532 61.9363 47.3483C61.9683 47.3451 62.0005 47.3425 62.0325 47.3361C62.1325 47.3104 62.2349 47.2954 62.338 47.2912C62.4676 47.2686 62.5987 47.2559 62.7301 47.2535L63.3225 47.2535C63.8189 47.2487 64.3145 47.2953 64.8013 47.3924C67.3196 47.9328 68.7276 48.1093 69.4391 47.5758C69.9151 47.219 70.1703 46.4698 70.2668 45.1468C70.2738 45.0514 70.3114 44.9607 70.3742 44.8885C70.4369 44.8162 70.5213 44.7662 70.6148 44.7459C70.7083 44.7256 70.8059 44.7361 70.8929 44.7759C70.9799 44.8156 71.0518 44.8825 71.0977 44.9664C71.1292 45.024 71.8787 46.4012 72.8391 48.6916C73.6768 50.6682 74.3936 51.6939 74.9854 53.7576C76.9434 60.5744 77.167 64.5634 75.6497 69.5576L75.6473 69.5651C74.7849 72.2309 73.7818 73.7174 72.4908 74.2429C72.1452 74.3823 71.7757 74.4528 71.4031 74.4505ZM58.7226 67.9276C61.0666 68.0619 63.3233 68.8641 65.2262 70.2395C65.8051 70.6092 66.3595 70.9866 66.8956 71.3517C67.7032 71.9243 68.5392 72.4558 69.4004 72.9443C69.7949 73.2248 70.2473 73.4133 70.7243 73.496C71.2012 73.5787 71.6907 73.5534 72.1566 73.4221C73.1724 73.0086 74.038 71.659 74.8028 69.2961C76.2684 64.469 76.0432 60.6504 74.1334 54.0017C73.5514 51.9723 72.8465 50.9802 72.0227 49.0364C71.6121 48.0574 71.2374 47.242 70.9447 46.6324C70.8285 47.2821 70.4829 47.8685 69.9709 48.2849C68.8896 49.0954 67.0702 48.7858 64.6181 48.2595C64.1915 48.1752 63.7574 48.1351 63.3225 48.1398L62.7302 48.1398C62.6366 48.1434 62.5434 48.1537 62.4513 48.1708C62.3758 48.1757 62.3008 48.1857 62.2268 48.2006C62.16 48.2142 62.0924 48.2241 62.0245 48.2302C61.9925 48.2333 61.9605 48.2358 61.9285 48.2422C61.9101 48.2459 61.8915 48.2484 61.8729 48.2497C61.8419 48.2558 61.8102 48.262 61.7764 48.2656C61.7378 48.2783 61.6976 48.2857 61.657 48.2874C61.642 48.2913 61.6272 48.297 61.6121 48.302C61.5899 48.3094 61.5672 48.315 61.5442 48.3189C61.432 48.3376 61.3217 48.3559 61.1942 48.3743C61.1 48.3928 60.9889 48.4114 60.8777 48.4299C60.8338 48.4372 60.7897 48.4487 60.7457 48.4597C60.6851 48.4749 60.6243 48.4897 60.5636 48.5006L60.1349 48.6079C60.0634 48.6257 59.9965 48.6436 59.9295 48.6615C59.8648 48.6787 59.8001 48.696 59.7318 48.7132C59.703 48.7253 59.673 48.7345 59.6424 48.7408C59.5828 48.7576 59.52 48.7744 59.4572 48.791C59.3902 48.8089 59.3232 48.8267 59.2606 48.8446C59.1809 48.8648 59.1152 48.8856 59.0495 48.9062C58.9762 48.9291 58.9028 48.9518 58.8295 48.9711C58.7807 48.9891 58.7321 49.0042 58.6832 49.0189C58.6494 49.0291 58.6153 49.0387 58.5815 49.0522C58.5674 49.0578 58.5531 49.0627 58.5385 49.0669C58.4242 49.0968 58.312 49.1338 58.2024 49.1776L58.1682 49.1907C57.9711 49.2564 57.7692 49.3222 57.5674 49.3878C57.3711 49.4517 57.175 49.5156 56.9834 49.5794C56.7757 49.642 56.6263 49.6936 56.4711 49.7557L56.4464 49.7647C56.3878 49.7843 56.3243 49.8039 56.2609 49.8233C56.204 49.8409 56.1472 49.8583 56.0947 49.8757L56.0241 49.8987C55.948 49.9211 55.8734 49.9487 55.8009 49.9813C55.7823 49.9906 55.7629 49.9987 55.7431 50.0053C55.5817 50.059 55.4205 50.1127 55.2772 50.1665C55.1436 50.2113 55.0272 50.2499 54.8916 50.2886C54.8239 50.3116 54.7329 50.3404 54.6418 50.3691C54.5569 50.3959 54.4721 50.4227 54.3918 50.4495C54.2518 50.4962 54.1069 50.543 53.962 50.5897C53.8199 50.6355 53.6779 50.6814 53.5404 50.7271C53.319 50.8009 53.0955 50.8754 52.8678 50.9336C52.8192 50.9516 52.7707 50.9666 52.7221 50.9812C52.6882 50.9913 52.6543 51.001 52.6204 51.0145C52.562 51.0379 52.5031 51.0561 52.4441 51.0739C52.4104 51.084 52.3765 51.0936 52.3429 51.107C52.3242 51.1145 52.3051 51.1206 52.2856 51.1255C52.2586 51.1323 52.2283 51.1429 52.1979 51.153C52.1451 51.1706 52.0921 51.1877 52.0451 51.1995C51.3678 51.3964 50.837 51.5305 50.3399 51.6299C50.2983 51.6397 50.2562 51.6473 50.2139 51.6526C50.1947 51.6548 50.1756 51.6581 50.1567 51.6624C50.1287 51.6694 50.1 51.6736 50.071 51.675C50.0524 51.6791 50.0342 51.6827 50.0164 51.6858L50.0151 51.6862C50.0009 51.6912 49.9864 51.6957 49.9717 51.6994C49.9136 51.713 49.8546 51.7229 49.7952 51.7289C49.7689 51.732 49.7411 51.7349 49.7104 51.741C49.6673 51.7508 49.6237 51.7583 49.5797 51.7633C49.567 51.765 49.5546 51.7663 49.5433 51.7686C49.5165 51.778 49.4887 51.7836 49.4604 51.7855C49.4292 51.7932 49.3976 51.7988 49.3656 51.8021C49.321 51.81 49.2798 51.8151 49.2405 51.8198C49.2187 51.8215 49.197 51.8245 49.1756 51.829C49.1045 51.8432 49.0326 51.8532 48.9603 51.8588C48.9264 51.861 48.8926 51.8649 48.8591 51.8705C48.8305 51.8763 48.8014 51.8792 48.7722 51.8792L48.5499 51.8792C48.5311 51.88 48.5124 51.8819 48.4938 51.885C48.4388 51.8927 48.3833 51.8969 48.3278 51.8977L48.0502 51.8977C47.5694 51.901 47.09 51.8471 46.622 51.737C46.0771 53.3921 45.7815 53.7732 45.5258 55.3564C45.2188 57.2551 45.0266 57.858 44.9381 59.2565C44.6025 64.1892 45.3189 67.2633 47.1284 68.6568C48.8399 69.9747 51.6094 69.8834 56.1089 68.361C56.9507 68.0752 57.8336 67.9288 58.7226 67.9276Z" fill="#fff" fill-rule="nonzero"/>
		<path id="Vector" d="M68.9844 73.727C68.0945 73.2237 67.2308 72.6754 66.3967 72.0843C65.8659 71.7228 65.317 71.3491 64.7502 70.9871C62.4124 69.5026 59.5904 68.1289 56.3919 69.2011C53.1549 70.2963 49.114 71.3047 46.5876 69.3591C44.5254 67.771 43.6966 64.4475 44.0536 59.1986C44.144 57.7732 44.3392 57.1424 44.6507 55.2151C44.9268 53.5069 45.5258 52.3921 45.8588 51.0813C45.8724 51.0199 45.8989 50.9621 45.9365 50.9117C45.9741 50.8613 46.0221 50.8196 46.0771 50.7891C46.1321 50.7587 46.193 50.7404 46.2557 50.7353C46.3184 50.7302 46.3814 50.7386 46.4406 50.7597C46.9588 50.9349 47.5032 51.0201 48.0502 51.0115L48.3278 51.0115C48.3466 51.0107 48.3654 51.0088 48.384 51.0057C48.439 50.998 48.4944 50.9938 48.55 50.993L48.7345 50.993C48.7814 50.9858 48.8307 50.9808 48.8802 50.9763C48.9141 50.9742 48.9479 50.9703 48.9815 50.9647C49.0328 50.9531 49.0847 50.9448 49.137 50.9397C49.1633 50.9367 49.1911 50.9337 49.2218 50.9275C49.2358 50.9247 49.2497 50.9227 49.2638 50.9212C49.2848 50.9161 49.3102 50.9103 49.3394 50.9062C49.3802 50.8969 49.4215 50.8898 49.4632 50.8849C49.481 50.8832 49.4988 50.8804 49.5163 50.8766C49.5931 50.8608 49.6439 50.8544 49.692 50.8488C49.7076 50.8469 49.7226 50.8458 49.7373 50.8435C49.7771 50.8304 49.8178 50.8205 49.8591 50.8137C49.9052 50.7993 49.953 50.7912 50.0012 50.7896C50.0314 50.7837 50.06 50.7794 50.0886 50.7753C50.1078 50.7731 50.1268 50.7699 50.1456 50.7656C50.6376 50.6667 51.1459 50.538 51.8142 50.344C51.8573 50.333 51.8874 50.3224 51.9177 50.3123C51.9598 50.2983 52.0019 50.2846 52.0411 50.2736C52.0905 50.2551 52.1399 50.24 52.1894 50.225C52.2232 50.215 52.2573 50.2053 52.291 50.1918C52.3503 50.168 52.4088 50.1499 52.4676 50.1323C52.5014 50.1221 52.5354 50.1125 52.5693 50.099C52.5879 50.0916 52.6069 50.0855 52.6263 50.0806C52.8303 50.0296 53.0366 49.9609 53.255 49.8882C53.4001 49.8398 53.545 49.793 53.6899 49.7462C53.8319 49.7005 53.9739 49.6546 54.1115 49.6088C54.1963 49.5805 54.2857 49.5522 54.375 49.524C54.4615 49.4967 54.5479 49.4695 54.6297 49.4422C54.7705 49.4015 54.8752 49.3666 54.9798 49.3317C55.1118 49.282 55.273 49.2277 55.4358 49.1734C55.5385 49.1274 55.644 49.0879 55.7518 49.0554L55.8146 49.0349C55.8734 49.0153 55.9369 48.9957 56.0003 48.9762C56.0529 48.9601 56.1055 48.9439 56.1547 48.9278C56.3307 48.8577 56.4995 48.7997 56.7159 48.7346C56.8968 48.6742 57.0949 48.6096 57.2931 48.5451C57.4873 48.4819 57.6815 48.4186 57.8715 48.3554C58.0034 48.3022 58.1384 48.2571 58.2757 48.2203C58.3266 48.201 58.3773 48.1853 58.4283 48.1701C58.462 48.1599 58.4961 48.1503 58.53 48.1368C58.5486 48.1293 58.5677 48.1231 58.5871 48.1183C58.6532 48.1018 58.7192 48.0809 58.7852 48.0603C58.8672 48.0346 58.9492 48.0093 59.0312 47.9887C59.0844 47.9733 59.1567 47.954 59.2289 47.9347C59.2912 47.9181 59.3535 47.9015 59.4122 47.885C59.4454 47.8708 59.48 47.8604 59.5155 47.8538C59.5795 47.8376 59.6401 47.8214 59.7008 47.8052C59.7722 47.7861 59.8438 47.767 59.9199 47.748L60.3642 47.6369L60.3989 47.6297C60.4428 47.6224 60.4869 47.6109 60.5309 47.5999C60.5979 47.5831 60.665 47.5669 60.732 47.5557C60.8382 47.538 60.9443 47.5205 61.0327 47.5028L61.0569 47.4986C61.1698 47.4825 61.268 47.4664 61.3649 47.4503C61.4211 47.4313 61.4789 47.4174 61.5375 47.4086C61.5849 47.3937 61.634 47.3853 61.6837 47.3836C61.7177 47.3764 61.752 47.371 61.7866 47.3673C61.8364 47.3587 61.8863 47.3532 61.9363 47.3483C61.9683 47.3451 62.0005 47.3425 62.0325 47.3361C62.1325 47.3104 62.2349 47.2954 62.338 47.2912C62.4676 47.2686 62.5987 47.2559 62.7301 47.2535L63.3225 47.2535C63.8189 47.2487 64.3145 47.2953 64.8013 47.3924C67.3196 47.9328 68.7276 48.1093 69.4391 47.5758C69.9151 47.219 70.1703 46.4698 70.2668 45.1468C70.2738 45.0514 70.3114 44.9607 70.3742 44.8885C70.4369 44.8162 70.5213 44.7662 70.6148 44.7459C70.7083 44.7256 70.8059 44.7361 70.8929 44.7759C70.9799 44.8156 71.0518 44.8825 71.0977 44.9664C71.1292 45.024 71.8787 46.4012 72.8391 48.6916C73.6768 50.6682 74.3936 51.6939 74.9854 53.7576C76.9434 60.5744 77.167 64.5634 75.6497 69.5576L75.6473 69.5651C74.7849 72.2309 73.7818 73.7174 72.4908 74.2429C72.1452 74.3823 71.7757 74.4528 71.4031 74.4505C70.5508 74.4051 69.7216 74.1571 68.9844 73.727ZM65.2262 70.2395C65.8051 70.6092 66.3595 70.9866 66.8956 71.3517C67.7032 71.9243 68.5392 72.4558 69.4004 72.9443C69.7949 73.2248 70.2473 73.4133 70.7243 73.496C71.2012 73.5787 71.6907 73.5534 72.1566 73.4221C73.1724 73.0086 74.038 71.659 74.8028 69.2961C76.2684 64.469 76.0432 60.6504 74.1334 54.0017C73.5514 51.9723 72.8465 50.9802 72.0227 49.0364C71.6121 48.0574 71.2374 47.242 70.9447 46.6324C70.8285 47.2821 70.4829 47.8685 69.9709 48.2849C68.8896 49.0954 67.0702 48.7858 64.6181 48.2595C64.1915 48.1752 63.7574 48.1351 63.3225 48.1398L62.7302 48.1398C62.6366 48.1434 62.5434 48.1537 62.4513 48.1708C62.3758 48.1757 62.3008 48.1857 62.2268 48.2006C62.16 48.2142 62.0924 48.2241 62.0245 48.2302C61.9925 48.2333 61.9605 48.2358 61.9285 48.2422C61.9101 48.2459 61.8915 48.2484 61.8729 48.2497C61.8419 48.2558 61.8102 48.262 61.7764 48.2656C61.7378 48.2783 61.6976 48.2857 61.657 48.2874C61.642 48.2913 61.6272 48.297 61.6121 48.302C61.5899 48.3094 61.5672 48.315 61.5442 48.3189C61.432 48.3376 61.3217 48.3559 61.1942 48.3743C61.1 48.3928 60.9889 48.4114 60.8777 48.4299C60.8338 48.4372 60.7897 48.4487 60.7457 48.4597C60.6851 48.4749 60.6243 48.4897 60.5636 48.5006L60.1349 48.6079C60.0634 48.6257 59.9965 48.6436 59.9295 48.6615C59.8648 48.6787 59.8001 48.696 59.7318 48.7132C59.703 48.7253 59.673 48.7345 59.6424 48.7408C59.5828 48.7576 59.52 48.7744 59.4572 48.791C59.3902 48.8089 59.3232 48.8267 59.2606 48.8446C59.1809 48.8648 59.1152 48.8856 59.0495 48.9062C58.9762 48.9291 58.9028 48.9518 58.8295 48.9711C58.7807 48.9891 58.7321 49.0042 58.6832 49.0189C58.6494 49.0291 58.6153 49.0387 58.5815 49.0522C58.5674 49.0578 58.5531 49.0627 58.5385 49.0669C58.4242 49.0968 58.312 49.1338 58.2024 49.1776L58.1682 49.1907C57.9711 49.2564 57.7692 49.3222 57.5674 49.3878C57.3711 49.4517 57.175 49.5156 56.9834 49.5794C56.7757 49.642 56.6263 49.6936 56.4711 49.7557L56.4464 49.7647C56.3878 49.7843 56.3243 49.8039 56.2609 49.8233C56.204 49.8409 56.1472 49.8583 56.0947 49.8757L56.0241 49.8987C55.948 49.9211 55.8734 49.9487 55.8009 49.9813C55.7823 49.9906 55.7629 49.9987 55.7431 50.0053C55.5817 50.059 55.4205 50.1127 55.2772 50.1665C55.1436 50.2113 55.0272 50.2499 54.8916 50.2886C54.8239 50.3116 54.7329 50.3404 54.6418 50.3691C54.5569 50.3959 54.4721 50.4227 54.3918 50.4495C54.2518 50.4962 54.1069 50.543 53.962 50.5897C53.8199 50.6355 53.6779 50.6814 53.5404 50.7271C53.319 50.8009 53.0955 50.8754 52.8678 50.9336C52.8192 50.9516 52.7707 50.9666 52.7221 50.9812C52.6882 50.9913 52.6543 51.001 52.6204 51.0145C52.562 51.0379 52.5031 51.0561 52.4441 51.0739C52.4104 51.084 52.3765 51.0936 52.3429 51.107C52.3242 51.1145 52.3051 51.1206 52.2856 51.1255C52.2586 51.1323 52.2283 51.1429 52.1979 51.153C52.1451 51.1706 52.0921 51.1877 52.0451 51.1995C51.3678 51.3964 50.837 51.5305 50.3399 51.6299C50.2983 51.6397 50.2562 51.6473 50.2139 51.6526C50.1947 51.6548 50.1756 51.6581 50.1567 51.6624C50.1287 51.6694 50.1 51.6736 50.071 51.675C50.0524 51.6791 50.0342 51.6827 50.0164 51.6858L50.0151 51.6862C50.0009 51.6912 49.9864 51.6957 49.9717 51.6994C49.9136 51.713 49.8546 51.7229 49.7952 51.7289C49.7689 51.732 49.7411 51.7349 49.7104 51.741C49.6673 51.7508 49.6237 51.7583 49.5797 51.7633C49.567 51.765 49.5546 51.7663 49.5433 51.7686C49.5165 51.778 49.4887 51.7836 49.4604 51.7855C49.4292 51.7932 49.3976 51.7988 49.3656 51.8021C49.321 51.81 49.2798 51.8151 49.2405 51.8198C49.2187 51.8215 49.197 51.8245 49.1756 51.829C49.1045 51.8432 49.0326 51.8532 48.9603 51.8588C48.9264 51.861 48.8926 51.8649 48.8591 51.8705C48.8305 51.8763 48.8014 51.8792 48.7722 51.8792L48.5499 51.8792C48.5311 51.88 48.5124 51.8819 48.4938 51.885C48.4388 51.8927 48.3833 51.8969 48.3278 51.8977L48.0502 51.8977C47.5694 51.901 47.09 51.8471 46.622 51.737C46.0771 53.3921 45.7815 53.7732 45.5258 55.3564C45.2188 57.2551 45.0266 57.858 44.9381 59.2565C44.6025 64.1892 45.3189 67.2633 47.1284 68.6568C48.8399 69.9747 51.6094 69.8834 56.1089 68.361C56.9507 68.0752 57.8336 67.9288 58.7226 67.9276C61.0666 68.0619 63.3233 68.8641 65.2262 70.2395ZM61.8564 48.2508L61.8416 48.251" fill-rule="nonzero" stroke="#fff" stroke-width="0.800000012"/>
		<path id="Vector" d="M51.4013 39.6291C51.3354 39.6291 51.2703 39.6144 51.2107 39.586C51.1512 39.5577 51.0987 39.5164 51.0572 39.4653C51.0156 39.4141 50.9859 39.3543 50.9703 39.2903C50.9548 39.2262 50.9537 39.1595 50.9671 39.0949C51.5412 36.3558 47.6087 34.0388 47.5688 34.0157C47.4671 33.9568 47.3929 33.8599 47.3626 33.7464C47.3323 33.6328 47.3484 33.5119 47.4073 33.4101C47.4661 33.3084 47.563 33.2342 47.6765 33.2039C47.7901 33.1736 47.911 33.1897 48.0128 33.2486C48.198 33.3557 52.5401 35.9099 51.8346 39.2767C51.8137 39.3762 51.7593 39.4655 51.6804 39.5297C51.6015 39.5938 51.503 39.6289 51.4013 39.6291Z" fill="#fff" fill-rule="nonzero"/>
		<path id="Vector" d="M51.2107 39.586C51.1512 39.5577 51.0987 39.5164 51.0572 39.4653C51.0156 39.4141 50.9859 39.3543 50.9703 39.2903C50.9548 39.2262 50.9537 39.1595 50.9671 39.0949C51.5412 36.3558 47.6087 34.0388 47.5688 34.0157C47.4671 33.9568 47.3929 33.8599 47.3626 33.7464C47.3323 33.6328 47.3484 33.5119 47.4073 33.4101C47.4661 33.3084 47.563 33.2342 47.6765 33.2039C47.7901 33.1736 47.911 33.1897 48.0128 33.2486C48.198 33.3557 52.5401 35.9099 51.8346 39.2767C51.8137 39.3762 51.7593 39.4655 51.6804 39.5297C51.6015 39.5938 51.503 39.6289 51.4013 39.6291C51.3354 39.6291 51.2703 39.6144 51.2107 39.586Z" fill-rule="nonzero" stroke="#fff" stroke-width="0.800000012"/>
		<path id="Vector" d="M51.8429 34.9742C49.8954 35.0559 47.9828 34.4389 46.4501 33.2346C44.9174 32.0303 43.8655 30.3179 43.4842 28.4063C43.4654 28.2903 43.4934 28.1715 43.5621 28.0762C43.6309 27.9808 43.7346 27.9167 43.8506 27.8978C43.9667 27.879 44.0854 27.907 44.1808 27.9757C44.2761 28.0444 44.3403 28.1482 44.3591 28.2642C44.405 28.5415 45.5728 35.0429 53.5445 33.9684C53.6022 33.9606 53.6609 33.9642 53.7172 33.979C53.7735 33.9938 53.8264 34.0196 53.8727 34.0549C53.9191 34.0902 53.958 34.1343 53.9873 34.1846C54.0166 34.235 54.0357 34.2906 54.0434 34.3483C54.0512 34.4061 54.0476 34.4647 54.0326 34.521C54.0177 34.5774 53.9918 34.6302 53.9565 34.6765C53.9211 34.7227 53.877 34.7616 53.8266 34.7908C53.7762 34.8201 53.7206 34.8391 53.6628 34.8468C53.0597 34.9299 52.4517 34.9724 51.8429 34.9742Z" fill="#fff" fill-rule="nonzero"/>
		<path id="Vector" d="M46.4501 33.2346C44.9174 32.0303 43.8655 30.3179 43.4842 28.4063C43.4654 28.2903 43.4934 28.1715 43.5621 28.0762C43.6309 27.9808 43.7346 27.9167 43.8506 27.8978C43.9667 27.879 44.0854 27.907 44.1808 27.9757C44.2761 28.0444 44.3403 28.1482 44.3591 28.2642C44.405 28.5415 45.5728 35.0429 53.5445 33.9684C53.6022 33.9606 53.6609 33.9642 53.7172 33.979C53.7735 33.9938 53.8264 34.0196 53.8727 34.0549C53.9191 34.0902 53.958 34.1343 53.9873 34.1846C54.0166 34.235 54.0357 34.2906 54.0434 34.3483C54.0512 34.4061 54.0476 34.4647 54.0326 34.521C54.0177 34.5774 53.9918 34.6302 53.9565 34.6765C53.9211 34.7227 53.877 34.7616 53.8266 34.7908C53.7762 34.8201 53.7206 34.8391 53.6628 34.8468C53.0597 34.9299 52.4517 34.9724 51.8429 34.9742C49.8954 35.0559 47.9828 34.4389 46.4501 33.2346Z" fill-rule="nonzero" stroke="#fff" stroke-width="0.800000012"/>
		<path id="Vector" d="M5.71883 74.3582C5.39627 74.3593 5.07578 74.3067 4.7705 74.2025C3.40595 73.736 2.35377 72.2331 1.45932 69.4728C-2.42387 57.4332 5.59202 45.5918 5.93511 44.9659C5.98108 44.8821 6.05295 44.8154 6.13998 44.7757C6.227 44.7361 6.32452 44.7256 6.41796 44.746C6.5114 44.7663 6.59576 44.8163 6.65843 44.8886C6.72111 44.9608 6.75874 45.0514 6.7657 45.1467C6.86221 46.4697 7.11744 47.2189 7.59339 47.5757C8.30531 48.1095 9.71292 47.9329 12.2288 47.393C14.8528 46.8268 18.376 48.0188 21.7833 49.1718C22.7724 49.5066 23.7953 49.8527 24.7593 50.1415C26.6776 50.7168 29.0789 51.3014 30.639 50.7072C30.6983 50.6846 30.7617 50.675 30.825 50.6791C30.8883 50.6831 30.95 50.7007 31.006 50.7307C31.0619 50.7606 31.1107 50.8022 31.1492 50.8527C31.1876 50.9031 31.2148 50.9613 31.2289 51.0231C32.1144 54.6718 32.712 55.3843 33.0161 59.1266C33.3814 64.3659 32.5604 67.6845 30.5058 69.2694C27.9882 71.2112 23.9505 70.2034 20.7141 69.1081C16.855 67.8067 13.5904 70.0319 10.7104 71.9956C8.87441 73.2474 7.24534 74.3582 5.71883 74.3582ZM6.08841 46.6345C4.24857 50.4773 -0.830386 59.4862 2.30259 69.2002C3.09273 71.6381 3.99377 73.0003 5.05721 73.3639C6.43744 73.8364 8.1863 72.6439 10.211 71.2633C13.1109 69.2861 16.7198 66.825 20.9974 68.2683C25.4942 69.7901 28.2601 69.8824 29.9644 68.5677C31.766 67.1778 32.475 64.1089 32.1317 59.1854C31.8474 55.6484 31.2918 55.1385 30.4699 51.6866C28.7279 52.1199 26.495 51.5876 24.5048 50.9904C23.526 50.6972 22.4955 50.3486 21.4992 50.0114C18.2057 48.897 14.8009 47.7445 12.4152 48.2595C9.96229 48.7859 8.14301 49.0955 7.06172 48.2848C6.55026 47.8689 6.20492 47.2834 6.08841 46.6345Z" fill="#fff" fill-rule="nonzero"/>
		<path id="Vector" d="M4.7705 74.2025C3.40595 73.736 2.35377 72.2331 1.45932 69.4728C-2.42387 57.4332 5.59202 45.5918 5.93511 44.9659C5.98108 44.8821 6.05295 44.8154 6.13998 44.7757C6.227 44.7361 6.32452 44.7256 6.41796 44.746C6.5114 44.7663 6.59576 44.8163 6.65843 44.8886C6.72111 44.9608 6.75874 45.0514 6.7657 45.1467C6.86221 46.4697 7.11744 47.2189 7.59339 47.5757C8.30531 48.1095 9.71292 47.9329 12.2288 47.393C14.8528 46.8268 18.376 48.0188 21.7833 49.1718C22.7724 49.5066 23.7953 49.8527 24.7593 50.1415C26.6776 50.7168 29.0789 51.3014 30.639 50.7072C30.6983 50.6846 30.7617 50.675 30.825 50.6791C30.8883 50.6831 30.95 50.7007 31.006 50.7307C31.0619 50.7606 31.1107 50.8022 31.1492 50.8527C31.1876 50.9031 31.2148 50.9613 31.2289 51.0231C32.1144 54.6718 32.712 55.3843 33.0161 59.1266C33.3814 64.3659 32.5604 67.6845 30.5058 69.2694C27.9882 71.2112 23.9505 70.2034 20.7141 69.1081C16.855 67.8067 13.5904 70.0319 10.7104 71.9956C8.87441 73.2474 7.24534 74.3582 5.71883 74.3582C5.39627 74.3593 5.07578 74.3067 4.7705 74.2025ZM2.30259 69.2002C3.09273 71.6381 3.99377 73.0003 5.05721 73.3639C6.43744 73.8364 8.1863 72.6439 10.211 71.2633C13.1109 69.2861 16.7198 66.825 20.9974 68.2683C25.4942 69.7901 28.2601 69.8824 29.9644 68.5677C31.766 67.1778 32.475 64.1089 32.1317 59.1854C31.8474 55.6484 31.2918 55.1385 30.4699 51.6866C28.7279 52.1199 26.495 51.5876 24.5048 50.9904C23.526 50.6972 22.4955 50.3486 21.4992 50.0114C18.2057 48.897 14.8009 47.7445 12.4152 48.2595C9.96229 48.7859 8.14301 49.0955 7.06172 48.2848C6.55026 47.8689 6.20492 47.2834 6.08841 46.6345C4.24857 50.4773 -0.830386 59.4862 2.30259 69.2002Z" fill-rule="nonzero" stroke="#fff" stroke-width="0.800000012"/>
		<path id="Vector" d="M48.3089 51.9011L48.0497 51.9011C47.395 51.9112 46.7434 51.8086 46.1235 51.5976C44.666 51.0372 43.7993 49.7211 43.5375 47.6825C43.2397 45.2703 43.0717 42.8439 43.0341 40.4137C43.0025 39.0105 43.0203 37.5663 43.0899 35.8712C43.2264 32.68 43.5079 30.4739 43.5511 30.1492C43.5063 29.1145 42.9968 15.0836 47.9047 10.2312C48.3913 9.78916 48.9883 9.48673 49.6325 9.35583C50.2767 9.22493 50.9443 9.2704 51.5649 9.48744C53.6521 10.1702 55.5646 11.3013 57.1684 12.8015C63.3552 18.0623 70.3479 28.5731 70.8544 36.379L70.9266 37.6937C71.1277 40.1948 71.1962 42.7049 71.132 45.2133L71.1319 45.2146C71.0136 46.8376 70.6607 47.7568 69.9519 48.2882C68.8706 49.0988 67.0512 48.7891 64.5991 48.263C64.1725 48.1786 63.7384 48.1385 63.3036 48.1432L62.7112 48.1432C62.6176 48.1467 62.5244 48.1571 62.4323 48.1741C62.3568 48.1791 62.2818 48.189 62.2078 48.204C62.1411 48.2175 62.0738 48.2274 62.0061 48.2334C61.9741 48.2367 61.9419 48.2392 61.9099 48.2456C61.8914 48.2493 61.8727 48.2518 61.854 48.2532C61.8229 48.2593 61.7912 48.2654 61.7574 48.2691C61.7187 48.2819 61.6784 48.2892 61.6377 48.2909C61.6225 48.2948 61.6076 48.3005 61.5925 48.3056C61.5705 48.3129 61.548 48.3184 61.5252 48.3222C61.4144 48.3407 61.3035 48.3591 61.1752 48.3776C61.081 48.3961 60.9699 48.4148 60.8587 48.4333C60.8152 48.4406 60.7713 48.4521 60.7274 48.463C60.6664 48.4783 60.6055 48.4931 60.5447 48.5041L60.1161 48.6112C60.0444 48.6292 59.9774 48.647 59.9103 48.6649C59.8457 48.6822 59.781 48.6994 59.7128 48.7166C59.684 48.7287 59.654 48.7379 59.6234 48.7442C59.5636 48.761 59.5006 48.7779 59.4378 48.7946C59.3708 48.8125 59.3039 48.8303 59.2414 48.8482C59.1613 48.8684 59.0954 48.8893 59.0294 48.9098C58.9474 48.9355 58.8653 48.9609 58.7832 48.9815C58.7076 48.9997 58.6337 49.0245 58.5624 49.0556C58.5484 49.0612 58.5341 49.0661 58.5195 49.0703C58.4054 49.1001 58.2933 49.1371 58.1838 49.181L58.1493 49.1942C57.9539 49.2593 57.7538 49.3244 57.5539 49.3895C57.3559 49.454 57.1579 49.5185 56.9645 49.5829C56.758 49.645 56.6085 49.6965 56.4519 49.7591L56.4276 49.7681C56.3688 49.7876 56.3051 49.8072 56.2414 49.8269C56.1847 49.8443 56.1281 49.8617 56.0757 49.8791L56.0034 49.9028C55.9278 49.925 55.8538 49.9524 55.782 49.9847C55.7633 49.994 55.7441 50.002 55.7243 50.0086C55.5591 50.0638 55.3999 50.1168 55.2582 50.1699C55.1246 50.2147 55.0085 50.2532 54.8729 50.292C54.8064 50.3147 54.717 50.3429 54.6276 50.371C54.5413 50.3984 54.4548 50.4257 54.3729 50.4529C54.2326 50.4998 54.0877 50.5464 53.9429 50.5932C53.8008 50.639 53.6587 50.6849 53.5212 50.7307C53.3037 50.8032 53.079 50.8781 52.8488 50.937C52.8003 50.9551 52.7519 50.9699 52.7035 50.9845C52.6696 50.9947 52.6355 51.0043 52.6018 51.0178C52.5427 51.0414 52.4841 51.0596 52.4253 51.0772C52.3914 51.0874 52.3575 51.097 52.3237 51.1105C52.3051 51.1179 52.2861 51.1241 52.2667 51.1289C52.2398 51.1356 52.2096 51.1463 52.1793 51.1564C52.1263 51.1741 52.0731 51.1913 52.0261 51.2031C51.3487 51.4 50.8179 51.5341 50.3211 51.6333C50.2794 51.6431 50.2373 51.6507 50.1949 51.6561C50.1758 51.6583 50.1567 51.6615 50.1379 51.6658C50.1098 51.6728 50.081 51.6771 50.052 51.6785C50.0334 51.6826 50.0152 51.6861 49.9974 51.6893L49.9961 51.6896C49.9819 51.6947 49.9674 51.6991 49.9527 51.7028C49.8945 51.7165 49.8356 51.7263 49.7761 51.7323C49.7498 51.7355 49.722 51.7383 49.6914 51.7445C49.6482 51.7543 49.6046 51.7617 49.5606 51.7669C49.5478 51.7686 49.5356 51.7699 49.5242 51.7722C49.4975 51.7815 49.4696 51.7871 49.4414 51.789C49.4101 51.7968 49.3783 51.8024 49.3463 51.8058C49.302 51.8136 49.2609 51.8187 49.2216 51.8232C49.1998 51.8249 49.1781 51.828 49.1566 51.8324C49.0855 51.8467 49.0136 51.8566 48.9413 51.8623C48.9074 51.8644 48.8736 51.8683 48.84 51.874C48.8114 51.8797 48.7823 51.8826 48.7532 51.8826L48.5309 51.8826C48.5122 51.8834 48.4935 51.8853 48.4749 51.8885C48.4199 51.8961 48.3644 51.9004 48.3089 51.9011ZM50.2563 10.1976C49.9386 10.1849 49.6216 10.237 49.3248 10.3509C49.028 10.4647 48.7574 10.6378 48.5297 10.8597C43.819 15.5172 44.4315 30.0028 44.4383 30.1487C44.4396 30.176 44.4383 30.2033 44.4345 30.2303C44.4314 30.2527 44.1209 32.5113 43.9755 35.9083C43.9067 37.5835 43.8891 39.0098 43.9203 40.3964C43.9573 42.7951 44.123 45.1901 44.4168 47.5711C44.6369 49.284 45.296 50.3298 46.4317 50.7667C46.9469 50.9396 47.4878 51.0235 48.0312 51.0148L48.3089 51.0148C48.3277 51.014 48.3465 51.0121 48.365 51.009C48.42 51.0013 48.4755 50.9971 48.531 50.9963L48.7155 50.9963C48.7625 50.9891 48.8118 50.9841 48.8612 50.9796C48.8952 50.9775 48.929 50.9736 48.9625 50.968C49.014 50.9564 49.0661 50.9481 49.1186 50.943C49.1448 50.9398 49.1726 50.937 49.2033 50.9308C49.2171 50.9281 49.2309 50.9261 49.2448 50.9246C49.2698 50.9183 49.295 50.9133 49.3205 50.9096C49.3612 50.9003 49.4023 50.8932 49.4437 50.8883C49.4615 50.8865 49.4792 50.8838 49.4967 50.8801C49.5741 50.8641 49.625 50.8577 49.673 50.8521C49.6886 50.8503 49.7036 50.8491 49.7182 50.8468C49.758 50.8337 49.7988 50.8238 49.8402 50.817C49.8863 50.8026 49.9341 50.7944 49.9823 50.7928C50.0125 50.7871 50.0411 50.7827 50.0698 50.7786C50.089 50.7764 50.108 50.7732 50.1269 50.7689C50.6186 50.67 51.1268 50.5415 51.7954 50.3475C51.8383 50.3365 51.8685 50.3258 51.8988 50.3157C51.9409 50.3017 51.983 50.288 52.0221 50.277C52.0717 50.2584 52.1212 50.2432 52.1709 50.2282C52.2046 50.2182 52.2386 50.2086 52.2725 50.195C52.3311 50.1716 52.39 50.1533 52.4488 50.1356C52.4826 50.1255 52.5165 50.1159 52.5502 50.1024C52.5688 50.095 52.5879 50.0888 52.6073 50.0839C52.8138 50.0323 53.031 49.9599 53.241 49.8898C53.3813 49.8432 53.5261 49.7964 53.671 49.7497C53.8131 49.7038 53.9552 49.6581 54.0927 49.6122C54.1788 49.5835 54.2699 49.5546 54.361 49.526C54.4458 49.4991 54.5306 49.4724 54.611 49.4456C54.7513 49.405 54.8561 49.3699 54.9609 49.3351C55.0927 49.2854 55.254 49.2312 55.4168 49.1769C55.5189 49.131 55.6238 49.0918 55.7309 49.0594L55.7953 49.0383C55.8543 49.0187 55.9177 48.9992 55.981 48.9797C56.0337 48.9636 56.0865 48.9473 56.1357 48.9311C56.3133 48.8606 56.4821 48.8026 56.6972 48.7381C56.8796 48.677 57.0797 48.6118 57.2796 48.5468C57.472 48.4842 57.6644 48.4215 57.8525 48.3589C57.9837 48.3059 58.1179 48.261 58.2545 48.2243C58.3623 48.1783 58.4742 48.1424 58.5887 48.1172C58.6336 48.1053 58.6994 48.0845 58.7651 48.0639C58.8475 48.0382 58.93 48.0128 59.0124 47.9921C59.0653 47.9767 59.1373 47.9575 59.2092 47.9383C59.2717 47.9217 59.3343 47.905 59.3932 47.8883C59.4264 47.8742 59.4611 47.8637 59.4965 47.8572C59.5605 47.8409 59.6213 47.8247 59.6821 47.8086C59.7534 47.7896 59.8248 47.7705 59.901 47.7515L60.3453 47.6404L60.38 47.6332C60.4241 47.6259 60.4681 47.6143 60.5123 47.6032C60.579 47.5866 60.6459 47.5703 60.7126 47.5591C60.8192 47.5413 60.9254 47.5238 61.0138 47.5062L61.038 47.5019C61.1508 47.4858 61.2492 47.4697 61.3459 47.4536C61.4022 47.4347 61.46 47.4207 61.5187 47.412C61.566 47.3971 61.6152 47.3887 61.6648 47.387C61.6986 47.3799 61.7329 47.3744 61.7673 47.3707C61.8175 47.362 61.8675 47.3566 61.9177 47.3515C61.9496 47.3484 61.9815 47.3458 62.0136 47.3394C62.1136 47.3137 62.216 47.2987 62.3191 47.2945C62.4487 47.2719 62.5797 47.2593 62.7112 47.2569L63.3036 47.2569C63.8 47.2521 64.2956 47.2986 64.7825 47.3958C67.3007 47.9362 68.7086 48.1126 69.4202 47.5791C69.8962 47.2223 70.1514 46.4731 70.2479 45.1501C70.3082 42.679 70.2393 40.2064 70.0416 37.7425L69.9696 36.4317C69.4784 28.862 62.6434 18.6205 56.5928 13.4756C55.0913 12.0646 53.301 10.9969 51.346 10.3463C50.9903 10.2519 50.6243 10.202 50.2563 10.1976Z" fill="#fff" fill-rule="nonzero"/>
		<path id="Vector" d="M48.0497 51.9011C47.395 51.9112 46.7434 51.8086 46.1235 51.5976C44.666 51.0372 43.7993 49.7211 43.5375 47.6825C43.2397 45.2703 43.0717 42.8439 43.0341 40.4137C43.0025 39.0105 43.0203 37.5663 43.0899 35.8712C43.2264 32.68 43.5079 30.4739 43.5511 30.1492C43.5063 29.1145 42.9968 15.0836 47.9047 10.2312C48.3913 9.78916 48.9883 9.48673 49.6325 9.35583C50.2767 9.22493 50.9443 9.2704 51.5649 9.48744C53.6521 10.1702 55.5646 11.3013 57.1684 12.8015C63.3552 18.0623 70.3479 28.5731 70.8544 36.379L70.9266 37.6937C71.1277 40.1948 71.1962 42.7049 71.132 45.2133L71.1319 45.2146C71.0136 46.8376 70.6607 47.7568 69.9519 48.2882C68.8706 49.0988 67.0512 48.7891 64.5991 48.263C64.1725 48.1786 63.7384 48.1385 63.3036 48.1432L62.7112 48.1432C62.6176 48.1467 62.5244 48.1571 62.4323 48.1741C62.3568 48.1791 62.2818 48.189 62.2078 48.204C62.1411 48.2175 62.0738 48.2274 62.0061 48.2334C61.9741 48.2367 61.9419 48.2392 61.9099 48.2456C61.8914 48.2493 61.8727 48.2518 61.854 48.2532C61.8229 48.2593 61.7912 48.2654 61.7574 48.2691C61.7187 48.2819 61.6784 48.2892 61.6377 48.2909C61.6225 48.2948 61.6076 48.3005 61.5925 48.3056C61.5705 48.3129 61.548 48.3184 61.5252 48.3222C61.4144 48.3407 61.3035 48.3591 61.1752 48.3776C61.081 48.3961 60.9699 48.4148 60.8587 48.4333C60.8152 48.4406 60.7713 48.4521 60.7274 48.463C60.6664 48.4783 60.6055 48.4931 60.5447 48.5041L60.1161 48.6112C60.0444 48.6292 59.9774 48.647 59.9103 48.6649C59.8457 48.6822 59.781 48.6994 59.7128 48.7166C59.684 48.7287 59.654 48.7379 59.6234 48.7442C59.5636 48.761 59.5006 48.7779 59.4378 48.7946C59.3708 48.8125 59.3039 48.8303 59.2414 48.8482C59.1613 48.8684 59.0954 48.8893 59.0294 48.9098C58.9474 48.9355 58.8653 48.9609 58.7832 48.9815C58.7076 48.9997 58.6337 49.0245 58.5624 49.0556C58.5484 49.0612 58.5341 49.0661 58.5195 49.0703C58.4054 49.1001 58.2933 49.1371 58.1838 49.181L58.1493 49.1942C57.9539 49.2593 57.7538 49.3244 57.5539 49.3895C57.3559 49.454 57.1579 49.5185 56.9645 49.5829C56.758 49.645 56.6085 49.6965 56.4519 49.7591L56.4276 49.7681C56.3688 49.7876 56.3051 49.8072 56.2414 49.8269C56.1847 49.8443 56.1281 49.8617 56.0757 49.8791L56.0034 49.9028C55.9278 49.925 55.8538 49.9524 55.782 49.9847C55.7633 49.994 55.7441 50.002 55.7243 50.0086C55.5591 50.0638 55.3999 50.1168 55.2582 50.1699C55.1246 50.2147 55.0085 50.2532 54.8729 50.292C54.8064 50.3147 54.717 50.3429 54.6276 50.371C54.5413 50.3984 54.4548 50.4257 54.3729 50.4529C54.2326 50.4998 54.0877 50.5464 53.9429 50.5932C53.8008 50.639 53.6587 50.6849 53.5212 50.7307C53.3037 50.8032 53.079 50.8781 52.8488 50.937C52.8003 50.9551 52.7519 50.9699 52.7035 50.9845C52.6696 50.9947 52.6355 51.0043 52.6018 51.0178C52.5427 51.0414 52.4841 51.0596 52.4253 51.0772C52.3914 51.0874 52.3575 51.097 52.3237 51.1105C52.3051 51.1179 52.2861 51.1241 52.2667 51.1289C52.2398 51.1356 52.2096 51.1463 52.1793 51.1564C52.1263 51.1741 52.0731 51.1913 52.0261 51.2031C51.3487 51.4 50.8179 51.5341 50.3211 51.6333C50.2794 51.6431 50.2373 51.6507 50.1949 51.6561C50.1758 51.6583 50.1567 51.6615 50.1379 51.6658C50.1098 51.6728 50.081 51.6771 50.052 51.6785C50.0334 51.6826 50.0152 51.6861 49.9974 51.6893L49.9961 51.6896C49.9819 51.6947 49.9674 51.6991 49.9527 51.7028C49.8945 51.7165 49.8356 51.7263 49.7761 51.7323C49.7498 51.7355 49.722 51.7383 49.6914 51.7445C49.6482 51.7543 49.6046 51.7617 49.5606 51.7669C49.5478 51.7686 49.5356 51.7699 49.5242 51.7722C49.4975 51.7815 49.4696 51.7871 49.4414 51.789C49.4101 51.7968 49.3783 51.8024 49.3463 51.8058C49.302 51.8136 49.2609 51.8187 49.2216 51.8232C49.1998 51.8249 49.1781 51.828 49.1566 51.8324C49.0855 51.8467 49.0136 51.8566 48.9413 51.8623C48.9074 51.8644 48.8736 51.8683 48.84 51.874C48.8114 51.8797 48.7823 51.8826 48.7532 51.8826L48.5309 51.8826C48.5122 51.8834 48.4935 51.8853 48.4749 51.8885C48.4199 51.8961 48.3644 51.9004 48.3089 51.9011L48.0497 51.9011ZM49.3248 10.3509C49.028 10.4647 48.7574 10.6378 48.5297 10.8597C43.819 15.5172 44.4315 30.0028 44.4383 30.1487C44.4396 30.176 44.4383 30.2033 44.4345 30.2303C44.4314 30.2527 44.1209 32.5113 43.9755 35.9083C43.9067 37.5835 43.8891 39.0098 43.9203 40.3964C43.9573 42.7951 44.123 45.1901 44.4168 47.5711C44.6369 49.284 45.296 50.3298 46.4317 50.7667C46.9469 50.9396 47.4878 51.0235 48.0312 51.0148L48.3089 51.0148C48.3277 51.014 48.3465 51.0121 48.365 51.009C48.42 51.0013 48.4755 50.9971 48.531 50.9963L48.7155 50.9963C48.7625 50.9891 48.8118 50.9841 48.8612 50.9796C48.8952 50.9775 48.929 50.9736 48.9625 50.968C49.014 50.9564 49.0661 50.9481 49.1186 50.943C49.1448 50.9398 49.1726 50.937 49.2033 50.9308C49.2171 50.9281 49.2309 50.9261 49.2448 50.9246C49.2698 50.9183 49.295 50.9133 49.3205 50.9096C49.3612 50.9003 49.4023 50.8932 49.4437 50.8883C49.4615 50.8865 49.4792 50.8838 49.4967 50.8801C49.5741 50.8641 49.625 50.8577 49.673 50.8521C49.6886 50.8503 49.7036 50.8491 49.7182 50.8468C49.758 50.8337 49.7988 50.8238 49.8402 50.817C49.8863 50.8026 49.9341 50.7944 49.9823 50.7928C50.0125 50.7871 50.0411 50.7827 50.0698 50.7786C50.089 50.7764 50.108 50.7732 50.1269 50.7689C50.6186 50.67 51.1268 50.5415 51.7954 50.3475C51.8383 50.3365 51.8685 50.3258 51.8988 50.3157C51.9409 50.3017 51.983 50.288 52.0221 50.277C52.0717 50.2584 52.1212 50.2432 52.1709 50.2282C52.2046 50.2182 52.2386 50.2086 52.2725 50.195C52.3311 50.1716 52.39 50.1533 52.4488 50.1356C52.4826 50.1255 52.5165 50.1159 52.5502 50.1024C52.5688 50.095 52.5879 50.0888 52.6073 50.0839C52.8138 50.0323 53.031 49.9599 53.241 49.8898C53.3813 49.8432 53.5261 49.7964 53.671 49.7497C53.8131 49.7038 53.9552 49.6581 54.0927 49.6122C54.1788 49.5835 54.2699 49.5546 54.361 49.526C54.4458 49.4991 54.5306 49.4724 54.611 49.4456C54.7513 49.405 54.8561 49.3699 54.9609 49.3351C55.0927 49.2854 55.254 49.2312 55.4168 49.1769C55.5189 49.131 55.6238 49.0918 55.7309 49.0594L55.7953 49.0383C55.8543 49.0187 55.9177 48.9992 55.981 48.9797C56.0337 48.9636 56.0865 48.9473 56.1357 48.9311C56.3133 48.8606 56.4821 48.8026 56.6972 48.7381C56.8796 48.677 57.0797 48.6118 57.2796 48.5468C57.472 48.4842 57.6644 48.4215 57.8525 48.3589C57.9837 48.3059 58.1179 48.261 58.2545 48.2243C58.3623 48.1783 58.4742 48.1424 58.5887 48.1172C58.6336 48.1053 58.6994 48.0845 58.7651 48.0639C58.8475 48.0382 58.93 48.0128 59.0124 47.9921C59.0653 47.9767 59.1373 47.9575 59.2092 47.9383C59.2717 47.9217 59.3343 47.905 59.3932 47.8883C59.4264 47.8742 59.4611 47.8637 59.4965 47.8572C59.5605 47.8409 59.6213 47.8247 59.6821 47.8086C59.7534 47.7896 59.8248 47.7705 59.901 47.7515L60.3453 47.6404L60.38 47.6332C60.4241 47.6259 60.4681 47.6143 60.5123 47.6032C60.579 47.5866 60.6459 47.5703 60.7126 47.5591C60.8192 47.5413 60.9254 47.5238 61.0138 47.5062L61.038 47.5019C61.1508 47.4858 61.2492 47.4697 61.3459 47.4536C61.4022 47.4347 61.46 47.4207 61.5187 47.412C61.566 47.3971 61.6152 47.3887 61.6648 47.387C61.6986 47.3799 61.7329 47.3744 61.7673 47.3707C61.8175 47.362 61.8675 47.3566 61.9177 47.3515C61.9496 47.3484 61.9815 47.3458 62.0136 47.3394C62.1136 47.3137 62.216 47.2987 62.3191 47.2945C62.4487 47.2719 62.5797 47.2593 62.7112 47.2569L63.3036 47.2569C63.8 47.2521 64.2956 47.2986 64.7825 47.3958C67.3007 47.9362 68.7086 48.1126 69.4202 47.5791C69.8962 47.2223 70.1514 46.4731 70.2479 45.1501C70.3082 42.679 70.2393 40.2064 70.0416 37.7425L69.9696 36.4317C69.4784 28.862 62.6434 18.6205 56.5928 13.4756C55.0913 12.0646 53.301 10.9969 51.346 10.3463C50.9903 10.2519 50.6243 10.202 50.2563 10.1976C49.9386 10.1849 49.6216 10.237 49.3248 10.3509ZM61.8375 48.2541L61.8227 48.2543" fill-rule="nonzero" stroke="#fff" stroke-width="0.800000012"/>
		<path id="Vector" d="M38.2943 4.17415C36.6444 4.17415 35.3521 3.34527 35.3521 2.28702C35.3521 1.22877 36.6444 0.399902 38.2943 0.399902C39.9742 0.422402 41.2365 1.23364 41.2365 2.28702C41.2365 3.34527 39.9441 4.17415 38.2943 4.17415ZM38.2883 1.28623C37.1175 1.28623 36.2383 1.81465 36.2383 2.28702C36.2383 2.75939 37.1175 3.28782 38.2942 3.28782C39.4709 3.28782 40.3501 2.7594 40.3501 2.28702C40.3502 1.82677 39.5034 1.30243 38.2883 1.28623Z" fill="#fff" fill-rule="nonzero"/>
		<path id="Vector" d="M35.3521 2.28702C35.3521 1.22877 36.6444 0.399902 38.2943 0.399902C39.9742 0.422402 41.2365 1.23364 41.2365 2.28702C41.2365 3.34527 39.9441 4.17415 38.2943 4.17415C36.6444 4.17415 35.3521 3.34527 35.3521 2.28702ZM36.2383 2.28702C36.2383 2.75939 37.1175 3.28782 38.2942 3.28782C39.4709 3.28782 40.3501 2.7594 40.3501 2.28702C40.3502 1.82677 39.5034 1.30243 38.2883 1.28623C37.1175 1.28623 36.2383 1.81465 36.2383 2.28702Z" fill-rule="nonzero" stroke="#fff" stroke-width="0.800000012"/>
		<path id="Vector" d="M29.074 51.8495C27.5247 51.7782 25.9929 51.4907 24.5231 50.9955C23.5417 50.7015 22.5099 50.3519 21.5119 50.0138C18.2271 48.9009 14.8308 47.7498 12.4331 48.2647C9.88576 48.8089 8.13608 49.1048 7.06156 48.2941C6.357 47.7623 6.00956 46.8412 5.89988 45.2138C5.84371 42.2406 5.95497 39.2666 6.23312 36.3058C6.85502 26.6076 17.5977 12.3847 24.6895 9.68671C27.0864 8.77518 28.4559 9.44014 29.1828 10.1589C33.5473 14.4682 33.6317 26.1908 33.5536 29.681C33.5537 29.88 33.5443 30.028 33.538 30.1053C33.5846 30.4508 33.8444 32.4659 33.979 35.408C34.0455 37.1385 34.0699 38.7562 34.0535 40.357L34.0534 40.3598C34.0159 42.7895 33.8479 45.2154 33.5502 47.6271C33.2882 49.6674 32.4214 50.9834 30.9741 51.54C30.3647 51.7575 29.7209 51.8624 29.074 51.8495ZM13.7253 47.2527C16.125 47.2527 18.9996 48.2267 21.7963 49.1743C22.787 49.51 23.8112 49.8571 24.7776 50.1465C26.6961 50.7221 29.0982 51.3067 30.6573 50.7123C31.7916 50.276 32.4507 49.2303 32.6709 47.5157C32.9645 45.1367 33.1302 42.7438 33.1672 40.3471C33.1835 38.7613 33.1592 37.1578 33.0934 35.4453C32.9484 32.2712 32.6562 30.1986 32.6533 30.178C32.648 30.141 32.6474 30.1036 32.6516 30.0664C32.6517 30.0658 32.6674 29.9163 32.6674 29.6711C32.7435 26.2606 32.6722 14.8499 28.5599 10.7895C27.7715 10.0098 26.5755 9.91777 25.0047 10.5152C21.7955 11.7362 17.5099 15.6722 13.8206 20.7872C9.84175 26.3037 7.39859 31.9812 7.11764 36.3637C6.84352 39.2851 6.73219 42.2195 6.78418 45.1532C6.87366 46.4805 7.12381 47.2307 7.59553 47.5867C8.29858 48.1174 9.71376 47.9395 12.2474 47.398C12.7336 47.2977 13.229 47.2489 13.7253 47.2527Z" fill="#fff" fill-rule="nonzero"/>
		<path id="Vector" d="M24.5231 50.9955C23.5417 50.7015 22.5099 50.3519 21.5119 50.0138C18.2271 48.9009 14.8308 47.7498 12.4331 48.2647C9.88576 48.8089 8.13608 49.1048 7.06156 48.2941C6.357 47.7623 6.00956 46.8412 5.89988 45.2138C5.84371 42.2406 5.95497 39.2666 6.23312 36.3058C6.85502 26.6076 17.5977 12.3847 24.6895 9.68671C27.0864 8.77518 28.4559 9.44014 29.1828 10.1589C33.5473 14.4682 33.6317 26.1908 33.5536 29.681C33.5537 29.88 33.5443 30.028 33.538 30.1053C33.5846 30.4508 33.8444 32.4659 33.979 35.408C34.0455 37.1385 34.0699 38.7562 34.0535 40.357L34.0534 40.3598C34.0159 42.7895 33.8479 45.2154 33.5502 47.6271C33.2882 49.6674 32.4214 50.9834 30.9741 51.54C30.3647 51.7575 29.7209 51.8624 29.074 51.8495C27.5247 51.7782 25.9929 51.4907 24.5231 50.9955ZM21.7963 49.1743C22.787 49.51 23.8112 49.8571 24.7776 50.1465C26.6961 50.7221 29.0982 51.3067 30.6573 50.7123C31.7916 50.276 32.4507 49.2303 32.6709 47.5157C32.9645 45.1367 33.1302 42.7438 33.1672 40.3471C33.1835 38.7613 33.1592 37.1578 33.0934 35.4453C32.9484 32.2712 32.6562 30.1986 32.6533 30.178C32.648 30.141 32.6474 30.1036 32.6516 30.0664C32.6517 30.0658 32.6674 29.9163 32.6674 29.6711C32.7435 26.2606 32.6722 14.8499 28.5599 10.7895C27.7715 10.0098 26.5755 9.91777 25.0047 10.5152C21.7955 11.7362 17.5099 15.6722 13.8206 20.7872C9.84175 26.3037 7.39859 31.9812 7.11764 36.3637C6.84352 39.2851 6.73219 42.2195 6.78418 45.1532C6.87366 46.4805 7.12381 47.2307 7.59553 47.5867C8.29858 48.1174 9.71376 47.9395 12.2474 47.398C12.7336 47.2977 13.229 47.2489 13.7253 47.2527C16.125 47.2527 18.9996 48.2267 21.7963 49.1743Z" fill-rule="nonzero" stroke="#fff" stroke-width="0.800000012"/>
		<path id="Vector" d="M43.4959 36.2744C43.4377 36.2744 43.38 36.2629 43.3263 36.2406C43.2725 36.2184 43.2236 36.1857 43.1825 36.1445L38.3125 31.2746L33.8497 35.7373C33.7889 35.798 33.7118 35.8398 33.6277 35.8576C33.5436 35.8753 33.4562 35.8682 33.3761 35.8372C33.296 35.8061 33.2266 35.7524 33.1765 35.6826C33.1263 35.6129 33.0975 35.53 33.0936 35.4442C32.9484 32.2668 32.6563 30.1942 32.6534 30.1736C32.6504 30.1529 32.6489 30.1319 32.6489 30.111C32.6489 30.111 32.6486 29.9536 32.6683 29.6391C32.675 29.5313 32.7209 29.4297 32.7973 29.3534L35.3887 26.7618L35.3887 2.28837C35.3887 2.17084 35.4354 2.05812 35.5185 1.97501C35.6016 1.89191 35.7143 1.84521 35.8318 1.84521C35.9494 1.84521 36.0621 1.89191 36.1452 1.97501C36.2283 2.05812 36.275 2.17084 36.275 2.28837C36.275 2.76076 37.1542 3.28918 38.3309 3.28918C39.5076 3.28918 40.3869 2.76076 40.3869 2.28837C40.3869 2.17084 40.4336 2.05812 40.5167 1.97501C40.5998 1.89191 40.7125 1.84521 40.8301 1.84521C40.9476 1.84521 41.0603 1.89191 41.1434 1.97501C41.2265 2.05812 41.2732 2.17084 41.2732 2.28837L41.2732 26.7634L44.2738 29.7995C44.3221 29.8484 44.3583 29.9078 44.3797 29.973C44.4011 30.0383 44.407 30.1077 44.397 30.1756C44.3938 30.198 44.0657 32.4541 43.9386 35.8478C43.9343 35.9624 43.8858 36.0708 43.8032 36.1504C43.7207 36.2299 43.6105 36.2743 43.4959 36.2744ZM38.3124 30.2047C38.3706 30.2046 38.4283 30.216 38.482 30.2383C38.5358 30.2606 38.5847 30.2933 38.6257 30.3345L43.0977 34.8065C43.217 32.4956 43.415 30.8412 43.4901 30.2673L40.5149 27.2569C40.4329 27.174 40.3869 27.062 40.3869 26.9454L40.3869 3.65012C39.7565 3.99484 39.0495 4.17551 38.3309 4.17551C37.6124 4.17551 36.9054 3.99484 36.275 3.65012L36.275 26.9454C36.2749 27.0629 36.2282 27.1756 36.1451 27.2587L33.5435 29.8604C33.5381 29.9713 33.5362 30.0455 33.5355 30.083C33.5701 30.3369 33.7833 31.9594 33.927 34.4066L37.9991 30.3345C38.0402 30.2933 38.089 30.2606 38.1428 30.2383C38.1965 30.216 38.2542 30.2046 38.3124 30.2047Z" fill="#fff" fill-rule="nonzero"/>
		<path id="Vector" d="M43.3263 36.2406C43.2725 36.2184 43.2236 36.1857 43.1825 36.1445L38.3125 31.2746L33.8497 35.7373C33.7889 35.798 33.7118 35.8398 33.6277 35.8576C33.5436 35.8753 33.4562 35.8682 33.3761 35.8372C33.296 35.8061 33.2266 35.7524 33.1765 35.6826C33.1263 35.6129 33.0975 35.53 33.0936 35.4442C32.9484 32.2668 32.6563 30.1942 32.6534 30.1736C32.6504 30.1529 32.6489 30.1319 32.6489 30.111C32.6489 30.111 32.6486 29.9536 32.6683 29.6391C32.675 29.5313 32.7209 29.4297 32.7973 29.3534L35.3887 26.7618L35.3887 2.28837C35.3887 2.17084 35.4354 2.05812 35.5185 1.97501C35.6016 1.89191 35.7143 1.84521 35.8318 1.84521C35.9494 1.84521 36.0621 1.89191 36.1452 1.97501C36.2283 2.05812 36.275 2.17084 36.275 2.28837C36.275 2.76076 37.1542 3.28918 38.3309 3.28918C39.5076 3.28918 40.3869 2.76076 40.3869 2.28837C40.3869 2.17084 40.4336 2.05812 40.5167 1.97501C40.5998 1.89191 40.7125 1.84521 40.8301 1.84521C40.9476 1.84521 41.0603 1.89191 41.1434 1.97501C41.2265 2.05812 41.2732 2.17084 41.2732 2.28837L41.2732 26.7634L44.2738 29.7995C44.3221 29.8484 44.3583 29.9078 44.3797 29.973C44.4011 30.0383 44.407 30.1077 44.397 30.1756C44.3938 30.198 44.0657 32.4541 43.9386 35.8478C43.9343 35.9624 43.8858 36.0708 43.8032 36.1504C43.7207 36.2299 43.6105 36.2743 43.4959 36.2744C43.4377 36.2744 43.38 36.2629 43.3263 36.2406ZM38.482 30.2383C38.5358 30.2606 38.5847 30.2933 38.6257 30.3345L43.0977 34.8065C43.217 32.4956 43.415 30.8412 43.4901 30.2673L40.5149 27.2569C40.4329 27.174 40.3869 27.062 40.3869 26.9454L40.3869 3.65012C39.7565 3.99484 39.0495 4.17551 38.3309 4.17551C37.6124 4.17551 36.9054 3.99484 36.275 3.65012L36.275 26.9454C36.2749 27.0629 36.2282 27.1756 36.1451 27.2587L33.5435 29.8604C33.5381 29.9713 33.5362 30.0455 33.5355 30.083C33.5701 30.3369 33.7833 31.9594 33.927 34.4066L37.9991 30.3345C38.0402 30.2933 38.089 30.2606 38.1428 30.2383C38.1965 30.216 38.2542 30.2046 38.3124 30.2047C38.3706 30.2046 38.4283 30.216 38.482 30.2383Z" fill-rule="nonzero" stroke="#fff" stroke-width="0.800000012"/>
		<path id="Vector" d="M38.3126 13.9887C36.2372 13.9887 34.6113 12.9646 34.6113 11.6573C34.6247 11.3553 34.7091 11.0607 34.8577 10.7975C35.0062 10.5342 35.2147 10.3097 35.4663 10.1421C35.5589 10.0699 35.6763 10.0374 35.7929 10.0516C35.9094 10.0659 36.0155 10.1259 36.0879 10.2183C36.1603 10.3107 36.193 10.4281 36.1789 10.5447C36.1648 10.6613 36.105 10.7675 36.0127 10.84C35.8703 10.928 35.7498 11.0473 35.6605 11.189C35.5713 11.3306 35.5156 11.4908 35.4977 11.6573C35.4977 12.3551 36.6289 13.1023 38.3127 13.1023C39.9716 13.1023 41.1277 12.3407 41.1277 11.6573C41.1113 11.5003 41.0601 11.3489 40.9778 11.2142C40.8955 11.0795 40.7841 10.9649 40.6519 10.8787C40.5591 10.8068 40.4986 10.7009 40.4837 10.5844C40.4689 10.468 40.5009 10.3503 40.5727 10.2574C40.6445 10.1645 40.7503 10.1039 40.8668 10.0889C40.9832 10.0739 41.1009 10.1057 41.1939 10.1774C41.4371 10.3424 41.6381 10.5624 41.7806 10.8195C41.9231 11.0765 42.003 11.3636 42.014 11.6573C42.014 12.9647 40.3881 13.9887 38.3126 13.9887Z" fill="#fff" fill-rule="nonzero"/>
		<path id="Vector" d="M34.6113 11.6573C34.6247 11.3553 34.7091 11.0607 34.8577 10.7975C35.0062 10.5342 35.2147 10.3097 35.4663 10.1421C35.5589 10.0699 35.6763 10.0374 35.7929 10.0516C35.9094 10.0659 36.0155 10.1259 36.0879 10.2183C36.1603 10.3107 36.193 10.4281 36.1789 10.5447C36.1648 10.6613 36.105 10.7675 36.0127 10.84C35.8703 10.928 35.7498 11.0473 35.6605 11.189C35.5713 11.3306 35.5156 11.4908 35.4977 11.6573C35.4977 12.3551 36.6289 13.1023 38.3127 13.1023C39.9716 13.1023 41.1277 12.3407 41.1277 11.6573C41.1113 11.5003 41.0601 11.3489 40.9778 11.2142C40.8955 11.0795 40.7841 10.9649 40.6519 10.8787C40.5591 10.8068 40.4986 10.7009 40.4837 10.5844C40.4689 10.468 40.5009 10.3503 40.5727 10.2574C40.6445 10.1645 40.7503 10.1039 40.8668 10.0889C40.9832 10.0739 41.1009 10.1057 41.1939 10.1774C41.4371 10.3424 41.6381 10.5624 41.7806 10.8195C41.9231 11.0765 42.003 11.3636 42.014 11.6573C42.014 12.9647 40.3881 13.9887 38.3126 13.9887C36.2372 13.9887 34.6113 12.9646 34.6113 11.6573Z" fill-rule="nonzero" stroke="#fff" stroke-width="0.800000012"/>
		<path id="Vector" d="M38.3126 11.3013C36.2372 11.3013 34.6113 10.2772 34.6113 8.96989C34.6247 8.66789 34.7091 8.3733 34.8576 8.11002C35.0062 7.84675 35.2147 7.62221 35.4663 7.45464C35.5589 7.3824 35.6763 7.34985 35.7929 7.36413C35.9094 7.37841 36.0155 7.43836 36.0879 7.5308C36.1603 7.62325 36.193 7.74064 36.1789 7.8572C36.1648 7.97376 36.105 8.07996 36.0127 8.15248C35.8702 8.24047 35.7498 8.35986 35.6605 8.50153C35.5713 8.6432 35.5156 8.8034 35.4977 8.96989C35.4977 9.66774 36.6289 10.4149 38.3127 10.4149C39.9716 10.4149 41.1277 9.65331 41.1277 8.96989C41.1113 8.8129 41.0602 8.66153 40.9778 8.52684C40.8955 8.39215 40.7842 8.27752 40.652 8.19134C40.559 8.11948 40.4983 8.01363 40.4834 7.89706C40.4684 7.78049 40.5004 7.66276 40.5722 7.56976C40.6441 7.47676 40.7499 7.41611 40.8665 7.40115C40.9831 7.3862 41.1008 7.41816 41.1938 7.49001C41.4371 7.65498 41.6381 7.87492 41.7806 8.13202C41.9231 8.38911 42.0031 8.67615 42.014 8.96989C42.014 10.2772 40.3881 11.3013 38.3126 11.3013Z" fill="#fff" fill-rule="nonzero"/>
		<path id="Vector" d="M34.6113 8.96989C34.6247 8.66789 34.7091 8.3733 34.8576 8.11002C35.0062 7.84675 35.2147 7.62221 35.4663 7.45464C35.5589 7.3824 35.6763 7.34985 35.7929 7.36413C35.9094 7.37841 36.0155 7.43836 36.0879 7.5308C36.1603 7.62325 36.193 7.74064 36.1789 7.8572C36.1648 7.97376 36.105 8.07996 36.0127 8.15248C35.8702 8.24047 35.7498 8.35986 35.6605 8.50153C35.5713 8.6432 35.5156 8.8034 35.4977 8.96989C35.4977 9.66774 36.6289 10.4149 38.3127 10.4149C39.9716 10.4149 41.1277 9.65331 41.1277 8.96989C41.1113 8.8129 41.0602 8.66153 40.9778 8.52684C40.8955 8.39215 40.7842 8.27752 40.652 8.19134C40.559 8.11948 40.4983 8.01363 40.4834 7.89706C40.4684 7.78049 40.5004 7.66276 40.5722 7.56976C40.6441 7.47676 40.7499 7.41611 40.8665 7.40115C40.9831 7.3862 41.1008 7.41816 41.1938 7.49001C41.4371 7.65498 41.6381 7.87492 41.7806 8.13202C41.9231 8.38911 42.0031 8.67615 42.014 8.96989C42.014 10.2772 40.3881 11.3013 38.3126 11.3013C36.2372 11.3013 34.6113 10.2772 34.6113 8.96989Z" fill-rule="nonzero" stroke="#fff" stroke-width="0.800000012"/>
		<path id="Vector" d="M38.3126 8.63709C36.2372 8.63709 34.6113 7.61303 34.6113 6.30572C34.6247 6.00374 34.7091 5.70917 34.8577 5.44591C35.0062 5.18266 35.2147 4.95814 35.4663 4.79057C35.5589 4.71834 35.6763 4.68579 35.7929 4.70007C35.9094 4.71435 36.0155 4.77429 36.0879 4.86674C36.1603 4.95918 36.193 5.07657 36.1789 5.19313C36.1648 5.30969 36.105 5.4159 36.0127 5.48842C35.8703 5.5764 35.7498 5.69577 35.6605 5.83742C35.5713 5.97907 35.5156 6.13925 35.4977 6.30572C35.4977 7.00358 36.6289 7.75072 38.3127 7.75072C39.9716 7.75072 41.1277 6.98914 41.1277 6.30572C41.1113 6.14872 41.0601 5.99735 40.9778 5.86266C40.8955 5.72796 40.7841 5.61334 40.6519 5.52716C40.5591 5.45522 40.4986 5.34938 40.4837 5.23288C40.4689 5.11639 40.5009 4.99877 40.5727 4.90586C40.6445 4.81294 40.7503 4.75233 40.8668 4.73733C40.9832 4.72232 41.1009 4.75416 41.1939 4.82584C41.4371 4.99086 41.6381 5.21081 41.7806 5.4679C41.9231 5.72499 42.003 6.012 42.014 6.30572C42.014 7.61309 40.3881 8.63709 38.3126 8.63709Z" fill="#fff" fill-rule="nonzero"/>
		<path id="Vector" d="M34.6113 6.30572C34.6247 6.00374 34.7091 5.70917 34.8577 5.44591C35.0062 5.18266 35.2147 4.95814 35.4663 4.79057C35.5589 4.71834 35.6763 4.68579 35.7929 4.70007C35.9094 4.71435 36.0155 4.77429 36.0879 4.86674C36.1603 4.95918 36.193 5.07657 36.1789 5.19313C36.1648 5.30969 36.105 5.4159 36.0127 5.48842C35.8703 5.5764 35.7498 5.69577 35.6605 5.83742C35.5713 5.97907 35.5156 6.13925 35.4977 6.30572C35.4977 7.00358 36.6289 7.75072 38.3127 7.75072C39.9716 7.75072 41.1277 6.98914 41.1277 6.30572C41.1113 6.14872 41.0601 5.99735 40.9778 5.86266C40.8955 5.72796 40.7841 5.61334 40.6519 5.52716C40.5591 5.45522 40.4986 5.34938 40.4837 5.23288C40.4689 5.11639 40.5009 4.99877 40.5727 4.90586C40.6445 4.81294 40.7503 4.75233 40.8668 4.73733C40.9832 4.72232 41.1009 4.75416 41.1939 4.82584C41.4371 4.99086 41.6381 5.21081 41.7806 5.4679C41.9231 5.72499 42.003 6.012 42.014 6.30572C42.014 7.61309 40.3881 8.63709 38.3126 8.63709C36.2372 8.63709 34.6113 7.61303 34.6113 6.30572Z" fill-rule="nonzero" stroke="#fff" stroke-width="0.800000012"/>
	</g>
</svg>
