<svg viewBox="0 0 90.979 90.979" xmlns="http://www.w3.org/2000/svg" xmlns:xlink="http://www.w3.org/1999/xlink" width="90.979004" height="90.979004" fill="none" customFrame="#000000">
	<g id="Group">
		<g id="Group">
			<g id="Group">
				<g id="Group">
					<path id="Vector" d="M45.4895 90.9795C20.4139 90.9795 0 70.5655 0 45.49C0 20.4144 20.4139 0.000488281 45.4895 0.000488281C70.565 0.000488281 90.979 20.4144 90.979 45.49C90.979 70.5655 70.565 90.9795 45.4895 90.9795ZM45.4895 1.48607C21.2336 1.48607 1.48558 21.234 1.48558 45.49C1.48558 69.7459 21.2336 89.4939 45.4895 89.4939C69.7454 89.4939 89.4934 69.7459 89.4934 45.49C89.4934 21.234 69.7454 1.48607 45.4895 1.48607Z" fill="rgb(63,72,87)" fill-rule="nonzero"/>
				</g>
				<g id="Group">
					<path id="Vector" d="M52.9421 68.6258L38.0351 68.6258C37.6253 68.6258 37.2923 68.2929 37.2923 67.883L37.2923 53.6932L23.128 53.6932C22.7182 53.6932 22.3853 53.3602 22.3853 52.9504L22.3853 38.0434C22.3853 37.6336 22.7182 37.3006 23.128 37.3006L37.2923 37.3006L37.2923 23.1363C37.2923 22.7265 37.6253 22.3936 38.0351 22.3936L52.9421 22.3936C53.3519 22.3936 53.6849 22.7265 53.6849 23.1363L53.6849 37.3006L67.8491 37.3006C68.2589 37.3006 68.5919 37.6336 68.5919 38.0434L68.5919 52.9504C68.5919 53.3602 68.2589 53.6932 67.8491 53.6932L53.6849 53.6932L53.6849 67.8574C53.6849 68.2929 53.3519 68.6258 52.9421 68.6258ZM38.7779 67.1146L52.1993 67.1146L52.1993 52.9504C52.1993 52.5406 52.5323 52.2076 52.9421 52.2076L67.1063 52.2076L67.1063 38.7862L52.9421 38.7862C52.5323 38.7862 52.1993 38.4532 52.1993 38.0434L52.1993 23.8791L38.7779 23.8791L38.7779 38.0434C38.7779 38.4532 38.4449 38.7862 38.0351 38.7862L23.8708 38.7862L23.8708 52.2076L38.0351 52.2076C38.4449 52.2076 38.7779 52.5406 38.7779 52.9504L38.7779 67.1146Z" fill="rgb(63,72,87)" fill-rule="nonzero"/>
				</g>
			</g>
		</g>
	</g>
</svg>
