<svg viewBox="0 0 66 78" xmlns="http://www.w3.org/2000/svg" xmlns:xlink="http://www.w3.org/1999/xlink" width="66.000000" height="78.000000" fill="none" customFrame="#000000">
	<g id="Group 749">
		<path id="Vector" d="M14.0987 29.9865C6.32778 29.9865 0 23.6588 0 15.8878C0 8.11684 6.32778 1.78906 14.0987 1.78906C21.8697 1.78906 28.1975 8.11684 28.1975 15.8878C28.1975 23.6588 21.8697 29.9865 14.0987 29.9865ZM14.0987 3.1351C7.06324 3.1351 1.34604 8.85231 1.34604 15.8878C1.34604 22.9233 7.06324 28.6405 14.0987 28.6405C21.1342 28.6405 26.8514 22.9233 26.8514 15.8878C26.8514 8.85231 21.1342 3.1351 14.0987 3.1351Z" fill="#fff" fill-rule="nonzero"/>
		<path id="Vector" d="M16.3329 23.2822L11.8507 23.2822C11.476 23.2822 11.1846 22.9769 11.1846 22.6161L11.1846 18.8139L7.38239 18.8139C7.00772 18.8139 6.71631 18.5086 6.71631 18.1478L6.71631 13.6656C6.71631 13.291 7.02159 12.9996 7.38239 12.9996L11.1846 12.9996L11.1846 9.19734C11.1846 8.82266 11.4899 8.53125 11.8507 8.53125L16.3329 8.53125C16.7075 8.53125 16.999 8.83654 16.999 9.19734L16.999 12.9857L20.8012 12.9857C21.1758 12.9857 21.4673 13.291 21.4673 13.6518L21.4673 18.1339C21.4673 18.5086 21.162 18.8 20.8012 18.8L16.999 18.8L16.999 22.6022C16.999 22.9769 16.7075 23.2822 16.3329 23.2822ZM12.5307 21.9362L15.6668 21.9362L15.6668 18.1339C15.6668 17.7593 15.9721 17.4679 16.3329 17.4679L20.1351 17.4679L20.1351 14.3317L16.3329 14.3317C15.9582 14.3317 15.6668 14.0264 15.6668 13.6656L15.6668 9.86342L12.5307 9.86342L12.5307 13.6656C12.5307 14.0403 12.2254 14.3317 11.8646 14.3317L8.06235 14.3317L8.06235 17.4679L11.8646 17.4679C12.2392 17.4679 12.5307 17.7731 12.5307 18.1339L12.5307 21.9362Z" fill="#fff" fill-rule="nonzero"/>
		<path id="Vector" d="M15.981 28.8017C15.8909 29.9939 15.8369 31.222 15.8189 32.5038C15.4405 50.2973 28.2499 65.6436 40.3205 72.3755C47.7071 76.4989 54.6882 77.3236 58.9941 74.5807C62.9486 72.0528 64.7141 66.5938 64.0746 58.8041C64.0295 58.3111 64.3988 57.8808 64.8943 57.836C65.3897 57.8001 65.8221 58.1677 65.8671 58.6607C66.7409 69.3995 63.1377 74.0697 59.9579 76.0866C57.814 77.3953 55.3458 78.0587 52.8326 77.9959C48.8601 77.9959 44.257 76.6334 39.4287 73.9442C26.9167 66.9613 13.6209 51.0055 14.0083 32.4859C14.0173 31.3744 14.0623 30.2987 14.1344 29.2499L15.972 28.8107L15.981 28.8017ZM23.7549 6.04224C27.5923 2.5194 32.1413 0.672829 36.5552 0.161883C47.4819 -1.10203 57.5258 5.15481 59.9219 14.7462C60.7236 18.6814 61.3541 22.8676 60.5164 27.1434C60.4173 27.6275 59.9489 27.9412 59.4625 27.8515C58.976 27.7529 58.6518 27.2868 58.7508 26.8028C59.5255 22.8407 58.931 18.8607 58.1653 15.1407C55.9854 6.46354 46.7793 0.771432 36.7624 1.94571C32.6277 2.42976 28.358 4.19566 24.7638 7.58404L23.7549 6.04224ZM26.9797 18.3856C29.7812 11.7075 35.0239 7.98742 41.924 7.83503C46.1397 7.95156 49.3105 10.5332 50.6257 14.9166C51.4454 17.9016 51.4184 21.0569 50.5446 24.0239C33.7177 26.7579 30.9072 34.2787 30.7361 38.5366C30.4028 46.6848 38.9783 55.9715 49.0853 58.4097C49.6348 58.5441 50.1933 58.6159 50.7608 58.6159C52.7876 58.6159 54.7063 57.7015 55.9944 56.1418C57.751 54.0801 58.1743 51.1937 57.0844 48.7196C56.3998 47.4736 56.2016 46.0305 56.5079 44.65C58.0842 37.8105 55.9584 35.7847 54.5531 35.1841C51.7607 33.9919 47.635 36.4211 44.5363 41.0824C44.257 41.4947 44.3741 42.0505 44.7885 42.3283C45.2029 42.5973 45.7614 42.4897 46.0316 42.0773C48.8151 37.9001 52.184 36.1342 53.8325 36.8424C55.3278 37.4788 55.6611 40.2487 54.7513 44.2197C54.3549 45.9856 54.5892 47.8322 55.4269 49.4368C56.2466 51.2923 55.9223 53.4436 54.6072 54.9944C53.3821 56.4914 51.3913 57.1458 49.4997 56.6796C40.3295 54.4655 32.2404 45.8601 32.5286 38.6173C32.7809 32.4052 38.9333 27.9502 49.851 25.9781C48.761 28.6673 46.9144 30.9889 44.5363 32.6562C44.1309 32.9431 44.0228 33.4988 44.3111 33.9022C44.5903 34.3056 45.1578 34.4132 45.5632 34.1263C52.3912 29.4113 54.1478 20.4473 52.3372 14.4056C50.7878 9.22444 47.0045 6.1767 41.9149 6.04224C35.6425 6.18076 30.6355 8.91927 27.3202 13.8941C26.9885 14.3919 27.6176 15.5929 27.3202 16.1351L26.9617 18.3946L26.9797 18.3856ZM25.1853 22.8581C24.9666 23.7967 23.4737 24.1096 23.3333 25.0991C21.4026 38.7001 26.8579 56.6089 39.5459 65.1237C39.744 65.2581 39.9872 65.303 40.2215 65.2671C40.4557 65.2223 40.6628 65.0878 40.798 64.8817C40.9331 64.6844 40.9781 64.4424 40.9331 64.2094C40.888 63.9763 40.7439 63.7701 40.5457 63.6357C27.6267 54.9636 22.5193 35.2262 25.7257 22.2043C25.8237 21.8064 25.9294 21.4148 26.0429 21.03L25.1853 22.8581Z" fill="#fff" fill-rule="nonzero"/>
	</g>
</svg>
