<svg viewBox="0 0 88.7156 79.3213" xmlns="http://www.w3.org/2000/svg" xmlns:xlink="http://www.w3.org/1999/xlink" width="88.715576" height="79.321289" fill="none" customFrame="#000000">
	<g id="Group">
		<path id="Vector" d="M52.057 46.3062C52.2658 46.4593 52.5163 46.5289 52.7529 46.5289C52.9895 46.5289 53.24 46.4593 53.4488 46.3062C54.4927 45.5685 79.1559 28.0871 79.1559 14.6977C79.1559 6.59728 72.5726 0 64.486 0C59.8512 0 55.5087 2.21301 52.7529 5.87352C50.011 2.21301 45.6685 0 41.0337 0C32.9332 0 26.3359 6.59728 26.3359 14.6977C26.3359 28.0871 50.9992 45.5685 52.057 46.3062ZM41.0337 2.4357C45.4458 2.4357 49.5378 4.82965 51.6951 8.68502C51.9039 9.07474 52.3214 9.31135 52.7529 9.31135C53.24 9.28351 53.6019 9.07474 53.8107 8.68502C55.9819 4.82965 60.0739 2.4357 64.486 2.4357C71.2364 2.4357 76.7202 7.93343 76.7202 14.6977C76.7202 25.6654 56.7614 40.8642 52.739 43.8148C48.7305 40.8502 28.7716 25.6514 28.7716 14.6977C28.7716 7.93343 34.2694 2.4357 41.0337 2.4357Z" fill="rgb(63,72,87)" fill-rule="nonzero"/>
		<path id="Vector" d="M85.0548 53.8926C83.3428 52.974 81.3107 52.8209 79.4874 53.489L60.99 60.128C61.1014 59.7939 61.1849 59.4599 61.2406 59.112C61.5607 57.1077 61.004 55.0896 59.7095 53.5725C58.4151 52.0415 56.5222 51.1785 54.518 51.1785L44.3855 51.1785C42.0333 51.1785 39.7507 50.3573 37.816 48.8124C33.4039 45.2911 24.4405 40.6284 12.6935 47.2257L12.6935 44.9014C12.6935 43.2868 11.3852 41.9785 9.77066 41.9785L2.92285 41.9785C1.30833 41.9785 0 43.2868 0 44.9014L0 74.1855C0 75.8 1.30833 77.1083 2.92285 77.1083L9.77066 77.1083C11.3852 77.1083 12.6935 75.8 12.6935 74.1855L12.6935 72.7797C14.9204 72.7519 20.5713 73.072 28.6996 76.2593C33.905 78.2914 39.3192 79.3213 44.7195 79.3213C47.7119 79.3213 50.7044 79.0012 53.6411 78.361C65.249 75.8418 76.2584 71.5271 85.4584 65.8902C87.0033 64.9437 88.1168 63.371 88.5343 61.5755C89.2442 58.5135 87.8245 55.3679 85.0548 53.8926ZM10.2578 74.1437C10.2578 74.4221 10.0351 74.6309 9.77066 74.6309L2.92285 74.6309C2.65841 74.6309 2.4357 74.4082 2.4357 74.1437L2.4357 44.8596C2.4357 44.5952 2.65841 44.3725 2.92285 44.3725L9.77066 44.3725C10.0351 44.3725 10.2578 44.5952 10.2578 44.8596L10.2578 74.1437ZM86.1682 60.977C85.8899 62.1461 85.1661 63.1622 84.1918 63.7746C72.8484 70.7198 61.0318 74.2272 53.1262 75.9531C45.3737 77.6372 37.2454 76.9552 29.5903 73.9628C21.4481 70.7755 15.672 70.3162 12.9858 70.3162L12.6796 70.3162L12.6796 49.9955C23.7864 43.092 32.2209 47.4345 36.285 50.6775C38.6233 52.5425 41.5044 53.5864 44.3715 53.5864L54.5041 53.5864C55.7846 53.5864 57.0094 54.1431 57.8445 55.1313C58.6935 56.1195 59.0415 57.4 58.8188 58.7083C58.6239 59.9331 57.8445 60.977 56.7728 61.6312C56.6893 61.659 56.6197 61.7008 56.5501 61.7564C55.8542 62.1322 55.0469 62.341 54.1979 62.341L35.7979 62.341C35.1298 62.341 34.5731 62.8838 34.5731 63.5658C34.5731 64.2478 35.1159 64.7906 35.7979 64.7906L54.2257 64.7906C55.5201 64.7906 56.745 64.4566 57.8027 63.872L80.3086 55.7994C81.4917 55.3818 82.8 55.4793 83.9413 56.0917C85.709 56.9964 86.6275 59.0284 86.1682 60.977Z" fill="rgb(63,72,87)" fill-rule="nonzero"/>
		<path id="Vector" d="M42.795 27.5486L48.4737 27.5486L48.4737 33.2272C48.4737 34.3268 49.3644 35.2036 50.464 35.2036L55.0571 35.2036C56.1566 35.2036 57.0474 34.3129 57.0474 33.2272L57.0474 27.5486L62.726 27.5486C63.8256 27.5486 64.7164 26.6578 64.7164 25.5722L64.7164 20.9791C64.7164 19.8796 63.8256 19.0027 62.726 19.0027L57.0474 19.0027L57.0474 13.3241C57.0474 12.2245 56.1566 11.3477 55.0571 11.3477L50.464 11.3477C49.3644 11.3477 48.4737 12.2384 48.4737 13.3241L48.4737 19.0027L42.795 19.0027C41.6955 19.0027 40.8047 19.8935 40.8047 20.9791L40.8047 25.5722C40.8047 26.6578 41.6955 27.5486 42.795 27.5486ZM43.2404 21.4245L49.6846 21.4245C50.3527 21.4245 50.9094 20.8817 50.9094 20.1997L50.9094 13.7555L54.5977 13.7555L54.5977 20.1997C54.5977 20.8678 55.1406 21.4245 55.8226 21.4245L62.2667 21.4245L62.2667 25.1129L55.8226 25.1129C55.1545 25.1129 54.5977 25.6557 54.5977 26.3377L54.5977 32.7819L50.8955 32.7819L50.8955 26.3377C50.8955 25.6696 50.3526 25.1129 49.6706 25.1129L43.2404 25.1129L43.2404 21.4245Z" fill="rgb(63,72,87)" fill-rule="nonzero"/>
	</g>
</svg>
