<svg viewBox="0 0 21 24" xmlns="http://www.w3.org/2000/svg" xmlns:xlink="http://www.w3.org/1999/xlink" width="21.000000" height="24.000000" fill="none" customFrame="#000000">
	<defs>
		<clipPath id="clipPath_0">
			<rect width="21.000000" height="24.000000" x="0.000000" y="0.000000" fill="rgb(255,255,255)"/>
		</clipPath>
	</defs>
	<g id="Group 643">
		<g id="Ebene_1" clip-path="url(#clipPath_0)" customFrame="url(#clipPath_0)">
			<rect id="Ebene_1" width="21.000000" height="24.000000" x="0.000000" y="0.000000" fill="rgb(255,255,255)" fill-opacity="0"/>
			<path id="Vector" d="M12.291 3.72807C12.291 3.97064 12.4814 4.167 12.7195 4.167L15.9455 4.167C15.8783 4.06882 15.8055 3.97064 15.7215 3.884L12.5571 0.629521C12.4758 0.545777 12.3862 0.473584 12.2938 0.407166L12.2938 3.72807L12.291 3.72807Z" fill="rgb(255,255,255)" fill-rule="nonzero"/>
			<path id="Vector" d="M13.5848 17.3842L12.5738 19.1139C11.6833 20.6358 12.1594 22.6225 13.6352 23.5379C14.1392 23.8527 14.6965 24 15.2454 24C16.3067 24 17.3401 23.4455 17.9281 22.4435L18.9391 20.7137L13.5876 17.3813L13.5848 17.3842Z" fill="rgb(255,255,255)" fill-rule="nonzero"/>
			<path id="Vector" d="M19.5408 19.6828L20.5518 17.9531C21.4423 16.4312 20.9662 14.4444 19.4904 13.529C18.7763 13.0843 17.9362 12.9544 17.1241 13.1594C16.3148 13.3644 15.6287 13.8871 15.1975 14.6235L14.1865 16.3532L19.538 19.6828L19.5408 19.6828Z" fill="rgb(255,255,255)" fill-rule="nonzero"/>
			<path id="Vector" d="M11.5739 18.4902L12.9377 16.1598C12.9041 16.1656 12.8705 16.18 12.8341 16.18L3.50047 16.18C3.17842 16.18 2.91799 15.9114 2.91799 15.5794C2.91799 15.2473 3.17842 14.9787 3.50047 14.9787L12.8341 14.9787C13.0945 14.9787 13.3074 15.1577 13.383 15.4003L14.2007 14.0026C14.6992 13.1508 15.4469 12.5126 16.3346 12.1603L16.3346 5.42029C16.3346 5.40585 16.329 5.38852 16.329 5.37408L12.7165 5.37408C11.8372 5.37408 11.1203 4.63771 11.1203 3.73096L11.1203 0.00577548C11.1007 0.00577548 11.0839 0 11.0643 0L2.10028 0C0.940925 0 0 0.97028 0 2.1658L0 18.8512C0 20.0438 0.940925 21.017 2.10028 21.017L10.9635 21.017C10.9187 20.1622 11.1119 19.2814 11.5739 18.496L11.5739 18.4902ZM5.40472 6.62159C5.40472 6.2895 5.66516 6.02094 5.9872 6.02094L7.18856 6.02094L7.18856 4.7821C7.18856 4.45001 7.44899 4.18145 7.77104 4.18145L8.87158 4.18145C9.19363 4.18145 9.45406 4.45001 9.45406 4.7821L9.45406 6.02094L10.6554 6.02094C10.9775 6.02094 11.2379 6.2895 11.2379 6.62159L11.2379 7.75647C11.2379 8.08856 10.9775 8.35712 10.6554 8.35712L9.45406 8.35712L9.45406 9.59596C9.45406 9.92805 9.19363 10.1966 8.87158 10.1966L7.77104 10.1966C7.44899 10.1966 7.18856 9.92805 7.18856 9.59596L7.18856 8.35712L5.9872 8.35712C5.66516 8.35712 5.40472 8.08856 5.40472 7.75647L5.40472 6.62159ZM3.50047 12.5703L12.8341 12.5703C13.1562 12.5703 13.4166 12.8389 13.4166 13.171C13.4166 13.5031 13.1562 13.7716 12.8341 13.7716L3.50047 13.7716C3.17842 13.7716 2.91799 13.5031 2.91799 13.171C2.91799 12.8389 3.17842 12.5703 3.50047 12.5703ZM3.50047 18.5884C3.17842 18.5884 2.91799 18.3198 2.91799 17.9877C2.91799 17.6556 3.17842 17.3871 3.50047 17.3871L10.7618 17.3871C11.0839 17.3871 11.3443 17.6556 11.3443 17.9877C11.3443 18.3198 11.0839 18.5884 10.7618 18.5884L3.50047 18.5884Z" fill="rgb(255,255,255)" fill-rule="nonzero"/>
		</g>
	</g>
</svg>
