<svg viewBox="0 0 4760 851" xmlns="http://www.w3.org/2000/svg" xmlns:xlink="http://www.w3.org/1999/xlink" width="4760.000000" height="851.000000" fill="none" customFrame="#000000">
	<defs>
		<filter id="pixso_custom_mask_type_alpha">
			<feColorMatrix type="matrix" values="0 0 0 0 1 0 0 0 0 1 0 0 0 0 1 0 0 0 1 0 "/>
		</filter>
	</defs>
	<mask id="mask_0" width="4760.000000" height="850.999573" x="0.000000" y="0.000000" maskUnits="objectBoundingBox">
		<g filter="url(#pixso_custom_mask_type_alpha)">
			<path id="Vector" d="M212.015 211.105C309.511 156.701 471.543 107.463 693.761 83.8586C1002.7 51.0435 623.793 32.0022 960.02 26.7278C1284.21 21.638 1485.02 71.2388 2228.52 7.40976C3019.02 -41.6573 3335.87 168.626 3657.73 179.344C4324.64 201.549 4497.19 159.069 4342.27 302.185C4272.7 366.447 4661.93 254.721 4631.55 320.782C4570.61 453.118 4839.4 586.762 4736.11 717.53C4654.74 820.481 4782.46 734.46 4381.01 771.842C3979.55 809.24 4345.57 896.264 3104.52 821.787C2345.52 776.239 1716.97 821.558 1249.35 821.79C781.734 822.023 447.153 810.803 203.822 725.905C-54.5081 635.718 -13.1651 515.283 38.8287 405.981C68.5754 343.473 99.1415 280.134 194.054 221.623C199.789 218.102 205.713 214.596 211.952 211.105L212.015 211.105Z" fill="rgb(243,184,190)" fill-rule="nonzero" transform="matrix(-1,-8.74228e-08,8.74228e-08,-1,4760,851)"/>
		</g>
	</mask>
	<g id="Group 748" mask="url(#mask_0)"/>
</svg>