<svg viewBox="0 0 20 20" width="20px" height="20px" xmlns="http://www.w3.org/2000/svg" xmlns:xlink="http://www.w3.org/1999/xlink" fill="none" customFrame="#000000">
	<g id="Group">
		<g id="Group">
			<path id="Vector" d="M10 0C4.48593 0 0 4.48593 0 10C0 15.5141 4.48593 20 10 20C15.5141 20 20 15.5141 20 10C20 4.48593 15.5141 0 10 0ZM10 19.2593C4.89444 19.2593 0.740741 15.1056 0.740741 10C0.740741 4.89444 4.89444 0.740741 10 0.740741C15.1056 0.740741 19.2593 4.89444 19.2593 10C19.2593 15.1056 15.1056 19.2593 10 19.2593ZM16.2963 9.62963C16.0915 9.62963 15.9259 9.79519 15.9259 10C15.9259 13.2674 13.2674 15.9259 10 15.9259C6.73259 15.9259 4.07407 13.2674 4.07407 10C4.07407 9.79519 3.90852 9.62963 3.7037 9.62963C3.49889 9.62963 3.33333 9.79519 3.33333 10C3.33333 13.6759 6.32407 16.6667 10 16.6667C13.6759 16.6667 16.6667 13.6759 16.6667 10C16.6667 9.79519 16.5011 9.62963 16.2963 9.62963ZM12.963 9.25926C13.1678 9.25926 13.3333 9.0937 13.3333 8.88889L13.3333 6.66667C13.3333 6.46185 13.1678 6.2963 12.963 6.2963C12.7581 6.2963 12.5926 6.46185 12.5926 6.66667L12.5926 8.88889C12.5926 9.0937 12.7581 9.25926 12.963 9.25926ZM7.03704 9.25926C7.24185 9.25926 7.40741 9.0937 7.40741 8.88889L7.40741 6.66667C7.40741 6.46185 7.24185 6.2963 7.03704 6.2963C6.83222 6.2963 6.66667 6.46185 6.66667 6.66667L6.66667 8.88889C6.66667 9.0937 6.83222 9.25926 7.03704 9.25926Z" fill="rgb(63,72,87)" fill-rule="nonzero"/>
		</g>
	</g>
</svg>
