<svg viewBox="0 0 21.9985 21.9988" xmlns="http://www.w3.org/2000/svg" xmlns:xlink="http://www.w3.org/1999/xlink" width="21.998535" height="21.998779" fill="none" customFrame="#000000">
	<path id="Vector" d="M18.7776 3.22117C14.4827 -1.07372 7.5185 -1.07372 3.22117 3.22117C-1.07372 7.51606 -1.07372 14.4827 3.22117 18.7776C7.51606 23.0725 14.4827 23.0725 18.7776 18.7776C23.0725 14.4827 23.0725 7.51606 18.7776 3.22117ZM11.7327 12.9427C11.7327 13.9083 10.2661 13.9083 10.2661 12.9427L10.2661 11.7327L9.05606 11.7327C8.0905 11.7327 8.0905 10.2661 9.05606 10.2661L10.2661 10.2661L10.2661 3.28961C10.2661 2.32406 11.7327 2.32406 11.7327 3.28961L11.7327 10.2661L15.9274 10.2661C16.8929 10.2661 16.8929 11.7327 15.9274 11.7327L11.7327 11.7327L11.7327 12.9427Z" fill="rgb(255,255,255)" fill-rule="evenodd"/>
</svg>
