<svg viewBox="0 0 56.2153 71" xmlns="http://www.w3.org/2000/svg" xmlns:xlink="http://www.w3.org/1999/xlink" width="56.215332" height="71.000000" fill="none" customFrame="#000000">
	<g id="Group">
		<path id="Vector" d="M28.1174 6.99697C28.7345 6.99697 29.2348 6.4967 29.2348 5.87959C29.2348 5.26248 28.7345 4.76221 28.1174 4.76221C27.5003 4.76221 27 5.26248 27 5.87959C27 6.4967 27.5003 6.99697 28.1174 6.99697Z" fill="#fff" fill-rule="evenodd"/>
		<path id="Vector" d="M21.4084 8.11269C22.0255 8.11269 22.5258 7.61242 22.5258 6.99531C22.5258 6.3782 22.0255 5.87793 21.4084 5.87793C20.7913 5.87793 20.291 6.3782 20.291 6.99531C20.291 7.61242 20.7913 8.11269 21.4084 8.11269Z" fill="#fff" fill-rule="evenodd"/>
		<path id="Vector" d="M34.8198 8.11269C35.4369 8.11269 35.9372 7.61242 35.9372 6.99531C35.9372 6.3782 35.4369 5.87793 34.8198 5.87793C34.2027 5.87793 33.7024 6.3782 33.7024 6.99531C33.7024 7.61242 34.2027 8.11269 34.8198 8.11269Z" fill="#fff" fill-rule="evenodd"/>
		<path id="Vector" d="M49.3324 56.3288L48.3155 56.3288L48.3155 55.8483C48.3155 51.39 49.6453 46.8311 52.1705 42.6632C54.8187 38.2943 56.2155 33.2549 56.2155 28.115C56.2155 20.3827 52.975 12.9074 47.3434 7.61104C41.6224 2.23644 34.136 -0.4341 26.2808 0.0575469C12.4476 0.951451 1.19568 12.0135 0.0894777 25.8243C0.0336087 26.573 0 27.344 0 28.1261C0 33.132 1.32976 38.0485 3.85504 42.3392C6.46971 46.7976 7.86643 51.6358 7.89995 56.3288L6.89428 56.3288C5.24056 56.3288 3.89964 57.6697 3.89964 59.3234C3.89964 60.9771 5.24056 62.3068 6.89428 62.3068L9.66536 62.3068L8.95022 65.3349C8.95022 65.3349 8.95022 65.4019 8.95022 65.4354C8.93905 65.4801 8.92785 65.5137 8.92785 65.5584L8.92785 70.0279C8.92785 70.5642 9.36364 71 9.91115 71L46.3155 71C46.8518 71 47.2988 70.5642 47.2988 70.0279L47.2988 65.5584C47.2988 65.5584 47.2764 65.4801 47.2764 65.4354C47.2764 65.4019 47.2764 65.3684 47.2764 65.3349L46.5613 62.3068L49.3324 62.3068C50.9861 62.3068 52.327 60.9659 52.327 59.3234C52.3158 57.6697 50.9749 56.3288 49.3324 56.3288ZM50.5057 41.6576C47.8016 46.1271 46.3601 51.0324 46.3601 55.8483L46.3601 56.3288L45.1534 56.3288L41.4102 40.3056C44.2595 37.1993 45.9244 33.2773 46.1478 29.0983L54.2488 29.0983C54.0812 33.5454 52.7963 37.8697 50.5057 41.6576ZM18.2691 34.1712L37.9685 34.1712L45.0863 64.5862L11.1402 64.5862L18.2691 34.1712ZM39.6894 32.9756C39.5888 32.5286 39.1866 32.2157 38.7396 32.2157L17.487 32.2157C17.0289 32.2157 16.6378 32.5286 16.5373 32.9756L15.3752 37.9479C13.1963 35.1321 12.0006 31.7129 12.0006 28.1373C12.0006 19.2541 19.2301 12.0247 28.1133 12.0247C36.9965 12.0247 44.226 19.2541 44.226 28.1373C44.226 31.7241 43.0304 35.1433 40.8627 37.9479L39.6894 32.9756ZM2.04489 25.9808C3.07288 13.1421 13.5426 2.83982 26.4037 2.02414C33.7225 1.56601 40.6839 4.05777 46.0138 9.05246C51.0978 13.8237 54.003 20.2263 54.26 27.154L46.159 27.154C45.6339 17.6451 37.7451 10.0581 28.1133 10.0581C18.4815 10.0581 10.5816 17.6339 10.0788 27.1428L1.97778 27.1428C1.98896 26.7518 2.01137 26.3607 2.04489 25.9808ZM5.54216 41.3447C3.36327 37.635 2.14539 33.4225 1.97778 29.0983L10.0788 29.0983C10.3023 33.2773 11.9783 37.1993 14.8277 40.3056L11.0733 56.3288L9.85537 56.3288C9.82185 51.2783 8.33561 46.1048 5.54216 41.3447ZM6.89428 60.3514C6.32442 60.3514 5.85506 59.8821 5.85506 59.3234C5.85506 58.7647 6.32442 58.2842 6.89428 58.2842L10.6039 58.2842L10.1235 60.3514L6.89428 60.3514ZM45.3434 69.0558L10.8833 69.0558L10.8833 66.5417L45.3322 66.5417L45.3322 69.0558L45.3434 69.0558ZM49.3324 60.3514L46.1031 60.3514L45.6227 58.2842L49.3324 58.2842C49.9022 58.2842 50.3716 58.7535 50.3716 59.3234C50.3716 59.8821 49.9022 60.3514 49.3324 60.3514Z" fill="#fff" fill-rule="nonzero"/>
	</g>
</svg>
