<svg viewBox="0 0 15 17" xmlns="http://www.w3.org/2000/svg" xmlns:xlink="http://www.w3.org/1999/xlink" width="15.000000" height="17.000000" fill="none" customFrame="#000000">
	<path id="Vector" d="M0 15.4062C0 16.2861 0.719866 17 1.60714 17L13.3929 17C14.2801 17 15 16.2861 15 15.4062L15 6.375L0 6.375L0 15.4062ZM10.7143 8.89844C10.7143 8.6793 10.8951 8.5 11.1161 8.5L12.4554 8.5C12.6763 8.5 12.8571 8.6793 12.8571 8.89844L12.8571 10.2266C12.8571 10.4457 12.6763 10.625 12.4554 10.625L11.1161 10.625C10.8951 10.625 10.7143 10.4457 10.7143 10.2266L10.7143 8.89844ZM10.7143 13.1484C10.7143 12.9293 10.8951 12.75 11.1161 12.75L12.4554 12.75C12.6763 12.75 12.8571 12.9293 12.8571 13.1484L12.8571 14.4766C12.8571 14.6957 12.6763 14.875 12.4554 14.875L11.1161 14.875C10.8951 14.875 10.7143 14.6957 10.7143 14.4766L10.7143 13.1484ZM6.42857 8.89844C6.42857 8.6793 6.60938 8.5 6.83036 8.5L8.16964 8.5C8.39063 8.5 8.57143 8.6793 8.57143 8.89844L8.57143 10.2266C8.57143 10.4457 8.39063 10.625 8.16964 10.625L6.83036 10.625C6.60938 10.625 6.42857 10.4457 6.42857 10.2266L6.42857 8.89844ZM6.42857 13.1484C6.42857 12.9293 6.60938 12.75 6.83036 12.75L8.16964 12.75C8.39063 12.75 8.57143 12.9293 8.57143 13.1484L8.57143 14.4766C8.57143 14.6957 8.39063 14.875 8.16964 14.875L6.83036 14.875C6.60938 14.875 6.42857 14.6957 6.42857 14.4766L6.42857 13.1484ZM2.14286 8.89844C2.14286 8.6793 2.32366 8.5 2.54464 8.5L3.88393 8.5C4.10491 8.5 4.28571 8.6793 4.28571 8.89844L4.28571 10.2266C4.28571 10.4457 4.10491 10.625 3.88393 10.625L2.54464 10.625C2.32366 10.625 2.14286 10.4457 2.14286 10.2266L2.14286 8.89844ZM2.14286 13.1484C2.14286 12.9293 2.32366 12.75 2.54464 12.75L3.88393 12.75C4.10491 12.75 4.28571 12.9293 4.28571 13.1484L4.28571 14.4766C4.28571 14.6957 4.10491 14.875 3.88393 14.875L2.54464 14.875C2.32366 14.875 2.14286 14.6957 2.14286 14.4766L2.14286 13.1484ZM13.3929 2.125L11.7857 2.125L11.7857 0.53125C11.7857 0.239062 11.5446 0 11.25 0L10.1786 0C9.88393 0 9.64286 0.239062 9.64286 0.53125L9.64286 2.125L5.35714 2.125L5.35714 0.53125C5.35714 0.239062 5.11607 0 4.82143 0L3.75 0C3.45536 0 3.21429 0.239062 3.21429 0.53125L3.21429 2.125L1.60714 2.125C0.719866 2.125 0 2.83887 0 3.71875L0 5.3125L15 5.3125L15 3.71875C15 2.83887 14.2801 2.125 13.3929 2.125Z" fill="rgb(255,255,255)" fill-rule="nonzero"/>
</svg>
