<svg viewBox="0 0 69 69" xmlns="http://www.w3.org/2000/svg" xmlns:xlink="http://www.w3.org/1999/xlink" width="69.000000" height="69.000000" fill="none" customFrame="#000000">
	<g id="Group">
		<path id="Vector" d="M52.5292 33.138C52.8973 32.7699 52.8973 32.1637 52.5292 31.7957L37.2007 16.4671C36.8434 16.1099 36.2156 16.1099 35.8584 16.4671L16.4596 35.866C16.0916 36.234 16.0916 36.8402 16.4596 37.2083L31.7881 52.5368C31.9613 52.71 32.2102 52.8183 32.4592 52.8183C32.7082 52.8183 32.9572 52.7208 33.1304 52.5368L52.5292 33.138ZM18.4731 36.5371L36.5295 18.4806L50.5158 32.4668L32.4592 50.5233L18.4731 36.5371Z" fill="rgb(63,72,87)" fill-rule="nonzero"/>
		<path id="Vector" d="M42.8782 32.1191C41.5683 30.8093 39.4251 30.8093 38.1152 32.1191C36.8054 33.429 36.8054 35.5724 38.1152 36.8822C38.7755 37.5425 39.6307 37.8673 40.4967 37.8673C41.3627 37.8673 42.2179 37.5425 42.8782 36.8822C43.5385 36.2219 43.8633 35.3992 43.8633 34.5007C43.8633 33.6022 43.5169 32.7578 42.8782 32.1191ZM41.5467 35.5399C40.973 36.1136 40.0313 36.1136 39.4575 35.5399C38.8838 34.9661 38.8838 34.0243 39.4575 33.4506C39.7498 33.1583 40.1178 33.0176 40.4967 33.0176C40.8756 33.0176 41.2544 33.1583 41.5359 33.4506C41.8173 33.7321 41.9689 34.1001 41.9689 34.4898C41.9689 34.8795 41.8173 35.2693 41.5467 35.5399Z" fill="rgb(63,72,87)" fill-rule="nonzero"/>
		<path id="Vector" d="M32.1191 38.1172C30.8093 39.427 30.8093 41.5704 32.1191 42.8803C32.7794 43.5406 33.6346 43.8654 34.5006 43.8654C35.3666 43.8654 36.2219 43.5406 36.8822 42.8803C38.1921 41.5704 38.1921 39.427 36.8822 38.1172C35.5724 36.8073 33.429 36.8073 32.1191 38.1172ZM35.5399 41.5488C34.9662 42.1225 34.0243 42.1225 33.4506 41.5488C32.8769 40.975 32.8769 40.0332 33.4506 39.4595C33.7429 39.1672 34.1109 39.0265 34.4898 39.0265C34.8687 39.0265 35.2476 39.1672 35.5291 39.4595C36.1245 40.0332 36.1245 40.9642 35.5399 41.5488Z" fill="rgb(63,72,87)" fill-rule="nonzero"/>
		<path id="Vector" d="M34.5006 31.8712C35.3666 31.8712 36.2219 31.5465 36.8822 30.8861C38.1921 29.5763 38.1921 27.4329 36.8822 26.123C35.5724 24.8132 33.429 24.8132 32.1191 26.123C30.8093 27.4329 30.8093 29.5763 32.1191 30.8861C32.7794 31.5465 33.6346 31.8712 34.5006 31.8712ZM33.4614 27.4653C33.7537 27.1731 34.1217 27.0323 34.5006 27.0323C34.8795 27.0323 35.2585 27.1731 35.5399 27.4653C36.1137 28.0391 36.1137 28.9809 35.5399 29.5546C34.9662 30.1283 34.0243 30.1283 33.4506 29.5546C32.8769 28.97 32.8769 28.0391 33.4614 27.4653Z" fill="rgb(63,72,87)" fill-rule="nonzero"/>
		<path id="Vector" d="M30.8811 32.1191C29.5712 30.8093 27.4278 30.8093 26.1179 32.1191C25.4793 32.7578 25.1328 33.6022 25.1328 34.5007C25.1328 35.3992 25.4793 36.2435 26.1179 36.8822C26.7566 37.5209 27.6336 37.8673 28.4996 37.8673C29.3656 37.8673 30.2207 37.5425 30.8811 36.8822C32.1909 35.5724 32.1909 33.429 30.8811 32.1191ZM29.5388 35.5399C28.965 36.1136 28.034 36.1136 27.4494 35.5399C27.168 35.2584 27.0165 34.8904 27.0165 34.5007C27.0165 34.111 27.168 33.7321 27.4494 33.4614C27.7417 33.1692 28.1099 33.0284 28.4887 33.0284C28.8676 33.0284 29.2465 33.1692 29.5279 33.4614C30.1125 34.0352 30.1125 34.9661 29.5388 35.5399Z" fill="rgb(63,72,87)" fill-rule="nonzero"/>
		<path id="Vector" d="M56.7999 34.5L64.3884 26.9115C70.5371 20.7628 70.5371 10.7603 64.3884 4.61155C58.2397 -1.53718 48.2372 -1.53718 42.0885 4.61155L34.5 12.2L26.9115 4.61155C20.7628 -1.53718 10.7603 -1.53718 4.61155 4.61155C-1.53718 10.7603 -1.53718 20.7628 4.61155 26.9115L12.2 34.5L4.61155 42.0885C-1.53718 48.2372 -1.53718 58.2397 4.61155 64.3885C7.68591 67.4628 11.7238 69 15.7616 69C19.7994 69 23.8371 67.4628 26.9115 64.3885L34.5 56.8L42.0885 64.3885C45.1628 67.4628 49.2007 69 53.2385 69C57.2763 69 61.3141 67.4628 64.3884 64.3885C70.5371 58.2397 70.5371 48.2372 64.3884 42.0885L56.7999 34.5ZM5.95386 25.5692C0.54125 20.1566 0.54125 11.3665 5.95386 5.95387C11.3665 0.552086 20.1566 0.541261 25.5692 5.95387L33.1577 13.5424L13.5424 33.1577L5.95386 25.5692ZM25.5692 63.0461C20.1674 68.4587 11.3665 68.4587 5.95386 63.0461C0.54125 57.6335 0.54125 48.8326 5.95386 43.4308L14.2135 35.1712L43.4308 5.95387C46.1371 3.24757 49.6878 1.89441 53.2385 1.89441C56.7892 1.89441 60.3398 3.24757 63.0461 5.95387C68.4587 11.3665 68.4587 20.1674 63.0461 25.5692L54.7864 33.8288L33.8288 54.7865L25.5692 63.0461ZM63.0461 63.0461C57.6335 68.4587 48.8326 68.4587 43.4308 63.0461L35.8423 55.4576L55.4576 35.8423L63.0461 43.4308C68.4587 48.8434 68.4587 57.6443 63.0461 63.0461Z" fill="rgb(63,72,87)" fill-rule="nonzero"/>
	</g>
</svg>
