<?xml version="1.0" encoding="utf-8"?>
<!-- Generator: Adobe Illustrator 22.1.0, SVG Export Plug-In . SVG Version: 6.00 Build 0)  -->
<svg version="1.1" id="Слой_1" xmlns="http://www.w3.org/2000/svg" xmlns:xlink="http://www.w3.org/1999/xlink" x="0px" y="0px"
	 width="379px" height="192.3px" viewBox="0 0 379 192.3" style="enable-background:new 0 0 379 192.3;" xml:space="preserve">
<style type="text/css">
	.st0{fill:#FFFFFF;}
</style>
<path class="st0" d="M170.7,116.5H158c-0.7,0-1.3-0.4-1.6-0.9l-30.7-53c-0.2-0.3-0.2-0.6-0.3-0.9l-0.1-2.6c0-0.4,0.1-0.7,0.3-1
	l32-52.9c0.3-0.6,1-0.9,1.6-0.9h39.7c2.2,0,3.4,0,3.4,2.1L163,70.8c-0.3,0.6-1,0.9-1.6,0.9l-11.9-0.1c-1.4,0-1.9-2.6-1.2-3.8l28-47
	c0.7-1.3-0.2-2.8-1.6-2.8h-8.4c-0.7,0-1.3,0.3-1.6,0.9l-23.8,39.6c-0.2,0.3-0.3,0.6-0.3,1v2.1c0,0.3,0.1,0.7,0.3,0.9l30.1,51.9h-0.1
	v2.2"/>
<path class="st0" d="M206.3,96.7l5.6-9.8c0.5-0.9,0.5-2.1,0-3l-11.5-21.1c-0.3-0.5-0.4-1-0.4-1.5c0,0-0.5-0.8,0-2.6l0,0l3.2-4.8
	c1.3-1.9,4.1-1.8,5.3,0.2L225,82.4c0.3,0.5,0.4,1,0.4,1.6v3.8l0,0l-8,13.8c-0.6,1-1.6,1.5-2.7,1.5h-17.3c-1.1,0-2.1-0.5-2.6-1.5
	l-16.9-26.4c-0.6-0.9-1.6-1.5-2.6-1.5h-7.9c-2.4,0-4,2.7-2.7,4.8l21.9,36.7c0.6,1,1.6,1.5,2.7,1.5h32.9c1.1,0,2.2-0.6,2.7-1.6
	L240,88.4c0.3-0.5,0.4-1,0.4-1.6v-3.8l0,0l-32.2-52.8c-0.6-0.9-1.6-1.5-2.7-1.5l0,0c-1.1,0-2.1,0.6-2.7,1.5l-17.9,28.6
	c-0.6,1-0.6,2.2-0.1,3.2l18.7,33C204.1,96.1,205.2,96.7,206.3,96.7L206.3,96.7L206.3,96.7z"/>
<path class="st0" d="M253.2,58.1L222.6,7.4c-0.5-0.8-1.4-1.4-2.4-1.4h-3.8c-1,0-1.8,0.5-2.4,1.3l-6.5,10.1v1.3h0.1h4.7
	c1,0,1.9,0.5,2.4,1.4L245,70.7c1,1.7,3.5,1.8,4.7,0.2l2.9-4.1c0.3-0.5,0.5-1,0.5-1.6L253.2,58.1z"/>
<g>
	<path class="st0" d="M24.1,137.5l-4.2,12.4h-5.4l-5.6-20.5l-2.7-0.2v-3.4h10.9v3.4l-2.7,0.4l3,12.4h0.1l0.4-1.6l4.7-14.6h4l5,15.3
		l0.3,1h0.1l0.3-1l2.8-11.5l-2.8-0.4v-3.4h10.7v3.4l-2.6,0.2l-5.8,20.5h-5.2l-4.2-12.5l-0.5-1.7h-0.1L24.1,137.5z"/>
	<path class="st0" d="M63.5,142.8v7.1H43.9v-3.4l2.5-0.5v-16.3l-2.5-0.5v-3.4h19.3v7h-4.4l-0.1-2.5h-6.4v5H60v4.5h-7.7v5.8H59
		l0.1-2.6H63.5z"/>
	<path class="st0" d="M77.8,149.9H65.6v-3.4l2.5-0.5v-16.3l-2.5-0.5v-3.4h10.9c3,0,5.4,0.6,7.1,1.7c1.7,1.1,2.6,2.8,2.6,5
		c0,1.1-0.3,2.2-0.8,3.1c-0.5,0.9-1.4,1.6-2.5,2c1,0.2,1.7,0.6,2.4,1.1c0.6,0.5,1.1,1.1,1.3,1.8c0.3,0.7,0.4,1.5,0.4,2.3
		c0,2.4-0.8,4.2-2.4,5.4C83.1,149.3,80.8,149.9,77.8,149.9z M76.6,130.2H74v5.6h2.4c2.7,0,4.1-0.9,4.1-2.7c0-1-0.3-1.7-1-2.2
		C78.8,130.4,77.9,130.2,76.6,130.2z M78.1,139.6H74v5.9h3.8c2.3,0,3.5-0.9,3.5-2.8c0-0.7-0.1-1.3-0.3-1.7
		C80.5,140.1,79.5,139.6,78.1,139.6z"/>
	<path class="st0" d="M110.3,150.3c-2,0-3.7-0.2-5.2-0.6c-1.5-0.4-3-1.1-4.6-2.1v-6.3h4.5l0.5,3.2c0.4,0.4,1,0.7,1.9,1
		c0.9,0.3,1.9,0.4,2.9,0.4c0.7,0,1.3-0.1,1.9-0.3c1-0.4,1.5-1.1,1.5-2.1c0-0.5-0.1-0.9-0.3-1.3c-0.5-0.7-1.6-1.4-3.4-2.1
		c-2-0.7-3.7-1.3-5.1-2c-1.3-0.7-2.3-1.5-3-2.4c-0.6-0.9-1-2.1-1-3.5c0-1.3,0.4-2.5,1.1-3.5c0.8-1,1.8-1.8,3.2-2.4
		c1.3-0.6,2.9-0.9,4.6-0.9c2,0,3.7,0.2,5.2,0.6s2.9,1.1,4,2v5.8h-4.3l-0.7-3.2c-0.4-0.2-0.9-0.4-1.6-0.5c-0.7-0.2-1.4-0.2-2.2-0.2
		c-0.7,0-1.3,0.1-1.8,0.3c-0.5,0.2-0.9,0.4-1.3,0.8c-0.3,0.4-0.5,0.8-0.5,1.3c0,0.4,0.1,0.8,0.4,1.1c0.3,0.4,0.8,0.7,1.5,1.1
		c0.7,0.4,1.6,0.7,2.5,1.1c2.7,0.8,4.8,1.8,6.2,3c1.4,1.2,2.1,2.9,2.1,4.9c0,1.4-0.4,2.6-1.2,3.6c-0.8,1-1.9,1.8-3.2,2.3
		S112.2,150.3,110.3,150.3z"/>
	<path class="st0" d="M140.4,142.8v7.1h-19.6v-3.4l2.5-0.5v-16.3l-2.5-0.5v-3.4h19.3v7h-4.4l-0.1-2.5h-6.4v5h7.7v4.5h-7.7v5.8h6.7
		l0.1-2.6H140.4z"/>
	<path class="st0" d="M160.1,139.8l2.5,6.2l2.3,0.6v3.4h-7l-3-8.7l-4,0v4.8l2.5,0.5v3.4h-10.8v-3.4l2.5-0.5v-16.3l-2.5-0.5v-3.4
		h11.9c1.9,0,3.6,0.3,5,0.9c1.4,0.6,2.5,1.5,3.3,2.6c0.8,1.1,1.1,2.5,1.1,4c0,1.4-0.4,2.7-1.1,3.9c-0.3,0.5-0.7,1-1.1,1.4
		C161.1,139.1,160.6,139.5,160.1,139.8z M150.9,130.2v6.5h3.6c1.1,0,2-0.3,2.6-0.8c0.6-0.5,0.9-1.3,0.9-2.3c0-1-0.3-1.9-0.9-2.5
		s-1.5-0.9-2.7-0.9H150.9z"/>
	<path class="st0" d="M187.6,129.5l-6.8,20.5h-6.3l-7.6-20.5l-2.3-0.3v-3.4h10.8v3.4l-2.2,0.3l4.3,13.6l0.2,0.9h0.1l0.2-0.9
		l4.2-13.6l-2.6-0.3v-3.4H190v3.4L187.6,129.5z"/>
	<path class="st0" d="M201.7,146.5v3.4h-10.8v-3.4l2.5-0.5v-16.3l-2.5-0.5v-3.4h10.8v3.4l-2.5,0.5V146L201.7,146.5z"/>
	<path class="st0" d="M214.9,150.3c-2.3,0-4.3-0.5-6.2-1.4c-1.8-0.9-3.2-2.3-4.2-4s-1.5-3.9-1.5-6.4v-1.1c0-2.3,0.5-4.4,1.4-6.2
		c1-1.8,2.3-3.2,4-4.2c1.7-1,3.8-1.5,6.2-1.5c1.7,0,3.3,0.2,4.8,0.7c1.5,0.4,2.9,1.2,4.2,2.3v6.2h-4.2l-0.6-3.6
		c-0.2-0.1-0.4-0.2-0.6-0.4s-0.4-0.2-0.6-0.3c-0.8-0.4-1.8-0.6-2.9-0.6c-1.2,0-2.3,0.3-3.2,0.9c-0.9,0.6-1.6,1.4-2.1,2.5
		c-0.5,1.1-0.8,2.5-0.8,4v1.1c0,1.5,0.3,2.8,0.8,3.9c0.5,1.1,1.2,2,2.2,2.6c0.9,0.6,2,0.9,3.2,0.9c0.7,0,1.3-0.1,2-0.2
		c0.7-0.1,1.3-0.3,2-0.6l0.6-3.4h4.2v6.1c-1,0.7-2.2,1.2-3.7,1.7C218.5,150,216.8,150.3,214.9,150.3z"/>
	<path class="st0" d="M244.8,142.8v7.1h-19.6v-3.4l2.5-0.5v-16.3l-2.5-0.5v-3.4h19.3v7h-4.4l-0.1-2.5h-6.4v5h7.7v4.5h-7.7v5.8h6.7
		l0.1-2.6H244.8z"/>
	<path class="st0" d="M269.4,146.5v3.4h-10.8v-3.4l2.5-0.5v-16.3l-2.5-0.5v-3.4h10.8v3.4l-2.5,0.5V146L269.4,146.5z"/>
	<path class="st0" d="M286.9,146.5v3.4H276v-3.4l2.5-0.5v-15.7h-3.7l-0.1,2.6h-4.4v-7.1h22.4v7.1h-4.4l-0.1-2.6h-3.8V146
		L286.9,146.5z"/>
	<path class="st0" d="M300.3,146.5v3.4h-9v-3.4l1.7-0.2l7.2-20.5h6.3l7.2,20.5l1.7,0.2v3.4h-9v-3.4l1.6-0.3l-0.7-2.6h-7.8l-0.7,2.6
		L300.3,146.5z M303.2,131.4l-0.3,0.9l-2.3,7.2h5.3l-2.4-7.3L303.2,131.4L303.2,131.4z"/>
	<path class="st0" d="M335,142.1v7.8h-18.6v-3.4l2.5-0.5v-16.3l-2.5-0.5v-3.4h11.4v3.4l-3.1,0.5v15.7h5.7l0.1-3.4H335z"/>
	<path class="st0" d="M347,146.5v3.4h-10.8v-3.4l2.5-0.5v-16.3l-2.5-0.5v-3.4H347v3.4l-2.5,0.5V146L347,146.5z"/>
	<path class="st0" d="M357.1,146.5v3.4h-9v-3.4l1.7-0.2l7.2-20.5h6.3l7.2,20.5l1.7,0.2v3.4h-9v-3.4l1.6-0.3l-0.7-2.6h-7.8l-0.7,2.6
		L357.1,146.5z M360,131.4l-0.3,0.9l-2.3,7.2h5.3l-2.4-7.3L360,131.4L360,131.4z"/>
</g>
<g>
	<g>
		<path class="st0" d="M36.5,183.9v-18.7h5.3c1.6,0,3.1,0.4,4.3,1.1c1.2,0.7,2.2,1.7,2.9,3.1c0.7,1.3,1,2.8,1,4.6v1.2
			c0,1.8-0.3,3.3-1,4.6c-0.7,1.3-1.6,2.3-2.9,3c-1.3,0.7-2.7,1.1-4.4,1.1H36.5z M39,167.2v14.6h2.6c1.9,0,3.4-0.6,4.4-1.8
			c1.1-1.2,1.6-2.9,1.6-5V174c0-2.1-0.5-3.8-1.5-4.9c-1-1.2-2.4-1.8-4.2-1.8H39z"/>
		<path class="st0" d="M56.3,183.9h-2.5v-18.7h2.5V183.9z"/>
		<path class="st0" d="M74.6,181.4c-0.6,0.9-1.5,1.6-2.6,2c-1.1,0.4-2.4,0.7-4,0.7c-1.5,0-2.9-0.4-4-1.1c-1.2-0.7-2.1-1.7-2.7-3
			c-0.6-1.3-1-2.8-1-4.6v-1.6c0-2.8,0.7-5,2-6.5c1.3-1.5,3.2-2.3,5.5-2.3c1.9,0,3.5,0.5,4.7,1.5c1.2,1,1.9,2.4,2.2,4.2h-2.5
			c-0.5-2.5-1.9-3.7-4.4-3.7c-1.6,0-2.9,0.6-3.7,1.7c-0.9,1.2-1.3,2.8-1.3,5v1.5c0,2.1,0.5,3.8,1.4,5c1,1.2,2.3,1.9,3.9,1.9
			c0.9,0,1.7-0.1,2.4-0.3c0.7-0.2,1.3-0.5,1.7-1v-4.2h-4.3v-2h6.8V181.4z"/>
		<path class="st0" d="M81.4,183.9h-2.5v-18.7h2.5V183.9z"/>
		<path class="st0" d="M98.4,167.2h-6v16.6h-2.4v-16.6h-6v-2h14.4V167.2z"/>
		<path class="st0" d="M110.4,179h-7.8l-1.8,4.9h-2.5l7.1-18.7h2.2l7.1,18.7h-2.5L110.4,179z M103.4,177h6.3l-3.2-8.7L103.4,177z"/>
		<path class="st0" d="M119.7,181.9h8.8v2h-11.3v-18.7h2.5V181.9z"/>
		<path class="st0" d="M141.9,178l0.4,2.5l0.5-2.2l3.7-13h2.1l3.6,13l0.5,2.3l0.4-2.5l2.9-12.8h2.5l-4.5,18.7h-2.2l-3.8-13.6
			l-0.3-1.4l-0.3,1.4l-4,13.6H141l-4.5-18.7h2.5L141.9,178z"/>
		<path class="st0" d="M171.7,175.3h-8.1v6.6h9.4v2h-11.9v-18.7h11.7v2h-9.3v6h8.1V175.3z"/>
		<path class="st0" d="M176.1,183.9v-18.7h6.1c2,0,3.5,0.4,4.6,1.3c1,0.8,1.5,2.1,1.5,3.7c0,0.9-0.2,1.6-0.7,2.3
			c-0.5,0.7-1.2,1.2-2,1.6c1,0.3,1.8,0.8,2.4,1.6c0.6,0.8,0.9,1.7,0.9,2.8c0,1.7-0.5,3-1.6,3.9s-2.6,1.4-4.6,1.4H176.1z
			 M178.5,173.2h3.7c1.1,0,1.9-0.3,2.6-0.8c0.6-0.5,1-1.3,1-2.2c0-1-0.3-1.8-0.9-2.2c-0.6-0.5-1.5-0.7-2.7-0.7h-3.6V173.2z
			 M178.5,175.2v6.7h4.1c1.1,0,2-0.3,2.7-0.9s1-1.4,1-2.5c0-2.2-1.2-3.4-3.7-3.4H178.5z"/>
		<path class="st0" d="M202.1,165.2l6.1,15.2l6.1-15.2h3.2v18.7H215v-7.3l0.2-7.8l-6.1,15.1h-1.9l-6.1-15.1l0.2,7.8v7.3h-2.5v-18.7
			H202.1z"/>
		<path class="st0" d="M232.3,179h-7.8l-1.8,4.9h-2.5l7.1-18.7h2.2l7.1,18.7h-2.5L232.3,179z M225.3,177h6.3l-3.2-8.7L225.3,177z"/>
		<path class="st0" d="M246,176.3h-4.4v7.5h-2.5v-18.7h6.2c2.1,0,3.7,0.5,4.9,1.4c1.1,1,1.7,2.3,1.7,4.2c0,1.2-0.3,2.2-0.9,3
			s-1.5,1.5-2.6,1.9l4.4,7.9v0.2h-2.6L246,176.3z M241.6,174.3h3.8c1.2,0,2.2-0.3,2.9-0.9s1.1-1.5,1.1-2.5c0-1.2-0.3-2-1-2.7
			c-0.7-0.6-1.7-0.9-3-0.9h-3.8V174.3z"/>
		<path class="st0" d="M260.1,175.2l-2.3,2.4v6.3h-2.5v-18.7h2.5v9.2l8.3-9.2h3l-7.3,8.2l7.9,10.4h-2.9L260.1,175.2z"/>
		<path class="st0" d="M282.3,175.3h-8.1v6.6h9.4v2h-11.9v-18.7h11.7v2h-9.3v6h8.1V175.3z"/>
		<path class="st0" d="M299.8,167.2h-6v16.6h-2.4v-16.6h-6v-2h14.4V167.2z"/>
		<path class="st0" d="M305.2,183.9h-2.5v-18.7h2.5V183.9z"/>
		<path class="st0" d="M324.1,183.9h-2.5l-9.4-14.4v14.4h-2.5v-18.7h2.5l9.4,14.4v-14.4h2.4V183.9z"/>
		<path class="st0" d="M342.2,181.4c-0.6,0.9-1.5,1.6-2.6,2c-1.1,0.4-2.5,0.7-4,0.7c-1.5,0-2.9-0.4-4-1.1s-2.1-1.7-2.7-3
			c-0.6-1.3-1-2.8-1-4.6v-1.6c0-2.8,0.7-5,2-6.5s3.2-2.3,5.5-2.3c1.9,0,3.5,0.5,4.7,1.5c1.2,1,1.9,2.4,2.2,4.2h-2.5
			c-0.5-2.5-1.9-3.7-4.4-3.7c-1.6,0-2.9,0.6-3.7,1.7c-0.8,1.2-1.3,2.8-1.3,5v1.5c0,2.1,0.5,3.8,1.4,5c1,1.2,2.3,1.9,3.9,1.9
			c0.9,0,1.7-0.1,2.4-0.3c0.7-0.2,1.3-0.5,1.7-1v-4.2h-4.3v-2h6.8V181.4z"/>
	</g>
</g>
</svg>
