<svg width="83" height="83" viewBox="0 0 83 83" fill="none" xmlns="http://www.w3.org/2000/svg">
<path d="M11.375 27.6667C11.375 24.3779 11.3771 22.0118 11.6193 20.2105C11.8576 18.4378 12.3118 17.3624 13.108 16.5663C13.9041 15.7701 14.9795 15.316 16.7521 15.0777C18.5535 14.8355 20.9195 14.8333 24.2083 14.8333H58.7917C62.0805 14.8333 64.4465 14.8355 66.2479 15.0777C68.0205 15.316 69.0959 15.7701 69.892 16.5663C70.6882 17.3624 71.1424 18.4378 71.3807 20.2105C71.6229 22.0118 71.625 24.3779 71.625 27.6667V57.7917H11.375V27.6667Z" stroke="white" stroke-width="2"/>
<path d="M12.6806 57.7917C10.8549 57.7917 9.375 59.2716 9.375 61.0972C9.375 64.1961 11.8872 66.7083 14.9861 66.7083H68.0139C71.1128 66.7083 73.625 64.1961 73.625 61.0972C73.625 59.2716 72.1451 57.7917 70.3194 57.7917H12.6806Z" stroke="white" stroke-width="2"/>
</svg>
