<svg width="83" height="83" viewBox="0 0 83 83" fill="none" xmlns="http://www.w3.org/2000/svg">
<path d="M49.7537 21.4571L20.4346 50.7762L20.4346 50.7762L21.1417 51.4833L20.4346 50.7762C20.4215 50.7893 20.408 50.8027 20.3942 50.8164C20.2421 50.9676 20.0494 51.1591 19.9126 51.4009C19.7757 51.6426 19.7106 51.9063 19.6592 52.1146C19.6545 52.1335 19.65 52.152 19.6455 52.1699L16.5236 64.6573C16.5208 64.6685 16.5179 64.6802 16.5149 64.6922C16.4781 64.8387 16.4271 65.0416 16.4095 65.2212C16.3893 65.4279 16.3826 65.8799 16.7514 66.2486C17.1201 66.6174 17.5721 66.6107 17.7788 66.5905C17.9584 66.5729 18.1613 66.5219 18.3078 66.4851C18.3198 66.4821 18.3314 66.4792 18.3427 66.4764L30.8301 63.3545C30.8481 63.35 30.8665 63.3455 30.8854 63.3408C31.0937 63.2894 31.3574 63.2243 31.5991 63.0874C31.8409 62.9505 32.0324 62.7579 32.1836 62.6058C32.1973 62.5919 32.2107 62.5785 32.2238 62.5654L61.5429 33.2463L61.5814 33.2078C61.8813 32.908 62.1728 32.6167 62.3808 32.344C62.6153 32.0366 62.8358 31.6387 62.8358 31.125C62.8358 30.6113 62.6153 30.2134 62.3808 29.906C62.1728 29.6333 61.8813 29.342 61.5814 29.0422L61.5429 29.0037L53.9963 21.4571L53.9578 21.4186C53.658 21.1187 53.3667 20.8272 53.094 20.6192C52.7866 20.3847 52.3887 20.1642 51.875 20.1642C51.3613 20.1642 50.9634 20.3847 50.656 20.6192C50.3833 20.8272 50.0919 21.1187 49.7921 21.4187L49.7537 21.4571Z" stroke="white" stroke-width="2"/>
<path d="M43.2292 25.9375L53.6042 19.0208L63.9792 29.3958L57.0625 39.7708L43.2292 25.9375Z" fill="white"/>
</svg>
