<svg xmlns="http://www.w3.org/2000/svg" width="525.346" height="394.988"><defs><clipPath id="a"><path fill="none" d="M0 0h525.346v394.988H0z"/></clipPath><clipPath id="b"><path fill="none" d="M0 0h26.673v31.237H0z"/></clipPath><clipPath id="c"><path fill="none" d="M0 0h458.945v6.69H0z"/></clipPath></defs><g clip-path="url(#a)"><path d="M140.039 359.8v-89.208s-.992-24.037 11.646-30.975 65.916-3.222 65.916-3.222V359.8Z" fill="#3f1c54"/><path d="M234.245 152.887s-3.222 27.011-4.461 29.241l-1.238 2.23-6.195 4.212s11.894 16.85 26.514 19.576 13.382-5.948 13.382-5.948l-2.23-4.708 2.974-25.771s-26.515-12.142-28.745-18.833" fill="#fcb59b"/><path d="m214.669 190.799 9.664-4.212s6.195 10.16 20.567 16.107 14.62 2.478 15.364 0a9.419 9.419 0 0 0-.248-5.2l1.064-8.676 5.748 1.916 19.951 161.388-51.3 2.478Z" fill="#fff"/><path d="M261.998 188.983s3.469 8.013 6.69 26.845 6.2 50.551 6.938 72.358 1.24 71.614 1.24 71.614h64.681c.743 0 5.2-24.533 5.2-24.533s-28.25-24.2-29.737-28.166c-.992-2.643-.5-51.626-4.708-74.175s-9.664-27.093-21.063-32.71c-11.781-5.8-29.241-11.233-29.241-11.233" fill="#6a6969"/><path d="M295.698 331.407a.6.6 0 0 1-.6-.6c0-1.773-.315-26.944-.619-51.287s-.619-49.523-.619-51.3a.6.6 0 0 1 1.2 0c0 1.771.315 26.943.618 51.287s.62 49.523.62 51.3a.6.6 0 0 1-.6.6" fill="#e5ecff"/><path d="m166.844 325.356-.5 34.445h75.332s3.221-29.241 1.982-31.967-76.818-2.478-76.818-2.478" fill="#6a6969"/><g clip-path="url(#b)" transform="translate(236.316 155.808)" style="mix-blend-mode:multiply;isolation:isolate"><path d="M14.366 25.576a39.424 39.424 0 0 0 10.539 5.662l1.769-15.327S6.757 6.788 0 0c1.412 7.713 4.885 17.932 14.366 25.576" fill="#f1f1f3"/></g><path d="M286.283 102.583a53.61 53.61 0 0 1 6.195 19.824c.992 10.9 0 38.9-8.921 50.8s-27.505 8.426-35.931 1.24c-7.732-6.6-15.363-13.877-17.346-28.249s4.214-41.631 21.807-47.331 34.2 3.718 34.2 3.718" fill="#fcb59b"/><path d="M308.637 344.222s-.874 0-2.2-.036c-.311-.012-.659 0-1.018-.012-1.282-.036-2.839-.072-4.408-.12l-1.054-.036c-1.557-.036-2.886.156-4.132.084h-.044c-.263-.012-.647.024-.958.036a2.328 2.328 0 0 1-.4.012 5.818 5.818 0 0 1-1.641-.647 111.411 111.411 0 0 0-25.7-3.425c-11.067.048-21 .8-22.613-.551-1.629-1.377-2.611-15.283 6.839-16.193l11.618 4.408s26.529-3.15 36.254 4.024c9.749 7.174 9.45 12.456 9.45 12.456" fill="#ff9d8c"/><path d="M295.786 344.1c-.264-.012-.647.024-.958.036a11.243 11.243 0 0 0-1.018-1.365c-2.994-3.054-10.228-5.03-12.851-5.665a.45.45 0 0 1-.335-.539.46.46 0 0 1 .551-.335c3.821.922 11.929 3.282 14.229 7.15.072.108.263.479.383.719m5.224-.048a30.797 30.797 0 0 1-1.055-.037c-3.269-5.962-8.617-7.675-15.228-9.8l-.392-.129a.451.451 0 1 1 .284-.855l.381.129c6.99 2.242 12.612 4.045 16.01 10.693m5.423.131c-.311-.007-.659 0-1.018-.013-1.983-4.169-8.546-11.146-17.228-12.771a.451.451 0 0 1-.371-.525.463.463 0 0 1 .525-.358c8.944 1.679 16.158 8.983 18.092 13.667" fill="#223a7a"/><path d="M236.228 133.934s5.452-2.6 9.293-9.911a28.218 28.218 0 0 0 3.345-13.878s6.938-1.115 17.345 1.982 22.8 7.311 33.206 1.363 10.407-15.491 5.328-19.456c-5.689-4.44-16.975-1.734-16.975-1.734s4.337-4.212 1.983-6.69-10.9.744-10.9.744-10.408-8.3-30.108-7.311-29.12 14.743-30.235 30.107 4.46 30.727 4.46 30.727Zm50.095 11.959c-.37 2.089-1.889 3.567-3.394 3.3s-2.425-2.175-2.055-4.264 1.889-3.567 3.394-3.3 2.425 2.175 2.055 4.264m-18.961-1.654c-.335 2.254-1.924 3.884-3.546 3.643s-2.668-2.265-2.333-4.518 1.924-3.885 3.548-3.643 2.667 2.264 2.332 4.518m14.546-6.956c1.158.2 2.326 0 3.495.078.28.02.558.061.837.089.2.019-.371-.059-.093-.013l.178.029c.146.026.292.056.437.092.248.06.489.153.738.208a2.843 2.843 0 0 0 .705.091l.382-.05-.241.043a2.321 2.321 0 0 0 .474-.052 1.289 1.289 0 0 0 .89-1.565 1.5 1.5 0 0 0-.254-.505c-.049-.065-.1-.129-.151-.193l.14.16a2.537 2.537 0 0 0-.155-.2.747.747 0 0 0-.265-.265c-.092-.071-.184-.146-.28-.212a3.37 3.37 0 0 0-1.074-.432 8.866 8.866 0 0 0-2.13-.273 14.8 14.8 0 0 0-2.108.168 4.056 4.056 0 0 0-1.806.668 1.2 1.2 0 0 0-.559 1.165 1.149 1.149 0 0 0 .838.973m-13.216-3.318a4.86 4.86 0 0 0-.484-.25c-.141-.065-.525-.266-.235-.107-.105-.057-.211-.116-.317-.17a7.317 7.317 0 0 0-1.5-.537 9.959 9.959 0 0 0-3.481-.238 8.085 8.085 0 0 0-3.439 1.076 2.192 2.192 0 0 0-.432.307c-.085.108-.169.217-.25.326l.071-.108a1.22 1.22 0 0 0-.52 1.01 1.007 1.007 0 0 0 .535.892 1.513 1.513 0 0 0 1.2.01h-.626a2.248 2.248 0 0 0 .933-.008c.013 0 .334-.083.122-.038s.338-.041.4-.049.441-.047.047-.008c.073-.007.145-.017.217-.026.188-.023.374-.046.562-.061a54.36 54.36 0 0 1 2.453-.128 31.362 31.362 0 0 1 2.295 0c.326.014.65.025.976.035.184 0 .105.034-.019-.006.066.02.137.034.2.052.135.038.268.081.4.132a1.139 1.139 0 0 0 1.357-.666 1.155 1.155 0 0 0-.471-1.437" fill="#292929"/><path d="M229.289 155.117s.991 3.841 6.69 8.3 13.959 7.723 13.959 7.723l.661-2.89s-8.551-3.717-12.514-7.809-4.46-6.319-4.46-6.319Z" fill="#dee1eb"/><path d="M251.59 166.111a7.166 7.166 0 0 1 7.466 5.76c.32 2.346-1.884 4.978-7.04 2.666-6.4-2.871-5.012-8.213-.426-8.426m-18.707-39.368s1.98-14.241 11.522-23.912c18.213-18.46 33.7-17.345 33.7-17.345s-.123-2.6-5.947-4.585c-5.468-1.862-7.93-.867-7.93-.867s-14.992 1.24-27.63 15.24-14 31.842-14 31.842Z" fill="#de2458"/><path d="M231.52 125.009c-11.932-2.022-18.585 7.311-19.081 16.726s6.347 16.576 15.487 15.86c20.567-1.611 18.213-30.108 3.593-32.586" fill="#de2458"/><path d="M225.578 148.441a8.132 8.132 0 0 1-7.334-4.37 9.061 9.061 0 0 1 .349-9.364.45.45 0 1 1 .743.505 8.155 8.155 0 0 0-.3 8.428 7.219 7.219 0 0 0 6.773 3.9 7.863 7.863 0 0 0 6.506-3.512 9.927 9.927 0 0 0 .982-8.8 6.7 6.7 0 0 0-6.683-4.4.449.449 0 0 1-.119-.89 7.51 7.51 0 0 1 7.643 4.966 10.854 10.854 0 0 1-1.077 9.619 8.74 8.74 0 0 1-7.231 3.918h-.253" fill="#292929"/><path d="M216.899 187.331s-36.179 8.92-48.817 23.293-18.585 85.244-18.833 98.377 8.92 18.585 14.372 22.3 29.489 10.407 48.817 11.4 37.665 0 37.665 0-.062-4.212 2.912-10.407c2.758-5.747 6.257-6.94 6.257-6.94l-16.6-5.947s-2.907-52.093-7.434-77.314c-5.2-28.993-18.337-54.764-18.337-54.764" fill="#6a6969"/><path d="M276.866 311.087a.6.6 0 0 1-.547-.841c3.389-7.648 6.9-22.663 8.88-33.2l.163-.852c.6-3.1 1.344-6.953-.142-9.612-.758-1.357-2.471-4.3-4.118-7.131-1.709-2.939-3.322-5.714-3.77-6.542-.873-1.618 1.874-5.939 5.852-11.867 1.074-1.6 2-2.986 2.544-3.922 1.418-2.453.474-4.7-.618-7.3l-.373-.9c-.99-2.431-2.116-4.867-3.2-7.223-.446-.963-.891-1.926-1.329-2.895q-.871-1.922-1.757-3.9a228.363 228.363 0 0 0-11.759-23.675.6.6 0 0 1 1.029-.612 229.289 229.289 0 0 1 11.817 23.802q.888 1.976 1.755 3.9.659 1.448 1.326 2.886c1.095 2.368 2.225 4.817 3.227 7.274l.368.885c1.114 2.653 2.266 5.4.551 8.364-.562.973-1.5 2.371-2.587 3.99-2.073 3.091-6.389 9.525-5.792 10.631.438.812 2.048 3.579 3.751 6.509 1.65 2.837 3.368 5.788 4.128 7.148 1.7 3.042.908 7.135.273 10.424l-.163.846c-.72 3.836-4.537 23.477-8.961 33.46a.6.6 0 0 1-.547.357m-35.312 2.098a.6.6 0 0 1-.425-.177c-2.816-2.837-16.394-26.351-17.4-30.771-.555-2.421.836-8.56 2.179-14.5 1.041-4.6 2.118-9.358 1.812-10.645-.459-1.926-3.93-4.762-7.288-7.5-4.057-3.313-8.251-6.741-9.064-9.827-.923-3.508-.133-25.47.389-40 .187-5.226.335-9.353.334-10.825a.6.6 0 0 1 1.2 0c0 1.495-.147 5.632-.335 10.869-.489 13.583-1.306 36.316-.428 39.655.714 2.709 4.937 6.16 8.664 9.2 3.673 3 7.143 5.836 7.694 8.155.371 1.557-.638 6.02-1.807 11.185-1.253 5.537-2.673 11.812-2.181 13.969.992 4.335 14.323 27.407 17.089 30.193a.6.6 0 0 1-.425 1.022m-48.701-10.282a.656.656 0 0 1-.084-.006.6.6 0 0 1-.51-.677c.441-3.115 7.314-65.156 7.629-69.908a.592.592 0 0 1 .638-.558.6.6 0 0 1 .557.637c-.316 4.76-7.2 66.877-7.638 70a.6.6 0 0 1-.593.515" fill="#e5ecff"/><path d="M242.174 319.758a.626.626 0 0 1-.225-.043c-1.522-.618-8.253-2.888-16.773-5.761-17.2-5.8-40.749-13.741-45.229-16.07a.6.6 0 1 1 .552-1.061c4.4 2.284 28.867 10.535 45.059 16 8.54 2.88 15.285 5.155 16.841 5.785a.6.6 0 0 1-.225 1.155m-8.269 24.7c-15.135 0-44.477-2.728-66.766-10.612a.6.6 0 0 1 .4-1.131c28.158 9.961 67.548 11.662 74.877 10.016a.6.6 0 1 1 .262 1.169 47.778 47.778 0 0 1-8.772.557" fill="#e5ecff"/><path d="M60.674 195.686c4.7 4.133 10.65 6.783 14.772 11.56 1.623 1.88 3.079 3.882 4.586 5.853 1.1 1.435 4.022 3.815 4.5 5.618.208.794.164-.281-.046-1.078-.008-.034-.026-.066-.036-.1-.411-3.652-.707-7.318-.834-10.991s.1-7.342-.129-11c-.325-5.161-1.935-10.158-6.153-13.39-2.062-1.581-4.712-2.543-6.608-4.3-1.8-1.665-1.077-3.572-.019-5.428.989-1.737 2.189-3.445 2.575-5.445a9.613 9.613 0 0 0-1.569-6.554c-2.454-4.119-7.9-8.713-13.05-8.1-4.3.514-4.785 5.471-4.724 8.926.06 3.357.392 6.7.424 10.065.034 3.453-.553 6.839-.6 10.276-.084 5.845 2.617 10.3 6.914 14.078" fill="#12a87a"/><path d="M104.332 249.323a55.153 55.153 0 0 1 4.654-8.874c2.532-3.894 5.339-7.687 7.04-12.045 1.737-4.451 1.482-9.21 1.653-13.9.126-3.445 1.149-6.878.873-10.331-.133-1.656-1.088-4.336-3.23-4.061-1.667.213-2.658 2.28-3.3 3.6a63.378 63.378 0 0 0-2.724 7.172c-.325.944-.634 1.907-1.043 2.818-.24.531-1 1.824-1.713 1.648-1.217-.3-.113-5.272.068-6.153.91-4.422 2.279-8.531 2.468-13.081.275-6.6-.237-14.45-6.689-18.058-1.688-.943-3.824-1.5-5.427-.095-1.581 1.392-2.028 3.8-2.262 5.789-.72 6.093.714 11.862 2.666 17.594 1.612 4.733 3.533 9.618 3.673 14.679.135 4.872-2.4 9.19-3.59 13.792a43.611 43.611 0 0 0-1.513 13.6c-.012 2.975.1 5.919.314 8.887.2 2.727.436 5.456.77 8.17.067.55.129 1.123.2 1.7-1.048-2.524-1.414-5.415-2.282-7.95-1.543-4.507-3.333-8.922-4.814-13.451a111.613 111.613 0 0 0-3.993-11.109c-1.515-3.375-3.344-6.944-6.169-9.421a9 9 0 0 0-6.062-2.356 16.75 16.75 0 0 0-4.168.886 4.7 4.7 0 0 1-4.481-.788c-4.624-3.555-6.03-9.929-9.455-14.429-2.553-3.357-8.611-9.08-13.066-5.42-2.363 1.943-3.015 5.7-2.891 8.572.156 3.609 1.733 6.91 3.611 9.927 2 3.21 4.578 6.083 6.414 9.382a9.965 9.965 0 0 1 1.082 6.016 14.329 14.329 0 0 0 .364 6.074c2.119 6 8.738 5.163 13.887 5.32a38.528 38.528 0 0 1 10.887 1.8 12.1 12.1 0 0 1 7.937 7.813c1.023 2.83 1.569 6.042 3.495 8.446a8.991 8.991 0 0 0 3.423 2.549c2.009.887 8.129 1.273 8.174.715a27.455 27.455 0 0 1 1.594-5.623c1.042-3.331 2.267-6.579 3.617-9.8m28.43-1.135c-.532-3.43-.43-7.211-2.054-10.361a.469.469 0 0 0-.632-.165c-1.164.646-1.213 2.526-1.308 3.678-.158 1.912-.041 3.828-.275 5.733a43 43 0 0 1-2.393 9.958 10.708 10.708 0 0 1-7.452 6.711c-2.318.716-4.59 1.339-6.523 2.876a13.742 13.742 0 0 0-3.825 5.276c-2.407 5.4-3.554 11.431-4.669 17.2-.752 3.883-1.364 7.784-2.308 11.627a114.353 114.353 0 0 0-2.495 11.586c-.091.2-.187.393-.272.593-.247.587.672.9.988.417 3.721-5.729 8.255-10.87 14.439-14.025 2.793-1.425 6.5-1.72 8.833-3.96 1.773-1.7 2.017-4.3 1.752-6.617-.349-3.043-1.807-5.549-3.326-8.142-.835-1.424-1.821-2.951-1.484-4.682a6.038 6.038 0 0 1 3.025-3.674c2.57-1.6 5.576-2.315 7.682-4.616a12.613 12.613 0 0 0 3.257-7.675 52.933 52.933 0 0 0-.959-11.741" fill="#12a87a"/><path d="M82.014 267.97a49.429 49.429 0 0 0-11.708-10.838c-2.379-1.58-7.993-4.7-9.125-.036-.665 2.732 2.01 5.42 3.769 7.132 2.645 2.573 5.7 4.794 7.935 7.76-2.763.882-5.65 1.053-8.051 2.963-2.841 2.261-4.118 6.629-1.3 9.4a17.859 17.859 0 0 0 4.9 3.006c2.223 1.077 4.487 2.052 6.765 3 4.919 2.055 9.9 4.14 14.1 7.506 4.276 3.431 8.294 9.232 8.634 14.829.034.534-.169.047.15-.2.174.156.761-.123.757-.436a59.044 59.044 0 0 0-4.974-23.822 99.481 99.481 0 0 0-11.856-20.269" fill="#12a87a"/><path d="M70.671 190.654a236.804 236.804 0 0 0 5.718 11.1 89.361 89.361 0 0 1 5.317 10.8c1.783 4.637 3.653 9.2 5.538 13.8a136.2 136.2 0 0 1 5.115 14.61 173.451 173.451 0 0 1 5.788 29.716 120.689 120.689 0 0 1 .6 15.359c-.109 4.005-.561 7.968-.938 11.953a70.8 70.8 0 0 0-.327 12.5c.29 3.478.843 7.613 3.543 10.094a.621.621 0 0 0 .97-.749c-3.207-6.579-3.028-13.748-2.415-20.882.338-3.937.808-7.855.94-11.807a118.219 118.219 0 0 0-.5-15.077 178.4 178.4 0 0 0-5.44-29.122 131.426 131.426 0 0 0-4.784-14.41c-1.866-4.723-4.021-9.317-5.829-14.063-3.271-8.584-8.256-16.194-12.669-24.195-.229-.416-.831-.05-.63.369" fill="#292929"/><path d="M98.293 260.845c.519-6.252 1.073-12.27 3.18-18.234.983-2.781 2.174-5.485 3.122-8.277.783-2.308 1.956-5.473 1.352-7.925a.283.283 0 0 0-.541 0c-.4 1.4-.359 2.937-.649 4.374a38.747 38.747 0 0 1-1.1 4.13c-.925 2.889-2.133 5.658-3.18 8.5a42.068 42.068 0 0 0-2.618 17.433.215.215 0 0 0 .43 0m-36.218-35.925c2.48 5.994 9.94 6.339 15.373 7.682a14.413 14.413 0 0 1 8.8 6.907 52.789 52.789 0 0 1 5.026 12.093.037.037 0 0 0 .072-.019c-1.519-7.185-3.7-15.836-11.1-19.179-5.935-2.679-13.756-1.334-17.551-7.744-.188-.315-.768-.1-.616.26" fill="#e5ecff"/><path d="M94.375 259.897c.295.4.565.814.871 1.206a3.246 3.246 0 0 0 .493.532 1.155 1.155 0 0 0 .691.352.151.151 0 0 0 .129-.225 2.374 2.374 0 0 0-.517-.473c-.177-.157-.359-.311-.532-.474-.346-.328-.664-.684-1-1.019-.065-.065-.19.023-.132.1" fill="#43578e"/><path d="M78.855 278.911a60.381 60.381 0 0 1 11.365 12.225 73.928 73.928 0 0 1 4.141 6.812 75.982 75.982 0 0 1 3.345 7.892c.081.2.45.206.423-.058-.6-5.636-4.166-10.469-7.025-15.159a36.145 36.145 0 0 0-5.319-6.433 47.211 47.211 0 0 0-6.544-5.775c-.292-.206-.666.269-.386.5m34.079-6.641c-2.061 1.169-2.128 4.424-2.169 6.5-.078 4 .911 7.747-.842 11.554-1.583 3.436-4.113 6.307-6.1 9.5-1.861 2.989-3.7 6.809-3.657 10.408 0 .207.321.323.418.111a43.355 43.355 0 0 0 1.556-5.2 21.813 21.813 0 0 1 2.539-5.366c1.914-2.966 4.264-5.664 5.816-8.855 1.636-3.361 1.4-6.69 1.289-10.333-.068-2.324-.3-6.054 1.571-7.783.293-.27-.081-.734-.419-.544" fill="#e5ecff"/><path d="M99.153 311.612c-8.3-.115-24.121-.206-24.121-.206l3.914 29.057a13.175 13.175 0 0 0 13.057 11.417h14.3a13.175 13.175 0 0 0 13.057-11.417l3.913-29.057s-15.816.091-24.119.206" fill="#de2458"/><path d="m500.506 257.211-47.372 93.834-138.107.99 42.621-96.145Z" fill="#f6f7fa"/><path d="m223.371 351.451.026-7.511h89.4l41.134-90.2h142.983l3.593 3.469H360.829l-42.746 94.165s-94.715-.171-94.715.077" fill="#dadee8"/><path d="M428.791 308.99c-1.561 4.681-10.028 8.294-18.914 8.073s-14.824-4.2-13.265-8.877 10.028-8.294 18.914-8.073 14.825 4.2 13.264 8.877" fill="#dadee8"/><path d="M318.085 351.974a.609.609 0 0 1-.248-.054.6.6 0 0 1-.3-.793l42.9-94.515h140.07a.6.6 0 1 1 0 1.2H361.216l-42.587 93.814a.6.6 0 0 1-.545.351" fill="#fff"/><path fill="#464646" d="M52.855 358.562h164.291v36.426H52.855z"/><path d="M216.208 358.562H511.8v36.426H216.208Z" fill="#737374"/><g clip-path="url(#c)" transform="translate(52.855 358.561)" style="mix-blend-mode:multiply;isolation:isolate"><path d="M164.291 0H0v6.69h458.944V0Z" fill="#bdc4d7"/></g><path fill="#464646" d="M44.926 351.376h179.407v8.92H44.926z"/><path fill="#737374" d="M223.394 351.376h295.592v8.92H223.394z"/><path d="M266.935 164.117c.229-.3.525-.179.695.32.042.106 1.069 2.562 5.1 2.863 4.336.327 6.247-1.393 6.266-1.412.282-.261.6.064.714.727a2.178 2.178 0 0 1-.3 1.683c-.084.077-2.1 1.939-6.709 1.6-4.668-.352-5.815-3.5-5.93-3.862a2.61 2.61 0 0 1 .106-1.814.762.762 0 0 1 .065-.1" fill="#a3634c"/></g></svg>