<svg xmlns="http://www.w3.org/2000/svg" xmlns:xlink="http://www.w3.org/1999/xlink" width="315.344" height="330.257"><defs><clipPath id="c"><path d="M170.624 442.9a4.894 4.894 0 0 0-4.894 4.894v68.827h260.611V447.79a4.894 4.894 0 0 0-4.894-4.894Z" transform="translate(-165.73 -442.896)" fill="#7b7b7b"/></clipPath><clipPath id="d"><path d="M387.019 824.4v165.5a11.923 11.923 0 0 1-11.923 11.923h-244.27a11.923 11.923 0 0 1-11.926-11.928V824.4h-4.767v175.164a18.959 18.959 0 0 0 18.959 18.959h239.735a18.959 18.959 0 0 0 18.959-18.959V824.4Z" transform="translate(-114.136 -824.397)" fill="none" opacity=".34"/></clipPath><clipPath id="e"><rect width="248.29" height="39.865" rx="19.727"/></clipPath><clipPath id="f"><path fill="none" d="M0 0h315.344v330.257H0z"/></clipPath><clipPath id="g"><path d="M589.283 821.284a23.534 23.534 0 0 0-16.387 6.6l-36.4 35 2.715 2.825 36.405-35a19.632 19.632 0 0 1 13.671-5.507h32.581a19.634 19.634 0 0 1 13.671 5.507l36.4 35 2.716-2.825-36.4-35a23.536 23.536 0 0 0-16.387-6.6Z" transform="translate(-536.491 -821.284)"/></clipPath><clipPath id="h"><path d="M849.346 794.66a6.355 6.355 0 0 0 0 12.711h24.428a6.355 6.355 0 0 0 0-12.711Z" transform="translate(-842.991 -794.66)"/></clipPath><clipPath id="i"><path d="M332.471 824.4v20a12.172 12.172 0 0 1-12.171 12.171h-86.479A12.172 12.172 0 0 1 221.65 844.4v-20H143v165.5a11.923 11.923 0 0 0 11.923 11.923H399.2a11.923 11.923 0 0 0 11.923-11.923V824.4Z" transform="translate(-143.002 -824.397)" fill="#3f1c54"/></clipPath><clipPath id="j"><path d="M193.314 1221.486v76.225a14.518 14.518 0 0 0 14.518 14.518H430.3a14.518 14.518 0 0 0 14.518-14.518v-4.227c-.135 0-.266.02-.4.02H221.947a14.518 14.518 0 0 1-14.518-14.518v-72a14.508 14.508 0 0 0-14.116 14.5" transform="translate(-193.314 -1206.988)" fill="none"/></clipPath><clipPath id="k"><path d="M279.2 1206.865c-.136 0-.267.017-.4.02v72a14.518 14.518 0 0 0 14.518 14.518H515.78c.136 0 .267-.017.4-.02v-72a14.518 14.518 0 0 0-14.518-14.518Z" transform="translate(-278.797 -1206.865)" fill="none"/></clipPath><clipPath id="m"><path d="M7.349 0h145.46a7.349 7.349 0 0 1 7.349 7.349 7.348 7.348 0 0 1-7.348 7.348H7.348A7.348 7.348 0 0 1 0 7.349 7.349 7.349 0 0 1 7.349 0Z" fill="none"/></clipPath><clipPath id="o"><path d="M325.716 1258.33a8.192 8.192 0 1 0 8.193-8.193 8.193 8.193 0 0 0-8.193 8.193" transform="translate(-325.716 -1250.138)" fill="none"/></clipPath><clipPath id="q"><path d="M491.292 1258.33a8.193 8.193 0 1 0 8.193-8.193 8.192 8.192 0 0 0-8.193 8.193" transform="translate(-491.292 -1250.138)" fill="none"/></clipPath><clipPath id="s"><path d="M656.869 1258.33a8.192 8.192 0 1 0 8.192-8.193 8.192 8.192 0 0 0-8.192 8.193" transform="translate(-656.869 -1250.138)" fill="none"/></clipPath><clipPath id="u"><path d="M822.444 1258.33a8.192 8.192 0 1 0 8.193-8.193 8.193 8.193 0 0 0-8.193 8.193" transform="translate(-822.444 -1250.138)" fill="none"/></clipPath><clipPath id="w"><path d="M988.021 1258.33a8.192 8.192 0 1 0 8.192-8.193 8.192 8.192 0 0 0-8.192 8.193" transform="translate(-988.021 -1250.138)" fill="none"/></clipPath><clipPath id="y"><path d="M1153.6 1258.33a8.192 8.192 0 1 0 8.192-8.193 8.192 8.192 0 0 0-8.192 8.193" transform="translate(-1153.597 -1250.138)" fill="none"/></clipPath><clipPath id="A"><path d="M1319.172 1258.33a8.192 8.192 0 1 0 8.192-8.193 8.192 8.192 0 0 0-8.192 8.193" transform="translate(-1319.172 -1250.138)" fill="none"/></clipPath><clipPath id="C"><path d="M1484.749 1258.33a8.192 8.192 0 1 0 8.192-8.193 8.192 8.192 0 0 0-8.192 8.193" transform="translate(-1484.749 -1250.138)" fill="none"/></clipPath><clipPath id="E"><path d="M325.716 1450.34a8.192 8.192 0 1 0 8.193-8.192 8.192 8.192 0 0 0-8.193 8.192" transform="translate(-325.716 -1442.148)" fill="none"/></clipPath><clipPath id="G"><path d="M491.292 1450.34a8.193 8.193 0 1 0 8.193-8.192 8.192 8.192 0 0 0-8.193 8.192" transform="translate(-491.292 -1442.148)" fill="none"/></clipPath><clipPath id="I"><path d="M656.869 1450.34a8.192 8.192 0 1 0 8.192-8.192 8.192 8.192 0 0 0-8.192 8.192" transform="translate(-656.869 -1442.148)" fill="none"/></clipPath><clipPath id="K"><path d="M822.444 1450.34a8.192 8.192 0 1 0 8.193-8.192 8.192 8.192 0 0 0-8.193 8.192" transform="translate(-822.444 -1442.148)" fill="none"/></clipPath><clipPath id="M"><path d="M988.021 1450.34a8.192 8.192 0 1 0 8.192-8.192 8.192 8.192 0 0 0-8.192 8.192" transform="translate(-988.021 -1442.148)" fill="none"/></clipPath><clipPath id="O"><path d="M1153.6 1450.34a8.192 8.192 0 1 0 8.192-8.192 8.192 8.192 0 0 0-8.192 8.192" transform="translate(-1153.597 -1442.148)" fill="none"/></clipPath><clipPath id="Q"><path d="M1319.172 1450.34a8.192 8.192 0 1 0 8.192-8.192 8.192 8.192 0 0 0-8.192 8.192" transform="translate(-1319.172 -1442.148)" fill="none"/></clipPath><clipPath id="S"><path d="M1484.749 1450.34a8.192 8.192 0 1 0 8.192-8.192 8.192 8.192 0 0 0-8.192 8.192" transform="translate(-1484.749 -1442.148)" fill="none"/></clipPath><clipPath id="U"><path d="M325.716 1642.35a8.192 8.192 0 1 0 8.193-8.193 8.193 8.193 0 0 0-8.193 8.193" transform="translate(-325.716 -1634.157)" fill="none"/></clipPath><clipPath id="W"><path d="M1484.749 1642.35a8.192 8.192 0 1 0 8.192-8.193 8.192 8.192 0 0 0-8.192 8.193" transform="translate(-1484.749 -1634.157)" fill="none"/></clipPath><clipPath id="Y"><path d="M0 0h296.319v5.877H0z"/></clipPath><clipPath id="Z"><path d="M4.085 0H22.43a4.084 4.084 0 0 1 4.084 4.084v2.854a4.085 4.085 0 0 1-4.085 4.085H4.085A4.085 4.085 0 0 1 0 6.938V4.085A4.085 4.085 0 0 1 4.085 0Z" fill="#3f1c54"/></clipPath><clipPath id="aa"><path fill="#606060" d="M0 0h13.684v23.038H0z"/></clipPath><clipPath id="ab"><path fill="none" d="M0 0h13.683v41.022H0z"/></clipPath><linearGradient id="a" x1="-.127" y1="1.244" x2="-.126" y2="1.244" gradientUnits="objectBoundingBox"><stop offset="0" stop-color="#d1d3d4"/><stop offset="1" stop-color="#f1f2f2"/></linearGradient><linearGradient id="l" x1="-.194" y1="1.513" x2="-.193" y2="1.513" xlink:href="#a"/><linearGradient id="n" x1="-.484" y1="4.111" x2="-.483" y2="4.111" xlink:href="#a"/><linearGradient id="p" x1="-3.283" y1="7.557" x2="-3.273" y2="7.557" xlink:href="#a"/><linearGradient id="r" x1="-4.951" y1="7.557" x2="-4.941" y2="7.557" xlink:href="#a"/><linearGradient id="t" x1="-6.62" y1="7.557" x2="-6.61" y2="7.557" xlink:href="#a"/><linearGradient id="v" x1="-8.289" y1="7.557" x2="-8.279" y2="7.557" xlink:href="#a"/><linearGradient id="x" x1="-9.957" y1="7.557" x2="-9.947" y2="7.557" xlink:href="#a"/><linearGradient id="z" x1="-11.626" y1="7.557" x2="-11.616" y2="7.557" xlink:href="#a"/><linearGradient id="B" x1="-13.295" y1="7.557" x2="-13.285" y2="7.557" xlink:href="#a"/><linearGradient id="D" x1="-14.963" y1="7.557" x2="-14.953" y2="7.557" xlink:href="#a"/><linearGradient id="F" x1="-3.283" y1="5.622" x2="-3.273" y2="5.622" xlink:href="#a"/><linearGradient id="H" x1="-4.951" y1="5.622" x2="-4.941" y2="5.622" xlink:href="#a"/><linearGradient id="J" x1="-6.62" y1="5.622" x2="-6.61" y2="5.622" xlink:href="#a"/><linearGradient id="L" x1="-8.289" y1="5.622" x2="-8.279" y2="5.622" xlink:href="#a"/><linearGradient id="N" x1="-9.957" y1="5.622" x2="-9.947" y2="5.622" xlink:href="#a"/><linearGradient id="P" x1="-11.626" y1="5.622" x2="-11.616" y2="5.622" xlink:href="#a"/><linearGradient id="R" x1="-13.295" y1="5.622" x2="-13.285" y2="5.622" xlink:href="#a"/><linearGradient id="T" x1="-14.963" y1="5.622" x2="-14.953" y2="5.622" xlink:href="#a"/><linearGradient id="V" x1="-3.283" y1="3.687" x2="-3.273" y2="3.687" xlink:href="#a"/><linearGradient id="X" x1="-14.963" y1="3.687" x2="-14.953" y2="3.687" xlink:href="#a"/><linearGradient id="b" y1="5.697" x2=".012" y2="5.697" gradientUnits="objectBoundingBox"><stop offset="0" stop-color="#939598"/><stop offset="1" stop-color="#d1d3d4"/></linearGradient><linearGradient id="ac" x1="-22.046" y1="5.697" x2="-22.034" y2="5.697" xlink:href="#b"/></defs><g clip-path="url(#c)" transform="translate(27.367 73.135)"><path fill="#7b7b7b" d="M0 0h260.611v73.721H0z"/></g><g clip-path="url(#d)" transform="translate(18.847 136.131)"><path d="M0 0h277.65v194.126H0Z"/></g><g clip-path="url(#e)" transform="translate(33.527 56.689)"><path d="M0 0h248.29v39.865H0z"/></g><g clip-path="url(#f)"><path d="M268.19 40.479 227.706 0 48.793.01l.006 180.348h219.395Z" fill="#ededed"/><path d="M227.708 40.482h40.482L227.706 0Z" fill="#bcbec0"/></g><g clip-path="url(#g)" transform="translate(88.59 135.617)"><path d="M0 0h138.165v44.428H0z"/></g><g clip-path="url(#h)" transform="translate(139.202 131.221)"><path d="M0 0h37.139v12.711H0z"/></g><g clip-path="url(#i)" transform="translate(23.614 136.131)"><path fill="#3f1c54" d="M0 0h268.117v177.421H0z"/></g><g clip-path="url(#j)" transform="translate(31.922 199.308)"><path fill="url(#a)" d="M0 0h251.501v105.241H0z"/></g><g clip-path="url(#k)" transform="translate(46.037 199.288)"><path fill="url(#l)" d="M0 0h237.385v86.537H0z"/></g><g clip-path="url(#f)"><path d="M237.751 277.8v5.085a6.743 6.743 0 0 1-6.743 6.743H84.337a6.743 6.743 0 0 1-6.743-6.743V277.8Z" fill="#bcbec0"/></g><g clip-path="url(#m)" transform="translate(77.594 269.846)"><path fill="url(#n)" d="M0 0h160.157v14.697H0z"/></g><g clip-path="url(#f)"><path d="M53.785 218.023a8.193 8.193 0 1 0 16.385 0v-3.4H53.785Z" fill="#bcbec0"/></g><g clip-path="url(#o)" transform="translate(53.785 206.433)"><path fill="url(#p)" d="M0 0h16.385v16.385H0z"/></g><g clip-path="url(#f)"><path d="M81.126 218.023a8.193 8.193 0 0 0 16.385 0v-3.4H81.126Z" fill="#bcbec0"/></g><g clip-path="url(#q)" transform="translate(81.126 206.433)"><path fill="url(#r)" d="M0 0h16.385v16.385H0z"/></g><g clip-path="url(#f)"><path d="M108.468 218.023a8.193 8.193 0 1 0 16.385 0v-3.4h-16.385Z" fill="#bcbec0"/></g><g clip-path="url(#s)" transform="translate(108.468 206.433)"><path fill="url(#t)" d="M0 0h16.385v16.385H0z"/></g><g clip-path="url(#f)"><path d="M135.809 218.023a8.193 8.193 0 0 0 16.385 0v-3.4h-16.385Z" fill="#bcbec0"/></g><g clip-path="url(#u)" transform="translate(135.809 206.433)"><path fill="url(#v)" d="M0 0h16.385v16.385H0z"/></g><g clip-path="url(#f)"><path d="M163.15 218.023a8.193 8.193 0 1 0 16.385 0v-3.4H163.15Z" fill="#bcbec0"/></g><g clip-path="url(#w)" transform="translate(163.15 206.433)"><path fill="url(#x)" d="M0 0h16.385v16.385H0z"/></g><g clip-path="url(#f)"><path d="M190.496 218.023a8.193 8.193 0 1 0 16.385 0v-3.4h-16.385Z" fill="#bcbec0"/></g><g clip-path="url(#y)" transform="translate(190.492 206.433)"><path fill="url(#z)" d="M0 0h16.385v16.385H0z"/></g><g clip-path="url(#f)"><path d="M217.833 218.023a8.193 8.193 0 1 0 16.385 0v-3.4h-16.385Z" fill="#bcbec0"/></g><g clip-path="url(#A)" transform="translate(217.833 206.433)"><path fill="url(#B)" d="M0 0h16.385v16.385H0z"/></g><g clip-path="url(#f)"><path d="M245.174 218.023a8.193 8.193 0 1 0 16.385 0v-3.4h-16.385Z" fill="#bcbec0"/></g><g clip-path="url(#C)" transform="translate(245.174 206.433)"><path fill="url(#D)" d="M0 0h16.385v16.385H0z"/></g><g clip-path="url(#f)"><path d="M53.785 249.729a8.193 8.193 0 0 0 16.385 0v-3.4H53.785Z" fill="#bcbec0"/></g><g clip-path="url(#E)" transform="translate(53.785 238.14)"><path fill="url(#F)" d="M0 0h16.385v16.385H0z"/></g><g clip-path="url(#f)"><path d="M81.126 249.729a8.193 8.193 0 0 0 16.385 0v-3.4H81.126Z" fill="#bcbec0"/></g><g clip-path="url(#G)" transform="translate(81.126 238.14)"><path fill="url(#H)" d="M0 0h16.385v16.385H0z"/></g><g clip-path="url(#f)"><path d="M108.468 249.729a8.193 8.193 0 0 0 16.385 0v-3.4h-16.385Z" fill="#bcbec0"/></g><g clip-path="url(#I)" transform="translate(108.468 238.14)"><path fill="url(#J)" d="M0 0h16.385v16.385H0z"/></g><g clip-path="url(#f)"><path d="M135.809 249.729a8.193 8.193 0 0 0 16.385 0v-3.4h-16.385Z" fill="#bcbec0"/></g><g clip-path="url(#K)" transform="translate(135.809 238.14)"><path fill="url(#L)" d="M0 0h16.385v16.385H0z"/></g><g clip-path="url(#f)"><path d="M163.15 249.729a8.193 8.193 0 1 0 16.385 0v-3.4H163.15Z" fill="#bcbec0"/></g><g clip-path="url(#M)" transform="translate(163.15 238.14)"><path fill="url(#N)" d="M0 0h16.385v16.385H0z"/></g><g clip-path="url(#f)"><path d="M190.496 249.729a8.193 8.193 0 1 0 16.385 0v-3.4h-16.385Z" fill="#bcbec0"/></g><g clip-path="url(#O)" transform="translate(190.492 238.14)"><path fill="url(#P)" d="M0 0h16.385v16.385H0z"/></g><g clip-path="url(#f)"><path d="M217.833 249.729a8.193 8.193 0 0 0 16.385 0v-3.4h-16.385Z" fill="#bcbec0"/></g><g clip-path="url(#Q)" transform="translate(217.833 238.14)"><path fill="url(#R)" d="M0 0h16.385v16.385H0z"/></g><g clip-path="url(#f)"><path d="M245.174 249.729a8.193 8.193 0 1 0 16.385 0v-3.4h-16.385Z" fill="#bcbec0"/></g><g clip-path="url(#S)" transform="translate(245.174 238.14)"><path fill="url(#T)" d="M0 0h16.385v16.385H0z"/></g><g clip-path="url(#f)"><path d="M53.785 281.435a8.193 8.193 0 0 0 16.385 0v-3.4H53.785Z" fill="#bcbec0"/></g><g clip-path="url(#U)" transform="translate(53.785 269.846)"><path fill="url(#V)" d="M0 0h16.385v16.385H0z"/></g><g clip-path="url(#f)"><path d="M245.174 281.435a8.193 8.193 0 1 0 16.385 0v-3.4h-16.385Z" fill="#bcbec0"/></g><g clip-path="url(#W)" transform="translate(245.174 269.846)"><path fill="url(#X)" d="M0 0h16.385v16.385H0z"/></g><g clip-path="url(#Y)" transform="translate(9.512 114.46)"><path d="M0 0h296.319v5.877H0z"/></g><g clip-path="url(#Z)" transform="translate(81.656 111.887)"><path fill="#3f1c54" d="M0 0h26.514v11.023H0z"/></g><g clip-path="url(#Z)" transform="translate(207.175 111.887)"><path fill="#3f1c54" d="M0 0h26.514v11.023H0z"/></g><g clip-path="url(#aa)" transform="translate(13.683 105.546)"><path fill="#606060" d="M0 0h13.684v23.038H0z"/></g><g clip-path="url(#ab)" transform="translate(0 96.554)"><path fill="url(#b)" d="M0 0h13.683v41.022H0z"/></g><g clip-path="url(#aa)" transform="translate(287.977 105.546)"><path fill="#606060" d="M0 0h13.684v23.038H0z"/></g><g clip-path="url(#ab)" transform="translate(301.661 96.554)"><path fill="url(#ac)" d="M0 0h13.683v41.022H0z"/></g></svg>