<svg width="222.380890" height="50.000000" viewBox="0 0 222.381 50" fill="none" xmlns="http://www.w3.org/2000/svg" xmlns:xlink="http://www.w3.org/1999/xlink">
	
	<defs/>
	<path id="Vector" d="M175.65 24.71C175.65 17.59 177.56 12.37 181.39 9.05C185.22 5.72 190.84 4.06 198.25 4.06C205.69 4.06 211.29 5.64 215.06 8.8C218.86 11.95 220.75 17.06 220.75 24.12C220.75 27.86 220.02 30.9 218.57 33.25C217.54 34.95 216.44 36.47 215.26 37.79L219.71 37.79C220.48 37.79 221.12 38.05 221.62 38.58C222.12 39.08 222.38 39.7 222.38 40.43L222.38 42.72C222.38 43.45 222.12 44.08 221.62 44.6C221.12 45.11 220.48 45.36 219.71 45.36L198.2 45.36C190.82 45.36 185.22 43.69 181.39 40.37C177.56 37.05 175.65 31.83 175.65 24.71ZM198.2 37.79C206.19 37.79 210.19 33.24 210.19 24.12C210.19 19.88 209.25 16.74 207.36 14.71C205.47 12.65 202.43 11.63 198.23 11.63C194.04 11.63 190.99 12.74 189.07 14.96C187.16 17.18 186.21 20.43 186.21 24.71C186.21 28.99 187.16 32.24 189.07 34.46C190.99 36.68 194.03 37.79 198.2 37.79Z" fill="#FF7A00" fill-opacity="1.000000" fill-rule="nonzero"/>
	<path id="Vector" d="M156.47 42.5L156.47 7.56C156.47 6.83 156.73 6.21 157.25 5.69C157.78 5.16 158.4 4.9 159.13 4.9L164.34 4.9C165.11 4.9 165.74 5.16 166.25 5.69C166.77 6.21 167.03 6.83 167.03 7.56L167.03 42.44C167.03 43.17 166.76 43.8 166.22 44.32C165.7 44.82 165.07 45.08 164.34 45.08L159.13 45.08C158.4 45.08 157.78 44.83 157.25 44.35C156.73 43.84 156.47 43.23 156.47 42.5Z" fill="#FF7A00" fill-opacity="1.000000" fill-rule="nonzero"/>
	<path id="Vector" d="M94.26 42.39L94.26 7.62C94.26 6.85 94.52 6.21 95.02 5.69C95.52 5.16 96.14 4.9 96.87 4.9L108.27 4.9C109 4.9 109.69 5.16 110.35 5.69C111 6.21 111.44 6.83 111.66 7.56L119.93 31.49L128.19 7.56C128.42 6.83 128.85 6.21 129.51 5.69C130.16 5.16 130.85 4.9 131.58 4.9L142.98 4.9C143.71 4.9 144.32 5.16 144.81 5.69C145.31 6.21 145.56 6.85 145.56 7.62L145.56 42.39C145.56 43.15 145.3 43.8 144.78 44.32C144.27 44.82 143.66 45.08 142.93 45.08L137.89 45.08C137.16 45.08 136.53 44.82 136.01 44.32C135.5 43.8 135.25 43.15 135.25 42.39L135.25 15.02L125.36 42.56C125.1 43.25 124.64 43.84 123.99 44.35C123.34 44.83 122.64 45.08 121.92 45.08L117.91 45.08C117.18 45.08 116.49 44.83 115.84 44.35C115.2 43.84 114.74 43.25 114.46 42.56L104.6 15.02L104.6 42.39C104.6 43.15 104.34 43.8 103.82 44.32C103.31 44.82 102.7 45.08 101.97 45.08L96.93 45.08C96.2 45.08 95.57 44.82 95.05 44.32C94.53 43.8 94.26 43.15 94.26 42.39Z" fill="#FFFFFF" fill-opacity="1.000000" fill-rule="nonzero"/>
	<path id="Vector" d="M45.92 10.2L45.92 7.56C45.92 6.8 46.18 6.16 46.68 5.66C47.19 5.15 47.82 4.9 48.59 4.9L84.14 4.9C84.9 4.9 85.54 5.15 86.04 5.66C86.55 6.16 86.8 6.8 86.8 7.56L86.8 10.2C86.8 10.96 86.55 11.6 86.04 12.1C85.54 12.59 84.9 12.83 84.14 12.83L71.64 12.83L71.64 42.5C71.64 43.23 71.38 43.84 70.86 44.35C70.35 44.83 69.74 45.08 69.01 45.08L63.71 45.08C62.99 45.08 62.36 44.83 61.84 44.35C61.33 43.84 61.08 43.23 61.08 42.5L61.08 12.83L48.59 12.83C47.82 12.83 47.19 12.59 46.68 12.1C46.18 11.6 45.92 10.96 45.92 10.2Z" fill="#FFFFFF" fill-opacity="1.000000" fill-rule="nonzero"/>
	<path id="Vector" d="M0 7.56C0 6.83 0.26 6.21 0.78 5.69C1.3 5.16 1.93 4.9 2.66 4.9L25.43 4.9C31.02 4.9 35.14 6.51 37.79 9.72C39.26 11.5 40 13.76 40 16.53C40 19.27 38.74 21.67 36.22 23.73C39.81 25.65 41.6 28.64 41.6 32.69C41.6 36.75 40.16 39.83 37.28 41.94C34.43 44.03 30.92 45.08 26.75 45.08L2.66 45.08C1.93 45.08 1.3 44.82 0.78 44.32C0.26 43.8 0 43.17 0 42.44L0 7.56ZM10.56 37.51L26.58 37.51C28.02 37.51 29.12 37.08 29.89 36.22C30.65 35.36 31.04 34.19 31.04 32.69C31.04 31.2 30.65 30.02 29.89 29.16C29.12 28.3 28.02 27.88 26.58 27.88L10.56 27.88L10.56 37.51ZM10.56 20.51L25.55 20.51C26.72 20.51 27.67 20.16 28.38 19.47C29.09 18.76 29.44 17.78 29.44 16.53C29.44 15.26 29.09 14.27 28.38 13.56C27.67 12.85 26.72 12.49 25.55 12.49L10.56 12.49L10.56 20.51Z" fill="#FFFFFF" fill-opacity="1.000000" fill-rule="nonzero"/>
	<path id="Subtract" d="M5.01008 4.92923L5.01008 2.66153Q5.01008 2.14359 5.18635 1.69489Q5.38194 1.19705 5.79453 0.784454Q6.20712 0.371857 6.70498 0.17627Q7.15367 0 7.67161 0L12.8826 0Q13.5554 0 14.0936 0.269104Q14.4743 0.459473 14.7877 0.784454Q15.2003 1.19705 15.3959 1.69489Q15.5722 2.14359 15.5722 2.66153L15.5722 4.92923L5.01008 4.92923Z" clip-rule="evenodd" fill="#FFFFFF" fill-opacity="1.000000" fill-rule="evenodd"/>
	<path id="Subtract" d="M5.01008 45.0708L5.01008 47.3385Q5.01008 47.8564 5.18635 48.3051Q5.38194 48.8029 5.79453 49.2155Q6.20712 49.6281 6.70498 49.8237Q7.15367 50 7.67161 50L12.8826 50Q13.5554 50 14.0936 49.7309Q14.4743 49.5405 14.7877 49.2155Q15.2003 48.8029 15.3959 48.3051Q15.5722 47.8564 15.5722 47.3385L15.5722 45.0708L5.01008 45.0708Z" clip-rule="evenodd" fill="#FFFFFF" fill-opacity="1.000000" fill-rule="evenodd"/>
	<path id="Subtract" d="M20.5839 7.37704L20.5839 2.66153Q20.5839 2.14359 20.7601 1.69489Q20.9557 1.19705 21.3683 0.784454Q21.7809 0.371857 22.2788 0.17627Q22.7274 0 23.2454 0L28.4564 0Q29.1292 0 29.6674 0.269104Q30.0481 0.459473 30.3615 0.784454Q30.7741 1.19705 30.9697 1.69489Q31.146 2.14359 31.146 2.66153L31.146 7.37704L20.5839 7.37704Z" clip-rule="evenodd" fill="#FFFFFF" fill-opacity="1.000000" fill-rule="evenodd"/>
	<path id="Subtract" d="M20.5839 42.623L20.5839 47.3385Q20.5839 47.8564 20.7601 48.3051Q20.9557 48.8029 21.3683 49.2155Q21.7809 49.6281 22.2788 49.8237Q22.7274 50 23.2454 50L28.4564 50Q29.1292 50 29.6674 49.7309Q30.0481 49.5405 30.3615 49.2155Q30.7741 48.8029 30.9697 48.3051Q31.146 47.8564 31.146 47.3385L31.146 42.623L20.5839 42.623Z" clip-rule="evenodd" fill="#FFFFFF" fill-opacity="1.000000" fill-rule="evenodd"/>
</svg>
