<svg width="80.000000" height="80.000000" viewBox="0 0 80 80" fill="none" xmlns="http://www.w3.org/2000/svg" xmlns:xlink="http://www.w3.org/1999/xlink">
	
	<defs>
		<clipPath id="clip36_87">
			<rect id="fi_10621035" rx="0.000000" width="79.000000" height="79.000000" transform="translate(0.500000 0.500000)" fill="white" fill-opacity="0"/>
		</clipPath>
	</defs>
	<rect id="fi_10621035" rx="0.000000" width="79.000000" height="79.000000" transform="translate(0.500000 0.500000)" fill="#FFFFFF" fill-opacity="0"/>
	<g clip-path="url(#clip36_87)">
		<path id="Vector" d="M11.47 27.11L20.46 30.62C20.71 30.72 20.99 30.72 21.25 30.62L30.23 27.11C30.43 27.03 30.61 26.89 30.73 26.71C30.86 26.53 30.93 26.32 30.93 26.1L30.93 15.41C30.92 15.19 30.86 14.97 30.73 14.79C30.61 14.6 30.44 14.46 30.23 14.37L21.25 10.88C20.99 10.78 20.71 10.78 20.45 10.88L11.47 14.37C11.27 14.46 11.1 14.6 10.97 14.78C10.85 14.96 10.78 15.17 10.78 15.39L10.78 26.09C10.78 26.31 10.84 26.52 10.97 26.71C11.09 26.89 11.27 27.03 11.47 27.11ZM12.96 17.01L19.76 19.66L19.76 28L12.96 25.34L12.96 17.01ZM28.75 25.34L21.95 28L21.95 19.66L28.75 17.01L28.75 25.34ZM20.85 13.08L26.83 15.41L20.85 17.75L14.88 15.41L20.85 13.08Z" fill="#0E142A" fill-opacity="1.000000" fill-rule="nonzero"/>
		<path id="Vector" d="M68.52 14.37L59.53 10.88C59.41 10.83 59.28 10.8 59.15 10.8C59.01 10.8 58.88 10.83 58.76 10.88L49.77 14.37C49.56 14.45 49.39 14.59 49.26 14.78C49.13 14.96 49.06 15.17 49.06 15.4L49.06 26.09C49.06 26.31 49.12 26.53 49.25 26.71C49.37 26.89 49.55 27.03 49.76 27.11L58.75 30.62C59 30.72 59.28 30.72 59.54 30.62L68.53 27.11C68.73 27.03 68.91 26.89 69.03 26.71C69.15 26.53 69.22 26.31 69.22 26.1L69.22 15.41C69.22 15.19 69.15 14.97 69.03 14.78C68.9 14.6 68.73 14.46 68.52 14.37ZM59.15 13.06L65.12 15.39L59.14 17.75L53.16 15.41L59.15 13.06ZM51.25 17.01L58.05 19.66L58.05 28L51.25 25.34L51.25 17.01ZM67.03 25.34L60.23 28L60.23 19.66L67.03 17.01L67.03 25.34Z" fill="#0E142A" fill-opacity="1.000000" fill-rule="nonzero"/>
		<path id="Vector" d="M30.23 52.91L21.25 49.41C20.99 49.31 20.71 49.31 20.45 49.41L11.48 52.91C11.28 52.99 11.1 53.13 10.97 53.31C10.85 53.5 10.78 53.71 10.77 53.93L10.77 64.61C10.77 64.83 10.84 65.04 10.97 65.22C11.09 65.4 11.27 65.54 11.47 65.62L20.46 69.13C20.71 69.22 21 69.22 21.25 69.13L30.23 65.62C30.44 65.54 30.61 65.4 30.74 65.22C30.86 65.04 30.93 64.82 30.93 64.6L30.93 53.94C30.93 53.72 30.86 53.5 30.74 53.32C30.61 53.14 30.44 53 30.23 52.91ZM20.86 51.6L26.84 53.93L20.85 56.25L14.88 53.93L20.86 51.6ZM12.97 55.54L19.76 58.19L19.76 66.52L12.97 63.86L12.97 55.54ZM28.75 63.86L21.95 66.52L21.95 58.19L28.75 55.54L28.75 63.86Z" fill="#0E142A" fill-opacity="1.000000" fill-rule="nonzero"/>
		<path id="Vector" d="M68.52 52.91L59.53 49.41C59.28 49.31 58.99 49.31 58.74 49.41L49.77 52.91C49.56 52.99 49.39 53.13 49.26 53.31C49.14 53.5 49.06 53.71 49.06 53.93L49.06 64.61C49.06 64.83 49.13 65.04 49.25 65.22C49.38 65.4 49.55 65.54 49.76 65.62L58.75 69.14C59 69.24 59.28 69.24 59.54 69.14L68.52 65.62C68.72 65.54 68.9 65.4 69.02 65.22C69.15 65.04 69.21 64.82 69.21 64.6L69.21 53.93C69.21 53.71 69.14 53.5 69.02 53.32C68.89 53.14 68.72 53 68.52 52.91ZM59.15 51.6L65.12 53.93L59.14 56.25L53.16 53.93L59.15 51.6ZM51.25 55.54L58.05 58.19L58.05 66.52L51.25 63.86L51.25 55.54ZM67.03 63.86L60.23 66.52L60.23 58.19L67.03 55.54L67.03 63.86Z" fill="#0E142A" fill-opacity="1.000000" fill-rule="nonzero"/>
		<path id="Vector" d="M39.59 30.13L30.62 33.63C30.41 33.71 30.23 33.85 30.11 34.03C29.98 34.22 29.91 34.43 29.9 34.66L29.9 45.33C29.9 45.56 29.97 45.77 30.1 45.95C30.23 46.14 30.41 46.27 30.62 46.35L39.6 49.86C39.86 49.96 40.14 49.96 40.4 49.86L49.37 46.35C49.57 46.27 49.75 46.13 49.87 45.95C50 45.77 50.06 45.55 50.06 45.33L50.06 34.66C50.06 34.44 50 34.22 49.87 34.04C49.75 33.86 49.57 33.71 49.37 33.63L40.4 30.13C40.14 30.03 39.85 30.03 39.59 30.13ZM40 32.32L45.97 34.66L40 36.99L34.02 34.66L40 32.32ZM32.11 36.25L38.9 38.9L38.9 47.24L32.11 44.59L32.11 36.25ZM41.09 47.24L41.09 38.91L47.88 36.25L47.88 44.59L41.09 47.24Z" fill="#0E142A" fill-opacity="1.000000" fill-rule="nonzero"/>
		<path id="Vector" d="M35.5 20.62L44.49 20.62C44.78 20.62 45.06 20.5 45.26 20.3C45.47 20.09 45.58 19.82 45.58 19.53C45.58 19.24 45.47 18.96 45.26 18.75C45.06 18.55 44.78 18.43 44.49 18.43L35.5 18.43C35.21 18.43 34.93 18.55 34.73 18.75C34.52 18.96 34.41 19.24 34.41 19.53C34.41 19.82 34.52 20.09 34.73 20.3C34.93 20.5 35.21 20.62 35.5 20.62Z" fill="#0E142A" fill-opacity="1.000000" fill-rule="nonzero"/>
		<path id="Vector" d="M44.49 59.37L35.5 59.37C35.21 59.37 34.93 59.49 34.73 59.69C34.52 59.9 34.41 60.17 34.41 60.46C34.41 60.75 34.52 61.03 34.73 61.24C34.93 61.44 35.21 61.56 35.5 61.56L44.49 61.56C44.78 61.56 45.06 61.44 45.26 61.24C45.47 61.03 45.58 60.75 45.58 60.46C45.58 60.17 45.47 59.9 45.26 59.69C45.06 59.49 44.78 59.37 44.49 59.37Z" fill="#0E142A" fill-opacity="1.000000" fill-rule="nonzero"/>
		<path id="Vector" d="M64.72 46.9L64.72 33.12C64.72 32.83 64.6 32.55 64.4 32.35C64.19 32.14 63.92 32.03 63.63 32.03C63.34 32.03 63.06 32.14 62.85 32.35C62.65 32.55 62.53 32.83 62.53 33.12L62.53 46.93C62.53 47.22 62.65 47.5 62.85 47.71C63.06 47.91 63.34 48.03 63.63 48.03C63.92 48.03 64.19 47.91 64.4 47.71C64.6 47.5 64.72 47.22 64.72 46.93L64.72 46.9Z" fill="#0E142A" fill-opacity="1.000000" fill-rule="nonzero"/>
		<path id="Vector" d="M15.27 33.12L15.27 46.93C15.27 47.22 15.39 47.5 15.59 47.71C15.8 47.91 16.07 48.03 16.36 48.03C16.65 48.03 16.93 47.91 17.14 47.71C17.34 47.5 17.46 47.22 17.46 46.93L17.46 33.12C17.46 32.83 17.34 32.55 17.14 32.35C16.93 32.14 16.65 32.03 16.36 32.03C16.07 32.03 15.8 32.14 15.59 32.35C15.39 32.55 15.27 32.83 15.27 33.12Z" fill="#0E142A" fill-opacity="1.000000" fill-rule="nonzero"/>
		<path id="Vector" d="M51.77 47.65L54.37 48.65C54.51 48.71 54.65 48.74 54.8 48.75C54.95 48.75 55.1 48.72 55.23 48.67C55.37 48.61 55.5 48.52 55.6 48.42C55.7 48.31 55.78 48.19 55.84 48.05C55.89 47.91 55.92 47.76 55.91 47.61C55.91 47.46 55.87 47.32 55.81 47.18C55.74 47.05 55.65 46.93 55.54 46.83C55.43 46.73 55.3 46.66 55.16 46.61L52.56 45.62C52.29 45.51 51.99 45.52 51.72 45.64C51.46 45.76 51.25 45.97 51.15 46.25C51.04 46.52 51.05 46.82 51.16 47.08C51.28 47.35 51.5 47.56 51.77 47.66L51.77 47.65Z" fill="#0E142A" fill-opacity="1.000000" fill-rule="nonzero"/>
		<path id="Vector" d="M52.56 33.64L55.15 32.64C55.37 32.51 55.55 32.3 55.63 32.06C55.72 31.81 55.72 31.54 55.62 31.3C55.53 31.05 55.35 30.85 55.12 30.73C54.89 30.6 54.63 30.56 54.37 30.62L51.78 31.62C51.64 31.67 51.52 31.75 51.41 31.84C51.3 31.94 51.22 32.06 51.16 32.2C51.1 32.33 51.06 32.47 51.06 32.62C51.05 32.77 51.08 32.91 51.13 33.05C51.18 33.18 51.26 33.31 51.37 33.41C51.47 33.52 51.59 33.6 51.73 33.66C51.86 33.71 52 33.74 52.15 33.74C52.3 33.74 52.44 33.71 52.58 33.66L52.56 33.64Z" fill="#0E142A" fill-opacity="1.000000" fill-rule="nonzero"/>
		<path id="Vector" d="M27.43 45.62L24.85 46.63C24.61 46.75 24.43 46.96 24.34 47.21C24.25 47.46 24.25 47.73 24.35 47.98C24.44 48.23 24.62 48.43 24.86 48.55C25.09 48.68 25.36 48.71 25.62 48.65L28.21 47.65C28.45 47.53 28.64 47.32 28.73 47.07C28.83 46.82 28.83 46.54 28.73 46.28C28.64 46.03 28.45 45.82 28.21 45.7C27.97 45.58 27.69 45.55 27.43 45.62Z" fill="#0E142A" fill-opacity="1.000000" fill-rule="nonzero"/>
		<path id="Vector" d="M28.22 31.6L25.62 30.62C25.48 30.56 25.34 30.53 25.19 30.52C25.04 30.52 24.89 30.55 24.76 30.61C24.62 30.66 24.49 30.75 24.39 30.85C24.29 30.96 24.21 31.08 24.15 31.22C24.1 31.36 24.07 31.51 24.08 31.66C24.08 31.81 24.12 31.95 24.18 32.09C24.25 32.22 24.34 32.34 24.45 32.44C24.56 32.54 24.69 32.61 24.83 32.66L27.41 33.66C27.55 33.71 27.69 33.74 27.84 33.74C27.99 33.74 28.13 33.71 28.26 33.66C28.4 33.6 28.52 33.52 28.62 33.41C28.73 33.31 28.81 33.18 28.86 33.05C28.91 32.91 28.94 32.77 28.93 32.62C28.93 32.47 28.89 32.33 28.83 32.2C28.77 32.06 28.69 31.94 28.58 31.84C28.47 31.75 28.35 31.67 28.21 31.62L28.22 31.6Z" fill="#0E142A" fill-opacity="1.000000" fill-rule="nonzero"/>
	</g>
</svg>
