<svg width="80.000000" height="80.000000" viewBox="0 0 80 80" fill="none" xmlns="http://www.w3.org/2000/svg" xmlns:xlink="http://www.w3.org/1999/xlink">
	
	<defs>
		<clipPath id="clip97_707">
			<rect id="fi_7441232" rx="0.000000" width="79.000000" height="79.000000" transform="translate(0.500000 0.500000)" fill="white" fill-opacity="0"/>
		</clipPath>
	</defs>
	<rect id="fi_7441232" rx="0.000000" width="79.000000" height="79.000000" transform="translate(0.500000 0.500000)" fill="#FFFFFF" fill-opacity="0"/>
	<g clip-path="url(#clip97_707)">
		<path id="Vector" d="M13.32 24.6C13.32 31.07 18.57 36.32 25.04 36.32C31.5 36.32 36.75 31.07 36.75 24.6C36.75 22.67 35.18 21.09 33.24 21.09L16.83 21.09C14.89 21.09 13.32 22.67 13.32 24.6ZM34.41 24.6C34.41 29.77 30.21 33.98 25.04 33.98C19.87 33.98 15.66 29.77 15.66 24.6C15.66 23.96 16.19 23.43 16.83 23.43L33.24 23.43C33.89 23.43 34.41 23.96 34.41 24.6Z" fill="#0E142A" fill-opacity="1.000000" fill-rule="nonzero"/>
		<path id="Vector" d="M32.65 15.23C33.95 15.23 35 16.28 35 17.57L37.34 17.57C37.34 14.99 35.24 12.89 32.65 12.89C30.07 12.89 27.97 14.99 27.97 17.57L30.31 17.57C30.31 16.28 31.36 15.23 32.65 15.23Z" fill="#0E142A" fill-opacity="1.000000" fill-rule="nonzero"/>
		<path id="Vector" d="M17.42 12.89C14.83 12.89 12.73 14.99 12.73 17.57L15.07 17.57C15.07 16.28 16.13 15.23 17.42 15.23C18.71 15.23 19.76 16.28 19.76 17.57L22.11 17.57C22.11 14.99 20 12.89 17.42 12.89Z" fill="#0E142A" fill-opacity="1.000000" fill-rule="nonzero"/>
		<path id="Vector" d="M75.26 49.15L72 39.71C71.96 31.15 69.18 23.92 63.97 18.78C58.85 13.74 51.81 11.06 43.58 11.04C40 4.46 33.03 0 25.04 0C20.22 0 15.5 1.66 11.76 4.69L13.24 6.51C16.56 3.82 20.75 2.34 25.04 2.34C35.37 2.34 43.79 10.75 43.79 21.09C43.79 24.21 43.01 27.29 41.53 30.01L41.39 30.28L41.39 37.44L34.22 37.44L33.96 37.58C31.24 39.06 28.15 39.84 25.04 39.84C14.7 39.84 6.29 31.43 6.29 21.09C6.29 16.2 8.16 11.57 11.56 8.05L9.87 6.42C6.05 10.38 3.94 15.59 3.94 21.09C3.94 28.64 7.93 35.27 13.91 39C13.72 47.45 16.95 55.27 23.05 61.08C28.3 66.08 28.37 70.69 27.85 74.15L26.97 80L47.41 80L47.41 77.65L29.7 77.65L30.17 74.5C30.73 70.79 30.77 65.19 24.67 59.38C19.35 54.31 16.4 47.58 16.25 40.26C18.93 41.49 21.9 42.18 25.04 42.18C26.28 42.18 27.52 42.07 28.74 41.85C29 42.59 29.31 43.31 29.69 43.99L27.46 46.71L32.27 51.53L35 49.3C35.86 49.78 36.77 50.15 37.71 50.43L38.06 53.93L44.87 53.93L45.22 50.43C46.17 50.15 47.07 49.77 47.94 49.3L50.66 51.53L55.47 46.71L53.25 43.99C53.72 43.13 54.1 42.22 54.37 41.27L57.87 40.92L57.87 34.12L54.37 33.77C54.1 32.82 53.72 31.91 53.25 31.05L55.47 28.33L50.66 23.51L47.94 25.74C47.25 25.36 46.54 25.05 45.8 24.8C46.02 23.58 46.13 22.33 46.13 21.09C46.13 18.38 45.61 15.79 44.68 13.4C51.81 13.65 57.88 16.07 62.32 20.45C67.12 25.17 69.66 31.9 69.66 39.9L69.66 40.1L73.01 49.84L73.04 49.91C73.48 51.2 73.9 52.42 73.6 53.01C73.44 53.33 73 53.6 72.3 53.81L66.74 55.51L66.5 66.71C66.48 67.67 66.03 68.64 65.33 69.24C64.97 69.54 64.38 69.89 63.62 69.78L54.44 68.52L54.44 77.65L49.75 77.65L49.75 80L56.78 80L56.78 71.21L63.3 72.1C64.56 72.28 65.82 71.89 66.85 71.02C68.06 69.98 68.81 68.39 68.84 66.76L69.05 57.26L72.98 56.05C74.34 55.64 75.22 54.99 75.69 54.07C76.44 52.59 75.87 50.92 75.26 49.15ZM43.73 39.78L43.73 32.1C45.93 32.96 47.33 35 47.33 37.52C47.33 40.59 44.53 43.38 41.47 43.38C38.95 43.38 36.91 41.98 36.04 39.78L43.73 39.78ZM47.42 28.15L48.13 28.61L50.5 26.67L52.32 28.48L50.38 30.85L50.83 31.57C51.52 32.66 52.02 33.85 52.3 35.1L52.48 35.93L55.53 36.24L55.53 38.8L52.48 39.11L52.3 39.94C52.02 41.19 51.52 42.38 50.83 43.47L50.38 44.18L52.32 46.56L50.5 48.37L48.13 46.43L47.42 46.89C46.33 47.58 45.14 48.07 43.88 48.35L43.05 48.53L42.75 51.58L40.18 51.58L39.88 48.53L39.05 48.35C37.79 48.07 36.6 47.58 35.52 46.89L34.8 46.43L32.43 48.37L30.62 46.56L32.56 44.18L32.1 43.47C31.67 42.79 31.31 42.06 31.04 41.31C31.96 41.04 32.86 40.7 33.74 40.31C34.87 43.56 37.86 45.72 41.47 45.72C45.84 45.72 49.67 41.89 49.67 37.52C49.67 33.92 47.51 30.93 44.25 29.79C44.65 28.92 44.98 28.01 45.26 27.09C46.01 27.37 46.73 27.72 47.42 28.15Z" fill="#0E142A" fill-opacity="1.000000" fill-rule="nonzero"/>
		<path id="Vector" d="M60.07 23.54L62.41 23.54L62.41 25.88L60.07 25.88L60.07 23.54Z" fill="#0E142A" fill-opacity="1.000000" fill-rule="nonzero"/>
		<path id="Vector" d="M62.41 28.22L64.76 28.22L64.76 30.57L62.41 30.57L62.41 28.22Z" fill="#0E142A" fill-opacity="1.000000" fill-rule="nonzero"/>
	</g>
</svg>
