<svg width="64.000000" height="64.000000" viewBox="0 0 64 64" fill="none" xmlns="http://www.w3.org/2000/svg" xmlns:xlink="http://www.w3.org/1999/xlink">
	
	<defs>
		<clipPath id="clip97_858">
			<rect id="fi_4542400" rx="0.000000" width="63.000000" height="63.000000" transform="translate(0.500000 0.500000)" fill="white" fill-opacity="0"/>
		</clipPath>
	</defs>
	<rect id="fi_4542400" rx="0.000000" width="63.000000" height="63.000000" transform="translate(0.500000 0.500000)" fill="#FFFFFF" fill-opacity="0"/>
	<g clip-path="url(#clip97_858)">
		<path id="Vector" d="M39.37 56.5L41.25 56.5L41.25 58.37L39.37 58.37L39.37 56.5Z" fill="#FF7A00" fill-opacity="1.000000" fill-rule="evenodd"/>
		<path id="Vector" d="M33.14 45.3L26.25 42.72L26.25 38.68C28.29 37.14 29.68 34.79 29.95 32.12L30.93 32.12C32.48 32.12 33.75 30.86 33.75 29.31L33.75 27.43C33.75 25.88 32.48 24.62 30.93 24.62L30 24.62L30 19.93C30 17.35 27.89 15.24 25.31 15.24L14.06 15.24C12.51 15.24 11.25 16.51 11.25 18.06L11.25 24.65L10.31 24.65C8.76 24.65 7.5 25.91 7.5 27.46L7.5 29.31C7.5 30.86 8.76 32.12 10.31 32.12L11.29 32.12C11.56 34.8 12.96 37.14 15 38.68L15 42.72L8.1 45.3C4.09 46.81 0 48.98 0 53.68L0 64L41.25 64L41.25 60.25L39.37 60.25L39.37 62.12L33.87 62.12L33.87 58.37L24.5 58.37L24.5 62.12L21.56 62.12L21.56 46.71L25.4 44.41L32.48 47.06C36.62 48.61 39.37 50.33 39.37 53.68L39.37 54.62L41.25 54.62L41.25 53.68C41.25 48.98 37.15 46.81 33.14 45.3ZM30.93 26.5C31.45 26.5 31.87 26.92 31.87 27.43L31.87 29.31C31.87 29.82 31.45 30.25 30.93 30.25L30 30.25L30 26.5L30.93 26.5ZM14.06 17.12L25.31 17.12C26.86 17.12 28.12 18.38 28.12 19.93L28.12 24.62L21.55 24.65C20.05 24.65 18.83 23.47 18.74 22C18.74 21.94 18.75 21.89 18.75 21.84L16.86 21.84C16.86 21.89 16.86 21.94 16.87 22C16.78 23.47 15.55 24.65 14.06 24.65L13.12 24.65L13.12 18.06C13.12 17.54 13.54 17.12 14.06 17.12ZM9.37 29.31L9.37 27.46C9.37 26.94 9.79 26.52 10.31 26.52L11.25 26.52L11.25 30.25L10.31 30.25C9.79 30.25 9.37 29.82 9.37 29.31ZM13.12 31.18L13.12 26.52L14.06 26.52C15.59 26.52 16.95 25.79 17.8 24.65C18.66 25.79 20.02 26.52 21.55 26.52L28.12 26.5L28.12 31.18C28.12 35.32 24.76 38.68 20.62 38.68C16.48 38.68 13.12 35.32 13.12 31.18ZM20.62 40.56C21.95 40.56 23.22 40.28 24.37 39.77L24.37 42.84L20.62 45.09L16.87 42.84L16.87 39.77C18.02 40.28 19.29 40.56 20.62 40.56ZM26.37 60.25L32 60.25L32 62.12L26.37 62.12L26.37 60.25ZM1.87 62.12L1.87 53.68C1.87 50.33 4.62 48.61 8.76 47.06L15.84 44.41L19.68 46.71L19.68 62.12L1.87 62.12Z" fill="#FF7A00" fill-opacity="1.000000" fill-rule="evenodd"/>
		<path id="Vector" d="M49 0C44.81 0 40.79 1.76 37.96 4.84L39.34 6.11C41.82 3.41 45.34 1.87 49 1.87C56.23 1.87 62.12 7.76 62.12 15C62.12 22.23 56.23 28.12 49 28.12C46.64 28.12 44.33 27.49 42.32 26.3L42.1 26.16L37.83 26.16L37.83 21.89L37.69 21.67C36.5 19.66 35.87 17.35 35.87 15C35.87 12.28 36.69 9.68 38.24 7.47L36.7 6.4C34.93 8.92 34 11.9 34 15C34 17.6 34.67 20.15 35.95 22.4L35.95 28.04L41.59 28.04C43.84 29.32 46.39 30 49 30C57.27 30 64 23.27 64 15C64 6.72 57.27 0 49 0Z" fill="#FF7A00" fill-opacity="1.000000" fill-rule="evenodd"/>
		<path id="Vector" d="M53.68 5.62L55.56 5.62L55.56 7.5L53.68 7.5L53.68 5.62Z" fill="#FF7A00" fill-opacity="1.000000" fill-rule="evenodd"/>
		<path id="Vector" d="M49 7.96C46.41 7.96 44.31 10.07 44.31 12.65L46.18 12.65C46.18 11.1 47.44 9.84 49 9.84C50.55 9.84 51.81 11.1 51.81 12.65C51.81 14.2 50.55 15.46 49 15.46L48.06 15.46L48.06 19.21L49.93 19.21L49.93 17.24C52.07 16.81 53.68 14.91 53.68 12.65C53.68 10.07 51.58 7.96 49 7.96Z" fill="#FF7A00" fill-opacity="1.000000" fill-rule="evenodd"/>
		<path id="Vector" d="M48.75 21.12C48.25 21.25 47.96 21.77 48.09 22.27C48.22 22.77 48.74 23.07 49.24 22.93C49.74 22.8 50.03 22.28 49.9 21.78C49.77 21.28 49.25 20.99 48.75 21.12Z" fill="#FF7A00" fill-opacity="1.000000" fill-rule="evenodd"/>
	</g>
</svg>
