<svg width="80.000000" height="80.000000" viewBox="0 0 80 80" fill="none" xmlns="http://www.w3.org/2000/svg" xmlns:xlink="http://www.w3.org/1999/xlink">
	
	<defs>
		<clipPath id="clip36_76">
			<rect id="fi_4618890" rx="0.000000" width="79.000000" height="79.000000" transform="translate(0.500000 0.500000)" fill="white" fill-opacity="0"/>
		</clipPath>
	</defs>
	<rect id="fi_4618890" rx="0.000000" width="79.000000" height="79.000000" transform="translate(0.500000 0.500000)" fill="#FFFFFF" fill-opacity="0"/>
	<g clip-path="url(#clip36_76)">
		<path id="Vector" d="M40 10.1C40.29 10.1 40.56 9.99 40.77 9.78C40.97 9.58 41.09 9.3 41.09 9.01L41.09 3.94C41.09 3.65 40.97 3.37 40.77 3.16C40.56 2.96 40.29 2.84 40 2.84C39.71 2.84 39.43 2.96 39.22 3.16C39.02 3.37 38.9 3.65 38.9 3.94L38.9 9.01C38.9 9.3 39.02 9.58 39.22 9.78C39.43 9.99 39.71 10.1 40 10.1Z" fill="#0E142A" fill-opacity="1.000000" fill-rule="nonzero"/>
		<path id="Vector" d="M71.7 34.55L66.63 34.55C66.34 34.55 66.06 34.66 65.85 34.87C65.65 35.07 65.53 35.35 65.53 35.64C65.53 35.93 65.65 36.21 65.85 36.42C66.06 36.62 66.34 36.74 66.63 36.74L71.7 36.74C71.99 36.74 72.27 36.62 72.47 36.42C72.68 36.21 72.79 35.93 72.79 35.64C72.79 35.35 72.68 35.07 72.47 34.87C72.27 34.66 71.99 34.55 71.7 34.55Z" fill="#0E142A" fill-opacity="1.000000" fill-rule="nonzero"/>
		<path id="Vector" d="M13.36 34.55L8.29 34.55C8 34.55 7.72 34.66 7.52 34.87C7.31 35.07 7.2 35.35 7.2 35.64C7.2 35.93 7.31 36.21 7.52 36.42C7.72 36.62 8 36.74 8.29 36.74L13.36 36.74C13.65 36.74 13.93 36.62 14.14 36.42C14.34 36.21 14.46 35.93 14.46 35.64C14.46 35.35 14.34 35.07 14.14 34.87C13.93 34.66 13.65 34.55 13.36 34.55Z" fill="#0E142A" fill-opacity="1.000000" fill-rule="nonzero"/>
		<path id="Vector" d="M61.64 12.45L58.05 16.04C57.95 16.14 57.87 16.26 57.81 16.39C57.75 16.52 57.72 16.67 57.72 16.81C57.72 16.96 57.75 17.1 57.8 17.24C57.86 17.37 57.94 17.49 58.04 17.6C58.14 17.7 58.27 17.78 58.4 17.84C58.53 17.89 58.68 17.92 58.82 17.92C58.97 17.92 59.11 17.89 59.25 17.83C59.38 17.77 59.5 17.69 59.6 17.58L63.19 14C63.39 13.79 63.51 13.51 63.51 13.22C63.51 12.93 63.39 12.66 63.19 12.45C62.98 12.24 62.7 12.13 62.41 12.13C62.12 12.13 61.85 12.24 61.64 12.45Z" fill="#0E142A" fill-opacity="1.000000" fill-rule="nonzero"/>
		<path id="Vector" d="M20.39 53.7L16.8 57.29C16.7 57.39 16.62 57.51 16.56 57.64C16.5 57.78 16.47 57.92 16.47 58.06C16.47 58.21 16.5 58.35 16.55 58.49C16.61 58.62 16.69 58.74 16.79 58.85C16.89 58.95 17.01 59.03 17.15 59.09C17.28 59.14 17.43 59.17 17.57 59.17C17.72 59.17 17.86 59.14 17.99 59.08C18.13 59.02 18.25 58.94 18.35 58.83L21.93 55.25C22.13 55.04 22.24 54.76 22.24 54.48C22.24 54.19 22.12 53.91 21.92 53.71C21.72 53.51 21.44 53.39 21.16 53.39C20.87 53.39 20.59 53.5 20.39 53.7L20.39 53.7Z" fill="#0E142A" fill-opacity="1.000000" fill-rule="nonzero"/>
		<path id="Vector" d="M59.6 53.7C59.39 53.51 59.12 53.4 58.84 53.41C58.55 53.41 58.28 53.53 58.08 53.73C57.88 53.93 57.77 54.2 57.76 54.48C57.76 54.76 57.86 55.04 58.05 55.25L61.64 58.83C61.74 58.94 61.86 59.02 62 59.08C62.13 59.13 62.27 59.16 62.42 59.17C62.56 59.17 62.71 59.14 62.84 59.08C62.98 59.03 63.1 58.95 63.2 58.84C63.3 58.74 63.38 58.62 63.44 58.49C63.49 58.35 63.52 58.21 63.52 58.06C63.52 57.92 63.49 57.77 63.43 57.64C63.37 57.51 63.29 57.39 63.19 57.28L59.6 53.7Z" fill="#0E142A" fill-opacity="1.000000" fill-rule="nonzero"/>
		<path id="Vector" d="M20.39 17.58C20.6 17.77 20.87 17.88 21.15 17.87C21.44 17.87 21.7 17.75 21.9 17.55C22.1 17.35 22.22 17.08 22.22 16.8C22.23 16.52 22.12 16.24 21.93 16.04L18.35 12.45C18.14 12.26 17.87 12.16 17.59 12.17C17.3 12.17 17.04 12.29 16.84 12.49C16.64 12.69 16.53 12.95 16.52 13.23C16.51 13.51 16.61 13.79 16.8 14L20.39 17.58Z" fill="#0E142A" fill-opacity="1.000000" fill-rule="nonzero"/>
		<path id="Vector" d="M63.01 35.64C63.01 35.63 63.01 35.62 63.01 35.61C63.01 35.56 63.01 35.51 63.01 35.46C62.97 29.37 60.51 23.54 56.18 19.26C51.85 14.98 45.99 12.58 39.9 12.61C33.81 12.63 27.98 15.07 23.68 19.39C19.38 23.7 16.97 29.55 16.97 35.64L16.97 35.65C16.98 38.86 17.65 42.05 18.96 44.99C20.27 47.93 22.18 50.57 24.57 52.72C25.81 53.85 26.8 55.22 27.48 56.76C28.16 58.29 28.51 59.95 28.51 61.63L28.51 69.75C28.51 70.4 28.73 71.02 29.12 71.54C29.51 72.05 30.06 72.42 30.68 72.6L32.09 76.43C32.17 76.64 32.31 76.82 32.49 76.95C32.67 77.08 32.89 77.15 33.12 77.15L46.88 77.15C47.1 77.15 47.32 77.08 47.5 76.95C47.68 76.82 47.82 76.64 47.9 76.43L49.31 72.6C49.93 72.42 50.48 72.05 50.87 71.54C51.26 71.02 51.48 70.4 51.48 69.75L51.48 61.63C51.49 59.93 51.85 58.26 52.54 56.72C53.24 55.17 54.24 53.79 55.5 52.65C57.86 50.5 59.74 47.88 61.04 44.96C62.33 42.04 63 38.89 63.01 35.7C63.01 35.68 63.01 35.66 63.01 35.64ZM60.8 34.55L54.25 34.55C54.1 34.55 53.96 34.58 53.83 34.63C53.69 34.69 53.57 34.77 53.47 34.87C53.37 34.97 53.29 35.09 53.23 35.22C53.18 35.36 53.15 35.5 53.15 35.64L53.15 37.4C53.14 37.98 52.91 38.53 52.5 38.93C52.08 39.34 51.53 39.56 50.96 39.56C50.38 39.56 49.83 39.34 49.42 38.93C49.01 38.53 48.77 37.98 48.76 37.4L48.76 35.64C48.76 35.5 48.73 35.36 48.68 35.22C48.62 35.09 48.54 34.97 48.44 34.87C48.34 34.77 48.22 34.69 48.09 34.63C47.95 34.58 47.81 34.55 47.67 34.55L41.09 34.55L41.09 29.06L41.76 29.06C42.92 29.06 44.03 28.6 44.86 27.78C45.68 26.96 46.14 25.84 46.14 24.68C46.14 23.52 45.68 22.4 44.86 21.58C44.03 20.76 42.92 20.3 41.76 20.3L41.09 20.3L41.09 14.84C46.24 15.07 51.12 17.23 54.76 20.87C58.41 24.52 60.56 29.4 60.8 34.55ZM38.9 14.84L38.9 21.39C38.9 21.68 39.02 21.96 39.22 22.16C39.43 22.37 39.71 22.48 40 22.48L41.76 22.48C42.34 22.48 42.9 22.72 43.31 23.13C43.72 23.54 43.95 24.1 43.95 24.68C43.95 25.26 43.72 25.82 43.31 26.23C42.9 26.64 42.34 26.87 41.76 26.87L40 26.87C39.71 26.87 39.43 26.99 39.22 27.19C39.02 27.4 38.9 27.68 38.9 27.97L38.9 34.55L33.41 34.55L33.41 33.88C33.4 32.73 32.93 31.63 32.11 30.81C31.29 30 30.19 29.55 29.03 29.55C27.88 29.55 26.77 30 25.95 30.81C25.13 31.63 24.66 32.73 24.65 33.88L24.65 34.55L19.19 34.55C19.48 29.42 21.65 24.57 25.29 20.94C28.92 17.3 33.77 15.13 38.9 14.84ZM26.03 51.1C21.95 47.4 19.49 42.24 19.19 36.74L25.75 36.74C26.04 36.74 26.31 36.62 26.52 36.42C26.72 36.21 26.84 35.93 26.84 35.64L26.84 33.88C26.85 33.3 27.08 32.76 27.49 32.35C27.91 31.95 28.46 31.72 29.03 31.72C29.61 31.72 30.16 31.95 30.57 32.35C30.98 32.76 31.22 33.3 31.23 33.88L31.23 35.64C31.23 35.93 31.34 36.21 31.55 36.42C31.75 36.62 32.03 36.74 32.32 36.74L38.9 36.74L38.9 42.22L38.23 42.22C37.07 42.22 35.96 42.68 35.13 43.51C34.31 44.33 33.85 45.44 33.85 46.6C33.85 47.77 34.31 48.88 35.13 49.7C35.96 50.53 37.07 50.99 38.23 50.99L38.9 50.99L38.9 61.12L30.69 61.12C30.62 59.23 30.17 57.36 29.37 55.64C28.58 53.92 27.44 52.38 26.03 51.1ZM49.29 65.83L30.7 65.83L30.7 63.31L49.29 63.31L49.29 65.83ZM48.51 70.53L31.48 70.53C31.27 70.53 31.07 70.45 30.93 70.3C30.78 70.16 30.7 69.96 30.7 69.75L30.7 68.02L49.29 68.02L49.29 69.75C49.29 69.96 49.21 70.16 49.06 70.3C48.92 70.45 48.72 70.53 48.51 70.53ZM46.11 74.96L33.88 74.96L33.06 72.72L46.93 72.72L46.11 74.96ZM54.03 51.04C52.61 52.32 51.46 53.88 50.65 55.61C49.84 57.34 49.38 59.21 49.3 61.12L41.09 61.12L41.09 49.89C41.09 49.6 40.97 49.33 40.77 49.12C40.56 48.91 40.29 48.8 40 48.8L38.23 48.8C37.65 48.8 37.09 48.57 36.68 48.16C36.27 47.74 36.04 47.19 36.04 46.6C36.04 46.02 36.27 45.46 36.68 45.05C37.09 44.64 37.65 44.41 38.23 44.41L40 44.41C40.29 44.41 40.56 44.29 40.77 44.09C40.97 43.88 41.09 43.61 41.09 43.32L41.09 36.74L46.58 36.74L46.58 37.4C46.59 38.56 47.06 39.66 47.88 40.47C48.7 41.28 49.8 41.73 50.96 41.73C52.11 41.73 53.22 41.28 54.04 40.47C54.86 39.66 55.33 38.56 55.34 37.4L55.34 36.74L60.79 36.74C60.5 42.21 58.07 47.34 54.03 51.04Z" fill="#0E142A" fill-opacity="1.000000" fill-rule="nonzero"/>
	</g>
</svg>
