<svg width="64.000000" height="64.000000" viewBox="0 0 64 64" fill="none" xmlns="http://www.w3.org/2000/svg" xmlns:xlink="http://www.w3.org/1999/xlink">
	
	<defs>
		<clipPath id="clip97_842">
			<rect id="fi_10492865" rx="0.000000" width="63.000000" height="63.000000" transform="translate(0.500000 0.500000)" fill="white" fill-opacity="0"/>
		</clipPath>
	</defs>
	<rect id="fi_10492865" rx="0.000000" width="63.000000" height="63.000000" transform="translate(0.500000 0.500000)" fill="#FFFFFF" fill-opacity="0"/>
	<g clip-path="url(#clip97_842)">
		<path id="Vector" d="M26.83 42.92L27.98 44.4L31.24 41.86L31.24 47.41C31.33 58.4 19.24 65.63 9.62 60.36L8.73 62.01C19.58 67.95 33.22 59.8 33.12 47.41L33.12 41.81L36.43 44.4L37.59 42.92L32.21 38.72L26.83 42.92Z" fill="#FF7A00" fill-opacity="1.000000" fill-rule="nonzero"/>
		<path id="Vector" d="M37.18 21.02L36.03 19.55L32.74 22.11L32.74 16.74C32.73 5.63 45.13 -1.87 54.74 3.83L55.67 2.2C44.67 -4.2 30.86 4.14 30.87 16.74L30.87 22.11L27.58 19.55L26.42 21.02L31.8 25.23L37.18 21.02Z" fill="#FF7A00" fill-opacity="1.000000" fill-rule="nonzero"/>
		<path id="Vector" d="M12.83 58.69L14.79 57.24L16.81 57.24L18.78 58.69L23.37 56.05L23.1 53.57L24.1 51.83L26.38 50.82L26.38 45.53L24.1 44.52L23.1 42.78L23.37 40.3L18.78 37.66L16.81 39.11L14.8 39.11L12.83 37.66L8.24 40.3L8.5 42.78L7.5 44.52L5.22 45.53L5.22 50.82L7.5 51.83L8.5 53.57L8.24 56.05L12.83 58.69ZM7.1 49.6L7.1 46.75L8.82 45.99L10.43 43.19L10.23 41.32L12.7 39.9L14.18 40.99L17.42 40.99L18.9 39.9L21.37 41.32L21.17 43.19L22.79 45.99L24.51 46.75L24.51 49.6L22.79 50.36L21.17 53.16L21.37 55.03L18.9 56.45L17.43 55.37L14.17 55.37L12.7 56.45L10.23 55.03L10.43 53.16L8.82 50.36L7.1 49.6Z" fill="#FF7A00" fill-opacity="1.000000" fill-rule="nonzero"/>
		<path id="Vector" d="M51.4 4.91L49.43 6.36L47.42 6.36L45.46 4.91L40.86 7.55L41.13 10.03L40.13 11.77L37.85 12.78L37.85 18.07L40.13 19.08L41.13 20.82L40.86 23.3L45.46 25.94L47.42 24.49L49.44 24.49L51.4 25.94L56 23.3L55.73 20.82L56.73 19.08L59.01 18.07L59.01 12.78L56.73 11.77L55.73 10.03L56 7.55L51.4 4.91ZM57.13 14L57.13 16.85L55.41 17.61L53.8 20.41L54 22.28L51.53 23.7L50.06 22.62L46.8 22.62L45.33 23.7L42.86 22.28L43.06 20.41L41.45 17.61L39.72 16.85L39.72 14L41.45 13.24L43.06 10.43L42.86 8.56L45.33 7.14L46.81 8.23L50.05 8.23L51.53 7.14L54 8.56L53.8 10.43L55.41 13.24L57.13 14Z" fill="#FF7A00" fill-opacity="1.000000" fill-rule="nonzero"/>
		<path id="Vector" d="M57.33 3.35L56.21 4.85C59.94 7.64 62.15 12.07 62.12 16.72C62.07 24.66 55.49 31.11 47.46 31.11L16.59 31.11C0.35 31.21 -6.06 51.56 7.07 61.03L8.14 59.49C4.23 56.74 1.89 52.24 1.89 47.47C1.89 39.35 8.35 32.99 16.59 32.99L47.46 32.99C63.39 32.87 69.96 12.9 57.33 3.35Z" fill="#FF7A00" fill-opacity="1.000000" fill-rule="nonzero"/>
		<path id="Vector" d="M45.62 14.45L47.49 14.45L47.49 16.32L45.62 16.32L45.62 14.45Z" fill="#FF7A00" fill-opacity="1.000000" fill-rule="nonzero"/>
		<path id="Vector" d="M49.37 14.45L51.24 14.45L51.24 16.32L49.37 16.32L49.37 14.45Z" fill="#FF7A00" fill-opacity="1.000000" fill-rule="nonzero"/>
		<path id="Vector" d="M12.93 47.26L14.8 47.26L14.8 49.14L12.93 49.14L12.93 47.26Z" fill="#FF7A00" fill-opacity="1.000000" fill-rule="nonzero"/>
		<path id="Vector" d="M16.68 47.26L18.55 47.26L18.55 49.14L16.68 49.14L16.68 47.26Z" fill="#FF7A00" fill-opacity="1.000000" fill-rule="nonzero"/>
	</g>
</svg>
