<svg width="42.000000" height="42.000000" viewBox="0 0 42 42" fill="none" xmlns="http://www.w3.org/2000/svg" xmlns:xlink="http://www.w3.org/1999/xlink">
	
	<defs>
		<clipPath id="clip2_138">
			<rect id="fi_2168281" rx="0.000000" width="41.000000" height="41.000000" transform="translate(0.500000 0.500000)" fill="white" fill-opacity="0"/>
		</clipPath>
	</defs>
	<rect id="fi_2168281" rx="0.000000" width="41.000000" height="41.000000" transform="translate(0.500000 0.500000)" fill="#FFFFFF" fill-opacity="0"/>
	<g clip-path="url(#clip2_138)">
		<path id="Vector" d="M21 0C9.42 0 0 9.42 0 21C0 32.57 9.42 42 21 42C32.57 42 42 32.57 42 21C42 9.42 32.58 0 21 0ZM26.22 21.73L22.8 21.73L22.8 33.91L17.74 33.91C17.74 33.91 17.74 27.26 17.74 21.73L15.33 21.73L15.33 17.43L17.74 17.43L17.74 14.65C17.74 12.65 18.69 9.54 22.85 9.54L26.6 9.55L26.6 13.73C26.6 13.73 24.32 13.73 23.88 13.73C23.43 13.73 22.8 13.95 22.8 14.9L22.8 17.43L26.66 17.43L26.22 21.73Z" fill="#FFFFFF" fill-opacity="1.000000" fill-rule="nonzero"/>
	</g>
</svg>
