<?xml version="1.0" encoding="utf-8"?>
<!-- Generator: Adobe Illustrator 22.1.0, SVG Export Plug-In . SVG Version: 6.00 Build 0)  -->
<svg version="1.1" id="&#x428;&#x430;&#x440;_1" xmlns="http://www.w3.org/2000/svg" xmlns:xlink="http://www.w3.org/1999/xlink" x="0px" y="0px" viewBox="0 0 146 220" style="enable-background:new 0 0 146 220;" xml:space="preserve">
<style type="text/css">
	.st0{opacity:0.2;}
	.st1{fill:#0E142A;}
</style>

<g class="st0">
	<path id="Vector" class="st1" d="M133.5,97.5c-2.8,0-5.5,0.9-7.7,2.7c-2.2,1.7-3.8,4.1-4.4,6.8H89.6c-0.2-4.2-1-8.4-2.2-12.4h8.9
		c0.4,0,0.8-0.1,1.1-0.2c0.4-0.2,0.7-0.4,1-0.7c0.3-0.3,0.5-0.6,0.7-1c0.2-0.4,0.2-0.8,0.2-1.1V66.2h7.1c0.7,3,2.5,5.6,5,7.3
		c2.5,1.7,5.6,2.5,8.6,2.1c3-0.4,5.8-1.8,7.8-4.1c2-2.3,3.1-5.2,3.1-8.3s-1.1-6-3.1-8.3c-2-2.3-4.8-3.8-7.8-4.1s-6.1,0.4-8.6,2.1
		c-2.5,1.7-4.3,4.3-5,7.3H96.4c-0.8,0-1.6,0.3-2.1,0.9c-0.6,0.6-0.9,1.3-0.9,2.1v25.4h-8.1c-5.5-12.4-15.4-22.3-27.8-27.8v-8.1h25.4
		c0.8,0,1.6-0.3,2.1-0.9c0.6-0.6,0.9-1.3,0.9-2.1V39.5c3-0.7,5.5-2.5,7.3-5s2.5-5.6,2.1-8.6c-0.4-3-1.8-5.8-4.1-7.8
		c-2.3-2-5.2-3.1-8.3-3.1s-6,1.1-8.3,3.1s-3.8,4.8-4.1,7.8c-0.4,3,0.4,6.1,2.1,8.6c1.7,2.5,4.3,4.3,7.3,5v7.1H54.4
		c-0.8,0-1.6,0.3-2.1,0.9c-0.6,0.6-0.9,1.3-0.9,2.1v8.9c-4-1.2-8.2-2-12.4-2.2V24.6c3-0.7,5.6-2.5,7.3-5C48,17,48.8,14,48.4,11
		c-0.4-3-1.8-5.8-4.1-7.8C42,1.1,39,0,36,0c-3.1,0-6,1.1-8.3,3.1S24,7.9,23.6,11c-0.4,3,0.4,6.1,2.1,8.6c1.7,2.5,4.3,4.3,7.3,5v31.8
		c-4.2,0.2-8.4,1-12.4,2.2v-8.9c0-0.8-0.3-1.6-0.9-2.1c-0.6-0.6-1.3-0.9-2.1-0.9H-7.8v-7.1c3-0.7,5.6-2.5,7.3-5
		C1.2,32,2,28.9,1.6,25.9c-0.4-3-1.8-5.8-4.1-7.8s-5.2-3.1-8.3-3.1s-6,1.1-8.3,3.1c-2.3,2-3.8,4.8-4.1,7.8c-0.4,3,0.4,6.1,2.1,8.6
		s4.3,4.3,7.3,5v10.1c0,0.8,0.3,1.6,0.9,2.1c0.6,0.6,1.3,0.9,2.1,0.9h25.4v8.1C2.1,66.2-7.8,76.1-13.2,88.5h-8.1V63.2
		c0-0.8-0.3-1.6-0.9-2.1c-0.6-0.6-1.3-0.9-2.1-0.9h-10.1c-0.7-3-2.5-5.5-5-7.3c-2.5-1.7-5.6-2.5-8.6-2.1s-5.8,1.8-7.8,4.1
		c-2,2.3-3.1,5.2-3.1,8.3s1.1,6,3.1,8.3c2,2.3,4.8,3.8,7.8,4.1c3,0.4,6.1-0.4,8.6-2.1c2.5-1.7,4.3-4.3,5-7.3h7.1v25.4
		c0,0.4,0.1,0.8,0.2,1.1c0.1,0.4,0.4,0.7,0.6,1c0.3,0.3,0.6,0.5,1,0.7c0.4,0.2,0.8,0.2,1.1,0.2h8.9c-1.2,4-2,8.2-2.2,12.4h-31.8
		c-0.7-3-2.5-5.5-5-7.3c-2.5-1.7-5.6-2.5-8.6-2.1c-3,0.4-5.8,1.8-7.8,4.1c-2,2.3-3.1,5.2-3.1,8.3c0,3,1.1,6,3.1,8.3
		c2,2.3,4.8,3.8,7.8,4.1c3,0.4,6.1-0.4,8.6-2.1c2.5-1.7,4.3-4.3,5-7.3h31.8c0.2,4.2,1,8.4,2.2,12.4h-8.9c-0.8,0-1.6,0.3-2.1,0.9
		c-0.6,0.6-0.9,1.3-0.9,2.1v25.3h-7.1c-0.7-3-2.5-5.5-5-7.3c-2.5-1.7-5.6-2.5-8.6-2.1c-3,0.4-5.8,1.8-7.8,4.1
		c-2,2.3-3.1,5.2-3.1,8.3s1.1,6,3.1,8.3c2,2.3,4.8,3.8,7.8,4.1s6.1-0.4,8.6-2.1c2.5-1.7,4.3-4.3,5-7.3h10.1c0.8,0,1.6-0.3,2.1-0.9
		c0.6-0.6,0.9-1.3,0.9-2.1v-25.4h8.1c5.4,12.4,15.4,22.3,27.8,27.8v8.1h-25.4c-0.8,0-1.6,0.3-2.1,0.9c-0.6,0.6-0.9,1.3-0.9,2.1v10.1
		c-3,0.7-5.5,2.5-7.3,5s-2.5,5.6-2.1,8.6c0.4,3,1.8,5.8,4.1,7.8c2.3,2,5.2,3.1,8.3,3.1s6-1.1,8.3-3.1c2.3-2,3.8-4.8,4.1-7.8
		c0.4-3-0.4-6.1-2.1-8.6c-1.7-2.5-4.3-4.3-7.3-5v-7.1h25.4c0.8,0,1.6-0.3,2.1-0.9c0.6-0.6,0.9-1.3,0.9-2.1v-8.9
		c4,1.2,8.2,1.9,12.4,2.2v31.8c-3,0.7-5.5,2.5-7.3,5c-1.7,2.5-2.5,5.6-2.1,8.6c0.4,3,1.8,5.8,4.1,7.8S33,220,36,220
		c3,0,6-1.1,8.3-3.1c2.3-2,3.8-4.8,4.1-7.8c0.4-3-0.4-6.1-2.1-8.6c-1.7-2.5-4.3-4.3-7.3-5v-31.8c4.2-0.2,8.4-1,12.4-2.2v8.9
		c0,0.8,0.3,1.6,0.9,2.1c0.6,0.6,1.3,0.9,2.1,0.9h25.3v7.1c-3,0.7-5.5,2.5-7.3,5c-1.7,2.5-2.5,5.6-2.1,8.6c0.4,3,1.8,5.8,4.1,7.8
		c2.3,2,5.2,3.1,8.3,3.1s6-1.1,8.3-3.1c2.3-2,3.8-4.8,4.1-7.8c0.4-3-0.4-6.1-2.1-8.6s-4.3-4.3-7.3-5v-10.1c0-0.8-0.3-1.6-0.9-2.1
		c-0.6-0.6-1.3-0.9-2.1-0.9H57.5v-8.1c12.4-5.5,22.3-15.4,27.8-27.8h8.1v25.4c0,0.8,0.3,1.6,0.9,2.1c0.6,0.6,1.3,0.9,2.1,0.9h10.1
		c0.7,3,2.5,5.5,5,7.3c2.5,1.7,5.6,2.5,8.6,2.1s5.8-1.8,7.8-4.1c2-2.3,3.1-5.2,3.1-8.3s-1.1-6-3.1-8.3c-2-2.3-4.8-3.8-7.8-4.1
		c-3-0.4-6.1,0.4-8.6,2.1c-2.5,1.7-4.3,4.3-5,7.3h-7.1v-25.3c0-0.8-0.3-1.6-0.9-2.1c-0.6-0.6-1.3-0.9-2.1-0.9h-8.9
		c1.2-4,1.9-8.2,2.2-12.4h31.8c0.6,2.3,1.8,4.3,3.4,6c1.7,1.6,3.8,2.8,6.1,3.2c2.3,0.5,4.7,0.3,6.9-0.5c2.2-0.8,4.1-2.2,5.6-4.1
		c1.4-1.8,2.3-4,2.6-6.4c0.3-2.3-0.2-4.7-1.2-6.8c-1-2.1-2.6-3.9-4.6-5.1S135.8,97.5,133.5,97.5z M118.6,56.7c1.3,0,2.5,0.4,3.6,1.1
		c1.1,0.7,1.9,1.7,2.4,2.9c0.5,1.2,0.6,2.5,0.4,3.7c-0.3,1.3-0.9,2.4-1.8,3.3c-0.9,0.9-2.1,1.5-3.3,1.8c-1.3,0.3-2.6,0.1-3.7-0.4
		c-1.2-0.5-2.2-1.3-2.9-2.4c-0.7-1.1-1.1-2.3-1.1-3.6c0-1.7,0.7-3.4,1.9-4.6C115.2,57.4,116.9,56.7,118.6,56.7z M76.3,27.4
		c0-1.3,0.4-2.5,1.1-3.6c0.7-1.1,1.7-1.9,2.9-2.4c1.2-0.5,2.5-0.6,3.7-0.4c1.3,0.3,2.4,0.9,3.3,1.8c0.9,0.9,1.5,2.1,1.8,3.3
		c0.3,1.3,0.1,2.5-0.4,3.7c-0.5,1.2-1.3,2.2-2.4,2.9c-1.1,0.7-2.3,1.1-3.6,1.1c-1.7,0-3.4-0.7-4.6-1.9C77,30.8,76.3,29.1,76.3,27.4z
		 M-17.3,27.4c0-1.3,0.4-2.5,1.1-3.6c0.7-1.1,1.7-1.9,2.9-2.4c1.2-0.5,2.5-0.6,3.7-0.4c1.3,0.3,2.4,0.9,3.3,1.8
		c0.9,0.9,1.5,2.1,1.8,3.3c0.3,1.3,0.1,2.5-0.4,3.7c-0.5,1.2-1.3,2.2-2.4,2.9c-1.1,0.7-2.3,1.1-3.6,1.1c-1.7,0-3.4-0.7-4.6-1.9
		C-16.6,30.8-17.3,29.1-17.3,27.4z M-46.6,69.7c-1.3,0-2.5-0.4-3.6-1.1c-1.1-0.7-1.9-1.7-2.4-2.9s-0.6-2.5-0.4-3.7
		c0.3-1.3,0.9-2.4,1.8-3.3c0.9-0.9,2.1-1.5,3.3-1.8c1.3-0.2,2.6-0.1,3.7,0.4c1.2,0.5,2.2,1.3,2.9,2.4c0.7,1.1,1.1,2.3,1.1,3.6
		c0,1.7-0.7,3.4-1.9,4.6C-43.2,69-44.9,69.7-46.6,69.7z M-46.6,163.3c-1.3,0-2.5-0.4-3.6-1.1c-1.1-0.7-1.9-1.7-2.4-2.9
		c-0.5-1.2-0.6-2.5-0.4-3.7c0.3-1.3,0.9-2.4,1.8-3.3c0.9-0.9,2.1-1.5,3.3-1.8c1.3-0.3,2.6-0.1,3.7,0.4c1.2,0.5,2.2,1.3,2.9,2.4
		c0.7,1.1,1.1,2.3,1.1,3.6c0,1.7-0.7,3.4-1.9,4.6C-43.2,162.6-44.9,163.3-46.6,163.3L-46.6,163.3z M-4.3,192.6
		c0,1.3-0.4,2.5-1.1,3.6c-0.7,1.1-1.7,1.9-2.9,2.4c-1.2,0.5-2.5,0.6-3.7,0.4c-1.3-0.3-2.4-0.9-3.3-1.8c-0.9-0.9-1.5-2.1-1.8-3.3
		c-0.2-1.3-0.1-2.6,0.4-3.7c0.5-1.2,1.3-2.2,2.4-2.9c1.1-0.7,2.3-1.1,3.6-1.1c1.7,0,3.4,0.7,4.6,1.9C-5,189.2-4.3,190.9-4.3,192.6z
		 M89.3,192.6c0,1.3-0.4,2.5-1.1,3.6c-0.7,1.1-1.7,1.9-2.9,2.4c-1.2,0.5-2.5,0.6-3.7,0.4c-1.3-0.3-2.4-0.9-3.3-1.8
		c-0.9-0.9-1.5-2.1-1.8-3.3c-0.3-1.3-0.1-2.6,0.4-3.7c0.5-1.2,1.3-2.2,2.4-2.9c1.1-0.7,2.3-1.1,3.6-1.1c1.7,0,3.4,0.7,4.6,1.9
		C88.6,189.2,89.3,190.9,89.3,192.6z M118.6,150.3c1.3,0,2.5,0.4,3.6,1.1c1.1,0.7,1.9,1.7,2.4,2.9c0.5,1.2,0.6,2.5,0.4,3.7
		c-0.3,1.3-0.9,2.4-1.8,3.3c-0.9,0.9-2.1,1.5-3.3,1.8c-1.3,0.3-2.6,0.1-3.7-0.4c-1.2-0.5-2.2-1.3-2.9-2.4c-0.7-1.1-1.1-2.3-1.1-3.6
		c0-1.7,0.7-3.4,1.9-4.6C115.2,151,116.9,150.3,118.6,150.3z M29.5,12.5c0-1.3,0.4-2.5,1.1-3.6c0.7-1.1,1.7-1.9,2.9-2.4
		s2.5-0.6,3.7-0.4c1.3,0.3,2.4,0.9,3.3,1.8c0.9,0.9,1.5,2.1,1.8,3.3c0.3,1.3,0.1,2.6-0.4,3.7c-0.5,1.2-1.3,2.2-2.4,2.9
		C38.5,18.6,37.3,19,36,19c-1.7,0-3.4-0.7-4.6-1.9S29.5,14.2,29.5,12.5z M-61.5,116.5c-1.3,0-2.5-0.4-3.6-1.1
		c-1.1-0.7-1.9-1.7-2.4-2.9c-0.5-1.2-0.6-2.5-0.4-3.7c0.3-1.3,0.9-2.4,1.8-3.3c0.9-0.9,2.1-1.5,3.3-1.8c1.3-0.3,2.6-0.1,3.7,0.4
		c1.2,0.5,2.2,1.3,2.9,2.4c0.7,1.1,1.1,2.3,1.1,3.6c0,1.7-0.7,3.4-1.9,4.6S-59.8,116.5-61.5,116.5z M42.5,207.5
		c0,1.3-0.4,2.5-1.1,3.6s-1.7,1.9-2.9,2.4s-2.5,0.6-3.7,0.4c-1.3-0.3-2.4-0.9-3.3-1.8c-0.9-0.9-1.5-2.1-1.8-3.3
		c-0.3-1.3-0.1-2.6,0.4-3.7c0.5-1.2,1.3-2.2,2.4-2.9c1.1-0.7,2.3-1.1,3.6-1.1c1.7,0,3.4,0.7,4.6,1.9
		C41.8,204.1,42.5,205.8,42.5,207.5z M36.1,157.7C36.1,157.7,36,157.7,36.1,157.7c-0.1,0-0.1,0-0.2,0c-12.6,0-24.7-5.1-33.7-14
		c-8.9-8.9-14-21-14-33.7v0v0c0-12.7,5-24.8,14-33.7s21.1-14,33.7-14c12.7,0,24.8,5,33.7,14s14,21.1,14,33.7v0v0
		c0,12.6-5,24.7-14,33.7C60.8,152.6,48.7,157.7,36.1,157.7z M133.5,116.5c-1.3,0-2.5-0.4-3.6-1.1c-1.1-0.7-1.9-1.7-2.4-2.9
		c-0.5-1.2-0.6-2.5-0.4-3.7c0.3-1.3,0.9-2.4,1.8-3.3c0.9-0.9,2.1-1.5,3.3-1.8c1.3-0.3,2.6-0.1,3.7,0.4c1.2,0.5,2.2,1.3,2.9,2.4
		c0.7,1.1,1.1,2.3,1.1,3.6c0,1.7-0.7,3.4-1.9,4.6C136.9,115.8,135.2,116.5,133.5,116.5L133.5,116.5z"/>
</g>
</svg>
