<svg width="64.000000" height="64.000000" viewBox="0 0 64 64" fill="none" xmlns="http://www.w3.org/2000/svg" xmlns:xlink="http://www.w3.org/1999/xlink">
	
	<defs>
		<clipPath id="clip97_867">
			<rect id="fi_4940808" rx="0.000000" width="63.000000" height="63.000000" transform="translate(0.500000 0.500000)" fill="white" fill-opacity="0"/>
		</clipPath>
	</defs>
	<rect id="fi_4940808" rx="0.000000" width="63.000000" height="63.000000" transform="translate(0.500000 0.500000)" fill="#FFFFFF" fill-opacity="0"/>
	<g clip-path="url(#clip97_867)">
		<path id="Vector" d="M23.14 62.12L25.02 62.12L25.02 64L23.14 64L23.14 62.12Z" fill="#FF7A00" fill-opacity="1.000000" fill-rule="nonzero"/>
		<path id="Vector" d="M2.52 6.56L0.64 6.56L0.64 64L21.27 64L21.27 62.12L2.52 62.12L2.52 6.56Z" fill="#FF7A00" fill-opacity="1.000000" fill-rule="nonzero"/>
		<path id="Vector" d="M16.11 21.68L28.3 21.68L28.3 23.56L16.11 23.56L16.11 21.68Z" fill="#FF7A00" fill-opacity="1.000000" fill-rule="nonzero"/>
		<path id="Vector" d="M16.11 14.18L40.49 14.18L40.49 16.06L16.11 16.06L16.11 14.18Z" fill="#FF7A00" fill-opacity="1.000000" fill-rule="nonzero"/>
		<path id="Vector" d="M16.11 32.93L28.3 32.93L28.3 34.81L16.11 34.81L16.11 32.93Z" fill="#FF7A00" fill-opacity="1.000000" fill-rule="nonzero"/>
		<path id="Vector" d="M16.11 44.18L28.3 44.18L28.3 46.06L16.11 46.06L16.11 44.18Z" fill="#FF7A00" fill-opacity="1.000000" fill-rule="nonzero"/>
		<path id="Vector" d="M16.11 36.68L40.49 36.68L40.49 38.56L16.11 38.56L16.11 36.68Z" fill="#FF7A00" fill-opacity="1.000000" fill-rule="nonzero"/>
		<path id="Vector" d="M16.11 10.43L28.3 10.43L28.3 12.31L16.11 12.31L16.11 10.43Z" fill="#FF7A00" fill-opacity="1.000000" fill-rule="nonzero"/>
		<path id="Vector" d="M16.11 25.43L40.49 25.43L40.49 27.31L16.11 27.31L16.11 25.43Z" fill="#FF7A00" fill-opacity="1.000000" fill-rule="nonzero"/>
		<path id="Vector" d="M14.24 10.43L8.61 10.43L8.61 16.06L14.24 16.06L14.24 10.43ZM12.36 14.18L10.49 14.18L10.49 12.31L12.36 12.31L12.36 14.18Z" fill="#FF7A00" fill-opacity="1.000000" fill-rule="nonzero"/>
		<path id="Vector" d="M8.61 27.31L14.24 27.31L14.24 21.68L8.61 21.68L8.61 27.31ZM10.49 23.56L12.36 23.56L12.36 25.43L10.49 25.43L10.49 23.56Z" fill="#FF7A00" fill-opacity="1.000000" fill-rule="nonzero"/>
		<path id="Vector" d="M8.61 38.56L14.24 38.56L14.24 32.93L8.61 32.93L8.61 38.56ZM10.49 34.81L12.36 34.81L12.36 36.68L10.49 36.68L10.49 34.81Z" fill="#FF7A00" fill-opacity="1.000000" fill-rule="nonzero"/>
		<path id="Vector" d="M8.61 49.81L14.24 49.81L14.24 44.18L8.61 44.18L8.61 49.81ZM10.49 46.06L12.36 46.06L12.36 47.93L10.49 47.93L10.49 46.06Z" fill="#FF7A00" fill-opacity="1.000000" fill-rule="nonzero"/>
		<path id="Vector" d="M63.35 44.24L55.85 36.74L47.52 45.06L47.52 8.04L39.47 0L0.64 0L0.64 4.68L2.52 4.68L2.52 1.87L38.14 1.87L38.14 9.37L45.64 9.37L45.64 45.06L41.95 41.37L35.38 47.93L16.11 47.93L16.11 49.81L35.38 49.81L45.64 60.07L45.64 62.12L26.89 62.12L26.89 64L47.52 64L47.52 60.07L63.35 44.24ZM40.02 3.2L44.32 7.5L40.02 7.5L40.02 3.2ZM41.95 44.02L46.58 48.65L55.85 39.39L60.7 44.24L46.58 58.35L37.1 48.87L41.95 44.02Z" fill="#FF7A00" fill-opacity="1.000000" fill-rule="nonzero"/>
		<path id="Vector" d="M51.86 46.02L53.18 44.69L54.51 46.02L53.18 47.35L51.86 46.02Z" fill="#FF7A00" fill-opacity="1.000000" fill-rule="nonzero"/>
		<path id="Vector" d="M54.51 43.36L55.83 42.04L57.16 43.36L55.83 44.69L54.51 43.36Z" fill="#FF7A00" fill-opacity="1.000000" fill-rule="nonzero"/>
	</g>
</svg>
