<svg width="42.000000" height="42.000000" viewBox="0 0 42 42" fill="none" xmlns="http://www.w3.org/2000/svg" xmlns:xlink="http://www.w3.org/1999/xlink">
	
	<defs/>
	<path id="Vector" d="M21 0C9.4 0 0 9.4 0 21C0 32.59 9.4 42 21 42C32.59 42 42 32.59 42 21C42 9.4 32.59 0 21 0ZM14.89 31.74L9.78 31.74L9.78 16.35L14.89 16.35L14.89 31.74ZM12.34 14.25L12.3 14.25C10.59 14.25 9.48 13.07 9.48 11.6C9.48 10.09 10.62 8.94 12.37 8.94C14.12 8.94 15.2 10.09 15.23 11.6C15.23 13.07 14.12 14.25 12.34 14.25ZM33.33 31.74L28.22 31.74L28.22 23.51C28.22 21.44 27.48 20.03 25.63 20.03C24.22 20.03 23.38 20.98 23.01 21.9C22.87 22.23 22.84 22.69 22.84 23.15L22.84 31.74L17.72 31.74C17.72 31.74 17.79 17.8 17.72 16.35L22.84 16.35L22.84 18.53C23.52 17.48 24.73 15.99 27.45 15.99C30.81 15.99 33.33 18.19 33.33 22.92L33.33 31.74Z" fill="#FFFFFF" fill-opacity="1.000000" fill-rule="nonzero"/>
</svg>
