<svg width="1481.056152" height="333.000122" viewBox="0 0 1481.06 333" fill="none" xmlns="http://www.w3.org/2000/svg" xmlns:xlink="http://www.w3.org/1999/xlink">
	
	<defs/>
	<g opacity="0.200000">
		<mask id="mask_96_309" fill="white">
			<path id="Union" d="M33.3667 32.6797L33.3667 17.7258Q33.3667 14.2764 34.5405 11.2881L34.5405 11.288L34.5408 11.2878Q35.8433 7.97229 38.5911 5.22449Q41.3389 2.47656 44.6545 1.17395L44.6548 1.17395Q47.6431 0 51.0925 0L85.7976 0Q90.2783 0 93.863 1.79224L93.863 1.79236L93.8638 1.7926Q96.3989 3.0603 98.4856 5.22449Q101.233 7.97217 102.536 11.2877L102.536 11.288Q103.71 14.2764 103.71 17.7258L103.71 32.6797L137.088 32.6797L137.088 17.7258Q137.088 14.2764 138.261 11.2881Q139.564 7.97241 142.312 5.22449Q145.06 2.47668 148.375 1.17407Q151.364 0.00012207 154.813 0.00012207L189.519 0.00012207Q193.999 0.00012207 197.584 1.79224L197.584 1.79236L197.584 1.7926Q200.12 3.0603 202.207 5.22449Q204.955 7.97241 206.257 11.2881L206.257 11.2889Q207.431 14.2769 207.431 17.7258L207.431 37.2703Q229.222 43.1859 244.054 56.7247L244.055 56.7258Q248.146 60.4595 251.707 64.7728C261.533 76.59 266.447 91.7036 266.447 110.114Q266.447 117.727 264.506 124.809Q259.455 143.239 241.258 158.067C265.141 170.879 277.083 190.781 277.083 217.775C277.083 244.767 267.504 265.292 248.348 279.348C236.419 288.08 222.78 294.076 207.431 297.335L207.431 315.274Q207.431 318.724 206.257 321.712Q204.955 325.028 202.207 327.776Q200.12 329.94 197.584 331.208L197.584 331.208Q194 333 189.519 333L154.813 333Q151.364 333 148.375 331.826Q145.06 330.523 142.312 327.776Q139.564 325.028 138.261 321.712Q137.088 318.724 137.088 315.274L137.088 300.246L103.71 300.246L103.71 315.274Q103.71 318.724 102.536 321.712Q101.234 325.028 98.4856 327.776Q96.3989 329.94 93.8638 331.208L93.863 331.208L93.8623 331.208Q90.2781 333 85.7976 333L51.0925 333Q47.6431 333 44.6548 331.826L44.6541 331.826Q41.3386 330.523 38.5911 327.776Q35.8433 325.028 34.5405 321.712Q33.3667 318.724 33.3667 315.274L33.3667 300.246L17.7258 300.246Q14.0532 300.246 10.9033 298.963Q7.81213 297.704 5.22449 295.208Q2.47656 292.46 1.17395 289.145L1.17383 289.145Q0 286.156 0 282.707L0 50.4055Q0 46.9561 1.17395 43.9678Q2.47656 40.6521 5.22449 37.9042C8.7074 34.4213 12.8745 32.6797 17.7258 32.6797L33.3667 32.6797ZM1169.83 164.596C1169.83 117.203 1182.58 82.4358 1208.08 60.2941C1233.58 38.1523 1271.02 27.0815 1320.4 27.0815Q1394.67 27.0815 1432.36 58.6147C1457.61 79.637 1470.23 113.658 1470.23 160.678C1470.23 185.556 1465.38 205.832 1455.68 221.506Q1445.42 238.485 1433.66 251.733L1463.33 251.733C1468.43 251.733 1472.66 253.474 1476.02 256.957C1479.38 260.316 1481.06 264.421 1481.06 269.272L1481.06 284.572C1481.06 289.423 1479.38 293.591 1476.02 297.074C1472.66 300.432 1468.43 302.111 1463.33 302.111L1320.03 302.111C1270.9 302.111 1233.58 291.041 1208.08 268.899C1182.58 246.757 1169.83 211.99 1169.83 164.596ZM305.892 67.9448L305.892 50.4055Q305.892 45.6584 307.832 41.9171Q309.018 39.6293 310.93 37.7177C314.288 34.359 318.518 32.6797 323.617 32.6797L560.397 32.6797C565.497 32.6797 569.727 34.359 573.085 37.7177C576.444 41.0762 578.123 45.3055 578.123 50.4055L578.123 67.9448C578.123 73.0448 576.444 77.2742 573.085 80.6327C569.727 83.8669 565.497 85.484 560.397 85.484L477.179 85.484L477.179 283.08C477.179 287.931 475.438 292.036 471.955 295.395C468.596 298.629 464.491 300.246 459.64 300.246L424.375 300.246C419.523 300.246 415.356 298.629 411.874 295.395C408.515 292.036 406.835 287.931 406.835 283.08L406.835 85.484L323.617 85.484C318.518 85.484 314.288 83.8669 310.93 80.6327C307.571 77.2742 305.892 73.0448 305.892 67.9448ZM627.83 282.334L627.83 50.7787C627.83 45.6787 629.51 41.3872 632.868 37.9042C636.227 34.4213 640.332 32.6797 645.183 32.6797L721.124 32.6797Q722.54 32.6797 723.928 32.8777L723.933 32.8784Q729.674 33.6984 734.931 37.9042C739.285 41.3872 742.208 45.5543 743.701 50.4055L798.744 209.751L853.788 50.4055C855.28 45.5543 858.204 41.3872 862.557 37.9042C866.911 34.4213 871.513 32.6797 876.365 32.6797L952.306 32.6797C957.157 32.6797 961.2 34.4213 964.434 37.9042C967.792 41.3872 969.472 45.6787 969.472 50.7787L969.472 282.334C969.472 287.434 967.73 291.725 964.247 295.208C960.889 298.567 956.784 300.246 951.933 300.246L918.347 300.246C913.496 300.246 909.329 298.567 905.845 295.208C902.487 291.725 900.808 287.434 900.808 282.334L900.808 100.038L834.942 283.453Q834.576 284.42 834.134 285.351L834.131 285.356Q831.413 291.065 825.8 295.395C821.446 298.629 816.843 300.246 811.992 300.246L785.31 300.246C780.459 300.246 775.856 298.629 771.502 295.395C767.273 292.036 764.226 288.056 762.36 283.453L696.681 100.038L696.681 282.334C696.681 287.434 694.939 291.725 691.457 295.208Q689.119 297.546 686.3 298.798Q683.042 300.246 679.142 300.246L645.556 300.246C640.705 300.246 636.538 298.567 633.055 295.208C629.572 291.725 627.83 287.434 627.83 282.334ZM1042.13 283.08L1042.13 50.4055C1042.13 45.5543 1043.87 41.3872 1047.35 37.9042C1050.84 34.4213 1055 32.6797 1059.85 32.6797L1094.56 32.6797C1099.66 32.6797 1103.89 34.4213 1107.25 37.9042C1110.73 41.3872 1112.47 45.5543 1112.47 50.4055L1112.47 282.707C1112.47 287.558 1110.67 291.725 1107.06 295.208C1103.58 298.567 1099.41 300.246 1094.56 300.246L1059.85 300.246C1055 300.246 1050.84 298.629 1047.35 295.395C1043.87 292.036 1042.13 287.931 1042.13 283.08ZM1320.03 251.733C1373.27 251.733 1399.89 221.381 1399.89 160.678C1399.89 132.441 1393.61 111.543 1381.05 97.9847C1368.48 84.3016 1348.21 77.4601 1320.22 77.4601C1292.35 77.4601 1272.02 84.8615 1259.2 99.6641C1246.52 114.467 1240.17 136.111 1240.17 164.596C1240.17 193.082 1246.52 214.726 1259.2 229.529C1272.02 244.332 1292.29 251.733 1320.03 251.733ZM70.3435 136.609L170.168 136.609C178.004 136.609 184.286 134.308 189.013 129.705C193.74 124.978 196.104 118.448 196.104 110.114C196.104 101.655 193.74 95.0621 189.013 90.3352C184.286 85.6084 178.004 83.245 170.168 83.245L70.3435 83.245L70.3435 136.609ZM70.3435 249.868L177.072 249.868C186.65 249.868 193.989 247.007 199.089 241.285C204.189 235.562 206.739 227.726 206.739 217.775C206.739 207.823 204.189 199.987 199.089 194.265C193.989 188.542 186.65 185.681 177.072 185.681L70.3435 185.681L70.3435 249.868Z" clip-rule="evenodd" fill="" fill-opacity="1.000000" fill-rule="evenodd"/>
		</mask>
		<path id="Union" d="M33.3667 32.6797L33.3667 17.7258Q33.3667 14.2764 34.5405 11.2881L34.5405 11.288L34.5408 11.2878Q35.8433 7.97229 38.5911 5.22449Q41.3389 2.47656 44.6545 1.17395L44.6548 1.17395Q47.6431 0 51.0925 0L85.7976 0Q90.2783 0 93.863 1.79224L93.863 1.79236L93.8638 1.7926Q96.3989 3.0603 98.4856 5.22449Q101.233 7.97217 102.536 11.2877L102.536 11.288Q103.71 14.2764 103.71 17.7258L103.71 32.6797L137.088 32.6797L137.088 17.7258Q137.088 14.2764 138.261 11.2881Q139.564 7.97241 142.312 5.22449Q145.06 2.47668 148.375 1.17407Q151.364 0.00012207 154.813 0.00012207L189.519 0.00012207Q193.999 0.00012207 197.584 1.79224L197.584 1.79236L197.584 1.7926Q200.12 3.0603 202.207 5.22449Q204.955 7.97241 206.257 11.2881L206.257 11.2889Q207.431 14.2769 207.431 17.7258L207.431 37.2703Q229.222 43.1859 244.054 56.7247L244.055 56.7258Q248.146 60.4595 251.707 64.7728C261.533 76.59 266.447 91.7036 266.447 110.114Q266.447 117.727 264.506 124.809Q259.455 143.239 241.258 158.067C265.141 170.879 277.083 190.781 277.083 217.775C277.083 244.767 267.504 265.292 248.348 279.348C236.419 288.08 222.78 294.076 207.431 297.335L207.431 315.274Q207.431 318.724 206.257 321.712Q204.955 325.028 202.207 327.776Q200.12 329.94 197.584 331.208L197.584 331.208Q194 333 189.519 333L154.813 333Q151.364 333 148.375 331.826Q145.06 330.523 142.312 327.776Q139.564 325.028 138.261 321.712Q137.088 318.724 137.088 315.274L137.088 300.246L103.71 300.246L103.71 315.274Q103.71 318.724 102.536 321.712Q101.234 325.028 98.4856 327.776Q96.3989 329.94 93.8638 331.208L93.863 331.208L93.8623 331.208Q90.2781 333 85.7976 333L51.0925 333Q47.6431 333 44.6548 331.826L44.6541 331.826Q41.3386 330.523 38.5911 327.776Q35.8433 325.028 34.5405 321.712Q33.3667 318.724 33.3667 315.274L33.3667 300.246L17.7258 300.246Q14.0532 300.246 10.9033 298.963Q7.81213 297.704 5.22449 295.208Q2.47656 292.46 1.17395 289.145L1.17383 289.145Q0 286.156 0 282.707L0 50.4055Q0 46.9561 1.17395 43.9678Q2.47656 40.6521 5.22449 37.9042C8.7074 34.4213 12.8745 32.6797 17.7258 32.6797L33.3667 32.6797ZM1169.83 164.596C1169.83 117.203 1182.58 82.4358 1208.08 60.2941C1233.58 38.1523 1271.02 27.0815 1320.4 27.0815Q1394.67 27.0815 1432.36 58.6147C1457.61 79.637 1470.23 113.658 1470.23 160.678C1470.23 185.556 1465.38 205.832 1455.68 221.506Q1445.42 238.485 1433.66 251.733L1463.33 251.733C1468.43 251.733 1472.66 253.474 1476.02 256.957C1479.38 260.316 1481.06 264.421 1481.06 269.272L1481.06 284.572C1481.06 289.423 1479.38 293.591 1476.02 297.074C1472.66 300.432 1468.43 302.111 1463.33 302.111L1320.03 302.111C1270.9 302.111 1233.58 291.041 1208.08 268.899C1182.58 246.757 1169.83 211.99 1169.83 164.596ZM305.892 67.9448L305.892 50.4055Q305.892 45.6584 307.832 41.9171Q309.018 39.6293 310.93 37.7177C314.288 34.359 318.518 32.6797 323.617 32.6797L560.397 32.6797C565.497 32.6797 569.727 34.359 573.085 37.7177C576.444 41.0762 578.123 45.3055 578.123 50.4055L578.123 67.9448C578.123 73.0448 576.444 77.2742 573.085 80.6327C569.727 83.8669 565.497 85.484 560.397 85.484L477.179 85.484L477.179 283.08C477.179 287.931 475.438 292.036 471.955 295.395C468.596 298.629 464.491 300.246 459.64 300.246L424.375 300.246C419.523 300.246 415.356 298.629 411.874 295.395C408.515 292.036 406.835 287.931 406.835 283.08L406.835 85.484L323.617 85.484C318.518 85.484 314.288 83.8669 310.93 80.6327C307.571 77.2742 305.892 73.0448 305.892 67.9448ZM627.83 282.334L627.83 50.7787C627.83 45.6787 629.51 41.3872 632.868 37.9042C636.227 34.4213 640.332 32.6797 645.183 32.6797L721.124 32.6797Q722.54 32.6797 723.928 32.8777L723.933 32.8784Q729.674 33.6984 734.931 37.9042C739.285 41.3872 742.208 45.5543 743.701 50.4055L798.744 209.751L853.788 50.4055C855.28 45.5543 858.204 41.3872 862.557 37.9042C866.911 34.4213 871.513 32.6797 876.365 32.6797L952.306 32.6797C957.157 32.6797 961.2 34.4213 964.434 37.9042C967.792 41.3872 969.472 45.6787 969.472 50.7787L969.472 282.334C969.472 287.434 967.73 291.725 964.247 295.208C960.889 298.567 956.784 300.246 951.933 300.246L918.347 300.246C913.496 300.246 909.329 298.567 905.845 295.208C902.487 291.725 900.808 287.434 900.808 282.334L900.808 100.038L834.942 283.453Q834.576 284.42 834.134 285.351L834.131 285.356Q831.413 291.065 825.8 295.395C821.446 298.629 816.843 300.246 811.992 300.246L785.31 300.246C780.459 300.246 775.856 298.629 771.502 295.395C767.273 292.036 764.226 288.056 762.36 283.453L696.681 100.038L696.681 282.334C696.681 287.434 694.939 291.725 691.457 295.208Q689.119 297.546 686.3 298.798Q683.042 300.246 679.142 300.246L645.556 300.246C640.705 300.246 636.538 298.567 633.055 295.208C629.572 291.725 627.83 287.434 627.83 282.334ZM1042.13 283.08L1042.13 50.4055C1042.13 45.5543 1043.87 41.3872 1047.35 37.9042C1050.84 34.4213 1055 32.6797 1059.85 32.6797L1094.56 32.6797C1099.66 32.6797 1103.89 34.4213 1107.25 37.9042C1110.73 41.3872 1112.47 45.5543 1112.47 50.4055L1112.47 282.707C1112.47 287.558 1110.67 291.725 1107.06 295.208C1103.58 298.567 1099.41 300.246 1094.56 300.246L1059.85 300.246C1055 300.246 1050.84 298.629 1047.35 295.395C1043.87 292.036 1042.13 287.931 1042.13 283.08ZM1320.03 251.733C1373.27 251.733 1399.89 221.381 1399.89 160.678C1399.89 132.441 1393.61 111.543 1381.05 97.9847C1368.48 84.3016 1348.21 77.4601 1320.22 77.4601C1292.35 77.4601 1272.02 84.8615 1259.2 99.6641C1246.52 114.467 1240.17 136.111 1240.17 164.596C1240.17 193.082 1246.52 214.726 1259.2 229.529C1272.02 244.332 1292.29 251.733 1320.03 251.733ZM70.3435 136.609L170.168 136.609C178.004 136.609 184.286 134.308 189.013 129.705C193.74 124.978 196.104 118.448 196.104 110.114C196.104 101.655 193.74 95.0621 189.013 90.3352C184.286 85.6084 178.004 83.245 170.168 83.245L70.3435 83.245L70.3435 136.609ZM70.3435 249.868L177.072 249.868C186.65 249.868 193.989 247.007 199.089 241.285C204.189 235.562 206.739 227.726 206.739 217.775C206.739 207.823 204.189 199.987 199.089 194.265C193.989 188.542 186.65 185.681 177.072 185.681L70.3435 185.681L70.3435 249.868Z" clip-rule="evenodd" fill="#171F3D" fill-opacity="1.000000" fill-rule="evenodd" mask="url(#mask_96_309)"/>
		<path id="Union" d="M103.71 31.6797L103.71 17.7258Q103.71 14.2777 102.537 11.2903L102.536 11.288L102.536 11.2877L102.536 11.287Q101.233 7.97187 98.4856 5.22449Q96.4 3.0614 93.8663 1.79389L93.8638 1.7926L93.863 1.79236L93.863 1.79224L93.8626 1.79204Q90.2781 0 85.7976 0L51.0925 0Q47.6431 0 44.6549 1.17392L44.6548 1.17395L44.6545 1.17395L44.654 1.17416Q41.3386 2.47678 38.5911 5.22449Q35.8433 7.97229 34.5408 11.2878L34.5405 11.288L34.5405 11.2881Q33.3667 14.2764 33.3667 17.7258L33.3667 32.6797L17.7258 32.6797C12.8745 32.6797 8.7074 34.4213 5.22449 37.9042Q2.47656 40.6521 1.17395 43.9678L1.17392 43.9678Q0 46.9561 0 50.4055L0 282.707Q0 286.155 1.17315 289.143L1.17383 289.145L1.17395 289.145L1.17416 289.145Q2.47678 292.461 5.22449 295.208Q7.81213 297.704 10.9033 298.963L10.9048 298.964Q14.0541 300.246 17.7258 300.246L33.3667 300.246L33.3667 315.274Q33.3667 318.724 34.5405 321.712Q35.8433 325.028 38.5911 327.776Q41.3382 330.523 44.653 331.826L44.6541 331.826L44.6548 331.826Q47.6431 333 51.0925 333L85.7976 333Q90.2781 333 93.8623 331.208L93.863 331.208L93.8638 331.208L93.8663 331.206Q96.4 329.939 98.4856 327.776Q101.234 325.028 102.536 321.712L102.537 321.711Q103.71 318.723 103.71 315.274L103.71 300.246L137.088 300.246L137.088 315.274Q137.088 318.724 138.261 321.712Q139.564 325.028 142.312 327.776Q145.06 330.523 148.375 331.826L148.378 331.827Q151.365 333 154.813 333L189.519 333Q194 333 197.584 331.208L197.584 331.208Q200.12 329.94 202.207 327.776Q204.955 325.028 206.257 321.712Q207.431 318.724 207.431 315.274L207.431 297.335C222.78 294.076 236.419 288.08 248.348 279.348C267.504 265.292 277.083 244.767 277.083 217.775C277.083 191.141 265.457 171.411 242.206 158.583C241.892 158.409 241.576 158.237 241.258 158.067Q241.677 157.724 242.091 157.38Q259.571 142.814 264.506 124.81L264.506 124.809L264.508 124.801Q266.447 117.723 266.447 110.114C266.447 91.7036 261.533 76.59 251.707 64.7728Q248.149 60.4634 244.063 56.7327L244.055 56.7258L244.054 56.7247Q229.222 43.1859 207.431 37.2703L207.431 17.7258Q207.431 14.2774 206.258 11.2899L206.257 11.2889L206.257 11.2881Q204.955 7.97241 202.207 5.22449Q200.12 3.0603 197.584 1.7926L197.584 1.79236L197.584 1.79224Q193.999 0.00012207 189.519 0.00012207L154.813 0.00012207Q151.365 0.00012207 148.378 1.17313L148.375 1.17407Q145.06 2.47668 142.312 5.22449Q139.564 7.97241 138.261 11.2881Q137.088 14.2764 137.088 17.7258L137.088 32.6797L103.71 32.6797L103.71 31.6797ZM17.7258 33.6797L34.3667 33.6797L34.3667 17.7258Q34.3667 14.4697 35.4688 11.6605Q35.4701 11.6571 35.4714 11.6537Q36.7006 8.52914 39.2981 5.93152Q41.8987 3.33118 45.0203 2.10474Q47.8323 1 51.0925 1L85.7976 1Q90.0422 1 93.4158 2.68665Q93.4171 2.68743 93.4184 2.68809Q95.7992 3.87906 97.7659 5.91858Q100.379 8.53186 101.605 11.6533L101.608 11.6594Q102.71 14.4657 102.71 17.7258L102.71 33.6797L138.088 33.6797L138.088 17.7258Q138.088 14.4658 139.192 11.6537Q140.419 8.5321 143.019 5.93164Q145.62 3.33118 148.741 2.10474Q151.553 1.00012 154.813 1.00012L189.519 1.00012Q193.757 1.00012 197.126 2.6814L197.137 2.68674L197.137 2.68689Q199.519 3.87793 201.487 5.9187Q204.1 8.5321 205.326 11.6537L205.327 11.6554Q206.431 14.4662 206.431 17.7258L206.431 38.035L207.169 38.2354Q228.727 44.0876 243.38 57.4634L243.384 57.4668Q247.419 61.1506 250.935 65.4094Q252.805 67.6579 254.434 70.0691Q265.447 86.3716 265.447 110.114Q265.447 117.592 263.542 124.545Q258.575 142.666 240.626 157.291L239.463 158.239L240.785 158.948Q258.572 168.49 267.395 183.353Q276.082 197.985 276.083 217.775Q276.082 243.987 263.908 261.947Q257.512 271.383 247.756 278.542Q244.841 280.676 241.789 282.59Q226.284 292.31 207.223 296.357L206.431 296.525L206.431 315.274Q206.431 318.534 205.326 321.346Q204.1 324.468 201.5 327.068Q199.524 329.117 197.149 330.307Q197.143 330.31 197.137 330.313Q193.756 332 189.519 332L154.813 332Q151.553 332 148.741 330.895Q145.619 329.669 143.019 327.068Q140.419 324.468 139.192 321.346Q138.088 318.534 138.088 315.274L138.088 299.246L102.71 299.246L102.71 315.274Q102.71 318.534 101.605 321.346Q100.379 324.468 97.7786 327.069Q95.8018 329.118 93.4255 330.309L93.4233 330.31Q93.4199 330.312 93.4165 330.313Q90.0377 332 85.7976 332L51.0925 332Q47.841 332 45.035 330.901Q45.0276 330.898 45.0202 330.895Q41.8924 329.663 39.2981 327.069Q36.6978 324.468 35.4714 321.346Q34.3667 318.534 34.3667 315.274L34.3667 299.246L17.7258 299.246Q14.249 299.246 11.2805 298.037Q8.3678 296.85 5.91858 294.489Q3.33118 291.901 2.10474 288.779L2.10229 288.773Q1 285.967 1 282.707L1 50.4055Q1 47.1454 2.10474 44.3334Q3.33105 41.2118 5.93152 38.6113Q8.53291 36.0099 11.6717 34.7807Q14.4832 33.6797 17.7258 33.6797ZM1434.54 250.733Q1445.8 237.847 1455.68 221.506C1465.38 205.832 1470.23 185.556 1470.23 160.678Q1470.23 95.04 1437.43 63.1766Q1434.98 60.8019 1432.36 58.6147Q1394.67 27.0815 1320.4 27.0815C1271.02 27.0815 1233.58 38.1523 1208.08 60.2941C1182.58 82.4358 1169.83 117.203 1169.83 164.596C1169.83 211.99 1182.58 246.757 1208.08 268.899C1233.58 291.041 1270.9 302.111 1320.03 302.111L1463.33 302.111C1468.43 302.111 1472.66 300.432 1476.02 297.074C1479.38 293.591 1481.06 289.423 1481.06 284.572L1481.06 269.272C1481.06 264.421 1479.38 260.316 1476.02 256.957C1472.66 253.474 1468.43 251.733 1463.33 251.733L1433.66 251.733Q1434.1 251.239 1434.54 250.733ZM1203.73 263.472Q1170.83 230.407 1170.83 164.597Q1170.83 98.7851 1203.73 65.7206Q1206.15 63.2969 1208.73 61.0492Q1246.7 28.0815 1320.4 28.0815Q1394.3 28.0814 1431.72 59.3817Q1434.22 61.4702 1436.56 63.7323Q1469.23 95.3006 1469.23 160.678Q1469.23 197.712 1454.83 220.979Q1444.61 237.885 1432.92 251.069L1431.44 252.733L1463.33 252.733Q1467.6 252.733 1471 254.45Q1473.36 255.639 1475.3 257.651Q1477.52 259.87 1478.7 262.547Q1480.06 265.61 1480.06 269.272L1480.06 284.572Q1480.06 288.042 1478.84 291.017Q1477.65 293.936 1475.3 296.379Q1473.56 298.122 1471.47 299.222Q1467.9 301.111 1463.33 301.111L1320.03 301.111Q1246.7 301.111 1208.73 268.144Q1206.15 265.896 1203.73 263.472ZM478.179 85.484L560.397 85.484C565.497 85.484 569.727 83.8669 573.085 80.6327C576.444 77.2742 578.123 73.0448 578.123 67.9448L578.123 50.4055C578.123 45.3055 576.444 41.0762 573.085 37.7177C569.727 34.359 565.497 32.6797 560.397 32.6797L323.617 32.6797C318.518 32.6797 314.288 34.359 310.93 37.7177Q309.018 39.6293 307.832 41.9171L307.831 41.918Q305.892 45.659 305.892 50.4055L305.892 67.9448C305.892 73.0448 307.571 77.2742 310.93 80.6327C314.288 83.8669 318.518 85.484 323.617 85.484L406.835 85.484L406.835 283.08C406.835 287.931 408.515 292.036 411.874 295.395C415.356 298.629 419.523 300.246 424.375 300.246L459.64 300.246C464.491 300.246 468.596 298.629 471.955 295.395C475.438 292.036 477.179 287.931 477.179 283.08L477.179 85.484L478.179 85.484ZM412.566 294.673Q414.829 296.771 417.501 297.907Q420.654 299.246 424.375 299.246L459.64 299.246Q463.593 299.246 466.842 297.734Q469.243 296.617 471.26 294.675Q473.697 292.326 474.926 289.459Q476.179 286.538 476.179 283.08L476.179 84.484L560.397 84.484Q565.268 84.484 569.003 82.4248Q570.826 81.4203 572.378 79.9257Q574.145 78.1586 575.254 76.0462Q577.123 72.486 577.123 67.9448L577.123 50.4055Q577.123 45.8652 575.255 42.3055Q574.146 40.1923 572.378 38.4247Q570.611 36.6579 568.499 35.5489Q564.939 33.6797 560.397 33.6797L323.617 33.6797Q319.076 33.6797 315.515 35.5491Q313.403 36.658 311.637 38.4247Q309.834 40.2269 308.719 42.3774Q306.892 45.9021 306.892 50.4055L306.892 67.9448Q306.892 72.5196 308.783 76.0935Q309.883 78.1722 311.623 79.9124Q313.203 81.4337 315.06 82.4488Q318.782 84.484 323.617 84.484L407.835 84.484L407.835 283.08Q407.836 286.774 409.211 289.855Q410.386 292.488 412.566 294.673ZM743.701 50.4055C742.208 45.5543 739.285 41.3872 734.931 37.9042Q729.674 33.6984 723.933 32.8784L723.928 32.8777L723.913 32.8754Q722.532 32.6797 721.124 32.6797L645.183 32.6797C640.332 32.6797 636.227 34.4213 632.868 37.9042C629.51 41.3872 627.83 45.6787 627.83 50.7787L627.83 282.334C627.83 287.434 629.572 291.725 633.055 295.208C636.538 298.567 640.705 300.246 645.556 300.246L679.142 300.246Q683.041 300.246 686.297 298.8L686.3 298.798L686.303 298.797Q689.121 297.544 691.457 295.208Q693.759 292.906 695.047 290.133Q696.681 286.613 696.681 282.334L696.681 100.038L697.681 102.83L762.36 283.453C764.226 288.056 767.273 292.036 771.502 295.395C775.856 298.629 780.459 300.246 785.31 300.246L811.992 300.246C816.843 300.246 821.446 298.629 825.8 295.395Q831.413 291.065 834.131 285.356L834.134 285.351L834.144 285.328Q834.581 284.409 834.942 283.453L899.808 102.823L900.808 100.038L900.808 282.334C900.808 287.434 902.487 291.725 905.845 295.208C909.329 298.567 913.496 300.246 918.347 300.246L951.933 300.246C956.784 300.246 960.889 298.567 964.247 295.208C967.73 291.725 969.472 287.434 969.472 282.334L969.472 50.7787C969.472 45.6787 967.792 41.3872 964.434 37.9042C961.2 34.4213 957.157 32.6797 952.306 32.6797L876.365 32.6797C871.513 32.6797 866.911 34.4213 862.557 37.9042C858.204 41.3872 855.28 45.5543 853.788 50.4055L799.273 208.22L798.744 209.751L798.215 208.22L743.701 50.4055ZM906.556 294.504Q908.993 296.849 911.903 298.034Q914.878 299.246 918.347 299.246L951.933 299.246Q955.629 299.246 958.71 297.87Q961.351 296.691 963.54 294.501Q965.697 292.345 966.91 289.748Q968.472 286.406 968.472 282.334L968.472 50.7787Q968.472 46.4735 966.788 42.9798Q965.638 40.5928 963.701 38.5846Q961.579 36.2988 958.96 35.0783Q955.959 33.6797 952.306 33.6797L876.365 33.6797Q875.105 33.6797 873.867 33.8453Q868.301 34.5901 863.182 38.6851Q858.309 42.5835 855.921 47.6527Q855.227 49.1267 854.743 50.6996L854.739 50.715L798.744 212.814L742.75 50.715L742.745 50.6996Q742.261 49.1264 741.567 47.6522Q739.18 42.5833 734.307 38.6851Q729.262 34.6498 723.792 33.8684L723.787 33.8677Q722.469 33.6797 721.124 33.6797L645.183 33.6797Q641.726 33.6797 638.805 34.9319Q635.938 36.1615 633.588 38.5984Q631.679 40.5774 630.536 42.9285Q628.83 46.4388 628.83 50.7787L628.83 282.334Q628.83 286.438 630.412 289.796Q631.62 292.359 633.749 294.489Q636.191 296.844 639.109 298.033Q642.086 299.246 645.556 299.246L679.142 299.246Q682.83 299.246 685.894 297.885Q688.543 296.707 690.75 294.501Q692.905 292.345 694.119 289.748Q695.681 286.406 695.681 282.334L695.681 100.038L697.623 99.7007L763.287 283.077L763.294 283.095Q763.759 284.24 764.325 285.331Q767.046 290.575 772.113 294.602Q777.031 298.252 782.369 299.033Q783.824 299.246 785.31 299.246L811.992 299.246Q813.514 299.246 815.003 299.023Q820.308 298.229 825.189 294.603Q830.613 290.419 833.229 284.925L833.231 284.921Q833.656 284.028 834.001 283.115L899.866 99.6998L901.808 100.038L901.808 282.334Q901.808 286.673 903.514 290.184Q904.654 292.529 906.556 294.504ZM1042.13 50.4055L1042.13 283.08C1042.13 287.931 1043.87 292.036 1047.35 295.395C1050.84 298.629 1055 300.246 1059.85 300.246L1094.56 300.246C1099.41 300.246 1103.58 298.567 1107.06 295.208C1110.67 291.725 1112.47 287.558 1112.47 282.707L1112.47 50.4055C1112.47 45.5543 1110.73 41.3872 1107.25 37.9042C1103.89 34.4213 1099.66 32.6797 1094.56 32.6797L1059.85 32.6797C1055 32.6797 1050.84 34.4213 1047.35 37.9042C1043.87 41.3872 1042.13 45.5543 1042.13 50.4055ZM1044.4 289.508Q1043.13 286.569 1043.13 283.08L1043.13 50.4055Q1043.13 47.1623 1044.23 44.3505Q1045.46 41.2122 1048.06 38.6113Q1050.66 36.0087 1053.8 34.7796Q1056.61 33.6797 1059.85 33.6797L1094.56 33.6797Q1098.83 33.6797 1102.23 35.3975Q1104.59 36.5865 1106.53 38.5983Q1109.16 41.2281 1110.39 44.4006Q1111.47 47.1928 1111.47 50.4055L1111.47 282.707Q1111.47 285.739 1110.47 288.395Q1109.21 291.741 1106.37 294.489Q1103.92 296.844 1101.01 298.033Q1098.03 299.246 1094.56 299.246L1059.85 299.246Q1056.13 299.246 1052.98 297.907Q1050.3 296.768 1048.03 294.662Q1045.63 292.341 1044.4 289.508ZM1261.18 233.117Q1280.8 252.733 1320.03 252.733Q1355.25 252.733 1375.13 235.271Q1400.89 212.64 1400.89 160.678Q1400.89 117.93 1381.78 97.3051Q1362.64 76.46 1320.22 76.4601Q1280.63 76.4602 1261 96.2524Q1259.68 97.586 1258.45 99.0095Q1239.17 121.499 1239.17 164.596Q1239.17 207.694 1258.44 230.18Q1259.76 231.7 1261.18 233.117ZM1399.89 160.678C1399.89 221.381 1373.27 251.733 1320.03 251.733C1292.29 251.733 1272.02 244.332 1259.2 229.529C1246.52 214.726 1240.17 193.082 1240.17 164.596C1240.17 136.111 1246.52 114.467 1259.2 99.6641C1272.02 84.8615 1292.35 77.4601 1320.22 77.4601C1348.21 77.4601 1368.48 84.3016 1381.05 97.9847C1393.61 111.543 1399.89 132.441 1399.89 160.678ZM69.3435 82.245L69.3435 137.609L170.168 137.609Q179.656 137.609 186.235 133.234Q188.088 132.001 189.711 130.422Q190.911 129.222 191.916 127.876Q197.104 120.933 197.104 110.114Q197.104 98.8574 191.654 91.8222Q190.76 90.6684 189.72 89.6282Q187.891 87.7992 185.769 86.4233Q179.322 82.2449 170.168 82.245L69.3435 82.245ZM71.3435 83.245L170.168 83.245C178.004 83.245 184.286 85.6084 189.013 90.3352C193.74 95.0621 196.104 101.655 196.104 110.114C196.104 118.448 193.74 124.978 189.013 129.705C184.286 134.308 178.004 136.609 170.168 136.609L70.3435 136.609L70.3435 83.245L71.3435 83.245ZM69.3435 184.681L69.3435 250.868L177.072 250.868Q188.97 250.867 196.44 245.116Q198.271 243.706 199.835 241.95Q200.242 241.493 200.628 241.02Q207.739 232.295 207.739 217.775Q207.739 203.254 200.628 194.528Q200.242 194.055 199.835 193.599Q198.271 191.844 196.44 190.434Q188.97 184.682 177.072 184.681L69.3435 184.681ZM71.3435 185.681L177.072 185.681C186.65 185.681 193.989 188.542 199.089 194.265C204.189 199.987 206.739 207.823 206.739 217.775Q206.739 232.086 199.707 240.566Q199.404 240.93 199.089 241.285C193.989 247.007 186.65 249.868 177.072 249.868L70.3435 249.868L70.3435 185.681L71.3435 185.681Z" clip-rule="evenodd" fill="#00DDFF" fill-opacity="1.000000" fill-rule="evenodd"/>
	</g>
</svg>
