<svg width="22.000000" height="22.000000" viewBox="0 0 22 22" fill="none" xmlns="http://www.w3.org/2000/svg" xmlns:xlink="http://www.w3.org/1999/xlink">
	
	<defs>
		<clipPath id="clip134_5">
			<rect id="fi_2920686" rx="0.000000" width="21.000000" height="21.000000" transform="translate(0.500000 0.500000)" fill="white" fill-opacity="0"/>
		</clipPath>
	</defs>
	<rect id="fi_2920686" rx="0.000000" width="21.000000" height="21.000000" transform="translate(0.500000 0.500000)" fill="#FFFFFF" fill-opacity="0"/>
	<g clip-path="url(#clip134_5)">
		<path id="Vector" d="M9.62 3.43L9.62 18.56C9.62 19.1 9.4 19.63 9.02 20.02C8.63 20.4 8.1 20.62 7.56 20.62L5.5 20.62C4.95 20.62 4.42 20.4 4.04 20.02C3.65 19.63 3.43 19.1 3.43 18.56L3.43 3.43C3.43 2.89 3.65 2.36 4.04 1.97C4.42 1.59 4.95 1.37 5.5 1.37L7.56 1.37C8.1 1.37 8.63 1.59 9.02 1.97C9.4 2.36 9.62 2.89 9.62 3.43ZM16.5 1.37L14.43 1.37C13.89 1.37 13.36 1.59 12.97 1.97C12.59 2.36 12.37 2.89 12.37 3.43L12.37 18.56C12.37 19.1 12.59 19.63 12.97 20.02C13.36 20.4 13.89 20.62 14.43 20.62L16.5 20.62C17.04 20.62 17.57 20.4 17.95 20.02C18.34 19.63 18.56 19.1 18.56 18.56L18.56 3.43C18.56 2.89 18.34 2.36 17.95 1.97C17.57 1.59 17.04 1.37 16.5 1.37Z" fill="#000000" fill-opacity="1.000000" fill-rule="nonzero"/>
	</g>
</svg>
