<svg width="80.000000" height="80.000000" viewBox="0 0 80 80" fill="none" xmlns="http://www.w3.org/2000/svg" xmlns:xlink="http://www.w3.org/1999/xlink">
	
	<defs>
		<clipPath id="clip36_67">
			<rect id="fi_4618560" rx="0.000000" width="79.000000" height="79.000000" transform="translate(0.500000 0.500000)" fill="white" fill-opacity="0"/>
		</clipPath>
	</defs>
	<rect id="fi_4618560" rx="0.000000" width="79.000000" height="79.000000" transform="translate(0.500000 0.500000)" fill="#FFFFFF" fill-opacity="0"/>
	<g clip-path="url(#clip36_67)">
		<path id="Vector" d="M36.26 41.44L41.44 36.26C41.54 36.16 41.62 36.04 41.68 35.91C41.73 35.78 41.76 35.63 41.76 35.49C41.76 35.35 41.73 35.21 41.68 35.07C41.62 34.94 41.54 34.82 41.44 34.72L38.68 31.96C39.25 30.92 39.7 29.83 40.04 28.69L43.94 28.69C44.23 28.69 44.5 28.58 44.71 28.37C44.91 28.17 45.03 27.89 45.03 27.6L45.03 20.28C45.03 19.99 44.91 19.71 44.71 19.5C44.5 19.3 44.23 19.18 43.94 19.18L40.05 19.18C39.71 18.05 39.26 16.95 38.69 15.91L41.44 13.16C41.54 13.05 41.62 12.93 41.68 12.8C41.73 12.67 41.76 12.53 41.76 12.38C41.76 12.24 41.73 12.1 41.68 11.96C41.62 11.83 41.54 11.71 41.44 11.61L36.26 6.43C36.16 6.33 36.04 6.25 35.91 6.2C35.78 6.14 35.63 6.11 35.49 6.11C35.35 6.11 35.2 6.14 35.07 6.2C34.94 6.25 34.82 6.33 34.72 6.43L31.96 9.19C30.92 8.62 29.83 8.16 28.69 7.83L28.69 3.94C28.69 3.79 28.66 3.65 28.61 3.52C28.55 3.39 28.47 3.26 28.37 3.16C28.27 3.06 28.15 2.98 28.02 2.93C27.88 2.87 27.74 2.84 27.6 2.84L20.28 2.84C20.13 2.84 19.99 2.87 19.86 2.93C19.72 2.98 19.6 3.06 19.5 3.16C19.4 3.26 19.32 3.39 19.27 3.52C19.21 3.65 19.18 3.79 19.18 3.94L19.18 7.83C18.05 8.17 16.95 8.62 15.91 9.19L13.16 6.43C13.05 6.33 12.93 6.25 12.8 6.2C12.67 6.14 12.53 6.11 12.38 6.11C12.24 6.11 12.1 6.14 11.96 6.2C11.83 6.25 11.71 6.33 11.61 6.43L6.43 11.61C6.33 11.71 6.25 11.83 6.2 11.96C6.14 12.1 6.11 12.24 6.11 12.38C6.11 12.53 6.14 12.67 6.2 12.8C6.25 12.93 6.33 13.05 6.43 13.16L9.19 15.91C8.62 16.95 8.17 18.05 7.83 19.18L3.94 19.18C3.79 19.18 3.65 19.21 3.52 19.27C3.39 19.32 3.26 19.4 3.16 19.5C3.06 19.6 2.98 19.73 2.93 19.86C2.87 19.99 2.84 20.13 2.84 20.28L2.84 27.6C2.84 27.74 2.87 27.88 2.93 28.02C2.98 28.15 3.06 28.27 3.16 28.37C3.26 28.47 3.39 28.55 3.52 28.61C3.65 28.66 3.79 28.69 3.94 28.69L7.83 28.69C8.16 29.83 8.62 30.92 9.19 31.96L6.43 34.72C6.33 34.82 6.25 34.94 6.2 35.07C6.14 35.21 6.11 35.35 6.11 35.49C6.11 35.63 6.14 35.78 6.2 35.91C6.25 36.04 6.33 36.16 6.43 36.26L11.61 41.44C11.81 41.65 12.09 41.76 12.38 41.76C12.67 41.76 12.95 41.65 13.16 41.44L15.91 38.69C16.95 39.26 18.05 39.71 19.18 40.05L19.18 43.94C19.18 44.23 19.3 44.51 19.5 44.71C19.71 44.92 19.99 45.03 20.28 45.03L27.6 45.03C27.89 45.03 28.17 44.92 28.37 44.71C28.58 44.51 28.69 44.23 28.69 43.94L28.69 40.04C29.83 39.71 30.92 39.25 31.96 38.68L34.72 41.44C34.92 41.65 35.2 41.76 35.49 41.76C35.78 41.76 36.06 41.65 36.26 41.44ZM32.91 36.54C32.74 36.37 32.51 36.26 32.27 36.23C32.02 36.2 31.78 36.26 31.57 36.38C30.26 37.19 28.83 37.78 27.34 38.13C27.1 38.19 26.89 38.33 26.74 38.52C26.59 38.71 26.5 38.95 26.5 39.2L26.5 42.84L21.37 42.84L21.37 39.21C21.37 38.96 21.29 38.72 21.13 38.53C20.98 38.34 20.77 38.2 20.53 38.14C19.04 37.79 17.61 37.19 16.31 36.39C16.1 36.26 15.85 36.2 15.61 36.23C15.36 36.26 15.13 36.37 14.96 36.55L12.38 39.12L8.75 35.49L11.33 32.91C11.5 32.74 11.61 32.51 11.64 32.27C11.67 32.02 11.62 31.78 11.49 31.57C10.68 30.26 10.09 28.84 9.73 27.34C9.67 27.1 9.54 26.89 9.35 26.74C9.15 26.59 8.91 26.5 8.67 26.5L5.03 26.5L5.03 21.37L8.67 21.37C8.92 21.37 9.16 21.29 9.35 21.13C9.54 20.98 9.68 20.77 9.74 20.53C10.09 19.04 10.68 17.61 11.49 16.31C11.61 16.1 11.67 15.85 11.64 15.61C11.61 15.36 11.5 15.13 11.33 14.96L8.75 12.38L12.38 8.75L14.96 11.33C15.13 11.51 15.36 11.62 15.61 11.64C15.85 11.67 16.1 11.62 16.31 11.49C17.61 10.69 19.04 10.1 20.53 9.74C20.77 9.68 20.98 9.55 21.13 9.35C21.29 9.16 21.37 8.92 21.37 8.68L21.37 5.03L26.5 5.03L26.5 8.67C26.5 8.91 26.59 9.15 26.74 9.34C26.89 9.54 27.1 9.67 27.34 9.73C28.84 10.09 30.26 10.68 31.57 11.49C31.78 11.61 32.02 11.67 32.27 11.64C32.51 11.61 32.74 11.5 32.92 11.33L35.49 8.75L39.12 12.38L36.55 14.96C36.37 15.13 36.26 15.36 36.23 15.6C36.2 15.85 36.26 16.1 36.39 16.31C37.19 17.61 37.79 19.04 38.14 20.53C38.2 20.77 38.34 20.98 38.53 21.13C38.72 21.29 38.96 21.37 39.21 21.37L42.84 21.37L42.84 26.5L39.2 26.5C38.95 26.5 38.71 26.59 38.52 26.74C38.33 26.89 38.19 27.1 38.14 27.34C37.78 28.84 37.19 30.26 36.39 31.57C36.26 31.78 36.2 32.02 36.23 32.27C36.26 32.51 36.37 32.74 36.54 32.91L39.12 35.49L35.49 39.12L32.91 36.54Z" fill="#0E142A" fill-opacity="1.000000" fill-rule="nonzero"/>
		<path id="Vector" d="M23.94 14.47C22.06 14.47 20.23 15.02 18.68 16.06C17.12 17.1 15.91 18.58 15.19 20.31C14.47 22.04 14.29 23.95 14.65 25.78C15.02 27.62 15.92 29.31 17.24 30.63C18.57 31.96 20.25 32.86 22.09 33.22C23.93 33.59 25.83 33.4 27.56 32.68C29.29 31.97 30.77 30.75 31.81 29.2C32.85 27.64 33.41 25.81 33.41 23.94C33.4 21.43 32.4 19.02 30.63 17.25C28.85 15.47 26.45 14.47 23.94 14.47ZM23.94 31.22C22.5 31.22 21.09 30.79 19.89 29.99C18.69 29.19 17.76 28.05 17.21 26.72C16.66 25.39 16.52 23.93 16.8 22.52C17.08 21.11 17.77 19.81 18.79 18.79C19.81 17.77 21.1 17.08 22.52 16.8C23.93 16.52 25.39 16.66 26.72 17.21C28.05 17.76 29.19 18.7 29.99 19.89C30.79 21.09 31.22 22.5 31.22 23.94C31.22 25.87 30.45 27.72 29.08 29.08C27.72 30.45 25.87 31.22 23.94 31.22L23.94 31.22Z" fill="#0E142A" fill-opacity="1.000000" fill-rule="nonzero"/>
		<path id="Vector" d="M76.05 51.3L72.16 51.3C71.83 50.16 71.37 49.07 70.8 48.03L73.56 45.27C73.66 45.17 73.74 45.05 73.79 44.92C73.85 44.78 73.88 44.64 73.88 44.5C73.88 44.36 73.85 44.21 73.79 44.08C73.74 43.95 73.66 43.83 73.56 43.73L68.38 38.55C68.28 38.45 68.16 38.37 68.03 38.31C67.89 38.26 67.75 38.23 67.61 38.23C67.46 38.23 67.32 38.26 67.19 38.31C67.06 38.37 66.94 38.45 66.83 38.55L64.08 41.3C63.04 40.73 61.94 40.28 60.81 39.94L60.81 36.05C60.81 35.76 60.69 35.48 60.49 35.28C60.28 35.07 60 34.96 59.71 34.96L52.39 34.96C52.1 34.96 51.82 35.07 51.62 35.28C51.41 35.48 51.3 35.76 51.3 36.05L51.3 39.95C50.16 40.28 49.07 40.74 48.03 41.31L45.27 38.55C45.17 38.45 45.05 38.37 44.92 38.31C44.79 38.26 44.64 38.23 44.5 38.23C44.36 38.23 44.21 38.26 44.08 38.31C43.95 38.37 43.83 38.45 43.73 38.55L38.55 43.73C38.34 43.93 38.23 44.21 38.23 44.5C38.23 44.79 38.34 45.07 38.55 45.27L41.31 48.03C40.74 49.07 40.29 50.16 39.95 51.3L36.05 51.3C35.76 51.3 35.48 51.41 35.28 51.62C35.07 51.82 34.96 52.1 34.96 52.39L34.96 59.71C34.96 60 35.07 60.28 35.28 60.49C35.48 60.69 35.76 60.81 36.05 60.81L39.94 60.81C40.28 61.94 40.73 63.04 41.3 64.08L38.55 66.83C38.34 67.04 38.23 67.32 38.23 67.61C38.23 67.9 38.34 68.18 38.55 68.38L43.73 73.56C43.83 73.66 43.95 73.74 44.08 73.79C44.21 73.85 44.36 73.88 44.5 73.88C44.64 73.88 44.79 73.85 44.92 73.79C45.05 73.74 45.17 73.66 45.27 73.56L48.03 70.81C49.07 71.38 50.16 71.83 51.3 72.17L51.3 76.06C51.3 76.2 51.33 76.34 51.38 76.48C51.44 76.61 51.52 76.73 51.62 76.83C51.72 76.93 51.84 77.01 51.97 77.07C52.11 77.12 52.25 77.15 52.39 77.15L59.71 77.15C59.86 77.15 60 77.12 60.13 77.07C60.26 77.01 60.39 76.93 60.49 76.83C60.59 76.73 60.67 76.61 60.72 76.48C60.78 76.34 60.81 76.2 60.81 76.06L60.81 72.16C61.94 71.83 63.04 71.37 64.08 70.8L66.83 73.56C66.94 73.66 67.06 73.74 67.19 73.8C67.32 73.85 67.46 73.88 67.61 73.88C67.75 73.88 67.89 73.85 68.03 73.8C68.16 73.74 68.28 73.66 68.38 73.56L73.56 68.39C73.66 68.28 73.74 68.16 73.79 68.03C73.85 67.9 73.88 67.76 73.88 67.61C73.88 67.47 73.85 67.33 73.79 67.19C73.74 67.06 73.66 66.94 73.56 66.84L70.8 64.08C71.37 63.04 71.82 61.95 72.16 60.81L76.05 60.81C76.2 60.81 76.34 60.78 76.47 60.73C76.6 60.67 76.73 60.59 76.83 60.49C76.93 60.39 77.01 60.27 77.06 60.14C77.12 60 77.15 59.86 77.15 59.72L77.15 52.39C77.15 52.25 77.12 52.11 77.06 51.97C77.01 51.84 76.93 51.72 76.83 51.62C76.73 51.52 76.6 51.44 76.47 51.38C76.34 51.33 76.2 51.3 76.05 51.3ZM74.96 58.62L71.32 58.62C71.07 58.62 70.83 58.7 70.64 58.86C70.45 59.01 70.31 59.22 70.25 59.46C69.9 60.95 69.31 62.38 68.5 63.68C68.38 63.89 68.32 64.14 68.35 64.38C68.38 64.63 68.49 64.86 68.66 65.03L71.24 67.61L67.61 71.24L65.03 68.66C64.86 68.49 64.63 68.38 64.39 68.35C64.14 68.32 63.9 68.37 63.69 68.5C62.38 69.3 60.95 69.89 59.46 70.25C59.22 70.31 59.01 70.44 58.86 70.64C58.71 70.83 58.62 71.07 58.62 71.31L58.62 74.96L53.49 74.96L53.49 71.32C53.49 71.07 53.4 70.83 53.25 70.64C53.1 70.45 52.89 70.31 52.65 70.26C51.15 69.9 49.73 69.31 48.42 68.5C48.21 68.37 47.97 68.32 47.72 68.35C47.48 68.37 47.25 68.49 47.07 68.66L44.5 71.23L40.87 67.61L43.45 65.03C43.62 64.86 43.73 64.63 43.76 64.39C43.79 64.14 43.73 63.89 43.6 63.68C42.8 62.38 42.2 60.95 41.85 59.46C41.79 59.22 41.66 59.01 41.46 58.86C41.27 58.7 41.03 58.62 40.79 58.62L37.15 58.62L37.15 53.49L40.79 53.49C41.04 53.49 41.27 53.4 41.47 53.25C41.66 53.1 41.8 52.89 41.85 52.65C42.21 51.15 42.8 49.73 43.6 48.42C43.73 48.21 43.79 47.97 43.76 47.72C43.73 47.48 43.62 47.25 43.44 47.08L40.87 44.5L44.5 40.87L47.08 43.45C47.25 43.62 47.48 43.73 47.72 43.76C47.97 43.79 48.21 43.74 48.42 43.61C49.73 42.8 51.16 42.21 52.65 41.86C52.89 41.8 53.1 41.66 53.25 41.47C53.4 41.28 53.49 41.04 53.49 40.79L53.49 37.15L58.62 37.15L58.62 40.79C58.62 41.03 58.7 41.27 58.86 41.46C59.01 41.66 59.22 41.79 59.46 41.85C60.95 42.21 62.38 42.8 63.68 43.61C63.89 43.73 64.14 43.79 64.39 43.76C64.63 43.73 64.86 43.62 65.03 43.45L67.61 40.87L71.24 44.5L68.66 47.08C68.49 47.25 68.38 47.48 68.35 47.72C68.32 47.97 68.37 48.21 68.5 48.42C69.31 49.73 69.9 51.15 70.26 52.65C70.31 52.89 70.45 53.1 70.64 53.25C70.84 53.4 71.07 53.49 71.32 53.49L74.96 53.49L74.96 58.62Z" fill="#0E142A" fill-opacity="1.000000" fill-rule="nonzero"/>
		<path id="Vector" d="M56.05 46.59C54.18 46.59 52.35 47.14 50.79 48.18C49.24 49.22 48.02 50.7 47.31 52.43C46.59 54.16 46.4 56.06 46.77 57.9C47.13 59.74 48.03 61.42 49.36 62.75C50.68 64.07 52.37 64.97 54.21 65.34C56.04 65.7 57.95 65.52 59.68 64.8C61.41 64.08 62.89 62.87 63.93 61.31C64.97 59.76 65.52 57.93 65.52 56.05C65.52 53.54 64.52 51.14 62.74 49.36C60.97 47.59 58.56 46.59 56.05 46.59ZM56.05 63.34C54.61 63.34 53.21 62.91 52.01 62.11C50.81 61.31 49.88 60.17 49.33 58.84C48.78 57.51 48.63 56.05 48.91 54.63C49.19 53.22 49.89 51.92 50.9 50.91C51.92 49.89 53.22 49.19 54.63 48.91C56.05 48.63 57.51 48.78 58.84 49.33C60.17 49.88 61.31 50.81 62.11 52.01C62.91 53.21 63.33 54.61 63.33 56.05C63.33 57.98 62.56 59.83 61.2 61.2C59.83 62.56 57.98 63.33 56.05 63.33L56.05 63.34Z" fill="#0E142A" fill-opacity="1.000000" fill-rule="nonzero"/>
		<path id="Vector" d="M47.94 13.03C54.29 14.9 59.78 18.96 63.43 24.49C62.56 25.28 62 26.37 61.88 27.54C61.75 28.72 62.06 29.89 62.75 30.86C63.43 31.82 64.45 32.49 65.6 32.75C66.75 33.01 67.96 32.84 68.99 32.27C70.03 31.69 70.81 30.76 71.2 29.65C71.59 28.53 71.56 27.31 71.11 26.22C70.66 25.13 69.83 24.24 68.76 23.73C67.7 23.21 66.49 23.1 65.35 23.43C61.42 17.4 55.46 12.97 48.56 10.93C48.42 10.89 48.27 10.87 48.13 10.89C47.98 10.9 47.84 10.94 47.71 11.01C47.59 11.08 47.47 11.17 47.38 11.28C47.29 11.4 47.22 11.53 47.18 11.67C47.14 11.81 47.13 11.95 47.14 12.1C47.16 12.24 47.2 12.38 47.27 12.51C47.34 12.64 47.44 12.75 47.55 12.84C47.67 12.93 47.8 12.99 47.94 13.03ZM69.25 28.04C69.25 28.56 69.09 29.06 68.81 29.49C68.52 29.92 68.11 30.25 67.64 30.45C67.16 30.65 66.63 30.7 66.13 30.6C65.62 30.5 65.16 30.25 64.79 29.89C64.43 29.52 64.18 29.06 64.08 28.55C63.98 28.04 64.03 27.52 64.23 27.04C64.43 26.57 64.76 26.16 65.19 25.87C65.62 25.59 66.12 25.43 66.64 25.43C67.33 25.43 67.99 25.71 68.48 26.2C68.97 26.69 69.24 27.35 69.25 28.04Z" fill="#0E142A" fill-opacity="1.000000" fill-rule="nonzero"/>
		<path id="Vector" d="M32.05 66.96C25.7 65.09 20.21 61.03 16.56 55.5C17.44 54.71 17.99 53.62 18.12 52.45C18.24 51.27 17.93 50.1 17.25 49.13C16.56 48.17 15.54 47.5 14.39 47.24C13.24 46.98 12.03 47.15 11 47.72C9.97 48.3 9.18 49.23 8.79 50.34C8.4 51.46 8.43 52.68 8.88 53.77C9.33 54.86 10.17 55.75 11.23 56.26C12.29 56.78 13.51 56.89 14.64 56.56C18.57 62.59 24.53 67.02 31.43 69.06C31.53 69.09 31.64 69.1 31.74 69.1C32 69.1 32.26 69.01 32.46 68.83C32.66 68.66 32.78 68.42 32.82 68.16C32.86 67.9 32.8 67.64 32.66 67.42C32.52 67.2 32.3 67.03 32.05 66.96L32.05 66.96ZM10.75 51.95C10.75 51.43 10.9 50.93 11.19 50.5C11.47 50.07 11.88 49.74 12.36 49.54C12.83 49.34 13.36 49.29 13.86 49.39C14.37 49.49 14.83 49.74 15.2 50.11C15.56 50.47 15.81 50.94 15.91 51.44C16.01 51.95 15.96 52.47 15.76 52.95C15.56 53.42 15.23 53.83 14.8 54.12C14.37 54.4 13.87 54.56 13.35 54.56C12.66 54.56 12 54.28 11.51 53.79C11.02 53.3 10.75 52.64 10.75 51.95Z" fill="#0E142A" fill-opacity="1.000000" fill-rule="nonzero"/>
	</g>
</svg>
