<svg width="80.000000" height="80.000000" viewBox="0 0 80 80" fill="none" xmlns="http://www.w3.org/2000/svg" xmlns:xlink="http://www.w3.org/1999/xlink">
	
	<defs>
		<clipPath id="clip97_716">
			<rect id="fi_1662545" rx="0.000000" width="79.000000" height="79.000000" transform="translate(0.500000 0.500000)" fill="white" fill-opacity="0"/>
		</clipPath>
	</defs>
	<rect id="fi_1662545" rx="0.000000" width="79.000000" height="79.000000" transform="translate(0.500000 0.500000)" fill="#FFFFFF" fill-opacity="0"/>
	<g clip-path="url(#clip97_716)">
		<path id="Vector" d="M48.9 36.77C48.9 34.39 46.96 32.46 44.58 32.46L43.75 32.46L43.75 28.94L41.4 28.94L41.4 32.46L39.06 32.46L39.06 28.94L36.71 28.94L36.71 32.46L33.12 32.46L33.12 47.38L36.71 47.38L36.71 50.89L39.06 50.89L39.06 47.38L41.4 47.38L41.4 50.89L43.75 50.89L43.75 47.38L44.58 47.38C46.96 47.38 48.9 45.44 48.9 43.06C48.9 41.82 48.38 40.7 47.54 39.92C48.38 39.13 48.9 38.01 48.9 36.77ZM44.58 45.03L35.46 45.03L35.46 41.09L44.58 41.09C45.67 41.09 46.56 41.97 46.56 43.06C46.56 44.15 45.67 45.03 44.58 45.03ZM44.58 38.75L35.46 38.75L35.46 34.8L44.58 34.8C45.67 34.8 46.56 35.68 46.56 36.77C46.56 37.86 45.67 38.75 44.58 38.75Z" fill="#0E142A" fill-opacity="1.000000" fill-rule="nonzero"/>
		<path id="Vector" d="M24.68 39.92C24.68 31.52 31.52 24.68 39.92 24.68C43.85 24.68 47.58 26.18 50.43 28.89L52.05 27.19C48.76 24.06 44.46 22.34 39.92 22.34C30.22 22.34 22.34 30.22 22.34 39.92C22.34 41.89 22.66 43.82 23.3 45.67L25.52 44.9C24.96 43.3 24.68 41.63 24.68 39.92Z" fill="#0E142A" fill-opacity="1.000000" fill-rule="nonzero"/>
		<path id="Vector" d="M51.89 30.5C54.02 33.21 55.15 36.46 55.15 39.92C55.15 48.32 48.32 55.15 39.92 55.15C34.19 55.15 29 51.99 26.37 46.9L24.29 47.97C27.32 53.85 33.31 57.5 39.92 57.5C49.61 57.5 57.5 49.61 57.5 39.92C57.5 35.93 56.19 32.17 53.73 29.05L51.89 30.5Z" fill="#0E142A" fill-opacity="1.000000" fill-rule="nonzero"/>
		<path id="Vector" d="M74.14 27.34C77.37 27.34 80 24.71 80 21.48C80 18.25 77.37 15.62 74.14 15.62C70.9 15.62 68.28 18.25 68.28 21.48C68.28 24.71 70.9 27.34 74.14 27.34ZM74.14 17.96C76.07 17.96 77.65 19.54 77.65 21.48C77.65 23.42 76.07 25 74.14 25C72.2 25 70.62 23.42 70.62 21.48C70.62 19.54 72.2 17.96 74.14 17.96Z" fill="#0E142A" fill-opacity="1.000000" fill-rule="nonzero"/>
		<path id="Vector" d="M40 11.71C43.23 11.71 45.85 9.09 45.85 5.85C45.85 2.62 43.23 0 40 0C36.76 0 34.14 2.62 34.14 5.85C34.14 9.09 36.76 11.71 40 11.71ZM40 2.34C41.93 2.34 43.51 3.92 43.51 5.85C43.51 7.79 41.93 9.37 40 9.37C38.06 9.37 36.48 7.79 36.48 5.85C36.48 3.92 38.06 2.34 40 2.34Z" fill="#0E142A" fill-opacity="1.000000" fill-rule="nonzero"/>
		<path id="Vector" d="M5.85 15.62C2.62 15.62 0 18.25 0 21.48C0 24.71 2.62 27.34 5.85 27.34C9.09 27.34 11.71 24.71 11.71 21.48C11.71 18.25 9.09 15.62 5.85 15.62ZM5.85 25C3.92 25 2.34 23.42 2.34 21.48C2.34 19.54 3.92 17.96 5.85 17.96C7.79 17.96 9.37 19.54 9.37 21.48C9.37 23.42 7.79 25 5.85 25Z" fill="#0E142A" fill-opacity="1.000000" fill-rule="nonzero"/>
		<path id="Vector" d="M74.14 52.65C70.9 52.65 68.28 55.28 68.28 58.51C68.28 61.74 70.9 64.37 74.14 64.37C77.37 64.37 80 61.74 80 58.51C80 55.28 77.37 52.65 74.14 52.65ZM74.14 62.03C72.2 62.03 70.62 60.45 70.62 58.51C70.62 56.57 72.2 55 74.14 55C76.07 55 77.65 56.57 77.65 58.51C77.65 60.45 76.07 62.03 74.14 62.03Z" fill="#0E142A" fill-opacity="1.000000" fill-rule="nonzero"/>
		<path id="Vector" d="M40 68.28C36.76 68.28 34.14 70.9 34.14 74.14C34.14 77.37 36.76 80 40 80C43.23 80 45.85 77.37 45.85 74.14C45.85 70.9 43.23 68.28 40 68.28ZM40 77.65C38.06 77.65 36.48 76.07 36.48 74.14C36.48 72.2 38.06 70.62 40 70.62C41.93 70.62 43.51 72.2 43.51 74.14C43.51 76.07 41.93 77.65 40 77.65Z" fill="#0E142A" fill-opacity="1.000000" fill-rule="nonzero"/>
		<path id="Vector" d="M5.85 52.65C2.62 52.65 0 55.28 0 58.51C0 61.74 2.62 64.37 5.85 64.37C9.09 64.37 11.71 61.74 11.71 58.51C11.71 55.28 9.09 52.65 5.85 52.65ZM5.85 62.03C3.92 62.03 2.34 60.45 2.34 58.51C2.34 56.57 3.92 55 5.85 55C7.79 55 9.37 56.57 9.37 58.51C9.37 60.45 7.79 62.03 5.85 62.03Z" fill="#0E142A" fill-opacity="1.000000" fill-rule="nonzero"/>
		<path id="Vector" d="M4.68 41.32L7.03 41.32L7.03 43.67L4.68 43.67L4.68 41.32Z" fill="#0E142A" fill-opacity="1.000000" fill-rule="nonzero"/>
		<path id="Vector" d="M4.68 30.85L7.03 30.85L7.03 32.73L4.68 32.73L4.68 30.85Z" fill="#0E142A" fill-opacity="1.000000" fill-rule="nonzero"/>
		<path id="Vector" d="M4.68 46.79L7.03 46.79L7.03 49.14L4.68 49.14L4.68 46.79Z" fill="#0E142A" fill-opacity="1.000000" fill-rule="nonzero"/>
		<path id="Vector" d="M4.68 35.85L7.03 35.85L7.03 38.2L4.68 38.2L4.68 35.85Z" fill="#0E142A" fill-opacity="1.000000" fill-rule="nonzero"/>
		<path id="Vector" d="M53.05 13.12L54.02 10.99L56.15 11.96L55.18 14.09L53.05 13.12Z" fill="#0E142A" fill-opacity="1.000000" fill-rule="nonzero"/>
		<path id="Vector" d="M62.99 17.67L63.97 15.54L66.1 16.51L65.12 18.65L62.99 17.67Z" fill="#0E142A" fill-opacity="1.000000" fill-rule="nonzero"/>
		<path id="Vector" d="M58.02 15.39L59 13.26L61.13 14.24L60.15 16.37L58.02 15.39Z" fill="#0E142A" fill-opacity="1.000000" fill-rule="nonzero"/>
		<path id="Vector" d="M48.08 10.84L49.05 8.71L51.18 9.69L50.21 11.82L48.08 10.84Z" fill="#0E142A" fill-opacity="1.000000" fill-rule="nonzero"/>
		<path id="Vector" d="M53.05 66.87L55.18 65.9L56.16 68.03L54.03 69L53.05 66.87Z" fill="#0E142A" fill-opacity="1.000000" fill-rule="nonzero"/>
		<path id="Vector" d="M58.02 64.6L60.15 63.62L61.13 65.75L59 66.73L58.02 64.6Z" fill="#0E142A" fill-opacity="1.000000" fill-rule="nonzero"/>
		<path id="Vector" d="M48.08 69.15L50.21 68.17L51.18 70.3L49.05 71.28L48.08 69.15Z" fill="#0E142A" fill-opacity="1.000000" fill-rule="nonzero"/>
		<path id="Vector" d="M63 62.32L65.13 61.35L66.1 63.48L63.97 64.45L63 62.32Z" fill="#0E142A" fill-opacity="1.000000" fill-rule="nonzero"/>
		<path id="Vector" d="M23.88 68.05L24.86 65.92L26.99 66.89L26.01 69.02L23.88 68.05Z" fill="#0E142A" fill-opacity="1.000000" fill-rule="nonzero"/>
		<path id="Vector" d="M28.85 70.33L29.83 68.2L31.96 69.17L30.99 71.3L28.85 70.33Z" fill="#0E142A" fill-opacity="1.000000" fill-rule="nonzero"/>
		<path id="Vector" d="M13.94 63.5L14.91 61.37L17.04 62.35L16.07 64.48L13.94 63.5Z" fill="#0E142A" fill-opacity="1.000000" fill-rule="nonzero"/>
		<path id="Vector" d="M18.91 65.78L19.88 63.65L22.02 64.62L21.04 66.75L18.91 65.78Z" fill="#0E142A" fill-opacity="1.000000" fill-rule="nonzero"/>
		<path id="Vector" d="M72.96 46.79L75.31 46.79L75.31 49.14L72.96 49.14L72.96 46.79Z" fill="#0E142A" fill-opacity="1.000000" fill-rule="nonzero"/>
		<path id="Vector" d="M72.96 35.85L75.31 35.85L75.31 38.2L72.96 38.2L72.96 35.85Z" fill="#0E142A" fill-opacity="1.000000" fill-rule="nonzero"/>
		<path id="Vector" d="M72.96 30.85L75.31 30.85L75.31 32.73L72.96 32.73L72.96 30.85Z" fill="#0E142A" fill-opacity="1.000000" fill-rule="nonzero"/>
		<path id="Vector" d="M72.96 41.32L75.31 41.32L75.31 43.67L72.96 43.67L72.96 41.32Z" fill="#0E142A" fill-opacity="1.000000" fill-rule="nonzero"/>
		<path id="Vector" d="M23.88 11.94L26.01 10.96L26.99 13.1L24.85 14.07L23.88 11.94Z" fill="#0E142A" fill-opacity="1.000000" fill-rule="nonzero"/>
		<path id="Vector" d="M18.91 14.22L21.04 13.24L22.01 15.37L19.88 16.35L18.91 14.22Z" fill="#0E142A" fill-opacity="1.000000" fill-rule="nonzero"/>
		<path id="Vector" d="M28.85 9.66L30.98 8.69L31.96 10.82L29.83 11.8L28.85 9.66Z" fill="#0E142A" fill-opacity="1.000000" fill-rule="nonzero"/>
		<path id="Vector" d="M13.93 16.49L16.07 15.52L17.04 17.65L14.91 18.62L13.93 16.49Z" fill="#0E142A" fill-opacity="1.000000" fill-rule="nonzero"/>
		<path id="Vector" d="M64.02 54.06L65.14 52L67.2 53.11L66.09 55.18L64.02 54.06Z" fill="#0E142A" fill-opacity="1.000000" fill-rule="nonzero"/>
		<path id="Vector" d="M59.9 51.84L61.01 49.78L63.07 50.89L61.96 52.95L59.9 51.84Z" fill="#0E142A" fill-opacity="1.000000" fill-rule="nonzero"/>
		<path id="Vector" d="M12.97 26.56L14.08 24.49L16.14 25.61L15.03 27.67L12.97 26.56Z" fill="#0E142A" fill-opacity="1.000000" fill-rule="nonzero"/>
		<path id="Vector" d="M17.09 28.78L18.21 26.72L20.27 27.83L19.16 29.89L17.09 28.78Z" fill="#0E142A" fill-opacity="1.000000" fill-rule="nonzero"/>
		<path id="Vector" d="M17.09 50.89L19.15 49.78L20.27 51.84L18.2 52.95L17.09 50.89Z" fill="#0E142A" fill-opacity="1.000000" fill-rule="nonzero"/>
		<path id="Vector" d="M12.96 53.11L15.03 52L16.14 54.06L14.08 55.18L12.96 53.11Z" fill="#0E142A" fill-opacity="1.000000" fill-rule="nonzero"/>
		<path id="Vector" d="M64.03 25.6L66.09 24.49L67.2 26.56L65.14 27.67L64.03 25.6Z" fill="#0E142A" fill-opacity="1.000000" fill-rule="nonzero"/>
		<path id="Vector" d="M59.9 27.83L61.96 26.72L63.08 28.78L61.01 29.89L59.9 27.83Z" fill="#0E142A" fill-opacity="1.000000" fill-rule="nonzero"/>
		<path id="Vector" d="M38.82 59.37L41.17 59.37L41.17 61.71L38.82 61.71L38.82 59.37Z" fill="#0E142A" fill-opacity="1.000000" fill-rule="nonzero"/>
		<path id="Vector" d="M38.82 64.06L41.17 64.06L41.17 66.4L38.82 66.4L38.82 64.06Z" fill="#0E142A" fill-opacity="1.000000" fill-rule="nonzero"/>
		<path id="Vector" d="M38.82 18.35L41.17 18.35L41.17 20.7L38.82 20.7L38.82 18.35Z" fill="#0E142A" fill-opacity="1.000000" fill-rule="nonzero"/>
		<path id="Vector" d="M38.82 13.67L41.17 13.67L41.17 16.01L38.82 16.01L38.82 13.67Z" fill="#0E142A" fill-opacity="1.000000" fill-rule="nonzero"/>
	</g>
</svg>
