<svg width="52.760414" height="51.481812" viewBox="0 0 52.7604 51.4818" fill="none" xmlns="http://www.w3.org/2000/svg" xmlns:xlink="http://www.w3.org/1999/xlink">
	
	<defs/>
	<path id="Subtract" d="M52.7604 36.7815L29.4685 36.7815C28.2483 36.9045 27.2721 37.7656 27.2721 38.9957L27.2721 49.6981C27.2721 50.1901 27.1501 50.5591 26.784 50.9282C26.0519 51.6663 24.9537 51.6663 24.2216 50.9282L0.549105 27.0633C-0.183035 26.3252 -0.183035 25.2181 0.549105 24.48L24.2216 0.492065C24.4656 0.246033 24.9537 0 25.4418 0C26.418 0 27.2721 0.861084 27.2721 1.84521L27.2721 12.5475C27.3941 13.7777 28.2483 14.7618 29.4685 14.7618L52.7604 14.7618L52.7604 36.7815Z" clip-rule="evenodd" fill="#0E142A" fill-opacity="1.000000" fill-rule="evenodd"/>
</svg>
