<svg width="52.760498" height="51.481812" viewBox="0 0 52.7605 51.4818" fill="none" xmlns="http://www.w3.org/2000/svg" xmlns:xlink="http://www.w3.org/1999/xlink">
	
	<defs/>
	<path id="Subtract" d="M0 36.7815L23.2919 36.7815C24.5121 36.9045 25.4883 37.7656 25.4883 38.9957L25.4883 49.6981C25.4883 50.1901 25.6104 50.5591 25.9763 50.9282C26.7085 51.6663 27.8068 51.6663 28.5388 50.9282L52.2113 27.0633C52.9435 26.3252 52.9435 25.2181 52.2113 24.48L28.5388 0.492065C28.2948 0.246033 27.8068 0 27.3186 0C26.3424 0 25.4883 0.861084 25.4883 1.84521L25.4883 12.5475C25.3662 13.7777 24.5121 14.7618 23.2919 14.7618L0 14.7618L0 36.7815Z" clip-rule="evenodd" fill="#0E142A" fill-opacity="1.000000" fill-rule="evenodd"/>
</svg>
