<svg width="22.000000" height="22.000000" viewBox="0 0 22 22" fill="none" xmlns="http://www.w3.org/2000/svg" xmlns:xlink="http://www.w3.org/1999/xlink">
	
	<defs>
		<clipPath id="clip134_9">
			<rect id="fi_565295" rx="0.000000" width="21.000000" height="21.000000" transform="translate(0.500000 0.500000)" fill="white" fill-opacity="0"/>
		</clipPath>
	</defs>
	<rect id="fi_565295" rx="0.000000" width="21.000000" height="21.000000" transform="translate(0.500000 0.500000)" fill="#FFFFFF" fill-opacity="0"/>
	<g clip-path="url(#clip134_9)">
		<path id="Vector" d="M16.5 11C16.5 8.84 15.25 6.97 13.44 6.08L13.44 8.78L16.44 11.78C16.48 11.52 16.5 11.26 16.5 11Z" fill="#000000" fill-opacity="1.000000" fill-rule="nonzero"/>
		<path id="Vector" d="M19.55 10.99C19.55 12.14 19.3 13.23 18.89 14.22L20.74 16.07C21.54 14.55 22 12.83 22 10.99C22 5.76 18.33 1.39 13.44 0.28L13.44 2.8C16.97 3.85 19.55 7.12 19.55 10.99Z" fill="#000000" fill-opacity="1.000000" fill-rule="nonzero"/>
		<path id="Vector" d="M11 1.22L8.44 3.77L11 6.33L11 1.22Z" fill="#000000" fill-opacity="1.000000" fill-rule="nonzero"/>
		<path id="Vector" d="M1.55 0L0 1.55L5.77 7.33L0 7.33L0 14.66L4.88 14.66L11 20.77L11 12.55L16.2 17.75C15.38 18.38 14.45 18.89 13.44 19.2L13.44 21.72C15.12 21.34 16.65 20.57 17.94 19.51L20.44 22L22 20.44L11 9.44L1.55 0Z" fill="#000000" fill-opacity="1.000000" fill-rule="nonzero"/>
	</g>
</svg>
