<svg width="20.000000" height="20.000000" viewBox="0 0 20 20" fill="none" xmlns="http://www.w3.org/2000/svg" xmlns:xlink="http://www.w3.org/1999/xlink">
	
	<defs>
		<clipPath id="clip96_668">
			<rect id="fi_545647" rx="0.000000" width="19.000000" height="19.000000" transform="translate(0.500000 0.500000)" fill="white" fill-opacity="0"/>
		</clipPath>
	</defs>
	<rect id="fi_545647" rx="0.000000" width="19.000000" height="19.000000" transform="translate(0.500000 0.500000)" fill="#FFFFFF" fill-opacity="0"/>
	<g clip-path="url(#clip96_668)">
		<path id="Vector" d="M19.21 9.21L10.78 9.21L10.78 0.78C10.78 0.34 10.43 0 10 0C9.56 0 9.21 0.34 9.21 0.78L9.21 9.21L0.78 9.21C0.34 9.21 0 9.56 0 10C0 10.43 0.34 10.78 0.78 10.78L9.21 10.78L9.21 19.21C9.21 19.65 9.56 20 10 20C10.43 20 10.78 19.65 10.78 19.21L10.78 10.78L19.21 10.78C19.65 10.78 20 10.43 20 10C20 9.56 19.65 9.21 19.21 9.21Z" fill="#FF6F3C" fill-opacity="1.000000" fill-rule="nonzero"/>
	</g>
</svg>
