<svg width="64.000000" height="64.000000" viewBox="0 0 64 64" fill="none" xmlns="http://www.w3.org/2000/svg" xmlns:xlink="http://www.w3.org/1999/xlink">
	
	<defs>
		<clipPath id="clip97_770">
			<rect id="fi_4666071" rx="0.000000" width="63.000000" height="63.000000" transform="translate(0.500000 0.500000)" fill="white" fill-opacity="0"/>
		</clipPath>
	</defs>
	<rect id="fi_4666071" rx="0.000000" width="63.000000" height="63.000000" transform="translate(0.500000 0.500000)" fill="#FFFFFF" fill-opacity="0"/>
	<g clip-path="url(#clip97_770)">
		<path id="Vector" d="M61.18 17.12L43.12 17.12L43.12 0L0 0L0 4.68L1.87 4.68L1.87 1.87L41.25 1.87L41.25 17.12L33.06 17.12C31.51 17.12 30.25 18.38 30.25 19.93L30.25 53.68L1.87 53.68L1.87 6.56L0 6.56L0 55.56L30.25 55.56L30.25 61.18C30.25 62.73 31.51 64 33.06 64L52.75 64L52.75 62.12L33.06 62.12C32.54 62.12 32.12 61.7 32.12 61.18L32.12 19.93C32.12 19.42 32.54 19 33.06 19L61.18 19C61.7 19 62.12 19.42 62.12 19.93L62.12 61.18C62.12 61.7 61.7 62.12 61.18 62.12L58.37 62.12L58.37 64L61.18 64C62.73 64 64 62.73 64 61.18L64 19.93C64 18.38 62.73 17.12 61.18 17.12Z" fill="#FF7A00" fill-opacity="1.000000" fill-rule="nonzero"/>
		<path id="Vector" d="M54.62 62.12L56.5 62.12L56.5 64L54.62 64L54.62 62.12Z" fill="#FF7A00" fill-opacity="1.000000" fill-rule="nonzero"/>
		<path id="Vector" d="M41.5 42.43L34 42.43L34 49.93L41.5 49.93L41.5 42.43ZM39.62 48.06L35.87 48.06L35.87 44.31L39.62 44.31L39.62 48.06Z" fill="#FF7A00" fill-opacity="1.000000" fill-rule="nonzero"/>
		<path id="Vector" d="M60.24 21.81L34 21.81L34 31.18L60.24 31.18L60.24 21.81ZM58.37 29.31L35.87 29.31L35.87 23.68L58.37 23.68L58.37 29.31Z" fill="#FF7A00" fill-opacity="1.000000" fill-rule="nonzero"/>
		<path id="Vector" d="M43.37 59.31L50.87 59.31L50.87 51.81L43.37 51.81L43.37 59.31ZM45.25 53.68L49 53.68L49 57.43L45.25 57.43L45.25 53.68Z" fill="#FF7A00" fill-opacity="1.000000" fill-rule="nonzero"/>
		<path id="Vector" d="M60.25 51.81L52.75 51.81L52.75 59.31L60.25 59.31L60.25 51.81ZM58.37 57.43L54.62 57.43L54.62 53.68L58.37 53.68L58.37 57.43Z" fill="#FF7A00" fill-opacity="1.000000" fill-rule="nonzero"/>
		<path id="Vector" d="M50.87 33.06L43.37 33.06L43.37 40.56L50.87 40.56L50.87 33.06ZM49 38.68L45.25 38.68L45.25 34.93L49 34.93L49 38.68Z" fill="#FF7A00" fill-opacity="1.000000" fill-rule="nonzero"/>
		<path id="Vector" d="M50.87 42.43L43.37 42.43L43.37 49.93L50.87 49.93L50.87 42.43ZM49 48.06L45.25 48.06L45.25 44.31L49 44.31L49 48.06Z" fill="#FF7A00" fill-opacity="1.000000" fill-rule="nonzero"/>
		<path id="Vector" d="M34 59.31L41.5 59.31L41.5 51.81L34 51.81L34 59.31ZM35.87 53.68L39.62 53.68L39.62 57.43L35.87 57.43L35.87 53.68Z" fill="#FF7A00" fill-opacity="1.000000" fill-rule="nonzero"/>
		<path id="Vector" d="M41.5 33.06L34 33.06L34 40.56L41.5 40.56L41.5 33.06ZM39.62 38.68L35.87 38.68L35.87 34.93L39.62 34.93L39.62 38.68Z" fill="#FF7A00" fill-opacity="1.000000" fill-rule="nonzero"/>
		<path id="Vector" d="M52.75 49.93L60.25 49.93L60.25 42.43L52.75 42.43L52.75 49.93ZM54.62 44.31L58.37 44.31L58.37 48.06L54.62 48.06L54.62 44.31Z" fill="#FF7A00" fill-opacity="1.000000" fill-rule="nonzero"/>
		<path id="Vector" d="M60.25 33.06L52.75 33.06L52.75 40.56L60.25 40.56L60.25 33.06ZM58.37 38.68L54.62 38.68L54.62 34.93L58.37 34.93L58.37 38.68Z" fill="#FF7A00" fill-opacity="1.000000" fill-rule="nonzero"/>
		<path id="Vector" d="M21.56 38.15C22.07 38.15 22.5 38.57 22.5 39.09L24.37 39.09C24.37 37.87 23.59 36.82 22.5 36.44L22.5 34.81L20.62 34.81L20.62 36.44C19.53 36.82 18.75 37.87 18.75 39.09C18.75 40.64 20.01 41.9 21.56 41.9C22.07 41.9 22.5 42.32 22.5 42.84C22.5 43.36 22.07 43.78 21.56 43.78C21.04 43.78 20.62 43.36 20.62 42.84L18.75 42.84C18.75 44.06 19.53 45.1 20.62 45.49L20.62 47.12L22.5 47.12L22.5 45.49C23.59 45.1 24.37 44.06 24.37 42.84C24.37 41.29 23.11 40.03 21.56 40.03C21.04 40.03 20.62 39.61 20.62 39.09C20.62 38.57 21.04 38.15 21.56 38.15Z" fill="#FF7A00" fill-opacity="1.000000" fill-rule="nonzero"/>
		<path id="Vector" d="M15 43.78L15 41.9L16.87 41.9L16.87 40.03L15 40.03L15 38.15L13.12 38.15L13.12 40.03L11.25 40.03L11.25 41.9L13.12 41.9L13.12 43.78L15 43.78Z" fill="#FF7A00" fill-opacity="1.000000" fill-rule="nonzero"/>
		<path id="Vector" d="M8.43 21.68L10.31 21.68L10.31 23.56L12.18 23.56L12.18 21.68L14.06 21.68L14.06 19.81L12.18 19.81L12.18 17.93L10.31 17.93L10.31 19.81L8.43 19.81L8.43 21.68Z" fill="#FF7A00" fill-opacity="1.000000" fill-rule="nonzero"/>
		<path id="Vector" d="M10.31 9.5L10.31 11.37L8.43 11.37L8.43 13.25L10.31 13.25L10.31 15.12L12.18 15.12L12.18 13.25L14.06 13.25L14.06 11.37L12.18 11.37L12.18 9.5L10.31 9.5Z" fill="#FF7A00" fill-opacity="1.000000" fill-rule="nonzero"/>
		<path id="Vector" d="M16.87 11.37L34.68 11.37L34.68 13.25L16.87 13.25L16.87 11.37Z" fill="#FF7A00" fill-opacity="1.000000" fill-rule="nonzero"/>
		<path id="Vector" d="M16.87 19.81L28.37 19.81L28.37 21.68L16.87 21.68L16.87 19.81Z" fill="#FF7A00" fill-opacity="1.000000" fill-rule="nonzero"/>
		<path id="Vector" d="M8.43 28.25L28.37 28.25L28.37 30.12L8.43 30.12L8.43 28.25Z" fill="#FF7A00" fill-opacity="1.000000" fill-rule="nonzero"/>
		<path id="Vector" d="M50.87 25.56L52.75 25.56L52.75 27.43L50.87 27.43L50.87 25.56Z" fill="#FF7A00" fill-opacity="1.000000" fill-rule="nonzero"/>
		<path id="Vector" d="M54.62 25.56L56.5 25.56L56.5 27.43L54.62 27.43L54.62 25.56Z" fill="#FF7A00" fill-opacity="1.000000" fill-rule="nonzero"/>
	</g>
</svg>
