<svg width="80.000000" height="80.000000" viewBox="0 0 80 80" fill="none" xmlns="http://www.w3.org/2000/svg" xmlns:xlink="http://www.w3.org/1999/xlink">
	
	<defs>
		<clipPath id="clip97_701">
			<rect id="fi_1738435" rx="0.000000" width="79.000000" height="79.000000" transform="translate(0.500000 0.500000)" fill="white" fill-opacity="0"/>
		</clipPath>
	</defs>
	<rect id="fi_1738435" rx="0.000000" width="79.000000" height="79.000000" transform="translate(0.500000 0.500000)" fill="#FFFFFF" fill-opacity="0"/>
	<g clip-path="url(#clip97_701)">
		<path id="Vector" d="M26.54 33.8L24.2 33.8L24.2 31.45L26.54 31.45L26.54 33.8ZM22.64 33.8L20.29 33.8L20.29 31.45L22.64 31.45L22.64 33.8Z" fill="#0E142A" fill-opacity="1.000000" fill-rule="nonzero"/>
		<path id="Vector" d="M23.42 50.37C27.72 44.02 39.32 26.01 39.32 18.4C39.32 9.63 32.19 2.5 23.42 2.5C14.65 2.5 7.52 9.63 7.52 18.4C7.52 26.01 19.12 44.02 23.42 50.37ZM9.86 18.4C9.86 10.92 15.94 4.84 23.42 4.84C30.9 4.84 36.98 10.92 36.98 18.4C36.98 24.78 26.93 40.79 23.42 46.16C19.93 40.82 9.86 24.79 9.86 18.4Z" fill="#0E142A" fill-opacity="1.000000" fill-rule="nonzero"/>
		<path id="Vector" d="M30.98 18.4C30.98 14.23 27.59 10.84 23.42 10.84C19.25 10.84 15.86 14.23 15.86 18.4C15.86 22.57 19.25 25.96 23.42 25.96C27.59 25.96 30.98 22.57 30.98 18.4ZM18.21 18.4C18.21 15.52 20.55 13.19 23.42 13.19C26.29 13.19 28.63 15.52 28.63 18.4C28.63 21.27 26.29 23.61 23.42 23.61C20.55 23.61 18.21 21.27 18.21 18.4Z" fill="#0E142A" fill-opacity="1.000000" fill-rule="nonzero"/>
		<path id="Vector" d="M74.76 25.3L62.94 37.12L58.35 37.12L48.48 27.11L38.99 27.11L38.99 29.45L47.5 29.45L57.37 39.46L63.91 39.46L74.76 28.62L77.65 31.51L77.65 35.01L74.86 37.81L74.86 56.72L71.2 60.39L71.2 65.71L73.9 68.41L73.9 70.59L72.2 72.29L66.23 66.32L47.5 66.32L45.61 70.89L47.56 72.84L45.34 75.06L42.58 75.06L33.83 66.32L18.83 66.32L2.34 49.83L2.34 29.45L7.85 29.45L7.85 27.11L0 27.11L0 50.8L17.86 68.66L32.86 68.66L41.6 77.41L46.31 77.41L50.88 72.84L48.38 70.34L49.07 68.66L65.26 68.66L72.2 75.6L76.24 71.56L76.24 67.44L73.54 64.74L73.54 61.36L77.2 57.7L77.2 38.78L80 35.98L80 30.54L74.76 25.3Z" fill="#0E142A" fill-opacity="1.000000" fill-rule="nonzero"/>
	</g>
</svg>
