<svg width="1080.059937" height="1080.136841" viewBox="0 0 1080.06 1080.14" fill="none" xmlns="http://www.w3.org/2000/svg" xmlns:xlink="http://www.w3.org/1999/xlink">
	
	<defs/>
	<g opacity="0.200000">
		<path id="Vector" d="M1018.76 478.76C1005.09 478.78 991.81 483.38 981.04 491.81C970.27 500.24 962.63 512.03 959.32 525.3L803.4 525.3C802.25 504.6 798.65 484.11 792.67 464.26L836.41 464.26C838.35 464.26 840.27 463.88 842.07 463.14C843.86 462.4 845.49 461.31 846.86 459.94C848.23 458.57 849.32 456.94 850.06 455.15C850.8 453.36 851.18 451.44 851.18 449.5L851.18 325.04L886 325.04C889.61 339.57 898.41 352.28 910.74 360.77C923.07 369.26 938.08 372.95 952.94 371.13C967.8 369.31 981.48 362.12 991.41 350.91C1001.34 339.7 1006.81 325.25 1006.81 310.28C1006.81 295.31 1001.34 280.85 991.41 269.64C981.48 258.43 967.8 251.24 952.94 249.42C938.08 247.61 923.07 251.29 910.74 259.78C898.41 268.27 889.61 280.98 886 295.51L836.41 295.51C832.5 295.51 828.74 297.07 825.97 299.84C823.2 302.6 821.65 306.36 821.65 310.28L821.65 434.73L781.82 434.73C755.07 373.76 706.37 325.07 645.4 298.33L645.4 258.48L769.85 258.48C773.77 258.48 777.52 256.92 780.29 254.15C783.06 251.39 784.62 247.63 784.62 243.71L784.62 194.15C799.15 190.55 811.86 181.75 820.35 169.42C828.84 157.08 832.52 142.07 830.7 127.21C828.89 112.35 821.7 98.67 810.49 88.74C799.28 78.82 784.82 73.34 769.85 73.34C754.88 73.34 740.43 78.82 729.21 88.74C718 98.67 710.81 112.35 709 127.21C707.18 142.07 710.86 157.08 719.36 169.42C727.85 181.75 740.55 190.55 755.09 194.15L755.09 228.98L630.63 228.98C626.72 228.98 622.96 230.54 620.19 233.31C617.43 236.08 615.87 239.83 615.87 243.75L615.87 287.47C596.02 281.5 575.53 277.9 554.83 276.75L554.83 120.8C569.36 117.2 582.07 108.4 590.56 96.07C599.05 83.74 602.73 68.73 600.92 53.86C599.1 39 591.91 25.32 580.7 15.4C569.49 5.47 555.03 0 540.06 0C525.09 0 510.64 5.47 499.43 15.4C488.22 25.32 481.03 39 479.21 53.86C477.39 68.73 481.08 83.74 489.57 96.07C498.06 108.4 510.77 117.2 525.3 120.8L525.3 276.75C504.6 277.9 484.11 281.5 464.26 287.47L464.26 243.71C464.26 239.8 462.7 236.04 459.93 233.28C457.17 230.51 453.41 228.95 449.5 228.95L325.04 228.95L325.04 194.15C339.57 190.55 352.28 181.75 360.77 169.42C369.26 157.08 372.95 142.07 371.13 127.21C369.31 112.35 362.12 98.67 350.91 88.74C339.7 78.82 325.25 73.34 310.28 73.34C295.31 73.34 280.85 78.82 269.64 88.74C258.43 98.67 251.24 112.35 249.42 127.21C247.61 142.07 251.29 157.08 259.78 169.42C268.27 181.75 280.98 190.55 295.51 194.15L295.51 243.75C295.51 247.66 297.07 251.42 299.84 254.19C302.6 256.96 306.36 258.51 310.28 258.51L434.73 258.51L434.73 298.36C373.76 325.09 325.07 373.77 298.31 434.73L258.48 434.73L258.48 310.28C258.48 306.36 256.92 302.6 254.15 299.84C251.39 297.07 247.63 295.51 243.71 295.51L194.13 295.51C190.52 280.98 181.72 268.27 169.39 259.78C157.06 251.29 142.05 247.61 127.19 249.42C112.33 251.24 98.64 258.43 88.72 269.64C78.8 280.85 73.32 295.31 73.32 310.28C73.32 325.25 78.8 339.7 88.72 350.91C98.64 362.12 112.33 369.31 127.19 371.13C142.05 372.95 157.06 369.26 169.39 360.77C181.72 352.28 190.52 339.57 194.13 325.04L228.96 325.04L228.96 449.5C228.96 451.44 229.34 453.36 230.08 455.15C230.82 456.94 231.91 458.57 233.28 459.94C234.65 461.31 236.28 462.4 238.07 463.14C239.86 463.88 241.78 464.26 243.72 464.26L287.46 464.26C281.49 484.11 277.89 504.6 276.74 525.3L120.8 525.3C117.2 510.77 108.4 498.06 96.07 489.57C83.74 481.08 68.73 477.39 53.86 479.21C39 481.03 25.32 488.22 15.4 499.43C5.47 510.64 0 525.09 0 540.06C0 555.03 5.47 569.49 15.4 580.7C25.32 591.91 39 599.1 53.86 600.92C68.73 602.73 83.74 599.05 96.07 590.56C108.4 582.07 117.2 569.36 120.8 554.83L276.73 554.83C277.87 575.53 281.47 596.02 287.44 615.87L243.71 615.87C239.8 615.87 236.04 617.42 233.27 620.19C230.5 622.96 228.95 626.71 228.95 630.63L228.95 755.09L194.13 755.09C190.52 740.55 181.72 727.85 169.39 719.35C157.06 710.86 142.05 707.18 127.19 709C112.33 710.81 98.64 718 88.72 729.21C78.8 740.43 73.32 754.88 73.32 769.85C73.32 784.82 78.8 799.28 88.72 810.49C98.64 821.7 112.33 828.89 127.19 830.7C142.05 832.52 157.06 828.84 169.39 820.35C181.72 811.86 190.52 799.15 194.13 784.62L243.72 784.62C247.64 784.62 251.39 783.06 254.16 780.29C256.93 777.52 258.49 773.77 258.49 769.85L258.49 645.4L298.3 645.4C325.04 706.39 373.75 755.1 434.74 781.85L434.74 821.65L310.28 821.65C306.36 821.65 302.6 823.2 299.84 825.97C297.07 828.74 295.51 832.5 295.51 836.41L295.51 886.03C280.98 889.63 268.27 898.43 259.78 910.76C251.29 923.09 247.61 938.11 249.42 952.97C251.24 967.83 258.43 981.51 269.64 991.43C280.85 1001.36 295.31 1006.84 310.28 1006.84C325.25 1006.84 339.7 1001.36 350.91 991.43C362.12 981.51 369.31 967.83 371.13 952.97C372.95 938.11 369.26 923.09 360.77 910.76C352.28 898.43 339.57 889.63 325.04 886.03L325.04 851.18L449.5 851.18C453.41 851.18 457.17 849.62 459.93 846.85C462.7 844.08 464.26 840.33 464.26 836.41L464.26 792.71C484.11 798.68 504.6 802.28 525.3 803.42L525.3 959.32C510.77 962.93 498.06 971.73 489.57 984.06C481.08 996.39 477.39 1011.41 479.21 1026.27C481.03 1041.13 488.22 1054.81 499.43 1064.73C510.64 1074.66 525.09 1080.14 540.06 1080.14C555.03 1080.14 569.49 1074.66 580.7 1064.73C591.91 1054.81 599.1 1041.13 600.92 1026.27C602.73 1011.41 599.05 996.39 590.56 984.06C582.07 971.73 569.36 962.93 554.83 959.32L554.83 803.42C575.53 802.28 596.02 798.68 615.87 792.71L615.87 836.41C615.87 840.33 617.43 844.08 620.19 846.85C622.96 849.62 626.72 851.18 630.63 851.18L755.09 851.18L755.09 886.03C740.55 889.63 727.85 898.43 719.36 910.76C710.86 923.09 707.18 938.11 709 952.97C710.81 967.83 718 981.51 729.21 991.43C740.43 1001.36 754.88 1006.84 769.85 1006.84C784.82 1006.84 799.28 1001.36 810.49 991.43C821.7 981.51 828.89 967.83 830.7 952.97C832.52 938.11 828.84 923.09 820.35 910.76C811.86 898.43 799.15 889.63 784.62 886.03L784.62 836.41C784.62 832.5 783.06 828.74 780.29 825.97C777.52 823.2 773.77 821.65 769.85 821.65L645.4 821.65L645.4 781.85C706.39 755.1 755.09 706.39 781.83 645.4L821.65 645.4L821.65 769.85C821.65 773.77 823.2 777.52 825.97 780.29C828.74 783.06 832.5 784.62 836.41 784.62L886 784.62C889.61 799.15 898.41 811.86 910.74 820.35C923.07 828.84 938.08 832.52 952.94 830.7C967.8 828.89 981.48 821.7 991.41 810.49C1001.34 799.28 1006.81 784.82 1006.81 769.85C1006.81 754.88 1001.34 740.43 991.41 729.21C981.48 718 967.8 710.81 952.94 709C938.08 707.18 923.07 710.86 910.74 719.35C898.41 727.85 889.61 740.55 886 755.09L851.17 755.09L851.17 630.63C851.17 626.71 849.62 622.96 846.85 620.19C844.08 617.42 840.32 615.87 836.41 615.87L792.69 615.87C798.66 596.02 802.25 575.53 803.4 554.83L959.32 554.83C962.1 565.97 967.95 576.11 976.21 584.09C984.46 592.07 994.8 597.57 1006.04 599.96C1017.27 602.35 1028.94 601.54 1039.74 597.61C1050.53 593.68 1060 586.8 1067.06 577.75C1074.14 568.7 1078.53 557.85 1079.72 546.43C1080.92 535.01 1078.89 523.48 1073.85 513.16C1068.81 502.84 1060.98 494.14 1051.24 488.06C1041.5 481.97 1030.25 478.75 1018.76 478.76ZM945.44 278.53C951.73 278.53 957.87 280.39 963.1 283.88C968.32 287.37 972.4 292.34 974.8 298.14C977.21 303.95 977.83 310.34 976.61 316.5C975.38 322.67 972.36 328.33 967.91 332.77C963.47 337.21 957.81 340.24 951.64 341.47C945.48 342.69 939.09 342.06 933.28 339.66C927.48 337.25 922.51 333.18 919.02 327.96C915.53 322.73 913.67 316.59 913.67 310.3C913.68 301.88 917.03 293.8 922.98 287.84C928.94 281.89 937.02 278.54 945.44 278.53ZM738.08 134.68C738.08 128.4 739.94 122.26 743.43 117.03C746.92 111.81 751.88 107.73 757.69 105.33C763.5 102.92 769.89 102.29 776.05 103.52C782.21 104.75 787.88 107.77 792.32 112.22C796.76 116.66 799.79 122.32 801.02 128.49C802.24 134.65 801.61 141.04 799.21 146.84C796.8 152.65 792.73 157.61 787.5 161.1C782.28 164.6 776.14 166.46 769.85 166.46C761.43 166.45 753.35 163.1 747.39 157.14C741.43 151.19 738.08 143.11 738.08 134.68ZM278.5 134.68C278.5 128.4 280.37 122.26 283.86 117.03C287.35 111.81 292.31 107.73 298.12 105.33C303.92 102.92 310.31 102.29 316.48 103.52C322.64 104.75 328.3 107.77 332.75 112.22C337.19 116.66 340.22 122.32 341.44 128.49C342.67 134.65 342.04 141.04 339.63 146.84C337.23 152.65 333.16 157.61 327.93 161.1C322.71 164.6 316.56 166.46 310.28 166.46C301.85 166.45 293.78 163.1 287.82 157.14C281.86 151.19 278.51 143.11 278.5 134.68ZM134.68 342.05C128.4 342.05 122.26 340.19 117.03 336.7C111.81 333.21 107.73 328.24 105.33 322.44C102.92 316.63 102.29 310.24 103.52 304.08C104.75 297.91 107.77 292.25 112.22 287.81C116.66 283.36 122.32 280.34 128.49 279.11C134.65 277.89 141.04 278.51 146.84 280.92C152.65 283.32 157.61 287.4 161.1 292.62C164.6 297.85 166.46 303.99 166.46 310.28C166.45 318.7 163.1 326.78 157.14 332.73C151.18 338.69 143.11 342.04 134.68 342.05ZM134.68 801.63C128.4 801.63 122.26 799.76 117.03 796.27C111.81 792.78 107.73 787.82 105.33 782.01C102.92 776.2 102.29 769.82 103.52 763.65C104.75 757.49 107.77 751.83 112.22 747.38C116.66 742.94 122.32 739.91 128.49 738.69C134.65 737.46 141.04 738.09 146.84 740.49C152.65 742.9 157.61 746.97 161.1 752.2C164.6 757.42 166.46 763.57 166.46 769.85C166.46 778.28 163.11 786.36 157.15 792.32C151.19 798.29 143.11 801.64 134.68 801.65L134.68 801.63ZM342.05 945.44C342.05 951.73 340.19 957.87 336.7 963.1C333.21 968.32 328.24 972.4 322.44 974.8C316.63 977.21 310.24 977.83 304.08 976.61C297.91 975.38 292.25 972.36 287.81 967.91C283.36 963.47 280.34 957.81 279.11 951.64C277.89 945.48 278.51 939.09 280.92 933.28C283.32 927.48 287.4 922.51 292.62 919.02C297.85 915.53 303.99 913.67 310.28 913.67C318.7 913.68 326.78 917.03 332.74 922.98C338.69 928.94 342.04 937.02 342.05 945.44ZM801.63 945.44C801.63 951.73 799.76 957.87 796.27 963.1C792.78 968.32 787.82 972.4 782.01 974.8C776.2 977.21 769.82 977.83 763.65 976.61C757.49 975.38 751.83 972.36 747.38 967.91C742.94 963.47 739.91 957.81 738.69 951.64C737.46 945.48 738.09 939.09 740.49 933.28C742.9 927.48 746.97 922.51 752.2 919.02C757.42 915.53 763.57 913.67 769.85 913.67C778.28 913.68 786.35 917.03 792.31 922.98C798.27 928.94 801.62 937.02 801.63 945.44ZM945.44 738.08C951.73 738.08 957.87 739.94 963.1 743.43C968.32 746.92 972.4 751.88 974.8 757.69C977.21 763.5 977.83 769.89 976.61 776.05C975.38 782.21 972.36 787.88 967.91 792.32C963.47 796.76 957.81 799.79 951.64 801.02C945.48 802.24 939.09 801.61 933.28 799.21C927.48 796.8 922.51 792.73 919.02 787.5C915.53 782.28 913.67 776.14 913.67 769.85C913.68 761.43 917.03 753.35 922.98 747.39C928.94 741.43 937.02 738.08 945.44 738.08ZM508.29 61.37C508.29 55.09 510.15 48.94 513.64 43.72C517.14 38.49 522.1 34.42 527.9 32.01C533.71 29.61 540.1 28.98 546.26 30.21C552.43 31.43 558.09 34.46 562.53 38.9C566.98 43.35 570 49.01 571.23 55.17C572.46 61.34 571.83 67.72 569.42 73.53C567.02 79.34 562.94 84.3 557.72 87.79C552.49 91.28 546.35 93.15 540.06 93.15C531.64 93.13 523.56 89.78 517.61 83.83C511.65 77.87 508.3 69.79 508.29 61.37ZM61.37 571.84C55.08 571.84 48.94 569.98 43.71 566.48C38.49 562.99 34.42 558.03 32.01 552.22C29.61 546.41 28.98 540.02 30.21 533.86C31.44 527.69 34.46 522.03 38.91 517.59C43.36 513.14 49.02 510.12 55.19 508.9C61.35 507.67 67.74 508.31 73.55 510.71C79.35 513.12 84.31 517.2 87.8 522.43C91.29 527.66 93.15 533.8 93.15 540.09C93.13 548.51 89.78 556.58 83.82 562.53C77.86 568.48 69.79 571.83 61.37 571.84ZM571.84 1018.76C571.84 1025.05 569.98 1031.18 566.48 1036.42C562.99 1041.64 558.03 1045.71 552.22 1048.12C546.42 1050.52 540.03 1051.15 533.86 1049.93C527.7 1048.69 522.04 1045.67 517.59 1041.23C513.15 1036.79 510.12 1031.12 508.9 1024.96C507.67 1018.8 508.3 1012.41 510.71 1006.6C513.11 1000.8 517.18 995.83 522.41 992.34C527.64 988.85 533.78 986.98 540.06 986.98C548.49 986.99 556.57 990.34 562.52 996.3C568.48 1002.26 571.83 1010.34 571.84 1018.76ZM540.45 774.32C540.33 774.32 540.2 774.32 540.06 774.32C539.93 774.32 539.8 774.32 539.68 774.32C477.67 774.15 418.26 749.43 374.44 705.56C330.62 661.7 305.95 602.27 305.83 540.27L305.83 540.06L305.83 539.87C305.83 477.75 330.51 418.17 374.44 374.24C418.36 330.31 477.94 305.64 540.06 305.64C602.19 305.64 661.76 330.31 705.69 374.24C749.62 418.17 774.3 477.75 774.3 539.87L774.3 540.06L774.3 540.27C774.18 602.27 749.51 661.7 705.69 705.56C661.87 749.43 602.45 774.15 540.45 774.32ZM1018.76 571.82C1012.48 571.82 1006.33 569.96 1001.1 566.46C995.87 562.97 991.8 558.01 989.4 552.2C986.99 546.39 986.37 540 987.6 533.83C988.82 527.67 991.86 522.01 996.3 517.56C1000.76 513.12 1006.42 510.1 1012.59 508.88C1018.75 507.66 1025.15 508.29 1030.94 510.7C1036.76 513.11 1041.72 517.19 1045.19 522.42C1048.68 527.65 1050.55 533.8 1050.54 540.09C1050.52 548.51 1047.17 556.58 1041.21 562.53C1035.26 568.48 1027.18 571.83 1018.76 571.84L1018.76 571.82Z" fill="#0E142A" fill-opacity="1.000000" fill-rule="nonzero"/>
		<path id="Vector" d="M959.32 554.83C962.1 565.97 967.95 576.11 976.21 584.09C984.46 592.07 994.8 597.57 1006.04 599.96C1017.27 602.35 1028.94 601.54 1039.74 597.61C1050.53 593.68 1060 586.8 1067.06 577.75C1074.14 568.7 1078.53 557.85 1079.72 546.43C1080.92 535.01 1078.89 523.48 1073.85 513.16C1068.81 502.84 1060.98 494.14 1051.24 488.06C1041.5 481.97 1030.25 478.75 1018.76 478.76C1005.09 478.78 991.81 483.38 981.04 491.81C970.27 500.24 962.63 512.03 959.32 525.3L803.4 525.3C802.27 504.95 798.77 484.8 792.97 465.26C792.87 464.93 792.77 464.59 792.67 464.26L836.41 464.26C838.35 464.26 840.27 463.88 842.07 463.14C843.86 462.4 845.49 461.31 846.86 459.94C848.23 458.57 849.32 456.94 850.06 455.15C850.8 453.36 851.18 451.44 851.18 449.5L851.18 325.04L852.18 325.04L886 325.04C889.61 339.57 898.41 352.28 910.74 360.77C923.07 369.26 938.08 372.95 952.94 371.13C967.8 369.31 981.48 362.12 991.41 350.91C1001.34 339.7 1006.81 325.25 1006.81 310.28C1006.81 295.31 1001.34 280.85 991.41 269.64C981.48 258.43 967.8 251.24 952.94 249.42C938.08 247.61 923.07 251.29 910.74 259.78C898.41 268.27 889.61 280.98 886 295.51L836.41 295.51C832.5 295.51 828.74 297.07 825.97 299.84C823.2 302.6 821.65 306.36 821.65 310.28L821.65 433.73L821.65 434.73L781.82 434.73C755.07 373.76 706.37 325.07 645.4 298.33L645.4 258.48L769.85 258.48C773.77 258.48 777.52 256.92 780.29 254.15C783.06 251.39 784.62 247.63 784.62 243.71L784.62 194.15C799.15 190.55 811.86 181.75 820.35 169.42C828.84 157.08 832.52 142.07 830.7 127.21C828.89 112.35 821.7 98.67 810.49 88.74C799.28 78.82 784.82 73.34 769.85 73.34C754.88 73.34 740.43 78.82 729.21 88.74C718 98.67 710.81 112.35 709 127.21C707.18 142.07 710.86 157.08 719.36 169.42C727.85 181.75 740.55 190.55 755.09 194.15L755.09 227.98L755.09 228.98L754.09 228.98L630.63 228.98C626.72 228.98 622.96 230.54 620.19 233.31C617.43 236.08 615.87 239.83 615.87 243.75L615.87 287.47C615.53 287.37 615.2 287.27 614.87 287.17C595.33 281.38 575.18 277.88 554.83 276.75L554.83 120.8C569.36 117.2 582.07 108.4 590.56 96.07C599.05 83.74 602.73 68.73 600.92 53.86C599.1 39 591.91 25.32 580.7 15.4C569.49 5.47 555.03 0 540.06 0C525.09 0 510.64 5.47 499.43 15.4C488.22 25.32 481.03 39 479.21 53.86C477.39 68.73 481.08 83.74 489.57 96.07C498.06 108.4 510.77 117.2 525.3 120.8L525.3 276.75C504.95 277.88 484.8 281.38 465.26 287.17C464.93 287.27 464.59 287.37 464.26 287.47L464.26 243.71C464.26 239.8 462.7 236.04 459.93 233.28C457.17 230.51 453.41 228.95 449.5 228.95L325.04 228.95L325.04 227.95L325.04 194.15C339.57 190.55 352.28 181.75 360.77 169.42C369.26 157.08 372.95 142.07 371.13 127.21C369.31 112.35 362.12 98.67 350.91 88.74C339.7 78.82 325.25 73.34 310.28 73.34C295.31 73.34 280.85 78.82 269.64 88.74C258.43 98.67 251.24 112.35 249.42 127.21C247.61 142.07 251.29 157.08 259.78 169.42C268.27 181.75 280.98 190.55 295.51 194.15L295.51 243.75C295.51 247.66 297.07 251.42 299.84 254.19C302.6 256.96 306.36 258.51 310.28 258.51L434.73 258.51L434.73 259.51L434.73 298.36C373.76 325.09 325.07 373.77 298.31 434.73L258.48 434.73L258.48 310.28C258.48 306.36 256.92 302.6 254.15 299.84C251.39 297.07 247.63 295.51 243.71 295.51L194.13 295.51C190.52 280.98 181.72 268.27 169.39 259.78C157.06 251.29 142.05 247.61 127.19 249.42C112.33 251.24 98.64 258.43 88.72 269.64C78.8 280.85 73.32 295.31 73.32 310.28C73.32 325.25 78.8 339.7 88.72 350.91C98.64 362.12 112.33 369.31 127.19 371.13C142.05 372.95 157.06 369.26 169.39 360.77C181.72 352.28 190.52 339.57 194.13 325.04L227.96 325.04L228.96 325.04L228.96 326.04L228.96 449.5C228.96 451.44 229.34 453.36 230.08 455.15C230.82 456.94 231.91 458.57 233.28 459.94C234.65 461.31 236.28 462.4 238.07 463.14C239.86 463.88 241.78 464.26 243.72 464.26L287.46 464.26C287.36 464.59 287.26 464.93 287.16 465.26C281.37 484.8 277.87 504.95 276.74 525.3L120.8 525.3C117.2 510.77 108.4 498.06 96.07 489.57C83.74 481.08 68.73 477.39 53.86 479.21C39 481.03 25.32 488.22 15.4 499.43C5.47 510.64 0 525.09 0 540.06C0 555.03 5.47 569.49 15.4 580.7C25.32 591.91 39 599.1 53.86 600.92C68.73 602.73 83.74 599.05 96.07 590.56C108.4 582.07 117.2 569.36 120.8 554.83L276.73 554.83C277.85 575.18 281.35 595.33 287.14 614.87C287.24 615.2 287.34 615.53 287.44 615.87L243.71 615.87C239.8 615.87 236.04 617.42 233.27 620.19C230.5 622.96 228.95 626.71 228.95 630.63L228.95 754.09L228.95 755.09L194.13 755.09C190.52 740.55 181.72 727.85 169.39 719.35C157.06 710.86 142.05 707.18 127.19 709C112.33 710.81 98.64 718 88.72 729.21C78.8 740.43 73.32 754.88 73.32 769.85C73.32 784.82 78.8 799.28 88.72 810.49C98.64 821.7 112.33 828.89 127.19 830.7C142.05 832.52 157.06 828.84 169.39 820.35C181.72 811.86 190.52 799.15 194.13 784.62L243.72 784.62C247.64 784.62 251.39 783.06 254.16 780.29C256.93 777.52 258.49 773.77 258.49 769.85L258.49 646.4L258.49 645.4L259.49 645.4L298.3 645.4C325.04 706.39 373.75 755.1 434.74 781.85L434.74 820.65L434.74 821.65L310.28 821.65C306.36 821.65 302.6 823.2 299.84 825.97C297.07 828.74 295.51 832.5 295.51 836.41L295.51 886.03C280.98 889.63 268.27 898.43 259.78 910.76C251.29 923.09 247.61 938.11 249.42 952.97C251.24 967.83 258.43 981.51 269.64 991.43C280.85 1001.36 295.31 1006.84 310.28 1006.84C325.25 1006.84 339.7 1001.36 350.91 991.43C362.12 981.51 369.31 967.83 371.13 952.97C372.95 938.11 369.26 923.09 360.77 910.76C352.28 898.43 339.57 889.63 325.04 886.03L325.04 852.18L325.04 851.18L449.5 851.18C453.41 851.18 457.17 849.62 459.93 846.85C462.7 844.08 464.26 840.33 464.26 836.41L464.26 792.71C464.59 792.81 464.93 792.91 465.26 793.01C484.8 798.8 504.95 802.3 525.3 803.42L525.3 959.32C510.77 962.93 498.06 971.73 489.57 984.06C481.08 996.39 477.39 1011.41 479.21 1026.27C481.03 1041.13 488.22 1054.81 499.43 1064.73C510.64 1074.66 525.09 1080.14 540.06 1080.14C555.03 1080.14 569.49 1074.66 580.7 1064.73C591.91 1054.81 599.1 1041.13 600.92 1026.27C602.73 1011.41 599.05 996.39 590.56 984.06C582.07 971.73 569.36 962.93 554.83 959.32L554.83 803.42C575.18 802.3 595.33 798.8 614.87 793.01C615.2 792.91 615.53 792.81 615.87 792.71L615.87 836.41C615.87 840.33 617.43 844.08 620.19 846.85C622.96 849.62 626.72 851.18 630.63 851.18L755.09 851.18L755.09 852.18L755.09 886.03C740.55 889.63 727.85 898.43 719.36 910.76C710.86 923.09 707.18 938.11 709 952.97C710.81 967.83 718 981.51 729.21 991.43C740.43 1001.36 754.88 1006.84 769.85 1006.84C784.82 1006.84 799.28 1001.36 810.49 991.43C821.7 981.51 828.89 967.83 830.7 952.97C832.52 938.11 828.84 923.09 820.35 910.76C811.86 898.43 799.15 889.63 784.62 886.03L784.62 836.41C784.62 832.5 783.06 828.74 780.29 825.97C777.52 823.2 773.77 821.65 769.85 821.65L645.4 821.65L645.4 781.85C706.39 755.1 755.09 706.39 781.83 645.4L820.65 645.4L821.65 645.4L821.65 646.4L821.65 769.85C821.65 773.77 823.2 777.52 825.97 780.29C828.74 783.06 832.5 784.62 836.41 784.62L886 784.62C889.61 799.15 898.41 811.86 910.74 820.35C923.07 828.84 938.08 832.52 952.94 830.7C967.8 828.89 981.48 821.7 991.41 810.49C1001.34 799.28 1006.81 784.82 1006.81 769.85C1006.81 754.88 1001.34 740.43 991.41 729.21C981.48 718 967.8 710.81 952.94 709C938.08 707.18 923.07 710.86 910.74 719.35C898.41 727.85 889.61 740.55 886 755.09L851.17 755.09L851.17 754.09L851.17 630.63C851.17 626.71 849.62 622.96 846.85 620.19C844.08 617.42 840.32 615.87 836.41 615.87L792.69 615.87C792.79 615.53 792.89 615.2 792.99 614.87C798.78 595.33 802.27 575.18 803.4 554.83L959.32 554.83ZM968.14 507.23Q973.48 498.99 981.65 492.6Q989.83 486.19 999.11 482.98Q1008.39 479.78 1018.76 479.76Q1027.4 479.75 1035.38 482.04Q1043.37 484.32 1050.71 488.91Q1058.03 493.47 1063.57 499.63Q1069.16 505.81 1072.94 513.6Q1076.74 521.35 1078.18 529.51Q1079.63 537.71 1078.73 546.32Q1077.82 554.9 1074.73 562.58Q1071.62 570.31 1066.28 577.14Q1060.96 583.95 1054.25 588.83Q1047.52 593.71 1039.4 596.67Q1031.27 599.63 1022.97 600.21Q1014.69 600.78 1006.24 598.98Q997.77 597.18 990.43 593.27Q983.11 589.37 976.9 583.37Q970.68 577.36 966.52 570.15Q962.38 562.96 960.29 554.59L960.1 553.83L802.45 553.83L802.4 554.77Q801.54 570.26 798.89 585.43Q796.22 600.67 791.73 615.58L791.35 616.87L836.41 616.87Q839.26 616.87 841.69 617.87Q844.12 618.88 846.14 620.9Q848.16 622.91 849.16 625.35Q850.17 627.78 850.17 630.63L850.17 756.09L886.78 756.09L886.97 755.33Q889.72 744.23 895.81 735.45Q901.89 726.66 911.3 720.18Q920.72 713.69 931.11 711.15Q941.48 708.6 952.82 709.99Q964.17 711.38 973.63 716.35Q983.09 721.32 990.66 729.88Q998.24 738.44 1002.03 748.43Q1005.81 758.42 1005.81 769.85Q1005.81 781.28 1002.03 791.27Q998.23 801.27 990.66 809.82Q983.09 818.38 973.63 823.35Q964.17 828.32 952.82 829.71Q941.48 831.1 931.11 828.55Q920.72 826.01 911.3 819.52Q901.89 813.04 895.81 804.25Q889.72 795.47 886.97 784.38L886.78 783.62L836.41 783.62Q833.56 783.62 831.13 782.61Q828.7 781.6 826.68 779.58Q824.66 777.57 823.66 775.13Q822.65 772.7 822.65 769.85L822.65 644.4L781.18 644.4L780.92 645Q770.91 667.82 757.1 688.03Q743.32 708.19 725.75 725.76Q708.14 743.38 687.92 757.18Q667.75 770.95 645 780.93L644.4 781.2L644.4 822.65L769.85 822.65Q772.7 822.65 775.13 823.66Q777.57 824.66 779.58 826.68Q781.6 828.7 782.61 831.13Q783.62 833.56 783.62 836.41L783.62 886.81L784.38 887Q795.47 889.75 804.26 895.83Q813.04 901.92 819.52 911.33Q826.01 920.75 828.55 931.13Q831.1 941.5 829.71 952.85Q828.33 964.19 823.35 973.65Q818.38 983.11 809.82 990.68Q801.27 998.26 791.29 1002.05Q781.29 1005.84 769.85 1005.84Q758.42 1005.84 748.43 1002.05Q738.44 998.26 729.88 990.68Q721.32 983.11 716.35 973.65Q711.38 964.19 709.99 952.85Q708.6 941.51 711.15 931.13Q713.69 920.75 720.18 911.33Q726.66 901.92 735.44 895.84Q744.23 889.75 755.33 887L756.09 886.81L756.09 850.18L630.63 850.18Q627.78 850.18 625.35 849.17Q622.92 848.16 620.9 846.15Q618.88 844.13 617.88 841.69Q616.87 839.26 616.87 836.41L616.87 791.36L615.58 791.75Q600.85 796.18 585.81 798.84Q570.46 801.56 554.77 802.43L553.83 802.48L553.83 960.11L554.59 960.29Q565.68 963.05 574.47 969.13Q583.26 975.22 589.74 984.63Q596.22 994.05 598.77 1004.43Q601.31 1014.81 599.93 1026.15Q598.54 1037.49 593.56 1046.96Q588.59 1056.41 580.04 1063.99Q571.48 1071.56 561.49 1075.35Q551.5 1079.14 540.06 1079.14Q528.63 1079.14 518.64 1075.35Q508.65 1071.56 500.09 1063.99Q491.53 1056.41 486.56 1046.94Q481.59 1037.49 480.2 1026.15Q478.82 1014.81 481.36 1004.43Q483.91 994.04 490.39 984.63Q496.87 975.22 505.65 969.13Q514.44 963.05 525.54 960.29L526.3 960.11L526.3 802.48L525.35 802.43Q509.63 801.55 494.24 798.83Q479.24 796.17 464.55 791.75L463.26 791.36L463.26 836.41Q463.26 839.27 462.25 841.7Q461.24 844.13 459.23 846.15Q457.21 848.16 454.78 849.17Q452.34 850.18 449.5 850.18L324.04 850.18L324.04 886.81L324.8 887Q335.9 889.75 344.68 895.83Q353.47 901.92 359.95 911.33Q366.43 920.75 368.98 931.13Q371.52 941.51 370.14 952.85Q368.75 964.19 363.78 973.65Q358.81 983.11 350.25 990.68Q341.69 998.26 331.69 1002.05Q321.7 1005.84 310.28 1005.84Q298.85 1005.84 288.85 1002.05Q278.86 998.26 270.3 990.68Q261.75 983.11 256.78 973.65Q251.8 964.19 250.42 952.85Q249.03 941.51 251.57 931.13Q254.12 920.75 260.6 911.33Q267.08 901.92 275.87 895.84Q284.66 889.75 295.75 887L296.51 886.81L296.51 836.41Q296.51 833.56 297.52 831.13Q298.53 828.7 300.54 826.68Q302.56 824.66 304.99 823.66Q307.43 822.65 310.28 822.65L435.74 822.65L435.74 781.2L435.14 780.93Q412.33 770.93 392.12 757.12Q371.96 743.34 354.38 725.76Q336.77 708.15 322.97 687.93Q309.2 667.76 299.22 645L298.96 644.4L257.49 644.4L257.49 769.85Q257.49 772.7 256.48 775.13Q255.47 777.57 253.46 779.58Q251.44 781.6 249.01 782.61Q246.57 783.62 243.72 783.62L193.34 783.62L193.16 784.38Q190.4 795.47 184.32 804.26Q178.23 813.04 168.82 819.52Q159.41 826.01 149.02 828.55Q138.65 831.1 127.31 829.71Q115.96 828.33 106.5 823.35Q97.04 818.38 89.47 809.82Q81.89 801.27 78.1 791.27Q74.32 781.28 74.32 769.85Q74.32 758.42 78.1 748.43Q81.89 738.44 89.47 729.88Q97.04 721.32 106.5 716.35Q115.96 711.38 127.31 709.99Q138.65 708.6 149.02 711.15Q159.41 713.69 168.82 720.18Q178.23 726.66 184.32 735.44Q190.4 744.23 193.16 755.33L193.34 756.09L229.95 756.09L229.95 630.63Q229.95 627.78 230.96 625.35Q231.96 622.91 233.98 620.9Q236 618.88 238.43 617.87Q240.86 616.87 243.71 616.87L288.78 616.87L288.39 615.58Q283.93 600.73 281.26 585.57Q278.59 570.33 277.73 554.77L277.68 553.83L120.02 553.83L119.83 554.59Q117.08 565.68 111 574.47Q104.91 583.26 95.5 589.74Q86.09 596.22 75.7 598.77Q65.33 601.31 53.99 599.93Q42.64 598.54 33.18 593.56Q23.72 588.59 16.15 580.04Q8.57 571.48 4.78 561.48Q1 551.49 1 540.06Q1 528.64 4.78 518.64Q8.57 508.65 16.15 500.09Q23.72 491.53 33.18 486.56Q42.64 481.59 53.99 480.2Q65.33 478.82 75.71 481.36Q86.09 483.91 95.5 490.39Q104.92 496.87 111 505.66Q117.08 514.45 119.83 525.54L120.02 526.3L277.68 526.3L277.74 525.35Q278.6 509.78 281.29 494.53Q283.96 479.38 288.42 464.55L288.81 463.26L243.72 463.26Q242.35 463.26 241.03 463Q239.72 462.74 238.45 462.22Q237.19 461.69 236.07 460.95Q234.95 460.2 233.99 459.23Q233.02 458.26 232.27 457.15Q231.53 456.03 231 454.77Q230.48 453.5 230.22 452.19Q229.96 450.87 229.96 449.5L229.96 324.04L193.34 324.04L193.16 324.8Q190.4 335.9 184.32 344.68Q178.24 353.47 168.82 359.95Q159.41 366.43 149.03 368.98Q138.65 371.52 127.31 370.14Q115.96 368.75 106.51 363.78Q97.04 358.81 89.47 350.25Q81.89 341.69 78.1 331.7Q74.32 321.71 74.32 310.28Q74.32 298.85 78.1 288.86Q81.89 278.86 89.47 270.3Q97.04 261.75 106.5 256.78Q115.96 251.8 127.31 250.42Q138.65 249.03 149.03 251.58Q159.41 254.12 168.82 260.6Q178.24 267.09 184.32 275.87Q190.4 284.66 193.16 295.75L193.34 296.51L243.71 296.51Q246.56 296.51 249 297.52Q251.43 298.53 253.45 300.54Q255.46 302.56 256.47 304.99Q257.48 307.43 257.48 310.28L257.48 435.73L298.97 435.73L299.23 435.13Q309.24 412.31 323.07 392.1Q336.84 371.97 354.4 354.42Q371.99 336.83 392.18 323.04Q412.36 309.26 435.13 299.28L435.73 299.02L435.73 257.51L310.28 257.51Q307.43 257.51 304.99 256.51Q302.56 255.5 300.54 253.48Q298.53 251.47 297.52 249.03Q296.51 246.6 296.51 243.75L296.51 193.37L295.75 193.18Q284.66 190.43 275.87 184.34Q267.08 178.26 260.6 168.85Q254.12 159.43 251.58 149.05Q249.03 138.67 250.42 127.33Q251.8 115.99 256.77 106.53Q261.75 97.07 270.3 89.49Q278.86 81.92 288.85 78.13Q298.85 74.34 310.28 74.34Q321.71 74.34 331.7 78.13Q341.69 81.92 350.25 89.49Q358.81 97.07 363.78 106.53Q368.75 115.99 370.14 127.33Q371.52 138.68 368.98 149.06Q366.43 159.44 359.95 168.85Q353.47 178.26 344.68 184.34Q335.9 190.43 324.8 193.18L324.04 193.37L324.04 229.95L449.5 229.95Q452.35 229.95 454.78 230.96Q457.21 231.97 459.23 233.98Q461.24 236 462.25 238.43Q463.26 240.86 463.26 243.71L463.26 288.82L464.55 288.43Q479.55 283.92 494.86 281.24Q509.95 278.61 525.35 277.75L526.3 277.7L526.3 120.02L525.54 119.83Q514.45 117.08 505.66 111Q496.87 104.92 490.39 95.5Q483.91 86.09 481.36 75.71Q478.82 65.33 480.2 53.99Q481.59 42.64 486.56 33.18Q491.53 23.72 500.09 16.15Q508.65 8.57 518.64 4.78Q528.64 1 540.06 1Q551.5 1 561.49 4.78Q571.48 8.57 580.04 16.15Q588.59 23.72 593.56 33.18Q598.54 42.64 599.93 53.99Q601.31 65.33 598.77 75.7Q596.22 86.09 589.74 95.5Q583.25 104.92 574.46 111Q565.68 117.08 554.59 119.83L553.83 120.02L553.83 277.7L554.77 277.75Q570.24 278.61 585.4 281.26Q600.65 283.94 615.58 288.43L616.87 288.82L616.87 243.75Q616.87 240.9 617.88 238.47Q618.88 236.03 620.9 234.02Q622.92 232 625.35 230.99Q627.78 229.98 630.63 229.98L756.09 229.98L756.09 193.37L755.33 193.18Q744.23 190.43 735.45 184.35Q726.66 178.26 720.18 168.85Q713.7 159.43 711.15 149.05Q708.6 138.67 709.99 127.33Q711.38 115.98 716.35 106.52Q721.32 97.06 729.88 89.49Q738.43 81.92 748.42 78.13Q758.42 74.34 769.85 74.34Q781.28 74.34 791.27 78.13Q801.27 81.92 809.82 89.49Q818.38 97.07 823.35 106.53Q828.33 115.99 829.71 127.33Q831.1 138.67 828.55 149.05Q826.01 159.43 819.52 168.85Q813.04 178.26 804.25 184.35Q795.47 190.43 784.38 193.18L783.62 193.37L783.62 243.71Q783.62 246.56 782.61 249Q781.6 251.43 779.58 253.45Q777.57 255.46 775.14 256.47Q772.7 257.48 769.85 257.48L644.4 257.48L644.4 298.98L645 299.25Q667.75 309.22 687.92 323Q708.13 336.79 725.74 354.4Q743.31 371.97 757.09 392.14Q770.9 412.34 780.9 435.13L781.16 435.73L822.65 435.73L822.65 310.28Q822.65 307.43 823.66 304.99Q824.66 302.56 826.68 300.54Q828.7 298.53 831.13 297.52Q833.56 296.51 836.41 296.51L886.78 296.51L886.97 295.75Q889.73 284.66 895.81 275.87Q901.89 267.08 911.3 260.6Q920.72 254.12 931.1 251.57Q941.48 249.03 952.82 250.42Q964.17 251.8 973.63 256.78Q983.09 261.75 990.66 270.3Q998.23 278.86 1002.03 288.85Q1005.81 298.85 1005.81 310.28Q1005.81 321.71 1002.03 331.7Q998.23 341.69 990.66 350.25Q983.08 358.81 973.61 363.78Q964.16 368.75 952.82 370.14Q941.47 371.53 931.09 368.98Q920.71 366.43 911.3 359.95Q901.89 353.47 895.81 344.68Q889.72 335.89 886.97 324.8L886.78 324.04L850.18 324.04L850.18 449.5Q850.18 450.87 849.92 452.19Q849.66 453.5 849.13 454.77Q848.61 456.03 847.87 457.14Q847.12 458.26 846.15 459.23Q845.18 460.2 844.06 460.95Q842.95 461.69 841.68 462.22Q840.42 462.74 839.11 463Q837.79 463.26 836.41 463.26L791.33 463.26L791.72 464.55Q796.25 479.62 798.93 495.01Q801.55 510.03 802.4 525.35L802.45 526.3L960.1 526.3L960.29 525.54Q962.8 515.47 968.14 507.23ZM519.26 36.01Q515.58 39.02 512.81 43.16Q510.05 47.29 508.67 51.84Q507.29 56.4 507.29 61.37Q507.3 68.16 509.7 73.95Q512.1 79.74 516.9 84.53Q521.7 89.33 527.48 91.73Q533.28 94.14 540.06 94.15Q545.03 94.15 549.59 92.77Q554.14 91.38 558.27 88.62Q562.4 85.86 565.42 82.19Q568.44 78.51 570.34 73.91Q572.25 69.32 572.71 64.59Q573.18 59.86 572.21 54.98Q571.24 50.1 569 45.91Q566.76 41.71 563.24 38.19Q559.73 34.68 555.53 32.44Q551.34 30.19 546.46 29.22Q541.58 28.25 536.85 28.72Q532.11 29.19 527.52 31.09Q522.93 32.99 519.26 36.01ZM508.29 61.37C508.29 55.09 510.15 48.94 513.64 43.72C517.14 38.49 522.1 34.42 527.9 32.01C533.71 29.61 540.1 28.98 546.26 30.21C552.43 31.43 558.09 34.46 562.53 38.9C566.98 43.35 570 49.01 571.23 55.17C572.46 61.34 571.83 67.72 569.42 73.53C567.02 79.34 562.94 84.3 557.72 87.79C552.49 91.28 546.35 93.15 540.06 93.15C531.64 93.13 523.56 89.78 517.61 83.83C511.65 77.87 508.3 69.79 508.29 61.37ZM289.46 109.32Q285.79 112.34 283.03 116.48Q280.26 120.61 278.88 125.16Q277.5 129.71 277.5 134.69Q277.51 141.47 279.91 147.26Q282.31 153.05 287.11 157.85Q291.91 162.65 297.7 165.05Q303.49 167.45 310.28 167.46Q315.25 167.46 319.8 166.08Q324.35 164.7 328.49 161.94Q332.62 159.17 335.64 155.5Q338.65 151.82 340.56 147.23Q342.46 142.63 342.93 137.9Q343.39 133.17 342.42 128.29Q341.45 123.41 339.21 119.22Q336.97 115.02 333.45 111.51Q329.94 107.99 325.74 105.75Q321.54 103.51 316.67 102.54Q311.8 101.57 307.06 102.03Q302.33 102.5 297.73 104.4Q293.14 106.31 289.46 109.32ZM749.03 109.33Q745.36 112.34 742.6 116.48Q739.84 120.61 738.46 125.16Q737.08 129.71 737.08 134.69Q737.08 141.47 739.48 147.26Q741.89 153.05 746.68 157.85Q751.48 162.65 757.27 165.05Q763.06 167.45 769.85 167.46Q774.82 167.46 779.38 166.08Q783.93 164.7 788.06 161.94Q792.19 159.17 795.21 155.5Q798.23 151.82 800.13 147.23Q802.03 142.64 802.5 137.91Q802.97 133.17 802 128.29Q801.03 123.42 798.79 119.22Q796.54 115.03 793.03 111.51Q789.51 107.99 785.32 105.75Q781.12 103.51 776.24 102.54Q771.37 101.57 766.64 102.03Q761.9 102.5 757.31 104.4Q752.71 106.31 749.03 109.33ZM278.5 134.68C278.5 128.4 280.37 122.26 283.86 117.03C287.35 111.81 292.31 107.73 298.12 105.33C303.92 102.92 310.31 102.29 316.48 103.52C322.64 104.75 328.3 107.77 332.75 112.22C337.19 116.66 340.22 122.32 341.44 128.49C342.67 134.65 342.04 141.04 339.63 146.84C337.23 152.65 333.16 157.61 327.93 161.1C322.71 164.6 316.56 166.46 310.28 166.46C301.85 166.45 293.78 163.1 287.82 157.14C281.86 151.19 278.51 143.11 278.5 134.68ZM738.08 134.68C738.08 128.4 739.94 122.26 743.43 117.03C746.92 111.81 751.88 107.73 757.69 105.33C763.5 102.92 769.89 102.29 776.05 103.52C782.21 104.75 787.88 107.77 792.32 112.22C796.76 116.66 799.79 122.32 801.02 128.49C802.24 134.65 801.61 141.04 799.21 146.84C796.8 152.65 792.73 157.61 787.5 161.1C782.28 164.6 776.14 166.46 769.85 166.46C761.43 166.45 753.35 163.1 747.39 157.14C741.43 151.19 738.08 143.11 738.08 134.68ZM109.32 331.09Q112.34 334.77 116.48 337.53Q120.6 340.29 125.15 341.67Q129.71 343.05 134.69 343.05Q141.47 343.04 147.26 340.64Q153.05 338.24 157.85 333.44Q162.64 328.65 165.05 322.86Q167.45 317.06 167.46 310.28Q167.46 305.31 166.08 300.75Q164.7 296.2 161.94 292.07Q159.17 287.94 155.5 284.92Q151.82 281.9 147.23 280Q142.63 278.09 137.9 277.63Q133.17 277.16 128.29 278.13Q123.41 279.1 119.22 281.34Q115.02 283.59 111.51 287.1Q107.99 290.62 105.75 294.81Q103.51 299.01 102.54 303.88Q101.57 308.76 102.03 313.49Q102.5 318.23 104.4 322.82Q106.31 327.41 109.32 331.09ZM970.8 289.49Q967.79 285.81 963.65 283.05Q959.52 280.29 954.96 278.91Q950.41 277.53 945.44 277.53Q938.66 277.53 932.86 279.94Q927.07 282.34 922.28 287.14Q917.48 291.93 915.08 297.72Q912.68 303.52 912.67 310.3Q912.67 315.28 914.05 319.83Q915.43 324.38 918.19 328.51Q920.95 332.64 924.62 335.66Q928.3 338.68 932.9 340.58Q937.49 342.49 942.23 342.95Q946.96 343.42 951.84 342.45Q956.71 341.48 960.91 339.23Q965.11 336.99 968.62 333.48Q972.14 329.96 974.38 325.76Q976.62 321.57 977.59 316.7Q978.56 311.82 978.09 307.08Q977.63 302.35 975.72 297.76Q973.82 293.17 970.8 289.49ZM134.68 342.05C128.4 342.05 122.26 340.19 117.03 336.7C111.81 333.21 107.73 328.24 105.33 322.44C102.92 316.63 102.29 310.24 103.52 304.08C104.75 297.91 107.77 292.25 112.22 287.81C116.66 283.36 122.32 280.34 128.49 279.11C134.65 277.89 141.04 278.51 146.84 280.92C152.65 283.32 157.61 287.4 161.1 292.62C164.6 297.85 166.46 303.99 166.46 310.28C166.45 318.7 163.1 326.78 157.14 332.73C151.18 338.69 143.11 342.04 134.68 342.05ZM945.44 278.53C951.73 278.53 957.87 280.39 963.1 283.88C968.32 287.37 972.4 292.34 974.8 298.14C977.21 303.95 977.83 310.34 976.61 316.5C975.38 322.67 972.36 328.33 967.91 332.77C963.47 337.21 957.81 340.24 951.64 341.47C945.48 342.69 939.09 342.06 933.28 339.66C927.48 337.25 922.51 333.18 919.02 327.96C915.53 322.73 913.67 316.59 913.67 310.3C913.68 301.88 917.03 293.8 922.98 287.84C928.94 281.89 937.02 278.54 945.44 278.53ZM539.68 775.32L540.45 775.32Q563.84 775.26 586.32 770.73Q608.75 766.21 630.27 757.25Q651.83 748.28 670.86 735.53Q689.89 722.79 706.4 706.27Q722.87 689.79 735.58 670.79Q748.34 651.71 757.31 630.1Q766.24 608.57 770.74 586.14Q775.25 563.65 775.3 540.27L775.3 539.87Q775.3 516.49 770.83 494Q766.35 471.48 757.39 449.85Q748.45 428.26 735.71 409.19Q722.96 390.09 706.4 373.53Q689.86 357 670.79 344.26Q651.71 331.5 630.08 322.54Q608.47 313.59 585.97 309.11Q563.46 304.64 540.06 304.64Q516.67 304.64 494.16 309.11Q471.66 313.59 450.04 322.54Q428.42 331.5 409.33 344.26Q390.26 357 373.73 373.53Q357.19 390.07 344.44 409.15Q331.69 428.23 322.74 449.85Q313.78 471.47 309.3 493.98Q304.83 516.48 304.83 539.87L304.83 540.27Q304.87 563.61 309.37 586.06Q313.87 608.53 322.82 630.1Q331.8 651.73 344.57 670.81Q357.27 689.8 373.73 706.27Q390.21 722.77 409.22 735.5Q428.27 748.27 449.86 757.25Q471.34 766.19 493.72 770.71Q516.24 775.26 539.68 775.32ZM540.45 774.32L539.68 774.32C477.67 774.15 418.26 749.43 374.44 705.56C330.62 661.7 305.95 602.27 305.83 540.27L305.83 539.87C305.83 477.75 330.51 418.17 374.44 374.24C418.36 330.31 477.94 305.64 540.06 305.64C602.19 305.64 661.76 330.31 705.69 374.24C749.62 418.17 774.3 477.75 774.3 539.87L774.3 540.27C774.18 602.27 749.51 661.7 705.69 705.56C661.87 749.43 602.45 774.15 540.45 774.32ZM993.39 560.85Q996.41 564.53 1000.55 567.3Q1004.68 570.06 1009.23 571.44Q1013.32 572.68 1017.76 572.81L1017.76 572.84L1018.76 572.84Q1025.54 572.83 1031.32 570.43Q1037.12 568.03 1041.92 563.24Q1046.72 558.44 1049.12 552.65Q1051.52 546.87 1051.54 540.09Q1051.54 535.12 1050.17 530.57Q1048.8 526.01 1046.03 521.87Q1043.28 517.74 1039.61 514.72Q1035.93 511.69 1031.32 509.78Q1026.75 507.87 1022.01 507.4Q1017.28 506.93 1012.39 507.9Q1007.52 508.86 1003.32 511.1Q999.12 513.34 995.6 516.86Q992.08 520.37 989.83 524.56Q987.59 528.76 986.61 533.64Q985.64 538.52 986.11 543.25Q986.57 547.99 988.47 552.58Q990.37 557.17 993.39 560.85ZM1018.76 571.84L1018.8 571.84C1019.12 571.84 1019.44 571.83 1019.76 571.82C1027.81 571.56 1035.49 568.25 1041.21 562.53C1047.17 556.58 1050.52 548.51 1050.54 540.09C1050.55 533.8 1048.68 527.65 1045.19 522.42C1041.72 517.19 1036.76 513.11 1030.94 510.7C1025.15 508.29 1018.75 507.66 1012.59 508.88C1006.42 510.1 1000.76 513.12 996.3 517.56C991.86 522.01 988.82 527.67 987.6 533.83C986.37 540 986.99 546.39 989.4 552.2C991.8 558.01 995.87 562.97 1001.1 566.46C1006.33 569.96 1012.48 571.82 1018.76 571.82L1018.76 571.84L1018.76 571.84ZM36.01 560.87Q39.02 564.55 43.16 567.31Q47.29 570.07 51.84 571.46Q56.39 572.84 61.37 572.84Q68.15 572.83 73.94 570.43Q79.73 568.03 84.53 563.24Q89.32 558.45 91.73 552.66Q94.13 546.87 94.15 540.09Q94.15 535.12 92.77 530.56Q91.39 526.01 88.63 521.87Q85.88 517.74 82.2 514.72Q78.52 511.7 73.93 509.79Q69.34 507.88 64.6 507.42Q59.87 506.95 54.99 507.91Q50.11 508.88 45.91 511.13Q41.72 513.37 38.2 516.88Q34.69 520.39 32.44 524.59Q30.2 528.78 29.23 533.66Q28.26 538.53 28.72 543.27Q29.19 548.01 31.09 552.6Q32.99 557.19 36.01 560.87ZM61.37 571.84C55.08 571.84 48.94 569.98 43.71 566.48C38.49 562.99 34.42 558.03 32.01 552.22C29.61 546.41 28.98 540.02 30.21 533.86C31.44 527.69 34.46 522.03 38.91 517.59C43.36 513.14 49.02 510.12 55.19 508.9C61.35 507.67 67.74 508.31 73.55 510.71C79.35 513.12 84.31 517.2 87.8 522.43C91.29 527.66 93.15 533.8 93.15 540.09C93.13 548.51 89.78 556.58 83.82 562.53C77.86 568.48 69.79 571.83 61.37 571.84ZM109.33 790.67Q112.34 794.34 116.48 797.1Q120.61 799.87 125.17 801.25Q129.25 802.49 133.68 802.61L133.68 802.65L134.69 802.65Q141.48 802.64 147.27 800.24Q153.06 797.83 157.86 793.03Q162.65 788.23 165.05 782.44Q167.46 776.64 167.46 769.85Q167.46 764.88 166.08 760.33Q164.7 755.78 161.94 751.64Q159.17 747.51 155.5 744.49Q151.82 741.47 147.23 739.57Q142.64 737.67 137.91 737.2Q133.17 736.73 128.29 737.7Q123.42 738.67 119.22 740.91Q115.03 743.16 111.51 746.67Q107.99 750.19 105.75 754.38Q103.51 758.58 102.54 763.46Q101.57 768.33 102.03 773.07Q102.5 777.8 104.4 782.39Q106.31 786.99 109.33 790.67ZM134.68 801.65L134.72 801.65C135.04 801.65 135.36 801.65 135.68 801.63C143.75 801.37 151.43 798.05 157.15 792.32C163.11 786.36 166.46 778.28 166.46 769.85C166.46 763.57 164.6 757.42 161.1 752.2C157.61 746.97 152.65 742.9 146.84 740.49C141.04 738.09 134.65 737.46 128.49 738.69C122.32 739.91 116.66 742.94 112.22 747.38C107.77 751.83 104.75 757.49 103.52 763.65C102.29 769.82 102.92 776.2 105.33 782.01C107.73 787.82 111.81 792.78 117.03 796.27C122.26 799.76 128.4 801.63 134.68 801.63L134.68 801.65ZM970.8 749.03Q967.78 745.36 963.65 742.6Q959.52 739.84 954.96 738.46Q950.41 737.08 945.44 737.08Q938.66 737.08 932.87 739.48Q927.08 741.89 922.28 746.68Q917.48 751.48 915.08 757.27Q912.68 763.07 912.67 769.85Q912.67 774.82 914.05 779.36Q915.43 783.92 918.19 788.06Q920.95 792.19 924.63 795.21Q928.31 798.23 932.9 800.13Q937.49 802.03 942.22 802.5Q946.96 802.97 951.84 802Q956.71 801.03 960.91 798.78Q965.1 796.54 968.62 793.03Q972.14 789.51 974.38 785.31Q976.62 781.12 977.59 776.25Q978.56 771.37 978.09 766.63Q977.63 761.9 975.72 757.31Q973.82 752.71 970.8 749.03ZM945.44 738.08C951.73 738.08 957.87 739.94 963.1 743.43C968.32 746.92 972.4 751.88 974.8 757.69C977.21 763.5 977.83 769.89 976.61 776.05C975.38 782.21 972.36 787.88 967.91 792.32C963.47 796.76 957.81 799.79 951.64 801.02C945.48 802.24 939.09 801.61 933.28 799.21C927.48 796.8 922.51 792.73 919.02 787.5C915.53 782.28 913.67 776.14 913.67 769.85C913.68 761.43 917.03 753.35 922.98 747.39C928.94 741.43 937.02 738.08 945.44 738.08ZM331.09 970.8Q334.77 967.78 337.53 963.65Q340.29 959.52 341.67 954.97Q343.05 950.42 343.05 945.44Q343.05 938.66 340.64 932.87Q338.24 927.08 333.44 922.28Q328.65 917.48 322.85 915.08Q317.06 912.67 310.28 912.67Q305.31 912.67 300.76 914.05Q296.2 915.43 292.07 918.19Q287.94 920.95 284.92 924.63Q281.9 928.31 280 932.9Q278.09 937.5 277.63 942.24Q277.16 946.97 278.13 951.84Q279.1 956.71 281.34 960.91Q283.59 965.1 287.1 968.62Q290.62 972.14 294.81 974.38Q299.01 976.62 303.88 977.59Q308.76 978.56 313.49 978.09Q318.23 977.63 322.82 975.72Q327.41 973.82 331.09 970.8ZM790.67 970.8Q794.34 967.78 797.1 963.65Q799.86 959.52 801.24 954.97Q802.63 950.42 802.63 945.44Q802.62 938.66 800.22 932.87Q797.82 927.08 793.02 922.28Q788.22 917.48 782.43 915.08Q776.64 912.67 769.85 912.67Q764.88 912.67 760.33 914.05Q755.78 915.43 751.64 918.19Q747.51 920.95 744.49 924.63Q741.47 928.31 739.57 932.9Q737.67 937.49 737.2 942.23Q736.74 946.96 737.7 951.84Q738.67 956.71 740.92 960.91Q743.16 965.1 746.67 968.62Q750.19 972.14 754.39 974.38Q758.58 976.62 763.46 977.59Q768.33 978.56 773.07 978.09Q777.8 977.63 782.39 975.72Q786.99 973.82 790.67 970.8ZM342.05 945.44C342.05 951.73 340.19 957.87 336.7 963.1C333.21 968.32 328.24 972.4 322.44 974.8C316.63 977.21 310.24 977.83 304.08 976.61C297.91 975.38 292.25 972.36 287.81 967.91C283.36 963.47 280.34 957.81 279.11 951.64C277.89 945.48 278.51 939.09 280.92 933.28C283.32 927.48 287.4 922.51 292.62 919.02C297.85 915.53 303.99 913.67 310.28 913.67C318.7 913.68 326.78 917.03 332.74 922.98C338.69 928.94 342.04 937.02 342.05 945.44ZM801.63 945.44C801.63 951.73 799.76 957.87 796.27 963.1C792.78 968.32 787.82 972.4 782.01 974.8C776.2 977.21 769.82 977.83 763.65 976.61C757.49 975.38 751.83 972.36 747.38 967.91C742.94 963.47 739.91 957.81 738.69 951.64C737.46 945.48 738.09 939.09 740.49 933.28C742.9 927.48 746.97 922.51 752.2 919.02C757.42 915.53 763.57 913.67 769.85 913.67C778.28 913.68 786.35 917.03 792.31 922.98C798.27 928.94 801.62 937.02 801.63 945.44ZM560.88 1044.12Q564.55 1041.1 567.32 1036.97Q570.08 1032.84 571.46 1028.29Q572.84 1023.74 572.84 1018.76Q572.83 1011.98 570.43 1006.19Q568.03 1000.4 563.23 995.59Q558.43 990.79 552.64 988.39Q546.85 985.99 540.06 985.98Q535.1 985.98 530.55 987.36Q525.99 988.74 521.85 991.51Q517.73 994.26 514.71 997.94Q511.69 1001.62 509.78 1006.22Q507.88 1010.81 507.41 1015.54Q506.95 1020.28 507.92 1025.16Q508.89 1030.03 511.13 1034.22Q513.37 1038.42 516.89 1041.93Q520.4 1045.44 524.59 1047.68Q528.79 1049.93 533.67 1050.91Q538.54 1051.88 543.28 1051.41Q548.01 1050.93 552.61 1049.04Q557.2 1047.14 560.88 1044.12ZM571.84 1018.76C571.84 1025.05 569.98 1031.18 566.48 1036.42C562.99 1041.64 558.03 1045.71 552.22 1048.12C546.42 1050.52 540.03 1051.15 533.86 1049.93C527.7 1048.69 522.04 1045.67 517.59 1041.23C513.15 1036.79 510.12 1031.12 508.9 1024.96C507.67 1018.8 508.3 1012.41 510.71 1006.6C513.11 1000.8 517.18 995.83 522.41 992.34C527.64 988.85 533.78 986.98 540.06 986.98C548.49 986.99 556.57 990.34 562.52 996.3C568.48 1002.26 571.83 1010.34 571.84 1018.76Z" fill="#00DDFF" fill-opacity="1.000000" fill-rule="evenodd"/>
	</g>
</svg>
