<svg width="976" height="772" xmlns="http://www.w3.org/2000/svg" xmlns:xlink="http://www.w3.org/1999/xlink"><defs><path id="a" d="M0 0h920v358H0z"/></defs><g transform="rotate(150 446.267 286.251)" fill="none" fill-rule="evenodd"><mask id="b" fill="#fff"><use xlink:href="#a"/></mask><path d="M873.774 179.927c-4.248-5.249-1.669-18.41 3.626-20.344-.525 7.422-3.622 12.439-3.626 20.344zm-9.063-15.257h-1.814c-6.03-8.512 1.932-27.774 0-38.148 2.322-.934 1.426-4.883 5.44-4.236-1.22 14.119-1.867 28.77-3.626 42.384zm-11.783 4.236h-2.721c-1.99-2.11.074-5.568 2.721-5.933v5.933zm-8.159 8.475c-1.454-1.685-6.399-2.916-3.626-5.928 2.501-.366.851 3.159 2.72 3.393 2.383-1.448-.837-8.136 3.626-7.635.788 4.976-.918 7.621-2.72 10.17zm-30.819-26.276c-1.467-1.798.213-6.078 2.72-6.782-.278 2.849 1.21 7.353-2.72 6.782zm-36.253-13.562c-3.475-2.05.739-8.176 0-11.02 1.694 1.915 1.235 9.033 0 11.02zm-27.195 61.88c-1.736-5.705-2.14-12.56.908-16.952 3.703 3.188-.872 11.77-.908 16.952zm-2.718-80.528c-1.778.407-2.92-3.886-.906-4.24 3.266-.809 1.606 3.66.906 4.24zm-2.72 21.192c-3.875-1.231.016-5.69 0-8.482 2.166 1.538.512 6.642 0 8.482zm-8.157 36.449c-3.258-.596-1.275-3.978 0-5.083 2.018.352.71 4.498 0 5.083zm-6.343-37.298c-3.251-.517-1.51-5.705-.908-7.633 2.057.904.344 5.33.908 7.633zm-31.727-38.995c-3.045.872-1.41-2.634-1.812-4.236 2.64-.128 2.752 3.437 1.812 4.236zm-4.53-5.085c-2.185.348-1.972-1.549-4.533-.845.312-15.894 1.054-38.519 3.625-55.102 1.938 16.2 3.53 38.696.908 55.947zm-27.193 113.59c-1.053.14-1.612-.186-1.812-.848.162-36.72.365-67.7.906-94.096 7.032 32.715 2.114 58.665.906 94.944zm-1.812 36.451c-2.5-1.28-1.45-5.922-.908-8.476 2.067 1.172.339 5.901.908 8.476zm2.72-133.085c-2.159-1.686-2.755-9.26-.908-11.87 1.376 2.405.276 8.262.907 11.87zm.904-44.93c-.564 9.928 1.155 21.993-.905 30.519-3.983-7.321-4.034-24.283.905-30.52zM642.64 61.25c-4.102-2.588-2.273-10.101-1.812-13.557 3.192 2.116 3.087 9.842 1.812 13.557zm-6.345 93.249c-3.61-.097-1.8-7.98.907-7.63.28 3.085-.142 5.517-.907 7.63zm0-66.123c.43 21.074 1.55 36.228 0 56.796-.982-.211-.613-1.684-1.812-1.694.976-18.006-2.416-37.94 1.812-55.102zm-4.53-38.148c4.486.862 1.913 9.737 2.718 16.109-3.447-2.996-2.492-10.102-2.718-16.11zM629.95 256.22c-2.643 2.221-3.41-2.449-7.25-1.697-3.052-42.858 2.922-81.17 5.438-118.677 5.297 15.076.335 37.606 3.626 54.255.963 3.16-3.403 1.342-2.72 4.237 8.129 13.31-2.556 32.873 3.626 50.013-2.482 3.458-2.079 8.716-2.72 11.87zm-4.532 35.604c.002-9.199.035-18.079-3.625-27.974 3.16.27 3.38-.324 9.063-.851-.653 11.167-2.124 22.496-5.438 28.825zm0 7.63c-2.856-1.44-1.128-3.945-.905-6.787 1.518 1.228 2.655 5.045.905 6.787zm-6.345-66.968c-3.87-.34-.864-7.108-1.814-10.176 4.576 1.258.727 5.388 1.814 10.176zm-1.814-53.405c4.104 7.466.7 21.95 1.814 32.213-4.18-7.396-.641-22.007-1.814-32.213zm1.814-16.11v11.874c-3.117-2.057-3.273-10.031 0-11.873zm-2.72 166.149c.75 2.4-1.279 2.198-.906 4.238-2.696-.072-2.426-5.053.906-4.238zM610.01 87.528c.59-4.069 1.363-7.173 0-11.019 4.566.162.447 7.139 2.72 11.019h-2.72zm-3.626 242.439c-6.1-8.49 3.706-23.145-.906-33.06 2.804-1.897-.234-9.262 4.532-9.325-1.22 14.709-.815 30.71-3.626 42.385zm-4.531-94.939c-4.823-2.86-1.226-15.21 0-20.343 2.265 5.867 1.351 13.715 0 20.343zm-1.814-66.123c2.314.098 1.798 2.838 1.814 5.083-1.464.242-1.563-.795-2.72-.844-.752-2.393 1.277-2.193.906-4.239zm-3.626 1.696c-3.675.325-.999-5.287-1.814-7.63 3.676-.327 1 5.282 1.814 7.63zm-3.625 36.453c-3.276-6.87 3.03-16.677 0-27.128 6.01 6.033 3.93 21.44 0 27.128zm1.811 23.732c-2.35-1.509-5.237-12.078 0-12.712v12.712zm7.254-83.073v17.801c-2.99-2.177-2.99-15.624 0-17.8zm-19.035-40.688c-.148.995-1.653.715-2.72.85-2.196-9.768-.216-22.749 2.72-30.52 3.204 7.119-4.548 21.405 0 29.67zm-4.533 105.96c-1.053.14-1.616-.186-1.812-.846-.264-16.239-.898-33.669.904-50.014.619-5.591 1.652-13.483 5.441-17.803.695 20.007.893 47.505-4.533 68.663zM582.819 263c-3.977-1.083-.79-8.87-1.813-12.716 3.976 1.087.788 8.87 1.813 12.716zm-1.813 16.107c-3.099-.45-1.388-4.084-.906-5.935 2.027.367.365 4.179.906 5.935zm-7.254 14.41c-.434-14.13 3.617-36.217 1.814-54.25 7.548 13.386.678 38.356-1.814 54.25zm-1.811-88.158c-2.045-.632-.354-4.754-.906-6.786 3.715.967.217 3.758.906 6.786zm-2.718-29.668c2.952.287 2.08 6.953.906 8.474-2.067-1.176-.34-5.898-.906-8.474zm0-66.123c3.391 6.232 1.956 21.242.906 28.823-2.865-5.975-1.57-21.612-.906-28.823zm-2.72 198.36c-7.356-5.819-2.322-17.747-3.626-26.276h3.626c2.611 5.319-3.888 13.606.906 18.647-5.124.975-1.104 4.52-.906 7.63zm-3.626-154.274c.855 8.05 1.622 27.242 0 39.838-4.166-13.969-2.386-26.707 0-39.838zm1.812-12.72c.092 3.475.18 6.948-.906 9.327-2.695-.385-3.304-10.128.906-9.327zm-.906-2.543c-2.862-.161-2.1-6.26-.906-7.629 1.11 1.8 2.126 6.234.906 7.63zm-.906-16.105c1.464 2.19 1.928 5.313.906 7.627-3.458.396-1.718-6.62-.906-7.627zm3.626 136.474c-3.047.872-1.412-2.634-1.814-4.236 2.695-.18 3.196 3.026 1.814 4.236zm10.875-22.884c-2.314-.095-1.798-2.841-1.812-5.089 4.324.116 1.207 1.922 1.812 5.09zM580.1 31.582c.196 11.17-.862 24.418-3.626 36.447-2.79-8.064-3.978-28.888 3.626-36.447zm0-15.257c5.631.522.36 5.91.906 9.32-4.085-1.424-.065-5.757-.906-9.32zm-25.384 250.066c-2.025-.363-.363-4.179-.902-5.932 4.349-.401 2.608 4.927.902 5.932zm-.902 34.753c-3.98-1.079-.788-8.868-1.814-12.71 4.661 1.876.69 7.085 1.814 12.71zm0-66.115c3.262 1.44 1.976 10.789.902 13.561-3.648-3.24-.314-8.335-.902-13.56zm-4.533-77.99c-2.06-.833-2.246-4.244.908-4.242.287 1.972-.147 3.26-.908 4.242zm0 9.325c-.594.472-4.33-6.35-.906-7.63 3.603.855.87 5.108.906 7.63zm-2.718-125.456c-3.302-.616-1.55-6.462-.908-8.48 2.777 2.256.306 4.185.908 8.48zm.906 93.243c1.393 2.653 1.442 6.564 1.812 10.172-3.004-.934-1.925-9.016-1.812-10.172zm-14.503-24.583c-4.023-1.6-.754-10.029-1.814-14.41 3.733 1.879.958 9.845 1.814 14.41zm-1.814 141.565c-3.816-.105-.902-6.505-1.812-9.325 3.818.105.9 6.506 1.812 9.325zm-1.812 16.109c-2.978-1.505-.588-8.606-.907-11.02 2.086 2.003.323 7.606.907 11.02zm-5.437-66.968c-1.12.367-1.863 1.083-1.814 2.54.594-38.42-5.395-86.486.906-125.459.775-4.788-.814-12.206 5.438-13.56 1.433 1.765 1.735 7.9-1.812 7.625 2.81 7.44 3.06 12.944.906 19.502-1.378 4.192-.26 2.017.906 7.627 1.025 4.943-.851 8.541-2.718 12.72 4.029 29.212-2.469 61.74-1.812 89.005zm-2.72 7.626c1.907.694 2.488 4.47.906 5.937-4.288-.148.326-3.353-.906-5.937zm-.906 89.855c-1.27-11.582-3.386-30.63 4.532-38.14-2.04 10.698-3.346 24.063-4.532 38.14zm-.908 11.02h-2.72c-.271-4.209.157-7.762 2.72-9.32 2.713 2.316-1.21 5.598 0 9.32zm-10.877-194.12c-1.056.137-1.613-.185-1.811-.85-1.156-10.032-.448-21.488 0-32.21.333-8.013-3.105-18.619 3.625-23.736.944 19.55-.91 41.602-1.814 56.796zm-.907 111.894c3.062 1.496-.023 4.345.907 8.48-2.382-1.655-3.949-6.47-.907-8.48zm-8.156-28.821c-.807-.375-1.62-.742-1.812-1.69 2.55-35.284 1.974-67.428 4.53-102.575 4.575 33.147 1.015 73.247-2.718 104.265zm-3.625-34.755c-.864 34.907-3.342 76.357-5.442 109.352-1.46.24-1.558-.8-2.716-.849 1.812-19.426-.866-38.816-.91-60.181-.04-22.357 7.389-44.722 8.162-66.972 5.163 5.281 1.064 12.244.906 18.65zm-.906 95.787c-3.46.4-1.719-6.62-.906-7.627 2.055.904.344 5.332.906 7.627zm-1.814 9.327c-2.767-1.568 1.045-4.027 0-6.783 3.361.628-.069 4.233 0 6.783zm-8.157-81.38c-3.401-1.596-2.357-7.02-1.814-10.171 3.393.784 1.182 6.807 1.814 10.171zm-1.814 11.02c-3.217.41-4-5.81 0-5.082v5.083zm0-27.972c3.277-.805 1.264 3.336 1.814 5.09-3.276.802-1.264-3.34-1.814-5.09zm-4.532-65.27c-1.534 40.776-.11 80.911-8.157 123.762-2.396-47.683-2.944-101.316.908-150.892.664-8.59-4.064-22.025 6.343-25.426-2.693 10.172 5.636 20.633-.906 26.275 4.663 5.608 2.185 16.36 1.812 26.281zm-21.754 125.456c-.748-7.477-2.66-14.517-4.53-22.886 1.401 1.229 1.9 3.305 1.812 5.931 3.885-22.24-2.243-46.913 6.344-69.508.285 31.341-2.261 58.478-3.626 86.463zm-4.53-5.934c-3.452.632-1.962-5.49.905-4.242.289 1.97-.147 3.262-.904 4.242zm-3.625-101.721c.253 1.368-.858 1.46-.908 2.54-1.875-22.067-5.957-52.609.908-70.357 3.844 17.54-2.377 46.101 0 67.817zm-1.818 22.886c-3.538-.676-1.76-9.782-.904-11.866 2.09 2.284.322 8.176.904 11.866zm-3.625-95.79h-3.624c.601-3.394 1.905-6.129 2.722-9.324 3.009 2.434.336 4.913.902 9.325zm-1.812 156.822c-1.053.139-1.61-.185-1.812-.845-1.285-25.63-.173-53.167 0-76.293.124-16.097-4.787-33.487 2.722-50.015-.309 39.8 1.08 79.016-.91 127.153zm0 11.026H438.7v-3.393c2.388-.259 2.973 1.17 2.716 3.393zm-4.53-190.73c2.124.655 3.664 4.094 1.814 5.929-2.794-.035-3.243-4.5-1.814-5.928zm-21.754 267.864c-7.62-33.82 4.301-73.372 9.061-107.657 2.03-14.579 1.58-28.857 7.256-40.688-3.291 50.447-8.633 101.787-16.317 148.345zm2.72-221.243c3.957 1.789 3.608 8.604 3.626 12.712.064 16.385-1.778 39.024-3.626 54.254-1.056.137-1.616-.188-1.812-.849 1.25-21.407.027-47.718 1.812-66.117zm6.341 72.898c.122 2.091.141 4.084-.904 5.086-1.383-.015-1.987-6.281.904-5.086zm-23.563 7.635c-1.675 40.816-6.534 82.568-10.877 121.217-1.055.137-1.612-.19-1.812-.849 1.694-58.198-1.717-121.196 10.877-178.015 3.71 2.68 3.524 6.67 3.625 10.172.423 14.859-1.155 31.407-1.813 47.475zm-11.783-66.972c1.572.77 2.343 2.969.906 4.24-2.307-.087-2.143-3.159-.906-4.24zm4.533 3.395c2 .101.383 3.59.904 5.081-1.463.24-1.56-.801-2.718-.845-.14-2.112 1.424-2.626 1.814-4.236zm-11.785 8.472c2.724 45.654-9.89 97.609-13.596 146.65-1.053.137-1.612-.186-1.814-.847-.451-38.041 3.39-84.58 5.44-123.764.393-7.541-.714-17.694 0-27.125.41-5.415-.237-14.796 7.249-15.259 6.178 4.893 2.325 13.69 2.721 20.345zm-14.502 184.793c-1.896.363-2.4-.575-3.628-.845 1.22-1.97-.124-6.332 3.628-5.934 2.004 1.857-.897 3.465 0 6.779zm-.908-206.832c.097-4.713-.72-10.282 1.814-12.716 3.45 1.426 1.67 9.885.907 12.716h-2.721zm2.721-36.452c1.677 5.541 1.274 16.436 0 22.043-4.984-3.218-.94-16.294 0-22.043zm-18.132 214.466c-1.461.24-1.556-.8-2.716-.845.202-36.822-1.581-85.667 12.69-121.218-2.682 37.964-5.623 81.21-9.974 122.063zm-3.621-135.63c-3.573-1.015-.122-4.209-1.814-7.625 3.675-.337.997 5.276 1.814 7.626zm-2.72 55.952c-1.793-4.97-2.166-14.686 1.814-18.658-1.205 6.193.91 11.687-1.814 18.658zm-.908 9.319c-3.449.055-1.323-7.532.908-7.63.624 3.41-.868 4.842-.908 7.63zm-3.624-27.977c-1.777 15.63-6.589 31.246-4.535 49.171-1.675.126-.556 2.87-1.812 3.39-1.54.315-1.71-.66-1.814-1.694 2.227-43.774 3.179-84.082 5.441-125.46 3.95 16.488 2.222 32.272 1.812 48.318-.213 8.43 1.879 17.708.908 26.275zm-9.973-56.792c.573 10.726 4.117 21.967-.904 32.21 5.251 17.785-1.503 43.805-.91 63.578.174 5.655 2.2 10.923 1.814 16.11-1.302 17.56-5.011 33.559-7.25 56.793-.618-54.145 2.837-126.405 5.436-179.711-1.13-4.434-3.73-12.733.91-15.255 5.807 6.75.392 16.646.904 26.275zm-5.437-14.41v12.717c-4.513-.625-3.41-11.782 0-12.716zm-27.192 73.75c-3.92-7.985 1.734-21.486 1.814-31.364 2.086 9.587 1.108 23.636-1.814 31.364zm-4.531-15.257c-.229 2.442-2.522 5.135-2.722 7.627-1.296 16.507-.756 33.045-2.716 49.17-2.47 20.3-9.41 39.643-10.879 60.184-4.518-7.811-.139-16.583 0-25.43.695-43.97-3.287-99.064 1.814-141.566 1.456-12.123 5.055-32.656 14.503-37.3 2.704 14.682-.823 29.828-.908 44.93-.078 14.129 2.242 28.156.908 42.385zm-43.508 66.968c.255 1.368-.857 1.46-.906 2.54-1.055.14-1.612-.186-1.814-.846 4.387-42.26 6.762-95.472 9.971-143.255 2.402 45.7 1.003 96.463-7.251 141.56zm-66.166-106.812c-2.269-1.062-3.721-11.317.904-11.022-.366 3.614.877 8.737-.904 11.022zm0 20.346c-4.966-1.704-3.588-16.76.904-17.801-.337 5.901.835 13.21-.904 17.8zm-2.722 40.69h-2.718c.295-15.981 1.241-28.623 3.626-38.993 4.686 11.9-1.956 24.658-.908 38.993zm-18.126-24.583c-2.002-.107-.387-3.599-.908-5.09 2.486.018 2.154 4.001.908 5.09zm-4.534 100.025c-5.078-31.084 2.122-57.677 3.626-85.613 1.05 25.618.834 59.39-3.626 85.613zm-17.22-165.297c-4.242-2.057-.916-10.773 2.72-11.02.312 4.814-2.402 6.797-2.72 11.02zM78.855 279.107c-2.722-4.006-.843-12.716 4.535-15.256-1.909 5.872-3.875 10.093-4.535 15.256zM10.875 98.55c.75 2.393-1.277 2.198-.906 4.238-3.538.55-1.437-5 .906-4.238zm101.519-33.908h-2.718c-.063-2.883-.282-5.914 1.812-6.782 4.21.173.344 4.674.906 6.782zm513.025 3.388c-3.604-.975.417-5.31-.905-9.32 2.797 1.243 1.91 6.874.905 9.32zM920 120.589c-10.506-5.708-13.694 5.884-16.315 12.717-11.12-1.659-1.364-16.722-3.625-23.738-19.685-8.96-16.99 27.695-26.286 33.91-.192-10.636 2.678-18.406 1.812-29.674-25.629-11.388-18.393 33.347-30.817 39.85 2.274-12.853-.377-30.31 1.812-43.241-18.4-12.463-18.557 30.077-28.098 34.759 1.3-11.725 5.847-23.206 3.626-35.604-5.236-2.282-6.505-12.404-13.597-10.172-6.7 14.36-8.045 33.733-15.408 47.473-2.208-14.961 4.221-31.906 0-40.69-3.614.466-2.73.466-6.344 0-3.222 3.486-3.936 9.317-7.251 12.716-1.484-2.153 1.382-7.888-.908-11.019-3.802-2.116-6.202 1.374-8.157 0-2.354-2.656 1.266-5.654-.906-8.48-3.203-.609-3.188-.85-7.251-1.693-2.486 6.713-3.232 15.058-5.438 22.039-5.194-10.85-.64-27.52-.908-44.08-2.097-1.148-3.003-3.409-7.251-2.54-5.714 5.11-7.723 13.688-7.251 24.58-3.948 1.352-4.796 1.55-7.252 5.085-.133-20.998 4.054-39.41.906-60.185-21.76-6.75-9.293 40.072-18.126 50.01-5.828-3.386-.28-13.051-.908-19.49-3.395-.498-2.739-.64-7.251-.852-3.262 5.71-1.334 16.273-5.438 21.193.61-15.438-2.49-31.478-2.72-48.32-.16-11.664 3.875-22.08-9.063-22.037-10.053 7.979-.974 30.648-12.69 35.603-3.44-.746-1.839-6.192-5.438-6.78-3.361-.603-3.89 1.442-7.251.845-3.7-12.927 3.932-36.46-7.254-42.384-5.673 4.3-6.149 13.46-8.155 21.192-4.859-.236-2.9-6.514-8.159-4.242-3.913 1.429-.31 9.884-2.72 12.718-2.784-.223-4.076-1.837-6.343-2.54-.46 2.11.03 5.11-2.72 5.084-1.715-6.373 2.168-14.314-4.532-16.958-3.197 2.046-3.079 2.653-7.25.857-4.215 11.294 2.317 18.198 2.719 29.662.144 4.158-2.16 8.402-1.814 11.866.143 1.417 3.289 4.71 3.626 7.633.384 3.305-.295 4.687 0 7.63 2.059 3.036 2.71-3.187 3.625-.85-1.239 8.016 2.899 23.343-1.812 29.672 1.997.676 3.619 1.702 3.626 4.236-4.825 19.008-3.357 44.611-7.251 63.577-2.027-43.212-.822-79.454-4.534-122.915-4.267-9.045-1.661-21.575-3.625-33.061-8.013 1.282-6.026-6.794-11.781-7.626.873 3.82-4.854 5.677-5.44 6.78-3.622 6.808-.79 17.724-11.783 16.106-2.883-11.924 9.882-34.443-2.72-36.453-6.459 3.285-6.143 12.907-9.97 18.652-3.316.558-3.476-1.836-6.344-1.694-4.868 3.92-4.286 12.945-6.345 19.495-11.151-4.531 2.312-27.025-10.877-30.517.249 3.235-2.278 6.954-1.812 12.716-2.255-.093-2.807-1.589-4.534 0-4.942 12.372 5.44 33.19-3.625 41.536-6.553-9.21 5.296-27.549-8.158-27.975-2.124 7.901-1.383 18.484-9.063 21.192-3.24-21.394 1.907-40.508-1.814-55.947-.77 2.487-2.28-1.1-4.531 0-5.067 11.654 2.35 19.875-.906 27.124-.143-.995.154-2.402-.91-2.54.58 10.595 3.555 17.882-.904 22.893-1.713-.194-2 .951-3.626.845-5.47-1.43-1.126-6.817-3.625-11.02-2.56.698-2.349-1.198-4.532-.851-8.502 19.658-.304 42.588-3.625 61.036-.482 2.673-2.45 4.443-2.718 6.782-1.409 12.189.849 23.843-4.534 33.906-.25 3.903 4.28 14.604-2.721 14.406-.703-33.731 4.383-70.488 2.721-107.654-1.048-2.124-3.612-2.838-3.625-5.932 1.083-8.35.894-21.67-.906-27.975-.234 1.985-3.982.49-4.532 0-7.438 9.616 4.574 32.331-9.971 34.755-.225-5.575 2.463-8.428 1.812-14.41-2.653.221-2.785-1.912-5.438-1.695-4.982 13.605 2.707 30.35-6.345 42.384-.07-18.208-6.106-24.994-1.812-40.688-6.564-6.453 4.23-18.955-5.44-22.043-6.85 7.418 5.413 29.067-6.347 38.154-1.452-9.06-.112-25.598.91-34.76-2.76.035-3.525-1.79-5.437-2.543-3.282 2.864-2.513 9.518-5.44 12.716-1.852-1.095-1.648-4.113-5.437-3.39-2.78 5.32-2.355 15.769 0 21.192-3.373 24.304 4.826 50.178-5.442 72.896.088-24.975 4.781-46.765-6.341-66.968-4.787 1.178-4.623 6.986-11.785 5.938-7.585 7.315-9.79 19.666-14.5 29.668-.545-8.103.865-21.124 0-28.82-9.022-3.22-6.896 10.97-9.066 16.953-4.644-2.415-8.662 1.488-11.783 0 .22-15.995.78-25.543 0-39.838-3.616.458-2.73.458-6.347 0-2.585 4.894-4.045 8.992-1.812 14.406-4.851 8.571-2.58 18.97-1.812 28.823 1.498 19.173-3.911 32.563-7.251 47.47-1.795 8.002.14 16.775-5.438 22.887-2.69-22.71 5.227-53.245.902-77.14-4.137-1.653-5.272 2.636-9.06 5.087-1.012-5.117-5.528-6.066-6.348-11.867-.87-6.189 5.333-15.315-1.812-17.8-8.332 1.813.253 19.448-5.44 23.734-4.65-4.813.18-18.654-1.81-23.735-9.44-.795-8.372 8.971-6.343 14.41-3.755 3.376.51 7.28 0 11.873-.877 7.835-8.152 16.332-10.88 22.882 1.257 8.545-.848 19.856-5.436 28.821.257-27.582.968-48.053-5.44-70.36-3.785.717-4.278-1.645-7.251-1.69-3.938 1.067-6.511 7.148-9.97 5.931 1.438-1.267 1.325-4.835-1.813-4.241h-3.626c-5.677 12.96-1.688 27.455-2.72 40.694-.719 9.224-3.062 18.728-4.53 27.124-2.218 12.695-3.886 26.707-9.064 38.142.114-35.487 5.68-66.608.904-99.176-14.61.567-6.033 19.675-9.062 24.583-4.034-4.09-10.26-4.828-16.314-5.085-.367-3.615.875-8.733-.908-11.018-12.146-.681-6.005 8.712-6.345 14.41-.668 11.207-7.415 23.812-9.97 32.212-3.753 12.328-3.126 26.32-9.064 36.449-1.123-23.006 9.308-53.808 3.625-75.442-.43-7.513.967-16.731-.906-22.893 2.153-2.528 3.2-9.959-2.72-9.32-9.148 6.859-.29 22.485-1.813 33.058-13.766 11.99-12.54 38.002-19.034 56.796-3.83-13.249 4.476-36.601-1.812-50.015-3.957-.263-4.031 2.506-7.252.848-4.668 39.663 2.731 93.95-13.596 132.242.08-20.756-.463-42.076 0-61.04.776-31.76 4.267-65.845 3.627-98.328-8.254 2.625-9.145 9.98-20.85 7.632-1.553-1.374-.348-5.327-3.625-5.09-3.25 1.118-3.32-.054-6.344.848-5.677 5.033-.063 15.431-5.437 20.345 1.85 32.11-12.06 68.829-20.848 99.177-.282-40.655 7.991-90.722 3.625-127.153-2.769.614-3.302-.862-5.437-.845-2.549 1.294-2.777 4.75-4.536 6.78-.677 2.897 3.685 1.081 2.722 4.24-7.204 26.59-5.023 48.23-8.157 81.378 4.067-4.174 4.25-11.32 4.533-16.954.944-19.082 1.586-39.12 6.344-59.335 4.07 13.005 1.237 28.524.906 44.92-.482 23.901-2.674 49.691-3.626 73.753-.729 18.44-10.675 33.17-13.595 49.167-5.923 7.18-8.117 22.358-15.412 25.428 2.984-57.234 10.46-132.337 9.065-189.03-16.507-1.66-3.986 14.46-11.783 19.49 4.115 12.334-7.211 36.372 0 46.627-.405-12.669 5.1-28.384 6.343-42.384.491-5.49-3.679-12.667 2.722-16.108-.059 52.688-6.414 121.732-9.971 172.929-.246 3.541 2.68 10.583-3.626 11.865-3.838-39.647-1.812-81.297-1.812-122.062 0-29.442 5.267-62.085-9.065-85.618-16.883-3.355-13.67 12.079-21.754 16.95-.007-4.346 1.329-5.558 0-9.318-2.255.093-2.805 1.587-4.531 0-3.593 4.217-6.155 8.687-3.626 14.41-1.178 2.57-2.63 4.886-3.626 7.627 3.459 10.853-2.55 23.774-1.811 37.297-6.192 12.296-6.548 30.05-14.505 40.69.063-27.591 5.862-51.242 2.72-76.292H7.25c-4.423 15.12-2.173 39.926-4.531 62.73 7.388-7.781 2.295-27.24 7.25-37.294C8.082 168.672 2.86 222.96 0 271.476c2.562-.698 2.349 1.197 4.532.849 6.32-6.236 5.64-19.023 7.25-29.667-3.446-1.248-.176 3.79-3.625 2.541.482-30.593-2.162-75.86 13.597-99.18-1.443 24.617-8.502 56.668-7.253 81.38 5.468-23.412 5.782-47.282 9.065-70.36 1.709-12.006.384-24.918 6.345-32.212-4.895 33.306-1.085 65.201-8.157 100.03 3.816 12.534-4.465 30.864.908 43.23 9.269.468 11.642-10.006 9.967-16.954-3.49.409-1.106 6.312-4.53 6.782-1.89-7.627 1.053-17.601.904-27.974-.567-40.183-.047-96.146 6.346-130.545 1.766-9.492 9.257-32.741 15.41-37.295 1.742-1.294 6.867-5.392 9.062 0-.665 3.048-7.145.662-8.158 3.39-2.225 20.08-3.256 53.238-4.53 72.9 6.424-12.236 3.082-28.39 7.252-42.384.028 44.782-2.34 92.246-4.534 139.022.042 2.58-1.916 3.292-2.717 5.083 5.877 6.615-1.987 19.817.906 30.52-2.2 2.96-5.434 8.75-2.72 13.56h5.44c1.82-5.35 4.006-14.189.903-16.95-.85-3.625 3.592-2.295 3.626-5.093-6.016-18.36-.189-44.367.906-70.355 1.741-41.23.53-95.237 4.533-127.153 12.819 56.838 1.336 121.646 3.628 176.316.776 18.555 8.214 25.054 9.063 42.385-4.354 1.484-4.606 10.708-2.72 15.264 8.957-.272 10.801-10.895 12.691-18.654 1.155-4.748-.051-10.065 2.716-13.56-.297-1.98-1.089-3.502-1.812-5.088 9.016-12.198 11.756-30.26 20.846-42.384-2.424 37.47-5.555 58.575-6.343 91.551 12.776-.203 11.886-17.7 12.69-26.279-2.49 2.758-1.832 8.46-6.347 9.325.59-3.404.982-6.996 2.722-9.325-6.207-56.233 5.618-109.095 22.662-155.974.59 5.098-1.196 12.419.902 16.105 4.967-19.146 1.186-44.424 11.787-61.03-4.387 63.582-9.38 130.378-10.877 191.578-1.799 7.725-7.265 21.99-1.812 30.513.769-1.256 2.28-1.819 4.53-1.695 1.061-71.796 7.4-151.877 11.78-222.942.432-6.977-2.204-12.703 8.161-15.255 4.631 17.29 4.507 38.924.906 54.25.337 13.582 2.458 37.868-2.717 49.164.011 1.4 2.512.472 2.717 1.696-6.908 25.267-2.795 63.325-6.343 89.013 2.682 3.162 6.895-2.027 8.155 0 .684 6.194-2.539 11.237.908 15.256-3.955.794-3.23 9.624-1.814 12.712 8.52 2.453 7.016-6.243 8.158-11.02 2.9-12.124 6.72-26.39 5.44-38.14-2.565 7.488-1.01 18.834-7.252 22.881-2.033-30.391 8.197-53.007 15.408-76.292 1.05-3.393-1.589-8.033 3.626-10.166.402 30.81-3.675 57.677-1.814 89.005 10.137.698 6.764-10.27 5.44-16.108 4.048 3.203 9.055-12.065 5.44-16.105-2.435 2.807-.37 9.825-4.534 11.02 0-31.087-6.513-69.335 3.625-102.571 5.64-18.484 7.44-36.6 13.597-53.405-.615 14.933 3.083 29.332.906 46.624-.902 7.158-2.356 17.51-4.532 25.429-.293 1.058-2.535 2.32-2.721 3.39-1.538 8.924-.286 18.56-1.812 27.129-.695 3.909-3.712 6.757-4.53 11.02-1.616 8.383.548 18.245-3.627 26.275 3.958-1.157 1.93 3.281 5.44 2.543 2.622-7.154 5.522-14.048 7.25-22.037 2.141 28.37-4.03 63.422-4.533 93.244 3.787-.19 4.28 1.376 7.251 0 1.764-2.591 2.073-6.542 1.814-11.02-.904-1.132-2.45-1.665-2.718-3.391-.343-53.475 4.282-129.27 22.66-178.012 1.437 18.874-2.779 33.252-1.814 51.707 4.572-5.621 3.017-17.047 3.626-27.978.706-12.687 1.661-26.385 4.531-34.753-1.962 48.21-.409 95.066-6.343 141.57 2.84 16.311-3.142 36.485-1.814 60.184 8.386 2.068 7.716-8.375 9.065-14.414 2.237-10.015 6.806-21.666 3.624-29.668-.516 5.747-.674 13.127-5.438 16.952-2.224-6.133.23-13.135 0-20.343-1.811-56.785 6.687-115.256 3.626-164.45 2.105-2.273 4.359-4.405 8.16-5.088 7.066 11.253 3.848 24.256 4.529 37.3 1.288 24.558-.148 58.788-4.53 85.615-.276 1.68-2.226 2.535-2.723 4.238-2.297 7.91 1.071 16.1 0 22.89-1.405 8.931-10.5 18.543-1.812 22.886-.259-3.917 3.768-3.823 5.437-5.934 3.712-6.14 1.662-17.662 8.161-21.192-.704 15.898-.01 31.177-4.533 44.927 1.178 9.783.738 20.783-2.718 28.82 4.423 5.353-7.45 16.03.904 22.046 8.281-1.305 6.374-12.126 9.065-18.655-1.558-.332-2.324 1.261-2.718 0 1.78-57.379 3.046-120.868 19.94-169.54 3.832 5.742.891 17.82 1.813 26.285-2.389-.219-2.975-1.749-2.718 1.692-.796 3.954 2.35-1.167 2.718 1.697 1.332 53.087-2.412 97.013-2.718 128.847-4.307 2.75-3.967 10.752-1.812 15.259 10.993 1.039 5.748-10.84 9.063-15.259-2.272-1.958-2.868 2.499-4.533-.849 2.127-3.092 1.138-9.106 2.72-12.716 2.911-.742 1.242 2.798 3.625 2.545.792-1.237.72-3.28 3.624-2.545 5.032-33.014 7.632-74.5 18.132-105.106-1.555 28.604 2.324 66.829-1.814 96.63 1.304 2.173.858 5.98 2.718 7.631-4.395 2.564-3.04 12.313.908 14.41 7.04-.011 10.745-22.364 5.437-26.275-2.674 1.737.86 9.28-1.812 11.02-2.451-21.719-1.813-41.252-1.813-61.886 0-25.035-3.592-52.581.904-75.442 3.279-16.652 8.608-35.754 13.598-51.713 1.784 2.29.539 7.414.908 11.022.287 2.81 2.803-3.305 3.626 0-.788 52.866-3.131 110.224-7.254 161.061-.114 1.422 1.814 3.374 1.814 5.087 0 3.79-1.134 11.885-1.814 17.801-1.52 13.276-6.564 26.768.908 31.364 5.744-3.408 3.257-10.58 4.532-16.95 2.742-1.167 3.24.401 7.251 0 3.595-22.26 6.89-48.063 10.877-71.208 1.005-5.835-.49-13.182 5.438-16.952.934 5.395-1.268 7.85-2.718 11.02.809 1.5 3.679 1.08 2.718 4.236-.097 18.77-5.493 30.13-1.814 49.17-2.038 6.726-4.783 15.817-2.718 23.734 3.133-.672 3.828.942 5.44 1.693 6.708-39.021 11.819-80.138 14.5-120.372 1.325-19.881.326-39.77 1.814-58.492.411-5.182 1.618-12.889 5.438-16.95-2.851 80.34-4.46 150.762-12.69 222.942 2.563-.7 2.347 1.193 4.532.845 4.654-4.407 2.642-9.671 3.624-15.255 6.285-35.685 13.367-80.738 19.942-116.979.862-4.746-.738-11.432 3.626-14.415-.662 43.014-4.368 70.92-4.532 106.811-2.961 3.085-4.984 16.045 0 18.646 10.152-4.55 5.358-17.923 6.346-26.273.14-1.2 2.398-2.933 2.72-4.244 5.045-20.48 7.041-46.257 9.063-70.359 3.092-36.89 1.018-75.802 6.345-112.741 2.177 1.075-.5 6.683 1.814 7.63.205-1.505-.916-4.245 1.812-3.39-4.012 57.943-4.403 121.666-15.409 178.86 1.705 2.563 4.195-3.228 5.438-.847-2.669 10.136.41 18.2.904 25.428.65 9.455-6.664 17.777-2.716 27.128.217-2.183 1.558 1.165 3.625 0 3.582-2.715-2.752-10.202 1.812-11.017 2.035 1.77.813 6.581 3.626 7.628 8.816.481 5.209-5.599 6.345-11.019 5.274-25.184 10.42-55.054 13.595-84.772 2.758-25.79 1.95-52.006 8.157-73.748-.436 35.81-.434 65.498-.904 99.18-1.806.854-2.069 3.153-3.625 4.236 2.004 19.944-5.149 45.266 1.811 60.187 8.588-2.489 6.363-14.379 8.156-23.732 2.76-14.387 4.029-29.17 7.255-38.994-1.86-11.256.81-20.493 2.718-30.519 3.05 27.914-1.892 43.707-3.626 66.123 5.66 6.124-7.638 25.368 4.534 25.43 7.512-33.38 4.64-78.081 12.688-108.507 3.617 13.773-4.244 25.063 1.812 34.755-.86 14.028-2.396 39.89-3.625 57.641 10.774.811 8.825-11.148 9.97-18.647 3.208-21.002 7.03-41.627 10.878-60.186.415 13.072 2.344 32.39-1.814 44.08 3.422 13.86-3.464 30.403.906 44.929.597-2.539 1.937.81 3.624 0 2.5-9.955.036-28.475 6.347-37.298.194 4.62-.626 10.19.908 13.561 4.3 1.978 4.332-4.333 6.343-1.695.92 3.505-3.643 9.631.908 11.02 5.453.337 3.98-5.95 4.53-8.474 2.697-12.373.392-21.624 1.812-33.063 1.071-8.61 3.081-16.652 3.623-25.43 1.736-27.95 5.92-53.953 3.63-81.378-3.45 29.9-2.109 50.006-6.346 77.14-2.742-7.53-2.856-19.798-1.811-30.52 1.749-17.953 3.972-38.57 7.25-51.705.155 1.266-.323 3.129.907 3.391 3.574-7.07-2.642-19.047 3.626-25.434-2.867 42.594 2.864 97.96-4.532 140.714 5.69 4.206-2.522 12.732 1.812 18.658-4.747 9.4-5.074 22.94-6.347 35.6 2.068-.24 3.41.203 3.625 1.693 4.282.617 1.597-5.292 6.347-4.236 1.837.537.598 3.962 2.72 4.236 6.33-26.286 11.324-59.313 11.781-93.242-1.583 4.73-.243 12.2-3.624 15.254-.241-12.316-1.288-23.192 2.72-36.447 5.775 5.112-3.216 15.379 2.72 18.646 1.347-19.751 7.14-46.632 2.718-63.576-.874 15.009-2.368 29.434-3.626 44.08-3.85-16.482.782-39.27 3.626-55.1 2.388 2.115-2.625 8.019 2.72 8.473 2.064-23.679-.32-41.935 3.625-66.11 2.882 57.617-3.355 116.887.906 171.226-2.91.746-1.878-2.194-3.626-2.544-.198 18.515 4.212 28.886 2.72 47.475 2.162 2.847 6.568-1.68 7.251 0 .012 2.85.76 7.719.906 12.712 5.35-.13 7.819-3.387 10.877-3.39.66-1.925-1.633-6.614 1.814-5.93 2.882 13.172-3.65 31.472 1.812 41.533 5.624-.483 7.622-10.46 8.157-12.712 3.732-15.674 2.903-35.44 5.44-52.56 1.104-7.45 3.812-14.385 4.531-21.192 5.312 15.753-6.47 31.415 0 43.233-1.949 4.331-7.698 19.118 0 19.498 3.698-1.678 3.908-7.047 2.72-11.02 6.243-16.292 5.715-41.766 8.157-61.036.5-3.955 1.235-9.879 5.44-11.868.007 27.218-5.876 55.487-4.534 87.315 1.924 2.158 4.039-2.52 6.346 0 1.292 9.761-4.083 22.074-1.812 27.124 6.533 1.013 6.362-11.557 8.157-17.803 7.628-1.341 9.154-8.388 10.875-15.256-4.105-1.298.482 5.534-3.626 4.238-.493-1.233 1.06-4.38-.906-4.238-.968.793-.281 3.128-2.72 2.544 1.358-8.095-1.507-14.939 1.814-21.192 3.314-.558 3.476 1.833 6.346 1.694 5.415-3.412 4.735-12.524 8.157-17.801.93 4.497.322 10.436 1.814 14.408.577 3.08 4.235-1.964 4.53.848v8.48c10.153 1.888-3.756 15.894 5.439 20.346 2.762 1.07 2.695-3.793 6.345-4.242-.036 2.58-.527 5.578 2.72 5.09.596-1.14 1.936-1.581 3.626-1.7 9.299-24.118 6.022-57.703 10.877-87.308 3.536 4.588.365 10.864 6.345 11.865 8.863 1.488 5.617-12.562 10.875-17.803-.104-5.836.487-12.322-.908-16.952 5.308-5.395 3.063-19.805 7.254-23.737-.215 4.28.555 6.41.906 13.563 2.251 1.106 3.762-2.489 4.533 0 1.635 14.406-4.058 27.53-1.814 37.298 6.523 1.583 6.456-3.005 9.063-5.085-1.1 4.419 3.735 3.288 7.252 3.391 3.298-6.805 3.11-16.87 9.97-20.343.713-8.267-.962-14.279 3.626-19.499 1.34 16.222-5.218 26.27-1.811 39.842 10.837-1.895 11.836-16.665 13.594-27.974 2.24-14.397 1.394-28.689 6.346-38.145 5.508 19.73-6.277 48.63 3.625 60.187 7.065-.831 7.667-10.091 9.065-16.956 1.335-6.573 3.373-14.331 4.53-21.192 1.902-11.256-.05-25.578 8.16-27.974 2.578 17.48-6.614 41.663-.908 56.796 13.122-2.881 11.082-29.478 12.692-38.993 2.32-3.201 2.233-8.65 3.624-12.716 3.639 15.306-5.96 29.988-1.812 45.775 11.465-3.071 12.424-20.524 14.5-33.06 3.055-18.444 7.04-34.448 10.878-49.166v22.039c.247 1.749 4.014.207 3.625 2.544-.468 14.772-7.481 41.494-5.437 58.492 4.794.97 8.378-3.808 9.969-7.631 8.032-19.307 8.325-50.661 16.316-68.662-2.07-2.81-2.786-9.317.906-11.02 5.333 9.568-3.083 32.07 7.252 34.757-.025 12.114-.792 20.334 1.813 30.513 2.86.417 3.2-1.528 6.346-.845 3.378-7.955 5.455-19.39 8.155-25.432 2.954 1.393-1.656 4.6.908 5.935 3.405 2.912 5.38-4.87 9.063-1.697-1.243 10.598-4.429 21.774-.908 33.91 4.498 1.094 4.456-2.053 8.16-1.7 6.688-17.743 6.89-45.229 17.22-56.792 3.687 12.816-8.471 26.576.908 37.3 6.49-1.288 10.097-12.592 16.316-16.956.255 4.997-1.145 14.659 1.812 21.192 10.85.645 7.052-10.204 7.251-16.107.642-18.895 4.365-45.386 5.438-64.424z" fill="#343434" mask="url(#b)"/></g></svg>