<?xml version="1.0" encoding="UTF-8"?>
<svg width="976px" height="772px" viewBox="0 0 976 772" version="1.1" xmlns="http://www.w3.org/2000/svg" xmlns:xlink="http://www.w3.org/1999/xlink">
    <title>2A72B596-4BE5-4BD1-A235-C74B2048FF58</title>
    <defs>
        <polygon id="path-1" points="0 0 920 0 920 358 0 358"></polygon>
    </defs>
    <g id="Page-1" stroke="none" stroke-width="1" fill="none" fill-rule="evenodd">
        <g id="Home-Dark" transform="translate(-785.000000, -928.000000)">
            <g id="Group-6" transform="translate(785.128314, 895.000000)">
                <g id="Group-3" transform="translate(487.871686, 419.000000) rotate(150.000000) translate(-487.871686, -419.000000) translate(27.871686, 240.000000)">
                    <mask id="mask-2" fill="white">
                        <use xlink:href="#path-1"></use>
                    </mask>
                    <g id="Clip-2"></g>
                    <path d="M873.774277,179.926916 C869.52626,174.678351 872.105141,161.516976 877.399935,159.583494 C876.874643,167.005323 873.778083,172.021717 873.774277,179.926916 L873.774277,179.926916 Z M864.711081,164.670301 L862.8973,164.670301 C856.867858,156.158035 864.829081,136.895536 862.8973,126.522103 C865.219244,125.587714 864.322821,121.638921 868.33674,122.285952 C867.116767,136.404553 866.469668,151.056004 864.711081,164.670301 L864.711081,164.670301 Z M852.928165,168.906453 L850.206542,168.906453 C848.217664,166.795989 850.280768,163.338178 852.928165,162.972796 L852.928165,168.906453 Z M844.769005,177.380658 C843.314935,175.696474 838.370336,174.465212 841.143347,171.452711 C843.644195,171.087328 841.994092,174.611745 843.863067,174.845818 C846.245914,173.39761 843.025644,166.710353 847.488725,167.21085 C848.276664,172.187281 846.571367,174.832497 844.769005,177.380658 L844.769005,177.380658 Z M813.949953,151.105483 C812.482561,149.307116 814.163115,145.027195 816.669673,144.323073 C816.391801,147.171914 817.880129,151.676392 813.949953,151.105483 L813.949953,151.105483 Z M777.697171,137.542567 C774.221867,135.493001 778.435625,129.367138 777.697171,126.522103 C779.391048,128.438457 778.932369,135.555801 777.697171,137.542567 L777.697171,137.542567 Z M750.501874,199.423489 C748.766126,193.718196 748.36264,186.863471 751.409716,182.471271 C755.113408,185.658851 750.538036,194.24153 750.501874,199.423489 L750.501874,199.423489 Z M747.784058,118.894747 C746.006438,119.301996 744.864498,115.008754 746.878119,114.65479 C750.144066,113.846001 748.484447,118.314322 747.784058,118.894747 L747.784058,118.894747 Z M745.064338,140.086922 C741.189355,138.85566 745.079563,134.396854 745.064338,131.605104 C747.230217,133.142755 745.576307,138.246689 745.064338,140.086922 L745.064338,140.086922 Z M736.907081,176.535712 C733.648746,175.940062 735.631915,172.558373 736.907081,171.452711 C738.924508,171.804772 737.616987,175.95148 736.907081,176.535712 L736.907081,176.535712 Z M730.563605,139.238169 C727.312883,138.720544 729.054341,133.532877 729.655763,131.605104 C731.713158,132.509045 730.000248,136.935499 730.563605,139.238169 L730.563605,139.238169 Z M698.836711,100.243122 C695.791538,101.114711 697.426415,97.6093241 697.024833,96.0069704 C699.664617,95.8794672 699.776908,99.4438479 698.836711,100.243122 L698.836711,100.243122 Z M694.307016,95.1582177 C692.122105,95.5064727 692.335267,93.6091489 689.773515,94.3132711 C690.085645,78.4191401 690.827906,55.7939817 693.399174,39.2109528 C695.336665,55.4114721 696.929671,77.9072243 694.307016,95.1582177 L694.307016,95.1582177 Z M667.113623,208.74835 C666.061135,208.887271 665.501585,208.561853 665.301745,207.899597 C665.46352,171.180577 665.667166,140.199201 666.207684,113.804134 C673.24013,146.519173 668.322176,172.46893 667.113623,208.74835 L667.113623,208.74835 Z M665.301745,245.199042 C662.8028,243.918301 663.851482,239.276804 664.393903,236.722934 C666.460814,237.895202 664.732679,242.624239 665.301745,245.199042 L665.301745,245.199042 Z M668.021465,112.114241 C665.863199,110.428154 665.267487,102.854083 667.113623,100.243122 C668.48966,102.648555 667.389592,108.506091 668.021465,112.114241 L668.021465,112.114241 Z M668.925501,67.1836337 C668.362144,77.1117565 670.080763,89.1769852 668.021465,97.7025727 C664.037998,90.3816051 663.986611,73.4198726 668.925501,67.1836337 L668.925501,67.1836337 Z M642.63995,61.2499771 C638.538483,58.6618523 640.367489,51.1486783 640.828072,47.6927705 C644.019794,49.8089432 643.915116,57.5352568 642.63995,61.2499771 L642.63995,61.2499771 Z M636.294571,154.49859 C632.684138,154.401536 634.494112,146.519173 637.202413,146.869331 C637.482188,149.954148 637.05967,152.386224 636.294571,154.49859 L636.294571,154.49859 Z M636.294571,88.3758084 C636.724701,109.449995 637.845706,124.603846 636.294571,145.171826 C635.312503,144.960589 635.68173,143.487642 634.482693,143.478127 C635.459052,125.471629 632.06749,105.537359 636.294571,88.3758084 L636.294571,88.3758084 Z M631.764876,50.2276104 C636.250796,51.0896843 633.677625,59.9654299 634.482693,66.3367841 C631.035938,63.3414103 631.991361,56.2354853 631.764876,50.2276104 L631.764876,50.2276104 Z M629.951095,256.221409 C627.307505,258.442249 626.540502,253.772206 622.701681,254.523904 C619.648895,211.665699 625.623143,173.353841 628.139217,135.846965 C633.435915,150.922791 628.474186,173.452798 631.764876,190.102433 C632.727912,193.261468 628.361896,191.444071 629.045156,194.338585 C637.173864,207.648397 626.489114,227.211575 632.670815,244.352193 C630.188999,247.810004 630.592485,253.068084 629.951095,256.221409 L629.951095,256.221409 Z M625.419497,291.825252 C625.421401,282.625991 625.453756,273.746439 621.793838,263.850668 C624.953205,264.120899 625.17398,263.527153 630.857034,263.000012 C630.204225,274.16701 628.733026,285.495765 625.419497,291.825252 L625.419497,291.825252 Z M625.419497,299.454511 C622.562745,298.015818 624.29088,295.509524 624.513558,292.668296 C626.032338,293.895752 627.168569,297.713236 625.419497,299.454511 L625.419497,299.454511 Z M619.074119,232.486783 C615.204846,232.14614 618.210051,225.378955 617.260337,222.311265 C621.83571,223.56917 617.987372,227.698752 619.074119,232.486783 L619.074119,232.486783 Z M617.260337,179.08197 C621.363708,186.547568 617.960727,201.031551 619.074119,211.294608 C614.894619,203.899422 618.432729,189.287935 617.260337,179.08197 L617.260337,179.08197 Z M619.074119,162.972796 L619.074119,174.845818 C615.956623,172.78864 615.800558,164.814932 619.074119,162.972796 L619.074119,162.972796 Z M616.354399,329.120891 C617.104272,331.520616 615.075426,331.318894 615.44846,333.358946 C612.751578,333.28663 613.021838,328.306393 616.354399,329.120891 L616.354399,329.120891 Z M610.010923,87.5289587 C610.600925,83.4602743 611.373638,80.3564276 610.010923,76.5103981 C614.576779,76.6721559 610.458183,83.6486746 612.730643,87.5289587 L610.010923,87.5289587 Z M606.385264,329.967741 C600.285402,321.478311 610.090859,306.823055 605.479325,296.908253 C608.282787,295.010929 605.245227,287.646192 610.010923,287.583392 C608.790951,302.291933 609.196339,318.292634 606.385264,329.967741 L606.385264,329.967741 Z M601.853666,235.029235 C597.030874,232.168976 600.627984,219.818292 601.853666,214.685813 C604.118513,220.552863 603.204962,228.400971 601.853666,235.029235 L601.853666,235.029235 Z M600.039885,168.906453 C602.354216,169.003507 601.83844,171.743875 601.853666,173.989454 C600.39008,174.231139 600.291112,173.193986 599.133946,173.144507 C598.382169,170.752395 600.411016,170.952213 600.039885,168.906453 L600.039885,168.906453 Z M596.414226,170.602055 C592.739083,170.927474 595.415029,165.315429 594.600445,162.972796 C598.275588,162.645474 595.599643,168.253712 596.414226,170.602055 L596.414226,170.602055 Z M592.788567,207.054651 C589.513103,200.184702 595.818514,190.378373 592.788567,179.926916 C598.798977,185.959531 596.718744,201.366485 592.788567,207.054651 L592.788567,207.054651 Z M594.600445,230.787374 C592.249952,229.278269 589.362748,218.708824 594.600445,218.075114 L594.600445,230.787374 Z M601.853666,147.714278 L601.853666,165.515248 C598.863687,163.338178 598.863687,149.891348 601.853666,147.714278 L601.853666,147.714278 Z M582.819433,107.025531 C582.670981,108.020817 581.165523,107.741071 580.099713,107.876187 C577.903382,98.1079187 579.882744,85.1273312 582.819433,77.3553447 C586.022574,84.4745909 578.270706,98.760659 582.819433,107.025531 L582.819433,107.025531 Z M578.285932,212.986404 C577.233444,213.125326 576.670087,212.799907 576.474054,212.139555 C576.209505,195.900975 575.575728,178.471096 577.37809,162.125946 C577.99664,156.534836 579.030096,148.642958 582.819433,144.323073 C583.514113,164.329658 583.712049,191.828484 578.285932,212.986404 L578.285932,212.986404 Z M582.819433,263.000012 C578.841676,261.917187 582.029591,254.129976 581.005652,250.283946 C584.981506,251.370578 581.79359,259.153983 582.819433,263.000012 L582.819433,263.000012 Z M581.005652,279.107283 C577.907188,278.656264 579.618195,275.023374 580.099713,273.171723 C582.126656,273.539009 580.465134,277.350784 581.005652,279.107283 L581.005652,279.107283 Z M573.752431,293.517048 C573.318494,279.387029 577.368573,257.300429 575.566212,239.267289 C583.114434,252.653222 576.243763,277.622917 573.752431,293.517048 L573.752431,293.517048 Z M571.940553,205.359048 C569.896481,204.727241 571.586552,200.605272 571.034614,198.572833 C574.749725,199.539574 571.251583,202.331323 571.940553,205.359048 L571.940553,205.359048 Z M569.222736,175.690765 C572.174651,175.978123 571.30297,182.644447 570.128675,184.164971 C568.061764,182.988896 569.7899,178.267472 569.222736,175.690765 L569.222736,175.690765 Z M569.222736,109.567983 C572.614297,115.800416 571.17926,130.809636 570.128675,138.39132 C567.264309,132.415796 568.558508,116.778575 569.222736,109.567983 L569.222736,109.567983 Z M566.503016,307.928717 C559.147021,302.109242 564.181072,290.181032 562.877357,281.651638 L566.503016,281.651638 C569.114252,286.970615 562.614711,295.258323 567.408955,300.299458 C562.285452,301.273811 566.30508,304.819161 566.503016,307.928717 L566.503016,307.928717 Z M562.877357,153.653644 C563.731909,161.703473 564.498912,180.89556 562.877357,193.491735 C558.71118,179.523473 560.490703,166.784571 562.877357,153.653644 L562.877357,153.653644 Z M564.689235,140.933772 C564.78059,144.40871 564.868139,147.881745 563.783296,150.260536 C561.088318,149.876123 560.479284,140.132595 564.689235,140.933772 L564.689235,140.933772 Z M563.783296,138.39132 C560.920834,138.229562 561.682127,132.130341 562.877357,130.762061 C563.986942,132.56233 565.003269,136.996397 563.783296,138.39132 L563.783296,138.39132 Z M562.877357,122.285952 C564.340944,124.476343 564.805332,127.59922 563.783296,129.913308 C560.325122,130.309139 562.064677,123.292656 562.877357,122.285952 L562.877357,122.285952 Z M566.503016,258.760055 C563.45594,259.631644 565.090817,256.126257 564.689235,254.523904 C567.384213,254.343116 567.884763,257.549726 566.503016,258.760055 L566.503016,258.760055 Z M577.37809,235.876084 C575.063758,235.780933 575.579534,233.034856 575.566212,230.787374 C579.890357,230.903459 576.772862,232.709437 577.37809,235.876084 L577.37809,235.876084 Z M580.099713,31.5816938 C580.295746,42.7524971 579.237548,55.9995093 576.474054,68.0285804 C573.683914,59.9654299 572.496297,39.1405406 580.099713,31.5816938 L580.099713,31.5816938 Z M580.099713,16.3250789 C585.731379,16.8465099 580.459424,22.2358991 581.005652,25.6442311 C576.921314,24.2207625 580.940942,19.8875565 580.099713,16.3250789 L580.099713,16.3250789 Z M554.716294,266.391217 C552.691254,266.027738 554.352777,262.212157 553.814162,260.459463 C558.163049,260.057924 556.421591,265.386416 554.716294,266.391217 L554.716294,266.391217 Z M553.814162,301.144404 C549.834501,300.065385 553.026223,292.276271 552.000381,288.434047 C556.661398,290.310438 552.689351,295.519039 553.814162,301.144404 L553.814162,301.144404 Z M553.814162,235.029235 C557.076303,236.46983 555.789718,245.817528 554.716294,248.590247 C551.067796,245.349382 554.402261,240.254963 553.814162,235.029235 L553.814162,235.029235 Z M549.280661,157.039139 C547.221363,156.205611 547.034846,152.795376 550.188503,152.797278 C550.475891,154.768821 550.041954,156.057174 549.280661,157.039139 L549.280661,157.039139 Z M549.280661,166.364001 C548.686852,166.835953 544.950806,160.01358 548.374722,158.734742 C551.977542,159.589203 549.244499,163.842482 549.280661,166.364001 L549.280661,166.364001 Z M546.562844,40.9084582 C543.260735,40.2918755 545.013612,34.4457584 545.655002,32.4285435 C548.431819,34.6836375 545.961422,36.6133129 546.562844,40.9084582 L546.562844,40.9084582 Z M547.468783,134.151362 C548.861949,136.80419 548.911433,140.714923 549.280661,144.323073 C546.277359,143.388684 547.356492,135.306503 547.468783,134.151362 L547.468783,134.151362 Z M532.966147,109.567983 C528.942713,107.967532 532.212467,99.5389995 531.152366,95.1582177 C534.884606,97.0365112 532.109692,105.002607 532.966147,109.567983 L532.966147,109.567983 Z M531.152366,251.132699 C527.336384,251.028032 530.250234,244.628133 529.340488,241.807838 C533.158374,241.912505 530.240718,248.314307 531.152366,251.132699 L531.152366,251.132699 Z M529.340488,267.241873 C526.361929,265.736574 528.752389,258.636358 528.432646,256.221409 C530.51859,258.225303 528.756196,263.827832 529.340488,267.241873 L529.340488,267.241873 Z M523.902952,200.274144 C522.783851,200.64143 522.039687,201.35697 522.089171,202.814693 C522.682979,164.394362 516.693505,116.327556 522.99511,77.3553447 C523.769725,72.5673139 522.180526,65.1492915 528.432646,63.7943321 C529.865781,65.5603467 530.168395,71.6957248 526.620768,71.419785 C529.431844,78.8606438 529.681167,84.364215 527.526707,90.9220664 C526.148767,95.114448 527.267868,92.9392813 528.432646,98.5494224 C529.458489,103.491599 527.581901,107.090234 525.714829,111.269294 C529.743974,140.48085 523.246336,173.009392 523.902952,200.274144 L523.902952,200.274144 Z M521.183232,207.899597 C523.090271,208.594204 523.670757,212.369821 522.089171,213.83706 C517.801187,213.688623 522.414623,210.483916 521.183232,207.899597 L521.183232,207.899597 Z M520.277293,297.755103 C519.007836,286.173244 516.891441,267.125788 524.808891,259.614517 C522.768625,270.313368 521.463007,283.678368 520.277293,297.755103 L520.277293,297.755103 Z M519.369451,308.775566 L516.649731,308.775566 C516.377568,304.566058 516.805796,301.013095 519.369451,299.454511 C522.081558,301.770502 518.158994,305.053234 519.369451,308.775566 L519.369451,308.775566 Z M508.492474,114.65479 C507.43618,114.791808 506.878532,114.470196 506.680596,113.804134 C505.525334,103.773248 506.233336,92.3169896 506.680596,81.5953021 C507.013662,73.5816304 503.576423,62.976028 510.306255,57.8587724 C511.250259,77.4086296 509.39651,99.4609751 508.492474,114.65479 L508.492474,114.65479 Z M507.584632,226.54932 C510.646934,228.045104 507.561793,230.893944 508.492474,235.029235 C506.109626,233.373596 504.543265,228.558923 507.584632,226.54932 L507.584632,226.54932 Z M499.429278,197.727886 C498.622308,197.352989 497.809627,196.985703 497.617401,196.037993 C500.167733,160.75386 499.591053,128.60973 502.147095,93.4626154 C506.722467,126.609643 503.161518,166.710353 499.429278,197.727886 L499.429278,197.727886 Z M495.803619,162.972796 C494.939552,197.880129 492.461542,239.330089 490.362276,272.324874 C488.902497,272.564656 488.803528,271.5256 487.646363,271.476121 C489.458241,252.049961 486.780392,232.659959 486.736617,211.294608 C486.696649,188.937777 494.124968,166.573334 494.897681,144.323073 C500.061152,149.60399 495.961588,156.567187 495.803619,162.972796 L495.803619,162.972796 Z M494.897681,258.760055 C491.437603,259.159692 493.179061,252.139404 493.991742,251.132699 C496.047233,252.03664 494.336227,256.464997 494.897681,258.760055 L494.897681,258.760055 Z M493.083899,268.086819 C490.316599,266.51872 494.128774,264.060002 493.083899,261.30441 C496.445009,261.932411 493.015383,265.536755 493.083899,268.086819 L493.083899,268.086819 Z M484.926643,186.707423 C481.525565,185.110778 482.57044,179.687134 483.112862,176.535712 C486.506326,177.319761 484.294769,183.34286 484.926643,186.707423 L484.926643,186.707423 Z M483.112862,197.727886 C479.896398,198.137038 479.112266,191.917927 483.112862,192.644885 L483.112862,197.727886 Z M483.112862,169.755205 C486.390229,168.950222 484.376608,173.091222 484.926643,174.845818 C481.651179,175.646995 483.662896,171.504093 483.112862,169.755205 L483.112862,169.755205 Z M478.581264,104.484982 C477.047258,145.261269 478.470876,185.396233 470.424007,228.246825 C468.027837,180.564432 467.479706,126.931255 471.331849,77.3553447 C471.996078,68.7650541 467.268447,55.3296417 477.675325,51.9289218 C474.98225,62.1006328 483.310798,72.5616048 476.769386,78.2040974 C481.432307,83.8123354 478.954298,94.5644714 478.581264,104.484982 L478.581264,104.484982 Z M456.827311,229.940524 C456.07934,222.463508 454.166591,215.424189 452.297616,207.054651 C453.698395,208.28401 454.197043,210.360219 454.109494,212.986404 C457.993992,190.745658 451.865582,166.072837 460.452969,143.478127 C460.738454,174.819176 458.191929,201.956425 456.827311,229.940524 L456.827311,229.940524 Z M452.297616,224.006868 C448.845151,224.638675 450.335383,218.516618 453.201652,219.765007 C453.490943,221.734647 453.055103,223.026806 452.297616,224.006868 L452.297616,224.006868 Z M448.671957,122.285952 C448.925087,123.654233 447.813599,123.745578 447.764115,124.826501 C445.88943,102.758931 441.806996,72.2171558 448.671957,54.4694708 C452.516488,72.0097252 446.294819,100.570443 448.671957,122.285952 L448.671957,122.285952 Z M446.85437,145.171826 C443.316259,144.496249 445.093879,135.390237 445.950334,133.306416 C448.040084,135.590055 446.27198,141.481845 446.85437,145.171826 L446.85437,145.171826 Z M443.228711,49.3826638 L439.604955,49.3826638 C440.206377,45.9876531 441.510091,43.2529947 442.326578,40.0578025 C445.33559,42.4917816 442.66345,44.9714335 443.228711,49.3826638 L443.228711,49.3826638 Z M441.416833,206.203995 C440.364345,206.342916 439.806698,206.019401 439.604955,205.359048 C438.320273,179.729001 439.431761,152.192114 439.604955,129.066458 C439.728665,112.968703 434.818324,95.578788 442.326578,79.0509471 C442.018254,118.850978 443.407615,158.066777 441.416833,206.203995 L441.416833,206.203995 Z M441.416833,217.230168 L438.700919,217.230168 L438.700919,213.83706 C441.089477,213.578247 441.673769,215.007425 441.416833,217.230168 L441.416833,217.230168 Z M436.887138,26.5005959 C439.011146,27.1552392 440.550862,30.5940197 438.700919,32.4285435 C435.906973,32.3942889 435.45781,27.9297736 436.887138,26.5005959 L436.887138,26.5005959 Z M415.133185,294.363898 C407.51264,260.543197 419.434492,220.992464 424.194477,186.707423 C426.223324,172.128287 425.774161,157.849831 431.449602,146.018676 C428.158912,196.466175 422.816537,247.806198 415.133185,294.363898 L415.133185,294.363898 Z M417.852905,73.1210965 C421.809726,74.9099474 421.461435,81.7247083 421.478564,85.8333564 C421.543274,102.21847 419.700944,124.85695 417.852905,140.086922 C416.796611,140.22394 416.23706,139.898522 416.041027,139.238169 C417.291451,117.830952 416.067672,91.5196188 417.852905,73.1210965 L417.852905,73.1210965 Z M424.194477,146.018676 C424.316284,148.110109 424.335317,150.102584 423.290442,151.105483 C421.906791,151.090258 421.303466,144.823571 424.194477,146.018676 L424.194477,146.018676 Z M400.630549,153.653644 C398.955704,194.469894 394.09675,236.222436 389.753573,274.871132 C388.699182,275.00815 388.141534,274.680828 387.941695,274.022379 C389.635572,215.823826 386.224979,152.825824 398.818672,96.0069704 C402.528073,98.6864407 402.343459,102.677101 402.44433,106.178681 C402.866848,121.037562 401.289068,137.586337 400.630549,153.653644 L400.630549,153.653644 Z M388.847634,86.6821091 C390.419704,87.4528374 391.190514,89.6508404 389.753573,90.9220664 C387.446854,90.8345269 387.610532,87.7630318 388.847634,86.6821091 L388.847634,86.6821091 Z M393.381135,90.0771198 C395.381433,90.1779806 393.763685,93.6662399 394.285171,95.1582177 C392.821584,95.3979999 392.724519,94.3570408 391.567354,94.3132711 C391.426515,92.2009045 392.990972,91.6870857 393.381135,90.0771198 L393.381135,90.0771198 Z M381.596316,98.5494224 C384.319842,144.203182 371.705214,196.157884 367.999619,245.199042 C366.947131,245.336061 366.387581,245.012545 366.185838,244.352193 C365.734772,206.310565 369.575496,159.771895 371.625278,120.588447 C372.019247,113.046727 370.911566,102.894047 371.625278,93.4626154 C372.036377,88.0484867 371.389277,78.6665344 378.874693,78.2040974 C385.052587,83.096795 381.200444,91.8945162 381.596316,98.5494224 L381.596316,98.5494224 Z M367.09368,283.341531 C365.19806,283.705011 364.693704,282.766815 363.466118,282.496585 C364.686091,280.526946 363.342408,276.165194 367.09368,276.562928 C369.097785,278.420288 366.197258,280.028351 367.09368,283.341531 L367.09368,283.341531 Z M366.185838,76.5103981 C366.282903,71.7965855 365.466416,66.2283112 367.999619,63.7943321 C371.450181,65.2197038 369.670658,73.6786851 368.907462,76.5103981 L366.185838,76.5103981 Z M368.907462,40.0578025 C370.58421,45.5994343 370.180724,56.4942978 368.907462,62.1006328 C363.922894,58.8826041 367.967264,45.8068649 368.907462,40.0578025 L368.907462,40.0578025 Z M350.775361,254.523904 C349.313678,254.763686 349.218516,253.72463 348.059447,253.678957 C348.26119,216.857173 346.47786,168.012027 360.748302,132.461469 C358.066646,170.425073 355.126151,213.671496 350.775361,254.523904 L350.775361,254.523904 Z M347.153508,118.894747 C343.58114,117.878528 347.031701,114.685239 345.339727,111.269294 C349.01487,110.932458 346.337021,116.544502 347.153508,118.894747 L347.153508,118.894747 Z M344.433788,174.845818 C342.640943,169.875096 342.267909,160.160113 346.247569,156.188484 C345.042823,162.380953 347.157315,167.875009 344.433788,174.845818 L344.433788,174.845818 Z M343.525946,184.164971 C340.077288,184.220158 342.203199,176.632766 344.433788,176.535712 C345.058049,179.945947 343.565914,181.377027 343.525946,184.164971 L343.525946,184.164971 Z M339.90219,156.188484 C338.124571,171.818093 333.313198,187.434381 335.366786,205.359048 C333.691941,205.484648 334.811042,208.228822 333.554908,208.74835 C332.015193,209.064253 331.845805,208.0899 331.741127,207.054651 C333.96791,163.281087 334.919526,122.972947 337.18247,81.5953021 C341.131679,98.0831793 339.403543,113.866934 338.994348,129.913308 C338.781186,138.343744 340.872839,147.621029 339.90219,156.188484 L339.90219,156.188484 Z M329.929249,99.396272 C330.502123,110.121766 334.045942,121.362981 329.025214,131.605104 C334.276234,149.39085 327.52166,175.411019 328.115468,195.183531 C328.288663,200.839345 330.315606,206.10694 329.929249,211.294608 C328.627438,228.853893 324.918037,244.85269 322.679835,268.086819 C322.061284,213.941727 325.515652,141.681664 328.115468,88.3758084 C326.984948,83.9417417 324.385132,75.6426151 329.025214,73.1210965 C334.831978,79.8711542 329.41728,89.7669254 329.929249,99.396272 L329.929249,99.396272 Z M324.491713,84.9865067 L324.491713,97.7025727 C319.979147,97.0783779 321.081119,85.9208959 324.491713,84.9865067 L324.491713,84.9865067 Z M297.300223,158.734742 C293.379563,150.749615 299.034068,137.2495 299.114004,127.370856 C301.199947,136.958336 300.221685,151.006525 297.300223,158.734742 L297.300223,158.734742 Z M292.768625,143.478127 C292.540237,145.919718 290.246841,148.612509 290.047002,151.105483 C288.7509,167.61239 289.291418,184.149746 287.331088,200.274144 C284.860692,220.575699 277.921504,239.918126 276.452208,260.459463 C271.933933,252.647513 276.313272,243.876435 276.452208,235.029235 C277.146888,191.059659 273.165325,135.964953 278.265989,93.4626154 C279.721962,81.3402957 283.320976,60.8065704 292.768625,56.1631701 C295.473119,70.8450691 291.946428,85.9913081 291.860783,101.093777 C291.78275,115.221894 294.102791,129.249149 292.768625,143.478127 L292.768625,143.478127 Z M249.260718,210.445855 C249.515751,211.814136 248.404263,211.905481 248.354779,212.986404 C247.300388,213.125326 246.742741,212.799907 246.540998,212.139555 C250.92795,169.880805 253.303185,116.668199 256.512036,68.8849452 C258.913916,114.584378 257.51504,165.347781 249.260718,210.445855 L249.260718,210.445855 Z M183.094822,103.634326 C180.826169,102.572434 179.374002,92.3169896 183.998858,92.6119597 C183.633437,96.2258192 184.876248,101.348784 183.094822,103.634326 L183.094822,103.634326 Z M183.094822,123.979651 C178.129287,122.276437 179.507228,107.21964 183.998858,106.178681 C183.661986,112.079986 184.834377,119.389536 183.094822,123.979651 L183.094822,123.979651 Z M180.373199,164.670301 L177.655382,164.670301 C177.950384,148.688631 178.89629,136.046783 181.281041,125.677157 C185.966801,137.576822 179.324518,150.334754 180.373199,164.670301 L180.373199,164.670301 Z M162.246808,140.086922 C160.244607,139.980352 161.860452,136.488287 161.338966,134.996309 C163.824588,135.015339 163.493426,138.998387 162.246808,140.086922 L162.246808,140.086922 Z M157.713307,240.112235 C152.635481,209.028096 159.835412,182.435114 161.338966,154.49859 C162.38955,180.11722 162.172582,213.888442 157.713307,240.112235 L157.713307,240.112235 Z M140.492855,74.8147958 C136.250548,72.7576172 139.5774,64.0417264 143.212575,63.7943321 C143.524705,68.6090054 140.810695,70.5919657 140.492855,74.8147958 L140.492855,74.8147958 Z M78.8547502,279.107283 C76.133127,275.101399 78.011618,266.391217 83.3901545,263.850668 C81.4812118,269.723428 79.5151721,273.944355 78.8547502,279.107283 L78.8547502,279.107283 Z M10.8750734,98.5494224 C11.6249472,100.941535 9.59800409,100.747425 9.96913453,102.787477 C6.43102435,103.337453 8.5321936,97.7863062 10.8750734,98.5494224 L10.8750734,98.5494224 Z M112.393522,64.6411818 L109.675706,64.6411818 C109.612899,61.7580869 109.394027,58.7265554 111.487583,57.8587724 C115.697535,58.0319484 111.832069,62.5326213 112.393522,64.6411818 L112.393522,64.6411818 Z M625.419497,68.0285804 C621.814774,67.0542275 625.836305,62.7191185 624.513558,58.7094281 C627.311311,59.9521086 626.424404,65.5831831 625.419497,68.0285804 L625.419497,68.0285804 Z M920,120.588447 C909.494154,114.881251 906.306238,126.472624 903.685487,133.306416 C892.564896,131.646971 902.320869,116.584465 900.059828,109.567983 C880.374689,100.608504 883.069667,137.262821 873.774277,143.478127 C873.58205,132.842076 876.452125,125.071992 875.586154,113.804134 C849.957219,102.416385 857.193311,147.15098 844.769005,153.653644 C847.043369,140.800559 844.392165,123.344038 846.580883,110.41293 C828.180426,97.949967 828.024361,140.490365 818.483454,145.171826 C819.783362,133.44724 824.330186,121.966242 822.109113,109.567983 C816.873319,107.286247 815.603863,97.1640144 808.512417,99.396272 C801.811133,113.756558 800.467451,133.129434 793.103842,146.869331 C790.896092,131.907686 797.325213,114.963081 793.103842,106.178681 C789.489603,106.644924 790.374606,106.644924 786.760366,106.178681 C783.538193,109.665038 782.824481,115.495931 779.509049,118.894747 C778.024527,116.742417 780.890796,111.006676 778.601206,107.876187 C774.798547,105.760014 772.39857,109.250177 770.44395,107.876187 C768.089651,105.219553 771.7096,102.222276 769.538011,99.396272 C766.33487,98.7873015 766.350096,98.5456163 762.286693,97.7025727 C759.801071,104.416473 759.055003,112.761272 756.849156,119.741597 C751.655233,108.892406 756.20967,92.2218379 755.941314,75.6616454 C753.843951,74.5141166 752.938013,72.2533135 748.689996,73.1210965 C742.976491,78.2326429 740.966677,86.8096123 741.438679,97.7025727 C737.491373,99.0537261 736.642531,99.2516415 734.187361,102.787477 C734.054135,81.7894114 738.241247,63.3775679 735.0933,42.6021575 C713.333637,35.8520997 725.799813,82.6743217 716.966909,92.6119597 C711.139209,89.2264641 716.687133,79.5609599 716.059066,73.1210965 C712.663699,72.6244049 713.320314,72.4816774 708.807749,72.2704407 C705.545607,77.9795395 707.473582,88.5432753 703.370212,93.4626154 C703.979246,78.0252123 700.880783,61.9845478 700.650492,45.1427064 C700.49062,33.4790176 704.525474,23.0637185 691.587296,23.1055852 C681.53442,31.0850022 690.612841,53.7539304 678.896539,58.7094281 C675.457397,57.9634392 677.058016,52.516959 673.459002,51.9289218 C670.097892,51.3256604 669.568794,53.3714208 666.207684,52.7738685 C662.507799,39.8465658 670.139764,16.3136607 658.954463,10.3895192 C653.280925,14.6903736 652.805117,23.8496711 650.79911,31.5816938 C645.940156,31.3457177 647.898583,25.0676121 642.63995,27.3398334 C638.726903,28.7690112 642.329723,37.2241864 639.92023,40.0578025 C637.1358,39.8351476 635.843505,38.2213757 633.576754,37.5172535 C633.116172,39.627717 633.607206,42.6287999 630.857034,42.6021575 C629.142221,36.2289002 633.024817,28.2875438 626.325436,25.6442311 C623.128005,27.6899915 623.246005,28.297059 619.074119,26.5005959 C614.860361,37.7950963 621.392256,44.6992998 621.793838,56.1631701 C621.938484,60.321297 619.633669,64.5650604 619.980057,68.0285804 C620.1228,69.4463399 623.268844,72.7385868 623.605716,75.6616454 C623.990169,78.9672136 623.310715,80.3488155 623.605716,83.2928074 C625.665014,86.3281449 626.31592,80.1052273 627.231375,82.4421517 C625.992371,90.4577264 630.129999,105.784754 625.419497,112.114241 C627.415989,112.789818 629.037543,113.815552 629.045156,116.350392 C624.220461,135.357885 625.687853,160.96129 621.793838,179.926916 C619.766895,136.714748 620.971642,100.473389 617.260337,57.0119228 C612.993289,47.9668073 615.598815,35.4372385 613.634679,23.9505318 C605.622068,25.233176 607.609043,17.1567043 601.853666,16.3250789 C602.72725,20.144466 597.000422,22.0018261 596.414226,23.1055852 C592.792374,29.912734 595.624385,40.8285308 584.631311,39.2109528 C581.747913,27.2865485 594.512896,4.76795994 581.911591,2.75835718 C575.452018,6.042992 575.767955,15.6647265 571.940553,21.4099829 C568.625121,21.9675715 568.465249,19.5735561 565.597077,19.7162836 C560.728607,23.6365314 561.310997,32.6607135 559.251698,39.2109528 C548.100656,34.6798314 561.564127,12.1859823 548.374722,8.69391686 C548.624045,11.9290728 546.096552,15.6475992 546.562844,21.4099829 C544.307513,21.3167342 543.755575,19.8209504 542.029343,21.4099829 C537.086647,33.7815999 547.468783,54.6007801 538.403684,62.9455794 C531.850853,53.7368031 543.700381,35.3972748 530.246427,34.9709955 C528.122419,42.8723882 528.862777,53.4551542 521.183232,56.1631701 C517.943929,34.769274 523.090271,15.6552113 519.369451,0.215905191 C518.598641,2.70316922 517.089377,-0.884047838 514.837853,0.215905191 C509.771447,11.8700788 517.188346,20.091181 513.931914,27.3398334 C513.789171,26.3445472 514.086076,24.9382059 513.022169,24.7992845 C513.602655,35.3953718 516.577408,42.6820849 512.118133,47.6927705 C510.405223,47.4986612 510.117835,48.644287 508.492474,48.5377172 C503.022582,47.1085394 507.36576,41.7210532 504.866815,37.5172535 C502.306967,38.2156666 502.518226,36.3202458 500.335217,36.6665978 C491.833475,56.3249279 500.0307,79.2545716 496.709558,97.7025727 C496.22804,100.376334 494.260097,102.146155 493.991742,104.484982 C492.583349,116.673908 494.840584,128.328082 489.458241,138.39132 C489.208917,142.29444 493.738612,152.995194 486.736617,152.797279 C486.034324,119.06602 491.119763,82.3089394 489.458241,45.1427064 C488.409559,43.0189217 485.845904,42.3052843 485.832582,39.2109528 C486.915521,30.8604443 486.727101,17.5411169 484.926643,11.2363688 C484.692545,13.2212322 480.945079,11.7254483 480.395045,11.2363688 C472.95721,20.8523942 484.968514,43.5669952 470.424007,45.9914591 C470.199426,40.4155727 472.886791,37.5629263 472.235885,31.5816938 C469.582778,31.8024456 469.451455,29.6691457 466.798348,29.8860915 C461.815684,43.4908739 469.504746,60.2356605 460.452969,72.2704407 C460.38255,54.0622217 454.347398,47.2760063 458.641092,31.5816938 C452.076841,25.1285092 462.870075,12.6274859 453.201652,9.53886348 C446.351916,16.9568858 458.614446,38.6057883 446.85437,47.6927705 C445.402203,38.6324308 446.742079,22.0950747 447.764115,12.9338742 C445.004427,12.9681288 444.239327,11.1431202 442.326578,10.3895192 C439.045405,13.2535837 439.814311,19.9084899 436.887138,23.1055852 C435.035293,22.0113413 435.238938,18.993131 431.449602,19.7162836 C428.670881,25.0352606 429.095302,35.4848143 431.449602,40.9084582 C428.077073,65.2120916 436.2762,91.0857273 426.008258,113.804134 C426.095807,88.8287302 430.78918,67.0390032 419.666686,46.8364057 C414.880055,48.0143831 415.043733,53.8224396 407.881867,52.7738685 C400.297484,60.089127 398.091637,72.4398107 393.381135,82.4421517 C392.83681,74.3390375 394.247106,61.3184863 393.381135,53.6226211 C384.35981,50.4026894 386.485722,64.5917029 384.316036,70.5748384 C379.672147,68.1598896 375.654423,72.0630102 372.53312,70.5748384 C372.753895,54.5798467 373.313446,45.0323305 372.53312,30.7367472 C368.916978,31.1953781 369.803884,31.1953781 366.185838,30.7367472 C363.601248,35.6313479 362.141468,39.7285778 364.37396,45.1427064 C359.52262,53.7139667 361.793176,64.1121386 362.562083,73.9660431 C364.059927,93.1390998 358.650939,106.528839 355.310765,121.435296 C353.516016,129.43755 355.451604,138.210532 349.873228,144.323073 C347.182057,121.612278 355.099506,91.0781151 350.775361,67.1836337 C346.637732,65.5298981 345.503405,69.8193343 341.714068,72.2704407 C340.703451,67.1531852 336.18708,66.2035718 335.366786,60.4031274 C334.497009,54.2144644 340.699645,45.0875185 333.554908,42.6021575 C325.222554,44.4157479 333.808038,62.051154 328.115468,66.3367841 C323.46587,61.5240138 328.294372,47.6832554 326.305494,42.6021575 C316.865458,41.8066897 317.933172,51.5730547 319.962018,57.0119228 C316.206939,60.3879032 320.472085,64.2929267 319.962018,68.8849452 C319.084628,76.7197317 311.810471,85.2167737 309.081235,91.767013 C310.339272,100.311631 308.234296,111.623259 303.645601,120.588447 C303.902538,93.0058875 304.614347,72.5349623 298.206162,50.2276104 C294.420631,50.9450538 293.927694,48.58339 290.954844,48.5377172 C287.017055,49.6053186 284.443884,55.6855088 280.985709,54.4694708 C282.42265,53.2020509 282.310359,49.6338641 279.171928,50.2276104 L275.546269,50.2276104 C269.868925,63.1872646 273.858102,77.6826664 272.826549,90.9220664 C272.107127,100.146067 269.764247,109.649813 268.296855,118.045995 C266.077685,130.741127 264.410453,144.753159 259.231756,156.188484 C259.34595,120.700726 264.912906,89.5804282 260.135792,57.0119228 C245.526575,57.5790266 254.102543,76.6873802 251.074499,81.5953021 C247.039645,77.5056843 240.81417,76.7673075 234.759986,76.5103981 C234.392662,72.8946355 235.635473,67.77738 233.852144,65.4918375 C221.705711,64.8105517 227.847443,74.2039222 227.506765,79.9016028 C226.83873,91.1085636 220.091769,103.714254 217.53763,112.114241 C213.784455,124.442088 214.410618,138.433186 208.472531,148.563031 C207.349624,125.557266 217.781244,94.7547747 212.09819,73.1210965 C211.66806,65.6079225 213.065033,56.389631 211.192251,50.2276104 C213.344808,47.7003827 214.391586,40.2690391 208.472531,40.9084582 C199.32369,47.7669888 208.181337,63.3927922 206.65875,73.9660431 C192.892666,85.9551505 194.118348,111.967708 187.624517,130.762061 C183.795212,117.513145 192.100921,94.1610285 185.812639,80.7465494 C181.855818,80.4839308 181.781592,83.2528437 178.561321,81.5953021 C173.892691,121.258314 181.292461,175.544231 164.964625,213.83706 C165.04456,193.08068 164.502139,171.761002 164.964625,152.797279 C165.741144,121.037562 169.231673,86.9523397 168.592187,54.4694708 C160.337865,57.0937532 159.447152,64.4489754 147.742269,62.1006328 C146.189231,60.726643 147.393978,56.7740437 144.11661,57.0119228 C140.867792,58.1290031 140.797372,56.9567348 137.773135,57.8587724 C132.095791,62.8922945 137.710328,73.2904664 132.335598,78.2040974 C134.18554,110.313972 120.276714,147.032992 111.487583,177.380658 C111.205905,136.726166 119.479259,86.6592727 115.113242,50.2276104 C112.344038,50.84229 111.811133,49.3655365 109.675706,49.3826638 C107.127277,50.6767262 106.898889,54.132634 105.140301,56.1631701 C104.46275,59.0595862 108.82496,57.2440928 107.861925,60.4031274 C100.658188,86.9923034 102.839293,108.633594 99.7046679,141.780621 C103.771877,137.60727 103.954587,130.461381 104.238169,124.826501 C105.182172,105.74479 105.823562,85.7077562 110.581645,65.4918375 C114.65266,78.4971645 111.818746,94.016398 111.487583,110.41293 C111.006066,134.31312 108.813541,160.103022 107.861925,184.164971 C107.132986,202.60536 97.1866906,217.334834 94.2671312,233.331729 C88.34427,240.511872 86.1498424,255.690463 78.8547502,258.760055 C81.8390196,201.52634 89.3149189,126.423146 87.9198491,69.7298918 C71.4131091,68.0704471 83.9344791,84.1891359 76.1369335,89.220755 C80.2517233,101.554311 68.9255836,125.59152 76.1369335,135.846965 C75.7315448,123.178474 81.237598,107.463229 82.4804091,93.4626154 C82.9714432,87.9723654 78.8014597,80.7960282 85.2020323,77.3553447 C85.1430321,130.042714 78.7881371,199.086652 75.2309946,250.283946 C74.9854775,253.825491 77.9107466,260.866712 71.6053357,262.149357 C67.7665147,222.501569 69.7934578,180.85179 69.7934578,140.086922 C69.7934578,110.6451 75.0597036,78.0023759 60.728359,54.4694708 C43.8447789,51.1144237 47.0574363,66.5480207 38.9744057,71.419785 C38.9667927,67.0732578 40.3028623,65.8610259 38.9744057,62.1006328 C36.7190745,62.1938814 36.1690402,63.6877623 34.4428078,62.1006328 C30.8495039,66.3177538 28.2877523,70.7879781 30.817149,76.5103981 C29.6390477,79.0813956 28.1868809,81.3973866 27.1914901,84.1377541 C30.6496645,94.9907508 24.6411578,107.912344 25.3796122,121.435296 C19.1883952,133.730792 18.8324907,151.484186 10.8750734,162.125946 C10.9378801,134.533872 16.7370311,110.882979 13.5947934,85.8333564 L7.25131778,85.8333564 C2.82820426,100.952953 5.07782568,125.758987 2.71971998,148.563031 C10.1080705,140.781529 5.01501899,121.323017 9.96913453,111.269294 C8.08303061,168.67238 2.86055922,222.958297 0,271.476121 C2.56175164,270.777708 2.34858954,272.673129 4.53159781,272.324874 C10.8522346,266.088635 10.1727805,253.302157 11.7829156,242.658493 C8.3361606,241.410104 11.6059149,246.447432 8.1572567,245.199042 C8.63877465,214.605885 5.99518399,169.338441 21.7539533,146.018676 C20.3113027,170.636309 13.2522115,202.68719 14.5007323,227.398072 C19.9687208,203.986961 20.2827542,180.11722 23.5658312,157.039139 C25.2749344,145.032905 23.9502842,132.120826 29.91121,124.826501 C25.0160947,158.133383 28.8263672,190.028215 21.7539533,224.857524 C25.5699355,237.390898 17.2889687,255.720911 22.6617955,268.086819 C31.9305403,268.554966 34.3038718,258.080672 32.6290268,251.132699 C29.1384974,251.541851 31.5232484,257.445059 28.0993322,257.915108 C26.2094218,250.287752 29.1518201,240.313957 29.0033679,229.940524 C28.4362045,189.757984 28.9557871,133.795495 35.3487468,99.396272 C37.114947,89.9039438 44.6060721,66.6545906 50.7592245,62.1006328 C52.5006827,60.8065704 57.6260892,56.7093405 59.8205169,62.1006328 C59.1562885,65.1492915 52.6757801,62.7628883 51.6632602,65.4918375 C49.4383808,85.5707378 48.4068285,118.729183 47.1335656,138.39132 C53.556977,126.154818 50.2148998,110.001875 54.3848834,96.0069704 C54.4134319,140.789141 52.04581,188.252685 49.8513823,235.029235 C49.8932535,237.609747 47.9348267,238.321481 47.1335656,240.112235 C53.0107491,246.727178 45.1465903,259.928517 48.0395045,270.631174 C45.8393671,273.592294 42.6057742,279.38132 45.3197845,284.192187 L50.7592245,284.192187 C52.5806185,278.842761 54.76553,270.003174 51.6632602,267.241873 C50.812515,263.616595 55.2546609,264.946815 55.288919,262.149357 C49.2727995,243.788895 55.100499,217.782047 56.194858,191.79423 C57.9363162,150.563118 56.72586,96.5569469 60.728359,64.6411818 C73.5466333,121.479066 62.0644286,186.286852 64.3559211,240.957182 C65.1324402,259.511753 72.5702748,266.01061 73.4191167,283.341531 C69.0645196,284.825897 68.8132928,294.049898 70.6993968,298.605758 C79.6560113,298.333625 81.5002441,287.710895 83.3901545,279.95223 C84.5454169,275.204163 83.3387672,269.887089 86.106068,266.391217 C85.8091637,264.412063 85.0174187,262.889636 84.2941902,261.30441 C93.309805,249.105969 96.0504605,231.044284 105.140301,218.920061 C102.715583,256.390779 99.5847642,277.495414 98.7968257,310.471169 C111.573229,310.267544 110.682516,292.771059 111.487583,284.192187 C108.996251,286.949682 109.65477,292.651168 105.140301,293.517048 C105.730304,290.112522 106.12237,286.521499 107.861925,284.192187 C101.655482,227.959467 113.480268,175.097019 130.52372,128.217706 C131.113722,133.315931 129.32849,140.636898 131.425853,144.323073 C136.393291,125.176659 132.611567,99.8986727 143.212575,83.2928074 C138.825622,146.87504 133.833442,213.671496 132.335598,274.871132 C130.537043,282.595542 125.070957,296.860677 130.52372,305.384362 C131.292626,304.12836 132.803793,303.565062 135.053415,303.688759 C136.115419,231.893036 142.453185,151.811508 146.834427,80.7465494 C147.266461,73.7700307 144.630483,68.0438046 154.99549,65.4918375 C159.626056,82.7827946 159.502346,104.416473 155.901429,119.741597 C156.238301,133.323543 158.358503,157.610049 153.183612,168.906453 C153.195032,170.305182 155.69588,169.378405 155.901429,170.602055 C148.992693,195.868623 153.10558,233.927378 149.557953,259.614517 C152.239609,262.777358 156.453367,257.587787 157.713307,259.614517 C158.396568,265.808889 155.174394,270.851926 158.621149,274.871132 C154.666231,275.664697 155.391363,284.494769 156.807368,287.583392 C165.326239,290.036401 163.822685,281.339541 164.964625,276.562928 C167.865152,264.438705 171.68494,250.173571 170.404065,238.422342 C167.84041,245.910777 169.395351,257.256659 163.152747,261.30441 C161.120094,230.912974 171.349971,208.297331 178.561321,185.01182 C179.611906,181.618712 176.972122,176.979118 182.18698,174.845818 C182.588562,205.655921 178.511837,232.52294 180.373199,263.850668 C190.509818,264.549081 187.137289,253.581902 185.812639,247.743397 C189.860816,250.946202 194.868222,235.678169 191.252079,231.63803 C188.817844,234.445003 190.882852,241.463389 186.718578,242.658493 C186.718578,211.570548 180.205715,173.323392 190.344237,140.086922 C195.983516,121.602763 197.783975,103.487793 203.940934,86.6821091 C203.326189,101.615208 207.024171,116.013556 204.846872,133.306416 C203.94474,140.463723 202.49067,150.816222 200.315275,158.734742 C200.022177,159.792828 197.780168,161.054539 197.593651,162.125946 C196.055839,171.049268 197.308167,180.684323 195.781774,189.253681 C195.087094,193.16251 192.070469,196.01135 191.252079,200.274144 C189.636234,208.657004 191.80021,218.518521 187.624517,226.54932 C191.583242,225.392276 189.554395,229.830149 193.06586,229.091772 C195.686612,221.938271 198.587139,215.043583 200.315275,207.054651 C202.456412,235.425065 196.284227,270.477029 195.781774,300.299458 C199.569207,300.109154 200.062145,301.67535 203.033091,300.299458 C204.797388,297.707527 205.105712,293.75683 204.846872,289.278994 C203.942837,288.146689 202.397412,287.61384 202.129056,285.887789 C201.786474,232.412564 206.41133,156.618569 224.788948,107.876187 C226.225889,126.750467 222.010228,141.127881 222.975167,159.583494 C227.546733,153.961935 225.991791,142.536125 226.600826,131.605104 C227.306925,118.917584 228.262348,105.219553 231.132424,96.851917 C229.17019,145.06145 230.723229,191.917927 224.788948,238.422342 C227.628572,254.733237 221.64671,274.907289 222.975167,298.605758 C231.360812,300.674355 230.690874,290.23051 232.040266,284.192187 C234.276565,274.176525 238.846227,262.526157 235.664021,254.523904 C235.148245,260.271063 234.990277,267.651025 230.226485,271.476121 C228.001605,265.342646 230.456776,258.341388 230.226485,251.132699 C228.414607,194.3481 236.912542,135.877413 233.852144,86.6821091 C235.957119,84.4098878 238.210547,82.2784909 242.011304,81.5953021 C249.078008,92.8479357 245.859641,105.85136 246.540998,118.894747 C247.829487,143.453387 246.392546,177.68324 242.011304,204.510296 C241.735335,206.190674 239.784521,207.045135 239.287777,208.74835 C236.990575,216.657355 240.359297,224.848008 239.287777,231.63803 C237.883191,240.568963 228.787641,250.181183 237.475899,254.523904 C237.21706,250.607462 241.244301,250.700711 242.913436,248.590247 C246.62474,242.44916 244.574958,230.928199 251.074499,227.398072 C250.370303,243.29601 251.06308,258.575461 246.540998,272.324874 C247.719099,282.108366 247.279453,293.107896 243.823181,301.144404 C248.246295,306.497636 236.373927,317.175554 244.727217,323.191041 C253.008184,321.88556 251.101144,311.064915 253.792316,304.535609 C252.233568,304.204481 251.468468,305.79732 251.074499,304.535609 C252.854022,247.157263 254.119672,183.668279 271.014671,134.996309 C274.84588,140.737759 271.905384,152.816309 272.826549,161.281 C270.437992,161.062151 269.851796,159.532112 270.108733,162.972796 C269.313181,166.927298 272.459225,161.806237 272.826549,164.670301 C274.158812,217.757308 270.415153,261.683114 270.108733,293.517048 C265.801716,296.266931 266.142395,304.269184 268.296855,308.775566 C279.289929,309.814622 274.044618,297.935891 277.36005,293.517048 C275.08759,291.558827 274.491878,296.015731 272.826549,292.668296 C274.954364,289.575867 273.964683,283.562283 275.546269,279.95223 C278.458216,279.210047 276.78908,282.749688 279.171928,282.496585 C279.963673,281.259613 279.89135,279.217659 282.795684,279.95223 C287.827832,246.938415 290.427648,205.452297 300.927785,174.845818 C299.372843,203.450306 303.251632,241.674625 299.114004,271.476121 C300.417718,273.649385 299.972362,277.45545 301.83182,279.107283 C297.437255,281.670668 298.792357,291.419906 302.739663,293.517048 C309.779721,293.50563 313.485316,271.152605 308.177199,267.241873 C305.503157,268.979342 309.037461,276.521061 306.365321,278.262336 C303.913957,256.543022 304.55154,237.010292 304.55154,216.375706 C304.55154,191.341308 300.96014,163.794906 305.455576,140.933772 C308.734847,124.282234 314.063899,105.179589 319.054176,89.220755 C320.837505,91.5101036 319.592791,96.6349713 319.962018,100.243122 C320.249406,103.053901 322.76548,96.9375535 323.587677,100.243122 C322.799739,153.109376 320.456859,210.466789 316.334456,261.30441 C316.220262,262.725976 318.148237,264.678487 318.148237,266.391217 C318.148237,270.180156 317.01391,278.275658 316.334456,284.192187 C314.813773,297.467745 309.770205,310.960248 317.242298,315.556073 C322.986255,312.147741 320.49873,304.97521 321.773896,298.605758 C324.516455,297.439199 325.013199,299.007298 329.025214,298.605758 C332.620421,276.345982 335.914917,250.542759 339.90219,227.398072 C340.907097,221.563374 339.411156,214.215763 345.339727,210.445855 C346.274215,215.840954 344.072174,218.295866 342.62191,221.466319 C343.430784,222.965909 346.30086,222.545339 345.339727,225.70247 C345.242662,244.472084 339.846997,255.831287 343.525946,274.871132 C341.487583,281.598353 338.743121,290.689141 340.808129,298.605758 C343.940851,297.933988 344.635531,299.54776 346.247569,300.299458 C352.956466,261.277768 358.066646,220.160838 360.748302,179.926916 C362.072952,160.045931 361.073754,140.157334 362.562083,121.435296 C362.973181,116.253338 364.179831,108.546054 367.999619,104.484982 C365.148576,184.825323 363.540344,255.247056 355.310765,327.427192 C357.872516,326.726876 357.657451,328.620394 359.842363,328.272139 C364.495767,323.864714 362.48405,318.600925 363.466118,313.017427 C369.750594,277.331753 376.832524,232.279352 383.408194,196.037993 C384.270358,191.291829 382.669739,184.606474 387.033853,181.622519 C386.371528,224.636772 382.665933,252.542846 382.502255,288.434047 C379.540824,291.518864 377.517688,304.478518 382.502255,307.079964 C392.6541,302.529812 387.859856,289.1572 388.847634,280.806691 C388.988473,279.607781 391.245707,277.874118 391.567354,276.562928 C396.612824,256.082488 398.609316,230.305907 400.630549,206.203995 C403.723303,169.313702 401.648779,130.402387 406.975928,93.4626154 C409.153227,94.537829 406.475378,100.146067 408.789709,101.093777 C408.995258,99.5884784 407.874254,96.8481109 410.601587,97.7025727 C406.589572,155.646119 406.199409,219.369177 395.193013,276.562928 C396.898309,279.126313 399.387738,273.335384 400.630549,275.716078 C397.962217,285.851632 401.041648,293.916685 401.534585,301.144404 C402.185491,310.598672 394.871366,318.920635 398.818672,328.272139 C399.03564,326.08936 400.377419,329.436795 402.44433,328.272139 C406.026215,325.556511 399.692255,318.069979 404.256208,317.255481 C406.290764,319.025302 405.068889,323.836169 407.881867,324.882837 C416.697642,325.364304 413.091016,319.284114 414.227246,313.864276 C419.501105,288.679539 424.647447,258.809534 427.822039,229.091772 C430.579824,203.30187 429.772853,177.085688 435.979296,155.343537 C435.543456,191.15481 435.545359,220.842124 435.07526,254.523904 C433.269092,255.378366 433.006446,257.677229 431.449602,258.760055 C433.453706,278.70384 426.301356,304.025596 433.261479,318.947277 C441.848867,316.45811 439.623987,304.567961 441.416833,295.214554 C444.176521,280.827625 445.445977,266.044865 448.671957,256.221409 C446.812498,244.964969 449.482734,235.727648 451.389774,225.70247 C454.440656,253.616157 449.49796,269.409427 447.764115,291.825252 C453.42433,297.949212 440.126441,317.192681 452.297616,317.255481 C459.809677,283.874381 456.937698,239.17404 464.98647,208.74835 C468.602613,222.520599 460.742261,233.811293 466.798348,243.50344 C465.938087,257.530696 464.402178,283.392913 463.172689,301.144404 C473.946892,301.955096 471.997981,289.996437 473.143727,282.496585 C476.350675,261.494713 480.172367,240.869643 484.020704,222.311265 C484.435609,235.383199 486.365487,254.700886 482.206923,266.391217 C485.628936,280.251006 478.743039,296.794071 483.112862,311.319921 C483.710477,308.781275 485.050353,312.130613 486.736617,311.319921 C489.237466,301.365156 486.772779,282.84484 493.083899,274.022379 C493.278029,278.642943 492.457736,284.211217 493.991742,287.583392 C498.291145,289.560643 498.3235,283.250186 500.335217,285.887789 C501.254479,289.393176 496.692429,295.519039 501.243059,296.908253 C506.695822,297.24509 505.22272,290.957469 505.772754,288.434047 C508.469635,276.060527 506.16482,266.809884 507.584632,255.370753 C508.656152,246.761432 510.665966,238.719215 511.208387,229.940524 C512.944136,201.99068 517.127442,175.987638 514.837853,148.563031 C511.387291,178.463484 512.729071,198.569027 508.492474,225.70247 C505.749915,218.172169 505.635721,205.905219 506.680596,195.183531 C508.429667,177.230319 510.652643,156.61286 513.931914,143.478127 C514.086076,144.743644 513.608364,146.606713 514.837853,146.869331 C518.412124,139.799564 512.196165,127.821875 518.463512,121.435296 C515.597243,164.028979 521.327877,219.395819 513.931914,262.149357 C519.622581,266.355059 511.41013,274.880647 515.743792,280.806691 C510.997129,290.207674 510.669773,303.747753 509.39651,316.406728 C511.465324,316.166946 512.807103,316.610353 513.022169,318.100428 C517.304443,318.71701 514.618981,312.808093 519.369451,313.864276 C521.20607,314.400932 519.967066,317.826391 522.089171,318.100428 C528.419324,291.813834 533.413407,258.786698 533.870183,224.857524 C532.286693,229.588463 533.626569,237.057868 530.246427,240.112235 C530.004717,227.795806 528.957939,216.919973 532.966147,203.665349 C538.740556,208.776895 529.749683,219.043758 535.685867,222.311265 C537.033356,202.559687 542.826798,175.679347 538.403684,158.734742 C537.5301,173.743962 536.036062,188.168952 534.778025,202.814693 C530.927785,186.332525 535.560254,163.545609 538.403684,147.714278 C540.792241,149.830451 535.779126,155.733659 541.123404,156.188484 C543.188412,132.509045 540.803661,114.25325 544.749063,90.0771198 C547.630558,147.695248 541.393663,206.965208 545.655002,261.30441 C542.744959,262.050399 543.776511,259.110213 542.029343,258.760055 C541.831407,277.274662 546.241198,287.646192 544.749063,306.235017 C546.911136,309.081955 551.31712,304.554639 552.000381,306.235017 C552.0118,309.085761 552.759771,313.953719 552.90632,318.947277 C558.256308,318.817871 560.724801,315.559879 563.783296,315.556073 C564.443718,313.632106 562.150322,308.943033 565.597077,309.626222 C568.478572,322.799016 561.946676,341.098581 567.408955,351.159916 C573.033009,350.676545 575.031403,340.700847 575.566212,338.447656 C579.298452,322.774277 578.468642,303.007474 581.005652,285.887789 C582.109527,278.437415 584.817828,271.502763 585.53725,264.695615 C590.849173,280.448921 579.066257,296.110882 585.53725,307.928717 C583.588339,312.26002 577.838672,327.046585 585.53725,327.427192 C589.235231,325.748717 589.444587,320.380261 588.25697,316.406728 C594.499574,300.114863 593.972378,274.640865 596.414226,255.370753 C596.914777,251.416251 597.649424,245.49211 601.853666,243.50344 C601.861279,270.720617 595.978386,298.990171 597.320165,330.818397 C599.244334,332.976436 601.358826,328.298781 603.665544,330.818397 C604.957839,340.579053 599.583109,352.891676 601.853666,357.942325 C608.387465,358.954738 608.216174,346.385206 610.010923,340.139452 C617.639081,338.797814 619.165474,331.750883 620.885996,324.882837 C616.780723,323.584969 621.367514,330.416857 617.260337,329.120891 C616.7674,327.887726 618.320438,324.74011 616.354399,324.882837 C615.385653,325.676402 616.07272,328.011423 613.634679,327.427192 C614.991684,319.33169 612.127318,312.488384 615.44846,306.235017 C618.761988,305.677429 618.923763,308.067638 621.793838,307.928717 C627.208536,304.516579 626.529082,295.404857 629.951095,290.127747 C630.881776,294.624614 630.272742,300.563979 631.764876,304.535609 C632.341556,307.616619 635.99957,302.571679 636.294571,305.384362 L636.294571,313.864276 C646.448319,315.752085 632.539492,329.758407 641.734011,334.209601 C644.495602,335.279106 644.428989,330.416857 648.07939,329.967741 C648.043228,332.548254 647.552194,335.54553 650.79911,335.058354 C651.394822,333.918437 652.734698,333.476934 654.424769,333.358946 C663.723965,309.239906 660.446598,275.655181 665.301745,246.049698 C668.837952,250.637911 665.667166,256.914113 671.647124,257.915108 C680.51048,259.40328 677.263565,245.353188 682.522197,240.112235 C682.41752,234.275633 683.009425,227.790097 681.614355,223.160018 C686.922472,217.76492 684.676657,203.355155 688.867576,199.423489 C688.652511,203.70341 689.42332,205.832903 689.773515,212.986404 C692.02504,214.092066 693.536207,210.497237 694.307016,212.986404 C695.941893,227.392363 690.249324,240.515678 692.493235,250.283946 C699.015615,251.86727 698.949002,247.279057 701.556431,245.199042 C700.456362,249.617885 705.290574,248.487483 708.807749,248.590247 C712.106051,241.785001 711.917631,231.71986 718.778786,228.246825 C719.490596,219.98005 717.81575,213.968369 722.404445,208.74835 C723.744321,224.969802 717.18578,235.017816 720.592567,248.590247 C731.429576,246.694826 732.428774,231.925388 734.187361,220.615663 C736.427466,206.219219 735.580527,191.927442 740.53274,182.471271 C746.040696,202.201917 734.255877,231.101375 744.158399,242.658493 C751.2232,241.826868 751.824621,232.56671 753.223497,225.70247 C754.557664,219.129394 756.596026,211.370729 757.753192,204.510296 C759.654522,193.253856 757.703708,178.93163 765.912352,176.535712 C768.491233,194.015069 759.298617,218.198811 765.00451,233.331729 C778.127301,230.450537 776.087036,203.853749 777.697171,194.338585 C780.017212,191.137683 779.929663,185.6893 781.320926,181.622519 C784.959908,196.928612 775.361904,211.610511 779.509049,227.398072 C790.974124,224.326577 791.933354,206.873862 794.009781,194.338585 C797.06447,175.894389 801.04984,159.889883 804.886758,145.171826 L804.886758,167.21085 C805.134178,168.959737 808.900676,167.418281 808.512417,169.755205 C808.044221,184.526547 801.030808,211.248935 803.07488,228.246825 C807.869124,229.217372 811.452912,224.438856 813.044014,220.615663 C821.075658,201.309394 821.368756,169.955024 829.360431,151.954235 C827.289713,149.143456 826.574098,142.636986 830.26637,140.933772 C835.599229,150.502221 827.183132,173.003682 837.517688,175.690765 C837.492946,187.805473 836.725943,196.024672 839.331469,206.203995 C842.190125,206.620759 842.530803,204.675859 845.676848,205.359048 C849.055086,197.404371 851.131513,185.969046 853.832201,179.926916 C856.786019,181.319936 852.176388,184.526547 854.740043,185.862476 C858.144927,188.774116 860.120483,180.992615 863.803239,184.164971 C862.560428,194.762961 859.374416,205.939473 862.895397,218.075114 C867.392736,219.169358 867.350865,216.021742 871.054557,216.375706 C877.742517,198.631827 877.94426,171.146322 888.275009,159.583494 C891.961571,172.398518 879.803719,186.159349 889.182851,196.88294 C895.672876,195.594586 899.279502,184.290571 905.499268,179.926916 C905.754301,184.924281 904.353521,194.585979 907.311145,201.119091 C918.161477,201.764219 914.362624,190.915028 914.562463,185.01182 C915.203853,166.116606 918.926577,139.626388 920,120.588447 L920,120.588447 Z" id="Fill-1" fill="#343434" mask="url(#mask-2)"></path>
                </g>
            </g>
        </g>
    </g>
</svg>