<?xml version="1.0" encoding="UTF-8"?>
<svg width="143px" height="142px" viewBox="0 0 143 142" version="1.1" xmlns="http://www.w3.org/2000/svg" xmlns:xlink="http://www.w3.org/1999/xlink">
    <title>A1805A77-F805-483A-9AB0-6EB1D7759E56</title>
    <g id="Page-1" stroke="none" stroke-width="1" fill="none" fill-rule="evenodd">
        <g id="Pre-Order-Now" transform="translate(-1388.000000, -732.000000)" fill="#F7A536">
            <g id="arrow" transform="translate(1388.370379, 732.550511)">
                <path d="M81.5995086,31.9099776 C81.1190896,31.8806663 80.6279471,31.8723257 80.1420472,31.8172777 C75.8578352,31.3330459 71.5502695,31.6018517 67.2567637,31.4116859 C66.077402,31.3594976 64.9161513,31.3618806 63.9009803,30.6105111 C63.6693498,30.4391712 63.3014099,30.4634781 63.0094887,30.3605312 C62.4225483,30.1539225 61.801054,29.9964042 61.2729744,29.6844655 C60.2032321,29.0527242 60.1844062,28.1538451 61.2195946,27.4894562 C61.7383803,27.1565469 62.3346145,26.9268228 62.9203633,26.7190225 C67.2341249,25.1879255 71.6317692,23.9265875 76.10853,22.9945844 C83.4515998,21.4661087 90.8108742,20.0115069 98.1803956,18.6160044 C101.403206,18.0057103 104.669864,17.6301447 107.912215,17.1206528 C108.836831,16.9755263 109.742621,16.7133929 110.6639,16.5422913 C112.300327,16.238455 113.932465,16.2677662 115.536959,16.7415127 C115.945649,16.8623323 116.352909,17.0277146 116.720134,17.2419491 C117.974799,17.9733011 118.130173,18.8180853 117.122389,19.8790105 C114.335435,22.8122825 112.05702,26.1263629 109.774792,29.4471157 C104.238774,37.5024732 98.879815,45.6705481 93.9014262,54.0845517 C93.8416122,54.1855922 93.7710745,54.28139 93.721984,54.3871966 C92.4046449,57.2315816 89.9565578,58.0580166 87.0795252,58.0806554 C85.7421686,58.091379 84.4226846,57.9090772 83.1839855,57.3724187 C81.6602758,56.7123193 81.2370497,55.8551433 81.7894361,54.2859178 C82.2419736,53.0000346 82.7922153,51.7408414 83.3936921,50.5162021 C85.5360364,46.1533501 88.2198052,42.11602 90.9619583,38.1170568 C92.0645864,36.5094645 93.1879469,34.9156938 94.2012115,33.1491534 C93.8914175,33.3078632 93.5723297,33.4506067 93.273736,33.6279042 C88.821997,36.2673486 84.742249,39.423434 80.7199321,42.6603042 C67.3265865,53.4387505 56.4602063,66.4117295 47.364656,80.9401125 C42.6815247,88.4206831 38.6794635,96.2184351 35.7735963,104.569527 C34.2353502,108.990525 33.4003364,113.54807 32.7807485,118.166145 C32.5896294,119.590959 32.3160575,121.026734 31.8730522,122.390304 C31.360939,123.965726 30.3267038,124.478792 28.6788383,124.31484 C27.6488926,124.212369 26.9616266,123.649736 26.4623818,122.784458 C25.6240317,121.331047 25.3075652,119.721787 25.0587769,118.096322 C24.3040712,113.165356 25.0115929,108.362358 26.3394174,103.612263 C28.382151,96.3044624 31.4743712,89.4449095 35.1671151,82.8389111 C42.5044656,69.7129415 51.4887284,57.8521227 62.4151609,47.4990473 C68.1854306,42.0314224 74.3550963,37.0480293 80.9553755,32.6070139 C81.1796186,32.4561681 81.3864657,32.2793473 81.5971255,32.1094372 C81.61476,32.0953773 81.5995086,32.0405676 81.5995086,31.9099776" id="Fill-1" transform="translate(71.266403, 70.343967) rotate(50.000000) translate(-71.266403, -70.343967) "></path>
            </g>
        </g>
    </g>
</svg>