<?xml version="1.0" encoding="UTF-8"?>
<svg width="1282px" height="680px" viewBox="0 0 1282 680" version="1.1" xmlns="http://www.w3.org/2000/svg" xmlns:xlink="http://www.w3.org/1999/xlink">
    <title>24CD9D5A-A499-424F-9B49-39F60CF785F0</title>
    <defs>
        <polygon id="path-1" points="-1.8189894e-12 -4.54747351e-13 1218 -4.54747351e-13 1218 474 -1.8189894e-12 474"></polygon>
    </defs>
    <g id="Page-1" stroke="none" stroke-width="1" fill="none" fill-rule="evenodd">
        <g id="Pre-Order-Now" transform="translate(-319.000000, -473.000000)">
            <g id="Group-3" transform="translate(960.000000, 813.000000) rotate(170.000000) translate(-960.000000, -813.000000) translate(351.000000, 576.000000)">
                <mask id="mask-2" fill="white">
                    <use xlink:href="#path-1"></use>
                </mask>
                <g id="Clip-2"></g>
                <path d="M1156.80116,238.227258 C1151.17716,231.278041 1154.59137,213.852085 1161.60122,211.292113 C1160.90578,221.118779 1156.8062,227.760598 1156.80116,238.227258 L1156.80116,238.227258 Z M1144.80228,218.027159 L1142.40099,218.027159 C1134.41853,206.756728 1144.9585,181.252748 1142.40099,167.518092 C1145.47504,166.28094 1144.28826,161.052649 1149.60234,161.909333 C1147.9872,180.602677 1147.1305,200.001525 1144.80228,218.027159 L1144.80228,218.027159 Z M1129.20272,223.635918 L1125.59953,223.635918 C1122.96643,220.841617 1125.6978,216.263398 1129.20272,215.779624 L1129.20272,223.635918 Z M1118.40071,234.855955 C1116.47564,232.626058 1109.92942,230.995839 1113.60065,227.00722 C1116.91155,226.523446 1114.72696,231.189853 1117.20132,231.499771 C1120.356,229.582311 1116.09265,220.728232 1122.00138,221.390902 C1123.04454,227.979808 1120.78688,231.482133 1118.40071,234.855955 L1118.40071,234.855955 Z M1077.59896,200.067036 C1075.65626,197.685959 1077.88117,192.019248 1081.19963,191.086974 C1080.83175,194.858902 1082.80217,200.822933 1077.59896,200.067036 L1077.59896,200.067036 Z M1029.60343,182.109432 C1025.00243,179.39576 1030.58108,171.284981 1029.60343,167.518092 C1031.84597,170.055388 1031.23872,179.478909 1029.60343,182.109432 L1029.60343,182.109432 Z M993.599221,264.041155 C991.30124,256.48722 990.767061,247.411412 994.801125,241.596041 C999.70449,245.816468 993.647095,257.180126 993.599221,264.041155 L993.599221,264.041155 Z M990.001067,157.419302 C987.647654,157.958509 986.135825,152.27416 988.801683,151.805504 C993.125514,150.734649 990.928323,156.650807 990.001067,157.419302 L990.001067,157.419302 Z M986.400395,185.478215 C981.270255,183.847996 986.420552,177.944437 986.400395,174.248099 C989.26783,176.283983 987.078198,183.041706 986.400395,185.478215 L986.400395,185.478215 Z M975.600896,233.737227 C971.287144,232.948574 973.912687,228.471142 975.600896,227.00722 C978.271794,227.473357 976.54075,232.963692 975.600896,233.737227 L975.600896,233.737227 Z M967.202686,184.354448 C962.899013,183.669101 965.204552,176.800513 966.000782,174.248099 C968.724594,175.444937 966.45685,181.305661 967.202686,184.354448 L967.202686,184.354448 Z M925.199037,132.724133 C921.167493,133.878137 923.331928,129.236926 922.800268,127.115374 C926.295113,126.946557 926.443776,131.665877 925.199037,132.724133 L925.199037,132.724133 Z M919.202115,125.991607 C916.309482,126.452704 916.59169,123.940605 913.200154,124.872878 C913.613387,103.828694 914.596076,73.8724786 918.000211,51.9161777 C920.565281,73.3660273 922.674282,103.150906 919.202115,125.991607 L919.202115,125.991607 Z M883.200427,276.38748 C881.807025,276.571415 881.066228,276.140553 880.801658,275.263712 C881.015834,226.646909 881.285444,185.626875 882.001043,150.679217 C891.31139,193.99466 884.800446,228.352718 883.200427,276.38748 L883.200427,276.38748 Z M880.801658,324.649011 C877.493272,322.953282 878.881635,316.807835 879.599754,313.426454 C882.336165,314.978564 880.048264,321.239914 880.801658,324.649011 L880.801658,324.649011 Z M884.402331,148.44176 C881.544974,146.209343 880.756303,136.181104 883.200427,132.724133 C885.022181,135.908981 883.565786,143.664489 884.402331,148.44176 L884.402331,148.44176 Z M885.599196,88.9526324 C884.85336,102.097689 887.128663,118.072321 884.402331,129.36039 C879.128568,119.667265 879.060535,97.209552 885.599196,88.9526324 L885.599196,88.9526324 Z M850.799412,81.0963384 C845.369426,77.6696033 847.790872,67.7219931 848.400643,63.146294 C852.626205,65.9481538 852.487621,76.1779657 850.799412,81.0963384 L850.799412,81.0963384 Z M842.398682,204.559586 C837.618782,204.431083 840.015031,193.99466 843.600586,194.458277 C843.970984,198.542642 843.411607,201.762766 842.398682,204.559586 L842.398682,204.559586 Z M842.398682,117.011545 C842.968137,144.914239 844.45225,164.978277 842.398682,192.210742 C841.098509,191.93106 841.587334,189.980844 839.999913,189.968246 C841.292527,166.127241 836.802395,139.733822 842.398682,117.011545 L842.398682,117.011545 Z M836.40176,66.5024786 C842.340728,67.6438837 838.934074,79.3955692 839.999913,87.8313845 C835.436709,83.8654427 836.701606,74.4570392 836.40176,66.5024786 L836.40176,66.5024786 Z M834.000472,339.242871 C830.500588,342.183312 829.485142,336.000071 824.402877,336.995336 C820.361254,280.250116 828.27064,229.524359 831.601703,179.864417 C838.61407,199.825148 832.045173,229.655381 836.40176,251.69987 C837.676736,255.882502 831.89651,253.476229 832.801087,257.308629 C843.56279,274.931118 829.41711,300.833203 837.601144,323.527764 C834.315436,328.105982 834.849616,335.067798 834.000472,339.242871 L834.000472,339.242871 Z M828.00103,386.383155 C828.00355,374.203128 828.046385,362.446403 823.200973,349.344181 C827.3837,349.701972 827.675987,348.915839 835.199856,348.217894 C834.335594,363.003247 832.387854,378.002772 828.00103,386.383155 L828.00103,386.383155 Z M828.00103,396.484464 C824.218938,394.579603 826.506839,391.261213 826.801646,387.499364 C828.812378,389.124543 830.316648,394.178977 828.00103,396.484464 L828.00103,396.484464 Z M819.6003,307.817695 C814.47772,307.366676 818.45635,298.406772 817.199012,294.345083 C823.256407,296.010577 818.161543,301.478235 819.6003,307.817695 L819.6003,307.817695 Z M817.199012,237.10853 C822.631518,246.993148 818.126267,266.170266 819.6003,279.758783 C814.067006,269.967391 818.751156,250.621456 817.199012,237.10853 L817.199012,237.10853 Z M819.6003,215.779624 L819.6003,231.499771 C815.473007,228.77602 815.266391,218.218653 819.6003,215.779624 L819.6003,215.779624 Z M815.999628,435.763415 C816.992395,438.940704 814.306379,438.67362 814.800243,441.374693 C811.229807,441.278946 811.587607,434.685001 815.999628,435.763415 L815.999628,435.763415 Z M807.601417,115.890297 C808.382529,110.503268 809.405533,106.393706 807.601417,101.301477 C813.646214,101.515648 808.193551,110.752714 811.20209,115.890297 L807.601417,115.890297 Z M802.80136,436.884663 C794.725674,425.644468 807.707246,406.240581 801.601976,393.113162 C805.313516,390.601063 801.292051,380.849986 807.601417,380.766837 C805.98628,400.241275 806.522979,421.42656 802.80136,436.884663 L802.80136,436.884663 Z M796.801919,311.183959 C790.416961,307.396912 795.179222,291.044331 796.801919,284.248813 C799.80038,292.016919 798.590917,302.407989 796.801919,311.183959 L796.801919,311.183959 Z M794.400631,223.635918 C797.464604,223.76442 796.781761,227.392728 796.801919,230.365924 C794.864258,230.685921 794.733233,229.312707 793.201246,229.247196 C792.205959,226.079986 794.891975,226.34455 794.400631,223.635918 L794.400631,223.635918 Z M789.600573,225.880933 C784.735004,226.311795 788.277723,218.881323 787.199285,215.779624 C792.064855,215.346242 788.522135,222.771675 789.600573,225.880933 L789.600573,225.880933 Z M784.800516,274.144984 C780.464087,265.049018 788.811903,252.06522 784.800516,238.227258 C792.757776,246.214574 790.003728,266.613726 784.800516,274.144984 L784.800516,274.144984 Z M787.199285,305.567641 C784.087437,303.569552 780.265029,289.575371 787.199285,288.736324 L787.199285,305.567641 Z M796.801919,195.577005 L796.801919,219.145887 C792.843447,216.263398 792.843447,198.459494 796.801919,195.577005 L796.801919,195.577005 Z M771.602249,141.704195 C771.405711,143.021976 769.412617,142.651586 768.001576,142.830482 C765.093825,129.897077 767.714329,112.710489 771.602249,102.420205 C775.842929,111.846246 765.58013,130.76132 771.602249,141.704195 L771.602249,141.704195 Z M765.600288,281.998759 C764.206886,282.182694 763.46105,281.751832 763.201519,280.877511 C762.851279,259.377268 762.012214,236.299719 764.398384,214.658376 C765.217291,207.25562 766.585497,196.806598 771.602249,191.086974 C772.521945,217.57614 772.783995,253.9852 765.600288,281.998759 L765.600288,281.998759 Z M771.602249,348.217894 C766.336045,346.784208 770.556567,336.473767 769.200961,331.381538 C774.464645,332.820263 770.244123,343.125664 771.602249,348.217894 L771.602249,348.217894 Z M769.200961,369.54428 C765.098865,368.947121 767.364088,364.137093 768.001576,361.685466 C770.685073,362.17176 768.485362,367.218635 769.200961,369.54428 L769.200961,369.54428 Z M759.598327,388.623131 C759.023832,369.91467 764.385785,340.671517 761.999615,316.795237 C771.992805,334.518512 762.896634,367.578946 759.598327,388.623131 L759.598327,388.623131 Z M757.199558,271.899969 C754.493384,271.063442 756.730891,265.605863 756.000174,262.914868 C760.918657,264.194854 756.287421,267.891193 757.199558,271.899969 L757.199558,271.899969 Z M753.601405,232.618499 C757.509483,232.998967 756.355454,241.82533 754.800789,243.838536 C752.064379,242.281388 754.35228,236.030116 753.601405,232.618499 L753.601405,232.618499 Z M753.601405,145.070458 C758.091537,153.322338 756.191672,173.194882 754.800789,183.2332 C751.008618,175.321473 752.722025,154.617443 753.601405,145.070458 L753.601405,145.070458 Z M750.000732,407.704502 C740.262034,399.999387 746.92668,384.20617 745.200675,372.913063 L750.000732,372.913063 C753.457781,379.955507 744.852955,390.928618 751.200117,397.603193 C744.417044,398.893258 749.738682,403.587381 750.000732,407.704502 L750.000732,407.704502 Z M745.200675,203.440858 C746.332027,214.099012 747.347472,239.509764 745.200675,256.187381 C739.685019,237.69309 742.040953,220.826499 745.200675,203.440858 L745.200675,203.440858 Z M747.599444,186.599463 C747.72039,191.200359 747.836297,195.798735 746.40006,198.948307 C742.832143,198.439336 742.025834,185.538687 747.599444,186.599463 L747.599444,186.599463 Z M746.40006,183.2332 C742.610408,183.019029 743.618294,174.943525 745.200675,173.13189 C746.669669,175.515487 748.015197,181.38629 746.40006,183.2332 L746.40006,183.2332 Z M745.200675,161.909333 C747.138336,164.80946 747.753147,168.944219 746.40006,172.008123 C741.821737,172.532212 744.124757,163.242232 745.200675,161.909333 L745.200675,161.909333 Z M750.000732,342.604095 C745.966669,343.758099 748.131104,339.116888 747.599444,336.995336 C751.16736,336.755969 751.830045,341.001593 750.000732,342.604095 L750.000732,342.604095 Z M764.398384,312.305206 C761.33441,312.179223 762.017253,308.543357 761.999615,305.567641 C767.724408,305.72134 763.597115,308.112495 764.398384,312.305206 L764.398384,312.305206 Z M768.001576,41.8148684 C768.261107,56.6052615 766.860145,74.1446016 763.201519,90.0713606 C759.507617,79.3955692 757.935315,51.8229504 768.001576,41.8148684 L768.001576,41.8148684 Z M768.001576,21.6147692 C775.457413,22.3051556 768.477803,29.4408274 769.200961,33.953535 C763.793652,32.0688308 769.11529,26.3315692 768.001576,21.6147692 L768.001576,21.6147692 Z M734.396137,352.707924 C731.71516,352.22667 733.914872,347.174755 733.201792,344.85415 C738.959341,344.322502 736.653802,351.377545 734.396137,352.707924 L734.396137,352.707924 Z M733.201792,398.721921 C727.933068,397.293275 732.15863,386.980314 730.800504,381.893124 C736.971286,384.377507 731.712641,391.273811 733.201792,398.721921 L733.201792,398.721921 Z M733.201792,311.183959 C737.520584,313.09134 735.817257,325.4679 734.396137,329.139042 C729.565844,324.848064 733.980384,318.10294 733.201792,311.183959 L733.201792,311.183959 Z M727.199831,207.92333 C724.4735,206.819719 724.226567,202.304492 728.401735,202.307011 C728.782212,204.917378 728.207717,206.623186 727.199831,207.92333 L727.199831,207.92333 Z M727.199831,220.269654 C726.41368,220.89453 721.46748,211.861555 726.000447,210.168345 C730.770267,211.299672 727.151957,216.931107 727.199831,220.269654 L727.199831,220.269654 Z M723.601678,54.1637128 C719.229973,53.3473436 721.55063,45.6069538 722.399774,42.9361162 C726.076038,45.9219111 722.805448,48.4768444 723.601678,54.1637128 L723.601678,54.1637128 Z M724.801063,177.619401 C726.645494,181.131805 726.711006,186.309702 727.199831,191.086974 C723.223721,189.849822 724.652399,179.148834 724.801063,177.619401 L724.801063,177.619401 Z M705.600834,145.070458 C700.274157,142.951425 704.603027,131.79186 703.199546,125.991607 C708.140707,128.478509 704.466962,139.025798 705.600834,145.070458 L705.600834,145.070458 Z M703.199546,332.505306 C698.147517,332.366724 702.005201,323.893114 700.800777,320.158981 C705.855325,320.297562 701.992602,328.773692 703.199546,332.505306 L703.199546,332.505306 Z M700.800777,353.834211 C696.857423,351.841162 700.022185,342.440317 699.598873,339.242871 C702.360481,341.896071 700.027225,349.313945 700.800777,353.834211 L700.800777,353.834211 Z M693.601951,265.167442 C692.120359,265.653736 691.13515,266.601128 691.200663,268.531186 C691.986814,217.661808 684.057271,154.020284 692.400047,102.420205 C693.425571,96.0807452 691.321609,86.2591179 699.598873,84.4651213 C701.496218,86.803364 701.896853,94.9267418 697.200104,94.5613914 C700.921723,104.413255 701.251806,111.700106 698.399489,120.382848 C696.575215,125.933655 698.056807,123.053685 699.598873,130.481637 C700.956999,137.02519 698.47256,141.789863 696.00072,147.323032 C701.334957,185.999784 692.73265,229.068301 693.601951,265.167442 L693.601951,265.167442 Z M690.001278,275.263712 C692.526033,276.183388 693.294546,281.182389 691.200663,283.125046 C685.523745,282.928512 691.631534,278.685408 690.001278,275.263712 L690.001278,275.263712 Z M688.801894,394.23441 C687.121244,378.89977 684.319321,353.680512 694.801336,343.735422 C692.100201,357.90094 690.371677,375.596499 688.801894,394.23441 L688.801894,394.23441 Z M687.59999,408.82575 L683.999317,408.82575 C683.638998,403.252266 684.205934,398.548064 687.59999,396.484464 C691.190584,399.550888 685.997451,403.897299 687.59999,408.82575 L687.59999,408.82575 Z M673.199819,151.805504 C671.801377,151.986919 671.0631,151.561097 670.80105,150.679217 C669.271583,137.398099 670.208917,122.229757 670.80105,108.034003 C671.242,97.423723 666.691395,83.3816683 675.601107,76.6063076 C676.850886,102.490755 674.396683,131.688554 673.199819,151.805504 L673.199819,151.805504 Z M671.997915,299.956362 C676.052136,301.936813 671.967678,305.708741 673.199819,311.183959 C670.045136,308.991856 667.97141,302.617121 671.997915,299.956362 L671.997915,299.956362 Z M661.200936,261.79614 C660.132577,261.299767 659.056658,260.813473 658.802167,259.558683 C662.178585,212.841702 661.415112,170.282157 664.799089,123.746591 C670.856484,167.633996 666.142097,220.728232 661.200936,261.79614 L661.200936,261.79614 Z M656.400879,215.779624 C655.256928,261.997712 651.976259,316.878386 649.197014,360.564218 C647.264392,360.881695 647.133367,359.505962 645.60138,359.440451 C648.000149,333.719781 644.45491,308.046984 644.396956,279.758783 C644.344042,250.157839 654.17849,220.546817 655.201494,191.086974 C662.037481,198.079025 656.610015,207.298454 656.400879,215.779624 L656.400879,215.779624 Z M655.201494,342.604095 C650.620653,343.133223 652.926192,333.838205 654.00211,332.505306 C656.723402,333.702143 654.458179,339.565388 655.201494,342.604095 L655.201494,342.604095 Z M652.800206,354.95294 C649.13654,352.876741 654.18353,349.621343 652.800206,345.972878 C657.250023,346.804365 652.709496,351.576598 652.800206,354.95294 L652.800206,354.95294 Z M642.000708,247.2048 C637.497977,245.090806 638.8813,237.909781 639.599419,233.737227 C644.092071,234.775326 641.164162,242.750044 642.000708,247.2048 L642.000708,247.2048 Z M639.599419,261.79614 C635.341101,262.337866 634.302978,254.103624 639.599419,255.066133 L639.599419,261.79614 Z M639.599419,224.759685 C643.938368,223.69387 641.27251,229.176646 642.000708,231.499771 C637.664278,232.560547 640.327617,227.075251 639.599419,224.759685 L639.599419,224.759685 Z M633.599978,138.340451 C631.569087,192.329166 633.453834,245.468755 622.800479,302.203897 C619.628158,239.071343 618.90248,168.059819 624.002383,102.420205 C624.881764,91.0464683 618.622792,73.257682 632.400593,68.7550529 C628.835197,82.2226256 639.861469,96.0731862 631.201209,103.543973 C637.374511,110.969405 634.093842,125.205473 633.599978,138.340451 L633.599978,138.340451 Z M604.799635,304.446393 C603.809387,294.546656 601.277073,285.226441 598.802713,274.144984 C600.657224,275.772683 601.317389,278.52163 601.201482,281.998759 C606.34422,252.551514 598.230738,219.884147 609.599692,189.968246 C609.977649,231.464495 606.606271,267.39482 604.799635,304.446393 L604.799635,304.446393 Z M598.802713,296.590099 C594.23195,297.426625 596.204887,289.320885 599.999578,290.973781 C600.382575,293.581627 599.80556,295.292475 598.802713,296.590099 L598.802713,296.590099 Z M594.002656,161.909333 C594.337778,163.720967 592.866265,163.841911 592.800752,165.273077 C590.318833,136.055121 584.914044,95.6171281 594.002656,72.1187965 C599.092481,95.3424854 590.855532,133.157514 594.002656,161.909333 L594.002656,161.909333 Z M591.596328,192.210742 C586.912178,191.316263 589.265592,179.259699 590.399464,176.500673 C593.166111,179.524263 590.825296,187.325125 591.596328,192.210742 L591.596328,192.210742 Z M586.796271,65.3837504 L581.998734,65.3837504 C582.794964,60.8886803 584.520969,57.2679316 585.601926,53.0374256 C589.585596,56.2600683 586.047916,59.5431829 586.796271,65.3837504 L586.796271,65.3837504 Z M584.397503,273.018697 C583.0041,273.202632 582.265824,272.77429 581.998734,271.899969 C580.297926,237.965213 581.76944,201.50576 581.998734,170.886875 C582.162515,149.573087 575.661651,126.548451 585.601926,104.66522 C585.193733,157.36135 587.033125,209.283945 584.397503,273.018697 L584.397503,273.018697 Z M584.397503,287.617596 L580.801869,287.617596 L580.801869,283.125046 C583.964112,282.782372 584.737664,284.674635 584.397503,287.617596 L584.397503,287.617596 Z M578.400581,35.0873812 C581.212583,35.9541436 583.251032,40.5071658 580.801869,42.9361162 C577.102928,42.8907624 576.508275,36.9796444 578.400581,35.0873812 L578.400581,35.0873812 Z M549.600238,389.744379 C539.511299,344.965015 555.294794,292.59896 561.596601,247.2048 C564.282618,227.901699 563.687965,208.996704 571.201755,193.331989 C566.845168,260.125606 559.772328,328.100943 549.600238,389.744379 L549.600238,389.744379 Z M553.200911,96.8139657 C558.439399,99.1824443 557.978291,108.20534 558.000968,113.645282 C558.086638,135.339538 555.647554,165.313391 553.200911,185.478215 C551.802469,185.659631 551.061673,185.228769 550.802142,184.354448 C552.457595,156.010813 550.837418,121.17402 553.200911,96.8139657 L553.200911,96.8139657 Z M561.596601,193.331989 C561.757863,196.101094 561.78306,198.739176 560.399737,200.067036 C558.567904,200.046878 557.769154,191.749644 561.596601,193.331989 L561.596601,193.331989 Z M530.40001,203.440858 C528.182661,257.482485 521.749828,312.763784 515.999839,363.935521 C514.603917,364.116936 513.86564,363.683555 513.60107,362.811753 C515.843616,285.755569 511.328287,202.344807 528.001241,127.115374 C532.912166,130.663053 532.667753,135.946776 532.801298,140.582947 C533.360675,160.256437 531.271831,182.167384 530.40001,203.440858 L530.40001,203.440858 Z M514.800454,114.769049 C516.881739,115.789511 517.902223,118.699716 515.999839,120.382848 C512.945944,120.266943 513.16264,116.200215 514.800454,114.769049 L514.800454,114.769049 Z M520.802415,119.26412 C523.450636,119.397661 521.308878,124.016195 521.99928,125.991607 C520.061619,126.309084 519.933114,124.930831 518.401127,124.872878 C518.214668,122.076058 520.285874,121.39575 520.802415,119.26412 L520.802415,119.26412 Z M505.20034,130.481637 C508.806052,190.928236 492.105381,259.717422 487.199496,324.649011 C485.806094,324.830427 485.065297,324.402085 484.798208,323.527764 C484.201035,273.159798 489.28582,211.541559 491.999553,159.661798 C492.521134,149.676393 491.05466,136.234017 491.999553,123.746591 C492.543812,116.578164 491.687108,104.156249 501.597148,103.543973 C509.776143,110.022014 504.676239,121.670393 505.20034,130.481637 L505.20034,130.481637 Z M486.000112,375.150519 C483.490476,375.631774 482.822751,374.389582 481.197535,374.031791 C482.812672,371.423945 481.033753,365.648888 486.000112,366.175497 C488.653372,368.634683 484.813326,370.763794 486.000112,375.150519 L486.000112,375.150519 Z M484.798208,101.301477 C484.926713,95.0602837 483.845755,87.687764 487.199496,84.4651213 C491.767739,86.3523452 489.411806,97.5522255 488.4014,101.301477 L484.798208,101.301477 Z M488.4014,53.0374256 C490.621269,60.37467 490.087089,74.7997128 488.4014,82.2226256 C481.802267,77.9618837 487.156661,60.6493128 488.4014,53.0374256 L488.4014,53.0374256 Z M464.396075,336.995336 C462.460934,337.312813 462.334948,335.93708 460.800442,335.876608 C461.067532,287.123743 458.706559,222.451678 477.599382,175.381945 C474.049103,225.646605 470.156144,282.905835 464.396075,336.995336 L464.396075,336.995336 Z M459.601058,157.419302 C454.871552,156.073805 459.439796,151.845819 457.199769,147.323032 C462.065339,146.877053 458.5201,154.307525 459.601058,157.419302 L459.601058,157.419302 Z M456.000385,231.499771 C453.626813,224.918424 453.132949,212.055569 458.401673,206.797042 C456.806694,214.99601 459.606097,222.270263 456.000385,231.499771 L456.000385,231.499771 Z M454.798481,243.838536 C450.232757,243.911607 453.047279,233.86573 456.000385,233.737227 C456.826851,238.252454 454.851395,240.147237 454.798481,243.838536 L454.798481,243.838536 Z M450.000943,206.797042 C447.64753,227.490995 441.27769,248.167309 443.996462,271.899969 C441.779113,272.066266 443.260706,275.699613 441.597694,276.38748 C439.559244,276.805743 439.33499,275.515678 439.196405,274.144984 C442.144472,216.187808 443.404329,162.81893 446.400271,108.034003 C451.628679,129.864321 449.340778,150.762366 448.799039,172.008123 C448.516831,183.170208 451.285998,195.453542 450.000943,206.797042 L450.000943,206.797042 Z M436.797637,131.602885 C437.556071,145.803678 442.24778,160.687299 435.600772,174.248099 C442.552666,197.796824 433.610197,232.248109 434.396348,258.427357 C434.625642,265.915781 437.309139,272.890194 436.797637,279.758783 C435.074152,303.007668 430.163227,324.190434 427.200042,354.95294 C426.381135,283.263627 430.954418,187.589689 434.396348,117.011545 C432.899638,111.140742 429.457707,100.152513 435.600772,96.8139657 C443.288423,105.751193 436.119833,118.853415 436.797637,131.602885 L436.797637,131.602885 Z M429.598811,112.524034 L429.598811,129.36039 C423.624567,128.533942 425.083482,113.761186 429.598811,112.524034 L429.598811,112.524034 Z M393.599643,210.168345 C388.40903,199.59586 395.895103,181.721405 396.000931,168.64186 C398.762539,181.335897 397.467405,199.936013 393.599643,210.168345 L393.599643,210.168345 Z M387.600201,189.968246 C387.297835,193.200967 384.261579,196.766283 383.997009,200.067036 C382.281083,221.92255 382.996682,243.818379 380.401375,265.167442 C377.130785,292.047155 367.943904,317.65696 365.998684,344.85415 C360.016881,334.510953 365.814745,322.897849 365.998684,311.183959 C366.91838,252.967258 361.647136,180.020636 368.399973,123.746591 C370.327555,107.696369 375.092336,80.509258 387.600201,74.3612922 C391.180716,93.8004546 386.511684,113.854414 386.398297,133.85042 C386.294989,152.556362 389.366521,171.128762 387.600201,189.968246 L387.600201,189.968246 Z M329.999516,278.635015 C330.337158,280.446649 328.865644,280.567593 328.800132,281.998759 C327.404209,282.182694 326.665933,281.751832 326.398843,280.877511 C332.206786,224.925983 335.351391,154.471302 339.59963,91.2052067 C342.77951,151.712277 340.92752,218.924157 329.999516,278.635015 L329.999516,278.635015 Z M242.401624,137.214164 C239.398123,135.808195 237.475581,122.229757 243.598488,122.620304 C243.114703,127.405135 244.760077,134.188055 242.401624,137.214164 L242.401624,137.214164 Z M242.401624,164.151829 C235.827687,161.896735 237.651961,141.9612 243.598488,140.582947 C243.152499,148.396407 244.704643,158.074413 242.401624,164.151829 L242.401624,164.151829 Z M238.798431,218.027159 L235.200278,218.027159 C235.590834,196.86707 236.843132,180.128981 240.000335,166.399364 C246.203873,182.154786 237.410068,199.046574 238.798431,218.027159 L238.798431,218.027159 Z M214.800665,185.478215 C212.149925,185.337114 214.289163,180.713542 213.598761,178.73813 C216.889509,178.763326 216.451079,184.036971 214.800665,185.478215 L214.800665,185.478215 Z M208.798704,317.913965 C202.076104,276.75787 211.608186,241.548167 213.598761,204.559586 C214.989644,238.479224 214.702396,283.193077 208.798704,317.913965 L208.798704,317.913965 Z M186.000323,99.0564614 C180.383878,96.332711 184.78834,84.7926768 189.600995,84.4651213 C190.014229,90.8398563 186.421115,93.4653401 186.000323,99.0564614 L186.000323,99.0564614 Z M104.396832,369.54428 C100.79364,364.240399 103.280599,352.707924 110.401313,349.344181 C107.874039,357.119846 105.271173,362.708447 104.396832,369.54428 L104.396832,369.54428 Z M14.3976516,130.481637 C15.3904193,133.648848 12.7069228,133.391843 13.1982672,136.092916 C8.51411702,136.821097 11.2958824,129.471255 14.3976516,130.481637 L14.3976516,130.481637 Z M148.79925,85.5863691 L145.201097,85.5863691 C145.117947,81.7690871 144.828179,77.7552717 147.599866,76.6063076 C153.173476,76.8355965 148.055934,82.794588 148.79925,85.5863691 L148.79925,85.5863691 Z M828.00103,90.0713606 C823.22869,88.7812956 828.552848,83.0415144 826.801646,77.7325948 C830.505627,79.3779315 829.33144,86.8335999 828.00103,90.0713606 L828.00103,90.0713606 Z M1218,159.661798 C1204.09117,152.105343 1199.87065,167.452581 1196.401,176.500673 C1181.67831,174.303531 1194.59437,154.360437 1191.60095,145.070458 C1165.53953,133.207908 1169.10745,181.739042 1156.80116,189.968246 C1156.54667,175.885877 1160.3464,165.598113 1159.19993,150.679217 C1125.26945,135.601583 1134.8494,194.831186 1118.40071,203.440858 C1121.41176,186.423087 1117.9018,163.310263 1120.79947,146.189186 C1096.43887,129.687945 1096.23225,186.012383 1083.60092,192.210742 C1085.32189,176.687128 1091.34149,161.486031 1088.40098,145.070458 C1081.46924,142.049388 1079.78859,128.647326 1070.40013,131.602885 C1061.52822,150.616225 1059.7493,176.266345 1050.00052,194.458277 C1047.07765,174.648725 1055.58925,152.213689 1050.00052,140.582947 C1045.21558,141.200263 1046.38725,141.200263 1041.60231,140.582947 C1037.33643,145.198961 1036.39154,152.919193 1032.0022,157.419302 C1030.03682,154.569569 1033.83151,146.975319 1030.80029,142.830482 C1025.7659,140.028622 1022.58854,144.649675 1020.00079,142.830482 C1016.88391,139.313039 1021.6764,135.344578 1018.80141,131.602885 C1014.56073,130.796595 1014.58089,130.476598 1009.2013,129.36039 C1005.91055,138.249743 1004.92282,149.298444 1002.00247,158.54055 C995.126168,144.175979 1001.15585,122.103774 1000.80057,100.177709 C998.02384,98.6583554 996.824456,95.6650016 991.200452,96.8139657 C983.636267,103.581767 980.975448,114.937867 981.600338,129.36039 C976.374449,131.149347 975.250656,131.411391 972.000223,136.092916 C971.823843,108.291008 977.367216,83.9133162 973.199608,56.4062085 C944.391706,47.4689812 960.895839,109.462649 949.201842,122.620304 C941.486475,118.137832 948.831444,105.340489 947.999938,96.8139657 C943.504766,96.1563349 944.374068,95.9673606 938.399824,95.6876785 C934.081032,103.246653 936.633504,117.233275 931.200998,123.746591 C932.007307,103.307125 927.905211,82.0689264 927.600325,59.7699521 C927.388669,44.3269675 932.730465,30.5368786 915.601442,30.5923111 C902.292308,41.1572376 914.311348,71.1714051 898.799983,77.7325948 C894.246858,76.7448888 896.365938,69.5336273 891.601157,68.7550529 C887.15134,67.9563213 886.450859,70.6649538 882.001043,69.8737811 C877.102717,52.7577436 887.206774,21.5996513 872.398409,13.7559556 C864.887138,19.4503829 864.25721,31.5774974 861.60143,41.8148684 C855.168597,41.5024308 857.761384,33.1900786 850.799412,36.1985504 C845.618878,38.0908137 850.388698,49.2856547 847.198739,53.0374256 C843.512396,52.7426256 841.801509,50.6059555 838.800529,49.673682 C838.190758,52.4679829 838.840844,56.4414837 835.199856,56.4062085 C832.929593,47.9678735 838.069811,37.4533402 829.200415,33.953535 C824.967293,36.6621675 825.123516,37.4659385 819.6003,35.0873812 C814.021651,50.0415521 822.669313,59.1828718 823.200973,74.3612922 C823.392471,79.8667452 820.341097,85.4855828 820.799685,90.0713606 C820.988663,91.9485059 825.153752,96.3075144 825.599742,100.177709 C826.108724,104.554355 825.209186,106.383627 825.599742,110.281538 C828.326073,114.300393 829.187816,106.061111 830.399799,109.155251 C828.759464,119.768051 834.237325,140.061378 828.00103,148.44176 C830.644211,149.336239 832.791008,150.694335 832.801087,154.050519 C826.41361,179.216865 828.35631,213.116345 823.200973,238.227258 C820.517477,181.013381 822.112456,133.029012 817.199012,75.4850598 C811.549811,63.5091247 814.999301,46.9196957 812.398955,31.7110393 C801.790955,33.4092889 804.421537,22.7158598 796.801919,21.6147692 C797.958468,26.6717231 790.376646,29.1309094 789.600573,30.5923111 C784.805556,39.6051282 788.554892,54.0578871 774.001018,51.9161777 C770.18365,36.128 787.083378,6.31288551 770.400345,3.65212654 C761.848432,8.00105645 762.266705,20.7404479 757.199558,28.3472957 C752.810215,29.0855556 752.598559,25.9158257 748.801348,26.1048 C742.355917,31.2952957 743.12695,43.2435145 740.400618,51.9161777 C725.637608,45.9168718 743.462072,16.1345128 726.000447,11.5109402 C726.33053,15.794359 722.984348,20.717771 723.601678,28.3472957 C720.615816,28.2238325 719.885099,26.2433812 717.599717,28.3472957 C711.056017,44.7275931 724.801063,72.2926529 712.79966,83.3413538 C704.124281,71.1487281 719.812027,46.8667829 702.000161,46.3023795 C699.188159,56.764 700.168329,70.7758187 690.001278,74.3612922 C685.712724,46.0352957 692.526033,20.7278496 687.59999,0.285863298 C686.579505,3.57905645 684.581371,-1.17049909 681.600549,0.285863298 C674.893067,15.7162496 684.712397,26.6011727 680.401164,36.1985504 C680.212186,34.8807692 680.605261,33.0187419 679.196741,32.8348068 C679.965254,46.8642632 683.903568,56.5120341 677.999876,63.146294 C675.732132,62.8892888 675.351655,64.406123 673.199819,64.2650222 C665.958158,62.3727589 671.708147,55.2396068 668.399762,49.673682 C665.010745,50.5983966 665.290433,48.0888171 662.40032,48.5473948 C651.144753,74.5754632 661.997166,104.934824 657.600263,129.36039 C656.962775,132.900509 654.35739,135.243791 654.00211,138.340451 C652.137521,154.478861 655.125903,169.909248 648.000149,183.2332 C647.670066,188.401019 653.666988,202.569056 644.396956,202.307012 C643.467182,157.646072 650.19986,108.978875 648.000149,59.7699521 C646.611786,56.9580136 643.21773,56.0131418 643.200092,51.9161777 C644.63381,40.8599179 644.384358,23.2248308 642.000708,14.8772034 C641.690783,17.5052069 636.729464,15.5247556 636.001266,14.8772034 C626.15422,27.6090359 642.056141,57.6836752 622.800479,60.8937196 C622.503153,53.5111213 626.06099,49.7341538 625.199248,41.8148684 C621.686765,42.1071487 621.512905,39.282612 618.000422,39.569853 C611.403808,57.5828888 621.583457,79.7533606 609.599692,95.6876785 C609.506463,71.5795897 601.516446,62.5944888 607.200923,41.8148684 C598.510426,33.2707077 612.79973,16.7190735 599.999578,12.6296684 C590.931124,22.4512957 607.165647,51.1149265 591.596328,63.146294 C589.673786,51.1502017 591.447665,29.2543727 592.800752,17.1247385 C589.147165,17.1700923 588.13424,14.7537402 585.601926,13.7559556 C581.257938,17.548041 582.275903,26.3592855 578.400581,30.5923111 C575.948898,29.1435077 576.218508,25.1473299 571.201755,26.1048 C567.522971,33.1472444 568.084868,46.9826872 571.201755,54.1637128 C566.73682,86.3422666 577.591752,120.599538 563.99789,150.679217 C564.113797,117.611224 570.327414,88.7611384 555.602199,62.0124478 C549.265116,63.5721162 549.481812,71.2621128 540.000124,69.8737811 C529.95906,79.5593469 527.03871,95.9119281 520.802415,109.155251 C520.081777,98.4265469 521.948886,81.1870461 520.802415,70.9975487 C508.858966,66.7342871 511.673488,85.520858 508.801013,93.4426631 C502.652908,90.245217 497.33379,95.4130358 493.201457,93.4426631 C493.493744,72.2649367 494.23454,59.6238119 493.201457,40.6961402 C488.413999,41.3033778 489.588186,41.3033778 484.798208,40.6961402 C481.376435,47.1767008 479.443813,52.6015248 482.399439,59.7699521 C475.976685,71.1184922 478.982705,84.8859042 480.00067,97.9326939 C481.983686,123.318249 474.822656,141.046564 470.400556,160.783046 C468.024465,171.378208 470.587015,182.993832 463.20173,191.086974 C459.638853,161.017374 470.120868,120.58946 464.396075,88.9526324 C458.918215,86.7630495 457.416465,92.4423589 452.399712,95.6876785 C451.061743,88.9123179 445.08246,87.6550085 443.996462,79.9750905 C442.844953,71.7811623 451.056704,59.696882 441.597694,56.4062085 C430.566381,58.8074427 441.932816,82.1571144 434.396348,87.8313845 C428.240685,81.4591692 434.633201,63.1336957 432.000099,56.4062085 C419.502313,55.3529914 420.915873,68.2838769 423.601889,75.4850598 C418.630491,79.9549333 424.277173,85.1252717 423.601889,91.2052067 C422.440301,101.578639 412.80995,112.828913 409.196678,121.501576 C410.86221,132.814841 408.075405,147.791689 402.000372,159.661798 C402.340534,123.141873 403.282907,96.037911 394.799027,66.5024786 C389.787314,67.4523897 389.134708,64.325494 385.198913,64.2650222 C379.985622,65.6785504 376.578968,73.7288581 372.000645,72.1187965 C373.90303,70.4407042 373.754367,65.7163452 369.599357,66.5024786 L364.7993,66.5024786 C357.28299,83.6613503 362.564313,102.853586 361.198627,120.382848 C360.246175,132.595631 357.144406,145.178803 355.201705,156.295535 C352.263718,173.104174 350.056447,191.656417 343.200303,206.797042 C343.351486,159.810458 350.721652,118.606489 344.397167,75.4850598 C325.055835,76.2359179 336.409671,101.535805 332.400804,108.034003 C327.059008,102.619258 318.817021,101.641631 310.801807,101.301477 C310.315502,96.5141264 311.960876,89.7387657 309.599903,86.7126563 C293.519082,85.8106187 301.650202,98.2476512 301.199173,105.791508 C300.314753,120.629774 291.382364,137.31999 288.000906,148.44176 C283.032028,164.764106 283.861014,183.288632 275.999504,196.700772 C274.512872,166.240625 288.32343,125.457439 280.799561,96.8139657 C280.230105,86.8663555 282.079576,74.6611316 279.600176,66.5024786 C282.449974,63.1563726 283.835817,53.3171077 275.999504,54.1637128 C263.887233,63.2445606 275.613987,83.9334734 273.598215,97.9326939 C255.373116,113.80654 256.995813,148.247747 248.398545,173.13189 C243.328879,155.590031 254.324915,124.671306 245.999777,106.910236 C240.761289,106.562523 240.66302,110.228626 236.399662,108.034003 C230.218801,160.548718 240.015453,232.424485 218.398818,283.125046 C218.504646,255.643135 217.786528,227.415405 218.398818,202.307012 C219.426862,160.256437 224.048019,115.126841 223.201395,72.1187965 C212.273391,75.5934051 211.094165,85.3318837 195.597917,82.2226256 C193.54183,80.4034324 195.136809,75.1701025 190.79786,75.4850598 C186.496707,76.9640991 186.403477,75.4119897 182.39965,76.6063076 C174.88334,83.2708033 182.316499,97.0382153 175.200824,103.543973 C177.649987,146.058164 159.23591,194.674967 147.599866,234.855955 C147.226948,181.028499 158.180149,114.738814 152.399923,66.5024786 C148.733738,67.3163281 148.028217,65.3610735 145.201097,65.3837504 C141.827199,67.0971179 141.524833,71.672817 139.196616,74.3612922 C138.299598,78.1962119 144.074785,75.792458 142.799809,79.9750905 C133.262688,115.179754 136.150281,143.833306 132.00031,187.720711 C137.384941,182.195101 137.626834,172.733784 138.002271,165.273077 C139.25205,140.008465 140.101194,113.478984 146.400482,86.7126563 C151.790152,103.932 148.038296,124.479812 147.599866,146.189186 C146.962378,177.833572 144.059666,211.979979 142.799809,243.838536 C141.834758,268.254024 128.666727,287.756177 124.801485,308.936423 C116.960131,318.443094 114.0549,338.539887 104.396832,342.604095 C108.347745,266.825377 118.245186,167.38707 116.398235,92.3239349 C94.5447467,90.1267931 111.121952,111.468297 100.798679,118.130273 C106.246303,134.460178 91.2514791,166.285979 100.798679,179.864417 C100.26198,163.091053 107.551516,142.283716 109.196889,123.746591 C109.846976,116.477378 104.32628,106.975747 112.800082,102.420205 C112.721971,172.17946 104.308642,263.595176 99.599295,331.381538 C99.2742517,336.070622 103.147054,345.393357 94.7992379,347.091606 C89.7169727,294.597049 92.4004692,239.451812 92.4004692,185.478215 C92.4004692,146.496584 99.3725206,103.276889 80.3990666,72.1187965 C58.0466747,67.6766393 62.2999537,88.1110666 51.598724,94.5613914 C51.5886451,88.8064922 53.3574851,87.20147 51.598724,82.2226256 C48.6128617,82.3460888 47.8846641,84.3240204 45.5992826,82.2226256 C40.8420606,87.8061879 37.4505242,93.7248649 40.7992255,101.301477 C39.2395219,104.705535 37.3169793,107.771959 35.9991684,111.400267 C40.5774905,125.769877 32.6227503,142.878355 33.6003997,160.783046 C25.4037667,177.062557 24.93258,200.568448 14.3976516,214.658376 C14.4808022,178.125853 22.1583738,146.811542 17.9983243,113.645282 L9.60011419,113.645282 C3.74429651,133.663966 6.72259965,166.507709 3.60067275,196.700772 C13.3822064,186.39789 6.63944906,160.634386 13.1982672,147.323032 C10.7012297,223.326 3.78713166,295.201767 -3.63797881e-12,359.440451 C3.39153641,358.515736 3.10932832,361.025316 5.99944144,360.564218 C14.367415,352.307299 13.4678767,335.377716 15.5995556,321.285268 C11.0363518,319.632372 15.3652221,326.301907 10.7994985,324.649011 C11.4369864,284.142988 7.93710229,224.20788 28.8003426,193.331989 C26.8903986,225.926287 17.5447756,268.362369 19.1977087,301.080129 C26.4368499,270.083295 26.8526029,238.479224 31.1991113,207.92333 C33.4618154,192.026807 31.7080937,174.930926 39.5998411,165.273077 C33.1191341,209.372133 38.1636036,251.601603 28.8003426,297.716386 C33.8523712,314.310854 22.8890912,338.580201 30.0022466,354.95294 C42.2732587,355.572776 45.4153434,341.704577 43.1979942,332.505306 C38.5768368,333.047032 41.7340397,340.863011 37.2010724,341.485367 C34.6989954,331.386577 38.5944748,318.181049 38.3979371,304.446393 C37.647062,251.243812 38.3349442,177.148225 46.7986669,131.602885 C49.1369624,119.034831 59.0545607,88.2521674 67.2007994,82.2226256 C69.5063386,80.509258 76.2919311,75.0844341 79.1971625,82.2226256 C78.317782,86.2591179 69.7381524,83.0994666 68.397664,86.7126563 C65.4521171,113.297569 64.0864316,157.200092 62.4007423,183.2332 C70.9047804,167.031798 66.4801609,145.64494 72.0008565,127.115374 C72.0386522,186.407969 68.9041267,249.250762 65.9988953,311.183959 C66.054329,314.600615 63.4615423,315.542967 62.4007423,317.913965 C70.1816222,326.672297 59.7701598,344.151165 63.6001266,358.321723 C60.6873361,362.242311 56.4063402,369.907111 59.9994539,376.276806 L67.2007994,376.276806 C69.6121666,369.194047 72.5047995,357.490235 68.397664,353.834211 C67.2713514,349.034263 73.1523662,350.795504 73.1977211,347.091606 C65.2329019,322.781945 72.9482693,288.348297 74.3971054,253.939846 C76.7026447,199.348933 75.1001059,127.843555 80.3990666,85.5863691 C97.3693472,160.840998 82.1679065,246.647955 85.2016434,319.032694 C86.2296871,343.59936 96.0767334,352.203993 97.2005263,375.150519 C91.4354183,377.115852 91.102816,389.328635 93.5998535,395.360697 C105.457632,395.000386 107.899236,380.935654 110.401313,370.663008 C111.93078,364.376461 110.333281,357.336536 113.996947,352.707924 C113.603871,350.08748 112.55567,348.071753 111.598178,345.972878 C123.534068,329.82187 127.162457,305.907794 139.196616,289.855053 C135.986499,339.467121 131.841568,367.410129 130.798406,411.070765 C147.713253,410.801162 146.534026,387.635425 147.599866,376.276806 C144.301559,379.927791 145.17338,387.476687 139.196616,388.623131 C139.977728,384.115463 140.496789,379.360868 142.799809,376.276806 C134.583018,301.823429 150.238008,231.832365 172.802055,169.763107 C173.583167,176.513272 171.219674,186.206396 173.9964,191.086974 C180.572857,165.736694 175.566183,132.268075 189.600995,110.281538 C183.793052,194.465836 177.18384,282.905835 175.200824,363.935521 C172.819693,374.162813 165.583072,393.05017 172.802055,404.335719 C173.82002,402.672745 175.820674,401.926926 178.798977,402.090704 C180.204978,307.031562 188.595629,201.001829 194.396013,106.910236 C194.967988,97.6731691 191.478183,90.0915179 205.200551,86.7126563 C211.331018,109.60627 211.167236,138.249743 206.399935,158.54055 C206.845925,176.52335 209.652888,208.679227 202.801782,223.635918 C202.816901,225.487866 206.127806,224.260793 206.399935,225.880933 C197.25337,259.334434 202.698474,309.725076 198.001725,343.735422 C201.552004,347.923094 207.130653,341.051986 208.798704,343.735422 C209.703282,351.936909 205.437404,358.614003 210.000608,363.935521 C204.76464,364.986218 205.724652,376.677432 207.59932,380.766837 C218.877564,384.014676 216.886989,372.499839 218.398818,366.175497 C222.238864,350.122755 227.295932,331.235398 225.600164,315.676509 C222.206108,325.591364 224.264715,340.613565 216.00005,345.972878 C213.308994,305.733938 226.852462,275.790321 236.399662,244.959784 C237.790545,240.467234 234.2957,234.324307 241.199719,231.499771 C241.731379,272.293036 236.33415,307.865569 238.798431,349.344181 C252.218433,350.268895 247.753498,335.748105 245.999777,328.017794 C251.35921,332.258379 257.988581,312.043162 253.201122,306.693928 C249.978407,310.410423 252.712297,319.702923 247.199161,321.285268 C247.199161,280.124133 238.576696,229.484044 251.999218,185.478215 C259.465134,161.004776 261.848784,137.02015 270.000062,114.769049 C269.186194,134.540807 274.082,153.60454 271.199446,176.500673 C270.005101,185.977107 268.080039,199.684048 265.200005,210.168345 C264.811969,211.569275 261.843745,213.239808 261.596812,214.658376 C259.560883,226.473053 261.218855,239.230082 259.198044,250.576102 C258.278348,255.75148 254.2846,259.523408 253.201122,265.167442 C251.061884,276.266536 253.9268,289.323405 248.398545,299.956362 C253.639552,298.42441 250.953536,304.300253 255.60241,303.322625 C259.072058,293.85123 262.912104,284.722509 265.200005,274.144984 C268.034684,311.708047 259.863249,358.11763 259.198044,397.603193 C264.212277,397.351227 264.864883,399.424905 268.798158,397.603193 C271.133934,394.171418 271.542128,388.940608 271.199446,383.011852 C270.002582,381.512656 267.956573,380.807152 267.601293,378.521822 C267.147745,307.719429 273.270652,207.366485 297.60102,142.830482 C299.503405,167.820451 293.922236,186.856468 295.199732,211.292113 C301.252087,203.849042 299.19348,188.721015 299.999789,174.248099 C300.934603,157.449538 302.1995,139.313039 305.99923,128.234102 C303.401404,192.064601 305.457492,254.103624 297.60102,315.676509 C301.360435,337.272499 293.440971,363.983394 295.199732,395.360697 C306.301596,398.099565 305.414657,384.271681 307.201134,376.276806 C310.1618,363.015846 316.211635,347.590499 311.998672,336.995336 C311.315829,344.604704 311.106693,354.375938 304.799846,359.440451 C301.854299,351.319593 305.104732,342.04977 304.799846,332.505306 C302.401077,257.321227 313.651605,179.904731 309.599903,114.769049 C312.386708,111.760578 315.370051,108.938561 320.401921,108.034003 C329.757623,122.932742 325.496785,140.149566 326.398843,157.419302 C328.10469,189.93549 326.202305,235.256581 320.401921,270.776201 C320.036563,273.001059 317.453855,274.132386 316.796209,276.38748 C313.754913,286.859179 318.214809,297.703788 316.796209,306.693928 C314.93666,318.518683 302.894942,331.245476 314.397441,336.995336 C314.054759,331.80988 319.386476,331.933343 321.596266,329.139042 C326.509711,321.008106 323.795978,305.754095 332.400804,301.080129 C331.46851,322.129353 332.385686,342.359688 326.398843,360.564218 C327.958547,373.517781 327.376493,388.081405 322.80069,398.721921 C328.656508,405.809719 312.938526,419.947521 323.997555,427.91216 C334.960835,426.183675 332.43608,411.856899 335.998957,403.211952 C333.935311,402.773531 332.922385,404.882485 332.400804,403.211952 C334.756738,327.24174 336.432348,243.180906 358.799858,178.73813 C363.872045,186.339938 359.979085,202.332208 361.198627,213.539648 C358.036385,213.249887 357.260313,211.224082 357.600474,215.779624 C356.547233,221.015473 360.712322,214.235073 361.198627,218.027159 C362.962428,288.315541 358.006148,346.47429 357.600474,388.623131 C351.898359,392.264037 352.349388,402.859199 355.201705,408.82575 C369.755579,410.201483 362.811245,394.473777 367.200588,388.623131 C364.192049,386.030403 363.403378,391.931442 361.198627,387.499364 C364.015669,383.404919 362.705417,375.442799 364.7993,370.663008 C368.654464,369.680341 366.444674,374.366905 369.599357,374.031791 C370.647558,372.394013 370.551809,369.69042 374.396894,370.663008 C381.059021,326.951979 384.500952,272.023432 398.402219,231.499771 C396.343612,269.372752 401.478791,319.982605 396.000931,359.440451 C397.726936,362.3179 397.137322,367.357217 399.599084,369.54428 C393.781062,372.938259 395.575099,385.846468 400.800988,388.623131 C410.121414,388.608013 415.027299,359.012109 407.999814,353.834211 C404.459614,356.134659 409.138725,366.120064 405.601045,368.425552 C402.355652,339.668694 403.199757,313.806923 403.199757,286.48627 C403.199757,253.340167 398.445054,216.868116 404.396621,186.599463 C408.73809,164.552454 415.793292,139.260126 422.399985,118.130273 C424.760958,121.161422 423.113064,127.946861 423.601889,132.724133 C423.982366,136.445668 427.313429,128.347487 428.401946,132.724133 C427.358784,202.720236 424.257015,278.662731 418.799312,345.972878 C418.648129,347.855063 421.200601,350.440232 421.200601,352.707924 C421.200601,357.724564 419.698851,368.443189 418.799312,376.276806 C416.78606,393.853941 410.108815,411.718317 420.001216,417.803292 C427.605716,413.290584 424.312449,403.793993 426.000658,395.360697 C429.631567,393.816146 430.289213,395.892345 435.600772,395.360697 C440.360514,365.888256 444.72214,331.724211 450.000943,301.080129 C451.331353,293.354858 449.350857,283.626458 457.199769,278.635015 C458.436949,285.778246 455.521639,289.028605 453.601616,293.226355 C454.672495,295.211846 458.472225,294.655001 457.199769,298.835114 C457.071264,323.686502 449.927872,338.726341 454.798481,363.935521 C452.099866,372.842512 448.466437,384.878919 451.200328,395.360697 C455.347779,394.471258 456.267475,396.607928 458.401673,397.603193 C467.283669,345.937603 474.049103,291.49787 477.599382,238.227258 C479.353104,211.904389 478.030253,185.571442 480.00067,160.783046 C480.544929,153.922017 482.142428,143.717402 487.199496,138.340451 C483.424963,244.712858 481.295804,337.952806 470.400556,433.520919 C473.792092,432.593685 473.507365,435.100745 476.399998,434.639647 C482.560701,428.804119 479.897362,421.834745 481.197535,414.442068 C489.517634,367.193439 498.893493,307.543053 507.599109,259.558683 C508.74054,253.274656 506.621459,244.423097 512.399166,240.472273 C511.522305,297.424106 506.61642,334.372372 506.399724,381.893124 C502.479048,385.97749 499.800591,403.136362 506.399724,406.580734 C519.839884,400.556232 513.492722,382.850594 514.800454,371.794335 C514.986913,370.20695 517.975295,367.911541 518.401127,366.175497 C525.080892,339.058936 527.724073,304.930167 530.40001,273.018697 C534.494547,224.175124 531.748057,172.655675 538.80074,123.746591 C541.683294,125.170198 538.138055,132.595631 541.202028,133.85042 C541.474157,131.857371 539.990045,128.229063 543.600797,129.36039 C538.289238,206.07894 537.772696,290.449692 523.201184,366.175497 C525.458849,369.569476 528.754636,361.902157 530.40001,365.054249 C526.867369,378.473948 530.944268,389.152259 531.596875,398.721921 C532.458617,411.239582 522.775352,422.258047 528.001241,434.639647 C528.288489,431.749599 530.064888,436.181678 532.801298,434.639647 C537.543402,431.044095 529.15779,421.13176 535.200067,420.053346 C537.893642,422.396628 536.275985,428.766324 540.000124,430.152136 C551.671444,430.78961 546.896584,422.739302 548.400854,415.563316 C555.382984,382.21816 562.196294,342.669606 566.399178,303.322625 C570.050245,269.176218 568.981886,234.465408 577.198677,205.678314 C576.621662,253.093241 576.624182,292.399907 576.001812,336.995336 C573.610603,338.126663 573.262882,341.17041 571.201755,342.604095 C573.855015,369.010112 564.385926,402.536683 573.600524,422.293322 C584.969478,418.99761 582.023931,403.254786 584.397503,390.870666 C588.051089,371.822051 589.731739,352.249346 594.002656,339.242871 C591.540895,324.339094 595.076055,312.108673 597.600809,298.835114 C601.639912,335.793459 595.096213,356.704102 592.800752,386.383155 C600.294385,394.491415 582.689136,419.970198 598.802713,420.053346 C608.748028,375.856023 604.945779,316.671774 615.601653,276.38748 C620.389112,294.622246 609.982689,309.571377 618.000422,322.403996 C616.861511,340.976396 614.828101,375.21855 613.200365,398.721921 C627.464472,399.795295 624.884283,383.961764 626.401152,374.031791 C630.646872,346.224844 635.706459,318.916789 640.801323,294.345083 C641.350621,311.652615 643.905612,337.229664 638.400035,352.707924 C642.930482,371.058594 633.814153,392.961982 639.599419,412.194533 C640.39061,408.833309 642.164489,413.267907 644.396956,412.194533 C647.707862,399.014201 644.444831,374.492888 652.800206,362.811753 C653.057217,368.929483 651.97122,376.302003 654.00211,380.766837 C659.694146,383.384762 659.736981,375.029576 662.40032,378.521822 C663.617343,383.163032 657.577586,391.273811 663.602224,393.113162 C670.821208,393.559141 668.870948,385.234191 669.599146,381.893124 C673.169582,365.510307 670.118207,353.262249 671.997915,338.116584 C673.416514,326.717651 676.077333,316.069576 676.795452,304.446393 C679.093432,267.440174 684.631766,233.011565 681.600549,196.700772 C677.032305,236.289641 678.808704,262.909829 673.199819,298.835114 C669.568909,288.864827 669.417727,272.623111 670.80105,258.427357 C673.116668,234.656902 676.059695,207.358926 680.401164,189.968246 C680.605261,191.643819 679.972813,194.110564 681.600549,194.458277 C686.332573,185.097747 678.103184,169.239019 686.400606,160.783046 C682.605915,217.178034 690.192777,290.484967 680.401164,347.091606 C687.935112,352.660051 677.062542,363.948119 682.799933,371.794335 C676.515764,384.241446 676.082373,402.168813 674.396683,418.929579 C677.135614,418.612102 678.912013,419.199182 679.196741,421.172075 C684.866099,421.988444 681.310781,414.164905 687.59999,415.563316 C690.031515,416.273859 688.391181,420.809244 691.200663,421.172075 C699.581235,386.368037 706.192967,342.63937 706.797699,297.716386 C704.701296,303.980256 706.475175,313.869914 702.000161,317.913965 C701.680158,301.606738 700.294314,287.206892 705.600834,269.657473 C713.245649,276.425275 701.342516,290.01883 709.201507,294.345083 C710.985465,268.193552 718.655478,232.603381 712.79966,210.168345 C711.643111,230.040889 709.665134,249.139897 707.999603,268.531186 C702.902219,246.708427 709.035206,216.538041 712.79966,195.577005 C715.961902,198.378865 709.324973,206.194844 716.400333,206.797042 C719.134223,175.444937 715.977021,151.273856 721.20039,119.26412 C725.015238,195.551808 716.758132,274.02656 722.399774,345.972878 C718.54713,346.960584 719.912815,343.067712 717.599717,342.604095 C717.337667,367.117849 723.175846,380.849986 721.20039,405.462006 C724.062786,409.231415 729.895926,403.237148 730.800504,405.462006 C730.815622,409.236454 731.80587,415.68174 731.999888,422.293322 C739.082807,422.121986 742.350878,417.808331 746.40006,417.803292 C747.274401,415.255917 744.238144,409.04748 748.801348,409.952037 C752.616197,427.39311 743.968535,451.622143 751.200117,464.943575 C758.645875,464.303582 761.291575,451.095534 761.999615,448.112259 C766.940776,427.360355 765.842181,401.188666 769.200961,378.521822 C770.662395,368.65736 774.24795,359.475726 775.200402,350.462909 C782.232927,371.320639 766.633371,392.057425 775.200402,407.704502 C772.620214,413.439244 765.008155,433.016987 775.200402,433.520919 C780.096208,431.298581 780.373377,424.190625 778.801075,418.929579 C787.06574,397.358786 786.367779,363.630642 789.600573,338.116584 C790.263259,332.880735 791.235868,325.037039 796.801919,322.403996 C796.811998,358.440146 789.023559,395.869668 790.799958,438.01095 C793.34739,440.868242 796.146793,434.674922 799.200688,438.01095 C800.911574,450.934276 793.795899,467.236464 796.801919,473.923637 C805.452101,475.264095 805.225326,458.621753 807.601417,450.352235 C817.700435,448.575876 819.721247,439.245582 821.999069,430.152136 C816.564044,428.433729 822.636557,437.479302 817.199012,435.763415 C816.546406,434.130676 818.602493,429.963162 815.999628,430.152136 C814.717093,431.202834 815.62671,434.294454 812.398955,433.520919 C814.195512,422.802293 810.403341,413.741603 814.800243,405.462006 C819.187067,404.723746 819.401243,407.888437 823.200973,407.704502 C830.369562,403.186755 829.470024,391.122632 834.000472,384.13562 C835.232612,390.089572 834.426304,397.953425 836.40176,403.211952 C837.165234,407.291278 842.008126,400.611664 842.398682,404.335719 L842.398682,415.563316 C855.841361,418.062816 837.427284,436.6075 849.600027,442.500981 C853.256134,443.917028 853.167944,437.479302 858.000757,436.884663 C857.952883,440.301319 857.302796,444.269781 861.60143,443.624748 C862.390101,442.115473 864.16398,441.530912 866.401487,441.374693 C878.712815,409.440546 874.373865,364.97362 880.801658,325.775299 C885.483289,331.850194 881.285444,340.160027 889.202388,341.485367 C900.936701,343.45574 896.638067,324.853104 903.60004,317.913965 C903.461455,310.186174 904.245087,301.599179 902.398136,295.468851 C909.425621,288.32562 906.452357,269.246769 912.00077,264.041155 C911.716042,269.707866 912.736526,272.527364 913.200154,281.998759 C916.180977,283.46268 918.18163,278.703046 919.202115,281.998759 C921.36655,301.072571 913.830083,318.448133 916.800827,331.381538 C925.43589,333.477894 925.3477,327.402998 928.79971,324.649011 C927.343314,330.499658 933.74339,329.002981 938.399824,329.139042 C942.76649,320.128745 942.517038,306.802273 951.600611,302.203897 C952.542984,291.258502 950.325635,283.298902 956.400668,276.38748 C958.174547,297.865046 949.491609,311.168841 954.001899,329.139042 C968.349156,326.629463 969.672007,307.074396 972.000223,292.100068 C974.965928,273.038854 973.844655,254.116222 980.400953,241.596041 C987.693009,267.719856 972.090933,305.983384 985.20101,321.285268 C994.554192,320.184177 995.350422,307.923521 997.202413,298.835114 C998.968733,290.132215 1001.66735,279.859569 1003.19933,270.776201 C1005.71653,255.872424 1003.13382,236.909477 1014.00135,233.737227 C1017.41557,256.880287 1005.24534,288.900102 1012.79945,308.936423 C1030.17288,305.121661 1027.47175,269.906919 1029.60343,257.308629 C1032.67496,253.070564 1032.55905,245.856783 1034.40097,240.472273 C1039.21866,260.737883 1026.51174,280.177046 1032.0022,301.080129 C1047.18096,297.013401 1048.4509,273.905617 1051.19991,257.308629 C1055.24405,232.888102 1060.52033,211.697777 1065.60008,192.210742 L1065.60008,221.390902 C1065.92764,223.706468 1070.91416,221.665545 1070.40013,224.759685 C1069.78028,244.317271 1060.49513,279.698311 1063.20131,302.203897 C1069.54847,303.488923 1074.29309,297.162061 1076.39958,292.100068 C1087.03277,266.538136 1087.42081,225.024249 1098.00109,201.190803 C1095.25964,197.469268 1094.31223,188.854557 1099.20048,186.599463 C1106.26072,199.268304 1095.11854,229.060742 1108.80059,232.618499 C1108.76783,248.658642 1107.75239,259.541046 1111.20188,273.018697 C1114.98649,273.570502 1115.43752,270.995412 1119.60261,271.899969 C1124.0751,261.367798 1126.82411,246.227172 1130.39959,238.227258 C1134.31019,240.071648 1128.20744,244.317271 1131.60149,246.086071 C1136.10926,249.941148 1138.72473,239.638266 1143.60037,243.838536 C1141.955,257.870512 1137.737,272.668465 1142.39847,288.736324 C1148.35256,290.185128 1148.29712,286.017613 1153.20049,286.48627 C1162.05477,262.992977 1162.32186,226.601555 1175.99887,211.292113 C1180.87956,228.25949 1164.78362,246.479138 1177.20077,260.677412 C1185.793,258.971603 1190.56786,244.004834 1198.80229,238.227258 C1199.13993,244.84388 1197.28542,257.636184 1201.20106,266.286171 C1215.56596,267.140335 1210.5366,252.775764 1210.80117,244.959784 C1211.65032,219.942099 1216.57888,184.868458 1218,159.661798 L1218,159.661798 Z" id="Fill-1" fill="#343434" mask="url(#mask-2)"></path>
            </g>
        </g>
    </g>
</svg>