<svg width="64" height="78" xmlns="http://www.w3.org/2000/svg"><g id="Page-1" stroke="none" stroke-width="1" fill="none" fill-rule="evenodd"><g id="Our-Mission-" transform="translate(-1206 -514)" stroke="#EE3F6A" stroke-width="3"><g id="Group-23" transform="translate(1208 516)"><path d="M17.519 21H0v8.03c0 3.714 2.886 8.03 9.556 8.03h22.296c4.71 0 6.37 4.284 6.37 8.03v1.607H43v6.312a3.217 3.217 0 01-1.419 2.672l-3.359 2.258v4.819c0 6.223-8.162 8.932-9.555 9.636-1.394.703-3.783 1.606-6.37 1.606-2.589 0-4.978-.903-6.371-1.606-1.394-.704-9.556-3.413-9.556-9.636v-4.819l-3.358-2.258a3.217 3.217 0 01-1.42-2.672v-6.312H6.37v-3.212c0-2.835 1.195-4.884 3.186-6.424" id="Stroke-1"/><path d="M43 43v-8.125c0-2.1-2-4.875-2-4.875" id="Stroke-3"/><path d="M1.5 34c-.687.744-1.5 1.896-1.5 4.875v3.25C0 44.866 1.688 46.441 3 47" id="Stroke-5"/><path id="Stroke-7" d="M39 47l-3 3"/><path id="Stroke-9" d="M6 47l3 3"/><path d="M19 50c0 2.762-2.015 5-4.5 5-2.486 0-4.5-2.238-4.5-5s2.014-5 4.5-5c2.485 0 4.5 2.238 4.5 5z" id="Stroke-11"/><path d="M36 50c0 2.762-2.014 5-4.5 5-2.485 0-4.5-2.238-4.5-5s2.015-5 4.5-5c2.486 0 4.5 2.238 4.5 5z" id="Stroke-13"/><path id="Stroke-15" d="M19 50h6"/><path d="M55.093 18.999h2.158a2.35 2.35 0 001.712-.738c1.533-1.62 1.224-3.15 0-4.07L40.825.52C40.25.098 39.06 0 37.637 0H13.834c-.755 0-1.284.499-1.622 1.173a1.986 1.986 0 00.6 2.495l19.825 14.57c.785.662 2.67.776 3.413.76h15.87" id="Stroke-17"/><path d="M37 8l13.278 9.403c1 .666 1.722 1.764 1.722 5.134V37" id="Stroke-19"/><path d="M21.17 11l-3.093 9.661c-.758 2.372 4.184 6.21 11.042 8.573 6.856 2.362 13.032 2.354 13.79-.018L46 19.554" id="Stroke-21"/></g></g></g></svg>