<svg width="177" height="69" xmlns="http://www.w3.org/2000/svg" xmlns:xlink="http://www.w3.org/1999/xlink"><defs><path id="path-1" d="M0 .144h61.943V66.96H0z"/><path id="path-3" d="M.084.23h7.909V11H.083z"/><path id="path-5" d="M.126.205h23.708V17H.126z"/></defs><g id="Page-1" stroke="none" stroke-width="1" fill="none" fill-rule="evenodd"><g id="Home" transform="translate(-233 -2581)"><g id="Logo" transform="translate(233 2581)"><path d="M50 17.516c-2.46-.94-3.446-.408-3.828.124-.381.531-.308.906-1.172.972 1.152.442 2.731.653 3.577-.183.845-.837 1.196-.848 1.423-.913" id="Fill-1" fill="#E33F6B"/><path d="M49.96 17c-.85 1.433-1.353 2.533-.571 3.9.781 1.367.699 1.504.601 2.1.766-1.261 1.84-4.736-.03-6" id="Fill-3" fill="#E33F6B"/><path d="M51 18.159c1.04.637 2.019 2.44 5 1.64-.685-.07-.782-1.309-2.31-1.675-1.013-.243-1.628-.072-2.69.035" id="Fill-5" fill="#E33F6B"/><path d="M50 16.985c1.939.063 4.393.112 5-3.985-.761 1.144-1.47.094-2.832.458-1.363.364-1.088 2.313-2.168 3.527" id="Fill-7" fill="#E33F6B"/><path d="M50.909 17c-1.516-1.073-1.877-1.65-1.698-2.86.18-1.21.416-1.584-.211-2.124.985-.202 2.248 1.505 1.958 2.69-.29 1.184-.172 1.837-.05 2.294" id="Fill-9" fill="#E33F6B"/><g id="Group-13"><mask id="mask-2" fill="#fff"><use xlink:href="#path-1"/></mask><path d="M60.722 7.727C55.958-4.017 35.387-4.393 34.42 23.047c0 0-12.01-16.833-25.673-9.055-13.533 7.705-13.605 31.844 15.917 34.875 12.59 1.293 26.215 1.42 24.75 17.788-.275 3.083 7.945-18.192-21.788-21.316C6.944 43.166 4.756 24.92 12.84 19.963c9.773-5.991 22.82 6.192 22.82 6.192 3.057-9.206 9.277-21.573 17.393-18.006 11.513 5.062 2.666 20.857 2.666 20.857s9.534-10.105 5.003-21.279" id="Fill-11" fill="#EE3F6A" mask="url(#mask-2)"/></g><path d="M55.964 28.67c.7.257 1.036.644 1.036 1.494-.026.798-.155 1.725-.207 2.678-.026.207-.389.18-.389 0-.259-2.987-2.564-4.043-5.207-4.043-4.223 0-6.295 2.91-6.243 7.753.052 5.306 2.901 7.572 6.684 7.572 3.341 0 4.559-1.442 4.948-3.915 0-.206.388-.232.388 0 .026.593.026 1.34.026 1.778-.052 1.854-.466 1.983-1.321 2.37-.622.282-1.969.643-4.12.643-5.698 0-9.507-2.962-9.559-8.165C41.95 31.297 45.964 28 51.43 28c1.58 0 3.16.155 4.534.67" id="Fill-14" fill="#744C28"/><path d="M61.199 40.175c-.615.51-.845 1.225-.845 1.99 0 .996.486 1.71 1.484 1.71 1.075 0 1.869-.74 1.97-1.53-.025-.639.027-2.986.027-2.986-1.229.025-2.099.332-2.636.816m-.282 4.823c-1.92.051-2.917-.842-2.917-2.526 0-1.914 1.382-3.088 3.94-3.496.64-.102 1.613-.153 1.895-.153v-2.016c0-1.353-.256-2.195-1.587-2.195-.486 0-.998.128-1.305.46-.307.433-.512 1.148-.589 2.015-.025.307-.051.638-.025.97-.998.026-1.69-.536-1.69-1.556 0-1.582 1.894-2.501 3.788-2.501 2.175 0 3.762.919 3.762 2.935 0 1.173-.026 3.393-.026 4.618 0 2.527.384 2.756 1.689 2.654.18-.026.205.306.026.332l-2.483.383c-.946.152-1.56-.18-1.56-1.583-.666 1.25-1.792 1.634-2.918 1.659" id="Fill-16" fill="#744C28"/><path d="M71.253 37.318C71.544 35.933 72.565 34 74.064 34c.833 0 1.062.418.875 1.724l-.146 1.333c-.042.13-.25.13-.25-.026.02-.94-.479-1.202-1.145-1.202-.604 0-1.27.287-1.687 1.097-.396.758-.438 1.594-.458 2.535-.021.758-.042 1.96.041 3.71.063 1.176.208 1.359 1.479 1.49.146 0 .167.339 0 .339-.958 0-1.75-.078-2.187-.078-.354 0-1.583.078-2.103.078-.167 0-.146-.34 0-.34.5-.104.729-.391.791-1.489.083-1.28.063-5.33.021-6.14-.063-1.437-.292-1.96-.916-1.96h-.25c-.146 0-.188-.313-.021-.34 1.333-.34 2.228-.653 2.79-.653.313 0 .375.21.375.81 0 .784 0 1.62-.02 2.43" id="Fill-18" fill="#744C28"/><path d="M79.665 43.105c.093 1.316.324 1.395 1.205 1.553.162 0 .185.342 0 .342-.765 0-1.808-.079-2.317-.079-.37 0-1.645.079-2.016.079-.162 0-.139-.316 0-.342.51-.132.788-.237.88-1.553.116-2.158.047-5.236.024-6.131-.047-1.448-.325-1.974-1.02-1.974h-.278c-.162 0-.208-.316-.023-.342 1.483-.342 2.479-.658 3.105-.658.347 0 .417.21.417.816 0 2.868-.093 6.763.023 8.29" id="Fill-20" fill="#744C28"/><path d="M91.275 34c2.001 0 3.294 1.04 3.294 3.667 0 1.794-.048 4.29.025 5.565.049 1.144.488 1.3 1.269 1.43.17 0 .195.338 0 .338-.854 0-1.708-.078-2.318-.078-.44 0-1.61.052-2.074.078-.171 0-.147-.312 0-.338.585-.078.756-.52.78-1.404a89.534 89.534 0 000-5.123c-.048-1.742-.488-2.757-2.05-2.757-1.17 0-2 .676-2.366 1.196-.073 2.289-.073 4.811.024 6.554.074 1.3.342 1.378 1.27 1.534.17 0 .195.338 0 .338-.806 0-1.904-.078-2.44-.078-.391 0-1.733.078-2.123.078-.171 0-.147-.312 0-.338.536-.13.829-.234.927-1.534.097-1.275.073-5.253.024-6.06-.073-1.43-.341-1.95-1.074-1.95h-.292c-.17 0-.22-.312-.025-.338 1.562-.338 2.611-.65 3.27-.65.366 0 .439.208.439.806v.936c.537-.78 1.757-1.872 3.44-1.872" id="Fill-22" fill="#744C28"/><path d="M100.011 34.58c-1.378 0-1.854 1.46-1.854 3.122 0 1.839.426 3.25 1.98 3.25 1.378 0 1.804-1.537 1.804-2.998 0-2.267-.627-3.375-1.93-3.375m-.2 11.006c-2.23.479-2.982 1.663-2.982 2.77 0 1.26.877 2.091 3.057 2.091 2.706 0 4.034-1.31 4.034-2.644 0-.958-.476-1.663-2.18-1.965-.601-.1-1.328-.176-1.93-.252m.477-4.055c-.902.126-1.554.554-1.554 1.058 0 .63.802.78 1.379.882l2.355.378c2.38.352 3.308 1.385 3.308 3.072 0 2.242-2.406 4.08-5.989 4.08C96.58 51 95 49.917 95 48.38c0-1.485 1.579-2.593 3.934-2.92-1.428-.253-2.305-.756-2.355-1.738-.075-1.21 1.202-1.915 2.58-2.242-1.904-.327-3.357-1.385-3.357-3.652 0-2.367 1.904-3.828 4.184-3.828 1.704 0 2.531.479 3.107.856.702.177 2.055.227 2.882 0a.787.787 0 01.025.227c-.05.604-1.453.982-2.005 1.007.15.403.276.983.276 1.637 0 2.217-1.88 3.753-3.984 3.803" id="Fill-24" fill="#744C28"/><path d="M126.964 28.67c.7.257 1.036.644 1.036 1.494-.026.798-.155 1.725-.207 2.678-.026.207-.389.18-.389 0-.259-2.987-2.564-4.043-5.207-4.043-4.223 0-6.295 2.91-6.243 7.753.051 5.306 2.901 7.572 6.684 7.572 3.341 0 4.559-1.442 4.948-3.915 0-.206.388-.232.388 0 .026.593.026 1.34.026 1.778-.052 1.854-.466 1.983-1.321 2.37-.622.282-1.969.643-4.12.643-5.698 0-9.507-2.962-9.558-8.165-.053-5.538 3.963-8.835 9.43-8.835 1.58 0 3.16.155 4.533.67" id="Fill-26" fill="#744C28"/><path d="M132.228 37.938c.596.025 1.17.025 1.808.025.64 0 1.258 0 1.831-.025.044-1.067-.154-3.303-1.588-3.303-1.411 0-1.896 1.677-2.05 3.303M134.366 34c2.007 0 3.308 1.93 3.352 3.887 0 .508-.066.686-.595.686-.595 0-1.808-.026-2.845-.026-.992 0-1.587 0-2.095.026-.022.305-.022.559-.022 1.092.044 2.896 1.39 4.09 3.198 4.09.772 0 1.698-.28 2.425-1.143.11-.127.265.025.2.178-.574 1.32-1.721 2.21-3.485 2.21-2.382 0-4.433-1.448-4.5-5.208-.043-3.277 1.677-5.792 4.367-5.792" id="Fill-28" fill="#744C28"/><path d="M145.275 34c2.001 0 3.294 1.04 3.294 3.667 0 1.794-.048 4.29.025 5.565.049 1.144.488 1.3 1.269 1.43.17 0 .195.338 0 .338-.854 0-1.708-.078-2.318-.078-.44 0-1.61.052-2.074.078-.171 0-.147-.312 0-.338.585-.078.756-.52.78-1.404a89.536 89.536 0 000-5.123c-.048-1.742-.488-2.757-2.05-2.757-1.17 0-2 .676-2.366 1.196-.073 2.289-.073 4.811.024 6.554.074 1.3.342 1.378 1.27 1.534.17 0 .195.338 0 .338-.806 0-1.904-.078-2.44-.078-.391 0-1.733.078-2.123.078-.171 0-.147-.312 0-.338.536-.13.829-.234.927-1.534.097-1.275.073-5.253.024-6.06-.073-1.43-.341-1.95-1.074-1.95h-.292c-.17 0-.22-.312-.025-.338 1.562-.338 2.611-.65 3.27-.65.366 0 .439.208.439.806v.936c.537-.78 1.757-1.872 3.44-1.872" id="Fill-30" fill="#744C28"/><path d="M155.465 42.098c.11 1.204.588 1.864 1.632 1.864.697 0 1.284-.424 1.567-1.062.109-.235.392-.094.326.118-.348 1.203-1.131 1.982-2.698 1.982-1.632 0-2.698-.826-2.85-2.595-.13-1.604-.022-3.821-.022-6.393-.305 0-.914 0-1.284.142-.13.047-.195-.212-.065-.283a27.37 27.37 0 001.784-1.321c.61-.496 1.175-1.156 1.545-1.51.13-.118.261.047.196.189-.044.165-.109.4-.13.85-.022.33-.022.895-.022 1.131.37 0 1.175-.023 2.306-.023.37 0 .588-.024.849-.118-.044.33-.24.896-.392.967-.587 0-1.523-.024-2.763-.024-.087 2.595-.11 4.695.021 6.086" id="Fill-32" fill="#744C28"/><path d="M161.228 37.938c.596.025 1.17.025 1.808.025.64 0 1.257 0 1.831-.025.044-1.067-.154-3.303-1.588-3.303-1.411 0-1.896 1.677-2.05 3.303M163.366 34c2.007 0 3.308 1.93 3.352 3.887 0 .508-.066.686-.595.686-.595 0-1.808-.026-2.845-.026-.992 0-1.587 0-2.095.026-.022.305-.022.559-.022 1.092.044 2.896 1.39 4.09 3.198 4.09.772 0 1.698-.28 2.425-1.143.11-.127.265.025.2.178-.574 1.32-1.721 2.21-3.485 2.21-2.382 0-4.433-1.448-4.5-5.208-.043-3.277 1.677-5.792 4.367-5.792" id="Fill-34" fill="#744C28"/><g id="Group-38" transform="translate(169 34)"><mask id="mask-4" fill="#fff"><use xlink:href="#path-3"/></mask><path d="M3.759 3.479C4.089 2.123 5.24.229 6.935.229c.942 0 1.2.41.989 1.689l-.165 1.305c-.047.128-.282.128-.282-.026.023-.92-.542-1.177-1.295-1.177-.682 0-1.435.282-1.906 1.075-.447.742-.494 1.56-.517 2.481a40.19 40.19 0 00.047 3.633c.07 1.151.235 1.33 1.67 1.459.165 0 .189.332 0 .332-1.082 0-1.976-.077-2.47-.077-.4 0-1.789.077-2.377.077-.188 0-.164-.332 0-.332.565-.103.824-.384.894-1.459.094-1.253.071-5.219.024-6.012-.07-1.407-.33-1.919-1.036-1.919H.23C.065 1.278.017.971.205.946 1.712.613 2.724.306 3.36.306c.353 0 .423.205.423.793 0 .768 0 1.586-.023 2.38" id="Fill-36" fill="#744C28" mask="url(#mask-4)"/></g><path d="M55.851 65.91c.046 1.385.274 1.611 1.504 1.763.16 0 .183.327 0 .327-.934 0-2.05-.076-2.484-.076-.364 0-1.64.076-2.028.076-.182 0-.16-.302 0-.327.615-.152.82-.328.843-1.965.023-2.216.069-5.012.023-7.127-.342 0-1.413.025-1.709.05.068-.252.296-.831.456-.856.182-.025 1.094-.025 1.276-.025.023-.403.045-1.26.273-2.242.297-1.31.844-2.443 1.778-3.324.592-.554 1.55-1.184 2.757-1.184 1.14 0 1.482.352 1.459 1.133-.023.655-.16 1.713-.228 2.166-.046.177-.25.202-.273 0-.205-1.184-.866-2.443-1.846-2.443-1.71 0-1.8 2.871-1.8 4.534v1.31c.387 0 1.002-.026 2.187-.026.387 0 .615-.025.889-.126-.068.353-.251.982-.41 1.058-.616 0-1.368-.025-2.667-.025-.045 1.46-.045 6.27 0 7.329" id="Fill-39" fill="#744C28"/><path d="M64.449 57.61c-2.2 0-2.968 1.981-2.891 5.08.051 2.007.486 4.675 3.095 4.675 2.456 0 2.84-2.998 2.763-5.08-.077-2.186-.742-4.675-2.967-4.675m0-.61C67.62 57 70 59.032 70 62.436 70 65.256 67.928 68 64.602 68 61.2 68 59 65.84 59 62.665 59 59.388 61.123 57 64.449 57" id="Fill-41" fill="#744C28"/><path d="M73.253 60.318C73.544 58.933 74.565 57 76.064 57c.833 0 1.062.418.875 1.724l-.146 1.333c-.042.13-.25.13-.25-.026.02-.94-.479-1.202-1.145-1.202-.604 0-1.27.287-1.687 1.097-.396.758-.438 1.594-.458 2.535-.021.758-.042 1.96.041 3.71.063 1.176.208 1.359 1.479 1.49.146 0 .167.339 0 .339-.958 0-1.75-.078-2.187-.078-.354 0-1.583.078-2.103.078-.167 0-.146-.34 0-.34.5-.104.729-.391.791-1.489.083-1.28.063-5.33.021-6.14-.063-1.437-.292-1.96-.916-1.96h-.25c-.146 0-.188-.313-.021-.34 1.333-.34 2.228-.653 2.79-.653.313 0 .375.21.375.81 0 .784 0 1.62-.02 2.43" id="Fill-43" fill="#744C28"/><g id="Group-47" transform="translate(84 52)"><mask id="mask-6" fill="#fff"><use xlink:href="#path-5"/></mask><path d="M13.833 9.839C13 7.752 12.216 5.743 11.8 4.739c-.368.85-1.127 2.627-1.91 4.585-.833 2.06-1.789 4.56-2.768 7.212-.123.36-.172.464-.294.464-.123 0-.196-.129-.294-.464-.881-2.73-1.714-5.409-2.767-8.732a138.405 138.405 0 00-1.96-5.796C1.317.72 1.047.668.264.566.094.54.068.23.264.23c.613.026 1.837.077 2.547.077.417 0 1.984-.051 2.866-.077.196 0 .196.335 0 .335-1.053.128-1.347.283-1.102 1.34.416 1.7.93 3.27 1.543 5.408.612 2.113.98 3.298 1.543 4.972l1.934-4.791a468.468 468.468 0 002.352-5.976c.44-1.16.49-1.314.636-1.314.172 0 .172.129.637 1.494.294.876.906 2.525 2.106 5.564l2.058 5.075c.49-1.443.93-2.86 1.592-5.1a71.03 71.03 0 001.249-4.818c.294-1.416.171-1.751-.735-1.854-.172 0-.196-.335 0-.335a78.98 78.98 0 002.229.077c.49 0 1.371-.051 1.959-.077.22 0 .196.335 0 .335-1.127.128-1.47.927-1.739 1.623-.906 2.24-1.616 4.404-2.4 6.723-.784 2.292-2.057 6.053-2.571 7.65-.099.335-.148.438-.246.438-.147 0-.196-.129-.318-.438a293.847 293.847 0 00-2.571-6.723" id="Fill-45" fill="#744C28" mask="url(#mask-6)"/></g><path d="M110.449 57.61c-2.2 0-2.968 1.981-2.891 5.08.051 2.007.486 4.675 3.095 4.675 2.456 0 2.84-2.998 2.763-5.08-.076-2.186-.742-4.675-2.967-4.675m0-.61c3.172 0 5.551 2.032 5.551 5.436 0 2.82-2.072 5.564-5.397 5.564C107.2 68 105 65.84 105 62.665c0-3.277 2.123-5.665 5.449-5.665" id="Fill-48" fill="#744C28"/><path d="M116.436 58.118h-.287c-.169 0-.217-.312-.025-.338 1.537-.338 2.569-.65 3.217-.65.36 0 .432.208.432.806v.936c.529-.78 1.56-1.872 3.121-1.872 1.465 0 2.545.546 3.025 1.924.672-1.014 1.896-1.924 3.36-1.924 1.897 0 3.314.962 3.314 3.667 0 1.794-.049 4.316.023 5.565.048 1.144.48 1.3 1.249 1.43.168 0 .192.338 0 .338-.84 0-1.68-.078-2.28-.078-.433 0-1.585.052-2.041.078-.168 0-.144-.312 0-.338.576-.078.744-.52.768-1.404.048-1.327.072-3.667 0-5.253-.072-1.612-.528-2.627-2.065-2.627-.792 0-1.536.364-2.208 1.119.072.364.12 1.014.12 1.56 0 1.794-.024 3.926.048 5.175.072 1.144.48 1.3 1.248 1.43.168 0 .192.338 0 .338-.84 0-1.68-.078-2.28-.078-.432 0-1.585.052-2.04.078-.169 0-.145-.312 0-.338.575-.078.743-.52.767-1.404.072-1.327.072-3.745 0-5.331-.072-1.612-.6-2.549-1.968-2.549-1.009 0-1.777.65-2.16 1.145-.073 2.288-.073 4.863.023 6.605.072 1.3.336 1.378 1.248 1.534.168 0 .193.338 0 .338-.792 0-1.872-.078-2.4-.078-.384 0-1.704.078-2.088.078-.168 0-.145-.312 0-.338.527-.13.815-.234.912-1.534.096-1.275.072-5.253.024-6.06-.072-1.43-.336-1.95-1.057-1.95" id="Fill-50" fill="#744C28"/><path d="M138.228 60.938c.596.025 1.17.025 1.808.025.64 0 1.257 0 1.831-.025.044-1.067-.154-3.303-1.588-3.303-1.411 0-1.896 1.677-2.05 3.303M140.366 57c2.007 0 3.308 1.93 3.352 3.887 0 .508-.066.686-.595.686-.595 0-1.808-.026-2.845-.026-.992 0-1.587 0-2.095.026-.022.305-.022.559-.022 1.092.044 2.896 1.39 4.09 3.198 4.09.772 0 1.698-.28 2.425-1.143.11-.127.265.025.2.178-.574 1.32-1.721 2.21-3.485 2.21-2.382 0-4.433-1.448-4.5-5.208-.043-3.277 1.677-5.792 4.367-5.792" id="Fill-52" fill="#744C28"/><path d="M153.275 57c2.001 0 3.294 1.04 3.294 3.667 0 1.794-.048 4.29.025 5.565.049 1.144.488 1.3 1.269 1.43.17 0 .195.338 0 .338-.854 0-1.708-.078-2.318-.078-.44 0-1.61.052-2.074.078-.171 0-.147-.312 0-.338.585-.078.756-.52.78-1.404a89.536 89.536 0 000-5.123c-.048-1.742-.488-2.757-2.05-2.757-1.17 0-2 .676-2.366 1.196-.073 2.289-.073 4.811.024 6.554.074 1.3.342 1.378 1.27 1.534.17 0 .195.338 0 .338-.806 0-1.904-.078-2.44-.078-.391 0-1.733.078-2.124.078-.17 0-.146-.312 0-.338.537-.13.83-.234.928-1.534.097-1.275.073-5.253.024-6.06-.073-1.43-.341-1.95-1.074-1.95h-.292c-.17 0-.22-.312-.025-.338 1.562-.338 2.611-.65 3.27-.65.366 0 .439.208.439.806v.936c.537-.78 1.757-1.872 3.44-1.872" id="Fill-54" fill="#744C28"/><path d="M78.52 28.65c.44-.675 1.753-1.018 2.258-.051.556 1.063-.024 2.293-.722 2.975-.698.682-1.532 1.426-1.532 1.426s-.847-.744-1.545-1.427c-.697-.682-1.36-1.793-.72-2.976.517-.958 1.819-.622 2.258.054" id="Fill-56" fill="#EE3F6A"/></g></g></g></svg>