<svg width="80" height="78" xmlns="http://www.w3.org/2000/svg"><g id="Page-1" stroke="none" stroke-width="1" fill="none" fill-rule="evenodd" stroke-linejoin="round"><g id="Our-Mission-" transform="translate(-618 -514)" stroke="#EE3F6A" stroke-width="3"><g id="Group-9" transform="translate(620 516)"><path d="M53 25.227c-2.17-1.719-5.526-2.76-9.32-3.363v-2.32c3.091-1.242 5.093-4.184 5.093-7.771V8.409C48.773 3.631 45.23 0 40.283 0c-4.948 0-8.49 3.631-8.49 8.41v3.363c0 3.587 2 6.529 5.094 7.771v2.32C30.276 22.914 25 25.29 25 30.273V37" id="Stroke-1"/><path d="M22.298 27.67a36.486 36.486 0 00-3.44-.704v-2.33c3.12-1.25 5.142-4.204 5.142-7.808v-3.38C24 8.648 20.422 5 15.429 5c-4.996 0-8.572 3.648-8.572 8.448v3.38c0 3.604 2.02 6.559 5.143 7.807v2.33c-6.674 1.058-12 3.445-12 8.45V54" id="Stroke-3"/><path d="M76 50v-6.667c0-3.995-3.237-4.155-8.75-5V35c2.58-.997 3.5-2.122 3.5-5v-3.333c0-3.832-2.874-6.667-7-6.667-4.127 0-7 2.835-7 6.667V30c0 2.878.92 4.003 3.5 5v3.333c-2.455.377-3.526.779-5.25 1.667" id="Stroke-5"/><path id="Stroke-7" d="M45.88 47.12V32H34.12v15.12H19v11.76h15.12V74h11.76V58.88H61V47.12z"/></g></g></g></svg>