<svg width="164" height="176" xmlns="http://www.w3.org/2000/svg"><g id="Page-1" stroke="none" stroke-width="1" fill="none" fill-rule="evenodd"><g id="Home" transform="translate(-233 -1824)" fill="#FFF"><g id="Group-13" transform="translate(233 1824)"><path d="M160.765 19.976C148.154-10.96 93.691-11.95 91.131 60.33c0 0-31.8-44.34-67.972-23.852-35.83 20.295-36.021 83.88 42.142 91.865 33.333 3.405 69.404 3.74 65.528 46.855-.73 8.12 21.033-47.919-57.686-56.148-54.758-5.725-60.55-53.79-39.148-66.845 25.875-15.781 60.419 16.31 60.419 16.31 8.094-24.249 24.561-56.825 46.048-47.428 30.481 13.333 7.058 54.94 7.058 54.94s25.244-26.618 13.245-56.051" id="Fill-11"/></g></g></g></svg>