<svg width="80" height="78" xmlns="http://www.w3.org/2000/svg"><g id="Page-1" stroke="none" stroke-width="1" fill="none" fill-rule="evenodd" stroke-linejoin="round"><g id="Home" transform="translate(-321 -1161)" stroke="#EF3F6B" stroke-width="3"><g id="icon-referral" transform="translate(323 1163)"><path d="M14.5 17c3.788 0 6.5-2.776 6.5-6.8V6.8C21 2.776 18.288 0 14.5 0S8 2.776 8 6.8v3.4c0 4.024 2.712 6.8 6.5 6.8z" id="Stroke-1"/><path d="M30 31v-1.667C30 23.828 20.79 21 15 21c-5.79 0-15 2.828-15 8.333v15C0 47.575 3.065 51 6.667 51" id="Stroke-3"/><path d="M23 76V51c3.782 0 7-3.425 7-6.667V41" id="Stroke-5"/><path id="Stroke-7" d="M7 33v43"/><path id="Stroke-9" d="M15 50v26"/><path d="M61.5 17c3.788 0 6.5-2.776 6.5-6.8V6.8C68 2.776 65.288 0 61.5 0S55 2.776 55 6.8v3.4c0 4.024 2.712 6.8 6.5 6.8z" id="Stroke-11"/><path id="Stroke-13" d="M69 76V33"/><path d="M46 41v3.333C46 47.575 49.218 51 53 51v25" id="Stroke-15"/><path d="M69.333 51C72.935 51 76 47.575 76 44.333v-15C76 23.828 66.79 21 61 21c-5.79 0-15 2.828-15 8.333V31" id="Stroke-17"/><path id="Stroke-19" d="M61 50v26"/><path id="Stroke-21" d="M22 30l-7 6.5 7 6.5"/><path id="Stroke-23" d="M54 30l7 6.5-7 6.5"/><path id="Stroke-25" d="M15 36h15"/><path id="Stroke-27" d="M61 36H46"/><path id="Stroke-29" d="M33 36h3"/><path id="Stroke-31" d="M40 36h3"/></g></g></g></svg>