<svg width="53" height="41" xmlns="http://www.w3.org/2000/svg"><g id="Page-1" stroke="none" stroke-width="1" fill="none" fill-rule="evenodd"><g id="Home" transform="translate(-335 -1512)" stroke="#CD9E72" stroke-width="3"><g id="Icon" transform="translate(337 1514)"><path d="M14.372 16.768a12.047 12.047 0 00-3.288-.473c-1.661 0-3.048.374-4.122.833C7.998 13.385 10.487 6.927 15.446 6.2c.46-.067.836-.395.961-.836l1.084-3.825c.091-.323.037-.67-.15-.95a1.18 1.18 0 00-.824-.514A8.341 8.341 0 0015.407 0C9.457 0 3.562 6.13 1.074 14.907c-1.46 5.15-1.888 12.891 1.709 17.764 2.012 2.727 4.949 4.183 8.727 4.328l.046.001c4.663 0 8.797-3.098 10.054-7.533a10.119 10.119 0 00-.957-7.831c-1.354-2.373-3.584-4.102-6.28-4.868zm33.28 4.868c-1.354-2.373-3.584-4.102-6.28-4.868a12.047 12.047 0 00-3.288-.473 10.45 10.45 0 00-4.123.833c1.036-3.743 3.526-10.202 8.485-10.929.46-.067.835-.395.961-.836l1.084-3.825c.091-.323.037-.67-.15-.95a1.178 1.178 0 00-.824-.514A8.331 8.331 0 0042.408 0c-5.952 0-11.847 6.13-14.335 14.907-1.46 5.15-1.888 12.89 1.71 17.764 2.012 2.727 4.948 4.183 8.726 4.328l.047.001c4.662 0 8.797-3.098 10.054-7.533.75-2.651.41-5.432-.958-7.831z" id="Path"/></g></g></g></svg>