<svg width="34" height="42" xmlns="http://www.w3.org/2000/svg" xmlns:xlink="http://www.w3.org/1999/xlink"><defs><path d="M310.5 520c-1.93 0-3.5 1.57-3.5 3.5s1.57 3.5 3.5 3.5 3.5-1.57 3.5-3.5-1.57-3.5-3.5-3.5m0 11c-4.136 0-7.5-3.364-7.5-7.5s3.364-7.5 7.5-7.5 7.5 3.364 7.5 7.5-3.364 7.5-7.5 7.5m-.5-23c-9.373 0-17 7.463-17 16.638 0 11.496 14.98 24.316 15.617 24.856.4.338.89.506 1.383.506s.984-.168 1.383-.506c.638-.54 15.617-13.36 15.617-24.856 0-9.175-7.627-16.638-17-16.638" id="path-1"/></defs><g id="Page-1" stroke="none" stroke-width="1" fill="none" fill-rule="evenodd"><g id="Locations" transform="translate(-293 -508)"><mask id="mask-2" fill="#fff"><use xlink:href="#path-1"/></mask><use id="๐จ-Icon-ะกolor" fill="#EF3F6B" fill-rule="nonzero" xlink:href="#path-1"/></g></g></svg>