<svg width="72" height="83" xmlns="http://www.w3.org/2000/svg"><g id="Page-1" stroke="none" stroke-width="1" fill="none" fill-rule="evenodd"><g id="Home" transform="translate(-1206 -1156)" stroke="#EF3F6B" stroke-width="3"><g id="Icon-abortion" transform="translate(1208 1158)"><path id="Stroke-1" stroke-linejoin="round" d="M54 45v3"/><path id="Stroke-2" stroke-linejoin="round" d="M54 51v3"/><path id="Stroke-3" stroke-linejoin="round" d="M52 50h-3"/><path id="Stroke-4" stroke-linejoin="round" d="M59 50h-3"/><path id="Stroke-5" stroke-linejoin="round" d="M45 0v3"/><path id="Stroke-7" stroke-linejoin="round" d="M45 6v3"/><path id="Stroke-8" stroke-linejoin="round" d="M44 4h-3"/><path id="Stroke-9" stroke-linejoin="round" d="M50 4h-3"/><path d="M35 26c3.435 0 6-2.878 6-6.428v-2.144C41 13.878 38.435 11 35 11s-6 2.878-6 6.428v2.144C29 23.122 31.565 26 35 26z" id="Stroke-10"/><path d="M43 24v2.283a1.59 1.59 0 01-.775 1.363l-3.137 1.878a8.033 8.033 0 01-3.577.84H28.6c-5.733 0-9.6 2.405-9.6 9.545v12.727c0 3.5 2.88 6.364 6.4 6.364" id="Stroke-12"/><path d="M42 81V43.389c0-.751.264-1.477.742-2.043l7.669-10.709A3.176 3.176 0 0051 28.791v-3.12c0-.823-.316-1.612-.879-2.194L44.824 18" id="Stroke-14"/><path id="Stroke-16" d="M35 55v26"/><path id="Stroke-18" d="M27 40v41"/><path id="Stroke-20" d="M64 31v3"/><path d="M59 16.436C59 13.768 60.793 12 63.5 12c2.65 0 4.5 1.824 4.5 4.436 0 1.529-1.129 3.21-2.252 4.095-1.841 1.45-2.313 2.646-2.313 4.969V27" id="Stroke-22"/><path id="Stroke-24" d="M6 48v3"/><path d="M2 34.436C2 31.768 3.793 30 6.5 30c2.65 0 4.5 1.824 4.5 4.436 0 1.529-1.129 3.21-2.252 4.095-1.841 1.45-2.313 2.646-2.313 4.969V45" id="Stroke-26"/><path d="M11 0c6.075 0 11 3.943 11 8.806 0 2.696-1.517 5.106-3.9 6.721-.207 1.35.068 2.626.362 4.323.13.747-.665 1.533-1.773.943-2.13-1.134-3.08-2.104-4.038-3.29-.54.065-1.089.11-1.651.11-6.075 0-11-3.943-11-8.807C0 3.943 4.925 0 11 0z" id="Stroke-28"/></g></g></g></svg>