<svg width="61" height="73" xmlns="http://www.w3.org/2000/svg"><g id="Page-1" stroke="none" stroke-width="1" fill="none" fill-rule="evenodd"><g id="Home" transform="translate(-918 -1168)" stroke="#EF3F6B" stroke-width="3"><g id="Group-15" transform="translate(920 1170)"><path d="M40.509 28C38.906 30.252 28.201 34.869 24 34.869v17.83C24 60.367 39.584 68.758 40.5 69c.916-.243 16.5-9.219 16.5-15.443V34.869c-4.584 0-14.888-4.617-16.491-6.869z" id="Stroke-1" stroke-linejoin="round"/><path id="Stroke-3" d="M44 45v-6h-6v6h-6v6h6v6h6v-6h6v-6z"/><path id="Stroke-5" stroke-linecap="round" stroke-linejoin="round" d="M21.563 60H0V0h45v25.5"/><path id="Stroke-7" stroke-linecap="round" stroke-linejoin="round" d="M10 16h24"/><path id="Stroke-9" stroke-linecap="round" stroke-linejoin="round" d="M10 11h24"/><path id="Stroke-11" stroke-linecap="round" stroke-linejoin="round" d="M10 23h24"/><path id="Stroke-13" stroke-linecap="round" stroke-linejoin="round" d="M11 48h7"/></g></g></g></svg>