<svg width="77" height="78" xmlns="http://www.w3.org/2000/svg"><g id="Page-1" stroke="none" stroke-width="1" fill="none" fill-rule="evenodd"><g id="Home" transform="translate(-615 -1162)" stroke="#EF3F6B" stroke-width="3"><g id="icon-postpregnance" transform="translate(617 1163)"><path d="M34 50L22.878 38.124c-1.229-1.313-1.14-3.535.09-4.847L25.101 31" id="Stroke-1"/><path d="M44 40.519L29.41 25.952c-1.242-1.24-3.206-1.283-4.445-.046l-.023.022c-1.24 1.238-1.263 3.268-.023 4.506L39.509 45" id="Stroke-3"/><path d="M49 69l-3.41-3.363c-1.998-1.973-6.51-1.945-9.078-4.48L22.894 47.72c-1.252-1.237-1.16-3.334.093-4.57L25.164 41" id="Stroke-5"/><path d="M49 37L36.706 24.954c-1.234-1.211-3.145-1.3-4.38-.09L30 27.144" id="Stroke-7"/><path d="M67 52l-3.453-3.44c-1.96-1.952-2.57-4.141-3.05-6.679-.687-3.632-2.413-5.638-3.85-7.07-1.438-1.431-2.967-2.958-5.746-5.727-1.726-1.717-3.451-1.145-4.601 0L44 31.377" id="Stroke-9"/><path id="Stroke-11" d="M53.681 76L48 70.09 67.317 50 73 55.91"/><path d="M6 26l3.275 3.403c1.923 1.997 1.895 6.503 4.365 9.067L18 43" id="Stroke-13"/><path d="M23 8l3.454 3.431c1.959 1.948 4.154 2.554 6.703 3.031 3.646.684 5.66 2.399 7.097 3.828L46 24" id="Stroke-15"/><path id="Stroke-17" d="M0 21.092L5.683 27 25 6.91 19.319 1"/><path d="M23 68l3.51-3.303C27.937 63.352 30.612 62.951 33 62" id="Stroke-19"/><path d="M6 51l3.228-3.56c1.72-1.9 2.332-4.014 2.772-6.44" id="Stroke-21"/><path id="Stroke-23" d="M19.319 75L25 69.092 5.683 49 0 54.908"/><path d="M67 25l-3.303 3.508C62.352 29.936 61.951 32.612 61 35" id="Stroke-25"/><path d="M49 7l-3.559 3.227C43.545 11.95 41.427 12.56 39 13" id="Stroke-27"/><path id="Stroke-29" d="M73 20.092L67.317 26 48 5.91 53.681 0"/></g></g></g></svg>