<svg width="75" height="72" xmlns="http://www.w3.org/2000/svg"><g id="Page-1" stroke="none" stroke-width="1" fill="none" fill-rule="evenodd" stroke-linejoin="round"><g id="Our-Mission-" transform="translate(-323 -514)" stroke="#EE3F6A" stroke-width="3"><g id="Group-15" transform="translate(325 516)"><path id="Stroke-1" stroke-linecap="round" d="M71 47H30"/><path d="M57 40.8V28h-1.579c-2.21 0-2.95 1.09-3.75 4.8-.257 1.189-.478 2.616-.987 4.8h-6.316l-4.274-4.331a1.567 1.567 0 00-1.116-.469H27v1.627c0 1.845 1.33 3.434 3.114 3.795l5.747.858c.38.078.731.294.963.61l4.58 4.539c.885.878 1.581 1.771 2.963 1.771" id="Stroke-3" stroke-linecap="round"/><path d="M6.37 30.373c2.09-4.628 11.15-17.327 11.15-17.327 1.724-2.493 4.976-2.953 7.962 0 2.987 2.954 6.37 7.876 6.37 7.876L43 24.072s-.897 3.15-3.185 3.15h-9.556l-7.117-5.267-5.623 9.993L27.074 54H0s4.28-19 6.37-23.627z" id="Stroke-5"/><path id="Stroke-7" stroke-linecap="round" d="M16 68V54"/><path id="Stroke-9" stroke-linecap="round" d="M9 54v14"/><path d="M38 5.5a5.5 5.5 0 11-11 0 5.5 5.5 0 0111 0z" id="Stroke-11"/><path d="M68 40.5a5.5 5.5 0 11-11 0 5.5 5.5 0 0111 0z" id="Stroke-13" stroke-linecap="round"/></g></g></g></svg>