<svg width="231" height="90" xmlns="http://www.w3.org/2000/svg" xmlns:xlink="http://www.w3.org/1999/xlink"><defs><path id="path-1" d="M0 .187h80.926v86.76H0z"/><path id="path-3" d="M220.115 45.292h10.875V59h-10.875z"/><path id="path-5" d="M109.169 68.265h31.61V90h-31.61z"/></defs><g id="Page-1" stroke="none" stroke-width="1" fill="none" fill-rule="evenodd"><g id="Home" transform="translate(-233 -13)"><g id="Logo" transform="translate(233 13)"><path d="M65 22.773c-3.443-1.41-4.825-.611-5.36.186-.533.798-.43 1.36-1.64 1.46 1.612.663 3.824.979 5.008-.276 1.183-1.254 1.674-1.27 1.992-1.37" id="Fill-1" fill="#E33F6B"/><path d="M64.44 22c-1.275 1.91-2.029 3.377-.857 5.2 1.172 1.823 1.049 2.005.902 2.8 1.15-1.681 2.761-6.315-.045-8" id="Fill-3" fill="#E33F6B"/><path d="M66 23.238c1.455.955 2.826 3.66 7 2.461-.959-.106-1.094-1.964-3.233-2.513-1.419-.365-2.28-.108-3.767.052" id="Fill-5" fill="#E33F6B"/><path d="M65 21.981c2.327.08 5.272.14 6-4.981-.914 1.43-1.764.118-3.399.573-1.635.455-1.305 2.89-2.601 4.408" id="Fill-7" fill="#E33F6B"/><path d="M65.863 23c-2.273-1.502-2.815-2.31-2.547-4.005.27-1.694.625-2.217-.316-2.972 1.478-.283 3.371 2.106 2.937 3.764-.436 1.659-.258 2.574-.074 3.213" id="Fill-9" fill="#E33F6B"/><g id="Group-13"><mask id="mask-2" fill="#fff"><use xlink:href="#path-1"/></mask><path d="M79.33 10.034C73.107-5.216 46.232-5.703 44.969 29.927c0 0-15.692-21.858-33.541-11.758-17.68 10.005-17.775 41.35 20.795 45.286 16.448 1.678 34.247 1.844 32.335 23.097-.36 4.003 10.378-23.622-28.465-27.678-27.021-2.822-29.88-26.517-19.318-32.952 12.768-7.78 29.814 8.04 29.814 8.04 3.994-11.954 12.12-28.012 22.722-23.38 15.041 6.572 3.483 27.083 3.483 27.083s12.457-13.122 6.536-27.63" id="Fill-11" fill="#EE3F6A" mask="url(#mask-2)"/></g><path d="M72.688 37.867C73.573 38.2 74 38.7 74 39.8c-.033 1.033-.197 2.233-.262 3.467-.033.267-.493.233-.493 0-.328-3.867-3.248-5.233-6.595-5.233-5.35 0-7.974 3.766-7.908 10.033.065 6.867 3.675 9.8 8.466 9.8 4.233 0 5.775-1.867 6.267-5.067 0-.267.492-.3.492 0 .033.767.033 1.734.033 2.3-.066 2.4-.59 2.567-1.673 3.067-.788.366-2.494.833-5.218.833-7.219 0-12.043-3.833-12.108-10.567C54.935 41.267 60.02 37 66.945 37c2.002 0 4.003.2 5.743.867" id="Fill-14" fill="#FFF"/><path d="M80.158 52.86c-.798.65-1.098 1.558-1.098 2.533 0 1.266.632 2.175 1.93 2.175 1.397 0 2.429-.941 2.562-1.948-.034-.812.033-3.8.033-3.8-1.597.033-2.728.423-3.427 1.04m-.366 6.137C77.297 59.063 76 57.926 76 55.782c0-2.435 1.796-3.93 5.123-4.45a21.658 21.658 0 012.462-.194v-2.565c0-1.722-.333-2.794-2.063-2.794-.632 0-1.297.163-1.696.585-.4.552-.666 1.462-.766 2.565-.033.39-.066.812-.033 1.235-1.297.032-2.195-.682-2.195-1.981 0-2.014 2.461-3.183 4.923-3.183 2.828 0 4.89 1.17 4.89 3.735 0 1.494-.033 4.32-.033 5.878 0 3.216.499 3.508 2.196 3.378.233-.033.266.39.033.422l-3.227.487c-1.23.195-2.03-.227-2.03-2.014-.864 1.592-2.328 2.08-3.792 2.111" id="Fill-16" fill="#FFF"/><path d="M93.647 49.223C94.063 47.461 95.52 45 97.663 45c1.19 0 1.517.532 1.25 2.195l-.209 1.696c-.06.166-.357.166-.357-.034.03-1.197-.684-1.53-1.636-1.53-.863 0-1.815.366-2.41 1.397-.565.965-.625 2.029-.654 3.226-.03.965-.06 2.494.06 4.722.088 1.497.297 1.73 2.111 1.896.208 0 .239.432 0 .432-1.368 0-2.499-.1-3.123-.1-.506 0-2.262.1-3.005.1-.238 0-.209-.432 0-.432.714-.133 1.04-.499 1.13-1.896.12-1.63.09-6.784.03-7.815-.09-1.829-.417-2.494-1.31-2.494h-.356c-.208 0-.268-.399-.03-.432 1.904-.432 3.184-.831 3.987-.831.446 0 .535.265.535 1.03 0 .998 0 2.062-.03 3.093" id="Fill-18" fill="#FFF"/><path d="M105.13 56.589c.13 1.674.455 1.775 1.687 1.976.227 0 .26.435 0 .435-1.07 0-2.53-.1-3.243-.1-.519 0-2.303.1-2.822.1-.227 0-.195-.402 0-.435.713-.168 1.103-.302 1.232-1.976.163-2.747.066-6.665.033-7.804-.065-1.842-.454-2.512-1.427-2.512h-.39c-.227 0-.291-.402-.032-.436 2.076-.435 3.47-.837 4.347-.837.486 0 .583.268.583 1.039 0 3.65-.13 8.607.033 10.55" id="Fill-20" fill="#FFF"/><path d="M118.7 45c2.668 0 4.392 1.324 4.392 4.667 0 2.283-.065 5.46.033 7.082.065 1.456.65 1.655 1.692 1.82.227 0 .26.431 0 .431-1.139 0-2.278-.1-3.09-.1a80 80 0 00-2.766.1c-.228 0-.195-.397 0-.43.78-.1 1.008-.662 1.04-1.787.066-1.688.066-4.502 0-6.52-.064-2.218-.65-3.509-2.732-3.509-1.561 0-2.668.86-3.156 1.522-.097 2.913-.097 6.124.033 8.341.098 1.655.455 1.754 1.691 1.953.228 0 .261.43 0 .43-1.073 0-2.537-.1-3.253-.1-.52 0-2.31.1-2.83.1-.227 0-.195-.397 0-.43.716-.166 1.106-.298 1.236-1.953.13-1.622.098-6.686.033-7.712-.098-1.82-.455-2.482-1.432-2.482h-.39c-.227 0-.293-.397-.033-.43 2.083-.43 3.481-.828 4.36-.828.488 0 .585.265.585 1.027v1.19c.716-.992 2.343-2.382 4.588-2.382" id="Fill-22" fill="#FFF"/><path d="M130.378 45.75c-1.754 0-2.36 1.89-2.36 4.041 0 2.38.542 4.205 2.52 4.205 1.754 0 2.296-1.989 2.296-3.879 0-2.933-.797-4.367-2.456-4.367m-.255 14.243c-2.838.62-3.795 2.151-3.795 3.585 0 1.63 1.116 2.705 3.89 2.705 3.445 0 5.135-1.695 5.135-3.422 0-1.239-.606-2.151-2.774-2.542-.766-.13-1.69-.229-2.456-.326m.606-5.248c-1.148.163-1.977.717-1.977 1.37 0 .814 1.02 1.01 1.754 1.14l2.997.489c3.03.456 4.21 1.792 4.21 3.976 0 2.9-3.062 5.28-7.622 5.28-4.082 0-6.091-1.401-6.091-3.39 0-1.923 2.01-3.357 5.007-3.78-1.818-.326-2.934-.978-2.998-2.249-.095-1.565 1.53-2.477 3.285-2.9-2.424-.425-4.274-1.794-4.274-4.727 0-3.063 2.424-4.954 5.326-4.954 2.169 0 3.221.62 3.955 1.108.893.229 2.615.293 3.667 0 .032.098.032.229.032.293-.064.783-1.85 1.271-2.551 1.304.191.522.35 1.271.35 2.119 0 2.868-2.391 4.856-5.07 4.921" id="Fill-24" fill="#FFF"/><path d="M164.688 37.867c.885.333 1.312.833 1.312 1.933-.033 1.033-.197 2.233-.262 3.467-.033.267-.493.233-.493 0-.328-3.867-3.248-5.233-6.595-5.233-5.35 0-7.974 3.766-7.908 10.033.065 6.867 3.675 9.8 8.466 9.8 4.233 0 5.775-1.867 6.267-5.067 0-.267.492-.3.492 0 .033.767.033 1.734.033 2.3-.065 2.4-.59 2.567-1.673 3.067-.788.366-2.494.833-5.218.833-7.219 0-12.043-3.833-12.108-10.567C146.935 41.267 152.02 37 158.945 37c2.002 0 4.003.2 5.743.867" id="Fill-26" fill="#FFF"/><path d="M172.064 50.012c.819.032 1.607.032 2.486.032.88 0 1.729 0 2.517-.032.06-1.358-.212-4.204-2.183-4.204-1.94 0-2.608 2.134-2.82 4.204M175.005 45c2.76 0 4.548 2.457 4.61 4.947 0 .646-.092.873-.82.873-.818 0-2.486-.033-3.911-.033-1.364 0-2.183 0-2.88.033-.031.388-.031.711-.031 1.39.06 3.686 1.91 5.205 4.397 5.205 1.061 0 2.334-.355 3.335-1.454.152-.162.364.032.273.226-.788 1.681-2.365 2.813-4.79 2.813-3.276 0-6.096-1.843-6.187-6.628-.06-4.171 2.305-7.372 6.004-7.372" id="Fill-28" fill="#FFF"/><path d="M190.7 45c2.668 0 4.392 1.324 4.392 4.667 0 2.283-.065 5.46.033 7.082.065 1.456.65 1.655 1.692 1.82.227 0 .26.431 0 .431-1.139 0-2.278-.1-3.09-.1a80 80 0 00-2.766.1c-.228 0-.195-.397 0-.43.78-.1 1.008-.662 1.04-1.787.066-1.688.066-4.502 0-6.52-.064-2.218-.65-3.509-2.732-3.509-1.561 0-2.668.86-3.156 1.522-.097 2.913-.097 6.124.033 8.341.098 1.655.455 1.754 1.691 1.953.228 0 .261.43 0 .43-1.073 0-2.537-.1-3.253-.1-.52 0-2.31.1-2.83.1-.227 0-.195-.397 0-.43.716-.166 1.106-.298 1.236-1.953.13-1.622.098-6.686.033-7.712-.098-1.82-.455-2.482-1.432-2.482h-.39c-.227 0-.293-.397-.033-.43 2.083-.43 3.481-.828 4.36-.828.488 0 .585.265.585 1.027v1.19c.716-.992 2.343-2.382 4.588-2.382" id="Fill-30" fill="#FFF"/><path d="M201.95 55.131c.156 1.605.84 2.485 2.332 2.485.995 0 1.834-.566 2.238-1.415.155-.315.56-.126.466.157-.497 1.604-1.616 2.642-3.854 2.642-2.331 0-3.855-1.1-4.072-3.46-.186-2.139-.031-5.095-.031-8.524-.436 0-1.306 0-1.834.19-.186.062-.28-.284-.093-.378a39.071 39.071 0 002.549-1.762c.87-.66 1.678-1.54 2.206-2.012.187-.158.373.063.28.251-.062.22-.155.535-.186 1.132-.031.44-.031 1.196-.031 1.51.528 0 1.678-.031 3.295-.031.528 0 .839-.032 1.212-.158-.062.441-.342 1.196-.56 1.29-.839 0-2.175-.032-3.947-.032-.125 3.46-.156 6.26.03 8.115" id="Fill-32" fill="#FFF"/><path d="M211.064 50.012c.819.032 1.607.032 2.486.032.88 0 1.728 0 2.517-.032.06-1.358-.212-4.204-2.183-4.204-1.94 0-2.608 2.134-2.82 4.204M214.005 45c2.76 0 4.548 2.457 4.61 4.947 0 .646-.092.873-.82.873-.818 0-2.486-.033-3.911-.033-1.364 0-2.183 0-2.88.033-.031.388-.031.711-.031 1.39.06 3.686 1.91 5.205 4.397 5.205 1.061 0 2.334-.355 3.335-1.454.152-.162.364.032.273.226-.788 1.681-2.365 2.813-4.79 2.813-3.276 0-6.096-1.843-6.187-6.628-.06-4.171 2.305-7.372 6.004-7.372" id="Fill-34" fill="#FFF"/><mask id="mask-4" fill="#fff"><use xlink:href="#path-3"/></mask><path d="M225.168 49.427c.453-1.725 2.039-4.135 4.368-4.135 1.295 0 1.65.52 1.359 2.15l-.226 1.66c-.065.163-.388.163-.388-.033.032-1.172-.745-1.498-1.78-1.498-.938 0-1.974.358-2.621 1.368-.614.944-.68 1.986-.712 3.158-.032.945-.064 2.442.065 4.624.097 1.465.323 1.693 2.297 1.856.227 0 .26.423 0 .423-1.488 0-2.718-.097-3.397-.097-.55 0-2.459.097-3.268.097-.259 0-.226-.423 0-.423.777-.13 1.133-.488 1.23-1.856.129-1.596.097-6.642.032-7.652-.097-1.79-.453-2.442-1.424-2.442h-.388c-.226 0-.291-.39-.032-.423 2.07-.423 3.462-.814 4.335-.814.486 0 .583.26.583 1.01 0 .976 0 2.018-.033 3.027" id="Fill-36" fill="#FFF"/><path d="M73.296 86.295c.062 1.792.376 2.085 2.068 2.281.219 0 .25.424 0 .424-1.285 0-2.82-.098-3.416-.098-.501 0-2.256.098-2.789.098-.25 0-.219-.391 0-.424.846-.196 1.128-.424 1.16-2.542.031-2.868.094-6.486.031-9.224-.47 0-1.943.033-2.35.066.094-.326.407-1.076.627-1.109.25-.032 1.504-.032 1.754-.032.032-.522.063-1.63.376-2.901.408-1.695 1.16-3.162 2.445-4.302.814-.717 2.13-1.532 3.79-1.532 1.568 0 2.038.456 2.007 1.467-.032.847-.22 2.216-.314 2.802-.062.229-.344.261-.376 0-.282-1.531-1.19-3.16-2.538-3.16-2.35 0-2.475 3.715-2.475 5.866v1.694c.532 0 1.378-.032 3.008-.032.532 0 .846-.033 1.222-.163-.094.456-.345 1.27-.564 1.369-.846 0-1.88-.033-3.666-.033-.063 1.89-.063 8.116 0 9.485" id="Fill-39" fill="#FFF"/><path d="M83.935 75.776c-2.8 0-3.777 2.522-3.68 6.466.066 2.555.62 5.95 3.94 5.95 3.126 0 3.614-3.815 3.517-6.467-.098-2.78-.945-5.95-3.777-5.95m0-.775C87.972 75 91 77.587 91 81.92c0 3.588-2.637 7.08-6.87 7.08C79.8 89 77 86.252 77 82.21c0-4.17 2.702-7.21 6.935-7.21" id="Fill-41" fill="#FFF"/><path d="M96.647 79.223C97.063 77.461 98.52 75 100.663 75c1.19 0 1.517.532 1.25 2.195l-.209 1.696c-.06.166-.357.166-.357-.034.03-1.197-.684-1.53-1.636-1.53-.863 0-1.815.366-2.41 1.397-.565.965-.625 2.029-.654 3.226-.03.965-.06 2.494.06 4.722.088 1.497.297 1.73 2.111 1.896.208 0 .239.432 0 .432-1.368 0-2.499-.1-3.123-.1-.506 0-2.262.1-3.005.1-.238 0-.209-.432 0-.432.714-.133 1.04-.499 1.13-1.896.12-1.63.09-6.784.03-7.815-.09-1.829-.417-2.494-1.31-2.494h-.356c-.208 0-.268-.399-.03-.432 1.904-.432 3.184-.831 3.987-.831.446 0 .535.265.535 1.03 0 .998 0 2.062-.03 3.093" id="Fill-43" fill="#FFF"/><mask id="mask-6" fill="#fff"><use xlink:href="#path-5"/></mask><path d="M127.443 80.733c-1.11-2.7-2.155-5.3-2.71-6.6-.49 1.1-1.502 3.4-2.547 5.933a335.64 335.64 0 00-3.69 9.334c-.163.466-.229.6-.392.6-.164 0-.261-.167-.392-.6-1.175-3.534-2.286-7-3.69-11.3-.98-3.068-2.09-6.1-2.612-7.5-.654-1.668-1.013-1.735-2.058-1.868-.228-.033-.26-.433 0-.433.817.033 2.45.1 3.397.1.555 0 2.645-.067 3.82-.1.261 0 .261.433 0 .433-1.404.167-1.796.367-1.47 1.733.556 2.2 1.241 4.234 2.058 7 .816 2.734 1.306 4.268 2.057 6.435l2.58-6.2a595.704 595.704 0 003.135-7.735c.588-1.5.653-1.7.849-1.7.229 0 .229.167.849 1.934.392 1.133 1.208 3.267 2.808 7.2l2.743 6.567c.654-1.866 1.241-3.7 2.123-6.6.653-2.167 1.208-4.2 1.666-6.234.391-1.833.228-2.267-.98-2.4-.23 0-.262-.433 0-.433.75.033 2.416.1 2.971.1.653 0 1.829-.067 2.613-.1.294 0 .26.433 0 .433-1.502.167-1.96 1.2-2.319 2.1-1.208 2.9-2.155 5.7-3.2 8.7-1.045 2.968-2.743 7.834-3.429 9.901-.13.433-.196.567-.326.567-.196 0-.262-.167-.425-.567a373.437 373.437 0 00-3.429-8.7" id="Fill-45" fill="#FFF"/><path d="M144.935 75.776c-2.8 0-3.777 2.522-3.68 6.466.066 2.555.62 5.95 3.94 5.95 3.126 0 3.614-3.815 3.517-6.467-.098-2.78-.945-5.95-3.777-5.95m0-.775c4.037 0 7.065 2.587 7.065 6.92 0 3.588-2.637 7.08-6.87 7.08-4.33 0-7.13-2.748-7.13-6.79 0-4.17 2.702-7.21 6.935-7.21" id="Fill-48" fill="#FFF"/><path d="M151.582 76.423h-.384c-.224 0-.288-.397-.032-.43 2.048-.43 3.425-.828 4.29-.828.48 0 .575.265.575 1.027v1.19c.704-.992 2.08-2.382 4.161-2.382 1.953 0 3.393.695 4.033 2.45.896-1.292 2.529-2.45 4.481-2.45 2.529 0 4.418 1.224 4.418 4.667 0 2.283-.065 5.494.031 7.082.064 1.457.64 1.655 1.665 1.82.224 0 .256.431 0 .431-1.12 0-2.24-.1-3.041-.1-.576 0-2.112.067-2.72.1-.225 0-.193-.397 0-.43.768-.1.992-.662 1.024-1.787.064-1.688.096-4.667 0-6.686-.096-2.052-.705-3.343-2.753-3.343-1.056 0-2.049.463-2.945 1.423.096.464.16 1.291.16 1.986 0 2.284-.032 4.998.064 6.586.096 1.457.64 1.655 1.665 1.82.224 0 .256.431 0 .431-1.12 0-2.24-.1-3.041-.1-.576 0-2.112.067-2.72.1-.225 0-.193-.397 0-.43.768-.1.991-.662 1.024-1.787.095-1.688.095-4.767 0-6.785-.096-2.052-.8-3.244-2.626-3.244-1.344 0-2.368.828-2.88 1.457-.096 2.912-.096 6.189.032 8.406.096 1.655.448 1.754 1.664 1.953.224 0 .257.43 0 .43-1.056 0-2.496-.1-3.2-.1-.512 0-2.273.1-2.785.1-.224 0-.192-.397 0-.43.704-.166 1.088-.298 1.216-1.953.128-1.622.096-6.685.032-7.712-.096-1.82-.448-2.482-1.408-2.482" id="Fill-50" fill="#FFF"/><path d="M181.064 80.012c.819.032 1.607.032 2.486.032.88 0 1.728 0 2.517-.032.06-1.358-.212-4.204-2.183-4.204-1.94 0-2.608 2.134-2.82 4.204M184.005 75c2.76 0 4.548 2.457 4.61 4.947 0 .646-.092.873-.82.873-.818 0-2.486-.033-3.911-.033-1.364 0-2.183 0-2.88.033-.031.388-.031.711-.031 1.39.06 3.686 1.91 5.205 4.397 5.205 1.061 0 2.334-.355 3.335-1.454.152-.162.364.032.273.226-.788 1.681-2.365 2.813-4.79 2.813-3.276 0-6.096-1.843-6.187-6.628-.06-4.171 2.305-7.372 6.004-7.372" id="Fill-52" fill="#FFF"/><path d="M199.7 75c2.668 0 4.392 1.324 4.392 4.667 0 2.283-.065 5.46.033 7.082.065 1.456.65 1.655 1.692 1.82.227 0 .26.431 0 .431-1.139 0-2.278-.1-3.09-.1a80 80 0 00-2.766.1c-.228 0-.195-.397 0-.43.78-.1 1.008-.662 1.04-1.787.066-1.688.066-4.502 0-6.52-.064-2.218-.65-3.509-2.732-3.509-1.561 0-2.668.86-3.156 1.522-.097 2.913-.097 6.124.033 8.341.098 1.655.455 1.754 1.691 1.953.228 0 .261.43 0 .43-1.073 0-2.537-.1-3.253-.1-.52 0-2.31.1-2.83.1-.227 0-.195-.397 0-.43.716-.166 1.106-.298 1.236-1.953.13-1.622.098-6.686.033-7.712-.098-1.82-.455-2.482-1.432-2.482h-.39c-.227 0-.293-.397-.033-.43 2.083-.43 3.481-.828 4.36-.828.488 0 .585.265.585 1.027v1.19c.716-.992 2.343-2.382 4.588-2.382" id="Fill-54" fill="#FFF"/><path d="M103.528 39.78c.615-.81 2.454-1.222 3.161-.062.778 1.276-.034 2.753-1.011 3.571-.977.818-2.144 1.711-2.144 1.711s-1.186-.893-2.163-1.712c-.976-.819-1.904-2.152-1.01-3.571.725-1.15 2.548-.747 3.163.064" id="Fill-56" fill="#EE3F6A"/><path d="M87.931 34.13c.685 0 1.28-.104 1.788-.312.507-.208.903-.507 1.189-.897.286-.39.429-.85.429-1.378 0-.572-.173-1.044-.52-1.417-.347-.373-.936-.65-1.768-.832l-1.742-.39c-.511-.113-.86-.269-1.047-.468a.995.995 0 01-.279-.702c0-.234.063-.444.189-.63.125-.187.322-.336.591-.449.269-.113.611-.169 1.027-.169.563 0 1.05.11 1.463.331.411.221.782.583 1.111 1.086l.936-.897a3.908 3.908 0 00-1.43-1.28c-.563-.29-1.23-.436-2.002-.436-.693 0-1.291.12-1.794.358-.503.238-.886.554-1.15.948a2.318 2.318 0 00-.397 1.32c0 .373.082.709.247 1.008.165.299.416.552.754.76.338.208.767.368 1.287.481l1.885.429c.46.104.774.251.943.442a.97.97 0 01.253.663c0 .26-.076.483-.228.67-.151.186-.372.327-.662.422-.29.095-.635.143-1.034.143-.45 0-.86-.065-1.228-.195a3.003 3.003 0 01-.969-.552 3.318 3.318 0 01-.689-.813l-.962.962c.234.347.533.654.897.923s.789.481 1.274.637a5.34 5.34 0 001.638.234zm8.684 0c1.144 0 2.015-.286 2.613-.858.598-.572.897-1.426.897-2.561V25.42h-1.391v5.122c0 .806-.173 1.404-.52 1.794-.347.39-.88.585-1.599.585-.71 0-1.24-.195-1.586-.585-.347-.39-.52-.988-.52-1.794V25.42h-1.391v5.291c0 1.135.301 1.989.904 2.561.602.572 1.466.858 2.593.858zm7.28-.13v-3.198h1.911c.615 0 1.146-.108 1.593-.325a2.48 2.48 0 001.046-.93c.251-.402.377-.881.377-1.436 0-.563-.126-1.044-.377-1.443a2.494 2.494 0 00-1.046-.923c-.447-.217-.978-.325-1.593-.325h-3.302V34h1.391zm1.69-4.394h-1.69v-3.003h1.69c.615 0 1.068.128 1.359.383.29.256.435.631.435 1.125 0 .485-.145.856-.436 1.111-.29.256-.743.384-1.358.384zM112.046 34v-3.198h1.911c.615 0 1.146-.108 1.593-.325a2.48 2.48 0 001.046-.93c.251-.402.377-.881.377-1.436 0-.563-.126-1.044-.377-1.443a2.494 2.494 0 00-1.047-.923c-.446-.217-.977-.325-1.592-.325h-3.302V34h1.391zm1.69-4.394h-1.69v-3.003h1.69c.615 0 1.068.128 1.358.383.29.256.436.631.436 1.125 0 .485-.145.856-.436 1.111-.29.256-.743.384-1.358.384zm8.632 4.524c.832 0 1.551-.178 2.158-.533a3.564 3.564 0 001.404-1.521c.33-.659.494-1.447.494-2.366s-.165-1.707-.494-2.366a3.564 3.564 0 00-1.404-1.521c-.607-.355-1.326-.533-2.158-.533-.823 0-1.538.178-2.145.533a3.564 3.564 0 00-1.404 1.521c-.33.659-.494 1.447-.494 2.366s.165 1.707.494 2.366c.33.659.797 1.166 1.404 1.521.607.355 1.322.533 2.145.533zm0-1.209c-.537 0-.999-.126-1.384-.377-.386-.251-.683-.617-.891-1.098-.208-.482-.312-1.06-.312-1.736 0-.685.104-1.265.312-1.742.208-.477.505-.84.89-1.092.386-.251.848-.377 1.385-.377.546 0 1.012.126 1.398.377.385.251.682.615.89 1.092.208.477.312 1.057.312 1.742 0 .676-.104 1.255-.312 1.735-.208.482-.505.848-.89 1.099-.386.251-.852.377-1.398.377zM129.869 34v-3.432h1.845L133.899 34h1.599l-2.371-3.649.098-.025c.292-.088.554-.21.785-.368l.169-.124c.541-.438.812-1.06.812-1.866 0-.78-.27-1.4-.813-1.859-.541-.46-1.271-.689-2.19-.689h-3.497V34h1.378zm2.015-4.589h-2.015v-2.808h2.015c.563 0 .982.117 1.255.351.272.234.409.585.409 1.053 0 .477-.137.83-.41 1.06-.273.23-.69.344-1.254.344zM140.672 34v-7.384h2.938V25.42h-7.267v1.196h2.938V34h1.391z" id="SUPPORT" fill="#EE3F6A" fill-rule="nonzero"/></g></g></g></svg>