<svg width="60" height="49" fill="none" xmlns="http://www.w3.org/2000/svg"><path fill-rule="evenodd" clip-rule="evenodd" d="M14 41.627A5.634 5.634 0 018.373 36 5.634 5.634 0 0114 30.372 5.634 5.634 0 0119.628 36 5.634 5.634 0 0114 41.627M14 29c-3.86 0-7 3.14-7 7s3.14 7 7 7 7-3.14 7-7-3.14-7-7-7" fill="#0B4595"/><path fill-rule="evenodd" clip-rule="evenodd" d="M50.451 47.451c-4.479 0-8.123-3.6-8.123-8.026 0-4.425 3.644-8.026 8.123-8.026 4.48 0 8.124 3.6 8.124 8.026s-3.644 8.026-8.124 8.026zM27.355 35.83c.002-.116.008-.23.008-.347 0-7.454-6.137-13.517-13.681-13.517-1.946 0-3.797.406-5.475 1.132v-6.201h14.616c.612 0 1.228.047 1.833.14l31.337 4.827v9.886a9.572 9.572 0 00-5.542-1.759 9.563 9.563 0 00-8.826 5.839h-14.27zM13.682 47.592c-6.758 0-12.257-5.432-12.257-12.11 0-6.676 5.499-12.108 12.257-12.108s12.256 5.432 12.256 12.109-5.498 12.109-12.256 12.109zm2.05-46.184h7.65v14.093a13.15 13.15 0 00-.559-.012H8.207V8.841c0-4.1 3.376-7.434 7.524-7.434zm17.057 15.457l-7.913-1.22-.07-.008V1.408h5.511l2.472 15.457zm24.63 16.119V20.659L45.52 18.826v-6.977c0-2.592 2.135-4.7 4.759-4.7h1.74V5.74h-1.74c-3.41 0-6.184 2.74-6.184 6.109v6.758l-9.827-1.514L31.535 0H15.731c-4.934 0-8.949 3.966-8.949 8.842v14.975C2.73 26.167 0 30.514 0 35.483 0 42.936 6.138 49 13.682 49c6.941 0 12.688-5.135 13.562-11.762h13.92a9.308 9.308 0 00-.261 2.187c0 5.202 4.283 9.434 9.548 9.434 5.266 0 9.549-4.232 9.549-9.434a9.335 9.335 0 00-2.582-6.441z" fill="#0B4595"/><path fill-rule="evenodd" clip-rule="evenodd" d="M51 43.624A3.628 3.628 0 0147.376 40 3.628 3.628 0 0151 36.376 3.628 3.628 0 0154.624 40 3.628 3.628 0 0151 43.624M51 35c-2.757 0-5 2.243-5 5s2.243 5 5 5 5-2.243 5-5-2.243-5-5-5" fill="#0B4595"/></svg>