<svg width="61" height="57" fill="none" xmlns="http://www.w3.org/2000/svg"><path fill-rule="evenodd" clip-rule="evenodd" d="M59.578 25.014c0 1.127-.92 2.043-2.05 2.043H55.17V15.63h2.36c1.13 0 2.049.917 2.049 2.044v7.34zm-9.152 23.62h-39.86a3.32 3.32 0 01-3.322-3.311V32.045h46.503v13.278a3.32 3.32 0 01-3.32 3.311zm1.054 5.789c0 .639-.521 1.16-1.163 1.16h-5.269a1.163 1.163 0 01-1.163-1.16v-4.37h6.541c.363 0 .715-.045 1.054-.123v4.493zm-34.415 0c0 .639-.521 1.16-1.163 1.16h-5.269a1.163 1.163 0 01-1.163-1.16V49.92c.352.084.718.132 1.096.132h6.5v4.37zM3.472 27.057c-1.13 0-2.05-.916-2.05-2.043v-7.34a2.05 2.05 0 012.05-2.044h2.35v11.427h-2.35zM14.38 1.417h32.232c3.934 0 7.135 3.192 7.135 7.115v1.677H7.244V8.532c0-3.923 3.201-7.114 7.136-7.114zm-7.136 29.21h46.503v-19H7.244v19zm50.284-16.415H55.17v-5.68C55.17 3.828 51.331 0 46.612 0H14.38C9.661 0 5.822 3.828 5.822 8.532v5.68h-2.35A3.47 3.47 0 000 17.674v7.34a3.47 3.47 0 003.472 3.461h2.35v16.848c0 1.685.892 3.163 2.226 4.001v5.099A2.584 2.584 0 0010.633 57h5.27a2.584 2.584 0 002.584-2.577v-4.37h23.976v4.37A2.584 2.584 0 0045.048 57h5.27a2.584 2.584 0 002.584-2.577v-5.074a4.723 4.723 0 002.267-4.026V28.475h2.36A3.47 3.47 0 0061 25.014v-7.34a3.47 3.47 0 00-3.472-3.462z" fill="#0B4595"/><path fill-rule="evenodd" clip-rule="evenodd" d="M25 37h11v-1H25v1zm0 7h11v-1H25v1zm-9.5-1.364a3.14 3.14 0 01-3.136-3.136 3.14 3.14 0 013.136-3.136 3.14 3.14 0 013.136 3.136 3.14 3.14 0 01-3.136 3.136m0-7.636a4.505 4.505 0 00-4.5 4.5c0 2.481 2.019 4.5 4.5 4.5s4.5-2.019 4.5-4.5-2.019-4.5-4.5-4.5m31 7.636a3.14 3.14 0 01-3.136-3.136 3.14 3.14 0 013.136-3.136 3.14 3.14 0 013.136 3.136 3.14 3.14 0 01-3.136 3.136m0-7.636a4.505 4.505 0 00-4.5 4.5c0 2.481 2.019 4.5 4.5 4.5s4.5-2.019 4.5-4.5-2.019-4.5-4.5-4.5" fill="#0B4595"/></svg>