<svg width="67" height="52" fill="none" xmlns="http://www.w3.org/2000/svg"><path fill-rule="evenodd" clip-rule="evenodd" d="M17.5 45.548a3.052 3.052 0 01-3.048-3.048 3.052 3.052 0 013.048-3.048 3.052 3.052 0 013.048 3.048 3.052 3.052 0 01-3.048 3.048m0-7.548a4.505 4.505 0 00-4.5 4.5c0 2.481 2.019 4.5 4.5 4.5s4.5-2.019 4.5-4.5-2.019-4.5-4.5-4.5m35 7.548a3.052 3.052 0 01-3.048-3.048 3.052 3.052 0 013.048-3.048 3.052 3.052 0 013.048 3.048 3.052 3.052 0 01-3.048 3.048m0-7.548a4.505 4.505 0 00-4.5 4.5c0 2.481 2.019 4.5 4.5 4.5s4.5-2.019 4.5-4.5-2.019-4.5-4.5-4.5" fill="#0B4595"/><mask id="a" style="mask-type:luminance" maskUnits="userSpaceOnUse" x="0" y="0" width="67" height="52"><path fill-rule="evenodd" clip-rule="evenodd" d="M0 0h67v52H0V0z" fill="#fff"/></mask><g mask="url(#a)"><path fill-rule="evenodd" clip-rule="evenodd" d="M61.563 41.191c-.658-4.587-4.631-8.126-9.422-8.126-5.01 0-9.125 3.87-9.49 8.761H38.92V7.913h10.693a6.367 6.367 0 015.431 3.001l2.543 4.064H46.324v4.626c0 4.773 3.905 8.657 8.704 8.657H65.58v12.93h-4.016zm-9.422 9.396c-4.465 0-8.098-3.613-8.098-8.054 0-4.442 3.633-8.055 8.098-8.055 4.465 0 8.098 3.613 8.098 8.055 0 4.44-3.633 8.054-8.098 8.054zm-34.95 0c-4.465 0-8.098-3.613-8.098-8.054 0-4.442 3.633-8.055 8.098-8.055 4.465 0 8.098 3.613 8.098 8.055 0 4.44-3.633 8.054-8.098 8.054zM1.42 33.111v-2.963h36.078v11.678H26.68c-.364-4.891-4.48-8.76-9.49-8.76a9.526 9.526 0 00-9.217 7.1c-3.66-.288-6.552-3.34-6.552-7.055zm20.84-20.394a4.085 4.085 0 002.982-1.296L34.55 1.413h2.948v27.322H1.421V12.717h20.84zm42.75 14.13h-9.983c-4.016 0-7.283-3.249-7.283-7.243V16.39H58.47l6.54 10.457zm1.989.506L56.25 10.168A7.78 7.78 0 0049.614 6.5H38.92V0h-4.99L24.2 10.461a2.657 2.657 0 01-1.94.843H0v21.807c0 4.408 3.396 8.042 7.722 8.452a9.43 9.43 0 00-.05.97c0 5.22 4.27 9.467 9.519 9.467 5.01 0 9.125-3.87 9.49-8.76h15.97c.365 4.89 4.48 8.76 9.49 8.76 5.224 0 9.478-4.208 9.517-9.396H67V27.353z" fill="#0B4595"/></g></svg>