<svg width="82" height="48" fill="none" xmlns="http://www.w3.org/2000/svg"><path fill-rule="evenodd" clip-rule="evenodd" d="M23.5 36.5c1.654 0 3 1.346 3 3s-1.346 3-3 3-3-1.346-3-3 1.346-3 3-3m0 7.5c2.481 0 4.5-2.019 4.5-4.5S25.981 35 23.5 35a4.505 4.505 0 00-4.5 4.5c0 2.481 2.019 4.5 4.5 4.5M51 34.423A3.58 3.58 0 0154.577 38 3.581 3.581 0 0151 41.577 3.581 3.581 0 0147.423 38 3.58 3.58 0 0151 34.423M51 43c2.757 0 5-2.243 5-5s-2.243-5-5-5-5 2.243-5 5 2.243 5 5 5" fill="#0B4595"/><path fill-rule="evenodd" clip-rule="evenodd" d="M66.483 45.7V32.753h2.166a.45.45 0 01.345.16L79.842 45.7h-13.36zm-11.81-23.534V8.18h17.303l-5.158 17.737H61.44l-.065-.076a10.88 10.88 0 00-6.703-3.675zm-7.164-.117V1.412h26.436l-1.558 5.356h-19.14v15.285c-.051 0-.103-.004-.154-.004h-5.584zm-1.425 0H13.876L18.454 8.18h27.63v13.87zM8.67 18.316l-1.837 5.12h-4.7l3.692-8.827h9.007l-1.224 3.707H8.671zm15.341 13.872c4.008 0 7.269 3.23 7.269 7.2s-3.261 7.2-7.269 7.2-7.268-3.23-7.268-7.2 3.26-7.2 7.268-7.2zm27.079-3.247c4.911 0 8.907 3.959 8.907 8.824s-3.996 8.823-8.907 8.823c-4.912 0-8.908-3.958-8.908-8.823s3.996-8.824 8.908-8.824zm30.725 16.892l-11.731-13.83a1.879 1.879 0 00-1.436-.662h-2.55l-3.446-4.012h5.238L75.548.999A.781.781 0 0074.789 0H46.083v6.768H17.42l-2.122 6.429H4.875L0 24.847h7.84l1.836-5.119h3.467l-2.713 8.22a.808.808 0 00.236.863l6.3 5.543a8.508 8.508 0 00-1.648 5.034c0 4.749 3.9 8.612 8.694 8.612 4.554 0 8.298-3.486 8.662-7.906h8.357C42.1 44.62 46.202 48 51.091 48c5.697 0 10.332-4.591 10.332-10.235 0-5.644-4.635-10.236-10.332-10.236-5.698 0-10.333 4.592-10.333 10.236 0 .31.016.615.044.917h-8.128c-.364-4.419-4.108-7.906-8.662-7.906a8.707 8.707 0 00-6.12 2.504l-5.985-5.265 1.503-4.554h39.683a9.47 9.47 0 017.196 3.295l4.769 5.55v14.805h16.157a.789.789 0 00.712-.45.775.775 0 00-.11-.828z" fill="#0B4595"/></svg>