<svg width="64" height="52" fill="none" xmlns="http://www.w3.org/2000/svg"><path fill-rule="evenodd" clip-rule="evenodd" d="M21 45.519A2.521 2.521 0 0118.482 43 2.521 2.521 0 0121 40.481 2.521 2.521 0 0123.518 43 2.521 2.521 0 0121 45.519M21 39c-2.206 0-4 1.794-4 4s1.794 4 4 4 4-1.794 4-4-1.794-4-4-4" fill="#0B4595"/><path fill-rule="evenodd" clip-rule="evenodd" d="M21.046 34c-4.041 0-7.458 2.75-8.53 6.5H1.41V28.849h32.77V40.5h-4.604c-1.072-3.75-4.49-6.5-8.53-6.5zm0 16.571c-4.12 0-7.471-3.396-7.471-7.571s3.351-7.571 7.47-7.571c4.12 0 7.472 3.396 7.472 7.571s-3.351 7.571-7.471 7.571zM10.772 1.43h35.167c5.163 0 9.362 4.256 9.362 9.487V27.42h-6.526V13.794c0-1.304-1.047-2.365-2.334-2.365h-9.926c-1.287 0-2.334 1.06-2.334 2.365V27.42H1.41V10.916c0-5.231 4.2-9.487 9.362-9.487zM48.775 40.5h6.526V28.849h-6.526V40.5zm-1.41 0H35.59V13.794c0-.517.415-.937.925-.937h9.926c.51 0 .925.42.925.937V40.5zm15.225-4.483v.834c0 2.012-1.615 3.649-3.6 3.649h-2.28V10.916C56.711 4.896 51.879 0 45.939 0H10.772C4.832 0 0 4.897 0 10.916v31.013h12.23A9.15 9.15 0 0012.165 43c0 4.963 3.984 9 8.88 9 4.898 0 8.882-4.037 8.882-9 0-.363-.024-.72-.065-1.071h29.127c2.763 0 5.011-2.278 5.011-5.078v-.834h-1.41z" fill="#0B4595"/><path fill-rule="evenodd" clip-rule="evenodd" d="M11.417 20.556h14.166V10.444H11.417v10.112zM10 22h17V9H10v13z" fill="#0B4595"/></svg>