<svg width="231" height="99" xmlns="http://www.w3.org/2000/svg"><defs><linearGradient x1="50.06%" y1="99.952%" x2="50.06%" y2="-.077%" id="a"><stop stop-color="#2D2377" offset="0%"/><stop stop-color="#2F277A" offset="9.125%"/><stop stop-color="#343483" offset="18.69%"/><stop stop-color="#3D4992" offset="28.45%"/><stop stop-color="#4966A7" offset="38.36%"/><stop stop-color="#588BC1" offset="48.28%"/><stop stop-color="#598EC3" offset="48.88%"/><stop stop-color="#486AA0" offset="58.71%"/><stop stop-color="#354279" offset="71.23%"/><stop stop-color="#28265D" offset="82.72%"/><stop stop-color="#20144C" offset="92.68%"/><stop stop-color="#1D0E46" offset="100%"/></linearGradient><linearGradient x1="49.86%" y1="99.952%" x2="49.86%" y2="-.077%" id="b"><stop stop-color="#2D2377" offset="0%"/><stop stop-color="#2F277A" offset="9.125%"/><stop stop-color="#343483" offset="18.69%"/><stop stop-color="#3D4992" offset="28.45%"/><stop stop-color="#4966A7" offset="38.36%"/><stop stop-color="#588BC1" offset="48.28%"/><stop stop-color="#598EC3" offset="48.88%"/><stop stop-color="#486AA0" offset="58.71%"/><stop stop-color="#354279" offset="71.23%"/><stop stop-color="#28265D" offset="82.72%"/><stop stop-color="#20144C" offset="92.68%"/><stop stop-color="#1D0E46" offset="100%"/></linearGradient><linearGradient x1="51.969%" y1="99.623%" x2="51.969%" y2="-.191%" id="c"><stop stop-color="#565D5E" offset="0%"/><stop stop-color="#565D5E" offset="13.79%"/><stop stop-color="#BABABA" offset="49.78%"/><stop stop-color="#B0B1B1" offset="56.09%"/><stop stop-color="#969899" offset="66.71%"/><stop stop-color="#6C7171" offset="80.25%"/><stop stop-color="#4C5354" offset="89.16%"/><stop stop-color="#4C5354" offset="100%"/></linearGradient><linearGradient x1="49.7%" y1="100.096%" x2="49.7%" y2=".241%" id="d"><stop stop-color="#2D2377" offset="0%"/><stop stop-color="#2F277A" offset="9.125%"/><stop stop-color="#343483" offset="18.69%"/><stop stop-color="#3D4992" offset="28.45%"/><stop stop-color="#4966A7" offset="38.36%"/><stop stop-color="#588BC1" offset="48.28%"/><stop stop-color="#598EC3" offset="48.88%"/><stop stop-color="#486AA0" offset="58.71%"/><stop stop-color="#354279" offset="71.23%"/><stop stop-color="#28265D" offset="82.72%"/><stop stop-color="#20144C" offset="92.68%"/><stop stop-color="#1D0E46" offset="100%"/></linearGradient><linearGradient x1="51.333%" y1="100.337%" x2="51.333%" y2="-.432%" id="e"><stop stop-color="#565D5E" offset="0%"/><stop stop-color="#565D5E" offset="13.79%"/><stop stop-color="#BABABA" offset="49.78%"/><stop stop-color="#B0B1B1" offset="56.09%"/><stop stop-color="#969899" offset="66.71%"/><stop stop-color="#6C7171" offset="80.25%"/><stop stop-color="#4C5354" offset="89.16%"/><stop stop-color="#4C5354" offset="100%"/></linearGradient></defs><g fill="none"><path d="M.009 52.2c.4 19.8 12 36.7 28.6 44.9l19.7-97c-27.4 1.4-48.8 24.4-48.3 52.1" fill="url(#a)"/><path d="M73.909 97.1c16.6-8.2 28.2-25.1 28.6-44.9.6-27.6-20.9-50.6-48.3-52.1l19.7 97z" fill="url(#b)"/><path d="M50.409 91.7v5.9c0 .4.4.8.8.8s.8-.4.8-.8v-5.9c0-.4-.4-.8-.8-.8s-.8.3-.8.8m0-13v5.9c0 .4.4.8.8.8s.8-.4.8-.8v-5.9c0-.4-.4-.8-.8-.8s-.8.4-.8.8m0-13v5.9c0 .4.4.8.8.8s.8-.4.8-.8v-5.9c0-.4-.4-.8-.8-.8s-.8.4-.8.8m0-13v5.9c0 .4.4.8.8.8s.8-.4.8-.8v-5.9c0-.4-.4-.8-.8-.8s-.8.4-.8.8m0-12.9v5.9c0 .4.4.8.8.8s.8-.4.8-.8v-5.9c0-.4-.4-.8-.8-.8s-.8.3-.8.8m0-13v5.9c0 .4.4.8.8.8s.8-.4.8-.8v-5.9c0-.4-.4-.8-.8-.8s-.8.3-.8.8m0-13v5.9c0 .4.4.8.8.8s.8-.4.8-.8v-5.9c0-.4-.4-.8-.8-.8s-.8.4-.8.8m0-13v5.9c0 .4.4.8.8.8s.8-.4.8-.8V.8c0-.4-.4-.8-.8-.8s-.8.4-.8.8" fill="url(#c)"/><path d="M118.209 29.6c-1.7 0-3.1.2-4.2.6-1 .4-1.9 1-2.6 1.7-.7.7-1.2 1.5-1.6 2.4-.4.9-.6 1.9-.6 2.9 0 1.1.2 2 .6 2.9.4.9.9 1.7 1.6 2.4.7.7 1.6 1.3 2.6 1.7 1.1.4 2.4.6 4.2.6h10.5c.5 0 .9 0 1.2.1.3.1.5.2.7.4.4.4.5.8.5 1.4 0 .5-.1.8-.4 1.2-.2.2-.4.4-.7.5-.3.1-.7.2-1.2.2h-18.7v6.5h20c1.5 0 2.8-.2 3.9-.7 1.1-.5 1.9-1.1 2.6-1.9.6-.7 1-1.5 1.4-2.3.3-.9.5-1.8.5-2.7 0-1-.2-2-.6-2.9-.4-.9-.9-1.7-1.6-2.4-.7-.7-1.5-1.3-2.5-1.7-1-.4-2.2-.6-3.7-.6h-11.3c-.4 0-.7 0-.9-.1l-.6-.3c-.4-.4-.6-.8-.6-1.4 0-.5.2-1 .5-1.3.2-.2.3-.3.6-.4.2-.1.6-.1 1-.1h18.5v-6.8h-19.1v.1zm22.7 0v17.2c0 1.4.1 2.6.4 3.6.3 1 .7 1.9 1.4 2.6.6.7 1.5 1.2 2.6 1.6 1.1.3 2.4.5 4 .5h18.7v-6.5h-17.9c-.9 0-1.5-.2-1.8-.5-.3-.3-.5-1-.5-1.9V29.6h-6.9zm36.7 18.8v-3.7h12c.5 0 .9.1 1.2.2.3.1.6.3.8.5.4.4.6.9.6 1.4 0 .5-.2 1-.5 1.4-.2.2-.5.4-.8.5-.3.1-.7.2-1.2.2h-11.4c-.5 0-.7-.2-.7-.5m0-11.8c0-.4.2-.6.5-.6h11.5c.5 0 .9.1 1.2.2.3.1.5.3.7.5.3.4.5.8.5 1.2 0 .5-.2.9-.5 1.2-.2.3-.4.4-.7.6-.3.1-.7.2-1.2.2h-12v-3.3zm-5.2-7c-1.1 0-1.7.5-1.7 1.6v22.3c0 1.1.6 1.6 1.7 1.6h18.8c1.5 0 2.8-.2 3.8-.7 1-.5 1.9-1.1 2.5-1.9.6-.7 1-1.4 1.3-2.2.3-.8.5-1.7.5-2.6 0-1.2-.2-2.3-.7-3.3-.5-1-1.2-1.8-2.2-2.3.8-.6 1.5-1.3 1.9-2.2.4-.9.7-1.9.7-3s-.2-2-.5-2.9c-.4-.8-.8-1.6-1.4-2.2-1.5-1.6-3.6-2.4-6.3-2.4h-18.4v.2zm28.4 0v6.7h11.3v18.8h6.9V36.3h11.3v-6.7h-29.5z" fill="url(#d)"/><path d="M111.609 59c-.4.1-.8.3-1.1.6-.3.3-.5.6-.7.9-.2.4-.3.8-.3 1.2 0 .5.1.9.2 1.2.2.3.4.6.7.8.3.2.6.4 1 .6.4.1.9.3 1.3.4.4.1.7.2 1 .3.3.1.5.2.6.3l.3.3c.1.1.1.2.1.4 0 .3-.1.5-.4.7-.2.2-.6.2-1 .2-.6 0-1.1-.1-1.5-.3-.5-.2-.9-.5-1.4-.9l-1.3 1.5c.6.5 1.2.9 2 1.2.7.3 1.5.4 2.2.4.5 0 1-.1 1.5-.2.4-.1.8-.3 1.1-.6.3-.3.6-.6.7-1 .2-.4.3-.8.3-1.3 0-.4-.1-.8-.2-1.1-.1-.3-.3-.6-.6-.8-.3-.2-.6-.4-1-.6-.4-.2-.8-.3-1.3-.4-.4-.1-.8-.2-1-.3-.3-.1-.5-.2-.7-.3-.2-.1-.3-.2-.3-.3-.1-.1-.1-.3-.1-.4 0-.2.1-.4.3-.6.2-.2.5-.2.9-.2s.8.1 1.3.3c.4.2.8.4 1.3.7l1.1-1.6c-.5-.4-1.1-.7-1.7-.9-.6-.2-1.3-.3-2-.3-.4-.2-.8-.1-1.3.1m15.8 2.4l1.3 3.2h-2.6l1.3-3.2zm-1-2.6l-4.2 9.9h2.2l.9-2.2h4.1l.9 2.2h2.3l-4.2-9.9h-2zm11.9.1v9.8h2.2v-3.8h4.7v-2h-4.7v-2.1h5.3v-1.9h-7.5zm13.4 0v9.8h7.5v-1.9h-5.4v-2.1h4.7v-1.9h-4.7v-2h5.3v-1.9h-7.4zm17.8 0v9.8h2.2v-3.8h4.6v-2h-4.6v-2.1h5.3v-1.9h-7.5zm13.4 0v9.8h7.1v-2h-4.9v-7.8h-2.2zm12.9 0v9.8h7.4v-1.9h-5.3v-2.1h4.6v-1.9h-4.6v-2h5.3v-1.9h-7.4zm13.6 0v9.8h7.4v-1.9h-5.3v-2.1h4.6v-1.9h-4.6v-2h5.2v-1.9h-7.3zm12.9 0v2h2.9v7.8h2.2v-7.8h3v-2h-8.1z" fill="url(#e)"/></g></svg>