<svg width="68" height="42" fill="none" xmlns="http://www.w3.org/2000/svg"><mask id="a" style="mask-type:luminance" maskUnits="userSpaceOnUse" x="0" y="0" width="68" height="42"><path fill-rule="evenodd" clip-rule="evenodd" d="M0 0h68v42H0V0z" fill="#fff"/></mask><g mask="url(#a)"><path fill-rule="evenodd" clip-rule="evenodd" d="M66.59 32.003h-5.81c-.363-4.796-4.384-8.589-9.278-8.589s-8.915 3.793-9.278 8.59h-16.98c-.361-4.797-4.383-8.59-9.277-8.59-4.894 0-8.915 3.793-9.277 8.59H1.41V20.105a4.303 4.303 0 014.3-4.295h10.962v-1.408H9.834l5.553-10.987a3.642 3.642 0 013.266-2.008h3.237v7.926c0 3.572 2.91 6.477 6.486 6.477H60.88c3.149 0 5.71 2.558 5.71 5.703v10.49zm-15.088 8.589c-4.354 0-7.897-3.537-7.897-7.885s3.543-7.885 7.897-7.885 7.896 3.538 7.896 7.885c0 4.348-3.542 7.885-7.896 7.885zm-35.535 0c-4.354 0-7.896-3.537-7.896-7.885s3.542-7.885 7.896-7.885 7.897 3.538 7.897 7.885c0 4.348-3.543 7.885-7.897 7.885zM42.26 2.346l7.631 12.057H28.376A5.078 5.078 0 0123.3 9.334V1.408h17.255c.695 0 1.333.35 1.704.938zM68 21.514c0-3.921-3.194-7.11-7.121-7.11h-9.32L43.45 1.593A3.41 3.41 0 0040.555 0H18.653a5.044 5.044 0 00-4.525 2.781L8.255 14.403H5.71c-3.15 0-5.71 2.558-5.71 5.702v13.306h6.69C7.052 38.207 11.073 42 15.967 42c4.894 0 8.915-3.793 9.278-8.589h16.98C42.587 38.207 46.608 42 51.502 42c4.894 0 8.915-3.793 9.277-8.589H68V21.513z" fill="#0B4595"/></g></svg>