<svg width="66" height="48" fill="none" xmlns="http://www.w3.org/2000/svg"><path fill-rule="evenodd" clip-rule="evenodd" d="M15.5 42.548a3.052 3.052 0 01-3.048-3.048 3.052 3.052 0 013.048-3.048 3.052 3.052 0 013.048 3.048 3.052 3.052 0 01-3.048 3.048m0-7.548a4.505 4.505 0 00-4.5 4.5c0 2.481 2.019 4.5 4.5 4.5s4.5-2.019 4.5-4.5-2.019-4.5-4.5-4.5m36 7.548a3.052 3.052 0 01-3.048-3.048 3.052 3.052 0 013.048-3.048 3.052 3.052 0 013.048 3.048 3.052 3.052 0 01-3.048 3.048m0-7.548a4.505 4.505 0 00-4.5 4.5c0 2.481 2.019 4.5 4.5 4.5s4.5-2.019 4.5-4.5-2.019-4.5-4.5-4.5" fill="#0B4595"/><path fill-rule="evenodd" clip-rule="evenodd" d="M60.279 38.571c-.36-4.472-4.07-8-8.582-8-4.512 0-8.221 3.528-8.582 8h-5.397v-32h13.238c1.29 0 2.49.647 3.21 1.729l2.651 3.986H46.082v5.445c0 3.712 2.985 6.731 6.653 6.731h11.853v14.11h-4.309zm-8.582 8c-3.97 0-7.201-3.268-7.201-7.285 0-4.018 3.23-7.286 7.201-7.286 3.97 0 7.201 3.268 7.201 7.286 0 4.017-3.23 7.285-7.201 7.285zm12.27-23.537H52.736c-2.89 0-5.24-2.38-5.24-5.303v-4.017h10.273l6.2 9.32zM36.307 38.57h-11.61c-.36-4.472-4.07-8-8.582-8-4.512 0-8.222 3.528-8.582 8h-6.12V1.43h34.894v37.14zm-20.192 8c-3.971 0-7.202-3.268-7.202-7.285 0-4.018 3.23-7.286 7.202-7.286 3.97 0 7.201 3.268 7.201 7.286 0 4.017-3.23 7.285-7.201 7.285zM66 24.141c0-.4-.117-.786-.338-1.118L55.337 7.503a5.257 5.257 0 00-4.381-2.36H37.718V0H0v40h7.532c.36 4.472 4.07 8 8.582 8 4.511 0 8.221-3.528 8.582-8h18.419c.36 4.472 4.07 8 8.582 8 4.511 0 8.221-3.528 8.582-8H66V24.141z" fill="#0B4595"/></svg>