<svg width="147" height="56" fill="none" xmlns="http://www.w3.org/2000/svg"><path fill-rule="evenodd" clip-rule="evenodd" d="M28 54.594c-4.187 0-7.594-3.407-7.594-7.594s3.407-7.594 7.594-7.594 7.594 3.407 7.594 7.594-3.407 7.594-7.594 7.594M28 38c-4.963 0-9 4.037-9 9s4.037 9 9 9 9-4.037 9-9-4.037-9-9-9" fill="#0B4595"/><path fill-rule="evenodd" clip-rule="evenodd" d="M28.5 50.548a3.052 3.052 0 01-3.048-3.048 3.052 3.052 0 013.048-3.048 3.052 3.052 0 013.048 3.048 3.052 3.052 0 01-3.048 3.048m0-7.548a4.505 4.505 0 00-4.5 4.5c0 2.481 2.019 4.5 4.5 4.5s4.5-2.019 4.5-4.5-2.019-4.5-4.5-4.5M49 54.594c-4.187 0-7.594-3.407-7.594-7.594s3.407-7.594 7.594-7.594 7.594 3.407 7.594 7.594-3.407 7.594-7.594 7.594M49 38c-4.963 0-9 4.037-9 9s4.037 9 9 9 9-4.037 9-9-4.037-9-9-9" fill="#0B4595"/><path fill-rule="evenodd" clip-rule="evenodd" d="M49.5 50.548a3.052 3.052 0 01-3.048-3.048 3.052 3.052 0 013.048-3.048 3.052 3.052 0 013.048 3.048 3.052 3.052 0 01-3.048 3.048m0-7.548a4.505 4.505 0 00-4.5 4.5c0 2.481 2.019 4.5 4.5 4.5s4.5-2.019 4.5-4.5-2.019-4.5-4.5-4.5M92 54.594c-4.187 0-7.594-3.407-7.594-7.594s3.407-7.594 7.594-7.594 7.594 3.407 7.594 7.594-3.407 7.594-7.594 7.594M92 38c-4.963 0-9 4.037-9 9s4.037 9 9 9 9-4.037 9-9-4.037-9-9-9" fill="#0B4595"/><path fill-rule="evenodd" clip-rule="evenodd" d="M92.5 50.548a3.052 3.052 0 01-3.048-3.048 3.052 3.052 0 013.048-3.048 3.052 3.052 0 013.048 3.048 3.052 3.052 0 01-3.048 3.048m0-7.548a4.505 4.505 0 00-4.5 4.5c0 2.481 2.019 4.5 4.5 4.5s4.5-2.019 4.5-4.5-2.019-4.5-4.5-4.5m41 7.548a3.051 3.051 0 01-3.048-3.048 3.051 3.051 0 013.048-3.048 3.051 3.051 0 013.048 3.048 3.051 3.051 0 01-3.048 3.048m0-7.548a4.505 4.505 0 00-4.5 4.5c0 2.481 2.019 4.5 4.5 4.5s4.5-2.019 4.5-4.5-2.019-4.5-4.5-4.5m-70.55 2.571c-.363-7.545-6.558-13.605-14.121-13.648l-22.404-.13h-.085c-3.782 0-7.338 1.48-10.023 4.174a14.301 14.301 0 00-4.176 9.462H1.416v-44h112.168v31.604h-23.39c-7.002 0-12.743 5.562-13.112 12.538H62.95zM115 34.462V0H0v46.857h13.54v-.714c0-3.466 1.34-6.72 3.776-9.163 2.435-2.444 5.655-3.784 9.1-3.759l22.405.13c7.02.04 12.73 5.837 12.73 12.921V47h16.928v-.714c0-6.52 5.255-11.824 11.715-11.824H115z" fill="#0B4595"/><path fill-rule="evenodd" clip-rule="evenodd" d="M142.198 46.236c-.359-4.664-4.236-8.35-8.952-8.35s-8.592 3.686-8.952 8.35h-3.959V12.415h13.51l4.504 7.076h-10.436v5.672c0 3.973 3.206 7.205 7.145 7.205h10.539v13.868h-3.399zm-8.952 8.349c-4.179 0-7.578-3.428-7.578-7.642 0-4.213 3.399-7.641 7.578-7.641s7.579 3.428 7.579 7.641c0 4.214-3.4 7.642-7.579 7.642zM104.079 40.15h14.852v6.085h-12.775c-.339-2.673-1.365-4.846-2.077-6.085zm41.518-9.198h-10.539c-3.165 0-5.741-2.597-5.741-5.79v-4.257h9.932l6.348 9.971v.076zm1.403-.49L134.612 11h-15.681v27.736H102.84a.722.722 0 00-.651.406l-.189.41.255.349c.229.313 2.252 3.177 2.57 7.1l.053.65h19.416c.36 4.664 4.236 8.349 8.952 8.349s8.593-3.685 8.952-8.35H147V30.463z" fill="#0B4595"/></svg>