<svg width="231" height="99" fill="none" xmlns="http://www.w3.org/2000/svg"><path d="M.009 52.2c.4 19.8 12 36.7 28.6 44.9l19.7-97c-27.4 1.4-48.8 24.4-48.3 52.1zm73.9 44.9c16.6-8.2 28.2-25.1 28.6-44.9.6-27.6-20.9-50.6-48.3-52.1l19.7 97z" fill="#fff"/><path fill-rule="evenodd" clip-rule="evenodd" d="M50.409 6.7V.8c0-.4.4-.8.8-.8s.8.4.8.8v5.9c0 .4-.4.8-.8.8s-.8-.4-.8-.8zm0 7.1v5.9c0 .4.4.8.8.8s.8-.4.8-.8v-5.9c0-.4-.4-.8-.8-.8s-.8.4-.8.8zm0 18.9v-5.9c0-.5.4-.8.8-.8s.8.4.8.8v5.9c0 .4-.4.8-.8.8s-.8-.4-.8-.8zm0 7.1v5.9c0 .4.4.8.8.8s.8-.4.8-.8v-5.9c0-.4-.4-.8-.8-.8s-.8.3-.8.8zm0 18.8v-5.9c0-.4.4-.8.8-.8s.8.4.8.8v5.9c0 .4-.4.8-.8.8s-.8-.4-.8-.8zm0 7.1v5.9c0 .4.4.8.8.8s.8-.4.8-.8v-5.9c0-.4-.4-.8-.8-.8s-.8.4-.8.8zm0 18.9v-5.9c0-.4.4-.8.8-.8s.8.4.8.8v5.9c0 .4-.4.8-.8.8s-.8-.4-.8-.8zm0 13v-5.9c0-.5.4-.8.8-.8s.8.4.8.8v5.9c0 .4-.4.8-.8.8s-.8-.4-.8-.8zm120.3-66.4c0-1.1.6-1.6 1.7-1.6v-.2h18.4c2.7 0 4.8.8 6.3 2.4.6.6 1 1.4 1.4 2.2.3.9.5 1.8.5 2.9 0 1.1-.3 2.1-.7 3-.4.9-1.1 1.6-1.9 2.2 1 .5 1.7 1.3 2.2 2.3.5 1 .7 2.1.7 3.3 0 .9-.2 1.8-.5 2.6s-.7 1.5-1.3 2.2c-.6.8-1.5 1.4-2.5 1.9s-2.3.7-3.8.7h-18.8c-1.1 0-1.7-.5-1.7-1.6V31.2zm6.9 5.4c0-.4.2-.6.5-.6h11.5c.5 0 .9.1 1.2.2.3.1.5.3.7.5.3.4.5.8.5 1.2 0 .5-.2.9-.5 1.2-.171.255-.341.366-.572.516a6.069 6.069 0 00-.128.084c-.3.1-.7.2-1.2.2h-12v-3.3zm0 11.8v-3.7h12c.5 0 .9.1 1.2.2.3.1.6.3.8.5.4.4.6.9.6 1.4 0 .5-.2 1-.5 1.4-.2.2-.5.4-.8.5-.3.1-.7.2-1.2.2h-11.4c-.5 0-.7-.2-.7-.5zm-63.6-18.2c1.1-.4 2.5-.6 4.2-.6v-.1h19.1v6.8h-18.5c-.4 0-.8 0-1 .1-.3.1-.4.2-.6.4-.3.3-.5.8-.5 1.3 0 .6.2 1 .6 1.4l.6.3c.2.1.5.1.9.1h11.3c1.5 0 2.7.2 3.7.6 1 .4 1.8 1 2.5 1.7s1.2 1.5 1.6 2.4c.4.9.6 1.9.6 2.9 0 .9-.2 1.8-.5 2.7-.4.8-.8 1.6-1.4 2.3-.7.8-1.5 1.4-2.6 1.9s-2.4.7-3.9.7h-20v-6.5h18.7c.5 0 .9-.1 1.2-.2.3-.1.5-.3.7-.5.3-.4.4-.7.4-1.2 0-.6-.1-1-.5-1.4-.2-.2-.4-.3-.7-.4-.3-.1-.7-.1-1.2-.1h-10.5c-1.8 0-3.1-.2-4.2-.6-1-.4-1.9-1-2.6-1.7-.7-.7-1.2-1.5-1.6-2.4-.4-.9-.6-1.8-.6-2.9 0-1 .2-2 .6-2.9.4-.9.9-1.7 1.6-2.4.7-.7 1.6-1.3 2.6-1.7zm26.9 16.6V29.6h6.9v16.6c0 .9.2 1.6.5 1.9.3.3.9.5 1.8.5h17.9v6.5h-18.7c-1.6 0-2.9-.2-4-.5-1.1-.4-2-.9-2.6-1.6-.7-.7-1.1-1.6-1.4-2.6-.3-1-.4-2.2-.4-3.6zm59.9-10.5v-6.7h29.5v6.7h-11.3v18.8h-6.9V36.3h-11.3zm-89.2 22.7c-.4.1-.8.3-1.1.6-.3.3-.5.6-.7.9-.2.4-.3.8-.3 1.2 0 .5.1.9.2 1.2.2.3.4.6.7.8.3.2.6.4 1 .6.2.05.425.125.65.2.225.075.45.15.65.2.4.1.7.2 1 .3.3.1.5.2.6.3l.3.3c.1.1.1.2.1.4 0 .3-.1.5-.4.7-.2.2-.6.2-1 .2-.6 0-1.1-.1-1.5-.3-.5-.2-.9-.5-1.4-.9l-1.3 1.5c.6.5 1.2.9 2 1.2.7.3 1.5.4 2.2.4.5 0 1-.1 1.5-.2.4-.1.8-.3 1.1-.6.3-.3.6-.6.7-1 .2-.4.3-.8.3-1.3 0-.4-.1-.8-.2-1.1-.1-.3-.3-.6-.6-.8-.3-.2-.6-.4-1-.6-.4-.2-.8-.3-1.3-.4-.4-.1-.8-.2-1-.3-.3-.1-.5-.2-.7-.3-.2-.1-.3-.2-.3-.3-.1-.1-.1-.3-.1-.4 0-.2.1-.4.3-.6.2-.2.5-.2.9-.2s.8.1 1.3.3c.4.2.8.4 1.3.7l1.1-1.6c-.5-.4-1.1-.7-1.7-.9-.6-.2-1.3-.3-2-.3-.4-.2-.8-.1-1.3.1zm10.6 9.7l4.2-9.9h2l4.2 9.9h-2.3l-.9-2.2h-4.1l-.9 2.2h-2.2zm6.5-4.1l-1.3-3.2-1.3 3.2h2.6zm9.6 4.1v-9.8h7.5v1.9h-5.3v2.1h4.7v2h-4.7v3.8h-2.2zm13.4-9.8v9.8h7.5v-1.9h-5.4v-2.1h4.7v-1.9h-4.7v-2h5.3v-1.9h-7.4zm17.8 9.8v-9.8h7.5v1.9h-5.3v2.1h4.6v2h-4.6v3.8h-2.2zm13.4-9.8v9.8h7.1v-2h-4.9v-7.8h-2.2zm12.9 9.8v-9.8h7.4v1.9h-5.3v2h4.6v1.9h-4.6v2.1h5.3v1.9h-7.4zm13.6-9.8v9.8h7.4v-1.9h-5.3v-2.1h4.6v-1.9h-4.6v-2h5.2v-1.9h-7.3zm12.9 2v-2h8.1v2h-3v7.8h-2.2v-7.8h-2.9z" fill="#fff"/></svg>