<svg width="62" height="48" fill="none" xmlns="http://www.w3.org/2000/svg"><path fill-rule="evenodd" clip-rule="evenodd" d="M14 42.62A2.624 2.624 0 0111.38 40 2.624 2.624 0 0114 37.38 2.624 2.624 0 0116.62 40 2.624 2.624 0 0114 42.62M14 36c-2.206 0-4 1.794-4 4s1.794 4 4 4 4-1.794 4-4-1.794-4-4-4m35 6.62A2.624 2.624 0 0146.38 40 2.624 2.624 0 0149 37.38 2.624 2.624 0 0151.62 40 2.624 2.624 0 0149 42.62M49 36c-2.206 0-4 1.794-4 4s1.794 4 4 4 4-1.794 4-4-1.794-4-4-4" fill="#0B4595"/><path fill-rule="evenodd" clip-rule="evenodd" d="M56.76 38.118c-.68-4.001-4.192-7.06-8.411-7.06-4.22 0-7.732 3.059-8.412 7.06h-17.59c-.68-4.001-4.192-7.06-8.411-7.06-4.22 0-7.732 3.059-8.412 7.06H1.422V4.833c0-1.886 1.546-3.421 3.446-3.421h45.405a4.47 4.47 0 014.235 3.012l1.868 5.458H41.431v5.382c0 5.005 4.101 9.076 9.143 9.076h10.004v13.778H56.76zm-8.411 8.47c-3.921 0-7.11-3.166-7.11-7.059 0-3.892 3.189-7.058 7.11-7.058 3.92 0 7.11 3.166 7.11 7.058 0 3.893-3.19 7.06-7.11 7.06zm-34.413 0c-3.921 0-7.11-3.166-7.11-7.059 0-3.892 3.189-7.058 7.11-7.058 3.92 0 7.11 3.166 7.11 7.058 0 3.893-3.19 7.06-7.11 7.06zm46.642-23.904v.245H50.573c-4.257 0-7.72-3.439-7.72-7.665v-3.97H56.86l3.547 10.363c.113.331.171.677.171 1.027zm1.175-1.481L55.855 3.97A5.89 5.89 0 0050.273 0H4.868C2.184 0 0 2.168 0 4.833V39.53h5.404c0 4.67 3.826 8.47 8.532 8.47 4.704 0 8.532-3.8 8.532-8.47h17.348c0 4.67 3.828 8.47 8.533 8.47 4.704 0 8.532-3.8 8.532-8.47H62V22.683c0-.505-.083-1.003-.247-1.481z" fill="#2D2377"/></svg>