<svg width="50" height="50" fill="none" xmlns="http://www.w3.org/2000/svg"><path d="M22.65 42.18h-1.56c0-1.72 1.4-3.12 3.12-3.12h8.6c.86 0 1.56-.7 1.56-1.56 0-.87-.7-1.57-1.56-1.57h-7.17l-8.6-3.12h-6.89v-1.56h7.17l8.59 3.12h6.9a3.126 3.126 0 010 6.25h-8.6c-.86 0-1.56.7-1.56 1.56z" fill="#87CEEB"/><path d="M29.09 50H27.2l-13.28-4.69h-3.77v-1.56h4.04l13.28 4.68h1.24l19.24-10c.22-.25.48-.66.48-.93 0-.83-.64-1.51-1.45-1.56L34.6 39.8l-.46-1.49 12.73-3.94c1.72 0 3.13 1.4 3.13 3.13 0 1.07-.91 2.01-1.01 2.11l-.2.14L29.09 50zM7.81 43.75H6.25v-1.57h1.56v1.57zm-3.13 0H3.12v-1.57h1.56v1.57z" fill="#87CEEB"/><path d="M9.37 46.87H0v-1.56h9.37V31.25H0v-1.57h9.37c.86 0 1.56.7 1.56 1.57v14.06c0 .86-.7 1.56-1.56 1.56zm39.06-20.31h-37.5V25h37.5v1.56zM21.87 16.4h-1.56V0h7.81v10.93h-1.56V1.56h-4.69V16.4zm12.5-5.47h-1.56V1.56h-1.56v9.37h-1.57V0h4.69v10.93zm6.25 6.25h-1.56V9.85l-1.56-.78v8.11h-1.57V6.54l4.69 2.35v8.29z" fill="#87CEEB"/><path d="M28.12 25.78h-1.56c0-3.13-2.81-6.25-6.25-6.25-3.45 0-6.25 3.12-6.25 6.25H12.5c0-4.69 3.5-7.82 7.81-7.82s7.81 3.13 7.81 7.82zM25 4.68h-1.57V3.12H25v1.56zm0 3.13h-1.57V6.25H25v1.56zm0 3.12h-1.57V9.37H25v1.56z" fill="#87CEEB"/><path d="M39.84 26.56c-3.88 0-7.03-3.16-7.03-7.03v-5.47H25v6.25h-1.57V12.5h10.94v7.03c0 3.01 2.45 5.47 5.47 5.47 2.82 0 4.99-2.34 5.4-4.69h-9.31v-1.56h10.94v.78c0 3.74-3.29 7.03-7.03 7.03z" fill="#87CEEB"/><path d="M33.59 17.18h-7.03v-1.56h7.03v1.56zm0 3.13h-5.47v-1.56h5.47v1.56zm11.72-3.13h-1.56v-3.12h-3.91V12.5h5.47v4.68zm-26.56 8.6h-1.57v-3.91h1.57v3.91zm3.12-2.35h-1.56v-1.56h1.56v1.56z" fill="#87CEEB"/></svg>