<svg width="53.333" height="50" fill="none" xmlns="http://www.w3.org/2000/svg"><path d="M43.33 20.83a.91.91 0 01-.4-.1.833.833 0 01-.43-.73v-1.67H26.66v-1.67h16.67c.46 0 .83.38.83.84v.98l6.78-4.32-6.78-4.31v.98c0 .46-.37.83-.83.83h-10V10h9.17V8.33c0-.3.16-.59.43-.73.26-.15.59-.14.85.03l9.16 5.83c.24.15.39.42.39.7 0 .29-.15.55-.39.71l-9.16 5.83c-.14.09-.3.13-.45.13zM9.99 50H8.33V31.66h1.66V50zm0-35H8.33v-1.67h1.66V15zm1.67 15h-7.5v-1.67h7.5V30zM4.99 50H3.33V30.83h1.66V50z" fill="#87CEEB"/><path d="M5 31.66H0v-17.5C0 11.86 1.86 10 4.16 10h27.5v1.66H4.16a2.5 2.5 0 00-2.5 2.5V30h1.67V16.66H5v15z" fill="#87CEEB"/><path d="M15 50h-1.67V17.5c0-2.3 1.87-4.17 4.17-4.17h23.33V15H17.5a2.5 2.5 0 00-2.5 2.5V50z" fill="#87CEEB"/><path d="M5 4.167a4.171 4.171 0 004.167 4.166 4.171 4.171 0 004.166-4.166A4.172 4.172 0 009.167 0 4.172 4.172 0 005 4.167zm1.667 0c0-1.379 1.121-2.5 2.5-2.5 1.378 0 2.5 1.121 2.5 2.5s-1.122 2.5-2.5 2.5a2.502 2.502 0 01-2.5-2.5z" clip-rule="evenodd" fill="#87CEEB" fill-rule="evenodd"/><path d="M44.16 17.5H42.5v-4.17h1.66v4.17zM35 35c-.14 0-.28-.04-.41-.11a.83.83 0 01-.43-.73V32.5h-17.5v-1.67H35c.46 0 .83.37.83.83v.98l6.78-4.31-6.78-4.32V25c0 .46-.37.83-.83.83H16.66v-1.67h17.5V22.5c0-.31.17-.59.43-.73.27-.15.59-.14.85.02l9.17 5.84a.823.823 0 010 1.4l-9.17 5.84c-.13.08-.29.13-.44.13z" fill="#87CEEB"/><path d="M35.83 31.66h-1.67V27.5h1.67v4.16zm-9.17 17.5c-.14 0-.27-.03-.4-.1a.833.833 0 01-.43-.73v-1.67h-9.17V45h10c.46 0 .84.37.84.83v.98l6.78-4.31-6.78-4.32v.98c0 .46-.38.84-.84.84h-10v-1.67h9.17v-1.67c0-.3.16-.58.43-.73.27-.15.59-.14.85.03l9.17 5.83c.24.16.38.42.38.71 0 .28-.14.55-.38.7l-9.17 5.83c-.14.09-.29.13-.45.13z" fill="#87CEEB"/><path d="M27.5 45.83h-1.67v-4.17h1.67v4.17zm-9.17-27.5h-1.67v-1.67h1.67v1.67zm3.33 0H20v-1.67h1.66v1.67zm3.34 0h-1.67v-1.67H25v1.67z" fill="#87CEEB"/></svg>