<svg width="50" height="50" fill="none" xmlns="http://www.w3.org/2000/svg"><path d="M28.9 45.31h-7.81V14.84h1.56v28.91h4.69V14.84h1.56v30.47zm0-36.72h-1.56V3.9a2.345 2.345 0 00-4.69 0v4.69h-1.56V3.9a3.905 3.905 0 017.81 0v4.69z" fill="#87CEEB"/><path d="M47.65 50H2.34v-.79a5.47 5.47 0 015.47-5.46h11.72v1.56H7.81c-1.89 0-3.47 1.34-3.83 3.12h42.03a3.907 3.907 0 00-3.83-3.12H30.46v-1.56h11.72a5.47 5.47 0 015.47 5.46V50zM25.78 4.68h-1.57V3.12h1.57v1.56z" fill="#87CEEB"/><path d="M19.531 11.719A5.476 5.476 0 0025 17.188a5.476 5.476 0 005.469-5.47A5.476 5.476 0 0025 6.25a5.476 5.476 0 00-5.469 5.469zm1.563 0A3.91 3.91 0 0125 7.813a3.91 3.91 0 013.906 3.906A3.91 3.91 0 0125 15.625a3.91 3.91 0 01-3.906-3.906z" clip-rule="evenodd" fill="#87CEEB" fill-rule="evenodd"/><path d="M47.65 14.06h-3.12V12.5h3.12c.43 0 .78-.35.78-.79 0-.43-.35-.78-.78-.78H29.68V9.37h17.97c1.29 0 2.35 1.05 2.35 2.34 0 1.3-1.06 2.35-2.35 2.35z" fill="#87CEEB"/><path d="M39.84 14.06H29.68V12.5h10.16v1.56zm-34.38 0H2.34a2.345 2.345 0 010-4.69h17.97v1.56H2.34c-.43 0-.78.35-.78.78 0 .44.35.79.78.79h3.12v1.56z" fill="#87CEEB"/><path d="M20.31 14.06H10.15V12.5h10.16v1.56z" fill="#87CEEB"/><path d="M0 27.344c0 4.308 3.505 7.812 7.813 7.812 4.307 0 7.812-3.504 7.812-7.812v-.782H0v.782zm7.813 6.25a6.26 6.26 0 01-6.201-5.469h12.402c-.386 3.078-3.02 5.469-6.201 5.469z" clip-rule="evenodd" fill="#87CEEB" fill-rule="evenodd"/><path d="M1.56 28.12c-.11 0-.22-.02-.32-.07a.786.786 0 01-.4-1.03l6.25-14.06c.18-.39.64-.57 1.03-.4.4.18.58.64.4 1.03L2.27 27.66c-.13.29-.41.46-.71.46z" fill="#87CEEB"/><path d="M14.06 28.12c-.3 0-.59-.17-.72-.46L7.09 13.59c-.17-.39.01-.85.4-1.03.4-.17.86 0 1.03.4l6.25 14.06c.18.4 0 .86-.4 1.03-.1.05-.21.07-.31.07z" fill="#87CEEB"/><path d="M34.375 27.344c0 4.308 3.505 7.812 7.813 7.812 4.307 0 7.812-3.504 7.812-7.812v-.782H34.375v.782zm7.813 6.25a6.26 6.26 0 01-6.201-5.469h12.402c-.386 3.078-3.02 5.469-6.202 5.469z" clip-rule="evenodd" fill="#87CEEB" fill-rule="evenodd"/><path d="M35.93 28.12c-.1 0-.21-.02-.31-.07a.77.77 0 01-.4-1.03l6.25-14.06a.79.79 0 011.03-.4c.39.18.57.64.4 1.03l-6.25 14.07c-.13.29-.42.46-.72.46z" fill="#87CEEB"/><path d="M48.43 28.12c-.3 0-.58-.17-.71-.46l-6.25-14.07c-.18-.39 0-.85.4-1.03.39-.17.85 0 1.03.4l6.25 14.06c.17.4-.01.86-.4 1.03-.1.05-.21.07-.32.07zM25.78 42.18h-1.57v-1.56h1.57v1.56zm0-3.12h-1.57V37.5h1.57v1.56zm0-3.13h-1.57v-1.56h1.57v1.56z" fill="#87CEEB"/></svg>