<svg width="50" height="50" fill="none" xmlns="http://www.w3.org/2000/svg"><path d="M17.969 7.031A7.039 7.039 0 0025 14.063a7.039 7.039 0 007.031-7.032A7.039 7.039 0 0025 0a7.039 7.039 0 00-7.031 7.031zm1.562 0A5.476 5.476 0 0125 1.563a5.476 5.476 0 015.469 5.468A5.476 5.476 0 0125 12.5a5.476 5.476 0 01-5.469-5.469z" clip-rule="evenodd" fill="#87CEEB" fill-rule="evenodd"/><path d="M32.03 37.5H17.96v-.79c0-3.46.94-6.71 1.76-9.59.71-2.44 1.37-4.75 1.37-6.81 0-4.5-1.51-9.08-1.52-9.13l1.48-.49c.06.19 1.6 4.86 1.6 9.62 0 2.28-.69 4.69-1.42 7.24-.77 2.68-1.56 5.44-1.69 8.38h10.91c-.13-2.94-.92-5.7-1.69-8.38-.73-2.55-1.42-4.96-1.42-7.24 0-4.76 1.54-9.43 1.6-9.62l1.48.49c-.01.05-1.52 4.63-1.52 9.13 0 2.06.66 4.37 1.37 6.81.82 2.88 1.76 6.13 1.76 9.59v.79z" fill="#87CEEB"/><path d="M38.51 41.95l-4.46-4.45H15.94l-4.46 4.45-1.1-1.1 4.92-4.92h19.39l4.92 4.92-1.1 1.1zM41.4 50H8.59v-3.91h1.56v2.34h29.69v-2.34h1.56V50z" fill="#87CEEB"/><path d="M7.813 46.875h34.374a3.128 3.128 0 003.126-3.125 3.128 3.128 0 00-3.126-3.125H7.813a3.128 3.128 0 00-3.125 3.125 3.128 3.128 0 003.125 3.125zM6.25 43.75c0-.862.7-1.563 1.563-1.563h34.374a1.564 1.564 0 010 3.126H7.813A1.565 1.565 0 016.25 43.75z" clip-rule="evenodd" fill="#87CEEB" fill-rule="evenodd"/><path d="M22.65 7.03h-1.56A3.91 3.91 0 0125 3.12v1.56c-1.3 0-2.35 1.05-2.35 2.35zm3.13 29.68h-1.57v-3.9h1.57v3.9zM50 50H0v-1.57h50V50z" fill="#87CEEB"/></svg>