<svg width="50" height="50" fill="none" xmlns="http://www.w3.org/2000/svg"><path d="M6.25 35.93H4.68v-8.49l-3.1-12.41c-.04-.15-.03-.3.02-.44l2.34-7.03c.06-.18.19-.34.36-.43L16.8.1c.24-.14.54-.14.78 0s.38.4.38.68v2.61l5 2.14c.09.04.17.09.24.16l7.82 7.82c.23.23.29.6.14.9l-1.56 3.12c-.16.33-.53.5-.89.41l-9.09-2.27-4.43 2.21-.7-1.4 4.69-2.34c.16-.08.36-.11.54-.06l8.76 2.19 1.03-2.06-7.3-7.31-5.34-2.28a.792.792 0 01-.47-.72V2.11L5.33 8.34l-2.18 6.53 3.07 12.28c.02.06.03.13.03.19v8.59z" fill="#87CEEB"/><path d="M25 35.93h-1.57v-6.74L11.12 14.56l1.19-1.01 12.5 14.85c.12.14.19.32.19.5v7.03zM20.31 8.59h-1.56V7.03h1.56v1.56zm-4.69 27.34h-1.56v-1.56h1.56v1.56zm-3.12 0h-1.57v-1.56h1.57v1.56zm6.25 0h-1.57v-1.56h1.57v1.56z" fill="#87CEEB"/><path d="M0 50h29.688v-6.25a3.128 3.128 0 00-3.125-3.125V37.5H3.125v3.125A3.128 3.128 0 000 43.75V50zm1.563-1.563h26.562V43.75c0-.862-.7-1.563-1.563-1.563H25v-3.124H4.687v3.124H3.125c-.862 0-1.563.701-1.563 1.563v4.688z" clip-rule="evenodd" fill="#87CEEB" fill-rule="evenodd"/><path d="M23.43 42.18H6.25v-1.56h17.18v1.56zM35.93 50h-1.56V39.84h5.47c2.15 0 3.91-1.75 3.91-3.91v-7.81h4.68v-.61l-4.68-10.16v-.17c0-8.61-7.01-15.62-15.63-15.62V0c9.42 0 17.09 7.61 17.19 17.01L50 27.17v2.51h-4.69v6.25c0 3.02-2.46 5.47-5.47 5.47h-3.91V50z" fill="#87CEEB"/><path d="M35.15 41.4h-2.34v-1.56h2.34v1.56zM28.12 1.56h-7.03V0h7.03v1.56z" fill="#87CEEB"/></svg>