<svg width="26" height="25" xmlns="http://www.w3.org/2000/svg"><path d="M21.629 21.302h-3.761V15.5c0-1.384-.025-3.165-1.956-3.165-1.96 0-2.26 1.508-2.26 3.064V21.3h-3.76V9.371h3.61v1.631h.05a3.93 3.93 0 011.512-1.448 4.006 4.006 0 012.051-.479c3.813 0 4.516 2.47 4.516 5.682l-.002 6.545zM5.648 7.742a2.21 2.21 0 01-1.213-.363 2.157 2.157 0 01-.804-.965 2.12 2.12 0 01.473-2.342 2.19 2.19 0 011.117-.589 2.22 2.22 0 011.261.122c.4.163.74.438.98.792A2.127 2.127 0 017.19 7.11a2.185 2.185 0 01-1.543.63zm1.88 13.56H3.763V9.372h3.765v11.93zM23.504.002H1.874A1.868 1.868 0 00.557.52C.207.859.006 1.321 0 1.804v21.392c.006.484.206.945.558 1.284a1.87 1.87 0 001.315.52h21.631c.492.006.967-.18 1.32-.519.352-.338.554-.8.56-1.285V1.802a1.815 1.815 0 00-.561-1.284A1.872 1.872 0 0023.504 0" fill="#12143E"/></svg>