<svg xmlns="http://www.w3.org/2000/svg" width="40.21" height="51.5"><defs><style>.a{fill:none;stroke:#87ceeb;stroke-miterlimit:10;stroke-width:1.5px}</style></defs><path class="a" d="M22.261 29.758l1.088.689a1.813 1.813 0 01.56 2.5 1.813 1.813 0 01-2.5.561l-.86-.507"/><path class="a" d="M24.201 26.698l2.874 1.821a1.812 1.812 0 01.56 2.5 1.812 1.812 0 01-2.5.56l-2.874-1.818"/><path class="a" d="M26.141 23.632l4.66 2.957a1.813 1.813 0 01.56 2.5 1.813 1.813 0 01-2.5.56l-4.66-2.951"/><path class="a" d="M26.141 23.636l6.43 4.087a1.82 1.82 0 002.5-.544 1.821 1.821 0 00-.565-2.54l-9.923-6.185h-1.99a2.177 2.177 0 00-1.615.611l-1.49 1.492a1.885 1.885 0 01-2.635.03 1.885 1.885 0 01-.021-2.7l3.273-3.424m14.221 9.674l.531-1.11.967-.547h1.359M9.144 28.006l-.076-.05a1.721 1.721 0 01-.529-2.379 1.721 1.721 0 012.377-.524l.081.052a1.72 1.72 0 01.523 2.377 1.72 1.72 0 01-2.376.524zm9.036 5.537l-.076-.051a1.721 1.721 0 01-.53-2.378 1.721 1.721 0 012.377-.524l.081.051a1.721 1.721 0 01.524 2.378 1.72 1.72 0 01-2.376.524z"/><path class="a" d="M12.058 29.867a1.768 1.768 0 01-.539-2.442l.828-1.3a1.77 1.77 0 012.443-.54 1.769 1.769 0 01.539 2.443l-.829 1.3a1.768 1.768 0 01-2.442.539z"/><path class="a" d="M15.039 31.77a1.77 1.77 0 01-.539-2.442l1.347-2.11a1.768 1.768 0 012.442-.54 1.768 1.768 0 01.539 2.442l-1.347 2.111a1.768 1.768 0 01-2.442.539zm2.656 17.67V35.428"/><path class="a" d="M.75 24.809v2.864a17.191 17.191 0 005.813 12.8L19.516 50.75h1.178l13.171-10.274a16.984 16.984 0 005.594-12.8V14.46H3.169"/><path class="a" d="M39.46 12.041v-3.6L20.695.749h-1.613L.75 8.442V22.43h6.736l1.152.559.678 1.476M22.534 49.44V35.428m-4.839-23.085V1.557m4.839 10.786V1.557"/></svg>