<?xml version="1.0" encoding="utf-8"?>
<!-- Generator: Adobe Illustrator 22.1.0, SVG Export Plug-In . SVG Version: 6.00 Build 0)  -->
<svg version="1.1" id="Слой_1" xmlns="http://www.w3.org/2000/svg" xmlns:xlink="http://www.w3.org/1999/xlink" x="0px" y="0px"
	 width="90px" height="81.8px" viewBox="0 0 90 81.8" style="enable-background:new 0 0 90 81.8;" xml:space="preserve">
<style type="text/css">
	.st0{fill:none;}
	.st1{fill:none;stroke:#E39734;stroke-width:6;stroke-linecap:round;stroke-linejoin:round;}
</style>
<g>
	<path class="st0" d="M-9.6-9.7h109v103h-109C-9.5,93.3-9.5-9.7-9.6-9.7z"/>
	<path class="st0" d="M-9.6-9.7h109v103h-109C-9.5,93.3-9.5-9.7-9.6-9.7z"/>
	<path class="st1" d="M81.7,76.1V15.2c0-4.3-3.6-7.7-8.2-7.7H16.8c-4.5,0-8.2,3.4-8.2,7.7v45.9c0,4.3,3.6,7.7,8.2,7.7h49.5
		L81.7,76.1z"/>
	<path class="st1" d="M44.9,53.8c-0.5,0-0.9,0.4-0.9,0.9c0,0.4,0.5,0.9,0.9,0.9s0.9-0.4,0.9-0.9C45.9,53.8,45.4,53.8,44.9,53.8"/>
	<path class="st1" d="M44.9,42.2V41c0-3.4,2.3-5.2,4.5-6.4c2.3-1.3,4.5-3,4.5-6.4c0-4.7-4.1-8.2-8.6-8.2s-9.1,3.4-9.1,8.2"/>
</g>
</svg>
