<svg 
 xmlns="http://www.w3.org/2000/svg"
 xmlns:xlink="http://www.w3.org/1999/xlink"
 width="118px" height="96px">
<path fill-rule="evenodd"  fill="rgb(227, 151, 52)"
 d="M49.066,0.554 C42.663,4.214 36.490,8.388 30.548,13.071 C24.600,17.759 19.403,22.962 14.945,28.674 C10.487,34.391 6.940,40.564 4.314,47.192 C1.683,53.826 0.370,60.797 0.370,68.111 C0.370,75.885 2.139,82.342 5.686,87.486 C9.228,92.630 14.655,95.202 21.975,95.202 C36.378,95.202 43.579,87.089 43.579,70.854 C43.579,65.598 42.550,60.170 40.493,54.565 C38.435,48.966 37.406,44.106 37.406,39.991 C37.406,31.991 38.548,25.647 40.836,20.958 C43.118,16.275 47.464,11.072 53.867,5.355 L49.066,0.554 ZM112.507,0.554 C106.104,4.214 99.931,8.388 93.989,13.071 C88.042,17.759 82.844,22.962 78.386,28.674 C73.928,34.391 70.381,40.564 67.755,47.192 C65.125,53.826 63.812,60.797 63.812,68.111 C63.812,75.885 65.580,82.342 69.127,87.486 C72.669,92.630 78.097,95.202 85.416,95.202 C99.819,95.202 107.020,87.089 107.020,70.854 C107.020,65.598 105.992,60.170 103.934,54.565 C101.877,48.966 100.848,44.106 100.848,39.991 C100.848,31.991 101.989,25.647 104.277,20.958 C106.560,16.275 110.905,11.072 117.308,5.355 L112.507,0.554 Z"/>
</svg>