<svg width="1920" height="1406" xmlns="http://www.w3.org/2000/svg" xmlns:xlink="http://www.w3.org/1999/xlink"><defs><path id="path-1" d="M.852.232h12.754v12.631H.852z"/><path id="path-3" d="M.035.724h35.617v37.012H.035z"/></defs><g id="Page-1" stroke="none" stroke-width="1" fill="none" fill-rule="evenodd"><g id="Home---blue-white" transform="translate(0 777)"><g id="back" transform="translate(0 -777)"><path d="M657.53 421.865c.437.235.946.155 1.245-.181l101.43-102.758a4.12 4.12 0 001.576.317 4.225 4.225 0 004.219-4.236 4.225 4.225 0 00-4.22-4.236 4.187 4.187 0 00-3.01 1.293l-53.438-21.013a7.37 7.37 0 00.196-1.637c0-4.087-3.295-7.414-7.366-7.414-4.066 0-7.374 3.327-7.374 7.414 0 2.772 1.542 5.16 3.79 6.425l-37.504 124.737c-.12.268-.065.497-.036.622.066.277.237.511.493.667zm38.995-125.252a7.37 7.37 0 001.637.198c2.769 0 5.15-1.548 6.407-3.813l53.17 20.886c-.1.36-.172.731-.172 1.123 0 1.007.369 1.918.955 2.647l-98.265 99.568 36.268-120.61z" id="Fill-1" fill="#F4F6F7"/><path d="M1152.866 1234.198a1.006 1.006 0 00-.823-.173 1.004 1.004 0 00-.666.504l-20.992 39.496a5.245 5.245 0 00-1.21-.153c-2.855 0-5.175 2.272-5.175 5.065 0 2.792 2.32 5.063 5.174 5.063 2.624 0 4.775-1.923 5.108-4.4l71.777-4.244a.992.992 0 00.898-.696.962.962 0 00-.358-1.067l-53.733-39.395zm-18.708 43.443a5.061 5.061 0 00-1.951-2.792l20.4-38.39 50.604 37.102-69.053 4.08z" id="Fill-3" fill="#F4F6F7"/><path d="M762.808 256c2.653 0 4.809-2.141 4.809-4.774a4.76 4.76 0 00-.1-.966l98.397-44.38c1.365 2.142 3.754 3.575 6.49 3.575 4.243 0 7.693-3.423 7.693-7.638 0-.223-.047-.43-.065-.646l123.685-27.832c1.01 2.534 3.482 4.341 6.386 4.341 3.814 0 6.897-3.078 6.897-6.85 0-3.769-3.083-6.83-6.897-6.83a6.845 6.845 0 00-6.793 5.976l-220.495 5.835a4.932 4.932 0 00-4.785-3.729c-2.722 0-4.94 2.19-4.94 4.89 0 1.99 1.21 3.705 2.936 4.472l-13.311 65.032c-2.61.05-4.715 2.146-4.715 4.75 0 2.633 2.154 4.774 4.808 4.774zm3.822-7.636a4.804 4.804 0 00-1.846-1.467l13.322-65.027a4.938 4.938 0 004.295-2.664l14.524 3.825 67.879 17.875c-.037.302-.093.6-.093.91 0 .76.145 1.478.355 2.172l-98.436 44.376zm232.828-76.2l-119.877 26.957a7.674 7.674 0 00-7.178-4.944 7.691 7.691 0 00-7.095 4.685l-79.954-21.038 214.104-5.66z" id="Fill-5" fill="#F4F6F7"/><path d="M1115.412 1309c-3.845 0-7.055 2.573-8.097 6.08l-121.433-20.011c.003-.095.03-.183.03-.275 0-3.898-2.752-7.156-6.415-7.95l3.078-36.062 92.452 32.31c.448.13.892-.014 1.094-.31l89.013-100.238a7.134 7.134 0 003.69 1.045c3.962 0 7.176-3.218 7.176-7.182 0-3.979-3.214-7.193-7.176-7.193a7.184 7.184 0 00-7.191 7.193c0 .286.052.556.083.834l-177.202 50.82 5.294-62.026c3.754-.23 6.742-3.325 6.742-7.138 0-3.977-3.216-7.193-7.176-7.193-3.854 0-6.96 3.022-7.157 6.824l-204.267 19.806a4.434 4.434 0 00-4.191-2.988 4.421 4.421 0 00-2.963 1.143l-109.345-74.776c.33-.73.52-1.535.52-2.388 0-3.25-2.636-5.87-5.884-5.87a5.868 5.868 0 00-5.867 5.87 5.81 5.81 0 001.11 3.413l-53.129 55.158a6.873 6.873 0 00-7.9-.043l-59.357-62.753a5.915 5.915 0 001.176-3.52c0-3.282-2.668-5.935-5.949-5.935-.538 0-1.05.094-1.546.23l-46.518-97.418a7.448 7.448 0 003.332-6.207 7.462 7.462 0 00-4.506-6.85l49.106-180.96c.045.002.088.015.132.015 1.136 0 2.158-.43 2.957-1.113l30.203 25.715c-.147.245-.303.485-.418.755a6.414 6.414 0 003.377 8.424c3.261 1.395 7.04-.11 8.434-3.37a6.444 6.444 0 00-3.386-8.446c-2.305-.986-4.847-.49-6.64 1.023l-30.314-25.78a4.56 4.56 0 00.361-1.785c0-.426-.075-.83-.182-1.22l79.037-43.54a8.017 8.017 0 0014.483-4.75c0-4.443-3.596-8.04-8.018-8.04-.91 0-1.769.183-2.585.46L530.793 565.39a8.318 8.318 0 003.73-6.943c0-3.713-2.419-6.814-5.759-7.907l25.256-132.029c2.225-.145 3.973-1.987 3.973-4.217 0-.317-.04-.625-.105-.923l60.04-30.3a7.409 7.409 0 0013.484-4.241c0-4.097-3.316-7.427-7.412-7.427-2.212 0-4.18.991-5.54 2.533l-60.712-39.897c.149-.434.245-.889.245-1.37a4.243 4.243 0 00-4.247-4.246c-.41 0-.8.079-1.176.19l-20.448-34.553c.218-.184.442-.36.64-.578a6.413 6.413 0 00-.456-9.063c-2.63-2.379-6.693-2.187-9.07.443a6.442 6.442 0 00.454 9.086c1.86 1.683 4.426 2.043 6.615 1.196l20.46 34.518a4.233 4.233 0 00-1.26 3.006c0 .875.271 1.688.728 2.365l-70.516 78.58a5.751 5.751 0 00-3.036-.875c-.996 0-1.922.278-2.744.727l-47.354-36.143 18.175-19.097a6.399 6.399 0 006.05.306c3.207-1.515 4.588-5.343 3.075-8.546-1.514-3.21-5.355-4.588-8.56-3.07a6.411 6.411 0 00-3.666 6.074l-31.66 11.676-93.788-71.583a8.296 8.296 0 001.474-4.724 8.342 8.342 0 00-8.35-8.358c-4.608 0-8.34 3.732-8.34 8.358a8.336 8.336 0 008.34 8.339c2.062 0 3.92-.772 5.376-2.003l92.853 70.868-56.666 20.898c-1.626-2.948-5.274-4.184-8.357-2.726-3.207 1.515-4.568 5.349-3.049 8.557.886 1.879 2.57 3.1 4.45 3.508l9.973 55.142a1.175 1.175 0 001.16.974c.324 0 .636-.127.866-.372l69.124-72.624 47.15 35.986c-.81.998-1.314 2.251-1.314 3.634 0 3.201 2.6 5.803 5.782 5.803 2.96 0 5.362-2.213 5.729-5.06l67.316-3.722c.21.658.559 1.254 1.037 1.733L438.86 607.908a5.048 5.048 0 00-1.603-.283 5.1 5.1 0 00-5.088 5.09c0 .64.13 1.249.35 1.815l-37.862 24.445a8.538 8.538 0 00-2.947-2.277l44.64-140.137c.298.04.598.09.907.09a6.41 6.41 0 006.412-6.417c0-3.55-2.867-6.433-6.412-6.433a6.437 6.437 0 00-6.432 6.433c0 2.49 1.435 4.62 3.506 5.683l-44.608 140.138a8.386 8.386 0 00-1.573-.16c-2.453 0-4.65 1.055-6.209 2.718l-34.19-13.122c.056-.28.124-.559.143-.853a6.41 6.41 0 00-5.983-6.82c-3.54-.23-6.603 2.442-6.834 5.982a6.439 6.439 0 005.995 6.841c2.503.165 4.735-1.148 5.927-3.174l33.688 12.907c-.66 1.212-1.072 2.582-1.072 4.06 0 4.708 3.827 8.54 8.535 8.54.216 0 .419-.049.63-.065l28.178 140.394a4.72 4.72 0 00-2.788 4.3c0 1.319.534 2.508 1.397 3.368l-25.827 41.592c-.5-.176-1.03-.29-1.59-.29a4.836 4.836 0 00-4.84 4.841c0 .258.038.509.075.755l-81.717 29.404 13.456-17.925c.17-.193.261-.444.252-.712a1.052 1.052 0 00-.133-.471c-.18-.344-.572-.564-.986-.552l-112.359 5.761L94.534 750.34c.177-.239.36-.47.51-.737a6.41 6.41 0 00-2.51-8.718c-3.101-1.72-7.016-.605-8.73 2.5a6.437 6.437 0 002.513 8.742c2.182 1.21 4.748.98 6.683-.326l106.141 111.715-59.443 3.046c-.636-2.787-3.157-4.828-6.117-4.737-3.362.11-5.992 2.926-5.887 6.29.105 3.349 2.91 6.017 6.272 5.908a6.02 6.02 0 001.393-.223l61.261 131.68c-1.61 1.067-2.736 2.827-2.872 4.903-.23 3.541 2.458 6.612 5.997 6.841 3.54.231 6.589-2.461 6.821-6.002.123-1.878-.588-3.604-1.8-4.859l94.598-126.025 84.766-30.52a4.825 4.825 0 004.02 2.138c.067 0 .132-.018.202-.02l31.37 118.37a4.228 4.228 0 00-2.106 3.02l-37.771 10.157c-.12-.26-.23-.522-.385-.771a6.405 6.405 0 00-8.849-1.997c-2.997 1.895-3.901 5.86-2.009 8.86 1.895 3 5.873 3.9 8.87 2.004 2.12-1.34 3.157-3.717 2.927-6.055l37.416-10.088a4.22 4.22 0 003.98 2.8 4.238 4.238 0 004.24-4.242c0-1.998-1.393-3.668-3.252-4.118l-2.725-164.652 50.806 170.267c-2.558 1.185-4.34 3.76-4.34 6.759a7.463 7.463 0 004.607 6.89l-12.5 48.83c-.252-.024-.499-.074-.758-.074-4.013 0-7.277 3.266-7.277 7.276 0 1.09.257 2.114.689 3.042l-75.222 32.789c-.16-.244-.31-.493-.507-.72a6.4 6.4 0 00-9.045-.642c-2.68 2.324-2.98 6.384-.656 9.06.398.46.86.823 1.343 1.14l-3.136 34.946a9.597 9.597 0 00-1.753.199 9.368 9.368 0 00-7.2 11.137c.213.996.612 1.896 1.097 2.732l-120.975 76.393c-.193-.217-.381-.44-.61-.634a6.408 6.408 0 00-9.04.739c-2.297 2.704-1.977 6.761.726 9.057a6.434 6.434 0 009.062-.739c1.619-1.908 1.902-4.477.994-6.635l121.08-76.494c2.176 2.338 5.46 3.535 8.805 2.817 5.07-1.092 8.31-6.102 7.224-11.177-.807-3.757-3.767-6.485-7.305-7.208l3.053-34.245c1.948.462 4.08.03 5.706-1.381 1.89-1.638 2.555-4.132 1.986-6.405l75.544-32.96c1.334 1.5 3.257 2.466 5.417 2.466 1.348 0 2.592-.392 3.673-1.03l108.77 135.243a5 5 0 00-1.153 3.176 5.04 5.04 0 005.054 5.04c1.834 0 3.422-.99 4.304-2.456l72.443 24.758a6.958 6.958 0 00-.129 1.274 7.06 7.06 0 007.058 7.07c2.549 0 4.756-1.353 5.996-3.37l137.263 58.322c-.034.214-.066.43-.066.654a4.25 4.25 0 004.242 4.244c1.068 0 2.03-.406 2.773-1.053l62.868 43.536a5.14 5.14 0 004.729 7.143c2.561 0 4.672-1.886 5.057-4.34l226.319-11.694c.7 3.973 4.154 7.017 8.338 7.017 4.69 0 8.486-3.818 8.486-8.491a8.486 8.486 0 00-8.486-8.493zM442.219 355.323c.022.048.03.1.053.148.201.426.45.815.724 1.173l-18.306 19.232-12.451-9.501 29.98-11.052zm-86.388 92.894l-9.462-52.371c.56-.098 1.117-.242 1.658-.497 2.582-1.22 3.95-3.94 3.604-6.627l58.172-21.45 13.368 10.202-67.34 70.743zm-43.697 411.604l-14.07 18.748-53.857 19.379a9.465 9.465 0 00-.964-1.563c-2.92-3.811-8.165-4.72-12.198-2.324l-27.249-28.689 108.338-5.55zm-109.041 145.276a6.394 6.394 0 00-2.508-.696c-.715-.047-1.397.053-2.054.226L137.266 872.91a6.1 6.1 0 002.523-4.257l61.252-3.138 28.328 29.816c-3.44 3.265-3.982 8.64-1.036 12.484 3.156 4.12 9.069 4.906 13.186 1.75 3.03-2.323 4.226-6.13 3.4-9.62l50.841-18.306-92.667 123.46zm452.027 99.997l.878 57.412.733 49a7.01 7.01 0 00-3.416 1.614l-53.239-45.932a6.82 6.82 0 001.07-3.647c0-1.578-.549-3.016-1.438-4.177l53.134-55.155c.674.45 1.45.748 2.278.885zm-65.858 63.228l-12.912 16.965a4.975 4.975 0 00-2.133-.491 5 5 0 00-1.215.163l-42.843-87.646 58.637 61.999c-.908 1.169-1.472 2.624-1.472 4.229 0 1.86.743 3.54 1.938 4.78zm186.788 15.276c.353-.212.674-.465.955-.763l147.324 83.037 45.907 25.876a8.24 8.24 0 00-.418 1.352l-160.32-12.708a4.218 4.218 0 00-4.17-3.505c-.068 0-.133.015-.2.019l-15.572-49.937-13.506-43.37zm33.276 98.9l117.927 9.346 42.425 3.366c.02.409.04.817.12 1.208l-89.701 30.825c-.9-1.506-2.524-2.525-4.399-2.525a5.099 5.099 0 00-3.528 1.425l-62.875-43.549c.013-.03.02-.063.03-.095zm352.913-103.22a7.147 7.147 0 001.267 1.926l-88.488 99.656-92.258-32.241 1.561-18.304 177.918-51.037zm-205.39 58.92l25.31-7.26-1.448 16.966-23.843-8.333c.024-.197.06-.392.06-.598 0-.265-.04-.521-.08-.775zm-.74-1.991c-.917-1.424-2.505-2.375-4.318-2.375a5.143 5.143 0 00-5.137 5.141 5.142 5.142 0 005.137 5.139c1.883 0 3.516-1.031 4.412-2.547l24.322 8.5-3.13 36.624a8.093 8.093 0 00-6.111 3.24l-193.253-108.935c.052-.185.092-.375.12-.569l204.263-19.805a7.166 7.166 0 005.311 5.249l-5.37 62.81-26.247 7.528zm-186.512-57.99a4.421 4.421 0 00-.298 1.57c0 .128.027.246.035.368l-105.176 35.104a7.007 7.007 0 00-5.318-3.772l-.186-12.26-1.418-94.15a5.881 5.881 0 003.036-1.63l109.325 74.77zM420.382 793.142l5.058-50.949 12.371-124.445.093-.01 4.038 11.496 31.148 88.776c-3.139 1.52-5.318 4.701-5.318 8.428a9.348 9.348 0 002.674 6.544l-49.473 60.403a4.804 4.804 0 00-.591-.243zm103.913-7.43l-20.86-27-19.725-25.545a9.369 9.369 0 002.847-6.729 9.382 9.382 0 00-5.759-8.67l44.075-151.114c.085.013.171.014.255.025V785.43c-.288.07-.568.162-.833.283zm-1.442-219.622l-44.078 151.113a9.3 9.3 0 00-1.593-.16c-.722 0-1.418.096-2.096.25L439.89 617.046c1.463-.896 2.453-2.497 2.453-4.33a5.02 5.02 0 00-.31-1.685l77.659-47.391c.841 1.05 1.909 1.907 3.16 2.452zM475.15 973.992l2.95-238.247a9.273 9.273 0 003.922-1.294l40.603 52.564a4.53 4.53 0 00-1.03 2.863c0 1.73.979 3.224 2.404 4.001l-48.85 180.113zm136.44-240.307a8.026 8.026 0 00-3.582 6.684c0 1.032.212 2.01.568 2.916l-79.028 43.526a4.528 4.528 0 00-2.319-1.376V566.68a8.383 8.383 0 001.66-.383l82.7 167.388zm-130.325-318.67l70.543-78.599c.282.148.582.269.899.352v73.427a4.242 4.242 0 00-3.116 3.264l-67.286 3.717a5.75 5.75 0 00-1.04-2.16zm135.733-33.829l-60.067 30.32a4.19 4.19 0 00-2.13-1.309v-73.431a4.204 4.204 0 001.802-.975l60.699 39.89a7.362 7.362 0 00-.726 3.149c0 .828.168 1.611.422 2.356zM551.59 420.06l-24.883 130.083c-.18-.011-.351-.052-.536-.052-4.606 0-8.338 3.729-8.338 8.356 0 1.217.273 2.363.742 3.406l-40.05 24.442-37.586 22.933c-.087-.093-.18-.176-.275-.261L551.59 420.06zM396.683 644.434c0-1.332-.332-2.575-.878-3.7L433.65 616.3c.569.57 1.281.989 2.066 1.24l-17.184 172.987L390.83 652.5c3.388-1.132 5.852-4.299 5.852-8.065zm-6.305 206.96a4.804 4.804 0 002.61-4.28 4.818 4.818 0 00-1.453-3.455l25.816-41.592c.183.064.361.132.554.173l2.696 163.163-30.223-114.01zm30.83-49.681c1.429-.815 2.408-2.339 2.408-4.11 0-1.087-.387-2.08-1.01-2.88l23.77-29.026 25.706-31.378c1.156.75 2.492 1.219 3.925 1.4l-2.974 239.165c-.045.006-.094.008-.14.015l-51.686-173.186zm51.966 187.913c.268.031.53.083.808.083.775 0 1.511-.152 2.215-.372l46.523 97.43c-.28.198-.545.416-.784.661l-57.535-39.096c.465-.958.75-2.022.75-3.16a7.276 7.276 0 00-4.48-6.715l12.503-48.83zm-9.983 60.481c.011-.01.019-.023.03-.035l57.53 39.108a5.936 5.936 0 00-.513 2.4c0 3.283 2.65 5.952 5.933 5.952a5.87 5.87 0 001.612-.247l41.354 84.577-105.946-131.755zm116.004 140.32c.021-.194.059-.388.059-.59a4.992 4.992 0 00-1.232-3.267l12.927-16.993c.978.53 2.08.86 3.274.86 1.704 0 3.25-.642 4.458-1.663l53.254 45.931c-.102.161-.187.337-.276.509l-72.464-24.787zm85.513 29.787a7.041 7.041 0 00.245-1.76 7.01 7.01 0 00-.121-1.204l105.157-35.088a4.443 4.443 0 003.77 2.09c.09 0 .179-.023.27-.03l.265.853 28.813 92.454a4.25 4.25 0 00-1.13 1.023l-137.269-58.338zm218.392 108.21l87.409-30.032c1.332 2.68 4.07 4.543 7.264 4.543 3.673 0 6.745-2.458 7.754-5.803l120.112 19.802-222.539 11.49z" id="Fill-7" fill="#F4F6F7"/><path d="M1904.826 692.451c-2.513 1.187-3.868 3.8-3.617 6.42l-142.692 27.111a9.342 9.342 0 00-2.65-4.672c-2.719-2.596-6.579-3.2-9.866-1.925l-28.042-51.231c1.76-1.868 2.313-4.683 1.153-7.14-1.515-3.21-5.358-4.59-8.562-3.072-2.29 1.083-3.614 3.353-3.645 5.732l-154.88 23.936c-1.209-2.784-3.97-4.732-7.187-4.732-.306 0-.594.055-.892.09l-17.446-68.93c1.686-.832 2.86-2.558 2.86-4.57 0-.385-.05-.756-.132-1.114l62.173-11.75c.105.283.204.566.35.838a6.402 6.402 0 008.689 2.6c3.118-1.684 4.299-5.581 2.614-8.703-.787-1.46-2.07-2.473-3.524-2.987l13.137-31.789c.32.074.64.146.977.17a6.406 6.406 0 006.85-5.948c.113-1.579-.376-3.05-1.24-4.237l28.58-39.255c1.589.33 3.231.509 4.915.509 13.247 0 24.038-10.782 24.038-24.058a23.9 23.9 0 00-3.16-11.878l33.516-46.032 98.174 106.644c.234.265.556.387.88.387.23 0 .478-.077.697-.232.475-.356.632-1.02.338-1.543l-74.836-132.575a1.122 1.122 0 00-.744-.553l-3.562-.9 28.652-39.353c3.371 1.177 7.258.398 9.88-2.353 3.581-3.758 3.442-9.728-.313-13.31-3.753-3.584-9.696-3.424-13.277.333a9.38 9.38 0 00.315 13.272c.435.415.904.768 1.393 1.085l-28.938 39.749-47.533-12.005c.716-3.132-.148-6.548-2.635-8.92-3.751-3.584-9.698-3.425-13.277.333a9.376 9.376 0 00.317 13.27c3.232 3.089 8.094 3.41 11.665 1.037l31.291 33.99-33.267 45.69c-4.358-6.157-11.52-10.193-19.614-10.193-13.245 0-24.016 10.778-24.016 24.057 0 10.765 7.085 19.89 16.824 22.955l-27.893 38.313c-.9-.607-1.947-1.018-3.107-1.1-3.538-.252-6.62 2.423-6.872 5.962-.173 2.456 1.074 4.659 3.028 5.877l-13.297 32.239c-1.042-.005-2.097.212-3.076.742-2.191 1.18-3.383 3.458-3.334 5.79l-62.704 11.876c-.929-1.22-2.383-2.024-4.028-2.024-.264 0-.516.039-.767.078l-45.098-120.104c2.383-1.294 4.02-3.785 4.02-6.69 0-4.229-3.43-7.646-7.656-7.646a7.616 7.616 0 00-5.358 2.204l-66.866-51.18a5.84 5.84 0 00.685-2.706c0-1.365-.48-2.606-1.252-3.608l113.44-111.456c.212.152.41.315.643.445 3.1 1.72 7 .603 8.717-2.503 1.72-3.104.61-7.019-2.488-8.74a6.376 6.376 0 00-3.586-.779l-13.181-100.148c.234-.071.473-.127.705-.227a6.414 6.414 0 003.296-8.456c-1.423-3.251-5.208-4.742-8.453-3.318a6.445 6.445 0 00-3.308 8.478c1.023 2.337 3.271 3.73 5.662 3.813l13.238 100.372c-1.276.542-2.394 1.47-3.116 2.773-1.228 2.22-.981 4.836.381 6.784l-113.497 111.55a5.91 5.91 0 00-3.149-.917c-.913 0-1.77.222-2.539.59l-102.954-143.48c1.75-1.61 2.861-3.897 2.861-6.452 0-4.875-3.926-8.824-8.8-8.824-4.839 0-8.783 3.949-8.783 8.824 0 4.783 3.85 8.677 8.609 8.773l6.575 66.355a5.72 5.72 0 00-2.903 1.98L1074.97 229.157c.101-.387.172-.785.172-1.203a4.758 4.758 0 00-4.754-4.759c-2.14 0-3.924 1.437-4.512 3.387l-169.52 5.14a.996.996 0 00-.331 1.924l129.472 50.302a4.97 4.97 0 00-.365 1.86c0 2.803 2.268 5.075 5.056 5.075.156 0 .306-.032.46-.046l56.071 180.685-209.723-137.196c.199-.6.333-1.229.333-1.896 0-3.367-2.736-6.085-6.102-6.085-3.346 0-6.095 2.718-6.095 6.085 0 .484.07.948.178 1.4l-46.548 19.92v-57.115a5.079 5.079 0 004.068-4.976c0-2.787-2.273-5.059-5.073-5.059a5.065 5.065 0 00-5.053 5.06c0 .9.254 1.735.664 2.469l-50.18 43.036a.994.994 0 00-.09 1.428l25.553 28.043-58.534 25.05c-.823-1.097-2.122-1.818-3.593-1.818a4.52 4.52 0 00-4.525 4.513 4.519 4.519 0 004.525 4.51 4.455 4.455 0 002.746-.96l139.842 112.19c-.536.947-.867 2.03-.867 3.196a6.525 6.525 0 006.53 6.535c3.413 0 6.171-2.613 6.47-5.948l202.806-34.102c.869 2.3 3.068 3.942 5.676 3.942 2.438 0 4.533-1.449 5.504-3.527l238.886 56.575c-.021.243-.072.478-.072.725 0 3.258 2.088 6.016 4.991 7.062l-28.201 136.888c-.28-.023-.548-.084-.834-.084-5.157 0-9.334 4.18-9.334 9.356 0 5.142 4.177 9.32 9.334 9.32 5.152 0 9.33-4.178 9.33-9.32 0-.809-.133-1.578-.325-2.326l112.9-43.272a6.32 6.32 0 004.66 3.088l9.928 282.064a5.133 5.133 0 00-3.225 2.442l-96.272-53.578c.182-.615.311-1.253.311-1.924 0-3.748-3.05-6.803-6.795-6.803-3.747 0-6.777 3.055-6.777 6.803 0 1.983.863 3.754 2.218 4.999l-56.831 116.17c-4.13-3.347-9.385-5.364-15.103-5.364-13.245 0-24.018 10.806-24.018 24.082 0 11.348 7.93 20.868 18.537 23.36l-33.96 69.422a7.853 7.853 0 00-1.862-.248 7.874 7.874 0 00-7.875 7.879c0 3.045 1.75 5.66 4.28 6.969l-12.389 96.856a7.87 7.87 0 00-1.265.092 7.817 7.817 0 00-6.37 9.039c.737 4.263 4.781 7.134 9.035 6.395 4.259-.738 7.124-4.8 6.39-9.061-.539-3.102-2.84-5.434-5.688-6.201l12.301-96.37a7.92 7.92 0 001.58.159c1.527 0 2.942-.458 4.15-1.21l52.306 63.21c-1.15 1.274-1.87 2.944-1.87 4.792 0 3.961 3.218 7.182 7.178 7.182 3.963 0 7.174-3.22 7.174-7.182 0-.986-.2-1.924-.56-2.782l126.712-77.04a5.559 5.559 0 004.136 1.85 5.614 5.614 0 005.167-3.403l59.931 3.447c.199 3.587 2.428 6.898 5.99 8.264 4.185 1.602 8.808-.01 11.186-3.602l110.88 64.987c-.483 1.986.355 4.129 2.22 5.184a4.703 4.703 0 006.41-1.775 4.7 4.7 0 00-1.78-6.401 4.663 4.663 0 00-5.981 1.194l-110.824-64.955c.009-.023.022-.042.03-.063 1.853-4.846-.59-10.27-5.43-12.125a9.365 9.365 0 00-12.108 5.41 9.505 9.505 0 00-.48 1.772l-59.607-3.41c.002-.043.014-.085.014-.128 0-1.74-.809-3.279-2.054-4.31l81.97-149.755c.895.35 1.86.56 2.876.56 4.392 0 7.957-3.58 7.957-7.976 0-4.397-3.565-7.976-7.957-7.976-3.514 0-6.475 2.31-7.532 5.48l-49.964-9.473a5.138 5.138 0 00-2.953-4.549l30.18-126.38 33.507 56.595c-2.036 1.852-2.74 4.869-1.5 7.489a6.402 6.402 0 008.534 3.058c3.208-1.515 4.591-5.343 3.078-8.55a6.376 6.376 0 00-1.75-2.21l51.06-125.544c.09-.201.116-.426.068-.644a1.198 1.198 0 00-.231-.475 1.045 1.045 0 00-1.028-.327l-79.274 18.413 17.156-71.84c.036 0 .068.01.103.01 1.65 0 3.105-.813 4.007-2.052l23.514 10.384c-.201.698-.343 1.42-.343 2.184 0 4.33 3.515 7.86 7.853 7.86 4.327 0 7.842-3.53 7.842-7.86 0-.376-.06-.737-.112-1.101l154.672-23.87c.081.246.149.497.261.736a6.396 6.396 0 008.474 3.08l27.873 50.98a9.45 9.45 0 00-1.26 1.08 9.377 9.377 0 00.318 13.269c3.749 3.582 9.696 3.462 13.274-.292 1.724-1.809 2.562-4.13 2.573-6.451l143.018-27.173.005.016a6.4 6.4 0 008.535 3.059c3.206-1.516 4.589-5.344 3.075-8.55a6.433 6.433 0 00-8.56-3.07zm-174.238-292.31l69.523 123.182-91.545-99.446 18.016-24.746 4.006 1.01zm-54.46-11.502a9.22 9.22 0 001.306-1.917l46.86 11.83-17.241 23.683-30.925-33.596zm-1.977 95.105c0 11.81-9.6 21.419-21.402 21.419-1.078 0-2.134-.107-3.172-.263l22.322-30.66a21.24 21.24 0 012.252 9.504zm-42.802 0c0-11.812 9.598-21.402 21.4-21.402 7.529 0 14.148 3.913 17.964 9.806l-23.49 32.265c-9.125-2.449-15.874-10.775-15.874-20.67zm-477.477-123.962a6.36 6.36 0 001.709-3.86l132.767-10.754c.665 2.44 2.87 4.23 5.51 4.23.511 0 .998-.087 1.467-.213l44.443 181.026a7.448 7.448 0 00-3.35 1.823l-182.546-172.252zm-85.267-127.423a4.684 4.684 0 001.784.357c.544 0 1.057-.111 1.547-.28l11.411 18.435 61.728 99.735a6.485 6.485 0 00-.685.709l-109.408-63.921a5.015 5.015 0 00.279-1.586c0-1.34-.534-2.552-1.391-3.458l34.735-49.991zm437.239 439.909l-62.304-28.682a6.382 6.382 0 00.245-1.675c0-2.114-1.032-3.973-2.61-5.138l40.898-80.637c.629.202 1.285.338 1.979.338.094 0 .184-.023.278-.027l23.468 114.254a4.994 4.994 0 00-1.954 1.567zM1399.36 423.874c.09-.032.182-.054.27-.09l79.978 121.266c-1.303 1.207-2.134 2.92-2.134 4.842 0 2.182 1.078 4.107 2.718 5.306l-13.48 26.585-27.418 54.048c-.603-.19-1.237-.323-1.908-.323-.026 0-.045.007-.07.007l-18.147-101.182-19.81-110.46zm-2.08.392l18.92 105.448 19.044 106.192a6.152 6.152 0 00-1.337.648l-86.53-94.293c1.066-1.302 1.733-2.938 1.733-4.744a7.523 7.523 0 00-3.43-6.317l50.091-107.153a5.89 5.89 0 001.509.22zm106.086 152.353l-14.803-21.946a6.542 6.542 0 002.084-4.781 6.579 6.579 0 00-6.371-6.58l-7.3-56.823 43.161 114.982-16.771-24.852zm-28.67-91.324l7.494 58.294a6.29 6.29 0 00-.831.293l-79.76-120.935 66.553 50.966c-.63 1.11-1.02 2.376-1.02 3.745 0 4.202 3.39 7.594 7.563 7.637zm-80.834-62.126l-50.099 107.162a7.571 7.571 0 00-2.003-.342l-44.597-181.654c.226-.16.44-.337.638-.528l94.153 67.958a5.903 5.903 0 00-.6 2.565 5.92 5.92 0 002.508 4.84zm115.979 247.036l-7.833-38.155-15.607-76.026c.14-.052.277-.11.412-.172l33.791 50.088a5.068 5.068 0 00-1.438 3.528 5.102 5.102 0 003.003 4.64l-9.324 42.442-3.004 13.655zm-117.163-256.492l-93.657-67.617a5.741 5.741 0 00.554-2.438c0-2.983-2.299-5.434-5.231-5.687l-6.582-66.347c.827-.185 1.59-.505 2.31-.901l102.606 142.99zm-104.286-71.694a5.81 5.81 0 00-.209 1.05l-132.76 10.76c-.696-2.774-3.177-4.829-6.152-4.829-.86 0-1.677.174-2.426.482l-42.779-69.114-30.34-49.028c.103-.101.182-.216.274-.324l214.392 111.003zM901.316 233.564l164.397-4.984a4.751 4.751 0 001.195 2.58l-34.754 49.984a5.057 5.057 0 00-1.965-.396 5.03 5.03 0 00-3.581 1.495l-125.292-48.68zm132.604 55.654l109.4 63.91a6.38 6.38 0 00-.427 2.257c0 2.145 1.06 4.03 2.675 5.188l-54.173 111.26a5.95 5.95 0 00-1.667-.262c-.264 0-.516.044-.768.077l-56.308-181.43a5.07 5.07 0 001.268-1zm-268.659 48.79l49.4-42.366c.61.48 1.324.837 2.112.995v57.965l-26.184 11.204-25.328-27.797zm51.512 51.784c-1.18.162-2.278.575-3.214 1.226l-21.473-23.568 24.687-10.562v32.904zm-26.624-21.513l21.96 24.1c-1.082 1.29-1.757 2.93-1.757 4.742 0 4.095 3.328 7.415 7.423 7.415 4.094 0 7.41-3.32 7.41-7.415 0-3.758-2.8-6.84-6.422-7.331v-33.753l47.379-20.271a6.093 6.093 0 004.17 2.659L873.61 506.9a6.468 6.468 0 00-3.183 1.575L730.591 396.298a4.47 4.47 0 00.442-1.917c0-.266-.034-.522-.077-.774l59.193-25.328zm90.99 143.622a6.51 6.51 0 00-5.433-5.024L872.403 338.4c1.495-.29 2.777-1.136 3.666-2.301l209.559 137.088c-1.21 1.112-1.982 2.694-1.982 4.472 0 .067.018.126.02.188L881.14 511.901zm214.608-33.609c.022-.21.064-.415.064-.634 0-2.027-1.002-3.808-2.522-4.916l54.179-111.261c.576.17 1.174.29 1.804.29 1.085 0 2.09-.297 2.983-.776l182.914 172.596a7.392 7.392 0 00-.617 1.26l-238.805-56.559zm222.5 208.156a9.28 9.28 0 00-5.346-4.558L1341.102 545c.158.009.306.047.464.047a7.5 7.5 0 004.27-1.331L1432.37 638c-.838 1.085-1.36 2.43-1.36 3.91 0 .438.048.864.13 1.277l-112.892 43.261zm126.234 252.797c.182.149.366.288.565.41l-46.908 132.088c-.282-.042-.56-.086-.852-.086-3.1 0-5.62 2.52-5.62 5.621 0 .074.02.14.022.212l-161.628 37.268a7.453 7.453 0 00-.64-1.306l215.06-174.207zm-213.966 177.558l.945-.22 160.687-37.033c.148.33.32.643.522.936l-103.98 105.928a7.113 7.113 0 00-4.208-1.39c-1.358 0-2.615.401-3.7 1.058l-52.294-63.228c1.293-1.407 2.102-3.265 2.102-5.321 0-.25-.05-.487-.074-.73zm48.932-114.53c3.706 3.855 5.996 9.08 5.996 14.847 0 11.785-9.602 21.397-21.422 21.397a21.61 21.61 0 01-2.247-.12l17.673-36.123zm-36.814 14.847c0-11.833 9.605-21.442 21.388-21.442 5.312 0 10.166 1.951 13.911 5.162l-18.217 37.24c-9.73-2.003-17.082-10.65-17.082-20.96zm17.938 23.737c1.13.163 2.276.276 3.45.276 13.265 0 24.058-10.78 24.058-24.013 0-6.811-2.852-12.96-7.41-17.344l56.951-116.417c.88.423 1.855.676 2.894.676a6.787 6.787 0 005.662-3.06l96.46 53.683c-.026.202-.063.403-.063.613 0 .85.225 1.64.591 2.35l-215.056 174.194a7.86 7.86 0 00-1.67-1.185l34.133-69.773zm30.57 146.071l103.024-104.959a5.59 5.59 0 003.121.95 5.54 5.54 0 002.581-.654l3.554 4.52 14.302 18.18c-.848.987-1.38 2.257-1.38 3.662 0 .688.139 1.34.367 1.95l-125.57 76.351zm130.802-83.926c-.93 0-1.795.25-2.565.653l-17.853-22.698c.854-.99 1.39-2.265 1.39-3.679 0-1.31-.468-2.502-1.221-3.457l1.538-1.769 101.49-116.824-81.067 148.07c-.542-.175-1.11-.296-1.712-.296zm82.46-150.608l-84.467 97.219-19.798 22.782 19.664-55.365 27.236-76.674c.23.03.455.07.69.07a5.14 5.14 0 004.742-3.174l49.955 9.467c-.009.143-.042.28-.042.427 0 2.016.777 3.84 2.02 5.248zm65.912-216.243l-50.201 123.41a6.38 6.38 0 00-4.765.133l-34.567-58.372L1492 754.346l78.314-18.195zm-108.94 25.31l28.335-6.583-10.47 43.84-19.5-32.93a6.353 6.353 0 001.643-4.262c0-.021-.008-.042-.008-.066zm28.882-8.876l-29.266 6.798c-.883-2.475-3.217-4.257-6.007-4.257-3.528 0-6.373 2.87-6.373 6.4 0 3.552 2.845 6.405 6.373 6.405a6.356 6.356 0 003.106-.83l20.451 34.544-30.052 125.854-9.815-279.315a6.39 6.39 0 004.008-2.672l62.272 28.673a4.93 4.93 0 00-.12 1.062c0 1.978 1.157 3.666 2.823 4.47l-17.4 72.868zm24.416-76.323a4.96 4.96 0 00-2.79-5.524l5.208-23.706 7.136-32.46c.016 0 .032.005.047.005.064 0 .125-.019.19-.02l17.445 68.897a7.855 7.855 0 00-3.744 3.185l-23.492-10.377z" id="Fill-9" fill="#F4F6F7"/><path d="M729.659 1042.977L627.396 938.981c.857-1.968.718-4.312-.604-6.204a6.494 6.494 0 00-9.001-1.635c-2.026 1.396-2.971 3.738-2.715 6.02l-75.447 57.57c-4.306-2.785-10.1-1.656-12.998 2.583-2.938 4.299-1.795 10.147 2.529 13.067 4.318 2.92 10.189 1.81 13.125-2.493.204-.297.341-.615.508-.925l185.778 38.014a1.194 1.194 0 001.411-1.367 1.114 1.114 0 00-.323-.634zm-185.997-38.265a9.343 9.343 0 00-2.18-8.396l74.373-56.753c.103.18.182.369.303.545 2.036 2.918 6.073 3.63 9.007 1.603a6.39 6.39 0 00.869-.735l99.187 100.883-181.56-37.147z" id="Fill-11" fill="#F4F6F7"/><path d="M1783.536 1002.888a1.215 1.215 0 00-.912-.864 1.24 1.24 0 00-1.209.434l-40.163 50.609a1.202 1.202 0 00.03 1.51 1.204 1.204 0 001.507.266l46.58-25.306c.485-.26.721-.8.6-1.326l-6.433-25.323zm-36.764 47.085l35.018-44.147 5.602 22.074-40.62 22.073z" id="Fill-13" fill="#F4F6F7"/><path d="M516.052 155.957L633.685 169h.137c.51 0 .968-.324 1.122-.813a1.187 1.187 0 00-.538-1.386l-53.541-30.526c.455-1.47.404-3.102-.303-4.604-1.506-3.197-5.324-4.566-8.511-3.057-2.591 1.227-3.938 3.98-3.553 6.685l-52.723 18.366a1.183 1.183 0 00-.768 1.25 1.18 1.18 0 001.045 1.042zm53.203-18.428c1.625 2.895 5.204 4.097 8.251 2.653.919-.434 1.664-1.074 2.256-1.821l48.515 27.653-106.784-11.824 47.762-16.661z" id="Fill-15" fill="#F4F6F7"/><path d="M1359.216 160c.284 0 .6-.09.82-.32l62.592-58.063a1.17 1.17 0 00.312-1.224l-9.847-28.597a1.213 1.213 0 00-1.01-.79c-.502-.047-.945.165-1.181.563l-52.74 86.657a1.177 1.177 0 001.054 1.774zm52.425-85.008l8.772 25.432-55.714 51.692 46.942-77.124z" id="Fill-17" fill="#F4F6F7"/><path d="M543.13 1229.474a1.185 1.185 0 00-.63-.74l-58.792-27.63a1.242 1.242 0 00-1.464.354 1.183 1.183 0 00.025 1.47l77.624 92.657.05.054c.366.379.949.472 1.414.22.507-.257.75-.827.599-1.36l-18.827-65.025zm-55.579-23.938l53.436 25.1 17.109 59.103-70.545-84.203z" id="Fill-19" fill="#F4F6F7"/><path d="M1691.798 825.1l-27.865-56.02c1.87-1.881 2.488-4.804 1.3-7.356-1.503-3.24-5.325-4.633-8.515-3.102-3.192 1.534-4.545 5.405-3.034 8.648.249.534.574.995.934 1.422l-29.351 36.048a1.294 1.294 0 00-.231 1.08c.105.376.363.67.719.827l60.591 23.667a6.545 6.545 0 00.49 3.974c1.506 3.237 5.306 4.62 8.492 3.087 3.192-1.53 4.567-5.395 3.061-8.632a6.364 6.364 0 00-6.591-3.643zm-63.657-20.109l28.318-34.79a6.24 6.24 0 005.503.234l27.56 55.42a6.377 6.377 0 00-2.326 2.219l-59.055-23.083z" id="Fill-21" fill="#F4F6F7"/><path d="M265.49 539c13.504 0 24.51-10.978 24.51-24.508C290 500.987 278.994 490 265.49 490c-13.503 0-24.49 10.987-24.49 24.492 0 13.53 10.987 24.508 24.49 24.508m0-46.312c12.035 0 21.824 9.773 21.824 21.804 0 12.033-9.789 21.846-21.823 21.846-12.031 0-21.823-9.813-21.823-21.846 0-12.031 9.792-21.804 21.823-21.804" id="Fill-23" fill="#F4F6F7"/><path d="M275.003 716a9.001 9.001 0 00-9.003 9.003 8.985 8.985 0 009.003 8.997 8.97 8.97 0 008.997-8.997 8.987 8.987 0 00-8.997-9.003" id="Fill-25" fill="#F4F6F7"/><path d="M1246.01 1394a5.99 5.99 0 00-6.01 6.006 6.002 6.002 0 006.01 5.994 5.996 5.996 0 005.99-5.994 5.984 5.984 0 00-5.99-6.006" id="Fill-27" fill="#F4F6F7"/><path d="M332.997 1311a5.977 5.977 0 00-5.997 6.009 5.986 5.986 0 005.997 5.991 6 6 0 006.003-5.991 5.99 5.99 0 00-6.003-6.009" id="Fill-29" fill="#F4F6F7"/><path d="M643.01 532a5.994 5.994 0 005.99-5.989 5.989 5.989 0 00-5.99-6.011 5.995 5.995 0 00-6.01 6.011c0 3.295 2.68 5.989 6.01 5.989" id="Fill-31" fill="#F4F6F7"/><path d="M726 1089.01c0 3.295 2.678 5.99 6.01 5.99a5.996 5.996 0 005.99-5.99 5.987 5.987 0 00-5.99-6.01 5.991 5.991 0 00-6.01 6.01" id="Fill-33" fill="#F4F6F7"/><path d="M1378 768.01a5.988 5.988 0 00-5.991-6.01 5.992 5.992 0 00-6.009 6.01c0 3.295 2.679 5.99 6.009 5.99a5.996 5.996 0 005.991-5.99" id="Fill-35" fill="#F4F6F7"/><path d="M5.997 986A5.987 5.987 0 000 992c0 3.31 2.664 6 5.997 6A6 6 0 0012 992a6 6 0 00-6.003-6" id="Fill-37" fill="#F4F6F7"/><path d="M1685.023 214c4.97 0 8.977-4.01 8.977-8.977 0-4.995-4.008-9.023-8.977-9.023-4.975 0-9.023 4.028-9.023 9.023 0 4.967 4.048 8.977 9.023 8.977" id="Fill-39" fill="#F4F6F7"/><path d="M738.02 1299a9.02 9.02 0 00-9.02 9.023c0 4.964 4.046 8.977 9.02 8.977 4.97 0 8.98-4.013 8.98-8.977 0-4.994-4.01-9.023-8.98-9.023" id="Fill-41" fill="#F4F6F7"/><path d="M1252.024 106a8.963 8.963 0 008.976-8.978c0-4.994-4.007-9.022-8.976-9.022-4.974 0-9.024 4.028-9.024 9.022 0 4.968 4.05 8.978 9.024 8.978" id="Fill-43" fill="#F4F6F7"/><path d="M1732.985 1083c-3.324 0-5.985 2.695-5.985 6.006a5.974 5.974 0 005.985 5.994 5.993 5.993 0 006.015-5.994 6.006 6.006 0 00-6.015-6.006" id="Fill-45" fill="#F4F6F7"/><path d="M1876.996 1297c-3.333 0-5.996 2.666-5.996 6.018a5.979 5.979 0 005.996 5.982c3.323 0 6.004-2.684 6.004-5.982a5.988 5.988 0 00-6.004-6.018" id="Fill-47" fill="#F4F6F7"/><path d="M57.99 300a5.983 5.983 0 00-5.99 6.006A5.983 5.983 0 0057.99 312c3.315 0 6.01-2.676 6.01-5.994A6 6 0 0057.99 300" id="Fill-49" fill="#F4F6F7"/><g id="Group-53" transform="translate(731)"><mask id="mask-2" fill="#fff"><use xlink:href="#path-1"/></mask><path d="M7.236 12.863c3.523 0 6.37-2.836 6.37-6.304 0-3.51-2.847-6.327-6.37-6.327C3.696.232.852 3.05.852 6.56c0 3.468 2.844 6.304 6.384 6.304" id="Fill-51" fill="#F4F6F7" mask="url(#mask-2)"/></g><g id="Group-56" transform="translate(1884 585)"><mask id="mask-4" fill="#fff"><use xlink:href="#path-3"/></mask><path id="Fill-54" fill="#F4F6F7" mask="url(#mask-4)" d="M18.844 18.232V.724h-2.002v17.508H.035v1.859h16.807v17.645h2.002V20.09h16.808v-1.859z"/></g><path id="Fill-57" fill="#F4F6F7" d="M1391.486 1174h-1.97v17.029H1373v1.805h16.516V1210h1.97v-17.166H1408v-1.805h-16.514z"/><path id="Fill-59" fill="#F4F6F7" d="M604.486 571v-17.171H621v-1.81h-16.514V535h-1.971v17.019H586v1.81h16.515V571z"/><path id="Fill-61" fill="#F4F6F7" d="M140.474 1010h-1.97v17.02H122v1.823h16.505V1046h1.969v-17.157H157v-1.823h-16.526z"/><path d="M812.998 115a8.984 8.984 0 009.002-9.003A8.971 8.971 0 00812.998 97a8.982 8.982 0 00-8.998 8.997 8.995 8.995 0 008.998 9.003" id="Fill-63" fill="#F4F6F7"/></g></g></g></svg>