<svg width="51" height="51" xmlns="http://www.w3.org/2000/svg"><g id="Page-1" stroke="none" stroke-width="1" fill="none" fill-rule="evenodd"><g id="Index-White" transform="translate(-976 -8514)" fill="#0066F4"><g id="Group-3-Copy" transform="translate(976 8514)"><path d="M38.605 26.655a4.47 4.47 0 01-4.373 4.566 4.47 4.47 0 01-4.567-4.566 4.472 4.472 0 018.94 0m.474 5.877a7.516 7.516 0 01-2.253 1.34 7.819 7.819 0 01-7.204-.808v.807h-3.208v-22.46H29.6v8.733a7.956 7.956 0 013.825-1.339H34a7.798 7.798 0 015.079 13.727M14.97 30.737a4.483 4.483 0 005.939-2.22h3.527a7.841 7.841 0 110-3.719H20.91a4.484 4.484 0 10-5.94 5.94M45.9-.001H5.1A5.122 5.122 0 000 5.1v40.798A5.125 5.125 0 005.1 51h40.8a5.124 5.124 0 005.1-5.102V5.1A5.12 5.12 0 0045.9 0" id="Fill-1"/></g></g></g></svg>