<?xml version="1.0" encoding="UTF-8"?>
<svg width="1920px" height="511px" viewBox="0 0 1920 511" version="1.1" xmlns="http://www.w3.org/2000/svg" xmlns:xlink="http://www.w3.org/1999/xlink">
    <title>AB62A629-5FD8-411B-97A3-C208BE8DE982</title>
    <g id="Page-1" stroke="none" stroke-width="1" fill="none" fill-rule="evenodd" stroke-opacity="0.364592439">
        <g id="Index" transform="translate(0.000000, -55.000000)" fill-rule="nonzero" stroke="#0B90D1">
            <path d="M49.6556291,565 C77.7593819,565 102.713576,562.091429 124.518212,556.274286 C146.322848,550.457143 164.977925,544.155238 180.483444,537.368571 C198.4117,529.127619 213.917219,519.674762 227,509.01 L227,509.01 L150.683775,374.488571 C143.415563,381.76 134.935982,388.061905 125.245033,393.394286 C117.007726,398.241905 106.83223,402.604762 94.718543,406.482857 C82.6048565,410.360952 68.7952539,412.3 53.2897351,412.3 C37.7842163,412.3 23.4900662,409.63381 10.4072848,404.301429 C-2.67549669,398.969048 -14.062362,391.697619 -23.7533113,382.487143 C-33.4442605,373.276667 -41.075883,362.490714 -46.6481788,350.129286 C-52.2204746,337.767857 -55.0066225,324.558095 -55.0066225,310.5 C-55.0066225,296.441905 -52.3416115,283.232143 -47.0115894,270.870714 C-41.6815673,258.509286 -34.2922185,247.723333 -24.843543,238.512857 C-15.3948675,229.302381 -4.3714128,222.030952 8.22682119,216.698571 C20.8250552,211.36619 34.6346578,208.7 49.6556291,208.7 C64.192053,208.7 77.1536976,210.517857 88.5405629,214.153571 C99.9274283,217.789286 109.739514,221.54619 117.976821,225.424286 C127.183223,230.756667 135.662804,236.331429 143.415563,242.148571 L143.415563,242.148571 L219.731788,107.627143 C206.649007,98.4166667 191.143488,89.9333333 173.215232,82.1771429 C157.709713,75.3904762 139.175773,69.3309524 117.613411,63.9985714 C96.0510486,58.6661905 71.4602649,56 43.8410596,56 C8.95364238,56 -23.995585,61.9383333 -55.0066225,73.815 C-86.01766,85.6916667 -113.152318,102.779524 -136.410596,125.078571 C-159.668874,147.377619 -178.081678,174.160714 -191.649007,205.427857 C-205.216336,236.695 -212,271.719048 -212,310.5 C-212,348.311429 -205.458609,382.850714 -192.375828,414.117857 C-179.293046,445.385 -161.122517,472.168095 -137.864238,494.467143 C-114.60596,516.76619 -86.986755,534.096429 -55.0066225,546.457857 C-23.0264901,558.819286 11.8609272,565 49.6556291,565 Z M52.8826531,496 C26.6173469,496 1.81122449,491.640625 -21.5357143,482.921875 C-44.8826531,474.203125 -65.3112245,461.730469 -82.8214286,445.503906 C-100.331633,429.277344 -114.072279,409.78125 -124.043367,387.015625 C-134.014456,364.25 -139,338.578125 -139,310 C-139,281.90625 -133.771259,256.355469 -123.313776,233.347656 C-112.856293,210.339844 -98.9940476,190.722656 -81.7270408,174.496094 C-64.460034,158.269531 -44.5178571,145.796875 -21.9005102,137.078125 C0.716836735,128.359375 24.4285714,124 49.2346939,124 C63.3401361,124 75.7431973,124.96875 86.4438776,126.90625 C97.1445578,128.84375 106.629252,131.023438 114.897959,133.445313 C123.653061,136.351563 131.921769,139.5 139.704082,142.890625 L139.704082,142.890625 L129.489796,160.328125 C123.653061,156.9375 116.60034,154.03125 108.331633,151.609375 C101.522109,149.1875 93.1318027,147.128906 83.1607143,145.433594 C73.1896259,143.738281 61.8809524,142.890625 49.2346939,142.890625 C23.4557823,142.890625 0.108843537,147.25 -20.8061224,155.96875 C-41.7210884,164.6875 -59.4744898,176.554688 -74.0663265,191.570313 C-88.6581633,206.585938 -99.9668367,224.265625 -107.992347,244.609375 C-116.017857,264.953125 -120.030612,286.75 -120.030612,310 C-120.030612,333.25 -116.017857,355.046875 -107.992347,375.390625 C-99.9668367,395.734375 -88.5365646,413.414063 -73.7015306,428.429687 C-58.8664966,443.445312 -40.7482993,455.3125 -19.3469388,464.03125 C2.05442177,472.75 26.1309524,477.109375 52.8826531,477.109375 C66.5017007,477.109375 78.4183673,476.019531 88.6326531,473.839844 C98.8469388,471.660156 107.602041,469.117187 114.897959,466.210937 C123.166667,463.304688 130.462585,459.671875 136.785714,455.3125 L136.785714,455.3125 L147,472.75 C139.704082,477.109375 131.435374,480.984375 122.193878,484.375 C113.92517,487.28125 103.954082,489.945312 92.2806122,492.367187 C80.6071429,494.789062 67.4744898,496 52.8826531,496 Z M401.115453,553 L401.115453,429.86057 L473.939609,553 L656,553 L564.969805,392.70015 C577.107164,383.956522 588.030787,373.269865 597.740675,360.64018 C605.994079,349.467766 613.519242,335.38081 620.316163,318.37931 C627.113085,301.377811 630.511545,280.733133 630.511545,256.445277 C630.511545,225.842579 625.049734,198.761619 614.12611,175.202399 C603.202487,151.643178 588.030787,131.848576 568.611012,115.818591 C549.191237,99.7886057 526.251628,87.6446777 499.792185,79.3868066 C473.332741,71.1289355 444.5672,67 413.49556,67 L413.49556,67 L246,67 L246,553 L401.115453,553 Z M337.945122,493 L319,493 L319,124 L397.695122,124 C420.526423,124 441.65752,126.789941 461.088415,132.369822 C480.519309,137.949704 497.399898,146.198225 511.730183,157.115385 C526.060467,168.032544 537.354675,181.497041 545.612805,197.508876 C553.870935,213.52071 558,232.201183 558,253.550296 C558,284.118343 550.227642,308.985207 534.682927,328.150888 C519.138211,347.316568 498.25,361.508876 472.018293,370.727811 L472.018293,370.727811 L544.884146,493 L522.295732,493 L453.073171,376.550296 C435.099593,380.431953 416.640244,382.372781 397.695122,382.372781 L397.695122,382.372781 L337.945122,382.372781 L337.945122,493 Z M397.42029,366 C441.381643,366 475.801932,356.435939 500.681159,337.307818 C525.560386,318.179696 538,290.698154 538,254.863192 C538,219.02823 525.560386,191.425624 500.681159,172.055375 C475.801932,152.685125 441.381643,143 397.42029,143 L397.42029,143 L338,143 L338,366 L397.42029,366 Z M408.980392,306 L401,306 L401,199 L408.980392,199 C427.359477,199 442.957516,203.096847 455.77451,211.290541 C468.591503,219.484234 475,233.220721 475,252.5 C475,271.779279 468.591503,285.515766 455.77451,293.709459 C442.957516,301.903153 427.359477,306 408.980392,306 L408.980392,306 Z M902.454545,553 L902.454545,343.881559 L1053,67 L880.636364,67 L825.363636,169.737631 L769.363636,67 L597,67 L747.545455,343.881559 L747.545455,553 L902.454545,553 Z M834.943396,493 L815.330189,493 L815.330189,319.053254 L710,124 L731.792453,124 L825.5,296.491124 L918.481132,124 L941,124 L834.943396,319.053254 L834.943396,493 Z M1218.72254,553 L1218.72254,437.146927 C1249.71548,437.146927 1278.65029,433.746627 1305.52697,426.946027 C1332.40366,420.145427 1355.89049,409.458771 1375.98748,394.886057 C1396.08446,380.313343 1411.94412,361.247376 1423.56647,337.688156 C1435.18882,314.128936 1441,285.590705 1441,252.073463 C1441,218.556222 1435.18882,190.017991 1423.56647,166.458771 C1411.94412,142.89955 1396.08446,123.833583 1375.98748,109.26087 C1355.89049,94.6881559 1332.40366,84.0014993 1305.52697,77.2008996 C1278.65029,70.4002999 1249.71548,67 1218.72254,67 L1218.72254,67 L1064,67 L1064,553 L1218.72254,553 Z M1155.89441,493 L1137,493 L1137,124 L1219.11801,124 C1240.91925,124 1261.14596,126.547337 1279.79814,131.642012 C1298.45031,136.736686 1314.55901,144.378698 1328.12422,154.568047 C1341.68944,164.757396 1352.22671,177.857988 1359.73602,193.869822 C1367.24534,209.881657 1371,228.804734 1371,250.639053 C1371,272.473373 1367.24534,291.39645 1359.73602,307.408284 C1352.22671,323.420118 1341.68944,336.52071 1328.12422,346.710059 C1314.55901,356.899408 1298.45031,364.54142 1279.79814,369.636095 C1261.14596,374.730769 1240.91925,377.278107 1219.11801,377.278107 L1219.11801,377.278107 L1155.89441,377.278107 L1155.89441,493 Z M1218.62687,362 C1236.1791,362 1252.87811,360.175 1268.72388,356.525 C1284.56965,352.875 1298.58706,346.913333 1310.77612,338.64 C1322.96517,330.366667 1332.71642,319.173333 1340.02985,305.06 C1347.34328,290.946667 1351,273.426667 1351,252.5 C1351,231.573333 1347.34328,214.053333 1340.02985,199.94 C1332.71642,185.826667 1322.96517,174.633333 1310.77612,166.36 C1298.58706,158.086667 1284.56965,152.125 1268.72388,148.475 C1252.87811,144.825 1236.1791,143 1218.62687,143 L1218.62687,143 L1155,143 L1155,362 L1218.62687,362 Z M1225.54545,306 L1219,306 L1219,199 L1225.54545,199 C1245.90909,199 1260.57576,203.699324 1269.54545,213.097973 C1278.51515,222.496622 1283,235.630631 1283,252.5 C1283,269.369369 1278.51515,282.503378 1269.54545,291.902027 C1260.57576,301.300676 1245.90909,306 1225.54545,306 L1225.54545,306 Z M1702.78541,553 L1702.78541,194.511244 L1792,194.511244 L1792,67 L1454,67 L1454,194.511244 L1543.21459,194.511244 L1543.21459,553 L1702.78541,553 Z M1631.95833,493 L1613.04167,493 L1613.04167,141.467456 L1509,141.467456 L1509,124 L1736,124 L1736,141.467456 L1631.95833,141.467456 L1631.95833,493 Z M2038.5,565 C2073.40286,565 2106.36667,558.334524 2137.39143,545.003571 C2168.41619,531.672619 2195.44167,513.494048 2218.46786,490.467857 C2241.49405,467.441667 2259.67262,440.41619 2273.00357,409.391429 C2286.33452,378.366667 2293,345.402857 2293,310.5 C2293,275.597143 2286.33452,242.633333 2273.00357,211.608571 C2259.67262,180.58381 2241.49405,153.558333 2218.46786,130.532143 C2195.44167,107.505952 2168.41619,89.327381 2137.39143,75.9964286 C2106.36667,62.6654762 2073.40286,56 2038.5,56 C2003.59714,56 1970.63333,62.6654762 1939.60857,75.9964286 C1908.58381,89.327381 1881.55833,107.505952 1858.53214,130.532143 C1835.50595,153.558333 1817.32738,180.58381 1803.99643,211.608571 C1790.66548,242.633333 1784,275.597143 1784,310.5 C1784,345.402857 1790.66548,378.366667 1803.99643,409.391429 C1817.32738,440.41619 1835.50595,467.441667 1858.53214,490.467857 C1881.55833,513.494048 1908.58381,531.672619 1939.60857,545.003571 C1970.63333,558.334524 2003.59714,565 2038.5,565 Z M2038,496 C2012.32812,496 1988.23047,491.15625 1965.70703,481.46875 C1943.18359,471.78125 1923.44531,458.460937 1906.49219,441.507813 C1889.53906,424.554688 1876.21875,404.816406 1866.53125,382.292969 C1856.84375,359.769531 1852,335.671875 1852,310 C1852,284.328125 1856.84375,260.230469 1866.53125,237.707031 C1876.21875,215.183594 1889.53906,195.445313 1906.49219,178.492188 C1923.44531,161.539063 1943.18359,148.21875 1965.70703,138.53125 C1988.23047,128.84375 2012.32812,124 2038,124 C2063.67188,124 2087.76953,128.84375 2110.29297,138.53125 C2132.81641,148.21875 2152.55469,161.539063 2169.50781,178.492188 C2186.46094,195.445313 2199.78125,215.183594 2209.46875,237.707031 C2219.15625,260.230469 2224,284.328125 2224,310 C2224,335.671875 2219.15625,359.769531 2209.46875,382.292969 C2199.78125,404.816406 2186.46094,424.554688 2169.50781,441.507813 C2152.55469,458.460937 2132.81641,471.78125 2110.29297,481.46875 C2087.76953,491.15625 2063.67188,496 2038,496 Z M2038.5,478 C2061.80435,478 2083.5308,473.630435 2103.67935,464.891304 C2123.8279,456.152174 2141.54891,444.13587 2156.84239,428.842391 C2172.13587,413.548913 2184.15217,395.827899 2192.8913,375.679348 C2201.63043,355.530797 2206,333.804348 2206,310.5 C2206,287.195652 2201.63043,265.469203 2192.8913,245.320652 C2184.15217,225.172101 2172.13587,207.451087 2156.84239,192.157609 C2141.54891,176.86413 2123.8279,164.847826 2103.67935,156.108696 C2083.5308,147.369565 2061.80435,143 2038.5,143 C2015.19565,143 1993.4692,147.369565 1973.32065,156.108696 C1953.1721,164.847826 1935.45109,176.86413 1920.15761,192.157609 C1904.86413,207.451087 1892.84783,225.172101 1884.1087,245.320652 C1875.36957,265.469203 1871,287.195652 1871,310.5 C1871,333.804348 1875.36957,355.530797 1884.1087,375.679348 C1892.84783,395.827899 1904.86413,413.548913 1920.15761,428.842391 C1935.45109,444.13587 1953.1721,456.152174 1973.32065,464.891304 C1993.4692,473.630435 2015.19565,478 2038.5,478 Z M2039.5,411 C2025.48333,411 2012.3125,408.341667 1999.9875,403.025 C1987.6625,397.708333 1976.90833,390.458333 1967.725,381.275 C1958.54167,372.091667 1951.29167,361.3375 1945.975,349.0125 C1940.65833,336.6875 1938,323.516667 1938,309.5 C1938,295.483333 1940.65833,282.3125 1945.975,269.9875 C1951.29167,257.6625 1958.54167,246.908333 1967.725,237.725 C1976.90833,228.541667 1987.6625,221.291667 1999.9875,215.975 C2012.3125,210.658333 2025.48333,208 2039.5,208 C2053.51667,208 2066.6875,210.658333 2079.0125,215.975 C2091.3375,221.291667 2102.09167,228.541667 2111.275,237.725 C2120.45833,246.908333 2127.70833,257.6625 2133.025,269.9875 C2138.34167,282.3125 2141,295.483333 2141,309.5 C2141,323.516667 2138.34167,336.6875 2133.025,349.0125 C2127.70833,361.3375 2120.45833,372.091667 2111.275,381.275 C2102.09167,390.458333 2091.3375,397.708333 2079.0125,403.025 C2066.6875,408.341667 2053.51667,411 2039.5,411 Z" id="CRYPTO"></path>
        </g>
    </g>
</svg>