<svg width="24" height="24" xmlns="http://www.w3.org/2000/svg"><g id="Page-1" stroke="none" stroke-width="1" fill="none" fill-rule="evenodd"><g id="Index" transform="translate(-795 -7778)"><g id="eye.6" transform="translate(795 7778)"><path id="Path" d="M0 0h24v24H0z"/><path d="M14.122 9.88a3.004 3.004 0 010 4.245 3.004 3.004 0 01-4.245 0 3.004 3.004 0 010-4.245 3 3 0 014.245 0M21 16l-3 3-2-2" id="Path" stroke="#000" stroke-width="1.5" stroke-linecap="round" stroke-linejoin="round"/><path d="M12 19c-3.691 0-7.039-1.991-8.554-5.088h0A4.346 4.346 0 013 12c0-.659.152-1.311.446-1.912h0C4.961 6.991 8.309 5 12 5s7.039 1.991 8.554 5.088h0c.294.601.446 1.253.446 1.912" id="Path" stroke="#000" stroke-width="1.5" stroke-linecap="round" stroke-linejoin="round"/></g></g></g></svg>