<svg width="24" height="24" xmlns="http://www.w3.org/2000/svg"><defs><filter id="filter-1"><feColorMatrix in="SourceGraphic" values="0 0 0 0 0.000000 0 0 0 0 0.000000 0 0 0 0 0.000000 0 0 0 1.000000 0"/></filter></defs><g id="Page-1" stroke="none" stroke-width="1" fill="none" fill-rule="evenodd"><g id="Group,-User.1" transform="translate(-673 -7778)" filter="url(#filter-1)"><g transform="translate(673 7778)"><g id="Group" stroke-linecap="round" stroke-linejoin="round" transform="translate(1 5)" stroke="#000" stroke-width="1.5"><path d="M19.793 4.524a2.023 2.023 0 11-2.861 2.86 2.023 2.023 0 012.86-2.86M13.203.912a3.115 3.115 0 11-4.406 4.406A3.115 3.115 0 0113.203.912M5.068 4.524a2.023 2.023 0 11-2.86 2.86 2.023 2.023 0 012.86-2.86M22 14v-1.096a2.5 2.5 0 00-2.5-2.5h-.801M0 14v-1.096a2.5 2.5 0 012.5-2.5h.801M16.339 14v-1.601a3.5 3.5 0 00-3.5-3.5H9.16a3.5 3.5 0 00-3.5 3.5V14" id="Path"/></g><path id="Path" d="M0 0h24v24H0z"/></g></g></g></svg>