<svg width="133" height="133" xmlns="http://www.w3.org/2000/svg"><defs><filter id="filter-1"><feColorMatrix in="SourceGraphic" values="0 0 0 0 1.000000 0 0 0 0 1.000000 0 0 0 0 1.000000 0 0 0 1.000000 0"/></filter></defs><g id="Page-1" stroke="none" stroke-width="1" fill="none" fill-rule="evenodd" opacity=".094" stroke-linecap="round" stroke-linejoin="round"><g id="Chat,-Messages,-Bubble,-Question" transform="translate(-354 -2450)" filter="url(#filter-1)"><g transform="translate(360 2456)" id="Group" stroke="#F5F5F5" stroke-width="12"><path d="M0 55.174c0 17.854 9.546 33.572 24.193 43.481-.006 5.69.007 13.356.007 21.401l23.736-11.625a67.176 67.176 0 0012.564 1.19c33.288 0 60.5-24.242 60.5-54.447C121 24.968 93.788.725 60.5.725S0 24.968 0 55.174z" id="Path"/><path d="M59.821 62.075v-1.378c0-4.512 2.817-6.954 5.64-8.83 2.756-1.837 5.519-4.233 5.519-8.652 0-6.102-4.995-11.04-11.152-11.04-6.158 0-11.16 4.931-11.16 11.034M59.814 77.64a.992.992 0 00-1.001.998c0 .552.45.998 1.008.998s1.008-.446 1.008-.998a1 1 0 00-1.015-.998" id="Path"/></g></g></g></svg>