<svg width="98" height="24" xmlns="http://www.w3.org/2000/svg"><g id="Page-1" stroke="none" stroke-width="1" fill="none" fill-rule="evenodd"><g id="Index" transform="translate(-1740 -7689)" fill="#FFF" fill-rule="nonzero"><path d="M1828.006 7713c.259 0 .501-.065.728-.194.226-.13.436-.29.63-.485l8.248-10.276c.259-.323.388-.679.388-1.067 0-.387-.13-.743-.388-1.066l-8.248-10.276c-.323-.388-.711-.598-1.164-.63-.453-.033-.84.08-1.164.339-.388.258-.599.614-.631 1.066-.032.453.08.873.34 1.26l6.147 7.66h-91.243c-.377 0-.71.112-.997.336l-.167.148a1.587 1.587 0 00-.485 1.163c0 .453.162.84.485 1.164.324.323.712.485 1.165.485h91.24l-6.145 7.658c-.216.324-.33.67-.344 1.037l.004.224c.032.452.243.808.63 1.066.13.13.292.226.486.291.194.065.356.097.485.097z" id=""/></g></g></svg>