<svg width="29" height="29" xmlns="http://www.w3.org/2000/svg" xmlns:xlink="http://www.w3.org/1999/xlink"><defs><filter id="filter-1"><feColorMatrix in="SourceGraphic" values="0 0 0 0 0.196078 0 0 0 0 0.196078 0 0 0 0 0.196078 0 0 0 1.000000 0"/></filter><path id="path-2" d="M0 0h29v29H0z"/></defs><g id="Page-1" stroke="none" stroke-width="1" fill="none" fill-rule="evenodd"><g id="Group-3" transform="translate(-1272 -722)" filter="url(#filter-1)"><g transform="translate(1272 722)"><mask id="mask-3" fill="#fff"><use xlink:href="#path-2"/></mask><path d="M21.624 9.939l-2.378 11.209c-.166.796-.647.987-1.314.619l-5.844-4.318 6.724-6.067c.295-.262-.065-.39-.456-.152l-8.298 5.235-3.585-1.119c-.774-.237-.78-.769.174-1.151l13.967-5.386c.638-.29 1.254.153 1.01 1.13M14.5 0C6.492 0 0 6.492 0 14.5S6.492 29 14.5 29 29 22.508 29 14.5 22.508 0 14.5 0" id="Fill-1" fill="#FFF" mask="url(#mask-3)"/></g></g></g></svg>