<svg width="30" height="30" xmlns="http://www.w3.org/2000/svg"><g id="Page-1" stroke="none" stroke-width="1" fill="none" fill-rule="evenodd"><g id="Home---blue-white" transform="translate(-1157 -623)"><g id="Video,-Movies.7" transform="translate(1157 623)"><g id="Group" stroke-linecap="round" stroke-linejoin="round" transform="translate(4 4)" stroke="#FFF" stroke-width="2"><path d="M0 10.473c0 3.389 1.814 6.372 4.599 8.253-.002 1.08.001 2.535.001 4.063l4.512-2.207c.772.146 1.569.226 2.388.226 6.328 0 11.5-4.602 11.5-10.335C23 4.739 17.828.138 11.5.138S0 4.739 0 10.473z" id="Path"/><path d="M10.622 7.227l4.083 2.387a.884.884 0 010 1.53l-4.083 2.387c-.6.35-1.356-.077-1.356-.764V7.992c0-.69.757-1.117 1.356-.765h0z" id="Path"/></g><path id="Path" d="M0 0h30v30H0z"/></g></g></g></svg>