<svg width="72" height="72" xmlns="http://www.w3.org/2000/svg" xmlns:xlink="http://www.w3.org/1999/xlink"><defs><path d="M36 0c19.882 0 36 16.118 36 36S55.882 72 36 72 0 55.882 0 36 16.118 0 36 0z" id="path-1"/></defs><g id="Page-1" stroke="none" stroke-width="1" fill="none" fill-rule="evenodd"><g id="Index" transform="translate(-1348 -8220)"><g id="Youtube" transform="translate(1348 8220)"><mask id="mask-2" fill="#fff"><use xlink:href="#path-1"/></mask><use id="Rectangle-5" fill="red" xlink:href="#path-1"/><path id="Path-4" fill="#000" opacity=".1" mask="url(#mask-2)" d="M15.5 49.29l36.292 36.292h21.782l1.5-43.796L56.288 22l-2.5 25.795L38.5 44.5z"/><path d="M21.066 19.783L36 19.5l14.934.283a8 8 0 017.846 7.783L59 35.75l-.22 8.184a8 8 0 01-7.846 7.784L36 52l-14.934-.283a8 8 0 01-7.846-7.784L13 35.75l.22-8.184a8 8 0 017.846-7.783zm10.249 9.125V42.6l11.926-6.845-11.926-6.846z" id="Combined-Shape" fill="#FFF" mask="url(#mask-2)"/></g></g></g></svg>