<svg width="559" height="503" fill="none" xmlns="http://www.w3.org/2000/svg"><g clip-path="url(#clip0)"><path opacity=".09" d="M550.409 487.985H8.593A8.591 8.591 0 010 479.395a8.592 8.592 0 018.593-8.591h541.816a8.592 8.592 0 110 17.181z" fill="#000"/><path d="M9.82 475.424c.186.338.445.627.782.837.723.447 1.631.424 2.48.386 3.338-.15 6.53-.111 9.84.312 3.265.417 6.808.784 9.65-.877.276-.161.552-.35.707-.63.358-.645-.074-1.458-.624-1.951-1.38-1.24-3.277-1.406-4.964-1.979-1.86-.632-3.62-1.433-5.54-2.018-.372-.114-.768-.245-1.006-.553-.264-.344-.263-.816-.25-1.25 0-3.741.933-7.346.913-11.093-.003-.604-.064-1.317-.579-1.632-.238-.145-.528-.17-.807-.177-2.949-.074-5.87 1.646-7.235 4.26-1.64 3.143-1.031 7.018-2.283 10.336-.444 1.175-1.12 2.271-1.383 3.5-.18.84-.108 1.798.299 2.529z" fill="url(#paint0_linear)"/><path opacity=".09" d="M482.789 503h-81.797a4.774 4.774 0 110-9.546h81.797a4.774 4.774 0 110 9.546z" fill="#000"/><path d="M354.246 170.433c1.001 1.407 2.289 2.583 3.363 3.934.92 1.155 1.676 2.429 2.43 3.7l3.581-3.506c-2.359-3.172-3.751-6.942-5.634-10.416-.307-.564-.661-1.157-1.242-1.432-1.783-.847-3.089 1.429-3.609 2.761-.685 1.756.04 3.456 1.111 4.959z" fill="#E0AC9B"/><path d="M239.444 95.041c0-11.15-9.659-20.046-21.07-18.777-8.61.957-15.598 7.902-16.605 16.505-.75 6.41 1.718 12.264 5.996 16.182 2.315 2.121 3.762 5.024 4.289 8.121l1.36 13.537h13.237l2.374-13.541c.543-3.192 2.148-6.09 4.502-8.315 3.642-3.441 5.917-8.308 5.917-13.712z" fill="#F5DB47"/><path d="M221.462 129.746c-.142-6.492.134-13.584.451-20.283.122-2.573.256-5.392.852-8.119-2.471.528-5.04.495-7.495-.089.703 2.05 1.099 4.169 1.423 6.102.56 3.347 1.033 6.932 1.492 11.279.337 3.199.684 6.919.544 10.608l-1.239-.046c.139-3.607-.204-7.276-.536-10.431-.456-4.323-.926-7.883-1.483-11.205-.358-2.143-.809-4.519-1.675-6.729a18.374 18.374 0 01-.755-.274c-.657-.258-1.451-.657-1.738-1.48-.193-.554-.002-1.225.464-1.636.388-.339.898-.416 1.327-.205.376.186.579.535.688.721.354.604.664 1.23.936 1.867 2.703.794 5.655.855 8.384.168.181-.645.396-1.28.649-1.904.259-.64.582-1.29 1.192-1.705.3-.207.619-.312.931-.293.472.024.916.316 1.187.781.485.834.305 1.982-.443 2.79-.616.668-1.459 1.003-2.202 1.242a8.297 8.297 0 01-.306.094c-.69 2.768-.827 5.683-.96 8.523-.319 6.677-.593 13.744-.451 20.197l-1.237.027zm4.352-32.417c-.018 0-.077.013-.17.077-.34.233-.559.688-.744 1.149-.134.33-.255.662-.369.998.441-.171.872-.397 1.179-.729.312-.34.517-.921.281-1.329-.066-.114-.149-.165-.177-.166zm-13.271 1.018c0 .035-.106.225-.071.325.079.228.318.406.591.547a13.581 13.581 0 00-.35-.634c-.081-.14-.137-.22-.17-.238zm-17.98-10.87h-6.87c-1.217 0-1.218 1.89 0 1.89h6.87c1.216.001 1.218-1.89 0-1.89zm3.973-10.247l-6.052-3.07c-1.083-.549-2.04 1.082-.954 1.633l6.052 3.07c1.083.55 2.042-1.08.954-1.632zm12.036-6.004l-4.423-7.064c-.644-1.03-2.282-.08-1.633.954l4.421 7.064c.646 1.03 2.282.083 1.635-.954zm9.393-9.043v7.277c0 1.217 1.89 1.218 1.89 0v-7.277c.002-1.216-1.89-1.218-1.89 0zm15.112 4.657l-3.481 5.845c-.624 1.049 1.01 2 1.632.954 1.161-1.949 2.322-3.896 3.482-5.846.624-1.048-1.01-2-1.633-.954zm8.849 10.05l-3.589 3.587c-.861.862.476 2.199 1.338 1.337l3.589-3.588c.861-.861-.476-2.198-1.338-1.337zm4.318 13.52c-1.916.267-3.831.535-5.744.8-1.2.167-.69 1.99.502 1.823 1.915-.268 3.83-.534 5.743-.8 1.201-.168.69-1.99-.501-1.823z" fill="#EB5050"/><path d="M226.592 131.477h-13.049a1.128 1.128 0 010-2.254h13.049a1.128 1.128 0 010 2.254zm0 2.256h-13.049a1.128 1.128 0 010-2.254h13.049a1.128 1.128 0 010 2.254zm0 2.256h-13.049a1.128 1.128 0 010-2.254h13.049a1.128 1.128 0 010 2.254zm0 2.255h-13.049a1.128 1.128 0 010-2.254h13.049a1.128 1.128 0 010 2.254z" fill="#13285E"/><path d="M554.46 236.614H450.415v241.389H554.46V236.614z" fill="url(#paint1_linear)"/><path d="M420.184 340.378H317.79v137.625h102.394V340.378z" fill="url(#paint2_linear)"/><path d="M295.273 362.675H191.228v115.328h104.045V362.675z" fill="url(#paint3_linear)"/><path d="M171.417 417.155H67.372v59.682h104.045v-59.682z" fill="url(#paint4_linear)"/><path d="M543.184 236.614H439.139v241.389h104.045V236.614z" fill="url(#paint5_linear)"/><path d="M408.908 340.378H304.863v137.625h104.045V340.378z" fill="url(#paint6_linear)"/><path d="M283.997 362.675H179.952v115.328h104.045V362.675z" fill="url(#paint7_linear)"/><path d="M160.141 417.155H56.096v59.682h104.045v-59.682z" fill="url(#paint8_linear)"/><path d="M550.541 136.889c-1.968-5.329-4.718-9.842-8.245-13.532-3.529-3.691-7.837-6.847-12.92-9.472-5.086-2.621-10.747-5.247-16.979-7.875l-14.766-6.151a141.899 141.899 0 01-7.385-3.199c-5.978-2.792-10.66-6.696-13.157-12.976-1.433-3.601-1.82-7.694-.616-11.378 1.766-5.399 6.916-8.22 11.966-10.037 5.434-1.956 11.54-1.964 17.182-1.035 7.405 1.22 14.403 4.145 21.323 7.046 2.1.882 5.103 3.057 6.964 1.82a.046.046 0 01.01-.008c3.795-8.176 6.069-16.914 8.363-25.674v-.005c-.627-2.365-2.476-6.122-3.747-8.284-3.35-.974-7.712-.865-10.88-1.593-6.072-1.391-14.424-3.248-20.984-3.738v-18.11c-2.823-2.515-3.708-7.063-5.729-10.203-1.093-.094-2.004 2.405-3.066 2.405-3.61 0-7.135.492-10.58 1.476v26.082c-14.766 1.808-26.334 6.974-34.702 15.5-8.367 8.53-12.552 20.175-12.552 34.937 0 6.89.861 12.714 2.583 17.469 1.724 4.758 4.184 8.899 7.385 12.425 3.199 3.528 7.013 6.562 11.444 9.104 4.429 2.545 9.351 4.963 14.764 7.257l13.044 5.659a133.434 133.434 0 008.613 3.691c2.953 1.15 5.618 2.545 7.998 4.182 2.376 1.642 4.347 3.734 5.907 6.274 1.557 2.545 2.338 5.781 2.338 9.718 0 7.874-2.83 13.575-8.491 17.099-5.661 3.528-13.658 5.289-23.994 5.289-6.891 0-13.376-.529-19.441-1.599-6.074-1.066-12.55-2.991-19.443-5.783a237.577 237.577 0 00-4.675 15.131 90.186 90.186 0 00-2.708 14.394c4.1 1.643 8.037 3.037 11.813 4.183a110.788 110.788 0 0011.444 2.829c3.853.737 7.914 1.269 12.182 1.599 4.264.327 9.106.492 14.519.492h1.97v26.081c3.607.983 7.216 1.475 10.828 1.475 3.607 0 7.137-.492 10.583-1.475v-28.541c14.6-3.279 25.716-9.552 33.346-18.822 7.629-9.265 11.444-20.626 11.444-34.075 0-8.033-.985-14.719-2.953-20.052z" fill="#DBB82C"/><path d="M478.069 209.059H476.1c-5.414 0-10.256-.166-14.52-.491-4.268-.33-8.329-.862-12.182-1.6-3.856-.737-7.67-1.68-11.444-2.829-3.776-1.145-7.713-2.54-11.812-4.182a90.203 90.203 0 012.707-14.394 237.41 237.41 0 014.676-15.131c6.892 2.791 13.37 4.717 19.442 5.781 6.067 1.068 12.552 1.6 19.441 1.6 10.337 0 18.334-1.761 23.995-5.29 5.661-3.526 8.489-9.226 8.489-17.099 0-3.937-.781-7.173-2.338-9.718-1.56-2.54-3.531-4.633-5.907-6.274-2.379-1.637-5.045-3.032-7.999-4.182a132.764 132.764 0 01-8.612-3.69l-13.044-5.66c-5.414-2.296-10.337-4.712-14.764-7.257-4.431-2.542-8.245-5.575-11.444-9.104-3.202-3.526-5.661-7.667-7.385-12.425-1.722-4.755-2.584-10.58-2.584-17.469 0-14.761 4.184-26.407 12.552-34.937 8.367-8.526 19.935-13.692 34.702-15.5V3.126A38.334 38.334 0 01488.65 1.65c3.445 0 7.053.492 10.83 1.476v25.341c6.561.492 12.879 1.438 18.951 2.83 6.067 1.394 12.466 3.24 19.195 5.535-.984 9.515-3.612 18.863-7.877 28.048a774.839 774.839 0 00-7.505-2.952 58.863 58.863 0 00-8.122-2.461c-2.871-.654-6.114-1.189-9.721-1.6-3.612-.407-7.714-.615-12.306-.615-2.79 0-5.621.208-8.49.615-2.873.413-5.456 1.273-7.751 2.583-2.302 1.314-4.184 3.161-5.661 5.536-1.478 2.38-2.216 5.455-2.216 9.226 0 3.283.573 6.07 1.724 8.365a16.859 16.859 0 004.675 5.782c1.968 1.56 4.184 2.914 6.643 4.058a140.712 140.712 0 007.385 3.199l14.766 6.151c6.232 2.626 11.893 5.252 16.979 7.873 5.083 2.626 9.391 5.781 12.92 9.472 3.527 3.69 6.277 8.203 8.245 13.532 1.968 5.331 2.953 12.017 2.953 20.052 0 13.451-3.815 24.811-11.444 34.076-7.63 9.269-18.746 15.542-33.346 18.822v28.541a38.363 38.363 0 01-10.583 1.476c-3.612 0-7.221-.492-10.828-1.476v-26.076h.003z" fill="#F5DB47" stroke="#DEBE23" stroke-width="2" stroke-miterlimit="10"/><path d="M394.74 112.03L272.515 275.364l-31.732-23.38-68.085 100.946-44.262-27.876-70.555 83.689" stroke="#07112E" stroke-width="3" stroke-miterlimit="10"/><path d="M368.008 119.123l26.732-7.093-2.496 26.056" stroke="#07112E" stroke-width="3" stroke-miterlimit="10"/><path d="M375.125 187.684c-.589-1.253-8.784-14.113-12.74-18.206-2.105 2.065-4.048 4.312-6.273 6.217 7.285 8.678 11.34 20.035 11.046 31.369-.091 3.506-.576 7.016-.266 10.509.355 4.001 3 11.376 7.793 11.855 1.712.172 3.49-.617 4.512-2 .914-1.238 1.206-2.819 1.414-4.344 1.648-11.999-.331-24.447-5.486-35.4z" fill="#2EAECB"/><path d="M408.172 328c-.374.883-.842 1.739-1.079 2.317l-2.702 6.635c-.276.675-.558 1.363-1.04 1.911-1.357 1.542-3.962 1.86-5.861 1.761-.713-.038-1.451-.081-2.088-.404-.637-.324-1.149-1.007-1.04-1.713.097-.631.647-1.1 1.225-1.369 2.524-1.178 3.627-1.366 3.42-4.654-.09-1.466-.218-2.982-.931-4.266-.812-1.459-2.281-2.435-3.257-3.79-.786-1.091-1.222-2.386-1.648-3.661-.138-.414-.279-.841-.241-1.277.037-.419.241-.812.512-1.136.951-1.132 2.658-1.396 4.076-.975 1.418.421 2.597 1.404 3.649 2.443 1.086 1.072 2.205 2.117 3.503 2.933 1.194.75 3.533 1.178 3.972 2.66.206.697-.078 1.656-.47 2.585zm-70.804 9.596c.046.983.009 2.137-.79 2.713-.581.419-1.363.371-2.078.31a138.08 138.08 0 00-11.56-.501c-1.921-.004-3.145-.241-4.895-1.068-.838-.396-1.672-1.055-1.786-1.976-.122-.984.66-1.895 1.573-2.283.913-.387 1.937-.386 2.927-.437 2.308-.12 6.421.178 8.159-1.708.5-.543.765-1.258 1.016-1.953a341.571 341.571 0 002.56-7.374c.357-1.065.726-2.164 1.479-2.997.755-.832 2.004-1.326 3.028-.863.84.379 1.326 1.305 1.438 2.221.114.914-.079 1.837-.248 2.743-.802 4.346-1.028 8.791-.823 13.173z" fill="#C93232"/><path d="M344.712 189.171c.804-1.977 1.41-4.073 1.348-6.227-.048-1.64-1.039-3.255-.359-4.842.407-.948 1.154-1.704 1.932-2.38.636-.553 1.37-1.238 1.233-2.07-.65-.182-1.334.17-1.837.617-.505.447-.92 1.004-1.491 1.363-.112.071-.236.136-.368.126-.309-.02-.453-.414-.39-.716.312-1.487 1.8-2.656 2.419-4.023.124-.272.223-.569.183-.866-.087-.664-.858-1.06-1.522-.974-.664.086-1.227.515-1.739.946-1.213 1.021-2.349 2.162-3.164 3.522-.816 1.36-1.295 2.961-1.121 4.535.125 1.144.581 2.225.835 3.348.48 2.116-.621 3.979-1.098 6.007-.157.667-.305 1.344-.275 2.027.029.683.257 1.385.754 1.855.901.855 2.475.661 3.369-.203.547-.526.963-1.238 1.291-2.045z" fill="#E0AC9B"/><path d="M372.076 208.305c.913-3.139 2.194-6.468 1.158-9.568-.874-2.606-3.439-4.532-6.181-4.718-2.743-.185-5.511 1.342-6.883 3.725-1.017 1.768-1.346 4.162-.644 6.108.721 2.002 2.354 3.107 2.661 5.427.22 1.659.051 3.339.032 5.013-.015 1.292.081 2.657.789 3.74.931 1.424 2.78 2.054 4.474 1.886 1.251-.124 4.061-.936 4.781-2.088.678-1.087-.525-2.317-.765-3.42-.432-1.982.024-4.2.578-6.105z" fill="#FADCD2"/><path d="M380.273 239.174l-3.307-14.856c-.835-3.756-2.113-12.202-6.407-13.62-3.946-1.302-7.682 3.395-11.639 3.123-1.709-.117-3.292-.918-4.749-1.814-4.536-2.787-8.62-7.174-8.929-12.489-.265-4.577 1.019-9.328 1.605-13.846.058-.44.116-.881.177-1.322-2.911-.65-5.759-1.489-8.526-2.566a241.92 241.92 0 00-3.161 19.297c-1.184 9.728 7.533 18.074 14.845 23.214.768.54 1.563 1.068 2.143 1.806.599.762.926 1.7 1.243 2.616 2.227 6.448 4.452 12.897 6.678 19.345.796 2.302 1.608 4.639 3.018 6.627 1.424 2.008 3.495 3.616 5.888 4.195 6.652 1.608 11.121-4.87 11.786-10.669.339-2.942-.001-6.057-.665-9.041z" fill="#2EAECB"/><path d="M394.621 328.916c2.526-3.445 5.539-6.751 8.217-10.078-.149.186-8.899-10.535-9.663-11.532l-6.774-8.838c-2.017-2.633-4.664-5.178-4.606-8.736.089-5.655.755-11.417 2.15-16.904 1.276-5.02 3.935-9.114 4.021-14.592.028-1.839-.143-3.711-.824-5.421-1.263-3.17-4.289-5.515-7.638-6.172-11.253-2.205-14.568 11.111-14.735 19.657-.119 6.097-.36 12.2-.074 18.295.256 5.465.474 11.372 3.409 16.149 2.272 3.697 5.481 6.711 8.17 10.092 1.344 1.692 18.012 18.537 18.347 18.08z" fill="#10529E"/><path d="M361.231 198.993a7.974 7.974 0 00-.34-2.271c-.5-1.614-1.966-2.801-2.422-4.43-1.769-2.726 2.662-5.411 4.877-4.727.954.296 1.529 1.118 2.432 1.483 1.416.574 3.289.343 4.794.401 1.902.074 3.845.156 5.617.853a8.63 8.63 0 014.924 5.116c.842 2.409.679 5.327 2.483 7.131 1.448 1.449 3.069 1.104 4.824 1.635 1.479.449 3.056 1.547 4.306 2.445 6.519 4.692 9.719 14.378 3.891 21.008-3 3.412-7.677 5.099-12.218 4.995-4.542-.104-8.938-1.86-12.703-4.405-2.41-1.629-4.748-3.857-5.096-6.744-.267-2.222.682-4.605-.236-6.645-1.337-2.973-5.704-3.563-6.044-7.142-.271-2.829.953-5.79.911-8.703z" fill="#13285E"/><path d="M387.482 249.585c-1.811-3.03-5.005-5.02-6.474-8.285-.761 1.159-3.206 1.837-4.436 2.425a162.47 162.47 0 01-5.409 2.465 165.134 165.134 0 01-10.864 4.274c.779-.276.822 3.957.572 4.449-.397.781-1.076 1.373-1.741 1.941-5.661 4.843-11.542 9.451-16.797 14.732-1.345 1.352-2.658 2.76-3.665 4.379-4.32 6.947-3.851 16.627-5.182 24.455a638.555 638.555 0 01-5.586 28.832c.851.489 11.117 1.192 11.067 1.298a147.31 147.31 0 009.94-29.012c.994-4.331 1.029-9.408 3.485-13.201 2.236-3.451 5.736-5.754 9.113-7.962 5.784-3.779 11.289-8.061 16.892-12.109 2.914-2.105 5.884-4.265 7.955-7.203 2.07-2.938 3.113-6.85 1.778-10.187a9.327 9.327 0 00-.648-1.291z" fill="#2D72C2"/><path d="M354.398 161.054c.697-.066 1.324.388 1.874.82.215.168.438.345.556.591.146.3.114.654.045.98-.038.18-.086.355-.144.528-.533 1.596-1.865 2.869-3.353 3.694-2.951 1.639-2.281-6.296 1.022-6.613z" fill="#E0AC9B"/><path d="M413.986 498.245l49.169-275.292-4.462-.795-49.311 276.087h4.604zm57.975 0l49.169-275.292-4.462-.795-49.311 276.087h4.604z" fill="#3C4B5E"/><path d="M478.816 449.019h-57.975l.165-5.014h57.975l-.165 5.014zm8.581-48.043h-57.975l.165-5.015h57.975l-.165 5.015zm8.581-48.046h-57.974l.165-5.014h57.975l-.166 5.014zm8.58-48.042h-57.975l.165-5.014h57.975l-.165 5.014zm8.582-48.045h-57.975l.166-5.015h57.975l-.166 5.015z" fill="#3C4B5E"/><path d="M65.952 414.275c-.675 3.744 3.47 3.374 5.991 2.973 3.959-.632 7.996-.056 11.997.198 1.49.094 3.272-.002 4.052-1.274a2.174 2.174 0 00-.133-2.403c-2.055-2.656-7.283-1.185-10.057-2.202-.693-.254-1.413-.66-1.784-1.288-.448-.754-.268-1.586-.073-2.318l.882-3.329c.142-.539.505-.969.825-1.395-1.85.068-3.949-.462-5.882-.806-1.663-.293-3.218-1.114-3.77.481-1.196 3.457-1.386 7.688-2.048 11.363z" fill="url(#paint9_linear)"/><path d="M19.543 359.308c-.028-1.299-.095-2.748.65-4.054 1.412-2.471 4.675-3.638 7.19-4.544 9.054-3.258 18.169-5.374 27.531-6.938 4-.669 8.238-1.18 12.048-1.403 3.81-.221 7.051-.438 10.614-.119 1.549.139 3.084.312 4.382.462 1.297.15 2.149.19 3.19.571 1.604.588 2.788.662 3.928 2.105 3.918 4.956 4.537 11.71 3.362 17.736-1.35 6.935-3.14 13.931-5.524 20.589-2.914 8.136-5.293 15.614-7.91 23.767-1.897-.231-11.96-2.565-13.76-2.773 1.457-14.341 3.006-25.975 5.406-39.755-11.15 1.687-19.342 5.137-30.688 6.809-8.352 1.229-16.602.12-19.913-8.796-.42-1.126-.477-2.358-.506-3.657z" fill="#32A560"/><path d="M61.894 303.282c2.866-2.17 5.661-4.493 8.16-7.066 1.506-1.551 2.901-3.225 4.587-4.578 1.685-1.353 3.734-2.39 5.895-2.392 4.958-.005 8.628 5.244 7.188 9.905-.733 2.37-2.643 4.882-4.77 6.179-1.403.857-3.204 1.2-4.713.548-.356-.155-.693-.361-1.064-.478-.833-.263-1.194.245-1.826.666a34.153 34.153 0 00-4.852 3.925c-1.219 1.185-2.432 2.55-4.33 2.289-.94-.13-1.802-.586-2.626-1.061-1.28-.738-2.484-1.565-3.399-2.741-.731-.943-1.319-2.474-.396-3.526.185-.211.413-.379.64-.544.502-.373 1.006-.748 1.506-1.126z" fill="#E0AC9B"/><path d="M42.24 391.409c.55-10.602.076-21.268-.403-31.859-.176-3.893-.345-7.835-1.245-11.642-.91-3.851-2.978-4.382-6.126-6.563-1.9-1.317-3.695-2.812-5.516-4.235-2.73-2.135-3.955-4.501-6.52-1.223-5.546 7.091-9.735 15.979-8.982 25.175.585 7.135 4.02 13.701 4.499 20.851.712 10.637 5.072 20.289 1.611 30.748-5.421 16.386-8.824 33.624-9.658 50.876 2.561-1.89 9.463-.403 12.4-.198 3.358.234 3.183-2.104 4.24-5.135a672.983 672.983 0 003.123-9.127c4.781-14.354 8.947-29.202 11.235-44.152.687-4.486 1.108-8.995 1.342-13.516z" fill="#47CF80"/><path d="M70.518 310.524c-.695-2.434-2.326-4.669-4.627-5.728-.82-.378-1.704-.601-2.582-.817-3.642-.892-8.83 3.489-11.814 5.354a119.87 119.87 0 00-12.047 8.619c-7.886 6.468-15.994 14.062-21.501 22.667 5.606 4.666 12.349 6.894 19.411 8.137a58.91 58.91 0 003.976.231c2.933.076 4.845-1.502 7.062-3.322 3.438-2.823 7.783-6.241 11.755-10.141 7.135-7.003 13.063-15.561 10.367-25z" fill="#2EAECB"/><path d="M122.624 334.811c-.345.008-.698.114-1.038.175-.778.139-1.597.168-2.386.201-.503.022-1.253-.008-1.486-.556-.206-.485.324-1.196.648-1.523.318-.322.686-.609.903-1.009.033-.062.064-.13.054-.201-.02-.157-.21-.224-.366-.236-.857-.063-1.62.533-2.191 1.175-.545.614-1.024 1.306-1.737 1.74-.721.437-1.436.828-2.238 1.117-1.765.634-3.598 1.051-5.44 1.39-.832.153-1.613.332-2.411.586-.404.129-.866.074-1.286.17a3.924 3.924 0 00-1.099.426c-1.151.671-1.861 2.066-1.644 3.381.214 1.316 1.388 2.435 2.719 2.511.708.041 1.4-.185 2.081-.38 1.838-.523 3.629-.979 5.417-1.698a31.096 31.096 0 011.887-.692c.457-.152.93-.295 1.41-.262.408.028.794.181 1.197.249.393.066.794.051 1.192.033 1.103-.051 2.245-.064 3.34-.228.78-.117 1.543-.775 2.057-1.356.594-.675 1.017-1.484 1.363-2.314.175-.42.334-.855.339-1.309.005-.454-.17-.933-.545-1.187a1.226 1.226 0 00-.74-.203z" fill="#E0AC9B"/><path d="M56.522 314.222c1.08-1.932 2.64-3.539 4.656-4.485 2.339-1.097 6.336-1.375 8.109.893 1.033 1.322.822 2.68.913 3.961.355 5.034.216 9.921 1.396 14.723.474 1.927.615 3.185 1.972 4.816 1.357 1.63 3.202 2.957 5.372 3.964 1.548.718 2.933 1.327 4.997 1.593 8.165 1.058 15.11-1.705 23.04-3.55.725-.164 2.99 6.664 2.458 7.414-.975 1.379-4.241 2.2-5.761 2.769-2.214.829-4.481 1.507-6.748 2.172-6.988 2.05-14.521 3.988-21.428 1.677-6.754-2.26-11.59-8.173-15.384-14.201-2.646-4.207-5.033-8.787-5.35-13.747-.175-2.739.426-5.616 1.758-7.999z" fill="url(#paint10_linear)"/><path d="M68.41 291.455c1.16-.956 2.653-1.618 3.558-2.834.796-1.071 1.083-2.509 2.083-3.392.768-.678 1.826-.908 2.842-1.051 3.087-.438 4.9.965 7.108 2.829 1.443 1.216 3.173 1.672 4.836 2.391 1.068.462 2.983.847 3.29 2.162.314 1.339-.632 3.225-1.93 3.714-1.826.687-4.015-.228-5.81-.457a5.585 5.585 0 00-3.991 1.038c-1.055.779-1.876 1.957-3.137 2.317-1.213.347-2.166-.244-3.317-.317-1.469-.092-2.778.875-4.211.504-1.073-.278-2.135-1.147-2.608-2.139a3.78 3.78 0 01.161-3.503c.294-.496.685-.901 1.126-1.262z" fill="#1E242B"/><path opacity=".72" d="M76.415 305.383a48.951 48.951 0 01-1.383-1.036 9.38 9.38 0 01-1.648-1.605c.182.23-.924 2.694-1.046 3.065-.312.944-.907 2.134-.95 3.115.175-.127.342-.261.512-.393 1.3-1.327 2.792-2.446 4.515-3.146z" fill="url(#paint11_linear)"/><path d="M81.234 302.284c.218 1.219 1.627 2.074 2.809 1.705" stroke="url(#paint12_linear)" stroke-width=".5" stroke-miterlimit="10"/><path d="M452.721 165.992c-.982 1.536-1.981 3.23-1.804 5.078.305 3.199 4.198 5.232 7.365 4.67 3.166-.563 5.613-2.917 7.624-5.351a49.97 49.97 0 009.198-17.073c1.021-3.309 1.681-8.361-2.352-10.294-3.068-1.47-4.737 1.801-6.247 3.823-4.72 6.316-9.528 12.492-13.784 19.147z" fill="#0A418A"/><path d="M499.302 103.706c-.723.606-1.389 1.324-1.719 2.207-.309.825-.304 1.734-.228 2.614a17.802 17.802 0 001.304 5.321c.146.348.326.716.664.882.178.087.381.105.58.125 2.312.218 4.614.571 6.886 1.056-.669-1.827-1.316-3.822-.732-5.677.188.485.451.94.779 1.345.179.221.416.442.7.422.415-.029.601-.533.636-.945.064-.783-.066-1.575.036-2.354.177-1.347 1.032-2.514 2.008-3.459.323-.314.67-.621.876-1.022.265-.518.255-1.154.032-1.692-.225-.536-.647-.977-1.144-1.281-.827-.503-1.77-.572-2.698-.371-.867.19-1.758.163-2.635.327a11.728 11.728 0 00-5.345 2.502z" fill="#F9FBFC"/><path d="M416.119 281.024a2.554 2.554 0 00-.112 1.762c.507 1.808 1.953 3.281 3.128 4.679a35.82 35.82 0 013.984 5.82c.957 1.746 1.813 3.643 3.219 5.085 1.628 1.669 3.071 1.789 5.291 1.284.456-.104.935-.219 1.275-.54.555-.523.553-1.409.355-2.145-.494-1.84-1.886-3.276-2.914-4.881-5.749-8.967 2.485-15.493 3.995-24.064.136-.772.23-1.573.045-2.333-.185-.761-.7-1.484-1.448-1.724-.415-.132-.864-.107-1.291-.029-2.98.535-5.465 3.269-6.916 5.732a51.29 51.29 0 01-6.546 8.8c-.764.827-1.659 1.608-2.065 2.554zm56.06 15.016c-.286 2.058.04 3.85 2.868 3.895 4.582.073 9.162.338 13.722.794 2.272.228 3.746.092 5.913-.675 1.039-.368 2.104-1.047 2.348-2.119.262-1.149-.553-2.318-1.587-2.887-1.031-.568-2.241-.688-3.407-.868-2.452-.378-6.022-.512-7.614-2.653-1.418-1.906-1.307-4.621-1.293-6.872.012-1.613.185-3.227.078-4.838-.107-1.609-.527-3.256-1.557-4.499-5.119-6.176-8.997 4.273-9.032 8.277-.025 2.927.84 5.868.324 8.749-.197 1.113-.591 2.453-.763 3.696z" fill="#DBB82C"/><path d="M510.577 98.88c-1.02-.583-2.162-.964-3.242-.713-1.144.264-2.13 1.292-2.141 2.466-.002.247.038.5.145.724.286.591.967.865 1.603 1.025.636.16 1.322.274 1.811.712.345.31.84 1.096.622 1.583-.303.678-1.198.45-1.655.122-.286-.207-.555-.453-.889-.566-.333-.116-.764-.055-.944.249-.134.224-.092.515.02.751.396.833 1.187 1.257 2.009 1.589.882.357 1.831.647 2.508 1.316.979.967 1.144 2.46 1.348 3.82.225 1.488.833 3.315 2.322 3.986 1.677.756 2.871-1 3.003-2.467.19-2.108-1.486-4.092-2.034-6.049-.271-.966-.264-1.984-.367-2.983-.173-1.708-1.084-3.231-2.384-4.329a11.98 11.98 0 00-1.735-1.236zm-37.561 33.302c-.687-2.869-1.436-5.726-1.285-8.652.058-1.109.253-2.232.771-3.214.57-1.077 1.496-1.927 2.5-2.621.941-.651 1.979-1.191 3.102-1.411 1.771-.345 3.774.047 5.405.764 2.136.94 2.917 2.61 3.228 4.896.095.705.107 1.418.118 2.131.03 1.878.052 3.779-.289 5.634-.33 1.803-1.355 3.151-1.466 4.99-.143 2.371.455 4.77.004 7.126-.378 1.976-2.31 2.788-4.212 2.933-2.583.198-5.933.101-6.645-2.957-.249-1.068-.171-2.181-.201-3.278-.061-2.141-.528-4.245-1.03-6.341z" fill="#E0AC9B"/><path d="M473.552 179.103c-1.173-.708-2.57-1.253-4.218-1.599-3.27-.688-6.821.086-9.509 2.071-3.422 2.527-4.794 6.327-5.504 10.369-.847 4.826-2.075 9.638-3.531 14.341-3.18 10.274-7.621 20.097-12.044 29.881l-17.557 38.835c.333.31.682.607 1.017.914 2.983 2.406 6.158 4.568 9.266 6.815 4.527-4.305 8.397-10.132 11.903-15.041 4.194-5.872 8.035-11.989 11.634-18.243 7.154-12.428 13.338-25.379 19.499-38.317 3.837-8.05 8.938-24.066-.956-30.026z" fill="#32A560"/><path d="M467.568 203.454c.276.811.355 1.672.432 2.524.951 10.5 1.906 21.006 2.583 31.529.245 3.814.453 7.632.614 11.451.254 6.067-.525 11.93-.588 18.022-.069 6.654-.502 13.331.051 19.974 4.779-.358 9.531-1.027 14.297-1.54.269-1.146.312-2.489.475-3.654 1.293-9.202 2.18-18.464 3.814-27.616 1.849-10.354 3.7-20.979 2.699-31.562-1.053-11.166-2.215-22.391-3.077-33.583-.286-3.707-.733-7.772-3.421-10.343-.954-.913-2.126-1.561-3.283-2.199-2.061-1.133-4.119-2.269-6.18-3.403-6.567-3.618-11.274 1.461-13.148 7.752-1.941 6.52-.84 13.878 2.926 19.542.665 1 1.418 1.969 1.806 3.106z" fill="#47CF80"/><path d="M520.985 126.149c-1.839-.053-3.674.594-5.321 1.451-3.284 1.705-6.041 4.22-9.212 6.104-3.002 1.78-6.668 4.438-10.143 5.048-3.002.528-6.621.094-9.672.028-7.102-.156-13.925.2-18.717 6.186-6.675 8.335-3.793 18.42-7.448 27.662a398.078 398.078 0 01-6.488 15.456c-.328.737-.655 1.607-.269 2.315 1.362 2.489 12.649 1.497 14.956 1.609l10.706.52c2.158.104 8.165 1.329 9.476-.142.779-.873.863-4.02 1.118-5.199l1.124-5.22 2.154-10.007c.827-3.846 1.666-7.721 3.228-11.331 1.415-3.271 3.676-7.103 6.949-8.792 3.628-1.871 7.092-3.872 10.425-6.347 2.808-2.087 5.479-4.374 7.827-6.975 1.885-2.09 4.987-5.175 4.583-8.254-.279-2.125-2.31-3.711-4.428-4.034a6.202 6.202 0 00-.848-.078z" fill="#10529E"/><path d="M472.846 118.212c1.728-1.733 4.022-2.88 6.386-3.575 2.377-.7 7.242-1.089 7.775 2.311.18 1.147-.369 2.274-.97 3.266-1.308 2.164-2.219 3.818-2.462 6.336-.193 2.017-.627 4.194-2.158 5.52-.696.604-1.566.973-2.45 1.234-2.149.632-4.723.553-6.324-1.015-3.294-3.223-3.383-9.63-.629-13.138.257-.33.536-.643.832-.939z" fill="#13285E"/><path d="M484.927 124.591c-.482-.903-1.723-.814-2.242 0-.622.976-.094 2.601.307 3.559.405.965 2.003.541 1.592-.439a7.103 7.103 0 01-.39-1.181 4.774 4.774 0 01-.096-.572c-.006-.045-.006-.091-.01-.137.572.044 1.197-.56.839-1.23z" fill="#E0AC9B"/><path d="M524.011 119.846a148.403 148.403 0 00-4.59-8.903c-.664-1.186-1.347-2.37-2.182-3.443-.108-.138-.236-.26-.352-.392-.794.379-1.58.775-2.384 1.132-1.575.698-3.216 1.518-4.915 1.971.023.166.035.335.066.5.073.396.156.789.246 1.178.907 3.837 2.723 7.391 4.047 11.093 1.479 4.133 2.352 8.315 4.573 12.181.531.924 1.339 1.762 2.38 1.993 1.458.324 2.918-.63 3.847-1.799 1.535-1.929 2.135-4.494 1.984-6.956-.189-3.036-1.441-5.85-2.72-8.555z" fill="#10529E"/><path d="M75.938 295.436c-.701.361-1.424 1.073-1.479 1.903-.054.84.515 1.452 1.31 1.553.192.091.4.152.617.16.86.04 1.775-.541 2.157-1.299.885-1.751-1.04-3.124-2.605-2.317zm193.744-120.044l1.417-7.603c.554-2.929 5.548-1.416 5.299 1.874l-1.441 7.24-5.275-1.511z" fill="#E0AC9B"/><path d="M273.18 158.207c-.409 1.972-1.819 6.082-2.527 8.511-.495 2.154-1.364 4.021-.641 5.323.468.845 1.295 1.604 2.648 2.137 1.414.557 2.439-.559 3.107-1.762.532-.713 1.286-2.27 1.603-3.166a7.8 7.8 0 00.119-.285.986.986 0 00.154-.298c.252-.831.713-1.561.602-2.454-.061-.493-.672-.785-1.114-.677a.872.872 0 00-.172.062c.099-.388-.001-.801-.378-1.035-.388-.243-1.051-.155-1.271.293-.079.164-.157.327-.229.491l-.037-.015c.055-.127.113-.254.175-.378.535-1.052-1.027-2.035-1.565-.977-.135.267-.365.81-.365.81-.3-.046-.3-.046-.094-.561.563-1.913.89-3.08 1.296-5.032.193-.939-1.116-1.926-1.311-.987z" fill="#E0AC9B"/><path d="M267.087 166.352c-.799-.561-2.018.677-1.143 1.112 1.871.931 2.956 2.4 4.471 4.902.504.829 1.606-1.401.964-2.137-1.557-1.788-1.911-2.202-4.292-3.877z" fill="#E0AC9B"/><path d="M273.846 164.762a7.984 7.984 0 01-1.402 3.082c-.57.767.588 1.708 1.159.936a9.82 9.82 0 001.717-3.795c.203-.937-1.271-1.159-1.474-.223z" fill="url(#paint13_linear)"/><path d="M276.236 165.101c-.337-.145-.862-.002-.98.386l-.773 2.527c-.117.383-.013.809.386.98.337.146.862.002.981-.386l.773-2.527c.117-.383.013-.808-.387-.98z" fill="url(#paint14_linear)"/><path d="M277.824 165.893c-.332-.145-.868-.003-.98.386-.212.726-.421 1.453-.633 2.179-.112.386-.016.805.387.98.332.145.868.003.98-.386l.633-2.179c.112-.386.016-.805-.387-.98z" fill="url(#paint15_linear)"/><path d="M197.504 234.622c-.47-.234.314-2.56.956-2.49 2.379.173 5.3-.07 7.193 1.13.491.311-.602 2.012-1.088 1.704-1.434-.91-3.575-.466-5.461-.426-.655.044-1.065.35-1.6.082z" fill="#E0AC9B"/><path d="M213.599 350.765c-.366-2.755-1.633-5.001-4.984-5.191-7.173-.406-3.366 7.929-6.729 10.997-.682.622-1.565 1.002-2.448 1.334a31.635 31.635 0 01-3.926 1.186c-1.633.382-3.583.872-4.022 2.435-.14.498-.092 1.045.081 1.551.596 1.755 2.574 2.854 4.454 3.027 1.881.174 3.698-.384 5.455-.937l9.81-3.08c.465-.147.951-.304 1.279-.649.421-.442.497-1.096.548-1.708.183-2.192.892-5.895.482-8.965z" fill="#F5DB47"/><path d="M217.142 182.15c-.092 1.235-.621 6.729-.611 7.825.017 1.92 3.507 10.515 5.41 10.477 2.087-.041 5.24-8.361 5.245-10.342.008-2.695-.489-8.027-.489-8.064-1.36-7.018-9.172-4.951-9.555.104z" fill="#E0AC9B"/><path d="M241.036 235.532H201.85v20.954h39.186v-20.954z" fill="#10529E"/><path d="M226.866 184.038c-.093-1.155-.169-1.979-.169-1.992-1.36-7.018-9.172-4.951-9.553.104-.037.489-.142 1.647-.255 2.936.116.17.24.316.382.423 2.64 2.228 6.688 1.705 9.595-1.471z" fill="url(#paint16_linear)"/><path d="M222.336 249.089c-.03-1.837-.223-3.616-1.38-5.472a10.432 10.432 0 00-8.788-4.877c-9.744.002-9.993 10.793-11.069 18.093-1.498 10.145-.705 20.598-.529 30.867.091 5.267 1.72 65.351 1.965 65.329 4.066-.414 8.139-.569 12.221-.399.596-1.433.322-3.228.43-5.326a889.426 889.426 0 016.625-71.7c.655-4.914 1.36-9.842 1.467-14.805.088-4.011-.878-7.794-.942-11.71z" fill="#10529E"/><path d="M230.141 349.849c.352-2.768 1.562-5.061 4.768-5.371 6.861-.663 3.219 7.808 6.437 10.755.652.597 1.497.945 2.341 1.246 1.22.432 2.475.78 3.754 1.044 1.562.322 3.427.743 3.848 2.291.134.494.088 1.042-.077 1.555-.57 1.776-2.462 2.946-4.261 3.187-1.8.241-3.536-.252-5.217-.741-3.129-.909-6.255-1.819-9.384-2.727-.446-.13-.909-.27-1.223-.602-.403-.426-.476-1.079-.525-1.688-.175-2.186-.854-5.865-.461-8.949z" fill="#F5DB47"/><path d="M220.371 248.211c.027-1.55.177-3.087.55-4.594 1.304-5.268 9.012-12.839 15.015-9.688.976.512 1.715 1.378 2.346 2.281 3.211 4.598 3.534 9.989 3.799 15.401.939 19.172.982 38.378.46 57.562-.081 2.941-1.966 42.881-1.332 42.945-4.066-.414-8.139-.569-12.222-.399-.596-1.433-.322-3.229-.429-5.326a887.655 887.655 0 00-1.563-23.957c-1.797-22.795-4.319-45.492-6.313-68.269-.172-1.974-.344-3.974-.311-5.956z" fill="#2D72C2"/><path d="M239.721 196.166c-.277-1.226.233-2.515-.08-3.761-.445-1.771-1.894-2.367-3.547-2.725l-8.948-1.935c-.505 1.862-2.075 3.395-3.948 3.854-1.874.461-3.976-.171-5.285-1.588-.487-.526-.91-1.178-1.587-1.416-.315-.11-.655-.117-.988-.118a27.776 27.776 0 00-6.629.798c-.626.154-1.255.334-1.811.659-1.192.7-1.92 2.01-2.222 3.359-.494 2.195-.266 4.722-.348 6.998-.07 1.929-.103 3.858-.131 5.79-.072 5.068-.082 10.138-.079 15.209a2576.38 2576.38 0 00.139 24.476h34.961s1.36-45.807.503-49.6z" fill="#F5DB47"/><path d="M227.457 167.675c-1.333-.731-3.883.071-5.41 0-1.527.071-3.885.047-5.11.949-2.59 1.912-2.876 5.964-1.978 8.996.151.508.461 1.769.626 2.272.915 2.803 2.462 3.562 3.323 4.224 2.033 1.563 4.757 1.723 6.834.124 1.193-.92 1.858-2.352 2.403-3.755.971-2.494 1.613-4.825 1.415-7.516-.122-1.669-.439-4.379-2.103-5.294z" fill="#E0AC9B"/><path d="M225.436 220.925c.385-5.566.872-11.126 1.44-16.677.549-5.364.64-11.249 1.946-16.476 3.677.675 7.395 1.602 11.076 2.391 1.674.358 3.588.905 4.261 2.479.317.74.286 1.575.251 2.379-.081 1.818-.226 3.593.033 5.365a42.38 42.38 0 01.441 6.072 450.575 450.575 0 01-.172 41.434c-.086 1.713.522 7.148-.479 8.446-1.652 2.14-11.384.719-14.351.719-6.782 0-5.435-6.118-5.407-11.21.035-6.49.255-12.979.619-19.459.103-1.822.217-3.643.342-5.463zm-6.944-.236c-.213-3.148-.424-6.297-.635-9.444-.464-6.894-.514-14.415-2.434-21.098-1.078-3.75-3.681-1.982-7.103-1.228-1.841.404-4.871.632-6.437 1.771-4.517 3.281-3.92 8.993-3.2 13.933a725.64 725.64 0 012.219 16.553c.634 5.184 1.874 10.107 1.288 15.336l-1.874 16.719c-.104.923-.203 1.875.074 2.762.979 3.117 7.106 1.29 9.511 1.188 1.346-.058 2.691-.122 4.038-.122 4.573 0 6.833-2.529 6.536-6.949l-1.983-29.421zm50.325-46.336c-2.598 8.012-4.822 16.173-6.727 24.376-.686 2.951.142 7.153 3.181 8.589 1.841.87 4.134.301 5.689-1.015 3.201-2.707 3.331-7.122 3.759-10.966.172-1.533 1.71-19.257 1.433-19.292-2.495-.322-4.93-.964-7.335-1.692z" fill="#47CF80"/><path d="M258.372 209.439a47.682 47.682 0 004.68-.307c2.925-.343 5.963-1.061 8.139-3.045 2.475-2.256 3.516-7.346.135-9.31-2.778-1.614-6.375-.758-9.415-1.071-3.34-.344-7.036-.964-10.191-2.148-3.277-1.229-6.224-2.675-9.727-3.287-4.096-.717-8.857.084-9.56 4.944-.311 2.14.365 4.33 1.476 6.185 1.125 1.88 2.699 3.647 4.34 5.098 1.545 1.367 3.315 1.395 5.303 1.692 4.903.736 9.852 1.338 14.82 1.249z" fill="#47CF80"/><path d="M197.717 231.389c.628.079 1.854.576 2.589 1.398.783.878 1.984 2.263 2.396 2.589 1.926 1.534 4.006 2.834 6.209 3.942.652.328.028 1.591-.628 1.261a37.878 37.878 0 01-5.042-3.039c-.117.172-.236.34-.36.507a24.087 24.087 0 006.682 4.851c.657.321.031 1.584-.628 1.261a25.064 25.064 0 01-6.932-5.01c-.114.132-.226.264-.343.393a17.661 17.661 0 006.006 4.907c.654.328.028 1.591-.628 1.261a18.826 18.826 0 01-6.349-5.169c-.134.127-.269.252-.406.376.979 1.655 2.158 3.103 3.987 3.791.692.261.089 1.566-.601 1.307-2.011-.756-3.337-2.36-4.39-4.126l-.021.017c-1.273-1.217-2.312-2.266-3.324-3.516-.911-1.124-1.584-2.302-1.956-3.654-.507-1.857 2.617-3.487 3.739-3.347z" fill="#E0AC9B"/><path d="M199.644 231.638c.094-.188.19-.376.284-.566l-17.419-17.87a4.583 4.583 0 00-.389-.51s-.127-.166-.141-.155c-.08-.086-.147-.18-.234-.259-1.796-1.627-4.431-1.426-6.242.066-1.973 1.624-1.775 5.009-.885 7.166l.091.215c.749 1.705 1.954 3.176 3.203 4.562a63.779 63.779 0 0017.894 13.847c1.063-2.29 2.408-4.415 3.838-6.496z" fill="#47CF80"/><path d="M215.247 175.401c0 .74-.335 1.337-.75 1.337-.414 0-.749-.599-.749-1.337 0-.739.335-1.337.749-1.337.415 0 .75.598.75 1.337zm15.087 0c0 .74-.335 1.337-.749 1.337-.415 0-.75-.599-.75-1.337 0-.739.335-1.337.75-1.337.414 0 .749.598.749 1.337z" fill="#E0AC9B"/><path d="M208.925 190.622a4.859 4.859 0 00-1.641-.876c-3.156-.956-7.445.944-10.088 2.601-3.368 2.112-6.285 4.882-9.348 7.397-3.58 2.943-9.849 9.291-12.575 12.309-.024.022-.052.037-.076.06a4.633 4.633 0 00-.166 6.552c2.704 2.844 7.176.641 10.007-.838 7.535-3.937 15.138-7.916 21.652-13.376 2.623-2.198 4.778-5.86 4.497-9.407-.132-1.692-.959-3.372-2.262-4.422z" fill="#47CF80"/><path d="M230.29 169.684c-.063-1.642-.289-3.359-1.309-4.638-.464-.582-1.069-1.038-1.698-1.436-1.231-.782-2.615-1.381-4.071-1.465-.852-.048-1.705.08-2.539.265-1.274.283-2.55.707-3.576 1.514-1.441 1.134-2.248 2.924-2.554 4.732-.25 1.493-.198 3.022-.08 4.525.044.583.242 1.047.333 1.611.116.725.026 1.477.081 2.209.147 2.015.467 4.203 1.74 5.846 1.897 2.918 6.658 4.429 9.473 1.993 1.667-1.442 2.215-3.664 2.678-5.725.667-2.971 1.622-6.128 1.532-9.185l-.01-.246zm-9.711 12.23a3.93 3.93 0 01-.284-.157c-.64-.398-1.142-1.038-1.296-1.776a.637.637 0 01-.015-.234.242.242 0 01.01-.045c.103-.346.923-.567 1.237-.665a6.097 6.097 0 011.7-.279c.996-.011 2.721.02 3.48.774.255.253-.256 1.197-.424 1.454a2.85 2.85 0 01-1.497 1.164c-.334.106-.684.15-1.034.155-.645.013-1.301-.107-1.877-.391zm7.593-7.734c-.185 1.04-.273 2.485-.913 3.37a1.945 1.945 0 01-.195.233c-.622.62-1.225.119-1.989-.127a10.49 10.49 0 00-2.477-.454c-.725-.051-1.494-.025-2.2.158-.641.167-1.174.558-1.82.758-.28.086-.573.157-.863.132-.292-.026-.588-.163-.74-.414-.576-.941-.545-2.618-.639-3.681a35.102 35.102 0 00-.087-1.855c-.003-.033-.018-.054-.025-.086.101-1.058.401-2.028 1.346-2.855.629-.636 1.573-1.033 2.431-.786.667.193 1.172.728 1.778 1.068 1.541.867 2.61-.049 4.118-.297.403-.066.827-.111 1.211.028.433.157.758.531.943.952.185.421.243.885.269 1.344a10.74 10.74 0 01-.148 2.512z" fill="#13285E"/><path d="M219.618 180.069c.378.916 1.295 1.89 2.657 1.865 1.492-.026 2.106-1.104 2.535-2.048l-5.192.183z" fill="#fff"/><path opacity=".35" d="M484.386 8.93c-.037-1.059-1.688-1.064-1.651 0 .168 5.021.066 10.027-.306 15.037-.079 1.06 1.572 1.054 1.651 0 .373-5.01.474-10.017.306-15.036zm-26.537 33.877c-15.689 11.246-24.529 37.28-12.568 54.226.607.862 2.04.038 1.424-.833-11.409-16.165-3.029-41.211 11.978-51.969.855-.612.033-2.045-.834-1.424z" fill="#F9FBFC"/></g><defs><linearGradient id="paint0_linear" x1="33.411" y1="466.055" x2="9.429" y2="466.055" gradientUnits="userSpaceOnUse"><stop offset=".018" stop-color="#022A5D"/><stop offset="1" stop-color="#0C4691"/></linearGradient><linearGradient id="paint1_linear" x1="503.258" y1="267.562" x2="501.232" y2="489.477" gradientUnits="userSpaceOnUse"><stop offset=".228" stop-color="#5296BA"/><stop offset=".443" stop-color="#4F95B9"/><stop offset=".619" stop-color="#4593B5"/><stop offset=".782" stop-color="#338FAF"/><stop offset=".936" stop-color="#1B8AA7"/><stop offset="1" stop-color="#0F87A3"/></linearGradient><linearGradient id="paint2_linear" x1="370.406" y1="253.766" x2="368.26" y2="488.904" gradientUnits="userSpaceOnUse"><stop offset=".228" stop-color="#5296BA"/><stop offset=".443" stop-color="#4F95B9"/><stop offset=".619" stop-color="#4593B5"/><stop offset=".782" stop-color="#338FAF"/><stop offset=".936" stop-color="#1B8AA7"/><stop offset="1" stop-color="#0F87A3"/></linearGradient><linearGradient id="paint3_linear" x1="244.782" y1="252.61" x2="242.635" y2="487.773" gradientUnits="userSpaceOnUse"><stop offset=".228" stop-color="#5296BA"/><stop offset=".443" stop-color="#4F95B9"/><stop offset=".619" stop-color="#4593B5"/><stop offset=".782" stop-color="#338FAF"/><stop offset=".936" stop-color="#1B8AA7"/><stop offset="1" stop-color="#0F87A3"/></linearGradient><linearGradient id="paint4_linear" x1="121.18" y1="251.481" x2="119.033" y2="486.645" gradientUnits="userSpaceOnUse"><stop offset=".228" stop-color="#5296BA"/><stop offset=".443" stop-color="#4F95B9"/><stop offset=".619" stop-color="#4593B5"/><stop offset=".782" stop-color="#338FAF"/><stop offset=".936" stop-color="#1B8AA7"/><stop offset="1" stop-color="#0F87A3"/></linearGradient><linearGradient id="paint5_linear" x1="491.981" y1="267.562" x2="489.956" y2="489.477" gradientUnits="userSpaceOnUse"><stop offset=".228" stop-color="#91E3FA"/><stop offset=".417" stop-color="#8EE1F8"/><stop offset=".572" stop-color="#84DAF2"/><stop offset=".715" stop-color="#72CFE7"/><stop offset=".851" stop-color="#5ABFD8"/><stop offset=".98" stop-color="#3BABC5"/><stop offset="1" stop-color="#36A8C2"/></linearGradient><linearGradient id="paint6_linear" x1="358.305" y1="253.749" x2="356.158" y2="488.913" gradientUnits="userSpaceOnUse"><stop offset=".228" stop-color="#91E3FA"/><stop offset=".417" stop-color="#8EE1F8"/><stop offset=".572" stop-color="#84DAF2"/><stop offset=".715" stop-color="#72CFE7"/><stop offset=".851" stop-color="#5ABFD8"/><stop offset=".98" stop-color="#3BABC5"/><stop offset="1" stop-color="#36A8C2"/></linearGradient><linearGradient id="paint7_linear" x1="233.506" y1="252.61" x2="231.359" y2="487.773" gradientUnits="userSpaceOnUse"><stop offset=".228" stop-color="#91E3FA"/><stop offset=".417" stop-color="#8EE1F8"/><stop offset=".572" stop-color="#84DAF2"/><stop offset=".715" stop-color="#72CFE7"/><stop offset=".851" stop-color="#5ABFD8"/><stop offset=".98" stop-color="#3BABC5"/><stop offset="1" stop-color="#36A8C2"/></linearGradient><linearGradient id="paint8_linear" x1="109.904" y1="251.481" x2="107.757" y2="486.645" gradientUnits="userSpaceOnUse"><stop offset=".228" stop-color="#91E3FA"/><stop offset=".417" stop-color="#8EE1F8"/><stop offset=".572" stop-color="#84DAF2"/><stop offset=".715" stop-color="#72CFE7"/><stop offset=".851" stop-color="#5ABFD8"/><stop offset=".98" stop-color="#3BABC5"/><stop offset="1" stop-color="#36A8C2"/></linearGradient><linearGradient id="paint9_linear" x1="87.244" y1="409.724" x2="65.633" y2="414.147" gradientUnits="userSpaceOnUse"><stop offset=".018" stop-color="#022A5D"/><stop offset="1" stop-color="#0C4691"/></linearGradient><linearGradient id="paint10_linear" x1="54.733" y1="330.064" x2="109.515" y2="330.064" gradientUnits="userSpaceOnUse"><stop offset="0" stop-color="#2D7791"/><stop offset="1" stop-color="#15A4A6"/></linearGradient><linearGradient id="paint11_linear" x1="77.032" y1="305.833" x2="71.387" y2="305.833" gradientUnits="userSpaceOnUse"><stop offset="0" stop-color="#BA7461"/><stop offset="1" stop-color="#E0AC9B"/></linearGradient><linearGradient id="paint12_linear" x1="80.828" y1="303.35" x2="84.165" y2="303.35" gradientUnits="userSpaceOnUse"><stop offset=".018" stop-color="#022A5D"/><stop offset="1" stop-color="#0C4691"/></linearGradient><linearGradient id="paint13_linear" x1="272.21" y1="168.578" x2="275.43" y2="164.588" gradientUnits="userSpaceOnUse"><stop offset="0" stop-color="#BA7461"/><stop offset="1" stop-color="#E0AC9B"/></linearGradient><linearGradient id="paint14_linear" x1="274.314" y1="168.581" x2="276.791" y2="165.512" gradientUnits="userSpaceOnUse"><stop offset="0" stop-color="#BA7461"/><stop offset="1" stop-color="#E0AC9B"/></linearGradient><linearGradient id="paint15_linear" x1="276.086" y1="169.06" x2="278.337" y2="166.27" gradientUnits="userSpaceOnUse"><stop offset="0" stop-color="#BA7461"/><stop offset="1" stop-color="#E0AC9B"/></linearGradient><linearGradient id="paint16_linear" x1="221.876" y1="172.81" x2="221.876" y2="189.144" gradientUnits="userSpaceOnUse"><stop offset="0" stop-color="#BA7461"/><stop offset="1" stop-color="#E0AC9B"/></linearGradient><clipPath id="clip0"><path fill="#fff" d="M0 0h559v503H0z"/></clipPath></defs></svg>