<svg width="627" height="691" fill="none" xmlns="http://www.w3.org/2000/svg"><path opacity=".1" fill-rule="evenodd" clip-rule="evenodd" d="M127.151 240.092c27.375-39.229 70.515-59.818 110.955-85.371 48.172-30.439 91.224-87.18 147.448-77.91 56.134 9.256 84.612 72.536 114.299 121.068 24.697 40.377 35.247 85.381 40.736 132.392 5.506 47.154 10.554 95.42-9.089 138.64-20.784 45.729-57.619 82.357-102.024 105.836-46.374 24.521-99.251 36.753-150.961 27.929-52.778-9.006-100.49-37.338-136.478-76.98-35.872-39.514-60.33-89.573-63.108-142.869-2.68-51.41 18.762-100.518 48.222-142.735z" fill="url(#paint0_linear)"/><defs><linearGradient id="paint0_linear" x1=".576" y1="460.572" x2="567.579" y2="81.232" gradientUnits="userSpaceOnUse"><stop stop-color="#02C39A"/><stop offset="1" stop-color="#028090"/></linearGradient></defs></svg>