<svg width="223" height="761" fill="none" xmlns="http://www.w3.org/2000/svg"><path fill-rule="evenodd" clip-rule="evenodd" d="M-298.412 87.725c-53.539 21.026-97.935 60.193-128.18 109.134-30.646 49.59-48.166 107.566-41.545 165.508 6.535 57.199 43.384 103.249 77.548 149.589 37.617 51.022 71.728 107.668 130.174 132.162 64.705 27.118 143.312 41.523 205.106 8.354C5.47 619.848 18.08 541.109 47.648 478.761c26.326-55.514 62.459-108.173 59.836-169.575C104.786 246 79.197 183.025 33.167 139.657c-43.953-41.41-107.326-48.45-166.962-57.79-55.613-8.711-112.233-14.716-164.617 5.858z" fill="#47CF80"/></svg>