<svg width="194" height="194" fill="none" xmlns="http://www.w3.org/2000/svg"><g filter="url(#filter0_d)"><rect x="85.427" y="28" width="80" height="80" rx="10" transform="rotate(45 85.427 28)" fill="#fff"/></g><g clip-path="url(#clip0)" fill="#47CF80" stroke="#47CF80" stroke-width=".4"><path d="M85.84 79.517v2.03c0 .763.621 1.384 1.385 1.384h.282v4.026l-1.567 1.567a.733.733 0 00-.215.518v1.625a.733.733 0 101.466 0v-1.321l1.567-1.567a.733.733 0 00.215-.518v-4.33h.282c.763 0 1.384-.62 1.384-1.384v-2.03c0-.764-.621-1.385-1.384-1.385h-2.03c-.764 0-1.385.621-1.385 1.385zm1.466.081h1.867v1.867h-1.867v-1.867zm-10.466-2.5c-.763 0-1.384.621-1.384 1.385v2.47c0 .764.621 1.385 1.384 1.385h2.471c.763 0 1.384-.621 1.384-1.385v-2.47c0-.764-.62-1.385-1.384-1.385h-2.47zm2.39 3.774h-2.308v-2.308h2.308v2.308zm-.684-8.641v1.5c0 .764.621 1.385 1.385 1.385h1.5c.763 0 1.384-.621 1.384-1.385v-1.5c0-.763-.621-1.384-1.385-1.384h-1.5c-.763 0-1.384.621-1.384 1.385zm1.466.082h1.337v1.337h-1.337v-1.337zM67.194 86.588c0-.764-.621-1.385-1.385-1.385h-1.5c-.763 0-1.384.621-1.384 1.385v1.5c0 .763.621 1.384 1.385 1.384h1.5c.763 0 1.384-.621 1.384-1.385v-1.5zm-1.466 1.418H64.39v-1.337h1.337v1.337h0zm5.072 4.27h-2.458c-.763 0-1.384.621-1.384 1.385v2.457c0 .764.62 1.385 1.384 1.385H70.8c.763 0 1.384-.621 1.384-1.385v-2.457c0-.764-.62-1.385-1.384-1.385zm-.082 3.76h-2.294v-2.294h2.294v2.295z"/><path d="M102.076 80.376c0-.671-.042-1.35-.124-2.018a.733.733 0 00-1.455.18c.075.608.113 1.226.113 1.838 0 4.132-1.652 7.975-4.652 10.82-2.076 1.969-3.744 4.425-4.848 7.13h-.834V94.22l3.282-3.282a.733.733 0 00.215-.518v-1.847a1.23 1.23 0 001.215-1.228v-1.602a1.23 1.23 0 00-1.229-1.228h-1.602a1.23 1.23 0 00-1.229 1.228v1.602a1.23 1.23 0 001.229 1.229h.15v1.543l-3.282 3.281a.733.733 0 00-.215.519v4.407h-1.619V93.79a.733.733 0 10-1.466 0v4.534H83.3v-9.112h.282c.764 0 1.385-.621 1.385-1.384v-2.03c0-.764-.621-1.385-1.385-1.385h-2.03c-.763 0-1.384.621-1.384 1.384v2.03c0 .764.62 1.385 1.384 1.385h.282v9.112h-1.552a21.184 21.184 0 00-3.694-5.912.733.733 0 10-1.1.968 19.77 19.77 0 013.304 5.183 2.521 2.521 0 00-1.45 2.279 2.522 2.522 0 002.397 2.516v1.045c0 .928.596 1.718 1.425 2.01A4.204 4.204 0 0085.317 110h.76a4.204 4.204 0 004.154-3.586 2.134 2.134 0 001.425-2.01v-1.045a2.522 2.522 0 002.396-2.516 2.521 2.521 0 00-1.452-2.28 19.109 19.109 0 014.367-6.304c3.295-3.124 5.109-7.345 5.109-11.883zm-9.681 5.606h1.127v1.127h-1.128v-1.127zm-10.761-.102h1.867v1.867h-1.867V85.88zm4.444 22.654h-.76a2.738 2.738 0 01-2.633-2h6.026a2.738 2.738 0 01-2.633 2zm5.456-6.638h-2.417a.733.733 0 100 1.466h1.073v1.042a.665.665 0 01-.664.664H81.87a.665.665 0 01-.665-.664v-1.042h4.79a.733.733 0 100-1.466H79.86a1.053 1.053 0 11.005-2.104h11.669-.006l.047.002h.029a1.053 1.053 0 01-.07 2.101zm-20.749-21.52c0-3.144.974-6.154 2.817-8.705a.733.733 0 10-1.188-.859 16.234 16.234 0 00-3.095 9.564c0 3.94 1.421 7.75 4.002 10.725a.731.731 0 001.034.073.733.733 0 00.074-1.034 14.902 14.902 0 01-3.644-9.764zm11.091-14.439c.06 0 .12-.007.18-.022a14.787 14.787 0 013.676-.452 15.1 15.1 0 012.276.178.733.733 0 10.225-1.449 16.548 16.548 0 00-2.498-.195 16.212 16.212 0 00-4.037.496.733.733 0 00.178 1.444zm-6.39 4.105h2.858c.763 0 1.384-.621 1.384-1.385V65.8c0-.764-.62-1.385-1.384-1.385h-2.858c-.763 0-1.384.621-1.384 1.385v2.857c0 .764.621 1.385 1.384 1.385zm.082-4.16h2.694v2.694h-2.694V65.88zm26.096 28.928H98.5c-.763 0-1.385.622-1.385 1.385v3.164c0 .764.622 1.385 1.385 1.385h3.164c.763 0 1.384-.621 1.384-1.385v-3.164c0-.763-.621-1.384-1.384-1.384zm-.082 4.468h-3v-3.001h3v3zm3.944-10.683h-1.861c-.763 0-1.384.62-1.384 1.384v1.861c0 .764.621 1.385 1.384 1.385h1.861c.764 0 1.385-.621 1.385-1.385v-1.86c0-.764-.621-1.385-1.385-1.385zm-.081 3.164h-1.698V90.06h1.698v1.698zM69.47 64.545h1.724c.763 0 1.384-.621 1.384-1.385v-1.723c0-.763-.62-1.384-1.384-1.384H69.47c-.763 0-1.384.62-1.384 1.384v1.724c0 .763.621 1.384 1.384 1.384zm.082-3.026h1.56v1.56h-1.56v-1.56zm-4.58 8.926h1.342c.764 0 1.385-.62 1.385-1.384v-1.342c0-.763-.621-1.384-1.385-1.384h-1.341c-.764 0-1.385.62-1.385 1.384v1.342c0 .763.621 1.384 1.384 1.384zm.082-2.644h1.179v1.178h-1.179v-1.178zm36.701-3.215h-5.75a.733.733 0 00-.733.733v5.75c0 .405.328.733.733.733h5.75a.733.733 0 00.733-.733v-5.75a.733.733 0 00-.733-.733zm-.732 5.75h-4.285v-4.284h4.285v4.284z"/><path d="M106.342 68.927a.733.733 0 100-1.466h-.922v-2.028h.922a.733.733 0 100-1.466h-.922v-.033a2.282 2.282 0 00-2.279-2.28h-.033v-.921a.733.733 0 10-1.466 0v.921h-2.029v-.921a.733.733 0 10-1.466 0v.921H96.12v-.921a.733.733 0 10-1.466 0v.921h-.033a2.282 2.282 0 00-2.28 2.28v.033h-.921a.733.733 0 100 1.466h.921v2.028h-.921a.733.733 0 100 1.466h.921v2.029h-.921a.733.733 0 100 1.466h.921v.033a2.282 2.282 0 002.28 2.28h.033v.92a.733.733 0 101.466 0v-.92h2.028v.92a.733.733 0 101.466 0v-.92h2.029v.92a.733.733 0 101.466 0v-.92h.033a2.282 2.282 0 002.279-2.28v-.033h.922a.733.733 0 100-1.466h-.922v-2.029h.922zm-2.388 3.528a.814.814 0 01-.813.814H94.62a.814.814 0 01-.814-.814v-8.521c0-.449.365-.814.814-.814h8.521c.448 0 .813.365.813.814v8.521z"/></g><defs><clipPath id="clip0"><path fill="#fff" d="M60 60h50v50H60z"/></clipPath><filter id="filter0_d" x=".858" y="0" width="193.137" height="193.137" filterUnits="userSpaceOnUse" color-interpolation-filters="sRGB"><feFlood flood-opacity="0" result="BackgroundImageFix"/><feColorMatrix in="SourceAlpha" values="0 0 0 0 0 0 0 0 0 0 0 0 0 0 0 0 0 0 127 0"/><feOffset dx="12" dy="12"/><feGaussianBlur stdDeviation="20"/><feColorMatrix values="0 0 0 0 0.254722 0 0 0 0 0.328133 0 0 0 0 0.545833 0 0 0 0.1 0"/><feBlend in2="BackgroundImageFix" result="effect1_dropShadow"/><feBlend in="SourceGraphic" in2="effect1_dropShadow" result="shape"/></filter></defs></svg>