<svg width="16" height="16" fill="none" xmlns="http://www.w3.org/2000/svg"><g clip-path="url(#clip0)"><path d="M15.322 5.827a.667.667 0 00-.942.003l-8.015 8.057a2.667 2.667 0 01-3.77-3.772l8.252-8.295a1.667 1.667 0 012.355 2.358l-6.835 6.836-.002.001a.666.666 0 01-.94-.944l3.299-3.3a.667.667 0 00-.943-.942l-3.3 3.3a2 2 0 102.829 2.828l.002-.003 6.833-6.833A3 3 0 009.903.878L1.65 9.173a4 4 0 005.66 5.657l8.016-8.059a.667.667 0 00-.003-.943z" fill="#47CF80"/></g><defs><clipPath id="clip0"><path fill="#fff" d="M0 0h16v16H0z"/></clipPath></defs></svg>