<svg width="12" height="12" fill="none" xmlns="http://www.w3.org/2000/svg"><path d="M11.731 9.484L9.878 7.63c-.37-.367-.98-.356-1.363.026l-.933.933-.185-.102c-.59-.327-1.396-.775-2.245-1.624-.852-.852-1.3-1.66-1.628-2.25a6.926 6.926 0 00-.1-.18l.626-.626.309-.308c.382-.383.393-.994.024-1.363L2.53.283c-.368-.369-.98-.357-1.362.025L.645.834.66.848a3.02 3.02 0 00-.43.759 3.09 3.09 0 00-.192.77C-.207 4.406.72 6.26 3.236 8.775c3.478 3.478 6.28 3.215 6.401 3.202a3.131 3.131 0 001.529-.622l.011.01.53-.518c.381-.383.392-.994.024-1.363z" fill="#00194C" opacity=".4"/></svg>