<svg width="85" height="85" fill="none" xmlns="http://www.w3.org/2000/svg"><rect x="42.426" width="60" height="60" rx="8" transform="rotate(45 42.426 0)" fill="#47CF80"/><g clip-path="url(#clip0)" fill="#fff"><path d="M51.136 27.812A5.36 5.36 0 0047.078 26c-1.76 0-3.286.832-4.413 2.407a7.452 7.452 0 00-.237.353 7.4 7.4 0 00-.238-.353C41.063 26.832 39.538 26 37.777 26a5.36 5.36 0 00-4.058 1.812c-.986 1.108-1.53 2.59-1.53 4.173 0 1.72.668 3.307 2.1 4.995 1.25 1.473 3.044 2.986 5.12 4.739.768.648 1.561 1.317 2.405 2.048a.935.935 0 001.227 0c.843-.73 1.637-1.4 2.404-2.048 1.334-1.126 2.485-2.098 3.485-3.04 1.94-1.831 3.736-3.91 3.736-6.694 0-1.582-.544-3.064-1.53-4.173zm-3.493 9.503c-.961.907-2.095 1.864-3.407 2.971-.584.493-1.182.999-1.808 1.535a333.388 333.388 0 00-1.81-1.535c-4.087-3.45-6.554-5.532-6.554-8.3 0-2.344 1.596-4.111 3.713-4.111 1.131 0 2.093.532 2.859 1.582.628.862.886 1.755.888 1.76a.937.937 0 001.807 0c.01-.033.958-3.342 3.747-3.342 2.117 0 3.713 1.767 3.713 4.11 0 1.699-.883 3.193-3.148 5.33zm7.541 7.563a2.82 2.82 0 00-2.057.895l-2.755 2.958a2.817 2.817 0 00-2.686-1.979h-4.33a2.49 2.49 0 01-1.646-.62 6.575 6.575 0 00-8.598-.06 2.81 2.81 0 00-2.297-1.194H26.94a.937.937 0 00-.938.937v11.248c0 .517.42.937.938.937h3.874c.842 0 1.598-.372 2.113-.96l.555.156a21.59 21.59 0 005.834.804h8.37a6.593 6.593 0 005.248-2.624l4.5-6a2.815 2.815 0 00-2.25-4.498zm-23.432 10.31c0 .517-.42.937-.937.937h-2.937v-9.373h2.937c.517 0 .937.42.937.938v7.498zm24.183-6.937l-4.5 6a4.708 4.708 0 01-3.749 1.874h-8.369c-1.8 0-3.593-.247-5.326-.734l-.367-.103c.002-.033.003-.066.003-.1v-7.075l.653-.574a4.697 4.697 0 016.192 0 4.363 4.363 0 002.884 1.088h4.33a.938.938 0 010 1.874h-6.661a.937.937 0 000 1.875h7.29a2.82 2.82 0 002.057-.895l4.126-4.43a.938.938 0 011.437 1.2z"/></g><defs><clipPath id="clip0"><path fill="#fff" d="M26 26h32v32H26z"/></clipPath></defs></svg>