<svg width="60" height="60" fill="none" xmlns="http://www.w3.org/2000/svg"><g clip-path="url(#clip0)"><path d="M60 30C60 13.433 46.567 0 30 0S0 13.433 0 30c0 14.973 10.969 27.384 25.313 29.637V38.674h-7.62V30h7.62v-6.61c0-7.519 4.48-11.674 11.332-11.674 3.282 0 6.716.586 6.716.586v7.383h-3.784c-3.725 0-4.89 2.312-4.89 4.687V30h8.32l-1.33 8.674h-6.99v20.963C49.031 57.39 60 44.977 60 30z" fill="#1977F3"/><path d="M41.677 38.674L43.006 30h-8.32v-5.628c0-2.37 1.16-4.687 4.89-4.687h3.784v-7.383s-3.434-.586-6.716-.586c-6.852 0-11.332 4.151-11.332 11.673V30h-7.62v8.674h7.62v20.963a30.541 30.541 0 009.374 0V38.674h6.99z" fill="#FEFEFE"/></g><defs><clipPath id="clip0"><path fill="#fff" d="M0 0h60v60H0z"/></clipPath></defs></svg>