<svg width="60" height="60" fill="none" xmlns="http://www.w3.org/2000/svg"><path d="M42.126 0H17.874C8.018 0 0 8.018 0 17.874v24.252C0 51.982 8.018 60 17.874 60h24.252C51.982 60 60 51.982 60 42.126V17.874C60 8.018 51.981 0 42.126 0zm11.838 42.126c0 6.538-5.3 11.838-11.838 11.838H17.874c-6.538 0-11.838-5.3-11.838-11.838V17.874c0-6.538 5.3-11.838 11.838-11.838h24.252c6.538 0 11.838 5.3 11.838 11.838v24.252z" fill="url(#paint0_linear)"/><path d="M30 14.482c-8.557 0-15.518 6.961-15.518 15.518 0 8.556 6.961 15.518 15.518 15.518S45.518 38.557 45.518 30 38.557 14.482 30 14.482zm0 25a9.482 9.482 0 110-18.964 9.482 9.482 0 010 18.964z" fill="url(#paint1_linear)"/><path d="M45.548 18.317a3.718 3.718 0 100-7.437 3.718 3.718 0 000 7.437z" fill="url(#paint2_linear)"/><defs><linearGradient id="paint0_linear" x1="30" y1="59.825" x2="30" y2=".466" gradientUnits="userSpaceOnUse"><stop stop-color="#E09B3D"/><stop offset=".3" stop-color="#C74C4D"/><stop offset=".6" stop-color="#C21975"/><stop offset="1" stop-color="#7024C4"/></linearGradient><linearGradient id="paint1_linear" x1="30" y1="59.825" x2="30" y2=".466" gradientUnits="userSpaceOnUse"><stop stop-color="#E09B3D"/><stop offset=".3" stop-color="#C74C4D"/><stop offset=".6" stop-color="#C21975"/><stop offset="1" stop-color="#7024C4"/></linearGradient><linearGradient id="paint2_linear" x1="45.548" y1="59.825" x2="45.548" y2=".466" gradientUnits="userSpaceOnUse"><stop stop-color="#E09B3D"/><stop offset=".3" stop-color="#C74C4D"/><stop offset=".6" stop-color="#C21975"/><stop offset="1" stop-color="#7024C4"/></linearGradient></defs></svg>