<svg width="194" height="194" fill="none" xmlns="http://www.w3.org/2000/svg"><g filter="url(#filter0_d)"><rect x="85" y="28" width="80" height="80" rx="10" transform="rotate(45 85 28)" fill="#fff"/></g><path d="M87.1 98.94H75.88a.985.985 0 000 1.972H87.1a.985.985 0 00.983-.985.985.985 0 00-.983-.986zm-16.467 6.044c0 .544.44.985.984.985h5.49a.984.984 0 00.983-.985.984.984 0 00-.984-.986h-5.49a.984.984 0 00-.983.986zm14.257 0c0 .544.441.985.984.985h5.49a.984.984 0 000-1.971h-5.49a.984.984 0 00-.983.986zm-3.41-.986a.984.984 0 00-.983.986c0 .544.44.985.984.985h.019a.984.984 0 00.983-.985.984.984 0 00-.983-.986h-.02zM61.52 79.112a.985.985 0 00.984-.986v-.02a.985.985 0 00-.984-.985.985.985 0 00-.983.986v.02c0 .544.44.985.983.985z" fill="#47CF80" stroke="#47CF80" stroke-width=".4"/><path d="M107.305 101.714l-4.418-4.431V72.307a.982.982 0 00-.005-.094l-.005-.04a.916.916 0 00-.008-.052l-.01-.046-.011-.042a.821.821 0 00-.03-.086.79.79 0 00-.019-.047l-.018-.038-.023-.043-.023-.038a.692.692 0 00-.054-.077l-.026-.033a.055.055 0 00-.007-.009l-7.32-8.517-.02-.02a.97.97 0 00-.044-.046l-.03-.028a1.059 1.059 0 00-.046-.038l-.033-.025a1.05 1.05 0 00-.143-.085l-.03-.015a.927.927 0 00-.067-.026l-.027-.01a1.043 1.043 0 00-.075-.021l-.024-.006a.952.952 0 00-.081-.014l-.021-.003a1.029 1.029 0 00-.104-.005H65.935c-2.425 0-4.398 1.98-4.398 4.414v6.494c0 .545.44.986.983.986a.985.985 0 00.984-.986v-6.494a2.439 2.439 0 012.43-2.442H93.6v6.358a2.16 2.16 0 002.157 2.16h5.164V95.31l-2.16-2.166-.015-.017-.018-.016-4.636-4.65a13.08 13.08 0 001.486-6.071c0-7.238-5.87-13.126-13.085-13.126-7.217 0-13.089 5.888-13.089 13.126 0 3.454 1.338 6.601 3.52 8.948.045.06.097.115.156.164a13.031 13.031 0 0015.463 2.526l4.635 4.65.016.018.018.016 7.709 7.735v2.087a2.438 2.438 0 01-2.43 2.441H65.934a2.439 2.439 0 01-2.431-2.441v-26.03a.985.985 0 00-.984-.987.985.985 0 00-.983.987v26.03c0 2.434 1.973 4.414 4.398 4.414h32.554c2.425 0 4.398-1.98 4.398-4.414v-.409c.539.277 1.086.4 1.614.4 1.046 0 2.019-.478 2.715-1.177 1.383-1.387 1.884-3.834.089-5.634zM95.566 71.133v-4.69l4.192 4.877h-4.002a.191.191 0 01-.19-.187zm-13.075.104c6.132 0 11.12 5.003 11.12 11.153 0 2.038-.549 3.95-1.504 5.595a.983.983 0 00-.161.27c-.194.313-.402.615-.625.907a10.246 10.246 0 00-5.33-4.694 5.854 5.854 0 002.188-4.565c0-3.231-2.62-5.86-5.84-5.86-3.22 0-5.841 2.629-5.841 5.86 0 1.842.853 3.488 2.184 4.562a10.22 10.22 0 00-5.197 4.46 11.118 11.118 0 01-2.115-6.535c0-6.15 4.989-11.153 11.121-11.153zm-4.027 8.666a3.886 3.886 0 013.875-3.887c2.136 0 3.873 1.744 3.873 3.887a3.883 3.883 0 01-3.873 3.884 3.884 3.884 0 01-3.875-3.884zm-3.588 10.61c1.347-2.867 4.27-4.753 7.463-4.753a8.254 8.254 0 017.55 4.95 11.2 11.2 0 01-1.552 1.165.98.98 0 00-.271.164 11.022 11.022 0 01-5.575 1.507 11.063 11.063 0 01-7.615-3.034zm16.773 1.245a.978.978 0 00.178-.18 13.21 13.21 0 001.193-1.401l3.638 3.648-2.769 2.778-3.637-3.65c.493-.365.96-.765 1.397-1.195zm14.176 14.196c-.632.634-1.668.949-2.681-.066l-7.865-7.89 2.77-2.778 3.141 3.15.038.039 4.687 4.7c1.007 1.01.498 2.255-.09 2.845z" fill="#47CF80" stroke="#47CF80" stroke-width=".4"/><defs><filter id="filter0_d" x=".432" y="0" width="193.137" height="193.137" filterUnits="userSpaceOnUse" color-interpolation-filters="sRGB"><feFlood flood-opacity="0" result="BackgroundImageFix"/><feColorMatrix in="SourceAlpha" values="0 0 0 0 0 0 0 0 0 0 0 0 0 0 0 0 0 0 127 0"/><feOffset dx="12" dy="12"/><feGaussianBlur stdDeviation="20"/><feColorMatrix values="0 0 0 0 0.254722 0 0 0 0 0.328133 0 0 0 0 0.545833 0 0 0 0.1 0"/><feBlend in2="BackgroundImageFix" result="effect1_dropShadow"/><feBlend in="SourceGraphic" in2="effect1_dropShadow" result="shape"/></filter></defs></svg>