<svg width="85" height="85" fill="none" xmlns="http://www.w3.org/2000/svg"><rect x="42.427" width="60" height="60" rx="8" transform="rotate(45 42.427 0)" fill="#47CF80"/><g clip-path="url(#clip0)" fill="#fff"><path d="M50.168 34.353c0 .173-.003.311 0 .449.018.773.052 1.547.052 2.32 0 .57-.44 1.004-.984 1.02a.992.992 0 01-1.038-.96 278.578 278.578 0 01-.134-4.82.958.958 0 01.949-1.007c1.594-.059 3.19-.107 4.785-.135.605-.01 1.034.428 1.047.994.013.562-.398 1.007-1.004 1.039-.486.026-.974.005-1.462.005l-.045.098c.102.097.201.2.308.292 1.676 1.473 2.991 3.206 3.703 5.335 1.138 3.405.771 6.687-.934 9.827-.811 1.494-1.884 2.773-3.257 3.787a1.84 1.84 0 01-.627.32c-.467.114-.922-.135-1.12-.561-.206-.44-.103-.924.324-1.239.89-.657 1.675-1.417 2.28-2.341 2.245-3.421 2.647-6.98.681-10.66-.803-1.504-1.998-2.686-3.362-3.696-.034-.025-.08-.034-.162-.067zM38.67 37.825c-1.203.294-2.263.671-3.226 1.277-2.817 1.772-3.912 4.357-3.547 7.612.091.813-.22 1.358-.859 1.431-.67.078-1.091-.37-1.188-1.204-.238-2.062.029-4.034.997-5.889 1.003-1.92 2.544-3.276 4.477-4.196.663-.316 1.372-.534 2.061-.794.143-.054.289-.1.485-.166-.614-.384-1.19-.736-1.757-1.102-.355-.23-.492-.574-.44-.986.052-.419.291-.73.694-.815.257-.054.595-.041.812.086a158.87 158.87 0 014.083 2.493c.541.341.645.91.307 1.463-.795 1.3-1.595 2.596-2.397 3.89-.362.585-.963.744-1.498.41-.487-.303-.597-.918-.256-1.478.394-.649.797-1.294 1.252-2.032zm-6.613 11.021a3.732 3.732 0 013.718 3.735 3.716 3.716 0 01-3.76 3.722c-2.058-.014-3.73-1.703-3.711-3.747a3.75 3.75 0 013.753-3.71zm1.664 3.773a1.696 1.696 0 00-1.634-1.728c-.896-.036-1.702.729-1.728 1.64-.027.915.715 1.693 1.642 1.721a1.676 1.676 0 001.72-1.633zm9.599-5.738c-.024 2.088-1.703 3.755-3.764 3.736-2.056-.018-3.726-1.733-3.701-3.8.024-2.045 1.732-3.7 3.785-3.672 2.045.029 3.704 1.713 3.68 3.736zm-3.7-1.678a1.678 1.678 0 00-1.708 1.646c-.016.92.726 1.69 1.65 1.714.908.024 1.687-.733 1.707-1.659a1.669 1.669 0 00-1.65-1.701zm2.361 9.053a3.714 3.714 0 013.73-3.715 3.71 3.71 0 013.725 3.758 3.726 3.726 0 01-7.455-.043zm5.4.017a1.672 1.672 0 00-1.667-1.686 1.695 1.695 0 00-1.688 1.676c-.004.934.766 1.687 1.715 1.678a1.657 1.657 0 001.64-1.668zM30.066 32.356c.454-.466.848-.877 1.25-1.28.469-.47 1.112-.505 1.524-.092.43.431.417 1.031-.058 1.52-.405.415-.832.81-1.307 1.27.373.349.703.654 1.029.964.137.131.272.267.393.413.358.432.333 1.003-.051 1.388a1.009 1.009 0 01-1.392.037c-.423-.383-.813-.8-1.219-1.203-.041-.041-.087-.078-.213-.19-.422.449-.835.903-1.265 1.342-.291.298-.656.376-1.053.255-.391-.12-.609-.408-.685-.796-.078-.398.096-.718.373-.99.407-.397.816-.792 1.265-1.228-.458-.446-.876-.849-1.288-1.256-.267-.265-.426-.58-.35-.964.076-.387.292-.679.682-.798.38-.116.74-.057 1.027.228.438.435.86.885 1.338 1.38zm11.974-1.914c-.502.53-.92 1.003-1.372 1.44-.343.33-.798.355-1.186.126-.374-.221-.593-.638-.48-1.06.065-.24.217-.476.388-.661.376-.41.79-.786 1.234-1.221-.468-.454-.925-.868-1.347-1.314-.57-.603-.305-1.515.485-1.718.411-.106.744.055 1.031.34.406.4.81.802 1.216 1.203.007.008.021.008.09.032.402-.415.815-.857 1.247-1.28.3-.295.661-.413 1.08-.265.382.135.605.41.681.8.076.387-.09.695-.357.96-.412.407-.827.813-1.304 1.283.476.449.93.849 1.351 1.281.439.452.438 1.02.039 1.437-.406.425-1.005.436-1.466.016-.228-.208-.445-.43-.658-.653-.205-.215-.398-.44-.672-.746z"/><path d="M50.257 42.871c.444.436.847.824 1.242 1.219.488.487.526 1.132.1 1.554-.429.423-1.059.384-1.554-.11-.395-.393-.78-.797-1.245-1.274-.374.403-.718.776-1.065 1.146a2.785 2.785 0 01-.309.296c-.437.34-1.03.303-1.394-.082a1.02 1.02 0 01-.008-1.395c.205-.232.43-.445.652-.661.222-.215.45-.423.707-.664-.203-.212-.371-.389-.541-.563-.282-.29-.58-.566-.845-.871a.99.99 0 01.047-1.36c.389-.395.963-.435 1.384-.065.339.299.655.624.967.95.131.137.226.308.404.556.531-.568.947-1.042 1.395-1.483a.97.97 0 011.188-.137c.396.23.608.683.47 1.131a1.609 1.609 0 01-.37.593c-.38.407-.788.788-1.225 1.22z"/></g><defs><clipPath id="clip0"><path fill="#fff" d="M27 26h30v32H27z"/></clipPath></defs></svg>