<svg width="60" height="60" fill="none" xmlns="http://www.w3.org/2000/svg"><path d="M59.944 30.703a34.48 34.48 0 00-.527-6.077h-28.79v11.517h16.487c-.684 3.714-2.882 7-6.101 9.088v7.472h9.836c5.775-5.209 9.095-12.901 9.095-22z" fill="#4285F4"/><path d="M30.627 59.923c8.232 0 15.174-2.648 20.232-7.22l-9.835-7.472c-2.737 1.824-6.27 2.857-10.386 2.857-7.962 0-14.714-5.264-17.136-12.34H3.352v7.703C8.535 53.55 19.088 59.923 30.628 59.923z" fill="#34A853"/><path d="M13.492 35.747a17.572 17.572 0 010-11.45v-7.704H3.353a29.394 29.394 0 000 26.857l10.139-7.703z" fill="#FBBC04"/><path d="M30.627 11.945c4.352-.066 8.557 1.539 11.709 4.484L51.05 7.89C45.532 2.813 38.209.022 30.627.11 19.087.11 8.534 6.484 3.353 16.593l10.138 7.704c2.411-7.088 9.174-12.352 17.136-12.352z" fill="#EA4335"/></svg>