<svg width="60" height="60" fill="none" xmlns="http://www.w3.org/2000/svg"><g clip-path="url(#clip0)"><path d="M51.653 48.441c-24.288 11.56-39.362 1.888-49.01-3.986-.598-.37-1.612.087-.732 1.098 3.215 3.898 13.75 13.292 27.5 13.292 13.76 0 21.947-7.508 22.97-8.818 1.018-1.299.3-2.015-.729-1.586zm6.82-3.767c-.651-.85-3.965-1.008-6.05-.751-2.09.248-5.225 1.525-4.952 2.291.14.288.425.159 1.86.03 1.439-.144 5.47-.652 6.31.445.843 1.106-1.286 6.372-1.675 7.221-.376.85.144 1.069.85.503.695-.565 1.956-2.03 2.801-4.102.84-2.084 1.352-4.99.857-5.637z" fill="#F90"/><path fill-rule="evenodd" clip-rule="evenodd" d="M35.322 24.855c0 3.033.076 5.562-1.457 8.256-1.237 2.19-3.197 3.536-5.387 3.536-2.989 0-4.73-2.277-4.73-5.638 0-6.636 5.946-7.84 11.574-7.84v1.686zm7.85 18.975c-.514.46-1.259.493-1.84.186-2.583-2.146-3.043-3.142-4.466-5.19-4.27 4.358-7.293 5.661-12.833 5.661-6.548 0-11.65-4.04-11.65-12.132 0-6.317 3.427-10.62 8.3-12.723 4.226-1.861 10.128-2.19 14.639-2.704V15.92c0-1.85.142-4.04-.942-5.639-.953-1.434-2.77-2.025-4.369-2.025-2.967 0-5.617 1.522-6.263 4.675-.131.701-.646 1.39-1.347 1.424l-7.555-.81c-.635-.143-1.335-.658-1.16-1.632C15.426 2.759 23.693 0 31.095 0c3.788 0 8.738 1.007 11.727 3.876 3.788 3.537 3.427 8.256 3.427 13.391V29.4c0 3.646 1.51 5.245 2.934 7.215.504.701.614 1.545-.022 2.07-1.587 1.325-4.412 3.788-5.967 5.168l-.022-.022" fill="#000"/><path d="M51.653 48.441c-24.288 11.56-39.362 1.888-49.01-3.986-.598-.37-1.612.087-.732 1.098 3.215 3.898 13.75 13.292 27.5 13.292 13.76 0 21.947-7.508 22.97-8.818 1.018-1.299.3-2.015-.729-1.586zm6.82-3.767c-.651-.85-3.965-1.008-6.05-.751-2.09.248-5.225 1.525-4.952 2.291.14.288.425.159 1.86.03 1.439-.144 5.47-.652 6.31.445.843 1.106-1.286 6.372-1.675 7.221-.376.85.144 1.069.85.503.695-.565 1.956-2.03 2.801-4.102.84-2.084 1.352-4.99.857-5.637z" fill="#F90"/><path fill-rule="evenodd" clip-rule="evenodd" d="M35.322 24.855c0 3.033.076 5.562-1.457 8.256-1.237 2.19-3.197 3.536-5.387 3.536-2.989 0-4.73-2.277-4.73-5.638 0-6.636 5.946-7.84 11.574-7.84v1.686zm7.85 18.975c-.514.46-1.259.493-1.84.186-2.583-2.146-3.043-3.142-4.466-5.19-4.27 4.358-7.293 5.661-12.833 5.661-6.548 0-11.65-4.04-11.65-12.132 0-6.317 3.427-10.62 8.3-12.723 4.226-1.861 10.128-2.19 14.639-2.704V15.92c0-1.85.142-4.04-.942-5.639-.953-1.434-2.77-2.025-4.369-2.025-2.967 0-5.617 1.522-6.263 4.675-.131.701-.646 1.39-1.347 1.424l-7.555-.81c-.635-.143-1.335-.658-1.16-1.632C15.426 2.759 23.693 0 31.095 0c3.788 0 8.738 1.007 11.727 3.876 3.788 3.537 3.427 8.256 3.427 13.391V29.4c0 3.646 1.51 5.245 2.934 7.215.504.701.614 1.545-.022 2.07-1.587 1.325-4.412 3.788-5.967 5.168l-.022-.022" fill="#000"/></g><defs><clipPath id="clip0"><path fill="#fff" d="M0 0h60v60H0z"/></clipPath></defs></svg>