<svg width="194" height="194" fill="none" xmlns="http://www.w3.org/2000/svg"><g filter="url(#filter0_d)"><rect x="85.426" y="28" width="80" height="80" rx="10" transform="rotate(45 85.426 28)" fill="#fff"/></g><path d="M98.281 97.5a2.347 2.347 0 002.344-2.344 2.347 2.347 0 00-2.344-2.344 2.347 2.347 0 00-2.344 2.344 2.347 2.347 0 002.344 2.344zm0-3.125a.782.782 0 11-.001 1.564.782.782 0 01.001-1.564zm9.091-22.83a6.267 6.267 0 001.847-4.458 6.313 6.313 0 00-6.306-6.306 6.265 6.265 0 00-4.458 1.847l-9.032 9.032a13.874 13.874 0 00-3.685-.688 6.252 6.252 0 00-5.425-3.16c-.595 0-1.169.09-1.715.245a7.784 7.784 0 00-6.88-4.15c-4.307 0-7.812 3.504-7.812 7.812 0 .598.074 1.187.207 1.764a4.694 4.694 0 00-3.332 4.486 4.692 4.692 0 004.688 4.687h5.667c-.13.773-.198 1.557-.198 2.344 0 1.72.317 3.119.83 4.314l-6.969 6.97-3.878 10.083a2.102 2.102 0 002.712 2.712l10.083-3.878 5.097-5.097a2.333 2.333 0 00-.063.521c0 .602.235 1.147.61 1.563-.376.415-.61.96-.61 1.562a2.34 2.34 0 001.75 2.258 4.765 4.765 0 004.5 3.211 4.765 4.765 0 004.5-3.211 2.34 2.34 0 001.75-2.258c0-.059-.013-.113-.017-.17l.97.97 1.138-1.137c.43-.432 1.074-.558 1.672-.308.561.233.924.775.924 1.383v1.606h4.688v-1.606c0-.608.363-1.151.955-1.395a1.496 1.496 0 011.642.32l1.137 1.137 3.316-3.316-1.137-1.137c-.43-.431-.556-1.076-.307-1.673.232-.56.774-.924 1.382-.924h1.606v-4.688h-1.606a1.503 1.503 0 01-1.395-.954 1.498 1.498 0 01.32-1.643l1.136-1.138-3.315-3.315-1.139 1.137c-.43.431-1.075.556-1.672.306a1.488 1.488 0 01-.923-1.38v-1.606h-1.602a13.84 13.84 0 00-.692-3.632l9.041-9.042zm-11.921 4.11l3.612-3.613 2.801 2.802-4.173 4.172a14.177 14.177 0 00-2.24-3.361zm.81-8.624l1.239-1.239 6.708 6.708-1.239 1.24-6.708-6.709zm6.652-4.687a4.749 4.749 0 014.743 4.743 4.713 4.713 0 01-1.389 3.354l-.955.954-6.707-6.707.954-.955a4.713 4.713 0 013.354-1.39zm-7.757 5.792l2.802 2.802-3.61 3.61a14.163 14.163 0 00-3.36-2.243l4.168-4.17zM97.5 85c0 4.065-2.047 6.062-4.214 8.175-1.492 1.456-3.025 2.96-3.917 5.153a2.315 2.315 0 00-.463-.047h-3.125v-3.906a2.347 2.347 0 00-2.344-2.344h-1.562a.782.782 0 010-1.562h7.813a2.347 2.347 0 002.343-2.344 2.347 2.347 0 00-2.344-2.344h-6.25a.782.782 0 01-.78-.781v-2.344h3.906a3.91 3.91 0 003.906-3.906 3.91 3.91 0 00-3.906-3.906c-.022 0-.043.006-.065.006a6.15 6.15 0 00.064-.787 6.26 6.26 0 00-.184-1.482C92.606 73.275 97.5 78.621 97.5 85zm-2.987 9.16c.852-.831 1.706-1.681 2.442-2.664a3.86 3.86 0 011.326-.246 3.911 3.911 0 013.907 3.906 3.911 3.911 0 01-3.907 3.906 3.91 3.91 0 01-3.906-3.906c0-.338.052-.67.138-.995zm-14.2 6.465c0-.431.35-.781.78-.781h7.813a.782.782 0 010 1.562h-7.812a.782.782 0 01-.781-.781zm-9.833 0l5.743-5.743c.96.953 1.853 1.917 2.51 3.091l-5.452 5.454-2.801-2.802zm-8.136-22.656a3.128 3.128 0 013.125-3.125 3.128 3.128 0 013.125 3.125h1.562a4.69 4.69 0 00-4.487-4.678 6.257 6.257 0 016.05-7.823 6.23 6.23 0 015.444 3.205 6.255 6.255 0 00-3.061 4.707 3.124 3.124 0 00-2.383 3.026h1.562a1.564 1.564 0 013.125 0h1.563a3.12 3.12 0 00-2.293-2.998 4.69 4.69 0 014.636-4.033A4.692 4.692 0 0185 74.063c0 .41-.067.813-.172 1.205-1.281.641-2.172 1.954-2.172 3.482h1.563a2.347 2.347 0 012.344-2.344 2.347 2.347 0 012.343 2.344 2.347 2.347 0 01-2.344 2.344H65.47a3.128 3.128 0 01-3.125-3.125zm18.75 4.687V85a2.347 2.347 0 002.344 2.344h6.25a.782.782 0 010 1.562h-7.813a2.347 2.347 0 00-2.344 2.344 2.347 2.347 0 002.344 2.344h1.563c.43 0 .78.35.78.781v3.906h-3.124c-.159 0-.313.017-.463.047-.892-2.193-2.425-3.698-3.917-5.153C74.547 91.062 72.5 89.065 72.5 85c0-.79.094-1.573.24-2.344h8.354zm-5.987 11.132l-5.732 5.732-2.802-2.801 5.961-5.961c.734 1.151 1.643 2.112 2.573 3.03zm-9.34 4.333l6.112 6.113-5.175 1.99-2.928-2.928 1.99-5.175zm-2.694 9.499a.548.548 0 01-.73-.5c0-.067.013-.132.036-.193l.783-2.036 1.946 1.947-2.035.782zm21.927.036a3.21 3.21 0 01-2.753-1.562h5.506A3.21 3.21 0 0185 107.656zm3.906-3.125h-7.812a.782.782 0 010-1.562h7.812a.782.782 0 010 1.562zm12.071-15.87a3.053 3.053 0 003.35-.656l.032-.033 1.107 1.106-.033.033c-.88.88-1.138 2.195-.646 3.373a3.047 3.047 0 002.826 1.891h.043v1.563h-.043a3.056 3.056 0 00-2.836 1.915 3.055 3.055 0 00.656 3.349l.033.032-1.107 1.107-.032-.033a3.063 3.063 0 00-3.375-.646 3.049 3.049 0 00-1.89 2.826v.043H97.5v-.043a3.059 3.059 0 00-1.916-2.837 3.053 3.053 0 00-3.349.657l-.033.033-1.058-1.059c.062-.21.106-.427.106-.657a2.32 2.32 0 00-.525-1.46c.486-1.312 1.248-2.361 2.134-3.33.336 2.696 2.637 4.79 5.422 4.79a5.475 5.475 0 005.469-5.469 5.475 5.475 0 00-5.469-5.469c-.076 0-.15.008-.226.011.529-1.097.892-2.37.983-3.917h.025v.043c0 1.243.742 2.353 1.914 2.837z" fill="#47CF80" stroke="#47CF80" stroke-width=".4"/><defs><filter id="filter0_d" x=".858" y="0" width="193.137" height="193.137" filterUnits="userSpaceOnUse" color-interpolation-filters="sRGB"><feFlood flood-opacity="0" result="BackgroundImageFix"/><feColorMatrix in="SourceAlpha" values="0 0 0 0 0 0 0 0 0 0 0 0 0 0 0 0 0 0 127 0"/><feOffset dx="12" dy="12"/><feGaussianBlur stdDeviation="20"/><feColorMatrix values="0 0 0 0 0.254722 0 0 0 0 0.328133 0 0 0 0 0.545833 0 0 0 0.1 0"/><feBlend in2="BackgroundImageFix" result="effect1_dropShadow"/><feBlend in="SourceGraphic" in2="effect1_dropShadow" result="shape"/></filter></defs></svg>