<svg width="85" height="85" fill="none" xmlns="http://www.w3.org/2000/svg"><rect x="42.427" width="60" height="60" rx="8" transform="rotate(45 42.427 0)" fill="#47CF80"/><path d="M54.188 27h-5.626a.937.937 0 00-.937.938v17.937A5.631 5.631 0 0142 51.5a5.631 5.631 0 01-5.625-5.625V27.937a.937.937 0 00-.938-.937h-5.624a.937.937 0 00-.938.938v17.937C28.875 53.112 34.763 59 42 59s13.125-5.888 13.125-13.125V27.937a.937.937 0 00-.938-.937zM30.75 28.875h3.75V34.5h-3.75v-5.625zm22.5 17c0 6.204-5.046 11.25-11.25 11.25s-11.25-5.046-11.25-11.25v-9.5h3.75v9.5c0 4.135 3.365 7.5 7.5 7.5s7.5-3.365 7.5-7.5v-9.5h3.75v9.5zm0-11.375H49.5v-5.625h3.75V34.5zm-14.36-1.923l4.187 1.396L40.4 36.65a.937.937 0 101.325 1.325l3.75-3.75a.939.939 0 00-.366-1.551l-4.186-1.397L43.6 28.6a.937.937 0 10-1.325-1.325l-3.75 3.75a.938.938 0 00.366 1.552z" fill="#fff"/></svg>