<svg width="194" height="194" fill="none" xmlns="http://www.w3.org/2000/svg"><g filter="url(#filter0_d)"><rect x="85.426" y="28" width="80" height="80" rx="10" transform="rotate(45 85.426 28)" fill="#fff"/></g><path d="M104.531 86.977v-15.32c2.646-.382 4.688-2.658 4.688-5.407a5.475 5.475 0 00-5.469-5.469 5.475 5.475 0 00-5.469 5.469h-37.5V97.5H84.26c.406 6.528 5.832 11.719 12.46 11.719 6.892 0 12.5-5.608 12.5-12.5 0-3.937-1.834-7.45-4.688-9.742zm-.781-24.633a3.91 3.91 0 013.906 3.906 3.91 3.91 0 01-3.906 3.906 3.91 3.91 0 01-3.906-3.906 3.91 3.91 0 013.906-3.906zm-41.406 5.468h36.168c.186.624.483 1.198.865 1.707l-4.779 4.779a2.31 2.31 0 00-1.004-.236c-.361 0-.699.089-1.004.236l-1.574-1.575c.146-.306.234-.643.234-1.004a2.347 2.347 0 00-2.344-2.344 2.347 2.347 0 00-2.344 2.344c0 .36.089.698.236 1.004L82.88 76.64a2.322 2.322 0 00-1.005-.235 2.347 2.347 0 00-2.344 2.344 2.347 2.347 0 002.344 2.344 2.347 2.347 0 002.344-2.344c0-.36-.088-.698-.235-1.004l3.918-3.918c.306.146.643.234 1.004.234s.699-.088 1.004-.235l1.574 1.575a2.321 2.321 0 00-.234 1.004 2.347 2.347 0 002.344 2.344 2.347 2.347 0 002.344-2.344c0-.36-.089-.698-.236-1.004l4.779-4.778c.715.536 1.564.9 2.488 1.033V85.91a12.404 12.404 0 00-6.25-1.692c-3.735 0-7.083 1.654-9.375 4.26V85h-4.688v9.375h1.79c-.096.51-.155 1.033-.187 1.563H62.344V67.811zm31.25 7.813a.782.782 0 11-.002 1.564.782.782 0 01.002-1.564zm-5.469-3.906a.782.782 0 111.564.001.782.782 0 01-1.564-.001zm-5.469 7.031a.782.782 0 11-1.564-.002.782.782 0 011.564.002zm14.063 24.219a6.257 6.257 0 01-6.25-6.25 6.257 6.257 0 016.25-6.25 6.257 6.257 0 016.25 6.25 6.257 6.257 0 01-6.25 6.25zM85.78 90.681a12.416 12.416 0 00-.929 2.132h-.633v-6.25h1.562v4.117zm10.156-4.86v3.125c-3.942.394-7.03 3.729-7.03 7.773a7.76 7.76 0 00.695 3.206l-2.71 1.565a10.846 10.846 0 01-1.11-4.771c0-5.767 4.49-10.495 10.156-10.898zm.782 21.835a10.932 10.932 0 01-9.053-4.808l2.72-1.571c1.421 1.967 3.727 3.254 6.333 3.254 2.606 0 4.911-1.287 6.332-3.254l2.721 1.571a10.932 10.932 0 01-9.053 4.808zm9.826-6.166l-2.71-1.565a7.76 7.76 0 00.696-3.206c0-4.044-3.089-7.38-7.031-7.773v-3.125c5.666.403 10.156 5.13 10.156 10.898a10.84 10.84 0 01-1.111 4.771z" fill="#47CF80" stroke="#47CF80" stroke-width=".4"/><path d="M96.719 92.031a4.692 4.692 0 00-4.688 4.688 4.692 4.692 0 004.688 4.687 4.692 4.692 0 004.687-4.687 4.692 4.692 0 00-4.687-4.688zm0 7.813a3.128 3.128 0 01-3.125-3.125 3.128 3.128 0 013.125-3.125 3.128 3.128 0 013.125 3.125 3.128 3.128 0 01-3.125 3.125zM63.906 69.375h1.563v1.563h-1.563v-1.563zm3.125 0H77.97v1.563H67.03v-1.563zM63.906 72.5h1.563v1.563h-1.563V72.5zm3.125 0H77.97v1.563H67.03V72.5zm-3.125 3.125h1.563v1.563h-1.563v-1.563zm3.125 0H77.97v1.563H67.03v-1.563zm-3.125 3.125h1.563v1.563h-1.563V78.75zm3.125 0H77.97v1.563H67.03V78.75zm-3.125 15.625h4.688v-7.813h-4.688v7.813zm1.563-6.25h1.562v4.688H65.47v-4.688zm4.687 6.25h4.688v-6.25h-4.688v6.25zm1.563-4.688h1.562v3.126H71.72v-3.126zm4.687 4.688h4.688v-12.5h-4.688v12.5zm1.563-10.938h1.562v9.376H77.97v-9.376z" fill="#47CF80" stroke="#47CF80" stroke-width=".4"/><defs><filter id="filter0_d" x=".858" y="0" width="193.137" height="193.137" filterUnits="userSpaceOnUse" color-interpolation-filters="sRGB"><feFlood flood-opacity="0" result="BackgroundImageFix"/><feColorMatrix in="SourceAlpha" values="0 0 0 0 0 0 0 0 0 0 0 0 0 0 0 0 0 0 127 0"/><feOffset dx="12" dy="12"/><feGaussianBlur stdDeviation="20"/><feColorMatrix values="0 0 0 0 0.254722 0 0 0 0 0.328133 0 0 0 0 0.545833 0 0 0 0.1 0"/><feBlend in2="BackgroundImageFix" result="effect1_dropShadow"/><feBlend in="SourceGraphic" in2="effect1_dropShadow" result="shape"/></filter></defs></svg>