<svg width="12" height="12" fill="none" xmlns="http://www.w3.org/2000/svg"><g opacity=".4" fill="#00194C"><path d="M1.152 4.192c.152.107.61.425 1.373.954.763.53 1.348.937 1.754 1.222l.285.205a7.28 7.28 0 00.709.472c.137.08.265.14.385.18.121.04.233.06.335.06h.014c.102 0 .214-.02.335-.06.12-.04.249-.1.385-.18a7.07 7.07 0 00.71-.472 29.2 29.2 0 01.284-.205l3.134-2.176a3.18 3.18 0 00.817-.824c.219-.32.328-.658.328-1.01 0-.295-.106-.548-.318-.757a1.035 1.035 0 00-.754-.315H1.072c-.343 0-.608.116-.793.348-.185.232-.278.522-.278.87 0 .282.123.587.368.915.246.328.507.586.784.773z"/><path d="M11.33 4.908a139.248 139.248 0 00-3.334 2.31c-.255.188-.461.335-.62.44-.158.104-.37.211-.633.32-.263.11-.508.165-.736.165h-.014c-.227 0-.473-.055-.736-.164a3.824 3.824 0 01-.633-.322 15.875 15.875 0 01-.62-.438c-.602-.442-1.712-1.212-3.328-2.31A3.547 3.547 0 010 4.325v5.317c0 .295.105.547.315.756.21.21.462.315.756.315h9.858c.294 0 .546-.105.756-.315.21-.21.315-.461.315-.756V4.326a3.693 3.693 0 01-.67.582z"/></g></svg>