<svg width="194" height="194" fill="none" xmlns="http://www.w3.org/2000/svg"><g filter="url(#filter0_d)"><rect x="85.426" y="28" width="80" height="80" rx="10" transform="rotate(45 85.426 28)" fill="#fff"/></g><path d="M106.875 89.688H89.687a2.347 2.347 0 00-2.343 2.343v10.938a2.346 2.346 0 002.344 2.343h17.187a2.346 2.346 0 002.344-2.343V92.031a2.347 2.347 0 00-2.344-2.344zm.781 13.281c0 .431-.35.781-.781.781H89.687a.782.782 0 01-.78-.781V92.031c0-.431.35-.781.78-.781h17.188c.431 0 .781.35.781.781v10.938z" fill="#47CF80" stroke="#47CF80" stroke-width=".4"/><path d="M103.75 92.813a2.347 2.347 0 00-2.344 2.343c0 .297.061.58.163.84l-2.127 1.824a2.32 2.32 0 00-1.16-.32c-.584 0-1.11.222-1.521.575l-1.646-.94a2.42 2.42 0 00.041-.416 2.347 2.347 0 00-2.344-2.344 2.347 2.347 0 00-2.343 2.344 2.347 2.347 0 002.344 2.344 2.32 2.32 0 001.52-.576l1.646.941a2.43 2.43 0 00-.041.416 2.347 2.347 0 002.343 2.344 2.347 2.347 0 002.344-2.344c0-.297-.061-.58-.163-.84l2.128-1.824c.343.198.736.32 1.16.32a2.347 2.347 0 002.344-2.344 2.347 2.347 0 00-2.344-2.344zM92.812 97.5a.782.782 0 11.001-1.563.782.782 0 010 1.563zm5.47 3.125a.782.782 0 110-1.563.782.782 0 010 1.563zm5.468-4.688a.781.781 0 11.001-1.562.781.781 0 01-.001 1.563zM70.938 67.031c.861 0 1.562.701 1.562 1.563h1.563c0-1.453-1-2.665-2.344-3.014v-1.674h-1.563v1.563h-2.344v3.125a3.128 3.128 0 003.126 3.125c.861 0 1.562.7 1.562 1.562v1.563h-1.563a1.564 1.564 0 01-1.562-1.563h-1.563c0 1.453 1 2.665 2.344 3.014v1.674h1.563v-1.563h2.344v-3.125a3.128 3.128 0 00-3.126-3.125c-.861 0-1.562-.7-1.562-1.562V67.03h1.563zm20.312 7.813h-3.125v9.375h14.063V70.156H97.5v1.563h-3.125v1.562H91.25v1.563zm-1.563 1.562h1.563v6.25h-1.563v-6.25zm9.376-4.687h1.562v10.937h-1.563V71.72zM97.5 73.28v9.375h-1.563V73.28H97.5zm-3.125 1.563v7.812h-1.563v-7.812h1.563z" fill="#47CF80" stroke="#47CF80" stroke-width=".4"/><path d="M102.969 87.344A2.346 2.346 0 00105.312 85V69.375a2.346 2.346 0 00-2.343-2.344H80.296c-1.57-3.758-5.259-6.25-9.359-6.25-5.6 0-10.156 4.557-10.156 10.157s4.557 10.156 10.157 10.156a10.13 10.13 0 006.25-2.177V85a2.347 2.347 0 002.343 2.344h.781v3.125c0 .862-.7 1.562-1.562 1.562h-3.993a5.448 5.448 0 001.65-3.906 5.476 5.476 0 00-5.47-5.469 5.476 5.476 0 00-5.468 5.469c0 1.659.745 3.144 1.915 4.148-3.78.902-6.603 4.3-6.603 8.352v8.594h16.407v-9.307c0-.568.404-1.053.961-1.154l2.5-.455a6.246 6.246 0 005.132-6.148v-4.811h17.188zM70.938 79.53c-4.739 0-8.594-3.855-8.594-8.594 0-4.738 3.855-8.593 8.593-8.593 3.31 0 6.303 1.92 7.725 4.86a2.343 2.343 0 00-1.475 2.171v7.432a8.588 8.588 0 01-6.25 2.724zm.757 20.794l-.757.758-.758-.758.48-6.731h.556l.48 6.731zm-4.664-12.2a3.91 3.91 0 013.906-3.906 3.91 3.91 0 013.907 3.906 3.91 3.91 0 01-3.906 3.906 3.91 3.91 0 01-3.907-3.906zm17.188 4.03a4.685 4.685 0 01-3.85 4.611l-2.499.454a2.734 2.734 0 00-2.245 2.692v7.744H66.25V97.5h-1.563v10.156h-2.343v-7.031c0-3.782 3.003-6.867 6.749-7.017l-.523 7.316 2.368 2.367 2.367-2.367-.524-7.33h5.969a3.128 3.128 0 003.125-3.125v-6.64c0-.647.526-1.173 1.172-1.173.646 0 1.172.526 1.172 1.172v8.327zm-1.172-11.061a2.737 2.737 0 00-2.734 2.734v1.953h-.782a.782.782 0 01-.781-.78V69.375c0-.431.35-.781.781-.781h23.438c.431 0 .781.35.781.781V85c0 .431-.35.781-.781.781H85.781v-1.953a2.737 2.737 0 00-2.734-2.734z" fill="#47CF80" stroke="#47CF80" stroke-width=".4"/><path d="M80.313 70.156h1.562v1.563h-1.563v-1.563zm3.125 0H85v1.563h-1.563v-1.563zm3.125 0h1.562v1.563h-1.563v-1.563zm-6.25 3.125h6.25v1.563h-6.25V73.28zm0 3.125h6.25v1.563h-6.25v-1.563z" fill="#47CF80" stroke="#47CF80" stroke-width=".4"/><defs><filter id="filter0_d" x=".858" y="0" width="193.137" height="193.137" filterUnits="userSpaceOnUse" color-interpolation-filters="sRGB"><feFlood flood-opacity="0" result="BackgroundImageFix"/><feColorMatrix in="SourceAlpha" values="0 0 0 0 0 0 0 0 0 0 0 0 0 0 0 0 0 0 127 0"/><feOffset dx="12" dy="12"/><feGaussianBlur stdDeviation="20"/><feColorMatrix values="0 0 0 0 0.254722 0 0 0 0 0.328133 0 0 0 0 0.545833 0 0 0 0.1 0"/><feBlend in2="BackgroundImageFix" result="effect1_dropShadow"/><feBlend in="SourceGraphic" in2="effect1_dropShadow" result="shape"/></filter></defs></svg>