<svg width="194" height="194" fill="none" xmlns="http://www.w3.org/2000/svg"><g filter="url(#filter0_d)"><rect x="85.427" y="28" width="80" height="80" rx="10" transform="rotate(45 85.427 28)" fill="#fff"/></g><path d="M84.156 81.923a.738.738 0 001.115-.127l4.875-7.378a.736.736 0 00-.206-1.019.732.732 0 00-1.015.207l-4.393 6.649-2.441-2.325a.731.731 0 00-1.036.028.736.736 0 00.027 1.038l3.074 2.927z" fill="#47CF80" stroke="#47CF80" stroke-width=".4"/><path d="M84.656 93.126c.14.065.295.099.449.099h.006c.157 0 .314-.037.454-.104 11.138-5.312 13.025-16.773 13.338-20.16a1.756 1.756 0 00-1.08-1.791 6.418 6.418 0 01-3.933-5.388 1.448 1.448 0 00-1.436-1.314h-.009l-15.004.088a1.437 1.437 0 00-1.43 1.341 6.42 6.42 0 01-3.875 5.426 1.75 1.75 0 00-1.053 1.802c.353 3.382 2.374 14.82 13.573 20.001zM72.712 72.674a7.881 7.881 0 004.759-6.65l14.961-.087a7.882 7.882 0 004.83 6.59c.12.05.194.17.183.299-.294 3.173-2.052 13.874-12.343 18.888-10.35-4.892-12.231-15.572-12.563-18.742a.29.29 0 01.173-.298z" fill="#47CF80" stroke="#47CF80" stroke-width=".4"/><path d="M74.541 76.746c.088.327.502.626.9.516a.736.736 0 00.514-.901 24.257 24.257 0 01-.467-2.08 10.327 10.327 0 004.191-5.509l10.578-.062a10.326 10.326 0 004.254 5.458 24.046 24.046 0 01-.442 2.088.732.732 0 101.418.368c.21-.812.38-1.637.508-2.451a1.124 1.124 0 00-.528-1.14 8.862 8.862 0 01-3.888-4.997 1.133 1.133 0 00-1.076-.797h-.007l-11.074.065a1.133 1.133 0 00-1.074.81 8.862 8.862 0 01-3.828 5.043c-.39.241-.59.69-.515 1.145.137.813.317 1.635.536 2.444zm19.465 2.178a.731.731 0 00-.956.399c-1.693 4.114-4.372 7.242-7.966 9.3-3.622-2.018-6.34-5.12-8.081-9.221a.732.732 0 10-1.348.575c1.9 4.476 4.891 7.85 8.894 10.028a1.118 1.118 0 001.086-.006c3.972-2.223 6.922-5.626 8.77-10.116a.734.734 0 00-.399-.959zM64.7 102.054a2.598 2.598 0 00-2.592 2.599 2.598 2.598 0 002.591 2.599 2.598 2.598 0 002.592-2.599 2.598 2.598 0 00-2.592-2.599zm0 3.729a1.129 1.129 0 010-2.259 1.129 1.129 0 010 2.259z" fill="#47CF80" stroke="#47CF80" stroke-width=".4"/><path d="M109.475 94.863a3.046 3.046 0 00-4.214-.817l-9.575 6.427-2.044-.115-.052-.525a4.452 4.452 0 00-3.848-3.987l-10.317-.907c-.35-.055-1.467-.376-4.537-2.142a11.368 11.368 0 00-5.22-1.507v-1.92c0-.965-.782-1.75-1.743-1.75h-6.181c-.962 0-1.744.785-1.744 1.75v18.926c0 .964.782 1.749 1.744 1.749h6.18c.962 0 1.744-.785 1.744-1.749v-.521l9.019 3.425c.02.007.752.282 2.099.155l14.985-2.167.011-.002a7.345 7.345 0 003.492-1.569c.01-.007.018-.015.027-.023l9.678-8.73a3.066 3.066 0 00.496-4zm-1.472 2.905l-9.668 8.721a5.894 5.894 0 01-2.779 1.245l-14.974 2.165a.07.07 0 00-.013.002l-.007.001a3.272 3.272 0 01-1.387-.089l-9.507-3.61v-8.389a.733.733 0 10-1.465 0v10.481a.28.28 0 01-.278.28h-6.181a.28.28 0 01-.28-.28V89.369a.28.28 0 01.28-.28h6.18a.28.28 0 01.28.28v5.127a.733.733 0 101.464 0V92.76a9.9 9.9 0 014.491 1.31c3.703 2.13 4.737 2.277 5.077 2.325l.039.005 10.318.907a2.99 2.99 0 012.54 2.67l.039.392-13.815.855-.027-.002a1.67 1.67 0 01-1.14-.598.73.73 0 00-1.031-.094.736.736 0 00-.093 1.035 3.17 3.17 0 002.133 1.12c.453.048 14.778-.894 14.778-.894l2.872.161a.721.721 0 00.448-.123l9.78-6.564a1.58 1.58 0 012.186.424 1.591 1.591 0 01-.26 2.078z" fill="#47CF80" stroke="#47CF80" stroke-width=".4"/><defs><filter id="filter0_d" x=".858" y="0" width="193.137" height="193.137" filterUnits="userSpaceOnUse" color-interpolation-filters="sRGB"><feFlood flood-opacity="0" result="BackgroundImageFix"/><feColorMatrix in="SourceAlpha" values="0 0 0 0 0 0 0 0 0 0 0 0 0 0 0 0 0 0 127 0"/><feOffset dx="12" dy="12"/><feGaussianBlur stdDeviation="20"/><feColorMatrix values="0 0 0 0 0.254722 0 0 0 0 0.328133 0 0 0 0 0.545833 0 0 0 0.1 0"/><feBlend in2="BackgroundImageFix" result="effect1_dropShadow"/><feBlend in="SourceGraphic" in2="effect1_dropShadow" result="shape"/></filter></defs></svg>