<?xml version="1.0" encoding="utf-8"?>
<!-- Generator: Adobe Illustrator 22.1.0, SVG Export Plug-In . SVG Version: 6.00 Build 0)  -->
<svg version="1.1" id="Слой_1" xmlns="http://www.w3.org/2000/svg" xmlns:xlink="http://www.w3.org/1999/xlink" x="0px" y="0px"
	 width="149.3px" height="125.7px" viewBox="0 0 149.3 125.7" style="enable-background:new 0 0 149.3 125.7;" xml:space="preserve"
	>
<style type="text/css">
	.st0{fill:none;stroke:#47CF80;stroke-miterlimit:10;}
</style>
<image style="display:none;overflow:visible;" width="145" height="122" xlink:href="“.png"  transform="matrix(1 0 0 1 1.1667 2.4106)">
</image>
<g>
	<path class="st0" d="M29.3,66.4C29.3,47,41.7,31.2,57,31.2"/>
	<line class="st0" x1="57" y1="31.2" x2="57" y2="4.1"/>
	<line class="st0" x1="29.3" y1="66.4" x2="58.7" y2="66.4"/>
	<line class="st0" x1="58.7" y1="66.4" x2="58.7" y2="123.2"/>
	<line class="st0" x1="2.7" y1="123.2" x2="58.7" y2="123.2"/>
	<line class="st0" x1="2.7" y1="66.4" x2="2.7" y2="123.2"/>
	<path class="st0" d="M2.7,66.4C2.7,32,27,4.1,57,4.1"/>
</g>
<g>
	<path class="st0" d="M114.8,66.2c0-19.4,12.4-35.2,27.7-35.2"/>
	<line class="st0" x1="142.5" y1="31" x2="142.5" y2="3.8"/>
	<line class="st0" x1="114.8" y1="66.2" x2="144.2" y2="66.2"/>
	<line class="st0" x1="144.2" y1="66.2" x2="144.2" y2="123"/>
	<line class="st0" x1="88.2" y1="123" x2="144.2" y2="123"/>
	<line class="st0" x1="88.2" y1="66.2" x2="88.2" y2="123"/>
	<path class="st0" d="M88.2,66.2c0-34.5,24.3-62.3,54.3-62.3"/>
</g>
</svg>
