<svg width="16" height="16" fill="none" xmlns="http://www.w3.org/2000/svg"><g clip-path="url(#clip0)"><path fill-rule="evenodd" clip-rule="evenodd" d="M14.26 2.749a2.004 2.004 0 011.41 1.41c.343 1.252.33 3.862.33 3.862s0 2.596-.33 3.848a2.005 2.005 0 01-1.41 1.41c-1.252.33-6.26.33-6.26.33s-4.995 0-6.26-.343a2.005 2.005 0 01-1.41-1.41C0 10.617 0 8.008 0 8.008S0 5.41.33 4.159a2.046 2.046 0 011.41-1.423c1.252-.33 6.26-.33 6.26-.33s5.008 0 6.26.343zm-3.69 5.259l-4.165 2.398V5.61l4.165 2.399z" fill="#fff"/></g><defs><clipPath id="clip0"><path fill="#fff" d="M0 0h16v16H0z"/></clipPath></defs></svg>