<svg width="185" height="185" fill="none" xmlns="http://www.w3.org/2000/svg"><g filter="url(#filter0_d)"><rect x="80.425" y="24" width="80" height="80" rx="10" transform="rotate(45 80.425 24)" fill="#fff"/></g><path d="M104.848 70.96a.785.785 0 00-.76-.034l-11.37 5.685V74.75a3.911 3.911 0 00-3.906-3.906h-25.78v-3.125a2.344 2.344 0 012.343-2.344h7.031a2.344 2.344 0 002.344 2.344h17.188a2.344 2.344 0 002.343-2.344v-1.563a2.344 2.344 0 00-2.344-2.343H74.75a2.344 2.344 0 00-2.344 2.343h-7.031a3.91 3.91 0 00-3.906 3.907v3.125h-.782a3.91 3.91 0 00-3.906 3.906V93.5a3.911 3.911 0 003.907 3.906h28.124A3.91 3.91 0 0092.72 93.5v-1.86l11.369 5.688a.783.783 0 001.131-.703v-25a.78.78 0 00-.371-.665zm-30.88-7.147a.781.781 0 01.782-.782h17.188a.781.781 0 01.78.782v1.562a.781.781 0 01-.78.781H74.75a.781.781 0 01-.781-.781v-1.563zM91.157 93.5a2.344 2.344 0 01-2.344 2.344H60.689a2.344 2.344 0 01-2.344-2.344V74.75a2.344 2.344 0 012.343-2.344h28.126a2.344 2.344 0 012.343 2.344V93.5zm12.5 1.86L92.72 89.892V78.358l10.937-5.469v22.472z" fill="#47CF80" stroke="#47CF80" stroke-width=".4"/><path d="M88.813 73.969H60.686a.781.781 0 00-.78.781V93.5a.781.781 0 00.78.781h28.126a.781.781 0 00.78-.781V74.75a.781.781 0 00-.78-.781zm-.782 18.75H61.47V75.53h26.56v17.19z" fill="#47CF80" stroke="#47CF80" stroke-width=".4"/><path d="M72.824 88.723a.78.78 0 00.807-.049l5.659-3.906a.781.781 0 000-1.286l-5.659-3.906a.781.781 0 00-1.225.643v7.812a.782.782 0 00.418.692zm1.145-7.015l3.501 2.417-3.501 2.417v-4.834zm-10.938 10.23h3.907a.781.781 0 100-1.563H63.03a.781.781 0 100 1.563zm6.25 0h.781a.781.781 0 100-1.563h-.78a.781.781 0 100 1.563z" fill="#47CF80" stroke="#47CF80" stroke-width=".4"/><defs><filter id="filter0_d" x="-.001" y=".142" width="184.853" height="184.853" filterUnits="userSpaceOnUse" color-interpolation-filters="sRGB"><feFlood flood-opacity="0" result="BackgroundImageFix"/><feColorMatrix in="SourceAlpha" values="0 0 0 0 0 0 0 0 0 0 0 0 0 0 0 0 0 0 127 0"/><feOffset dx="12" dy="12"/><feGaussianBlur stdDeviation="20"/><feColorMatrix values="0 0 0 0 0.254722 0 0 0 0 0.328133 0 0 0 0 0.545833 0 0 0 0.1 0"/><feBlend in2="BackgroundImageFix" result="effect1_dropShadow"/><feBlend in="SourceGraphic" in2="effect1_dropShadow" result="shape"/></filter></defs></svg>