<svg width="390" height="793" fill="none" xmlns="http://www.w3.org/2000/svg"><path fill-rule="evenodd" clip-rule="evenodd" d="M-131.412 119.725c-53.539 21.026-97.935 60.193-128.18 109.134-30.646 49.59-48.166 107.566-41.545 165.508 6.535 57.199 43.384 103.249 77.548 149.589 37.617 51.022 71.728 107.668 130.174 132.162 64.705 27.118 143.312 41.523 205.106 8.354 60.78-32.624 73.39-111.363 102.957-173.711 26.326-55.514 62.459-108.173 59.836-169.575-2.698-63.186-28.287-126.161-74.317-169.529-43.953-41.409-107.326-48.45-166.962-57.791-55.613-8.71-112.233-14.715-164.617 5.859z" fill="#47CF80"/></svg>