<svg width="186" height="185" fill="none" xmlns="http://www.w3.org/2000/svg"><g filter="url(#filter0_d)"><rect x="81" y="24" width="80" height="80" rx="10" transform="rotate(45 81 24)" fill="#fff"/></g><path d="M105.267 80.267H93.475v-1.666h3.181a.732.732 0 100-1.465h-3.181V75.47h2.209a3.06 3.06 0 002.178-.903l4.817-4.817c.314.157.662.24 1.023.24.614 0 1.191-.24 1.625-.673a2.283 2.283 0 00.673-1.625c0-.614-.239-1.191-.673-1.625a2.283 2.283 0 00-1.625-.673c-.614 0-1.191.239-1.625.673a2.283 2.283 0 00-.673 1.625c0 .36.083.709.239 1.023l-4.817 4.817a1.606 1.606 0 01-1.142.473h-2.21v-1.616a3.868 3.868 0 00-3.863-3.864h-1.616v-6.484a2.302 2.302 0 001.566-2.177 2.3 2.3 0 00-2.299-2.298 2.3 2.3 0 00-2.298 2.298c0 1.01.657 1.87 1.566 2.177v6.484h-1.666v-3.182a.732.732 0 10-1.465 0v3.182h-1.667V56.732a.732.732 0 10-1.465 0v11.793h-1.666v-3.182a.732.732 0 10-1.465 0v3.182H75.47v-2.209a3.06 3.06 0 00-.903-2.178l-4.818-4.819a2.3 2.3 0 00-.432-2.646 2.3 2.3 0 00-3.25 0 2.3 2.3 0 000 3.25 2.291 2.291 0 002.646.432l4.819 4.819c.305.305.473.71.473 1.142v2.21h-1.616c-.327 0-.652.04-.966.12a.732.732 0 00.365 1.42c.195-.05.397-.076.6-.076h17.223a2.402 2.402 0 012.399 2.399V89.61c0 .203-.026.405-.076.6a.732.732 0 101.419.364 3.9 3.9 0 00.122-.964v-1.616h6.483a2.302 2.302 0 002.178 1.565 2.3 2.3 0 002.298-2.298 2.3 2.3 0 00-2.298-2.298 2.302 2.302 0 00-2.178 1.566h-6.483v-1.666h3.181a.733.733 0 000-1.465h-3.181v-1.667h11.792a.733.733 0 100-1.465zm-2.154-13.164a.83.83 0 011.422.59.83.83 0 01-.833.832.826.826 0 01-.589-.244.825.825 0 01-.244-.59c0-.222.086-.43.244-.588zm-34.832-8.216a.834.834 0 01-1.178-1.178.83.83 0 011.178 0 .834.834 0 010 1.178zm18.981 1.81a.834.834 0 010-1.666.834.834 0 010 1.666zm14.874 25.732a.834.834 0 11-.001 1.668.834.834 0 01.001-1.668zm-6.203 15.648a2.3 2.3 0 00-2.646-.432l-4.819-4.819a1.606 1.606 0 01-.473-1.142v-2.21h1.616c.327 0 .651-.04.965-.121a.732.732 0 10-.365-1.419 2.41 2.41 0 01-.6.076H72.389a2.402 2.402 0 01-2.399-2.399V72.389c0-.204.026-.406.076-.6a.733.733 0 00-1.419-.365c-.08.313-.122.638-.122.965v1.616h-6.484a2.302 2.302 0 00-2.177-1.566 2.3 2.3 0 00-2.298 2.298 2.3 2.3 0 002.298 2.298 2.302 2.302 0 002.177-1.565h6.484v1.666h-3.182a.732.732 0 100 1.465h3.182v1.666H56.732a.732.732 0 000 1.465h11.793V83.4h-3.182a.732.732 0 100 1.465h3.182v1.666h-2.209a3.06 3.06 0 00-2.178.902L59.32 92.25a2.288 2.288 0 00-1.023-.24c-.614 0-1.191.24-1.625.674A2.284 2.284 0 0056 94.308c0 .614.24 1.19.673 1.625a2.283 2.283 0 001.625.673c.614 0 1.191-.24 1.625-.673a2.283 2.283 0 00.673-1.625 2.28 2.28 0 00-.24-1.023l4.818-4.817a1.606 1.606 0 011.142-.473h2.21v1.616a3.868 3.868 0 003.863 3.864h1.616v6.483a2.302 2.302 0 00-1.566 2.178 2.3 2.3 0 002.299 2.298 2.3 2.3 0 002.298-2.298 2.302 2.302 0 00-1.566-2.178v-6.483h1.666v3.181a.733.733 0 001.465 0v-3.181h1.666v11.792a.733.733 0 101.465 0V93.475H83.4v3.181a.732.732 0 101.465 0v-3.181h1.666v2.209c0 .823.32 1.596.902 2.178l4.819 4.819a2.3 2.3 0 00.432 2.646 2.29 2.29 0 001.625.672 2.29 2.29 0 001.625-.672 2.3 2.3 0 000-3.25zm-36.07-26.506a.834.834 0 010-1.667.834.834 0 010 1.667zm-.976 19.326a.828.828 0 01-.589.244.828.828 0 01-.59-.244.828.828 0 01-.243-.59c0-.222.086-.43.244-.588a.827.827 0 01.589-.244c.223 0 .432.086.59.244a.828.828 0 01.243.589.828.828 0 01-.244.59zm16.683 7.239a.834.834 0 11-1.667-.001.834.834 0 011.667.001zm19.327 2.155a.834.834 0 11-1.178-1.18.834.834 0 011.178 1.18z" fill="#47CF80" stroke="#47CF80" stroke-width=".4"/><path d="M88.778 79.043c0-1.567-1.146-2.893-2.715-3.325a2.5 2.5 0 00.073-.59c0-1.482-1.317-2.689-2.934-2.689-.877 0-1.664.355-2.202.915a3.047 3.047 0 00-2.202-.915c-1.618 0-2.934 1.207-2.934 2.69 0 .201.026.398.072.59-1.568.43-2.714 1.757-2.714 3.324 0 .765.271 1.488.772 2.084a3.621 3.621 0 00-.772 2.221c0 1.246.665 2.409 1.761 3.13v.002c0 1.698 1.514 3.08 3.375 3.08 1.07 0 2.023-.456 2.642-1.167.618.71 1.573 1.168 2.642 1.168 1.79 0 3.26-1.28 3.367-2.891 1.088-.631 1.769-1.737 1.769-2.93 0-.878-.375-1.716-1.019-2.349.644-.633 1.019-1.47 1.019-2.348zm-2.593 2.996c.706.372 1.127 1.008 1.127 1.7 0 .517-.24 1.01-.645 1.378-.385-.713-1.065-1.28-1.925-1.55a.733.733 0 00-.44 1.397c.747.234 1.25.844 1.25 1.516 0 .89-.858 1.616-1.91 1.616-1.053 0-1.91-.725-1.91-1.616v-4.697c0-.891.856-1.616 1.91-1.616a.732.732 0 100-1.465c-.709 0-1.367.2-1.91.543v-.936a.732.732 0 10-1.465 0v4.066a3.489 3.489 0 00-.81-.374.732.732 0 10-.438 1.397c.746.235 1.248.844 1.248 1.516v1.566c0 .89-.857 1.616-1.91 1.616-1.052 0-1.91-.725-1.91-1.616 0-.382.163-.754.457-1.046a.733.733 0 00-1.033-1.039 3.117 3.117 0 00-.452.568c-.463-.438-.733-1.013-.733-1.615 0-1.085.852-2.038 2.071-2.318a.732.732 0 00-.327-1.428c-.49.113-.943.3-1.344.548a1.77 1.77 0 01-.4-1.107c0-1.102 1.045-1.999 2.332-2.007h.02a.732.732 0 00.621-1.118l-.016-.026-.01-.013a.724.724 0 00-.035-.047h-.001a1.087 1.087 0 01-.268-.703c0-.676.659-1.225 1.469-1.225s1.47.55 1.47 1.225a.732.732 0 001.464 0c0-.676.66-1.225 1.47-1.225.81 0 1.469.55 1.469 1.225 0 .18-.048.334-.11.46-.417.04-.82.14-1.202.302a.732.732 0 10.569 1.35 2.643 2.643 0 011.012-.205h.041c1.287.008 2.331.905 2.331 2.007 0 .692-.42 1.328-1.127 1.7a.732.732 0 000 1.296z" fill="#47CF80" stroke="#47CF80" stroke-width=".4"/><defs><filter id="filter0_d" x=".574" y=".142" width="184.853" height="184.853" filterUnits="userSpaceOnUse" color-interpolation-filters="sRGB"><feFlood flood-opacity="0" result="BackgroundImageFix"/><feColorMatrix in="SourceAlpha" values="0 0 0 0 0 0 0 0 0 0 0 0 0 0 0 0 0 0 127 0"/><feOffset dx="12" dy="12"/><feGaussianBlur stdDeviation="20"/><feColorMatrix values="0 0 0 0 0.254722 0 0 0 0 0.328133 0 0 0 0 0.545833 0 0 0 0.1 0"/><feBlend in2="BackgroundImageFix" result="effect1_dropShadow"/><feBlend in="SourceGraphic" in2="effect1_dropShadow" result="shape"/></filter></defs></svg>