<svg width="353" height="673" fill="none" xmlns="http://www.w3.org/2000/svg"><path fill-rule="evenodd" clip-rule="evenodd" d="M658.732 374.849c11.854-56.285 3.528-114.899-20.74-167.063-24.59-52.856-63.399-99.353-115.447-125.663-51.379-25.972-110.103-20.492-167.592-17.414-63.299 3.389-129.371.76-181.953 36.128-58.214 39.157-113.446 96.915-119.692 166.769-6.144 68.709 52.71 122.514 88.552 181.478 31.914 52.502 56.052 111.628 108.793 143.18 54.273 32.468 120.949 45.696 182.476 31.071 58.75-13.965 99.458-63.042 140.035-107.734 37.837-41.676 73.969-85.68 85.568-140.752z" fill="#47CF80"/></svg>