<svg width="633" height="474" fill="none" xmlns="http://www.w3.org/2000/svg"><path opacity=".8" d="M553.753 407.619c55.531-52.986 68.798-161.165 17.363-236.38C528.245 108.548 449.28 44.061 349.773 25.263 250.266 6.465 163.09 6.486 125.389 31.32c-30.853 20.323-16.511 48.627-6.835 72.679 12.916 32.109 14.819 57.601-38.316 104.245C19.582 261.489 3.164 281.478.124 332.963c-2.473 41.875 32.502 98.198 78.398 106.27 63.893 11.238 87.609-18.443 150.118-38.45 50.145-16.051 84.924-8.545 130.389 22.215 45.464 30.762 113.231 62.376 194.724-15.379z" fill="#47CF80"/><path d="M199.319 184.901l-.068-1.086c.173-.012 17.459-1.289 23.431-17.09 1.415-3.744 2.19-7.651 3.011-11.787 2.746-13.838 5.585-28.145 32.534-37.892 17.16-6.205 29.922-5.14 40.178-4.284 15.738 1.314 26.138 2.182 39.404-24.12l.972.49c-13.597 26.958-24.286 26.067-40.467 24.715-10.149-.847-22.782-1.901-39.715 4.223-26.372 9.538-29.15 23.539-31.838 37.08-.83 4.182-1.612 8.132-3.059 11.959-6.225 16.47-24.202 17.781-24.383 17.792z" fill="#71ABEC"/><path d="M482.174 348.864s-13.235-4.809-20.543-10.21c-2.171-1.603-3.819-3.257-4.443-4.854-.546-1.394-.31-2.742 1.037-3.973 0 0 .885-.36 3.127.569 3.321 1.379 9.621 5.591 20.427 18.015l.395.453z" fill="url(#paint0_linear)"/><path d="M482.174 348.864l-.755 3.691s-26.421 6.593-34.813-2.013a7.806 7.806 0 01-.354-.384c-.731-.84-1.203-1.712-1.46-2.599-2.37-8.169 13.434-17.732 13.434-17.732-.362.459-.265 1.096.179 1.862.43.737 1.184 1.592 2.167 2.519 6.221 5.88 21.602 14.656 21.602 14.656z" fill="url(#paint1_linear)"/><path d="M460.571 334.209s-5.438 2.244-7.08 5.761c-1.642 3.517-2.561 6.507-4.832 7.58-1.057.5-1.855 1.588-2.407 2.608-.73-.84-1.202-1.711-1.459-2.599.183-1.411.704-2.945 1.881-4.336 3.38-3.997 6.803-6.886 7.222-8.337.316-1.093 3.137-2.547 4.51-3.197.429.737 1.183 1.592 2.166 2.519v.001h-.001z" fill="url(#paint2_linear)"/><path d="M490.223 348.864s13.234-4.809 20.543-10.21c2.171-1.603 3.819-3.257 4.443-4.854.545-1.394.31-2.742-1.038-3.973 0 0-.885-.36-3.126.569-3.32 1.379-9.621 5.591-20.427 18.015l-.395.453z" fill="url(#paint3_linear)"/><path d="M490.223 348.864l.754 3.691s26.422 6.593 34.815-2.013c.124-.127.242-.255.353-.384.731-.84 1.203-1.712 1.46-2.599 2.37-8.169-13.434-17.732-13.434-17.732.361.459.265 1.096-.181 1.862-.428.737-1.183 1.592-2.165 2.519-6.221 5.88-21.602 14.656-21.602 14.656z" fill="url(#paint4_linear)"/><path d="M481.166 348.864s1.232-1.397 2.099-.849c.867.547 2.099-1.049 3.421-.41 1.324.638 1.461-1.128 3.059-.154 1.596.974 2.554 4.167 1.368 5.763-1.187 1.597-1.825-.319-2.418 0-.593.319-1.688 1.744-3.514.643-1.826-1.099-4.517.999-4.335-.369.183-1.368-.456-1.994.32-4.624z" fill="url(#paint5_linear)"/><path d="M534.612 352.424h-96.825v76.016h96.825v-76.016z" fill="url(#paint6_linear)"/><path d="M538.044 352.424H434.353v26.378h103.691v-26.378z" fill="url(#paint7_linear)"/><path d="M496.614 352.424h-20.829v76.016h20.829v-76.016z" fill="url(#paint8_linear)"/><path d="M446.847 97.107H239.656c-5.732 0-10.379 4.644-10.379 10.374v311.093c0 5.73 4.647 10.374 10.379 10.374h207.191c5.733 0 10.378-4.644 10.378-10.374V107.481c0-5.73-4.645-10.374-10.378-10.374z" fill="url(#paint9_linear)"/><path d="M195.699 181.481l-22.685-.584a5.724 5.724 0 00-3.595 1.153l-61.753 46.611a5.716 5.716 0 00-1.118 8.008l17.04 22.553a5.72 5.72 0 008.011 1.116l61.753-46.61a5.716 5.716 0 002.093-3.141l5.646-21.968c.916-3.559-1.717-7.044-5.392-7.138zm1.518 8.291a3.06 3.06 0 11.599-4.284 3.06 3.06 0 01-.599 4.284z" fill="#2D72C2"/><path d="M138.695 239.855a10.086 10.086 0 01-2.976 1.556c-1.069.349-2.11.484-3.126.407l-.07-3.363c.143.062.395.098.755.104.358.007.772-.028 1.242-.104a7.43 7.43 0 001.491-.423 6.264 6.264 0 001.501-.846c.733-.552 1.17-1.107 1.313-1.666.144-.558.036-1.075-.323-1.551a1.157 1.157 0 00-.667-.444 2.442 2.442 0 00-.922-.022c-.345.05-.73.144-1.153.281-.422.138-.881.298-1.377.479-1.126.41-2.086.585-2.88.523-.793-.062-1.471-.465-2.033-1.208-.571-.756-.927-1.544-1.07-2.366a5.958 5.958 0 01.077-2.428 6.64 6.64 0 011.046-2.268 8.477 8.477 0 011.834-1.888c.867-.654 1.747-1.092 2.64-1.317.894-.224 1.72-.317 2.479-.276l-.008 3.223c-.114-.049-.318-.078-.611-.086a5.084 5.084 0 00-1.01.088 6.56 6.56 0 00-1.194.341 4.86 4.86 0 00-1.173.654c-.732.554-1.16 1.126-1.287 1.72-.126.594.009 1.152.405 1.676.156.208.344.348.563.423.218.074.476.091.771.049.295-.039.625-.122.992-.245.366-.124.786-.277 1.26-.463a12.923 12.923 0 011.672-.544 5.077 5.077 0 011.478-.154c.461.026.891.146 1.292.36.402.215.772.548 1.113.998.618.817.988 1.638 1.114 2.463a5.318 5.318 0 01-.16 2.375 6.438 6.438 0 01-1.151 2.147 10.234 10.234 0 01-1.847 1.795zm10.092-7.56c-.537.405-1.091.666-1.664.782a3.898 3.898 0 01-1.7-.024 4.612 4.612 0 01-1.614-.749 6.357 6.357 0 01-1.396-1.372 7.672 7.672 0 01-1.291-2.602 8.103 8.103 0 01-.291-2.782 7.19 7.19 0 01.678-2.58 5.373 5.373 0 011.623-2c.658-.496 1.348-.749 2.07-.758a3.223 3.223 0 011.96.617l-.878-1.922 2.452-1.851 3.659 7.807c.065.163.128.286.193.371.193.256.442.28.743.071l1.136 2.416c-.191.204-.36.379-.506.528a3.88 3.88 0 01-.403.361c-.427.322-.835.486-1.222.492-.389.006-.722-.175-.998-.54-.111-.146-.248-.405-.415-.778-.003.961-.201 1.832-.595 2.618-.393.784-.907 1.415-1.541 1.895zm-.478-2.914a2.63 2.63 0 00.579-.623c.178-.259.321-.544.431-.856.109-.312.186-.639.235-.982.047-.342.051-.68.01-1.013l-1.251-2.646c-.48-.481-1.029-.764-1.65-.851-.621-.087-1.162.045-1.627.394-.39.295-.692.682-.906 1.159a4.091 4.091 0 00-.352 1.529 5.199 5.199 0 00.198 1.632 4.37 4.37 0 00.727 1.476c.479.634 1.05 1.035 1.714 1.204.664.169 1.295.028 1.892-.423zm10.405-4.636c-.623.47-1.206.685-1.752.647-.546-.037-1.021-.326-1.427-.861a3.745 3.745 0 01-.23-.344 6.07 6.07 0 01-.221-.408l-6.037-12.934 2.434-1.836 5.588 11.923a2.505 2.505 0 00.24.393c.377.5.816.561 1.317.183a2.3 2.3 0 00.411-.425 4 4 0 00.365-.563l1.336 1.922a6.706 6.706 0 01-.923 1.269 8.091 8.091 0 01-1.101 1.034zm7.585-5.668c-.611.46-1.232.771-1.866.934a4.48 4.48 0 01-1.87.091 4.504 4.504 0 01-1.745-.693 5.981 5.981 0 01-1.489-1.419 7.018 7.018 0 01-1.24-2.611 7.486 7.486 0 01-.135-2.841 7.745 7.745 0 01.954-2.731 7.506 7.506 0 012.028-2.278c1.038-.783 2.037-1.178 2.999-1.186.961-.007 1.769.422 2.423 1.287 1.557 2.061.493 4.481-3.191 7.263l-.677.511a9.916 9.916 0 01-.759.516l.179.237c.489.647 1.03 1.06 1.628 1.242.597.18 1.212.033 1.847-.446.487-.368.86-.832 1.118-1.391a3.366 3.366 0 00.302-1.75l2.395-.86a6.45 6.45 0 01-.129 1.692 7.416 7.416 0 01-.56 1.673 8.057 8.057 0 01-.94 1.513 6.95 6.95 0 01-1.272 1.247zm-4.388-9.498c-.353.267-.635.58-.843.938a3.475 3.475 0 00-.42 1.136 4.673 4.673 0 00-.051 1.245c.038.431.126.852.265 1.264.205-.134.398-.272.581-.41l.568-.428c.585-.442 1.06-.847 1.423-1.217.362-.37.623-.71.78-1.02.157-.31.229-.59.215-.838a1.272 1.272 0 00-.271-.7c-.267-.354-.602-.517-1.003-.492-.402.027-.817.2-1.244.522zm289.096-94.853H235.496v291.937h215.511V114.726z" fill="#fff"/><path d="M418.654 148.664h-148.92c-6.407 0-11.599 5.191-11.599 11.595v138.309c0 6.403 5.192 11.594 11.599 11.594h148.92c6.408 0 11.6-5.191 11.6-11.594V160.259c0-6.404-5.192-11.595-11.6-11.595z" fill="#F6F6F6"/><path d="M345.249 269.815h-66.707v6.641h66.707v-6.641zm51.467-88.235h-23.387v6.642h23.387v-6.642zm9.967 14.548h-33.354v6.641h33.354v-6.641zm-6.012 14.547h-27.342v6.642h27.342v-6.642zm5.063 13.322h-32.405v6.642h32.405v-6.642zm-23.15 59.89H278.542v6.642h104.042v-6.642z" fill="#D9D9D9"/><path d="M290.741 172.198c4.011-1.873 9.3-2.864 14.161-3.371.771-.077 1.521-.143 2.259-.209a89.403 89.403 0 013.174-.198 7.54 7.54 0 007.494 6.599c3.857 0 7.042-2.875 7.505-6.599.992.043 2.061.111 3.163.198.727.066 1.488.133 2.248.209 7.483.783 15.99 2.7 19.297 7.227 6.436 8.812 7.714 31.394 6.799 74.717h-1.381v2.215h-8.965v-2.215h-1.776v-11.015h-3.444v4.532h-46.891v-4.532h-3.456v11.015h-1.594v2.215h-8.965v-2.215h-1.564c-.915-43.323.375-65.905 6.801-74.717 1.09-1.488 2.754-2.699 4.749-3.668l.386-.188z" fill="#2D72C2"/><path d="M328.497 168.617c-.11 5.806-4.85 10.465-10.668 10.465a10.663 10.663 0 01-10.669-10.465 91.732 91.732 0 013.175-.198 7.54 7.54 0 007.494 6.599c3.856 0 7.041-2.876 7.505-6.599a95.47 95.47 0 013.163.198z" fill="#4D56AB"/><path d="M420.447 280.17c0 7.598-6.163 13.757-13.764 13.757-7.602 0-13.763-6.159-13.763-13.757 0-7.597 6.161-13.756 13.763-13.756 7.601 0 13.764 6.159 13.764 13.756z" fill="#2D72C2"/><path d="M405.339 286.571l-6.089-6.086 2.684-2.684 3.405 3.402 6.092-6.09 2.685 2.684-8.777 8.774z" fill="#fff"/><path opacity=".75" d="M238.929 256.506h-76.708a5.913 5.913 0 00-5.915 5.911v69.801a5.913 5.913 0 005.915 5.911h76.708a5.914 5.914 0 005.915-5.911v-69.801a5.914 5.914 0 00-5.915-5.911z" fill="#F6F6F6"/><path d="M201.117 317.374h-34.313v3.416h34.313v-3.416zm19.205 7.24h-53.518v3.416h53.518v-3.416z" fill="#D9D9D9"/><path d="M239.799 322.702a7.078 7.078 0 01-7.08 7.075 7.077 7.077 0 110-14.152 7.079 7.079 0 017.08 7.077z" fill="#7BAEF3"/><path d="M232.027 325.812l-3.042-3.04 1.2-1.2 1.842 1.84 3.225-3.223 1.199 1.2-4.424 4.423z" fill="#fff"/><path d="M223.007 283.931h-7.326v24.405h-30.212v-24.405h-7.326c0-15.386 5.25-14.817 7.326-16.018 1.221-.709 4.562-1.454 7.788-2.044.513-.095 1.019-.189 1.519-.272a5.861 5.861 0 005.802 4.965 5.859 5.859 0 005.795-4.965c.501.082 1.006.177 1.519.272 3.227.59 6.567 1.335 7.788 2.044 2.076 1.201 7.327.632 7.327 16.018z" fill="#CA65A4"/><path d="M207.893 265.869c-.146 3.915-3.367 7.051-7.315 7.051a7.33 7.33 0 01-7.321-7.051c.513-.095 1.019-.189 1.519-.272a5.861 5.861 0 005.802 4.965 5.86 5.86 0 005.796-4.965c.5.082 1.005.177 1.519.272z" fill="#9E5182"/><path opacity=".74" d="M516.48 151.878h-66.595a5.186 5.186 0 00-5.186 5.185v61.849a5.185 5.185 0 005.186 5.185h66.595a5.186 5.186 0 005.187-5.185v-61.849a5.187 5.187 0 00-5.187-5.185z" fill="#F6F6F6"/><path d="M505.655 166.598h-14.49v2.97h14.49v-2.97zm-3.867 6.505h-10.623v2.97h10.623v-2.97zm7.168 6.505h-17.791v2.97h17.791v-2.97zm0 11.915h-17.791v2.97h17.791v-2.97zm-4.904-5.957h-12.887v2.969h12.887v-2.969z" fill="#D9D9D9"/><path d="M501.941 213.473a6.153 6.153 0 10-.341-12.298 6.153 6.153 0 10.341 12.298z" fill="#7BAEF3"/><path d="M501.187 210.166l-2.722-2.721 1.201-1.201 1.521 1.522 2.726-2.723 1.2 1.199-3.926 3.924z" fill="#fff"/><path d="M479.552 211.387h-4.359v2.974h4.359v-2.974zm-18.836 0h-4.36v2.974h4.36v-2.974zm16.56-49.773H458.62v2.508h18.656v-2.508z" fill="#99A552"/><path d="M477.728 162.869h-19.561s-2.795 40.242-2.588 50.587h5.9s3.002-34.485 6.469-34.485c3.468 0 6.468 34.485 6.468 34.485h5.9c.206-10.346-2.588-50.587-2.588-50.587z" fill="#C8D969"/><path d="M509.786 346.075s-.893 1.466-1.005 2.66c-.089.947-.884 2.359-1.23 3.141-.343.78-1.453 4.314-1.492 5.234-.017.375.823 2.746.704 3.504s-.553 2.26.128 2.358c.681.101 1.453-1.13 1.453-1.13s-.065.698.512.964c1.12.518 1.713.062 1.713.062s.414.768.932.872c1.144.227 1.705-.231 1.705-.231s.503.43 1.294.415c1.011-.02 1.436-.892 1.436-.892s1.28.259 1.652-.34c.37-.597.306-1.232.46-1.774.155-.541.038-5.427-1.623-8.946-1.661-3.518.423-6.949.423-6.949l-7.062 1.052z" fill="#DBA585"/><path d="M508.163 361.384s-.113-4.385 1.042-5.318c1.154-.934 1.284.649 1.284.649s-.155-1.564 1.106-1.775c1.261-.212 1.314 1.647 1.314 1.647s.208-1.206 1.532-.958c1.325.248 1.009 1.787 1.009 1.787s1.266-1.509 2.088-.061c1.386 2.448.109 5.326.109 5.326s-.45.675-1.711.351c0 0-.848 1.743-2.735.523 0 0-1.94 1.074-2.644-.629 0-.001-2.202.965-2.394-1.542z" fill="#C99A7D"/><path d="M494.906 282.92s7.509 25.014 10.046 34.241c.796 2.895 2.722 30.53 3.063 31.643.339 1.112 9.864 2.637 9.864 2.637s-1.155-34.573-1.262-36.458c-.108-1.886-10.509-40.492-13.535-41.87-2.265-1.032-3.462-.179-6.318 1.941-4.007 2.974-1.858 7.866-1.858 7.866z" fill="#363957"/><path d="M500.999 453.715s.685 4.75.771 5.462c.085.713 7.614-.42 7.614-.42l.609-5.653s-8.052-.059-8.994.611z" fill="#454971"/><path d="M501.689 458.573s-2.386 2.862-4.692 4.109c-2.307 1.248-5.932 1.74-7.298 3.032-.984.932-3.586 4.945 5.996 4.863 9.582-.08 14.202.567 15.229-.971 1.027-1.538-1.486-11.355-1.486-11.355s-2.269.817-7.749.322z" fill="#2E3048"/><path d="M447.056 453.715s.684 4.75.769 5.462c.086.713 7.615-.42 7.615-.42l.609-5.653s-8.053-.059-8.993.611z" fill="#454971"/><path d="M447.745 458.573s-2.385 2.862-4.692 4.109c-2.307 1.248-10.797 2.272-12.161 3.562-.985.933-2.624 4.684 10.858 4.333 9.58-.249 14.203.567 15.23-.971 1.026-1.538-1.487-11.355-1.487-11.355s-2.137.873-7.748.322zm47.02-126.879s7.074 11.234 6.546 21.388c-.527 10.155 2.565 21.242 3.628 31.851 1.185 11.826 6.033 39.822 6.208 46.149.176 6.325-.753 26.526-.753 26.526l-9.704.222s-8.152-48.946-10.262-53.94c-2.111-4.994-12.581-40.599-12.932-44.594-.351-3.996 17.269-27.602 17.269-27.602z" fill="#2E3048"/><path d="M457.525 333.215s-5.33 27.832-6.035 34.048c-.703 6.216-1.172 30.077-1.524 33.963-.352 3.884-3.287 50.716-4.222 56.604h12.407s9.524-34.13 9.524-50.278c0-16.148 7.358-35.105 12.108-45.76 4.749-10.653 15.622-10.906 18.541-30.674.001 0-36.846-4.172-40.799 2.097z" fill="#2E3048"/><path d="M482.96 237.244s-9.495-3.546-13.873 3.679c-4.378 7.224-3.956 21.688.83 23.466 4.786 1.779 11.975.85 14.426-3.672 2.451-4.52 4.663-11.056 4.557-15.423-.107-4.367-3.446-6.79-5.94-8.05z" fill="#DBA585"/><path d="M470.947 264.72s.396 2.562-.257 3.824c-.653 1.263 12.3 1.297 12.3 1.297s1.053-6.867 3.046-12.668c1.994-5.8-15.089 7.547-15.089 7.547z" fill="#DBA585"/><path d="M486.036 257.174s-.894 1.474-4.543.901c-3.65-.571-8.102-5.425-9.627-5.958-1.523-.533-1.537-1.427-1.537-1.427l-.954 1.393-1.62.102s1.476-4.342-.75-6.113c-2.227-1.77 2.312-14.052 14.016-9.964 0 0 8.99 2.478 8.663 7.589-.326 5.11-1.636 10.931-3.648 13.477z" fill="#363957"/><path d="M469.921 268.393s.041-2.412 1.134-2.643c1.094-.231 12.073-1.287 13.415-.759v2.81s-2.586 1.591-14.549.592z" fill="#DCD0C8"/><path d="M470.57 248.83c.205-.856 2.385-3.306 3.221-.684.834 2.623-1.263 6.151-2.432 5.85-1.169-.302-1.308-2.993-.789-5.166z" fill="#DBA585"/><path d="M426.35 296.889c.005-.003.011-.003.018-.001-.076.032-.086.036-.018.001zm59.315-58.793s12.106.946.371 19.077l-.371-19.077z" fill="#363957"/><path d="M403.161 241.778c.387-1.212 1.688-1.566 1.688-1.566.544-.82 1.942-1.248 1.942-1.248.02-.058.056-.11.082-.166-.859-.921-3.354-2.645-3.5-2.972-.176-.397-.132-.441.352-.704.404-.22 4.477 2.429 5.835 3.326.333.21.604.406.66.452.376.316 1.137.547 1.777 1.222.071.07.138.15.205.235.674.861 2.261 7.76 2.261 7.76l-2.835 1.272-2.732 2.316s-3.189-2.639-4.007-3.469c-.82-.83-1.193-1.796-1.42-2.204a4.094 4.094 0 00-.27-.4c-.37-.501-.933-1.172-.933-1.172-.279-.39-.443-1.361-.443-1.361.057-.813 1.338-1.321 1.338-1.321z" fill="#DCA787"/><path d="M451.762 272.046c7.528-.992 18.16-3.653 18.16-3.653l14.548-.592s13.354 2.938 18.612 5.312c.499.225.502 11.907 1.87 14.971l-4.359 9.194s-2.519 18.211-3.041 26.312c-.241 3.717 5.194 34.867 5.194 34.867s-5.823 1.712-15.753 2.807c-9.93 1.093-34.741-.396-34.896-1.568-.157-1.172 4.803-43.651 5.023-45.851.337-3.376-1.163-21.318-1.163-21.318-2.294-1.778-22.424-11.116-27.915-15.984-1.471-1.303-7.674-7.341-9.437-9.425-6.244-7.38-11.364-13.713-11.986-15.077-.708-.777 6.785-4.846 7.465-5.073.594-.199 9.035 10.733 12.284 14.251 1.448 1.568 7.469 5.946 7.469 5.946s13.216 5.15 17.925 4.881z" fill="#363957"/><path d="M519.535 108.174l-1.173 13.669-38.667-3.315 1.547-18.027 34.306 2.942.17.202 3.641 4.319.176.21z" fill="#90C0FC"/><path d="M519.535 108.174l-4.326-.371.371-4.322.071.085.162.191 3.452 4.097.27.32zm-15.873 3.33a4.174 4.174 0 01-8.319-.714 4.173 4.173 0 014.517-3.801 4.173 4.173 0 013.802 4.515zm8.524.73a1.765 1.765 0 11-3.517-.303 1.765 1.765 0 013.517.303zm-25.366-2.175a1.765 1.765 0 113.517.303 1.765 1.765 0 01-3.517-.303z" fill="#4D7FC7"/><path d="M566.067 81.272l6.48 12.094-34.211 18.316-8.546-15.95 30.352-16.25.253.077 5.409 1.633.263.08z" fill="#90C0FC"/><path d="M566.066 81.272l-3.828 2.05-2.048-3.825.105.032.24.073 5.13 1.549.401.121zM554.583 92.72a4.172 4.172 0 01-1.709 5.65 4.176 4.176 0 01-5.651-1.709 4.175 4.175 0 017.36-3.94zm7.542-4.037a1.765 1.765 0 01-3.112 1.666 1.765 1.765 0 013.112-1.667zm-22.444 12.015a1.765 1.765 0 113.113-1.664 1.765 1.765 0 01-3.113 1.664z" fill="#4D7FC7"/><path d="M537.511 65.58l-8.256 10.96-31.005-23.333 10.887-14.453 27.508 20.7.037.261.789 5.593.04.272z" fill="#90C0FC"/><path d="M537.511 65.58l-3.47-2.612 2.611-3.465.015.11.035.248.75 5.304.059.415zm-15.219-5.604a4.177 4.177 0 01-5.847.823 4.171 4.171 0 01-.824-5.843 4.175 4.175 0 016.671 5.02zm6.834 5.142a1.765 1.765 0 11-2.82-2.124 1.765 1.765 0 012.82 2.124zm-20.34-15.305a1.766 1.766 0 012.821 2.122 1.766 1.766 0 01-2.821-2.122z" fill="#4D7FC7"/><path d="M574.955 1.287l7.471 11.508-32.555 21.116-9.854-15.178L568.901 0l.26.055 5.525 1.174.269.058z" fill="#90C0FC"/><path d="M574.955 1.287l-3.642 2.362L568.951.01l.108.023.245.052 5.243 1.115.408.087zm-10.484 12.369a4.17 4.17 0 01-1.229 5.772 4.177 4.177 0 01-5.775-1.229 4.175 4.175 0 017.004-4.543zm7.178-4.655a1.764 1.764 0 11-2.96 1.92 1.764 1.764 0 012.96-1.92zm-21.358 13.852a1.765 1.765 0 112.961-1.92 1.765 1.765 0 01-2.961 1.92z" fill="#4D7FC7"/><path d="M225.953 87.157v37.195s6.29 10.479 13.799 0h13.801s6.29 10.479 13.799 0h13.801s6.289 10.479 13.799 0h13.799s6.291 10.479 13.801 0h13.799s6.291 10.479 13.8 0h13.801s6.29 10.479 13.799 0h13.8s6.291 10.479 13.8 0h13.799s6.291 10.479 13.801 0h13.799s6.291 10.479 13.801 0V87.157H225.953z" fill="url(#paint10_linear)"/><path d="M239.752 124.352s6.29 10.479 13.801 0V87.157h-13.801v37.195z" fill="url(#paint11_linear)"/><path d="M267.352 124.352s6.289 10.479 13.801 0V87.157h-13.801v37.195z" fill="url(#paint12_linear)"/><path d="M294.952 124.352s6.29 10.479 13.799 0V87.157h-13.799v37.195z" fill="url(#paint13_linear)"/><path d="M322.552 124.352s6.289 10.479 13.799 0V87.157h-13.799v37.195z" fill="url(#paint14_linear)"/><path d="M350.151 124.352s6.29 10.479 13.8 0V87.157h-13.8v37.195z" fill="url(#paint15_linear)"/><path d="M377.751 124.352s6.29 10.479 13.799 0V87.157h-13.799v37.195z" fill="url(#paint16_linear)"/><path d="M405.351 124.352s6.289 10.479 13.799 0V87.157h-13.799v37.195z" fill="url(#paint17_linear)"/><path d="M432.951 87.157v37.195s6.289 10.479 13.799 0V87.157h-13.799z" fill="url(#paint18_linear)"/><path d="M412.623 331.202h-51.801c-4.717 0-8.54 3.822-8.54 8.535v4.407a8.538 8.538 0 008.54 8.537h51.801a8.538 8.538 0 008.539-8.537v-4.407c0-4.713-3.823-8.535-8.539-8.535z" fill="#2D72C2"/><path d="M327.567 331.202h-51.8c-4.717 0-8.541 3.822-8.541 8.535v4.407c0 4.715 3.824 8.537 8.541 8.537h51.8a8.538 8.538 0 008.54-8.537v-4.407c0-4.713-3.823-8.535-8.54-8.535z" fill="#E4E4E4"/><path d="M410.418 387.672H277.971c-5.935 0-10.745-4.808-10.745-10.74s4.81-10.739 10.745-10.739h132.447c5.934 0 10.744 4.807 10.744 10.739s-4.81 10.74-10.744 10.74z" fill="#2D72C2"/><path d="M323.985 339.386H279.35v5.109h44.635v-5.109zm62.905 5.109h-22.397a2.555 2.555 0 110-5.108h22.397a2.554 2.554 0 110 5.108z" fill="#fff"/><path d="M291.623 161.256H270.68a2.555 2.555 0 110-5.108h20.943a2.553 2.553 0 110 5.108z" fill="#D9D9D9"/><path d="M409.233 339.948h-3.957a2.555 2.555 0 110-5.108h3.957a2.553 2.553 0 110 5.108z" fill="#fff"/><path d="M291.536 376.932a6.058 6.058 0 01-12.117 0 6.058 6.058 0 016.059-6.056 6.057 6.057 0 016.058 6.056z" fill="#7BAEF3"/><path d="M613.459 420.464c-4.295 0-7.791-4.065-7.791-9.063 0-4.996 3.496-9.062 7.791-9.062 4.296 0 7.789 4.066 7.789 9.062 0 4.998-3.494 9.063-7.789 9.063zm0-17.403c-3.898 0-7.069 3.741-7.069 8.34 0 4.6 3.171 8.342 7.069 8.342 3.897 0 7.068-3.742 7.068-8.342 0-4.599-3.171-8.34-7.068-8.34z" fill="#2C323D"/><path d="M633 411.401h-39.083v56.67H633v-56.67z" fill="#4D59BE"/><path d="M574.798 410.664c-5.18 0-9.394-4.902-9.394-10.928 0-6.025 4.214-10.926 9.394-10.926s9.393 4.9 9.393 10.926-4.214 10.928-9.393 10.928zm0-20.986c-4.701 0-8.525 4.513-8.525 10.058 0 5.547 3.824 10.059 8.525 10.059 4.699 0 8.523-4.512 8.523-10.059 0-5.545-3.824-10.058-8.523-10.058z" fill="#2C323D"/><path d="M598.361 399.736h-47.127v68.335h47.127v-68.335z" fill="#E9C463"/><path d="M28.38 458.439s-1.285 3.1-2.37 4.328c-1.085 1.229-5.238 3.425-5.26 7.073-.024 3.957 7 2.859 9.748 2.714 2.748-.145 2.956-2.259 4.112-4.498 1.157-2.24 2.324-1.862 2.54-3.669.217-1.806-.885-5.852-.885-5.852l-7.884-.096zm64.754.709s3.828 4.018 7.713 4.859c3.885.842 6.604 1.915 6.633 4.221.029 2.304-11.181 3.823-15.628 1.5-6.636-3.468-7.31-2.424-8.046-4.156-.736-1.734.884-6.371.836-6.921-.06-.682 8.492.497 8.492.497z" fill="#DFD1CB"/><path d="M82.927 343.155s4.02 29.185 5.661 39.052c1.92 11.536 2.571 21.067 3.106 27.038.673 7.509 1.966 46.997 2.437 49.194.471 2.195-10.517 1.1-10.517 1.1s-7.971-51.203-9.977-59.202c-1.867-7.447-7.004-38.149-8.707-36.116-1.704 2.034-12.403 37.955-13.666 43.829-1.261 5.874-13.43 51.857-13.43 51.857s-9.095 1.954-11.409.112c0 0 7.937-42.245 8.741-53.256.306-4.197 2.794-50.032 9.894-68.599 3.753-9.814 37.867 4.991 37.867 4.991z" fill="#434881"/><path d="M71.133 273.157s10.637 2.199 11.899 3.316c1.37 1.19 3.787 12.835 3.93 16.079.145 3.244-1.281 16.793-2.652 21.839-1.37 5.046-1.058 31.381-.444 35.525 0 0-21.336 4.171-42.394 1.432 0 0 3.64-22.873 2.797-29.787-1.08-8.858-3.678-29.265-3.678-29.265s2.813-13.741 4.689-15.327c1.874-1.586 14.909-4.166 14.909-4.166l10.944.354z" fill="#C44858"/><path d="M66.735 240.282s12.795-4.733 11.996 12.263c-.8 16.996-3.799 18.723-12.216 16.349-8.417-2.373-9.122-13.1-10.218-18.26-1.096-5.16 6.254-9.611 10.438-10.352z" fill="#DBA585"/><path d="M73.24 275.848s-6.647 5.389-13.051-3.046c0 0 .282-6.841-1.677-13.231-1.958-6.391 13.399 8.52 13.399 8.52-.161.114-.192.753-.1 1.642a18 18 0 00.492 2.642c.561 2.136.43 1.757.937 3.473z" fill="#DBA585"/><path d="M58.075 259.064s-.036-4.54 1.853-4.959c1.889-.418 2.862 2.207 2.862 2.207l1.52-.082s-1.359-4.601.442-5.656c1.801-1.054 12.574-.127 13.926-1.677 1.352-1.548-.608-10.748-3.547-11.652-2.94-.903-10.969-2.733-16.068 1.804 0 0-4.567.03-4.556 5.502.006 3.614 2.031 12.05 3.568 14.513z" fill="#263643"/><path d="M72.303 272.376c-9.918-1.667-11.4-7.305-11.422-7.393 3.856 4.969 10.93 4.75 10.93 4.75.077.756.243 1.692.492 2.643z" fill="#997761"/><path d="M62.066 252.178c-.565-1.497-3.757-1.308-3.43 1.066.327 2.373 2.965 6.03 4.023 5.345 1.06-.686.186-4.346-.593-6.411zm-5.328 21.352s5.999 12.12 14.83 11.139c8.83-.981 3.712-9.438 2.868-10.787 0 0-5.3-3.399-17.698-.352z" fill="#DBA585"/><path d="M101.739 310.002c4.953 2.292 23.907 7.003 23.907 7.003l1.304-7.817s-9.593-3.739-16.197-5.434c-3.217-.827-6.391-1.982-6.905-2.247-.513-.265-11.058-13.06-11.851-14.467-.795-1.411-2.695-6.012-5.49-8.546-2.792-2.535-6.3-3.141-6.3-3.141-6.986 5.9 2.459 17.069 2.459 17.069s12.133 14.367 19.073 17.58z" fill="#C44858"/><path d="M177.355 299.737H26.322a7.437 7.437 0 00-7.438 7.435v107.743a7.436 7.436 0 007.438 7.434h151.033a7.436 7.436 0 007.437-7.434V307.172a7.435 7.435 0 00-7.437-7.435z" fill="#504E59"/><path d="M171.256 419.006h-2.271v-.566h2.271v.566zm-4.543 0h-2.271v-.566h2.271v.566zm-4.543 0h-2.271v-.566h2.271v.566zm-4.543 0h-2.271v-.566h2.271v.566zm-4.542 0h-2.271v-.566h2.271v.566zm-4.543 0h-2.271v-.566h2.271v.566zm-4.543 0h-2.27v-.566h2.27v.566zm-4.543 0h-2.271v-.566h2.271v.566zm-4.542 0h-2.271v-.566h2.271v.566zm-4.543 0H128.1v-.566h2.271v.566zm-4.543 0h-2.271v-.566h2.271v.566zm-4.542 0h-2.272v-.566h2.272v.566zm-4.543 0h-2.272v-.566h2.272v.566zm-4.543 0h-2.271v-.566h2.271v.566zm-4.542 0h-2.272v-.566h2.272v.566zm-4.543 0h-2.271v-.566h2.271v.566zm-4.543 0H96.3v-.566h2.27v.566zm-4.542 0h-2.272v-.566h2.272v.566zm-4.543 0h-2.271v-.566h2.27v.566zm-4.543 0h-2.271v-.566h2.271v.566zm-4.542 0H78.13v-.566h2.272v.566zm-4.543 0h-2.272v-.566h2.272v.566zm-4.543 0h-2.271v-.566h2.271v.566zm-4.543 0h-2.271v-.566h2.27v.566zm-4.542 0h-2.272v-.566h2.271v.566zm-4.544 0h-2.27v-.566h2.27v.566zm-4.542 0h-2.271v-.566h2.271v.566zm-4.543 0h-2.271v-.566h2.271v.566zm-4.542 0h-2.272v-.566h2.272v.566zm-4.542 0h-2.272v-.566h2.272v.566zm-4.544 0h-2.27v-.566h2.27v.566zm-4.544 0a6.93 6.93 0 01-2.32-.409l.192-.533a6.361 6.361 0 002.131.377l-.003.565zm143.11-.008l-.026-.565a6.314 6.314 0 002.113-.466l.215.525a6.918 6.918 0 01-2.302.506zm-147.478-1.563a6.982 6.982 0 01-1.545-1.777l.483-.294a6.434 6.434 0 001.42 1.634l-.358.437zm151.777-.191l-.377-.422a6.427 6.427 0 001.35-1.69l.496.272a6.99 6.99 0 01-1.469 1.84zm-154.186-3.776a6.955 6.955 0 01-.146-1.423v-.895h.565v.895c0 .441.045.881.134 1.307l-.553.116zm156.426-.288l-.559-.093a6.37 6.37 0 00.085-1.042v-1.176h.566v1.176c0 .379-.031.761-.092 1.135zm-156.007-4.301h-.565v-2.27h.565v2.27zm156.099-.281h-.566v-2.27h.566v2.27zm-156.099-4.26h-.565v-2.27h.565v2.27zm156.099-.281h-.566v-2.27h.566v2.27zm-156.099-4.258h-.565v-2.271h.565v2.271zm156.099-.283h-.566v-2.27h.566v2.27zm-156.099-4.259h-.565v-2.27h.565v2.27zm156.099-.281h-.566v-2.27h.566v2.27zm-156.099-4.26h-.565v-2.27h.565v2.27zm156.099-.281h-.566v-2.27h.566v2.27zm-156.099-4.259h-.565v-2.27h.565v2.27zm156.099-.282h-.566v-2.27h.566v2.27zm-156.099-4.258h-.565v-2.27h.565v2.27zm156.099-.282h-.566v-2.27h.566v2.27zm-156.099-4.259h-.565v-2.27h.565v2.27zm156.099-.281h-.566v-2.271h.566v2.271zm-156.099-4.26h-.565v-2.27h.565v2.27zm156.099-.281h-.566v-2.271h.566v2.271zm-156.099-4.259h-.565v-2.27h.565v2.27zm156.099-.282h-.566v-2.271h.566v2.271zm-156.099-4.259h-.565v-2.269h.565v2.269zm156.099-.281h-.566v-2.27h.566v2.27zm-156.099-4.26h-.565v-2.269h.565v2.269zm156.099-.281h-.566v-2.27h.566v2.27zm-156.099-4.259h-.565v-2.27h.565v2.27zm156.099-.281h-.566v-2.27h.566v2.27zm-156.099-4.259h-.565v-2.271h.565v2.271zm156.099-.282h-.566v-2.27h.566v2.27zm-156.099-4.259h-.565v-2.27h.565v2.27zm156.099-.282h-.566v-2.27h.566v2.27zm-156.099-4.258h-.565v-2.27h.565v2.27zm156.099-.283h-.566v-2.269h.566v2.269zM24.072 336.23h-.565v-2.27h.565v2.27zm156.099-.281h-.566v-2.271h.566v2.271zm-156.099-4.26h-.565v-2.27h.565v2.27zm156.099-.281h-.566v-2.271h.566v2.271zm-156.099-4.259h-.565v-2.27h.565v2.27zm156.099-.282h-.566v-2.271h.566v2.271zm-156.099-4.259h-.565v-2.271h.565v2.271zm156.099-.281h-.566v-2.271h.566v2.271zm-156.099-4.26h-.565v-2.27h.565v2.27zm156.099-.281h-.566v-2.27h.566v2.27zm-156.099-4.26h-.565v-2.269h.565v2.269zm156.099-.281h-.566v-2.271h.566v2.271zm-156.02-4.211l-.558-.088a6.908 6.908 0 01.757-2.23l.498.271a6.308 6.308 0 00-.697 2.047zm155.329-.264a6.368 6.368 0 00-.783-2.017l.485-.29c.409.68.696 1.419.852 2.196l-.554.111zm-153.292-3.481l-.38-.42a6.954 6.954 0 011.991-1.259l.218.522a6.346 6.346 0 00-1.83 1.157zm151.098-.176a6.405 6.405 0 00-1.875-1.079l.195-.531c.742.272 1.43.668 2.041 1.174l-.361.436zm-147.16-1.459l-.028-.565c.124-.007.248-.01.372-.01h1.913v.566H30.47c-.114 0-.23.003-.344.009zm143.153-.008l-2.344-.002v-.565l2.355.001-.011.566zm-4.614-.002h-2.272v-.565h2.272v.565zm-4.543 0h-2.271v-.565h2.271v.565zm-4.542 0h-2.271v-.565h2.271v.565zm-4.543 0h-2.271v-.565h2.271v.565zm-4.543 0h-2.271v-.565h2.271v.565zm-4.543 0h-2.271v-.565h2.271v.565zm-4.542 0h-2.272v-.565h2.272v.565zm-4.543 0h-2.271v-.565h2.271v.565zm-4.543 0h-2.272v-.565h2.272v.565zm-4.543 0h-2.27v-.565h2.27v.565zm-4.543 0h-2.271v-.565h2.271v.565zm-4.542 0h-2.272v-.565h2.272v.565zm-4.543 0h-2.271v-.565h2.271v.565zm-4.542 0h-2.271v-.565h2.271v.565zm-4.543 0h-2.271v-.565h2.271v.565zm-4.544 0h-2.27v-.565h2.27v.565zm-4.541 0H93.71v-.565h2.272v.565zm-4.543 0h-2.272v-.565h2.272v.565zm-4.543 0h-2.271v-.565h2.271v.565zm-4.543 0h-2.271v-.565h2.271v.565zm-4.542 0h-2.272v-.565h2.272v.565zm-4.544 0h-2.27v-.565h2.27v.565zm-4.542 0h-2.271v-.565h2.271v.565zm-4.543 0h-2.271v-.565h2.271v.565zm-4.542 0h-2.272v-.565h2.272v.565zm-4.544 0h-2.27v-.565h2.27v.565zm-4.542 0h-2.272v-.565h2.272v.565zm-4.543 0h-2.27v-.565h2.27v.565zm-4.543 0h-2.27v-.565h2.27v.565zm-4.542 0h-2.271v-.565h2.271v.565z" fill="#A09292"/><path d="M240.171 236.712s4.359-2.796 8.289 2.174c3.932 4.97 2.517 9.747 1.695 14.208-.814 4.424-4.777 14.547-3.092 19.007 1.683 4.458-.469 6.781-.469 6.781s-13.517 3.459-11.941-16.862c1.576-20.322 5.518-25.308 5.518-25.308z" fill="#263643"/><path d="M155.728 324.86s9.374-5.856 12.377-6.128c3.003-.269 10.342-1.414 10.834.68.492 2.094.165 3.475-3.053 4.122-3.217.645-9.1-1.262-11.042-.737-1.941.525-10.275 4.689-9.116 2.063z" fill="#DBA686"/><path d="M174.3 318.526s8.852-2.643 12.101-5.47c3.249-2.826 3.471 5.686 3.471 5.686l-12.198 3.424-3.374-3.64z" fill="#DBA686"/><path d="M234.379 275.086s-5.146-.704-8.601 1.885c-3.455 2.587-5.817 7.436-6.873 8.958-1.056 1.52-13.39 15.129-14.004 15.376-.613.245-8.293 4.481-13.465 7.901-5.17 3.422-13.319 7.542-13.319 7.542l4.421 5.418s21.774-7.791 26.303-12.004c4.838-4.499 27.209-26.827 27.209-26.827s5.623-4.542-1.671-8.249z" fill="#E9C463"/><path d="M196.932 464.366s-5.566 7.491-4.803 8.678c.764 1.189 6.618 1.357 10.182 0 3.564-1.356 3.648-10.136 5.261-13.909.674-1.579-.77-6.24-2.801-6.578-2.031-.338-4.239.655-4.239.655s2.107 5.314-3.6 11.154z" fill="#2C3D54"/><path d="M200.495 453.15s-1.172 3.191-1.599 6.237c-.356 2.527-3.967 7.891-3.798 8.569.17.679 4.752 1.292 6.619-.456 1.866-1.749 3.068-6.836 3.478-9.878.383-2.836.867-4.235.867-4.235s-3.785-2.102-5.567-.237z" fill="#DBA585"/><path d="M207.72 458.477v7.843h-1.018v-6.062l1.018-1.781zm37.671 6.013s-5.366 7.367-4.603 8.554c.764 1.189 6.619 1.357 10.182 0 3.564-1.356 3.648-10.136 5.26-13.909.676-1.579-.769-6.24-2.8-6.578-2.03-.338-4.412.726-4.412.726s2.079 5.366-3.627 11.207z" fill="#2C3D54"/><path d="M249.019 453.283s-.424 3.478-1.104 5.937c-.678 2.46-4.326 8.058-4.157 8.736.17.679 4.753 1.292 6.619-.456 1.867-1.749 3.309-6.813 3.479-9.878.169-3.067-.425-5.065-.425-5.065s-2.631-1.139-4.412.726z" fill="#DBA585"/><path d="M256.38 458.477v7.843h-1.018v-6.062l1.018-1.781z" fill="#2C3D54"/><path d="M222.201 331.32s-4.777 22.214-5.874 27.808c-1.098 5.592-4.171 32.68-4.499 37.286-.329 4.607-4.986 21.962-4.766 23.606.22 1.646-7.164 34.289-7.164 34.289s7.599 2.065 8.879.673c1.087-1.181 12.006-31.031 12.006-39.256 0-11.369 8.58-25.845 9.665-28.388 10.082-23.631 7.928-31.221 9.246-32.755 1.316-1.536 1.43.947 2.198 4.347.768 3.4 2.413 32.791 3.399 36.52.989 3.729.222 16.34.77 22.702.549 6.359 1.181 34.86 1.181 34.86s5.504 1.264 8.12.045c.754-.352 2.658-31.747 2.767-39.315.11-7.567.227-18.003.438-21.276 2.034-31.357 7.029-35.835-.839-58.029-14.733-41.552-35.527-3.117-35.527-3.117z" fill="#353D67"/><path d="M234.568 272.133s-4.987 2.353-6.718 2.699c-1.732.346-8.449 9.069-9.627 12.253-1.177 3.184 0 7.961 2.425 13.568 2.423 5.607.137 7.475 1.245 13.083 1.108 5.607 2.079 17.479 1.87 20.593-.207 3.116 28.012 3.705 34.453-1.973 0 0-6.473-9.69-7.304-11.074-.831-1.386-.138-8.931.624-10.869.762-1.939 5.832-18.421 5.832-18.421s4.148-12.66.402-15.568c-3.256-2.527-12.128-3.428-13.721-3.981-1.593-.554-6.227-.795-9.481-.31z" fill="#E6D8D1"/><path d="M232.974 283.243l-3.029-3.547 2.631-9.337s.883 5.2.398 12.884z" fill="#CFC3BC"/><path d="M232.187 266.381s.995 9.143.787 12.12c0 0 5.181 5.19 11.074-6.057 0 0-2.478-4.638-.612-10.955s-11.249 4.892-11.249 4.892z" fill="#DBA585"/><path d="M232.975 278.501v4.742l5.963-4.454-5.963-.288z" fill="#DBA585"/><path d="M232.975 283.243l2.476-3.063 8.339-8.308 2.699 2.597-13.514 8.774z" fill="#CFC3BC"/><path d="M244.948 272.666s-6.999 10.617-7.333 15.289c-.335 4.673 2.601 39.626 4.951 50.862 2.351 11.235 19.336-1.267 19.336-1.267s-11.413-18.465-7.032-33.251c4.381-14.786 5.974-20.697 5.974-20.697s-1.509-8.234-6.85-9.392c-4.684-1.017-9.046-1.544-9.046-1.544zm-27.186 15.837s-1.263 4.465 3.655 14.333c0 0-.078 12.631-.216 16.577-.139 3.946-2.929 18.134-2.929 18.134l6.718 3.577c.981.572 2.193-.223 2.058-1.35-1.378-11.354-5.858-54.426 3.82-66.003l-3.883 1.144c-.001 0-6.901 5.644-9.223 13.588z" fill="#E9C463"/><path d="M229.945 279.696l-3.819 1.055 6.45-10.392-2.631 9.337zm5.506.484l3.487 4.568 7.124-11.934-2.272-.942-8.339 8.308z" fill="#F3E4DC"/><path d="M232.393 268.393l.168 1.796s4.122.808 9.51-5.762c0 0-3.819 4.657-9.678 3.966z" fill="#997761"/><path d="M233.439 268.526c-1.623-.06-6.151-.589-8.386-11.018-2.73-12.739 3.302-19.346 8.466-20.572 5.165-1.224 9.928.571 12.572 7.23 0 0 1.933 5.191-1.204 14.439-3.138 9.249-9.712 9.985-11.448 9.921z" fill="#DBA686"/><path d="M237.581 245.2s-6.935.431-13.381 10.111c0 0-3.019-11.648 4.869-16.963 7.887-5.316 13.41-.746 15.335 1.572 0 0 2.76.634 2.846 5.868.088 5.234 3.608 13.133-4.118 16.879 0 0 .736-5.976.056-7.341-.679-1.367-3.041-.445-5.607-10.126z" fill="#263643"/><path d="M242.809 253.005c.349-.906 1.302-1.271 1.826-.301.526.973-.099 4.739-1.499 5.151-1.4.413-1.036-3.014-.327-4.85z" fill="#DBA686"/><path d="M160.708 309.216H36.028a7.063 7.063 0 00-7.063 7.061v72.006c0 3.9 3.163 7.061 7.064 7.061h124.679a7.063 7.063 0 007.064-7.061v-72.006c0-3.9-3.163-7.061-7.064-7.061z" fill="url(#paint19_linear)"/><path d="M177.625 325.976H23.688v76.196h153.937v-76.196z" fill="#504E59"/><path d="M161.259 334.804H35.478a6.51 6.51 0 00-6.514 6.509v60.195a6.512 6.512 0 006.514 6.511h125.781a6.513 6.513 0 006.514-6.511v-60.195a6.512 6.512 0 00-6.514-6.509z" fill="url(#paint20_linear)"/><path d="M155.125 357.672c0 9.477-7.686 17.16-17.167 17.16-9.481 0-17.167-7.683-17.167-17.16 0-9.476 7.686-17.158 17.167-17.158 9.481 0 17.167 7.682 17.167 17.158z" fill="#F0C782"/><path d="M177.625 351.563H25.385v63.055h152.24v-63.055z" fill="#504E59"/><path d="M33.138 360.381s-.435-1.059-.399-1.615c0 0 .144-1.007.202-1.729.018-.23.028-.43.022-.559-.028-.543-.252-1.726.047-3.05.298-1.32 1.825-5.881 1.825-5.881l4.12.613 3.58-.485s2.668 7.783 2.533 9.047a3.294 3.294 0 01-.059.358c-.219 1.059-.827 1.754-1.004 2.297-.067.199-.862 2.13-1.459 2.316-.827.258-1.505.1-1.965-.276 0 0-1.642.434-2.683-.041 0 0-1.503.449-2.628-.511 0 0-1.577.284-2.132-.484z" fill="#DCA787"/><path d="M51.136 276.676c1.395.539 2.873 3.912 1.774 10.528-1.18 7.098-3.523 10.129-4.466 11.789-.942 1.658-6.768 12.717-6.746 14.353.056 4.26-.043 15.506.092 16.365.23 1.471 1.18 18.415 1.18 18.415l-8.999 2.177s-1.774-19.106-2.576-24.881c-.322-2.318-1.017-8.675-.215-15.008.773-6.111 5.202-19.618 5.796-20.691.594-1.076 4.938-16.618 14.16-13.047z" fill="#C44858"/><path d="M167.232 322.741c-.879.417-1.874 1.887-.762 1.845 1.113-.044 4.423-1.22 5.253-1.234.83-.014-4.491-.611-4.491-.611z" fill="#DBA686"/><path d="M269.848 360.436l-13.39-2.194.068-.335c.012-.053.273-1.325.973-2.863.653-1.432 1.824-3.366 3.702-4.449 1.729-.997 3.746-1.119 5.997-.363 1.609.541 2.72 1.503 3.306 2.863 1.306 3.037-.474 6.948-.55 7.114l-.106.227zm-12.595-2.732l12.199 1.999c.348-.862 1.466-3.977.445-6.349-.51-1.179-1.488-2.019-2.909-2.497-2.064-.693-3.9-.59-5.457.309-2.815 1.624-3.982 5.395-4.278 6.538z" fill="#2D374B"/><path d="M234.575 395.617l42.879 5.576 7.271-39.251-44.729-8.471-5.421 42.146z" fill="#CB4949"/><path d="M224.48 392.743l15.516-39.272-5.421 42.146-4.491-2.628-5.604-.246z" fill="#943737"/><path d="M271.852 360.055l-14.337.027.012-.361c.002-.058.056-1.427.52-3.152.432-1.605 1.318-3.824 3.089-5.277 1.629-1.339 3.71-1.815 6.188-1.414 1.769.285 3.095 1.097 3.94 2.413 1.888 2.939.708 7.324.659 7.509l-.071.255zm-13.603-.67l13.062-.026c.216-.958.841-4.398-.635-6.693-.733-1.141-1.899-1.848-3.463-2.1-2.271-.367-4.168.059-5.636 1.264-2.652 2.179-3.216 6.313-3.328 7.555z" fill="#2D374B"/><path d="M241.169 402.823l52.559-1.674-6.11-42.094-48.056-.244 1.607 44.012z" fill="#E39F4E"/><path d="M230.151 401.573l9.411-42.762 1.607 44.012-5.134-1.963-5.884.713z" fill="#9E6E33"/><path d="M270.942 354.463s.36-.878.331-1.339c0 0-.119-.835-.167-1.433a3.748 3.748 0 01-.018-.463c.022-.45.209-1.431-.04-2.526-.247-1.094-1.512-4.875-1.512-4.875l-3.414.508-2.966-.402s-2.211 6.45-2.099 7.498c.011.102.027.203.048.296.181.877.685 1.453.832 1.903.054.165.715 1.766 1.209 1.919.685.214 1.248.084 1.629-.228 0 0 1.36.36 2.223-.035 0 0 1.246.373 2.178-.422-.001 0 1.305.236 1.766-.401z" fill="#DCA787"/><path d="M247.261 273.146s8.113-.5 12.181 4.233c4.069 4.732 3.846 10.351 4.883 12.792 1.036 2.441 3.404 12.94 3.921 14.642.518 1.7 1.024 11.259 1.762 18.949.741 7.69.591 22.051.591 22.051l-7.761-1.407s-.313-13.689-.51-21.625c-.198-7.938-6.658-21.962-9.101-28.099-2.44-6.138-12.16-17.686-5.966-21.536z" fill="#E9C463"/><defs><linearGradient id="paint0_linear" x1="456.915" y1="339.311" x2="482.174" y2="339.311" gradientUnits="userSpaceOnUse"><stop stop-color="#293371"/><stop offset="1" stop-color="#79B8DB"/></linearGradient><linearGradient id="paint1_linear" x1="444.55" y1="342.398" x2="482.174" y2="342.398" gradientUnits="userSpaceOnUse"><stop stop-color="#465F92"/><stop offset=".995" stop-color="#94FFE9"/></linearGradient><linearGradient id="paint2_linear" x1="440.495" y1="351.786" x2="464.12" y2="328.698" gradientUnits="userSpaceOnUse"><stop stop-color="#465F92"/><stop offset=".995" stop-color="#94FFE9"/></linearGradient><linearGradient id="paint3_linear" x1="490.223" y1="339.311" x2="515.482" y2="339.311" gradientUnits="userSpaceOnUse"><stop stop-color="#293371"/><stop offset="1" stop-color="#79B8DB"/></linearGradient><linearGradient id="paint4_linear" x1="490.223" y1="342.398" x2="527.847" y2="342.398" gradientUnits="userSpaceOnUse"><stop stop-color="#465F92"/><stop offset=".995" stop-color="#94FFE9"/></linearGradient><linearGradient id="paint5_linear" x1="486.146" y1="351.269" x2="485.599" y2="344.579" gradientUnits="userSpaceOnUse"><stop stop-color="#3E4A91"/><stop offset="1" stop-color="#586CD9"/></linearGradient><linearGradient id="paint6_linear" x1="486.199" y1="413.252" x2="486.199" y2="358.31" gradientUnits="userSpaceOnUse"><stop stop-color="#76A2FB"/><stop offset="1" stop-color="#5782FA"/></linearGradient><linearGradient id="paint7_linear" x1="486.199" y1="383.332" x2="486.199" y2="322.746" gradientUnits="userSpaceOnUse"><stop stop-color="#76A2FB"/><stop offset="1" stop-color="#5782FA"/></linearGradient><linearGradient id="paint8_linear" x1="486.199" y1="473.636" x2="486.199" y2="378.258" gradientUnits="userSpaceOnUse"><stop stop-color="#293371"/><stop offset="1" stop-color="#79B8DB"/></linearGradient><linearGradient id="paint9_linear" x1="346.361" y1="-111.771" x2="340.664" y2="455.242" gradientUnits="userSpaceOnUse"><stop offset=".228" stop-color="#91E3FA"/><stop offset=".417" stop-color="#8EE1F8"/><stop offset=".572" stop-color="#84DAF2"/><stop offset=".715" stop-color="#72CFE7"/><stop offset=".851" stop-color="#5ABFD8"/><stop offset=".98" stop-color="#3BABC5"/><stop offset="1" stop-color="#36A8C2"/></linearGradient><linearGradient id="paint10_linear" x1="346.452" y1="60.813" x2="346.364" y2="132.333" gradientUnits="userSpaceOnUse"><stop offset=".228" stop-color="#91E3FA"/><stop offset=".417" stop-color="#8EE1F8"/><stop offset=".572" stop-color="#84DAF2"/><stop offset=".715" stop-color="#72CFE7"/><stop offset=".851" stop-color="#5ABFD8"/><stop offset=".98" stop-color="#3BABC5"/><stop offset="1" stop-color="#36A8C2"/></linearGradient><linearGradient id="paint11_linear" x1="246.856" y1="47.215" x2="244.725" y2="132.509" gradientUnits="userSpaceOnUse"><stop offset=".228" stop-color="#5296BA"/><stop offset=".443" stop-color="#4F95B9"/><stop offset=".619" stop-color="#4593B5"/><stop offset=".782" stop-color="#338FAF"/><stop offset=".936" stop-color="#1B8AA7"/><stop offset="1" stop-color="#0F87A3"/></linearGradient><linearGradient id="paint12_linear" x1="274.455" y1="47.215" x2="272.325" y2="132.509" gradientUnits="userSpaceOnUse"><stop offset=".228" stop-color="#5296BA"/><stop offset=".443" stop-color="#4F95B9"/><stop offset=".619" stop-color="#4593B5"/><stop offset=".782" stop-color="#338FAF"/><stop offset=".936" stop-color="#1B8AA7"/><stop offset="1" stop-color="#0F87A3"/></linearGradient><linearGradient id="paint13_linear" x1="302.055" y1="47.215" x2="299.924" y2="132.509" gradientUnits="userSpaceOnUse"><stop offset=".228" stop-color="#5296BA"/><stop offset=".443" stop-color="#4F95B9"/><stop offset=".619" stop-color="#4593B5"/><stop offset=".782" stop-color="#338FAF"/><stop offset=".936" stop-color="#1B8AA7"/><stop offset="1" stop-color="#0F87A3"/></linearGradient><linearGradient id="paint14_linear" x1="329.655" y1="47.215" x2="327.524" y2="132.509" gradientUnits="userSpaceOnUse"><stop offset=".228" stop-color="#5296BA"/><stop offset=".443" stop-color="#4F95B9"/><stop offset=".619" stop-color="#4593B5"/><stop offset=".782" stop-color="#338FAF"/><stop offset=".936" stop-color="#1B8AA7"/><stop offset="1" stop-color="#0F87A3"/></linearGradient><linearGradient id="paint15_linear" x1="357.254" y1="47.215" x2="355.124" y2="132.509" gradientUnits="userSpaceOnUse"><stop offset=".228" stop-color="#5296BA"/><stop offset=".443" stop-color="#4F95B9"/><stop offset=".619" stop-color="#4593B5"/><stop offset=".782" stop-color="#338FAF"/><stop offset=".936" stop-color="#1B8AA7"/><stop offset="1" stop-color="#0F87A3"/></linearGradient><linearGradient id="paint16_linear" x1="384.854" y1="47.215" x2="382.723" y2="132.509" gradientUnits="userSpaceOnUse"><stop offset=".228" stop-color="#5296BA"/><stop offset=".443" stop-color="#4F95B9"/><stop offset=".619" stop-color="#4593B5"/><stop offset=".782" stop-color="#338FAF"/><stop offset=".936" stop-color="#1B8AA7"/><stop offset="1" stop-color="#0F87A3"/></linearGradient><linearGradient id="paint17_linear" x1="412.453" y1="47.215" x2="410.323" y2="132.509" gradientUnits="userSpaceOnUse"><stop offset=".228" stop-color="#5296BA"/><stop offset=".443" stop-color="#4F95B9"/><stop offset=".619" stop-color="#4593B5"/><stop offset=".782" stop-color="#338FAF"/><stop offset=".936" stop-color="#1B8AA7"/><stop offset="1" stop-color="#0F87A3"/></linearGradient><linearGradient id="paint18_linear" x1="440.054" y1="47.215" x2="437.923" y2="132.509" gradientUnits="userSpaceOnUse"><stop offset=".228" stop-color="#5296BA"/><stop offset=".443" stop-color="#4F95B9"/><stop offset=".619" stop-color="#4593B5"/><stop offset=".782" stop-color="#338FAF"/><stop offset=".936" stop-color="#1B8AA7"/><stop offset="1" stop-color="#0F87A3"/></linearGradient><linearGradient id="paint19_linear" x1="28.965" y1="352.28" x2="167.772" y2="352.28" gradientUnits="userSpaceOnUse"><stop stop-color="#9BC7FC"/><stop offset="1" stop-color="#87D7C4"/></linearGradient><linearGradient id="paint20_linear" x1="28.965" y1="371.411" x2="167.772" y2="371.411" gradientUnits="userSpaceOnUse"><stop stop-color="#F1CC82"/><stop offset="1" stop-color="#DB6479"/></linearGradient></defs></svg>