<svg width="28" height="28" fill="none" xmlns="http://www.w3.org/2000/svg"><circle cx="14" cy="14" r="14" fill="#CB933A"/><g clip-path="url(#clip0)" fill="#fff"><path d="M9.152 12.192c.152.107.61.425 1.373.954.763.53 1.348.937 1.754 1.222.045.031.14.1.284.204a7.28 7.28 0 00.71.473c.137.08.265.14.386.18.12.04.232.06.334.06h.014c.102 0 .214-.02.335-.06.12-.04.249-.1.385-.18.136-.08.252-.153.348-.218.096-.065.216-.15.361-.255l.285-.204 3.134-2.176a3.18 3.18 0 00.817-.824c.219-.321.328-.658.328-1.01 0-.296-.106-.548-.318-.758a1.035 1.035 0 00-.753-.314H9.07c-.343 0-.608.116-.793.348-.185.232-.278.522-.278.87 0 .282.123.587.368.915.246.328.507.585.784.773z"/><path d="M19.33 12.908a139.225 139.225 0 00-3.334 2.31c-.255.188-.461.335-.62.44-.158.104-.37.211-.633.32-.263.11-.508.165-.736.165h-.014c-.227 0-.473-.055-.736-.164a3.822 3.822 0 01-.633-.322 15.735 15.735 0 01-.62-.438c-.602-.442-1.711-1.212-3.328-2.31A3.546 3.546 0 018 12.325v5.317c0 .294.105.547.315.756.21.21.462.315.756.315h9.858c.294 0 .547-.105.756-.315.21-.21.315-.462.315-.756v-5.317a3.69 3.69 0 01-.67.582z"/></g><defs><clipPath id="clip0"><path fill="#fff" d="M8 8h12v12H8z"/></clipPath></defs></svg>