<svg width="28" height="28" fill="none" xmlns="http://www.w3.org/2000/svg"><path d="M14 28c7.732 0 14-6.268 14-14S21.732 0 14 0 0 6.268 0 14s6.268 14 14 14z" fill="#BD081C"/><path d="M15.13 18.747c-1.058-.081-1.503-.606-2.333-1.11-.456 2.393-1.014 4.688-2.665 5.886-.51-3.617.748-6.334 1.333-9.218-.997-1.678.12-5.053 2.22-4.221 2.587 1.022-2.238 6.235 1 6.887 3.383.68 4.763-5.868 2.666-7.998-3.03-3.075-8.82-.07-8.108 4.332.173 1.076 1.285 1.402.444 2.887-1.94-.43-2.518-1.959-2.443-3.998.12-3.338 2.999-5.675 5.887-5.998 3.652-.409 7.08 1.34 7.553 4.776.532 3.878-1.649 8.077-5.554 7.775z" fill="#F1F2F2"/></svg>