<svg width="10" height="10" fill="none" xmlns="http://www.w3.org/2000/svg"><path d="M9.798 8.82L7.684 6.706A4.209 4.209 0 008.48 4.24c0-1.132-.44-2.197-1.242-2.998A4.211 4.211 0 004.24 0C3.108 0 2.043.44 1.243 1.242A4.21 4.21 0 000 4.24a4.21 4.21 0 001.242 2.998c.8.8 1.865 1.242 2.997 1.242a4.2 4.2 0 002.467-.796L8.82 9.797a.69.69 0 00.978 0 .691.691 0 000-.977zM2.22 6.26a2.839 2.839 0 01-.836-2.02c0-.764.296-1.48.836-2.02a2.837 2.837 0 012.02-.838c.764 0 1.481.297 2.02.837.54.54.838 1.258.838 2.02a2.84 2.84 0 01-.837 2.021c-.54.54-1.257.837-2.02.837a2.836 2.836 0 01-2.02-.837z" fill="#38393B"/></svg>