<svg width="121" height="127" fill="none" xmlns="http://www.w3.org/2000/svg"><g clip-path="url(#clip0)"><path d="M12.79 49.48a1 1 0 100 2 1 1 0 000-2zm3.95 0a1 1 0 100 2 1 1 0 000-2z" fill="#1C1C33"/><path d="M56.52 33.06a28.26 28.26 0 11-56.52 0 28.26 28.26 0 0156.52 0z" fill="#F2A400"/><path d="M20.7 49.48a1 1 0 100 2 1 1 0 000-2z" fill="#1C1C33"/><path d="M109.72 47.51h-99a3 3 0 00-3 3v2a1 1 0 001 1H111.7a.999.999 0 001-1v-2a2.999 2.999 0 00-3-3h.02zm.98 4H9.76v-1a1 1 0 011-1h99a1 1 0 011 1l-.06 1z" fill="#1C1C33"/><path d="M111.7 51.46a1 1 0 00-1 1V86.1a.998.998 0 001.707.707.998.998 0 00.293-.707V52.45a.998.998 0 00-1-1m-102.93.01a1 1 0 00-1 1v63.34a1 1 0 102 0V52.45a1 1 0 00-1-1" fill="#1C1C33"/><path d="M84 114.8H8.77a.998.998 0 00-1 1 1 1 0 001 1H84a.998.998 0 001-1 .999.999 0 00-1-1zm-28.87-7.45l-9.89-15.83a1 1 0 00-1.68 0l-9.9 15.83a1.006 1.006 0 00-.22.799.995.995 0 00.458.69 1.006 1.006 0 001.191-.098.998.998 0 00.251-.341l9.06-14.49 9.06 14.49a1.002 1.002 0 001.36.32 1 1 0 00.31-1.37z" fill="#1C1C33"/><path d="M37.18 104.31l-4.81-6.9a1.001 1.001 0 00-.81-.42 1 1 0 00-.81.42l-7 9.9a1 1 0 00.25 1.38c.164.115.36.177.56.18a1.003 1.003 0 00.81-.42l6.15-8.74 4 5.74a.995.995 0 00.65.514.996.996 0 001.187-1.29 1 1 0 00-.217-.364m66.64-44.93H16.69a1 1 0 00-1 1v15.83a1 1 0 001 1h87.09a.999.999 0 001-1V60.37a.998.998 0 00-1-1v.01zm-1 15.83h-85.1V61.36h85.11l-.01 13.85z" fill="#1C1C33"/><path d="M56.27 81.16H16.69a1 1 0 00-1 1v25.73a1.001 1.001 0 001 1h39.58a.998.998 0 001-1V82.15a1 1 0 00-1-1v.01zm-1 25.72H17.68V83.14h37.6l-.01 23.74z" fill="#1C1C33"/><path d="M23.61 85.11a4 4 0 100 8 4 4 0 000-8zm0 5.94a2 2 0 110-3.999 2 2 0 010 4zm80.17-5.94H64.19a1 1 0 000 2h39.59a.999.999 0 100-2zm-15.84 5.94H64.19a1 1 0 000 2h23.75a1 1 0 100-2zM84 97H64.19a1 1 0 000 2H84a1 1 0 000-2zm-2 5.93H64.19a.998.998 0 00-.707 1.707.998.998 0 00.707.293H82a.998.998 0 00.707-1.707.998.998 0 00-.707-.293zm11.88-37.61h-67.3a1 1 0 100 2h67.3a1 1 0 000-2zM82 69.28H38.46a1 1 0 100 2H82a1 1 0 100-2zM30.54 14.85c-3.95 0-6.93 3.18-6.93 7.41s4 8.42 6.93 8.42c2.93 0 6.93-4.16 6.93-8.42s-3-7.41-6.93-7.41zm0 13.85c-1.59 0-4.95-3.05-4.95-6.44 0-3.15 2.08-5.44 4.95-5.44s5 2.29 5 5.44c0 3.46-3.32 6.44-5 6.44z" fill="#1C1C33"/><path d="M39.38 31.15a23.902 23.902 0 01-4-1.89 1 1 0 00-1.88.43c0 .57 0 1.28 5.14 3.3a1 1 0 001.29-.56 1 1 0 00-.56-1.28" fill="#1C1C33"/><path d="M34.5 26.27a1 1 0 00-1 1v2.43a1 1 0 002 0v-2.44a1 1 0 00-1-1m-7.92 2.44a1 1 0 00-.89.56 23.705 23.705 0 01-4 1.89 1 1 0 00.36 1.91.919.919 0 00.36-.07c5.14-2 5.14-2.73 5.14-3.3a1 1 0 00-1-1" fill="#1C1C33"/><path d="M26.58 26.27a1 1 0 00-1 1v2.43a1 1 0 102 0v-2.44a1 1 0 00-1-1" fill="#1C1C33"/><path d="M30.54 10.89a12.87 12.87 0 1012.87 12.86 12.88 12.88 0 00-12.87-12.86zm0 23.75a10.89 10.89 0 1110.89-10.89 10.91 10.91 0 01-10.89 10.89zm59.38-19.79C86 14.85 83 18 83 22.26s4 8.42 6.92 8.42 6.93-4.16 6.93-8.42-3-7.41-6.93-7.41zm0 13.85c-1.58 0-4.94-3.05-4.94-6.44 0-3.15 2.08-5.44 4.94-5.44 2.86 0 5 2.29 5 5.44 0 3.46-3.32 6.44-5 6.44z" fill="#1C1C33"/><path d="M98.76 31.15a23.32 23.32 0 01-4-1.89 1 1 0 00-1.89.43c0 .57 0 1.28 5.15 3.3a.919.919 0 00.36.07 1 1 0 00.36-1.91" fill="#1C1C33"/><path d="M93.88 26.27a1 1 0 00-1 1v2.43a1 1 0 102 0v-2.44a1 1 0 00-1-1M86 28.7a1 1 0 00-.9.56 23.317 23.317 0 01-4 1.89 1 1 0 00.36 1.91.919.919 0 00.36-.07C87 31 87 30.26 87 29.69a1 1 0 00-1-1" fill="#1C1C33"/><path d="M86 26.27a1 1 0 00-1 1v2.43a1 1 0 002 0v-2.44a1 1 0 00-1-1" fill="#1C1C33"/><path d="M89.92 10.89a12.87 12.87 0 1012.87 12.86 12.878 12.878 0 00-12.87-12.86zm0 23.75a10.89 10.89 0 1110.89-10.89 10.902 10.902 0 01-10.89 10.89zM60.23 4c-3.95 0-6.93 3.19-6.93 7.41 0 4.22 4 8.42 6.93 8.42 2.93 0 6.93-4.16 6.93-8.42S64.18 4 60.23 4zm0 13.85c-1.59 0-4.95-3-4.95-6.44 0-3.15 2.08-5.43 4.95-5.43s5 2.28 5 5.43c0 3.46-3.32 6.44-5 6.44z" fill="#1C1C33"/><path d="M69.07 20.26a24.914 24.914 0 01-4-1.88 1 1 0 00-.89-.57 1 1 0 00-1 1c0 .57 0 1.29 5.15 3.31.116.04.237.06.36.06a1 1 0 00.36-1.91" fill="#1C1C33"/><path d="M64.19 15.38a1 1 0 00-1 1v2.42a1 1 0 002 0v-2.43a1 1 0 00-1-1m-7.92 2.44a1 1 0 00-.89.57 24.69 24.69 0 01-4 1.88 1 1 0 00-.56 1.29 1 1 0 00.92.62c.122 0 .244-.02.36-.06 5.14-2 5.14-2.74 5.14-3.31a1 1 0 00-1-1" fill="#1C1C33"/><path d="M56.27 15.38a1 1 0 00-1 1v2.42a1 1 0 002 0v-2.43a1 1 0 00-1-1" fill="#1C1C33"/><path d="M60.23 0A12.87 12.87 0 1073.1 12.86 12.88 12.88 0 0060.23 0zm0 23.75a10.89 10.89 0 110-21.78 10.89 10.89 0 010 21.78zM78.82 34a1 1 0 00-1.39-.15l-9.9 7.91a1 1 0 00-.15 1.39 1 1 0 001.39.16l9.9-7.92a1 1 0 00.15-1.39z" fill="#1C1C33"/><path d="M68.15 39.59a1 1 0 00-1 1v2a1 1 0 002 0v-2a1 1 0 00-1-1z" fill="#1C1C33"/><path d="M70.13 41.57h-2a1 1 0 100 2h2a1 1 0 000-2zm-17.2.21L43 33.87a1 1 0 10-1.24 1.54l9.9 7.92a1 1 0 001.39-.16 1 1 0 00-.16-1.39" fill="#1C1C33"/><path d="M52.32 39.59a1 1 0 00-1 1v2a1 1 0 102 0v-2a1 1 0 00-1-1z" fill="#1C1C33"/><path d="M52.32 41.57h-2a1 1 0 100 2h2a1 1 0 000-2zm7.91-13.86a1 1 0 00-1 1v11.86a1 1 0 102 0V28.7a1 1 0 00-1-1" fill="#1C1C33"/><path d="M62.33 38.47a1 1 0 00-1.39 0l-1.41 1.41a1 1 0 000 1.4 1 1 0 00.7.29 1 1 0 00.7-.29l1.4-1.41a1 1 0 000-1.4z" fill="#1C1C33"/><path d="M60.93 39.88l-1.4-1.4a1 1 0 10-1.4 1.39l1.4 1.41a1 1 0 00.7.29 1 1 0 00.7-1.69zm42.85 49.19a16.83 16.83 0 1016.82 16.83 16.84 16.84 0 00-16.82-16.83zm0 31.67a14.85 14.85 0 1114.85-14.84 14.858 14.858 0 01-14.85 14.84z" fill="#1C1C33"/><path d="M119.62 108.87a.997.997 0 00-1 1 14.85 14.85 0 01-29.7 0 1 1 0 00-2 0 16.832 16.832 0 0028.58 11.635 16.834 16.834 0 005.07-11.635 1 1 0 00-1-1" fill="#1C1C33"/><path d="M87.94 104.91a.998.998 0 00-1 1v4a1.001 1.001 0 002 0v-4a.999.999 0 00-1-1zm31.68 0a1 1 0 00-1 1v4a1 1 0 102 0v-4a.997.997 0 00-1-1zM103.78 99a1 1 0 00-1 1v11.88a.997.997 0 001 1 .997.997 0 001-1V100a.998.998 0 00-1-1zm0 21.74a.997.997 0 00-1 1v4a.997.997 0 001 1 .997.997 0 001-1v-4a.997.997 0 00-1-1zm7.92-2.12a.997.997 0 00-1 1v3.95a.997.997 0 001 1 .997.997 0 001-1v-3.95a1 1 0 00-1-1zm-15.84 0a.998.998 0 00-1 1v3.95a1 1 0 102 0v-3.95a1 1 0 00-1-1z" fill="#1C1C33"/></g><defs><clipPath id="clip0"><path fill="#fff" d="M0 0h120.6v126.68H0z"/></clipPath></defs></svg>