<svg width="124" height="124" fill="none" xmlns="http://www.w3.org/2000/svg"><g clip-path="url(#clip0)"><path d="M87.42 28.26a28.26 28.26 0 11-56.52 0 28.26 28.26 0 0156.52 0z" fill="#F2A400"/><path d="M101.87 62.07H16.28a1 1 0 000 2h85.59a.999.999 0 100-2zM102 71H16.28a1 1 0 000 2H102a1 1 0 100-2zm-15.92 9.56h-69.8a1 1 0 100 2h69.8a1 1 0 000-2z" fill="#fff"/><path d="M111.09 30.55H85.27a23.69 23.69 0 10-47.38 0H12.08A12.11 12.11 0 000 42.63v49.68a12.11 12.11 0 0012.08 12.08H18l-.17 17.67a1.09 1.09 0 00.93 1.19c.063.006.127.006.19 0a1.37 1.37 0 00.86-.36l20.13-18.45h56.38a.998.998 0 001-1 1 1 0 00-1-1h-56.6c-.51 0-.49 0-1 .49l-19.09 17.5.16-16.8c0-.65-.2-1.19-.71-1.19h-5.55C5.9 102.68 2 97.23 2 90.87V44.18c-.36-7.58 5.2-11.55 11.55-11.55H38a23.69 23.69 0 0047.19 0h24.46c6.35 0 11.65 3.56 11.55 11.55v46.69c0 6.36-3.66 11.64-11.55 11.55h-3.16a.997.997 0 00-1 1 1 1 0 001 1h4.61a12.11 12.11 0 0012.08-12.08V42.63a12.123 12.123 0 00-12.09-12.08zM61.58 52.34a21.75 21.75 0 01-18.39-10.13 22.92 22.92 0 0136.79 0 21.77 21.77 0 01-18.4 10.13zm-8.33-28.46a8.34 8.34 0 1116.68-.02 8.34 8.34 0 01-16.68.02zm27.67 16.7a24.64 24.64 0 00-13.57-8.69 9.89 9.89 0 10-11.53 0 24.64 24.64 0 00-13.57 8.69 21.791 21.791 0 1138.67 0z" fill="#fff"/></g><defs><clipPath id="clip0"><path fill="#fff" d="M0 0h123.17v123.25H0z"/></clipPath></defs></svg>