<svg width="125" height="128" fill="none" xmlns="http://www.w3.org/2000/svg"><path d="M90.6 42.5c0 15.6-12.7 28.3-28.3 28.3-15.6 0-28.2-12.6-28.2-28.3 0-15.7 12.7-28.3 28.3-28.3 15.5.1 28.2 12.7 28.2 28.3z" fill="#F2A400"/><path d="M122.8 123.7c0-.3-.1-.5-.3-.7L105 80.1c0-.6-.4-1-1-1H86.2l.5-.7c3.2-4.3 6-8.8 8.3-13.6 3.9-7.9 5.8-15.7 5.8-22.9.8-21-15.5-38.6-36.5-39.5-21-.9-38.5 15.5-39.3 36.4v3c0 7.3 2 15 5.8 22.9 2.4 4.8 5.2 9.3 8.4 13.6l.5.7H20.4c-.5-.2-1.1 0-1.3.5l-12.2 30c-.2.5 0 1.1.5 1.3.5.2 1.1 0 1.3-.5l2.1-5.1h15.5L19 122.8H4.3l3-7.6c.2-.5 0-1.1-.5-1.3-.5-.2-1.1 0-1.3.5L2 123c-.1.2-.1.4-.1.6v.2c0 .6.4 1 1 1h119c.5 0 1-.5.9-1.1zm-26.7-1.1l-20-17.4h37.2l7.2 17.6H96.2c0-.1-.1-.2-.1-.2zm-69-81.2C27.1 21.6 43.2 4.3 63 4.3c19.8 0 35.8 17.4 35.8 37.2 0 8.3-2.9 21.6-16 38.4-.1.1-.2.2-.3.4-.7.8-1.3 1.7-2.1 2.6C75.2 89.2 69.3 95 63 100.4c-6.3-5.3-12.2-11.2-17.4-17.5-.8-.9-1.5-1.8-2.2-2.7C30 63.1 27.1 49.8 27.1 41.4zm-6.4 39.7h16l-5.4 12.5H15.6l5.1-12.5zm8.2 23.5c.1-.1.1-.2.1-.4v-.1c0-.5-.4-.9-.9-.9H11.7l3.1-7.6h17.4c.5 0 .9-.4.9-.9l5.8-13.5h2.3l.7.9c.5.7 1.1 1.3 1.6 2 5.5 6.7 11.7 12.8 18.3 18.2.6.5 1.5.5 2.2 0 .2-.2 3-2.4 7-6.1l.1-.1h19.6c.6 0 1-.4 1-1s-.4-1-1-1H73.2l1.5-1.5c2.4-2.5 5.1-5.3 7.8-8.6.6-.7 1.1-1.3 1.6-2l.7-.9h18.7l5.3 12.9H96.2c-.6 0-1 .4-1 1s.4 1 1 1h13.3l3 7.2H73.2c-.2 0-.4.1-.6.2v.1c-.2.2-.2.4-.2.6 0 .4.2.7.6.9l.1.1 20.2 17.5H81.1l-.2-.2-37-32.1c-.2-.2-.4-.3-.6-.3l-.1-.1c-.5-.2-1.1 0-1.3.5l-13.2 32.2h-7.3l7.5-18zm14.2-12.1L78 122.7H30.9l12.2-30.2z" fill="#1B1C33"/><path d="M64.5 25.4c-8.6-.7-16.4 5-18.3 13.4-.2.6.2 1.2.8 1.4h.2c.5 0 1-.4 1.1-.9 1.8-8.1 9.8-13.2 17.9-11.3 8.1 1.9 13.2 9.8 11.3 17.9C75.6 54 67.8 59 59.7 57.2c-5.7-1.3-10.1-5.7-11.3-11.3-.1-.5-.5-.9-1.1-.9-.6 0-1.1.5-1.1 1.1v.2c2.1 9.3 11.3 15.1 20.6 13.1 9.3-2.1 15.1-11.3 13.1-20.6C78.2 31.5 72 26 64.5 25.4z" fill="#1B1C33"/></svg>