<svg width="33" height="33" fill="none" xmlns="http://www.w3.org/2000/svg"><path fill-rule="evenodd" clip-rule="evenodd" d="M16.5 0C7.386 0 0 7.388 0 16.5S7.386 33 16.5 33C25.613 33 33 25.612 33 16.5S25.613 0 16.5 0zm13.592 15.731c-3.54-.58-6.797-.612-9.767-.1a57.89 57.89 0 00-1.054-2.31c3.176-1.375 5.726-3.242 7.628-5.613a13.562 13.562 0 013.193 8.023zm-12.139-4.953c2.912-1.233 5.199-2.923 6.856-5.06a13.556 13.556 0 00-8.31-2.849c-1.154 0-2.27.161-3.342.432a63.652 63.652 0 014.796 7.477zM10.35 4.353a61.297 61.297 0 014.863 7.399c-3.341.983-7.33 1.488-11.94 1.52a13.656 13.656 0 017.077-8.919zM2.888 16.148l-.018.352c0 3.31 1.188 6.346 3.157 8.71 2.986-4.48 6.816-7.457 11.463-8.91-.294-.66-.6-1.317-.92-1.97-3.825 1.202-8.39 1.811-13.682 1.818zm5.246 11.09c2.708-4.245 6.163-7.01 10.448-8.287A53.81 53.81 0 0121.39 29.21c-4.605 1.775-9.56.916-13.257-1.97zm13.291-8.892a56.505 56.505 0 012.64 9.484 13.644 13.644 0 005.884-9.214c-3.106-.54-5.944-.634-8.524-.27z" fill="#F2A400"/></svg>