<svg width="126" height="127" fill="none" xmlns="http://www.w3.org/2000/svg"><path d="M99.25 98.37a28.27 28.27 0 11-56.542.02 28.27 28.27 0 0156.542-.02z" fill="#F2A400"/><path d="M54.14 27.12a27.07 27.07 0 10-28.1 27v20.13l-9 9.71a1 1 0 000 1.38l.11.1a1 1 0 001.37 0l8.46-9.16 8.5 8.93a1 1 0 001.37 0l.11-.1a1 1 0 000-1.38l-9-9.42V54.16a27.07 27.07 0 0026.18-27.04zM2 27.12a25.12 25.12 0 1125.07 25.12A25.11 25.11 0 012 27.12z" fill="#1C1C33"/><path d="M110.9 30.33l-8.9-9.39A19.402 19.402 0 0083.549 1.813 19.4 19.4 0 0063.32 19.05h-.07v.81c0 .5-.08 1-.08 1.5s0 1.09.08 1.62v79.58a17.38 17.38 0 01-17.635 17.125A17.38 17.38 0 0128.49 102.05V88.16l7.44 7.83a1 1 0 001.38 0l.1-.1a1 1 0 000-1.38l-9.31-9.79a.92.92 0 00-.39-.23.93.93 0 00-.6 0 .861.861 0 00-.39.23l-9.24 10a1 1 0 000 1.38l.1.1a1 1 0 001.38 0l7.44-8.07v14.92a19.384 19.384 0 0019.389 18.471A19.38 19.38 0 0065.12 102.99V21.41a17.333 17.333 0 0134.66-.59l-9 9.75a1 1 0 000 1.37l.1.1a1 1 0 001.38 0l8.45-9.17 8.5 8.94a1 1 0 001.38 0l.11-.1a1 1 0 00.2-1.38z" fill="#1C1C33"/><path d="M102.94 48.36h-.54V35.21l7.37 7.75a.998.998 0 001.37 0l.11-.1a1 1 0 000-1.38L102 31.74a1.003 1.003 0 00-.68-.29 1.003 1.003 0 00-.69.29l-9.23 10a1 1 0 000 1.38l.11.1a1 1 0 001.37 0l7.45-8.17v13.33a22.74 22.74 0 00-22.08 22.67v22.46a22.73 22.73 0 0022.67 22.67h2a22.737 22.737 0 0022.68-22.67V71.05a22.748 22.748 0 00-22.66-22.69zm20.56 44.89a21.001 21.001 0 01-20.89 20.89h-1.33a20.997 20.997 0 01-20.89-20.89V71.79c0-11.49 9.19-21.5 20.68-21.5h1.33c11.49 0 21.1 10 21.1 21.5v21.46z" fill="#1C1C33"/><path d="M101.29 55.29h-.01c-.851 0-1.54.69-1.54 1.54v8.32c0 .851.689 1.54 1.54 1.54h.01a1.54 1.54 0 001.54-1.54v-8.32c0-.85-.689-1.54-1.54-1.54zM34.68 18.31a11.33 11.33 0 00-6.31-3v10.98c5.92 1.25 8.41 3.47 8.41 7.28 0 4.13-3.46 7-8.33 7.2v3.82h-1.87v-3.86a15.31 15.31 0 01-9.22-4.16l1.28-1.52a12.88 12.88 0 008 3.93V27.89c-5.84-1.29-8.25-3.43-8.25-7.32s3.42-6.93 8.17-7v-2.31h1.87v2.34A13.12 13.12 0 0136 16.79l-1.32 1.52zm-8 7.59V15.27c-3.78.08-6.27 2.34-6.27 5.14-.02 2.64 1.15 4.25 6.25 5.49h.02zm1.71 2.38v10.77c3.9-.08 6.43-2.33 6.43-5.29-.02-2.71-1.31-4.32-6.45-5.48h.02z" fill="#1C1C33"/></svg>