<svg width="151" height="149" fill="none" xmlns="http://www.w3.org/2000/svg"><path d="M103.8 73.8c0 15.6-12.6 28.3-28.3 28.3-15.7 0-28.2-12.6-28.2-28.3 0-15.6 12.6-28.3 28.3-28.3 15.6.1 28.2 12.7 28.2 28.3z" fill="#F2A400"/><path d="M26.8 115.4c1.9-2.3 1.7-5.7-.6-7.6-2.3-1.9-5.7-1.7-7.6.6-.8 1-1.3 2.2-1.3 3.5 0 1.3.5 2.5 1.3 3.5-4.1 1.7-6.7 5.6-6.7 10v2.4c0 1.6.9 3 2.3 3.7 5.3 2.7 11.6 2.7 16.9 0 1.4-.7 2.3-2.1 2.3-3.7v-2.4c.1-4.3-2.6-8.3-6.6-10zm5.5 13.1c0 .6-.4 1.2-.9 1.5-5.4 2.8-11.9 2.8-17.3 0-.6-.3-.9-.8-.9-1.5v-2.9c0-4.7 3.4-8.8 8.1-9.5v-.1c-2.2-.8-3.4-3.3-2.6-5.6.8-2.2 3.3-3.4 5.6-2.6 2.2.8 3.4 3.3 2.6 5.6-.4 1.2-1.4 2.1-2.6 2.6v.2c4.7.7 8.1 4.8 8.1 9.5l-.1 2.8z" fill="#1C1C33" stroke="#1C1C33" stroke-width=".25" stroke-miterlimit="10"/><path d="M28.9 76.1h6.6v-2.4h-6.7c-.9-5.1-5.8-8.6-10.9-7.7-5.1.9-8.6 5.8-7.7 10.9.9 5.1 5.8 8.6 10.9 7.7 4.2-.7 7.4-4.2 7.8-8.5zm-17.2-.9c0-4.3 3.5-7.8 7.7-7.8s7.8 3.5 7.8 7.8-3.5 7.8-7.7 7.8c-4.3 0-7.8-3.5-7.8-7.8z" fill="#1C1C33"/><path d="M107.5 97.5c3.2-4.4 5.5-9.5 6.7-14.9l4.4 2.3c-1.3 5.1 1.7 10.3 6.8 11.6 5.1 1.3 10.3-1.7 11.6-6.8 1.3-5.1-1.7-10.3-6.8-11.6-.8-.2-1.6-.3-2.4-.3-3.4 0-6.6 1.8-8.3 4.8l-4.9-2.6c.3-2 .4-4 .4-6 0-8.4-2.6-16.5-7.5-23.3l4.8-4.4c9.2 8.1 21.7 6.8 28.8-.6 8.3-8.1 8.5-21.4.4-29.7s-21.4-8.5-29.7-.4c-8 7.8-8.5 20.4-1.2 28.8l-4.6 4.2c-7.4-9.1-18.5-14.4-30.3-14.5v-4.8c5.2-.7 8.9-5.5 8.2-10.7-.7-5.2-5.5-8.9-10.7-8.2-5.2.7-8.9 5.5-8.2 10.7.6 4.3 3.9 7.7 8.2 8.2v4.9c-9.5.5-18.6 4.3-25.5 10.9L38 35.4c7.4-8.2 6.8-20.9-1.5-28.3C28.2-.3 15.9.5 8.4 8.8.9 17.1 1.7 29.7 9.9 37.1c7.5 6.8 19 6.9 26.6.2l9.7 9.7c-13.4 14.4-14.3 36.3-2.1 51.7l-7.5 6.9c-8.1-7.6-20.9-7.3-28.6.8-7.7 8.1-7.4 20.9.7 28.6 8.1 7.7 20.9 7.4 28.6-.7 7.2-7.5 7.5-19.2.7-27.1l7.4-6.8c7.6 8.7 18.5 13.7 30 13.6 1 0 2.1 0 3.1-.1l1.2 4.8c-4.8 2.1-7.1 7.6-5 12.5 2.1 4.8 7.6 7.1 12.5 5 4.8-2.1 7.1-7.6 5-12.5-1.5-3.5-4.9-5.8-8.8-5.8-.5 0-.9 0-1.4.1l-1.1-4.4c6.5-.9 12.6-3.4 17.9-7.2l36.1 36c2.4 2.4 6.4 2.4 8.8 0 2.4-2.4 2.4-6.4 0-8.8l-36.2-36.1zm20.3-17.9c4.3 0 7.8 3.5 7.8 7.8s-3.5 7.8-7.8 7.8-7.8-3.5-7.8-7.8c.1-4.3 3.6-7.8 7.8-7.8zm-1.3-67.7c10.5 0 19 8.5 19 19s-8.5 19-19 19-19-8.5-19-19 8.5-19 19-19zM22.9 138.5c-10.1 0-18.2-8.2-18.2-18.2s8.2-18.2 18.2-18.2 18.2 8.2 18.2 18.2c0 10.1-8.1 18.2-18.2 18.2zm68.2-11.2c0 4.3-3.5 7.8-7.7 7.8s-7.8-3.5-7.8-7.7c0-4.3 3.5-7.8 7.7-7.8 4.3 0 7.8 3.5 7.8 7.7zM66.8 20.1c0-4.3 3.5-7.8 7.7-7.8 4.3 0 7.8 3.5 7.8 7.8s-3.5 7.8-7.8 7.8c-4.2 0-7.6-3.5-7.7-7.8zM5.1 22.3c0-10.1 8.1-18.2 18.2-18.2s18.2 8.1 18.2 18.2-8.1 18.2-18.2 18.2S5.1 32.4 5.1 22.3zm136.6 118.2c-1.6 1.6-4.1 1.6-5.7 0l-36.9-36.9c-15.8 12.8-39 10.8-52.4-4.6l.1-.1-1.3-1.4C32.6 81 35.4 57.2 51.9 44.3c16.5-12.9 40.3-10.1 53.2 6.4 6.8 8.7 9.5 19.9 7.4 30.7l-.1.3h.1c-1.2 5.9-3.8 11.5-7.6 16.2l36.9 36.9c1.5 1.6 1.5 4.1-.1 5.7z" fill="#1C1C33"/><path d="M96.1 55.8c-.4.4-.4 1 0 1.4 9 11.2 7.3 27.5-3.9 36.6-11.2 9.1-27.5 7.3-36.6-3.9-9.1-11.2-7.3-27.5 3.9-36.6 9.4-7.6 22.8-7.7 32.4-.3.4.3 1 .3 1.4-.1.4-.4.4-1 0-1.4l-.1-.1c-12.2-9.5-29.8-7.3-39.3 4.9-9.5 12.2-7.3 29.8 4.9 39.3 12.2 9.5 29.8 7.3 39.3-4.9 8-10.3 7.9-24.8-.4-34.9-.3-.4-1-.5-1.4-.2-.1.1-.1.2-.2.2z" fill="#1C1C33"/><path d="M27 17.6c.8-1 1.3-2.2 1.3-3.5.1-3-2.2-5.5-5.2-5.6-3-.1-5.5 2.2-5.6 5.2v.5c0 1.3.5 2.5 1.4 3.5-4.1 1.7-6.7 5.6-6.7 10V30c0 1.6.9 3 2.3 3.7 5.3 2.7 11.6 2.7 16.9 0 1.4-.7 2.3-2.1 2.3-3.7v-2.4c0-4.4-2.6-8.3-6.7-10zm5.5 13.1c0 .6-.4 1.2-.9 1.5-5.4 2.8-11.9 2.8-17.4 0-.6-.3-.9-.8-.9-1.5v-2.9c0-4.7 3.4-8.8 8.1-9.5v-.2c-2.2-.8-3.4-3.3-2.6-5.6.8-2.2 3.3-3.4 5.6-2.6 2.2.8 3.4 3.3 2.6 5.6-.4 1.2-1.4 2.1-2.6 2.6v.2c4.7.7 8.1 4.8 8.1 9.5v2.9zm98.1-3.9c1.9-2.2 1.7-5.6-.5-7.6-1-.9-2.2-1.3-3.5-1.3-3 0-5.4 2.4-5.4 5.3 0 1.3.5 2.6 1.3 3.6-4.1 1.7-6.7 5.6-6.7 10v2.4c0 1.6.9 3 2.3 3.7 5.3 2.7 11.6 2.7 16.9 0 1.4-.7 2.3-2.1 2.3-3.7v-2.4c0-4.4-2.6-8.4-6.7-10zm5.5 13.1c0 .6-.4 1.2-.9 1.5-5.5 2.8-11.9 2.8-17.4 0-.6-.3-.9-.8-.9-1.5V37c0-4.7 3.5-8.8 8.1-9.5v-.2c-2.2-.8-3.4-3.3-2.6-5.6.8-2.2 3.3-3.4 5.6-2.6 2.2.8 3.4 3.3 2.6 5.6-.4 1.2-1.4 2.1-2.6 2.6v.2c4.7.7 8.1 4.8 8.1 9.5v2.9zM81.5 67.6c1.1-1.3 1.8-3 1.8-4.7 0-4-3.3-7.3-7.3-7.3s-7.3 3.3-7.3 7.3c0 1.7.6 3.4 1.8 4.7-5.4 2.2-9 7.6-9 13.4v3.2c0 2.1 1.2 4.1 3.1 5 7.2 3.6 15.6 3.6 22.8 0 1.9-.9 3.1-2.9 3.1-5V81c.1-5.8-3.5-11.1-9-13.4zM89 85.3c0 .9-.5 1.6-1.3 2-7.3 3.8-16 3.8-23.4 0-.8-.4-1.3-1.1-1.3-2v-3.9c0-6.4 4.7-11.8 11-12.8v-.2c-3-1.1-4.6-4.5-3.5-7.5 1.1-3 4.5-4.6 7.5-3.5 3 1.1 4.6 4.5 3.5 7.5-.6 1.6-1.9 2.9-3.5 3.5v.2c6.3 1 10.9 6.4 10.9 12.8v3.9h.1z" fill="#1C1C33" stroke="#1C1C33" stroke-width=".25" stroke-miterlimit="10"/></svg>