<svg version="1.1" id="Layer_1" xmlns="http://www.w3.org/2000/svg" xmlns:xlink="http://www.w3.org/1999/xlink" x="0" y="0" viewBox="0 0 390.6 119.3" xml:space="preserve"><style>.st0{opacity:.15}.st11{enable-background:new}.st12{fill:#f3a503}.st13{fill:#1d1d33}.st14{fill:#aeadad}</style><g id="Layer_1_1_"><g class="st0"><defs><path id="SVGID_1_" d="M29.4 23.7h60.8v70.5H29.4z"/></defs><clipPath id="SVGID_2_"><use xlink:href="#SVGID_1_" overflow="visible"/></clipPath><g clip-path="url(#SVGID_2_)"><defs><path id="SVGID_3_" d="M29.4 23.7h60.8v70.5H29.4z"/></defs><clipPath id="SVGID_4_"><use xlink:href="#SVGID_3_" overflow="visible"/></clipPath><g clip-path="url(#SVGID_4_)"><image width="338" height="387" xlink:href="3D812B6A7F1D14C8.png" transform="translate(29.154 23.926) scale(.1812)" overflow="visible"/></g></g></g><defs><path id="SVGID_5_" d="M36.4 29.5c-1.1.6-1.8 1.8-1.8 3.1v50.2c0 1.3.7 2.4 1.8 3.1.5.3 1.1.5 1.8.5s1.3-.2 1.9-.5l13.8-8.6v-8.4l-12.3 7.6V39l30.3 18.8-.2.2-10.8 6.7v8.4l10.8-6.7 9-5.5c1.1-.6 1.7-1.8 1.6-3.1 0-1.2-.7-2.4-1.8-3L39.9 29.6c-.5-.4-1.2-.6-1.9-.6-.5.1-1.1.2-1.6.5"/></defs><clipPath id="SVGID_6_"><use xlink:href="#SVGID_5_" overflow="visible"/></clipPath><g clip-path="url(#SVGID_6_)"><linearGradient id="SVGID_7_" gradientUnits="userSpaceOnUse" x1="-1091.189" y1="-1837.398" x2="-1090.424" y2="-1837.398" gradientTransform="scale(66.13 -66.13) rotate(-60 1045.594 -1864.431)"><stop offset="0" stop-color="#ffdd60"/><stop offset="1" stop-color="#ec8e11"/></linearGradient><path fill="url(#SVGID_7_)" d="M9.9 43.4L70.3 8.5 107 72l-60.5 34.9z"/></g><defs><path id="SVGID_8_" d="M87.8 64.1c10.2 0 18.4 6.2 20.5 16.3H67.4c2-10.2 10.1-16.3 20.4-16.3M78 45.4c0-5.4 4.4-9.8 9.8-9.8s9.8 4.4 9.8 9.8-4.4 9.8-9.8 9.8-9.8-4.4-9.8-9.8m-6.5 0c0 5.4 2.6 10.4 7.1 13.4C68 62.5 60.6 72 59.7 83.2l-.1 3.1h56.3v-2.4c-.6-11.4-8.1-21.3-18.9-25 7.4-5.1 9.3-15.2 4.2-22.6-5.1-7.4-15.2-9.3-22.6-4.2-4.4 2.9-7.1 7.9-7.1 13.3"/></defs><clipPath id="SVGID_9_"><use xlink:href="#SVGID_8_" overflow="visible"/></clipPath><g clip-path="url(#SVGID_9_)"><linearGradient id="SVGID_10_" gradientUnits="userSpaceOnUse" x1="-1122.495" y1="-1868.761" x2="-1121.73" y2="-1868.761" gradientTransform="matrix(73.62 0 0 -73.62 82697.984 -137520.422)"><stop offset="0" stop-color="#5dc1d2"/><stop offset="1" stop-color="#2ea9e1"/></linearGradient><path fill="url(#SVGID_10_)" d="M59.7 29.1H116v57.2H59.7z"/></g><g class="st0"><defs><path id="SVGID_11_" d="M48.5 23.7h61v70.5h-61z"/></defs><clipPath id="SVGID_12_"><use xlink:href="#SVGID_11_" overflow="visible"/></clipPath><g clip-path="url(#SVGID_12_)"><defs><path id="SVGID_13_" d="M48.5 23.7h61v70.5h-61z"/></defs><clipPath id="SVGID_14_"><use xlink:href="#SVGID_13_" overflow="visible"/></clipPath><g clip-path="url(#SVGID_14_)"><image width="338" height="387" xlink:href="3D812B6A7F1D14C9.png" transform="translate(48.301 23.881) scale(.1814)" overflow="visible"/></g></g></g><defs><path id="SVGID_15_" d="M78 46.2c.1 1.6.6 3.1 1.4 4.4L91 57.8 60.8 76.5V50.9l-6.9-4.3v36.1c0 1.3.7 2.4 1.8 3.1.5.3 1.1.5 1.8.5s1.3-.2 1.9-.5l40.5-25c1.1-.6 1.7-1.8 1.7-3.1 0-1.2-.7-2.3-1.8-2.9L79.9 42.5l-1.2-.8c-.6 1.5-.8 3-.7 4.5M55.7 29.5c-1.1.6-1.8 1.8-1.8 3.1v5.7l6.9 4.3v-3.5l6.4 4 4.3 2.6c0-1.2.1-2.3.3-3.4.3-1.4.7-2.7 1.3-3.9l-14-8.7c-.5-.4-1.2-.6-1.9-.6-.4 0-1 .1-1.5.4"/></defs><clipPath id="SVGID_16_"><use xlink:href="#SVGID_15_" overflow="visible"/></clipPath><g clip-path="url(#SVGID_16_)"><linearGradient id="SVGID_17_" gradientUnits="userSpaceOnUse" x1="-1091.376" y1="-1837.36" x2="-1090.611" y2="-1837.36" gradientTransform="scale(66.3578 -66.3578) rotate(-60.113 1041.982 -1862.668)"><stop offset="0" stop-color="#ffdd60"/><stop offset="1" stop-color="#ec8e11"/></linearGradient><path fill="url(#SVGID_17_)" d="M29.2 43.4L89.9 8.5l36.7 63.8-60.7 34.9z"/></g><g class="st11"><path class="st12" d="M129.2 46.9h15.1v1.5h-13.5v8.8h12.1v1.5h-12.1v9.7h-1.6V46.9z"/></g><g class="st11"><path class="st12" d="M155 46.8h1.5l10 21.6h-1.7l-2.7-6h-12.7l-2.7 6H145l10-21.6zm6.4 14.1l-5.6-12.4-5.7 12.4h11.3zm7.5 4.3l1-1.2c2.4 2.2 4.5 3.2 7.7 3.2s5.4-1.8 5.4-4.3v-.1c0-2.3-1.2-3.6-6.1-4.6-5.1-1-7.2-2.8-7.2-6v-.1c0-3.2 2.9-5.6 6.9-5.6 3.1 0 5.2.9 7.3 2.6l-1 1.3c-2-1.7-4-2.4-6.4-2.4-3.2 0-5.2 1.8-5.2 4v.1c0 2.3 1.2 3.6 6.2 4.7 5 1 7 2.8 7 5.9v.1c0 3.5-3 5.8-7.1 5.8-3.3.1-5.9-1.1-8.5-3.4z"/></g><g class="st11"><path class="st12" d="M195.7 48.4h-7.5v-1.5h16.5v1.5h-7.5v20h-1.6v-20h.1z"/></g><g class="st11"><path class="st13" d="M215.5 48.4H208v-1.5h16.5v1.5H217v20h-1.6v-20h.1zm13.9-1.5h9c2.6 0 4.7.8 6 2.1 1 1 1.6 2.4 1.6 4v.1c0 3.6-2.7 5.6-6.3 6.1l7.1 9.1h-2l-6.8-8.9h-7v8.9h-1.6V46.9zm8.8 11.1c3.6 0 6.2-1.8 6.2-4.9V53c0-2.9-2.3-4.7-6.2-4.7h-7.3v9.6h7.3v.1z"/></g><g class="st11"><path class="st13" d="M259.6 46.8h1.5l10 21.6h-1.7l-2.7-6h-12.6l-2.7 6h-1.7l9.9-21.6zm6.4 14.1l-5.6-12.4-5.7 12.4H266z"/></g><g class="st11"><path class="st13" d="M273.5 57.7c0-6.1 4.5-11.1 10.7-11.1 3.8 0 6.1 1.4 8.3 3.4l-1.1 1.2c-1.9-1.8-4-3.2-7.2-3.2-5.1 0-9 4.2-9 9.6v.1c0 5.4 3.9 9.6 9.1 9.6 3.1 0 5.2-1.2 7.4-3.3l1.1 1c-2.3 2.2-4.7 3.7-8.5 3.7-6.3 0-10.8-4.8-10.8-11zM297 46.9h1.6V61l13.6-14.1h2.2l-9.4 9.5 9.8 12h-2.1l-8.8-10.8-5.3 5.4v5.4H297V46.9z"/></g><g class="st11"><path class="st13" d="M318.9 46.9h.6l9.3 13.3 9.3-13.3h.6v21.4h-.7V48.1l-9.3 13.2-9.3-13.2v20.3h-.7V46.9h.2zm26.3 0h15v.6h-14.3v9.7h13v.6h-13v9.9h14.4v.6h-15.1V46.9z"/></g><g class="st11"><path class="st14" d="M193.3 74.8h4.2c1.2 0 2.2.4 2.8 1 .5.5.8 1.2.8 1.9 0 1.6-1.1 2.6-2.7 2.9l3 4H200l-2.8-3.8h-2.8v3.8h-1.1v-9.8zm4.1 5c1.5 0 2.5-.8 2.5-2s-.9-1.9-2.5-1.9h-3v4l3-.1z"/></g><g class="st11"><path class="st14" d="M204.8 74.8h7.1v1h-6v3.3h5.3v1h-5.3v3.4h6v1h-7.2l.1-9.7z"/></g><g class="st11"><path class="st14" d="M219.2 74.7h1l4.5 9.9h-1.2l-1.1-2.6h-5.3l-1.2 2.6h-1.1l4.4-9.9zM222 81l-2.2-5-2.2 5h4.4zm6.1-6.2h1.1v8.8h5.5v1h-6.6v-9.8z"/></g><g class="st11"><path class="st14" d="M238.1 74.8h7.1v1h-6v3.3h5.3v1h-5.3v3.4h6v1H238l.1-9.7z"/></g><g class="st11"><path class="st14" d="M248.2 83.2l.7-.8c1 .9 2 1.4 3.4 1.4 1.3 0 2.2-.7 2.2-1.7 0-.9-.5-1.4-2.5-1.9-2.3-.5-3.3-1.2-3.3-2.8 0-1.5 1.4-2.7 3.2-2.7 1.4 0 2.4.4 3.4 1.2l-.6.9c-.9-.7-1.8-1.1-2.8-1.1-1.3 0-2.1.7-2.1 1.6 0 .9.5 1.4 2.7 1.9s3.2 1.3 3.2 2.8c0 1.7-1.4 2.8-3.3 2.8-1.7-.1-3-.6-4.2-1.6z"/></g><g class="st11"><path class="st14" d="M261.6 75.8h-3.3v-1h7.7v1h-3.3v8.8h-1.1v-8.8zm9-1.1h1l4.5 9.9h-1.2l-1.1-2.6h-5.4l-1.2 2.6h-1.1l4.5-9.9zm2.7 6.3l-2.2-5-2.2 5h4.4z"/></g><g class="st11"><path class="st14" d="M282 75.8h-3.3v-1h7.7v1h-3.3v8.8H282v-8.8z"/></g><g class="st11"><path class="st14" d="M289.9 74.8h7.1v1h-6v3.3h5.3v1H291v3.4h6v1h-7.2v-9.7h.1z"/></g></g></svg>