<svg xmlns="http://www.w3.org/2000/svg" xmlns:xlink="http://www.w3.org/1999/xlink" viewBox="0 0 154.63 153.79"><defs><clipPath id="clip-path"><path class="cls-3" d="M-1471.59-1023.47h603.83v445.76h-603.83z"/></clipPath><clipPath id="clip-path-2"><path class="cls-3" d="M-1935.93-2203.23h1798.6V164.95h-1798.6z"/></clipPath><clipPath id="clip-path-3"><path class="cls-3" d="M-1935.93 57.74l127.7 107.21 1670.89-2260.97-127.7-107.21L-1935.93 57.74z"/></clipPath><clipPath id="clip-path-4"><path class="cls-3" d="M-1787.65-2078.74H-89.23V205.33h-1698.42z"/></clipPath><clipPath id="clip-path-5"><path class="cls-3" d="M-1787.65 182.22l27.53 23.11L-89.23-2055.63l-27.53-23.11-1670.89 2260.96z"/></clipPath><linearGradient id="linear-gradient" x1="-2307.7" y1="-997.39" x2="-2306.7" y2="-997.39" gradientTransform="matrix(2815.15 0 .01 557.73 6494068.16 555252.06)" gradientUnits="userSpaceOnUse"><stop offset="0"/><stop offset=".17" stop-color="#030303"/><stop offset=".3" stop-color="#0d0d0d"/><stop offset=".42" stop-color="#1e1e1e"/><stop offset=".53" stop-color="#353535"/><stop offset=".64" stop-color="#535353"/><stop offset=".74" stop-color="#787878"/><stop offset=".84" stop-color="#a4a4a4"/><stop offset=".93" stop-color="#d6d6d6"/><stop offset="1" stop-color="#fff"/></linearGradient><linearGradient id="linear-gradient-2" x1="-2307.7" y1="-997.39" x2="-2306.7" y2="-997.39" gradientTransform="matrix(2811.12 0 .01 556.93 6484879.52 554536.32)" xlink:href="#linear-gradient"/><linearGradient id="linear-gradient-3" x1="-2307.7" y1="-997.39" x2="-2306.7" y2="-997.39" gradientTransform="matrix(2815.15 0 .01 557.73 6494067.99 555251.79)" gradientUnits="userSpaceOnUse"><stop offset="0" stop-color="#fff"/><stop offset="1" stop-color="#fff"/></linearGradient><linearGradient id="linear-gradient-4" x1="-2307.7" y1="-997.39" x2="-2306.7" y2="-997.39" gradientTransform="matrix(2811.12 0 .01 556.93 6484879.52 554536.32)" xlink:href="#linear-gradient-3"/><mask id="mask" x="-3087.32" y="-3077.67" width="4101.38" height="4117.06" maskUnits="userSpaceOnUse"><path transform="rotate(-51.75 -1036.599 -1019.126)" fill="url(#linear-gradient)" d="M-2523.27-2458.44H450V420.17h-2973.27z"/></mask><mask id="mask-2" x="-2898.16" y="-2904.49" width="3919.43" height="3935.56" maskUnits="userSpaceOnUse"><path transform="rotate(-51.75 -938.406 -936.698)" fill="url(#linear-gradient-2)" d="M-2361.04-2310.64H484.17V437.23h-2845.21z"/></mask><style>.cls-3{fill:none}.cls-16{fill:#1c1c33}</style></defs><g style="isolation:isolate"><g id="Layer_1" data-name="Layer 1"><g clip-path="url(#clip-path)"><g clip-path="url(#clip-path-2)"><g mask="url(#mask)" clip-path="url(#clip-path-3)"><path transform="rotate(-51.75 -1036.599 -1019.126)" fill="url(#linear-gradient-3)" d="M-2523.27-2458.44H450V420.17h-2973.27z"/></g></g><g clip-path="url(#clip-path-4)"><g mask="url(#mask-2)" clip-path="url(#clip-path-5)"><path transform="rotate(-51.75 -938.406 -936.698)" fill="url(#linear-gradient-4)" d="M-2361.04-2310.64H484.17V437.23h-2845.21z"/></g></g></g><path d="M104 42.58a28.26 28.26 0 11-28.31-28.26A28.26 28.26 0 01104 42.58" fill="#f2a400"/><path class="cls-16" d="M118.4 76.39H32.82a1 1 0 000 2h85.58a1 1 0 000-2m.17 8.96H32.82a1 1 0 100 2h85.75a1 1 0 100-2m-15.96 9.53H32.82a1 1 0 100 2h69.79a1 1 0 100-2"/><path class="cls-16" d="M127.63 44.87h-25.82a23.69 23.69 0 10-47.38 0H28.61A12.12 12.12 0 0016.53 57v49.68a12.11 12.11 0 0012.08 12.08h5.87l-.17 17.67a1.09 1.09 0 00.93 1.19 1.05 1.05 0 00.19 0 1.35 1.35 0 00.87-.37l20.13-18.44h56.42a1 1 0 000-2h-56.6c-.5 0-.49.05-1 .49l-19.06 17.42.16-16.79c0-.65-.2-1.19-.71-1.19h-5.58c-7.63.26-11.55-5.19-11.55-11.55V58.5c-.35-7.58 5.2-11.5 11.55-11.5h24.46a23.69 23.69 0 0047.19 0h24.46c6.35 0 11.66 3.56 11.55 11.55v46.69c0 6.36-3.65 11.64-11.55 11.55H123a1 1 0 100 2h4.61a12.11 12.11 0 0012.07-12.08V57a12.11 12.11 0 00-12.05-12.13zM78.12 66.65a21.76 21.76 0 01-18.4-10.12 22.92 22.92 0 0136.79 0 21.73 21.73 0 01-18.39 10.12zM69.78 38.2a8.34 8.34 0 118.34 8.33 8.34 8.34 0 01-8.34-8.33zm27.67 16.7a24.64 24.64 0 00-13.57-8.69 9.88 9.88 0 10-11.53 0 24.71 24.71 0 00-13.57 8.69 21.79 21.79 0 1138.67 0z"/></g></g></svg>