<svg xmlns="http://www.w3.org/2000/svg" xmlns:xlink="http://www.w3.org/1999/xlink" viewBox="0 0 154.63 153.79"><defs><linearGradient id="linear-gradient" x1="-1958.44" y1="-997.39" x2="-1957.44" y2="-997.39" gradientTransform="matrix(2815.15 0 .01 557.73 5511204.94 555252.01)" gradientUnits="userSpaceOnUse"><stop offset="0"/><stop offset=".17" stop-color="#030303"/><stop offset=".3" stop-color="#0d0d0d"/><stop offset=".42" stop-color="#1e1e1e"/><stop offset=".53" stop-color="#353535"/><stop offset=".64" stop-color="#535353"/><stop offset=".74" stop-color="#787878"/><stop offset=".84" stop-color="#a4a4a4"/><stop offset=".93" stop-color="#d6d6d6"/><stop offset="1" stop-color="#fff"/></linearGradient><linearGradient id="linear-gradient-2" x1="-1958.44" y1="-997.39" x2="-1957.44" y2="-997.39" gradientTransform="matrix(2811.12 0 .01 556.93 5503422.53 554536.34)" xlink:href="#linear-gradient"/><linearGradient id="Degradado_sin_nombre_8" x1="-3883.65" y1="-4934.22" x2="-3883.65" y2="-5491.93" gradientTransform="matrix(-.79 -.62 -3.13 3.96 -20025.35 17722.58)" gradientUnits="userSpaceOnUse"><stop offset="0" stop-color="#fff" stop-opacity="0"/><stop offset=".17" stop-color="#fff" stop-opacity=".01"/><stop offset=".3" stop-color="#fff" stop-opacity=".05"/><stop offset=".42" stop-color="#fff" stop-opacity=".12"/><stop offset=".53" stop-color="#fff" stop-opacity=".21"/><stop offset=".64" stop-color="#fff" stop-opacity=".33"/><stop offset=".74" stop-color="#fff" stop-opacity=".47"/><stop offset=".84" stop-color="#fff" stop-opacity=".64"/><stop offset=".93" stop-color="#fff" stop-opacity=".84"/><stop offset="1" stop-color="#fff"/></linearGradient><linearGradient id="Degradado_sin_nombre_8-2" x1="-4011.8" y1="-4933.84" x2="-4011.8" y2="-5490.75" xlink:href="#Degradado_sin_nombre_8"/><linearGradient id="linear-gradient-3" x1="-1958.44" y1="-997.39" x2="-1957.44" y2="-997.39" gradientTransform="matrix(2815.15 0 .01 557.73 5511204.79 555251.79)" gradientUnits="userSpaceOnUse"><stop offset="0" stop-color="#fff"/><stop offset="1" stop-color="#fff"/></linearGradient><linearGradient id="linear-gradient-4" x1="-1958.44" y1="-997.39" x2="-1957.44" y2="-997.39" gradientTransform="matrix(2811.12 0 .01 556.93 5503422.53 554536.34)" xlink:href="#linear-gradient-3"/><clipPath id="clip-path"><path class="cls-3" d="M-518.48 75.03h-722.19l3.1-616.73h722.19l-3.1 616.73z"/></clipPath><clipPath id="clip-path-2"><path class="cls-3" d="M-1122.33-1023.47h603.83v445.76h-603.83z"/></clipPath><clipPath id="clip-path-3"><path class="cls-3" d="M-1586.67-2203.23h1798.6V164.95h-1798.6z"/></clipPath><clipPath id="clip-path-4"><path class="cls-3" d="M-1586.67 57.74l127.7 107.21L211.92-2096.02l-127.7-107.21L-1586.67 57.74z"/></clipPath><clipPath id="clip-path-5"><path class="cls-3" d="M-1438.39-2078.74H260.03V205.33h-1698.42z"/></clipPath><clipPath id="clip-path-6"><path class="cls-3" d="M-1438.39 182.22l27.52 23.11 1670.9-2260.96-27.53-23.11-1670.89 2260.96z"/></clipPath><mask id="mask" x="-2738.07" y="-3077.67" width="4101.38" height="4117.06" maskUnits="userSpaceOnUse"><path transform="rotate(-51.75 -687.352 -1019.125)" fill="url(#linear-gradient)" d="M-2174.01-2458.44H799.26V420.17h-2973.27z"/></mask><mask id="mask-2" x="-2548.9" y="-2904.49" width="3919.43" height="3935.56" maskUnits="userSpaceOnUse"><path transform="rotate(-51.75 -589.159 -936.697)" fill="url(#linear-gradient-2)" d="M-2011.79-2310.64H833.42V437.23h-2845.21z"/></mask><style>.cls-3{fill:none}</style></defs><g style="isolation:isolate"><g id="Layer_1" data-name="Layer 1"><g clip-path="url(#clip-path)" opacity=".44"><path style="mix-blend-mode:screen" fill="url(#Degradado_sin_nombre_8)" opacity=".53" d="M-1583.54 539.51l127.7 107.21 1670.9-2260.97-127.71-107.21-1670.89 2260.97z"/><path style="mix-blend-mode:screen" fill="url(#Degradado_sin_nombre_8-2)" opacity=".53" d="M-1435.26 663.99l27.53 23.11L263.16-1573.86l-27.53-23.12-1670.89 2260.97z"/></g><g clip-path="url(#clip-path-2)"><g clip-path="url(#clip-path-3)"><g mask="url(#mask)" clip-path="url(#clip-path-4)"><path transform="rotate(-51.75 -687.352 -1019.125)" fill="url(#linear-gradient-3)" d="M-2174.01-2458.44H799.26V420.17h-2973.27z"/></g></g><g clip-path="url(#clip-path-5)"><g mask="url(#mask-2)" clip-path="url(#clip-path-6)"><path transform="rotate(-51.75 -589.159 -936.697)" fill="url(#linear-gradient-4)" d="M-2011.79-2310.64H833.42V437.23h-2845.21z"/></g></g></g><path d="M81.16 39.55A28.26 28.26 0 1152.9 11.29a28.26 28.26 0 0128.26 28.26" fill="#f2a400"/><path d="M115.28 46.25h-1.41v2.64c4.29.06 7.33 2.33 7.35 7.32l-.13 72.93c0 4.42-2.42 7.92-6.8 7.92H68.37c-4.08 0-6.56-3-6.89-7H106a8.51 8.51 0 008.5-8.51V45.43a8.51 8.51 0 00-8.5-8.51h-.83v-1.09a8.51 8.51 0 00-8.51-8.51H61.05l-21 21.33V112a8.51 8.51 0 008.5 8.5h.83v1.09a8.51 8.51 0 008.51 8.51h.82v.83a8.51 8.51 0 008.51 8.5h48a8.5 8.5 0 008.5-8.5V54.76a8.5 8.5 0 00-8.44-8.51zM61.58 30a12.53 12.53 0 01.09 2v11.15a5 5 0 01-5 5H44.14zm-18.8 80.2l-.12-60H57.6a6.06 6.06 0 006-6V29.95h32.25c4.38 0 6.71 2.9 6.71 7.32l-.13 72.93c0 4.42-2.43 7.92-6.81 7.92H49.7c-4.38.02-6.92-3.5-6.92-7.92zm9.35 10.25h44.48a8.51 8.51 0 008.51-8.5v-72.4h.06c4.38 0 6.71 2.9 6.71 7.31l-.13 72.94c0 4.42-2.43 7.92-6.81 7.92H59c-4.13.01-6.63-3.16-6.87-7.27z" fill="#1c1c33"/></g></g></svg>