<svg xmlns="http://www.w3.org/2000/svg" xmlns:xlink="http://www.w3.org/1999/xlink" viewBox="0 0 154.63 153.79"><defs><linearGradient id="linear-gradient" x1="-1609.18" y1="-997.39" x2="-1608.18" y2="-997.39" gradientTransform="matrix(2815.15 0 .01 557.73 4528341.71 555251.97)" gradientUnits="userSpaceOnUse"><stop offset="0"/><stop offset=".17" stop-color="#030303"/><stop offset=".3" stop-color="#0d0d0d"/><stop offset=".42" stop-color="#1e1e1e"/><stop offset=".53" stop-color="#353535"/><stop offset=".64" stop-color="#535353"/><stop offset=".74" stop-color="#787878"/><stop offset=".84" stop-color="#a4a4a4"/><stop offset=".93" stop-color="#d6d6d6"/><stop offset="1" stop-color="#fff"/></linearGradient><linearGradient id="linear-gradient-2" x1="-1609.18" y1="-997.39" x2="-1608.18" y2="-997.39" gradientTransform="matrix(2811.12 0 .01 556.93 4521965.54 554536.36)" xlink:href="#linear-gradient"/><linearGradient id="Degradado_sin_nombre_8" x1="-3534.4" y1="-4934.22" x2="-3534.4" y2="-5491.93" gradientTransform="matrix(-.79 -.62 -3.13 3.96 -19401.81 17938.81)" gradientUnits="userSpaceOnUse"><stop offset="0" stop-color="#fff" stop-opacity="0"/><stop offset=".17" stop-color="#fff" stop-opacity=".01"/><stop offset=".3" stop-color="#fff" stop-opacity=".05"/><stop offset=".42" stop-color="#fff" stop-opacity=".12"/><stop offset=".53" stop-color="#fff" stop-opacity=".21"/><stop offset=".64" stop-color="#fff" stop-opacity=".33"/><stop offset=".74" stop-color="#fff" stop-opacity=".47"/><stop offset=".84" stop-color="#fff" stop-opacity=".64"/><stop offset=".93" stop-color="#fff" stop-opacity=".84"/><stop offset="1" stop-color="#fff"/></linearGradient><linearGradient id="Degradado_sin_nombre_8-2" x1="-3662.54" y1="-4933.84" x2="-3662.54" y2="-5490.75" xlink:href="#Degradado_sin_nombre_8"/><linearGradient id="linear-gradient-3" x1="-1609.18" y1="-997.39" x2="-1608.18" y2="-997.39" gradientTransform="matrix(2815.15 0 .01 557.73 4528341.6 555251.79)" gradientUnits="userSpaceOnUse"><stop offset="0" stop-color="#fff"/><stop offset="1" stop-color="#fff"/></linearGradient><linearGradient id="linear-gradient-4" x1="-1609.18" y1="-997.39" x2="-1608.18" y2="-997.39" gradientTransform="matrix(2811.12 0 .01 556.93 4521965.54 554536.36)" xlink:href="#linear-gradient-3"/><clipPath id="clip-path"><path class="cls-3" d="M-169.22 75.03h-722.19l3.1-616.73h722.19l-3.1 616.73z"/></clipPath><clipPath id="clip-path-2"><path class="cls-3" d="M-773.08-1023.47h603.83v445.76h-603.83z"/></clipPath><clipPath id="clip-path-3"><path class="cls-3" d="M-1237.41-2203.23h1798.6V164.95h-1798.6z"/></clipPath><clipPath id="clip-path-4"><path class="cls-3" d="M-1237.41 57.74l127.7 107.21L561.18-2096.02l-127.7-107.21L-1237.41 57.74z"/></clipPath><clipPath id="clip-path-5"><path class="cls-3" d="M-1089.14-2078.74H609.28V205.33h-1698.42z"/></clipPath><clipPath id="clip-path-6"><path class="cls-3" d="M-1089.13 182.22l27.52 23.11 1670.9-2260.96-27.53-23.11-1670.89 2260.96z"/></clipPath><mask id="mask" x="-2388.81" y="-3077.67" width="4101.38" height="4117.06" maskUnits="userSpaceOnUse"><path transform="rotate(-51.75 -338.104 -1019.125)" fill="url(#linear-gradient)" d="M-1824.75-2458.44h2973.27V420.17h-2973.27z"/></mask><mask id="mask-2" x="-2199.64" y="-2904.49" width="3919.43" height="3935.56" maskUnits="userSpaceOnUse"><path transform="rotate(-51.75 -239.917 -936.686)" fill="url(#linear-gradient-2)" d="M-1662.53-2310.64h2845.21V437.23h-2845.21z"/></mask><style>.cls-3{fill:none}.cls-20{fill:#1c1c33}</style></defs><g style="isolation:isolate"><g id="Layer_1" data-name="Layer 1"><g clip-path="url(#clip-path)" opacity=".44"><path style="mix-blend-mode:screen" fill="url(#Degradado_sin_nombre_8)" opacity=".53" d="M-1234.28 539.51l127.7 107.21L564.31-1614.25l-127.7-107.21-1670.89 2260.97z"/><path style="mix-blend-mode:screen" fill="url(#Degradado_sin_nombre_8-2)" opacity=".53" d="M-1086 663.99l27.53 23.11L612.42-1573.86l-27.53-23.12L-1086 663.99z"/></g><g clip-path="url(#clip-path-2)"><g clip-path="url(#clip-path-3)"><g mask="url(#mask)" clip-path="url(#clip-path-4)"><path transform="rotate(-51.75 -338.104 -1019.125)" fill="url(#linear-gradient-3)" d="M-1824.75-2458.44h2973.27V420.17h-2973.27z"/></g></g><g clip-path="url(#clip-path-5)"><g mask="url(#mask-2)" clip-path="url(#clip-path-6)"><path transform="rotate(-51.75 -239.917 -936.686)" fill="url(#linear-gradient-4)" d="M-1662.53-2310.64h2845.21V437.23h-2845.21z"/></g></g></g><path d="M110.65 112.48a28.27 28.27 0 11-28.27-28.26 28.27 28.27 0 0128.27 28.26" fill="#f2a400"/><path class="cls-20" d="M65.54 41.23a27.07 27.07 0 10-28.1 27v20.12l-9 9.72a1 1 0 000 1.38l.11.1a1 1 0 001.37 0l8.46-9.17 8.62 8.9a1 1 0 001.37 0l.11-.1a1 1 0 000-1.38l-9-9.42V68.27a27.07 27.07 0 0026.06-27.04zm-52.19 0a25.12 25.12 0 1125.12 25.12 25.12 25.12 0 01-25.12-25.12z"/><path class="cls-20" d="M122.3 44.43L113.37 35a19.4 19.4 0 00-38.65-1.8h-.07v.8c0 .5-.08 1-.08 1.51s0 1.09.08 1.62v79.58a17.38 17.38 0 01-34.76-.53v-13.91l7.44 7.83a1 1 0 001.38 0l.1-.1a1 1 0 000-1.37l-9.31-9.79a.94.94 0 00-.39-.24.93.93 0 00-.6 0 .88.88 0 00-.39.24l-9.24 10a1 1 0 000 1.37l.1.11a1 1 0 001.38 0l7.44-8.07v14.92a19.38 19.38 0 0038.72-.06v-81.6a17.33 17.33 0 0134.66-.59l-9 9.74a1 1 0 000 1.38l.1.1a1 1 0 001.38 0l8.45-9.17 8.5 8.93a1 1 0 001.38 0l.11-.1a1 1 0 00.2-1.37z"/><path class="cls-20" d="M114.34 62.47h-.54V49.32l7.37 7.75a1 1 0 001.37 0l.11-.1a1 1 0 000-1.38l-9.31-9.79a.92.92 0 00-.39-.23 1 1 0 00-.29-.05 1 1 0 00-.3.05 1 1 0 00-.39.23l-9.23 10a1 1 0 000 1.38l.11.1a1 1 0 001.37 0l7.52-8.15v13.36a22.74 22.74 0 00-22.09 22.66v22.46a22.74 22.74 0 0022.67 22.68h2A22.75 22.75 0 00137 107.61V85.15a22.75 22.75 0 00-22.66-22.68zm20.56 44.89a21 21 0 01-20.9 20.88h-1.33a21 21 0 01-20.89-20.88V85.9c0-11.49 9.19-21.51 20.68-21.51h1.33c11.48 0 21.1 10 21.1 21.51z"/><rect class="cls-20" x="111.14" y="69.39" width="3.09" height="11.4" rx="1.54"/><path class="cls-20" d="M46.08 32.42a11.33 11.33 0 00-6.31-3V40.4c5.92 1.24 8.41 3.46 8.41 7.28 0 4.13-3.46 7-8.33 7.2v3.82H38v-3.86a15.31 15.31 0 01-9.22-4.16L30 49.16a12.93 12.93 0 008 3.93V42c-5.84-1.29-8.25-3.43-8.25-7.32s3.42-6.93 8.17-7v-2.31h1.87v2.34a13.12 13.12 0 017.51 3.19zm-8 7.59V29.38c-3.78.08-6.27 2.34-6.27 5.14-.02 2.61 1.19 4.24 6.25 5.48zm1.71 2.37v10.75c3.9-.08 6.43-2.34 6.43-5.3-.02-2.64-1.31-4.28-6.45-5.45z"/></g></g></svg>