<svg xmlns="http://www.w3.org/2000/svg" xmlns:xlink="http://www.w3.org/1999/xlink" viewBox="0 0 154.63 153.79"><defs><linearGradient id="linear-gradient" x1="-2133.07" y1="-997.39" x2="-2132.07" y2="-997.39" gradientTransform="matrix(2815.15 0 .01 557.73 6002636.55 555252.03)" gradientUnits="userSpaceOnUse"><stop offset="0"/><stop offset=".17" stop-color="#030303"/><stop offset=".3" stop-color="#0d0d0d"/><stop offset=".42" stop-color="#1e1e1e"/><stop offset=".53" stop-color="#353535"/><stop offset=".64" stop-color="#535353"/><stop offset=".74" stop-color="#787878"/><stop offset=".84" stop-color="#a4a4a4"/><stop offset=".93" stop-color="#d6d6d6"/><stop offset="1" stop-color="#fff"/></linearGradient><linearGradient id="linear-gradient-2" x1="-2133.07" y1="-997.39" x2="-2132.07" y2="-997.39" gradientTransform="matrix(2811.12 0 .01 556.93 5994151.03 554536.33)" xlink:href="#linear-gradient"/><linearGradient id="Degradado_sin_nombre_8" x1="-4058.28" y1="-4934.22" x2="-4058.28" y2="-5491.93" gradientTransform="matrix(-.79 -.62 -3.13 3.96 -20337.12 17614.47)" gradientUnits="userSpaceOnUse"><stop offset="0" stop-color="#fff" stop-opacity="0"/><stop offset=".17" stop-color="#fff" stop-opacity=".01"/><stop offset=".3" stop-color="#fff" stop-opacity=".05"/><stop offset=".42" stop-color="#fff" stop-opacity=".12"/><stop offset=".53" stop-color="#fff" stop-opacity=".21"/><stop offset=".64" stop-color="#fff" stop-opacity=".33"/><stop offset=".74" stop-color="#fff" stop-opacity=".47"/><stop offset=".84" stop-color="#fff" stop-opacity=".64"/><stop offset=".93" stop-color="#fff" stop-opacity=".84"/><stop offset="1" stop-color="#fff"/></linearGradient><linearGradient id="Degradado_sin_nombre_8-2" x1="-4186.43" y1="-4933.84" x2="-4186.43" y2="-5490.75" xlink:href="#Degradado_sin_nombre_8"/><linearGradient id="linear-gradient-3" x1="-2133.07" y1="-997.39" x2="-2132.07" y2="-997.39" gradientTransform="matrix(2815.15 0 .01 557.73 6002636.39 555251.79)" gradientUnits="userSpaceOnUse"><stop offset="0" stop-color="#fff"/><stop offset="1" stop-color="#fff"/></linearGradient><linearGradient id="linear-gradient-4" x1="-2133.07" y1="-997.39" x2="-2132.07" y2="-997.39" gradientTransform="matrix(2811.12 0 .01 556.93 5994151.03 554536.33)" xlink:href="#linear-gradient-3"/><clipPath id="clip-path"><path class="cls-3" d="M-693.11 75.03h-722.19l3.11-616.73H-690l-3.11 616.73z"/></clipPath><clipPath id="clip-path-2"><path class="cls-3" d="M-1296.96-1023.47h603.83v445.76h-603.83z"/></clipPath><clipPath id="clip-path-3"><path class="cls-3" d="M-1761.3-2203.23H37.3V164.95h-1798.6z"/></clipPath><clipPath id="clip-path-4"><path class="cls-3" d="M-1761.3 57.74l127.7 107.21L37.29-2096.02l-127.7-107.21L-1761.3 57.74z"/></clipPath><clipPath id="clip-path-5"><path class="cls-3" d="M-1613.02-2078.74H85.4V205.33h-1698.42z"/></clipPath><clipPath id="clip-path-6"><path class="cls-3" d="M-1613.02 182.22l27.53 23.11L85.4-2055.63l-27.53-23.11-1670.89 2260.96z"/></clipPath><mask id="mask" x="-2912.7" y="-3077.67" width="4101.38" height="4117.06" maskUnits="userSpaceOnUse"><path transform="rotate(-51.75 -861.978 -1019.133)" fill="url(#linear-gradient)" d="M-2348.64-2458.44H624.63V420.17h-2973.27z"/></mask><mask id="mask-2" x="-2723.53" y="-2904.49" width="3919.43" height="3935.56" maskUnits="userSpaceOnUse"><path transform="rotate(-51.75 -763.79 -936.695)" fill="url(#linear-gradient-2)" d="M-2186.41-2310.64H658.8V437.23h-2845.21z"/></mask><style>.cls-3{fill:none}.cls-20{fill:#1c1c33}</style></defs><g style="isolation:isolate"><g id="Layer_1" data-name="Layer 1"><g clip-path="url(#clip-path)" opacity=".44"><path style="mix-blend-mode:screen" fill="url(#Degradado_sin_nombre_8)" opacity=".53" d="M-1758.17 539.51l127.7 107.21L40.43-1614.25l-127.71-107.21-1670.89 2260.97z"/><path style="mix-blend-mode:screen" fill="url(#Degradado_sin_nombre_8-2)" opacity=".53" d="M-1609.89 663.99l27.53 23.11L88.53-1573.86 61-1596.98-1609.89 663.99z"/></g><g clip-path="url(#clip-path-2)"><g clip-path="url(#clip-path-3)"><g mask="url(#mask)" clip-path="url(#clip-path-4)"><path transform="rotate(-51.75 -861.978 -1019.133)" fill="url(#linear-gradient-3)" d="M-2348.64-2458.44H624.63V420.17h-2973.27z"/></g></g><g clip-path="url(#clip-path-5)"><g mask="url(#mask-2)" clip-path="url(#clip-path-6)"><path transform="rotate(-51.75 -763.79 -936.695)" fill="url(#linear-gradient-4)" d="M-2186.41-2310.64H658.8V437.23h-2845.21z"/></g></g></g><path d="M110.47 90.62A28.27 28.27 0 1182.2 62.36a28.27 28.27 0 0128.27 28.26" fill="#f2a400"/><path class="cls-20" d="M126.64 25.44H28a12 12 0 00-12 12v82.3a12 12 0 0012 12h98.65a12 12 0 0012-12v-82.3a12 12 0 00-12.01-12zm9.84 93c0 7.35-5.11 11.34-11.34 11.34H29.66c-6.23 0-11.34-4.12-11.34-11.86V38.73c0-7.61 4.7-11.34 11.34-11.34h95.48c6.23 0 11.34 4 11.34 11.34z"/><path class="cls-20" d="M77.31 59.54a29.11 29.11 0 1029.12 29.11 29.11 29.11 0 00-29.12-29.11zm25.17 19.85H89.35c-1.19-7.72-3.81-13.94-7.15-17a26.76 26.76 0 0120.28 17zM88 88.65a66.11 66.11 0 01-.4 7.32H67.24a67.18 67.18 0 010-14.64h20.32a66.11 66.11 0 01.44 7.32zm-10.6 26.73c-4.55 0-8.42-7.27-9.91-17.47h19.82c-1.49 10.2-5.31 17.47-9.91 17.47zm-9.91-36c1.51-10.18 5.36-17.45 9.9-17.46 4.54 0 8.41 7.28 9.9 17.47zm5.1-17c-3.33 3.09-6 9.31-7.14 17H52.32a26.77 26.77 0 0120.27-17.02zm-20.9 19h13.5a62.52 62.52 0 000 14.64h-13.5a26.78 26.78 0 010-14.64zm.63 16.58h13.13c1.19 7.72 3.81 13.94 7.14 17a26.77 26.77 0 01-20.27-17.05zm29.88 17c3.34-3.09 6-9.31 7.15-17h13.13a26.76 26.76 0 01-20.28 16.98zm20.9-19H89.61a62.52 62.52 0 000-14.64h13.49a26.53 26.53 0 010 14.64zM16.26 49.2h122.08v1.95H16.26zm8.21-10.54a8.18 8.18 0 008.17 8.18h45a8.18 8.18 0 100-16.35h-45a8.17 8.17 0 00-8.17 8.17zm59.1.09c0 4.22-4.11 6.2-6.52 6.21H33.21c-2.42 0-6.52-1.72-6.52-6.21s4.25-6.39 6.67-6.39H77.2a6.24 6.24 0 016.37 6.39zm16.31-8.46a8.37 8.37 0 108.37 8.37 8.36 8.36 0 00-8.37-8.37zm0 14.86a6.49 6.49 0 116.49-6.49 6.49 6.49 0 01-6.49 6.49zm20.45-14.86a8.37 8.37 0 108.36 8.37 8.37 8.37 0 00-8.36-8.37zm0 14.86a6.49 6.49 0 116.48-6.49 6.49 6.49 0 01-6.48 6.49z"/></g></g></svg>