<svg width="100" height="129" fill="none" xmlns="http://www.w3.org/2000/svg"><path d="M56.52 28.26a28.26 28.26 0 11-56.519 0 28.26 28.26 0 0156.519 0z" fill="#F2A400"/><path d="M90.64 35h-1.41v2.64c4.29.06 7.33 2.33 7.35 7.32l-.13 72.93c0 4.42-2.42 7.92-6.8 7.92H43.73c-4.08 0-6.56-3-6.89-7h44.47a8.51 8.51 0 008.5-8.51V34.14a8.51 8.51 0 00-8.5-8.51h-.83v-1.09A8.499 8.499 0 0072 16H36.41l-21 21.32v63.3a8.507 8.507 0 008.5 8.5h.83v1.09a8.507 8.507 0 008.51 8.51h.83v.83a8.5 8.5 0 008.5 8.5h48a8.5 8.5 0 008.5-8.5V43.47A8.49 8.49 0 0090.64 35zm-53.7-16.25c.083.663.113 1.332.09 2v11.11a5 5 0 01-5 5H19.5l17.44-18.11zm-18.8 80.16l-.12-60H33a6.06 6.06 0 006-6V18.67h32.21c4.38 0 6.71 2.89 6.71 7.31l-.13 72.93c0 4.42-2.43 7.92-6.81 7.92H25.06c-4.38.02-6.92-3.5-6.92-7.92zm9.35 10.25H72a8.51 8.51 0 008.51-8.5v-72.4h.06c4.38 0 6.71 2.9 6.71 7.31l-.13 72.94c0 4.42-2.43 7.92-6.81 7.92H34.39c-4.16.01-6.66-3.16-6.9-7.27z" fill="#fff"/></svg>