<svg width="100" height="129" fill="none" xmlns="http://www.w3.org/2000/svg"><g clip-path="url(#clip0)"><path d="M56.5 28.3c0 15.6-12.7 28.3-28.3 28.3C12.6 56.6 0 43.9 0 28.3 0 12.7 12.7 0 28.3 0c15.6 0 28.2 12.7 28.2 28.3z" fill="#F2A400"/><path d="M90.6 35h-1.4v2.6c4.3.1 7.3 2.3 7.3 7.3l-.1 72.9c0 4.4-2.4 7.9-6.8 7.9H43.7c-4.1 0-6.6-3-6.9-7h44.5c4.7 0 8.5-3.8 8.5-8.5V34.1c0-4.7-3.8-8.5-8.5-8.5h-.8v-1.1c0-4.7-3.8-8.5-8.5-8.5H36.4l-21 21.3v63.3c0 4.7 3.8 8.5 8.5 8.5h.8v1.1c0 4.7 3.8 8.5 8.5 8.5h.8v.8c0 4.7 3.8 8.5 8.5 8.5h48c4.7 0 8.5-3.8 8.5-8.5v-76c.1-4.7-3.7-8.5-8.4-8.5zM36.9 18.8c.1.7.1 1.3.1 2v11.1c0 2.8-2.2 5-5 5H19.5l17.4-18.1zM18.1 98.9l-.1-60h15c3.3 0 6-2.7 6-6V18.6h32.2c4.4 0 6.7 2.9 6.7 7.3l-.1 72.9c0 4.4-2.4 7.9-6.8 7.9H25.1c-4.4.1-7-3.4-7-7.8zm9.4 10.3H72c4.7 0 8.5-3.8 8.5-8.5V28.3h.1c4.4 0 6.7 2.9 6.7 7.3l-.1 72.9c0 4.4-2.4 7.9-6.8 7.9h-46c-4.2 0-6.7-3.1-6.9-7.2z" fill="#1B1C33"/></g><defs><clipPath id="clip0"><path fill="#fff" d="M0 0h99.1v128.1H0z"/></clipPath></defs></svg>