<svg width="126" height="124" fill="none" xmlns="http://www.w3.org/2000/svg"><path d="M99.25 95.915a27.076 27.076 0 01-4.76 15.319c-3.107 4.535-7.523 8.069-12.69 10.157a28.945 28.945 0 01-16.337 1.569c-5.484-1.064-10.523-3.691-14.476-7.547-3.954-3.857-6.646-8.77-7.736-14.119a26.925 26.925 0 011.616-15.928c2.142-5.037 5.769-9.342 10.42-12.369A28.789 28.789 0 0171 68.361c7.493.005 14.676 2.91 19.973 8.077 5.297 5.166 8.274 12.172 8.277 19.477z" fill="#F2A400"/><path d="M54.14 26.444a25.924 25.924 0 00-4.467-14.573c-2.923-4.325-7.086-7.716-11.971-9.75A27.71 27.71 0 0022.199.43c-5.225.932-10.054 3.342-13.885 6.931-3.83 3.589-6.493 8.197-7.657 13.25a25.774 25.774 0 001.114 15.172c1.89 4.84 5.198 9.032 9.514 12.053A27.524 27.524 0 0026.04 52.77v19.627l-9 9.468a.962.962 0 00-.276.673c0 .25.099.491.276.673l.11.097a1.014 1.014 0 001.37 0l8.46-8.931 8.5 8.707a1.014 1.014 0 001.37 0l.11-.098a.962.962 0 00.276-.672.962.962 0 00-.276-.673l-9-9.185V52.809c7.019-.225 13.673-3.101 18.558-8.02 4.885-4.92 7.618-11.498 7.622-18.345zm-52.14 0A24.06 24.06 0 016.237 12.83c2.762-4.029 6.688-7.168 11.281-9.02A25.718 25.718 0 0132.04 2.424c4.874.949 9.35 3.286 12.861 6.717 3.511 3.43 5.9 7.799 6.863 12.553.964 4.755.46 9.68-1.45 14.155-1.909 4.475-5.136 8.297-9.274 10.983a25.58 25.58 0 01-13.969 4.104c-6.654-.01-13.033-2.596-17.733-7.188-4.7-4.593-7.34-10.817-7.337-17.305z" fill="#1C1C33"/><path d="M110.9 29.573l-8.9-9.155c-.064-4.815-2.008-9.424-5.436-12.89-3.429-3.465-8.084-5.525-13.016-5.76-4.932-.235-9.77 1.373-13.53 4.496-3.758 3.123-6.154 7.525-6.698 12.31h-.07v.79c0 .488-.08.976-.08 1.463 0 .488 0 1.063.08 1.58V100c-.068 4.494-1.964 8.778-5.271 11.91-3.307 3.131-7.755 4.853-12.364 4.788-4.61-.066-9.004-1.915-12.215-5.14-3.212-3.224-4.978-7.561-4.91-12.055V85.96l7.44 7.635a1.014 1.014 0 001.38 0l.1-.098a.962.962 0 00.276-.672.962.962 0 00-.276-.673l-9.31-9.546a.926.926 0 00-.39-.224.953.953 0 00-.6 0 .865.865 0 00-.39.224l-9.24 9.75a.962.962 0 00-.276.673c0 .25.098.492.276.673l.1.098a1.018 1.018 0 001.38-.001l7.44-7.868v14.548c.234 4.857 2.38 9.44 5.991 12.795 3.611 3.354 8.41 5.222 13.398 5.214 4.987-.008 9.78-1.89 13.38-5.255 3.6-3.365 5.732-7.954 5.95-12.813V20.876c-.077-4.482 1.673-8.81 4.868-12.033 3.195-3.222 7.572-5.076 12.168-5.152 4.596-.076 9.035 1.63 12.34 4.746 3.306 3.115 5.207 7.382 5.285 11.864l-9 9.506a.962.962 0 000 1.336l.1.098c.186.173.433.269.69.269.257 0 .504-.096.69-.27l8.45-8.94 8.5 8.716a1.014 1.014 0 001.38 0l.11-.097a.958.958 0 00.2-1.346z" fill="#1C1C33"/><path d="M102.94 47.154h-.54V34.332l7.37 7.556c.185.17.43.265.685.265.255 0 .5-.095.685-.265l.11-.097a.963.963 0 00.276-.673.963.963 0 00-.276-.673L102 30.948a1.022 1.022 0 00-.68-.283 1.005 1.005 0 00-.69.283l-9.23 9.75a.962.962 0 00-.276.673c0 .251.099.492.276.673l.11.098a1.014 1.014 0 001.37 0l7.45-7.966v12.997c-5.904.167-11.51 2.567-15.63 6.693-4.121 4.125-6.434 9.652-6.45 15.411v21.9c.016 5.857 2.41 11.471 6.657 15.613 4.248 4.142 10.005 6.476 16.013 6.491h2c6.009-.015 11.767-2.349 16.016-6.491 4.25-4.141 6.646-9.755 6.664-15.613v-21.9c-.016-5.858-2.407-11.471-6.653-15.616-4.245-4.145-9.999-6.484-16.007-6.508zm20.56 43.77c-.029 5.393-2.239 10.557-6.15 14.371-3.912 3.814-9.209 5.969-14.74 5.997h-1.33c-5.531-.028-10.828-2.183-14.74-5.997-3.91-3.814-6.121-8.978-6.15-14.372V70c0-11.203 9.19-20.964 20.68-20.964h1.33c11.49 0 21.1 9.75 21.1 20.964v20.924z" fill="#1C1C33"/><path d="M101.29 53.91h-.01c-.851 0-1.54.673-1.54 1.502v8.113c0 .829.689 1.501 1.54 1.501h.01c.85 0 1.54-.672 1.54-1.501v-8.113c0-.83-.69-1.502-1.54-1.502zM34.68 17.854a11.453 11.453 0 00-6.31-2.926v10.706c5.92 1.22 8.41 3.384 8.41 7.099 0 4.027-3.46 6.825-8.33 7.02v3.725h-1.87v-3.764a15.491 15.491 0 01-9.22-4.056l1.28-1.482a13.007 13.007 0 008 3.832V27.194c-5.84-1.257-8.25-3.344-8.25-7.137 0-3.793 3.42-6.757 8.17-6.825v-2.253h1.87v2.282c2.8.22 5.453 1.31 7.57 3.11l-1.32 1.483zm-8 7.4V14.89c-3.78.078-6.27 2.282-6.27 5.012-.02 2.574 1.15 4.144 6.25 5.353h.02zm1.71 2.32v10.502c3.9-.078 6.43-2.272 6.43-5.158-.02-2.642-1.31-4.212-6.45-5.343h.02z" fill="#1C1C33"/></svg>