<svg width="124" height="124" fill="none" xmlns="http://www.w3.org/2000/svg"><g clip-path="url(#clip0)"><path d="M87.4 28.3c0 15.6-12.7 28.3-28.3 28.3-15.6 0-28.2-12.7-28.2-28.3C30.9 12.7 43.6 0 59.2 0c15.6 0 28.2 12.7 28.2 28.3z" fill="#F2A400"/><path d="M101.9 62.1H16.3c-.6 0-1 .4-1 1s.4 1 1 1h85.6c.6 0 1-.4 1-1s-.5-1-1-1zm.1 8.9H16.3c-.6 0-1 .4-1 1s.4 1 1 1H102c.6 0 1-.4 1-1s-.4-1-1-1zm-15.9 9.6H16.3c-.6 0-1 .4-1 1s.4 1 1 1h69.8c.6 0 1-.4 1-1s-.5-1-1-1z" fill="#1B1C33"/><path d="M111.1 30.5H85.3c0-13.1-10.6-23.7-23.7-23.7S37.9 17.4 37.9 30.5H12.1C5.4 30.6 0 36 0 42.6v49.7c0 6.7 5.4 12.1 12.1 12.1H18l-.2 17.7c-.1.6.4 1.1.9 1.2h.2c.3 0 .6-.1.9-.4l20.1-18.4h56.4c.6 0 1-.4 1-1s-.4-1-1-1H39.7c-.5 0-.5 0-1 .5l-19.1 17.5.2-16.8c0-.7-.2-1.2-.7-1.2h-5.6C5.9 102.7 2 97.2 2 90.9V44.2c-.4-7.6 5.2-11.5 11.6-11.5H38c1.2 13 12.7 22.6 25.7 21.5 11.4-1 20.5-10.1 21.5-21.5h24.5c6.3 0 11.7 3.6 11.6 11.5v46.7c0 6.4-3.7 11.6-11.6 11.6h-3.2c-.6 0-1 .4-1 1s.4 1 1 1h4.6c6.7 0 12.1-5.4 12.1-12.1V42.6c0-6.6-5.4-12-12.1-12.1zM61.6 52.3c-7.5 0-14.4-3.8-18.4-10.1 7.6-10.2 21.9-12.3 32.1-4.7 1.8 1.3 3.4 2.9 4.7 4.7-4 6.3-11 10.1-18.4 10.1zm-8.4-28.4c0-4.6 3.7-8.3 8.3-8.3 4.6 0 8.3 3.7 8.3 8.3 0 4.6-3.7 8.3-8.3 8.3-4.5 0-8.2-3.7-8.3-8.3zm27.7 16.7c-3.4-4.3-8.2-7.4-13.6-8.7 4.4-3.2 5.5-9.4 2.3-13.8s-9.4-5.5-13.8-2.3-5.5 9.4-2.3 13.8c.6.9 1.4 1.6 2.3 2.3-5.4 1.3-10.1 4.4-13.6 8.7-5.5-10.7-1.4-23.8 9.3-29.4 10.7-5.6 23.8-1.4 29.4 9.3 3.3 6.3 3.3 13.8 0 20.1z" fill="#1B1C33"/></g><defs><clipPath id="clip0"><path fill="#fff" d="M0 0h123.2v123.2H0z"/></clipPath></defs></svg>