<svg width="32" height="32" fill="none" xmlns="http://www.w3.org/2000/svg"><path d="M16.36 31.67c8.6 0 15.57-6.97 15.57-15.57C31.93 7.501 24.96.53 16.36.53 7.761.53.79 7.501.79 16.1c0 8.6 6.971 15.57 15.57 15.57z" fill="#fff"/><path fill-rule="evenodd" clip-rule="evenodd" d="M8.63 11l7.73-3.42L24.09 11v5.17a10.65 10.65 0 01-7.73 10.29 10.68 10.68 0 01-7.73-10.29V11zm2.58 6.87l3.44 3.45 6.87-6.87-1.21-1.23-5.66 5.66-2.23-2.21-1.21 1.2z" fill="url(#paint0_linear)"/><defs><linearGradient id="paint0_linear" x1="8.63" y1="17.02" x2="24.09" y2="17.02" gradientUnits="userSpaceOnUse"><stop stop-color="#5DC1D1"/><stop offset="1" stop-color="#28AAE1"/></linearGradient></defs></svg>