<svg xmlns="http://www.w3.org/2000/svg" xmlns:xlink="http://www.w3.org/1999/xlink" viewBox="0 0 154.63 153.79"><defs><linearGradient id="linear-gradient" x1="-1783.81" y1="-997.39" x2="-1782.81" y2="-997.39" gradientTransform="matrix(2815.15 0 .01 557.73 5019773.33 555251.99)" gradientUnits="userSpaceOnUse"><stop offset="0"/><stop offset=".17" stop-color="#030303"/><stop offset=".3" stop-color="#0d0d0d"/><stop offset=".42" stop-color="#1e1e1e"/><stop offset=".53" stop-color="#353535"/><stop offset=".64" stop-color="#535353"/><stop offset=".74" stop-color="#787878"/><stop offset=".84" stop-color="#a4a4a4"/><stop offset=".93" stop-color="#d6d6d6"/><stop offset="1" stop-color="#fff"/></linearGradient><linearGradient id="linear-gradient-2" x1="-1783.81" y1="-997.39" x2="-1782.81" y2="-997.39" gradientTransform="matrix(2811.12 0 .01 556.93 5012694.03 554536.35)" xlink:href="#linear-gradient"/><linearGradient id="Degradado_sin_nombre_8" x1="-3709.03" y1="-4934.22" x2="-3709.03" y2="-5491.93" gradientTransform="matrix(-.79 -.62 -3.13 3.96 -19713.58 17830.7)" gradientUnits="userSpaceOnUse"><stop offset="0" stop-color="#fff" stop-opacity="0"/><stop offset=".17" stop-color="#fff" stop-opacity=".01"/><stop offset=".3" stop-color="#fff" stop-opacity=".05"/><stop offset=".42" stop-color="#fff" stop-opacity=".12"/><stop offset=".53" stop-color="#fff" stop-opacity=".21"/><stop offset=".64" stop-color="#fff" stop-opacity=".33"/><stop offset=".74" stop-color="#fff" stop-opacity=".47"/><stop offset=".84" stop-color="#fff" stop-opacity=".64"/><stop offset=".93" stop-color="#fff" stop-opacity=".84"/><stop offset="1" stop-color="#fff"/></linearGradient><linearGradient id="Degradado_sin_nombre_8-2" x1="-3837.17" y1="-4933.84" x2="-3837.17" y2="-5490.75" xlink:href="#Degradado_sin_nombre_8"/><linearGradient id="linear-gradient-3" x1="-1783.81" y1="-997.39" x2="-1782.81" y2="-997.39" gradientTransform="matrix(2815.15 0 .01 557.73 5019773.19 555251.79)" gradientUnits="userSpaceOnUse"><stop offset="0" stop-color="#fff"/><stop offset="1" stop-color="#fff"/></linearGradient><linearGradient id="linear-gradient-4" x1="-1783.81" y1="-997.39" x2="-1782.81" y2="-997.39" gradientTransform="matrix(2811.12 0 .01 556.93 5012694.03 554536.35)" xlink:href="#linear-gradient-3"/><clipPath id="clip-path"><path class="cls-3" d="M-343.85 75.03h-722.19l3.1-616.73h722.19l-3.1 616.73z"/></clipPath><clipPath id="clip-path-2"><path class="cls-3" d="M-947.71-1023.47h603.83v445.76h-603.83z"/></clipPath><clipPath id="clip-path-3"><path class="cls-3" d="M-1412.04-2203.23h1798.6V164.95h-1798.6z"/></clipPath><clipPath id="clip-path-4"><path class="cls-3" d="M-1412.04 57.74l127.7 107.21L386.55-2096.02l-127.7-107.21L-1412.04 57.74z"/></clipPath><clipPath id="clip-path-5"><path class="cls-3" d="M-1263.76-2078.74H434.66V205.33h-1698.42z"/></clipPath><clipPath id="clip-path-6"><path class="cls-3" d="M-1263.76 182.22l27.52 23.11 1670.9-2260.96-27.53-23.11-1670.89 2260.96z"/></clipPath><mask id="mask" x="-2563.44" y="-3077.67" width="4101.38" height="4117.06" maskUnits="userSpaceOnUse"><path transform="rotate(-51.75 -512.72 -1019.128)" fill="url(#linear-gradient)" d="M-1999.38-2458.44H973.89V420.17h-2973.27z"/></mask><mask id="mask-2" x="-2374.27" y="-2904.49" width="3919.43" height="3935.56" maskUnits="userSpaceOnUse"><path transform="rotate(-51.75 -414.533 -936.69)" fill="url(#linear-gradient-2)" d="M-1837.16-2310.64h2845.21V437.23h-2845.21z"/></mask><style>.cls-3{fill:none}.cls-20{fill:#1c1c33}</style></defs><g style="isolation:isolate"><g id="Layer_1" data-name="Layer 1"><g clip-path="url(#clip-path)" opacity=".44"><path style="mix-blend-mode:screen" fill="url(#Degradado_sin_nombre_8)" opacity=".53" d="M-1408.91 539.51l127.7 107.21L389.68-1614.25l-127.7-107.21-1670.89 2260.97z"/><path style="mix-blend-mode:screen" fill="url(#Degradado_sin_nombre_8-2)" opacity=".53" d="M-1260.63 663.99l27.53 23.11L437.79-1573.86l-27.53-23.12-1670.89 2260.97z"/></g><g clip-path="url(#clip-path-2)"><g clip-path="url(#clip-path-3)"><g mask="url(#mask)" clip-path="url(#clip-path-4)"><path transform="rotate(-51.75 -512.72 -1019.128)" fill="url(#linear-gradient-3)" d="M-1999.38-2458.44H973.89V420.17h-2973.27z"/></g></g><g clip-path="url(#clip-path-5)"><g mask="url(#mask-2)" clip-path="url(#clip-path-6)"><path transform="rotate(-51.75 -414.533 -936.69)" fill="url(#linear-gradient-4)" d="M-1837.16-2310.64h2845.21V437.23h-2845.21z"/></g></g></g><path d="M136.12 117.06a28.26 28.26 0 11-28.26-28.27 28.27 28.27 0 0128.26 28.27" fill="#f2a400"/><path class="cls-20" d="M109.9 50.52h2.82v11.11a1.75 1.75 0 003.5 0V50.52H119a1.75 1.75 0 100-3.52h-2.81v-5a1.77 1.77 0 011.81-1.82h4.14a1.75 1.75 0 000-3.5H118a5.27 5.27 0 00-5.28 5.32v5h-2.82a1.75 1.75 0 000 3.49zm-74.16 4a5.25 5.25 0 10-5.24-5.24 5.25 5.25 0 005.24 5.27zm0-8.8a3.56 3.56 0 11-3.56 3.56 3.56 3.56 0 013.56-3.53zm7 15.8A5.26 5.26 0 0048 56.3v-14a5.26 5.26 0 00-5.25-5.25h-14a5.26 5.26 0 00-5.25 5.25v14a5.26 5.26 0 005.25 5.25zm-16.83-4.34V41.44a2 2 0 012-2h15.7a2 2 0 012 2v15.74a2 2 0 01-2 2H27.87a2 2 0 01-1.96-2zm22.7 31.3a2.8 2.8 0 00-2.93-.28 3.82 3.82 0 01-.74.26 3.62 3.62 0 01-.93.07 6.21 6.21 0 00-10.34 3.77 8.79 8.79 0 01-5.27-3 2.37 2.37 0 00-2.28-.76 2.33 2.33 0 00-1.75 1.62c-.59 2-1.83 8.12 3.34 12.2-1 .3-2.11.28-2.69 1.28a3 3 0 000 2.51c.42 1.08 1.49 1.86 3.21 2.31a14 14 0 003.53.41 16.57 16.57 0 0010.4-3.49 15 15 0 005-8.87 11 11 0 001.93-3.13 11.56 11.56 0 00.63-2.23 2.8 2.8 0 00-1.08-2.72zM45.71 95a2 2 0 00-.54 1 12.49 12.49 0 01-4.4 7.88 12.61 12.61 0 01-11.3 2.86 4.88 4.88 0 01-2.95-1.89 19.27 19.27 0 004-1.24c.6-.41 1-.48.92-1.2s0-.82-.65-1.11C24.54 99 26 94.14 26.34 91.18c2.58 2.1 5.09 3.88 8.48 3.78a2 2 0 002-2v-1.13s-.42-.59 0 0a2.64 2.64 0 01.82-2.26 4 4 0 015.06.43 2 2 0 001.12.65 3.57 3.57 0 003.64-.65 4.87 4.87 0 01-1.75 5zM84.2 75.12a1.75 1.75 0 00-2.4.58 4.16 4.16 0 01-1.31 1.3 1.57 1.57 0 01-1.67 0l-2.62-1.53a1.63 1.63 0 01-.75-1.54A4.09 4.09 0 0176 72.2a1.75 1.75 0 00-3-1.82 7.63 7.63 0 00-1 3.22 5.1 5.1 0 002.41 4.82L77 80.05a5.17 5.17 0 002.63.73 5.05 5.05 0 002.76-.78 7.79 7.79 0 002.4-2.45 1.75 1.75 0 00-.59-2.43zm42.08 20.68L114 88.72a2.45 2.45 0 00-3.64 2.1V105a2.45 2.45 0 003.64 2.1l12.28-7.1a2.45 2.45 0 000-4.2zm-13.75 9.49V90.52l12.79 7.38zm-34.7-46a15.85 15.85 0 00-14.59 20.92l-1.86 5.3a2.68 2.68 0 003.42 3.42l3.69-1.3a15.83 15.83 0 0025.59-12.41 15.83 15.83 0 00-16.25-15.89zm.84 29.51a13.7 13.7 0 01-8.84-2.93 3.79 3.79 0 00-2.34-.82 3.53 3.53 0 00-1.24.22l-2.39.83 1.46-4.1a3.78 3.78 0 000-2.44 13.69 13.69 0 0112.6-18.08A13.7 13.7 0 0192 75.21a13.78 13.78 0 01-13.3 13.63z"/><circle class="cls-20" cx="77.12" cy="20.69" r="1.84"/><path class="cls-20" d="M116.93 74.49c-.69 0-1.37 0-2 .1v-3q1 .09 2 .09a22.37 22.37 0 100-44.73c-.69 0-1.37 0-2 .1v-1.63a12 12 0 00-12-12H51.36a12 12 0 00-12 12v1.82a22.77 22.77 0 00-3.62-.3 22.22 22.22 0 00-13.82 4.79 1.08 1.08 0 00-.06 1.66 1.06 1.06 0 001.39 0A20.3 20.3 0 1118 39.62a1.07 1.07 0 00-.21-1.33 1.09 1.09 0 00-1.67.29A22.34 22.34 0 0030.24 71a22 22 0 009.12.41v3.38a22.34 22.34 0 00-6.74-.07 22.36 22.36 0 003.12 44.51 21.66 21.66 0 003.62-.3v1.85a12 12 0 0012 12h51.53a12 12 0 0012-12v-1.62q1 .09 2 .09a22.37 22.37 0 100-44.73zm0-45.4a20.22 20.22 0 11-20.22 20.22 20.22 20.22 0 0120.22-20.22zm-4 42.22v3.55a22 22 0 00-5 1.56v-6.67a22.45 22.45 0 004.98 1.56zM46.39 27.2v2.44a22.13 22.13 0 00-5-2v-.77c0-8.08 5.17-11.48 11.48-11.48h48.6c6.32 0 11.49 4 11.49 11.48v.43a22 22 0 00-5 1.56V27.2a6.69 6.69 0 00-6.67-6.67h-3.4a2.21 2.21 0 00-2.2 2.21V23a3.73 3.73 0 01-3.72 3.72l-29.8-.23a3.73 3.73 0 01-3.72-3.72 2.2 2.2 0 00-2.2-2.19h-3.1a6.69 6.69 0 00-6.76 6.62zM41.34 71a22.13 22.13 0 005-2v8.18a22.1 22.1 0 00-5-2zm-5.6 46.09A20.23 20.23 0 1156 96.83a20.22 20.22 0 01-20.26 20.23zm77.17 2.23c0 6.31-3.85 11.48-11.49 11.48h-48.6c-7.13 0-11.48-4.61-11.48-11.48v-.8a22.57 22.57 0 005-2V119a6.69 6.69 0 006.67 6.67h48.13a6.69 6.69 0 006.67-6.67v-1.7a21.93 21.93 0 005 1.55zm2.65-2.26a20.33 20.33 0 01-18.45-16.26 19.82 19.82 0 01.49-9.8 1.08 1.08 0 00-.48-1.27 1.09 1.09 0 00-1.58.63 22.36 22.36 0 0010.12 25.83v1.7a5.6 5.6 0 01-5.58 5.58H54.16a5.6 5.6 0 01-5.58-5.58v-2.73a22.34 22.34 0 000-36.61V67.61a22.34 22.34 0 000-36.61v-2.7c0-3.07 1.35-5.58 5.58-5.58h2c0 2.49 2 6 5.35 6l31.3.28A5.56 5.56 0 0098 23.6v-.88h2c3.07 0 5.58.85 5.58 5.58V30a22.37 22.37 0 000 38.63v8.92a22.6 22.6 0 00-5.83 4.92 1.08 1.08 0 101.65 1.39A20.21 20.21 0 11115.56 117z"/></g></g></svg>