<svg width="133" height="137" fill="none" xmlns="http://www.w3.org/2000/svg"><path d="M127.2 105.7c0 15.6-12.7 28.3-28.3 28.3-15.6 0-28.3-12.7-28.3-28.3 0-15.6 12.7-28.3 28.3-28.3 15.6.1 28.3 12.7 28.3 28.3z" fill="#F2A400"/><path d="M101 39.2h2.8v11.1c0 1 .8 1.8 1.8 1.8s1.8-.8 1.8-1.8V39.2h2.8c1 0 1.8-.8 1.8-1.8s-.8-1.8-1.8-1.8h-2.8v-5.1c0-1 .8-1.8 1.8-1.8h4.1c1 0 1.8-.8 1.8-1.8s-.8-1.7-1.8-1.7H109c-2.9 0-5.3 2.4-5.3 5.3v5.1H101c-1 0-1.8.8-1.8 1.8s.8 1.8 1.8 1.8zm-74.2 4c2.9 0 5.3-2.3 5.3-5.2 0-2.9-2.3-5.3-5.2-5.3-2.9 0-5.3 2.3-5.3 5.2-.1 2.9 2.3 5.3 5.2 5.3zm0-8.8c2 0 3.6 1.6 3.6 3.6s-1.6 3.6-3.6 3.6-3.6-1.6-3.6-3.6 1.6-3.6 3.6-3.6zm7 15.8c2.9 0 5.2-2.4 5.2-5.2V31c0-2.9-2.3-5.2-5.2-5.2h-14c-2.9 0-5.2 2.3-5.2 5.2v14c0 2.9 2.3 5.2 5.2 5.2h14zM17 45.8V30.1c0-1.1.9-2 2-2h15.7c1.1 0 2 .9 2 2v15.8c0 1.1-.9 2-2 2H18.9c-1.1-.1-1.9-1-1.9-2.1zm22.7 31.3c-.9-.6-2-.7-2.9-.3-.2.1-.5.2-.7.3-.3.1-.6.1-.9.1-1-.9-2.4-1.5-3.8-1.6-1.6-.1-3.3.4-4.5 1.5-1.1 1-1.9 2.4-2.1 3.9-2.1-.3-3.9-1.4-5.3-2.9-.8-1-2.3-1.1-3.3-.2-.3.3-.6.7-.7 1.1-.6 2-1.8 8.1 3.3 12.2-1 .3-2.1.3-2.7 1.3-.4.8-.4 1.7 0 2.5.4 1.1 1.5 1.9 3.2 2.3 1.2.3 2.3.4 3.5.4 3.8 0 7.4-1.2 10.4-3.5 2.6-2.3 4.4-5.4 5-8.9 1.3-1.5 2.2-3.4 2.5-5.4.2-1.1-.2-2.1-1-2.8zm-2.9 6.5c-.3.3-.5.7-.5 1.1-.4 3.1-2 5.9-4.4 7.9-3.1 2.7-7.3 3.8-11.3 2.9-1.2-.2-2.3-.9-3-1.9 1.4-.3 2.7-.7 4-1.2.6-.4 1-.5.9-1.2-.1-.7 0-.8-.6-1.1-6.2-2.3-4.7-7.2-4.4-10.1 2.6 2.1 5.1 3.9 8.5 3.8 1.1 0 1.9-.9 1.9-2v-1.1c-.1-.8.2-1.7.8-2.3.8-.5 1.7-.8 2.6-.7.9.1 1.8.5 2.5 1.1.3.3.7.6 1.1.7 1.2.5 2.6.2 3.6-.6.5 1.6-.2 3.6-1.7 4.7zm38.4-19.8c-.8-.5-1.9-.2-2.4.6-.3.5-.8 1-1.3 1.3-.5.3-1.2.3-1.7 0l-2.6-1.6c-.5-.3-.8-.9-.7-1.5.1-.6.2-1.2.6-1.7.5-.8.2-1.9-.6-2.4s-1.9-.2-2.4.6c-.6 1-1 2.1-1.1 3.2-.2 1.9.8 3.8 2.4 4.8l2.6 1.6c.8.5 1.7.7 2.6.7 1 0 1.9-.3 2.8-.8 1-.6 1.8-1.5 2.4-2.4.5-.8.3-1.9-.6-2.4.1 0 .1 0 0 0zm42.1 20.7L105 77.4c-1.2-.7-2.7-.2-3.3.9-.2.4-.3.8-.3 1.2v14.2c0 1.3 1.1 2.4 2.5 2.4.4 0 .8-.1 1.2-.3l12.3-7.1c1.2-.7 1.5-2.2.8-3.4-.2-.3-.5-.6-.9-.8zM103.6 94V79.2l12.8 7.4-12.8 7.4zM68.9 48c-8.2.3-14.8 6.7-15.4 14.9-.1 2 .1 4.1.8 6l-1.9 5.3c-.5 1.4.2 2.9 1.6 3.4.6.2 1.2.2 1.8 0l3.7-1.3c6.9 5.4 16.8 4.2 22.2-2.7 5.4-6.9 4.2-16.8-2.7-22.2-2.9-2.3-6.5-3.5-10.1-3.4zm.8 29.5c-3.2.1-6.3-.9-8.8-2.9-1-.8-2.4-1-3.6-.6l-2.4.8 1.5-4.1c.3-.8.3-1.6 0-2.4-2.4-7.2 1.4-14.9 8.5-17.4 7.2-2.4 14.9 1.4 17.4 8.5.5 1.4.7 2.9.7 4.5-.1 7.3-5.9 13.3-13.3 13.6zm-1.5-66.3a1.8 1.8 0 100-3.6 1.8 1.8 0 000 3.6z" fill="#fff"/><path d="M108 63.2c-.7 0-1.4 0-2 .1v-3c.7.1 1.4.1 2 .1 12.4-.3 22.2-10.5 21.9-22.8-.3-12-9.9-21.6-21.9-21.9-.7 0-1.4 0-2 .1v-1.6c0-6.6-5.4-12-12-12H42.4c-6.6 0-12 5.4-12 12V16c-1.2-.2-2.4-.3-3.6-.3-5 0-9.9 1.7-13.8 4.8-.5.4-.6 1-.2 1.5 0 .1.1.1.2.2.4.3 1 .3 1.4 0 8.8-6.9 21.6-5.4 28.5 3.4 6.9 8.8 5.4 21.4-3.4 28.4S17.9 59.4 11 50.6c-5-6.4-5.8-15.2-1.9-22.3.2-.4.2-1-.2-1.3-.4-.4-1.1-.4-1.5.1-.1.1-.1.1-.1.2-2.1 3.8-3 8.2-2.7 12.5.8 9.5 7.5 17.5 16.8 19.9 3 .8 6.1.9 9.1.4v3.4c-2.2-.4-4.5-.4-6.7-.1C11.4 64.8 2.6 75.8 3.9 88.1c1.3 12.3 12.4 21.1 24.7 19.8l1.8-.3v1.8c0 6.6 5.4 12 12 12h51.5c6.6 0 12-5.4 12-12v-1.6c.7.1 1.4.1 2 .1 12.4-.3 22.2-10.5 21.9-22.8-.2-12-9.9-21.7-21.8-21.9zm0-45.4c11.2 0 20.2 9.1 20.2 20.2s-9.1 20.2-20.2 20.2c-11.2 0-20.2-9.1-20.2-20.2 0-11.2 9-20.2 20.2-20.2zM104 60v3.5c-1.7.3-3.4.8-5 1.6v-6.7c1.6.7 3.2 1.3 5 1.6zM37.4 15.9v2.4c-1.6-.9-3.3-1.5-5-2v-.8C32.4 7.4 37.5 4 43.9 4h48.6C98.8 4 104 8 104 15.5v.5c-1.7.3-3.4.8-5 1.6v-1.7c0-3.7-3-6.7-6.7-6.7h-3.4c-1.2 0-2.2 1-2.2 2.2v.2c0 2.1-1.7 3.7-3.7 3.7l-29.8-.2c-2 0-3.7-1.7-3.7-3.7 0-1.2-1-2.2-2.2-2.2h-3.1c-3.8 0-6.8 3-6.8 6.7zm-5 43.7c1.7-.5 3.4-1.1 5-2v8.2c-1.6-.9-3.3-1.5-5-2v-4.2zm-5.6 46.1c-11.2 0-20.2-9-20.2-20.2s9-20.2 20.2-20.2S47 74.3 47 85.5s-9 20.2-20.2 20.2zM104 108c0 6.3-3.8 11.5-11.5 11.5H43.9c-7.1 0-11.5-4.6-11.5-11.5v-.8c1.7-.5 3.4-1.1 5-2v2.5c0 3.7 3 6.7 6.7 6.7h48.2c3.7 0 6.7-3 6.7-6.7V106c1.6.7 3.3 1.2 5 1.6v.4zm2.7-2.3c-9.1-.7-16.7-7.3-18.5-16.2-.7-3.3-.5-6.6.5-9.8.2-.5 0-1-.5-1.3-.5-.3-1.2-.1-1.5.4 0 .1-.1.1-.1.2-3 9.9 1.2 20.6 10.1 25.8v1.7c0 3.1-2.5 5.5-5.6 5.6H45.2c-3.1 0-5.6-2.5-5.6-5.6v-2.7c10.1-7.1 12.6-21 5.5-31.1-1.5-2.1-3.3-4-5.5-5.5V56.3c10.1-7.1 12.6-21 5.5-31.1-1.5-2.1-3.3-4-5.5-5.5V17c0-3.1 1.3-5.6 5.6-5.6h2c0 2.5 2 6 5.3 6l31.3.3c2.9-.2 5.2-2.5 5.2-5.4v-.9h2c3.1 0 5.6.9 5.6 5.6v1.7c-10.6 6.2-14.2 19.9-8 30.5 1.9 3.3 4.7 6.1 8.1 8.1v8.9c-2.2 1.3-4.2 2.9-5.8 4.9-.4.4-.4 1.1 0 1.5.4.4 1.1.4 1.5 0 .1 0 .1-.1.1-.2 7.2-8.5 19.9-9.6 28.5-2.5 8.6 7.1 9.6 19.9 2.5 28.5-4.2 5-10.4 7.7-16.8 7.3z" fill="#fff"/></svg>