<svg width="24" height="23" fill="none" xmlns="http://www.w3.org/2000/svg"><path d="M24 8.913c0-.358-.27-.58-.808-.667l-7.24-1.058L12.707.594C12.524.198 12.289 0 12 0c-.288 0-.524.198-.707.594L8.048 7.188.808 8.246c-.539.087-.808.31-.808.667 0 .203.12.435.36.696l5.25 5.13-1.24 7.246a2.395 2.395 0 00-.028.29c0 .203.05.375.15.515.102.14.253.21.455.21.173 0 .366-.058.577-.174L12 19.406l6.476 3.42c.203.116.395.174.577.174.193 0 .34-.07.44-.21.1-.14.151-.312.151-.515a2.19 2.19 0 00-.014-.29l-1.24-7.246 5.235-5.13c.25-.252.375-.484.375-.696z" fill="#F2A400"/><mask id="mask0" maskUnits="userSpaceOnUse" x="0" y="0" width="24" height="23"><path d="M24 8.913c0-.358-.27-.58-.808-.667l-7.24-1.058L12.707.594C12.524.198 12.289 0 12 0c-.288 0-.524.198-.707.594L8.048 7.188.808 8.246c-.539.087-.808.31-.808.667 0 .203.12.435.36.696l5.25 5.13-1.24 7.246a2.395 2.395 0 00-.028.29c0 .203.05.375.15.515.102.14.253.21.455.21.173 0 .366-.058.577-.174L12 19.406l6.476 3.42c.203.116.395.174.577.174.193 0 .34-.07.44-.21.1-.14.151-.312.151-.515a2.19 2.19 0 00-.014-.29l-1.24-7.246 5.235-5.13c.25-.252.375-.484.375-.696z" fill="#fff"/></mask></svg>