<svg width="103" height="130" fill="none" xmlns="http://www.w3.org/2000/svg"><path d="M97.72 100.53a28.259 28.259 0 11-28.26-28.26 28.27 28.27 0 0128.26 28.26z" fill="#F2A400"/><path d="M47.85 115.74H11.79c-5.56 0-9.39-4.78-9.39-10.38L2.22 11.6A9.21 9.21 0 0111.73 2h40.82v19.35a7.69 7.69 0 007.66 7.67h20.23L80.4 76h2.08V27L55.14 0H10.79A10.79 10.79 0 000 10.79v96.54a10.789 10.789 0 0010.79 10.78h37.06v-2.37zM54.48 2.46l25 24.59H60.83a6.36 6.36 0 01-6.35-6.34V2.46z" fill="#1B1C33"/><path d="M41.29 28.19H11.82a.99.99 0 000 1.98h29.47a.99.99 0 000-1.98zm28.02 10.39H11.82a.99.99 0 100 1.98h57.49a.99.99 0 000-1.98zm.01 9.48H11.83a.99.99 0 100 1.98h57.49a.99.99 0 000-1.98zm-17.07 64.02a4.36 4.36 0 01-3.09-7.44l2.54-2.54a4.363 4.363 0 016.11.049 4.363 4.363 0 01.06 6.111l-2.54 2.54a4.362 4.362 0 01-3.08 1.28zm2.54-9.4c-.663 0-1.3.262-1.77.73L50.48 106a2.5 2.5 0 003.52 3.49l2.56-2.49a2.5 2.5 0 000-3.53 2.509 2.509 0 00-1.77-.73v-.06zm11.12 24.87a4.363 4.363 0 01-4.033-2.694 4.36 4.36 0 01.953-4.756l1.05-1a4.378 4.378 0 013.085-1.278 4.367 4.367 0 014.03 2.694 4.358 4.358 0 01-.945 4.754l-1.05 1a4.34 4.34 0 01-3.08 1.28h-.01zm1-7.91a2.451 2.451 0 00-1.77.73l-1 1a2.494 2.494 0 00-.543 2.721c.126.303.31.578.543.809a2.54 2.54 0 003.53 0l1.06-1a2.51 2.51 0 000-3.54 2.458 2.458 0 00-1.73-.72h-.09z" fill="#1B1C33"/><path d="M54.9 119.13a4.369 4.369 0 01-4.027-6.033 4.32 4.32 0 01.947-1.407l4-4a4.368 4.368 0 016.17 0 4.369 4.369 0 010 6.17l-4 4a4.368 4.368 0 01-3.09 1.27zm4-10.88a2.451 2.451 0 00-1.77.73l-4 4a2.495 2.495 0 00-.544 2.728c.127.304.311.58.544.812a2.56 2.56 0 003.53 0l4-4a2.494 2.494 0 00.735-1.77 2.496 2.496 0 00-.735-1.77 2.468 2.468 0 00-1.74-.73h-.02z" fill="#1B1C33"/><path d="M60.06 123.7a4.356 4.356 0 01-4.006-2.701A4.362 4.362 0 0157 116.26l2.71-2.72a4.363 4.363 0 016.11.049 4.362 4.362 0 01.06 6.111l-2.72 2.71a4.323 4.323 0 01-3.08 1.28l-.02.01zm2.72-9.57a2.498 2.498 0 00-1.77.73l-2.72 2.71a2.52 2.52 0 000 3.54 2.57 2.57 0 003.54 0l2.72-2.72a2.5 2.5 0 000-3.53 2.509 2.509 0 00-1.77-.73zm-13.72-7.07a.919.919 0 01-.87-.61 6 6 0 01-.34-2.89c.17-.94-1-2.39-1.58-3a.94.94 0 01-.08-1.27l11.56-14.04a.92.92 0 011.25-.16l1.3 1a3.75 3.75 0 002.92.65l.37-.07a5.3 5.3 0 012.44-.11.933.933 0 01-.45 1.81 3.87 3.87 0 00-1.62.13l-.39.07a5.61 5.61 0 01-4.38-1l-.58-.43-10.46 12.75c.73.87 1.82 2.45 1.53 4a4.36 4.36 0 00.25 1.9.928.928 0 01-.87 1.26v.01z" fill="#1B1C33"/><path d="M45.41 101.93a2.332 2.332 0 01-1.39-.47L38.18 97a2.28 2.28 0 01-.41-3.2L50 78.73a2.29 2.29 0 013.17-.39l5.84 4.52a2.27 2.27 0 01.46 3.14l-12.26 15a2.294 2.294 0 01-1.78.85l-.02.08zm6.41-22.19a.39.39 0 00-.33.15l-12.25 15a.43.43 0 00-.08.29.42.42 0 00.16.28l5.84 4.54a.405.405 0 00.45.035.39.39 0 00.12-.105L58 84.9a.38.38 0 00.07-.29.392.392 0 00-.15-.28l-5.85-4.51a.332.332 0 00-.25-.08zm42.89 21.79h-.14a2.218 2.218 0 01-1.58-.78l-13.93-16a2.27 2.27 0 01.2-3.18l5.49-4.94a2.26 2.26 0 013.23.2l13.94 16a2.28 2.28 0 01-.2 3.19L96.23 101c-.418.372-.96.576-1.52.57v-.04zM86.27 77.9a.43.43 0 00-.27.1l-5.5 4.94a.42.42 0 000 .58l13.94 16a.42.42 0 00.44.12.41.41 0 00.14-.08l5.5-4.94a.418.418 0 000-.58l-13.93-16a.35.35 0 00-.28-.14h-.04zm-9.57 48.77a4.519 4.519 0 01-3-1.15l-4.09-3.74a.941.941 0 01-.303-.648.935.935 0 011.563-.732l4.13 3.74a2.651 2.651 0 003.44 0 2.596 2.596 0 00.87-1.89 2.53 2.53 0 00-.78-1.93l-8.92-8.68a.929.929 0 01.642-1.586.934.934 0 01.658.256l8 7.79a2.848 2.848 0 003.83.08 2.72 2.72 0 00.27-3.83l-.07-.09a.401.401 0 00-.1-.12.933.933 0 111.32-1.32c.105.11.202.226.29.35a4.65 4.65 0 01-3.46 7.64 4.449 4.449 0 01-4.23 5.88l-.06-.02z" fill="#1B1C33"/><path d="M70.77 129.49a3.749 3.749 0 01-2.63-1l-1.54-1.41a.931.931 0 01.6-1.564.93.93 0 01.65.194l1.56 1.42a2.088 2.088 0 002.76-.05 2.004 2.004 0 00.62-1.5 2.002 2.002 0 00-.7-1.48l-.27-.24-2.19-2.09a.929.929 0 01.51-1.641.927.927 0 01.68.211l.09.09 2.42 2.28a3.863 3.863 0 011.315 2.66 3.872 3.872 0 01-.955 2.81 2.134 2.134 0 01-.2.22 3.788 3.788 0 01-2.72 1.1v-.01zm-10.11-29.6a3.55 3.55 0 01-3.55-3.56 3.659 3.659 0 01.34-1.52c2.26-4.82 4.71-6.28 7.53-8l.36-.22a16.65 16.65 0 017.55-2.27l4.67-.28 1.61-.92a.93.93 0 01.93 1.61l-1.8 1a.93.93 0 01-.4.12l-4.89.3a14.69 14.69 0 00-6.71 2l-.35.21c-2.68 1.6-4.79 2.87-6.81 7.18a1.69 1.69 0 00.44 2A1.77 1.77 0 0062 97.4l4.45-4.77a4.3 4.3 0 013-1.56 4.35 4.35 0 013.28 1.14.933.933 0 11-1.21 1.42 2.5 2.5 0 00-3.54.14l-.11.12-4.47 4.8a3.661 3.661 0 01-2.74 1.2z" fill="#1B1C33"/><path d="M86.94 116.32a4.757 4.757 0 01-3.18-1.23l-.76-.69-7-6.61a.934.934 0 011.28-1.36l7.72 7.21c.076.061.14.136.19.22a2.88 2.88 0 003.62-.12 2.775 2.775 0 00.91-2 2.743 2.743 0 00-.78-2l-2.14-2-15.09-13.93A.942.942 0 0173 92.44l17.27 15.94a4.617 4.617 0 011.35 3.37 4.715 4.715 0 01-1.5 3.36 4.632 4.632 0 01-3.15 1.21h-.03z" fill="#1B1C33"/><path d="M87.06 107.64a.935.935 0 01-.856-.554.93.93 0 01.166-1.006l6.3-6.94a.931.931 0 011.38 1.25l-6.3 6.94a.902.902 0 01-.69.31z" fill="#1B1C33"/></svg>