<svg width="123" height="107" fill="none" xmlns="http://www.w3.org/2000/svg"><g clip-path="url(#clip0)"><path d="M94.47 65.18a28.26 28.26 0 11-56.52 0 28.26 28.26 0 0156.52 0z" fill="#F2A400"/><path d="M110.65 0H12A12 12 0 000 12v82.29a11.999 11.999 0 0012 12h98.65c3.183 0 6.235-1.264 8.485-3.515a11.996 11.996 0 003.515-8.485V12a11.998 11.998 0 00-12-12zm9.83 93c0 7.35-5.1 11.34-11.33 11.34H13.67c-6.24 0-11.34-4.12-11.34-11.86V13.29C2.33 5.68 7 2 13.67 2h95.48c6.23 0 11.33 4 11.33 11.34V93z" fill="#fff"/><path d="M61.32 34.1a29.11 29.11 0 100 58.221 29.11 29.11 0 000-58.22zm25.16 19.84H73.35c-1.18-7.72-3.8-13.93-7.14-17a26.749 26.749 0 0120.27 17zM72 63.21a66.13 66.13 0 01-.4 7.32H51.25a65.545 65.545 0 010-14.64h20.32a66.12 66.12 0 01.43 7.32zM61.41 89.93c-4.55 0-8.42-7.26-9.91-17.46h19.82c-1.49 10.2-5.32 17.46-9.91 17.46zm-9.91-36c1.5-10.18 5.36-17.44 9.9-17.45 4.55 0 8.42 7.27 9.91 17.46l-19.81-.01zm5.1-17c-3.34 3.09-6 9.3-7.14 17H36.33A26.75 26.75 0 0156.6 36.92v.01zm-20.9 19h13.5a62.513 62.513 0 000 14.64H35.7a26.78 26.78 0 010-14.64zm.63 16.58h13.13c1.19 7.72 3.8 13.93 7.14 17a26.78 26.78 0 01-20.27-17.04v.04zm29.88 17c3.34-3.1 6-9.31 7.14-17h13.13A26.78 26.78 0 0166.21 89.5v.01zm20.9-19H73.62c.56-4.864.56-9.776 0-14.64h13.49a26.53 26.53 0 010 14.64zm35.24-46.75H.27v1.95h122.08v-1.95zM8.48 13.22a8.19 8.19 0 008.17 8.18h45A8.2 8.2 0 0061.62 5h-45a8.19 8.19 0 00-8.14 8.22zm59.1.09c0 4.22-4.11 6.2-6.52 6.2H17.22c-2.42 0-6.52-1.71-6.52-6.2s4.3-6.39 6.67-6.39h43.84a6.23 6.23 0 016.37 6.39zm16.31-8.46a8.37 8.37 0 100 16.74 8.37 8.37 0 000-16.74zm0 14.85a6.49 6.49 0 116.48-6.48 6.48 6.48 0 01-6.48 6.48zm20.44-14.85a8.37 8.37 0 108.37 8.37 8.369 8.369 0 00-2.449-5.921 8.353 8.353 0 00-5.921-2.449zm0 14.85a6.492 6.492 0 01-6.365-7.76 6.49 6.49 0 0112.855 1.28 6.485 6.485 0 01-1.902 4.586 6.472 6.472 0 01-4.588 1.894z" fill="#fff"/></g><defs><clipPath id="clip0"><path fill="#fff" d="M0 0h122.65v106.29H0z"/></clipPath></defs></svg>