<svg width="60" height="62" xmlns="http://www.w3.org/2000/svg"><g fill="#FFF" fill-rule="evenodd"><path d="M10.497 56.036c.733 0 1.154.406 1.204 1.125l.005.148v2.637c0 .81-.427 1.274-1.209 1.274-.734 0-1.155-.407-1.205-1.126l-.005-.148v-2.637c0-.81.427-1.273 1.21-1.273Zm19.38 0c.733 0 1.136.406 1.183 1.125l.005.148v.492h-.754v-.542c0-.362-.159-.5-.413-.5-.224 0-.375.109-.406.387l-.006.113v2.737c0 .362.16.492.412.492.226 0 .377-.102.407-.38l.006-.112v-.724h.754v.674c0 .81-.406 1.274-1.188 1.274-.733 0-1.136-.407-1.183-1.126l-.005-.148v-2.637c0-.81.406-1.274 1.188-1.274Zm24.828 0c.733 0 1.136.406 1.184 1.125l.004.148v.492h-.753v-.542c0-.362-.16-.5-.413-.5-.225 0-.376.109-.407.387l-.006.113v2.737c0 .362.16.492.413.492.225 0 .376-.102.407-.38l.006-.112v-.724h.753v.674c0 .81-.407 1.274-1.188 1.274-.733 0-1.135-.407-1.182-1.126l-.005-.148v-2.637c0-.81.405-1.274 1.187-1.274Zm-38.927.058v.723h-1.31v1.528h1.027v.724h-1.028v2.094h-.797v-5.069h2.108Zm6.579 0v.723H20.98v1.412h1.093v.724H20.98v1.485h1.376v.725h-2.174v-5.069h2.174Zm2.644 0 .602 1.868.616-1.868h.738l-.833 2.461.89 2.607h-.84l-.652-2.006-.658 2.006h-.746l.89-2.607-.833-2.461h.826Zm10.172 0v.723h-1.376v1.412h1.093v.724h-1.093v1.485h1.376v.725H33v-5.069h2.173Zm2.74 0v4.344h1.31v.724h-2.108v-5.068h.797Zm3.904 0v4.344h1.31v.724h-2.106v-5.068h.796Zm5.28 0v.723h-1.375v1.412h1.093v.724h-1.093v1.485h1.375v.725h-2.172v-5.069h2.172Zm2.936 0 .818 3.033v-3.033h.71v5.069h-.819l-.992-3.672v3.672h-.716v-5.069h.999Zm9.967 0v.723h-1.375v1.412h1.093v.724h-1.093v1.485H60v.724h-2.172v-5.068H60Zm-49.503.665c-.225 0-.377.109-.408.388l-.006.112v2.737c0 .362.16.5.414.5.225 0 .376-.109.406-.387l.006-.113V57.26c0-.362-.16-.5-.412-.5Zm22.457-21.83c10.178 0 19.312 4.463 25.55 11.554-6.603-5.279-14.91-8.428-23.933-8.428-14.654 0-27.411 8.294-34.04 20.553C4.91 44.865 17.765 34.93 32.955 34.93ZM11.254.008c3.921 0 6.79 1.148 8.605 3.442 1.815 2.295 2.727 5.375 2.727 9.25 0 2.53-.425 4.81-1.258 6.845a27.655 27.655 0 0 1-3.151 5.666 48.773 48.773 0 0 1-4.094 4.911 85.853 85.853 0 0 0-4.086 4.589 27.577 27.577 0 0 0-3.19 4.762 11.443 11.443 0 0 0-1.29 5.344v.518a36.082 36.082 0 0 0-3.827 5.36H0v-4.298c0-2.68.417-5.045 1.25-7.097.841-2.059 1.886-3.936 3.16-5.635a48.794 48.794 0 0 1 4.086-4.801 67.552 67.552 0 0 0 4.086-4.629 24.168 24.168 0 0 0 3.151-5.083c.84-1.816 1.257-3.898 1.257-6.24 0-2.586-.455-4.542-1.36-5.878-.91-1.335-2.42-2.012-4.518-2.012-2.058 0-3.552.677-4.487 2.012-.928 1.336-1.39 3.127-1.39 5.376v4.447H0V12.77c0-3.874.904-6.971 2.72-9.29C4.535 1.164 7.38.008 11.254.008ZM45.784 0v5.021H31.01l-.786 15.418c1.626-2.774 4.11-4.157 7.457-4.157 3.254 0 5.62 1.085 7.096 3.262 1.485 2.176 2.225 5.052 2.225 8.636v7.512a34.573 34.573 0 0 0-5.596-1.862v-5.218c0-2.295-.471-4.078-1.43-5.344-.96-1.265-2.436-1.902-4.447-1.902-1.525 0-2.799.449-3.796 1.329-1.006.888-1.627 2.239-1.871 4.055v1.147h-5.233L25.996 0h19.788ZM56.06 17.846v3.026h2.964v2.646H56.06v3.028h-2.774v-3.028h-2.9v-2.646h2.9v-3.026h2.774Z"/><path d="m10.75 51.784-.995-2.97h.875l.561 1.899h.015l.561-1.9h.8l-.994 2.971v2.202h-.823v-2.202Zm3.688-2.97h2.244v.739H15.26v1.367h1.13v.739h-1.13v1.588h1.42v.74h-2.243v-5.173Zm4.847 0H20.4l.852 5.172h-.822l-.15-1.027v.015h-.935l-.15 1.012h-.763l.853-5.172Zm.898 3.458-.367-2.557h-.015l-.359 2.557h.74Zm2.962-3.458h1.22c.423 0 .732.097.927.292.194.194.291.494.291.898v.317c0 .537-.179.877-.538 1.02v.015c.2.059.34.18.423.362.082.182.123.426.123.731v.91c0 .147.005.266.015.357a.89.89 0 0 0 .075.27h-.838a1.173 1.173 0 0 1-.06-.236 3.514 3.514 0 0 1-.015-.4v-.945c0-.237-.039-.402-.116-.495-.077-.094-.21-.14-.4-.14h-.284v2.216h-.823v-5.172Zm1.122 2.217c.165 0 .288-.042.37-.126.083-.084.124-.224.124-.421v-.4c0-.186-.034-.322-.101-.406-.068-.083-.174-.125-.318-.125h-.374v1.478h.299Zm4.458 3.029c-.399 0-.7-.112-.905-.336-.204-.224-.307-.546-.307-.964v-.296h.778v.355c0 .335.143.502.427.502.14 0 .245-.04.318-.122.072-.081.108-.213.108-.395 0-.217-.05-.408-.15-.573-.1-.165-.284-.363-.553-.595-.34-.295-.576-.562-.71-.801a1.619 1.619 0 0 1-.203-.81c0-.408.105-.725.315-.949.209-.224.513-.336.912-.336.394 0 .692.112.894.336.202.224.303.546.303.964v.215h-.778v-.266c0-.178-.035-.307-.105-.388-.07-.081-.172-.122-.306-.122-.275 0-.412.165-.412.495 0 .187.051.362.154.525.102.162.288.36.557.59.344.296.58.565.71.806.13.241.195.525.195.85 0 .423-.106.749-.318.975-.212.227-.52.34-.924.34Z" fill-rule="nonzero"/></g></svg>