<svg width="290" height="46" xmlns="http://www.w3.org/2000/svg" xmlns:xlink="http://www.w3.org/1999/xlink"><defs><path id="a" d="M0 45.058h290V0H0z"/></defs><g fill="none" fill-rule="evenodd"><path d="M218.01 5.528c-.025-.433-.052-1.027-.461-1.667-.685-1.096-1.986-1.279-2.765-1.279-4.017 0-4.816 3.748-4.816 6.282 0 1.119.158 3.13 1.367 4.43.826.914 1.92 1.417 3.883 1.417 1.715 0 2.309-.207 2.698-.32v-3.472h-3.2V8.18h6.74v8.244c-1.03.345-2.717.914-6.031.914-3.77 0-5.708-.914-7.014-2.193-1.848-1.803-2.19-4.432-2.19-6.166 0-5.85 3.654-8.978 8.657-8.978 2.124 0 4.314.594 5.62 2.08 1.093 1.256 1.165 2.556 1.185 3.448h-3.674m12.941-.367c4.177 0 5.985 2.833 5.985 6.055 0 3.243-1.875 6.164-6.053 6.164-3.29 0-5.894-2.03-5.894-6.075 0-2.784 1.417-6.144 5.963-6.144m.047 9.87c1.483 0 2.485-.892 2.485-3.952 0-1.533-.295-3.657-2.532-3.657-2.466 0-2.493 2.856-2.493 3.908 0 2.579.87 3.7 2.54 3.7" fill="#040302"/><mask id="b" fill="#fff"><use xlink:href="#a"/></mask><path fill="#040302" mask="url(#b)" d="M240.38 16.972h3.377V.458h-3.378zM255.267.482h3.407V15.1c0 .688.04 1.441.09 1.873h-3.428l-.091-1.666c-.227.412-.453.845-1.16 1.301-.848.55-1.742.594-2.242.594-3.082 0-4.913-2.124-4.913-5.733 0-3.814 2.08-6.19 5.097-6.19 2.077 0 2.944 1.164 3.24 1.575V.483m-2.58 14.525c.984 0 1.782-.594 2.15-1.301.499-.96.546-2.148.546-2.717 0-2.262-.983-3.496-2.515-3.496-2.26 0-2.511 2.717-2.511 3.883 0 1.919.64 3.631 2.33 3.631"/><path fill="#EC2225" mask="url(#b)" d="M0 44.494h195.551V.45H0z"/><path d="M84.762 25.713h11.306l-5.97-9.599-10.955 17.367-4.985.008L87.48 12.614a3.203 3.203 0 0 1 2.62-1.365c1.037 0 2.002.512 2.552 1.34l13.395 20.9-5.017-.008-2.33-3.885H87.255l-2.493-3.883Zm51.794 3.895V11.476h-4.22v19.908c0 .54.201 1.062.608 1.462a2.24 2.24 0 0 0 1.555.635h19.278l2.508-3.873h-19.73ZM66.57 26.366c4.126 0 7.437-3.348 7.437-7.445 0-4.102-3.31-7.445-7.437-7.445H48.063V33.48h4.223V15.378h14.001a3.55 3.55 0 0 1 3.555 3.543 3.553 3.553 0 0 1-3.555 3.545H54.366l12.623 11.015h6.16l-8.506-7.115h1.928ZM22.02 33.48c-6.075 0-11.005-4.93-11.005-11.015 0-6.065 4.93-10.99 11.005-10.99h12.796c6.075 0 10.983 4.925 10.983 10.99 0 6.085-4.908 11.023-10.983 11.023L22.02 33.48Zm12.493-3.873c3.93 0 7.132-3.195 7.132-7.142 0-3.91-3.202-7.088-7.132-7.088h-12.21c-3.924 0-7.122 3.178-7.122 7.088 0 3.947 3.198 7.142 7.122 7.142h12.21Zm80.343 3.873c-6.076 0-10.986-4.93-10.986-11.015 0-6.065 4.91-10.99 10.986-10.99h15.196l-2.496 3.902h-12.412c-3.937 0-7.122 3.178-7.122 7.088 0 3.947 3.185 7.142 7.122 7.142h15.267l-2.498 3.873h-13.057Zm51.749-3.873c-3.254 0-5.997-2.198-6.844-5.184h18.088l2.481-3.877h-20.587a7.12 7.12 0 0 1 6.862-5.17h12.434l2.478-3.901H166.31c-6.065 0-10.983 4.925-10.983 10.99 0 6.085 4.918 11.015 10.983 11.015h13.058l2.483-3.873h-15.245Zm17.268-15.369a2.283 2.283 0 0 1 2.282-2.274 2.29 2.29 0 0 1 2.28 2.274c0 1.297-1.024 2.313-2.28 2.313-1.27 0-2.282-1.016-2.282-2.313Zm2.282 2.926a2.908 2.908 0 0 0 2.898-2.893 2.902 2.902 0 0 0-2.898-2.907 2.883 2.883 0 0 0-2.902 2.907 2.889 2.889 0 0 0 2.902 2.893Zm-.279-4.616c.464 0 .638 0 .836.075.59.203.652.724.652.91 0 .034-.014.15-.034.266a.88.88 0 0 1-.395.564c-.038.017-.064.044-.15.081l.753 1.34h-.739l-.644-1.25h-.476v1.25h-.605v-3.236h.802Zm.23 1.468c.2 0 .408-.023.531-.217a.458.458 0 0 0 .075-.28c0-.172-.092-.331-.23-.38-.142-.073-.295-.073-.606-.073h-.197v.95h.428Z" fill="#FFF" mask="url(#b)"/><path d="M206.839 28.155h5.09c2.379 0 4.367.158 5.74 1.804.867 1.05 1.002 2.239 1.002 3.084 0 1.917-.798 3.54-2.101 4.388-1.21.776-2.878.776-3.745.776h-2.4v6.42h-3.586V28.155Zm3.49 7.423h1.422c1.141 0 3.264 0 3.264-2.513 0-2.237-1.894-2.237-2.897-2.237h-1.788v4.75Zm17.393 9.046c-.11-.708-.11-1.232-.11-1.577-1.28 1.853-2.817 1.853-3.447 1.853-1.676 0-2.424-.48-2.883-.914-.687-.688-1.008-1.624-1.008-2.538 0-.914.32-2.604 2.447-3.584 1.416-.641 3.449-.641 4.567-.641 0-.756-.022-1.12-.157-1.53-.296-.845-1.193-.96-1.508-.96-.483 0-.983.206-1.281.64-.252.386-.252.754-.252 1.027h-3.308c.017-.616.09-1.85 1.298-2.717 1.05-.757 2.4-.937 3.496-.937.964 0 2.971.16 4.112 1.483.778.937.8 2.309.8 2.836l.025 4.635c0 .982.067 1.965.271 2.924h-3.062m-4.159-3.562c0 .775.527 1.645 1.644 1.645.623 0 1.126-.298 1.44-.663.597-.731.641-1.623.641-2.857-2.17-.18-3.725.502-3.725 1.875m10.405-5.139c0-.55-.091-2.218-.16-2.88h3.175l.067 2.214c.436-.98 1.185-2.374 3.932-2.239v3.04c-3.427-.32-3.636 1.44-3.636 2.88v5.689h-3.378v-8.704m17.5 8.543a10.527 10.527 0 0 1-2.626.365c-3.405 0-3.405-2.146-3.405-3.11v-6.326h-2.214v-2.237h2.214v-2.262l3.358-1.234v3.496h2.74v2.237h-2.74v5.21c.025 1.052.025 1.713 1.533 1.713.5 0 .731-.023 1.14-.07v2.218m3.066-9.322c0-.047 0-1.3-.072-2.101h3.242l.096 1.737c.321-.528 1.235-2.01 3.748-2.01 2.259 0 3.22 1.37 3.515 2.17.252.707.32 1.3.32 3.447v6.24h-3.451v-7.174c0-.483 0-.892-.177-1.26-.254-.5-.776-.98-1.647-.98-.728 0-1.396.343-1.758.892-.21.296-.414.865-.414 1.76v6.762h-3.402v-9.483m17.548 4.568c0 .756 0 3.084 2.35 3.084.848 0 1.693-.32 2.013-1.598h3.083c-.047.549-.158 1.53-1.097 2.513-.845.892-2.352 1.347-4.04 1.347-.983 0-2.858-.183-4.07-1.439-1.05-1.096-1.483-2.65-1.483-4.5 0-1.873.455-4.113 2.4-5.46a5.78 5.78 0 0 1 3.244-.961c1.643 0 3.607.64 4.656 2.789.779 1.574.732 3.266.687 4.225h-7.743Zm4.294-2.123c0-.528-.044-2.583-2.01-2.583-1.485 0-2.101 1.232-2.168 2.583h4.178Zm6.607-1.666c0-.55-.088-2.218-.157-2.88h3.173l.067 2.214c.435-.98 1.19-2.374 3.934-2.239v3.04c-3.43-.32-3.636 1.44-3.636 2.88v5.689h-3.38v-8.704" fill="#040302" mask="url(#b)"/></g></svg>