<svg width="24" height="24" xmlns="http://www.w3.org/2000/svg"><g fill="none" fill-rule="evenodd"><path d="M0 0h24v24H0z"/><path d="M5.127 10.045v-.172A6.873 6.873 0 0 1 12 3h0a6.873 6.873 0 0 1 6.873 6.873v.172c0 3.461-4.382 8.671-6.148 10.631a.973.973 0 0 1-1.45 0c-1.766-1.96-6.148-7.17-6.148-10.631Z" stroke="#FFF" stroke-width="1.447" stroke-linecap="round" stroke-linejoin="round"/><path d="M10 9.955a2 2 0 0 0 2 2h0a2 2 0 0 0 2-2v-.037a2 2 0 0 0-2-2h0a2 2 0 0 0-2 2" stroke="#FFF" stroke-width="1.447" stroke-linecap="round" stroke-linejoin="round"/></g></svg>