<svg width="31" height="30" xmlns="http://www.w3.org/2000/svg"><g fill="none" fill-rule="evenodd"><path d="M.784 0h30v30h-30z"/><path d="M6.991 13.045v-.217c0-4.8 3.937-8.69 8.793-8.69h0c4.857 0 8.794 3.89 8.794 8.69v.217c0 4.376-5.607 10.964-7.866 13.442a1.255 1.255 0 0 1-1.855 0c-2.26-2.478-7.866-9.066-7.866-13.442Z" stroke="#CE2D15" stroke-width="1.447" stroke-linecap="round" stroke-linejoin="round"/><path d="M13.198 12.955c0 1.416 1.158 2.562 2.586 2.562h0c1.43 0 2.587-1.146 2.587-2.562v-.048c0-1.415-1.158-2.562-2.587-2.562h0c-1.428 0-2.586 1.147-2.586 2.562" stroke="#CE2D15" stroke-width="1.447" stroke-linecap="round" stroke-linejoin="round"/></g></svg>