<svg width="30" height="30" xmlns="http://www.w3.org/2000/svg"><g fill="none" fill-rule="evenodd"><path d="M9.375 3.75H20.63a5.62 5.62 0 0 1 5.62 5.62v11.261a5.62 5.62 0 0 1-5.62 5.619H9.37a5.62 5.62 0 0 1-5.62-5.62V9.375A5.625 5.625 0 0 1 9.375 3.75h0Zm.775 10.125v6.75" stroke="#CE2D15" stroke-width="1.5" stroke-linecap="round" stroke-linejoin="round"/><path d="M14.649 20.625v-3.938a2.812 2.812 0 0 1 2.812-2.812h0a2.812 2.812 0 0 1 2.813 2.813v3.937M10.147 9.797a.282.282 0 1 0 .003.562.282.282 0 0 0-.003-.562" stroke-linecap="round" stroke-linejoin="round" stroke="#CE2D15" stroke-width="1.5"/><path d="M0 30V0h30v30z"/></g></svg>