<svg width="77" height="69" xmlns="http://www.w3.org/2000/svg"><g stroke="#FFF" stroke-width="3" fill="none" fill-rule="evenodd"><path d="M43.367 60h24.282C72.245 53.937 75 46.423 75 38.25 75 18.23 58.658 2 38.5 2S2 18.23 2 38.25C2 46.423 4.757 53.937 9.351 60h19.416"/><path d="M14.922 51A26.692 26.692 0 0 1 12 38.812C12 24.03 23.889 12 38.5 12 53.114 12 65 24.03 65 38.813c0 4.285-1 8.426-2.922 12.187" stroke-dasharray="2,3.35"/><path d="M43 59.5a7.5 7.5 0 1 1-15 0 7.501 7.501 0 0 1 15 0ZM38 52l10-29"/></g></svg>