<svg width="66" height="69" xmlns="http://www.w3.org/2000/svg"><g stroke="#FFF" stroke-width="3" fill="none" fill-rule="evenodd"><path d="m33 24 3.399 6.584L44 31.64l-5.5 5.124L39.798 44 33 40.583 26.202 44l1.298-7.236L22 31.64l7.601-1.056z"/><path d="M38.819 4.379a8.32 8.32 0 0 0 6.994 2.297c4.47-.64 8.637 2.418 9.415 6.911a8.447 8.447 0 0 0 4.323 6.01c3.988 2.141 5.58 7.09 3.598 11.19a8.517 8.517 0 0 0 0 7.427v.002c1.981 4.097.39 9.046-3.598 11.186a8.451 8.451 0 0 0-4.323 6.008c-.778 4.494-4.944 7.556-9.415 6.917a8.311 8.311 0 0 0-6.994 2.294 8.307 8.307 0 0 1-11.639 0 8.309 8.309 0 0 0-6.992-2.294c-4.47.639-8.639-2.423-9.417-6.916a8.451 8.451 0 0 0-4.323-6.009C2.46 47.262.87 42.313 2.852 38.216v-.002a8.531 8.531 0 0 0 0-7.428C.87 26.687 2.46 21.738 6.448 19.598a8.447 8.447 0 0 0 4.323-6.01c.778-4.494 4.947-7.551 9.417-6.912a8.317 8.317 0 0 0 6.992-2.297 8.307 8.307 0 0 1 11.639 0Z"/><path d="M11.558 34.5c0 11.964 9.602 21.666 21.442 21.666S54.442 46.464 54.442 34.5c0-11.965-9.602-21.667-21.442-21.667S11.558 22.535 11.558 34.5Z" stroke-dasharray="34,2,2,2,2,2"/></g></svg>