<svg width="65" height="65" xmlns="http://www.w3.org/2000/svg" xmlns:xlink="http://www.w3.org/1999/xlink"><defs><path id="a" d="M0 65h65V0H0z"/></defs><g fill="none" fill-rule="evenodd"><path d="M38.41 38.41v23.635H2.954V2.955h35.454v7.878" stroke="#FFF" stroke-width="3" stroke-dasharray="64,2,2,2,2,2"/><path stroke="#FFF" stroke-width="3" d="M2.955 46.288h35.454m-19.697 7.879h3.94"/><mask id="b" fill="#fff"><use xlink:href="#a"/></mask><path stroke="#FFF" stroke-width="3" mask="url(#b)" d="M10.833 38.41h51.212V10.832H10.833z"/><path d="M40.379 18.712h-4.924a2.956 2.956 0 0 0 0 5.91 2.956 2.956 0 0 1 0 5.908H30.53m-9.848-19.697a9.847 9.847 0 0 1-9.849 9.849m41.364-9.849a9.847 9.847 0 0 0 9.848 9.849M20.682 38.41a9.847 9.847 0 0 0-9.849-9.85m41.364 9.85a9.847 9.847 0 0 1 9.848-9.85" stroke="#FFF" stroke-width="3" mask="url(#b)"/></g></svg>