<svg width="51" height="44" xmlns="http://www.w3.org/2000/svg"><path d="M13.183 43.978c-3.774 0-6.767-1.385-8.978-4.156C1.995 37.052.89 33.44.89 28.985c0-6.084 1.645-11.597 4.934-16.54 3.289-4.944 8.33-9.1 15.125-12.467l1.78 2.607c-3.236 1.956-6.175 4.7-8.817 8.23-2.642 3.53-3.963 7.089-3.963 10.674 0 .978.27 1.766.809 2.363.539.598 1.348.896 2.426.896 2.696 0 4.988.951 6.875 2.852 1.887 1.901 2.831 4.21 2.831 6.926s-.944 4.97-2.83 6.763c-1.888 1.793-4.18 2.689-6.876 2.689Zm28 0c-3.774 0-6.767-1.385-8.978-4.156-2.21-2.77-3.316-6.382-3.316-10.837 0-6.084 1.645-11.597 4.934-16.54 3.289-4.944 8.33-9.1 15.125-12.467l1.78 2.607c-3.236 1.956-6.175 4.7-8.817 8.23-2.642 3.53-3.963 7.089-3.963 10.674 0 .978.27 1.766.809 2.363.539.598 1.348.896 2.426.896 2.696 0 4.988.951 6.875 2.852 1.887 1.901 2.831 4.21 2.831 6.926s-.944 4.97-2.83 6.763c-1.888 1.793-4.18 2.689-6.876 2.689Z" fill="#CE2D15"/></svg>