<svg width="70" height="69" xmlns="http://www.w3.org/2000/svg"><g stroke="#FFF" stroke-width="3" fill="none" fill-rule="evenodd"><path d="M34.273 61.682a5.317 5.317 0 0 0-5.318-5.318 5.317 5.317 0 0 0-5.319 5.318A5.317 5.317 0 0 0 28.955 67a5.317 5.317 0 0 0 5.318-5.318Zm26 0a5.317 5.317 0 0 0-5.318-5.318 5.317 5.317 0 0 0-5.319 5.318A5.317 5.317 0 0 0 54.955 67a5.317 5.317 0 0 0 5.318-5.318Z"/><path d="M69.727 48.09H19.611L8.716 6.728H0" stroke-dasharray="2,2,2,2,500,2"/><path d="M34.851 15h-14.76l6.264 23.636h41.009V32.19M34.273 22.091v10.636"/><path d="M41.364 15c0-7.178 5.821-13 13-13 7.178 0 13 5.822 13 13s-5.822 13-13 13c-7.179 0-13-5.822-13-13Z"/><path d="m47.273 15.59 4.333 4.137 8.667-8.272"/></g></svg>