<svg width="68" height="68" xmlns="http://www.w3.org/2000/svg"><g stroke="#FFF" stroke-width="3" fill="none" fill-rule="evenodd"><path d="M11.363 24.216c12.485-12.484 32.724-12.484 45.21 0"/><path d="M17.393 30.233c9.138-9.141 24.013-9.141 33.152 0M23.42 36.264c5.816-5.816 15.28-5.816 21.096 0M40.36 46.82a6.393 6.393 0 1 1-12.785 0 6.393 6.393 0 0 1 12.786 0Z"/><path d="M51.016 2.066h10.656a4.262 4.262 0 0 1 4.262 4.262v55.41A4.262 4.262 0 0 1 61.672 66H6.262A4.264 4.264 0 0 1 2 61.738V6.328a4.264 4.264 0 0 1 4.262-4.262h23.443m4.262 0h4.263m4.262 0h4.262"/></g></svg>