<svg width="35" height="28" xmlns="http://www.w3.org/2000/svg"><path d="M34.571 3.297a14.08 14.08 0 0 1-4.04 1.108 7.053 7.053 0 0 0 3.093-3.89 14.108 14.108 0 0 1-4.467 1.706A7.026 7.026 0 0 0 24.023 0a7.033 7.033 0 0 0-7.034 7.033c0 .55.062 1.087.182 1.602-5.846-.293-11.029-3.094-14.498-7.348a7.003 7.003 0 0 0-.953 3.536 7.03 7.03 0 0 0 3.129 5.853 7 7 0 0 1-3.185-.88l-.001.09a7.037 7.037 0 0 0 5.643 6.895 7.049 7.049 0 0 1-3.177.12 7.04 7.04 0 0 0 6.571 4.884 14.115 14.115 0 0 1-8.736 3.01c-.568 0-1.128-.033-1.678-.097a19.917 19.917 0 0 0 10.783 3.16c12.938 0 20.013-10.717 20.013-20.01 0-.306-.007-.609-.02-.91a14.264 14.264 0 0 0 3.51-3.64" fill="#FFF" fill-rule="evenodd"/></svg>