<svg width="75.000000" height="75.000000" viewBox="0 0 75 75" fill="none" xmlns="http://www.w3.org/2000/svg" xmlns:xlink="http://www.w3.org/1999/xlink">
	<desc>
			Created with Pixso.
	</desc>
	<defs>
		<clipPath id="clip7_237">
			<rect id="Decades of Clinical and Operational Experience Icon" rx="0.000000" width="74.000000" height="74.000000" transform="translate(0.500000 0.500000)" fill="white" fill-opacity="0"/>
		</clipPath>
	</defs>
	<rect id="Decades of Clinical and Operational Experience Icon" rx="0.000000" width="74.000000" height="74.000000" transform="translate(0.500000 0.500000)" fill="#FFFFFF" fill-opacity="0"/>
	<g clip-path="url(#clip7_237)">
		<path id="Vector" d="M2.19 40.04L22.38 40.04L52.71 40.04L52.71 40.04L72.75 40.04C73.38 40.04 73.98 39.77 74.4 39.3C74.81 38.83 75.01 38.21 74.94 37.58L74.5 33.83C74.36 32.64 74.1 31.52 73.72 30.51C72.05 26.02 68.23 22.72 63.7 21.6C66.56 20.29 68.56 17.41 68.56 14.06C68.56 9.5 64.85 5.78 60.29 5.78C55.72 5.78 52.01 9.5 52.01 14.06C52.01 17.4 54 20.28 56.85 21.59C54.68 22.12 52.67 23.15 50.97 24.62C49.89 23.22 48.59 21.99 47.1 20.98C45.31 19.76 43.33 18.9 41.25 18.44C44.7 16.98 47.14 13.56 47.14 9.59C47.14 4.3 42.83 0 37.55 0C32.26 0 27.95 4.3 27.95 9.59C27.95 13.56 30.39 16.98 33.84 18.44C31.76 18.9 29.78 19.76 27.99 20.98C26.48 22.01 25.16 23.26 24.07 24.69C22.35 23.19 20.3 22.13 18.09 21.59C20.95 20.28 22.94 17.4 22.94 14.06C22.94 9.5 19.22 5.78 14.66 5.78C10.1 5.78 6.38 9.5 6.38 14.06C6.38 17.41 8.38 20.29 11.25 21.6C6.72 22.72 2.9 26.02 1.23 30.51C0.85 31.52 0.59 32.64 0.45 33.83L0.01 37.58C-0.06 38.21 0.13 38.83 0.55 39.3C0.97 39.77 1.57 40.04 2.19 40.04ZM60.29 10.18C62.43 10.18 64.17 11.92 64.17 14.06C64.17 16.2 62.43 17.94 60.29 17.94C58.15 17.94 56.4 16.2 56.4 14.06C56.4 11.92 58.15 10.18 60.29 10.18ZM60.29 25.57C64.42 25.57 68.16 28.17 69.6 32.04C69.85 32.73 70.03 33.5 70.13 34.34L70.28 35.64L54.66 35.64L54.36 33C54.18 31.46 53.82 30 53.29 28.67C53.27 28.62 53.24 28.57 53.22 28.52C55.08 26.63 57.59 25.57 60.29 25.57ZM37.55 4.39C40.41 4.39 42.74 6.72 42.74 9.59C42.74 12.45 40.41 14.78 37.55 14.78C34.68 14.78 32.35 12.45 32.35 9.59C32.35 6.72 34.68 4.39 37.55 4.39ZM37.55 22.42C42.71 22.42 47.29 25.52 49.21 30.3C49.59 31.27 49.86 32.35 49.99 33.51L50.24 35.64L24.85 35.64L25.1 33.51C25.23 32.35 25.5 31.27 25.88 30.31C27.8 25.52 32.38 22.42 37.55 22.42ZM14.66 10.18C16.8 10.18 18.54 11.92 18.54 14.06C18.54 16.2 16.8 17.94 14.66 17.94C12.52 17.94 10.78 16.2 10.78 14.06C10.78 11.92 12.52 10.18 14.66 10.18ZM4.81 34.34C4.91 33.5 5.09 32.73 5.35 32.04C6.79 28.17 10.53 25.57 14.66 25.57C17.4 25.57 19.96 26.67 21.82 28.62C21.82 28.64 21.81 28.65 21.8 28.67C21.27 30 20.91 31.46 20.73 33L20.43 35.64L4.66 35.64L4.81 34.34Z" fill="#FFFFFF" fill-opacity="1.000000" fill-rule="nonzero"/>
		<path id="Vector" d="M74.87 53.69C74.61 52.89 73.92 52.31 73.09 52.19L66.9 51.29L64.12 45.68C63.75 44.93 62.99 44.45 62.15 44.45C61.32 44.45 60.55 44.93 60.18 45.68L57.41 51.29L51.22 52.19C50.65 52.28 50.14 52.58 49.8 53.02C49.46 52.58 48.95 52.28 48.38 52.19L42.19 51.29L39.42 45.68C39.05 44.93 38.28 44.45 37.45 44.45C36.61 44.45 35.85 44.93 35.48 45.68L32.7 51.29L26.51 52.19C25.96 52.27 25.47 52.56 25.13 52.97C24.79 52.56 24.3 52.27 23.75 52.19L17.56 51.29L14.79 45.68C14.42 44.93 13.65 44.45 12.82 44.45C11.98 44.45 11.22 44.93 10.85 45.68L8.08 51.29L1.88 52.19C1.05 52.31 0.36 52.89 0.11 53.69C-0.15 54.48 0.06 55.36 0.66 55.94L5.15 60.31L4.09 66.48C3.95 67.31 4.28 68.14 4.96 68.63C5.34 68.91 5.8 69.05 6.25 69.05C6.6 69.05 6.95 68.97 7.28 68.8L12.82 65.89L18.36 68.8C19.1 69.19 20 69.12 20.67 68.63C21.35 68.14 21.69 67.31 21.55 66.48L20.49 60.31L24.97 55.94C25.03 55.89 25.08 55.83 25.13 55.77C25.18 55.83 25.23 55.89 25.29 55.94L29.77 60.31L28.72 66.48C28.57 67.31 28.91 68.14 29.59 68.63C30.27 69.12 31.16 69.19 31.9 68.8L37.45 65.89L42.99 68.8C43.31 68.97 43.66 69.05 44.01 69.05C44.47 69.05 44.92 68.91 45.3 68.63C45.98 68.14 46.32 67.31 46.18 66.48L45.12 60.31L49.6 55.94C49.67 55.87 49.74 55.8 49.8 55.72C49.86 55.8 49.93 55.87 50 55.94L54.48 60.31L53.42 66.48C53.28 67.31 53.62 68.14 54.3 68.63C54.97 69.12 55.87 69.19 56.61 68.8L62.15 65.89L67.7 68.8C68.02 68.97 68.37 69.05 68.72 69.05C69.17 69.05 69.63 68.91 70.01 68.63C70.69 68.14 71.03 67.31 70.88 66.48L69.83 60.31L74.31 55.94C74.91 55.36 75.12 54.48 74.87 53.69ZM16.59 57.97C16.08 58.48 15.84 59.2 15.96 59.92L16.46 62.84L13.84 61.46C13.2 61.12 12.43 61.12 11.79 61.46L9.17 62.84L9.67 59.92C9.79 59.2 9.56 58.48 9.04 57.97L6.92 55.9L9.85 55.48C10.57 55.37 11.19 54.92 11.51 54.27L12.82 51.62L14.13 54.27C14.45 54.92 15.07 55.37 15.78 55.48L18.72 55.9L16.59 57.97ZM41.22 57.97C40.71 58.48 40.47 59.2 40.59 59.92L41.09 62.84L38.47 61.46C38.15 61.29 37.8 61.21 37.45 61.21C37.09 61.21 36.74 61.29 36.42 61.46L33.8 62.84L34.3 59.92C34.42 59.2 34.19 58.48 33.67 57.97L31.55 55.9L34.48 55.48C35.2 55.37 35.81 54.92 36.13 54.27L37.45 51.62L38.76 54.27C39.08 54.92 39.7 55.37 40.41 55.48L43.35 55.9L41.22 57.97ZM65.93 57.97C65.41 58.48 65.18 59.2 65.3 59.92L65.8 62.84L63.18 61.46C62.86 61.29 62.51 61.21 62.15 61.21C61.8 61.21 61.45 61.29 61.13 61.46L58.51 62.84L59.01 59.92C59.13 59.2 58.9 58.48 58.38 57.97L56.25 55.9L59.19 55.48C59.9 55.37 60.52 54.92 60.84 54.27L62.15 51.62L63.47 54.27C63.79 54.92 64.41 55.37 65.12 55.48L68.05 55.9L65.93 57.97Z" fill="#FFFFFF" fill-opacity="1.000000" fill-rule="nonzero"/>
	</g>
</svg>
