<svg width="75.000000" height="75.000000" viewBox="0 0 75 75" fill="none" xmlns="http://www.w3.org/2000/svg" xmlns:xlink="http://www.w3.org/1999/xlink">
	<desc>
			Created with Pixso.
	</desc>
	<defs>
		<clipPath id="clip7_226">
			<rect id="Established, Profitable Business Icon" rx="0.000000" width="74.000000" height="74.000000" transform="translate(0.500000 0.500000)" fill="white" fill-opacity="0"/>
		</clipPath>
	</defs>
	<rect id="Established, Profitable Business Icon" rx="0.000000" width="74.000000" height="74.000000" transform="translate(0.500000 0.500000)" fill="#FFFFFF" fill-opacity="0"/>
	<g clip-path="url(#clip7_226)">
		<path id="Vector" d="M73.61 19.57L57.6 0.77C57.18 0.28 56.57 0 55.92 0C55.28 0 54.67 0.28 54.25 0.77L38.24 19.57C37.68 20.22 37.56 21.13 37.92 21.91C38.28 22.69 39.05 23.19 39.91 23.19L44.3 23.19L44.3 36.52L38.02 36.52L38.02 29.83C38.02 28.62 37.03 27.63 35.82 27.63L22 27.63C20.78 27.63 19.8 28.62 19.8 29.83L19.8 36.52L3.06 36.52C1.84 36.52 0.86 37.5 0.86 38.72L0.86 72.77C0.86 73.98 1.84 74.97 3.06 74.97L64.74 75C65.95 74.99 66.93 74.01 66.93 72.8L66.93 23.19L71.93 23.19C72.79 23.19 73.57 22.69 73.93 21.91C74.29 21.13 74.16 20.22 73.61 19.57ZM24.19 32.03L33.62 32.03L33.62 36.52L24.19 36.52L24.19 32.03ZM52.3 40.91L52.3 50.92L45.17 50.92L45.17 47.76C45.17 46.54 44.18 45.56 42.97 45.56C41.75 45.56 40.77 46.54 40.77 47.76L40.77 50.92L16.73 50.92L16.73 47.76C16.73 46.54 15.74 45.56 14.53 45.56C13.32 45.56 12.33 46.54 12.33 47.76L12.33 50.92L5.25 50.92L5.25 40.91L52.3 40.91ZM5.25 55.31L12.33 55.31L12.33 57.46C12.33 58.67 13.32 59.66 14.53 59.66C15.74 59.66 16.73 58.67 16.73 57.46L16.73 55.31L26.55 55.31L26.55 57.46C26.55 58.67 27.54 59.66 28.75 59.66C29.96 59.66 30.95 58.67 30.95 57.46L30.95 55.31L40.77 55.31L40.77 57.46C40.77 58.67 41.75 59.66 42.97 59.66C44.18 59.66 45.17 58.67 45.17 57.46L45.17 55.31L52.3 55.31L52.3 70.57L5.25 70.57L5.25 55.31ZM64.74 18.79C63.52 18.79 62.54 19.78 62.54 20.99L62.54 70.6L56.7 70.62L56.7 38.72C56.7 37.5 55.71 36.52 54.5 36.52L48.7 36.52L48.7 20.99C48.7 19.78 47.71 18.79 46.5 18.79L44.67 18.79L55.92 5.58L67.18 18.79L64.74 18.79L64.74 18.79Z" fill="#FFFFFF" fill-opacity="1.000000" fill-rule="nonzero"/>
	</g>
</svg>
