<svg width="75.000000" height="75.000000" viewBox="0 0 75 75" fill="none" xmlns="http://www.w3.org/2000/svg" xmlns:xlink="http://www.w3.org/1999/xlink">
	<desc>
			Created with Pixso.
	</desc>
	<defs>
		<clipPath id="clip7_229">
			<rect id="High Penetration Icon" rx="0.000000" width="74.000000" height="74.000000" transform="translate(0.500000 0.500000)" fill="white" fill-opacity="0"/>
		</clipPath>
	</defs>
	<rect id="High Penetration Icon" rx="0.000000" width="74.000000" height="74.000000" transform="translate(0.500000 0.500000)" fill="#FFFFFF" fill-opacity="0"/>
	<g clip-path="url(#clip7_229)">
		<path id="Vector" d="M63.8 26.2C64.85 24.1 65.03 21.72 64.3 19.49C63.58 17.26 62.03 15.43 59.96 14.35C58.71 13.7 57.83 12.49 57.6 11.11C57.22 8.79 55.96 6.76 54.06 5.38C52.17 4 49.85 3.44 47.53 3.78C46.14 3.99 44.72 3.53 43.72 2.54C42.05 0.9 39.84 0 37.5 0C35.15 0 32.94 0.9 31.27 2.54C30.27 3.53 28.85 3.99 27.46 3.78C25.14 3.44 22.82 4 20.93 5.38C19.03 6.76 17.77 8.79 17.39 11.11C17.16 12.49 16.28 13.7 15.03 14.35C12.96 15.43 11.41 17.26 10.69 19.49C9.96 21.72 10.14 24.1 11.19 26.2C11.81 27.45 11.81 28.95 11.19 30.21C10.14 32.3 9.96 34.69 10.69 36.92C11.41 39.15 12.96 40.97 15.03 42.05C16.28 42.7 17.16 43.91 17.39 45.3C17.65 46.84 18.3 48.27 19.26 49.45L12.01 65.02C11.14 66.75 13.07 68.78 14.84 67.99L23.72 64.35L26.65 73.49C27.18 75.36 29.97 75.54 30.73 73.75L37.5 59.22L44.26 73.75C45.02 75.54 47.81 75.36 48.34 73.49L51.27 64.35L60.15 67.99C61.92 68.78 63.85 66.75 62.98 65.02L55.73 49.45C56.69 48.27 57.34 46.85 57.6 45.3C57.83 43.91 58.71 42.7 59.96 42.05C62.03 40.97 63.58 39.15 64.3 36.92C65.03 34.69 64.85 32.3 63.8 30.21C63.18 28.95 63.18 27.45 63.8 26.2ZM29.12 66.8L27.17 60.74C26.82 59.55 25.39 58.88 24.25 59.38L18.37 61.79L22.88 52.1C24.32 52.67 25.89 52.86 27.46 52.62C28.85 52.41 30.27 52.88 31.27 53.86C32.14 54.71 33.15 55.36 34.24 55.79L29.12 66.8ZM50.74 59.38C49.6 58.88 48.17 59.55 47.82 60.74L45.87 66.8L40.75 55.79C41.84 55.36 42.85 54.71 43.72 53.86C44.72 52.88 46.14 52.41 47.53 52.62C49.1 52.86 50.67 52.67 52.11 52.1L56.63 61.79L50.74 59.38ZM57.93 38.16C55.47 39.44 53.73 41.84 53.27 44.57C52.87 46.97 50.58 48.63 48.18 48.27C45.44 47.86 42.62 48.78 40.64 50.72C38.91 52.43 36.08 52.43 34.35 50.72C32.68 49.09 30.42 48.18 28.11 48.18C27.68 48.18 27.24 48.21 26.81 48.27C24.4 48.63 22.12 46.97 21.72 44.57C21.26 41.84 19.52 39.44 17.06 38.16C14.9 37.03 14.03 34.35 15.12 32.17C16.36 29.68 16.36 26.72 15.12 24.24C14.03 22.06 14.9 19.37 17.06 18.25C19.52 16.97 21.26 14.57 21.72 11.83C22.12 9.43 24.41 7.77 26.81 8.13C29.55 8.54 32.37 7.63 34.35 5.68C36.08 3.97 38.91 3.97 40.64 5.68C42.62 7.62 45.44 8.54 48.18 8.13C50.59 7.77 52.87 9.43 53.27 11.83C53.73 14.57 55.47 16.97 57.93 18.25C60.09 19.37 60.96 22.06 59.87 24.24C58.63 26.72 58.63 29.68 59.87 32.17C60.96 34.35 60.09 37.03 57.93 38.16Z" fill="#FFFFFF" fill-opacity="1.000000" fill-rule="nonzero"/>
		<path id="Vector" d="M40.31 24.55L36.15 28.72L34.36 26.93C33.5 26.07 32.11 26.07 31.25 26.93C30.39 27.79 30.39 29.18 31.25 30.04L34.59 33.38C35.41 34.23 36.88 34.23 37.7 33.38L43.42 27.66C44.27 26.8 44.27 25.41 43.42 24.55C42.56 23.69 41.17 23.69 40.31 24.55Z" fill="#FFFFFF" fill-opacity="1.000000" fill-rule="nonzero"/>
		<path id="Vector" d="M37.5 11.5C28.29 11.5 20.8 18.99 20.8 28.2C20.8 37.41 28.29 44.91 37.5 44.91C46.7 44.91 54.19 37.41 54.19 28.2C54.19 18.99 46.7 11.5 37.5 11.5ZM37.5 40.51C30.71 40.51 25.2 34.99 25.2 28.2C25.2 21.41 30.71 15.89 37.5 15.89C44.28 15.89 49.79 21.42 49.79 28.2C49.79 34.99 44.28 40.51 37.5 40.51Z" fill="#FFFFFF" fill-opacity="1.000000" fill-rule="nonzero"/>
	</g>
</svg>
