<svg width="75.000000" height="75.000000" viewBox="0 0 75 75" fill="none" xmlns="http://www.w3.org/2000/svg" xmlns:xlink="http://www.w3.org/1999/xlink">
	<desc>
			Created with Pixso.
	</desc>
	<defs>
		<clipPath id="clip7_208">
			<rect id="High Growth Market  Potential Icon" rx="0.000000" width="74.000000" height="74.000000" transform="translate(0.500000 0.500000)" fill="white" fill-opacity="0"/>
		</clipPath>
	</defs>
	<rect id="High Growth Market  Potential Icon" rx="0.000000" width="74.000000" height="74.000000" transform="translate(0.500000 0.500000)" fill="#FFFFFF" fill-opacity="0"/>
	<g clip-path="url(#clip7_208)">
		<path id="Vector" d="M72.8 75L2.19 75C0.98 75 0 74.01 0 72.8C0 71.58 0.98 70.6 2.19 70.6L72.8 70.6C74.01 70.6 74.99 71.58 74.99 72.8C74.99 74.01 74.01 75 72.8 75Z" fill="#FFFFFF" fill-opacity="1.000000" fill-rule="nonzero"/>
		<path id="Vector" d="M15.52 74.99L6.73 74.99C5.52 74.99 4.54 74.01 4.54 72.8L4.54 56.68C4.54 54.67 6.18 53.02 8.2 53.02L14.06 53.02C16.08 53.02 17.72 54.67 17.72 56.68L17.72 72.8C17.72 74.01 16.74 74.99 15.52 74.99ZM8.93 70.6L13.33 70.6L13.33 57.42L8.93 57.42L8.93 70.6Z" fill="#FFFFFF" fill-opacity="1.000000" fill-rule="nonzero"/>
		<path id="Vector" d="M33.1 75L24.31 75C23.1 75 22.11 74.01 22.11 72.8L22.11 51.41C22.11 49.39 23.76 47.75 25.78 47.75L31.64 47.75C33.65 47.75 35.3 49.39 35.3 51.41L35.3 72.8C35.3 74.01 34.31 75 33.1 75ZM26.51 70.6L30.9 70.6L30.9 52.14L26.51 52.14L26.51 70.6Z" fill="#FFFFFF" fill-opacity="1.000000" fill-rule="nonzero"/>
		<path id="Vector" d="M50.68 75L41.89 75C40.68 75 39.69 74.01 39.69 72.8L39.69 43.35C39.69 41.34 41.33 39.69 43.35 39.69L49.21 39.69C51.23 39.69 52.88 41.34 52.88 43.35L52.88 72.8C52.88 74.01 51.89 75 50.68 75ZM44.09 70.6L48.48 70.6L48.48 44.09L44.09 44.09L44.09 70.6Z" fill="#FFFFFF" fill-opacity="1.000000" fill-rule="nonzero"/>
		<path id="Vector" d="M68.26 75L59.47 75C58.25 75 57.27 74.01 57.27 72.8L57.27 28.71C57.27 26.69 58.91 25.04 60.93 25.04L66.79 25.04C68.81 25.04 70.45 26.69 70.45 28.71L70.45 72.8C70.45 74.01 69.47 75 68.26 75ZM61.66 70.6L66.06 70.6L66.06 29.44L61.66 29.44L61.66 70.6Z" fill="#FFFFFF" fill-opacity="1.000000" fill-rule="nonzero"/>
		<path id="Vector" d="M2.19 47.21C0.98 47.21 0 46.22 0 45.01C0 43.8 0.98 42.81 2.19 42.81C15.11 42.81 29.18 38.11 41.8 29.56C53.42 21.71 62.67 11.4 67.19 1.3C67.69 0.19 68.99 -0.31 70.1 0.19C71.2 0.68 71.7 1.98 71.2 3.09C66.36 13.92 56.54 24.9 44.27 33.2C30.92 42.23 15.98 47.21 2.19 47.21Z" fill="#FFFFFF" fill-opacity="1.000000" fill-rule="nonzero"/>
		<path id="Vector" d="M72.8 17.82C71.83 17.82 70.94 17.17 70.68 16.19L67.65 4.88L56.34 7.91C55.17 8.23 53.96 7.53 53.65 6.36C53.33 5.19 54.03 3.98 55.2 3.67L68.63 0.07C69.8 -0.24 71.01 0.45 71.32 1.62L74.92 15.05C75.23 16.22 74.54 17.43 73.37 17.74C73.18 17.79 72.98 17.82 72.8 17.82Z" fill="#FFFFFF" fill-opacity="1.000000" fill-rule="nonzero"/>
	</g>
</svg>
