<svg width="18.998383" height="19.000504" viewBox="0 0 18.9984 19.0005" fill="none" xmlns="http://www.w3.org/2000/svg" xmlns:xlink="http://www.w3.org/1999/xlink">
	<desc>
			Created with Pixso.
	</desc>
	<defs/>
	<path id="Vector" d="M0.99 10.96L2.19 12.52L2.44 14.47C2.59 15.55 3.44 16.4 4.52 16.54L6.47 16.81L8.03 18C8.89 18.66 10.09 18.66 10.96 18L12.52 16.8L12.52 16.8L14.47 16.55C15.55 16.4 16.4 15.55 16.54 14.47L16.8 12.52C16.8 12.52 17.41 11.73 18 10.96C18.66 10.09 18.66 8.9 18 8.03L16.81 6.47L16.55 4.52C16.4 3.44 15.56 2.59 14.48 2.44L12.52 2.18L10.96 0.99C10.09 0.33 8.89 0.33 8.03 0.99L6.47 2.18L6.47 2.18L4.52 2.44C3.44 2.59 2.59 3.44 2.45 4.52L2.19 6.47C2.19 6.47 1.58 7.26 0.99 8.03C0.33 8.89 0.33 10.09 0.99 10.96Z" fill="#FFFFFF" fill-opacity="1.000000" fill-rule="nonzero"/>
	<path id="Vector" d="M2.19 12.52L2.44 14.47C2.59 15.55 3.44 16.4 4.52 16.54L6.47 16.81L8.03 18C8.89 18.66 10.09 18.66 10.96 18L12.52 16.8L12.52 16.8L14.47 16.55C15.55 16.4 16.4 15.55 16.54 14.47L16.8 12.52C16.8 12.52 17.41 11.73 18 10.96C18.66 10.09 18.66 8.9 18 8.03L16.81 6.47L16.55 4.52C16.4 3.44 15.56 2.59 14.48 2.44L12.52 2.18L10.96 0.99C10.09 0.33 8.89 0.33 8.03 0.99L6.47 2.18L6.47 2.18L4.52 2.44C3.44 2.59 2.59 3.44 2.45 4.52L2.19 6.47C2.19 6.47 1.58 7.26 0.99 8.03C0.33 8.89 0.33 10.09 0.99 10.96L2.19 12.52Z" stroke="#000000" stroke-opacity="1.000000" stroke-width="1.000000" stroke-linejoin="round"/>
	<path id="Vector" d="M12.3 8.1L8.8 11.6L6.69 9.5" stroke="#000000" stroke-opacity="1.000000" stroke-width="1.000000" stroke-linejoin="round" stroke-linecap="round"/>
</svg>
