<svg width="286" height="66" viewBox="0 0 286 66" fill="none" xmlns="http://www.w3.org/2000/svg">
<path d="M33.0003 64.8599C15.4209 64.8602 1.13994 50.5791 1.14011 32.9997C1.14028 15.4041 15.4044 1.14012 32.9999 1.14012C37.6526 1.14012 42.0725 2.13734 46.0573 3.93011C47.8075 4.71755 47.7009 7.241 45.894 7.88825L31.4237 13.0725C31.4242 13.0723 31.4247 13.0723 31.4254 13.0721C31.3673 13.0863 31.3112 13.1061 31.2577 13.1319L31.2372 13.1392L30.9702 13.273C30.7499 13.4149 30.5504 13.6544 30.4045 13.9739C30.3802 13.9952 30.3571 14.0182 30.3339 14.041L17.3084 18.979L17.3083 18.9788C17.3083 18.9786 17.3081 18.979 17.3077 18.979C16.7673 19.1837 16.2735 19.4451 15.7989 19.7777C15.7146 19.837 15.632 19.8973 15.5513 19.9595C15.1807 20.2435 14.8451 20.5602 14.5316 20.9205C14.1573 21.3504 13.8432 21.8098 13.5707 22.3255C13.4648 22.526 13.3685 22.729 13.2809 22.9361C13.1498 23.2467 13.0383 23.5664 12.9442 23.9021C12.8586 24.2076 12.79 24.5184 12.7383 24.8334C12.6517 25.3614 12.6132 25.9021 12.6228 26.4513C12.6275 26.717 12.6436 26.9849 12.6708 27.2543C12.7829 28.3624 13.0817 29.4499 13.5587 30.4867L17.6211 39.3193C16.8551 39.735 16.2225 40.2175 15.7393 40.7579C15.0368 41.5431 14.6774 42.4319 14.6993 43.3274L14.7302 44.5758C14.7455 45.1977 14.9375 45.8095 15.301 46.3947C16.2555 47.9306 17.5922 49.2121 19.1666 50.1011C20.7411 50.99 22.5288 51.4726 24.3361 51.4962C24.3825 51.4969 24.4291 51.4971 24.4758 51.4971C26.2363 51.4971 27.9844 51.0623 29.5404 50.2367C30.3375 49.8136 31.0801 49.2908 31.748 48.6829C32.415 48.0757 33.0045 47.3856 33.5004 46.6319C33.8794 46.0554 34.0872 45.4472 34.1177 44.8244L34.1665 43.8304L34.179 43.5742C34.1956 43.2389 34.1559 42.9023 34.0669 42.57L35.7936 41.1043C36.3583 40.6251 37.0732 40.0974 37.5735 39.7387C38.1576 39.3206 38.7848 38.8916 39.4372 38.4641C39.6955 38.2945 39.9544 38.1276 40.2118 37.9647C41.3352 37.2527 42.4282 36.6126 43.2984 36.1592C43.3021 36.1572 43.3059 36.1553 43.3096 36.1535L54.9683 30.0879C55.624 30.2975 56.2756 30.2524 56.7507 29.9852L56.7749 29.972H56.7751L61.4838 27.4411C61.8106 27.2656 62.1557 27.1846 62.4928 27.1846C63.5228 27.1846 64.4793 27.9401 64.618 29.0645C64.7773 30.3551 64.8599 31.6699 64.8599 33C64.8599 50.5956 50.5958 64.8597 33.0003 64.8599ZM54.3769 11.2231C54.6342 11.1198 54.9021 11.0701 55.1676 11.0701C55.7709 11.0701 56.3609 11.327 56.7801 11.7967C58.1771 13.3625 59.4218 15.0671 60.4908 16.8871C61.1281 17.9719 60.7107 19.369 59.5752 19.9108L53.3567 22.8788C53.3637 22.8759 53.3711 22.8743 53.378 22.8716C53.3103 22.8972 53.2444 22.9266 53.1818 22.9621L53.1566 22.9741L52.6227 23.3489C52.3284 23.6342 52.0837 24.0568 51.9569 24.5817L40.31 30.2272C39.592 30.5755 38.7962 31.0062 37.9455 31.5077C37.9262 31.519 37.9066 31.5304 37.8872 31.542C37.1915 31.953 36.4838 32.3963 35.7813 32.8612C35.7456 32.8845 35.7102 32.9081 35.6747 32.9316C35.674 32.9321 35.6734 32.9326 35.6727 32.9331C34.8893 33.4539 34.1733 33.9589 33.4838 34.4778C33.4218 34.5242 33.3605 34.5705 33.2999 34.6168C32.5552 35.1841 31.9179 35.7135 31.4033 36.1927L31.6363 36.443L31.4031 36.1928L28.9485 38.4788C27.2857 37.9766 25.4346 37.7547 23.5632 37.8338L22.3552 35.2017L19.0365 27.9717L18.7255 28.1142L19.0363 27.9715C19.0357 27.9698 19.035 27.9685 19.0343 27.9669C19.0335 27.9649 19.0324 27.9627 19.0314 27.9605C19.0308 27.9592 19.0302 27.9578 19.0296 27.9565C19.0284 27.9539 19.0274 27.9516 19.0264 27.9492C19.0262 27.9492 19.0262 27.9489 19.026 27.9487C19.0252 27.9468 19.0243 27.9452 19.0235 27.9433C18.7387 27.3119 18.6056 26.6299 18.6485 26.02C18.6485 26.0188 18.6487 26.0178 18.6487 26.0166C18.6489 26.0161 18.6489 26.0154 18.6489 26.0149C18.6489 26.0144 18.649 26.0139 18.649 26.0132C18.649 26.012 18.6492 26.011 18.6492 26.0102V26.0098C18.6548 25.9355 18.6629 25.8622 18.6735 25.7908C18.7119 25.5335 18.7831 25.2982 18.8831 25.1006C18.9115 25.0444 18.9419 24.9918 18.9742 24.9425C19.1074 24.7398 19.2733 24.5973 19.4689 24.5177L19.2118 23.884C19.2095 23.885 19.2071 23.8858 19.2049 23.8867C18.8662 24.0259 18.5799 24.2782 18.3678 24.6218C18.3342 24.6763 18.3024 24.7331 18.2725 24.7918C18.1631 25.0086 18.0817 25.2479 18.0286 25.5073C18.0286 25.5078 18.0285 25.5082 18.0285 25.5087C18.0114 25.5925 17.9974 25.6783 17.9862 25.7663C17.9778 25.8338 17.9712 25.9021 17.9661 25.9718C17.9641 26.0009 17.9624 26.0299 17.9611 26.0591C17.9278 26.7635 18.0857 27.5352 18.409 28.2441C18.4095 28.2453 18.41 28.2463 18.4105 28.2475C18.411 28.2488 18.4117 28.2504 18.4124 28.2517C18.4126 28.2522 18.4129 28.2527 18.4131 28.2531C18.4136 28.2543 18.4142 28.2556 18.4146 28.2566L18.7698 29.0309L18.77 29.0307L18.7701 29.031L22.5921 37.3581L24.6195 41.7752C24.7166 41.9866 24.7107 42.1733 24.6016 42.3451C24.5499 42.4265 24.4856 42.4944 24.393 42.5655C24.2891 42.645 24.1719 42.7101 24.0243 42.7707C23.5795 42.9531 22.9794 43.0242 22.3344 42.9736C21.7471 42.9268 21.1429 42.7764 20.6335 42.5503C20.3501 42.4244 20.1023 42.2794 19.8967 42.1196C19.6544 41.9312 19.4856 41.7358 19.3949 41.5387L14.5362 30.9748L14.1801 30.2009C14.18 30.2004 14.1798 30.1999 14.1796 30.1994C13.7344 29.231 13.4557 28.2168 13.3513 27.1847C13.3239 26.9143 13.3089 26.6461 13.306 26.3802C13.3008 25.8801 13.3385 25.3884 13.4192 24.9087C13.4662 24.6307 13.5273 24.3566 13.603 24.087C13.6888 23.7804 13.7905 23.4886 13.9097 23.2058C13.9901 23.0155 14.0786 22.8288 14.1761 22.6444C14.4235 22.1762 14.7086 21.7591 15.0481 21.3691C15.1349 21.2693 15.2235 21.1734 15.3143 21.0808C15.3501 21.0443 15.3863 21.0082 15.4229 20.9727C15.5888 20.8116 15.7621 20.6611 15.9452 20.5194C16.0254 20.4574 16.1073 20.3969 16.1913 20.3381C16.6183 20.0387 17.063 19.8034 17.5506 19.6184L31.5945 14.2945C31.8112 14.3347 32.0074 14.4423 32.1422 14.5335C32.578 14.8284 32.958 15.3434 33.1852 15.9464C33.4112 16.5472 33.4668 17.1867 33.3372 17.7008C33.2818 17.9216 33.197 18.1065 33.0849 18.2533L19.2117 23.8838L19.4691 24.5175L32.2289 19.3391C32.7466 19.6493 33.2725 19.7058 33.6573 19.5414L33.6769 19.5335L54.3769 11.2231ZM25.2411 41.4897V41.4896L23.8726 38.5079C25.4279 38.4682 26.9612 38.6425 28.3657 39.0215L25.3492 41.8306C25.3282 41.7171 25.2933 41.6031 25.2411 41.4897ZM33.1904 44.6501C32.9859 45.0521 32.6824 45.4389 32.2881 45.7997C32.2618 45.8238 32.2334 45.8468 32.2066 45.8705L31.9657 46.0716C31.9583 46.0775 31.9507 46.0833 31.9431 46.0892L30.1966 47.1025L28.252 47.7411C28.2216 47.7485 28.1913 47.7565 28.1608 47.7637L26.0711 48.0972C26.0506 48.0992 26.0305 48.1014 26.0101 48.1032L23.5137 48.1291C23.4986 48.1281 23.4836 48.1265 23.4686 48.1255L21.1578 47.7968C21.1259 47.7899 21.0941 47.783 21.0623 47.7757L18.6879 46.9981C18.6852 46.9967 18.6823 46.9955 18.6794 46.9944L17.6079 46.4241C17.5893 46.4125 17.5699 46.4017 17.5515 46.3897C17.1616 46.1411 16.8291 45.8825 16.5345 45.5987C16.472 45.5384 16.4158 45.4766 16.358 45.4151L15.7351 44.5625C15.7107 44.5172 15.6832 44.4724 15.6614 44.4268C15.4859 44.0603 15.3924 43.6848 15.3832 43.3105C15.3608 42.4028 15.8418 41.6693 16.249 41.2137C16.6716 40.7415 17.2287 40.3146 17.9075 39.9419L18.7735 41.8245C18.9105 42.1223 19.1471 42.4033 19.4768 42.6597C19.7261 42.8535 20.0217 43.0269 20.3558 43.1754C20.9426 43.436 21.6081 43.6021 22.28 43.6554C22.4013 43.6652 22.5538 43.6728 22.7267 43.6728C22.9855 43.6728 23.29 43.6537 23.6025 43.5968C23.4964 43.824 23.4584 44.0726 23.4985 44.3282C23.5532 44.68 23.7424 45.0226 24.0606 45.3467C24.6312 45.9276 25.4335 46.252 25.8608 46.3936C26.4864 46.6008 27.1494 46.7098 27.7848 46.7098C27.817 46.7098 27.8491 46.7093 27.8812 46.7089C28.254 46.7025 28.604 46.6572 28.921 46.5748C29.3304 46.4684 29.6672 46.3046 29.9225 46.088L33.474 43.0734C33.4955 43.2293 33.5034 43.3852 33.4958 43.5406C33.4776 43.9144 33.3747 44.2875 33.1904 44.6501ZM42.9939 35.5464C42.1036 36.0096 40.9856 36.6641 39.8394 37.3907C39.581 37.5545 39.3214 37.7218 39.0624 37.8915C38.3919 38.3312 37.7747 38.7534 37.1753 39.1826C36.6643 39.5487 35.9331 40.0886 35.3507 40.583L34.8937 40.9707L29.4798 45.5664C29.3038 45.7159 29.0578 45.8325 28.7489 45.9125C28.4841 45.9816 28.1881 46.0193 27.8692 46.0248C27.2806 46.0333 26.6609 45.938 26.076 45.7443C25.4392 45.5332 24.8968 45.2219 24.5486 44.8675C24.4001 44.7162 24.2146 44.4816 24.1743 44.2226C24.1408 44.0095 24.2126 43.824 24.3933 43.6556L31.4315 37.101L31.4316 37.1012L31.8694 36.6931C32.3665 36.2303 32.9862 35.7157 33.714 35.1613C33.7737 35.1159 33.834 35.0705 33.8949 35.0243C34.5714 34.5154 35.2776 34.0172 36.0536 33.5013C36.7768 33.0203 37.5073 32.5614 38.2259 32.1362C38.2483 32.1232 38.2706 32.11 38.2929 32.0969C39.1268 31.6059 39.9024 31.1854 40.5986 30.8475C40.6018 30.8459 40.6051 30.8443 40.6084 30.8427L54.8288 23.9497C54.857 23.9499 54.8858 23.9526 54.9144 23.9542C55.5067 24.1039 56.0773 24.4887 56.4551 25.0516C57.2228 26.0127 57.3846 27.5673 56.8051 28.361L42.9939 35.5464ZM65.7497 28.925C65.547 27.2827 64.1469 26.0445 62.4928 26.0445C61.9574 26.0445 61.422 26.1803 60.9441 26.437L59.0884 27.4344C59.062 26.1433 58.6276 24.8187 57.8973 23.9039C57.562 23.3935 57.124 22.9425 56.6315 22.5792L60.0663 20.9398C60.8909 20.5462 61.5174 19.8193 61.7851 18.9455C62.0545 18.0658 61.9412 17.1051 61.474 16.3097C60.3736 14.4362 59.0806 12.6625 57.6309 11.0378C57.0026 10.3337 56.1048 9.92998 55.1676 9.92998C54.7497 9.92998 54.3408 10.009 53.9521 10.1651L35.8274 17.4416C35.8392 16.5242 35.635 15.565 35.231 14.7832C35.0123 14.2574 34.6724 13.7278 34.2556 13.2689L46.2786 8.96165C47.544 8.5083 48.396 7.3464 48.449 6.00157C48.5017 4.66113 47.7465 3.43994 46.525 2.89032C42.2619 0.972394 37.7114 2.52575e-06 32.9999 2.52575e-06C24.1854 2.52575e-06 15.8984 3.43251 9.66562 9.66531C3.43267 15.8981 0.000168912 24.1851 6.22901e-09 32.9997C-0.000168899 41.8057 3.43469 50.0907 9.67204 56.3278C15.9092 62.565 24.1939 66 32.9999 66C41.8149 66 50.1018 62.5673 56.3345 56.3344C62.5673 50.1016 66 41.8147 66 33C66 31.6423 65.9155 30.2712 65.7497 28.925Z" fill="#4466BA"/>
<path fill-rule="evenodd" clip-rule="evenodd" d="M165.537 13.8487L168.732 13.2002V28.8981H165.537V13.8487ZM101.828 17.4675C101.828 16.5443 102.726 16.0701 103.75 16.0701C105.497 16.0701 107.094 16.9687 107.643 17.4174L107.893 14.4727C107.518 14.1982 105.971 13.2252 103.35 13.2252C100.331 13.2252 98.1342 14.7972 98.1342 17.4426C98.1342 20.3094 100.433 21.2607 102.403 22.0761C103.88 22.6874 105.172 23.2222 105.172 24.4307C105.172 25.479 104.374 26.2276 103.051 26.2276C101.251 26.2276 99.5967 25.009 99.1002 24.6432L99.0829 24.6305L97.5104 27.2258C98.259 27.7747 100.555 29.1226 103.051 29.1226C106.745 29.1226 108.816 27.1013 108.816 24.3807C108.816 21.3105 106.418 20.3643 104.432 19.5804C103.027 19.0261 101.828 18.553 101.828 17.4675ZM88.4775 16.2699H88.802C90.8985 16.2699 92.4207 17.1931 92.4207 19.0152C92.4207 20.837 91.0233 21.8354 89.0767 21.8354H88.7771H88.4775V16.2699ZM88.4525 28.898V24.6806C93.519 24.6054 96.0394 22.609 96.0394 19.0152C96.0394 15.7205 93.5937 13.4245 88.5026 13.4245H84.7589V28.898H88.4525ZM116.277 16.0701C115.254 16.0701 114.356 16.5443 114.356 17.4675C114.356 18.553 115.555 19.0261 116.959 19.5804C118.946 20.3643 121.344 21.3105 121.344 24.3807C121.344 27.1013 119.272 29.1226 115.578 29.1226C113.083 29.1226 110.787 27.7747 110.038 27.2258L111.61 24.6305L111.628 24.6432C112.124 25.009 113.778 26.2276 115.578 26.2276C116.901 26.2276 117.7 25.479 117.7 24.4307C117.7 23.2222 116.408 22.6874 114.931 22.0761C112.961 21.2607 110.662 20.3094 110.662 17.4426C110.662 14.7972 112.858 13.2252 115.878 13.2252C118.499 13.2252 120.046 14.1982 120.42 14.4727L120.171 17.4174C119.622 16.9687 118.024 16.0701 116.277 16.0701ZM128.954 21.4361C128.954 26.6021 131 29.0727 135.592 29.0727C140.234 29.0727 142.256 26.6519 142.256 21.4861V13.4246H138.562V21.4861C138.562 24.6556 137.739 26.178 135.567 26.178C133.421 26.178 132.647 24.6307 132.647 21.4361V13.4246H128.954V21.4361ZM148.269 25.554V28.898H145.099V18.4411H148.269V20.1633C148.743 18.7405 150.365 18.1171 151.738 18.2666C151.692 18.4524 151.559 19.427 151.452 20.205L151.452 20.2061L151.452 20.2071C151.387 20.6814 151.333 21.0823 151.314 21.1862C148.993 21.1117 148.269 22.7338 148.269 25.554ZM155.381 23.682C155.381 21.8604 156.479 20.787 157.777 20.787C159.124 20.787 160.198 21.8604 160.198 23.7071C160.198 25.5287 159.124 26.5271 157.777 26.5271C156.479 26.5271 155.381 25.5287 155.381 23.682ZM152.186 23.682C152.186 27.1012 154.682 29.0478 157.802 29.0478C160.921 29.0478 163.392 27.1012 163.392 23.7071C163.392 20.2376 160.921 18.2664 157.802 18.2664C154.682 18.2664 152.186 20.2376 152.186 23.682ZM174.072 23.682C174.072 21.8604 175.17 20.787 176.468 20.787C177.816 20.787 178.889 21.8604 178.889 23.7071C178.889 25.5287 177.816 26.5271 176.468 26.5271C175.17 26.5271 174.072 25.5287 174.072 23.682ZM170.878 23.682C170.878 27.1012 173.373 29.0478 176.493 29.0478C179.613 29.0478 182.083 27.1012 182.083 23.7071C182.083 20.2376 179.613 18.2664 176.493 18.2664C173.373 18.2664 170.878 20.2376 170.878 23.682ZM189.021 25.6538C190.319 25.6538 191.167 24.481 191.167 22.5342V21.1614C190.893 21.0115 190.269 20.7622 189.345 20.7622C187.823 20.7622 187.024 21.935 187.024 23.3078C187.024 24.6556 187.598 25.6538 189.021 25.6538ZM184.254 31.3187L185.876 29.1228C186.25 29.3973 187.523 30.2458 188.746 30.2458C189.794 30.2458 191.167 29.8715 191.167 27.775V26.5023C191.132 26.54 191.091 26.5933 191.042 26.6579C190.695 27.1074 189.93 28.0995 188.097 28.0995C185.477 28.0995 183.78 26.128 183.78 23.2828C183.78 20.4878 185.751 18.2667 189.27 18.2667C192.027 18.2667 193.708 19.5347 194.215 19.917C194.254 19.9466 194.287 19.9709 194.312 19.9889V27.0764C194.312 31.6684 191.766 32.8414 188.821 32.8414C186.675 32.8414 184.903 31.7934 184.254 31.3187ZM195.284 18.441L199.576 26.8265L196.606 32.2671L199.851 32.8165L207.063 18.441H203.569L201.198 23.6073L198.853 18.441H195.284ZM86.9016 49.918H86.2153V39.8819H82.9555L83.1098 39.2809H90.1439V39.8819H86.9016V49.918ZM94.897 43.1927C96.5268 43.1927 97.1617 44.2053 97.1617 46.2122V49.9182H97.8136V46.2122C97.8136 43.9303 97.0244 42.6266 95 42.6266C94.1592 42.6266 92.5638 42.9868 91.9633 44.5824V39.1953L91.3286 39.3326V49.9182H91.9633V46.4183C91.9633 43.8276 93.885 43.1927 94.897 43.1927ZM99.8737 45.8178H105.209C105.192 44.0679 104.043 43.176 102.619 43.176C101.195 43.176 100.045 44.1367 99.8737 45.8178ZM102.945 49.4894C103.871 49.4894 104.506 49.2147 105.209 48.7L105.535 49.1975C104.626 49.8496 103.906 50.0725 102.945 50.0725C100.612 50.0725 99.2047 48.6481 99.2047 46.3323C99.2047 44.0679 100.663 42.6096 102.619 42.6096C104.42 42.6096 105.569 43.7765 105.758 45.3888C105.793 45.7323 105.793 46.1092 105.793 46.3667H99.8393C99.8393 48.357 101.006 49.4894 102.945 49.4894ZM111.816 44.2567H113.257C116.105 44.2567 117.254 45.0285 117.254 46.7958C117.237 48.6998 116.036 49.3003 113.549 49.3003H111.816V44.2567ZM111.816 39.8647H113.051C115.161 39.8647 116.362 40.2932 116.362 41.8372C116.362 43.2444 115.487 43.6731 113.085 43.6731H111.816V39.8647ZM111.129 49.918H113.411C116.156 49.918 117.958 49.2659 117.958 46.8123C117.958 45.0454 116.911 44.085 114.921 43.9304C116.276 43.793 117.065 43.0726 117.065 41.8031C117.065 39.8128 115.35 39.2809 113 39.2809H111.129V49.918ZM119.605 42.7466H120.257V49.918H119.605V42.7466ZM119.931 41.0139C119.674 41.0139 119.451 40.8424 119.451 40.5679C119.451 40.276 119.674 40.1389 119.931 40.1389C120.189 40.1389 120.411 40.276 120.411 40.5679C120.411 40.8424 120.189 41.0139 119.931 41.0139ZM122.796 46.8298C122.796 43.8619 124.735 43.1928 125.781 43.1928C127.548 43.1928 128.458 44.4971 128.458 46.2983C128.458 48.0996 127.411 49.4552 125.507 49.4552C124.375 49.4552 123.482 49.0431 122.796 48.4942V46.8298ZM125.576 50.0382C127.823 50.0382 129.11 48.4079 129.11 46.3155C129.11 44.2052 127.995 42.6098 125.833 42.6098C124.941 42.6098 123.396 43.0216 122.796 44.7027V42.7469H122.161V52.6118L122.796 52.4741V49.1633C123.448 49.6434 124.34 50.0382 125.576 50.0382ZM133.949 43.2099C132.268 43.2099 130.912 44.308 130.912 46.3495C130.912 48.408 132.268 49.4894 133.949 49.4894C135.647 49.4894 136.968 48.408 136.968 46.3667C136.968 44.308 135.647 43.2099 133.949 43.2099ZM133.949 50.0725C131.907 50.0725 130.277 48.7516 130.277 46.3495C130.277 43.9478 131.907 42.6268 133.949 42.6268C135.99 42.6268 137.62 43.9478 137.62 46.3667C137.62 48.7516 135.99 50.0725 133.949 50.0725ZM139.731 39.1952L139.096 39.3326V49.9178H139.731V39.1952ZM144.535 49.4721C145.581 49.4721 147.52 48.8031 147.52 45.8352V44.1194C146.851 43.5703 145.993 43.2098 144.844 43.2098C142.922 43.2098 141.859 44.5826 141.859 46.3667C141.859 48.1679 142.768 49.4721 144.535 49.4721ZM144.827 42.6268C146.422 42.6268 147.366 43.2098 148.155 43.8278V49.9181H147.52V47.9623C146.92 49.6434 145.393 50.0727 144.484 50.0727C142.322 50.0727 141.207 48.4598 141.207 46.3494C141.207 44.257 142.493 42.6268 144.827 42.6268ZM150.575 49.918V46.5894C150.575 44.6852 151.621 42.9353 153.577 43.2097L153.697 42.6611C152.239 42.4893 151.003 43.1758 150.575 44.5481V42.7466H149.94V49.918H150.575ZM160.87 39.8647H159.257V44.4623H160.629C162.74 44.4623 163.855 43.7591 163.855 42.1807C163.855 40.619 162.808 39.8647 160.87 39.8647ZM160.578 45.0456H159.257V49.918H158.57V39.2811H160.818C163.151 39.2811 164.558 40.2423 164.558 42.1807C164.558 43.7591 163.443 44.6852 161.779 44.8569C162.618 45.1043 163.205 46.0131 163.812 46.9525C164.595 48.1633 165.41 49.4248 166.84 49.386L166.685 50.0035C164.987 50.0035 164.169 48.6718 163.381 47.3888C162.648 46.1962 161.941 45.0456 160.578 45.0456ZM172.691 45.8178H167.356C167.527 44.1367 168.677 43.176 170.101 43.176C171.525 43.176 172.674 44.0679 172.691 45.8178ZM172.691 48.7C171.988 49.2147 171.353 49.4894 170.427 49.4894C168.488 49.4894 167.321 48.357 167.321 46.3667H173.275C173.275 46.1092 173.275 45.7323 173.24 45.3888C173.052 43.7765 171.902 42.6096 170.101 42.6096C168.145 42.6096 166.687 44.0679 166.687 46.3323C166.687 48.6481 168.094 50.0725 170.427 50.0725C171.388 50.0725 172.108 49.8496 173.017 49.1975L172.691 48.7ZM179.245 43.8276C178.714 43.4161 177.804 43.1927 177.101 43.1927C176.209 43.1927 175.162 43.5015 175.162 44.4281C175.162 45.3781 176.154 45.6371 177.215 45.914C178.434 46.2321 179.743 46.5739 179.743 48.014C179.743 49.4034 178.49 50.0725 176.981 50.0725C176.277 50.0725 175.196 49.9182 174.15 49.2147C174.173 49.1855 174.198 49.1521 174.225 49.1168L174.287 49.0357L174.288 49.0349C174.387 48.9048 174.487 48.7744 174.51 48.7516C175.368 49.3177 176.346 49.4894 176.963 49.4894C178.199 49.4894 179.108 49.0258 179.108 48.0476C179.108 47.0382 178.08 46.7552 177 46.4577C175.804 46.1283 174.544 45.7812 174.544 44.4107C174.544 43.0897 175.9 42.6096 177.101 42.6096C177.907 42.6096 178.851 42.8669 179.348 43.2099L179.245 43.8276ZM186.709 45.8178H181.374C181.545 44.1367 182.695 43.176 184.119 43.176C185.543 43.176 186.692 44.0679 186.709 45.8178ZM186.709 48.7C186.006 49.2147 185.371 49.4894 184.445 49.4894C182.506 49.4894 181.339 48.357 181.339 46.3667H187.293C187.293 46.1092 187.293 45.7323 187.258 45.3888C187.069 43.7765 185.92 42.6096 184.119 42.6096C182.163 42.6096 180.705 44.0679 180.705 46.3323C180.705 48.6481 182.112 50.0725 184.445 50.0725C185.406 50.0725 186.126 49.8496 187.035 49.1975L186.709 48.7ZM188.46 46.3323C188.46 43.9478 190.038 42.6096 192.2 42.6096C193.212 42.6096 194.001 42.987 194.55 43.33L194.413 43.9306C193.916 43.6217 193.178 43.2099 192.2 43.2099C190.416 43.2099 189.095 44.2908 189.095 46.3323C189.095 48.3395 190.398 49.4894 192.2 49.4894C193.092 49.4894 193.898 49.1459 194.533 48.7L194.842 49.2319C193.916 49.8324 193.075 50.0725 192.2 50.0725C190.038 50.0725 188.46 48.6828 188.46 46.3323ZM196.644 43.3127V47.19C196.644 49.5232 197.571 50.1584 199.544 50.0036L199.681 49.4205C198.086 49.592 197.296 49.3004 197.296 47.2072V43.3127H199.595V42.7466H197.296V40.98L196.644 41.1341V42.7466H195.409L195.254 43.3127H196.644ZM200.985 42.7466H201.637V49.918H200.985V42.7466ZM201.311 41.0139C201.054 41.0139 200.831 40.8424 200.831 40.5679C200.831 40.276 201.054 40.1389 201.311 40.1389C201.569 40.1389 201.791 40.276 201.791 40.5679C201.791 40.8424 201.569 41.0139 201.311 41.0139ZM203.867 46.3495C203.867 44.308 205.223 43.2099 206.904 43.2099C208.603 43.2099 209.923 44.308 209.923 46.3667C209.923 48.408 208.603 49.4894 206.904 49.4894C205.223 49.4894 203.867 48.408 203.867 46.3495ZM203.233 46.3495C203.233 48.7516 204.862 50.0725 206.904 50.0725C208.946 50.0725 210.575 48.7516 210.575 46.3667C210.575 43.9478 208.946 42.6268 206.904 42.6268C204.862 42.6268 203.233 43.9478 203.233 46.3495ZM217.885 46.1779C217.885 44.1705 217.216 43.1759 215.552 43.1759C214.522 43.1759 212.704 43.759 212.704 46.3664V49.9178H212.052V42.7467H212.704V44.4622C213.287 42.9351 214.763 42.5921 215.638 42.5921C217.679 42.5921 218.537 43.8963 218.537 46.1779V49.9178H217.885V46.1779ZM229.021 39.1272C225.916 39.1272 223.582 41.1002 223.582 44.5826C223.582 48.065 225.916 50.0727 229.021 50.0727C230.411 50.0727 231.663 49.7122 232.881 48.8883L232.572 48.3053C231.714 48.9058 230.479 49.4721 229.021 49.4721C226.31 49.4721 224.286 47.6878 224.286 44.5654C224.286 41.4604 226.344 39.7274 229.021 39.7274C230.582 39.7274 231.817 40.4309 232.487 40.8766L232.538 40.2078C231.834 39.7102 230.496 39.1272 229.021 39.1272ZM237.256 43.2099C235.575 43.2099 234.22 44.308 234.22 46.3495C234.22 48.408 235.575 49.4894 237.256 49.4894C238.955 49.4894 240.276 48.408 240.276 46.3667C240.276 44.308 238.955 43.2099 237.256 43.2099ZM237.256 50.0725C235.215 50.0725 233.585 48.7516 233.585 46.3495C233.585 43.9478 235.215 42.6268 237.256 42.6268C239.298 42.6268 240.928 43.9478 240.928 46.3667C240.928 48.7516 239.298 50.0725 237.256 50.0725ZM249.815 43.1925C251.034 43.1925 251.703 44.0164 251.703 45.4231V49.918H252.355V45.4059C252.355 43.6562 251.428 42.6095 249.867 42.6095C249.146 42.6095 247.911 42.9014 247.448 44.222C247.139 43.2269 246.402 42.6095 245.252 42.6095C244.652 42.6095 243.554 42.8151 243.039 43.9648V42.7466H242.404V49.918H243.039V45.5258C243.107 43.5188 244.411 43.1925 245.132 43.1925C246.384 43.1925 247.036 43.9648 247.036 45.5086V49.918H247.671V45.6459C247.671 43.5699 249.044 43.1925 249.815 43.1925ZM257.674 43.1928C256.628 43.1928 254.689 43.8619 254.689 46.8298V48.4942C255.376 49.0431 256.268 49.4552 257.4 49.4552C259.304 49.4552 260.351 48.0996 260.351 46.2983C260.351 44.4971 259.441 43.1928 257.674 43.1928ZM261.003 46.3155C261.003 48.4079 259.716 50.0382 257.469 50.0382C256.233 50.0382 255.341 49.6434 254.689 49.1633V52.4741L254.055 52.6118V42.7469H254.689V44.7027C255.29 43.0216 256.834 42.6098 257.726 42.6098C259.888 42.6098 261.003 44.2052 261.003 46.3155ZM268.484 45.8352C268.484 48.8031 266.546 49.4721 265.499 49.4721C263.732 49.4721 262.823 48.1679 262.823 46.3667C262.823 44.5826 263.886 43.2098 265.808 43.2098C266.957 43.2098 267.815 43.5703 268.484 44.1194V45.8352ZM269.119 43.8278C268.33 43.2098 267.386 42.6268 265.791 42.6268C263.457 42.6268 262.171 44.257 262.171 46.3494C262.171 48.4598 263.286 50.0727 265.448 50.0727C266.357 50.0727 267.884 49.6434 268.484 47.9623V49.9181H269.119V43.8278ZM276.738 46.1779C276.738 44.1705 276.069 43.1759 274.404 43.1759C273.375 43.1759 271.556 43.759 271.556 46.3664V49.9178H270.905V42.7467H271.556V44.4622C272.14 42.9351 273.615 42.5921 274.49 42.5921C276.532 42.5921 277.389 43.8963 277.389 46.1779V49.9178H276.738V46.1779ZM277.818 42.7467L281.198 49.6606L279.757 52.4914L280.426 52.629L285.281 42.7467H284.561L281.541 48.9918L278.539 42.7467H277.818Z" fill="#4466BA"/>
</svg>
