<svg width="28.000000" height="28.000000" viewBox="0 0 28 28" fill="none" xmlns="http://www.w3.org/2000/svg" xmlns:xlink="http://www.w3.org/1999/xlink">
	<desc>
			Created with Pixso.
	</desc>
	<defs>
		<clipPath id="clip83_1697">
			<rect id="fi_483947" rx="0.000000" width="27.000000" height="27.000000" transform="translate(0.500000 0.500000)" fill="white" fill-opacity="0"/>
		</clipPath>
	</defs>
	<rect id="fi_483947" rx="0.000000" width="27.000000" height="27.000000" transform="translate(0.500000 0.500000)" fill="#FFFFFF" fill-opacity="0"/>
	<g clip-path="url(#clip83_1697)">
		<path id="Vector" d="M25.75 18.37C24.03 18.37 22.35 18.11 20.76 17.58C19.97 17.31 19.01 17.56 18.54 18.05L15.39 20.42C11.74 18.47 9.49 16.23 7.57 12.6L9.87 9.54C10.47 8.94 10.69 8.06 10.43 7.24C9.9 5.64 9.63 3.96 9.63 2.24C9.63 1 8.62 0 7.38 0L2.24 0C1 0 0 1 0 2.24C0 16.44 11.55 28 25.75 28C26.99 28 28 26.99 28 25.75L28 20.62C28 19.38 26.99 18.37 25.75 18.37Z" fill="#FFFFFF" fill-opacity="1.000000" fill-rule="nonzero"/>
	</g>
</svg>
