<svg width="28.000000" height="28.000000" viewBox="0 0 28 28" fill="none" xmlns="http://www.w3.org/2000/svg" xmlns:xlink="http://www.w3.org/1999/xlink">
	<desc>
			Created with Pixso.
	</desc>
	<defs>
		<clipPath id="clip83_1702">
			<rect id="fi_484169" rx="0.000000" width="27.000000" height="27.000000" transform="translate(0.500000 0.500000)" fill="white" fill-opacity="0"/>
		</clipPath>
	</defs>
	<rect id="fi_484169" rx="0.000000" width="27.000000" height="27.000000" transform="translate(0.500000 0.500000)" fill="#FFFFFF" fill-opacity="0"/>
	<g clip-path="url(#clip83_1702)">
		<path id="Vector" d="M14 0C8.2 0 3.5 4.71 3.5 10.5C3.5 18.24 13.18 27.45 13.6 27.84C13.71 27.94 13.85 28 14 28C14.14 28 14.28 27.94 14.4 27.84C14.81 27.45 24.5 18.24 24.5 10.5C24.5 4.71 19.79 0 14 0ZM14 16.33C10.78 16.33 8.16 13.71 8.16 10.5C8.16 7.28 10.78 4.66 14 4.66C17.21 4.66 19.83 7.28 19.83 10.5C19.83 13.71 17.21 16.33 14 16.33Z" fill="#FFFFFF" fill-opacity="1.000000" fill-rule="nonzero"/>
	</g>
</svg>
