<svg width="277.000000" height="277.000000" viewBox="0 0 277 277" fill="none" xmlns="http://www.w3.org/2000/svg" xmlns:xlink="http://www.w3.org/1999/xlink">
	<desc>
			Created with Pixso.
	</desc>
	<defs/>
	<path id="Vector" d="M260.4 223.02C271.28 208.21 276.99 191 276.99 172.86C276.99 143.83 261.94 116.87 236.53 100.04C234.19 74.17 222.11 50.18 201.91 31.69C179.58 11.25 149.95 0 118.48 0C87.01 0 57.38 11.25 35.04 31.69C12.44 52.38 0 79.96 0 109.35C0 131.96 7.28 153.39 21.14 171.74L0.78 222.08C-0.87 226.17 0.12 230.84 3.28 233.91C5.35 235.91 8.06 236.96 10.82 236.96C12.29 236.96 13.78 236.66 15.18 236.04L73.23 210.45C80.52 213.24 88.03 215.32 95.71 216.7C103.58 229.64 114.8 240.6 128.44 248.57C143.67 257.48 161.26 262.24 179.35 262.37C179.62 262.39 179.88 262.42 180.15 262.42C192.66 262.42 204.78 260.25 216.24 255.99L261.81 276.07C263.21 276.69 264.7 277 266.17 277C268.93 277 271.65 275.94 273.71 273.94C276.87 270.88 277.86 266.2 276.21 262.12L260.4 223.02ZM237.98 225.3L246.16 245.53L220.82 234.36C218.08 233.15 214.96 233.13 212.21 234.3C202.27 238.54 191.64 240.71 180.59 240.77C180.45 240.76 180.3 240.75 180.15 240.75C158.83 240.75 138.68 232.41 124.61 218.55C142.45 217.7 159.95 213.14 175.54 205.22C180.87 202.52 182.99 196 180.29 190.67C177.58 185.35 171.07 183.22 165.74 185.93C151.39 193.22 135.04 197.07 118.48 197.07C104.08 197.07 90.23 194.27 77.29 188.75C74.54 187.58 71.42 187.6 68.68 188.81L30.83 205.49L43.58 173.97C45.09 170.23 44.4 165.96 41.78 162.89C28.6 147.43 21.64 128.92 21.64 109.35C21.64 60.99 65.08 21.64 118.48 21.64C171.88 21.64 215.32 60.99 215.32 109.35C215.32 124.98 210.73 140.31 202.04 153.71C198.78 158.72 200.21 165.42 205.22 168.67C210.24 171.93 216.94 170.5 220.19 165.48C227.9 153.6 233.06 140.48 235.44 126.85C248.11 139.26 255.35 155.61 255.35 172.86C255.35 187.97 249.97 202.28 239.78 214.23C237.16 217.3 236.47 221.57 237.98 225.3ZM128.76 165C128.76 170.98 123.91 175.83 117.94 175.83C111.96 175.83 107.12 170.98 107.12 165C107.12 159.03 111.96 154.18 117.94 154.18C123.91 154.18 128.76 159.03 128.76 165ZM159.04 83.93C159.05 84.08 159.05 84.24 159.05 84.39C159.06 100.68 149.38 115.33 134.4 121.73C131.3 123.05 129.29 126.18 129.29 129.68L129.29 130.38C129.29 136.36 124.45 141.2 118.47 141.2C112.5 141.2 107.65 136.36 107.65 130.38L107.65 129.68C107.65 117.49 114.82 106.56 125.9 101.83C132.8 98.88 137.29 92.18 137.41 84.7C137.41 84.6 137.41 84.49 137.41 84.39C137.41 73.95 128.91 65.46 118.47 65.46C108.04 65.46 99.54 73.95 99.54 84.39C99.54 90.37 94.7 95.21 88.72 95.21C82.75 95.21 77.9 90.37 77.9 84.39C77.9 62.02 96.1 43.82 118.47 43.82C140.69 43.82 158.8 61.77 159.04 83.93Z" fill="#E7F0F8" fill-opacity="1.000000" fill-rule="nonzero"/>
</svg>
