<svg width="75.000000" height="75.000000" viewBox="0 0 75 75" fill="none" xmlns="http://www.w3.org/2000/svg" xmlns:xlink="http://www.w3.org/1999/xlink">
	<desc>
			Created with Pixso.
	</desc>
	<defs>
		<clipPath id="clip7_217">
			<rect id="Versatile Product Catalog  Icon" rx="0.000000" width="74.000000" height="74.000000" transform="translate(0.500000 0.500000)" fill="white" fill-opacity="0"/>
		</clipPath>
	</defs>
	<rect id="Versatile Product Catalog  Icon" rx="0.000000" width="74.000000" height="74.000000" transform="translate(0.500000 0.500000)" fill="#FFFFFF" fill-opacity="0"/>
	<g clip-path="url(#clip7_217)">
		<path id="Vector" d="M72.8 8.93L21.75 8.93C20.76 3.97 16.38 0 10.98 0C4.91 0 0 5.05 0 11.13L0 64.01C0 70.07 4.92 75 10.98 75L64.01 75C65.22 75 66.21 74.01 66.21 72.8L66.21 66.21L72.8 66.21C74.01 66.21 75 65.22 75 64.01L75 11.13C75 9.91 74.01 8.93 72.8 8.93ZM4.39 11.13C4.39 7.48 7.41 4.39 10.98 4.39C14.55 4.39 17.57 7.48 17.57 11.13L17.57 55.22C15.74 53.84 13.45 53.02 10.98 53.02C8.51 53.02 6.23 53.84 4.39 55.22L4.39 11.13ZM61.81 70.6L10.98 70.6C7.35 70.6 4.39 67.64 4.39 64.01C4.39 60.37 7.35 57.42 10.98 57.42C14.62 57.42 17.57 60.37 17.57 64.01C17.57 65.22 18.56 66.21 19.77 66.21L61.81 66.21L61.81 70.6ZM70.6 61.81C68.7 61.81 25.46 61.81 21.97 61.81L21.97 13.33L70.6 13.33L70.6 61.81Z" fill="#FFFFFF" fill-opacity="1.000000" fill-rule="nonzero"/>
		<path id="Vector" d="M50.83 31.05L64.01 31.05C65.22 31.05 66.21 30.07 66.21 28.85L66.21 20.06C66.21 18.85 65.22 17.87 64.01 17.87L50.83 17.87C49.61 17.87 48.63 18.85 48.63 20.06L48.63 28.85C48.63 30.07 49.61 31.05 50.83 31.05ZM53.02 22.26L61.81 22.26L61.81 26.66L53.02 26.66L53.02 22.26Z" fill="#FFFFFF" fill-opacity="1.000000" fill-rule="nonzero"/>
		<path id="Vector" d="M28.56 22.26L42.04 22.26C43.25 22.26 44.23 21.28 44.23 20.06C44.23 18.85 43.25 17.87 42.04 17.87L28.56 17.87C27.35 17.87 26.36 18.85 26.36 20.06C26.36 21.28 27.35 22.26 28.56 22.26Z" fill="#FFFFFF" fill-opacity="1.000000" fill-rule="nonzero"/>
		<path id="Vector" d="M28.56 31.05L42.04 31.05C43.25 31.05 44.23 30.07 44.23 28.85C44.23 27.64 43.25 26.66 42.04 26.66L28.56 26.66C27.35 26.66 26.36 27.64 26.36 28.85C26.36 30.07 27.35 31.05 28.56 31.05Z" fill="#FFFFFF" fill-opacity="1.000000" fill-rule="nonzero"/>
		<path id="Vector" d="M28.56 39.84L64.01 39.84C65.22 39.84 66.21 38.86 66.21 37.64C66.21 36.43 65.22 35.44 64.01 35.44L28.56 35.44C27.35 35.44 26.36 36.43 26.36 37.64C26.36 38.86 27.35 39.84 28.56 39.84Z" fill="#FFFFFF" fill-opacity="1.000000" fill-rule="nonzero"/>
		<path id="Vector" d="M28.56 48.63L64.01 48.63C65.22 48.63 66.21 47.64 66.21 46.43C66.21 45.22 65.22 44.23 64.01 44.23L28.56 44.23C27.35 44.23 26.36 45.22 26.36 46.43C26.36 47.64 27.35 48.63 28.56 48.63Z" fill="#FFFFFF" fill-opacity="1.000000" fill-rule="nonzero"/>
		<path id="Vector" d="M28.56 57.42L64.01 57.42C65.22 57.42 66.21 56.43 66.21 55.22C66.21 54.01 65.22 53.02 64.01 53.02L28.56 53.02C27.35 53.02 26.36 54.01 26.36 55.22C26.36 56.43 27.35 57.42 28.56 57.42Z" fill="#FFFFFF" fill-opacity="1.000000" fill-rule="nonzero"/>
	</g>
</svg>
