<svg width="22" height="25" xmlns="http://www.w3.org/2000/svg"><g id="Page-1" stroke="none" stroke-width="1" fill="none" fill-rule="evenodd" stroke-linecap="round" stroke-linejoin="round"><g id="Home" transform="translate(-375 -672)"><g id="Group" transform="translate(376 673)"><path d="M0 16.186V2.556C0 1.144 1.119 0 2.5 0h15C18.881 0 20 1.144 20 2.556v13.63c0 .927-.492 1.783-1.286 2.233l-7.5 4.259a2.45 2.45 0 01-2.429 0l-7.5-4.259A2.567 2.567 0 010 16.186z" id="Path" fill="#FFF"/><path d="M8.502 13.94l1.038-.558a.975.975 0 01.923 0l1.037.557a.97.97 0 001.044-.078l.387-.287c.305-.226.458-.61.395-.99l-.199-1.181a1.028 1.028 0 01.285-.897l.84-.836c.27-.27.367-.672.25-1.039l-.147-.465a.998.998 0 00-.8-.69l-1.16-.172a.993.993 0 01-.746-.555l-.519-1.074a.995.995 0 00-.891-.564H9.76a.987.987 0 00-.889.565L8.352 6.75a.993.993 0 01-.746.555l-1.159.171a.998.998 0 00-.8.69l-.147.465c-.116.367-.02.77.251 1.04l.839.835c.234.232.34.569.285.897l-.199 1.18c-.064.381.09.765.395.99l.388.288a.975.975 0 001.043.078z" id="Path" fill="#A5E65A"/></g></g></g></svg>