<?xml version="1.0" encoding="UTF-8"?>
<svg width="362px" height="44px" viewBox="0 0 362 44" version="1.1" xmlns="http://www.w3.org/2000/svg" xmlns:xlink="http://www.w3.org/1999/xlink">
    <title>Group 43</title>
    <defs>
        <polygon id="path-1" points="0.421 0.237283784 14.9835 0.237283784 14.9835 43.7837838 0.421 43.7837838"></polygon>
    </defs>
    <g id="Page-1" stroke="none" stroke-width="1" fill="none" fill-rule="evenodd">
        <g id="Home" transform="translate(-779.000000, -4235.000000)">
            <g id="footer" transform="translate(0.000000, 4172.000000)">
                <g id="Group-43" transform="translate(779.000000, 63.000000)">
                    <path d="M110.348427,21.9490229 C110.348427,24.8529162 109.024547,27.5049228 107,29.2573342 L111.712822,34 C114.92898,31.0265381 117,26.700085 117,21.9490229 C117,17.1979609 114.92898,12.9734619 111.712822,10 L107,14.7426658 C109.024547,16.4950772 110.348427,19.0451297 110.348427,21.9490229" id="Fill-1" fill="#00A6C0"></path>
                    <g id="Group-5" transform="translate(116.000000, 0.000000)">
                        <mask id="mask-2" fill="white">
                            <use xlink:href="#path-1"></use>
                        </mask>
                        <g id="Clip-4"></g>
                        <path d="M14.9835,21.9589054 C14.9835,13.3943108 11.2385,5.71755405 5.356,0.237283784 L0.421,5.04012162 C5.0485,9.28836486 8.006,15.2685 8.006,21.9589054 C8.006,28.6493108 5.0485,34.7340405 0.421,38.9822838 L5.356,43.7839054 C11.2385,38.3036351 14.9835,30.5235 14.9835,21.9589054" id="Fill-3" fill="#A5E65A" mask="url(#mask-2)"></path>
                    </g>
                    <path d="M168.438301,9 C168.097762,9 167.794265,9.08755437 167.529003,9.25901501 C167.262546,9.43290772 167.080925,9.67976241 166.984141,9.99957907 L160.473278,29.5874374 L154.95416,15.4717272 C154.857376,15.1762312 154.682924,14.9415369 154.428416,14.7700762 C154.173908,14.5986156 153.888334,14.5110612 153.574082,14.5110612 C153.258636,14.5110612 152.979035,14.5986156 152.737671,14.7700762 C152.495112,14.9415369 152.313491,15.1762312 152.191614,15.4717272 L146.564958,29.6299986 L140.017054,9.99957907 C139.921464,9.67976241 139.738649,9.43290772 139.473387,9.25901501 C139.205735,9.08755437 138.92733,9 138.635781,9 C138.273735,9 137.910493,9.14470792 137.546057,9.42804359 C137.182816,9.71016323 137,10.0956457 137,10.589355 C137,10.7401431 137.037041,10.9237641 137.109928,11.14265 L144.85151,34.039334 C144.9471,34.3372621 145.123941,34.5634442 145.378449,34.7227445 C145.632957,34.8856929 145.880295,34.9756793 146.122855,35 C146.414404,35 146.698783,34.9221739 146.978384,34.7592255 C147.255594,34.6023572 147.467087,34.3615827 147.614056,34.039334 L153.504779,19.5892147 L159.425375,34.039334 C159.546057,34.3615827 159.739626,34.6023572 160.006083,34.7592255 C160.27254,34.9221739 160.55214,35 160.842494,35 C161.107756,34.9756793 161.374212,34.8856929 161.641864,34.7227445 C161.908321,34.5634442 162.089941,34.3372621 162.187921,34.039334 L169.892461,11.14265 C169.964154,10.9237641 170,10.7401431 170,10.589355 C170,10.0956457 169.837497,9.71016323 169.510102,9.42804359 C169.182707,9.14470792 168.82544,9 168.438301,9" id="Fill-6" fill="#FFFFFF"></path>
                    <path d="M175.040926,10 C174.388796,10 173.882925,10.1424658 173.531365,10.4164384 C173.177122,10.6945205 173,11.1260274 173,11.7082192 L173,12.2917808 C173,12.8753425 173.162362,13.309589 173.489769,13.5835616 C173.817175,13.8616438 174.320362,14 174.999329,14 C175.654143,14 176.149279,13.8616438 176.488762,13.5835616 C176.829587,13.309589 177,12.8753425 177,12.2917808 L177,11.7082192 C177,11.1260274 176.836297,10.6945205 176.510231,10.4164384 C176.184166,10.1424658 175.693056,10 175.040926,10" id="Fill-8" fill="#FFFFFF"></path>
                    <path d="M175.519481,16 C175.075081,16 174.709821,16.1416223 174.427354,16.4331976 C174.142451,16.7212026 174,17.0722831 174,17.4816787 L174,33.5159411 C174,33.9277169 174.142451,34.2752271 174.427354,34.5679925 C174.709821,34.8595678 175.075081,35 175.519481,35 C175.938312,35 176.291396,34.8595678 176.573864,34.5679925 C176.858766,34.2752271 177,33.9277169 177,33.5159411 L177,17.4816787 C177,17.0722831 176.858766,16.7212026 176.573864,16.4331976 C176.291396,16.1416223 175.938312,16 175.519481,16" id="Fill-10" fill="#FFFFFF"></path>
                    <path d="M197.519481,16 C197.075081,16 196.709821,16.1416223 196.427354,16.4331976 C196.142451,16.7212026 196,17.0722831 196,17.4816787 L196,33.5159411 C196,33.9277169 196.142451,34.2752271 196.427354,34.5679925 C196.709821,34.8595678 197.075081,35 197.519481,35 C197.938312,35 198.291396,34.8595678 198.573864,34.5679925 C198.858766,34.2752271 199,33.9277169 199,33.5159411 L199,17.4816787 C199,17.0722831 198.858766,16.7212026 198.573864,16.4331976 C198.291396,16.1416223 197.938312,16 197.519481,16" id="Fill-12" fill="#FFFFFF"></path>
                    <path d="M197.040926,10 C196.388796,10 195.882925,10.1424658 195.531365,10.4164384 C195.177122,10.6945205 195,11.1260274 195,11.7082192 L195,12.2917808 C195,12.8753425 195.162362,13.309589 195.489769,13.5835616 C195.817175,13.8616438 196.320362,14 196.999329,14 C197.654143,14 198.147937,13.8616438 198.488762,13.5835616 C198.829587,13.309589 199,12.8753425 199,12.2917808 L199,11.7082192 C199,11.1260274 198.836297,10.6945205 198.510231,10.4164384 C198.184166,10.1424658 197.693056,10 197.040926,10" id="Fill-14" fill="#FFFFFF"></path>
                    <path d="M191.269249,8.16720128 C190.800634,8.05412991 190.350764,8 189.919639,8 C188.070172,8 186.62059,8.48235766 185.568394,9.44707298 C184.516197,10.4093825 183.991349,11.6952686 183.991349,13.3059342 L183.991349,16.3793103 L181.445833,16.3793103 C181.03845,16.3793103 180.697299,16.5008019 180.418629,16.744988 C180.13996,16.989174 180,17.3199679 180,17.7301524 C180,18.1234964 180.13996,18.4446672 180.418629,18.7008821 C180.697299,18.957097 181.03845,19.0858059 181.445833,19.0858059 L183.991349,19.0858059 L183.991349,33.4987971 C183.991349,33.9161989 184.130059,34.2674419 184.409978,34.5621492 C184.688648,34.8568565 185.054792,35 185.51091,35 C185.942036,35 186.303182,34.8568565 186.595597,34.5621492 C186.886763,34.2674419 187.031722,33.9161989 187.031722,33.4987971 L187.031722,19.0858059 L190.984331,19.0858059 C191.389215,19.0858059 191.731616,18.957097 192.011535,18.7008821 C192.290205,18.4446672 192.428915,18.1234964 192.428915,17.7301524 C192.428915,17.3428228 192.290205,17.0192462 192.011535,16.7630313 C191.731616,16.5068164 191.389215,16.3793103 190.984331,16.3793103 L187.031722,16.3793103 L187.031722,13.3059342 C187.031722,12.8175621 187.112948,12.3712911 187.27915,11.9695269 C187.442853,11.5677626 187.709026,11.2465918 188.07642,11.0012029 C188.443814,10.7570168 188.919927,10.6319166 189.502259,10.6319166 C189.933385,10.6319166 190.350764,10.6956696 190.756897,10.8171612 C191.16303,10.9386528 191.479189,11.0012029 191.706623,11.0012029 C192.060271,11.0012029 192.365183,10.8712911 192.61886,10.6150762 C192.872537,10.3588613 193,10.0364876 193,9.64675221 C193,9.2329591 192.828799,8.90817963 192.486398,8.67963111 C192.143997,8.44627105 191.737864,8.27425822 191.269249,8.16720128" id="Fill-16" fill="#FFFFFF"></path>
                    <path d="M229.459806,30.9917328 C228.546252,31.7318333 227.388125,32.1043262 225.975833,32.1043262 L218.172261,32.1043262 L218.172261,23.0045094 L225.830767,23.0045094 C226.6592,23.0045094 227.454064,23.1315233 228.218955,23.3916577 C228.985045,23.651792 229.610866,24.1061111 230.097615,24.7497299 C230.581966,25.3933487 230.825341,26.3239701 230.825341,27.5330452 C230.825341,29.0938513 230.370962,30.2479684 229.459806,30.9917328 M228.474319,12.9569731 C229.169674,13.6372305 229.513756,14.6069332 229.513756,15.8709662 C229.513756,17.2339236 229.13131,18.2683545 228.36522,18.9730377 C227.599129,19.6801635 226.683178,20.0306731 225.613768,20.0306731 L218.172261,20.0306731 L218.172261,11.934755 L225.575404,11.934755 C226.816254,11.934755 227.780162,12.2730518 228.474319,12.9569731 M231.4092,22.0738879 C230.70785,21.5670534 229.934566,21.2018883 229.108531,20.9515243 C229.343513,20.8538212 229.609667,20.789093 229.82187,20.6657429 C230.759402,20.1186059 231.471542,19.3894969 231.958291,18.4710884 C232.44504,17.5575649 232.686017,16.5548875 232.686017,15.463056 C232.686017,13.4076284 232.106954,11.8175114 230.95602,10.6890413 C229.797892,9.56545634 228.142226,9 225.975833,9 L216.496214,9 C216.082597,9 215.730124,9.14777585 215.438794,9.44454883 C215.146265,9.74010052 215,10.1028231 215,10.5205035 L215,33.4770539 C215,33.8996195 215.146265,34.2562356 215.438794,34.5554512 C215.730124,34.855888 216.082597,35 216.496214,35 L226.050164,35 C227.020066,35 227.976779,34.8803138 228.914311,34.631171 C229.845848,34.3832496 230.700656,33.9728968 231.465548,33.4049979 C232.231638,32.8358777 232.843072,32.0676875 233.305843,31.1004275 C233.768614,30.1368312 234,28.948518 234,27.5330452 C234,26.2213819 233.756625,25.1210015 233.269876,24.2294612 C232.783127,23.337921 232.163301,22.6185824 231.4092,22.0738879" id="Fill-18" fill="#FFFFFF"></path>
                    <path d="M252.211313,29.7367588 C251.63964,30.8277122 250.859758,31.6836722 249.870463,32.3107269 C248.881168,32.9438695 247.7643,33.256788 246.519858,33.256788 C245.30069,33.256788 244.188636,32.9438695 243.18851,32.3107269 C242.187179,31.6836722 241.40128,30.8277122 240.825996,29.7367588 C240.25312,28.6518933 239.967885,27.4038719 239.967885,26 C239.967885,24.564471 240.25312,23.3115792 240.825996,22.2388896 C241.40128,21.1649823 242.187179,20.3151102 243.18851,19.6831852 C244.188636,19.0561305 245.30069,18.7395592 246.519858,18.7395592 C247.7643,18.7395592 248.881168,19.0561305 249.870463,19.6831852 C250.859758,20.3151102 251.63964,21.1649823 252.211313,22.2388896 C252.78419,23.3115792 253.069424,24.564471 253.069424,26 C253.069424,27.4038719 252.78419,28.6518933 252.211313,29.7367588 M251.372458,17.2955071 C249.941471,16.4334592 248.326344,16 246.519858,16 C244.737442,16 243.125926,16.4334592 241.686514,17.2955071 C240.248306,18.1612078 239.106163,19.3446974 238.263698,20.8520638 C237.42364,22.3582126 237,24.0713503 237,26 C237,27.9225618 237.42364,29.6405698 238.263698,31.1467186 C239.106163,32.654085 240.248306,33.8351394 241.686514,34.7032753 C243.125926,35.5653233 244.737442,36 246.519858,36 C248.326344,36 249.941471,35.5653233 251.372458,34.7032753 C252.795021,33.8351394 253.927535,32.654085 254.755558,31.1467186 C255.584785,29.6405698 256,27.9225618 256,26 C256,24.0713503 255.584785,22.3582126 254.755558,20.8520638 C253.927535,19.3446974 252.795021,18.1612078 251.372458,17.2955071" id="Fill-20" fill="#FFFFFF"></path>
                    <path d="M274.210593,29.7367588 C273.6352,30.8277122 272.85517,31.6836722 271.865687,32.3107269 C270.878611,32.9438695 269.762734,33.256788 268.516853,33.256788 C267.295046,33.256788 266.186391,32.9438695 265.186075,32.3107269 C264.184554,31.6836722 263.398505,30.8277122 262.82552,29.7367588 C262.250127,28.6518933 261.961227,27.4038719 261.961227,26 C261.961227,24.564471 262.250127,23.3115792 262.82552,22.2388896 C263.398505,21.1649823 264.184554,20.3151102 265.186075,19.6831852 C266.186391,19.0561305 267.295046,18.7395592 268.516853,18.7395592 C269.762734,18.7395592 270.878611,19.0561305 271.865687,19.6831852 C272.85517,20.3151102 273.6352,21.1649823 274.210593,22.2388896 C274.785986,23.3115792 275.072478,24.564471 275.072478,26 C275.072478,27.4038719 274.785986,28.6518933 274.210593,29.7367588 M273.367968,17.2955071 C271.940319,16.4334592 270.322478,16 268.516853,16 C266.735302,16 265.125887,16.4334592 263.683794,17.2955071 C262.2417,18.1612078 261.102952,19.3446974 260.260327,20.8520638 C259.417701,22.3582126 259,24.0713503 259,26 C259,27.9225618 259.417701,29.6405698 260.260327,31.1467186 C261.102952,32.654085 262.2417,33.8351394 263.683794,34.7032753 C265.125887,35.5653233 266.735302,36 268.516853,36 C270.322478,36 271.940319,35.5653233 273.367968,34.7032753 C274.79682,33.8351394 275.92353,32.654085 276.755322,31.1467186 C277.587114,29.6405698 278,27.9225618 278,26 C278,24.0713503 277.587114,22.3582126 276.755322,20.8520638 C275.92353,19.3446974 274.79682,18.1612078 273.367968,17.2955071" id="Fill-22" fill="#FFFFFF"></path>
                    <path d="M294.02492,26.4431998 C293.420176,26.0243516 292.741866,25.6834287 291.99747,25.4253014 C291.253075,25.1659564 290.475013,24.9394862 289.667025,24.7410203 C288.77799,24.4926336 287.970003,24.2405942 287.239323,23.9812492 C286.503655,23.7219043 285.92385,23.3846341 285.494918,22.9621332 C285.063493,22.543285 284.834064,21.9978084 284.809126,21.3354438 C284.809126,20.6170705 285.007382,20.0630707 285.398907,19.6649215 C285.790432,19.2728601 286.277967,18.981858 286.85902,18.7967856 C287.438826,18.6104956 288.019878,18.5203945 288.604672,18.5203945 C289.562286,18.5203945 290.442593,18.6823329 291.241852,19.0208207 C292.037371,19.3520029 292.710694,19.8402533 293.266808,20.4794837 C293.493743,20.7023012 293.779282,20.8228418 294.120931,20.8350177 C294.463827,20.8471935 294.773056,20.7534397 295.049867,20.557409 C295.403985,20.2591014 295.568575,19.9242664 295.543637,19.5565567 C295.518699,19.182759 295.392763,18.8759284 295.164581,18.6287593 C294.608466,17.962742 293.963822,17.4379642 293.228155,17.0556435 C292.493734,16.6733228 291.744351,16.4005844 290.976264,16.2422988 C290.204437,16.0791428 289.463782,16 288.753052,16 C287.488702,16 286.340312,16.2228175 285.302896,16.6660173 C284.266727,17.1092171 283.43879,17.7423597 282.822824,18.5557044 C282.199377,19.3702667 281.890147,20.3345915 281.890147,21.4438086 C281.890147,22.4081334 282.087157,23.2153902 282.476188,23.8692317 C282.871453,24.5230732 283.390161,25.0661147 284.031064,25.5007914 C284.679449,25.9305978 285.405142,26.2836966 286.213129,26.5552173 C287.022363,26.8255205 287.84656,27.0739072 288.679485,27.2967247 C289.463782,27.4951906 290.204437,27.7216608 290.895216,27.9810057 C291.593477,28.2403507 292.154579,28.5739681 292.587251,28.9806404 C293.012442,29.3873128 293.228155,29.9364422 293.228155,30.6292463 C293.228155,31.346402 293.022417,31.9198831 292.604708,32.3509071 C292.185751,32.7819311 291.667043,33.0863266 291.049831,33.2580056 C290.428878,33.4321198 289.827875,33.5283088 289.248069,33.5526604 C287.932596,33.5526604 286.821613,33.3115792 285.911381,32.8330695 C285.001148,32.3509071 284.191914,31.701936 283.482431,30.8885913 C283.204374,30.5939364 282.895144,30.4307805 282.557236,30.4064288 C282.210599,30.3820772 281.901369,30.4539145 281.624559,30.6292463 C281.219318,30.9007671 281.012334,31.2136856 281.001112,31.5728723 C280.988643,31.9308413 281.080913,32.2693291 281.284157,32.5919883 C282.269203,33.8485328 283.446271,34.7349324 284.809126,35.2402289 C286.176969,35.746743 287.55354,36 288.945074,36 C290.183239,36 291.340357,35.7832704 292.413933,35.3485937 C293.487509,34.9175697 294.355347,34.2880799 295.01246,33.4625594 C295.669573,32.6370388 296,31.6544503 296,30.5184464 C296,29.5297699 295.820447,28.7091197 295.47007,28.0552782 C295.110965,27.3990016 294.633404,26.862048 294.02492,26.4431998" id="Fill-24" fill="#FFFFFF"></path>
                    <path d="M307.683173,16.0192745 L304.455837,16.0192745 L304.455837,12.5116103 C304.455837,12.0939445 304.328703,11.7369859 304.068604,11.4419487 C303.806171,11.1444832 303.474923,11 303.076026,11 C302.671297,11 302.328385,11.1444832 302.044958,11.4419487 C301.759198,11.7369859 301.621567,12.0939445 301.621567,12.5116103 L301.621567,16.0192745 L299.348319,16.0192745 C298.993744,16.0192745 298.681158,16.1516163 298.410561,16.4102292 C298.135298,16.668842 298,16.9930187 298,17.3864016 C298,17.7567157 298.135298,18.0748217 298.410561,18.345576 C298.681158,18.6187585 298.993744,18.7535286 299.348319,18.7535286 L301.621567,18.7535286 L301.621567,30.4603126 C301.621567,31.5931097 301.779027,32.4733647 302.099777,33.1010776 C302.417029,33.7263621 302.812427,34.1768098 303.285972,34.4475641 C303.760683,34.7183184 304.23656,34.8810138 304.721769,34.9283655 C305.206977,34.9769312 305.617538,35 305.945287,35 C306.563461,35 307.118651,34.8506602 307.614357,34.5410533 C308.110063,34.2314463 308.358499,33.8587039 308.358499,33.4143269 C308.358499,33.0440127 308.260524,32.7429048 308.058742,32.509789 C307.855795,32.2778874 307.637684,32.1576871 307.400912,32.1576871 C307.16414,32.1576871 306.958859,32.2001821 306.783904,32.2900288 C306.603117,32.3738048 306.395504,32.4162999 306.158732,32.4162999 C305.899799,32.4162999 305.633867,32.3616634 305.362104,32.2511762 C305.09034,32.1394749 304.87223,31.9354986 304.704273,31.6404614 C304.539816,31.3466383 304.455837,30.9010472 304.455837,30.312187 L304.455837,18.7535286 L307.683173,18.7535286 C308.064574,18.7535286 308.37716,18.6248293 308.625596,18.3662164 C308.874032,18.1051753 309,17.7919259 309,17.4252542 C309,17.029443 308.874032,16.6979815 308.625596,16.4272272 C308.37716,16.1576871 308.064574,16.0192745 307.683173,16.0192745" id="Fill-26" fill="#FFFFFF"></path>
                    <path d="M316.837324,20.4420091 C317.421731,19.8757991 318.081031,19.4569254 318.815224,19.1817352 C319.548189,18.9114155 320.290976,18.778691 321.037446,18.778691 C321.958257,18.778691 322.837324,18.9747336 323.668508,19.3692542 C324.502149,19.7637747 325.213014,20.3275495 325.796194,21.0532725 C326.383057,21.7838661 326.726826,22.6544901 326.823818,23.6663623 L326.823818,23.9622527 L315.100061,23.9622527 C315.184776,23.5019787 315.286679,23.0587519 315.436464,22.6666667 C315.786372,21.7497717 316.25046,21.0118721 316.837324,20.4420091 M327.219153,18.4803653 C326.383057,17.6657534 325.437692,17.0484018 324.380602,16.6295282 C323.322284,16.2106545 322.207489,16 321.037446,16 C319.494168,16 318.031921,16.4006088 316.649478,17.2018265 C315.26949,18.0066971 314.148557,19.164688 313.287907,20.683105 C312.430939,22.2027397 312,24.035312 312,26.1832572 C312,28.109589 312.418662,29.8094368 313.251074,31.274277 C314.084715,32.7452055 315.251074,33.8995434 316.744015,34.7409437 C318.235727,35.578691 319.980356,36 321.970534,36 C323.316145,36 324.586863,35.7138508 325.777778,35.1476408 C326.976059,34.5777778 327.920196,33.9117199 328.617557,33.1458143 C329.04113,32.7987823 329.254758,32.4200913 329.254758,31.9975647 C329.254758,31.6541857 329.127072,31.3582953 328.879067,31.1123288 C328.628607,30.8651446 328.319214,30.7385084 327.948435,30.7385084 C327.647637,30.7385084 327.334561,30.852968 327.011664,31.0721461 C326.689994,31.4191781 326.288521,31.7564688 325.817066,32.0913242 C325.344383,32.4261796 324.791897,32.7025875 324.155924,32.9254186 C323.519951,33.1458143 322.75752,33.2578387 321.858809,33.2578387 C320.491099,33.2578387 319.28054,32.9449011 318.235727,32.3117199 C317.189687,31.6846271 316.375691,30.8286149 315.791283,29.7375951 C315.286679,28.8012177 315.043585,27.7101979 314.973603,26.5181126 L328.471455,26.5181126 C328.865562,26.5181126 329.21547,26.3853881 329.516268,26.1260274 C329.813382,25.8678843 329.975445,25.5415525 330,25.147032 C329.975445,23.7394216 329.713935,22.4791476 329.21547,21.3710807 C328.717004,20.2581431 328.051565,19.2974125 327.219153,18.4803653" id="Fill-28" fill="#FFFFFF"></path>
                    <path d="M344.344186,15.3958307 C343.909302,15.13153 343.431395,15 342.913953,15 C342.04186,15 341.238372,15.1687554 340.510465,15.5099888 C339.77907,15.8474997 339.12907,16.3140588 338.563953,16.903462 C337.997674,17.4965877 337.531395,18.1629234 337.165116,18.9061918 C337.034884,19.1742152 336.934884,19.445961 336.831395,19.7177069 L336.831395,17.0387145 C336.831395,16.5845638 336.7,16.2123092 336.440698,15.9244323 C336.181395,15.6353146 335.84186,15.4913761 335.415116,15.4913761 C335.013953,15.4913761 334.67907,15.6353146 334.40814,15.9244323 C334.138372,16.2123092 334,16.5845638 334,17.0387145 L334,33.4526616 C334,33.8819953 334.138372,34.2443231 334.40814,34.5495719 C334.67907,34.8535798 335.013953,35 335.415116,35 C335.816279,35 336.152326,34.8535798 336.423256,34.5495719 C336.694186,34.2443231 336.831395,33.8819953 336.831395,33.4526616 L336.831395,24.2815486 C336.831395,23.3782107 336.975581,22.530711 337.272093,21.7378087 C337.568605,20.9424246 337.954651,20.2388634 338.438372,19.6221616 C338.922093,19.0042189 339.451163,18.5227696 340.032558,18.1691277 C340.60814,17.8192083 341.19186,17.641767 341.782558,17.641767 C342.205814,17.641767 342.559302,17.714977 342.84186,17.8688423 C343.123256,18.018985 343.419767,18.0959176 343.727907,18.0959176 C344.055814,18.0959176 344.35,17.9606651 344.609302,17.6963643 C344.87093,17.4320635 345,17.0387145 345,16.5101129 C345,16.0311453 344.781395,15.6601315 344.344186,15.3958307" id="Fill-30" fill="#FFFFFF"></path>
                    <g id="Group-34" transform="translate(347.000000, 15.000000)" fill="#FFFFFF">
                        <path d="M14.2872615,12.3136667 C13.9377231,11.6536667 13.4614154,11.1158889 12.8644923,10.6954444 C12.2675692,10.275 11.5968,9.93277778 10.8608,9.67244444 C10.1260308,9.41211111 9.35803077,9.186 8.56049231,8.98555556 C7.68541538,8.73744444 6.88664615,8.48444444 6.16172308,8.22411111 C5.43803077,7.96377778 4.86449231,7.62522222 4.44110769,7.20111111 C4.01772308,6.78066667 3.79249231,6.23311111 3.76787692,5.567 C3.76787692,4.84711111 3.96233846,4.291 4.34633846,3.89133333 C4.73649231,3.49777778 5.21526154,3.20444444 5.79126154,3.01988889 C6.36356923,2.83288889 6.93587692,2.74122222 7.51187692,2.74122222 C8.45956923,2.74122222 9.3248,2.905 10.1137231,3.24477778 C10.9001846,3.57722222 11.5672615,4.06611111 12.1149538,4.70777778 C12.3401846,4.93144444 12.6208,5.05366667 12.9555692,5.06466667 C13.2964923,5.07811111 13.6017231,4.98277778 13.8761846,4.78722222 C14.2232615,4.48777778 14.3881846,4.15166667 14.3635692,3.78255556 C14.3364923,3.40733333 14.2109538,3.09811111 13.9857231,2.85122222 C13.4380308,2.18144444 12.8041846,1.65588889 12.0780308,1.27088889 C11.3531077,0.887111111 10.6109538,0.614555556 9.85156923,0.454444444 C9.08972308,0.291888889 8.35987692,0.212444444 7.6608,0.212444444 C6.4128,0.212444444 5.27926154,0.436111111 4.25526154,0.881 C3.23249231,1.32588889 2.41526154,1.96144444 1.80233846,2.77788889 C1.19064615,3.59555556 0.885415385,4.56355556 0.885415385,5.67577778 C0.885415385,6.64377778 1.07864615,7.45533333 1.46510769,8.11166667 C1.85156923,8.768 2.36356923,9.31311111 2.99987692,9.74822222 C3.63741538,10.1808889 4.35372308,10.5353333 5.15126154,10.8078889 C5.95003077,11.0792222 6.76233846,11.3273333 7.58818462,11.551 C8.35987692,11.7514444 9.08972308,11.9787778 9.77526154,12.2378889 C10.4644923,12.4982222 11.0183385,12.8343333 11.4417231,13.2425556 C11.8651077,13.6507778 12.0780308,14.202 12.0780308,14.8974444 C12.0780308,15.6173333 11.8712615,16.1917778 11.4601846,16.6244444 C11.0491077,17.0571111 10.5371077,17.3626667 9.92787692,17.535 C9.31249231,17.711 8.72172308,17.8075556 8.14941538,17.832 C6.85095385,17.832 5.75064615,17.59 4.85218462,17.1084444 C3.95618462,16.6244444 3.15495385,15.9742222 2.45833846,15.1577778 C2.18387692,14.8607778 1.87864615,14.6982222 1.54141538,14.6737778 C1.20295385,14.6493333 0.897723077,14.7214444 0.623261538,14.8974444 C0.222030769,15.17 0.0177230769,15.4841111 0.00541538462,15.8446667 C-0.00689230769,16.204 0.0878769231,16.5425556 0.286030769,16.8676667 C1.25710769,18.1277778 2.42141538,19.0175556 3.76787692,19.526 C5.11433846,20.0344444 6.47310769,20.2886667 7.85033846,20.2886667 C9.0688,20.2886667 10.2134154,20.0711111 11.2743385,19.6347778 C12.3340308,19.2021111 13.1869538,18.5702222 13.8392615,17.7415556 C14.4854154,16.9128889 14.8115692,15.9265556 14.8115692,14.785 C14.8115692,13.7925556 14.6380308,12.97 14.2872615,12.3136667" id="Fill-32"></path>
                    </g>
                    <polygon id="Fill-35" fill="#FFFFFF" points="21 12.4489873 14.0425239 12.4489873 14.0425239 32 6.95747607 32 6.95747607 12.4489873 0 12.4489873 0 6 21 6"></polygon>
                    <path d="M36.019736,25.4127488 C39.8939724,25.4127488 42.6988765,22.5213151 42.6988765,18.5006039 C42.6988765,14.4786849 39.8939724,11.588459 36.019736,11.588459 C32.1454996,11.588459 29.2999274,14.4992172 29.2999274,18.5006039 C29.2999274,22.5007828 32.1454996,25.411541 36.019736,25.411541 L36.019736,25.4127488 Z M22,18.4993961 C22,10.6439723 27.8382673,5 36.019736,5 C44.1820667,5 50,10.6234399 50,18.4993961 C50,26.3753523 44.1820667,32 36.019736,32 C27.8382673,32 22,26.35482 22,18.4993961 L22,18.4993961 Z" id="Fill-37" fill="#FFFFFF"></path>
                    <path d="M67.5310748,15.4103383 C67.5310748,13.5617481 66.2693148,12.2556391 64.3568435,12.2556391 L61.2817683,12.2556391 L61.2817683,18.5650376 L64.3568435,18.5650376 C66.2693148,18.5650376 67.5310748,17.2577068 67.5310748,15.4103383 M75,15.3932331 C75,20.8461466 70.8354483,24.8182331 65.2281768,24.8182331 L61.2817683,24.8182331 L61.2817683,32 L54,32 L54,6 L65.2281768,6 C70.8354483,6 75,9.94154135 75,15.3932331" id="Fill-39" fill="#FFFFFF"></path>
                    <path d="M90.3667457,14.692139 C96.0766028,14.692139 100,18.1757873 100,23.1586657 C100,28.3198507 96.0327932,32 90.4701851,32 C84.9136617,32 81,28.3526009 81,23.1974808 L87.5385896,23.1974808 C87.5385896,24.9235363 88.7555242,26.1571262 90.4701851,26.1571262 C92.1495549,26.1571262 93.3701403,24.8786564 93.3701403,23.1574528 C93.3701403,21.3319338 92.0874912,20.0862141 90.2170627,20.0862141 L82.2814321,20.0862141 L81.632806,19.2468393 L83.0566195,6 L98.1709473,6 L98.1709473,11.7919291 L88.3162108,11.7919291 L87.9912893,14.692139 L90.3643118,14.692139 L90.3667457,14.692139 Z" id="Fill-41" fill="#FFFFFF"></path>
                </g>
            </g>
        </g>
    </g>
</svg>