<svg width="59" height="60" xmlns="http://www.w3.org/2000/svg"><g id="Page-1" stroke="none" stroke-width="1" fill="none" fill-rule="evenodd" stroke-linecap="round" stroke-linejoin="round"><g id="Home" transform="translate(-388 -1775)" stroke="#00A6C0" stroke-width="3"><g id="Group" transform="translate(389 1777)"><path d="M14.402 0H9.75C4.633 0 .504 4.169.504 9.333c0 0 0 0 0 0v4.636M.536 42v4.667h0c0 5.133 4.129 9.302 9.244 9.302h4.591M42.134 56h4.622l-.03-.003c5.083 0 9.243-4.2 9.243-9.333v-4.698M56 14V9.333h0C56 4.17 51.84 0 46.756 0h-4.622m-16.92 25.667h3.544v13.222m-3.571 0h7.117m-3.728-22.587h-.03a.81.81 0 01-.802.747.814.814 0 01-.77-.809c0-.436.339-.778.74-.778h-.032c.401-.03.77.342.77.747 0 0 0 0 0 0" id="Path"/></g></g></g></svg>