<svg width="362" height="44" xmlns="http://www.w3.org/2000/svg" xmlns:xlink="http://www.w3.org/1999/xlink"><defs><path id="path-1" d="M.421.237h14.563v43.547H.42z"/></defs><g id="Page-1" stroke="none" stroke-width="1" fill="none" fill-rule="evenodd"><g id="Home" transform="translate(-779 -4235)"><g id="footer" transform="translate(0 4172)"><g id="Group-43" transform="translate(779 63)"><path d="M110.348 21.949A9.716 9.716 0 01107 29.257L111.713 34c3.216-2.973 5.287-7.3 5.287-12.051s-2.071-8.976-5.287-11.949L107 14.743c2.025 1.752 3.348 4.302 3.348 7.206" id="Fill-1" fill="#00A6C0"/><g id="Group-5" transform="translate(116)"><mask id="mask-2" fill="#fff"><use xlink:href="#path-1"/></mask><path d="M14.983 21.959c0-8.565-3.745-16.241-9.627-21.722L.421 5.04c4.627 4.248 7.585 10.228 7.585 16.92 0 6.69-2.958 12.775-7.585 17.023l4.935 4.802c5.883-5.48 9.627-13.26 9.627-21.825" id="Fill-3" fill="#A5E65A" mask="url(#mask-2)"/></g><path d="M168.438 9c-.34 0-.644.088-.909.259-.266.174-.448.42-.545.74l-6.51 19.588-5.52-14.115a1.315 1.315 0 00-.526-.702 1.498 1.498 0 00-.854-.259 1.41 1.41 0 00-.836.26 1.569 1.569 0 00-.546.7l-5.627 14.159L140.017 10a1.302 1.302 0 00-.544-.741 1.53 1.53 0 00-.837-.259c-.362 0-.726.145-1.09.428-.363.282-.546.668-.546 1.161 0 .151.037.335.11.554l7.742 22.896c.095.298.272.524.526.684.255.163.502.253.745.277.291 0 .576-.078.855-.24a1.52 1.52 0 00.636-.72l5.89-14.45 5.921 14.45c.121.322.315.562.581.72.267.162.546.24.836.24a1.85 1.85 0 00.8-.277 1.21 1.21 0 00.546-.684l7.704-22.896c.072-.22.108-.403.108-.554 0-.493-.163-.879-.49-1.161-.327-.283-.685-.428-1.072-.428" id="Fill-6" fill="#FFF"/><path d="M175.04 10c-.651 0-1.157.142-1.509.416-.354.279-.531.71-.531 1.292v.584c0 .583.162 1.018.49 1.292.327.278.83.416 1.51.416.654 0 1.15-.138 1.489-.416.34-.274.511-.709.511-1.292v-.584c0-.582-.164-1.013-.49-1.292-.326-.274-.817-.416-1.47-.416" id="Fill-8" fill="#FFF"/><path d="M175.52 16c-.445 0-.81.142-1.093.433a1.44 1.44 0 00-.427 1.049v16.034c0 .412.142.76.427 1.052.283.292.648.432 1.092.432.42 0 .772-.14 1.055-.432.285-.293.426-.64.426-1.052V17.482c0-.41-.141-.76-.426-1.049a1.407 1.407 0 00-1.055-.433" id="Fill-10" fill="#FFF"/><path d="M197.52 16c-.445 0-.81.142-1.093.433a1.44 1.44 0 00-.427 1.049v16.034c0 .412.142.76.427 1.052.283.292.648.432 1.092.432.42 0 .772-.14 1.055-.432.285-.293.426-.64.426-1.052V17.482c0-.41-.141-.76-.426-1.049a1.407 1.407 0 00-1.055-.433" id="Fill-12" fill="#FFF"/><path d="M197.04 10c-.651 0-1.157.142-1.509.416-.354.279-.531.71-.531 1.292v.584c0 .583.162 1.018.49 1.292.327.278.83.416 1.51.416.654 0 1.148-.138 1.489-.416.34-.274.511-.709.511-1.292v-.584c0-.582-.164-1.013-.49-1.292-.326-.274-.817-.416-1.47-.416" id="Fill-14" fill="#FFF"/><path d="M191.27 8.167A5.745 5.745 0 00189.92 8c-1.85 0-3.3.482-4.352 1.447-1.052.962-1.577 2.248-1.577 3.859v3.073h-2.545c-.408 0-.749.122-1.027.366-.279.244-.419.575-.419.985 0 .393.14.715.419.97.278.257.62.386 1.027.386h2.545v14.413c0 .417.14.768.419 1.063.279.295.645.438 1.1.438.432 0 .793-.143 1.086-.438.29-.295.436-.646.436-1.063V19.086h3.952a1.47 1.47 0 001.028-.385 1.26 1.26 0 00.417-.97c0-.388-.139-.712-.417-.968a1.465 1.465 0 00-1.028-.384h-3.952v-3.073c0-.488.08-.935.247-1.336.164-.402.43-.723.797-.969.368-.244.844-.37 1.426-.37.431 0 .849.065 1.255.186.406.122.722.184.95.184.353 0 .658-.13.912-.386a1.32 1.32 0 00.381-.968 1.1 1.1 0 00-.514-.967 3.541 3.541 0 00-1.217-.513" id="Fill-16" fill="#FFF"/><path d="M229.46 30.992c-.914.74-2.072 1.112-3.484 1.112h-7.804v-9.1h7.659c.828 0 1.623.128 2.388.388.766.26 1.392.714 1.879 1.358.484.643.727 1.574.727 2.783 0 1.56-.454 2.715-1.365 3.459m-.986-18.035c.696.68 1.04 1.65 1.04 2.914 0 1.363-.383 2.397-1.149 3.102-.766.707-1.682 1.058-2.751 1.058h-7.442v-8.096h7.403c1.241 0 2.205.338 2.9 1.022m2.934 9.117a7.713 7.713 0 00-2.3-1.122c.235-.098.5-.163.713-.286.937-.547 1.65-1.277 2.136-2.195.487-.913.728-1.916.728-3.008 0-2.055-.579-3.645-1.73-4.774C229.798 9.565 228.142 9 225.976 9h-9.48c-.413 0-.766.148-1.057.445A1.48 1.48 0 00215 10.52v22.956c0 .423.146.78.439 1.078.291.3.644.445 1.057.445h9.554c.97 0 1.927-.12 2.864-.369a7.474 7.474 0 002.552-1.226c.766-.57 1.377-1.337 1.84-2.305.463-.963.694-2.151.694-3.567 0-1.312-.243-2.412-.73-3.304-.487-.891-1.107-1.61-1.86-2.155" id="Fill-18" fill="#FFF"/><path d="M252.211 29.737c-.571 1.09-1.351 1.947-2.34 2.574-.99.633-2.107.946-3.351.946-1.22 0-2.331-.313-3.331-.946-1.002-.627-1.788-1.483-2.363-2.574-.573-1.085-.858-2.333-.858-3.737 0-1.436.285-2.688.858-3.761a6.703 6.703 0 012.363-2.556c1-.627 2.112-.943 3.33-.943 1.245 0 2.362.316 3.351.943a6.715 6.715 0 012.341 2.556c.573 1.073.858 2.325.858 3.761 0 1.404-.285 2.652-.858 3.737m-.839-12.441c-1.43-.863-3.046-1.296-4.852-1.296-1.783 0-3.394.433-4.833 1.296-1.439.865-2.58 2.049-3.423 3.556-.84 1.506-1.264 3.22-1.264 5.148 0 1.923.424 3.64 1.264 5.147a9.471 9.471 0 003.423 3.556c1.439.862 3.05 1.297 4.833 1.297 1.806 0 3.421-.435 4.852-1.297a9.38 9.38 0 003.384-3.556C255.585 29.64 256 27.923 256 26c0-1.929-.415-3.642-1.244-5.148a9.363 9.363 0 00-3.384-3.556" id="Fill-20" fill="#FFF"/><path d="M274.21 29.737c-.575 1.09-1.355 1.947-2.344 2.574-.987.633-2.103.946-3.35.946-1.221 0-2.33-.313-3.33-.946-1.001-.627-1.787-1.483-2.36-2.574-.576-1.085-.865-2.333-.865-3.737 0-1.436.29-2.688.865-3.761a6.679 6.679 0 012.36-2.556c1-.627 2.109-.943 3.33-.943 1.247 0 2.363.316 3.35.943a6.753 6.753 0 012.345 2.556c.575 1.073.861 2.325.861 3.761 0 1.404-.286 2.652-.861 3.737m-.843-12.441c-1.428-.863-3.046-1.296-4.851-1.296-1.782 0-3.391.433-4.833 1.296-1.442.865-2.581 2.049-3.424 3.556-.842 1.506-1.26 3.22-1.26 5.148 0 1.923.418 3.64 1.26 5.147.843 1.507 1.982 2.688 3.424 3.556 1.442.862 3.051 1.297 4.833 1.297 1.805 0 3.423-.435 4.851-1.297 1.429-.868 2.556-2.049 3.387-3.556C277.587 29.64 278 27.923 278 26c0-1.929-.413-3.642-1.245-5.148-.831-1.507-1.958-2.69-3.387-3.556" id="Fill-22" fill="#FFF"/><path d="M294.025 26.443a8.352 8.352 0 00-2.028-1.018 25.772 25.772 0 00-2.33-.684 36.73 36.73 0 01-2.428-.76c-.735-.26-1.315-.596-1.744-1.019-.432-.419-.66-.964-.686-1.627 0-.718.198-1.272.59-1.67a3.55 3.55 0 011.46-.868 5.67 5.67 0 011.746-.277c.957 0 1.838.162 2.637.5.795.332 1.469.82 2.025 1.46.227.222.512.343.854.355.343.012.652-.082.929-.278.354-.298.519-.633.494-1a1.462 1.462 0 00-.38-.928 6.285 6.285 0 00-1.936-1.573 8.642 8.642 0 00-2.252-.814 10.738 10.738 0 00-2.223-.242c-1.264 0-2.413.223-3.45.666-1.036.443-1.864 1.076-2.48 1.89-.624.814-.933 1.779-.933 2.888 0 .964.197 1.771.586 2.425a5.208 5.208 0 001.555 1.632c.648.43 1.374.783 2.182 1.054.81.27 1.634.519 2.466.742a20.85 20.85 0 012.216.684c.698.26 1.26.593 1.692 1 .425.406.641.955.641 1.648 0 .717-.206 1.29-.623 1.722a3.395 3.395 0 01-1.555.907 7.892 7.892 0 01-1.802.295c-1.315 0-2.426-.241-3.337-.72a8.474 8.474 0 01-2.429-1.944c-.278-.295-.587-.458-.925-.483a1.496 1.496 0 00-.932.223c-.406.272-.613.585-.624.944-.012.358.08.696.283 1.019.985 1.257 2.162 2.143 3.525 2.648 1.368.507 2.745.76 4.136.76 1.238 0 2.395-.217 3.469-.651 1.074-.431 1.941-1.06 2.598-1.886.658-.826.988-1.809.988-2.945 0-.988-.18-1.809-.53-2.463a4.604 4.604 0 00-1.445-1.612" id="Fill-24" fill="#FFF"/><path d="M307.683 16.02h-3.227v-3.508a1.56 1.56 0 00-.387-1.07 1.264 1.264 0 00-.993-.442c-.405 0-.748.144-1.031.442a1.477 1.477 0 00-.423 1.07v3.507h-2.274a1.32 1.32 0 00-.937.391 1.277 1.277 0 00-.411.976c0 .37.135.689.41.96.271.273.584.408.938.408h2.274V30.46c0 1.133.157 2.013.478 2.641.317.625.712 1.076 1.186 1.347.475.27.95.433 1.436.48.485.049.896.072 1.223.072.618 0 1.174-.15 1.67-.459.495-.31.743-.682.743-1.127 0-.37-.097-.671-.3-.904-.202-.232-.42-.352-.657-.352a1.33 1.33 0 00-.617.132 1.47 1.47 0 01-.625.126c-.26 0-.525-.054-.797-.165-.272-.112-.49-.316-.658-.61-.164-.294-.248-.74-.248-1.329V18.754h3.227c.382 0 .694-.13.943-.388.248-.26.374-.574.374-.94a1.42 1.42 0 00-.374-.999 1.227 1.227 0 00-.943-.408" id="Fill-26" fill="#FFF"/><path d="M316.837 20.442a5.686 5.686 0 011.978-1.26 6.384 6.384 0 012.222-.403c.921 0 1.8.196 2.632.59a5.99 5.99 0 012.127 1.684c.587.73.93 1.601 1.028 2.613v.296H315.1c.085-.46.187-.903.336-1.295.35-.917.814-1.655 1.401-2.225m10.382-1.962a8.549 8.549 0 00-2.838-1.85 9.004 9.004 0 00-3.344-.63c-1.543 0-3.005.4-4.388 1.202-1.38.805-2.5 1.963-3.361 3.481-.857 1.52-1.288 3.352-1.288 5.5 0 1.927.419 3.626 1.251 5.091a9.03 9.03 0 003.493 3.467c1.492.838 3.236 1.259 5.227 1.259a8.763 8.763 0 003.807-.852c1.198-.57 2.142-1.236 2.84-2.002.423-.347.637-.726.637-1.148 0-.344-.128-.64-.376-.886a1.274 1.274 0 00-.93-.373c-.301 0-.614.114-.937.333a7.72 7.72 0 01-1.195 1.02 6.665 6.665 0 01-1.661.833c-.636.22-1.398.333-2.297.333-1.368 0-2.578-.313-3.623-.946a6.543 6.543 0 01-2.445-2.574c-.504-.937-.747-2.028-.817-3.22h13.497c.395 0 .744-.133 1.045-.392.297-.258.46-.584.484-.979-.025-1.408-.286-2.668-.785-3.776a9.37 9.37 0 00-1.996-2.89" id="Fill-28" fill="#FFF"/><path d="M344.344 15.396a2.704 2.704 0 00-1.43-.396c-.872 0-1.676.169-2.404.51a6.39 6.39 0 00-1.946 1.393 8.006 8.006 0 00-1.399 2.003c-.13.268-.23.54-.334.812v-2.68c0-.453-.131-.826-.39-1.114-.26-.289-.6-.433-1.026-.433-.401 0-.736.144-1.007.433-.27.288-.408.66-.408 1.115v16.414c0 .429.138.791.408 1.097.271.304.606.45 1.007.45a1.29 1.29 0 001.008-.45c.271-.306.408-.668.408-1.097v-9.171a7.2 7.2 0 01.441-2.544 7.819 7.819 0 011.166-2.116c.484-.618 1.013-1.1 1.595-1.453.575-.35 1.159-.527 1.75-.527.423 0 .776.073 1.059.227.281.15.578.227.886.227.328 0 .622-.135.881-.4.262-.264.391-.657.391-1.186 0-.479-.219-.85-.656-1.114" id="Fill-30" fill="#FFF"/><g id="Group-34" transform="translate(347 15)" fill="#FFF"><path d="M14.287 12.314a4.564 4.564 0 00-1.423-1.619 8.232 8.232 0 00-2.003-1.023 25.507 25.507 0 00-2.3-.686 36.936 36.936 0 01-2.4-.762c-.723-.26-1.297-.599-1.72-1.023-.423-.42-.649-.968-.673-1.634 0-.72.194-1.276.578-1.676.39-.393.87-.687 1.445-.871a5.503 5.503 0 011.72-.279c.949 0 1.814.164 2.603.504a5.318 5.318 0 012.001 1.463c.225.223.506.346.84.357.341.013.647-.082.921-.278.347-.3.512-.635.488-1.004-.028-.376-.153-.685-.378-.932a6.201 6.201 0 00-1.908-1.58A8.49 8.49 0 009.852.454 10.49 10.49 0 007.66.212c-1.248 0-2.382.224-3.406.669-1.023.445-1.84 1.08-2.453 1.897-.611.818-.917 1.786-.917 2.898 0 .968.194 1.78.58 2.436A5.093 5.093 0 003 9.748a8.98 8.98 0 002.151 1.06c.799.271 1.611.52 2.437.743.772.2 1.502.428 2.187.687.69.26 1.243.596 1.667 1.005.423.408.636.959.636 1.654 0 .72-.207 1.295-.618 1.727a3.318 3.318 0 01-1.532.911 7.632 7.632 0 01-1.779.297c-1.298 0-2.398-.242-3.297-.724a8.355 8.355 0 01-2.394-1.95c-.274-.297-.58-.46-.917-.484a1.457 1.457 0 00-.918.223c-.401.273-.605.587-.618.948-.012.359.083.698.281 1.023.971 1.26 2.135 2.15 3.482 2.658 1.346.508 2.705.763 4.082.763a8.925 8.925 0 003.424-.654c1.06-.433 1.913-1.065 2.565-1.893.646-.83.973-1.815.973-2.957 0-.992-.174-1.815-.525-2.471" id="Fill-32"/></g><path id="Fill-35" fill="#FFF" d="M21 12.449h-6.957V32H6.957V12.449H0V6h21z"/><path d="M36.02 25.413c3.874 0 6.679-2.892 6.679-6.912 0-4.022-2.805-6.913-6.68-6.913-3.874 0-6.72 2.911-6.72 6.913 0 4 2.846 6.91 6.72 6.91v.002zM22 18.499C22 10.644 27.838 5 36.02 5 44.182 5 50 10.623 50 18.5 50 26.374 44.182 32 36.02 32 27.838 32 22 26.355 22 18.5z" id="Fill-37" fill="#FFF"/><path d="M67.531 15.41c0-1.848-1.262-3.154-3.174-3.154h-3.075v6.309h3.075c1.912 0 3.174-1.307 3.174-3.155M75 15.393c0 5.453-4.165 9.425-9.772 9.425h-3.946V32H54V6h11.228C70.835 6 75 9.942 75 15.393" id="Fill-39" fill="#FFF"/><path d="M90.367 14.692c5.71 0 9.633 3.484 9.633 8.467 0 5.16-3.967 8.841-9.53 8.841-5.556 0-9.47-3.647-9.47-8.803h6.539c0 1.727 1.217 2.96 2.931 2.96 1.68 0 2.9-1.278 2.9-3 0-1.825-1.283-3.07-3.153-3.07h-7.936l-.648-.84L83.057 6H98.17v5.792h-9.855l-.325 2.9h2.377z" id="Fill-41" fill="#FFF"/></g></g></g></g></svg>