<svg width="42" height="42" xmlns="http://www.w3.org/2000/svg"><g stroke-width="3" fill="none" fill-rule="evenodd" stroke-linecap="round" stroke-linejoin="round"><path d="M16.778 21H6.222A4.221 4.221 0 0 1 2 16.778V6.222A4.221 4.221 0 0 1 6.222 2h10.556A4.221 4.221 0 0 1 21 6.222v10.556A4.221 4.221 0 0 1 16.778 21Zm17.944 16.889H28.39a3.168 3.168 0 0 1-3.167-3.167V28.39a3.168 3.168 0 0 1 3.167-3.167h6.333a3.168 3.168 0 0 1 3.167 3.167v6.333a3.168 3.168 0 0 1-3.167 3.167Z" stroke="#030508"/><path d="M36.833 18.889H30.5a3.168 3.168 0 0 1-3.167-3.167V9.39A3.168 3.168 0 0 1 30.5 6.222h6.333A3.168 3.168 0 0 1 40 9.39v6.333a3.168 3.168 0 0 1-3.167 3.167ZM15.722 40H9.39a3.168 3.168 0 0 1-3.167-3.167V30.5a3.168 3.168 0 0 1 3.167-3.167h6.333A3.168 3.168 0 0 1 18.89 30.5v6.333A3.168 3.168 0 0 1 15.722 40Z" stroke="#B7094C"/></g></svg>