<svg width="42" height="40" xmlns="http://www.w3.org/2000/svg"><g stroke-width="3" fill="none" fill-rule="evenodd" stroke-linecap="round" stroke-linejoin="round"><path stroke="#B7094C" d="M22.308 11.498v8.862l6.965 4.246"/><path d="M5.81 17.243h0C6.863 7.83 15.345 1.055 24.757 2.107c9.411 1.052 16.188 9.535 15.135 18.946-.97 8.681-8.312 15.245-17.047 15.242" stroke="#030508"/><path stroke="#B7094C" d="m12.16 29.308-3.174 3.176-1.905-1.905"/><path d="M13.431 38.2h-7.62 0A3.81 3.81 0 0 1 2 34.39s0 0 0 0v-7.621h0a3.81 3.81 0 0 1 3.81-3.81h7.621a3.81 3.81 0 0 1 3.81 3.81v7.62h0a3.81 3.81 0 0 1-3.81 3.811s0 0 0 0h0Z" stroke="#030508"/></g></svg>