<svg width="120" height="40" xmlns="http://www.w3.org/2000/svg" xmlns:xlink="http://www.w3.org/1999/xlink"><defs><path id="a" d="M0 0h14.094v24.125H0z"/></defs><g fill="none" fill-rule="evenodd"><path fill="#B7094C" d="M41.045 39.459h32.84V0h-32.84z"/><path d="M5.464 33.607c-1.522 0-2.548-.323-3.079-.968-.53-.646-.795-1.635-.795-2.969V14.947H0v-4.3h1.59V5.64h5.48v5.008h1.591v4.299h-1.59v13.4c0 .389.062.662.188.82.126.157.368.235.725.235.252 0 .477-.02.677-.062v3.842c-.126.042-.52.123-1.181.244a11.2 11.2 0 0 1-2.016.181m4.992-.252V5.64h5.795v6.44c.304-.881.772-1.535 1.401-1.96.63-.425 1.365-.638 2.205-.638 1.638 0 2.83.515 3.575 1.544.745 1.029 1.118 2.41 1.118 4.141v18.188h-5.7V15.53c0-.515-.109-.935-.324-1.26-.215-.326-.554-.489-1.015-.489-.389 0-.696.169-.921.504-.226.337-.339.735-.339 1.197v17.873h-5.795Zm21.715-14.093h2.677V16.08c0-.85-.105-1.462-.315-1.835-.21-.372-.525-.559-.944-.559-.452 0-.801.179-1.048.536-.246.356-.37.976-.37 1.858v3.18Zm1.197 14.345c-1.68 0-3.018-.315-4.015-.945-.998-.63-1.712-1.538-2.142-2.724-.43-1.186-.646-2.614-.646-4.283v-9.496c0-2.194.63-3.855 1.89-4.984 1.26-1.128 2.992-1.692 5.196-1.692 4.536 0 6.803 2.225 6.803 6.676v1.717c0 2.078-.02 3.475-.063 4.189h-8.188v4.566c0 .42.026.832.078 1.236.053.405.171.738.355 1 .183.263.48.394.89.394.587 0 .955-.255 1.102-.764.147-.509.22-1.173.22-1.992v-2.268h5.606v1.34c0 1.763-.218 3.24-.653 4.432-.436 1.191-1.17 2.09-2.205 2.693-1.034.603-2.443.905-4.228.905Zm16.204-15.668c.976 0 1.465-.656 1.465-1.968v-3.433c0-1.365-.463-2.048-1.386-2.048-.651 0-1.04.276-1.166.827-.126.551-.189 1.257-.189 2.118v2.236c0 1.512.425 2.268 1.276 2.268m-.284 15.668a8.68 8.68 0 0 1-3.26-.606c-1.007-.404-1.82-1.01-2.44-1.82-.62-.807-.93-1.81-.93-3.007v-2.992h5.34v.567c0 .462.023.924.07 1.386.047.462.168.845.362 1.15.195.304.512.456.953.456.62 0 1.05-.17 1.291-.511.241-.341.363-.832.363-1.473v-5.559c-.263.484-.657.877-1.182 1.181-.525.305-1.165.457-1.92.457-1.523 0-2.699-.307-3.528-.921-.83-.614-1.402-1.53-1.717-2.748-.315-1.218-.472-2.74-.472-4.567 0-1.847.226-3.461.677-4.842.451-1.38 1.205-2.454 2.26-3.22 1.055-.766 2.485-1.15 4.291-1.15 1.931 0 3.438.328 4.52.984 1.08.657 1.844 1.644 2.29 2.96.447 1.318.67 2.97.67 4.953v7.496c0 1.921-.082 3.617-.244 5.086-.163 1.47-.502 2.704-1.016 3.7a5.111 5.111 0 0 1-2.3 2.268c-1.018.515-2.377.772-4.078.772m16.22-15.668c.977 0 1.465-.656 1.465-1.968v-3.433c0-1.365-.463-2.048-1.386-2.048-.651 0-1.04.276-1.165.827-.126.551-.19 1.257-.19 2.118v2.236c0 1.512.426 2.268 1.276 2.268m-.283 15.668a8.68 8.68 0 0 1-3.26-.606c-1.008-.404-1.822-1.01-2.44-1.82-.62-.807-.93-1.81-.93-3.007v-2.992h5.339v.567c0 .462.023.924.07 1.386.048.462.168.845.362 1.15.195.304.512.456.953.456.62 0 1.05-.17 1.291-.511.242-.341.363-.832.363-1.473v-5.559c-.263.484-.656.877-1.181 1.181-.525.305-1.166.457-1.921.457-1.523 0-2.699-.307-3.528-.921-.83-.614-1.401-1.53-1.716-2.748-.315-1.218-.473-2.74-.473-4.567 0-1.847.226-3.461.677-4.842.451-1.38 1.205-2.454 2.26-3.22 1.055-.766 2.485-1.15 4.291-1.15 1.932 0 3.438.328 4.52.984 1.081.657 1.844 1.644 2.29 2.96.447 1.318.67 2.97.67 4.953v7.496c0 1.921-.081 3.617-.244 5.086-.163 1.47-.502 2.704-1.016 3.7a5.111 5.111 0 0 1-2.299 2.268c-1.018.515-2.377.772-4.078.772m16.068-4.377c.462 0 .777-.195.945-.583a3.14 3.14 0 0 0 .252-1.26v-6.582c-.777.315-1.38.711-1.81 1.189-.432.478-.647 1.178-.647 2.102v3.039c0 1.397.42 2.094 1.26 2.094m-2.22 4.378c-1.312 0-2.312-.304-3-.913-.688-.609-1.157-1.443-1.409-2.504-.252-1.06-.378-2.262-.378-3.606 0-1.438.141-2.617.425-3.535.283-.919.769-1.672 1.457-2.26.687-.588 1.634-1.086 2.842-1.496l3.496-1.197v-2.425c0-1.27-.415-1.905-1.244-1.905-.756 0-1.134.514-1.134 1.543v1.417h-5.48a2.69 2.69 0 0 1-.016-.322v-.45c0-2.35.554-4.017 1.662-4.999 1.107-.982 2.863-1.473 5.267-1.473 1.26 0 2.388.223 3.386.67.997.446 1.787 1.105 2.37 1.976.582.872.874 1.947.874 3.228v18h-5.606v-2.804c-.274.987-.725 1.743-1.355 2.268a3.275 3.275 0 0 1-2.157.787m18.094-4.409c.535 0 .895-.215 1.078-.646.184-.43.276-1.202.276-2.315v-9.936a5.68 5.68 0 0 0-.244-1.646c-.163-.54-.522-.81-1.08-.81-.608 0-.99.257-1.148.771a5.748 5.748 0 0 0-.236 1.685v9.936c0 1.974.45 2.96 1.354 2.96m-2.158 4.41c-1.092 0-1.958-.2-2.598-.598a3.664 3.664 0 0 1-1.433-1.654c-.315-.703-.522-1.527-.622-2.472a28.95 28.95 0 0 1-.15-3.04V15.578c0-1.816.323-3.286.969-4.41.645-1.123 1.74-1.684 3.283-1.684 1.144 0 2.024.244 2.638.732.614.488 1.089 1.168 1.425 2.04V5.64h5.732v27.715H98.52v-2.504c-.315.85-.732 1.523-1.252 2.016-.52.493-1.273.74-2.26.74" fill="#FFF"/><g transform="translate(105.906 9.482)"><mask id="b" fill="#fff"><use xlink:href="#a"/></mask><path d="M6.992 24.125C2.33 24.125 0 21.762 0 17.038v-1.874h5.669v2.772c0 .536.105.955.315 1.26.21.305.546.457 1.008.457.819 0 1.228-.615 1.228-1.843 0-1.029-.215-1.798-.645-2.307A9.94 9.94 0 0 0 6 14.031l-3.008-2.315c-.945-.735-1.664-1.512-2.157-2.33-.494-.82-.74-1.958-.74-3.418 0-1.354.322-2.472.968-3.354C1.71 1.732 2.564 1.076 3.63.646 4.695.216 5.847 0 7.086 0c4.577 0 6.866 2.283 6.866 6.85v.441H8.126v-.897a3.93 3.93 0 0 0-.244-1.37c-.163-.442-.48-.662-.953-.662-.798 0-1.197.42-1.197 1.26 0 .85.336 1.517 1.008 2l3.496 2.55a11.328 11.328 0 0 1 2.747 2.804c.74 1.081 1.11 2.52 1.11 4.314 0 2.226-.632 3.922-1.897 5.087-1.265 1.165-3 1.748-5.204 1.748" fill="#FFF" mask="url(#b)"/></g></g></svg>