<svg width="42" height="42" xmlns="http://www.w3.org/2000/svg"><g stroke-width="3" fill="none" fill-rule="evenodd" stroke-linecap="round" stroke-linejoin="round"><path d="M19.75 37.75c-9.942 0-18-8.057-18-18 0-9.942 8.058-18 18-18 9.943 0 18 8.058 18 18m-34.98-6h33.741M2.77 25.751h16.98" stroke="#030508"/><path d="M27.75 19.75c0-5.528-1.445-11.056-4.333-15.88-1.694-2.826-5.639-2.826-7.33 0-5.78 9.65-5.78 22.113 0 31.763.845 1.412 2.255 2.12 3.665 2.12m14.487-7.244-3.112 3.112-1.866-1.868" stroke="#030508"/><path d="m24.19 33.055 1.063 1.39.23 1.73c.128.96.882 1.716 1.842 1.844l1.734.232 1.388 1.06a2.143 2.143 0 0 0 2.604 0l1.39-1.062h-.002l1.732-.23a2.145 2.145 0 0 0 1.844-1.842l.232-1.734c0 .002.538-.702 1.062-1.388a2.143 2.143 0 0 0 0-2.604l-1.062-1.39-.23-1.73a2.145 2.145 0 0 0-1.842-1.844l-1.736-.23-1.388-1.06a2.143 2.143 0 0 0-2.604 0l-1.39 1.06h.002l-1.732.228a2.145 2.145 0 0 0-1.844 1.842l-.232 1.734c0-.002-.538.702-1.062 1.388a2.154 2.154 0 0 0 .002 2.606h0Z" stroke="#B7094C"/></g></svg>