<svg width="70" height="85" xmlns="http://www.w3.org/2000/svg"><g fill="none" fill-rule="evenodd"><path fill="#B7094C" d="M0 84.107h70V0H0z"/><path d="M18.176 38.236c2.08 0 3.122-1.398 3.122-4.195v-7.317c0-2.91-.985-4.364-2.955-4.364-1.387 0-2.215.588-2.483 1.763-.269 1.174-.403 2.68-.403 4.514v4.766c0 3.222.906 4.833 2.719 4.833m-.605 33.397c-2.483 0-4.8-.43-6.948-1.292-2.147-.861-3.882-2.153-5.202-3.877-1.32-1.722-1.98-3.86-1.98-6.41v-6.378h11.378v1.209c0 .984.051 1.969.151 2.953.1.985.358 1.801.773 2.45.414.65 1.09.974 2.03.974 1.32 0 2.237-.364 2.753-1.09.514-.728.772-1.774.772-3.14V45.185c-.56 1.03-1.4 1.869-2.518 2.518-1.12.649-2.484.973-4.095.973-3.245 0-5.751-.654-7.518-1.963-1.769-1.31-2.988-3.261-3.66-5.858-.67-2.595-1.006-5.84-1.006-9.733 0-3.939.48-7.379 1.443-10.321.962-2.943 2.568-5.23 4.817-6.864 2.249-1.633 5.297-2.45 9.147-2.45 4.116 0 7.328.698 9.632 2.097 2.305 1.4 3.933 3.503 4.884 6.31.951 2.808 1.427 6.327 1.427 10.556v15.978c0 4.094-.174 7.708-.52 10.84-.348 3.134-1.07 5.763-2.166 7.888-1.096 2.127-2.73 3.737-4.9 4.833-2.171 1.097-5.068 1.645-8.694 1.645m34.573-33.398c2.081 0 3.121-1.398 3.121-4.195v-7.317c0-2.91-.985-4.364-2.953-4.364-1.388 0-2.216.588-2.484 1.763-.269 1.174-.403 2.68-.403 4.514v4.766c0 3.222.906 4.833 2.72 4.833m-.605 33.397c-2.484 0-4.8-.43-6.948-1.292-2.149-.861-3.883-2.153-5.203-3.877-1.32-1.722-1.98-3.86-1.98-6.41v-6.378h11.378v1.209c0 .984.051 1.969.151 2.953.101.985.358 1.801.772 2.45.415.65 1.091.974 2.031.974 1.32 0 2.237-.364 2.752-1.09.515-.728.772-1.774.772-3.14V45.185c-.56 1.03-1.398 1.869-2.517 2.518-1.12.649-2.484.973-4.095.973-3.245 0-5.752-.654-7.519-1.963-1.768-1.31-2.987-3.261-3.658-5.858-.672-2.595-1.007-5.84-1.007-9.733 0-3.939.48-7.379 1.443-10.321.962-2.943 2.568-5.23 4.817-6.864 2.249-1.633 5.297-2.45 9.146-2.45 4.117 0 7.329.698 9.634 2.097 2.305 1.4 3.932 3.503 4.883 6.31.951 2.808 1.427 6.327 1.427 10.556v15.978c0 4.094-.174 7.708-.52 10.84-.348 3.134-1.07 5.763-2.166 7.888-1.096 2.127-2.73 3.737-4.9 4.833-2.17 1.097-5.068 1.645-8.693 1.645" fill="#FFF"/></g></svg>