<svg version="1.1" id="Слой_1" xmlns="http://www.w3.org/2000/svg" x="0" y="0" width="136" height="24" style="enable-background:new 0 0 136 24" xml:space="preserve"><style>.st0{fill:#b7094c}.st1{fill:#fff}</style><g id="Page-1"><g id="Index-2" transform="translate(-1443 -4947)"><g id="star-favorite-copy-11" transform="translate(1443 4947)"><path id="Path" class="st0" d="M0 0h24v24H0z"/><path id="Path_1_" class="st1" d="M8.6 18.9c-.6.3-1.3 0-1.6-.5-.1-.2-.2-.5-.1-.7l.6-3.7-2.6-2.5c-.5-.4-.5-1.2 0-1.6.1-.3.3-.4.6-.4L9.2 9l1.7-3.3c.3-.6 1-.8 1.6-.5.2.1.4.3.5.5L14.6 9l3.7.5c.6.1 1.1.7 1 1.3 0 .3-.2.5-.4.7L16.3 14l.6 3.6c.1.6-.3 1.2-.9 1.4-.3 0-.5 0-.7-.1L12 17.2l-3.4 1.7z"/></g></g></g><g id="Page-1_1_"><g id="Index-2_1_" transform="translate(-1443 -4947)"><g id="star-favorite-copy-11_1_" transform="translate(1443 4947)"><path id="Path_3_" class="st0" d="M27.8 0h24v24h-24z"/><path id="Path_2_" class="st1" d="M36.3 18.9c-.6.3-1.3.1-1.6-.5-.1-.2-.2-.5-.1-.7l.6-3.6-2.6-2.5c-.5-.4-.5-1.2 0-1.6.2-.2.4-.3.7-.4l3.6-.6 1.7-3.3c.3-.6 1-.8 1.6-.5.2.1.4.3.5.5L42.3 9l3.7.5c.6.1 1.1.7 1 1.3 0 .3-.2.5-.4.7L44 14l.6 3.6c.1.6-.3 1.2-.9 1.4-.3 0-.5 0-.7-.1l-3.3-1.7-3.4 1.7z"/></g></g></g><g id="Page-1_2_"><g id="Index-2_2_" transform="translate(-1443 -4947)"><g id="star-favorite-copy-11_2_" transform="translate(1443 4947)"><path id="Path_5_" class="st0" d="M56 0h24v24H56z"/><path id="Path_4_" class="st1" d="M64.6 18.9c-.6.3-1.3.1-1.6-.5-.1-.2-.2-.5-.1-.7l.6-3.6-2.6-2.5c-.5-.4-.5-1.2 0-1.6.2-.2.4-.3.7-.4l3.6-.6 1.7-3.3c.3-.6 1-.8 1.6-.5.2.1.4.3.5.5L70.6 9l3.7.5c.6.1 1.1.7 1 1.3 0 .3-.2.5-.4.7L72.3 14l.6 3.6c.1.6-.3 1.2-.9 1.4-.3 0-.5 0-.7-.1L68 17.2l-3.4 1.7z"/></g></g></g><g id="Page-1_3_"><g id="Index-2_3_" transform="translate(-1443 -4947)"><g id="star-favorite-copy-11_3_" transform="translate(1443 4947)"><path id="Path_7_" class="st0" d="M84.3 0h24v24h-24z"/><path id="Path_6_" class="st1" d="M92.8 18.9c-.6.3-1.3.1-1.6-.5-.1-.2-.2-.5-.1-.7l.6-3.6-2.6-2.5c-.5-.4-.5-1.2 0-1.6.2-.2.4-.3.7-.4l3.7-.5 1.7-3.3c.3-.6 1-.8 1.6-.5.2.1.4.3.5.5L99 9.1l3.7.5c.6.1 1.1.7 1 1.3 0 .3-.2.5-.4.7l-2.6 2.5.6 3.6c.1.6-.3 1.2-.9 1.4-.3 0-.5 0-.7-.1l-3.3-1.7-3.6 1.6z"/></g></g></g><g id="Page-1_4_"><g id="Index-2_4_" transform="translate(-1443 -4947)"><g id="star-favorite-copy-11_4_" transform="translate(1443 4947)"><path id="Path_9_" class="st0" d="M112 0h24v24h-24z"/><path id="Path_8_" class="st1" d="M120.6 18.8c-.6.3-1.3.1-1.6-.5-.1-.2-.2-.5-.1-.7l.6-3.6-2.6-2.5c-.5-.4-.5-1.2 0-1.6.2-.2.4-.3.7-.4l3.7-.5 1.7-3.3c.3-.6 1-.8 1.6-.5.2.1.4.3.5.5l1.7 3.3 3.7.5c.6.1 1.1.7 1 1.3 0 .3-.2.5-.4.7l-2.6 2.5.6 3.6c.1.6-.3 1.2-.9 1.4-.3 0-.5 0-.7-.1l-3.3-1.7-3.6 1.6z"/></g></g></g></svg>