<svg width="15" height="18" viewBox="0 0 15 18" fill="none" xmlns="http://www.w3.org/2000/svg">
<path fill-rule="evenodd" clip-rule="evenodd" d="M6.3328 8.112V8.112C5.4576 8.9872 3.984 8.7472 3.4304 7.6416L2.7776 6.3328V6.3328C1.64 7.4704 1 9.0144 1 10.6256V10.7776C1 14.2144 3.7856 17 7.2224 17C10.6592 17 13.4448 14.2144 13.4448 10.7776V10.7776C13.4448 9.0912 12.6816 7.496 11.368 6.4384L10.4032 5.6608C9.4272 4.8736 8.744 3.7808 8.4656 2.5584L8.1104 1V1C6.4448 2.6656 5.7216 5.0544 6.184 7.3648L6.3328 8.112V8.112Z" stroke="white" stroke-width="2" stroke-linecap="round" stroke-linejoin="round"/>
</svg>
