<svg width="25" height="25" viewBox="0 0 25 25" fill="none" xmlns="http://www.w3.org/2000/svg">
<path id="Fill 23" fill-rule="evenodd" clip-rule="evenodd" d="M21.5887 22.6111H4.05021C3.64683 22.6111 3.31944 22.2751 3.31944 21.8611V10.6111H6.24252C5.86179 11.1736 5.73318 12.2229 5.73318 12.8889C5.73318 16.9051 8.92444 20.1729 12.8465 20.1729C16.7693 20.1729 19.9605 16.9051 19.9605 12.8889C19.9605 12.2229 19.8684 11.1894 19.3964 10.6111H22.3194V21.8611C22.3194 22.2751 21.9921 22.6111 21.5887 22.6111ZM12.8191 8.61111C15.3047 8.61111 17.3194 10.626 17.3194 13.1107C17.3194 15.5962 15.3047 17.6111 12.8191 17.6111C10.3342 17.6111 8.31944 15.5962 8.31944 13.1107C8.31944 10.626 10.3342 8.61111 12.8191 8.61111ZM18.1194 3.61111H20.5194C20.961 3.61111 21.3194 3.96951 21.3194 4.41111V6.81111C21.3194 7.25271 20.961 7.61111 20.5194 7.61111H18.1194C17.6778 7.61111 17.3194 7.25271 17.3194 6.81111V4.41111C17.3194 3.96951 17.6778 3.61111 18.1194 3.61111ZM21.4664 0.611111H3.17244C1.59669 0.611111 0.319444 1.88536 0.319444 3.45736V21.7649C0.319444 23.3369 1.59669 24.6111 3.17244 24.6111H21.4664C23.0422 24.6111 24.3194 23.3369 24.3194 21.7649V3.45736C24.3194 1.88536 23.0422 0.611111 21.4664 0.611111Z" fill="#A31D21"/>
</svg>
