<svg width="209" height="33" viewBox="0 0 209 33" fill="none" xmlns="http://www.w3.org/2000/svg">
<path fill-rule="evenodd" clip-rule="evenodd" d="M24.2598 7.78665C25.3975 8.97774 25.9777 10.6718 26 12.8692V21.0568C26 21.5894 25.8102 22.0455 25.431 22.4271C25.0513 22.8087 24.6051 23 24.0923 23C23.5796 23 23.1387 22.8087 22.7707 22.4271C22.4026 22.0455 22.2186 21.5894 22.2186 21.0568V13.4587C22.2186 12.2792 21.8675 11.3428 21.1645 10.6491C20.4619 9.95489 19.6083 9.60803 18.6051 9.60803C17.5559 9.60803 16.6751 9.98962 15.9613 10.7528C15.2471 11.516 14.8903 12.4649 14.8903 13.5976V21.0568C14.8903 21.5894 14.7009 22.0455 14.3217 22.4271C13.942 22.8087 13.4958 23 12.983 23C12.4698 23 12.0294 22.8087 11.6614 22.4271C11.2933 22.0455 11.1093 21.5894 11.1093 21.0568V13.4587C11.1093 12.2792 10.7578 11.3428 10.0547 10.6491C9.35259 9.95489 8.49947 9.60803 7.49538 9.60803C6.44662 9.60803 5.56537 9.98962 4.85205 10.7528C4.1374 11.516 3.78052 12.4649 3.78052 13.5976V21.0568C3.78052 21.5894 3.59158 22.0455 3.21192 22.4271C2.83226 22.8087 2.3865 23 1.87373 23C1.36008 23 0.920117 22.8087 0.55207 22.4271C0.184023 22.0455 0 21.5894 0 21.0568V8.15064C0 7.619 0.184023 7.15683 0.55207 6.76273C0.920117 6.36956 1.36008 6.1732 1.87373 6.1732C2.3865 6.1732 2.83226 6.36956 3.21192 6.76273C3.59158 7.15683 3.78052 7.619 3.78052 8.15064V8.32431C4.33795 7.58427 5.04144 7.01188 5.88919 6.60666C6.73651 6.20238 7.68476 6 8.73307 6C9.91538 6 10.9588 6.25424 11.8619 6.76273C12.7655 7.27214 13.4739 8.0006 13.9867 8.94857C14.5897 8.02422 15.3807 7.30085 16.3629 6.78033C17.3446 6.2598 18.4595 6 19.7093 6C21.6053 6 23.1222 6.59555 24.2598 7.78665Z" fill="#131D2C"/>
<path fill-rule="evenodd" clip-rule="evenodd" d="M208.713 6.87775C208.904 7.19332 209 7.54271 209 7.92501C209 8.24013 208.944 8.51062 208.831 8.73558L199.943 27.8513C199.785 28.2115 199.542 28.4933 199.215 28.6957C198.889 28.899 198.545 29 198.185 29C197.599 29 197.131 28.8084 196.782 28.4261C196.433 28.0425 196.259 27.5925 196.259 27.075C196.259 26.7373 196.315 26.4556 196.428 26.2306L198.354 22.0763L192.169 8.73558C192.055 8.44345 192 8.17296 192 7.92501C192 7.5648 192.102 7.22173 192.304 6.89488C192.507 6.56849 192.777 6.32639 193.116 6.16861C193.408 6.05635 193.678 6 193.926 6C194.309 6 194.659 6.09602 194.974 6.28672C195.289 6.47832 195.526 6.75467 195.684 7.11398L200.517 17.7867L205.317 7.11398C205.473 6.77631 205.715 6.50672 206.043 6.30385C206.37 6.10098 206.713 6 207.073 6C207.321 6 207.592 6.05635 207.885 6.16861C208.245 6.32639 208.521 6.56308 208.713 6.87775Z" fill="#131D2C"/>
<path fill-rule="evenodd" clip-rule="evenodd" d="M78.5963 22.4032C78.1981 22.0051 78 21.5367 78 20.998V8.00199C78 7.43984 78.1981 6.96583 78.5963 6.5795C78.9934 6.19317 79.4614 6 79.9995 6C80.5611 6 81.0347 6.19317 81.4206 6.5795C81.8066 6.96583 82 7.43984 82 8.00199V20.998C82 21.5367 81.8066 22.0051 81.4206 22.4032C81.0347 22.8017 80.5611 23 79.9995 23C79.4614 23 78.9934 22.8017 78.5963 22.4032Z" fill="#131D2C"/>
<path fill-rule="evenodd" clip-rule="evenodd" d="M98.2979 7.82138C99.4322 9.03563 100 10.7185 100 12.8692V21.0573C100 21.5894 99.8083 22.046 99.4272 22.4276C99.0443 22.8092 98.5948 23 98.0783 23C97.5613 23 97.1177 22.8092 96.747 22.4276C96.3762 22.046 96.1904 21.5894 96.1904 21.0573V13.4592C96.1904 12.2797 95.8367 11.3428 95.129 10.6491C94.4212 9.95489 93.5619 9.60803 92.5508 9.60803C91.4939 9.60803 90.6062 9.99008 89.8877 10.7533C89.1682 11.5165 88.8087 12.4649 88.8087 13.5981V21.0573C88.8087 21.5894 88.6175 22.046 88.2359 22.4276C87.8535 22.8092 87.4045 23 86.8879 23C86.3701 23 85.9269 22.8092 85.5561 22.4276C85.1854 22.046 85 21.5894 85 21.0573V8.15111C85 7.619 85.1854 7.16239 85.5561 6.78079C85.9269 6.39919 86.3701 6.2084 86.8879 6.2084C87.4045 6.2084 87.8535 6.39919 88.2359 6.78079C88.6175 7.16239 88.8087 7.619 88.8087 8.15111V8.32477C89.3702 7.58427 90.078 7.01234 90.9324 6.60713C91.7859 6.20284 92.7412 6 93.7976 6C95.6626 6 97.1627 6.60713 98.2979 7.82138Z" fill="#131D2C"/>
<path fill-rule="evenodd" clip-rule="evenodd" d="M115.673 21.8745C115.455 22.17 115.172 22.3749 114.824 22.4887C113.953 22.8297 113.071 23 112.178 23C111.22 23 110.349 22.7951 109.565 22.3858C108.781 21.977 108.139 21.3628 107.638 20.5442C107.18 19.8622 106.887 19.1342 106.756 18.3612C106.625 17.5886 106.56 16.622 106.56 15.4619V10.0728H104.698C104.219 10.0728 103.817 9.90253 103.49 9.56152C103.163 9.22007 103 8.79984 103 8.29949C103 7.79959 103.163 7.37846 103.49 7.03746C103.817 6.69645 104.219 6.52572 104.698 6.52572H106.56V2.9445C106.56 2.39862 106.74 1.93833 107.099 1.56318C107.458 1.18758 107.899 1 108.422 1C108.945 1 109.385 1.18758 109.745 1.56318C110.104 1.93833 110.284 2.39862 110.284 2.9445V6.52572H113.681C114.138 6.52572 114.535 6.69645 114.873 7.03746C115.21 7.37846 115.379 7.79959 115.379 8.29949C115.379 8.79984 115.21 9.22007 114.873 9.56152C114.535 9.90253 114.138 10.0728 113.681 10.0728H110.284V16.3147C110.284 17.4975 110.512 18.3389 110.97 18.8387C111.361 19.2708 111.885 19.4871 112.538 19.4871C112.995 19.4871 113.463 19.4074 113.942 19.248C114.16 19.203 114.302 19.1798 114.367 19.1798C114.802 19.1798 115.183 19.345 115.51 19.6746C115.836 20.0047 116 20.4076 116 20.8852C116 21.2495 115.891 21.5795 115.673 21.8745Z" fill="#131D2C"/>
<path fill-rule="evenodd" clip-rule="evenodd" d="M119.596 22.4032C119.198 22.0051 119 21.5367 119 20.998V8.00199C119 7.43984 119.198 6.96583 119.596 6.5795C119.994 6.19317 120.462 6 121 6C121.561 6 122.035 6.19317 122.421 6.5795C122.807 6.96583 123 7.43984 123 8.00199V20.998C123 21.5367 122.807 22.0051 122.421 22.4032C122.035 22.8017 121.561 23 121 23C120.462 23 119.994 22.8017 119.596 22.4032Z" fill="#131D2C"/>
<path fill-rule="evenodd" clip-rule="evenodd" d="M151.26 7.78665C152.398 8.97774 152.978 10.6718 153 12.8692V21.0568C153 21.5894 152.81 22.0455 152.431 22.4271C152.051 22.8087 151.606 23 151.093 23C150.58 23 150.139 22.8087 149.771 22.4271C149.403 22.0455 149.219 21.5894 149.219 21.0568V13.4587C149.219 12.2792 148.868 11.3428 148.164 10.6491C147.462 9.95489 146.609 9.60803 145.605 9.60803C144.556 9.60803 143.675 9.98962 142.961 10.7528C142.247 11.516 141.89 12.4649 141.89 13.5976V21.0568C141.89 21.5894 141.701 22.0455 141.322 22.4271C140.942 22.8087 140.496 23 139.983 23C139.47 23 139.029 22.8087 138.661 22.4271C138.293 22.0455 138.109 21.5894 138.109 21.0568V13.4587C138.109 12.2792 137.758 11.3428 137.055 10.6491C136.353 9.95489 135.499 9.60803 134.495 9.60803C133.447 9.60803 132.565 9.98962 131.852 10.7528C131.137 11.516 130.781 12.4649 130.781 13.5976V21.0568C130.781 21.5894 130.592 22.0455 130.212 22.4271C129.832 22.8087 129.386 23 128.874 23C128.361 23 127.92 22.8087 127.552 22.4271C127.184 22.0455 127 21.5894 127 21.0568V8.15064C127 7.619 127.184 7.15683 127.552 6.76273C127.92 6.36956 128.361 6.1732 128.874 6.1732C129.386 6.1732 129.832 6.36956 130.212 6.76273C130.592 7.15683 130.781 7.619 130.781 8.15064V8.32431C131.338 7.58427 132.041 7.01188 132.889 6.60666C133.737 6.20238 134.685 6 135.734 6C136.916 6 137.959 6.25424 138.862 6.76273C139.766 7.27214 140.474 8.0006 140.987 8.94857C141.59 8.02422 142.381 7.30085 143.363 6.78033C144.345 6.2598 145.46 6 146.709 6C148.605 6 150.122 6.59555 151.26 7.78665Z" fill="#131D2C"/>
<path fill-rule="evenodd" clip-rule="evenodd" d="M166.211 18.8015C166.859 18.3787 167.376 17.7904 167.761 17.0364C168.146 16.282 168.338 15.437 168.338 14.5C168.338 13.5635 168.146 12.7176 167.761 11.9636C167.376 11.2092 166.859 10.6213 166.211 10.1981C165.562 9.7758 164.852 9.56443 164.083 9.56443C163.313 9.56443 162.604 9.7758 161.955 10.1981C161.305 10.6213 160.788 11.2092 160.404 11.9636C160.019 12.7176 159.827 13.5635 159.827 14.5C159.827 15.437 160.019 16.282 160.404 17.0364C160.788 17.7904 161.305 18.3787 161.955 18.8015C162.604 19.2247 163.313 19.4356 164.083 19.4356C164.852 19.4356 165.562 19.2247 166.211 18.8015ZM171.439 6.7709C171.813 7.14788 172 7.61042 172 8.15897V20.8406C172 21.3662 171.813 21.8233 171.439 22.2117C171.065 22.6006 170.625 22.7946 170.12 22.7946C169.592 22.7946 169.141 22.6006 168.767 22.2117C168.393 21.8233 168.206 21.3662 168.206 20.8406V20.7724C167.547 21.4806 166.793 22.0292 165.946 22.4171C165.1 22.8056 164.203 23 163.258 23C161.916 23 160.696 22.6349 159.596 21.9029C158.496 21.1723 157.622 20.1612 156.973 18.8696C156.325 17.579 156 16.1228 156 14.5C156 12.8777 156.325 11.421 156.973 10.1299C157.622 8.83928 158.496 7.82819 159.596 7.09664C160.696 6.36509 161.916 6 163.258 6C164.203 6 165.1 6.19398 165.946 6.5824C166.793 6.97128 167.547 7.51983 168.206 8.2276V8.15897C168.206 7.61042 168.393 7.14788 168.767 6.7709C169.141 6.39391 169.592 6.20542 170.12 6.20542C170.625 6.20542 171.065 6.39391 171.439 6.7709Z" fill="#131D2C"/>
<path fill-rule="evenodd" clip-rule="evenodd" d="M179.076 21.9034C177.829 21.1723 176.838 20.1612 176.103 18.8701C175.368 17.5795 175 16.1228 175 14.5C175 12.8777 175.368 11.4214 176.103 10.1304C176.838 8.83928 177.829 7.82819 179.076 7.0971C180.323 6.36555 181.694 6 183.186 6C185.146 6 186.839 6.5943 188.265 7.78244C188.488 7.94211 188.666 8.14845 188.8 8.39916C188.934 8.65079 189 8.92529 189 9.22176C189 9.72455 188.827 10.1592 188.482 10.5243C188.136 10.8903 187.708 11.0728 187.195 11.0728C186.795 11.0728 186.427 10.9356 186.093 10.6615C185.269 9.93043 184.3 9.56443 183.186 9.56443C182.406 9.56443 181.688 9.77625 181.031 10.1985C180.373 10.6217 179.85 11.2096 179.46 11.9636C179.071 12.718 178.876 13.5635 178.876 14.5C178.876 15.4374 179.071 16.2824 179.46 17.0364C179.85 17.7908 180.373 18.3792 181.031 18.8019C181.688 19.2251 182.406 19.4356 183.186 19.4356C184.3 19.4356 185.269 19.0705 186.093 18.3389C186.427 18.0644 186.795 17.9276 187.195 17.9276C187.686 17.9276 188.103 18.1047 188.449 18.4593C188.794 18.8134 188.967 19.242 188.967 19.7439C188.967 20.3611 188.732 20.8529 188.265 21.218C186.839 22.4066 185.146 23 183.186 23C181.694 23 180.323 22.6354 179.076 21.9034Z" fill="#131D2C"/>
<path fill-rule="evenodd" clip-rule="evenodd" d="M44.7126 6.87775C44.9039 7.19332 45 7.54271 45 7.92501C45 8.24013 44.9436 8.51062 44.8308 8.73558L35.9424 27.8513C35.7845 28.2115 35.5423 28.4933 35.2157 28.6957C34.8891 28.899 34.5453 29 34.1849 29C33.5988 29 33.1315 28.8084 32.7828 28.4261C32.4327 28.0425 32.2586 27.5925 32.2586 27.075C32.2586 26.7373 32.315 26.4556 32.4277 26.2306L34.354 22.0763L28.1692 8.73558C28.0559 8.44345 28 8.17296 28 7.92501C28 7.5648 28.102 7.22173 28.3045 6.89488C28.5071 6.56849 28.7777 6.32639 29.1156 6.16861C29.4079 6.05635 29.6786 6 29.9267 6C30.3093 6 30.6589 6.09602 30.9742 6.28672C31.2896 6.47832 31.5264 6.75467 31.6838 7.11398L36.5171 17.7867L41.3162 7.11398C41.4731 6.77631 41.7154 6.50672 42.0425 6.30385C42.3691 6.10098 42.7128 6 43.0733 6C43.3209 6 43.5916 6.05635 43.8844 6.16861C44.2448 6.32639 44.5209 6.56308 44.7126 6.87775Z" fill="#131D2C"/>
<path fill-rule="evenodd" clip-rule="evenodd" d="M50.6649 32.8494C50.9762 33.014 51.324 33.0397 51.6385 32.9459C51.9521 32.8526 52.2287 32.6416 52.3958 32.3341L56.1027 25.5181C56.1036 25.5168 56.1031 25.5154 56.104 25.5145C56.1045 25.5141 56.1054 25.5132 56.1063 25.5122C56.44 24.8973 56.2072 24.1323 55.5846 23.8027C52.891 22.3736 50.9224 19.9932 50.0405 17.0998C49.1586 14.2082 49.4695 11.1498 50.9164 8.48951C50.9169 8.48861 50.9169 8.4877 50.9173 8.48725C52.3643 5.82738 54.773 3.88297 57.7012 3.01197C60.6298 2.14143 63.7264 2.44844 66.4208 3.87846C68.7519 5.11507 70.5376 7.06715 71.5482 9.44346C70.0236 8.42414 68.1129 7.96114 66.1369 8.54857C64.8232 8.93943 63.7213 9.71305 62.9394 10.7743C61.6947 10.3158 60.3436 10.2716 59.0276 10.6629C55.2473 11.7873 53.7524 15.9719 54.7287 19.1759C56.5815 25.2521 67.1653 27.3273 67.9175 27.1037C68.4297 26.9513 72.1397 23.4249 73.8752 19.2728C76.6961 12.7633 74.0637 5.06639 67.6304 1.65408C64.3348 -0.0946714 60.5467 -0.471562 56.9649 0.59374C53.3817 1.65949 50.4339 4.0385 48.6638 7.29347C48.6634 7.29482 48.6634 7.29617 48.6629 7.29752C45.2144 13.6411 47.31 21.4787 53.2799 25.3729L50.1432 31.1399C49.8095 31.7539 50.0428 32.5194 50.6649 32.8494Z" fill="#A31D21"/>
<path fill-rule="evenodd" clip-rule="evenodd" d="M69.5055 11.1304C69.0448 10.88 68.4377 11.0011 68.1489 11.401C67.8844 11.7667 67.9838 12.2375 68.3559 12.5058C68.639 12.7886 69.2684 14.1905 68.9563 14.8004L68.96 14.8018C68.7643 15.1837 68.9134 15.6414 69.3336 15.8698C69.7948 16.1198 70.4014 15.9991 70.6902 15.5992C70.7156 15.5647 70.7332 15.5274 70.7518 15.4911L70.7555 15.4924C70.7606 15.483 70.7632 15.4727 70.7679 15.4628C70.7746 15.4484 70.7803 15.4341 70.7865 15.4193C71.477 13.9258 70.3435 11.5854 69.5055 11.1304Z" fill="#FEFEFE"/>
</svg>
