<svg width="28" height="23" viewBox="0 0 28 23" fill="none" xmlns="http://www.w3.org/2000/svg">
<path id="Fill 1 Copy" fill-rule="evenodd" clip-rule="evenodd" d="M27.7778 2.67136C26.7561 3.1244 25.6571 3.43076 24.5043 3.56876C25.6814 2.86316 26.5851 1.74706 27.0104 0.416587C25.9097 1.06924 24.6892 1.54311 23.3915 1.79913C22.3516 0.691707 20.8707 0 19.2318 0C16.0842 0 13.533 2.55072 13.533 5.69769C13.533 6.14378 13.5833 6.5786 13.6806 6.99605C8.94358 6.75825 4.74479 4.48959 1.93403 1.04233C1.44358 1.88419 1.16233 2.86316 1.16233 3.90723C1.16233 5.88342 2.1684 7.62787 3.69705 8.64938C2.76302 8.61987 1.88455 8.36384 1.11632 7.93684C1.11545 7.96114 1.11545 7.98458 1.11545 8.00888C1.11545 10.7696 3.07986 13.0721 5.6875 13.5955C5.2092 13.7257 4.70573 13.7951 4.18576 13.7951C3.81858 13.7951 3.46181 13.7595 3.11372 13.6935C3.83854 15.957 5.94358 17.6043 8.4375 17.6503C6.48698 19.1786 4.02951 20.089 1.35938 20.089C0.899306 20.089 0.446181 20.0621 0 20.01C2.5217 21.626 5.51736 22.5694 8.73611 22.5694C19.2188 22.5694 24.9505 13.8871 24.9505 6.35815C24.9505 6.1108 24.9453 5.86519 24.934 5.62045C26.0477 4.81765 27.0139 3.81437 27.7778 2.67136Z" fill="#A31D21"/>
</svg>
