<svg width="236" height="104" xmlns="http://www.w3.org/2000/svg"><defs><linearGradient x1="-1.823%" y1="47.84%" x2="100.641%" y2="47.84%" id="linearGradient-1"><stop stop-color="#725923" offset="0%"/><stop stop-color="#725923" offset="5%"/><stop stop-color="#EECD5E" offset="56%"/><stop stop-color="#BD9F46" offset="77%"/><stop stop-color="#7F6428" offset="100%"/></linearGradient><linearGradient x1="49.994%" y1="-39.417%" x2="49.994%" y2="127.676%" id="linearGradient-2"><stop stop-color="#725923" offset="0%"/><stop stop-color="#725923" offset="5%"/><stop stop-color="#EECD5E" offset="56%"/><stop stop-color="#BD9F46" offset="77%"/><stop stop-color="#7F6428" offset="100%"/></linearGradient><linearGradient x1="49.989%" y1="-40.96%" x2="49.989%" y2="129.017%" id="linearGradient-3"><stop stop-color="#725923" offset="0%"/><stop stop-color="#725923" offset="5%"/><stop stop-color="#EECD5E" offset="56%"/><stop stop-color="#BD9F46" offset="77%"/><stop stop-color="#7F6428" offset="100%"/></linearGradient><linearGradient x1="49.979%" y1="-40.96%" x2="49.979%" y2="129.017%" id="linearGradient-4"><stop stop-color="#725923" offset="0%"/><stop stop-color="#725923" offset="5%"/><stop stop-color="#EECD5E" offset="56%"/><stop stop-color="#BD9F46" offset="77%"/><stop stop-color="#7F6428" offset="100%"/></linearGradient><linearGradient x1="50%" y1="-40.96%" x2="50%" y2="129.017%" id="linearGradient-5"><stop stop-color="#725923" offset="0%"/><stop stop-color="#725923" offset="5%"/><stop stop-color="#EECD5E" offset="56%"/><stop stop-color="#BD9F46" offset="77%"/><stop stop-color="#7F6428" offset="100%"/></linearGradient><linearGradient x1="49.946%" y1="-40.96%" x2="49.946%" y2="129.017%" id="linearGradient-6"><stop stop-color="#725923" offset="0%"/><stop stop-color="#725923" offset="5%"/><stop stop-color="#EECD5E" offset="56%"/><stop stop-color="#BD9F46" offset="77%"/><stop stop-color="#7F6428" offset="100%"/></linearGradient><linearGradient x1="50%" y1="-39.437%" x2="50%" y2="127.673%" id="linearGradient-7"><stop stop-color="#725923" offset="0%"/><stop stop-color="#725923" offset="5%"/><stop stop-color="#EECD5E" offset="56%"/><stop stop-color="#BD9F46" offset="77%"/><stop stop-color="#7F6428" offset="100%"/></linearGradient><linearGradient x1="50.009%" y1="-40.96%" x2="50.009%" y2="129.017%" id="linearGradient-8"><stop stop-color="#725923" offset="0%"/><stop stop-color="#725923" offset="5%"/><stop stop-color="#EECD5E" offset="56%"/><stop stop-color="#BD9F46" offset="77%"/><stop stop-color="#7F6428" offset="100%"/></linearGradient><linearGradient x1="50.005%" y1="-39.437%" x2="50.005%" y2="127.673%" id="linearGradient-9"><stop stop-color="#725923" offset="0%"/><stop stop-color="#725923" offset="5%"/><stop stop-color="#EECD5E" offset="56%"/><stop stop-color="#BD9F46" offset="77%"/><stop stop-color="#7F6428" offset="100%"/></linearGradient><linearGradient x1="49.968%" y1="-39.414%" x2="49.968%" y2="127.675%" id="linearGradient-10"><stop stop-color="#725923" offset="0%"/><stop stop-color="#725923" offset="5%"/><stop stop-color="#EECD5E" offset="56%"/><stop stop-color="#BD9F46" offset="77%"/><stop stop-color="#7F6428" offset="100%"/></linearGradient><linearGradient x1="49.994%" y1="-40.96%" x2="49.994%" y2="129.017%" id="linearGradient-11"><stop stop-color="#725923" offset="0%"/><stop stop-color="#725923" offset="5%"/><stop stop-color="#EECD5E" offset="56%"/><stop stop-color="#BD9F46" offset="77%"/><stop stop-color="#7F6428" offset="100%"/></linearGradient></defs><g id="Page-1" stroke="none" stroke-width="1" fill="none" fill-rule="evenodd"><g id="Why-Join" transform="translate(-185 -2327)" fill-rule="nonzero"><g id="final-baker-cardiology-logo-white-copy" transform="translate(185 2327)"><g id="Isolation_Mode" transform="translate(81 59)"><path d="M21.666 13.345c1.592.501 2.838 1.337 3.74 2.51.902 1.171 1.352 2.614 1.352 4.328 0 2.423-.948 4.287-2.844 5.591-1.896 1.304-4.66 1.956-8.294 1.956H1.218V.066h13.606c3.395 0 6 .646 7.817 1.936 1.817 1.291 2.726 3.043 2.726 5.257 0 1.344-.325 2.543-.975 3.596a6.808 6.808 0 01-2.726 2.49zM7.623 4.883v6.52h6.405c1.592 0 2.798-.277 3.62-.83.822-.553 1.233-1.37 1.234-2.45 0-1.08-.412-1.89-1.234-2.431-.823-.541-2.029-.81-3.62-.81H7.623zm7.52 18.02c1.697 0 2.976-.276 3.838-.829.863-.553 1.293-1.41 1.293-2.57 0-2.29-1.71-3.437-5.132-3.437H7.623v6.837h7.52zm34.849-1.106h-12.93l-2.466 5.928h-6.604L40.404.061h6.365L59.22 27.725h-6.763l-2.466-5.928zm-2.03-4.86L43.547 6.344l-4.416 10.593h8.831zm24.308-.08l-3.74 3.874v6.994h-6.405V.066h6.406v12.918L80.863.066h7.165l-11.541 12.33L88.7 27.73h-7.519l-8.91-10.872zm40.857 5.73v5.138H91.565V.066h21.044V5.2H97.97v6.007h12.93v4.985H97.97v6.402l15.158-.006zm22.875 5.138l-5.371-7.706h-5.927v7.706h-6.443V.066h12.051c2.467 0 4.61.409 6.426 1.225 1.817.816 3.216 1.976 4.197 3.478.981 1.502 1.472 3.28 1.472 5.335s-.498 3.827-1.493 5.316c-.993 1.488-2.406 2.628-4.237 3.419l6.247 8.891-6.922-.005zm-.12-17.626c0-1.554-.504-2.746-1.512-3.577-1.008-.83-2.48-1.245-4.415-1.244h-5.251v9.648h5.251c1.935 0 3.407-.422 4.415-1.265 1.009-.843 1.513-2.028 1.512-3.557V10.1z" id="Shape" fill="url(#linearGradient-1)"/><path d="M2.397 44.334A4.452 4.452 0 01.66 42.655a4.909 4.909 0 010-4.809 4.45 4.45 0 011.744-1.68 5.134 5.134 0 012.493-.605 5.21 5.21 0 011.91.342 3.98 3.98 0 011.484 1.001l-.622.62c-.726-.73-1.641-1.094-2.746-1.094-.7-.008-1.39.164-2.001.5a3.674 3.674 0 00-1.413 1.37 3.982 3.982 0 000 3.9c.336.576.825 1.05 1.413 1.37a4.03 4.03 0 002.001.5c1.114 0 2.03-.368 2.746-1.106l.622.62A4.01 4.01 0 016.8 44.59c-.61.237-1.26.355-1.916.349a5.086 5.086 0 01-2.487-.606z" id="Path" fill="url(#linearGradient-2)"/><path d="M21.605 42.398h-5.172l-1.114 2.463H14.3l4.243-9.221h.968l4.243 9.22H22.72l-1.115-2.462zm-.358-.79l-2.227-4.954-2.228 4.954h4.455z" id="Shape" fill="url(#linearGradient-3)"/><path d="M37.266 44.86l-2.122-2.963a6.78 6.78 0 01-.742.04H31.91v2.924h-.981V35.64h3.474c1.184 0 2.112.28 2.784.843.673.562 1.009 1.335 1.008 2.318 0 .721-.183 1.33-.55 1.825-.367.496-.891.854-1.571 1.073l2.267 3.162h-1.075zm-.783-4.359c.486-.404.73-.97.73-1.7 0-.746-.243-1.319-.73-1.719-.487-.4-1.19-.6-2.108-.6H31.91v4.625h2.466c.918 0 1.62-.202 2.107-.606z" id="Shape" fill="url(#linearGradient-4)"/><path d="M46.15 35.64h3.78c.98 0 1.847.195 2.598.587a4.297 4.297 0 011.75 1.633 4.9 4.9 0 010 4.781 4.297 4.297 0 01-1.75 1.634c-.751.391-1.617.587-2.599.586h-3.78V35.64zm3.726 8.378a4.525 4.525 0 002.134-.48 3.511 3.511 0 001.42-1.33 4.05 4.05 0 000-3.914 3.511 3.511 0 00-1.42-1.33 4.525 4.525 0 00-2.134-.481h-2.745v7.535h2.745z" id="Shape" fill="url(#linearGradient-5)"/><path id="Path" fill="url(#linearGradient-6)" d="M62.739 35.64h.98v9.22h-.98z"/><path d="M73.937 44.329a4.49 4.49 0 01-1.75-1.68 4.877 4.877 0 010-4.795 4.487 4.487 0 011.75-1.68 5.401 5.401 0 014.986-.006 4.507 4.507 0 011.744 1.68 4.86 4.86 0 010 4.808 4.497 4.497 0 01-1.744 1.679 5.406 5.406 0 01-4.986-.006zm4.488-.75a3.595 3.595 0 001.393-1.37 4.05 4.05 0 000-3.914 3.595 3.595 0 00-1.393-1.37 4.262 4.262 0 00-3.984 0 3.624 3.624 0 00-1.406 1.37 4.006 4.006 0 000 3.913 3.63 3.63 0 001.406 1.37 4.268 4.268 0 003.984 0z" id="Shape" fill="url(#linearGradient-7)"/><path id="Path" fill="url(#linearGradient-8)" d="M89.14 35.64h.98v8.378h5.199v.843h-6.18z"/><path d="M103.958 44.329a4.475 4.475 0 01-1.75-1.68 4.877 4.877 0 010-4.795 4.473 4.473 0 011.75-1.68 5.401 5.401 0 014.986-.006 4.512 4.512 0 011.743 1.68 4.86 4.86 0 010 4.808 4.502 4.502 0 01-1.743 1.679 5.406 5.406 0 01-4.986-.006zm4.489-.75a3.589 3.589 0 001.391-1.37 4.05 4.05 0 000-3.914 3.589 3.589 0 00-1.391-1.37 4.262 4.262 0 00-3.985 0 3.617 3.617 0 00-1.405 1.37 3.998 3.998 0 000 3.913 3.607 3.607 0 001.405 1.37 4.268 4.268 0 003.985 0z" id="Shape" fill="url(#linearGradient-9)"/><path d="M125.698 40.25h.944v3.518a4.57 4.57 0 01-1.538.87 5.748 5.748 0 01-1.87.302 5.148 5.148 0 01-2.506-.606 4.486 4.486 0 01-1.75-1.679 4.86 4.86 0 010-4.809 4.495 4.495 0 011.75-1.68 5.187 5.187 0 012.52-.605 5.48 5.48 0 011.948.336 3.87 3.87 0 011.499.995l-.61.618c-.734-.72-1.667-1.08-2.798-1.08-.71-.01-1.41.16-2.035.494a3.65 3.65 0 00-1.426 1.37 3.942 3.942 0 000 3.906 3.71 3.71 0 001.418 1.37 4.107 4.107 0 002.03.5c.955 0 1.763-.237 2.426-.71l-.002-3.11z" id="Path" fill="url(#linearGradient-10)"/><path id="Path" fill="url(#linearGradient-11)" d="M138.23 41.673v3.188h-.97v-3.188l-3.712-6.033h1.05l3.183 5.177 3.182-5.177h.981z"/></g><g id="Layer_1" fill="#E42029"><path d="M107.896 47.959c-2.019-.746-2.975-2.16-4.073-3.792-1.381-2.049-2.948-4.371-6.95-5.7-.436-.144-1.202-.16-1.885-.166h-.107c-3.42 0-5.637 2.529-7.78 4.976-1.594 1.813-3.094 3.534-5.018 4.23-1.674.607-6.482.482-9.524.285l-1.627-.466-12.147 42.702L49.435 0l-7.522 54.758-3.673-7.03-.357-.045c-.035 0-3.541-.448-9.037-.677-1.729-.072-3.337-1.964-4.888-3.795-1.633-1.92-3.176-3.732-5.063-3.765-1.887-.033-3.309 1.616-4.8 3.356-1.551 1.812-3.155 3.678-5.308 3.678-.383 0-3.104-.024-8.087-.075L.003 46.4v2.804H.69c7.535.05 7.988 0 8.158-.023 2.804-.333 4.994-2.73 6.753-4.656 1.188-1.301 2.417-2.646 3.22-2.57 1.487.144 2.703 1.693 3.99 3.333 1.538 1.959 3.28 4.178 5.918 4.323 3.597.198 6.841.447 7.931.533l6.682 13.535 5.95-43.29 8.45 82.6 14.803-52.794c.296.093.578.229.835.404 0 0 3.551.341 5.321.341 1.537 0 2.963-.099 3.808-.393 2.37-.826 4.279-2.895 6.126-4.897 2.02-2.189 3.932-4.257 6.13-4.38a12.721 12.721 0 011.594.027c2.713.39 4.193 2.384 5.76 4.495 1.43 1.926 2.909 3.917 5.4 4.757 1.168.394 128.45.44 128.45.44l.012-2.452s-127.086-.346-128.084-.577z" id="Path"/></g></g></g></g></svg>