<svg width="52" height="49" xmlns="http://www.w3.org/2000/svg"><g id="Page-1" stroke="none" stroke-width="1" fill="none" fill-rule="evenodd"><g id="Home-Page-3" transform="translate(-1641 -1638)" fill="#E4222C"><g id="Group-4" transform="translate(1641 1638)"><path id="Fill-1" d="M0 49h51v-8H0z"/><path d="M40 13.998C40 6.278 33.497 0 25.499 0 17.501 0 11 6.277 11 13.998 11 21.718 17.501 28 25.499 28S40 21.719 40 13.998zM27.308 8.751c0 .961-.808 1.749-1.809 1.749-.997 0-1.813-.788-1.813-1.749 0-.969.816-1.758 1.813-1.758 1.001 0 1.809.79 1.809 1.758zm0 10.5c0 .96-.808 1.748-1.809 1.748-.997 0-1.813-.787-1.813-1.748v-5.253c0-.967.816-1.748 1.813-1.748 1.001 0 1.809.781 1.809 1.748v5.253z" id="Fill-2"/></g></g></g></svg>