<svg width="29" height="36" xmlns="http://www.w3.org/2000/svg"><g id="Page-1" stroke="none" stroke-width="1" fill="none" fill-rule="evenodd"><g id="Contact" transform="translate(-595 -398)" fill="#E22029" fill-rule="nonzero"><g id="place_black_24dp-(1)" transform="translate(595 398)"><path d="M14.5 18c-1.994 0-3.625-1.62-3.625-3.6s1.631-3.6 3.625-3.6 3.625 1.62 3.625 3.6S16.494 18 14.5 18zm10.875-3.24c0-6.534-4.803-11.16-10.875-11.16S3.625 8.226 3.625 14.76c0 4.212 3.534 9.792 10.875 16.452 7.34-6.66 10.875-12.24 10.875-16.452zM14.5 0C22.113 0 29 5.796 29 14.76c0 5.976-4.84 13.05-14.5 21.24C4.84 27.81 0 20.736 0 14.76 0 5.796 6.888 0 14.5 0z" id="Shape"/></g></g></g></svg>