<svg width="49" height="54" xmlns="http://www.w3.org/2000/svg"><g id="Page-1" stroke="none" stroke-width="1" fill="none" fill-rule="evenodd"><g id="Home-Page-3" transform="translate(-1224 -1633)" fill="#FFF"><g id="Group-8" transform="translate(1224 1633)"><path id="Fill-2" d="M0 54h49v-8H0z"/><g id="Group-7" transform="translate(12)"><path d="M19.65 7.33a6.95 6.95 0 00-.504-2.573C18.058 2.29 15.613.563 12.763.563c-2.851 0-5.296 1.731-6.384 4.204A6.96 6.96 0 005.88 7.33c0 3.832 3.086 6.95 6.884 6.95 3.797 0 6.885-3.118 6.885-6.95" id="Fill-3"/><path d="M18.431 13.97c-1.529 1.33-3.494 2.165-5.665 2.165-2.173 0-4.14-.834-5.67-2.166a9.03 9.03 0 00-6.255 8.598v7.33l.017.114.502.16c4.71 1.484 8.806 1.981 12.179 1.981 6.584 0 10.396-1.893 10.634-2.013l.468-.243h.048v-7.33a9.028 9.028 0 00-6.258-8.597" id="Fill-5"/></g></g></g></g></svg>