<svg width="35" height="35" xmlns="http://www.w3.org/2000/svg"><defs><filter id="filter-1"><feColorMatrix in="SourceGraphic" values="0 0 0 0 0.886275 0 0 0 0 0.125490 0 0 0 0 0.160784 0 0 0 1.000000 0"/></filter></defs><g id="Page-1" stroke="none" stroke-width="1" fill="none" fill-rule="evenodd"><g id="phone-alt"><path d="M34.002 24.732l-7.657-3.281a1.64 1.64 0 00-1.914.472l-3.39 4.142A25.338 25.338 0 018.928 13.953l4.142-3.391c.567-.461.76-1.242.472-1.914L10.261.99a1.652 1.652 0 00-1.88-.95l-7.11 1.64A1.64 1.64 0 000 3.282C0 20.815 14.212 35 31.72 35a1.64 1.64 0 001.599-1.272l1.64-7.109a1.66 1.66 0 00-.957-1.887z" id="Path" fill="#E22029" fill-rule="nonzero"/></g></g></svg>