<svg width="43" height="39" xmlns="http://www.w3.org/2000/svg"><g id="Page-1" stroke="none" stroke-width="1" fill="none" fill-rule="evenodd"><g id="FAQ" transform="translate(-192 -416)"><g id="message-2-question-checkmark" transform="translate(192 416)"><path d="M21.5 0C9.627 0 0 7.94 0 17.723c.18 5.904 3.47 11.283 8.672 14.179a15.199 15.199 0 01-2.133 3.882 2.038 2.038 0 00.03 2.365 2.089 2.089 0 002.261.77 25.714 25.714 0 007.988-3.898 25.35 25.35 0 004.682.425c11.873 0 21.5-7.94 21.5-17.723C43 7.94 33.373 0 21.5 0z" id="Path-2" fill="#E22029"/><path id="Path" stroke="#FFF" stroke-width="3" stroke-linecap="round" stroke-linejoin="round" d="M27 14l-6.872 7L16 16.8"/></g></g></g></svg>