<svg width="26" height="21" xmlns="http://www.w3.org/2000/svg"><g id="Page-1" stroke="none" stroke-width="1" fill="none" fill-rule="evenodd"><g id="Home-Page-3" transform="translate(-633 -2183)" fill="#A7A7A7" fill-rule="nonzero"><path d="M638.86 2203.88c1.68 0 3.06-.53 4.14-1.59 1.08-1.06 1.62-2.45 1.62-4.17 0-1.2-.28-2.24-.84-3.12-.56-.88-1.34-1.54-2.34-1.98l2.64-9.54h-5.94l-3.48 8.64c-.68 1.6-1.12 2.8-1.32 3.6-.2.8-.3 1.6-.3 2.4 0 1.68.55 3.06 1.65 4.14 1.1 1.08 2.49 1.62 4.17 1.62zm14.16 0c1.68 0 3.06-.53 4.14-1.59 1.08-1.06 1.62-2.45 1.62-4.17 0-1.2-.28-2.24-.84-3.12-.56-.88-1.34-1.54-2.34-1.98l2.64-9.54h-5.94l-3.48 8.64c-.68 1.6-1.12 2.8-1.32 3.6-.2.8-.3 1.6-.3 2.4 0 1.68.55 3.06 1.65 4.14 1.1 1.08 2.49 1.62 4.17 1.62z" id="“"/></g></g></svg>