<svg width="19" height="18" xmlns="http://www.w3.org/2000/svg"><defs><radialGradient cx="50%" cy="52.816%" fx="50%" fy="52.816%" r="52.778%" gradientTransform="matrix(.94737 0 0 1 .026 0)" id="radialGradient-1"><stop stop-color="#EFD8A1" offset="0%"/><stop stop-color="#CDAA5B" offset="100%"/></radialGradient></defs><g id="Page-1" stroke="none" stroke-width="1" fill="none" fill-rule="evenodd"><g id="Home-Page-3" transform="translate(-872 -2337)" fill="url(#radialGradient-1)" fill-rule="nonzero"><g id="Group" transform="translate(633 2183)"><g id="star" transform="translate(239 154)"><path d="M8.48.626L6.163 5.28l-5.19.75C.043 6.164-.33 7.299.345 7.95l3.753 3.62-.888 5.115c-.16.924.824 1.617 1.648 1.184L9.5 15.453l4.642 2.415c.824.429 1.807-.26 1.648-1.184l-.888-5.115 3.753-3.62c.675-.651.302-1.786-.628-1.92l-5.189-.749L10.52.626c-.415-.83-1.62-.84-2.038 0z" id="Path"/></g></g></g></g></svg>