<svg width="24" height="24" viewBox="0 0 24 24" fill="none" xmlns="http://www.w3.org/2000/svg">
<path d="M3.5 13.5V5.5C3.5 4.96957 3.71071 4.46086 4.08579 4.08579C4.46086 3.71071 4.96957 3.5 5.5 3.5H19.5C20.0304 3.5 20.5391 3.71071 20.9142 4.08579C21.2893 4.46086 21.5 4.96957 21.5 5.5V13.5" stroke="#222222" stroke-miterlimit="10" stroke-linecap="square"/>
<path d="M23.5 17.5C23.5 18.5609 23.0786 19.5783 22.3284 20.3284C21.5783 21.0786 20.5609 21.5 19.5 21.5H5.5C4.43913 21.5 3.42172 21.0786 2.67157 20.3284C1.92143 19.5783 1.5 18.5609 1.5 17.5H23.5Z" stroke="#222222" stroke-miterlimit="10" stroke-linecap="square"/>
<path d="M10.5 7.5V13.5L15.5 10.5L10.5 7.5Z" fill="#222222"/>
</svg>
