<svg width="198" height="48" viewBox="0 0 198 48" fill="none" xmlns="http://www.w3.org/2000/svg">
<path d="M69.1743 8.82695L69.0947 8.93342L62.1174 18.6216L69.7182 31.5569H65.3408L59.7297 21.9885L57.6604 24.863V31.5569H53.8931V8.82695H57.6604V18.4087L64.5316 8.82695H69.1743Z" fill="#545246"/>
<path d="M84.0443 8.82701H87.8248V24.2376C87.8248 28.363 84.4687 31.7166 80.3699 31.7166C76.271 31.7166 72.915 28.3497 72.915 24.2376V8.82701H76.7087V24.2376C76.7087 26.2604 78.3536 27.9106 80.3699 27.9106C82.3861 27.9106 84.0575 26.2604 84.0575 24.2376V8.82701H84.0443Z" fill="#545246"/>
<path d="M95.61 8.82701V27.7775H103.741V31.5569H91.8428V8.82701H95.61Z" fill="#545246"/>
<path d="M111.542 8.82695V27.7774H119.66V31.5569H107.762V8.82695H111.542Z" fill="#545246"/>
<path d="M132.978 8.82701V8.85362L140.831 31.5303H136.865V31.4771L135.843 28.3231H128.442L127.433 31.5303H123.48L123.507 31.4372L131.174 8.82701H132.978ZM129.622 24.557H134.636L132.103 17.2243L129.622 24.557Z" fill="#545246"/>
<path d="M147.901 8.82701C151.204 8.88024 154.149 10.078 156.285 12.1274C158.421 14.1768 159.641 17.0114 159.641 20.1387C159.641 23.2661 158.421 26.1007 156.325 28.1767C154.216 30.2528 151.297 31.4904 148.008 31.5569H144.4V8.82701H147.915H147.901ZM155.874 20.1387C155.874 15.9467 152.65 12.7928 148.154 12.6065V27.7642C152.584 27.5779 155.874 24.3041 155.874 20.1387Z" fill="#545246"/>
<path d="M171.115 8.82695V8.85357L178.968 31.5303H175.002V31.477L173.98 28.3231H166.578L165.57 31.5303H161.617L161.644 31.4371L169.311 8.82695H171.115ZM167.759 24.5569H172.773L170.24 17.2243L167.759 24.5569Z" fill="#545246"/>
<path d="M186.966 8.82701V27.7775H195.097V31.5569H183.185V8.82701H186.966Z" fill="#545246"/>
<path d="M41.9618 20.3112L41.3914 18.9139L21.8655 26.9519V24.3435L42.0149 16.0527L41.4578 14.6554L21.8655 22.72V19.8455L41.7894 11.6478L41.2323 10.2638L21.8655 18.2219V15.6135L38.0885 8.93297L37.5181 7.54894L21.8655 13.99V11.528L34.0559 6.51092L33.4988 5.1269L21.8655 9.91775V7.29609L29.3336 4.22196L28.7632 2.83794L21.8655 5.67252V3.41018L25.6062 1.87977L25.0358 0.495741L21.8655 1.79992V0.282814H20.3665V1.82653L16.9442 0.415893L16.3738 1.79992L20.3665 3.43679V5.69914L13.2167 2.75809L12.6463 4.14211L20.3665 7.32271V9.93106L8.48115 5.04705L7.91076 6.43108L20.3665 11.5546V14.0166L4.46188 7.46909L3.89149 8.85312L20.3665 15.6402V18.2485L0.747699 10.1839L0.177307 11.5679L20.3665 19.8721V22.7333L0.747699 14.6554L0.177307 16.0527L20.3665 24.3435V26.9652L0.800755 18.9139L0.243631 20.3112L20.3665 28.5888V31.1971L0.867084 23.1858L0.296692 24.5698L20.3665 32.8207V35.642L0.92014 27.6439L0.349753 29.0279L20.3665 37.2655V47.5792H21.8655V37.2522L41.8557 29.0279L41.2853 27.6439L21.8655 35.6287V32.8074L41.9088 24.5698L41.3384 23.1858L21.8655 31.1971V28.5755L41.9618 20.3112Z" fill="#545246"/>
<path d="M58.9734 42.4436C58.7744 42.244 58.4826 42.0177 58.1643 41.8713C57.8326 41.7249 57.4612 41.6318 57.0898 41.6318C55.6572 41.6318 54.596 42.7896 54.596 44.2268C54.596 45.917 55.9623 46.7687 57.1031 46.7687C57.5275 46.7687 57.9255 46.6489 58.2571 46.4759C58.6153 46.3029 58.8673 46.0633 58.9734 45.9569V46.8219C58.2836 47.3143 57.5673 47.4341 57.1031 47.4341C55.2592 47.4341 53.8929 46.0367 53.8929 44.2268C53.8929 42.417 55.2858 40.993 57.1429 40.993C57.5143 40.993 58.2306 41.0462 58.9734 41.6052V42.4569V42.4436Z" fill="#545246"/>
<path d="M61.8642 41.0726V46.6487H63.5753V47.3007H61.1744V41.0726H61.8642Z" fill="#545246"/>
<path d="M68.8676 45.5435H66.2279L65.485 47.3002H64.7289L67.5809 40.7793L70.3665 47.3002H69.6104L68.8809 45.5435H68.8676ZM68.589 44.8914L67.5411 42.4029L66.4799 44.8914H68.589Z" fill="#545246"/>
<path d="M74.8234 42.2962C74.7438 42.1232 74.5979 41.9369 74.4652 41.8304C74.3458 41.7372 74.1203 41.6175 73.7622 41.6175C73.152 41.6175 72.7143 42.0034 72.7143 42.5756C72.7143 42.8152 72.7806 42.9616 72.953 43.1213C73.1387 43.3076 73.3775 43.4141 73.603 43.5072L74.1999 43.7734C74.5581 43.9331 74.903 44.0928 75.155 44.3589C75.4734 44.6783 75.606 45.0376 75.606 45.4901C75.606 46.6346 74.757 47.4064 73.6428 47.4064C73.2316 47.4064 72.7275 47.3266 72.2898 46.9007C71.9847 46.6079 71.799 46.1688 71.7061 45.7962L72.3826 45.6099C72.4357 45.9293 72.5816 46.222 72.754 46.4083C73.0193 46.6745 73.3244 46.7543 73.6428 46.7543C74.4917 46.7543 74.8897 46.1422 74.8897 45.5167C74.8897 45.2372 74.8101 44.9977 74.5846 44.7848C74.4122 44.6118 74.1601 44.5053 73.8418 44.3589L73.2846 44.0928C73.0459 43.9863 72.7408 43.8532 72.4622 43.5737C72.1969 43.3076 72.0377 43.0281 72.0377 42.5623C72.0377 41.6042 72.7673 40.9521 73.7754 40.9521C74.1601 40.9521 74.4652 41.0319 74.7703 41.2316C75.0224 41.4046 75.2346 41.6574 75.3805 41.9236L74.8366 42.2829L74.8234 42.2962Z" fill="#545246"/>
<path d="M80.3821 42.2962C80.3026 42.1232 80.1566 41.9369 80.024 41.8304C79.9046 41.7372 79.6791 41.6175 79.321 41.6175C78.7108 41.6175 78.273 42.0034 78.273 42.5756C78.273 42.8152 78.3393 42.9616 78.5118 43.1213C78.6975 43.3076 78.9363 43.4141 79.1618 43.5072L79.7587 43.7734C80.1168 43.9331 80.4617 44.0928 80.7138 44.3589C81.0321 44.6783 81.1648 45.0376 81.1648 45.4901C81.1648 46.6346 80.3158 47.4064 79.2016 47.4064C78.7904 47.4064 78.2863 47.3266 77.8485 46.9007C77.5435 46.6079 77.3577 46.1688 77.2649 45.7962L77.9414 45.6099C77.9945 45.9293 78.1404 46.222 78.3128 46.4083C78.5781 46.6745 78.8832 46.7543 79.2016 46.7543C80.0505 46.7543 80.4485 46.1422 80.4485 45.5167C80.4485 45.2372 80.3689 44.9977 80.1434 44.7848C79.9709 44.6118 79.7189 44.5053 79.4005 44.3589L78.8434 44.0928C78.6046 43.9863 78.2996 43.8532 78.021 43.5737C77.7557 43.3076 77.5965 43.0281 77.5965 42.5623C77.5965 41.6042 78.3261 40.9521 79.3342 40.9521C79.7189 40.9521 80.024 41.0319 80.3291 41.2316C80.5811 41.4046 80.7934 41.6574 80.9393 41.9236L80.3954 42.2829L80.3821 42.2962Z" fill="#545246"/>
<path d="M84.0563 41.0727H83.3665V47.3008H84.0563V41.0727Z" fill="#545246"/>
<path d="M91.3399 42.4436C91.141 42.244 90.8491 42.0177 90.5308 41.8713C90.1991 41.7249 89.8277 41.6318 89.4563 41.6318C88.0237 41.6318 86.9625 42.7896 86.9625 44.2268C86.9625 45.917 88.3288 46.7687 89.4696 46.7687C89.894 46.7687 90.292 46.6489 90.6236 46.4759C90.9818 46.3029 91.2338 46.0633 91.3399 45.9569V46.8219C90.6501 47.3143 89.9338 47.4341 89.4696 47.4341C87.6257 47.4341 86.2595 46.0367 86.2595 44.2268C86.2595 42.417 87.6523 40.993 89.5094 40.993C89.8808 40.993 90.5971 41.0462 91.3399 41.6052V42.4569V42.4436Z" fill="#545246"/>
<path d="M97.3219 43.7342L99.9616 41.0726H100.89L97.9852 43.9738L100.983 47.3007H100.041L97.4944 44.4395L97.3219 44.6126V47.3007H96.6321V41.0726H97.3219V43.7342Z" fill="#545246"/>
<path d="M103.542 41.0726H102.853V47.3007H103.542V41.0726Z" fill="#545246"/>
<path d="M107.602 41.7247V47.3007H106.912V41.7247H105.4V41.0726H109.101V41.7247H107.602Z" fill="#545246"/>
<path d="M115.388 42.4436C115.189 42.244 114.897 42.0177 114.579 41.8713C114.247 41.7249 113.876 41.6318 113.505 41.6318C112.072 41.6318 111.011 42.7896 111.011 44.2268C111.011 45.917 112.377 46.7687 113.518 46.7687C113.942 46.7687 114.34 46.6489 114.672 46.4759C115.03 46.3029 115.282 46.0633 115.388 45.9569V46.8219C114.698 47.3143 113.982 47.4341 113.518 47.4341C111.674 47.4341 110.308 46.0367 110.308 44.2268C110.308 42.417 111.687 40.993 113.558 40.993C113.929 40.993 114.645 41.0462 115.388 41.6052V42.4569V42.4436Z" fill="#545246"/>
<path d="M118.268 43.6012H121.452V41.0727H122.141V47.3008H121.452V44.2532H118.268V47.3008H117.592V41.0727H118.268V43.6012Z" fill="#545246"/>
<path d="M127.898 41.7247H125.364V43.5745H127.818V44.2266H125.364V46.6487H127.898V47.3008H124.674V41.0727H127.898V41.7247Z" fill="#545246"/>
<path d="M130.1 47.3001V40.8058L134.942 45.8895V41.072H135.618V47.5796L130.79 42.4826V47.3001H130.1Z" fill="#545246"/>
<path d="M140.922 42.2962C140.842 42.1232 140.696 41.9369 140.564 41.8304C140.444 41.7372 140.219 41.6175 139.861 41.6175C139.251 41.6175 138.813 42.0034 138.813 42.5756C138.813 42.8152 138.879 42.9616 139.052 43.1213C139.237 43.3076 139.476 43.4141 139.702 43.5072L140.298 43.7734C140.657 43.9331 141.001 44.0928 141.254 44.3589C141.572 44.6783 141.705 45.0376 141.705 45.4901C141.705 46.6346 140.856 47.4064 139.741 47.4064C139.33 47.4064 138.826 47.3266 138.388 46.9007C138.083 46.6079 137.897 46.1688 137.805 45.7962L138.481 45.6099C138.534 45.9293 138.68 46.222 138.853 46.4083C139.118 46.6745 139.423 46.7543 139.741 46.7543C140.59 46.7543 140.988 46.1422 140.988 45.5167C140.988 45.2372 140.909 44.9977 140.683 44.7848C140.511 44.6118 140.259 44.5053 139.94 44.3589L139.383 44.0928C139.144 43.9863 138.839 43.8532 138.561 43.5737C138.295 43.3076 138.136 43.0281 138.136 42.5623C138.136 41.6042 138.866 40.9521 139.874 40.9521C140.259 40.9521 140.564 41.0319 140.869 41.2316C141.121 41.4046 141.333 41.6574 141.479 41.9236L140.935 42.2829L140.922 42.2962Z" fill="#545246"/>
</svg>
