<svg width="172" height="114" viewBox="0 0 172 114" fill="none" xmlns="http://www.w3.org/2000/svg">
<g clip-path="url(#clip0_3590_1852)">
<path d="M18.6142 66.3176L18.5172 66.4473L10.0182 78.2483L19.2766 94.0046H13.9446L7.1098 82.3495L4.58918 85.8509V94.0046H0.000366211V66.3176H4.58918V77.989L12.9589 66.3176H18.6142Z" fill="white"/>
<path d="M36.7265 66.3169H41.3314V85.0883C41.3314 90.1135 37.2435 94.1984 32.2507 94.1984C27.258 94.1984 23.17 90.0973 23.17 85.0883V66.3169H27.7912V85.0883C27.7912 87.5523 29.7948 89.5623 32.2507 89.5623C34.7067 89.5623 36.7426 87.5523 36.7426 85.0883V66.3169H36.7265Z" fill="white"/>
<path d="M50.8169 66.3169V89.4002H60.7216V94.0039H46.228V66.3169H50.8169Z" fill="white"/>
<path d="M70.2222 66.3169V89.4002H80.1108V94.0039H65.6172V66.3169H70.2222Z" fill="white"/>
<path d="M96.3324 66.3169V66.3493L105.898 93.9715H101.067V93.9066L99.8225 90.0648H90.8065L89.5785 93.9715H84.7634L84.7957 93.858L94.135 66.3169H96.3324ZM92.2445 85.4773H98.3521L95.266 76.5455L92.2445 85.4773Z" fill="white"/>
<path d="M114.511 66.3169C118.534 66.3817 122.121 67.8407 124.722 70.337C127.324 72.8334 128.81 76.2862 128.81 80.0956C128.81 83.905 127.324 87.3577 124.771 89.8865C122.202 92.4153 118.647 93.9229 114.64 94.0039H110.245V66.3169H114.527H114.511ZM124.222 80.0956C124.222 74.9893 120.295 71.1475 114.818 70.9206V89.384C120.214 89.1571 124.222 85.1694 124.222 80.0956Z" fill="white"/>
<path d="M142.788 66.3169V66.3493L152.353 93.9715H147.522V93.9066L146.278 90.0648H137.262L136.034 93.9715H131.219L131.251 93.858L140.59 66.3169H142.788ZM138.7 85.4773H144.807L141.721 76.5455L138.7 85.4773Z" fill="white"/>
<path d="M162.095 66.3169V89.4002H172V94.0039H157.49V66.3169H162.095Z" fill="white"/>
<path d="M111.409 24.3969L110.714 22.6948L86.9295 32.4857V29.3085L111.473 19.2096L110.795 17.5075L86.9295 27.3309V23.8295L111.199 13.844L110.52 12.1581L86.9295 21.8518V18.6746L106.691 10.5371L105.996 8.85126L86.9295 16.697V13.6981L101.779 7.58686L101.1 5.901L86.9295 11.7367V8.54327L96.0263 4.79871L95.3316 3.11285L86.9295 6.56562V3.80989L91.486 1.94571L90.7912 0.259852L86.9295 1.84845V0.000488281H85.1037V1.88087L80.9349 0.16259L80.2402 1.84845L85.1037 3.84231V6.59804L76.3946 3.01559L75.6998 4.70145L85.1037 8.57569V11.7529L70.6263 5.80374L69.9315 7.4896L85.1037 13.7305V16.7294L65.7304 8.754L65.0357 10.4399L85.1037 18.7071V21.8843L61.2063 12.0609L60.5115 13.7467L85.1037 23.8619V27.3471L61.2063 17.5075L60.5115 19.2096L85.1037 29.3085V32.502L61.2709 22.6948L60.5923 24.3969L85.1037 34.4796V37.6568L61.3517 27.8983L60.6569 29.5841L85.1037 39.6344V43.071L61.4163 33.3287L60.7215 35.0145L85.1037 45.0487V57.6116H86.9295V45.0324L111.279 35.0145L110.585 33.3287L86.9295 43.0548V39.6182L111.344 29.5841L110.649 27.8983L86.9295 37.6568V34.4634L111.409 24.3969Z" fill="white"/>
<path d="M38.6977 107.263C38.4554 107.02 38.0999 106.745 37.7121 106.566C37.3081 106.388 36.8557 106.274 36.4033 106.274C34.6583 106.274 33.3656 107.685 33.3656 109.435C33.3656 111.494 35.0299 112.532 36.4195 112.532C36.9365 112.532 37.4213 112.386 37.8252 112.175C38.2615 111.964 38.5685 111.672 38.6977 111.543V112.596C37.8575 113.196 36.985 113.342 36.4195 113.342C34.1735 113.342 32.5093 111.64 32.5093 109.435C32.5093 107.231 34.2058 105.496 36.4679 105.496C36.9204 105.496 37.7929 105.561 38.6977 106.242V107.279V107.263Z" fill="white"/>
<path d="M42.219 105.593V112.385H44.3034V113.18H41.3788V105.593H42.219Z" fill="white"/>
<path d="M50.7508 111.04H47.5354L46.6306 113.179H45.7096L49.1835 105.236L52.5767 113.179H51.6557L50.767 111.04H50.7508ZM50.4115 110.245L49.135 107.214L47.8424 110.245H50.4115Z" fill="white"/>
<path d="M58.0063 107.084C57.9093 106.873 57.7316 106.646 57.57 106.517C57.4246 106.403 57.1499 106.257 56.7136 106.257C55.9704 106.257 55.4372 106.727 55.4372 107.424C55.4372 107.716 55.518 107.895 55.728 108.089C55.9542 108.316 56.2451 108.446 56.5197 108.559L57.2468 108.883C57.6831 109.078 58.1032 109.272 58.4102 109.597C58.798 109.986 58.9596 110.423 58.9596 110.974C58.9596 112.369 57.9255 113.309 56.5682 113.309C56.0673 113.309 55.4533 113.211 54.9201 112.693C54.5485 112.336 54.3223 111.801 54.2092 111.347L55.0332 111.12C55.0979 111.509 55.2756 111.866 55.4856 112.093C55.8088 112.417 56.1804 112.514 56.5682 112.514C57.6023 112.514 58.087 111.769 58.087 111.007C58.087 110.666 57.9901 110.375 57.7154 110.115C57.5054 109.905 57.1984 109.775 56.8106 109.597L56.132 109.272C55.8411 109.143 55.4695 108.981 55.1302 108.64C54.807 108.316 54.6131 107.976 54.6131 107.408C54.6131 106.241 55.5018 105.447 56.7298 105.447C57.1984 105.447 57.57 105.544 57.9416 105.787C58.2486 105.998 58.5071 106.306 58.6849 106.63L58.0224 107.068L58.0063 107.084Z" fill="white"/>
<path d="M64.776 107.084C64.6791 106.873 64.5013 106.646 64.3398 106.517C64.1943 106.403 63.9197 106.257 63.4834 106.257C62.7401 106.257 62.2069 106.727 62.2069 107.424C62.2069 107.716 62.2877 107.895 62.4978 108.089C62.724 108.316 63.0148 108.446 63.2895 108.559L64.0166 108.883C64.4529 109.078 64.873 109.272 65.18 109.597C65.5678 109.986 65.7293 110.423 65.7293 110.974C65.7293 112.369 64.6952 113.309 63.338 113.309C62.8371 113.309 62.2231 113.211 61.6899 112.693C61.3183 112.336 61.092 111.801 60.9789 111.347L61.803 111.12C61.8676 111.509 62.0454 111.866 62.2554 112.093C62.5786 112.417 62.9502 112.514 63.338 112.514C64.3721 112.514 64.8568 111.769 64.8568 111.007C64.8568 110.666 64.7599 110.375 64.4852 110.115C64.2751 109.905 63.9681 109.775 63.5803 109.597L62.9017 109.272C62.6109 109.143 62.2393 108.981 61.8999 108.64C61.5768 108.316 61.3829 107.976 61.3829 107.408C61.3829 106.241 62.2716 105.447 63.4996 105.447C63.9681 105.447 64.3398 105.544 64.7114 105.787C65.0184 105.998 65.2769 106.306 65.4547 106.63L64.7922 107.068L64.776 107.084Z" fill="white"/>
<path d="M69.2515 105.593H68.4113V113.18H69.2515V105.593Z" fill="white"/>
<path d="M78.1225 107.263C77.8802 107.02 77.5247 106.745 77.1369 106.566C76.733 106.388 76.2805 106.274 75.8281 106.274C74.0831 106.274 72.7904 107.685 72.7904 109.435C72.7904 111.494 74.4547 112.532 75.8443 112.532C76.3613 112.532 76.8461 112.386 77.25 112.175C77.6863 111.964 77.9933 111.672 78.1225 111.543V112.596C77.2823 113.196 76.4098 113.342 75.8443 113.342C73.5983 113.342 71.9341 111.64 71.9341 109.435C71.9341 107.231 73.6307 105.496 75.8928 105.496C76.3452 105.496 77.2177 105.561 78.1225 106.242V107.279V107.263Z" fill="white"/>
<path d="M85.4091 108.835L88.6245 105.593H89.7555L86.2169 109.127L89.8686 113.18H88.7214L85.6191 109.694L85.4091 109.905V113.18H84.5688V105.593H85.4091V108.835Z" fill="white"/>
<path d="M92.9873 105.593H92.1471V113.18H92.9873V105.593Z" fill="white"/>
<path d="M97.9313 106.388V113.18H97.0911V106.388H95.2491V105.593H99.7572V106.388H97.9313Z" fill="white"/>
<path d="M107.416 107.263C107.174 107.02 106.818 106.745 106.43 106.566C106.026 106.388 105.574 106.274 105.122 106.274C103.377 106.274 102.084 107.685 102.084 109.435C102.084 111.494 103.748 112.532 105.138 112.532C105.655 112.532 106.14 112.386 106.544 112.175C106.98 111.964 107.287 111.672 107.416 111.543V112.596C106.576 113.196 105.703 113.342 105.138 113.342C102.892 113.342 101.228 111.64 101.228 109.435C101.228 107.231 102.908 105.496 105.186 105.496C105.639 105.496 106.511 105.561 107.416 106.242V107.279V107.263Z" fill="white"/>
<path d="M110.923 108.673H114.801V105.593H115.641V113.18H114.801V109.468H110.923V113.18H110.099V105.593H110.923V108.673Z" fill="white"/>
<path d="M122.654 106.388H119.568V108.641H122.557V109.435H119.568V112.385H122.654V113.18H118.727V105.593H122.654V106.388Z" fill="white"/>
<path d="M125.336 113.179V105.268L131.233 111.461V105.593H132.057V113.519L126.176 107.311V113.179H125.336Z" fill="white"/>
<path d="M138.52 107.084C138.423 106.873 138.245 106.646 138.083 106.517C137.938 106.403 137.663 106.257 137.227 106.257C136.484 106.257 135.95 106.727 135.95 107.424C135.95 107.716 136.031 107.895 136.241 108.089C136.467 108.316 136.758 108.446 137.033 108.559L137.76 108.883C138.196 109.078 138.616 109.272 138.923 109.597C139.311 109.986 139.473 110.423 139.473 110.974C139.473 112.369 138.439 113.309 137.081 113.309C136.581 113.309 135.967 113.211 135.433 112.693C135.062 112.336 134.836 111.801 134.722 111.347L135.546 111.12C135.611 111.509 135.789 111.866 135.999 112.093C136.322 112.417 136.694 112.514 137.081 112.514C138.116 112.514 138.6 111.769 138.6 111.007C138.6 110.666 138.503 110.375 138.229 110.115C138.019 109.905 137.712 109.775 137.324 109.597L136.645 109.272C136.354 109.143 135.983 108.981 135.643 108.64C135.32 108.316 135.126 107.976 135.126 107.408C135.126 106.241 136.015 105.447 137.243 105.447C137.712 105.447 138.083 105.544 138.455 105.787C138.762 105.998 139.02 106.306 139.198 106.63L138.536 107.068L138.52 107.084Z" fill="white"/>
</g>
<defs>
<clipPath id="clip0_3590_1852">
<rect width="172" height="113.52" fill="white"/>
</clipPath>
</defs>
</svg>
