<svg width="2052" height="537" xmlns="http://www.w3.org/2000/svg"><g fill="none" fill-rule="evenodd"><path d="M533.218 23.43l3.098.02 1.55.011 3.107.02 9.338.063 10.457.073c68.535.48 135.989 1.066 161.116 1.066 2.508 0 4.245.773 5.21 2.317h511.608l-.702-1h102.68c1.813 0 3.513.227 5.1.68 1.587.453 3.06 1.36 4.42 2.72l2.92 2.92.14.14c.68.68 1.7 2.153 3.06 4.42s2.267 3.627 2.72 4.08L1629 425.84l269.96-384.88c.907-.453 2.04-1.813 3.4-4.08 1.36-2.267 2.38-3.74 3.06-4.42l.14-.14 2.92-2.92c1.36-1.36 2.72-2.267 4.08-2.72 1.36-.453 3.173-.68 5.44-.68h102l-323.68 461.04c-6.8 9.973-12.693 14.96-17.68 14.96h-98.6c-4.987 0-11.107-4.987-18.36-14.96l-259.713-369.928c-.85.356-1.88.533-3.087.533H699.12c-2.302 0-3.955-.646-4.958-1.938l-455.304-1.587c-26.277 0-50.743 6.573-73.396 19.72-22.653 13.147-40.55 30.94-53.688 53.38-13.139 22.44-19.708 47.033-19.708 73.78 0 40.347 14.385 74.913 43.154 103.7 28.77 28.787 63.316 43.18 103.638 43.18h382.613c4.077 0 6.116 2.04 6.116 6.12v78.88c0 4.08-2.039 6.12-6.116 6.12H238.858c-43.04 0-82.797-10.653-119.269-31.96-36.471-21.307-65.354-50.207-86.648-86.7C11.647 343.847 1 304.067 1 261c0-43.067 10.647-82.847 31.941-119.34 21.294-36.493 50.177-65.393 86.648-86.7C156.061 33.653 195.817 23 238.86 23h194.766c27.627.015 62.965.194 99.593.43zm635.334 194.303c4.077 0 6.115 2.038 6.115 6.114v78.798c0 4.076-2.038 6.114-6.115 6.114H784.034v186.127c0 4.076-2.038 6.114-6.114 6.114h-78.806c-4.076 0-6.114-2.038-6.114-6.114v-271.04c0-4.075 2.265-6.113 6.794-6.113h468.758z" stroke="#445775"/><path d="M1554.225 375h161.55c8.285 0 15 6.716 15 15a15 15 0 01-1.902 7.31l-73.674 132A15 15 0 011642.1 537h-161.55c-8.285 0-15-6.716-15-15a15 15 0 011.901-7.31l73.675-132a15 15 0 0113.098-7.69zm310-375h161.55c8.285 0 15 6.716 15 15a15 15 0 01-1.902 7.31l-73.674 132A15 15 0 011952.1 162h-161.55c-8.285 0-15-6.716-15-15a15 15 0 011.901-7.31l73.675-132A15 15 0 011864.225 0z" fill="#FFF"/><path d="M234.225 175h161.55c8.285 0 15 6.716 15 15a15 15 0 01-1.902 7.31l-73.674 132A15 15 0 01322.1 337H160.55c-8.285 0-15-6.716-15-15a15 15 0 011.901-7.31l73.675-132a15 15 0 0113.098-7.69z" fill="#547554"/></g></svg>