<svg width="86" height="87" xmlns="http://www.w3.org/2000/svg"><g stroke="#2C3C54" stroke-width="2.667" fill="none" fill-rule="evenodd"><path d="M6.667 15.333h4l6.666 8 11.922 8.244a4 4 0 005.657 0h0a4 4 0 000-5.656l-7.57-6.048a1.797 1.797 0 01-.675-1.406h0a1.8 1.8 0 011.801-1.8h16.865l6.667 4v6.082a3.333 3.333 0 003.333 3.334h0a3.333 3.333 0 003.334-3.334V18L45.333 6 16 2H6.667"/><path d="M46.667 17.583v9.166A3.333 3.333 0 0050 30.083h0a3.331 3.331 0 002.88-1.654"/><path d="M35.893 26.95A9.297 9.297 0 0140 26a9.332 9.332 0 019.333 9.333 9.333 9.333 0 11-18.338-2.461M40 31.334v8M0 2h6.667v21.333H0m1.333 48.575c0 4.259 3.247 7.712 7.367 7.712 3.295 0 5.967-2.763 5.967-6.17 0-2.726-2.138-4.935-4.774-4.935-2.109 0-3.818 1.406-3.818 3.354 0 1.744 1.366 3.202 3.054 3.202m21.538-30.405h18.666m16 12.001v2.666M40 48.667v2.666M40 54v2.667m0 2.666V62m12.717-23.368c2.172-.863 4.178-1.647 5.04-1.947 2.307-.797 5.143-2.037 6.916-.885 1.774 1.153.799 4.257.799 4.257l-1.044 4.792a34.85 34.85 0 0110.001 13.084c1.914 4.272 5.056 3.686 6.082 3.77.164.012.276.014.324.016H84v9.624s-4.333.717-6.415 4.02c-.878 1.394-1.581 5.27-2.622 9.182-.014.043.012.08 0 .122V86"/><path d="M4.12 86v-1.333c-1.141-3.039-2.037-6.362-2.681-10.703l-.106-3.277v-.094C1.904 54.723 13.18 41.585 28.11 38.06l2.779-.616M21 86.025v-2.293l4.076-1.45c.596-1.44.897-2.169 1.495-3.609l-1.858-3.908c1.752-1.75 1.756-1.756 3.507-3.506l3.908 1.857 3.61-1.496 1.449-4.075h4.96l1.449 4.075 3.61 1.496 3.906-1.857 3.508 3.506-1.857 3.908 1.494 3.61 4.076 1.449v2.293M36 86a4 4 0 118 0m-29.333-1.334h2.666m45.334 0h2.666"/></g></svg>