<svg width="300" height="31" xmlns="http://www.w3.org/2000/svg"><g fill="none" fill-rule="evenodd"><path d="M15.123 0h12.163c5.402 0 15.84.107 18.548.107.26 0 .389.13.389.389v5.012c0 .26-.13.389-.389.389l-30.71-.107a9.144 9.144 0 00-4.667 1.253 9.29 9.29 0 00-3.414 3.392c-.835 1.426-1.253 2.989-1.253 4.688 0 2.564.915 4.76 2.744 6.59 1.829 1.829 4.025 2.743 6.59 2.743H39.45c.259 0 .389.13.389.39v5.011c0 .26-.13.39-.39.39H15.124c-2.736 0-5.264-.678-7.583-2.032a15.082 15.082 0 01-5.51-5.509C.678 20.387 0 17.86 0 15.123 0 12.387.677 9.86 2.03 7.54a15.082 15.082 0 015.51-5.51C9.859.678 12.387 0 15.123 0z" fill="#FFF" fill-rule="nonzero"/><path d="M74.552 12.759v5.012c0 .26-.13.389-.388.389H49.707v11.839c0 .26-.13.389-.389.389h-5.012c-.26 0-.389-.13-.389-.389v-17.24c0-.26.144-.39.432-.39h29.815c.259 0 .388.13.388.39zm8.253-7.216c0 .259-.13.389-.389.389h-38.11c-.26 0-.389-.13-.389-.39V.532c0-.26.13-.39.39-.39h38.11c.259 0 .388.13.388.39v5.012z" fill="#FFF" fill-rule="nonzero"/><path d="M78.626.142h6.525c.115 0 .223.014.324.043a.65.65 0 01.28.173l.195.194c.043.043.108.137.194.281.087.144.144.23.173.26l17.154 24.456 17.154-24.457c.058-.029.13-.115.216-.259.087-.144.151-.238.195-.28l.194-.195a.68.68 0 01.26-.173c.086-.029.201-.043.345-.043h6.481L107.75 29.437c-.432.634-.807.95-1.124.95h-6.265c-.317 0-.706-.316-1.166-.95L78.626.142zm58.612 22.667V7.438h2.167v15.37zm7.472 0V7.438h2.23l8.704 11.774V7.438h2.167v15.37h-2.167l-8.768-11.878v11.88zm18.406 0V7.438h2.23l8.704 11.774V7.438h2.167v15.37h-2.167l-8.767-11.878v11.88zm25.074.263c-1.495 0-2.819-.338-3.973-1.013a7.188 7.188 0 01-2.715-2.81c-.656-1.197-.983-2.57-.983-4.119 0-1.562.325-2.94.975-4.133a7.19 7.19 0 012.688-2.803c1.14-.676 2.458-1.014 3.95-1.014 1.494 0 2.814.34 3.96 1.021a7.17 7.17 0 012.687 2.811c.645 1.193.968 2.566.968 4.117 0 1.549-.322 2.922-.965 4.12s-1.532 2.135-2.667 2.81c-1.134.675-2.443 1.013-3.926 1.013zm.001-1.979c1.05 0 1.977-.255 2.781-.765s1.435-1.213 1.891-2.109c.457-.896.686-1.926.686-3.09s-.233-2.195-.697-3.092c-.465-.897-1.102-1.601-1.912-2.112-.81-.51-1.746-.766-2.808-.766-1.05 0-1.981.255-2.797.766-.817.51-1.457 1.214-1.921 2.11-.465.897-.697 1.928-.697 3.093s.233 2.196.7 3.092a5.295 5.295 0 001.939 2.108c.827.51 1.772.765 2.835.765zm16.371 1.716l6.154-15.371h2.309l-6.302 15.37h-2.16zm-.226 0l-6.298-15.371h2.293l6.15 15.37h-2.145zm21.728 0l-6.091-15.371h2.192l6.198 15.37h-2.299zm-12.384 0l6.198-15.371h2.193l-6.092 15.37h-2.299zm2.924-4.104V16.77h8.842v1.935h-8.842zm17.954 4.104V9.416h-4.818V7.438h11.797v1.978h-4.812V22.81zm10.603 0V7.438h2.167v15.37zm14.139.263c-1.494 0-2.818-.338-3.972-1.013a7.188 7.188 0 01-2.715-2.81c-.656-1.197-.984-2.57-.984-4.119 0-1.562.326-2.94.976-4.133a7.19 7.19 0 012.687-2.803c1.141-.676 2.458-1.014 3.952-1.014 1.493 0 2.813.34 3.959 1.021a7.17 7.17 0 012.687 2.811c.645 1.193.968 2.566.968 4.117 0 1.549-.322 2.922-.965 4.12s-1.532 2.135-2.667 2.81c-1.134.675-2.443 1.013-3.926 1.013zm.002-1.979c1.05 0 1.977-.255 2.78-.765.805-.51 1.436-1.213 1.892-2.109.457-.896.685-1.926.685-3.09s-.232-2.195-.697-3.092c-.464-.897-1.101-1.601-1.911-2.112-.81-.51-1.746-.766-2.808-.766-1.05 0-1.982.255-2.798.766-.816.51-1.456 1.214-1.92 2.11-.465.897-.697 1.928-.697 3.093s.233 2.196.7 3.092a5.295 5.295 0 001.939 2.108c.827.51 1.772.765 2.835.765zm11.858 1.716V7.438h2.23l8.703 11.774V7.438h2.168v15.37h-2.168l-8.767-11.878v11.88zm23.378.263c-.822 0-1.563-.093-2.225-.28a6.104 6.104 0 01-1.737-.777 5.14 5.14 0 01-1.222-1.11 3.944 3.944 0 01-.682-1.3l2.098-.681c.215.596.63 1.116 1.245 1.56.614.444 1.37.67 2.27.679 1.077.004 1.928-.213 2.55-.65.624-.439.935-1.015.935-1.73 0-.656-.271-1.191-.815-1.606-.543-.415-1.263-.736-2.16-.964l-1.773-.452a6.925 6.925 0 01-1.921-.811 4.165 4.165 0 01-1.366-1.348c-.337-.541-.505-1.188-.505-1.938 0-1.414.457-2.516 1.371-3.306.914-.79 2.232-1.184 3.953-1.184.997 0 1.863.158 2.597.475.734.317 1.337.732 1.809 1.245.471.514.81 1.077 1.015 1.69l-2.076.694a3.279 3.279 0 00-1.28-1.59c-.604-.403-1.344-.605-2.222-.605-.915 0-1.639.22-2.17.659-.533.439-.798 1.038-.798 1.796 0 .65.209 1.147.626 1.49.418.345.973.604 1.665.78l1.78.436c1.442.345 2.553.925 3.332 1.74.779.814 1.168 1.702 1.168 2.665 0 .843-.207 1.597-.621 2.263-.414.666-1.027 1.193-1.839 1.58-.811.387-1.812.58-3.002.58z" fill="#FFF" fill-rule="nonzero"/><path d="M78.626 11.635c0 .259-.116.388-.347.388H44.264c-.231 0-.347-.13-.347-.388V6.622c0-.259.116-.389.347-.389H78.28c.231 0 .347.13.347.39v5.012z" fill="#547554"/></g></svg>