<svg width="84" height="82" xmlns="http://www.w3.org/2000/svg"><g fill="#2C3C54"><path d="M36.4 75.91c-16.983 0-30.8-13.817-30.8-30.8 0-16.984 13.817-30.8 30.8-30.8a30.7 30.7 0 0110.268 1.754l-.933 2.637A27.968 27.968 0 0036.4 17.11c-15.44 0-28 12.561-28 28 0 15.44 12.56 28 28 28 10.096 0 19.451-5.47 24.412-14.275l2.44 1.374C57.795 69.892 47.505 75.91 36.4 75.91M8.045 67.935a35.918 35.918 0 01-1.515-2.019l2.3-1.599c.442.637.907 1.256 1.394 1.86l-2.18 1.758"/><path d="M36.4 81.51c-9.797 0-18.988-3.837-25.878-10.802l1.99-1.968c6.36 6.429 14.844 9.97 23.888 9.97v2.8m8.999-1.122l-.69-2.715a33.755 33.755 0 002.262-.659l.878 2.659c-.806.266-1.622.505-2.45.715m6.044-2.124l-1.157-2.55c.702-.317 1.39-.659 2.064-1.024l1.331 2.464a36.19 36.19 0 01-2.238 1.11m-4.661-42.416c-1.45-.616-6.182-2.977-6.182-7.539 0-3.701 4.298-5.943 4.48-6.038l1.277 2.495-.638-1.247.641 1.244c-.823.429-2.96 1.897-2.96 3.546 0 2.915 3.729 4.643 4.476 4.96l-1.094 2.58"/><path d="M45.719 67.51c-3.157 0-5.119-2.85-5.119-7.439V57.71c0-3.257-.738-4.2-3.292-4.2-3.205 0-10.708 0-10.708-7 0-3.143 1.532-4.509 2.652-5.507.966-.858 1.548-1.378 1.548-2.893 0-4.383 1.521-7 4.069-7 2.17 0 3.114 1.206 3.739 2.002.496.633.648.798 1.18.798 1.247 0 2.292-1.892 2.584-2.473l2.502 1.255c-1.297 2.59-3.105 4.018-5.086 4.018-1.915 0-2.798-1.125-3.383-1.87-.515-.658-.728-.93-1.536-.93-.676 0-1.269 1.963-1.269 4.2 0 2.771-1.378 3.997-2.484 4.986-.997.886-1.716 1.527-1.716 3.414 0 3.513 2.9 4.2 7.908 4.2 6.092 0 6.092 5.087 6.092 7v2.362c0 2.14.607 4.638 2.319 4.638 1.163 0 3.272-2.634 5.149-8.418l2.663.864c-1.532 4.725-4.133 10.354-7.812 10.354M15.4 33.91c-1.474 0-3.301-.56-5.436-1.664l1.288-2.488c1.682.871 3.155 1.351 4.148 1.351 2.067 0 2.8-.732 2.8-2.8v-7.327H21v7.327c0 3.611-1.989 5.6-5.6 5.6m9.8 37.77h-2.8v-4.322a5.601 5.601 0 00-1.333-3.625 67.322 67.322 0 01-4.02-5.23c-.852-1.24-1.394-3.005-1.609-5.242-.14-1.454-1.318-2.55-2.738-2.55H7.312v-2.8H12.7c2.87 0 5.246 2.185 5.525 5.083.166 1.734.557 3.091 1.129 3.924a64.214 64.214 0 003.848 5.004 8.406 8.406 0 011.998 5.436v4.322"/><path d="M46.039 41.247c1.988 1.177 3.076 2.524 4.636 4.961 3.274 5.12 6.159 7.103 15.076 7.286C64.94 42.169 54.354 40.909 49.7 40.909c-1.162 0-2.437.124-3.661.338zM68.6 56.309h-1.4c-11.455 0-15.084-2.651-18.885-8.591-1.962-3.066-2.826-3.943-6.825-5.504l-3.26-1.275 3.24-1.326c2.2-.899 5.507-1.504 8.23-1.504 11.834 0 18.9 6.28 18.9 16.8v1.4"/><path d="M57.165 75.01l-1.6-2.3a33.884 33.884 0 006.809-6.283c2.21-2.69 3.426-6.135 3.426-9.705v-1.425c-1.433-2.25-4.884-4.89-8.56-6.522l1.135-2.56c3.67 1.63 8.199 4.737 10.045 8.007l.18.32v2.18c0 4.217-1.443 8.294-4.063 11.482a36.597 36.597 0 01-7.372 6.805m-.778-68.86C54.42 8.436 51.8 12.37 51.8 17.109c0 2.875 1.037 9.466 10.468 9.788 1.434-2.184 2.132-4.165 2.132-6.033 0-2.873-1.704-4.957-3.678-7.37-1.687-2.064-3.546-4.34-4.335-7.345zm7.34 23.56H63c-10.322 0-14-6.51-14-12.6 0-8.027 6.225-13.944 7.471-15.048L58.8 0v3.11c0 3.607 1.986 6.039 4.09 8.612 2.12 2.59 4.31 5.27 4.31 9.142 0 2.636-1 5.336-3.055 8.252l-.419.593"/><path d="M67.528 36.655c-1.985-3.251-3.936-5.855-5.492-7.33C58.982 26.427 56 22.988 56 15.708h2.8c0 6.174 2.442 9.004 5.164 11.584 2.216 2.104 4.461 5.457 5.954 7.902l-2.39 1.46"/><path d="M77.563 20.245c-.909 2.23-2.338 4.149-3.734 6.022C71.861 28.91 70 31.407 70 34.415c0 2.332 1.039 4.772 3.255 7.627 5.7-2.247 7.945-4.976 7.945-9.533 0-5.304-1.355-8.867-3.637-12.264zm-5.211 25.116l-.63-.757c-3.085-3.723-4.522-6.96-4.522-10.19 0-3.935 2.229-6.926 4.385-9.82 1.844-2.477 3.587-4.815 4.032-7.697l.49-3.187 1.993 2.534c3.541 4.503 5.9 8.992 5.9 16.265 0 7.605-5.42 10.596-10.723 12.516l-.925.336"/><path d="M74.2 54.91h-2.8v-11.2c0-5.113 2.125-10.223 3.39-12.815l2.517 1.23C76.146 34.498 74.2 39.16 74.2 43.708v11.2M15.247 19.002l-1.764-2.174a36.352 36.352 0 012.19-1.645l1.595 2.303a33.25 33.25 0 00-2.021 1.516M2.8 45.11H0a36.323 36.323 0 019.402-24.415l2.075 1.877A33.534 33.534 0 002.8 45.11"/></g></svg>