<svg width="84" height="76" xmlns="http://www.w3.org/2000/svg"><g fill="#2C3C54"><path d="M15.318 50.172L9.71 35.356a4.904 4.904 0 01-.319-1.75c0-1.861 1.147-3.555 2.922-4.317.239-.117 7.328-3.534 12.8-3.648l.059 2.836c-4.858.1-11.612 3.357-11.68 3.39-.78.336-1.265 1.025-1.265 1.738 0 .26.045.51.136.746l5.609 14.816-2.653 1.005"/><path d="M7.802 63.195L9.548 51.92 0 44.266l12.792-4.786.995 2.657-8.121 3.037 6.937 5.558-1.279 8.243 13.071-4.527a.876.876 0 00-.286-1.704h-5.066a3.986 3.986 0 01-3.982-3.981c0-4.746 9.328-7.522 13.585-8.056L29 43.52c-5.188.653-11.103 3.448-11.103 5.243 0 .63.513 1.145 1.146 1.145h5.066a3.718 3.718 0 013.713 3.714 3.716 3.716 0 01-2.5 3.507l-17.52 6.066"/><path d="M24.937 53.33l-3.273-9.303 2.676-.94 3.272 9.301-2.675.942m1.467-31.514v.798c0 15.568 5.246 25.78 15.596 30.364 10.35-4.584 15.596-14.796 15.596-30.364v-.798C50.54 19.591 45.512 15.514 42 9.139c-3.512 6.375-8.54 10.452-15.596 12.677zM42 56.056l-.546-.227c-11.868-4.946-17.886-16.122-17.886-33.215v-2.926l1.034-.292c7.778-2.196 12.746-6.52 16.104-14.02L42 2.488l1.294 2.888c3.358 7.5 8.326 11.824 16.104 14.02l1.034.292v2.926c0 17.093-6.018 28.269-17.886 33.215l-.546.227"/><path d="M29.519 30.087a46.87 46.87 0 01-.267-4.104l2.836-.064c.03 1.344.113 2.64.251 3.854l-2.82.314M35.84 45.07c-2.862-2.884-4.817-6.826-5.81-11.719l2.777-.564c.883 4.341 2.58 7.8 5.046 10.286L35.84 45.07m32.842 5.102l-2.653-1.005 5.61-14.816c.09-.235.135-.486.135-.746 0-.713-.485-1.402-1.205-1.71-.126-.06-6.893-3.319-11.74-3.418l.059-2.836c5.472.114 12.561 3.53 12.86 3.677 1.715.733 2.862 2.427 2.862 4.287 0 .603-.107 1.193-.32 1.751l-5.608 14.816"/><path d="M76.198 63.195l-17.52-6.066a3.716 3.716 0 01-2.5-3.507 3.718 3.718 0 013.713-3.714h5.066c.633 0 1.146-.514 1.146-1.145 0-1.795-5.915-4.59-11.103-5.243l.354-2.813c4.257.534 13.585 3.31 13.585 8.056a3.986 3.986 0 01-3.982 3.981h-5.066a.877.877 0 00-.286 1.704l13.07 4.527-1.278-8.243 6.937-5.558-8.12-3.037.994-2.657L84 44.266l-9.548 7.654 1.746 11.275"/><path d="M59.063 53.33l-2.675-.942 3.272-9.3 2.676.94-3.273 9.302M26.404 72.594h31.192v-5.672a2.838 2.838 0 00-2.836-2.835H29.24a2.838 2.838 0 00-2.836 2.835v5.672zm34.028 2.835H23.568v-8.507a5.677 5.677 0 015.672-5.67h25.52a5.677 5.677 0 015.672 5.67v8.507"/><path d="M48.377 63.06l-2.994-10.415 2.725-.784 2.994 10.415-2.725.784m-12.754 0l-2.725-.784 2.994-10.415 2.725.784-2.994 10.415m-3.548 3.862H29.24v2.836h2.835v-2.836m5.672 0H34.91v2.836h2.836v-2.836m5.672 0h-2.836v2.836h2.836v-2.836M28.807 7.677L24.53 1.64 26.845 0l4.278 6.038-2.316 1.64m-4.972 5.668l-6.288-3.963 1.511-2.399 6.29 3.963-1.513 2.399m31.358-5.669l-2.316-1.64L57.155 0l2.315 1.639-4.277 6.038m4.972 5.669l-1.513-2.4 6.29-3.962 1.511 2.399-6.288 3.963"/></g></svg>