<svg width="84" height="85" xmlns="http://www.w3.org/2000/svg"><g fill="none"><path d="M17.586 0h11.108c1.234 3.085 1.234 3.085 1.562 4.55.413 1.312 1.092 1.733 2.275 2.392 1.998.978 3.095 1.127 5.264.617 2.561-.602 2.561-.602 3.549-.154.598.808.598.808 1.21 1.876l.33.571c.228.399.454.799.679 1.2.344.612.696 1.22 1.05 1.827l.66 1.165.609 1.072c.398.928.398.928.345 1.622-.397.838-.99 1.43-1.625 2.102-1.677 1.79-2.238 2.966-2.315 5.387.063 1.915.807 2.896 2.161 4.197l.542.474c1.278 1.137 1.278 1.137 1.342 2.217-.473 1.276-1.111 2.382-1.826 3.537l-.841 1.393-.408.671c-.67 1.114-1.291 2.253-1.913 3.393-1.357.06-2.543-.056-3.876-.327-2.366-.445-3.672.015-5.703 1.235-.603.327-.603.327-1.22.327l-.232 1.176c-.385 1.6-.385 1.6-1.62 4.994H17.587l-.925-2.738-.293-.862-.228-.678-.235-.695c-.17-.58-.17-.58-.17-1.197l-.81-.232c-1.041-.385-1.041-.385-1.947-1.041-1.287-.788-2.256-.777-3.715-.436-.396.105-.791.218-1.183.34-1.002.2-1.816.253-2.835.134-.653-.703-.653-.703-1.195-1.696l-.3-.536a92.01 92.01 0 01-.632-1.158 47.95 47.95 0 00-1.137-1.932l-.785-1.311-.388-.626c-.852-1.467-.852-1.467-.64-2.535.451-.7.9-1.23 1.51-1.795 1.427-1.335 2.14-2.107 2.216-4.159.061-2.151.061-2.151-.622-4.14a14.42 14.42 0 00-1.73-1.4C.93 18.228.493 17.678 0 16.969c.059-1.547.971-2.784 1.755-4.068l.42-.702c.405-.673.812-1.345 1.219-2.017l1.118-1.87.733-1.216.712.124c.665.114 1.33.223 1.996.327.994.166.994.166 1.728.352 1.872.407 3.275-.163 4.876-1.156 1.857-1.597 2.362-4.542 3.03-6.743zm2.16 2.777l-.694 2.507c-.463 1.457-.836 2.48-2.05 3.455-.978.46-.978.46-1.914.793-.935.301-.935.301-1.7 1.004-.738.571-.738.571-1.388.635l-.642-.122-.716-.118-.769-.132c-.572-.062-1.144-.12-1.716-.174l-.792-.078-.577-.057c-.4.643-.798 1.285-1.196 1.929l-.34.548c-.315.509-.624 1.021-.933 1.534l-.407.67c-.28.755-.236 1.066.099 1.798.464.398.934.79 1.408 1.177 1.574 1.68 1.657 3.241 1.677 5.495l.023.926c-.06 2.374-.83 3.436-2.491 5.052-.76.854-.76.854-.917 1.932.42 1.183 1.044 2.194 1.708 3.256l.397.647c.322.525.646 1.048.972 1.57l.812-.135 1.078-.173 1.063-.174c1.954-.25 2.95-.258 4.587.906 1.3.88 2.342 1.43 3.876 1.736l.102.52.148.714.141.694c.3 1.131.74 2.221 1.151 3.317h6.788c.857-2.093.857-2.093 1.543-4.242.857-1.394 1.952-1.787 3.421-2.435.894-.372.894-.372 1.53-.94.81-.545 1.266-.453 2.222-.328l.898.11.876.122 1.446.173 1.022.135 1.177-1.909.333-.54.959-1.562.582-.825c.423-.688.423-.688.182-1.357-.447-.63-.447-.63-1.123-1.14-1.549-1.286-2.16-2.257-2.368-4.244a55.412 55.412 0 01-.05-1.902l-.023-.933c.04-1.61.177-2.592 1.353-3.74l.586-.496c.783-.682 1.248-1.45 1.786-2.332a2101.75 2101.75 0 00-1.523-2.603l-.438-.75-.419-.715-.387-.66c-.285-.508-.285-.508-.627-.826-.464.02-.927.063-1.388.116l-.848.084c-.831.092-.831.092-1.562.275-1.158.244-1.791.295-2.847-.298a45.925 45.925 0 01-1.573-1.2c-.72-.513-1.09-.648-1.944-.75-.945-.387-.945-.387-1.25-1.099a27.515 27.515 0 01-.404-1.75c-.242-1.166-.242-1.166-1.142-3.091h-6.788zm55.536 41.652c4.36 3.431 7.878 8.594 8.64 14.193.131 2.159.073 4.318 0 6.479h-3.086l.033-.86c.125-5.87-1.386-11.188-5.5-15.504-2.224-2.196-4.846-3.65-7.8-4.617l-.853-.28c-4.685-1.352-9.49-.847-13.81 1.417-4.842 2.715-8.156 6.75-9.771 12.065-1.132 5.038-.227 10.423 2.438 14.818.946 1.384 1.926 2.635 3.175 3.76l.868.867c1.14.967 2.415 1.623 3.741 2.295l.625.32c4.09 2.003 9.142 2.18 13.471.798 3.841-1.334 7.297-3.372 9.68-6.749.918.347 1.646.686 2.469 1.234-.997 3.09-4.286 5.318-6.975 6.875-5.687 2.88-11.956 3.64-18.038 1.668-3.025-1.079-5.617-2.698-8-4.84l-.572-.485c-3.795-3.449-6.383-9.13-6.628-14.221-.109-5.89 1.416-11.605 5.503-16.013a70.852 70.852 0 011.697-1.677l.602-.621c7.47-7.226 20.046-6.94 28.091-.922z" fill="#2C3C54"/><path d="M68.803 51.525c1.07.459 1.756 1.067 2.57 1.892l.747.754.771.787.786.794c.64.647 1.277 1.295 1.914 1.944-1.401 1.68-2.885 3.24-4.435 4.782l-.67.674c-1.042 1.04-2.093 2.051-3.209 3.01-1.466 1.265-2.82 2.635-4.182 4.01l-.769.773c-.618.623-1.236 1.245-1.853 1.87-1.158-.482-1.88-1.197-2.753-2.087l-.434-.439c-.456-.461-.91-.925-1.364-1.39-2.633-2.693-2.633-2.693-5.461-5.18-.478-.47-.478-.47-1.096-1.704l6.171-6.17c1.253.626 2.053 1.365 3.008 2.352l.474.482c.384.391.765.784 1.146 1.177 1.964-1.618 3.744-3.4 5.535-5.207l.906-.911c.734-.737 1.466-1.474 2.198-2.213zm-42.2-34.547c1.91 1.045 3.167 2.5 3.814 4.584.402 2.052.39 4.11-.676 5.945-1.447 1.917-3.355 3.398-5.77 3.762-2.114.129-3.723-.46-5.459-1.65-1.552-1.376-2.62-3.03-2.874-5.123-.106-2.464.463-4.053 2.064-5.907 2.655-2.276 5.59-3.067 8.9-1.611zM59.856 5.554l.617 2.776-3.086.617v.618l.656.097c5.813 1.382 10.817 6.921 14.302 11.422.47.822.47.822.434 1.513-.419.832-.984 1.092-1.816 1.469-1.16-.387-1.317-.788-1.986-1.794-3.44-4.853-7.833-7.708-13.132-10.24l1.85 2.778c-1.426 1.504-1.426 1.504-2.467 1.85a980.687 980.687 0 01-2.958-4.03c-.381-.522-.767-1.04-1.153-1.559l-.595-.812-.525-.709-.323-.603.309-.925c.775-.332.775-.332 1.798-.63l1.115-.329 1.175-.333 1.16-.344c3.122-.906 3.122-.906 4.625-.832zM14.193 55.845a22.33 22.33 0 012.294 2.584c3.267 4.29 7.353 7.42 12.515 9.14l-1.542-2.16c.422-.975.613-1.232 1.542-1.85.76.066 1.118.192 1.662.733l.381.541.43.6.439.632.434.61c.288.404.573.809.855 1.216.289.407.585.809.889 1.205.383.503.735 1.03 1.08 1.558-.1.306-.203.611-.308.926-.841.36-.841.36-1.954.698l-.594.183c-.415.127-.83.252-1.247.375-.636.19-1.27.383-1.905.579-3.097.942-3.097.942-4.173.942-.406-1.117-.617-1.881-.617-3.086l2.777-.925-.96-.453c-2.653-1.274-5.07-2.625-7.37-4.484l-.658-.526c-2.344-1.963-4.494-4.292-6.13-6.879v-.925l2.16-1.234z" fill="#2C3C54"/><path d="M68.803 55.536c1.322.582 1.898 1.345 2.777 2.468a1973.764 1973.764 0 01-3.878 3.902c-1.838 1.853-3.684 3.677-5.687 5.354l-.558.47c-.43.36-.86.717-1.293 1.073l-.655-.666c-1.524-1.541-3.042-3.045-4.726-4.414-.533-.525-.802-1.025-1.098-1.708l1.851-1.85c1.204.489 1.955 1.275 2.854 2.197l.834.851.632.654c1.265-.5 2.107-1.412 3.042-2.365l.513-.516c.54-.543 1.076-1.087 1.613-1.632l1.098-1.106c.895-.902 1.789-1.807 2.681-2.712z" fill="#F7F8F8"/><path d="M24.991 19.438c1.02.657 1.92 1.371 2.469 2.468.161 1.621.19 2.982-.502 4.474-1.192 1.255-2.257 1.742-3.972 1.832-1.387-.054-2.194-.423-3.24-1.37-1.02-1.461-1.199-2.896-.925-4.628.64-1.358 1.453-2.215 2.78-2.888 1.182-.379 2.224-.285 3.39.112z" fill="#FBFBFB"/><path d="M12.341 51.525l.926 2.468c-2.083 1.235-2.083 1.235-2.777 1.235-.925-1.736-.925-1.736-.925-2.777 2.082-.926 2.082-.926 2.776-.926zm61.707-26.842c.717.88 1.157 1.71 1.543 2.777l-2.777.925c-.92-1.323-.92-1.323-.945-2.198.505-.89 1.263-1.115 2.18-1.504zm5.862 43.195c2.044.23 2.044.23 3.086.925l-.926 2.468-2.777-.925c.162-.853.342-1.643.617-2.468z" fill="#2C3C54"/></g></svg>