<?xml version="1.0" encoding="utf-8"?>
<!-- Generator: Adobe Illustrator 22.1.0, SVG Export Plug-In . SVG Version: 6.00 Build 0)  -->
<svg version="1.1" id="Слой_1" xmlns="http://www.w3.org/2000/svg" xmlns:xlink="http://www.w3.org/1999/xlink" x="0px" y="0px"
	 viewBox="0 0 25 32" style="enable-background:new 0 0 25 32;" xml:space="preserve">
<style type="text/css">
	.st0{fill:#FFCC00;}
</style>
<path class="st0" d="M19.7,10.2c-0.6,1.6-1.3,3.2-1.8,4.8c-0.6,1.6-1.2,3.2-1.7,4.9c-0.5,1.5-1,3-1.6,4.5c-0.3,0.8-0.6,1.6-1,2.4
	c-0.2,0.5-0.4,1-0.6,1.5c-0.7-1.6-1.5-3.2-2.3-4.8c-0.8-1.5-1.6-3-2.4-4.4c-0.9-1.6-1.8-3.1-2.6-4.7c-0.4-0.7-0.8-1.4-1.1-2.1
	c-0.4-0.7-0.8-1.4-1.1-2.1L3.2,9.7L2.9,9c0.5,0.2,0.9,0.6,1.4,0.9c1.3,1,2.6,2,3.9,3c1.2,1,2.5,1.9,3.7,3c0.2,0.2,0.4,0.4,0.7,0.5
	c0.1,0.1,0.3,0.1,0.4,0.1c0.1,0,0.2,0,0.3,0c0.3-0.1,0.5-0.3,0.7-0.5c0.2-0.2,0.4-0.4,0.6-0.6c0.3-0.3,0.5-0.7,0.8-1
	c0.5-0.7,1-1.3,1.5-2c0.5-0.7,1-1.3,1.5-2c0.5-0.6,1-1.2,1.5-1.8C20.2,7.9,20.6,7.5,21,7C20.6,8.1,20.2,9.1,19.7,10.2 M24.1,0
	c-0.2-0.1-0.4,0-0.5,0.1c-0.2,0.1-0.4,0.4-0.6,0.6l-0.4,0.4c-0.3,0.3-0.6,0.6-0.9,0.9c-0.6,0.6-1.1,1.2-1.7,1.8
	C19,5,17.9,6.3,16.9,7.6c-0.6,0.8-1.2,1.7-1.9,2.6c-0.3,0.4-0.6,0.8-0.9,1.2c-0.2,0.2-0.4,0.5-0.5,0.7c-0.1,0.2-0.3,0.4-0.4,0.6
	c-0.2,0.3-0.4,0.5-0.7,0.7c-0.1,0-0.1,0-0.2,0c0,0-0.1,0-0.1-0.1c-0.3-0.3-0.7-0.6-1-0.9c-0.3-0.3-0.6-0.6-0.9-0.9
	c-0.6-0.5-1.1-1-1.7-1.5C7.3,9,6,7.8,4.6,6.8C4.2,6.4,3.8,6.1,3.4,5.8C2.9,5.5,2.4,5.2,1.9,5C1.6,4.9,1.2,4.9,0.9,4.9
	c-0.4,0-0.6,0.4-0.7,0.7C0.1,6,0,6.3,0,6.7C0,7,0,7.2,0.1,7.5l0,0.1C0.2,8,0.3,8.4,0.4,8.8c0.3,0.8,0.6,1.5,0.9,2.3
	c0.4,0.9,0.8,1.8,1.3,2.7c0.4,0.7,0.8,1.4,1.2,2.1c0.8,1.4,1.7,2.9,2.5,4.3c0.4,0.7,0.8,1.3,1.2,2c0.4,0.7,0.9,1.4,1.3,2.1l0.9,1.6
	c0.2,0.3,0.4,0.7,0.5,1c0.5,1,1,2.1,1.5,3.1l0.2,0.5c0.1,0.3,0.3,0.6,0.5,0.8c0.1,0.1,0.2,0.2,0.3,0.2c0.2,0.4,0.5,0.7,0.9,0.4
	c0.4-0.3,0.6-0.8,0.8-1.2c0.2-0.4,0.3-0.7,0.5-1.1c0.3-0.8,0.7-1.5,0.9-2.3c0.6-1.6,1.1-3.2,1.7-4.8c0.5-1.5,1-3,1.6-4.5
	c0.6-1.6,1.2-3.2,1.8-4.8c0.6-1.6,1.3-3.2,1.9-4.8c0.6-1.5,1.2-3.1,1.8-4.6c0.1-0.3,0.2-0.6,0.3-0.9C25,2.6,25,2.3,25,2
	c0-0.5-0.2-1.1-0.4-1.5C24.5,0.3,24.3,0.2,24.1,0"/>
</svg>
