<svg width="24" height="24" xmlns="http://www.w3.org/2000/svg"><g fill="none" fill-rule="evenodd"><g stroke-linecap="round" stroke-linejoin="round" stroke="#000" stroke-width="2"><path d="M5.636 5.636a9 9 0 0 1 12.728 0c3.514 3.515 3.515 9.214 0 12.728-3.515 3.514-9.214 3.515-12.728 0a9 9 0 0 1 0-12.728"/><path d="M8.4 17.02h4.417a1 1 0 0 0 1-1v-5.29a1 1 0 0 0-1-1H8.4a1 1 0 0 0-1 1v5.291c0 .552.447.999 1 .999Z"/><path d="M10.15 9.73V7.98a1 1 0 0 1 1-1h4.45a1 1 0 0 1 1 1v5.291a1 1 0 0 1-1 1h-1.784"/></g><path d="M0 0h24v24H0z"/></g></svg>