<svg width="212" height="70" xmlns="http://www.w3.org/2000/svg"><g fill="none"><path d="M211.48 59.829a9.348 9.348 0 0 1-9.348 9.34H9.348A9.348 9.348 0 0 1 0 59.82V9.348A9.348 9.348 0 0 1 9.348 0h192.784a9.348 9.348 0 0 1 9.348 9.348v50.48Z" fill="#000"/><path d="M55.148 45.725a34.421 34.421 0 0 1-3.097 5.789c-2.013 3.064-4.845 6.876-8.36 6.909-3.122.029-3.92-2.03-8.158-2.01-4.238.021-5.118 2.068-8.24 2.018-3.515-.033-6.202-3.477-8.212-6.537-5.623-8.563-6.202-18.606-2.745-23.952 2.48-3.796 6.355-6.016 10.014-6.016 3.721 0 6.062 2.039 9.138 2.039 2.985 0 4.808-2.043 9.096-2.043 3.25 0 6.698 1.77 9.154 4.833-8.03 4.404-6.723 15.898 1.41 18.97Z" fill="#FFF"/><path d="M41.334 18.494c1.563-2.01 2.75-4.845 2.32-7.74-2.555.174-5.54 1.799-7.285 3.92-1.584 1.923-2.895 4.775-2.382 7.55 2.787.083 5.673-1.58 7.347-3.73Zm30.948 9.328-8.058 23.713h3.692l2.402-7.282h7.802l2.481 7.282h3.792l-8.1-23.713h-4.01Zm1.91 3.9c.273 1.058.567 2.157.943 3.344l2.17 6.289H71.13l2.141-6.33a59.79 59.79 0 0 0 .922-3.32v.016Zm20.62 2.232c-2.448 0-4.403.943-5.706 2.733l-.144-2.357h-3.28v.302c.1 1.468.141 3.089.141 5.408v18.28h3.585v-8.53a6.31 6.31 0 0 0 4.908 2.108 7.393 7.393 0 0 0 5.433-2.31c1.575-1.655 2.402-4.053 2.402-6.902 0-2.522-.72-4.7-2.067-6.305a6.823 6.823 0 0 0-5.272-2.427Zm-.889 2.964c3.2 0 4.63 2.965 4.63 5.9 0 3.788-1.827 6.14-4.766 6.14a4.35 4.35 0 0 1-4.226-3.332 4.581 4.581 0 0 1-.128-1.162V41.57c.013-.3.052-.597.116-.889 0-.095.037-.194.05-.29a4.548 4.548 0 0 1 4.324-3.473Zm19.363-2.964c-2.444 0-4.4.943-5.702 2.733l-.145-2.357h-3.283l.021.302c.095 1.472.137 3.089.137 5.408v18.28h3.588v-8.53a6.301 6.301 0 0 0 4.904 2.108 7.418 7.418 0 0 0 5.441-2.31c1.567-1.655 2.398-4.053 2.398-6.902 0-2.522-.723-4.7-2.088-6.305a6.814 6.814 0 0 0-5.271-2.427Zm-.893 2.964c3.196 0 4.63 2.965 4.63 5.9 0 3.788-1.827 6.14-4.767 6.14a4.35 4.35 0 0 1-4.225-3.332 4.581 4.581 0 0 1-.129-1.162V41.57c.013-.3.052-.597.116-.889l.05-.29a4.548 4.548 0 0 1 4.325-3.473Zm24.043.935c-3.35-1.298-4.424-2.316-4.424-4.2 0-1.589 1.26-3.189 4.08-3.189a8.15 8.15 0 0 1 4.21 1.08l.306.185 1.013-2.993-.203-.116c-.6-.351-2.311-1.174-5.222-1.174-4.577 0-7.773 2.704-7.773 6.57 0 3.117 2.001 5.296 6.297 6.86 3.047 1.136 4.18 2.302 4.18 4.304 0 2.261-1.749 3.663-4.548 3.663a9.84 9.84 0 0 1-5.173-1.464l-.31-.202-.963 3.063.174.12c1.356.902 3.907 1.559 6.065 1.559 6.165 0 8.352-3.763 8.352-6.983-.012-3.337-1.765-5.388-6.061-7.083Zm12.507-7.608-3.518 1.104v2.981h-2.576v2.87h2.576v8.782c0 2.125.413 3.613 1.24 4.548a4.594 4.594 0 0 0 3.469 1.364 8.422 8.422 0 0 0 2.774-.413l.203-.07-.174-2.895-.343.108a5.512 5.512 0 0 1-1.654.19c-1.39 0-1.984-.877-1.984-2.944v-8.683h4.329v-2.87h-4.342v-4.072Zm13.223 3.709c-5.02 0-8.526 3.746-8.526 9.096 0 5.202 3.39 8.836 8.249 8.836h.033c4.11 0 8.53-2.861 8.53-9.146 0-2.555-.794-4.747-2.287-6.347a7.984 7.984 0 0 0-6-2.44Zm-.104 2.832c3.225 0 4.697 3.147 4.697 6.07 0 3.597-2.005 6.202-4.767 6.202h-.033c-2.72 0-4.697-2.568-4.697-6.107 0-3.064 1.484-6.165 4.8-6.165Zm19.38-2.666-.22-.054a3.426 3.426 0 0 0-.888-.112 5.115 5.115 0 0 0-4.499 2.894l-.107-2.51h-3.221l.02.302c.1 1.418.137 3.014.137 5.169l-.033 11.717h3.572v-9.15a8.9 8.9 0 0 1 .1-1.393c.413-2.196 1.885-3.614 3.774-3.614.322.003.644.022.964.058l.384.041.017-3.349Zm8.066-.203c-4.78 0-8.116 3.816-8.116 9.282 0 5.263 3.308 8.662 8.46 8.662a13.79 13.79 0 0 0 5.68-1.087l.216-.1-.69-2.67-.299.12c-1.429.568-2.96.836-4.498.785-1.559 0-5.152-.513-5.375-5.201l11.577.037.045-.232c.084-.494.12-.995.108-1.497.008-3.725-1.857-8.1-7.108-8.1Zm-.24 2.733a3.534 3.534 0 0 1 2.634 1.004c1.03 1.05 1.212 2.597 1.24 3.337h-8.186c.343-2.071 1.63-4.341 4.313-4.341ZM64.224 11.606a25.569 25.569 0 0 1 3.444-.236c2.311 0 3.957.468 5.048 1.385 1.092.918 1.778 2.229 1.778 4.044a5.693 5.693 0 0 1-1.794 4.366c-1.183 1.046-3.11 1.613-5.532 1.613a25.39 25.39 0 0 1-2.944-.132v-11.04Zm1.629 9.923c.54.06 1.085.082 1.629.066 3.44 0 5.309-1.732 5.309-4.763.02-2.679-1.654-4.329-5.049-4.329a10.154 10.154 0 0 0-1.89.15v8.876Zm14.426 1.331c-2.407 0-4.292-1.595-4.292-4.134 0-2.7 1.976-4.284 4.44-4.284 2.572 0 4.309 1.683 4.309 4.135 0 2.998-2.311 4.296-4.44 4.296l-.017-.012Zm.053-1.1c1.555 0 2.721-1.314 2.721-3.146 0-1.364-.757-3.08-2.683-3.08-1.927 0-2.737 1.6-2.737 3.13 0 1.765 1.108 3.097 2.683 3.097h.016Zm6.976-7.14 1.203 4.081c.24.897.484 1.745.649 2.58h.054c.202-.827.5-1.683.798-2.563l1.46-4.098h1.372l1.385 4.027c.335.951.591 1.815.798 2.634h.054c.175-.885.404-1.76.686-2.617l1.274-4.044h1.612l-2.893 8.06h-1.48l-1.373-3.846a26.73 26.73 0 0 1-.794-2.666h-.037c-.22.91-.496 1.806-.827 2.683l-1.443 3.829h-1.48l-2.671-8.059h1.654Zm12.966 2.18c0-.848-.02-1.514-.074-2.18h1.443l.09 1.315h.046a3.399 3.399 0 0 1 2.96-1.5c1.24 0 3.168.665 3.168 3.43v4.814h-1.63V18.03c0-1.298-.537-2.398-2.067-2.398a2.32 2.32 0 0 0-2.183 1.501c-.077.22-.115.45-.112.682v4.863h-1.629l-.012-5.88Zm10.27-5.93h1.625v11.825h-1.625zm7.976 11.99c-2.406 0-4.296-1.595-4.296-4.134 0-2.7 1.98-4.284 4.441-4.284 2.572 0 4.312 1.683 4.312 4.135 0 2.998-2.31 4.296-4.44 4.296l-.017-.012Zm.054-1.1c1.555 0 2.72-1.314 2.72-3.146 0-1.364-.76-3.08-2.683-3.08-1.922 0-2.741 1.6-2.741 3.13 0 1.765 1.112 3.097 2.683 3.097h.021Zm12.768-1.012c-.008.646.035 1.291.128 1.93h-1.46l-.148-1.016h-.054a3.448 3.448 0 0 1-2.741 1.199c-1.811 0-2.738-1.15-2.738-2.316 0-1.947 1.923-3.014 5.376-2.997v-.166c0-.666-.203-1.881-2.035-1.865a4.651 4.651 0 0 0-2.348.6l-.372-.98a6.285 6.285 0 0 1 2.96-.703c2.758 0 3.424 1.683 3.424 3.308l.008 3.006Zm-1.592-2.183c-1.774-.033-3.791.252-3.791 1.815 0 .967.702 1.401 1.517 1.401a2.258 2.258 0 0 0 2.2-1.352c.053-.15.078-.308.074-.467v-1.397Zm11.937-7.695v9.741c0 .72.02 1.534.074 2.068h-1.463l-.075-1.398h-.037c-.496.897-1.571 1.58-3.03 1.58-2.167 0-3.85-1.654-3.85-4.098-.02-2.696 1.848-4.329 4.015-4.329 1.385 0 2.31.583 2.7 1.216h.037v-4.78h1.629Zm-1.63 7.029a2.266 2.266 0 0 0-2.422-2.315c-1.683 0-2.684 1.33-2.684 3.096 0 1.654.906 2.998 2.647 2.998a2.419 2.419 0 0 0 2.385-1.749c.056-.206.08-.42.075-.633V17.9Zm11.9 4.961c-2.406 0-4.296-1.595-4.296-4.134 0-2.7 1.985-4.284 4.441-4.284 2.576 0 4.312 1.683 4.312 4.135 0 2.998-2.31 4.296-4.44 4.296l-.017-.012Zm.054-1.1c1.555 0 2.72-1.314 2.72-3.146 0-1.364-.756-3.08-2.683-3.08-1.926 0-2.737 1.6-2.737 3.13 0 1.765 1.108 3.097 2.684 3.097h.016Zm6.459-4.96c0-.848 0-1.514-.075-2.18h1.443l.095 1.315h.037a3.395 3.395 0 0 1 2.96-1.5c1.241 0 3.164.665 3.164 3.43v4.814h-1.63V18.03c0-1.298-.533-2.398-2.067-2.398a2.328 2.328 0 0 0-2.183 1.501 1.96 1.96 0 0 0-.111.682v4.863h-1.63l-.004-5.88Zm16.154-4.11v1.93h2.332v1.112h-2.332v4.35c0 .997.318 1.563 1.24 1.563.317.011.635-.022.943-.1l.074 1.117a4.92 4.92 0 0 1-1.443.199 2.452 2.452 0 0 1-1.757-.616c-.447-.447-.629-1.166-.629-2.113v-4.4h-1.397V14.62h1.39v-1.484l1.579-.447Zm4.163-1.82h1.63v5.032h.036a2.77 2.77 0 0 1 1.166-1.034 3.469 3.469 0 0 1 1.654-.413c1.203 0 3.126.665 3.126 3.448V22.7h-1.625v-4.63c0-1.315-.537-2.399-2.067-2.399a2.344 2.344 0 0 0-2.183 1.468 1.62 1.62 0 0 0-.112.699V22.7h-1.629l.004-11.829Zm11.197 8.03c.037 1.98 1.426 2.795 3.055 2.795a6.818 6.818 0 0 0 2.481-.414l.298 1.03a7.96 7.96 0 0 1-2.998.517c-2.741 0-4.403-1.654-4.403-4.06 0-2.407 1.608-4.367 4.217-4.367 2.923 0 3.684 2.315 3.684 3.8a3.35 3.35 0 0 1-.058.699h-6.276Zm4.755-1.05c0-.914-.414-2.382-2.237-2.382-1.654 0-2.37 1.364-2.48 2.381h4.717Z" fill="#FFF"/></g></svg>