<?xml version="1.0" encoding="utf-8"?>
<!-- Generator: Adobe Illustrator 22.1.0, SVG Export Plug-In . SVG Version: 6.00 Build 0)  -->
<svg version="1.1" id="Слой_1" xmlns="http://www.w3.org/2000/svg" xmlns:xlink="http://www.w3.org/1999/xlink" x="0px" y="0px"
	 width="1979px" height="1495px" viewBox="0 0 1979 1495" style="enable-background:new 0 0 1979 1495;" xml:space="preserve">
<style type="text/css">
	.st0{opacity:0.321;}
	.st1{fill:none;stroke:#D6F6D4;}
	.st2{fill:none;stroke:#E0F3E8;}
	.st3{fill:none;stroke:url(#SVGID_1_);}
</style>
<g class="st0">
	<path class="st1" d="M329,1c-85.4,64.3-114.1,152-86.1,263.2c42,166.8-122.1,211.3-186.2,172.8C14,411.4-45.2,375-121,327.7"/>
	<path class="st2" d="M77,354c47.3,15,77,2,89-39"/>
	<g transform="translate(237 1)">
		
			<linearGradient id="SVGID_1_" gradientUnits="userSpaceOnUse" x1="441.2287" y1="996.8723" x2="440.7946" y2="997.8723" gradientTransform="matrix(527 0 0 -527 -232255 526721)">
			<stop  offset="0" style="stop-color:#D6F6D4"/>
			<stop  offset="9.701000e-02" style="stop-color:#D7F6D5"/>
			<stop  offset="1" style="stop-color:#FFFFFF"/>
		</linearGradient>
		<circle class="st3" cx="141.5" cy="1067.5" r="263.5"/>
		<path class="st1" d="M273.5,1166c-32.8,48.1-74.3,66.6-124.5,55.7 M1582.1,63.6c-109.8,137.4-227.4,149-352.6,34.9
			C1041.6-72.6,777.8-4,707.8,175.1c-70,179.1,22,617.7,376.2,510.7c354.1-107,10,399.6,351.6,359.1
			c227.8-27,328.1,122.4,301.1,448.1"/>
		<path class="st1" d="M1318,27.9c44,65.5,99.2,72.7,165.7,21.7 M1405,781c3.3,82.9,47.3,118.5,132,106.8"/>
	</g>
</g>
</svg>
