<svg width="24" height="24" xmlns="http://www.w3.org/2000/svg"><g fill="none" fill-rule="evenodd"><path d="M2.444 7.415v-2.83c0-.361.195-.694.51-.872L5.51 2.276c.304-.171.676-.171.981 0l2.556 1.438a1 1 0 0 1 .51.872v2.83c0 .361-.195.694-.51.872L6.49 9.724a1.002 1.002 0 0 1-.981 0L2.954 8.287a1 1 0 0 1-.51-.872ZM6 6v3.85M6 6l3.42-1.92M6 6 2.58 4.08M14.44 6H9.56m4.884 1.415v-2.83c0-.361.195-.694.51-.872l2.556-1.438c.304-.171.676-.171.981 0l2.556 1.438a1 1 0 0 1 .51.872v2.83c0 .361-.195.694-.51.872L18.49 9.724a1.002 1.002 0 0 1-.981 0l-2.556-1.438a1 1 0 0 1-.509-.871h0ZM18 6v3.85M18 6l3.42-1.92M18 6l-3.42-1.92M2.444 19.415v-2.83c0-.361.195-.694.51-.872l2.556-1.438c.304-.171.676-.171.981 0l2.556 1.438a1 1 0 0 1 .51.872v2.83c0 .361-.195.694-.51.872L6.49 21.724a1.002 1.002 0 0 1-.981 0l-2.556-1.438a1 1 0 0 1-.509-.871h0ZM6 18v3.85M6 18l3.42-1.92M6 18l-3.42-1.92M14.44 18H9.56M18 14.15v-4.3m-12 4.3v-4.3m8.444 9.565v-2.83c0-.361.195-.694.51-.872l2.556-1.438c.304-.171.676-.171.981 0l2.556 1.438a1 1 0 0 1 .51.872v2.83c0 .361-.195.694-.51.872l-2.556 1.438a1.002 1.002 0 0 1-.981 0l-2.556-1.438a1 1 0 0 1-.51-.872ZM18 18v3.85M18 18l3.42-1.92M18 18l-3.42-1.92" stroke="#000" stroke-width="1.5" stroke-linecap="round" stroke-linejoin="round"/><path d="M0 0h24v24H0z"/></g></svg>