<svg width="24" height="24" xmlns="http://www.w3.org/2000/svg"><g fill="none" fill-rule="evenodd"><g stroke-linecap="round" stroke-linejoin="round" transform="translate(3 3)" stroke="#000" stroke-width="2"><rect width="18" height="18" rx="1.657"/><path d="M18 5H0m14.3 3.5h0a.05.05 0 1 1-.05-.05"/><path d="M14.25 8.45h0a.05.05 0 0 1 .05.05s0 0 0 0m-3.501 0h0a.05.05 0 1 1-.05-.05m0 0h0a.05.05 0 0 1 .05.05s0 0 0 0m-3.5 0h0a.05.05 0 1 1-.05-.05"/><path d="M7.249 8.45h0a.05.05 0 0 1 .05.05s0 0 0 0m-3.5 3h0a.05.05 0 1 1-.05-.05m0 0h0a.05.05 0 0 1 .05.05s0 0 0 0m3.5 0h0a.05.05 0 1 1-.05-.05"/><path d="M7.249 11.45h0a.05.05 0 0 1 .05.05s0 0 0 0m3.5 0h0a.05.05 0 1 1-.05-.05m0 0h0a.05.05 0 0 1 .05.05s0 0 0 0m3.501 0h0a.05.05 0 1 1-.05-.05m0 0h0a.05.05 0 0 1 .05.05s0 0 0 0m0 3h0a.05.05 0 1 1-.05-.05m0 0h0a.05.05 0 0 1 .05.05s0 0 0 0m-3.501 0h0a.05.05 0 1 1-.05-.05m0 0h0a.05.05 0 0 1 .05.05s0 0 0 0m-3.5 0h0a.05.05 0 1 1-.05-.05"/><path d="M7.249 14.45h0a.05.05 0 0 1 .05.05s0 0 0 0m-3.5 0h0a.05.05 0 1 1-.05-.05m0 0h0a.05.05 0 0 1 .05.05s0 0 0 0"/></g><path d="M0 0h24v24H0z"/></g></svg>