<svg width="607" height="658" xmlns="http://www.w3.org/2000/svg"><defs><filter x="-63.8%" y="-63.8%" width="227.6%" height="227.6%" filterUnits="objectBoundingBox" id="a"><feGaussianBlur stdDeviation="50" in="SourceGraphic"/></filter><filter x="-61.1%" y="-61.1%" width="222.1%" height="222.1%" filterUnits="objectBoundingBox" id="b"><feGaussianBlur stdDeviation="50" in="SourceGraphic"/></filter></defs><g transform="translate(0 52)" fill="none" fill-rule="evenodd"><circle fill="#FFF" opacity=".623" filter="url(#a)" cx="285.209" cy="338.401" r="117.599"/><circle fill="#FC0" filter="url(#b)" cx="333.428" cy="220.802" r="122.802"/><g fill-rule="nonzero"><path d="m307.595 271.142 71.547-122.977c27.17 15.776 45.93 36.725 58.61 65.562l-130.157 57.415Z" fill="#7DE314"/><path d="m305.526 268.555 141.8-12.284c6.857 78.234-51.105 147.288-129.38 154.012-78.275 6.854-147.364-51.079-154.092-129.313-5.563-62.589 28.205-118.84 86.038-143.28l55.634 130.865Z" fill="#7DE314"/><path d="M210.368 275.395c-.388 0-.905 0-1.293-.258a2.818 2.818 0 0 1-1.035-.647c-.26-.259-.518-.517-.647-.905-.13-.388-.259-.776-.259-1.164 0-.388.13-.776.259-1.164.13-.388.388-.646.647-.905a2.82 2.82 0 0 1 1.035-.647c.388-.129.776-.258 1.293-.258.389 0 .906.13 1.294.258.388.13.776.388 1.035.647.259.259.518.517.647.905.13.388.259.776.259 1.164 0 .388-.13.776-.259 1.164-.13.388-.388.646-.647.905a2.818 2.818 0 0 1-1.035.647c-.517.129-.905.129-1.294.258Zm-2.07 7.113 5.305-6.337 4.917-6.595 1.164 1.035-5.176 6.207-5.045 6.724-1.165-1.034Zm2.07-8.406c.13 0 .389 0 .518-.129l.388-.388c.13-.13.259-.259.259-.517.13-.259.13-.388.13-.647 0-.388-.13-.776-.389-1.164-.259-.258-.647-.517-.906-.517-.129 0-.388 0-.517.13l-.388.387c-.13.13-.259.26-.259.518-.13.129-.13.388-.13.646 0 .388.13.776.389 1.164.13.259.517.517.905.517Zm7.505 9.31c-.388 0-.906-.128-1.294-.258a2.817 2.817 0 0 1-1.036-.646c-.258-.26-.517-.518-.646-.906-.13-.388-.26-.775-.26-1.163 0-.389.13-.776.26-1.164.129-.388.388-.647.646-.906a2.823 2.823 0 0 1 1.036-.646c.388-.13.776-.259 1.294-.259.388 0 .905 0 1.293.259.389.13.777.388 1.036.646.258.26.517.518.646.906.13.388.26.775.26 1.164 0 .388-.13.775-.26 1.163-.129.388-.388.647-.646.906a2.818 2.818 0 0 1-1.036.646c-.517.13-.905.259-1.293.259Zm0-1.292c.13 0 .388 0 .517-.13l.388-.388c.13-.129.26-.258.26-.517.128-.13.128-.388.128-.646 0-.259 0-.389-.129-.647-.13-.259-.13-.388-.259-.517a299.6 299.6 0 0 1-.388-.388c-.13-.13-.388-.13-.517-.13-.13 0-.388 0-.518.13l-.388.388c-.13.129-.259.258-.259.517-.129.258-.129.388-.129.647 0 .388.13.775.388 1.163.13.388.518.518.906.518Z" fill="#FFF"/><path d="m306.043 268.037-9.186-109.658c-11.385.906-23.547 3.621-34.415 8.276l43.601 101.382Z" fill="#5059AB"/><path d="m295.175 139.37 13.456 128.15 64.431-111.468c-23.936-13.966-51.364-19.397-77.887-16.681Z" fill="#01CC9B"/><path d="M447.456 259.112c-6.468-76.812-52.398-113.02-64.042-120.779l-76.982 131.255 141.024-10.476Z" fill="#14A0C0"/><path fill="#CCC" d="m307.207 271.917-81.25-185.435 1.164-.518 80.863 184.531 173.888-19.138.128 1.293z"/><path d="M305.526 428C217.547 428 146 356.49 146 268.556c0-63.622 37.779-121.167 96.259-146.383l.517 1.164c-57.962 25.087-95.482 82.114-95.482 145.22 0 87.157 70.9 158.15 158.232 158.15 87.202 0 158.231-70.864 158.231-158.15 0-4.915-.258-9.829-.646-14.743l1.293-.129c.518 4.914.647 9.957.647 14.871C464.921 356.49 393.375 428 305.526 428Z" fill="#CCC"/><path fill="#CCC" d="m290.168 73-1.289.117 18.03 198.07 1.288-.118z"/><path d="M387.166 133.164c-24.454-14.612-52.529-22.242-81.122-22.242-4.528 0-9.056.13-13.585.517l-.13-1.293c4.53-.388 9.057-.517 13.715-.517 28.852 0 57.186 7.759 81.768 22.5l-.646 1.035Zm-150.471-22.76-.518-1.164c17.467-8.017 35.968-12.931 55.116-14.871l.13 1.293c-19.02 1.94-37.391 6.854-54.728 14.742Z" fill="#CCC"/><path d="M337.61 167.432c-.517 0-.905-.13-1.293-.259a2.812 2.812 0 0 1-1.035-.646c-.259-.259-.518-.518-.647-.905-.13-.388-.259-.777-.259-1.164 0-.388.13-.776.259-1.164.13-.388.388-.647.647-.905a2.818 2.818 0 0 1 1.035-.647c.388-.13.776-.258 1.294-.258.388 0 .905.129 1.293.258.388.13.777.388 1.035.647.259.258.518.517.647.905.13.388.259.776.259 1.164 0 .387-.13.776-.259 1.164-.13.387-.388.646-.647.905a2.812 2.812 0 0 1-1.035.646c-.388.13-.776.259-1.293.259Zm-1.94 7.37 5.434-6.594 5.046-6.854 1.164 1.035-5.304 6.465-5.176 6.983-1.164-1.034Zm1.94-8.663c.26 0 .389 0 .518-.13l.388-.387c.13-.13.259-.388.259-.518.13-.259.13-.388.13-.646 0-.518-.13-.906-.389-1.164-.259-.259-.647-.517-1.035-.517-.259 0-.388 0-.517.129-.13.13-.26.258-.388.388-.13.13-.26.388-.26.517-.129.259-.129.388-.129.647 0 .517.13.905.389 1.164.388.387.646.517 1.035.517Zm7.764 9.698c-.518 0-.906-.13-1.294-.258a2.818 2.818 0 0 1-1.035-.647c-.259-.259-.518-.517-.647-.905-.13-.388-.259-.776-.259-1.164 0-.388.13-.776.259-1.164.13-.388.388-.646.647-.905a2.812 2.812 0 0 1 1.035-.646c.388-.13.776-.26 1.294-.26.517 0 .905.13 1.293.26.388.129.777.387 1.035.646.26.259.518.517.647.905.13.388.259.776.259 1.164 0 .388-.13.776-.259 1.164-.13.388-.388.646-.647.905a2.818 2.818 0 0 1-1.035.647c-.388.129-.776.129-1.293.258Zm0-1.422c.258 0 .388 0 .517-.13l.388-.387c.13-.13.259-.389.259-.518.13-.258.13-.388.13-.646 0-.259 0-.518-.13-.647-.13-.259-.13-.388-.259-.517l-.388-.388c-.13-.13-.388-.13-.517-.13-.26 0-.389 0-.518.13l-.388.388c-.13.13-.259.388-.259.517-.13.259-.13.388-.13.647 0 .517.13.905.389 1.164.259.388.517.517.906.517Z" fill="#FFF"/><path d="m305.138 267.009 142.318-10.35c3.176 47.084-14.324 91.432-50.458 121.554l-91.86-111.204Z" fill="#FFD600"/><path d="m306.471 268.295 90.714 109.583c-36.394 30.064-80.498 39.925-126.061 28.188l35.347-137.771Z" fill="#5059AB"/><path d="M285.472 172.476c-.388 0-.776 0-1.035-.129-.388-.13-.647-.259-.905-.517-.26-.26-.389-.518-.518-.776-.13-.259-.259-.647-.259-.905 0-.388 0-.647.26-.906.128-.258.387-.517.517-.775.258-.26.517-.389.776-.518.388-.129.647-.259 1.035-.259.388 0 .777 0 1.035.13.388.13.647.258.906.517s.388.518.517.776c.13.258.26.647.26.905 0 .388 0 .647-.26 1.035-.129.258-.388.517-.517.776-.259.258-.518.387-.906.517-.129.13-.517.13-.906.13Zm-1.682 6.078 4.529-5.431 4.14-5.69 1.035.905-4.399 5.302-4.27 5.69-1.035-.776Zm1.682-7.112c.13 0 .259 0 .388-.13.13-.129.26-.129.389-.258.13-.13.13-.259.259-.388 0-.13.13-.388.13-.517 0-.388-.13-.647-.389-.906-.259-.258-.518-.388-.777-.388-.13 0-.259 0-.388.13-.13.129-.259.129-.388.258-.13.13-.13.26-.259.388 0 .13-.13.388-.13.518 0 .387.13.646.389 1.034.259.13.517.259.776.259Zm6.47 7.888c-.389 0-.777 0-1.035-.13-.389-.129-.647-.258-.906-.517-.259-.258-.388-.517-.518-.776-.129-.258-.258-.646-.258-.905 0-.388 0-.647.258-1.034.13-.26.389-.518.518-.776.259-.259.517-.388.906-.517.388-.13.646-.26 1.035-.26.388 0 .776 0 1.035.13.388.13.646.259.905.517.259.26.388.518.518.776.13.259.258.647.258.905 0 .389 0 .647-.129 1.035-.13.258-.259.517-.517.776-.26.259-.518.388-.906.517-.518.259-.776.259-1.164.259Zm0-1.035c.129 0 .258 0 .388-.129.129-.13.258-.13.388-.259s.13-.258.259-.387c0-.13.129-.388.129-.518 0-.259 0-.388-.13-.517-.129-.13-.129-.259-.258-.388-.13-.13-.259-.259-.388-.259-.13-.13-.26-.13-.388-.13-.13 0-.26 0-.389.13s-.258.13-.388.259c-.13.13-.13.258-.258.388 0 .13-.13.388-.13.517 0 .388.13.647.388.905.13.26.388.388.777.388Zm34.792 159.935c38.919-12.483 60.343-54.137 47.852-93.035-12.49-38.899-54.165-60.312-93.084-47.828-38.918 12.484-60.342 54.138-47.851 93.037 12.49 38.898 54.165 60.31 93.083 47.827Z" fill="#FFF"/><path d="M291.424 100.19c-1.294 0-2.717-.388-3.752-1.294-2.588-2.068-3.105-5.948-.906-8.534 2.07-2.586 5.951-3.104 8.539-.905 1.294 1.034 2.07 2.457 2.2 4.138.129 1.552-.26 3.233-1.295 4.526-1.293 1.293-3.105 2.069-4.786 2.069Zm-3.752-9.052c-1.682 2.07-1.294 5.043.776 6.724 2.07 1.681 5.046 1.293 6.727-.776.777-1.034 1.165-2.198 1.035-3.491a4.584 4.584 0 0 0-1.81-3.233c-2.07-1.681-5.046-1.293-6.728.776Z" fill="#CCC"/><path d="M294.399 94.112c0 1.68-1.423 3.103-3.105 3.103s-3.105-1.422-3.105-3.103c0-1.682 1.423-3.104 3.105-3.104s3.105 1.422 3.105 3.104Zm93.024 44.871c-1.294 0-2.717-.388-3.752-1.293-2.588-2.07-3.105-5.949-.906-8.535 2.07-2.586 5.952-3.104 8.54-.905 1.293 1.034 2.07 2.457 2.199 4.138.13 1.552-.259 3.233-1.294 4.526-1.293 1.293-2.976 2.069-4.787 2.069Zm-3.752-9.052c-1.682 2.069-1.294 5.043.776 6.724 2.07 1.681 5.046 1.293 6.728-.776.777-1.034 1.165-2.198 1.035-3.491a4.586 4.586 0 0 0-1.811-3.233c-2.07-1.68-5.046-1.293-6.728.776Z" fill="#CCC"/><path d="M390.528 132.905c0 1.68-1.423 3.103-3.105 3.103s-3.105-1.422-3.105-3.103c0-1.682 1.423-3.104 3.105-3.104s3.105 1.422 3.105 3.104Zm73.747 127.763c-1.293 0-2.717-.388-3.752-1.293-2.587-2.07-3.105-5.949-.905-8.535 2.07-2.586 5.951-3.103 8.54-.905 1.293 1.034 2.07 2.457 2.199 4.138.129 1.552-.26 3.233-1.294 4.526-1.165 1.293-2.976 2.069-4.788 2.069Zm-3.752-9.181c-1.681 2.069-1.293 5.043.777 6.724s5.045 1.293 6.728-.776c.776-1.034 1.164-2.198 1.035-3.492a4.584 4.584 0 0 0-1.811-3.232c-2.071-1.552-5.047-1.164-6.729.776Z" fill="#CCC"/><path d="M467.38 254.59c0 1.68-1.423 3.103-3.105 3.103-1.681 0-3.105-1.422-3.105-3.104 0-1.68 1.424-3.103 3.105-3.103 1.682 0 3.105 1.422 3.105 3.103ZM292.588 116.483c-1.294 0-2.717-.388-3.752-1.293-2.588-2.069-3.105-5.948-.906-8.535 2.07-2.586 5.952-3.103 8.54-.905 1.293 1.035 2.07 2.457 2.199 4.138.129 1.552-.26 3.233-1.294 4.526-1.294 1.293-3.105 2.069-4.787 2.069Zm-3.752-9.052c-1.682 2.069-1.294 5.044.776 6.724 2.07 1.681 5.046 1.294 6.728-.775.776-1.035 1.164-2.199 1.035-3.492a4.586 4.586 0 0 0-1.811-3.233c-2.07-1.551-5.046-1.293-6.728.776Z" fill="#CCC"/><path d="M295.564 110.405c0 1.681-1.424 3.103-3.106 3.103s-3.105-1.422-3.105-3.103c0-1.681 1.423-3.104 3.105-3.104s3.106 1.423 3.106 3.104Zm-59.386 5.302c-1.293 0-2.717-.388-3.752-1.293-2.588-2.07-3.105-5.95-.905-8.535 2.07-2.587 5.951-3.104 8.539-.906 1.293 1.035 2.07 2.457 2.199 4.138.13 1.552-.259 3.233-1.294 4.526-1.294 1.294-2.975 2.07-4.787 2.07Zm-3.752-9.052c-1.681 2.069-1.293 5.043.777 6.724s5.045 1.293 6.727-.776c.777-1.034 1.165-2.198 1.035-3.492a4.584 4.584 0 0 0-1.811-3.232c-2.07-1.681-5.046-1.293-6.728.776Z" fill="#CCC"/><path d="M239.283 109.628c0 1.681-1.423 3.104-3.105 3.104s-3.105-1.423-3.105-3.104c0-1.68 1.423-3.103 3.105-3.103s3.105 1.422 3.105 3.103Zm3.752 19.915c-1.293 0-2.717-.388-3.752-1.293-2.588-2.07-3.105-5.948-.906-8.535 2.07-2.586 5.952-3.103 8.54-.905 1.293 1.034 2.07 2.457 2.199 4.138.13 1.551-.259 3.233-1.294 4.526-1.164 1.293-2.975 2.069-4.787 2.069Zm-3.752-9.181c-1.682 2.069-1.294 5.043.776 6.724 2.07 1.681 5.046 1.293 6.728-.776.776-1.034 1.165-2.198 1.035-3.491a4.584 4.584 0 0 0-1.811-3.233c-1.94-1.552-5.046-1.164-6.728.776Z" fill="#CCC"/><path d="M246.14 123.464c0 1.682-1.423 3.104-3.105 3.104s-3.105-1.422-3.105-3.104c0-1.68 1.423-3.103 3.105-3.103s3.105 1.422 3.105 3.103Z" fill="#CCC"/><path d="M322.11 174.79c.092-1.758.274-3.333.547-4.726a18.828 18.828 0 0 1 1.274-3.953c.576-1.257 1.334-2.537 2.274-3.84H319.2v-1.953h9.554v1.408c-.864 1.06-1.562 2.083-2.093 3.067-.53.97-.947 1.954-1.25 2.954-.289 1-.509 2.067-.66 3.203a50.456 50.456 0 0 0-.296 3.84h-2.343Zm-47.784 5.951c-.773 0-1.463-.09-2.07-.272a6.453 6.453 0 0 1-1.592-.75 7.18 7.18 0 0 1-1.183-1.022l1.114-1.477c.44.44.94.825 1.502 1.159.576.318 1.258.477 2.047.477.834 0 1.509-.212 2.024-.636.531-.424.797-1.008.797-1.75 0-.53-.137-.992-.41-1.385-.258-.394-.713-.697-1.365-.91-.637-.226-1.516-.34-2.638-.34v-1.704c.985 0 1.759-.106 2.32-.318.576-.227.986-.522 1.228-.886.243-.378.364-.803.364-1.272 0-.651-.205-1.159-.614-1.522-.41-.379-.97-.568-1.683-.568a3.48 3.48 0 0 0-1.615.386 5.74 5.74 0 0 0-1.365 1.022l-1.206-1.43a8.412 8.412 0 0 1 1.934-1.318c.697-.334 1.478-.5 2.343-.5.88 0 1.66.151 2.343.454.682.288 1.213.712 1.592 1.272.394.546.591 1.22.591 2.022 0 .833-.235 1.53-.705 2.09-.455.56-1.076.992-1.865 1.295v.091a4.239 4.239 0 0 1 1.547.704c.47.318.841.727 1.114 1.227.273.485.41 1.053.41 1.704 0 .878-.228 1.628-.683 2.249-.44.606-1.038 1.075-1.797 1.409-.743.333-1.57.5-2.48.5Zm-90.118 103.177c-.774 0-1.464-.09-2.07-.272a6.453 6.453 0 0 1-1.593-.75 7.18 7.18 0 0 1-1.182-1.022l1.114-1.477c.44.44.94.825 1.502 1.159.576.318 1.258.477 2.047.477.834 0 1.509-.212 2.024-.636.531-.425.797-1.008.797-1.75 0-.53-.137-.992-.41-1.386-.258-.393-.713-.696-1.365-.908-.637-.227-1.516-.341-2.639-.341v-1.704c.986 0 1.76-.106 2.32-.318.577-.227.986-.522 1.23-.886.242-.379.363-.803.363-1.272 0-.651-.205-1.159-.614-1.522-.41-.379-.97-.568-1.683-.568a3.48 3.48 0 0 0-1.616.386 5.74 5.74 0 0 0-1.364 1.022l-1.206-1.43a8.412 8.412 0 0 1 1.934-1.319c.697-.333 1.478-.5 2.343-.5.88 0 1.66.152 2.343.455.682.288 1.213.712 1.592 1.272.394.545.591 1.22.591 2.022 0 .833-.235 1.53-.705 2.09-.455.56-1.077.992-1.865 1.295v.091a4.239 4.239 0 0 1 1.547.704c.47.318.841.727 1.114 1.227.273.485.41 1.053.41 1.704 0 .878-.228 1.628-.683 2.249-.44.606-1.038 1.075-1.797 1.408-.743.334-1.57.5-2.48.5Zm13.895 0c-.788 0-1.486-.09-2.093-.272a6.55 6.55 0 0 1-1.57-.75 7.872 7.872 0 0 1-1.205-.977l1.092-1.477c.44.424.933.795 1.479 1.114.56.318 1.236.477 2.024.477.561 0 1.062-.122 1.502-.364a2.67 2.67 0 0 0 1.069-1.022c.258-.455.386-.992.386-1.613 0-.924-.257-1.636-.773-2.136-.516-.515-1.206-.772-2.07-.772-.47 0-.88.068-1.228.204a7.13 7.13 0 0 0-1.16.637l-1.138-.727.455-7.066h7.53v1.954h-5.528l-.341 3.84c.318-.167.637-.296.955-.387.319-.09.682-.136 1.092-.136.819 0 1.57.166 2.252.5.698.318 1.251.81 1.66 1.476.41.667.615 1.515.615 2.545 0 1.06-.235 1.961-.705 2.703a4.75 4.75 0 0 1-1.866 1.681 5.374 5.374 0 0 1-2.434.568Zm145.433 91.814c-.388 0-.905 0-1.294-.258a2.818 2.818 0 0 1-1.035-.647c-.258-.258-.517-.517-.646-.905-.13-.388-.26-.776-.26-1.164 0-.388.13-.775.26-1.164.129-.388.388-.646.646-.905a2.82 2.82 0 0 1 1.035-.646c.389-.13.777-.259 1.294-.259.388 0 .906.13 1.294.259.388.13.776.388 1.035.646.259.259.518.517.647.905.13.389.259.776.259 1.164 0 .388-.13.776-.26 1.164-.128.388-.387.647-.646.905a2.818 2.818 0 0 1-1.035.647c-.517.13-.906.13-1.294.258Zm-2.07 7.113 5.305-6.336 4.916-6.596 1.165 1.035-5.176 6.207-5.045 6.724-1.165-1.034Zm2.07-8.406c.13 0 .388 0 .518-.129l.388-.388c.13-.13.259-.258.259-.517.129-.259.129-.388.129-.647 0-.388-.13-.775-.388-1.164-.259-.258-.647-.517-.906-.517-.13 0-.388 0-.517.13l-.388.387c-.13.13-.26.26-.26.518-.129.129-.129.388-.129.646 0 .388.13.776.389 1.164.129.259.517.517.905.517Zm7.505 9.31c-.389 0-.906-.128-1.294-.258a2.817 2.817 0 0 1-1.036-.646c-.258-.259-.517-.517-.647-.905-.129-.389-.258-.776-.258-1.164 0-.388.13-.776.258-1.164.13-.388.389-.647.647-.905a2.823 2.823 0 0 1 1.036-.647c.388-.13.776-.258 1.294-.258.388 0 .905 0 1.293.258.388.13.777.388 1.035.647.26.258.518.517.647.905.13.388.259.776.259 1.164 0 .388-.13.775-.259 1.164-.13.388-.388.646-.647.905a2.818 2.818 0 0 1-1.035.646c-.517.13-.905.259-1.293.259Zm0-1.292c.129 0 .388 0 .517-.13l.388-.387c.13-.13.259-.259.259-.518.13-.129.13-.388.13-.646 0-.259 0-.388-.13-.647s-.13-.388-.259-.517a299.6 299.6 0 0 1-.388-.388c-.13-.13-.388-.13-.517-.13-.13 0-.389 0-.518.13l-.388.388c-.13.13-.259.258-.259.517-.13.259-.13.388-.13.647 0 .388.13.775.389 1.164.13.388.517.517.906.517Zm-38.192 1.526v-1.34a107.917 107.917 0 0 0 3.571-3.635c1.001-1.06 1.767-2.015 2.298-2.863.53-.863.796-1.673.796-2.43 0-.803-.212-1.44-.637-1.909-.425-.485-1.062-.727-1.91-.727a2.96 2.96 0 0 0-1.616.477 6.056 6.056 0 0 0-1.32 1.181l-1.296-1.272c.637-.696 1.304-1.242 2.002-1.635.713-.394 1.554-.591 2.525-.591.91 0 1.698.182 2.366.545a3.655 3.655 0 0 1 1.546 1.522c.38.651.57 1.416.57 2.295 0 .878-.251 1.772-.752 2.68-.485.894-1.152 1.825-2.001 2.795a90.173 90.173 0 0 1-2.798 3.09c.379-.031.788-.061 1.228-.092.44-.03.842-.045 1.206-.045h3.821v1.954h-9.6Zm18.763.272c-1.486 0-2.661-.65-3.526-1.953-.849-1.303-1.273-3.173-1.273-5.612 0-2.438.424-4.286 1.273-5.543.865-1.272 2.04-1.908 3.526-1.908 1.471 0 2.639.636 3.503 1.908.865 1.272 1.297 3.12 1.297 5.543 0 2.439-.432 4.31-1.297 5.612-.864 1.302-2.032 1.953-3.503 1.953Zm0-1.817c.5 0 .948-.19 1.342-.568.395-.379.698-.984.91-1.817.228-.849.341-1.97.341-3.363s-.113-2.499-.34-3.316c-.213-.833-.516-1.424-.91-1.772a1.954 1.954 0 0 0-2.707 0c-.38.348-.683.939-.91 1.772-.213.817-.319 1.923-.319 3.316 0 1.394.106 2.514.319 3.363.227.833.53 1.438.91 1.817.394.379.849.568 1.364.568Zm84.432-76.752c-.388 0-.906 0-1.294-.259a2.818 2.818 0 0 1-1.035-.646c-.259-.26-.517-.518-.647-.906-.129-.388-.258-.775-.258-1.163 0-.389.129-.776.258-1.164.13-.388.388-.647.647-.905a2.82 2.82 0 0 1 1.035-.647c.388-.13.776-.259 1.294-.259.388 0 .906.13 1.294.259.388.13.776.388 1.035.647.259.258.517.517.647.905.129.388.258.775.258 1.164 0 .388-.129.775-.258 1.163-.13.388-.388.647-.647.906a2.818 2.818 0 0 1-1.035.646c-.518.13-.906.13-1.294.259Zm-2.07 7.112 5.304-6.336 4.917-6.595 1.165 1.034-5.176 6.207-5.046 6.724-1.164-1.034Zm2.07-8.405c.13 0 .388 0 .518-.13l.388-.388c.129-.129.258-.258.258-.517.13-.258.13-.388.13-.646 0-.389-.13-.776-.388-1.164-.26-.259-.647-.518-.906-.518-.13 0-.388 0-.518.13l-.388.388c-.129.129-.258.259-.258.517-.13.13-.13.388-.13.647 0 .388.13.775.388 1.163.13.26.518.518.906.518Zm7.504 9.31c-.388 0-.905-.129-1.293-.258a2.817 2.817 0 0 1-1.036-.647c-.259-.259-.517-.517-.647-.905s-.259-.776-.259-1.164c0-.388.13-.776.26-1.164.129-.388.387-.646.646-.905a2.823 2.823 0 0 1 1.036-.647c.388-.129.776-.258 1.293-.258.388 0 .906 0 1.294.258.388.13.776.388 1.035.647.259.259.518.517.647.905.13.388.259.776.259 1.164 0 .388-.13.776-.259 1.164-.13.388-.388.646-.647.905a2.818 2.818 0 0 1-1.035.647c-.517.129-.906.258-1.294.258Zm0-1.293c.13 0 .388 0 .518-.129l.388-.388c.13-.13.259-.259.259-.517.13-.13.13-.389.13-.647s0-.388-.13-.646c-.13-.26-.13-.389-.259-.518l-.388-.388c-.13-.13-.388-.13-.518-.13s-.388 0-.517.13l-.388.388c-.13.13-.26.259-.26.518-.128.258-.128.388-.128.646 0 .388.129.776.388 1.164.13.388.517.517.905.517Zm-37.566 1.526v-1.886h3.275v-9.995h-2.661V300.6a13.055 13.055 0 0 0 1.82-.477 7.556 7.556 0 0 0 1.41-.66h1.729v12.586h2.912v1.886h-8.485Zm17.672.273c-.925 0-1.759-.167-2.502-.5-.728-.348-1.304-.818-1.729-1.409-.41-.605-.614-1.295-.614-2.067 0-.62.129-1.166.387-1.636.257-.484.584-.9.978-1.25a6.69 6.69 0 0 1 1.296-.908v-.09c-.53-.394-1-.864-1.41-1.41-.394-.544-.591-1.196-.591-1.953 0-.772.182-1.439.546-2a3.68 3.68 0 0 1 1.524-1.317c.637-.318 1.365-.477 2.183-.477 1.29 0 2.306.364 3.049 1.09.758.712 1.137 1.644 1.137 2.795 0 .485-.106.946-.318 1.386a4.776 4.776 0 0 1-.751 1.181 5.209 5.209 0 0 1-.91.84v.091c.44.243.85.53 1.228.864.395.333.705.734.933 1.204.243.47.364 1.022.364 1.658 0 .742-.205 1.409-.614 2-.395.575-.956 1.037-1.684 1.385-.712.348-1.546.523-2.502.523Zm.046-1.659c.5 0 .947-.09 1.342-.272.394-.197.697-.47.91-.818.227-.349.34-.757.34-1.227 0-.575-.166-1.045-.5-1.408-.333-.364-.78-.674-1.342-.932a47.613 47.613 0 0 0-1.842-.795c-.5.348-.925.772-1.274 1.272-.334.485-.5 1.03-.5 1.636 0 .5.12.946.363 1.34.258.379.6.674 1.024.886.44.212.933.318 1.479.318Zm.932-6.656c.44-.409.774-.833 1.001-1.272a3.11 3.11 0 0 0 .341-1.409c0-.454-.09-.855-.273-1.204a1.809 1.809 0 0 0-.773-.84c-.349-.212-.766-.318-1.251-.318-.607 0-1.115.189-1.524.568-.41.378-.614.9-.614 1.567 0 .515.136.954.41 1.318.287.348.666.65 1.136.908.47.243.986.47 1.547.682Zm2.882-89.187c-.388 0-.906 0-1.294-.258a2.818 2.818 0 0 1-1.035-.646c-.259-.26-.518-.518-.647-.906-.13-.388-.259-.776-.259-1.164 0-.388.13-.775.259-1.164.13-.388.388-.646.647-.904a2.82 2.82 0 0 1 1.035-.647c.388-.13.776-.259 1.294-.259.388 0 .905.13 1.293.259.389.13.777.388 1.035.647.26.258.518.516.647.904.13.389.26.776.26 1.164 0 .388-.13.776-.26 1.164-.129.388-.388.647-.647.906a2.818 2.818 0 0 1-1.035.646c-.517.13-.905.13-1.293.258Zm-2.07 7.113 5.304-6.336 4.917-6.596 1.164 1.035-5.175 6.207-5.046 6.724-1.164-1.034Zm2.07-8.406c.13 0 .388 0 .517-.129l.388-.388c.13-.13.26-.258.26-.517.128-.259.128-.388.128-.647 0-.388-.129-.775-.388-1.164-.258-.258-.647-.517-.905-.517-.13 0-.388 0-.518.13l-.388.387c-.13.13-.259.26-.259.518-.13.129-.13.388-.13.646 0 .388.13.776.389 1.164.13.259.518.517.906.517Zm7.504 9.31c-.388 0-.906-.128-1.294-.257a2.817 2.817 0 0 1-1.035-.647c-.259-.259-.518-.517-.647-.905-.13-.388-.259-.776-.259-1.164 0-.388.13-.776.259-1.164.13-.388.388-.647.647-.905a2.823 2.823 0 0 1 1.035-.647c.388-.13.776-.258 1.294-.258.388 0 .906 0 1.294.258.388.13.776.388 1.035.647.259.258.517.517.647.905.129.388.258.776.258 1.164 0 .388-.129.776-.258 1.164-.13.388-.388.646-.647.905a2.818 2.818 0 0 1-1.035.647c-.518.129-.906.258-1.294.258Zm0-1.292c.13 0 .388 0 .518-.13l.388-.387c.129-.13.258-.259.258-.518.13-.129.13-.388.13-.646 0-.259 0-.388-.13-.647-.129-.259-.129-.388-.258-.517-.13-.13-.26-.258-.388-.388-.13-.13-.389-.13-.518-.13-.13 0-.388 0-.518.13l-.388.388c-.129.13-.258.258-.258.517-.13.259-.13.388-.13.647 0 .388.13.776.388 1.164.13.388.518.517.906.517Zm-37.567 1.526v-1.886h3.276v-9.996h-2.661v-1.454a13.055 13.055 0 0 0 1.82-.477 7.556 7.556 0 0 0 1.41-.658h1.729v12.585h2.911v1.886h-8.485Zm17.673.272c-.925 0-1.76-.166-2.502-.5-.728-.348-1.305-.817-1.73-1.408-.409-.606-.613-1.295-.613-2.067 0-.621.129-1.166.386-1.636.258-.485.584-.901.978-1.25a6.69 6.69 0 0 1 1.297-.908v-.091c-.53-.394-1-.863-1.41-1.408-.395-.546-.592-1.197-.592-1.954 0-.773.182-1.439.546-2a3.68 3.68 0 0 1 1.524-1.317c.637-.318 1.365-.477 2.184-.477 1.29 0 2.305.363 3.048 1.09.759.712 1.138 1.644 1.138 2.795 0 .484-.107.946-.319 1.385a4.75 4.75 0 0 1-.75 1.182 5.209 5.209 0 0 1-.91.84v.091c.44.243.849.53 1.228.863.394.334.705.735.933 1.205.242.469.364 1.022.364 1.658 0 .742-.205 1.408-.615 2-.394.575-.955 1.037-1.683 1.385-.713.348-1.547.522-2.502.522Zm.045-1.658c.5 0 .948-.09 1.342-.273.395-.196.698-.47.91-.817.228-.349.342-.758.342-1.227 0-.576-.167-1.045-.5-1.409-.335-.363-.782-.674-1.343-.931a47.613 47.613 0 0 0-1.843-.795c-.5.348-.925.772-1.273 1.272-.334.485-.5 1.03-.5 1.636 0 .5.12.946.363 1.34.258.379.6.674 1.024.886.44.212.932.318 1.478.318Zm.933-6.656c.44-.41.773-.833 1-1.273a3.11 3.11 0 0 0 .342-1.408c0-.454-.09-.856-.273-1.204a1.809 1.809 0 0 0-.773-.84c-.35-.213-.766-.319-1.251-.319-.607 0-1.115.19-1.524.568-.41.379-.615.901-.615 1.568 0 .515.137.954.41 1.317.288.349.667.652 1.137.91.47.241.986.469 1.547.68Z" fill="#FFF"/></g><path d="M365.524 87.397c-1.962 2.935-3.913 5.88-5.76 8.89a112.409 112.409 0 0 0-3.104 5.439 17.23 17.23 0 0 0-.545-.28 11.278 11.278 0 0 0-.658-.297c-.332-.134-.663-.244-1.024-.243a1.427 1.427 0 0 0-1.267.762c-.186.355-.172.782-.16 1.173.007.17.025.34.044.507.04.358.092.715.136 1.072.103.81.168 1.622.195 2.438.021.651.608 1.17 1.25 1.14.363-.015.675-.194.879-.46.064-.008.13-.02.196-.034.276-.058.537-.198.791-.317.186-.087.37-.177.552-.27.352-.182.703-.363 1.062-.53.378-.177.753-.352 1.118-.552.476-.261.985-.568 1.11-1.147a1.279 1.279 0 0 0-.418-1.218c-.174-.153-.37-.24-.573-.336a24.063 24.063 0 0 1-.961-.48l.435-.795c.427-.78.888-1.542 1.337-2.31.388-.666.793-1.326 1.212-1.974.493-.765.986-1.53 1.49-2.286a428.712 428.712 0 0 1 3.159-4.65c.961-1.401 1.917-2.808 2.89-4.203l1.376-1.973a302.714 302.714 0 0 1 6.184-8.39 254.327 254.327 0 0 1 6.634-8.365c.63-.759 1.26-1.517 1.877-2.287.286-.356.567-.717.849-1.077.368-.473.747-.94 1.027-1.472a1.29 1.29 0 0 0-.26-1.526 1.29 1.29 0 0 0-.931-.345c-.351.017-.619.172-.871.403-.185.17-.347.346-.503.542-.132.165-.258.333-.388.5-.257.331-.517.66-.778.99-.54.683-1.09 1.36-1.639 2.038a226.626 226.626 0 0 0-3.273 4.14 296.249 296.249 0 0 0-9.644 13.256c-1.026 1.502-2.035 3.015-3.046 4.527Zm124.017 100.688c-3.052 1.789-6.095 3.592-9.076 5.498a110.782 110.782 0 0 0-5.17 3.547c-.124-.165-.244-.33-.372-.491-.148-.19-.3-.378-.463-.558-.243-.266-.491-.511-.82-.669a1.425 1.425 0 0 0-1.474.13c-.322.24-.496.632-.655.991a6.748 6.748 0 0 0-.182.477c-.12.34-.229.685-.344 1.028a26.124 26.124 0 0 1-.889 2.286c-.264.598.039 1.324.63 1.58.336.144.695.12.995-.03.061.02.125.039.192.055.272.069.572.057.854.061.205.004.41.003.615-.002.396-.009.792-.018 1.188-.012.42.008.834.014 1.25-.006.543-.027 1.134-.08 1.502-.548.281-.364.334-.863.152-1.284-.09-.214-.229-.379-.372-.555a22.13 22.13 0 0 1-.653-.856c.243-.176.491-.351.74-.526.724-.517 1.473-1.003 2.212-1.5a46.92 46.92 0 0 1 1.956-1.25c.777-.473 1.555-.947 2.337-1.41 1.621-.95 3.253-1.881 4.879-2.81 1.479-.843 2.957-1.694 4.44-2.526l2.104-1.178a307.632 307.632 0 0 1 9.238-4.86 252.327 252.327 0 0 1 9.635-4.638c.901-.409 1.798-.816 2.69-1.24.415-.196.825-.399 1.235-.6.539-.266 1.087-.52 1.57-.879.457-.336.634-.961.433-1.492a1.3 1.3 0 0 0-.691-.72c-.325-.139-.635-.117-.964-.018-.238.071-.462.16-.687.268-.19.09-.381.187-.567.28-.377.187-.759.37-1.135.552-.787.38-1.579.75-2.366 1.121a213.83 213.83 0 0 0-4.76 2.301 290.953 290.953 0 0 0-9.296 4.844c-1.74.948-3.472 1.906-5.189 2.89a539.202 539.202 0 0 0-4.722 2.75Z" fill="#FFF"/><path d="M364 48.734V34.198h4.507c1.108 0 2.087.14 2.936.422.85.266 1.518.725 2.004 1.376.5.636.75 1.501.75 2.596 0 1.05-.242 1.916-.728 2.597-.485.68-1.153 1.19-2.003 1.53-.834.326-1.79.49-2.868.49h-2.276v5.525H364Zm2.322-7.346h2.048c1.2 0 2.087-.229 2.664-.688.576-.458.865-1.161.865-2.108 0-.976-.304-1.65-.91-2.02-.608-.37-1.51-.554-2.71-.554h-1.957v5.37ZM382.556 49c-1.168 0-2.033-.37-2.595-1.11-.546-.74-.82-1.797-.82-3.173v-6.835h2.3v6.547c0 .946.151 1.627.455 2.041.303.4.781.6 1.434.6a2.6 2.6 0 0 0 1.388-.378c.41-.266.843-.688 1.298-1.265v-7.545h2.299v10.852h-1.89l-.181-1.642h-.069a7.034 7.034 0 0 1-1.616 1.398c-.561.34-1.229.51-2.003.51Zm16.84 0c-.516 0-1.04-.118-1.57-.355a6.199 6.199 0 0 1-1.526-1.043h-.068l-.205 1.132h-1.821V33h2.299v4.172l-.068 1.864a7.103 7.103 0 0 1 1.57-1.02 4.136 4.136 0 0 1 1.753-.4c.94 0 1.738.23 2.39.688.668.458 1.169 1.102 1.502 1.93.35.814.524 1.783.524 2.908 0 1.227-.228 2.285-.683 3.173-.455.873-1.047 1.538-1.775 1.997a4.21 4.21 0 0 1-2.322.688Zm-.455-1.864c.546 0 1.031-.148 1.456-.444.44-.31.782-.762 1.025-1.354.258-.591.387-1.316.387-2.174 0-.755-.091-1.406-.273-1.953-.183-.562-.47-.991-.865-1.287-.38-.296-.88-.444-1.503-.444-.425 0-.857.11-1.297.333-.44.207-.896.54-1.366.998v5.326c.425.37.85.63 1.275.777.44.148.827.222 1.16.222ZM411.61 49c-.561 0-1.01-.111-1.343-.333a1.885 1.885 0 0 1-.728-.954c-.152-.414-.228-.917-.228-1.51V33h2.299v13.337c0 .296.053.51.16.644a.55.55 0 0 0 .386.177h.16c.06-.015.144-.03.25-.044l.296 1.686a2.44 2.44 0 0 1-.524.133c-.197.045-.44.067-.728.067Zm6.093-.266V37.882h2.299v10.852h-2.3Zm1.16-12.894c-.394 0-.728-.125-1-.377a1.311 1.311 0 0 1-.41-.976c0-.385.136-.703.41-.954a1.424 1.424 0 0 1 1-.378c.41 0 .744.126 1.002.378.273.251.41.57.41.954s-.137.71-.41.976c-.258.252-.592.377-1.001.377ZM430.426 49c-1.002 0-1.905-.222-2.709-.666-.789-.444-1.419-1.087-1.89-1.93-.47-.858-.705-1.887-.705-3.085s.258-2.22.774-3.062c.516-.859 1.184-1.51 2.003-1.953a5.535 5.535 0 0 1 2.709-.688c.713 0 1.335.126 1.867.377.53.237.994.525 1.388.865l-1.138 1.465a3.64 3.64 0 0 0-.933-.643 2.51 2.51 0 0 0-1.07-.222c-.638 0-1.199.162-1.685.488-.485.31-.865.762-1.138 1.354-.273.577-.41 1.25-.41 2.02 0 .768.13 1.441.387 2.018.274.577.645 1.029 1.116 1.354.485.31 1.04.466 1.662.466.47 0 .91-.096 1.32-.288a4.44 4.44 0 0 0 1.115-.71l.956 1.486a5.721 5.721 0 0 1-1.707 1.021 5.652 5.652 0 0 1-1.912.333Zm18.282 0a6.39 6.39 0 0 1-2.276-.422 7.87 7.87 0 0 1-1.912-1.087l1.093-1.442c.485.37.978.673 1.48.91a4.218 4.218 0 0 0 1.684.332c.667 0 1.16-.14 1.48-.421.318-.281.477-.63.477-1.043 0-.326-.121-.6-.364-.821a3.032 3.032 0 0 0-.933-.6 16.995 16.995 0 0 0-1.161-.466 16.696 16.696 0 0 1-1.503-.665 3.946 3.946 0 0 1-1.229-.977c-.318-.4-.478-.902-.478-1.509 0-.917.35-1.672 1.047-2.263.714-.607 1.685-.91 2.914-.91.744 0 1.419.126 2.026.377a6.81 6.81 0 0 1 1.57.888l-1.07 1.398a6.61 6.61 0 0 0-1.206-.688 3.07 3.07 0 0 0-1.274-.267c-.623 0-1.085.134-1.389.4a1.255 1.255 0 0 0-.432.954c0 .311.113.57.34.777.229.192.524.362.889.51.364.148.75.296 1.16.444.517.193 1.025.414 1.526.666.5.251.918.584 1.252.999.334.399.5.939.5 1.62 0 .606-.166 1.16-.5 1.664-.319.503-.79.902-1.412 1.198-.622.296-1.388.444-2.299.444Zm11.696 0c-.638 0-1.207-.126-1.708-.377a3.116 3.116 0 0 1-1.16-1.088c-.274-.473-.41-1.028-.41-1.664 0-1.169.531-2.071 1.593-2.707 1.063-.636 2.755-1.08 5.076-1.332 0-.414-.068-.806-.204-1.176a1.7 1.7 0 0 0-.66-.888c-.304-.222-.729-.333-1.275-.333-.592 0-1.161.111-1.708.333-.53.222-1.031.481-1.502.777l-.865-1.509c.38-.237.804-.459 1.275-.666.47-.222.971-.4 1.502-.532a6.503 6.503 0 0 1 1.707-.222c.91 0 1.662.185 2.254.555a3.3 3.3 0 0 1 1.343 1.575c.288.68.432 1.502.432 2.463v6.525h-1.889l-.182-1.243h-.068a8.53 8.53 0 0 1-1.64 1.065 4.217 4.217 0 0 1-1.911.444Zm.705-1.775c.486 0 .941-.111 1.366-.333.425-.222.865-.54 1.32-.954v-2.686c-1.107.134-1.988.311-2.64.533-.637.222-1.1.496-1.389.821a1.65 1.65 0 0 0-.41 1.088c0 .532.168.924.501 1.176.334.236.752.355 1.252.355ZM474.076 49c-.56 0-1.01-.111-1.342-.333a1.887 1.887 0 0 1-.728-.954c-.152-.414-.228-.917-.228-1.51V33h2.298v13.337c0 .296.052.51.161.644a.546.546 0 0 0 .384.177h.162c.061-.015.142-.03.251-.044l.294 1.686c-.152.06-.327.104-.522.133-.199.045-.44.067-.73.067Zm10.737 0c-1.015 0-1.935-.222-2.756-.666-.801-.458-1.446-1.11-1.935-1.953-.483-.843-.725-1.864-.725-3.062 0-1.169.242-2.175.725-3.018.489-.858 1.12-1.516 1.893-1.975a4.632 4.632 0 0 1 2.456-.71c.972 0 1.793.214 2.461.643.683.43 1.195 1.029 1.546 1.798.351.77.522 1.664.522 2.685 0 .207-.014.422-.043.644a3.026 3.026 0 0 1-.07.51h-7.693l-.023-1.553h5.828c0-.947-.214-1.68-.636-2.197-.412-.518-1.024-.777-1.844-.777-.489 0-.958.133-1.414.4-.455.266-.834.695-1.138 1.287-.29.577-.431 1.331-.431 2.263 0 .902.166 1.642.502 2.22.332.576.764 1.005 1.295 1.286a3.824 3.824 0 0 0 1.778.422c.498 0 .963-.074 1.385-.222a6.16 6.16 0 0 0 1.276-.6l.796 1.421a8.28 8.28 0 0 1-1.73.821 5.972 5.972 0 0 1-2.025.333Z" fill="#FFF" fill-rule="nonzero"/><path d="M268.384 66.664c-.406 3.49-.797 6.981-1.073 10.484-.163 2.07-.246 4.146-.297 6.224a16.13 16.13 0 0 0-.587-.001 9.954 9.954 0 0 0-.692.033c-.341.032-.673.084-.981.248a1.43 1.43 0 0 0-.754 1.247c-.004.4.192.771.373 1.113.078.147.168.288.257.43.19.298.388.59.581.887a26.1 26.1 0 0 1 1.223 2.074c.3.567 1.027.762 1.563.446a1.17 1.17 0 0 0 .552-.806c.052-.036.103-.076.153-.119.21-.176.374-.419.54-.638.121-.161.239-.324.354-.49.223-.32.444-.639.679-.95.246-.326.492-.652.717-.993.294-.447.596-.949.452-1.518a1.243 1.243 0 0 0-.885-.892c-.215-.056-.42-.045-.636-.038-.344.012-.687.013-1.03.008.008-.3.018-.6.028-.9.027-.885.09-1.769.141-2.653a52.24 52.24 0 0 1 .182-2.297c.09-.9.18-1.801.283-2.7.214-1.85.45-3.7.686-5.549.216-1.676.423-3.356.65-5.031l.322-2.372a312.05 312.05 0 0 1 1.652-10.231c.618-3.486 1.29-6.958 2.049-10.413.21-.957.42-1.914.614-2.875.09-.445.174-.892.259-1.339.11-.585.232-1.17.24-1.77a1.276 1.276 0 0 0-.884-1.234 1.197 1.197 0 0 0-.945.116c-.293.173-.455.431-.57.75a4.748 4.748 0 0 0-.195.708c-.041.205-.076.412-.115.618-.077.41-.157.82-.237 1.229-.166.85-.343 1.7-.518 2.547-.353 1.714-.69 3.429-1.005 5.15a305.594 305.594 0 0 0-2.502 16.108c-.227 1.795-.434 3.593-.644 5.39Z" fill="#FFF"/><path d="m233 15.734 4.885-14.536h2.656l4.885 14.536h-2.432l-2.386-7.9a72.634 72.634 0 0 1-.72-2.397l-.675-2.441h-.09a70.9 70.9 0 0 1-.676 2.44c-.225.8-.457 1.599-.697 2.398l-2.409 7.9H233Zm2.746-4.15V9.809h6.866v1.775h-6.866ZM253.321 16c-1.366 0-2.461-.496-3.287-1.487-.825-1.006-1.238-2.404-1.238-4.194 0-1.169.218-2.175.653-3.018.45-.858 1.036-1.516 1.756-1.975.72-.473 1.486-.71 2.296-.71.645 0 1.193.11 1.643.333.45.207.893.503 1.328.887l-.09-1.797V0h2.274v15.734h-1.869l-.18-1.22h-.067a6.194 6.194 0 0 1-1.44 1.042 3.726 3.726 0 0 1-1.78.444Zm.54-1.864c.465 0 .9-.104 1.306-.31.42-.223.825-.563 1.215-1.022V7.48c-.405-.37-.81-.63-1.215-.777a3.4 3.4 0 0 0-1.216-.222c-.525 0-.998.155-1.418.466-.42.296-.758.732-1.013 1.31-.255.576-.383 1.257-.383 2.04 0 1.229.233 2.176.698 2.841.48.666 1.156.999 2.026.999Zm13.047 1.598-3.895-10.852h2.319l1.89 5.859c.15.532.308 1.072.473 1.62.165.547.33 1.087.496 1.62h.09c.15-.533.307-1.073.472-1.62.165-.548.33-1.088.496-1.62l1.89-5.859h2.206l-3.804 10.852h-2.633Zm10.813 0V4.882h2.274v10.852h-2.274ZM278.87 2.84a1.4 1.4 0 0 1-.99-.377 1.319 1.319 0 0 1-.405-.976c0-.385.135-.703.405-.954a1.4 1.4 0 0 1 .99-.378c.405 0 .736.126.99.378.27.251.406.57.406.954s-.135.71-.405.976c-.255.252-.586.377-.99.377ZM288.816 16c-.765 0-1.516-.14-2.251-.422a7.76 7.76 0 0 1-1.89-1.087l1.08-1.442c.48.37.967.673 1.463.91.51.221 1.065.332 1.665.332.66 0 1.148-.14 1.464-.421.315-.281.472-.63.472-1.043 0-.326-.12-.6-.36-.821a2.995 2.995 0 0 0-.923-.6c-.36-.162-.743-.318-1.148-.466-.495-.192-.99-.414-1.485-.665a3.91 3.91 0 0 1-1.216-.977c-.315-.4-.473-.902-.473-1.509 0-.917.345-1.672 1.036-2.263.705-.607 1.665-.91 2.881-.91.735 0 1.403.126 2.003.377a6.75 6.75 0 0 1 1.554.888l-1.058 1.398a6.519 6.519 0 0 0-1.193-.688 3.008 3.008 0 0 0-1.26-.266c-.616 0-1.074.133-1.374.399a1.261 1.261 0 0 0-.428.954c0 .31.113.57.338.777.225.192.518.362.878.51.36.148.743.296 1.148.444.51.192 1.013.414 1.508.666a3.69 3.69 0 0 1 1.238.999c.33.399.495.939.495 1.62a2.97 2.97 0 0 1-.495 1.664c-.315.503-.78.902-1.396 1.198-.615.296-1.373.444-2.273.444Zm13.546 0c-1.005 0-1.913-.222-2.723-.666-.796-.458-1.434-1.11-1.914-1.953s-.72-1.864-.72-3.062c0-1.169.24-2.175.72-3.018.48-.858 1.103-1.516 1.868-1.975a4.547 4.547 0 0 1 2.432-.71c.96 0 1.77.214 2.43.643.676.43 1.186 1.029 1.531 1.798.345.77.518 1.664.518 2.685 0 .207-.015.422-.045.644a3.56 3.56 0 0 1-.067.51h-7.609l-.022-1.553h5.762c0-.947-.21-1.68-.63-2.197-.405-.518-1.013-.777-1.823-.777-.48 0-.946.133-1.396.4-.45.266-.825.695-1.126 1.286-.285.577-.427 1.332-.427 2.264 0 .902.165 1.642.495 2.22.33.576.758 1.005 1.283 1.286a3.75 3.75 0 0 0 1.756.422c.495 0 .953-.074 1.373-.222a6.121 6.121 0 0 0 1.26-.6l.788 1.421c-.51.326-1.08.6-1.71.821a5.863 5.863 0 0 1-2.004.333Zm9.07-.266V4.882h1.869l.18 1.953h.067c.39-.695.856-1.235 1.396-1.62.555-.4 1.133-.6 1.733-.6.255 0 .48.023.675.067.196.03.376.082.54.156l-.404 1.953a4.782 4.782 0 0 0-.54-.134 2.98 2.98 0 0 0-.563-.044c-.45 0-.923.178-1.419.533-.495.34-.915.946-1.26 1.82v6.768h-2.274Zm13.404.266c-.766 0-1.516-.14-2.251-.422a7.76 7.76 0 0 1-1.891-1.087l1.08-1.442c.48.37.968.673 1.463.91.51.221 1.066.332 1.666.332.66 0 1.148-.14 1.463-.421.315-.281.473-.63.473-1.043 0-.326-.12-.6-.36-.821a2.995 2.995 0 0 0-.923-.6c-.36-.162-.743-.318-1.148-.466-.495-.192-.99-.414-1.486-.665a3.91 3.91 0 0 1-1.215-.977c-.315-.4-.473-.902-.473-1.509 0-.917.345-1.672 1.036-2.263.705-.607 1.665-.91 2.88-.91.736 0 1.404.126 2.004.377a6.72 6.72 0 0 1 1.553.888l-1.058 1.398a6.519 6.519 0 0 0-1.193-.688 3.008 3.008 0 0 0-1.26-.266c-.615 0-1.073.133-1.373.399a1.261 1.261 0 0 0-.428.954c0 .31.113.57.338.777.225.192.517.362.878.51.36.148.742.296 1.148.444.51.192 1.013.414 1.508.666a3.69 3.69 0 0 1 1.238.999c.33.399.495.939.495 1.62a2.97 2.97 0 0 1-.495 1.664c-.315.503-.78.902-1.396 1.198-.615.296-1.373.444-2.273.444Zm175.519 140.712v-13.649H496V141h11.007v2.063h-4.355v13.65h-2.297Zm14.423.288c-1.006 0-1.917-.24-2.73-.72-.794-.495-1.433-1.199-1.917-2.11-.479-.912-.718-2.016-.718-3.31 0-1.264.24-2.352.718-3.263.484-.928 1.104-1.64 1.875-2.135.766-.512 1.578-.768 2.433-.768.963 0 1.776.232 2.434.696.676.464 1.188 1.111 1.536 1.943.343.831.517 1.799.517 2.902 0 .224-.014.456-.042.696a4.235 4.235 0 0 1-.07.552h-7.62l-.024-1.68h5.773c0-1.023-.211-1.814-.634-2.374-.404-.56-1.015-.84-1.823-.84-.484 0-.949.144-1.4.432-.45.288-.826.752-1.127 1.391-.287.624-.428 1.44-.428 2.447 0 .976.165 1.775.494 2.399.333.624.76 1.087 1.287 1.391a3.53 3.53 0 0 0 1.757.456c.498 0 .958-.08 1.376-.24.437-.16.86-.376 1.264-.648l.79 1.536a8.014 8.014 0 0 1-1.715.887 5.47 5.47 0 0 1-2.006.36Zm11.416 0c-.63 0-1.194-.136-1.692-.408a3.24 3.24 0 0 1-1.15-1.175c-.268-.512-.405-1.112-.405-1.8 0-1.263.527-2.238 1.579-2.926 1.052-.688 2.73-1.167 5.027-1.44 0-.447-.066-.87-.202-1.27-.123-.4-.339-.72-.653-.96-.301-.24-.724-.36-1.264-.36a4.12 4.12 0 0 0-1.691.36c-.527.24-1.025.52-1.49.84l-.855-1.632a9.493 9.493 0 0 1 1.264-.72c.465-.24.958-.431 1.485-.575a5.975 5.975 0 0 1 1.69-.24c.903 0 1.65.2 2.237.6.601.4 1.043.967 1.33 1.703.286.736.427 1.623.427 2.663v7.052h-1.87l-.183-1.343h-.066a8.508 8.508 0 0 1-1.625 1.151 3.89 3.89 0 0 1-1.893.48Zm.7-1.919c.479 0 .93-.12 1.353-.36.418-.24.855-.584 1.306-1.031v-2.903c-1.095.144-1.969.336-2.617.576-.63.24-1.09.536-1.372.887a1.873 1.873 0 0 0-.409 1.176c0 .575.165 1 .498 1.271.33.256.743.384 1.24.384Zm10.57 1.631v-11.73h1.87l.183 1.655h.066c.465-.544.977-1 1.531-1.367a3.3 3.3 0 0 1 1.875-.576c.827 0 1.48.192 1.959.576.484.384.845.911 1.085 1.583a9.178 9.178 0 0 1 1.668-1.535 3.249 3.249 0 0 1 1.916-.624c1.156 0 2.007.4 2.547 1.2.559.8.836 1.943.836 3.43v7.388h-2.278v-7.076c0-1.024-.15-1.751-.451-2.183-.287-.448-.752-.672-1.396-.672-.394 0-.789.136-1.198.408-.404.256-.84.656-1.306 1.2v8.323h-2.278v-7.076c0-1.024-.15-1.751-.451-2.183-.287-.448-.752-.672-1.4-.672-.752 0-1.583.536-2.5 1.607v8.324h-2.278Z" fill="#FFF" fill-rule="nonzero"/><path d="M497.146 341.59c-3.43-.8-6.87-1.585-10.328-2.248-2.042-.392-4.1-.7-6.166-.974.024-.208.048-.414.067-.623.019-.246.033-.492.038-.737.005-.366-.01-.723-.138-1.068a1.44 1.44 0 0 0-1.164-.932c-.399-.047-.788.122-1.15.278a7.106 7.106 0 0 0-.45.227c-.319.17-.633.35-.95.523a25.5 25.5 0 0 1-2.196 1.078c-.598.259-.869 1.01-.612 1.612.147.342.422.573.74.671.034.059.067.117.105.176.152.242.376.44.58.64.147.145.294.288.446.427.295.27.59.54.874.822.3.296.599.59.913.865.413.36.883.734 1.463.64.456-.072.826-.408.983-.844.08-.223.09-.442.11-.672.023-.365.056-.73.099-1.094l.893.125c.879.123 1.753.284 2.627.432.76.126 1.515.273 2.27.435.884.191 1.773.382 2.656.586 1.824.423 3.64.869 5.454 1.316 1.648.405 3.297.803 4.945 1.221.774.198 1.549.394 2.323.593a292.42 292.42 0 0 1 10.014 2.836 246.917 246.917 0 0 1 10.152 3.276c.93.323 1.862.647 2.798.955.432.143.869.28 1.306.416.57.179 1.14.37 1.734.443a1.28 1.28 0 0 0 1.325-.808 1.342 1.342 0 0 0-.014-1.015c-.138-.33-.38-.529-.684-.685a4.624 4.624 0 0 0-.684-.282c-.2-.065-.404-.124-.603-.187-.4-.125-.799-.253-1.198-.381-.83-.266-1.657-.544-2.484-.82a214.963 214.963 0 0 0-5.021-1.61 288.584 288.584 0 0 0-15.776-4.36c-1.763-.43-3.53-.841-5.297-1.253Z" fill="#FFF"/><path d="M515 293.1v-15.022h4.532c1.11 0 2.097.145 2.95.436.853.275 1.525.749 2.011 1.422.505.657.758 1.552.758 2.683 0 1.086-.248 1.98-.734 2.683-.486.704-1.158 1.231-2.011 1.583-.839.336-1.802.505-2.883.505h-2.288v5.71H515Zm2.335-7.591h2.059c1.206 0 2.097-.237 2.673-.711.582-.474.872-1.2.872-2.179 0-1.01-.305-1.705-.915-2.087-.61-.382-1.52-.573-2.72-.573h-1.969v5.55Zm13.02 7.591v-11.215h1.896l.186 2.018h.067c.396-.718.872-1.276 1.42-1.674.563-.413 1.149-.62 1.759-.62.262 0 .49.024.686.07.2.03.381.084.553.16l-.415 2.019a4.683 4.683 0 0 0-.548-.138 2.979 2.979 0 0 0-.572-.046c-.457 0-.939.184-1.439.55-.505.352-.934.98-1.282 1.881v6.995h-2.311Zm10.689 0v-11.215h2.311V293.1h-2.311Zm1.168-13.325c-.396 0-.734-.13-1.006-.39a1.37 1.37 0 0 1-.415-1.009c0-.397.139-.726.415-.986.272-.26.61-.39 1.006-.39.41 0 .748.13 1.005.39.276.26.41.589.41.986 0 .398-.134.734-.41 1.01-.257.26-.596.39-1.005.39Zm9.535 13.325-3.96-11.215h2.36l1.92 6.055c.152.55.314 1.109.481 1.674.167.566.334 1.124.5 1.675h.096c.152-.55.31-1.109.476-1.675.172-.565.339-1.124.506-1.674l1.92-6.055h2.245l-3.87 11.215h-2.674Zm13.196.276c-.643 0-1.215-.13-1.715-.39a3.157 3.157 0 0 1-1.168-1.124c-.276-.49-.41-1.063-.41-1.72 0-1.208.534-2.14 1.602-2.798 1.067-.658 2.764-1.116 5.099-1.376 0-.429-.067-.834-.205-1.216a1.768 1.768 0 0 0-.663-.917c-.305-.23-.733-.344-1.281-.344a4.4 4.4 0 0 0-1.716.344c-.534.229-1.039.497-1.51.802l-.868-1.56c.381-.244.805-.473 1.277-.687.477-.23.977-.413 1.51-.55a6.355 6.355 0 0 1 1.716-.23c.915 0 1.673.191 2.264.573.61.383 1.063.925 1.353 1.629.286.703.434 1.552.434 2.545v6.743h-1.901l-.181-1.284h-.067a8.648 8.648 0 0 1-1.65 1.1 4.14 4.14 0 0 1-1.92.46Zm.71-1.835c.487 0 .944-.115 1.373-.344a6.56 6.56 0 0 0 1.325-.986v-2.776c-1.115.138-1.997.322-2.655.55-.638.23-1.105.513-1.396.85-.272.336-.41.71-.41 1.123 0 .55.167.956.505 1.216.334.244.753.367 1.258.367Zm14.135 1.835c-1.248 0-2.125-.36-2.63-1.078-.5-.734-.753-1.682-.753-2.844v-5.711h-1.625V282l1.739-.115.276-3.096h1.921v3.096h2.926v1.858h-2.926v5.734c0 .657.129 1.162.386 1.513.262.352.681.528 1.258.528.2 0 .405-.023.62-.069.228-.061.429-.13.595-.206l.41 1.72a7.679 7.679 0 0 1-1.03.275 4.953 4.953 0 0 1-1.167.138Zm11.004 0c-1.02 0-1.944-.23-2.769-.688-.805-.474-1.453-1.147-1.944-2.019-.486-.871-.73-1.926-.73-3.165 0-1.208.244-2.247.73-3.119.49-.887 1.12-1.567 1.901-2.041.777-.49 1.602-.734 2.469-.734.977 0 1.801.222 2.468.665.687.443 1.206 1.063 1.559 1.858.348.795.524 1.72.524 2.775 0 .214-.014.436-.043.665-.019.214-.038.39-.071.528h-7.73l-.024-1.606h5.857c0-.978-.215-1.735-.643-2.27-.41-.536-1.03-.803-1.85-.803-.49 0-.962.137-1.42.413-.457.275-.838.718-1.143 1.33-.291.596-.434 1.376-.434 2.34 0 .932.167 1.696.5 2.293.339.596.772 1.04 1.306 1.33.548.29 1.144.436 1.782.436.506 0 .973-.077 1.397-.23a6.123 6.123 0 0 0 1.282-.619l.8 1.468c-.52.336-1.096.62-1.74.849a5.85 5.85 0 0 1-2.034.344ZM536.174 323c-.777 0-1.54-.145-2.288-.436a7.795 7.795 0 0 1-1.92-1.124l1.096-1.49c.486.382.981.695 1.486.94.52.23 1.082.344 1.692.344.672 0 1.168-.145 1.487-.436.32-.29.481-.65.481-1.078 0-.336-.123-.619-.367-.848a3.033 3.033 0 0 0-.938-.62 16.314 16.314 0 0 0-1.163-.481 15.947 15.947 0 0 1-1.51-.688 3.913 3.913 0 0 1-1.235-1.01c-.324-.412-.481-.932-.481-1.559 0-.948.347-1.728 1.053-2.34.715-.626 1.692-.94 2.926-.94.748 0 1.425.13 2.035.39.61.26 1.139.566 1.577.918l-1.072 1.445a6.442 6.442 0 0 0-1.215-.711 2.993 2.993 0 0 0-1.278-.276c-.629 0-1.09.138-1.396.413a1.31 1.31 0 0 0-.434.986c0 .321.115.589.344.803.228.199.524.375.89.528.368.152.754.305 1.168.458.515.2 1.03.428 1.53.688.505.26.925.604 1.258 1.032.339.413.505.971.505 1.675 0 .627-.166 1.2-.505 1.72-.32.52-.79.932-1.415 1.238-.63.306-1.396.459-2.311.459Zm11.751 0c-.638 0-1.21-.13-1.715-.39a3.193 3.193 0 0 1-1.168-1.124c-.271-.489-.41-1.062-.41-1.72 0-1.208.534-2.14 1.602-2.798 1.067-.657 2.769-1.116 5.099-1.376 0-.428-.067-.833-.205-1.216a1.768 1.768 0 0 0-.662-.917c-.305-.23-.734-.344-1.282-.344a4.4 4.4 0 0 0-1.716.344c-.534.23-1.039.497-1.51.803l-.868-1.56a9.798 9.798 0 0 1 1.282-.688c.472-.23.972-.413 1.506-.55a6.406 6.406 0 0 1 1.715-.23c.915 0 1.673.191 2.269.574.61.382 1.058.925 1.349 1.628.29.703.433 1.552.433 2.546v6.743h-1.897l-.185-1.285h-.067a8.648 8.648 0 0 1-1.649 1.101 4.14 4.14 0 0 1-1.92.459Zm.71-1.835a2.86 2.86 0 0 0 1.373-.344 6.56 6.56 0 0 0 1.325-.986v-2.775c-1.11.137-1.997.32-2.655.55-.638.23-1.105.512-1.391.849a1.727 1.727 0 0 0-.415 1.124c0 .55.167.955.505 1.215.334.245.753.367 1.259.367ZM561.67 323c-.567 0-1.015-.115-1.353-.344-.334-.23-.577-.558-.73-.986-.152-.428-.228-.948-.228-1.56v-13.646h2.311v13.784c0 .306.053.527.158.665.124.122.252.183.39.183h.158c.062-.015.147-.03.252-.045l.3 1.743a2.395 2.395 0 0 1-.528.137 3.285 3.285 0 0 1-.73.069Zm10.79 0c-1.025 0-1.945-.23-2.77-.688-.81-.474-1.457-1.147-1.943-2.018-.491-.872-.734-1.927-.734-3.165 0-1.208.243-2.248.734-3.12.486-.886 1.12-1.567 1.896-2.04.777-.49 1.602-.735 2.474-.735.972 0 1.796.222 2.468.665.686.444 1.206 1.063 1.554 1.858.352.795.529 1.72.529 2.775 0 .214-.015.436-.048.665-.014.215-.038.39-.067.528h-7.734l-.02-1.606h5.853c0-.978-.21-1.735-.639-2.27-.41-.535-1.029-.803-1.853-.803-.487 0-.958.138-1.416.413-.457.275-.839.719-1.144 1.33-.29.597-.438 1.376-.438 2.34 0 .932.172 1.697.505 2.293.334.596.772 1.04 1.306 1.33.548.29 1.144.436 1.782.436.505 0 .968-.076 1.397-.23a6.207 6.207 0 0 0 1.281-.618l.801 1.467c-.52.337-1.1.62-1.74.849a5.87 5.87 0 0 1-2.034.344Z" fill="#FFF" fill-rule="nonzero"/><path d="M378.586 463.923c-1.508-3.249-3.03-6.492-4.66-9.679a115.088 115.088 0 0 0-3.068-5.554c.175-.107.349-.217.52-.33.203-.136.402-.273.595-.42.285-.22.55-.453.736-.77a1.475 1.475 0 0 0 0-1.505c-.209-.348-.583-.559-.925-.752a6.46 6.46 0 0 0-.457-.226c-.329-.152-.661-.293-.99-.44-.75-.334-1.479-.7-2.193-1.104-.57-.321-1.318-.078-1.624.498a1.21 1.21 0 0 0-.057 1.01c-.026.06-.05.123-.072.19-.092.27-.107.573-.136.856-.021.208-.038.416-.052.624-.026.403-.052.805-.093 1.205-.044.423-.086.843-.103 1.266-.021.553-.02 1.158.412 1.569.337.32.828.414 1.261.271.22-.072.397-.198.584-.326.298-.204.602-.4.908-.59l.457.795c.45.782.866 1.582 1.294 2.376.371.687.728 1.387 1.069 2.09.402.83.804 1.66 1.194 2.497a437.628 437.628 0 0 1 2.362 5.19c.707 1.572 1.421 3.143 2.117 4.723l.984 2.232a309.51 309.51 0 0 1 4.013 9.789 258.76 258.76 0 0 1 3.758 10.17c.327.945.653 1.89.995 2.834.158.434.323.868.487 1.302.216.572.422 1.145.734 1.67.294.491.9.725 1.444.567.33-.095.613-.329.775-.634.167-.315.172-.63.103-.973a4.82 4.82 0 0 0-.205-.72c-.074-.2-.153-.401-.23-.602-.15-.396-.3-.796-.447-1.197-.309-.83-.606-1.665-.905-2.495a230.078 230.078 0 0 0-1.866-5.028 304.12 304.12 0 0 0-6.405-15.35c-.76-1.685-1.538-3.357-2.314-5.03ZM81.062 291.249c3.427.456 6.858.897 10.299 1.216 2.034.189 4.075.294 6.118.366-.006.205-.009.41-.007.615.003.242.009.483.027.724.028.358.076.705.235 1.03.233.475.698.79 1.22.8.392.008.76-.195 1.097-.381.145-.08.285-.173.424-.265.296-.196.586-.402.879-.6a25.13 25.13 0 0 1 2.05-1.262c.56-.31.758-1.07.452-1.634a1.15 1.15 0 0 0-.787-.585 2.113 2.113 0 0 0-.116-.161c-.171-.222-.408-.395-.623-.57a14.769 14.769 0 0 0-.478-.376c-.312-.236-.624-.47-.927-.719-.32-.26-.638-.52-.971-.759-.437-.312-.928-.633-1.489-.487-.436.114-.772.478-.885.919-.057.225-.048.44-.043.666.009.36.006.719 0 1.078l-.886-.037c-.87-.036-1.738-.11-2.607-.172a47.829 47.829 0 0 1-2.258-.21c-.884-.102-1.769-.204-2.651-.32a408.51 408.51 0 0 1-5.451-.768c-1.646-.24-3.296-.472-4.942-.723l-2.328-.359a290.365 290.365 0 0 1-10.047-1.82 242.806 242.806 0 0 1-10.22-2.236c-.94-.228-1.878-.456-2.822-.668-.437-.098-.876-.19-1.314-.283-.575-.12-1.149-.253-1.738-.268-.554-.014-1.063.372-1.222.916-.095.33-.057.69.105.99.168.308.421.48.734.604.229.09.454.158.694.21.201.045.404.084.606.126.403.084.805.171 1.206.259.836.18 1.669.374 2.501.565 1.682.385 3.365.753 5.055 1.097a284.696 284.696 0 0 0 15.817 2.76c1.763.254 3.529.487 5.293.722Z" fill="#FFF"/><path d="M372.354 516.233V503H368v-2h11.01v2.001h-4.354v13.232h-2.302Zm10.358 0V504.86h1.872l.18 2.045h.068c.391-.727.858-1.294 1.4-1.696.556-.421 1.135-.63 1.736-.63.256 0 .482.025.677.073.196.03.376.082.542.16l-.406 2.05a4.122 4.122 0 0 0-.542-.141 2.64 2.64 0 0 0-.564-.049c-.451 0-.925.19-1.421.558-.497.358-.918.993-1.264 1.909v7.093h-2.278Zm14.925.28c-1.008 0-1.918-.232-2.73-.697-.797-.485-1.436-1.163-1.918-2.05-.48-.881-.722-1.952-.722-3.207 0-1.226.241-2.282.722-3.164.482-.9 1.106-1.589 1.873-2.068.767-.5 1.58-.747 2.437-.747.962 0 1.774.228 2.436.674.677.45 1.189 1.08 1.534 1.885.346.809.52 1.744.52 2.814 0 .219-.016.441-.046.674a3.942 3.942 0 0 1-.067.538h-7.626l-.023-1.628h5.776c0-.993-.21-1.764-.632-2.306-.406-.543-1.015-.814-1.827-.814-.482 0-.948.14-1.4.421-.45.276-.826.727-1.127 1.347-.286.606-.429 1.395-.429 2.374 0 .945.166 1.72.497 2.326.33.605.76 1.051 1.286 1.347.541.295 1.128.44 1.76.44.496 0 .954-.077 1.376-.232a6.103 6.103 0 0 0 1.263-.625l.79 1.487c-.512.34-1.083.63-1.715.863a5.645 5.645 0 0 1-2.008.349Zm11.422 0a3.576 3.576 0 0 1-1.692-.397 3.186 3.186 0 0 1-1.15-1.138c-.272-.5-.407-1.08-.407-1.744 0-1.226.526-2.171 1.58-2.84 1.052-.663 2.73-1.128 5.03-1.395 0-.431-.067-.843-.202-1.23a1.777 1.777 0 0 0-.655-.93c-.3-.233-.722-.35-1.263-.35-.587 0-1.15.117-1.692.35a9.927 9.927 0 0 0-1.49.813l-.857-1.584c.376-.247.797-.48 1.264-.698a7.872 7.872 0 0 1 1.489-.557 6.117 6.117 0 0 1 1.692-.233c.902 0 1.647.194 2.233.582.602.387 1.046.94 1.332 1.652.285.712.428 1.575.428 2.582v6.837h-1.872l-.18-1.304h-.068a8.401 8.401 0 0 1-1.625 1.12 3.995 3.995 0 0 1-1.895.465Zm.7-1.86c.48 0 .932-.116 1.353-.349.421-.232.857-.567 1.309-1.003v-2.815c-1.098.14-1.97.33-2.618.562-.631.233-1.09.519-1.376.858a1.8 1.8 0 0 0-.406 1.139c0 .562.166.969.496 1.235.331.247.745.373 1.241.373Zm13.576 1.86c-.767 0-1.52-.15-2.256-.445a7.67 7.67 0 0 1-1.896-1.139l1.083-1.511c.482.387.97.707 1.467.954a3.985 3.985 0 0 0 1.67.349c.661 0 1.15-.145 1.466-.441.316-.296.474-.659.474-1.095 0-.34-.12-.625-.361-.857a2.915 2.915 0 0 0-.925-.63 16.79 16.79 0 0 0-1.15-.49 14.684 14.684 0 0 1-1.49-.697 3.954 3.954 0 0 1-1.218-1.023c-.316-.416-.474-.944-.474-1.58 0-.963.346-1.753 1.038-2.373.707-.635 1.67-.955 2.888-.955.737 0 1.406.131 2.008.398.601.261 1.12.571 1.556.93l-1.06 1.463a6.583 6.583 0 0 0-1.196-.722 2.929 2.929 0 0 0-1.263-.276c-.617 0-1.076.14-1.377.417a1.358 1.358 0 0 0-.428 1.003c0 .324.113.596.338.814.226.198.52.377.88.533.361.155.745.31 1.15.465.512.203 1.016.436 1.512.697.497.262.91.61 1.241 1.047.331.417.497.983.497 1.696 0 .64-.166 1.22-.497 1.744-.316.528-.782.95-1.399 1.26-.616.31-1.376.465-2.278.465Zm12.223 0c-1.158 0-2.015-.387-2.572-1.162-.541-.775-.812-1.885-.812-3.329v-7.16h2.279v6.86c0 .993.15 1.705.451 2.137.301.421.775.63 1.422.63.511 0 .97-.131 1.376-.398.406-.276.835-.717 1.286-1.323v-7.907h2.279v11.372h-1.873l-.18-1.72h-.068a7.087 7.087 0 0 1-1.602 1.463c-.557.358-1.218.538-1.986.538Zm11.547-.28V504.86h1.872l.181 2.045h.068c.39-.727.857-1.294 1.398-1.696.557-.421 1.136-.63 1.738-.63.255 0 .481.025.677.073.195.03.376.082.541.16l-.406 2.05a4.122 4.122 0 0 0-.542-.141 2.64 2.64 0 0 0-.564-.049c-.45 0-.925.19-1.421.558-.496.358-.917.993-1.263 1.909v7.093h-2.28ZM458.607 521a4.02 4.02 0 0 1-.767-.068 7.394 7.394 0 0 1-.61-.165l.43-1.836c.105.03.233.063.383.092.15.049.293.068.429.068.601 0 1.09-.208 1.466-.625.376-.402.662-.916.858-1.536l.225-.765-4.377-11.304h2.324l2.053 5.882c.166.5.331 1.023.497 1.585.18.542.353 1.085.518 1.627h.09c.151-.528.294-1.065.43-1.608.15-.557.3-1.09.45-1.604l1.783-5.882H467l-4.061 12.07a10.986 10.986 0 0 1-.993 2.116c-.376.62-.835 1.1-1.376 1.44-.542.343-1.196.513-1.963.513ZM0 215.049V200h2.328v15.049H0Zm8.455 0v-11.235h1.894l.183 1.562h.069a8.837 8.837 0 0 1 1.666-1.286c.593-.368 1.27-.552 2.031-.552 1.187 0 2.055.383 2.602 1.149.548.766.822 1.86.822 3.285v7.077h-2.305v-6.778c0-.98-.152-1.677-.457-2.09-.289-.43-.768-.644-1.438-.644a2.59 2.59 0 0 0-1.415.39c-.396.26-.845.644-1.347 1.15v7.972H8.455Zm25.836 5.054c-.898 0-1.696-.115-2.396-.345-.7-.214-1.248-.543-1.644-.988-.395-.428-.593-.972-.593-1.63 0-.476.144-.927.433-1.356.29-.414.685-.781 1.187-1.103v-.092a2.95 2.95 0 0 1-.707-.735c-.198-.307-.297-.682-.297-1.126 0-.46.13-.865.388-1.218.259-.367.54-.658.845-.873v-.092c-.366-.29-.7-.696-1.005-1.217-.304-.521-.456-1.11-.456-1.77 0-.842.198-1.562.593-2.159a4.148 4.148 0 0 1 1.575-1.378 4.797 4.797 0 0 1 2.146-.483c.304 0 .593.03.867.092.29.046.54.107.753.184h3.95v1.746h-2.146c.213.23.388.528.525.896.152.352.228.743.228 1.172 0 .811-.19 1.508-.57 2.09a3.6 3.6 0 0 1-1.507 1.31c-.624.306-1.324.46-2.1.46-.259 0-.525-.031-.8-.092a5.09 5.09 0 0 1-.775-.253 2.365 2.365 0 0 0-.457.505c-.106.184-.16.414-.16.69 0 .336.137.604.411.804.274.199.761.298 1.461.298h2.055c1.323 0 2.32.222 2.99.667.684.428 1.027 1.118 1.027 2.067 0 .72-.244 1.379-.73 1.976-.472.597-1.142 1.072-2.01 1.425-.867.352-1.894.528-3.08.528Zm.343-1.54c.654 0 1.217-.091 1.689-.275.487-.184.867-.437 1.141-.758.274-.307.41-.636.41-.988 0-.475-.182-.804-.547-.988-.35-.169-.86-.253-1.53-.253h-1.711c-.259 0-.518-.015-.776-.046a9.758 9.758 0 0 1-.708-.115c-.35.245-.6.506-.753.782a1.87 1.87 0 0 0-.228.873c0 .551.266.98.799 1.286.547.322 1.285.483 2.214.483Zm-.274-8.569c.395 0 .753-.092 1.073-.276.32-.199.57-.482.753-.85.198-.367.297-.804.297-1.31 0-.505-.1-.934-.297-1.286a1.92 1.92 0 0 0-.753-.804c-.32-.2-.678-.299-1.073-.299-.594 0-1.096.207-1.507.62-.41.414-.616 1.004-.616 1.77 0 .505.091.942.274 1.31.198.367.456.65.776.85.32.183.677.275 1.073.275Zm12.465 5.33c-.64 0-1.21-.13-1.712-.39a3.167 3.167 0 0 1-1.164-1.126c-.274-.49-.411-1.065-.411-1.723 0-1.21.532-2.145 1.598-2.803 1.065-.659 2.762-1.118 5.09-1.379 0-.429-.069-.834-.206-1.217a1.757 1.757 0 0 0-.661-.92c-.305-.23-.73-.344-1.279-.344-.593 0-1.164.115-1.712.345-.532.23-1.035.497-1.506.804l-.868-1.562c.38-.246.807-.475 1.279-.69.471-.23.974-.413 1.506-.551a6.328 6.328 0 0 1 1.712-.23c.913 0 1.666.192 2.26.574.609.383 1.057.927 1.347 1.632.289.704.433 1.554.433 2.55v6.755h-1.894l-.183-1.287h-.068a8.584 8.584 0 0 1-1.644 1.103 4.12 4.12 0 0 1-1.917.46Zm.707-1.838c.487 0 .944-.115 1.37-.344.426-.23.867-.56 1.324-.988v-2.78c-1.111.138-1.994.321-2.648.551-.639.23-1.103.513-1.392.85a1.74 1.74 0 0 0-.411 1.126c0 .551.167.957.502 1.218.335.245.753.367 1.255.367Zm10.7 1.563v-11.235h1.894l.183 1.585h.068a7.36 7.36 0 0 1 1.552-1.31 3.463 3.463 0 0 1 1.895-.55c.837 0 1.499.183 1.986.55.487.368.852.874 1.095 1.517a9.22 9.22 0 0 1 1.69-1.47 3.412 3.412 0 0 1 1.94-.598c1.171 0 2.03.383 2.579 1.149.563.766.844 1.86.844 3.285v7.077h-2.305v-6.778c0-.98-.152-1.677-.457-2.09-.289-.43-.76-.644-1.415-.644-.395 0-.799.13-1.21.39-.41.246-.852.628-1.323 1.15v7.972h-2.306v-6.778c0-.98-.152-1.677-.456-2.09-.29-.43-.761-.644-1.416-.644-.76 0-1.605.513-2.533 1.54v7.972H58.23Zm26.156.275c-1.02 0-1.94-.23-2.762-.689-.807-.475-1.453-1.149-1.94-2.022-.487-.873-.73-1.93-.73-3.17 0-1.21.243-2.252.73-3.125.487-.888 1.118-1.57 1.894-2.045.776-.49 1.598-.735 2.465-.735.974 0 1.796.222 2.465.666.685.445 1.203 1.065 1.553 1.861.35.797.525 1.723.525 2.78 0 .215-.016.437-.046.667a3.76 3.76 0 0 1-.069.528h-7.715l-.022-1.608h5.843c0-.98-.213-1.739-.64-2.275-.41-.536-1.026-.804-1.848-.804-.487 0-.959.138-1.415.414-.457.275-.837.72-1.142 1.332-.289.598-.433 1.379-.433 2.344 0 .934.167 1.7.502 2.297.335.597.768 1.042 1.301 1.333a3.737 3.737 0 0 0 1.78.436c.503 0 .967-.076 1.393-.23a6.17 6.17 0 0 0 1.278-.62l.799 1.47a8.325 8.325 0 0 1-1.735.85 5.835 5.835 0 0 1-2.031.345Zm-80.899 29.4V233.49h1.895l.183 2.021h.068c.396-.72.867-1.279 1.415-1.677.563-.413 1.15-.62 1.758-.62.258 0 .487.023.685.069.197.03.38.084.547.16l-.41 2.022a4.767 4.767 0 0 0-.548-.137 2.961 2.961 0 0 0-.57-.046c-.457 0-.937.183-1.439.551-.502.352-.928.98-1.278 1.884v7.007H3.489Zm15.1.276c-1.02 0-1.94-.23-2.761-.69-.807-.474-1.454-1.148-1.94-2.021-.488-.873-.731-1.93-.731-3.17 0-1.21.243-2.252.73-3.125.487-.888 1.119-1.57 1.895-2.045.776-.49 1.598-.735 2.465-.735.974 0 1.796.222 2.465.666.685.444 1.202 1.065 1.552 1.861.35.797.525 1.723.525 2.78 0 .215-.015.437-.045.666a3.76 3.76 0 0 1-.069.529H14.96l-.023-1.608h5.844c0-.98-.213-1.739-.64-2.275-.41-.536-1.027-.804-1.848-.804-.487 0-.959.138-1.415.413-.457.276-.837.72-1.142 1.333-.289.597-.433 1.379-.433 2.343 0 .935.167 1.7.502 2.298.335.597.768 1.041 1.3 1.332a3.737 3.737 0 0 0 1.781.437 4.1 4.1 0 0 0 1.393-.23c.44-.153.867-.36 1.278-.62l.799 1.47a8.325 8.325 0 0 1-1.735.85 5.835 5.835 0 0 1-2.032.345Zm11.046-.276-3.013-11.234h2.328l1.484 6.11c.106.537.205 1.073.297 1.61.106.52.213 1.048.32 1.584h.09c.107-.536.221-1.064.343-1.585.121-.536.25-1.072.388-1.608l1.575-6.111h2.145l1.598 6.11a192.837 192.837 0 0 1 .753 3.194h.092c.106-.536.205-1.064.296-1.585.107-.536.221-1.072.343-1.608l1.46-6.111h2.17l-2.9 11.234h-2.762l-1.438-5.583c-.121-.536-.243-1.064-.365-1.585a150.49 150.49 0 0 0-.342-1.677h-.092c-.121.582-.235 1.141-.342 1.677a30.553 30.553 0 0 1-.365 1.608l-1.393 5.56h-2.67Zm20.414.276a6.229 6.229 0 0 1-2.283-.437 7.83 7.83 0 0 1-1.917-1.125l1.096-1.494a8.28 8.28 0 0 0 1.483.942c.518.23 1.08.345 1.69.345.669 0 1.164-.146 1.483-.437.32-.29.48-.65.48-1.08 0-.336-.122-.62-.366-.85a3.032 3.032 0 0 0-.936-.62c-.365-.168-.753-.33-1.164-.482a16.43 16.43 0 0 1-1.506-.69 3.981 3.981 0 0 1-1.233-1.01c-.32-.414-.48-.935-.48-1.563 0-.95.35-1.73 1.05-2.343.716-.628 1.69-.942 2.923-.942.745 0 1.422.13 2.031.39a6.74 6.74 0 0 1 1.575.92l-1.073 1.447a6.577 6.577 0 0 0-1.21-.712 2.997 2.997 0 0 0-1.278-.276c-.624 0-1.088.138-1.392.414-.29.275-.434.605-.434.987 0 .322.114.59.343.805.228.199.525.375.89.528.365.153.753.306 1.164.46a15.08 15.08 0 0 1 1.53.689c.501.26.92.605 1.255 1.034.334.413.502.972.502 1.677 0 .628-.168 1.202-.502 1.723-.32.52-.792.934-1.416 1.24-.624.307-1.392.46-2.305.46Zm9.08-.276V233.49h1.894l.183 2.021h.068c.396-.72.868-1.279 1.416-1.677.563-.413 1.148-.62 1.757-.62.259 0 .487.023.685.069.198.03.38.084.548.16l-.411 2.022a4.767 4.767 0 0 0-.548-.137 2.961 2.961 0 0 0-.57-.046c-.457 0-.936.183-1.439.551-.502.352-.928.98-1.278 1.884v7.007H59.13Zm14.3.276c-1.384 0-2.495-.513-3.332-1.54-.837-1.04-1.255-2.488-1.255-4.342 0-1.21.22-2.251.661-3.124.457-.888 1.05-1.57 1.78-2.045.731-.49 1.507-.735 2.33-.735.653 0 1.209.115 1.665.345.457.214.906.52 1.347.919l-.091-1.861v-4.182h2.305v16.29h-1.894l-.183-1.264h-.068a6.295 6.295 0 0 1-1.461 1.08 3.716 3.716 0 0 1-1.804.459Zm.548-1.93a2.82 2.82 0 0 0 1.324-.322c.426-.23.837-.582 1.233-1.056v-5.514c-.411-.383-.822-.651-1.233-.804a3.385 3.385 0 0 0-1.232-.23c-.533 0-1.012.16-1.438.482-.426.307-.769.758-1.028 1.356-.258.597-.388 1.302-.388 2.113 0 1.272.236 2.252.708 2.941.487.69 1.172 1.034 2.054 1.034Zm13.8 1.93a6.229 6.229 0 0 1-2.282-.437 7.83 7.83 0 0 1-1.918-1.125l1.096-1.494c.487.383.981.697 1.484.942.517.23 1.08.345 1.689.345.67 0 1.164-.146 1.483-.437.32-.29.48-.65.48-1.08 0-.336-.122-.62-.365-.85a3.032 3.032 0 0 0-.936-.62c-.366-.168-.754-.33-1.164-.482a16.43 16.43 0 0 1-1.507-.69 3.981 3.981 0 0 1-1.232-1.01c-.32-.414-.48-.935-.48-1.563 0-.95.35-1.73 1.05-2.343.715-.628 1.69-.942 2.922-.942.745 0 1.423.13 2.031.39a6.74 6.74 0 0 1 1.575.92l-1.073 1.447a6.577 6.577 0 0 0-1.21-.712 2.997 2.997 0 0 0-1.278-.276c-.623 0-1.088.138-1.392.414a1.317 1.317 0 0 0-.434.987c0 .322.115.59.343.805.228.199.525.375.89.528.365.153.753.306 1.164.46a15.08 15.08 0 0 1 1.53.689c.502.26.92.605 1.255 1.034.335.413.502.972.502 1.677a3.12 3.12 0 0 1-.502 1.723c-.32.52-.791.934-1.415 1.24-.624.307-1.393.46-2.306.46Z" fill="#FFF" fill-rule="nonzero"/></g></svg>