<svg width="21" height="21" xmlns="http://www.w3.org/2000/svg"><g fill="none" fill-rule="evenodd"><path d="M.078.078h20.706v20.706H.078z"/><path d="M7.197 18.63a5.399 5.399 0 0 1-5.393-5.394 5.399 5.399 0 0 1 5.393-5.393 5.399 5.399 0 0 1 5.393 5.393 5.399 5.399 0 0 1-5.393 5.393Z" stroke="#000" stroke-width="2" stroke-linecap="round" stroke-linejoin="round"/><path d="M13.666 18.63a5.399 5.399 0 0 1-5.393-5.394 5.399 5.399 0 0 1 5.393-5.393 5.399 5.399 0 0 1 5.393 5.393 5.399 5.399 0 0 1-5.393 5.393Z" stroke="#000" stroke-width="2" stroke-linecap="round" stroke-linejoin="round"/><path d="M10.44 13.02a5.399 5.399 0 0 1-5.393-5.393 5.399 5.399 0 0 1 5.393-5.393 5.399 5.399 0 0 1 5.393 5.393 5.399 5.399 0 0 1-5.393 5.393Z" stroke="#000" stroke-width="2" stroke-linecap="round" stroke-linejoin="round"/></g></svg>