<svg width="24" height="24" xmlns="http://www.w3.org/2000/svg"><g fill="none" fill-rule="evenodd"><g stroke-linecap="round" stroke-linejoin="round" stroke="#000" stroke-width="1.5"><path d="M4.5 6.91h4m-4 3.227v-4.7h0a2.007 2.007 0 0 1 2-2.009h0a2 2 0 0 1 2 2s0 0 0 0h0v4.577M11.25 10V2H16v8m1 7h1.5a2.5 2.5 0 0 0 2.5-2.5v-1.445h0a2 2 0 0 0-2-2h-2.167"/><path d="M5 10h10.833a1 1 0 0 1 1 1v6.333h0A3.667 3.667 0 0 1 13.167 21h-5.5 0A3.667 3.667 0 0 1 4 17.333V11h0a1 1 0 0 1 1-1h0Zm10.25-5.16h-1.5m1.5 2.5h-.5"/></g><path d="M0 0h24v24H0z"/></g></svg>