<svg width="21" height="21" xmlns="http://www.w3.org/2000/svg"><g fill="none" fill-rule="evenodd"><path d="M3.667 18.333v-2.588c0-.476.386-.863.862-.863h2.589m10.352 3.451v-2.588a.863.863 0 0 0-.862-.863H14.02" stroke="#000" stroke-width="2" stroke-linecap="round" stroke-linejoin="round"/><path d="M16.176 14.882v-2.157a.431.431 0 0 0-.43-.43H5.391a.431.431 0 0 0-.431.43v2.157m1.726-5.176h7.765c.238 0 .431.193.431.431v2.157H6.255v-2.157c0-.238.193-.431.431-.431Zm5.812-2.588H8.64" stroke="#000" stroke-width="2" stroke-linecap="round" stroke-linejoin="round"/><path d="m14.02 9.706-.404-.53a7.668 7.668 0 0 1-1.568-4.647H9.09a7.668 7.668 0 0 1-1.57 4.647l-.403.53m3.452-5.176V1.94M8.843 12.294v6.04m3.451-6.04v6.04" stroke="#000" stroke-width="2" stroke-linecap="round" stroke-linejoin="round"/><path d="M.216.216h20.706v20.706H.216z"/></g></svg>