<svg width="24" height="24" xmlns="http://www.w3.org/2000/svg"><g fill="none" fill-rule="evenodd"><g stroke-linecap="round" stroke-linejoin="round" stroke="#000" stroke-width="2"><path d="M8 4H5.25l-.01-.001c-1.25-.01-2.25 1-2.25 2.24-.01 0-.01 0 0 0v11.5h-.01a2.23 2.23 0 0 0 2.24 2.24v-.01h2.74m5.64.971 5.62-1.25v-.01a2.257 2.257 0 0 0 1.76-2.2V6.45c0-1.06-.74-1.97-1.77-2.2L13.585 3h0c-1.22-.27-2.42.49-2.69 1.71-.04.15-.06.32-.06.48v13.49l-.01-.01c0 1.24 1 2.24 2.24 2.24.16-.01.32-.02.48-.06l.055.09Z"/><path d="M14.09 11.9h0c.05.05.05.14-.01.19-.06.05-.15.05-.2-.01-.06-.06-.06-.15 0-.2h-.01a.13.13 0 0 1 .19-.01s0 0 0 0"/></g><path d="M0 0h24v24H0z"/></g></svg>