<svg width="50" height="49" xmlns="http://www.w3.org/2000/svg"><path d="M25.255 0C11.726 0 .756 11.248.756 25.122c0 11.097 7.02 20.513 16.756 23.835 1.226.23 1.672-.544 1.672-1.21 0-.597-.02-2.176-.033-4.274-6.814 1.52-8.252-3.366-8.252-3.366-1.114-2.902-2.72-3.675-2.72-3.675-2.225-1.559.168-1.527.168-1.527 2.459.178 3.752 2.588 3.752 2.588 2.185 3.84 5.733 2.731 7.13 2.088.223-1.624.855-2.731 1.556-3.359-5.44-.633-11.16-2.788-11.16-12.415 0-2.742.955-4.984 2.522-6.74-.252-.636-1.093-3.19.24-6.647 0 0 2.057-.677 6.737 2.574 1.954-.557 4.05-.836 6.134-.845 2.08.009 4.176.288 6.133.845 4.677-3.251 6.73-2.574 6.73-2.574 1.337 3.457.497 6.011.244 6.646 1.57 1.757 2.52 4 2.52 6.74 0 9.651-5.73 11.775-11.188 12.398.88.774 1.664 2.308 1.664 4.65 0 3.36-.03 6.069-.03 6.892 0 .671.44 1.453 1.684 1.208 9.726-3.328 16.741-12.738 16.741-23.832C49.756 11.248 38.786 0 25.255 0" fill="#FC0" fill-rule="evenodd"/></svg>