<svg width="212" height="70" xmlns="http://www.w3.org/2000/svg"><defs><linearGradient x1="49.991%" y1="0%" x2="49.991%" y2="100%" id="a"><stop stop-color="#257CB0" offset="0%"/><stop stop-color="#3C8FB3" offset="21%"/><stop stop-color="#73BDBA" offset="74%"/><stop stop-color="#89CFBD" offset="100%"/></linearGradient><linearGradient x1="-.014%" y1="50%" x2="100%" y2="50%" id="b"><stop stop-color="#52C1AD" offset="0%"/><stop stop-color="#DEE89A" offset="100%"/></linearGradient><linearGradient x1="49.993%" y1="0%" x2="49.993%" y2="100%" id="c"><stop stop-color="#EC413D" offset="0%"/><stop stop-color="#D74352" offset="19%"/><stop stop-color="#A04888" offset="74%"/><stop stop-color="#8A4A9D" offset="100%"/></linearGradient><linearGradient x1="50%" y1="0%" x2="50%" y2="100%" id="d"><stop stop-color="#F58879" offset="0%"/><stop stop-color="#FBB276" offset="62%"/><stop stop-color="#FEC874" offset="100%"/></linearGradient></defs><g transform="translate(0 .107)" fill="none"><rect fill="#000" width="211.48" height="69.177" rx="7"/><path fill="url(#a)" d="M0 .17v46.845l23.621-23.423z" transform="translate(15.865 13.148)"/><path fill="url(#b)" d="m29.964 17.304-9.535-5.508L0 0v.17l23.621 23.422z" transform="translate(15.865 13.148)"/><path fill="url(#c)" d="M0 47.015v.174l20.43-11.8 9.534-5.504-6.343-6.293z" transform="translate(15.865 13.148)"/><path fill="url(#d)" d="m29.964 17.304-6.343 6.288 6.343 6.293 10.899-6.293z" transform="translate(15.865 13.148)"/><path d="M164.585 45.899a5.896 5.896 0 0 1-2.432-.488 4.61 4.61 0 0 1-1.848-1.51h-.149c.097.751.147 1.506.15 2.263v5.602h-2.068V32.027h1.679l.285 1.865h.1a4.87 4.87 0 0 1 1.851-1.617 5.656 5.656 0 0 1 2.427-.496c1.809 0 3.202.618 4.18 1.852.98 1.235 1.477 2.968 1.493 5.198 0 2.238-.499 3.976-1.497 5.213a5.044 5.044 0 0 1-4.171 1.857Zm-.302-12.367c-1.39 0-2.398.385-3.019 1.158-.62.773-.942 1.997-.959 3.68v.459c0 1.913.32 3.283.96 4.11.636.826 1.653 1.24 3.067 1.24a3.209 3.209 0 0 0 2.77-1.43c.668-.952 1.001-2.265 1.001-3.941 0-1.676-.333-2.98-1-3.911a3.308 3.308 0 0 0-2.82-1.365Zm10.733 12.118h-2.067V26.314h2.067zm11.863 0-.414-1.938h-.087a5.681 5.681 0 0 1-2.034 1.736 6.202 6.202 0 0 1-2.526.45c-1.354 0-2.412-.346-3.176-1.041a3.804 3.804 0 0 1-1.153-2.973c0-2.756 2.205-4.198 6.615-4.325l2.274-.082v-.827c0-1.073-.23-1.862-.69-2.37-.46-.507-1.195-.764-2.204-.773a8.94 8.94 0 0 0-3.853 1.046l-.637-1.579a9.733 9.733 0 0 1 2.208-.86 9.56 9.56 0 0 1 2.406-.31c1.621 0 2.828.36 3.61 1.083.781.724 1.174 1.877 1.174 3.47v9.294h-1.513Zm-4.66-1.45a4.197 4.197 0 0 0 3.027-1.059 3.916 3.916 0 0 0 1.1-2.96v-1.24l-2.068.086c-1.654.058-2.824.31-3.548.765a2.299 2.299 0 0 0-1.087 2.105c-.044.64.204 1.266.674 1.703.54.426 1.216.64 1.902.6Zm7.389-12.173h2.212l2.98 7.77a29.08 29.08 0 0 1 1.241 3.84h.1c.107-.421.333-1.144.677-2.166.345-1.023 1.47-4.17 3.374-9.444h2.217l-5.86 15.513c-.578 1.536-1.255 2.625-2.03 3.267-.805.65-1.817.99-2.852.959-.628 0-1.253-.07-1.865-.21V49.9a7.19 7.19 0 0 0 1.53.15c1.414 0 2.424-.797 3.03-2.39l.74-1.915-5.494-13.719Zm-63.248 1.265a4.813 4.813 0 0 1 2.021 3.85c0 2.108-1.199 3.105-2.394 4.043-.372.373-.798.774-.798 1.402.03.51.306.973.74 1.24l1.026.794c1.24 1.055 2.394 2.026 2.394 3.994 0 2.676-2.592 5.375-7.492 5.375-4.135 0-6.128-1.963-6.128-4.076 0-1.026.509-2.481 2.196-3.478 1.765-1.079 4.16-1.24 5.441-1.31-.413-.513-.856-1.055-.856-1.935.01-.388.108-.768.286-1.112-.315.028-.629.057-.914.057-3.019 0-4.73-2.253-4.73-4.473a5.131 5.131 0 0 1 1.823-3.82c1.625-1.336 3.564-1.568 5.102-1.568h5.871l-1.823 1.026-1.765-.009Zm-2.026 12.657a3.982 3.982 0 0 0-.654-.034c-1.014.02-2.02.174-2.993.46-.625.227-2.452.91-2.452 2.935 0 2.026 1.989 3.465 5.02 3.465 2.732 0 4.188-1.315 4.188-3.08 0-1.443-.943-2.208-3.11-3.746Zm.827-5.417c.498-.57.753-1.312.71-2.067 0-2.068-1.24-5.243-3.588-5.243a2.67 2.67 0 0 0-1.997.939 3.308 3.308 0 0 0-.625 2.108c0 1.91 1.113 5.074 3.565 5.074a2.923 2.923 0 0 0 1.935-.81ZM108.42 45.49a6.715 6.715 0 0 1-6.943-6.715c0-3.721 3.043-6.913 7.368-6.913a6.653 6.653 0 0 1 6.802 6.714c0 3.358-2.589 6.914-7.228 6.914Zm3.555-2.303c.62-.933.919-2.042.852-3.16 0-2.505-1.191-7.285-4.722-7.285a3.957 3.957 0 0 0-2.56.972c-1.107.992-1.31 2.245-1.31 3.473 0 2.812 1.393 7.443 4.838 7.443a3.634 3.634 0 0 0 2.902-1.443ZM92.997 45.49a6.715 6.715 0 0 1-6.942-6.715c0-3.721 3.047-6.913 7.372-6.913a6.653 6.653 0 0 1 6.797 6.714c0 3.358-2.588 6.914-7.227 6.914Zm3.556-2.303a5.13 5.13 0 0 0 .856-3.16c0-2.505-1.195-7.285-4.722-7.285a3.97 3.97 0 0 0-2.564.972c-1.108.992-1.306 2.245-1.306 3.473 0 2.812 1.393 7.443 4.837 7.443a3.63 3.63 0 0 0 2.899-1.443Zm-12.669 1.856-4.093.947a30.493 30.493 0 0 1-4.718.484c-7.897 0-10.899-5.789-10.899-10.337 0-5.549 4.263-10.696 11.557-10.696a16.47 16.47 0 0 1 4.386.583c1.36.348 2.643.95 3.78 1.773l-2.378 2.258-1 .231.715-1.145c-.972-.943-2.746-2.687-6.12-2.687-4.519 0-7.926 3.431-7.926 8.438 0 5.376 3.891 10.44 10.126 10.44a8.472 8.472 0 0 0 3.635-.719v-4.602l-4.321.228 2.29-1.24h6.062l-.74.714a.678.678 0 0 0-.29.46 20.933 20.933 0 0 0-.053 1.372l-.013 3.498Z" fill="#F9F9F9"/><path d="M135.398 44.22c-.943-.087-1.141-.256-1.141-1.372V26.474c.116-1 .413-1.174 1.286-1.687h-4.073l-2.15 1.03h2.187v17.659c0 .57-.111.657-.769 1.517h5.061l1.059-.628c-.484-.058-.972-.087-1.46-.145Zm11.639.286c-.31.17-.624.368-.934.512a6.616 6.616 0 0 1-2.758.538 6.074 6.074 0 0 1-3.78-1.108c-2.013-1.423-2.894-3.862-2.894-5.996 0-4.399 3.577-6.557 6.504-6.557a5.512 5.512 0 0 1 2.928.794 4.705 4.705 0 0 1 1.984 2.811l-6.673 2.7-2.187.17c.71 3.605 3.15 5.706 5.85 5.706a7.302 7.302 0 0 0 3.465-.993l-1.505 1.423Zm-2.667-8.468c.538-.199.827-.368.827-.765 0-1.137-1.277-2.444-2.816-2.444-1.137 0-3.266.88-3.266 3.949 0 .484.058.992.087 1.505l5.168-2.245Zm5.408-3.97v1.873h-.227v-1.873h-.62v-.194h1.476v.194zm2.556 1.873v-1.893l-.58 1.893h-.177l-.583-1.893v1.893h-.207v-2.067h.356l.529 1.654.521-1.654h.36v2.067z" fill="#F9F9F9"/><path d="M69.855 19.855h-1.422a9.377 9.377 0 0 0-.414-1.654h-2.067a8.683 8.683 0 0 0-.413 1.654h-1.336c0-.116.346-1.064 1.038-2.845a22.36 22.36 0 0 0 1.038-2.94h1.678c.253.983.567 1.95.939 2.895.376.943.697 1.908.96 2.89Zm-2.067-2.51a24.316 24.316 0 0 1-.76-2.48h-.071c-.22.839-.482 1.667-.786 2.48h1.617Zm7.782 2.51h-1.096c0-.124-.407-.765-1.22-1.923-.856-1.24-1.34-2.067-1.46-2.51h-.07c.07.583.108 1.17.112 1.758 0 .733.02 1.624.062 2.675h-1.092a67.29 67.29 0 0 0 .066-3.027c0-1.1-.024-2.001-.066-2.758h1.32c0 .157.364.784 1.095 1.882a10.93 10.93 0 0 1 1.34 2.365h.07a15.968 15.968 0 0 1-.108-1.778c0-.802-.02-1.63-.062-2.481h1.108a50.665 50.665 0 0 0-.062 2.758c.013 1.128.033 2.133.062 3.039Zm6.45-3.093a3.279 3.279 0 0 1-.828 2.204 2.828 2.828 0 0 1-2.265.942c-.439 0-1.042 0-1.811-.053a81.35 81.35 0 0 0 .058-3.027c0-1.075-.021-1.997-.058-2.758h1.835c1.071 0 1.845.265 2.328.798.478.515.742 1.192.74 1.894Zm-1.212.19a2.142 2.142 0 0 0-.496-1.435 1.89 1.89 0 0 0-1.522-.583 4.962 4.962 0 0 0-.52.038c.028.595.04 1.211.04 1.856 0 .707 0 1.41.046 2.105.19.04.384.059.579.058a1.654 1.654 0 0 0 1.414-.592 2.29 2.29 0 0 0 .459-1.447Zm7.165 2.903H86.66a8.852 8.852 0 0 0-.79-1.944 1.046 1.046 0 0 0-.89-.368h-.491c0 .761.012 1.53.037 2.308h-1.24c.038-.894.058-1.902.058-3.027 0-1.075 0-1.997-.058-2.758h2.108c1.36 0 2.039.465 2.039 1.394a1.567 1.567 0 0 1-1.162 1.542v.066c.343.12.625.372.785.699.357.672.664 1.37.918 2.088ZM86.32 15.77c0-.592-.38-.885-1.137-.885a3.882 3.882 0 0 0-.736.062c.034.459.05 1.054.05 1.794h.414c.91.009 1.38-.318 1.38-.971h.03Zm8.004 1.087a3.188 3.188 0 0 1-.827 2.258 2.708 2.708 0 0 1-2.067.897 2.597 2.597 0 0 1-1.96-.827 2.894 2.894 0 0 1-.794-2.092 3.204 3.204 0 0 1 .827-2.262 2.708 2.708 0 0 1 2.067-.897 2.613 2.613 0 0 1 1.964.827c.534.564.819 1.32.79 2.096Zm-1.24.128a2.278 2.278 0 0 0-.476-1.505 1.46 1.46 0 0 0-1.17-.579 1.36 1.36 0 0 0-1.104.583 2.32 2.32 0 0 0-.45 1.468 2.298 2.298 0 0 0 .487 1.505c.279.365.712.579 1.17.579.44-.002.852-.218 1.105-.579.312-.425.471-.944.45-1.472h-.012Zm3.75 2.87h-1.24a72.48 72.48 0 0 0 .057-3.027c0-1.079 0-2.001-.057-2.758h1.24c-.039.75-.058 1.67-.058 2.758 0 1.089.02 2.098.058 3.027Zm6.438-3.093a3.279 3.279 0 0 1-.807 2.204 2.828 2.828 0 0 1-2.265.942c-.439 0-1.042 0-1.811-.053.035-.893.055-1.902.057-3.027 0-1.075-.02-1.997-.057-2.758h1.835c1.071 0 1.844.265 2.328.798.47.518.727 1.195.72 1.894Zm-1.212.19a2.142 2.142 0 0 0-.496-1.435 1.898 1.898 0 0 0-1.522-.583c-.175.004-.35.016-.525.038.033.595.046 1.211.046 1.856 0 .707 0 1.41.045 2.105.19.04.385.059.58.058a1.654 1.654 0 0 0 1.413-.592c.313-.416.475-.926.46-1.447Zm9.754 2.903h-1.422a9.576 9.576 0 0 0-.414-1.654h-2.067a8.683 8.683 0 0 0-.414 1.654h-1.331c0-.116.344-1.064 1.034-2.845.416-.954.763-1.936 1.037-2.94h1.679c.253.984.568 1.95.943 2.895.375.943.694 1.908.955 2.89Zm-2.068-2.51a24.854 24.854 0 0 1-.756-2.48h-.07c0 .115-.264.942-.79 2.48h1.616Zm7.249-1.761a1.737 1.737 0 0 1-.79 1.57 3.527 3.527 0 0 1-1.935.505h-.298c0 .558 0 1.29.05 2.204h-1.24c.04-.856.057-1.865.057-3.027 0-1.066 0-1.984-.058-2.757h2.212c.503-.018 1 .114 1.427.38.374.25.591.675.575 1.125Zm-1.146.248c0-.637-.413-.951-1.26-.951-.226 0-.45.022-.67.066.032.558.049 1.19.049 1.902h.26c1.081.005 1.621-.334 1.621-1.017Zm6.471-.248a1.732 1.732 0 0 1-.786 1.57 3.548 3.548 0 0 1-1.935.505h-.297c0 .558 0 1.29.05 2.204h-1.241c.036-.855.055-1.863.058-3.027 0-1.066-.02-1.986-.058-2.757h2.229a2.51 2.51 0 0 1 1.422.38c.367.253.578.678.558 1.125Zm-1.145.248c0-.637-.414-.951-1.261-.951a3.38 3.38 0 0 0-.666.066c.033.558.05 1.19.05 1.902h.256c1.08.005 1.62-.334 1.62-1.017Zm9.857 1.025a3.188 3.188 0 0 1-.827 2.258 2.708 2.708 0 0 1-2.068.897 2.613 2.613 0 0 1-1.963-.827 2.894 2.894 0 0 1-.79-2.092 3.188 3.188 0 0 1 .827-2.262 2.708 2.708 0 0 1 2.067-.897 2.597 2.597 0 0 1 1.96.827c.535.564.821 1.319.794 2.096Zm-1.24.128a2.278 2.278 0 0 0-.472-1.505 1.46 1.46 0 0 0-1.17-.579 1.358 1.358 0 0 0-1.104.583 2.32 2.32 0 0 0-.45 1.468 2.295 2.295 0 0 0 .475 1.505c.277.366.71.58 1.17.579.44-.003.852-.22 1.104-.583a2.33 2.33 0 0 0 .459-1.468h-.013Zm7.26 2.87h-1.117c0-.124-.413-.765-1.24-1.923-.852-1.24-1.34-2.067-1.455-2.51h-.075c.07.583.108 1.17.112 1.758 0 .733.02 1.624.062 2.675h-1.092a63.52 63.52 0 0 0 .067-3.027c0-1.079-.021-2.001-.067-2.758h1.32c0 .157.367.786 1.095 1.882.544.73.996 1.524 1.344 2.365h.066a17.03 17.03 0 0 1-.108-1.778c0-.802-.02-1.63-.062-2.481h1.113a50.664 50.664 0 0 0-.062 2.758c.037 1.128.057 2.133.099 3.039Z" fill="#F9F9FA"/></g></svg>