<svg width="212" height="308" xmlns="http://www.w3.org/2000/svg"><path d="M175.217 15.083a1.295 1.295 0 0 0-.002 1.831l15.024 15.041c.308.298.727.42 1.122.358a1.291 1.291 0 0 0 .71-2.19v-.001l-15.028-15.036a1.278 1.278 0 0 0-1.114-.363 1.29 1.29 0 0 0-.712.36m-77.22 117.822a1.276 1.276 0 0 0 1.06 1.457l95.947 13.698c.132.019.27.024.395.004a1.275 1.275 0 0 0 1.06-1.065 1.267 1.267 0 0 0-1.06-1.457L99.455 131.84a1.282 1.282 0 0 0-1.458 1.065M30.53 122.543c-.12.656.357 1.26 1.083 1.357l21.583 2.743c.137.016.28.014.412-.007.562-.089 1.024-.487 1.13-1.02.124-.653-.362-1.263-1.087-1.353l-21.579-2.744a1.587 1.587 0 0 0-.416.008c-.553.088-1.02.486-1.127 1.016m43.969 6.581c-.079.793.388 1.566 1.038 1.72l9.414 2.205c.127.026.25.032.37.013.491-.078.885-.54.942-1.186.083-.794-.382-1.562-1.033-1.715l-9.412-2.2a.93.93 0 0 0-.37-.013c-.492.077-.882.534-.949 1.176m123.809 106.31-25.825 13.013c-.642.327-.9 1.074-.585 1.687.263.49.82.74 1.365.654.128-.02.266-.064.388-.126l25.824-13.013c.64-.318.902-1.07.582-1.682a1.312 1.312 0 0 0-1.365-.655 1.45 1.45 0 0 0-.384.122m-43.437 21.187-19.672 9.274c-.657.312-.937 1.04-.611 1.625.26.472.827.71 1.38.623.136-.021.273-.068.403-.126l19.672-9.273c.66-.317.936-1.044.616-1.627-.26-.47-.827-.706-1.385-.618a1.46 1.46 0 0 0-.403.122m-46.58 24.554-33.694 18.03a1.259 1.259 0 0 0-.55 1.7 1.256 1.256 0 0 0 1.702.56l33.7-18.021c.62-.32.868-1.088.545-1.708a1.257 1.257 0 0 0-1.325-.683 1.36 1.36 0 0 0-.378.122M128.704 66.61a1.222 1.222 0 0 0 .551 1.67l33.476 16.985c.252.12.526.154.784.113.397-.063.753-.3.95-.664a1.21 1.21 0 0 0-.555-1.67l-33.472-16.99a1.308 1.308 0 0 0-.784-.117 1.3 1.3 0 0 0-.95.673M4.359 4.265c-.341.618-.088 1.373.563 1.686l18.887 9.724c.26.125.538.16.804.117.406-.064.778-.307.978-.68.345-.623.091-1.378-.563-1.686L6.15 3.697a1.373 1.373 0 0 0-.813-.116 1.343 1.343 0 0 0-.977.684m34.235 17.468a1.243 1.243 0 0 0 .55 1.684l62.358 30.516a1.278 1.278 0 0 0 1.713-.555 1.24 1.24 0 0 0-.546-1.685L40.313 21.182a1.288 1.288 0 0 0-1.718.551m4.36 189.59c-.692.11-1.094 1.233-.89 2.522.204 1.29.935 2.241 1.627 2.132l58.902-9.338c.697-.11 1.1-1.233.895-2.522-.204-1.29-.934-2.233-1.63-2.123l-58.904 9.33ZM187.99 66.626a1.31 1.31 0 0 0 .286 1.813l20.77 15.068c.284.212.632.284.96.232.328-.052.628-.226.837-.517a1.307 1.307 0 0 0-.288-1.817l-20.764-15.064a1.279 1.279 0 0 0-.961-.237 1.286 1.286 0 0 0-.84.522m-27.854-19.423a1.368 1.368 0 0 0 .303 1.914l8.727 6.34c.307.224.676.299 1.02.244a1.368 1.368 0 0 0 .587-2.46h-.001l-8.723-6.34a1.387 1.387 0 0 0-1.02-.244 1.38 1.38 0 0 0-.893.546m-19.437-14.118a1.292 1.292 0 0 0 .285 1.796l2.452 1.785a1.294 1.294 0 0 0 1.793-.284 1.293 1.293 0 0 0-.28-1.802l-2.452-1.78a1.296 1.296 0 0 0-.958-.228c-.327.051-.63.229-.84.513m22.528 83.514c-.222.616.128 1.276.788 1.464l14.29 3.957c.201.054.396.068.593.037.448-.071.85-.375 1.006-.806.22-.62-.132-1.271-.793-1.467l-14.295-3.957a1.347 1.347 0 0 0-.578-.035c-.453.072-.856.372-1.01.807m-32.291-11.097c-.215.622.138 1.282.797 1.482l9.35 2.8c.193.06.391.073.583.043a1.27 1.27 0 0 0 1-.812c.219-.627-.135-1.29-.784-1.484l-9.355-2.803a1.303 1.303 0 0 0-.582-.04c-.45.072-.852.374-1.01.814m-24.206-8.379c-.224.804.192 1.672.922 1.951l3.112 1.167c.219.082.438.1.644.068.496-.078.925-.461 1.085-1.02.22-.798-.182-1.668-.916-1.941l-3.123-1.176a1.275 1.275 0 0 0-.638-.064c-.496.079-.93.457-1.087 1.015M41.782 78.672c-.21.687.16 1.427.83 1.65l41.408 12.73c.198.07.404.083.595.053.46-.073.855-.405 1.01-.89.215-.688-.156-1.429-.826-1.651L43.39 77.837a1.225 1.225 0 0 0-.594-.052 1.28 1.28 0 0 0-1.015.887m-22.21-7.808c-.223.804.188 1.672.918 1.946l3.112 1.167c.224.082.443.1.649.068.496-.079.925-.456 1.086-1.02.219-.798-.192-1.667-.922-1.94l-3.116-1.167a1.25 1.25 0 0 0-.645-.073c-.497.078-.925.46-1.082 1.02m93.899 99.789c-.008.665.551 1.206 1.252 1.2l40.335-.24c.07-.004.139-.01.199-.02.603-.095 1.063-.596 1.072-1.202 0-.667-.558-1.2-1.25-1.195l-40.34.24c-.07.004-.138.01-.203.02-.599.095-1.063.597-1.064 1.197M.42 167.641a.937.937 0 0 0 .012.19l.002.01a1.293 1.293 0 0 0 1.258 1.09l75.911 1.588c.066-.002.136-.004.2-.014a1.278 1.278 0 0 0 1.066-1.271c-.007-.712-.575-1.29-1.272-1.29l-75.91-1.584a1.27 1.27 0 0 0-1.267 1.28m95.664 1.666c.058 1.085.692 2.016 1.43 2.086l3.116.247c.075.01.137 0 .208-.012.625-.099 1.062-.868 1.01-1.856-.055-1.092-.692-2.016-1.428-2.073l-3.117-.254a.766.766 0 0 0-.213.006c-.62.099-1.061.875-1.006 1.856m44.126 59.066-9.347 3.308c-.657.226-.995 1.034-.764 1.802.21.696.816 1.117 1.407 1.023a.898.898 0 0 0 .196-.051l9.345-3.298c.651-.235.998-1.04.768-1.808-.21-.691-.817-1.116-1.416-1.022a1.24 1.24 0 0 0-.189.046m-28.96 10.313-20.198 6.31a1.303 1.303 0 0 0-.849 1.634c.202.61.823.966 1.445.867a1.06 1.06 0 0 0 .203-.045l20.198-6.31a1.285 1.285 0 0 0 .845-1.625 1.31 1.31 0 0 0-1.446-.88c-.063.01-.133.026-.198.05m57.587 46.321-8.026 5.56c-.567.386-.698 1.13-.3 1.656.285.37.76.533 1.206.462.187-.03.377-.1.546-.218l8.031-5.552c.558-.389.69-1.13.287-1.658-.28-.367-.756-.534-1.21-.462-.188.03-.369.1-.534.212m-26.028 17.517-2.605 2.08c-.608.485-.735 1.44-.276 2.131.327.488.852.715 1.348.636a1.23 1.23 0 0 0 .586-.263l2.605-2.074c.614-.482.736-1.436.27-2.137-.32-.483-.845-.71-1.341-.632a1.272 1.272 0 0 0-.587.259" fill="#FFC428" fill-rule="evenodd"/></svg>