<svg width="252" height="302" xmlns="http://www.w3.org/2000/svg"><path d="M18.299 201.966a1.272 1.272 0 0 0 .604 1.687l33.494 15.776c.128.06.254.098.383.114a1.266 1.266 0 0 0 1.298-.73 1.29 1.29 0 0 0-.607-1.7l-33.494-15.776a1.257 1.257 0 0 0-1.678.63m50.203 24.141c-.304.592-.003 1.304.668 1.602l19.987 8.579c.132.053.27.095.407.112.56.069 1.115-.19 1.358-.67.3-.598.004-1.313-.667-1.603l-19.988-8.579a1.467 1.467 0 0 0-.407-.112c-.555-.068-1.114.187-1.358.67m47.596 22.13c-.306.702-.048 1.536.587 1.858l22.64 11.33c.124.054.254.104.38.12.53.064 1.07-.254 1.315-.827.306-.702.036-1.538-.592-1.859l-22.639-11.33a1.21 1.21 0 0 0-.376-.114c-.535-.066-1.074.248-1.315.822m43.998 20.507a1.282 1.282 0 0 0 .612 1.703l69.63 30.64c.124.06.252.097.381.113a1.272 1.272 0 0 0 1.307-.734c.047-.096.077-.2.098-.299l.02-.17a1.279 1.279 0 0 0-.73-1.238l-69.634-30.644a1.269 1.269 0 0 0-1.684.63M134.732 97.707l-85.935 17.254a1.287 1.287 0 0 0-1.014 1.498 1.274 1.274 0 0 0 1.497 1.007l85.947-17.252a1.276 1.276 0 0 0 1-1.496 1.266 1.266 0 0 0-1.092-1.023 1.257 1.257 0 0 0-.403.012M249.67 73.846l-85.085 18.297a1.282 1.282 0 0 0-1.025 1.504 1.29 1.29 0 0 0 1.516 1.016l85.089-18.296a1.277 1.277 0 0 0 1.012-1.505 1.28 1.28 0 0 0-1.103-1.029 1.396 1.396 0 0 0-.404.013M148.779 174.847c-.16 1.296.286 2.405.991 2.492l77.871 9.56c.71.088 1.41-.88 1.57-2.176.158-1.296-.287-2.404-.997-2.491l-77.87-9.57c-.705-.086-1.406.89-1.565 2.185M37.073 63.112 1.007 83.652a1.292 1.292 0 0 0-.496 1.731c.202.373.558.597.949.645.253.031.52-.015.758-.149l36.067-20.54a1.29 1.29 0 0 0 .497-1.735 1.267 1.267 0 0 0-.95-.641 1.242 1.242 0 0 0-.759.15m31.392-16.077L55.88 54.258c-.609.35-.829 1.145-.495 1.778.2.373.561.607.95.655.254.03.523-.018.768-.155l12.577-7.218c.613-.35.837-1.144.504-1.781a1.279 1.279 0 0 0-.954-.655 1.233 1.233 0 0 0-.764.154M138.671 8.19 82.39 39.507a1.292 1.292 0 0 0-.504 1.753c.211.373.586.602.986.651.268.033.54-.01.792-.148l56.278-31.321a1.272 1.272 0 0 0 .504-1.753 1.305 1.305 0 0 0-.982-.651 1.308 1.308 0 0 0-.792.152M25.72 234.945a1.236 1.236 0 0 0 .34 1.73l21.337 14.35c.17.112.357.179.55.202a1.26 1.26 0 0 0 1.193-.536 1.245 1.245 0 0 0-.344-1.736L27.457 234.61a1.227 1.227 0 0 0-.549-.205 1.242 1.242 0 0 0-1.188.54m52.556 35.846c-.383.539-.226 1.278.353 1.648l8.214 5.268c.174.107.36.175.548.198.453.056.923-.128 1.19-.504.383-.542.226-1.274-.35-1.639l-8.217-5.277a1.27 1.27 0 0 0-.544-.198 1.276 1.276 0 0 0-1.194.504m5.024-72.843c-.196.777.14 1.564.743 1.769l8.718 2.88a.803.803 0 0 0 .179.042c.556.068 1.107-.378 1.278-1.083.203-.776-.132-1.568-.745-1.764l-8.716-2.89a1.079 1.079 0 0 0-.176-.036c-.552-.068-1.104.383-1.282 1.082m29.301 8.799c-.244 1.066.117 2.137.8 2.393l2.93 1.097c.07.022.136.037.202.045.624.077 1.261-.548 1.483-1.513.243-1.051-.118-2.13-.8-2.392l-2.926-1.09c-.065-.021-.13-.043-.197-.051-.632-.078-1.27.553-1.492 1.511m81.3-79.034-71.566 8.463c-.702.029-1.26.648-1.24 1.385.025.663.504 1.192 1.113 1.267.07.009.135.017.207.012l71.562-8.463c.706-.034 1.26-.654 1.24-1.39-.021-.658-.495-1.192-1.113-1.267a1.002 1.002 0 0 0-.202-.007M87.396 72.037 23.542 94.871c-.66.236-.999.968-.764 1.625a1.273 1.273 0 0 0 1.623.757L88.268 74.42c.652-.245.99-.968.751-1.625a1.264 1.264 0 0 0-1.037-.826 1.223 1.223 0 0 0-.586.068m24.594-8.348-3.075 1.284c-.718.3-1.103 1.182-.847 1.972.18.553.62.92 1.119.982.206.025.424-.001.64-.091l3.07-1.28c.723-.299 1.103-1.187.852-1.977-.18-.553-.626-.916-1.124-.977a1.271 1.271 0 0 0-.635.087M55.779 16.203l-8.503 6.641a1.376 1.376 0 0 0-.236 1.923c.234.3.563.472.913.515a1.35 1.35 0 0 0 1.006-.279l8.507-6.64a1.376 1.376 0 0 0 .236-1.924 1.388 1.388 0 0 0-.913-.515 1.388 1.388 0 0 0-1.01.279M75.762 1.544l-2.387 1.864a1.29 1.29 0 0 0-.222 1.81c.215.276.524.438.858.48.328.04.663-.044.943-.259l2.387-1.869c.561-.438.66-1.24.222-1.805a1.292 1.292 0 0 0-.853-.483 1.295 1.295 0 0 0-.948.262" fill="#FFC428" fill-rule="evenodd"/></svg>