<svg width="45" height="44" xmlns="http://www.w3.org/2000/svg"><path d="M38.41 39H6.102c-.743 0-1.346-.588-1.346-1.313V18h5.385c-.702.984-.939 2.82-.939 3.986 0 7.028 5.88 12.747 13.104 12.747 7.226 0 13.105-5.718 13.105-12.747 0-1.165-.17-2.974-1.04-3.986h5.385v19.688c0 .724-.603 1.312-1.346 1.312M22.755 14a8 8 0 1 1 .001 16 8 8 0 0 1 0-16m10.2-7h3.6a1.2 1.2 0 0 1 1.2 1.2v3.6a1.2 1.2 0 0 1-1.2 1.2h-3.6a1.2 1.2 0 0 1-1.2-1.2V8.2a1.2 1.2 0 0 1 1.2-1.2m6.57-7H5.986a5.224 5.224 0 0 0-5.23 5.218v33.564A5.224 5.224 0 0 0 5.986 44h33.54a5.224 5.224 0 0 0 5.23-5.218V5.218A5.224 5.224 0 0 0 39.526 0" fill="#FC0" fill-rule="evenodd"/></svg>