<svg width="152" height="72" xmlns="http://www.w3.org/2000/svg"><defs><linearGradient x1="50%" y1="104.307%" x2="50%" y2="0%" id="a"><stop stop-color="#D9AC4C" offset="0%"/><stop stop-color="#BA843A" offset="30.858%"/><stop stop-color="#F0D46D" offset="50.954%"/><stop stop-color="#CAA64B" offset="80.269%"/><stop stop-color="#D9AC4C" offset="100%"/></linearGradient></defs><path d="M0 24.921C0 11.157 11.129 0 24.859 0c13.73 0 24.858 11.157 24.858 24.921s-11.129 24.92-24.858 24.92C11.129 49.841 0 38.685 0 24.921Zm29.247-11.78H20.47L11.896 36.7h7.72l.992-3.323h8.231l.99 3.323h7.992l-8.574-23.56Zm-4.438 6.577 2.46 8.387h-5.09l2.492-8.387h.138Zm26.334 5.203C51.143 11.157 62.272 0 76.002 0 89.73 0 100.86 11.157 100.86 24.921s-11.13 24.92-24.858 24.92c-13.73 0-24.86-11.156-24.86-24.92Zm13.604-11.78V36.7h10.177c8.028 0 12.332-3.732 12.332-11.78 0-8.046-4.304-11.78-12.332-11.78H64.747Zm10.042 5.65c3.311 0 4.747 1.883 4.747 5.103v2.054c0 3.22-1.436 5.103-4.747 5.103h-2.495V18.79h2.495Zm27.494 6.13C102.283 11.157 113.412 0 127.142 0 140.87 0 152 11.157 152 24.921s-11.129 24.92-24.858 24.92c-13.73 0-24.86-11.156-24.86-24.92Zm37.549-11.78h-7.72l-4.748 15.752h-.138l-4.71-15.752h-8.065l8.337 23.56h8.742l8.302-23.56ZM14.682 72h3.83v-3.603h-3.83V72Zm23.473 0v-2.988h-6.881v-1.9h5.778v-2.864h-5.778v-1.72h6.756V59.54H27.28V72h10.875Zm20.82-12.46h-4.463l-1.896 3.186h-.073l-1.879-3.187H45.84l4.012 5.87L45.407 72h4.48l2.295-3.874h.073L54.549 72h4.842l-4.443-6.575 4.028-5.886Zm8.102 0V72h3.992v-4.02h2.981c2.347 0 3.973-1.758 3.973-4.11v-.237c0-2.356-1.626-4.094-3.973-4.094h-6.973Zm5.636 2.953c.866 0 1.264.47 1.264 1.213v.143c0 .743-.415 1.215-1.264 1.215h-1.644v-2.571h1.644ZM97.343 72v-2.988H90.46v-1.9h5.782v-2.864H90.46v-1.72h6.759V59.54H86.467V72h10.876Zm20.315-8.639c0-2.029-1.428-3.822-4.191-3.822h-7.607V72h3.993v-4.545h1.48L113.537 72h4.482l-2.764-5.216c1.606-.597 2.403-1.974 2.403-3.423Zm-4.065.164c0 .667-.506 1.157-1.12 1.157h-2.62v-2.3h2.62c.614 0 1.12.472 1.12 1.143Zm23.729-3.986H125.18v3.187h4.083V72h3.993v-9.274h4.066V59.54Z" fill="url(#a)" fill-rule="evenodd"/></svg>