<svg width="21" height="21" xmlns="http://www.w3.org/2000/svg"><g fill="none" fill-rule="evenodd"><g stroke-linecap="round" stroke-linejoin="round" stroke="#000" stroke-width="2"><path d="M18.196 10.431h0a7.765 7.765 0 1 1-7.765-7.764m6.903.863-2.59 2.588m-.861-3.451-.863.863m5.176 3.45-.862.863"/><path d="m11.369 6.486.713 2.295 2.295.713h0a.525.525 0 0 1 .147.93l-1.962 1.387.03 2.403h0a.525.525 0 0 1-.838.427L9.83 13.203l-2.276.772h0a.525.525 0 0 1-.665-.665l.771-2.276-1.437-1.926h0a.525.525 0 0 1 .427-.838l2.403.03 1.387-1.96h0a.525.525 0 0 1 .929.147h0Z"/></g><path d="M.078.078h20.706v20.706H.078z"/></g></svg>