<svg width="22" height="21" xmlns="http://www.w3.org/2000/svg"><g transform="translate(.216 .078)" fill="none" fill-rule="evenodd"><circle stroke="#000" stroke-width="2" stroke-linecap="round" stroke-linejoin="round" cx="10.353" cy="12.51" r="5.608"/><path stroke="#000" stroke-width="2" stroke-linecap="round" stroke-linejoin="round" d="m18.118 9.059.862-.863m-.862 7.765.862.863m0-4.314h.863M2.588 15.961l-.863.863m.863-7.765-.863-.863m0 4.314H.863m8.492-5.514 2.827-4.04a.863.863 0 0 1 .707-.368h3.07a.863.863 0 0 1 .707 1.358l-2.89 4.129"/><path d="m10.353 5.57-1.83-2.614a.863.863 0 0 0-.706-.368h-3.07a.863.863 0 0 0-.707 1.358l2.89 4.129" stroke="#000" stroke-width="2" stroke-linecap="round" stroke-linejoin="round"/><path d="M0 0h20.706v20.706H0z"/></g></svg>