<svg width="63" height="47" xmlns="http://www.w3.org/2000/svg"><path d="M41.205 32.875c-2.973 0-5.415-2.678-5.415-5.946s2.389-5.947 5.415-5.947c3.025 0 5.414 2.679 5.414 5.947 0 3.268-2.389 5.946-5.414 5.946m-19.375 0c-2.973 0-5.415-2.678-5.415-5.946s2.389-5.947 5.415-5.947c3.025 0 5.467 2.679 5.414 5.947 0 3.268-2.389 5.946-5.414 5.946m33.282-26.25C47.468.84 40.196 1 40.196 1l-.743.858C48.477 4.643 52.67 8.66 52.67 8.66 40.061 1.687 25.25 1.686 13.018 7.108c-1.964.91-3.132 1.553-3.132 1.553s4.406-4.232 13.96-7.017L23.317 1S16.044.84 8.4 6.626c0 0-7.644 13.981-7.644 31.231 0 0 4.459 7.768 16.19 8.143 0 0 1.964-2.41 3.557-4.446-6.742-2.036-9.29-6.322-9.29-6.322.781.552 2.069 1.267 2.177 1.34 8.96 5.063 21.686 6.722 33.123 1.874 1.858-.696 3.928-1.714 6.104-3.16 0 0-2.654 4.393-9.607 6.375A228.81 228.81 0 0 0 46.513 46c11.731-.375 16.243-8.143 16.243-8.143 0-17.25-7.644-31.231-7.644-31.231" fill="#FC0" fill-rule="evenodd"/></svg>