<svg width="24" height="24" xmlns="http://www.w3.org/2000/svg"><g fill="none" fill-rule="evenodd"><path d="M0 0h24v24H0z"/><path d="M13.268 8.83a2.5 2.5 0 1 1-3.536 3.536 2.5 2.5 0 0 1 3.536-3.536" stroke="#000" stroke-width="2" stroke-linecap="round" stroke-linejoin="round"/><path d="M21 13.982V6.098a2 2 0 0 0-2-2H4a2 2 0 0 0-2 2v9a2 2 0 0 0 2 2h8.261M5 14.1h2m9-7h2" stroke="#000" stroke-width="2" stroke-linecap="round" stroke-linejoin="round"/><path d="M15.374 14.959a3.474 3.474 0 0 0 .105 6.948 3.47 3.47 0 0 0 3.146-2.016" stroke="#000" stroke-width="2" stroke-linecap="round" stroke-linejoin="round"/><path d="M18.521 19.902a3.48 3.48 0 1 1 .001-6.959 3.48 3.48 0 0 1-.001 6.959" stroke="#000" stroke-width="2" stroke-linecap="round" stroke-linejoin="round"/></g></svg>