<svg width="597" height="597" xmlns="http://www.w3.org/2000/svg"><defs><filter x="-50.5%" y="-50.5%" width="201%" height="201%" filterUnits="objectBoundingBox" id="a"><feGaussianBlur stdDeviation="50" in="SourceGraphic"/></filter></defs><g transform="translate(16 48)" fill="none" fill-rule="evenodd"><circle fill="#FFF" opacity=".266" filter="url(#a)" cx="282.5" cy="250.5" r="148.5"/><path d="M193.453 117.215a1.129 1.129 0 0 0-.242 1.562l34.792 51.758c.216.3.554.465.895.465.224 0 .452-.073.645-.22a1.13 1.13 0 0 0 .247-1.565L195 117.462a1.095 1.095 0 0 0-1.548-.247m-19.991-30.993c-.501.384-.609 1.116-.249 1.646l10.767 15.651c.222.311.563.481.907.481.226 0 .456-.077.651-.222.502-.384.613-1.12.249-1.646l-10.77-15.647a1.084 1.084 0 0 0-.9-.485c-.23 0-.456.073-.655.222m-40.987-52.006a1.11 1.11 0 0 0-.255 1.571l24.718 31.75a1.154 1.154 0 0 0 1.591.251c.513-.367.623-1.07.255-1.572L134.06 34.463a1.139 1.139 0 0 0-.921-.463c-.231 0-.466.07-.666.216m222.999 305.997a1.116 1.116 0 0 0-.255 1.572l19.715 26.75c.224.302.57.465.923.465a1.124 1.124 0 0 0 .926-1.793l-19.715-26.746a1.142 1.142 0 0 0-.922-.461c-.232 0-.468.07-.672.213m29.985 40.009a1.227 1.227 0 0 0-.245 1.645l10.773 15.648c.218.315.555.485.9.485.226 0 .46-.073.655-.226a1.219 1.219 0 0 0 .249-1.641l-10.774-15.648a1.102 1.102 0 0 0-.903-.485c-.226 0-.456.073-.655.222m26.973 36.005c-.466.381-.57 1.12-.23 1.646l4.912 7.64c.2.317.524.487.847.487a.973.973 0 0 0 .61-.227c.467-.381.571-1.12.23-1.646l-4.91-7.636c-.205-.32-.521-.491-.845-.491a.946.946 0 0 0-.613.227M90.054 178.769a1.104 1.104 0 0 0 .723 1.393l81.753 24.78c.112.035.231.058.344.058.479 0 .915-.3 1.07-.769a1.096 1.096 0 0 0-.723-1.393l-81.749-24.785a1.13 1.13 0 0 0-1.418.716m-57.001-18.086c-.187.52.133 1.073.729 1.246l17.734 5.023c.113.031.234.048.347.048.483 0 .923-.265 1.083-.686.19-.516-.137-1.077-.733-1.243l-17.73-5.023a1.383 1.383 0 0 0-.35-.048c-.476 0-.92.265-1.08.683m35.999 12.086c-.18.584.121 1.218.668 1.41l7.918 2.767c.107.035.214.054.322.054.44 0 .847-.3.987-.776.182-.584-.118-1.215-.666-1.407l-7.917-2.763a.943.943 0 0 0-.322-.054c-.44 0-.844.296-.99.769m330.003 105.987c-.19.566.129 1.177.705 1.36l30.79 9.828a1.105 1.105 0 0 0 1.395-.693c.19-.57-.129-1.177-.709-1.37l-30.79-9.829a1.205 1.205 0 0 0-.341-.052c-.47 0-.902.294-1.05.756m47.001 15.93c-.195.516.133 1.07.729 1.246l17.73 5.017c.117.03.238.051.355.051.48 0 .92-.268 1.075-.686.191-.52-.132-1.076-.728-1.246l-17.73-5.017a1.279 1.279 0 0 0-.355-.051c-.476 0-.92.265-1.076.686m43 13.177c-.19.65.12 1.354.705 1.568l20.792 7.505c.114.034.232.064.342.064.466 0 .899-.337 1.05-.867.19-.65-.132-1.354-.709-1.568l-20.792-7.505a1.042 1.042 0 0 0-.338-.06c-.47 0-.903.333-1.05.863m-326.585-26.81-24.662 7.794c-.614.197-.947.814-.754 1.393.164.465.622.76 1.115.76.116 0 .245-.019.361-.057l24.663-7.794c.61-.19.947-.81.75-1.389-.165-.461-.618-.76-1.116-.76-.116 0-.236.019-.357.053m-39.959 12.995-17.728 5.02c-.592.17-.923.726-.728 1.246.156.418.6.686 1.075.686.117 0 .238-.02.355-.05l17.727-5.02c.596-.174.923-.731.733-1.247-.156-.418-.6-.683-1.08-.683-.116 0-.237.014-.354.048M78.54 309.053l-31.77 10.81a1.081 1.081 0 0 0-.713 1.373 1.107 1.107 0 0 0 1.403.708l31.774-10.803c.582-.188.904-.809.709-1.38a1.104 1.104 0 0 0-1.058-.761c-.115 0-.23.019-.345.053m410.999-133.998-72.765 24.712a1.158 1.158 0 0 0-.72 1.443c.153.483.59.79 1.06.79.12 0 .23-.02.345-.059l72.777-24.712c.578-.197.9-.837.709-1.439a1.11 1.11 0 0 0-1.058-.79c-.115 0-.233.016-.348.055M221.934 326.466l-28.716 40.739a1.129 1.129 0 0 0 .25 1.581 1.162 1.162 0 0 0 1.6-.253l28.716-40.734a1.134 1.134 0 0 0-.255-1.585 1.149 1.149 0 0 0-1.595.253m-37.955 54.018-10.767 15.648c-.36.525-.252 1.257.25 1.64.198.154.424.227.654.227.345 0 .681-.17.9-.485l10.77-15.648a1.217 1.217 0 0 0-.249-1.645 1.08 1.08 0 0 0-.655-.222c-.344 0-.681.166-.903.485m-27.868 36.005-4.91 7.637c-.338.527-.241 1.265.23 1.646a.97.97 0 0 0 .613.227c.32 0 .639-.17.844-.487l4.914-7.64c.337-.527.233-1.265-.233-1.646a.96.96 0 0 0-.614-.227 1 1 0 0 0-.844.49M389.982 96.485l-10.77 15.652c-.36.525-.252 1.26.246 1.64.195.154.425.223.655.223.344 0 .685-.166.9-.481l10.773-15.647c.364-.526.252-1.266-.245-1.646a1.06 1.06 0 0 0-.655-.226c-.345 0-.682.17-.904.485m27.127-37.998-4.907 7.64c-.341.527-.24 1.265.23 1.65a.96.96 0 0 0 .61.223c.326 0 .642-.17.847-.483l4.91-7.644c.341-.523.237-1.26-.23-1.646a.96.96 0 0 0-.613-.227c-.323 0-.643.17-.847.487M283.426 317.13l.82 79.744c0 .623.52 1.126 1.16 1.126.644 0 1.168-.503 1.168-1.126l-.816-79.744c0-.623-.524-1.13-1.168-1.13-.644 0-1.164.507-1.164 1.13m.408 96.012v18.72c0 .63.52 1.138 1.164 1.138.64 0 1.168-.509 1.168-1.138v-18.72c0-.63-.528-1.142-1.168-1.142-.64 0-1.164.512-1.164 1.142m.08-327.014-.16 77.748c0 .62.524 1.124 1.168 1.124.644 0 1.164-.504 1.164-1.124l.16-77.748c0-.624-.528-1.128-1.168-1.128-.64 0-1.164.504-1.164 1.128m-.08-34.993v18.73c0 .63.52 1.135 1.16 1.135.644 0 1.168-.505 1.168-1.135l.004-18.73c0-.626-.528-1.135-1.168-1.135-.64 0-1.164.509-1.164 1.135M284.994 15c-.64 0-1.16.495-1.16 1.1v8.8c0 .612.52 1.1 1.164 1.1.64 0 1.168-.488 1.168-1.1l-.004-8.8c0-.609-.524-1.1-1.168-1.1Zm-46.198 85.055a1.14 1.14 0 0 0-.74 1.434l13.693 44.722c.158.48.614.789 1.097.789.123 0 .234-.023.356-.063.606-.187.939-.832.74-1.43L240.25 100.79a1.145 1.145 0 0 0-1.093-.789 1.17 1.17 0 0 0-.36.055m-8.042-26.996c-.573.198-.888.864-.7 1.477l3.818 12.652c.15.496.577.811 1.038.811.11 0 .225-.02.338-.056.57-.202.884-.864.697-1.48l-3.82-12.653c-.15-.496-.576-.811-1.034-.811a.993.993 0 0 0-.337.06m87.028 257.999a1.134 1.134 0 0 0-.727 1.433l11.727 47.717c.157.482.606.791 1.078.791.118 0 .243-.023.356-.063.594-.188.922-.834.727-1.429l-11.727-47.72a1.127 1.127 0 0 0-1.434-.728m16.972 65c-.573.202-.888.86-.7 1.477l3.817 12.656c.15.496.577.807 1.038.807.112 0 .224-.02.337-.056.573-.194.884-.868.7-1.48l-3.821-12.653c-.15-.492-.573-.811-1.03-.811-.113 0-.229.02-.341.06m-167.54-239.607a1.1 1.1 0 0 0 .248 1.552l55.744 36.786a1.148 1.148 0 0 0 1.578-.247 1.093 1.093 0 0 0-.256-1.549l-55.74-36.786a1.148 1.148 0 0 0-1.574.243m-41-30.988a1.112 1.112 0 0 0 .248 1.559l26.738 19.766a1.155 1.155 0 0 0 1.582-.245 1.101 1.101 0 0 0-.253-1.559l-26.734-19.77a1.135 1.135 0 0 0-1.582.249M27.22 54.45c-.373.481-.26 1.159.25 1.512l14.72 10.83c.204.141.435.208.667.208.352 0 .701-.156.92-.447a1.039 1.039 0 0 0-.25-1.512L28.815 54.21a1.176 1.176 0 0 0-.675-.21c-.353 0-.698.156-.922.45m25.994 20.001c-.36.489-.25 1.173.246 1.527l49.769 34.811a1.12 1.12 0 0 0 1.558-.244 1.08 1.08 0 0 0-.242-1.527L54.774 74.211a1.13 1.13 0 0 0-1.562.24m331.011 240.017c-.379.5-.263 1.208.256 1.576l16.681 11.743c.2.143.44.213.679.213.36 0 .71-.159.934-.468a1.092 1.092 0 0 0-.251-1.568l-16.677-11.747a1.179 1.179 0 0 0-.683-.217c-.36 0-.715.163-.939.468m109 77c-.379.5-.263 1.208.256 1.576l16.676 11.743c.204.14.444.213.683.213.36 0 .71-.159.939-.464a1.1 1.1 0 0 0-.256-1.572l-16.68-11.747a1.158 1.158 0 0 0-.68-.217c-.359 0-.714.163-.938.468m-60.014-41.004a1.145 1.145 0 0 0 .24 1.568l28.818 20.756a1.079 1.079 0 0 0 1.523-.243 1.147 1.147 0 0 0-.24-1.573l-28.815-20.756a1.062 1.062 0 0 0-.641-.216c-.338 0-.671.162-.885.464M32.106 239.838c-.608 0-1.106.516-1.106 1.16 0 .644.498 1.164 1.106 1.164l51.784-.004c.612 0 1.11-.516 1.11-1.16 0-.644-.498-1.16-1.11-1.16H32.106Zm136.11 87.376L67.463 392.982a1.109 1.109 0 0 0-.247 1.559c.216.294.56.459.907.459.228 0 .46-.073.664-.214l100.75-65.772c.5-.36.613-1.057.25-1.555a1.12 1.12 0 0 0-.91-.459c-.229 0-.46.069-.661.214m233.058-171.003-28.826 21.766a1.145 1.145 0 0 0-.243 1.562 1.069 1.069 0 0 0 1.52.25l28.825-21.766c.487-.36.595-1.06.243-1.566a1.092 1.092 0 0 0-.883-.457c-.22 0-.445.07-.636.211m25.023-17.993-9.86 7.696c-.475.372-.579 1.094-.232 1.614.207.305.536.472.868.472.218 0 .44-.071.631-.218l9.852-7.692c.48-.372.587-1.094.24-1.618a1.073 1.073 0 0 0-.871-.472c-.218 0-.44.071-.628.218m56.881-41.004-45.711 32.775a1.104 1.104 0 0 0-.252 1.556c.224.298.575.455.93.455.236 0 .469-.065.674-.21l45.707-32.78a1.086 1.086 0 0 0 .252-1.555 1.153 1.153 0 0 0-.926-.455c-.232 0-.469.069-.674.214M254.827 326.763l-15.771 51.786a1.099 1.099 0 0 0 .712 1.394 1.111 1.111 0 0 0 1.405-.71l15.771-51.79a1.098 1.098 0 0 0-.712-1.39 1.11 1.11 0 0 0-.348-.053c-.467 0-.904.296-1.057.763m-20.954 70.047-3.819 12.653c-.187.613.128 1.283.701 1.476a.97.97 0 0 0 .337.061c.458 0 .889-.315 1.035-.81l3.819-12.653c.187-.617-.128-1.279-.697-1.48a1.119 1.119 0 0 0-.341-.057c-.458 0-.885.315-1.035.81M340.845 67.778l-28.79 83.748c-.19.592.129 1.226.709 1.42a1.102 1.102 0 0 0 1.388-.723l28.793-83.75c.19-.591-.129-1.23-.705-1.415a1.072 1.072 0 0 0-.341-.058c-.467 0-.899.306-1.054.778m-82.787 11.238c-.685.097-1.15.7-1.043 1.336l2.494 15.666c.099.576.624.982 1.24.982.06 0 .125-.004.193-.012.685-.1 1.15-.7 1.043-1.34L259.49 79.99c-.099-.58-.637-.99-1.235-.99-.07 0-.134.008-.198.016m-.957-18.004c-.636.096-1.068.676-.964 1.286l1.432 8.755c.088.557.584.947 1.148.947.06 0 .12-.004.184-.008.632-.1 1.068-.676.964-1.286l-1.432-8.76a1.161 1.161 0 0 0-1.148-.946c-.064 0-.124.004-.184.012m-3.496-21.996a1.152 1.152 0 0 0-.968 1.322l.432 2.685c.088.568.58.977 1.144.977a1.16 1.16 0 0 0 1.152-1.338l-.428-2.689a1.16 1.16 0 0 0-1.148-.973.96.96 0 0 0-.184.016m50.292 319c-.577.097-.971.675-.884 1.292l4.88 32.74c.077.556.533.952 1.048.952.051 0 .11-.004.164-.016.58-.093.971-.675.884-1.292l-4.873-32.737c-.084-.559-.54-.955-1.052-.955a.843.843 0 0 0-.167.016m8.207 52.999c-.636.097-1.072.672-.972 1.286l1.44 8.745c.088.556.584.954 1.148.954.06 0 .12-.008.18-.015.636-.1 1.072-.676.968-1.29l-1.432-8.745a1.151 1.151 0 0 0-1.148-.95c-.064 0-.124.008-.184.015M201.587 79.118c-.529.278-.74.944-.47 1.493l3.85 7.784c.188.38.569.605.957.605.163 0 .33-.038.488-.122.533-.278.74-.948.47-1.493l-3.85-7.783a1.064 1.064 0 0 0-.957-.602 1.06 1.06 0 0 0-.488.118m-9.735-18.988c-.576.306-.804 1.04-.512 1.643l1.248 2.56c.204.424.612.667 1.036.667a1.1 1.1 0 0 0 .528-.134c.572-.306.8-1.04.508-1.639l-1.244-2.56a1.169 1.169 0 0 0-1.044-.667c-.176 0-.352.042-.52.13m130.766 252.997a1.116 1.116 0 0 0-.496 1.507l30.733 63.75a1.137 1.137 0 0 0 1.526.493c.557-.282.78-.952.495-1.507l-30.725-63.754a1.144 1.144 0 0 0-1.534-.489m39.973 81.995c-.532.274-.742.94-.473 1.493l3.848 7.78c.192.384.57.605.965.605a.955.955 0 0 0 .48-.126c.529-.274.743-.94.473-1.485l-3.851-7.784a1.067 1.067 0 0 0-.957-.605c-.163 0-.33.038-.484.122m13.253 25.008c-.572.314-.796 1.048-.504 1.643l1.248 2.56c.204.424.612.667 1.036.667.18 0 .36-.046.524-.126.576-.31.804-1.048.512-1.651l-1.248-2.56a1.167 1.167 0 0 0-1.04-.663c-.176 0-.356.042-.528.13M177.326 133.333a1.137 1.137 0 0 0 0 1.594l15.765 15.743a1.1 1.1 0 0 0 .792.33c.289 0 .57-.109.788-.33a1.135 1.135 0 0 0 0-1.597l-15.761-15.74a1.11 1.11 0 0 0-.792-.333c-.285 0-.573.112-.792.333m-21.976-20.986a1.188 1.188 0 0 0 0 1.682l6.623 6.624c.232.233.539.347.84.347a1.188 1.188 0 0 0 .837-2.03l-6.618-6.623a1.205 1.205 0 0 0-.842-.347c-.306 0-.608.118-.84.347m-15.032-15.028a1.097 1.097 0 0 0 0 1.544l1.82 1.822c.21.21.494.315.772.315.277 0 .555-.105.769-.315a1.098 1.098 0 0 0 .004-1.548l-1.82-1.818a1.1 1.1 0 0 0-1.545 0M352.329 309.33a1.113 1.113 0 0 0 0 1.578l38.76 38.77c.222.219.503.322.79.322a1.113 1.113 0 0 0 .792-1.9l-38.76-38.77a1.116 1.116 0 0 0-1.583 0m54.018 55.017a1.194 1.194 0 0 0 0 1.682l6.625 6.62c.237.233.535.351.837.351a1.194 1.194 0 0 0 .845-2.033l-6.628-6.62a1.172 1.172 0 0 0-.837-.347 1.18 1.18 0 0 0-.842.347m19.974 18.975a1.084 1.084 0 0 0 0 1.54l1.819 1.82c.213.21.487.318.768.318a1.089 1.089 0 0 0 .772-1.861l-1.818-1.817a1.086 1.086 0 0 0-1.54 0M148.12 173.527c-.275.473-.063 1.057.48 1.295l11.795 5.072c.166.07.333.106.506.106.397 0 .786-.195.979-.527.276-.477.06-1.053-.484-1.298l-11.798-5.072a1.236 1.236 0 0 0-.495-.103c-.4 0-.79.192-.982.527m-26.002-14.94c-.275.529-.058 1.172.49 1.445l7.78 3.846a1.119 1.119 0 0 0 1.489-.466 1.059 1.059 0 0 0-.479-1.444l-7.784-3.85a1.126 1.126 0 0 0-.503-.118c-.403 0-.795.214-.993.587m-19.987-9.743c-.306.576-.062 1.276.537 1.572l2.556 1.244c.18.088.369.128.553.128a1.24 1.24 0 0 0 1.09-.636c.302-.572.071-1.272-.532-1.564l-2.565-1.252a1.276 1.276 0 0 0-.55-.124c-.443 0-.875.232-1.089.632m-53.013-25.215c-.275.565-.057 1.257.487 1.542l33.783 16.702c.16.087.336.127.503.127.404 0 .789-.233.987-.633.278-.565.06-1.257-.484-1.542l-33.783-16.698a1.055 1.055 0 0 0-.503-.127c-.404 0-.792.23-.99.629m-18.986-8.781c-.306.576-.067 1.276.533 1.568l2.556 1.244c.185.088.373.128.558.128.444 0 .872-.232 1.09-.636.301-.572.062-1.272-.537-1.564l-2.56-1.244a1.248 1.248 0 0 0-.554-.132 1.23 1.23 0 0 0-1.086.636m378.988 191.731a1.04 1.04 0 0 0 .474 1.423l19.826 9.885c.157.077.325.113.493.113.392 0 .777-.211.967-.575a1.048 1.048 0 0 0-.478-1.427l-19.826-9.881a1.077 1.077 0 0 0-.493-.117c-.392 0-.773.208-.963.579m50 25.008a1.062 1.062 0 0 0 .487 1.449l7.779 3.846c.163.077.335.118.502.118.404 0 .796-.218.99-.587a1.053 1.053 0 0 0-.484-1.441l-7.782-3.854a1.123 1.123 0 0 0-1.492.47m24.002 13.008a1.068 1.068 0 0 0 .493 1.46l39.738 19.828c.163.079.338.116.513.116a1.14 1.14 0 0 0 1.01-.596c.283-.539.062-1.187-.497-1.468l-39.735-19.82a1.172 1.172 0 0 0-.509-.116c-.411 0-.811.217-1.013.596M98.015 212.838c-.099.54.31 1.054.914 1.14l34.796 5.012c.06.007.12.01.174.01.533 0 .998-.349 1.088-.842.091-.544-.317-1.05-.914-1.136l-34.8-5.012a1.597 1.597 0 0 0-.177-.01c-.53 0-.998.349-1.081.838m-98-17.89a.814.814 0 0 0-.015.166v.008c0 .541.391 1.021.944 1.114l65.766 11.749c.057.007.119.015.176.015.537 0 1.017-.398 1.101-.952a1.13 1.13 0 0 0-.928-1.288L1.293 194.015a1.115 1.115 0 0 0-1.278.932m82.999 15.655a1.17 1.17 0 0 0 .961 1.336l2.688.428a.928.928 0 0 0 .182.012c.56 0 1.048-.404 1.14-.98a1.153 1.153 0 0 0-.961-1.328l-2.688-.432a1.153 1.153 0 0 0-1.322.964M455.013 268.1c-.088.636.291 1.228.843 1.332l7.963 1.436a.783.783 0 0 0 .161.016c.496 0 .932-.408 1.005-.984.095-.636-.284-1.232-.843-1.328l-7.963-1.444a1.052 1.052 0 0 0-.158-.012c-.492 0-.928.412-1.008.984m27.001 4.506a1.165 1.165 0 0 0 .96 1.332l2.69.428a1.16 1.16 0 0 0 1.321-.972 1.172 1.172 0 0 0-.96-1.332l-2.686-.424a1.346 1.346 0 0 0-.178-.016c-.564 0-1.056.412-1.147.984M113.7 267.128l-8.755 1.444c-.614.096-1.028.692-.931 1.328.089.576.568.984 1.105.984.065 0 .12-.004.181-.016l8.752-1.436c.61-.104 1.03-.696.934-1.332-.089-.572-.568-.984-1.112-.984-.058 0-.116.004-.174.012m-27.983 4.888-17.776 2.717c-.607.102-1.02.683-.928 1.31.088.56.561.957 1.096.957.061 0 .119 0 .176-.012l17.776-2.717a1.13 1.13 0 0 0 .924-1.302A1.127 1.127 0 0 0 85.89 272a.876.876 0 0 0-.172.016m-1.359 72.11-42.74 21.77c-.56.28-.78.947-.493 1.497a1.132 1.132 0 0 0 1.513.485l42.744-21.775c.559-.278.776-.95.493-1.492a1.128 1.128 0 0 0-1.001-.611c-.175 0-.35.042-.516.126m46.031-24.011-7.78 3.853a1.06 1.06 0 0 0-.491 1.445c.198.373.59.587.99.587.167 0 .342-.037.506-.118l7.784-3.846c.54-.27.758-.917.48-1.449a1.122 1.122 0 0 0-.994-.587c-.168 0-.335.037-.495.115m-25.159 11.223-2.563 1.248c-.599.292-.841.992-.536 1.564.218.404.645.636 1.089.636.184 0 .373-.04.549-.128l2.562-1.244c.603-.288.842-.988.532-1.568-.213-.4-.64-.632-1.084-.632-.185 0-.373.04-.549.124m341.136-173.215-53.75 26.772a1.114 1.114 0 0 0-.497 1.5 1.137 1.137 0 0 0 1.51.487l53.762-26.773c.547-.284.767-.95.485-1.5a1.122 1.122 0 0 0-1.002-.609c-.173 0-.346.038-.508.123m19.86-9.787-2.56 1.252c-.6.292-.842.992-.532 1.564a1.252 1.252 0 0 0 1.64.508l2.557-1.248c.602-.292.84-.996.535-1.568a1.241 1.241 0 0 0-1.092-.632c-.184 0-.372.04-.548.124M161.97 364.347l-6.618 6.62a1.18 1.18 0 0 0 0 1.682 1.175 1.175 0 0 0 1.678 0l6.618-6.62a1.18 1.18 0 0 0 0-1.682 1.187 1.187 0 0 0-1.678 0m-19.835 18.975-1.817 1.817a1.096 1.096 0 0 0 0 1.543c.213.21.494.318.772.318.277 0 .558-.109.772-.318l1.818-1.82a1.085 1.085 0 0 0 0-1.54 1.088 1.088 0 0 0-.773-.322c-.277 0-.558.109-.772.322m249.94-249.995-53.742 53.784a1.087 1.087 0 0 0 0 1.566c.22.213.51.323.795.323.286 0 .576-.11.796-.323l53.746-53.788a1.09 1.09 0 0 0 0-1.562 1.136 1.136 0 0 0-1.595 0m20.896-20.98-6.625 6.624a1.195 1.195 0 0 0 0 1.682c.233.233.535.347.842.347.302 0 .608-.114.837-.347l6.629-6.624a1.195 1.195 0 0 0 0-1.682 1.205 1.205 0 0 0-.842-.347 1.2 1.2 0 0 0-.84.347m15.167-15.028-1.818 1.818a1.095 1.095 0 0 0 0 1.548c.21.21.487.315.772.315.28 0 .555-.105.768-.315l1.818-1.822a1.09 1.09 0 0 0 0-1.544 1.097 1.097 0 0 0-.768-.319 1.1 1.1 0 0 0-.772.319M229.776 348.606l-15.646 28.789c-.299.549-.064 1.208.513 1.484.17.08.351.121.533.121.428 0 .84-.22 1.046-.606l15.65-28.789c.294-.545.064-1.208-.513-1.48a1.237 1.237 0 0 0-.537-.125c-.428 0-.836.223-1.046.606m-24.809 46.999-3.85 7.784a1.117 1.117 0 0 0 .47 1.485.98.98 0 0 0 .484.126c.392 0 .773-.22.962-.605l3.849-7.784c.27-.549.063-1.215-.47-1.49a1.045 1.045 0 0 0-.492-.121c-.388 0-.765.22-.953.605m-12.377 25.057-1.249 2.561c-.296.603-.068 1.341.508 1.651a1.157 1.157 0 0 0 1.564-.532l1.248-2.57a1.247 1.247 0 0 0-.512-1.638 1.089 1.089 0 0 0-.528-.134c-.42 0-.828.243-1.032.662m158.318-313.044-24.786 49.733c-.278.556-.06 1.24.483 1.525.16.081.331.124.498.124.407 0 .795-.23.99-.618l24.79-49.733a1.155 1.155 0 0 0-.487-1.528 1.092 1.092 0 0 0-.499-.121c-.403 0-.79.226-.989.618m23.061-45.013-3.85 7.78c-.27.549-.06 1.215.469 1.493.151.084.321.122.488.122.388 0 .768-.22.957-.605l3.85-7.784c.27-.549.06-1.211-.469-1.49a1.04 1.04 0 0 0-.488-.121c-.391 0-.768.22-.957.605m9.618-19.942-1.248 2.563c-.292.6-.06 1.338.512 1.644.168.088.348.13.524.13.428 0 .836-.24 1.04-.663l1.252-2.563c.284-.604.06-1.342-.516-1.644a1.127 1.127 0 0 0-.524-.13c-.424 0-.832.24-1.04.663M264.888 358.955l-4.874 32.74c-.095.618.303 1.2.88 1.293.058.008.11.012.168.012.515 0 .964-.396 1.048-.947l4.877-32.744c.091-.618-.303-1.196-.884-1.293a.82.82 0 0 0-.168-.016c-.51 0-.963.396-1.047.955m-7.318 52.991-1.436 8.749c-.104.614.332 1.19.968 1.29.056.007.12.015.18.015.56 0 1.06-.398 1.148-.954l1.436-8.745c.1-.614-.332-1.189-.968-1.286a1.478 1.478 0 0 0-.184-.015c-.556 0-1.056.394-1.144.946m52.29-331.002-8.848 54.767c-.088.606.308 1.182.896 1.281.06.004.115.008.17.008.522 0 .977-.387 1.062-.936l8.848-54.771c.088-.614-.311-1.182-.896-1.278a.876.876 0 0 0-.17-.015c-.518 0-.98.391-1.062.944m2.708-18.997-1.436 8.759c-.104.61.332 1.186.968 1.286.064.004.12.008.18.008.564 0 1.06-.39 1.152-.943l1.436-8.759c.1-.614-.332-1.19-.972-1.286a1.408 1.408 0 0 0-.18-.012c-.556 0-1.056.394-1.148.947m2.497-21.974-.428 2.693a1.144 1.144 0 0 0 .968 1.318 1.168 1.168 0 0 0 1.332-.961l.428-2.689a1.156 1.156 0 0 0-.968-1.318 1.158 1.158 0 0 0-1.332.957" fill="#FFF"/><path d="m283.157 17.05 89.98 160.009H174l89.981-160.01c2.978-5.294 9.684-7.173 14.98-4.195a11 11 0 0 1 4.196 4.196Z" fill="#FC0"/><path d="M254 82h38v38h-38z"/><path d="M282.9 91.1c5.467 5.468 5.467 14.332 0 19.8-5.468 5.467-14.332 5.467-19.8 0-5.467-5.468-5.467-14.332 0-19.8 5.468-5.467 14.332-5.467 19.8 0" stroke="#000" stroke-width="3" stroke-linecap="round" stroke-linejoin="round"/><path d="M273 109c2.778 0 5-2.222 5-5h-10c0 2.778 2.222 5 5 5h0Zm-6-13v2m12-2v2" stroke="#000" stroke-width="3" stroke-linecap="round" stroke-linejoin="round"/><path d="M261.57 127.8h-5.56l-3.327 6.577-3.328-6.577h-5.56l6.314 11.068V146h5.106v-7.119zm11.018 18.66c5.836 0 9.996-3.982 9.996-9.56 0-5.577-4.16-9.56-9.996-9.56-5.85 0-10.025 3.998-10.025 9.56 0 5.563 4.175 9.56 10.025 9.56Zm0-4.665c-2.77 0-4.805-2.061-4.805-4.894 0-2.834 2.035-4.895 4.805-4.895 2.77 0 4.776 2.046 4.776 4.895 0 2.848-2.006 4.894-4.776 4.894Zm20.31 4.665c4.64 0 7.945-3.023 7.945-7.5V127.8h-5.124v11.066c0 1.779-1.147 2.928-2.82 2.928-1.675 0-2.821-1.15-2.821-2.928V127.8h-5.125v11.16c0 4.477 3.305 7.5 7.945 7.5Z" fill="#000" fill-rule="nonzero"/><path d="m113.374 261.035-8.915-5.357-2 3.328 11.923 7.164 4.55-7.571-3.008-1.808zm5.559-8.892-1.785-1.072 2.353-3.916-2.694-1.619-2.353 3.916-1.756-1.055 2.62-4.359-2.84-1.706-4.584 7.63 11.923 7.164 4.67-7.774-2.848-1.712zm-.787-19.244 5.985 6.828-8.874-2.02-2.252 3.748 14.724 2.502 1.838-3.059-9.18-11.728zm14-2.745-1.785-1.073 2.353-3.916-2.695-1.619-2.353 3.916-1.755-1.054 2.62-4.36-2.84-1.705-4.584 7.629 11.923 7.164 4.67-7.773-2.849-1.712zm5.678-9.811-8.915-5.357-2 3.328 11.924 7.164 4.549-7.571-3.008-1.808zm-3.052-13.763 2.567 1.542 1.009-1.68 8.76 5.264 1.833-3.051-11.327-6.806zM54.817 355.172l-8.915-5.357-2 3.329 11.923 7.164 4.55-7.572-3.009-1.807zm5.558-8.891-1.785-1.072 2.353-3.917-2.694-1.618-2.353 3.916-1.755-1.055 2.619-4.36-2.84-1.705-4.584 7.63 11.923 7.163 4.671-7.773-2.849-1.712zm-.786-19.245 5.984 6.828-8.874-2.019-2.252 3.748 14.725 2.502 1.838-3.06-9.181-11.727zm13.999-2.745-1.785-1.072 2.353-3.916-2.694-1.62-2.353 3.917-1.756-1.055 2.62-4.359-2.84-1.706-4.584 7.63 11.923 7.164 4.67-7.774-2.848-1.712zm5.679-9.811-8.915-5.357-2 3.329 11.923 7.164 4.55-7.572-3.009-1.807zm8.73-13.8c-1.35-4.11-2.128-5.294-3.553-6.15-2.127-1.278-4.601-.507-6.045 1.896-1.49 2.48-.878 4.89 1.412 6.267l.21.126 1.799-2.995-.219-.131c-.682-.41-.878-1.055-.496-1.691.349-.58 1.004-.737 1.618-.368.973.584 1.464 1.734 4.1 9.52l.69.415 5.062-8.424-2.686-1.615-1.892 3.15Z" fill="#FFF" fill-rule="nonzero"/><path d="m440.724 300 39.21 70.663c2.948 5.312 1.032 12.008-4.28 14.955a11 11 0 0 1-5.338 1.382H79.575c-6.075 0-11-4.925-11-11a11 11 0 0 1 1.354-5.288L108.693 300h332.031Zm-59.372-107 50.494 91h-314.38l49.886-91h214Z" fill="#FFF"/><path d="M184 224h36v36h-36z"/><path d="M189 242c0-7.733 6.043-14 13.5-14s13.5 6.267 13.5 14m0 0c0 7.733-6.043 14-13.5 14s-13.5-6.267-13.5-14m8-5v2m10-2v2" stroke="#000" stroke-width="3" stroke-linecap="round" stroke-linejoin="round"/><path d="M208 246s-2.063 2-5.5 2c-3.438 0-5.5-2-5.5-2" stroke="#000" stroke-width="3" stroke-linecap="round" stroke-linejoin="round"/><path d="M257 224h36v36h-36z"/><path d="M262 242c0-7.733 6.043-14 13.5-14s13.5 6.267 13.5 14m0 0c0 7.733-6.043 14-13.5 14s-13.5-6.267-13.5-14m8-5v2m10-2v2" stroke="#000" stroke-width="3" stroke-linecap="round" stroke-linejoin="round"/><path d="M281 246s-2.063 2-5.5 2c-3.438 0-5.5-2-5.5-2" stroke="#000" stroke-width="3" stroke-linecap="round" stroke-linejoin="round"/><path d="M330 224h36v36h-36z"/><path d="M335 242c0-7.733 6.043-14 13.5-14s13.5 6.267 13.5 14m0 0c0 7.733-6.043 14-13.5 14s-13.5-6.267-13.5-14m8-5v2m10-2v2" stroke="#000" stroke-width="3" stroke-linecap="round" stroke-linejoin="round"/><path d="M354 246s-2.063 2-5.5 2c-3.438 0-5.5-2-5.5-2" stroke="#000" stroke-width="3" stroke-linecap="round" stroke-linejoin="round"/><path d="M107 333h36v36h-36z"/><path d="M112 351c0-7.733 6.043-14 13.5-14s13.5 6.267 13.5 14m0 0c0 7.733-6.043 14-13.5 14s-13.5-6.267-13.5-14m8-5v2m10-2v2" stroke="#000" stroke-width="3" stroke-linecap="round" stroke-linejoin="round"/><path d="M131 355s-2.063 2-5.5 2c-3.438 0-5.5-2-5.5-2" stroke="#000" stroke-width="3" stroke-linecap="round" stroke-linejoin="round"/><path d="M157 333h36v36h-36z"/><path d="M162 351c0-7.733 6.043-14 13.5-14s13.5 6.267 13.5 14m0 0c0 7.733-6.043 14-13.5 14s-13.5-6.267-13.5-14m8-5v2m10-2v2" stroke="#000" stroke-width="3" stroke-linecap="round" stroke-linejoin="round"/><path d="M181 355s-2.063 2-5.5 2c-3.438 0-5.5-2-5.5-2" stroke="#000" stroke-width="3" stroke-linecap="round" stroke-linejoin="round"/><path d="M307 333h36v36h-36z"/><path d="M312 351c0-7.733 6.043-14 13.5-14s13.5 6.267 13.5 14m0 0c0 7.733-6.043 14-13.5 14s-13.5-6.267-13.5-14m8-5v2m10-2v2" stroke="#000" stroke-width="3" stroke-linecap="round" stroke-linejoin="round"/><path d="M331 355s-2.063 2-5.5 2c-3.438 0-5.5-2-5.5-2" stroke="#000" stroke-width="3" stroke-linecap="round" stroke-linejoin="round"/><path d="M207 333h36v36h-36z"/><path d="M212 351c0-7.733 6.043-14 13.5-14s13.5 6.267 13.5 14m0 0c0 7.733-6.043 14-13.5 14s-13.5-6.267-13.5-14m8-5v2m10-2v2" stroke="#000" stroke-width="3" stroke-linecap="round" stroke-linejoin="round"/><path d="M231 355s-2.063 2-5.5 2c-3.438 0-5.5-2-5.5-2" stroke="#000" stroke-width="3" stroke-linecap="round" stroke-linejoin="round"/><path d="M257 333h36v36h-36z"/><path d="M262 351c0-7.733 6.043-14 13.5-14s13.5 6.267 13.5 14m0 0c0 7.733-6.043 14-13.5 14s-13.5-6.267-13.5-14m8-5v2m10-2v2" stroke="#000" stroke-width="3" stroke-linecap="round" stroke-linejoin="round"/><path d="M281 355s-2.063 2-5.5 2c-3.438 0-5.5-2-5.5-2" stroke="#000" stroke-width="3" stroke-linecap="round" stroke-linejoin="round"/><path d="M407 333h36v36h-36z"/><path d="M412 351c0-7.733 6.043-14 13.5-14s13.5 6.267 13.5 14m0 0c0 7.733-6.043 14-13.5 14s-13.5-6.267-13.5-14m8-5v2m10-2v2" stroke="#000" stroke-width="3" stroke-linecap="round" stroke-linejoin="round"/><path d="M431 355s-2.063 2-5.5 2c-3.438 0-5.5-2-5.5-2" stroke="#000" stroke-width="3" stroke-linecap="round" stroke-linejoin="round"/><path d="M357 333h36v36h-36z"/><path d="M362 351c0-7.733 6.043-14 13.5-14s13.5 6.267 13.5 14m0 0c0 7.733-6.043 14-13.5 14s-13.5-6.267-13.5-14m8-5v2m10-2v2" stroke="#000" stroke-width="3" stroke-linecap="round" stroke-linejoin="round"/><path d="M381 355s-2.063 2-5.5 2c-3.438 0-5.5-2-5.5-2" stroke="#000" stroke-width="3" stroke-linecap="round" stroke-linejoin="round"/><path d="m405.916 197.601-2.525 1.518.914 1.52-8.618 5.18 1.661 2.764 11.143-6.696zm11.264 19.387-5.666-9.43-2.764 1.662 1.877 3.123-8.379 5.035 1.912 3.182 8.379-5.035 1.877 3.123zm-10.008 7.632 2.06 3.43 11.143-6.696-2.06-3.429zm6.074 11.004c1.847 3.072 5.3 4.203 8.568 2.837l-1.953-3.25c-1.464.439-2.894-.071-3.663-1.351-.982-1.634-.42-3.602 1.342-4.66 1.769-1.063 3.789-.647 4.77.987.73 1.214.568 2.668-.365 3.768l1.935 3.22c2.614-2.21 3.183-5.738 1.367-8.762-2.11-3.51-6.26-4.587-9.695-2.522-3.417 2.053-4.416 6.222-2.306 9.733Zm11.786 17.456 3.515-7.165 7.438.152-2.035-3.387-6.382.02 4.697-2.823-1.755-2.922-11.143 6.696 1.755 2.921 4.923-2.958-3.095 6zm4.82 2.47 1.669-1.002 2.335 3.886 2.518-1.513-2.335-3.886 1.64-.986 2.6 4.326 2.653-1.594-4.55-7.572-11.143 6.696 4.636 7.714 2.663-1.6zm17.108 8.63-5.665-9.429-2.764 1.66 1.877 3.125-8.38 5.034 1.912 3.182 8.38-5.035 1.876 3.124zm19.247 36.927-2.577 1.428.86 1.552-8.793 4.875 1.564 2.82 11.37-6.302zm10.58 19.767-5.333-9.62-2.82 1.563 1.766 3.187-8.55 4.74 1.8 3.246 8.55-4.74 1.767 3.188zm-10.268 7.28 1.94 3.498 11.37-6.302-1.94-3.499zm5.687 11.208c1.737 3.135 5.15 4.386 8.463 3.134l-1.839-3.316c-1.478.388-2.89-.172-3.613-1.478-.924-1.667-.294-3.614 1.504-4.61 1.804-1 3.809-.514 4.733 1.153.687 1.239.474 2.686-.497 3.752l1.821 3.286c2.69-2.117 3.382-5.623 1.672-8.708-1.986-3.583-6.095-4.803-9.601-2.86-3.486 1.933-4.63 6.064-2.644 9.647Zm11.169 17.857 3.763-7.038 7.428.412-1.916-3.457-6.378-.203 4.793-2.657-1.653-2.98-11.37 6.302 1.652 2.98 5.024-2.784-3.303 5.888zm4.731 2.637 1.702-.944 2.198 3.966 2.57-1.424-2.199-3.966 1.674-.928 2.447 4.414 2.708-1.5-4.283-7.726-11.37 6.302 4.364 7.872 2.717-1.506zm16.796 9.221-5.332-9.62-2.82 1.563 1.766 3.187-8.55 4.74 1.8 3.246 8.55-4.74 1.766 3.188z" fill="#FC0" fill-rule="nonzero"/></g></svg>