<svg width="21" height="17" xmlns="http://www.w3.org/2000/svg"><path d="M4.768 9.473c1.107 0 2.036.324 2.786.973.75.648 1.125 1.502 1.125 2.56 0 1.229-.358 2.202-1.072 2.919-.714.717-1.66 1.075-2.84 1.075-1.535 0-2.713-.555-3.535-1.664C.411 14.226 0 12.665 0 10.65 0 5.87 2.446 2.32 7.34 0L9 3.072c-1.607.785-2.795 1.69-3.563 2.714-.767 1.024-1.151 2.27-1.151 3.738.107-.034.268-.051.482-.051Zm12 0c1.107 0 2.036.324 2.786.973.75.648 1.125 1.502 1.125 2.56 0 1.229-.358 2.202-1.072 2.919-.714.717-1.66 1.075-2.84 1.075-1.535 0-2.713-.555-3.535-1.664C12.411 14.226 12 12.665 12 10.65 12 5.87 14.446 2.32 19.34 0L21 3.072c-1.607.785-2.795 1.69-3.563 2.714-.767 1.024-1.151 2.27-1.151 3.738.107-.034.268-.051.482-.051Z" fill="#FC0"/></svg>