<svg width="21" height="21" xmlns="http://www.w3.org/2000/svg"><g fill="none" fill-rule="evenodd"><path d="M.216.216h20.706v20.706H.216z"/><path d="M18.333 7.124v6.89c0 .618-.331 1.19-.868 1.496l-6.039 3.457a1.728 1.728 0 0 1-1.715 0l-6.04-3.457a1.725 1.725 0 0 1-.867-1.496v-6.89c0-.619.331-1.19.868-1.497l6.04-3.457a1.728 1.728 0 0 1 1.714 0l6.04 3.457c.536.307.867.878.867 1.497ZM3.054 6.229l3.633 2.097m11.396-2.097L14.45 8.326m3.52 6.729H3.168m7.194-13.088L2.977 14.745m7.799-12.778 7.385 12.778" stroke="#000" stroke-width="2" stroke-linecap="round" stroke-linejoin="round"/><path stroke="#000" stroke-width="2" stroke-linecap="round" stroke-linejoin="round" d="M10.569 15.051 6.686 8.327h7.765zm0 .004v4.14"/></g></svg>