<svg width="125" height="17" xmlns="http://www.w3.org/2000/svg"><path d="M51.432 4.518c-7.769.125-15.54.284-23.297.712-4.585.251-9.159.688-13.725 1.195a38.388 38.388 0 0 0-.181-1.337 24.98 24.98 0 0 0-.29-1.563c-.176-.769-.394-1.507-.85-2.16-.67-.957-1.803-1.488-2.968-1.34-.875.109-1.628.67-2.32 1.183-.297.223-.58.47-.86.714-.595.522-1.174 1.062-1.763 1.59a56.883 56.883 0 0 1-4.16 3.408C-.13 7.775-.327 9.49.532 10.614a2.58 2.58 0 0 0 1.938 1.014c.096.107.198.21.309.314.452.425 1.034.723 1.566 1.035.39.228.785.446 1.183.659.77.411 1.54.82 2.293 1.26.792.463 1.582.923 2.401 1.333 1.071.535 2.265 1.072 3.466.572.935-.389 1.566-1.288 1.676-2.283.057-.507-.033-.97-.116-1.46a54.036 54.036 0 0 1-.34-2.343l1.98-.207c1.947-.204 3.903-.325 5.855-.476a111.04 111.04 0 0 1 5.088-.278c2-.066 4.001-.132 6.002-.167 4.122-.071 8.246-.091 12.368-.108 3.74-.015 7.483-.048 11.224-.036 1.764.007 3.53.012 5.294.02 7.645.088 15.288.33 22.926.682 7.828.358 15.643.843 23.448 1.53 2.162.189 4.323.38 6.49.532 1.002.072 2.008.129 3.012.187 1.317.074 2.637.175 3.951.016 1.237-.15 2.248-1.153 2.426-2.385a2.845 2.845 0 0 0-.548-2.118c-.472-.614-1.088-.906-1.823-1.072a10.236 10.236 0 0 0-1.61-.232c-.463-.031-.927-.048-1.39-.075-.922-.051-1.843-.11-2.765-.169-1.915-.12-3.83-.27-5.742-.412-3.863-.289-7.725-.54-11.593-.739a650.782 650.782 0 0 0-23.018-.772 606.12 606.12 0 0 0-13.046-.075c-4.002.023-8.005.092-12.004.157" fill="#FC0" fill-rule="evenodd"/></svg>