<svg width="24" height="24" xmlns="http://www.w3.org/2000/svg"><g fill="none" fill-rule="evenodd"><path d="M0 24h24V0H0z"/><path stroke="#000" stroke-width="2" stroke-linecap="round" stroke-linejoin="round" d="M8.5 9v1m7-1v1m0 4.688a5.324 5.324 0 0 1-7 0M19.33 3.017l.17.173.175-.186a1.595 1.595 0 0 1 2.305-.023l.036.036a1.71 1.71 0 0 1 0 2.383l-1.754 1.78a1.069 1.069 0 0 1-1.524 0L16.984 5.4a1.708 1.708 0 0 1 0-2.383h0a1.646 1.646 0 0 1 2.346 0Z"/><path d="M21.256 9.889A9.568 9.568 0 1 1 14 2.724" stroke="#000" stroke-width="2" stroke-linecap="round" stroke-linejoin="round"/></g></svg>