<svg width="222" height="52" xmlns="http://www.w3.org/2000/svg"><g fill="none"><path d="M27.504.047c.942.065 2.13-.11 3.318.087 1.009.153 1.48.677 1.547 1.659.157 1.81.358 3.6 1.502 5.127 4.214 5.673 12.127 4.516 14.974-1.047.672-1.31.896-2.662.964-4.08.067-1.113.65-1.746 1.793-1.768 2.085-.022 4.17-.043 6.254 0 1.435.022 2.04.633 1.995 2.051-.18 5.935-2.466 10.91-7.353 14.597-4.774 3.578-10.176 4.67-16.005 3.273-7.577-1.811-12.867-7.877-14.032-15.12-.157-.939-.18-1.877-.18-2.815 0-1.331.538-1.92 1.928-1.986 1.031-.022 2.04.022 3.295.022ZM5.09 30.155c1.076 0 2.152-.022 3.25 0 1.166.023 1.682.538 1.75 1.704.156 2.98 1.142 5.535 3.608 7.44 2.242 1.726 6.165 2.107 8.675.852 3.542-1.748 4.977-4.684 5.2-8.427.068-1.165.494-1.546 1.705-1.569 2.13-.022 4.259 0 6.366 0 1.3 0 1.95.628 1.928 1.905-.112 3.183-.56 6.298-2.197 9.122-2.197 3.81-5.223 6.747-9.325 8.45-9.124 3.81-19.054.022-23.762-8.383C.674 38.381-.155 35.243.024 31.926c.067-1.166.628-1.748 1.816-1.77 1.098-.023 2.174 0 3.25 0Z" fill="#FC0"/><path d="M95.521 24.282c-.236.372-.473.637-.71.822-.237.186-.579.266-.973.266-.343 0-.711-.106-1.132-.319-.395-.212-.842-.477-1.368-.742-.5-.265-1.079-.53-1.737-.743-.658-.212-1.394-.318-2.21-.318-1.421 0-2.5.318-3.21.928-.711.61-1.053 1.459-1.053 2.493 0 .663.21 1.22.631 1.67.422.452.974.823 1.658 1.141.684.318 1.474.61 2.342.875.895.265 1.79.557 2.71.902.921.318 1.816.716 2.71 1.14a8.859 8.859 0 0 1 2.342 1.697 7.918 7.918 0 0 1 1.658 2.493c.421.981.632 2.175.632 3.554 0 1.538-.263 2.97-.79 4.322a10.318 10.318 0 0 1-2.29 3.5c-.999 1.008-2.236 1.777-3.71 2.361-1.473.557-3.13.849-4.998.849-1.027 0-2.08-.107-3.132-.319-1.053-.212-2.105-.504-3.079-.901-1-.398-1.92-.85-2.815-1.38a12.012 12.012 0 0 1-2.29-1.776l2.264-3.607a2.44 2.44 0 0 1 .71-.663 1.74 1.74 0 0 1 .973-.265c.448 0 .921.133 1.369.424.447.292.974.61 1.552.955.58.345 1.237.663 2 .955.763.291 1.631.424 2.658.424 1.395 0 2.473-.318 3.237-.928.762-.61 1.157-1.591 1.157-2.944 0-.769-.21-1.405-.631-1.882a5.01 5.01 0 0 0-1.658-1.22 15.03 15.03 0 0 0-2.342-.849 43.341 43.341 0 0 1-2.684-.822 19.607 19.607 0 0 1-2.684-1.087 8.254 8.254 0 0 1-2.342-1.724c-.684-.716-1.237-1.591-1.657-2.652-.422-1.06-.632-2.36-.632-3.898 0-1.247.237-2.466.737-3.66a9.66 9.66 0 0 1 2.184-3.182c.973-.928 2.157-1.67 3.552-2.228 1.395-.557 3-.822 4.816-.822 1 0 2 .08 2.946.239.948.159 1.869.398 2.737.716.869.318 1.658.69 2.42 1.114.738.424 1.422.928 2 1.458l-1.868 3.633Zm5.659 26.493V27.12h4.368c.868 0 1.447.398 1.71 1.193l.395 1.273c.395-.398.79-.795 1.21-1.14a8.154 8.154 0 0 1 1.37-.902 8.07 8.07 0 0 1 1.578-.583 8.053 8.053 0 0 1 1.868-.212c1.421 0 2.579.37 3.526 1.113.92.743 1.632 1.724 2.105 2.944a6.873 6.873 0 0 1 1.447-1.883 7.798 7.798 0 0 1 1.842-1.246 9.185 9.185 0 0 1 2.079-.716c.737-.16 1.447-.239 2.184-.239 1.342 0 2.526.212 3.579.61 1.052.398 1.92.981 2.605 1.75.71.77 1.236 1.724 1.605 2.838.368 1.114.552 2.387.552 3.792v15.036h-7.025v-15.01c0-2.44-1.053-3.66-3.131-3.66-.948 0-1.737.32-2.369.956-.631.636-.947 1.538-.947 2.731v15.036h-7.026V35.74c0-1.353-.263-2.308-.789-2.865-.526-.556-1.316-.822-2.342-.822-.631 0-1.237.133-1.79.425a7.272 7.272 0 0 0-1.604 1.167v17.104h-7v.027Zm46.414-30.125c0 .556-.105 1.087-.342 1.59a4.156 4.156 0 0 1-.92 1.3 4.916 4.916 0 0 1-1.37.901 4.392 4.392 0 0 1-1.657.319 4.035 4.035 0 0 1-1.605-.319 3.768 3.768 0 0 1-1.316-.901 3.703 3.703 0 0 1-.894-1.3 4.093 4.093 0 0 1-.316-1.59c0-.584.105-1.115.316-1.618a4.2 4.2 0 0 1 .894-1.326 5.053 5.053 0 0 1 1.316-.902 4.035 4.035 0 0 1 1.605-.318c.58 0 1.131.106 1.658.318a3.97 3.97 0 0 1 1.368.902c.395.37.71.822.921 1.326.21.503.342 1.034.342 1.617Zm-.71 6.47v23.655h-7.026V27.12h7.026Zm11.92-10.502v34.13h-7.025v-34.13zm15.106 10.131c1.552 0 2.973.238 4.262.742 1.29.504 2.395 1.193 3.316 2.122.92.928 1.657 2.068 2.184 3.42.526 1.353.789 2.865.789 4.562 0 .53-.026.955-.08 1.3-.052.344-.13.61-.236.795-.131.185-.29.345-.473.398-.211.08-.474.106-.79.106h-13.525c.237 1.989.816 3.42 1.79 4.296.973.901 2.21 1.326 3.736 1.326.816 0 1.526-.106 2.105-.292a10.898 10.898 0 0 0 1.579-.663c.447-.239.894-.45 1.263-.663.368-.212.789-.292 1.21-.292.553 0 .974.213 1.263.61l2.026 2.52c-.737.848-1.5 1.511-2.342 2.042-.842.53-1.71.928-2.578 1.22a13.3 13.3 0 0 1-2.658.61c-.895.106-1.736.158-2.526.158-1.631 0-3.184-.265-4.631-.821a10.551 10.551 0 0 1-3.79-2.414c-1.078-1.06-1.92-2.386-2.552-3.978-.631-1.59-.947-3.42-.947-5.516 0-1.59.263-3.076.816-4.481a11.032 11.032 0 0 1 2.315-3.713c1-1.06 2.21-1.91 3.632-2.52 1.42-.556 3.026-.874 4.841-.874Zm.13 4.88c-1.341 0-2.394.37-3.157 1.14-.763.768-1.263 1.882-1.5 3.314h8.763a6.87 6.87 0 0 0-.21-1.644 3.657 3.657 0 0 0-.711-1.432 3.288 3.288 0 0 0-1.29-1.008c-.5-.238-1.157-.37-1.894-.37Zm13.92 19.146V27.12h4.158c.342 0 .631.026.868.08.237.052.421.159.579.291.158.133.29.292.369.504.078.212.157.477.21.769l.342 2.015c.737-1.272 1.579-2.28 2.526-3.023a5.106 5.106 0 0 1 3.237-1.113c1.052 0 1.92.238 2.578.742l-.447 5.224c-.079.345-.21.557-.368.69-.185.132-.422.185-.71.185-.132 0-.29 0-.474-.026-.185-.027-.395-.027-.606-.053a44.7 44.7 0 0 0-.657-.08c-.211-.026-.422-.026-.606-.026-1.026 0-1.842.265-2.447.822-.605.557-1.132 1.326-1.552 2.28v14.347h-7v.027Zm32.182-18.484c-.184.292-.368.504-.579.61-.21.133-.474.186-.79.186-.341 0-.657-.08-1-.213a17.192 17.192 0 0 1-1.078-.477 22.981 22.981 0 0 0-1.29-.477 6.148 6.148 0 0 0-1.657-.212c-.895 0-1.579.159-2.052.503-.474.345-.711.823-.711 1.433 0 .45.158.795.473 1.087.316.291.711.557 1.237.769.5.212 1.106.424 1.737.636.658.186 1.316.425 2 .663.684.239 1.342.53 2 .849a6.83 6.83 0 0 1 1.736 1.22c.5.477.921 1.06 1.237 1.75.316.69.474 1.512.474 2.466 0 1.167-.211 2.254-.632 3.236a6.858 6.858 0 0 1-1.895 2.545c-.841.716-1.868 1.273-3.104 1.671-1.237.398-2.632.584-4.237.584-.79 0-1.605-.08-2.395-.24-.789-.158-1.578-.344-2.315-.61-.737-.264-1.447-.556-2.079-.927a8.89 8.89 0 0 1-1.631-1.14l1.631-2.6c.185-.291.421-.53.684-.716.29-.185.632-.265 1.08-.265.394 0 .762.08 1.104.265.316.186.685.372 1.053.584.368.212.816.398 1.316.583.5.186 1.131.266 1.92.266.553 0 1-.053 1.369-.16.368-.106.684-.265.894-.477.237-.186.395-.424.5-.663a1.89 1.89 0 0 0 .158-.742c0-.478-.157-.849-.473-1.167-.316-.292-.737-.557-1.237-.796-.5-.212-1.105-.424-1.763-.61a22.006 22.006 0 0 1-2-.663 14.767 14.767 0 0 1-2-.875 7.074 7.074 0 0 1-1.763-1.3 6.243 6.243 0 0 1-1.236-1.935c-.316-.77-.474-1.67-.474-2.758a7.05 7.05 0 0 1 .579-2.864 6.944 6.944 0 0 1 1.737-2.387c.762-.69 1.736-1.22 2.894-1.618 1.158-.397 2.526-.61 4.078-.61.843 0 1.658.08 2.448.24.79.158 1.526.37 2.236.636.684.265 1.316.61 1.895.98.579.372 1.079.77 1.526 1.22l-1.605 2.52Zm-21.548-10.01h-2.432l3.161-9.174h2.98l3.16 9.174h-2.431l-2.189-6.896h-.122l-2.127 6.896Zm-.365-3.598h5.046v1.68h-5.046v-1.68Zm8.207 3.598v-9.174h3.83c.669 0 1.276.12 1.824.42.486.24.911.659 1.155 1.139.243.48.425 1.02.425 1.679 0 .66-.122 1.199-.425 1.679-.304.48-.67.84-1.216 1.08a4.508 4.508 0 0 1-1.824.359h-2.371v-1.8h1.945c.365 0 .608-.059.851-.179.244-.12.426-.3.547-.48.122-.24.183-.48.183-.72 0-.3-.06-.539-.183-.719a1.426 1.426 0 0 0-.547-.48 1.964 1.964 0 0 0-.85-.18h-1.095v7.376h-2.25Zm8.33 0v-9.174h3.83c.668 0 1.276.12 1.823.42.487.24.912.659 1.155 1.139.244.48.426 1.02.426 1.679 0 .66-.121 1.199-.426 1.679-.304.48-.668.84-1.215 1.08a4.512 4.512 0 0 1-1.824.359h-2.37v-1.8h1.944c.365 0 .608-.059.851-.179s.426-.3.548-.48c.121-.24.182-.48.182-.72 0-.3-.061-.539-.182-.719a1.427 1.427 0 0 0-.548-.48 1.963 1.963 0 0 0-.85-.18h-1.095v7.376h-2.25Z" fill="#FFF"/><circle fill="#FFF" cx="193.759" cy="20.752" r="1.529"/></g></svg>