<svg width="21" height="21" xmlns="http://www.w3.org/2000/svg"><g fill="none" fill-rule="evenodd"><path stroke="#000" stroke-width="2" stroke-linecap="round" stroke-linejoin="round" d="m1.803 13.45 17.22.001M1.804 9.436v4.446c0 .953.772 1.726 1.725 1.726h11.017c.705 0 1.408-.087 2.092-.258l.787-.196a2.157 2.157 0 0 0 1.634-2.093v-.131a2.157 2.157 0 0 0-1.734-2.115l-1.91-.383a3.45 3.45 0 0 1-1.238-.512L9.985 7.125a.863.863 0 0 0-.864-.053l-1.02.51a.863.863 0 0 0-.386.386l-.496.99a.863.863 0 0 1-.772.478H4.392l-.505-.506a1.22 1.22 0 0 0-.863-.357h-.357a.863.863 0 0 0-.863.863Z"/><path d="M20.784 20.784H.078V.078h20.706z"/></g></svg>