<svg width="21" height="21" xmlns="http://www.w3.org/2000/svg"><g fill="none" fill-rule="evenodd"><g stroke-linecap="round" stroke-linejoin="round" stroke="#000" stroke-width="2"><path d="M5.359 3.12h0a.861.861 0 0 1 1.517 0l.67 1.225h0a.859.859 0 0 0 .344.345l1.225.669h0a.861.861 0 0 1 0 1.517l-1.225.67h0a.861.861 0 0 0-.344.344l-.67 1.225h0a.861.861 0 0 1-1.517 0l-.67-1.225h0a.861.861 0 0 0-.344-.344l-1.224-.67h0a.861.861 0 0 1 0-1.517l1.224-.67h0a.861.861 0 0 0 .345-.344l.669-1.224Zm9.68 3.338h0a.646.646 0 0 1 1.138 0l.502.919h0c.06.109.149.198.258.258l.919.502h0a.646.646 0 0 1 0 1.138l-.919.502h0a.646.646 0 0 0-.258.258l-.502.919h0a.646.646 0 0 1-1.138 0l-.502-.919h0a.646.646 0 0 0-.258-.258l-.919-.502h0a.646.646 0 0 1 0-1.138l.919-.502h0a.66.66 0 0 0 .258-.258l.502-.919Zm-5.703 6.096h0a.754.754 0 0 1 1.328 0l.585 1.072h0c.07.127.174.232.302.301l1.071.586h0a.754.754 0 0 1 0 1.327l-1.071.586h0a.753.753 0 0 0-.302.301l-.585 1.072h0a.754.754 0 0 1-1.328 0l-.585-1.072h0a.753.753 0 0 0-.302-.301l-1.071-.586h0a.754.754 0 0 1 0-1.327l1.071-.586h0a.753.753 0 0 0 .302-.301l.585-1.072Zm-5.763.509h0a.043.043 0 1 1-.043-.043m0 0h0c.023 0 .043.019.043.043 0 0 0 0 0 0m12.941 2.545h0a.043.043 0 1 1-.043-.043"/><path d="M16.47 15.565h0c.024 0 .044.019.044.043 0 0 0 0 0 0M13.106 3.53h0a.043.043 0 1 1-.043-.044"/><path d="M13.063 3.486h0c.024 0 .043.02.043.043 0 0 0 0 0 0"/></g><path d="M.078.078h20.706v20.706H.078z"/></g></svg>