<svg width="56" height="47" xmlns="http://www.w3.org/2000/svg"><path d="M55.756 6.326a22.544 22.544 0 0 1-6.481 1.792 11.41 11.41 0 0 0 4.961-6.29 22.505 22.505 0 0 1-7.17 2.756A11.228 11.228 0 0 0 38.83 1C32.6 1 27.547 6.09 27.547 12.362c0 .888.1 1.758.294 2.587-9.378-.474-17.69-5.005-23.256-11.878a11.38 11.38 0 0 0-1.528 5.723c0 3.94 1.99 7.415 5.02 9.452a11.129 11.129 0 0 1-5.113-1.42v.143c0 5.504 3.887 10.094 9.05 11.143-.948.262-1.939.397-2.971.397-.73 0-1.436-.068-2.124-.203 1.435 4.506 5.6 7.803 10.536 7.887a22.485 22.485 0 0 1-14.012 4.861 23.3 23.3 0 0 1-2.687-.152A31.774 31.774 0 0 0 18.051 46c20.754 0 32.105-17.314 32.105-32.32 0-.498-.008-.988-.033-1.479a22.657 22.657 0 0 0 5.633-5.875" fill="#FC0"/></svg>