<svg width="24" height="24" xmlns="http://www.w3.org/2000/svg"><g fill="none" fill-rule="evenodd"><path d="M0 0h24v24H0z"/><path d="M20.286 3.714a2.438 2.438 0 1 1-3.449 3.448 2.438 2.438 0 0 1 3.449-3.448" stroke="#000" stroke-width="2" stroke-linecap="round" stroke-linejoin="round"/><path d="M20.915 10.2a8.238 8.238 0 0 0-.923-2.798m-3.394-3.394a8.238 8.238 0 0 0-2.798-.923M7.162 16.838a2.438 2.438 0 1 1-3.449 3.448 2.438 2.438 0 0 1 3.449-3.448" stroke="#000" stroke-width="2" stroke-linecap="round" stroke-linejoin="round"/><path d="M3.085 13.8a8.238 8.238 0 0 0 .923 2.798m6.192 4.317a8.238 8.238 0 0 1-2.798-.923m-.24-16.278a2.438 2.438 0 1 1-3.449 3.448 2.438 2.438 0 0 1 3.449-3.448" stroke="#000" stroke-width="2" stroke-linecap="round" stroke-linejoin="round"/><path d="M7.402 4.008a8.24 8.24 0 0 1 2.798-.924M4.008 7.402a8.238 8.238 0 0 0-.923 2.798m17.201 6.638a2.438 2.438 0 1 1-3.449 3.448 2.438 2.438 0 0 1 3.449-3.448M9 12h6m-3 3V9" stroke="#000" stroke-width="2" stroke-linecap="round" stroke-linejoin="round"/><path d="M19.992 16.598c.46-.856.787-1.794.923-2.798m-4.317 6.192a8.238 8.238 0 0 1-2.798.923" stroke="#000" stroke-width="2" stroke-linecap="round" stroke-linejoin="round"/></g></svg>