<svg width="52" height="51" xmlns="http://www.w3.org/2000/svg"><g fill="#FC0" fill-rule="evenodd"><path d="M26.363 0c6.792.002 13.169 2.634 17.962 7.41 4.794 4.777 7.433 11.127 7.431 17.88-.006 13.794-11.172 25.045-24.974 25.268l-.42.004h-.01a25.478 25.478 0 0 1-12.136-3.076L.756 51l3.602-13.096A25.14 25.14 0 0 1 .97 25.27C.974 11.336 12.366 0 26.363 0Zm.008 4.268c-11.642 0-21.11 9.422-21.115 21.004a20.882 20.882 0 0 0 3.228 11.179l.5.793-2.132 7.752 7.989-2.086.77.456a21.155 21.155 0 0 0 10.742 2.928h.01c11.632 0 21.101-9.424 21.106-21.006.001-5.612-2.192-10.89-6.176-14.86-3.985-3.97-9.286-6.158-14.922-6.16Z"/><path d="M19.366 15.114c-.52-1.24-1.046-1.072-1.44-1.092-.373-.019-.8-.022-1.225-.022-.428 0-1.12.159-1.706.796-.586.636-2.239 2.176-2.239 5.306s2.292 6.155 2.612 6.58c.32.424 4.51 6.849 10.927 9.604a37.202 37.202 0 0 0 3.647 1.34c1.532.483 2.927.416 4.03.252 1.229-.183 3.784-1.54 4.317-3.024.534-1.487.534-2.76.374-3.025-.16-.265-.587-.425-1.227-.743-.639-.318-3.785-1.857-4.37-2.07-.588-.211-1.014-.317-1.44.319-.426.637-1.653 2.069-2.026 2.494-.373.424-.745.477-1.386.16-.64-.319-2.7-.991-5.144-3.159-1.902-1.685-3.185-3.769-3.56-4.405-.372-.637-.038-.98.282-1.298.287-.285.64-.744.96-1.115.32-.37.426-.637.64-1.06.212-.426.106-.797-.054-1.115-.16-.32-1.44-3.45-1.972-4.723"/></g></svg>