<svg width="200" height="103" fill="none" xmlns="http://www.w3.org/2000/svg"><path fill-rule="evenodd" clip-rule="evenodd" d="M0 26.54h200V0H0v26.54Zm0 6v25.774h7.29v-8.837h11.377v-5.633H7.29v-5.67h12.924V32.54H0Zm23.638 0v25.774h19.588v-5.78H30.928V32.54h-7.29Zm42.672 5.634V32.54H46.098v25.773H66.79V52.68H53.314v-4.713h11.45v-5.45h-11.45v-4.344H66.31ZM79.934 53.16c-1.473 0-2.97-.234-4.492-.7-1.523-.466-2.86-1.08-4.014-1.841l-2.393 5.375c1.227.86 2.823 1.547 4.787 2.062a23.83 23.83 0 0 0 6.075.773c2.454 0 4.54-.374 6.259-1.123 1.718-.748 3.007-1.748 3.866-3 .86-1.252 1.289-2.651 1.289-4.198 0-1.791-.473-3.209-1.418-4.252a8.427 8.427 0 0 0-3.35-2.283c-1.289-.479-2.915-.926-4.879-1.344-1.743-.368-3.007-.724-3.792-1.068-.786-.343-1.178-.859-1.178-1.546s.331-1.246.994-1.675c.662-.43 1.717-.645 3.166-.645 2.307 0 4.688.663 7.143 1.988l2.246-5.412c-1.252-.736-2.7-1.294-4.345-1.675a22.154 22.154 0 0 0-5.007-.57c-2.48 0-4.572.367-6.278 1.104-1.706.736-2.988 1.736-3.847 3-.86 1.265-1.289 2.682-1.289 4.253 0 1.792.466 3.216 1.4 4.271a8.173 8.173 0 0 0 3.35 2.301c1.3.479 2.92.927 4.86 1.344 1.767.393 3.05.767 3.847 1.123.798.356 1.197.902 1.197 1.639 0 1.399-1.399 2.098-4.197 2.098Zm24.208-14.176c1.092-.614 2.338-.92 3.737-.92 2.38 0 4.406 1.006 6.075 3.019l4.639-4.198c-1.252-1.57-2.823-2.773-4.713-3.608-1.89-.834-4.013-1.252-6.369-1.252-2.701 0-5.124.57-7.272 1.712-2.148 1.141-3.836 2.731-5.063 4.768-1.227 2.038-1.84 4.345-1.84 6.922 0 2.578.613 4.885 1.84 6.922 1.227 2.038 2.915 3.627 5.063 4.768 2.148 1.142 4.571 1.712 7.272 1.712 2.356 0 4.479-.417 6.369-1.251 1.89-.835 3.461-2.038 4.713-3.609l-4.639-4.197c-1.669 2.013-3.695 3.019-6.075 3.019-1.399 0-2.645-.307-3.737-.92a6.384 6.384 0 0 1-2.541-2.596c-.601-1.117-.902-2.4-.902-3.848s.301-2.73.902-3.847a6.392 6.392 0 0 1 2.541-2.596Zm17.691-6.444v25.774h7.29V48.262h9.942v10.052h7.29V32.541h-7.29v9.683h-9.942V32.54h-7.29Zm49.89 5.634V32.54h-20.214v25.773h20.693V52.68h-13.476v-4.713h11.451v-5.45h-11.451v-4.344h12.997Z" fill="#fff"/><mask id="a" style="mask-type:alpha" maskUnits="userSpaceOnUse" x="176" y="32" width="24" height="27"><path fill-rule="evenodd" clip-rule="evenodd" d="M176.252 32.54H200v25.774h-23.748V32.541Z" fill="#fff"/></mask><g mask="url(#a)"><path fill-rule="evenodd" clip-rule="evenodd" d="M190.979 44.857c-.761.65-1.89.975-3.387.975h-4.05v-7.548h4.05c1.497 0 2.626.332 3.387.994.761.663 1.142 1.596 1.142 2.799 0 1.203-.381 2.13-1.142 2.78Zm7.199 2.098c.871-1.386 1.307-3.013 1.307-4.878 0-1.939-.467-3.627-1.399-5.063-.934-1.436-2.259-2.54-3.977-3.314-1.718-.773-3.743-1.16-6.075-1.16h-11.782v25.774h7.29v-6.848h3.976l4.676 6.848H200l-5.56-8.1c1.621-.785 2.866-1.872 3.738-3.259Z" fill="#fff"/></g><path fill-rule="evenodd" clip-rule="evenodd" d="M1.919 69.266h2.994v-1.483H1.92V66.29h3.4v-1.483H0v6.784h1.919v-2.325Zm12.356-.054a1.743 1.743 0 0 1-.659.683 1.817 1.817 0 0 1-.93.243 1.81 1.81 0 0 1-.93-.243 1.74 1.74 0 0 1-.66-.683 2.066 2.066 0 0 1-.242-1.013c0-.38.081-.718.243-1.012.161-.294.38-.522.659-.683a1.81 1.81 0 0 1 .93-.243c.342 0 .652.081.93.243.278.161.498.389.66.683.16.294.242.631.242 1.013 0 .38-.081.718-.243 1.012Zm.345-4.085c-.572-.303-1.217-.455-1.934-.455-.717 0-1.362.152-1.933.455a3.423 3.423 0 0 0-1.348 1.26 3.418 3.418 0 0 0-.489 1.813c0 .672.163 1.275.49 1.812a3.42 3.42 0 0 0 1.347 1.26c.571.303 1.216.455 1.933.455.717 0 1.362-.151 1.934-.455a3.422 3.422 0 0 0 1.347-1.26c.326-.537.489-1.14.489-1.813 0-.671-.163-1.275-.49-1.812a3.424 3.424 0 0 0-1.346-1.26Zm7.864 1.193h1.066c.394 0 .691.087.892.26.2.175.3.421.3.737 0 .317-.1.561-.3.732-.2.171-.498.257-.892.257h-1.066v-1.987Zm-1.919 5.272h1.919v-1.803h1.047l1.23 1.802h2.055l-1.463-2.132c.426-.207.754-.492.983-.857.23-.365.344-.793.344-1.285 0-.51-.122-.954-.368-1.332a2.371 2.371 0 0 0-1.047-.872c-.452-.204-.985-.306-1.599-.306h-3.1v6.784Zm18.69-5.089c.287-.161.615-.242.983-.242.627 0 1.16.265 1.6.795l1.22-1.105a3.227 3.227 0 0 0-1.24-.95 4.113 4.113 0 0 0-1.676-.33c-.711 0-1.35.15-1.915.451-.565.3-1.01.72-1.332 1.255a3.465 3.465 0 0 0-.485 1.822c0 .679.162 1.286.485 1.822a3.37 3.37 0 0 0 1.332 1.255c.566.3 1.204.451 1.915.451.62 0 1.178-.11 1.676-.33.498-.22.911-.535 1.24-.95l-1.22-1.104c-.44.53-.973.795-1.6.795-.368 0-.696-.081-.983-.243a1.681 1.681 0 0 1-.67-.683 2.101 2.101 0 0 1-.236-1.013c0-.38.079-.718.237-1.012.158-.294.381-.522.669-.684Zm12.623 2.709a1.744 1.744 0 0 1-.66.683 1.818 1.818 0 0 1-.93.243c-.342 0-.652-.081-.93-.243a1.74 1.74 0 0 1-.659-.683 2.066 2.066 0 0 1-.242-1.013c0-.38.08-.718.242-1.012.161-.294.381-.522.659-.683.278-.162.588-.243.93-.243.343 0 .653.081.93.243.278.161.498.389.66.683.161.294.242.631.242 1.013 0 .38-.08.718-.242 1.012Zm.344-4.085c-.572-.303-1.217-.455-1.934-.455-.717 0-1.361.152-1.933.455a3.423 3.423 0 0 0-1.347 1.26 3.417 3.417 0 0 0-.49 1.813c0 .672.163 1.275.49 1.812a3.42 3.42 0 0 0 1.347 1.26c.572.303 1.216.455 1.933.455.718 0 1.362-.151 1.934-.455a3.422 3.422 0 0 0 1.347-1.26c.326-.537.49-1.14.49-1.813 0-.671-.164-1.275-.49-1.812a3.425 3.425 0 0 0-1.347-1.26Zm5.888-.32v3.76c0 1.009.279 1.787.838 2.336.558.55 1.342.824 2.35.824s1.791-.274 2.35-.824c.559-.549.838-1.327.838-2.335v-3.76h-1.89v3.701c0 1.086-.426 1.629-1.279 1.629-.86 0-1.289-.543-1.289-1.629v-3.702H58.11Zm10.776 6.784h1.88v-3.614l2.995 3.614h1.58v-6.783h-1.88v3.614l-2.995-3.614h-1.58v6.783Zm14.276 0V66.33h2.073v-1.521H79.16v1.521h2.084v5.263h1.919Zm8.489-4.089-1.609-2.695h-2.025l2.587 4.323v2.461h1.92V69.16l2.597-4.352H93.26l-1.609 2.695Zm15.472-.999c.288-.161.616-.242.984-.242.627 0 1.16.265 1.599.795l1.221-1.105a3.225 3.225 0 0 0-1.24-.95 4.117 4.117 0 0 0-1.677-.33c-.711 0-1.349.15-1.914.451-.565.3-1.01.72-1.333 1.255-.323.537-.484 1.144-.484 1.822 0 .679.161 1.286.484 1.822.323.537.768.955 1.333 1.255.565.3 1.203.451 1.914.451.62 0 1.179-.11 1.677-.33.497-.22.911-.535 1.24-.95l-1.221-1.104c-.439.53-.972.795-1.599.795-.368 0-.696-.081-.984-.243a1.688 1.688 0 0 1-.669-.683 2.105 2.105 0 0 1-.237-1.013c0-.38.079-.718.237-1.012.159-.294.382-.522.669-.684Zm12.623 2.709a1.737 1.737 0 0 1-.659.683 1.817 1.817 0 0 1-.93.243c-.343 0-.653-.081-.931-.243a1.741 1.741 0 0 1-.658-.683 2.063 2.063 0 0 1-.243-1.013c0-.38.081-.718.243-1.012.161-.294.381-.522.658-.683.278-.162.588-.243.931-.243.342 0 .652.081.93.243.278.161.498.389.659.683.162.294.243.631.243 1.013 0 .38-.081.718-.243 1.012Zm.344-4.085c-.571-.303-1.216-.455-1.933-.455-.717 0-1.362.152-1.934.455a3.427 3.427 0 0 0-1.347 1.26 3.42 3.42 0 0 0-.489 1.813c0 .672.163 1.275.489 1.812a3.43 3.43 0 0 0 1.347 1.26c.572.303 1.217.455 1.934.455.717 0 1.362-.151 1.933-.455a3.417 3.417 0 0 0 1.347-1.26 3.41 3.41 0 0 0 .49-1.813c0-.671-.163-1.275-.49-1.812a3.42 3.42 0 0 0-1.347-1.26Zm9.91 3.596-2.385-3.916h-1.579v6.784h1.773v-3.498l1.735 2.83h.853l1.744-2.927.02 3.595h1.764l-.02-6.784h-1.579L130 68.723Zm12.346 0-2.384-3.916h-1.579v6.784h1.773v-3.498l1.735 2.83h.853l1.744-2.927.02 3.595h1.763l-.019-6.784h-1.58l-2.326 3.916Z" fill="#fff"/><mask id="b" style="mask-type:alpha" maskUnits="userSpaceOnUse" x="0" y="0" width="200" height="103"><path fill-rule="evenodd" clip-rule="evenodd" d="M0 102.796h200V0H0v102.796Z" fill="#fff"/></mask><g mask="url(#b)" fill-rule="evenodd" clip-rule="evenodd"><path d="M150.729 71.591h1.919v-6.783h-1.919v6.783Zm8.781-1.356a4.02 4.02 0 0 1-1.183-.185 4.072 4.072 0 0 1-1.056-.484l-.63 1.415c.323.226.743.407 1.26.543.517.135 1.05.203 1.599.203.646 0 1.195-.099 1.648-.296.452-.197.791-.46 1.017-.79.226-.329.34-.697.34-1.104 0-.472-.125-.845-.374-1.12a2.208 2.208 0 0 0-.881-.6 9.4 9.4 0 0 0-1.285-.354c-.459-.097-.791-.19-.998-.281-.207-.09-.31-.226-.31-.407 0-.18.087-.328.262-.441.174-.113.452-.17.833-.17.607 0 1.234.174 1.88.524l.591-1.425a4.028 4.028 0 0 0-1.143-.441c-.433-.1-.872-.15-1.318-.15-.653 0-1.204.097-1.653.29-.449.194-.786.458-1.012.79-.227.333-.34.706-.34 1.12 0 .471.123.846.369 1.124.245.278.539.48.882.606.342.126.769.243 1.279.353.465.104.803.203 1.013.296.21.094.315.237.315.431 0 .368-.369.553-1.105.553Zm9.371 0c-.387 0-.782-.062-1.182-.185a4.064 4.064 0 0 1-1.057-.484l-.629 1.415c.323.226.743.407 1.26.543a6.26 6.26 0 0 0 1.599.203c.645 0 1.195-.099 1.647-.296.452-.197.791-.46 1.018-.79.226-.329.339-.697.339-1.104 0-.472-.125-.845-.373-1.12a2.219 2.219 0 0 0-.882-.6 9.341 9.341 0 0 0-1.284-.354c-.459-.097-.792-.19-.998-.281-.207-.09-.311-.226-.311-.407 0-.18.088-.328.262-.441.175-.113.452-.17.834-.17.607 0 1.233.174 1.88.524l.591-1.425a4.046 4.046 0 0 0-1.144-.441c-.433-.1-.872-.15-1.318-.15-.652 0-1.203.097-1.652.29-.449.194-.787.458-1.013.79a1.948 1.948 0 0 0-.339 1.12c0 .471.122.846.368 1.124.246.278.54.48.882.606.343.126.769.243 1.279.353.466.104.803.203 1.013.296.21.094.315.237.315.431 0 .368-.368.553-1.105.553Zm6.978 1.356h1.919v-6.783h-1.919v6.783Zm8.218-4.404a1.75 1.75 0 0 1 .659-.684c.278-.161.588-.242.931-.242.342 0 .652.08.93.242.278.162.497.39.659.684.161.294.242.631.242 1.012 0 .382-.081.72-.242 1.013a1.743 1.743 0 0 1-.659.683 1.816 1.816 0 0 1-.93.243c-.343 0-.653-.081-.931-.243a1.743 1.743 0 0 1-.659-.683 2.073 2.073 0 0 1-.242-1.013c0-.38.081-.718.242-1.012Zm-.344 4.085c.572.303 1.216.455 1.934.455.717 0 1.361-.152 1.933-.456a3.416 3.416 0 0 0 1.347-1.26c.326-.535.49-1.14.49-1.812a3.42 3.42 0 0 0-.49-1.812 3.42 3.42 0 0 0-1.347-1.26c-.572-.303-1.216-.455-1.933-.455-.718 0-1.362.152-1.934.455a3.42 3.42 0 0 0-1.347 1.26 3.42 3.42 0 0 0-.489 1.812c0 .672.163 1.276.489 1.813.326.536.775.956 1.347 1.26Zm14.387-2.85-2.995-3.615h-1.579v6.784h1.88v-3.614l2.994 3.614H200v-6.784h-1.88v3.615ZM0 102.796h200v-26.54H0v26.54Z" fill="#fff"/><path d="M93.416 5.413h-9.495V8.73h5.246v6.525c0 .723-.163 1.272-.488 1.647-.325.377-.799.564-1.42.564-.94 0-1.814-.527-2.623-1.582l-2.341 2.774c.578.723 1.322 1.276 2.233 1.659.91.383 1.922.574 3.035.574 1.922 0 3.378-.49 4.368-1.474.99-.982 1.485-2.457 1.485-4.422V5.413ZM103.8 16.762c-.463.498-1.055.747-1.778.747-.723 0-1.315-.249-1.778-.747-.462-.499-.693-1.19-.693-2.07 0-.868.23-1.547.693-2.039.463-.49 1.055-.737 1.778-.737.723 0 1.315.246 1.778.737.462.492.694 1.171.694 2.038 0 .882-.232 1.572-.694 2.07Zm1.647-7.35c-1.011-.512-2.153-.77-3.425-.77-1.272 0-2.41.258-3.414.77a5.831 5.831 0 0 0-2.363 2.158c-.571.925-.857 1.965-.857 3.121 0 1.17.286 2.219.857 3.144.57.925 1.362 1.647 2.374 2.168 1.011.52 2.146.78 3.403.78 1.272 0 2.414-.26 3.425-.78 1.012-.52 1.8-1.243 2.363-2.168.564-.925.846-1.973.846-3.144 0-1.17-.282-2.214-.846-3.132-.563-.918-1.351-1.633-2.363-2.147Zm8.455 4.174c.115-.622.386-1.113.813-1.475.426-.36.957-.541 1.593-.541s1.167.18 1.594.541c.425.362.697.853.813 1.475h-4.813Zm5.571-4.217c-.954-.484-2.016-.726-3.187-.726-1.228 0-2.334.26-3.317.78a5.832 5.832 0 0 0-2.308 2.157c-.557.918-.835 1.955-.835 3.111 0 1.171.285 2.219.856 3.144.571.925 1.377 1.647 2.418 2.168 1.04.52 2.247.78 3.62.78 2.197 0 3.866-.636 5.008-1.908l-2.168-2.254c-.419.361-.835.621-1.247.78-.411.16-.899.239-1.463.239-.752 0-1.376-.163-1.875-.488-.499-.325-.835-.792-1.008-1.399h8.541c.044-.65.065-.99.065-1.018 0-1.258-.278-2.345-.834-3.263a5.53 5.53 0 0 0-2.266-2.103Zm-100.918 1.82-1.867-3.783-1.867 3.783-4.175.607 3.02 2.944-.712 4.158 3.734-1.963 3.734 1.963-.713-4.158 3.02-2.944-4.174-.607Zm22.455 0-1.866-3.783-1.867 3.783-4.175.607 3.021 2.944-.713 4.158 3.734-1.963 3.734 1.963-.713-4.158 3.02-2.944-4.174-.607Zm21.859-3.783-1.867 3.783-4.175.607 3.02 2.944-.712 4.158 3.734-1.963 3.734 1.963-.713-4.158 3.02-2.944-4.174-.607-1.867-3.783Zm79.169 7.334 3.021-2.944-4.175-.607-1.867-3.783-1.867 3.783-4.175.607 3.021 2.944-.713 4.158 3.734-1.963 3.734 1.963-.713-4.158Zm21.302-3.551-1.867-3.783-1.867 3.783-4.175.607 3.021 2.944-.713 4.158 3.734-1.963 3.734 1.963-.713-4.158 3.021-2.944-4.175-.607Zm27.899.607-4.174-.607-1.867-3.783-1.867 3.783-4.175.607 3.021 2.944-.713 4.158 3.734-1.963 3.734 1.963-.714-4.158 3.021-2.944ZM57.398 91.448c-.495.464-1.152.696-1.97.696h-1.704v-5.235h1.704c.818 0 1.475.231 1.97.695.495.463.743 1.104.743 1.922 0 .818-.248 1.459-.743 1.922Zm.92-6.107c-.809-.39-1.736-.586-2.78-.586h-4.513v9.543h4.512c1.045 0 1.972-.196 2.781-.586.81-.391 1.436-.946 1.882-1.664.445-.718.668-1.558.668-2.522 0-.963-.223-1.804-.668-2.522-.446-.718-1.073-1.272-1.882-1.663Zm6.149 8.957h2.7v-9.543h-2.7v9.543Zm12.617-5.31a13.181 13.181 0 0 0-1.806-.498c-.646-.136-1.114-.268-1.405-.395-.29-.127-.436-.318-.436-.573 0-.254.123-.46.368-.62.246-.159.636-.239 1.172-.239.855 0 1.736.246 2.645.737l.832-2.005c-.464-.272-1-.479-1.609-.62a8.196 8.196 0 0 0-1.854-.211c-.918 0-1.693.136-2.324.409-.632.272-1.107.643-1.425 1.11a2.736 2.736 0 0 0-.477 1.575c0 .664.172 1.191.518 1.582.345.39.759.675 1.24.852.482.177 1.082.343 1.8.498.655.145 1.13.284 1.425.415.295.132.443.334.443.607 0 .518-.518.777-1.554.777a5.65 5.65 0 0 1-1.663-.259 5.72 5.72 0 0 1-1.487-.682l-.886 1.99c.455.32 1.045.573 1.773.764a8.818 8.818 0 0 0 2.25.287c.908 0 1.68-.14 2.317-.416.636-.277 1.113-.648 1.431-1.111.318-.464.477-.982.477-1.554 0-.664-.175-1.189-.524-1.575a3.122 3.122 0 0 0-1.241-.845Zm4.151-2.093h2.931v7.403h2.7v-7.403h2.917v-2.14h-8.548v2.14Zm17.191 2.42c-.282.24-.7.361-1.254.361h-1.5v-2.794h1.5c.554 0 .972.122 1.254.367.282.246.423.591.423 1.037 0 .445-.141.788-.423 1.029Zm2.665.777c.323-.513.484-1.116.484-1.806 0-.718-.172-1.343-.518-1.875-.345-.532-.836-.94-1.472-1.227-.636-.286-1.386-.43-2.25-.43h-4.362v9.544h2.7v-2.536h1.472l1.731 2.536h2.89l-2.058-3c.599-.29 1.061-.692 1.383-1.206Zm4.152 4.206h2.699v-9.543h-2.699v9.543Zm10.313-7.158c.404-.227.866-.34 1.384-.34.881 0 1.631.372 2.249 1.118l1.718-1.555a4.542 4.542 0 0 0-1.745-1.336c-.7-.309-1.486-.463-2.359-.463-1 0-1.897.211-2.692.634a4.74 4.74 0 0 0-1.875 1.765c-.454.755-.681 1.609-.681 2.563 0 .955.227 1.809.681 2.563a4.74 4.74 0 0 0 1.875 1.766c.795.422 1.692.634 2.692.634.873 0 1.659-.155 2.359-.464a4.538 4.538 0 0 0 1.745-1.336l-1.718-1.554c-.618.745-1.368 1.118-2.249 1.118-.518 0-.98-.114-1.384-.34a2.363 2.363 0 0 1-.941-.962c-.223-.414-.334-.888-.334-1.425 0-.536.111-1.01.334-1.424.223-.414.536-.734.941-.962Zm7.75-.245h2.931v7.403h2.7v-7.403h2.917v-2.14h-8.548v2.14Zm22.89 3.599c.636-.581 1.065-1.102 1.288-1.56.223-.46.334-.948.334-1.466 0-.582-.157-1.093-.47-1.534-.314-.44-.75-.78-1.309-1.016-.559-.236-1.202-.354-1.929-.354-.918 0-1.713.177-2.386.531a3.924 3.924 0 0 0-1.568 1.46l2.005 1.117c.19-.3.433-.53.729-.688.295-.16.62-.239.975-.239.399 0 .704.087.913.26.209.172.313.413.313.722 0 .236-.059.47-.177.702-.118.231-.35.51-.695.838l-3.572 3.34v1.69h7.43v-2.14h-3.681l1.8-1.663Z" fill="#00076B"/></g></svg>