<svg width="96" height="73" fill="none" xmlns="http://www.w3.org/2000/svg"><path fill-rule="evenodd" clip-rule="evenodd" d="M41.633 39.436c-2.025-3.327-4.866-5.839-8.523-7.535L42.318 0H19.004L6.465 28.77c-2.743 5.87-4.506 10.307-5.29 13.308C.393 45.078 0 48.08 0 51.08c0 6.524 2.09 11.808 6.27 15.853C10.448 70.978 15.803 73 22.334 73c6.53 0 11.885-2.022 16.065-6.067 4.18-4.045 6.27-9.329 6.27-15.853 0-4.436-1.013-8.317-3.037-11.644Zm51.33 0c-2.024-3.327-4.865-5.839-8.522-7.535L93.649 0H70.335l-12.54 28.77c-2.742 5.87-4.505 10.307-5.289 13.308-.784 3-1.175 6.002-1.175 9.002 0 6.524 2.09 11.808 6.269 15.853C61.78 70.978 67.135 73 73.665 73c6.53 0 11.886-2.022 16.066-6.067S96 57.604 96 51.08c0-4.436-1.012-8.317-3.037-11.644Z" fill="#fff"/></svg>