<svg width="23" height="19" fill="none" xmlns="http://www.w3.org/2000/svg"><path fill-rule="evenodd" clip-rule="evenodd" d="M22.333 2.248a9.126 9.126 0 0 1-2.618.718A4.572 4.572 0 0 0 21.719.444a9.143 9.143 0 0 1-2.895 1.106A4.554 4.554 0 0 0 15.496.111a4.558 4.558 0 0 0-4.44 5.597A12.944 12.944 0 0 1 1.658.945a4.54 4.54 0 0 0-.617 2.292 4.56 4.56 0 0 0 2.028 3.794 4.537 4.537 0 0 1-2.065-.57v.057a4.56 4.56 0 0 0 3.657 4.47 4.57 4.57 0 0 1-2.059.078 4.563 4.563 0 0 0 4.26 3.165 9.149 9.149 0 0 1-5.663 1.951c-.368 0-.731-.021-1.088-.063A12.91 12.91 0 0 0 7.1 18.167c8.386 0 12.972-6.946 12.972-12.97 0-.197-.005-.394-.014-.59a9.245 9.245 0 0 0 2.275-2.359Z" fill="#fff"/></svg>