<?xml version="1.0" encoding="UTF-8"?>
<svg width="372px" height="205px" viewBox="0 0 372 205" version="1.1" xmlns="http://www.w3.org/2000/svg" xmlns:xlink="http://www.w3.org/1999/xlink">
    <title>07CE3B08-C20D-4EC0-BE61-FD1618892244</title>
    <g id="Page-1" stroke="none" stroke-width="1" fill="none" fill-rule="evenodd" opacity="0.734793527">
        <g id="Index" transform="translate(-806, -1060)" fill="#574599" stroke="#2EECA6">
            <g id="secion-2" transform="translate(0, 724)">
                <path d="M1127.20801,336.5 C1130.36719,336.5 1133.36826,337.458791 1135.87542,339.149865 C1138.38257,340.840938 1140.3958,343.264294 1141.57928,346.193423 L1177.46324,435.006213 L1141.43827,530.472387 C1140.29977,533.48941 1138.28666,535.996313 1135.752,537.748961 C1133.21734,539.501608 1130.16113,540.5 1126.93644,540.5 L822.377762,540.5 C818.097555,540.5 814.222555,538.765103 811.417607,535.960155 C808.612659,533.155207 806.877762,529.280207 806.877762,525 C806.877762,523.08066 807.234239,521.178013 807.929059,519.388853 L839.536725,437.999113 L808.030742,357.658857 C806.468092,353.674099 806.66852,349.433189 808.2558,345.797805 C809.84308,342.162422 812.817212,339.132566 816.80197,337.569915 C818.604855,336.862901 820.524266,336.5 822.460826,336.5 Z" id="Rectangle-Copy-3"></path>
            </g>
        </g>
    </g>
</svg>