<?xml version="1.0" encoding="UTF-8"?>
<svg width="351px" height="205px" viewBox="0 0 351 205" version="1.1" xmlns="http://www.w3.org/2000/svg" xmlns:xlink="http://www.w3.org/1999/xlink">
    <title>08595146-BB96-4D0A-9663-9C9A0E9812BF</title>
    <g id="Page-1" stroke="none" stroke-width="1" fill="none" fill-rule="evenodd" opacity="0.734793527">
        <g id="Index" transform="translate(-1221, -1060)" fill="#574599" stroke="#2EECA6">
            <g id="secion-2" transform="translate(0, 724)">
                <path d="M1556,336.5 C1560.28021,336.5 1564.15521,338.234897 1566.96016,341.039845 C1569.7651,343.844793 1571.5,347.719793 1571.5,352 L1571.5,525 C1571.5,529.280207 1569.7651,533.155207 1566.96016,535.960155 C1564.15521,538.765103 1560.28021,540.5 1556,540.5 L1237.13903,540.5 C1232.85882,540.5 1228.98382,538.765103 1226.17887,535.960155 C1223.37393,533.155207 1221.63903,529.280207 1221.63903,525 C1221.63903,523.130603 1221.9772,521.276624 1222.6372,519.527613 L1254.53676,434.993787 L1223.35001,357.806577 C1221.74657,353.838058 1221.90348,349.595315 1223.45339,345.943841 C1225.00329,342.292368 1227.94619,339.232163 1231.91471,337.628721 C1233.75983,336.883217 1235.73125,336.5 1237.72129,336.5 Z" id="Rectangle-Copy-4"></path>
            </g>
        </g>
    </g>
</svg>