<svg width="372" height="205" xmlns="http://www.w3.org/2000/svg"><path d="M321.208.5c3.16 0 6.16.959 8.667 2.65a15.484 15.484 0 015.704 7.043l35.884 88.813-36.025 95.466a15.482 15.482 0 01-5.686 7.277 15.482 15.482 0 01-8.816 2.751H16.378c-4.28 0-8.155-1.735-10.96-4.54A15.451 15.451 0 01.878 189a15.5 15.5 0 011.051-5.611l31.608-81.39L2.03 21.66a15.451 15.451 0 01.225-11.861 15.451 15.451 0 018.546-8.228A15.5 15.5 0 0116.461.5z" fill="#574599" stroke="#2EECA6" fill-rule="evenodd" opacity=".735"/></svg>