<?xml version="1.0" encoding="UTF-8"?>
<svg width="379px" height="205px" viewBox="0 0 379 205" version="1.1" xmlns="http://www.w3.org/2000/svg" xmlns:xlink="http://www.w3.org/1999/xlink">
    <title>EFB8B826-FE17-4E7D-8108-35846C034CFB</title>
    <g id="Page-1" stroke="none" stroke-width="1" fill="none" fill-rule="evenodd" opacity="0.734793527">
        <g id="Index" transform="translate(-384, -1060)" fill="#574599" stroke="#2EECA6">
            <g id="secion-2" transform="translate(0, 724)">
                <path d="M712.208006,336.5 C715.367188,336.5 718.368265,337.458791 720.875417,339.149865 C723.38257,340.840938 725.395798,343.264294 726.579285,346.193423 L762.46324,435.006213 L726.438269,530.472387 C725.299769,533.48941 723.286656,535.996313 720.751996,537.748961 C718.217336,539.501608 715.161129,540.5 711.936442,540.5 L400,540.5 C395.719793,540.5 391.844793,538.765103 389.039845,535.960155 C386.234897,533.155207 384.5,529.280207 384.5,525 L384.5,352 C384.5,347.719793 386.234897,343.844793 389.039845,341.039845 C391.844793,338.234897 395.719793,336.5 400,336.5 Z" id="Rectangle"></path>
            </g>
        </g>
    </g>
</svg>