<?xml version="1.0" encoding="UTF-8"?>
<svg width="351px" height="195px" viewBox="0 0 351 195" version="1.1" xmlns="http://www.w3.org/2000/svg" xmlns:xlink="http://www.w3.org/1999/xlink">
    <title>19CC0E08-4DB2-465E-BFA7-FFB4A85975B7</title>
    <g id="Page-1" stroke="none" stroke-width="1" fill="none" fill-rule="evenodd" opacity="0.734793527">
        <g id="iPhone-11-Pro-Max" transform="translate(-48, -474)" fill="#574599" stroke="#2EECA6">
            <path d="M285.846278,397 C289.766027,397 293.377217,398.463353 296.126314,400.899532 C298.875411,403.335711 300.762414,406.744716 301.233791,410.636019 L319.996585,565.526377 L301.134919,732.242498 C300.69164,736.160588 298.812747,739.599964 296.058903,742.059817 C293.305058,744.51967 289.676261,746 285.733176,746 L142.5,746 C138.219793,746 134.344793,744.265103 131.539845,741.460155 C128.734897,738.655207 127,734.780207 127,730.5 L127,412.5 C127,408.219793 128.734897,404.344793 131.539845,401.539845 C134.344793,398.734897 138.219793,397 142.5,397 Z" id="Rectangle-Copy-5" transform="translate(223.5, 571.5) rotate(90) translate(-223.5, -571.5)"></path>
        </g>
    </g>
</svg>