<?xml version="1.0" encoding="UTF-8"?>
<svg width="351px" height="175px" viewBox="0 0 351 175" version="1.1" xmlns="http://www.w3.org/2000/svg" xmlns:xlink="http://www.w3.org/1999/xlink">
    <title>9395D815-85C0-4EC4-872F-E79C2F7A051A</title>
    <g id="Page-1" stroke="none" stroke-width="1" fill="none" fill-rule="evenodd" opacity="0.734793527">
        <g id="iPhone-11-Pro-Max" transform="translate(-48, -896)" fill="#574599" stroke="#2EECA6">
            <path d="M294.262533,808.762533 C298.54274,808.762533 302.41774,810.49743 305.222688,813.302378 C308.027636,816.107326 309.762533,819.982326 309.762533,824.262533 L309.762533,1142.26253 C309.762533,1146.54274 308.027636,1150.41774 305.222688,1153.22269 C302.41774,1156.02764 298.54274,1157.76253 294.262533,1157.76253 L152.737467,1157.76253 C148.45726,1157.76253 144.58226,1156.02764 141.777312,1153.22269 C138.972364,1150.41774 137.237467,1146.54274 137.237467,1142.26253 L137.237467,824.262533 C137.237467,819.982326 138.972364,816.107326 141.777312,813.302378 C144.58226,810.49743 148.45726,808.762533 152.737467,808.762533 Z" id="Rectangle-Copy-11" transform="translate(223.5, 983.2625) rotate(90) translate(-223.5, -983.2625)"></path>
        </g>
    </g>
</svg>