<?xml version="1.0" encoding="UTF-8"?>
<svg width="180px" height="191px" viewBox="0 0 180 191" version="1.1" xmlns="http://www.w3.org/2000/svg" xmlns:xlink="http://www.w3.org/1999/xlink">
    <title>FEAD0A77-DA8B-4F5A-9C24-C1DF4C2A6330</title>
    <g id="Page-1" stroke="none" stroke-width="1" fill="none" fill-rule="evenodd">
        <g id="Index" transform="translate(-1388, -1559)">
            <g id="Group-10-Copy" transform="translate(1477.7308, 1654.4738) scale(-1, 1) rotate(90) translate(-1477.7308, -1654.4738)translate(1382.257, 1564.743)">
                <path d="M159.01203,96.99533 L159.01203,96.99533 C161.885143,90.8634045 171.088151,92.9634141 171.015619,99.7353262 L171.015619,99.7353262 L171.015619,99.7353262 C176.265217,95.4568021 183.645543,101.342119 180.642725,107.411753 L180.642725,107.411753 C187.227761,105.834826 191.323676,114.339822 185.984481,118.504855 L185.984481,118.504855 C192.601943,119.941838 192.601943,129.381215 185.984481,130.818198 L185.984481,130.818198 C191.323676,134.983231 187.227761,143.488227 180.642725,141.9113 L180.642725,141.9113 C183.645543,147.980934 176.265217,153.866251 171.015619,149.587727 L171.015619,149.587727 L171.015619,149.587727 C171.088151,156.359639 161.885143,158.459649 159.01203,152.327723 L159.01203,152.327723 L159.01203,152.327723 C156.138916,158.459649 146.935908,156.359639 147.00844,149.587727 L147.00844,149.587727 L147.00844,149.587727 C141.758843,153.866251 134.378517,147.980934 137.381334,141.9113 L137.381334,141.9113 C130.796298,143.488227 126.700383,134.983231 132.039579,130.818198 L132.039579,130.818198 L132.039579,130.818198 C125.422117,129.381215 125.422117,119.941838 132.039579,118.504855 L132.039579,118.504855 L132.039579,118.504855 C126.700383,114.339822 130.796298,105.834826 137.381334,107.411753 L137.381334,107.411753 C134.378517,101.342119 141.758843,95.4568021 147.00844,99.7353262 L147.00844,99.7353262 L147.00844,99.7353262 C146.935908,92.9634141 156.138916,90.8634045 159.01203,96.99533 Z" id="Fill-38" fill="#4E5D99"></path>
                <path d="M158.695334,148.938893 C158.781954,165.709103 145.256903,179.374098 128.486692,179.461554 C111.716482,179.548175 98.0514869,166.023123 97.964031,149.252913 C97.8774106,132.482703 111.402462,118.817708 128.172672,118.73026 C144.942883,118.644485 158.607878,132.168683 158.695334,148.938893" id="Fill-54" fill="#C5A7CD"></path>
                <g id="Green-Arrow-Icon-(1)" transform="translate(0, 0)" fill-rule="nonzero">
                    <polygon id="Path" fill="#2EECA6" points="71.3923659 0 0 51.6164543 9.10598389 139.118101 89.6043337 175 161 123.380253 151.890716 35.8818991"></polygon>
                    <polygon id="Path" fill="#171C26" points="117.261723 110.406813 103.857909 108.287586 107.084876 88.2843105 109.386073 82.7749754 107.617193 81.4713397 103.156969 85.7982312 49.9417765 124 42 113.141828 95.2151929 74.940059 100.753276 72.0871274 100.052337 70.0170324 94.0480626 70.4657714 73.8596831 67.2721913 76.0021773 54 118.217249 60.6754012 124 68.5856535"></polygon>
                </g>
            </g>
        </g>
    </g>
</svg>