<svg width="180" height="191" xmlns="http://www.w3.org/2000/svg"><g fill="none" fill-rule="evenodd"><path d="M96.995 159.012c-6.132 2.873-4.032 12.076 2.74 12.004-4.278 5.25 1.607 12.63 7.677 9.627-1.577 6.585 6.928 10.68 11.093 5.341 1.437 6.618 10.876 6.618 12.313 0 4.165 5.34 12.67 1.244 11.093-5.341 6.07 3.003 11.955-4.378 7.677-9.627 6.772.072 8.872-9.13 2.74-12.004 6.132-2.873 4.032-12.076-2.74-12.004 4.278-5.25-1.607-12.63-7.677-9.627 1.577-6.585-6.928-10.68-11.093-5.341-1.437-6.618-10.876-6.618-12.313 0-4.165-5.34-12.67-1.244-11.093 5.341-6.07-3.002-11.955 4.378-7.677 9.627-6.772-.072-8.872 9.13-2.74 12.004z" fill="#4E5D99"/><path d="M148.939 158.695c16.77.087 30.435-13.438 30.523-30.208.086-16.77-13.439-30.436-30.21-30.523-16.77-.087-30.434 13.438-30.522 30.209-.086 16.77 13.439 30.435 30.209 30.522" fill="#C5A7CD"/><g fill-rule="nonzero"><path fill="#2EECA6" d="M0 71.392L51.616 0l87.502 9.106L175 89.604 123.38 161l-87.498-9.11z"/><path fill="#171C26" d="M110.407 117.262l-2.12-13.404-20.003 3.227-5.509 2.301-1.304-1.769 4.327-4.46L124 49.942 113.142 42 74.94 95.215l-2.853 5.538-2.07-.7.449-6.005-3.194-20.188L54 76.002l6.675 42.215 7.91 5.783z"/></g></g></svg>