<?xml version="1.0" encoding="UTF-8"?>
<svg width="51px" height="51px" viewBox="0 0 51 51" version="1.1" xmlns="http://www.w3.org/2000/svg" xmlns:xlink="http://www.w3.org/1999/xlink">
    <title>A4950E15-11E4-42E3-9C92-A9A3ABF7C349</title>
    <g id="Page-1" stroke="none" stroke-width="1" fill="none" fill-rule="evenodd">
        <g id="Index" transform="translate(-373, -2961)" stroke="#181C26" stroke-width="3">
            <g id="Group-16" transform="translate(375, 2963)">
                <path d="M47,23.5 C47,10.5217331 36.4782659,0 23.5,0 C10.5217331,0 0,10.5217331 0,23.5 C0,36.4782659 10.5217331,47 23.5,47 C36.4782659,47 47,36.4782659 47,23.5 Z" id="path148" stroke-dasharray="71.99999820000001,2.6666666,2.6666666,2.6666666,2.6666666,2.6666666" transform="translate(23.5, 23.5) scale(-1, 1) rotate(-180) translate(-23.5, -23.5)"></path>
                <path d="M21.9333329,29.766666 C21.9333329,26.7386128 19.4783663,24.2833328 16.4499997,24.2833328 C13.421633,24.2833328 10.9666664,26.7386128 10.9666664,29.766666 C10.9666664,32.7950326 13.421633,35.2499993 16.4499997,35.2499993 C19.4783663,35.2499993 21.9333329,32.7950326 21.9333329,29.766666 Z" id="path150" transform="translate(16.45, 29.7667) scale(-1, 1) rotate(-180) translate(-16.45, -29.7667)"></path>
                <polygon id="path152" transform="translate(20.3667, 14.1) scale(-1, 1) rotate(-180) translate(-20.3667, -14.1)" points="25.0666661 9.3999998 15.6666663 9.3999998 15.6666663 18.7999996 25.0666661 18.7999996"></polygon>
                <polygon id="path154" transform="translate(32.9, 25.0667) scale(-1, 1) rotate(-180) translate(-32.9, -25.0667)" points="28.1999994 20.3666662 32.8999993 29.766666 37.5999992 20.3666662"></polygon>
            </g>
        </g>
    </g>
</svg>