<svg width="300" height="691" xmlns="http://www.w3.org/2000/svg"><g fill="none" fill-rule="evenodd"><path d="M110.136 10.846c8.453-18.29 35.528-12.026 35.315 8.172 15.444-12.761 37.157 4.793 28.323 22.896 19.373-4.703 31.423 20.664 15.715 33.087 19.469 4.286 19.469 32.44 0 36.726 15.708 12.422 3.658 37.79-15.715 33.086 8.834 18.104-12.879 35.657-28.323 22.896.213 20.198-26.862 26.462-35.315 8.173-8.452 18.289-35.528 12.025-35.314-8.173-15.445 12.761-37.158-4.792-28.323-22.896-19.373 4.704-31.424-20.664-15.716-33.086-19.468-4.286-19.468-32.44 0-36.726C15.075 62.578 27.126 37.21 46.5 41.914 37.664 23.811 59.377 6.257 74.822 19.018c-.214-20.198 26.862-26.461 35.314-8.172z" fill="#4E5D99"/><path d="M236 235.991c.205 39.764-31.864 72.165-71.628 72.373-39.764.205-72.165-31.864-72.372-71.628-.205-39.764 31.864-72.165 71.628-72.372 39.764-.204 72.165 31.863 72.372 71.627" fill="#C5A7CD"/><path d="M291.5 440a8.5 8.5 0 018.5-8.5 8.5 8.5 0 01-8.5-8.5 8.5 8.5 0 01-8.5 8.5 8.5 8.5 0 018.5 8.5m-266 251a8.5 8.5 0 018.5-8.5 8.5 8.5 0 01-8.5-8.5 8.5 8.5 0 01-8.5 8.5 8.5 8.5 0 018.5 8.5m-8-284c0-9.665 7.835-17.5 17.5-17.5-9.665 0-17.5-7.835-17.5-17.5 0 9.665-7.835 17.5-17.5 17.5 9.665 0 17.5 7.835 17.5 17.5" fill="#D8D8D8"/><path d="M249.705 477.146l-11.41 3.708m-191.59 64.293l-11.41 3.706M141 628v-12m0-215v12m66.523 192.849l-7.046-9.698m-124-176l7.046 9.698m-48.228 47.297l11.41 3.708m203 68l-11.41-3.708m-30.772-124.995l-7.046 9.698m-124 176l7.046-9.698" stroke="#2EECA6" stroke-linecap="round" stroke-linejoin="round" stroke-width="1.5"/><path d="M190.5 372a8.5 8.5 0 018.5-8.5 8.5 8.5 0 01-8.5-8.5 8.5 8.5 0 01-8.5 8.5 8.5 8.5 0 018.5 8.5M96 489c0-8.837 7.163-16 16-16-8.837 0-16-7.163-16-16 0 8.837-7.163 16-16 16 8.837 0 16 7.163 16 16" fill="#D8D8D8"/></g></svg>