<?xml version="1.0" encoding="UTF-8"?>
<svg width="818px" height="625px" viewBox="0 0 818 625" version="1.1" xmlns="http://www.w3.org/2000/svg" xmlns:xlink="http://www.w3.org/1999/xlink">
    <title>E4788CD1-B405-46EC-82E9-E6FF22D1435E</title>
    <g id="Page-1" stroke="none" stroke-width="1" fill="none" fill-rule="evenodd">
        <g id="Form" transform="translate(-754, -563)" fill="#233044">
            <g id="Combined-Shape-2" transform="translate(754, 563)">
                <path d="M668.175958,3.16630776 C662.50026,3.71530467 656.837146,4.27706895 651.174032,4.82606586 C646.69388,5.32399329 642.213728,5.80915335 637.733576,6.28154604 C633.341516,6.79224084 628.962042,7.30293564 624.582567,7.80086307 C607.077253,9.89471176 589.609694,12.2311405 572.179888,14.7846145 C537.332862,19.8915625 502.636852,25.8922264 468.129613,32.7227693 C415.915704,43.064339 364.104506,55.2699448 312.696018,69.4927949 C286.998067,76.6297548 261.388208,84.2774094 235.879027,92.5506652 C223.130729,96.6872931 210.4076,100.977129 197.697056,105.484011 C191.354369,107.731068 184.999097,110.016427 178.656409,112.365623 C175.485066,113.552989 172.326307,114.740354 169.154963,115.92772 C168.349542,116.234137 167.544122,116.540553 166.738701,116.834203 C165.392139,117.370432 164.045576,117.893895 162.699013,118.430124 C160.005888,119.477049 157.300178,120.523973 154.607053,121.596432 C151.712573,122.694426 148.151104,124.188208 144.76582,125.554317 C141.367952,126.933193 137.970084,128.312069 134.572215,129.703712 C131.224686,131.159192 127.889741,132.589138 124.517042,134.03185 C121.169513,135.461796 117.809399,136.904509 114.575132,138.411058 L104.771653,142.879638 C101.487047,144.37342 98.3912111,145.931039 95.1946981,147.463124 C88.7387485,150.48899 82.7987714,153.680833 76.6951933,156.821606 C73.6371119,158.391992 70.8936479,160.026216 67.9614135,161.622137 L63.6574471,164.03517 C62.1850375,164.826747 60.9391525,165.656626 59.5674205,166.46097 C56.8742953,168.082426 54.1937549,169.71665 51.5006297,171.350873 C49.034029,172.997864 46.5674284,174.632087 44.1008278,176.279078 C34.4987039,182.854273 26.2305579,189.480538 19.661346,195.940827 C17.8869037,197.830398 16.2383083,199.732736 14.5267895,201.622307 C12.9914565,203.499111 11.7455715,205.350379 10.3235007,207.214415 C9.20346265,209.040149 8.07083991,210.853116 7.05147944,212.653315 C6.62359974,213.547031 6.18313534,214.427979 5.74267094,215.321695 L5.08826669,216.662269 C4.87432684,217.09636 4.72331047,217.53045 4.54712471,217.964541 C1.62747498,224.986594 0.243158298,231.625627 0.0166337494,238.711517 C-0.0462897362,241.90336 0.0292184465,245.49099 0.960486034,250.521334 C1.40095043,252.972669 2.10569347,255.500609 2.78526712,257.58169 C3.50259485,259.675539 4.20733789,261.488505 4.94983502,263.122728 C6.42224458,266.378408 7.98274703,269.046788 9.70685053,271.574727 C13.1298881,276.579536 17.1695759,280.958744 22.5558263,285.10814 C27.8917379,289.232 34.6245508,293.062211 43.4086694,296.190217 C52.1676186,299.33099 63.1037204,301.667419 75.4744777,303.199503 C85.7561752,304.47624 96.9943098,305.255049 108.685493,305.650838 C120.376677,306.072161 132.533494,306.123231 144.879082,305.957255 C157.22467,305.765744 169.796783,305.344421 182.38148,304.731587 C188.698998,304.42517 195.016516,304.080451 201.334034,303.659128 C205.222705,303.391013 209.098792,303.122899 212.962294,302.854784 C212.962294,302.854784 213.51602,302.816482 214.598304,302.72711 C233.714286,294.117647 248.321429,279.411765 248.321429,250 C248.321429,220.588235 219.107143,205.882353 206.720284,206.052585 C205.940033,206.116421 205.549907,206.141956 205.549907,206.141956 C203.108476,206.346234 200.679629,206.524977 198.225613,206.70372 C198.338876,206.652651 198.477307,206.601581 198.615739,206.563279 L211.087174,201.788283 C216.951643,199.566761 222.86645,197.396308 228.793843,195.276924 C240.648627,191.012623 252.60409,186.90153 264.622475,182.91811 C288.684416,174.976806 312.998051,167.597266 337.487872,160.651817 C386.467513,146.824755 436.088974,134.861729 486.037637,124.686135 C519.085051,117.970499 552.258313,112.046439 585.544837,106.990561 C602.181806,104.475389 618.831361,102.151727 635.506084,100.083413 C639.671619,99.5854861 643.837154,99.0747913 648.015273,98.5640965 C652.08013,98.1044711 656.157572,97.6320784 660.235014,97.1724531 C663.142079,96.8660362 666.023975,96.5596194 668.93104,96.2532025 C667.584477,97.0703142 666.250499,97.8874258 664.916521,98.7173049 C633.681303,117.86836 600.709397,135.934188 567.385119,153.438253 C533.607792,171.146595 499.327077,188.242103 464.794668,204.941823 C447.515879,213.278916 430.186751,221.51387 412.807284,229.659452 C404.111258,233.693941 395.402648,237.715662 386.694037,241.750151 C378.350383,245.554827 370.019314,249.359504 361.663075,253.151412 C356.26424,255.245261 350.840235,257.33911 345.4414,259.420191 L328.175196,266.212432 C288.457892,282.031203 249.030036,298.450041 209.652518,316.554172 C189.919713,325.670074 170.262416,335.130695 150.303087,346.021262 C140.285668,351.523998 130.268249,357.282082 119.558672,364.533948 C114.185006,368.249253 108.672909,372.19437 102.292467,377.914152 C100.643872,379.433469 99.020446,380.965554 97.1956649,382.880659 C95.3960532,384.782997 93.5209334,386.864079 91.3941195,389.6729 C89.2924751,392.481721 86.9643062,395.826772 84.560629,400.882651 C84.271181,401.533787 83.9691482,402.184923 83.6797002,402.823291 C83.4028369,403.474427 83.0756347,404.329841 82.7987714,405.083116 C82.4967387,405.861925 82.23246,406.627967 81.9555967,407.432312 C81.6787334,408.31326 81.40187,409.258046 81.1501761,410.177296 C80.1685697,413.75216 79.3883185,418.501621 79.3757338,423.531965 L79.3757338,423.685174 C79.3883185,426.76211 79.6400124,430.081626 80.2566626,433.592653 C80.8858975,437.116447 81.9052579,440.793449 83.3399134,444.406615 C86.2092243,451.645714 90.878147,458.246444 95.6225778,462.881 C100.429932,467.604927 105.186948,470.669095 109.314728,472.87785 C113.518017,475.099373 117.154995,476.452714 120.515109,477.525173 C127.122075,479.58072 132.407647,480.385064 137.215002,480.946828 C142.022356,481.47029 146.288568,481.649034 150.328256,481.661801 C156.268233,481.700103 161.717407,481.419221 166.940056,480.997898 C172.150121,480.576574 177.15883,480.002043 182.016524,479.350907 C200.377597,476.835735 217.341768,473.222569 234.054246,469.264685 C242.385316,467.285742 250.615708,465.191894 258.770591,463.034208 C266.862552,460.88929 275.042605,458.616698 282.681516,456.510082 C301.533392,451.313762 320.473361,446.13021 339.451085,440.895588 L338.305877,441.444585 C314.231351,452.922451 290.093902,464.413084 265.855776,476.37611 C263.577946,477.486871 261.539225,478.521028 259.475334,479.593487 C257.411444,480.665946 255.372723,481.76394 253.321417,482.900236 C249.218806,485.185595 245.10361,487.598628 240.787059,490.381915 C236.445339,493.216271 232.02811,496.203835 226.717368,500.774554 C225.38339,501.923617 223.973904,503.213121 222.451155,504.745206 C220.966161,506.213453 219.267227,508.039187 217.467615,510.299012 C215.668004,512.584371 213.591529,515.393192 211.351453,519.810702 C210.256584,522.019457 209.111376,524.649536 208.142355,527.981819 C208.029092,528.403142 207.928415,528.798931 207.802568,529.220254 L207.475366,530.637432 C207.248841,531.594985 207.060071,532.552538 206.909054,533.522858 C206.833546,533.969716 206.758038,534.505945 206.68253,535.080477 C206.619606,535.655009 206.569268,536.204006 206.506344,536.76577 C206.405667,537.889298 206.355328,539.012827 206.342743,540.149123 C206.330158,541.553534 206.380497,542.957944 206.493759,544.362355 C206.544098,545.051793 206.619606,545.753998 206.707699,546.443436 C206.808377,547.171176 206.921639,547.911684 207.060071,548.639424 C207.576043,551.563152 208.394049,554.397508 209.488917,557.129725 C209.753196,557.819163 210.042644,558.483066 210.344677,559.146969 C210.646709,559.785338 210.936158,560.385404 211.250775,561.011005 C211.88001,562.211138 212.572168,563.424038 213.289496,564.573102 C214.006824,565.683863 214.661228,566.590346 215.428894,567.586201 C215.781266,568.071361 216.158807,568.530986 216.536348,569.003379 C216.913889,569.463004 217.329184,569.948164 217.643801,570.305651 C218.335959,571.046158 219.053287,571.799433 219.770615,572.514406 C220.500527,573.229379 221.293363,573.957119 221.884844,574.455046 C222.539248,575.004043 223.181068,575.527505 223.860641,576.063735 C224.52763,576.57443 225.244958,577.097892 225.748346,577.455378 C226.880969,578.22142 228.139438,579.038532 229.209138,579.651366 C230.203329,580.21313 231.210105,580.74936 232.24205,581.260054 C233.198487,581.71968 233.991323,582.077166 234.884836,582.460187 C235.300131,582.651698 235.728011,582.817673 236.168475,582.996417 C236.533431,583.136858 236.910972,583.277299 237.301098,583.430507 C238.018426,583.698622 238.8616,583.992271 239.516005,584.209317 C240.182994,584.413595 240.837398,584.617873 241.491802,584.822151 C242.196545,585.039196 242.775441,585.192404 243.354337,585.332845 C243.945818,585.486054 244.537299,585.639262 245.116195,585.779703 C246.236233,586.035051 247.268178,586.239329 248.325293,586.456374 C248.388216,586.469141 248.438555,586.481909 248.501478,586.494676 C249.558593,586.673419 250.640877,586.839395 251.723161,586.967069 L253.346587,587.133045 C253.610865,587.145812 253.887729,587.171347 254.164592,587.196881 C254.315608,587.196881 254.491794,587.209649 254.642811,587.222416 C255.951619,587.273486 257.260428,587.286253 258.544067,587.273486 C259.701859,587.235183 260.859651,587.171347 262.017443,587.094742 C262.910957,587.005371 263.817055,586.903232 264.710568,586.826628 C265.616666,586.724489 266.220732,586.62235 267.013568,586.520211 C267.378524,586.469141 267.756065,586.418072 268.095852,586.367002 C268.448223,586.315933 268.762841,586.252096 269.090043,586.213794 C269.731862,586.098888 270.373682,585.983981 271.015502,585.869075 L272.789944,585.524356 L276.150058,584.834918 C280.454024,583.915667 284.304942,582.945347 288.092936,581.96226 C295.631169,579.957783 302.754108,577.876701 309.788953,575.74455 C323.858645,571.454714 337.550795,566.947833 351.167438,562.338812 C378.388137,553.120771 405.218712,543.455872 431.998947,533.420719 C447.201261,527.700937 462.365821,521.866249 477.555551,515.827283 C484.162517,513.197205 490.744313,510.541592 497.351279,507.809375 C496.822722,509.213785 496.306749,510.74587 495.828531,512.456697 C494.771416,516.248606 493.802395,521.03637 493.97858,527.330683 C494.129597,531.199197 494.771416,535.514568 496.231241,539.91931 C497.72882,544.362355 499.981481,548.639424 502.687191,552.25259 C502.73753,552.316426 502.787868,552.367496 502.813038,552.431333 C505.44324,555.916825 508.853692,559.198039 512.440331,561.687676 C516.039555,564.190081 519.75204,565.93921 523.086985,567.075506 C526.459684,568.211802 529.467426,568.811869 532.122797,569.14382 C534.72783,569.450237 537.018245,569.526841 539.09472,569.488539 C543.713303,569.373633 547.16151,568.760799 550.169253,568.135198 C553.101488,567.484062 555.631012,566.730787 557.883672,565.99028 C562.376409,564.470963 566.063726,562.875041 569.474178,561.27912 C576.25733,558.087278 581.983367,554.844366 587.48288,551.550384 C598.393812,544.975189 608.222461,538.22125 617.812,531.390707 C627.37637,524.534629 636.600953,517.58918 645.67452,510.656498 C647.776164,509.009507 649.915562,507.388051 652.042376,505.753828 C650.205011,509.469133 648.392814,513.17167 646.555448,516.886975 C641.697755,526.526339 636.613538,536.101867 631.378304,545.268838 C628.760687,549.826789 626.092731,554.333671 623.462529,558.483066 C622.153721,560.538613 620.844912,562.54309 619.636781,564.279452 C618.504158,565.926443 617.296028,567.471295 616.956241,567.879851 C616.968825,567.879851 616.98141,567.867083 616.993995,567.854316 C605.32847,590.46652 598.892857,602.941176 613.5,617.647059 C623.238095,627.45098 640.997781,627.45098 666.779057,617.647059 C667.471215,616.906551 667.974603,616.370322 668.326974,616.000068 C668.629007,615.668116 668.792608,615.489373 668.792608,615.489373 C672.526068,610.918655 675.093347,607.65872 676.494443,605.709568 C678.558333,602.811375 680.395699,600.079158 682.157557,597.359708 C685.693856,591.95911 688.8652,586.711721 691.961036,581.464332 C698.127537,570.956787 703.828405,560.500311 709.327918,549.903394 C710.687065,547.247781 712.046212,544.5794 713.405359,541.923787 C714.072348,540.583213 714.739337,539.24264 715.406326,537.914833 C716.614457,535.437963 717.835173,532.948326 719.043304,530.471456 C724.001674,520.219258 728.632843,509.839386 732.823547,499.548886 C736.963912,489.296688 740.714152,479.04449 743.105245,469.583869 C744.35113,464.82164 745.194304,460.276456 745.647353,456.088759 C746.112987,451.875527 746.20108,447.968711 745.873878,444.457685 C745.848709,443.742712 745.760616,443.066041 745.659938,442.427673 C745.559261,441.776537 745.483752,441.112634 745.383075,440.461498 C745.131381,439.210296 744.892272,437.959093 744.640578,436.707891 C743.218507,431.17962 741.305633,426.545065 738.373399,421.85944 C737.668656,420.774213 736.913574,419.676219 736.032645,418.501621 C733.993924,415.833241 731.451815,413.088257 728.456657,410.675224 C726.103319,408.785653 723.699642,407.228034 721.384057,405.989599 C721.635751,405.632112 721.874861,405.274626 722.11397,404.904372 C722.277571,404.661792 722.416003,404.43198 722.579604,404.1894 C722.743205,403.882983 722.94456,403.589333 723.120746,403.282916 C723.309516,402.9765 723.473117,402.670083 723.661888,402.363666 C723.850658,402.018947 724.039429,401.674228 724.228199,401.342276 C724.668663,400.525164 725.071374,399.682518 725.461499,398.827104 C725.486669,398.776035 725.524423,398.724965 725.549592,398.686663 C726.745138,396.005516 727.940685,393.043486 729.035553,389.37925 C730.092668,385.702248 731.112028,381.310273 731.338553,375.45005 C731.451815,372.117766 731.263045,368.338625 730.394701,364.023254 C729.526356,359.733417 727.890346,354.881817 725.172051,350.196192 C723.435363,347.157558 721.245626,344.259365 718.76644,341.667589 C726.040395,337.160707 733.326935,332.475082 741.154617,326.755301 C745.194304,323.742201 749.322085,320.588661 754.230117,316.043477 C755.476002,314.881646 756.759641,313.617677 758.156542,312.136662 C759.566028,310.64288 761.076192,308.983122 762.800296,306.761599 C764.511814,304.489007 766.424688,301.897231 768.65218,297.530791 C769.759633,295.334803 770.93001,292.717492 771.987125,289.180931 C773.031654,285.618834 774.000676,281.035349 773.950337,275.20066 C773.899999,271.255543 773.346272,266.90187 771.999709,262.497127 C771.961955,262.407756 771.936786,262.292849 771.899032,262.19071 C770.565054,257.926409 768.765442,253.304621 765.996809,248.325347 C764.587323,245.848477 762.913558,243.269468 760.96293,240.728761 C758.987132,238.16252 756.671548,235.621813 754.053931,233.221548 C748.856451,228.395482 742.236901,224.360993 735.604765,221.909658 C728.960045,219.407254 722.441172,218.398631 716.765474,218.194353 C706.597038,217.926239 698.756772,219.777507 692.049128,221.896891 C688.689014,222.994885 685.593179,224.220552 682.635775,225.573893 C681.100442,226.276099 679.753879,226.927235 678.117869,227.782648 C676.494443,228.638062 674.896186,229.531778 673.335684,230.489331 C673.323099,230.502098 673.29793,230.514865 673.285345,230.527633 C673.121744,230.642539 672.945558,230.770213 672.769372,230.897887 C670.265018,232.417204 667.760663,233.923753 665.243724,235.44307 C662.739369,236.94962 660.209845,238.328496 657.70549,239.771209 C655.226305,241.252224 652.583518,242.605565 650.003655,244.009976 C647.411208,245.401619 644.81876,246.793262 642.125635,248.121069 C631.579659,253.559968 620.555464,258.628614 609.405422,263.556819 C580.422865,276.298654 550.055991,287.508405 519.311576,298.015951 C485.257385,309.608723 450.57396,320.192872 415.651426,330.304629 C406.691121,332.896406 397.705647,335.44988 388.707589,337.977819 C390.658217,337.237311 392.608845,336.496804 394.559473,335.756296 L394.773413,335.666925 L394.823752,335.64139 C399.681445,333.496472 404.526553,331.351554 409.359077,329.181101 C413.826644,327.176624 418.294212,325.172147 422.761779,323.154902 L449.453922,310.987599 C467.223514,302.816482 484.917599,294.543226 502.586513,286.142297 C537.936927,269.32767 573.111156,252.078953 608.121783,234.025892 C642.691946,216.113272 677.073339,197.62612 711.303715,176.942981 C714.047179,175.270455 716.803228,173.585163 719.546692,171.887102 C723.624134,169.384698 727.663821,166.805689 731.690924,164.22668 C739.732546,159.055896 747.64832,153.731902 755.262062,148.30577 C770.50213,137.453505 784.659915,125.988407 795.117798,114.536076 C797.760584,111.688953 800.139092,108.854597 802.253321,106.020241 C804.39272,103.224187 806.293009,100.428132 807.92902,97.6831479 C811.238795,92.1931788 813.579549,86.9074876 815.16522,81.7622375 C816.750892,76.60422 817.644406,71.6249457 817.921269,66.4541609 C818.172963,61.2961434 817.87093,55.8827785 816.285258,49.4224893 C815.429499,46.1157405 814.208783,42.6047137 812.799297,39.578847 C811.402396,36.540213 809.892232,33.8846 808.281391,31.5481713 C805.084878,26.8370118 801.598917,23.0323355 797.521475,19.5468435 C793.444033,16.0741188 788.737356,13.00995 783.212674,10.3288023 C777.650238,7.660422 771.194289,5.46443436 763.88258,3.77914152 C754.179778,1.6597581 743.09266,0.43409058 731.124613,0.14044107 C728.192379,0.05106948 725.209805,0 722.189478,0 C712.990064,0 703.450864,0.40855584 693.836155,0.995854861 C685.253392,1.72359495 676.720967,2.45133504 668.175958,3.16630776 Z" id="Combined-Shape"></path>
            </g>
        </g>
    </g>
</svg>