<?xml version="1.0" encoding="UTF-8"?>
<svg width="300px" height="691px" viewBox="0 0 300 691" version="1.1" xmlns="http://www.w3.org/2000/svg" xmlns:xlink="http://www.w3.org/1999/xlink">
    <title>0B8930FC-D851-4901-8EBD-E9486444A9CD</title>
    <g id="Page-1" stroke="none" stroke-width="1" fill="none" fill-rule="evenodd">
        <g id="Form" transform="translate(-359, -518)">
            <g id="Group-4" transform="translate(359, 518)">
                <g id="Group-10-Copy-2" transform="translate(16.1818, 0)">
                    <path d="M93.9545455,10.8457436 L93.9545455,10.8457436 C102.40726,-7.44349142 129.482557,-1.17995018 129.269168,19.0181251 L129.269168,19.0181251 L129.269168,19.0181251 C144.71351,6.25689156 166.426468,23.8105868 157.592164,41.914028 L157.592164,41.914028 C176.965374,37.2106455 189.015576,62.5778603 173.307635,75.0005929 L173.307635,75.0005929 C192.776243,79.2865756 192.776243,107.440697 173.307635,111.72668 L173.307635,111.72668 C189.015576,124.149412 176.965374,149.516627 157.592164,144.813245 L157.592164,144.813245 C166.426468,162.916686 144.71351,180.470381 129.269168,167.709148 L129.269168,167.709148 L129.269168,167.709148 C129.482557,187.907223 102.40726,194.170764 93.9545455,175.881529 L93.9545455,175.881529 L93.9545455,175.881529 C85.5018309,194.170764 58.4265336,187.907223 58.6399225,167.709148 L58.6399225,167.709148 L58.6399225,167.709148 C43.1955805,180.470381 21.4826229,162.916686 30.3169272,144.813245 L30.3169272,144.813245 C10.9437172,149.516627 -1.10648468,124.149412 14.6014556,111.72668 L14.6014556,111.72668 L14.6014556,111.72668 C-4.86715186,107.440697 -4.86715186,79.2865756 14.6014556,75.0005929 L14.6014556,75.0005929 L14.6014556,75.0005929 C-1.10648468,62.5778603 10.9437172,37.2106455 30.3169272,41.914028 L30.3169272,41.914028 C21.4826229,23.8105868 43.1955805,6.25689156 58.6399225,19.0181251 L58.6399225,19.0181251 L58.6399225,19.0181251 C58.4265336,-1.17995018 85.5018309,-7.44349142 93.9545455,10.8457436 Z" id="Fill-38" fill="#4E5D99"></path>
                    <path d="M219.818182,235.99134 C220.023568,275.755194 187.954316,308.15627 148.190468,308.363636 C108.42662,308.569022 76.0255486,276.499767 75.8181818,236.735913 C75.6127961,196.97206 107.682047,164.570984 147.445895,164.363636 C187.209743,164.160255 219.610815,196.227487 219.818182,235.99134" id="Fill-54" fill="#C5A7CD"></path>
                </g>
                <g id="starz" transform="translate(0, 355)">
                    <path d="M291.5,85 L291.5,85 C291.5,80.3055917 295.305592,76.5 300,76.5 L300,76.5 C295.305592,76.5 291.5,72.6944083 291.5,68 C291.5,68 291.5,68 291.5,68 L291.5,68 C291.5,72.6944083 287.694408,76.5 283,76.5 L283,76.5 C287.694408,76.5 291.5,80.3055917 291.5,85" id="Path" fill="#D8D8D8"></path>
                    <path d="M25.5,336 L25.5,336 C25.5,331.305592 29.3055919,327.5 34,327.5 L34,327.5 C29.3055915,327.5 25.5,323.694408 25.5,319 C25.5,319 25.5,319 25.5,319 L25.5,319 C25.5,323.694408 21.6944085,327.5 17,327.5 L17,327.5 C21.6944081,327.5 25.5,331.305592 25.5,336" id="Path" fill="#D8D8D8"></path>
                    <path d="M17.5,52 L17.5,52 C17.5,42.3350417 25.3350421,34.5 35,34.5 L35,34.5 C25.3350413,34.5 17.5,26.6649583 17.5,17 C17.5,17 17.5,17 17.5,17 L17.5,17 C17.5,26.6649583 9.66495868,34.5 0,34.5 L0,34.5 C9.66495791,34.5 17.5,42.3350417 17.5,52" id="Path-Copy" fill="#D8D8D8"></path>
                    <g id="hashtag-shine" transform="translate(35, 46)" stroke="#2EECA6" stroke-linecap="round" stroke-linejoin="round" stroke-width="1.5">
                        <line x1="214.7048" y1="76.14624" x2="203.2952" y2="79.85376" id="Path"></line>
                        <line x1="11.70516" y1="144.1466" x2="0.29484" y2="147.8534" id="Path"></line>
                        <line x1="106" y1="227" x2="106" y2="215" id="Path"></line>
                        <line x1="106" y1="0" x2="106" y2="12" id="Path"></line>
                        <line x1="172.52296" y1="204.84938" x2="165.47704" y2="195.15062" id="Path"></line>
                        <line x1="41.47704" y1="19.15062" x2="48.52296" y2="28.84938" id="Path"></line>
                        <line x1="0.29484" y1="76.14624" x2="11.70516" y2="79.85376" id="Path"></line>
                        <line x1="214.70516" y1="147.85376" x2="203.29484" y2="144.14624" id="Path"></line>
                        <line x1="172.52296" y1="19.15062" x2="165.47704" y2="28.84938" id="Path"></line>
                        <line x1="41.47704" y1="204.84938" x2="48.52296" y2="195.15062" id="Path"></line>
                    </g>
                    <path d="M190.5,17 L190.5,17 C190.5,12.3055917 194.305592,8.5 199,8.5 L199,8.5 C194.305592,8.5 190.5,4.69440833 190.5,0 C190.5,0 190.5,0 190.5,0 L190.5,0 C190.5,4.69440833 186.694408,8.5 182,8.5 L182,8.5 C186.694408,8.5 190.5,12.3055917 190.5,17" id="Path-Copy-2" fill="#D8D8D8"></path>
                    <path d="M96,134 L96,134 C96,125.163467 103.163467,118 112,118 L112,118 C103.163466,118 96,110.836533 96,102 C96,102 96,102 96,102 L96,102 C96,110.836533 88.8365336,118 80,118 L80,118 C88.8365329,118 96,125.163467 96,134" id="Path" fill="#D8D8D8"></path>
                </g>
            </g>
        </g>
    </g>
</svg>