<svg width="818" height="625" xmlns="http://www.w3.org/2000/svg"><path d="M668.176 3.166c-5.676.55-11.339 1.111-17.002 1.66-4.48.498-8.96.983-13.44 1.456-4.392.51-8.772 1.02-13.151 1.519a2001.076 2001.076 0 00-52.403 6.984 2115.691 2115.691 0 00-104.05 17.938c-52.214 10.341-104.025 22.547-155.434 36.77-25.698 7.137-51.308 14.784-76.817 23.058a1493.228 1493.228 0 00-38.182 12.933 1422.437 1422.437 0 00-19.04 6.882c-3.172 1.187-6.33 2.374-9.502 3.562-.805.306-1.61.613-2.416.906-1.347.536-2.693 1.06-4.04 1.596-2.693 1.047-5.399 2.094-8.092 3.166-2.894 1.098-6.456 2.592-9.841 3.958-3.398 1.38-6.796 2.758-10.194 4.15a1842.624 1842.624 0 01-10.055 4.328c-3.347 1.43-6.708 2.873-9.942 4.38l-9.803 4.468c-3.285 1.493-6.38 3.051-9.577 4.583-6.456 3.026-12.396 6.218-18.5 9.359-3.058 1.57-5.801 3.204-8.734 4.8l-4.304 2.413c-1.472.792-2.718 1.622-4.09 2.426-2.693 1.621-5.373 3.256-8.066 4.89-2.467 1.647-4.934 3.281-7.4 4.928-9.602 6.575-17.87 13.202-24.44 19.662-1.774 1.89-3.423 3.792-5.134 5.681-1.536 1.877-2.781 3.728-4.203 5.592-1.12 1.826-2.253 3.64-3.273 5.44-.427.893-.868 1.774-1.308 2.668l-.655 1.34c-.214.434-.365.868-.54 1.303-2.92 7.022-4.305 13.66-4.531 20.747-.063 3.191.012 6.779.943 11.81.441 2.45 1.146 4.979 1.825 7.06.718 2.094 1.422 3.907 2.165 5.54a54.433 54.433 0 004.757 8.453c3.423 5.005 7.463 9.384 12.849 13.533 5.336 4.124 12.069 7.954 20.853 11.082 8.759 3.141 19.695 5.477 32.065 7.01 10.282 1.276 21.52 2.055 33.211 2.45 11.692.422 23.848.473 36.194.307 12.346-.191 24.918-.613 37.502-1.225a1047.04 1047.04 0 0018.953-1.073l11.628-.804s.554-.039 1.636-.128c19.116-8.61 33.723-23.315 33.723-52.727 0-29.412-29.214-44.118-41.6-43.947-.781.063-1.171.089-1.171.089-2.442.204-4.87.383-7.324.562a2.79 2.79 0 01.39-.14l12.471-4.776c5.865-2.221 11.78-4.392 17.707-6.511a1501.613 1501.613 0 0135.828-12.359c24.062-7.941 48.376-15.32 72.866-22.266 48.98-13.827 98.601-25.79 148.55-35.966 33.047-6.716 66.22-12.64 99.507-17.695 16.637-2.516 33.286-4.84 49.961-6.908 4.166-.498 8.331-1.008 12.51-1.519 4.064-.46 8.142-.932 12.219-1.392 2.907-.306 5.789-.612 8.696-.919-1.347.817-2.68 1.634-4.014 2.464-31.236 19.151-64.208 37.217-97.532 54.721-33.777 17.709-68.058 34.804-102.59 51.504a5109.264 5109.264 0 01-51.988 24.717c-8.696 4.035-17.404 8.057-26.113 12.091-8.344 3.805-16.675 7.61-25.03 11.401a8464.86 8464.86 0 01-16.223 6.27l-17.266 6.791c-39.717 15.82-79.145 32.238-118.522 50.342-19.733 9.116-39.39 18.577-59.35 29.467-10.017 5.503-20.035 11.261-30.744 18.513-5.374 3.715-10.886 7.66-17.267 13.38-1.648 1.52-3.272 3.052-5.096 4.967-1.8 1.902-3.675 3.983-5.802 6.792-2.102 2.809-4.43 6.154-6.833 11.21-.29.65-.592 1.302-.881 1.94a52.821 52.821 0 00-.881 2.26 64.262 64.262 0 00-.843 2.35c-.277.88-.554 1.825-.806 2.744-.981 3.575-1.762 8.325-1.774 13.355v.153c.012 3.077.264 6.397.88 9.908.63 3.523 1.65 7.2 3.084 10.814 2.87 7.239 7.538 13.84 12.283 18.474 4.807 4.724 9.564 7.788 13.692 9.997 4.203 2.221 7.84 3.575 11.2 4.647 6.607 2.056 11.893 2.86 16.7 3.422 4.807.523 9.074.702 13.113.715 5.94.038 11.39-.243 16.612-.664 5.21-.421 10.219-.996 15.077-1.647 18.36-2.515 35.325-6.128 52.037-10.086a1000.883 1000.883 0 0024.717-6.23c8.092-2.146 16.272-4.418 23.91-6.525 18.852-5.196 37.792-10.38 56.77-15.614l-1.145.549c-24.075 11.477-48.212 22.968-72.45 34.931a273.847 273.847 0 00-12.535 6.524c-4.102 2.286-8.217 4.699-12.534 7.482-4.342 2.834-8.759 5.822-14.07 10.393a74.435 74.435 0 00-4.266 3.97 62.672 62.672 0 00-4.983 5.554c-1.8 2.285-3.876 5.094-6.117 9.512-1.094 2.208-2.24 4.839-3.209 8.17-.113.422-.214.818-.34 1.24l-.327 1.416a37.663 37.663 0 00-.566 2.886 45.07 45.07 0 00-.226 1.557c-.063.575-.114 1.124-.177 1.686a43.18 43.18 0 00-.163 3.383 47.132 47.132 0 00.15 4.213c.051.69.127 1.392.215 2.081.1.728.214 1.469.352 2.196a42.781 42.781 0 002.429 8.49c.264.69.554 1.354.856 2.018.302.638.591 1.238.906 1.864a55.214 55.214 0 002.038 3.562 42.33 42.33 0 002.14 3.013c.352.485.73.945 1.107 1.417.378.46.793.945 1.108 1.303a88.64 88.64 0 002.127 2.208c.73.715 1.522 1.443 2.114 1.941a83.902 83.902 0 001.976 1.609 69.52 69.52 0 001.887 1.391c1.133.766 2.391 1.584 3.461 2.196a62.565 62.565 0 003.033 1.61c.956.459 1.75.816 2.643 1.2.415.19.843.357 1.283.535.365.14.743.281 1.133.435.717.268 1.56.561 2.215.778.667.205 1.321.409 1.976.613.705.217 1.283.37 1.862.51.592.154 1.183.307 1.762.448 1.12.255 2.152.46 3.21.676l.175.039c1.058.178 2.14.344 3.222.472l1.624.166c.264.013.54.038.818.064.15 0 .327.013.478.025 1.309.051 2.617.064 3.901.051 1.158-.038 2.316-.102 3.473-.178.894-.09 1.8-.192 2.694-.268.906-.103 1.51-.205 2.303-.307.365-.05.742-.102 1.082-.153.352-.051.667-.115.994-.153l1.926-.345 1.774-.345 3.36-.69c4.304-.918 8.155-1.889 11.943-2.872 7.538-2.004 14.661-4.085 21.696-6.217 14.07-4.29 27.762-8.797 41.378-13.406 27.221-9.218 54.052-18.883 80.832-28.918 15.202-5.72 30.367-11.555 45.557-17.594 6.607-2.63 13.188-5.285 19.795-8.018a55.58 55.58 0 00-1.522 4.648c-1.058 3.792-2.027 8.58-1.85 14.874.15 3.868.792 8.184 2.252 12.588 1.498 4.443 3.75 8.72 6.456 12.334.05.063.1.114.126.178 2.63 3.486 6.04 6.767 9.627 9.257a43.245 43.245 0 0010.647 5.388 45.785 45.785 0 009.036 2.068 50.93 50.93 0 006.972.345c4.618-.115 8.067-.728 11.074-1.354a79.47 79.47 0 007.715-2.145c4.492-1.519 8.18-3.115 11.59-4.71 6.783-3.193 12.51-6.436 18.009-9.73 10.91-6.575 20.74-13.329 30.329-20.16 9.564-6.855 18.789-13.8 27.863-20.734 2.101-1.646 4.24-3.268 6.367-4.902-1.837 3.715-3.65 7.418-5.487 11.133-4.857 9.64-9.941 19.215-15.177 28.382-2.617 4.558-5.285 9.065-7.915 13.214-1.31 2.056-2.618 4.06-3.826 5.796a60.939 60.939 0 01-2.68 3.6c.012 0 .024-.012.037-.025-11.666 22.613-18.101 35.087-3.494 49.793 9.738 9.804 27.498 9.804 53.28 0 .691-.74 1.195-1.277 1.547-1.647.302-.332.466-.51.466-.51 3.733-4.571 6.3-7.831 7.701-9.78a226.657 226.657 0 005.664-8.35c3.536-5.4 6.707-10.648 9.803-15.896 6.167-10.507 11.867-20.964 17.367-31.56 1.36-2.656 2.718-5.325 4.077-7.98.667-1.34 1.334-2.681 2.001-4.01 1.208-2.476 2.43-4.966 3.637-7.443a533.098 533.098 0 0013.78-30.922c4.14-10.252 7.891-20.505 10.282-29.965 1.246-4.762 2.09-9.308 2.542-13.495.466-4.213.554-8.12.227-11.631a16.714 16.714 0 00-.214-2.03c-.1-.651-.176-1.315-.277-1.967-.252-1.25-.49-2.502-.742-3.753-1.422-5.528-3.335-10.163-6.268-14.849a59.734 59.734 0 00-2.34-3.357c-2.04-2.669-4.581-5.414-7.576-7.827a46.008 46.008 0 00-7.073-4.685c.252-.358.49-.715.73-1.086.164-.242.302-.472.466-.715.163-.306.365-.6.54-.906.19-.307.353-.613.542-.92.189-.344.377-.689.566-1.02.44-.818.843-1.66 1.233-2.516.026-.051.063-.102.089-.14 1.195-2.681 2.39-5.644 3.486-9.308 1.057-3.677 2.076-8.069 2.303-13.929a48.769 48.769 0 00-.944-11.427c-.869-4.29-2.505-9.141-5.223-13.827-1.737-3.038-3.926-5.937-6.406-8.528 7.274-4.507 14.56-9.193 22.389-14.913 4.04-3.013 8.167-6.166 13.075-10.712a85.254 85.254 0 003.927-3.906c1.409-1.494 2.92-3.154 4.643-5.375 1.712-2.273 3.625-4.865 5.852-9.231a49.123 49.123 0 003.335-8.35c1.045-3.562 2.014-8.146 1.963-13.98-.05-3.945-.604-8.3-1.95-12.704-.038-.09-.063-.204-.101-.306-1.334-4.265-3.134-8.886-5.902-13.866a66.594 66.594 0 00-5.034-7.596 59.425 59.425 0 00-6.91-7.507c-5.197-4.827-11.816-8.861-18.448-11.312-6.645-2.503-13.164-3.511-18.84-3.716-10.168-.268-18.008 1.584-24.716 3.703a88.604 88.604 0 00-9.413 3.677 90.205 90.205 0 00-4.518 2.209 83.98 83.98 0 00-4.782 2.706c-.013.013-.038.026-.05.039-.164.115-.34.242-.517.37-2.504 1.52-5.008 3.026-7.525 4.545-2.505 1.507-5.034 2.885-7.539 4.328-2.479 1.481-5.121 2.835-7.701 4.239-2.593 1.392-5.185 2.783-7.878 4.111-10.546 5.439-21.57 10.508-32.72 15.436-28.983 12.742-59.35 23.951-90.094 34.459-34.055 11.593-68.738 22.177-103.66 32.289a3646.882 3646.882 0 01-26.944 7.673l5.851-2.222.214-.09.05-.025a2524.88 2524.88 0 0014.536-6.46c4.468-2.004 8.935-4.009 13.403-6.026l26.692-12.167a4572.156 4572.156 0 0053.133-24.846c35.35-16.814 70.524-34.063 105.535-52.116 34.57-17.913 68.951-36.4 103.182-57.083 2.743-1.673 5.5-3.358 8.243-5.056 4.077-2.502 8.117-5.081 12.144-7.66 8.042-5.171 15.957-10.495 23.571-15.921 15.24-10.852 29.398-22.318 39.856-33.77 2.643-2.847 5.021-5.681 7.135-8.516a87.551 87.551 0 005.676-8.337c3.31-5.49 5.65-10.776 7.236-15.92 1.586-5.159 2.48-10.138 2.756-15.309.252-5.158-.05-10.571-1.636-17.032-.856-3.306-2.076-6.817-3.486-9.843-1.397-3.039-2.907-5.694-4.518-8.03-3.196-4.712-6.682-8.517-10.76-12.002-4.077-3.473-8.784-6.537-14.308-9.218-5.563-2.669-12.019-4.865-19.33-6.55C754.18 1.66 743.093.434 731.125.14a294.62 294.62 0 00-8.936-.14c-9.199 0-18.738.409-28.353.996-8.583.728-17.115 1.455-25.66 2.17z" fill="#233044" fill-rule="evenodd"/></svg>