<svg width="665" height="540" xmlns="http://www.w3.org/2000/svg"><g fill="none" fill-rule="evenodd"><path d="M543.2 13.579c-4.615.447-9.219.904-13.823 1.351-3.642.406-7.284.801-10.926 1.186-3.57.416-7.131.832-10.691 1.237a1624.063 1624.063 0 00-42.602 5.688 1717.625 1717.625 0 00-84.588 14.608c-42.448 8.423-84.568 18.363-126.361 29.946-20.892 5.812-41.711 12.04-62.45 18.778a1212.448 1212.448 0 00-31.04 10.533 1155.042 1155.042 0 00-15.479 5.605c-2.578.967-5.146 1.934-7.724 2.9-.655.25-1.31.5-1.964.739-1.095.436-2.19.863-3.284 1.3-2.19.852-4.39 1.705-6.579 2.578-2.353.894-5.248 2.11-8 3.223a2527.645 2527.645 0 00-8.287 3.38 1496.63 1496.63 0 01-8.175 3.525c-2.721 1.164-5.453 2.339-8.082 3.566l-7.97 3.64c-2.67 1.216-5.187 2.484-7.786 3.732-5.248 2.464-10.077 5.064-15.039 7.622-2.486 1.278-4.716 2.61-7.1 3.91l-3.5 1.964c-1.196.645-2.209 1.32-3.324 1.976-2.19 1.32-4.369 2.651-6.558 3.982-2.005 1.341-4.01 2.672-6.016 4.014-7.806 5.355-14.528 10.75-19.868 16.012-1.443 1.54-2.783 3.088-4.174 4.627-1.248 1.529-2.261 3.036-3.417 4.554-.911 1.487-1.832 2.964-2.66 4.43-.348.728-.706 1.445-1.064 2.173l-.532 1.092c-.174.353-.297.707-.44 1.06-2.374 5.72-3.5 11.126-3.683 16.897-.052 2.6.01 5.52.767 9.618.358 1.996.93 4.055 1.483 5.75.583 1.705 1.156 3.181 1.76 4.512a44.352 44.352 0 003.867 6.883c2.783 4.076 6.067 7.643 10.446 11.022 4.338 3.359 9.811 6.478 16.952 9.025 7.121 2.558 16.012 4.46 26.069 5.709 8.358 1.04 17.494 1.674 26.999 1.996 9.504.343 19.387.385 29.424.25 10.036-.156 20.257-.5 30.488-.999 5.135-.25 10.271-.53 15.407-.873 3.162-.218 6.313-.437 9.453-.655 0 0 .45-.031 1.33-.104 15.541-7.012 27.416-18.988 27.416-42.941 0-23.953-23.75-35.93-33.82-35.79-.634.051-.951.072-.951.072-1.985.166-3.96.312-5.955.458a2.21 2.21 0 01.317-.115l10.14-3.889A819.381 819.381 0 01186 170.034a1218.154 1218.154 0 0129.127-10.065c19.561-6.468 39.327-12.478 59.237-18.134 39.818-11.26 80.158-21.004 120.764-29.29 26.867-5.47 53.835-10.294 80.896-14.412 13.525-2.048 27.06-3.94 40.616-5.625 3.386-.406 6.773-.821 10.17-1.237 3.304-.375 6.619-.76 9.934-1.134 2.363-.25 4.706-.499 7.07-.748a323.5 323.5 0 00-3.265 2.006c-25.392 15.597-52.197 30.31-79.288 44.565-27.46 14.422-55.329 28.344-83.402 41.945a4150.36 4150.36 0 01-42.264 20.13c-7.07 3.285-14.15 6.56-21.229 9.846-6.783 3.099-13.556 6.197-20.349 9.286-4.389 1.705-8.798 3.41-13.188 5.105l-14.036 5.531c-32.289 12.883-64.342 26.255-96.354 40.999-16.042 7.424-32.023 15.128-48.249 23.998-8.144 4.481-16.287 9.17-24.994 15.076-4.368 3.026-8.85 6.24-14.036 10.897-1.34 1.238-2.66 2.485-4.144 4.045-1.463 1.55-2.987 3.244-4.716 5.532-1.709 2.287-3.602 5.011-5.556 9.129-.235.53-.48 1.06-.716 1.58a43.14 43.14 0 00-.716 1.84c-.246.635-.46 1.259-.686 1.914-.225.717-.45 1.487-.654 2.235-.798 2.912-1.433 6.78-1.443 10.876v.125c.01 2.506.215 5.21.716 8.069a45.924 45.924 0 002.507 8.807c2.333 5.895 6.128 11.27 9.985 15.045 3.908 3.847 7.776 6.343 11.131 8.142 3.417 1.809 6.374 2.911 9.106 3.785 5.371 1.674 9.668 2.329 13.576 2.786a99.5 99.5 0 0010.66.582c4.83.032 9.26-.197 13.505-.54 4.236-.343 8.308-.811 12.257-1.342 14.927-2.048 28.718-4.99 42.304-8.214a812.498 812.498 0 0020.094-5.074c6.578-1.747 13.228-3.598 19.438-5.313 15.326-4.232 30.724-8.454 46.152-12.717l-.931.447c-19.572 9.348-39.195 18.706-58.9 28.449a222.47 222.47 0 00-10.19 5.313c-3.334 1.861-6.68 3.826-10.19 6.093-3.529 2.308-7.12 4.741-11.437 8.464a60.554 60.554 0 00-3.468 3.233 51.01 51.01 0 00-4.052 4.524c-1.463 1.86-3.151 4.148-4.972 7.746a39.468 39.468 0 00-2.609 6.654c-.092.344-.174.666-.276 1.009l-.266 1.154c-.184.78-.338 1.56-.46 2.35-.062.364-.123.8-.185 1.269-.05.467-.092.915-.143 1.372a35.04 35.04 0 00-.133 2.755 38.452 38.452 0 00.297 5.127c.082.592.174 1.195.286 1.788a34.889 34.889 0 001.975 6.914c.215.562.45 1.103.695 1.643.246.52.481 1.009.737 1.518a44.945 44.945 0 001.657 2.901 34.473 34.473 0 001.74 2.454c.286.395.593.77.9 1.154.307.375.645.77.9 1.06a71.162 71.162 0 001.73 1.8 33.56 33.56 0 001.718 1.58 67.65 67.65 0 001.606 1.31c.543.416 1.126.843 1.535 1.134.92.624 1.944 1.289 2.814 1.788.808.458 1.626.894 2.465 1.31.778.375 1.422.666 2.149.978.337.156.685.29 1.043.436.297.115.604.229.92.354.584.218 1.27.457 1.802.634.542.166 1.074.333 1.606.5.573.176 1.043.3 1.514.415.48.125.962.25 1.432.364.91.208 1.75.374 2.61.551l.142.031c.86.146 1.74.281 2.62.385l1.32.135c.214.01.44.031.664.052.123 0 .266.01.389.02 1.064.043 2.128.053 3.172.043a85.55 85.55 0 002.823-.146c.727-.073 1.463-.156 2.19-.218.736-.084 1.227-.167 1.872-.25.297-.042.604-.083.88-.125.286-.041.542-.093.808-.124l1.565-.281 1.443-.281 2.732-.561c3.498-.75 6.63-1.54 9.709-2.34 6.128-1.632 11.919-3.327 17.638-5.064 11.438-3.493 22.569-7.164 33.639-10.917 22.129-7.507 43.941-15.379 65.712-23.551a2135.715 2135.715 0 0037.036-14.328 1304.419 1304.419 0 0016.093-6.53 45.322 45.322 0 00-1.238 3.785c-.86 3.088-1.647 6.987-1.504 12.113.123 3.15.645 6.665 1.831 10.252 1.218 3.619 3.05 7.102 5.249 10.045.04.051.082.093.102.145a35.244 35.244 0 007.827 7.538 35.132 35.132 0 008.655 4.388 37.165 37.165 0 007.346 1.685c2.118.25 3.98.312 5.668.28 3.754-.093 6.558-.592 9.003-1.102a64.517 64.517 0 006.271-1.747c3.653-1.237 6.65-2.537 9.423-3.836 5.514-2.6 10.17-5.24 14.64-7.923 8.87-5.355 16.86-10.856 24.656-16.418 7.776-5.584 15.275-11.24 22.652-16.886 1.708-1.342 3.447-2.662 5.176-3.993-1.493 3.026-2.967 6.041-4.46 9.067-3.95 7.85-8.083 15.648-12.339 23.114-2.128 3.712-4.297 7.382-6.435 10.762a142.504 142.504 0 01-3.11 4.72 49.621 49.621 0 01-2.18 2.932c.011 0 .021-.01.031-.02-9.483 18.415-14.715 28.574-2.84 40.55 7.917 7.985 22.355 7.985 43.314 0 .562-.602.972-1.039 1.258-1.34l.379-.416c3.035-3.723 5.122-6.378 6.26-7.965a184.607 184.607 0 004.605-6.8c2.875-4.399 5.453-8.672 7.97-12.945 5.013-8.558 9.647-17.074 14.118-25.704 1.105-2.162 2.21-4.336 3.315-6.498.542-1.092 1.084-2.184 1.627-3.265.982-2.017 1.974-4.045 2.956-6.062a434.543 434.543 0 0011.203-25.183c3.366-8.35 6.415-16.7 8.359-24.404 1.013-3.878 1.698-7.58 2.066-10.99.379-3.432.45-6.613.184-9.473a13.636 13.636 0 00-.173-1.653c-.082-.53-.144-1.07-.226-1.601-.204-1.02-.399-2.038-.603-3.057-1.156-4.502-2.711-8.277-5.095-12.093a48.649 48.649 0 00-1.903-2.734c-1.657-2.173-3.724-4.409-6.159-6.374a37.397 37.397 0 00-5.75-3.816c.205-.291.4-.582.594-.884.133-.197.245-.385.378-.582.133-.25.297-.489.44-.738.154-.25.287-.5.44-.749.153-.28.307-.562.46-.832a34.36 34.36 0 001.003-2.048c.02-.042.051-.083.072-.115.972-2.183 1.944-4.595 2.834-7.58.859-2.994 1.688-6.57 1.872-11.343a39.786 39.786 0 00-.767-9.306c-.706-3.494-2.036-7.445-4.246-11.261-1.412-2.475-3.192-4.835-5.208-6.946 5.914-3.67 11.837-7.486 18.2-12.144 3.285-2.454 6.64-5.023 10.63-8.724a69.368 69.368 0 003.193-3.182c1.146-1.216 2.373-2.568 3.775-4.377 1.391-1.851 2.946-3.962 4.757-7.518.9-1.788 1.852-3.92 2.711-6.8a38.413 38.413 0 001.596-11.386c-.04-3.212-.49-6.758-1.585-10.345-.031-.073-.051-.167-.082-.25-1.085-3.473-2.548-7.237-4.798-11.292a54.243 54.243 0 00-4.093-6.186 48.364 48.364 0 00-5.616-6.114c-4.226-3.93-9.607-7.216-14.999-9.213-5.402-2.038-10.701-2.86-15.315-3.026-8.267-.218-14.64 1.29-20.094 3.016a71.955 71.955 0 00-7.652 2.994 73.278 73.278 0 00-3.673 1.8 68.24 68.24 0 00-3.888 2.204c-.01.01-.03.02-.041.03-.133.094-.276.198-.42.302-2.035 1.238-4.071 2.465-6.118 3.702-2.035 1.227-4.092 2.35-6.128 3.525-2.015 1.206-4.164 2.308-6.261 3.452-2.108 1.133-4.215 2.266-6.405 3.348-8.573 4.43-17.535 8.557-26.6 12.57-23.561 10.378-48.248 19.507-73.242 28.064-27.685 9.441-55.881 18.061-84.272 26.296-7.284 2.11-14.589 4.19-21.904 6.25l4.757-1.81.174-.073.041-.02a2041.41 2041.41 0 0011.817-5.262c3.632-1.632 7.264-3.265 10.896-4.908l21.7-9.909a3713.92 3713.92 0 0043.194-20.234c28.738-13.694 57.334-27.74 85.796-42.443 28.104-14.588 56.054-29.644 83.882-46.489 2.23-1.362 4.471-2.734 6.702-4.117 3.314-2.038 6.598-4.138 9.872-6.239 6.538-4.21 12.973-8.547 19.163-12.966 12.39-8.838 23.899-18.175 32.4-27.502a84.397 84.397 0 005.802-6.935 71.308 71.308 0 004.614-6.79c2.69-4.47 4.593-8.776 5.882-12.966 1.29-4.2 2.016-8.256 2.241-12.467.205-4.2-.04-8.61-1.33-13.87-.696-2.693-1.688-5.553-2.834-8.017-1.136-2.475-2.363-4.637-3.673-6.54-2.598-3.837-5.432-6.935-8.747-9.774-3.315-2.828-7.141-5.324-11.633-7.507-4.522-2.173-9.77-3.962-15.714-5.334-7.888-1.726-16.902-2.724-26.631-2.964A238.05 238.05 0 00587.11 11c-7.479 0-15.234.333-23.05.811-6.977.593-13.914 1.185-20.86 1.768z" fill="#233044"/><path d="M280.735 90.272c2.873-6.132 12.076-4.032 12.004 2.74 5.25-4.278 12.63 1.607 9.627 7.677 6.585-1.577 10.68 6.928 5.341 11.093 6.618 1.437 6.618 10.876 0 12.313 5.34 4.165 1.244 12.67-5.341 11.093 3.003 6.07-4.378 11.955-9.627 7.677.072 6.772-9.13 8.872-12.004 2.74-2.873 6.132-12.076 4.032-12.004-2.74-5.25 4.278-12.63-1.607-9.627-7.677-6.585 1.577-10.68-6.928-5.341-11.093-6.618-1.437-6.618-10.876 0-12.313-5.34-4.165-1.244-12.67 5.341-11.093-3.003-6.07 4.378-11.955 9.627-7.677-.072-6.772 9.13-8.872 12.004-2.74z" fill="#4E5D99"/><path d="M280.418 45.216c.087 16.77-13.438 30.435-30.208 30.523-16.77.086-30.436-13.439-30.523-30.209-.087-16.77 13.438-30.435 30.209-30.523 16.77-.085 30.435 13.439 30.522 30.209" fill="#C5A7CD"/><g fill-rule="nonzero"><path fill="#2EECA6" d="M319.099 0L265 39.229l6.9 66.5 61 27.271L387 93.769l-6.903-66.499z"/><path fill="#171C26" d="M353.905 83.708l-10.134-1.605 2.44-15.145 1.74-4.171-1.338-.987-3.372 3.276L303.005 94 297 85.779l40.236-28.924 4.187-2.16-.53-1.568-4.54.34-15.264-2.418L322.709 41l31.919 5.054 4.372 5.99z"/></g><path d="M564.236 320.596c-7.151-10.726-57.874-80.743-154.122-65.411" stroke="#C5A7CD" stroke-width="1.5"/><path fill="#C5A7CD" d="M556.324 319.997l.326-1.466 7.218 1.613 1.081-7.317 1.485.221-1.319 8.911z"/><path d="M562.96 325.973s-32.577 4.96-30.435 17.186c2.677 15.276 68.42 17.21 68.889-2.25.179-7.378-13.352-21.94-48.141-10.437" stroke="#C5A7CD"/><path d="M373.304 394.504c-9.16-2.888-57.615-15.62-101.843 21.894" stroke="#C5A7CD" stroke-width="1.5"/><path fill="#C5A7CD" d="M370.188 387.307l-1.286.775 3.824 6.33-6.595 3.352.682 1.338 8.03-4.083z"/><path d="M399.355 383.66s18.984 3.47 17.172 15.733c-2.266 15.322-41.115 20.202-40.517.859.227-7.333 8.86-22.431 28.854-12.55" stroke="#C5A7CD"/><path d="M499.565 525.835c-8.831 1.99-52.219 10.46-67.092-11.435" stroke="#C5A7CD" stroke-width="1.5"/><path fill="#C5A7CD" d="M493.431 520.808l-.776 1.285 6.334 3.818-4.272 6.039 1.227.866 5.2-7.356z"/><path d="M543.44 501.313s32.534 5.351 30.008 21.078c-3.156 19.652-69.18 24.153-69.052-.76.048-9.447 14.073-28.517 48.625-14.853" stroke="#C5A7CD"/><path d="M484.827 98.838c-4.127 1.566-15.571 6.91-21.827 19.807" stroke="#C5A7CD" stroke-width="1.5"/><path fill="#C5A7CD" d="M477.919 95.17l-.524 1.407 6.932 2.576-3.076 6.727 1.366.623 3.745-8.194z"/><path d="M573.729 88.446c0 22.921-18.581 41.502-41.502 41.502-22.921 0-41.502-18.58-41.502-41.502 0-22.92 18.58-41.502 41.502-41.502 22.92 0 41.502 18.581 41.502 41.502z" stroke="#33D2A3"/><path stroke="#D6D6D6" d="M173.36 216.001v-6h6"/><path stroke="#D6D6D6" stroke-dasharray="11.846,11.846" d="M188.252 210.001h92.03"/><path stroke="#D6D6D6" d="M281.748 210.001h6v6"/><path stroke="#D6D6D6" stroke-dasharray="11.241,11.241" d="M287.748 224.413v64.208"/><path stroke="#D6D6D6" d="M287.748 291.13v6h-6"/><path stroke="#D6D6D6" stroke-dasharray="11.846,11.846" d="M277.314 297.13h-92.031"/><path stroke="#D6D6D6" d="M179.36 297.13h-6v-6"/><path stroke="#D6D6D6" stroke-dasharray="11.241,11.241" d="M173.36 285.83v-64.21"/><path fill="#574599" d="M182.864 288.505h97v-70h-97z"/><path d="M249.335 280.671c3.741 7.764 22.766 43.21 54.007 33.168" stroke="#C5A7CD" stroke-width="1.5"/><path fill="#C5A7CD" d="M257.115 282.293l-.515 1.41-6.945-2.542-2.028 7.113-1.444-.413 2.473-8.663z"/></g></svg>