<?xml version="1.0" encoding="UTF-8"?>
<svg width="665px" height="540px" viewBox="0 0 665 540" version="1.1" xmlns="http://www.w3.org/2000/svg" xmlns:xlink="http://www.w3.org/1999/xlink">
    <title>D1787AA0-3B8E-4A85-9A1E-05F639BF3757</title>
    <g id="Page-1" stroke="none" stroke-width="1" fill="none" fill-rule="evenodd">
        <g id="Index" transform="translate(-907, -174)">
            <g id="hero-iamge" transform="translate(907, 174)">
                <g id="Combined-Shape-2" transform="translate(0, 11)" fill="#233044">
                    <path d="M543.199281,2.57864104 C538.585174,3.02574412 533.981298,3.48324495 529.377422,3.93034804 C525.735245,4.33586014 522.093067,4.73097449 518.45089,5.1156911 C514.880328,5.53160094 511.319997,5.94751079 507.759666,6.35302289 C493.528574,8.05825325 479.328174,9.9610408 465.158467,12.04059 C436.829283,16.1996885 408.622869,21.0866292 380.569917,26.6494233 C338.12218,35.0715977 296.00183,45.011843 254.208866,56.5949322 C233.317499,62.4072723 212.497749,68.6355222 191.759845,75.3732617 C181.396008,78.7421315 171.052633,82.2357742 160.719489,85.9061786 C155.563148,87.7361819 150.396576,89.5973784 145.240235,91.5105637 C142.662064,92.4775541 140.094125,93.4445445 137.515954,94.4115349 C136.861181,94.6610808 136.206407,94.9106267 135.551634,95.1497749 C134.456934,95.5864802 133.362235,96.0127878 132.267535,96.4494931 C130.078137,97.3021083 127.878507,98.1547235 125.689108,99.0281342 C123.336016,99.9223403 120.440689,101.138877 117.688595,102.251435 C114.926269,103.374392 112.163943,104.497349 109.401618,105.630703 C106.680215,106.816046 103.969044,107.980594 101.22718,109.155539 C98.5057776,110.320086 95.7741445,111.495032 93.1448197,112.721966 L85.1749987,116.361177 C82.5047506,117.577713 79.9879651,118.846238 77.3893328,120.093968 C72.1409141,122.558234 67.3119596,125.15767 62.3500043,127.715516 C59.8639113,128.994439 57.6335891,130.32535 55.2498044,131.625068 L51.7508586,133.590242 C50.5538508,134.234903 49.5409981,134.910756 48.425837,135.565814 C46.2364381,136.886328 44.0572701,138.217239 41.8678713,139.548151 C39.8626275,140.88946 37.8573837,142.220372 35.8521399,143.561681 C28.0460123,148.91652 21.3243533,154.31295 15.983857,159.57421 C14.5413092,161.113076 13.2010697,162.662341 11.8096761,164.201207 C10.5615141,165.729676 9.5486614,167.237349 8.39257697,168.75542 C7.48203259,170.242297 6.56125738,171.718777 5.73255969,173.18486 C5.38471128,173.912702 5.02663203,174.630146 4.66855278,175.357989 L4.13654933,176.449752 C3.96262512,176.803275 3.83985509,177.156799 3.69662339,177.510322 C1.32306951,183.229082 0.197677589,188.63591 0.0135225469,194.406659 C-0.0376316315,197.006096 0.0237533826,199.927863 0.780835223,204.024575 C1.13891447,206.020942 1.71184127,208.079696 2.2643064,209.774528 C2.84746403,211.479759 3.42039083,212.956239 4.02401013,214.28715 C5.22101791,216.938575 6.48964153,219.111704 7.89126602,221.170458 C10.6740533,225.246374 13.9581516,228.812801 18.3369492,232.192069 C22.6748236,235.550541 28.1483207,238.669865 35.289444,241.217313 C42.4101056,243.775158 51.3007018,245.677946 61.3576133,246.925675 C69.716206,247.96545 78.8523423,248.599712 88.3567886,248.922042 C97.861235,249.265168 107.744222,249.306759 117.780672,249.171588 C127.817122,249.015622 138.037727,248.672497 148.268562,248.173405 C153.404442,247.923859 158.540321,247.64312 163.676201,247.299994 C166.837529,247.081641 169.988627,246.863289 173.129493,246.644936 C173.129493,246.644936 173.57965,246.613743 174.459502,246.540959 C190,239.529412 201.875,227.552941 201.875,203.6 C201.875,179.647059 178.125,167.670588 168.054999,167.809225 C167.420687,167.861214 167.103531,167.882009 167.103531,167.882009 C165.118749,168.048373 163.144197,168.193941 161.149184,168.33951 C161.241262,168.297919 161.353801,168.256328 161.46634,168.225135 L171.605099,164.336378 C176.372668,162.52717 181.181161,160.759553 185.999884,159.033527 C195.637332,155.56068 205.356625,152.212606 215.127074,148.968509 C234.688431,142.501111 254.454406,136.491213 274.363612,130.83484 C314.182025,119.574081 354.52221,109.831392 395.128396,101.544389 C421.994571,96.0751743 448.963054,91.2506201 476.023614,87.1331126 C489.548779,85.0847566 503.084175,83.1923668 516.640032,81.5079319 C520.026438,81.1024198 523.412845,80.68651 526.809483,80.2706002 C530.114042,79.8962813 533.428833,79.5115647 536.743624,79.1372458 C539.106947,78.8876999 541.449808,78.638154 543.813131,78.3886081 C542.718432,79.0540639 541.633963,79.7195196 540.549495,80.3953731 C515.156561,95.9919923 488.351771,110.704803 461.260518,124.960113 C433.800955,139.381787 405.932159,153.304369 377.858746,166.904621 C363.811808,173.694349 349.723948,180.400895 335.595164,187.034657 C328.525656,190.320345 321.445918,193.595635 314.36618,196.881323 C307.583136,199.979851 300.810322,203.07838 294.017047,206.16651 C289.628019,207.871741 285.218529,209.576971 280.8295,211.271804 L266.792794,216.803405 C234.504276,229.686212 202.451068,243.057714 170.438783,257.801718 C154.396833,265.225708 138.416268,272.930438 122.190162,281.799716 C114.046417,286.281144 105.902672,290.970528 97.1962307,296.876448 C92.8276638,299.902192 88.3465578,303.115095 83.1595241,307.773286 C81.8192846,309.010617 80.4995068,310.258347 79.0160357,311.818009 C77.5530262,313.367273 76.0286316,315.062106 74.2996204,317.34961 C72.5910709,319.637114 70.6983663,322.361323 68.7442766,326.478831 C68.5089674,327.009116 68.2634274,327.539401 68.0281181,328.059288 C67.8030398,328.589573 67.537038,329.286222 67.3119596,329.899689 C67.0664196,330.533952 66.851572,331.157817 66.6264937,331.812875 C66.4014153,332.530319 66.1763369,333.299752 65.9717202,334.04839 C65.173715,336.959759 64.5394032,340.827721 64.5291723,344.924432 L64.5291723,345.049205 C64.5394032,347.555062 64.7440199,350.258476 65.2453308,353.117856 C65.7568726,355.987634 66.5855703,358.982185 67.7518856,361.924747 C70.0845161,367.820269 73.8801562,373.195904 77.7371812,376.970286 C81.6453604,380.817452 85.5126163,383.312911 88.8683304,385.111721 C92.2854295,386.920929 95.242141,388.02309 97.9737742,388.896501 C103.344963,390.570538 107.641914,391.225596 111.550093,391.683097 C115.458272,392.109404 118.926526,392.254973 122.210624,392.265371 C127.039578,392.296564 131.46953,392.067813 135.715327,391.724688 C139.950893,391.381562 144.022766,390.913664 147.971868,390.383379 C162.898657,388.335023 176.689824,385.39246 190.276374,382.169159 C197.049187,380.557508 203.740153,378.852278 210.369735,377.095059 C216.948162,375.348238 223.598205,373.497439 229.808323,371.781811 C245.134115,367.549928 260.531522,363.328443 275.959622,359.065367 L275.028616,359.51247 C255.457028,368.860044 235.834285,378.218016 216.129695,387.960704 C214.277914,388.865308 212.620519,389.707525 210.942662,390.580936 C209.264805,391.454346 207.607409,392.348553 205.939783,393.273952 C202.604531,395.135149 199.259047,397.100323 195.749871,399.367031 C192.220232,401.675331 188.629209,404.108403 184.311796,407.830797 C183.227328,408.766594 182.081474,409.816766 180.843543,411.064496 C179.636305,412.260236 178.255142,413.747114 176.792132,415.587515 C175.329123,417.448712 173.641035,419.736216 171.819946,423.333836 C170.929863,425.132646 169.998857,427.274582 169.211083,429.988394 C169.119005,430.331519 169.037159,430.653849 168.93485,430.996975 L168.668849,432.151125 C168.484694,432.930956 168.331231,433.710787 168.208461,434.501015 C168.147076,434.864937 168.085691,435.301642 168.024306,435.76954 C167.973152,436.237439 167.932229,436.684542 167.881074,437.142043 C167.799228,438.057045 167.758304,438.972046 167.748074,439.897446 C167.737843,441.041198 167.778766,442.18495 167.870844,443.328702 C167.911767,443.89018 167.973152,444.462056 168.044768,445.023535 C168.126614,445.616206 168.218692,446.219275 168.331231,446.811947 C168.750695,449.193031 169.4157,451.50133 170.305782,453.726448 C170.52063,454.287926 170.755939,454.828609 171.001479,455.369292 C171.247019,455.889179 171.482329,456.377873 171.738099,456.887363 C172.249641,457.864751 172.812337,458.852537 173.395495,459.788334 C173.978652,460.692938 174.510656,461.431178 175.134737,462.242202 C175.4212,462.637316 175.728125,463.011635 176.03505,463.396352 C176.341975,463.770671 176.679593,464.165785 176.935364,464.456922 C177.49806,465.059991 178.081218,465.673458 178.664375,466.255732 C179.257764,466.838006 179.902306,467.430677 180.383156,467.83619 C180.915159,468.283293 181.436932,468.7096 181.989397,469.146306 C182.531631,469.562215 183.114789,469.988523 183.524022,470.27966 C184.444797,470.903525 185.467881,471.56898 186.337502,472.068072 C187.145738,472.525573 187.964205,472.962278 188.803133,473.378188 C189.580677,473.752507 190.225219,474.043644 190.951609,474.355576 C191.289226,474.511543 191.637075,474.646713 191.995154,474.792282 C192.291848,474.906657 192.598773,475.021032 192.915929,475.145805 C193.499087,475.364158 194.184553,475.603306 194.716556,475.780068 C195.258791,475.946432 195.790794,476.112795 196.322798,476.279159 C196.895724,476.455921 197.366343,476.580694 197.836961,476.695069 C198.317811,476.819842 198.79866,476.944615 199.269278,477.05899 C200.179823,477.266945 201.018751,477.433309 201.878141,477.610071 C201.929296,477.620469 201.970219,477.630866 202.021373,477.641264 C202.880763,477.786833 203.760615,477.922003 204.640467,478.025981 L205.960245,478.161151 C206.175092,478.171549 206.400171,478.192345 206.625249,478.21314 C206.748019,478.21314 206.891251,478.223538 207.014021,478.233936 C208.078028,478.275527 209.142035,478.285924 210.18558,478.275527 C211.126817,478.244333 212.068054,478.192345 213.009291,478.129958 C213.73568,478.057174 214.4723,477.973992 215.198689,477.911606 C215.93531,477.828424 216.42639,477.745242 217.070932,477.66206 C217.367627,477.620469 217.674552,477.578878 217.950784,477.537287 C218.237248,477.495696 218.493018,477.443707 218.75902,477.412514 C219.280793,477.318934 219.802565,477.225354 220.324338,477.131775 L221.766886,476.851035 L224.498519,476.289557 C227.997465,475.540919 231.128101,474.750691 234.207582,473.950064 C240.335853,472.317618 246.126506,470.622785 251.845543,468.886362 C263.283617,465.392719 274.414766,461.722315 285.484531,457.968728 C307.613828,450.461556 329.42597,442.590462 351.197188,434.417833 C363.556038,429.759643 375.884195,425.007873 388.232813,420.089739 C393.604002,417.947804 398.954729,415.785072 404.325918,413.559955 C403.896223,414.703707 403.476758,415.951436 403.087987,417.344734 C402.228596,420.432865 401.440822,424.33202 401.584054,429.458109 C401.706824,432.608626 402.228596,436.123064 403.415373,439.710286 C404.632843,443.328702 406.464162,446.811947 408.663792,449.754509 C408.704715,449.806498 408.745639,449.848089 408.7661,449.900077 C410.904345,452.738662 413.676902,455.410883 416.59269,457.438443 C419.518709,459.476402 422.536805,460.900893 425.247977,461.826292 C427.989841,462.751692 430.43501,463.240386 432.593717,463.510727 C434.7115,463.760273 436.573512,463.82266 438.2616,463.791466 C442.016316,463.697887 444.819565,463.198795 447.264735,462.689305 C449.64852,462.15902 451.704918,461.545553 453.536237,460.942484 C457.188646,459.705152 460.186281,458.405434 462.958837,457.105716 C468.473257,454.506279 473.128288,451.865251 477.599163,449.182633 C486.469297,443.827794 494.45958,438.327386 502.255477,432.764592 C510.030912,427.181002 517.530115,421.524628 524.906547,415.878652 C526.615097,414.537343 528.354339,413.216829 530.08335,411.885918 C528.589648,414.911662 527.116408,417.927008 525.622706,420.952752 C521.673603,428.803051 517.540345,436.60136 513.284318,444.066942 C511.156304,447.778937 508.987367,451.449342 506.849122,454.828609 C505.785115,456.502646 504.721108,458.135092 503.738948,459.549186 C502.818173,460.890495 501.836013,462.148622 501.55978,462.48135 C501.570011,462.48135 501.580242,462.470953 501.590473,462.460555 C492.106886,480.875934 486.875,491.035294 498.75,503.011765 C506.666667,510.996078 521.104553,510.996078 542.063659,503.011765 C542.626354,502.408695 543.035588,501.97199 543.322051,501.670455 C543.567591,501.400114 543.700592,501.254546 543.700592,501.254546 C546.73574,497.532152 548.822831,494.877261 549.961864,493.289872 C551.639721,490.929584 553.133423,488.704466 554.56574,486.489746 C557.440605,482.091499 560.018775,477.818026 562.535561,473.544552 C567.54867,464.987207 572.183239,456.471453 576.654114,447.841324 C577.759044,445.678593 578.863974,443.505464 579.968905,441.342732 C580.511139,440.250969 581.053373,439.159206 581.595608,438.07784 C582.577768,436.060677 583.570159,434.033117 584.552319,432.015954 C588.583268,423.666564 592.348216,415.213196 595.755084,406.832613 C599.121029,398.483223 602.169818,390.133833 604.113677,382.429103 C605.12653,378.550743 605.811996,374.849146 606.180306,371.438685 C606.558847,368.007429 606.630462,364.825719 606.364461,361.966338 C606.343999,361.384065 606.272383,360.832984 606.190537,360.313097 C606.10869,359.782812 606.047305,359.242129 605.965458,358.711844 C605.760841,357.692865 605.566456,356.673886 605.361839,355.654907 C604.205754,351.152682 602.650667,347.378301 600.266883,343.562328 C599.693956,342.678519 599.080106,341.784313 598.363947,340.827721 C596.706552,338.654592 594.639923,336.419076 592.204984,334.453902 C590.291818,332.915036 588.337728,331.646511 586.455255,330.637929 C586.659871,330.346792 586.854257,330.055656 587.048643,329.754121 C587.181644,329.556564 587.294183,329.369404 587.427184,329.171847 C587.560185,328.922301 587.723878,328.683153 587.86711,328.433607 C588.020572,328.184061 588.153573,327.934515 588.307036,327.684969 C588.460498,327.40423 588.613961,327.123491 588.767423,326.85315 C589.125503,326.187694 589.452889,325.501443 589.770045,324.804794 C589.790507,324.763203 589.821199,324.721612 589.841661,324.690419 C590.813591,322.506892 591.78552,320.094615 592.675603,317.110462 C593.534993,314.115911 594.36369,310.539086 594.547846,305.766521 C594.639923,303.052709 594.486461,299.974976 593.780533,296.460538 C593.074605,292.966895 591.744597,289.015752 589.534736,285.199779 C588.122881,282.725115 586.342715,280.364827 584.327241,278.254084 C590.240664,274.58368 596.164318,270.767707 602.527897,266.109517 C605.811996,263.655649 609.16771,261.087405 613.157736,257.385808 C614.170588,256.439613 615.214134,255.410236 616.349756,254.204097 C617.49561,252.987561 618.72331,251.635854 620.124935,249.826646 C621.516328,247.975848 623.071415,245.865105 624.882273,242.309076 C625.782587,240.520664 626.734055,238.389126 627.593445,235.50895 C628.442604,232.607979 629.230378,228.875188 629.189455,224.123418 C629.148532,220.910514 628.698375,217.364883 627.603676,213.777661 C627.572983,213.704876 627.552521,213.611297 627.521829,213.528115 C626.43736,210.055267 624.974351,206.291283 622.723567,202.236162 C621.577713,200.219 620.217012,198.118655 618.631233,196.049503 C617.024992,193.959556 615.142518,191.890405 613.014504,189.935629 C608.789169,186.005281 603.407749,182.719593 598.016099,180.723226 C592.614218,178.685267 587.314645,177.863845 582.700538,177.697481 C574.434023,177.479129 568.060212,178.986802 562.607177,180.712828 C559.875543,181.607034 557.358758,182.605218 554.954511,183.707379 C553.70635,184.279255 552.61165,184.80954 551.281641,185.506189 C549.961864,186.202838 548.662548,186.93068 547.393924,187.710511 C547.383693,187.720909 547.363231,187.731306 547.353001,187.741704 C547.22,187.835284 547.076768,187.939261 546.933536,188.043239 C544.8976,189.280571 542.861664,190.507505 540.815497,191.744836 C538.77956,192.97177 536.723162,194.094727 534.687226,195.269672 C532.671751,196.475811 530.523276,197.577972 528.425955,198.721724 C526.318402,199.855078 524.21085,200.988433 522.021451,202.069798 C513.448011,206.499238 504.485799,210.627143 495.421279,214.640673 C471.859664,225.017624 447.172658,234.146845 422.178726,242.70419 C394.494085,252.145344 366.297902,260.765075 337.907333,269.00009 C330.622978,271.110833 323.318161,273.190382 316.003113,275.249136 C317.588893,274.646066 319.174672,274.042997 320.760452,273.439928 L320.934376,273.367144 L320.975299,273.346348 C324.924402,271.599527 328.863274,269.852705 332.791915,268.085089 C336.423861,266.452642 340.055808,264.820196 343.687755,263.177352 L365.387357,253.2683 C379.833297,246.613743 394.217852,239.876003 408.581945,233.034286 C437.320363,219.340455 465.915549,205.2931 494.377733,190.590687 C522.481839,176.002649 550.432482,160.946712 578.260355,144.102364 C580.490677,142.740259 582.73123,141.367756 584.961553,139.984856 C588.276343,137.946898 591.560442,135.846553 594.834309,133.746209 C601.371813,129.535121 607.807009,125.199261 613.996664,120.780219 C626.386206,111.942135 637.895896,102.604959 646.397721,93.2781806 C648.546196,90.9594832 650.479824,88.6511835 652.198605,86.3428839 C653.937847,84.0657775 655.482703,81.7886711 656.812711,79.5531557 C659.503421,75.0821248 661.406357,70.7774579 662.695442,66.5871662 C663.984527,62.3864768 664.710917,58.3313558 664.935995,54.1202686 C665.140612,49.9195792 664.895072,45.5109348 663.605986,40.2496753 C662.91029,37.556659 661.917898,34.6972788 660.772045,32.233013 C659.636422,29.7583494 658.408722,27.5956182 657.099175,25.6928307 C654.500543,21.8560624 651.666601,18.757534 648.35181,15.9189493 C645.03702,13.0907624 641.210687,10.5953033 636.71935,8.41177662 C632.197321,6.23864768 626.948902,4.45023535 621.004787,3.07773286 C613.116812,1.351707 604.103446,0.353523369 594.373921,0.114375207 C591.990137,0.0415909845 589.565429,2.84217094e-14 587.110028,2.84217094e-14 C579.631287,2.84217094e-14 571.876314,0.332727876 564.059955,0.811024198 C557.082525,1.40369573 550.146019,1.99636726 543.199281,2.57864104 Z" id="Combined-Shape"></path>
                </g>
                <g id="Group-10" transform="translate(219.687, 0)">
                    <path d="M61.0479987,90.2723863 L61.0479987,90.2723863 C63.9211121,84.1404608 73.1241202,86.2404703 73.0515884,93.0123825 L73.0515884,93.0123825 L73.0515884,93.0123825 C78.3011856,88.7338584 85.6815118,94.6191756 82.6786944,100.688809 L82.6786944,100.688809 C89.2637304,99.111882 93.359645,107.616878 88.0204497,111.781911 L88.0204497,111.781911 C94.6379117,113.218895 94.6379117,122.658271 88.0204497,124.095254 L88.0204497,124.095254 C93.359645,128.260288 89.2637304,136.765284 82.6786944,135.188356 L82.6786944,135.188356 C85.6815118,141.25799 78.3011856,147.143307 73.0515884,142.864783 L73.0515884,142.864783 L73.0515884,142.864783 C73.1241202,149.636695 63.9211121,151.736705 61.0479987,145.604779 L61.0479987,145.604779 L61.0479987,145.604779 C58.1748853,151.736705 48.9718771,149.636695 49.044409,142.864783 L49.044409,142.864783 L49.044409,142.864783 C43.7948118,147.143307 36.4144856,141.25799 39.417303,135.188356 L39.417303,135.188356 C32.832267,136.765284 28.7363524,128.260288 34.0755477,124.095254 L34.0755477,124.095254 L34.0755477,124.095254 C27.4580857,122.658271 27.4580857,113.218895 34.0755477,111.781911 L34.0755477,111.781911 L34.0755477,111.781911 C28.7363524,107.616878 32.832267,99.111882 39.417303,100.688809 L39.417303,100.688809 C36.4144856,94.6191756 43.7948118,88.7338584 49.044409,93.0123825 L49.044409,93.0123825 L49.044409,93.0123825 C48.9718771,86.2404703 58.1748853,84.1404608 61.0479987,90.2723863 Z" id="Fill-38" fill="#4E5D99"></path>
                    <path d="M60.7313026,45.2159492 C60.8179231,61.9861596 47.2928717,75.6511547 30.5226614,75.7386106 C13.752451,75.825231 0.0874559282,62.3001797 0,45.5299693 C-0.0866204424,28.759759 13.4384309,15.0947639 30.2086412,15.0073161 C46.9788516,14.9215408 60.6438467,28.4457389 60.7313026,45.2159492" id="Fill-54" fill="#C5A7CD"></path>
                    <g id="Green-Arrow-Icon-(1)" transform="translate(45.313, 0)" fill-rule="nonzero">
                        <polygon id="Path" fill="#2EECA6" points="54.098563 0 0 39.2285053 6.90018655 105.729757 67.8989361 133 122 93.7689919 115.097312 27.2702433"></polygon>
                        <polygon id="Path" fill="#171C26" points="88.9052054 83.7080155 78.7706141 82.103458 81.2105157 66.9581208 82.9504455 62.7867671 81.6129995 61.7997286 78.2406355 65.0758037 38.0047579 94 32 85.7788124 72.2358776 56.8546161 76.4232087 54.6945393 75.8932301 53.1271817 71.3534132 53.4669412 56.0890287 51.0489448 57.7089633 41 89.6276763 46.0542324 94 52.0434233"></polygon>
                    </g>
                </g>
                <g id="Group-3" transform="translate(505.7647, 304.0302) scale(-1, 1) translate(-505.7647, -304.0302)translate(410.1136, 253)">
                    <path d="M37.1801507,67.5956672 C44.3311507,56.8696672 95.0541507,-13.1473328 191.302151,2.18466718" id="Stroke-272" stroke="#C5A7CD" stroke-width="1.5"></path>
                    <polygon id="Fill-274" fill="#C5A7CD" points="45.0915507 66.9970672 44.7655507 65.5310672 37.5475507 67.1440672 36.4665507 59.8270672 34.9815507 60.0480672 36.3005507 68.9590672"></polygon>
                    <path d="M38.4557507,72.9734672 C38.4557507,72.9734672 71.0327507,77.9334672 68.8907507,90.1594672 C66.2137507,105.435467 0.470750696,107.368467 0.00175069572,87.9094672 C-0.177249304,80.5314672 13.3537507,65.9694672 48.1427507,77.4724672" id="Stroke-292" stroke="#C5A7CD"></path>
                </g>
                <g id="Group-8" transform="translate(271.4613, 383.6609)">
                    <path d="M101.843,10.8428 C92.683,7.9548 44.228,-4.7772 0,32.7368" id="Stroke-276" stroke="#C5A7CD" stroke-width="1.5"></path>
                    <polygon id="Fill-278" fill="#C5A7CD" points="98.7269 3.6458 97.4409 4.4208 101.2649 10.7518 94.6699 14.1028 95.3519 15.4408 103.3819 11.3578"></polygon>
                    <path d="M127.8935,0 C127.8935,0 146.8775,3.47 145.0655,15.732 C142.7995,31.054 103.9505,35.934 104.5485,16.591 C104.7755,9.258 113.4085,-5.84 133.4025,4.041" id="Stroke-290" stroke="#C5A7CD"></path>
                </g>
                <g id="Group-4" transform="translate(432.473, 501.3133)">
                    <g id="Group-22" transform="translate(0, 13.0866)">
                        <path d="M67.092,11.435 C58.261,13.425 14.873,21.896 0,0" id="Stroke-280" stroke="#C5A7CD" stroke-width="1.5"></path>
                        <polygon id="Fill-282" fill="#C5A7CD" points="60.958 6.4081 60.182 7.6931 66.516 11.5111 62.244 17.5501 63.471 18.4161 68.671 11.0601"></polygon>
                    </g>
                    <path d="M110.9668,0 C110.9668,0 143.5008,5.351 140.9748,21.078 C137.8188,40.73 71.7948,45.231 71.9226141,20.317 C71.9708,10.871 85.9958,-8.199 120.5478,5.465" id="Stroke-294" stroke="#C5A7CD"></path>
                </g>
                <g id="Group-7" transform="translate(463, 46.9441)">
                    <path d="M21.827,51.8937 C17.7,53.4597 6.256,58.8047 0,71.7007" id="Stroke-284" stroke="#C5A7CD" stroke-width="1.5"></path>
                    <polygon id="Fill-286" fill="#C5A7CD" points="14.9187 48.2256 14.3947 49.6326 21.3267 52.2086 18.2507 58.9356 19.6167 59.5586 23.3617 51.3646"></polygon>
                    <path d="M110.7289,41.502 C110.7289,64.423 92.1479,83.004 69.2269,83.004 C46.3059,83.004 27.7249,64.423 27.7249,41.502 C27.7249,18.581 46.3059,0 69.2269,0 C92.1479,0 110.7289,18.581 110.7289,41.502 Z" id="Stroke-288" stroke="#33D2A3"></path>
                </g>
                <g id="Group-6" transform="translate(172.8597, 209.5013)">
                    <polyline id="Stroke-323" stroke="#D6D6D6" points="0.5 6.5 0.5 0.5 6.5 0.5"></polyline>
                    <line x1="15.3917988" y1="0.5" x2="107.4229" y2="0.5" id="Stroke-324" stroke="#D6D6D6" stroke-dasharray="11.846,11.846"></line>
                    <polyline id="Stroke-325" stroke="#D6D6D6" points="108.8883 0.5 114.8883 0.5 114.8883 6.5"></polyline>
                    <line x1="114.8883" y1="14.9119122" x2="114.8883" y2="79.1202" id="Stroke-326" stroke="#D6D6D6" stroke-dasharray="11.241,11.241"></line>
                    <polyline id="Stroke-327" stroke="#D6D6D6" points="114.8883 81.6279 114.8883 87.6279 108.8883 87.6279"></polyline>
                    <line x1="104.454001" y1="87.6279" x2="12.4229" y2="87.6279" id="Stroke-328" stroke="#D6D6D6" stroke-dasharray="11.846,11.846"></line>
                    <polyline id="Stroke-329" stroke="#D6D6D6" points="6.5 87.6279 0.5 87.6279 0.5 81.6279"></polyline>
                    <line x1="0.5" y1="76.3284878" x2="0.5" y2="12.1202" id="Stroke-330" stroke="#D6D6D6" stroke-dasharray="11.241,11.241"></line>
                    <polygon id="Fill-331" fill="#574599" points="10.0043 79.0037 107.0043 79.0037 107.0043 9.0037 10.0043 9.0037"></polygon>
                </g>
                <g id="Group-5" transform="translate(274.7627, 297.407) scale(-1, 1) translate(-274.7627, -297.407)translate(246.1829, 279.1977)">
                    <path d="M54.007,1.4738 C50.266,9.2378 31.241,44.6828 0,34.6418" id="Stroke-371" stroke="#C5A7CD" stroke-width="1.5"></path>
                    <polygon id="Fill-373" fill="#C5A7CD" points="46.2276 3.095 46.7426 4.505 53.6876 1.963 55.7156 9.076 57.1596 8.663 54.6866 0"></polygon>
                </g>
            </g>
        </g>
    </g>
</svg>