<?xml version="1.0" encoding="UTF-8"?>
<svg width="51px" height="51px" viewBox="0 0 51 51" version="1.1" xmlns="http://www.w3.org/2000/svg" xmlns:xlink="http://www.w3.org/1999/xlink">
    <title>143FB6A4-AE9E-4AC0-A101-FF3B486FBF5E</title>
    <g id="Page-1" stroke="none" stroke-width="1" fill="none" fill-rule="evenodd">
        <g id="Index" transform="translate(-995, -2961)" stroke="#181C26" stroke-width="3">
            <g id="Group-18" transform="translate(997, 2963)">
                <polyline id="path218" transform="translate(10.9667, 25.0667) scale(-1, 1) rotate(-180) translate(-10.9667, -25.0667)" points="7.83333317 46.999999 0 46.999999 0 3.13333327 21.9333329 3.13333327"></polyline>
                <polyline id="path220" transform="translate(33.6833, 10.1833) scale(-1, 1) rotate(-180) translate(-33.6833, -10.1833)" points="29.766666 17.233333 37.5999992 17.233333 37.5999992 3.13333327"></polyline>
                <polygon id="path222" transform="translate(18.8, 3.1333) scale(-1, 1) rotate(-180) translate(-18.8, -3.1333)" points="12.5333331 0 25.0666661 0 25.0666661 6.26666653 12.5333331 6.26666653"></polygon>
                <polyline id="path224" transform="translate(14.8833, 24.2833) scale(-1, 1) rotate(-180) translate(-14.8833, -24.2833)" points="6.26666653 40.7333325 6.26666653 7.83333317 23.4999995 7.83333317"></polyline>
                <line x1="31.3333327" y1="21.9333329" x2="31.3333327" y2="7.83333317" id="path226" transform="translate(31.3333, 14.8833) scale(-1, 1) rotate(-180) translate(-31.3333, -14.8833)"></line>
                <path d="M46.999999,34.4666659 C46.999999,27.5451327 41.3881991,21.9333329 34.4666659,21.9333329 C27.5451327,21.9333329 21.9333329,27.5451327 21.9333329,34.4666659 C21.9333329,41.3881991 27.5451327,46.999999 34.4666659,46.999999 C41.3881991,46.999999 46.999999,41.3881991 46.999999,34.4666659 Z" id="path228" transform="translate(34.4667, 34.4667) scale(-1, 1) rotate(-180) translate(-34.4667, -34.4667)"></path>
                <polyline id="path230" transform="translate(34.4667, 34.4667) scale(-1, 1) rotate(-180) translate(-34.4667, -34.4667)" points="28.1999994 33.6833326 31.3333327 30.5499994 40.7333325 38.3833325"></polyline>
                <line x1="26.6333328" y1="12.5333331" x2="17.233333" y2="12.5333331" id="path232" transform="translate(21.9333, 12.5333) scale(-1, 1) rotate(-180) translate(-21.9333, -12.5333)"></line>
                <line x1="10.9666664" y1="12.5333331" x2="14.0999997" y2="12.5333331" id="path234" transform="translate(12.5333, 12.5333) scale(-1, 1) rotate(-180) translate(-12.5333, -12.5333)"></line>
                <line x1="10.9666664" y1="18.7999996" x2="14.0999997" y2="18.7999996" id="path236" transform="translate(12.5333, 18.8) scale(-1, 1) rotate(-180) translate(-12.5333, -18.8)"></line>
                <line x1="10.9666664" y1="25.0666661" x2="14.0999997" y2="25.0666661" id="path238" transform="translate(12.5333, 25.0667) scale(-1, 1) rotate(-180) translate(-12.5333, -25.0667)"></line>
                <line x1="10.9666664" y1="31.3333327" x2="14.0999997" y2="31.3333327" id="path240" transform="translate(12.5333, 31.3333) scale(-1, 1) rotate(-180) translate(-12.5333, -31.3333)"></line>
                <line x1="17.233333" y1="18.7999996" x2="26.6333328" y2="18.7999996" id="path242" transform="translate(21.9333, 18.8) scale(-1, 1) rotate(-180) translate(-21.9333, -18.8)"></line>
            </g>
        </g>
    </g>
</svg>