<svg width="51" height="51" xmlns="http://www.w3.org/2000/svg"><g stroke="#181C26" stroke-width="3" fill="none" fill-rule="evenodd"><path d="M9.833 5.133H2V49h21.933m7.834-43.867H39.6v14.1M14.533 8.267h12.534V2H14.533z"/><path d="M8.267 9.833v32.9H25.5m7.833-32.899v14.1"/><path d="M49 36.467C49 43.388 43.388 49 36.467 49c-6.922 0-12.534-5.612-12.534-12.533 0-6.922 5.612-12.534 12.534-12.534C43.388 23.933 49 29.545 49 36.467z"/><path d="M30.2 37.25l3.133 3.133 9.4-7.833m-14.1-18.016h-9.4m-6.266 0H16.1M12.967 20.8H16.1m-3.133 6.266H16.1m-3.133 6.268H16.1M19.233 20.8h9.4"/></g></svg>