<svg width="34" height="25" xmlns="http://www.w3.org/2000/svg"><g fill="#FFF"><path d="M25.52 8.971a1.655 1.655 0 00-2.32 0l-10.29 10.16c-2.2 2.171-5.778 2.171-7.977 0a5.524 5.524 0 010-7.874L16.335 0h-4.638L2.613 8.967A8.692 8.692 0 000 15.194c0 2.352.928 4.563 2.613 6.227A8.92 8.92 0 008.92 24a8.92 8.92 0 006.308-2.58L25.52 11.26c.64-.632.64-1.657 0-2.289z"/><path d="M8.48 16.029c.64.632 1.68.632 2.32 0l10.29-10.16c2.2-2.171 5.778-2.171 7.977 0a5.524 5.524 0 010 7.874L17.665 25h4.639l9.083-8.967A8.692 8.692 0 0034 9.806a8.692 8.692 0 00-2.613-6.227A8.92 8.92 0 0025.08 1a8.92 8.92 0 00-6.308 2.58L8.48 13.74a1.604 1.604 0 000 2.289z"/></g></svg>