<svg width="130" height="133" xmlns="http://www.w3.org/2000/svg"><path d="M7.823 66.692c-12.672 5.937-8.332 24.957 5.663 24.807-8.842 10.85 3.32 26.102 15.865 19.896-3.26 13.61 14.318 22.074 22.925 11.04 2.97 13.676 22.478 13.676 25.448 0 8.607 11.034 26.184 2.57 22.925-11.04 12.544 6.206 24.707-9.047 15.865-19.896 13.995.15 18.335-18.87 5.663-24.807 12.672-5.938 8.332-24.958-5.663-24.808 8.842-10.849-3.32-26.101-15.865-19.896C103.91 8.38 86.331-.086 77.724 10.948c-2.97-13.675-22.478-13.675-25.448 0C43.67-.085 26.092 8.38 29.351 21.989c-12.544-6.205-24.707 9.047-15.865 19.896-13.995-.15-18.335 18.87-5.663 24.808z" fill="#4E5D99" fill-rule="evenodd"/></svg>