<?xml version="1.0" encoding="UTF-8"?>
<svg width="130px" height="133px" viewBox="0 0 130 133" version="1.1" xmlns="http://www.w3.org/2000/svg" xmlns:xlink="http://www.w3.org/1999/xlink">
    <title>8EF56746-0FF0-4093-B6C0-C0A5064706F9</title>
    <g id="Page-1" stroke="none" stroke-width="1" fill="none" fill-rule="evenodd">
        <g id="Services" transform="translate(-1420, -421)" fill="#4E5D99">
            <path d="M1485,430.515022 L1485,430.515022 C1490.93776,417.842401 1509.95727,422.182412 1509.80737,436.177669 L1509.80737,436.177669 L1509.80737,436.177669 C1520.65652,427.335404 1535.90916,439.498368 1529.70335,452.042253 L1529.70335,452.042253 C1543.3124,448.783276 1551.77727,466.360233 1540.74295,474.967951 L1540.74295,474.967951 C1554.41902,477.937711 1554.41902,497.445717 1540.74295,500.415476 L1540.74295,500.415476 C1551.77727,509.023195 1543.3124,526.600151 1529.70335,523.341175 L1529.70335,523.341175 C1535.90916,535.885059 1520.65652,548.048024 1509.80737,539.205758 L1509.80737,539.205758 L1509.80737,539.205758 C1509.95727,553.201016 1490.93776,557.541027 1485,544.868406 L1485,544.868406 L1485,544.868406 C1479.06224,557.541027 1460.04273,553.201016 1460.19263,539.205758 L1460.19263,539.205758 L1460.19263,539.205758 C1449.34348,548.048024 1434.09084,535.885059 1440.29665,523.341175 L1440.29665,523.341175 C1426.6876,526.600151 1418.22273,509.023195 1429.25705,500.415476 L1429.25705,500.415476 L1429.25705,500.415476 C1415.58098,497.445717 1415.58098,477.937711 1429.25705,474.967951 L1429.25705,474.967951 L1429.25705,474.967951 C1418.22273,466.360233 1426.6876,448.783276 1440.29665,452.042253 L1440.29665,452.042253 C1434.09084,439.498368 1449.34348,427.335404 1460.19263,436.177669 L1460.19263,436.177669 L1460.19263,436.177669 C1460.04273,422.182412 1479.06224,417.842401 1485,430.515022 Z" id="Fill-38" transform="translate(1485, 487.6917) scale(-1, 1) rotate(90) translate(-1485, -487.6917)"></path>
        </g>
    </g>
</svg>