<?xml version="1.0" encoding="UTF-8"?>
<svg width="1920px" height="930px" viewBox="0 0 1920 930" version="1.1" xmlns="http://www.w3.org/2000/svg" xmlns:xlink="http://www.w3.org/1999/xlink">
    <title>2B98D960-5A05-4C15-A2ED-6FC7F57C54B0</title>
    <defs>
        <rect id="path-1" x="0" y="0" width="1920" height="930"></rect>
    </defs>
    <g id="Page-1" stroke="none" stroke-width="1" fill="none" fill-rule="evenodd">
        <g id="Index" transform="translate(0, -724)">
            <g id="Group-11" transform="translate(0, 724)">
                <mask id="mask-2" fill="white">
                    <use xlink:href="#path-1"></use>
                </mask>
                <g id="Rectangle"></g>
                <rect id="Rectangle" fill="#233044" mask="url(#mask-2)" x="-10" y="3" width="1930" height="745"></rect>
                <path d="M0,747.662621 L1920,747.662621 L1920,756.61165 C1690,828.203883 1370.33333,864 961,864 C551.666667,864 231.333333,828.203883 0,756.61165 L0,747.662621 Z" id="Rectangle-Copy-2" fill="#233044" mask="url(#mask-2)"></path>
                <path d="M1652.9218,-55.3572463 C1637.46281,-53.8587044 1622.03809,-52.3253126 1606.61338,-50.8267706 C1594.41071,-49.4676279 1582.20805,-48.143335 1570.00539,-46.8538919 C1558.04266,-45.4598994 1546.11422,-44.0659069 1534.18577,-42.7067642 C1486.50626,-36.9913948 1438.92958,-30.613879 1391.45574,-23.6439163 C1296.54232,-9.70399108 1202.04023,6.67542111 1108.05229,25.3200712 C965.836417,53.5484198 824.717408,86.8648412 684.695268,125.687533 C614.701336,145.168579 544.947345,166.043617 475.46757,188.626296 C440.744822,199.917635 406.090627,211.627172 371.47071,223.929156 C354.195029,230.062724 336.88507,236.30084 319.609389,242.713206 C310.971548,245.954238 302.367985,249.195271 293.730144,252.436304 C291.536407,253.272699 289.342669,254.109095 287.148932,254.91064 C283.481277,256.374332 279.813623,257.803175 276.145968,259.266867 C268.810659,262.124552 261.441073,264.982236 254.105763,267.909621 C246.22202,270.906705 236.521588,274.984133 227.301036,278.713063 C218.046206,282.476843 208.791377,286.240622 199.536547,290.039252 C190.418827,294.012131 181.335383,297.91531 172.149108,301.853339 C163.031387,305.756518 153.879389,309.694547 145.070163,313.806825 L118.368266,326.004259 C109.421931,330.081687 100.989754,334.333365 92.2833586,338.515342 C74.6991828,346.774748 58.5203701,355.487201 41.8959544,364.060255 C33.566608,368.346782 26.0941902,372.807558 18.1076153,377.163785 L6.38483144,383.7504 C2.37440539,385.911088 -1.01903203,388.176326 -4.75524091,390.371864 C-12.0905501,394.79779 -19.3915821,399.258566 -26.7268913,403.719343 C-33.4452119,408.214968 -40.1635324,412.675745 -46.881853,417.17137 C-73.0353152,435.119024 -95.5553999,453.206077 -113.44807,470.840083 C-118.281147,475.997855 -122.771454,481.190477 -127.433145,486.34825 C-131.614957,491.471172 -135.008395,496.524395 -138.881712,501.612468 C-141.932378,506.595991 -145.017321,511.544665 -147.79377,516.458488 C-148.959193,518.897975 -150.158893,521.302612 -151.358593,523.742099 L-153.141005,527.40133 C-153.723716,528.586223 -154.135042,529.771117 -154.614922,530.95601 C-162.56722,550.123408 -166.337706,568.245311 -166.954694,587.586957 C-167.12608,596.29941 -166.920417,606.092208 -164.383908,619.823034 C-163.184208,626.514198 -161.264688,633.414461 -159.413722,639.094981 C-157.459925,644.81035 -155.540405,649.759024 -153.518053,654.2198 C-149.507627,663.106502 -145.257261,670.390113 -140.561292,677.290376 C-131.237909,690.951503 -120.234945,702.904989 -105.564326,714.231178 C-91.0308166,725.487668 -72.6925437,735.942612 -48.767096,744.480816 C-24.9102026,753.05387 4.87663703,759.431386 38.5710713,763.613363 C66.5754993,767.098344 97.1849904,769.224183 129.028459,770.304527 C160.871927,771.454571 193.98365,771.59397 227.60953,771.140923 C261.23541,770.618176 295.478278,769.468132 329.755424,767.795341 C346.962551,766.958945 364.169678,766.018 381.376805,764.867956 C391.968443,764.13611 402.525804,763.404264 413.048888,762.672418 C413.048888,762.672418 414.557082,762.567869 417.504917,762.32392 C469.571429,738.823529 509.357143,698.682353 509.357143,618.4 C509.357143,538.117647 429.785714,497.976471 396.047424,498.441135 C393.922241,498.615384 392.859649,498.685083 392.859649,498.685083 C386.209883,499.24268 379.594394,499.730578 372.91035,500.218475 C373.218845,500.079076 373.595893,499.939677 373.972942,499.835127 L407.941593,486.801297 C423.914743,480.73743 440.025002,474.812961 456.169537,469.027892 C488.458609,457.388055 521.021897,446.166415 553.756571,435.293273 C619.294474,413.61669 685.517919,393.473497 752.221245,374.515199 C885.627896,336.772851 1020.78268,304.118577 1156.82867,276.343275 C1246.84046,258.012274 1337.19501,241.84196 1427.85806,228.041434 C1473.17245,221.176021 1518.52111,214.833355 1563.93833,209.187685 C1575.28407,207.828543 1586.6298,206.43455 1598.00982,205.040558 C1609.08133,203.785964 1620.18713,202.496521 1631.29292,201.241928 C1639.21094,200.405533 1647.06041,199.569137 1654.97843,198.732741 C1651.31078,200.96313 1647.6774,203.193518 1644.04402,205.458755 C1558.96815,257.733475 1469.16202,307.045961 1378.39614,354.825055 C1286.39628,403.161746 1193.02534,449.825645 1098.96885,495.409201 C1051.90633,518.166129 1004.7067,540.644259 957.369962,562.878439 C933.684454,573.89098 909.964669,584.868671 886.244885,595.881212 C863.519137,606.266457 840.827666,616.651701 818.067642,627.002096 C803.362746,632.717465 788.589296,638.432834 773.884401,644.113354 L726.856157,662.653454 C618.677485,705.832373 511.287188,750.649233 404.033999,800.066268 C350.287434,824.949034 296.746533,850.772746 242.38298,880.499637 C215.098372,895.519906 187.813764,911.237172 158.643913,931.031866 C144.007571,941.173161 128.994182,951.941754 111.615669,967.55447 C107.125363,971.701598 102.703611,975.883575 97.7334247,981.111047 C92.8317929,986.303669 87.7244982,991.984189 81.9316606,999.651148 C76.2073772,1007.31811 69.8661053,1016.44876 63.3191705,1030.24928 C62.5307961,1032.02662 61.7081446,1033.80396 60.9197703,1035.54646 C60.1656731,1037.3238 59.2744673,1039.65873 58.5203701,1041.71487 C57.6977186,1043.84071 56.9778985,1045.9317 56.2238013,1048.12724 C55.4697041,1050.53188 54.7156069,1053.11076 54.030064,1055.61995 C51.3564466,1065.3779 49.2312636,1078.34203 49.1969864,1092.07285 L49.1969864,1092.49105 C49.2312636,1100.88986 49.9168065,1109.95081 51.5963866,1119.53451 C53.3102439,1129.15305 56.0866927,1139.1898 59.9942873,1149.0523 C67.8094765,1168.81214 80.5262976,1186.82949 93.4487815,1199.47998 C106.542651,1212.37441 119.499412,1220.73836 130.742316,1226.76738 C142.190883,1232.83125 152.096978,1236.52533 161.248976,1239.45271 C179.244477,1245.06353 193.640878,1247.25907 206.734748,1248.79246 C219.828618,1250.2213 231.44857,1250.7092 242.451534,1250.74405 C258.630347,1250.8486 273.472351,1250.08191 287.697366,1248.93186 C301.888105,1247.78182 315.530409,1246.21358 328.761387,1244.43624 C378.771742,1237.57082 424.977335,1227.70833 470.497384,1216.90488 C493.188855,1211.50316 515.606108,1205.78779 537.817698,1199.89817 C559.857903,1194.04341 582.138048,1187.84014 602.944275,1182.08992 C654.29144,1167.90605 705.878544,1153.75702 757.56848,1139.4686 L754.449259,1140.96714 C688.87708,1172.29712 623.133514,1203.66195 557.115731,1236.31623 C550.911568,1239.34816 545.35867,1242.171 539.737219,1245.09838 C534.115767,1248.02577 528.562869,1251.02285 522.975694,1254.12448 C511.801345,1260.3626 500.592718,1266.94921 488.835657,1274.54647 C477.010042,1282.28313 464.978764,1290.43799 450.513808,1302.91422 C446.880431,1306.05071 443.041391,1309.57054 438.893856,1313.75251 C434.849153,1317.76024 430.221738,1322.74377 425.320106,1328.91218 C420.418474,1335.1503 414.762745,1342.81726 408.661413,1354.87529 C405.679302,1360.90431 402.560081,1368.08337 399.920741,1377.17917 C399.612247,1378.32922 399.33803,1379.40956 398.995258,1380.55961 L398.104053,1384.42794 C397.487064,1387.04167 396.972907,1389.65541 396.561581,1392.30399 C396.355918,1393.52374 396.150255,1394.98743 395.944592,1396.55567 C395.773207,1398.12391 395.636098,1399.62245 395.464712,1401.15585 C395.190495,1404.22263 395.053387,1407.28941 395.019109,1410.39105 C394.984832,1414.22453 395.121941,1418.058 395.430435,1421.89148 C395.567544,1423.77337 395.773207,1425.69011 396.013147,1427.572 C396.287364,1429.55844 396.595858,1431.57973 396.972907,1433.56617 C398.37827,1441.54678 400.606284,1449.28344 403.588396,1456.7413 C404.308216,1458.62319 405.09659,1460.43538 405.919242,1462.24757 C406.741893,1463.99006 407.530268,1465.628 408.387196,1467.33564 C410.101054,1470.61152 411.986297,1473.92226 413.940094,1477.05874 C415.893891,1480.09067 417.676303,1482.56501 419.767209,1485.28329 C420.726969,1486.60759 421.755283,1487.86218 422.783597,1489.15162 C423.811912,1490.40622 424.943058,1491.73051 425.799986,1492.7063 C427.685229,1494.72759 429.639027,1496.78373 431.592824,1498.73532 C433.580898,1500.68691 435.740359,1502.67335 437.351384,1504.03249 C439.133796,1505.53104 440.88193,1506.95988 442.732896,1508.42357 C444.549585,1509.81756 446.503382,1511.24641 447.874468,1512.2222 C450.959411,1514.31319 454.387126,1516.54358 457.300683,1518.21637 C460.008578,1519.74976 462.750749,1521.21345 465.561475,1522.60744 C468.166538,1523.86204 470.325999,1524.83783 472.759676,1525.88333 C473.890822,1526.40607 475.056245,1526.85912 476.255945,1527.34702 C477.249982,1527.73037 478.278296,1528.11371 479.340888,1528.53191 C481.294685,1529.26376 483.591254,1530.0653 485.373666,1530.65775 C487.190354,1531.21535 488.972766,1531.77295 490.755177,1532.33054 C492.674698,1532.92299 494.251446,1533.34119 495.828195,1533.72453 C497.439221,1534.14273 499.050247,1534.56093 500.626995,1534.94428 C503.677661,1535.64127 506.488387,1536.19887 509.367668,1536.79132 C509.539053,1536.82617 509.676162,1536.86102 509.847548,1536.89587 C512.726828,1537.38377 515.674662,1537.83681 518.622497,1538.18531 L523.044249,1538.63836 C523.764069,1538.67321 524.518166,1538.74291 525.272263,1538.81261 C525.683589,1538.81261 526.163469,1538.84746 526.574795,1538.88231 C530.139618,1539.02171 533.704441,1539.05656 537.20071,1539.02171 C540.354207,1538.91716 543.507705,1538.74291 546.661202,1538.53381 C549.094879,1538.28986 551.562834,1538.01106 553.996511,1537.80196 C556.464466,1537.52316 558.109769,1537.24437 560.269229,1536.96557 C561.263266,1536.82617 562.29158,1536.68677 563.217063,1536.54737 C564.176823,1536.40797 565.033752,1536.23372 565.924958,1536.12917 C567.673092,1535.81552 569.421227,1535.50188 571.169361,1535.18823 L576.002439,1534.24728 L585.154437,1532.36539 C596.87722,1529.85621 607.366027,1527.20762 617.683448,1524.52418 C638.215458,1519.05276 657.616323,1513.37224 676.777247,1507.55232 C715.099096,1495.84279 752.392631,1483.5408 789.480502,1470.96002 C863.621968,1445.79846 936.700843,1419.41715 1009.64261,1392.02519 C1051.0494,1376.41248 1092.35336,1360.48611 1133.72588,1344.00215 C1151.72138,1336.82309 1169.64833,1329.57433 1187.64383,1322.11647 C1186.20419,1325.94995 1184.79882,1330.13193 1183.49629,1334.8018 C1180.61701,1345.1522 1177.97767,1358.22088 1178.45755,1375.40183 C1178.86888,1385.96133 1180.61701,1397.74056 1184.59316,1409.76375 C1188.67214,1421.89148 1194.80775,1433.56617 1202.17734,1443.42867 C1202.31445,1443.60292 1202.45155,1443.74232 1202.52011,1443.91657 C1209.68403,1453.43057 1218.97314,1462.38697 1228.74212,1469.18268 C1238.54539,1476.01324 1248.65715,1480.78767 1257.74059,1483.8893 C1266.92686,1486.99094 1275.1191,1488.62888 1282.35158,1489.53497 C1289.44695,1490.37137 1295.68539,1490.58047 1301.34112,1490.47592 C1313.92083,1490.16227 1323.31277,1488.48948 1331.50501,1486.78184 C1339.49158,1485.0045 1346.38129,1482.94836 1352.5169,1480.92707 C1364.75384,1476.77994 1374.79704,1472.42371 1384.08615,1468.06749 C1402.56153,1459.35503 1418.15763,1450.50318 1433.13674,1441.51193 C1462.85503,1423.56428 1489.62548,1405.12872 1515.74467,1386.48407 C1541.7953,1367.76972 1566.92044,1348.81143 1591.63427,1329.88798 C1597.35855,1325.39235 1603.18566,1320.96643 1608.9785,1316.50565 C1603.97404,1326.64694 1599.03813,1336.75339 1594.03367,1346.89469 C1580.80269,1373.2063 1566.95472,1399.34366 1552.69543,1424.36582 C1545.56578,1436.8072 1538.29903,1449.10919 1531.1351,1460.43538 C1527.57028,1466.0462 1524.00546,1471.51762 1520.71485,1476.25719 C1517.62991,1480.75282 1514.3393,1484.96965 1513.41382,1486.08484 C1513.4481,1486.08484 1513.48237,1486.04999 1513.51665,1486.01514 C1481.74307,1547.73741 1464.21429,1581.78824 1504,1621.92941 C1530.52381,1648.6902 1578.89616,1648.6902 1649.11704,1621.92941 C1651.00228,1619.90812 1652.37337,1618.44443 1653.33313,1617.43379 C1654.15578,1616.52769 1654.60138,1616.03979 1654.60138,1616.03979 C1664.77027,1603.56356 1671.76281,1594.66524 1675.579,1589.34484 C1681.20045,1581.43393 1686.20491,1573.97607 1691.00371,1566.55306 C1700.63559,1551.81159 1709.27343,1537.48831 1717.70561,1523.16504 C1734.50141,1494.48364 1750.02896,1465.94165 1765.00807,1437.0163 C1768.71,1429.76754 1772.41193,1422.48393 1776.11386,1415.23517 C1777.93055,1411.57594 1779.74724,1407.91671 1781.56393,1404.29233 C1784.85454,1397.53146 1788.17942,1390.73575 1791.47003,1383.97489 C1804.97522,1355.99049 1817.58921,1327.65759 1829.0035,1299.56864 C1840.28068,1271.58424 1850.49527,1243.59984 1857.00793,1217.77613 C1860.40137,1204.77715 1862.69793,1192.37061 1863.93191,1180.93988 C1865.20017,1169.43944 1865.44011,1158.77539 1864.5489,1149.1917 C1864.48035,1147.24011 1864.24041,1145.39307 1863.96619,1143.65058 C1863.69197,1141.87324 1863.48631,1140.06105 1863.21209,1138.2837 C1862.52655,1134.86842 1861.87528,1131.45314 1861.18974,1128.03786 C1857.31642,1112.94789 1852.1063,1100.29741 1844.11972,1087.50753 C1842.2002,1084.54529 1840.14357,1081.54821 1837.74417,1078.34203 C1832.19127,1071.05841 1825.26729,1063.56571 1817.10933,1056.97909 C1810.6995,1051.82132 1804.15257,1047.56964 1797.84557,1044.18921 C1798.53112,1043.21341 1799.18238,1042.23762 1799.83365,1041.22697 C1800.27925,1040.56483 1800.6563,1039.93753 1801.1019,1039.27539 C1801.54751,1038.43899 1802.09594,1037.63744 1802.57582,1036.80105 C1803.08998,1035.96465 1803.53558,1035.12826 1804.04974,1034.29186 C1804.5639,1033.35092 1805.07805,1032.40997 1805.59221,1031.50388 C1806.79191,1029.27349 1807.88878,1026.9734 1808.95137,1024.63846 C1809.01992,1024.49906 1809.12276,1024.35967 1809.19131,1024.25512 C1812.44764,1016.93666 1815.70397,1008.8515 1818.68608,998.849602 C1821.56536,988.812856 1824.34181,976.82452 1824.9588,960.828456 C1825.26729,951.732655 1824.75313,941.41711 1822.38801,929.637873 C1820.02289,917.928336 1815.56686,904.685407 1808.163,891.895525 C1803.43275,883.60127 1797.46853,875.690362 1790.71593,868.61585 C1810.52812,856.313866 1830.37459,843.523985 1851.69497,827.911268 C1862.69793,819.686713 1873.94084,811.078809 1887.30892,798.672275 C1890.70236,795.500942 1894.19863,792.050811 1898.00339,788.008232 C1901.84243,783.930804 1905.95569,779.400329 1910.65166,773.336461 C1915.31335,767.133194 1920.52348,760.058682 1926.59053,748.140046 C1929.60692,742.145878 1932.7947,735.001667 1935.67398,725.348268 C1938.51898,715.62517 1941.15832,703.114088 1941.02121,687.187723 C1940.8841,676.419131 1939.37591,664.535344 1935.70825,652.512159 C1935.60542,652.26821 1935.53687,651.954562 1935.43404,651.675763 C1931.80066,640.035926 1926.89903,627.420293 1919.35806,613.828866 C1915.51902,607.068002 1910.96016,600.02834 1905.6472,593.093227 C1900.26569,586.088415 1893.95869,579.153302 1886.82904,572.601537 C1872.67258,559.428308 1854.6428,548.415767 1836.57875,541.724603 C1818.48042,534.894039 1800.72485,532.140904 1785.26586,531.583307 C1757.56993,530.851461 1736.21527,535.904684 1717.94555,541.689753 C1708.79355,544.686837 1700.36137,548.032419 1692.30624,551.726499 C1688.12443,553.643239 1684.45678,555.420579 1680.00075,557.755517 C1675.579,560.090454 1671.2258,562.529941 1666.97543,565.143677 C1666.94116,565.178527 1666.8726,565.213377 1666.83832,565.248227 C1666.39272,565.561875 1665.91284,565.910373 1665.43296,566.258871 C1658.61181,570.405999 1651.79066,574.518277 1644.93523,578.665405 C1638.11408,582.777683 1631.22437,586.541462 1624.40322,590.479491 C1617.65062,594.52207 1610.45242,598.21615 1603.4256,602.049629 C1596.36451,605.848259 1589.30342,609.646889 1581.96811,613.271269 C1553.24386,628.11729 1523.21708,641.952665 1492.84753,655.404693 C1413.90727,690.184807 1331.19651,720.782943 1247.45745,749.464339 C1154.70349,781.107969 1060.23568,809.998465 965.116597,837.599517 C940.711269,844.674029 916.237387,851.643991 891.729228,858.544254 C897.042185,856.522965 902.355143,854.501676 907.668101,852.480387 L908.250812,852.236438 L908.387921,852.166738 C921.618899,846.31197 934.8156,840.457201 947.978024,834.532733 C960.146411,829.061312 972.314797,823.589892 984.483184,818.083621 L1057.18501,784.871749 C1105.58434,762.567869 1153.77801,739.98519 1201.90312,717.054013 C1298.18762,671.156809 1393.99224,624.074711 1489.35126,574.797075 C1583.51058,525.902788 1677.15574,475.440258 1770.38958,418.983561 C1777.862,414.418235 1785.36869,409.81806 1792.84111,405.183035 C1803.94691,398.352471 1814.94987,391.312809 1825.91856,384.273147 C1847.82165,370.158972 1869.38198,355.6266 1890.11965,340.81543 C1931.62927,311.193089 1970.19106,279.897956 1998.67537,248.637674 C2005.87357,240.866166 2012.35195,233.129507 2018.11051,225.392849 C2023.93763,217.760739 2029.11348,210.12863 2033.56951,202.635921 C2042.58439,187.650501 2048.95994,173.222678 2053.27886,159.178204 C2057.59778,145.098879 2060.03146,131.507452 2060.78556,117.393278 C2061.4711,103.313953 2060.64845,88.5376322 2056.32953,70.9036268 C2053.99868,61.8775252 2050.6738,52.2938266 2046.83476,44.0344208 C2043.03,35.7401653 2038.91674,28.4914042 2034.52927,22.1138883 C2025.82287,9.25430729 2016.3281,-1.13093704 2005.22231,-10.644936 C1994.11651,-20.1240852 1981.29686,-28.4880404 1966.24919,-35.8065011 C1951.09869,-43.0901121 1933.51452,-49.08428 1913.5995,-53.6844553 C1887.17182,-59.4695243 1856.97365,-62.8151064 1824.37609,-63.6166521 C1816.38951,-63.8606007 1808.26583,-64 1800.03931,-64 C1774.98272,-64 1749.00064,-62.884806 1722.8129,-61.2817146 C1699.43589,-59.2952752 1676.19598,-57.3088359 1652.9218,-55.3572463 Z" id="Combined-Shape" fill="#181C26" mask="url(#mask-2)"></path>
                <path d="M0,0 L1920,0 L1920,8.94902913 C1690,80.5412621 1370.33333,116.337379 961,116.337379 C551.666667,116.337379 231.333333,80.5412621 0,8.94902913 L0,0 Z" id="Rectangle-Copy" fill="#181C26" mask="url(#mask-2)"></path>
            </g>
        </g>
    </g>
</svg>