<svg width="1920" height="930" xmlns="http://www.w3.org/2000/svg" xmlns:xlink="http://www.w3.org/1999/xlink"><defs><path id="a" d="M0 0h1920v930H0z"/></defs><g fill="none" fill-rule="evenodd"><mask id="b" fill="#fff"><use xlink:href="#a"/></mask><path fill="#233044" mask="url(#b)" d="M-10 3h1930v745H-10z"/><path d="M0 747.663h1920v8.949C1690 828.204 1370.333 864 961 864c-409.333 0-729.667-35.796-961-107.388v-8.95z" fill="#233044" mask="url(#b)"/><path d="M1652.922-55.357c-15.46 1.498-30.884 3.032-46.309 4.53a6522.821 6522.821 0 01-36.608 3.973c-11.962 1.394-23.89 2.788-35.82 4.147-47.679 5.716-95.255 12.093-142.73 19.063-94.913 13.94-189.415 30.32-283.403 48.964-142.216 28.228-283.335 61.545-423.357 100.368-69.994 19.48-139.748 40.356-209.227 62.938-34.723 11.292-69.377 23.001-103.997 35.303-17.276 6.134-34.586 12.372-51.862 18.784-8.637 3.241-17.241 6.482-25.879 9.723a503.011 503.011 0 01-6.581 2.475c-3.668 1.463-7.335 2.892-11.003 4.356-7.335 2.858-14.705 5.715-22.04 8.643-7.884 2.997-17.584 7.074-26.805 10.803-9.255 3.764-18.51 7.528-27.764 11.326a5013.198 5013.198 0 01-27.388 11.814c-9.118 3.904-18.27 7.842-27.079 11.954l-26.702 12.197c-8.946 4.078-17.378 8.33-26.085 12.511-17.584 8.26-33.763 16.972-50.387 25.545-8.33 4.287-15.802 8.748-23.788 13.104L6.385 383.75c-4.01 2.161-7.404 4.426-11.14 6.622-7.336 4.426-14.637 8.887-21.972 13.347-6.718 4.496-13.437 8.957-20.155 13.452-26.153 17.948-48.673 36.035-66.566 53.67-4.833 5.157-9.323 10.35-13.985 15.507-4.182 5.123-7.575 10.176-11.449 15.264-3.05 4.984-6.135 9.933-8.912 14.846-1.165 2.44-2.365 4.845-3.565 7.284l-1.782 3.66c-.583 1.184-.994 2.37-1.474 3.554-7.952 19.167-11.723 37.29-12.34 56.631-.171 8.712.035 18.505 2.571 32.236 1.2 6.691 3.12 13.591 4.97 19.272 1.954 5.715 3.874 10.664 5.896 15.125 4.01 8.887 8.26 16.17 12.957 23.07 9.323 13.662 20.326 25.615 34.997 36.941 14.533 11.257 32.871 21.712 56.797 30.25 23.857 8.573 53.644 14.95 87.338 19.132 28.004 3.485 58.614 5.611 90.457 6.692 31.844 1.15 64.956 1.289 98.582.836 33.625-.523 67.868-1.673 102.145-3.346 17.208-.836 34.415-1.777 51.622-2.927a70869.06 70869.06 0 0031.672-2.196s1.508-.104 4.456-.348c52.066-23.5 91.852-63.642 91.852-143.924 0-80.282-79.571-120.424-113.31-119.959-2.125.174-3.187.244-3.187.244-6.65.558-13.266 1.046-19.95 1.533a7.59 7.59 0 011.063-.383l33.969-13.034a2744.56 2744.56 0 0148.228-17.773c32.289-11.64 64.852-22.862 97.587-33.735 65.537-21.676 131.76-41.82 198.464-60.778 133.407-37.742 268.562-70.396 404.608-98.172 90.011-18.33 180.366-34.501 271.03-48.302 45.313-6.865 90.662-13.208 136.08-18.853 11.345-1.36 22.69-2.753 34.07-4.147 11.072-1.255 22.178-2.544 33.284-3.8 7.918-.835 15.767-1.672 23.685-2.508a1153.17 1153.17 0 00-10.934 6.726c-85.076 52.274-174.882 101.587-265.648 149.366-92 48.337-185.37 95-279.427 140.584a13902.815 13902.815 0 01-141.599 67.47c-23.686 11.012-47.405 21.99-71.125 33.002-22.726 10.385-45.417 20.77-68.177 31.121a23027.507 23027.507 0 01-44.184 17.111l-47.028 18.54c-108.179 43.18-215.569 87.996-322.822 137.413-53.747 24.883-107.287 50.707-161.651 80.434-27.285 15.02-54.57 30.737-83.74 50.532-14.635 10.141-29.649 20.91-47.027 36.522-4.49 4.148-8.912 8.33-13.883 13.557-4.901 5.193-10.009 10.873-15.801 18.54-5.725 7.667-12.066 16.798-18.613 30.598-.788 1.778-1.61 3.555-2.4 5.297-.753 1.778-1.645 4.113-2.399 6.169-.822 2.126-1.542 4.217-2.296 6.412a213.495 213.495 0 00-2.194 7.493c-2.674 9.758-4.799 22.722-4.833 36.453v.418c.034 8.399.72 17.46 2.4 27.044a153.968 153.968 0 008.397 29.517c7.815 19.76 20.532 37.777 33.455 50.428 13.094 12.894 26.05 21.258 37.293 27.287 11.449 6.064 21.355 9.758 30.507 12.686 17.995 5.61 32.392 7.806 45.486 9.34 13.094 1.428 24.714 1.916 35.717 1.951 16.178.105 31.02-.662 45.245-1.812 14.191-1.15 27.833-2.718 41.064-4.496 50.01-6.865 96.216-16.728 141.736-27.531 22.692-5.402 45.11-11.117 67.32-17.007 22.04-5.855 44.321-12.058 65.127-17.808 51.347-14.184 102.935-28.333 154.624-42.621l-3.119 1.498c-65.572 31.33-131.315 62.695-197.333 95.35a745.25 745.25 0 00-17.379 8.781 712.069 712.069 0 00-16.761 9.026c-11.175 6.239-22.383 12.825-34.14 20.422-11.826 7.737-23.857 15.892-38.322 28.368a202.916 202.916 0 00-11.62 10.839 170.945 170.945 0 00-13.574 15.16c-4.902 6.237-10.557 13.904-16.659 25.962-2.982 6.03-6.1 13.208-8.74 22.304-.309 1.15-.583 2.23-.926 3.38l-.89 3.869a103.002 103.002 0 00-1.543 7.876c-.206 1.22-.412 2.683-.617 4.252-.172 1.568-.309 3.066-.48 4.6a118.118 118.118 0 00-.446 9.235 128.93 128.93 0 00.411 11.5c.138 1.882.343 3.8.583 5.681.274 1.986.583 4.008.96 5.994a116.97 116.97 0 006.615 23.175c.72 1.882 1.509 3.694 2.331 5.507.823 1.742 1.611 3.38 2.468 5.088 1.714 3.276 3.6 6.586 5.553 9.723 1.954 3.032 3.736 5.506 5.827 8.224.96 1.325 1.988 2.58 3.017 3.869a145.34 145.34 0 003.016 3.554 238.464 238.464 0 005.793 6.03c1.988 1.95 4.147 3.937 5.758 5.296a228.594 228.594 0 005.382 4.392 189.374 189.374 0 005.141 3.798c3.085 2.091 6.513 4.322 9.427 5.994a170.285 170.285 0 008.26 4.391 174.648 174.648 0 007.199 3.276c1.13.523 2.296.976 3.496 1.464.994.383 2.022.767 3.085 1.185a183.56 183.56 0 006.033 2.126c1.816.557 3.599 1.115 5.381 1.673 1.92.592 3.496 1.01 5.073 1.394 1.611.418 3.222.836 4.799 1.22 3.05.696 5.861 1.254 8.74 1.846.172.035.31.07.48.105 2.88.488 5.828.94 8.775 1.29l4.422.452c.72.035 1.474.105 2.228.175.412 0 .891.034 1.303.07 3.565.139 7.13.174 10.626.139 3.153-.105 6.307-.28 9.46-.488 2.434-.244 4.902-.523 7.336-.732 2.467-.279 4.113-.558 6.272-.836.994-.14 2.023-.28 2.948-.419.96-.139 1.817-.313 2.708-.418l5.244-.94 4.833-.942 9.152-1.882c11.723-2.509 22.212-5.157 32.53-7.84 20.531-5.472 39.932-11.153 59.093-16.973 38.322-11.71 75.616-24.011 112.704-36.592 74.141-25.162 147.22-51.543 220.162-78.935 41.406-15.613 82.71-31.539 124.083-48.023 17.995-7.179 35.922-14.428 53.918-21.886a151.946 151.946 0 00-4.148 12.686c-2.879 10.35-5.518 23.419-5.038 40.6.41 10.56 2.159 22.339 6.135 34.362 4.08 12.127 10.215 23.802 17.584 33.665.137.174.275.313.343.488 7.164 9.514 16.453 18.47 26.222 25.266 9.803 6.83 19.915 11.605 28.999 14.706a124.476 124.476 0 0024.61 5.646 138.42 138.42 0 0018.99.94c12.58-.313 21.972-1.986 30.164-3.693 7.987-1.777 14.876-3.834 21.012-5.855 12.237-4.147 22.28-8.503 31.57-12.86 18.475-8.712 34.07-17.564 49.05-26.555 29.718-17.948 56.488-36.383 82.608-55.028 26.05-18.714 51.175-37.673 75.89-56.596 5.724-4.496 11.55-8.922 17.343-13.382-5.004 10.14-9.94 20.247-14.944 30.389-13.231 26.311-27.08 52.449-41.339 77.47-7.13 12.442-14.396 24.744-21.56 36.07-3.565 5.611-7.13 11.083-10.42 15.822-3.085 4.496-6.376 8.713-7.301 9.828.034 0 .068-.035.103-.07-31.774 61.722-49.303 95.773-9.517 135.914 26.524 26.761 74.896 26.761 145.117 0a755.79 755.79 0 014.216-4.495l1.268-1.394c10.17-12.476 17.162-21.375 20.978-26.695 5.621-7.911 10.626-15.369 15.425-22.792 9.632-14.741 18.27-29.065 26.702-43.388 16.795-28.681 32.323-57.223 47.302-86.149 3.702-7.248 7.404-14.532 11.106-21.78 1.817-3.66 3.633-7.32 5.45-10.944 3.29-6.76 6.615-13.556 9.906-20.317 13.505-27.985 26.12-56.317 37.534-84.406 11.277-27.985 21.491-55.97 28.004-81.793 3.393-12.999 5.69-25.405 6.924-36.836 1.268-11.5 1.508-22.165.617-31.748-.069-1.952-.309-3.799-.583-5.541-.274-1.778-.48-3.59-.754-5.367-.685-3.416-1.337-6.83-2.022-10.246-3.874-15.09-9.084-27.74-17.07-40.53a163.055 163.055 0 00-6.376-9.166c-5.553-7.284-12.477-14.776-20.635-21.363-6.41-5.158-12.956-9.41-19.263-12.79a88.606 88.606 0 001.988-2.962c.445-.662.822-1.29 1.268-1.952.446-.836.994-1.638 1.474-2.474.514-.836.96-1.673 1.474-2.51.514-.94 1.028-1.881 1.542-2.787 1.2-2.23 2.297-4.53 3.36-6.866.068-.139.17-.278.24-.383 3.256-7.318 6.512-15.404 9.494-25.405 2.88-10.037 5.656-22.025 6.273-38.022.308-9.095-.206-19.41-2.571-31.19-2.365-11.71-6.821-24.953-14.225-37.742-4.73-8.295-10.694-16.206-17.447-23.28 19.812-12.302 39.659-25.092 60.979-40.705 11.003-8.224 22.246-16.832 35.614-29.239a232.45 232.45 0 0010.694-10.664c3.84-4.077 7.953-8.608 12.649-14.672 4.661-6.203 9.871-13.277 15.939-25.196 3.016-5.994 6.204-13.138 9.083-22.792 2.845-9.723 5.484-22.234 5.347-38.16-.137-10.769-1.645-22.653-5.313-34.676-.103-.244-.171-.557-.274-.836-3.633-11.64-8.535-24.256-16.076-37.847a181.81 181.81 0 00-13.71-20.736c-5.382-7.005-11.69-13.94-18.819-20.491-14.156-13.174-32.186-24.186-50.25-30.877-18.099-6.831-35.854-9.584-51.313-10.142-27.696-.732-49.05 4.322-67.32 10.107a241.02 241.02 0 00-25.64 10.036 245.468 245.468 0 00-12.305 6.03c-4.422 2.334-8.775 4.774-13.026 7.388-.034.035-.102.07-.137.104-.445.314-.925.662-1.405 1.01-6.821 4.148-13.642 8.26-20.498 12.407-6.82 4.113-13.71 7.876-20.532 11.814-6.752 4.043-13.95 7.737-20.977 11.57-7.061 3.8-14.123 7.598-21.458 11.222-28.724 14.846-58.75 28.682-89.12 42.134-78.94 34.78-161.651 65.378-245.39 94.06-92.755 31.643-187.222 60.533-282.341 88.135a9916.607 9916.607 0 01-73.388 20.944l15.94-6.064.582-.244.137-.07c13.23-5.854 26.428-11.709 39.59-17.633 12.168-5.472 24.337-10.943 36.505-16.45l72.702-33.211c48.4-22.304 96.593-44.887 144.718-67.818 96.285-45.897 192.09-92.98 287.448-142.257 94.16-48.894 187.805-99.357 281.039-155.813a3938.376 3938.376 0 0022.451-13.801c11.106-6.83 22.109-13.87 33.078-20.91 21.903-14.114 43.463-28.646 64.2-43.458 41.51-29.622 80.072-60.917 108.556-92.177 7.199-7.772 13.677-15.508 19.436-23.245 5.827-7.632 11.002-15.264 15.459-22.757 9.014-14.985 15.39-29.413 19.709-43.458 4.319-14.08 6.752-27.67 7.507-41.785.685-14.079-.138-28.855-4.456-46.49-2.331-9.025-5.656-18.61-9.495-26.869-3.805-8.294-7.918-15.543-12.306-21.92-8.706-12.86-18.2-23.245-29.307-32.759-11.105-9.48-23.925-17.843-38.973-25.162-15.15-7.283-32.734-13.277-52.65-17.877-26.427-5.786-56.625-9.131-89.223-9.933A797.248 797.248 0 001800.04-64c-25.056 0-51.038 1.115-77.226 2.718-23.377 1.987-46.617 3.973-69.891 5.925z" fill="#181C26" mask="url(#b)"/><path d="M0 0h1920v8.949c-230 71.592-549.667 107.388-959 107.388-409.333 0-729.667-35.796-961-107.388V0z" fill="#181C26" mask="url(#b)"/></g></svg>