<svg width="45" height="51" xmlns="http://www.w3.org/2000/svg"><g stroke="#181C26" stroke-width="3" fill="none" fill-rule="evenodd"><path d="M2 28.705a20.3 20.3 0 005.963 14.397 20.299 20.299 0 0014.399 5.965 20.3 20.3 0 0014.398-5.965 20.298 20.298 0 005.963-14.397 20.3 20.3 0 00-5.963-14.398 20.299 20.299 0 00-14.398-5.964 20.299 20.299 0 00-14.399 5.964A20.298 20.298 0 002 28.705z" stroke-dasharray="90.6666644,2.6666666,2.6666666,2.6666666,2.6666666,2.6666666"/><path d="M17.663 2.079h9.397m-4.698 0v6.265m12.53 4.698l5.806-5.806M20.795 30.272h3.133m-1.566-4.699v-12.53"/></g></svg>