<?xml version="1.0" encoding="UTF-8"?>
<svg width="45px" height="51px" viewBox="0 0 45 51" version="1.1" xmlns="http://www.w3.org/2000/svg" xmlns:xlink="http://www.w3.org/1999/xlink">
    <title>2277A6B9-391D-435C-A625-D47DD1735889</title>
    <g id="Page-1" stroke="none" stroke-width="1" fill="none" fill-rule="evenodd">
        <g id="Index" transform="translate(-376, -2631)" stroke="#181C26" stroke-width="3">
            <g id="Group-17" transform="translate(378, 2633)">
                <path d="M0,26.7050468 C0,21.0824206 2.2790917,15.9920157 5.96344839,12.3075024 C9.64858822,8.62251923 14.738993,6.34342753 20.3616192,6.34342753 C25.9842454,6.34342753 31.0746503,8.62251923 34.7597901,12.3075024 C38.4441468,15.9920157 40.7232385,21.0824206 40.7232385,26.7050468 C40.7232385,32.327673 38.4441468,37.4180778 34.7597901,41.1025911 C31.0746503,44.7875743 25.9842454,47.066666 20.3616192,47.066666 C14.738993,47.066666 9.64858822,44.7875743 5.96344839,41.1025911 C2.2790917,37.4180778 0,32.327673 0,26.7050468 Z" id="path118" stroke-dasharray="90.6666644,2.6666666,2.6666666,2.6666666,2.6666666,2.6666666" transform="translate(20.3616, 26.705) scale(-1, 1) rotate(-180) translate(-20.3616, -26.705)"></path>
                <line x1="15.662784" y1="0.0783139201" x2="25.0604544" y2="0.0783139201" id="path120" transform="translate(20.3616, 0.0783) scale(-1, 1) rotate(-180) translate(-20.3616, -0.0783)"></line>
                <line x1="20.3616192" y1="6.34342753" x2="20.3616192" y2="0.0783139201" id="path122" transform="translate(20.3616, 3.2109) scale(-1, 1) rotate(-180) translate(-20.3616, -3.2109)"></line>
                <line x1="32.8918465" y1="5.2360687" x2="38.6980405" y2="11.0422627" id="path124" transform="translate(35.7949, 8.1392) scale(-1, 1) rotate(-180) translate(-35.7949, -8.1392)"></line>
                <line x1="18.7953408" y1="28.2713252" x2="21.9278976" y2="28.2713252" id="path126" transform="translate(20.3616, 28.2713) scale(-1, 1) rotate(-180) translate(-20.3616, -28.2713)"></line>
                <line x1="20.3616192" y1="11.0422627" x2="20.3616192" y2="23.57249" id="path128" transform="translate(20.3616, 17.3074) scale(-1, 1) rotate(-180) translate(-20.3616, -17.3074)"></line>
            </g>
        </g>
    </g>
</svg>