<svg width="312" height="415" xmlns="http://www.w3.org/2000/svg"><g fill="none" fill-rule="evenodd"><path d="M303.5 85a8.5 8.5 0 018.5-8.5 8.5 8.5 0 01-8.5-8.5 8.5 8.5 0 01-8.5 8.5 8.5 8.5 0 018.5 8.5m-266 251a8.5 8.5 0 018.5-8.5 8.5 8.5 0 01-8.5-8.5 8.5 8.5 0 01-8.5 8.5 8.5 8.5 0 018.5 8.5m-8-284c0-9.665 7.835-17.5 17.5-17.5-9.665 0-17.5-7.835-17.5-17.5 0 9.665-7.835 17.5-17.5 17.5 9.665 0 17.5 7.835 17.5 17.5" fill="#D8D8D8"/><path d="M261.705 122.146l-11.41 3.708m-191.59 64.293l-11.41 3.706M153 273v-12m0-215v12m66.523 192.849l-7.046-9.698m-124-176l7.046 9.698m-48.228 47.297l11.41 3.708m203 68l-11.41-3.708M219.523 65.151l-7.046 9.698m-124 176l7.046-9.698" stroke="#2EECA6" stroke-linecap="round" stroke-linejoin="round" stroke-width="1.5"/><path d="M202.5 17a8.5 8.5 0 018.5-8.5 8.5 8.5 0 01-8.5-8.5 8.5 8.5 0 01-8.5 8.5 8.5 8.5 0 018.5 8.5M108 134c0-8.837 7.163-16 16-16-8.837 0-16-7.163-16-16 0 8.837-7.163 16-16 16 8.837 0 16 7.163 16 16" fill="#D8D8D8"/><path d="M114 304.796c5.308-11.46 22.31-7.535 22.176 5.12 9.699-7.996 23.334 3.003 17.786 14.347 12.166-2.947 19.733 12.947 9.869 20.731 12.225 2.686 12.225 20.326 0 23.012 9.864 7.784 2.297 23.678-9.869 20.731 5.548 11.344-8.087 22.343-17.786 14.347.134 12.655-16.868 16.58-22.176 5.12-5.308 11.46-22.31 7.535-22.176-5.12-9.699 7.996-23.334-3.003-17.786-14.347-12.166 2.947-19.733-12.947-9.869-20.731-12.225-2.686-12.225-20.326 0-23.012-9.864-7.784-2.297-23.678 9.869-20.731-5.548-11.344 8.087-22.343 17.786-14.347-.134-12.655 16.868-16.58 22.176-5.12z" fill="#4E5D99"/><path d="M113 222.208c.161 31.203-25.004 56.63-56.208 56.792C25.59 279.161.162 253.996 0 222.792-.161 191.59 25.004 166.162 56.208 166c31.203-.16 56.63 25.004 56.792 56.208" fill="#C5A7CD"/><g fill-rule="nonzero"><path fill="#2EECA6" d="M185.659 137L85 210.148 97.839 334.15 211.337 385 312 311.847 299.156 187.85z"/><path fill="#171C26" d="M250.422 293.087l-18.857-2.992 4.54-28.24 3.237-7.779-2.488-1.84-6.275 6.108-74.865 53.934-11.173-15.33 74.865-53.933 7.791-4.028-.986-2.923-8.447.634-28.402-4.509 3.015-18.738 59.39 9.425 8.135 11.167z"/></g></g></svg>