<?xml version="1.0" encoding="UTF-8"?>
<svg width="331px" height="253px" viewBox="0 0 331 253" version="1.1" xmlns="http://www.w3.org/2000/svg" xmlns:xlink="http://www.w3.org/1999/xlink">
    <title>0BB1CC93-6A3A-4446-AB50-A98FFFC07E5B</title>
    <g id="Page-1" stroke="none" stroke-width="1" fill="none" fill-rule="evenodd">
        <g id="Services" transform="translate(-339, -1819)">
            <g id="Group-5" transform="translate(339, 1819)">
                <g id="Combined-Shape-2" fill="#233044">
                    <path d="M270.374379,1.28172138 C268.077733,1.50395533 265.78618,1.73135751 263.494627,1.95359146 C261.681753,2.15515248 259.86888,2.35154528 258.056007,2.54276984 C256.27878,2.74949909 254.506645,2.95622835 252.734511,3.15778937 C245.651065,4.00537932 238.582896,4.95116566 231.530004,5.98481194 C217.429312,8.05210449 203.389729,10.4811732 189.42653,13.246177 C168.298408,17.4324444 147.333241,22.3732736 126.531029,28.1306834 C116.13247,31.0197247 105.769556,34.1154953 95.4473814,37.4645093 C90.2888402,39.1390162 85.1404837,40.875542 79.9972195,42.6999277 C77.4306798,43.6095364 74.8590477,44.5346498 72.292508,45.4856044 C71.0092381,45.9662499 69.7310605,46.4468954 68.4477907,46.9275409 C68.1218809,47.0515785 67.7959711,47.175616 67.4700612,47.2944853 C66.9251808,47.5115511 66.3803003,47.7234486 65.8354199,47.9405143 C64.7456589,48.3643092 63.6508057,48.7881042 62.5610447,49.2222357 C61.3898064,49.6667036 59.9486739,50.2713866 58.5788343,50.8243874 C57.2039023,51.3825564 55.8289703,51.9407254 54.4540382,52.5040626 C53.0994756,53.093241 51.7500053,53.6720829 50.385258,54.256093 C49.0306953,54.8349349 47.6710403,55.4189451 46.3623088,56.0287964 L42.3953753,57.8376774 C41.0662744,58.4423604 39.8135585,59.0728847 38.520104,59.6930724 C35.9077332,60.9179433 33.5041483,62.2100011 31.0343631,63.481386 C29.7969243,64.1170785 28.686794,64.7786121 27.5002786,65.424641 L25.758698,66.4014368 C25.1628942,66.7218671 24.6587524,67.0578021 24.1036873,67.3834007 C23.0139264,68.0397661 21.9292578,68.7012997 20.8394968,69.3628333 C19.8413981,70.0295352 18.8432993,70.6910688 17.8452005,71.3577706 C13.9597445,74.0194098 10.6140766,76.7017219 7.95587471,79.316847 C7.23785466,80.0817452 6.57075802,80.8518117 5.87819968,81.6167099 C5.2569341,82.3764399 4.75279237,83.1258335 4.17735786,83.8803953 C3.72413953,84.6194524 3.26582886,85.3533412 2.85334926,86.0820618 C2.68020967,86.443838 2.50197775,86.800446 2.32374582,87.1622222 L2.0589441,87.7048865 C1.97237431,87.8806064 1.91126622,88.0563262 1.83997345,88.2320461 C0.65855039,91.0745734 0.0983929053,93.7620537 0.00673077146,96.6304221 C-0.0187309324,97.9224799 0.0118231122,99.374753 0.388656329,101.411036 C0.566888256,102.403337 0.852059339,103.426646 1.12704574,104.269068 C1.41730916,105.116658 1.70248025,105.850547 2.00292835,106.51208 C2.59873222,107.829979 3.23018248,108.91014 3.92783316,109.93345 C5.31294985,111.959396 6.94759124,113.7321 9.12711308,115.411775 C11.2862656,117.081114 14.0106679,118.631583 17.5651217,119.8978 C21.1093909,121.169185 25.534635,122.114971 30.540406,122.735159 C34.7008484,123.251982 39.2483087,123.567244 43.9790933,123.727459 C48.7098779,123.898011 53.629079,123.918684 58.6246653,123.851497 C63.6202516,123.773973 68.7075001,123.603422 73.7998408,123.355347 C76.3561959,123.231309 78.912551,123.091767 81.468906,122.921215 C83.0424393,122.812682 84.6108803,122.704149 86.1742289,122.595617 C86.1742289,122.595617 86.3982919,122.580112 86.8362332,122.543934 C94.5714286,119.058824 100.482143,113.105882 100.482143,101.2 C100.482143,89.2941176 88.6607143,83.3411765 83.6484279,83.4100862 C83.3327027,83.4359274 83.1748402,83.4462638 83.1748402,83.4462638 C82.1869261,83.5289555 81.2041043,83.6013108 80.2110978,83.673666 C80.2569289,83.6529931 80.3129447,83.6323202 80.3689604,83.6168155 L85.4154701,81.6838969 C87.7885009,80.7846247 90.1819011,79.9060253 92.5803936,79.0480989 C97.3773786,77.3219097 102.215102,75.6577392 107.078288,74.045251 C116.814843,70.830611 126.653246,67.8433733 136.562941,65.0318554 C156.382331,59.4346609 176.461431,54.5920281 196.672931,50.4729476 C210.045418,47.7544579 223.468828,45.3563986 236.93807,43.309779 C243.670144,42.2916374 250.407311,41.3510193 257.154662,40.5137658 C258.840227,40.3122048 260.525792,40.1054755 262.216449,39.8987462 C263.861275,39.7126899 265.511194,39.5214654 267.161112,39.335409 C268.337443,39.2113715 269.503589,39.0873339 270.67992,38.9632964 C270.135039,39.2940632 269.595251,39.62483 269.055463,39.960765 C256.416273,47.7131121 243.07434,55.0261595 229.589822,62.1118047 C215.921979,69.2801416 202.050443,76.2004034 188.07706,82.9604501 C181.085276,86.3353052 174.073123,89.6688144 167.0406,92.966146 C163.521793,94.5993072 159.997893,96.2273 156.473993,97.8604612 C153.097771,99.4005941 149.726642,100.940727 146.345327,102.475692 C144.160713,103.323282 141.965914,104.170872 139.7813,105.013293 L132.794609,107.762792 C116.723181,114.166231 100.768878,120.812577 84.8349433,128.141129 C76.8501529,131.831246 68.8959167,135.660905 60.8194642,140.069407 C56.765961,142.296915 52.7124577,144.627787 48.3788757,147.563342 C46.2044462,149.067298 43.974001,150.664281 41.3921842,152.979649 C40.7250875,153.594668 40.0681756,154.214856 39.3297862,154.990091 C38.6015814,155.760157 37.8428227,156.602579 36.9822171,157.73959 C36.1317962,158.876601 35.1897131,160.230677 34.217076,162.277297 C34.0999522,162.540877 33.977736,162.804457 33.8606122,163.062868 C33.7485807,163.326448 33.6161798,163.67272 33.5041483,163.977645 C33.3819322,164.292907 33.274993,164.603001 33.1629615,164.9286 C33.05093,165.285208 32.9388985,165.667657 32.8370517,166.03977 C32.4398491,167.486874 32.124124,169.409456 32.1190316,171.44574 L32.1190316,171.507758 C32.124124,172.753302 32.2259708,174.097042 32.4754955,175.518306 C32.7301125,176.944738 33.1425921,178.433188 33.723119,179.895798 C34.8841727,182.826185 36.7734311,185.498161 38.6932436,187.374229 C40.6385177,189.286474 42.5634226,190.52685 44.2337103,191.420954 C45.9345521,192.320226 47.4062386,192.868059 48.7658936,193.30219 C51.4393725,194.134275 53.5781556,194.459874 55.5234298,194.687276 C57.468704,194.899174 59.1950075,194.971529 60.8296489,194.976697 C63.2332337,194.992202 65.4382173,194.878501 67.5515387,194.707949 C69.6597678,194.537397 71.6865194,194.304827 73.6521629,194.041247 C81.0818881,193.023106 87.9463635,191.560496 94.708992,189.958344 C98.0801216,189.157268 101.410512,188.309679 104.710349,187.436247 C107.984724,186.567985 111.294746,185.648039 114.385797,184.795281 C122.014123,182.691811 129.678096,180.593509 137.357346,178.474534 L136.893943,178.696768 C127.152295,183.343008 117.385185,187.994416 107.577337,192.837049 C106.655623,193.286685 105.830664,193.705312 104.99552,194.139444 C104.160376,194.573575 103.335417,195.018043 102.505366,195.478015 C100.845263,196.403129 99.1800672,197.379925 97.4333943,198.506599 C95.6765368,199.653946 93.8891251,200.863313 91.7401573,202.713539 C91.2003692,203.17868 90.6300271,203.700672 90.0138538,204.320859 C89.4129576,204.915206 88.7254916,205.654263 87.9972869,206.56904 C87.2690821,207.494153 86.4288459,208.631164 85.5224093,210.419372 C85.0793756,211.313476 84.6159726,212.378132 84.2238624,213.72704 C84.1780313,213.897592 84.1372926,214.057807 84.0863692,214.228359 L83.9539683,214.802033 C83.8623062,215.18965 83.7859211,215.577267 83.724813,215.970053 C83.6942589,216.150941 83.6637049,216.368007 83.6331508,216.600577 C83.6076891,216.833147 83.5873198,217.055381 83.5618581,217.282784 C83.5211193,217.737588 83.50075,218.192392 83.4956576,218.652365 C83.4905653,219.22087 83.5109347,219.789376 83.5567657,220.357881 C83.5771351,220.636966 83.6076891,220.921219 83.6433355,221.200303 C83.6840742,221.494892 83.7299053,221.79465 83.7859211,222.089239 C83.994707,223.272764 84.3257092,224.420111 84.7687428,225.526113 C84.875682,225.805197 84.9928058,226.073945 85.115022,226.342693 C85.2372382,226.601105 85.354362,226.844012 85.4816705,227.097255 C85.7362876,227.583069 86.0163663,228.074051 86.3066297,228.539192 C86.5968932,228.988828 86.8616949,229.355772 87.1723277,229.758894 C87.3149132,229.955287 87.4676834,230.141343 87.6204537,230.332568 C87.7732239,230.518624 87.9412711,230.715017 88.0685796,230.859727 C88.3486584,231.159485 88.6389218,231.464411 88.9291852,231.753831 C89.224541,232.043252 89.5453585,232.337842 89.7846985,232.539403 C90.0495002,232.761637 90.3092096,232.973534 90.584196,233.1906 C90.85409,233.397329 91.1443535,233.609227 91.3480471,233.753937 C91.8063578,234.064031 92.3155918,234.394798 92.7484408,234.642873 C93.1507357,234.870275 93.558123,235.087341 93.9756949,235.29407 C94.3627128,235.480126 94.6835303,235.624837 95.0450865,235.779884 C95.2131337,235.857407 95.3862733,235.924594 95.5645053,235.996949 C95.7121831,236.0538 95.8649534,236.110651 96.0228159,236.172669 C96.3130794,236.281202 96.6542662,236.400071 96.9190679,236.487931 C97.188962,236.570623 97.4537637,236.653315 97.7185654,236.736007 C98.0037365,236.823866 98.2379842,236.885885 98.4722318,236.942736 C98.7115719,237.004755 98.9509119,237.066773 99.1851595,237.123624 C99.6383779,237.226989 100.05595,237.30968 100.483706,237.39754 C100.509168,237.402708 100.529538,237.407877 100.554999,237.413045 C100.982756,237.4854 101.420697,237.552587 101.858638,237.604269 L102.51555,237.671456 C102.62249,237.676625 102.734521,237.686961 102.846553,237.697298 C102.907661,237.697298 102.978953,237.702466 103.040062,237.707634 C103.569665,237.728307 104.099268,237.733475 104.618687,237.728307 C105.087182,237.712802 105.555678,237.686961 106.024173,237.655952 C106.385729,237.619774 106.752378,237.578428 107.113934,237.547419 C107.480583,237.506073 107.725015,237.464727 108.045832,237.423381 C108.19351,237.402708 108.346281,237.382035 108.483774,237.361363 C108.626359,237.34069 108.753668,237.314848 108.886069,237.299344 C109.145778,237.25283 109.405487,237.206316 109.665197,237.159802 L110.383217,237.020259 L111.742872,236.741175 C113.484452,236.369062 115.042709,235.976277 116.575503,235.578323 C119.625815,234.76691 122.50808,233.924489 125.354699,233.061394 C131.047936,231.324868 136.588402,229.500483 142.098315,227.634751 C153.113048,223.903288 163.969919,219.990937 174.80642,215.928707 C180.957968,213.613339 187.094238,211.251458 193.240694,208.806884 C195.914172,207.742229 198.577467,206.667236 201.250946,205.561235 C201.037067,206.12974 200.828281,206.749928 200.634772,207.442471 C200.207016,208.977436 199.814905,210.915523 199.886198,213.463461 C199.947306,215.029435 200.207016,216.776297 200.797727,218.559337 C201.403716,220.357881 202.315245,222.089239 203.410098,223.551848 C203.430467,223.577689 203.450837,223.598362 203.461021,223.624204 C204.525321,225.035131 205.905345,226.363366 207.356662,227.371171 C208.813072,228.384145 210.315312,229.092192 211.664782,229.552165 C213.02953,230.012138 214.246599,230.255044 215.321083,230.389418 C216.375198,230.513456 217.302004,230.544465 218.14224,230.528961 C220.011129,230.482447 221.40643,230.234371 222.6235,229.981128 C223.810015,229.717548 224.833576,229.412623 225.745105,229.112865 C227.56307,228.497846 229.055126,227.851817 230.43515,227.205788 C233.179922,225.91373 235.496937,224.600999 237.72229,223.267596 C242.13735,220.605956 246.114468,217.871962 249.994831,215.106958 C253.86501,212.331618 257.597696,209.5201 261.269274,206.71375 C262.119695,206.047049 262.985393,205.390683 263.845998,204.72915 C263.102516,206.233105 262.369219,207.731892 261.625738,209.235847 C259.660094,213.137862 257.602788,217.014036 255.484375,220.724826 C254.425168,222.569884 253.345592,224.39427 252.281292,226.073945 C251.751689,226.90603 251.222085,227.717443 250.733221,228.420322 C250.27491,229.087024 249.786045,229.71238 249.648552,229.877763 C249.653645,229.877763 249.658737,229.872595 249.663829,229.867427 C244.943428,239.020847 242.339286,244.070588 248.25,250.023529 C252.190476,253.992157 259.376853,253.992157 269.809129,250.023529 C270.089208,249.723772 270.292902,249.506706 270.435487,249.356828 C270.557703,249.222454 270.623904,249.150098 270.623904,249.150098 C272.134632,247.299871 273.173469,245.98025 273.740416,245.191233 C274.57556,244.018045 275.319042,242.912043 276.03197,241.81121 C277.462917,239.625048 278.746187,237.500905 279.998903,235.376762 C282.49415,231.123307 284.80098,226.890526 287.026333,222.600894 C287.576306,221.525902 288.126279,220.445741 288.676252,219.370749 C288.946146,218.828085 289.21604,218.285421 289.485934,217.747924 C289.974799,216.745288 290.468756,215.737482 290.95762,214.734846 C292.964003,210.584756 294.837984,206.382984 296.533734,202.217389 C298.209114,198.067299 299.726631,193.91721 300.694176,190.08755 C301.198318,188.1598 301.539505,186.319909 301.722829,184.62473 C301.911245,182.919213 301.946892,181.337734 301.814491,179.916471 C301.804306,179.62705 301.76866,179.353134 301.727921,179.094722 C301.687182,178.831142 301.656628,178.562394 301.61589,178.298814 C301.514043,177.792328 301.417288,177.285841 301.315442,176.779354 C300.740007,174.54151 299.965971,172.665442 298.779456,170.768701 C298.494285,170.329402 298.188744,169.884934 297.832281,169.409456 C297.007321,168.329296 295.978668,167.218126 294.766691,166.241331 C293.814424,165.476432 292.841787,164.845908 291.904796,164.34459 C292.006643,164.199879 292.103397,164.055169 292.200152,163.90529 C292.266352,163.807094 292.322368,163.714065 292.388568,163.615869 C292.454769,163.491831 292.536246,163.372962 292.607539,163.248925 C292.683924,163.124887 292.750124,163.000849 292.82651,162.876812 C292.902895,162.73727 292.97928,162.597727 293.055665,162.463353 C293.233897,162.132587 293.396852,161.791483 293.554714,161.445212 C293.564899,161.424539 293.580176,161.403866 293.590361,161.388361 C294.074133,160.303033 294.557905,159.104003 295.000939,157.620721 C295.428696,156.13227 295.841175,154.354398 295.932837,151.98218 C295.978668,150.633272 295.902283,149.103475 295.550912,147.356613 C295.19954,145.620087 294.537536,143.656159 293.43759,141.759418 C292.734847,140.529379 291.84878,139.356191 290.845589,138.30704 C293.788962,136.482654 296.737427,134.585913 299.904863,132.270546 C301.539505,131.050843 303.209792,129.77429 305.195805,127.9344 C305.699947,127.46409 306.219366,126.952436 306.784616,126.352921 C307.354958,125.748238 307.966039,125.076368 308.663689,124.177095 C309.356248,123.25715 310.130283,122.207999 311.031628,120.440464 C311.479754,119.551528 311.953341,118.492041 312.381098,117.060441 C312.803762,115.618504 313.195873,113.763109 313.175503,111.401227 C313.155134,109.804244 312.931071,108.041877 312.38619,106.258837 C312.370913,106.22266 312.360729,106.176145 312.345452,106.1348 C311.805664,104.40861 311.077459,102.537711 309.957144,100.5221 C309.386802,99.5194634 308.70952,98.4754807 307.920208,97.4470026 C307.12071,96.4081881 306.183719,95.3797101 305.124512,94.4080826 C303.021376,92.4544911 300.342805,90.82133 297.659141,89.8290296 C294.970385,88.8160562 292.332552,88.407766 290.035907,88.3250743 C285.921295,88.2165414 282.748767,88.965935 280.03455,89.8238614 C278.674895,90.2683293 277.422179,90.7644795 276.225479,91.312312 C275.604213,91.5965647 275.059333,91.8601445 274.397328,92.206416 C273.740416,92.5526875 273.093689,92.9144637 272.462239,93.3020811 C272.457146,93.3072493 272.446962,93.3124175 272.441869,93.3175858 C272.375669,93.3640999 272.304376,93.4157822 272.233083,93.4674645 C271.219708,94.082484 270.206332,94.6923353 269.187864,95.3073549 C268.174488,95.9172062 267.150927,96.4753751 266.137552,97.0593853 C265.13436,97.6589001 264.064969,98.2067327 263.021039,98.7752381 C261.972017,99.3385753 260.922995,99.9019126 259.833234,100.439409 C255.565852,102.641075 251.104962,104.692863 246.593148,106.6878 C234.865487,111.845695 222.577669,116.383402 210.13708,120.636857 C196.357206,125.329611 182.322715,129.614075 168.191469,133.707314 C164.565723,134.756465 160.929791,135.790111 157.288768,136.813421 C158.078081,136.513664 158.867393,136.213906 159.656706,135.914149 L159.743276,135.877971 L159.763645,135.867635 C161.729289,134.999372 163.68984,134.131109 165.645299,133.25251 C167.45308,132.441097 169.260861,131.629685 171.068642,130.813104 L181.869497,125.88778 C189.059882,122.580112 196.219713,119.231098 203.369359,115.830402 C217.673745,109.023841 231.906837,102.04156 246.073729,94.7336812 C260.062389,87.4826525 273.974664,79.9990535 287.825831,71.6265187 C288.935961,70.9494804 290.051184,70.2672738 291.161314,69.5798991 C292.811233,68.5669257 294.445874,67.522943 296.075423,66.4789602 C299.329429,64.3858265 302.532511,62.230674 305.613377,60.0341757 C311.780202,55.641179 317.509085,51.0001072 321.74082,46.3642037 C322.810212,45.2116881 323.772664,44.0643407 324.628178,42.9169934 C325.493876,41.7851507 326.262819,40.653308 326.924823,39.5421383 C328.264109,37.3197988 329.211284,35.180151 329.852919,33.0973537 C330.494554,31.0093883 330.85611,28.993778 330.968142,26.9006443 C331.069989,24.8126788 330.947773,22.6213487 330.306138,20.0062237 C329.959858,18.6676517 329.465901,17.2463881 328.895559,16.0215173 C328.330309,14.7914782 327.719228,13.7164861 327.067409,12.7706997 C325.773954,10.8636224 324.363376,9.32348941 322.713457,7.91256224 C321.063539,6.50680331 319.159004,5.26642777 316.923466,4.18109919 C314.672651,3.10093883 312.060281,2.21200303 309.101631,1.52979649 C305.175436,0.671870079 300.689084,0.175719867 295.846268,0.0568505452 C294.659752,0.0206729255 293.452867,0 292.230706,0 C288.508205,0 284.64821,0.165383404 280.757662,0.403122048 C277.284686,0.697711236 273.832078,0.992300425 270.374379,1.28172138 Z" id="Combined-Shape"></path>
                </g>
                <path d="M87,97.504 C87,114.348742 73.3447424,128.004 56.5,128.004 C39.6552576,128.004 26,114.348742 26,97.504 C26,80.6592576 39.6552576,67.004 56.5,67.004 C73.3447424,67.004 87,80.6592576 87,97.504 Z" id="Stroke-288" stroke="#33D2A3"></path>
                <g id="Group-6" transform="translate(158, 145)">
                    <polyline id="Stroke-323" stroke="#D6D6D6" points="0.264324893 3.46655259 0.264324893 0.266657892 3.4362236 0.266657892"></polyline>
                    <line x1="8.13687113" y1="0.266657892" x2="56.789093" y2="0.266657892" id="Stroke-324" stroke="#D6D6D6" stroke-dasharray="11.846,11.846"></line>
                    <polyline id="Stroke-325" stroke="#D6D6D6" points="57.5637764 0.266657892 60.7356751 0.266657892 60.7356751 3.46655259"></polyline>
                    <line x1="60.7356751" y1="7.95275813" x2="60.7356751" y2="42.1960514" id="Stroke-326" stroke="#D6D6D6" stroke-dasharray="11.241,11.241"></line>
                    <polyline id="Stroke-327" stroke="#D6D6D6" points="60.7356751 43.5334474 60.7356751 46.7333421 57.5637764 46.7333421"></polyline>
                    <line x1="55.2195853" y1="46.7333421" x2="6.56736342" y2="46.7333421" id="Stroke-328" stroke="#D6D6D6" stroke-dasharray="11.846,11.846"></line>
                    <polyline id="Stroke-329" stroke="#D6D6D6" points="3.4362236 46.7333421 0.264324893 46.7333421 0.264324893 43.5334474"></polyline>
                    <line x1="0.264324893" y1="40.7071872" x2="0.264324893" y2="6.46389395" id="Stroke-330" stroke="#D6D6D6" stroke-dasharray="11.241,11.241"></line>
                    <polygon id="Fill-331" fill="#574599" points="5.28877105 42.1339201 56.5678002 42.1339201 56.5678002 4.80181532 5.28877105 4.80181532"></polygon>
                </g>
                <g id="Group-6" transform="translate(258, 43)">
                    <polyline id="Stroke-323" stroke="#D6D6D6" points="0.168994603 2.21269314 0.168994603 0.170207165 2.19692984 0.170207165"></polyline>
                    <line x1="5.20226187" y1="0.170207165" x2="36.3077808" y2="0.170207165" id="Stroke-324" stroke="#D6D6D6" stroke-dasharray="11.846,11.846"></line>
                    <polyline id="Stroke-325" stroke="#D6D6D6" points="36.8030702 0.170207165 38.8310054 0.170207165 38.8310054 2.21269314"></polyline>
                    <line x1="38.8310054" y1="5.07622859" x2="38.8310054" y2="26.9336498" id="Stroke-326" stroke="#D6D6D6" stroke-dasharray="11.241,11.241"></line>
                    <polyline id="Stroke-327" stroke="#D6D6D6" points="38.8310054 27.7873069 38.8310054 29.8297928 36.8030702 29.8297928"></polyline>
                    <line x1="35.304325" y1="29.8297928" x2="4.19880612" y2="29.8297928" id="Stroke-328" stroke="#D6D6D6" stroke-dasharray="11.846,11.846"></line>
                    <polyline id="Stroke-329" stroke="#D6D6D6" points="2.19692984 29.8297928 0.168994603 29.8297928 0.168994603 27.7873069"></polyline>
                    <line x1="0.168994603" y1="25.983311" x2="0.168994603" y2="4.12588976" id="Stroke-330" stroke="#D6D6D6" stroke-dasharray="11.241,11.241"></line>
                    <polygon id="Fill-331" fill="#574599" points="3.38134542 26.8939916 36.1662985 26.8939916 36.1662985 3.0649885 3.38134542 3.0649885"></polygon>
                </g>
            </g>
        </g>
    </g>
</svg>