<?xml version="1.0" encoding="UTF-8"?>
<svg width="312px" height="415px" viewBox="0 0 312 415" version="1.1" xmlns="http://www.w3.org/2000/svg" xmlns:xlink="http://www.w3.org/1999/xlink">
    <title>A98E9FB5-3C86-4057-B3A7-B4F762C898ED</title>
    <g id="Page-1" stroke="none" stroke-width="1" fill="none" fill-rule="evenodd">
        <g id="Services" transform="translate(-347, -1395)">
            <g id="Group-4" transform="translate(347, 1395)">
                <g id="starz" transform="translate(12, 0)">
                    <path d="M291.5,85 L291.5,85 C291.5,80.3055917 295.305592,76.5 300,76.5 L300,76.5 C295.305592,76.5 291.5,72.6944083 291.5,68 C291.5,68 291.5,68 291.5,68 L291.5,68 C291.5,72.6944083 287.694408,76.5 283,76.5 L283,76.5 C287.694408,76.5 291.5,80.3055917 291.5,85" id="Path" fill="#D8D8D8"></path>
                    <path d="M25.5,336 L25.5,336 C25.5,331.305592 29.3055919,327.5 34,327.5 L34,327.5 C29.3055915,327.5 25.5,323.694408 25.5,319 C25.5,319 25.5,319 25.5,319 L25.5,319 C25.5,323.694408 21.6944085,327.5 17,327.5 L17,327.5 C21.6944081,327.5 25.5,331.305592 25.5,336" id="Path" fill="#D8D8D8"></path>
                    <path d="M17.5,52 L17.5,52 C17.5,42.3350417 25.3350421,34.5 35,34.5 L35,34.5 C25.3350413,34.5 17.5,26.6649583 17.5,17 C17.5,17 17.5,17 17.5,17 L17.5,17 C17.5,26.6649583 9.66495868,34.5 0,34.5 L0,34.5 C9.66495791,34.5 17.5,42.3350417 17.5,52" id="Path-Copy" fill="#D8D8D8"></path>
                    <g id="hashtag-shine" transform="translate(35, 46)" stroke="#2EECA6" stroke-linecap="round" stroke-linejoin="round" stroke-width="1.5">
                        <line x1="214.7048" y1="76.14624" x2="203.2952" y2="79.85376" id="Path"></line>
                        <line x1="11.70516" y1="144.1466" x2="0.29484" y2="147.8534" id="Path"></line>
                        <line x1="106" y1="227" x2="106" y2="215" id="Path"></line>
                        <line x1="106" y1="0" x2="106" y2="12" id="Path"></line>
                        <line x1="172.52296" y1="204.84938" x2="165.47704" y2="195.15062" id="Path"></line>
                        <line x1="41.47704" y1="19.15062" x2="48.52296" y2="28.84938" id="Path"></line>
                        <line x1="0.29484" y1="76.14624" x2="11.70516" y2="79.85376" id="Path"></line>
                        <line x1="214.70516" y1="147.85376" x2="203.29484" y2="144.14624" id="Path"></line>
                        <line x1="172.52296" y1="19.15062" x2="165.47704" y2="28.84938" id="Path"></line>
                        <line x1="41.47704" y1="204.84938" x2="48.52296" y2="195.15062" id="Path"></line>
                    </g>
                    <path d="M190.5,17 L190.5,17 C190.5,12.3055917 194.305592,8.5 199,8.5 L199,8.5 C194.305592,8.5 190.5,4.69440833 190.5,0 C190.5,0 190.5,0 190.5,0 L190.5,0 C190.5,4.69440833 186.694408,8.5 182,8.5 L182,8.5 C186.694408,8.5 190.5,12.3055917 190.5,17" id="Path-Copy-2" fill="#D8D8D8"></path>
                    <path d="M96,134 L96,134 C96,125.163467 103.163467,118 112,118 L112,118 C103.163466,118 96,110.836533 96,102 C96,102 96,102 96,102 L96,102 C96,110.836533 88.8365336,118 80,118 L80,118 C88.8365329,118 96,125.163467 96,134" id="Path" fill="#D8D8D8"></path>
                </g>
                <g id="Group-10-Copy-2" transform="translate(0, 137)">
                    <path d="M114,167.795751 L114,167.795751 C119.307994,156.33604 136.310285,160.260664 136.176285,172.91642 L136.176285,172.91642 L136.176285,172.91642 C145.874764,164.920457 159.509703,175.919292 153.962084,187.262587 L153.962084,187.262587 C166.127748,184.315531 173.694832,200.210178 163.830823,207.994042 L163.830823,207.994042 C176.056392,210.679563 176.056392,228.320437 163.830823,231.005958 L163.830823,231.005958 C173.694832,238.789822 166.127748,254.684469 153.962084,251.737413 L153.962084,251.737413 C159.509703,263.080708 145.874764,274.079543 136.176285,266.08358 L136.176285,266.08358 L136.176285,266.08358 C136.310285,278.739336 119.307994,282.66396 114,271.204249 L114,271.204249 L114,271.204249 C108.692006,282.66396 91.6897148,278.739336 91.8237153,266.08358 L91.8237153,266.08358 L91.8237153,266.08358 C82.1252363,274.079543 68.4902973,263.080708 74.0379156,251.737413 L74.0379156,251.737413 C61.872252,254.684469 54.3051683,238.789822 64.1691772,231.005958 L64.1691772,231.005958 L64.1691772,231.005958 C51.9436076,228.320437 51.9436076,210.679563 64.1691772,207.994042 L64.1691772,207.994042 L64.1691772,207.994042 C54.3051683,200.210178 61.872252,184.315531 74.0379156,187.262587 L74.0379156,187.262587 C68.4902973,175.919292 82.1252363,164.920457 91.8237153,172.91642 L91.8237153,172.91642 L91.8237153,172.91642 C91.6897148,160.260664 108.692006,156.33604 114,167.795751 Z" id="Fill-38" fill="#4E5D99"></path>
                    <path d="M113,85.2078509 C113.161171,116.41143 87.9957168,141.837275 56.7921415,142 C25.5885663,142.161171 0.162725307,116.995713 0,85.792134 C-0.161170757,54.5885547 25.0042832,29.1627103 56.2078585,29 C87.4114337,28.8404019 112.837275,54.0042715 113,85.2078509" id="Fill-54" fill="#C5A7CD"></path>
                    <g id="Green-Arrow-Icon-(1)" transform="translate(85, 0)" fill-rule="nonzero">
                        <polygon id="Path" fill="#2EECA6" points="100.658802 0 0 73.1478896 12.8388717 197.150223 126.336545 248 227 174.847444 214.156475 50.849777"></polygon>
                        <polygon id="Path" fill="#171C26" points="165.421981 156.087127 146.564995 153.09517 151.104812 124.85424 154.342222 117.076077 151.853696 115.235584 145.578887 121.344356 70.7137708 175.278195 59.5409836 159.948462 134.4061 106.014622 142.197282 101.98681 141.211174 99.0642185 132.764138 99.697755 104.362373 95.1890099 107.376514 76.4511278 166.76625 85.8755611 174.901639 97.0433758"></polygon>
                    </g>
                </g>
            </g>
        </g>
    </g>
</svg>