<svg width="331" height="253" xmlns="http://www.w3.org/2000/svg"><g fill="none" fill-rule="evenodd"><path d="M270.374 1.282c-2.296.222-4.588.45-6.88.672-1.812.201-3.625.398-5.438.589-1.777.206-3.55.413-5.321.615a809.434 809.434 0 00-21.205 2.827 856.023 856.023 0 00-42.103 7.261c-21.129 4.186-42.094 9.127-62.896 14.885a759.218 759.218 0 00-31.084 9.334 604.069 604.069 0 00-23.154 8.02l-3.845 1.443a75.13 75.13 0 01-.978.366c-.545.218-1.09.43-1.635.647-1.09.423-2.184.847-3.274 1.281-1.171.445-2.612 1.05-3.982 1.602-1.375.559-2.75 1.117-4.125 1.68a745.48 745.48 0 01-4.069 1.752 137.49 137.49 0 00-4.023 1.773l-3.967 1.809c-1.329.604-2.581 1.235-3.875 1.855-2.612 1.225-5.016 2.517-7.486 3.788-1.237.636-2.347 1.298-3.534 1.944l-1.741.976c-.596.32-1.1.657-1.655.982-1.09.657-2.175 1.318-3.265 1.98-.998.667-1.996 1.328-2.994 1.995-3.885 2.661-7.23 5.344-9.89 7.959-.717.765-1.384 1.535-2.077 2.3-.621.76-1.125 1.509-1.7 2.263-.454.74-.912 1.473-1.325 2.202-.173.362-.351.718-.53 1.08l-.264.543c-.087.176-.148.351-.219.527C.659 91.075.098 93.762.007 96.63a22.171 22.171 0 00.382 4.781c.178.992.463 2.016.738 2.858.29.848.575 1.582.876 2.243a22.037 22.037 0 001.925 3.421c1.385 2.026 3.02 3.8 5.2 5.479 2.158 1.67 4.883 3.22 8.437 4.486 3.544 1.271 7.97 2.217 12.975 2.837 4.16.517 8.708.832 13.44.992 4.73.171 9.65.192 14.645.124a459.343 459.343 0 0015.175-.496 423.52 423.52 0 007.669-.434l4.705-.325s.224-.016.662-.052c7.735-3.485 13.646-9.438 13.646-21.344S88.661 83.341 83.648 83.41c-.315.026-.473.036-.473.036-.988.083-1.97.155-2.964.228.046-.021.102-.042.158-.057l5.046-1.933c2.374-.9 4.767-1.778 7.165-2.636a607.46 607.46 0 0114.498-5.003c9.737-3.214 19.575-6.202 29.485-9.013 19.82-5.597 39.898-10.44 60.11-14.56a821.922 821.922 0 0140.265-7.162 765.955 765.955 0 0120.217-2.796c1.685-.202 3.37-.409 5.061-.615 1.645-.186 3.295-.378 4.945-.564l3.519-.372c-.545.331-1.085.662-1.625.998-12.639 7.752-25.98 15.065-39.465 22.15-13.668 7.17-27.54 14.09-41.513 20.85a2067.09 2067.09 0 01-21.036 10.005c-3.52 1.633-7.043 3.261-10.567 4.894-3.376 1.54-6.747 3.08-10.129 4.616-2.184.847-4.38 1.695-6.564 2.537l-6.986 2.75c-16.072 6.403-32.026 13.05-47.96 20.378-7.985 3.69-15.94 7.52-24.016 11.928-4.053 2.228-8.107 4.559-12.44 7.494-2.175 1.504-4.405 3.101-6.987 5.417a42.501 42.501 0 00-2.062 2.01 31.513 31.513 0 00-2.348 2.75c-.85 1.137-1.792 2.49-2.765 4.537-.117.264-.24.527-.356.786-.112.263-.245.61-.357.915-.122.315-.229.625-.341.95-.112.357-.224.74-.326 1.112a21.235 21.235 0 00-.718 5.406v.062a23.72 23.72 0 00.356 4.01 22.802 22.802 0 001.248 4.378c1.161 2.93 3.05 5.602 4.97 7.478 1.946 1.912 3.87 3.153 5.54 4.047 1.702.9 3.173 1.447 4.533 1.881 2.673.832 4.812 1.158 6.757 1.385 1.946.212 3.672.285 5.307.29a76.341 76.341 0 006.722-.27c2.108-.17 4.135-.402 6.1-.666 7.43-1.018 14.294-2.48 21.057-4.083a404.873 404.873 0 0010.001-2.522c3.275-.868 6.585-1.788 9.676-2.64 7.628-2.104 15.292-4.202 22.971-6.321l-.463.222c-9.742 4.646-19.509 9.297-29.317 14.14a110.79 110.79 0 00-5.072 2.641 90.38 90.38 0 00-5.072 3.029c-1.756 1.147-3.544 2.356-5.693 4.207-.54.465-1.11.987-1.726 1.607a25.23 25.23 0 00-2.017 2.248 21.708 21.708 0 00-2.475 3.85 19.601 19.601 0 00-1.298 3.308c-.046.17-.087.33-.138.501l-.132.574a18.136 18.136 0 00-.32 1.799c-.026.232-.047.454-.072.682-.04.455-.061.91-.066 1.37a19.087 19.087 0 00.147 2.547c.041.295.087.595.143.89.209 1.183.54 2.33.983 3.436.107.28.224.548.346.817.122.258.24.501.367.754.254.486.534.977.825 1.442.29.45.555.817.865 1.22.143.196.296.382.448.574.153.186.321.382.449.527.28.3.57.604.86.894.296.29.616.584.856.785.265.223.524.435.8.652.27.206.56.418.763.563.458.31.968.64 1.4.889.403.227.81.444 1.228.651.387.186.708.33 1.07.486.167.077.34.145.519.217.147.057.3.114.458.176.29.108.631.227.896.315l.8.248c.285.088.519.15.753.207.24.062.479.124.713.18.453.104.87.187 1.299.275l.071.015c.428.072.866.14 1.304.191l.657.067c.106.006.219.016.33.026.062 0 .133.005.194.01.53.021 1.06.026 1.579.021a41.29 41.29 0 001.405-.072c.362-.036.728-.078 1.09-.109.367-.04.611-.082.932-.124.148-.02.3-.041.438-.062.142-.02.27-.046.402-.062l.78-.14.717-.139 1.36-.279c1.741-.372 3.3-.765 4.833-1.163a262.71 262.71 0 008.779-2.517c5.693-1.736 11.233-3.56 16.743-5.426 11.015-3.732 21.872-7.644 32.708-11.706a1063.944 1063.944 0 0018.435-7.122 649.792 649.792 0 008.01-3.246 22.505 22.505 0 00-.616 1.881 19.635 19.635 0 00-.749 6.021c.061 1.566.321 3.313.912 5.096a18.08 18.08 0 002.612 4.993c.02.026.04.046.051.072a17.532 17.532 0 003.896 3.747 17.496 17.496 0 004.308 2.181 18.52 18.52 0 003.656.837 20.6 20.6 0 002.821.14c1.87-.047 3.264-.295 4.482-.548a32.148 32.148 0 003.121-.868 44.001 44.001 0 004.69-1.907c2.745-1.292 5.062-2.605 7.287-3.938 4.415-2.662 8.392-5.396 12.273-8.161 3.87-2.775 7.603-5.587 11.274-8.393.85-.667 1.716-1.323 2.577-1.985-.743 1.504-1.477 3.003-2.22 4.507a251.6 251.6 0 01-6.142 11.489 145.023 145.023 0 01-3.203 5.349 71.429 71.429 0 01-1.548 2.346 24.667 24.667 0 01-1.084 1.458c.005 0 .01-.005.015-.01-4.72 9.153-7.325 14.203-1.414 20.156 3.94 3.968 11.127 3.968 21.56 0 .28-.3.483-.517.625-.667l.189-.207c1.51-1.85 2.55-3.17 3.116-3.959a91.752 91.752 0 002.292-3.38c1.43-2.186 2.714-4.31 3.967-6.434a279.146 279.146 0 007.027-12.776l1.65-3.23c.27-.543.54-1.086.81-1.623l1.472-3.013a215.84 215.84 0 005.576-12.518c1.675-4.15 3.193-8.3 4.16-12.13a37.829 37.829 0 001.029-5.462c.188-1.706.224-3.287.091-4.709a6.769 6.769 0 00-.086-.821c-.04-.264-.071-.533-.112-.796-.102-.507-.199-1.013-.3-1.52-.576-2.237-1.35-4.114-2.537-6.01-.285-.44-.59-.884-.947-1.36a18.555 18.555 0 00-3.065-3.168 18.616 18.616 0 00-2.862-1.896c.102-.145.198-.29.295-.44.066-.098.122-.19.189-.29.066-.123.147-.242.219-.366.076-.124.142-.248.219-.372.076-.14.152-.28.229-.414.178-.33.34-.672.499-1.018.01-.02.025-.041.035-.057a30.26 30.26 0 001.41-3.767c.429-1.489.841-3.267.933-5.639a19.749 19.749 0 00-.382-4.625 18.607 18.607 0 00-2.113-5.598 17.872 17.872 0 00-2.592-3.452c2.943-1.824 5.891-3.721 9.059-6.036 1.635-1.22 3.305-2.497 5.29-4.337a34.52 34.52 0 001.59-1.581 28.475 28.475 0 001.879-2.176c.692-.92 1.466-1.969 2.368-3.737a19.89 19.89 0 001.35-3.38c.422-1.441.814-3.297.794-5.659a18.47 18.47 0 00-.79-5.142c-.015-.036-.025-.083-.04-.124a29.44 29.44 0 00-2.389-5.613 26.958 26.958 0 00-2.037-3.075 24.052 24.052 0 00-2.795-3.039c-2.104-1.954-4.782-3.587-7.466-4.579-2.689-1.013-5.326-1.421-7.623-1.504-4.115-.108-7.287.64-10.001 1.499-1.36.444-2.613.94-3.81 1.488-.62.285-1.166.548-1.828.894-.657.347-1.303.708-1.935 1.096-.005.005-.015.01-.02.016-.066.046-.138.098-.209.15-1.013.614-2.027 1.224-3.045 1.84-1.014.61-2.037 1.167-3.05 1.751-1.004.6-2.073 1.148-3.117 1.716a100.473 100.473 0 01-3.188 1.664c-4.267 2.202-8.728 4.254-13.24 6.249-11.728 5.158-24.015 9.695-36.456 13.949-13.78 4.693-27.814 8.977-41.946 13.07-3.625 1.05-7.261 2.083-10.902 3.106l2.368-.899.086-.036.02-.01c1.966-.869 3.927-1.737 5.882-2.615 1.808-.812 3.616-1.623 5.424-2.44l10.8-4.925c7.19-3.308 14.35-6.657 21.5-10.058 14.305-6.806 28.538-13.788 42.705-21.096 13.988-7.251 27.9-14.735 41.752-23.107 1.11-.678 2.225-1.36 3.335-2.047a303.408 303.408 0 004.914-3.101 241.942 241.942 0 009.538-6.445c6.167-4.393 11.896-9.034 16.128-13.67a41.963 41.963 0 002.887-3.447 35.441 35.441 0 002.297-3.375c1.34-2.222 2.286-4.362 2.928-6.445a25.403 25.403 0 001.115-6.196c.102-2.088-.02-4.28-.662-6.895a23.95 23.95 0 00-1.41-3.984 21.59 21.59 0 00-1.829-3.251 23.885 23.885 0 00-4.354-4.858c-1.65-1.406-3.554-2.647-5.79-3.732-2.25-1.08-4.863-1.969-7.821-2.651-3.927-.858-8.413-1.354-13.256-1.473A118.653 118.653 0 00292.231 0c-3.723 0-7.583.165-11.473.403-3.473.295-6.926.59-10.384.879z" fill="#233044"/><path d="M87 97.504c0 16.845-13.655 30.5-30.5 30.5S26 114.349 26 97.504s13.655-30.5 30.5-30.5S87 80.659 87 97.504z" stroke="#33D2A3"/><path stroke="#D6D6D6" d="M158.264 148.467v-3.2h3.172"/><path stroke="#D6D6D6" stroke-dasharray="11.846,11.846" d="M166.137 145.267h48.652"/><path stroke="#D6D6D6" d="M215.564 145.267h3.172v3.2"/><path stroke="#D6D6D6" stroke-dasharray="11.241,11.241" d="M218.736 152.953v34.243"/><path stroke="#D6D6D6" d="M218.736 188.533v3.2h-3.172"/><path stroke="#D6D6D6" stroke-dasharray="11.846,11.846" d="M213.22 191.733h-48.653"/><path stroke="#D6D6D6" d="M161.436 191.733h-3.172v-3.2"/><path stroke="#D6D6D6" stroke-dasharray="11.241,11.241" d="M158.264 185.707v-34.243"/><path fill="#574599" d="M163.289 187.134h51.279v-37.332h-51.28z"/><path stroke="#D6D6D6" d="M258.169 45.213V43.17h2.028"/><path stroke="#D6D6D6" stroke-dasharray="11.846,11.846" d="M263.202 43.17h31.106"/><path stroke="#D6D6D6" d="M294.803 43.17h2.028v2.043"/><path stroke="#D6D6D6" stroke-dasharray="11.241,11.241" d="M296.831 48.076v21.858"/><path stroke="#D6D6D6" d="M296.831 70.787v2.043h-2.028"/><path stroke="#D6D6D6" stroke-dasharray="11.846,11.846" d="M293.304 72.83h-31.105"/><path stroke="#D6D6D6" d="M260.197 72.83h-2.028v-2.043"/><path stroke="#D6D6D6" stroke-dasharray="11.241,11.241" d="M258.169 68.983V47.126"/><path fill="#574599" d="M261.381 69.894h32.785V46.065h-32.785z"/></g></svg>