<?xml version="1.0" encoding="UTF-8"?>
<svg width="120px" height="114px" viewBox="0 0 120 114" version="1.1" xmlns="http://www.w3.org/2000/svg" xmlns:xlink="http://www.w3.org/1999/xlink">
    <title>8F61DE2A-604C-4A7A-81B3-E4B2665D0722</title>
    <g id="Page-1" stroke="none" stroke-width="1" fill="none" fill-rule="evenodd">
        <g id="Index" transform="translate(-346, -2600)">
            <g id="Group-20" transform="translate(346, 2600)">
                <g id="Group-19" transform="translate(69.359, 45.964)">
                    <path d="M18.5465024,25.3864095 L18.5465024,25.3864095 C20.215057,21.8253066 25.5596848,23.0448827 25.5175621,26.9776565 L25.5175621,26.9776565 L25.5175621,26.9776565 C28.5662547,24.4929126 32.8523636,27.9107983 31.1084837,31.4357252 L31.1084837,31.4357252 C34.9327296,30.5199281 37.3114234,35.4591867 34.2106969,37.878021 L34.2106969,37.878021 C38.0537742,38.7125461 38.0537742,44.1944443 34.2106969,45.0289694 L34.2106969,45.0289694 C37.3114234,47.4478037 34.9327296,52.3870623 31.1084837,51.4712652 L31.1084837,51.4712652 C32.8523636,54.9961922 28.5662547,58.4140779 25.5175621,55.9293339 L25.5175621,55.9293339 L25.5175621,55.9293339 C25.5596848,59.8621077 20.215057,61.0816839 18.5465024,57.520581 L18.5465024,57.520581 L18.5465024,57.520581 C16.8779478,61.0816839 11.5333201,59.8621077 11.5754428,55.9293339 L11.5754428,55.9293339 L11.5754428,55.9293339 C8.52675018,58.4140779 4.24064122,54.9961922 5.98452114,51.4712652 L5.98452114,51.4712652 C2.16027523,52.3870623 -0.218418606,47.4478037 2.88230793,45.0289694 L2.88230793,45.0289694 L2.88230793,45.0289694 C-0.960769309,44.1944443 -0.960769309,38.7125461 2.88230793,37.878021 L2.88230793,37.878021 L2.88230793,37.878021 C-0.218418606,35.4591867 2.16027523,30.5199281 5.98452114,31.4357252 L5.98452114,31.4357252 C4.24064122,27.9107983 8.52675018,24.4929126 11.5754428,26.9776565 L11.5754428,26.9776565 L11.5754428,26.9776565 C11.5333201,23.0448827 16.8779478,21.8253066 18.5465024,25.3864095 Z" id="Fill-38-Copy" fill="#4E5D99"></path>
                    <path d="M50.3715063,17.5436005 C50.421811,27.2828651 42.5671657,35.2187824 32.8279011,35.2695723 C23.0886365,35.3198769 15.1527192,27.4652316 15.1019293,17.7259671 C15.0516247,7.98670246 22.90627,0.0507851417 32.6455346,0 C42.3847992,-0.0498137852 50.3207165,7.80433594 50.3715063,17.5436005" id="Fill-54-Copy" fill="#C5A7CD"></path>
                </g>
                <polygon id="Fill-56-Copy" fill="#2EECA6" points="46.4037727 0 0 33.6255903 5.91876821 90.627022 58.2427409 114 104.646514 80.3744097 98.7263137 23.3744097"></polygon>
            </g>
        </g>
    </g>
</svg>