<svg width="120" height="114" xmlns="http://www.w3.org/2000/svg"><g fill="none" fill-rule="evenodd"><path d="M87.906 71.35c1.668-3.56 7.013-2.341 6.97 1.592 3.05-2.485 7.335.933 5.591 4.458 3.825-.916 6.203 4.023 3.103 6.442 3.843.835 3.843 6.316 0 7.151 3.1 2.419.722 7.358-3.103 6.442 1.744 3.525-2.542 6.943-5.59 4.458.042 3.933-5.303 5.153-6.971 1.592-1.67 3.56-7.014 2.341-6.972-1.592-3.048 2.485-7.334-.933-5.59-4.458-3.825.916-6.203-4.023-3.103-6.442-3.843-.835-3.843-6.316 0-7.151-3.1-2.419-.722-7.358 3.103-6.442-1.744-3.525 2.542-6.943 5.59-4.458-.042-3.933 5.303-5.153 6.972-1.592z" fill="#4E5D99"/><path d="M119.73 63.508c.05 9.739-7.804 17.675-17.543 17.726-9.74.05-17.675-7.805-17.726-17.544-.05-9.74 7.804-17.675 17.544-17.726 9.739-.05 17.675 7.804 17.726 17.544" fill="#C5A7CD"/><path fill="#2EECA6" d="M46.404 0L0 33.626l5.919 57.001L58.243 114l46.404-33.626-5.92-57z"/></g></svg>