<svg width="112" height="114" xmlns="http://www.w3.org/2000/svg"><g stroke-width="4" fill="none" fill-rule="evenodd" stroke-linecap="round" stroke-linejoin="round"><path d="M38.684 94.524c.93-.93 1.884-2.428 4.856-2.428h33.99c2.697 0 17.535-14.88 19.422-16.994 1.813-2.035 9.898-14.181 12.139-19.423-1.408-1.896-5.215-3.471-9.712-2.428-4.292.998-6.817 4.08-9.71 9.712l-11.13 5.778" stroke="#7EA932"/><path d="M53.251 77.53h19.423c9.71 0 9.71-12.14 0-12.14H59.845c-2.022 0-5.814-4.855-9.022-4.855H38.684c-3.28 0-7.356 2.66-9.71 4.855l-9.712 9.712" stroke="#7EA932"/><path stroke="#783597" d="M31.401 111.519l12.139-12.14-29.134-29.133-12.139 12.14z"/><path stroke="#7EA932" d="M14.406 82.385l4.856 4.855m72.834-29.133l-4.856-4.856h-7.283l-7.283-4.855h-4.856l-4.856-2.428-4.855 4.856h-7.284l-7.283 4.855v4.856m33.877-35.067c-6.38 3.705-7.172 13.217-7.172 13.217s9.11 3.605 15.492-.1c6.38-3.704 13.642-16.894 13.642-16.894s-15.582.072-21.962 3.777zM59.116 37.764c5.917-6.094 4.9-16.56 1.753-21.02C53.15 5.807 39.128 8.701 29.167 2.267 21.79 19.565 30.512 41.338 53.25 38.684m9.712 9.712C60.95 30.178 46.85 23.334 37.442 15.278"/></g></svg>