<svg width="108" height="114" xmlns="http://www.w3.org/2000/svg"><g stroke-width="4" fill="none" fill-rule="evenodd" stroke-linecap="round" stroke-linejoin="round"><path d="M55.16 111.733H7.66a4.749 4.749 0 01-4.75-4.75V19.106a4.749 4.749 0 014.75-4.75h9.5m57 0h9.5a4.749 4.749 0 014.75 4.75v9.5" stroke="#7EA932"/><path stroke="#7EA932" d="M48.035 102.233H12.409V23.857h9.5m47.501 0h9.5v9.5"/><path d="M62.285 11.981H55.16a9.5 9.5 0 00-19 0h-7.126a7.125 7.125 0 00-7.125 7.125v7.126h47.5v-7.126a7.125 7.125 0 00-7.124-7.125z" stroke="#783597"/><path stroke="#7EA932" d="M45.66 9.606v4.75m32.063 94.708c-2.26 0-4.625 1.973-7.375 1.973-6.643 0-15.267-6.951-18.549-18.838-3.527-12.757-.09-24.42 7.486-28.515 7.605-4.111 14.248.549 19.625.549 5.377 0 9.645-4.66 17.25-.549 7.576 4.095 11.013 15.758 7.486 28.515-3.282 11.887-11.906 18.838-18.549 18.838-2.75 0-5.113-1.973-7.374-1.973zm14.136-57.745c-4.52 5.93-14.136 6.386-14.136 6.386S75.86 48.5 80.38 42.572c4.52-5.93 13.174-6.928 13.174-6.928s2.824 9.745-1.695 15.675zM78.91 64.232c0-6.391-4.104-15.122-11.875-21.375"/></g></svg>