<svg width="23" height="23" xmlns="http://www.w3.org/2000/svg"><path d="M20.125 20.844H2.875a.719.719 0 01-.719-.719V9.344h2.875c-.374.539-.5 1.544-.5 2.183 0 3.849 3.138 6.98 6.996 6.98 3.858 0 6.997-3.131 6.997-6.98 0-.639-.09-1.63-.555-2.183h2.875v10.781a.719.719 0 01-.719.719m-8.598-13.73a4.418 4.418 0 014.423 4.413 4.418 4.418 0 01-4.423 4.413 4.418 4.418 0 01-4.423-4.413 4.418 4.418 0 014.423-4.413m5.723-4.239h2.156a.72.72 0 01.719.719V5.75a.719.719 0 01-.719.719H17.25a.719.719 0 01-.719-.719V3.594a.72.72 0 01.719-.719M20.266 0H2.734A2.73 2.73 0 000 2.728v17.544A2.73 2.73 0 002.734 23h17.532A2.73 2.73 0 0023 20.272V2.728A2.73 2.73 0 0020.266 0" fill="#FFF" fill-rule="evenodd"/></svg>