<svg width="261" height="90" xmlns="http://www.w3.org/2000/svg" xmlns:xlink="http://www.w3.org/1999/xlink"><defs><path id="a" d="M0 0h20.212v28.864H0z"/></defs><g fill="none" fill-rule="evenodd"><path d="M38.504 15.323c.884-1.21.864-2.38-.055-3.296-.213-.213-.663-.408-.848-.46-1.28-.362-2.169.868-2.335 1.12-.032.045-.061.093-.097.139a31.18 31.18 0 00-6.068 15.06h4.202a27.078 27.078 0 015.201-12.563" fill="#FFF"/><path d="M63.002 57.157c-.003-.11-.01-.216-.016-.327-.003-.107-.01-.217-.016-.323-.007-.11-.017-.218-.023-.325l-.084-.966c-.013-.107-.023-.214-.036-.32a27.733 27.733 0 01-.038-.318c-.013-.106-.026-.213-.042-.32a9.323 9.323 0 00-.042-.317l-.049-.316-.307-1.689c-.026-.14-.068-.365-.12-.62l-.961.148c0 .02.003.039.003.061a1.103 1.103 0 01-2.146.35l-.932.28c.566 2.158.669 3.821.669 6.315 0 7.374-2.896 14.29-8.147 19.47-5.25 5.18-12.198 7.98-19.59 7.871-14.656-.204-26.75-12.295-26.955-26.953-.099-7.381 2.696-14.34 7.874-19.59 5.178-5.254 12.094-8.146 19.47-8.146 1.301 0 2.586.095 3.85.272a27.068 27.068 0 0112.564 5.2c1.208.88 2.38.864 3.295-.055.214-.212.407-.665.46-.847.361-1.283-.868-2.17-1.12-2.335-.045-.033-.094-.065-.14-.098a31.13 31.13 0 00-15.058-6.066 31.79 31.79 0 00-4.212-.237C14.094 27.147.116 41.186.002 58.246c-.06 8.462 3.191 16.428 9.152 22.428 5.961 6.004 13.902 9.309 22.36 9.309 17.38 0 31.514-14.138 31.514-31.513l-.026-1.313z" fill="#FFF"/><path d="M37.268 57.501c-.85.1-3.332.248-4.624-1.164a3.208 3.208 0 01-.473-3.714c.421-.789 1.08-1.187 1.964-1.187.258 0 .542.033.84.1.431.101.822.33 1.1.65.796.916 1.187 2.23 1.19 4.011 0 0 .003.815.003 1.304zm24.977-5.98c-.116-1.481-1.167-3.542-1.995-4.34-1.986-2.074-4.474-2.27-5.458-2.263-2.635-.032-4.65.57-7.177 3.763-.316.4-.743 1.118-1.047 1.653-.42.74-.79 1.326-1.164 1.846-1.046 1.463-2.194 2.643-3.414 3.519l-.071-1.054-.003-.04a12.13 12.13 0 00-.129-.727l-.01-.052a7.055 7.055 0 00-.426-1.477l-.013-.03a9.883 9.883 0 00-.653-1.4 6.764 6.764 0 00-.654-.938l-.12-.165c-.77-1.044-1.7-1.798-2.766-2.238-1.679-.716-4.076-.378-4.537-.305-1.57.253-3.048 1.356-4.053 3.025-1.792 2.976-1.239 6.98 1.293 9.312 1.783 1.65 4.63 2.498 7.427 2.218 0 1.398-.007 2.615-.016 3.717-.036 3.558-2.485 6.146-5.822 6.146h-.077a5.366 5.366 0 01-1.93-.368c-2.162-.89-3.603-3.074-3.666-5.559-.058-2.14-.045-4.31-.032-6.427.006-.891.01-1.78.013-2.667 0-2.238-.454-4.118-1.382-5.752-1.41-2.48-4.529-4.21-7.566-4.21-1.232-.043-2.112.216-2.607.773-.418.472-.42.998-.395 1.22-.01.199.04.37.078.504.039.138.088.294.162.453.187.398.533.718.944.875.321.127.683.127 1.003.13.15 0 .288 0 .401.013a7.44 7.44 0 011.048.189c.631.16 1.177.404 1.624.724 1.1.789 1.53 2.047 1.695 2.965.094.528.143 1.097.143 1.74 0 1.06 0 2.126-.004 3.19v.035c-.003 2.032-.01 4.134.017 6.252v.032l.01.13c.128 4.367 3.146 8.2 7.334 9.32a13.2 13.2 0 003.397.472c2.642 0 5.026-.893 7.29-2.728a6.25 6.25 0 00.787-.757c1.32-1.53 2.115-3.46 2.299-5.586.02-.232.036-.466.049-.695l.016-.229c.1-1.502.088-4.541.081-5.529 2.782-1.34 4.673-2.83 6.114-4.793l.138-.19c.53-.724 1.078-1.473 1.506-2.275 1.46-2.874 2.77-4.207 5.872-3.502.193.055 1.682.54 2.319 2.549.016.071.039.144.062.213.303.9 1.044 1.46 1.937 1.46 1.193 0 2.128-.926 2.128-2.103v-.04zM20.247 20.847a74.573 74.573 0 01-1.494-2.326c-.243-.394-.485-.786-.72-1.187-.118-.201-.25-.385-.348-.605-.077-.236-.08-.536.15-1.038l.257-.227c.528-.161.825-.116 1.05-.01.202.123.368.283.555.424a81.321 81.321 0 013.185 2.663l1.03.917.53.495C26.773.544 2.01.718 2.01.718c-1.458 19.74 13.656 21.975 19.6 22.095l-.59-.825-.773-1.141zM97.188 46L89.95 65.826h-5.61L77.19 46h5.65l4.37 11.82L91.622 46zm18.674 8.093c-.473-2.613-2.355-4.196-5.052-4.196-2.614 0-4.371 1.499-4.884 4.196h9.936zm-9.936 3.124c.472 2.743 2.484 4.454 5.181 4.454 2.015 0 3.727-.982 4.582-2.567l5.011 1.37c-1.97 3.854-5.436 6.04-9.635 6.04-6.294 0-10.79-4.455-10.79-10.622 0-6.21 4.324-10.577 10.447-10.577 6.34 0 10.748 4.454 10.748 10.835l-.042 1.067h-15.502zm25.824-1.411c0 3.425 2.228 5.867 5.354 5.867 1.585 0 3.127-.685 4.11-1.84.644-.773 1.03-2.015 1.03-3.512 0-2.142-.473-3.597-1.456-4.626-.987-.94-2.356-1.543-3.726-1.543-3.128 0-5.312 2.358-5.312 5.654zM142.328 46h5.352v18.373c0 4.069-.77 6.423-2.655 8.263-1.925 1.927-4.84 3-8.223 3-3.852 0-7.021-1.285-9.719-3.942l3.383-3.424c1.757 1.882 3.639 2.739 6.123 2.739 3.642 0 5.739-2.14 5.739-5.867V63.13c-1.8 2.27-4.112 3.383-6.981 3.383-5.437 0-9.377-4.412-9.377-10.45 0-6.425 3.981-10.749 9.934-10.749 2.785 0 4.712.945 6.424 3.128V46zm18.244 10.063c0 3.554 2.184 6.038 5.312 6.038 3.17 0 5.394-2.484 5.394-6.038 0-3.513-2.27-6.166-5.266-6.166-3.04 0-5.44 2.741-5.44 6.166zm.088 9.765h-5.441V37.264h5.441v11.133c1.882-2.183 3.722-3.082 6.424-3.082 5.821 0 9.975 4.454 9.975 10.705 0 6.211-3.94 10.493-9.72 10.493-2.998 0-4.927-.945-6.679-3.257v2.572zm36.957-11.735c-.473-2.613-2.355-4.196-5.052-4.196-2.614 0-4.371 1.499-4.884 4.196h9.936zm-9.936 3.124c.472 2.743 2.484 4.454 5.181 4.454 2.015 0 3.727-.982 4.583-2.567l5.01 1.37c-1.969 3.854-5.437 6.04-9.635 6.04-6.294 0-10.79-4.455-10.79-10.622 0-6.21 4.324-10.577 10.447-10.577 6.34 0 10.748 4.454 10.748 10.835l-.042 1.067h-15.502zM214.705 46v2.91c.557-1.456.942-2.053 1.757-2.656.856-.597 2.012-.94 3.212-.94.128 0 .343 0 .64.042v5.57a12.42 12.42 0 00-1.155-.088c-1.497 0-2.869.685-3.639 1.798-.643.9-.815 1.757-.815 3.642v9.55h-5.44v-19.83h5.44zm16.145 0v2.91c.558-1.456.943-2.053 1.758-2.656.855-.597 2.012-.94 3.212-.94.128 0 .342 0 .64.042v5.57a12.42 12.42 0 00-1.155-.088c-1.497 0-2.87.685-3.639 1.798-.643.9-.815 1.757-.815 3.642v9.55h-5.44v-19.83h5.44z" fill="#FFF"/><g transform="translate(240.1 46)"><mask id="b" fill="#fff"><use xlink:href="#a"/></mask><path fill="#FFF" mask="url(#b)" d="M14.432 0h5.78L9.037 28.864H3.212l3.726-9.509L0 0h5.784l4.024 11.777z"/></g><path fill="#FFF" d="M156.422 75.185l-1.194.003-.01-5.479h1.194l.003 2.446 2.129-2.452h1.555l-2.555 2.749 2.565 2.726-1.546.003-2.145-2.429zm8.535-5.509l1.194-.003.01 5.495h-1.194l-2.68-3.794.006 3.8-1.19.003-.01-5.495 1.19-.003 2.68 3.795zm6.632 4.033c.333-.326.498-.763.498-1.307-.003-.546-.169-.98-.501-1.302-.333-.325-.77-.486-1.304-.483-.536 0-.973.164-1.307.49-.337.329-.5.766-.5 1.305 0 .54.167.977.503 1.3.338.327.774.492 1.307.489.537 0 .971-.166 1.304-.492m-1.3 1.507c-.852 0-1.57-.262-2.15-.79-.584-.525-.874-1.2-.874-2.011-.004-.815.287-1.484.873-2.015.582-.53 1.296-.796 2.144-.796.85-.003 1.565.263 2.148.79.581.524.874 1.196.877 2.008 0 .815-.29 1.486-.87 2.015-.58.531-1.298.796-2.149.799m10.726-5.554l1.278-.003-1.698 5.482-1.356.003-1.148-3.819-1.168 3.823-1.354.003-1.686-5.476 1.272-.003 1.141 4.227 1.184-4.23 1.345-.003 1.133 4.189zm7.59 5.464l-1.193.004-.003-1.886-2.002-3.59h1.336l1.263 2.577 1.249-2.583 1.336-.003-1.989 3.6zm6.918-1.46c.333-.327.499-.763.499-1.307-.003-.546-.169-.98-.502-1.303-.333-.324-.77-.485-1.307-.482-.533 0-.97.164-1.304.49-.336.328-.503.765-.5 1.304 0 .541.167.978.503 1.3.338.327.775.493 1.308.49.537 0 .97-.166 1.303-.492m-1.3 1.503c-.851.004-1.569-.258-2.15-.786-.583-.526-.874-1.2-.874-2.011-.003-.816.288-1.485.874-2.016.581-.529 1.296-.795 2.143-.795.851-.003 1.566.263 2.149.789.58.524.873 1.197.876 2.009 0 .815-.289 1.485-.87 2.015-.58.53-1.297.795-2.148.795m4.108-2.163l-.006-3.375 1.194-.003.006 3.374c0 .379.104.663.31.858.205.19.502.287.884.287.385 0 .679-.097.89-.29.206-.195.31-.483.31-.858l-.007-3.374 1.184-.003.007 3.374c.003.692-.23 1.226-.699 1.598-.469.375-1.036.566-1.708.566-.669 0-1.232-.185-1.685-.553-.453-.372-.676-.906-.68-1.601m7.373-2.541l.003 1.601.981-.003c.3 0 .526-.071.685-.216.158-.143.236-.34.236-.586a.75.75 0 00-.239-.583c-.16-.141-.385-.216-.682-.216l-.984.003zm.003 2.449l.004 2.179-1.19.003-.01-5.475 2.174-.007c.682 0 1.206.16 1.578.473.372.317.555.708.555 1.174 0 .342-.11.666-.336.964-.225.3-.578.504-1.063.614l1.51 2.25h-1.414l-1.416-2.175h-.392zm7.179 2.168l-.01-5.475 3.656-.01v.85l-2.462.004.003 1.436 1.88-.004v.848l-1.876.003.003 2.345zm8.755-1.464c.332-.326.498-.763.498-1.307-.003-.545-.17-.979-.502-1.302-.333-.325-.77-.485-1.304-.482-.536 0-.973.164-1.305.49-.338.328-.502.765-.502 1.304 0 .54.167.978.503 1.3.338.327.775.493 1.307.49.538 0 .971-.166 1.304-.493m-1.3 1.507c-.851 0-1.569-.261-2.15-.792-.583-.523-.874-1.197-.874-2.009-.003-.815.288-1.484.874-2.015.581-.53 1.296-.796 2.143-.796.851-.003 1.565.264 2.148.79.582.524.874 1.196.877 2.008 0 .815-.289 1.486-.87 2.015-.58.531-1.298.796-2.148.8m8.12-1.52c.333-.326.498-.763.498-1.307-.003-.545-.169-.979-.502-1.302-.332-.325-.77-.486-1.303-.482-.536 0-.973.164-1.308.49-.336.328-.5.765-.5 1.304 0 .54.168.977.504 1.3.337.327.774.493 1.307.49.537 0 .97-.166 1.304-.493m-1.301 1.504c-.85.003-1.569-.258-2.15-.79-.583-.522-.873-1.196-.873-2.008-.004-.815.287-1.484.873-2.015.581-.53 1.296-.796 2.144-.796.85-.003 1.565.263 2.148.79.581.524.873 1.196.877 2.008 0 .815-.29 1.486-.87 2.015-.58.531-1.298.796-2.149.796m5.322-.903h.811c.62-.003 1.103-.175 1.445-.515.344-.339.515-.802.515-1.38 0-.583-.174-1.042-.521-1.382-.343-.339-.825-.508-1.445-.508l-.812.003.006 3.782zm.801-4.637c.949-.004 1.715.245 2.3.747.586.5.88 1.164.88 1.992.003.828-.288 1.487-.874 1.986-.581.498-1.348.75-2.296.75l-2.005.003-.007-5.475 2.002-.003z"/></g></svg>