<svg width="114" height="114" xmlns="http://www.w3.org/2000/svg"><g stroke-width="4" fill="none" fill-rule="evenodd" stroke-linecap="round" stroke-linejoin="round"><path d="M51.887 89.464c-.963-19.636 11.15-38.75 26.904-48.54M55.405 69.09c-6.305-4.952-10.525-21.76.22-35.192 10.746-13.432 30.095-3.014 48.304-16.02 0 26.012-11.955 55.62-40.244 53.63M52.177 96.704c.757-15.595-7.317-28.709-19.572-37.817" stroke="#7EA932"/><path d="M40.036 47.955c-7.284-2.788-17.983-2.2-24.548-1.464.421 15.705 7.197 35.944 31.214 28.614m41.619 15.607h13.007v13.006" stroke="#7EA932"/><path d="M7.39 34.698c-3.213 7.044-4.894 14.618-4.91 22.195-.028 14.01 5.452 28.032 16.167 38.747 10.554 10.554 24.496 15.741 38.459 15.878 15.26.15 26.432-4.51 36.417-13.002 1.767-1.504 7.803-7.807 7.803-7.807" stroke="#7EA932"/><path d="M90.282 13.516C80.572 6.072 68.848 2.386 57.107 2.27c-15.26-.15-26.432 4.511-36.417 13.003-1.768 1.503-7.804 7.807-7.804 7.807m93.939 56.011c3.21-7.043 4.892-14.618 4.908-22.195a53.868 53.868 0 00-2.092-14.955" stroke="#783597"/><path stroke="#783597" d="M25.892 23.08H12.886V10.074"/></g></svg>