<svg xmlns="http://www.w3.org/2000/svg" width="119.999" height="77.333" viewBox="0 0 3175 2046" shape-rendering="geometricPrecision" text-rendering="geometricPrecision" image-rendering="optimizeQuality" fill-rule="evenodd" clip-rule="evenodd"><g id="Слой_x0020_1"><g id="_1047602592"><rect width="3175" height="2046" rx="298" ry="296" fill="#f63"/><path d="M305 80h104v58H305c-48 0-91 20-123 51-31 32-51 75-51 123v98H73v-98c0-64 26-122 68-164s100-68 164-68zm2461 0h104c64 0 122 26 164 68s68 100 68 164v98h-58v-98c0-48-20-91-51-123-32-31-75-51-123-51h-104V80zm336 1557v98c0 64-26 122-68 164s-100 68-164 68h-104v-58h104c48 0 91-20 123-51 32-32 51-75 51-123v-98h58zM408 1967H304c-64 0-122-26-164-68s-68-100-68-164v-98h58v98c0 48 20 91 51 123s75 51 123 51h104v58zM1680 916h-43v-78c-14 5-26 8-35 10s-18 3-27 3c-19 0-34-5-44-14s-16-22-16-39v-83h43v71c0 10 2 17 7 22s12 7 23 7c8 0 15-1 23-2 8-2 17-4 28-8v-90h43v201zm177 0h-116V715h116v35h-73v44h68v35h-68v52h73v35zm138-169c-16 0-28 6-37 18s-13 29-13 51c0 45 17 67 51 67 14 0 31-4 51-11v36c-17 7-35 10-55 10-29 0-52-9-67-27-16-18-23-43-23-77 0-21 4-39 11-55 8-16 19-28 33-36s31-13 50-13c20 0 39 5 59 14l-14 35c-8-4-15-7-23-9-8-3-15-4-22-4zm182 169h-43V750h-55v-36h152v36h-55v166zm261 0h-43v-87h-80v87h-43V715h43v79h80v-79h43v201zm184 0l-15-48h-73l-15 48h-46l71-202h52l71 202h-46zm-25-84c-13-43-21-68-23-74s-3-10-4-13c-3 12-12 41-26 87h52zm174 6l-47 77h-47l57-89c-11-5-20-12-26-21-6-10-9-21-9-34 0-18 7-33 20-43s32-15 56-15h66v201h-43v-77h-26zm26-89h-21c-11 0-20 2-26 6s-9 11-9 20 3 16 9 21 15 8 27 8h20v-54zm-1187 585l-49-158h-1c2 32 3 54 3 64v94h-38v-201h58l48 154h1l51-154h58v201h-40v-111c0-6 1-21 2-47h-1l-52 158h-39zm314 0l-15-48h-73l-15 48h-46l71-202h52l71 202h-46zm-25-84c-13-43-21-68-23-74s-3-10-4-13c-3 12-12 41-26 87h52zm149-23h14c13 0 23-3 29-8 7-5 10-13 10-23s-3-17-8-22-14-7-26-7h-19v60zm96-32c0 22-7 38-20 50-14 11-33 17-58 17h-18v72h-43v-201h64c24 0 43 5 56 16s19 26 19 47zm212 139h-48l-73-102v102h-43v-201h43v98l72-98h45l-73 97 77 105zm159 0l-15-48h-73l-15 48h-46l71-202h52l71 202h-46zm-25-84c-13-43-21-68-23-74s-3-10-4-13c-3 12-12 41-26 87h52z" fill="#fff" fill-rule="nonzero"/><path fill="#fff" d="M336 529h987v987H336z"/><path d="M335 528h49v49h-49zm99 0h49v49h-49zm99 0h49v49h-49zm98 0h49v49h-49zm99 0h49v49h-49zm99 0h49v49h-49zm99 0h49v49h-49zm99 0h49v49h-49zm98 0h49v49h-49zm99 0h49v49h-49zm-889 50h49v49h-49zm99 0h49v49h-49zm99 0h49v49h-49zm49 0h49v49h-49zm148 0h49v49h-49zm50 0h49v49h-49zm197 0h49v49h-49zm50 0h49v49h-49zm49 0h49v49h-49zm99 0h49v49h-49zm49 0h49v49h-49zm50 0h49v49h-49zm-939 49h49v49h-49zm50 0h49v49h-49zm197 0h49v49h-49zm49 0h49v49h-49zm99 0h49v49h-49zm247 0h49v49h-49zm50 0h49v49h-49zm49 0h49v49h-49zm99 0h49v49h-49zm-840 50h49v49h-49zm50 0h49v49h-49zm49 0h49v49h-49zm49 0h49v49h-49zm297 0h49v49h-49zm98 0h49v49h-49zm50 0h49v49h-49zm197 0h49v49h-49zm50 0h49v49h-49zm49 0h49v49h-49zm50 0h49v49h-49zm-939 49h49v49h-49zm148 0h49v49h-49zm50 0h49v49h-49zm197 0h49v49h-49zm50 0h49v49h-49zm98 0h49v49h-49zm50 0h49v49h-49zm49 0h49v49h-49zm50 0h49v49h-49zm148 0h49v49h-49zm-840 49h49v49h-49zm148 0h49v49h-49zm50 0h49v49h-49zm49 0h49v49h-49zm247 0h49v49h-49zm247 0h49v49h-49zm49 0h49v49h-49zm50 0h49v49h-49zm49 0h49v49h-49zm50 0h49v49h-49zm-939 50h49v49h-49zm50 0h49v49h-49zm49 0h49v49h-49zm99 0h49v49h-49zm148 0h49v49h-49zm99 0h49v49h-49zm98 0h49v49h-49zm50 0h49v49h-49zm49 0h49v49h-49zm148 0h49v49h-49zm99 0h49v49h-49zm-889 49h49v49h-49zm50 0h49v49h-49zm49 0h49v49h-49zm49 0h49v49h-49zm50 0h49v49h-49zm49 0h49v49h-49zm49 0h49v49h-49zm50 0h49v49h-49zm99 0h49v49h-49zm49 0h49v49h-49zm99 0h49v49h-49zm49 0h49v49h-49zm50 0h49v49h-49zm148 0h49v49h-49zm49 0h49v49h-49zm50 0h49v49h-49zm-939 50h49v49h-49zm50 0h49v49h-49zm49 0h49v49h-49zm247 0h49v49h-49zm49 0h49v49h-49zm148 0h49v49h-49zm149 0h49v49h-49zm49 0h49v49h-49zm49 0h49v49h-49zm50 0h49v49h-49zm49 0h49v49h-49zm-889 49h49v49h-49zm50 0h49v49h-49zm49 0h49v49h-49zm49 0h49v49h-49zm99 0h49v49h-49zm49 0h49v49h-49zm50 0h49v49h-49zm99 0h49v49h-49zm98 0h49v49h-49zm50 0h49v49h-49zm99 0h49v49h-49zm247 0h49v49h-49zm-939 49h49v49h-49zm99 0h49v49h-49zm49 0h49v49h-49zm247 0h49v49h-49zm50 0h49v49h-49zm98 0h49v49h-49zm50 0h49v49h-49zm49 0h49v49h-49zm50 0h49v49h-49zm197 0h49v49h-49zm-889 50h49v49h-49zm50 0h49v49h-49zm49 0h49v49h-49zm49 0h49v49h-49zm148 0h49v49h-49zm50 0h49v49h-49zm148 0h49v49h-49zm99 0h49v49h-49zm49 0h49v49h-49zm99 0h49v49h-49zm99 0h49v49h-49zm49 0h49v49h-49zm50 0h49v49h-49zm-939 49h49v49h-49zm148 0h49v49h-49zm198 0h49v49h-49zm247 0h49v49h-49zm49 0h49v49h-49zm148 0h49v49h-49zm50 0h49v49h-49zm-840 49h49v49h-49zm99 0h49v49h-49zm99 0h49v49h-49zm98 0h49v49h-49zm50 0h49v49h-49zm99 0h49v49h-49zm49 0h49v49h-49zm99 0h49v49h-49zm148 0h49v49h-49zm49 0h49v49h-49zm149 0h49v49h-49zm-939 50h49v49h-49zm50 0h49v49h-49zm197 0h49v49h-49zm198 0h49v49h-49zm49 0h49v49h-49zm198 0h49v49h-49zm197 0h49v49h-49zm-889 49h49v49h-49zm50 0h49v49h-49zm98 0h49v49h-49zm148 0h49v49h-49zm50 0h49v49h-49zm49 0h49v49h-49zm99 0h49v49h-49zm49 0h49v49h-49zm99 0h49v49h-49zm50 0h49v49h-49zm98 0h49v49h-49zm50 0h49v49h-49zm99 0h49v49h-49zm-939 50h49v49h-49zm50 0h49v49h-49zm98 0h49v49h-49zm50 0h49v49h-49zm98 0h49v49h-49zm50 0h49v49h-49zm49 0h49v49h-49zm247 0h49v49h-49zm99 0h49v49h-49zm-741 49h49v49h-49zm99 0h49v49h-49zm197 0h49v49h-49zm50 0h49v49h-49zm49 0h49v49h-49zm50 0h49v49h-49zm49 0h49v49h-49zm247 0h49v49h-49zm99 0h49v49h-49zm99 0h49v49h-49zm-939 49h49v49h-49zm99 0h49v49h-49zm49 0h49v49h-49zm50 0h49v49h-49zm49 0h49v49h-49zm49 0h49v49h-49zm99 0h49v49h-49zm50 0h49v49h-49zm345 0h49v49h-49zm99 0h49v49h-49zm-889 50h49v49h-49zm50 0h49v49h-49zm49 0h49v49h-49zm49 0h49v49h-49zm50 0h49v49h-49zm49 0h49v49h-49zm49 0h49v49h-49zm50 0h49v49h-49zm49 0h49v49h-49zm50 0h49v49h-49zm49 0h49v49h-49zm49 0h49v49h-49zm50 0h49v49h-49zm49 0h49v49h-49zm50 0h49v49h-49zm49 0h49v49h-49zm49 0h49v49h-49zm50 0h49v49h-49zm49 0h49v49h-49zm50 0h49v49h-49z"/></g></g></svg>