<?xml version="1.0" encoding="utf-8"?>
<!-- Generator: Adobe Illustrator 22.1.0, SVG Export Plug-In . SVG Version: 6.00 Build 0)  -->
<svg version="1.1" id="Слой_1" xmlns="http://www.w3.org/2000/svg" xmlns:xlink="http://www.w3.org/1999/xlink" x="0px" y="0px"
	 width="65px" height="65px" viewBox="0 0 65 65" style="enable-background:new 0 0 65 65;" xml:space="preserve">
<style type="text/css">
	.st0{fill:#FFFFFF;stroke:#FFFFFF;stroke-width:1.5;stroke-miterlimit:10;}
</style>
<path id="_933723904" class="st0" d="M32.1,62.7V18.1c-0.2,0.3-0.5,0.6-0.8,0.8c-0.8,0.5-1.7,0.7-2.7,0.4c0,0,0,0-0.1,0
	c-1.9-0.6-4-1.7-5.4-3.4c-0.9-1.1-1.5-2.3-1.8-3.7c-0.9,0.5-1.7,1.2-2.4,2.1c-0.8,1-1.4,2.1-1.7,3.4l-5.7,25.1c1,0.6,1.9,1,3,1.4
	c1,0.4,2.1,0.7,3.1,0.9c0.3-1.6,0.6-3.2,0.9-4.9c1.3-6.9,2.5-13.9,3.4-19.7c0-0.3,0.3-0.4,0.5-0.4c0.2,0,0.4,0.3,0.4,0.6
	c-0.9,5.7-2.2,12.8-3.4,19.7c-0.5,2.8-1.1,5.7-1.6,8.3c1.4,0.6,2.9,1.2,4.4,1.6c1.6,0.5,3.3,0.9,4.9,1.1c0.2,0,0.4,0.3,0.4,0.5
	c0,0.3-0.2,0.4-0.5,0.4c-1.7-0.3-3.4-0.6-5-1.1c-1.5-0.4-2.9-1-4.3-1.6c-0.2,0.8-0.3,1.6-0.5,2.4v0c-0.3,1.6-0.7,3.1-1,4.5
	c0,0.1,0,0.2,0,0.4c0,0.1,0,0.3,0,0.4c0,0.7,0.2,1.3,0.5,1.8c0.3,0.5,0.8,0.9,1.3,1.1c2.3,0.8,4.7,1.3,7.1,1.7
	C27.4,62.5,29.7,62.6,32.1,62.7L32.1,62.7z M33,18.1v44.5c2.4,0,4.8-0.2,7.1-0.6c2.4-0.4,4.8-1,7.1-1.7c0.6-0.2,1-0.6,1.3-1.1
	c0.3-0.5,0.5-1.2,0.5-1.8c0-0.2,0-0.3,0-0.4c0-0.1,0-0.3,0-0.4c-0.3-1.4-0.7-2.9-1-4.5v0c-0.2-0.8-0.3-1.6-0.5-2.4
	c-1.4,0.6-2.9,1.2-4.3,1.6c-1.7,0.5-3.3,0.9-5,1.1c-0.2,0-0.5-0.2-0.5-0.4s0.1-0.5,0.4-0.5c1.7-0.2,3.3-0.6,4.9-1.1
	c1.5-0.4,3-1,4.4-1.6c-0.5-2.7-1.1-5.5-1.6-8.3c-1.3-6.9-2.5-14-3.4-19.7c0-0.3,0.1-0.5,0.4-0.6c0.2,0,0.5,0.2,0.5,0.4
	c0.9,5.8,2.2,12.8,3.4,19.7c0.3,1.6,0.6,3.3,0.9,4.9c1.1-0.2,2.1-0.5,3.1-0.9c1-0.4,2-0.9,3-1.4l-5.8-25.1c-0.3-1.3-0.9-2.4-1.7-3.4
	c-0.7-0.9-1.5-1.6-2.4-2.1c-0.3,1.4-1,2.7-1.8,3.7c-1.4,1.7-3.4,2.8-5.4,3.4c0,0-0.1,0-0.1,0c-1,0.3-1.9,0.1-2.7-0.4
	C33.6,18.7,33.3,18.4,33,18.1z M18.2,13.7c0.8-1.1,1.9-1.9,3-2.5c0-0.2,0-0.4,0-0.6s0-0.4,0-0.6c0-0.2,0-0.4,0.1-0.6
	c0.4-2.6,1.8-4.4,3.7-5.7c2.3-1.6,5.2-2.3,7.7-2.3c2.5,0,5.4,0.7,7.7,2.3c1.9,1.3,3.3,3.2,3.7,5.7l0.1,0.6c0,0.2,0,0.4,0,0.6
	s0,0.4,0,0.6c1.1,0.6,2.1,1.4,3,2.5c0.9,1.1,1.5,2.4,1.9,3.8l5.8,25.2c0.6,0.2,1.2,0.7,1.6,1.2c0.5,0.6,0.7,1.4,0.8,2.2v0.2
	c0,0.4,0,0.7-0.1,1.2c-0.1,0.5-0.3,0.9-0.6,1.3c-0.2,0.4-0.6,0.7-1,1c-1.9,1.4-4.1,2-6.3,2.5c0.3,1.4,0.6,2.8,0.9,4.1
	c0,0.2,0,0.3,0.1,0.5c0,0.2,0,0.3,0,0.5c0,0.9-0.2,1.7-0.7,2.4c-0.5,0.7-1.1,1.2-1.8,1.4c-2.4,0.8-4.8,1.4-7.2,1.8
	c-2.5,0.4-5,0.6-7.6,0.6h-0.1c-2.5,0-5.1-0.2-7.6-0.6c-2.5-0.4-4.9-1-7.2-1.8c-0.7-0.2-1.4-0.8-1.8-1.4c-0.5-0.7-0.7-1.5-0.7-2.4
	c0-0.2,0-0.3,0-0.5c0-0.2,0-0.3,0.1-0.5c0.3-1.3,0.6-2.6,0.9-4.1c-2.2-0.5-4.4-1-6.3-2.5c-0.4-0.3-0.7-0.6-1-1
	c-0.2-0.4-0.5-0.9-0.6-1.3c-0.1-0.4-0.1-0.8-0.1-1.2v-0.2c0.1-0.8,0.4-1.6,0.8-2.2c0.4-0.5,1-1,1.6-1.2l5.8-25.2
	C16.7,16.1,17.3,14.8,18.2,13.7z M47.7,46.1c0.2,0.9,0.4,1.8,0.6,2.7l0,0c0,0.1,0,0.2,0,0.2c0.2,0.8,0.3,1.6,0.5,2.4
	c2.1-0.5,4.3-1,6-2.3c0.3-0.2,0.5-0.5,0.7-0.8c0.2-0.3,0.3-0.6,0.4-1c0.1-0.3,0.1-0.6,0.1-1v-0.2c0-0.6-0.3-1.2-0.6-1.7
	c-0.3-0.4-0.7-0.7-1.2-0.9c-1,0.6-2.2,1.1-3.3,1.5C49.9,45.6,48.8,45.9,47.7,46.1z M16.4,51.4c0.2-0.8,0.3-1.5,0.5-2.4
	c0-0.1,0-0.2,0-0.2c0,0,0,0,0,0c0.2-0.9,0.4-1.8,0.6-2.7c-1.1-0.2-2.2-0.5-3.2-0.9c-1.1-0.4-2.2-0.9-3.3-1.5
	c-0.5,0.2-0.9,0.5-1.2,0.9c-0.4,0.5-0.6,1.1-0.6,1.7v0.2c0,0.3,0,0.6,0.1,1c0.1,0.4,0.2,0.7,0.4,1c0.2,0.3,0.5,0.6,0.7,0.8
	C12.1,50.4,14.2,50.9,16.4,51.4z M36,11c0,0,0.1-0.1,0.1-0.2c0-0.1,0-0.2,0-0.2s0-0.2,0-0.2C36,10,34.6,9.6,34.4,9.6
	c-0.6-0.2-1.2-0.2-1.8-0.2c-0.6,0-1.2,0.1-1.8,0.2c-0.5,0.1-1.2,0.3-1.7,0.7c0,0-0.1,0.1-0.1,0.2c0,0.1,0,0.1,0,0.2
	c0,0.1,0,0.2,0,0.2c0,0.1,0.1,0.1,0.1,0.2c0.2,0.1,0.4,0.2,0.6,0.3c0.2,0.1,0.5,0.2,0.6,0.2c0.7,0.2,1.4,0.7,1.8,1.3
	c0.1,0.2,0.3,0.4,0.4,0.6c0.1-0.2,0.2-0.4,0.4-0.6c0.5-0.6,1.1-1.1,1.8-1.3c0.1,0,0.4-0.1,0.6-0.2C35.6,11.2,35.8,11.1,36,11z
	 M37,11.3c-0.1,0.2-0.2,0.4-0.5,0.5c0,0,0,0,0,0c-0.2,0.1-0.5,0.2-0.7,0.4c-0.3,0.1-0.6,0.2-0.7,0.3c-0.6,0.2-1,0.5-1.4,1
	c-0.3,0.5-0.6,1.1-0.6,1.7v0.7c0,0.1,0,0.1,0,0.2c0,0.1,0,0.2,0,0.2l0,0.1c0.2,0.8,0.6,1.4,1.2,1.8c0.6,0.4,1.3,0.5,2,0.3l0,0
	c1.8-0.5,3.7-1.5,5-3.1c1.1-1.2,1.7-2.8,1.7-4.7c0-0.2,0-0.4,0-0.5c0-0.2,0-0.4,0-0.5c-0.4-2.2-1.6-3.9-3.3-5.1
	c-2.1-1.5-4.8-2.1-7.2-2.1c-2.3,0-5,0.7-7.2,2.1c-1.7,1.2-2.9,2.8-3.3,5.1c0,0.2,0,0.4,0,0.5c0,0.2,0,0.4,0,0.5
	c0,1.9,0.7,3.5,1.7,4.7c1.3,1.5,3.1,2.6,5,3.1l0,0c0.7,0.2,1.4,0,2-0.3c0.6-0.4,1-1,1.2-1.8l0-0.1c0-0.1,0-0.2,0-0.2s0-0.2,0-0.2
	v-0.7c0-0.6-0.3-1.2-0.6-1.7c-0.3-0.4-0.8-0.8-1.4-1c-0.2-0.1-0.5-0.2-0.7-0.3c-0.2-0.1-0.5-0.2-0.7-0.4c0,0,0,0,0,0
	c-0.2-0.1-0.3-0.3-0.5-0.5c-0.1-0.2-0.2-0.4-0.2-0.7c0-0.2,0-0.4,0.1-0.7c0.4-0.8,1.8-1.2,2.4-1.3c0.7-0.2,1.3-0.2,2-0.2
	c0.6,0,1.3,0.1,2,0.2c0.6,0.2,2,0.5,2.4,1.3c0.1,0.2,0.1,0.4,0.1,0.7S37.1,11.1,37,11.3z"/>
</svg>
