<svg xmlns="http://www.w3.org/2000/svg" viewBox="0 0 1000 1000" width="65" height="65"><path d="M574.9 822.4H292.6c-38 0-76.2 1.4-114-1.1-10.9-.7-23.7-5.3-23.9-20.7.5-13.1 13.5-18.1 24.3-18.2 131.1-1.3 262.3-2.1 393.4.2 36.2.6 51.7-12.6 58.8-46.1 14.5-68.4 7.4-132.6-29.2-193-11.2-18.4-24.5-19.6-46.7-21.5-63.3-5.5-80.3 37.9-103.2 79.3-20 36.1-20.7 35.7-63.8 20.2-4.7 6.4-10.8 12.9-14.7 20.5-11.2 22.2-25.9 27.4-47.4 13.3-15.3-10-31.7-18.4-47.5-27.7-48.6-28.7-48.6-28.8-23.1-82.8-42-20.7-26.9-47.1-8.4-78 58.4-97.9 115.1-196.8 170.9-296.1 15.7-27.9 30.9-47 66.4-20.9 12.1-20.1 22.6-37.5 32.6-54.1-2.3-4.3-2.9-7.3-4.8-8.7-19.5-15.1-46.2-28.9-26.7-59.2 20-31.1 44.9-15.4 68.3-1.9 43.2 24.8 86.8 48.7 129.5 74.3 22.6 13.5 55.8 24.4 38.5 60.9-17.2 36.3-45.5 18.1-73.3 4.7-11.2 19.3-21.5 36.8-33.2 57 37.9 19.2 35.2 44 14 73-21.2 29.1-27.7 58.5-17.9 88.5 2.6 8 5 21.1 5.2 22.2 8.2 58.8 44.4 86.1 65.9 134.9 54.3 123.5 34.9 237.5-49.9 341.3-7.9 9.7-16.4 18.9-30.1 34.7 77.9 0 251.3-.7 321.4.3 27.2.4 65.2-9.2 66.1 34.4 1 47.5-39.2 36.6-67.2 36.6-212.5.7-632.5.4-844.9.3-7.9 0-15.7-.2-23.6-.1-25.5.6-45.4-6.9-44.4-36.7 1-26.8 19.3-34.4 43.3-34.4 78.7.2 261.7.1 340.4.1 60.1 0 112.5-20.8 159-58.4 10.1-8.2 13.8-14.1 22.8-22.9 5.3-4.2 1.8-14.2-.6-14.2zM459 184.6c-62.7 109.2-122.4 212.9-183.2 318.8 26.6 15.6 47.9 28.2 69.4 40.5 22.2 12.7 44.6 25.1 68.1 38.2 23.7-40.4 54-68.3 23-121.3-32.3-55.2 16.4-133.1 78.9-131.5 50.4 1.3 64.5-26.4 79.9-65.5-43.7-25.4-87.5-50.9-136.1-79.2zm128.9 242.1c-.1-31.4-29.8-59.9-61.4-58.7-30.6 1.1-57.3 28.7-57 59 .2 30.3 26.9 57.2 57.6 58.1 32.8 1 60.9-25.9 60.8-58.4zm-10.5-223.2c12.2-21.9 22.5-40.4 33.7-60.4-19.8-11.6-35.2-20.6-53.3-31.2-12.1 20.9-22.9 39.6-35.1 60.6 19.1 10.8 35.5 20.1 54.7 31z" fill="#fff"/></svg>