<svg version="1.1" id="Слой_1" xmlns="http://www.w3.org/2000/svg" x="0" y="0" width="65" height="65" xml:space="preserve"><style>.st0{fill:#fff;stroke:#fff;stroke-miterlimit:10}</style><path class="st0" d="M43 62.5H22c-.5 0-.9-.4-.9-.9V18.4c0-.5.4-.9.9-.9h21c.5 0 .9.4.9.9v8.8c0 .5-.4.9-.9.9s-.9-.4-.9-.9v-8H22.9v41.5h19.2v-2.5c0-.5.4-.9.9-.9s.9.4.9.9v3.3c-.1.6-.5 1-.9 1zm0-5.5c-.5 0-.9-.4-.9-.9v-1.5c0-.5.4-.9.9-.9s.9.4.9.9v1.5c-.1.5-.5.9-.9.9zm0-4c-.5 0-.9-.4-.9-.9V30c0-.5.4-.9.9-.9s.9.4.9.9v22.2c-.1.5-.5.8-.9.8z"/><path class="st0" d="M43 19.3H22c-.3 0-.5-.1-.7-.3-.2-.2-.2-.5-.1-.7l3.1-11.7c.1-.4.4-.6.8-.6h14.7c.4 0 .7.3.8.6l3.1 11.7c.1.3 0 .5-.1.7-.1.2-.4.3-.6.3zm-19.8-1.7h18.7l-2.7-10H25.8l-2.6 10z"/><path class="st0" d="M39.8 7.6H25.2c-.5 0-.9-.4-.9-.9V3.4c0-.5.4-.9.9-.9h14.6c.5 0 .9.4.9.9v3.3c0 .5-.4.9-.9.9zM26.1 5.8H39V4.2H26.1v1.6z"/></svg>