<svg id="Layer_5" height="65" viewBox="0 0 64 64" width="65" xmlns="http://www.w3.org/2000/svg"><path d="M57.659 26H54v-1c0-1.654-1.346-3-3-3h-1v-6.142c1.721-.447 3-2 3-3.858 0-2.206-1.794-4-4-4H31v8h5v.171a5.791 5.791 0 01-1.707 4.122l1.414 1.414A7.777 7.777 0 0038 16.171V16h4v6h-1c-1.654 0-3 1.346-3 3v1h-3.659l-3.378 7.881L36.163 63h19.674l5.2-29.119zM51 12c0 1.103-.897 2-2 2H37v-4h12c1.103 0 2 .897 2 2zm-18-2h2v4h-2zm11 6h4v6h-4zm-4 9c0-.551.448-1 1-1h10c.552 0 1 .449 1 1v1H40zm-4.341 3h20.682l2.622 6.119-.218 1.222A5.988 5.988 0 0054 33a5.914 5.914 0 00-4 1.544C48.908 33.552 47.501 33 46 33s-2.908.552-4 1.544A5.914 5.914 0 0038 33c-1.931 0-3.646.92-4.745 2.341l-.218-1.222zM43 36.413c.765-.89 1.833-1.413 3-1.413s2.235.523 3 1.413V61h-6zm-9 3.098V39c0-2.206 1.794-4 4-4 1.167 0 2.235.523 3 1.413V61h-3.163zM54.163 61H51V36.413c.765-.89 1.833-1.413 3-1.413 2.206 0 4 1.794 4 4v.511zM26.657 15H29v-2h-2.343c-2.574 0-5.101.7-7.308 2.024l-.622.374.162.708c.209.91.242 1.944-.914 3.338-.863 1.04-2.023 1.61-3.166 1.552a3.994 3.994 0 01-3.81-3.946l.02-.447a3.953 3.953 0 01.78-2.002l-1.6-1.201A5.945 5.945 0 009.081 16c-1.25.005-2.398-.514-3.181-1.468-.774-.947-1.064-2.146-.815-3.376a3.975 3.975 0 013.072-3.069 4.099 4.099 0 011.651-.004l.095.02A3.974 3.974 0 0112.198 9.6l1.598-1.203a5.982 5.982 0 00-2.746-2.039 3.992 3.992 0 013.759-3.352c1.14-.061 2.303.512 3.166 1.551.689.832.956 1.535 1.015 2.16a3.765 3.765 0 01-.101 1.178l-.065.285A3.974 3.974 0 0118.2 9.4l1.6 1.201c.246-.328.456-.676.629-1.04A14.204 14.204 0 0026.657 11H29V9h-2.343c-1.984 0-3.937-.484-5.686-1.406A6.006 6.006 0 0015 1v.001c-.093.002-.189.001-.284.005A5.992 5.992 0 009.082 6a6.169 6.169 0 00-1.322.126c-2.308.47-4.17 2.332-4.635 4.633a6.033 6.033 0 001.229 5.038c1.162 1.421 2.89 2.208 4.729 2.203a5.99 5.99 0 005.879 4.999c1.697 0 3.345-.821 4.554-2.278 1.146-1.381 1.616-2.769 1.451-4.312A12.19 12.19 0 0126.657 15zm-1.183 5.501l1.732.999a8.921 8.921 0 012.395-2.7L28.4 17.2a10.933 10.933 0 00-2.926 3.301z" fill="#fff"/><path d="M14 16h2v2h-2zm-7-5h2v2H7z" fill="#fff"/></svg>