<svg xmlns="http://www.w3.org/2000/svg" viewBox="0 0 1000 1000" width="65" height="65"><path d="M143 470.5h328.4V142.1H143v328.4zm51.1-277.3h226.1v226.1H194.1V193.2z" fill="#fff"/><path d="M248.3 247.4h117.8v117.8H248.3V247.4zm605.9-105.3H525.8v328.4h328.4V142.1zm-51.1 277.3H576.9V193.2H803v226.2z" fill="#fff"/><path d="M631.1 247.4h117.8v117.8H631.1V247.4zM143 852h328.4V523.6H143V852zm51.1-277.2h226.1v226.1H194.1V574.8z" fill="#fff"/><path d="M248.3 629h117.8v117.8H248.3V629zm406.9 74.8v-57.1h57.1v-58.6h-57.1V531h-58.6v57.1h-57.1v58.6h57.1v57.1h58.6zm180.2 7.3h-57.1V654h-58.6v57.1h-57.1v58.6h57.1v57.1h58.6v-57.1h57.1v-58.6z" fill="#fff"/><path d="M850 667.8V539h-4.4v-15.3H716.7v58.6h74.7v85.6H850zm-261.4 37.4H530v128.9h133.3v-58.6h-74.7v-70.3zM30.5 214.4c10.6 0 19.2-8.6 19.2-19.2V56.7h127.8c10.6 0 19.2-8.6 19.2-19.2s-8.6-19.2-19.2-19.2h-147C20 18.4 11.4 27 11.4 37.6v157.7c0 10.5 8.6 19.1 19.1 19.1zm940.3-196h-147c-10.6 0-19.2 8.6-19.2 19.2s8.6 19.2 19.2 19.2h127.8v138.5c0 10.6 8.6 19.2 19.2 19.2s19.2-8.6 19.2-19.2V37.6c0-10.6-8.6-19.2-19.2-19.2zM176.2 943.3H48.3V804.8c0-10.6-8.6-19.2-19.2-19.2S10 794.2 10 804.8v157.7c0 10.6 8.6 19.2 19.2 19.2h147c10.6 0 19.2-8.6 19.2-19.2s-8.6-19.2-19.2-19.2zm794.6-157.7c-10.6 0-19.2 8.6-19.2 19.2v138.5H823.8c-10.6 0-19.2 8.6-19.2 19.2s8.6 19.2 19.2 19.2h147c10.6 0 19.2-8.6 19.2-19.2V804.8c0-10.6-8.6-19.2-19.2-19.2z" fill="#fff"/></svg>