<svg id="Capa_1" viewBox="0 0 510.303 510.303" width="65" height="65" xmlns="http://www.w3.org/2000/svg"><path d="M504.712 321.297c.652-5.335.237-9.567.053-10.993-.173-2.931-1.563-16.937-12.514-30.739-19.423-24.477-53.565-29.615-78.785-29.615-28.189 0-65.619-13.982-111.247-41.558-37.295-22.539-69.98-48.195-86.145-61.482a15.073 15.073 0 00-1.699-1.203l-33.98-23.396a21.306 21.306 0 00-19.293-2.477c-6.477 2.343-11.254 7.475-13.108 14.079-4.099 14.605-5.331 35.621 9.599 56.545-15.332 6.935-37.039 11.758-67.78 11.758-9.652 0-12.572-5.59-16.931-18.346-2.783-8.141-5.937-17.368-14.77-20.329-6.92-2.318-15.2.02-26.056 7.364-6.738 4.558-12.494 11.444-17.108 20.467a7.5 7.5 0 1013.355 6.829c3.449-6.745 7.539-11.748 12.157-14.872 9.498-6.424 12.565-5.672 12.885-5.566 1.803.605 3.933 6.835 5.342 10.957 3.878 11.347 9.739 28.495 31.125 28.495 37.685 0 67.301-7.054 88.024-20.965 18.148-12.183 25.733-27.11 28.901-37.59l.058.04a801.472 801.472 0 0016.545 13.213c-4.845 13.463-14.682 23.567-14.792 23.678a7.5 7.5 0 0010.656 10.557c.501-.505 10.237-10.428 16.511-24.793a819.317 819.317 0 0013.335 9.777c-2.774 9.965-8.751 18.528-12.15 22.826a7.5 7.5 0 0011.765 9.305c4.287-5.421 9.693-13.475 13.228-23.107a713.64 713.64 0 0014.157 9.49c-2.14 7.853-6.275 14.804-9.427 19.311a7.5 7.5 0 1012.291 8.597c4.527-6.471 7.945-13.035 10.236-19.578a594.935 594.935 0 005.31 3.252 544.38 544.38 0 0010.462 6.162 7.498 7.498 0 00-.463 1.302c-1.342 5.33-3.766 10.857-7.204 16.429a7.5 7.5 0 0012.764 7.88c3.736-6.053 6.524-12.158 8.31-18.182 37.53 20.002 69.458 30.13 95.137 30.13 73.78 0 76.258 44.382 76.326 46.217l.009.464.078.526c.018.117 1.676 11.802-5.036 19.594-4.483 5.205-12.046 7.843-22.48 7.843H257.89c-17.634 0-34.626-4.266-49.387-12.362a7.488 7.488 0 00-.079-1.775c-3.852-22.801-15.71-43.667-33.39-58.755-17.884-15.261-40.698-23.666-64.24-23.666H16.818c.678-6.087 1.576-12.131 2.754-17.962a7.5 7.5 0 00-14.703-2.971c-6.382 31.591-5.118 68.534-3.793 87.783-.006.167-.015.334-.01.503l.898 29.729c.876 28.942 24.243 51.614 53.198 51.614h176.861a7.5 7.5 0 000-15H55.163c-20.795 0-37.577-16.282-38.205-37.067l-.381-12.604c1.264.21 2.567.302 3.9.247 16.57-.68 52.754-1.82 108.919-1.82 38.736 0 58.489 6.963 68.239 12.805 17.799 10.664 38.635 16.301 60.254 16.301h204.475c14.401 0 25.462-4.058 32.924-12.048.103 8.69-3.614 17.267-10.728 23.22l-4.788 4.007a29.898 29.898 0 01-19.156 6.958H262.025c-4.143 0-7.5 3.358-7.5 7.5s3.357 7.5 7.5 7.5h198.592a44.915 44.915 0 0028.783-10.456l4.788-4.007c16.564-13.861 20.873-37.198 10.524-55.97zm-312.271-167.18c-2.501 8.415-8.314 19.502-21.689 28.91-12.478-16.684-11.566-33.479-8.315-45.061.529-1.884 1.902-3.352 3.768-4.027a6.191 6.191 0 015.684.726l22.453 15.459a14.83 14.83 0 00-1.901 3.993zM19.862 312.323c-2.013.077-3.68-1.416-3.817-3.409-.823-11.913-1.626-30.887-.477-50.876h95.226c38.071 0 70.716 25.169 80.818 61.008-15.796-5.68-36.631-8.556-62.215-8.556-56.434 0-92.85 1.148-109.535 1.833z" fill="#fff"/></svg>