<svg height="65" viewBox="-60 0 512 512" width="65" xmlns="http://www.w3.org/2000/svg"><path d="M196.266 0C122.938.008 55.73 40.895 22.008 106.012c-33.723 65.117-28.332 143.597 13.976 203.492C14.598 316.195.027 335.992 0 358.398v102.403C.027 489.066 22.934 511.973 51.2 512h290.132c28.266-.027 51.172-22.934 51.203-51.2V358.399c-.031-22.406-14.601-42.203-35.988-48.894 42.308-59.895 47.7-138.375 13.98-203.492C336.805 40.895 269.597.008 196.266 0zm0 17.066c68.664-.027 131.3 39.2 161.257 100.985 29.954 61.785 21.957 135.258-20.593 189.148h-61.442c48.352-34.465 68.887-96.226 50.793-152.781-18.094-56.555-70.664-94.93-130.039-94.93-59.379 0-111.949 38.375-130.043 94.93-18.09 56.555 2.442 118.316 50.793 152.781H55.551C12.996 253.301 5.004 179.816 34.973 118.027c29.965-61.789 92.62-101.007 161.293-100.96zM152.106 307.2C98.855 286.016 68.147 230 78.933 173.715c10.785-56.29 60.023-96.988 117.332-96.988 57.312 0 106.547 40.699 117.332 96.988 10.785 56.285-19.918 112.3-73.172 133.484zm223.359 110.934H17.066v-17.067h358.399zm-34.133 76.8H51.199c-15.515-.058-29.043-10.574-32.922-25.601h246.258a8.532 8.532 0 008.531-8.531 8.533 8.533 0 00-8.53-8.535H17.065V435.2h358.399v17.067h-76.797a8.534 8.534 0 100 17.066h75.586c-3.879 15.027-17.402 25.543-32.922 25.602zm32.922-145.066h-254.79a8.532 8.532 0 00-8.53 8.531 8.533 8.533 0 008.53 8.536h256V384H17.067v-17.066h68.266a8.534 8.534 0 100-17.067H18.277c3.88-15.023 17.407-25.543 32.922-25.601h290.133c15.52.058 29.043 10.578 32.922 25.601zm0 0" fill="#fff"/><path d="M274.629 262.059a102.514 102.514 0 0017.484-30.07v-.051c.13-.223.13-.473.239-.704a100.489 100.489 0 000-69.972c-.11-.23-.11-.477-.239-.7a102.554 102.554 0 00-78.695-65.132h-.086a95.452 95.452 0 00-34.133 0h-.086a102.55 102.55 0 00-78.691 65.133c-.129.222-.129.468-.242.699a100.533 100.533 0 000 69.972c.113.23.113.48.242.704v.05a102.428 102.428 0 0017.484 30.07 8.687 8.687 0 001.477 1.622 102.236 102.236 0 0059.73 33.433h.086a95.452 95.452 0 0034.133 0h.086a102.257 102.257 0 0059.734-33.433 8.687 8.687 0 001.477-1.621zm-156.082-30.72l43.586-25.218 1.945 1.121a33.959 33.959 0 006.59 11.363v2.204l-43.574 25.222a85.015 85.015 0 01-8.547-14.726zm-7.613-35.073a85.407 85.407 0 012.082-18.524l32.05 18.524-32.086 18.527a85.407 85.407 0 01-2.046-18.527zm16.16-49.766l43.574 25.227v2.199a33.944 33.944 0 00-6.563 11.367l-1.972 1.117-43.613-25.18a85.04 85.04 0 018.574-14.73zm146.894 14.73l-43.59 25.18-1.945-1.117a33.966 33.966 0 00-6.586-11.367v-2.2l43.57-25.226a85.214 85.214 0 018.551 14.73zm7.614 35.036a85.686 85.686 0 01-2.082 18.527l-32.055-18.527 32.086-18.524a85.646 85.646 0 012.05 18.524zm-102.403 0c0-9.426 7.64-17.067 17.067-17.067s17.066 7.64 17.066 17.067-7.64 17.066-17.066 17.066-17.067-7.64-17.067-17.066zm42.668-44.27v-37.129a85.244 85.244 0 0131.992 18.621zm-83.191-18.508a85.214 85.214 0 0131.992-18.62v37.128zm31.992 107.051v37.129a85.214 85.214 0 01-31.992-18.621zm51.2-19.73v-2.204a33.955 33.955 0 006.562-11.363l1.968-1.12 43.618 25.183a85.208 85.208 0 01-8.536 14.726zm31.991 38.238a85.244 85.244 0 01-31.992 18.621v-37.129zm-49.058-147.68v50.512l-1.656.953a34.179 34.179 0 00-13.766 0l-1.645-.953v-50.512a84.184 84.184 0 0117.067 0zm-17.067 169.817v-50.528l1.657-.957a34.16 34.16 0 0013.761 0l1.649.957v50.508a83.622 83.622 0 01-17.067 0zM68.266 110.934a8.538 8.538 0 006.828-3.414 159.454 159.454 0 0150.672-41.668 8.534 8.534 0 10-8.153-14.993 176.305 176.305 0 00-56.172 46.422 8.525 8.525 0 00-.808 8.934 8.538 8.538 0 007.633 4.719zm93.867-68.266c0 4.71-3.82 8.531-8.531 8.531a8.533 8.533 0 110-17.066c4.71 0 8.53 3.82 8.53 8.535zm0 0" fill="#fff"/></svg>