<svg version="1.1" id="Capa_1" xmlns="http://www.w3.org/2000/svg" x="0" y="0" viewBox="0 0 512.002 512.002" width="65" height="65" xml:space="preserve"><path d="M396.001 132.002h-10v-56c0-5.523-4.478-10-10-10h-96c-5.523 0-10 4.477-10 10v13.563h-28V76.002c0-5.523-4.477-10-10-10h-38V10c0-5.523-4.477-10-10-10h-48c-5.523 0-10 4.477-10 10v122.002h-10c-5.523 0-10 4.477-10 10v360c0 5.523 4.477 10 10 10h280c5.522 0 10-4.477 10-10v-360c0-5.523-4.478-10-10-10zm-58-46h28v46h-28v-46zm-48 0h28v46h-28v-46zm-48 23.562h28v22.438h-28v-22.438zm-48-23.562h28v46h-28v-46zm150.279 66c-4.127 11.639-15.243 20-28.279 20h-120c-13.036 0-24.152-8.361-28.28-20H344.28zM146.001 20h28v112.002h-28V20zm240 472.002h-260V336.888l130-75.056 130 75.056v155.114zm0-178.208l-125-72.169c-.077-.044-.156-.078-.234-.12-.18-.097-.359-.192-.544-.278-.14-.065-.28-.123-.421-.181a9.168 9.168 0 00-.461-.18 9.431 9.431 0 00-.51-.163 9.657 9.657 0 00-.403-.113 9.706 9.706 0 00-.552-.12 8.943 8.943 0 00-.941-.134 10.848 10.848 0 00-.44-.033 10.095 10.095 0 00-.492-.011 9.365 9.365 0 00-.932.043c-.184.017-.367.038-.551.065-.131.02-.26.043-.39.068-.188.036-.374.075-.561.122-.132.033-.263.071-.394.109-.174.052-.347.105-.519.166-.152.054-.301.115-.45.176-.144.06-.288.118-.431.185-.18.084-.355.177-.531.272-.08.044-.164.079-.244.125l-125 72.169v-161.79h21.005c4.647 22.794 24.85 40 48.996 40h120c24.146 0 44.35-17.206 48.995-40h21.005v161.792z" fill="#fff"/><path d="M221.236 451.815H221c-5.523 0-10 4.477-10 10s4.477 10 10 10h.236c5.523 0 10-4.477 10-10 0-5.522-4.477-10-10-10zm69.765-.001h-41.034c-5.523 0-10 4.477-10 10s4.477 10 10 10h41.034c5.522 0 10-4.477 10-10s-4.478-10-10-10z" fill="#fff"/></svg>