<svg xmlns="http://www.w3.org/2000/svg" width="65" height="65"><style>.st0{fill:#fff;stroke:#fff;stroke-width:.75;stroke-miterlimit:10}</style><g id="Layer_2"><g id="bottle"><path class="st0" d="M37.1 60.7h-.2c-.5 0-.9.4-.9.9s.4.9.9.9h.2c.5 0 .9-.4.9-.9s-.4-.9-.9-.9z"/><path class="st0" d="M41.6 28c0-.1 0-.1 0 0v-.2L39.8 20c-.1-.5-.6-.8-1.1-.7-.5.1-.8.6-.7 1.1l1.5 6.7H28.4c-.5 0-.9.4-.9.9s.4.9.9.9h11.4v22.5H25.2V28.9h.9c.5 0 .9-.4.9-.9s-.4-.9-.9-.9h-.7l3.4-15.2h7.3l.8 3.3c.1.5.6.8 1.1.7.5-.1.8-.6.7-1.1l-.9-4c-.1-.4-.4-.7-.9-.7h-8.7c-.4 0-.8.3-.9.7l-3.8 16.9v33.8c0 .5.4.9.9.9h10.4c.5 0 .9-.4.9-.9s-.4-.9-.9-.9h-9.5V53H40v7.6h-.5c-.5 0-.9.4-.9.9s.4.9.9.9h1.4c.5 0 .9-.4.9-.9L41.6 28z"/><path class="st0" d="M38.1 16.5c-.5.1-.8.6-.7 1.1l.2.7c.1.4.5.7.9.7h.2c.5-.1.8-.6.7-1.1l-.2-.7c-.1-.5-.6-.8-1.1-.7zm-9.8-9.3h8.5c.5 0 .9-.4.9-.9V5c0-1.4-1.1-2.5-2.5-2.5h-5.3c-1.4 0-2.5 1.1-2.5 2.5v1.4c0 .4.4.8.9.8zm.9-2.2c0-.4.3-.7.7-.7h5.3c.4 0 .7.3.7.7v.5h-6.7V5zm1.1 2.7c-.5 0-.9.4-.9.9s.4.9.9.9H37c.5 0 .9-.4.9-.9s-.4-.9-.9-.9h-6.7zM28 9.4h.3c.5 0 .9-.4.9-.9s-.4-.9-.9-.9H28c-.5 0-.9.4-.9.9s.4.9.9.9z"/></g></g></svg>