<svg width="384" height="384" fill="none" xmlns="http://www.w3.org/2000/svg"><path fill-rule="evenodd" clip-rule="evenodd" d="M384 192c0 106.041-85.959 192-192 192C85.962 384 0 298.041 0 192 0 85.962 85.962 0 192 0c106.041 0 192 85.962 192 192Z" fill="#EA5150"/><path fill-rule="evenodd" clip-rule="evenodd" d="M69 249.958 203.023 384c97.192-5.413 175.081-83.025 180.977-180.1L254.122 74 69 249.958Z" fill="#C74544"/><path fill-rule="evenodd" clip-rule="evenodd" d="M174.955 70.794 122 123.746 198.254 200l52.954-52.952c21.056-21.058 21.056-55.198 0-76.254-21.058-21.059-55.198-21.059-76.253 0Z" fill="#FFED33"/><path fill-rule="evenodd" clip-rule="evenodd" d="M70.805 174.879c-21.073 21.076-21.073 55.241 0 76.316 21.073 21.073 55.245 21.073 76.318 0L198 200.317 121.685 124l-50.88 50.879Z" fill="#FEF6E4"/><path fill-rule="evenodd" clip-rule="evenodd" d="m186 188.043 50.13-49.886c21.124-21.022 21.124-55.108 0-76.133-1.082-1.074-2.218-2.058-3.363-3.024a53.903 53.903 0 0 1 18.389 11.996c21.125 21.025 21.125 55.111 0 76.133L198.027 200 186 188.043Z" fill="#FAC900"/><path fill-rule="evenodd" clip-rule="evenodd" d="m185.986 188-53.938 54.109C116.354 257.855 93.413 261.866 74 254.19c21.23 18.03 53.035 17.039 73.058-3.047L198 200.04 185.986 188Z" fill="#EEE4CF"/><path fill-rule="evenodd" clip-rule="evenodd" d="M210.786 204.786c-21.048 21.045-21.048 55.169 0 76.214L287 204.786c-21.045-21.048-55.169-21.048-76.214 0Z" fill="#FEF6E4"/><path fill-rule="evenodd" clip-rule="evenodd" d="M287.215 281.216c21.048-21.046 21.045-55.17 0-76.216L211 281.216c21.046 21.045 55.169 21.045 76.215 0Z" fill="#D5CBB6"/><path fill-rule="evenodd" clip-rule="evenodd" d="M217.211 211.211c-17.615 17.613-17.615 46.174 0 63.789L281 211.211c-17.615-17.615-46.176-17.615-63.789 0Z" fill="#EEE4CF"/><path fill-rule="evenodd" clip-rule="evenodd" d="M280.789 274.789c17.615-17.613 17.615-46.174 0-63.789L217 274.789c17.615 17.615 46.176 17.615 63.789 0Z" fill="#EEE4CF"/><path fill-rule="evenodd" clip-rule="evenodd" d="m211 281 .633-13.298 62.069-62.069L287 205l-76 76Z" fill="#D5CBB6"/><path fill-rule="evenodd" clip-rule="evenodd" d="m211 281 76-76-.633 13.298-62.069 62.069L211 281Z" fill="#FEF6E4"/></svg>