<svg width="45" height="44" fill="none" xmlns="http://www.w3.org/2000/svg"><path clip-rule="evenodd" d="M10 11c2.331 0 4-1.633 4-4V5c0-2.367-1.669-4-4-4S6 2.633 6 5v2c0 2.367 1.669 4 4 4Z" stroke="#EF3F6B" stroke-width="2"/><path d="M18 18.667v-.945C18 14.602 12.781 13 9.5 13 6.219 13 1 14.603 1 17.722v8.5C1 28.06 2.737 30 4.778 30M14 44V29.714c2.161 0 4-1.957 4-3.81V24M5.5 20v24m4-14v14" stroke="#EF3F6B" stroke-width="2"/><path clip-rule="evenodd" d="M35 11c2.331 0 4-1.633 4-4V5c0-2.367-1.669-4-4-4s-4 1.633-4 4v2c0 2.367 1.669 4 4 4Z" stroke="#EF3F6B" stroke-width="2"/><path d="M39.5 44V20M27 24v1.905c0 1.852 1.839 3.81 4 3.81V44m9.222-14C42.263 30 44 28.06 44 26.222v-8.5C44 14.602 38.781 13 35.5 13c-3.281 0-8.5 1.603-8.5 4.722v.945M35.5 30v14M14 18l-4 4 4 4" stroke="#EF3F6B" stroke-width="2"/><path d="m31 18 4 4-4 4M9 21.5h9m18 0h-9m-8 0h2m3 0h2" stroke="#EF3F6B" stroke-width="2"/></svg>