<svg width="56" height="44" fill="none" xmlns="http://www.w3.org/2000/svg"><path d="M10 13V9.4C10 4.287 18.18 1 27.5 1S45 4.287 45 9.4V13M14 26c0-2.663 6.319-5 14-5 7.682 0 14 2.337 14 5" stroke="#EF3F6B" stroke-width="2"/><path clip-rule="evenodd" d="M42.087 32.615V18.77c0-3.725 2.89-5.769 6.456-5.769C52.11 13 55 15.043 55 18.77c0 4.615-3.522 5.768-3.522 10.384V43h-8.217l-1.174-2.308H13.913L12.739 43H4.522V29.154C4.522 24.538 1 23.384 1 18.769 1 15.044 3.89 13 7.457 13c3.565 0 6.456 2.043 6.456 5.77v13.845h28.174Z" stroke="#EF3F6B" stroke-width="2"/></svg>