<svg width="32" height="32" fill="none" xmlns="http://www.w3.org/2000/svg"><path fill-rule="evenodd" clip-rule="evenodd" d="M27.52 29.535H4.032c-.54 0-.979-.456-.979-1.018V13.249h3.915c-.51.764-.682 2.188-.682 3.092 0 5.45 4.274 9.885 9.527 9.885 5.253 0 9.527-4.435 9.527-9.885 0-.904-.123-2.307-.756-3.092H28.5v15.268c0 .562-.438 1.018-.979 1.018ZM16.285 10.196a6.107 6.107 0 1 1 0 12.214 6.107 6.107 0 0 1 0-12.214Zm7.125-6.107h3.053c.562 0 1.018.456 1.018 1.018V8.16c0 .562-.456 1.018-1.018 1.018H23.41a1.018 1.018 0 0 1-1.018-1.018V5.107c0-.562.456-1.018 1.018-1.018ZM27.802.018H3.75A3.746 3.746 0 0 0 0 3.76v24.068a3.746 3.746 0 0 0 3.75 3.742h24.052a3.746 3.746 0 0 0 3.75-3.742V3.76a3.746 3.746 0 0 0-3.75-3.742Z" fill="#6567B0"/></svg>