<svg width="384" height="384" fill="none" xmlns="http://www.w3.org/2000/svg"><mask id="a" style="mask-type:alpha" maskUnits="userSpaceOnUse" x="0" y="0" width="384" height="384"><path fill-rule="evenodd" clip-rule="evenodd" d="M0 0h384v384H0V0Z" fill="#fff"/></mask><g mask="url(#a)"><path fill-rule="evenodd" clip-rule="evenodd" d="M384 192c0 106.039-85.961 192-192 192S0 298.039 0 192C0 85.962 85.961 0 192 0s192 85.962 192 192Z" fill="#F3E3EF"/></g><path fill-rule="evenodd" clip-rule="evenodd" d="M361.329 244.557c-3.094-9.719-6.018-18.899-10.341-30.318-5.612-14.821-7.777-23.779-9.358-30.32-.781-3.231-1.455-6.022-2.344-8.722-2.231-6.778-11.996-9.759-20.611-12.39l-.09-.027c-.6-.298-1.225-.593-1.863-.88-1.79-1.542-3.989-3.507-6.526-5.775-8.27-7.393-19.597-17.517-31.19-25.944C264.952 119.966 254.322 115 246.508 115c-1.15 0-2.251.112-3.273.332-6.255 1.35-19.622 10.92-31.784 22.756-6.59 6.413-21.819 22.366-23.257 34.08a44.595 44.595 0 0 0-.281-.147l-1.913-.976.326 2.123c.014.088 1.369 8.83 3.767 18.614-1.737 4.649-3.449 12.076-2.095 21.565.55 3.844.982 7.487 1.4 11.009 1.409 11.889 2.423 15.869 6.334 19.223.264.227 1.45 12.447 3.566 16.556 1.706 3.314 7.705 8.913 13.466 14.348l1.248 1.179c1.08 1.394 2.449 3.002 4.07 4.782 2.244 2.463 4.096 4.224 5.507 5.235 1.621 2.052 3.662 3.18 5.764 3.18.631 0 1.253-.102 1.855-.304 1.177.784 2.398 1.277 3.565 1.434a7.676 7.676 0 0 0 1.656.188c2.199 0 4.028-1.035 5.292-2.992 1.342-2.08 2.023-5.184 2.023-9.225 0-5.917-1.192-11.347-2.229-14.952.858-3.413.882-7.594.07-12.434-1.737-10.346-6.247-13.041-9.871-15.207-1.303-.779-2.465-1.474-3.309-2.445 8.461-3.971 16.012-9.69 23.047-17.45l3.392-4.13c-.089-1.951 0 0 0 0 .181 3.93.372 7.957.633 11.771-4.055 21.338 1.578 38.3 9.184 59.91 6.382 18.135 19.645 37.025 30.462 51.176A314.173 314.173 0 0 0 305.458 347c27.777-20.29 49.894-47.87 63.542-79.926l-.753-1.405c-2.717-7.918-4.852-14.625-6.918-21.112Z" fill="#E39F72"/><path fill-rule="evenodd" clip-rule="evenodd" d="M207.752 230.005s-4.43-.411-4.724 6.194c-.293 6.604 1.714 22.77 4.724 26.475 3.01 3.704 15.754 15.455 19.399 20.783 4.482 6.552 14.849 10.058 14.849-5.638 0-10.768-4.114-22.574-7.836-26.952-3.722-4.378-26.412-20.862-26.412-20.862Z" fill="#EFB993"/><path fill-rule="evenodd" clip-rule="evenodd" d="M368 268.996c-7.529-21.71-10.719-34.534-18.187-54.342-8.344-22.127-9.011-30.982-11.681-39.127-2.67-8.145-18.216-10.68-26.629-13.938-8.412-3.259-37.595-6.835-40.408 1.77-2.814 8.605-8.095 61.766-8.095 61.766s3.43 24.34 10.537 49.833c9.35 33.536 31.895 45.22 43.242 57.961.941 1.056 2.166 1.736 3.613 2.081 20.218-18.208 36.555-40.677 47.608-66.004Zm-160.243-38.991s-4.435-.412-4.729 6.208c-.293 6.619 1.716 22.821 4.729 26.534 3.013 3.713 16.358 16.079 20.006 21.419 4.487 6.566 13.237 8.42 13.237-7.311 0-10.793-4.692-21.986-8.418-26.374-3.726-4.388-24.825-20.476-24.825-20.476Z" fill="#FCCCA1"/><path fill-rule="evenodd" clip-rule="evenodd" d="M368 268.894c-8.106-15.298-16.798-29.302-22.166-43.503-8.37-22.142-14.316-42.988-16.994-51.138-2.678-8.151-18.174-13.824-28.311-15.883-8.865-1.8-27.16-3.248-29.983 5.363-2.822 8.61-9.542 69.069-9.542 69.069s-.331 24.751 5.437 48.079c5.309 21.463 23.393 47.222 39.463 66.119 26.986-19.985 48.556-46.892 62.096-78.106Z" fill="#FDD6B0"/><path fill-rule="evenodd" clip-rule="evenodd" d="M218 216.724 221.359 235c12.08-4.184 26.986-17.613 34.641-28.807L241.496 195 218 216.724Z" fill="#E39F72"/><path fill-rule="evenodd" clip-rule="evenodd" d="M200.817 228.005s-4.482-.41-4.779 6.182c-.297 6.591 1.173 21.349 3.43 25.568 3.043 5.688 20.325 19.582 24.012 24.9 4.535 6.539 12.52 3.518 12.52-9.3 0-10.747-4.696-22.158-8.461-26.528-3.766-4.37-26.722-20.822-26.722-20.822Z" fill="#EFB993"/><path fill-rule="evenodd" clip-rule="evenodd" d="M200.757 228.005s-4.435-.412-4.729 6.208c-.293 6.619 1.716 22.821 4.729 26.534 3.013 3.713 16.358 16.079 20.006 21.418 4.487 6.567 13.237 8.421 13.237-7.31 0-10.793-4.692-21.986-8.418-26.374-3.725-4.388-24.825-20.476-24.825-20.476Z" fill="#FCCCA1"/><path fill-rule="evenodd" clip-rule="evenodd" d="M201.701 228.005s-4.383-.409-4.673 6.172c-.29 6.581 1.695 22.689 4.673 26.38 2.977 3.692 16.165 15.986 19.771 21.294 4.434 6.529 9.451 6.608 8.382-8.994-1.08-15.756-8.715-21.425-12.397-25.787-3.682-4.363-15.756-19.065-15.756-19.065Z" fill="#FDD6B0"/><path fill-rule="evenodd" clip-rule="evenodd" d="M207.636 224.35c-5.704 1.69-19.386 9.035-12.953 17.736 6.434 8.702 30.179 30.568 36.231 29.899 6.051-.669 12.002-6.13 9.5-20.859-2.503-14.728-10.791-13.034-13.787-18.08-2.996-5.045-12.933-10.491-18.991-8.696Z" fill="#EFB993"/><path fill-rule="evenodd" clip-rule="evenodd" d="M193.164 187s-7.029 9.977-4.686 26.273c2.343 16.297 2.949 24.819 7.636 28.81 4.686 3.991 24.498-5.862 25.837-13.844 1.339-7.982-24.96-40.791-28.787-41.239Z" fill="#FDD6B0"/><path fill-rule="evenodd" clip-rule="evenodd" d="M207.893 224.326c-5.611 1.7-18.515 8.416-12.187 17.169 6.329 8.753 28.8 30.163 34.753 29.489 5.953-.673 10.451-5.744 7.726-20.512-2.908-15.762-9.278-11.756-12.225-16.832-2.947-5.075-12.108-11.119-18.067-9.314Z" fill="#FCCCA1"/><path fill-rule="evenodd" clip-rule="evenodd" d="M207.137 224.258c-5.71 1.698-18.84 8.406-12.401 17.147 6.44 8.742 27.527 29.251 33.585 28.579 6.057-.673 7.74-5.486 6.07-20.397-.678-6.052-10.17-8.941-13.168-14.01-2.999-5.069-8.023-13.122-14.086-11.319Z" fill="#FDD6B0"/><path fill-rule="evenodd" clip-rule="evenodd" d="M187 173s4.82 22.188 10.533 36.001c5.714 13.812 8.71 33.879 17.026 31.857 8.316-2.021 17.107-15.79 15.17-25.746C225.533 193.55 187 173 187 173Z" fill="#EFB993"/><path fill-rule="evenodd" clip-rule="evenodd" d="M187 173s3.31 21.911 8.937 35.732c5.627 13.821 9.794 32.137 17.984 30.114 8.191-2.023 13.603-16.395 11.695-26.357C221.484 190.915 187 173 187 173Z" fill="#FDD6B0"/><path fill-rule="evenodd" clip-rule="evenodd" d="M198.001 213.858c1.502-1.459 3.079-3.571 6.458.541 3.38 4.113 8.304 17.851 8.529 21.853.226 4.002-2.801 5.748-2.801 5.748s-5.772-7.698-9.055-16.32c-3.284-8.621-3.131-11.822-3.131-11.822Z" fill="#C73A3F"/><path fill-rule="evenodd" clip-rule="evenodd" d="M205.661 221.732c3.45 4.053 6.088 11.32 6.318 15.264.23 3.944-1.534 5.004-1.534 5.004s-5.891-7.587-9.242-16.084c-3.352-8.497 1.009-8.237 4.458-4.184Z" fill="#EE474C"/><path fill-rule="evenodd" clip-rule="evenodd" d="M212.009 272.174s-.401-3.741 4.232-4.135c4.633-.394 9.66 2.267 10.547 4.731.887 2.464-1.281 8.129-1.577 10.322-.296 2.194-.22 2.908-.22 2.908s-1.501-.122-6.801-5.937c-5.3-5.815-6.181-7.889-6.181-7.889Z" fill="#C73A3F"/><path fill-rule="evenodd" clip-rule="evenodd" d="M212 272.329s.234-1.913 4.739-2.303c4.505-.39 8.13 3.68 8.993 6.116.862 2.436-.605 4.815-.893 6.983-.288 2.169-.215 2.875-.215 2.875s-1.459-.121-6.613-5.871c-5.154-5.749-6.011-7.8-6.011-7.8Z" fill="#EE474C"/><path fill-rule="evenodd" clip-rule="evenodd" d="M211.081 258.489s-.974-4.489 3.838-4.489 6.923 3.352 11.677 7.087c3.879 3.049 3.67 5.721 3.066 8.196-.511 2.096-.959 2.717-.959 2.717s-5.566-1.396-10.859-5.786-6.763-7.725-6.763-7.725Z" fill="#C73A3F"/><path fill-rule="evenodd" clip-rule="evenodd" d="M211.045 258.606s-.771-2.606 4.079-2.606 6.126 3.09 10.919 6.792c3.91 3.022 4.34 4.061 3.732 6.515-.516 2.078-.968 2.693-.968 2.693s-5.61-1.384-10.945-5.736-6.817-7.658-6.817-7.658Z" fill="#EE474C"/><path fill-rule="evenodd" clip-rule="evenodd" d="M316 162.846c-13.958-12.018-53.566-50.674-72.703-46.538-12.317 2.662-52.968 38.483-54.28 56.72-.996 13.836 41.941 21.796 66.494 13.763 24.552-8.034 46.271-21.957 46.271-21.957L316 162.846Z" fill="#FDD6B0"/><path fill-rule="evenodd" clip-rule="evenodd" d="M320.378 214.999c-3.271-.014-7.307-.27-12.699-.807-.483-.048-.971-.098-1.464-.149-4.401-.458-9.251-1.044-14.385-1.664l-.541-.066c-1.47-.177-2.967-.358-4.487-.539l-.803-.096c-.929-.111-1.853-.219-2.785-.329l-.816-.094a746.791 746.791 0 0 0-10.552-1.159l-.788-.08a653.123 653.123 0 0 0-3.131-.306l-.739-.069a451.368 451.368 0 0 0-7.857-.664 419.25 419.25 0 0 0-3.443-.244l-.543-.035a316.384 316.384 0 0 0-9.701-.48l-.264-.008a255.292 255.292 0 0 0-8.005-.14h-.266c-8.559 0-16.498.486-23.595 1.444a258.63 258.63 0 0 1-9.194 1.059c-1.416.14-2.901.276-4.415.407a437.303 437.303 0 0 1-6.935.541 600.464 600.464 0 0 1-12.205.732l-1.312.064c-1.218.06-2.443.117-3.673.171l-.113.005c-2.08.091-4.174.176-6.277.253l-1.331.049a863.684 863.684 0 0 1-6.467.209c-1.693.05-3.384.096-5.071.137l-1.344.033c-.835.02-1.667.04-2.498.057a1212.46 1212.46 0 0 1-7.577.144c-2.528.041-5.026.075-7.481.102l-2.367.025a1656 1656 0 0 1-9.362.064l-3.328.01c-1.092.003-2.166.004-3.222.004h-1.051c-16.513-.003-28.24-.235-28.356-.238l-1.207-.024v-1.174a67.861 67.861 0 0 1-9.664-.436l-.121-.014c-8.743-1.022-11.688-1.367-12.944-5.422-.251-.812-.566-2.504-.865-4.635H13v-30.695h52.388c.167-1.025.392-2.243.611-2.953 1.256-4.055 4.202-4.4 12.946-5.422l.12-.014a67.834 67.834 0 0 1 9.663-.436v-1.354h1.232c.566 0 57.369.038 123.449 3.31 10.777.533 21.447.804 31.713.804 29.763-.001 50.627-2.21 64.433-3.671 6.615-.7 11.394-1.206 14.71-1.206 6.278 0 12.714 2.466 17.66 6.766 5.208 4.527 8.075 10.396 8.075 16.525v8.286c0 14.465-8.145 21.865-25.634 23.288a45.95 45.95 0 0 1-3.703.135l-.285-.001Z" fill="#88A2B0"/><path fill-rule="evenodd" clip-rule="evenodd" d="M349 187.177v-3.921C349 170.964 336.74 161 324.463 161c-12.278 0-46.807 7.311-111.071 4.106-66.906-3.336-123.559-3.336-123.559-3.336v1.415a65.003 65.003 0 0 0-10.767.381c-8.715 1.027-11.023 1.284-12.048 4.62-.206.671-.47 2.062-.733 3.85H14v28.487h52.052c.333 2.595.698 4.675.966 5.546 1.025 3.336 3.333 3.593 12.048 4.62 4.4.518 8.14.513 10.767.381v1.258s11.656.237 28.37.241h1.053c1.056-.001 2.131-.002 3.224-.005l1.111-.002 2.219-.008c3.018-.012 6.152-.033 9.368-.065l2.369-.025a1334.333 1334.333 0 0 0 11.198-.168 1784.045 1784.045 0 0 0 6.366-.137l1.345-.033a1095.427 1095.427 0 0 0 12.872-.398 884 884 0 0 0 6.277-.255l.112-.005c1.23-.055 2.455-.112 3.673-.172l1.311-.065a673.09 673.09 0 0 0 12.198-.737 476.081 476.081 0 0 0 6.925-.544c1.499-.13 2.969-.266 4.406-.409 3.234-.32 6.302-.673 9.162-1.062 7.787-1.059 15.898-1.477 24.062-1.467a263.966 263.966 0 0 1 8.051.14l.27.009c3.262.11 6.518.276 9.751.486l.547.036a418.03 418.03 0 0 1 12.091.988c1.052.1 2.1.203 3.142.309l.791.08a736.764 736.764 0 0 1 10.583 1.17l.818.097 2.78.33.817.098c1.523.183 3.022.365 4.495.544 5.357.652 10.375 1.266 14.926 1.742.492.052.979.102 1.46.15 4.813.483 9.065.793 12.6.808a44.935 44.935 0 0 0 3.887-.131c18.785-1.54 24.537-9.964 24.537-22.255v-4.436Z" fill="#EE474C"/><mask id="b" style="mask-type:alpha" maskUnits="userSpaceOnUse" x="0" y="0" width="384" height="384"><path fill-rule="evenodd" clip-rule="evenodd" d="M0 384h384V0H0v384Z" fill="#fff"/></mask><g mask="url(#b)" fill-rule="evenodd" clip-rule="evenodd"><path d="M15 200h76v-28H15v28Z" fill="#F59EAE"/><path d="M93 163.292c-2.195-.24-7.098-.585-13.361.164-8.571 1.026-10.84 1.282-11.849 4.616-.677 2.24-1.99 12.457-1.764 18.928-.226 6.471 1.087 16.688 1.764 18.928 1.009 3.334 3.278 3.59 11.849 4.616 6.263.749 11.166.404 13.361.164v-47.416Z" fill="#BED6E3"/><path d="M89 165.003a74.09 74.09 0 0 0-8.269.396c-8.629.898-10.913 1.122-11.928 4.039-.682 1.96-2.004 10.9-1.777 16.562-.227 5.662 1.095 14.603 1.777 16.562 1.015 2.917 3.299 3.142 11.928 4.039 3.156.328 5.969.417 8.269.396v-41.994Z" fill="#FEFEFE"/><path d="M324.479 213.868c-18.774 1.54-69.497-11.035-110.999-5.389-40.648 5.53-123.48 3.85-123.48 3.85V161.77s56.616 0 123.48 3.336c64.222 3.205 98.729-4.106 110.999-4.106 12.269 0 24.521 9.964 24.521 22.256v8.356c0 12.292-5.748 20.717-24.521 22.256Z" fill="#DDECF4"/><path d="M90 187v25.318s82.831 1.691 123.479-3.876c41.502-5.683 92.226 6.975 111 5.425 18.773-1.549 24.521-10.03 24.521-22.402V187H90Z" fill="#BED6E3"/><path d="M324.829 165c-3.073 0-7.748.495-14.218 1.182-13.892 1.473-34.886 3.7-64.875 3.7-40.258 0-102.736.084-102.736 16.168 0 17.374 67.659 18.014 94.728 18.014 19.333 0 39.224 2.407 55.207 4.341 11.502 1.393 21.435 2.595 28.286 2.595 1.239 0 2.362-.04 3.337-.12 15.23-1.242 21.442-6.688 21.442-18.798v-8.295c0-8.868-9.054-18.787-21.171-18.787Z" fill="#FEFEFE"/><path d="M208.787 195h-40.574a1.21 1.21 0 0 1-1.213-1.208v-16.584a1.21 1.21 0 0 1 1.213-1.208h40.574c.67 0 1.213.541 1.213 1.208v16.584a1.21 1.21 0 0 1-1.213 1.208Z" fill="#3F4F57"/><path d="M168 193.218v-15.436c0-.432.349-.782.781-.782h39.438c.431 0 .781.35.781.782v15.436c0 .432-.35.782-.781.782h-39.438a.781.781 0 0 1-.781-.782Z" fill="#88A2B0"/><path d="M185.695 192h-2.39c-.168 0-.305-.116-.305-.257v-12.486c0-.141.137-.257.305-.257h2.39c.168 0 .305.116.305.257v12.486c0 .141-.137.257-.305.257Zm8 0h-2.39c-.168 0-.305-.116-.305-.257v-12.486c0-.141.137-.257.305-.257h2.39c.168 0 .305.116.305.257v12.486c0 .141-.137.257-.305.257Z" fill="#EE474C"/><path d="M319.883 232.388s-17.739-15.736-25.102-35.154c-5.467-14.416-10.045-29.374-15.249-37.162-3.246-5.76-8.531-11.144-13.201-18.08-11.044-16.405-18.407-25.445-32.13-20.758-10.016 3.421-15.061 12.388-7.698 36.828 7.176 23.821 14.814 31.629 19.705 39.247.124.198.247.396.377.595 6.359 9.709 11.045 17.074 9.371 29.797-1.673 12.722 6.879 56.057 18.593 69.114 11.714 13.058 27.93-.815 45.334-16.55 17.403-15.736 5.534-42.375 0-47.877Z" fill="#EFB993"/><path d="M322.408 235.885s-22.449-18.112-29.856-37.596c-7.405-19.484-13.634-39.136-19.693-42.831-6.06-3.695-25.249-.524-28.952 11.327-3.703 11.852-1.91 20.927 4.486 30.668 6.397 9.742 11.693 20.488 10.01 33.253-1.683 12.766 6.413 54.262 16.114 70.764 8.926 15.184 40.309 15.619 57.815-.17 17.505-15.788-4.357-59.894-9.924-65.415Z" fill="#FDD6B0"/><path d="M235.651 122.207c-10.088 3.436-14.31 10.839-6.893 35.384 7.416 24.545 15.077 32.333 19.982 40.184 4.905 7.851 41.426-6.631 36.867-19.176-3.979-10.95-8.948-20.162-21.301-35.927-12.264-15.65-14.833-25.172-28.655-20.465Z" fill="#FDD6B0"/><path d="M233.909 112.543c-8.714 3.068-11.287 12.605-9.25 18.64 2.038 6.036 9.539 20.146 13.273 19.811 3.735-.335 22.068-5.365 22.068-7.377 0-6.552-2.781-11.516-6.749-18.927-5.542-10.35-13.424-14.23-19.342-12.147Z" fill="#EE393C"/><path d="M250.668 125.126c-5.446-10.258-11.215-14.696-17.03-12.632-8.563 3.04-8.543 9.885-6.541 15.867 2.002 5.981 12.325 21.961 13.765 21.634 5.076-1.153 13.671-3.667 17.02-5.471.878-.472-3.315-12.054-7.214-19.398Z" fill="#EE474C"/><path d="M251 175a379.705 379.705 0 0 1 20-8c-6.153 3.473-13.1 6.246-20 8Zm-5 3c11.886-2.109 22.757-6.395 33-13-9.685 7.456-20.988 11.908-33 13Zm12 2a2209.606 2209.606 0 0 1 21-8c-6.442 3.728-13.767 6.512-21 8Z" fill="#EFB993"/><path d="m240.891 142.35-3.41-9.232c-.96-2.573-1.867-5.196-3.187-7.618a9.201 9.201 0 0 0-1.467-1.997c-1.077-1.124-2.973-.225-2.818 1.323.079.785.251 1.555.461 2.243.567 1.855 1.535 3.559 2.479 5.255a290.192 290.192 0 0 1 5.66 10.694c.062.123.127.248.195.372.685 1.258 2.607.387 2.117-.959l-.03-.081Z" fill="#F9C3C5"/></g></svg>