<svg width="70" height="51" fill="none" xmlns="http://www.w3.org/2000/svg"><path fill-rule="evenodd" clip-rule="evenodd" d="M6.915 14.904C2.305 21.508 0 28.83 0 36.872c0 5.054 1.224 8.672 3.67 10.854C6.119 49.91 9.505 51 13.83 51c3.641 0 6.914-.775 9.816-2.326 2.903-1.55 5.18-3.704 6.83-6.461 1.65-2.757 2.475-5.916 2.475-9.477 0-7.58-4.439-11.371-13.317-11.371-2.276 0-4.439.46-6.488 1.378-2.048.92-3.87 2.24-5.463 3.963.341-5.513 2.39-10.338 6.146-14.473 3.756-4.135 7.968-7.179 12.634-9.132L25.61 0C17.756 3.331 11.524 8.299 6.915 14.904Zm37.048 0c-4.61 6.604-6.914 13.927-6.914 21.968 0 5.054 1.223 8.672 3.67 10.854C43.167 49.91 46.553 51 50.88 51c3.641 0 6.914-.775 9.816-2.326 2.903-1.55 5.179-3.704 6.83-6.461C69.174 39.456 70 36.297 70 32.736c0-7.58-4.439-11.371-13.317-11.371-2.276 0-4.44.46-6.488 1.378-2.049.92-3.87 2.24-5.463 3.963.341-5.513 2.39-10.338 6.146-14.473 3.756-4.135 7.968-7.179 12.634-9.132L62.658 0c-7.853 3.331-14.085 8.299-18.695 14.904Z" fill="#F9DD12"/></svg>