<svg width="424" height="343" fill="none" xmlns="http://www.w3.org/2000/svg"><g opacity=".55"><path fill-rule="evenodd" clip-rule="evenodd" d="M349.766 107h-70.531a2.237 2.237 0 0 1-2.235-2.238V2.238A2.237 2.237 0 0 1 279.235 0h70.531A2.236 2.236 0 0 1 352 2.238v102.524c0 1.236-1 2.238-2.234 2.238Z" fill="#DFEAFE"/><path fill-rule="evenodd" clip-rule="evenodd" d="M317.633 24.695c0 8.799-7.123 15.932-15.908 15.932-8.786 0-15.909-7.133-15.909-15.932s7.123-15.932 15.909-15.932c8.785 0 15.908 7.133 15.908 15.932Z" fill="#fff"/><path fill-rule="evenodd" clip-rule="evenodd" d="M304.725 32.814c-.024-2.482-1.295-4.375-1.295-4.375l-1.729 3.724-1.729-3.724s-1.271 1.893-1.294 4.375c-.022 2.306 2.627 2.524 3.001 2.544v.001h.045v-.001c.373-.02 3.023-.238 3.001-2.544Z" fill="#DFEAFE"/><path fill-rule="evenodd" clip-rule="evenodd" d="M312.537 28.583c-1.487-.96-2.543-3.508-2.351-6.584.192-3.075-.576-7.305-3.791-8.699-2.013-.872-2.988-.408-3.868.061a1.71 1.71 0 0 1-1.614 0c-.879-.469-1.855-.933-3.867-.06-3.216 1.393-3.984 5.623-3.792 8.698.192 3.076-.863 5.623-2.351 6.584-1.488.962-.816 1.923 0 2.692.816.769 3.339-.144 5.341 1.25 2.001 1.393 2.91.192 3.224-1.322.313-1.514 2.248-13.516 2.248-13.516l.004-1.877.004 1.877s1.935 12.002 2.249 13.516c.313 1.514 1.222 2.715 3.224 1.321 2.001-1.393 4.525-.48 5.34-1.25.816-.768 1.488-1.73 0-2.69Z" fill="#BAD2FE"/><path fill-rule="evenodd" clip-rule="evenodd" d="M301.724 32.211c-1.047 0-2.022-.606-2.841-1.651-1.45-1.851-2.414-2.162-2.414-4.02v-9.299h10.509v9.3c0 1.872-.978 2.217-2.447 4.06-.812 1.02-1.775 1.61-2.807 1.61Z" fill="#DFEAFE"/><path fill-rule="evenodd" clip-rule="evenodd" d="M296.469 21.326h-.261c-.812 0-1.345.85-.992 1.582l1.253 2.6s.912-2.163.912-2.356c0-.192-.912-1.826-.912-1.826Zm10.49 0h.261c.812 0 1.344.85.992 1.582l-1.253 2.6s-.912-2.163-.912-2.356c0-.192.912-1.826.912-1.826Z" fill="#DFEAFE"/><path fill-rule="evenodd" clip-rule="evenodd" d="M296.469 21.326s1.255-1.213 2.961-3.842c0 0 2.954 3.221 7.528 3.842 0 0 1.137-2.708 1.137-3.25 0-.543-.936-2.318-1.773-2.465-.836-.148-9.033-.838-10.079 0-1.046.838.226 5.715.226 5.715Z" fill="#BAD2FE"/><mask id="a" style="mask-type:alpha" maskUnits="userSpaceOnUse" x="325" y="13" width="22" height="6"><path fill-rule="evenodd" clip-rule="evenodd" d="M327.932 13c-1.619 0-2.932 1.343-2.932 3s1.313 3 2.932 3h16.136c1.619 0 2.932-1.343 2.932-3s-1.313-3-2.932-3h-16.136Z" fill="#fff"/></mask><g mask="url(#a)"><path fill-rule="evenodd" clip-rule="evenodd" d="M327.932 13c-1.619 0-2.932 1.343-2.932 3s1.313 3 2.932 3h16.136c1.619 0 2.932-1.343 2.932-3s-1.313-3-2.932-3h-16.136Z" fill="url(#b)"/></g><path fill-rule="evenodd" clip-rule="evenodd" d="M346.115 25.662h-19.832a1.137 1.137 0 1 1 0-2.272h19.832a1.136 1.136 0 0 1 0 2.272Zm0 6.922h-19.832a1.137 1.137 0 1 1 0-2.273h19.832a1.136 1.136 0 0 1 0 2.273Zm0 7.002h-19.832a1.137 1.137 0 1 1 0-2.273h19.832a1.136 1.136 0 0 1 0 2.273Zm0 7.357h-60.654a1.137 1.137 0 1 1 0-2.272h60.654a1.137 1.137 0 1 1 0 2.272Zm0 7.022h-60.654a1.136 1.136 0 1 1 0-2.272h60.654a1.136 1.136 0 1 1 0 2.272Zm-17.092 6.953h-43.562a1.137 1.137 0 1 1 0-2.272h43.562a1.137 1.137 0 1 1 0 2.272Z" fill="#fff"/><path fill-rule="evenodd" clip-rule="evenodd" d="M347.252 67.66v28.836h-63.197V79.56s4.961-6.866 11.525-2.442c4.186 2.823 6.181 3.428 9.384 3.639 1.82.119 4.597-1.785 6.92-4.272 2.879-3.082 6.258-5.296 9.057-5.967 4.183-1.004 8.279 1.478 12.416 2.94 6.903 2.44 13.895-5.799 13.895-5.799Z" fill="#BED5FF"/><path fill-rule="evenodd" clip-rule="evenodd" d="M347.252 85.996v10.5h-63.197s4.808-3.51 10.304-3.204c5.12.284 8.835-3.985 11.491-9.887.196-.433.385-.875.568-1.327 2.693-6.591 8.869-9.807 14.004-7.278.59.29 1.164.656 1.719 1.1 5.914 4.738 5.85 9.55 16.487 6.178 6.258-1.983 8.624 3.918 8.624 3.918Z" fill="#fff"/><path fill-rule="evenodd" clip-rule="evenodd" d="M383.927 119.016H353.86a3.33 3.33 0 0 1-3.331-3.329V85.636a3.33 3.33 0 0 1 3.331-3.329h30.067a3.33 3.33 0 0 1 3.331 3.329v30.051a3.33 3.33 0 0 1-3.331 3.329Z" fill="#BAD2FE"/><path fill-rule="evenodd" clip-rule="evenodd" d="M372.915 106.564a7.115 7.115 0 0 1-4.02 1.238c-3.947 0-7.149-3.195-7.149-7.14a7.149 7.149 0 0 1 14.298 0 7.112 7.112 0 0 1-3.129 5.902Zm-4.02-16.802c-6.027 0-10.907 4.877-10.907 10.9 0 6.018 4.88 10.901 10.907 10.901 2.58 0 4.946-.89 6.807-2.384a10.875 10.875 0 0 0 4.099-8.517c0-6.023-4.88-10.9-10.906-10.9Z" fill="#fff"/><path fill-rule="evenodd" clip-rule="evenodd" d="M379.801 100.662c0 3.445-1.598 6.518-4.099 8.517l-2.788-2.615a7.11 7.11 0 0 0 3.129-5.902 7.149 7.149 0 0 0-7.148-7.145v-3.755c6.026 0 10.906 4.877 10.906 10.9Z" fill="#1E0A4F"/><path fill-rule="evenodd" clip-rule="evenodd" d="M167.833 309.827c0 1.422-15.53 2.575-34.687 2.575-19.157 0-34.687-1.153-34.687-2.575 0-1.422 15.53-2.575 34.687-2.575 19.157 0 34.687 1.153 34.687 2.575Z" fill="#F0EEF9"/><mask id="c" style="mask-type:alpha" maskUnits="userSpaceOnUse" x="0" y="0" width="424" height="343"><path fill-rule="evenodd" clip-rule="evenodd" d="M0 343h424V0H0v343Z" fill="#fff"/></mask><g mask="url(#c)" fill-rule="evenodd" clip-rule="evenodd"><path d="M181.139 201.504h44.214v-51.619h-44.214v51.619Z" fill="#BED5FF"/><path d="M225.4 201.504h26.271v-91.871H225.4v91.871Z" fill="#99BCFF"/><path d="M232.168 98.428h3.859V81.856h-3.859v16.573Zm-4.538 17.606-3.394-1.836 7.893-14.576 3.394 1.835-7.893 14.577Z" fill="#77A2F2"/><path d="M237.855 98.429a3.756 3.756 0 0 1-3.758 3.755 3.756 3.756 0 1 1 0-7.51 3.757 3.757 0 0 1 3.758 3.755Zm27.006-10.895h-61.527a1.816 1.816 0 0 1-1.816-1.815V46.053c0-1.003.813-1.816 1.816-1.816h61.527c1.003 0 1.816.813 1.816 1.816v39.666a1.816 1.816 0 0 1-1.816 1.815Z" fill="#8FB1F2"/><path d="M204.5 84.555h59.195V47.217H204.5v37.338Z" fill="#DFEAFE"/><path d="m252.165 76.422-5.553-23.72c-.26 1.54-5.437 2.769-11.785 2.769-6.347 0-11.531-1.229-11.791-2.77l-5.554 23.728c-.067.15-.105.303-.107.457l-.004.017h.002c0 2.363 7.814 4.279 17.452 4.279 9.639 0 17.452-1.916 17.452-4.28 0-.162-.04-.322-.112-.48Z" fill="#99BCFF"/><path d="M235.247 64.832c-.85 5.516-7.109 2.489-8.55 6.192-1.44 3.703 4.641 4.933 9.896 2.607 5.256-2.328 5.114-8.303 3.778-10.279-1.396-2.065-4.602-1.908-5.124 1.48Z" fill="#699EFF"/><path d="M293.895 176.675v53.757a3.23 3.23 0 0 1-6.459 0v-53.757a3.229 3.229 0 0 1 6.459 0Z" fill="#A4C2FF"/><path d="M224.367 150.541h-42.236c-.737 0-.946-.597-.468-1.334l24.847-38.24c.478-.737 1.464-1.334 2.201-1.334h42.235c.737 0 .947.597.468 1.334l-24.847 38.24c-.478.737-1.464 1.334-2.2 1.334Z" fill="#BED5FF"/><path d="m182.857 149.424 24.592-37.849c.311-.478.971-.825 1.264-.825h41.51l-24.592 37.849c-.31.478-.97.825-1.263.825h-41.511Z" fill="#fff"/><path d="M219.557 139.245c-3.216 4.95-9.839 8.963-14.792 8.963-4.953 0-6.361-4.013-3.144-8.963 3.216-4.951 9.839-8.964 14.792-8.964 4.953 0 6.361 4.013 3.144 8.964Z" fill="#99BCFF"/><path d="M216.856 139.245c-2.247 3.459-6.875 6.263-10.336 6.263-3.46 0-4.444-2.804-2.196-6.263 2.247-3.459 6.875-6.264 10.335-6.264 3.461 0 4.445 2.805 2.197 6.264Z" fill="#fff"/><path d="M238.677 123.662h-35.925c-.932 0-1.196-.755-.591-1.686l5.351-8.236c.605-.931 1.851-1.686 2.782-1.686h35.925c.932 0 1.197.755.592 1.686l-5.352 8.236c-.605.931-1.85 1.686-2.782 1.686Z" fill="#99BCFF"/><path d="M217.85 148.306c-.658 0-.845-.533-.417-1.191.427-.658 1.307-1.191 1.965-1.191.658 0 .845.533.418 1.191-.428.658-1.307 1.191-1.966 1.191Zm5.309 0c-.658 0-.845-.533-.418-1.191.428-.658 1.308-1.191 1.966-1.191.658 0 .845.533.417 1.191-.427.658-1.307 1.191-1.965 1.191Zm-1.92-5.214c-.658 0-.845-.534-.418-1.191.428-.658 1.308-1.192 1.966-1.192.658 0 .845.534.418 1.192-.428.657-1.308 1.191-1.966 1.191Zm5.309 0c-.659 0-.846-.534-.418-1.191.427-.658 1.307-1.192 1.965-1.192.658 0 .845.534.418 1.192-.427.657-1.307 1.191-1.965 1.191Zm-1.92-5.214c-.658 0-.846-.534-.418-1.191.427-.658 1.307-1.191 1.966-1.191.658 0 .845.533.417 1.191-.427.657-1.307 1.191-1.965 1.191Zm5.306 0c-.658 0-.845-.534-.418-1.191.428-.658 1.308-1.191 1.966-1.191.658 0 .845.533.418 1.191-.428.657-1.307 1.191-1.966 1.191Zm-1.92-5.215c-.658 0-.845-.533-.417-1.191.427-.657 1.307-1.191 1.965-1.191.658 0 .845.534.418 1.191-.428.658-1.307 1.191-1.966 1.191Zm5.309 0c-.658 0-.845-.533-.418-1.191.428-.657 1.308-1.191 1.966-1.191.658 0 .845.534.418 1.191-.428.658-1.308 1.191-1.966 1.191Zm-47.41 15.643c-.658 0-.845-.533-.418-1.191s1.308-1.191 1.966-1.191c.658 0 .845.533.417 1.191-.427.658-1.307 1.191-1.965 1.191Zm5.306 0c-.658 0-.845-.533-.417-1.191.427-.658 1.307-1.191 1.965-1.191.658 0 .845.533.418 1.191s-1.307 1.191-1.966 1.191Zm-1.919-5.214c-.659 0-.846-.534-.418-1.191.427-.658 1.307-1.192 1.965-1.192.659 0 .846.534.418 1.192-.427.657-1.307 1.191-1.965 1.191Zm5.308 0c-.658 0-.845-.534-.418-1.191.428-.658 1.308-1.192 1.966-1.192.658 0 .845.534.418 1.192-.428.657-1.308 1.191-1.966 1.191Zm-1.92-5.214c-.658 0-.845-.534-.418-1.191.428-.658 1.308-1.191 1.966-1.191.658 0 .845.533.418 1.191-.428.657-1.308 1.191-1.966 1.191Zm5.309 0c-.658 0-.845-.534-.418-1.191.427-.658 1.308-1.191 1.966-1.191.658 0 .845.533.417 1.191-.427.657-1.307 1.191-1.965 1.191Zm-1.92-5.215c-.658 0-.845-.533-.418-1.191.427-.657 1.307-1.191 1.966-1.191.658 0 .845.534.417 1.191-.427.658-1.307 1.191-1.965 1.191Zm5.307 0c-.659 0-.846-.533-.418-1.191.427-.657 1.307-1.191 1.965-1.191.659 0 .846.534.418 1.191-.427.658-1.307 1.191-1.965 1.191Z" fill="#BED5FF"/><path d="M236.905 127.87h-7.046c-.339 0-.436-.274-.216-.613l.578-.889c.22-.339.673-.613 1.012-.613h7.046c.339 0 .435.274.215.613l-.577.889c-.22.339-.673.613-1.012.613Zm-10.307 0h-7.046c-.339 0-.435-.274-.215-.613l.577-.889c.22-.339.673-.613 1.012-.613h7.047c.338 0 .435.274.215.613l-.578.889c-.22.339-.673.613-1.012.613Zm-10.304 0h-7.047c-.339 0-.435-.274-.215-.613l.578-.889c.22-.339.673-.613 1.012-.613h7.046c.339 0 .435.274.215.613l-.578.889c-.22.339-.673.613-1.011.613Zm-10.305 0h-7.047c-.338 0-.435-.274-.215-.613l.578-.889c.22-.339.673-.613 1.012-.613h7.046c.339 0 .435.274.215.613l-.577.889c-.22.339-.673.613-1.012.613Z" fill="#99BCFF"/><path d="M125.196 99.577h-6.794c-17.927 0-31.858 15.602-29.826 33.404l5.952 51.763h25.078l5.59-85.167Z" fill="#8FB1F2"/><path d="M129.816 294.324h6.659v-75.006h-6.659v75.006Z" fill="#CCDFFF"/><path d="M129.816 294.324h3.33v-75.006h-3.33v75.006Zm-23.029 5.592h52.716c0-1.546-.627-2.94-1.64-3.952a5.579 5.579 0 0 0-3.957-1.639h-41.522a5.594 5.594 0 0 0-5.597 5.591Z" fill="#A4C2FF"/><path d="M123.611 299.916h35.894c0-1.546-.628-2.94-1.64-3.952a5.581 5.581 0 0 0-3.958-1.639h-20.76l-9.536 5.591Z" fill="#CCDFFF"/><path d="M111.747 304.872a4.957 4.957 0 0 1-4.958 4.956 4.957 4.957 0 1 1 0-9.912 4.957 4.957 0 0 1 4.958 4.956Z" fill="#A4C2FF"/><path d="M109.485 304.872a2.697 2.697 0 1 1-5.396-.002 2.697 2.697 0 0 1 5.396.002Z" fill="#77A2F2"/><path d="M165.407 304.872a4.957 4.957 0 0 1-4.958 4.956 4.957 4.957 0 1 1 0-9.912 4.957 4.957 0 0 1 4.958 4.956Z" fill="#A4C2FF"/><path d="M163.148 304.872a2.697 2.697 0 0 1-2.698 2.696 2.697 2.697 0 1 1 2.698-2.696Z" fill="#77A2F2"/><path d="M52.605 314.605h5.839v-72.379h-5.839v72.379Z" fill="#8FB1F2"/><path d="M155.711 166.991s13.596 6.172 20.117 8.704c6.521 2.531 31.44 7.994 17.49 26.306-9.695 12.726-57.116 1.445-77.673-10.997-9.023-5.462-2.981-16.937-2.981-16.937l43.047-7.076Z" fill="#1E0A4F"/><path d="M170.639 91.719s5.506-5.713 6.607-6.866c1.101-1.153 5.716-3.407 7.027-3.983 1.311-.577 6.817-3.302 8.023-3.198 1.206.105.735 1.416-.419 2.044-1.154.63-7.342 4.194-7.342 4.56 0 .367 3.986-.003 4.93.418.944.421 3.618 3.356 3.828 3.88.209.524-.997.786-1.731.524-.734-.262-2.569-1.887-2.831-1.991-.263-.105-3.357.104-3.357.314 0 .21 2.465.21 3.094.629.63.42.21.944.263 2.149.052 1.205-.315 2.149-2.151 3.092-1.835.944-6.24 3.826-9.124 4.35-2.884.524-4.143 2.726-4.143 2.726l-5.401-5.136s1.901-2.655 2.727-3.512Z" fill="#FEDCDB"/><path d="m149.93 108.578 19.471-16.109s5.869 3.632 6.428 6.332l-21.707 25.047-4.192-15.27Z" fill="#6EC6F0"/><path d="M128.315 99.577h-6.794c-17.927 0-31.858 15.602-29.826 33.404l5.442 50.544 25.588 1.219 5.59-85.167Z" fill="#CCDFFF"/><path d="M139.53 99.577h-6.794c-17.927 0-31.858 15.602-29.826 33.404l5.504 48.225 25.526 3.538 5.59-85.167Z" fill="#A4C2FF"/><path d="m163.078 63.45.932-5.029s3.759-3.786.606-10.242c-3.153-6.456-18.059-7.946-29.859-.497-11.801 7.45-3.54 18.002-6.056 18.995-2.515.994-11.707 5.339-14.067 12.664-2.36 7.325 3.563 16.563 12.546 16.605 8.983.042 35.898-32.496 35.898-32.496Z" fill="#1E0A4F"/><path d="M146.681 102.184s-.124-2.172 1.429-7.014c1.553-4.842 3.105-8.318 3.105-8.318s3.168 1.676 6.211 0c3.044-1.676 5.901-10.863 6.832-15.954.932-5.09-.248-12.477-.248-12.477s-2.857 1.118-6.087.87c-3.23-.249-6.583.496-7.453 2.793-.869 2.296-2.795 5.462-4.223 4.593-1.429-.869-2.919-1.552-4.721-.993-1.801.559-1.49 3.6-1.117 5.649.372 2.048.731 2.67-.287 4.904-1.018 2.235-10.785 14.774-10.785 14.774s-3.024 4.407 4.117 6.518c7.141 2.11 13.227 4.655 13.227 4.655Z" fill="#FEDCDB"/><path d="M153.034 153.954c-.265 5.33.506 8.674 1.285 10.637.28.7.563 1.229.798 1.605.346.559.596.794.596.794s-.272 1.251-1.211 2.923v.004c-1.021 1.825-2.832 4.149-5.94 5.907-1.383.782-4.278 1.374-7.863 1.754-11.873 1.252-31.351.157-28.903-4.13 3.187-5.587 4.595-19.617 2.236-28.679-2.362-9.065-.372-25.699 2.236-34.266 2.609-8.566 15.186-22.231 15.186-22.231s2.079 1.992 7.792 5.344c5.716 3.353 7.959 4.068 7.959 4.813 0 .745 2.724 7.978 4.96 12.447 2.236 4.469 6.335 12.909 5.59 18.373-.745 5.464-4.222 14.649-4.721 24.705Z" fill="#75D2FE"/><path d="M155.713 166.99s-.272 1.251-1.211 2.923v.004c-1.021 1.825-2.832 4.149-5.94 5.907-1.383.782-4.278 1.375-7.863 1.754-6.629-2.428-11.06-5.966-13.486-10.588-2.966-5.647 0-47.425 0-47.425l15.17 38.735 11.936 6.291c.28.7.563 1.229.798 1.605.346.559.596.794.596.794Z" fill="#6EC6F0"/><path d="m155.115 166.196-.615 3.717v.004s-10.534-10.313-5.183-20.161c5.351-9.847 7.415-15.594 8.437-20.507-.746 5.464-4.223 14.648-4.722 24.705-.358 7.236 1.189 10.808 2.083 12.242Z" fill="#6EC6F0"/><path d="M209.79 297.254s-7.706 1.017-19.109-26.645a124.55 124.55 0 0 1-.626-1.542c-7.967-19.937-9.909-37.036-10.382-44.586-.164-2.659-.149-4.134-.149-4.134l14.6 4.935 8.031 2.715.518.175 7.117 69.082Z" fill="#FEDCDB"/><path d="m202.156 227.204-2.043 10.242c-6.864 0-14.879 12.138-10.057 31.621-7.967-19.937-9.909-37.036-10.382-44.586l1.464-2.305 12.987 3.106 8.031 1.922Z" fill="#FECAC9"/><path d="m187.838 232.545-.522 2.182-9.567 68.457-6.043-3.092s-7.609-1.583-9.223-31.461a153.443 153.443 0 0 1-.183-11.817c.276-11.852 1.867-21.744 3.38-28.638 1.491-6.783 2.899-10.667 2.899-10.667l15.175 11.847 3.808 2.973.276.216Z" fill="#FEDCDB"/><path d="m187.838 229.625-.275 2.704-.246 2.398s-15.976 1.509-19.874 3.65c-3.898 2.142-5.138 18.444-5.138 18.444l-.004-.007c.276-11.852 1.867-21.744 3.38-28.638l18.073 1.181 4.084.268Z" fill="#FECAC9"/></g><mask id="d" style="mask-type:alpha" maskUnits="userSpaceOnUse" x="221" y="264" width="67" height="53"><path fill-rule="evenodd" clip-rule="evenodd" d="M286.738 264.383c-2.345 1.494-6.049.622-15.677 3.61s-16.294 14.567-26.663 17.928c-10.369 3.362-16.047 11.081-18.392 17.306-2.345 6.225-5.006 13.524-5.006 13.524s1.92.793 5.741-.452c3.821-1.245 13.46-6.225 19.509-10.084 6.048-3.86 14.072-6.101 20.985-9.089 6.912-2.988 18.639-16.434 19.503-23.904.717-6.195 1.858-9.222.888-9.222-.199 0-.488.128-.888.383Z" fill="#fff"/></mask><g mask="url(#d)"><path fill-rule="evenodd" clip-rule="evenodd" d="M286.738 264.383c-2.345 1.494-6.049.622-15.677 3.61s-16.294 14.567-26.663 17.928c-10.369 3.362-16.047 11.081-18.392 17.306-2.345 6.225-5.006 13.524-5.006 13.524s1.92.793 5.741-.452c3.821-1.245 13.46-6.225 19.509-10.084 6.048-3.86 14.072-6.101 20.985-9.089 6.912-2.988 18.639-16.434 19.503-23.904.717-6.195 1.858-9.222.888-9.222-.199 0-.488.128-.888.383Z" fill="url(#e)"/></g><mask id="f" style="mask-type:alpha" maskUnits="userSpaceOnUse" x="216" y="247" width="32" height="71"><path fill-rule="evenodd" clip-rule="evenodd" d="M238.39 258.198c-3.711 3.102-12.545 11.29-15.921 20.161-3.376 8.872-3.5 20.906-3.5 20.906L216 317.38l7.299.62-.248-5.955s12.742-17.991 17.195-26.552c4.453-8.56 7.051-15.26 7.67-22.084.618-6.824-2.351-15.757-2.969-16.377a.093.093 0 0 0-.069-.032c-.704-.001-2.903 8.202-6.488 11.198Z" fill="#fff"/></mask><g mask="url(#f)"><path fill-rule="evenodd" clip-rule="evenodd" d="M238.39 258.198c-3.711 3.102-12.545 11.29-15.921 20.161-3.376 8.872-3.5 20.906-3.5 20.906L216 317.38l7.299.62-.248-5.955s12.742-17.991 17.195-26.552c4.453-8.56 7.051-15.26 7.67-22.084.618-6.824-2.351-15.757-2.969-16.377a.093.093 0 0 0-.069-.032c-.704-.001-2.903 8.202-6.488 11.198Z" fill="url(#g)"/></g><mask id="h" style="mask-type:alpha" maskUnits="userSpaceOnUse" x="169" y="262" width="51" height="57"><path fill-rule="evenodd" clip-rule="evenodd" d="M169.04 262.163c-.492.745 3.693 10.052 4.554 18.987.862 8.935 12.925 14.023 19.203 20.973 6.277 6.949 16.063 10.672 20.925 13.278 4.863 2.606 5.416 3.599 5.416 3.599l.862-6.949s-5.662-19.856-11.694-26.433c-6.031-6.578-14.648-15.637-25.726-18.987-9.444-2.857-12.268-4.631-13.201-4.631-.162 0-.266.053-.339.163Z" fill="#fff"/></mask><g mask="url(#h)"><path fill-rule="evenodd" clip-rule="evenodd" d="M169.04 262.163c-.492.745 3.693 10.052 4.554 18.987.862 8.935 12.925 14.023 19.203 20.973 6.277 6.949 16.063 10.672 20.925 13.278 4.863 2.606 5.416 3.599 5.416 3.599l.862-6.949s-5.662-19.856-11.694-26.433c-6.031-6.578-14.648-15.637-25.726-18.987-9.444-2.857-12.268-4.631-13.201-4.631-.162 0-.266.053-.339.163Z" fill="url(#i)"/></g><mask id="j" style="mask-type:alpha" maskUnits="userSpaceOnUse" x="226" y="305" width="74" height="24"><path fill-rule="evenodd" clip-rule="evenodd" d="M255.253 305.047c-16.362.617-24.295 3.329-24.295 3.329L226 314.788s6.57 0 12.272 4.068c5.701 4.069 14.626 6.041 27.207 9 12.581 2.96 12.953-.616 21.134-1.849 8.181-1.233 13.387.616 13.387.616-1.363-3.328-7.933-10.233-16.61-13.438-8.227-3.04-11.437-8.185-25.696-8.185-.779 0-1.593.015-2.441.047Z" fill="#fff"/></mask><g mask="url(#j)"><path fill-rule="evenodd" clip-rule="evenodd" d="M255.253 305.047c-16.362.617-24.295 3.329-24.295 3.329L226 314.788s6.57 0 12.272 4.068c5.701 4.069 14.626 6.041 27.207 9 12.581 2.96 12.953-.616 21.134-1.849 8.181-1.233 13.387.616 13.387.616-1.363-3.328-7.933-10.233-16.61-13.438-8.227-3.04-11.437-8.185-25.696-8.185-.779 0-1.593.015-2.441.047Z" fill="url(#k)"/></g><mask id="l" style="mask-type:alpha" maskUnits="userSpaceOnUse" x="27" y="322" width="22" height="21"><path fill-rule="evenodd" clip-rule="evenodd" d="M27.99 322.507h20.553V343H27.99v-20.493Z" fill="#fff"/></mask><g mask="url(#l)"><path fill-rule="evenodd" clip-rule="evenodd" d="M48.543 332.754c0 5.659-4.601 10.246-10.277 10.246-5.675 0-10.276-4.587-10.276-10.246 0-5.659 4.601-10.247 10.276-10.247 5.676 0 10.277 4.588 10.277 10.247Z" fill="#A4C2FF"/></g><mask id="m" style="mask-type:alpha" maskUnits="userSpaceOnUse" x="225" y="322" width="21" height="21"><path fill-rule="evenodd" clip-rule="evenodd" d="M225.416 322.507h20.553V343h-20.553v-20.493Z" fill="#fff"/></mask><g mask="url(#m)"><path fill-rule="evenodd" clip-rule="evenodd" d="M245.969 332.754c0 5.659-4.601 10.246-10.277 10.246-5.675 0-10.276-4.587-10.276-10.246 0-5.659 4.601-10.247 10.276-10.247 5.676 0 10.277 4.588 10.277 10.247Z" fill="#A4C2FF"/></g><path fill-rule="evenodd" clip-rule="evenodd" d="M234.326 227.453H9.194c-5.078 0-9.194-4.104-9.194-9.167s4.116-9.167 9.194-9.167h225.132c5.078 0 9.194 4.104 9.194 9.167s-4.116 9.167-9.194 9.167Z" fill="#CCDFFF"/><path fill-rule="evenodd" clip-rule="evenodd" d="m332.075 162.68-90.495 63.117c-4.161 2.902-9.893 1.891-12.804-2.257v-.001c-2.91-4.148-1.897-9.864 2.264-12.766l90.496-63.117c4.16-2.902 9.893-1.891 12.803 2.258 2.911 4.148 1.897 9.864-2.264 12.766Z" fill="#CCDFFF"/><path fill-rule="evenodd" clip-rule="evenodd" d="M290.733 233.895H23.109a3.226 3.226 0 0 1-3.23-3.221 3.226 3.226 0 0 1 3.23-3.221h267.624a3.226 3.226 0 0 1 3.231 3.221 3.226 3.226 0 0 1-3.231 3.221Z" fill="#A4C2FF"/><path fill-rule="evenodd" clip-rule="evenodd" d="M73.804 233.522v8.548c0 4.244-3.452 7.682-7.705 7.682H44.976c-4.253 0-7.7-3.438-7.7-7.682v-8.548h36.528Z" fill="#A4C2FF"/><path fill-rule="evenodd" clip-rule="evenodd" d="M66.097 240.089v8.177c0 .49-.044.97-.137 1.434a7.263 7.263 0 0 1-.5 1.624 7.703 7.703 0 0 1-7.067 4.624h-5.714a7.708 7.708 0 0 1-7.067-4.624 7.273 7.273 0 0 1-.5-1.624 7.28 7.28 0 0 1-.137-1.434v-8.177h21.122Z" fill="#A4C2FF"/><mask id="n" style="mask-type:alpha" maskUnits="userSpaceOnUse" x="137" y="287" width="76" height="52"><path fill-rule="evenodd" clip-rule="evenodd" d="M164.655 287.467c-2.427 1.011-5.657.866-6.184 1.059-.528.192 5.671 3.265 7.38 3.913 1.709.649 9.962 6.4 8.622 6.678-1.339.277-10.293-8.294-15.246-9.224-4.953-.93-10.493.406-11.786.472-1.293.066 5.718 3.054 7.436 4.459 1.718 1.405 4.981 3.2 1.084 3.883-1.928.337-4.722-.736-7.266-1.809-2.598-1.096-4.936-2.191-5.828-1.785-1.764.804-1.143 2.186-4.2 3.056-3.058.87-1.12 1.081-.355 3.205.766 2.125.123 7.84 2.14 9.49 2.017 1.649 19.077-2.748 21.62-3.289 2.544-.541 4.193 2.18-1.273 3.577-2.692.688-4.843.668-6.772.647-1.988-.02-3.74-.041-5.607.713-3.678 1.486-7.118 3.291-7.944 3.24-.826-.052 4.711 3.228 6.326 4.3 1.615 1.071 17.041-1.916 23.632-7.013 6.59-5.096 7.668-4.588 8.009-1.937.341 2.651-6.622 7.441-9.12 7.771-2.497.329-9.764 3.498-12.336 3.767-1.193.124-2.604-.01-3.749-.145-1.323-.155-2.291-.31-2.156-.066.253.456 8.352 8.703 13.519 7.062 5.167-1.641 17.153-10.813 20.592-14.616 3.44-3.803 3.828.634.048 5.781-3.78 5.147-10.072 8.49-12.406 9.078-2.333.588-7.402 1.186-7.239 1.444.163.259 5.508 3.008 8.356 4.088 2.848 1.081 8.972 2.095 11.221.689 2.25-1.406 7.004-14.37 9.362-14.064 2.357.305 2.783 7.769-.792 11.586s-9.498 4.09-7.986 4.828c1.513.738 7.623 1.616 12.08-1.605 4.458-3.22 13.778-11.701 14.253-15.057.476-3.356-1.229-8.62-6.051-10.941-4.822-2.321-4.949-5.545-4.949-5.545 2.023-.823 4.742.048 7.088.918 2.146.796 3.98 1.593 4.68 1.092 1.466-1.049-8.861-6.997-10.084-8.248-1.223-1.249-5.564-3.552-5.807-3.251-.243.301 3.343 5.231 1.149 5.184-2.194-.047-4.118-8.112-5.295-9.573-1.176-1.462-8.444-2.288-11.338-3.157-2.894-.869-5.611-1.343-4.701-.474.91.87 4.402 2.227 8.067 6.598 3.665 4.37 5.803 7.867 2.625 6.89-3.179-.977-8.208-7.961-13.52-11.057-3.725-2.171-5.605-3.079-7.232-3.079-.694 0-1.341.165-2.067.467Z" fill="#fff"/></mask><g mask="url(#n)"><path fill-rule="evenodd" clip-rule="evenodd" d="M164.655 287.467c-2.427 1.011-5.657.866-6.184 1.059-.528.192 5.671 3.265 7.38 3.913 1.709.649 9.962 6.4 8.622 6.678-1.339.277-10.293-8.294-15.246-9.224-4.953-.93-10.493.406-11.786.472-1.293.066 5.718 3.054 7.436 4.459 1.718 1.405 4.981 3.2 1.084 3.883-1.928.337-4.722-.736-7.266-1.809-2.598-1.096-4.936-2.191-5.828-1.785-1.764.804-1.143 2.186-4.2 3.056-3.058.87-1.12 1.081-.355 3.205.766 2.125.123 7.84 2.14 9.49 2.017 1.649 19.077-2.748 21.62-3.289 2.544-.541 4.193 2.18-1.273 3.577-2.692.688-4.843.668-6.772.647-1.988-.02-3.74-.041-5.607.713-3.678 1.486-7.118 3.291-7.944 3.24-.826-.052 4.711 3.228 6.326 4.3 1.615 1.071 17.041-1.916 23.632-7.013 6.59-5.096 7.668-4.588 8.009-1.937.341 2.651-6.622 7.441-9.12 7.771-2.497.329-9.764 3.498-12.336 3.767-1.193.124-2.604-.01-3.749-.145-1.323-.155-2.291-.31-2.156-.066.253.456 8.352 8.703 13.519 7.062 5.167-1.641 17.153-10.813 20.592-14.616 3.44-3.803 3.828.634.048 5.781-3.78 5.147-10.072 8.49-12.406 9.078-2.333.588-7.402 1.186-7.239 1.444.163.259 5.508 3.008 8.356 4.088 2.848 1.081 8.972 2.095 11.221.689 2.25-1.406 7.004-14.37 9.362-14.064 2.357.305 2.783 7.769-.792 11.586s-9.498 4.09-7.986 4.828c1.513.738 7.623 1.616 12.08-1.605 4.458-3.22 13.778-11.701 14.253-15.057.476-3.356-1.229-8.62-6.051-10.941-4.822-2.321-4.949-5.545-4.949-5.545 2.023-.823 4.742.048 7.088.918 2.146.796 3.98 1.593 4.68 1.092 1.466-1.049-8.861-6.997-10.084-8.248-1.223-1.249-5.564-3.552-5.807-3.251-.243.301 3.343 5.231 1.149 5.184-2.194-.047-4.118-8.112-5.295-9.573-1.176-1.462-8.444-2.288-11.338-3.157-2.894-.869-5.611-1.343-4.701-.474.91.87 4.402 2.227 8.067 6.598 3.665 4.37 5.803 7.867 2.625 6.89-3.179-.977-8.208-7.961-13.52-11.057-3.725-2.171-5.605-3.079-7.232-3.079-.694 0-1.341.165-2.067.467Z" fill="url(#o)"/></g><path fill-rule="evenodd" clip-rule="evenodd" d="M215.025 315.236h5.838v-72.537h-5.838v72.537Z" fill="#8FB1F2"/><path fill-rule="evenodd" clip-rule="evenodd" d="M236.203 233.739v8.585c0 4.263-3.45 7.716-7.701 7.716h-21.115c-4.251 0-7.698-3.453-7.698-7.716v-8.585h36.514Z" fill="#A4C2FF"/><path fill-rule="evenodd" clip-rule="evenodd" d="M228.501 240.334v8.212c0 .493-.044.974-.138 1.441a7.7 7.7 0 0 1-7.563 6.274h-5.712a7.704 7.704 0 0 1-7.563-6.274 7.29 7.29 0 0 1-.138-1.441v-8.212h21.114Z" fill="#A4C2FF"/><path fill-rule="evenodd" clip-rule="evenodd" d="M43.45 333.401A5.594 5.594 0 0 1 37.86 339a5.594 5.594 0 0 1-5.588-5.599 5.594 5.594 0 0 1 5.588-5.599 5.594 5.594 0 0 1 5.59 5.599Zm197.347 0a5.594 5.594 0 0 1-5.589 5.599 5.595 5.595 0 0 1-5.589-5.599 5.595 5.595 0 0 1 5.589-5.599 5.594 5.594 0 0 1 5.589 5.599Z" fill="#77A2F2"/><path fill-rule="evenodd" clip-rule="evenodd" d="m305.999 135.325-2.235 16.423-21.115 17.753-13.786-7.925s5.131-3.072 8.588-6.192c2.273-2.049 3.823-4.121 2.735-5.353a1.279 1.279 0 0 0-.141-.145l-.004-.004c-3.353-2.986-5.339-5.972-1.49-11.571 3.852-5.599 16.148-12.941 16.148-12.941l4.966-1.37 6.334 11.325Z" fill="#FEDCDB"/><path fill-rule="evenodd" clip-rule="evenodd" d="M65.68 209.485h118.11v-12.223H65.68v12.223Z" fill="#283DA3"/><path fill-rule="evenodd" clip-rule="evenodd" d="m31.091 185.901-1.063-5.557s-2.297-4.292-3.353-5.536c-1.056-1.244-3.767-2.738-4.285 1.182-.497 3.763.119 8.415 1.423 10.531 1.304 2.115 2.298 8.525 2.298 8.525l11.004 9.02v-9.518l-6.024-8.647Z" fill="#1E0A4F"/><path fill-rule="evenodd" clip-rule="evenodd" d="M30.03 180.344s1.932 3.748 3.733 6.176c1.8 2.429 4.595 9.023 7.98 9.77 3.384.746 9.345-.809 9.345-.809l1.553 4.915-11.178 1.679-7.949-3.235s-3.167-7.154-4.098-11.322c-.932-4.168.613-7.174.613-7.174Z" fill="#FECAC9"/><path fill-rule="evenodd" clip-rule="evenodd" d="m51.026 202.386-1.967-6.459s29.222-6.433 46.983-12.903c17.76-6.47 31.361.696 39.806 1.57 8.445.874 56.513-1.57 56.513-1.57l-88.179 16.1-53.156 3.262Z" fill="#283DA3"/><path fill-rule="evenodd" clip-rule="evenodd" d="m57.11 198.591-4.906-.435s-8.942 2.364-12.792 1.618c-3.85-.747-9.004-6.408-12.606-8.274a121.08 121.08 0 0 1-2.133-1.132c-2-1.089-2.773-1.606-2.773-1.606s3.789 9.954 3.85 10.265c.063.311 3.602 5.786 3.602 5.786l9.067 4.417s2.856-1.369 11.24-.312c8.383 1.058 11.922.312 11.922.312l-4.47-10.639Z" fill="#FEDCDB"/><path fill-rule="evenodd" clip-rule="evenodd" d="M20.411 186.585c-2.05-2.551-4.347-3.608-5.589-2.551-1.242 1.058-1.141 2.675.745 7.331 1.715 4.232 5.45 7.74 7.7 9.591 1.402 1.152 1.347 2.326 2.04 3.794.872 1.853 1.361 3.579 3.239 5.102 2.608 2.115 9.873-.622 9.873-.622s-7.017-6.221-10.246-11.012c-3.229-4.79-3.499-7.85-3.499-7.85l-4.263-3.783Zm144.339-22.599-.666-1.335c.187-.095 4.624-2.398 4.93-7.653.313-5.385.896-15.409 11.333-15.816.125-.005.249-.008.373-.008 9.752 0 16.685 14.914 16.979 15.556l-1.355.622c-.069-.15-6.977-15.031-15.939-14.679-8.384.328-9.508 7.611-9.904 14.412-.357 6.135-5.531 8.791-5.751 8.901Z" fill="#1E0A4F"/><path fill-rule="evenodd" clip-rule="evenodd" d="M42.58 315.236a5.718 5.718 0 0 0-5.713 5.723v11.447a.994.994 0 1 0 1.987 0v-9.332c0-1.168.946-2.115 2.112-2.115h190.206a3.046 3.046 0 0 1 3.043 3.049v8.398a.994.994 0 1 0 1.987 0v-11.447a5.718 5.718 0 0 0-5.713-5.723H42.58Z" fill="#8FB1F2"/><path fill-rule="evenodd" clip-rule="evenodd" d="M227.881 172.028s-8.321 3.359-13.258 7.278c-4.936 3.92-22.262 3.718-22.262 3.718s1.078 16.501 4.711 21.353c.39.521 1.78 4.833 2.896 4.853 5.222.091 26.325.744 35.8-4.604 7.371-4.161 4.098-14.616 4.098-14.616l-6.706-15.183-5.279-2.799Z" fill="#FEDCDB"/><path fill-rule="evenodd" clip-rule="evenodd" d="M192.859 185.832s3.011 4.792 6.613 6.925c3.601 2.133 10.955-1.278 18.103-1.392 7.148-.113 14.718-3.223 14.127-8.341-.592-5.118-1.92-8.104-1.92-8.104l9.041 12.726s-5.384 10.697-5.85 10.79c-.465.093-40.612 7.185-40.612 7.185l.498-19.789Z" fill="#FECAC9"/><mask id="p" style="mask-type:alpha" maskUnits="userSpaceOnUse" x="228" y="160" width="54" height="43"><path fill-rule="evenodd" clip-rule="evenodd" d="M259.328 160.011c-12.157.251-17.416 1.878-20.423 3.872-1.263.838-1.909 1.807-2.853 2.862h-.004c-1.3 1.455-3.18 3.074-8.048 4.739 0 0 4.312 9.95 7.18 18.748 1.59 4.87 2.737 9.389 2.47 11.674-.752 6.419 30.377-17.513 30.377-17.513l13.623-9.427s1.263-3.681-1.008-7.507c-2.201-3.714-8.744-7.459-20.217-7.459-.36 0-.727.004-1.097.011Z" fill="#fff"/></mask><g mask="url(#p)"><path fill-rule="evenodd" clip-rule="evenodd" d="M259.328 160.011c-12.157.251-17.416 1.878-20.423 3.872-1.263.838-1.909 1.807-2.853 2.862h-.004c-1.3 1.455-3.18 3.074-8.048 4.739 0 0 4.312 9.95 7.18 18.748 1.59 4.87 2.737 9.389 2.47 11.674-.752 6.419 30.377-17.513 30.377-17.513l13.623-9.427s1.263-3.681-1.008-7.507c-2.201-3.714-8.744-7.459-20.217-7.459-.36 0-.727.004-1.097.011Z" fill="url(#q)"/></g><path fill-rule="evenodd" clip-rule="evenodd" d="m258.247 174.066-19.709 18.329-3.112-2.019c-2.843-8.76-7.117-18.667-7.117-18.667 4.826-1.658 6.689-3.27 7.978-4.719h.004c-.529 4.346.961 9.926 9.659 9.311 8.694-.618 12.297-2.235 12.297-2.235Z" fill="#E85959"/><path fill-rule="evenodd" clip-rule="evenodd" d="M192.783 182.681s-54.965-5.507-65.027-6.75c-10.061-1.243-37.761 8.627-75.15 21.849 0 0 1.428 5.335.993 11.108 0 0 23.29.624 43.227-1.797 19.937-2.421 22.67-5.4 27.638-4.283 4.969 1.117 44.264 6.03 71.86 6.03 12.854 0 4.527-1.198 1.798-6.402-3.13-5.968-5.339-19.755-5.339-19.755Z" fill="#324BCA"/><path fill-rule="evenodd" clip-rule="evenodd" d="M177.643 200.799s1.305.134-5.279-.616c-6.583-.75-9.378-1.743-11.738-1.185-2.36.559-7.329 3.352-8.136 4.097-.808.745-2.77 1.99-2.795 2.67 0 0-.621.434-.497 1.179.124.745 1.832.528 1.832.528s-.155.558.404.869c.559.31 1.956 0 1.956 0s.466.869 1.491.869c1.025 0 2.989-.955 4.41-1.335 1.421-.379 2.211-.738 5.81-.012 3.599.726 11.338 1.885 11.739.824.4-1.06.803-7.888.803-7.888Z" fill="#FEDCDB"/><path fill-rule="evenodd" clip-rule="evenodd" d="M295.819 120.962c-2.663 3.727 2.733 8.598 2.733 10.46s-3.023 4.842-2.07 7.014c.952 2.173 1.636 1.862 3.437 2.235 1.801.372 3.788 3.29.683 5.338-3.106 2.049-5.59.932-6.708 3.911-1.118 2.98-3.292 8.629-9.999 13.657-6.708 5.028-6.025 15.891 2.422 18.56 8.447 2.67 13.043-5.152 15.03-8.939 1.988-3.786 10.745-6.393 15.838-13.284 5.092-6.89 5.292-15.719 1.689-21.243-3.602-5.525-5.385-11.47-8.614-15.009-3.23-3.538-10.404-8.349-14.441-2.7Z" fill="#1E0A4F"/><mask id="r" style="mask-type:alpha" maskUnits="userSpaceOnUse" x="0" y="0" width="424" height="343"><path fill-rule="evenodd" clip-rule="evenodd" d="M0 343h424V0H0v343Z" fill="#fff"/></mask><g mask="url(#r)" fill-rule="evenodd" clip-rule="evenodd"><path d="M37.266 237.446h36.52v-3.788h-36.52v3.788Zm162.847 0h36.52v-3.788h-36.52v3.788Zm-155.01 12.053h20.843a7.297 7.297 0 0 1-.5 1.627H45.603l-.5-1.627Zm183.688 0a7.292 7.292 0 0 1-.499 1.627h-19.844a7.344 7.344 0 0 1-.499-1.627h20.842Z" fill="#8FB1F2"/><path d="M384.924 184.626h25.197v-10.194h-25.197v10.194Z" fill="#CCDFFF"/><path d="M384.924 176.081h25.197v-1.649h-25.197v1.649Z" fill="#A4C2FF"/><path d="M383.648 174.432h27.748v-4.535h-27.748v4.535Z" fill="#CCDFFF"/><path d="M403.353 169.897h-11.662a3.487 3.487 0 0 1 3.487-3.485h4.687a3.487 3.487 0 0 1 3.488 3.485ZM350.468 332.4c-.85 0-1.573-1.209-1.706-2.851l-.768-9.44h4.948l-.768 9.44c-.133 1.642-.856 2.851-1.706 2.851Zm58.205 0c-.849 0-1.573-1.209-1.706-2.851l-.768-9.44h4.948l-.768 9.44c-.133 1.642-.856 2.851-1.706 2.851Z" fill="#8FB1F2"/><path d="M357.299 330.693a6.83 6.83 0 0 1-6.832 6.828 6.83 6.83 0 0 1-6.832-6.828 6.83 6.83 0 0 1 6.832-6.829 6.83 6.83 0 0 1 6.832 6.829Z" fill="#A4C2FF"/><path d="M354.457 330.693a3.99 3.99 0 0 1-3.99 3.988 3.99 3.99 0 1 1 3.99-3.988Z" fill="#77A2F2"/><path d="M415.506 330.693a6.83 6.83 0 0 1-6.832 6.828 6.83 6.83 0 0 1-6.832-6.828 6.83 6.83 0 0 1 6.832-6.829 6.83 6.83 0 0 1 6.832 6.829Z" fill="#A4C2FF"/><path d="M412.664 330.693a3.99 3.99 0 0 1-3.99 3.988 3.99 3.99 0 1 1 3.99-3.988Z" fill="#77A2F2"/><path d="M341.348 321.678h76.516V191.32h-76.516v130.358Z" fill="#CCDFFF"/><path d="M341.348 194.299h76.516v-2.979h-76.516v2.979Z" fill="#8FB1F2"/><path d="M407.725 312.241h-56.239a1.94 1.94 0 0 1-1.941-1.94v-19.212a1.94 1.94 0 0 1 1.941-1.94h56.239a1.94 1.94 0 0 1 1.94 1.94v19.212a1.94 1.94 0 0 1-1.94 1.94Zm0-29.051h-56.239a1.94 1.94 0 0 1-1.941-1.94v-19.213a1.94 1.94 0 0 1 1.941-1.939h56.239a1.94 1.94 0 0 1 1.94 1.939v19.213a1.94 1.94 0 0 1-1.94 1.94Zm0-29.052h-56.239a1.94 1.94 0 0 1-1.941-1.94v-19.212a1.94 1.94 0 0 1 1.941-1.94h56.239a1.94 1.94 0 0 1 1.94 1.94v19.212a1.94 1.94 0 0 1-1.94 1.94Zm0-29.051h-56.239a1.94 1.94 0 0 1-1.941-1.94v-19.212a1.94 1.94 0 0 1 1.941-1.94h56.239a1.94 1.94 0 0 1 1.94 1.94v19.212a1.94 1.94 0 0 1-1.94 1.94Z" fill="#fff"/><path d="M420.118 192.187H339.09a3.88 3.88 0 0 1-3.881-3.879 3.88 3.88 0 0 1 3.881-3.879h81.028a3.88 3.88 0 1 1 0 7.758Z" fill="#A4C2FF"/><path d="M373.213 184.454H357.24v-25.912a4.86 4.86 0 0 1 4.861-4.859h6.25a4.86 4.86 0 0 1 4.862 4.859v25.912Z" fill="#CCDFFF"/><path d="M361.457 153.73h7.539v-3.517h-7.539v3.517Z" fill="#A4C2FF"/><path d="M371.825 145.315h-6.54a1.871 1.871 0 0 0-1.871 1.871v3.913h3.704v-4.125l4.707-.637v-1.022Zm-14.585 28.728h15.973v-12.956H357.24v12.956Zm43.233 41.981h-41.737a1.614 1.614 0 1 1 0-3.228h41.737a1.614 1.614 0 0 1 0 3.228Z" fill="#A4C2FF"/><path d="M400.473 215.155h-41.737a1.614 1.614 0 1 1 0-3.228h41.737a1.614 1.614 0 0 1 0 3.228Z" fill="#CCDFFF"/><path d="M400.473 244.641h-41.737a1.615 1.615 0 1 1 0-3.228h41.737a1.614 1.614 0 0 1 0 3.228Z" fill="#A4C2FF"/><path d="M400.473 243.772h-41.737a1.615 1.615 0 1 1 0-3.228h41.737a1.614 1.614 0 0 1 0 3.228Z" fill="#CCDFFF"/><path d="M400.473 273.226h-41.737a1.614 1.614 0 1 1 0-3.227h41.737a1.614 1.614 0 1 1 0 3.227Z" fill="#A4C2FF"/><path d="M400.473 272.357h-41.737a1.614 1.614 0 1 1 0-3.228h41.737a1.614 1.614 0 0 1 0 3.228Z" fill="#CCDFFF"/><path d="M400.473 301.843h-41.737a1.614 1.614 0 1 1 0-3.228h41.737a1.614 1.614 0 0 1 0 3.228Z" fill="#A4C2FF"/><path d="M400.473 300.974h-41.737a1.615 1.615 0 1 1 0-3.228h41.737a1.614 1.614 0 0 1 0 3.228Z" fill="#CCDFFF"/><path d="m242.576 47.217-23.272 37.338h-9.04l23.272-37.338h9.04Zm9.267 0-23.272 37.338h-4.52l23.272-37.338h4.52Zm-21.598 0-23.272 37.338h-2.262l23.272-37.338h2.262Zm33.45 10.35v3.624l-14.56 23.364h-2.258l16.818-26.988Z" fill="#fff"/><path d="m214.855 181.096-13.416 4.951a.898.898 0 0 1-1.153-.53l-1.347-3.646 15.1-5.572 1.347 3.645a.896.896 0 0 1-.531 1.152Z" fill="#1E0A4F"/><path d="m214.039 176.299-15.1 5.572 1.812-5.766 8.162-3.013 5.126 3.207Z" fill="#283DA3"/><path d="M197.444 154.759a2.977 2.977 0 0 0-1.83 3.622l5.137 17.724 8.06-2.975-7.62-16.807a2.982 2.982 0 0 0-3.747-1.564Z" fill="#324BCA"/><path d="M184.212 168.232s.807.683 2.422 0c1.615-.683 5.528-4.283 7.08-5.09 1.553-.807 4.721-.931 6.646-.931 1.925 0 8.447 1.055 7.826 2.731 0 0 1.459.854 1.552 1.785.093.931-.652 1.257-.652 1.257s.839.45-.046 1.342c-.886.893-5.963.241-5.963.241s2.795.977 3.96 1.583c1.164.605 1.676 1.49 1.304 1.862-.373.373-1.165.14-3.54-.559-2.376-.698-4.705-.558-6.289-.279-1.584.279-9.968 5.494-12.903 5.447-2.934-.046-3.4-1.909-5.496-2.281-2.096-.373 2.515-6.378 2.515-6.378l1.584-.73Z" fill="#FEDCDB"/><path d="M135.147 99.577c-5.822 0-9.068 9.932-7.577 27.313 1.49 17.381 4.471 34.266 6.211 35.135 1.738.869 13.744 7.469 47.531 13.801 0 0 .54-6.104 2.9-7.594 0 0-30.639-16.513-34.895-18.476-2.422-1.117-2.991-25.473-3.363-32.177-.373-6.704-2.857-18.002-10.807-18.002Z" fill="#75D2FE"/><path d="M151.215 86.851s-6.15-1.108-10.566-12.038c0 0-1.48 11.604 8.371 17.656l2.195-5.618Zm141.252 63.691s-5.337 6.325-14.578 4.559c2.273-2.045 3.823-4.112 2.735-5.341.674.633 3.808 2.942 11.843.782Z" fill="#FECAC9"/></g><mask id="s" style="mask-type:alpha" maskUnits="userSpaceOnUse" x="175" y="170" width="100" height="39"><path fill-rule="evenodd" clip-rule="evenodd" d="M251.922 175.762c-8.858 4.633-26.073 15.527-31.938 16.782-4.899 1.045-33.034 5.774-42.14 7.3-.004-.004-.004 0-.004 0l-2.84.473s2.305 4.88.558 8.637c0 0 15.737.184 30.486-.184 11.796-.293 22.87-1.007 25.418-1.95 4.012-1.491 14.18-7.198 21.983-12.085.004-.004.008-.004.011-.004 3.354-2.104 6.265-4.046 8.069-5.44 6.003-4.636 11.448-8.551 12.724-11.556 1.28-3.006.678-5.65 0-6.105-1.694-1.139-3.609-1.63-5.704-1.63-4.769 0-10.471 2.544-16.623 5.762Z" fill="#fff"/></mask><g mask="url(#s)"><path fill-rule="evenodd" clip-rule="evenodd" d="M251.922 175.762c-8.858 4.633-26.073 15.527-31.938 16.782-4.899 1.045-33.034 5.774-42.14 7.3-.004-.004-.004 0-.004 0l-2.84.473s2.305 4.88.558 8.637c0 0 15.737.184 30.486-.184 11.796-.293 22.87-1.007 25.418-1.95 4.012-1.491 14.18-7.198 21.983-12.085.004-.004.008-.004.011-.004 3.354-2.104 6.265-4.046 8.069-5.44 6.003-4.636 11.448-8.551 12.724-11.556 1.28-3.006.678-5.65 0-6.105-1.694-1.139-3.609-1.63-5.704-1.63-4.769 0-10.471 2.544-16.623 5.762Z" fill="url(#t)"/></g><path fill-rule="evenodd" clip-rule="evenodd" d="M253 195c-7.759 4.797-17.869 10.397-21.858 11.861-2.534.925-13.545 1.626-25.275 1.913-14.665.361-30.313.181-30.313.181 1.738-3.687-.554-8.476-.554-8.476s1.046-.174 2.824-.465c0 0 0-.004.004 0 3.446.985 7.446 3.038 22.011 3.466 18.773.553 23.071 3.934 30.473-.461 4.279-2.54 13.169-4.638 22.688-8.019Z" fill="#E85959"/></g><defs><linearGradient id="b" x1="154.518" y1="-6.499" x2="159.764" y2="82.451" gradientUnits="userSpaceOnUse"><stop stop-color="#FD60CA"/><stop offset="1" stop-color="#FD6060"/></linearGradient><linearGradient id="e" x1="221" y1="317" x2="288" y2="317" gradientUnits="userSpaceOnUse"><stop stop-color="#CCDFFF"/><stop offset="1" stop-color="#EDF4FF"/></linearGradient><linearGradient id="g" x1="216" y1="318" x2="248" y2="318" gradientUnits="userSpaceOnUse"><stop stop-color="#CCDFFF"/><stop offset="1" stop-color="#EDF4FF"/></linearGradient><linearGradient id="i" x1="169" y1="319" x2="220" y2="319" gradientUnits="userSpaceOnUse"><stop stop-color="#CCDFFF"/><stop offset="1" stop-color="#EDF4FF"/></linearGradient><linearGradient id="k" x1="226" y1="329" x2="300" y2="329" gradientUnits="userSpaceOnUse"><stop stop-color="#CCDFFF"/><stop offset="1" stop-color="#EDF4FF"/></linearGradient><linearGradient id="o" x1="161.688" y1="277.725" x2="143.787" y2="325.126" gradientUnits="userSpaceOnUse"><stop stop-color="#CCDFFF"/><stop offset="1" stop-color="#EDF4FF"/></linearGradient><linearGradient id="q" x1="228" y1="203" x2="282" y2="203" gradientUnits="userSpaceOnUse"><stop stop-color="#FD60CA"/><stop offset="1" stop-color="#FD6060"/></linearGradient><linearGradient id="t" x1="175" y1="209" x2="275" y2="209" gradientUnits="userSpaceOnUse"><stop stop-color="#FD60CA"/><stop offset="1" stop-color="#FD6060"/></linearGradient></defs></svg>