<svg width="40" height="47" fill="none" xmlns="http://www.w3.org/2000/svg"><path clip-rule="evenodd" d="M27.419 19.26c-1.046 1.47-8.027 4.48-10.767 4.48v11.628c0 5.002 10.163 10.474 10.761 10.632.598-.158 10.76-6.012 10.76-10.072V23.74c-2.989 0-9.708-3.01-10.754-4.48Z" stroke="#EF3F6B" stroke-width="2" stroke-linejoin="round"/><path clip-rule="evenodd" d="M29.696 30.348v-3.913h-3.913v3.913H21.87v3.913h3.913v3.913h3.913V34.26h3.913v-3.913h-3.913Z" stroke="#EF3F6B" stroke-width="2"/><path d="M15.063 40.13H1V1h29.348v16.63M7.522 11.435h15.652M7.522 8.174h15.652M7.522 16h15.652m-15 16.304h4.565" stroke="#EF3F6B" stroke-width="2" stroke-linecap="round" stroke-linejoin="round"/></svg>