<svg width="250.000000" height="250.000000" viewBox="0 0 250 250" fill="none" xmlns="http://www.w3.org/2000/svg" xmlns:xlink="http://www.w3.org/1999/xlink">
	
	<defs>
		<clipPath id="clip225_681">
			<rect id="fi_149452" rx="0.000000" width="160.000000" height="160.000000" transform="translate(45.500000 45.500000)" fill="white" fill-opacity="0"/>
		</clipPath>
	</defs>
	<rect id="Rectangle 18" width="250.000000" height="250.000000" fill="#ADBFD7" fill-opacity="1.000000"/>
	<g opacity="0.500000">
		<rect id="fi_149452" rx="0.000000" width="160.000000" height="160.000000" transform="translate(45.500000 45.500000)" fill="#FFFFFF" fill-opacity="0"/>
		<g clip-path="url(#clip225_681)">
			<path id="Vector" d="M206 125.5C206 81.11 169.88 45 125.5 45C81.11 45 45 81.11 45 125.5C45 148.94 55.08 170.07 71.12 184.8L71.05 184.86L73.66 187.06C73.83 187.21 74.01 187.33 74.18 187.47C75.57 188.62 77.01 189.71 78.47 190.77C78.95 191.11 79.42 191.45 79.9 191.78C81.47 192.86 83.07 193.88 84.71 194.85C85.07 195.06 85.43 195.27 85.79 195.47C87.58 196.49 89.41 197.46 91.29 198.34C91.43 198.41 91.57 198.46 91.71 198.53C97.82 201.37 104.35 203.46 111.18 204.69C111.35 204.72 111.53 204.75 111.71 204.79C113.83 205.15 115.98 205.45 118.15 205.64C118.41 205.66 118.67 205.68 118.94 205.7C121.1 205.88 123.28 206 125.5 206C127.69 206 129.85 205.88 132 205.71C132.27 205.69 132.54 205.67 132.82 205.65C134.97 205.45 137.09 205.17 139.19 204.81C139.37 204.77 139.56 204.74 139.74 204.71C146.46 203.5 152.9 201.46 158.93 198.69C159.16 198.59 159.38 198.49 159.6 198.39C161.41 197.54 163.17 196.62 164.91 195.65C165.34 195.4 165.76 195.16 166.19 194.91C167.77 193.98 169.31 193.01 170.82 191.98C171.36 191.61 171.89 191.22 172.43 190.84C173.71 189.91 174.97 188.96 176.2 187.96C176.47 187.74 176.76 187.55 177.03 187.32L179.71 185.09L179.63 185.02C195.82 170.29 206 149.06 206 125.5ZM50.85 125.5C50.85 84.33 84.33 50.85 125.5 50.85C166.66 50.85 200.14 84.33 200.14 125.5C200.14 147.67 190.41 167.62 175 181.3C174.14 180.7 173.27 180.17 172.38 179.73L147.6 167.34C145.37 166.22 143.99 163.99 143.99 161.5L143.99 152.85C144.57 152.14 145.17 151.33 145.8 150.45C149.01 145.92 151.58 140.88 153.46 135.46C157.17 133.69 159.56 130 159.56 125.83L159.56 115.45C159.56 112.91 158.63 110.45 156.96 108.52L156.96 94.86C157.12 93.34 157.65 84.76 151.45 77.69C146.06 71.53 137.32 68.41 125.5 68.41C113.67 68.41 104.93 71.53 99.54 77.69C93.34 84.76 93.87 93.33 94.03 94.85L94.03 108.51C92.36 110.45 91.43 112.91 91.43 115.45L91.43 125.83C91.43 129.05 92.88 132.06 95.35 134.08C97.72 143.37 102.6 150.4 104.41 152.79L104.41 161.26C104.41 163.65 103.1 165.84 101.01 166.99L77.86 179.61C77.12 180.02 76.39 180.48 75.66 181.01C60.44 167.33 50.85 147.51 50.85 125.5ZM169.28 185.89C168.26 186.63 167.22 187.35 166.16 188.04C165.68 188.36 165.19 188.67 164.7 188.98C163.32 189.84 161.91 190.65 160.48 191.41C160.16 191.58 159.84 191.74 159.52 191.9C156.23 193.59 152.82 195.04 149.31 196.22C149.19 196.26 149.07 196.31 148.94 196.35C147.1 196.96 145.25 197.5 143.37 197.96C143.36 197.96 143.35 197.97 143.35 197.97C141.45 198.43 139.53 198.82 137.6 199.14C137.55 199.15 137.49 199.16 137.44 199.17C135.62 199.47 133.79 199.68 131.95 199.84C131.63 199.87 131.3 199.89 130.98 199.92C129.16 200.05 127.33 200.14 125.5 200.14C123.64 200.14 121.79 200.05 119.95 199.91C119.63 199.89 119.31 199.87 118.99 199.84C117.14 199.68 115.29 199.46 113.46 199.16C113.38 199.14 113.3 199.13 113.22 199.11C109.35 198.47 105.54 197.52 101.83 196.27C101.71 196.23 101.6 196.19 101.48 196.15C99.64 195.53 97.82 194.83 96.03 194.07C96.02 194.06 96.01 194.06 95.99 194.05C94.3 193.32 92.64 192.51 91 191.66C90.79 191.55 90.57 191.44 90.36 191.33C88.87 190.53 87.4 189.67 85.96 188.77C85.53 188.5 85.11 188.22 84.69 187.95C83.36 187.08 82.05 186.17 80.77 185.22C80.64 185.12 80.51 185.01 80.38 184.91C80.47 184.86 80.57 184.81 80.66 184.76L103.81 172.13C107.79 169.96 110.26 165.79 110.26 161.26L110.26 150.71L109.59 149.9C109.52 149.83 103.19 142.13 100.8 131.7L100.53 130.55L99.54 129.9C98.13 128.99 97.28 127.47 97.28 125.82L97.28 115.45C97.28 114.09 97.86 112.82 98.92 111.87L99.88 110.99L99.88 94.69L99.86 94.3C99.85 94.23 98.98 87.19 103.94 81.54C108.17 76.72 115.43 74.27 125.5 74.27C135.52 74.27 142.75 76.7 147 81.49C151.95 87.08 151.14 94.25 151.14 94.31L151.11 111L152.08 111.87C153.13 112.82 153.71 114.09 153.71 115.45L153.71 125.83C153.71 127.92 152.28 129.81 150.25 130.44L148.79 130.89L148.33 132.34C146.6 137.7 144.14 142.66 141.02 147.07C140.25 148.15 139.5 149.11 138.86 149.84L138.14 150.67L138.14 161.5C138.14 166.22 140.76 170.46 144.98 172.57L169.77 184.96C169.93 185.04 170.08 185.12 170.24 185.21C169.92 185.44 169.6 185.66 169.28 185.89Z" fill="#FFFFFF" fill-opacity="1.000000" fill-rule="nonzero"/>
		</g>
	</g>
</svg>
