<svg width="24.000000" height="24.000000" viewBox="0 0 24 24" fill="none" xmlns="http://www.w3.org/2000/svg" xmlns:xlink="http://www.w3.org/1999/xlink">
	
	<defs/>
	<rect id="Rectangle 55" width="24.000000" height="24.000000" fill="#11244B" fill-opacity="1.000000"/>
	<path id="Vector" d="M11.99 6.35L18.27 10.15L5.72 10.15L11.99 6.35ZM18.35 16.22L18.35 16.22C18.35 16.83 17.84 17.32 17.21 17.32L6.78 17.32C6.15 17.32 5.64 16.83 5.64 16.22L5.64 10.39C5.64 10.33 5.65 10.26 5.66 10.2L11.65 13.83C11.66 13.84 11.67 13.84 11.68 13.85C11.69 13.85 11.69 13.85 11.7 13.86C11.74 13.88 11.79 13.9 11.83 13.91C11.84 13.91 11.84 13.91 11.85 13.91C11.89 13.92 11.94 13.93 11.99 13.93L11.99 13.93C11.99 13.93 12 13.93 12 13.93C12.04 13.93 12.09 13.92 12.14 13.91C12.15 13.91 12.15 13.91 12.16 13.91C12.2 13.9 12.24 13.88 12.29 13.86C12.3 13.85 12.3 13.85 12.31 13.85C12.32 13.84 12.33 13.84 12.33 13.83L18.33 10.2C18.34 10.26 18.35 10.33 18.35 10.39L18.35 16.22Z" fill="#FFFFFF" fill-opacity="1.000000" fill-rule="nonzero"/>
</svg>
