<svg width="30.000000" height="30.000000" viewBox="0 0 30 30" fill="none" xmlns="http://www.w3.org/2000/svg" xmlns:xlink="http://www.w3.org/1999/xlink">
	
	<defs>
		<clipPath id="clip490_4376">
			<rect id="fi_17771340" rx="0.000000" width="29.000000" height="29.000000" transform="translate(0.500000 0.500000)" fill="white" fill-opacity="0"/>
		</clipPath>
	</defs>
	<rect id="fi_17771340" rx="0.000000" width="29.000000" height="29.000000" transform="translate(0.500000 0.500000)" fill="#FFFFFF" fill-opacity="0"/>
	<g clip-path="url(#clip490_4376)">
		<path id="Vector" d="M18.8 14.74C20.59 12.48 22.48 9.6 22.48 7.47C22.4 3.43 19.03 0.19 14.99 0.25C10.92 0.23 7.6 3.43 7.51 7.49C7.51 9.52 9.21 12.25 11.19 14.74C5.19 16.33 0.77 21.56 0.29 27.85C0.25 28.33 0.42 28.82 0.75 29.18C1.08 29.54 1.55 29.75 2.04 29.75L27.95 29.75C28.44 29.75 28.9 29.54 29.23 29.18C29.57 28.82 29.74 28.34 29.7 27.85C29.21 21.55 24.8 16.33 18.8 14.74ZM14.9 1.75L14.98 1.75C14.99 1.74 15 1.75 15.01 1.75C18.23 1.71 20.91 4.27 20.98 7.49C20.98 9.63 18.07 13.53 15.31 16.49C15.22 16.57 15.09 16.63 14.97 16.61C14.85 16.61 14.73 16.55 14.64 16.46C11.12 12.61 9.01 9.26 9.01 7.5C9.08 4.31 11.71 1.75 14.9 1.75ZM9.38 16.99L8.95 20.04C8.93 20.17 8.86 20.29 8.76 20.37L7.52 21.38C7.14 21.69 6.88 22.12 6.79 22.6L6.52 24.05C6.47 24.31 6.24 24.5 5.98 24.48L2.57 24.39C3.78 21.13 6.22 18.47 9.38 16.99ZM1.85 28.16C1.82 28.13 1.78 28.06 1.78 27.96C1.84 27.25 1.95 26.56 2.12 25.88L5.94 25.98L5.99 25.98C6.97 25.98 7.81 25.3 8 24.32L8.26 22.88C8.29 22.75 8.36 22.63 8.46 22.55L9.71 21.54C10.11 21.21 10.37 20.74 10.43 20.23L10.98 16.37C11.4 16.24 11.83 16.13 12.27 16.04C12.69 16.53 13.12 17.02 13.54 17.47C13.89 17.86 14.38 18.09 14.91 18.11C14.94 18.11 14.97 18.11 15 18.11C15.49 18.11 15.96 17.93 16.32 17.6C16.37 17.56 16.42 17.51 16.45 17.48C16.8 17.1 17.24 16.61 17.73 16.04C20.55 16.63 23.02 18.09 24.86 20.14L23.16 20.7C23.06 20.73 22.93 20.74 22.81 20.72L20.08 20.24C20.03 20.23 19.98 20.22 19.84 20.2C18.66 20.1 17.61 20.95 17.5 22.12L17.38 23.43C17.36 23.67 17.38 23.9 17.44 24.11L17.83 25.64C17.89 25.91 17.78 26.18 17.54 26.33L16.13 27.18C15.84 27.38 15.61 27.61 15.43 27.9L15.22 28.25L2.04 28.25C1.95 28.25 1.89 28.2 1.85 28.16ZM28.13 28.16C28.1 28.2 28.04 28.25 27.95 28.25L17.26 28.25L18.32 27.6C19.11 27.12 19.5 26.18 19.28 25.28L18.89 23.73C18.87 23.67 18.87 23.6 18.87 23.54L18.99 22.25C19.02 21.92 19.38 21.67 19.63 21.68L22.56 22.19C22.91 22.26 23.29 22.23 23.62 22.13L25.45 21.52C25.64 21.47 25.82 21.49 25.97 21.57C27.22 23.42 28.02 25.61 28.2 27.96C28.21 28.06 28.16 28.13 28.13 28.16Z" fill="#0F9EFF" fill-opacity="1.000000" fill-rule="nonzero"/>
		<path id="Vector" d="M18.21 7.7C18.21 5.93 16.77 4.48 15 4.48C13.22 4.48 11.78 5.93 11.78 7.7C11.78 9.48 13.22 10.92 15 10.92C16.77 10.92 18.21 9.48 18.21 7.7ZM13.28 7.7C13.28 6.75 14.05 5.98 15 5.98C15.94 5.98 16.71 6.75 16.71 7.7C16.71 8.65 15.94 9.42 15 9.42C14.05 9.42 13.28 8.65 13.28 7.7Z" fill="#0F9EFF" fill-opacity="1.000000" fill-rule="nonzero"/>
	</g>
</svg>
