<svg width="30.000000" height="30.000000" viewBox="0 0 30 30" fill="none" xmlns="http://www.w3.org/2000/svg" xmlns:xlink="http://www.w3.org/1999/xlink">
	
	<defs>
		<clipPath id="clip490_4340">
			<rect id="fi_18393922" rx="0.000000" width="29.000000" height="29.000000" transform="translate(0.500000 0.500000)" fill="white" fill-opacity="0"/>
		</clipPath>
	</defs>
	<rect id="fi_18393922" rx="0.000000" width="29.000000" height="29.000000" transform="translate(0.500000 0.500000)" fill="#FFFFFF" fill-opacity="0"/>
	<g clip-path="url(#clip490_4340)">
		<path id="Vector" d="M12.86 14.56C13.57 14.84 14.32 14.98 15.07 14.97C15.83 14.96 16.58 14.8 17.27 14.5C17.46 14.42 17.6 14.28 17.67 14.09C17.75 13.91 17.74 13.7 17.67 13.52C17.59 13.33 17.44 13.19 17.25 13.12C17.07 13.04 16.86 13.05 16.68 13.12C15.84 13.49 14.9 13.57 14.01 13.36C13.12 13.14 12.32 12.65 11.73 11.95C11.14 11.24 10.79 10.37 10.74 9.45C10.68 8.54 10.93 7.63 11.43 6.87C11.94 6.1 12.67 5.52 13.54 5.2C14.4 4.89 15.34 4.86 16.22 5.12C17.1 5.39 17.87 5.93 18.41 6.66C18.96 7.4 19.26 8.29 19.26 9.21L19.26 9.74L19.26 9.76C19.26 9.77 19.26 9.78 19.26 9.79C19.27 10.04 19.19 10.29 19.03 10.48C18.87 10.67 18.64 10.8 18.39 10.82C18.29 10.82 18.18 10.8 18.08 10.75C17.98 10.71 17.89 10.65 17.82 10.57C17.75 10.49 17.69 10.4 17.65 10.3C17.61 10.2 17.59 10.1 17.59 9.99L17.59 7.57C17.59 7.37 17.51 7.18 17.37 7.04C17.23 6.9 17.04 6.82 16.84 6.82C16.66 6.83 16.49 6.89 16.36 7.01C15.96 6.76 15.5 6.62 15.03 6.62C14.56 6.61 14.1 6.73 13.69 6.96C13.28 7.2 12.95 7.54 12.72 7.95C12.49 8.36 12.38 8.82 12.39 9.29C12.41 9.76 12.55 10.22 12.81 10.62C13.06 11.01 13.42 11.33 13.84 11.54C14.27 11.74 14.74 11.83 15.21 11.79C15.67 11.75 16.12 11.59 16.5 11.31C16.72 11.62 17.01 11.87 17.34 12.05C17.68 12.23 18.05 12.32 18.43 12.32C19.08 12.28 19.68 11.99 20.11 11.51C20.55 11.03 20.78 10.4 20.75 9.76C20.75 9.75 20.75 9.75 20.75 9.74L20.75 9.21C20.75 8.16 20.47 7.13 19.93 6.24C19.39 5.34 18.62 4.61 17.69 4.12C16.77 3.63 15.72 3.4 14.68 3.46C13.63 3.51 12.62 3.85 11.76 4.44C10.89 5.03 10.2 5.84 9.76 6.79C9.32 7.74 9.15 8.79 9.26 9.83C9.38 10.87 9.77 11.86 10.41 12.7C11.04 13.53 11.89 14.18 12.86 14.56L12.86 14.56ZM14.99 10.3C14.78 10.3 14.57 10.24 14.39 10.12C14.21 9.99 14.07 9.82 13.99 9.62C13.91 9.42 13.89 9.2 13.93 8.99C13.97 8.78 14.08 8.58 14.23 8.43C14.38 8.28 14.58 8.18 14.79 8.13C15 8.09 15.22 8.12 15.42 8.2C15.62 8.28 15.79 8.42 15.91 8.6C16.03 8.78 16.09 8.99 16.09 9.21C16.09 9.35 16.07 9.5 16.01 9.63C15.96 9.76 15.87 9.88 15.77 9.98C15.67 10.09 15.55 10.17 15.42 10.22C15.28 10.28 15.14 10.3 14.99 10.3Z" fill="#0F9EFF" fill-opacity="1.000000" fill-rule="nonzero"/>
		<path id="Vector" d="M29.6 10.16C29.49 9.83 29.33 9.52 29.11 9.26L25.08 4.42L25.08 3C25.08 2.27 24.79 1.58 24.28 1.06C23.76 0.54 23.06 0.25 22.33 0.25L7.65 0.25C6.92 0.25 6.22 0.54 5.71 1.06C5.19 1.58 4.9 2.27 4.9 3L4.9 4.43L0.88 9.26C0.47 9.75 0.25 10.37 0.25 11.02L0.25 24.99C0.25 26.25 0.75 27.45 1.64 28.34C2.53 29.23 3.74 29.73 5 29.74L25 29.74C26.23 29.74 27.41 29.26 28.3 28.39L28.31 28.39C28.76 27.94 29.13 27.42 29.37 26.83C29.62 26.25 29.75 25.62 29.75 24.99L29.75 11.02C29.74 10.74 29.7 10.47 29.62 10.22C29.61 10.19 29.61 10.18 29.6 10.16ZM27.66 26.83L18.71 19.07L28.25 11.81L28.25 24.99C28.25 25.65 28.04 26.29 27.66 26.83ZM27.92 10.17L25.08 12.33L25.08 6.77L27.92 10.17ZM7.65 1.75L22.33 1.75C22.67 1.75 22.98 1.89 23.22 2.12C23.45 2.35 23.58 2.67 23.58 3L23.58 13.47L17.56 18.07L16.64 17.27C16.18 16.88 15.6 16.67 14.99 16.67C14.39 16.67 13.81 16.88 13.35 17.27L12.44 18.06L6.4 13.46L6.4 3C6.4 2.67 6.53 2.35 6.77 2.12C7 1.89 7.32 1.75 7.65 1.75ZM2.33 26.84C1.95 26.29 1.75 25.65 1.75 24.99L1.75 11.8L11.28 19.07L2.33 26.84ZM4.9 12.32L2.08 10.17L4.9 6.77L4.9 12.32ZM15 28.24L5 28.24C4.46 28.23 3.93 28.09 3.47 27.84L14.33 18.41C14.51 18.25 14.75 18.17 14.99 18.17C15.24 18.17 15.47 18.25 15.66 18.41L26.53 27.84C26.06 28.1 25.53 28.23 25 28.24L15 28.24Z" fill="#0F9EFF" fill-opacity="1.000000" fill-rule="nonzero"/>
	</g>
</svg>
