<svg width="192.221924" height="48.554199" viewBox="0 0 192.222 48.5542" fill="none" xmlns="http://www.w3.org/2000/svg" xmlns:xlink="http://www.w3.org/1999/xlink">
	
	<defs/>
	<path id="Vector" d="M128.25 26.3C126.52 26.3 124.99 25.92 123.67 25.14C122.36 24.36 121.32 23.29 120.56 21.93C119.82 20.54 119.45 18.95 119.45 17.14C119.45 15.34 119.82 13.75 120.56 12.39C121.32 11.01 122.36 9.93 123.67 9.15C124.99 8.37 126.52 7.99 128.25 7.99C129.99 7.99 131.52 8.37 132.86 9.15C134.19 9.93 135.22 11.01 135.94 12.39C136.69 13.75 137.06 15.34 137.06 17.14C137.06 18.95 136.69 20.54 135.94 21.93C135.22 23.29 134.19 24.36 132.86 25.14C131.52 25.92 129.99 26.3 128.25 26.3ZM128.25 22.89C129.28 22.89 130.16 22.65 130.88 22.18C131.63 21.71 132.2 21.05 132.6 20.21C133.01 19.35 133.21 18.33 133.21 17.14C133.21 15.96 133.01 14.95 132.6 14.11C132.2 13.25 131.63 12.59 130.88 12.14C130.16 11.66 129.28 11.43 128.25 11.43C127.26 11.43 126.39 11.66 125.65 12.14C124.9 12.59 124.33 13.25 123.93 14.11C123.52 14.95 123.32 15.96 123.32 17.14C123.32 18.33 123.52 19.35 123.93 20.21C124.33 21.05 124.9 21.71 125.65 22.18C126.39 22.65 127.26 22.89 128.25 22.89Z" fill="#11244B" fill-opacity="1.000000" fill-rule="nonzero"/>
	<path id="Vector" d="M103.8 26L103.8 8.29L110.68 8.29C112.11 8.29 113.3 8.54 114.25 9.05C115.21 9.54 115.92 10.2 116.37 11.02C116.84 11.85 117.08 12.77 117.08 13.78C117.08 14.73 116.85 15.61 116.4 16.44C115.96 17.26 115.27 17.93 114.32 18.44C113.38 18.94 112.15 19.19 110.65 19.19L107.59 19.19L107.59 26L103.8 26ZM112.93 26L109.36 18.26L113.44 18.26L117.23 26L112.93 26ZM107.59 16.46L110.45 16.46C111.4 16.46 112.09 16.23 112.53 15.78C112.98 15.32 113.21 14.71 113.21 13.93C113.21 13.17 112.98 12.58 112.53 12.14C112.09 11.68 111.4 11.45 110.45 11.45L107.59 11.45L107.59 16.46Z" fill="#11244B" fill-opacity="1.000000" fill-rule="nonzero"/>
	<path id="Vector" d="M92.5 26L92.5 11.35L87.37 11.35L87.37 8.29L101.43 8.29L101.43 11.35L96.3 11.35L96.3 26L92.5 26Z" fill="#11244B" fill-opacity="1.000000" fill-rule="nonzero"/>
	<path id="Vector" d="M79.26 26.3C78 26.3 76.85 26.09 75.82 25.67C74.81 25.23 74.01 24.59 73.42 23.75C72.83 22.9 72.51 21.87 72.46 20.64L76.5 20.64C76.52 21.13 76.65 21.56 76.88 21.93C77.12 22.3 77.44 22.59 77.84 22.81C78.25 23.01 78.72 23.12 79.26 23.12C79.72 23.12 80.11 23.05 80.45 22.91C80.8 22.76 81.08 22.55 81.29 22.28C81.49 21.99 81.59 21.64 81.59 21.22C81.59 20.78 81.47 20.41 81.24 20.1C81 19.78 80.68 19.51 80.27 19.3C79.87 19.06 79.4 18.85 78.86 18.66C78.33 18.46 77.77 18.27 77.16 18.08C75.76 17.63 74.68 17.01 73.92 16.23C73.18 15.46 72.81 14.42 72.81 13.12C72.81 12.04 73.07 11.12 73.59 10.36C74.13 9.59 74.87 9 75.8 8.59C76.72 8.19 77.78 7.99 78.96 7.99C80.17 7.99 81.24 8.2 82.17 8.62C83.1 9.02 83.83 9.62 84.37 10.42C84.91 11.19 85.2 12.12 85.23 13.2L81.16 13.2C81.14 12.83 81.03 12.49 80.83 12.19C80.64 11.88 80.38 11.64 80.05 11.45C79.73 11.27 79.35 11.17 78.91 11.17C78.52 11.16 78.17 11.22 77.84 11.35C77.54 11.47 77.29 11.66 77.09 11.93C76.9 12.19 76.81 12.51 76.81 12.89C76.81 13.27 76.9 13.59 77.09 13.88C77.29 14.15 77.56 14.39 77.9 14.59C78.25 14.78 78.65 14.95 79.11 15.12C79.58 15.29 80.1 15.46 80.65 15.63C81.55 15.93 82.36 16.29 83.11 16.71C83.87 17.12 84.47 17.66 84.93 18.33C85.4 18.99 85.64 19.87 85.64 20.97C85.64 21.93 85.38 22.81 84.88 23.62C84.39 24.43 83.67 25.08 82.73 25.57C81.8 26.06 80.64 26.3 79.26 26.3Z" fill="#11244B" fill-opacity="1.000000" fill-rule="nonzero"/>
	<path id="Vector" d="M58.17 26L58.17 8.29L70.03 8.29L70.03 11.35L61.96 11.35L61.96 15.53L69.27 15.53L69.27 18.46L61.96 18.46L61.96 22.94L70.03 22.94L70.03 26L58.17 26Z" fill="#11244B" fill-opacity="1.000000" fill-rule="nonzero"/>
	<path id="Vector" d="M48.92 26.3C47.66 26.3 46.51 26.09 45.48 25.67C44.47 25.23 43.67 24.59 43.08 23.75C42.49 22.9 42.17 21.87 42.12 20.64L46.16 20.64C46.18 21.13 46.31 21.56 46.54 21.93C46.78 22.3 47.1 22.59 47.51 22.81C47.91 23.01 48.38 23.12 48.92 23.12C49.38 23.12 49.77 23.05 50.11 22.91C50.47 22.76 50.74 22.55 50.95 22.28C51.15 21.99 51.25 21.64 51.25 21.22C51.25 20.78 51.13 20.41 50.9 20.1C50.66 19.78 50.34 19.51 49.93 19.3C49.53 19.06 49.06 18.85 48.52 18.66C47.99 18.46 47.43 18.27 46.82 18.08C45.42 17.63 44.34 17.01 43.58 16.23C42.84 15.46 42.47 14.42 42.47 13.12C42.47 12.04 42.73 11.12 43.26 10.36C43.8 9.59 44.53 9 45.46 8.59C46.38 8.19 47.44 7.99 48.62 7.99C49.83 7.99 50.9 8.2 51.83 8.62C52.76 9.02 53.49 9.62 54.03 10.42C54.57 11.19 54.86 12.12 54.89 13.2L50.82 13.2C50.8 12.83 50.69 12.49 50.49 12.19C50.31 11.88 50.04 11.64 49.71 11.45C49.39 11.27 49.01 11.17 48.57 11.17C48.18 11.16 47.83 11.22 47.51 11.35C47.2 11.47 46.95 11.66 46.75 11.93C46.56 12.19 46.47 12.51 46.47 12.89C46.47 13.27 46.56 13.59 46.75 13.88C46.95 14.15 47.22 14.39 47.56 14.59C47.91 14.78 48.32 14.95 48.77 15.12C49.24 15.29 49.76 15.46 50.31 15.63C51.21 15.93 52.03 16.29 52.77 16.71C53.53 17.12 54.13 17.66 54.59 18.33C55.06 18.99 55.3 19.87 55.3 20.97C55.3 21.93 55.04 22.81 54.54 23.62C54.05 24.43 53.33 25.08 52.39 25.57C51.46 26.06 50.31 26.3 48.92 26.3Z" fill="#11244B" fill-opacity="1.000000" fill-rule="nonzero"/>
	<path id="Vector" d="M31.06 26.3C29.32 26.3 27.79 25.92 26.48 25.14C25.16 24.36 24.13 23.29 23.37 21.93C22.62 20.54 22.25 18.95 22.25 17.14C22.25 15.34 22.62 13.75 23.37 12.39C24.13 11.01 25.16 9.93 26.48 9.15C27.79 8.37 29.32 7.99 31.06 7.99C32.8 7.99 34.33 8.37 35.66 9.15C36.99 9.93 38.02 11.01 38.75 12.39C39.49 13.75 39.86 15.34 39.86 17.14C39.86 18.95 39.49 20.54 38.75 21.93C38.02 23.29 36.99 24.36 35.66 25.14C34.33 25.92 32.8 26.3 31.06 26.3ZM31.06 22.89C32.09 22.89 32.96 22.65 33.69 22.18C34.43 21.71 35 21.05 35.41 20.21C35.81 19.35 36.02 18.33 36.02 17.14C36.02 15.96 35.81 14.95 35.41 14.11C35 13.25 34.43 12.59 33.69 12.14C32.96 11.66 32.09 11.43 31.06 11.43C30.06 11.43 29.19 11.66 28.45 12.14C27.71 12.59 27.14 13.25 26.73 14.11C26.33 14.95 26.12 15.96 26.12 17.14C26.12 18.33 26.33 19.35 26.73 20.21C27.14 21.05 27.71 21.71 28.45 22.18C29.19 22.65 30.06 22.89 31.06 22.89Z" fill="#11244B" fill-opacity="1.000000" fill-rule="nonzero"/>
	<path id="Vector" d="M0.06 26L0.06 8.29L4.61 8.29L9.77 18.94L14.88 8.29L19.41 8.29L19.41 26L15.62 26L15.62 14.69L11.26 23.52L8.23 23.52L3.85 14.69L3.85 26L0.06 26Z" fill="#11244B" fill-opacity="1.000000" fill-rule="nonzero"/>
	<path id="Vector" d="M127.07 41.18L127.07 32.91L128.84 32.91L132.46 38.35L132.46 32.91L134.23 32.91L134.23 41.18L132.46 41.18L128.84 35.77L128.84 41.18L127.07 41.18Z" fill="#0F9EFF" fill-opacity="1.000000" fill-rule="nonzero"/>
	<path id="Vector" d="M116.2 41.32C115.39 41.32 114.68 41.14 114.07 40.78C113.45 40.42 112.97 39.92 112.61 39.28C112.27 38.63 112.1 37.89 112.1 37.05C112.1 36.21 112.27 35.47 112.61 34.83C112.97 34.18 113.45 33.68 114.07 33.32C114.68 32.95 115.39 32.77 116.2 32.77C117.01 32.77 117.73 32.95 118.35 33.32C118.97 33.68 119.45 34.18 119.79 34.83C120.14 35.47 120.31 36.21 120.31 37.05C120.31 37.89 120.14 38.63 119.79 39.28C119.45 39.92 118.97 40.42 118.35 40.78C117.73 41.14 117.01 41.32 116.2 41.32ZM116.2 39.73C116.68 39.73 117.09 39.62 117.43 39.4C117.78 39.18 118.05 38.87 118.23 38.48C118.42 38.07 118.52 37.6 118.52 37.05C118.52 36.5 118.42 36.02 118.23 35.63C118.05 35.23 117.78 34.92 117.43 34.71C117.09 34.49 116.68 34.38 116.2 34.38C115.74 34.38 115.33 34.49 114.99 34.71C114.64 34.92 114.37 35.23 114.18 35.63C114 36.02 113.9 36.5 113.9 37.05C113.9 37.6 114 38.07 114.18 38.48C114.37 38.87 114.64 39.18 114.99 39.4C115.33 39.62 115.74 39.73 116.2 39.73Z" fill="#0F9EFF" fill-opacity="1.000000" fill-rule="nonzero"/>
	<path id="Vector" d="M103.57 41.18L103.57 32.91L105.34 32.91L105.34 41.18L103.57 41.18Z" fill="#0F9EFF" fill-opacity="1.000000" fill-rule="nonzero"/>
	<path id="Vector" d="M92.87 41.18L92.87 34.34L90.47 34.34L90.47 32.91L97.04 32.91L97.04 34.34L94.64 34.34L94.64 41.18L92.87 41.18Z" fill="#0F9EFF" fill-opacity="1.000000" fill-rule="nonzero"/>
	<path id="Vector" d="M77.3 41.18L80.31 32.91L82.34 32.91L85.35 41.18L83.48 41.18L81.32 34.91L79.16 41.18L77.3 41.18ZM78.61 39.37L79.08 38L83.42 38L83.88 39.37L78.61 39.37Z" fill="#0F9EFF" fill-opacity="1.000000" fill-rule="nonzero"/>
	<path id="Vector" d="M64.86 41.18L64.86 32.91L68.07 32.91C68.74 32.91 69.3 33.03 69.74 33.27C70.19 33.5 70.52 33.8 70.73 34.19C70.95 34.58 71.06 35 71.06 35.48C71.06 35.92 70.95 36.33 70.74 36.72C70.54 37.1 70.21 37.41 69.77 37.65C69.33 37.89 68.76 38 68.06 38L66.63 38L66.63 41.18L64.86 41.18ZM69.12 41.18L67.46 37.57L69.36 37.57L71.13 41.18L69.12 41.18ZM66.63 36.73L67.97 36.73C68.41 36.73 68.73 36.62 68.94 36.41C69.15 36.2 69.25 35.91 69.25 35.55C69.25 35.19 69.15 34.91 68.94 34.71C68.73 34.5 68.41 34.39 67.97 34.39L66.63 34.39L66.63 36.73Z" fill="#0F9EFF" fill-opacity="1.000000" fill-rule="nonzero"/>
	<path id="Vector" d="M54 41.32C53.19 41.32 52.48 41.14 51.86 40.78C51.25 40.42 50.76 39.92 50.41 39.28C50.06 38.63 49.89 37.89 49.89 37.05C49.89 36.21 50.06 35.47 50.41 34.83C50.76 34.18 51.25 33.68 51.86 33.32C52.48 32.95 53.19 32.77 54 32.77C54.81 32.77 55.53 32.95 56.15 33.32C56.77 33.68 57.25 34.18 57.59 34.83C57.93 35.47 58.11 36.21 58.11 37.05C58.11 37.89 57.93 38.63 57.59 39.28C57.25 39.92 56.77 40.42 56.15 40.78C55.53 41.14 54.81 41.32 54 41.32ZM54 39.73C54.48 39.73 54.89 39.62 55.23 39.4C55.57 39.18 55.84 38.87 56.03 38.48C56.22 38.07 56.31 37.6 56.31 37.05C56.31 36.5 56.22 36.02 56.03 35.63C55.84 35.23 55.57 34.92 55.23 34.71C54.89 34.49 54.48 34.38 54 34.38C53.54 34.38 53.13 34.49 52.78 34.71C52.44 34.92 52.17 35.23 51.98 35.63C51.79 36.02 51.7 36.5 51.7 37.05C51.7 37.6 51.79 38.07 51.98 38.48C52.17 38.87 52.44 39.18 52.78 39.4C53.13 39.62 53.54 39.73 54 39.73Z" fill="#0F9EFF" fill-opacity="1.000000" fill-rule="nonzero"/>
	<path id="Vector" d="M38.74 41.18L38.74 32.91L40.51 32.91L40.51 39.81L44.07 39.81L44.07 41.18L38.74 41.18Z" fill="#0F9EFF" fill-opacity="1.000000" fill-rule="nonzero"/>
	<path id="Vector" d="M25.94 41.18L25.94 32.91L29.15 32.91C29.83 32.91 30.38 33.03 30.83 33.26C31.27 33.49 31.61 33.8 31.83 34.2C32.05 34.6 32.16 35.04 32.16 35.54C32.16 36 32.05 36.43 31.84 36.82C31.63 37.22 31.3 37.54 30.86 37.78C30.42 38.02 29.85 38.14 29.15 38.14L27.71 38.14L27.71 41.18L25.94 41.18ZM27.71 36.73L29.03 36.73C29.5 36.73 29.83 36.62 30.03 36.41C30.25 36.19 30.35 35.9 30.35 35.54C30.35 35.17 30.25 34.88 30.03 34.67C29.83 34.46 29.5 34.36 29.03 34.36L27.71 34.36L27.71 36.73Z" fill="#0F9EFF" fill-opacity="1.000000" fill-rule="nonzero"/>
	<path id="Vector" d="M11.95 41.18L14.57 36.99L11.91 32.91L13.96 32.91L15.72 35.6L17.29 32.91L19.3 32.91L16.69 37.07L19.38 41.18L17.33 41.18L15.55 38.45L13.96 41.18L11.95 41.18Z" fill="#0F9EFF" fill-opacity="1.000000" fill-rule="nonzero"/>
	<path id="Vector" d="M0 41.18L0 32.91L5.53 32.91L5.53 34.34L1.77 34.34L1.77 36.29L5.18 36.29L5.18 37.66L1.77 37.66L1.77 39.75L5.53 39.75L5.53 41.18L0 41.18Z" fill="#0F9EFF" fill-opacity="1.000000" fill-rule="nonzero"/>
	<path id="Vector" d="M168.64 0L192.22 40.84L145.06 40.84L168.64 0Z" fill="#3E669C" fill-opacity="1.000000" fill-rule="nonzero"/>
	<path id="Vector" d="M168.26 14.98L187.64 48.55L148.88 48.55L168.26 14.98Z" fill="#0F9EFF" fill-opacity="1.000000" fill-rule="nonzero"/>
</svg>
