<svg width="653.907227" height="436.000000" viewBox="0 0 653.907 436" fill="none" xmlns="http://www.w3.org/2000/svg" xmlns:xlink="http://www.w3.org/1999/xlink">
	
	<defs/>
	<path id="Vector" d="M653.9 436L651.82 436L651.82 435.81L653.72 435.81L653.72 433.48L653.9 433.48L653.9 436ZM647.4 436L642.98 436L642.98 435.81L647.4 435.81L647.4 436ZM638.56 436L634.14 436L634.14 435.81L638.56 435.81L638.56 436ZM629.72 436L625.3 436L625.3 435.81L629.72 435.81L629.72 436ZM620.88 436L616.46 436L616.46 435.81L620.88 435.81L620.88 436ZM612.05 436L607.63 436L607.63 435.81L612.05 435.81L612.05 436ZM603.21 436L598.79 436L598.79 435.81L603.21 435.81L603.21 436ZM594.37 436L589.95 436L589.95 435.81L594.37 435.81L594.37 436ZM585.53 436L581.11 436L581.11 435.81L585.53 435.81L585.53 436ZM576.69 436L572.27 436L572.27 435.81L576.69 435.81L576.69 436ZM567.85 436L563.43 436L563.43 435.81L567.85 435.81L567.85 436ZM559.02 436L554.6 436L554.6 435.81L559.02 435.81L559.02 436ZM550.18 436L545.76 436L545.76 435.81L550.18 435.81L550.18 436ZM541.34 436L536.92 436L536.92 435.81L541.34 435.81L541.34 436ZM532.5 436L528.08 436L528.08 435.81L532.5 435.81L532.5 436ZM523.66 436L519.24 436L519.24 435.81L523.66 435.81L523.66 436ZM514.82 436L510.4 436L510.4 435.81L514.82 435.81L514.82 436ZM505.99 436L501.57 436L501.57 435.81L505.99 435.81L505.99 436ZM497.15 436L492.73 436L492.73 435.81L497.15 435.81L497.15 436ZM488.31 436L483.89 436L483.89 435.81L488.31 435.81L488.31 436ZM479.47 436L475.05 436L475.05 435.81L479.47 435.81L479.47 436ZM470.63 436L466.21 436L466.21 435.81L470.63 435.81L470.63 436ZM461.79 436L457.37 436L457.37 435.81L461.79 435.81L461.79 436ZM452.96 436L448.54 436L448.54 435.81L452.96 435.81L452.96 436ZM444.12 436L439.7 436L439.7 435.81L444.12 435.81L444.12 436ZM435.28 436L430.86 436L430.86 435.81L435.28 435.81L435.28 436ZM426.44 436L422.02 436L422.02 435.81L426.44 435.81L426.44 436ZM417.6 436L413.18 436L413.18 435.81L417.6 435.81L417.6 436ZM408.76 436L404.34 436L404.34 435.81L408.76 435.81L408.76 436ZM399.93 436L395.51 436L395.51 435.81L399.93 435.81L399.93 436ZM391.09 436L386.67 436L386.67 435.81L391.09 435.81L391.09 436ZM382.25 436L377.83 436L377.83 435.81L382.25 435.81L382.25 436ZM373.41 436L368.99 436L368.99 435.81L373.41 435.81L373.41 436ZM364.57 436L360.15 436L360.15 435.81L364.57 435.81L364.57 436ZM355.73 436L351.31 436L351.31 435.81L355.73 435.81L355.73 436ZM346.9 436L342.48 436L342.48 435.81L346.9 435.81L346.9 436ZM338.06 436L333.64 436L333.64 435.81L338.06 435.81L338.06 436ZM329.22 436L324.8 436L324.8 435.81L329.22 435.81L329.22 436ZM320.38 436L315.96 436L315.96 435.81L320.38 435.81L320.38 436ZM311.54 436L307.12 436L307.12 435.81L311.54 435.81L311.54 436ZM302.7 436L298.29 436L298.29 435.81L302.7 435.81L302.7 436ZM293.87 436L289.45 436L289.45 435.81L293.87 435.81L293.87 436ZM285.03 436L280.61 436L280.61 435.81L285.03 435.81L285.03 436ZM276.19 436L271.77 436L271.77 435.81L276.19 435.81L276.19 436ZM267.35 436L262.93 436L262.93 435.81L267.35 435.81L267.35 436ZM258.51 436L254.09 436L254.09 435.81L258.51 435.81L258.51 436ZM249.67 436L245.26 436L245.26 435.81L249.67 435.81L249.67 436ZM240.84 436L236.42 436L236.42 435.81L240.84 435.81L240.84 436ZM232 436L227.58 436L227.58 435.81L232 435.81L232 436ZM223.16 436L218.74 436L218.74 435.81L223.16 435.81L223.16 436ZM214.32 436L209.9 436L209.9 435.81L214.32 435.81L214.32 436ZM205.48 436L201.06 436L201.06 435.81L205.48 435.81L205.48 436ZM196.64 436L192.23 436L192.23 435.81L196.64 435.81L196.64 436ZM187.81 436L183.39 436L183.39 435.81L187.81 435.81L187.81 436ZM178.97 436L174.55 436L174.55 435.81L178.97 435.81L178.97 436ZM170.13 436L165.71 436L165.71 435.81L170.13 435.81L170.13 436ZM161.29 436L156.87 436L156.87 435.81L161.29 435.81L161.29 436ZM152.45 436L148.03 436L148.03 435.81L152.45 435.81L152.45 436ZM143.61 436L139.19 436L139.19 435.81L143.61 435.81L143.61 436ZM134.78 436L130.36 436L130.36 435.81L134.78 435.81L134.78 436ZM125.94 436L121.52 436L121.52 435.81L125.94 435.81L125.94 436ZM117.1 436L112.68 436L112.68 435.81L117.1 435.81L117.1 436ZM108.26 436L103.84 436L103.84 435.81L108.26 435.81L108.26 436ZM99.42 436L95 436L95 435.81L99.42 435.81L99.42 436ZM90.58 436L86.16 436L86.16 435.81L90.58 435.81L90.58 436ZM81.75 436L77.33 436L77.33 435.81L81.75 435.81L81.75 436ZM72.91 436L68.49 436L68.49 435.81L72.91 435.81L72.91 436ZM64.07 436L59.65 436L59.65 435.81L64.07 435.81L64.07 436ZM55.23 436L50.81 436L50.81 435.81L55.23 435.81L55.23 436ZM46.39 436L41.97 436L41.97 435.81L46.39 435.81L46.39 436ZM37.55 436L33.13 436L33.13 435.81L37.55 435.81L37.55 436ZM28.72 436L24.3 436L24.3 435.81L28.72 435.81L28.72 436ZM19.88 436L15.46 436L15.46 435.81L19.88 435.81L19.88 436ZM11.04 436L6.62 436L6.62 435.81L11.04 435.81L11.04 436ZM2.2 436L0 436L0 433.6L0.18 433.6L0.18 435.81L2.2 435.81L2.2 436ZM0.18 429.18L0 429.18L0 424.76L0.18 424.76L0.18 429.18ZM653.9 429.06L653.72 429.06L653.72 424.64L653.9 424.64L653.9 429.06ZM0.18 420.34L0 420.34L0 415.92L0.18 415.92L0.18 420.34ZM653.9 420.22L653.72 420.22L653.72 415.8L653.9 415.8L653.9 420.22ZM0.18 411.5L0 411.5L0 407.08L0.18 407.08L0.18 411.5ZM653.9 411.38L653.72 411.38L653.72 406.96L653.9 406.96L653.9 411.38ZM0.18 402.66L0 402.66L0 398.24L0.18 398.24L0.18 402.66ZM653.9 402.54L653.72 402.54L653.72 398.12L653.9 398.12L653.9 402.54ZM0.18 393.83L0 393.83L0 389.41L0.18 389.41L0.18 393.83ZM653.9 393.7L653.72 393.7L653.72 389.29L653.9 389.29L653.9 393.7ZM0.18 384.99L0 384.99L0 380.57L0.18 380.57L0.18 384.99ZM653.9 384.87L653.72 384.87L653.72 380.45L653.9 380.45L653.9 384.87ZM0.18 376.15L0 376.15L0 371.73L0.18 371.73L0.18 376.15ZM653.9 376.03L653.72 376.03L653.72 371.61L653.9 371.61L653.9 376.03ZM0.18 367.31L0 367.31L0 362.89L0.18 362.89L0.18 367.31ZM653.9 367.19L653.72 367.19L653.72 362.77L653.9 362.77L653.9 367.19ZM0.18 358.47L0 358.47L0 354.05L0.18 354.05L0.18 358.47ZM653.9 358.35L653.72 358.35L653.72 353.93L653.9 353.93L653.9 358.35ZM0.18 349.63L0 349.63L0 345.21L0.18 345.21L0.18 349.63ZM653.9 349.51L653.72 349.51L653.72 345.09L653.9 345.09L653.9 349.51ZM0.18 340.8L0 340.8L0 336.38L0.18 336.38L0.18 340.8ZM653.9 340.68L653.72 340.68L653.72 336.26L653.9 336.26L653.9 340.68ZM0.18 331.96L0 331.96L0 327.54L0.18 327.54L0.18 331.96ZM653.9 331.84L653.72 331.84L653.72 327.42L653.9 327.42L653.9 331.84ZM0.18 323.12L0 323.12L0 318.7L0.18 318.7L0.18 323.12ZM653.9 323L653.72 323L653.72 318.58L653.9 318.58L653.9 323ZM0.18 314.28L0 314.28L0 309.86L0.18 309.86L0.18 314.28ZM653.9 314.16L653.72 314.16L653.72 309.74L653.9 309.74L653.9 314.16ZM0.18 305.44L0 305.44L0 301.02L0.18 301.02L0.18 305.44ZM653.9 305.32L653.72 305.32L653.72 300.9L653.9 300.9L653.9 305.32ZM0.18 296.6L0 296.6L0 292.18L0.18 292.18L0.18 296.6ZM653.9 296.48L653.72 296.48L653.72 292.06L653.9 292.06L653.9 296.48ZM0.18 287.76L0 287.76L0 283.35L0.18 283.35L0.18 287.76ZM653.9 287.64L653.72 287.64L653.72 283.23L653.9 283.23L653.9 287.64ZM0.18 278.93L0 278.93L0 274.51L0.18 274.51L0.18 278.93ZM653.9 278.81L653.72 278.81L653.72 274.39L653.9 274.39L653.9 278.81ZM0.18 270.09L0 270.09L0 265.67L0.18 265.67L0.18 270.09ZM653.9 269.97L653.72 269.97L653.72 265.55L653.9 265.55L653.9 269.97ZM0.18 261.25L0 261.25L0 256.83L0.18 256.83L0.18 261.25ZM653.9 261.13L653.72 261.13L653.72 256.71L653.9 256.71L653.9 261.13ZM0.18 252.41L0 252.41L0 247.99L0.18 247.99L0.18 252.41ZM653.9 252.29L653.72 252.29L653.72 247.87L653.9 247.87L653.9 252.29ZM0.18 243.57L0 243.57L0 239.15L0.18 239.15L0.18 243.57ZM653.9 243.45L653.72 243.45L653.72 239.03L653.9 239.03L653.9 243.45ZM0.18 234.74L0 234.74L0 230.32L0.18 230.32L0.18 234.74ZM653.9 234.62L653.72 234.62L653.72 230.2L653.9 230.2L653.9 234.62ZM0.18 225.9L0 225.9L0 221.48L0.18 221.48L0.18 225.9ZM653.9 225.78L653.72 225.78L653.72 221.36L653.9 221.36L653.9 225.78ZM0.18 217.06L0 217.06L0 212.64L0.18 212.64L0.18 217.06ZM653.9 216.94L653.72 216.94L653.72 212.52L653.9 212.52L653.9 216.94ZM0.18 208.22L0 208.22L0 203.8L0.18 203.8L0.18 208.22ZM653.9 208.1L653.72 208.1L653.72 203.68L653.9 203.68L653.9 208.1ZM0.18 199.38L0 199.38L0 194.96L0.18 194.96L0.18 199.38ZM653.9 199.26L653.72 199.26L653.72 194.84L653.9 194.84L653.9 199.26ZM0.18 190.54L0 190.54L0 186.12L0.18 186.12L0.18 190.54ZM653.9 190.42L653.72 190.42L653.72 186.01L653.9 186.01L653.9 190.42ZM0.18 181.71L0 181.71L0 177.29L0.18 177.29L0.18 181.71ZM653.9 181.59L653.72 181.59L653.72 177.17L653.9 177.17L653.9 181.59ZM0.18 172.87L0 172.87L0 168.45L0.18 168.45L0.18 172.87ZM653.9 172.75L653.72 172.75L653.72 168.33L653.9 168.33L653.9 172.75ZM0.18 164.03L0 164.03L0 159.61L0.18 159.61L0.18 164.03ZM653.9 163.91L653.72 163.91L653.72 159.49L653.9 159.49L653.9 163.91ZM0.18 155.19L0 155.19L0 150.77L0.18 150.77L0.18 155.19ZM653.9 155.07L653.72 155.07L653.72 150.65L653.9 150.65L653.9 155.07ZM0.18 146.35L0 146.35L0 141.93L0.18 141.93L0.18 146.35ZM653.9 146.23L653.72 146.23L653.72 141.81L653.9 141.81L653.9 146.23ZM0.18 137.51L0 137.51L0 133.09L0.18 133.09L0.18 137.51ZM653.9 137.39L653.72 137.39L653.72 132.98L653.9 132.98L653.9 137.39ZM0.18 128.67L0 128.67L0 124.26L0.18 124.26L0.18 128.67ZM653.9 128.56L653.72 128.56L653.72 124.14L653.9 124.14L653.9 128.56ZM0.18 119.84L0 119.84L0 115.42L0.18 115.42L0.18 119.84ZM653.9 119.72L653.72 119.72L653.72 115.3L653.9 115.3L653.9 119.72ZM0.18 111L0 111L0 106.58L0.18 106.58L0.18 111ZM653.9 110.88L653.72 110.88L653.72 106.46L653.9 106.46L653.9 110.88ZM0.18 102.16L0 102.16L0 97.74L0.18 97.74L0.18 102.16ZM653.9 102.04L653.72 102.04L653.72 97.62L653.9 97.62L653.9 102.04ZM0.18 93.32L0 93.32L0 88.9L0.18 88.9L0.18 93.32ZM653.9 93.2L653.72 93.2L653.72 88.78L653.9 88.78L653.9 93.2ZM0.18 84.48L0 84.48L0 80.06L0.18 80.06L0.18 84.48ZM653.9 84.36L653.72 84.36L653.72 79.94L653.9 79.94L653.9 84.36ZM0.18 75.65L0 75.65L0 71.23L0.18 71.23L0.18 75.65ZM653.9 75.53L653.72 75.53L653.72 71.11L653.9 71.11L653.9 75.53ZM0.18 66.81L0 66.81L0 62.39L0.18 62.39L0.18 66.81ZM653.9 66.69L653.72 66.69L653.72 62.27L653.9 62.27L653.9 66.69ZM0.18 57.97L0 57.97L0 53.55L0.18 53.55L0.18 57.97ZM653.9 57.85L653.72 57.85L653.72 53.43L653.9 53.43L653.9 57.85ZM0.18 49.13L0 49.13L0 44.71L0.18 44.71L0.18 49.13ZM653.9 49.01L653.72 49.01L653.72 44.59L653.9 44.59L653.9 49.01ZM0.18 40.29L0 40.29L0 35.87L0.18 35.87L0.18 40.29ZM653.9 40.17L653.72 40.17L653.72 35.75L653.9 35.75L653.9 40.17ZM0.18 31.45L0 31.45L0 27.04L0.18 27.04L0.18 31.45ZM653.9 31.33L653.72 31.33L653.72 26.91L653.9 26.91L653.9 31.33ZM0.18 22.62L0 22.62L0 18.2L0.18 18.2L0.18 22.62ZM653.9 22.5L653.72 22.5L653.72 18.08L653.9 18.08L653.9 22.5ZM0.18 13.78L0 13.78L0 9.36L0.18 9.36L0.18 13.78ZM653.9 13.66L653.72 13.66L653.72 9.24L653.9 9.24L653.9 13.66ZM0.18 4.94L0 4.94L0 0.52L0.18 0.52L0.18 4.94ZM653.9 4.82L653.72 4.82L653.72 0.4L653.9 0.4L653.9 4.82ZM649.7 0.18L645.28 0.18L645.28 0L649.7 0L649.7 0.18ZM640.87 0.18L636.45 0.18L636.45 0L640.87 0L640.87 0.18ZM632.03 0.18L627.61 0.18L627.61 0L632.03 0L632.03 0.18ZM623.19 0.18L618.77 0.18L618.77 0L623.19 0L623.19 0.18ZM614.35 0.18L609.93 0.18L609.93 0L614.35 0L614.35 0.18ZM605.51 0.18L601.09 0.18L601.09 0L605.51 0L605.51 0.18ZM596.67 0.18L592.26 0.18L592.26 0L596.67 0L596.67 0.18ZM587.84 0.18L583.42 0.18L583.42 0L587.84 0L587.84 0.18ZM579 0.18L574.58 0.18L574.58 0L579 0L579 0.18ZM570.16 0.18L565.74 0.18L565.74 0L570.16 0L570.16 0.18ZM561.32 0.18L556.9 0.18L556.9 0L561.32 0L561.32 0.18ZM552.48 0.18L548.06 0.18L548.06 0L552.48 0L552.48 0.18ZM543.64 0.18L539.22 0.18L539.22 0L543.64 0L543.64 0.18ZM534.81 0.18L530.39 0.18L530.39 0L534.81 0L534.81 0.18ZM525.97 0.18L521.55 0.18L521.55 0L525.97 0L525.97 0.18ZM517.13 0.18L512.71 0.18L512.71 0L517.13 0L517.13 0.18ZM508.29 0.18L503.87 0.18L503.87 0L508.29 0L508.29 0.18ZM499.45 0.18L495.03 0.18L495.03 0L499.45 0L499.45 0.18ZM490.61 0.18L486.19 0.18L486.19 0L490.61 0L490.61 0.18ZM481.78 0.18L477.36 0.18L477.36 0L481.78 0L481.78 0.18ZM472.94 0.18L468.52 0.18L468.52 0L472.94 0L472.94 0.18ZM464.1 0.18L459.68 0.18L459.68 0L464.1 0L464.1 0.18ZM455.26 0.18L450.84 0.18L450.84 0L455.26 0L455.26 0.18ZM446.42 0.18L442 0.18L442 0L446.42 0L446.42 0.18ZM437.58 0.18L433.16 0.18L433.16 0L437.58 0L437.58 0.18ZM428.75 0.18L424.33 0.18L424.33 0L428.75 0L428.75 0.18ZM419.91 0.18L415.49 0.18L415.49 0L419.91 0L419.91 0.18ZM411.07 0.18L406.65 0.18L406.65 0L411.07 0L411.07 0.18ZM402.23 0.18L397.81 0.18L397.81 0L402.23 0L402.23 0.18ZM393.39 0.18L388.97 0.18L388.97 0L393.39 0L393.39 0.18ZM384.55 0.18L380.14 0.18L380.14 0L384.55 0L384.55 0.18ZM375.72 0.18L371.3 0.18L371.3 0L375.72 0L375.72 0.18ZM366.88 0.18L362.46 0.18L362.46 0L366.88 0L366.88 0.18ZM358.04 0.18L353.62 0.18L353.62 0L358.04 0L358.04 0.18ZM349.2 0.18L344.78 0.18L344.78 0L349.2 0L349.2 0.18ZM340.36 0.18L335.94 0.18L335.94 0L340.36 0L340.36 0.18ZM331.52 0.18L327.1 0.18L327.1 0L331.52 0L331.52 0.18ZM322.69 0.18L318.27 0.18L318.27 0L322.69 0L322.69 0.18ZM313.85 0.18L309.43 0.18L309.43 0L313.85 0L313.85 0.18ZM305.01 0.18L300.59 0.18L300.59 0L305.01 0L305.01 0.18ZM296.17 0.18L291.75 0.18L291.75 0L296.17 0L296.17 0.18ZM287.33 0.18L282.91 0.18L282.91 0L287.33 0L287.33 0.18ZM278.49 0.18L274.07 0.18L274.07 0L278.49 0L278.49 0.18ZM269.66 0.18L265.24 0.18L265.24 0L269.66 0L269.66 0.18ZM260.82 0.18L256.4 0.18L256.4 0L260.82 0L260.82 0.18ZM251.98 0.18L247.56 0.18L247.56 0L251.98 0L251.98 0.18ZM243.14 0.18L238.72 0.18L238.72 0L243.14 0L243.14 0.18ZM234.3 0.18L229.88 0.18L229.88 0L234.3 0L234.3 0.18ZM225.46 0.18L221.05 0.18L221.05 0L225.46 0L225.46 0.18ZM216.63 0.18L212.21 0.18L212.21 0L216.63 0L216.63 0.18ZM207.79 0.18L203.37 0.18L203.37 0L207.79 0L207.79 0.18ZM198.95 0.18L194.53 0.18L194.53 0L198.95 0L198.95 0.18ZM190.11 0.18L185.69 0.18L185.69 0L190.11 0L190.11 0.18ZM181.27 0.18L176.85 0.18L176.85 0L181.27 0L181.27 0.18ZM172.43 0.18L168.02 0.18L168.02 0L172.43 0L172.43 0.18ZM163.6 0.18L159.18 0.18L159.18 0L163.6 0L163.6 0.18ZM154.76 0.18L150.34 0.18L150.34 0L154.76 0L154.76 0.18ZM145.92 0.18L141.5 0.18L141.5 0L145.92 0L145.92 0.18ZM137.08 0.18L132.66 0.18L132.66 0L137.08 0L137.08 0.18ZM128.24 0.18L123.82 0.18L123.82 0L128.24 0L128.24 0.18ZM119.4 0.18L114.99 0.18L114.99 0L119.4 0L119.4 0.18ZM110.57 0.18L106.15 0.18L106.15 0L110.57 0L110.57 0.18ZM101.73 0.18L97.31 0.18L97.31 0L101.73 0L101.73 0.18ZM92.89 0.18L88.47 0.18L88.47 0L92.89 0L92.89 0.18ZM84.05 0.18L79.63 0.18L79.63 0L84.05 0L84.05 0.18ZM75.21 0.18L70.79 0.18L70.79 0L75.21 0L75.21 0.18ZM66.37 0.18L61.96 0.18L61.96 0L66.37 0L66.37 0.18ZM57.54 0.18L53.12 0.18L53.12 0L57.54 0L57.54 0.18ZM48.7 0.18L44.28 0.18L44.28 0L48.7 0L48.7 0.18ZM39.86 0.18L35.44 0.18L35.44 0L39.86 0L39.86 0.18ZM31.02 0.18L26.6 0.18L26.6 0L31.02 0L31.02 0.18ZM22.18 0.18L17.76 0.18L17.76 0L22.18 0L22.18 0.18ZM13.34 0.18L8.93 0.18L8.93 0L13.34 0L13.34 0.18ZM4.51 0.18L0.09 0.18L0.09 0L4.51 0L4.51 0.18Z" fill="#2E2555" fill-opacity="1.000000" fill-rule="nonzero"/>
	<path id="Vector" d="M649.7 392.41L645.28 392.41L645.28 392.23L649.7 392.23L649.7 392.41ZM640.87 392.41L636.45 392.41L636.45 392.23L640.87 392.23L640.87 392.41ZM632.03 392.41L627.61 392.41L627.61 392.23L632.03 392.23L632.03 392.41ZM623.19 392.41L618.77 392.41L618.77 392.23L623.19 392.23L623.19 392.41ZM614.35 392.41L609.93 392.41L609.93 392.23L614.35 392.23L614.35 392.41ZM605.51 392.41L601.09 392.41L601.09 392.23L605.51 392.23L605.51 392.41ZM596.67 392.41L592.26 392.41L592.26 392.23L596.67 392.23L596.67 392.41ZM587.84 392.41L583.42 392.41L583.42 392.23L587.84 392.23L587.84 392.41ZM579 392.41L574.58 392.41L574.58 392.23L579 392.23L579 392.41ZM570.16 392.41L565.74 392.41L565.74 392.23L570.16 392.23L570.16 392.41ZM561.32 392.41L556.9 392.41L556.9 392.23L561.32 392.23L561.32 392.41ZM552.48 392.41L548.06 392.41L548.06 392.23L552.48 392.23L552.48 392.41ZM543.64 392.41L539.22 392.41L539.22 392.23L543.64 392.23L543.64 392.41ZM534.81 392.41L530.39 392.41L530.39 392.23L534.81 392.23L534.81 392.41ZM525.97 392.41L521.55 392.41L521.55 392.23L525.97 392.23L525.97 392.41ZM517.13 392.41L512.71 392.41L512.71 392.23L517.13 392.23L517.13 392.41ZM508.29 392.41L503.87 392.41L503.87 392.23L508.29 392.23L508.29 392.41ZM499.45 392.41L495.03 392.41L495.03 392.23L499.45 392.23L499.45 392.41ZM490.61 392.41L486.19 392.41L486.19 392.23L490.61 392.23L490.61 392.41ZM481.78 392.41L477.36 392.41L477.36 392.23L481.78 392.23L481.78 392.41ZM472.94 392.41L468.52 392.41L468.52 392.23L472.94 392.23L472.94 392.41ZM464.1 392.41L459.68 392.41L459.68 392.23L464.1 392.23L464.1 392.41ZM455.26 392.41L450.84 392.41L450.84 392.23L455.26 392.23L455.26 392.41ZM446.42 392.41L442 392.41L442 392.23L446.42 392.23L446.42 392.41ZM437.58 392.41L433.16 392.41L433.16 392.23L437.58 392.23L437.58 392.41ZM428.75 392.41L424.33 392.41L424.33 392.23L428.75 392.23L428.75 392.41ZM419.91 392.41L415.49 392.41L415.49 392.23L419.91 392.23L419.91 392.41ZM411.07 392.41L406.65 392.41L406.65 392.23L411.07 392.23L411.07 392.41ZM402.23 392.41L397.81 392.41L397.81 392.23L402.23 392.23L402.23 392.41ZM393.39 392.41L388.97 392.41L388.97 392.23L393.39 392.23L393.39 392.41ZM384.55 392.41L380.14 392.41L380.14 392.23L384.55 392.23L384.55 392.41ZM375.72 392.41L371.3 392.41L371.3 392.23L375.72 392.23L375.72 392.41ZM366.88 392.41L362.46 392.41L362.46 392.23L366.88 392.23L366.88 392.41ZM358.04 392.41L353.62 392.41L353.62 392.23L358.04 392.23L358.04 392.41ZM349.2 392.41L344.78 392.41L344.78 392.23L349.2 392.23L349.2 392.41ZM340.36 392.41L335.94 392.41L335.94 392.23L340.36 392.23L340.36 392.41ZM331.52 392.41L327.1 392.41L327.1 392.23L331.52 392.23L331.52 392.41ZM322.69 392.41L318.27 392.41L318.27 392.23L322.69 392.23L322.69 392.41ZM313.85 392.41L309.43 392.41L309.43 392.23L313.85 392.23L313.85 392.41ZM305.01 392.41L300.59 392.41L300.59 392.23L305.01 392.23L305.01 392.41ZM296.17 392.41L291.75 392.41L291.75 392.23L296.17 392.23L296.17 392.41ZM287.33 392.41L282.91 392.41L282.91 392.23L287.33 392.23L287.33 392.41ZM278.49 392.41L274.07 392.41L274.07 392.23L278.49 392.23L278.49 392.41ZM269.66 392.41L265.24 392.41L265.24 392.23L269.66 392.23L269.66 392.41ZM260.82 392.41L256.4 392.41L256.4 392.23L260.82 392.23L260.82 392.41ZM251.98 392.41L247.56 392.41L247.56 392.23L251.98 392.23L251.98 392.41ZM243.14 392.41L238.72 392.41L238.72 392.23L243.14 392.23L243.14 392.41ZM234.3 392.41L229.88 392.41L229.88 392.23L234.3 392.23L234.3 392.41ZM225.46 392.41L221.05 392.41L221.05 392.23L225.46 392.23L225.46 392.41ZM216.63 392.41L212.21 392.41L212.21 392.23L216.63 392.23L216.63 392.41ZM207.79 392.41L203.37 392.41L203.37 392.23L207.79 392.23L207.79 392.41ZM198.95 392.41L194.53 392.41L194.53 392.23L198.95 392.23L198.95 392.41ZM190.11 392.41L185.69 392.41L185.69 392.23L190.11 392.23L190.11 392.41ZM181.27 392.41L176.85 392.41L176.85 392.23L181.27 392.23L181.27 392.41ZM172.43 392.41L168.02 392.41L168.02 392.23L172.43 392.23L172.43 392.41ZM163.6 392.41L159.18 392.41L159.18 392.23L163.6 392.23L163.6 392.41ZM154.76 392.41L150.34 392.41L150.34 392.23L154.76 392.23L154.76 392.41ZM145.92 392.41L141.5 392.41L141.5 392.23L145.92 392.23L145.92 392.41ZM137.08 392.41L132.66 392.41L132.66 392.23L137.08 392.23L137.08 392.41ZM128.24 392.41L123.82 392.41L123.82 392.23L128.24 392.23L128.24 392.41ZM119.4 392.41L114.99 392.41L114.99 392.23L119.4 392.23L119.4 392.41ZM110.57 392.41L106.15 392.41L106.15 392.23L110.57 392.23L110.57 392.41ZM101.73 392.41L97.31 392.41L97.31 392.23L101.73 392.23L101.73 392.41ZM92.89 392.41L88.47 392.41L88.47 392.23L92.89 392.23L92.89 392.41ZM84.05 392.41L79.63 392.41L79.63 392.23L84.05 392.23L84.05 392.41ZM75.21 392.41L70.79 392.41L70.79 392.23L75.21 392.23L75.21 392.41ZM66.37 392.41L61.96 392.41L61.96 392.23L66.37 392.23L66.37 392.41ZM57.54 392.41L53.12 392.41L53.12 392.23L57.54 392.23L57.54 392.41ZM48.7 392.41L44.28 392.41L44.28 392.23L48.7 392.23L48.7 392.41ZM39.86 392.41L35.44 392.41L35.44 392.23L39.86 392.23L39.86 392.41ZM31.02 392.41L26.6 392.41L26.6 392.23L31.02 392.23L31.02 392.41ZM22.18 392.41L17.76 392.41L17.76 392.23L22.18 392.23L22.18 392.41ZM13.34 392.41L8.93 392.41L8.93 392.23L13.34 392.23L13.34 392.41ZM4.51 392.41L0.09 392.41L0.09 392.23L4.51 392.23L4.51 392.41Z" fill="#2E2555" fill-opacity="1.000000" fill-rule="nonzero"/>
	<path id="Vector" d="M649.7 348.83L645.28 348.83L645.28 348.65L649.7 348.65L649.7 348.83ZM640.87 348.83L636.45 348.83L636.45 348.65L640.87 348.65L640.87 348.83ZM632.03 348.83L627.61 348.83L627.61 348.65L632.03 348.65L632.03 348.83ZM623.19 348.83L618.77 348.83L618.77 348.65L623.19 348.65L623.19 348.83ZM614.35 348.83L609.93 348.83L609.93 348.65L614.35 348.65L614.35 348.83ZM605.51 348.83L601.09 348.83L601.09 348.65L605.51 348.65L605.51 348.83ZM596.67 348.83L592.26 348.83L592.26 348.65L596.67 348.65L596.67 348.83ZM587.84 348.83L583.42 348.83L583.42 348.65L587.84 348.65L587.84 348.83ZM579 348.83L574.58 348.83L574.58 348.65L579 348.65L579 348.83ZM570.16 348.83L565.74 348.83L565.74 348.65L570.16 348.65L570.16 348.83ZM561.32 348.83L556.9 348.83L556.9 348.65L561.32 348.65L561.32 348.83ZM552.48 348.83L548.06 348.83L548.06 348.65L552.48 348.65L552.48 348.83ZM543.64 348.83L539.22 348.83L539.22 348.65L543.64 348.65L543.64 348.83ZM534.81 348.83L530.39 348.83L530.39 348.65L534.81 348.65L534.81 348.83ZM525.97 348.83L521.55 348.83L521.55 348.65L525.97 348.65L525.97 348.83ZM517.13 348.83L512.71 348.83L512.71 348.65L517.13 348.65L517.13 348.83ZM508.29 348.83L503.87 348.83L503.87 348.65L508.29 348.65L508.29 348.83ZM499.45 348.83L495.03 348.83L495.03 348.65L499.45 348.65L499.45 348.83ZM490.61 348.83L486.19 348.83L486.19 348.65L490.61 348.65L490.61 348.83ZM481.78 348.83L477.36 348.83L477.36 348.65L481.78 348.65L481.78 348.83ZM472.94 348.83L468.52 348.83L468.52 348.65L472.94 348.65L472.94 348.83ZM464.1 348.83L459.68 348.83L459.68 348.65L464.1 348.65L464.1 348.83ZM455.26 348.83L450.84 348.83L450.84 348.65L455.26 348.65L455.26 348.83ZM446.42 348.83L442 348.83L442 348.65L446.42 348.65L446.42 348.83ZM437.58 348.83L433.16 348.83L433.16 348.65L437.58 348.65L437.58 348.83ZM428.75 348.83L424.33 348.83L424.33 348.65L428.75 348.65L428.75 348.83ZM419.91 348.83L415.49 348.83L415.49 348.65L419.91 348.65L419.91 348.83ZM411.07 348.83L406.65 348.83L406.65 348.65L411.07 348.65L411.07 348.83ZM402.23 348.83L397.81 348.83L397.81 348.65L402.23 348.65L402.23 348.83ZM393.39 348.83L388.97 348.83L388.97 348.65L393.39 348.65L393.39 348.83ZM384.55 348.83L380.14 348.83L380.14 348.65L384.55 348.65L384.55 348.83ZM375.72 348.83L371.3 348.83L371.3 348.65L375.72 348.65L375.72 348.83ZM366.88 348.83L362.46 348.83L362.46 348.65L366.88 348.65L366.88 348.83ZM358.04 348.83L353.62 348.83L353.62 348.65L358.04 348.65L358.04 348.83ZM349.2 348.83L344.78 348.83L344.78 348.65L349.2 348.65L349.2 348.83ZM340.36 348.83L335.94 348.83L335.94 348.65L340.36 348.65L340.36 348.83ZM331.52 348.83L327.1 348.83L327.1 348.65L331.52 348.65L331.52 348.83ZM322.69 348.83L318.27 348.83L318.27 348.65L322.69 348.65L322.69 348.83ZM313.85 348.83L309.43 348.83L309.43 348.65L313.85 348.65L313.85 348.83ZM305.01 348.83L300.59 348.83L300.59 348.65L305.01 348.65L305.01 348.83ZM296.17 348.83L291.75 348.83L291.75 348.65L296.17 348.65L296.17 348.83ZM287.33 348.83L282.91 348.83L282.91 348.65L287.33 348.65L287.33 348.83ZM278.49 348.83L274.07 348.83L274.07 348.65L278.49 348.65L278.49 348.83ZM269.66 348.83L265.24 348.83L265.24 348.65L269.66 348.65L269.66 348.83ZM260.82 348.83L256.4 348.83L256.4 348.65L260.82 348.65L260.82 348.83ZM251.98 348.83L247.56 348.83L247.56 348.65L251.98 348.65L251.98 348.83ZM243.14 348.83L238.72 348.83L238.72 348.65L243.14 348.65L243.14 348.83ZM234.3 348.83L229.88 348.83L229.88 348.65L234.3 348.65L234.3 348.83ZM225.46 348.83L221.05 348.83L221.05 348.65L225.46 348.65L225.46 348.83ZM216.63 348.83L212.21 348.83L212.21 348.65L216.63 348.65L216.63 348.83ZM207.79 348.83L203.37 348.83L203.37 348.65L207.79 348.65L207.79 348.83ZM198.95 348.83L194.53 348.83L194.53 348.65L198.95 348.65L198.95 348.83ZM190.11 348.83L185.69 348.83L185.69 348.65L190.11 348.65L190.11 348.83ZM181.27 348.83L176.85 348.83L176.85 348.65L181.27 348.65L181.27 348.83ZM172.43 348.83L168.02 348.83L168.02 348.65L172.43 348.65L172.43 348.83ZM163.6 348.83L159.18 348.83L159.18 348.65L163.6 348.65L163.6 348.83ZM154.76 348.83L150.34 348.83L150.34 348.65L154.76 348.65L154.76 348.83ZM145.92 348.83L141.5 348.83L141.5 348.65L145.92 348.65L145.92 348.83ZM137.08 348.83L132.66 348.83L132.66 348.65L137.08 348.65L137.08 348.83ZM128.24 348.83L123.82 348.83L123.82 348.65L128.24 348.65L128.24 348.83ZM119.4 348.83L114.99 348.83L114.99 348.65L119.4 348.65L119.4 348.83ZM110.57 348.83L106.15 348.83L106.15 348.65L110.57 348.65L110.57 348.83ZM101.73 348.83L97.31 348.83L97.31 348.65L101.73 348.65L101.73 348.83ZM92.89 348.83L88.47 348.83L88.47 348.65L92.89 348.65L92.89 348.83ZM84.05 348.83L79.63 348.83L79.63 348.65L84.05 348.65L84.05 348.83ZM75.21 348.83L70.79 348.83L70.79 348.65L75.21 348.65L75.21 348.83ZM66.37 348.83L61.96 348.83L61.96 348.65L66.37 348.65L66.37 348.83ZM57.54 348.83L53.12 348.83L53.12 348.65L57.54 348.65L57.54 348.83ZM48.7 348.83L44.28 348.83L44.28 348.65L48.7 348.65L48.7 348.83ZM39.86 348.83L35.44 348.83L35.44 348.65L39.86 348.65L39.86 348.83ZM31.02 348.83L26.6 348.83L26.6 348.65L31.02 348.65L31.02 348.83ZM22.18 348.83L17.76 348.83L17.76 348.65L22.18 348.65L22.18 348.83ZM13.34 348.83L8.93 348.83L8.93 348.65L13.34 348.65L13.34 348.83ZM4.51 348.83L0.09 348.83L0.09 348.65L4.51 348.65L4.51 348.83Z" fill="#2E2555" fill-opacity="1.000000" fill-rule="nonzero"/>
	<path id="Vector" d="M649.7 305.25L645.28 305.25L645.28 305.07L649.7 305.07L649.7 305.25ZM640.87 305.25L636.45 305.25L636.45 305.07L640.87 305.07L640.87 305.25ZM632.03 305.25L627.61 305.25L627.61 305.07L632.03 305.07L632.03 305.25ZM623.19 305.25L618.77 305.25L618.77 305.07L623.19 305.07L623.19 305.25ZM614.35 305.25L609.93 305.25L609.93 305.07L614.35 305.07L614.35 305.25ZM605.51 305.25L601.09 305.25L601.09 305.07L605.51 305.07L605.51 305.25ZM596.67 305.25L592.26 305.25L592.26 305.07L596.67 305.07L596.67 305.25ZM587.84 305.25L583.42 305.25L583.42 305.07L587.84 305.07L587.84 305.25ZM579 305.25L574.58 305.25L574.58 305.07L579 305.07L579 305.25ZM570.16 305.25L565.74 305.25L565.74 305.07L570.16 305.07L570.16 305.25ZM561.32 305.25L556.9 305.25L556.9 305.07L561.32 305.07L561.32 305.25ZM552.48 305.25L548.06 305.25L548.06 305.07L552.48 305.07L552.48 305.25ZM543.64 305.25L539.22 305.25L539.22 305.07L543.64 305.07L543.64 305.25ZM534.81 305.25L530.39 305.25L530.39 305.07L534.81 305.07L534.81 305.25ZM525.97 305.25L521.55 305.25L521.55 305.07L525.97 305.07L525.97 305.25ZM517.13 305.25L512.71 305.25L512.71 305.07L517.13 305.07L517.13 305.25ZM508.29 305.25L503.87 305.25L503.87 305.07L508.29 305.07L508.29 305.25ZM499.45 305.25L495.03 305.25L495.03 305.07L499.45 305.07L499.45 305.25ZM490.61 305.25L486.19 305.25L486.19 305.07L490.61 305.07L490.61 305.25ZM481.78 305.25L477.36 305.25L477.36 305.07L481.78 305.07L481.78 305.25ZM472.94 305.25L468.52 305.25L468.52 305.07L472.94 305.07L472.94 305.25ZM464.1 305.25L459.68 305.25L459.68 305.07L464.1 305.07L464.1 305.25ZM455.26 305.25L450.84 305.25L450.84 305.07L455.26 305.07L455.26 305.25ZM446.42 305.25L442 305.25L442 305.07L446.42 305.07L446.42 305.25ZM437.58 305.25L433.16 305.25L433.16 305.07L437.58 305.07L437.58 305.25ZM428.75 305.25L424.33 305.25L424.33 305.07L428.75 305.07L428.75 305.25ZM419.91 305.25L415.49 305.25L415.49 305.07L419.91 305.07L419.91 305.25ZM411.07 305.25L406.65 305.25L406.65 305.07L411.07 305.07L411.07 305.25ZM402.23 305.25L397.81 305.25L397.81 305.07L402.23 305.07L402.23 305.25ZM393.39 305.25L388.97 305.25L388.97 305.07L393.39 305.07L393.39 305.25ZM384.55 305.25L380.14 305.25L380.14 305.07L384.55 305.07L384.55 305.25ZM375.72 305.25L371.3 305.25L371.3 305.07L375.72 305.07L375.72 305.25ZM366.88 305.25L362.46 305.25L362.46 305.07L366.88 305.07L366.88 305.25ZM358.04 305.25L353.62 305.25L353.62 305.07L358.04 305.07L358.04 305.25ZM349.2 305.25L344.78 305.25L344.78 305.07L349.2 305.07L349.2 305.25ZM340.36 305.25L335.94 305.25L335.94 305.07L340.36 305.07L340.36 305.25ZM331.52 305.25L327.1 305.25L327.1 305.07L331.52 305.07L331.52 305.25ZM322.69 305.25L318.27 305.25L318.27 305.07L322.69 305.07L322.69 305.25ZM313.85 305.25L309.43 305.25L309.43 305.07L313.85 305.07L313.85 305.25ZM305.01 305.25L300.59 305.25L300.59 305.07L305.01 305.07L305.01 305.25ZM296.17 305.25L291.75 305.25L291.75 305.07L296.17 305.07L296.17 305.25ZM287.33 305.25L282.91 305.25L282.91 305.07L287.33 305.07L287.33 305.25ZM278.49 305.25L274.07 305.25L274.07 305.07L278.49 305.07L278.49 305.25ZM269.66 305.25L265.24 305.25L265.24 305.07L269.66 305.07L269.66 305.25ZM260.82 305.25L256.4 305.25L256.4 305.07L260.82 305.07L260.82 305.25ZM251.98 305.25L247.56 305.25L247.56 305.07L251.98 305.07L251.98 305.25ZM243.14 305.25L238.72 305.25L238.72 305.07L243.14 305.07L243.14 305.25ZM234.3 305.25L229.88 305.25L229.88 305.07L234.3 305.07L234.3 305.25ZM225.46 305.25L221.05 305.25L221.05 305.07L225.46 305.07L225.46 305.25ZM216.63 305.25L212.21 305.25L212.21 305.07L216.63 305.07L216.63 305.25ZM207.79 305.25L203.37 305.25L203.37 305.07L207.79 305.07L207.79 305.25ZM198.95 305.25L194.53 305.25L194.53 305.07L198.95 305.07L198.95 305.25ZM190.11 305.25L185.69 305.25L185.69 305.07L190.11 305.07L190.11 305.25ZM181.27 305.25L176.85 305.25L176.85 305.07L181.27 305.07L181.27 305.25ZM172.43 305.25L168.02 305.25L168.02 305.07L172.43 305.07L172.43 305.25ZM163.6 305.25L159.18 305.25L159.18 305.07L163.6 305.07L163.6 305.25ZM154.76 305.25L150.34 305.25L150.34 305.07L154.76 305.07L154.76 305.25ZM145.92 305.25L141.5 305.25L141.5 305.07L145.92 305.07L145.92 305.25ZM137.08 305.25L132.66 305.25L132.66 305.07L137.08 305.07L137.08 305.25ZM128.24 305.25L123.82 305.25L123.82 305.07L128.24 305.07L128.24 305.25ZM119.4 305.25L114.99 305.25L114.99 305.07L119.4 305.07L119.4 305.25ZM110.57 305.25L106.15 305.25L106.15 305.07L110.57 305.07L110.57 305.25ZM101.73 305.25L97.31 305.25L97.31 305.07L101.73 305.07L101.73 305.25ZM92.89 305.25L88.47 305.25L88.47 305.07L92.89 305.07L92.89 305.25ZM84.05 305.25L79.63 305.25L79.63 305.07L84.05 305.07L84.05 305.25ZM75.21 305.25L70.79 305.25L70.79 305.07L75.21 305.07L75.21 305.25ZM66.37 305.25L61.96 305.25L61.96 305.07L66.37 305.07L66.37 305.25ZM57.54 305.25L53.12 305.25L53.12 305.07L57.54 305.07L57.54 305.25ZM48.7 305.25L44.28 305.25L44.28 305.07L48.7 305.07L48.7 305.25ZM39.86 305.25L35.44 305.25L35.44 305.07L39.86 305.07L39.86 305.25ZM31.02 305.25L26.6 305.25L26.6 305.07L31.02 305.07L31.02 305.25ZM22.18 305.25L17.76 305.25L17.76 305.07L22.18 305.07L22.18 305.25ZM13.34 305.25L8.93 305.25L8.93 305.07L13.34 305.07L13.34 305.25ZM4.51 305.25L0.09 305.25L0.09 305.07L4.51 305.07L4.51 305.25Z" fill="#2E2555" fill-opacity="1.000000" fill-rule="nonzero"/>
	<path id="Vector" d="M649.7 261.67L645.28 261.67L645.28 261.49L649.7 261.49L649.7 261.67ZM640.87 261.67L636.45 261.67L636.45 261.49L640.87 261.49L640.87 261.67ZM632.03 261.67L627.61 261.67L627.61 261.49L632.03 261.49L632.03 261.67ZM623.19 261.67L618.77 261.67L618.77 261.49L623.19 261.49L623.19 261.67ZM614.35 261.67L609.93 261.67L609.93 261.49L614.35 261.49L614.35 261.67ZM605.51 261.67L601.09 261.67L601.09 261.49L605.51 261.49L605.51 261.67ZM596.67 261.67L592.26 261.67L592.26 261.49L596.67 261.49L596.67 261.67ZM587.84 261.67L583.42 261.67L583.42 261.49L587.84 261.49L587.84 261.67ZM579 261.67L574.58 261.67L574.58 261.49L579 261.49L579 261.67ZM570.16 261.67L565.74 261.67L565.74 261.49L570.16 261.49L570.16 261.67ZM561.32 261.67L556.9 261.67L556.9 261.49L561.32 261.49L561.32 261.67ZM552.48 261.67L548.06 261.67L548.06 261.49L552.48 261.49L552.48 261.67ZM543.64 261.67L539.22 261.67L539.22 261.49L543.64 261.49L543.64 261.67ZM534.81 261.67L530.39 261.67L530.39 261.49L534.81 261.49L534.81 261.67ZM525.97 261.67L521.55 261.67L521.55 261.49L525.97 261.49L525.97 261.67ZM517.13 261.67L512.71 261.67L512.71 261.49L517.13 261.49L517.13 261.67ZM508.29 261.67L503.87 261.67L503.87 261.49L508.29 261.49L508.29 261.67ZM499.45 261.67L495.03 261.67L495.03 261.49L499.45 261.49L499.45 261.67ZM490.61 261.67L486.19 261.67L486.19 261.49L490.61 261.49L490.61 261.67ZM481.78 261.67L477.36 261.67L477.36 261.49L481.78 261.49L481.78 261.67ZM472.94 261.67L468.52 261.67L468.52 261.49L472.94 261.49L472.94 261.67ZM464.1 261.67L459.68 261.67L459.68 261.49L464.1 261.49L464.1 261.67ZM455.26 261.67L450.84 261.67L450.84 261.49L455.26 261.49L455.26 261.67ZM446.42 261.67L442 261.67L442 261.49L446.42 261.49L446.42 261.67ZM437.58 261.67L433.16 261.67L433.16 261.49L437.58 261.49L437.58 261.67ZM428.75 261.67L424.33 261.67L424.33 261.49L428.75 261.49L428.75 261.67ZM419.91 261.67L415.49 261.67L415.49 261.49L419.91 261.49L419.91 261.67ZM411.07 261.67L406.65 261.67L406.65 261.49L411.07 261.49L411.07 261.67ZM402.23 261.67L397.81 261.67L397.81 261.49L402.23 261.49L402.23 261.67ZM393.39 261.67L388.97 261.67L388.97 261.49L393.39 261.49L393.39 261.67ZM384.55 261.67L380.14 261.67L380.14 261.49L384.55 261.49L384.55 261.67ZM375.72 261.67L371.3 261.67L371.3 261.49L375.72 261.49L375.72 261.67ZM366.88 261.67L362.46 261.67L362.46 261.49L366.88 261.49L366.88 261.67ZM358.04 261.67L353.62 261.67L353.62 261.49L358.04 261.49L358.04 261.67ZM349.2 261.67L344.78 261.67L344.78 261.49L349.2 261.49L349.2 261.67ZM340.36 261.67L335.94 261.67L335.94 261.49L340.36 261.49L340.36 261.67ZM331.52 261.67L327.1 261.67L327.1 261.49L331.52 261.49L331.52 261.67ZM322.69 261.67L318.27 261.67L318.27 261.49L322.69 261.49L322.69 261.67ZM313.85 261.67L309.43 261.67L309.43 261.49L313.85 261.49L313.85 261.67ZM305.01 261.67L300.59 261.67L300.59 261.49L305.01 261.49L305.01 261.67ZM296.17 261.67L291.75 261.67L291.75 261.49L296.17 261.49L296.17 261.67ZM287.33 261.67L282.91 261.67L282.91 261.49L287.33 261.49L287.33 261.67ZM278.49 261.67L274.07 261.67L274.07 261.49L278.49 261.49L278.49 261.67ZM269.66 261.67L265.24 261.67L265.24 261.49L269.66 261.49L269.66 261.67ZM260.82 261.67L256.4 261.67L256.4 261.49L260.82 261.49L260.82 261.67ZM251.98 261.67L247.56 261.67L247.56 261.49L251.98 261.49L251.98 261.67ZM243.14 261.67L238.72 261.67L238.72 261.49L243.14 261.49L243.14 261.67ZM234.3 261.67L229.88 261.67L229.88 261.49L234.3 261.49L234.3 261.67ZM225.46 261.67L221.05 261.67L221.05 261.49L225.46 261.49L225.46 261.67ZM216.63 261.67L212.21 261.67L212.21 261.49L216.63 261.49L216.63 261.67ZM207.79 261.67L203.37 261.67L203.37 261.49L207.79 261.49L207.79 261.67ZM198.95 261.67L194.53 261.67L194.53 261.49L198.95 261.49L198.95 261.67ZM190.11 261.67L185.69 261.67L185.69 261.49L190.11 261.49L190.11 261.67ZM181.27 261.67L176.85 261.67L176.85 261.49L181.27 261.49L181.27 261.67ZM172.43 261.67L168.02 261.67L168.02 261.49L172.43 261.49L172.43 261.67ZM163.6 261.67L159.18 261.67L159.18 261.49L163.6 261.49L163.6 261.67ZM154.76 261.67L150.34 261.67L150.34 261.49L154.76 261.49L154.76 261.67ZM145.92 261.67L141.5 261.67L141.5 261.49L145.92 261.49L145.92 261.67ZM137.08 261.67L132.66 261.67L132.66 261.49L137.08 261.49L137.08 261.67ZM128.24 261.67L123.82 261.67L123.82 261.49L128.24 261.49L128.24 261.67ZM119.4 261.67L114.99 261.67L114.99 261.49L119.4 261.49L119.4 261.67ZM110.57 261.67L106.15 261.67L106.15 261.49L110.57 261.49L110.57 261.67ZM101.73 261.67L97.31 261.67L97.31 261.49L101.73 261.49L101.73 261.67ZM92.89 261.67L88.47 261.67L88.47 261.49L92.89 261.49L92.89 261.67ZM84.05 261.67L79.63 261.67L79.63 261.49L84.05 261.49L84.05 261.67ZM75.21 261.67L70.79 261.67L70.79 261.49L75.21 261.49L75.21 261.67ZM66.37 261.67L61.96 261.67L61.96 261.49L66.37 261.49L66.37 261.67ZM57.54 261.67L53.12 261.67L53.12 261.49L57.54 261.49L57.54 261.67ZM48.7 261.67L44.28 261.67L44.28 261.49L48.7 261.49L48.7 261.67ZM39.86 261.67L35.44 261.67L35.44 261.49L39.86 261.49L39.86 261.67ZM31.02 261.67L26.6 261.67L26.6 261.49L31.02 261.49L31.02 261.67ZM22.18 261.67L17.76 261.67L17.76 261.49L22.18 261.49L22.18 261.67ZM13.34 261.67L8.93 261.67L8.93 261.49L13.34 261.49L13.34 261.67ZM4.51 261.67L0.09 261.67L0.09 261.49L4.51 261.49L4.51 261.67Z" fill="#2E2555" fill-opacity="1.000000" fill-rule="nonzero"/>
	<path id="Vector" d="M649.7 218.09L645.28 218.09L645.28 217.9L649.7 217.9L649.7 218.09ZM640.87 218.09L636.45 218.09L636.45 217.9L640.87 217.9L640.87 218.09ZM632.03 218.09L627.61 218.09L627.61 217.9L632.03 217.9L632.03 218.09ZM623.19 218.09L618.77 218.09L618.77 217.9L623.19 217.9L623.19 218.09ZM614.35 218.09L609.93 218.09L609.93 217.9L614.35 217.9L614.35 218.09ZM605.51 218.09L601.09 218.09L601.09 217.9L605.51 217.9L605.51 218.09ZM596.67 218.09L592.26 218.09L592.26 217.9L596.67 217.9L596.67 218.09ZM587.84 218.09L583.42 218.09L583.42 217.9L587.84 217.9L587.84 218.09ZM579 218.09L574.58 218.09L574.58 217.9L579 217.9L579 218.09ZM570.16 218.09L565.74 218.09L565.74 217.9L570.16 217.9L570.16 218.09ZM561.32 218.09L556.9 218.09L556.9 217.9L561.32 217.9L561.32 218.09ZM552.48 218.09L548.06 218.09L548.06 217.9L552.48 217.9L552.48 218.09ZM543.64 218.09L539.22 218.09L539.22 217.9L543.64 217.9L543.64 218.09ZM534.81 218.09L530.39 218.09L530.39 217.9L534.81 217.9L534.81 218.09ZM525.97 218.09L521.55 218.09L521.55 217.9L525.97 217.9L525.97 218.09ZM517.13 218.09L512.71 218.09L512.71 217.9L517.13 217.9L517.13 218.09ZM508.29 218.09L503.87 218.09L503.87 217.9L508.29 217.9L508.29 218.09ZM499.45 218.09L495.03 218.09L495.03 217.9L499.45 217.9L499.45 218.09ZM490.61 218.09L486.19 218.09L486.19 217.9L490.61 217.9L490.61 218.09ZM481.78 218.09L477.36 218.09L477.36 217.9L481.78 217.9L481.78 218.09ZM472.94 218.09L468.52 218.09L468.52 217.9L472.94 217.9L472.94 218.09ZM464.1 218.09L459.68 218.09L459.68 217.9L464.1 217.9L464.1 218.09ZM455.26 218.09L450.84 218.09L450.84 217.9L455.26 217.9L455.26 218.09ZM446.42 218.09L442 218.09L442 217.9L446.42 217.9L446.42 218.09ZM437.58 218.09L433.16 218.09L433.16 217.9L437.58 217.9L437.58 218.09ZM428.75 218.09L424.33 218.09L424.33 217.9L428.75 217.9L428.75 218.09ZM419.91 218.09L415.49 218.09L415.49 217.9L419.91 217.9L419.91 218.09ZM411.07 218.09L406.65 218.09L406.65 217.9L411.07 217.9L411.07 218.09ZM402.23 218.09L397.81 218.09L397.81 217.9L402.23 217.9L402.23 218.09ZM393.39 218.09L388.97 218.09L388.97 217.9L393.39 217.9L393.39 218.09ZM384.55 218.09L380.14 218.09L380.14 217.9L384.55 217.9L384.55 218.09ZM375.72 218.09L371.3 218.09L371.3 217.9L375.72 217.9L375.72 218.09ZM366.88 218.09L362.46 218.09L362.46 217.9L366.88 217.9L366.88 218.09ZM358.04 218.09L353.62 218.09L353.62 217.9L358.04 217.9L358.04 218.09ZM349.2 218.09L344.78 218.09L344.78 217.9L349.2 217.9L349.2 218.09ZM340.36 218.09L335.94 218.09L335.94 217.9L340.36 217.9L340.36 218.09ZM331.52 218.09L327.1 218.09L327.1 217.9L331.52 217.9L331.52 218.09ZM322.69 218.09L318.27 218.09L318.27 217.9L322.69 217.9L322.69 218.09ZM313.85 218.09L309.43 218.09L309.43 217.9L313.85 217.9L313.85 218.09ZM305.01 218.09L300.59 218.09L300.59 217.9L305.01 217.9L305.01 218.09ZM296.17 218.09L291.75 218.09L291.75 217.9L296.17 217.9L296.17 218.09ZM287.33 218.09L282.91 218.09L282.91 217.9L287.33 217.9L287.33 218.09ZM278.49 218.09L274.07 218.09L274.07 217.9L278.49 217.9L278.49 218.09ZM269.66 218.09L265.24 218.09L265.24 217.9L269.66 217.9L269.66 218.09ZM260.82 218.09L256.4 218.09L256.4 217.9L260.82 217.9L260.82 218.09ZM251.98 218.09L247.56 218.09L247.56 217.9L251.98 217.9L251.98 218.09ZM243.14 218.09L238.72 218.09L238.72 217.9L243.14 217.9L243.14 218.09ZM234.3 218.09L229.88 218.09L229.88 217.9L234.3 217.9L234.3 218.09ZM225.46 218.09L221.05 218.09L221.05 217.9L225.46 217.9L225.46 218.09ZM216.63 218.09L212.21 218.09L212.21 217.9L216.63 217.9L216.63 218.09ZM207.79 218.09L203.37 218.09L203.37 217.9L207.79 217.9L207.79 218.09ZM198.95 218.09L194.53 218.09L194.53 217.9L198.95 217.9L198.95 218.09ZM190.11 218.09L185.69 218.09L185.69 217.9L190.11 217.9L190.11 218.09ZM181.27 218.09L176.85 218.09L176.85 217.9L181.27 217.9L181.27 218.09ZM172.43 218.09L168.02 218.09L168.02 217.9L172.43 217.9L172.43 218.09ZM163.6 218.09L159.18 218.09L159.18 217.9L163.6 217.9L163.6 218.09ZM154.76 218.09L150.34 218.09L150.34 217.9L154.76 217.9L154.76 218.09ZM145.92 218.09L141.5 218.09L141.5 217.9L145.92 217.9L145.92 218.09ZM137.08 218.09L132.66 218.09L132.66 217.9L137.08 217.9L137.08 218.09ZM128.24 218.09L123.82 218.09L123.82 217.9L128.24 217.9L128.24 218.09ZM119.4 218.09L114.99 218.09L114.99 217.9L119.4 217.9L119.4 218.09ZM110.57 218.09L106.15 218.09L106.15 217.9L110.57 217.9L110.57 218.09ZM101.73 218.09L97.31 218.09L97.31 217.9L101.73 217.9L101.73 218.09ZM92.89 218.09L88.47 218.09L88.47 217.9L92.89 217.9L92.89 218.09ZM84.05 218.09L79.63 218.09L79.63 217.9L84.05 217.9L84.05 218.09ZM75.21 218.09L70.79 218.09L70.79 217.9L75.21 217.9L75.21 218.09ZM66.37 218.09L61.96 218.09L61.96 217.9L66.37 217.9L66.37 218.09ZM57.54 218.09L53.12 218.09L53.12 217.9L57.54 217.9L57.54 218.09ZM48.7 218.09L44.28 218.09L44.28 217.9L48.7 217.9L48.7 218.09ZM39.86 218.09L35.44 218.09L35.44 217.9L39.86 217.9L39.86 218.09ZM31.02 218.09L26.6 218.09L26.6 217.9L31.02 217.9L31.02 218.09ZM22.18 218.09L17.76 218.09L17.76 217.9L22.18 217.9L22.18 218.09ZM13.34 218.09L8.93 218.09L8.93 217.9L13.34 217.9L13.34 218.09ZM4.51 218.09L0.09 218.09L0.09 217.9L4.51 217.9L4.51 218.09Z" fill="#2E2555" fill-opacity="1.000000" fill-rule="nonzero"/>
	<path id="Vector" d="M649.7 174.51L645.28 174.51L645.28 174.32L649.7 174.32L649.7 174.51ZM640.87 174.51L636.45 174.51L636.45 174.32L640.87 174.32L640.87 174.51ZM632.03 174.51L627.61 174.51L627.61 174.32L632.03 174.32L632.03 174.51ZM623.19 174.51L618.77 174.51L618.77 174.32L623.19 174.32L623.19 174.51ZM614.35 174.51L609.93 174.51L609.93 174.32L614.35 174.32L614.35 174.51ZM605.51 174.51L601.09 174.51L601.09 174.32L605.51 174.32L605.51 174.51ZM596.67 174.51L592.26 174.51L592.26 174.32L596.67 174.32L596.67 174.51ZM587.84 174.51L583.42 174.51L583.42 174.32L587.84 174.32L587.84 174.51ZM579 174.51L574.58 174.51L574.58 174.32L579 174.32L579 174.51ZM570.16 174.51L565.74 174.51L565.74 174.32L570.16 174.32L570.16 174.51ZM561.32 174.51L556.9 174.51L556.9 174.32L561.32 174.32L561.32 174.51ZM552.48 174.51L548.06 174.51L548.06 174.32L552.48 174.32L552.48 174.51ZM543.64 174.51L539.22 174.51L539.22 174.32L543.64 174.32L543.64 174.51ZM534.81 174.51L530.39 174.51L530.39 174.32L534.81 174.32L534.81 174.51ZM525.97 174.51L521.55 174.51L521.55 174.32L525.97 174.32L525.97 174.51ZM517.13 174.51L512.71 174.51L512.71 174.32L517.13 174.32L517.13 174.51ZM508.29 174.51L503.87 174.51L503.87 174.32L508.29 174.32L508.29 174.51ZM499.45 174.51L495.03 174.51L495.03 174.32L499.45 174.32L499.45 174.51ZM490.61 174.51L486.19 174.51L486.19 174.32L490.61 174.32L490.61 174.51ZM481.78 174.51L477.36 174.51L477.36 174.32L481.78 174.32L481.78 174.51ZM472.94 174.51L468.52 174.51L468.52 174.32L472.94 174.32L472.94 174.51ZM464.1 174.51L459.68 174.51L459.68 174.32L464.1 174.32L464.1 174.51ZM455.26 174.51L450.84 174.51L450.84 174.32L455.26 174.32L455.26 174.51ZM446.42 174.51L442 174.51L442 174.32L446.42 174.32L446.42 174.51ZM437.58 174.51L433.16 174.51L433.16 174.32L437.58 174.32L437.58 174.51ZM428.75 174.51L424.33 174.51L424.33 174.32L428.75 174.32L428.75 174.51ZM419.91 174.51L415.49 174.51L415.49 174.32L419.91 174.32L419.91 174.51ZM411.07 174.51L406.65 174.51L406.65 174.32L411.07 174.32L411.07 174.51ZM402.23 174.51L397.81 174.51L397.81 174.32L402.23 174.32L402.23 174.51ZM393.39 174.51L388.97 174.51L388.97 174.32L393.39 174.32L393.39 174.51ZM384.55 174.51L380.14 174.51L380.14 174.32L384.55 174.32L384.55 174.51ZM375.72 174.51L371.3 174.51L371.3 174.32L375.72 174.32L375.72 174.51ZM366.88 174.51L362.46 174.51L362.46 174.32L366.88 174.32L366.88 174.51ZM358.04 174.51L353.62 174.51L353.62 174.32L358.04 174.32L358.04 174.51ZM349.2 174.51L344.78 174.51L344.78 174.32L349.2 174.32L349.2 174.51ZM340.36 174.51L335.94 174.51L335.94 174.32L340.36 174.32L340.36 174.51ZM331.52 174.51L327.1 174.51L327.1 174.32L331.52 174.32L331.52 174.51ZM322.69 174.51L318.27 174.51L318.27 174.32L322.69 174.32L322.69 174.51ZM313.85 174.51L309.43 174.51L309.43 174.32L313.85 174.32L313.85 174.51ZM305.01 174.51L300.59 174.51L300.59 174.32L305.01 174.32L305.01 174.51ZM296.17 174.51L291.75 174.51L291.75 174.32L296.17 174.32L296.17 174.51ZM287.33 174.51L282.91 174.51L282.91 174.32L287.33 174.32L287.33 174.51ZM278.49 174.51L274.07 174.51L274.07 174.32L278.49 174.32L278.49 174.51ZM269.66 174.51L265.24 174.51L265.24 174.32L269.66 174.32L269.66 174.51ZM260.82 174.51L256.4 174.51L256.4 174.32L260.82 174.32L260.82 174.51ZM251.98 174.51L247.56 174.51L247.56 174.32L251.98 174.32L251.98 174.51ZM243.14 174.51L238.72 174.51L238.72 174.32L243.14 174.32L243.14 174.51ZM234.3 174.51L229.88 174.51L229.88 174.32L234.3 174.32L234.3 174.51ZM225.46 174.51L221.05 174.51L221.05 174.32L225.46 174.32L225.46 174.51ZM216.63 174.51L212.21 174.51L212.21 174.32L216.63 174.32L216.63 174.51ZM207.79 174.51L203.37 174.51L203.37 174.32L207.79 174.32L207.79 174.51ZM198.95 174.51L194.53 174.51L194.53 174.32L198.95 174.32L198.95 174.51ZM190.11 174.51L185.69 174.51L185.69 174.32L190.11 174.32L190.11 174.51ZM181.27 174.51L176.85 174.51L176.85 174.32L181.27 174.32L181.27 174.51ZM172.43 174.51L168.02 174.51L168.02 174.32L172.43 174.32L172.43 174.51ZM163.6 174.51L159.18 174.51L159.18 174.32L163.6 174.32L163.6 174.51ZM154.76 174.51L150.34 174.51L150.34 174.32L154.76 174.32L154.76 174.51ZM145.92 174.51L141.5 174.51L141.5 174.32L145.92 174.32L145.92 174.51ZM137.08 174.51L132.66 174.51L132.66 174.32L137.08 174.32L137.08 174.51ZM128.24 174.51L123.82 174.51L123.82 174.32L128.24 174.32L128.24 174.51ZM119.4 174.51L114.99 174.51L114.99 174.32L119.4 174.32L119.4 174.51ZM110.57 174.51L106.15 174.51L106.15 174.32L110.57 174.32L110.57 174.51ZM101.73 174.51L97.31 174.51L97.31 174.32L101.73 174.32L101.73 174.51ZM92.89 174.51L88.47 174.51L88.47 174.32L92.89 174.32L92.89 174.51ZM84.05 174.51L79.63 174.51L79.63 174.32L84.05 174.32L84.05 174.51ZM75.21 174.51L70.79 174.51L70.79 174.32L75.21 174.32L75.21 174.51ZM66.37 174.51L61.96 174.51L61.96 174.32L66.37 174.32L66.37 174.51ZM57.54 174.51L53.12 174.51L53.12 174.32L57.54 174.32L57.54 174.51ZM48.7 174.51L44.28 174.51L44.28 174.32L48.7 174.32L48.7 174.51ZM39.86 174.51L35.44 174.51L35.44 174.32L39.86 174.32L39.86 174.51ZM31.02 174.51L26.6 174.51L26.6 174.32L31.02 174.32L31.02 174.51ZM22.18 174.51L17.76 174.51L17.76 174.32L22.18 174.32L22.18 174.51ZM13.34 174.51L8.93 174.51L8.93 174.32L13.34 174.32L13.34 174.51ZM4.51 174.51L0.09 174.51L0.09 174.32L4.51 174.32L4.51 174.51Z" fill="#2E2555" fill-opacity="1.000000" fill-rule="nonzero"/>
	<path id="Vector" d="M649.7 130.92L645.28 130.92L645.28 130.74L649.7 130.74L649.7 130.92ZM640.87 130.92L636.45 130.92L636.45 130.74L640.87 130.74L640.87 130.92ZM632.03 130.92L627.61 130.92L627.61 130.74L632.03 130.74L632.03 130.92ZM623.19 130.92L618.77 130.92L618.77 130.74L623.19 130.74L623.19 130.92ZM614.35 130.92L609.93 130.92L609.93 130.74L614.35 130.74L614.35 130.92ZM605.51 130.92L601.09 130.92L601.09 130.74L605.51 130.74L605.51 130.92ZM596.67 130.92L592.26 130.92L592.26 130.74L596.67 130.74L596.67 130.92ZM587.84 130.92L583.42 130.92L583.42 130.74L587.84 130.74L587.84 130.92ZM579 130.92L574.58 130.92L574.58 130.74L579 130.74L579 130.92ZM570.16 130.92L565.74 130.92L565.74 130.74L570.16 130.74L570.16 130.92ZM561.32 130.92L556.9 130.92L556.9 130.74L561.32 130.74L561.32 130.92ZM552.48 130.92L548.06 130.92L548.06 130.74L552.48 130.74L552.48 130.92ZM543.64 130.92L539.22 130.92L539.22 130.74L543.64 130.74L543.64 130.92ZM534.81 130.92L530.39 130.92L530.39 130.74L534.81 130.74L534.81 130.92ZM525.97 130.92L521.55 130.92L521.55 130.74L525.97 130.74L525.97 130.92ZM517.13 130.92L512.71 130.92L512.71 130.74L517.13 130.74L517.13 130.92ZM508.29 130.92L503.87 130.92L503.87 130.74L508.29 130.74L508.29 130.92ZM499.45 130.92L495.03 130.92L495.03 130.74L499.45 130.74L499.45 130.92ZM490.61 130.92L486.19 130.92L486.19 130.74L490.61 130.74L490.61 130.92ZM481.78 130.92L477.36 130.92L477.36 130.74L481.78 130.74L481.78 130.92ZM472.94 130.92L468.52 130.92L468.52 130.74L472.94 130.74L472.94 130.92ZM464.1 130.92L459.68 130.92L459.68 130.74L464.1 130.74L464.1 130.92ZM455.26 130.92L450.84 130.92L450.84 130.74L455.26 130.74L455.26 130.92ZM446.42 130.92L442 130.92L442 130.74L446.42 130.74L446.42 130.92ZM437.58 130.92L433.16 130.92L433.16 130.74L437.58 130.74L437.58 130.92ZM428.75 130.92L424.33 130.92L424.33 130.74L428.75 130.74L428.75 130.92ZM419.91 130.92L415.49 130.92L415.49 130.74L419.91 130.74L419.91 130.92ZM411.07 130.92L406.65 130.92L406.65 130.74L411.07 130.74L411.07 130.92ZM402.23 130.92L397.81 130.92L397.81 130.74L402.23 130.74L402.23 130.92ZM393.39 130.92L388.97 130.92L388.97 130.74L393.39 130.74L393.39 130.92ZM384.55 130.92L380.14 130.92L380.14 130.74L384.55 130.74L384.55 130.92ZM375.72 130.92L371.3 130.92L371.3 130.74L375.72 130.74L375.72 130.92ZM366.88 130.92L362.46 130.92L362.46 130.74L366.88 130.74L366.88 130.92ZM358.04 130.92L353.62 130.92L353.62 130.74L358.04 130.74L358.04 130.92ZM349.2 130.92L344.78 130.92L344.78 130.74L349.2 130.74L349.2 130.92ZM340.36 130.92L335.94 130.92L335.94 130.74L340.36 130.74L340.36 130.92ZM331.52 130.92L327.1 130.92L327.1 130.74L331.52 130.74L331.52 130.92ZM322.69 130.92L318.27 130.92L318.27 130.74L322.69 130.74L322.69 130.92ZM313.85 130.92L309.43 130.92L309.43 130.74L313.85 130.74L313.85 130.92ZM305.01 130.92L300.59 130.92L300.59 130.74L305.01 130.74L305.01 130.92ZM296.17 130.92L291.75 130.92L291.75 130.74L296.17 130.74L296.17 130.92ZM287.33 130.92L282.91 130.92L282.91 130.74L287.33 130.74L287.33 130.92ZM278.49 130.92L274.07 130.92L274.07 130.74L278.49 130.74L278.49 130.92ZM269.66 130.92L265.24 130.92L265.24 130.74L269.66 130.74L269.66 130.92ZM260.82 130.92L256.4 130.92L256.4 130.74L260.82 130.74L260.82 130.92ZM251.98 130.92L247.56 130.92L247.56 130.74L251.98 130.74L251.98 130.92ZM243.14 130.92L238.72 130.92L238.72 130.74L243.14 130.74L243.14 130.92ZM234.3 130.92L229.88 130.92L229.88 130.74L234.3 130.74L234.3 130.92ZM225.46 130.92L221.05 130.92L221.05 130.74L225.46 130.74L225.46 130.92ZM216.63 130.92L212.21 130.92L212.21 130.74L216.63 130.74L216.63 130.92ZM207.79 130.92L203.37 130.92L203.37 130.74L207.79 130.74L207.79 130.92ZM198.95 130.92L194.53 130.92L194.53 130.74L198.95 130.74L198.95 130.92ZM190.11 130.92L185.69 130.92L185.69 130.74L190.11 130.74L190.11 130.92ZM181.27 130.92L176.85 130.92L176.85 130.74L181.27 130.74L181.27 130.92ZM172.43 130.92L168.02 130.92L168.02 130.74L172.43 130.74L172.43 130.92ZM163.6 130.92L159.18 130.92L159.18 130.74L163.6 130.74L163.6 130.92ZM154.76 130.92L150.34 130.92L150.34 130.74L154.76 130.74L154.76 130.92ZM145.92 130.92L141.5 130.92L141.5 130.74L145.92 130.74L145.92 130.92ZM137.08 130.92L132.66 130.92L132.66 130.74L137.08 130.74L137.08 130.92ZM128.24 130.92L123.82 130.92L123.82 130.74L128.24 130.74L128.24 130.92ZM119.4 130.92L114.99 130.92L114.99 130.74L119.4 130.74L119.4 130.92ZM110.57 130.92L106.15 130.92L106.15 130.74L110.57 130.74L110.57 130.92ZM101.73 130.92L97.31 130.92L97.31 130.74L101.73 130.74L101.73 130.92ZM92.89 130.92L88.47 130.92L88.47 130.74L92.89 130.74L92.89 130.92ZM84.05 130.92L79.63 130.92L79.63 130.74L84.05 130.74L84.05 130.92ZM75.21 130.92L70.79 130.92L70.79 130.74L75.21 130.74L75.21 130.92ZM66.37 130.92L61.96 130.92L61.96 130.74L66.37 130.74L66.37 130.92ZM57.54 130.92L53.12 130.92L53.12 130.74L57.54 130.74L57.54 130.92ZM48.7 130.92L44.28 130.92L44.28 130.74L48.7 130.74L48.7 130.92ZM39.86 130.92L35.44 130.92L35.44 130.74L39.86 130.74L39.86 130.92ZM31.02 130.92L26.6 130.92L26.6 130.74L31.02 130.74L31.02 130.92ZM22.18 130.92L17.76 130.92L17.76 130.74L22.18 130.74L22.18 130.92ZM13.34 130.92L8.93 130.92L8.93 130.74L13.34 130.74L13.34 130.92ZM4.51 130.92L0.09 130.92L0.09 130.74L4.51 130.74L4.51 130.92Z" fill="#2E2555" fill-opacity="1.000000" fill-rule="nonzero"/>
	<path id="Vector" d="M649.7 87.34L645.28 87.34L645.28 87.16L649.7 87.16L649.7 87.34ZM640.87 87.34L636.45 87.34L636.45 87.16L640.87 87.16L640.87 87.34ZM632.03 87.34L627.61 87.34L627.61 87.16L632.03 87.16L632.03 87.34ZM623.19 87.34L618.77 87.34L618.77 87.16L623.19 87.16L623.19 87.34ZM614.35 87.34L609.93 87.34L609.93 87.16L614.35 87.16L614.35 87.34ZM605.51 87.34L601.09 87.34L601.09 87.16L605.51 87.16L605.51 87.34ZM596.67 87.34L592.26 87.34L592.26 87.16L596.67 87.16L596.67 87.34ZM587.84 87.34L583.42 87.34L583.42 87.16L587.84 87.16L587.84 87.34ZM579 87.34L574.58 87.34L574.58 87.16L579 87.16L579 87.34ZM570.16 87.34L565.74 87.34L565.74 87.16L570.16 87.16L570.16 87.34ZM561.32 87.34L556.9 87.34L556.9 87.16L561.32 87.16L561.32 87.34ZM552.48 87.34L548.06 87.34L548.06 87.16L552.48 87.16L552.48 87.34ZM543.64 87.34L539.22 87.34L539.22 87.16L543.64 87.16L543.64 87.34ZM534.81 87.34L530.39 87.34L530.39 87.16L534.81 87.16L534.81 87.34ZM525.97 87.34L521.55 87.34L521.55 87.16L525.97 87.16L525.97 87.34ZM517.13 87.34L512.71 87.34L512.71 87.16L517.13 87.16L517.13 87.34ZM508.29 87.34L503.87 87.34L503.87 87.16L508.29 87.16L508.29 87.34ZM499.45 87.34L495.03 87.34L495.03 87.16L499.45 87.16L499.45 87.34ZM490.61 87.34L486.19 87.34L486.19 87.16L490.61 87.16L490.61 87.34ZM481.78 87.34L477.36 87.34L477.36 87.16L481.78 87.16L481.78 87.34ZM472.94 87.34L468.52 87.34L468.52 87.16L472.94 87.16L472.94 87.34ZM464.1 87.34L459.68 87.34L459.68 87.16L464.1 87.16L464.1 87.34ZM455.26 87.34L450.84 87.34L450.84 87.16L455.26 87.16L455.26 87.34ZM446.42 87.34L442 87.34L442 87.16L446.42 87.16L446.42 87.34ZM437.58 87.34L433.16 87.34L433.16 87.16L437.58 87.16L437.58 87.34ZM428.75 87.34L424.33 87.34L424.33 87.16L428.75 87.16L428.75 87.34ZM419.91 87.34L415.49 87.34L415.49 87.16L419.91 87.16L419.91 87.34ZM411.07 87.34L406.65 87.34L406.65 87.16L411.07 87.16L411.07 87.34ZM402.23 87.34L397.81 87.34L397.81 87.16L402.23 87.16L402.23 87.34ZM393.39 87.34L388.97 87.34L388.97 87.16L393.39 87.16L393.39 87.34ZM384.55 87.34L380.14 87.34L380.14 87.16L384.55 87.16L384.55 87.34ZM375.72 87.34L371.3 87.34L371.3 87.16L375.72 87.16L375.72 87.34ZM366.88 87.34L362.46 87.34L362.46 87.16L366.88 87.16L366.88 87.34ZM358.04 87.34L353.62 87.34L353.62 87.16L358.04 87.16L358.04 87.34ZM349.2 87.34L344.78 87.34L344.78 87.16L349.2 87.16L349.2 87.34ZM340.36 87.34L335.94 87.34L335.94 87.16L340.36 87.16L340.36 87.34ZM331.52 87.34L327.1 87.34L327.1 87.16L331.52 87.16L331.52 87.34ZM322.69 87.34L318.27 87.34L318.27 87.16L322.69 87.16L322.69 87.34ZM313.85 87.34L309.43 87.34L309.43 87.16L313.85 87.16L313.85 87.34ZM305.01 87.34L300.59 87.34L300.59 87.16L305.01 87.16L305.01 87.34ZM296.17 87.34L291.75 87.34L291.75 87.16L296.17 87.16L296.17 87.34ZM287.33 87.34L282.91 87.34L282.91 87.16L287.33 87.16L287.33 87.34ZM278.49 87.34L274.07 87.34L274.07 87.16L278.49 87.16L278.49 87.34ZM269.66 87.34L265.24 87.34L265.24 87.16L269.66 87.16L269.66 87.34ZM260.82 87.34L256.4 87.34L256.4 87.16L260.82 87.16L260.82 87.34ZM251.98 87.34L247.56 87.34L247.56 87.16L251.98 87.16L251.98 87.34ZM243.14 87.34L238.72 87.34L238.72 87.16L243.14 87.16L243.14 87.34ZM234.3 87.34L229.88 87.34L229.88 87.16L234.3 87.16L234.3 87.34ZM225.46 87.34L221.05 87.34L221.05 87.16L225.46 87.16L225.46 87.34ZM216.63 87.34L212.21 87.34L212.21 87.16L216.63 87.16L216.63 87.34ZM207.79 87.34L203.37 87.34L203.37 87.16L207.79 87.16L207.79 87.34ZM198.95 87.34L194.53 87.34L194.53 87.16L198.95 87.16L198.95 87.34ZM190.11 87.34L185.69 87.34L185.69 87.16L190.11 87.16L190.11 87.34ZM181.27 87.34L176.85 87.34L176.85 87.16L181.27 87.16L181.27 87.34ZM172.43 87.34L168.02 87.34L168.02 87.16L172.43 87.16L172.43 87.34ZM163.6 87.34L159.18 87.34L159.18 87.16L163.6 87.16L163.6 87.34ZM154.76 87.34L150.34 87.34L150.34 87.16L154.76 87.16L154.76 87.34ZM145.92 87.34L141.5 87.34L141.5 87.16L145.92 87.16L145.92 87.34ZM137.08 87.34L132.66 87.34L132.66 87.16L137.08 87.16L137.08 87.34ZM128.24 87.34L123.82 87.34L123.82 87.16L128.24 87.16L128.24 87.34ZM119.4 87.34L114.99 87.34L114.99 87.16L119.4 87.16L119.4 87.34ZM110.57 87.34L106.15 87.34L106.15 87.16L110.57 87.16L110.57 87.34ZM101.73 87.34L97.31 87.34L97.31 87.16L101.73 87.16L101.73 87.34ZM92.89 87.34L88.47 87.34L88.47 87.16L92.89 87.16L92.89 87.34ZM84.05 87.34L79.63 87.34L79.63 87.16L84.05 87.16L84.05 87.34ZM75.21 87.34L70.79 87.34L70.79 87.16L75.21 87.16L75.21 87.34ZM66.37 87.34L61.96 87.34L61.96 87.16L66.37 87.16L66.37 87.34ZM57.54 87.34L53.12 87.34L53.12 87.16L57.54 87.16L57.54 87.34ZM48.7 87.34L44.28 87.34L44.28 87.16L48.7 87.16L48.7 87.34ZM39.86 87.34L35.44 87.34L35.44 87.16L39.86 87.16L39.86 87.34ZM31.02 87.34L26.6 87.34L26.6 87.16L31.02 87.16L31.02 87.34ZM22.18 87.34L17.76 87.34L17.76 87.16L22.18 87.16L22.18 87.34ZM13.34 87.34L8.93 87.34L8.93 87.16L13.34 87.16L13.34 87.34ZM4.51 87.34L0.09 87.34L0.09 87.16L4.51 87.16L4.51 87.34Z" fill="#2E2555" fill-opacity="1.000000" fill-rule="nonzero"/>
	<path id="Vector" d="M649.7 43.76L645.28 43.76L645.28 43.58L649.7 43.58L649.7 43.76ZM640.87 43.76L636.45 43.76L636.45 43.58L640.87 43.58L640.87 43.76ZM632.03 43.76L627.61 43.76L627.61 43.58L632.03 43.58L632.03 43.76ZM623.19 43.76L618.77 43.76L618.77 43.58L623.19 43.58L623.19 43.76ZM614.35 43.76L609.93 43.76L609.93 43.58L614.35 43.58L614.35 43.76ZM605.51 43.76L601.09 43.76L601.09 43.58L605.51 43.58L605.51 43.76ZM596.67 43.76L592.26 43.76L592.26 43.58L596.67 43.58L596.67 43.76ZM587.84 43.76L583.42 43.76L583.42 43.58L587.84 43.58L587.84 43.76ZM579 43.76L574.58 43.76L574.58 43.58L579 43.58L579 43.76ZM570.16 43.76L565.74 43.76L565.74 43.58L570.16 43.58L570.16 43.76ZM561.32 43.76L556.9 43.76L556.9 43.58L561.32 43.58L561.32 43.76ZM552.48 43.76L548.06 43.76L548.06 43.58L552.48 43.58L552.48 43.76ZM543.64 43.76L539.22 43.76L539.22 43.58L543.64 43.58L543.64 43.76ZM534.81 43.76L530.39 43.76L530.39 43.58L534.81 43.58L534.81 43.76ZM525.97 43.76L521.55 43.76L521.55 43.58L525.97 43.58L525.97 43.76ZM517.13 43.76L512.71 43.76L512.71 43.58L517.13 43.58L517.13 43.76ZM508.29 43.76L503.87 43.76L503.87 43.58L508.29 43.58L508.29 43.76ZM499.45 43.76L495.03 43.76L495.03 43.58L499.45 43.58L499.45 43.76ZM490.61 43.76L486.19 43.76L486.19 43.58L490.61 43.58L490.61 43.76ZM481.78 43.76L477.36 43.76L477.36 43.58L481.78 43.58L481.78 43.76ZM472.94 43.76L468.52 43.76L468.52 43.58L472.94 43.58L472.94 43.76ZM464.1 43.76L459.68 43.76L459.68 43.58L464.1 43.58L464.1 43.76ZM455.26 43.76L450.84 43.76L450.84 43.58L455.26 43.58L455.26 43.76ZM446.42 43.76L442 43.76L442 43.58L446.42 43.58L446.42 43.76ZM437.58 43.76L433.16 43.76L433.16 43.58L437.58 43.58L437.58 43.76ZM428.75 43.76L424.33 43.76L424.33 43.58L428.75 43.58L428.75 43.76ZM419.91 43.76L415.49 43.76L415.49 43.58L419.91 43.58L419.91 43.76ZM411.07 43.76L406.65 43.76L406.65 43.58L411.07 43.58L411.07 43.76ZM402.23 43.76L397.81 43.76L397.81 43.58L402.23 43.58L402.23 43.76ZM393.39 43.76L388.97 43.76L388.97 43.58L393.39 43.58L393.39 43.76ZM384.55 43.76L380.14 43.76L380.14 43.58L384.55 43.58L384.55 43.76ZM375.72 43.76L371.3 43.76L371.3 43.58L375.72 43.58L375.72 43.76ZM366.88 43.76L362.46 43.76L362.46 43.58L366.88 43.58L366.88 43.76ZM358.04 43.76L353.62 43.76L353.62 43.58L358.04 43.58L358.04 43.76ZM349.2 43.76L344.78 43.76L344.78 43.58L349.2 43.58L349.2 43.76ZM340.36 43.76L335.94 43.76L335.94 43.58L340.36 43.58L340.36 43.76ZM331.52 43.76L327.1 43.76L327.1 43.58L331.52 43.58L331.52 43.76ZM322.69 43.76L318.27 43.76L318.27 43.58L322.69 43.58L322.69 43.76ZM313.85 43.76L309.43 43.76L309.43 43.58L313.85 43.58L313.85 43.76ZM305.01 43.76L300.59 43.76L300.59 43.58L305.01 43.58L305.01 43.76ZM296.17 43.76L291.75 43.76L291.75 43.58L296.17 43.58L296.17 43.76ZM287.33 43.76L282.91 43.76L282.91 43.58L287.33 43.58L287.33 43.76ZM278.49 43.76L274.07 43.76L274.07 43.58L278.49 43.58L278.49 43.76ZM269.66 43.76L265.24 43.76L265.24 43.58L269.66 43.58L269.66 43.76ZM260.82 43.76L256.4 43.76L256.4 43.58L260.82 43.58L260.82 43.76ZM251.98 43.76L247.56 43.76L247.56 43.58L251.98 43.58L251.98 43.76ZM243.14 43.76L238.72 43.76L238.72 43.58L243.14 43.58L243.14 43.76ZM234.3 43.76L229.88 43.76L229.88 43.58L234.3 43.58L234.3 43.76ZM225.46 43.76L221.05 43.76L221.05 43.58L225.46 43.58L225.46 43.76ZM216.63 43.76L212.21 43.76L212.21 43.58L216.63 43.58L216.63 43.76ZM207.79 43.76L203.37 43.76L203.37 43.58L207.79 43.58L207.79 43.76ZM198.95 43.76L194.53 43.76L194.53 43.58L198.95 43.58L198.95 43.76ZM190.11 43.76L185.69 43.76L185.69 43.58L190.11 43.58L190.11 43.76ZM181.27 43.76L176.85 43.76L176.85 43.58L181.27 43.58L181.27 43.76ZM172.43 43.76L168.02 43.76L168.02 43.58L172.43 43.58L172.43 43.76ZM163.6 43.76L159.18 43.76L159.18 43.58L163.6 43.58L163.6 43.76ZM154.76 43.76L150.34 43.76L150.34 43.58L154.76 43.58L154.76 43.76ZM145.92 43.76L141.5 43.76L141.5 43.58L145.92 43.58L145.92 43.76ZM137.08 43.76L132.66 43.76L132.66 43.58L137.08 43.58L137.08 43.76ZM128.24 43.76L123.82 43.76L123.82 43.58L128.24 43.58L128.24 43.76ZM119.4 43.76L114.99 43.76L114.99 43.58L119.4 43.58L119.4 43.76ZM110.57 43.76L106.15 43.76L106.15 43.58L110.57 43.58L110.57 43.76ZM101.73 43.76L97.31 43.76L97.31 43.58L101.73 43.58L101.73 43.76ZM92.89 43.76L88.47 43.76L88.47 43.58L92.89 43.58L92.89 43.76ZM84.05 43.76L79.63 43.76L79.63 43.58L84.05 43.58L84.05 43.76ZM75.21 43.76L70.79 43.76L70.79 43.58L75.21 43.58L75.21 43.76ZM66.37 43.76L61.96 43.76L61.96 43.58L66.37 43.58L66.37 43.76ZM57.54 43.76L53.12 43.76L53.12 43.58L57.54 43.58L57.54 43.76ZM48.7 43.76L44.28 43.76L44.28 43.58L48.7 43.58L48.7 43.76ZM39.86 43.76L35.44 43.76L35.44 43.58L39.86 43.58L39.86 43.76ZM31.02 43.76L26.6 43.76L26.6 43.58L31.02 43.58L31.02 43.76ZM22.18 43.76L17.76 43.76L17.76 43.58L22.18 43.58L22.18 43.76ZM13.34 43.76L8.93 43.76L8.93 43.58L13.34 43.58L13.34 43.76ZM4.51 43.76L0.09 43.76L0.09 43.58L4.51 43.58L4.51 43.76Z" fill="#2E2555" fill-opacity="1.000000" fill-rule="nonzero"/>
	<path id="Vector" d="M588.53 435.9L588.35 435.9L588.35 433.16L588.53 433.16L588.53 435.9ZM588.53 428.75L588.35 428.75L588.35 424.33L588.53 424.33L588.53 428.75ZM588.53 419.91L588.35 419.91L588.35 415.49L588.53 415.49L588.53 419.91ZM588.53 411.07L588.35 411.07L588.35 406.65L588.53 406.65L588.53 411.07ZM588.53 402.23L588.35 402.23L588.35 397.81L588.53 397.81L588.53 402.23ZM588.53 393.39L588.35 393.39L588.35 388.97L588.53 388.97L588.53 393.39ZM588.53 384.55L588.35 384.55L588.35 380.13L588.53 380.13L588.53 384.55ZM588.53 375.71L588.35 375.71L588.35 371.3L588.53 371.3L588.53 375.71ZM588.53 366.88L588.35 366.88L588.35 362.46L588.53 362.46L588.53 366.88ZM588.53 358.04L588.35 358.04L588.35 353.62L588.53 353.62L588.53 358.04ZM588.53 349.2L588.35 349.2L588.35 344.78L588.53 344.78L588.53 349.2ZM588.53 340.36L588.35 340.36L588.35 335.94L588.53 335.94L588.53 340.36ZM588.53 331.52L588.35 331.52L588.35 327.1L588.53 327.1L588.53 331.52ZM588.53 322.68L588.35 322.68L588.35 318.27L588.53 318.27L588.53 322.68ZM588.53 313.85L588.35 313.85L588.35 309.43L588.53 309.43L588.53 313.85ZM588.53 305.01L588.35 305.01L588.35 300.59L588.53 300.59L588.53 305.01ZM588.53 296.17L588.35 296.17L588.35 291.75L588.53 291.75L588.53 296.17ZM588.53 287.33L588.35 287.33L588.35 282.91L588.53 282.91L588.53 287.33ZM588.53 278.49L588.35 278.49L588.35 274.07L588.53 274.07L588.53 278.49ZM588.53 269.66L588.35 269.66L588.35 265.24L588.53 265.24L588.53 269.66ZM588.53 260.82L588.35 260.82L588.35 256.4L588.53 256.4L588.53 260.82ZM588.53 251.98L588.35 251.98L588.35 247.56L588.53 247.56L588.53 251.98ZM588.53 243.14L588.35 243.14L588.35 238.72L588.53 238.72L588.53 243.14ZM588.53 234.3L588.35 234.3L588.35 229.88L588.53 229.88L588.53 234.3ZM588.53 225.46L588.35 225.46L588.35 221.05L588.53 221.05L588.53 225.46ZM588.53 216.63L588.35 216.63L588.35 212.21L588.53 212.21L588.53 216.63ZM588.53 207.79L588.35 207.79L588.35 203.37L588.53 203.37L588.53 207.79ZM588.53 198.95L588.35 198.95L588.35 194.53L588.53 194.53L588.53 198.95ZM588.53 190.11L588.35 190.11L588.35 185.69L588.53 185.69L588.53 190.11ZM588.53 181.27L588.35 181.27L588.35 176.85L588.53 176.85L588.53 181.27ZM588.53 172.43L588.35 172.43L588.35 168.02L588.53 168.02L588.53 172.43ZM588.53 163.6L588.35 163.6L588.35 159.18L588.53 159.18L588.53 163.6ZM588.53 154.76L588.35 154.76L588.35 150.34L588.53 150.34L588.53 154.76ZM588.53 145.92L588.35 145.92L588.35 141.5L588.53 141.5L588.53 145.92ZM588.53 137.08L588.35 137.08L588.35 132.66L588.53 132.66L588.53 137.08ZM588.53 128.24L588.35 128.24L588.35 123.82L588.53 123.82L588.53 128.24ZM588.53 119.4L588.35 119.4L588.35 114.99L588.53 114.99L588.53 119.4ZM588.53 110.57L588.35 110.57L588.35 106.15L588.53 106.15L588.53 110.57ZM588.53 101.73L588.35 101.73L588.35 97.31L588.53 97.31L588.53 101.73ZM588.53 92.89L588.35 92.89L588.35 88.47L588.53 88.47L588.53 92.89ZM588.53 84.05L588.35 84.05L588.35 79.63L588.53 79.63L588.53 84.05ZM588.53 75.21L588.35 75.21L588.35 70.79L588.53 70.79L588.53 75.21ZM588.53 66.37L588.35 66.37L588.35 61.96L588.53 61.96L588.53 66.37ZM588.53 57.54L588.35 57.54L588.35 53.12L588.53 53.12L588.53 57.54ZM588.53 48.7L588.35 48.7L588.35 44.28L588.53 44.28L588.53 48.7ZM588.53 39.86L588.35 39.86L588.35 35.44L588.53 35.44L588.53 39.86ZM588.53 31.02L588.35 31.02L588.35 26.6L588.53 26.6L588.53 31.02ZM588.53 22.18L588.35 22.18L588.35 17.76L588.53 17.76L588.53 22.18ZM588.53 13.34L588.35 13.34L588.35 8.93L588.53 8.93L588.53 13.34ZM588.53 4.51L588.35 4.51L588.35 0.09L588.53 0.09L588.53 4.51Z" fill="#2E2555" fill-opacity="1.000000" fill-rule="nonzero"/>
	<path id="Vector" d="M523.16 435.9L522.97 435.9L522.97 433.16L523.16 433.16L523.16 435.9ZM523.16 428.75L522.97 428.75L522.97 424.33L523.16 424.33L523.16 428.75ZM523.16 419.91L522.97 419.91L522.97 415.49L523.16 415.49L523.16 419.91ZM523.16 411.07L522.97 411.07L522.97 406.65L523.16 406.65L523.16 411.07ZM523.16 402.23L522.97 402.23L522.97 397.81L523.16 397.81L523.16 402.23ZM523.16 393.39L522.97 393.39L522.97 388.97L523.16 388.97L523.16 393.39ZM523.16 384.55L522.97 384.55L522.97 380.13L523.16 380.13L523.16 384.55ZM523.16 375.71L522.97 375.71L522.97 371.3L523.16 371.3L523.16 375.71ZM523.16 366.88L522.97 366.88L522.97 362.46L523.16 362.46L523.16 366.88ZM523.16 358.04L522.97 358.04L522.97 353.62L523.16 353.62L523.16 358.04ZM523.16 349.2L522.97 349.2L522.97 344.78L523.16 344.78L523.16 349.2ZM523.16 340.36L522.97 340.36L522.97 335.94L523.16 335.94L523.16 340.36ZM523.16 331.52L522.97 331.52L522.97 327.1L523.16 327.1L523.16 331.52ZM523.16 322.68L522.97 322.68L522.97 318.27L523.16 318.27L523.16 322.68ZM523.16 313.85L522.97 313.85L522.97 309.43L523.16 309.43L523.16 313.85ZM523.16 305.01L522.97 305.01L522.97 300.59L523.16 300.59L523.16 305.01ZM523.16 296.17L522.97 296.17L522.97 291.75L523.16 291.75L523.16 296.17ZM523.16 287.33L522.97 287.33L522.97 282.91L523.16 282.91L523.16 287.33ZM523.16 278.49L522.97 278.49L522.97 274.07L523.16 274.07L523.16 278.49ZM523.16 269.66L522.97 269.66L522.97 265.24L523.16 265.24L523.16 269.66ZM523.16 260.82L522.97 260.82L522.97 256.4L523.16 256.4L523.16 260.82ZM523.16 251.98L522.97 251.98L522.97 247.56L523.16 247.56L523.16 251.98ZM523.16 243.14L522.97 243.14L522.97 238.72L523.16 238.72L523.16 243.14ZM523.16 234.3L522.97 234.3L522.97 229.88L523.16 229.88L523.16 234.3ZM523.16 225.46L522.97 225.46L522.97 221.05L523.16 221.05L523.16 225.46ZM523.16 216.63L522.97 216.63L522.97 212.21L523.16 212.21L523.16 216.63ZM523.16 207.79L522.97 207.79L522.97 203.37L523.16 203.37L523.16 207.79ZM523.16 198.95L522.97 198.95L522.97 194.53L523.16 194.53L523.16 198.95ZM523.16 190.11L522.97 190.11L522.97 185.69L523.16 185.69L523.16 190.11ZM523.16 181.27L522.97 181.27L522.97 176.85L523.16 176.85L523.16 181.27ZM523.16 172.43L522.97 172.43L522.97 168.02L523.16 168.02L523.16 172.43ZM523.16 163.6L522.97 163.6L522.97 159.18L523.16 159.18L523.16 163.6ZM523.16 154.76L522.97 154.76L522.97 150.34L523.16 150.34L523.16 154.76ZM523.16 145.92L522.97 145.92L522.97 141.5L523.16 141.5L523.16 145.92ZM523.16 137.08L522.97 137.08L522.97 132.66L523.16 132.66L523.16 137.08ZM523.16 128.24L522.97 128.24L522.97 123.82L523.16 123.82L523.16 128.24ZM523.16 119.4L522.97 119.4L522.97 114.99L523.16 114.99L523.16 119.4ZM523.16 110.57L522.97 110.57L522.97 106.15L523.16 106.15L523.16 110.57ZM523.16 101.73L522.97 101.73L522.97 97.31L523.16 97.31L523.16 101.73ZM523.16 92.89L522.97 92.89L522.97 88.47L523.16 88.47L523.16 92.89ZM523.16 84.05L522.97 84.05L522.97 79.63L523.16 79.63L523.16 84.05ZM523.16 75.21L522.97 75.21L522.97 70.79L523.16 70.79L523.16 75.21ZM523.16 66.37L522.97 66.37L522.97 61.96L523.16 61.96L523.16 66.37ZM523.16 57.54L522.97 57.54L522.97 53.12L523.16 53.12L523.16 57.54ZM523.16 48.7L522.97 48.7L522.97 44.28L523.16 44.28L523.16 48.7ZM523.16 39.86L522.97 39.86L522.97 35.44L523.16 35.44L523.16 39.86ZM523.16 31.02L522.97 31.02L522.97 26.6L523.16 26.6L523.16 31.02ZM523.16 22.18L522.97 22.18L522.97 17.76L523.16 17.76L523.16 22.18ZM523.16 13.34L522.97 13.34L522.97 8.93L523.16 8.93L523.16 13.34ZM523.16 4.51L522.97 4.51L522.97 0.09L523.16 0.09L523.16 4.51Z" fill="#2E2555" fill-opacity="1.000000" fill-rule="nonzero"/>
	<path id="Vector" d="M457.79 435.9L457.6 435.9L457.6 433.16L457.79 433.16L457.79 435.9ZM457.79 428.75L457.6 428.75L457.6 424.33L457.79 424.33L457.79 428.75ZM457.79 419.91L457.6 419.91L457.6 415.49L457.79 415.49L457.79 419.91ZM457.79 411.07L457.6 411.07L457.6 406.65L457.79 406.65L457.79 411.07ZM457.79 402.23L457.6 402.23L457.6 397.81L457.79 397.81L457.79 402.23ZM457.79 393.39L457.6 393.39L457.6 388.97L457.79 388.97L457.79 393.39ZM457.79 384.55L457.6 384.55L457.6 380.13L457.79 380.13L457.79 384.55ZM457.79 375.71L457.6 375.71L457.6 371.3L457.79 371.3L457.79 375.71ZM457.79 366.88L457.6 366.88L457.6 362.46L457.79 362.46L457.79 366.88ZM457.79 358.04L457.6 358.04L457.6 353.62L457.79 353.62L457.79 358.04ZM457.79 349.2L457.6 349.2L457.6 344.78L457.79 344.78L457.79 349.2ZM457.79 340.36L457.6 340.36L457.6 335.94L457.79 335.94L457.79 340.36ZM457.79 331.52L457.6 331.52L457.6 327.1L457.79 327.1L457.79 331.52ZM457.79 322.68L457.6 322.68L457.6 318.27L457.79 318.27L457.79 322.68ZM457.79 313.85L457.6 313.85L457.6 309.43L457.79 309.43L457.79 313.85ZM457.79 305.01L457.6 305.01L457.6 300.59L457.79 300.59L457.79 305.01ZM457.79 296.17L457.6 296.17L457.6 291.75L457.79 291.75L457.79 296.17ZM457.79 287.33L457.6 287.33L457.6 282.91L457.79 282.91L457.79 287.33ZM457.79 278.49L457.6 278.49L457.6 274.07L457.79 274.07L457.79 278.49ZM457.79 269.66L457.6 269.66L457.6 265.24L457.79 265.24L457.79 269.66ZM457.79 260.82L457.6 260.82L457.6 256.4L457.79 256.4L457.79 260.82ZM457.79 251.98L457.6 251.98L457.6 247.56L457.79 247.56L457.79 251.98ZM457.79 243.14L457.6 243.14L457.6 238.72L457.79 238.72L457.79 243.14ZM457.79 234.3L457.6 234.3L457.6 229.88L457.79 229.88L457.79 234.3ZM457.79 225.46L457.6 225.46L457.6 221.05L457.79 221.05L457.79 225.46ZM457.79 216.63L457.6 216.63L457.6 212.21L457.79 212.21L457.79 216.63ZM457.79 207.79L457.6 207.79L457.6 203.37L457.79 203.37L457.79 207.79ZM457.79 198.95L457.6 198.95L457.6 194.53L457.79 194.53L457.79 198.95ZM457.79 190.11L457.6 190.11L457.6 185.69L457.79 185.69L457.79 190.11ZM457.79 181.27L457.6 181.27L457.6 176.85L457.79 176.85L457.79 181.27ZM457.79 172.43L457.6 172.43L457.6 168.02L457.79 168.02L457.79 172.43ZM457.79 163.6L457.6 163.6L457.6 159.18L457.79 159.18L457.79 163.6ZM457.79 154.76L457.6 154.76L457.6 150.34L457.79 150.34L457.79 154.76ZM457.79 145.92L457.6 145.92L457.6 141.5L457.79 141.5L457.79 145.92ZM457.79 137.08L457.6 137.08L457.6 132.66L457.79 132.66L457.79 137.08ZM457.79 128.24L457.6 128.24L457.6 123.82L457.79 123.82L457.79 128.24ZM457.79 119.4L457.6 119.4L457.6 114.99L457.79 114.99L457.79 119.4ZM457.79 110.57L457.6 110.57L457.6 106.15L457.79 106.15L457.79 110.57ZM457.79 101.73L457.6 101.73L457.6 97.31L457.79 97.31L457.79 101.73ZM457.79 92.89L457.6 92.89L457.6 88.47L457.79 88.47L457.79 92.89ZM457.79 84.05L457.6 84.05L457.6 79.63L457.79 79.63L457.79 84.05ZM457.79 75.21L457.6 75.21L457.6 70.79L457.79 70.79L457.79 75.21ZM457.79 66.37L457.6 66.37L457.6 61.96L457.79 61.96L457.79 66.37ZM457.79 57.54L457.6 57.54L457.6 53.12L457.79 53.12L457.79 57.54ZM457.79 48.7L457.6 48.7L457.6 44.28L457.79 44.28L457.79 48.7ZM457.79 39.86L457.6 39.86L457.6 35.44L457.79 35.44L457.79 39.86ZM457.79 31.02L457.6 31.02L457.6 26.6L457.79 26.6L457.79 31.02ZM457.79 22.18L457.6 22.18L457.6 17.76L457.79 17.76L457.79 22.18ZM457.79 13.34L457.6 13.34L457.6 8.93L457.79 8.93L457.79 13.34ZM457.79 4.51L457.6 4.51L457.6 0.09L457.79 0.09L457.79 4.51Z" fill="#2E2555" fill-opacity="1.000000" fill-rule="nonzero"/>
	<path id="Vector" d="M392.41 435.9L392.23 435.9L392.23 433.16L392.41 433.16L392.41 435.9ZM392.41 428.75L392.23 428.75L392.23 424.33L392.41 424.33L392.41 428.75ZM392.41 419.91L392.23 419.91L392.23 415.49L392.41 415.49L392.41 419.91ZM392.41 411.07L392.23 411.07L392.23 406.65L392.41 406.65L392.41 411.07ZM392.41 402.23L392.23 402.23L392.23 397.81L392.41 397.81L392.41 402.23ZM392.41 393.39L392.23 393.39L392.23 388.97L392.41 388.97L392.41 393.39ZM392.41 384.55L392.23 384.55L392.23 380.13L392.41 380.13L392.41 384.55ZM392.41 375.71L392.23 375.71L392.23 371.3L392.41 371.3L392.41 375.71ZM392.41 366.88L392.23 366.88L392.23 362.46L392.41 362.46L392.41 366.88ZM392.41 358.04L392.23 358.04L392.23 353.62L392.41 353.62L392.41 358.04ZM392.41 349.2L392.23 349.2L392.23 344.78L392.41 344.78L392.41 349.2ZM392.41 340.36L392.23 340.36L392.23 335.94L392.41 335.94L392.41 340.36ZM392.41 331.52L392.23 331.52L392.23 327.1L392.41 327.1L392.41 331.52ZM392.41 322.68L392.23 322.68L392.23 318.27L392.41 318.27L392.41 322.68ZM392.41 313.85L392.23 313.85L392.23 309.43L392.41 309.43L392.41 313.85ZM392.41 305.01L392.23 305.01L392.23 300.59L392.41 300.59L392.41 305.01ZM392.41 296.17L392.23 296.17L392.23 291.75L392.41 291.75L392.41 296.17ZM392.41 287.33L392.23 287.33L392.23 282.91L392.41 282.91L392.41 287.33ZM392.41 278.49L392.23 278.49L392.23 274.07L392.41 274.07L392.41 278.49ZM392.41 269.66L392.23 269.66L392.23 265.24L392.41 265.24L392.41 269.66ZM392.41 260.82L392.23 260.82L392.23 256.4L392.41 256.4L392.41 260.82ZM392.41 251.98L392.23 251.98L392.23 247.56L392.41 247.56L392.41 251.98ZM392.41 243.14L392.23 243.14L392.23 238.72L392.41 238.72L392.41 243.14ZM392.41 234.3L392.23 234.3L392.23 229.88L392.41 229.88L392.41 234.3ZM392.41 225.46L392.23 225.46L392.23 221.05L392.41 221.05L392.41 225.46ZM392.41 216.63L392.23 216.63L392.23 212.21L392.41 212.21L392.41 216.63ZM392.41 207.79L392.23 207.79L392.23 203.37L392.41 203.37L392.41 207.79ZM392.41 198.95L392.23 198.95L392.23 194.53L392.41 194.53L392.41 198.95ZM392.41 190.11L392.23 190.11L392.23 185.69L392.41 185.69L392.41 190.11ZM392.41 181.27L392.23 181.27L392.23 176.85L392.41 176.85L392.41 181.27ZM392.41 172.43L392.23 172.43L392.23 168.02L392.41 168.02L392.41 172.43ZM392.41 163.6L392.23 163.6L392.23 159.18L392.41 159.18L392.41 163.6ZM392.41 154.76L392.23 154.76L392.23 150.34L392.41 150.34L392.41 154.76ZM392.41 145.92L392.23 145.92L392.23 141.5L392.41 141.5L392.41 145.92ZM392.41 137.08L392.23 137.08L392.23 132.66L392.41 132.66L392.41 137.08ZM392.41 128.24L392.23 128.24L392.23 123.82L392.41 123.82L392.41 128.24ZM392.41 119.4L392.23 119.4L392.23 114.99L392.41 114.99L392.41 119.4ZM392.41 110.57L392.23 110.57L392.23 106.15L392.41 106.15L392.41 110.57ZM392.41 101.73L392.23 101.73L392.23 97.31L392.41 97.31L392.41 101.73ZM392.41 92.89L392.23 92.89L392.23 88.47L392.41 88.47L392.41 92.89ZM392.41 84.05L392.23 84.05L392.23 79.63L392.41 79.63L392.41 84.05ZM392.41 75.21L392.23 75.21L392.23 70.79L392.41 70.79L392.41 75.21ZM392.41 66.37L392.23 66.37L392.23 61.96L392.41 61.96L392.41 66.37ZM392.41 57.54L392.23 57.54L392.23 53.12L392.41 53.12L392.41 57.54ZM392.41 48.7L392.23 48.7L392.23 44.28L392.41 44.28L392.41 48.7ZM392.41 39.86L392.23 39.86L392.23 35.44L392.41 35.44L392.41 39.86ZM392.41 31.02L392.23 31.02L392.23 26.6L392.41 26.6L392.41 31.02ZM392.41 22.18L392.23 22.18L392.23 17.76L392.41 17.76L392.41 22.18ZM392.41 13.34L392.23 13.34L392.23 8.93L392.41 8.93L392.41 13.34ZM392.41 4.51L392.23 4.51L392.23 0.09L392.41 0.09L392.41 4.51Z" fill="#2E2555" fill-opacity="1.000000" fill-rule="nonzero"/>
	<path id="Vector" d="M327.04 435.9L326.86 435.9L326.86 433.16L327.04 433.16L327.04 435.9ZM327.04 428.75L326.86 428.75L326.86 424.33L327.04 424.33L327.04 428.75ZM327.04 419.91L326.86 419.91L326.86 415.49L327.04 415.49L327.04 419.91ZM327.04 411.07L326.86 411.07L326.86 406.65L327.04 406.65L327.04 411.07ZM327.04 402.23L326.86 402.23L326.86 397.81L327.04 397.81L327.04 402.23ZM327.04 393.39L326.86 393.39L326.86 388.97L327.04 388.97L327.04 393.39ZM327.04 384.55L326.86 384.55L326.86 380.13L327.04 380.13L327.04 384.55ZM327.04 375.71L326.86 375.71L326.86 371.3L327.04 371.3L327.04 375.71ZM327.04 366.88L326.86 366.88L326.86 362.46L327.04 362.46L327.04 366.88ZM327.04 358.04L326.86 358.04L326.86 353.62L327.04 353.62L327.04 358.04ZM327.04 349.2L326.86 349.2L326.86 344.78L327.04 344.78L327.04 349.2ZM327.04 340.36L326.86 340.36L326.86 335.94L327.04 335.94L327.04 340.36ZM327.04 331.52L326.86 331.52L326.86 327.1L327.04 327.1L327.04 331.52ZM327.04 322.68L326.86 322.68L326.86 318.27L327.04 318.27L327.04 322.68ZM327.04 313.85L326.86 313.85L326.86 309.43L327.04 309.43L327.04 313.85ZM327.04 305.01L326.86 305.01L326.86 300.59L327.04 300.59L327.04 305.01ZM327.04 296.17L326.86 296.17L326.86 291.75L327.04 291.75L327.04 296.17ZM327.04 287.33L326.86 287.33L326.86 282.91L327.04 282.91L327.04 287.33ZM327.04 278.49L326.86 278.49L326.86 274.07L327.04 274.07L327.04 278.49ZM327.04 269.66L326.86 269.66L326.86 265.24L327.04 265.24L327.04 269.66ZM327.04 260.82L326.86 260.82L326.86 256.4L327.04 256.4L327.04 260.82ZM327.04 251.98L326.86 251.98L326.86 247.56L327.04 247.56L327.04 251.98ZM327.04 243.14L326.86 243.14L326.86 238.72L327.04 238.72L327.04 243.14ZM327.04 234.3L326.86 234.3L326.86 229.88L327.04 229.88L327.04 234.3ZM327.04 225.46L326.86 225.46L326.86 221.05L327.04 221.05L327.04 225.46ZM327.04 216.63L326.86 216.63L326.86 212.21L327.04 212.21L327.04 216.63ZM327.04 207.79L326.86 207.79L326.86 203.37L327.04 203.37L327.04 207.79ZM327.04 198.95L326.86 198.95L326.86 194.53L327.04 194.53L327.04 198.95ZM327.04 190.11L326.86 190.11L326.86 185.69L327.04 185.69L327.04 190.11ZM327.04 181.27L326.86 181.27L326.86 176.85L327.04 176.85L327.04 181.27ZM327.04 172.43L326.86 172.43L326.86 168.02L327.04 168.02L327.04 172.43ZM327.04 163.6L326.86 163.6L326.86 159.18L327.04 159.18L327.04 163.6ZM327.04 154.76L326.86 154.76L326.86 150.34L327.04 150.34L327.04 154.76ZM327.04 145.92L326.86 145.92L326.86 141.5L327.04 141.5L327.04 145.92ZM327.04 137.08L326.86 137.08L326.86 132.66L327.04 132.66L327.04 137.08ZM327.04 128.24L326.86 128.24L326.86 123.82L327.04 123.82L327.04 128.24ZM327.04 119.4L326.86 119.4L326.86 114.99L327.04 114.99L327.04 119.4ZM327.04 110.57L326.86 110.57L326.86 106.15L327.04 106.15L327.04 110.57ZM327.04 101.73L326.86 101.73L326.86 97.31L327.04 97.31L327.04 101.73ZM327.04 92.89L326.86 92.89L326.86 88.47L327.04 88.47L327.04 92.89ZM327.04 84.05L326.86 84.05L326.86 79.63L327.04 79.63L327.04 84.05ZM327.04 75.21L326.86 75.21L326.86 70.79L327.04 70.79L327.04 75.21ZM327.04 66.37L326.86 66.37L326.86 61.96L327.04 61.96L327.04 66.37ZM327.04 57.54L326.86 57.54L326.86 53.12L327.04 53.12L327.04 57.54ZM327.04 48.7L326.86 48.7L326.86 44.28L327.04 44.28L327.04 48.7ZM327.04 39.86L326.86 39.86L326.86 35.44L327.04 35.44L327.04 39.86ZM327.04 31.02L326.86 31.02L326.86 26.6L327.04 26.6L327.04 31.02ZM327.04 22.18L326.86 22.18L326.86 17.76L327.04 17.76L327.04 22.18ZM327.04 13.34L326.86 13.34L326.86 8.93L327.04 8.93L327.04 13.34ZM327.04 4.51L326.86 4.51L326.86 0.09L327.04 0.09L327.04 4.51Z" fill="#2E2555" fill-opacity="1.000000" fill-rule="nonzero"/>
	<path id="Vector" d="M261.67 435.9L261.48 435.9L261.48 433.16L261.67 433.16L261.67 435.9ZM261.67 428.75L261.48 428.75L261.48 424.33L261.67 424.33L261.67 428.75ZM261.67 419.91L261.48 419.91L261.48 415.49L261.67 415.49L261.67 419.91ZM261.67 411.07L261.48 411.07L261.48 406.65L261.67 406.65L261.67 411.07ZM261.67 402.23L261.48 402.23L261.48 397.81L261.67 397.81L261.67 402.23ZM261.67 393.39L261.48 393.39L261.48 388.97L261.67 388.97L261.67 393.39ZM261.67 384.55L261.48 384.55L261.48 380.13L261.67 380.13L261.67 384.55ZM261.67 375.71L261.48 375.71L261.48 371.3L261.67 371.3L261.67 375.71ZM261.67 366.88L261.48 366.88L261.48 362.46L261.67 362.46L261.67 366.88ZM261.67 358.04L261.48 358.04L261.48 353.62L261.67 353.62L261.67 358.04ZM261.67 349.2L261.48 349.2L261.48 344.78L261.67 344.78L261.67 349.2ZM261.67 340.36L261.48 340.36L261.48 335.94L261.67 335.94L261.67 340.36ZM261.67 331.52L261.48 331.52L261.48 327.1L261.67 327.1L261.67 331.52ZM261.67 322.68L261.48 322.68L261.48 318.27L261.67 318.27L261.67 322.68ZM261.67 313.85L261.48 313.85L261.48 309.43L261.67 309.43L261.67 313.85ZM261.67 305.01L261.48 305.01L261.48 300.59L261.67 300.59L261.67 305.01ZM261.67 296.17L261.48 296.17L261.48 291.75L261.67 291.75L261.67 296.17ZM261.67 287.33L261.48 287.33L261.48 282.91L261.67 282.91L261.67 287.33ZM261.67 278.49L261.48 278.49L261.48 274.07L261.67 274.07L261.67 278.49ZM261.67 269.66L261.48 269.66L261.48 265.24L261.67 265.24L261.67 269.66ZM261.67 260.82L261.48 260.82L261.48 256.4L261.67 256.4L261.67 260.82ZM261.67 251.98L261.48 251.98L261.48 247.56L261.67 247.56L261.67 251.98ZM261.67 243.14L261.48 243.14L261.48 238.72L261.67 238.72L261.67 243.14ZM261.67 234.3L261.48 234.3L261.48 229.88L261.67 229.88L261.67 234.3ZM261.67 225.46L261.48 225.46L261.48 221.05L261.67 221.05L261.67 225.46ZM261.67 216.63L261.48 216.63L261.48 212.21L261.67 212.21L261.67 216.63ZM261.67 207.79L261.48 207.79L261.48 203.37L261.67 203.37L261.67 207.79ZM261.67 198.95L261.48 198.95L261.48 194.53L261.67 194.53L261.67 198.95ZM261.67 190.11L261.48 190.11L261.48 185.69L261.67 185.69L261.67 190.11ZM261.67 181.27L261.48 181.27L261.48 176.85L261.67 176.85L261.67 181.27ZM261.67 172.43L261.48 172.43L261.48 168.02L261.67 168.02L261.67 172.43ZM261.67 163.6L261.48 163.6L261.48 159.18L261.67 159.18L261.67 163.6ZM261.67 154.76L261.48 154.76L261.48 150.34L261.67 150.34L261.67 154.76ZM261.67 145.92L261.48 145.92L261.48 141.5L261.67 141.5L261.67 145.92ZM261.67 137.08L261.48 137.08L261.48 132.66L261.67 132.66L261.67 137.08ZM261.67 128.24L261.48 128.24L261.48 123.82L261.67 123.82L261.67 128.24ZM261.67 119.4L261.48 119.4L261.48 114.99L261.67 114.99L261.67 119.4ZM261.67 110.57L261.48 110.57L261.48 106.15L261.67 106.15L261.67 110.57ZM261.67 101.73L261.48 101.73L261.48 97.31L261.67 97.31L261.67 101.73ZM261.67 92.89L261.48 92.89L261.48 88.47L261.67 88.47L261.67 92.89ZM261.67 84.05L261.48 84.05L261.48 79.63L261.67 79.63L261.67 84.05ZM261.67 75.21L261.48 75.21L261.48 70.79L261.67 70.79L261.67 75.21ZM261.67 66.37L261.48 66.37L261.48 61.96L261.67 61.96L261.67 66.37ZM261.67 57.54L261.48 57.54L261.48 53.12L261.67 53.12L261.67 57.54ZM261.67 48.7L261.48 48.7L261.48 44.28L261.67 44.28L261.67 48.7ZM261.67 39.86L261.48 39.86L261.48 35.44L261.67 35.44L261.67 39.86ZM261.67 31.02L261.48 31.02L261.48 26.6L261.67 26.6L261.67 31.02ZM261.67 22.18L261.48 22.18L261.48 17.76L261.67 17.76L261.67 22.18ZM261.67 13.34L261.48 13.34L261.48 8.93L261.67 8.93L261.67 13.34ZM261.67 4.51L261.48 4.51L261.48 0.09L261.67 0.09L261.67 4.51Z" fill="#2E2555" fill-opacity="1.000000" fill-rule="nonzero"/>
	<path id="Vector" d="M196.3 435.9L196.11 435.9L196.11 433.16L196.3 433.16L196.3 435.9ZM196.3 428.75L196.11 428.75L196.11 424.33L196.3 424.33L196.3 428.75ZM196.3 419.91L196.11 419.91L196.11 415.49L196.3 415.49L196.3 419.91ZM196.3 411.07L196.11 411.07L196.11 406.65L196.3 406.65L196.3 411.07ZM196.3 402.23L196.11 402.23L196.11 397.81L196.3 397.81L196.3 402.23ZM196.3 393.39L196.11 393.39L196.11 388.97L196.3 388.97L196.3 393.39ZM196.3 384.55L196.11 384.55L196.11 380.13L196.3 380.13L196.3 384.55ZM196.3 375.71L196.11 375.71L196.11 371.3L196.3 371.3L196.3 375.71ZM196.3 366.88L196.11 366.88L196.11 362.46L196.3 362.46L196.3 366.88ZM196.3 358.04L196.11 358.04L196.11 353.62L196.3 353.62L196.3 358.04ZM196.3 349.2L196.11 349.2L196.11 344.78L196.3 344.78L196.3 349.2ZM196.3 340.36L196.11 340.36L196.11 335.94L196.3 335.94L196.3 340.36ZM196.3 331.52L196.11 331.52L196.11 327.1L196.3 327.1L196.3 331.52ZM196.3 322.68L196.11 322.68L196.11 318.27L196.3 318.27L196.3 322.68ZM196.3 313.85L196.11 313.85L196.11 309.43L196.3 309.43L196.3 313.85ZM196.3 305.01L196.11 305.01L196.11 300.59L196.3 300.59L196.3 305.01ZM196.3 296.17L196.11 296.17L196.11 291.75L196.3 291.75L196.3 296.17ZM196.3 287.33L196.11 287.33L196.11 282.91L196.3 282.91L196.3 287.33ZM196.3 278.49L196.11 278.49L196.11 274.07L196.3 274.07L196.3 278.49ZM196.3 269.66L196.11 269.66L196.11 265.24L196.3 265.24L196.3 269.66ZM196.3 260.82L196.11 260.82L196.11 256.4L196.3 256.4L196.3 260.82ZM196.3 251.98L196.11 251.98L196.11 247.56L196.3 247.56L196.3 251.98ZM196.3 243.14L196.11 243.14L196.11 238.72L196.3 238.72L196.3 243.14ZM196.3 234.3L196.11 234.3L196.11 229.88L196.3 229.88L196.3 234.3ZM196.3 225.46L196.11 225.46L196.11 221.05L196.3 221.05L196.3 225.46ZM196.3 216.63L196.11 216.63L196.11 212.21L196.3 212.21L196.3 216.63ZM196.3 207.79L196.11 207.79L196.11 203.37L196.3 203.37L196.3 207.79ZM196.3 198.95L196.11 198.95L196.11 194.53L196.3 194.53L196.3 198.95ZM196.3 190.11L196.11 190.11L196.11 185.69L196.3 185.69L196.3 190.11ZM196.3 181.27L196.11 181.27L196.11 176.85L196.3 176.85L196.3 181.27ZM196.3 172.43L196.11 172.43L196.11 168.02L196.3 168.02L196.3 172.43ZM196.3 163.6L196.11 163.6L196.11 159.18L196.3 159.18L196.3 163.6ZM196.3 154.76L196.11 154.76L196.11 150.34L196.3 150.34L196.3 154.76ZM196.3 145.92L196.11 145.92L196.11 141.5L196.3 141.5L196.3 145.92ZM196.3 137.08L196.11 137.08L196.11 132.66L196.3 132.66L196.3 137.08ZM196.3 128.24L196.11 128.24L196.11 123.82L196.3 123.82L196.3 128.24ZM196.3 119.4L196.11 119.4L196.11 114.99L196.3 114.99L196.3 119.4ZM196.3 110.57L196.11 110.57L196.11 106.15L196.3 106.15L196.3 110.57ZM196.3 101.73L196.11 101.73L196.11 97.31L196.3 97.31L196.3 101.73ZM196.3 92.89L196.11 92.89L196.11 88.47L196.3 88.47L196.3 92.89ZM196.3 84.05L196.11 84.05L196.11 79.63L196.3 79.63L196.3 84.05ZM196.3 75.21L196.11 75.21L196.11 70.79L196.3 70.79L196.3 75.21ZM196.3 66.37L196.11 66.37L196.11 61.96L196.3 61.96L196.3 66.37ZM196.3 57.54L196.11 57.54L196.11 53.12L196.3 53.12L196.3 57.54ZM196.3 48.7L196.11 48.7L196.11 44.28L196.3 44.28L196.3 48.7ZM196.3 39.86L196.11 39.86L196.11 35.44L196.3 35.44L196.3 39.86ZM196.3 31.02L196.11 31.02L196.11 26.6L196.3 26.6L196.3 31.02ZM196.3 22.18L196.11 22.18L196.11 17.76L196.3 17.76L196.3 22.18ZM196.3 13.34L196.11 13.34L196.11 8.93L196.3 8.93L196.3 13.34ZM196.3 4.51L196.11 4.51L196.11 0.09L196.3 0.09L196.3 4.51Z" fill="#2E2555" fill-opacity="1.000000" fill-rule="nonzero"/>
	<path id="Vector" d="M130.92 435.9L130.74 435.9L130.74 433.16L130.92 433.16L130.92 435.9ZM130.92 428.75L130.74 428.75L130.74 424.33L130.92 424.33L130.92 428.75ZM130.92 419.91L130.74 419.91L130.74 415.49L130.92 415.49L130.92 419.91ZM130.92 411.07L130.74 411.07L130.74 406.65L130.92 406.65L130.92 411.07ZM130.92 402.23L130.74 402.23L130.74 397.81L130.92 397.81L130.92 402.23ZM130.92 393.39L130.74 393.39L130.74 388.97L130.92 388.97L130.92 393.39ZM130.92 384.55L130.74 384.55L130.74 380.13L130.92 380.13L130.92 384.55ZM130.92 375.71L130.74 375.71L130.74 371.3L130.92 371.3L130.92 375.71ZM130.92 366.88L130.74 366.88L130.74 362.46L130.92 362.46L130.92 366.88ZM130.92 358.04L130.74 358.04L130.74 353.62L130.92 353.62L130.92 358.04ZM130.92 349.2L130.74 349.2L130.74 344.78L130.92 344.78L130.92 349.2ZM130.92 340.36L130.74 340.36L130.74 335.94L130.92 335.94L130.92 340.36ZM130.92 331.52L130.74 331.52L130.74 327.1L130.92 327.1L130.92 331.52ZM130.92 322.68L130.74 322.68L130.74 318.27L130.92 318.27L130.92 322.68ZM130.92 313.85L130.74 313.85L130.74 309.43L130.92 309.43L130.92 313.85ZM130.92 305.01L130.74 305.01L130.74 300.59L130.92 300.59L130.92 305.01ZM130.92 296.17L130.74 296.17L130.74 291.75L130.92 291.75L130.92 296.17ZM130.92 287.33L130.74 287.33L130.74 282.91L130.92 282.91L130.92 287.33ZM130.92 278.49L130.74 278.49L130.74 274.07L130.92 274.07L130.92 278.49ZM130.92 269.66L130.74 269.66L130.74 265.24L130.92 265.24L130.92 269.66ZM130.92 260.82L130.74 260.82L130.74 256.4L130.92 256.4L130.92 260.82ZM130.92 251.98L130.74 251.98L130.74 247.56L130.92 247.56L130.92 251.98ZM130.92 243.14L130.74 243.14L130.74 238.72L130.92 238.72L130.92 243.14ZM130.92 234.3L130.74 234.3L130.74 229.88L130.92 229.88L130.92 234.3ZM130.92 225.46L130.74 225.46L130.74 221.05L130.92 221.05L130.92 225.46ZM130.92 216.63L130.74 216.63L130.74 212.21L130.92 212.21L130.92 216.63ZM130.92 207.79L130.74 207.79L130.74 203.37L130.92 203.37L130.92 207.79ZM130.92 198.95L130.74 198.95L130.74 194.53L130.92 194.53L130.92 198.95ZM130.92 190.11L130.74 190.11L130.74 185.69L130.92 185.69L130.92 190.11ZM130.92 181.27L130.74 181.27L130.74 176.85L130.92 176.85L130.92 181.27ZM130.92 172.43L130.74 172.43L130.74 168.02L130.92 168.02L130.92 172.43ZM130.92 163.6L130.74 163.6L130.74 159.18L130.92 159.18L130.92 163.6ZM130.92 154.76L130.74 154.76L130.74 150.34L130.92 150.34L130.92 154.76ZM130.92 145.92L130.74 145.92L130.74 141.5L130.92 141.5L130.92 145.92ZM130.92 137.08L130.74 137.08L130.74 132.66L130.92 132.66L130.92 137.08ZM130.92 128.24L130.74 128.24L130.74 123.82L130.92 123.82L130.92 128.24ZM130.92 119.4L130.74 119.4L130.74 114.99L130.92 114.99L130.92 119.4ZM130.92 110.57L130.74 110.57L130.74 106.15L130.92 106.15L130.92 110.57ZM130.92 101.73L130.74 101.73L130.74 97.31L130.92 97.31L130.92 101.73ZM130.92 92.89L130.74 92.89L130.74 88.47L130.92 88.47L130.92 92.89ZM130.92 84.05L130.74 84.05L130.74 79.63L130.92 79.63L130.92 84.05ZM130.92 75.21L130.74 75.21L130.74 70.79L130.92 70.79L130.92 75.21ZM130.92 66.37L130.74 66.37L130.74 61.96L130.92 61.96L130.92 66.37ZM130.92 57.54L130.74 57.54L130.74 53.12L130.92 53.12L130.92 57.54ZM130.92 48.7L130.74 48.7L130.74 44.28L130.92 44.28L130.92 48.7ZM130.92 39.86L130.74 39.86L130.74 35.44L130.92 35.44L130.92 39.86ZM130.92 31.02L130.74 31.02L130.74 26.6L130.92 26.6L130.92 31.02ZM130.92 22.18L130.74 22.18L130.74 17.76L130.92 17.76L130.92 22.18ZM130.92 13.34L130.74 13.34L130.74 8.93L130.92 8.93L130.92 13.34ZM130.92 4.51L130.74 4.51L130.74 0.09L130.92 0.09L130.92 4.51Z" fill="#2E2555" fill-opacity="1.000000" fill-rule="nonzero"/>
	<path id="Vector" d="M65.55 435.9L65.37 435.9L65.37 433.16L65.55 433.16L65.55 435.9ZM65.55 428.75L65.37 428.75L65.37 424.33L65.55 424.33L65.55 428.75ZM65.55 419.91L65.37 419.91L65.37 415.49L65.55 415.49L65.55 419.91ZM65.55 411.07L65.37 411.07L65.37 406.65L65.55 406.65L65.55 411.07ZM65.55 402.23L65.37 402.23L65.37 397.81L65.55 397.81L65.55 402.23ZM65.55 393.39L65.37 393.39L65.37 388.97L65.55 388.97L65.55 393.39ZM65.55 384.55L65.37 384.55L65.37 380.13L65.55 380.13L65.55 384.55ZM65.55 375.71L65.37 375.71L65.37 371.3L65.55 371.3L65.55 375.71ZM65.55 366.88L65.37 366.88L65.37 362.46L65.55 362.46L65.55 366.88ZM65.55 358.04L65.37 358.04L65.37 353.62L65.55 353.62L65.55 358.04ZM65.55 349.2L65.37 349.2L65.37 344.78L65.55 344.78L65.55 349.2ZM65.55 340.36L65.37 340.36L65.37 335.94L65.55 335.94L65.55 340.36ZM65.55 331.52L65.37 331.52L65.37 327.1L65.55 327.1L65.55 331.52ZM65.55 322.68L65.37 322.68L65.37 318.27L65.55 318.27L65.55 322.68ZM65.55 313.85L65.37 313.85L65.37 309.43L65.55 309.43L65.55 313.85ZM65.55 305.01L65.37 305.01L65.37 300.59L65.55 300.59L65.55 305.01ZM65.55 296.17L65.37 296.17L65.37 291.75L65.55 291.75L65.55 296.17ZM65.55 287.33L65.37 287.33L65.37 282.91L65.55 282.91L65.55 287.33ZM65.55 278.49L65.37 278.49L65.37 274.07L65.55 274.07L65.55 278.49ZM65.55 269.66L65.37 269.66L65.37 265.24L65.55 265.24L65.55 269.66ZM65.55 260.82L65.37 260.82L65.37 256.4L65.55 256.4L65.55 260.82ZM65.55 251.98L65.37 251.98L65.37 247.56L65.55 247.56L65.55 251.98ZM65.55 243.14L65.37 243.14L65.37 238.72L65.55 238.72L65.55 243.14ZM65.55 234.3L65.37 234.3L65.37 229.88L65.55 229.88L65.55 234.3ZM65.55 225.46L65.37 225.46L65.37 221.05L65.55 221.05L65.55 225.46ZM65.55 216.63L65.37 216.63L65.37 212.21L65.55 212.21L65.55 216.63ZM65.55 207.79L65.37 207.79L65.37 203.37L65.55 203.37L65.55 207.79ZM65.55 198.95L65.37 198.95L65.37 194.53L65.55 194.53L65.55 198.95ZM65.55 190.11L65.37 190.11L65.37 185.69L65.55 185.69L65.55 190.11ZM65.55 181.27L65.37 181.27L65.37 176.85L65.55 176.85L65.55 181.27ZM65.55 172.43L65.37 172.43L65.37 168.02L65.55 168.02L65.55 172.43ZM65.55 163.6L65.37 163.6L65.37 159.18L65.55 159.18L65.55 163.6ZM65.55 154.76L65.37 154.76L65.37 150.34L65.55 150.34L65.55 154.76ZM65.55 145.92L65.37 145.92L65.37 141.5L65.55 141.5L65.55 145.92ZM65.55 137.08L65.37 137.08L65.37 132.66L65.55 132.66L65.55 137.08ZM65.55 128.24L65.37 128.24L65.37 123.82L65.55 123.82L65.55 128.24ZM65.55 119.4L65.37 119.4L65.37 114.99L65.55 114.99L65.55 119.4ZM65.55 110.57L65.37 110.57L65.37 106.15L65.55 106.15L65.55 110.57ZM65.55 101.73L65.37 101.73L65.37 97.31L65.55 97.31L65.55 101.73ZM65.55 92.89L65.37 92.89L65.37 88.47L65.55 88.47L65.55 92.89ZM65.55 84.05L65.37 84.05L65.37 79.63L65.55 79.63L65.55 84.05ZM65.55 75.21L65.37 75.21L65.37 70.79L65.55 70.79L65.55 75.21ZM65.55 66.37L65.37 66.37L65.37 61.96L65.55 61.96L65.55 66.37ZM65.55 57.54L65.37 57.54L65.37 53.12L65.55 53.12L65.55 57.54ZM65.55 48.7L65.37 48.7L65.37 44.28L65.55 44.28L65.55 48.7ZM65.55 39.86L65.37 39.86L65.37 35.44L65.55 35.44L65.55 39.86ZM65.55 31.02L65.37 31.02L65.37 26.6L65.55 26.6L65.55 31.02ZM65.55 22.18L65.37 22.18L65.37 17.76L65.55 17.76L65.55 22.18ZM65.55 13.34L65.37 13.34L65.37 8.93L65.55 8.93L65.55 13.34ZM65.55 4.51L65.37 4.51L65.37 0.09L65.55 0.09L65.55 4.51Z" fill="#2E2555" fill-opacity="1.000000" fill-rule="nonzero"/>
</svg>
