<svg width="24.000000" height="24.000000" viewBox="0 0 24 24" fill="none" xmlns="http://www.w3.org/2000/svg" xmlns:xlink="http://www.w3.org/1999/xlink">
	
	<defs/>
	<rect id="Rectangle 55" width="24.000000" height="24.000000" fill="#11244B" fill-opacity="1.000000"/>
	<path id="Vector" d="M11.98 11.22C10.99 11.25 10.11 11.59 9.29 12.13C9.22 12.18 9.15 12.23 9.1 12.3C8.91 12.53 8.98 12.72 9.26 12.79C9.37 12.82 9.48 12.84 9.59 12.87C10.03 13.02 10.16 13.24 10.04 13.7C9.76 14.84 9.48 15.97 9.21 17.1C9.01 17.94 9.43 18.63 10.24 18.69C11.44 18.78 12.5 18.39 13.46 17.7C13.56 17.62 13.64 17.44 13.63 17.32C13.63 17.24 13.43 17.18 13.31 17.12C13.27 17.1 13.21 17.09 13.15 17.08C12.62 16.94 12.48 16.71 12.61 16.18C12.88 15.07 13.16 13.97 13.41 12.86C13.47 12.6 13.47 12.3 13.41 12.04C13.26 11.46 12.75 11.19 11.98 11.22ZM14.47 7.83C14.47 6.81 13.68 6 12.67 6C11.65 5.99 10.83 6.8 10.83 7.82C10.84 8.83 11.64 9.62 12.66 9.62C13.65 9.62 14.47 8.82 14.47 7.83Z" fill="#FFFFFF" fill-opacity="1.000000" fill-rule="nonzero"/>
</svg>
