<svg width="32.492188" height="31.999512" viewBox="0 0 32.4922 31.9995" fill="none" xmlns="http://www.w3.org/2000/svg" xmlns:xlink="http://www.w3.org/1999/xlink">
	
	<defs/>
	<path id="LinkedIn" d="M2.39771 0.00195312L30.0852 0.00195312L30.0852 0C30.7148 -0.0078125 31.322 0.230469 31.7734 0.663086C32.2249 1.09521 32.4834 1.68652 32.4922 2.30664L32.4922 29.6904C32.4836 30.311 32.2253 30.9028 31.7739 31.3354C31.3225 31.7686 30.7151 32.0073 30.0852 31.9995L2.39771 31.9995C1.7688 32.0059 1.16333 31.7666 0.713623 31.3335C0.26416 30.9009 0.00732422 30.3096 0 29.6904L0 2.30859C0.00756836 1.68994 0.264404 1.09912 0.714111 0.666504C1.16357 0.234375 1.76929 -0.00488281 2.39771 0.00195312ZM5.67676 9.44482C6.13623 9.74707 6.67651 9.90869 7.229 9.9082C7.59595 9.9082 7.95923 9.83691 8.2981 9.69873C8.63721 9.56055 8.94507 9.35742 9.20435 9.10205C9.46387 8.84668 9.66943 8.54297 9.80981 8.20947C9.9502 7.87549 10.0225 7.51758 10.0225 7.15625C10.0222 6.6123 9.8584 6.08008 9.55127 5.62793C9.24414 5.17529 8.80786 4.82275 8.29712 4.61475C7.78662 4.40625 7.22485 4.35205 6.68311 4.45801C6.14111 4.56445 5.64331 4.82666 5.25269 5.21143C4.86206 5.59619 4.59595 6.08691 4.48828 6.62061C4.38062 7.1543 4.43604 7.70752 4.64746 8.21045C4.85913 8.71289 5.21729 9.14258 5.67676 9.44482ZM27.6851 27.2656L22.8706 27.2656L22.8706 19.8403C22.8706 18.0698 22.8386 15.79 20.3667 15.79C17.8591 15.79 17.4756 17.7192 17.4756 19.7114L17.4756 27.2651L12.6611 27.2651L12.6611 11.9956L17.283 11.9956L17.283 14.0825L17.3477 14.0825C17.8103 13.3032 18.4788 12.6626 19.2817 12.2285C20.0847 11.7939 20.9924 11.582 21.9077 11.6157C26.7874 11.6157 27.687 14.7769 27.687 18.8892L27.6851 27.2656ZM9.63623 27.2661L4.81689 27.2661L4.81689 11.9961L9.63623 11.9961L9.63623 27.2661Z" clip-rule="evenodd" fill="#FFFFFF" fill-opacity="1.000000" fill-rule="evenodd"/>
</svg>
