<svg width="24.000000" height="24.000000" viewBox="0 0 24 24" fill="none" xmlns="http://www.w3.org/2000/svg" xmlns:xlink="http://www.w3.org/1999/xlink">
	
	<defs/>
	<rect id="Rectangle 55" width="24.000000" height="24.000000" fill="#11244B" fill-opacity="1.000000"/>
	<path id="Vector" d="M18.35 18.35L18.35 13.69C18.35 11.41 17.86 9.66 15.19 9.66C13.9 9.66 13.04 10.36 12.69 11.03L12.66 11.03L12.66 9.87L10.14 9.87L10.14 18.35L12.77 18.35L12.77 14.14C12.77 13.03 12.98 11.96 14.35 11.96C15.7 11.96 15.71 13.22 15.71 14.2L15.71 18.33L18.35 18.33L18.35 18.35Z" fill="#FFFFFF" fill-opacity="1.000000" fill-rule="nonzero"/>
	<path id="Vector" d="M5.85 9.87L8.48 9.87L8.48 18.35L5.85 18.35L5.85 9.87Z" fill="#FFFFFF" fill-opacity="1.000000" fill-rule="nonzero"/>
	<path id="Vector" d="M7.17 5.64C6.32 5.64 5.64 6.32 5.64 7.17C5.64 8.01 6.32 8.71 7.17 8.71C8.01 8.71 8.69 8.01 8.69 7.17C8.69 6.32 8.01 5.64 7.17 5.64Z" fill="#FFFFFF" fill-opacity="1.000000" fill-rule="nonzero"/>
</svg>
