<svg width="218.299316" height="65.000122" viewBox="0 0 218.299 65.0001" fill="none" xmlns="http://www.w3.org/2000/svg" xmlns:xlink="http://www.w3.org/1999/xlink">
	
	<defs/>
	<path id="Polygon 1" d="M181.15 0L148.99 43.05L213.32 43.05L181.15 0Z" fill="#3E669C" fill-opacity="1.000000" fill-rule="evenodd"/>
	<path id="Polygon 2" d="M181.57 17.72L154.89 53.18L208.26 53.18L181.57 17.72Z" fill="#4990C0" fill-opacity="1.000000" fill-rule="evenodd"/>
	<path id="Intersect" d="M200.638 43.0518L181.579 17.7275L162.519 43.0518L200.638 43.0518Z" clip-rule="evenodd" fill="#2877AC" fill-opacity="1.000000" fill-rule="evenodd"/>
	<path id="Vector" d="M128.38 31.53C126.64 31.53 125.12 31.14 123.8 30.37C122.48 29.59 121.44 28.52 120.68 27.15C119.94 25.77 119.57 24.17 119.57 22.37C119.57 20.56 119.94 18.97 120.68 17.6C121.44 16.22 122.48 15.14 123.8 14.36C125.12 13.59 126.64 13.2 128.38 13.2C130.12 13.2 131.66 13.59 132.99 14.36C134.32 15.14 135.35 16.22 136.08 17.6C136.82 18.97 137.19 20.56 137.19 22.37C137.19 24.17 136.82 25.77 136.08 27.15C135.35 28.52 134.32 29.59 132.99 30.37C131.66 31.14 130.12 31.53 128.38 31.53ZM128.38 28.11C129.41 28.11 130.29 27.88 131.02 27.4C131.76 26.93 132.33 26.27 132.74 25.43C133.14 24.57 133.35 23.55 133.35 22.37C133.35 21.18 133.14 20.17 132.74 19.33C132.33 18.46 131.76 17.81 131.02 17.35C130.29 16.88 129.41 16.64 128.38 16.64C127.39 16.64 126.52 16.88 125.77 17.35C125.03 17.81 124.46 18.46 124.05 19.33C123.65 20.17 123.44 21.18 123.44 22.37C123.44 23.55 123.65 24.57 124.05 25.43C124.46 26.27 125.03 26.93 125.77 27.4C126.52 27.88 127.39 28.11 128.38 28.11Z" fill="#2E2555" fill-opacity="1.000000" fill-rule="nonzero"/>
	<path id="Vector" d="M103.9 31.23L103.9 13.5L110.79 13.5C112.23 13.5 113.42 13.76 114.36 14.26C115.32 14.75 116.03 15.41 116.49 16.24C116.96 17.06 117.2 17.98 117.2 19C117.2 19.94 116.97 20.83 116.51 21.66C116.08 22.48 115.38 23.15 114.44 23.66C113.49 24.16 112.27 24.42 110.77 24.42L107.7 24.42L107.7 31.23L103.9 31.23ZM113.04 31.23L109.47 23.48L113.55 23.48L117.35 31.23L113.04 31.23ZM107.7 21.68L110.56 21.68C111.51 21.68 112.2 21.45 112.64 21C113.1 20.54 113.32 19.93 113.32 19.15C113.32 18.39 113.1 17.79 112.64 17.35C112.2 16.9 111.51 16.67 110.56 16.67L107.7 16.67L107.7 21.68Z" fill="#2E2555" fill-opacity="1.000000" fill-rule="nonzero"/>
	<path id="Vector" d="M92.6 31.23L92.6 16.57L87.46 16.57L87.46 13.5L101.54 13.5L101.54 16.57L96.4 16.57L96.4 31.23L92.6 31.23Z" fill="#2E2555" fill-opacity="1.000000" fill-rule="nonzero"/>
	<path id="Vector" d="M79.34 31.53C78.08 31.53 76.93 31.32 75.9 30.9C74.88 30.46 74.08 29.82 73.49 28.97C72.9 28.13 72.58 27.09 72.53 25.86L76.58 25.86C76.6 26.35 76.72 26.78 76.96 27.15C77.2 27.52 77.52 27.82 77.92 28.04C78.33 28.24 78.8 28.34 79.34 28.34C79.8 28.34 80.19 28.27 80.53 28.14C80.89 27.99 81.17 27.78 81.37 27.51C81.57 27.22 81.67 26.86 81.67 26.44C81.67 26 81.55 25.63 81.32 25.33C81.08 25.01 80.76 24.74 80.35 24.52C79.95 24.28 79.48 24.07 78.94 23.88C78.41 23.68 77.85 23.49 77.24 23.3C75.84 22.85 74.76 22.23 74 21.45C73.26 20.68 72.88 19.64 72.88 18.34C72.88 17.26 73.15 16.34 73.67 15.58C74.21 14.8 74.94 14.21 75.87 13.81C76.8 13.4 77.86 13.2 79.04 13.2C80.25 13.2 81.33 13.41 82.25 13.83C83.18 14.24 83.92 14.84 84.46 15.63C85 16.41 85.28 17.33 85.32 18.41L81.24 18.41C81.22 18.04 81.11 17.71 80.91 17.4C80.73 17.1 80.46 16.85 80.13 16.67C79.81 16.48 79.43 16.39 78.99 16.39C78.6 16.37 78.24 16.43 77.92 16.57C77.62 16.68 77.37 16.88 77.16 17.15C76.98 17.4 76.89 17.72 76.89 18.11C76.89 18.48 76.98 18.81 77.16 19.1C77.37 19.37 77.64 19.6 77.97 19.81C78.33 19.99 78.73 20.17 79.19 20.34C79.66 20.51 80.18 20.68 80.73 20.85C81.63 21.15 82.45 21.51 83.19 21.93C83.95 22.34 84.56 22.88 85.01 23.56C85.49 24.21 85.72 25.09 85.72 26.19C85.72 27.15 85.47 28.04 84.96 28.85C84.47 29.66 83.76 30.31 82.81 30.8C81.88 31.29 80.73 31.53 79.34 31.53Z" fill="#2E2555" fill-opacity="1.000000" fill-rule="nonzero"/>
	<path id="Vector" d="M58.22 31.23L58.22 13.5L70.1 13.5L70.1 16.57L62.02 16.57L62.02 20.74L69.34 20.74L69.34 23.68L62.02 23.68L62.02 28.16L70.1 28.16L70.1 31.23L58.22 31.23Z" fill="#2E2555" fill-opacity="1.000000" fill-rule="nonzero"/>
	<path id="Vector" d="M48.97 31.53C47.71 31.53 46.56 31.32 45.53 30.9C44.51 30.46 43.71 29.82 43.12 28.97C42.53 28.13 42.21 27.09 42.16 25.86L46.21 25.86C46.23 26.35 46.35 26.78 46.59 27.15C46.83 27.52 47.15 27.82 47.55 28.04C47.96 28.24 48.43 28.34 48.97 28.34C49.43 28.34 49.82 28.27 50.16 28.14C50.52 27.99 50.8 27.78 51 27.51C51.2 27.22 51.3 26.86 51.3 26.44C51.3 26 51.18 25.63 50.95 25.33C50.71 25.01 50.39 24.74 49.98 24.52C49.58 24.28 49.11 24.07 48.57 23.88C48.04 23.68 47.48 23.49 46.87 23.3C45.47 22.85 44.39 22.23 43.63 21.45C42.89 20.68 42.51 19.64 42.51 18.34C42.51 17.26 42.78 16.34 43.3 15.58C43.84 14.8 44.57 14.21 45.5 13.81C46.43 13.4 47.49 13.2 48.67 13.2C49.88 13.2 50.96 13.41 51.88 13.83C52.81 14.24 53.55 14.84 54.09 15.63C54.63 16.41 54.91 17.33 54.95 18.41L50.87 18.41C50.85 18.04 50.74 17.71 50.54 17.4C50.36 17.1 50.09 16.85 49.76 16.67C49.44 16.48 49.06 16.39 48.62 16.39C48.23 16.37 47.87 16.43 47.55 16.57C47.25 16.68 47 16.88 46.79 17.15C46.61 17.4 46.52 17.72 46.52 18.11C46.52 18.48 46.61 18.81 46.79 19.1C47 19.37 47.27 19.6 47.6 19.81C47.96 19.99 48.36 20.17 48.82 20.34C49.29 20.51 49.81 20.68 50.36 20.85C51.26 21.15 52.08 21.51 52.82 21.93C53.58 22.34 54.19 22.88 54.64 23.56C55.12 24.21 55.35 25.09 55.35 26.19C55.35 27.15 55.1 28.04 54.59 28.85C54.1 29.66 53.39 30.31 52.44 30.8C51.51 31.29 50.36 31.53 48.97 31.53Z" fill="#2E2555" fill-opacity="1.000000" fill-rule="nonzero"/>
	<path id="Vector" d="M31.09 31.53C29.35 31.53 27.82 31.14 26.51 30.37C25.19 29.59 24.15 28.52 23.39 27.15C22.65 25.77 22.28 24.17 22.28 22.37C22.28 20.56 22.65 18.97 23.39 17.6C24.15 16.22 25.19 15.14 26.51 14.36C27.82 13.59 29.35 13.2 31.09 13.2C32.83 13.2 34.36 13.59 35.7 14.36C37.03 15.14 38.06 16.22 38.79 17.6C39.53 18.97 39.9 20.56 39.9 22.37C39.9 24.17 39.53 25.77 38.79 27.15C38.06 28.52 37.03 29.59 35.7 30.37C34.36 31.14 32.83 31.53 31.09 31.53ZM31.09 28.11C32.12 28.11 33 27.88 33.72 27.4C34.47 26.93 35.04 26.27 35.45 25.43C35.85 24.57 36.05 23.55 36.05 22.37C36.05 21.18 35.85 20.17 35.45 19.33C35.04 18.46 34.47 17.81 33.72 17.35C33 16.88 32.12 16.64 31.09 16.64C30.09 16.64 29.22 16.88 28.48 17.35C27.74 17.81 27.16 18.46 26.76 19.33C26.35 20.17 26.15 21.18 26.15 22.37C26.15 23.55 26.35 24.57 26.76 25.43C27.16 26.27 27.74 26.93 28.48 27.4C29.22 27.88 30.09 28.11 31.09 28.11Z" fill="#2E2555" fill-opacity="1.000000" fill-rule="nonzero"/>
	<path id="Vector" d="M0.06 31.23L0.06 13.5L4.61 13.5L9.78 24.16L14.9 13.5L19.43 13.5L19.43 31.23L15.63 31.23L15.63 19.91L11.27 28.75L8.24 28.75L3.85 19.91L3.85 31.23L0.06 31.23Z" fill="#2E2555" fill-opacity="1.000000" fill-rule="nonzero"/>
	<path id="Vector" d="M127.2 46.42L127.2 38.15L128.97 38.15L132.6 43.59L132.6 38.15L134.37 38.15L134.37 46.42L132.6 46.42L128.97 41.01L128.97 46.42L127.2 46.42Z" fill="#4990C0" fill-opacity="1.000000" fill-rule="nonzero"/>
	<path id="Vector" d="M116.32 46.57C115.51 46.57 114.8 46.38 114.18 46.02C113.57 45.66 113.08 45.16 112.73 44.52C112.38 43.87 112.21 43.13 112.21 42.29C112.21 41.44 112.38 40.7 112.73 40.07C113.08 39.42 113.57 38.91 114.18 38.55C114.8 38.19 115.51 38.01 116.32 38.01C117.13 38.01 117.85 38.19 118.47 38.55C119.09 38.91 119.58 39.42 119.91 40.07C120.26 40.7 120.43 41.44 120.43 42.29C120.43 43.13 120.26 43.87 119.91 44.52C119.58 45.16 119.09 45.66 118.47 46.02C117.85 46.38 117.13 46.57 116.32 46.57ZM116.32 44.97C116.8 44.97 117.21 44.86 117.55 44.64C117.9 44.42 118.17 44.11 118.35 43.72C118.54 43.32 118.64 42.84 118.64 42.29C118.64 41.74 118.54 41.26 118.35 40.87C118.17 40.47 117.9 40.16 117.55 39.95C117.21 39.73 116.8 39.62 116.32 39.62C115.86 39.62 115.45 39.73 115.1 39.95C114.76 40.16 114.49 40.47 114.3 40.87C114.11 41.26 114.02 41.74 114.02 42.29C114.02 42.84 114.11 43.32 114.3 43.72C114.49 44.11 114.76 44.42 115.1 44.64C115.45 44.86 115.86 44.97 116.32 44.97Z" fill="#4990C0" fill-opacity="1.000000" fill-rule="nonzero"/>
	<path id="Vector" d="M103.67 46.42L103.67 38.15L105.45 38.15L105.45 46.42L103.67 46.42Z" fill="#4990C0" fill-opacity="1.000000" fill-rule="nonzero"/>
	<path id="Vector" d="M92.96 46.42L92.96 39.58L90.56 39.58L90.56 38.15L97.13 38.15L97.13 39.58L94.73 39.58L94.73 46.42L92.96 46.42Z" fill="#4990C0" fill-opacity="1.000000" fill-rule="nonzero"/>
	<path id="Vector" d="M77.38 46.42L80.39 38.15L82.43 38.15L85.44 46.42L83.56 46.42L81.4 40.15L79.24 46.42L77.38 46.42ZM78.69 44.62L79.16 43.24L83.5 43.24L83.96 44.62L78.69 44.62Z" fill="#4990C0" fill-opacity="1.000000" fill-rule="nonzero"/>
	<path id="Vector" d="M64.93 46.42L64.93 38.15L68.14 38.15C68.81 38.15 69.37 38.27 69.81 38.5C70.26 38.73 70.59 39.04 70.8 39.43C71.02 39.81 71.13 40.24 71.13 40.72C71.13 41.16 71.03 41.57 70.81 41.96C70.61 42.34 70.29 42.65 69.84 42.89C69.4 43.13 68.83 43.24 68.13 43.24L66.7 43.24L66.7 46.42L64.93 46.42ZM69.19 46.42L67.53 42.81L69.43 42.81L71.2 46.42L69.19 46.42ZM66.7 41.97L68.04 41.97C68.48 41.97 68.8 41.86 69.01 41.65C69.22 41.44 69.32 41.15 69.32 40.79C69.32 40.43 69.22 40.15 69.01 39.95C68.8 39.73 68.48 39.63 68.04 39.63L66.7 39.63L66.7 41.97Z" fill="#4990C0" fill-opacity="1.000000" fill-rule="nonzero"/>
	<path id="Vector" d="M54.05 46.57C53.24 46.57 52.53 46.38 51.91 46.02C51.3 45.66 50.82 45.16 50.46 44.52C50.11 43.87 49.94 43.13 49.94 42.29C49.94 41.44 50.11 40.7 50.46 40.07C50.82 39.42 51.3 38.91 51.91 38.55C52.53 38.19 53.24 38.01 54.05 38.01C54.87 38.01 55.58 38.19 56.2 38.55C56.83 38.91 57.31 39.42 57.65 40.07C57.99 40.7 58.17 41.44 58.17 42.29C58.17 43.13 57.99 43.87 57.65 44.52C57.31 45.16 56.83 45.66 56.2 46.02C55.58 46.38 54.87 46.57 54.05 46.57ZM54.05 44.97C54.53 44.97 54.94 44.86 55.28 44.64C55.63 44.42 55.9 44.11 56.09 43.72C56.28 43.32 56.37 42.84 56.37 42.29C56.37 41.74 56.28 41.26 56.09 40.87C55.9 40.47 55.63 40.16 55.28 39.95C54.94 39.73 54.53 39.62 54.05 39.62C53.59 39.62 53.18 39.73 52.84 39.95C52.49 40.16 52.22 40.47 52.03 40.87C51.84 41.26 51.75 41.74 51.75 42.29C51.75 42.84 51.84 43.32 52.03 43.72C52.22 44.11 52.49 44.42 52.84 44.64C53.18 44.86 53.59 44.97 54.05 44.97Z" fill="#4990C0" fill-opacity="1.000000" fill-rule="nonzero"/>
	<path id="Vector" d="M38.78 46.42L38.78 38.15L40.55 38.15L40.55 45.05L44.12 45.05L44.12 46.42L38.78 46.42Z" fill="#4990C0" fill-opacity="1.000000" fill-rule="nonzero"/>
	<path id="Vector" d="M25.96 46.42L25.96 38.15L29.18 38.15C29.86 38.15 30.42 38.26 30.86 38.49C31.31 38.72 31.64 39.04 31.86 39.44C32.08 39.83 32.19 40.28 32.19 40.77C32.19 41.24 32.09 41.67 31.87 42.06C31.66 42.46 31.33 42.78 30.89 43.02C30.45 43.26 29.88 43.39 29.18 43.39L27.74 43.39L27.74 46.42L25.96 46.42ZM27.74 41.97L29.06 41.97C29.52 41.97 29.86 41.86 30.06 41.65C30.28 41.43 30.38 41.14 30.38 40.77C30.38 40.4 30.28 40.12 30.06 39.91C29.86 39.7 29.52 39.59 29.06 39.59L27.74 39.59L27.74 41.97Z" fill="#4990C0" fill-opacity="1.000000" fill-rule="nonzero"/>
	<path id="Vector" d="M11.97 46.42L14.59 42.23L11.92 38.15L13.97 38.15L15.74 40.83L17.31 38.15L19.32 38.15L16.7 42.31L19.4 46.42L17.34 46.42L15.57 43.69L13.97 46.42L11.97 46.42Z" fill="#4990C0" fill-opacity="1.000000" fill-rule="nonzero"/>
	<path id="Vector" d="M0 46.42L0 38.15L5.54 38.15L5.54 39.58L1.77 39.58L1.77 41.53L5.18 41.53L5.18 42.9L1.77 42.9L1.77 44.99L5.54 44.99L5.54 46.42L0 46.42Z" fill="#4990C0" fill-opacity="1.000000" fill-rule="nonzero"/>
</svg>
