<svg width="260.062012" height="77.000000" viewBox="0 0 260.062 77" fill="none" xmlns="http://www.w3.org/2000/svg" xmlns:xlink="http://www.w3.org/1999/xlink">
	
	<defs/>
	<path id="Polygon 1" d="M216.06 0L177.95 51L254.16 51L216.06 0Z" fill="#FFFFFF" fill-opacity="1.000000" fill-rule="evenodd"/>
	<path id="Polygon 2" d="M216.56 21L184.95 63L248.17 63L216.56 21Z" fill="#FFFFFF" fill-opacity="1.000000" fill-rule="evenodd"/>
	<path id="Vector" d="M152.08 37.36C150.02 37.36 148.21 36.9 146.65 35.98C145.09 35.06 143.86 33.79 142.96 32.17C142.08 30.53 141.64 28.64 141.64 26.5C141.64 24.36 142.08 22.48 142.96 20.86C143.86 19.22 145.09 17.94 146.65 17.02C148.21 16.1 150.02 15.64 152.08 15.64C154.14 15.64 155.96 16.1 157.54 17.02C159.12 17.94 160.34 19.22 161.2 20.86C162.08 22.48 162.52 24.36 162.52 26.5C162.52 28.64 162.08 30.53 161.2 32.17C160.34 33.79 159.12 35.06 157.54 35.98C155.96 36.9 154.14 37.36 152.08 37.36ZM152.08 33.31C153.3 33.31 154.34 33.03 155.2 32.47C156.08 31.91 156.76 31.13 157.24 30.13C157.72 29.11 157.96 27.9 157.96 26.5C157.96 25.1 157.72 23.9 157.24 22.9C156.76 21.88 156.08 21.1 155.2 20.56C154.34 20 153.3 19.72 152.08 19.72C150.9 19.72 149.87 20 148.99 20.56C148.11 21.1 147.43 21.88 146.95 22.9C146.47 23.9 146.23 25.1 146.23 26.5C146.23 27.9 146.47 29.11 146.95 30.13C147.43 31.13 148.11 31.91 148.99 32.47C149.87 33.03 150.9 33.31 152.08 33.31Z" fill="#FFFFFF" fill-opacity="1.000000" fill-rule="nonzero"/>
	<path id="Vector" d="M123.09 37L123.09 16L131.25 16C132.95 16 134.36 16.29 135.48 16.89C136.62 17.48 137.46 18.26 138 19.24C138.56 20.21 138.84 21.31 138.84 22.51C138.84 23.62 138.57 24.67 138.03 25.65C137.5 26.63 136.69 27.42 135.57 28.03C134.45 28.62 133 28.92 131.22 28.92L127.59 28.92L127.59 37L123.09 37ZM133.92 37L129.69 27.82L134.52 27.82L139.02 37L133.92 37ZM127.59 25.68L130.98 25.68C132.1 25.68 132.92 25.41 133.44 24.87C133.98 24.34 134.25 23.61 134.25 22.68C134.25 21.79 133.98 21.08 133.44 20.56C132.92 20.02 132.1 19.75 130.98 19.75L127.59 19.75L127.59 25.68Z" fill="#FFFFFF" fill-opacity="1.000000" fill-rule="nonzero"/>
	<path id="Vector" d="M109.69 37L109.69 19.62L103.6 19.62L103.6 16L120.28 16L120.28 19.62L114.19 19.62L114.19 37L109.69 37Z" fill="#FFFFFF" fill-opacity="1.000000" fill-rule="nonzero"/>
	<path id="Vector" d="M93.99 37.36C92.49 37.36 91.13 37.11 89.91 36.61C88.71 36.09 87.76 35.33 87.06 34.33C86.36 33.33 85.98 32.1 85.92 30.64L90.72 30.64C90.74 31.22 90.89 31.73 91.17 32.17C91.45 32.61 91.83 32.96 92.31 33.22C92.79 33.46 93.35 33.58 93.99 33.58C94.53 33.58 95 33.5 95.4 33.34C95.82 33.16 96.15 32.91 96.39 32.59C96.63 32.25 96.75 31.83 96.75 31.33C96.75 30.81 96.61 30.37 96.33 30.01C96.05 29.63 95.67 29.31 95.19 29.05C94.71 28.77 94.15 28.52 93.51 28.3C92.89 28.06 92.22 27.83 91.5 27.61C89.84 27.07 88.56 26.34 87.66 25.42C86.78 24.5 86.34 23.27 86.34 21.73C86.34 20.45 86.65 19.36 87.27 18.46C87.91 17.54 88.78 16.84 89.88 16.36C90.98 15.88 92.23 15.64 93.63 15.64C95.07 15.64 96.34 15.89 97.44 16.39C98.54 16.87 99.41 17.58 100.05 18.52C100.69 19.44 101.03 20.54 101.07 21.82L96.24 21.82C96.22 21.38 96.09 20.98 95.85 20.62C95.63 20.26 95.32 19.97 94.92 19.75C94.54 19.53 94.09 19.42 93.57 19.42C93.11 19.4 92.69 19.47 92.31 19.63C91.95 19.77 91.65 20 91.41 20.32C91.19 20.62 91.08 21 91.08 21.46C91.08 21.9 91.19 22.29 91.41 22.63C91.65 22.95 91.97 23.23 92.37 23.47C92.79 23.69 93.27 23.9 93.81 24.1C94.37 24.3 94.98 24.5 95.64 24.7C96.7 25.06 97.67 25.49 98.55 25.99C99.45 26.47 100.17 27.11 100.71 27.91C101.27 28.69 101.55 29.73 101.55 31.03C101.55 32.17 101.25 33.22 100.65 34.18C100.07 35.14 99.22 35.91 98.1 36.49C97 37.07 95.63 37.36 93.99 37.36Z" fill="#FFFFFF" fill-opacity="1.000000" fill-rule="nonzero"/>
	<path id="Vector" d="M68.97 37L68.97 16L83.04 16L83.04 19.62L73.47 19.62L73.47 24.58L82.14 24.58L82.14 28.06L73.47 28.06L73.47 33.37L83.04 33.37L83.04 37L68.97 37Z" fill="#FFFFFF" fill-opacity="1.000000" fill-rule="nonzero"/>
	<path id="Vector" d="M58.01 37.36C56.51 37.36 55.15 37.11 53.93 36.61C52.73 36.09 51.78 35.33 51.08 34.33C50.38 33.33 50 32.1 49.94 30.64L54.74 30.64C54.76 31.22 54.91 31.73 55.19 32.17C55.47 32.61 55.85 32.96 56.33 33.22C56.81 33.46 57.37 33.58 58.01 33.58C58.55 33.58 59.02 33.5 59.42 33.34C59.84 33.16 60.17 32.91 60.41 32.59C60.65 32.25 60.77 31.83 60.77 31.33C60.77 30.81 60.63 30.37 60.35 30.01C60.07 29.63 59.69 29.31 59.21 29.05C58.73 28.77 58.17 28.52 57.53 28.3C56.91 28.06 56.24 27.83 55.52 27.61C53.86 27.07 52.58 26.34 51.68 25.42C50.8 24.5 50.36 23.27 50.36 21.73C50.36 20.45 50.67 19.36 51.29 18.46C51.93 17.54 52.8 16.84 53.9 16.36C55 15.88 56.25 15.64 57.65 15.64C59.09 15.64 60.36 15.89 61.46 16.39C62.56 16.87 63.43 17.58 64.07 18.52C64.71 19.44 65.05 20.54 65.09 21.82L60.26 21.82C60.24 21.38 60.11 20.98 59.87 20.62C59.65 20.26 59.34 19.97 58.94 19.75C58.56 19.53 58.11 19.42 57.59 19.42C57.13 19.4 56.71 19.47 56.33 19.63C55.97 19.77 55.67 20 55.43 20.32C55.21 20.62 55.1 21 55.1 21.46C55.1 21.9 55.21 22.29 55.43 22.63C55.67 22.95 55.99 23.23 56.39 23.47C56.81 23.69 57.29 23.9 57.83 24.1C58.39 24.3 59 24.5 59.66 24.7C60.72 25.06 61.69 25.49 62.57 25.99C63.47 26.47 64.19 27.11 64.73 27.91C65.29 28.69 65.57 29.73 65.57 31.03C65.57 32.17 65.27 33.22 64.67 34.18C64.09 35.14 63.24 35.91 62.12 36.49C61.02 37.07 59.65 37.36 58.01 37.36Z" fill="#FFFFFF" fill-opacity="1.000000" fill-rule="nonzero"/>
	<path id="Vector" d="M36.83 37.36C34.77 37.36 32.96 36.9 31.4 35.98C29.84 35.06 28.61 33.79 27.71 32.17C26.83 30.53 26.39 28.64 26.39 26.5C26.39 24.36 26.83 22.48 27.71 20.86C28.61 19.22 29.84 17.94 31.4 17.02C32.96 16.1 34.77 15.64 36.83 15.64C38.89 15.64 40.71 16.1 42.29 17.02C43.87 17.94 45.09 19.22 45.95 20.86C46.83 22.48 47.27 24.36 47.27 26.5C47.27 28.64 46.83 30.53 45.95 32.17C45.09 33.79 43.87 35.06 42.29 35.98C40.71 36.9 38.89 37.36 36.83 37.36ZM36.83 33.31C38.05 33.31 39.09 33.03 39.95 32.47C40.83 31.91 41.51 31.13 41.99 30.13C42.47 29.11 42.71 27.9 42.71 26.5C42.71 25.1 42.47 23.9 41.99 22.9C41.51 21.88 40.83 21.1 39.95 20.56C39.09 20 38.05 19.72 36.83 19.72C35.65 19.72 34.62 20 33.74 20.56C32.86 21.1 32.18 21.88 31.7 22.9C31.22 23.9 30.98 25.1 30.98 26.5C30.98 27.9 31.22 29.11 31.7 30.13C32.18 31.13 32.86 31.91 33.74 32.47C34.62 33.03 35.65 33.31 36.83 33.31Z" fill="#FFFFFF" fill-opacity="1.000000" fill-rule="nonzero"/>
	<path id="Vector" d="M0.07 37L0.07 16L5.47 16L11.59 28.62L17.65 16L23.02 16L23.02 37L18.52 37L18.52 23.59L13.36 34.06L9.76 34.06L4.57 23.59L4.57 37L0.07 37Z" fill="#FFFFFF" fill-opacity="1.000000" fill-rule="nonzero"/>
	<path id="Vector" d="M150.68 55L150.68 45.2L152.78 45.2L157.08 51.64L157.08 45.2L159.18 45.2L159.18 55L157.08 55L152.78 48.58L152.78 55L150.68 55Z" fill="#FFFFFF" fill-opacity="1.000000" fill-rule="nonzero"/>
	<path id="Vector" d="M137.8 55.16C136.84 55.16 135.99 54.95 135.26 54.52C134.53 54.09 133.96 53.5 133.54 52.74C133.13 51.98 132.92 51.09 132.92 50.1C132.92 49.1 133.13 48.22 133.54 47.46C133.96 46.7 134.53 46.1 135.26 45.67C135.99 45.24 136.84 45.03 137.8 45.03C138.76 45.03 139.61 45.24 140.34 45.67C141.08 46.1 141.65 46.7 142.05 47.46C142.46 48.22 142.67 49.1 142.67 50.1C142.67 51.09 142.46 51.98 142.05 52.74C141.65 53.5 141.08 54.09 140.34 54.52C139.61 54.95 138.76 55.16 137.8 55.16ZM137.8 53.27C138.37 53.27 138.85 53.14 139.25 52.88C139.66 52.62 139.98 52.26 140.2 51.79C140.43 51.31 140.54 50.75 140.54 50.1C140.54 49.44 140.43 48.88 140.2 48.42C139.98 47.94 139.66 47.58 139.25 47.32C138.85 47.06 138.37 46.93 137.8 46.93C137.25 46.93 136.77 47.06 136.35 47.32C135.94 47.58 135.63 47.94 135.4 48.42C135.18 48.88 135.07 49.44 135.07 50.1C135.07 50.75 135.18 51.31 135.4 51.79C135.63 52.26 135.94 52.62 136.35 52.88C136.77 53.14 137.25 53.27 137.8 53.27Z" fill="#FFFFFF" fill-opacity="1.000000" fill-rule="nonzero"/>
	<path id="Vector" d="M122.81 55L122.81 45.2L124.91 45.2L124.91 55L122.81 55Z" fill="#FFFFFF" fill-opacity="1.000000" fill-rule="nonzero"/>
	<path id="Vector" d="M110.12 55L110.12 46.89L107.28 46.89L107.28 45.2L115.07 45.2L115.07 46.89L112.22 46.89L112.22 55L110.12 55Z" fill="#FFFFFF" fill-opacity="1.000000" fill-rule="nonzero"/>
	<path id="Vector" d="M91.67 55L95.24 45.2L97.64 45.2L101.21 55L98.99 55L96.43 47.56L93.86 55L91.67 55ZM93.22 52.85L93.78 51.23L98.92 51.23L99.46 52.85L93.22 52.85Z" fill="#FFFFFF" fill-opacity="1.000000" fill-rule="nonzero"/>
	<path id="Vector" d="M76.92 55L76.92 45.2L80.72 45.2C81.52 45.2 82.17 45.34 82.7 45.62C83.23 45.89 83.62 46.25 83.87 46.71C84.14 47.16 84.27 47.67 84.27 48.23C84.27 48.76 84.14 49.25 83.89 49.7C83.65 50.16 83.26 50.53 82.74 50.81C82.22 51.09 81.54 51.23 80.71 51.23L79.02 51.23L79.02 55L76.92 55ZM81.97 55L80 50.71L82.25 50.71L84.35 55L81.97 55ZM79.02 49.72L80.6 49.72C81.12 49.72 81.5 49.59 81.75 49.34C82 49.09 82.12 48.75 82.12 48.32C82.12 47.9 82 47.57 81.75 47.32C81.5 47.07 81.12 46.95 80.6 46.95L79.02 46.95L79.02 49.72Z" fill="#FFFFFF" fill-opacity="1.000000" fill-rule="nonzero"/>
	<path id="Vector" d="M64.03 55.16C63.07 55.16 62.23 54.95 61.5 54.52C60.77 54.09 60.2 53.5 59.78 52.74C59.37 51.98 59.16 51.09 59.16 50.1C59.16 49.1 59.37 48.22 59.78 47.46C60.2 46.7 60.77 46.1 61.5 45.67C62.23 45.24 63.07 45.03 64.03 45.03C65 45.03 65.84 45.24 66.58 45.67C67.32 46.1 67.89 46.7 68.29 47.46C68.7 48.22 68.91 49.1 68.91 50.1C68.91 51.09 68.7 51.98 68.29 52.74C67.89 53.5 67.32 54.09 66.58 54.52C65.84 54.95 65 55.16 64.03 55.16ZM64.03 53.27C64.6 53.27 65.09 53.14 65.49 52.88C65.9 52.62 66.22 52.26 66.44 51.79C66.67 51.31 66.78 50.75 66.78 50.1C66.78 49.44 66.67 48.88 66.44 48.42C66.22 47.94 65.9 47.58 65.49 47.32C65.09 47.06 64.6 46.93 64.03 46.93C63.48 46.93 63 47.06 62.59 47.32C62.18 47.58 61.86 47.94 61.64 48.42C61.42 48.88 61.3 49.44 61.3 50.1C61.3 50.75 61.42 51.31 61.64 51.79C61.86 52.26 62.18 52.62 62.59 52.88C63 53.14 63.48 53.27 64.03 53.27Z" fill="#FFFFFF" fill-opacity="1.000000" fill-rule="nonzero"/>
	<path id="Vector" d="M45.93 55L45.93 45.2L48.03 45.2L48.03 53.37L52.26 53.37L52.26 55L45.93 55Z" fill="#FFFFFF" fill-opacity="1.000000" fill-rule="nonzero"/>
	<path id="Vector" d="M30.76 55L30.76 45.2L34.57 45.2C35.37 45.2 36.03 45.33 36.55 45.6C37.09 45.87 37.48 46.25 37.74 46.72C38.01 47.19 38.14 47.72 38.14 48.3C38.14 48.85 38.01 49.36 37.76 49.83C37.51 50.3 37.12 50.67 36.6 50.96C36.07 51.25 35.4 51.4 34.57 51.4L32.86 51.4L32.86 55L30.76 55ZM32.86 49.72L34.43 49.72C34.98 49.72 35.37 49.59 35.62 49.34C35.87 49.08 35.99 48.73 35.99 48.3C35.99 47.86 35.87 47.52 35.62 47.28C35.37 47.03 34.98 46.9 34.43 46.9L32.86 46.9L32.86 49.72Z" fill="#FFFFFF" fill-opacity="1.000000" fill-rule="nonzero"/>
	<path id="Vector" d="M14.18 55L17.28 50.03L14.12 45.2L16.56 45.2L18.64 48.37L20.5 45.2L22.88 45.2L19.79 50.12L22.98 55L20.55 55L18.45 51.76L16.56 55L14.18 55Z" fill="#FFFFFF" fill-opacity="1.000000" fill-rule="nonzero"/>
	<path id="Vector" d="M0 55L0 45.2L6.56 45.2L6.56 46.89L2.09 46.89L2.09 49.2L6.14 49.2L6.14 50.82L2.09 50.82L2.09 53.3L6.56 53.3L6.56 55L0 55Z" fill="#FFFFFF" fill-opacity="1.000000" fill-rule="nonzero"/>
	<path id="Intersect" d="M239.14 51L216.562 21L193.983 51L239.14 51Z" clip-rule="evenodd" fill="#2877AC" fill-opacity="1.000000" fill-rule="evenodd"/>
</svg>
