<svg width="237.209473" height="60.000000" viewBox="0 0 237.209 60" fill="none" xmlns="http://www.w3.org/2000/svg" xmlns:xlink="http://www.w3.org/1999/xlink">
	
	<defs/>
	<path id="Vector" d="M158.49 32.51C156.34 32.51 154.45 32.03 152.83 31.07C151.2 30.11 149.92 28.78 148.98 27.1C148.07 25.39 147.61 23.42 147.61 21.19C147.61 18.96 148.07 17 148.98 15.31C149.92 13.6 151.2 12.27 152.83 11.31C154.45 10.35 156.34 9.87 158.49 9.87C160.63 9.87 162.53 10.35 164.18 11.31C165.82 12.27 167.09 13.6 167.99 15.31C168.91 17 169.37 18.96 169.37 21.19C169.37 23.42 168.91 25.39 167.99 27.1C167.09 28.78 165.82 30.11 164.18 31.07C162.53 32.03 160.63 32.51 158.49 32.51ZM158.49 28.28C159.76 28.28 160.84 27.99 161.74 27.41C162.65 26.83 163.36 26.01 163.86 24.97C164.36 23.91 164.61 22.65 164.61 21.19C164.61 19.73 164.36 18.48 163.86 17.44C163.36 16.37 162.65 15.56 161.74 15C160.84 14.41 159.76 14.12 158.49 14.12C157.26 14.12 156.18 14.41 155.27 15C154.35 15.56 153.64 16.37 153.14 17.44C152.64 18.48 152.39 19.73 152.39 21.19C152.39 22.65 152.64 23.91 153.14 24.97C153.64 26.01 154.35 26.83 155.27 27.41C156.18 27.99 157.26 28.28 158.49 28.28Z" fill="#FFFFFF" fill-opacity="1.000000" fill-rule="nonzero"/>
	<path id="Vector" d="M128.27 32.13L128.27 10.25L136.77 10.25C138.54 10.25 140.01 10.56 141.18 11.18C142.37 11.79 143.24 12.6 143.8 13.62C144.39 14.64 144.68 15.78 144.68 17.03C144.68 18.2 144.4 19.29 143.84 20.31C143.29 21.33 142.44 22.16 141.27 22.78C140.11 23.41 138.59 23.72 136.74 23.72L132.96 23.72L132.96 32.13L128.27 32.13ZM139.55 32.13L135.14 22.56L140.18 22.56L144.87 32.13L139.55 32.13ZM132.96 20.34L136.49 20.34C137.66 20.34 138.51 20.06 139.05 19.5C139.62 18.94 139.9 18.18 139.9 17.22C139.9 16.28 139.62 15.54 139.05 15C138.51 14.44 137.66 14.15 136.49 14.15L132.96 14.15L132.96 20.34Z" fill="#FFFFFF" fill-opacity="1.000000" fill-rule="nonzero"/>
	<path id="Vector" d="M114.31 32.13L114.31 14.03L107.96 14.03L107.96 10.25L125.35 10.25L125.35 14.03L119 14.03L119 32.13L114.31 32.13Z" fill="#FFFFFF" fill-opacity="1.000000" fill-rule="nonzero"/>
	<path id="Vector" d="M97.95 32.51C96.38 32.51 94.97 32.24 93.7 31.72C92.45 31.18 91.46 30.39 90.73 29.35C90 28.31 89.6 27.02 89.54 25.5L94.54 25.5C94.56 26.11 94.72 26.64 95.01 27.1C95.3 27.56 95.7 27.92 96.2 28.19C96.7 28.44 97.28 28.57 97.95 28.57C98.51 28.57 99 28.48 99.42 28.32C99.85 28.13 100.2 27.87 100.45 27.53C100.7 27.18 100.82 26.74 100.82 26.22C100.82 25.68 100.68 25.22 100.39 24.85C100.09 24.45 99.7 24.12 99.2 23.85C98.7 23.55 98.11 23.29 97.45 23.06C96.8 22.81 96.1 22.57 95.35 22.34C93.62 21.78 92.29 21.02 91.35 20.06C90.43 19.1 89.98 17.82 89.98 16.22C89.98 14.88 90.3 13.75 90.94 12.81C91.61 11.85 92.52 11.12 93.66 10.62C94.81 10.12 96.11 9.87 97.57 9.87C99.07 9.87 100.4 10.13 101.54 10.65C102.69 11.15 103.6 11.89 104.26 12.87C104.93 13.83 105.28 14.98 105.33 16.31L100.29 16.31C100.27 15.85 100.14 15.44 99.89 15.06C99.66 14.69 99.33 14.38 98.92 14.15C98.52 13.92 98.05 13.81 97.51 13.81C97.03 13.79 96.59 13.86 96.2 14.03C95.82 14.17 95.51 14.41 95.26 14.75C95.03 15.06 94.91 15.46 94.91 15.94C94.91 16.39 95.03 16.8 95.26 17.16C95.51 17.49 95.84 17.78 96.26 18.03C96.7 18.26 97.2 18.48 97.76 18.69C98.34 18.9 98.98 19.1 99.67 19.31C100.77 19.69 101.78 20.14 102.7 20.66C103.64 21.16 104.39 21.82 104.95 22.66C105.53 23.47 105.83 24.55 105.83 25.91C105.83 27.1 105.51 28.19 104.89 29.19C104.28 30.19 103.4 30.99 102.23 31.6C101.08 32.2 99.66 32.51 97.95 32.51Z" fill="#FFFFFF" fill-opacity="1.000000" fill-rule="nonzero"/>
	<path id="Vector" d="M71.88 32.13L71.88 10.25L86.54 10.25L86.54 14.03L76.57 14.03L76.57 19.19L85.6 19.19L85.6 22.81L76.57 22.81L76.57 28.35L86.54 28.35L86.54 32.13L71.88 32.13Z" fill="#FFFFFF" fill-opacity="1.000000" fill-rule="nonzero"/>
	<path id="Vector" d="M60.46 32.51C58.89 32.51 57.48 32.24 56.2 31.72C54.95 31.18 53.96 30.39 53.23 29.35C52.5 28.31 52.11 27.02 52.05 25.5L57.05 25.5C57.07 26.11 57.23 26.64 57.52 27.1C57.81 27.56 58.21 27.92 58.71 28.19C59.21 28.44 59.79 28.57 60.46 28.57C61.02 28.57 61.51 28.48 61.93 28.32C62.36 28.13 62.71 27.87 62.96 27.53C63.21 27.18 63.33 26.74 63.33 26.22C63.33 25.68 63.19 25.22 62.89 24.85C62.6 24.45 62.21 24.12 61.71 23.85C61.21 23.55 60.62 23.29 59.96 23.06C59.31 22.81 58.61 22.57 57.86 22.34C56.13 21.78 54.8 21.02 53.86 20.06C52.94 19.1 52.48 17.82 52.48 16.22C52.48 14.88 52.81 13.75 53.45 12.81C54.12 11.85 55.03 11.12 56.17 10.62C57.32 10.12 58.62 9.87 60.08 9.87C61.58 9.87 62.9 10.13 64.05 10.65C65.2 11.15 66.1 11.89 66.77 12.87C67.44 13.83 67.79 14.98 67.83 16.31L62.8 16.31C62.78 15.85 62.64 15.44 62.39 15.06C62.16 14.69 61.84 14.38 61.43 14.15C61.03 13.92 60.56 13.81 60.02 13.81C59.54 13.79 59.1 13.86 58.71 14.03C58.33 14.17 58.02 14.41 57.77 14.75C57.54 15.06 57.42 15.46 57.42 15.94C57.42 16.39 57.54 16.8 57.77 17.16C58.02 17.49 58.35 17.78 58.77 18.03C59.21 18.26 59.71 18.48 60.27 18.69C60.85 18.9 61.49 19.1 62.18 19.31C63.28 19.69 64.29 20.14 65.21 20.66C66.15 21.16 66.9 21.82 67.46 22.66C68.04 23.47 68.33 24.55 68.33 25.91C68.33 27.1 68.02 28.19 67.4 29.19C66.79 30.19 65.91 30.99 64.74 31.6C63.59 32.2 62.16 32.51 60.46 32.51Z" fill="#FFFFFF" fill-opacity="1.000000" fill-rule="nonzero"/>
	<path id="Vector" d="M38.38 32.51C36.23 32.51 34.35 32.03 32.72 31.07C31.1 30.11 29.81 28.78 28.88 27.1C27.96 25.39 27.5 23.42 27.5 21.19C27.5 18.96 27.96 17 28.88 15.31C29.81 13.6 31.1 12.27 32.72 11.31C34.35 10.35 36.23 9.87 38.38 9.87C40.53 9.87 42.42 10.35 44.07 11.31C45.72 12.27 46.99 13.6 47.88 15.31C48.8 17 49.26 18.96 49.26 21.19C49.26 23.42 48.8 25.39 47.88 27.1C46.99 28.78 45.72 30.11 44.07 31.07C42.42 32.03 40.53 32.51 38.38 32.51ZM38.38 28.28C39.65 28.28 40.74 27.99 41.63 27.41C42.55 26.83 43.26 26.01 43.76 24.97C44.26 23.91 44.51 22.65 44.51 21.19C44.51 19.73 44.26 18.48 43.76 17.44C43.26 16.37 42.55 15.56 41.63 15C40.74 14.41 39.65 14.12 38.38 14.12C37.15 14.12 36.08 14.41 35.16 15C34.24 15.56 33.53 16.37 33.03 17.44C32.53 18.48 32.28 19.73 32.28 21.19C32.28 22.65 32.53 23.91 33.03 24.97C33.53 26.01 34.24 26.83 35.16 27.41C36.08 27.99 37.15 28.28 38.38 28.28Z" fill="#FFFFFF" fill-opacity="1.000000" fill-rule="nonzero"/>
	<path id="Vector" d="M0.07 32.13L0.07 10.25L5.7 10.25L12.08 23.41L18.39 10.25L23.99 10.25L23.99 32.13L19.3 32.13L19.3 18.16L13.92 29.07L10.17 29.07L4.76 18.16L4.76 32.13L0.07 32.13Z" fill="#FFFFFF" fill-opacity="1.000000" fill-rule="nonzero"/>
	<path id="Vector" d="M157.02 50.89L157.02 40.68L159.21 40.68L163.69 47.39L163.69 40.68L165.88 40.68L165.88 50.89L163.69 50.89L159.21 44.21L159.21 50.89L157.02 50.89Z" fill="#0F9EFF" fill-opacity="1.000000" fill-rule="nonzero"/>
	<path id="Vector" d="M143.6 51.06C142.6 51.06 141.72 50.84 140.96 50.39C140.2 49.94 139.6 49.33 139.16 48.54C138.73 47.74 138.52 46.82 138.52 45.78C138.52 44.74 138.73 43.83 139.16 43.04C139.6 42.24 140.2 41.62 140.96 41.17C141.72 40.72 142.6 40.5 143.6 40.5C144.6 40.5 145.48 40.72 146.25 41.17C147.02 41.62 147.61 42.24 148.03 43.04C148.46 43.83 148.67 44.74 148.67 45.78C148.67 46.82 148.46 47.74 148.03 48.54C147.61 49.33 147.02 49.94 146.25 50.39C145.48 50.84 144.6 51.06 143.6 51.06ZM143.6 49.09C144.19 49.09 144.7 48.96 145.12 48.68C145.54 48.41 145.87 48.03 146.11 47.55C146.34 47.05 146.46 46.46 146.46 45.78C146.46 45.1 146.34 44.52 146.11 44.03C145.87 43.53 145.54 43.16 145.12 42.89C144.7 42.62 144.19 42.48 143.6 42.48C143.02 42.48 142.52 42.62 142.1 42.89C141.67 43.16 141.34 43.53 141.1 44.03C140.87 44.52 140.75 45.1 140.75 45.78C140.75 46.46 140.87 47.05 141.1 47.55C141.34 48.03 141.67 48.41 142.1 48.68C142.52 48.96 143.02 49.09 143.6 49.09Z" fill="#0F9EFF" fill-opacity="1.000000" fill-rule="nonzero"/>
	<path id="Vector" d="M127.98 50.89L127.98 40.68L130.17 40.68L130.17 50.89L127.98 50.89Z" fill="#0F9EFF" fill-opacity="1.000000" fill-rule="nonzero"/>
	<path id="Vector" d="M114.76 50.89L114.76 42.44L111.8 42.44L111.8 40.68L119.91 40.68L119.91 42.44L116.95 42.44L116.95 50.89L114.76 50.89Z" fill="#0F9EFF" fill-opacity="1.000000" fill-rule="nonzero"/>
	<path id="Vector" d="M95.53 50.89L99.25 40.68L101.76 40.68L105.48 50.89L103.16 50.89L100.49 43.14L97.82 50.89L95.53 50.89ZM97.15 48.66L97.73 46.96L103.08 46.96L103.65 48.66L97.15 48.66Z" fill="#0F9EFF" fill-opacity="1.000000" fill-rule="nonzero"/>
	<path id="Vector" d="M80.15 50.89L80.15 40.68L84.12 40.68C84.95 40.68 85.63 40.82 86.18 41.11C86.73 41.39 87.14 41.77 87.41 42.25C87.68 42.73 87.81 43.26 87.81 43.84C87.81 44.39 87.68 44.9 87.42 45.37C87.17 45.85 86.77 46.23 86.22 46.53C85.68 46.82 84.97 46.96 84.11 46.96L82.34 46.96L82.34 50.89L80.15 50.89ZM85.42 50.89L83.36 46.42L85.71 46.42L87.9 50.89L85.42 50.89ZM82.34 45.39L83.99 45.39C84.54 45.39 84.93 45.26 85.19 44.99C85.45 44.73 85.58 44.38 85.58 43.93C85.58 43.49 85.45 43.15 85.19 42.89C84.93 42.63 84.54 42.5 83.99 42.5L82.34 42.5L82.34 45.39Z" fill="#0F9EFF" fill-opacity="1.000000" fill-rule="nonzero"/>
	<path id="Vector" d="M66.73 51.06C65.73 51.06 64.85 50.84 64.09 50.39C63.33 49.94 62.73 49.33 62.29 48.54C61.87 47.74 61.65 46.82 61.65 45.78C61.65 44.74 61.87 43.83 62.29 43.04C62.73 42.24 63.33 41.62 64.09 41.17C64.85 40.72 65.73 40.5 66.73 40.5C67.73 40.5 68.62 40.72 69.39 41.17C70.15 41.62 70.75 42.24 71.16 43.04C71.59 43.83 71.81 44.74 71.81 45.78C71.81 46.82 71.59 47.74 71.16 48.54C70.75 49.33 70.15 49.94 69.39 50.39C68.62 50.84 67.73 51.06 66.73 51.06ZM66.73 49.09C67.32 49.09 67.83 48.96 68.25 48.68C68.68 48.41 69.01 48.03 69.24 47.55C69.47 47.05 69.59 46.46 69.59 45.78C69.59 45.1 69.47 44.52 69.24 44.03C69.01 43.53 68.68 43.16 68.25 42.89C67.83 42.62 67.32 42.48 66.73 42.48C66.16 42.48 65.66 42.62 65.23 42.89C64.8 43.16 64.47 43.53 64.24 44.03C64 44.52 63.88 45.1 63.88 45.78C63.88 46.46 64 47.05 64.24 47.55C64.47 48.03 64.8 48.41 65.23 48.68C65.66 48.96 66.16 49.09 66.73 49.09Z" fill="#0F9EFF" fill-opacity="1.000000" fill-rule="nonzero"/>
	<path id="Vector" d="M47.87 50.89L47.87 40.68L50.06 40.68L50.06 49.2L54.46 49.2L54.46 50.89L47.87 50.89Z" fill="#0F9EFF" fill-opacity="1.000000" fill-rule="nonzero"/>
	<path id="Vector" d="M32.05 50.89L32.05 40.68L36.02 40.68C36.86 40.68 37.55 40.82 38.09 41.1C38.65 41.38 39.06 41.77 39.33 42.27C39.61 42.75 39.74 43.3 39.74 43.91C39.74 44.49 39.61 45.02 39.35 45.5C39.09 45.99 38.68 46.38 38.14 46.69C37.59 46.99 36.89 47.14 36.02 47.14L34.24 47.14L34.24 50.89L32.05 50.89ZM34.24 45.39L35.88 45.39C36.45 45.39 36.86 45.26 37.12 44.99C37.38 44.72 37.51 44.36 37.51 43.91C37.51 43.46 37.38 43.1 37.12 42.85C36.86 42.59 36.45 42.45 35.88 42.45L34.24 42.45L34.24 45.39Z" fill="#0F9EFF" fill-opacity="1.000000" fill-rule="nonzero"/>
	<path id="Vector" d="M14.77 50.89L18.01 45.71L14.71 40.68L17.25 40.68L19.43 43.99L21.37 40.68L23.85 40.68L20.62 45.81L23.95 50.89L21.41 50.89L19.22 47.52L17.25 50.89L14.77 50.89Z" fill="#0F9EFF" fill-opacity="1.000000" fill-rule="nonzero"/>
	<path id="Vector" d="M0 50.89L0 40.68L6.84 40.68L6.84 42.44L2.18 42.44L2.18 44.85L6.4 44.85L6.4 46.54L2.18 46.54L2.18 49.12L6.84 49.12L6.84 50.89L0 50.89Z" fill="#0F9EFF" fill-opacity="1.000000" fill-rule="nonzero"/>
	<path id="Vector" d="M208.07 0L237.2 50.47L178.93 50.47L208.07 0Z" fill="#3E669C" fill-opacity="1.000000" fill-rule="nonzero"/>
	<path id="Vector" d="M207.6 18.51L231.55 60L183.65 60L207.6 18.51Z" fill="#0F9EFF" fill-opacity="1.000000" fill-rule="nonzero"/>
</svg>
