<svg width="1816.414185" height="245.000000" viewBox="0 0 1816.41 245" fill="none" xmlns="http://www.w3.org/2000/svg" xmlns:xlink="http://www.w3.org/1999/xlink">
	<g opacity="0.2">
		<g filter="url(#filter_490_3486_dd)">
			<path id="Stroke" d="M1815.17 122.5C1815.17 98.6 1810.26 77.61 1800.44 59.52C1791.13 41.78 1778.06 27.81 1761.21 17.62L1759.57 16.64C1742.48 6.69 1722.87 1.56 1700.75 1.25L1698.6 1.24C1675.6 1.24 1655.39 6.37 1637.97 16.64L1636.35 17.62C1619.7 27.81 1606.51 41.78 1596.77 59.52L1595.87 61.22C1586.64 78.92 1582.03 99.35 1582.03 122.5L1582.05 124.73C1582.35 147.71 1587.25 168.07 1596.77 185.81C1606.82 203.89 1620.56 218.07 1637.97 228.35C1654.85 238.3 1674.34 243.43 1696.46 243.74L1698.6 243.75C1720.89 243.75 1740.65 238.93 1757.91 229.29L1759.57 228.35C1777.21 218.07 1790.83 203.89 1800.44 185.81C1809.95 168.07 1814.86 147.71 1815.16 124.73L1815.17 122.5ZM1763.02 122.5C1763.02 107 1760.36 93.8 1755.1 82.84L1755.1 82.83C1749.83 71.64 1742.39 63.12 1732.79 57.23L1732.78 57.22L1732.76 57.21C1723.4 51.11 1712.03 48.03 1698.6 48.03C1685.63 48.03 1674.37 51.11 1664.77 57.22L1664.76 57.22L1664.75 57.23C1655.15 63.12 1647.71 71.64 1642.45 82.83L1642.44 82.84C1637.18 93.8 1634.53 107 1634.53 122.5C1634.53 137.98 1637.18 151.3 1642.44 162.49L1642.94 163.51C1648.17 173.99 1655.45 182.18 1664.77 188.11L1665.67 188.67C1675.08 194.41 1686.04 197.29 1698.6 197.29L1698.6 198.53L1697.37 198.52C1685.12 198.34 1674.34 195.41 1665.03 189.73L1664.1 189.16C1654.28 182.9 1646.68 174.19 1641.32 163.03C1636.13 151.99 1633.46 138.97 1633.29 123.95L1633.28 122.5C1633.28 107.35 1635.8 94.3 1640.83 83.35L1641.32 82.3C1646.52 71.27 1653.8 62.75 1663.19 56.74L1664.1 56.17C1673.93 49.92 1685.43 46.79 1698.6 46.79L1699.88 46.8C1712.95 46.99 1724.14 50.11 1733.44 56.17C1743.27 62.2 1750.86 70.91 1756.22 82.3C1761.58 93.46 1764.26 106.86 1764.26 122.5L1764.25 123.95C1764.09 138.97 1761.41 151.99 1756.22 163.03C1750.86 174.19 1743.27 182.9 1733.44 189.16C1723.84 195.41 1712.23 198.53 1698.6 198.53L1698.6 197.29C1712.03 197.29 1723.4 194.21 1732.76 188.11L1732.77 188.11L1733.67 187.53C1742.86 181.45 1750 173.12 1755.1 162.49C1760.36 151.3 1763.02 137.98 1763.02 122.5ZM1816.41 122.5C1816.41 146.56 1811.46 167.87 1801.53 186.39C1792.12 204.11 1778.89 218.13 1761.85 228.43L1760.19 229.42C1742.34 239.81 1721.8 245 1698.6 245C1676.14 245 1656.26 240.13 1639.01 230.37L1637.34 229.41C1619.73 219.03 1605.84 204.68 1595.69 186.41L1595.68 186.4L1595.68 186.39C1585.74 167.87 1580.79 146.56 1580.79 122.5C1580.79 98.43 1585.74 77.23 1595.68 58.93L1595.69 58.92L1596.65 57.2C1606.71 39.52 1620.28 25.64 1637.34 15.58C1654.98 5.18 1675.41 0 1698.6 0C1721.8 6.1e-5 1742.34 5.18 1760.19 15.57L1761.85 16.56C1778.89 26.87 1792.12 41 1801.52 58.93L1802.44 60.65C1811.77 78.55 1816.41 99.18 1816.41 122.5Z" fill="#FFFFFF" fill-opacity="1.000000" fill-rule="nonzero"/>
		</g>
		<g filter="url(#filter_490_3487_dd)">
			<path id="Stroke" d="M1550.67 77.94C1550.67 64.55 1547.55 52.37 1541.29 41.43C1535.26 30.49 1525.88 21.78 1513.16 15.3C1501.04 8.81 1485.89 5.47 1467.7 5.27L1465.93 5.26L1465.93 4.01C1485.03 4.01 1500.99 7.38 1513.72 14.2L1514.92 14.82C1527.22 21.32 1536.4 29.98 1542.37 40.82L1542.96 41.87C1548.93 52.73 1551.91 64.77 1551.91 77.94C1551.91 90.65 1548.85 102.58 1542.72 113.7L1542.72 113.7C1536.97 124.54 1528.02 133.31 1515.93 140.03L1514.75 140.67C1512.36 141.95 1509.85 143.11 1507.21 144.14L1554.67 240.98L1494.94 240.98L1494.61 240.25L1453.42 150.87L1426.3 150.87L1426.3 240.98L1373.57 240.98L1373.57 4.01L1465.93 4.01L1465.93 5.26L1374.81 5.26L1374.81 239.73L1425.06 239.73L1425.06 149.63L1454.22 149.63L1495.74 239.73L1552.68 239.73L1505.49 143.47C1508.11 142.49 1510.61 141.4 1512.98 140.2L1514.16 139.58C1526.67 132.88 1535.82 124.06 1541.63 113.12C1547.47 102.52 1550.48 91.18 1550.66 79.11L1550.67 77.94ZM1498.18 79.95C1498.18 70.17 1495.26 62.59 1489.52 57.07L1489.5 57.05L1489.48 57.03C1484.01 51.34 1475.24 48.37 1462.91 48.37L1426.3 48.37L1426.3 112.21L1462.91 112.21L1462.91 113.45L1425.06 113.45L1425.06 47.13L1462.91 47.13C1475.42 47.13 1484.57 50.14 1490.38 56.17C1496.41 61.98 1499.42 69.9 1499.42 79.95L1499.41 80.91C1499.23 90.73 1496.22 98.57 1490.38 104.41L1489.82 104.96C1484 110.62 1475.02 113.45 1462.91 113.45L1462.91 112.21C1475.24 112.21 1484.01 109.24 1489.48 103.55L1489.5 103.53C1495.25 97.78 1498.18 89.97 1498.18 79.95Z" fill="#FFFFFF" fill-opacity="1.000000" fill-rule="nonzero"/>
		</g>
		<g filter="url(#filter_490_3488_dd)">
			<path id="Stroke" d="M1343.53 45.79L1343.53 5.26L1157.28 5.26L1157.28 45.79L1225.28 45.79L1225.28 239.73L1275.53 239.73L1275.53 45.79L1343.53 45.79ZM1344.77 47.03L1276.77 47.03L1276.77 240.98L1224.04 240.98L1224.04 47.03L1156.04 47.03L1156.04 4.01L1344.77 4.01L1344.77 47.03Z" fill="#FFFFFF" fill-opacity="1.000000" fill-rule="nonzero"/>
		</g>
		<g filter="url(#filter_490_3489_dd)">
			<path id="Stroke" d="M1014.64 167.48L1014.68 168.68C1014.9 174.96 1016.52 180.43 1019.51 185.14C1022.52 189.86 1026.6 193.62 1031.78 196.43C1036.93 199 1042.97 200.31 1049.94 200.31L1049.94 201.55L1048.62 201.53C1042.03 201.38 1036.22 200.04 1031.18 197.53C1026.17 194.81 1022.13 191.2 1019.07 186.71L1018.47 185.81C1015.34 180.89 1013.66 175.2 1013.44 168.72L959.84 168.72C960.51 185.02 964.75 198.76 972.57 209.92C980.39 221.09 990.99 229.57 1004.4 235.38C1017.59 240.79 1032.26 243.58 1048.39 243.75L1049.94 243.75C1068.26 243.75 1083.56 240.52 1095.84 234.04C1108.35 227.56 1117.84 218.97 1124.31 208.25C1130.81 197.86 1134.15 186.54 1134.36 174.27L1134.37 173.08C1134.36 158.56 1131.24 146.95 1124.99 138.24C1118.96 129.31 1110.92 122.16 1100.87 116.8C1091.66 111.57 1081.56 107.02 1070.57 103.16L1068.38 102.4C1061.01 100.16 1054.19 97.93 1047.93 95.7C1041.91 93.46 1036.55 91.12 1031.86 88.66C1027.4 85.98 1023.83 82.86 1021.15 79.28C1018.84 75.72 1017.62 71.67 1017.48 67.13L1017.46 66.22C1017.46 61.08 1018.69 56.84 1021.15 53.49C1023.66 50.14 1026.76 47.68 1030.44 46.09L1031.18 45.79C1035.43 44 1040.13 43.22 1045.26 43.44C1051.06 43.44 1056.09 44.67 1060.34 47.13C1064.8 49.58 1068.26 52.82 1070.72 56.84C1073.23 60.61 1074.67 64.77 1075.02 69.32L1075.07 70.24L1129.01 70.24C1128.56 55.95 1124.76 43.67 1117.62 33.39C1110.68 23.23 1101.36 15.47 1089.62 10.12L1088.47 9.61C1076.57 4.2 1062.9 1.41 1047.43 1.24L1045.93 1.24C1030.3 1.24 1016.34 3.92 1004.06 9.28L1002.92 9.78C991.17 15.13 981.84 22.77 974.92 32.72C967.99 42.77 964.53 54.94 964.53 69.24L964.55 70.84C964.84 87.29 969.75 100.49 979.27 110.44C989.32 120.71 1003.62 128.86 1022.15 134.89C1030.18 137.35 1037.67 139.91 1044.59 142.59C1051.74 145.05 1057.99 147.84 1063.35 150.97C1068.71 153.87 1072.94 157.44 1076.07 161.69C1079.21 165.71 1080.77 170.62 1080.77 176.43L1080.75 177.46C1080.6 182.59 1079.26 186.94 1076.75 190.49C1074.06 194.07 1070.39 196.86 1065.69 198.87L1064.85 199.19C1060.56 200.76 1055.61 201.55 1049.94 201.55L1049.94 200.31C1055.85 200.31 1060.93 199.44 1065.21 197.73C1069.72 195.79 1073.22 193.13 1075.75 189.76C1078.24 186.22 1079.53 181.8 1079.53 176.43C1079.53 170.85 1078.03 166.22 1075.1 162.45L1075.09 162.44L1075.07 162.42C1072.07 158.35 1067.99 154.89 1062.76 152.06L1062.74 152.05L1062.73 152.04C1057.44 148.96 1051.28 146.2 1044.18 143.77L1044.17 143.76L1044.15 143.75C1037.25 141.08 1029.8 138.52 1021.79 136.08L1021.78 136.07L1021.77 136.07C1003.11 130 988.61 121.76 978.38 111.3L978.37 111.29C968.28 100.74 963.29 86.68 963.29 69.24C963.29 54.74 966.8 42.31 973.89 32.02L973.9 32.02L974.59 31.04C981.8 21.05 991.47 13.41 1003.57 8.14L1004.74 7.64C1016.91 2.53 1030.65 6.1e-5 1045.93 0C1062.15 0 1076.52 2.81 1088.99 8.48L1088.99 8.48C1101.46 13.93 1111.36 22 1118.64 32.69L1118.64 32.69C1125.93 43.19 1129.79 55.71 1130.25 70.2L1130.29 71.48L1073.89 71.48L1073.84 70.3C1073.62 65.6 1072.24 61.36 1069.68 57.53L1069.66 57.49C1067.32 53.67 1064.03 50.57 1059.74 48.21L1059.73 48.21L1059.72 48.2C1055.68 45.87 1050.89 44.68 1045.26 44.68L1045.24 44.68L1045.21 44.68C1040.23 44.47 1035.73 45.22 1031.68 46.93L1031.64 46.94C1027.85 48.42 1024.68 50.84 1022.15 54.22L1022.15 54.23C1019.88 57.32 1018.7 61.28 1018.7 66.22C1018.7 70.9 1019.87 75.01 1022.17 78.58C1024.73 81.98 1028.15 84.98 1032.48 87.58C1037.1 90 1042.39 92.32 1048.36 94.53L1050.72 95.36C1055.5 97.03 1060.6 98.7 1066 100.38L1068.74 101.21L1068.76 101.22L1068.78 101.22C1080.67 105.26 1091.56 110.09 1101.44 115.71L1101.44 115.71C1111.66 121.15 1119.85 128.42 1125.99 137.52L1126.59 138.37C1132.64 147.25 1135.61 158.85 1135.61 173.08C1135.61 186.03 1132.18 197.99 1125.37 208.91L1125.37 208.9C1118.76 219.83 1109.09 228.57 1096.42 235.14L1096.42 235.14C1083.91 241.73 1068.4 245 1049.94 245C1033.06 245 1017.72 242.18 1003.93 236.53L1003.91 236.52L1003.9 236.52C990.73 230.81 980.19 222.54 972.31 211.69L971.55 210.63C963.58 199.24 959.28 185.26 958.6 168.77L958.55 167.48L1014.64 167.48Z" fill="#FFFFFF" fill-opacity="1.000000" fill-rule="nonzero"/>
		</g>
		<g filter="url(#filter_490_3490_dd)">
			<path id="Stroke" d="M927.72 199.2L820.87 199.2L820.87 139.91L917.67 139.91L917.67 101.06L820.87 101.06L820.87 45.79L927.72 45.79L927.72 5.26L770.62 5.26L770.62 239.73L927.72 239.73L927.72 199.2ZM928.96 47.03L822.11 47.03L822.11 99.82L918.91 99.82L918.91 141.15L822.11 141.15L822.11 197.96L928.96 197.96L928.96 240.98L769.38 240.98L769.38 4.01L928.96 4.01L928.96 47.03Z" fill="#FFFFFF" fill-opacity="1.000000" fill-rule="nonzero"/>
		</g>
		<g filter="url(#filter_490_3491_dd)">
			<path id="Stroke" d="M612.93 167.48L612.97 168.68C613.19 174.96 614.81 180.43 617.81 185.14C620.81 189.86 624.89 193.62 630.07 196.43C635.22 199 641.27 200.31 648.25 200.31L648.25 201.55L646.92 201.53C640.32 201.38 634.51 200.04 629.49 197.53C624.46 194.81 620.42 191.2 617.36 186.71L616.76 185.81C613.63 180.89 611.96 175.2 611.73 168.72L558.14 168.72C558.81 185.02 563.05 198.76 570.87 209.92C578.68 221.09 589.29 229.57 602.69 235.38C615.89 240.79 630.55 243.58 646.68 243.75L648.25 243.75C666.56 243.75 681.85 240.52 694.14 234.04C706.64 227.56 716.13 218.97 722.61 208.25C729.1 197.86 732.45 186.54 732.65 174.27L732.66 173.08C732.66 158.56 729.53 146.95 723.28 138.24C717.25 129.31 709.21 122.16 699.16 116.8C689.95 111.57 679.86 107.02 668.88 103.16L666.67 102.4C659.3 100.16 652.49 97.93 646.24 95.7C640.21 93.46 634.85 91.12 630.16 88.66C625.69 85.98 622.12 82.86 619.44 79.28C617.14 75.72 615.91 71.67 615.77 67.13L615.75 66.22C615.75 61.08 616.98 56.84 619.44 53.49C621.95 50.14 625.05 47.68 628.74 46.09L629.49 45.79C633.73 44 638.42 43.22 643.56 43.44C649.36 43.44 654.39 44.67 658.63 47.13C663.1 49.58 666.56 52.82 669.01 56.84C671.53 60.61 672.96 64.77 673.31 69.32L673.37 70.24L727.3 70.24C726.85 55.95 723.06 43.67 715.91 33.39C708.99 23.23 699.65 15.47 687.91 10.12L686.77 9.61C674.87 4.2 661.19 1.41 645.73 1.24L644.23 1.24C628.59 1.24 614.64 3.92 602.35 9.28L601.21 9.78C589.47 15.13 580.14 22.77 573.21 32.72C566.29 42.77 562.83 54.94 562.83 69.24L562.84 70.84C563.14 87.29 568.05 100.49 577.57 110.44C587.62 120.71 601.91 128.86 620.44 134.89C628.48 137.35 635.96 139.91 642.89 142.59C650.03 145.05 656.29 147.84 661.64 150.97C667 153.87 671.25 157.44 674.37 161.69C677.5 165.71 679.06 170.62 679.06 176.43L679.05 177.46C678.89 182.59 677.56 186.94 675.04 190.49C672.36 194.07 668.68 196.86 663.99 198.87L663.14 199.19C658.86 200.76 653.9 201.55 648.25 201.55L648.25 200.31C654.14 200.31 659.22 199.44 663.5 197.73C668.01 195.79 671.51 193.13 674.04 189.76C676.54 186.22 677.82 181.8 677.82 176.43C677.82 170.85 676.33 166.22 673.39 162.45L673.38 162.44L673.37 162.42C670.37 158.35 666.28 154.89 661.05 152.06L661.04 152.05L661.02 152.04C655.74 148.96 649.57 146.2 642.48 143.77L642.46 143.76L642.44 143.75C635.55 141.08 628.09 138.52 620.08 136.08L620.07 136.07L620.06 136.07C601.4 130 586.91 121.76 576.68 111.3L576.67 111.29C566.58 100.74 561.59 86.68 561.59 69.24C561.59 54.74 565.1 42.31 572.19 32.02L572.19 32.02L572.89 31.04C580.1 21.05 589.77 13.41 601.86 8.14L603.03 7.64C615.21 2.53 628.94 6.1e-5 644.23 0C660.45 0 674.81 2.81 687.28 8.48L687.28 8.48C699.76 13.93 709.65 22 716.94 32.69L716.93 32.69C724.23 43.19 728.09 55.71 728.54 70.2L728.58 71.48L672.18 71.48L672.13 70.3C671.92 65.6 670.53 61.36 667.98 57.53L667.96 57.49C665.62 53.67 662.33 50.57 658.03 48.21L658.02 48.21L658.01 48.2C653.99 45.87 649.19 44.68 643.56 44.68L643.53 44.68L643.5 44.68C638.53 44.47 634.02 45.22 629.97 46.93L629.94 46.94C626.15 48.42 622.98 50.84 620.44 54.22L620.44 54.23C618.17 57.32 617 61.28 617 66.22C617 70.9 618.16 75.01 620.46 78.58C623.02 81.98 626.45 84.98 630.77 87.58C635.39 90 640.68 92.32 646.65 94.53L649.02 95.36C653.79 97.03 658.89 98.7 664.3 100.38L667.03 101.21L667.05 101.22L667.07 101.22C678.96 105.26 689.85 110.09 699.74 115.71L699.75 115.71C709.95 121.15 718.14 128.42 724.29 137.52L724.88 138.37C730.93 147.25 733.9 158.85 733.9 173.08C733.9 186.03 730.48 197.99 723.66 208.91L723.66 208.9C717.05 219.83 707.39 228.57 694.71 235.14L694.72 235.14C682.21 241.73 666.7 245 648.25 245C631.36 245 616.01 242.18 602.22 236.53L602.21 236.52L602.2 236.52C589.03 230.81 578.49 222.54 570.61 211.69L569.85 210.63C561.87 199.24 557.58 185.26 556.9 168.77L556.85 167.48L612.93 167.48Z" fill="#FFFFFF" fill-opacity="1.000000" fill-rule="nonzero"/>
		</g>
		<g filter="url(#filter_490_3492_dd)">
			<path id="Stroke" d="M528.28 122.5C528.28 98.6 523.37 77.61 513.54 59.52C504.24 41.78 491.17 27.81 474.32 17.62L472.68 16.64C455.59 6.69 435.98 1.56 413.86 1.25L411.71 1.24C388.71 1.24 368.5 6.37 351.08 16.64L349.46 17.62C332.81 27.81 319.62 41.78 309.88 59.52L308.98 61.22C299.75 78.92 295.14 99.35 295.14 122.5L295.16 124.73C295.45 147.71 300.36 168.07 309.88 185.81C319.93 203.89 333.67 218.07 351.08 228.35C367.96 238.3 387.45 243.43 409.57 243.74L411.71 243.75C434 243.75 453.76 238.93 471.02 229.29L472.68 228.35C490.32 218.07 503.94 203.89 513.54 185.81C523.06 168.07 527.97 147.71 528.27 124.73L528.28 122.5ZM476.13 122.5C476.13 107 473.47 93.8 468.21 82.84L468.21 82.83C462.94 71.64 455.5 63.12 445.9 57.23L445.89 57.22L445.87 57.21C436.51 51.11 425.14 48.03 411.71 48.03C398.74 48.03 387.48 51.11 377.88 57.22L377.87 57.22L377.86 57.23C368.26 63.12 360.82 71.64 355.56 82.83L355.55 82.84C350.29 93.8 347.63 107 347.63 122.5C347.63 137.98 350.29 151.3 355.55 162.49L356.05 163.51C361.28 173.99 368.56 182.18 377.88 188.11L378.78 188.67C388.18 194.41 399.15 197.29 411.71 197.29L411.71 198.53L410.48 198.52C398.23 198.34 387.45 195.41 378.14 189.73L377.21 189.16C367.39 182.9 359.79 174.19 354.43 163.03C349.24 151.99 346.56 138.97 346.4 123.95L346.39 122.5C346.39 107.35 348.91 94.3 353.94 83.35L354.43 82.3C359.63 71.27 366.91 62.75 376.3 56.74L377.21 56.17C387.04 49.92 398.54 46.79 411.71 46.79L412.98 46.8C426.06 46.99 437.25 50.11 446.55 56.17C456.38 62.2 463.97 70.91 469.33 82.3C474.69 93.46 477.37 106.86 477.37 122.5L477.36 123.95C477.2 138.97 474.52 151.99 469.33 163.03C463.97 174.19 456.38 182.9 446.55 189.16C436.95 195.41 425.34 198.53 411.71 198.53L411.71 197.29C425.14 197.29 436.51 194.21 445.87 188.11L445.88 188.11L446.78 187.53C455.96 181.45 463.11 173.12 468.21 162.49C473.47 151.3 476.13 137.98 476.13 122.5ZM529.52 122.5C529.52 146.56 524.57 167.87 514.64 186.39C505.23 204.11 492 218.13 474.96 228.43L473.3 229.42C455.45 239.81 434.91 245 411.71 245C389.25 245 369.37 240.13 352.11 230.37L350.45 229.41C332.84 219.03 318.95 204.68 308.8 186.41L308.79 186.4L308.79 186.39C298.85 167.87 293.9 146.56 293.9 122.5C293.9 98.43 298.85 77.23 308.79 58.93L308.79 58.92L309.76 57.2C319.82 39.52 333.39 25.64 350.45 15.58C368.09 5.18 388.52 0 411.71 0C434.91 6.1e-5 455.45 5.18 473.3 15.57L474.96 16.56C492 26.87 505.23 41 514.63 58.93L515.55 60.65C524.88 78.55 529.52 99.18 529.52 122.5Z" fill="#FFFFFF" fill-opacity="1.000000" fill-rule="nonzero"/>
		</g>
		<g filter="url(#filter_490_3493_dd)">
			<path id="Stroke" d="M257.49 5.26L197.53 5.26L129.86 146.28L61.53 5.26L1.24 5.26L1.24 239.73L51.48 239.73L51.48 90L109.43 206.91L149.63 206.91L207.24 90L207.24 239.73L257.49 239.73L257.49 5.26ZM258.73 240.98L206 240.98L206 95.33L150.4 208.15L108.66 208.15L52.72 95.3L52.72 240.98L0 240.98L0 4.01L62.31 4.01L129.86 143.42L196.75 4.01L258.73 4.01L258.73 240.98Z" fill="#FFFFFF" fill-opacity="1.000000" fill-rule="nonzero"/>
		</g>
	</g>
</svg>
