<svg width="58" height="48" xmlns="http://www.w3.org/2000/svg"><defs><filter id="filter-1"><feColorMatrix in="SourceGraphic" values="0 0 0 0 1.000000 0 0 0 0 1.000000 0 0 0 0 1.000000 0 0 0 1.000000 0"/></filter></defs><g id="Page-1" stroke="none" stroke-width="1" fill="none" fill-rule="evenodd"><g id="Group-19" transform="translate(-1131 -551)" filter="url(#filter-1)"><g transform="translate(1132 552)" stroke="#505050" stroke-width="2"><path d="M25 5C19.422 5 6 0 6 0" id="Stroke-1" stroke-linejoin="round"/><path d="M33.408 10.896h0c.572.664 1.413.99 2.253.873 1.51-.212 2.866 1 2.935 2.62.038.9.487 1.725 1.2 2.21 1.286.871 1.594 2.726.67 4.012a2.91 2.91 0 00-.415 2.513c.458 1.547-.425 3.178-1.912 3.53-.826.196-1.51.807-1.835 1.64-.581 1.497-2.245 2.141-3.597 1.393a2.462 2.462 0 00-2.396 0c-1.351.748-3.015.104-3.6-1.393-.326-.833-1.011-1.444-1.837-1.64-1.487-.352-2.374-1.983-1.918-3.53a2.91 2.91 0 00-.418-2.513c-.928-1.286-.623-3.141.661-4.012.714-.485 1.16-1.31 1.197-2.21.065-1.62 1.42-2.832 2.93-2.62.84.117 1.68-.209 2.252-.873 1.03-1.195 2.8-1.195 3.83 0z" id="Stroke-3"/><path d="M27.758 12c-.29-3.056-1.267-5.608-2.587-6.96-.374-.384-.092-1.04.438-1.04h4.655C32.6 4 34.55 7.398 35 11.916" id="Stroke-5" stroke-linejoin="round"/><path d="M7.378 8.59H4.92c-.34 1.557-.728 3.16-.728 5.33 0 3.995 1.451 6.366 2.05 6.366 2.063 0 3.597-3.647 3.597-8.474C9.838 4.115 7.56 0 5.37 0 2.737 0 0 4.838 0 13.5 0 21.094 2.067 24.462 3.69 27c0 0 13.35-2.798 19.31-3.571" id="Stroke-7" stroke-linejoin="round"/><path d="M7 20s7.637-1.44 15-2" id="Stroke-9" stroke-linejoin="round"/><path d="M40 24.704c4.385.67 9.471 1.296 9.49 1.296 2.027-1.104 3.51-3.707 3.51-6" id="Stroke-11" stroke-linejoin="round"/><path d="M41.071 19.318L53.498 20C54.494 18.567 56 16.042 56 10.5c0-4.429-1.448-8.548-3.722-9.5 0 0-16.72 3.608-20.278 3.608" id="Stroke-13" stroke-linejoin="round"/><path d="M35 19.5a3.5 3.5 0 11-7 0 3.5 3.5 0 017 0z" id="Stroke-15"/><path id="Stroke-17" d="M35 29v15l-3.5-3.75L28 44V29"/></g></g></g></svg>