<svg width="31" height="39" xmlns="http://www.w3.org/2000/svg"><g id="Page-1" stroke="none" stroke-width="1" fill="none" fill-rule="evenodd"><g id="Contact" transform="translate(-344 -367)" stroke="#FFF" stroke-width="2"><g id="Group-11" transform="translate(345 368)"><path d="M4.247 25.456c-5.663-5.824-5.663-15.264 0-21.089 5.664-5.823 14.843-5.823 20.506 0 5.663 5.825 5.663 15.265 0 21.09L14.5 36 4.247 25.456z" id="Stroke-1" stroke-dasharray="36,2,2,2,2,2"/><path d="M11 24a9.713 9.713 0 01-6-9 9.713 9.713 0 016-9" id="Stroke-3"/><path d="M18 6a9.713 9.713 0 016 9 9.713 9.713 0 01-6 9" id="Stroke-5"/><path id="Stroke-7" stroke-dasharray="2,2,200,2" d="M29 36.5H19"/><path id="Stroke-9" stroke-dasharray="2,2,200,2" d="M0 36.5h10"/></g></g></g></svg>