<svg width="56" height="59" xmlns="http://www.w3.org/2000/svg" xmlns:xlink="http://www.w3.org/1999/xlink"><defs><filter id="filter-1"><feColorMatrix in="SourceGraphic" values="0 0 0 0 1.000000 0 0 0 0 1.000000 0 0 0 0 1.000000 0 0 0 1.000000 0"/></filter><path id="path-2" d="M0 59h56V0H0z"/></defs><g id="Page-1" stroke="none" stroke-width="1" fill="none" fill-rule="evenodd"><g id="Group-14" transform="translate(-652 -537)" filter="url(#filter-1)"><g transform="translate(652 537)"><path d="M35 0v1.273c0 .802.313 1.644 1.25 2.545C37.646 5.161 40 5.786 40 7.636V14" id="Stroke-1" stroke="#505050" stroke-width="2"/><path d="M36 11.4v5.067C36 17.957 32.873 19 28.4 19c-4.355 0-11.4-.504-11.4-2.533V7.6c0-2.326 2.533-3.91 2.533-5.067V0" id="Stroke-3" stroke="#505050" stroke-width="2"/><path id="Stroke-5" stroke="#505050" stroke-width="2" d="M54 38v20H3V38"/><mask id="mask-3" fill="#fff"><use xlink:href="#path-2"/></mask><path id="Stroke-7" stroke="#505050" stroke-width="2" mask="url(#mask-3)" d="M15 47h6v-8h-6z"/><path id="Stroke-9" stroke="#505050" stroke-width="2" mask="url(#mask-3)" d="M35 47h6v-8h-6z"/><path d="M18 14h-1.333C15.195 14 14 15.152 14 16.571V23" id="Stroke-10" stroke="#505050" stroke-width="2" mask="url(#mask-3)"/><path d="M36 14h2.5c1.38 0 2.5 1.152 2.5 2.571V23" id="Stroke-11" stroke="#505050" stroke-width="2" mask="url(#mask-3)"/><path id="Stroke-12" stroke="#505050" stroke-width="2" mask="url(#mask-3)" d="M35 41.5H21"/><path d="M14.814 42h-2.512C8.11 42 1 39.704 1 35.667V23h54v12.667C55 39.704 47.89 42 43.698 42h-2.512" id="Stroke-13" stroke="#505050" stroke-width="2" mask="url(#mask-3)"/></g></g></g></svg>