<svg width="32" height="32" xmlns="http://www.w3.org/2000/svg"><defs><filter id="filter-1"><feColorMatrix in="SourceGraphic" values="0 0 0 0 1.000000 0 0 0 0 1.000000 0 0 0 0 1.000000 0 0 0 1.000000 0"/></filter></defs><g id="Page-1" stroke="none" stroke-width="1" fill="none" fill-rule="evenodd"><g id="Group-9" transform="translate(-330 -531)" filter="url(#filter-1)"><g transform="translate(330 532)" stroke="#0074FF" stroke-width="2"><path d="M0 30h19l6-3 5-6.5a5.298 5.298 0 00-6.946 1.183L22 23l-5 2h-5.141c-1.032 0-1.387-1.373-.485-1.874l3.381-1.879a2.44 2.44 0 00-2.206-4.347L8 19l-3 3H0" id="Stroke-1"/><path d="M10.07 18.05A9.98 9.98 0 016 10C6 4.48 10.48 0 16 0s10 4.48 10 10-4.48 10-10 10h-.15" id="Stroke-3" stroke-dasharray="29,2,2,2,2,2"/><path d="M19 6h-3a2 2 0 000 4 2 2 0 010 4h-3" id="Stroke-5"/><path id="Stroke-7" d="M16 3v3"/></g></g></g></svg>