<svg width="55" height="53" xmlns="http://www.w3.org/2000/svg"><g id="Page-1" stroke="none" stroke-width="1" fill="none" fill-rule="evenodd" stroke-linecap="round" stroke-linejoin="round"><g id="Get-Involved--" transform="translate(-773 -353)" stroke="#4BB649" stroke-width="4"><g id="Group" transform="translate(774 354)"><path d="M33.983 9.257h0a4.215 4.215 0 011.152 3.77l-3.127 16.355a9.827 9.827 0 01-7.781 7.818L7.94 40.34a4.177 4.177 0 01-3.752-1.157h0a4.22 4.22 0 010-5.95l23.868-23.98a4.18 4.18 0 015.926.003zM1.564 49.485H52M1.564 10.101V1.656M9.97 4.471V1.656m8.505-.114a.141.141 0 010 .2.14.14 0 01-.198 0 .141.141 0 010-.2.14.14 0 01.198 0" id="Path"/><path d="M33.983 9.257l14.59 14.658a5.648 5.648 0 010 7.961l-17.538 17.62M4.198 39.182l10.255 10.303" id="Path"/></g></g></g></svg>