<svg width="32" height="32" xmlns="http://www.w3.org/2000/svg"><g id="Page-1" stroke="none" stroke-width="1" fill="none" fill-rule="evenodd"><g id="Home-upd-2021" transform="translate(-744 -916)" stroke="#FFF" stroke-width="2"><g id="energy" transform="translate(745 917)"><path id="Stroke-1" d="M16 6l-6 11h4v7l6-11h-4z"/><path d="M28.75 21A14.933 14.933 0 0030 15c0-8.28-6.72-15-15-15-4.91 0-9.27 2.35-11.99 6" id="Stroke-2" stroke-dasharray="20,2,2,2"/><path d="M1.25 9A15.02 15.02 0 000 15c0 8.28 6.72 15 15 15 4.9 0 9.26-2.35 11.99-6" id="Stroke-4" stroke-dasharray="20,2,2,2"/><path id="Stroke-6" d="M8 6H3V1"/><path id="Stroke-8" d="M22 24h5v5"/></g></g></g></svg>