<svg width="66" height="59" xmlns="http://www.w3.org/2000/svg"><defs><filter id="filter-1"><feColorMatrix in="SourceGraphic" values="0 0 0 0 1.000000 0 0 0 0 1.000000 0 0 0 0 1.000000 0 0 0 1.000000 0"/></filter></defs><g id="Page-1" stroke="none" stroke-width="1" fill="none" fill-rule="evenodd"><g id="Group-21" transform="translate(-409 -538)" filter="url(#filter-1)"><g transform="translate(410 540)" stroke="#505050" stroke-width="2"><path id="Stroke-1" d="M64 14L32 0 0 14"/><path id="Stroke-3" d="M63 19.5H2"/><path d="M42 46V29.2c0-2.32 1.79-4.2 4-4.2s4 1.882 4 4.2V46" id="Stroke-5"/><path d="M28 46V29.2c0-2.32 1.79-4.2 4-4.2s4 1.88 4 4.2V46" id="Stroke-7"/><path d="M15 46V29.2c0-2.32 1.79-4.2 4-4.2h0c2.21 0 4 1.882 4 4.2V46" id="Stroke-9"/><path id="Stroke-11" d="M3 57V25h6v20.87"/><path id="Stroke-13" d="M62 57V25h-6v20.87"/><path id="Stroke-15" d="M9 49.5h47"/><path id="Stroke-17" d="M6 55.5h53"/><path d="M36 11a4 4 0 11-8 0 4 4 0 018 0z" id="Stroke-19"/></g></g></g></svg>