<svg width="32" height="32" xmlns="http://www.w3.org/2000/svg"><g id="Page-1" stroke="none" stroke-width="1" fill="none" fill-rule="evenodd"><g id="Home-upd-2021" transform="translate(-490 -872)" stroke="#FFF" stroke-width="2"><g id="green-tech" transform="translate(491 873)"><path d="M16.865 8.073C14.445 2.19 9 .073 9 .073s-9 3.5-9 14 9 14 9 14 1.509-.587 3.29-2" id="Stroke-1"/><path id="Stroke-3" d="M9 30.073v-30"/><path id="Stroke-5" d="M9 10.073l6-4"/><path id="Stroke-7" d="M1 9.073l8 5"/><path id="Stroke-9" d="M9 22.073l-9-5"/><path d="M27.757 29.073l-3.64-3.641a7.998 7.998 0 01-8.778-1.706 8 8 0 01-1.706-8.777l5.242 5.242 4.242-4.243-5.24-5.241A7.995 7.995 0 0128.358 21.19l1.883 1.883" id="Stroke-11" stroke-dasharray="50,2,2,2,2,2"/></g></g></g></svg>