<svg width="54" height="54" xmlns="http://www.w3.org/2000/svg"><g id="Page-1" stroke="none" stroke-width="1" fill="none" fill-rule="evenodd" stroke-linecap="round" stroke-linejoin="round"><g id="Get-Involved--" transform="translate(-932 -600)" stroke="#FFF" stroke-width="4"><g id="Help,-Wheel" transform="translate(934 602)"><path d="M46 12a24.788 24.788 0 01.003 27M34.9 15.1c5.467 5.468 5.467 14.332 0 19.8-5.468 5.467-14.332 5.467-19.8 0-5.467-5.468-5.467-14.332 0-19.8 5.468-5.467 14.332-5.467 19.8 0" id="Path"/><path d="M31 12.953l7.339-8.915a2.849 2.849 0 014.211-.205l3.616 3.616a2.847 2.847 0 01-.205 4.212L37.046 19M19 37.047l-7.339 8.915a2.849 2.849 0 01-4.211.205L3.834 42.55a2.847 2.847 0 01.205-4.212L12.954 31m.002-12l-8.918-7.339a2.849 2.849 0 01-.205-4.211L7.45 3.834a2.847 2.847 0 014.212.205L19 12.954M37.047 31l8.915 7.339a2.849 2.849 0 01.205 4.211l-3.616 3.616a2.847 2.847 0 01-4.212-.205L31 37.046m8 8.957A24.788 24.788 0 0112 46M3.997 11A24.788 24.788 0 004 38M38 4a24.788 24.788 0 00-27-.003" id="Path"/></g></g></g></svg>