<svg width="32" height="32" xmlns="http://www.w3.org/2000/svg"><g id="Page-1" stroke="none" stroke-width="1" fill="none" fill-rule="evenodd"><g id="Home-upd-2021" transform="translate(-490 -829)" stroke="#FFF" stroke-width="2"><g id="iot" transform="translate(490 830)"><path d="M19 3a3 3 0 11-6 0 3 3 0 016 0z" id="Stroke-1"/><path d="M11 16v-5a5 5 0 1110 0v5H11z" id="Stroke-3"/><path d="M16 24a3 3 0 100 6 3 3 0 000-6z" id="Stroke-5"/><path id="Stroke-7" d="M16 19v2"/><path d="M31 25a3 3 0 10-6 0 3 3 0 006 0z" id="Stroke-9"/><path d="M32 12a3 3 0 100 6" id="Stroke-11"/><path id="Stroke-13" d="M22 19l2 2"/><path d="M1 25a3 3 0 116 0 3 3 0 01-6 0z" id="Stroke-15"/><path id="Stroke-17" d="M10 19l-2 2"/><path id="Stroke-19" d="M16 13V9"/><path id="Stroke-21" d="M26 15h-2"/><path d="M0 12a3 3 0 110 6" id="Stroke-23"/><path id="Stroke-25" d="M6 15h2"/></g></g></g></svg>