<svg width="32" height="32" xmlns="http://www.w3.org/2000/svg"><defs><filter id="filter-1"><feColorMatrix in="SourceGraphic" values="0 0 0 0 1.000000 0 0 0 0 1.000000 0 0 0 0 1.000000 0 0 0 1.000000 0"/></filter></defs><g id="Page-1" stroke="none" stroke-width="1" fill="none" fill-rule="evenodd"><g id="Group-11" transform="translate(-330 -488)" filter="url(#filter-1)"><g transform="translate(330 489)" stroke="#0074FF" stroke-width="2"><path d="M0 30h19l6-3 5-6.5a5.299 5.299 0 00-6.947 1.184L22 23l-5 2h-5.141c-1.032 0-1.387-1.373-.485-1.874l3.381-1.879a2.439 2.439 0 00-2.206-4.347L8 19l-3 3H0" id="Stroke-1"/><path id="Stroke-3" d="M5 22V0h24v20"/><path id="Stroke-5" d="M23 0v9l-6-2.25L11 9V0"/><path id="Stroke-7" d="M26 14h-6"/><path id="Stroke-9" d="M20 18h2"/></g></g></g></svg>