<svg width="211" height="57" xmlns="http://www.w3.org/2000/svg" xmlns:xlink="http://www.w3.org/1999/xlink"><defs><path id="path-1" d="M0 .117h34.864v42.836H0z"/><path id="path-3" d="M.14.037h17.73v21.67H.14z"/></defs><g id="Page-1" stroke="none" stroke-width="1" fill="none" fill-rule="evenodd"><g id="Home-upd-2021" transform="translate(-490 -36)"><g id="logo" transform="translate(490 36)"><path d="M25.57 43.784c2.683-3.352 6.291-7.987 8.251-11.033a1.136 1.136 0 00-.352-1.572 1.142 1.142 0 00-.863-.152 1.14 1.14 0 00-.72.5c-1.86 2.894-5.44 7.488-8.116 10.833-.583.728-1.072 1.337-1.486 1.847l-.676.835-5.563-7.002a1.153 1.153 0 00-1.61-.187 1.13 1.13 0 00-.188 1.6l6.449 8.114a1.145 1.145 0 001.786.015l.522-.636.005.003.918-1.13c.59-.726 1.158-1.428 1.643-2.035" id="Fill-1" fill="#05A6AE"/><path d="M22.685 33.323l-.67.818-2.801-3.572C17.14 27.82 14.56 24.4 15.44 21.066c.527-1.998 1.83-3.528 3.668-4.308a7.364 7.364 0 013.398-.54 7.305 7.305 0 013.274 1.028c1.69 1.035 2.738 2.734 2.95 4.784.317 3.067-2.878 7.43-6.045 11.293M30.97 21.82c-.284-2.741-1.701-5.024-3.99-6.426a9.618 9.618 0 00-4.307-1.367 9.617 9.617 0 00-4.465.724c-2.484 1.054-4.24 3.106-4.944 5.778-1.145 4.34 1.658 8.058 4.132 11.337l.268.357a.948.948 0 00.074.088l.045.052 3.326 4.211a1.142 1.142 0 001.773.01l.828-1.002c2.886-3.493 7.717-9.34 7.26-13.762" id="Fill-3" fill="#4BB649"/><path d="M11.82 32.252a50.5 50.5 0 01-.855-1.387c-1.646-2.794-2.536-5.48-2.646-7.981a11.86 11.86 0 01.598-4.252c1.546-.035 2.79-1.277 2.79-2.813 0-1.557-1.278-2.819-2.854-2.819S6 14.262 6 15.819c0 .747.3 1.422.78 1.927a14.143 14.143 0 00-.766 5.236c.127 2.878 1.12 5.914 2.951 9.024.146.248.296.495.448.741a97 97 0 00.465.727 1.16 1.16 0 001.59.348 1.13 1.13 0 00.351-1.57" id="Fill-5" fill="#008682"/><path d="M38.79 22.825a15.446 15.446 0 00-2.065-8.916 16.142 16.142 0 00-3.53-4.208 15.812 15.812 0 00-4.686-2.76c-4.367-1.63-8.978-1.13-12.982 1.407-.516.325-.681 1.026-.37 1.564.152.26.39.443.674.515.282.074.576.027.825-.131 2.099-1.33 4.395-2.003 6.721-2.003 1.467 0 2.945.268 4.394.808a13.617 13.617 0 014.041 2.37 13.88 13.88 0 013.043 3.616 13.09 13.09 0 011.76 7.364c-1.166.316-2.03 1.41-2.03 2.725 0 1.56 1.212 2.824 2.707 2.824C38.788 28 40 26.736 40 25.176c0-.982-.481-1.845-1.21-2.351" id="Fill-7" fill="#ED8D22"/><g id="Group-11"><mask id="mask-2" fill="#fff"><use xlink:href="#path-1"/></mask><path d="M32.13 1.344c-.595 0-1.143.2-1.592.532C27.835.715 25.013.117 22.163.117c-1.545 0-3.097.173-4.642.521-4.045.91-7.781 2.967-10.806 5.946C3.637 9.614 1.508 13.4.557 17.532c-1.205 5.235-.447 10.79 2.19 16.066.746 1.492 1.623 3 2.68 4.61.856 1.305 1.793 2.632 3.036 4.3a1.09 1.09 0 001.551.212 1.146 1.146 0 00.208-1.587c-1.241-1.666-2.155-2.956-2.96-4.182-1.022-1.559-1.856-2.992-2.55-4.38C2.32 27.79 1.63 22.766 2.718 18.043c.852-3.705 2.765-7.103 5.53-9.826 2.725-2.684 6.091-4.536 9.735-5.357 3.865-.87 7.774-.51 11.441 1.002-.01.094-.028.185-.028.282 0 1.546 1.225 2.8 2.734 2.8 1.51 0 2.734-1.254 2.734-2.8 0-1.546-1.224-2.8-2.734-2.8" id="Fill-9" fill="#4BB649" mask="url(#mask-2)"/></g><path d="M41.745 10.563l-.147-.241c-.127-.203-.21-.336-.26-.412a22.624 22.624 0 00-2.934-3.582 1.137 1.137 0 00-1.597 0 1.116 1.116 0 000 1.585 20.332 20.332 0 012.52 3.037l.084-.058.425.839c2.959 4.835 3.665 10.075 2.084 15.55a24.623 24.623 0 01-1.105 3.047c-.438 1-.96 2.021-1.554 3.034-2.03 3.465-8.736 12.296-13.3 17.516a58.521 58.521 0 01-2.46 2.67 38.01 38.01 0 01-.412.408l-.584.565-.587-.562c-.794-.76-1.865-1.919-3.18-3.443a133.05 133.05 0 01-2.517-3.014c.21-.388.34-.824.34-1.294a2.77 2.77 0 00-2.78-2.759A2.769 2.769 0 0011 46.208a2.77 2.77 0 002.78 2.758c.231 0 .452-.035.666-.088a141.757 141.757 0 002.582 3.088c2.8 3.244 4.211 4.436 4.901 4.865.372.231.85.225 1.215-.017l.167-.115c.48-.337 1.083-.872 1.796-1.588a61.125 61.125 0 002.555-2.775C32.3 47.029 39.133 38.025 41.2 34.496c.639-1.094 1.2-2.19 1.676-3.276a27.057 27.057 0 001.215-3.33c1.756-6.079.966-11.909-2.346-17.327" id="Fill-12" fill="#008682"/><path d="M25 22a3 3 0 11-6 0 3 3 0 016 0" id="Fill-14" fill="#ED8D22"/><path d="M66.093 27C70.11 27 73 24.725 73 21.225v-.058c0-3.121-2.08-4.784-6.59-5.775-4.45-.963-5.49-2.042-5.49-3.967v-.058c0-1.838 1.676-3.296 4.306-3.296 1.878 0 3.525.525 5.23 1.78.203.145.405.203.666.203.606 0 1.098-.495 1.098-1.108 0-.438-.26-.758-.492-.933C69.878 6.67 67.942 6 65.283 6c-3.843 0-6.647 2.363-6.647 5.57v.06c0 3.353 2.139 4.87 6.792 5.89 4.249.905 5.26 1.985 5.26 3.88v.059c0 2.012-1.792 3.47-4.509 3.47-2.572 0-4.48-.787-6.387-2.42-.144-.146-.404-.263-.693-.263-.607 0-1.099.496-1.099 1.138 0 .379.174.7.434.875C60.688 26.067 63.144 27 66.093 27" id="Fill-16" fill="#FFF"/><path d="M87.955 20.089l6.687-9.759v15.483c0 .623.537 1.187 1.194 1.187.627 0 1.164-.534 1.164-1.187V7.157C97 6.534 96.463 6 95.836 6h-.269c-.478 0-.866.237-1.105.623L87 17.775 79.537 6.623C79.298 6.267 78.94 6 78.432 6h-.268C77.537 6 77 6.534 77 7.157v18.686c0 .652.507 1.157 1.134 1.157.657 0 1.164-.505 1.164-1.157V10.36l6.657 9.729c.269.385.597.593 1.015.593.418 0 .716-.208.985-.593" id="Fill-18" fill="#FFF"/><path d="M107.228 19.283l4.728-10.544 4.728 10.544h-9.456zm12.51 6.863c.206.471.588.854 1.146.854.616 0 1.116-.501 1.116-1.12a1.58 1.58 0 00-.147-.588l-8.34-18.261c-.265-.648-.735-1.031-1.44-1.031h-.117c-.734 0-1.175.383-1.468 1.03l-8.34 18.291a1.342 1.342 0 00-.148.619c0 .589.47 1.06 1.057 1.06.529 0 .91-.295 1.116-.795l2.144-4.801h11.278l2.143 4.742z" id="Fill-20" fill="#FFF"/><path d="M140.545 12.345c0 2.68-2.301 4.289-5.523 4.289h-6.598v-8.46h6.628c3.468 0 5.493 1.55 5.493 4.111v.06zM135.236 6h-8.04c-.644 0-1.196.536-1.196 1.192v18.616c0 .655.552 1.192 1.196 1.192.676 0 1.228-.537 1.228-1.192v-7.06h6.168l6.045 7.626c.276.358.645.626 1.136.626.613 0 1.227-.537 1.227-1.162 0-.328-.153-.595-.399-.863l-5.34-6.673c3.345-.626 5.739-2.621 5.739-6.047v-.06c0-1.638-.614-3.097-1.657-4.11-1.35-1.31-3.468-2.085-6.107-2.085z" id="Fill-22" fill="#FFF"/><path d="M161.877 6h-14.754c-.607 0-1.123.506-1.123 1.102 0 .596.516 1.073 1.123 1.073h6.163v17.633c0 .655.546 1.192 1.214 1.192.668 0 1.214-.537 1.214-1.192V8.175h6.163c.607 0 1.123-.477 1.123-1.073S162.484 6 161.877 6" id="Fill-24" fill="#FFF"/><path d="M74.843 49.098c-.305 0-.579.145-.762.319-1.827 1.595-3.684 2.465-6.333 2.465-4.689 0-8.251-3.683-8.251-8.382v-.058c0-4.67 3.532-8.324 8.251-8.324 2.619 0 4.476.928 6.12 2.32.183.116.457.261.792.261.64 0 1.218-.522 1.218-1.132 0-.405-.244-.725-.487-.928C73.41 34.073 71.219 33 67.779 33 61.507 33 57 37.757 57 43.5v.058C57 49.388 61.537 54 67.688 54c3.5 0 5.815-1.16 7.916-2.988.213-.174.396-.464.396-.812 0-.58-.549-1.102-1.157-1.102" id="Fill-26" fill="#FFF"/><path d="M81.987 33c-.531 0-.987.532-.987 1.183v18.634c0 .651.456 1.183.987 1.183.557 0 1.013-.532 1.013-1.183V34.183c0-.651-.456-1.183-1.013-1.183" id="Fill-28" fill="#FFF"/><path d="M102.877 33H88.123c-.607 0-1.123.507-1.123 1.102 0 .596.516 1.072 1.123 1.072h6.163V52.81c0 .655.546 1.191 1.214 1.191.668 0 1.214-.536 1.214-1.191V35.174h6.163c.607 0 1.123-.476 1.123-1.072 0-.595-.516-1.102-1.123-1.102" id="Fill-30" fill="#FFF"/><path d="M123.803 33c-.522 0-.829.295-1.136.71l-7.152 9.849-7.09-9.85c-.307-.414-.645-.709-1.167-.709-.675 0-1.258.532-1.258 1.154 0 .295.123.561.276.798l7.98 10.766v7.1c0 .65.553 1.182 1.229 1.182.675 0 1.227-.532 1.227-1.183V45.66l7.95-10.648c.154-.236.338-.562.338-.857 0-.622-.522-1.154-1.197-1.154" id="Fill-32" fill="#FFF"/><path d="M136.534 50.811l6.719-6.24c3.036-2.84 4.105-4.437 4.105-6.507 0-2.426-1.828-3.964-3.964-3.964-2.08 0-3.486 1.065-4.892 3.017a.983.983 0 01-.815.414c-.562 0-1.012-.473-1.012-1.065 0-.237.084-.473.225-.65 1.63-2.396 3.43-3.816 6.663-3.816 3.541 0 6.1 2.484 6.1 5.856v.06c0 3.016-1.518 4.88-4.976 8.044l-5.257 4.91h9.53c.562 0 1.04.473 1.04 1.065S149.522 53 148.96 53h-11.835c-.647 0-1.125-.444-1.125-1.095 0-.443.17-.769.534-1.094" id="Fill-34" fill="#4BB649"/><path d="M169.502 43.558V43.5c0-4.437-2.558-8.412-6.517-8.412-3.99 0-6.487 3.887-6.487 8.354v.058c0 4.437 2.558 8.412 6.548 8.412s6.456-3.916 6.456-8.354m-15.502 0V43.5c0-5.685 3.563-10.5 9.046-10.5 5.482 0 8.954 4.757 8.954 10.442v.058c0 5.685-3.533 10.5-9.015 10.5-5.513 0-8.985-4.757-8.985-10.442" id="Fill-36" fill="#008682"/><path d="M175.37 50.874c-.17-.177-.37-.501-.37-.826 0-.62.513-1.15 1.112-1.15.37 0 .656.177.827.353 1.454 1.711 3.165 2.626 5.417 2.626 2.424 0 4.363-1.593 4.363-4.012v-.059c0-2.565-2.31-3.982-5.589-3.982h-.712c-.542 0-.998-.442-.998-1.002 0-.295.142-.59.456-.915l5.817-6.813h-8.84c-.57 0-1.054-.442-1.054-1.033 0-.589.484-1.061 1.055-1.061h10.892c.627 0 1.083.413 1.083 1.003 0 .472-.228.796-.542 1.15l-5.874 6.754c3.48.295 6.587 2.036 6.587 5.81v.06c0 3.687-2.965 6.223-6.672 6.223-3.051 0-5.36-1.268-6.957-3.126" id="Fill-38" fill="#05A6AE"/><g id="Group-42" transform="translate(193 32)"><mask id="mask-4" fill="#fff"><use xlink:href="#path-3"/></mask><path d="M15.41 10.932v-.06c0-4.579-2.52-8.68-6.42-8.68-3.93 0-6.39 4.01-6.39 8.62v.06c0 4.58 2.52 8.68 6.45 8.68s6.36-4.04 6.36-8.62m-15.27 0v-.06C.14 5.006 3.65.037 9.05.037s8.82 4.91 8.82 10.776v.06c0 5.866-3.48 10.834-8.88 10.834-5.43 0-8.85-4.908-8.85-10.775" id="Fill-40" fill="#ED8D22" mask="url(#mask-4)"/></g></g></g></g></svg>