<svg width="56" height="56" xmlns="http://www.w3.org/2000/svg"><g id="Page-1" stroke="none" stroke-width="1" fill="none" fill-rule="evenodd" stroke-linecap="round" stroke-linejoin="round"><g id="Get-Involved--" transform="translate(-1094 -352)" stroke="#008682" stroke-width="4"><g id="user-profile" transform="translate(1096 354)"><circle id="Oval" cx="41" cy="41" r="11"/><path d="M45.664 31.295h0c4.303-12.243-2.133-25.656-14.374-29.96C19.05-2.966 5.638 3.47 1.336 15.713-2.967 27.954 3.469 41.367 15.71 45.67a23.49 23.49 0 0015.58 0" id="Path"/><path d="M24.5 11h0a6.5 6.5 0 11-6.5 6.5h0a6.5 6.5 0 016.5-6.5s0 0 0 0m8.593 21c-.922-2.275-2.095-2.013-4.386-2H17.432c-2.394.005-4.545 1.589-5.432 4" id="Path"/><circle id="Oval" cx="41" cy="41" r="11"/><path id="Path" d="M45 40l-4.377 5L38 41.998"/></g></g></g></svg>