<svg width="56" height="54" xmlns="http://www.w3.org/2000/svg"><g id="Page-1" stroke="none" stroke-width="1" fill="none" fill-rule="evenodd" stroke-linecap="round" stroke-linejoin="round"><g id="Get-Involved--" transform="translate(-612 -600)" stroke="#05A6AE" stroke-width="4"><g id="Group" transform="translate(614 602)"><path d="M20.577 21.523a5.308 5.308 0 010 7.443 5.156 5.156 0 01-7.354 0 5.308 5.308 0 010-7.443 5.156 5.156 0 017.354 0M33.8 23.684h10.4m-2.6 9.211h-7.8M26 42.213a8.13 8.13 0 00-2.005-2.958h0a7.984 7.984 0 00-5.46-2.168h-3.27a7.971 7.971 0 00-5.46 2.168h0A8.087 8.087 0 007.8 42.213m20.8-29.055h-5.2c-1.435 0-2.6-1.18-2.6-2.632V2.632C20.8 1.179 21.965 0 23.4 0h5.2c1.435 0 2.6 1.179 2.6 2.632v7.894c0 1.453-1.165 2.632-2.6 2.632z" id="Path"/><path d="M20.8 7.895H5.307C2.377 7.895 0 10.3 0 13.265v31.472C0 47.645 2.327 50 5.2 50h41.6c2.873 0 5.2-2.355 5.2-5.263v-31.58c0-2.907-2.327-5.262-5.2-5.262H31.2" id="Path"/></g></g></g></svg>