<svg width="54" height="54" xmlns="http://www.w3.org/2000/svg"><g id="Page-1" stroke="none" stroke-width="1" fill="none" fill-rule="evenodd" stroke-linecap="round" stroke-linejoin="round"><g id="Get-Involved--" transform="translate(-451 -352)" stroke="#ED8D22" stroke-width="4"><g id="Play,-Refresh,-Reload,-Loading" transform="translate(453 354)"><path d="M6 8a27.582 27.582 0 015-4m28 42c-3.94 2.524-8.678 4-13.78 4-2.513 0-4.935-.364-7.22-1.028M9 45a24.804 24.804 0 01-8-11m.523-17a31.125 31.125 0 00-1.046 8M45.73 39C48.409 35.014 50 30.239 50 25.071 50 11.224 38.808 0 25 0m-1.769 16.325l9.72 6.191c1.399.893 1.399 3.075 0 3.968l-9.723 6.191c-1.426.91-3.228-.198-3.228-1.984V18.31c0-1.786 1.805-2.894 3.231-1.984h0z" id="Path"/></g></g></g></svg>