<svg width="1113" height="325" xmlns="http://www.w3.org/2000/svg"><g id="Page-1" stroke="none" stroke-width="1" fill="none" fill-rule="evenodd"><g id="Home-upd-2021" transform="translate(-424 -1861)"><g id="Group-8" transform="translate(424 1861)"><path d="M917.936 154.257C840.785 154.257 808.494 307 734.779 307c-55.259 0-114.003-152.743-181.027-152.743h-65.677c-64.924 0-96.702 120.446-162.711 120.446-60.855 0-81.12-120.446-152.674-120.446H53c44.126 0 74.308-64.995 111.33-64.995 44.017 0 94.332 61.226 132.671 61.236C374.152 150.508 429-.01 502.713 0c73.715.02 125.035 154.257 201.272 154.257h82.877c50.969 0 86.525-66.017 130.722-66.007 58.634.01 91.699 66.007 142.416 66.007H917.936z" id="Fill-1" fill="#ED8D22" opacity=".578"/><path d="M1091 153.106c-81.094 0-95.97-46.55-158.143-46.55-53.536 0-98.422 31.518-130.68 31.518C737.293 138.074 691.14 30 629.158 30c-62.01 0-97.523 108.074-207.51 108.074-70.647 0-85.931-48.78-141.456-48.78-51.166 0-72.417 48.78-106.678 48.78-11.579 0-36.18-13.317-56.832-13.317-24.603 0-47.08 28.471-93.682 28.471h.054c79.447 0 84.337 31.477 126.321 31.463 37.013 0 67.214-31.49 99.458-31.504 20.039 0 50.335.041 76.79.041 41.099 0 88.546 88.772 131.402 88.772 61.996-.014 74.46-88.84 184.434-88.854 70.66-.013 85.944 40.714 141.456 40.714 51.18-.014 72.43-40.74 106.677-40.74 11.58 0 42.87 13.303 63.535 13.303 24.602 0 83.015-13.317 137.873-13.317" id="Fill-1" fill="#008682" opacity=".666"/><path d="M0 153.71c84.52 0 100.018 64.76 164.808 64.76 55.798 0 102.57-43.835 136.179-43.835C368.617 174.635 416.7 325 481.317 325c64.617 0 101.616-150.365 216.225-150.365 73.643 0 89.567 67.872 147.424 67.872 53.338 0 75.47-67.872 111.17-67.872 12.062 0 37.702 18.524 59.249 18.524 25.628 0 49.06-39.621 97.615-39.621h-.057c-82.784 0-87.9-43.813-131.638-43.802-38.574 0-70.044 43.836-103.651 43.836-20.903.012-52.453-.046-80.024-.046-42.83 0-92.292-123.537-136.938-123.526-64.617.011-77.61 123.618-192.207 123.641-73.631.012-89.555-56.652-147.412-56.641-53.326 0-75.482 56.676-111.171 56.687-12.061 0-44.669-18.501-66.215-18.501-25.629 0-86.497 18.524-143.687 18.524" id="Fill-1" fill="#4BB649" opacity=".503"/></g></g></g></svg>