<svg width="303" height="389" xmlns="http://www.w3.org/2000/svg" xmlns:xlink="http://www.w3.org/1999/xlink"><defs><path id="path-1" d="M0 .786h237.996v286.899H0z"/><path id="path-3" d="M.374.48h227.982V346H.374z"/></defs><g id="Page-1" stroke="none" stroke-width="1" fill="none" fill-rule="evenodd"><g id="Home-upd-2021" transform="translate(-1087 -593)"><g id="Group-6" transform="translate(1047 593)"><g id="Group-17" transform="translate(40)"><path d="M176.785 297.221c17.571-22.083 41.206-52.615 54.045-72.685 2.219-3.485 1.189-8.136-2.305-10.357a7.442 7.442 0 00-5.658-.998 7.469 7.469 0 00-4.709 3.294c-12.19 19.064-35.64 49.327-53.167 71.366-3.818 4.8-7.02 8.809-9.73 12.17l-4.425 5.498-36.442-46.13c-2.567-3.24-7.288-3.794-10.54-1.233a7.461 7.461 0 00-2.802 5.015 7.451 7.451 0 001.566 5.524l42.24 53.464a7.463 7.463 0 005.013 2.802c2.013.223 3.955-.322 5.524-1.563a7.554 7.554 0 001.165-1.138l3.419-4.196.03.024c1.548-1.915 3.535-4.374 6.012-7.444a2209.72 2209.72 0 0010.764-13.413" id="Fill-1" fill="#05A6AE"/><path d="M157.102 225.582l-4.507 5.655-18.826-24.692c-13.936-19.005-31.277-42.648-25.365-65.7 3.54-13.809 12.295-24.387 24.658-29.78 6.972-3.04 14.86-4.334 22.842-3.734 7.964.599 15.571 3.056 22.004 7.107 11.363 7.16 18.404 18.903 19.833 33.074 2.132 21.2-19.348 51.361-40.639 78.07m55.694-79.53c-1.907-18.95-11.434-34.727-26.825-44.424-8.575-5.4-18.581-8.663-28.944-9.445a65.203 65.203 0 00-4.833-.183c-8.725 0-17.341 1.768-25.179 5.187-16.703 7.285-28.506 21.47-33.24 39.939-7.698 30.01 11.146 55.706 27.774 78.375l1.806 2.467c.165.224.324.422.497.608l.3.36 22.357 29.114c2.528 3.303 7.272 3.926 10.56 1.394a7.78 7.78 0 001.357-1.325l5.568-6.928c19.4-24.146 51.878-64.567 48.802-95.139" id="Fill-3" fill="#4BB649"/><path d="M82.826 216.266a340.948 340.948 0 01-2.822-4.64 222.243 222.243 0 01-2.733-4.674c-10.695-18.761-16.484-36.792-17.197-53.59-.415-9.71.926-19.248 3.885-28.55 10.047-.23 18.13-8.574 18.13-18.885C82.09 95.475 73.788 87 63.547 87 53.303 87 45 95.475 45 105.927c0 5.02 1.95 9.55 5.071 12.94-3.768 11.382-5.492 23.125-4.979 35.152.822 19.325 7.276 39.712 19.181 60.593.95 1.666 1.923 3.325 2.911 4.976.573.945 1.62 2.635 3.021 4.88 2.223 3.552 6.855 4.6 10.333 2.338 1.682-1.093 2.848-2.793 3.282-4.789a7.699 7.699 0 00-.994-5.751" id="Fill-5" fill="#008682"/><path d="M257.631 157.657c1.497-20.586-3.226-40.93-14.296-59.167-6.438-10.599-14.657-19.995-24.432-27.928-9.826-7.968-20.734-14.132-32.422-18.315-30.222-10.821-62.128-7.504-89.837 9.333a7.569 7.569 0 00-2.555 10.38 7.51 7.51 0 004.66 3.422 7.472 7.472 0 005.712-.873c14.522-8.823 30.414-13.292 46.51-13.292 10.149 0 20.38 1.775 30.407 5.362a95.214 95.214 0 0127.963 15.728c8.483 6.883 15.568 14.957 21.058 23.999 9.13 15.035 13.155 31.812 12.177 48.87-8.066 2.094-14.05 9.358-14.05 18.082 0 10.35 8.386 18.742 18.737 18.742C257.61 192 266 183.608 266 173.258c0-6.514-3.328-12.242-8.369-15.601" id="Fill-7" fill="#ED8D22"/><g id="Group-11"><mask id="mask-2" fill="#fff"><use xlink:href="#path-1"/></mask><path d="M219.334 9c-4.068 0-7.804 1.344-10.871 3.564C190.012 4.788 170.749.786 151.294.786c-10.548 0-21.144 1.155-31.693 3.489C91.994 10.374 66.49 24.144 45.837 44.1 24.83 64.392 10.294 89.748 3.802 117.423c-8.222 35.064-3.05 72.273 14.95 107.604 5.095 9.993 11.077 20.094 18.29 30.876 5.85 8.745 12.244 17.628 20.732 28.797 2.53 3.33 7.284 3.972 10.587 1.428a7.544 7.544 0 002.903-5.02 7.569 7.569 0 00-1.484-5.612c-8.476-11.16-14.709-19.797-20.2-28.008-6.983-10.443-12.679-20.04-17.415-29.334-16.328-32.028-21.034-65.68-13.613-97.311 5.82-24.82 18.875-47.58 37.75-65.817 18.606-17.973 41.584-30.381 66.453-35.874 26.39-5.832 53.074-3.414 78.104 6.708-.063.63-.188 1.242-.188 1.89 0 10.353 8.356 18.747 18.663 18.747 10.306 0 18.662-8.394 18.662-18.747 0-10.356-8.356-18.75-18.662-18.75" id="Fill-9" fill="#4BB649" mask="url(#mask-2)"/></g><g id="Group-14" transform="translate(74 43)"><mask id="mask-4" fill="#fff"><use xlink:href="#path-3"/></mask><path d="M206.529 31.391l-.985-1.63a132.563 132.563 0 00-1.745-2.79 150.5 150.5 0 00-2.867-4.223c-5.06-7.196-10.71-13.943-16.804-20.047-2.957-2.964-7.763-2.958-10.71 0-2.95 2.958-2.95 7.776 0 10.737 5.602 5.616 10.704 11.676 15.155 18.016.528.748 1.115 1.612 1.748 2.56l.558-.392 2.855 5.683c19.838 32.76 24.57 68.26 13.97 105.357a167.947 167.947 0 01-7.407 20.636c-2.939 6.777-6.444 13.695-10.42 20.559-13.607 23.474-58.583 83.304-89.185 118.669-6.298 7.282-11.846 13.363-16.491 18.088a217.31 217.31 0 01-2.766 2.763l-3.914 3.826-3.935-3.805c-5.328-5.15-12.506-13-21.33-23.327-5.155-6.033-10.832-12.92-16.87-20.421 1.405-2.626 2.273-5.578 2.273-8.766 0-10.324-8.347-18.69-18.642-18.69-10.299 0-18.643 8.366-18.643 18.69 0 10.321 8.344 18.69 18.643 18.69 1.548 0 3.028-.243 4.466-.602 6.05 7.504 11.92 14.619 17.308 20.92 18.78 21.98 28.24 30.057 32.867 32.964a7.503 7.503 0 008.147-.12l1.119-.774c3.213-2.288 7.261-5.91 12.04-10.764 4.821-4.908 10.588-11.23 17.133-18.8 31.106-35.954 76.92-96.953 90.777-120.864 4.287-7.405 8.046-14.834 11.238-22.191 3.303-7.615 6.044-15.202 8.147-22.556 11.775-41.189 6.48-80.684-15.73-117.396" id="Fill-12" fill="#008682" mask="url(#mask-4)"/></g><path d="M171 151.501c0 10.216-8.283 18.499-18.499 18.499-10.218 0-18.501-8.283-18.501-18.499 0-10.218 8.283-18.501 18.501-18.501 10.216 0 18.499 8.283 18.499 18.501" id="Fill-15" fill="#ED8D22"/></g></g></g></g></svg>