<svg width="56" height="58" xmlns="http://www.w3.org/2000/svg"><defs><filter id="filter-1"><feColorMatrix in="SourceGraphic" values="0 0 0 0 1.000000 0 0 0 0 1.000000 0 0 0 0 1.000000 0 0 0 1.000000 0"/></filter></defs><g id="Page-1" stroke="none" stroke-width="1" fill="none" fill-rule="evenodd"><g id="Group-23" transform="translate(-888 -538)" filter="url(#filter-1)"><g transform="translate(889 539)" stroke="#505050" stroke-width="2"><path d="M20 39c2.701 0 5-2.626 5-5.111v-11.5C25 18.169 16.843 16 12.5 16 8.158 16 0 18.168 0 22.389v11.5C0 36.374 2.299 39 5 39" id="Stroke-1"/><path d="M33.91 39c2.475 0 5.09-1.348 5.09-3.833V22.389C39 18.169 31.524 16 27.545 16H25" id="Stroke-3"/><path d="M13 13c2.914 0 5-2.123 5-5.2V5.2C18 2.123 15.914 0 13 0S8 2.123 8 5.2v2.6c0 3.077 2.086 5.2 5 5.2z" id="Stroke-5"/><path id="Stroke-7" d="M33.5 57V25"/><path id="Stroke-9" d="M20.5 57V25"/><path id="Stroke-11" d="M5.5 25v32"/><path id="Stroke-13" d="M12.5 38v19"/><path d="M28 13c2.914 0 5-2.123 5-5.2V5.2C33 2.123 30.914 0 28 0s-5 2.123-5 5.2v2.6c0 3.077 2.086 5.2 5 5.2z" id="Stroke-15"/><path d="M48.91 39c2.475 0 5.09-1.348 5.09-3.833V22.389C54 18.169 46.524 16 42.545 16H40" id="Stroke-17"/><path id="Stroke-19" d="M48.5 57V25"/><path d="M43 13c2.914 0 5-2.123 5-5.2V5.2C48 2.123 45.914 0 43 0s-5 2.123-5 5.2v2.6c0 3.077 2.086 5.2 5 5.2z" id="Stroke-21"/></g></g></g></svg>