<svg width="32" height="32" xmlns="http://www.w3.org/2000/svg"><g id="Page-1" stroke="none" stroke-width="1" fill="none" fill-rule="evenodd"><g id="Home-upd-2021" transform="translate(-744 -873)" stroke="#FFF" stroke-width="2"><g id="transportation" transform="translate(744 874)"><path d="M13.183 21.116L27.508 6.79A2.762 2.762 0 1023.6 2.884L9.276 17.209l-3.907-1.302-3.256 3.256 5.86 3.256 3.256 5.86 3.256-3.256-1.302-3.907z" id="Stroke-1"/><path id="Stroke-3" d="M14.485 12L5.369 2.884 7.973.279l11.07 7.162"/><path id="Stroke-5" d="M18.392 15.907l9.116 9.116 2.605-2.604-7.162-11.071"/><path id="Stroke-7" d="M9.707 20.684l-5 5"/><path id="Stroke-9" d="M23.707 26.684l-3 3"/><path id="Stroke-11" d="M20.707 23.684l-1.5 1.5"/><path id="Stroke-13" d="M3.707 6.684l-3 3"/><path id="Stroke-15" d="M6.707 9.684l-1.5 1.5"/></g></g></g></svg>