<svg width="54" height="54" xmlns="http://www.w3.org/2000/svg"><defs><filter id="filter-1"><feColorMatrix in="SourceGraphic" values="0 0 0 0 1.000000 0 0 0 0 1.000000 0 0 0 0 1.000000 0 0 0 1.000000 0"/></filter></defs><g id="Page-1" stroke="none" stroke-width="1" fill="none" fill-rule="evenodd"><g id="user-circle.1" transform="translate(-676 -334)" filter="url(#filter-1)"><g transform="translate(676 334)"><path id="Path" d="M0 0h54v54H0z"/><path d="M27.5 47h0C16.177 47 7 37.823 7 26.5h0C7 15.177 16.177 6 27.5 6h0C38.823 6 48 15.177 48 26.5h0C48 37.823 38.823 47 27.5 47z" id="Path" stroke="#323232" stroke-width="1.5" stroke-linecap="round" stroke-linejoin="round"/><path d="M30.536 17.464a5 5 0 11-7.072 7.072 5 5 0 017.072-7.072M37 37c-.486-3.397-3.111-6-6.299-6H24.3c-3.19 0-5.813 2.603-6.299 6" id="Path" stroke="#323232" stroke-width="1.5" stroke-linecap="round" stroke-linejoin="round"/></g></g></g></svg>