<svg width="35" height="35" xmlns="http://www.w3.org/2000/svg"><g id="Page-1" stroke="none" stroke-width="1" fill="none" fill-rule="evenodd" stroke-linecap="round" stroke-linejoin="round"><g id="Home-Page" transform="translate(-418 -1080)" stroke="#000" stroke-width="3"><g id="Group" transform="translate(419 1082)"><path d="M12.24 19.81a2.36 2.36 0 11-3.34 3.34 2.36 2.36 0 013.339-3.338" id="Path"/><path d="M13.641 11.741l1.593.532a.895.895 0 01.611.848v1.526c0 .867.693 1.576 1.56 1.595l1.445.03c.332.008.63.197.78.494l.75 1.5a.896.896 0 01-.167 1.032l-1.08 1.08a1.595 1.595 0 00-.024 2.23l.998 1.043a.89.89 0 01.202.9l-.532 1.592a.895.895 0 01-.847.612h-1.527c-.867 0-1.575.693-1.594 1.56l-.032 1.444a.893.893 0 01-.493.78l-1.5.75a.896.896 0 01-1.032-.166l-1.079-1.08a1.595 1.595 0 00-2.23-.025l-1.044.999a.89.89 0 01-.9.201l-1.592-.531a.895.895 0 01-.611-.848v-1.526c0-.867-.693-1.576-1.56-1.595l-1.443-.031a.893.893 0 01-.78-.493l-.75-1.5a.896.896 0 01.166-1.033l1.08-1.078a1.595 1.595 0 00.025-2.23l-.999-1.044a.89.89 0 01-.201-.9l.531-1.592a.895.895 0 01.848-.612h1.526c.867 0 1.576-.693 1.595-1.56l.031-1.445a.893.893 0 01.493-.78l1.501-.75a.896.896 0 011.032.167l1.078 1.08a1.595 1.595 0 002.23.025l1.044-1a.892.892 0 01.898-.2zm12.594 1.862l1.383-.371a.738.738 0 00.536-.594l.262-1.614c.077-.467.443-.834.91-.91l1.612-.262a.738.738 0 00.594-.537l.372-1.382a.737.737 0 00-.247-.763l-1.266-1.035c-.366-.3-.5-.8-.333-1.244l.582-1.532a.736.736 0 00-.169-.783l-1.012-1.01a.74.74 0 00-.784-.17l-2.272.862L24.868.38a.738.738 0 00-.762-.247l-1.383.372a.738.738 0 00-.537.594l-.262 1.614a1.103 1.103 0 01-.91.91l-1.612.262a.738.738 0 00-.594.537l-.371 1.382a.74.74 0 00.244.763L19.946 7.6c.366.3.5.8.332 1.244l-.582 1.532a.736.736 0 00.168.783l1.013 1.012a.74.74 0 00.783.169l1.534-.582a1.099 1.099 0 011.242.334l1.035 1.266a.742.742 0 00.764.246h0z" id="Path"/></g></g></g></svg>