<svg width="40" height="35" xmlns="http://www.w3.org/2000/svg"><g id="Page-1" stroke="none" stroke-width="1" fill="none" fill-rule="evenodd" stroke-linecap="round" stroke-linejoin="round"><g id="Home-Page" transform="translate(-1465 -1079)" stroke="#000" stroke-width="3"><g id="Group" transform="translate(1467 1081)"><path d="M2.7 27.353h1.26c2.114 0 4.18.635 5.94 1.823h0A10.619 10.619 0 0015.84 31h4.32a10.619 10.619 0 005.94-1.824h0a10.619 10.619 0 015.94-1.823h1.26c1.491 0 2.7-1.225 2.7-2.735 0 0 0 0 0 0h0c0-1.511-1.209-2.736-2.7-2.736H2.7h0c-1.491 0-2.7 1.225-2.7 2.736 0 0 0 0 0 0h0c0 1.51 1.209 2.735 2.7 2.735h0zM9 3.282v4.012h0c0 1.51 1.209 2.735 2.7 2.735h0c1.491 0 2.7-1.224 2.7-2.735V3.647h0C14.4 1.633 16.012 0 18 0h0c1.988 0 3.6 1.633 3.6 3.647v3.647h0c0 1.51 1.209 2.735 2.7 2.735h0c1.491 0 2.7-1.224 2.7-2.735 0 0 0 0 0 0V3.282" id="Path"/><path d="M21.118 1.824h.482c5.965 0 10.8 4.898 10.8 10.94v9.118M14.882 1.824H14.4h0c-5.965 0-10.8 4.898-10.8 10.94 0 0 0 0 0 0v9.118" id="Path"/></g></g></g></svg>