<svg width="38" height="37" xmlns="http://www.w3.org/2000/svg"><g id="Page-1" stroke="none" stroke-width="1" fill="none" fill-rule="evenodd" stroke-linecap="round" stroke-linejoin="round"><g id="Home-Page" transform="translate(-1255 -1079)" stroke="#000" stroke-width="3"><g id="Shield,-Protected,-Refresh" transform="translate(1257 1081)"><path d="M8 30a17.834 17.834 0 01-3-3M2 11a15.773 15.773 0 015-7M.477 16c0 2.108.38 4.12 1.046 6M29 2a3 3 0 11-.001 6.001A3 3 0 0129 2" id="Path"/><path d="M27 3c-2.63-1.893-5.802-3-9.22-3-1.664 0-3.267.267-4.78.753M13 32.3c1.498.452 3.087.7 4.735.7C26.719 33 34 25.77 34 16.85c0-.975-.101-1.924-.267-2.85M23 18.893C23 21.957 17.5 24 17.5 24S12 21.957 12 18.893v-6.168l4.008-1.462a4.351 4.351 0 012.98 0L23 12.725v6.168z" id="Path"/></g></g></g></svg>