<svg width="41" height="37" xmlns="http://www.w3.org/2000/svg"><g id="Page-1" stroke="none" stroke-width="1" fill="none" fill-rule="evenodd" stroke-linecap="round" stroke-linejoin="round"><g id="Home-Page" transform="translate(-835 -1079)" stroke="#000" stroke-width="3"><g id="Bezier,-Curve.2" transform="translate(837 1081)"><path id="Path" d="M15 17H5m-2 3h0c-1.656 0-3-1.344-3-3h0c0-1.656 1.344-3 3-3h0c1.656 0 3 1.344 3 3h0c0 1.656-1.344 3-3 3zm17.286 0h-2.572A1.715 1.715 0 0116 18.286v-2.572c0-.946.768-1.714 1.714-1.714h2.572c.946 0 1.714.768 1.714 1.714v2.572c0 .946-.768 1.714-1.714 1.714zm-13 13H4.714A1.715 1.715 0 013 31.286v-2.572C3 27.768 3.768 27 4.714 27h2.572C8.232 27 9 27.768 9 28.714v2.572C9 32.232 8.232 33 7.286 33zM29.714 0h2.572C33.232 0 34 .768 34 1.714v2.572C34 5.232 33.232 6 32.286 6h-2.572A1.715 1.715 0 0128 4.286V1.714C28 .768 28.766 0 29.714 0zM31 6c-.423 4.863-4.094 8.851-9 10m0 0h10m2-3h0c1.656 0 3 1.344 3 3h0c0 1.656-1.344 3-3 3h0c-1.656 0-3-1.344-3-3h0c0-1.656 1.344-3 3-3zM6 27c.423-4.863 4.094-8.851 9-10"/></g></g></g></svg>