<svg width="1920" height="727" xmlns="http://www.w3.org/2000/svg" xmlns:xlink="http://www.w3.org/1999/xlink"><defs><path id="path-1" d="M0 .825h146.37v488.662H0z"/><path id="path-3" d="M.004.543H511.76V123H.004z"/><path id="path-5" d="M.528.346h538.097v495.473H.528z"/><path id="path-7" d="M.525.016H552.03V123H.525z"/></defs><g id="Page-1" stroke="none" stroke-width="1" fill="none" fill-rule="evenodd"><g id="Home-Page" transform="translate(1 -2788)"><g id="Group-17" transform="translate(-1 2788)"><g id="Group-3" transform="translate(0 5)"><mask id="mask-2" fill="#fff"><use xlink:href="#path-1"/></mask><path d="M85.335 489.487H61.041c-33.71 0-61.042-27.279-61.042-60.933V61.757C-.001 28.103 27.33.825 61.04.825h24.294c33.71 0 61.036 27.278 61.036 60.932v366.797c0 33.654-27.325 60.933-61.036 60.933" id="Fill-1" fill="#FEFEFE" mask="url(#mask-2)"/></g><g id="Group-6" transform="translate(0 603)"><mask id="mask-4" fill="#fff"><use xlink:href="#path-3"/></mask><path d="M61.207.587L450.535.543c33.814-.007 61.224 27.4 61.224 61.204v.043c0 33.81-27.403 61.21-61.217 61.21H61.214C27.407 123 .004 95.6.004 61.79.004 27.994 27.407.587 61.207.587" id="Fill-4" fill="#FEFEFE" mask="url(#mask-4)"/></g><path d="M724.737 464c48.752 0 82.658 48.684 65.95 94.694l-43.58 120.044c-12.329 33.97-48.393 54.335-85.284 44.99-42.717-10.81-63.424-57.63-47.435-98.877l44.932-115.918C669.83 481.842 695.801 464 724.737 464" id="Fill-7" fill="#FEFEFE"/><path d="M1198.018 726h-3.519c-29.902 0-56.69-18.507-67.262-46.48L948.192 206c-4.77-12.616-22.647-12.508-27.265.16L882.34 311.939c-9.74 26.715-35.148 44.492-63.584 44.492-47.628 0-80.356-47.874-63.078-92.251l74.626-191.592c20.681-53.092 78.31-84.194 136.656-68.527 35.423 9.517 63.172 37.266 76.8 71.317l221.016 551.983c18.918 47.238-15.87 98.639-66.757 98.639" id="Fill-9" fill="#FEFEFE"/><g id="Group-13" transform="translate(1367)"><mask id="mask-6" fill="#fff"><use xlink:href="#path-5"/></mask><path d="M85.397 495.82H62.18c-34.052 0-61.653-27.61-61.653-61.67V61.498C.528 27.718 27.898.342 61.661.342h415.832c33.762 0 61.132 27.377 61.132 61.156v.498c0 33.772-27.37 61.15-61.132 61.15h-316.04c-7.953 0-14.397 6.452-14.397 14.414v132.11c0 7.962 6.444 14.408 14.397 14.408H450.26c33.762 0 61.132 27.377 61.132 61.148v.015c0 33.772-27.37 61.149-61.132 61.149H161.453c-7.953 0-14.397 6.452-14.397 14.4v13.36c0 34.06-27.608 61.67-61.66 61.67" id="Fill-11" fill="#FEFEFE" mask="url(#mask-6)"/></g><g id="Group-16" transform="translate(1367 603)"><mask id="mask-8" fill="#fff"><use xlink:href="#path-7"/></mask><path d="M551.715 68.078c-3.183 31.872-32.299 54.923-64.251 54.923H61.608C27.873 123.001.525 95.587.525 61.77.525 27.633 28.155-.027 62.207.016l428.735.52c35.814 0 64.432 30.896 60.773 67.542" id="Fill-14" fill="#FEFEFE" mask="url(#mask-8)"/></g></g></g></g></svg>