<svg width="278" height="44" xmlns="http://www.w3.org/2000/svg"><g id="Page-1" stroke="none" stroke-width="1" fill="none" fill-rule="evenodd"><g id="Home-Page" transform="translate(-345 -3894)"><g id="Group-77" transform="translate(345 3894)"><path d="M5.066 29.413H3.624A3.623 3.623 0 010 25.789V3.977A3.624 3.624 0 013.624.353h1.442A3.625 3.625 0 018.69 3.977v21.812a3.624 3.624 0 01-3.624 3.624" id="Fill-1" fill="#4C4C58"/><path d="M3.623 35.788l23.047-.002a3.624 3.624 0 013.625 3.623v.002a3.624 3.624 0 01-3.624 3.624H3.623a3.623 3.623 0 010-7.246" id="Fill-3" fill="#AD342A"/><path d="M42.98 27.505c2.903 0 4.922 2.886 3.928 5.613l-2.596 7.116a4.267 4.267 0 01-5.079 2.667c-2.544-.641-3.777-3.416-2.825-5.861l2.676-6.871a4.179 4.179 0 013.896-2.664" id="Fill-5" fill="#32A1C0"/><path d="M70.956 43.036h-.208a4.263 4.263 0 01-3.988-2.755L56.147 12.21c-.283-.747-1.342-.741-1.616.01l-2.287 6.27a4.014 4.014 0 01-3.77 2.638c-2.823 0-4.764-2.838-3.74-5.468L49.16 4.303a6.764 6.764 0 018.1-4.062c2.1.564 3.745 2.21 4.553 4.228l13.102 32.719c1.12 2.8-.941 5.848-3.958 5.848" id="Fill-7" fill="#4C4C58"/><path d="M86.083 29.374h-1.376a3.656 3.656 0 01-3.657-3.656V3.625A3.625 3.625 0 0184.675 0h24.66a3.625 3.625 0 013.625 3.625v.03a3.625 3.625 0 01-3.625 3.625H90.593a.855.855 0 00-.854.855v7.832c0 .472.383.854.854.854h17.127a3.625 3.625 0 013.625 3.625v.001a3.625 3.625 0 01-3.625 3.625H90.593a.855.855 0 00-.854.854v.792a3.656 3.656 0 01-3.656 3.656" id="Fill-9" fill="#78B454"/><path d="M113.763 39.784c-.19 1.888-1.917 3.252-3.813 3.252H84.676a3.625 3.625 0 01-3.625-3.625 3.655 3.655 0 013.66-3.656l25.445.03a3.625 3.625 0 013.607 3.999" id="Fill-11" fill="#4C4C58"/><path d="M130.977 11.791h5.502c.12 0 .206-.039.256-.116.05-.077.075-.203.075-.38v-.264c0-.176-.025-.303-.075-.38-.05-.076-.135-.115-.256-.115h-4.544V.556c0-.243-.22-.364-.661-.364h-.132c-.44 0-.661.121-.661.364v10.74c0 .177.038.303.116.38.077.076.204.115.38.115" id="Fill-13" fill="#010202"/><path d="M143.418 11.89c1.443 0 2.555-.332 3.337-1 .783-.665 1.174-1.6 1.174-2.8V.558c0-.243-.22-.364-.66-.364h-.133c-.44 0-.66.12-.66.364V8.14c0 .473-.134.9-.398 1.28s-.628.677-1.09.892c-.463.215-.986.322-1.57.322-.584 0-1.107-.104-1.57-.314a2.596 2.596 0 01-1.09-.884 2.218 2.218 0 01-.397-1.296V.557c0-.243-.22-.364-.66-.364h-.133c-.44 0-.66.12-.66.364V8.09c0 1.2.388 2.134 1.164 2.8.777.667 1.892 1 3.346 1" id="Fill-15" fill="#010202"/><path d="M161.742.192h-.545c-.353 0-.584.1-.694.297l-3.04 5.37c-.254.452-.425.816-.513 1.091a4.009 4.009 0 00-.43-1.04L153.399.49c-.111-.199-.342-.298-.694-.298h-.595c-.441 0-.661.122-.661.364v10.905c0 .242.22.363.66.363h.117c.44 0 .66-.12.66-.363V3.414c0-.408-.01-.71-.032-.909l.066-.017c.165.331.297.58.396.744l2.94 5.122a.384.384 0 00.365.215h.66a.383.383 0 00.364-.215l2.892-5.022c.099-.166.23-.413.396-.744l.066.017a9.036 9.036 0 00-.033.908v7.948c0 .242.22.363.66.363h.117c.44 0 .66-.12.66-.363V.556c0-.242-.22-.364-.66-.364" id="Fill-17" fill="#010202"/><path d="M166.814 11.824h.132c.441 0 .661-.12.661-.363V.556c0-.242-.22-.364-.66-.364h-.133c-.44 0-.66.122-.66.364v10.905c0 .242.22.363.66.363" id="Fill-19" fill="#010202"/><path d="M172.035 11.824h.116c.44 0 .66-.12.66-.363V3.712c0-.496-.01-.87-.032-1.124l.066-.016a6.7 6.7 0 00.545.991l5.32 8.03c.099.154.292.231.579.231h.33c.44 0 .66-.12.66-.363V.556c0-.242-.22-.364-.66-.364h-.116c-.44 0-.66.122-.66.364V8.19c0 .496.01.87.033 1.124l-.067.016a6.751 6.751 0 00-.545-.99L173.076.505a.619.619 0 00-.272-.248 1.114 1.114 0 00-.422-.066h-.347c-.44 0-.661.122-.661.364V11.46c0 .242.22.363.66.363" id="Fill-21" fill="#010202"/><path d="M187.22 2.67c.076-.197.158-.517.247-.957h.033c.077.462.143.782.198.958l1.735 4.924h-3.949l1.735-4.924zm-3.884 9.154h.083c.385 0 .605-.088.66-.264l.942-2.71h4.858l.975 2.71c.055.176.275.264.661.264h.132c.473 0 .71-.093.71-.28a.549.549 0 00-.049-.215L188.392.457c-.044-.176-.264-.265-.66-.265h-.48c-.375 0-.595.089-.66.265l-3.917 10.855a.792.792 0 00-.049.232c0 .187.236.28.71.28z" id="Fill-23" fill="#010202"/><path d="M196.274 1.48h2.065c.694 0 1.239.16 1.636.48.397.32.595.805.595 1.455 0 .363-.094.699-.281 1.007a2.117 2.117 0 01-.768.744 2.095 2.095 0 01-1.066.28h-2.181V1.482zm-.793 10.344h.132c.44 0 .66-.121.66-.363V6.7h1.488c.672 0 1.19.114 1.553.34.363.226.667.653.909 1.28l1.256 3.239c.033.077.109.14.23.19.122.05.265.074.43.074h.166c.462 0 .694-.088.694-.264a.796.796 0 00-.05-.231l-1.29-3.255c-.241-.628-.47-1.102-.684-1.421-.215-.32-.482-.534-.802-.645v-.066c.606-.242 1.074-.597 1.405-1.065.33-.468.495-1.044.495-1.727 0-1.013-.333-1.754-1-2.222-.666-.468-1.66-.702-2.982-.702h-2.775c-.177 0-.304.038-.38.115-.078.078-.116.204-.116.38v10.74c0 .242.22.363.66.363z" id="Fill-25" fill="#010202"/><path d="M207.674 5.86v5.6c0 .243.22.364.661.364h.132c.44 0 .661-.121.661-.363V5.909l3.47-5.138c.088-.121.132-.221.132-.298 0-.088-.049-.154-.149-.197-.099-.044-.264-.072-.495-.083h-.116c-.397 0-.645.077-.744.23l-2.776 4.082L205.741.44a.475.475 0 00-.264-.2 1.625 1.625 0 00-.447-.048h-.181c-.507 0-.76.093-.76.28 0 .077.043.177.132.298l3.453 5.089z" id="Fill-27" fill="#010202"/><path d="M131.935 23.167l1.735-4.923c.077-.2.16-.518.247-.96h.034c.077.464.143.783.198.96l1.735 4.923h-3.949zm2.908-7.138c-.044-.175-.264-.264-.66-.264h-.48c-.375 0-.595.089-.66.264l-3.917 10.856a.794.794 0 00-.049.23c0 .189.236.282.71.282h.083c.385 0 .605-.088.66-.264l.942-2.71h4.858l.975 2.71c.055.176.275.264.661.264h.132c.473 0 .71-.093.71-.281a.553.553 0 00-.049-.215l-3.916-10.872z" id="Fill-29" fill="#010202"/><path d="M149.4 15.765h-.132c-.441 0-.661.122-.661.363v7.584c0 .474-.133.901-.397 1.281-.264.38-.628.677-1.09.892-.463.215-.986.322-1.57.322-.584 0-1.107-.104-1.57-.314a2.589 2.589 0 01-1.09-.884 2.218 2.218 0 01-.397-1.297v-7.584c0-.24-.22-.363-.661-.363h-.132c-.441 0-.661.122-.661.363v7.534c0 1.202.389 2.135 1.165 2.802.777.666 1.892 1 3.346 1 1.443 0 2.555-.334 3.337-1 .783-.667 1.174-1.6 1.174-2.802v-7.534c0-.24-.221-.363-.661-.363" id="Fill-31" fill="#010202"/><path d="M160.503 15.798h-7.75c-.11 0-.192.039-.247.116-.055.077-.083.204-.083.38v.264c0 .177.028.303.083.38.055.077.138.116.247.116h3.173v9.98c0 .242.22.363.66.363h.133c.44 0 .66-.121.66-.363v-9.98h3.124c.12 0 .207-.04.256-.115.05-.078.075-.204.075-.381v-.264c0-.176-.025-.303-.075-.38-.05-.077-.135-.116-.256-.116" id="Fill-33" fill="#010202"/><path d="M167.525 26.207c-1.167 0-2.057-.396-2.668-1.189-.612-.794-.917-1.95-.917-3.47 0-1.508.305-2.652.917-3.428.61-.777 1.5-1.166 2.668-1.166 1.167 0 2.06.389 2.677 1.165.616.776.925 1.92.925 3.43 0 1.518-.31 2.675-.925 3.47-.617.793-1.51 1.189-2.677 1.189m3.8-.256c.87-1.009 1.305-2.477 1.305-4.404s-.435-3.384-1.305-4.37c-.87-.986-2.137-1.479-3.8-1.479-1.664 0-2.927.493-3.792 1.478-.865.986-1.297 2.444-1.297 4.372 0 1.927.435 3.395 1.305 4.402.87 1.008 2.132 1.511 3.784 1.511 1.663 0 2.93-.503 3.8-1.51" id="Fill-35" fill="#010202"/><path d="M185.204 18.161l.066.016a9.059 9.059 0 00-.033.91v7.947c0 .242.22.363.66.363h.117c.44 0 .66-.12.66-.363V16.128c0-.24-.22-.363-.66-.363h-.545c-.353 0-.584.1-.695.297l-3.04 5.37c-.253.452-.424.815-.512 1.09a3.972 3.972 0 00-.43-1.04l-3.122-5.42c-.111-.198-.342-.297-.695-.297h-.594c-.441 0-.661.122-.661.363v10.906c0 .242.22.363.66.363h.116c.44 0 .662-.12.662-.363v-8.047c0-.408-.012-.71-.034-.909l.067-.017c.165.331.297.58.396.744l2.94 5.122a.385.385 0 00.365.215h.66a.385.385 0 00.364-.215l2.892-5.023c.099-.165.23-.413.396-.743" id="Fill-37" fill="#010202"/><path d="M191.879 23.167l1.735-4.923c.077-.2.16-.518.248-.96h.033c.077.464.143.783.198.96l1.735 4.923h-3.95zm2.908-7.138c-.044-.175-.264-.264-.661-.264h-.48c-.373 0-.594.089-.66.264l-3.916 10.856a.794.794 0 00-.05.23c0 .189.237.282.71.282h.084c.385 0 .606-.088.66-.264l.943-2.71h4.857l.975 2.71c.055.176.275.264.66.264h.133c.474 0 .71-.093.71-.281a.555.555 0 00-.05-.215l-3.915-10.872z" id="Fill-39" fill="#010202"/><path d="M202.784 27.034c0 .242.22.363.66.363h.133c.44 0 .66-.121.66-.363v-9.98h3.124c.12 0 .206-.04.256-.115.049-.077.074-.204.074-.381v-.264c0-.176-.025-.302-.074-.38-.05-.077-.135-.116-.256-.116h-7.75c-.11 0-.192.039-.247.116-.056.078-.083.204-.083.38v.264c0 .177.027.304.083.38.055.077.137.116.248.116h3.172v9.98z" id="Fill-41" fill="#010202"/><path d="M211.078 15.765h-.132c-.44 0-.66.122-.66.363v10.906c0 .242.22.363.66.363h.132c.44 0 .661-.12.661-.363V16.128c0-.24-.22-.363-.66-.363" id="Fill-43" fill="#010202"/><path d="M217.381 25.018c-.611-.793-.917-1.95-.917-3.47 0-1.509.306-2.652.917-3.428.612-.777 1.501-1.165 2.669-1.165 1.167 0 2.059.388 2.676 1.165.617.776.926 1.919.926 3.428 0 1.52-.309 2.677-.926 3.47-.617.793-1.509 1.189-2.676 1.189-1.168 0-2.057-.396-2.669-1.189m6.469.933c.87-1.008 1.305-2.475 1.305-4.403 0-1.927-.435-3.384-1.305-4.37-.87-.986-2.137-1.479-3.8-1.479-1.664 0-2.928.493-3.792 1.479-.865.986-1.297 2.443-1.297 4.37 0 1.928.435 3.395 1.305 4.403.87 1.008 2.132 1.512 3.784 1.512 1.663 0 2.93-.504 3.8-1.512" id="Fill-45" fill="#010202"/><path d="M229.682 19.284c0-.496-.011-.87-.033-1.123l.066-.017c.176.386.358.717.546.992l5.32 8.03c.099.154.29.231.578.231h.33c.44 0 .662-.12.662-.363V16.128c0-.24-.221-.363-.661-.363h-.116c-.441 0-.661.122-.661.363v7.634c0 .496.01.87.033 1.124l-.066.016a6.808 6.808 0 00-.545-.992l-5.188-7.83a.615.615 0 00-.273-.249 1.108 1.108 0 00-.421-.066h-.347c-.441 0-.661.122-.661.363v10.906c0 .242.22.363.66.363h.116c.44 0 .66-.12.66-.363v-7.75z" id="Fill-47" fill="#010202"/><path d="M246.981 23.167l1.735-4.923c.077-.2.16-.518.248-.96h.033c.077.464.143.783.198.96l1.735 4.923h-3.949zm2.908-7.138c-.044-.175-.264-.264-.66-.264h-.48c-.374 0-.595.089-.66.264l-3.917 10.856a.794.794 0 00-.049.23c0 .189.236.282.71.282h.083c.385 0 .606-.088.661-.264l.941-2.71h4.858l.975 2.71c.055.176.275.264.661.264h.132c.473 0 .711-.093.711-.281a.555.555 0 00-.05-.215l-3.916-10.872z" id="Fill-49" fill="#010202"/><path d="M264.446 15.765h-.116c-.441 0-.661.122-.661.363v7.634c0 .496.011.87.033 1.124l-.066.016a6.74 6.74 0 00-.545-.99l-5.188-7.833a.615.615 0 00-.273-.248 1.108 1.108 0 00-.421-.066h-.347c-.441 0-.661.122-.661.363v10.906c0 .242.22.363.661.363h.115c.441 0 .661-.12.661-.363v-7.75c0-.496-.011-.87-.033-1.123l.067-.017c.175.386.357.717.545.992l5.32 8.03c.099.154.292.231.578.231h.331c.44 0 .661-.12.661-.363V16.128c0-.24-.221-.363-.661-.363" id="Fill-51" fill="#010202"/><path d="M275.268 25.018c-.683.727-1.581 1.09-2.693 1.09h-2.264v-9.054h2.264c1.112 0 2.01.366 2.693 1.099.683.732 1.024 1.875 1.024 3.428 0 1.564-.341 2.71-1.024 3.437m1.132-7.84c-.931-.92-2.168-1.38-3.71-1.38h-3.337c-.176 0-.303.039-.38.116-.077.077-.116.204-.116.38v10.574c0 .176.039.303.116.38.077.078.204.116.38.116h3.337c1.542 0 2.779-.457 3.71-1.371.93-.914 1.396-2.385 1.396-4.412 0-2.016-.465-3.483-1.396-4.403" id="Fill-53" fill="#010202"/><path d="M136.776 41.681h-4.825V37.65h4.313c.121 0 .206-.038.256-.115.049-.078.074-.205.074-.38v-.265c0-.176-.025-.303-.074-.38-.05-.077-.135-.115-.256-.115h-4.313v-3.768h4.808c.121 0 .207-.038.257-.115.049-.077.074-.204.074-.38v-.264c0-.177-.025-.303-.074-.38-.05-.077-.136-.117-.257-.117h-5.766c-.176 0-.303.04-.38.116-.077.078-.115.204-.115.381v10.574c0 .176.038.302.115.38.077.077.204.116.38.116h5.783c.121 0 .207-.039.256-.116.05-.078.075-.204.075-.38v-.265c0-.176-.025-.303-.075-.38-.049-.077-.135-.115-.256-.115" id="Fill-55" fill="#010202"/><path d="M148.292 31.337h-.116c-.44 0-.66.122-.66.363v7.634c0 .496.01.87.033 1.124l-.067.017a6.81 6.81 0 00-.544-.992l-5.189-7.832a.613.613 0 00-.272-.248 1.114 1.114 0 00-.422-.066h-.347c-.44 0-.66.122-.66.363v10.906c0 .242.22.363.66.363h.116c.44 0 .661-.12.661-.363v-7.749c0-.497-.01-.87-.033-1.124l.066-.017c.176.387.357.717.545.992l5.32 8.03c.1.155.292.231.58.231h.33c.44 0 .66-.12.66-.363V31.7c0-.24-.22-.363-.66-.363" id="Fill-57" fill="#010202"/><path d="M160.337 36.972h-2.89c-.11 0-.194.038-.249.115-.055.077-.083.204-.083.38v.265c0 .176.028.302.083.38.055.077.138.116.248.116h1.933v3.337a5.452 5.452 0 01-.934.157c-.39.04-.79.058-1.197.058-1.367 0-2.325-.42-2.876-1.264-.55-.843-.826-1.98-.826-3.412 0-1.509.298-2.649.893-3.42.594-.772 1.591-1.157 2.99-1.157a4.38 4.38 0 012.14.52c.247.14.388.207.421.207.1 0 .218-.12.355-.363.138-.242.207-.44.207-.596 0-.142-.152-.297-.454-.462-.303-.165-.7-.299-1.19-.405a7.263 7.263 0 00-1.512-.156c-3.569 0-5.353 1.993-5.353 5.98 0 1.94.435 3.388 1.305 4.346.87.958 2.137 1.437 3.8 1.437 1.08 0 1.963-.09 2.652-.272.688-.182 1.033-.487 1.033-.917v-4.379c0-.176-.039-.303-.116-.38-.077-.077-.204-.115-.38-.115" id="Fill-59" fill="#010202"/><path d="M165.26 31.337h-.131c-.441 0-.661.122-.661.363v10.906c0 .242.22.363.66.363h.133c.44 0 .66-.12.66-.363V31.7c0-.24-.22-.363-.66-.363" id="Fill-61" fill="#010202"/><path d="M177.934 31.337h-.116c-.44 0-.66.122-.66.363v7.634c0 .496.01.87.032 1.124l-.066.017a6.714 6.714 0 00-.545-.992l-5.188-7.832a.613.613 0 00-.272-.248 1.114 1.114 0 00-.422-.066h-.347c-.44 0-.661.122-.661.363v10.906c0 .242.22.363.66.363h.117c.44 0 .66-.12.66-.363v-7.749c0-.497-.01-.87-.032-1.124l.066-.017c.176.387.357.717.545.992l5.32 8.03c.099.155.292.231.578.231h.33c.44 0 .662-.12.662-.363V31.7c0-.24-.221-.363-.661-.363" id="Fill-63" fill="#010202"/><path d="M188.64 41.681h-4.825V37.65h4.313c.121 0 .206-.038.256-.115.05-.078.074-.205.074-.38v-.265c0-.176-.025-.303-.074-.38-.05-.077-.135-.115-.256-.115h-4.313v-3.768h4.808c.121 0 .207-.038.257-.115.05-.077.074-.204.074-.38v-.264c0-.177-.025-.303-.074-.38-.05-.077-.136-.117-.257-.117h-5.766c-.176 0-.303.04-.38.116-.077.078-.116.204-.116.381v10.574c0 .176.04.302.116.38.077.077.204.116.38.116h5.783c.121 0 .207-.039.256-.116.05-.078.075-.204.075-.38v-.265c0-.176-.025-.303-.075-.38-.049-.077-.135-.115-.256-.115" id="Fill-65" fill="#010202"/><path d="M198.322 41.681h-4.825V37.65h4.313c.121 0 .206-.038.256-.115.05-.078.074-.205.074-.38v-.265c0-.176-.025-.303-.074-.38-.05-.077-.135-.115-.256-.115h-4.313v-3.768h4.808c.121 0 .207-.038.257-.115.05-.077.074-.204.074-.38v-.264c0-.177-.025-.303-.074-.38-.05-.077-.136-.117-.257-.117h-5.766c-.176 0-.303.04-.38.116-.077.078-.116.204-.116.381v10.574c0 .176.04.302.116.38.077.077.204.116.38.116h5.783c.121 0 .207-.039.256-.116.05-.078.075-.204.075-.38v-.265c0-.176-.025-.303-.075-.38-.049-.077-.135-.115-.256-.115" id="Fill-67" fill="#010202"/><path d="M206.41 36.311a2.1 2.1 0 01-1.066.281h-2.18v-3.966h2.064c.695 0 1.24.16 1.636.48.397.319.595.804.595 1.454 0 .363-.094.699-.28 1.008a2.115 2.115 0 01-.769.743zm2.14 2.908c-.243-.628-.472-1.101-.686-1.421-.215-.319-.482-.534-.802-.644v-.067c.606-.242 1.075-.597 1.405-1.065.33-.469.496-1.044.496-1.727 0-1.013-.334-1.754-1-2.222-.667-.468-1.66-.702-2.982-.702h-2.776c-.176 0-.303.039-.38.115-.078.078-.116.204-.116.381v10.739c0 .242.221.363.661.363h.132c.441 0 .661-.121.661-.363v-4.759h1.487c.672 0 1.19.113 1.553.339.364.227.666.652.91 1.281l1.255 3.239c.033.077.11.139.231.189.121.05.265.074.43.074h.165c.463 0 .694-.088.694-.263a.794.794 0 00-.05-.232l-1.288-3.255z" id="Fill-69" fill="#010202"/><path d="M213.242 31.337h-.132c-.44 0-.66.122-.66.363v10.906c0 .242.22.363.66.363h.132c.44 0 .661-.12.661-.363V31.7c0-.24-.22-.363-.66-.363" id="Fill-71" fill="#010202"/><path d="M225.915 31.337h-.116c-.44 0-.66.122-.66.363v7.634c0 .496.01.87.033 1.124l-.067.017a6.714 6.714 0 00-.545-.992l-5.187-7.832a.62.62 0 00-.273-.248 1.114 1.114 0 00-.422-.066h-.347c-.44 0-.661.122-.661.363v10.906c0 .242.22.363.66.363h.117c.44 0 .66-.12.66-.363v-7.749c0-.497-.01-.87-.032-1.124l.066-.017c.176.387.358.717.545.992l5.32 8.03c.099.155.292.231.579.231h.33c.44 0 .66-.12.66-.363V31.7c0-.24-.22-.363-.66-.363" id="Fill-73" fill="#010202"/><path d="M237.96 36.972h-2.891c-.111 0-.193.038-.248.115-.055.077-.083.204-.083.38v.265c0 .176.028.302.083.38.055.077.137.116.248.116h1.933v3.337a5.47 5.47 0 01-.934.157c-.391.04-.79.058-1.198.058-1.366 0-2.324-.42-2.874-1.264-.552-.843-.827-1.98-.827-3.412 0-1.509.297-2.649.893-3.42.594-.772 1.59-1.157 2.99-1.157a4.38 4.38 0 012.14.52c.247.14.388.207.42.207.1 0 .219-.12.356-.363.138-.242.207-.44.207-.596 0-.142-.152-.297-.455-.462-.302-.165-.7-.299-1.19-.405a7.263 7.263 0 00-1.511-.156c-3.57 0-5.353 1.993-5.353 5.98 0 1.94.435 3.388 1.305 4.346.87.958 2.137 1.437 3.8 1.437 1.08 0 1.963-.09 2.652-.272.688-.182 1.033-.487 1.033-.917v-4.379c0-.176-.04-.303-.116-.38-.077-.077-.204-.115-.38-.115" id="Fill-75" fill="#010202"/></g></g></g></svg>