<svg width="32" height="37" xmlns="http://www.w3.org/2000/svg"><g id="Page-1" stroke="none" stroke-width="1" fill="none" fill-rule="evenodd" stroke-linecap="round" stroke-linejoin="round"><g id="Home-Page" transform="translate(-629 -1079)" stroke="#000" stroke-width="3"><g id="measure-ruler" transform="translate(631 1081)"><path d="M25 21h0a17.988 17.988 0 002-2M0 19h0a17.9 17.9 0 002 2m9-15.002V2.671h0C11 1.196 12.12 0 13.5 0h0C14.88 0 16 1.196 16 2.67V6" id="Path"/><circle id="Oval" cx="14.5" cy="10.5" r="5.5"/><path d="M15.594 15.262L24.464 33H28v-7L19.064 8.13h0A5.663 5.663 0 0014 5h0a5.663 5.663 0 00-5.065 3.13L0 26v7h3.5l8.869-17.738" id="Path"/><path d="M18 23.261h0c-3.584.65-7.418.648-11-.008M12.45 10.5h0a.05.05 0 10.05-.05s0 0 0 0h0a.05.05 0 00-.05.05s0 0 0 0" id="Path"/></g></g></g></svg>