<svg width="56" height="56" viewBox="0 0 56 56" fill="none" xmlns="http://www.w3.org/2000/svg">
<g clip-path="url(#clip0_30_510)">
<path d="M51.5859 24.0766L54.7364 23.1755C52.5538 15.5458 46.8176 9.30285 39.3921 6.47583L38.2263 9.53811C44.6917 11.9995 49.686 17.4344 51.5859 24.0766Z" fill="#0303AD"/>
<path d="M52.7233 29.9599C52.7233 42.2267 42.7436 52.2064 30.4769 52.2064C23.7097 52.2064 17.6396 49.1683 13.5559 44.3853H18.5294C21.775 47.078 25.94 48.6989 30.4769 48.6989C40.8097 48.6989 49.2159 40.2926 49.2159 29.9599C49.2159 19.6273 40.8096 11.2209 30.4769 11.2209C30.066 11.2209 29.6585 11.2357 29.254 11.2618L33.8982 6.10153L29.1114 0.516846L26.6235 2.64922L28.2396 4.53474C22.5953 5.02178 17.3321 7.3471 13.1504 11.2208H0V14.4975H10.1674C7.11408 18.4909 5.32536 23.2644 5.00708 28.3215H1.63844V31.5982H5.00708C5.21741 34.9398 6.06977 38.1575 7.50487 41.1085H0V44.3852H9.415C10.2982 45.6688 11.3039 46.8819 12.4294 48.0074C14.0941 49.672 15.9484 51.0783 17.9434 52.2063H6.59214V55.4829H30.4769C37.2944 55.4829 43.7038 52.8281 48.5244 48.0074C53.3451 43.1869 56 36.7774 56 29.9599H52.7233ZM45.8524 28.3216H41.8299V31.5983H45.8524C45.0885 38.8183 39.3353 44.5716 32.1152 45.3354V41.4822H28.8386V45.3354C21.6185 44.5716 15.8653 38.8183 15.1014 31.5983H19.1239V28.3216H15.1014C15.8653 21.1015 21.6185 15.3483 28.8386 14.5844V18.4378H32.1152V14.5844C39.3354 15.3483 45.0885 21.1014 45.8524 28.3216ZM8.23047 29.9599C8.23047 18.5632 16.8453 9.14238 27.9046 7.86313L26.6497 9.25744L28.9053 11.2874C19.3053 12.0885 11.7379 20.1565 11.7379 29.9599C11.7379 34.1328 13.1095 37.991 15.4246 41.1086H11.2319C9.32444 37.8287 8.23047 34.0198 8.23047 29.9599Z" fill="#0303AD"/>
<path d="M38.5403 20.7024L33.0647 26.1779C32.2983 25.6592 31.3749 25.3559 30.3818 25.3559C29.707 25.3559 29.0647 25.4965 28.4817 25.749L25.5781 22.8454L23.2612 25.1623L26.097 27.998C25.7691 28.6468 25.5832 29.379 25.5832 30.1543C25.5832 32.8001 27.7359 34.9526 30.3818 34.9526C33.0277 34.9526 35.1803 32.8 35.1803 30.1543C35.1803 29.71 35.1182 29.2801 35.0047 28.8715L40.8572 23.0192L38.5403 20.7024ZM30.3818 31.6762C29.5425 31.6762 28.8598 30.9936 28.8598 30.1545C28.8598 29.3153 29.5425 28.6326 30.3818 28.6326C31.2209 28.6326 31.9036 29.3153 31.9036 30.1545C31.9036 30.9936 31.2209 31.6762 30.3818 31.6762Z" fill="#0303AD"/>
</g>
<defs>
<clipPath id="clip0_30_510">
<rect width="56" height="56" fill="white"/>
</clipPath>
</defs>
</svg>
