<svg viewBox="0 0 45 45" xmlns="http://www.w3.org/2000/svg" xmlns:xlink="http://www.w3.org/1999/xlink" width="45.000000" height="45.000000" fill="none">
	<rect id="fi_2601649" width="45.000000" height="45.000000" x="0.000000" y="0.000000" fill="rgb(255,255,255)" fill-opacity="0"/>
	<g id="Group">
		<path id="Vector" d="M7.9248 12.7683L14.0625 12.7683L14.0625 15.405L7.9248 15.405L7.9248 12.7683Z" fill="rgb(3,3,173)" fill-rule="nonzero"/>
		<path id="Vector" d="M27.0117 9.95575L27.0117 3.39331L0 3.39331L0 29.7898L5.24417 29.7898L5.24417 35.0443L14.9984 29.7898L17.9883 29.7898L17.9883 36.3523L30.0016 36.3523L39.7558 41.6068L39.7558 36.3523L45 36.3523L45 9.95575L27.0117 9.95575ZM42.3633 33.7155L37.1191 33.7155L37.1191 37.1915L30.6665 33.7155L20.625 33.7155L20.625 12.5925L42.3633 12.5925L42.3633 33.7155ZM7.88089 30.6289L7.88089 27.153L2.63672 27.153L2.63672 6.03003L24.375 6.03003L24.375 9.95575L17.9883 9.95575L17.9883 18.3932L7.92483 18.3932L7.92483 21.03L17.9883 21.03L17.9883 27.153L14.3334 27.153L7.88089 30.6289Z" fill="rgb(3,3,173)" fill-rule="nonzero"/>
		<path id="Vector" d="M30.1758 20.894L32.8125 20.894L32.8125 29.0865L30.1758 29.0865L30.1758 20.894Z" fill="rgb(3,3,173)" fill-rule="nonzero"/>
		<path id="Vector" d="M31.4941 18.9792C32.2223 18.9792 32.8125 18.389 32.8125 17.6609C32.8125 16.9328 32.2223 16.3425 31.4941 16.3425C30.766 16.3425 30.1758 16.9328 30.1758 17.6609C30.1758 18.389 30.766 18.9792 31.4941 18.9792Z" fill="rgb(3,3,173)" fill-rule="evenodd"/>
	</g>
</svg>
