<svg viewBox="0 0 45 45" xmlns="http://www.w3.org/2000/svg" xmlns:xlink="http://www.w3.org/1999/xlink" width="45.000000" height="45.000000" fill="none">
	<rect id="fi_7439025" width="45.000000" height="45.000000" x="0.000000" y="0.000000" fill="rgb(255,255,255)" fill-opacity="0"/>
	<g id="Group">
		<path id="Vector" d="M23.8218 13.3722L23.8218 9.2218L26.7037 9.2218C29.9917 9.2218 32.6665 6.54693 32.6665 3.25902L32.6665 0L27.1417 0C25.2685 0 23.5943 0.868249 22.5004 2.22348C21.4064 0.868249 19.7322 0 17.859 0L12.3342 0L12.3342 3.25911C12.3342 6.54702 15.0091 9.22189 18.297 9.22189L21.179 9.22189L21.179 13.3723C13.0315 14.046 6.60742 20.8923 6.60742 29.2107C7.40652 50.266 37.5975 50.2601 38.3933 29.2106C38.3933 20.8923 31.9693 14.046 23.8218 13.3722ZM27.1417 2.6428L30.0237 2.6428L30.0237 3.25911C30.0237 5.08978 28.5344 6.57908 26.7037 6.57908L23.8218 6.57908L23.8218 5.96278C23.8218 4.13211 25.3111 2.6428 27.1417 2.6428ZM18.297 6.57908C16.4663 6.57908 14.977 5.08978 14.977 3.25911L14.977 2.6428L17.859 2.6428C19.6897 2.6428 21.179 4.13211 21.179 5.96278L21.179 6.57908L18.297 6.57908ZM22.5004 42.4609C15.1942 42.4609 9.25023 36.5169 9.25023 29.2107C9.91639 11.6568 35.087 11.6616 35.7505 29.2109C35.7505 36.5169 29.8065 42.4609 22.5004 42.4609Z" fill="rgb(3,3,173)" fill-rule="nonzero"/>
		<path id="Vector" d="M24.1914 27.793L21.472 27.793C20.0718 27.7397 20.0728 25.7325 21.472 25.6797L26.0633 25.6797L26.0633 23.0369L23.8199 23.0369L23.8199 21.3799L21.1771 21.3799L21.1771 23.0485C16.5007 23.5626 16.7518 30.2882 21.472 30.4357L24.1914 30.4357C25.7191 30.4939 25.7179 32.6839 24.1914 32.7414L18.3314 32.7414L18.3314 35.3842L21.1771 35.3842L21.1771 37.0412L23.8199 37.0412L23.8199 35.3842L24.1914 35.3842C29.2211 35.1928 29.2174 27.9827 24.1914 27.793Z" fill="rgb(3,3,173)" fill-rule="nonzero"/>
		<path id="Vector" d="M11.7891 27.8904L14.432 27.8904L14.432 30.5332L11.7891 30.5332L11.7891 27.8904Z" fill="rgb(3,3,173)" fill-rule="nonzero"/>
		<path id="Vector" d="M30.5684 27.8884L33.2113 27.8884L33.2113 30.5312L30.5684 30.5312L30.5684 27.8884Z" fill="rgb(3,3,173)" fill-rule="nonzero"/>
	</g>
</svg>
