<svg viewBox="0 0 20 20" xmlns="http://www.w3.org/2000/svg" xmlns:xlink="http://www.w3.org/1999/xlink" width="20.000000" height="20.000000" fill="none">
	<rect id="fi_709510" width="20.000000" height="20.000000" x="0.000000" y="0.000000" fill="rgb(255,255,255)" fill-opacity="0"/>
	<g id="Group">
		<g id="Group">
			<path id="Vector" d="M19.4279 2.73409C19.1337 2.43936 18.6563 2.43885 18.3621 2.73284L9.3194 11.7517L6.05683 8.20819C5.77491 7.90217 5.29827 7.88233 4.99175 8.1642C4.68546 8.44612 4.66585 8.92299 4.94776 9.22928L8.74175 13.3496C8.88069 13.5006 9.07515 13.5883 9.28019 13.5926C9.28569 13.5928 9.29101 13.5928 9.29628 13.5928C9.49554 13.5928 9.68722 13.5137 9.82843 13.373L19.4264 3.80014C19.7214 3.5062 19.7219 3.02881 19.4279 2.73409Z" fill="rgb(3,3,173)" fill-rule="nonzero"/>
		</g>
	</g>
	<g id="Group">
		<g id="Group">
			<path id="Vector" d="M19.2462 9.24621C18.8299 9.24621 18.4925 9.58363 18.4925 10C18.4925 14.6829 14.6829 18.4925 10 18.4925C5.31734 18.4925 1.50754 14.6829 1.50754 10C1.50754 5.31734 5.31734 1.50754 10 1.50754C10.4163 1.50754 10.7538 1.17012 10.7538 0.753789C10.7538 0.337422 10.4163 0 10 0C4.48594 0 0 4.48594 0 10C0 15.5138 4.48594 20 10 20C15.5138 20 20 15.5138 20 10C20 9.58367 19.6626 9.24621 19.2462 9.24621Z" fill="rgb(3,3,173)" fill-rule="nonzero"/>
		</g>
	</g>
</svg>
