<svg width="1290" height="1290" viewBox="0 0 1290 1290" fill="none" xmlns="http://www.w3.org/2000/svg">
<mask id="mask0_102_2" style="mask-type:luminance" maskUnits="userSpaceOnUse" x="0" y="0" width="1290" height="1290">
<path d="M645 0C288.776 0 0 288.776 0 645C0 1001.22 288.776 1290 645 1290C1001.22 1290 1290 1001.22 1290 645C1290 288.776 1001.22 0 645 0Z" fill="white"/>
</mask>
<g mask="url(#mask0_102_2)">
<path d="M1615.49 -35.6416C1990.75 -35.6416 2296.14 269.607 2296.14 645.002C2296.14 1020.4 1990.75 1325.64 1615.49 1325.64C1240.24 1325.64 934.852 1020.4 934.852 645.002C934.852 269.607 1240.1 -35.6416 1615.49 -35.6416ZM1615.49 1254.22C1951.54 1254.22 2224.85 980.903 2224.85 644.859C2224.85 308.815 1951.54 35.5023 1615.49 35.5023C1279.45 35.5023 1006.14 308.815 1006.14 644.859C1006.14 980.903 1279.45 1254.22 1615.49 1254.22Z" fill="url(#paint0_linear_102_2)"/>
<path d="M-325.637 -35.6416C49.6148 -35.6416 355.006 269.607 355.006 645.002C355.006 1020.4 49.6148 1325.64 -325.637 1325.64C-700.889 1325.64 -1006.28 1020.4 -1006.28 645.002C-1006.28 269.607 -701.032 -35.6416 -325.637 -35.6416ZM-325.637 1254.22C10.4073 1254.22 283.719 980.903 283.719 644.859C283.719 308.815 10.4073 35.5023 -325.637 35.5023C-661.681 35.5023 -934.994 308.815 -934.994 644.859C-934.994 980.903 -661.681 1254.22 -325.637 1254.22Z" fill="url(#paint1_linear_102_2)"/>
<path d="M645.002 -1006.14C1020.25 -1006.14 1325.65 -700.744 1325.65 -325.492C1325.65 49.7596 1020.4 355.151 645.002 355.151C269.607 355.151 -35.6414 49.9022 -35.6414 -325.492C-35.6414 -700.887 269.75 -1006.14 645.002 -1006.14ZM645.002 283.722C980.903 283.722 1254.36 10.4096 1254.36 -325.635C1254.36 -661.679 981.046 -934.992 645.002 -934.992C308.957 -934.992 35.6451 -661.679 35.6451 -325.635C35.6451 10.4096 308.957 283.722 645.002 283.722Z" fill="url(#paint2_linear_102_2)"/>
<path d="M645.002 934.994C1020.25 934.994 1325.65 1240.24 1325.65 1615.64C1325.65 1991.03 1020.25 2296.14 645.002 2296.14C269.75 2296.14 -35.6414 1990.89 -35.6414 1615.49C-35.6414 1240.1 269.75 934.852 645.002 934.852V934.994ZM645.002 2224.85C980.903 2224.85 1254.36 1951.54 1254.36 1615.49C1254.36 1279.45 981.046 1006.14 645.002 1006.14C308.957 1006.14 35.6451 1279.45 35.6451 1615.49C35.6451 1951.54 308.957 2224.85 645.002 2224.85Z" fill="url(#paint3_linear_102_2)"/>
<path d="M1331.2 -721.563C1505.43 -721.563 1679.79 -655.266 1812.39 -522.531C2077.72 -257.203 2077.72 174.651 1812.39 439.979C1547.06 705.307 1115.21 705.307 849.878 439.979C584.549 174.651 584.549 -257.203 849.878 -522.531C982.613 -655.266 1156.84 -721.563 1331.06 -721.563H1331.2ZM1331.2 567.724C1487.18 567.724 1643.3 508.271 1762.06 389.508C1999.59 151.982 1999.59 -234.676 1762.06 -472.203C1524.53 -709.729 1137.88 -709.729 900.349 -472.203C662.822 -234.676 662.822 151.982 900.349 389.508C1019.11 508.271 1175.23 567.724 1331.2 567.724Z" fill="url(#paint4_linear_102_2)"/>
<path d="M-41.3429 650.992C132.881 650.992 307.248 717.288 439.841 850.024C705.169 1115.35 705.169 1547.21 439.841 1812.53C174.513 2077.86 -257.341 2077.86 -522.669 1812.53C-787.998 1547.21 -787.998 1115.35 -522.669 850.024C-389.934 717.288 -215.71 650.992 -41.4856 650.992H-41.3429ZM-41.3429 1940.28C114.774 1940.28 270.749 1880.97 389.513 1762.06C627.039 1524.54 627.039 1137.88 389.513 900.352C151.843 662.826 -234.672 662.826 -472.198 900.352C-709.725 1137.88 -709.725 1524.54 -472.198 1762.06C-353.435 1880.83 -197.318 1940.28 -41.3429 1940.28Z" fill="url(#paint5_linear_102_2)"/>
<path d="M-41.3429 -721.563C132.881 -721.563 307.248 -655.266 439.841 -522.531C705.169 -257.203 705.169 174.651 439.841 439.979C174.513 705.307 -257.341 705.307 -522.669 439.979C-787.998 174.651 -787.998 -257.203 -522.669 -522.531C-389.934 -655.266 -215.71 -721.563 -41.4856 -721.563H-41.3429ZM389.513 389.508C627.039 151.982 627.039 -234.676 389.513 -472.203C151.843 -709.729 -234.672 -709.729 -472.198 -472.203C-709.725 -234.676 -709.725 151.982 -472.198 389.508C-234.672 627.035 151.986 627.035 389.513 389.508Z" fill="url(#paint6_linear_102_2)"/>
<path d="M1331.2 650.992C1505.43 650.992 1679.79 717.288 1812.39 850.024C2077.72 1115.35 2077.72 1547.21 1812.39 1812.53C1547.06 2077.86 1115.21 2077.86 849.878 1812.53C584.549 1547.21 584.549 1115.35 849.878 850.024C982.613 717.288 1156.84 650.992 1331.06 650.992H1331.2ZM1331.2 1940.28C1487.18 1940.28 1643.3 1880.83 1762.06 1762.06C1999.59 1524.54 1999.59 1137.88 1762.06 900.352C1524.53 662.826 1137.88 662.826 900.349 900.352C662.822 1137.88 662.822 1524.54 900.349 1762.06C1019.11 1880.83 1175.23 1940.28 1331.2 1940.28Z" fill="url(#paint7_linear_102_2)"/>
<path d="M1564.74 -343.884C1849.32 -343.884 2115.36 -163.814 2210.6 120.619C2268.34 292.989 2255.51 477.621 2174.38 640.297C2093.26 802.973 1953.68 924.445 1781.31 982.187C1608.94 1039.93 1424.31 1027.1 1261.63 945.973C1098.95 864.849 977.482 725.27 919.74 552.9C800.549 197.038 993.022 -189.477 1348.88 -308.668C1420.31 -332.621 1493.03 -344.026 1564.45 -344.026L1564.74 -343.884ZM1564.74 946.401C1629.9 946.401 1695.34 935.851 1758.78 914.607C1913.05 862.853 2038.08 754.213 2110.65 608.503C2183.22 462.794 2194.77 297.552 2143.02 143.288C2036.37 -175.22 1690.35 -347.591 1371.7 -240.946C1053.19 -134.302 880.818 211.723 987.462 530.373C1039.22 684.637 1147.86 809.674 1293.57 882.243C1379.25 924.873 1471.64 946.544 1564.74 946.544V946.401Z" fill="url(#paint8_linear_102_2)"/>
<path d="M-274.736 272.319C-170.8 272.319 -67.5774 296.414 28.089 344.033C190.765 425.157 312.237 564.736 369.979 737.107C427.721 909.478 414.889 1093.97 333.765 1256.79C252.641 1419.46 113.062 1540.93 -59.3082 1598.67C-415.313 1717.87 -801.685 1525.25 -920.876 1169.53C-978.618 997.16 -965.787 812.528 -884.663 649.852C-803.539 487.177 -663.96 365.705 -491.589 307.962C-420.588 284.153 -347.59 272.319 -274.736 272.319ZM-274.878 1562.6C-210.863 1562.6 -145.85 1552.48 -81.8346 1530.95C72.4293 1479.2 197.466 1370.56 270.035 1224.85C342.605 1079.14 354.153 913.897 302.399 759.633C250.645 605.37 142.005 480.333 -3.70488 407.764C-149.414 335.194 -314.514 323.645 -468.92 375.399C-623.184 427.153 -748.221 535.794 -820.79 681.503C-893.36 827.213 -904.908 992.455 -853.154 1146.72C-767.896 1401.35 -529.656 1562.6 -274.878 1562.6Z" fill="url(#paint9_linear_102_2)"/>
<path d="M337.327 -956.232C441.263 -956.232 544.486 -932.138 640.152 -884.518C802.828 -803.394 924.3 -663.815 982.042 -491.445C1039.78 -319.074 1026.95 -134.442 945.828 28.2335C864.704 190.909 725.125 312.382 552.755 370.124C380.384 427.866 195.752 415.034 33.0767 333.91C-129.599 252.786 -251.071 113.207 -308.813 -59.1635C-366.555 -231.534 -353.724 -416.024 -272.6 -578.842C-191.476 -741.518 -51.8966 -862.99 120.474 -920.732C191.475 -944.542 264.473 -956.375 337.327 -956.375V-956.232ZM337.185 334.053C401.2 334.053 466.213 323.93 530.228 302.401C684.492 250.647 809.529 142.007 882.098 -3.70268C954.668 -149.412 966.216 -314.654 914.462 -468.918C862.708 -623.182 754.068 -748.219 608.359 -820.788C462.649 -893.358 297.407 -904.906 143.143 -853.152C-11.1208 -801.398 -136.158 -692.758 -208.727 -547.048C-281.297 -401.339 -292.845 -236.096 -241.091 -81.8326C-155.833 172.803 82.4068 334.053 337.185 334.053Z" fill="url(#paint10_linear_102_2)"/>
<path d="M953.811 884.385C1057.75 884.385 1160.97 908.48 1256.64 956.099C1419.31 1037.22 1540.78 1176.8 1598.53 1349.17C1656.27 1521.54 1643.44 1706.03 1562.31 1868.85C1481.19 2031.53 1341.61 2153 1169.24 2210.74C996.868 2268.48 812.378 2255.65 649.56 2174.53C486.884 2093.4 365.412 1953.82 307.67 1781.45C249.928 1609.08 262.76 1424.59 343.884 1261.78C425.008 1099.1 564.587 977.628 736.957 919.886C807.959 896.076 880.956 884.242 953.811 884.242V884.385ZM952.67 2174.95C1017.83 2174.95 1083.12 2164.4 1146.71 2143.16C1300.98 2091.41 1426.01 1982.77 1498.58 1837.06C1571.15 1691.35 1582.7 1526.11 1530.95 1371.84C1479.19 1217.58 1370.55 1092.54 1224.84 1019.97C1079.13 947.402 913.89 935.854 759.626 987.608C605.363 1039.36 480.326 1148 407.757 1293.71C335.187 1439.42 323.638 1604.66 375.392 1758.93C427.146 1913.19 535.787 2038.23 681.496 2110.8C767.183 2153.43 859.57 2175.1 952.67 2175.1V2174.95Z" fill="url(#paint11_linear_102_2)"/>
<path d="M1078.42 -904.767C1182.36 -904.767 1285.58 -880.673 1381.25 -833.053C1717.15 -665.673 1854.31 -256.203 1686.92 79.6986C1519.54 415.6 1110.07 552.756 774.173 385.375C438.271 217.994 301.116 -191.332 468.496 -527.234C549.62 -689.91 689.199 -811.382 861.57 -869.124C932.571 -892.934 1005.57 -904.767 1078.42 -904.767ZM1076.71 385.518C1300.69 385.518 1516.55 261.764 1623.05 48.0476C1772.9 -252.639 1650.14 -619.194 1349.31 -769.038C1203.6 -841.608 1038.5 -853.156 884.097 -801.402C729.833 -749.648 604.796 -641.007 532.226 -495.298C382.382 -194.612 505.28 171.943 805.967 321.788C892.936 365.13 985.466 385.66 1076.71 385.66V385.518Z" fill="url(#paint12_linear_102_2)"/>
<path d="M213.286 833.199C315.083 833.199 418.449 856.153 515.684 904.485C851.586 1071.87 988.74 1481.19 821.36 1817.09C653.979 2153 244.653 2290.15 -91.2492 2122.77C-427.151 1955.39 -564.306 1545.92 -396.926 1210.02C-278.02 971.352 -36.7864 832.914 213.429 832.914L213.286 833.199ZM211.148 2122.91C435.13 2122.91 650.985 1999.02 757.487 1785.3C907.332 1484.61 784.576 1118.06 483.747 968.215C182.918 818.371 -183.494 941.126 -333.338 1241.81C-483.182 1542.5 -360.284 1909.05 -59.598 2058.9C27.3714 2102.24 119.901 2122.77 211.148 2122.77V2122.91Z" fill="url(#paint13_linear_102_2)"/>
<path d="M-222.698 -468.348C-120.901 -468.348 -17.5359 -445.393 79.6988 -397.061C242.375 -315.937 363.847 -176.358 421.589 -3.98764C479.331 168.383 466.499 353.015 385.375 515.691C217.995 851.593 -191.475 988.748 -527.377 821.367C-863.278 653.986 -1000.43 244.517 -833.053 -91.3849C-714.147 -330.052 -472.914 -468.348 -222.841 -468.348H-222.698ZM321.645 483.897C471.489 183.211 348.734 -183.344 47.9049 -333.188C-252.781 -483.033 -619.336 -360.277 -769.181 -59.4485C-919.025 241.238 -796.269 607.793 -495.44 757.637C-194.754 907.481 171.801 784.583 321.645 483.897Z" fill="url(#paint14_linear_102_2)"/>
<path d="M1514.27 396.782C1618.21 396.782 1721.43 420.877 1817.1 468.496C1979.77 549.62 2101.24 689.199 2158.98 861.57C2216.73 1033.94 2203.9 1218.57 2122.77 1381.25C1955.39 1717.15 1546.06 1854.31 1210.16 1686.92C1047.49 1605.8 926.014 1466.22 868.272 1293.85C810.53 1121.48 823.362 936.848 904.486 774.172C985.61 611.497 1125.19 490.025 1297.56 432.283C1368.56 408.473 1441.56 396.639 1514.41 396.639L1514.27 396.782ZM1512.7 1687.07C1736.68 1687.07 1952.54 1563.17 2059.04 1349.45C2131.61 1203.74 2143.16 1038.5 2091.41 884.239C2039.65 729.975 1931.01 604.938 1785.3 532.369C1639.59 459.799 1474.35 448.251 1320.09 500.005C1165.82 551.759 1040.79 660.399 968.216 806.109C895.646 951.818 884.098 1117.06 935.852 1271.32C987.606 1425.59 1096.25 1550.62 1241.96 1623.19C1328.93 1666.54 1421.46 1687.07 1512.7 1687.07Z" fill="url(#paint15_linear_102_2)"/>
</g>
<defs>
<linearGradient id="paint0_linear_102_2" x1="2430.4" y1="1586.85" x2="1046.91" y2="389.817" gradientUnits="userSpaceOnUse">
<stop stop-color="#0303AD"/>
<stop offset="1" stop-color="#1ABAFF"/>
</linearGradient>
<linearGradient id="paint1_linear_102_2" x1="489.272" y1="1586.85" x2="-894.217" y2="389.817" gradientUnits="userSpaceOnUse">
<stop stop-color="#0303AD"/>
<stop offset="1" stop-color="#1ABAFF"/>
</linearGradient>
<linearGradient id="paint2_linear_102_2" x1="1459.91" y1="616.356" x2="76.4219" y2="-580.677" gradientUnits="userSpaceOnUse">
<stop stop-color="#0303AD"/>
<stop offset="1" stop-color="#1ABAFF"/>
</linearGradient>
<linearGradient id="paint3_linear_102_2" x1="1459.91" y1="2557.34" x2="76.4218" y2="1360.31" gradientUnits="userSpaceOnUse">
<stop stop-color="#0303AD"/>
<stop offset="1" stop-color="#1ABAFF"/>
</linearGradient>
<linearGradient id="paint4_linear_102_2" x1="2145.57" y1="900.037" x2="762.849" y2="-296.303" gradientUnits="userSpaceOnUse">
<stop stop-color="#0303AD"/>
<stop offset="1" stop-color="#1ABAFF"/>
</linearGradient>
<linearGradient id="paint5_linear_102_2" x1="773.026" y1="2272.59" x2="-609.698" y2="1076.25" gradientUnits="userSpaceOnUse">
<stop stop-color="#0303AD"/>
<stop offset="1" stop-color="#1ABAFF"/>
</linearGradient>
<linearGradient id="paint6_linear_102_2" x1="773.026" y1="900.037" x2="-609.698" y2="-296.303" gradientUnits="userSpaceOnUse">
<stop stop-color="#0303AD"/>
<stop offset="1" stop-color="#1ABAFF"/>
</linearGradient>
<linearGradient id="paint7_linear_102_2" x1="2145.57" y1="2272.59" x2="762.849" y2="1076.25" gradientUnits="userSpaceOnUse">
<stop stop-color="#0303AD"/>
<stop offset="1" stop-color="#1ABAFF"/>
</linearGradient>
<linearGradient id="paint8_linear_102_2" x1="2380.5" y1="1279.08" x2="996.49" y2="81.6505" gradientUnits="userSpaceOnUse">
<stop stop-color="#0303AD"/>
<stop offset="1" stop-color="#1ABAFF"/>
</linearGradient>
<linearGradient id="paint9_linear_102_2" x1="539.91" y1="1895.24" x2="-844" y2="697.494" gradientUnits="userSpaceOnUse">
<stop stop-color="#0303AD"/>
<stop offset="1" stop-color="#1ABAFF"/>
</linearGradient>
<linearGradient id="paint10_linear_102_2" x1="1151.97" y1="667.073" x2="-232.325" y2="-530.613" gradientUnits="userSpaceOnUse">
<stop stop-color="#0303AD"/>
<stop offset="1" stop-color="#1ABAFF"/>
</linearGradient>
<linearGradient id="paint11_linear_102_2" x1="1768.46" y1="2507.69" x2="384.159" y2="1310" gradientUnits="userSpaceOnUse">
<stop stop-color="#0303AD"/>
<stop offset="1" stop-color="#1ABAFF"/>
</linearGradient>
<linearGradient id="paint12_linear_102_2" x1="1892.55" y1="717.99" x2="508.88" y2="-478.891" gradientUnits="userSpaceOnUse">
<stop stop-color="#0303AD"/>
<stop offset="1" stop-color="#1ABAFF"/>
</linearGradient>
<linearGradient id="paint13_linear_102_2" x1="1026.97" y1="2455.33" x2="-356.43" y2="1258.56" gradientUnits="userSpaceOnUse">
<stop stop-color="#0303AD"/>
<stop offset="1" stop-color="#1ABAFF"/>
</linearGradient>
<linearGradient id="paint14_linear_102_2" x1="591.477" y1="1153.9" x2="-791.881" y2="-43.4738" gradientUnits="userSpaceOnUse">
<stop stop-color="#0303AD"/>
<stop offset="1" stop-color="#1ABAFF"/>
</linearGradient>
<linearGradient id="paint15_linear_102_2" x1="2328.9" y1="2019.57" x2="945.005" y2="821.969" gradientUnits="userSpaceOnUse">
<stop stop-color="#0303AD"/>
<stop offset="1" stop-color="#1ABAFF"/>
</linearGradient>
</defs>
</svg>
