<svg width="196" height="46" viewBox="0 0 196 46" fill="none" xmlns="http://www.w3.org/2000/svg">
<path d="M185.357 36.308C183.024 36.308 181.052 35.9352 179.44 35.1896C177.853 34.444 176.638 33.4218 175.796 32.123C174.954 30.8001 174.533 29.3089 174.533 27.6493H179.548C179.548 28.3468 179.741 29.0323 180.126 29.7057C180.51 30.3551 181.124 30.8843 181.966 31.2932C182.831 31.702 183.962 31.9065 185.357 31.9065C186.608 31.9065 187.654 31.7261 188.496 31.3653C189.338 31.0045 189.963 30.5355 190.372 29.9583C190.781 29.357 190.985 28.6835 190.985 27.9379C190.985 26.9999 190.588 26.2542 189.795 25.701C189.001 25.1238 187.774 24.763 186.115 24.6187L183.806 24.4383C181.28 24.2218 179.26 23.4401 177.744 22.0932C176.253 20.7223 175.508 18.9183 175.508 16.6815C175.508 14.9979 175.904 13.5547 176.698 12.3521C177.492 11.1255 178.598 10.1874 180.017 9.53802C181.46 8.86456 183.144 8.52783 185.068 8.52783C187.065 8.52783 188.784 8.87659 190.227 9.5741C191.671 10.2716 192.789 11.2577 193.583 12.5325C194.376 13.7832 194.773 15.2624 194.773 16.9701H189.758C189.758 16.2486 189.578 15.5871 189.217 14.9858C188.881 14.3605 188.363 13.8674 187.666 13.5066C186.992 13.1218 186.127 12.9294 185.068 12.9294C184.058 12.9294 183.216 13.0977 182.543 13.4345C181.869 13.7712 181.364 14.2282 181.028 14.8054C180.691 15.3827 180.522 16.008 180.522 16.6815C180.522 17.4993 180.823 18.2208 181.424 18.8462C182.026 19.4475 182.976 19.7963 184.275 19.8925L186.584 20.1089C188.46 20.2532 190.107 20.6501 191.526 21.2995C192.945 21.9489 194.04 22.8268 194.809 23.9332C195.603 25.0396 196 26.3745 196 27.9379C196 29.5975 195.567 31.0647 194.701 32.3394C193.835 33.5901 192.597 34.5643 190.985 35.2618C189.398 35.9593 187.522 36.308 185.357 36.308Z" fill="#191F30"/>
<path d="M164.678 35.6225V9.2854H169.801V35.6225H164.678Z" fill="#191F30"/>
<path d="M130.184 35.6225V9.2854H137.183L143.785 25.0155H144.434L151.001 9.2854H158.108V35.6225H153.021V13.1458L153.67 13.2179L146.563 30.2468H141.332L134.188 13.2179L134.874 13.1458V35.6225H130.184Z" fill="#191F30"/>
<path d="M108.692 35.6225V9.2854H113.707V35.6225H108.692ZM112.985 35.6225V31.2931H124.927V35.6225H112.985ZM112.985 24.4022V20.0728H123.989V24.4022H112.985ZM112.985 13.6148V9.2854H124.638V13.6148H112.985Z" fill="#191F30"/>
<path d="M91.8664 35.6225V13.0736H96.9895V35.6225H91.8664ZM84.2539 13.7952V9.2854H104.602V13.7952H84.2539Z" fill="#191F30"/>
<path d="M68.6051 36.308C66.224 36.308 64.1555 35.8871 62.3997 35.0453C60.6679 34.2035 59.2248 33.1091 58.0703 31.7622C56.9399 30.3912 56.086 28.924 55.5088 27.3606C54.9556 25.7732 54.679 24.2459 54.679 22.7787V21.985C54.679 20.3735 54.9676 18.774 55.5448 17.1866C56.1221 15.5751 56.988 14.12 58.1425 12.8211C59.321 11.5223 60.7762 10.4881 62.5079 9.71841C64.2397 8.92469 66.2721 8.52783 68.6051 8.52783C70.9141 8.52783 72.9345 8.92469 74.6663 9.71841C76.398 10.4881 77.8411 11.5223 78.9956 12.8211C80.1742 14.12 81.0521 15.5751 81.6294 17.1866C82.2066 18.774 82.4952 20.3735 82.4952 21.985V22.7787C82.4952 24.2459 82.2066 25.7732 81.6294 27.3606C81.0762 28.924 80.2223 30.3912 79.0678 31.7622C77.9374 33.1091 76.4942 34.2035 74.7384 35.0453C73.0067 35.8871 70.9622 36.308 68.6051 36.308ZM68.6051 31.5457C69.9521 31.5457 71.1547 31.3052 72.213 30.8241C73.2953 30.3431 74.2093 29.6817 74.9549 28.8398C75.7246 27.974 76.3018 26.9999 76.6866 25.9175C77.0955 24.8111 77.3 23.6446 77.3 22.4179C77.3 21.0951 77.0955 19.8804 76.6866 18.774C76.3018 17.6676 75.7246 16.7056 74.9549 15.8878C74.2093 15.07 73.2953 14.4326 72.213 13.9756C71.1306 13.5186 69.928 13.2902 68.6051 13.2902C67.2582 13.2902 66.0436 13.5186 64.9612 13.9756C63.8789 14.4326 62.9529 15.07 62.1832 15.8878C61.4376 16.7056 60.8604 17.6676 60.4515 18.774C60.0666 19.8804 59.8742 21.0951 59.8742 22.4179C59.8742 23.6446 60.0666 24.8111 60.4515 25.9175C60.8604 26.9999 61.4376 27.974 62.1832 28.8398C62.9529 29.6817 63.8789 30.3431 64.9612 30.8241C66.0436 31.3052 67.2582 31.5457 68.6051 31.5457Z" fill="#191F30"/>
<mask id="mask0_54_303" style="mask-type:luminance" maskUnits="userSpaceOnUse" x="0" y="0" width="46" height="46">
<path d="M22.6943 45.3885C35.228 45.3885 45.3885 35.228 45.3885 22.6943C45.3885 10.1606 35.228 0 22.6943 0C10.1606 0 0 10.1606 0 22.6943C0 35.228 10.1606 45.3885 22.6943 45.3885Z" fill="white"/>
</mask>
<g mask="url(#mask0_54_303)">
<path d="M-11.4525 46.6424C-24.6557 46.6424 -35.4009 35.9022 -35.4009 22.694C-35.4009 9.48575 -24.6557 -1.25439 -11.4525 -1.25439C1.75071 -1.25439 12.4959 9.48575 12.4959 22.694C12.4959 35.9022 1.75572 46.6424 -11.4525 46.6424ZM-11.4525 1.25883C-23.2762 1.25883 -32.8927 10.8753 -32.8927 22.699C-32.8927 34.5227 -23.2762 44.1392 -11.4525 44.1392C0.371193 44.1392 9.98766 34.5227 9.98766 22.699C9.98766 10.8753 0.371193 1.25883 -11.4525 1.25883Z" fill="url(#paint0_linear_54_303)"/>
<path d="M56.8461 46.6424C43.6429 46.6424 32.8977 35.9022 32.8977 22.694C32.8977 9.48575 43.6429 -1.25439 56.8461 -1.25439C70.0493 -1.25439 80.7944 9.48575 80.7944 22.694C80.7944 35.9022 70.0543 46.6424 56.8461 46.6424ZM56.8461 1.25883C45.0224 1.25883 35.4059 10.8753 35.4059 22.699C35.4059 34.5227 45.0224 44.1392 56.8461 44.1392C68.6698 44.1392 78.2862 34.5227 78.2862 22.699C78.2862 10.8753 68.6698 1.25883 56.8461 1.25883Z" fill="url(#paint1_linear_54_303)"/>
<path d="M22.6942 80.7891C9.49102 80.7891 -1.25415 70.0439 -1.25415 56.8407C-1.25415 43.6375 9.48601 32.8923 22.6942 32.8923C35.9025 32.8923 46.6426 43.6325 46.6426 56.8407C46.6426 70.0489 35.8974 80.7891 22.6942 80.7891ZM22.6942 35.4056C10.8756 35.4056 1.25406 45.022 1.25406 56.8457C1.25406 68.6694 10.8705 78.2859 22.6942 78.2859C34.5179 78.2859 44.1344 68.6694 44.1344 56.8457C44.1344 45.022 34.5179 35.4056 22.6942 35.4056Z" fill="url(#paint2_linear_54_303)"/>
<path d="M22.6942 12.4906C9.49102 12.4906 -1.25415 1.75046 -1.25415 -11.4578C-1.25415 -24.666 9.49102 -35.4011 22.6942 -35.4011C35.8974 -35.4011 46.6426 -24.661 46.6426 -11.4527C46.6426 1.75548 35.8974 12.4956 22.6942 12.4956V12.4906ZM22.6942 -32.8929C10.8756 -32.8929 1.25406 -23.2764 1.25406 -11.4527C1.25406 0.370945 10.8705 9.98742 22.6942 9.98742C34.5179 9.98742 44.1344 0.370945 44.1344 -11.4527C44.1344 -23.2764 34.5179 -32.8929 22.6942 -32.8929Z" fill="url(#paint3_linear_54_303)"/>
<path d="M-1.44976 70.7764C-7.57983 70.7764 -13.7149 68.4438 -18.3802 63.7735C-27.7157 54.4379 -27.7157 39.2432 -18.3802 29.9077C-9.04462 20.5721 6.15011 20.5721 15.4857 29.9077C24.8212 39.2432 24.8212 54.4379 15.4857 63.7735C10.8154 68.4438 4.68532 70.7764 -1.44474 70.7764H-1.44976ZM-1.44976 25.413C-6.93773 25.413 -12.4307 27.5048 -16.6094 31.6835C-24.9667 40.0408 -24.9667 53.6454 -16.6094 62.0027C-8.25203 70.3601 5.3525 70.3601 13.7099 62.0027C22.0672 53.6454 22.0672 40.0408 13.7099 31.6835C9.53117 27.5048 4.03819 25.413 -1.44976 25.413Z" fill="url(#paint4_linear_54_303)"/>
<path d="M46.8432 22.4832C40.7131 22.4832 34.5781 20.1506 29.9128 15.4803C20.5772 6.14474 20.5772 -9.04999 29.9128 -18.3855C39.2483 -27.7211 54.4431 -27.7211 63.7786 -18.3855C73.1142 -9.04999 73.1142 6.14474 63.7786 15.4803C59.1083 20.1506 52.9783 22.4832 46.8482 22.4832H46.8432ZM46.8432 -22.8803C41.3502 -22.8803 35.8623 -20.7934 31.6836 -16.6097C23.3262 -8.25238 23.3262 5.35214 31.6836 13.7095C40.046 22.0668 53.6455 22.0668 62.0028 13.7095C70.3602 5.35214 70.3602 -8.25238 62.0028 -16.6097C57.8241 -20.7884 52.3312 -22.8803 46.8432 -22.8803Z" fill="url(#paint5_linear_54_303)"/>
<path d="M46.8432 70.7764C40.7131 70.7764 34.5781 68.4438 29.9128 63.7735C20.5772 54.4379 20.5772 39.2432 29.9128 29.9077C39.2483 20.5721 54.4431 20.5721 63.7786 29.9077C73.1142 39.2432 73.1142 54.4379 63.7786 63.7735C59.1083 68.4438 52.9783 70.7764 46.8482 70.7764H46.8432ZM31.6836 31.6835C23.3262 40.0408 23.3262 53.6454 31.6836 62.0027C40.046 70.3601 53.6455 70.3601 62.0028 62.0027C70.3602 53.6454 70.3602 40.0408 62.0028 31.6835C53.6455 23.3261 40.0409 23.3261 31.6836 31.6835Z" fill="url(#paint6_linear_54_303)"/>
<path d="M-1.44976 22.4832C-7.57983 22.4832 -13.7149 20.1506 -18.3802 15.4803C-27.7157 6.14474 -27.7157 -9.04999 -18.3802 -18.3855C-9.04462 -27.7211 6.15011 -27.7211 15.4857 -18.3855C24.8212 -9.04999 24.8212 6.14474 15.4857 15.4803C10.8154 20.1506 4.68532 22.4832 -1.44474 22.4832H-1.44976ZM-1.44976 -22.8803C-6.93773 -22.8803 -12.4307 -20.7884 -16.6094 -16.6097C-24.9667 -8.25238 -24.9667 5.35214 -16.6094 13.7095C-8.25203 22.0668 5.3525 22.0668 13.7099 13.7095C22.0672 5.35214 22.0672 -8.25238 13.7099 -16.6097C9.53117 -20.7884 4.03819 -22.8803 -1.44976 -22.8803Z" fill="url(#paint7_linear_54_303)"/>
<path d="M-9.6667 57.4878C-19.6795 57.4878 -29.0401 51.1521 -32.3911 41.1443C-34.4227 35.0795 -33.9712 28.5832 -31.1169 22.8595C-28.2626 17.1358 -23.3515 12.8618 -17.2866 10.8301C-11.2218 8.79848 -4.72552 9.24995 0.998211 12.1043C6.72194 14.9586 10.9959 19.8697 13.0276 25.9346C17.2213 38.4555 10.4491 52.055 -2.07184 56.2488C-4.58506 57.0915 -7.14345 57.4928 -9.65667 57.4928L-9.6667 57.4878ZM-9.6667 12.0892C-11.9592 12.0892 -14.2617 12.4605 -16.494 13.2079C-21.9218 15.0289 -26.3212 18.8514 -28.8746 23.9782C-31.4279 29.1049 -31.8342 34.919 -30.0133 40.3467C-26.261 51.5534 -14.0862 57.6182 -2.87447 53.866C8.33221 50.1137 14.397 37.9388 10.6448 26.7271C8.82381 21.2994 5.0013 16.9 -0.125477 14.3466C-3.14034 12.8467 -6.39098 12.0842 -9.6667 12.0842V12.0892Z" fill="url(#paint8_linear_54_303)"/>
<path d="M55.0551 35.8068C51.3982 35.8068 47.7663 34.959 44.4003 33.2835C38.6765 30.4292 34.4025 25.5181 32.3709 19.4533C30.3392 13.3884 30.7907 6.89718 33.6451 1.16843C36.4994 -4.5553 41.4105 -8.82929 47.4753 -10.8609C60.0013 -15.0547 73.5958 -8.27749 77.7895 4.23847C79.8212 10.3033 79.3697 16.7996 76.5154 22.5233C73.661 28.247 68.75 32.521 62.6851 34.5527C60.1869 35.3904 57.6185 35.8068 55.0551 35.8068ZM55.0602 -9.59178C52.8078 -9.59178 50.5203 -9.23562 48.2679 -8.47814C42.8402 -6.65718 38.4408 -2.83467 35.8874 2.29211C33.3341 7.41888 32.9277 13.2329 34.7487 18.6607C36.5696 24.0884 40.3922 28.4878 45.5189 31.0412C50.6457 33.5945 56.4547 34.0009 61.8875 32.1799C67.3153 30.359 71.7147 26.5364 74.268 21.4097C76.8214 16.2829 77.2277 10.4689 75.4067 5.0411C72.4069 -3.91822 64.0245 -9.59178 55.0602 -9.59178Z" fill="url(#paint9_linear_54_303)"/>
<path d="M33.5197 79.0332C29.8628 79.0332 26.2309 78.1855 22.8649 76.51C17.1411 73.6556 12.8671 68.7446 10.8355 62.6797C8.80385 56.6149 9.25533 50.1186 12.1097 44.3949C14.964 38.6712 19.8751 34.3972 25.9399 32.3655C32.0048 30.3339 38.501 30.7854 44.2248 33.6397C49.9485 36.494 54.2225 41.4051 56.2541 47.47C58.2858 53.5348 57.8343 60.026 54.98 65.7548C52.1256 71.4785 47.2145 75.7525 41.1497 77.7842C38.6515 78.6219 36.0831 79.0383 33.5197 79.0383V79.0332ZM33.5248 33.6347C31.2724 33.6347 28.9849 33.9908 26.7325 34.7483C21.3048 36.5693 16.9054 40.3918 14.352 45.5186C11.7987 50.6453 11.3923 56.4594 13.2133 61.8871C15.0342 67.3149 18.8567 71.7143 23.9835 74.2677C29.1103 76.821 34.9243 77.2273 40.3521 75.4064C45.7799 73.5854 50.1793 69.7629 52.7326 64.6361C55.286 59.5094 55.6923 53.6953 53.8713 48.2676C50.8715 39.3082 42.4891 33.6347 33.5248 33.6347Z" fill="url(#paint10_linear_54_303)"/>
<path d="M11.8288 14.2715C8.17185 14.2715 4.53996 13.4238 1.17395 11.7483C-4.54978 8.89393 -8.82377 3.98286 -10.8554 -2.08199C-12.8871 -8.14684 -12.4356 -14.6381 -9.58125 -20.3668C-6.72691 -26.0906 -1.81585 -30.3645 4.249 -32.3962C10.3138 -34.4278 16.8051 -33.9764 22.5338 -31.122C28.2576 -28.2677 32.5316 -23.3566 34.5632 -17.2918C36.5949 -11.2269 36.1434 -4.73567 33.289 0.993076C30.4347 6.71681 25.5236 10.9908 19.4588 13.0224C16.9606 13.8602 14.3922 14.2765 11.8288 14.2765V14.2715ZM11.8689 -31.1371C9.57644 -31.1371 7.27892 -30.7659 5.0416 -30.0184C-0.38616 -28.1975 -4.78555 -24.3749 -7.33891 -19.2482C-9.89227 -14.1214 -10.2986 -8.30736 -8.47765 -2.8796C-6.65669 2.54816 -2.83418 6.94756 2.2926 9.50092C7.41938 12.0543 13.2334 12.4606 18.6612 10.6396C24.0889 8.81868 28.4883 4.99617 31.0417 -0.130604C33.595 -5.25738 34.0014 -11.0714 32.1804 -16.4992C30.3595 -21.9269 26.537 -26.3263 21.4102 -28.8797C18.3953 -30.3796 15.1447 -31.1421 11.8689 -31.1421V-31.1371Z" fill="url(#paint11_linear_54_303)"/>
<path d="M7.44432 77.2225C3.78735 77.2225 0.155457 76.3747 -3.21056 74.6992C-15.0292 68.8099 -19.855 54.4028 -13.9658 42.5841C-8.07648 30.7654 6.33068 25.9396 18.1494 31.8289C29.968 37.7182 34.7938 52.1203 28.9046 63.939C26.0502 69.6627 21.1391 73.9367 15.0743 75.9684C12.5761 76.8061 10.0077 77.2225 7.44432 77.2225ZM7.50451 31.8239C-0.376276 31.8239 -7.97113 36.1781 -11.7184 43.6978C-16.9907 54.2774 -12.6715 67.1746 -2.08687 72.4468C3.03991 75.0002 8.8489 75.4065 14.2817 73.5856C19.7094 71.7646 24.1089 67.9421 26.6622 62.8153C31.9345 52.2357 27.6103 39.3385 17.0307 34.0662C13.9707 32.5412 10.715 31.8189 7.50451 31.8189V31.8239Z" fill="url(#paint12_linear_54_303)"/>
<path d="M37.8841 16.0723C34.3024 16.0723 30.6655 15.2646 27.2443 13.5641C15.4256 7.6748 10.5998 -6.72733 16.4891 -18.546C22.3784 -30.3647 36.7805 -35.1905 48.5992 -29.3012C60.4178 -23.4119 65.2436 -9.00479 59.3544 2.81389C55.1707 11.2114 46.6829 16.0823 37.8791 16.0823L37.8841 16.0723ZM37.9593 -29.3062C30.0785 -29.3062 22.4837 -24.947 18.7364 -17.4273C13.4642 -6.84773 17.7833 6.04948 28.368 11.3217C38.9526 16.594 51.8448 12.2749 57.117 1.69523C62.3893 -8.88439 58.0651 -21.7816 47.4855 -27.0539C44.4255 -28.5788 41.1698 -29.3012 37.9593 -29.3012V-29.3062Z" fill="url(#paint13_linear_54_303)"/>
<path d="M53.2242 61.8671C49.6424 61.8671 46.0055 61.0594 42.5843 59.3589C36.8606 56.5045 32.5866 51.5935 30.555 45.5286C28.5233 39.4638 28.9748 32.9675 31.8292 27.2438C37.7184 15.4251 52.1256 10.5993 63.9442 16.4886C75.7629 22.3779 80.5887 36.785 74.6994 48.6037C70.5158 57.0012 62.028 61.8671 53.2292 61.8671H53.2242ZM34.0715 28.3624C28.7992 38.9421 33.1184 51.8393 43.703 57.1115C54.2826 62.3838 67.1798 58.0647 72.4521 47.48C77.7244 36.9004 73.4052 24.0032 62.8206 18.7309C52.241 13.4587 39.3437 17.7828 34.0715 28.3624Z" fill="url(#paint14_linear_54_303)"/>
<path d="M-7.89091 31.4276C-11.5479 31.4276 -15.1798 30.5798 -18.5458 28.9043C-24.2695 26.05 -28.5435 21.1389 -30.5751 15.074C-32.6068 9.00919 -32.1553 2.51292 -29.301 -3.21081C-23.4117 -15.0295 -9.00958 -19.8553 2.8091 -13.966C8.53283 -11.1117 12.8068 -6.20059 14.8385 -0.135742C16.8701 5.92911 16.4186 12.4254 13.5643 18.1491C10.71 23.8728 5.79889 28.1468 -0.265965 30.1785C-2.76414 31.0162 -5.33254 31.4326 -7.89593 31.4326L-7.89091 31.4276ZM-7.83574 -13.971C-15.7165 -13.971 -23.3114 -9.61175 -27.0586 -2.09214C-29.612 3.03463 -30.0183 8.84866 -28.1974 14.2764C-26.3764 19.7042 -22.5539 24.1036 -17.4271 26.6569C-12.3003 29.2103 -6.48631 29.6166 -1.05855 27.7957C4.36921 25.9747 8.7686 22.1522 11.322 17.0254C13.8753 11.8986 14.2817 6.08461 12.4607 0.656849C10.6397 -4.77091 6.81723 -9.17031 1.69045 -11.7237C-1.36957 -13.2487 -4.62523 -13.971 -7.83574 -13.971Z" fill="url(#paint15_linear_54_303)"/>
</g>
<defs>
<linearGradient id="paint0_linear_54_303" x1="-40.125" y1="-10.4449" x2="8.55294" y2="31.6726" gradientUnits="userSpaceOnUse">
<stop stop-color="#0303AD"/>
<stop offset="1" stop-color="#1ABAFF"/>
</linearGradient>
<linearGradient id="paint1_linear_54_303" x1="28.1736" y1="-10.4449" x2="76.8515" y2="31.6726" gradientUnits="userSpaceOnUse">
<stop stop-color="#0303AD"/>
<stop offset="1" stop-color="#1ABAFF"/>
</linearGradient>
<linearGradient id="paint2_linear_54_303" x1="-5.97831" y1="23.7018" x2="42.6997" y2="65.8194" gradientUnits="userSpaceOnUse">
<stop stop-color="#0303AD"/>
<stop offset="1" stop-color="#1ABAFF"/>
</linearGradient>
<linearGradient id="paint3_linear_54_303" x1="-5.97831" y1="-44.5916" x2="42.6997" y2="-2.47408" gradientUnits="userSpaceOnUse">
<stop stop-color="#0303AD"/>
<stop offset="1" stop-color="#1ABAFF"/>
</linearGradient>
<linearGradient id="paint4_linear_54_303" x1="-30.1033" y1="13.7206" x2="18.5478" y2="55.8137" gradientUnits="userSpaceOnUse">
<stop stop-color="#0303AD"/>
<stop offset="1" stop-color="#1ABAFF"/>
</linearGradient>
<linearGradient id="paint5_linear_54_303" x1="18.1897" y1="-34.5726" x2="66.8407" y2="7.52047" gradientUnits="userSpaceOnUse">
<stop stop-color="#0303AD"/>
<stop offset="1" stop-color="#1ABAFF"/>
</linearGradient>
<linearGradient id="paint6_linear_54_303" x1="18.1897" y1="13.7206" x2="66.8407" y2="55.8137" gradientUnits="userSpaceOnUse">
<stop stop-color="#0303AD"/>
<stop offset="1" stop-color="#1ABAFF"/>
</linearGradient>
<linearGradient id="paint7_linear_54_303" x1="-30.1033" y1="-34.5726" x2="18.5478" y2="7.52047" gradientUnits="userSpaceOnUse">
<stop stop-color="#0303AD"/>
<stop offset="1" stop-color="#1ABAFF"/>
</linearGradient>
<linearGradient id="paint8_linear_54_303" x1="-38.3691" y1="0.383903" x2="10.3271" y2="42.5154" gradientUnits="userSpaceOnUse">
<stop stop-color="#0303AD"/>
<stop offset="1" stop-color="#1ABAFF"/>
</linearGradient>
<linearGradient id="paint9_linear_54_303" x1="26.3919" y1="-21.2954" x2="75.0847" y2="20.847" gradientUnits="userSpaceOnUse">
<stop stop-color="#0303AD"/>
<stop offset="1" stop-color="#1ABAFF"/>
</linearGradient>
<linearGradient id="paint10_linear_54_303" x1="4.85649" y1="21.9174" x2="53.5629" y2="64.0579" gradientUnits="userSpaceOnUse">
<stop stop-color="#0303AD"/>
<stop offset="1" stop-color="#1ABAFF"/>
</linearGradient>
<linearGradient id="paint11_linear_54_303" x1="-16.8344" y1="-42.8443" x2="31.872" y2="-0.703857" gradientUnits="userSpaceOnUse">
<stop stop-color="#0303AD"/>
<stop offset="1" stop-color="#1ABAFF"/>
</linearGradient>
<linearGradient id="paint12_linear_54_303" x1="-21.2005" y1="20.1259" x2="27.4836" y2="62.238" gradientUnits="userSpaceOnUse">
<stop stop-color="#0303AD"/>
<stop offset="1" stop-color="#1ABAFF"/>
</linearGradient>
<linearGradient id="paint13_linear_54_303" x1="9.2548" y1="-41.0023" x2="57.9295" y2="1.10604" gradientUnits="userSpaceOnUse">
<stop stop-color="#0303AD"/>
<stop offset="1" stop-color="#1ABAFF"/>
</linearGradient>
<linearGradient id="paint14_linear_54_303" x1="24.5775" y1="4.78843" x2="73.2508" y2="46.9179" gradientUnits="userSpaceOnUse">
<stop stop-color="#0303AD"/>
<stop offset="1" stop-color="#1ABAFF"/>
</linearGradient>
<linearGradient id="paint15_linear_54_303" x1="-36.5537" y1="-25.67" x2="12.1386" y2="16.4674" gradientUnits="userSpaceOnUse">
<stop stop-color="#0303AD"/>
<stop offset="1" stop-color="#1ABAFF"/>
</linearGradient>
</defs>
</svg>
