<svg width="56" height="56" viewBox="0 0 56 56" fill="none" xmlns="http://www.w3.org/2000/svg">
<g clip-path="url(#clip0_30_474)">
<path d="M0 0V56H56V0H0ZM52.2667 52.2667H3.7333V3.7333H52.2666V52.2667H52.2667Z" fill="#0303AD"/>
<path d="M21.1555 10.5779V18.5157L10.6532 8.01343L8.01343 10.6532L18.5159 21.1557H10.5777V24.8891H24.8889V10.5779H21.1555Z" fill="#0303AD"/>
<path d="M10.578 31.1113V34.8446H18.516L8.01367 45.347L10.6534 47.9867L21.1557 37.4845V45.4224H24.8891V31.1113H10.578Z" fill="#0303AD"/>
<path d="M37.4846 34.8446H45.4223V31.1113H31.1111V45.4224H34.8445V37.4843L45.3468 47.9867L47.9866 45.347L37.4846 34.8446Z" fill="#0303AD"/>
<path d="M47.9866 10.6532L45.3468 8.01343L34.8445 18.5157V10.5779H31.1111V24.8891H45.4223V21.1557H37.484L47.9866 10.6532Z" fill="#0303AD"/>
</g>
<defs>
<clipPath id="clip0_30_474">
<rect width="56" height="56" fill="white"/>
</clipPath>
</defs>
</svg>
