<svg width="54" height="54" viewBox="0 0 54 54" fill="none" xmlns="http://www.w3.org/2000/svg">
<g clip-path="url(#clip0_30_501)">
<path d="M42.4518 22.2539C36.959 22.2539 32.4199 26.4122 31.8152 31.7461H28.582V25.418H31.746V21.1455C35.5729 19.3258 38.0742 15.4517 38.0742 11.1797C38.0742 5.01514 33.1063 0 26.9999 0C20.8936 0 15.9257 5.01514 15.9257 11.1797C15.9257 15.4517 18.427 19.3257 22.2538 21.1455V25.418H25.4179V31.7461H22.1847C21.58 26.4122 17.0408 22.2539 11.548 22.2539C5.35522 22.2539 -0.0695675 26.994 0.000674662 33.4508C0.0316825 36.3058 1.17623 39.0465 3.164 41.0781V54H15.9257V50.8359H22.2538V44.4023H26.3957L23.6666 38.9443C23.0341 37.6792 22.6059 36.3106 22.3984 34.9091H31.6015C31.3941 36.3106 30.9659 37.6791 30.3334 38.9442L27.6042 44.4023H31.746V50.8359H38.0742V54H50.8359V41.0781C52.8237 39.0465 53.9682 36.3058 53.9992 33.4509C54.0693 27.0102 48.6628 22.2539 42.4518 22.2539ZM19.0898 11.1797C19.0898 6.75981 22.6383 3.16406 26.9999 3.16406C31.3616 3.16406 34.9101 6.75981 34.9101 11.1797C34.9101 17.5307 28.7615 18.8471 28.582 18.974V22.2539H25.4179V18.974C25.3788 18.9463 19.0898 17.3827 19.0898 11.1797ZM20.8367 40.3593L21.2761 41.2383H19.0898V47.6719H12.7617V50.8359H6.32806V39.6961C6.16163 39.4805 3.20861 37.4872 3.16453 33.4163C3.11327 28.7209 7.12287 25.418 11.548 25.418C15.2933 25.418 18.4085 28.1627 18.9907 31.7461H15.6536C15.0005 29.9048 13.2421 28.582 11.1796 28.582C8.56263 28.582 6.43353 30.7111 6.43353 33.3281C6.43353 35.9451 8.56263 38.0742 11.1796 38.0742C13.2421 38.0742 15.0005 36.7514 15.6536 34.9102H19.207C19.4333 36.8019 19.9852 38.6565 20.8367 40.3593ZM12.7617 33.3281C12.7617 34.2005 12.052 34.9102 11.1796 34.9102C10.3073 34.9102 9.59759 34.2005 9.59759 33.3281C9.59759 32.4558 10.3073 31.7461 11.1796 31.7461C12.052 31.7461 12.7617 32.4558 12.7617 33.3281ZM47.6718 39.6961V50.8359H41.2382V47.6719H34.9101V41.2383H32.7238L33.1633 40.3593C34.0148 38.6565 34.5666 36.8019 34.7929 34.9102H38.3463C38.9993 36.7514 40.7578 38.0742 42.8202 38.0742C45.4372 38.0742 47.5663 35.9451 47.5663 33.3281C47.5663 30.7111 45.4372 28.582 42.8202 28.582C40.7578 28.582 38.9993 29.9048 38.3463 31.7461H35.009C35.5913 28.1627 38.7064 25.418 42.4517 25.418C46.8621 25.418 50.8866 28.7071 50.8352 33.4164C50.7914 37.4703 47.8254 39.4972 47.6718 39.6961ZM41.2382 33.3281C41.2382 32.4558 41.9479 31.7461 42.8202 31.7461C43.6926 31.7461 44.4023 32.4558 44.4023 33.3281C44.4023 34.2005 43.6926 34.9102 42.8202 34.9102C41.9479 34.9102 41.2382 34.2005 41.2382 33.3281Z" fill="#0303AD"/>
<path d="M7.13477 16.7322L13.0832 14.568L14.1653 17.5421L8.21684 19.7063L7.13477 16.7322Z" fill="#0303AD"/>
<path d="M39.8503 4.82422L45.7988 2.66L46.8809 5.63412L40.9324 7.79834L39.8503 4.82422Z" fill="#0303AD"/>
<path d="M7.1333 5.62939L8.21537 2.65527L14.1638 4.81949L13.0817 7.79361L7.1333 5.62939Z" fill="#0303AD"/>
<path d="M39.8425 17.5234L40.9246 14.5493L46.873 16.7135L45.791 19.6877L39.8425 17.5234Z" fill="#0303AD"/>
<path d="M25.418 15.9258H28.582V12.7617H31.7461V9.59766H22.2539V12.7617H25.418V15.9258Z" fill="#0303AD"/>
</g>
<defs>
<clipPath id="clip0_30_501">
<rect width="54" height="54" fill="white"/>
</clipPath>
</defs>
</svg>
