<svg version="1.1" id="Слой_1" xmlns="http://www.w3.org/2000/svg" x="0" y="0" viewBox="0 0 504 388" xml:space="preserve"><style>.st2{fill:#fff}.st3{fill:#f26640}.st10{fill:#d2d3d3}.st11{fill:#bdbebf}</style><path d="M254.4 380.1c113.2 0 205-16.1 205-36s-91.8-36-205-36-205 16.1-205 36 91.8 36 205 36z" fill="#e7e7e7"/><path d="M92.9 340.8s-41.6-2.3-37-13.6c4.4-11 24.5-3.1 24.5-3.1s-54.3-22.3-45.5-38.3c6.9-12.5 32.8-2.8 32.8-2.8s-95.6-81.9-41.3-127.5c57.7-48.4 99.4 76.9 86.6 103.7 0 0 19.3-23.3 31.8-18.7 19.4 7.1 5.3 58.1-29.6 85.8l-22.3 14.5z" fill="#f79241"/><path class="st2" d="M94.6 333l-1.2-.2c5.2-32.1-8.7-72-21.4-99.7-13.7-30.1-28.8-53-29-53.2l1-.7c.2.3 15.3 23.1 29.1 53.3 8 17.7 14.1 34.6 17.8 49.9 4.8 19.2 6.1 36.3 3.7 50.6z"/><path class="st2" d="M85.4 266.8c-21.8-13.2-36.5-42.8-36.7-43.1l1.1-.5c.2.3 14.7 29.5 36.3 42.6l-.7 1zm9.3 35.9l-1-.7c9.5-15.1 6.5-37.2 2.3-53.1-4.5-17.3-11.5-31.2-11.6-31.3l1.1-.5c.1.2 7 14.1 11.6 31.5 2.7 10.2 4 19.7 4 28 .1 10.5-2.1 19.3-6.4 26.1zm.4 14.8c-19.2-2.7-36.3-18.9-36.5-19.1l.8-.8c.2.2 17 16.1 35.8 18.7l-.1 1.2zm.1 8.3l-.6-1.1c14.4-7.5 23.5-21.7 28.6-32.3 5.6-11.5 7.8-21.3 7.8-21.5l1.2.3c0 .1-2.3 10-7.9 21.7-5.1 10.8-14.4 25.2-29.1 32.9zm-.6 4.6c-13.9 2-20.9-.1-21.1-.2l.3-1.2-.2.6.2-.6c.1 0 7 2.1 20.6.2l.2 1.2z"/><path class="st3" d="M111 190.7l-17.2-46.4 97.5-102.9 92.5 32.3 33.7 2.8 62 79.1-15.7 32.6-40.1 58.4-88.4 37.6L125.9 234 111 190.7z"/><path d="M138.8 197.8l2.8-190.3 208.5 1.9 1.5 219L264 259l-59.5 11.3-36.9-48.4-28.8-24.1z" fill="#e8ecf1"/><path d="M173 228.9l31.6 41.3 59.4-11.3 81.9-28.5c2-2.3 4-4.4 5.9-6.5L350.2 9.5l-20.9-.2C322.6 47 289.8 140.1 173 228.9z" fill="#e2e6eb"/><path class="st3" d="M251 181.8c-2.1.2-4.1.3-6.2.3-10.1.1-19.3-1.6-27.7-5-8.5-3.4-15.7-8.5-21.1-15.1-5.1-6.1-8.7-13.3-10.6-21.3-1.9-8.3-2-17.4-.3-26.9 2.1-11.4 7-21.3 14.8-29.8 6.9-7.4 15.9-13.4 26-17.2 21.1-7.9 44.1-5.4 58.6 6.4 7.5 6 12.6 13.5 15.3 21.9 2.3 7.5 2.6 15.7.6 23.6-1.8 7.3-5.4 13.9-10.2 19.2-5.1 5.6-11.4 9.2-18.2 10.5-.8.2-1.4.3-2.1.3-5.9.5-9.5-2-11.6-4.4-1.4-1.6-2.5-3.5-3.3-5.9-1.3 1.4-2.7 2.8-4.2 4-5.3 4.4-11.5 7.3-17.4 8-8.1 1-15-2-19-8.2-4.9-7.7-5.1-19.7-.6-31.4 2.3-5.8 5.5-11 9.5-15.1 4.6-4.8 10-7.9 15.8-9.5 7.3-1.9 13.7-1.3 18.9 1.8.8.4 1.4.9 2.1 1.4.2-.4.3-.7.3-.8l10.9 2.8c-.1.6-2.3 12-5.6 23.8-2.5 16.4.3 20.6 1 21.3.3.3.8.9 3.1.5 9-1.8 16.8-10.4 19.6-21.3 1.5-6.1 3.4-21.7-12.1-34.1-11.3-9.1-30.4-11-47.6-4.6-18.2 6.7-30.4 20.7-33.7 38.4-2.8 15.6 0 29.1 8.4 39 8.9 10.5 23.1 16.2 40.1 16.1 39.6-.3 65.7-37.1 65.9-37.4l9.3 6.4c-.3.4-7.5 10.6-20.2 20.9-7.5 6.1-15.4 11-23.5 14.5-8.1 4-16.5 6.2-25 6.9zm-5.4-85.1c-1.1.1-2.3.3-3.5.7-7.5 2-14.2 8.6-17.8 17.8-3.2 8.1-3.4 16.7-.4 21.2 1.6 2.5 4.3 3.5 8 3 7.2-.9 16.8-7.5 20.2-18 .8-2.6 1.7-5.4 2.5-8.2.1-.8.3-1.6.4-2.4.4-2.6 1-5 1.5-7.4-.6-1.4-1.8-4-4.4-5.5-1.7-1-3.9-1.3-6.5-1.2z"/><path d="M93.8 144.3L91 341.4l299.2 3.3-10.8-189.1-138.5 102L93.8 144.3z" fill="#2d7ddb"/><path d="M128.6 341.8l261.5 2.8-10.8-189.1-17.5 12.9S327 332.9 144 340.9c-5.5.4-10.6.6-15.4.9z" fill="#2577d7"/><path class="st2" d="M91.5 342c-.3 0-.6-.1-.8-.3-.5-.5-.6-1.3-.1-1.8l104.9-117.4c.5-.5 1.3-.6 1.8-.1s.6 1.3.1 1.8L92.5 341.6c-.2.4-.6.4-1 .4zm298.7 3.4c-.3 0-.8-.2-1-.4L287.6 223.3c-.4-.5-.3-1.3.2-1.8.5-.4 1.3-.3 1.8.2l101.6 121.7c.4.5.3 1.3-.2 1.8-.3.1-.6.2-.8.2z"/><path d="M383.4 359.9c16.8 6.4 41.2 7.5 70.9-7.2 9.1-4.5 17.9-13.1 13.6-22.4 0 0 4-5.7 5.4-7.6 8.9-13.1 25.1-50.9 12-62.2-14.5-12.5-40.5 23.3-40.5 23.3s57-95 15.6-113.6c-47.7-21.5-71.5 93.2-71.5 93.2s4.5-37.5-11.6-38.3c-16.3-.8-61.1 72.4 6.1 134.8z" fill="#fec13c"/><path class="st2" d="M412.9 356.9c-7.3-49.4 3.1-93 13.1-120.9 10.8-30.2 23.5-49.1 23.7-49.3l1.8 1.2c-.2.2-12.7 18.8-23.5 48.9-9.9 27.7-20.2 70.9-13 119.8l-2.1.3z"/><path class="st2" d="M412 330.8l-.7-2c23.8-8.5 61.2-54.5 61.6-54.9l1.6 1.3c-1.6 1.9-38.2 46.9-62.5 55.6zm3.2 18.7c-.8.1-1.4.2-2.2.2l-.2-2.1c20.4-1.3 40.6-13.4 40.8-13.6l1.1 1.8c-.2.2-19.4 11.7-39.5 13.7zm-3.2-6.3c-15.7-1.6-27.5-8-35.1-19.2-10-14.6-11-34.6-10.1-48.8.9-15.3 4.3-27.4 4.3-27.5l2 .6c-.2.5-12.9 47.6 5.5 74.5 7.3 10.6 18.6 16.8 33.6 18.3l-.2 2.1z"/><path d="M403.1 364.2c-7 7.6-20.7 7.6-44.4.8-7.8-2.3-25.3-11.3-20.2-25.4 3.2-8.8 13.7-3.8 13.7-3.8s-37.6-66.3-4.2-77c35.3-11.2 36.9 65.1 36.9 65.1s5.3-10 13.3-8.1c8.3 2.2 22.7 28.8 4.9 48.4z" fill="#308fc6"/><path class="st2" d="M379.1 361.5c-.2-.3-20.8-32.9-27.1-85l2.5-.3c6.2 51.6 26.5 83.7 26.6 84l-2 1.3z"/><path class="st2" d="M369.4 356.4c-12.2-.3-17-5-17.2-5.3l-.2-3.3c-1.3-1.1 8.3 8.5 24.6 5.7l.3 2.5c-2.7.4-5.2.5-7.5.4zm9.1 1.8l-1-2.3c18.2-7.6 15.7-28.5 15.7-28.7l2.5-.3c-.1.2 2.7 23-17.2 31.3z"/><path class="st10" d="M372.5 362.1c4.1-6.4 7.1-13.4 15-15.2 7.9-1.8 24.5-2.3 27.7.5 3.2 2.8 15.2 12.7 5.4 19-10 6.4-59.4 13.2-48.1-4.3z"/><path class="st11" d="M408 356.5c-8 3.3-11.5 5.5-18.9 7.5-7.5 2-13.2-5.1-13.5-6.8-1 1.6-1.9 3.2-2.9 4.8-11.3 17.5 38.1 10.5 48 4.3 5.8-3.7 4.1-8.6 1-12.6-2.8-.5-5.7-.4-13.7 2.8z"/><path class="st10" d="M417.8 336.9c-13.5 22.2 1.8 45 32.6 40.2 30.7-4.9 38.7-33.3 26.3-42.7-12.4-9.3-42.5-24.4-58.9 2.5z"/><path class="st11" d="M471.9 331.1c4 6.9 6.1 13.9.7 17.1-12.2 6.9-12-.5-25.7 8.8s-30.9 4.4-33.5 1.2c2.8 13.1 16.4 22.2 37 18.9 30.7-4.9 38.7-33.3 26.3-42.7-1.4-1.1-3-2.1-4.8-3.3z"/></svg>