<svg version="1.1" id="Слой_1" xmlns="http://www.w3.org/2000/svg" x="0" y="0" viewBox="0 0 942 320" xml:space="preserve"><style>.st0{fill:#ea4335}.st2{fill:#4285f4}</style><path class="st0" d="M404.5 169c0 43.7-34.2 75.9-76.2 75.9s-76.2-32.2-76.2-75.9c0-44 34.2-75.9 76.2-75.9s76.2 31.9 76.2 75.9zm-33.4 0c0-27.3-19.8-46-42.8-46s-42.8 18.7-42.8 46c0 27 19.8 46 42.8 46s42.8-19 42.8-46z"/><path d="M568.8 169c0 43.7-34.2 75.9-76.2 75.9s-76.2-32.2-76.2-75.9c0-44 34.2-75.9 76.2-75.9s76.2 31.9 76.2 75.9zm-33.3 0c0-27.3-19.8-46-42.8-46s-42.8 18.7-42.8 46c0 27 19.8 46 42.8 46s42.8-19 42.8-46z" fill="#fbbc05"/><path class="st2" d="M726.3 97.6V234c0 56.1-33.1 79-72.2 79-36.8 0-59-24.6-67.3-44.7l29-12.1c5.2 12.4 17.8 26.9 38.2 26.9 25 0 40.5-15.4 40.5-44.5v-10.9h-1.2c-7.5 9.2-21.8 17.3-40 17.3-38 0-72.7-33.1-72.7-75.6 0-42.9 34.8-76.2 72.7-76.2 18.1 0 32.5 8 40 17h1.2V97.7l31.8-.1zM697 169.3c0-26.7-17.8-46.3-40.5-46.3-23 0-42.3 19.5-42.3 46.3 0 26.5 19.3 45.7 42.3 45.7 22.6 0 40.5-19.3 40.5-45.7z"/><path d="M778.5 17.7v222.5H746V17.7h32.5z" fill="#34a853"/><path class="st0" d="M905.2 194l25.9 17.3c-8.4 12.4-28.5 33.7-63.3 33.7-43.1 0-75.3-33.3-75.3-75.9 0-45.2 32.5-75.9 71.6-75.9 39.4 0 58.7 31.4 65 48.3l3.5 8.6L831 192c7.8 15.2 19.9 23 36.8 23 17 0 28.8-8.4 37.4-21zm-79.6-27.4l67.9-28.2c-3.7-9.5-15-16.1-28.2-16.1-17 .1-40.6 15-39.7 44.3z"/><path class="st2" d="M129 149.2V117h108.6c1.1 5.6 1.6 12.3 1.6 19.4 0 24.2-6.6 54.1-27.9 75.3-20.7 21.6-47.2 33.1-82.2 33.1-65 0-119.6-52.9-119.6-117.9S64.1 9.1 129.1 9.1c35.9 0 61.6 14.1 80.8 32.5l-22.7 22.7c-13.8-12.9-32.5-23-58.1-23-47.4 0-84.6 38.2-84.6 85.7s37.1 85.7 84.6 85.7c30.8 0 48.3-12.4 59.5-23.6 9.1-9.1 15.1-22.1 17.5-39.9H129z"/></svg>