<svg width="189" height="23" fill="none" xmlns="http://www.w3.org/2000/svg"><path d="M5.99.94V22H.86V.94h5.13zM28.548 22h-5.13l-8.58-12.99V22h-5.13V.94h5.13l8.58 13.05V.94h5.13V22zm16.468-10.8c1.22.26 2.2.87 2.94 1.83.74.94 1.11 2.02 1.11 3.24 0 1.76-.62 3.16-1.86 4.2-1.22 1.02-2.93 1.53-5.13 1.53h-9.81V.94h9.48c2.14 0 3.81.49 5.01 1.47 1.22.98 1.83 2.31 1.83 3.99 0 1.24-.33 2.27-.99 3.09-.64.82-1.5 1.39-2.58 1.71zm-7.62-1.74h3.36c.84 0 1.48-.18 1.92-.54.46-.38.69-.93.69-1.65 0-.72-.23-1.27-.69-1.65-.44-.38-1.08-.57-1.92-.57h-3.36v4.41zm3.78 8.4c.86 0 1.52-.19 1.98-.57.48-.4.72-.97.72-1.71s-.25-1.32-.75-1.74c-.48-.42-1.15-.63-2.01-.63h-3.72v4.65h3.78zm20.826 4.35c-1.98 0-3.8-.46-5.46-1.38-1.64-.92-2.95-2.2-3.93-3.84-.96-1.66-1.44-3.52-1.44-5.58s.48-3.91 1.44-5.55c.98-1.64 2.29-2.92 3.93-3.84 1.66-.92 3.48-1.38 5.46-1.38s3.79.46 5.43 1.38c1.66.92 2.96 2.2 3.9 3.84.96 1.64 1.44 3.49 1.44 5.55 0 2.06-.48 3.92-1.44 5.58a10.27 10.27 0 01-3.9 3.84c-1.64.92-3.45 1.38-5.43 1.38zm0-4.68c1.68 0 3.02-.56 4.02-1.68 1.02-1.12 1.53-2.6 1.53-4.44 0-1.86-.51-3.34-1.53-4.44-1-1.12-2.34-1.68-4.02-1.68-1.7 0-3.06.55-4.08 1.65-1 1.1-1.5 2.59-1.5 4.47 0 1.86.5 3.35 1.5 4.47 1.02 1.1 2.38 1.65 4.08 1.65zM88.526 22l-4.29-6.45-3.78 6.45h-5.82l6.75-10.71-6.9-10.35h5.97l4.23 6.36 3.72-6.36h5.82l-6.69 10.62L94.496 22h-5.97z" fill="#304272"/><path d="M110.181 18.28h-7.86l-1.26 3.72h-5.37L103.31.94h5.94L116.87 22h-5.43l-1.26-3.72zm-1.32-3.96l-2.61-7.71-2.58 7.71h5.19zm15.459 3.72h6.72V22h-11.85V.94h5.13v17.1zm14.297 0h6.72V22h-11.85V.94h5.13v17.1zM152.914.94V22h-5.13V.94h5.13zm8.847 4.11v4.26h6.87v3.96h-6.87v4.62h7.77V22h-12.9V.94h12.9v4.11h-7.77zm18.721 17.16c-1.54 0-2.92-.25-4.14-.75-1.22-.5-2.2-1.24-2.94-2.22-.72-.98-1.1-2.16-1.14-3.54h5.46c.08.78.35 1.38.81 1.8.46.4 1.06.6 1.8.6.76 0 1.36-.17 1.8-.51.44-.36.66-.85.66-1.47 0-.52-.18-.95-.54-1.29-.34-.34-.77-.62-1.29-.84-.5-.22-1.22-.47-2.16-.75-1.36-.42-2.47-.84-3.33-1.26-.86-.42-1.6-1.04-2.22-1.86-.62-.82-.93-1.89-.93-3.21 0-1.96.71-3.49 2.13-4.59 1.42-1.12 3.27-1.68 5.55-1.68 2.32 0 4.19.56 5.61 1.68 1.42 1.1 2.18 2.64 2.28 4.62h-5.55c-.04-.68-.29-1.21-.75-1.59-.46-.4-1.05-.6-1.77-.6-.62 0-1.12.17-1.5.51-.38.32-.57.79-.57 1.41 0 .68.32 1.21.96 1.59.64.38 1.64.79 3 1.23 1.36.46 2.46.9 3.3 1.32.86.42 1.6 1.03 2.22 1.83.62.8.93 1.83.93 3.09 0 1.2-.31 2.29-.93 3.27-.6.98-1.48 1.76-2.64 2.34-1.16.58-2.53.87-4.11.87z" fill="#2577D7"/></svg>