<svg version="1.1" id="layer" xmlns="http://www.w3.org/2000/svg" x="0" y="0" viewBox="0 0 623 163" xml:space="preserve"><path d="M200.7 124.9l7.3-17.1c8 5.9 18.4 9 28.8 9 7.6 0 12.5-3 12.5-7.5-.2-12.5-46-2.8-46.4-34.3-.2-16 14.1-28.4 34.2-28.4 12 0 24 3 32.5 9.7l-6.8 17.4c-7.8-5-17.5-8.5-26.7-8.5-6.3 0-10.4 3-10.4 6.8.2 12.4 46.4 5.6 46.9 35.7 0 16.4-13.9 27.8-33.7 27.8-14.6.2-28-3.3-38.2-10.6m290.5-23.2c-3.8 6.7-10.8 10.8-18.4 10.8-11.7 0-21.2-9.5-21.2-21.2s9.5-21.2 21.2-21.2c7.6 0 14.7 4.1 18.4 10.8l20.3-11.3c-7.6-13.6-22.1-22.8-38.7-22.8-24.5 0-44.4 19.9-44.4 44.5s19.9 44.5 44.4 44.5c16.6 0 31.1-9.2 38.7-22.8l-20.3-11.3zm-205.4 32.2h25.4V9.7h-25.4v124.2zM524.3 9.7v124.2h25.4V96.7l30.1 37.2h32.4L574 89.7l35.4-41.3h-31l-28.7 34.3V9.6l-25.4.1zm-135 38.8v10.1c-4.2-7-14.4-11.8-25.2-11.8-22.2 0-39.8 19.7-39.8 44.4s17.5 44.6 39.8 44.6c10.8 0 21-4.9 25.2-11.8v10.1h25.4V48.6h-25.4v-.1zm0 53.3c-3.6 6.1-11.3 10.6-19.8 10.6-11.7 0-21.2-9.5-21.2-21.2S357.8 70 369.5 70c8.5 0 16.2 4.7 19.8 11v20.8z"/><path d="M66.7 7c-8.2 0-14.9 6.7-14.9 14.9s6.7 14.9 14.9 14.9h14.9V21.9C81.6 13.7 75 7 66.7 7m0 39.7H27.1c-8.2 0-14.9 6.7-14.9 14.9s6.7 14.9 14.9 14.9h39.7c8.2 0 14.9-6.7 14.9-14.9-.1-8.2-6.7-14.9-15-14.9" fill="#36c5f0"/><path d="M161 61.6c0-8.2-6.7-14.9-14.9-14.9s-14.9 6.7-14.9 14.9v14.9h14.9c8.2.1 14.9-6.6 14.9-14.9m-39.7 0V21.8c0-8.2-6.7-14.9-14.9-14.9s-14.9 6.7-14.9 14.9v39.8c0 8.2 6.7 14.9 14.9 14.9 8.3.1 14.9-6.6 14.9-14.9" fill="#2eb67d"/><path d="M106.4 156.1c8.2 0 14.9-6.7 14.9-14.9s-6.7-14.9-14.9-14.9H91.5v14.9c0 8.2 6.7 14.9 14.9 14.9m0-39.8h39.7c8.2 0 14.9-6.7 14.9-14.9s-6.7-14.9-14.9-14.9h-39.7c-8.2 0-14.9 6.7-14.9 14.9s6.7 14.9 14.9 14.9" fill="#ecb22e"/><path d="M12.2 101.4c0 8.2 6.7 14.9 14.9 14.9S42 109.6 42 101.4V86.5H27.1c-8.3 0-14.9 6.7-14.9 14.9m39.7 0v39.8c0 8.2 6.7 14.9 14.9 14.9s14.9-6.7 14.9-14.9v-39.8c0-8.2-6.7-14.9-14.9-14.9-8.3 0-14.9 6.7-14.9 14.9" fill="#e01e5a"/></svg>