<svg width="20" height="20" fill="none" xmlns="http://www.w3.org/2000/svg"><path d="M8.603.972a1.49 1.49 0 012.794 0l1.65 4.139c.218.547.71.92 1.276.967l4.283.359c1.341.112 1.885 1.859.863 2.772l-3.263 2.916c-.43.385-.619.99-.487 1.565l.997 4.36c.312 1.366-1.112 2.446-2.26 1.714l-3.667-2.337a1.46 1.46 0 00-1.578 0l-3.666 2.337c-1.149.732-2.573-.348-2.26-1.714l.996-4.36a1.62 1.62 0 00-.487-1.565L.53 9.209c-1.022-.913-.478-2.66.863-2.772l4.283-.359a1.52 1.52 0 001.276-.967L8.603.972z" fill="#304272"/></svg>