<svg version="1.1" id="Layer_1" xmlns="http://www.w3.org/2000/svg" x="0" y="0" viewBox="0 0 373 95" xml:space="preserve"><style>.st0{fill:#2d8cff}</style><path class="st0" d="M154.3 19.7C146.5 11.9 136.3 8 126 8c-10.2 0-20.5 3.9-28.3 11.7-15.6 15.6-15.6 40.9 0 56.6 15.6 15.6 40.9 15.6 56.6 0 15.6-15.6 15.6-41 0-56.6zM143 65c-9.4 9.4-24.6 9.4-33.9 0-9.4-9.4-9.4-24.6 0-33.9 9.4-9.4 24.6-9.4 33.9 0 9.3 9.3 9.3 24.5 0 33.9z"/><path class="st0" d="M238.3 19.7C230.5 11.9 220.3 8 210 8c-10.2 0-20.5 3.9-28.3 11.7-15.6 15.6-15.6 40.9 0 56.6 15.6 15.6 40.9 15.6 56.6 0 15.6-15.6 15.6-41 0-56.6zM227 65c-9.4 9.4-24.6 9.4-33.9 0-9.4-9.4-9.4-24.6 0-33.9 9.4-9.4 24.6-9.4 33.9 0 9.3 9.3 9.3 24.5 0 33.9zM26 87.8l4 .2h60l-.2-4c-.5-6.6-5.2-11.4-11.8-11.8l-4-.2H38l48-48-.2-4C85.5 13.4 80.6 8.5 74 8.2L70 8H10l.2 4c.5 6.5 5.3 11.4 11.8 11.8l4 .2h36L14 72l.2 4c.4 6.6 5.2 11.4 11.8 11.8zM299.8 32c1.4 2.4 1.8 5 2 8l.2 4v28l.2 4c.4 6.5 5.2 11.4 11.8 11.8l4 .2V44l.2-4c.2-3 .6-5.7 2-8.1 2.8-4.8 7.9-7.9 13.8-7.9s11.1 3.2 13.9 8c1.4 2.4 1.8 5.1 1.9 8l.2 4v28l.2 4c.4 6.6 5.2 11.4 11.8 11.8l4 .2V40c0-17.7-14.3-32-32-32-9.6 0-18.1 4.2-24 10.8C304.1 12.2 295.6 8 286 8c-6.6 0-12.8 2-17.9 5.5C265 10 258 8 254 8v80l4-.2c6.7-.4 11.5-5.2 11.8-11.8l.2-4V44l.2-4c.2-3 .6-5.7 2-8 2.8-4.8 7.9-8 13.8-8s11.1 3.2 13.8 8z"/></svg>