<svg data-name="Слой 1" xmlns="http://www.w3.org/2000/svg" xmlns:xlink="http://www.w3.org/1999/xlink" width="492.586" height="293.62mm" viewBox="0 0 369.43 832.31"><defs><linearGradient id="a" x1="636.09" y1="364.66" x2="284.29" y2="364.66" gradientTransform="matrix(1 0 0 -1 0 465.8)" gradientUnits="userSpaceOnUse"><stop offset="0" stop-color="#0096ff"/><stop offset=".63" stop-color="#36c2ff"/><stop offset="1" stop-color="#50d7ff"/></linearGradient><linearGradient id="b" x1="6612.55" y1="347.6" x2="1632.96" y2="347.6" xlink:href="#a"/><linearGradient id="c" x1="2796.14" y1="329.84" x2="2501.11" y2="329.84" xlink:href="#a"/><linearGradient id="d" x1="4581.83" y1="359.62" x2="3484.05" y2="359.62" xlink:href="#a"/><linearGradient id="e" x1="2066.37" y1="392.65" x2="1431.85" y2="392.65" xlink:href="#a"/><linearGradient id="f" x1="4771.64" y1="-314.1" x2="4522.39" y2="-314.1" xlink:href="#a"/><linearGradient id="g" x1="1074.31" y1="-279.77" x2="1065.84" y2="-279.77" xlink:href="#a"/><linearGradient id="h" x1="13088.63" y1="-302.96" x2="11723.59" y2="-302.96" xlink:href="#a"/><linearGradient id="i" x1="420.66" y1="-327.42" x2="415.73" y2="-327.42" xlink:href="#a"/><linearGradient id="j" x1="6801.42" y1="-298.77" x2="6137.32" y2="-298.77" xlink:href="#a"/></defs><path d="M262.89 98.46h-5.55v-5.55H252v5.55h-5.55v5.35H252v5.56h5.36v-5.56h5.55Z" opacity=".15" fill="url(#a)" style="isolation:isolate"/><path d="M301 89v20.86h20.87v16.63H301v20.86h-16.64v-20.84h-20.87v-16.63h20.87V89Zm1.78-1.77h-20.2v20.87h-20.87v20.19h20.87v20.86h20.2v-20.86h20.87V108.1h-20.87Z" opacity=".15" fill="url(#b)" style="isolation:isolate"/><path d="M369.43 133.5h-5.08v-5.08h-4.91v5.08h-5.09v4.91h5.09v5.07h4.91v-5.07h5.08Z" opacity=".15" fill="url(#c)" style="isolation:isolate"/><path d="M346.7 92.47v9.79h9.8v7.8h-9.8v9.79h-7.81v-9.76h-9.8v-7.8h9.8v-9.82Zm.84-.84h-9.49v9.79h-9.79v9.52h9.79v9.78h9.49v-9.78h9.79v-9.49h-9.79v-9.82Z" opacity=".15" fill="url(#d)" style="isolation:isolate"/><path d="M298.65 62.73v7.45h7.46v5.93h-7.46v7.45h-5.94v-7.45h-7.45v-5.93h7.45v-7.45Zm.64-.64h-7.21v7.45h-7.45v7.2h7.45v7.46h7.21v-7.46h7.45v-7.2h-7.45Z" opacity=".15" fill="url(#e)" style="isolation:isolate"/><path d="M282.89 64.39h-12.26V52.13h-11.87v12.26H246.5v11.85h12.26V88.5h11.87V76.24h12.26Z" fill="#83d2f2" opacity=".15" style="isolation:isolate"/><path d="M323.24 76a1.86 1.86 0 1 0-2.44 1 1.86 1.86 0 0 0 2.44-1Z" fill="#38b3ea" opacity=".2" style="isolation:isolate"/><g opacity=".4"><path d="M65.14 821.47a2.39 2.39 0 0 1-.37 1.3 2.18 2.18 0 0 1-1 .85 2.06 2.06 0 0 1-1.27.13 2.2 2.2 0 0 1-1.13-.63 2.42 2.42 0 0 1-.47-2.54 2.24 2.24 0 0 1 .81-1 2.11 2.11 0 0 1 2.77.29 2.41 2.41 0 0 1 .66 1.6Z" fill="#00aad4" opacity=".5" style="isolation:isolate"/><path d="M77 774.12v4.13h3.91v3.29H77v4.14h-3.12v-4.14H70v-3.29h3.91v-4.13Zm.33-.36h-3.78v4.14h-3.91v4h3.91v4.1h3.78v-4.1h3.91v-4h-3.91Z" fill="url(#f)"/><path d="M105.17 745.57a1.19 1.19 0 0 1-.19.63 1 1 0 0 1-.48.42 1.05 1.05 0 0 1-.63.07 1.17 1.17 0 0 1-.78-1.56 1.07 1.07 0 0 1 .4-.51 1 1 0 0 1 .6-.19 1.06 1.06 0 0 1 .76.33 1.18 1.18 0 0 1 .32.81Z" fill="url(#g)"/><path d="M110.86 755.23v9.67H120v7.72h-9.15v9.66h-7.29v-9.66h-9.13v-7.72h9.14v-9.67Zm.78-.82h-8.85v9.67h-9.15v9.36h9.15v9.67h8.85v-9.67h9.15v-9.36h-9.15Z" fill="url(#h)"/><path d="M.82 794.08a.87.87 0 0 0 0-1.73.87.87 0 0 0 0 1.73Z" fill="url(#i)"/><path d="M55.24 761.3h-6.38v-6.74h-6.17v6.74h-6.38v6.53h6.38v6.75h6.17v-6.75h6.38Z" fill="url(#j)"/><path d="M61.7 782.32h-4.65v-4.91h-4.51v4.91h-4.65v4.77h4.65V792h4.51v-4.92h4.65Z" fill="#56c0ec"/><path d="M30.1 764.85v10.41h9.83v8.28H30.1v10.4h-7.84v-10.4h-9.81v-8.28h9.83v-10.41h7.82Zm.9-.85h-9.59v10.4h-9.83v10.07h9.83v10.4h9.52v-10.4h9.84v-10.11h-9.84V764Zm50-35.5v14.9h14.06v11.87H81v14.91H69.73v-14.91H55.64V743.4h14.09v-14.9H81Zm1.18-1.27H68.55v14.91h-14.1v14.41h14.1v14.9h13.63v-14.9h14.09v-14.41H82.18v-14.91Z" fill="#00aad4"/><path d="M96.21 796h-6v-6.29h-5.72V796h-5.95v6.1h5.95v6.3h5.76v-6.3h6Z" fill="#38b3ea"/><path d="M131.26 787h-10.32v-10.95H111V787h-10.37v10.56H111v10.91h10v-10.94h10.32Z" fill="#00aad4"/></g></svg>