<?xml version="1.0" encoding="utf-8"?>
<!-- Generator: Adobe Illustrator 22.1.0, SVG Export Plug-In . SVG Version: 6.00 Build 0)  -->
<svg version="1.1" id="Слой_1" xmlns="http://www.w3.org/2000/svg" xmlns:xlink="http://www.w3.org/1999/xlink" x="0px" y="0px"
	 viewBox="0 0 1546.8 885" style="enable-background:new 0 0 1546.8 885;" xml:space="preserve">
<style type="text/css">
	.st0{opacity:0.15;fill:url(#SVGID_1_);enable-background:new    ;}
	.st1{opacity:0.15;fill:url(#SVGID_2_);enable-background:new    ;}
	.st2{opacity:0.15;fill:url(#SVGID_3_);enable-background:new    ;}
	.st3{opacity:0.15;fill:url(#SVGID_4_);enable-background:new    ;}
	.st4{opacity:0.15;fill:url(#SVGID_5_);enable-background:new    ;}
	.st5{opacity:0.15;fill:#83D2F2;enable-background:new    ;}
	.st6{opacity:0.2;fill:#38B3EA;enable-background:new    ;}
	.st7{opacity:0.4;}
	.st8{opacity:0.5;fill:#00AAD4;enable-background:new    ;}
	.st9{fill:url(#SVGID_6_);}
	.st10{fill:url(#SVGID_7_);}
	.st11{fill:url(#SVGID_8_);}
	.st12{fill:url(#SVGID_9_);}
	.st13{fill:url(#SVGID_10_);}
	.st14{fill:#56C0EC;}
	.st15{fill:#00AAD4;}
	.st16{fill:#38B3EA;}
</style>
<linearGradient id="SVGID_1_" gradientUnits="userSpaceOnUse" x1="1499.22" y1="295.4165" x2="194.431" y2="295.4165" gradientTransform="matrix(1 0 0 -1 0 873.7953)">
	<stop  offset="0" style="stop-color:#0096FF"/>
	<stop  offset="0.63" style="stop-color:#36C2FF"/>
	<stop  offset="1" style="stop-color:#50D7FF"/>
</linearGradient>
<path class="st0" d="M115.1,568.4H94.5v-20.6H74.6v20.6H54v19.9h20.6v20.6h19.9v-20.6h20.6V568.4z"/>
<linearGradient id="SVGID_2_" gradientUnits="userSpaceOnUse" x1="23665.5996" y1="232.1495" x2="5196.5605" y2="232.1495" gradientTransform="matrix(1 0 0 -1 0 873.7953)">
	<stop  offset="0" style="stop-color:#0096FF"/>
	<stop  offset="0.63" style="stop-color:#36C2FF"/>
	<stop  offset="1" style="stop-color:#50D7FF"/>
</linearGradient>
<path class="st1" d="M256.4,533.4v77.4h77.4v61.7h-77.4v77.4h-61.7v-77.4h-77.4v-61.7h77.4v-77.4H256.4z M263,526.8h-74.9v77.4
	h-77.4v74.9h77.4v77.4H263v-77.4h77.4v-74.9H263V526.8z"/>
<linearGradient id="SVGID_3_" gradientUnits="userSpaceOnUse" x1="9510.7305" y1="166.2986" x2="8416.4805" y2="166.2986" gradientTransform="matrix(1 0 0 -1 0 873.7953)">
	<stop  offset="0" style="stop-color:#0096FF"/>
	<stop  offset="0.63" style="stop-color:#36C2FF"/>
	<stop  offset="1" style="stop-color:#50D7FF"/>
</linearGradient>
<path class="st2" d="M510.2,698.4h-18.8v-18.8h-18.2v18.8h-18.9v18.2h18.9v18.8h18.2v-18.8h18.8V698.4L510.2,698.4z"/>
<linearGradient id="SVGID_4_" gradientUnits="userSpaceOnUse" x1="16133.7998" y1="276.7405" x2="12062.0996" y2="276.7405" gradientTransform="matrix(1 0 0 -1 0 873.7953)">
	<stop  offset="0" style="stop-color:#0096FF"/>
	<stop  offset="0.63" style="stop-color:#36C2FF"/>
	<stop  offset="1" style="stop-color:#50D7FF"/>
</linearGradient>
<path class="st3" d="M425.9,546.2v36.3h36.3v28.9h-36.3v36.3h-28.9v-36.2h-36.3v-28.9h36.3v-36.4H425.9z M429,543.1h-35.2v36.3
	h-36.3v35.3h36.3V651H429v-36.3h36.3v-35.2H429V543.1L429,543.1z"/>
<linearGradient id="SVGID_5_" gradientUnits="userSpaceOnUse" x1="6804.0601" y1="399.2485" x2="4450.6602" y2="399.2485" gradientTransform="matrix(1 0 0 -1 0 873.7953)">
	<stop  offset="0" style="stop-color:#0096FF"/>
	<stop  offset="0.63" style="stop-color:#36C2FF"/>
	<stop  offset="1" style="stop-color:#50D7FF"/>
</linearGradient>
<path class="st4" d="M247.7,435.9v27.6h27.7v22h-27.7v27.6h-22v-27.6H198v-22h27.6v-27.6H247.7z M250.1,433.6h-26.7v27.6h-27.6v26.7
	h27.6v27.6h26.7v-27.6h27.6v-26.7h-27.6V433.6z"/>
<path class="st5" d="M189.2,442.1h-45.5v-45.5h-44v45.5H54.3v44h45.5v45.5h44V486h45.5V442.1z"/>
<path class="st6" d="M338.9,485.3c1.5-3.5-0.2-7.6-3.7-9c0,0,0,0,0,0c-3.5-1.5-7.6,0.2-9,3.7c-1.5,3.5,0.2,7.6,3.7,9c0,0,0,0,0,0
	C333.4,490.5,337.4,488.8,338.9,485.3z"/>
<g class="st7">
	<path class="st8" d="M1194.4,678.9c0,2.8-0.8,5.4-2.3,7.7c-1.5,2.3-3.7,4.1-6.2,5.1c-5.2,2.2-11.2,1-15.2-3
		c-5.4-5.4-5.4-14.2,0-19.7c0.6-0.6,1.4-1.2,2.1-1.7c6.4-4.3,15-2.5,19.3,3.8C1193.6,673.5,1194.4,676.1,1194.4,678.9z"/>
	
		<linearGradient id="SVGID_6_" gradientUnits="userSpaceOnUse" x1="31002.0996" y1="443.7675" x2="29423.5996" y2="443.7675" gradientTransform="matrix(1 0 0 -1 0 873.7953)">
		<stop  offset="0" style="stop-color:#0096FF"/>
		<stop  offset="0.63" style="stop-color:#36C2FF"/>
		<stop  offset="1" style="stop-color:#50D7FF"/>
	</linearGradient>
	<path class="st9" d="M1269.5,395.4v24.7h24.8v19.7h-24.8v24.7h-19.7v-24.7H1225v-19.7h24.8v-24.7H1269.5z M1271.6,393.3h-23.9v24.7
		h-24.8V442h24.8v24.7h23.9V442h24.8v-23.9h-24.8V393.3z"/>
	
		<linearGradient id="SVGID_7_" gradientUnits="userSpaceOnUse" x1="7585.79" y1="649.251" x2="7532.1699" y2="649.251" gradientTransform="matrix(1 0 0 -1 0 873.7953)">
		<stop  offset="0" style="stop-color:#0096FF"/>
		<stop  offset="0.63" style="stop-color:#36C2FF"/>
		<stop  offset="1" style="stop-color:#50D7FF"/>
	</linearGradient>
	<path class="st10" d="M1447.9,224.5c0,1.4-0.4,2.7-1.2,3.8c-1.5,2.3-4.3,3.4-7,2.9c-1.3-0.3-2.5-0.9-3.5-1.9c-1-1-1.6-2.2-1.9-3.5
		c-0.3-1.3-0.1-2.7,0.4-4c0.5-1.2,1.4-2.3,2.5-3.1c1.1-0.8,2.4-1.2,3.8-1.2C1444.8,217.7,1447.9,220.8,1447.9,224.5
		C1447.9,224.5,1447.9,224.5,1447.9,224.5z"/>
	
		<linearGradient id="SVGID_8_" gradientUnits="userSpaceOnUse" x1="83676.2969" y1="510.434" x2="75031.1016" y2="510.434" gradientTransform="matrix(1 0 0 -1 0 873.7953)">
		<stop  offset="0" style="stop-color:#0096FF"/>
		<stop  offset="0.63" style="stop-color:#36C2FF"/>
		<stop  offset="1" style="stop-color:#50D7FF"/>
	</linearGradient>
	<path class="st11" d="M1484,282.4v57.9h57.9v46.2H1484v57.9h-46.2v-57.9h-57.9v-46.2h57.9v-57.9H1484z M1488.9,277.5h-56.1v57.9
		h-57.9v56h57.9v57.9h56.1v-57.9h57.9v-56h-57.9V277.5L1488.9,277.5z"/>
	
		<linearGradient id="SVGID_9_" gradientUnits="userSpaceOnUse" x1="3445.99" y1="364.064" x2="3414.8" y2="364.064" gradientTransform="matrix(1 0 0 -1 0 873.7953)">
		<stop  offset="0" style="stop-color:#0096FF"/>
		<stop  offset="0.63" style="stop-color:#36C2FF"/>
		<stop  offset="1" style="stop-color:#50D7FF"/>
	</linearGradient>
	<path class="st12" d="M787,514.9c2.9,0,5.2-2.3,5.2-5.2s-2.3-5.2-5.2-5.2s-5.2,2.3-5.2,5.2c0,0,0,0,0,0
		C781.8,512.6,784.1,514.9,787,514.9z"/>
	
		<linearGradient id="SVGID_10_" gradientUnits="userSpaceOnUse" x1="43857.1992" y1="535.521" x2="39651.3008" y2="535.521" gradientTransform="matrix(1 0 0 -1 0 873.7953)">
		<stop  offset="0" style="stop-color:#0096FF"/>
		<stop  offset="0.63" style="stop-color:#36C2FF"/>
		<stop  offset="1" style="stop-color:#50D7FF"/>
	</linearGradient>
	<path class="st13" d="M1131.7,318.7h-40.4v-40.4h-39.1v40.4h-40.4v39.1h40.4v40.4h39.1v-40.4h40.4V318.7z"/>
	<path class="st14" d="M1172.6,444.6h-29.5v-29.4h-28.5v29.4h-29.4v28.5h29.4v29.5h28.5v-29.5h29.5V444.6z"/>
	<path class="st15" d="M972.4,339.9v62.3h62.3v49.6h-62.3v62.2h-49.7v-62.2h-62.1v-49.6H923v-62.3h49.7L972.4,339.9L972.4,339.9z
		 M977.9,334.6h-60.5v62.2h-62.3v60.3h62.3v62.3h60.3v-62.3h62.3v-60.3h-62.3v-62.2H977.9L977.9,334.6z M1294.7,122.4v89.2h89.2
		v71.1h-89.3v89.2h-71.1v-89.2h-89.3v-71.1h89.2v-89.2H1294.7z M1302.2,114.8H1216V204h-89.3v86.3h89.3v89.2h86.3v-89.2h89.2V204
		h-89.2L1302.2,114.8L1302.2,114.8z"/>
	<path class="st16" d="M1391.2,526.5h-37.7v-37.7h-36.5v37.7h-37.7v36.5h37.7v37.7h36.5v-37.7h37.7V526.5z"/>
	<path class="st15" d="M1613.2,472.3h-65.4V407h-63.2v65.4h-65.4v63.2h65.4v65.3h63.2v-65.3h65.4V472.3z"/>
</g>
</svg>
