<svg width="1040" height="378" fill="none" xmlns="http://www.w3.org/2000/svg"><path d="M274.198 0-88 362.724V378h45.92L335.373 0h-61.175Zm122.349 0L19.094 378h61.175L457.723 0h-61.176Zm122.352 0L141.445 378h61.176L580.074 0h-61.175ZM151.846 0-88 240.208v61.258L213.022 0h-61.176ZM641.25 0 263.797 378h61.175L702.426 0H641.25ZM29.495 0-88 117.692v61.258L90.67 0H29.496ZM1040 213.331 875.553 378h61.175L1040 274.589v-61.258Zm0-122.516L753.201 378h61.176L1040 152.073V90.815ZM1040 378v-42.153L997.904 378H1040ZM763.602 0 386.148 378h61.176L824.777 0h-61.175ZM1040 0h-31.7L630.85 378h61.175L1040 29.557V0ZM885.953 0 508.5 378h61.176L947.129 0h-61.176Z" opacity=".05" fill="#F60"/></svg>