<svg width="198" height="40" fill="none" xmlns="http://www.w3.org/2000/svg"><g clip-path="url(#a)"><path fill-rule="evenodd" clip-rule="evenodd" d="m27.035 26.998.039.039h12.965V13.005H27.035v4.612a3.21 3.21 0 1 0-2.157 5.577 3.12 3.12 0 0 0 2.157-.848v4.652Z" fill="#EE1C25"/><path fill-rule="evenodd" clip-rule="evenodd" d="m13.002 26.998-.08.039h.08V40h14.032V27.037h.04l-.04-.04h-4.677a3.213 3.213 0 1 1-4.675 0h-4.68Z" fill="#4A0"/><path fill-rule="evenodd" clip-rule="evenodd" d="M0 13.005v14.032h12.922l.08-.04v-4.65a3.128 3.128 0 0 0 2.16.847 3.2 3.2 0 1 0-2.16-5.577v-4.612H0Z" fill="#F60"/><path fill-rule="evenodd" clip-rule="evenodd" d="M13.002 0v12.966h4.628a3.146 3.146 0 0 1-.823-2.134 3.213 3.213 0 1 1 6.426 0 3.157 3.157 0 0 1-.824 2.133h4.626V0H13.002Z" fill="#00AAD4"/><path d="M47.323 26.337V.222h5.084v12.746L63.715.183h5.268l-10.02 11.603 10.648 14.551h-5.38L55.908 14.66l-3.5 3.796v7.881h-5.084Zm28.18-13.074a10.917 10.917 0 0 0 .495 3.278 8.908 8.908 0 0 0 1.436 2.794 7.196 7.196 0 0 0 2.296 1.956 6.418 6.418 0 0 0 3.096.736 6.237 6.237 0 0 0 3.113-.754 7.063 7.063 0 0 0 2.264-2.01 9.283 9.283 0 0 0 1.404-2.824c.317-1.03.478-2.104.478-3.182.002-1.108-.17-2.21-.513-3.263a9.189 9.189 0 0 0-1.456-2.8 7.03 7.03 0 0 0-2.283-1.932 6.361 6.361 0 0 0-3.041-.72 6.246 6.246 0 0 0-3.114.757 7.397 7.397 0 0 0-2.283 1.99 8.849 8.849 0 0 0-1.416 2.798c-.316 1.03-.477 2.1-.476 3.176Zm7.254 13.252a11.263 11.263 0 0 1-5.047-1.123 12.58 12.58 0 0 1-3.921-2.985 13.39 13.39 0 0 1-2.531-4.247 14.047 14.047 0 0 1-.87-4.897c0-3.416 1.266-6.71 3.555-9.246a12.63 12.63 0 0 1 3.952-2.93A11.451 11.451 0 0 1 82.87 0a10.97 10.97 0 0 1 5.042 1.16 12.64 12.64 0 0 1 3.91 3.042 13.738 13.738 0 0 1 2.499 4.27c.583 1.556.884 3.202.886 4.863a13.42 13.42 0 0 1-.94 4.997 13.58 13.58 0 0 1-2.607 4.199 12.536 12.536 0 0 1-3.941 2.909 11.427 11.427 0 0 1-4.962 1.082v-.007ZM122.481.183v26.154h-5.049v-11.16h-11.859v11.16h-5.086V.183h5.086v10.575h11.859V.183h5.049Zm6.748 26.154V.183h5.084V21.88h13.334v4.456h-18.418Zm41.217-4.456v4.456h-18.16V.183h17.827V4.64h-12.742v6.3h11.011v4.123h-11.011v6.817h13.075Zm10.484-8.768h6.372a2.66 2.66 0 0 0 1.303-.33c.412-.222.771-.53 1.054-.901.308-.406.546-.86.704-1.345a5.225 5.225 0 0 0 .256-1.66 4.689 4.689 0 0 0-.295-1.695 4.346 4.346 0 0 0-.793-1.342 3.557 3.557 0 0 0-1.141-.884 2.942 2.942 0 0 0-1.303-.315h-6.157v8.472Zm-5.086 13.227V.183h11.569a7.403 7.403 0 0 1 3.332.758 8.574 8.574 0 0 1 2.636 1.99 9.336 9.336 0 0 1 1.738 2.8 8.42 8.42 0 0 1 .623 3.146 8.683 8.683 0 0 1-1.273 4.623 7.298 7.298 0 0 1-3.448 3.011l6.153 9.835h-5.749l-5.487-8.775h-4.997v8.768h-5.097ZM53.478 32.6v7.318h-1.412v-3.122h-3.32v3.122h-1.423V32.6h1.423v2.954h3.32V32.6h1.412Zm7.232 6.073v1.245h-5.08V32.6h4.99v1.244h-3.567v1.764h3.083v1.156h-3.083v1.908h3.658Zm4.497-4.539-1.051 2.96h2.07l-1.019-2.96Zm-3.465 5.783 2.885-7.319h1.158l2.866 7.32h-1.504l-.671-1.825h-2.56l-.67 1.824h-1.504Zm8.345.001V32.6h1.42v6.072h3.73v1.245h-5.15Zm11.16-6.073h-2.329v6.073h-1.423v-6.073h-2.34v-1.244h6.092v1.244Zm7.697-1.245v7.318h-1.412v-3.122h-3.32v3.122h-1.42V32.6h1.42v2.954h3.32V32.6h1.412Zm1.719 3.607c0-.452.08-.9.236-1.323.155-.43.388-.827.687-1.171a3.441 3.441 0 0 1 1.086-.834c.465-.22.974-.33 1.488-.32a3.15 3.15 0 0 1 1.693.435c.457.273.825.673 1.06 1.151l-1.086.754a1.737 1.737 0 0 0-.324-.52 1.52 1.52 0 0 0-.435-.336 2.057 2.057 0 0 0-.949-.237 1.79 1.79 0 0 0-.89.218 2.052 2.052 0 0 0-.635.562c-.17.237-.3.502-.38.782a3.037 3.037 0 0 0-.128.87c-.001.317.05.632.15.934.09.285.233.551.419.786.178.224.4.41.651.547.257.143.546.218.84.218a1.856 1.856 0 0 0 .96-.258 1.736 1.736 0 0 0 .755-.855l1.165.67a2.13 2.13 0 0 1-.483.727c-.21.212-.45.39-.714.53a3.767 3.767 0 0 1-.845.33c-.284.073-.576.11-.87.111a2.999 2.999 0 0 1-1.398-.328 3.674 3.674 0 0 1-1.087-.869 3.99 3.99 0 0 1-.712-1.208 3.909 3.909 0 0 1-.254-1.366Zm10.595-2.073-1.051 2.96h2.07l-1.019-2.96Zm-3.465 5.783 2.885-7.319h1.158l2.879 7.32h-1.504l-.673-1.825h-2.57l-.672 1.824h-1.503Zm9.765-3.699h1.784a.76.76 0 0 0 .365-.092.967.967 0 0 0 .293-.254c.087-.113.153-.241.195-.378.052-.15.077-.306.076-.465a1.33 1.33 0 0 0-.301-.847 1.026 1.026 0 0 0-.32-.248.82.82 0 0 0-.365-.089h-1.723l-.004 2.373Zm-1.421 3.693v-7.313h3.235c.323 0 .642.074.932.218.28.136.53.325.737.558.207.23.372.496.486.784.114.276.174.571.176.87.006.459-.117.91-.356 1.303-.224.375-.562.67-.965.838l1.719 2.748h-1.61l-1.534-2.452h-1.403v2.452l-1.417-.006Zm12.662-1.238v1.245h-5.082V32.6h4.991v1.244h-3.57v1.764h3.083v1.156h-3.083v1.908h3.661Zm7.521-2.466c0-.452.08-.9.237-1.323.154-.43.387-.827.686-1.171a3.429 3.429 0 0 1 1.086-.834c.465-.22.973-.33 1.486-.32a3.158 3.158 0 0 1 1.695.435 2.76 2.76 0 0 1 1.058 1.151l-1.086.754a1.746 1.746 0 0 0-.322-.52 1.57 1.57 0 0 0-.434-.336 2.086 2.086 0 0 0-.952-.237 1.78 1.78 0 0 0-.888.218c-.249.14-.465.332-.635.562a2.458 2.458 0 0 0-.38.782 3.046 3.046 0 0 0-.13.87c-.001.317.049.632.15.934.091.285.234.551.421.786.178.224.4.41.652.547.256.143.545.218.838.218a1.875 1.875 0 0 0 .961-.258 1.774 1.774 0 0 0 .758-.855l1.164.67a2.137 2.137 0 0 1-.482.727 2.955 2.955 0 0 1-.717.53 3.759 3.759 0 0 1-.845.33 3.54 3.54 0 0 1-.869.111 2.983 2.983 0 0 1-1.397-.328 3.613 3.613 0 0 1-1.086-.869 3.904 3.904 0 0 1-.969-2.574Zm8.901.052c-.001.312.047.622.141.919.084.283.22.548.4.782.176.226.398.412.651.545.267.145.566.22.869.218.304.004.604-.07.869-.218.25-.14.466-.333.635-.565.174-.237.306-.503.391-.786.089-.29.134-.59.134-.893a2.883 2.883 0 0 0-.145-.917 2.483 2.483 0 0 0-.409-.784 1.948 1.948 0 0 0-.636-.539 1.879 1.879 0 0 0-1.721 0 2.05 2.05 0 0 0-.651.559 2.446 2.446 0 0 0-.396.78 3.044 3.044 0 0 0-.132.899Zm2.035 3.715a3.186 3.186 0 0 1-1.416-.313 3.549 3.549 0 0 1-1.086-.834 3.788 3.788 0 0 1-.706-1.193 3.914 3.914 0 0 1-.248-1.37 3.86 3.86 0 0 1 .984-2.59c.311-.343.687-.62 1.106-.817a3.2 3.2 0 0 1 1.395-.306c.49-.007.974.105 1.412.325.415.209.784.497 1.086.85.304.352.542.757.702 1.195a3.9 3.9 0 0 1 .249 1.36 3.842 3.842 0 0 1-.992 2.574 3.51 3.51 0 0 1-1.104.815 3.188 3.188 0 0 1-1.382.304Zm6.646-4.747v4.69h-1.423v-7.316h1.104l3.812 4.8V32.61h1.421v7.309h-1.153l-3.761-4.69Zm11.453-.71a1.524 1.524 0 0 0-.263-.196 2.62 2.62 0 0 0-.464-.241 3.767 3.767 0 0 0-.598-.19 2.565 2.565 0 0 0-.652-.086 1.467 1.467 0 0 0-.869.217.728.728 0 0 0-.289.609.642.642 0 0 0 .109.378.978.978 0 0 0 .313.262c.167.087.342.156.523.205.218.06.452.128.726.197.33.087.656.19.976.309.267.095.516.234.738.41.2.16.362.364.472.596.118.266.175.556.167.847.012.349-.062.695-.217 1.008a1.87 1.87 0 0 1-.596.676 2.53 2.53 0 0 1-.869.373c-.336.08-.681.12-1.027.12a5.563 5.563 0 0 1-1.63-.246 4.893 4.893 0 0 1-1.442-.701l.628-1.23c.1.095.212.177.332.245a4.95 4.95 0 0 0 1.306.552c.27.07.547.104.825.102.782 0 1.176-.25 1.176-.753a.624.624 0 0 0-.137-.411 1.15 1.15 0 0 0-.38-.289 3.609 3.609 0 0 0-.598-.217c-.232-.07-.495-.144-.784-.218a6.555 6.555 0 0 1-.913-.317 2.376 2.376 0 0 1-.64-.393 1.4 1.4 0 0 1-.387-.536 1.87 1.87 0 0 1-.13-.733c-.007-.34.063-.678.204-.988.132-.283.328-.53.573-.724.255-.196.544-.343.852-.434a3.52 3.52 0 0 1 1.043-.15 4.04 4.04 0 0 1 1.418.241c.4.144.782.336 1.137.57l-.633 1.136Zm5.69 4.197a1.6 1.6 0 0 0 .847-.217c.226-.132.416-.316.557-.537.148-.23.249-.487.299-.756.06-.29.09-.586.089-.882v-3.724h1.404v3.733a5.4 5.4 0 0 1-.18 1.414c-.11.419-.303.811-.568 1.154a2.708 2.708 0 0 1-.995.782 3.812 3.812 0 0 1-2.943-.013 2.82 2.82 0 0 1-.995-.806 3.3 3.3 0 0 1-.552-1.16 5.417 5.417 0 0 1-.17-1.371v-3.733h1.421v3.733c0 .3.03.599.089.893.053.268.154.524.298.756.141.217.331.4.554.532a1.6 1.6 0 0 0 .845.202Zm5.262 1.204V32.6h1.423v6.072h3.73v1.245h-5.153Zm11.16-6.073h-2.329v6.073h-1.421v-6.073h-2.34v-1.244h6.09v1.244Zm2.97-1.235h-1.423v7.307h1.423V32.61Zm3.571 2.617v4.69h-1.421v-7.316h1.102l3.813 4.8V32.61h1.423v7.309h-1.156l-3.761-4.69Zm11.99 3.878a2.633 2.633 0 0 1-1.955.869 2.927 2.927 0 0 1-1.321-.31 3.481 3.481 0 0 1-1.086-.828 3.96 3.96 0 0 1-.984-2.614 3.846 3.846 0 0 1 .261-1.419c.168-.43.417-.826.734-1.164a3.494 3.494 0 0 1 1.101-.79 3.478 3.478 0 0 1 3.088.138c.465.275.842.678 1.086 1.16l-1.063.785a1.973 1.973 0 0 0-.736-.835 1.956 1.956 0 0 0-1.036-.289 1.73 1.73 0 0 0-.822.198c-.245.13-.458.314-.623.537a2.553 2.553 0 0 0-.404.784 3.13 3.13 0 0 0 0 1.9c.096.284.243.547.434.777.18.216.402.394.652.523.258.13.544.195.832.191.671 0 1.278-.334 1.823-1.001V37.2h-1.453v-1.043h2.65v3.765h-1.178v-.817Z" fill="#fff"/></g><defs><clipPath id="a"><path fill="#fff" d="M0 0h197.176v40H0z"/></clipPath></defs></svg>