<svg width="277" height="56" fill="none" xmlns="http://www.w3.org/2000/svg"><g clip-path="url(#a)"><path fill-rule="evenodd" clip-rule="evenodd" d="m37.849 37.797.054.054h18.152V18.206H37.849v6.457a4.494 4.494 0 0 0-7.222 1.695 4.49 4.49 0 0 0 4.201 6.113 4.368 4.368 0 0 0 3.02-1.186v6.512Z" fill="#EE1C25"/><path fill-rule="evenodd" clip-rule="evenodd" d="m18.203 37.797-.112.054h.112V56h19.645V37.851h.055l-.055-.054H31.3a4.498 4.498 0 1 1-6.545 0h-6.552Z" fill="#4A0"/><path fill-rule="evenodd" clip-rule="evenodd" d="M0 18.206v19.645h18.09l.113-.054v-6.512a4.38 4.38 0 0 0 3.024 1.186 4.48 4.48 0 1 0-3.024-7.808v-6.457H0Z" fill="#F60"/><path fill-rule="evenodd" clip-rule="evenodd" d="M18.203 0v18.152h6.479a4.404 4.404 0 0 1-1.153-2.987 4.498 4.498 0 1 1 8.997 0 4.419 4.419 0 0 1-1.153 2.987h6.475V0H18.203Z" fill="#00AAD4"/><path d="M66.253 36.872V.31h7.117v17.845L89.201.255h7.376L82.549 16.5l14.907 20.372h-7.531L78.27 20.524l-4.9 5.313v11.035h-7.117Zm39.451-18.304c-.004 1.556.23 3.104.694 4.59a12.457 12.457 0 0 0 2.01 3.911 10.072 10.072 0 0 0 3.215 2.738 8.985 8.985 0 0 0 4.334 1.03 8.736 8.736 0 0 0 4.359-1.055 9.893 9.893 0 0 0 3.169-2.813 13.02 13.02 0 0 0 1.965-3.954c.444-1.444.669-2.946.669-4.456a14.7 14.7 0 0 0-.718-4.568 12.869 12.869 0 0 0-2.038-3.92 9.832 9.832 0 0 0-3.197-2.705 8.904 8.904 0 0 0-4.258-1.006 8.743 8.743 0 0 0-4.358 1.058 10.361 10.361 0 0 0-3.197 2.786 12.399 12.399 0 0 0-1.983 3.918 15.16 15.16 0 0 0-.666 4.446Zm10.156 18.553a15.771 15.771 0 0 1-7.066-1.572 17.624 17.624 0 0 1-5.49-4.18 18.748 18.748 0 0 1-3.543-5.945 19.666 19.666 0 0 1-1.216-6.856 19.32 19.32 0 0 1 4.975-12.944 17.695 17.695 0 0 1 5.533-4.103A16.03 16.03 0 0 1 116.018 0a15.34 15.34 0 0 1 7.059 1.624 17.717 17.717 0 0 1 5.475 4.258 19.25 19.25 0 0 1 3.498 5.98 19.488 19.488 0 0 1 1.241 6.807 18.819 18.819 0 0 1-1.317 6.995 19.018 19.018 0 0 1-3.65 5.88 17.562 17.562 0 0 1-5.518 4.072 15.993 15.993 0 0 1-6.946 1.514v-.009ZM171.473.255v36.617h-7.068V21.248h-16.604v15.624h-7.12V.255h7.12v14.806h16.604V.255h7.068Zm9.447 36.617V.255h7.117v30.379h18.669v6.238H180.92Zm57.704-6.238v6.238H213.2V.255h24.958v6.242H220.32v8.82h15.414v5.773H220.32v9.544h18.304Zm14.678-12.276h8.921a3.743 3.743 0 0 0 1.824-.462 4.62 4.62 0 0 0 1.476-1.262 6.393 6.393 0 0 0 .985-1.883c.244-.75.365-1.535.359-2.324a6.578 6.578 0 0 0-.414-2.372 6.1 6.1 0 0 0-1.11-1.88 4.971 4.971 0 0 0-1.597-1.238 4.124 4.124 0 0 0-1.825-.44h-8.619v11.861Zm-7.12 18.517V.255h16.196a10.37 10.37 0 0 1 4.665 1.062 12.004 12.004 0 0 1 3.69 2.786 13.066 13.066 0 0 1 2.433 3.92c.57 1.399.867 2.894.873 4.404a12.167 12.167 0 0 1-1.783 6.473 10.215 10.215 0 0 1-4.826 4.215l8.613 13.769h-8.048l-7.683-12.285h-6.995v12.276h-7.135ZM74.87 45.64v10.244h-1.978v-4.37h-4.647v4.37h-1.992V45.641h1.992v4.136h4.647v-4.136h1.978Zm10.124 8.502v1.742H77.88V45.641h6.987v1.742h-4.995v2.47h4.316v1.618h-4.316v2.67h5.122Zm6.296-6.354-1.472 4.142h2.9l-1.427-4.142Zm-4.85 8.096 4.039-10.246h1.62l4.012 10.246h-2.104l-.94-2.555h-3.583l-.94 2.555H86.44Zm11.682 0V45.641h1.989v8.5h5.222v1.743h-7.211Zm15.624-8.501h-3.261v8.501h-1.992v-8.5h-3.276V45.64h8.529v1.742Zm10.776-1.743v10.244h-1.977v-4.37h-4.648v4.37h-1.989V45.641h1.989v4.136h4.648v-4.136h1.977Zm2.406 5.05c0-.633.112-1.26.331-1.853a5.18 5.18 0 0 1 .961-1.64 4.823 4.823 0 0 1 1.521-1.167 4.672 4.672 0 0 1 2.084-.447 4.41 4.41 0 0 1 2.369.608c.64.383 1.155.943 1.484 1.612l-1.521 1.055a2.432 2.432 0 0 0-.453-.726 2.118 2.118 0 0 0-.608-.472 2.896 2.896 0 0 0-1.329-.331 2.506 2.506 0 0 0-1.247.304c-.348.198-.65.466-.888.787a3.579 3.579 0 0 0-.533 1.095 4.283 4.283 0 0 0-.179 1.217c-.001.444.069.886.21 1.308.127.4.326.772.587 1.1.25.315.56.575.912.767.359.2.763.305 1.174.305.228 0 .455-.03.675-.086a2.58 2.58 0 0 0 .67-.276 2.444 2.444 0 0 0 1.058-1.196l1.63.937a2.97 2.97 0 0 1-.675 1.019 4.103 4.103 0 0 1-1.001.742 5.26 5.26 0 0 1-1.183.462 5.02 5.02 0 0 1-1.216.155 4.198 4.198 0 0 1-1.959-.459 5.144 5.144 0 0 1-1.521-1.216 5.577 5.577 0 0 1-.997-1.691 5.463 5.463 0 0 1-.356-1.914Zm14.833-2.902-1.472 4.142h2.898l-1.426-4.142Zm-4.851 8.096 4.039-10.246h1.621l4.03 10.246h-2.105l-.943-2.555h-3.598l-.94 2.555h-2.104Zm13.671-5.179h2.498c.178 0 .354-.043.51-.128.16-.09.3-.21.411-.356.122-.159.215-.338.274-.53.072-.209.108-.429.106-.65a1.859 1.859 0 0 0-.422-1.186 1.438 1.438 0 0 0-.448-.347 1.147 1.147 0 0 0-.511-.125h-2.411l-.007 3.322Zm-1.989 5.17V45.638h4.529c.453-.001.899.103 1.305.304.392.19.742.456 1.031.781.29.323.521.695.681 1.098.159.386.243.8.247 1.217a3.431 3.431 0 0 1-.499 1.825 2.857 2.857 0 0 1-1.351 1.174l2.406 3.847h-2.254l-2.147-3.434h-1.965v3.434l-1.983-.009Zm17.726-1.733v1.742h-7.114V45.641h6.986v1.742h-4.997v2.47h4.316v1.618h-4.316v2.67h5.125Zm10.53-3.452c0-.633.112-1.26.331-1.853a5.18 5.18 0 0 1 .961-1.64 4.801 4.801 0 0 1 1.521-1.167 4.67 4.67 0 0 1 2.08-.447 4.42 4.42 0 0 1 2.373.608 3.86 3.86 0 0 1 1.481 1.612l-1.521 1.056a2.43 2.43 0 0 0-.45-.727 2.18 2.18 0 0 0-.608-.472 2.918 2.918 0 0 0-1.332-.331 2.497 2.497 0 0 0-1.244.304 2.828 2.828 0 0 0-.888.787c-.242.33-.422.702-.533 1.095a4.25 4.25 0 0 0-.182 1.217 4.07 4.07 0 0 0 .21 1.308c.128.4.328.773.59 1.1.249.315.56.576.912.767.359.2.763.305 1.174.305.228 0 .455-.03.675-.086.235-.06.46-.153.67-.276a2.448 2.448 0 0 0 1.061-1.196l1.63.937a2.97 2.97 0 0 1-.675 1.019 4.117 4.117 0 0 1-1.004.742 5.27 5.27 0 0 1-1.183.462 5.006 5.006 0 0 1-1.216.155 4.176 4.176 0 0 1-1.956-.459 5.073 5.073 0 0 1-1.521-1.216 5.608 5.608 0 0 1-1.007-1.676 5.474 5.474 0 0 1-.349-1.929Zm12.461.073c-.001.436.066.87.197 1.286.118.396.308.767.56 1.095.247.316.558.576.912.763a2.5 2.5 0 0 0 1.217.305c.425.006.844-.099 1.216-.305.35-.197.653-.466.889-.79.243-.334.429-.706.547-1.101.124-.405.188-.827.189-1.25a4.084 4.084 0 0 0-.204-1.284 3.488 3.488 0 0 0-.572-1.098 2.732 2.732 0 0 0-.891-.754 2.635 2.635 0 0 0-2.409 0c-.356.193-.667.46-.912.781a3.456 3.456 0 0 0-.554 1.092 4.23 4.23 0 0 0-.185 1.26Zm2.849 5.2a4.463 4.463 0 0 1-1.983-.438 4.984 4.984 0 0 1-1.52-1.167 5.515 5.515 0 0 1-1.336-3.589 5.405 5.405 0 0 1 1.378-3.626A4.93 4.93 0 0 1 190.245 46a4.476 4.476 0 0 1 1.953-.428 4.28 4.28 0 0 1 1.977.456 4.893 4.893 0 0 1 1.521 1.19 5.37 5.37 0 0 1 .982 1.672c.229.609.348 1.253.35 1.904a5.274 5.274 0 0 1-.371 1.959 5.398 5.398 0 0 1-1.019 1.645 4.91 4.91 0 0 1-1.545 1.14 4.463 4.463 0 0 1-1.935.426Zm9.304-6.645v6.566h-1.992V45.641h1.545l5.338 6.721v-6.71h1.989v10.232h-1.615l-5.265-6.566Zm16.035-.995a2.17 2.17 0 0 0-.368-.274 3.666 3.666 0 0 0-.651-.337c-.27-.112-.55-.2-.836-.265a3.585 3.585 0 0 0-.912-.122 2.054 2.054 0 0 0-1.217.305 1.014 1.014 0 0 0-.404.851.882.882 0 0 0 .152.53c.118.152.267.277.438.368.233.121.479.217.733.285.304.086.632.18 1.015.277.463.121.918.265 1.366.432a3.63 3.63 0 0 1 1.034.575c.28.224.506.51.66.833.166.373.246.779.234 1.187.018.488-.087.973-.304 1.41a2.607 2.607 0 0 1-.833.947 3.553 3.553 0 0 1-1.217.523 6.185 6.185 0 0 1-1.438.167 7.79 7.79 0 0 1-2.282-.344 6.863 6.863 0 0 1-2.019-.982l.879-1.721c.141.132.297.247.465.343.259.156.527.296.803.417.331.147.674.266 1.025.356.378.097.766.145 1.156.143 1.095 0 1.645-.35 1.645-1.056a.863.863 0 0 0-.191-.575 1.611 1.611 0 0 0-.532-.404 5.034 5.034 0 0 0-.837-.304 27.88 27.88 0 0 0-1.098-.304 9.195 9.195 0 0 1-1.277-.444 3.33 3.33 0 0 1-.897-.55 1.965 1.965 0 0 1-.542-.752 2.64 2.64 0 0 1-.182-1.025c-.01-.477.088-.95.286-1.384a2.78 2.78 0 0 1 .802-1.013c.357-.274.761-.48 1.193-.608a4.92 4.92 0 0 1 1.46-.21 5.66 5.66 0 0 1 1.986.338 7.51 7.51 0 0 1 1.59.796l-.885 1.591Zm7.966 5.877a2.24 2.24 0 0 0 1.186-.305c.316-.185.583-.442.779-.751.207-.322.35-.682.42-1.059.083-.406.125-.82.124-1.234v-5.213h1.965v5.225a7.561 7.561 0 0 1-.252 1.98 4.526 4.526 0 0 1-.794 1.615 3.8 3.8 0 0 1-1.393 1.095 5.34 5.34 0 0 1-4.121-.018 3.943 3.943 0 0 1-1.393-1.129 4.617 4.617 0 0 1-.773-1.624 7.529 7.529 0 0 1-.237-1.92v-5.224h1.989v5.225c-.001.42.041.838.125 1.25.073.375.214.734.416 1.058.198.305.463.56.776.745.361.202.77.3 1.183.283Zm7.367 1.684V45.641h1.992v8.5h5.222v1.743h-7.214Zm15.624-8.501h-3.261v8.501h-1.989v-8.5h-3.276V45.64h8.526v1.742Zm4.157-1.73h-1.992v10.231h1.992V45.653Zm5.001 3.665v6.566h-1.989V45.641h1.542l5.337 6.721v-6.71h1.993v10.232h-1.618l-5.265-6.566Zm16.785 5.429a3.69 3.69 0 0 1-2.737 1.216 4.095 4.095 0 0 1-1.849-.434 4.86 4.86 0 0 1-1.521-1.16 5.55 5.55 0 0 1-1.378-3.658c-.004-.68.12-1.353.365-1.986a5.106 5.106 0 0 1 1.028-1.63 4.898 4.898 0 0 1 1.542-1.108 4.869 4.869 0 0 1 4.322.195c.652.385 1.18.948 1.521 1.624l-1.487 1.098a2.77 2.77 0 0 0-1.031-1.168 2.74 2.74 0 0 0-1.451-.404 2.41 2.41 0 0 0-1.15.276 2.619 2.619 0 0 0-.873.752 3.56 3.56 0 0 0-.565 1.098 4.38 4.38 0 0 0 0 2.661c.134.396.34.764.608 1.086.251.303.562.553.912.733.362.18.761.273 1.165.267.939 0 1.79-.467 2.552-1.402v-.724h-2.035v-1.46h3.711v5.271h-1.649v-1.143Z" fill="#322E2F"/></g><defs><clipPath id="a"><path fill="#fff" d="M0 0h276.046v56H0z"/></clipPath></defs></svg>