<svg version="1.1" id="Слой_1" xmlns="http://www.w3.org/2000/svg" xmlns:xlink="http://www.w3.org/1999/xlink" x="0" y="0" width="764" height="500" style="enable-background:new 0 0 764 500" xml:space="preserve"><style>.st2{fill:#fff}.st3{fill:#f60}.st4{fill:#ffc700}</style><defs><path id="SVGID_1_" d="M0 0h763.3v500H0z"/></defs><clipPath id="SVGID_2_"><use xlink:href="#SVGID_1_" style="overflow:visible"/></clipPath><g style="clip-path:url(#SVGID_2_)"><path d="m752.2 184.2-41.8 225.6-230.9-43 14.8-79.9c-7.2 2.8-14.9 3.5-22.5 2.1-22-4.1-36.6-24.8-32.6-46.3 4-21.5 25-35.6 47-31.5 7.5 1.4 14.6 4.9 20.2 10l14.8-79.9 81.4 15.2c-2.7-6.8-3.4-14.2-2.1-21.4 4-21.5 25.1-35.6 47-31.5 22 4.1 36.6 24.9 32.6 46.3-1.3 7.2-4.6 13.8-9.6 19.2l81.7 15.1z" style="fill:#00aad4"/><path class="st2" d="M605.7 186.8c15.3 2.8 30.1-4 44.4-10.7 3.1-1.4 6.3-2.9 9.4-4.3 4.2-1.8 8.4-3.4 12.6-4.7.3-.4.6-.9.9-1.3-4.7 1.5-9.4 3.2-13.9 5.1-3.1 1.4-6.4 2.9-9.5 4.3-14.2 6.6-28.8 13.5-43.8 10.7-17.4-3.2-29.4-18.9-34.5-35.7l-1-.2c2 7 5.2 13.6 9.4 19.4 7.1 9.6 16 15.6 26 17.4zm103.7 78.6c-11.7 1.1-23.9 2.2-34.7 6.5-25 9.9-42.2 37.9-41.9 68.1.2 19.7 7.2 39.9 20 58.4l1.3.2c-13.1-18.5-20.2-38.8-20.4-58.6-.3-29.8 16.7-57.4 41.3-67.2 10.7-4.3 22.8-5.4 34.4-6.5 9.2-.9 18.6-1.8 27.3-4.2l.2-1c-8.5 2.5-17.8 3.4-27.5 4.3zm-247.7 20.7c12.9-11.1 28.3-16.9 43.1-15.6 8.9.8 17.6 4 26 7.2 10.5 3.9 21.3 8 32.5 7.2 16.6-1.1 30.7-12.5 42-21.6l108-86.7-1.2-.2-107.4 86.2c-13.8 11.1-26.4 20.3-41.5 21.3-11 .8-21.8-3.3-32.2-7.1-8.4-3.2-17.2-6.4-26.2-7.2-15.1-1.3-31 4.7-44.1 16.2.4 0 .7.2 1 .3zm68.8 68.1c-13.8-8.5-29.8-13.2-46-13.9l-.2.9c16 .6 31.9 5.3 45.6 13.8 11 6.9 20.5 16 28 26.7l1.3.3c-7.5-11.3-17.3-20.7-28.7-27.8z"/><path class="st3" d="M266.6 213.8c-7.9 21.4 3.5 45.3 25.5 53.4 7.5 2.8 15.7 3.4 23.6 1.8l-29.4 79.6-230.8-85.2 30.1-81.5c-8.9 2.6-18.4 2.3-27.1-.9-22-8.1-33.4-32-25.5-53.4 7.9-21.4 32.1-32.1 54.1-24 8.7 3.2 16.2 9.1 21.2 16.9L138.4 39 369 124.2l-29.4 79.6c-4.9-6.3-11.6-11.1-19.1-13.9-21.8-8.3-46 2.5-53.9 23.9z"/><path class="st3" d="M266.6 213.8c-7.9 21.4 3.5 45.3 25.5 53.4 7.5 2.8 15.7 3.4 23.6 1.8l-29.4 79.6-230.8-85.2 30.1-81.5c-8.9 2.6-18.4 2.3-27.1-.9-22-8.1-33.4-32-25.5-53.4 7.9-21.4 32.1-32.1 54.1-24 8.7 3.2 16.2 9.1 21.2 16.9L138.4 39 369 124.2l-29.4 79.6c-4.9-6.3-11.6-11.1-19.1-13.9-21.8-8.3-46 2.5-53.9 23.9z"/><path class="st2" d="m56.9 263.9-1.1-1.4-.3.7.2.3 1.2.4zm26.7-80.6c.3-.1.7-.2 1-.3l-27-34.5-.8.6 26.8 34.2zm-47-62.5c-.2.3-.3.6-.5.9l20.1 26.9.7-.6-20.3-27.2zm149 189.7 1.8.6-40.9-48.6-.8.6 39.9 47.4zM85 183.3l-.4 1 15.9 19.8.7-.6L85 183.3zm17.6 21.6-.8.6 43.9 55.8.8-.6-43.9-55.8zM203.7 217l-.8.6 43.9 55.8.8-.6-43.9-55.8zm44.6 56.6-.8.6 43.9 55.8.8-.6-43.9-55.8zm-89.1-113.2-.8.6 43.9 55.8.8-.6-43.9-55.8zm-43.4-56.2-.4.3-.2.4 43.7 54.8.8-.6-43.9-54.9zm55.5-44.8-.8.6 43.9 55.8.8-.6-43.9-55.8zm-8.7-11.5-1.6-.7 9 12.5.7-.6-8.1-11.2zm115.6 149.3.8-.6-18.7-24.4-.8.6 18.7 24.4zm-60.9-81.6-.8.6 44.1 56.1.8-.6-44.1-56.1zm71.4-21.2 27 33.3.8-.6-26-32.1-1.8-.6zm62 77.8.4-1.1-35.3-43.4-.8.6 35.7 43.9z"/><path class="st2" d="m194.3 314.9 1.1.4 52.2-41.3.8-.6 25.1-19.9c-.2-.3-.4-.5-.6-.8l-25.1 19.9-.8.6-52.7 41.7zm144.9-113.5 1.6-.6.6-.8-2.8 1.1.6.3zm-79.3-30-.8.6-55.9 44.2-.8.6-55.9 44.2-.8.6-30.6 24.2 1.1.4 30.2-23.8.8-.6 55.9-44.2.8-.6 55.9-44.2.8-.6 55.9-44.2.8-.6 20.1-15.9-1.1-.4-19.6 15.5-.8.6-56 44.2zM158 160.7l.8-.6 55.5-44.1.8-.6 41.7-33.1-1.1-.4-41.2 32.7-.8.6-55.5 44.1-.8.6-55.5 44.1-.8.6-33.9 26.9-.6 1.7 35.1-27.9.8-.6 55.5-44zm-120 4.6 19.7-15.8.8-.6 44.3-35.6c-.2-.2-.4-.5-.7-.7L57.9 148l-.8.6-19.6 15.8c.1.3.3.6.5.9zM169.9 59.5l.7-.6 7-5.7-1-.4-6.5 5.3-.7.6-53.5 43.7-.6 1.8.4-.4 54.2-44.3z"/><path class="st4" d="M416.6 373.6c1-3.5 1.3-7.1.9-10.7-.4-3.6-1.6-7-3.4-10.2-1.8-3.1-4.3-5.8-7.2-8-2.9-2.1-6.2-3.7-9.7-4.5-12.6-3-25.9 3.9-30.7 16-2.3 5.8-2.6 12.2-.6 18.1 2.1 6.5 2.5 13.4.6 19.9l-3.3 11.2 30.4 8.9 3.3-11.2c1.9-6.4 5.8-12.1 11-16.3 4.1-3.4 7.2-8 8.7-13.2zm-25.2 47.8-30.3-8.8-3.4 11.6L388 433l3.4-11.6z"/><path class="st2" d="m383.7 411.8-1.7-.7 15.8-37.5c-1.3.1-2.6-.3-3.7-1-.7-.5-1.3-1.1-1.8-1.8s-.8-1.5-.9-2.3c0-.1-.1-.2-.1-.2-.1-.1-.1-.1-.2-.1h-.3c-.1 0-.2.1-.2.1l-.5.4c-.6.6-1.3 1-2.1 1.3-.8.3-1.7.4-2.5.3-1.2-.1-2.3-.5-3.2-1.2l-6.9 40.1-1.8-.3 7.5-43.8 1.3 1.7c.4.5.9.9 1.4 1.2.6.3 1.2.5 1.8.5.6.1 1.2 0 1.7-.2.6-.2 1.1-.5 1.5-.9l.5-.4c.3-.3.7-.5 1.1-.6.4-.1.8-.1 1.2.1.4.1.7.4 1 .7.3.3.4.7.5 1.1.1.6.3 1.1.6 1.6s.7.9 1.2 1.2c.5.3 1.1.6 1.8.7.6.1 1.3.1 1.9-.1l2.1-.6-17 40.7z"/><path class="st4" d="m370.3 306.2-2.4 1.1 11.4 23.6 2.4-1.1-11.4-23.6zm73.1 19.5-20 14.5 1.5 2.1 20-14.5-1.5-2.1zM412 292.4l-9.6 36.3 2.5.7 9.6-36.3-2.5-.7z"/></g></svg>