<svg width="220" height="146" fill="none" xmlns="http://www.w3.org/2000/svg"><path d="M105.359 52.68C105.359 23.647 81.714 0 52.679 0 23.645 0 0 23.647 0 52.68c0 29.035 23.646 52.681 52.68 52.681 6.287 0 12.572-1.197 18.26-3.293-1.197 13.171-5.09 26.64-11.674 39.21-.6.898-.6 2.097-.299 2.995.299.599.898 1.196 1.497 1.196.898.299 1.796 0 2.994-.898 12.572-10.775 23.347-24.844 30.531-40.409 6.585-14.367 10.478-29.634 11.075-45.797.296-1.793.296-3.89.296-5.685Zm114.639 0c0-29.034-23.645-52.68-52.68-52.68-29.034 0-52.68 23.646-52.68 52.68 0 29.035 23.645 52.681 52.68 52.681 6.287 0 12.572-1.197 18.259-3.293-1.197 13.171-5.088 26.64-11.674 39.21-.599.898-.599 2.097-.298 2.995.298.599.897 1.196 1.497 1.196.898.299 1.795 0 2.994-.898 12.571-10.775 23.347-24.844 30.531-40.409 6.585-14.367 10.477-29.634 11.074-45.797.297-1.793.297-3.89.297-5.685Z" fill="#83D2F2"/></svg>