<svg width="1440" height="493" fill="none" xmlns="http://www.w3.org/2000/svg"><g opacity=".07"><path d="M370.906 134.882c29.438 21.089 57.557 7.03 77.329 21.089 0 0-7.909-1.318-9.227.44 0 0 20.211 0 33.831 14.938 0 0-8.787-4.833-11.423-3.075 0 0 16.695 4.833 32.952 19.771 0 0-11.424-6.151-15.378-5.712 0 0 25.044 12.742 32.074 22.847 0 0-7.469-4.833-13.181-4.393 0 0 18.014 6.151 28.559 22.847 0 0-5.712-4.833-14.939-3.955 0 0 10.984 2.197 19.332 19.332 8.788 17.136 34.71 37.346 34.71 37.346s-27.241-18.453-46.573-21.528c-18.892-3.076-24.165-12.742-24.165-12.742 1.758 9.227 8.348 13.181 8.348 13.181-19.332-4.833-30.755-20.211-30.755-20.211.878 5.712 7.908 10.984 7.908 10.984-11.863-3.515-31.634-23.286-31.634-23.286.879 3.954 10.105 12.742 10.105 12.742-19.332-10.545-28.998-25.044-28.998-25.044-.879 2.636 6.591 9.666 6.591 9.666-18.454-8.348-24.605-27.68-24.605-27.68-1.318 1.757 2.197 8.787 2.197 8.787-18.453-13.62-13.62-45.255-43.058-66.344z" fill="url(#paint0_radial)"/><path d="M370.906 134.883c29.877-4.833 38.225-30.316 58.436-33.392 0 0-5.273 3.515-5.273 5.712 0 0 11.863-11.863 28.999-11.423 0 0-8.348 2.636-8.788 4.833 0 0 12.742-7.03 31.195-7.909 0 0-10.105 3.076-12.302 5.712 0 0 22.408-7.47 32.513-5.272 0 0-7.469 1.317-10.105 5.272 0 0 14.059-7.03 30.755-3.076 0 0-6.151.44-11.423 6.591 0 0 7.469-5.273 22.847-.44 15.377 4.833 43.057 1.758 43.057 1.758s-27.24 5.272-40.421 14.938c-13.181 9.666-21.968 7.03-21.968 7.03 6.59 4.394 12.741 2.636 12.741 2.636-14.499 8.788-30.316 6.151-30.316 6.151 3.954 2.637 11.423 1.758 11.423 1.758-9.226 4.833-32.952 4.833-32.952 4.833 3.076 1.757 13.62 1.757 13.62 1.757-18.014 5.273-32.073 2.197-32.073 2.197 1.318 2.197 9.666 1.758 9.666 1.758-16.257 6.151-31.195-1.758-31.195-1.758.439 1.758 6.59 3.954 6.59 3.954-19.332 3.076-35.149-18.453-65.026-13.62z" fill="url(#paint1_radial)"/><path d="M370.906 134.885c14.499-20.211 4.833-39.982 14.499-53.163 0 0-.878 5.273.44 6.151 0 0 0-13.62 10.544-23.286 0 0-3.514 6.15-2.196 7.908 0 0 3.075-11.423 13.62-22.847 0 0-4.394 7.909-3.954 10.545 0 0 8.787-17.135 15.817-21.968 0 0-3.515 5.272-3.076 8.787 0 0 4.394-12.302 15.817-19.771 0 0-3.515 3.954-2.636 10.545 0 0 1.318-7.47 13.181-13.62C454.825 18.013 468.885 0 468.885 0s-12.742 18.893-14.939 32.074c-2.197 13.18-8.787 16.696-8.787 16.696 6.59-1.318 9.227-5.712 9.227-5.712-3.515 13.18-13.621 21.09-13.621 21.09 3.955-.88 7.47-5.712 7.47-5.712-2.197 7.908-16.257 21.968-16.257 21.968 2.636-.44 8.787-7.03 8.787-7.03-7.469 13.181-17.574 20.21-17.574 20.21 1.757.44 6.59-4.393 6.59-4.393-5.712 12.742-18.892 17.136-18.892 17.136 1.318.878 6.151-1.758 6.151-1.758-9.666 13.181-31.635 10.105-46.134 30.316z" fill="url(#paint2_radial)"/><path d="M370.902 134.879c-2.636-16.696-16.696-21.529-18.453-32.513 0 0 2.196 3.075 3.075 2.636 0 0-6.59-6.59-6.151-16.256 0 0 1.318 4.393 2.636 4.833 0 0-3.954-7.03-4.393-17.575 0 0 1.757 5.712 3.075 7.03 0 0-3.954-12.742-3.075-18.014 0 0 .878 3.954 3.075 5.712 0 0-3.954-7.909-1.757-17.136 0 0 .439 3.515 3.515 6.152 0 0-3.076-4.394 0-12.742 2.636-8.787.878-23.726.878-23.726s3.076 15.378 8.348 22.408c5.273 7.469 3.955 12.302 3.955 12.302 2.636-3.515 1.757-7.03 1.757-7.03 4.833 7.909 3.515 16.696 3.515 16.696 1.318-2.197.879-6.151.879-6.151 2.636 4.833 2.636 18.453 2.636 18.453.879-1.757.879-7.469.879-7.469 3.075 10.105 1.318 18.014 1.318 18.014 1.318-.879.878-5.272.878-5.272 3.515 9.226-.878 17.574-.878 17.574.878 0 2.197-3.515 2.197-3.515 1.318 9.666-10.545 18.893-7.909 35.589z" fill="url(#paint3_radial)"/><path d="M370.907 134.883c4.833 29.877-16.696 45.694-13.62 65.905 0 0 1.757-6.151 3.954-6.59 0 0-7.909 14.938-1.758 31.195 0 0 0-8.348 1.758-9.666 0 0-3.076 14.499 2.197 32.073 0 0-.44-10.544 1.757-13.62 0 0 0 23.726 4.833 32.952 0 0-.879-7.469 1.758-11.423 0 0-2.197 15.817 6.151 30.316 0 0-1.758-6.151 2.636-12.742 0 0-2.636 8.788 7.03 21.969 9.666 13.181 14.938 40.421 14.938 40.421s-3.515-27.68 1.318-43.057c4.833-15.378-.439-22.847-.439-22.847 6.151 4.833 6.59 11.423 6.59 11.423 3.515-16.256-3.075-30.755-3.075-30.755 3.954 2.636 5.272 10.105 5.272 10.105 1.758-10.105-5.272-32.513-5.272-32.513 2.636 2.197 5.712 12.302 5.712 12.302-.44-18.453-7.909-31.195-7.909-31.195 2.197.44 4.833 8.788 4.833 8.788.879-17.136-11.423-28.999-11.423-28.999 1.757-.439 5.711 5.273 5.711 5.273-2.636-21.09-28.119-29.438-32.952-59.315z" fill="url(#paint4_radial)"/><path d="M370.904 134.879c-14.499 20.211-36.467 16.696-46.133 30.316 0 0 4.833-2.636 6.151-1.757 0 0-13.181 4.393-18.893 17.135 0 0 4.833-5.272 6.591-4.394 0 0-10.106 6.591-17.575 20.211 0 0 6.151-6.59 8.787-7.03 0 0-13.62 13.621-16.256 21.969 0 0 3.954-4.833 7.469-5.712 0 0-10.545 7.908-13.62 21.089 0 0 2.636-4.393 9.226-5.711 0 0-6.59 3.515-8.787 16.696-2.197 13.181-14.938 32.073-14.938 32.073s14.059-18.014 25.922-24.165c11.863-6.151 13.181-13.62 13.181-13.62.879 6.59-2.636 10.545-2.636 10.545 11.863-7.47 15.817-19.772 15.817-19.772.44 3.954-3.075 8.787-3.075 8.787 7.03-4.833 15.817-21.968 15.817-21.968.439 2.636-3.954 10.545-3.954 10.545 10.544-10.984 13.62-22.847 13.62-22.847 1.318 1.757-2.197 7.908-2.197 7.908 10.545-9.666 10.545-23.286 10.545-23.286 1.318.879.439 6.151.439 6.151 9.666-13.62 0-32.952 14.499-53.163z" fill="url(#paint5_radial)"/><path d="M370.905 134.882c-16.696 2.636-25.483-9.227-36.907-7.47 0 0 3.515.879 3.515 2.197 0 0-8.348-4.393-17.574-.878 0 0 4.833 0 5.272.878 0 0-7.908-1.757-18.014 1.318 0 0 6.151 0 7.469.879 0 0-13.181 0-18.453 2.636 0 0 4.394-.439 6.151.879 0 0-8.787-1.318-16.696 3.515 0 0 3.515-.879 7.03 1.757 0 0-4.833-1.318-12.302 3.955-7.469 5.272-22.408 8.348-22.408 8.348s15.378-1.758 23.726.878c8.348 2.637 12.742 0 12.742 0-2.637 3.515-6.151 3.515-6.151 3.515 9.226 2.197 17.135-1.757 17.135-1.757-1.758 2.197-5.712 3.075-5.712 3.075 5.712.879 18.014-3.075 18.014-3.075-1.318 1.318-7.03 3.075-7.03 3.075 10.545-.439 17.575-4.393 17.575-4.393-.44 1.318-4.833 2.636-4.833 2.636 9.666.439 16.256-6.151 16.256-6.151 0 .879-2.636 3.075-2.636 3.075 12.302-2.196 17.135-16.256 33.831-18.892z" fill="url(#paint6_radial)"/><path d="M390.236 148.062c-7.909-5.712-16.257-11.863-24.165-18.014l-11.863-9.227-11.863-9.227c-7.909-6.151-15.817-12.302-23.286-18.453-7.909-6.151-15.378-12.742-22.847-19.332l-5.712 7.908c8.787 4.833 17.135 10.106 25.483 15.817 8.348 5.273 16.696 10.985 25.044 16.696l12.302 8.348 12.302 8.348c8.348 5.712 16.257 11.424 24.165 17.136h.44z" fill="url(#paint7_radial)"/><path d="M951.307 199.907c-32.074 12.303-35.589 42.179-56.678 50.527 0 0 5.272-5.272 4.393-7.469 0 0-10.544 15.817-29.437 19.332 0 0 8.348-4.393 8.348-7.469 0 0-12.302 10.984-32.953 15.817 0 0 10.545-5.712 12.303-9.226 0 0-23.287 13.18-34.71 13.62 0 0 7.908-3.515 10.105-8.348 0 0-14.06 10.984-32.952 10.545 0 0 7.03-1.758 10.984-10.106 0 0-7.03 7.469-25.483 5.712-18.014-2.197-47.891 8.348-47.891 8.348s28.998-11.863 41.3-25.483c12.302-13.621 22.408-12.742 22.408-12.742-8.348-3.075-14.939 0-14.939 0 14.06-12.741 31.635-14.059 31.635-14.059-4.833-2.197-13.181.439-13.181.439 8.787-7.469 35.149-13.181 35.149-13.181-3.515-1.318-15.378 1.318-15.378 1.318 18.454-9.666 35.149-10.105 35.149-10.105-1.757-2.197-10.984 0-10.984 0 16.257-10.545 34.71-5.273 34.71-5.273-.879-2.197-8.348-2.636-8.348-2.636 21.529-7.469 44.376 12.742 76.45.439z" fill="url(#paint8_radial)"/><path d="M951.308 199.906c-11.862 26.362 3.955 46.133-3.954 63.708 0 0 0-6.151-1.757-7.03 0 0 3.515 15.817-6.152 28.998 0 0 2.197-7.909.44-9.227 0 0-.879 13.621-10.105 28.998 0 0 3.075-9.666 1.757-12.741 0 0-5.712 21.529-12.742 28.559 0 0 2.637-6.591 1.318-10.985 0 0-1.757 14.939-13.181 25.923 0 0 3.076-5.272.44-12.302 0 0 .439 8.787-11.863 18.453-11.863 9.666-23.286 33.392-23.286 33.392s10.105-24.165 9.226-39.543c-.878-15.378 5.712-21.09 5.712-21.09-7.03 3.076-8.787 8.788-8.787 8.788.439-15.817 10.544-27.241 10.544-27.241-3.954 1.758-7.469 7.909-7.469 7.909.879-9.666 13.181-28.559 13.181-28.559-3.075 1.318-8.348 10.105-8.348 10.105 5.273-16.695 14.939-26.801 14.939-26.801-2.197 0-6.591 6.591-6.591 6.591 3.515-15.818 17.575-23.726 17.575-23.726-1.758-.879-6.591 3.075-6.591 3.075 8.348-17.574 33.832-18.892 45.694-45.254z" fill="url(#paint9_radial)"/><path d="M951.307 199.908c8.348 21.969 28.998 24.605 34.71 39.104 0 0-3.515-3.515-5.273-3.076 0 0 10.985 7.03 13.181 20.211 0 0-3.075-5.712-4.833-5.712 0 0 7.47 8.348 10.988 22.408 0 0-3.958-7.469-6.155-8.348 0 0 9.225 15.817 9.225 24.165 0 0-2.19-5.272-5.71-7.03 0 0 7.47 9.666 7.47 22.847 0 0-1.32-4.833-7.03-7.469 0 0 5.27 4.833 3.95 17.575-1.31 12.741 5.72 32.952 5.72 32.952s-8.352-19.771-17.579-28.559c-9.227-8.348-8.787-15.377-8.787-15.377-2.197 5.711 0 10.105 0 10.105-8.788-9.666-9.666-21.968-9.666-21.968-1.318 3.515.439 8.787.439 8.787-5.272-6.151-8.787-24.165-8.787-24.165-.879 2.636.879 10.545.879 10.545-6.591-12.742-7.03-24.165-7.03-24.165-1.318 1.318 0 7.908 0 7.908-7.03-11.423-3.515-24.165-3.515-24.165-1.318.44-1.758 5.712-1.758 5.712-6.151-14.499 7.909-29.877-.439-52.285z" fill="url(#paint10_radial)"/><path d="M951.309 199.907c14.499 6.59 25.922-2.197 35.588 2.197 0 0-3.515 0-3.954.878 0 0 8.787-1.757 16.256 3.515 0 0-4.393-1.318-5.272-.439 0 0 7.913.439 16.253 5.712 0 0-5.27-1.758-7.03-.879 0 0 12.31 3.075 16.26 7.03 0 0-3.51-1.318-6.15-.879 0 0 8.35.879 14.5 7.469 0 0-3.08-1.757-7.03-.439 0 0 4.83 0 10.1 6.59 5.28 6.591 18.46 13.181 18.46 13.181s-13.62-5.711-21.97-5.272c-8.35.439-11.86-3.076-11.86-3.076 1.75 3.955 4.83 4.833 4.83 4.833-8.79-.439-15.38-5.711-15.38-5.711.88 2.196 4.39 3.954 4.39 3.954-5.27-.439-15.812-7.469-15.812-7.469.878 1.757 5.711 4.833 5.711 4.833-9.226-3.076-14.938-8.348-14.938-8.348 0 1.318 3.954 3.515 3.954 3.515-8.787-2.197-13.181-9.666-13.181-9.666-.439.878 1.758 3.515 1.758 3.515-10.106-4.394-10.984-18.454-25.483-25.044z" fill="url(#paint11_radial)"/><path d="M951.309 199.912c-26.362-11.863-27.68-36.907-45.255-44.816 0 0 3.954 4.833 3.075 6.591 0 0-7.908-14.06-23.725-17.575 0 0 7.03 4.394 6.59 6.591 0 0-9.666-9.666-26.801-14.939 0 0 8.787 5.273 10.105 8.348 0 0-18.892-12.302-28.558-13.181 0 0 6.59 3.076 7.908 7.469 0 0-11.423-10.105-27.24-10.544 0 0 5.711 1.757 8.787 8.787 0 0-5.712-6.59-21.09-5.712-15.377.879-39.543-9.226-39.543-9.226s23.726 11.423 33.392 23.286c9.666 11.863 18.454 11.863 18.454 11.863-7.03 2.197-12.303-.44-12.303-.44 10.984 11.424 25.923 13.181 25.923 13.181-4.394 1.319-10.984-1.318-10.984-1.318 7.03 6.591 28.558 12.742 28.558 12.742-3.075.879-12.741-1.758-12.741-1.758 14.938 9.227 28.998 10.106 28.998 10.106-1.757 1.757-9.227-.44-9.227-.44 13.181 9.667 28.998 6.152 28.998 6.152-.878 1.757-7.029 1.757-7.029 1.757 17.574 7.03 37.346-8.348 63.708 3.076z" fill="url(#paint12_radial)"/><path d="M951.311 199.914c-8.348-21.968 5.273-37.785 0-52.284 0 0-.439 5.272-1.757 5.711 0 0 3.515-12.741-3.515-24.165 0 0 1.318 6.591 0 7.909 0 0 0-11.424-7.03-24.165 0 0 1.757 7.908.879 10.545 0 0-3.955-18.014-8.788-24.166 0 0 1.758 5.712.44 8.788 0 0-.879-12.303-9.666-21.969 0 0 2.196 4.394 0 10.106 0 0 .439-7.03-8.788-15.378-9.226-8.348-17.574-28.559-17.574-28.559s7.03 20.211 5.712 32.953c-1.319 12.302 3.954 17.574 3.954 17.574-5.712-2.636-7.03-7.469-7.03-7.469-.439 13.181 7.469 22.847 7.469 22.847-3.515-1.757-5.712-7.03-5.712-7.03 0 7.909 9.227 24.165 9.227 24.165-2.197-1.318-6.151-8.348-6.151-8.348 3.515 14.06 10.984 22.408 10.984 22.408-1.757 0-5.272-5.712-5.272-5.712 2.196 13.181 13.181 20.211 13.181 20.211-1.318.439-5.273-3.075-5.273-3.075 5.273 14.938 25.923 17.135 34.71 39.103z" fill="url(#paint13_radial)"/><path d="M951.309 199.914c6.59-14.499 20.65-15.378 25.043-25.044 0 0-2.636 2.197-3.515 1.758 0 0 7.909-4.394 9.667-13.181 0 0-2.197 3.954-3.515 3.954 0 0 5.272-5.272 8.348-14.938 0 0-3.076 4.833-4.833 5.711 0 0 7.029-10.544 7.469-15.817 0 0-1.758 3.515-3.955 4.394 0 0 5.712-6.151 5.712-15.378 0 0-.879 3.076-4.833 4.833 0 0 3.515-3.075 3.076-11.863-.44-8.348 5.272-21.968 5.272-21.968s-6.59 13.181-13.181 18.453c-6.59 5.273-6.59 10.106-6.59 10.106-1.318-3.955.439-7.03.439-7.03-6.59 6.151-7.469 14.499-7.469 14.499-.879-2.197.879-6.151.879-6.151-3.955 3.954-7.03 16.256-7.03 16.256-.44-1.757.879-7.03.879-7.03-5.273 8.348-5.712 16.257-5.712 16.257-.879-.879.439-5.272.439-5.272-5.272 7.469-3.515 16.256-3.515 16.256-.879-.439-.879-3.954-.879-3.954-4.833 9.666 4.394 20.65-2.196 35.149z" fill="url(#paint14_radial)"/><path d="M930.658 208.257c8.787-3.515 17.575-6.59 26.801-9.666l13.181-4.833 13.181-4.833c8.788-3.075 18.019-6.151 26.799-9.226 8.79-3.076 18.02-5.712 27.24-7.909l-3.51-8.787c-8.35 4.393-17.14 8.348-25.48 12.302-8.79 3.954-17.579 7.469-25.927 10.984l-13.181 5.273-13.181 5.272-26.362 10.545.439.878z" fill="url(#paint15_radial)"/><path d="M1209.21 230.225c-1.75-11.863-11.86-14.938-13.18-22.847 0 0 1.32 2.197 2.2 2.197 0 0-4.83-4.833-4.39-11.424 0 0 .87 3.076 1.75 3.515 0 0-2.63-4.833-3.07-12.302 0 0 1.32 3.954 2.19 4.833 0 0-3.07-8.787-2.19-12.741 0 0 .44 3.075 2.19 3.954 0 0-2.63-5.712-1.31-11.863 0 0 0 2.636 2.63 4.394 0 0-2.19-3.076 0-8.788 1.76-6.151.44-16.696.44-16.696s2.2 10.545 5.71 15.818c3.52 5.272 2.64 8.348 2.64 8.348 1.76-2.637.88-4.833.88-4.833 3.51 5.711 2.63 11.862 2.63 11.862.88-1.318.88-4.393.88-4.393 1.76 3.515 1.76 12.741 1.76 12.741.88-1.318.44-5.272.44-5.272 2.2 7.03.88 12.742.88 12.742.88-.44.88-3.955.88-3.955 2.19 6.151-.44 12.303-.44 12.303.88 0 1.32-2.637 1.32-2.637 1.75 7.03-6.59 13.621-4.84 25.044z" fill="url(#paint16_radial)"/><path d="M1209.22 230.229c-7.91-5.712-15.82-1.757-21.09-5.712 0 0 2.19.44 2.63 0 0 0-5.71 0-9.22-3.954 0 0 2.63 1.318 3.07.879 0 0-4.39-1.318-9.23-5.273 0 0 3.08 1.758 4.4 1.758 0 0-7.03-3.515-8.79-6.151 0 0 2.2 1.318 3.52 1.318 0 0-4.84-1.758-7.91-6.151 0 0 1.75 1.318 3.95.878 0 0-3.07-.439-5.27-5.272-2.2-4.833-9.67-10.105-9.67-10.105s7.47 5.272 12.74 5.711c5.28.879 6.6 3.515 6.6 3.515-.44-2.636-2.2-3.515-2.2-3.515 5.27 1.318 8.35 5.712 8.35 5.712-.44-1.318-2.2-3.075-2.2-3.075 3.08.878 8.79 6.59 8.79 6.59-.44-.879-2.64-3.515-2.64-3.515 5.27 3.076 7.91 7.03 7.91 7.03 0-.879-1.76-2.636-1.76-2.636 5.27 2.197 7.03 7.469 7.03 7.469.44-.439-.44-2.636-.44-2.636 4.84 2.636 3.52 11.423 11.43 17.135z" fill="url(#paint17_radial)"/><path d="M1209.21 230.232c-7.9 1.318-10.1 7.908-15.81 8.787 0 0 1.31-.879 1.31-1.318 0 0-3.07 3.076-7.9 3.076 0 0 2.19-.879 2.19-1.319 0 0-3.51 1.758-8.34 2.197 0 0 2.63-.878 3.51-1.757 0 0-6.15 1.757-8.79 1.318 0 0 2.2-.439 2.64-1.318 0 0-3.96 1.757-8.35.879 0 0 1.76 0 3.08-1.758 0 0-2.2 1.318-6.15 0-3.96-1.318-11.43-.439-11.43-.439s7.47-1.318 10.99-3.955c3.51-2.636 5.71-1.757 5.71-1.757-1.76-1.318-3.52-.879-3.52-.879 3.96-2.197 7.91-1.757 7.91-1.757-.88-.879-3.07-.44-3.07-.44 2.63-1.318 8.78-1.318 8.78-1.318-.88-.439-3.51-.439-3.51-.439 4.83-1.318 8.79-.439 8.79-.439-.44-.44-2.64-.44-2.64-.44 4.39-1.757 8.35.44 8.35.44 0-.44-1.76-.879-1.76-.879 5.71-.879 10.11 4.833 18.01 3.515z" fill="url(#paint18_radial)"/><path d="M1209.21 230.224c-3.08 4.393-.88 8.787-3.08 11.863v-1.318s0 3.075-2.19 5.272c0 0 .88-1.318.44-1.757 0 0-.88 2.636-3.08 5.272 0 0 .88-1.758.88-2.197 0 0-1.76 3.954-3.51 4.833 0 0 .87-1.318.43-2.197 0 0-.87 2.636-3.51 4.394 0 0 .88-.879.44-2.197 0 0-.44 1.758-3.08 3.076-2.63 1.318-5.71 5.272-5.71 5.272s2.64-4.394 3.52-7.03c.44-3.075 1.75-3.515 1.75-3.515a6.229 6.229 0 00-2.19 1.318c.88-3.075 3.07-4.833 3.07-4.833-.88 0-1.75 1.318-1.75 1.318.44-1.757 3.51-4.833 3.51-4.833-.44 0-1.76 1.758-1.76 1.758 1.76-3.076 3.96-4.394 3.96-4.394-.44 0-1.32.879-1.32.879 1.32-3.076 4.39-3.954 4.39-3.954-.44 0-1.32.439-1.32.439 2.2-3.515 7.03-3.076 10.11-7.469z" fill="url(#paint19_radial)"/><path d="M1209.21 230.219c5.71-7.908 14.5-6.59 18.45-12.302 0 0-1.75.879-2.63.439 0 0 5.27-1.757 7.47-7.029 0 0-1.76 2.196-2.64 1.757 0 0 3.96-2.636 7.03-7.909 0 0-2.64 2.637-3.51 2.637 0 0 5.27-5.712 6.59-8.788 0 0-1.32 1.758-3.08 2.197 0 0 3.96-3.075 5.71-8.348 0 0-.88 1.758-3.51 2.197 0 0 2.63-1.318 3.51-6.59.88-5.273 5.71-12.742 5.71-12.742s-5.71 7.03-10.1 9.666c-4.83 2.197-5.27 5.272-5.27 5.272-.44-2.636.88-3.954.88-3.954-4.84 3.076-6.16 7.909-6.16 7.909 0-1.318 1.32-3.515 1.32-3.515-2.63 1.757-6.15 8.787-6.15 8.787 0-1.318 1.76-4.394 1.76-4.394-3.96 4.394-5.27 9.227-5.27 9.227-.44-.879.88-3.076.88-3.076-3.96 3.955-3.96 9.227-3.96 9.227-.44-.439 0-2.636 0-2.636-4.83 6.151-1.32 14.06-7.03 21.968z" fill="url(#paint20_radial)"/><path d="M1209.21 230.22c7.91-1.318 12.3 4.394 17.58 3.515 0 0-1.76-.439-1.76-.878 0 0 3.95 2.197 8.35.439 0 0-2.2 0-2.64-.439 0 0 3.95.878 8.79-.44 0 0-3.08 0-3.52-.439 0 0 6.59 0 8.79-1.318 0 0-2.2.439-3.08-.44 0 0 4.4.44 7.91-1.757 0 0-1.75.439-3.51-.879 0 0 2.19.879 5.71-1.757 3.51-2.636 10.98-3.954 10.98-3.954s-7.47.878-11.42-.44-6.15 0-6.15 0c1.32-1.757 3.07-1.757 3.07-1.757-4.39-.879-8.34.878-8.34.878.88-.878 2.63-1.318 2.63-1.318-2.63-.439-8.78 1.318-8.78 1.318.43-.878 3.51-1.757 3.51-1.757-4.83 0-8.35 2.197-8.35 2.197 0-.44 2.2-1.318 2.2-1.318-4.83 0-7.91 3.075-7.91 3.075 0-.439 1.32-1.318 1.32-1.318-4.83.879-7.03 7.469-15.38 8.787z" fill="url(#paint21_radial)"/><path d="M1209.21 230.223c4.4 3.075 3.96 7.908 6.6 10.105 0 0-.44-.879-.44-1.318 0 0 .87 3.076 3.95 4.394 0 0-1.32-.879-.88-1.318 0 0 1.32 2.196 4.4 3.954l-1.76-1.758s3.07 3.076 4.83 3.515c0 0-.88-.878-1.32-1.757 0 0 1.76 2.197 4.84 3.075 0 0-.88-.439-1.32-2.196 0 0 .88 1.318 3.51 1.757 3.08.439 7.03 3.515 7.03 3.515s-3.95-3.076-5.27-5.712c-1.32-2.636-3.08-3.075-3.08-3.075 1.32 0 2.2.439 2.2.439-1.76-2.636-4.39-3.515-4.39-3.515.88 0 2.19.439 2.19.439-.87-1.757-4.83-3.514-4.83-3.514.44 0 2.2.878 2.2.878-2.64-2.197-5.27-3.075-5.27-3.075.44-.44 1.75.439 1.75.439-2.19-2.197-5.27-2.197-5.27-2.197 0-.439 1.32 0 1.32 0-2.2-1.757-6.59.44-10.99-3.075z" fill="url(#paint22_radial)"/><path d="M1207.89 222.756c.44 3.076.88 6.591 1.32 9.666l.88 4.833.44 4.833c.44 3.076.88 6.591 1.32 9.666.44 3.076.44 6.591.88 9.666l3.07-.439c-.88-3.076-1.75-6.151-2.19-9.666-.88-3.076-1.32-6.59-1.76-9.666l-.88-4.833-.88-4.833c-.88-2.636-1.32-6.151-2.2-9.227z" fill="url(#paint23_radial)"/><path d="M144.19 193.313c-18.453 4.393-22.847 20.65-35.149 23.286 0 0 3.075-2.636 3.075-3.954 0 0-7.029 7.908-17.574 8.348 0 0 4.833-1.758 5.272-3.515 0 0-7.469 4.833-19.332 6.151 0 0 6.151-2.197 7.47-3.954 0 0-13.621 5.711-20.212 4.833 0 0 4.394-1.319 6.152-3.515 0 0-8.348 4.833-18.893 3.515 0 0 3.954-.44 6.59-4.833 0 0-4.393 3.514-14.499 1.318-9.666-2.637-26.8.878-26.8.878s16.695-4.393 24.604-10.984c7.908-6.59 13.18-5.272 13.18-5.272-4.393-2.636-8.347-1.318-8.347-1.318 8.787-6.151 18.453-5.273 18.453-5.273-2.636-1.318-7.03-.439-7.03-.439 5.272-3.515 20.21-4.394 20.21-4.394-1.757-.878-8.347-.439-8.347-.439 10.984-3.954 20.21-2.636 20.21-2.636-.878-1.318-6.15-.879-6.15-.879 9.666-4.394 19.332-.439 19.332-.439-.44-1.318-4.394-2.197-4.394-2.197 12.742-2.636 23.726 10.105 42.179 5.712z" fill="url(#paint24_radial)"/><path d="M144.19 193.311c-8.348 13.62-1.318 25.483-7.03 34.71 0 0 .439-3.515-.439-3.954 0 0 .878 8.787-5.712 15.377 0 0 1.757-3.954.879-5.272 0 0-1.318 7.469-7.47 14.938 0 0 2.197-5.272 2.197-7.029 0 0-4.833 11.423-9.226 14.938 0 0 2.196-3.515 1.318-5.712 0 0-2.197 7.909-9.227 13.181 0 0 2.197-2.636 1.318-6.59 0 0-.439 4.833-7.908 9.226-7.47 4.394-15.378 16.696-15.378 16.696s7.469-12.741 7.908-21.089c.879-8.348 4.833-10.984 4.833-10.984-3.954 1.318-5.711 3.954-5.711 3.954 1.757-8.787 7.908-14.06 7.908-14.06-2.197.44-4.833 3.954-4.833 3.954 1.318-5.272 9.227-14.499 9.227-14.499-1.758.44-5.273 4.833-5.273 4.833 3.955-8.787 10.106-13.62 10.106-13.62-1.318-.439-3.954 3.076-3.954 3.076 3.075-8.348 11.423-11.863 11.423-11.863-.879-.439-3.954 1.318-3.954 1.318 6.59-8.787 20.65-7.909 28.998-21.529z" fill="url(#paint25_radial)"/><path d="M144.189 193.314c3.076 12.741 14.06 15.817 16.257 24.165 0 0-1.758-2.197-2.636-2.197 0 0 5.711 4.833 5.711 12.302 0 0-1.318-3.515-2.197-3.515 0 0 3.515 5.273 4.394 13.181 0 0-1.757-4.393-2.636-5.272 0 0 3.954 9.666 3.515 14.06 0 0-.879-3.076-2.636-4.394 0 0 3.515 5.712 2.197 13.181 0 0-.44-2.636-3.076-4.833 0 0 2.636 3.076.879 9.666-1.758 6.59.439 18.453.439 18.453s-3.076-11.423-7.469-16.696c-4.394-5.272-3.515-9.226-3.515-9.226-1.758 3.075-.879 5.712-.879 5.712-3.954-6.152-3.515-12.742-3.515-12.742-.878 1.757-.439 4.833-.439 4.833-2.197-3.954-3.076-14.06-3.076-14.06-.878 1.318-.439 5.712-.439 5.712-2.636-7.469-1.757-13.62-1.757-13.62-.879.439-.44 4.393-.44 4.393-3.075-6.59-.439-13.62-.439-13.62-.879 0-1.318 3.076-1.318 3.076-2.636-8.348 6.151-15.818 3.075-28.559z" fill="url(#paint26_radial)"/><path d="M144.191 193.313c7.47 4.833 14.499.878 19.332 3.954 0 0-1.757 0-2.196.439 0 0 4.833-.439 8.787 3.076 0 0-2.197-.879-2.636-.44 0 0 4.393.879 8.348 4.394 0 0-3.076-1.318-3.955-1.318 0 0 6.591 2.636 8.348 5.272 0 0-1.757-1.318-3.075-.878 0 0 4.393 1.318 7.469 5.272 0 0-1.318-1.318-3.954-.879 0 0 2.636.44 5.272 4.394s9.227 8.787 9.227 8.787-7.03-3.954-11.863-4.393c-4.833-.44-6.151-2.637-6.151-2.637.439 2.197 2.197 3.076 2.197 3.076-4.833-.879-7.909-4.394-7.909-4.394.439 1.318 2.197 2.636 2.197 2.636-3.076-.439-8.348-5.272-8.348-5.272.439.879 2.636 3.076 2.636 3.076-4.833-2.197-7.469-5.712-7.469-5.712 0 .879 1.757 2.197 1.757 2.197-4.833-1.758-6.59-6.151-6.59-6.151-.439.439.879 2.196.879 2.196-5.273-3.954-4.833-11.862-12.303-16.695z" fill="url(#paint27_radial)"/><path d="M144.193 193.315c-13.62-8.348-12.302-22.408-21.529-28.119 0 0 1.757 3.075 1.318 3.954 0 0-3.076-8.348-11.863-11.424 0 0 3.515 2.637 3.076 3.955 0 0-4.833-6.151-13.621-10.106 0 0 4.394 3.515 4.833 5.273 0 0-9.226-8.348-14.499-9.227 0 0 3.515 2.197 3.955 4.833 0 0-5.273-6.151-14.06-7.909 0 0 3.076 1.318 3.954 5.712 0 0-2.636-3.954-10.984-4.833-8.348-.879-21.09-7.908-21.09-7.908s12.303 7.908 16.696 15.377c4.394 7.47 9.227 7.909 9.227 7.909-3.954.879-6.59-1.318-6.59-1.318 5.272 7.03 13.18 9.226 13.18 9.226-2.196.44-5.711-1.318-5.711-1.318 3.515 4.394 14.938 9.227 14.938 9.227-1.757.439-7.03-2.197-7.03-2.197 7.47 6.151 14.939 7.469 14.939 7.469-.879.879-5.272-.878-5.272-.878 6.59 6.151 15.377 5.711 15.377 5.711-.439.879-3.954.44-3.954.44 9.227 5.272 21.09-2.197 34.71 6.151z" fill="url(#paint28_radial)"/><path d="M144.196 193.309c-3.076-12.742 5.712-20.211 3.954-28.559 0 0-.439 2.637-1.318 3.076 0 0 3.076-6.591-.439-13.62 0 0 .439 3.515-.44 4.393 0 0 .879-6.151-1.757-13.62 0 0 .439 4.394-.44 5.712 0 0-.878-10.106-3.075-14.06 0 0 .439 3.076-.44 4.833 0 0 .44-7.03-3.514-12.742 0 0 .878 2.637-.879 5.712 0 0 .879-3.954-3.515-9.227-4.394-5.272-7.469-16.695-7.469-16.695s2.197 11.862.439 18.453c-1.757 6.59.879 9.666.879 9.666-2.636-1.757-3.076-4.833-3.076-4.833-1.318 7.03 2.197 13.181 2.197 13.181-1.757-1.318-2.636-4.394-2.636-4.394-.439 4.394 3.515 14.06 3.515 14.06-1.318-.879-2.636-5.272-2.636-5.272.878 7.908 4.393 13.181 4.393 13.181-.878 0-2.197-3.515-2.197-3.515 0 7.469 5.712 12.302 5.712 12.302-.879 0-2.636-2.197-2.636-2.197 1.318 8.787 12.302 11.423 15.378 24.165z" fill="url(#paint29_radial)"/><path d="M144.191 193.315c4.833-7.469 12.742-7.03 15.818-11.863 0 0-1.758.879-2.197.879 0 0 4.393-1.758 6.151-6.591 0 0-1.758 1.758-2.197 1.758 0 0 3.515-2.636 5.712-7.469 0 0-2.197 2.636-3.076 2.636 0 0 4.394-5.273 5.273-8.348 0 0-1.319 1.757-2.637 2.197 0 0 3.515-3.076 4.394-7.909 0 0-.879 1.758-3.076 2.197 0 0 2.197-1.318 2.637-6.151.439-4.833 4.393-11.863 4.393-11.863s-4.393 6.59-8.787 9.227c-3.954 2.636-4.394 5.272-4.394 5.272-.439-2.197.879-3.954.879-3.954-3.954 3.075-5.272 7.469-5.272 7.469-.44-1.318.878-3.076.878-3.076-2.196 1.758-5.272 8.348-5.272 8.348 0-.878 1.318-3.954 1.318-3.954-3.515 4.394-4.394 8.348-4.394 8.348-.439-.439.44-2.636.44-2.636-3.515 3.515-3.076 8.787-3.076 8.787-.439-.439-.439-2.197-.439-2.197-2.197 4.833 1.757 11.424-3.076 18.893z" fill="url(#paint30_radial)"/><path d="M132.332 196.396c5.272-1.319 10.105-2.197 15.378-3.515l7.469-1.758 7.909-1.757c5.272-.879 10.105-2.197 15.377-3.076 5.273-.879 10.545-1.757 15.378-2.197l-1.318-5.272c-4.833 1.757-10.105 3.515-14.938 4.833s-10.106 2.636-14.939 3.954l-7.469 2.197-7.469 1.758c-5.273 1.318-10.106 2.636-15.378 3.514v1.319z" fill="url(#paint31_radial)"/><path d="M1112.56 322.933c-12.75 3.075-15.38 14.499-24.17 16.696 0 0 2.2-1.758 2.2-2.636 0 0-4.84 5.711-12.31 6.151 0 0 3.52-1.318 3.52-2.637 0 0-5.27 3.515-13.18 4.834 0 0 4.39-1.758 5.27-3.076 0 0-9.67 3.954-14.06 3.515 0 0 3.08-.879 4.39-2.636 0 0-5.71 3.515-13.18 2.636 0 0 2.64-.44 4.84-3.515 0 0-3.08 2.636-10.11.879-7.03-1.758-18.89.878-18.89.878s11.86-3.515 17.13-7.908c5.28-4.833 9.23-3.954 9.23-3.954-3.07-1.758-5.71-.879-5.71-.879 6.15-4.394 12.74-3.954 12.74-3.954-1.76-.879-4.83-.44-4.83-.44 3.95-2.636 14.06-3.515 14.06-3.515-1.32-.878-6.15 0-6.15 0 7.47-3.075 14.06-2.197 14.06-2.197-.44-.878-4.4-.439-4.4-.439 6.59-3.075 13.62-.439 13.62-.439 0-.879-3.07-1.318-3.07-1.318 8.34-1.758 16.25 7.029 29 3.954z" fill="url(#paint32_radial)"/><path d="M1112.56 322.933c-5.71 9.666-.44 18.014-4.4 24.165 0 0 0-2.197-.44-2.636 0 0 .44 6.151-3.51 10.984 0 0 1.32-3.076.44-3.515 0 0-.88 5.272-5.27 10.545 0 0 1.75-3.515 1.31-4.833 0 0-3.07 7.908-6.15 10.544 0 0 1.32-2.636.88-3.954 0 0-1.32 5.712-6.15 9.227 0 0 1.32-1.758.88-4.833 0 0-.44 3.515-5.27 6.59-4.84 3.076-10.55 11.863-10.55 11.863s4.84-8.787 5.27-14.938c.44-5.712 3.08-7.909 3.08-7.909-2.64.879-3.95 3.076-3.95 3.076.87-6.151 5.27-10.106 5.27-10.106-1.76.44-3.08 2.636-3.08 2.636.88-3.515 6.15-10.544 6.15-10.544-1.31.439-3.51 3.515-3.51 3.515 2.63-6.152 7.03-9.666 7.03-9.666-.88 0-2.64 2.196-2.64 2.196 2.2-6.151 7.91-8.348 7.91-8.348-.44-.439-2.64.879-2.64.879 3.96-6.151 13.63-5.712 19.34-14.938z" fill="url(#paint33_radial)"/><path d="M1112.55 322.931c2.2 8.787 10.11 10.545 11.43 16.696 0 0-1.32-1.318-1.76-1.318 0 0 3.95 3.075 4.39 8.348 0 0-.88-2.197-1.76-2.637 0 0 2.64 3.515 3.08 9.227 0 0-1.32-3.076-2.2-3.515 0 0 2.64 6.591 2.64 9.666 0 0-.44-2.197-1.76-3.075 0 0 2.64 3.954 1.76 9.226 0 0-.44-1.757-2.2-3.075 0 0 1.76 2.197.88 7.03s.88 12.741.88 12.741-2.2-7.908-5.71-11.863c-3.08-3.515-2.64-6.151-2.64-6.151-1.32 2.197-.44 3.954-.44 3.954-3.07-3.954-2.63-8.787-2.63-8.787-.88 1.318 0 3.515 0 3.515-1.76-2.636-2.2-9.666-2.2-9.666-.44.879 0 3.954 0 3.954-2.2-5.272-1.76-9.666-1.76-9.666-.44.44-.44 3.076-.44 3.076-2.19-4.833-.44-9.227-.44-9.227-.44 0-.88 2.197-.88 2.197-2.19-6.591 3.96-11.863 1.76-20.65z" fill="url(#paint34_radial)"/><path d="M1112.55 322.934c5.28 3.076 10.11.439 13.62 2.197 0 0-1.31 0-1.75.439 0 0 3.51-.439 6.15 2.197 0 0-1.76-.879-2.2-.439 0 0 3.08.439 6.15 3.075 0 0-2.19-.878-2.63-.878 0 0 4.39 1.757 5.71 3.514 0 0-1.32-.878-2.2-.439 0 0 3.08.879 5.27 3.515 0 0-.87-.879-2.63-.439 0 0 1.76 0 3.51 3.075 1.76 2.636 6.59 5.712 6.59 5.712s-4.83-2.636-8.34-3.076c-3.52 0-4.4-1.757-4.4-1.757.44 1.757 1.76 2.197 1.76 2.197-3.52-.44-5.71-3.076-5.71-3.076.44.879 1.75 1.758 1.75 1.758-2.19-.44-5.71-3.515-5.71-3.515 0 .878 1.76 2.197 1.76 2.197-3.51-1.319-5.27-3.955-5.27-3.955 0 .44 1.32 1.758 1.32 1.758-3.52-1.318-4.84-4.394-4.84-4.394 0 .439.44 1.318.44 1.318-3.51-2.636-3.07-7.908-8.35-10.984z" fill="url(#paint35_radial)"/><path d="M1112.56 322.94c-9.67-5.712-9.23-15.378-15.38-19.332 0 0 1.32 2.197.88 2.636 0 0-2.64-5.712-8.35-7.909 0 0 2.63 1.758 2.2 2.637 0 0-3.52-3.955-9.67-7.03 0 0 3.07 2.636 3.51 3.515 0 0-6.59-5.712-10.54-6.151 0 0 2.2 1.318 2.64 3.075 0 0-3.96-4.393-10.11-5.272 0 0 2.2.879 3.08 3.954 0 0-1.76-2.636-7.91-3.075-6.15-.44-14.94-5.273-14.94-5.273s8.79 5.273 11.86 10.545c3.08 4.833 6.59 5.272 6.59 5.272-3.07.44-4.83-.878-4.83-.878 3.95 4.833 9.23 6.151 9.23 6.151-1.76.439-3.96-.879-3.96-.879 2.64 3.075 10.55 6.151 10.55 6.151-1.32.439-4.84-1.318-4.84-1.318 5.28 4.394 10.55 5.272 10.55 5.272-.88.44-3.52-.878-3.52-.878 4.84 4.393 10.99 3.515 10.99 3.515-.44.439-2.64.439-2.64.439 6.59 3.954 14.94-.879 24.61 4.833z" fill="url(#paint36_radial)"/><path d="M1112.56 322.942c-2.2-8.787 3.95-14.06 2.19-20.211 0 0-.44 1.758-.87 2.197 0 0 1.75-4.833-.44-9.227 0 0 .44 2.636-.44 3.076 0 0 .44-4.394-1.76-9.666 0 0 .44 3.075 0 3.954 0 0-.88-7.03-2.2-9.666 0 0 .44 2.197 0 3.515 0 0 .44-4.833-2.63-8.787 0 0 .44 1.757-.44 3.954 0 0 .44-2.636-2.64-6.151-3.08-3.515-5.71-11.863-5.71-11.863s1.76 8.348.88 12.742c-.88 4.833.88 7.029.88 7.029-2.2-1.318-2.2-3.075-2.2-3.075-.88 4.833 1.76 9.227 1.76 9.227-1.32-.879-1.76-3.076-1.76-3.076-.44 3.076 2.64 9.666 2.64 9.666-.88-.439-2.2-3.515-2.2-3.515.88 5.712 3.07 9.227 3.07 9.227-.87 0-1.75-2.636-1.75-2.636.44 5.272 4.39 8.348 4.39 8.348-.44 0-1.76-1.319-1.76-1.319.88 5.273 8.79 7.03 10.99 16.257z" fill="url(#paint37_radial)"/><path d="M1112.55 322.94c3.08-5.272 8.79-4.833 10.55-8.787 0 0-1.32.878-1.32.439 0 0 3.08-1.318 4.39-4.833 0 0-.87 1.318-1.75 1.318 0 0 2.19-1.757 3.95-5.272 0 0-1.32 1.757-2.2 1.757 0 0 3.08-3.954 3.52-5.712 0 0-.88 1.319-1.76 1.758 0 0 2.2-2.197 3.08-5.712 0 0-.44 1.318-2.2 1.758 0 0 1.76-.879 1.76-4.394s3.07-8.348 3.07-8.348-3.07 4.833-5.71 6.59c-2.63 1.758-3.07 3.515-3.07 3.515-.44-1.757.44-2.636.44-2.636-2.64 2.197-3.52 5.273-3.52 5.273-.44-.879.44-2.197.44-2.197-1.76 1.318-3.51 5.712-3.51 5.712 0-.879.87-2.637.87-2.637-2.19 3.076-3.07 6.151-3.07 6.151-.44-.439.44-2.196.44-2.196-2.2 2.636-2.2 6.151-2.2 6.151-.44 0-.44-1.758-.44-1.758-1.76 3.955 1.32 8.348-1.76 14.06z" fill="url(#paint38_radial)"/><path d="M1104.2 325.131c3.52-.878 7.03-1.757 10.55-2.636l5.27-1.318 5.27-1.318c3.52-.879 7.03-1.757 10.55-2.197 3.51-.879 7.03-1.318 10.98-1.757l-.88-3.515c-3.51 1.318-7.03 2.636-10.54 3.515-3.52.878-7.03 2.197-10.55 3.075l-5.27 1.318-5.27 1.318c-3.08 1.319-6.59 2.197-10.11 3.515z" fill="url(#paint39_radial)"/><path d="M1254.47 481.982c-2.64-26.801-24.61-36.028-26.36-53.602 0 0 3.07 4.833 4.83 4.833 0 0-10.11-11.424-8.35-26.362 0 0 1.76 7.469 3.96 7.909 0 0-5.72-11.863-5.28-28.12 0 0 2.2 9.227 4.4 11.424 0 0-5.27-20.65-3.08-29.438 0 0 .88 6.591 3.96 9.227 0 0-5.28-13.181-1.32-27.241 0 0 0 5.712 5.27 10.545 0 0-4.39-7.03.88-20.211 5.27-13.62 3.51-38.225 3.51-38.225s3.08 24.605 10.99 36.468c7.91 12.302 4.83 19.771 4.83 19.771 4.4-5.712 3.08-11.423 3.08-11.423 7.03 13.181 3.95 27.24 3.95 27.24 2.64-3.075 2.2-10.105 2.2-10.105 3.95 8.348 2.63 29.437 2.63 29.437 1.76-2.636 2.2-11.862 2.2-11.862 3.52 16.256 0 28.558 0 28.558 1.76-.878 2.2-8.348 2.2-8.348 4.39 14.499-3.08 27.68-3.08 27.68 1.76 0 3.96-5.711 3.96-5.711 2.19 17.574-18.02 30.755-15.38 57.556z" fill="url(#paint40_radial)"/><path d="M1254.47 481.984c-17.57-14.499-36.03-6.59-47.45-16.256 0 0 4.83 1.318 5.71 0 0 0-12.74-.879-20.65-10.545 0 0 5.28 3.515 7.03 2.636 0 0-10.1-3.515-19.77-13.62 0 0 6.59 4.394 9.23 3.954 0 0-15.38-9.226-19.33-15.817 0 0 4.39 3.515 7.9 3.076 0 0-10.98-4.394-17.13-15.378 0 0 3.51 3.515 9.23 3.075 0 0-6.59-1.757-11.43-12.741-4.83-10.984-20.21-24.605-20.21-24.605s16.26 12.742 28.12 15.378c11.86 2.636 14.5 8.788 14.5 8.788-.88-5.712-4.83-8.348-4.83-8.348 11.86 3.954 18.45 13.62 18.45 13.62-.44-3.515-4.83-7.469-4.83-7.469 7.03 2.636 18.89 15.817 18.89 15.817-.44-2.636-5.71-8.348-5.71-8.348 11.86 7.469 17.13 17.135 17.13 17.135.44-1.757-3.51-6.59-3.51-6.59 11.42 6.151 14.5 18.453 14.5 18.453.88-1.318-1.32-5.712-1.32-5.712 12.3 9.227 7.91 28.998 25.48 43.497z" fill="url(#paint41_radial)"/><path d="M1254.47 481.981c-18.45 1.757-24.6 17.135-36.91 18.014 0 0 3.52-2.197 3.52-3.515 0 0-7.91 7.03-18.45 5.712 0 0 5.27-1.318 5.27-2.637 0 0-7.91 3.955-19.33 3.515 0 0 6.59-1.318 7.91-3.075 0 0-14.06 3.515-20.22 2.197 0 0 4.84-.44 6.59-2.637 0 0-8.78 3.955-18.89.879 0 0 3.96 0 7.03-3.515 0 0-4.83 3.076-14.06-.878-9.22-3.515-26.36-2.637-26.36-2.637s16.7-2.196 25.48-7.469c8.35-5.272 13.62-3.515 13.62-3.515-3.95-3.075-7.9-2.197-7.9-2.197 9.22-4.833 18.89-2.636 18.89-2.636-2.2-1.757-7.03-1.318-7.03-1.318 5.71-2.636 20.21-1.757 20.21-1.757-1.76-1.318-8.35-1.318-8.35-1.318 10.99-2.637 19.77 0 19.77 0-.44-1.319-5.71-1.758-5.71-1.758 10.11-3.075 18.89 2.197 18.89 2.197 0-1.318-3.95-2.636-3.95-2.636 12.74-1.318 21.53 12.741 39.98 10.984z" fill="url(#paint42_radial)"/><path d="M1254.47 481.986c-7.91 9.666-3.52 20.21-9.23 26.362 0 0 .44-2.637 0-3.076 0 0-.44 7.03-6.15 11.424 0 0 1.76-3.076 1.32-3.955 0 0-2.2 5.712-7.47 10.984 0 0 2.2-3.954 2.2-5.272 0 0-4.84 8.348-8.79 10.545 0 0 1.76-2.636 1.76-4.394 0 0-2.64 6.151-8.79 9.666 0 0 1.76-1.757 1.76-5.272 0 0-.88 3.954-7.03 6.59-6.15 2.636-14.06 11.424-14.06 11.424s7.03-9.227 8.35-15.817c1.31-6.591 4.83-8.348 4.83-8.348-3.08.439-4.83 2.636-4.83 2.636 2.19-6.591 7.47-10.106 7.47-10.106-1.76 0-3.96 2.637-3.96 2.637 1.32-3.955 8.79-10.545 8.79-10.545-1.32 0-4.83 3.075-4.83 3.075 4.39-6.59 9.66-9.666 9.66-9.666-.88-.439-3.51 2.197-3.51 2.197 3.51-6.151 10.1-7.908 10.1-7.908-.44-.44-3.07.439-3.07.439 6.59-6.151 17.57-3.954 25.48-13.62z" fill="url(#paint43_radial)"/><path d="M1254.47 481.985c14.5-17.575 33.83-13.181 43.5-25.044 0 0-4.39 2.197-5.71 1.318 0 0 12.3-3.075 18.45-14.499 0 0-4.83 4.394-6.59 3.515 0 0 9.67-5.272 17.14-17.135 0 0-5.72 5.272-8.35 5.712 0 0 13.18-11.863 15.82-18.893 0 0-3.96 4.393-7.47 4.833 0 0 10.1-6.591 13.62-18.453 0 0-2.64 3.954-8.79 4.832 0 0 6.15-3.075 8.79-14.498 2.63-11.863 15.37-28.12 15.37-28.12s-13.62 15.378-24.6 20.211c-10.98 4.833-12.74 11.423-12.74 11.423-.44-6.151 3.07-9.226 3.07-9.226-10.98 6.151-15.37 17.135-15.37 17.135-.44-3.515 3.07-7.909 3.07-7.909-6.59 3.955-15.82 19.332-15.82 19.332 0-2.636 3.96-9.226 3.96-9.226-10.11 9.666-13.62 19.771-13.62 19.771-.88-1.757 2.63-7.03 2.63-7.03-10.1 7.909-10.54 20.651-10.54 20.651-1.32-.879 0-5.712 0-5.712-9.23 10.984-1.32 29.437-15.82 47.012z" fill="url(#paint44_radial)"/><path d="M1254.47 481.984c18.45-1.758 27.68 11.862 39.98 10.984 0 0-3.95-1.318-3.95-2.636 0 0 8.78 5.272 18.89 2.196 0 0-5.27 0-5.71-1.757 0 0 8.79 2.197 19.77 0 0 0-6.59-.439-8.35-1.318 0 0 14.5.879 20.21-1.758 0 0-4.83.44-7.03-1.318 0 0 9.67 2.197 18.89-2.636 0 0-3.95.879-7.9-2.197 0 0 5.27 1.758 13.62-3.515 8.34-5.272 25.48-7.469 25.48-7.469s-17.14 1.318-26.36-2.636c-9.23-3.515-14.06-.879-14.06-.879 3.51-3.515 7.03-3.515 7.03-3.515-10.11-3.075-18.89.879-18.89.879 1.75-2.197 6.59-2.636 6.59-2.636-6.16-1.318-20.21 2.197-20.21 2.197 1.31-1.758 7.9-3.076 7.9-3.076-11.42-.439-19.33 3.515-19.33 3.515.44-1.318 5.27-2.636 5.27-2.636-10.54-.879-18.45 5.712-18.45 5.712 0-1.319 3.52-3.515 3.52-3.515-12.31.878-18.02 16.256-36.91 18.014z" fill="url(#paint45_radial)"/><path d="M1254.47 481.984c9.67 7.909 7.47 18.893 14.06 24.165 0 0-1.32-2.636-.44-3.075 0 0 1.76 7.03 7.91 10.105 0 0-2.63-2.636-2.2-3.515 0 0 3.08 5.273 9.67 9.666 0 0-3.07-3.075-3.07-4.833 0 0 6.59 7.47 10.54 8.788 0 0-2.2-2.197-2.64-3.955 0 0 3.52 5.712 10.11 7.469 0 0-2.2-1.318-2.64-4.832 0 0 1.76 3.514 8.35 4.832 6.59 1.319 15.82 8.348 15.82 8.348s-8.79-7.469-11.43-14.059c-2.63-6.151-6.59-7.03-6.59-7.03 3.52 0 5.28 1.757 5.28 1.757-3.52-6.151-9.67-8.787-9.67-8.787 1.76 0 4.39 1.758 4.39 1.758-2.19-3.515-10.54-8.788-10.54-8.788 1.32 0 5.27 2.197 5.27 2.197-5.27-5.712-10.98-7.469-10.98-7.469.88-.439 3.95 1.318 3.95 1.318-4.39-5.712-11.42-6.151-11.42-6.151.44-.44 3.07 0 3.07 0-6.59-4.394-16.69 0-26.8-7.909z" fill="url(#paint46_radial)"/><path d="M1252.71 464.409c.88 7.47 1.32 14.939 1.76 22.408l.88 10.984.88 10.984 1.32 22.408c.44 7.469.44 14.938.44 22.408l7.47-.879c-1.76-7.469-2.64-14.499-3.96-21.968-.88-7.47-2.19-14.939-3.07-21.969l-1.32-10.984-1.32-10.984c-.88-7.469-1.76-14.938-2.2-22.408h-.88z" fill="url(#paint47_radial)"/><path d="M-29.355 456.06c8.787-12.742 22.407-10.985 28.119-19.333 0 0-3.076 1.758-3.515.879 0 0 7.909-2.636 11.423-10.984 0 0-3.075 3.076-3.954 3.076 0 0 6.151-4.394 10.545-12.742 0 0-3.515 3.954-5.272 4.394 0 0 8.348-8.788 9.666-13.621 0 0-2.197 3.076-4.833 3.515 0 0 6.15-4.833 8.348-13.181 0 0-1.758 2.637-5.712 3.955 0 0 3.954-2.197 5.272-10.545.879-8.348 8.787-19.772 8.787-19.772s-8.347 11.424-15.377 15.378c-7.03 3.955-7.909 8.348-7.909 8.348-.44-3.954 1.318-6.59 1.318-6.59-7.03 4.833-9.666 12.302-9.666 12.302-.44-2.197 1.758-5.712 1.758-5.712-4.394 3.076-9.227 14.06-9.227 14.06-.44-1.758 2.197-6.591 2.197-6.591-6.151 7.03-7.909 14.06-7.909 14.06-.878-.879 1.318-4.833 1.318-4.833-6.15 6.151-6.15 14.499-6.15 14.499-.88-.439-.44-3.954-.44-3.954-6.59 8.787 0 20.65-8.787 33.392z" fill="url(#paint48_radial)"/><path d="M-29.355 456.056c12.302-2.196 19.332 6.591 27.68 4.833 0 0-2.637-.878-2.637-1.318 0 0 6.151 3.076 13.181.44 0 0-3.515 0-3.954-.879 0 0 6.151.879 13.181-1.318 0 0-4.394.439-5.712-.439 0 0 9.666-.44 13.62-2.197 0 0-3.075.439-4.832-.44 0 0 6.59.879 12.302-3.075 0 0-2.636.879-5.273-.879 0 0 3.515.879 9.227-3.075 5.272-3.955 16.696-6.591 16.696-6.591s-11.424 1.757-18.014 0-9.666.439-9.666.439c2.197-2.636 4.833-3.075 4.833-3.075-7.03-1.318-12.742 1.757-12.742 1.757 1.318-1.757 4.394-2.197 4.394-2.197-4.394-.878-13.62 2.637-13.62 2.637.878-1.318 5.272-2.637 5.272-2.637-7.909.44-13.18 3.515-13.18 3.515 0-.878 3.514-2.196 3.514-2.196-7.03 0-11.863 4.833-11.863 4.833 0-.879 2.197-2.637 2.197-2.637-8.787 1.319-12.302 11.863-24.604 14.499z" fill="url(#paint49_radial)"/><path d="M-29.355 456.057c7.03 4.833 6.15 12.302 10.984 15.817 0 0-.88-1.757-.44-2.197 0 0 1.758 4.394 6.151 6.591 0 0-1.757-1.758-1.757-2.197 0 0 2.197 3.515 7.03 5.712 0 0-2.197-2.197-2.636-3.076 0 0 4.833 4.833 7.469 5.273 0 0-1.758-1.318-2.197-2.636 0 0 2.636 3.514 7.47 4.393 0 0-1.758-.879-2.198-3.075 0 0 1.318 2.196 5.712 2.636 4.394.439 10.984 4.833 10.984 4.833s-6.15-4.833-8.348-8.787c-2.197-3.955-4.833-4.394-4.833-4.394 2.197-.439 3.515.879 3.515.879-2.636-3.955-7.03-5.273-7.03-5.273 1.318-.439 3.076.879 3.076.879-1.758-2.197-7.909-5.272-7.909-5.272.88 0 3.515 1.318 3.515 1.318-3.954-3.515-7.908-4.394-7.908-4.394.439-.439 2.636.879 2.636.879-3.515-3.515-8.348-3.515-8.348-3.515.44-.44 2.197 0 2.197 0-3.515-3.076-10.106.439-17.135-4.394z" fill="url(#paint50_radial)"/><path d="M181.541 373.017c-17.135 1.758-22.847 15.817-34.71 16.696 0 0 3.076-1.757 3.076-3.076 0 0-7.03 6.591-17.135 5.273 0 0 4.833-.879 5.272-2.636 0 0-7.469 3.515-18.014 3.515 0 0 6.151-1.318 7.469-2.637 0 0-13.181 3.515-18.892 1.758 0 0 4.393-.439 6.151-2.636 0 0-8.348 3.515-17.575.878 0 0 3.515 0 6.591-3.515 0 0-4.394 2.637-13.181-.878-8.788-3.515-24.605-2.636-24.605-2.636s15.817-1.758 23.726-7.03c7.909-4.833 12.742-3.076 12.742-3.076-3.515-2.636-7.03-2.197-7.03-2.197 8.787-4.393 17.574-2.636 17.574-2.636-2.196-1.757-6.59-1.318-6.59-1.318 5.272-2.636 18.893-1.757 18.893-1.757-1.758-1.318-7.47-1.318-7.47-1.318 10.545-2.197 18.454 0 18.454 0-.44-1.319-5.273-1.319-5.273-1.319 9.227-2.636 17.575 2.197 17.575 2.197 0-1.318-3.515-2.636-3.515-2.636 10.984-.439 19.332 12.302 36.467 10.984z" fill="url(#paint51_radial)"/><path d="M181.54 373.022c-9.226 10.984-4.393 22.847-10.544 30.317 0 0 .878-3.076 0-3.515 0 0-.44 7.908-7.03 13.181 0 0 2.197-3.515 1.757-4.394 0 0-2.197 6.59-8.787 12.741 0 0 2.636-4.393 2.636-6.151 0 0-5.712 9.666-10.105 12.303 0 0 2.197-3.076 2.197-5.273 0 0-3.076 7.03-10.106 10.984 0 0 2.197-2.197 2.197-6.151 0 0-.879 4.394-8.348 7.469-7.03 3.076-15.817 13.181-15.817 13.181s8.348-10.544 10.105-18.014c1.758-7.469 5.712-9.226 5.712-9.226-3.954.439-5.712 3.075-5.712 3.075 2.636-7.469 8.788-11.863 8.788-11.863-2.197.44-4.833 3.076-4.833 3.076 1.757-4.833 10.105-12.302 10.105-12.302-1.758.439-5.272 3.515-5.272 3.515 4.833-7.47 10.984-10.984 10.984-10.984-1.318-.44-3.955 2.196-3.955 2.196 3.955-7.469 11.863-9.226 11.863-9.226-.878-.44-3.515.878-3.515.878 6.151-7.469 18.454-4.833 27.68-15.817z" fill="url(#paint52_radial)"/><path d="M181.543 373.018c.879 11.863 10.984 15.817 11.424 23.726 0 0-1.319-2.197-2.197-2.197 0 0 4.393 4.833 3.515 11.863 0 0-.879-3.076-1.758-3.515 0 0 2.636 5.272 2.197 12.302 0 0-.879-3.954-1.757-4.833 0 0 2.196 9.227 1.318 13.181 0 0-.44-3.076-1.758-4.394 0 0 2.197 5.712.44 12.302 0 0 0-2.636-2.197-4.833 0 0 1.757 3.076-.44 9.227-2.196 5.712-1.757 16.696-1.757 16.696s-1.318-10.984-4.833-16.257c-3.515-5.272-2.197-8.787-2.197-8.787-1.757 2.636-1.318 4.833-1.318 4.833-3.076-5.712-1.758-11.863-1.758-11.863-1.318 1.318-.878 4.394-.878 4.394-1.758-3.515-.879-13.181-.879-13.181-.879.879-.879 5.272-.879 5.272-1.757-7.029 0-12.741 0-12.741-.878.439-.878 3.954-.878 3.954-1.758-6.59 1.318-12.302 1.318-12.302-.879 0-1.758 2.636-1.758 2.636-.439-7.909 8.348-13.62 7.03-25.483z" fill="url(#paint53_radial)"/><path d="M181.539 373.015c6.151 5.272 12.742 2.197 17.135 5.711 0 0-1.757-.439-2.197 0 0 0 4.394.44 7.47 3.955 0 0-1.758-1.318-2.637-.879 0 0 3.515 1.318 7.03 4.833 0 0-2.636-1.318-3.515-1.318 0 0 5.273 3.075 7.03 5.712 0 0-1.757-1.318-3.075-1.318 0 0 3.954 1.757 6.151 5.711 0 0-1.318-1.318-3.515-1.318 0 0 2.197.44 3.954 4.394 1.758 3.954 7.469 8.787 7.469 8.787s-5.711-4.394-10.105-5.712c-4.394-.878-5.272-3.075-5.272-3.075.439 2.197 1.757 3.075 1.757 3.075-4.394-1.318-6.59-4.833-6.59-4.833 0 1.319 1.757 2.637 1.757 2.637-2.636-.879-6.59-5.712-6.59-5.712 0 .879 2.196 3.075 2.196 3.075-4.393-2.636-6.151-6.151-6.151-6.151 0 .44 1.318 2.197 1.318 2.197-3.954-2.197-5.272-6.59-5.272-6.59-.439.439.439 2.196.439 2.196-3.954-3.075-2.196-10.105-8.787-15.377z" fill="url(#paint54_radial)"/><path d="M181.54 373.02c-10.984-9.227-8.348-21.968-15.817-28.119 0 0 1.318 3.075.878 3.515 0 0-1.757-7.909-9.226-11.863 0 0 2.636 3.075 2.196 3.954 0 0-3.514-6.151-10.984-10.984 0 0 3.515 3.954 3.515 5.272 0 0-7.469-8.348-12.302-10.105 0 0 2.636 2.636 3.076 4.833 0 0-3.955-6.591-11.863-8.787 0 0 2.636 1.757 3.075 5.711 0 0-1.757-3.954-9.226-5.711-7.47-1.758-18.014-10.106-18.014-10.106s10.105 8.788 13.181 15.817c3.075 7.03 7.469 8.348 7.469 8.348-3.954 0-6.151-2.197-6.151-2.197 3.954 7.03 10.984 10.106 10.984 10.106-2.197 0-5.273-2.197-5.273-2.197 2.637 4.394 12.303 10.105 12.303 10.105-1.758 0-6.151-2.636-6.151-2.636 6.151 6.591 12.741 8.788 12.741 8.788-.879.439-4.394-1.758-4.394-1.758 5.273 6.591 13.181 7.03 13.181 7.03-.439.879-3.514 0-3.514 0 7.469 6.59 19.332 1.757 30.316 10.984z" fill="url(#paint55_radial)"/><path d="M181.543 373.021c-.879-11.862 7.908-17.574 7.03-25.483 0 0-.879 2.637-1.758 2.637 0 0 3.515-5.712 1.318-12.303 0 0 0 3.515-.878 3.955 0 0 1.318-5.712 0-12.742 0 0 0 4.394-.879 5.272 0 0 .439-9.226-.879-13.181 0 0 0 3.076-.879 4.394 0 0 1.318-6.151-1.757-11.863 0 0 .439 2.636-1.318 4.833 0 0 1.318-3.515-2.197-8.787s-4.833-16.257-4.833-16.257.879 10.985-1.757 16.696c-2.197 5.712-.44 9.227-.44 9.227-2.197-2.197-2.197-4.833-2.197-4.833-1.757 6.151.44 12.302.44 12.302-1.318-1.318-1.758-4.394-1.758-4.394-.878 3.955 1.318 13.181 1.318 13.181-.878-.878-1.757-4.833-1.757-4.833-.439 7.47 2.197 12.303 2.197 12.303-.879-.44-1.758-3.515-1.758-3.515-.878 6.59 3.515 11.863 3.515 11.863-.879 0-2.197-2.197-2.197-2.197.879 7.908 10.545 11.863 11.424 23.725z" fill="url(#paint56_radial)"/><path d="M181.543 373.021c5.272-6.151 12.302-4.833 15.817-8.787 0 0-1.757.879-2.197.44 0 0 4.394-.879 6.591-5.273 0 0-1.758 1.758-2.197 1.318 0 0 3.515-1.757 6.151-6.151 0 0-2.197 1.758-3.076 2.197 0 0 4.834-4.394 5.712-6.59 0 0-1.318 1.318-2.636 1.757 0 0 3.515-2.197 4.833-6.59 0 0-.879 1.318-3.076 1.757 0 0 2.197-.879 3.076-5.272.879-4.394 5.712-10.106 5.712-10.106s-4.833 5.712-8.788 7.469c-3.954 1.758-4.393 3.955-4.393 3.955 0-2.197 1.318-3.515 1.318-3.515-3.954 2.197-5.712 6.151-5.712 6.151 0-1.318 1.318-3.076 1.318-3.076-2.197 1.318-5.711 7.03-5.711 7.03 0-.879 1.318-3.515 1.318-3.515-3.515 3.515-4.833 7.03-4.833 7.03-.44-.439.878-2.636.878-2.636-3.515 3.075-3.954 7.469-3.954 7.469-.439-.439 0-2.197 0-2.197-3.515 4.394-.879 10.984-6.151 17.135z" fill="url(#paint57_radial)"/><path d="M170.559 374.338l14.499-1.318 7.029-.44 7.03-.439c4.833-.439 9.666-.439 14.499-.879 4.833 0 9.666-.439 14.499 0l-.439-4.833c-4.833.879-9.227 1.758-14.06 2.637-4.833.878-9.666 1.318-14.059 1.757l-7.03.879-7.03.878c-5.272.44-10.105.879-14.938 1.758z" fill="url(#paint58_radial)"/><path d="M328.287 378.731c3.954 20.65 21.529 25.922 24.165 39.542 0 0-2.636-3.514-3.954-3.514 0 0 8.348 7.908 8.348 19.771 0 0-1.758-5.712-3.515-5.712 0 0 5.272 8.348 6.151 21.529 0 0-2.197-7.03-4.394-8.348 0 0 5.712 15.378 4.394 22.408 0 0-1.318-5.272-3.955-7.03 0 0 5.273 9.666 3.076 21.09 0 0-.439-4.394-4.833-7.47 0 0 3.954 5.273.439 15.817-3.075 10.545 0 29.438 0 29.438s-3.954-18.453-10.984-27.241c-7.03-8.787-5.272-14.938-5.272-14.938-2.636 4.833-1.758 8.787-1.758 8.787-6.151-9.666-4.833-20.65-4.833-20.65-1.757 2.636-.878 7.909-.878 7.909-3.515-6.152-3.955-22.408-3.955-22.408-1.318 2.197-.878 9.227-.878 9.227-3.955-12.303-2.197-21.969-2.197-21.969-1.318.879-1.318 6.591-1.318 6.591-4.394-10.984.439-21.529.439-21.529-1.318.439-2.636 4.394-2.636 4.394-2.197-13.621 12.302-25.044 8.348-45.694z" fill="url(#paint59_radial)"/><path d="M328.285 378.73c14.499 9.666 28.12 2.637 37.786 9.227 0 0-3.955-.439-4.394.439 0 0 9.666-.439 16.696 6.591 0 0-4.394-2.197-5.712-1.318 0 0 8.348 2.197 16.257 9.226 0 0-5.712-2.636-7.47-2.636 0 0 12.303 5.712 15.817 10.545 0 0-3.514-2.197-6.59-1.757 0 0 8.787 2.636 14.06 10.544 0 0-2.637-2.196-7.47-1.757 0 0 5.273.879 9.667 8.787 4.393 8.348 17.574 17.575 17.574 17.575s-13.62-8.788-22.847-9.666c-9.227-1.318-11.863-5.712-11.863-5.712.879 4.394 4.394 6.151 4.394 6.151-9.666-2.197-14.938-9.227-14.938-9.227.439 2.637 3.954 5.273 3.954 5.273-5.712-1.318-15.817-10.984-15.817-10.984.439 1.757 5.272 6.151 5.272 6.151-9.666-4.833-14.499-11.863-14.499-11.863-.439 1.318 3.515 4.833 3.515 4.833-9.227-3.954-12.302-13.181-12.302-13.181-.44.879 1.318 4.394 1.318 4.394-10.106-6.151-7.909-21.529-22.408-31.635z" fill="url(#paint60_radial)"/><path d="M328.285 378.731c14.06-2.636 17.575-14.938 27.241-16.695 0 0-2.636 1.757-2.197 2.636 0 0 5.272-5.712 13.62-5.712 0 0-3.954 1.318-3.954 2.197 0 0 5.712-3.515 14.499-3.954 0 0-4.833 1.757-5.712 3.075 0 0 10.545-3.954 15.378-3.075 0 0-3.515.878-4.833 2.636 0 0 6.591-3.515 14.499-2.197 0 0-3.075.439-5.272 3.075 0 0 3.515-2.636 10.984-.439 7.469 2.197 20.211 0 20.211 0s-12.742 2.636-18.893 7.469-10.105 3.515-10.105 3.515c3.075 1.758 6.151 1.318 6.151 1.318-6.591 4.394-14.06 3.515-14.06 3.515 1.757 1.318 5.272.879 5.272.879-4.393 2.636-15.377 2.636-15.377 2.636 1.318.879 6.59.44 6.59.44-8.348 2.636-15.378 1.318-15.378 1.318.44.878 4.833.878 4.833.878-7.469 3.076-14.938-.439-14.938-.439 0 .879 3.075 1.757 3.075 1.757-9.666 2.637-17.574-7.469-31.634-4.833z" fill="url(#paint61_radial)"/><path d="M328.285 378.729c5.273-7.909 1.318-15.818 5.273-21.09 0 0-.44 2.197 0 2.636 0 0 0-5.272 3.954-9.227 0 0-1.318 2.637-.879 3.076 0 0 1.318-4.394 5.273-9.227 0 0-1.758 3.076-1.319 3.955 0 0 3.076-7.03 5.712-8.788 0 0-1.318 2.197-.879 3.515 0 0 1.319-4.833 6.152-7.908 0 0-1.319 1.757-.879 3.954 0 0 .439-3.076 4.833-5.272 4.393-2.637 9.666-9.666 9.666-9.666s-4.833 7.469-5.273 12.741c-.439 5.273-3.075 6.591-3.075 6.591 2.636-.44 3.515-2.197 3.515-2.197-1.318 5.272-5.273 8.348-5.273 8.348 1.319-.44 3.076-2.197 3.076-2.197-.879 3.076-6.151 8.787-6.151 8.787.879-.439 3.515-2.636 3.515-2.636-2.636 5.272-6.591 7.909-6.591 7.909.879 0 2.637-1.758 2.637-1.758-2.197 5.273-7.47 7.03-7.47 7.03.44.439 2.197-.879 2.197-.879-3.954 5.273-12.741 4.394-18.014 12.303z" fill="url(#paint62_radial)"/><path d="M328.286 378.726c-9.666 14.499-25.044 12.742-31.635 22.408 0 0 3.076-1.758 4.394-1.318 0 0-9.227 3.075-13.181 12.302 0 0 3.076-3.515 4.833-3.515 0 0-7.03 4.833-11.863 14.499 0 0 3.955-4.393 6.151-5.272 0 0-9.226 10.105-10.984 15.817 0 0 2.636-3.515 5.273-3.954 0 0-7.03 5.711-9.227 14.938 0 0 1.757-3.076 6.151-4.394 0 0-4.394 2.637-5.712 11.863-1.318 9.227-9.666 22.847-9.666 22.847s9.227-12.741 17.575-17.574c8.348-4.394 8.787-9.666 8.787-9.666.44 4.393-1.757 7.469-1.757 7.469 7.908-5.273 10.545-14.06 10.545-14.06.439 2.636-1.758 6.591-1.758 6.591 4.833-3.515 10.545-15.818 10.545-15.818.439 1.758-2.636 7.47-2.636 7.47 7.029-7.909 9.226-16.257 9.226-16.257.879 1.318-1.318 5.712-1.318 5.712 7.03-7.03 6.591-16.696 6.591-16.696.878.439.439 4.394.439 4.394 6.591-9.666-.879-23.287 9.227-37.786z" fill="url(#paint63_radial)"/><path d="M328.286 378.725c-14.06 2.637-21.968-7.469-31.195-5.272 0 0 3.075.879 3.075 1.757 0 0-7.029-3.514-14.938-.439 0 0 3.954 0 4.833.879 0 0-6.59-1.318-15.378 1.318 0 0 5.273-.439 6.591.439 0 0-11.424.44-15.378 2.637 0 0 3.515-.44 5.272.878 0 0-7.469-.878-14.059 3.515 0 0 3.075-.879 6.151 1.318 0 0-4.394-1.318-10.106 3.515-6.151 4.833-18.892 7.469-18.892 7.469s12.741-2.196 20.21 0c7.47 2.197 10.985-.439 10.985-.439-2.197 3.076-5.273 3.076-5.273 3.076 7.909 1.318 14.499-2.197 14.499-2.197-1.318 1.757-4.833 2.636-4.833 2.636 4.833.879 15.378-3.076 15.378-3.076-.879 1.319-5.712 3.076-5.712 3.076 8.788-.439 14.499-3.954 14.499-3.954 0 1.318-3.954 2.197-3.954 2.197 8.348 0 13.62-5.712 13.62-5.712 0 .879-2.196 2.636-2.196 2.636 8.787-1.318 12.741-13.181 26.801-16.257z" fill="url(#paint64_radial)"/><path d="M328.284 378.727c-7.908-5.272-7.03-14.06-12.302-17.575 0 0 .879 1.758.879 2.197 0 0-1.758-5.272-7.03-7.469 0 0 2.197 1.758 1.757 2.636 0 0-2.636-3.954-7.908-6.59 0 0 2.636 2.197 2.636 3.515 0 0-5.712-5.273-8.787-6.151 0 0 1.757 1.318 2.196 3.075 0 0-3.075-3.954-8.348-5.272 0 0 1.758.879 2.197 3.515 0 0-1.318-2.636-6.59-3.076-5.273-.439-12.742-5.272-12.742-5.272s7.03 5.272 9.666 9.666c2.636 4.393 5.273 4.833 5.273 4.833-2.637.439-3.955-.879-3.955-.879 3.076 4.394 7.909 6.151 7.909 6.151-1.318.44-3.515-.879-3.515-.879 1.757 2.637 8.787 5.712 8.787 5.712-.878 0-3.954-1.318-3.954-1.318 4.394 3.954 9.227 5.272 9.227 5.272-.44.44-3.076-.878-3.076-.878 3.954 3.954 9.227 3.954 9.227 3.954-.44.439-2.636 0-2.636 0 5.272 3.515 12.741-.439 21.089 4.833z" fill="url(#paint65_radial)"/><path d="M330.923 392.353c-.879-5.712-2.197-11.424-3.076-17.135l-1.318-8.348-1.318-8.348-2.636-17.135c-.879-5.712-1.318-11.424-1.758-17.136l-5.712.879c1.758 5.712 3.076 10.984 4.394 16.696 1.318 5.712 2.636 10.984 3.954 16.696l1.758 8.348 1.757 8.348c1.318 5.711 2.197 11.423 3.515 16.696l.44.439z" fill="url(#paint66_radial)"/><path d="M696.478 130.483c-13.62 13.181-8.348 29.437-17.574 38.225 0 0 1.318-3.955.439-4.833 0 0-1.758 10.545-10.545 16.256 0 0 3.076-4.393 2.636-5.712 0 0-3.954 8.348-13.181 15.378 0 0 3.955-5.272 4.394-7.469 0 0-8.787 11.863-14.499 14.499 0 0 3.076-3.515 3.515-6.59 0 0-4.833 8.787-14.499 12.741 0 0 3.075-2.636 3.515-7.469 0 0-1.758 5.272-11.424 8.348-9.666 3.076-22.407 14.938-22.407 14.938s11.862-12.302 14.938-21.968c3.076-9.666 8.787-11.423 8.787-11.423-4.833 0-7.469 3.075-7.469 3.075 4.394-9.666 12.742-14.06 12.742-14.06-3.076 0-6.591 3.076-6.591 3.076 2.636-5.712 14.939-14.499 14.939-14.499-2.197 0-7.47 3.954-7.47 3.954 7.03-9.226 15.378-12.741 15.378-12.741-1.318-.44-5.711 2.636-5.711 2.636 6.151-8.787 16.256-10.545 16.256-10.545-.879-.879-4.833.439-4.833.439 9.227-8.347 25.044-3.075 38.664-16.256z" fill="url(#paint67_radial)"/><path d="M696.477 130.484c0 15.818 12.302 22.408 12.302 32.953 0 0-1.318-3.076-2.636-3.076 0 0 5.273 7.03 3.515 15.818 0 0-.439-4.394-1.757-4.834 0 0 2.636 7.03 1.318 16.696 0 0-.879-5.711-1.758-7.03 0 0 1.758 12.303 0 17.136 0 0 0-3.955-1.757-5.712 0 0 2.197 7.909-.879 16.257 0 0 .439-3.515-2.636-6.591 0 0 2.197 4.394-1.758 11.863-3.954 7.469-4.393 21.968-4.393 21.968s-.44-14.499-4.394-21.968c-3.954-7.469-1.757-11.863-1.757-11.863-2.637 3.076-2.637 6.591-2.637 6.591-3.075-8.348-.878-16.257-.878-16.257-1.758 1.757-1.758 5.712-1.758 5.712-1.757-5.273.44-17.136.44-17.136-1.318 1.319-1.758 7.03-1.758 7.03-1.318-9.666 1.758-16.696 1.758-16.696-1.318.44-1.758 4.834-1.758 4.834-1.757-8.788 3.515-15.818 3.515-15.818-.879 0-2.636 3.076-2.636 3.076-.439-10.984 11.863-17.135 12.302-32.953z" fill="url(#paint68_radial)"/><path d="M696.477 130.485c9.226 9.227 20.21 5.712 26.361 11.863 0 0-2.636-.878-3.075-.439 0 0 7.03 1.318 10.984 7.469 0 0-3.076-2.197-3.954-1.757 0 0 5.712 2.636 10.545 8.787 0 0-3.515-2.636-5.273-3.076 0 0 8.348 6.152 10.106 10.106 0 0-2.197-2.197-4.394-2.197 0 0 6.151 3.076 8.787 9.666 0 0-1.757-2.197-5.272-2.197 0 0 3.515 1.318 5.712 7.909 2.196 6.59 10.105 15.378 10.105 15.378s-8.787-8.348-15.378-10.545c-6.59-2.197-7.908-5.712-7.908-5.712 0 3.515 2.196 5.272 2.196 5.272-6.59-3.075-9.666-8.787-9.666-8.787 0 2.197 2.197 4.394 2.197 4.394-3.954-1.758-10.105-10.106-10.105-10.106 0 1.318 2.636 5.273 2.636 5.273-6.151-4.833-8.787-10.545-8.787-10.545-.44.879 1.757 3.954 1.757 3.954-6.151-3.954-7.03-11.423-7.03-11.423-.439.439.44 3.075.44 3.075-5.712-6.151-1.758-17.135-10.984-26.362z" fill="url(#paint69_radial)"/><path d="M696.477 130.484c8.787 0 12.302-7.03 18.453-7.03 0 0-1.758.879-1.758 1.318 0 0 3.955-3.075 8.788-1.757 0 0-2.636.439-2.636.879 0 0 3.954-1.318 9.226-.879 0 0-3.075.439-3.954.879 0 0 7.03-.879 9.666 0 0 0-2.197 0-3.076.878 0 0 4.394-1.318 8.788.44 0 0-1.758 0-3.515 1.318 0 0 2.636-1.318 6.59.879 4.394 2.196 12.302 2.636 12.302 2.636s-7.908 0-12.302 2.197c-4.393 2.196-6.59.878-6.59.878 1.757 1.758 3.515 1.318 3.515 1.318-4.394 1.758-8.788.44-8.788.44.879.878 3.076.878 3.076.878-2.636.879-9.666 0-9.666 0 .879.879 3.954 1.319 3.954 1.319-5.272.439-9.226-.879-9.226-.879.439.879 2.636.879 2.636.879-4.833.878-8.788-1.758-8.788-1.758 0 .44 1.758 1.318 1.758 1.318-6.151.879-9.666-6.151-18.453-6.151z" fill="url(#paint70_radial)"/><path d="M696.475 130.483c-15.817 0-22.408-12.741-32.952-12.741 0 0 3.075 1.318 3.075 2.636 0 0-7.03-5.273-15.817-3.515 0 0 4.394.439 4.833 1.757 0 0-7.03-2.636-16.696-1.757 0 0 5.712.879 7.03 1.757 0 0-12.302-2.196-17.135-.439 0 0 3.954 0 5.711 1.757 0 0-7.908-2.636-16.256.879 0 0 3.515-.439 6.59 2.636 0 0-4.393-2.196-11.862 1.758-7.47 3.954-21.969 4.393-21.969 4.393s14.499.44 21.969 4.394c7.469 3.954 11.862 1.758 11.862 1.758-3.075 2.636-6.59 2.636-6.59 2.636 8.348 3.515 16.256.879 16.256.879-1.757 1.757-5.711 1.757-5.711 1.757 5.272 1.757 17.135 0 17.135 0-1.318 1.318-7.03 1.757-7.03 1.757 9.666 1.319 16.696-1.318 16.696-1.318-.439 1.318-4.833 1.758-4.833 1.758 8.787 1.757 15.817-3.515 15.817-3.515 0 .879-3.075 2.636-3.075 2.636 10.544.439 17.135-12.302 32.952-11.863z" fill="url(#paint71_radial)"/><path d="M696.476 130.488c-9.227-9.226-5.712-20.211-11.863-26.362 0 0 .879 2.637.439 3.076 0 0-.878-7.03-7.029-11.424 0 0 2.196 3.076 1.757 3.955 0 0-2.636-5.712-8.787-10.545 0 0 2.636 3.515 2.636 5.272 0 0-6.151-8.348-10.105-10.105 0 0 2.196 2.197 2.196 4.394 0 0-3.075-6.151-9.666-8.788 0 0 2.197 1.758 2.197 5.273 0 0-1.318-3.955-7.908-5.712-6.591-2.197-15.378-10.545-15.378-10.545s7.908 8.787 10.105 15.378c2.197 6.59 5.712 7.908 5.712 7.908-3.515 0-5.272-2.196-5.272-2.196 2.636 6.59 8.787 9.666 8.787 9.666-2.197 0-4.394-2.197-4.394-2.197 1.758 3.954 10.106 10.105 10.106 10.105-1.318 0-5.273-3.075-5.273-3.075 4.833 6.151 10.545 8.787 10.545 8.787-.879.439-3.954-1.757-3.954-1.757 3.954 6.151 10.984 7.469 10.984 7.469-.439.439-3.076-.44-3.076-.44 7.03 5.712 18.014 2.637 27.241 11.863z" fill="url(#paint72_radial)"/><path d="M696.477 130.486c0-8.787 7.03-12.302 7.03-18.453 0 0-.879 1.757-1.318 1.757 0 0 3.075-3.954 1.757-8.787 0 0-.439 2.636-.878 2.636 0 0 1.318-3.954.878-9.226 0 0-.439 3.075-1.318 3.954 0 0 1.318-7.03 0-9.666 0 0 0 2.197-.878 3.076 0 0 1.318-4.394-.44-8.788 0 0 0 1.758-1.318 3.515 0 0 1.318-2.636-.879-6.59-2.196-4.394-2.196-12.303-2.196-12.303s-.44 7.909-2.637 12.303c-2.197 4.393-.878 6.59-.878 6.59-1.758-1.757-1.319-3.515-1.319-3.515-1.757 4.394-.439 8.787-.439 8.787-.879-.878-.879-3.075-.879-3.075-.878 2.636 0 9.666 0 9.666-.878-.879-.878-3.954-.878-3.954-.879 5.272.878 9.226.878 9.226-.878-.439-.878-2.636-.878-2.636-.879 4.833 1.757 8.787 1.757 8.787-.439 0-1.318-1.757-1.318-1.757-.879 5.712 6.151 9.227 6.151 18.453z" fill="url(#paint73_radial)"/><path d="M687.688 139.271c3.514-3.514 7.469-7.469 11.423-10.984l5.712-5.272 5.711-5.272c3.955-3.515 7.47-7.03 11.424-10.545 3.954-3.515 7.909-7.03 11.863-10.105l-3.515-3.516c-3.515 3.955-6.591 7.909-10.106 11.863-3.514 3.955-7.029 7.47-10.544 11.424l-5.273 5.712-5.272 5.711c-4.394 3.076-7.909 6.591-11.423 10.984z" fill="url(#paint74_radial)"/></g><defs><radialGradient id="paint0_radial" cx="0" cy="0" r="1" gradientUnits="userSpaceOnUse" gradientTransform="translate(634.169 465.961) scale(1073.58)"><stop stop-color="#03C200"/><stop offset=".924" stop-color="#028500"/></radialGradient><radialGradient id="paint1_radial" cx="0" cy="0" r="1" gradientUnits="userSpaceOnUse" gradientTransform="translate(634.169 465.961) scale(1073.57)"><stop stop-color="#03C200"/><stop offset=".924" stop-color="#028500"/></radialGradient><radialGradient id="paint2_radial" cx="0" cy="0" r="1" gradientUnits="userSpaceOnUse" gradientTransform="translate(634.169 465.963) scale(1073.57)"><stop stop-color="#03C200"/><stop offset=".924" stop-color="#028500"/></radialGradient><radialGradient id="paint3_radial" cx="0" cy="0" r="1" gradientUnits="userSpaceOnUse" gradientTransform="translate(634.166 465.958) scale(1073.58)"><stop stop-color="#03C200"/><stop offset=".924" stop-color="#028500"/></radialGradient><radialGradient id="paint4_radial" cx="0" cy="0" r="1" gradientUnits="userSpaceOnUse" gradientTransform="translate(634.17 465.963) scale(1073.58)"><stop stop-color="#03C200"/><stop offset=".924" stop-color="#028500"/></radialGradient><radialGradient id="paint5_radial" cx="0" cy="0" r="1" gradientUnits="userSpaceOnUse" gradientTransform="translate(634.167 465.958) scale(1073.58)"><stop stop-color="#03C200"/><stop offset=".924" stop-color="#028500"/></radialGradient><radialGradient id="paint6_radial" cx="0" cy="0" r="1" gradientUnits="userSpaceOnUse" gradientTransform="translate(634.167 465.958) scale(1073.57)"><stop stop-color="#03C200"/><stop offset=".924" stop-color="#028500"/></radialGradient><radialGradient id="paint7_radial" cx="0" cy="0" r="1" gradientUnits="userSpaceOnUse" gradientTransform="translate(634.165 465.961) scale(1073.58)"><stop stop-color="#03C200"/><stop offset=".924" stop-color="#028500"/></radialGradient><radialGradient id="paint8_radial" cx="0" cy="0" r="1" gradientUnits="userSpaceOnUse" gradientTransform="translate(634.168 465.961) scale(1073.58)"><stop stop-color="#03C200"/><stop offset=".924" stop-color="#028500"/></radialGradient><radialGradient id="paint9_radial" cx="0" cy="0" r="1" gradientUnits="userSpaceOnUse" gradientTransform="translate(634.17 465.958) scale(1073.57)"><stop stop-color="#03C200"/><stop offset=".924" stop-color="#028500"/></radialGradient><radialGradient id="paint10_radial" cx="0" cy="0" r="1" gradientUnits="userSpaceOnUse" gradientTransform="translate(634.168 465.961) scale(1073.58)"><stop stop-color="#03C200"/><stop offset=".924" stop-color="#028500"/></radialGradient><radialGradient id="paint11_radial" cx="0" cy="0" r="1" gradientUnits="userSpaceOnUse" gradientTransform="translate(634.17 465.959) scale(1073.58)"><stop stop-color="#03C200"/><stop offset=".924" stop-color="#028500"/></radialGradient><radialGradient id="paint12_radial" cx="0" cy="0" r="1" gradientUnits="userSpaceOnUse" gradientTransform="translate(634.171 465.964) scale(1073.57)"><stop stop-color="#03C200"/><stop offset=".924" stop-color="#028500"/></radialGradient><radialGradient id="paint13_radial" cx="0" cy="0" r="1" gradientUnits="userSpaceOnUse" gradientTransform="translate(634.172 465.967) scale(1073.58)"><stop stop-color="#03C200"/><stop offset=".924" stop-color="#028500"/></radialGradient><radialGradient id="paint14_radial" cx="0" cy="0" r="1" gradientUnits="userSpaceOnUse" gradientTransform="translate(634.17 465.967) scale(1073.57)"><stop stop-color="#03C200"/><stop offset=".924" stop-color="#028500"/></radialGradient><radialGradient id="paint15_radial" cx="0" cy="0" r="1" gradientUnits="userSpaceOnUse" gradientTransform="matrix(1073.58 0 0 1073.57 634.169 465.96)"><stop stop-color="#03C200"/><stop offset=".924" stop-color="#028500"/></radialGradient><radialGradient id="paint16_radial" cx="0" cy="0" r="1" gradientUnits="userSpaceOnUse" gradientTransform="translate(634.171 465.961) scale(1073.57)"><stop stop-color="#03C200"/><stop offset=".924" stop-color="#028500"/></radialGradient><radialGradient id="paint17_radial" cx="0" cy="0" r="1" gradientUnits="userSpaceOnUse" gradientTransform="matrix(1073.58 0 0 1073.57 634.17 465.965)"><stop stop-color="#03C200"/><stop offset=".924" stop-color="#028500"/></radialGradient><radialGradient id="paint18_radial" cx="0" cy="0" r="1" gradientUnits="userSpaceOnUse" gradientTransform="translate(634.168 465.968) scale(1073.57)"><stop stop-color="#03C200"/><stop offset=".924" stop-color="#028500"/></radialGradient><radialGradient id="paint19_radial" cx="0" cy="0" r="1" gradientUnits="userSpaceOnUse" gradientTransform="translate(634.167 465.96) scale(1073.57)"><stop stop-color="#03C200"/><stop offset=".924" stop-color="#028500"/></radialGradient><radialGradient id="paint20_radial" cx="0" cy="0" r="1" gradientUnits="userSpaceOnUse" gradientTransform="translate(634.163 465.956) scale(1073.58)"><stop stop-color="#03C200"/><stop offset=".924" stop-color="#028500"/></radialGradient><radialGradient id="paint21_radial" cx="0" cy="0" r="1" gradientUnits="userSpaceOnUse" gradientTransform="matrix(1073.57 0 0 1073.58 634.166 465.956)"><stop stop-color="#03C200"/><stop offset=".924" stop-color="#028500"/></radialGradient><radialGradient id="paint22_radial" cx="0" cy="0" r="1" gradientUnits="userSpaceOnUse" gradientTransform="matrix(1073.58 0 0 1073.59 634.166 465.961)"><stop stop-color="#03C200"/><stop offset=".924" stop-color="#028500"/></radialGradient><radialGradient id="paint23_radial" cx="0" cy="0" r="1" gradientUnits="userSpaceOnUse" gradientTransform="matrix(1073.59 0 0 1073.58 634.157 465.962)"><stop stop-color="#03C200"/><stop offset=".924" stop-color="#028500"/></radialGradient><radialGradient id="paint24_radial" cx="0" cy="0" r="1" gradientUnits="userSpaceOnUse" gradientTransform="matrix(1073.57 0 0 1073.58 634.165 465.955)"><stop stop-color="#03C200"/><stop offset=".924" stop-color="#028500"/></radialGradient><radialGradient id="paint25_radial" cx="0" cy="0" r="1" gradientUnits="userSpaceOnUse" gradientTransform="translate(634.164 465.954) scale(1073.58)"><stop stop-color="#03C200"/><stop offset=".924" stop-color="#028500"/></radialGradient><radialGradient id="paint26_radial" cx="0" cy="0" r="1" gradientUnits="userSpaceOnUse" gradientTransform="translate(634.164 465.958) scale(1073.57)"><stop stop-color="#03C200"/><stop offset=".924" stop-color="#028500"/></radialGradient><radialGradient id="paint27_radial" cx="0" cy="0" r="1" gradientUnits="userSpaceOnUse" gradientTransform="translate(634.164 465.958) scale(1073.57)"><stop stop-color="#03C200"/><stop offset=".924" stop-color="#028500"/></radialGradient><radialGradient id="paint28_radial" cx="0" cy="0" r="1" gradientUnits="userSpaceOnUse" gradientTransform="translate(634.168 465.958) scale(1073.58)"><stop stop-color="#03C200"/><stop offset=".924" stop-color="#028500"/></radialGradient><radialGradient id="paint29_radial" cx="0" cy="0" r="1" gradientUnits="userSpaceOnUse" gradientTransform="translate(634.168 465.952) scale(1073.57)"><stop stop-color="#03C200"/><stop offset=".924" stop-color="#028500"/></radialGradient><radialGradient id="paint30_radial" cx="0" cy="0" r="1" gradientUnits="userSpaceOnUse" gradientTransform="translate(634.162 465.958) scale(1073.57)"><stop stop-color="#03C200"/><stop offset=".924" stop-color="#028500"/></radialGradient><radialGradient id="paint31_radial" cx="0" cy="0" r="1" gradientUnits="userSpaceOnUse" gradientTransform="translate(634.171 465.962) scale(1073.57)"><stop stop-color="#03C200"/><stop offset=".924" stop-color="#028500"/></radialGradient><radialGradient id="paint32_radial" cx="0" cy="0" r="1" gradientUnits="userSpaceOnUse" gradientTransform="translate(634.17 465.965) scale(1073.57)"><stop stop-color="#03C200"/><stop offset=".924" stop-color="#028500"/></radialGradient><radialGradient id="paint33_radial" cx="0" cy="0" r="1" gradientUnits="userSpaceOnUse" gradientTransform="translate(634.168 465.963) scale(1073.58)"><stop stop-color="#03C200"/><stop offset=".924" stop-color="#028500"/></radialGradient><radialGradient id="paint34_radial" cx="0" cy="0" r="1" gradientUnits="userSpaceOnUse" gradientTransform="translate(634.17 465.961) scale(1073.57)"><stop stop-color="#03C200"/><stop offset=".924" stop-color="#028500"/></radialGradient><radialGradient id="paint35_radial" cx="0" cy="0" r="1" gradientUnits="userSpaceOnUse" gradientTransform="translate(634.174 465.965) scale(1073.57)"><stop stop-color="#03C200"/><stop offset=".924" stop-color="#028500"/></radialGradient><radialGradient id="paint36_radial" cx="0" cy="0" r="1" gradientUnits="userSpaceOnUse" gradientTransform="translate(634.17 465.97) scale(1073.57)"><stop stop-color="#03C200"/><stop offset=".924" stop-color="#028500"/></radialGradient><radialGradient id="paint37_radial" cx="0" cy="0" r="1" gradientUnits="userSpaceOnUse" gradientTransform="translate(634.175 465.972) scale(1073.57)"><stop stop-color="#03C200"/><stop offset=".924" stop-color="#028500"/></radialGradient><radialGradient id="paint38_radial" cx="0" cy="0" r="1" gradientUnits="userSpaceOnUse" gradientTransform="translate(634.171 465.97) scale(1073.57)"><stop stop-color="#03C200"/><stop offset=".924" stop-color="#028500"/></radialGradient><radialGradient id="paint39_radial" cx="0" cy="0" r="1" gradientUnits="userSpaceOnUse" gradientTransform="translate(634.163 465.964) scale(1073.58)"><stop stop-color="#03C200"/><stop offset=".924" stop-color="#028500"/></radialGradient><radialGradient id="paint40_radial" cx="0" cy="0" r="1" gradientUnits="userSpaceOnUse" gradientTransform="translate(634.17 465.963) scale(1073.57)"><stop stop-color="#03C200"/><stop offset=".924" stop-color="#028500"/></radialGradient><radialGradient id="paint41_radial" cx="0" cy="0" r="1" gradientUnits="userSpaceOnUse" gradientTransform="translate(634.173 465.965) scale(1073.57)"><stop stop-color="#03C200"/><stop offset=".924" stop-color="#028500"/></radialGradient><radialGradient id="paint42_radial" cx="0" cy="0" r="1" gradientUnits="userSpaceOnUse" gradientTransform="translate(634.171 465.961) scale(1073.57)"><stop stop-color="#03C200"/><stop offset=".924" stop-color="#028500"/></radialGradient><radialGradient id="paint43_radial" cx="0" cy="0" r="1" gradientUnits="userSpaceOnUse" gradientTransform="translate(634.172 465.966) scale(1073.57)"><stop stop-color="#03C200"/><stop offset=".924" stop-color="#028500"/></radialGradient><radialGradient id="paint44_radial" cx="0" cy="0" r="1" gradientUnits="userSpaceOnUse" gradientTransform="translate(634.174 465.965) scale(1073.57)"><stop stop-color="#03C200"/><stop offset=".924" stop-color="#028500"/></radialGradient><radialGradient id="paint45_radial" cx="0" cy="0" r="1" gradientUnits="userSpaceOnUse" gradientTransform="translate(634.167 465.964) scale(1073.58)"><stop stop-color="#03C200"/><stop offset=".924" stop-color="#028500"/></radialGradient><radialGradient id="paint46_radial" cx="0" cy="0" r="1" gradientUnits="userSpaceOnUse" gradientTransform="translate(634.173 465.965) scale(1073.57)"><stop stop-color="#03C200"/><stop offset=".924" stop-color="#028500"/></radialGradient><radialGradient id="paint47_radial" cx="0" cy="0" r="1" gradientUnits="userSpaceOnUse" gradientTransform="translate(634.168 465.964) scale(1073.58)"><stop stop-color="#03C200"/><stop offset=".924" stop-color="#028500"/></radialGradient><radialGradient id="paint48_radial" cx="0" cy="0" r="1" gradientUnits="userSpaceOnUse" gradientTransform="translate(634.173 465.962) scale(1073.58)"><stop stop-color="#03C200"/><stop offset=".924" stop-color="#028500"/></radialGradient><radialGradient id="paint49_radial" cx="0" cy="0" r="1" gradientUnits="userSpaceOnUse" gradientTransform="translate(634.172 465.959) scale(1073.58)"><stop stop-color="#03C200"/><stop offset=".924" stop-color="#028500"/></radialGradient><radialGradient id="paint50_radial" cx="0" cy="0" r="1" gradientUnits="userSpaceOnUse" gradientTransform="translate(634.168 465.96) scale(1073.57)"><stop stop-color="#03C200"/><stop offset=".924" stop-color="#028500"/></radialGradient><radialGradient id="paint51_radial" cx="0" cy="0" r="1" gradientUnits="userSpaceOnUse" gradientTransform="translate(634.17 465.96) scale(1073.57)"><stop stop-color="#03C200"/><stop offset=".924" stop-color="#028500"/></radialGradient><radialGradient id="paint52_radial" cx="0" cy="0" r="1" gradientUnits="userSpaceOnUse" gradientTransform="translate(634.17 465.965) scale(1073.58)"><stop stop-color="#03C200"/><stop offset=".924" stop-color="#028500"/></radialGradient><radialGradient id="paint53_radial" cx="0" cy="0" r="1" gradientUnits="userSpaceOnUse" gradientTransform="translate(634.171 465.961) scale(1073.57)"><stop stop-color="#03C200"/><stop offset=".924" stop-color="#028500"/></radialGradient><radialGradient id="paint54_radial" cx="0" cy="0" r="1" gradientUnits="userSpaceOnUse" gradientTransform="translate(634.171 465.958) scale(1073.58)"><stop stop-color="#03C200"/><stop offset=".924" stop-color="#028500"/></radialGradient><radialGradient id="paint55_radial" cx="0" cy="0" r="1" gradientUnits="userSpaceOnUse" gradientTransform="translate(634.167 465.963) scale(1073.57)"><stop stop-color="#03C200"/><stop offset=".924" stop-color="#028500"/></radialGradient><radialGradient id="paint56_radial" cx="0" cy="0" r="1" gradientUnits="userSpaceOnUse" gradientTransform="translate(634.175 465.964) scale(1073.58)"><stop stop-color="#03C200"/><stop offset=".924" stop-color="#028500"/></radialGradient><radialGradient id="paint57_radial" cx="0" cy="0" r="1" gradientUnits="userSpaceOnUse" gradientTransform="translate(634.171 465.964) scale(1073.57)"><stop stop-color="#03C200"/><stop offset=".924" stop-color="#028500"/></radialGradient><radialGradient id="paint58_radial" cx="0" cy="0" r="1" gradientUnits="userSpaceOnUse" gradientTransform="translate(634.171 465.964) scale(1073.58)"><stop stop-color="#03C200"/><stop offset=".924" stop-color="#028500"/></radialGradient><radialGradient id="paint59_radial" cx="0" cy="0" r="1" gradientUnits="userSpaceOnUse" gradientTransform="translate(634.167 465.962) scale(1073.57)"><stop stop-color="#03C200"/><stop offset=".924" stop-color="#028500"/></radialGradient><radialGradient id="paint60_radial" cx="0" cy="0" r="1" gradientUnits="userSpaceOnUse" gradientTransform="translate(634.166 465.961) scale(1073.57)"><stop stop-color="#03C200"/><stop offset=".924" stop-color="#028500"/></radialGradient><radialGradient id="paint61_radial" cx="0" cy="0" r="1" gradientUnits="userSpaceOnUse" gradientTransform="translate(634.165 465.963) scale(1073.57)"><stop stop-color="#03C200"/><stop offset=".924" stop-color="#028500"/></radialGradient><radialGradient id="paint62_radial" cx="0" cy="0" r="1" gradientUnits="userSpaceOnUse" gradientTransform="translate(634.166 465.959) scale(1073.57)"><stop stop-color="#03C200"/><stop offset=".924" stop-color="#028500"/></radialGradient><radialGradient id="paint63_radial" cx="0" cy="0" r="1" gradientUnits="userSpaceOnUse" gradientTransform="translate(634.169 465.957) scale(1073.58)"><stop stop-color="#03C200"/><stop offset=".924" stop-color="#028500"/></radialGradient><radialGradient id="paint64_radial" cx="0" cy="0" r="1" gradientUnits="userSpaceOnUse" gradientTransform="translate(634.167 465.957) scale(1073.58)"><stop stop-color="#03C200"/><stop offset=".924" stop-color="#028500"/></radialGradient><radialGradient id="paint65_radial" cx="0" cy="0" r="1" gradientUnits="userSpaceOnUse" gradientTransform="translate(634.166 465.96) scale(1073.58)"><stop stop-color="#03C200"/><stop offset=".924" stop-color="#028500"/></radialGradient><radialGradient id="paint66_radial" cx="0" cy="0" r="1" gradientUnits="userSpaceOnUse" gradientTransform="matrix(1073.58 0 0 1073.57 634.167 465.964)"><stop stop-color="#03C200"/><stop offset=".924" stop-color="#028500"/></radialGradient><radialGradient id="paint67_radial" cx="0" cy="0" r="1" gradientUnits="userSpaceOnUse" gradientTransform="translate(634.171 465.955) scale(1073.57)"><stop stop-color="#03C200"/><stop offset=".924" stop-color="#028500"/></radialGradient><radialGradient id="paint68_radial" cx="0" cy="0" r="1" gradientUnits="userSpaceOnUse" gradientTransform="translate(634.17 465.957) scale(1073.58)"><stop stop-color="#03C200"/><stop offset=".924" stop-color="#028500"/></radialGradient><radialGradient id="paint69_radial" cx="0" cy="0" r="1" gradientUnits="userSpaceOnUse" gradientTransform="translate(634.169 465.958) scale(1073.58)"><stop stop-color="#03C200"/><stop offset=".924" stop-color="#028500"/></radialGradient><radialGradient id="paint70_radial" cx="0" cy="0" r="1" gradientUnits="userSpaceOnUse" gradientTransform="translate(634.17 465.959) scale(1073.58)"><stop stop-color="#03C200"/><stop offset=".924" stop-color="#028500"/></radialGradient><radialGradient id="paint71_radial" cx="0" cy="0" r="1" gradientUnits="userSpaceOnUse" gradientTransform="translate(634.168 465.954) scale(1073.57)"><stop stop-color="#03C200"/><stop offset=".924" stop-color="#028500"/></radialGradient><radialGradient id="paint72_radial" cx="0" cy="0" r="1" gradientUnits="userSpaceOnUse" gradientTransform="translate(634.169 465.961) scale(1073.58)"><stop stop-color="#03C200"/><stop offset=".924" stop-color="#028500"/></radialGradient><radialGradient id="paint73_radial" cx="0" cy="0" r="1" gradientUnits="userSpaceOnUse" gradientTransform="translate(634.17 465.959) scale(1073.58)"><stop stop-color="#03C200"/><stop offset=".924" stop-color="#028500"/></radialGradient><radialGradient id="paint74_radial" cx="0" cy="0" r="1" gradientUnits="userSpaceOnUse" gradientTransform="translate(634.168 465.954) scale(1073.57)"><stop stop-color="#03C200"/><stop offset=".924" stop-color="#028500"/></radialGradient></defs></svg>