<svg width="14" height="17" fill="none" xmlns="http://www.w3.org/2000/svg"><path d="M13.765 10.16l-.985.211a11.29 11.29 0 00-4.579 2.147l-1.004.788v-.008l1.531-1.702a13.741 13.741 0 003.334-6.91 13.611 13.611 0 00-4.367 6.422l-.498 1.557v-.323l.598-3.291A16.343 16.343 0 006.883 0a16.343 16.343 0 00-.913 9.05l.598 3.292v.228l-.451-1.412a13.967 13.967 0 00-4.483-6.59 13.95 13.95 0 003.41 7.077l1.419 1.578-.899-.705a11.288 11.288 0 00-4.58-2.147L0 10.161a11.174 11.174 0 005.601 3.26l.535.128-.336.027a5.973 5.973 0 00-3.733 1.728l-.1.1h.536a5.942 5.942 0 003.373-1.045l.692-.475v2.778a.314.314 0 10.629 0v-2.777l.692.474a5.942 5.942 0 003.374 1.045h.536l-.1-.1a5.976 5.976 0 00-3.734-1.728l-.335-.027.534-.128a11.174 11.174 0 005.601-3.26z" fill="#459300"/></svg>