<svg width="30" height="22" fill="none" xmlns="http://www.w3.org/2000/svg"><g clip-path="url(#clip0)"><path d="M7.037 0H22.96v22H7.037V0z" fill="#fff"/><path d="M-.92 0h7.96v22H-.92V0zm23.88 0h7.958v22h-7.954L22.96 0zM9.425 10.63l-.624.207 2.878 2.47c.22.632-.075.817-.264 1.152l3.12-.387-.074 3.073.65-.018-.145-3.05 3.13.365c-.194-.4-.366-.61-.19-1.246l2.874-2.342-.5-.18c-.414-.31.175-1.492.263-2.24 0 0-1.674.564-1.784.267l-.43-.803-1.526 1.641c-.167.039-.237-.026-.277-.163l.704-3.43-1.117.615c-.092.043-.184.009-.246-.098L14.79 4.357l-1.107 2.187c-.083.077-.167.086-.237.035l-1.064-.585.642 3.399c-.053.137-.176.172-.316.099l-1.464-1.62c-.189.3-.316.786-.571.898-.25.103-1.099-.206-1.666-.327.194.684.8 1.818.418 2.192v-.005z" fill="red"/></g><defs><clipPath id="clip0"><path fill="#fff" d="M0 0h30v22H0z"/></clipPath></defs></svg>