<svg width="50" height="50" fill="none" xmlns="http://www.w3.org/2000/svg"><path d="M48.582 35.923c-.216-.131-5.354-3.218-11.778-3.218-.661 0-1.318.026-1.967.066 1.508-.819 3.026-1.767 4.431-2.865 6.785-5.3 9.636-13.912 9.754-14.276a1.026 1.026 0 00-.191-.977 1.046 1.046 0 00-.932-.35c-.294.043-7.25 1.137-13.618 6.928-1.72 1.566-3.278 3.304-4.647 5.012.607-2.37 1.036-5.027 1.036-7.86C30.67 8.586 25.606.76 25.39.432c-.377-.576-1.331-.576-1.709 0-.215.327-5.279 8.154-5.279 17.951 0 2.833.43 5.49 1.037 7.86-1.37-1.708-2.927-3.446-4.648-5.011-6.368-5.792-13.324-6.885-13.618-6.93-.348-.042-.7.082-.931.351-.23.271-.3.64-.192.977.118.364 2.969 8.975 9.754 14.276 1.405 1.098 2.924 2.046 4.431 2.865-.65-.04-1.305-.066-1.967-.066-6.424 0-11.562 3.087-11.778 3.218a1.025 1.025 0 00.006 1.751c.219.13 5.427 3.215 11.772 3.215 1.415 0 2.81-.204 4.135-.512-2.169 2.555-2.096 5.523-2.09 5.67a1.025 1.025 0 001.314.938c.153-.046 3.812-1.162 6.615-4.404.503-.581.908-1.157 1.272-1.722v7.19a1.022 1.022 0 102.045 0v-7.19c.364.565.77 1.141 1.272 1.722 2.803 3.242 6.461 4.358 6.615 4.404a1.02 1.02 0 001.313-.937c.007-.148.08-3.123-2.097-5.681 1.332.314 2.731.522 4.142.522 6.424 0 11.563-3.087 11.778-3.218a1.024 1.024 0 000-1.748z" fill="#459300"/></svg>