<svg width="9" height="11" fill="none" xmlns="http://www.w3.org/2000/svg"><path d="M8.235 6.078l-.59.126a6.753 6.753 0 00-2.739 1.284l-.6.472v-.005l.915-1.018a8.22 8.22 0 001.994-4.133 8.142 8.142 0 00-2.612 3.84l-.298.933v-.194l.358-1.969A9.777 9.777 0 004.117 0a9.777 9.777 0 00-.546 5.414l.358 1.97v.136l-.27-.845A8.355 8.355 0 00.978 2.733a8.345 8.345 0 002.04 4.233l.848.944-.537-.422a6.753 6.753 0 00-2.74-1.284L0 6.078a6.684 6.684 0 003.35 1.95l.32.077-.2.017a3.573 3.573 0 00-2.234 1.033l-.06.06h.321c.72 0 1.424-.217 2.018-.625l.414-.284v1.661a.188.188 0 10.376 0V8.306l.415.284a3.555 3.555 0 002.018.625h.32l-.06-.06a3.573 3.573 0 00-2.233-1.034l-.2-.016.319-.076a6.684 6.684 0 003.35-1.951z" fill="#459300"/></svg>