<svg width="30" height="22" fill="none" xmlns="http://www.w3.org/2000/svg"><path fill-rule="evenodd" clip-rule="evenodd" d="M0 0h42.75v1.693H0V0zm0 3.386h42.75v1.693H0V3.386zm0 3.382h42.75v1.697H0V6.768zm0 3.385h42.75v1.694H0v-1.694zm0 3.386h42.75v1.693H0V13.54zm0 3.382h42.75v1.693H0v-1.693zm0 3.386h42.75V22H0v-1.693z" fill="#BD3D44"/><path fill-rule="evenodd" clip-rule="evenodd" d="M0 1.693h42.75v1.693H0V1.693zM0 5.08h42.75v1.689H0v-1.69zm0 3.382h42.75v1.693H0V8.46zm0 3.386h42.75v1.693H0v-1.693zm0 3.386h42.75v1.693H0v-1.693zm0 3.381h42.75v1.693H0v-1.692z" fill="#fff"/><path fill-rule="evenodd" clip-rule="evenodd" d="M0 0h17.1v11.847H0V0z" fill="#192F5D"/><path fill-rule="evenodd" clip-rule="evenodd" d="M1.425.508l.158.468h.501l-.404.288.153.473-.408-.292-.404.287.153-.468L.766.976h.51l.149-.468zm2.852 0l.154.468h.505l-.409.288.154.473-.404-.292-.409.287.154-.468-.404-.288h.5l.159-.468zm2.848 0l.158.468h.496l-.404.288.154.473-.409-.292-.404.287.154-.468-.41-.288h.506l.159-.468zm2.852 0l.153.468h.506l-.409.288.158.473-.408-.292-.41.287.16-.468-.41-.288h.501l.159-.468zm2.847 0l.158.468h.501l-.404.288.154.473-.409-.292-.404.287.154-.468-.405-.288h.501l.154-.468zm2.852 0l.154.468h.505l-.408.288.158.473-.409-.292-.408.287.158-.468-.409-.288h.506l.153-.468zM2.853 1.694l.154.468h.505l-.408.288.149.468-.396-.288-.408.288.145-.468-.396-.288H2.7l.154-.468zm2.848 0l.158.468h.5l-.408.288.158.468-.408-.288-.409.288.158-.468-.409-.288h.506l.154-.468zm2.852 0l.154.468h.505l-.409.288.154.468-.404-.288-.409.288.154-.468-.404-.288h.5l.159-.468zm2.847 0l.159.468h.5l-.408.288.158.468-.409-.288-.404.288.154-.468-.409-.288h.51l.15-.468zm2.852 0l.154.468h.506l-.41.288.155.468-.405-.288-.408.288.154-.468-.405-.288h.501l.158-.468zM1.425 2.875l.158.477h.501l-.404.288.153.469-.408-.293-.404.293.153-.473-.408-.288h.51l.149-.473zm2.852 0l.154.473h.505l-.409.288.154.468-.404-.292-.409.292.154-.472-.404-.288h.5l.159-.469zm2.848 0l.158.473h.496l-.404.288.154.468-.409-.292-.404.292.154-.472-.41-.288h.506l.159-.469zm2.852 0l.153.473h.506l-.409.288.158.468-.408-.292-.41.292.16-.472-.41-.288h.501l.159-.469zm2.847 0l.158.473h.501l-.404.288.154.468-.409-.292-.404.292.154-.472-.405-.288h.501l.154-.469zm2.852 0l.154.473h.505l-.408.288.158.468-.409-.292-.408.292.158-.472-.409-.288h.506l.153-.469zM2.853 4.061l.154.469h.505l-.408.288.153.472-.404-.292-.409.288.154-.468-.404-.288h.5l.159-.469zm2.848 0l.158.469h.5l-.408.288.158.472-.408-.292-.409.288.158-.468-.409-.288h.506l.153-.47zm2.852 0l.154.469h.505l-.409.288.154.472-.404-.292-.409.288.154-.468-.404-.288h.5l.159-.469zm2.847 0l.159.469h.5l-.404.288.154.472-.409-.292-.404.288.154-.468-.409-.288h.51l.15-.469zm2.852 0l.154.469h.506l-.41.288.155.472-.405-.292-.408.288.154-.468-.405-.288h.501l.158-.469zM1.425 5.247l.158.469h.501l-.404.288.153.472-.408-.292-.404.288.153-.468-.408-.288h.51l.149-.469zm2.852 0l.154.469h.505l-.409.288.154.468-.404-.288-.409.288.154-.468-.404-.288h.5l.159-.469zm2.848 0l.158.469h.496l-.404.288.154.472-.409-.292-.404.288.154-.468-.41-.288h.506l.159-.469zm2.852 0l.153.469h.506l-.409.288.158.472-.408-.292-.41.288.16-.468-.41-.288h.501l.159-.469zm2.847 0l.158.469h.501l-.404.288.154.472-.409-.292-.404.288.154-.468-.405-.288h.501l.154-.469zm2.852 0l.154.469h.505l-.408.288.158.472-.409-.292-.408.288.158-.468-.409-.288h.506l.153-.469zM2.853 6.433l.154.469h.505l-.408.287.153.469-.404-.292-.409.292.154-.473-.404-.288h.5l.159-.464zm2.848 0l.158.469h.5l-.408.287.158.469-.408-.292-.409.292.158-.473-.409-.288h.506l.154-.464zm2.852 0l.154.469h.505l-.409.287.154.469-.404-.292-.409.292.154-.473-.404-.288h.5l.159-.464zm2.847 0l.159.469h.5l-.404.287.154.469-.409-.292-.404.292.154-.473-.409-.288h.51l.15-.464zm2.852 0l.154.469h.506l-.41.287.155.469-.405-.292-.408.292.154-.473-.405-.288h.501l.158-.464zM1.425 7.615l.158.473h.501l-.404.287.153.464-.408-.287-.404.287.153-.468-.408-.288h.51l.149-.468zm2.852 0l.154.473h.505l-.409.287.159.464-.41-.287-.408.287.158-.468-.408-.288h.5l.159-.468zm2.848 0l.158.473h.496l-.404.287.154.464-.409-.287-.404.287.154-.468-.41-.288h.506l.159-.468zm2.852 0l.153.473h.506l-.409.287.158.464-.408-.287-.41.287.16-.468-.41-.288h.501l.159-.468zm2.847 0l.158.473h.501l-.404.287.154.464-.409-.287-.404.287.154-.468-.405-.288h.501l.154-.468zm2.852 0l.154.473h.505l-.408.287.158.464-.409-.287-.408.287.158-.468-.409-.288h.506l.153-.468zM2.853 8.8l.154.468h.505l-.408.288.153.473-.404-.292-.409.287.154-.468-.404-.288h.5l.159-.468zm2.848 0l.158.468h.5l-.408.288.158.473-.408-.292-.409.287.158-.468-.409-.288h.506l.154-.468zm2.852 0l.154.468h.505l-.409.288.154.473-.404-.292-.409.287.154-.468-.404-.288h.5l.159-.468zm2.847 0l.159.468h.5l-.404.288.154.473-.409-.292-.404.287.154-.468-.409-.288h.51l.15-.468zm2.852 0l.154.468h.506l-.41.288.155.473-.405-.292-.408.287.154-.468-.405-.288h.501l.158-.468zM1.425 9.987l.158.468h.501l-.404.288.153.468-.408-.288-.404.288.153-.472-.408-.288h.51l.149-.464zm2.852 0l.154.468h.505l-.409.288.159.468-.41-.288-.408.288.158-.472-.408-.288h.5l.159-.464zm2.848 0l.158.468h.496l-.395.288.154.468-.41-.288-.403.288.153-.472-.408-.288h.505l.15-.464zm2.852 0l.153.468h.506l-.409.288.158.468-.408-.288-.41.288.16-.472-.41-.288h.501l.159-.464zm2.847 0l.158.468h.501l-.404.288.154.468-.409-.288-.404.288.154-.472-.405-.288h.501l.154-.464zm2.852 0l.154.468h.505l-.408.288.158.468-.409-.288-.408.288.158-.472-.409-.288h.506l.153-.464z" fill="#fff"/></svg>