<svg width="1504" height="664" xmlns="http://www.w3.org/2000/svg"><path d="M1149.648 133.577l-18.076 102.126h118.368l-51.893 294.719h117.199l51.894-294.719h117.787L1503 133.577h-353.352zm-618.91 137.227c-10.19-22.636-31.906-36.846-64.43-36.846-58.309 0-100.877 44.936-110.787 98.042-9.332 54.277 18.658 98.046 75.8 98.046 30.38 0 58.485-14.383 77.325-36.85h129.158C601.98 480.39 516 538.592 413.83 538.592c-124.78 0-198.252-86.953-177.262-206.592 20.993-119.054 125.365-206.592 250.73-206.592 66.951 0 117.83 24.992 146.327 66.76C580.891 78.688 465.992 0 332.71 0 149.512 0 1 148.642 1 332s148.512 332 331.71 332c183.198 0 331.71-148.642 331.71-332a334.1 334.1 0 00-5.645-61.196H530.739zm384.85-36.847c32.527 0 54.242 14.21 64.43 36.846h128.356c-4.872-87.196-69.622-145.396-171.796-145.396-125.362 0-229.734 87.542-250.727 206.592-20.99 119.64 52.478 206.596 177.259 206.596 102.174 0 188.153-58.203 223.977-145.4H957.929c-18.843 22.467-46.948 36.85-77.328 36.85-57.14 0-85.13-43.77-75.8-98.046 9.913-53.106 52.478-98.042 110.787-98.042" stroke="#FFF" fill="none" opacity=".221"/></svg>