<svg width="60" height="60" xmlns="http://www.w3.org/2000/svg" xmlns:xlink="http://www.w3.org/1999/xlink"><defs><path id="a" d="M0 0h60v59.74H0z"/></defs><g fill="none" fill-rule="evenodd"><mask id="b" fill="#fff"><use xlink:href="#a"/></mask><path d="M55.732 16.662a1.915 1.915 0 01-1.913-1.913c0-1.055.858-1.913 1.913-1.913 1.055 0 1.913.858 1.913 1.913a1.915 1.915 0 01-1.913 1.913zM41.883 8.077c.122 0 .221.1.221.221v4.16H37.87v-4.16a.22.22 0 01.22-.22h3.793zm2.575 6.735h.227a3.02 3.02 0 013.017 3.016v7.173h-15.43v-7.173a3.02 3.02 0 013.016-3.016h9.17zm-12.186 28.78h15.43V27.356h-15.43v16.236zm15.43 10.777a3.02 3.02 0 01-3.017 3.016h-9.397a3.02 3.02 0 01-3.016-3.016v-8.422h15.43v8.422zM14.806 8.077c.122 0 .22.1.22.221v4.16h-4.233v-4.16a.22.22 0 01.22-.22h3.793zm2.575 6.735h.227a3.02 3.02 0 013.017 3.016v7.173H5.195v-7.173a3.02 3.02 0 013.016-3.016h9.17zM5.195 43.592h15.43V27.356H5.195v16.236zm15.43 10.777a3.02 3.02 0 01-3.017 3.016H8.21a3.02 3.02 0 01-3.016-3.016v-8.422h15.43v8.422zM56.949 10.66c.18-2.881.805-7.592-2.276-8.408-1.925-.51-4.364-.11-6.318-.11h-7.191V1.138c0-1.515-2.354-1.517-2.354 0v1.006H14.087V1.137c0-1.515-2.355-1.517-2.355 0v4.586h-.718a2.578 2.578 0 00-2.576 2.575v4.16h-.227a5.377 5.377 0 00-5.37 5.37v7.173H1.136c-1.515 0-1.517 2.355 0 2.355H2.84v16.236H1.137c-1.515 0-1.517 2.355 0 2.355H2.84v8.422a5.377 5.377 0 005.371 5.37h9.397a5.377 5.377 0 005.371-5.37v-8.422h1.703c1.516 0 1.518-2.355 0-2.355H22.98V27.356h1.703c1.516 0 1.518-2.355 0-2.355H22.98v-7.173a5.377 5.377 0 00-5.371-5.37h-.227v-4.16a2.578 2.578 0 00-2.575-2.575h-.719V4.497H38.81v1.226h-.72a2.578 2.578 0 00-2.575 2.575v4.16h-.227a5.378 5.378 0 00-5.371 5.37v7.173h-1.703c-1.515 0-1.518 2.355 0 2.355h1.703v16.236h-1.703c-1.515 0-1.518 2.355 0 2.355h1.703v8.422a5.377 5.377 0 005.371 5.37h9.397a5.377 5.377 0 005.371-5.37v-8.422h1.703c1.515 0 1.518-2.355 0-2.355h-1.703V27.356h1.703c1.515 0 1.518-2.355 0-2.355h-1.703v-7.173a5.378 5.378 0 00-5.371-5.37h-.227v-4.16a2.578 2.578 0 00-2.575-2.575h-.72V4.497H51.89c.988 0 2.19-.354 2.665.688.36.788 0 2.589 0 3.45v2.015a4.273 4.273 0 00-3.09 4.099 4.273 4.273 0 004.267 4.268A4.273 4.273 0 0060 14.749c0-1.93-1.29-3.563-3.051-4.089z" fill="#FFF" mask="url(#b)"/></g></svg>