<svg width="138" height="175" xmlns="http://www.w3.org/2000/svg"><g fill="#0B0F17"><path d="M53.813 42.324c-4.014 0-7.43 3.89-7.43 8.48s3.086 8.156 7.229 8.156c4.343 0 7.43-3.423 7.43-8.285.013-4.733-3.138-8.351-7.23-8.351zm36.132 35.601c-4.007 0-6.847 3.481-6.847 8.35 0 4.668 2.963 8.286 6.782 8.286s7.034-3.819 7.034-8.428c0-4.857-2.904-8.208-6.97-8.208zm-36.982.525c-4.272 0-7.235 3.027-7.235 7.43 0 4.538 3.027 7.78 7.365 7.78a7.723 7.723 0 005.653-2.367c.856-.992 1.297-2.502 1.297-4.408.02-5.278-2.613-8.435-7.08-8.435z"/><path d="M127.14 11.917S103.58 0 69.152 0C34.725 0 11.495 11.917 11.495 11.917S0 36.697 0 69.243c0 32.547 11.495 56.477 11.495 56.477S39.03 138 69.152 138c30.122 0 57.988-12.584 57.988-12.584S138 103.086 138 69.243s-10.86-57.326-10.86-57.326zM69.924 97.9c0 6.704-1.115 10.451-4.078 13.414-3.086 3.086-7.884 4.863-13.278 4.863a22.173 22.173 0 01-15.716-6.244l6.049-6.198a11.935 11.935 0 009.142 4.143c5.128 0 8.15-3.151 8.15-8.48V97.9c-2.691 3.021-6.18 4.538-10.517 4.538a14.646 14.646 0 01-11.112-5.186c-2.237-2.691-3.489-6.575-3.489-10.912 0-9.998 6.315-16.701 15.716-16.701 4.078 0 6.97 1.296 9.401 4.272v-3.086h9.725l.007 27.075zM56.309 66.838c-4.467 0-7.23-1.252-9.797-4.474v3.287h-9.978v-43.84h9.991v16.441c2.827-3.021 5.524-4.207 9.466-4.207a16.163 16.163 0 0111.437 4.797C70.19 41.67 71.7 45.812 71.7 50.61c.007 9.796-6.107 16.24-15.378 16.24l-.013-.012zm49.838 34.414h-9.362v-3.417a11.63 11.63 0 01-9.68 4.603c-8.137 0-13.991-6.645-13.991-15.981 0-9.725 6.224-16.857 14.795-16.857 3.637 0 6.1 1.251 8.876 4.473v-3.287h9.375l-.013 30.466zM99.145 45.28a8.21 8.21 0 00-5.984-2.431 7.38 7.38 0 00-7.54 7.43c0 4.409 3.448 7.78 8.104 7.78 1.9 0 3.241-.525 5.42-2.172l6.418 6.445a18.99 18.99 0 01-12.759 4.538 19.82 19.82 0 01-13.058-4.824c-3.241-2.826-4.927-6.833-4.927-11.436 0-9.667 7.469-16.572 17.823-16.572 5.005 0 9.025 1.582 13.615 5.258l-7.112 5.984zM28.276 174.612l-.02-8.28-4.061 6.821h-1.44l-4.04-6.643v8.102h-2.997v-13.8h2.642l5.165 8.576 5.086-8.576h2.622l.04 13.8zm19.771-2.562v2.562H37.36v-13.8h10.43v2.563h-7.256v2.997h6.408v2.484h-6.408v3.193zm17.917 2.562l-.02-8.28-4.06 6.821h-1.44l-4.041-6.643v8.102h-2.997v-13.8h2.642l5.165 8.576 5.086-8.576h2.622l.04 13.8zm19.219-7.176c.788.25 1.406.667 1.853 1.252.447.585.67 1.304.67 2.159 0 1.209-.47 2.139-1.41 2.79-.94.65-2.31.975-4.11.975h-7.137v-13.8h6.743c1.682 0 2.973.322 3.874.966.9.644 1.35 1.518 1.35 2.622 0 .67-.161 1.268-.483 1.794a3.38 3.38 0 01-1.35 1.242zm-6.96-4.219v3.253h3.174c.789 0 1.387-.138 1.794-.414.408-.276.612-.683.612-1.222 0-.539-.204-.943-.612-1.213-.407-.269-1.005-.404-1.794-.404h-3.174zm3.726 8.99c.842 0 1.476-.138 1.903-.414.427-.276.64-.703.64-1.281 0-1.144-.847-1.716-2.543-1.716h-3.726v3.411h3.726zm21.683-.157v2.562H92.947v-13.8h10.43v2.563H96.12v2.997h6.407v2.484H96.12v3.193zm14.152 2.562l-2.661-3.844h-2.938v3.844h-3.193v-13.8h5.973c1.223 0 2.284.204 3.184.611.9.408 1.594.986 2.08 1.735.486.75.73 1.636.73 2.662 0 1.025-.247 1.909-.74 2.651-.493.743-1.193 1.311-2.1 1.705l3.096 4.436h-3.43zm-.059-8.792c0-.776-.25-1.37-.749-1.785-.5-.414-1.229-.62-2.188-.62h-2.602v4.81h2.602c.96 0 1.689-.21 2.188-.631.5-.42.75-1.012.75-1.774z"/></g></svg>