<svg width="38" height="49" xmlns="http://www.w3.org/2000/svg"><g fill="#FFF"><path d="M14.818 11.654c-1.105 0-2.046 1.072-2.046 2.336 0 1.264.85 2.245 1.99 2.245 1.197 0 2.047-.942 2.047-2.281.003-1.303-.865-2.3-1.991-2.3zm9.949 9.803c-1.103 0-1.885.96-1.885 2.3 0 1.285.816 2.282 1.868 2.282 1.051 0 1.937-1.052 1.937-2.321 0-1.338-.8-2.26-1.92-2.26zm-10.183.145c-1.176 0-1.992.834-1.992 2.046 0 1.25.833 2.142 2.028 2.142a2.127 2.127 0 001.557-.651c.235-.273.357-.69.357-1.214.005-1.454-.72-2.323-1.95-2.323z"/><path d="M35.01 3.281S28.522 0 19.042 0 3.165 3.281 3.165 3.281 0 10.105 0 19.067s3.165 15.552 3.165 15.552S10.747 38 19.042 38c8.294 0 15.968-3.465 15.968-3.465S38 28.386 38 19.067c0-9.32-2.99-15.786-2.99-15.786zM19.254 26.958c0 1.846-.307 2.878-1.123 3.694-.85.85-2.17 1.339-3.656 1.339a6.106 6.106 0 01-4.327-1.72l1.665-1.706a3.287 3.287 0 002.518 1.14c1.412 0 2.244-.867 2.244-2.335v-.412c-.741.832-1.702 1.25-2.896 1.25a4.033 4.033 0 01-3.06-1.429c-.616-.74-.96-1.81-.96-3.004 0-2.753 1.738-4.6 4.327-4.6 1.123 0 1.92.358 2.589 1.177v-.85h2.678l.001 7.456zm-3.749-8.553c-1.23 0-1.99-.345-2.697-1.232v.905H10.06V6.006h2.751v4.527c.779-.832 1.521-1.158 2.607-1.158a4.45 4.45 0 013.15 1.32c.76.78 1.176 1.92 1.176 3.241.001 2.698-1.682 4.472-4.235 4.472l-.004-.003zM29.23 27.88h-2.58v-.94a3.203 3.203 0 01-2.666 1.267c-2.24 0-3.852-1.83-3.852-4.401 0-2.678 1.714-4.642 4.074-4.642 1.001 0 1.68.345 2.444 1.232v-.905h2.581l-.003 8.389zM27.3 12.468a2.26 2.26 0 00-1.648-.669 2.032 2.032 0 00-2.076 2.046c0 1.214.95 2.142 2.231 2.142.523 0 .893-.144 1.493-.598l1.767 1.775a5.229 5.229 0 01-3.513 1.25 5.458 5.458 0 01-3.596-1.329c-.893-.778-1.357-1.881-1.357-3.149 0-2.662 2.057-4.563 4.908-4.563 1.378 0 2.485.435 3.75 1.448l-1.96 1.647zM7.786 48.082l-.005-2.28-1.119 1.878h-.396l-1.113-1.83v2.232h-.825v-3.8h.728l1.422 2.361 1.4-2.361H8.6l.011 3.8zm5.444-.706v.706h-2.942v-3.8h2.872v.705h-1.998v.825h1.764v.684h-1.764v.88zm4.934.706l-.005-2.28-1.119 1.878h-.396l-1.113-1.83v2.232h-.825v-3.8h.727l1.423 2.361 1.4-2.361h.722l.011 3.8zm5.292-1.976a.996.996 0 01.51.344.95.95 0 01.185.595c0 .333-.13.589-.388.768-.259.179-.636.269-1.132.269h-1.965v-3.8h1.856c.464 0 .82.088 1.067.266a.842.842 0 01.372.722.926.926 0 01-.133.494.932.932 0 01-.372.342zm-1.916-1.162v.896h.874c.217 0 .382-.038.494-.114a.38.38 0 00.168-.337.374.374 0 00-.168-.334c-.112-.074-.277-.111-.494-.111h-.874zm1.026 2.475c.231 0 .406-.038.524-.114.117-.076.176-.193.176-.353 0-.314-.233-.472-.7-.472H21.54v.94h1.026zm5.97-.043v.706h-2.942v-3.8h2.872v.705h-1.998v.825h1.764v.684h-1.764v.88zm3.897.706l-.732-1.059h-.809v1.059h-.88v-3.8h1.645c.337 0 .629.056.877.168.248.112.439.271.573.478.133.206.2.45.2.732 0 .283-.067.526-.203.73a1.29 1.29 0 01-.578.47l.852 1.222h-.945zm-.016-2.422c0-.213-.069-.377-.206-.49-.138-.115-.339-.172-.603-.172h-.716v1.325h.716c.264 0 .465-.058.603-.174.137-.116.206-.279.206-.489z"/></g></svg>