<svg width="68" height="87" xmlns="http://www.w3.org/2000/svg"><g fill="#0B0F17"><path d="M26.516 20.855c-1.977 0-3.66 1.917-3.66 4.179 0 2.262 1.52 4.019 3.561 4.019 2.14 0 3.662-1.687 3.662-4.083.006-2.332-1.547-4.115-3.563-4.115zM44.32 38.398c-1.974 0-3.373 1.715-3.373 4.114 0 2.3 1.46 4.083 3.342 4.083 1.881 0 3.466-1.881 3.466-4.153 0-2.393-1.431-4.044-3.434-4.044zm-18.222.258c-2.106 0-3.566 1.492-3.566 3.662 0 2.236 1.492 3.833 3.63 3.833a3.806 3.806 0 002.786-1.166c.421-.489.639-1.233.639-2.172.009-2.6-1.288-4.157-3.49-4.157z"/><path d="M62.649 5.872S51.039 0 34.075 0C17.111 0 5.665 5.872 5.665 5.872S0 18.082 0 34.12c0 16.037 5.664 27.83 5.664 27.83S19.232 68 34.075 68c14.843 0 28.574-6.201 28.574-6.201S68 50.796 68 34.119c0-16.676-5.351-28.247-5.351-28.247zM34.455 48.24c0 3.303-.55 5.15-2.01 6.61-1.52 1.52-3.884 2.395-6.542 2.395a10.926 10.926 0 01-7.744-3.076l2.98-3.054a5.881 5.881 0 004.505 2.041c2.527 0 4.016-1.552 4.016-4.178v-.738c-1.326 1.488-3.045 2.236-5.182 2.236a7.217 7.217 0 01-5.476-2.556c-1.102-1.326-1.718-3.24-1.718-5.377 0-4.926 3.111-8.23 7.744-8.23 2.01 0 3.434.64 4.632 2.106V34.9h4.792l.003 13.34zm-6.709-15.306c-2.2 0-3.562-.617-4.827-2.205v1.62h-4.917V10.747h4.923v8.102c1.393-1.489 2.722-2.073 4.665-2.073a7.964 7.964 0 015.635 2.364c1.361 1.393 2.106 3.434 2.106 5.798.003 4.827-3.01 8.003-7.578 8.003l-.007-.006zm24.558 16.957h-4.613V48.21a5.731 5.731 0 01-4.77 2.268c-4.01 0-6.894-3.275-6.894-7.875 0-4.792 3.067-8.306 7.29-8.306 1.793 0 3.007.616 4.374 2.204v-1.62h4.62l-.007 15.012zm-3.45-27.58a4.045 4.045 0 00-2.949-1.198 3.636 3.636 0 00-3.715 3.661c0 2.173 1.7 3.834 3.993 3.834.936 0 1.597-.259 2.67-1.07l3.164 3.175a9.357 9.357 0 01-6.287 2.237 9.766 9.766 0 01-6.435-2.377c-1.597-1.393-2.428-3.368-2.428-5.636 0-4.763 3.68-8.166 8.783-8.166 2.466 0 4.447.78 6.709 2.591l-3.505 2.949zM13.933 86.04l-.01-4.08-2 3.362h-.71l-1.991-3.274v3.993H7.745v-6.8h1.302l2.545 4.226 2.506-4.226h1.292l.02 6.8zm9.742-1.262v1.263H18.41v-6.8h5.139v1.263h-3.575v1.476h3.157v1.224h-3.157v1.574zm8.829 1.262l-.01-4.08-2 3.362h-.71l-1.991-3.274v3.993h-1.477v-6.8h1.302l2.545 4.226 2.506-4.226h1.292l.02 6.8zm9.47-3.535c.389.123.693.328.913.617.22.288.33.642.33 1.063 0 .596-.231 1.054-.694 1.375-.463.32-1.138.48-2.025.48H36.98v-6.8h3.322c.83 0 1.465.16 1.91.477.443.317.665.748.665 1.292 0 .33-.08.625-.238.884-.16.259-.381.463-.666.612zm-3.43-2.08v1.604h1.565c.389 0 .683-.068.884-.204.2-.136.301-.337.301-.602 0-.266-.1-.465-.301-.598-.2-.133-.495-.2-.884-.2h-1.564zm1.837 4.43c.414 0 .727-.067.937-.203.21-.136.316-.347.316-.632 0-.563-.418-.845-1.253-.845h-1.836v1.68h1.836zm10.684-.077v1.263H45.8v-6.8h5.139v1.263h-3.575v1.476h3.157v1.224h-3.157v1.574zm6.974 1.262l-1.312-1.893H55.28v1.894h-1.574v-6.8h2.944c.602 0 1.125.1 1.568.3.444.202.786.487 1.025.856.24.369.36.806.36 1.311 0 .505-.122.94-.365 1.307a2.309 2.309 0 01-1.034.84l1.525 2.186h-1.69zm-.03-4.332c0-.382-.122-.675-.369-.879-.246-.204-.605-.306-1.078-.306H55.28v2.37h1.282c.473 0 .832-.103 1.078-.31.247-.208.37-.5.37-.875z"/></g></svg>