<svg width="45" height="60" xmlns="http://www.w3.org/2000/svg"><g stroke="#FFF" stroke-width="2" fill="none" fill-rule="evenodd"><path d="M41 7.5c0 3.59-8.507 6.5-19 6.5S3 11.09 3 7.5 11.507 1 22 1s19 2.91 19 6.5z"/><path d="M11.25 12c-.801-.46-1.25-.975-1.25-1.52C10 8.558 15.596 7 22.5 7S35 8.558 35 10.48c0 .545-.449 1.06-1.25 1.52M3.5 18V7M15 24.806C8.256 23.83 3.546 21.596 3.546 19L1 21.533V26.6l2.546 2.533V38m11.042 5.663C8.043 42.709 3.47 40.533 3.47 38L1 40.47v4.942l2.47 2.47v4.942C3.47 56.235 11.765 59 22 59m19.5-41V7M30 24.806c6.742-.977 11.455-3.21 11.455-5.806L44 21.533V26.6l-2.545 2.533V38m-11.043 5.663c6.543-.954 11.117-3.13 11.117-5.663L44 40.47v4.942l-2.47 2.47v4.942C41.53 56.235 33.232 59 23 59"/></g></svg>