<svg width="150" height="67" xmlns="http://www.w3.org/2000/svg"><g fill="none" fill-rule="evenodd"><path fill="#1086E2" d="M114.712 13.328l-1.805 10.19h11.82l-5.182 29.407h11.705l5.182-29.407h11.763L150 13.328zM52.903 27.02c-1.017-2.258-3.186-3.676-6.434-3.676-5.823 0-10.074 4.484-11.064 9.783-.932 5.416 1.863 9.783 7.57 9.783 3.034 0 5.84-1.435 7.722-3.677h12.899c-3.578 8.7-12.164 14.508-22.368 14.508-12.461 0-19.799-8.677-17.703-20.614 2.097-11.88 12.52-20.614 25.04-20.614 6.686 0 11.767 2.494 14.613 6.661C57.912 7.851 46.438 0 33.127 0 14.83 0 0 14.831 0 33.127c0 18.295 14.831 33.127 33.127 33.127 18.295 0 33.127-14.832 33.127-33.127a33.29 33.29 0 00-.564-6.106H52.903zm38.434-3.676c3.248 0 5.417 1.418 6.434 3.677h12.819c-.487-8.7-6.953-14.508-17.157-14.508-12.52 0-22.943 8.735-25.04 20.614-2.095 11.937 5.242 20.614 17.703 20.614 10.204 0 18.79-5.808 22.368-14.508H95.566c-1.882 2.242-4.689 3.677-7.723 3.677-5.706 0-8.502-4.368-7.57-9.783.99-5.3 5.24-9.783 11.064-9.783"/><path d="M46.469 23.303c3.248 0 5.417 1.418 6.434 3.677h12.819c-.487-8.7-6.953-14.508-17.157-14.508-12.52 0-22.943 8.735-25.04 20.614C21.43 45.023 28.767 53.7 41.229 53.7c10.204 0 18.79-5.808 22.368-14.508h-12.9c-1.882 2.242-4.688 3.677-7.722 3.677-5.707 0-8.502-4.367-7.57-9.783.99-5.299 5.24-9.783 11.064-9.783" fill="#FEFEFE"/></g></svg>