<svg width="62" height="49" xmlns="http://www.w3.org/2000/svg"><path d="M20.233 22.915c2.409 1.057 4.288 2.642 5.636 4.756 1.35 2.113 2.024 4.611 2.024 7.494 0 4.131-1.3 7.47-3.902 10.016C21.389 47.727 18.065 49 14.019 49c-4.047 0-7.395-1.297-10.045-3.891C1.324 42.515 0 39.2 0 35.165c0-1.922.24-3.843.723-5.765.481-1.922 1.541-4.804 3.18-8.647L12.283 0h14.308l-6.359 22.915zm34.107 0c2.409 1.057 4.288 2.642 5.637 4.756C61.326 29.784 62 32.282 62 35.165c0 4.131-1.3 7.47-3.902 10.016C55.497 47.727 52.172 49 48.126 49c-4.047 0-7.395-1.297-10.044-3.891-2.65-2.594-3.975-5.909-3.975-9.944 0-1.922.241-3.843.723-5.765.482-1.922 1.541-4.804 3.18-8.647L46.391 0h14.307L54.34 22.915z" fill="#FFF"/></svg>