<svg width="40" height="51" xmlns="http://www.w3.org/2000/svg" xmlns:xlink="http://www.w3.org/1999/xlink"><defs><path id="a" d="M0 50.268h40V0H0z"/></defs><g fill="none" fill-rule="evenodd"><path fill="#FFF" d="M29.845 10.809L19.206 25.647l-5.399-7.024V26.2l5.4 5.761 10.638-15.548z"/><path d="M25.955 11.124c0 .395 0 .474-.159.553-.159 0-.238-.316-.238-.553 0-.078.08-.315.158-.552l-.158-.08-.953 2.29.159.079c.08-.158.317-.553.794-.553 0 .237-.318.71-.953.71-.477 0-.953-.315-.953-.947 0-.236.08-.473.317-.473.08 0 .239.158.239.237 0 .079 0 .079-.08.158 0 .079.16.158.318.158a.527.527 0 00.477-.553c0-.552-.715-.632-.874-.632.08-.473.159-.631 0-1.105-.08-.315-.08-.315-.397-.079-.08.158-.318.395-.476 1.026-.08-.079-.318-.158-.477-.158-.317 0-.635.237-.635.474 0 .473.318.631.556.631-.08-.236.08-.394.239-.394.08 0 .237.079.237.237 0 .079-.237 1.105-1.349 1.105-.794 0-1.032-.553-1.111-1.105.555 0 .952.394 1.111.868h.159V9.94h-.238c-.318.71-.557.869-1.112.869.08-.71.397-.71.953-1.105v-.158a.61.61 0 01-.398-.158V7.573c1.35-.158 1.906-.79 3.017-.79 1.271 0 2.065 1.263 2.065 2.052 0 .316-.238 1.026-.476 1.342.158.316.238.71.238.947zm-.874 3.315l-.08-.315.318-.08.08.316-.318.08zm-1.746-.394c-.159 0-.635-.08-.715-.08-.238-.078-.397-.078-.397-.315 0-.158.159-.237.397-.237.556 0 .953.158.953.395 0 .158-.159.237-.238.237zm-3.176-.08l-.477-.394.477-.473.476.473-.476.395zm-1.509-1.262c-1.111 0-1.35-1.026-1.35-1.105 0-.158.16-.237.239-.237.159 0 .317.158.238.395.238 0 .556-.158.556-.632 0-.237-.318-.473-.635-.473-.16 0-.397.079-.477.158-.159-.632-.397-.869-.476-1.026-.318-.237-.318-.237-.397.079-.16.473-.08.631 0 1.105-.16 0-.794.079-.794.631 0 .395.238.553.397.553a.608.608 0 00.397-.158c-.159-.08-.159-.08-.159-.158 0-.08.159-.237.238-.237.238 0 .318.237.318.474 0 .631-.477.947-.953.947-.635 0-.953-.474-.953-.71.477 0 .715.394.794.552l.16-.079-.954-2.289-.158.08c.158.236.238.473.238.552 0 .236-.159.552-.318.552-.159-.079-.159-.158-.159-.552 0-.237.08-.632.239-.948-.239-.315-.477-1.026-.477-1.341 0-.79.635-1.974 1.985-1.974 1.112 0 1.43.632 3.096.79v1.736c-.079.08-.238.158-.317.158v.158c.476.395.794.395.873 1.105-.556 0-.794-.158-1.111-.868h-.239v2.526h.16c.237-.474.555-.87 1.11-.87-.079.554-.317 1.106-1.11 1.106zm-.873 1.263c-.159 0-.635.079-.715.079-.158 0-.238-.08-.238-.237 0-.237.397-.395.953-.395.238 0 .397.08.397.237 0 .237-.159.237-.397.316zm-2.54.473l-.318-.079.158-.315.318.079-.159.315zm5.001-7.419c-.159 0-.238-.079-.238-.236 0-.158.08-.237.238-.237.08 0 .159.079.159.237 0 .157-.08.236-.159.236zm0 .632c-.159 0-.238-.158-.238-.237 0-.158.08-.237.238-.237.08 0 .159.08.159.237 0 .079-.08.237-.159.237zm0 .552c-.159 0-.238-.079-.238-.158 0-.157.08-.236.238-.236.08 0 .159.078.159.236 0 .08-.08.158-.159.158zm.159.947c0 .158-.08.237-.159.237-.159 0-.238-.079-.238-.237 0-.078.08-.157.238-.157.08 0 .159.078.159.157zm-.159-.315c-.159 0-.238-.08-.238-.237 0-.08.08-.237.238-.237.08 0 .159.158.159.237 0 .158-.08.237-.159.237zm-.794-3c-.159 0-.159-.078-.159-.157 0-.08.08-.158.397-.158.318 0 .318 0 .318-.237v-.237c0-.237.08-.237.238-.237.08 0 .159 0 .159.237v.237c0 .237 0 .237.318.237.317 0 .476.079.476.158s-.08.158-.238.158c0 0-.636-.08-.715-.08-.159 0-.794.08-.794.08zm7.702 3.078c-.08 0-.318 0-.476.08v-.395c.158 0 .238.079.397.079.238-.08.397-.237.317-.474 0-.237-.238-.394-.397-.394-.159.079-.317.157-.397.236 0-.079-.08-.236-.159-.315.159 0 .239 0 .318-.08.238-.078.318-.315.238-.473-.08-.237-.317-.316-.556-.237-.08.08-.238.158-.318.316-.08-.079-.158-.237-.237-.316.08 0 .237-.079.317-.157.159-.158.08-.395-.08-.553a.385.385 0 00-.555 0c-.08.158-.16.316-.16.473-.079-.079-.238-.157-.397-.236a.619.619 0 00.318-.316c.08-.158 0-.395-.238-.473-.238-.08-.476 0-.556.236-.08.08 0 .316.08.474-.239-.08-.398-.08-.556-.08.079-.078.158-.236.158-.315 0-.237-.238-.394-.396-.394-.239 0-.477.157-.477.394 0 .158.159.316.238.395-.158.079-.396.158-.555.158 0-.08.079-.237 0-.316-.08-.237-.318-.394-.477-.316-.238.08-.396.316-.317.474.08.158.158.316.317.395a.608.608 0 00-.396.157c-.08 0-.16 0-.239.08a.486.486 0 00.08-.553c0-.158-.239-.316-.477-.237-.238.079-.318.237-.238.473 0 .158.158.316.317.395-.397.079-.555 0-.555 0v-.394l-.16-.158c.239-.316.398-.395.398-.868 0-.395-.16-.79-.397-.947-.318-.158-.477-.553-.477-.711v-.158c.16 0 .477 0 .636.08v-.869c-.318.237-.477.237-.636.237v-.237c0-.079.16-.316.239-.473h-.873c.08.157.238.394.238.473v.237c-.159 0-.397 0-.715-.158v.79c.239-.08.477-.08.715-.08v.158c0 .158-.238.553-.476.79-.239.078-.397.473-.397.868 0 .473.158.552.397.868l-.239.158v.394s-.079.08-.476 0c.159-.079.318-.237.318-.394.08-.158-.08-.395-.239-.474-.238-.079-.476.08-.556.237 0 .14 0 .343.057.497.014.012.023.03.023.055a.508.508 0 01-.023-.055c-.03-.023-.083-.024-.136-.024-.158-.079-.238-.079-.397-.157.159-.08.239-.237.318-.316 0-.237-.08-.473-.318-.552-.238-.08-.397.079-.476.315-.08.08-.08.237 0 .395a5.452 5.452 0 00-.635-.237.434.434 0 00.238-.394c0-.237-.159-.395-.397-.395-.238 0-.397.158-.397.395 0 .079.08.236.159.394-.159-.079-.397 0-.556 0 .08-.158.08-.315.08-.473-.08-.237-.397-.316-.556-.237-.238.08-.318.316-.238.553.08.079.159.236.238.236-.08.08-.238.158-.397.237.08-.158 0-.316-.08-.473-.158-.158-.397-.158-.635 0a.38.38 0 000 .552c.08.08.238.158.318.237-.08.08-.159.158-.318.237 0-.158-.159-.237-.238-.316-.238-.079-.476 0-.556.237-.08.237 0 .473.238.553h.318c-.08.079-.159.236-.159.315a.608.608 0 00-.397-.158c-.238-.079-.397.08-.397.316-.08.237.08.473.318.473.159 0 .238 0 .397-.079v.395a.68.68 0 00-.556 0c-.159.08-.238.316-.159.473.08.237.318.316.477.237.158 0 .238-.158.317-.237.08.237.16.395.16.395v.08h-.477c-.159.078-.318.315-.238.552.079.158.317.237.476.237l-.08.236 1.271 3-.16.472.398.158.238.474c1.429-.474 3.255-.71 4.843-.71 1.509 0 3.335.236 4.764.71l.238-.474.397-.158-.158-.473 1.27-3-.08-.236c.16 0 .398-.08.477-.237.08-.237-.08-.474-.238-.553a.509.509 0 00-.477 0v-.079s.08-.157.159-.394l.238.237c.239.079.476 0 .556-.237.08-.158 0-.395-.238-.553zM15.95 33.777s.08 1.184.08 2.447c0 1.184-.08 2.683-.08 2.683h1.271s-.08-1.657-.08-2.683a54 54 0 01.08-2.447h-1.27z" fill="#FFF"/><path d="M17.062 36.224s.794-.868 1.112-1.263l.953-1.184h.794s-1.43 1.657-1.747 1.973l-.794.631-.318-.157z" fill="#FFF"/><path d="M18.174 43.328s.159-.395.318-.947c.238-.632.476-.948.476-.948s.238.632.397 1.105l.317.79h.715s-.318-.71-.635-1.342a34.774 34.774 0 01-.477-1.342h-.317s-.635 1.42-.794 1.815c-.159.395-.397.868-.397.868h.397zm-3.097-2.684h.636s-.08.631-.08 1.025c0 .395-.08 1.5.794 1.5.635 0 .794-.552.794-1.105 0-.473-.08-1.42-.08-1.42h.397v1.263c0 .631 0 1.5-1.27 1.5-1.191 0-1.191-.948-1.191-1.185v-1.578zm-6.43-6.867h1.11v2.052c0 .79-.237 2.762 1.35 2.762 1.27 0 1.43-1.025 1.43-2.051v-2.763h.714v2.447c-.08 1.184 0 2.762-2.382 2.762s-2.223-1.736-2.223-2.13v-3.079zm9.289 2.131l2.143 3h-1.35l-1.587-2.368-.08-.316.874-.316zm4.525 2.999s.239-.789.715-1.815c.397-1.105.715-1.815.715-1.815s.555 1.263.873 2.052c.238.79.556 1.578.556 1.578h1.27s-.556-1.342-1.111-2.605c-.318-.71-.953-2.525-.953-2.525h-.635s-1.19 2.763-1.43 3.552c-.316.71-.714 1.578-.714 1.578h.714z" fill="#FFF"/><path d="M9.837 47.116s.159-.474.397-1.026c.159-.552.397-.947.397-.947s.238.71.397 1.105c.113.287.22.576.318.868h.714l-.635-1.42a36.571 36.571 0 01-.476-1.343h-.318s-.635 1.5-.794 1.895c-.159.394-.397.868-.397.868h.397zm13.021-9.708h2.223v-.474h-2.223v.474z" fill="#FFF"/><path d="M15.713 47.116s.158-.474.397-1.026c.238-.552.397-.947.397-.947s.317.71.476 1.105c.159.394.238.868.238.868h.714s-.317-.71-.555-1.42c-.16-.396-.556-1.343-.556-1.343h-.318s-.635 1.5-.794 1.895c-.159.394-.397.868-.397.868h.398zm-5.637-.79h1.19v-.236h-1.19v.237z" fill="#FFF"/><mask id="b" fill="#fff"><use xlink:href="#a"/></mask><path fill="#FFF" mask="url(#b)" d="M18.412 42.538h1.19v-.236h-1.19zM5.906 47.155v-.001.001zm2.978-2.802h-.317l-.477.947c-.158.316-.555.948-.555.948s-.238-.474-.397-.868a44.26 44.26 0 00-.556-1.027h-.318s-.158.947-.158 1.342c-.08.314-.237 1.408-.239 1.42h.318s.08-.552.159-.946c0-.395.08-.869.08-.869s.237.553.396.79c.159.315.556 1.026.556 1.026h.08s.317-.553.476-.947l.476-.948s.08.632.08.948c0 .236.079.947.079.947h.635s-.08-.869-.159-1.342c-.079-.395-.159-1.421-.159-1.421m3.256-2.367c0-.79.397-1.185.952-1.185.477 0 .874.395.874 1.185 0 .789-.397 1.184-.874 1.184-.555 0-.952-.316-.952-1.184zm1.905 2.21l.556-.237-1.032-.631c.635-.158 1.032-.71 1.032-1.342 0-.868-.635-1.421-1.508-1.421-.874 0-1.589.632-1.589 1.42 0 .869.715 1.421 1.509 1.421l1.032.79zm10.64-3.316s.08.79.08 1.184c0 .316-.08 1.263-.08 1.263h.634V40.88h.318c.159 0 .397.08.397.08v-.316h-2.065v.316s.239-.08.398-.08h.318zm2.46 2.448h.636v-1.264l.873-1.42h-.397l-.635 1.184-.636-1.184h-.634v.079l.793 1.42zM14.68 45.222v1.026s-.555-.553-.714-.79a60.863 60.863 0 01-1.032-1.105h-.397v1.342c0 .474-.08 1.421-.08 1.421h.397s-.079-.789-.079-1.105c0-.315.08-.789.08-.789s.555.474.873.869c.397.473.952 1.025.952 1.025h.318v-2.762h-.317v.868zm7.702-2.132h-.953s-.08-.788-.08-1.183c0-.316.08-1.263.08-1.263h-.635v2.684h1.588v-.238zm1.111-1.104v-1.342h-.635v2.684h.635zm3.574 2.367v2.763h1.587V46.8h-.952v-.947s.159-.079.397-.079c.158 0 .556.079.556.079v-.315h-.953v-.947h.397c.238 0 .556.079.556.079v-.316h-1.588zM15.95 46.327h1.192v-.237H15.95zm10.242-1.974h-.317l-.476.947-.476.948s-.238-.474-.477-.868a36.706 36.706 0 01-.477-1.027h-.317s-.159.947-.159 1.342c-.079.314-.236 1.408-.238 1.42h.317s.08-.552.08-.946c.08-.395.159-.869.159-.869s.238.553.397.79c.158.315.476 1.026.476 1.026h.16s.237-.553.396-.947c.238-.316.556-.948.556-.948v.948c.08.236.159.947.159.947h.635s-.16-.869-.16-1.342a52.235 52.235 0 01-.238-1.421m4.209-8.523c-.635-.317-.873-.711-.873-.948 0-.316.159-.71.793-.71.635 0 .874.552.874.552l.159.079.159-.79s-.398-.315-1.192-.314c-1.27 0-1.746.947-1.746 1.578 0 .631.476 1.105 1.032 1.42.556.237 1.27.553 1.27 1.026 0 .553-.238.868-1.032.868-.794-.079-.953-.789-.953-.789h-.079l-.238.868s.238.316 1.27.316c1.112 0 1.906-.632 1.906-1.578 0-.947-.715-1.342-1.35-1.579m1.746 8.524v.316h.715v2.447h.635v-2.447h.715v-.316zm-.793.869v1.026s-.556-.553-.715-.79a60.863 60.863 0 01-1.032-1.105h-.397v1.342c0 .474-.08 1.421 0 1.421h.318v-1.894s.555.474.952.869c.318.473.874 1.025.874 1.025h.317v-2.762h-.317v.868zm-10.601-.672zm-.594 1.856v.394s0 .08-.556.08c-.555 0-.952-.474-.952-1.185 0-.631.396-1.104 1.031-1.184.635 0 .874.395.874.395l.159-.395s-.398-.237-1.112-.236c-.397 0-1.588.316-1.588 1.5 0 1.025.874 1.341 1.667 1.341.715 0 1.033-.157 1.033-.157v-.632c0-.237.08-.395.08-.395h-.636v.474zm1.826-.553s.16-.079.397-.079c.159 0 .477.079.477.079v-.315h-.874v-.947h.397c.159 0 .477.079.477.079v-.316h-1.51v2.762h1.589V46.8h-.953v-.947zm1.309 1.302v-.001.001z"/><path d="M1.096 49.172h37.808V1.096H1.096v48.076zM0 50.268h40V0H0v50.268z" fill="#FFF" mask="url(#b)"/></g></svg>