<svg width="140" height="176" xmlns="http://www.w3.org/2000/svg" xmlns:xlink="http://www.w3.org/1999/xlink"><defs><path id="a" d="M0 175.939h140V0H0z"/></defs><g fill="none" fill-rule="evenodd"><path fill="#0B0F17" d="M104.458 37.83L67.221 89.767 48.324 65.18V91.7l18.897 20.165 37.237-54.42z"/><path d="M90.842 38.936c0 1.381 0 1.656-.556 1.933-.556 0-.835-1.105-.835-1.933 0-.277.279-1.105.556-1.934l-.556-.277-3.334 8.011.556.277c.279-.553 1.11-1.934 2.778-1.934 0 .828-1.112 2.486-3.334 2.486-1.668 0-3.334-1.105-3.334-3.316 0-.828.279-1.657 1.11-1.657.28 0 .835.552.835.829 0 .276 0 .276-.279.553 0 .276.556.553 1.112.553s1.668-.553 1.668-1.935c0-1.933-2.502-2.21-3.056-2.21.276-1.657.554-2.21 0-3.868-.28-1.105-.28-1.105-1.391-.276-.278.553-1.112 1.381-1.666 3.59-.28-.276-1.112-.552-1.668-.552-1.112 0-2.224.828-2.224 1.658 0 1.656 1.112 2.21 1.946 2.21-.278-.829.279-1.382.835-1.382.279 0 .832.277.832.83 0 .276-.832 3.867-4.722 3.867-2.778 0-3.613-1.934-3.89-3.868 1.944 0 3.334 1.382 3.89 3.04h.556v-8.84h-.835c-1.112 2.486-1.946 3.039-3.89 3.039.279-2.486 1.39-2.486 3.334-3.868v-.552c-.556 0-1.112-.276-1.39-.552v-6.354c4.724-.553 6.671-2.763 10.56-2.763 4.446 0 7.225 4.42 7.225 7.182 0 1.105-.833 3.591-1.667 4.697.555 1.106.834 2.486.834 3.316zm-3.059 11.602l-.277-1.105 1.112-.276.277 1.105-1.112.276zm-6.112-1.381c-.554 0-2.222-.277-2.5-.277-.835-.276-1.391-.276-1.391-1.104 0-.553.556-.829 1.391-.83 1.946 0 3.335.552 3.335 1.381 0 .553-.556.83-.835.83zm-11.115-.277l-1.669-1.38 1.669-1.658 1.667 1.657-1.667 1.381zm-5.28-4.42c-3.89 0-4.724-3.591-4.724-3.867 0-.553.556-.83.834-.83.556 0 1.112.553.833 1.381.835 0 1.946-.551 1.946-2.21 0-.829-1.111-1.657-2.223-1.657-.556 0-1.39.276-1.667.553-.557-2.21-1.39-3.04-1.669-3.591-1.11-.829-1.11-.829-1.39.276-.555 1.658-.277 2.211 0 3.868-.555 0-2.777.277-2.777 2.21 0 1.382.833 1.935 1.39 1.935.555 0 1.111-.277 1.389-.553-.556-.277-.556-.277-.556-.553 0-.277.556-.828.833-.828.834 0 1.111.828 1.111 1.656 0 2.211-1.667 3.316-3.334 3.316-2.223 0-3.334-1.658-3.334-2.486 1.667 0 2.5 1.381 2.778 1.934l.556-.277-3.334-8.01-.556.276c.556.829.835 1.657.835 1.934 0 .828-.556 1.933-1.112 1.933-.556-.276-.556-.552-.556-1.933 0-.83.278-2.21.833-3.316-.833-1.105-1.667-3.59-1.667-4.697 0-2.761 2.223-6.905 6.947-6.905 3.89 0 5.002 2.21 10.837 2.762v6.079c-.278.276-.834.553-1.111.553v.552c1.667 1.382 2.778 1.382 3.056 3.868-1.945 0-2.779-.553-3.89-3.04h-.834v8.84h.556v-.001c.833-1.658 1.945-3.04 3.89-3.04-.279 1.935-1.111 3.868-3.89 3.868zm-3.057 4.42c-.556 0-2.223.277-2.5.277-.557 0-.835-.277-.835-.83 0-.829 1.39-1.38 3.334-1.38.835 0 1.39.276 1.39.829 0 .828-.555.828-1.389 1.104zm-8.892 1.658l-1.111-.276.555-1.105 1.11.276-.554 1.105zm17.506-25.967c-.556 0-.834-.277-.832-.829 0-.552.277-.828.832-.828.277 0 .556.275.556.828 0 .552-.277.829-.556.829zm0 2.21c-.556 0-.834-.553-.832-.829 0-.552.277-.828.832-.828.277 0 .556.276.556.828 0 .276-.277.828-.556.828zm0 1.934c-.556 0-.834-.277-.832-.553 0-.552.277-.829.832-.829.277 0 .556.276.556.829 0 .276-.277.553-.556.553zm.556 3.314c0 .553-.277.83-.556.83-.556 0-.834-.277-.832-.83 0-.275.277-.552.832-.552.277 0 .556.276.556.552zm-.556-1.105c-.556 0-.834-.276-.832-.828 0-.277.277-.83.832-.83.277 0 .556.553.556.83 0 .552-.277.828-.556.828zm-2.78-10.496c-.555 0-.555-.277-.555-.553 0-.277.278-.553 1.39-.553 1.111 0 1.111 0 1.111-.829v-.828c0-.83.278-.83.834-.83.279 0 .556 0 .556.83v.828c0 .829 0 .829 1.112.829s1.666.276 1.666.553c0 .276-.278.553-.832.553 0 0-2.225-.277-2.503-.277-.555 0-2.778.277-2.778.277zM95.01 31.2c-.277 0-1.11 0-1.666.276v-1.381c.556 0 .834.276 1.39.276.833-.276 1.389-.83 1.11-1.656 0-.83-.834-1.382-1.39-1.382-.554.277-1.11.552-1.389.829 0-.277-.278-.829-.556-1.105.556 0 .835 0 1.112-.277.833-.276 1.112-1.104.833-1.656-.277-.83-1.11-1.105-1.945-.83-.278.277-.834.553-1.112 1.106-.279-.276-.554-.83-.833-1.106.279 0 .833-.276 1.11-.552.557-.553.279-1.381-.278-1.934a1.347 1.347 0 00-1.945 0c-.278.553-.556 1.105-.556 1.657-.278-.277-.834-.552-1.39-.829.556-.276.834-.553 1.112-1.104.278-.552 0-1.382-.835-1.657-.832-.277-1.666 0-1.944.83-.279.276 0 1.104.278 1.656-.834-.276-1.39-.276-1.944-.276.276-.277.554-.829.554-1.105 0-.83-.835-1.382-1.389-1.382-.835 0-1.668.552-1.668 1.382 0 .552.556 1.105.835 1.381-.556.276-1.389.553-1.945.553 0-.277.276-.83 0-1.105-.279-.828-1.112-1.381-1.668-1.105-.835.277-1.389 1.105-1.112 1.657.278.553.556 1.105 1.112 1.381-.556 0-1.112.277-1.389.552-.28 0-.556 0-.834.277.554-.553.554-1.382.278-1.935 0-.553-.834-1.104-1.668-.828-.834.277-1.112.828-.834 1.657 0 .553.556 1.105 1.112 1.381-1.39.277-1.945 0-1.945 0v-1.38l-.556-.552c.833-1.105 1.389-1.381 1.389-3.04 0-1.38-.556-2.762-1.389-3.314-1.112-.553-1.668-1.934-1.668-2.487v-.552c.556 0 1.668 0 2.224.277V10.76c-1.112.828-1.668.828-2.224.828v-.828c0-.277.556-1.105.835-1.658h-3.056c.278.553.835 1.381.835 1.658v.828c-.557 0-1.39 0-2.502-.553v2.763c.834-.277 1.667-.277 2.502-.277v.552c0 .553-.835 1.934-1.668 2.763-.834.276-1.39 1.657-1.39 3.039 0 1.657.556 1.934 1.39 3.039l-.834.552v1.381s-.278.277-1.667 0c.556-.276 1.112-.828 1.112-1.381.277-.552-.279-1.381-.835-1.657-.833-.276-1.667.277-1.945.828 0 .492 0 1.201.196 1.741.051.041.082.102.082.194a1.777 1.777 0 01-.082-.194c-.103-.082-.288-.083-.474-.083-.555-.276-.833-.276-1.39-.552.557-.276.835-.828 1.113-1.105 0-.828-.278-1.656-1.112-1.933-.834-.276-1.39.277-1.667 1.105-.278.277-.278.828 0 1.381-.556-.276-1.39-.553-2.224-.828.557-.276.835-.83.835-1.381 0-.83-.556-1.382-1.39-1.382-.834 0-1.39.552-1.39 1.382 0 .276.28.828.557 1.381-.556-.276-1.39 0-1.946 0 .279-.553.279-1.105.279-1.657-.279-.83-1.39-1.105-1.945-.83-.833.277-1.112 1.106-.833 1.935.277.277.556.829.833.829-.278.276-.833.552-1.39.828.278-.552 0-1.105-.278-1.657-.556-.553-1.39-.553-2.223 0-.556.553-.556 1.381 0 1.934.279.277.834.552 1.112.829-.278.276-.556.553-1.112.83 0-.554-.556-.83-.833-1.107-.834-.276-1.668 0-1.946.83-.279.828 0 1.656.833 1.934h1.113c-.278.276-.557.828-.557 1.105-.278-.277-.833-.553-1.39-.553-.833-.277-1.389.276-1.389 1.105-.278.828.279 1.656 1.111 1.656.556 0 .835 0 1.39-.276v1.381c-.556-.276-1.39-.276-1.945 0-.556.277-.834 1.105-.556 1.657.279.83 1.111 1.105 1.667.83.556 0 .834-.553 1.112-.83.279.83.557 1.381.557 1.381v.277h-1.668c-.556.275-1.11 1.105-.833 1.934.277.553 1.112.83 1.667.83l-.279.828 4.448 10.498-.557 1.654 1.39.553.833 1.658c5.001-1.659 11.393-2.487 16.95-2.487 5.28 0 11.672.828 16.673 2.486l.834-1.658 1.39-.553-.555-1.657 4.447-10.497-.278-.829c.556 0 1.39-.276 1.666-.829.278-.83-.277-1.658-.833-1.934a1.782 1.782 0 00-1.668 0v-.277s.279-.552.556-1.381l.835.83c.834.276 1.666 0 1.944-.83.279-.552 0-1.381-.834-1.933zm-39.183 87.02s.279 4.143.279 8.563c0 4.145-.279 9.393-.279 9.393h4.447s-.279-5.8-.279-9.393c0-3.59.279-8.563.279-8.563h-4.447z" fill="#0B0F17"/><path d="M59.719 126.783s2.778-3.038 3.89-4.42l3.335-4.143h2.778s-5.002 5.8-6.113 6.904l-2.78 2.21-1.11-.551z" fill="#0B0F17"/><path d="M63.609 151.647s.556-1.383 1.112-3.315c.833-2.21 1.667-3.316 1.667-3.316s.833 2.21 1.39 3.868l1.11 2.763h2.501s-1.111-2.486-2.223-4.697c-.556-1.383-1.667-4.697-1.667-4.697h-1.111s-2.223 4.972-2.78 6.355c-.555 1.38-1.389 3.038-1.389 3.038h1.39zm-10.838-9.394h2.223s-.279 2.21-.279 3.59c0 1.382-.277 5.25 2.78 5.25 2.222 0 2.779-1.933 2.779-3.868 0-1.658-.279-4.972-.279-4.972h1.39v4.42c0 2.21 0 5.25-4.447 5.25-4.168 0-4.168-3.315-4.168-4.146v-5.524zM30.262 118.22h3.89v7.183c0 2.762-.833 9.667 4.724 9.667 4.446 0 5.002-3.59 5.002-7.181v-9.67h2.5v8.564c-.277 4.145 0 9.67-8.336 9.67s-7.78-6.078-7.78-7.46V118.22zm32.513 7.46l7.502 10.496h-4.724l-5.557-8.287-.278-1.106 3.057-1.104zm15.839 10.496s.835-2.763 2.503-6.355c1.389-3.866 2.5-6.353 2.5-6.353s1.945 4.42 3.057 7.184c.833 2.762 1.945 5.524 1.945 5.524h4.447s-1.947-4.697-3.89-9.118c-1.112-2.486-3.334-8.838-3.334-8.838H83.62s-4.169 9.669-5.004 12.432c-1.11 2.486-2.5 5.524-2.5 5.524h2.498z" fill="#0B0F17"/><path d="M34.43 164.906s.556-1.658 1.39-3.59a15.243 15.243 0 011.389-3.317s.833 2.487 1.39 3.869a64.468 64.468 0 011.112 3.038h2.5l-2.223-4.972c-.556-1.383-1.667-4.697-1.667-4.697H37.21s-2.223 5.249-2.78 6.63c-.555 1.381-1.389 3.039-1.389 3.039h1.389zm45.574-33.978h7.78v-1.659h-7.78v1.659z" fill="#0B0F17"/><path d="M54.994 164.906s.556-1.658 1.39-3.59c.833-1.934 1.389-3.317 1.389-3.317s1.11 2.487 1.667 3.869c.556 1.38.833 3.038.833 3.038h2.501s-1.112-2.486-1.945-4.972c-.557-1.383-1.946-4.697-1.946-4.697h-1.111s-2.223 5.249-2.78 6.63c-.555 1.381-1.389 3.039-1.389 3.039h1.39zm-19.73-2.763h4.168v-.827h-4.168v.827z" fill="#0B0F17"/><mask id="b" fill="#fff"><use xlink:href="#a"/></mask><path fill="#0B0F17" mask="url(#b)" d="M64.442 148.884h4.168v-.828h-4.168zm-43.846 16.083v-.003.003zm10.5-9.731h-1.111l-1.669 3.314c-.556 1.106-1.944 3.317-1.944 3.317s-.834-1.658-1.39-3.038c-.556-1.106-1.945-3.592-1.945-3.592h-1.111s-.556 3.314-.556 4.697c-.277 1.097-.828 4.928-.834 4.97h1.111s.278-1.933.556-3.314c0-1.382.278-3.04.278-3.04s.833 1.934 1.39 2.765c.554 1.104 1.944 3.59 1.944 3.59h.278s1.112-1.934 1.667-3.315l1.668-3.316s.278 2.21.278 3.316c0 .829.279 3.315.279 3.315h2.223s-.278-3.04-.556-4.697c-.278-1.38-.556-4.972-.556-4.972m11.393-8.286c0-2.763 1.39-4.145 3.334-4.145 1.667 0 3.056 1.382 3.056 4.145 0 2.762-1.39 4.145-3.056 4.145-1.945-.001-3.334-1.107-3.334-4.145zm6.669 7.735l1.946-.829-3.613-2.21c2.223-.551 3.613-2.485 3.613-4.696 0-3.038-2.224-4.972-5.28-4.972-3.057 0-5.558 2.21-5.558 4.972 0 3.038 2.5 4.972 5.28 4.972l3.612 2.763zm37.238-11.605s.278 2.763.278 4.145c0 1.106-.278 4.42-.278 4.42h2.222v-8.565h1.112c.556 0 1.388.279 1.388.279v-1.106h-7.225v1.106s.835-.279 1.39-.279h1.113zm8.613 8.567h2.224v-4.422l3.056-4.972H98.9l-2.222 4.145-2.224-4.145H92.23v.276l2.779 4.973zm-43.627 6.629v3.592s-1.944-1.934-2.5-2.763c-.834-.83-3.613-3.868-3.613-3.868h-1.39v4.697c0 1.657-.278 4.972-.278 4.972v.002h1.39s-.278-2.763-.278-3.869c0-1.104.277-2.762.277-2.762s1.945 1.658 3.057 3.04c1.39 1.656 3.334 3.59 3.334 3.59h1.113v-9.67h-1.112v3.039zm26.954-7.46h-3.334s-.279-2.76-.279-4.143c0-1.106.279-4.42.279-4.42h-2.223v9.394h5.557v-.83zm3.89-3.866v-4.697h-2.222v9.394h2.222zm12.507 8.287v9.669h5.557V163.8h-3.334v-3.315s.556-.276 1.389-.276c.556 0 1.946.276 1.946.276v-1.103h-3.334v-3.315h1.389c.834 0 1.946.277 1.946.277v-1.106h-2.778l-2.78-.001zm-38.906 6.906h4.169v-.827h-4.169zm35.846-6.907h-1.11l-1.668 3.314-1.666 3.317s-.833-1.658-1.668-3.038c-.556-1.106-1.668-3.592-1.668-3.592h-1.11s-.556 3.314-.556 4.697c-.277 1.097-.828 4.928-.834 4.97h1.11s.28-1.933.28-3.314c.277-1.382.555-3.04.555-3.04s.835 1.934 1.389 2.765c.556 1.104 1.668 3.59 1.668 3.59h.556s.832-1.934 1.388-3.315c.835-1.106 1.947-3.316 1.947-3.316v3.316c.277.829.556 3.315.556 3.315h2.222s-.556-3.04-.556-4.697c-.279-1.38-.835-4.972-.835-4.972m14.731-29.833c-2.222-1.106-3.057-2.486-3.057-3.317 0-1.104.556-2.486 2.778-2.486s3.057 1.934 3.057 1.934l.556.277.556-2.763s-1.39-1.104-4.169-1.103c-4.447 0-6.113 3.315-6.113 5.524 0 2.21 1.666 3.867 3.613 4.973 1.944.827 4.447 1.934 4.447 3.59 0 1.934-.835 3.038-3.613 3.038-2.78-.277-3.336-2.763-3.336-2.763h-.277l-.834 3.038s.834 1.106 4.447 1.106c3.89 0 6.67-2.21 6.67-5.524s-2.503-4.696-4.725-5.524m6.112 29.834v1.106h2.5v8.563h2.225v-8.563h2.5v-1.106zm-2.778 3.039v3.592s-1.945-1.934-2.5-2.763c-.835-.83-3.613-3.868-3.613-3.868h-1.391v4.697c0 1.657-.279 4.972 0 4.972v.002h1.113v-6.631s1.944 1.658 3.334 3.04c1.112 1.656 3.057 3.59 3.057 3.59h1.112v-9.67h-1.112v3.039zm-37.177-2.427zm-2.005 6.571v1.38s0 .279-1.945.279-3.334-1.66-3.334-4.145c0-2.211 1.388-3.867 3.611-4.145 2.223 0 3.057 1.382 3.057 1.382l.556-1.382s-1.39-.829-3.89-.828c-1.389 0-5.557 1.106-5.557 5.25 0 3.59 3.056 4.696 5.834 4.696 2.501 0 3.613-.552 3.613-.552v-2.21c0-.83.279-1.383.279-1.383h-2.224v1.658zm6.392-1.935s.556-.276 1.389-.276c.556 0 1.668.276 1.668.276v-1.103h-3.057v-3.315h1.389c.556 0 1.668.277 1.668.277v-1.106h-2.5l-2.782-.001v9.669h5.56V163.8h-3.335v-3.315zm4.505 4.482v-.003.003z"/><path d="M3.836 172.103h132.328V3.835H3.836v168.268zM0 175.94h140V0H0v175.939z" fill="#0B0F17" mask="url(#b)"/></g></svg>