<svg width="70" height="88" xmlns="http://www.w3.org/2000/svg" xmlns:xlink="http://www.w3.org/1999/xlink"><defs><path id="a" d="M0 87.97h70V0H0z"/></defs><g fill="none" fill-rule="evenodd"><path fill="#0B0F17" d="M52.23 18.915L33.61 44.883 24.163 32.59v13.26l9.449 10.082 18.618-27.21z"/><path d="M45.421 19.468c0 .69 0 .828-.278.966-.278 0-.417-.552-.417-.966 0-.138.139-.553.278-.967l-.278-.138-1.667 4.005.278.138c.139-.276.555-.967 1.389-.967 0 .415-.556 1.243-1.667 1.243-.834 0-1.667-.552-1.667-1.657 0-.415.139-.829.555-.829.14 0 .417.276.417.414 0 .139 0 .139-.14.277 0 .138.279.276.557.276s.834-.276.834-.967c0-.966-1.252-1.105-1.529-1.105.139-.828.277-1.105 0-1.934-.14-.552-.14-.552-.695-.138-.14.276-.556.69-.833 1.795-.14-.138-.556-.276-.834-.276-.556 0-1.112.414-1.112.829 0 .828.556 1.105.973 1.105-.14-.414.14-.691.418-.691.139 0 .416.138.416.415 0 .138-.416 1.933-2.362 1.933-1.389 0-1.806-.967-1.945-1.933.973 0 1.667.69 1.945 1.52h.278v-4.42h-.417c-.556 1.242-.973 1.519-1.945 1.519.14-1.243.695-1.243 1.667-1.934v-.276c-.278 0-.556-.138-.695-.276v-3.177c2.362-.277 3.335-1.381 5.28-1.381 2.223 0 3.612 2.21 3.612 3.59 0 .553-.416 1.796-.833 2.35.278.552.417 1.242.417 1.657zm-1.53 5.801l-.138-.552.556-.139.139.553-.556.138zm-3.055-.69c-.277 0-1.112-.139-1.25-.139-.418-.138-.696-.138-.696-.552 0-.277.278-.414.696-.415.973 0 1.667.276 1.667.69 0 .277-.278.415-.417.415zm-5.558-.139l-.834-.69.834-.829.833.829-.833.69zm-2.64-2.21c-1.945 0-2.362-1.796-2.362-1.934 0-.276.278-.414.417-.414.278 0 .556.276.417.69.417 0 .972-.276.972-1.105 0-.414-.555-.829-1.111-.829-.278 0-.695.139-.834.277-.278-1.105-.695-1.52-.834-1.796-.555-.414-.555-.414-.695.139-.278.829-.138 1.105 0 1.933-.278 0-1.389.14-1.389 1.106 0 .69.417.967.695.967.278 0 .556-.138.695-.277-.278-.138-.278-.138-.278-.276s.278-.414.417-.414c.416 0 .555.414.555.828 0 1.106-.833 1.658-1.667 1.658-1.111 0-1.667-.829-1.667-1.243.834 0 1.25.69 1.39.967l.277-.138-1.667-4.006-.278.138c.278.415.417.83.417.967 0 .415-.278.967-.556.967-.278-.138-.278-.276-.278-.967 0-.414.14-1.105.417-1.657-.417-.553-.833-1.796-.833-2.349 0-1.38 1.111-3.453 3.473-3.453 1.945 0 2.501 1.106 5.418 1.382v3.039c-.138.138-.416.276-.555.276v.277c.833.69 1.389.69 1.528 1.933-.973 0-1.39-.276-1.945-1.52h-.417v4.42h.278c.417-.83.973-1.52 1.945-1.52-.14.967-.556 1.934-1.945 1.934zm-1.528 2.21c-.278 0-1.112.138-1.25.138-.279 0-.418-.138-.418-.414 0-.415.695-.69 1.667-.69.417 0 .695.137.695.414 0 .414-.278.414-.694.552zm-4.447.83l-.555-.14.277-.552.556.139-.278.552zm8.753-12.985c-.278 0-.416-.138-.416-.414 0-.276.139-.414.416-.414.14 0 .279.138.279.414 0 .276-.14.414-.279.414zm0 1.105c-.278 0-.416-.276-.416-.414 0-.276.139-.414.416-.414.14 0 .279.138.279.414 0 .138-.14.414-.279.414zm0 .967c-.278 0-.416-.138-.416-.276 0-.276.139-.414.416-.414.14 0 .279.137.279.414 0 .138-.14.276-.279.276zm.279 1.658c0 .276-.14.414-.279.414-.278 0-.416-.138-.416-.414 0-.138.139-.276.416-.276.14 0 .279.137.279.276zm-.279-.553c-.278 0-.416-.138-.416-.414 0-.138.139-.415.416-.415.14 0 .279.277.279.415 0 .276-.14.414-.279.414zm-1.39-5.248c-.277 0-.277-.138-.277-.277 0-.138.14-.276.695-.276.556 0 .556 0 .556-.414v-.414c0-.415.138-.415.416-.415.14 0 .279 0 .279.415v.414c0 .414 0 .414.556.414s.833.138.833.276c0 .139-.14.277-.417.277 0 0-1.112-.138-1.251-.138-.278 0-1.39.138-1.39.138zm13.48 5.386c-.138 0-.555 0-.833.138v-.69c.278 0 .417.138.695.138.416-.139.694-.415.555-.829 0-.414-.417-.69-.695-.69-.277.138-.555.276-.694.414 0-.138-.14-.414-.278-.553.278 0 .417 0 .556-.138.416-.138.556-.552.416-.828-.138-.415-.555-.553-.972-.415-.14.138-.418.277-.556.553-.14-.138-.277-.415-.417-.553.14 0 .417-.138.555-.276.278-.276.14-.69-.139-.967a.674.674 0 00-.972 0c-.14.276-.278.552-.278.828-.14-.138-.418-.276-.696-.414.278-.138.418-.276.556-.552.14-.276 0-.69-.417-.829-.416-.138-.833 0-.972.415-.14.138 0 .553.14.828-.418-.138-.696-.138-.973-.138.138-.138.277-.414.277-.552 0-.415-.417-.69-.694-.69-.418 0-.835.275-.835.69 0 .276.278.552.418.69-.278.139-.695.277-.973.277 0-.138.139-.415 0-.552-.139-.415-.556-.691-.834-.553-.417.138-.694.553-.556.828.14.277.278.553.556.691a1.06 1.06 0 00-.694.276c-.14 0-.278 0-.417.138.277-.276.277-.69.14-.967 0-.276-.418-.552-.835-.414-.417.138-.556.414-.417.828 0 .277.278.553.556.691-.695.138-.972 0-.972 0v-.69l-.278-.276c.416-.552.694-.69.694-1.52 0-.69-.278-1.38-.694-1.657-.556-.276-.835-.967-.835-1.243V6.76c.279 0 .835 0 1.113.138v-1.52c-.556.415-.834.415-1.113.415V5.38c0-.138.279-.553.418-.83h-1.528c.14.277.417.692.417.83v.414c-.278 0-.695 0-1.25-.276v1.38c.417-.137.833-.137 1.25-.137v.276c0 .276-.417.967-.833 1.38-.418.14-.695.83-.695 1.52 0 .829.277.968.695 1.52l-.418.276v.69s-.138.139-.833 0c.278-.138.556-.414.556-.69.139-.276-.14-.69-.417-.828-.417-.139-.834.138-.973.414 0 .246 0 .6.098.87.026.02.041.051.041.097a.888.888 0 01-.041-.097c-.051-.041-.144-.041-.237-.041-.277-.139-.417-.139-.695-.276.278-.139.418-.415.556-.553 0-.414-.138-.828-.556-.966-.416-.139-.694.138-.833.552-.139.138-.139.414 0 .69-.278-.138-.695-.276-1.112-.413a.76.76 0 00.417-.691c0-.415-.278-.69-.694-.69-.418 0-.695.275-.695.69 0 .138.14.414.278.69-.278-.138-.695 0-.973 0 .14-.276.14-.552.14-.828-.14-.415-.695-.552-.973-.415-.417.139-.556.553-.417.968.14.138.278.414.417.414-.14.138-.417.276-.695.414.14-.276 0-.552-.139-.828-.278-.277-.695-.277-1.111 0a.665.665 0 000 .967c.139.138.416.276.556.414-.14.138-.278.276-.556.415 0-.277-.278-.415-.417-.553-.417-.139-.834 0-.973.414-.14.415 0 .829.417.967h.556c-.139.139-.278.415-.278.553a1.065 1.065 0 00-.695-.277c-.417-.138-.695.139-.695.553-.14.414.14.828.556.828.278 0 .417 0 .694-.138v.69a1.192 1.192 0 00-.972 0c-.278.139-.417.553-.278.829.14.415.556.552.834.415.278 0 .416-.277.556-.415.139.415.278.69.278.69v.139h-.834c-.278.138-.555.552-.417.967.14.277.557.415.834.415l-.14.414 2.224 5.249-.278.827.695.277.416.828c2.501-.829 5.697-1.243 8.475-1.243 2.64 0 5.836.414 8.337 1.243l.417-.829.695-.276-.278-.829 2.224-5.249-.14-.414c.279 0 .696-.138.834-.414.14-.415-.138-.83-.416-.968a.89.89 0 00-.834 0v-.138s.139-.276.278-.69l.417.414c.417.138.833 0 .972-.415.14-.275 0-.69-.417-.966zM27.914 59.11s.139 2.071.139 4.281c0 2.073-.14 4.697-.14 4.697h2.224s-.14-2.9-.14-4.697c0-1.795.14-4.281.14-4.281h-2.223z" fill="#0B0F17"/><path d="M29.86 63.391s1.388-1.519 1.944-2.21l1.668-2.071h1.389s-2.501 2.9-3.057 3.452l-1.39 1.105-.555-.276z" fill="#0B0F17"/><path d="M31.804 75.823s.278-.69.556-1.657c.417-1.105.834-1.658.834-1.658s.417 1.105.695 1.934l.555 1.381h1.25s-.555-1.243-1.111-2.348c-.278-.691-.834-2.349-.834-2.349h-.555s-1.112 2.487-1.39 3.178c-.278.69-.694 1.519-.694 1.519h.694zm-5.419-4.697h1.112s-.14 1.106-.14 1.795c0 .692-.138 2.626 1.39 2.626 1.112 0 1.39-.967 1.39-1.934 0-.83-.14-2.487-.14-2.487h.695v2.21c0 1.106 0 2.625-2.223 2.625-2.084 0-2.084-1.657-2.084-2.072v-2.763zM15.131 59.11h1.945v3.59c0 1.382-.417 4.834 2.362 4.834 2.223 0 2.501-1.795 2.501-3.59V59.11h1.25v4.282c-.138 2.072 0 4.834-4.168 4.834s-3.89-3.038-3.89-3.73V59.11zm16.257 3.73l3.75 5.248h-2.361l-2.779-4.144-.139-.552 1.529-.552zm7.919 5.248s.417-1.381 1.252-3.177c.694-1.934 1.25-3.177 1.25-3.177s.972 2.21 1.528 3.592c.416 1.381.972 2.762.972 2.762h2.224s-.973-2.349-1.945-4.559c-.556-1.243-1.667-4.42-1.667-4.42H41.81s-2.085 4.835-2.502 6.217c-.555 1.243-1.25 2.762-1.25 2.762h1.25z" fill="#0B0F17"/><path d="M17.215 82.453s.278-.829.695-1.795c.278-.967.694-1.658.694-1.658s.417 1.243.695 1.934c.198.502.384 1.008.556 1.519h1.25l-1.111-2.486c-.278-.691-.834-2.349-.834-2.349h-.555s-1.112 2.625-1.39 3.316c-.278.69-.694 1.519-.694 1.519h.694zm22.787-16.989h3.89v-.83h-3.89v.83z" fill="#0B0F17"/><path d="M27.497 82.453s.278-.829.695-1.795c.416-.967.694-1.658.694-1.658s.556 1.243.834 1.934c.278.69.417 1.519.417 1.519h1.25s-.556-1.243-.973-2.486c-.278-.691-.973-2.349-.973-2.349h-.555s-1.112 2.625-1.39 3.316c-.278.69-.694 1.519-.694 1.519h.695zm-9.865-1.381h2.084v-.414h-2.084v.414z" fill="#0B0F17"/><mask id="b" fill="#fff"><use xlink:href="#a"/></mask><path fill="#0B0F17" mask="url(#b)" d="M32.221 74.442h2.084v-.414H32.22zm-21.923 8.041zm5.25-4.865h-.556l-.834 1.657c-.278.553-.972 1.658-.972 1.658s-.417-.828-.695-1.519c-.278-.553-.973-1.796-.973-1.796h-.555s-.278 1.658-.278 2.349c-.139.549-.414 2.464-.417 2.485h.556s.138-.967.278-1.657c0-.691.138-1.52.138-1.52s.417.967.695 1.382c.278.552.972 1.795.972 1.795h.14s.556-.967.833-1.657l.834-1.658s.139 1.105.139 1.658c0 .414.14 1.657.14 1.657h1.11s-.138-1.52-.277-2.348c-.139-.69-.278-2.486-.278-2.486m5.696-4.143c0-1.381.695-2.073 1.667-2.073.834 0 1.529.692 1.529 2.073s-.695 2.072-1.529 2.072c-.972 0-1.667-.553-1.667-2.072zm3.335 3.867l.973-.414-1.807-1.105c1.112-.276 1.807-1.243 1.807-2.348 0-1.52-1.112-2.486-2.64-2.486s-2.78 1.105-2.78 2.486c0 1.519 1.251 2.486 2.64 2.486l1.807 1.381zm18.619-5.802s.14 1.381.14 2.073c0 .553-.14 2.21-.14 2.21h1.11V71.54h.557c.278 0 .694.14.694.14v-.554h-3.612v.553s.417-.139.695-.139h.556zm4.306 4.283h1.112v-2.21l1.529-2.487h-.695L48.338 73.2l-1.112-2.073h-1.11v.139l1.388 2.486zm-21.813 3.315v1.796s-.972-.967-1.25-1.381c-.417-.416-1.807-1.935-1.807-1.935h-.694v2.349c0 .829-.14 2.486-.14 2.486v.001h.695s-.139-1.381-.139-1.934c0-.553.14-1.382.14-1.382s.971.83 1.527 1.52a32.847 32.847 0 001.668 1.795h.556V77.62h-.556v1.519zm13.477-3.73H37.5s-.14-1.38-.14-2.071c0-.553.14-2.21.14-2.21h-1.112v4.696h2.779v-.415zm1.945-1.933v-2.349h-1.111v4.697h1.111zm6.254 4.143v4.835h2.778V81.9h-1.667v-1.657s.278-.139.694-.139c.278 0 .974.139.974.139v-.552h-1.667v-1.657h.694c.417 0 .973.138.973.138v-.553h-2.779zm-19.453 3.454h2.084v-.414h-2.084zm17.923-3.454h-.555l-.834 1.657-.833 1.658s-.417-.828-.834-1.519c-.278-.553-.834-1.796-.834-1.796h-.555s-.278 1.658-.278 2.349c-.139.549-.415 2.464-.418 2.485h.556s.139-.967.139-1.657c.139-.691.278-1.52.278-1.52s.417.967.694 1.382c.278.552.834 1.795.834 1.795h.278s.417-.967.695-1.657c.417-.553.973-1.658.973-1.658v1.658c.139.414.278 1.657.278 1.657h1.111s-.278-1.52-.278-2.348c-.14-.69-.417-2.486-.417-2.486m7.365-14.917c-1.111-.553-1.528-1.243-1.528-1.658 0-.552.278-1.243 1.389-1.243 1.11 0 1.528.967 1.528.967l.278.138.278-1.381s-.695-.552-2.084-.551c-2.224 0-3.057 1.657-3.057 2.762s.833 1.933 1.806 2.486c.973.414 2.224.967 2.224 1.795 0 .967-.417 1.519-1.806 1.519-1.39-.138-1.669-1.381-1.669-1.381h-.138l-.417 1.519s.417.553 2.224.553c1.944 0 3.334-1.106 3.334-2.763 0-1.656-1.251-2.347-2.362-2.762m3.056 14.917v.553h1.25v4.282h1.112v-4.282h1.25v-.553zm-1.389 1.52v1.796s-.972-.967-1.25-1.381c-.418-.416-1.807-1.935-1.807-1.935h-.695v2.349c0 .829-.14 2.486 0 2.486v.001h.557v-3.316s.971.83 1.667 1.52c.556.828 1.528 1.795 1.528 1.795h.556V77.62h-.556v1.519zM36.28 77.924zm-1.002 3.286v.69s0 .14-.973.14c-.972 0-1.667-.83-1.667-2.073 0-1.106.695-1.933 1.806-2.073 1.111 0 1.529.691 1.529.691l.278-.69s-.696-.415-1.946-.414c-.694 0-2.778.553-2.778 2.624 0 1.796 1.528 2.348 2.917 2.348 1.25 0 1.807-.275 1.807-.275v-1.106c0-.414.139-.691.139-.691h-1.112v.829zm3.196-.967s.278-.138.694-.138c.278 0 .834.138.834.138v-.552h-1.528v-1.657h.694c.278 0 .834.138.834.138v-.553h-2.64v4.834h2.78V81.9h-1.668v-1.657zm2.252 2.24z"/><path d="M1.918 86.052h66.164V1.918H1.918v84.134zM0 87.969h70V0H0v87.97z" fill="#0B0F17" mask="url(#b)"/></g></svg>