<svg width="169" height="118" xmlns="http://www.w3.org/2000/svg" xmlns:xlink="http://www.w3.org/1999/xlink"><defs><path id="a" d="M0 0h46.239v37.63H0z"/></defs><g fill="none" fill-rule="evenodd"><path d="M0 40.166c.285.009.57.025.855.025 6.67.001 13.34.003 20.01-.006.285 0 .41.08.514.348 2.818 7.171 5.647 14.338 8.473 21.506 3.056 7.754 6.11 15.51 9.165 23.264.052.132.107.263.19.469.08-.181.136-.301.185-.425 2.318-5.809 4.638-11.618 6.948-17.43.1-.25.22-.342.49-.335 1.108.025 2.215.029 3.323.035l14.04.07c.855.003 1.71 0 2.625 0-.085.21-.143.361-.206.51l-13.585 31.904c-2.077 4.88-4.156 9.76-6.224 14.645-.122.289-.26.398-.593.397-4.8-.014-9.6-.012-14.4-.002-.271 0-.39-.083-.493-.327-5.399-12.874-10.806-25.745-16.21-38.617L.215 40.704c-.057-.137-.142-.263-.214-.395v-.143m82.547 77.617c-.29-.044-.578-.096-.87-.13-1.382-.16-2.776-.25-4.144-.489-1.497-.262-2.994-.582-4.447-1.022a55.098 55.098 0 01-5.066-1.818c-2.348-.97-4.546-2.233-6.641-3.678a38.642 38.642 0 01-5.932-5.013 36.303 36.303 0 01-1.682-1.895c-.094-.112-.12-.367-.061-.507 1.34-3.141 2.698-6.275 4.047-9.413.864-2.011 1.715-4.029 2.576-6.042.818-1.914 1.64-3.826 2.463-5.738.063-.146.144-.285.307-.42.06.257.135.51.177.77.433 2.674 1.44 5.127 2.913 7.383 1.702 2.606 3.892 4.734 6.525 6.402a21.666 21.666 0 006.225 2.713c2.537.653 5.105.836 7.716.51a19.49 19.49 0 007.208-2.368c2.159-1.213 4.038-2.777 5.577-4.72.655-.827 1.224-1.723 1.815-2.6.147-.218.297-.357.571-.332.13.011.262-.003.393-.003l18.51-.003.214.001c.4.007.395.01.291.403-.63 2.392-1.533 4.682-2.643 6.885a37.69 37.69 0 01-4.69 7.187 39.074 39.074 0 01-5.14 5.141 37.442 37.442 0 01-9.233 5.63c-2.914 1.239-5.925 2.159-9.067 2.598-1.424.199-2.86.319-4.29.479-.113.012-.223.058-.334.089h-3.288z" fill="#0B0F17"/><g transform="translate(60.873)"><mask id="b" fill="#fff"><use xlink:href="#a"/></mask><path d="M24.877 32.545c-.066-.11-.104-.212-.175-.284-.44-.45-.889-.892-1.334-1.338-.212-.213-.413-.188-.616.017-.427.43-.854.86-1.288 1.284-.223.219-.227.43-.01.647.436.437.875.872 1.312 1.309.197.197.391.201.588.004.446-.445.893-.888 1.334-1.339.077-.079.122-.19.19-.3zm-11.034 2.43c.71-.014 1.397-.209 1.944-.747.64-.629.514-1.415-.297-1.793-.794-.37-1.607-.315-2.37.073-.336.17-.654.441-.884.74-.34.444-.215.974.229 1.32.393.307.853.398 1.378.407zm17.923-2.818c-.373.105-.768.16-1.112.324-.755.36-.865 1.122-.29 1.727.708.743 2.069 1.012 3.009.594.878-.39 1.02-1.227.308-1.879-.533-.49-1.183-.682-1.915-.766zm-7.822-19.602c-.05-.328-.219-.605-.49-.744a.81.81 0 00-.975.194c-.264.304-.27.707-.016 1.048.268.358.296.667.086.934-.369.467-.372.73-.015 1.207a.685.685 0 01-.017.88c-.333.412-.334.715-.002 1.153.23.305.228.609-.01.903-.313.39-.316.744-.01 1.13.262.327.257.506-.022.83a.798.798 0 00.05 1.125c.318.3.778.307 1.099.015a.794.794 0 00.079-1.121c-.28-.344-.281-.508-.006-.87.269-.355.275-.71.017-1.049-.293-.384-.293-.626-.003-1.017.25-.336.256-.702.018-1.023-.31-.42-.311-.626-.005-1.045.243-.332.241-.705-.004-1.022-.282-.365-.275-.634-.009-1.026.103-.15.158-.334.235-.502zm.134-4.352c-.036-.285-.053-.595-.12-.894-.071-.31-.155-.628-.301-.907-.094-.18-.316-.418-.47-.41-.18.008-.443.222-.506.404-.182.521-.293 1.069-.407 1.61-.037.174-.075.256-.269.298a6.56 6.56 0 00-1.05.322c-.256.101-.553.277-.487.58.047.213.27.456.478.55.394.18.827.287 1.255.373.2.041.304.1.378.292.106.274.225.596.581.597.359 0 .451-.337.589-.596.005-.01.005-.027.012-.033.11-.082.207-.198.33-.239.438-.144.9-.224 1.319-.407.197-.085.45-.357.439-.528-.015-.201-.252-.459-.458-.56-.4-.195-.845-.297-1.313-.452zm3.89 17.898h.017c0 .536.013 1.072-.004 1.608-.014.45-.032.903-.112 1.343-.025.138-.245.304-.397.33-.098.017-.277-.176-.347-.312-.195-.38-.323-.795-.53-1.168-.336-.606-.93-.855-1.57-.711-.381.085-.56.278-.473.657.117.517.248 1.048.487 1.514.413.805 1.064 1.427 1.797 1.954.39.281.83.408 1.314.356.87-.095 1.652-.438 2.374-.908.24-.157.44-.406.598-.65.455-.702.66-1.5.783-2.314.072-.472-.105-.867-.506-1.144-.593-.409-.908-.256-1.008.457-.02.147-.14.368-.251.392a.685.685 0 01-.533-.129c-.2-.177-.345-.423-.488-.655-.388-.632-.282-1.622.23-2.282.389-.503.972-.624 1.79-.367.124.039.247.086.367.138.578.251.704.2.828-.411.183-.9.615-1.67 1.183-2.372.302-.374.587-.38.872.008.186.253.384.545.432.843.107.652.15 1.319.164 1.98.01.417.12.566.543.526.117-.01.238-.02.353-.004 1.072.146 1.668.82 1.663 1.875-.004 1.07-.768 2.012-1.738 2.143-.445.06-.543-.056-.412-.492.035-.113.076-.225.115-.338.101-.297-.015-.511-.265-.665-.332-.205-.691-.15-.96.17-.485.576-.752 1.234-.691 2.003.053.682.315 1.287.657 1.868.538.912 1.342 1.354 2.389 1.364.285.003.57-.023.854-.05 1.458-.138 2.359-1.034 2.997-2.252.238-.453.05-.707-.467-.696-.806.017-1.483.308-1.975.97-.134.182-.25.39-.42.529-.105.087-.306.112-.446.082-.068-.014-.128-.22-.13-.34-.004-.136.052-.278.097-.412.706-2.083 1.41-4.167 2.131-6.245.044-.125.217-.206.33-.308.07.124.187.243.201.374.05.46.038.928.096 1.387.08.628.19 1.255.71 1.705.462.4.82.326.912-.267.105-.673.141-1.37.1-2.05-.047-.78-.477-1.431-.914-2.064-.088-.127-.103-.305-.152-.46.155-.03.31-.083.465-.088.249-.008.527.06.674-.209.262-.475.565-.943.732-1.453.299-.915.316-1.876.23-2.83a5.257 5.257 0 00-.999-2.673c-1.203-1.655-4.198-2.81-6.46-2.108-.42.13-.85.23-1.263.379-2.374.85-4.73 1.751-7.24 2.146-.516.08-.841.464-.847 1.006a65.68 65.68 0 00.052 3.747c.016.343.195.713.397 1.002.243.348.285.42-.056.699-.341.278-.705.532-1.026.832-.195.18-.41.405-.476.648-.232.85.025 1.295.885 1.236.466-.031.833-.203 1.082-.588.22-.338.393-.706.615-1.042.08-.123.244-.191.37-.284.089.142.183.281.261.428.025.048.008.118.008.177v2.465zm-9.724.03c0-.858-.016-1.716.012-2.572.005-.182.166-.358.255-.537.146.122.302.234.433.37.07.073.086.196.144.284.202.306.383.634.627.904.363.403 1.34.486 1.641.18.35-.355.232-1.167-.247-1.61-.245-.226-.513-.426-.768-.641-.19-.16-.389-.314-.562-.491-.12-.122-.146-.263.032-.39.348-.25.485-.635.499-1.027a85.77 85.77 0 00.064-3.854c-.006-.58-.392-.891-1.006-1.03-1.147-.259-2.305-.49-3.427-.835-1.442-.443-2.854-.985-4.278-1.486-1.395-.49-2.792-.517-4.198-.036-1.616.553-2.897 1.485-3.546 3.125-.465 1.174-.461 2.392-.296 3.623.105.785.383 1.497.868 2.118.102.131.305.194.474.258.08.03.189-.022.281-.011.135.016.267.057.4.087-.034.134-.046.279-.107.399-.091.18-.216.341-.328.51-.75 1.136-.867 2.372-.546 3.662.154.619.457.69.94.265.388-.342.561-.8.626-1.29.08-.599.1-1.207.173-1.808.015-.125.143-.236.219-.354.105.098.265.177.306.297.722 2.102 1.43 4.21 2.137 6.317.045.134.073.275.094.416.039.257-.12.387-.332.316a1.011 1.011 0 01-.471-.377c-.49-.722-1.128-1.196-2.02-1.237-.218-.01-.534.036-.637.178-.095.132-.026.46.076.644.693 1.248 1.68 2.074 3.179 2.162 1.041.06 2.008-.06 2.708-.942.466-.587.788-1.25.91-1.993.148-.902-.1-1.7-.737-2.36-.25-.259-.61-.27-.913-.068-.29.194-.311.453-.19.753.044.11.079.225.106.34.074.306-.035.43-.344.397-.933-.098-1.786-1.012-1.828-1.958-.053-1.173.453-1.851 1.561-2.068.183-.036.378-.008.567-.009.329-.001.452-.137.43-.46-.016-.238-.042-.477-.026-.713.05-.76.08-1.528.606-2.158.316-.38.616-.402.905-.009.294.402.579.82.795 1.266.184.38.274.807.389 1.218.12.43.278.51.695.343.254-.101.51-.21.775-.263.52-.104 1.045-.1 1.413.354.804.992.746 2.176-.245 3.089-.104.095-.341.111-.49.069-.102-.03-.174-.216-.229-.345-.045-.106-.035-.235-.066-.349-.096-.356-.297-.451-.646-.316-.633.245-.926.814-.777 1.537.062.303.155.599.233.898.3 1.149.982 1.907 2.102 2.38 1.349.57 2.475.465 3.495-.634.735-.791 1.371-1.614 1.498-2.732.054-.477-.095-.702-.568-.76-.645-.082-1.156.151-1.47.722-.21.383-.348.807-.547 1.197-.065.127-.233.295-.336.284-.143-.017-.3-.163-.394-.294-.075-.105-.089-.27-.09-.41-.008-.845-.004-1.69-.003-2.536zM24.534 0c-.025.16-.02.33-.08.475-.183.433-.435.843-.57 1.289-.06.195.028.55.177.66.167.124.505.125.721.048.269-.096.48-.34.733-.493.122-.074.282-.087.424-.127.03.13.084.261.086.393.01.571.021 1.144-.004 1.715-.01.218-.117.433-.18.65-.172-.129-.389-.225-.508-.392-.217-.303-.493-.385-.835-.363-.392.025-.539.164-.53.56.02.806.37 1.456.943 2.013.332.322.648.665.934 1.027.33.419.476.92.373 1.445-.122.626-.318 1.237-.454 1.86-.042.19-.015.406.021.602.056.298.192.585.215.883.038.486-.011.978.023 1.464a.753.753 0 00.259.492c.089.069.39.027.443-.06.097-.157.104-.384.101-.582-.002-.12-.1-.238-.142-.361-.16-.46-.067-.874.266-1.22.338-.352.765-.43 1.218-.29.447.138.695.469.794.925.047.218.102.442.2.64.14.278.378.34.662.192.288-.15.305-.371.168-.628-.078-.147-.177-.282-.257-.428-.248-.448-.238-.896.063-1.31.294-.403.71-.552 1.197-.447.505.109.8.436.912.939.051.23.104.466.201.678.123.268.361.333.633.227.276-.107.434-.308.356-.612-.047-.181-.142-.352-.229-.52-.243-.47-.196-.989.133-1.366.325-.373.87-.502 1.338-.318.465.184.732.62.724 1.162-.002.188 0 .381.037.564.059.283.247.433.544.397.289-.035.447-.22.465-.501.008-.138-.031-.281-.067-.417-.136-.518.018-1.011.417-1.308a1.191 1.191 0 011.342-.05c.435.28.623.774.508 1.309-.035.161-.097.34-.06.487.04.149.17.35.293.378.115.026.31-.12.405-.24.089-.11.095-.288.132-.437.136-.55.494-.888 1.021-.96.474-.066.937.166 1.17.586.252.455.187.965-.157 1.395-.117.145-.257.314-.274.483-.016.154.08.384.203.467.096.064.34-.006.462-.094.124-.088.195-.264.262-.413.249-.547.694-.81 1.288-.746.462.05.89.45.978.916.105.545-.134 1.027-.64 1.312a1.504 1.504 0 00-.317.226c-.232.227-.199.47.008.692.197.212.406.248.656.048.49-.394.99-.427 1.449-.128.432.282.625.797.49 1.315-.114.447-.52.785-1.004.838-.07.008-.143.01-.211.028-.366.095-.536.329-.467.638.08.358.284.468.706.38.63-.132 1.15.078 1.396.58.217.445.189.883-.12 1.276-.3.38-.704.514-1.177.425-.554-.104-.808-.011-.865.334-.05.301.185.518.692.615.52.1.869.386.986.905.118.523-.091.998-.522 1.265-.426.265-.928.233-1.37-.084-.211-.153-.43-.35-.698-.136-.206.165-.168.63.063.879.202.217.433.407.638.623.258.273.324.576.193.95-.686 1.952-1.353 3.91-2.028 5.865-.12.348-.289.685-.354 1.042-.041.223.023.496.122.708.235.506.525.987.78 1.484.08.157.136.331.17.504.066.33-.033.564-.386.693-.48.175-.95.382-1.41.602-.42.2-.793.451-1.02.898-.155.303-.48.216-.742.149-.6-.154-1.188-.345-1.788-.496a43.629 43.629 0 00-8.354-1.253c-2.554-.135-5.115-.236-7.671-.2-4.591.062-9.148.487-13.59 1.758-.136.04-.271.086-.408.126-.548.16-.61.104-.966-.33a2.663 2.663 0 00-.802-.638c-.482-.256-.998-.447-1.5-.664-.404-.174-.531-.338-.37-.749.236-.605.523-1.199.856-1.757.26-.436.268-.836.109-1.289-.77-2.186-1.542-4.372-2.281-6.57-.074-.218.011-.538.124-.76.112-.222.354-.377.534-.567.106-.11.223-.219.297-.35.14-.25.137-.528-.07-.725-.211-.2-.437-.032-.609.104-.33.263-.689.376-1.098.274a1.153 1.153 0 01-.891-1.148c.005-.57.37-1.02.933-1.156.16-.039.357-.045.469-.143.14-.124.296-.328.294-.496-.002-.272-.242-.394-.51-.38-.213.01-.424.071-.636.07-.687-.006-1.179-.583-1.117-1.29a1.174 1.174 0 011.33-1.045c.118.018.233.05.351.066.257.034.446-.055.524-.317.08-.269.038-.508-.237-.634-.147-.068-.317-.092-.48-.121-.474-.086-.86-.442-.958-.896-.106-.497.105-1 .532-1.268.394-.247.94-.23 1.313.042.417.302.64.29.85-.045.183-.293.066-.564-.345-.797-.621-.352-.87-.982-.6-1.562.21-.45.574-.7 1.073-.7.497 0 .854.246 1.085.687.098.187.19.394.342.528.094.083.34.112.433.046a.547.547 0 00.193-.437c-.022-.172-.152-.343-.268-.489-.362-.456-.433-.936-.18-1.39.244-.444.708-.666 1.237-.594.485.066.849.446.972 1.01.028.126.039.279.116.368.104.12.28.274.399.255.125-.02.265-.212.315-.358.045-.13-.013-.303-.047-.451-.132-.577.035-1.065.474-1.352a1.2 1.2 0 011.373.051c.403.304.533.793.388 1.35-.043.165-.083.386-.008.511.094.159.307.336.47.338.16.003.385-.175.465-.332.088-.174.056-.415.056-.627 0-.528.282-.961.758-1.14.464-.173.994-.047 1.305.311.332.381.386.915.147 1.367-.082.156-.172.314-.22.483-.095.324.04.551.36.668.307.112.518-.018.643-.282.08-.169.118-.36.151-.547.095-.53.431-.913.917-1.024a1.19 1.19 0 011.227.47c.29.419.288.914-.002 1.374-.076.12-.155.24-.22.366-.138.269-.08.482.196.623.273.14.497.069.635-.19.093-.175.156-.373.193-.568.095-.513.352-.884.869-1.025.48-.13.904-.005 1.22.38.338.41.356.866.123 1.337-.006.01-.016.021-.016.032.001.236-.039.486.029.702.024.077.328.135.472.092.277-.083.266-.358.266-.6 0-.429-.033-.861.01-1.285.033-.333.178-.654.238-.986.035-.196.064-.43-.01-.601a5.192 5.192 0 01-.432-2.295c.025-.568.339-1.007.702-1.41.231-.255.482-.494.73-.734a2.602 2.602 0 00.811-1.7c.022-.261.072-.535-.236-.68-.282-.134-.775-.06-.97.146-.073.077-.123.18-.205.245-.14.112-.297.204-.446.304-.058-.17-.16-.34-.166-.512-.021-.606-.009-1.214-.009-1.822 0-.06.003-.12 0-.178-.02-.3.14-.33.352-.213.164.09.311.217.457.338.419.348.857.45 1.14.256.25-.173.313-.643.102-1.128-.136-.314-.35-.593-.498-.903-.06-.127-.035-.294-.049-.443h2.787z" fill="#0B0F17" mask="url(#b)"/></g><path d="M102.138 87.546l1.55-3.627 15.908-37.313c.887-2.08 1.779-4.155 2.657-6.237.088-.21.189-.282.415-.282 4.86.006 9.72.009 14.579-.005.307 0 .373.164.461.373l7.013 16.71 10.908 25.986 12.855 30.623c.164.391.326.784.516 1.242h-.437c-6.813 0-13.627-.001-20.44.006-.263 0-.389-.069-.49-.328-4.422-11.242-8.853-22.481-13.283-33.72l-4.409-11.183c-.034-.088-.07-.175-.14-.344-.078.173-.13.281-.177.392-2.42 5.818-4.844 11.635-7.253 17.458-.114.274-.252.335-.525.334-3.263-.018-6.526-.021-9.79-.035-3.203-.013-6.406-.033-9.61-.05h-.308m-2.093-22.885c-.669-.546-1.246-1.04-1.846-1.505-1.724-1.336-3.622-2.366-5.644-3.171-2.964-1.181-6.038-1.805-9.235-1.728-2.266.055-4.462.501-6.593 1.276-2.338.85-4.484 2.047-6.388 3.643-.908.762-1.734 1.626-2.56 2.479-.238.245-.463.32-.776.32-6.289-.005-12.578-.004-18.867-.004h-1.062c.083-.276.138-.512.224-.736a37.052 37.052 0 012.705-5.624 39.266 39.266 0 018.547-10.066 39.86 39.86 0 018.37-5.406 39.815 39.815 0 017.355-2.704 39.13 39.13 0 016.997-1.14c2.167-.154 4.326-.121 6.49.002 3.39.193 6.711.748 9.942 1.805a30.64 30.64 0 019.186 4.822c.684.524.677.523.35 1.268-1.221 2.79-2.438 5.583-3.659 8.374l-3.122 7.128c-.135.31-.267.622-.414.967" fill="#0B0F17"/></g></svg>