<svg width="112" height="79" xmlns="http://www.w3.org/2000/svg" xmlns:xlink="http://www.w3.org/1999/xlink"><defs><path id="a" d="M0 0h30.643v24.938H0z"/></defs><g fill="none" fill-rule="evenodd"><path d="M0 26.62c.189.005.378.015.566.015 4.421.001 8.842.002 13.262-.003.188 0 .27.053.34.23 1.868 4.753 3.743 9.502 5.615 14.253 2.026 5.139 4.05 10.278 6.074 15.417l.127.31c.052-.119.09-.199.122-.28 1.536-3.85 3.074-7.7 4.605-11.552.066-.166.145-.226.325-.222.733.016 1.467.02 2.201.023 3.102.016 6.203.032 9.305.046.567.003 1.133 0 1.74 0-.057.14-.095.24-.137.339-3 7.048-6.002 14.095-9.003 21.143-1.377 3.235-2.754 6.469-4.125 9.706-.08.191-.172.264-.392.263-3.182-.01-6.363-.008-9.544-.002-.18 0-.258-.054-.326-.216-3.578-8.532-7.162-17.062-10.743-25.593L.142 26.976C.104 26.885.048 26.8 0 26.714v-.095m54.706 51.438c-.192-.029-.383-.063-.576-.085-.916-.106-1.84-.166-2.747-.325a25.142 25.142 0 01-2.947-.677 36.515 36.515 0 01-3.357-1.205c-1.556-.643-3.013-1.48-4.401-2.437a25.609 25.609 0 01-3.932-3.323 24.06 24.06 0 01-1.114-1.256c-.062-.074-.08-.243-.04-.335.887-2.082 1.788-4.159 2.681-6.238.573-1.334 1.137-2.67 1.708-4.005.542-1.268 1.087-2.535 1.632-3.802a.685.685 0 01.203-.279c.04.17.09.339.117.51.288 1.772.955 3.398 1.931 4.893a14.134 14.134 0 004.324 4.243 14.359 14.359 0 004.126 1.798c1.682.433 3.383.554 5.114.338a12.902 12.902 0 004.776-1.57 12.444 12.444 0 003.697-3.127c.434-.548.81-1.142 1.202-1.723.098-.145.197-.237.379-.22.086.007.173-.003.26-.003l12.267-.002.142.001c.265.005.262.007.193.268a23.36 23.36 0 01-1.752 4.562 24.978 24.978 0 01-3.108 4.763 25.895 25.895 0 01-3.406 3.407 24.813 24.813 0 01-6.12 3.731c-1.93.821-3.926 1.43-6.008 1.722-.944.132-1.895.211-2.843.317-.075.009-.148.04-.222.06h-2.179z" fill="#0B0F17"/><g transform="translate(40.342)"><mask id="b" fill="#fff"><use xlink:href="#a"/></mask><path d="M16.487 21.569c-.044-.073-.07-.141-.116-.189-.292-.298-.59-.591-.884-.887-.141-.141-.274-.124-.409.011-.283.286-.566.57-.853.851-.148.145-.15.285-.007.43.289.29.58.577.87.867.13.13.259.133.39.003.295-.296.591-.59.883-.888.051-.052.08-.126.126-.198zm-7.313 1.61c.47-.01.926-.139 1.288-.495.425-.417.341-.938-.196-1.189-.527-.245-1.066-.208-1.572.049a1.778 1.778 0 00-.585.49c-.225.295-.142.646.152.875.26.203.565.264.913.27zm11.878-1.868c-.247.07-.51.106-.737.215-.5.239-.573.743-.192 1.144.47.493 1.37.67 1.994.394.582-.258.676-.813.204-1.245-.353-.324-.784-.453-1.27-.508zm-5.184-12.99c-.032-.218-.145-.402-.324-.493a.537.537 0 00-.646.128c-.176.202-.18.469-.011.694.177.238.196.443.056.62-.244.31-.246.483-.01.8a.454.454 0 01-.01.583c-.221.272-.222.474-.002.764.153.202.151.403-.006.598-.208.258-.21.493-.007.749.173.217.17.335-.015.55a.529.529 0 00.033.746.525.525 0 00.729.01c.22-.2.242-.51.052-.743-.186-.228-.186-.337-.004-.577.178-.235.182-.47.011-.695-.193-.254-.194-.415-.002-.674.166-.223.17-.465.012-.678-.205-.279-.206-.415-.003-.693a.533.533 0 00-.003-.677c-.187-.242-.182-.42-.005-.68.068-.1.104-.221.155-.332zm.09-2.885c-.025-.189-.036-.394-.081-.592a2.481 2.481 0 00-.2-.601c-.062-.12-.209-.277-.31-.272-.12.005-.294.147-.336.268-.12.345-.194.708-.27 1.067-.024.115-.05.17-.178.197a4.3 4.3 0 00-.696.214c-.17.067-.366.183-.323.383.032.142.18.303.317.366.261.119.549.19.832.247.133.027.202.066.25.193.07.182.15.395.386.396.237 0 .299-.224.39-.395.003-.007.003-.018.008-.022.072-.055.137-.131.219-.158.29-.096.596-.149.874-.27.13-.057.299-.237.29-.35-.009-.134-.166-.304-.303-.37-.265-.13-.56-.198-.87-.3zm2.577 11.862h.011c0 .355.009.71-.002 1.065a6.07 6.07 0 01-.074.89c-.017.092-.163.202-.264.22-.064.01-.184-.118-.23-.208-.129-.252-.214-.527-.35-.773a.913.913 0 00-1.042-.472c-.252.056-.37.184-.313.436.078.342.164.694.323 1.003.274.534.705.945 1.191 1.295.259.186.55.27.87.235.577-.062 1.095-.29 1.574-.601a1.46 1.46 0 00.396-.431c.302-.465.437-.994.52-1.533a.74.74 0 00-.336-.758c-.393-.271-.602-.17-.668.302-.013.098-.093.244-.167.26a.454.454 0 01-.353-.085c-.132-.117-.228-.28-.323-.435-.257-.418-.187-1.074.152-1.512.258-.333.644-.413 1.186-.243.083.026.164.057.243.092.383.166.467.132.55-.273.12-.596.407-1.107.783-1.572.2-.248.39-.252.578.005.123.168.255.361.287.56.07.431.099.873.109 1.312.006.275.078.374.36.348.077-.007.157-.013.233-.003.71.097 1.105.544 1.102 1.243-.002.708-.509 1.333-1.152 1.42-.294.04-.36-.037-.272-.326.022-.075.05-.15.075-.224.068-.197-.01-.339-.175-.44-.22-.136-.458-.1-.636.111-.322.383-.498.819-.458 1.329.035.451.209.852.435 1.237.357.604.89.898 1.583.904.189.002.379-.015.567-.033.966-.091 1.563-.685 1.986-1.492.157-.3.032-.469-.31-.461-.534.01-.982.204-1.308.643-.09.12-.166.257-.279.35-.07.058-.203.074-.296.054-.045-.01-.085-.145-.086-.225-.003-.09.034-.184.065-.273.467-1.38.934-2.762 1.412-4.139.029-.083.144-.137.218-.204.047.082.124.161.134.248.032.305.025.615.064.92.052.415.125.83.47 1.13.306.265.543.215.604-.178.07-.446.094-.908.067-1.359-.031-.517-.317-.948-.606-1.367-.059-.085-.069-.203-.101-.305.103-.02.205-.055.308-.058.165-.006.35.039.447-.139.173-.315.374-.625.485-.963.198-.606.21-1.243.153-1.875a3.484 3.484 0 00-.663-1.772c-.797-1.097-2.782-1.863-4.28-1.397-.279.086-.564.153-.838.251-1.573.564-3.134 1.16-4.798 1.422-.342.054-.558.308-.561.667-.008.828-.005 1.657.034 2.483.011.227.13.473.263.664.162.23.19.28-.037.464-.226.184-.467.352-.68.55-.13.12-.271.27-.315.43-.154.564.017.858.586.82.309-.021.552-.135.717-.39.145-.224.26-.468.408-.69.053-.082.162-.127.245-.189.059.094.121.186.173.284.017.031.006.078.006.117v1.634zm-6.445.019c0-.568-.01-1.137.008-1.704.004-.12.11-.237.17-.355.096.08.2.154.286.244.047.049.057.13.096.189.134.203.254.42.415.599.24.267.89.322 1.088.12.232-.236.154-.774-.164-1.068-.162-.15-.34-.283-.508-.425-.127-.106-.258-.208-.373-.325-.079-.08-.097-.174.02-.259.232-.165.323-.42.332-.68.03-.851.05-1.703.042-2.555-.003-.384-.26-.59-.666-.682-.76-.171-1.528-.325-2.272-.553-.955-.294-1.89-.653-2.835-.985-.924-.325-1.85-.343-2.782-.024-1.071.367-1.92.984-2.35 2.07-.308.779-.305 1.586-.196 2.402.07.52.254.992.575 1.404.068.087.203.128.314.17.053.021.125-.014.187-.007.089.011.176.038.265.058-.023.089-.03.185-.071.264-.06.12-.143.227-.217.339-.497.752-.575 1.571-.362 2.426.101.41.303.457.622.176.258-.227.372-.53.416-.854.052-.398.066-.8.114-1.2.01-.082.095-.156.145-.234.07.065.176.117.203.197.478 1.393.947 2.79 1.416 4.186.03.09.049.183.063.276.025.17-.08.257-.22.21a.67.67 0 01-.313-.25c-.325-.479-.747-.793-1.338-.82-.145-.007-.354.024-.423.118-.063.087-.017.305.051.427.46.827 1.114 1.374 2.106 1.432.69.04 1.332-.039 1.796-.624.308-.389.522-.829.602-1.32a1.744 1.744 0 00-.488-1.564c-.166-.172-.405-.18-.605-.045-.192.128-.206.3-.126.498.03.073.052.15.07.226.05.202-.023.284-.227.263-.619-.066-1.184-.67-1.212-1.298-.035-.777.3-1.227 1.034-1.37.121-.024.25-.006.376-.006.218-.001.3-.091.285-.306-.01-.157-.028-.315-.017-.472.033-.503.053-1.012.401-1.43.21-.251.409-.267.6-.005.195.266.384.543.527.838.122.252.182.535.258.807.08.285.184.338.46.228.169-.067.338-.14.514-.175.344-.068.693-.066.937.235.532.658.494 1.442-.163 2.047-.069.063-.226.074-.324.046-.068-.02-.116-.143-.152-.229-.03-.07-.023-.155-.044-.231-.064-.236-.197-.3-.428-.21-.42.163-.614.54-.515 1.02.041.2.103.396.154.594.198.762.65 1.264 1.394 1.578.893.377 1.64.308 2.316-.42.487-.525.908-1.07.992-1.811.036-.316-.062-.465-.376-.504-.428-.054-.767.1-.974.478-.14.255-.23.535-.363.794-.043.084-.155.196-.222.188-.096-.011-.2-.108-.261-.194-.05-.07-.06-.18-.06-.272-.005-.56-.003-1.12-.003-1.681zM16.26 0c-.017.105-.014.22-.054.315-.121.287-.288.558-.378.854-.04.129.019.365.118.438.11.082.334.082.478.031.178-.063.318-.225.485-.327.081-.049.187-.057.282-.084.02.087.055.174.057.26.006.38.014.759-.003 1.137-.007.145-.078.287-.12.43-.114-.084-.257-.148-.336-.258-.144-.202-.327-.256-.553-.241-.26.016-.358.108-.352.37.013.535.246.966.625 1.335.22.213.43.44.619.68.218.278.316.61.247.959-.08.414-.21.819-.3 1.232-.028.126-.01.269.014.399.037.197.127.388.142.585.025.322-.008.648.015.97a.5.5 0 00.172.326c.058.046.258.018.293-.039.064-.104.07-.255.067-.386 0-.08-.066-.158-.094-.24a.745.745 0 01.176-.808c.224-.233.507-.285.807-.192.297.092.461.31.527.613.031.145.067.293.133.424.092.184.25.225.438.127.19-.099.202-.246.111-.416-.051-.097-.117-.187-.17-.283-.164-.298-.157-.594.042-.868.195-.268.47-.366.793-.297.334.072.53.289.604.622.035.153.07.31.134.45.081.177.24.22.419.15.183-.071.287-.204.236-.406-.03-.12-.094-.233-.151-.344-.162-.312-.13-.655.088-.906a.798.798 0 01.886-.21c.309.122.485.41.48.77-.002.125 0 .253.025.374.039.187.163.287.36.263.191-.023.297-.146.308-.332.006-.091-.02-.187-.044-.277-.09-.343.012-.67.277-.866a.79.79 0 01.889-.034c.288.186.412.513.336.868-.023.107-.064.225-.04.323.026.098.113.232.194.25.077.017.206-.079.27-.158.058-.074.062-.191.087-.29.09-.365.327-.589.676-.637a.765.765 0 01.775.389c.167.302.124.639-.104.924-.077.096-.17.208-.181.32-.01.102.053.255.135.31.063.042.224-.004.306-.062.082-.059.129-.175.174-.274.164-.362.46-.537.853-.494a.78.78 0 01.648.606c.07.362-.089.681-.424.87a.996.996 0 00-.21.15c-.154.15-.132.311.005.458.13.141.27.165.435.032.325-.26.655-.283.96-.085a.786.786 0 01.325.872.769.769 0 01-.666.555c-.046.005-.094.007-.14.019-.242.063-.354.218-.309.422.053.238.188.31.468.252.417-.087.763.052.925.385.144.295.125.585-.08.845-.198.252-.466.341-.78.282-.367-.07-.535-.007-.573.221-.033.2.123.344.459.408.344.066.576.256.653.6a.76.76 0 01-.345.838c-.283.176-.615.155-.908-.056-.14-.1-.285-.232-.463-.09-.137.11-.112.418.042.583.134.144.287.27.422.413.172.18.216.381.128.63-.454 1.293-.896 2.59-1.344 3.886-.08.23-.191.454-.234.69a.836.836 0 00.08.47c.157.335.349.654.517.983.053.104.09.22.114.334.043.22-.023.374-.257.46-.318.115-.629.253-.934.398-.279.133-.526.3-.676.596-.102.2-.318.143-.492.098-.397-.102-.787-.228-1.184-.328a28.914 28.914 0 00-5.537-.83c-1.693-.09-3.39-.157-5.084-.134-3.043.042-6.063.324-9.006 1.166-.09.026-.18.057-.27.084-.364.105-.405.069-.64-.22a1.765 1.765 0 00-.532-.422c-.32-.17-.662-.296-.994-.44-.268-.116-.352-.224-.246-.496a7.84 7.84 0 01.568-1.165c.172-.289.177-.554.072-.854-.51-1.45-1.022-2.898-1.512-4.354-.049-.145.008-.357.082-.504.075-.147.235-.25.354-.376.07-.073.148-.145.197-.232.094-.165.091-.35-.047-.48-.14-.133-.289-.021-.403.07-.219.173-.456.248-.728.18a.764.764 0 01-.59-.76.778.778 0 01.618-.767c.107-.025.237-.03.311-.094.093-.082.196-.218.195-.33-.001-.18-.16-.26-.338-.251-.141.007-.281.047-.421.046-.456-.003-.781-.386-.74-.854a.778.778 0 01.881-.693c.078.012.154.033.232.044.17.022.296-.037.347-.21.053-.178.026-.337-.156-.42-.098-.046-.21-.061-.318-.08a.787.787 0 01-.635-.594.791.791 0 01.352-.84.8.8 0 01.87.027c.276.2.425.193.564-.03.121-.194.043-.374-.229-.528-.412-.233-.576-.65-.397-1.035.139-.299.38-.463.71-.464.33 0 .566.163.72.455.064.124.126.261.226.35.062.055.225.074.287.03a.363.363 0 00.128-.289c-.015-.114-.1-.227-.178-.324-.24-.302-.286-.62-.12-.922.163-.293.47-.44.821-.393.321.044.562.296.644.669.018.084.026.185.077.244.069.08.185.182.264.17.083-.014.176-.141.21-.238.029-.086-.01-.2-.032-.3-.088-.381.023-.705.314-.895a.796.796 0 01.91.034c.267.202.353.526.257.895-.028.11-.055.255-.005.339.062.105.203.222.312.224.105.001.254-.116.307-.22.059-.116.038-.276.038-.416 0-.35.186-.637.502-.755a.788.788 0 01.865.206c.22.252.256.606.098.905-.055.104-.114.209-.147.32-.063.215.027.366.24.443.202.074.342-.012.425-.187.053-.111.078-.239.1-.362.063-.352.286-.605.608-.679a.787.787 0 01.813.311c.192.278.191.606-.001.911-.05.08-.103.16-.146.243-.092.178-.054.32.13.413.18.092.33.045.42-.126.062-.116.104-.247.128-.377.063-.34.234-.586.576-.679.319-.086.6-.004.81.252.223.272.235.574.08.886-.003.007-.01.014-.01.02 0 .158-.026.323.019.466.016.052.218.09.313.061.183-.055.176-.237.176-.397 0-.285-.022-.57.006-.852.023-.22.119-.433.158-.653.024-.13.043-.285-.006-.399a3.44 3.44 0 01-.286-1.52c.016-.377.224-.668.465-.935.153-.17.32-.327.483-.486.32-.31.501-.684.538-1.127.015-.173.048-.355-.156-.451-.187-.089-.514-.04-.643.097-.048.051-.082.12-.136.163-.093.074-.197.134-.296.2-.038-.112-.106-.224-.11-.338-.014-.402-.005-.805-.005-1.208 0-.04.002-.079-.001-.118-.013-.199.093-.22.234-.141.109.06.206.143.302.224.278.23.569.298.756.17.166-.115.208-.427.068-.748-.09-.208-.233-.393-.33-.599C14.405.21 14.42.1 14.412 0h1.847z" fill="#0B0F17" mask="url(#b)"/></g><path d="M67.689 58.019l1.027-2.404L79.26 30.887c.588-1.378 1.179-2.754 1.76-4.134.059-.138.126-.187.276-.186 3.22.004 6.44.005 9.661-.004.204 0 .248.109.306.248l4.648 11.074 7.229 17.22 8.519 20.295c.109.26.216.52.342.824h-.29c-4.515 0-9.03-.001-13.545.004-.175 0-.258-.046-.326-.217-2.93-7.451-5.866-14.9-8.802-22.348l-2.922-7.411-.093-.228c-.052.115-.087.186-.117.26-1.605 3.856-3.21 7.71-4.807 11.57-.075.181-.167.222-.348.22-2.163-.011-4.325-.013-6.488-.022-2.123-.009-4.246-.022-6.369-.033h-.204m-1.388-15.166c-.443-.363-.826-.69-1.223-.998-1.143-.886-2.4-1.568-3.74-2.102-1.965-.782-4.002-1.196-6.12-1.145a13.683 13.683 0 00-4.37.846c-1.55.564-2.972 1.356-4.234 2.414-.601.505-1.149 1.077-1.697 1.643a.64.64 0 01-.514.212c-4.168-.003-8.335-.002-12.503-.002h-.704c.055-.183.091-.34.148-.488a24.555 24.555 0 011.793-3.727 26.023 26.023 0 015.664-6.67 26.416 26.416 0 015.548-3.584 25.932 25.932 0 019.511-2.547c1.436-.103 2.867-.081 4.301 0 2.247.128 4.448.496 6.589 1.197a20.305 20.305 0 016.087 3.195c.453.348.449.347.233.841-.81 1.85-1.617 3.7-2.426 5.55-.688 1.574-1.379 3.149-2.068 4.723-.09.206-.177.413-.275.642" fill="#0B0F17"/></g></svg>