<svg width="82" height="58" xmlns="http://www.w3.org/2000/svg" xmlns:xlink="http://www.w3.org/1999/xlink"><defs><path id="a" d="M0 0h22.435v18.258H0z"/></defs><g fill="none" fill-rule="evenodd"><path d="M0 19.489c.138.004.276.012.415.012 3.236 0 6.473.001 9.71-.003.137 0 .197.04.248.17 1.368 3.479 2.74 6.956 4.111 10.434l4.447 11.288.093.227c.038-.088.065-.146.09-.206 1.124-2.819 2.25-5.637 3.37-8.457.049-.122.107-.166.239-.163.537.012 1.074.014 1.611.017l6.813.034c.415.002.83 0 1.273 0-.04.102-.069.175-.1.248l-6.59 15.48a3359.875 3359.875 0 00-3.02 7.105c-.06.14-.127.194-.288.193-2.33-.006-4.659-.006-6.988 0-.131 0-.189-.04-.239-.16-2.62-6.246-5.243-12.491-7.865-18.737L.104 19.75c-.028-.067-.069-.128-.104-.192v-.069M40.053 57.15c-.14-.022-.28-.047-.422-.064-.67-.077-1.347-.12-2.011-.237a18.407 18.407 0 01-2.158-.496 26.734 26.734 0 01-2.458-.882c-1.14-.471-2.206-1.084-3.222-1.785a18.75 18.75 0 01-2.878-2.432 17.615 17.615 0 01-.817-.92c-.045-.054-.058-.178-.029-.245.65-1.525 1.31-3.045 1.964-4.568.419-.976.832-1.955 1.25-2.931.397-.929.796-1.857 1.195-2.784a.501.501 0 01.149-.204c.029.124.065.248.085.373.21 1.298.7 2.488 1.414 3.582a10.348 10.348 0 003.166 3.107 10.513 10.513 0 003.02 1.316 9.939 9.939 0 003.744.248 9.457 9.457 0 003.498-1.15 9.11 9.11 0 002.706-2.29c.318-.4.594-.836.88-1.26.072-.107.144-.174.277-.162.063.005.127-.002.19-.002l8.982-.001h.104c.194.004.192.006.141.196a17.103 17.103 0 01-1.282 3.34 18.288 18.288 0 01-2.276 3.488 18.96 18.96 0 01-2.494 2.494 18.167 18.167 0 01-4.48 2.732c-1.413.601-2.875 1.047-4.4 1.26-.69.097-1.387.155-2.08.233-.055.006-.109.028-.163.043h-1.595z" fill="#FFF"/><g transform="translate(29.536)"><mask id="b" fill="#fff"><use xlink:href="#a"/></mask><path d="M12.07 15.791c-.031-.053-.05-.103-.084-.138-.214-.218-.432-.433-.648-.649-.103-.103-.2-.091-.299.008-.207.209-.414.418-.624.623-.109.106-.11.209-.006.314l.637.635c.096.096.19.098.286.002.216-.216.433-.43.647-.65.037-.038.059-.092.092-.145zm-5.353 1.18c.344-.008.677-.102.943-.363.31-.305.25-.687-.144-.87-.385-.18-.78-.153-1.15.035a1.302 1.302 0 00-.429.36c-.165.215-.104.472.111.64.19.149.414.193.669.197zm8.696-1.368c-.18.05-.373.077-.54.157-.366.175-.42.544-.14.838.343.36 1.004.49 1.46.288.426-.189.494-.595.15-.912-.26-.237-.575-.33-.93-.371zm-3.795-9.511a.469.469 0 00-.238-.361.393.393 0 00-.473.094c-.128.148-.131.343-.008.508.13.174.144.324.042.454-.18.226-.18.354-.007.585a.332.332 0 01-.009.427c-.161.2-.161.347 0 .56.111.148.11.295-.005.438-.152.189-.154.36-.005.548.127.159.124.245-.011.403a.387.387 0 00.024.546.384.384 0 00.533.007.385.385 0 00.039-.544c-.136-.167-.137-.246-.003-.422.13-.172.133-.345.008-.509-.142-.186-.142-.304-.001-.494.12-.163.124-.34.009-.496-.151-.204-.151-.304-.003-.507a.39.39 0 00-.002-.496c-.137-.177-.133-.307-.004-.498.05-.073.076-.162.114-.243zm.065-2.112c-.018-.138-.026-.289-.059-.434a1.817 1.817 0 00-.146-.44c-.045-.087-.153-.202-.228-.199-.087.004-.214.108-.245.197-.088.252-.142.518-.198.781-.017.084-.036.124-.13.144a3.227 3.227 0 00-.51.156c-.124.05-.268.135-.236.281a.45.45 0 00.232.268c.191.087.402.14.609.18.098.02.148.05.184.142.051.133.109.29.282.29s.218-.164.285-.29c.003-.004.002-.012.006-.015.053-.04.1-.096.16-.116.212-.07.437-.109.64-.197.096-.042.219-.174.213-.257-.007-.098-.122-.223-.222-.271-.194-.095-.41-.145-.637-.22zm1.887 8.684h.009c0 .26.006.52-.002.78a4.444 4.444 0 01-.055.652c-.012.067-.118.148-.192.16-.048.009-.135-.085-.169-.151-.094-.185-.156-.386-.257-.567a.669.669 0 00-.762-.345c-.185.041-.271.135-.23.32.058.25.121.508.237.734.2.39.517.692.872.948.19.136.403.198.637.172.423-.045.802-.212 1.152-.44.117-.076.214-.197.29-.316.221-.34.32-.727.38-1.122a.542.542 0 00-.245-.555c-.288-.199-.44-.125-.489.221-.01.072-.068.179-.122.19a.332.332 0 01-.259-.062c-.096-.086-.167-.205-.236-.318-.188-.306-.137-.787.111-1.107.189-.244.472-.303.869-.178.06.019.12.042.178.067.28.122.341.097.402-.2.088-.436.298-.81.573-1.15.147-.182.286-.185.424.003.09.123.186.265.21.41.051.316.072.64.08.96.004.202.057.275.263.255a.755.755 0 01.17-.002c.52.071.81.398.808.91-.002.519-.373.976-.844 1.04-.216.03-.263-.027-.2-.239.017-.055.037-.109.056-.164.05-.144-.007-.248-.128-.323-.161-.099-.336-.072-.466.083-.236.28-.365.599-.336.972.026.33.153.625.32.906.26.443.65.657 1.158.662a4.01 4.01 0 00.415-.024c.707-.067 1.144-.502 1.454-1.093.115-.22.024-.343-.227-.337-.39.008-.719.149-.958.47-.065.088-.12.189-.203.257-.052.042-.149.054-.217.04-.033-.007-.062-.107-.064-.165-.001-.067.026-.135.048-.2.343-1.011.684-2.022 1.034-3.03.021-.061.105-.1.16-.15.034.06.09.118.098.181.023.224.018.45.046.674.039.304.093.609.345.827.224.194.398.158.442-.13.051-.326.069-.664.049-.994-.023-.38-.232-.695-.444-1.002-.043-.061-.05-.148-.074-.223.076-.015.15-.04.226-.043.12-.003.256.03.327-.1.127-.232.274-.459.355-.706.145-.444.153-.91.112-1.373a2.55 2.55 0 00-.485-1.297c-.584-.803-2.037-1.364-3.134-1.023-.204.063-.413.112-.613.184-1.152.412-2.295.85-3.513 1.041-.25.04-.408.225-.41.488a31.48 31.48 0 00.024 1.818c.008.167.095.346.193.486.118.17.138.205-.027.34-.166.135-.342.258-.498.403-.095.088-.199.197-.231.315-.113.412.012.628.43.6.225-.016.404-.099.524-.286.107-.164.19-.343.299-.506.039-.06.118-.092.18-.137.042.069.088.136.126.208.012.023.004.057.004.085v1.196zm-4.718.015c0-.416-.007-.833.006-1.248.003-.088.08-.174.124-.26.07.059.146.113.21.179.034.036.041.095.07.138.098.148.185.307.304.439.176.195.65.235.796.087.17-.173.113-.567-.12-.782-.118-.11-.248-.206-.372-.31-.093-.078-.189-.153-.273-.239-.058-.059-.071-.127.015-.189.17-.121.236-.308.243-.498.022-.623.036-1.247.03-1.87-.002-.282-.19-.433-.487-.5-.557-.125-1.119-.238-1.663-.405-.7-.215-1.385-.478-2.076-.721a3.022 3.022 0 00-2.037-.017c-.784.268-1.406.72-1.72 1.515-.226.57-.224 1.161-.144 1.759.051.38.186.726.42 1.027.05.064.15.094.23.125.04.015.093-.01.137-.005.066.008.13.028.194.042-.016.065-.022.136-.051.194-.045.087-.105.166-.16.247-.363.552-.42 1.151-.265 1.777.075.3.222.335.456.129.189-.166.273-.388.304-.626.04-.29.05-.586.084-.877.008-.061.07-.115.106-.172.051.047.13.086.15.144.35 1.02.693 2.042 1.036 3.065.022.065.035.134.046.202.018.125-.059.188-.161.153a.49.49 0 01-.23-.183c-.237-.35-.547-.58-.979-.6-.106-.005-.26.018-.31.087-.046.063-.012.223.038.312.336.605.815 1.006 1.542 1.049.505.03.974-.029 1.314-.457a2.09 2.09 0 00.442-.967 1.277 1.277 0 00-.358-1.145c-.121-.126-.296-.131-.443-.033-.14.094-.151.22-.092.365.021.053.038.109.051.165.036.148-.017.208-.167.193-.452-.048-.866-.491-.887-.95-.025-.57.22-.899.758-1.004.088-.017.183-.004.275-.004.16 0 .22-.067.209-.224-.008-.115-.021-.23-.013-.345.024-.369.039-.742.294-1.047.153-.184.299-.196.439-.005.142.195.28.398.386.615.09.184.133.391.188.59.059.21.135.248.338.167.123-.05.247-.102.376-.128.252-.05.507-.048.686.172.39.482.361 1.056-.12 1.499-.05.046-.165.054-.237.033-.05-.014-.085-.104-.111-.167-.022-.052-.017-.114-.032-.17-.047-.172-.145-.218-.314-.153-.307.12-.45.395-.377.746.03.147.075.29.113.436.145.557.476.925 1.02 1.155.655.276 1.2.225 1.696-.308.357-.384.665-.783.727-1.326.026-.231-.046-.34-.276-.369-.313-.039-.561.074-.713.35-.102.187-.169.392-.266.582-.031.061-.113.143-.162.137-.07-.008-.146-.078-.192-.142-.036-.051-.043-.131-.043-.199-.004-.41-.002-.82-.002-1.23zM11.904 0c-.012.077-.01.16-.039.23-.089.21-.21.41-.277.626-.028.094.014.267.086.32.082.06.245.06.35.023.13-.046.233-.165.356-.239.06-.036.137-.042.206-.062.015.064.04.127.042.191.004.278.01.555-.003.832-.004.106-.056.21-.087.315-.083-.062-.188-.109-.246-.19-.105-.147-.24-.186-.405-.176-.19.013-.262.08-.257.272.009.391.18.707.457.977.16.156.314.322.453.498a.85.85 0 01.181.702c-.06.303-.154.6-.22.902a.757.757 0 00.01.292c.027.144.093.284.105.428.018.236-.006.475.01.71.007.085.06.189.126.24.043.033.19.013.215-.03.047-.076.05-.186.05-.282-.002-.059-.05-.116-.07-.175a.546.546 0 01.13-.593c.163-.17.37-.208.59-.14.217.067.338.228.386.45.023.105.049.213.097.31.068.134.183.164.32.093.14-.073.149-.18.082-.305-.038-.071-.085-.137-.124-.208-.12-.217-.116-.434.03-.635a.535.535 0 01.581-.217c.245.052.388.211.442.455.025.112.05.226.098.33.06.13.175.161.307.11.134-.053.21-.15.173-.298-.023-.087-.069-.17-.111-.252a.58.58 0 01.065-.663.584.584 0 01.648-.154c.226.09.356.3.352.564-.001.091 0 .185.018.274.028.137.12.21.264.192.14-.017.217-.106.225-.243.004-.067-.015-.136-.032-.202-.066-.252.009-.49.202-.635a.578.578 0 01.652-.024c.21.136.302.375.246.635-.017.078-.048.165-.029.236.019.072.082.17.142.184.056.012.15-.058.197-.116.042-.054.046-.14.063-.213.066-.267.24-.43.496-.466a.56.56 0 01.567.285c.123.22.091.468-.076.676-.056.07-.124.153-.133.235-.007.075.04.186.1.226.046.031.163-.003.223-.045.06-.043.094-.128.127-.2.12-.266.337-.394.625-.362a.572.572 0 01.475.444c.05.264-.065.498-.311.636a.73.73 0 00-.154.11c-.112.11-.096.228.004.336.096.103.197.12.319.023.237-.19.48-.207.702-.062.21.137.304.387.239.638a.563.563 0 01-.488.407c-.034.004-.07.005-.102.013-.178.047-.26.16-.227.31.039.174.138.227.343.184.305-.064.558.038.677.282a.55.55 0 01-.059.619.552.552 0 01-.57.206c-.27-.05-.392-.005-.42.162-.024.146.09.252.336.299.252.048.421.187.478.439a.556.556 0 01-.253.614c-.207.128-.45.113-.664-.041-.103-.074-.21-.17-.34-.066-.1.08-.081.306.031.426.098.106.21.198.31.303.125.132.157.28.093.46-.332.948-.656 1.898-.984 2.846-.058.169-.14.333-.172.506-.02.108.012.24.06.344.114.245.254.478.378.72.039.075.066.16.083.244.032.16-.016.274-.188.336-.232.085-.46.186-.684.292-.204.097-.385.22-.495.436-.075.147-.233.105-.36.072-.29-.074-.576-.167-.867-.24a21.17 21.17 0 00-4.054-.608 55.942 55.942 0 00-3.722-.098c-2.227.03-4.439.237-6.593.854-.067.019-.132.042-.199.06-.265.078-.295.051-.468-.16a1.292 1.292 0 00-.39-.31c-.233-.123-.484-.216-.727-.321-.196-.085-.258-.164-.18-.363.115-.294.254-.582.416-.853a.683.683 0 00.052-.625c-.373-1.061-.748-2.122-1.106-3.188-.036-.106.005-.261.06-.369.054-.108.172-.183.259-.275.051-.054.108-.106.144-.17.068-.121.067-.256-.034-.352-.102-.097-.212-.015-.295.051-.16.127-.335.182-.533.133a.56.56 0 01-.432-.558.57.57 0 01.452-.56c.078-.02.173-.022.228-.07.068-.06.143-.159.143-.24-.002-.132-.118-.191-.248-.185-.103.005-.206.035-.308.034-.334-.003-.572-.282-.542-.625a.57.57 0 01.645-.508c.057.01.113.025.17.032.125.017.216-.026.254-.153.039-.13.019-.247-.114-.308-.072-.033-.154-.045-.233-.059a.576.576 0 01-.465-.435.58.58 0 01.258-.615.585.585 0 01.637.02c.202.147.31.142.412-.021.09-.142.032-.274-.167-.387-.302-.17-.422-.476-.29-.758a.544.544 0 01.52-.34c.24 0 .414.12.526.334.047.09.092.191.166.256.045.04.165.054.21.022a.266.266 0 00.093-.212c-.01-.083-.073-.166-.13-.237-.175-.221-.21-.454-.087-.675a.573.573 0 01.6-.287c.236.031.412.216.472.489.013.062.019.136.056.179.05.058.136.133.194.124.06-.01.129-.103.153-.174.021-.063-.007-.147-.023-.219-.064-.28.017-.517.23-.656a.583.583 0 01.666.025c.196.148.259.385.188.655-.02.08-.04.187-.004.248.046.077.15.163.229.164.077.001.186-.085.225-.161.043-.085.027-.202.027-.304a.577.577 0 011.001-.402.583.583 0 01.072.663c-.04.076-.084.152-.108.234-.046.157.02.268.176.324.148.054.25-.009.312-.137.038-.081.057-.175.073-.265.046-.257.209-.443.445-.497a.577.577 0 01.595.228c.14.203.14.444 0 .667-.038.058-.076.116-.108.177-.067.13-.039.234.095.303.133.067.242.033.308-.093a.971.971 0 00.094-.275c.046-.25.17-.43.422-.497a.538.538 0 01.592.184c.164.2.172.42.06.649-.003.005-.008.01-.008.015 0 .115-.02.236.014.34.011.038.16.067.229.046.134-.041.129-.174.129-.292 0-.208-.016-.417.004-.623.017-.162.087-.317.116-.479.017-.094.031-.208-.005-.291a2.519 2.519 0 01-.21-1.114c.013-.275.165-.488.341-.684.112-.124.234-.24.354-.356.234-.227.367-.5.394-.825.01-.127.035-.26-.115-.33-.137-.065-.376-.03-.47.07-.035.039-.06.088-.1.12-.068.054-.144.099-.216.147-.028-.082-.078-.164-.08-.248-.01-.294-.005-.59-.005-.884 0-.029.002-.058 0-.087-.01-.145.068-.16.17-.103.08.044.152.105.222.164.204.17.417.218.553.124.122-.084.153-.312.05-.547-.066-.152-.17-.288-.241-.438-.03-.062-.017-.143-.024-.215h1.352z" fill="#FFF" mask="url(#b)"/></g><path d="M49.558 42.478l.752-1.76 7.72-18.105c.43-1.008.862-2.016 1.288-3.026.043-.101.092-.137.201-.136 2.358.003 4.716.004 7.074-.003.15 0 .181.08.224.181l3.403 8.108 5.292 12.608 6.237 14.859.251.603h-.212c-3.306 0-6.612 0-9.918.003-.127 0-.188-.034-.238-.16-2.145-5.455-4.295-10.908-6.444-16.361l-2.14-5.426c-.016-.043-.034-.085-.067-.167-.038.084-.064.137-.086.19-1.175 2.823-2.35 5.646-3.52 8.471-.055.133-.122.163-.254.162-1.584-.009-3.167-.01-4.75-.017-1.555-.006-3.11-.016-4.663-.024h-.15m-1.016-11.104c-.324-.265-.604-.505-.895-.73a11.198 11.198 0 00-2.739-1.54c-1.438-.572-2.93-.875-4.48-.837a9.983 9.983 0 00-3.2.62 10.21 10.21 0 00-3.099 1.767c-.44.37-.841.788-1.242 1.202a.469.469 0 01-.377.156c-3.051-.003-6.103-.002-9.154-.002h-.515c.04-.134.066-.249.108-.358.363-.945.797-1.857 1.313-2.728a18.988 18.988 0 014.147-4.884 19.34 19.34 0 014.061-2.624 18.986 18.986 0 016.963-1.865c1.052-.074 2.1-.058 3.15.001 1.645.094 3.256.363 4.824.876a14.866 14.866 0 014.457 2.34c.331.254.328.253.17.615-.593 1.354-1.183 2.71-1.776 4.063l-1.514 3.459c-.066.15-.13.302-.202.47" fill="#FFF"/></g></svg>