<svg width="62" height="60" xmlns="http://www.w3.org/2000/svg" xmlns:xlink="http://www.w3.org/1999/xlink"><defs><path id="a" d="M0 0h59.531v48.536H0z"/><path id="c" d="M0 0h3.94v6.031H0z"/></defs><g fill="none" fill-rule="evenodd"><g transform="translate(0 11.464)"><mask id="b" fill="#fff"><use xlink:href="#a"/></mask><path d="M33.085 24.646l-3.97-4.74 7.004-7.003h3.69v5.018l-6.724 6.725zM12.278 45.453c-.837.836-1.288.804-1.437.793-.423-.03-.96-.368-1.599-1.007-.67-.67-2.066-2.066-.655-3.477l7.04-7.04 3.69 3.691-7.04 7.04zM2.76 17.067L14.413 5.415l3.691 3.69-.518.519L6.97 20.24l-.518.518-3.691-3.69zm56.77-14.78V0h-7.96c-.303 0-.594.12-.808.335L40.48 10.615h-4.835a1.14 1.14 0 00-.808.336l-7.196 7.196-.408-.487-1.753 1.469 7.023 8.384c.021.025.044.05.067.074.309.308.48.84.47 1.46-.011.763-.301 1.54-.72 1.935-1.24 1.166-3.68 3.375-6.09 5.061-3.033 2.124-3.997 1.977-4.096 1.952l-8.042-8.042c-1.327-1.327-1.267-2.772-1.21-4.17.01-.262.021-.51.021-.753 0-.304-.12-.595-.335-.809l-3.172-3.172 8.998-9 .519.519c.821.822 2.033 1.662 4.79 1.662.377 0 .72-.004 1.033-.007 2.067-.023 2.44-.027 3.466.999l1.617-1.617c-1.706-1.706-2.843-1.693-5.107-1.67a75.56 75.56 0 01-1.01.008c-2.012 0-2.692-.512-3.172-.992l-.519-.518.519-.519a1.143 1.143 0 000-1.617l-5.308-5.308a1.143 1.143 0 00-1.617 0L.335 16.26a1.143 1.143 0 000 1.617l5.308 5.308a1.14 1.14 0 001.617 0l.518-.518 2.827 2.826-.008.198c-.063 1.53-.158 3.845 1.878 5.88l1.535 1.535-7.04 7.04c-.91.91-2.67 3.387.655 6.711 1.068 1.069 2.038 1.6 3.054 1.672.078.005.155.008.233.008 1.02 0 1.999-.481 2.983-1.466l7.093-7.093c.378.222.803.32 1.256.32 1.557 0 3.445-1.12 4.9-2.106 2.64-1.788 5.357-4.24 6.742-5.543.881-.829 1.42-2.161 1.441-3.565.016-1.03-.257-1.956-.772-2.673l7.207-7.207a1.14 1.14 0 00.335-.808v-6.162l9.946-9.946h7.488z" fill="#FFF" mask="url(#b)"/></g><path fill="#FFF" d="M61.789 9.289L55.154 0l-1.861 1.33 6.635 9.288zM48.107 26.396l1.617 1.617 2.654-2.654-1.617-1.617zM60.05 14.453l-6.635 6.635 1.617 1.617 6.635-6.635zM55.792 32.15l2.17.724.885-2.654-2.17-.724z"/><g transform="translate(58.004 20.208)"><mask id="d" fill="#fff"><use xlink:href="#c"/></mask><path fill="#FFF" mask="url(#d)" d="M1.77 0L0 5.308l2.17.723L3.94.723z"/></g><path fill="#FFF" d="M56.062 7.604L50.754 4.95 49.73 6.995l5.308 2.654zM46.773 2.96L42.79.969l-1.023 2.045 3.982 1.991z"/></g></svg>