<svg width="62" height="49" xmlns="http://www.w3.org/2000/svg"><path d="M41.767 26.085c-2.409-1.057-4.288-2.642-5.636-4.756-1.35-2.113-2.024-4.611-2.024-7.494 0-4.131 1.3-7.47 3.902-10.016C40.611 1.273 43.935 0 47.981 0c4.047 0 7.395 1.297 10.045 3.891C60.676 6.485 62 9.8 62 13.835c0 1.922-.24 3.843-.723 5.765-.481 1.922-1.541 4.804-3.18 8.647L49.717 49H35.408l6.359-22.915zm-34.107 0c-2.409-1.057-4.288-2.642-5.637-4.756C.674 19.216 0 16.718 0 13.835 0 9.704 1.3 6.365 3.902 3.82 6.503 1.273 9.828 0 13.874 0c4.047 0 7.395 1.297 10.044 3.891 2.65 2.594 3.975 5.909 3.975 9.944 0 1.922-.241 3.843-.723 5.765-.482 1.922-1.541 4.804-3.18 8.647L15.609 49H1.301L7.66 26.085z" fill="#FFF"/></svg>