<svg xmlns="http://www.w3.org/2000/svg" width="18.5" height="21.167"><g fill="none" stroke="#96c72c" stroke-linecap="round" stroke-linejoin="round" stroke-miterlimit="10" stroke-width="1.5"><path d="M9.25 4.25v2"/><path data-name="Path" d="M6.75 9.25v-2a1 1 0 011-1h3a1 1 0 011 1v2m2 3.5v-2.5a1 1 0 00-1-1h-7a1 1 0 00-1 1v2.5"/><path data-name="Path" d="M.75 9.25h0a8.5 8.5 0 018.5-8.5h0a8.5 8.5 0 018.5 8.5h0a8.035 8.035 0 01-2.354 5.682l-4.732 4.732a2 2 0 01-2.828 0l-4.732-4.732A8.035 8.035 0 01.75 9.25z"/></g></svg>