<svg data-name="”" xmlns="http://www.w3.org/2000/svg" width="57" height="41"><path d="M35.8 41l-5.445-7.694a27.752 27.752 0 008.95-5.757 10.315 10.315 0 003.215-7.221c0-4.231-2.54-7.04-7.995-8.842V9.877A9.674 9.674 0 0140.585.8a11.211 11.211 0 014.25-.8 11.365 11.365 0 018.95 3.9A14.761 14.761 0 0157 13.666a24.861 24.861 0 01-1.781 9.149 29.8 29.8 0 01-4.735 7.964 33.429 33.429 0 01-6.777 6.241A30.572 30.572 0 0135.8 41zM5.445 41L0 33.305a27.748 27.748 0 008.95-5.757 10.315 10.315 0 003.215-7.221c0-4.23-2.54-7.04-7.994-8.842V9.877A9.674 9.674 0 0110.232.8a11.211 11.211 0 014.25-.8 11.365 11.365 0 018.95 3.9 14.761 14.761 0 013.215 9.762 24.86 24.86 0 01-1.781 9.149 29.8 29.8 0 01-4.736 7.964 33.432 33.432 0 01-6.777 6.241A30.573 30.573 0 015.446 41z" fill="#96c72c"/></svg>