<svg xmlns="http://www.w3.org/2000/svg" width="68" height="58.132"><g data-name="cold chain" fill="none" stroke="#96c72c" stroke-linecap="round" stroke-linejoin="round" stroke-miterlimit="10" stroke-width="3"><path d="M27.405 43.055l-.679.512a4.021 4.021 0 00-1.601 3.21h0a4.025 4.025 0 00.838 2.451l5.248 6.8m2.265-15.167V28.432a1.872 1.872 0 00-1.871-1.871h0a1.872 1.872 0 00-1.873 1.871v17.561m7.488-5.102v-5.229a1.873 1.873 0 00-1.639-1.857m5.38 7.266v-3.3a1.871 1.871 0 00-1.372-1.805m4.118 20.154l.548-2.45a18.727 18.727 0 00.45-4.081v-10.3a1.873 1.873 0 00-1.383-1.811"/><path d="M25.662 41.341H5.578A4.077 4.077 0 011.5 37.263V5.578A4.079 4.079 0 015.578 1.5h56.844A4.079 4.079 0 0166.5 5.578v31.685a4.077 4.077 0 01-4.078 4.078H48.357"/><path d="M27.033 24.653a8.335 8.335 0 01-2.342-5.803 8.351 8.351 0 018.353-8.353 8.353 8.353 0 018.353 8.353 8.351 8.351 0 01-4.329 7.321"/><path d="M34.98 22.182a2.041 2.041 0 01-2.041 2.043 2.042 2.042 0 01-2.043-2.043 2.041 2.041 0 012.043-2.04 2.041 2.041 0 012.041 2.04zm-2.004-9.452v7.412m-12.139-6.561a7.842 7.842 0 01-7.844 7.841 7.84 7.84 0 01-7.841-7.841 7.842 7.842 0 017.841-7.844 7.844 7.844 0 017.844 7.844z"/><path d="M16.036 15.161a3.043 3.043 0 01-3.043 3.043 3.045 3.045 0 01-3.043-3.043c0-1.682 3.043-6.2 3.043-6.2s3.043 4.518 3.043 6.2zm37.839-4.205a5.333 5.333 0 012.248-3.413 5.054 5.054 0 013.978-.523 5.77 5.77 0 013.068 1.909 7.2 7.2 0 01-2.52 2.674 5.6 5.6 0 01-3.604.984 5.089 5.089 0 01-3.17-1.631z"/><path d="M53.875 10.956a5.333 5.333 0 00-2.248-3.413 5.042 5.042 0 00-3.978-.523 5.77 5.77 0 00-3.068 1.909 7.2 7.2 0 002.52 2.674 5.6 5.6 0 003.6.984 5.089 5.089 0 003.174-1.631zm.036-.001v9.375m9.26 11.689H59.12m-10.491 0h6.973m3.554 2.257v-4.588M10.29 32.386H6.241m14.54.002h-7.27m-3.182 2.258v-4.59"/></g></svg>