<svg xmlns="http://www.w3.org/2000/svg" width="67.997" height="68"><g data-name="Group 6" fill="none" stroke="#96c72c" stroke-linecap="round" stroke-linejoin="round" stroke-miterlimit="10" stroke-width="3"><path d="M62.08 51.878l3.777-7.712-7.51-4.505a24.876 24.876 0 00.36-9.442l7.793-3.435-2.782-8.124-8.5 2.126a24.83 24.83 0 00-6.423-6.93l3.082-7.938-7.712-3.777-4.5 7.51a24.882 24.882 0 00-9.443-.36L26.784 1.5 18.66 4.282l2.126 8.5a24.84 24.84 0 00-6.933 6.418l-7.938-3.082-3.775 7.715 7.51 4.506a24.876 24.876 0 00-.36 9.442L1.5 41.215l2.782 8.123 8.5-2.125a24.842 24.842 0 006.42 6.931l-3.079 7.938 7.71 3.775 4.5-7.51a24.827 24.827 0 009.443.36l3.437 7.793 8.124-2.785-2.126-8.5a24.834 24.834 0 006.933-6.415z"/><path d="M50.498 42.074a18.372 18.372 0 01-24.574 8.425 18.371 18.371 0 01-8.425-24.576A18.37 18.37 0 0142.074 17.5a18.372 18.372 0 018.424 24.574z"/><path d="M34 32.021a8.193 8.193 0 013.458-5.247 7.757 7.757 0 016.126-.8 8.893 8.893 0 014.723 2.935 11.14 11.14 0 01-3.881 4.116 8.639 8.639 0 01-5.548 1.508A7.828 7.828 0 0134 32.021zm-.003 0a8.189 8.189 0 00-3.461-5.247 7.751 7.751 0 00-6.123-.8 8.881 8.881 0 00-4.723 2.927 11.138 11.138 0 003.881 4.117 8.634 8.634 0 005.548 1.515 7.838 7.838 0 004.878-2.512zm.037 0v8.588m-12.425 6.957a5.029 5.029 0 015.025-4.862 5.023 5.023 0 012.085.454 7.112 7.112 0 015.458-2.549 7.131 7.131 0 016.442 4.078 3.663 3.663 0 012.079-.644 3.688 3.688 0 013.688 3.523"/></g></svg>