<svg xmlns="http://www.w3.org/2000/svg" width="68" height="62.348"><g data-name="Group 7" fill="none" stroke="#96c72c" stroke-linecap="round" stroke-linejoin="round" stroke-miterlimit="10" stroke-width="3"><path d="M25.522 18.457V4.327a2.825 2.825 0 012.826-2.826h26.848a2.825 2.825 0 012.826 2.825v16.961a2.825 2.825 0 01-2.826 2.826h-7.948l-9.009 8.474v-8.478H34m26.852 2.826h2.826a2.825 2.825 0 012.826 2.826v16.961a2.825 2.825 0 01-2.826 2.826h-9.361l-9.013 8.474v-8.478h-5.652M34 10.019h14.13M34 15.672h8.478m2.826 19.782h12.717m-12.717 5.652h7.065m-35.871 18.35c-4.561-1.187-7.982-6.087-7.982-10.937v-6.724c0-2.241 3.261-4.792 6.935-6.35m-1.333-3.736c0 5.603 11.4 10.77 15.4 10.626m-1.129 8.622v-8.478"/><path d="M21.283 58.022v2.826c6.783 0 11.3-5.408 11.3-9.891l2.83-1.409V41.07l-2.826-1.413v-2.826a14.131 14.131 0 00-14.13-14.13 14.131 14.131 0 00-14.13 14.13v2.817L1.5 41.065v8.483l2.826 1.409"/></g></svg>