<svg xmlns="http://www.w3.org/2000/svg" width="24" height="24"><path d="M0 0h24v24H0z" fill="none"/><path data-name="Path" d="M17 12.948V11a1 1 0 00-1-1H8a1 1 0 00-1 1v1.95" fill="none" stroke="#96c72c" stroke-linecap="round" stroke-linejoin="round" stroke-miterlimit="10" stroke-width="1.5"/><path data-name="Path" d="M3 10l7.2 5.4a3 3 0 003.6 0L21 10" fill="none" stroke="#96c72c" stroke-linecap="round" stroke-linejoin="round" stroke-miterlimit="10" stroke-width="1.5"/><path data-name="Path" d="M20.216 8.513l-6.392-4.895a3 3 0 00-3.648 0L3.784 8.513A2 2 0 003 10.1V18a3 3 0 003 3h12a3 3 0 003-3v-7.9a2 2 0 00-.784-1.587z" fill="none" stroke="#96c72c" stroke-linecap="round" stroke-linejoin="round" stroke-miterlimit="10" stroke-width="1.5"/></svg>