<svg xmlns="http://www.w3.org/2000/svg" width="49.172" height="68"><g fill="none" stroke="#96c72c" stroke-linecap="round" stroke-linejoin="round" stroke-miterlimit="10" stroke-width="3"><path d="M2.631 57.534V10.466h43.91v47.068"/><path d="M2.631 10.466L1.5 2.63 8.121 1.5l5.49 1.13L19.1 1.5l5.489 1.13 5.489-1.13 5.489 1.13 5.488-1.13 6.619 1.13-1.133 7.836m0 47.068l1.131 7.833-6.62 1.133-5.49-1.133-5.489 1.133-5.489-1.133L19.1 66.5l-5.489-1.133L8.119 66.5 1.5 65.367l1.131-7.833m0 .037h43.91M24.587 32.054a9.057 9.057 0 013.827-5.808 8.579 8.579 0 016.775-.891 9.847 9.847 0 015.225 3.247 12.311 12.311 0 01-4.294 4.554 9.552 9.552 0 01-6.133 1.677 8.669 8.669 0 01-5.4-2.779z"/><path d="M24.585 32.054a9.058 9.058 0 00-3.828-5.808 8.58 8.58 0 00-6.775-.891 9.832 9.832 0 00-5.225 3.248 12.313 12.313 0 004.294 4.554 9.552 9.552 0 006.136 1.676 8.668 8.668 0 005.4-2.779zm.037 0v18.911"/></g></svg>