<svg width="206" height="25" xmlns="http://www.w3.org/2000/svg"><path d="M12.717 15.747v-4.855h12.47a17.717 17.717 0 01.031 1.363c0 3.993-1.056 7.09-3.167 9.292-2.113 2.203-5.085 3.304-8.916 3.304-1.885 0-3.56-.284-5.027-.85-1.466-.566-2.776-1.433-3.93-2.598-1.1-1.11-1.955-2.427-2.565-3.947a12.712 12.712 0 01-.912-4.774c0-1.736.296-3.332.889-4.789.592-1.456 1.476-2.766 2.652-3.932A11.796 11.796 0 018.25 1.388C9.757.806 11.386.515 13.132.515c2.276 0 4.289.45 6.041 1.35 1.753.9 3.225 2.242 4.423 4.022L18.09 8.586c-.656-.921-1.395-1.606-2.214-2.056-.82-.45-1.739-.675-2.754-.675-1.895 0-3.386.632-4.476 1.896-1.09 1.265-1.635 2.991-1.635 5.181 0 2.211.545 3.951 1.635 5.22 1.09 1.27 2.583 1.904 4.476 1.904 1.61 0 2.95-.391 4.024-1.176 1.074-.783 1.701-1.828 1.881-3.133h-6.31zm15.068 8.557V1.06h6.311v17.782h7.89v5.462h-14.2zm39.272-11.591c0 1.672-.308 3.24-.922 4.7a11.968 11.968 0 01-2.686 3.923 12.692 12.692 0 01-4.072 2.645c-1.526.62-3.11.93-4.753.93a12.54 12.54 0 01-4.778-.93 12.174 12.174 0 01-4.015-2.645 11.795 11.795 0 01-2.726-3.938 11.943 11.943 0 01-.93-4.685c0-1.663.31-3.228.93-4.694a11.841 11.841 0 012.726-3.931 12.21 12.21 0 014.015-2.644 12.54 12.54 0 014.778-.93c1.653 0 3.246.31 4.778.93 1.532.62 2.88 1.501 4.047 2.644a11.958 11.958 0 012.678 3.923c.62 1.472.93 3.04.93 4.702m-12.41 6.857c1.762 0 3.22-.649 4.372-1.945 1.15-1.297 1.727-2.935 1.727-4.912 0-1.957-.585-3.59-1.752-4.897-1.17-1.307-2.618-1.96-4.348-1.96-1.762 0-3.22.65-4.371 1.953-1.151 1.304-1.728 2.937-1.728 4.904 0 1.998.568 3.642 1.704 4.927 1.136 1.288 2.601 1.93 4.395 1.93M80.934 1.314c1.045.169 1.944.46 2.697.873.86.476 1.514 1.113 1.966 1.912.45.798.676 1.721.676 2.768 0 1.322-.336 2.37-1.01 3.148-.673.778-1.745 1.368-3.219 1.77 1.649.127 2.936.707 3.866 1.74.929 1.032 1.395 2.412 1.395 4.138 0 1.24-.262 2.33-.787 3.272a5.43 5.43 0 01-2.248 2.193c-.794.424-1.775.726-2.938.906-1.165.18-3.073.27-5.72.27h-6.574V1.06h6.381c2.631 0 4.47.085 5.515.254zm22.074-.254l8.032 23.244h-6.301l-1.175-4.126h-9l-1.206 4.126h-6.29L95.072 1.06h7.936zm-25.75 13.413h-2.334v5.097h2.237c1.507 0 2.572-.188 3.197-.567.626-.378.938-1.009.938-1.893 0-.98-.286-1.666-.858-2.055-.573-.388-1.633-.582-3.18-.582zm21.814-9.648c-.138.573-.273 1.118-.405 1.637a54.124 54.124 0 01-.404 1.492l-2.334 7.671h6.301l-2.365-7.67a19.957 19.957 0 01-.301-1.128l-.492-2.002zm-22.773.848h-1.375v4.672h1.279c1.576 0 2.657-.17 3.244-.515.586-.342.878-.936.878-1.78 0-.877-.275-1.492-.822-1.846-.549-.354-1.616-.531-3.204-.531zm36.015 18.631V1.06h6.312v17.782h7.89v5.462h-14.202zm28.456-12.016h9.602v.781c0 3.662-1.037 6.551-3.111 8.667-2.074 2.117-4.904 3.175-8.49 3.175-1.09 0-2.13-.117-3.119-.35a11.273 11.273 0 01-2.737-1.017c-1.905-1.048-3.377-2.495-4.413-4.344-1.037-1.847-1.555-3.946-1.555-6.297 0-1.937.309-3.687.928-5.249a11.438 11.438 0 012.8-4.122 10.47 10.47 0 013.647-2.256c1.386-.508 2.919-.762 4.601-.762 2.232 0 4.167.405 5.807 1.213 1.638.81 2.997 2.027 4.076 3.654l-2.326 1.87c-.837-1.416-1.878-2.478-3.125-3.187-1.248-.707-2.698-1.061-4.347-1.061-2.696 0-4.885.912-6.566 2.738s-2.521 4.213-2.521 7.162c0 2.781.854 5.064 2.561 6.846 1.706 1.783 3.883 2.674 6.526 2.674 2.327 0 4.264-.708 5.814-2.123 1.548-1.415 2.408-3.256 2.576-5.524h-6.628v-2.488zM152.3 22.75c0-.523.186-.971.558-1.345.37-.374.817-.56 1.337-.56.531 0 .985.185 1.362.552.378.37.567.82.567 1.353 0 .524-.186.965-.558 1.322-.372.357-.829.535-1.371.535-.53 0-.98-.178-1.346-.535a1.775 1.775 0 01-.549-1.322M169.113.15l10.562 24.154h-2.998l-3.012-7.161h-9.072l-3.012 7.16h-3.025L169.113.15zm0 6.094l-3.695 8.532h7.39l-3.695-8.532zm13.111 16.506c0-.523.186-.971.558-1.345.37-.374.817-.56 1.337-.56.531 0 .985.185 1.363.552.377.37.566.82.566 1.353 0 .524-.186.965-.558 1.322-.372.357-.828.535-1.37.535-.53 0-.98-.178-1.347-.535a1.775 1.775 0 01-.549-1.322m21.827-1.905c.531 0 .985.185 1.363.552.377.37.566.82.566 1.353 0 .524-.186.965-.558 1.322-.372.357-.829.535-1.371.535-.53 0-.98-.178-1.346-.535a1.775 1.775 0 01-.549-1.322c0-.523.186-.971.558-1.345.37-.374.817-.56 1.337-.56zM195.299 1.06c1.698 0 2.95.09 3.753.27.803.18 1.5.476 2.092.889.738.528 1.317 1.253 1.733 2.173.418.92.627 1.941.627 3.063 0 1.121-.21 2.142-.627 3.061-.416.921-.995 1.646-1.733 2.175-.592.422-1.287.724-2.084.905-.798.18-2.05.269-3.761.269h-2.173v10.438h-2.731V1.061h4.904zm-.778 2.549h-1.395v7.767h1.395c2.366 0 3.961-.276 4.78-.831.819-.555 1.229-1.525 1.229-2.91 0-1.479-.421-2.52-1.261-3.123-.84-.602-2.423-.903-4.748-.903z" fill="#373938"/></svg>