<svg width="45" height="51" xmlns="http://www.w3.org/2000/svg"><path d="M22.465.013a6.23 6.23 0 00-3.11.849L3.092 10.349A6.234 6.234 0 000 15.75l.062 18.763a6.235 6.235 0 003.149 5.394l16.327 9.29a6.235 6.235 0 006.24-.044L41.89 39.67a6.234 6.234 0 003.07-5.379l-.03-18.553a6.233 6.233 0 00-3.078-5.364L25.647.87a6.228 6.228 0 00-3.181-.857zm.01 2.095a4.132 4.132 0 012.111.568l16.206 9.506a4.131 4.131 0 012.043 3.56l.03 18.553-40.708.212-.062-18.763a4.132 4.132 0 012.051-3.586l16.265-9.487a4.138 4.138 0 012.064-.563zm5.02 8.943c-2.273-.007-4.452 1.135-4.658 4.96 1.162-1.932 2.22-3.009 4.58-3.53l.766-.098-.936.373c-1.93.782-3.68 2.264-4.593 4.429l-.114.295-2.484-3.4-.17 1.802 2.844 3.494c.188-.769.31-1.492.648-2.227.38-.754.384-.756 1.487-.866 1.75-.19 5.326.126 7.017-3.977-1.024-.634-2.73-1.25-4.388-1.255zm-2.93 9.301c-.866 0-1.639.274-2.316.823-.864.7-1.296 1.616-1.296 2.745 0 1.127.432 2.04 1.296 2.741a3.564 3.564 0 002.302.823c.492 0 1.026-.115 1.605-.344v-2.12c-.17.206-.34.36-.509.46a1.95 1.95 0 01-1.016.283c-.459 0-.858-.138-1.196-.414-.429-.348-.643-.825-.643-1.43 0-.608.214-1.086.643-1.435a1.837 1.837 0 011.196-.414c.362 0 .7.095 1.016.285.173.102.342.255.509.458v-2.118c-.589-.23-1.118-.344-1.59-.344zm6.02 0c-.866 0-1.639.274-2.317.823-.863.7-1.295 1.616-1.295 2.745 0 1.127.432 2.04 1.295 2.741a3.564 3.564 0 002.303.823c.491 0 1.026-.115 1.605-.344v-2.12c-.17.206-.34.36-.509.46a1.951 1.951 0 01-1.017.283c-.458 0-.857-.138-1.195-.414-.429-.348-.643-.825-.643-1.43 0-.608.214-1.086.643-1.435a1.836 1.836 0 011.195-.414c.363 0 .702.095 1.017.285.173.102.342.255.509.458v-2.118c-.588-.23-1.118-.344-1.59-.344zm-24.099.145v6.802h1.77v-2.83h2.55v2.83h1.77v-6.802h-1.77v2.626h-2.55v-2.626h-1.77zm9.488 0l-2.616 6.802h1.869l.468-1.186h2.442l.439 1.186h1.888l-2.561-6.802h-1.929zm17.323 0v6.802h1.769v-2.252h1.106c.87 0 1.493-.261 1.87-.783.288-.402.432-.91.432-1.525 0-.624-.179-1.138-.538-1.54-.415-.468-1.023-.702-1.824-.702h-2.815zm1.769 1.43h.593c.355 0 .606.076.752.23.15.149.224.35.224.602 0 .256-.064.459-.194.608-.142.166-.405.25-.787.25h-.588v-1.69zm-18.14.673l.733 2.167h-1.475l.742-2.167zm-4.56 14.359c.26 0 .553.063.877.19v1.168a1.093 1.093 0 00-.28-.253 1.07 1.07 0 00-.561-.157c-.253 0-.473.077-.66.229-.236.192-.355.456-.355.791 0 .334.119.597.355.79.187.152.407.228.66.228.2 0 .387-.052.56-.157a1.09 1.09 0 00.281-.253v1.169c-.319.126-.614.19-.885.19-.473 0-.896-.152-1.27-.454-.477-.387-.715-.891-.715-1.513 0-.622.238-1.128.715-1.514.374-.303.8-.454 1.278-.454zm1.496.08h2.136v.816h-1.16v.635h1.097v.817h-1.097v.668h1.16v.817h-2.136v-3.753zm2.76 0h1.518c.444 0 .772.133.985.398.172.215.258.467.258.756 0 .332-.099.597-.297.795-.126.126-.3.214-.522.264l1.18 1.54h-1.216l-.93-1.441v1.44h-.976V37.04zm3.176 0h2.58v.816h-.809v2.937h-.976v-2.937h-.795v-.816zm3.006 0h.976v3.753h-.976v-3.753zm1.77 0h2.15v.816H25.55v.635h1.07v.817h-1.07v1.485h-.976v-3.753zm2.74 0h.975v3.753h-.976v-3.753zm1.77 0h2.136v.816h-1.16v.635h1.097v.817H30.06v.668h1.16v.817h-2.136v-3.753zm2.76 0h1.44c.353 0 .68.098.98.294.295.19.521.445.68.764A1.84 1.84 0 0134.781 40a1.821 1.821 0 01-1.497.792h-1.44v-3.753zM17.6 37.78v.938h.181c.205 0 .353-.043.443-.13a.456.456 0 00.145-.34.446.446 0 00-.145-.339c-.092-.086-.24-.129-.443-.129H17.6zm15.221.074v2.12h.223c.383 0 .67-.127.86-.382.146-.194.218-.42.218-.68 0-.258-.072-.483-.217-.676-.193-.255-.48-.382-.86-.382h-.224" fill="#373938"/></svg>