<svg xmlns="http://www.w3.org/2000/svg" width="1450" height="113.881"><path d="M1213.027 83.112c2.263 6.6 7.791 4.474 12.173 7.97 4.046 3.227 2.338 9.7 7.089 12.814 4.7 3.081 13.168-.113 17.142-3.2 2-1.549 3.662-4.157 5.986-5.212 2.2-1 6.647 1.164 9.125 1.361 2.6 9.924 17.964 7.975 24.728 3.8 10.1-6.233 15.586-18.888 23.114-27.724a158.609 158.609 0 0111.257-12.364c2.84-2.687 6.25-4.926 8.216-8.359 7.471 3.153 20.368 4.814 26.581-1.5 2.876-2.917 4.212-10.274 7.854-11.817 1.837-.778 4.145-.368 6.091-.736a28.179 28.179 0 008.243-3.327c9.355-5.168 17.042-13.157 26.1-18.862 12.4-7.808 28.637-11.714 43.274-11.835V0H0c2.837 9.989 7.363 17.811 17.172 22.282 3.139 1.431 7.288.853 10.152 2.569 1.951 1.171 2.638 3.625 4.362 5.077 2.775 2.34 7.384 3.175 10.9 3.523 4.946.488 9.829-3.393 14.39-2.69 3.6.556 4.54 6.5 7.6 8.466 8.531 5.485 17.522-1.9 24.027-6.942.254 2.553 1.284 4.984 1.319 7.556.055 4.786-.934 8.55 1.587 13.051 12.343 22.039 43.459 15.082 61.661 6.8a89.623 89.623 0 0015.8-9.659c1.6-1.179 4.382-4.49 6.567-4.173 5.248.764 5.722 10.532 8.249 13.883 3.242 4.3 8.3 3.173 11.814 6.413 3.366 3.1 2.37 8.572 5.983 11.7 7.123 6.159 20.345-2.684 23.711-9.168 2.507 1.412 5.681 1.805 8.023 3.391 1.7 1.155 2.713 3.059 4.4 4.248 4.753 3.335 11.21 3.243 16.423 1.29 1.051 9.425 12.405 10.394 19.92 9.211a107.725 107.725 0 0024.728-7.09c2.809-1.17 5.385-2.991 8.243-4.011 4.066-1.45 8.826-.727 13.051-1.881 4.6-1.255 8.675-4.024 13.051-5.845 2.367 14.88 23.831 18.54 34.347 11.052 3.908-2.78 7.274-6.119 10.99-9.126 1.36-1.1 3.022-2.864 4.808-3.219 3.05-.608 6.924 3.557 10.3 3.87 4.389.406 8.9-3.756 13.051-2.574 2.747.783 8.346 3.437 8.847 6.588.495 3.067-1.958 6.387-2.823 9.208-1.861 6.1-1.7 13.241 2.074 18.546 9.774 13.719 30.264 13.984 44.1 6.742 5.433-2.844 9.218-7.442 13.738-11.424A200.515 200.515 0 01491.8 83.112a11.441 11.441 0 005.5 5.63c2.418 1.1 5.365.966 7.4 2.831 3.407 3.124 2.383 8.585 5.983 11.7 7.123 6.161 20.345-2.685 23.711-9.168 2.514 1.269 5.729 1.837 8.023 3.391 2.15 1.462 3.29 3.827 5.722 5.01 2.356 1.145 4.987 1.2 7.549 1.214 9.664.046 15.661-4.194 21.63-11.676 3.118-3.915 5.715-9 9.967-11.8 2.789-1.84 7.027-4.36 10.3-4.991 3.634-.7 7.343-.284 10.99-1.262 4.891-1.314 8.991-4.362 13.738-5.983 1.243 11.415 18.91 18.305 28.849 14.27 5.825-2.363 9.877-7.563 15.111-10.836 2.878 8.457 12.735 8.46 19.919 6.182.824 7.417 8 9.34 14.424 9.616 0 3.837-.508 8.071 1.051 11.677 7.143 16.474 30.106 17.705 44.283 11.059 5.88-2.758 9.609-7.466 14.424-11.609a172.506 172.506 0 0120.606-15.255c2.349 6.855 8.62 4.354 12.845 8.46 3.261 3.175 2.2 8.76 5.848 11.793 7.159 5.946 20.528-2.78 23.894-9.263 2.487 1.4 5.692 1.788 7.985 3.391 2.385 1.668 3.6 4.188 6.44 5.382 3.046 1.28 6.564.087 9.5 1.488 3.541 1.691 5.968 5.041 9.736 6.68 9.9 4.3 22.725 3.386 32.283-1.4 5.541-2.773 9.135-7.317 13.738-11.279a172.56 172.56 0 0120.606-15.255c2.245 6.572 7.745 4.617 12.261 7.972 3.91 2.9 2.631 9.131 6.428 12.283 5.061 4.2 14.7 0 19.075-3.445 1.668-1.315 3.551-4.624 5.824-4.75 5.584-.312 8 4.739 12.055 7.113 3.77 2.206 10.949 2.122 15.1 1.053 11.916-3.068 14.734-15.885 23.418-22.526 3.02-2.309 8.552-5.155 12.3-5.786 3.674-.619 7.34-.172 10.99-1.267 4.6-1.381 8.452-4.429 13.051-5.756.772 11.5 18.368 17.79 28.162 14.525 3.689-1.23 6.661-4.149 9.616-6.55 4.2-3.41 8.736-6.7 12.364-10.723 2.973 2.81 6.683 5.363 10.99 5.3 3.829-.052 7.324-2.975 10.99-2.9 2.467.052 6.3 2.644 8.141 4.213 4.234 3.607-.15 8.611-1.444 12.613a20.755 20.755 0 001.4 16.485c8.524 14.818 31.107 15.862 44.794 8.318 5.086-2.8 8.78-7.126 13.051-10.936 2.993-2.672 6.432-4.73 9.616-7.15 3.592-2.732 6.978-6.014 10.99-8.083z" fill="#fff"/></svg>