<svg xmlns="http://www.w3.org/2000/svg" width="68.459" height="68.601"><g data-name="Group 5" fill="none" stroke="#96c72c" stroke-linecap="round" stroke-linejoin="round" stroke-miterlimit="10" stroke-width="3"><path d="M7.728 48.007l6.234-2.149a11.108 11.108 0 018.146.355l2.713 1.21a6.726 6.726 0 002.751.587h13.476a6.208 6.208 0 016.209 6.206h0a1.946 1.946 0 01-1.947 1.942H30.328"/><path d="M50.863 51.463l6.643-3.256a8.011 8.011 0 019.162 1.508.981.981 0 01-.238 1.56l-19.892 10.5c-.836.467-10.749 3.9-14.011 4.832a5.117 5.117 0 01-2.568.1 6.819 6.819 0 01-.765-.227l-13.033-4.667a3.989 3.989 0 00-3.426.211l-5.007 2.783M1.5 67.101h2.715a3.39 3.39 0 003.39-3.39V48.673a3.392 3.392 0 00-3.39-3.393H1.5m35.972-21.951c-1.371-2.685-1.133-6.646 1.503-10.582 3.3-4.922 14.6-10.511 14.827-10.623m.003-.003h0a27.133 27.133 0 00-2.27 11.049 92.11 92.11 0 01.087 3.21 10.169 10.169 0 01-5.758 9.354 6.779 6.779 0 01-5.34.448"/><path d="M39.764 40.405c-.145-3.51-.254-7.632-.161-8.788a30.905 30.905 0 016.092-16.112l.044-.06M34.498 33.42a5.184 5.184 0 01-.973.216 5.923 5.923 0 01-5.758-2.791 55.274 55.274 0 01-.964-1.6 15.819 15.819 0 00-4.578-4.724s7.422-.822 10.615.576a6.97 6.97 0 013.666 3.322"/><path d="M39.621 36.477a17.086 17.086 0 00-1.651-2.672 16.437 16.437 0 00-1.429-1.652 16.943 16.943 0 00-6.179-4.029l-.041-.014m-9.497 17.622c3.578-3.073 9.667-5.095 16.578-5.095 8.962 0 16.543 3.4 19.056 8.086"/></g></svg>