<svg xmlns="http://www.w3.org/2000/svg" width="30" height="30"><path d="M26.434 30H3.566A3.566 3.566 0 010 26.442V3.558A3.566 3.566 0 013.566 0h22.868A3.566 3.566 0 0130 3.558v22.884A3.566 3.566 0 0126.434 30zM2.813 12.188V26.25a.938.938 0 00.938.937h22.5a.938.938 0 00.937-.937V12.188h-3.75a4.839 4.839 0 01.724 2.847 9.126 9.126 0 01-18.252 0 5.69 5.69 0 01.653-2.847zm12.222-2.909a5.756 5.756 0 105.77 5.755 5.768 5.768 0 00-5.77-5.755zM22.5 3.75a.938.938 0 00-.938.937V7.5a.939.939 0 00.938.938h2.813a.939.939 0 00.937-.938V4.687a.938.938 0 00-.938-.937z" fill="#373938"/></svg>