<svg width="47" height="51" xmlns="http://www.w3.org/2000/svg"><path d="M41.695.56a4.844 4.844 0 014.839 4.84v40.32a4.845 4.845 0 01-4.84 4.839H5.525A4.844 4.844 0 01.686 45.72V5.4A4.844 4.844 0 015.525.56zm0 1.098H5.525a3.745 3.745 0 00-3.742 3.741v40.322a3.745 3.745 0 003.741 3.74h36.17a3.745 3.745 0 003.741-3.74V5.4a3.745 3.745 0 00-3.74-3.741zM15.508 40.17c.538.004.953.167 1.245.488.29.32.448.74.472 1.257a19.735 19.735 0 010 1.304c-.028.526-.183.95-.466 1.274-.284.323-.7.487-1.251.491-.55-.004-.967-.168-1.25-.491-.284-.324-.438-.748-.461-1.274a19.444 19.444 0 010-1.304 2.2 2.2 0 01.218-.893c.13-.26.32-.468.571-.622.252-.154.559-.23.922-.23zm3.823 0c.538.004.953.167 1.244.488.292.32.45.74.473 1.257a19.741 19.741 0 010 1.304c-.028.526-.183.95-.467 1.274-.283.323-.7.487-1.25.491-.55-.004-.968-.168-1.25-.491-.284-.324-.438-.748-.462-1.274a19.438 19.438 0 010-1.304c.016-.335.09-.632.219-.893.13-.26.32-.468.571-.622.252-.154.559-.23.922-.23zm3.823 0c.538.004.953.167 1.244.488.292.32.45.74.473 1.257a19.544 19.544 0 010 1.304c-.028.526-.184.95-.467 1.274-.283.323-.7.487-1.25.491-.55-.004-.968-.168-1.25-.491-.284-.324-.438-.748-.462-1.274a19.444 19.444 0 010-1.304c.016-.335.089-.632.219-.893.13-.26.32-.468.571-.622.252-.154.559-.23.922-.23zm9.323-.007c.539.004.953.167 1.245.488.29.321.448.74.472 1.257a19.586 19.586 0 010 1.304c-.028.526-.183.95-.466 1.274-.284.323-.7.487-1.251.491-.55-.004-.967-.168-1.25-.49-.284-.324-.438-.749-.462-1.275a19.483 19.483 0 010-1.304c.016-.334.089-.632.219-.893a1.5 1.5 0 01.571-.621c.252-.154.559-.231.922-.231zm6.79 0c.523 0 .92.123 1.188.368.27.245.404.566.404.962 0 .406-.14.716-.418.93.18.098.322.243.428.435.105.192.158.41.158.655 0 .277-.066.525-.197.746-.132.22-.33.395-.596.525-.265.129-.587.193-.966.193-.383 0-.707-.064-.97-.193a1.342 1.342 0 01-.59-.529 1.465 1.465 0 01-.194-.749c0-.236.053-.449.16-.638.105-.19.245-.338.421-.445a1.011 1.011 0 01-.32-.388 1.237 1.237 0 01-.11-.535c0-.254.058-.482.175-.685.118-.203.297-.363.536-.478.24-.116.537-.174.892-.174zm-31.376-.014c.335 0 .623.06.862.18.24.121.42.29.544.51.124.218.186.472.186.762 0 .312-.087.596-.26.852-.174.257-.438.534-.793.833l-.55.622h1.537c.044 0 .08.015.11.046s.046.072.046.12v.676c0 .05-.015.09-.045.12a.147.147 0 01-.11.047h-3.07a.147.147 0 01-.111-.047.166.166 0 01-.045-.12v-.475a.41.41 0 01.15-.327l.622-.682c.363-.312.638-.556.826-.73.187-.173.329-.331.424-.474a.737.737 0 00.144-.408c0-.352-.156-.528-.467-.528a.456.456 0 00-.377.163.879.879 0 00-.173.412c-.024.103-.092.153-.204.153H6.39a.115.115 0 01-.09-.04.145.145 0 01-.035-.1c.008-.285.078-.547.212-.786a1.48 1.48 0 01.569-.568c.245-.14.527-.21.846-.21zm3.89 0c.335 0 .622.06.861.18.24.121.421.29.545.51.124.218.185.472.185.762 0 .312-.086.596-.26.852-.173.257-.438.534-.793.833l-.55.622h1.538c.044 0 .08.015.11.046s.045.072.045.12v.676c0 .05-.015.09-.045.12a.147.147 0 01-.11.047h-3.07a.147.147 0 01-.11-.047.166.166 0 01-.046-.12v-.475a.41.41 0 01.15-.327l.622-.682c.363-.312.638-.556.826-.73a2.77 2.77 0 00.425-.474.737.737 0 00.144-.408c0-.352-.156-.528-.467-.528a.456.456 0 00-.377.163.879.879 0 00-.174.412c-.024.103-.092.153-.203.153h-.748a.115.115 0 01-.09-.04.145.145 0 01-.036-.1c.008-.285.079-.547.213-.786.133-.238.323-.428.568-.568.245-.14.528-.21.847-.21zm24.926.08c.043 0 .08.016.107.047a.175.175 0 01.042.12v4.348a.177.177 0 01-.042.116.134.134 0 01-.107.05h-.778a.136.136 0 01-.105-.05.17.17 0 01-.045-.116V41.56l-.82.702a.128.128 0 01-.09.04c-.043 0-.083-.026-.12-.08l-.352-.514a.206.206 0 01-.03-.1c0-.063.024-.11.072-.141l1.376-1.19a.243.243 0 01.144-.047h.748zm-7.957-.086c.335 0 .622.06.861.18.24.12.421.29.545.509.124.218.185.472.185.762 0 .312-.087.596-.26.852-.173.257-.438.535-.793.833l-.55.622h1.538c.044 0 .08.015.11.047.03.03.045.07.045.12v.676a.165.165 0 01-.045.12.149.149 0 01-.11.046h-3.07a.148.148 0 01-.11-.046.166.166 0 01-.046-.12v-.475a.41.41 0 01.15-.328l.622-.682c.363-.312.638-.555.826-.729.187-.174.33-.332.425-.475a.738.738 0 00.143-.408c0-.352-.155-.528-.466-.528a.455.455 0 00-.377.164.878.878 0 00-.174.411c-.024.103-.092.154-.203.154h-.748a.116.116 0 01-.09-.04.145.145 0 01-.036-.1c.008-.286.079-.548.212-.786.134-.239.324-.428.57-.569.244-.14.526-.21.846-.21zm-2.734 2.959a.524.524 0 110 1.048.524.524 0 010-1.048zm13.252-.204a.732.732 0 00-.488.164.55.55 0 00-.195.444.56.56 0 00.195.448.72.72 0 00.488.167.71.71 0 00.485-.167.564.564 0 00.19-.448.555.555 0 00-.19-.444.721.721 0 00-.485-.164zm-16.114-1.772a.507.507 0 00-.44.227c-.098.147-.15.348-.159.602-.003.096-.005.245-.005.447v.161c0 .286.001.493.005.622.02.553.22.83.599.83a.495.495 0 00.44-.218c.097-.145.15-.349.158-.612a9.01 9.01 0 00.011-.46v-.162c0-.285-.003-.488-.011-.608-.008-.254-.06-.455-.155-.602-.096-.147-.244-.223-.443-.227zm-7.646 0a.507.507 0 00-.44.227c-.098.147-.15.348-.158.602-.004.096-.006.245-.006.447v.161c0 .286.001.493.006.622.02.553.219.83.598.83a.495.495 0 00.44-.218c.097-.145.15-.349.158-.612a9 9 0 00.012-.46v-.162c0-.285-.004-.488-.012-.608-.008-.254-.06-.455-.155-.602-.096-.147-.244-.223-.443-.227zm3.823 0a.507.507 0 00-.44.227c-.098.147-.15.348-.159.602-.003.096-.005.245-.005.447v.161c0 .286.001.493.005.622.02.553.22.83.599.83a.495.495 0 00.44-.218c.097-.145.15-.349.158-.612a9 9 0 00.012-.46v-.162c0-.285-.004-.488-.012-.608-.008-.254-.06-.455-.155-.602-.096-.147-.244-.223-.443-.227zm13.146-.007a.508.508 0 00-.44.228c-.098.146-.15.347-.158.601a15.05 15.05 0 00-.006.447v.162c0 .285.001.493.006.622.02.552.219.829.598.829a.496.496 0 00.44-.217c.098-.145.15-.35.158-.612a9.02 9.02 0 00.012-.46v-.162c0-.286-.004-.488-.012-.609-.008-.254-.06-.455-.155-.601-.096-.148-.244-.223-.443-.228zm6.79-.1a.631.631 0 00-.43.147.491.491 0 00-.168.388c0 .16.056.29.168.387a.63.63 0 00.43.148.654.654 0 00.431-.154.483.483 0 00.168-.381c0-.16-.056-.29-.168-.388a.63.63 0 00-.43-.147zm-13.25-.035a.524.524 0 11-.001 1.049.524.524 0 010-1.05zm9.431-13.03a.55.55 0 01.946.559 14.927 14.927 0 01-5.318 5.291 14.826 14.826 0 01-7.467 2.014c-2.627 0-5.21-.697-7.466-2.014a14.926 14.926 0 01-5.318-5.291.549.549 0 11.945-.558 13.679 13.679 0 002.289 2.894 23.9 23.9 0 013.73-1.271 21.83 21.83 0 01-.363-1.2.55.55 0 011.06-.288c.117.432.244.847.38 1.243a23.924 23.924 0 019.487 0 20.2 20.2 0 00.38-1.243.55.55 0 011.06.287c-.113.416-.234.816-.363 1.2 1.267.319 2.515.742 3.73 1.271a13.67 13.67 0 002.288-2.893zm-7.488 2.421a22.82 22.82 0 00-8.701 0c1.135 2.729 2.714 4.345 4.35 4.345 1.637 0 3.216-1.616 4.351-4.345zm-9.79.24a22.85 22.85 0 00-3.198 1.04 13.86 13.86 0 005.504 2.698c-.883-.885-1.668-2.15-2.307-3.738zm10.88 0c-.639 1.588-1.424 2.853-2.307 3.738a13.86 13.86 0 005.504-2.698 22.805 22.805 0 00-3.197-1.04zm-9.496-15.67c1.046 0 1.988.142 2.801.423.857.296 1.529.743 1.998 1.328.341.426.568.897.676 1.406a.481.481 0 01-.44.583l-1.997.122a.625.625 0 01-.625-.409 1.382 1.382 0 00-.537-.693c-.377-.254-.984-.382-1.805-.382-1.077 0-1.584.184-1.82.34-.4.262-.447.51-.447.674 0 .217.083.375.269.511.064.048.453.287 2.262.622 1.447.268 2.425.501 2.99.712.868.328 1.524.758 1.953 1.28.435.529.656 1.143.656 1.823 0 .672-.236 1.312-.702 1.902-.464.588-1.134 1.05-1.989 1.37-.824.31-1.759.467-2.776.467-1.258 0-2.338-.156-3.211-.465-.913-.322-1.64-.817-2.164-1.47a3.662 3.662 0 01-.767-1.667.481.481 0 01.44-.565l1.977-.13a.622.622 0 01.634.422 1.8 1.8 0 00.313.592c.202.245.538.453.998.617.495.177 1.067.266 1.7.266.562 0 1.057-.067 1.472-.2.369-.117.638-.27.8-.453a.84.84 0 00.233-.57.712.712 0 00-.205-.519c-.152-.16-.449-.311-.859-.44-.221-.07-.78-.212-2.21-.494-1.254-.246-2.123-.479-2.655-.71-.72-.31-1.273-.709-1.64-1.185a2.604 2.604 0 01-.56-1.622c0-.644.224-1.253.667-1.81.446-.56 1.098-.989 1.937-1.273.791-.268 1.677-.404 2.633-.404zm13.188-.005c1.197 0 2.295.263 3.263.78.976.522 1.73 1.258 2.24 2.189.499.91.752 1.949.752 3.09 0 1.158-.267 2.213-.792 3.136a5.297 5.297 0 01-2.308 2.163 7.095 7.095 0 01-3.163.723c-1.222 0-2.333-.272-3.303-.806-.973-.536-1.72-1.278-2.222-2.206a6.014 6.014 0 01-.738-2.888c0-1.897.588-3.416 1.748-4.514 1.169-1.106 2.69-1.667 4.523-1.667zm-21.135.4c.231 0 .418.187.418.417v10.454c0 .23-.187.418-.418.418H9.738a.418.418 0 01-.418-.418V15.757c0-.23.187-.417.418-.417zm21.143 1.949c-.94 0-1.728.282-2.406.862-.66.564-.994 1.571-.994 2.992 0 1.133.318 1.99.972 2.619.643.617 1.429.917 2.404.917.994 0 1.787-.302 2.424-.925.642-.628.968-1.557.968-2.763 0-.774-.145-1.452-.43-2.016a2.87 2.87 0 00-1.18-1.245c-.524-.297-1.099-.441-1.758-.441zM23.61 6.143c2.629 0 5.212.697 7.47 2.015a14.89 14.89 0 012.586 1.914 14.933 14.933 0 012.733 3.384.55.55 0 01-.946.558 13.686 13.686 0 00-2.293-2.903c-1.214.53-2.462.953-3.73 1.271.13.388.251.79.365 1.21a.55.55 0 11-1.06.286 20.54 20.54 0 00-.382-1.251 23.896 23.896 0 01-9.487 0c-.137.399-.264.816-.382 1.251a.55.55 0 01-1.06-.287c.113-.418.235-.821.365-1.209a23.868 23.868 0 01-3.73-1.27 13.682 13.682 0 00-2.293 2.902.55.55 0 01-.946-.558 14.922 14.922 0 015.318-5.298 14.827 14.827 0 017.471-2.015zm0 1.098c-1.637 0-3.217 1.615-4.351 4.344 2.873.558 5.828.558 8.701 0-1.135-2.729-2.714-4.344-4.35-4.344zm-3.134.366a13.854 13.854 0 00-5.504 2.698c1.045.428 2.114.774 3.197 1.04.639-1.588 1.424-2.853 2.307-3.738zm6.267 0c.883.885 1.668 2.15 2.307 3.739a22.838 22.838 0 003.197-1.04 13.851 13.851 0 00-5.504-2.699z" fill="#373938"/></svg>