<svg xmlns="http://www.w3.org/2000/svg" width="30.461" height="30"><path d="M28.233 30H2.224a2.233 2.233 0 01-1.555-.625A2.162 2.162 0 010 27.835V2.165A2.158 2.158 0 01.67.626 2.228 2.228 0 012.224 0h26.009a2.233 2.233 0 011.555.622 2.158 2.158 0 01.674 1.541v25.672a2.165 2.165 0 01-.673 1.542 2.235 2.235 0 01-1.556.623zm-9.139-15.2c2.348 0 2.348 2.194 2.348 3.8v6.962h4.514v-7.853c0-3.541-.656-6.818-5.418-6.818h-.177a4.826 4.826 0 00-2.286.577 4.728 4.728 0 00-1.812 1.732H16.2v-1.954h-4.33v14.316h4.514V18.48c0-1.818.322-3.68 2.71-3.68zM4.516 11.246v14.316h4.518V11.246zm2.26-7.116a2.684 2.684 0 00-.512.049 2.62 2.62 0 00-1.34.707 2.567 2.567 0 00-.717 1.321 2.54 2.54 0 00.15 1.493 2.59 2.59 0 00.965 1.157 2.651 2.651 0 002.458.238A2.6 2.6 0 009.2 7.7a2.546 2.546 0 00-.243-2.42 2.6 2.6 0 00-1.175-.95 2.641 2.641 0 00-1.006-.2z" fill="#373938"/></svg>