<svg width="150" height="48" xmlns="http://www.w3.org/2000/svg"><g fill="none"><path d="M72.11 29.347a1.325 1.325 0 00-.962-.38l-13.284.115-.208-23.713a1.252 1.252 0 00-.4-.917 1.248 1.248 0 00-.923-.385 1.248 1.248 0 00-.917.401c-.262.267-.388.57-.385.924l.23 26.342 15.91-.14c.373-.003.686-.133.956-.397a1.23 1.23 0 00.388-.928 1.226 1.226 0 00-.405-.922M86.312 4.201l.29.002c1.877.03 4.396.322 6.418 1.466 1.092.658 4.422 2.89 4.49 8.62.008.775-.02 2.633-1.094 3.575-.817.733-2.106.851-2.88.86l-16.673.197c-.033 1.6.1 4.128.53 5.569.645 2.212 2.533 4.72 6.147 4.677l3.052-.036.028 2.426-3.051.036c-2.22.026-5.118-.508-7.267-3.27-2.149-2.71-2.293-6.168-2.34-10.194-.045-3.82.107-8.468 3.531-11.4 2.454-2.093 5.805-2.494 8.54-2.527l.28-.001zm.02 2.428h-.246l-.488.005c-2.737.032-5.678.17-7.55 3.393-1.062 1.82-1.194 3.783-1.214 6.468l16.673-.197c1.187-.014 1.118-1.459 1.114-1.82-.032-2.684-.982-4.48-1.924-5.553-1.79-2.07-4.144-2.293-6.365-2.296zm60.132.182c3.028 2.906 3.498 7.753 3.534 10.8.07 5.935-1.542 9.31-3.276 11.086-2.96 2.977-7.655 3.187-10.081 3.216l-.213.002h-.458c-2.549-.011-6.714-.322-9.483-2.98-1.776-1.734-3.467-5.07-3.537-11.006-.036-3.045.32-7.903 3.28-10.88 2.652-2.664 6.623-3.072 10.081-3.113 3.458-.041 7.437.273 10.153 2.875zm-9.593-.452h-.269l-.262.003c-2.582.03-6.347.281-8.436 2.629-2.14 2.452-2.088 6.788-2.06 9.162.026 2.22.023 6.35 2.323 8.8 2.05 2.193 5.202 2.528 7.88 2.537h.284l.281-.003c2.788-.033 6.243-.332 8.383-2.732 2.242-2.504 2.141-6.633 2.115-8.853-.028-2.374-.079-6.71-2.275-9.11-2.001-2.145-5.419-2.43-7.964-2.433zM121.86 4.2l.024 2.054-10.562.125.296 25.117-2.35.028-.296-25.117-10.562.124-.024-2.054L121.86 4.2zM22.868.005c5.918-.07 12.727.469 17.373 4.92 5.183 4.974 5.987 13.269 6.049 18.48.094 7.97-1.586 13.232-3.747 16.602l.001-.002.053-.106c.231-.46.635-1.298 1.025-2.277l.097-.248c.148-.38.29-.78.418-1.18.379-1.204.47-2.014.477-2.49a2.372 2.372 0 00-.032-.523l-1.003-.149s1.033-2.341.757-5.428a6.96 6.96 0 01-.579.223c-.47.16-.883.256-.883.256s.709-2.265-1.16-6.132c-.214.132-.369.227-.477.296-.28.174-.282.174-.282.174s-.644-2.45-2.61-4.96a14.13 14.13 0 00-2.087-2.152c-.235.634-.813 1.061-.813 1.061s-.082-.248-.265-.645a12.028 12.028 0 00-.966-1.713 11.641 11.641 0 00-1.846-2.12 9.945 9.945 0 00-2.222-1.519c-.286.84-.609 1.111-.609 1.111l-.024-.02-.178-.152c-.758-.642-3.517-2.95-5.6-4.232 0 0 2.666 3.49 2.144 8.27-.153 1.398-1.458 4.06-1.905 7.916l.067-.168 1.24.644c1.99 1.032 3.249 2.144 4.03 3.051l.637-1.13 1.178 1.313a13.733 13.733 0 012.41 3.825l.341-.185.659.554c.076.063.282.253.55.627.472.654.903 1.53 1.28 2.608.144.416.277.842.395 1.266.175.62.317 1.214.427 1.725l.363-.144c.21-5.06-.338-11.028-2.869-16.55.13.179 4.887 6.845 4.316 19.128-.008.182-.015.36-.027.544-.03.525-.068 1.061-.12 1.61-.015.166-.036.337-.055.508a47.776 47.776 0 01-.205 1.625c-.408.282-.829.539-1.256.78a17.98 17.98 0 01-.11-1.669c0-.152 0-.299.007-.437v-.012c.011-.233.019-.455.028-.673.057-1.503.068-2.607.07-3.107v-.298l-1.097.435-.018-.092a29.145 29.145 0 00-.671-3.03 20.27 20.27 0 00-.374-1.196c-.416-1.191-.83-1.894-1.11-2.28-.206-.289-.338-.4-.338-.4l-.892.482s-.576-2.493-2.645-4.799c-.1.178-.216.36-.33.525-.28.41-.554.734-.554.734s-.79-2.238-4.602-4.215l-.14.355-.065.168c-.12.307-.123.308-.123.308s-1.983-1.576-5.06-2.407a14.167 14.167 0 00-2.96-.473c.19.648-.015 1.336-.015 1.336s-.215-.149-.6-.357a11.995 11.995 0 00-1.8-.793 11.652 11.652 0 00-2.747-.591 9.895 9.895 0 00-2.69.115c.275.844.18 1.254.18 1.254s-.097-.007-.267-.016c-.99-.061-4.582-.255-7.02-.035 0 0 4.226 1.197 6.673 5.337 1.523 2.584 2.307 12.904 17.54 18.752a61.3 61.3 0 01-2.173.064h-.106c-4.18.045-12.128-.162-17.27-5.096C3.019 39.818.125 34.11.005 23.95c-.063-5.21.545-13.522 5.61-18.617C10.155.773 16.95.075 22.868.005zM15.67 28.312c.184.057 8.002 2.537 14.915 12.73.102.151.203.298.304.452.292.439.582.89.868 1.362.088.14.174.29.26.439.391.652.773 1.33 1.15 2.034.08.149.156.308.234.458-.553.256-1.113.486-1.679.688l-.183-.38-.097-.195a50.51 50.51 0 00-1.17-2.2 49.386 49.386 0 00-1.89-3.11c-2.89-4.386-7.06-9.2-12.712-12.278z" fill="#96C72C"/><path d="M54.43 38.824c0-1.125.56-1.687 1.683-1.687 1.125 0 1.688.562 1.688 1.687v1.11H56.5v-1.11c0-.291-.128-.439-.383-.441h-.008c-.252 0-.379.147-.379.441v.696c0 .317.334.716 1 1.195.714.508 1.07 1.117 1.07 1.828v.969c0 1.127-.56 1.691-1.683 1.691-1.125-.002-1.687-.566-1.687-1.691v-1.11h1.3v1.11c0 .294.13.441.387.441.255 0 .383-.147.383-.441v-.875c0-.347-.333-.76-1-1.239-.714-.507-1.07-1.126-1.07-1.855v-.719zm4.708-1.566h3.063v1.246h-1.762v2.039h1.516v1.25h-1.516v2.039h1.762v1.246h-3.063zm4.283 7.82v-7.82h1.3v6.574h1.763v1.246zm4.127-7.82h3.062v1.246h-1.762v2.039h1.516v1.25h-1.516v2.039h1.762v1.246h-3.062zm7.575 6.254c0 1.125-.562 1.689-1.687 1.691-1.122 0-1.684-.564-1.684-1.691v-4.688c0-1.125.562-1.687 1.684-1.687 1.125 0 1.687.562 1.687 1.687v1.11h-1.3v-1.11c0-.291-.128-.439-.383-.441h-.008c-.253 0-.379.147-.379.441v4.688c0 .294.128.441.383.441.258 0 .387-.147.387-.441v-1.11h1.3v1.11zm4.357-6.254v1.246h-1.035v6.574h-1.3v-6.574h-1.036v-1.246zm3.488 0h1.3v3.285h.77v-3.285h1.301v7.82h-1.3v-3.285h-.77v3.285h-1.301zm4.787 0h3.062v1.246h-1.762v2.039h1.516v1.25h-1.516v2.039h1.762v1.246h-3.062zm4.283 0h1.707c1.046.002 1.57.566 1.57 1.691v1.153c0 .708-.284 1.166-.852 1.375l1.254 3.601H94.3l-.89-3.363h-.07v3.363h-1.301v-7.82zm1.3 1.246v2.039h.157c.14 0 .231-.008.273-.023.164-.066.246-.205.246-.418v-1.153c0-.297-.128-.445-.383-.445h-.293zm3.404-1.246h1.801c1.047.002 1.57.566 1.57 1.691v1.153c0 .53-.174.886-.523 1.066.349.18.523.535.523 1.066v1.157c0 1.122-.545 1.685-1.636 1.687h-1.735v-7.82zm1.301 1.246v2.039h.25c.14 0 .232-.008.273-.023.164-.066.247-.205.247-.418v-1.153c0-.297-.128-.445-.383-.445h-.387zm0 3.289v2.039h.387c.255 0 .383-.147.383-.441v-1.157c0-.213-.083-.351-.247-.414a.865.865 0 00-.273-.027h-.25zm3.291-2.969c0-1.125.56-1.687 1.683-1.687 1.125 0 1.688.562 1.688 1.687v1.11h-1.301v-1.11c0-.291-.128-.439-.383-.441h-.008c-.252 0-.379.147-.379.441v.696c0 .317.334.716 1 1.195.714.508 1.07 1.117 1.07 1.828v.969c0 1.127-.56 1.691-1.683 1.691-1.125-.002-1.687-.566-1.687-1.691v-1.11h1.3v1.11c0 .294.13.441.387.441.255 0 .383-.147.383-.441v-.875c0-.347-.333-.76-1-1.239-.714-.507-1.07-1.126-1.07-1.855v-.719zm8.476 4.973a.63.63 0 00.253.035c.029 0 .06-.001.094-.004.2-.008.3-.155.3-.441v-1.719h-.382a.435.435 0 00-.14.027c-.165.063-.247.2-.247.414v1.278c0 .242.04.379.121.41zm.648-3.375v-.524h1.3v.524h.704v1.246h-.703v1.719c0 1.08-.48 1.642-1.442 1.683a9.052 9.052 0 01-.258.004c-.164 0-.306-.006-.425-.02-.831-.098-1.246-.654-1.246-1.667v-1.278c0-.53.174-.886.523-1.066-.349-.18-.523-.535-.523-1.066v-1.153c0-1.044.442-1.604 1.328-1.68a5.168 5.168 0 01.664-.003c.919.062 1.379.623 1.379 1.683v.406h-1.301v-.406c0-.27-.065-.415-.195-.433a.962.962 0 00-.18-.016c-.055 0-.113.004-.176.012-.146.015-.219.161-.219.437v1.153c0 .213.082.352.246.418.04.015.086.024.141.027h.383zm5.569 4.656v-7.82h1.301v6.574h1.762v1.246zm4.127-7.82h3.062v1.246h-1.761v2.039h1.515v1.25h-1.515v2.039h1.761v1.246h-3.062zm7.341 0v1.246h-1.035v6.574h-1.3v-6.574h-1.036v-1.246zm4.162 0v1.246h-1.035v6.574h-1.3v-6.574h-1.036v-1.246zm4.435 6.254c0 1.125-.562 1.689-1.687 1.691-1.123 0-1.684-.564-1.684-1.691v-6.254h1.3v6.254c0 .294.128.441.384.441.258 0 .386-.147.386-.441v-6.254h1.301v6.254zm4.67 0c0 1.125-.563 1.689-1.688 1.691-1.122 0-1.683-.564-1.683-1.691v-4.688c0-1.125.56-1.687 1.683-1.687 1.125 0 1.688.562 1.688 1.687v1.11h-1.301v-1.11c0-.291-.128-.439-.383-.441h-.008c-.252 0-.379.147-.379.441v4.688c0 .294.128.441.383.441.258 0 .387-.147.387-.441v-1.11h1.3v1.11zm1.298-6.254h3.063v1.246h-1.762v2.039h1.516v1.25h-1.516v2.039h1.762v1.246h-3.063zm4.205 1.566c0-1.125.561-1.687 1.683-1.687 1.125 0 1.688.562 1.688 1.687v1.11h-1.3v-1.11c0-.291-.128-.439-.384-.441h-.007c-.253 0-.38.147-.38.441v.696c0 .317.334.716 1 1.195.714.508 1.07 1.117 1.07 1.828v.969c0 1.127-.56 1.691-1.683 1.691-1.125-.002-1.687-.566-1.687-1.691v-1.11h1.3v1.11c0 .294.13.441.387.441.256 0 .383-.147.383-.441v-.875c0-.347-.333-.76-1-1.239-.713-.507-1.07-1.126-1.07-1.855v-.719z" fill="#373938"/></g></svg>