<svg xmlns="http://www.w3.org/2000/svg" width="57" height="41"><path d="M21.2 0l5.445 7.694a27.752 27.752 0 00-8.95 5.757 10.315 10.315 0 00-3.215 7.221c0 4.231 2.54 7.04 7.995 8.842v1.609a9.674 9.674 0 01-6.06 9.077 11.211 11.211 0 01-4.25.8 11.365 11.365 0 01-8.95-3.9A14.761 14.761 0 010 27.334a24.861 24.861 0 011.781-9.149 29.8 29.8 0 014.735-7.964 33.429 33.429 0 016.777-6.241A30.572 30.572 0 0121.2 0zm30.355 0L57 7.695a27.748 27.748 0 00-8.95 5.757 10.315 10.315 0 00-3.215 7.221c0 4.23 2.54 7.04 7.994 8.842v1.608a9.674 9.674 0 01-6.061 9.077 11.211 11.211 0 01-4.25.8 11.365 11.365 0 01-8.95-3.9 14.761 14.761 0 01-3.215-9.762 24.86 24.86 0 011.781-9.149 29.8 29.8 0 014.736-7.964 33.432 33.432 0 016.777-6.241A30.573 30.573 0 0151.554 0z" fill="#96c72c" data-name="”"/></svg>