<svg xmlns="http://www.w3.org/2000/svg" width="65.709" height="68"><path d="M6.59 66.5H1.5V18.816h5.09zm57.619 0h-5.09V18.816h5.09zM6.59 27.136h52.528M6.59 60.973h52.528m-35.76-47.766a3.69 3.69 0 00-.5-.748 3.569 3.569 0 00.881-2.351 3.591 3.591 0 00-2.467-3.41 3.554 3.554 0 00.381-1.6 3.594 3.594 0 00-3.593-3.6 3.593 3.593 0 00-3.6 3.6 3.594 3.594 0 00.149 1.016 3.6 3.6 0 00-2.512 3.426 3.586 3.586 0 00.905 2.378 3.583 3.583 0 00-1.47 2.893 3.579 3.579 0 00.692 2.124M13.477 27.1l-2.251-9.97h12.815l-2.248 9.97m16.373-10.165a3.579 3.579 0 00.692-2.124 3.592 3.592 0 00-.881-2.353 3.569 3.569 0 00.881-2.351 3.591 3.591 0 00-2.467-3.41 3.554 3.554 0 00.381-1.6 3.594 3.594 0 00-3.593-3.6 3.593 3.593 0 00-3.6 3.6 3.594 3.594 0 00.149 1.016 3.6 3.6 0 00-2.512 3.427c0 .124.008.249.019.367M28.596 27.1l-2.248-9.97H39.16l-2.251 9.97M53.77 11.294a3.585 3.585 0 00.2-1.186 3.59 3.59 0 00-2.469-3.41 3.521 3.521 0 00.384-1.6 3.6 3.6 0 00-3.6-3.6 3.592 3.592 0 00-3.593 3.6 3.594 3.594 0 00.149 1.016 3.6 3.6 0 00-2.506 3.426 3.586 3.586 0 00.905 2.378 3.583 3.583 0 00-1.47 2.893 3.579 3.579 0 00.692 2.124M43.713 27.1l-2.245-9.97H54.28l-2.248 9.97M23.046 50.773a3.579 3.579 0 00.692-2.124 3.592 3.592 0 00-.881-2.353 3.579 3.579 0 00.881-2.351 3.591 3.591 0 00-2.467-3.41 3.554 3.554 0 00.381-1.6 3.594 3.594 0 00-3.593-3.6 3.593 3.593 0 00-3.6 3.6 3.594 3.594 0 00.149 1.016 3.6 3.6 0 00-2.512 3.427 3.523 3.523 0 00.124.929m1.257 16.63l-2.251-9.972h12.815l-2.248 9.972m16.827-18.28a3.606 3.606 0 00-2.229-2.121 3.554 3.554 0 00.381-1.6 3.594 3.594 0 00-3.593-3.6 3.593 3.593 0 00-3.6 3.6 3.594 3.594 0 00.149 1.016 3.6 3.6 0 00-2.512 3.426 3.586 3.586 0 00.905 2.378 3.583 3.583 0 00-1.47 2.893 3.579 3.579 0 00.692 2.124m1.253 10.164l-2.248-9.972H39.16l-2.251 9.972m16.376-10.164a3.579 3.579 0 00.692-2.124 3.58 3.58 0 00-.883-2.353 3.568 3.568 0 00.883-2.351 3.59 3.59 0 00-2.469-3.41 3.521 3.521 0 00.384-1.6 3.6 3.6 0 00-3.6-3.6 3.592 3.592 0 00-3.593 3.6 3.594 3.594 0 00.149 1.016 3.6 3.6 0 00-2.513 3.427 3.586 3.586 0 00.905 2.378 3.614 3.614 0 00-1.07 1.248m1.543 13.933l-2.245-9.972H54.28l-2.248 9.972M32.791 10.559v6.568m-15.119-6.568v6.568m30.238-6.568v6.568m0 27.177v6.571m-15.119-6.571v6.571m-15.119-6.571v6.571" data-name="Supply chain" fill="none" stroke="#96c72c" stroke-linecap="round" stroke-linejoin="round" stroke-miterlimit="10" stroke-width="3"/></svg>