<svg width="1920" height="207" xmlns="http://www.w3.org/2000/svg"><g id="Page-1" stroke="none" stroke-width="1" fill="none" fill-rule="evenodd"><g id="Home" transform="translate(0 -1572)"><g id="Group-Copy" transform="rotate(-180 1037 889.5)"><path id="Fill-1" fill="#106CFA" opacity=".309" d="M1690.242 27.446L1657.717.643l-69.412 26.803-101.322-22.522-51.81 67.343-89.798-30.773-135.227 72.127L1114.947 58l-95.864 9.357-47.462-23.493-67.572 59.636-38.997-6.297-25.686 22.972-65.556-42.201-174.943 46.07L548 97.203l-48.698 19.338-107.334-26.019-266.546 25.373L151.993 182h1920.56V77.974l-106.729 12.548-89.97-31.028-75.112-15.63-35.117-16.418z"/><path id="Fill-1" fill="#000421" d="M1612.215 38l-124.424 57.77-153.803-7.938-107.013 49.541-221.456-46.542-126.714 31.25-53.468 17.578-63.158-33.821-99.202 39.905-158.251-23.662-101.665 18.229-124.407-26.175L0 117.127l.51 89.033h2226.043v-85.305L2116.886 79.9l-89.231 21.948-122.638-14.912-121.585-36.256-87.886 42.176z"/></g></g></g></svg>