<svg width="212" height="36" xmlns="http://www.w3.org/2000/svg"><g id="Page-1" stroke="none" stroke-width="1" fill="none" fill-rule="evenodd"><g id="Home" transform="translate(-594 -1988)" fill="#FFF" fill-rule="nonzero"><g id="coinmarketcap-seeklogo.com" transform="translate(594 1988)"><path d="M31.23 21.523c-.636.384-1.378.454-1.944.14-.706-.419-1.13-1.36-1.13-2.651V15.07c0-1.884-.742-3.244-2.014-3.593-2.155-.628-3.78 1.988-4.38 2.965l-3.816 6.035v-7.43c-.035-1.71-.6-2.721-1.66-3.035-.707-.21-1.766-.105-2.79 1.43L4.98 24.907A14.733 14.733 0 013.251 18c0-8.128 6.605-14.72 14.695-14.72S32.643 9.871 32.643 18v.07c.07 1.57-.424 2.825-1.414 3.453zM35.892 18v-.07C35.857 8.058 27.803 0 17.946 0 8.055 0 0 8.058 0 18c0 9.907 8.055 18 17.946 18 4.558 0 8.868-1.71 12.188-4.814.672-.628.707-1.64.071-2.302-.6-.663-1.625-.698-2.296-.105l-.036.035a14.702 14.702 0 01-9.997 3.942A14.59 14.59 0 016.96 27.872l7.666-12.14v5.617c0 2.686 1.06 3.558 1.943 3.802.883.244 2.225.07 3.674-2.198l4.204-6.732c.14-.21.247-.419.388-.558v3.418c0 2.512 1.025 4.535 2.791 5.512 1.59.907 3.603.802 5.264-.21 2.049-1.325 3.144-3.627 3.003-6.383zm25.012-6.14c.423.245.812.838.812 1.36 0 .838-.707 1.536-1.519 1.536-.212 0-.389-.07-.565-.105-.954-.698-2.155-1.151-3.427-1.151-3.003 0-5.052 2.407-5.052 5.407s2.084 5.372 5.052 5.372a5.523 5.523 0 003.815-1.535 1.56 1.56 0 01.884-.279c.812 0 1.448.628 1.448 1.43 0 .524-.318.977-.707 1.221-1.448 1.221-3.391 2.024-5.405 2.024-4.592 0-8.337-3.733-8.337-8.338 0-4.604 3.745-8.337 8.337-8.337a8.057 8.057 0 014.664 1.395zm8.407 3.489c3.145 0 5.759 2.616 5.759 5.86 0 3.21-2.65 5.965-5.759 5.965-3.285 0-6.005-2.72-6.005-5.965 0-3.244 2.72-5.86 6.005-5.86zm-.035 8.93c1.378 0 2.544-1.29 2.544-3.035 0-1.744-1.166-2.86-2.544-2.86-1.484 0-2.72 1.081-2.72 2.86 0 1.71 1.236 3.035 2.72 3.035zm7.772 1.081v-8.232c0-.907.707-1.64 1.625-1.64a1.64 1.64 0 011.625 1.64v8.232A1.64 1.64 0 0178.674 27c-.883 0-1.625-.767-1.625-1.64zm-.247-12.976c0-1.082.848-1.919 1.872-1.919 1.06 0 1.908.872 1.908 1.919a1.888 1.888 0 01-1.908 1.883c-1.06-.034-1.872-.872-1.872-1.883zm9.715 8.511v4.465A1.64 1.64 0 0184.892 27a1.64 1.64 0 01-1.625-1.64v-8.616a1.26 1.26 0 011.272-1.256c.706 0 1.236.593 1.236 1.256 1.307-1.22 2.473-1.395 3.568-1.395 3.25 0 4.699 2.407 4.699 5.163v4.848A1.64 1.64 0 0192.417 27a1.64 1.64 0 01-1.625-1.64v-4.465c0-1.395-.177-2.581-2.226-2.581-1.449 0-2.05 1.186-2.05 2.581zm18.052 1.71c-.388 0-.636-.175-.848-.419l-3.78-4.046v7.22A1.64 1.64 0 0198.316 27a1.64 1.64 0 01-1.625-1.64V11.058c.106-.244.353-.418.6-.418.283 0 .53.244.707.418l6.041 6.698c.177.21.389.314.53.314.106 0 .354-.105.53-.314l6.041-6.698c.177-.174.389-.418.707-.418.282 0 .53.174.6.418V25.36c0 .907-.706 1.64-1.625 1.64a1.64 1.64 0 01-1.625-1.64v-7.22l-3.78 4.046c-.283.244-.53.419-.848.419zm15.615 1.674c1.448 0 2.685-1.29 2.685-3.035 0-1.744-1.272-2.895-2.685-2.895s-2.579 1.186-2.579 2.895c0 1.675 1.13 3.035 2.579 3.035zm3.462 1.465l-.07-.384c-.636 1.221-2.65 1.78-3.922 1.78-3.038 0-5.3-2.721-5.3-5.966 0-3.209 2.297-5.86 5.477-5.86.53 0 2.367.14 3.78 1.779l.07-.384c0-.697.53-1.256 1.237-1.256.706 0 1.272.594 1.272 1.256v9a1.26 1.26 0 01-1.272 1.256c-.742.035-1.272-.558-1.272-1.22zm11.481-7.43h-.353c-2.049.105-2.437 1.256-2.437 2.581v4.465a1.64 1.64 0 01-1.625 1.64 1.64 1.64 0 01-1.626-1.64v-8.616a1.26 1.26 0 011.272-1.256c.707 0 1.237.593 1.237 1.256 1.2-1.116 2.19-1.36 3.18-1.395h.317c.777 0 1.484.663 1.484 1.5.035.767-.671 1.465-1.449 1.465zm12.542 6.279c.141.244.247.488.247.767 0 .838-.777 1.605-1.625 1.605-.565 0-1.06-.418-1.448-.907l-3.745-4.29v3.558a1.64 1.64 0 01-1.625 1.64 1.64 1.64 0 01-1.625-1.64V12.244c0-.907.706-1.64 1.625-1.64.918 0 1.625.733 1.625 1.64v8.163l3.745-4.081c.388-.419.847-.873 1.413-.873.812 0 1.554.733 1.554 1.57 0 .244-.07.524-.212.733l-2.967 3.21 3.038 3.627zm6.359-6.244c-.884 0-2.332.453-2.332 1.814h4.699c-.036-1.36-1.52-1.814-2.367-1.814zm4.239 3.872h-6.57c0 1.919 1.871 2.232 2.684 2.232.6 0 1.448-.104 2.12-.418.212-.14.53-.244.847-.244.707 0 1.308.593 1.308 1.325 0 .489-.318.907-.707 1.151-.99.733-2.296.907-3.533.907-3.285 0-6.005-1.744-6.005-5.825 0-3.21 1.66-6 5.546-6 3.144 0 5.511 2.023 5.582 5.616 0 .663-.565 1.256-1.272 1.256zm9.044 4.919h-.883c-2.473 0-3.922-1.082-3.922-4.884v-3.942h-.848c-.777 0-1.448-.698-1.448-1.465 0-.837.707-1.5 1.448-1.5h.848v-3.035c0-.907.707-1.64 1.625-1.64a1.64 1.64 0 011.625 1.64v3.035h1.343c.777 0 1.448.663 1.448 1.5 0 .767-.706 1.465-1.448 1.465h-1.343v3.314c0 2.198.106 2.651 1.096 2.651h.459c.777 0 1.448.628 1.448 1.43 0 .768-.671 1.43-1.448 1.43zm15.72-15.28c.424.245.813.838.813 1.36 0 .838-.707 1.536-1.52 1.536-.211 0-.388-.07-.564-.105-.954-.698-2.155-1.151-3.427-1.151-3.003 0-5.052 2.407-5.052 5.407s2.084 5.372 5.052 5.372a5.523 5.523 0 003.815-1.535 1.56 1.56 0 01.883-.279c.813 0 1.449.628 1.449 1.43 0 .524-.318.977-.707 1.221-1.448 1.221-3.391 2.024-5.405 2.024-4.592 0-8.337-3.733-8.337-8.338 0-4.604 3.745-8.337 8.337-8.337a7.979 7.979 0 014.663 1.395zm8.232 12.42c1.448 0 2.685-1.292 2.685-3.036s-1.272-2.895-2.685-2.895c-1.449 0-2.58 1.186-2.58 2.895 0 1.675 1.167 3.035 2.58 3.035zm3.462 1.464l-.07-.384c-.637 1.221-2.65 1.78-3.922 1.78-3.038 0-5.3-2.721-5.3-5.966 0-3.209 2.297-5.86 5.477-5.86.53 0 2.366.14 3.78 1.779l.07-.384c0-.697.53-1.256 1.237-1.256.706 0 1.271.594 1.271 1.256v9c0 .698-.565 1.256-1.271 1.256-.742.035-1.272-.558-1.272-1.22zm11.41-1.465c1.45 0 2.58-1.36 2.58-3.035 0-1.744-1.166-2.895-2.58-2.895-1.448 0-2.684 1.151-2.684 2.895s1.236 3.035 2.685 3.035zm-2.684 1.919v4.081a1.64 1.64 0 01-1.625 1.64 1.64 1.64 0 01-1.625-1.64V16.744c0-.697.565-1.256 1.271-1.256.707 0 1.237.593 1.237 1.396 1.201-1.221 2.685-1.535 3.815-1.535 3.144 0 5.476 2.616 5.476 5.86 0 3.21-2.226 5.965-5.3 5.965-.953-.034-2.366-.314-3.25-.976z" id="Shape"/></g></g></g></svg>