<svg width="170" height="44" xmlns="http://www.w3.org/2000/svg"><g id="Page-1" stroke="none" stroke-width="1" fill="none" fill-rule="evenodd"><g id="Home" transform="translate(-854 -1984)" fill-rule="nonzero"><g id="CoinGecko-WhiteText" transform="translate(854 1984)"><g id="Coin_Gecko_Vector_Text" transform="translate(58 11)" fill="#FFF"><path d="M11.57 5.565C11.105 3.72 9.933 2.37 7.64 2.37c-3.383 0-4.797 3.037-4.797 6.118 0 3.082 1.414 6.12 4.797 6.12 2.456 0 3.802-1.866 4.022-4.206h2.697c-.221 3.846-2.895 6.5-6.714 6.5-4.73 0-7.56-3.825-7.56-8.415 0-4.59 2.82-8.422 7.55-8.422C11.193.087 14 2.09 14.332 5.555l-2.762.01z" id="Path"/><path d="M15.991 10.685c0-3.555 2.1-6.118 5.769-6.118 3.67 0 5.768 2.563 5.768 6.118s-2.099 6.143-5.768 6.143c-3.67 0-5.769-2.565-5.769-6.143zm9.017 0c0-2-.993-4.093-3.248-4.093-2.255 0-3.249 2.091-3.249 4.093s.994 4.118 3.249 4.118 3.248-2.093 3.248-4.118zM29.695.448h2.52v2.43h-2.52V.448zm0 4.434h2.52v11.631h-2.52V4.882z" id="Shape"/><path d="M34.956 4.882h2.387v1.71l.044.045a4.08 4.08 0 013.56-2.072c2.476 0 4.045 1.35 4.045 3.958v7.989h-2.52V9.2c-.045-1.822-.752-2.608-2.232-2.608-1.68 0-2.764 1.348-2.764 3.058v6.863h-2.52V4.882zm26.813 11.631H60l-.419-1.89c-1.474 1.71-2.83 2.272-4.748 2.272-4.728.003-7.564-3.83-7.564-8.415 0-4.585 2.836-8.415 7.56-8.415 3.439 0 6.344 1.867 6.763 5.49h-2.697C58.63 3.44 56.819 2.36 54.829 2.36c-3.383 0-4.797 3.037-4.797 6.118 0 3.082 1.414 6.12 4.797 6.12 2.828.045 4.375-1.686 4.421-4.41h-4.2V8.053h6.714l.005 8.46z" id="Path"/><path d="M66.39 11.36c0 1.823.972 3.443 3.071 3.443 1.46 0 2.343-.653 2.784-1.935h2.389c-.552 2.542-2.674 3.96-5.173 3.96-3.58 0-5.592-2.543-5.592-6.12 0-3.308 2.13-6.141 5.527-6.141 3.602 0 5.813 3.306 5.393 6.793h-8.4zm5.88-1.687c-.089-1.62-1.173-3.081-2.874-3.081-1.747 0-2.94 1.348-3.007 3.081h5.88z" id="Shape"/><path d="M84.427 8.773c-.2-1.418-1.216-2.181-2.608-2.181-1.31 0-3.139.696-3.139 4.228 0 1.935.84 3.983 3.028 3.983 1.459 0 2.475-.99 2.72-2.655h2.52c-.466 3.015-2.293 4.68-5.24 4.68-3.581 0-5.548-2.588-5.548-6.008 0-3.51 1.88-6.253 5.636-6.253 2.653 0 4.912 1.35 5.151 4.206h-2.52zM89.076.448h2.52v9.135l4.554-4.701h3.094l-4.376 4.273 4.796 7.358h-3.079l-3.492-5.648-1.504 1.485v4.167h-2.513z" id="Path"/><path d="M100.343 10.685c0-3.555 2.1-6.118 5.769-6.118 3.67 0 5.77 2.563 5.77 6.118s-2.1 6.143-5.77 6.143c-3.67 0-5.769-2.565-5.769-6.143zm9.02 0c0-2-.996-4.093-3.251-4.093s-3.249 2.091-3.249 4.093.994 4.118 3.249 4.118 3.25-2.093 3.25-4.118z" id="Shape"/></g><g id="Coin_Gecko_AI"><path d="M45 21.903c.04 8.898-5.406 16.944-13.798 20.385-8.392 3.441-18.079 1.6-24.542-4.664C.197 31.36-1.77 21.905 1.675 13.67 5.121 5.434 13.302.039 22.402 0 34.828-.053 44.945 9.753 45 21.903z" id="Path" fill="#8DC63F"/><path d="M43.313 21.91c.038 8.23-4.998 15.672-12.76 18.856-7.76 3.183-16.72 1.482-22.697-4.311-5.979-5.793-7.8-14.537-4.613-22.154C6.429 6.684 13.993 1.693 22.41 1.656c11.492-.049 20.85 9.018 20.903 20.255z" id="Path" fill="#F9E988"/><path d="M22.883 2.975a11.68 11.68 0 014 0c1.335.207 2.626.63 3.82 1.251 1.187.638 2.212 1.504 3.233 2.315 1.02.811 2.036 1.642 3.003 2.55a14.966 14.966 0 012.562 3.03 17.077 17.077 0 011.793 3.534c.869 2.497 1.17 5.186.737 7.751h-.129c-.435-2.543-1.025-4.966-1.956-7.271a28.063 28.063 0 00-1.54-3.388 33.178 33.178 0 00-2.024-3.177 11.657 11.657 0 00-2.714-2.678c-1.056-.737-2.27-1.213-3.446-1.666-1.176-.453-2.342-.922-3.568-1.266s-2.471-.603-3.772-.853l.001-.132z" id="Path" fill="#FFF"/><path d="M33.055 14.729c-1.51-.427-3.075-1.033-4.66-1.645-.09-.39-.443-.874-1.155-1.465-1.036-.879-2.98-.857-4.662-.468-1.855-.427-3.688-.578-5.447-.159-14.389 3.876-6.23 13.33-11.513 22.835.752 1.56 8.854 10.656 20.577 8.215 0 0-4.01-9.42 5.038-13.941 7.338-3.681 12.64-10.491 1.822-13.372z" id="Path" fill="#8BC53F"/><path d="M34.833 20.916a.863.863 0 01-.868.858.863.863 0 01-.877-.849.863.863 0 01.867-.857.865.865 0 01.878.848z" id="Path" fill="#FFF"/><path d="M22.578 11.145c1.049.073 4.84 1.275 5.818 1.932-.816-2.311-3.56-2.619-5.818-1.932z" id="Path" fill="#009345"/><path d="M23.576 16.991c0 1.592-.98 3.027-2.483 3.636a4.091 4.091 0 01-4.386-.852 3.87 3.87 0 01-.873-4.288c.623-1.47 2.09-2.429 3.718-2.429a4.07 4.07 0 012.845 1.151 3.89 3.89 0 011.18 2.782z" id="Path" fill="#FFF"/><path d="M22.383 17.026c0 1.529-1.268 2.768-2.83 2.768-1.564 0-2.831-1.24-2.831-2.768 0-1.528 1.267-2.767 2.83-2.767.75 0 1.47.291 2.002.81.53.52.829 1.223.829 1.957z" id="Path" fill="#58595B"/><path d="M38.092 22.65c-3.261 2.247-6.969 3.95-12.228 3.95-2.462 0-2.961-2.55-4.588-1.303-.84.647-3.801 2.095-6.15 1.985-2.35-.11-6.159-1.458-7.22-6.361-.42 4.903-.636 8.516-2.519 12.656 3.75 5.872 12.691 10.4 20.808 8.45-.873-5.955 4.449-11.787 7.447-14.77 1.142-1.131 3.31-2.976 4.45-4.61v.003z" id="Path" fill="#8BC53F"/><path d="M37.965 22.797c-1.013.902-2.218 1.57-3.444 2.16a22.21 22.21 0 01-3.864 1.376c-1.33.336-2.718.59-4.123.466-1.406-.125-2.842-.592-3.773-1.622l.044-.05c1.141.725 2.459.98 3.77 1.016 1.328.04 2.657-.067 3.961-.319a21.991 21.991 0 003.85-1.163c1.244-.502 2.475-1.084 3.535-1.913l.044.05z" id="Path" fill="#58595B"/></g></g></g></g></svg>