<svg width="145" height="28" xmlns="http://www.w3.org/2000/svg"><defs><linearGradient x1="-48.339%" y1="-95.687%" x2="153.947%" y2="148.248%" id="linearGradient-1"><stop stop-color="#EA3671" offset="0%"/><stop stop-color="#E03A75" offset="4%"/><stop stop-color="#82619B" offset="39%"/><stop stop-color="#3C7EB8" offset="69%"/><stop stop-color="#1190C9" offset="89%"/><stop stop-color="#0197D0" offset="100%"/></linearGradient><linearGradient x1="-87.801%" y1="14.479%" x2="146.189%" y2="100.497%" id="linearGradient-2"><stop stop-color="#EA3671" offset="0%"/><stop stop-color="#E03A75" offset="4%"/><stop stop-color="#82619B" offset="39%"/><stop stop-color="#3C7EB8" offset="69%"/><stop stop-color="#1190C9" offset="89%"/><stop stop-color="#0197D0" offset="100%"/></linearGradient><linearGradient x1="-95.211%" y1="-108.224%" x2="106.732%" y2="84.745%" id="linearGradient-3"><stop stop-color="#EA3671" offset="0%"/><stop stop-color="#E03A75" offset="4%"/><stop stop-color="#82619B" offset="39%"/><stop stop-color="#3C7EB8" offset="69%"/><stop stop-color="#1190C9" offset="89%"/><stop stop-color="#0197D0" offset="100%"/></linearGradient><linearGradient x1="-93.453%" y1="-28.187%" x2="65.885%" y2="58.966%" id="linearGradient-4"><stop stop-color="#EA3671" offset="0%"/><stop stop-color="#E03A75" offset="4%"/><stop stop-color="#82619B" offset="39%"/><stop stop-color="#3C7EB8" offset="69%"/><stop stop-color="#1190C9" offset="89%"/><stop stop-color="#0197D0" offset="100%"/></linearGradient><linearGradient x1="75.386%" y1="69.527%" x2="280.046%" y2="316%" id="linearGradient-5"><stop stop-color="#EA3671" offset="0%"/><stop stop-color="#E03A75" offset="4%"/><stop stop-color="#82619B" offset="39%"/><stop stop-color="#3C7EB8" offset="69%"/><stop stop-color="#1190C9" offset="89%"/><stop stop-color="#0197D0" offset="100%"/></linearGradient><linearGradient x1="22.058%" y1="51.455%" x2="256.351%" y2="138.453%" id="linearGradient-6"><stop stop-color="#EA3671" offset="0%"/><stop stop-color="#E03A75" offset="4%"/><stop stop-color="#82619B" offset="39%"/><stop stop-color="#3C7EB8" offset="69%"/><stop stop-color="#1190C9" offset="89%"/><stop stop-color="#0197D0" offset="100%"/></linearGradient><linearGradient x1="-9.04%" y1="-5.307%" x2="194.145%" y2="187.463%" id="linearGradient-7"><stop stop-color="#EA3671" offset="0%"/><stop stop-color="#E03A75" offset="4%"/><stop stop-color="#82619B" offset="39%"/><stop stop-color="#3C7EB8" offset="69%"/><stop stop-color="#1190C9" offset="89%"/><stop stop-color="#0197D0" offset="100%"/></linearGradient><linearGradient x1="-32.089%" y1="-3.611%" x2="128.71%" y2="83.447%" id="linearGradient-8"><stop stop-color="#EA3671" offset="0%"/><stop stop-color="#E03A75" offset="4%"/><stop stop-color="#82619B" offset="39%"/><stop stop-color="#3C7EB8" offset="69%"/><stop stop-color="#1190C9" offset="89%"/><stop stop-color="#0197D0" offset="100%"/></linearGradient><linearGradient x1="-238.232%" y1="-108.994%" x2="106.586%" y2="91.502%" id="linearGradient-9"><stop stop-color="#EA3671" offset="0%"/><stop stop-color="#E03A75" offset="4%"/><stop stop-color="#82619B" offset="39%"/><stop stop-color="#3C7EB8" offset="69%"/><stop stop-color="#1190C9" offset="89%"/><stop stop-color="#0197D0" offset="100%"/></linearGradient><linearGradient x1="33.874%" y1="7.744%" x2="74.203%" y2="110.077%" id="linearGradient-10"><stop stop-color="#EA3671" offset="0%"/><stop stop-color="#E03A75" offset="4%"/><stop stop-color="#82619B" offset="39%"/><stop stop-color="#3C7EB8" offset="69%"/><stop stop-color="#1190C9" offset="89%"/><stop stop-color="#0197D0" offset="100%"/></linearGradient></defs><g id="Page-1" stroke="none" stroke-width="1" fill="none" fill-rule="evenodd"><g id="Home" transform="translate(-1072 -1992)" fill-rule="nonzero"><g id="cointiger" transform="translate(1072 1992)"><g id="资源-3备份-7"><path d="M29.6 7.928a4.126 4.126 0 00-.658-7.63 4.113 4.113 0 00-4.409 1.369 14.708 14.708 0 015.12 6.261H29.6z" id="路径" fill="url(#linearGradient-1)"/><path d="M20.352 8.42a9.288 9.288 0 013.403-5.92 14.067 14.067 0 014.832 5.92h-8.235z" id="路径-2" fill="url(#linearGradient-2)"/><path d="M20.267 9.53h8.693a13.57 13.57 0 01.587 6.23h-.075a6.086 6.086 0 01-4.267-1.785c-.159.345-.337.68-.533 1.005a7.172 7.172 0 004.725 1.87 13.64 13.64 0 01-.597 1.987c-4.779-.324-8.5-4.284-8.533-9.082v-.224z" id="路径-3" fill="url(#linearGradient-3)"/><path d="M16.341 19.98a10.327 10.327 0 006.272-2.553 10.339 10.339 0 005.739 2.585 14.001 14.001 0 01-8.448 7.244 9.237 9.237 0 01-3.563-7.276z" id="路径-4" fill="url(#linearGradient-4)"/><path d="M2.133 7.928A4.126 4.126 0 012.931.382a4.113 4.113 0 014.354 1.285 14.697 14.697 0 00-5.152 6.261z" id="路径-5" fill="url(#linearGradient-5)"/><path d="M11.424 8.42A9.288 9.288 0 008.011 2.5 14.067 14.067 0 003.2 8.42h8.224z" id="路径-6" fill="url(#linearGradient-6)"/><path d="M11.477 9.53H2.784a13.57 13.57 0 00-.597 6.23h.074a6.086 6.086 0 004.267-1.785c.16.345.337.68.533 1.005a7.172 7.172 0 01-4.725 1.87c.148.68.348 1.348.597 1.998 4.78-.325 8.5-4.285 8.534-9.082.021-.086.01-.15.01-.235z" id="路径-7" fill="url(#linearGradient-7)"/><path d="M15.424 19.98a10.327 10.327 0 01-6.272-2.553 10.339 10.339 0 01-5.739 2.575 14.001 14.001 0 008.448 7.244 9.237 9.237 0 003.563-7.276v.01z" id="路径-8" fill="url(#linearGradient-8)"/><path d="M15.904 23.24a10.44 10.44 0 01-2.741 4.273c1.807.387 3.675.387 5.482 0a10.44 10.44 0 01-2.741-4.274z" id="路径-9" fill="url(#linearGradient-9)"/><path d="M22.848 1.86A13.743 13.743 0 0016.501 0v5.342h-1.066V0a13.743 13.743 0 00-6.4 1.86 10.343 10.343 0 01.96 14.734 9.066 9.066 0 0011.936 0 10.343 10.343 0 01.96-14.735h-.043z" id="路径-10" fill="url(#linearGradient-10)"/></g><path d="M45.48 20.994c1.373.048 2.74-.186 4.01-.685l-.385-1.502a8.187 8.187 0 01-3.208.603c-3.668 0-5.806-2.26-5.806-5.826 0-3.813 2.363-5.98 5.924-5.98a7.225 7.225 0 013.037.604l.491-1.523a8.545 8.545 0 00-3.603-.644c-2.146-.125-4.245.639-5.762 2.096-1.516 1.457-2.304 3.467-2.162 5.518 0 4.763 3.198 7.339 7.464 7.339zm12.404 0c3.87 0 7.047-2.668 7.047-7.635C64.93 9.036 62.257 6 58.087 6s-7.025 3.015-7.025 7.614c0 4.395 2.79 7.38 6.822 7.38zm.118-1.523c-3.101 0-4.866-2.77-4.866-5.897 0-3.128 1.626-6.04 4.887-6.04 3.261 0 4.833 3.014 4.833 5.917 0 3.291-1.753 6.02-4.854 6.02zm11.43 1.288V6.266h-1.978v14.493h1.978zm5.261 0v-6.235c0-2.412 0-4.15-.139-5.979h.065a41.674 41.674 0 002.812 4.845l4.812 7.359h1.978V6.266h-1.829v6.07c0 2.26 0 4.028.225 5.96h-.064a40.147 40.147 0 00-2.706-4.712l-4.833-7.318h-2.138v14.493h1.817zm19.109 0V9.015h4.149v-2.75H86.285v2.75h4.095V20.76h3.422zm9.41 0V6.266H99.79v14.493h3.422zm10.575.153c1.723-.025 3.432-.3 5.069-.818V12.48h-5.646v2.555h2.341v3.066a5.49 5.49 0 01-1.668.195 4.68 4.68 0 01-3.556-1.34 4.248 4.248 0 01-1.245-3.454c0-3.158 2.139-4.691 5.037-4.691a8.267 8.267 0 013.507.623l.716-2.647a11.416 11.416 0 00-4.213-.685c-4.972 0-8.64 2.75-8.661 7.574-.067 1.969.704 3.88 2.139 5.294 1.712 1.4 3.933 2.098 6.18 1.942zm17.419-.153V18.07h-6.234v-3.445h5.582V11.97h-5.582V8.954h5.924V6.266h-9.335v14.493h9.645zm5.742 0v-5.693h1.016c1.422 0 2.074.49 2.502 2.32a18.787 18.787 0 001.07 3.373H145c-.289-.562-.738-2.453-1.219-4.089-.167-1.156-.908-2.165-1.989-2.708v-.061c1.576-.536 2.64-1.948 2.673-3.547.07-1.181-.46-2.322-1.422-3.066-1.07-.818-2.652-1.145-4.908-1.145a31.301 31.301 0 00-4.566.296v14.31l3.38.01zm1.347-8.064h-1.347V8.719a7.13 7.13 0 011.55-.113c1.573 0 2.524.685 2.524 2.044 0 1.36-1.016 2.045-2.727 2.045z" id="COINTIGER" fill="#FFF"/></g></g></g></svg>