<svg width="111" height="111" xmlns="http://www.w3.org/2000/svg"><defs><radialGradient cx="50%" cy="50%" fx="50%" fy="50%" r="33.692%" gradientTransform="matrix(0 1 -1.0539 0 1.027 0)" id="radialGradient-1"><stop stop-color="#106CFA" offset="0%"/><stop stop-color="#000116" offset="100%"/></radialGradient></defs><g id="Page-1" stroke="none" stroke-width="1" fill="none" fill-rule="evenodd"><g id="Home" transform="translate(-448 -2761)"><g id="Group-7" transform="translate(448 2761)"><circle id="Oval" fill="url(#radialGradient-1)" cx="55.5" cy="55.5" r="55.5"/><g id="Group-56" transform="translate(14 10)" stroke-width="2"><path id="Stroke-1" stroke="#FFF" stroke-linecap="round" d="M11 21L36 7"/><path id="Stroke-2" stroke="#FFF" stroke-linecap="round" d="M35 84L11 70"/><path id="Stroke-3" stroke="#FFF" stroke-linecap="round" d="M72 71L48 85"/><path id="Stroke-4" stroke="#FFF" stroke-linecap="round" d="M49 7l24 14"/><path d="M48 6a6 6 0 11-12 0 6 6 0 0112 0z" id="Stroke-5" stroke="#EDC638"/><path d="M48 86a6 6 0 11-12 0 6 6 0 0112 0z" id="Stroke-7" stroke="#EDC638"/><path d="M12 25a6 6 0 11-12 0 6 6 0 0112 0z" id="Stroke-9" stroke="#EDC638"/><path d="M12 67a6 6 0 11-12 0 6 6 0 0112 0z" id="Stroke-11" stroke="#EDC638"/><path d="M84 25a6 6 0 11-12 0 6 6 0 0112 0z" id="Stroke-13" stroke="#EDC638"/><path d="M84 67a6 6 0 11-12 0 6 6 0 0112 0z" id="Stroke-15" stroke="#EDC638"/><path d="M52 46c0 5.522-4.476 10-10 10-5.522 0-10-4.478-10-10s4.478-10 10-10c5.524 0 10 4.478 10 10z" id="Stroke-17" stroke="#EDC638"/><path id="Stroke-19" stroke="#FFF" stroke-linecap="round" d="M42 12v23.126"/><path id="Stroke-21" stroke="#FFF" stroke-linecap="round" d="M42 56.25V80"/><path id="Stroke-23" stroke="#FFF" stroke-linecap="round" d="M32.75 51.375L11.706 63.673"/><path id="Stroke-25" stroke="#FFF" stroke-linecap="round" d="M29.174 38.518L32.75 40.5"/><path id="Stroke-27" stroke="#FFF" stroke-linecap="round" d="M11.4 28.15l6.99 4.078"/><path id="Stroke-29" stroke="#FFF" stroke-linecap="round" d="M54.578 53.337l-3.704-2.212"/><path id="Stroke-31" stroke="#FFF" stroke-linecap="round" d="M72.299 63.675l-7.062-4.12"/><path id="Stroke-33" stroke="#FFF" stroke-linecap="round" d="M55.314 38.233L51 40.749"/><path id="Stroke-35" stroke="#FFF" stroke-linecap="round" d="M72.777 28.046l-7.686 4.484"/><path id="Stroke-37" stroke="#FFF" stroke-linecap="round" d="M21.276 40.266l16.692-29.212"/><path id="Stroke-39" stroke="#FFF" stroke-linecap="round" d="M9.639 60.633l4.916-8.602"/><path id="Stroke-41" stroke="#FFF" stroke-linecap="round" d="M27.057 61.85l10.718 18.756"/><path id="Stroke-43" stroke="#FFF" stroke-linecap="round" d="M9.408 30.965l11.136 19.488"/><path id="Stroke-45" stroke="#FFF" stroke-linecap="round" d="M62.408 39.722L45.874 10.79"/><path id="Stroke-47" stroke="#FFF" stroke-linecap="round" d="M74.947 61.665l-5.34-9.344"/><path id="Stroke-49" stroke="#FFF" stroke-linecap="round" d="M74.99 30.262l-28.778 50.36"/><path id="Stroke-51" stroke="#FFF" stroke-linecap="round" d="M6 60.875V31.999"/><path id="Stroke-53" stroke="#FFF" stroke-linecap="round" d="M78 31v30"/></g></g></g></g></svg>