<svg width="111" height="111" xmlns="http://www.w3.org/2000/svg" xmlns:xlink="http://www.w3.org/1999/xlink"><defs><path id="path-2" d="M0 .64h2V6H0z"/><path id="path-4" d="M.5.64h2V6h-2z"/><path id="path-6" d="M.5.64h2V6h-2z"/><path id="path-8" d="M0 .64h2V6H0z"/><path id="path-10" d="M.5.64h2V6h-2z"/><path id="path-12" d="M.5.64h2V6h-2z"/><radialGradient cx="50%" cy="50%" fx="50%" fy="50%" r="33.692%" gradientTransform="matrix(0 1 -1.0539 0 1.027 0)" id="radialGradient-1"><stop stop-color="#106CFA" offset="0%"/><stop stop-color="#000116" offset="100%"/></radialGradient></defs><g id="Page-1" stroke="none" stroke-width="1" fill="none" fill-rule="evenodd"><g id="Home" transform="translate(-448 -2881)"><g id="Group-9" transform="translate(448 2881)"><circle id="Oval" fill="url(#radialGradient-1)" cx="55.5" cy="55.5" r="55.5"/><g id="Group-43" transform="translate(12 23)"><path id="Stroke-1" stroke="#FFF" stroke-width="2" d="M0 64h87"/><path id="Stroke-3" stroke="#FFF" stroke-width="2" d="M0 53.988l10.828.002 7.22-2.789 3.608.002 3.607 2.79 18.049-5.575h7.219l14.45 5.58 3.61.002 14.784-6H87"/><path id="Stroke-5" stroke="#FFF" stroke-width="2" d="M0 45.998L10.828 46l14.437-5.078 3.61.002h7.22l18.047-10.157 3.61.002 9.015 4.813h3.608L83.391 23H87"/><path id="Stroke-7" stroke="#EDC638" stroke-width="2" d="M0 37.998L7.218 38l10.83-6.546 3.609.002h7.221l10.828-13.09 3.61.001 14.44-16.364h3.609l7.203 6.55h3.609L83.375 1 87 1.002"/><path id="Stroke-9" stroke="#FFF" stroke-width="2" d="M4 30H0"/><path id="Stroke-11" stroke="#FFF" stroke-width="2" d="M4 23H0"/><path id="Stroke-13" stroke="#FFF" stroke-width="2" d="M4 15H0"/><path id="Stroke-15" stroke="#FFF" stroke-width="2" d="M4 8H0"/><path id="Stroke-17" stroke="#FFF" stroke-width="2" d="M4 1H0"/><path id="Stroke-19" stroke="#FFF" stroke-width="2" stroke-linejoin="round" d="M2 59v7"/><path id="Stroke-21" stroke="#FFF" stroke-width="2" stroke-linejoin="round" d="M44 59v7"/><g id="Group-25" transform="translate(22 60)"><mask id="mask-3" fill="#fff"><use xlink:href="#path-2"/></mask><path id="Stroke-23" stroke="#FFF" stroke-width="2" stroke-linejoin="round" mask="url(#mask-3)" d="M1 .641v5.36"/></g><g id="Group-28" transform="translate(11 60)"><mask id="mask-5" fill="#fff"><use xlink:href="#path-4"/></mask><path id="Stroke-26" stroke="#FFF" stroke-width="2" stroke-linejoin="round" mask="url(#mask-5)" d="M1.5.641v5.36"/></g><g id="Group-31" transform="translate(32 60)"><mask id="mask-7" fill="#fff"><use xlink:href="#path-6"/></mask><path id="Stroke-29" stroke="#FFF" stroke-width="2" stroke-linejoin="round" mask="url(#mask-7)" d="M1.5.641v5.36"/></g><g id="Group-34" transform="translate(63 60)"><mask id="mask-9" fill="#fff"><use xlink:href="#path-8"/></mask><path id="Stroke-32" stroke="#FFF" stroke-width="2" stroke-linejoin="round" mask="url(#mask-9)" d="M1 .641v5.36"/></g><g id="Group-37" transform="translate(52 60)"><mask id="mask-11" fill="#fff"><use xlink:href="#path-10"/></mask><path id="Stroke-35" stroke="#FFF" stroke-width="2" stroke-linejoin="round" mask="url(#mask-11)" d="M1.5.641v5.36"/></g><g id="Group-40" transform="translate(73 60)"><mask id="mask-13" fill="#fff"><use xlink:href="#path-12"/></mask><path id="Stroke-38" stroke="#FFF" stroke-width="2" stroke-linejoin="round" mask="url(#mask-13)" d="M1.5.641v5.36"/></g><path id="Stroke-41" stroke="#FFF" stroke-width="2" stroke-linejoin="round" d="M85 59v7"/></g></g></g></g></svg>