<svg width="1920" height="281" xmlns="http://www.w3.org/2000/svg"><g id="Page-1" stroke="none" stroke-width="1" fill="none" fill-rule="evenodd"><g id="Home" transform="translate(0 -741)"><g id="Group" transform="translate(-153 741)"><path id="Fill-1" fill="#FFF" d="M1690.242 81.446l-32.525-26.803L1588.305 112l-101.322-53.076-51.81 67.343-89.798-30.773-135.227 72.127-124-79.118-67.065 32.854-47.462-23.493-76.692 84.22-31.301-12.189-24.262 4.28-65.556-42.201-174.943 46.07-96.672-77.236-2.893 69.733-107.334-26.019-240.415 2.974.44 88.504h1920.56v-84.797l-106.729-6.68-89.97-31.03-80.712 3.992L1888.602 0z"/><path id="Fill-1" fill="#000421" d="M1612.215 112l-124.424 57.77-153.803-7.938-107.013 49.541-221.456-46.542-126.714 31.25-53.468 17.578-63.158-33.821-99.202 39.905-158.251-23.662-101.665 18.229-124.407-26.175L0 191.127l.51 89.033h2226.043v-85.305L2116.886 153.9l-89.231 21.948-122.638-14.912-121.585-36.256-87.886 42.176z"/></g></g></g></svg>