<svg width="111" height="27" xmlns="http://www.w3.org/2000/svg"><g id="Page-1" stroke="none" stroke-width="1" fill="none" fill-rule="evenodd"><g id="Home" transform="translate(-1268 -1992)" fill-rule="nonzero"><g id="hotbit" transform="translate(1268 1992)"><path d="M26 13.52v5.53c0 .157-.038.236-.17.314-4.233 2.52-8.446 5.058-12.678 7.577-.114.079-.209.079-.323 0A2730.429 2730.429 0 00.152 19.364C.038 19.305 0 19.207 0 19.07V7.95c0-.157.038-.236.17-.314C4.404 5.116 8.617 2.578 12.83.059c.113-.079.208-.079.322 0 4.213 2.539 8.445 5.058 12.677 7.577.133.078.171.157.171.314v5.57zm-23.438-.59c0 .098-.019.176-.019.235v4.172c0 .158.038.237.17.315 3.379 2.027 6.757 4.035 10.135 6.062.114.078.209.059.323 0l10.134-6.081c.057-.04.114-.08.19-.138a4.842 4.842 0 01-.209-.138l-1.879-1.122c-1.954-1.18-3.928-2.341-5.883-3.522-.095-.06-.17-.118-.285.02-.72.924-1.46 1.83-2.201 2.755-.038.039-.057.078-.095.137 1.423.847 2.828 1.693 4.251 2.539a1.284 1.284 0 01-.17.118c-.779.531-1.557 1.043-2.335 1.574-.17.118-.285.118-.455.02A3347.1 3347.1 0 012.79 13.047c-.076-.02-.133-.059-.228-.118zm20.876 1.062c0-.098.019-.138.019-.177v-4.27c0-.138-.076-.217-.17-.276-3.36-2.027-6.738-4.034-10.097-6.061a.335.335 0 00-.38 0C9.451 5.235 6.073 7.242 2.714 9.269c-.057.04-.114.079-.19.138a.705.705 0 00.19.118 2396.37 2396.37 0 017.496 4.487c.133.078.209.059.323-.06a243.99 243.99 0 011.879-2.341c.133-.158.246-.315.38-.492-1.5-.905-2.98-1.791-4.48-2.677.057-.039.076-.078.114-.078.854-.532 1.708-1.083 2.562-1.614.114-.079.19-.02.285.02 3.985 2.38 7.99 4.742 11.975 7.124.038.02.114.039.19.098z" id="Shape" fill="#1DA98F"/><path d="M26 13.52v5.53c0 .157-.038.236-.17.314-4.233 2.52-8.446 5.058-12.678 7.577-.114.079-.209.079-.323 0A2730.429 2730.429 0 00.152 19.364C.038 19.305 0 19.207 0 19.07V7.95c0-.157.038-.236.17-.314C4.404 5.116 8.617 2.578 12.83.059c.113-.079.208-.079.322 0 4.213 2.539 8.445 5.058 12.677 7.577.133.078.171.157.171.314v5.57zm-23.438-.59c0 .098-.019.176-.019.235v4.172c0 .158.038.237.17.315 3.379 2.027 6.757 4.035 10.135 6.062.114.078.209.059.323 0l10.134-6.081c.057-.04.114-.08.19-.138a4.842 4.842 0 01-.209-.138l-1.879-1.122c-1.954-1.18-3.928-2.341-5.883-3.522-.095-.06-.17-.118-.285.02-.72.924-1.46 1.83-2.201 2.755-.038.039-.057.078-.095.137 1.423.847 2.828 1.693 4.251 2.539a1.284 1.284 0 01-.17.118c-.779.531-1.557 1.043-2.335 1.574-.17.118-.285.118-.455.02A3347.1 3347.1 0 012.79 13.047c-.076-.02-.133-.059-.228-.118zm20.876 1.062c0-.098.019-.138.019-.177v-4.27c0-.138-.076-.217-.17-.276-3.36-2.027-6.738-4.034-10.097-6.061a.335.335 0 00-.38 0C9.451 5.235 6.073 7.242 2.714 9.269c-.057.04-.114.079-.19.138a.705.705 0 00.19.118 2396.37 2396.37 0 017.496 4.487c.133.078.209.059.323-.06a243.99 243.99 0 011.879-2.341c.133-.158.246-.315.38-.492-1.5-.905-2.98-1.791-4.48-2.677.057-.039.076-.078.114-.078.854-.532 1.708-1.083 2.562-1.614.114-.079.19-.02.285.02 3.985 2.38 7.99 4.742 11.975 7.124.038.02.114.039.19.098z" id="Shape" fill="#2BB294"/><path d="M65 13.529C65 18.382 62.548 21 58.03 21c-4.577 0-7.05-2.637-7.03-7.528 0-4.854 2.51-7.51 7.106-7.472 4.5.04 6.894 2.637 6.894 7.53zm-10.717-.038c0 3.305 1.332 5.044 3.823 4.968 2.047-.077 3.264-1.3 3.573-3.65.424-3.21-.522-5.522-2.491-6.076-2.974-.84-4.886 1.013-4.905 4.758z" id="Shape" fill="#1EAA8F"/><path d="M36 6h3.029v5.806h5.846V6H48v15h-3.087v-6.42h-5.807v6.4H36.02C36 16.026 36 11.053 36 6z" id="Path" fill="#1DA98F"/><path d="M67 6h11v2.58h-3.931V21H70.93V8.639H67V6zm36.956 2.58H100V6h11v2.58h-3.918V21h-3.126V8.58z" id="Path" fill="#1CA98E"/><path d="M97 21h-3V6h3v15z" id="Path" fill="#1DA98E"/><path d="M80 6h4.622c2.107 0 3.628.296 4.584.91.955.612 1.423 1.56 1.423 2.884 0 .89-.214 1.64-.624 2.214-.41.573-.975.929-1.657 1.047v.1c.936.217 1.618.612 2.028 1.185.41.573.624 1.364.624 2.312 0 1.364-.488 2.431-1.463 3.202-.975.77-2.301 1.146-3.978 1.146h-5.54V6H80zm3.14 5.949h1.833c.859 0 1.463-.139 1.853-.396.39-.276.566-.711.566-1.324 0-.573-.215-.988-.624-1.245-.41-.257-1.073-.375-1.97-.375H83.14v3.34zm0 2.51v3.932h2.048c.858 0 1.502-.158 1.911-.494.41-.336.624-.85.624-1.541 0-1.245-.877-1.878-2.633-1.878h-1.95v-.02z" id="Shape" fill="#1DA98F"/></g></g></g></svg>