<svg width="23" height="19" xmlns="http://www.w3.org/2000/svg"><g id="Page-1" stroke="none" stroke-width="1" fill="none" fill-rule="evenodd"><g id="Home" transform="translate(-1529 -99)" fill="#12133C"><g id="button-/-red" transform="translate(1266 82)"><g id="Telegram-icon" transform="translate(263 17)"><path d="M1.581 8.18c6.174-2.682 10.291-4.45 12.351-5.304C19.814.438 21.036.014 21.832 0c.176-.003.567.04.821.246.214.173.273.407.301.571.029.165.064.539.036.831-.319 3.339-1.698 11.44-2.4 15.178-.296 1.582-.881 2.113-1.447 2.165-1.23.112-2.164-.81-3.355-1.589-1.864-1.218-2.917-1.976-4.726-3.165-2.091-1.373-.736-2.128.456-3.362.312-.323 5.73-5.236 5.836-5.682.013-.055.025-.263-.099-.373-.124-.11-.307-.072-.438-.042-.187.042-3.165 2.004-8.934 5.886-.845.578-1.61.86-2.296.845-.757-.016-2.212-.426-3.293-.776-1.326-.43-2.38-.657-2.288-1.387.047-.38.572-.77 1.575-1.167" id="Te"/></g></g></g></g></svg>