<svg width="111" height="111" xmlns="http://www.w3.org/2000/svg" xmlns:xlink="http://www.w3.org/1999/xlink"><defs><radialGradient cx="50%" cy="50%" fx="50%" fy="50%" r="33.692%" gradientTransform="matrix(0 1 -1.0539 0 1.027 0)" id="radialGradient-1"><stop stop-color="#106CFA" offset="0%"/><stop stop-color="#000116" offset="100%"/></radialGradient><path id="path-2" d="M0 93h93V0H0z"/></defs><g id="Page-1" stroke="none" stroke-width="1" fill="none" fill-rule="evenodd"><g id="Home" transform="translate(-448 -2592)"><g id="Group-6" transform="translate(448 2592)"><circle id="Oval" fill="url(#radialGradient-1)" cx="55.5" cy="55.5" r="55.5"/><g id="Group-39" transform="translate(9 9)"><g id="Group-38"><path d="M63.938 46.5c0 9.631-7.807 17.438-17.438 17.438-9.631 0-17.438-7.807-17.438-17.438 0-9.631 7.807-17.438 17.438-17.438 9.631 0 17.438 7.807 17.438 17.438z" id="Stroke-15" stroke="#EDC638" stroke-width="2" stroke-linecap="round"/><mask id="mask-3" fill="#fff"><use xlink:href="#path-2"/></mask><path id="Stroke-17" stroke="#FFF" stroke-width="2" stroke-linecap="round" mask="url(#mask-3)" d="M1.938 32.938h11.624V21.312H1.938z"/><path id="Stroke-19" stroke="#EDC638" stroke-width="2" stroke-linecap="round" mask="url(#mask-3)" d="M1.938 52.313h11.624V40.687H1.938z"/><path id="Stroke-20" stroke="#FFF" stroke-width="2" stroke-linecap="round" mask="url(#mask-3)" d="M1.938 71.688h11.624V60.062H1.938z"/><path id="Stroke-21" stroke="#FFF" stroke-width="2" mask="url(#mask-3)" d="M29.063 46.5h-15.5"/><path id="Stroke-22" stroke="#FFF" stroke-width="2" mask="url(#mask-3)" d="M13.563 32.938h7.75v27.124h-7.75"/><path id="Stroke-23" stroke="#FFF" stroke-width="2" stroke-linecap="round" mask="url(#mask-3)" d="M79.438 32.938h11.624V21.312H79.439z"/><path id="Stroke-24" stroke="#EDC638" stroke-width="2" stroke-linecap="round" mask="url(#mask-3)" d="M79.438 52.313h11.624V40.687H79.439z"/><path id="Stroke-25" stroke="#FFF" stroke-width="2" stroke-linecap="round" mask="url(#mask-3)" d="M79.438 71.688h11.624V60.062H79.439z"/><path id="Stroke-26" stroke="#FFF" stroke-width="2" mask="url(#mask-3)" d="M63.938 46.5h15.5"/><path id="Stroke-27" stroke="#FFF" stroke-width="2" mask="url(#mask-3)" d="M79.438 32.938h-7.75v27.124h7.75"/><path id="Stroke-28" stroke="#FFF" stroke-width="2" stroke-linecap="round" mask="url(#mask-3)" d="M60.063 13.563h11.624V1.937H60.063z"/><path id="Stroke-29" stroke="#EDC638" stroke-width="2" stroke-linecap="round" mask="url(#mask-3)" d="M40.688 13.563h11.624V1.937H40.688z"/><path id="Stroke-30" stroke="#FFF" stroke-width="2" stroke-linecap="round" mask="url(#mask-3)" d="M21.313 13.563h11.625V1.937H21.312z"/><path id="Stroke-31" stroke="#FFF" stroke-width="2" mask="url(#mask-3)" d="M46.5 29.063v-15.5"/><path id="Stroke-32" stroke="#FFF" stroke-width="2" mask="url(#mask-3)" d="M60.063 13.563v7.75H32.936v-7.75"/><path id="Stroke-33" stroke="#FFF" stroke-width="2" stroke-linecap="round" mask="url(#mask-3)" d="M60.063 91.063h11.624V79.436H60.063z"/><path id="Stroke-34" stroke="#EDC638" stroke-width="2" stroke-linecap="round" mask="url(#mask-3)" d="M40.688 91.063h11.624V79.436H40.688z"/><path id="Stroke-35" stroke="#FFF" stroke-width="2" stroke-linecap="round" mask="url(#mask-3)" d="M21.313 91.063h11.625V79.436H21.312z"/><path id="Stroke-36" stroke="#FFF" stroke-width="2" mask="url(#mask-3)" d="M46.5 63.938v15.5"/><path id="Stroke-37" stroke="#FFF" stroke-width="2" mask="url(#mask-3)" d="M60.063 79.438v-7.75H32.936v7.75"/></g></g></g></g></g></svg>