<svg width="33" height="19" xmlns="http://www.w3.org/2000/svg"><g id="Page-1" stroke="none" stroke-width="1" fill="none" fill-rule="evenodd"><g id="Home" transform="translate(-1472 -5112)" fill="#12133C"><g id="button-/-red" transform="translate(1258 5098)"><g id="medium" transform="translate(214 14)"><g id="Group-3"><path d="M18.99 9.495c0 5.244-4.252 9.495-9.495 9.495A9.494 9.494 0 010 9.495 9.494 9.494 0 019.495 0c5.243 0 9.494 4.251 9.494 9.495" id="Fill-1"/></g><path d="M29 9.5c0 5.247-2.015 9.5-4.5 9.5S20 14.747 20 9.5 22.015 0 24.5 0 29 4.253 29 9.5" id="Fill-4"/><g id="Group-8" transform="translate(30)"><path d="M3 9.5c0 5.247-.672 9.5-1.5 9.5C.671 19 0 14.747 0 9.5S.671 0 1.5 0C2.328 0 3 4.253 3 9.5" id="Fill-6"/></g></g></g></g></g></svg>