<svg width="111" height="111" xmlns="http://www.w3.org/2000/svg"><defs><radialGradient cx="50%" cy="50%" fx="50%" fy="50%" r="33.692%" gradientTransform="matrix(0 1 -1.0539 0 1.027 0)" id="radialGradient-1"><stop stop-color="#106CFA" offset="0%"/><stop stop-color="#000116" offset="100%"/></radialGradient></defs><g id="Page-1" stroke="none" stroke-width="1" fill="none" fill-rule="evenodd"><g id="Home" transform="translate(-448 -3045)"><g id="Group-43" transform="translate(448 3045)"><circle id="Oval" fill="url(#radialGradient-1)" cx="55.5" cy="55.5" r="55.5"/><path d="M77 43.364v-23.13A5.234 5.234 0 0071.768 15H36.232A5.234 5.234 0 0031 20.233V54" id="Stroke-1" stroke="#FFF" stroke-width="2" stroke-linecap="round"/><path d="M31 68.145v23.531C31 94.616 33.343 97 36.232 97h35.45C74.62 97 77 94.578 77 91.59V58" id="Stroke-3" stroke="#FFF" stroke-width="2" stroke-linecap="round"/><path d="M54 88c1.106 0 2 .894 2 2a2 2 0 11-2-2" id="Fill-5" fill="#353535"/><path d="M54 88c1.106 0 2 .894 2 2a2 2 0 11-2-2z" id="Stroke-7" stroke="#FFF"/><path d="M67 15v3.5c0 1.932-1.598 3.5-3.571 3.5H45.57C43.6 22 42 20.432 42 18.5V15" id="Stroke-9" stroke="#FFF" stroke-width="2"/><path id="Stroke-11" stroke="#FFF" stroke-width="2" d="M54 72h0"/><path id="Stroke-13" stroke="#FFF" stroke-width="2" d="M47 67v16"/><path id="Stroke-15" stroke="#FFF" stroke-width="2" d="M40 72v11"/><path id="Stroke-17" stroke="#FFF" stroke-width="2" d="M54 70v12"/><path id="Stroke-19" stroke="#FFF" stroke-width="2" d="M61 63v20"/><path id="Stroke-21" stroke="#FFF" stroke-width="2" d="M38 83h30V60"/><path d="M77.5 51a3.5 3.5 0 110 7 3.5 3.5 0 010-7z" id="Stroke-23" stroke="#EDC638" stroke-width="2"/><path id="Stroke-25" stroke="#EDC638" stroke-width="2" d="M80 51l10-12"/><path d="M15.419 73.173a3.498 3.498 0 112.161 6.655 3.497 3.497 0 11-2.161-6.655z" id="Stroke-27" stroke="#EDC638" stroke-width="2"/><path d="M30.42 54.173a3.499 3.499 0 112.163 6.654 3.499 3.499 0 01-2.164-6.654z" id="Stroke-29" stroke="#EDC638" stroke-width="2"/><path id="Stroke-31" stroke="#EDC638" stroke-width="2" d="M18 74l11-13"/><path d="M54.109 44.022a3.5 3.5 0 11.782 6.956 3.499 3.499 0 11-.782-6.956z" id="Stroke-33" stroke="#EDC638" stroke-width="2"/><path id="Stroke-35" stroke="#EDC638" stroke-width="2" d="M35 57l16-9"/><path id="Stroke-37" stroke="#EDC638" stroke-width="2" d="M57 48l17 5"/><path id="Stroke-39" stroke="#FFF" stroke-width="2" d="M61 29h11"/><path id="Stroke-41" stroke="#FFF" stroke-width="2" d="M61 36h11"/></g></g></g></svg>