<svg width="111" height="111" xmlns="http://www.w3.org/2000/svg"><defs><radialGradient cx="50%" cy="50%" fx="50%" fy="50%" r="33.692%" gradientTransform="matrix(0 1 -1.0539 0 1.027 0)" id="radialGradient-1"><stop stop-color="#106CFA" offset="0%"/><stop stop-color="#000116" offset="100%"/></radialGradient></defs><g id="Page-1" stroke="none" stroke-width="1" fill="none" fill-rule="evenodd"><g id="Home" transform="translate(-448 -2275)"><g id="Group-4" transform="translate(448 2275)"><circle id="Oval" fill="url(#radialGradient-1)" cx="55.5" cy="55.5" r="55.5"/><g id="Group-33" transform="translate(11 11)"><path id="Stroke-1" stroke="#EDC638" stroke-width="2" d="M39 82H7"/><g id="Group-32"><path d="M84.13 82.174V33.26a5.846 5.846 0 00-1.55-3.974 5.85 5.85 0 00-4.32-1.896h-5.869" id="Stroke-2" stroke="#EDC638" stroke-width="2"/><path d="M17.609 27.391h-5.87a5.87 5.87 0 00-5.87 5.87v48.913H0v1.956c2.291 2.293 3.578 3.577 5.87 5.87h78.26c2.292-2.293 3.579-3.577 5.87-5.87v-1.956H50.87" id="Stroke-4" stroke="#EDC638" stroke-width="2"/><path d="M62.12 41.087l5.877 2.612a10.266 10.266 0 016.603 9.593v28.882" id="Stroke-6" stroke="#FFF" stroke-width="2" stroke-linejoin="round"/><path d="M27.269 41.087l-4.975 2.138a10.267 10.267 0 00-6.64 9.607v29.342" id="Stroke-8" stroke="#FFF" stroke-width="2" stroke-linejoin="round"/><path id="Stroke-10" stroke="#FFF" stroke-width="2" stroke-linejoin="round" d="M25.435 57.228v24.946"/><path id="Stroke-12" stroke="#FFF" stroke-width="2" stroke-linejoin="round" d="M64.565 57.228v24.946"/><path d="M48.855 0a4.458 4.458 0 014.326 3.379l2.091 12.762 13.207 5.87c0 2.432-10.513 4.402-23.479 4.402-12.967 0-23.478-1.97-23.478-4.402l13.207-5.87 2.09-12.762A4.462 4.462 0 0141.145 0l1.526 1.743a3.096 3.096 0 004.657 0L48.855 0z" id="Stroke-14" stroke="#FFF" stroke-width="2" stroke-linecap="round" stroke-linejoin="round"/><path d="M55.272 16.141c0 1.419-4.6 2.567-10.272 2.567-5.672 0-10.272-1.148-10.272-2.567" id="Stroke-16" stroke="#FFF" stroke-width="2" stroke-linecap="round" stroke-linejoin="round"/><path d="M56.74 26.413v2.475c0 3.113-1.237 6.099-3.438 8.3v.002C47.986 42.503 45 53.624 45 61.14l13.696-9.782-2.935-5.87 12.717-8.804L56.74 26.413" id="Stroke-18" stroke="#FFF" stroke-width="2" stroke-linecap="round" stroke-linejoin="round"/><path d="M46.957 66.522a1.956 1.956 0 11-3.912 0 1.956 1.956 0 013.912 0" id="Fill-20" fill="#454545"/><path d="M46.957 66.522a1.956 1.956 0 11-3.912 0 1.956 1.956 0 013.912 0z" id="Stroke-22" stroke="#FFF"/><path d="M33.26 26.413v2.475c0 3.113 1.237 6.099 3.438 8.3v.002C42.014 42.503 45 53.624 45 61.14l-13.696-9.78 2.935-5.87-12.717-8.804L33.26 26.413" id="Stroke-24" stroke="#FFF" stroke-width="2" stroke-linecap="round" stroke-linejoin="round"/><path d="M46.957 74.348a1.956 1.956 0 11-3.912 0 1.956 1.956 0 013.912 0" id="Fill-26" fill="#454545"/><path d="M46.957 74.348a1.956 1.956 0 11-3.912 0 1.956 1.956 0 013.912 0z" id="Stroke-28" stroke="#FFF"/><path id="Stroke-30" stroke="#FFF" stroke-width="2" d="M43.043 82.174h3.914"/></g></g></g></g></g></svg>