<svg width="145" height="34" xmlns="http://www.w3.org/2000/svg" xmlns:xlink="http://www.w3.org/1999/xlink"><defs><path id="path-1" d="M0 .279h29.818V33.17H0z"/><path id="path-3" d="M.017.189h12.74v17.498H.018z"/></defs><g id="Page-1" stroke="none" stroke-width="1" fill="none" fill-rule="evenodd"><g id="Home" transform="translate(-1427 -1989)"><g id="probit" transform="translate(1427 1989)"><g id="Group-3"><mask id="mask-2" fill="#fff"><use xlink:href="#path-1"/></mask><path d="M29.12 7.996c.384.215.698.743.698 1.174v15.11c0 .43-.314.958-.697 1.173L15.607 33.01c-.383.214-1.012.214-1.396 0L.698 25.453C.314 25.238 0 24.71 0 24.279V9.17c0-.43.314-.958.698-1.173L14.211.44c.384-.214 1.013-.214 1.396 0l13.514 7.557z" id="Fill-1" fill="#4231C8" mask="url(#mask-2)"/></g><path d="M23.707 11.48c.392-.216.39-.571-.003-.787l-8.278-4.532c-.394-.215-1.038-.215-1.432 0l-8.279 4.533c-.393.216-.715.742-.715 1.171v9.232c0 .43.33.944.732 1.144l1.364.679c.403.2.733.013.733-.416v-9.073c0-.428.32-.6.713-.384l5.455 3.021c.392.217 1.034.217 1.427 0l8.283-4.588z" id="Fill-4" fill="#FFF"/><path d="M18.729 10.661c.36.18.362.476.002.657l-3.076 1.545c-.36.183-.95.183-1.31 0l-3.075-1.546c-.36-.18-.36-.476.002-.656l3.071-1.526c.361-.18.952-.18 1.315 0l3.07 1.526z" id="Fill-6" fill="#4231C8"/><path d="M47.806 11.621h-2.45v3.827h2.45c.56 0 .99-.195 1.294-.585a2.087 2.087 0 00.328-2.006 2.249 2.249 0 00-.34-.62 1.661 1.661 0 00-.544-.442 1.57 1.57 0 00-.738-.174M41.002 24.5V8.504a.488.488 0 01.135-.378.477.477 0 01.34-.126h7.282a4.683 4.683 0 012.121.481c.627.31 1.19.737 1.657 1.26a5.846 5.846 0 011.077 1.776 5.633 5.633 0 01.013 4.065 5.764 5.764 0 01-1.052 1.764 5.175 5.175 0 01-1.633 1.25 4.695 4.695 0 01-2.104.469h-3.482v5.43c0 .338-.175.505-.525.505h-3.353c-.318.003-.476-.165-.476-.501" id="Fill-8" fill="#4231C8"/><path d="M67.93 11.529H65.4v4.146h2.53a1.89 1.89 0 00.82-.172 2.02 2.02 0 001.06-1.119 2.09 2.09 0 00.149-.767 2.169 2.169 0 00-1.209-1.9 1.806 1.806 0 00-.82-.188M61 24.494V8.505c0-.123.04-.244.112-.343a.415.415 0 01.364-.16h7.57c.76-.01 1.514.16 2.198.495a5.612 5.612 0 011.71 1.295 5.8 5.8 0 011.11 1.817c.256.669.387 1.38.387 2.096a5.01 5.01 0 01-.764 2.634A6.287 6.287 0 0171.67 18.4l3.26 6.094c.073.099.09.229.045.343-.045.107-.152.16-.32.16h-4.104a.582.582 0 01-.365-.088 1.128 1.128 0 01-.251-.39l-2.712-5.177H65.4v5.155c0 .336-.166.503-.501.503h-3.42c-.318-.002-.478-.17-.478-.506" id="Fill-10" fill="#4231C8"/><path d="M84.8 17a4.78 4.78 0 00.348 1.838c.22.545.549 1.046.97 1.472.422.422.93.758 1.492.99 1.802.751 3.91.356 5.273-.99.421-.426.75-.926.97-1.472A4.78 4.78 0 0094.2 17a4.725 4.725 0 00-.348-1.814A4.474 4.474 0 0091.39 12.7a5.073 5.073 0 00-3.781 0 4.46 4.46 0 00-1.492 1.002 4.61 4.61 0 00-.97 1.484A4.71 4.71 0 0084.8 17m-4.8.024a8.379 8.379 0 01.746-3.519 9.21 9.21 0 012.027-2.865 9.49 9.49 0 013.022-1.933 10.035 10.035 0 017.402 0c2.278.92 4.09 2.64 5.058 4.798A8.386 8.386 0 0199 17.024a8.329 8.329 0 01-.746 3.498 8.954 8.954 0 01-2.042 2.851 9.793 9.793 0 01-3.022 1.92 10.035 10.035 0 01-7.402 0c-2.277-.903-4.09-2.616-5.049-4.77a8.325 8.325 0 01-.739-3.5" id="Fill-12" fill="#4231C8"/><path d="M115.61 20.325a3.21 3.21 0 00-.276-1.295 3.848 3.848 0 00-.729-1.111 3.662 3.662 0 00-1.062-.78 2.943 2.943 0 00-1.302-.297h-6.879v6.851h6.951c.448.004.89-.09 1.293-.275a3.373 3.373 0 001.04-.733c.299-.312.538-.672.705-1.063.175-.41.264-.85.26-1.294v-.003zm-.907-7.97a2.977 2.977 0 00-.251-1.227 2.78 2.78 0 00-.705-.962 3.436 3.436 0 00-1.05-.63 3.653 3.653 0 00-1.314-.23h-6.02v6.233h6.02a3.51 3.51 0 001.3-.24 3.172 3.172 0 001.769-1.684c.17-.4.256-.828.251-1.26zM104.383 8h7.023a4.983 4.983 0 011.828.333c.549.212 1.05.523 1.478.916.424.391.766.858 1.006 1.373.25.545.377 1.135.369 1.73a3.897 3.897 0 01-.573 2.096 4.83 4.83 0 01-1.477 1.524 4.755 4.755 0 012.747 2.967 4.537 4.537 0 01-.144 3.151 4.69 4.69 0 01-.991 1.49 4.77 4.77 0 01-1.493 1.02 4.8 4.8 0 01-1.84.4h-7.957c-.24 0-.359-.107-.359-.32V8.434c0-.29.128-.435.382-.435z" id="Fill-14" fill="#4231C8"/><path d="M124 24.588V8.412c0-.275.217-.412.655-.412h.69c.436 0 .654.137.655.412v16.176c0 .274-.218.412-.655.412h-.69c-.438 0-.655-.138-.655-.412" id="Fill-16" fill="#4231C8"/><g id="Group-20" transform="translate(132 8)"><mask id="mask-4" fill="#fff"><use xlink:href="#path-3"/></mask><path d="M.426.189h11.877a.506.506 0 01.318.106.382.382 0 01.136.318v.52c0 .282-.152.423-.454.423H7.036v15.707c0 .282-.136.424-.409.424H6.15c-.272 0-.408-.142-.408-.424V1.556H.426c-.273 0-.41-.157-.41-.471V.613c0-.283.137-.424.41-.424" id="Fill-18" fill="#4231C8" mask="url(#mask-4)"/></g></g></g></g></svg>