<svg width="111" height="111" xmlns="http://www.w3.org/2000/svg"><defs><radialGradient cx="50%" cy="50%" fx="50%" fy="50%" r="33.692%" gradientTransform="matrix(0 1 -1.0539 0 1.027 0)" id="radialGradient-1"><stop stop-color="#106CFA" offset="0%"/><stop stop-color="#000116" offset="100%"/></radialGradient></defs><g id="Page-1" stroke="none" stroke-width="1" fill="none" fill-rule="evenodd"><g id="Home" transform="translate(-448 -2419)"><g id="Group-5" transform="translate(448 2419)"><circle id="Oval" fill="url(#radialGradient-1)" cx="55.5" cy="55.5" r="55.5"/><g id="Group-17" transform="translate(13 10)"><path id="Stroke-1" stroke="#FFF" stroke-width="2" d="M27 30H8"/><g id="Group-16"><path id="Stroke-2" stroke="#FFF" stroke-width="2" d="M85 29.674H59.425"/><path id="Stroke-4" stroke="#FFF" stroke-width="2" d="M85 21.761H63.256"/><path d="M52.061 37.587c6.618-3.199 11.195-9.957 11.195-17.804C63.256 8.857 54.406 0 43.488 0 32.571 0 23.721 8.857 23.721 19.783c0 7.847 4.578 14.605 11.194 17.804" id="Stroke-6" stroke="#EDC638" stroke-width="2"/><path d="M23.72 21.76H7.908c-4.624 0-8.318 3.971-7.87 8.691.392 4.115 4.08 7.136 8.21 7.136h74.776V91H7.907C3.54 91 0 87.457 0 83.087V29.674" id="Stroke-8" stroke="#FFF" stroke-width="2"/><path id="Stroke-10" stroke="#FFF" stroke-width="2" d="M67.209 37.587v51.435"/><path d="M78.081 63.304a2.966 2.966 0 11-5.93 0 2.966 2.966 0 115.93 0" id="Fill-12" fill="#454545"/><path d="M78.081 63.304a2.966 2.966 0 11-5.93 0 2.966 2.966 0 115.93 0z" id="Stroke-14" stroke="#FFF"/></g></g></g></g></g></svg>