<svg width="1920" height="220" xmlns="http://www.w3.org/2000/svg"><g id="Page-1" stroke="none" stroke-width="1" fill="none" fill-rule="evenodd"><g id="Home" transform="translate(0 -3425)"><g id="Group-Copy" transform="translate(-289 3425)"><path id="Fill-1" fill="#106CFA" opacity=".309" d="M1812.03 28.67L1777.152 0l-74.434 28.67-108.652-24.09-55.56 72.038-96.294-32.918-145.009 77.155-102.089-59.499-102.8 10.01-50.895-25.131-72.46 63.793-41.82-6.736-27.543 24.574-70.299-45.143-187.6 49.282-54.547-28.713-52.22 20.687-115.1-27.833L134 123.287 162.493 194H2222V82.722l-114.45 13.423-96.48-33.192-80.545-16.72-37.658-17.562z"/><path id="Fill-1" fill="#000421" d="M1729.116 40l-133.446 61.838-164.955-8.497-114.772 53.029-237.514-49.82-135.902 33.451-57.345 18.816-67.738-36.203L711.05 155.33l-169.725-25.328-109.037 19.513-133.428-28.018L0 124.698.547 220H2388v-91.311L2270.381 84.85l-95.701 23.493-131.53-15.961-130.402-38.81-94.258 45.146z"/></g></g></g></svg>