<svg width="33" height="38" xmlns="http://www.w3.org/2000/svg"><g id="Page-1" stroke="none" stroke-width="1" fill="none" fill-rule="evenodd"><g id="Home" transform="translate(-1055 -586)" fill="#12133C"><g id="button-/-red" transform="translate(806 580)"><g id="uniswap-uni-logo" transform="translate(249 6)"><path d="M13.349 9.123c-.404-.061-.423-.082-.23-.102.365-.062 1.21.02 1.807.164 1.384.348 2.634 1.249 3.96 2.826l.347.43.5-.081c2.134-.37 4.326-.082 6.152.819.5.246 1.289.737 1.385.86.038.041.096.307.134.574.135.962.077 1.68-.211 2.232-.154.308-.154.39-.058.656a.577.577 0 00.52.348c.46 0 .942-.778 1.172-1.864l.096-.43.173.205c.981 1.167 1.75 2.786 1.866 3.933L31 20l-.173-.266c-.288-.471-.558-.779-.923-1.045-.654-.471-1.346-.614-3.173-.717-1.653-.102-2.595-.246-3.518-.573-1.577-.554-2.384-1.27-4.25-3.913-.826-1.167-1.346-1.802-1.865-2.335-1.134-1.168-2.269-1.782-3.75-2.028z" id="Path" fill-rule="nonzero"/><path d="M27.823 10.993c.042-.735.146-1.219.376-1.664.084-.174.167-.329.188-.329.021 0-.02.135-.083.29-.168.426-.188 1.026-.084 1.703.146.871.21.987 1.212 1.936a32.48 32.48 0 011.213 1.238l.355.426-.355-.31c-.44-.386-1.443-1.122-1.672-1.219-.147-.077-.168-.077-.272.02-.084.077-.105.193-.105.754-.02.871-.146 1.413-.46 1.975-.167.29-.188.232-.041-.097.104-.252.125-.368.125-1.2 0-1.684-.209-2.09-1.484-2.768a16.098 16.098 0 00-1.17-.561c-.335-.135-.586-.252-.565-.252.042-.038 1.275.29 1.756.484.732.271.857.29.94.271.063-.058.105-.213.126-.697zM13.205 13.42c-.793-1.086-1.303-2.772-1.19-4.027L12.054 9l.19.037c.34.057.924.281 1.208.45.755.45 1.095 1.068 1.415 2.604.095.45.227.974.284 1.143.094.28.453.936.755 1.348.207.3.075.45-.397.412-.717-.075-1.68-.73-2.303-1.573zm13.178 9.641C22.406 21.43 21 20.021 21 17.633c0-.347.02-.633.02-.633.02 0 .16.122.342.265.803.653 1.707.94 4.218 1.306 1.466.225 2.31.388 3.073.653 2.43.817 3.936 2.49 4.298 4.756.1.653.04 1.898-.12 2.55-.141.51-.543 1.45-.643 1.47-.02 0-.06-.102-.06-.265-.04-.857-.463-1.674-1.166-2.306-.843-.735-1.928-1.286-4.58-2.368zm-3.031.081c-.04-.3-.138-.681-.197-.841L23.057 22l.177.22c.255.301.452.662.628 1.163.138.38.138.501.138 1.122 0 .602-.02.742-.138 1.083a3.638 3.638 0 01-.825 1.342c-.707.742-1.63 1.143-2.947 1.323-.235.02-.903.08-1.493.12-1.473.08-2.456.24-3.34.562-.118.04-.236.08-.255.06-.04-.04.57-.401 1.06-.642.688-.34 1.396-.52 2.948-.801.766-.12 1.552-.28 1.748-.361 1.945-.621 2.908-2.165 2.594-4.049zm2.166 4.171c-.531-1.098-.654-2.138-.368-3.12.04-.097.082-.193.123-.193.04 0 .163.058.285.135.245.154.756.424 2.063 1.098 1.654.847 2.593 1.502 3.246 2.253.572.655.919 1.406 1.082 2.331.102.52.041 1.772-.102 2.292-.449 1.637-1.47 2.947-2.96 3.698a2.92 2.92 0 01-.43.193c-.02 0 .062-.193.185-.424.49-.982.55-1.926.183-2.985-.224-.655-.694-1.445-1.633-2.774-1.123-1.54-1.389-1.945-1.674-2.504zm-14.114 5.093c1.423-1.209 3.172-2.066 4.788-2.34.692-.116 1.846-.077 2.48.098 1.02.273 1.942.858 2.423 1.58.461.7.673 1.305.884 2.65.077.526.173 1.072.193 1.189.153.702.461 1.247.846 1.54.596.448 1.634.468 2.653.078.173-.059.327-.117.327-.098.038.04-.48.39-.827.566-.48.253-.865.331-1.384.331-.923 0-1.712-.487-2.346-1.462-.135-.195-.404-.76-.635-1.286-.673-1.58-1.019-2.047-1.807-2.573-.692-.449-1.577-.546-2.25-.215-.884.43-1.115 1.58-.5 2.28.25.293.712.527 1.096.586.712.097 1.327-.468 1.327-1.19 0-.467-.173-.74-.634-.954-.616-.273-1.289.039-1.27.643 0 .253.116.41.366.526.154.078.154.078.038.059-.557-.117-.692-.82-.25-1.267.539-.546 1.673-.312 2.058.448.154.312.173.935.038 1.325-.327.858-1.25 1.306-2.192 1.053-.634-.176-.904-.351-1.673-1.15-1.346-1.404-1.865-1.676-3.788-1.969L11 32.796l.404-.39z" id="Path" fill-rule="nonzero"/><path d="M.667.838c4.569 5.516 11.608 14.093 11.96 14.56.295.39.177.76-.313 1.034-.275.156-.843.312-1.118.312-.313 0-.686-.156-.94-.41-.177-.175-.942-1.286-2.667-3.957a252.694 252.694 0 00-2.451-3.762c-.079-.039-.079-.039 2.313 4.21 1.51 2.671 2 3.626 2 3.743 0 .254-.078.39-.392.74-.53.586-.765 1.248-.941 2.632-.196 1.54-.725 2.632-2.235 4.484-.882 1.091-1.02 1.286-1.235 1.734-.275.546-.353.858-.392 1.56-.04.74.039 1.208.254 1.91.196.624.412 1.033.942 1.832.45.702.725 1.228.725 1.423 0 .156.04.156.745 0 1.686-.39 3.078-1.053 3.843-1.871.47-.507.588-.78.588-1.482 0-.448-.02-.545-.137-.818-.196-.43-.569-.78-1.373-1.326-1.058-.72-1.51-1.306-1.627-2.085-.098-.663.02-1.111.608-2.34.608-1.266.765-1.793.863-3.08.058-.818.156-1.15.392-1.403.255-.272.47-.37 1.078-.448 1-.136 1.647-.39 2.157-.877.45-.41.647-.819.666-1.423l.02-.448-.255-.273C12.824 13.956.06 0 .001 0c-.02 0 .294.37.666.838zm6.02 27.718a.802.802 0 00-.255-1.072c-.333-.215-.843-.117-.843.175 0 .078.039.156.157.195.176.098.196.195.058.41-.137.214-.137.409.04.545.274.215.647.098.843-.253zm8.339-9.519c-.44.105-.86.494-.989.884-.073.24-.036.674.092.81.201.209.385.269.897.269 1.008 0 1.869-.36 1.96-.794.092-.36-.293-.855-.824-1.08-.275-.12-.842-.164-1.136-.09zm1.173.749c.146-.18.091-.375-.183-.51-.495-.254-1.246-.045-1.246.345 0 .195.385.405.751.405.238 0 .568-.12.678-.24z" id="Shape"/></g></g></g></g></svg>