<svg width="193" height="49" xmlns="http://www.w3.org/2000/svg" xmlns:xlink="http://www.w3.org/1999/xlink"><defs><path id="path-1" d="M0 .727h18.534v42.586H0z"/><path id="path-3" d="M.781.618h15.92V20.72H.78z"/></defs><g id="Page-1" stroke="none" stroke-width="1" fill="none" fill-rule="evenodd"><g id="Home" transform="translate(-349 -1981)"><g id="uniswap" transform="translate(349 1981)"><path d="M15.465 12.156c1.974.314 3.487 1.096 4.999 2.581.694.678 1.385 1.486 2.488 2.971 2.486 3.364 3.564 4.276 5.666 4.981 1.23.417 2.486.6 4.69.73 2.436.13 3.36.314 4.232.912.487.34.845.73 1.23 1.33L39 26l-.05-.392c-.155-1.46-1.18-3.519-2.488-5.005l-.23-.26-.127.546c-.309 1.383-.95 2.373-1.566 2.373-.282 0-.589-.182-.69-.443-.13-.34-.13-.443.075-.835.385-.703.462-1.615.283-2.84-.052-.34-.129-.679-.18-.73-.128-.157-1.18-.782-1.845-1.096-2.437-1.147-5.36-1.512-8.205-1.042l-.667.103-.46-.546c-1.77-2.008-3.437-3.155-5.283-3.599-.795-.182-1.923-.286-2.41-.208-.256.026-.23.052.308.13" id="Fill-1" fill="#FF007A"/><path d="M33.315 16.534c1.7.872 1.979 1.393 1.979 3.558 0 1.07-.029 1.22-.168 1.542-.195.423-.167.498.057.125.417-.722.585-1.418.612-2.538 0-.722.028-.871.139-.97.14-.125.167-.125.364-.025.306.124 1.643 1.07 2.228 1.567l.474.398-.474-.547a42.108 42.108 0 00-1.616-1.592c-1.339-1.219-1.421-1.369-1.616-2.488-.14-.872-.111-1.643.111-2.19.084-.199.139-.374.111-.374-.027 0-.138.2-.25.423-.307.573-.446 1.194-.502 2.14-.027.623-.084.822-.168.896-.11.024-.278 0-1.253-.348-.64-.25-2.285-.672-2.341-.622-.028 0 .307.15.754.324a21.55 21.55 0 011.56.72" id="Fill-3" fill="#FF007A"/><path d="M20.386 20.993c.59.049.754-.15.495-.55-.377-.55-.826-1.423-.944-1.799-.07-.224-.235-.923-.354-1.523-.401-2.048-.826-2.872-1.77-3.471-.353-.225-1.085-.526-1.51-.6l-.237-.05-.046.524c-.142 1.674.495 3.922 1.486 5.37.78 1.124 1.983 1.999 2.88 2.099" id="Fill-5" fill="#FF007A"/><path d="M32.725 24c-3.14-.468-4.269-.831-5.273-1.662-.226-.183-.403-.338-.427-.338 0 0-.025.363-.025.805 0 3.039 1.757 4.832 6.728 6.91 3.314 1.375 4.67 2.076 5.725 3.012.878.805 1.406 1.845 1.456 2.935 0 .207.05.338.077.338.125-.027.627-1.221.803-1.871.2-.831.275-2.416.15-3.246-.452-2.884-2.335-5.014-5.373-6.053-.954-.337-2.01-.544-3.841-.83" id="Fill-7" fill="#FF007A"/><path d="M19.343 36.916c1.179-.413 2.489-.618 4.453-.723.786-.05 1.677-.128 1.99-.153 1.756-.233 2.987-.747 3.931-1.702a4.667 4.667 0 001.1-1.727c.157-.436.183-.616.183-1.39 0-.798 0-.953-.183-1.442-.237-.645-.499-1.109-.84-1.494L29.744 28l.13.387c.079.206.21.695.262 1.082.42 2.423-.863 4.406-3.456 5.205-.264.102-1.31.31-2.333.463-2.069.36-3.011.593-3.929 1.031-.654.308-1.466.773-1.415.825.028.026.185-.026.341-.077" id="Fill-9" fill="#FF007A"/><path d="M35.951 46c.025 0 .234-.102.49-.257 1.705-1.001 2.87-2.748 3.385-4.93.163-.693.233-2.364.116-3.057-.187-1.233-.583-2.235-1.236-3.107-.748-1.003-1.82-1.876-3.711-3.006-1.493-.899-2.077-1.258-2.358-1.465-.139-.102-.28-.178-.326-.178-.046 0-.093.128-.14.257-.326 1.31-.187 2.696.42 4.16.327.744.63 1.285 1.914 3.339 1.074 1.773 1.61 2.826 1.867 3.7.42 1.412.35 2.67-.21 3.98-.14.307-.234.564-.21.564" id="Fill-11" fill="#FF007A"/><path d="M21.896 42.933c-.589.561-.41 1.437.333 1.584.155.024.155.024-.05-.073-.335-.147-.488-.341-.488-.657-.026-.756.872-1.147 1.692-.806.615.268.846.61.846 1.195 0 .9-.82 1.609-1.768 1.486-.513-.073-1.129-.366-1.462-.73-.821-.877-.513-2.316.666-2.852.898-.413 2.077-.29 3 .269 1.051.658 1.512 1.242 2.41 3.216.308.658.666 1.364.846 1.608C28.767 48.39 29.818 49 31.049 49c.692 0 1.205-.099 1.845-.414.462-.22 1.154-.658 1.103-.706 0-.025-.206.048-.435.121-1.36.488-2.745.462-3.54-.098-.51-.365-.921-1.047-1.127-1.924-.026-.146-.153-.828-.255-1.486-.283-1.682-.565-2.436-1.18-3.314-.64-.901-1.873-1.632-3.23-1.973-.847-.22-2.386-.268-3.308-.123-2.153.341-4.486 1.414-6.384 2.925l-.538.487.486.073c2.565.365 3.257.706 5.051 2.46 1.026 1 1.385 1.22 2.231 1.437 1.256.319 2.486-.242 2.922-1.314.18-.488.154-1.267-.05-1.657-.513-.95-2.027-1.244-2.744-.56" id="Fill-13" fill="#FF007A"/><g id="Group-17"><mask id="mask-2" fill="#fff"><use xlink:href="#path-1"/></mask><path d="M8.852 37.577c-.26.452-.752.604-1.117.327-.233-.176-.233-.427-.05-.704.18-.277.155-.403-.079-.528-.156-.05-.207-.152-.207-.253 0-.376.674-.502 1.115-.225.467.302.623.905.338 1.383m6.177 1.258c0-.579-.027-.705-.181-1.057-.26-.553-.754-1.005-1.818-1.71-1.4-.93-1.997-1.685-2.154-2.692-.13-.855.026-1.434.805-3.018.804-1.635 1.013-2.314 1.142-3.975.078-1.056.207-1.483.52-1.81.337-.353.622-.478 1.427-.578 1.324-.176 2.18-.503 2.854-1.133.598-.528.857-1.056.883-1.836l.027-.579-.34-.352C16.977 18.737.08.727.002.727c-.025 0 .389.479.883 1.082C6.93 8.928 16.25 19.995 16.716 20.6c.39.503.234.981-.415 1.333-.364.201-1.116.402-1.479.402-.415 0-.91-.2-1.245-.528-.235-.226-1.248-1.66-3.53-5.107a345.49 345.49 0 00-3.245-4.854c-.104-.05-.104-.05 3.061 5.433 2 3.447 2.65 4.68 2.65 4.83 0 .326-.106.504-.521.956-.7.755-1.012 1.61-1.246 3.396-.26 1.986-.96 3.395-2.958 5.785-1.168 1.408-1.35 1.66-1.635 2.238-.364.706-.468 1.107-.52 2.013-.052.955.052 1.56.337 2.464.26.806.546 1.334 1.247 2.365.598.906.96 1.584.96 1.837 0 .201.052.201.987 0 2.232-.504 4.075-1.36 5.086-2.416.623-.654.78-1.006.78-1.91" id="Fill-15" fill="#FF007A" mask="url(#mask-2)"/></g><path d="M20.932 25.179c-.147.18-.586.359-.904.359-.487 0-1.001-.314-1.001-.606 0-.585 1-.9 1.66-.517.367.201.44.494.245.764m1.05.629c.122-.54-.391-1.282-1.1-1.618-.366-.18-1.122-.247-1.514-.135-.586.157-1.146.742-1.319 1.327-.097.36-.048 1.011.123 1.212.269.316.513.406 1.196.406 1.343 0 2.491-.54 2.614-1.192" id="Fill-18" fill="#FF007A"/><path d="M61.585 21.019c2.158.121 2.952.494 3.063 1.869.06.871.15 1.975.15 4.293V30.7c0 4.683-1.498 7.33-5.34 7.33-3.372 0-5.183-2.288-5.183-6.016v-7.837c0-2.747.261-2.966 2.582-3.157V20H48v1.019c2.34.211 2.602.41 2.602 3.157v7.635c0 3.423.857 5.342 2.633 6.687C54.624 39.6 56.577 40 58.488 40c2.126 0 4.241-.57 5.643-2.024 1.734-1.816 2.135-4.338 2.135-7.095v-3.7c0-2.337.062-3.445.132-4.274.1-1.188.676-1.729 2.602-1.888V20h-7.415v1.019z" id="Fill-20" fill="#FF007A"/><path d="M85.395 21.026c2.523.15 3.092.714 3.184 2.036.093 1.047.134 2.153.134 4.851v6.142L76.518 20H71v1.026c1.369.131 2.075.255 2.64 1.012.574.745.635 1.347.635 2.294v7.37c0 2.676-.06 3.864-.174 4.911-.163 1.445-.921 1.9-2.73 2.05v1.026h7.58v-1.026c-2.256-.141-2.944-.754-3.046-2.16-.082-.88-.153-2.125-.153-4.792v-7.098L88.708 40h1.53V27.913c0-2.698.082-3.813.153-4.92.092-1.374.7-1.736 2.609-1.967V20h-7.605v1.026z" id="Fill-22" fill="#FF007A"/><path d="M97 21.042c2.366.217 2.65.42 2.65 3.027v11.895c0 2.594-.265 2.757-2.65 2.994V40h9v-1.042c-2.396-.256-2.662-.41-2.662-2.994V24.069c0-2.608.287-2.79 2.662-3.027V20h-9v1.042z" id="Fill-24" fill="#FF007A"/><path d="M117.684 28.598c-2.635-1.35-3.842-2.391-3.842-4.245 0-1.689 1.045-3.13 3.03-3.13 2.834 0 3.689 2.172 4.268 4.173l1.087-.246a321.57 321.57 0 01-.548-4.583c-.663-.104-2.285-.567-4.253-.567-4.392 0-6.813 2.578-6.813 5.652 0 3.099 1.983 4.622 5.172 6.365 2.61 1.424 3.763 2.443 3.763 4.442 0 1.991-1.205 3.298-3.188 3.298-3.059 0-4.642-3.135-5.253-5.126l-1.107.267c.214 1.53.68 4.356.885 5.122 1.372.454 3.06.98 4.974.98 4.22 0 7.141-2.594 7.141-6.103 0-3.019-1.907-4.562-5.316-6.299" id="Fill-26" fill="#FF007A"/><path d="M155 20h-7.222v1.025c2.59.243 2.871.735 2.437 2.509-.508 2.042-2.054 7.211-3.227 10.743-1.696-4.67-3.409-9.274-5.084-14.083h-1.38a309.489 309.489 0 01-4.61 14.055c-1.083-3.638-2.193-7.347-3.255-11.038-.424-1.554-.364-1.965 1.894-2.186V20H126v1.025c1.887.191 2.3.642 3.067 2.995 1.673 5.334 3.535 11.385 4.85 15.98h1.49c1.474-4.483 3.082-9.164 4.718-13.956 1.671 4.516 3.502 9.472 5.055 13.956h1.461c1.823-5.907 4.144-13.26 5.004-15.832.837-2.482 1.198-2.86 3.355-3.143V20z" id="Fill-28" fill="#FF007A"/><path d="M160.468 31.872c.798-2.262 1.695-4.534 2.59-6.849l2.442 6.85h-5.032zm10.214 3.908A1641.008 1641.008 0 01164.83 20l-1.262.239-6.19 15.655c-1.024 2.595-1.5 2.845-3.378 3.086V40h7.194v-1.02c-2.384-.243-2.996-.484-2.36-2.402.34-1.04.768-2.194 1.149-3.276h6.03c.51 1.447 1.029 2.856 1.358 3.854.417 1.242.333 1.562-1.565 1.824V40H174v-1.02c-2-.241-2.267-.464-3.318-3.2z" id="Fill-30" fill="#FF007A"/><g id="Group-34" transform="translate(176 19)"><mask id="mask-4" fill="#fff"><use xlink:href="#path-3"/></mask><path d="M7.077 3.262c0-.593.072-.924.294-1.12.182-.178.642-.332 1.363-.332 2.174 0 4.141 1.22 4.141 4.662 0 4.018-2.36 4.928-3.978 4.928-.775 0-1.456-.155-1.82-.341V3.262zm1.875 9.516c.204.032.565.062.88.062 3.116-.02 6.87-1.885 6.87-6.38 0-2.102-.84-3.574-2.24-4.553-1.242-.867-3.03-1.29-5.344-1.29H.781v1.048c2.32.187 2.632.39 2.632 3.042v11.976c0 2.585-.24 2.711-2.632 2.99v1.047h9.2v-1.047c-2.693-.269-2.904-.37-2.904-2.97v-4.42l1.875.495z" id="Fill-32" fill="#FF007A" mask="url(#mask-4)"/></g></g></g></g></svg>