<svg xmlns="http://www.w3.org/2000/svg" width="1453.096" height="393"><g data-name="CFVI Logo - Green"><path data-name="Combined Shape" d="M1261.98 392.5l69.759-392H1452.5l-69.174 392zm-409.053-43.232L737.2 124.246h144.453l66.429 132.22L1174.165.5h141.3l-309.14 348.768c-20.177 22.476-47.284 43.232-84.762 43.232-35.776 0-55.954-19.014-68.636-43.232zm-476.2 36.895L445.366.5h374.3l50.782 100.311H546.871l-8.652 50.158h186.37l48.325 93.956H521.487l-24.8 141.237zm-175.532 0C80.659 386.163.5 313.53.5 216.109.5 89.29 121.612.5 269.255.5h152.29l-17.853 100.312H251.38c-70.947 0-130.922 45.541-130.922 106.653 0 47.848 39.8 79.538 98.041 79.538h152.06l-17.645 99.16z" fill="none" stroke="rgba(255,255,255,0.11)" stroke-miterlimit="10"/></g></svg>