<svg data-name="CFVI Logo - Green" xmlns="http://www.w3.org/2000/svg" width="148.095" height="40"><path data-name="Combined Shape" d="M128.663 40l7.115-40H148.1l-7.056 40zm-41.721-4.411l-11.8-22.962h14.73l6.775 13.492L119.706 0h14.412l-31.53 35.589C100.53 37.882 97.765 40 93.943 40a7.426 7.426 0 01-7.001-4.411zm-48.569 3.764L45.374 0H83.55l5.179 10.236h-33l-.882 5.118h19.005l4.929 9.588H53.138l-2.53 14.412zm-17.9 0C8.176 39.353 0 31.942 0 22 0 9.06 12.352 0 27.411 0h15.533l-1.821 10.236H25.588c-7.236 0-13.353 4.648-13.353 10.883 0 4.883 4.059 8.116 10 8.116h15.508l-1.8 10.119z" fill="#fff"/></svg>