<svg xmlns="http://www.w3.org/2000/svg" width="1997.096" height="540"><g data-name="CFVI Logo - Green"><path data-name="Combined Shape" d="M1734.6 539.5l95.9-539h166l-95.091 539zm-562.307-59.444L1013.212 170.65h198.571l91.317 181.8L1613.885.5h194.242l-424.962 479.556c-27.738 30.9-65 59.444-116.52 59.444-49.18 0-76.918-26.145-94.351-59.444zm-654.606 50.73L612.038.5h514.533l69.809 137.93H751.573l-11.894 68.97h256.193l66.428 129.186H716.678l-34.087 194.2zm-241.3 0C110.692 530.786.5 430.916.5 296.963.5 122.588 166.987.5 369.946.5h209.347l-24.542 137.93H345.373c-97.527 0-179.973 62.619-179.973 146.647 0 65.791 54.707 109.365 134.773 109.365H509.2l-24.254 136.344z" fill="none" stroke="rgba(255,255,255,0.11)" stroke-miterlimit="10"/></g></svg>