<svg xmlns="http://www.w3.org/2000/svg" width="64" height="64"><path d="M42.667 56H48a8 8 0 008-8v-5.333" fill="none" stroke="#fff" stroke-linecap="round" stroke-linejoin="round" stroke-miterlimit="10" stroke-width="3"/><path data-name="Path" d="M42.667 8H48a8 8 0 018 8v5.333M8 42.667V48a8 8 0 008 8h5.333M8 21.333V16a8 8 0 018-8h5.333m15.334 21.333l-5.334 5.333L28 31.333" fill="none" stroke="#fff" stroke-linecap="round" stroke-linejoin="round" stroke-miterlimit="10" stroke-width="3"/><path data-name="Path" d="M18.667 24v16A5.333 5.333 0 0024 45.333h16A5.333 5.333 0 0045.333 40V24A5.333 5.333 0 0040 18.667H24A5.333 5.333 0 0018.667 24z" fill="none" stroke="#fff" stroke-linecap="round" stroke-linejoin="round" stroke-miterlimit="10" stroke-width="3"/><path data-name="Path" d="M0 64V0h64v64z" fill="none"/></svg>