<svg xmlns="http://www.w3.org/2000/svg" width="50.003" height="50"><g data-name="Group 4" fill="#fff"><path d="M25 0A25.03 25.03 0 000 25a25.03 25.03 0 0025 25 25.029 25.029 0 0025-25A25.029 25.029 0 0025 0zm0 45.455A20.478 20.478 0 014.548 25 20.477 20.477 0 0125 4.546 20.476 20.476 0 0145.455 25 20.477 20.477 0 0125 45.454z"/><path d="M28.308 22.723h-6.612a2.99 2.99 0 01-2.991-2.983 2.991 2.991 0 012.991-2.991h11.877v-4.546h-6.3V8.611h-4.545v3.593h-1.034a7.545 7.545 0 00-7.533 7.537 7.538 7.538 0 007.535 7.528h6.612A3 3 0 0131.3 30.26a2.992 2.992 0 01-2.992 2.991H16.432v4.546h6.3v3.592h4.545v-3.592h1.034a7.546 7.546 0 007.536-7.537 7.546 7.546 0 00-7.536-7.537"/></g></svg>