<svg xmlns="http://www.w3.org/2000/svg" width="51.071" height="51.096"><g fill="none" stroke="#fff" stroke-linecap="round" stroke-linejoin="round" stroke-miterlimit="10" stroke-width="3"><path d="M19.322 31.772a3.624 3.624 0 11-5.125 0 3.624 3.624 0 015.125 0"/><path data-name="Path" d="M21.473 19.383l2.445.816a1.374 1.374 0 01.939 1.3v2.345a2.449 2.449 0 002.398 2.448l2.219.048a1.37 1.37 0 011.2.757l1.152 2.3a1.375 1.375 0 01-.256 1.584l-1.665 1.661a2.449 2.449 0 00-.037 3.424l1.533 1.6a1.366 1.366 0 01.309 1.381l-.816 2.445a1.374 1.374 0 01-1.3.939h-2.345a2.449 2.449 0 00-2.448 2.398l-.046 2.218a1.37 1.37 0 01-.757 1.2l-2.3 1.152a1.375 1.375 0 01-1.584-.256l-1.659-1.661a2.449 2.449 0 00-3.424-.037l-1.6 1.533a1.366 1.366 0 01-1.381.309l-2.445-.816a1.374 1.374 0 01-.939-1.3v-2.342a2.449 2.449 0 00-2.401-2.451l-2.216-.049a1.371 1.371 0 01-1.2-.757l-1.152-2.3a1.375 1.375 0 01.258-1.588l1.659-1.655a2.449 2.449 0 00.041-3.425l-1.533-1.6a1.366 1.366 0 01-.309-1.381l.812-2.448a1.374 1.374 0 011.3-.939H6.27a2.449 2.449 0 002.448-2.394l.048-2.219a1.37 1.37 0 01.757-1.2l2.3-1.152a1.375 1.375 0 011.589.258l1.656 1.659a2.449 2.449 0 003.424.037l1.6-1.533a1.37 1.37 0 011.381-.309zm19.336 2.859l2.123-.571a1.133 1.133 0 00.824-.912l.4-2.477a1.693 1.693 0 011.4-1.4l2.475-.4a1.133 1.133 0 00.912-.824l.571-2.123a1.132 1.132 0 00-.379-1.171l-1.945-1.589a1.7 1.7 0 01-.512-1.909l.893-2.352a1.13 1.13 0 00-.259-1.2l-1.554-1.555a1.135 1.135 0 00-1.2-.259l-3.491 1.321-2.357-2.883a1.133 1.133 0 00-1.171-.379l-2.122.571a1.133 1.133 0 00-.824.912l-.403 2.479a1.693 1.693 0 01-1.393 1.4l-2.475.4a1.133 1.133 0 00-.912.824l-.575 2.121a1.137 1.137 0 00.376 1.171l1.942 1.584a1.691 1.691 0 01.509 1.909l-.893 2.352a1.13 1.13 0 00.259 1.2l1.555 1.555a1.135 1.135 0 001.2.259l2.355-.893a1.687 1.687 0 011.907.512l1.589 1.944a1.139 1.139 0 001.173.379z"/></g></svg>