<svg xmlns="http://www.w3.org/2000/svg" width="33.741" height="50"><path d="M16.876 0a1.876 1.876 0 00-1.621.933 50.122 50.122 0 01-6.19 7.824l-.051.056a49.674 49.674 0 00-6.452 8.3A18.616 18.616 0 00.017 27.447 15.6 15.6 0 003.423 36.6a16.148 16.148 0 007.994 5.4 18.5 18.5 0 004.325.754v.041a5.019 5.019 0 01-4.948 4.956 1.126 1.126 0 00-1.126 1.124A1.126 1.126 0 0010.793 50a7.148 7.148 0 005.08-2.125A7.148 7.148 0 0018 42.795v-.036A18.806 18.806 0 0022.323 42a16.177 16.177 0 008-5.408 15.571 15.571 0 003.4-9.141A18.617 18.617 0 0031.18 17.12a49.705 49.705 0 00-6.455-8.313 50.643 50.643 0 01-6.212-7.83l-.022-.043a1.964 1.964 0 00-.682-.682A1.867 1.867 0 0016.876 0zm-1.135 39a15 15 0 01-3.236-.58 12.2 12.2 0 01-8.737-11.125c-.27-6.747 3.657-11.109 7.814-15.727l.226-.251a72.109 72.109 0 005.064-6.023 72.777 72.777 0 005.058 6.023l.252.28c4.152 4.611 8.073 8.966 7.8 15.7a12.2 12.2 0 01-8.736 11.124 15.024 15.024 0 01-3.246.586V28.55l7.009-7.017a1.12 1.12 0 00.332-.8 1.12 1.12 0 00-.332-.8 1.086 1.086 0 00-.789-.332 1.124 1.124 0 00-.8.332L18 25.357V13.42a1.129 1.129 0 00-1.125-1.131 1.133 1.133 0 00-1.132 1.131v17.191l-5.42-5.413a1.107 1.107 0 00-.8-.332 1.126 1.126 0 00-.8.332 1.115 1.115 0 00-.327.795 1.115 1.115 0 00.327.795l7.018 7.012z" fill="#fff"/></svg>