<svg xmlns="http://www.w3.org/2000/svg" width="34.847" height="50"><g data-name="Group 5" fill="#fff"><path d="M17.427 0A17.445 17.445 0 000 17.424a17.517 17.517 0 008.636 15.048v7.7h17.573v-7.7a17.519 17.519 0 008.638-15.049A17.441 17.441 0 0017.427 0zm-4.475 35.858v-6.032l-1.218-.589a13.188 13.188 0 01-7.42-11.814A13.126 13.126 0 0117.427 4.314a13.122 13.122 0 0113.1 13.109 13.2 13.2 0 01-7.42 11.814l-1.218.589v6.032zM10.798 46.6h4.467V50h4.315v-3.4h4.475v-4.318H10.798V46.6"/><path d="M21.293 14.047a5.969 5.969 0 00-3.866 1.409 6.02 6.02 0 00-3.874-1.409 6.03 6.03 0 00-6.02 6.026h4.308a1.713 1.713 0 011.712-1.712 1.713 1.713 0 011.712 1.712h4.315a1.713 1.713 0 011.713-1.712 1.713 1.713 0 011.712 1.712h4.315a6.031 6.031 0 00-6.027-6.026"/></g></svg>