<svg data-name="Money, Banknoteб Уну" xmlns="http://www.w3.org/2000/svg" width="64" height="64"><path d="M0 0h64v64H0z" fill="none"/><path data-name="Path" d="M26.666 42.4H10.4a5.064 5.064 0 01-5.067-5.067V13.067A5.064 5.064 0 0110.4 8h40.533A5.064 5.064 0 0156 13.067V32" fill="none" stroke="#fff" stroke-linecap="round" stroke-linejoin="round" stroke-miterlimit="10" stroke-width="3"/><path data-name="Path" d="M35.144 21.256a6.334 6.334 0 11-8.957 0 6.337 6.337 0 018.957 0m1.019 27.56a3.92 3.92 0 010-4.293c2.64-3.99 6.784-7.19 10.931-7.19s8.288 3.2 10.929 7.187a3.91 3.91 0 010 4.293C55.378 52.802 51.236 56 47.092 56s-8.289-3.195-10.929-7.184z" fill="none" stroke="#fff" stroke-linecap="round" stroke-linejoin="round" stroke-miterlimit="10" stroke-width="3"/><path data-name="Path" d="M47.402 46.357a.441.441 0 11-.624 0 .439.439 0 01.624 0M16 34.666h-2.667M48 16h-2.667" fill="none" stroke="#fff" stroke-linecap="round" stroke-linejoin="round" stroke-miterlimit="10" stroke-width="3"/></svg>