<svg data-name="Group 6" xmlns="http://www.w3.org/2000/svg" width="49.999" height="50"><path d="M38.543 0a15.24 15.24 0 00-11.97 5.339l-7.526 9.018-13.576-.655L0 24.06l21.66 21.664L25.94 50l10.36-5.476-.654-13.569 9.018-7.528c6.342-5.3 6.469-14.3 3.316-20.453l-.323-.628-.628-.323A18.946 18.946 0 0038.543 0zm-24.91 27.679l16.3-19.531a10.94 10.94 0 018.6-3.78 14.4 14.4 0 015.842 1.25c1.937 4.32 1.972 10.684-2.53 14.444L22.313 36.367l2.812 3.365 6.291-5.255.362 7.474-5.037 2.66-5.091-5.091-4.042-4.037 8.1-8.1-3.1-3.1-8.1 8.1-9.129-9.136 2.657-5.035 7.478.36-5.255 6.3 3.364 2.808z" fill="#fff"/><path d="M34.875 9.531a5.659 5.659 0 00-3.992 1.6 5.656 5.656 0 000 7.986 5.612 5.612 0 003.992 1.654 5.606 5.606 0 003.992-1.654 5.657 5.657 0 000-7.988 5.669 5.669 0 00-3.992-1.598zm0 6.845a1.274 1.274 0 01-.895-.356 1.267 1.267 0 010-1.788 1.258 1.258 0 01.894-.368 1.256 1.256 0 01.895.368 1.267 1.267 0 010 1.788 1.271 1.271 0 01-.893.351zm-23.722 24.05H9.144v-2.011a2 2 0 01.592-1.419l-3.1-3.1a6.36 6.36 0 00-1.877 4.519v6.393h6.394a6.362 6.362 0 004.518-1.875l-3.1-3.1a2 2 0 01-1.419.595" fill="#fff"/></svg>