<svg xmlns="http://www.w3.org/2000/svg" width="64" height="64"><g transform="translate(10.64 8)" fill="none" stroke="#fff" stroke-linecap="round" stroke-linejoin="round" stroke-miterlimit="10" stroke-width="3"><path d="M10.693 5.333h-5.36A5.315 5.315 0 000 10.666h0v32h0a5.309 5.309 0 005.333 5.307h13.334"/><rect width="21.333" height="10.667" rx="1" transform="translate(10.693)"/><path data-name="Path" d="M32.027 5.333h5.307a5.309 5.309 0 015.333 5.307v8m-6.641 8.027h-.027A11.987 11.987 0 1123.973 38.64h0a11.984 11.984 0 0111.973-12.029h0"/><path data-name="Path" d="M40.107 36.56l-5.12 5.093-3.067-3.066"/></g><path data-name="Path" d="M0 0h64v64H0z" fill="none"/></svg>