<svg width="248" height="56" fill="none" xmlns="http://www.w3.org/2000/svg"><path d="M.736 20.808c0 4.8 3.36 8.672 8.16 8.672 2.24 0 4.16-.992 5.376-2.336h.064V29h5.6V12.584h-5.664v1.568c-1.344-1.312-3.168-2.048-5.376-2.048-4.8 0-8.16 3.904-8.16 8.704zm6.016 0c0-2.272 1.696-3.872 3.84-3.872 2.112 0 3.808 1.6 3.808 3.872 0 2.24-1.6 3.84-3.808 3.84-2.304 0-3.84-1.6-3.84-3.84zM24.564 29h5.664v-9.28c0-1.632 1.664-3.2 3.36-3.2 1.824 0 2.944 1.568 2.944 3.2V29h5.664V18.184c0-4.576-4.192-6.08-7.2-6.08-1.792 0-3.424.928-4.704 2.208h-.064v-1.728h-5.664V29zm20.772-8.192c0 4.8 3.36 8.672 8.16 8.672 2.24 0 4.16-.992 5.376-2.336h.064V29h5.6V1.48h-5.664v12.672c-1.344-1.312-3.168-2.048-5.376-2.048-4.8 0-8.16 3.904-8.16 8.704zm6.016 0c0-2.272 1.696-3.872 3.84-3.872 2.112 0 3.808 1.6 3.808 3.872 0 2.24-1.6 3.84-3.808 3.84-2.304 0-3.84-1.6-3.84-3.84zM69.164 29h5.664v-8.64c0-.416.416-3.328 3.36-3.328 1.888 0 2.944.896 2.944.896l2.368-4.8s-1.472-1.024-3.584-1.024c-3.232 0-5.024 2.848-5.024 2.848h-.064v-2.368h-5.664V29zm33.158-7.424c.032-.192.032-.544.032-.768 0-5.76-3.808-8.704-8.8-8.704-4.96 0-9.024 3.904-9.024 8.704 0 4.768 4.064 8.672 9.024 8.672 3.648 0 6.656-1.184 8.512-4.288l-4.096-2.048c-1.376 1.472-2.176 1.824-4 1.824-1.44 0-3.552-.864-3.552-3.392h11.904zM90.578 18.44c.096-1.504 1.184-2.656 3.136-2.656 1.664 0 2.848.928 3.104 2.656h-6.24zm33.969-5.856h-7.36l-5.728 5.728V1.48h-5.664V29h5.664v-6.56l6.56 6.56h7.296l-8.576-8.576 7.808-7.84zm.739 8.224c0 4.8 3.36 8.672 8.16 8.672 2.24 0 4.16-.992 5.376-2.336h.064V29h5.6V12.584h-5.664v1.568c-1.344-1.312-3.168-2.048-5.376-2.048-4.8 0-8.16 3.904-8.16 8.704zm6.016 0c0-2.272 1.696-3.872 3.84-3.872 2.112 0 3.808 1.6 3.808 3.872 0 2.24-1.6 3.84-3.808 3.84-2.304 0-3.84-1.6-3.84-3.84zM161.576 2.44a3.36 3.36 0 100 6.72 3.36 3.36 0 000-6.72zm-2.912 10.144h5.664v18.944c0 2.912-1.408 6.272-5.92 6.272-2.688 0-3.712-.672-4.512-1.024l1.76-4.576s.736.48 1.44.48c.96 0 1.568-.704 1.568-2.24V12.584zm9.116 8.224c0 4.8 3.36 8.672 8.16 8.672 2.24 0 4.16-.992 5.376-2.336h.064V29h5.6V12.584h-5.664v1.568c-1.344-1.312-3.168-2.048-5.376-2.048-4.8 0-8.16 3.904-8.16 8.704zm6.016 0c0-2.272 1.696-3.872 3.84-3.872 2.112 0 3.808 1.6 3.808 3.872 0 2.24-1.6 3.84-3.808 3.84-2.304 0-3.84-1.6-3.84-3.84zm24.823-8.704c-4.32 0-7.168 1.92-7.168 5.28 0 2.464 1.664 3.616 3.328 4.48 1.856.96 3.648 1.056 3.648 2.24 0 1.088-.96 1.184-1.76 1.184-1.824 0-4.064-1.888-4.064-1.888l-2.304 3.872s2.368 2.208 6.336 2.208c3.36 0 7.776-.768 7.776-5.6 0-3.36-2.816-4.576-4.992-5.248-1.409-.448-2.56-.704-2.56-1.568 0-.768.512-.992 1.76-.992 1.728 0 3.648 1.024 3.648 1.024l1.856-3.712s-2.336-1.28-5.504-1.28zm26.022 9.472c.032-.192.032-.544.032-.768 0-5.76-3.808-8.704-8.8-8.704-4.96 0-9.024 3.904-9.024 8.704 0 4.768 4.064 8.672 9.024 8.672 3.648 0 6.656-1.184 8.512-4.288l-4.096-2.048c-1.376 1.472-2.176 1.824-4 1.824-1.44 0-3.552-.864-3.552-3.392h11.904zm-11.744-3.136c.096-1.504 1.184-2.656 3.136-2.656 1.664 0 2.848.928 3.104 2.656h-6.24zm33.969-5.856h-7.36l-5.728 5.728V1.48h-5.664V29h5.664v-6.56l6.56 6.56h7.296l-8.576-8.576 7.808-7.84zM19.18 52v-5.78l-2.57 4.49h-.44l-2.58-4.49V52h-.7v-7.1h.72l2.77 4.86 2.79-4.86h.71V52h-.7zm8.37.05c-.56 0-1.034-.1-1.42-.3-.38-.2-.687-.47-.92-.81-.234-.34-.4-.72-.5-1.14a5.77 5.77 0 01-.15-1.32V44.9h.69v3.58c0 .373.036.737.11 1.09.08.347.206.66.38.94.173.28.406.503.7.67.293.16.66.24 1.1.24.453 0 .826-.083 1.12-.25.3-.167.536-.39.71-.67a2.88 2.88 0 00.36-.95c.073-.353.11-.71.11-1.07V44.9h.7v3.58c0 .473-.054.927-.16 1.36a3.3 3.3 0 01-.52 1.14c-.234.333-.54.597-.92.79-.38.187-.844.28-1.39.28zm11.808-5.82c-.2-.22-.466-.4-.8-.54a2.804 2.804 0 00-1.14-.22c-.626 0-1.083.12-1.37.36-.286.233-.43.553-.43.96 0 .28.07.5.21.66.14.16.354.293.64.4.294.1.667.2 1.12.3a7.96 7.96 0 011.31.38c.367.147.65.347.85.6.2.247.3.583.3 1.01 0 .433-.11.793-.33 1.08-.22.287-.523.5-.91.64a4.04 4.04 0 01-1.32.2c-1.106 0-2.056-.343-2.85-1.03l.35-.57c.254.267.6.497 1.04.69.447.193.94.29 1.48.29.56 0 1-.103 1.32-.31.32-.207.48-.513.48-.92 0-.293-.08-.527-.24-.7-.16-.18-.4-.327-.72-.44-.32-.113-.713-.223-1.18-.33a8.07 8.07 0 01-1.25-.38c-.333-.14-.586-.323-.76-.55-.173-.227-.26-.533-.26-.92 0-.44.107-.81.32-1.11.22-.307.52-.537.9-.69.38-.16.817-.24 1.31-.24a3.413 3.413 0 012.27.82l-.34.56zM44.283 52v-7.1h.7V52h-.7zm5.01-3.6c0-.427.073-.85.22-1.27.153-.42.373-.8.66-1.14.287-.347.64-.62 1.06-.82.42-.207.897-.31 1.43-.31.627 0 1.167.147 1.62.44a2.62 2.62 0 011 1.11l-.55.34a2.052 2.052 0 00-.58-.74 2.212 2.212 0 00-.75-.4 2.64 2.64 0 00-.78-.12c-.427 0-.803.087-1.13.26a2.487 2.487 0 00-.83.68c-.22.287-.387.603-.5.95-.113.347-.17.7-.17 1.06a3.165 3.165 0 00.76 2.08c.24.28.52.503.84.67.327.16.68.24 1.06.24a2.586 2.586 0 001.6-.57 2.22 2.22 0 00.59-.75l.58.3a2.332 2.332 0 01-.69.9c-.3.247-.64.433-1.02.56a3.41 3.41 0 01-1.1.19 2.91 2.91 0 01-1.34-.31 3.603 3.603 0 01-1.06-.84 4.007 4.007 0 01-.68-1.18c-.16-.44-.24-.883-.24-1.33zM65.167 52v-7.1h.7V52h-.7zm6.18-5.81V52h-.7v-7.1h.58l4.66 5.92v-5.91h.7V52h-.65l-4.59-5.81zM81.373 52v-7.1h2.41c.754 0 1.38.16 1.88.48.507.313.887.74 1.14 1.28.254.533.38 1.127.38 1.78 0 .72-.14 1.347-.42 1.88-.28.533-.673.947-1.18 1.24-.506.293-1.106.44-1.8.44h-2.41zm5.11-3.56c0-.567-.106-1.07-.32-1.51a2.339 2.339 0 00-.92-1.03c-.4-.253-.886-.38-1.46-.38h-1.71v5.86h1.71c.587 0 1.08-.13 1.48-.39.4-.26.704-.61.91-1.05.207-.44.31-.94.31-1.5zm7.929 3.61c-.56 0-1.034-.1-1.42-.3-.38-.2-.687-.47-.92-.81-.233-.34-.4-.72-.5-1.14a5.77 5.77 0 01-.15-1.32V44.9h.69v3.58c0 .373.036.737.11 1.09.08.347.206.66.38.94.173.28.406.503.7.67.293.16.66.24 1.1.24.453 0 .827-.083 1.12-.25.3-.167.537-.39.71-.67a2.88 2.88 0 00.36-.95c.073-.353.11-.71.11-1.07V44.9h.7v3.58c0 .473-.053.927-.16 1.36a3.3 3.3 0 01-.52 1.14c-.234.333-.54.597-.92.79-.38.187-.844.28-1.39.28zm11.809-5.82c-.2-.22-.467-.4-.8-.54a2.809 2.809 0 00-1.14-.22c-.627 0-1.084.12-1.37.36-.287.233-.43.553-.43.96 0 .28.07.5.21.66.14.16.353.293.64.4.293.1.666.2 1.12.3.506.107.943.233 1.31.38.366.147.65.347.85.6.2.247.3.583.3 1.01 0 .433-.11.793-.33 1.08-.22.287-.524.5-.91.64a4.05 4.05 0 01-1.32.2c-1.107 0-2.057-.343-2.85-1.03l.35-.57c.253.267.6.497 1.04.69.446.193.94.29 1.48.29.56 0 1-.103 1.32-.31.32-.207.48-.513.48-.92 0-.293-.08-.527-.24-.7-.16-.18-.4-.327-.72-.44-.32-.113-.714-.223-1.18-.33a8.05 8.05 0 01-1.25-.38c-.334-.14-.587-.323-.76-.55-.174-.227-.26-.533-.26-.92 0-.44.106-.81.32-1.11.22-.307.52-.537.9-.69.38-.16.816-.24 1.31-.24.466 0 .886.073 1.26.22.373.14.71.34 1.01.6l-.34.56zm9.954-.71h-2.53V52h-.7v-6.48h-2.53v-.62h5.76v.62zm4.064 6.48v-7.1h3c.306 0 .586.063.84.19.26.127.483.3.67.52.186.213.33.453.43.72.106.26.16.527.16.8 0 .347-.067.67-.2.97-.127.3-.31.553-.55.76-.24.207-.517.34-.83.4l1.74 2.74h-.79l-1.67-2.62h-2.1V52h-.7zm.7-3.24h2.32c.28 0 .523-.077.73-.23.206-.16.366-.363.48-.61.113-.247.17-.51.17-.79 0-.287-.067-.55-.2-.79a1.542 1.542 0 00-.52-.59c-.22-.153-.46-.23-.72-.23h-2.26v3.24zm8.58-3.86l2.32 3.82 2.34-3.82h.76l-2.75 4.46V52h-.7v-2.66l-2.74-4.44h.77zm14.191 3.5c0-.427.073-.85.22-1.27.153-.42.373-.8.66-1.14a3.07 3.07 0 011.06-.82c.42-.207.897-.31 1.43-.31.627 0 1.167.147 1.62.44a2.62 2.62 0 011 1.11l-.55.34a2.053 2.053 0 00-.58-.74 2.206 2.206 0 00-.75-.4 2.64 2.64 0 00-.78-.12c-.427 0-.803.087-1.13.26a2.486 2.486 0 00-.83.68c-.22.287-.387.603-.5.95a3.4 3.4 0 00-.17 1.06 3.157 3.157 0 00.76 2.08c.24.28.52.503.84.67.327.16.68.24 1.06.24a2.584 2.584 0 001.6-.57 2.21 2.21 0 00.59-.75l.58.3a2.327 2.327 0 01-.69.9c-.3.247-.64.433-1.02.56a3.4 3.4 0 01-1.1.19 2.91 2.91 0 01-1.34-.31 3.598 3.598 0 01-1.06-.84 4.013 4.013 0 01-.68-1.18c-.16-.44-.24-.883-.24-1.33zm13.107 3.65c-.5 0-.953-.1-1.36-.3a3.433 3.433 0 01-1.05-.82 3.78 3.78 0 01-.92-2.48c0-.473.084-.923.25-1.35.167-.433.4-.817.7-1.15.307-.34.664-.607 1.07-.8.407-.2.847-.3 1.32-.3.494 0 .944.103 1.35.31.407.207.757.483 1.05.83.3.347.527.733.68 1.16a3.749 3.749 0 01-.71 3.82 3.34 3.34 0 01-1.06.79c-.406.193-.846.29-1.32.29zm-2.63-3.6c0 .387.064.757.19 1.11.127.353.307.67.54.95.234.28.51.503.83.67.327.16.684.24 1.07.24.407 0 .77-.083 1.09-.25a2.58 2.58 0 00.83-.69c.234-.287.41-.603.53-.95a3.337 3.337 0 00-.01-2.19 2.992 2.992 0 00-.55-.95 2.56 2.56 0 00-.83-.66c-.32-.16-.673-.24-1.06-.24-.4 0-.763.083-1.09.25-.32.167-.596.393-.83.68-.226.28-.403.597-.53.95-.12.353-.18.713-.18 1.08zm10.98-2.26V52h-.7v-7.1h.58l4.66 5.92v-5.91h.7V52h-.65l-4.59-5.81zm14.175.04c-.2-.22-.467-.4-.8-.54a2.809 2.809 0 00-1.14-.22c-.627 0-1.084.12-1.37.36-.287.233-.43.553-.43.96 0 .28.07.5.21.66.14.16.353.293.64.4.293.1.666.2 1.12.3.506.107.943.233 1.31.38.366.147.65.347.85.6.2.247.3.583.3 1.01 0 .433-.11.793-.33 1.08-.22.287-.524.5-.91.64a4.05 4.05 0 01-1.32.2c-1.107 0-2.057-.343-2.85-1.03l.35-.57c.253.267.6.497 1.04.69.446.193.94.29 1.48.29.56 0 1-.103 1.32-.31.32-.207.48-.513.48-.92 0-.293-.08-.527-.24-.7-.16-.18-.4-.327-.72-.44-.32-.113-.714-.223-1.18-.33a8.05 8.05 0 01-1.25-.38c-.334-.14-.587-.323-.76-.55-.174-.227-.26-.533-.26-.92 0-.44.106-.81.32-1.11.22-.307.52-.537.9-.69.38-.16.816-.24 1.31-.24.466 0 .886.073 1.26.22.373.14.71.34 1.01.6l-.34.56zm7.814 5.82c-.56 0-1.033-.1-1.42-.3-.38-.2-.687-.47-.92-.81-.233-.34-.4-.72-.5-1.14a5.77 5.77 0 01-.15-1.32V44.9h.69v3.58c0 .373.037.737.11 1.09.08.347.207.66.38.94.173.28.407.503.7.67.293.16.66.24 1.1.24.453 0 .827-.083 1.12-.25.3-.167.537-.39.71-.67a2.88 2.88 0 00.36-.95c.073-.353.11-.71.11-1.07V44.9h.7v3.58c0 .473-.053.927-.16 1.36a3.3 3.3 0 01-.52 1.14c-.233.333-.54.597-.92.79-.38.187-.843.28-1.39.28zm7.659-.05v-7.1h.7v6.48h4.1V52h-4.8zm12.747-6.48h-2.53V52h-.7v-6.48h-2.53v-.62h5.76v.62zm4.063 6.48v-7.1h.7V52h-.7zm6.181-5.81V52h-.7v-7.1h.58l4.66 5.92v-5.91h.7V52h-.65l-4.59-5.81zm12.874 5.86c-.48 0-.923-.1-1.33-.3-.4-.207-.75-.483-1.05-.83a3.971 3.971 0 01-.7-1.16 3.813 3.813 0 010-2.67c.167-.433.397-.817.69-1.15.294-.34.64-.607 1.04-.8.4-.193.837-.29 1.31-.29.7 0 1.27.143 1.71.43.44.287.774.66 1 1.12l-.54.36c-.226-.44-.53-.763-.91-.97a2.613 2.613 0 00-1.27-.31c-.393 0-.75.083-1.07.25-.313.167-.583.39-.81.67-.22.28-.39.597-.51.95a3.397 3.397 0 00.02 2.24c.134.353.32.67.56.95.247.273.53.49.85.65.327.153.68.23 1.06.23a2.45 2.45 0 001.16-.29c.374-.193.73-.493 1.07-.9v-1.18h-1.58v-.54h2.17V52h-.59v-1.04c-.653.727-1.413 1.09-2.28 1.09z" fill="#fff"/></svg>