<svg width="164" height="142" fill="none" xmlns="http://www.w3.org/2000/svg"><path d="M158.395.19H5.605A5.612 5.612 0 000 5.796v19.73c0 3.106 4.805 3.106 4.805 0V5.796c0-.441.359-.8.8-.8h152.79c.441 0 .8.359.8.8v117.151c0 .441-.359.8-.8.8h-30.786v-4.998h24.162a2.402 2.402 0 002.402-2.403V91.189c0-3.106-4.804-3.106-4.804 0v22.755h-21.76v-10.659l.231.02c1.994.175 4.474.393 6.193-1.328 1.716-1.72 1.499-4.203 1.325-6.198-.188-2.142.014-2.728 1.66-4.096 4.237-3.523 4.316-7.296 0-10.884-1.646-1.369-1.847-1.955-1.66-4.096.47-5.374-2.04-8.008-7.518-7.526-2.138.188-2.719-.016-4.082-1.662-3.518-4.247-7.293-4.325-10.876 0-1.364 1.646-1.943 1.85-4.081 1.662-5.378-.473-7.999 2.051-7.519 7.526.187 2.142-.014 2.727-1.66 4.096-4.237 3.523-4.316 7.296 0 10.884 1.646 1.37 1.847 1.955 1.66 4.096-.504 5.756 2.245 7.982 7.749 7.506v10.66h-94.4V14.798H149.37v63.579c0 3.106 4.804 3.106 4.804 0V12.396a2.402 2.402 0 00-2.402-2.402H12.229a2.402 2.402 0 00-2.402 2.402v103.95a2.403 2.403 0 002.402 2.403h96.802v4.998H5.605a.801.801 0 01-.8-.8v-85.25c0-3.106-4.805-3.106-4.805 0v85.25a5.612 5.612 0 005.605 5.605h103.426v10.875c.342 1.974 1.48 2.7 3.415 2.178l5.874-2.732 5.873 2.732c1.453.676 3.416-.393 3.416-2.178v-10.875h30.786a5.612 5.612 0 005.605-5.605V5.796A5.612 5.612 0 00158.395.19zm-50.016 98.328c-2.405.212-2.521.083-2.311-2.32.323-3.69-.526-5.842-3.375-8.21-1.949-1.621-1.949-1.874 0-3.495 2.849-2.369 3.698-4.521 3.375-8.21-.21-2.404-.094-2.531 2.311-2.32 3.69.324 5.839-.53 8.202-3.384 1.615-1.948 1.862-1.948 3.477 0 2.363 2.853 4.512 3.707 8.202 3.383 2.405-.212 2.521-.083 2.311 2.32-.323 3.69.526 5.842 3.375 8.21 1.949 1.622 1.95 1.875-.001 3.496-2.849 2.368-3.698 4.52-3.374 8.21.211 2.403.093 2.532-2.311 2.32-1.509-.132-3.221-.283-4.728.343-1.458.606-2.483 1.843-3.475 3.04-.467.564-1.319 1.593-1.738 1.777-.419-.184-1.271-1.213-1.738-1.777-.991-1.197-2.016-2.434-3.475-3.04a10.521 10.521 0 00-4.727-.343zm10.954 35.528a2.402 2.402 0 00-2.027 0l-3.471 1.614v-29.58c1.14 1.253 2.547 2.417 4.485 2.417 1.937 0 3.344-1.164 4.484-2.417v29.58l-3.471-1.614z" fill="#535756"/><path d="M31.154 34.908h82.816c3.106 0 3.106-4.805 0-4.805H31.154c-3.106 0-3.106 4.805 0 4.805zm104.094 12.209a2.402 2.402 0 00-2.402-2.402H31.155c-3.106 0-3.106 4.804 0 4.804h101.691a2.402 2.402 0 002.402-2.402zM91.333 61.729a2.402 2.402 0 00-2.402-2.402H31.155c-3.106 0-3.106 4.804 0 4.804H88.93a2.402 2.402 0 002.402-2.402zM59.787 95.215l-3.93.005c-2.52.002-3.907-.67-4.422-3.342-.47-2.44-3.988-2.129-4.633 0-.285.942-1.727 3.641-2.986 3.42-.667-.117-.959-1.146-1.205-1.679-.48-1.037-.83-2.137-1.13-3.239-1.264-4.655-1.517-9.516-2.308-14.259-.458-2.75-4.651-1.973-4.719.639-.215 8.319-1.575 16.523-4.537 24.321-1.099 2.893 3.544 4.144 4.633 1.277a67.928 67.928 0 002.752-9.21 24.376 24.376 0 001.377 3.342c1.403 2.773 4.264 4.413 7.326 3.18 1.092-.44 2.09-1.21 2.938-2.146 2.273 2.621 5.654 2.502 8.809 2.498 4.756-.006 9.511-.017 14.267-.03 3.092-.009 3.097-4.813 0-4.805-4.077.012-8.155.021-12.232.028zm58.533.409c5.174 0 9.383-4.21 9.383-9.383 0-5.174-4.209-9.384-9.383-9.384-5.174 0-9.383 4.21-9.383 9.384 0 5.173 4.209 9.383 9.383 9.383zm0-13.962a4.585 4.585 0 014.579 4.579 4.585 4.585 0 01-4.579 4.578 4.584 4.584 0 01-4.579-4.578 4.584 4.584 0 014.579-4.579z" fill="#535756"/></svg>