<svg width="164" height="164" fill="none" xmlns="http://www.w3.org/2000/svg"><path d="M158.143 81.999H123a5.858 5.858 0 00-5.682 4.433l-9.763 39.05-13.882-120.3a5.857 5.857 0 00-11.556-.498L63.556 97.52 52.509 57.03a5.857 5.857 0 00-11.093-.639L31.178 82H5.858a5.857 5.857 0 100 11.714h29.285a5.857 5.857 0 005.441-3.684l5.219-13.056 12.973 47.566a5.856 5.856 0 005.652 4.316h.2c2.708-.092 5-2.03 5.54-4.685L86.3 43.488l13.313 115.321a5.856 5.856 0 005.436 5.178l.38.012a5.859 5.859 0 005.676-4.44l16.47-65.846h30.569a5.857 5.857 0 100-11.714z" fill="#535756"/></svg>