<svg width="300" height="101" xmlns="http://www.w3.org/2000/svg"><g id="Page-1" stroke="none" stroke-width="1" fill="none" fill-rule="evenodd" opacity=".193"><g id="Homepage-3" transform="translate(-1049 -981)" fill="#77CCD3" fill-rule="nonzero"><g id="Group-5" transform="translate(962 788)"><path d="M164.556 292v-18.216h-41.538l22.218-20.976c6.348-5.888 10.626-11.132 12.834-15.732s3.312-9.522 3.312-14.766c0-5.796-1.495-10.833-4.485-15.111-2.99-4.278-7.176-7.59-12.558-9.936s-11.661-3.519-18.837-3.519c-8.556 0-16.146 1.587-22.77 4.761-6.624 3.174-11.822 7.567-15.594 13.179l16.284 10.488c2.3-3.22 5.152-5.635 8.556-7.245 3.404-1.61 7.222-2.415 11.454-2.415 5.06 0 8.901 1.035 11.523 3.105 2.622 2.07 3.933 5.037 3.933 8.901 0 2.668-.69 5.359-2.07 8.073-1.38 2.714-4.048 5.957-8.004 9.729l-37.26 35.19V292h73.002zm50.646 1.656c8.004 0 15.134-1.978 21.39-5.934 6.256-3.956 11.155-9.683 14.697-17.181 3.542-7.498 5.313-16.445 5.313-26.841s-1.771-19.343-5.313-26.841c-3.542-7.498-8.441-13.225-14.697-17.181-6.256-3.956-13.386-5.934-21.39-5.934-8.004 0-15.134 1.978-21.39 5.934-6.256 3.956-11.155 9.683-14.697 17.181-3.542 7.498-5.313 16.445-5.313 26.841s1.771 19.343 5.313 26.841c3.542 7.498 8.441 13.225 14.697 17.181 6.256 3.956 13.386 5.934 21.39 5.934zm0-18.906c-5.796 0-10.373-2.53-13.731-7.59-3.358-5.06-5.037-12.88-5.037-23.46s1.679-18.4 5.037-23.46c3.358-5.06 7.935-7.59 13.731-7.59 5.888 0 10.511 2.53 13.869 7.59 3.358 5.06 5.037 12.88 5.037 23.46s-1.679 18.4-5.037 23.46c-3.358 5.06-7.981 7.59-13.869 7.59zM339.678 292v-18.216H298.14l22.218-20.976c6.348-5.888 10.626-11.132 12.834-15.732s3.312-9.522 3.312-14.766c0-5.796-1.495-10.833-4.485-15.111-2.99-4.278-7.176-7.59-12.558-9.936s-11.661-3.519-18.837-3.519c-8.556 0-16.146 1.587-22.77 4.761-6.624 3.174-11.822 7.567-15.594 13.179l16.284 10.488c2.3-3.22 5.152-5.635 8.556-7.245 3.404-1.61 7.222-2.415 11.454-2.415 5.06 0 8.901 1.035 11.523 3.105 2.622 2.07 3.933 5.037 3.933 8.901 0 2.668-.69 5.359-2.07 8.073-1.38 2.714-4.048 5.957-8.004 9.729l-37.26 35.19V292h73.002zm46.506 0v-96.6h-41.676v17.94h19.32V292h22.356z" id="2021"/></g></g></g></svg>