<svg width="297" height="84" xmlns="http://www.w3.org/2000/svg" xmlns:xlink="http://www.w3.org/1999/xlink"><defs><path id="path-1" d="M.5.75h.75v.75H.5z"/><path id="path-3" d="M1 83h296V0H1z"/></defs><g id="Page-1" stroke="none" stroke-width="1" fill="none" fill-rule="evenodd"><g id="Homepage-3" transform="translate(-1055 -853)"><g id="Group-5" transform="translate(962 788)"><g id="Group-189" transform="translate(93 65)"><path d="M53.743 43.274l5.246-1.014c.413-15.397-11.192-28.682-26.753-30.13-10.213-.953-19.692 3.425-25.692 10.842L21.058 36.24 2.373 29.897a29.453 29.453 0 00-2.244 8.867C-1.123 52.208 6.857 64.385 18.86 69.019l4.325-5.15-.09 6.425a29.69 29.69 0 003.67.577c15.647 1.456 29.572-9.588 31.897-24.928l-4.92-2.669" id="Fill-1" fill="#6B9A57"/><path d="M36.817 44c4.437.001 7.72-2.772 10.058-6 2.326-3.22 3.645-6.84 4.107-8.273L51 29.67a31.27 31.27 0 00-6.313-.67c-3.155-.003-6.8.553-9.632 2.484-2.767 1.894-4.839 5.058-5.055 10.579 2.558 1.378 4.818 1.936 6.817 1.937" id="Fill-3" fill="#9E76B3"/><path d="M36.817 44c4.437.001 7.72-2.772 10.058-6 2.326-3.22 3.645-6.84 4.107-8.273L51 29.67a31.27 31.27 0 00-6.313-.67c-3.155-.003-6.8.553-9.632 2.484-2.767 1.894-4.839 5.058-5.055 10.579 2.558 1.378 4.818 1.936 6.817 1.937z" id="Stroke-5" stroke="#FEFEFE" stroke-width=".56"/><path d="M8.02 29.727c.132.41.333.997.609 1.703.55 1.414 1.396 3.297 2.563 5.174 2.346 3.764 5.926 7.402 10.99 7.396 1.999-.001 4.26-.56 6.818-1.936-.216-5.522-2.289-8.688-5.056-10.58-2.83-1.93-6.476-2.487-9.63-2.484a30.89 30.89 0 00-4.89.405c-.6.095-1.082.19-1.424.263l.02.059" id="Fill-7" fill="#9E76B3"/><path d="M8.02 29.727c.132.41.333.997.609 1.703.55 1.414 1.396 3.297 2.563 5.174 2.346 3.764 5.926 7.402 10.99 7.396 1.999-.001 4.26-.56 6.818-1.936-.216-5.522-2.289-8.688-5.056-10.58-2.83-1.93-6.476-2.487-9.63-2.484a30.89 30.89 0 00-4.89.405c-.6.095-1.082.19-1.424.263l.02.059z" id="Stroke-9" stroke="#FEFEFE" stroke-width=".56"/><path d="M42.275 20.02c-.41.132-.999.334-1.705.608-1.411.552-3.297 1.396-5.17 2.564-3.766 2.346-7.407 5.927-7.4 10.99.001 2 .56 4.26 1.94 6.818 5.52-.218 8.683-2.289 10.577-5.057 1.93-2.83 2.486-6.474 2.483-9.63A31.145 31.145 0 0042.333 20l-.058.02" id="Fill-11" fill="#9E76B3"/><path d="M42.275 20.02c-.41.132-.999.334-1.705.608-1.411.552-3.297 1.396-5.17 2.564-3.766 2.346-7.407 5.927-7.4 10.99.001 2 .56 4.26 1.94 6.818 5.52-.218 8.683-2.289 10.577-5.057 1.93-2.83 2.486-6.474 2.483-9.63A31.145 31.145 0 0042.333 20l-.058.02z" id="Stroke-13" stroke="#FEFEFE" stroke-width=".56"/><path d="M17.403 21.421A31.13 31.13 0 0017 26.312c-.001 3.155.554 6.8 2.483 9.632C21.377 38.711 24.54 40.782 30.06 41c1.379-2.559 1.938-4.819 1.939-6.817.001-4.439-2.774-7.72-6.001-10.056-3.218-2.328-6.839-3.646-8.272-4.11L17.669 20c-.074.34-.17.824-.266 1.421" id="Fill-15" fill="#9E76B3"/><path d="M17.403 21.421A31.13 31.13 0 0017 26.312c-.001 3.155.554 6.8 2.483 9.632C21.377 38.711 24.54 40.782 30.06 41c1.379-2.559 1.938-4.819 1.939-6.817.001-4.439-2.774-7.72-6.001-10.056-3.218-2.328-6.839-3.646-8.272-4.11L17.669 20c-.074.34-.17.824-.266 1.421z" id="Stroke-17" stroke="#FEFEFE" stroke-width=".56"/><g id="Group-21" transform="translate(0 82)"><mask id="mask-2" fill="#fff"><use xlink:href="#path-1"/></mask></g><path d="M29.83 17.764a31.757 31.757 0 00-2.387 3.208c-1.739 2.667-3.449 6.25-3.443 9.851.014 3.53 1.567 7.107 6.5 10.177 4.932-3.07 6.485-6.647 6.5-10.177.016-5.402-3.87-10.757-5.83-13.06A27.73 27.73 0 0030.5 17c-.177.193-.405.45-.67.764" id="Fill-22" fill="#9E76B3"/><path d="M29.83 17.764a31.757 31.757 0 00-2.387 3.208c-1.739 2.667-3.449 6.25-3.443 9.851.014 3.53 1.567 7.107 6.5 10.177 4.932-3.07 6.485-6.647 6.5-10.177.016-5.402-3.87-10.757-5.83-13.06A27.73 27.73 0 0030.5 17c-.177.193-.405.45-.67.764z" id="Stroke-24" stroke="#FEFEFE" stroke-width=".56"/><path d="M9.422 54.598a30.97 30.97 0 004.89.402c3.154.003 6.8-.552 9.633-2.484C26.71 50.622 28.782 47.46 29 41.94 26.44 40.56 24.18 40 22.182 40c-4.438-.001-7.717 2.775-10.056 6.001-2.327 3.22-3.645 6.84-4.108 8.275-.006.018-.013.038-.018.059.341.071.823.166 1.422.263" id="Fill-26" fill="#9E76B3"/><path d="M9.422 54.598a30.97 30.97 0 004.89.402c3.154.003 6.8-.552 9.633-2.484C26.71 50.622 28.782 47.46 29 41.94 26.44 40.56 24.18 40 22.182 40c-4.438-.001-7.717 2.775-10.056 6.001-2.327 3.22-3.645 6.84-4.108 8.275-.006.018-.013.038-.018.059.341.071.823.166 1.422.263z" id="Stroke-28" stroke="#FEFEFE" stroke-width=".56"/><path d="M35.054 52.518c2.832 1.93 6.476 2.485 9.633 2.482a30.95 30.95 0 004.89-.402c.6-.095 1.082-.19 1.423-.263a30.418 30.418 0 00-.627-1.764c-.551-1.412-1.397-3.297-2.564-5.171-2.348-3.767-5.927-7.406-10.993-7.4-1.998 0-4.26.56-6.816 1.939.216 5.521 2.288 8.684 5.054 10.579" id="Fill-30" fill="#9E76B3"/><path d="M35.054 52.518c2.832 1.93 6.476 2.485 9.633 2.482a30.95 30.95 0 004.89-.402c.6-.095 1.082-.19 1.423-.263a30.418 30.418 0 00-.627-1.764c-.551-1.412-1.397-3.297-2.564-5.171-2.348-3.767-5.927-7.406-10.993-7.4-1.998 0-4.26.56-6.816 1.939.216 5.521 2.288 8.684 5.054 10.579z" id="Stroke-32" stroke="#FEFEFE" stroke-width=".56"/><path d="M19.483 47.056c-1.93 2.83-2.486 6.474-2.483 9.632A31.124 31.124 0 0017.668 63c.018-.007.04-.012.059-.02.409-.132.997-.332 1.703-.608 1.414-.55 3.297-1.396 5.174-2.562 3.764-2.348 7.403-5.928 7.396-10.992 0-1.998-.559-4.26-1.938-6.818-5.52.218-8.685 2.29-10.58 5.056" id="Fill-34" fill="#9E76B3"/><path d="M19.483 47.056c-1.93 2.83-2.486 6.474-2.483 9.632A31.124 31.124 0 0017.668 63c.018-.007.04-.012.059-.02.409-.132.997-.332 1.703-.608 1.414-.55 3.297-1.396 5.174-2.562 3.764-2.348 7.403-5.928 7.396-10.992 0-1.998-.559-4.26-1.938-6.818-5.52.218-8.685 2.29-10.58 5.056z" id="Stroke-36" stroke="#FEFEFE" stroke-width=".56"/><path d="M28 48.818c-.001 4.436 2.773 7.719 6 10.054 3.221 2.329 6.842 3.647 8.275 4.109l.057.019A31.13 31.13 0 0043 56.688c.003-3.157-.553-6.802-2.484-9.632-1.893-2.767-5.055-4.838-10.578-5.056C28.56 44.56 28 46.82 28 48.818" id="Fill-38" fill="#9E76B3"/><path d="M28 48.818c-.001 4.436 2.773 7.719 6 10.054 3.221 2.329 6.842 3.647 8.275 4.109l.057.019A31.13 31.13 0 0043 56.688c.003-3.157-.553-6.802-2.484-9.632-1.893-2.767-5.055-4.838-10.578-5.056C28.56 44.56 28 46.82 28 48.818z" id="Stroke-40" stroke="#FEFEFE" stroke-width=".56"/><path d="M24 53.176c-.018 5.403 3.87 10.757 5.83 13.059.265.315.493.571.67.765a32.147 32.147 0 003.057-3.973c1.737-2.668 3.447-6.25 3.443-9.85-.015-3.529-1.57-7.109-6.5-10.177-4.933 3.068-6.486 6.648-6.5 10.176" id="Fill-42" fill="#9E76B3"/><path d="M24 53.176c-.018 5.403 3.87 10.757 5.83 13.059.265.315.493.571.67.765a32.147 32.147 0 003.057-3.973c1.737-2.668 3.447-6.25 3.443-9.85-.015-3.529-1.57-7.109-6.5-10.177-4.933 3.068-6.486 6.648-6.5 10.176z" id="Stroke-44" stroke="#FEFEFE" stroke-width=".56"/><path d="M5.765 42.17c.768.65 1.873 1.52 3.208 2.386 2.667 1.738 6.249 3.447 9.85 3.444 3.527-.017 7.107-1.57 10.177-6.5-3.07-4.933-6.65-6.485-10.177-6.5-5.403-.016-10.756 3.868-13.058 5.829-.315.266-.571.494-.765.67.194.178.449.406.765.67" id="Fill-46" fill="#9E76B3"/><path d="M5.765 42.17c.768.65 1.873 1.52 3.208 2.386 2.667 1.738 6.249 3.447 9.85 3.444 3.527-.017 7.107-1.57 10.177-6.5-3.07-4.933-6.65-6.485-10.177-6.5-5.403-.016-10.756 3.868-13.058 5.829-.315.266-.571.494-.765.67.194.178.449.406.765.67z" id="Stroke-48" stroke="#FEFEFE" stroke-width=".56"/><path d="M41.176 48c5.403.018 10.756-3.87 13.058-5.83.315-.266.572-.493.766-.67a32.135 32.135 0 00-3.973-3.057c-2.667-1.737-6.25-3.447-9.851-3.443-3.527.018-7.106 1.57-10.176 6.5 3.07 4.933 6.65 6.485 10.176 6.5" id="Fill-50" fill="#9E76B3"/><path d="M41.176 48c5.403.018 10.756-3.87 13.058-5.83.315-.266.572-.493.766-.67a32.135 32.135 0 00-3.973-3.057c-2.667-1.737-6.25-3.447-9.851-3.443-3.527.018-7.106 1.57-10.176 6.5 3.07 4.933 6.65 6.485 10.176 6.5z" id="Stroke-52" stroke="#FEFEFE" stroke-width=".56"/><path d="M27 42a3.005 3.005 0 003 3 3.005 3.005 0 003-3 3.005 3.005 0 00-3-3 3.005 3.005 0 00-3 3" id="Fill-54" fill="#FFCA05"/><path d="M27 42a3.005 3.005 0 003 3 3.005 3.005 0 003-3 3.005 3.005 0 00-3-3 3.005 3.005 0 00-3 3z" id="Stroke-56" stroke="#FEFEFE" stroke-width=".56"/><path d="M14.303 9.362c.535-.597.91-1.067.648-1.514-.086-.15-.331-.42-.916-.183-.94.383-1.067 1.833-.79 2.864l1.058-1.167zM17 11.157c-.403.446-1.143 1.275-2.085 1.655-1.036.42-1.839.13-2.395-.822-.956-1.64-.708-3.817 1.71-4.798.502-.202 1.215-.369 1.533.178.146.248.218.55.251.758l-2.654 2.698c.096.267.228.572.374.82.295.505.866.852 1.449.614.977-.395 1.26-1.628 1.272-2.468l.261-.107.284 1.472z" id="Fill-58" fill="#77CCD3"/><path d="M22.383 9.011c1.255-.28 1.73-3.485 1.52-4.768-.067-.41-.243-.73-.581-.654-1.158.261-1.751 3.012-1.963 5.042.201.193.663.463 1.024.38M20.58 1.148l-1.471.277-.11-.189L21.548 0l-.207 6.786.026.022c.323-1.628.975-3.744 2.274-4.036.983-.22 1.233.76 1.308 1.222.251 1.54-.414 4.958-2.215 5.364-.481.108-1.019.003-1.445-.18l-.942.822.234-8.852" id="Fill-60" fill="#77CCD3"/><path d="M30.03 8.84c.499-1.317 1.11-3.246 1.176-4.16l-1.182-.109L30 4.398 32.348 4a8.982 8.982 0 01-.751 3.05l.023.023c.59-1.118 1.783-3.014 2.814-2.956.201.012.394.14.566.246l-.35.728c-.22-.087-.43-.154-.583-.163-1.09-.06-2.53 2.642-3.096 4.072l-.94-.16" id="Fill-62" fill="#77CCD3"/><path d="M38.616 9.544c1.05.315 3.182-1.487 4.37-3.106-.085-.232-.236-.718-.792-.884-1.41-.422-3.549 2.1-3.88 3.098-.151.46-.055.785.302.892M41.066 11c-.079-.538-.026-.859.156-1.411.16-.482.71-1.44 1.113-1.966l-.017-.03c-1.102 1.361-3.03 2.875-4.463 2.445-.828-.247-1.002-.907-.746-1.683.386-1.162 2.937-3.857 4.888-3.273.643.192.981.604 1.33.942L45 5.776c-1.036 1.032-2.224 2.652-2.57 3.697-.095.282-.161.647-.216.891l1.44.044v.207L41.066 11" id="Fill-64" fill="#77CCD3"/><path d="M47 12.763c.077-.335.15-.62.462-1.133.166-.267.504-.675 1.105-1.318l1.12-1.196-.8-.478.146-.114 1.047.37L51.643 8l.32.19-1.121 1.16 1.158.688-.28.29-1.159-.69-1.128 1.191c-.437.46-.854.91-1.002 1.15-.086.14-.203.374-.273.51l1.197.334-.045.177-2.31-.237" id="Fill-66" fill="#77CCD3"/><path d="M57.8 12.282c.268-.3.712-.39 1-.127.253.23.275.509.015.8-.268.302-.712.39-1 .128-.253-.232-.274-.509-.015-.8m-5.8 5.07c.171-.582.338-.895.677-1.273.834-.939 2.33-1.48 2.856-2.071l-.944-.928.081-.181 2.303 1.305c-.92 1.033-2.628 1.635-3.432 2.536a2.403 2.403 0 00-.341.491l1.168.588-.081.18L52 17.354" id="Fill-68" fill="#77CCD3"/><path d="M56 20.232c1.594-.536 3.852-1.416 4.773-2.022l-.658-1.045.135-.165 1.936 1.678c-.59.388-1.851 1.177-3.428 1.577l-.007.035c1.61-.24 4.142-.588 5.016.68.39.565.279 1.08-.245 1.427-.171.112-.737.333-1.201.47l-1.287.393c-.514.156-.85.304-1.055.438-.117.077-.28.201-.384.343l1.015.794-.136.165-2.182-1.133c.265-.541.618-.863.981-1.104.203-.135.75-.36 1.017-.443l1.377-.422c.593-.177.911-.281 1.062-.38.246-.162.332-.31.128-.602-.613-.89-3.831-.61-6.387.223l-.47-.907" id="Fill-70" fill="#77CCD3"/><path d="M63.94 31.072c.293.813 1.636.877 2.554.602.47-.14.796-.434.62-.925-.289-.804-1.778-.845-2.604-.599-.608.181-.72.504-.57.922m3.153 1.418c-.145.09-.368.178-.506.22-1.044.312-2.408.013-2.95-1.49a3.59 3.59 0 01-.194-.822c-.354-.171-.673-.25-1.058-.332-.181.204-.058.688.119 1.178.094.262.267.638.394.994.324.898.191 1.446-.635 1.692-1.08.322-2.487-.484-3.065-2.093-.309-.856-.358-2.124.605-2.41.15-.047.36-.062.563-.064l.86 1.048-.15.149c-.254-.212-.56-.422-.995-.293-.562.168-.78.87-.517 1.6.347.961 1.273 1.564 1.974 1.355.527-.158.495-.634.339-1.072-.084-.23-.212-.481-.35-.868-.286-.793-.325-1.29.139-1.764.728.153 1.056.321 1.771.65.053-.523.43-.89 1.003-1.06 1.101-.33 2.465.073 2.995 1.546.252.7.132 1.105-.008 1.495l.573 1.1-.6.098-.307-.857" id="Fill-72" fill="#77CCD3"/><path d="M63.74 44.176l.098 1.34 6.304 2.255.21-1.477c.141-.979.078-.966-1.666-1.986L68.73 44l2.27.808L69.968 52l-2.305-.558.045-.308c1.88.076 1.927.167 2.056-.73l.204-1.43-6.303-2.253-.482 1.353L63 48l.558-3.897.183.074" id="Fill-74" fill="#77CCD3"/><path d="M64.287 60.911c-.413.105-.882.159-1.427-.082-1.036-.456-3.416-3.746-2.741-5.18.258-.55.666-.76 1.278-.49.613.27 1.332.913 1.938 1.4l.031-.011c-1.038-1.083-2.355-2.797-1.792-3.994.272-.581.795-.664 1.307-.438.468.204 1.017.669 1.576 1.137.577.462 1.17.946 1.737 1.196l.603-1.167.203.024-.472 2.435a4.596 4.596 0 01-.665-.241c-.97-.43-2.511-1.98-3.314-2.334-.211-.092-.459-.11-.555.095-.552 1.174 2.013 3.726 3.43 4.715l-.516.813c-.887-.716-3.067-2.315-3.679-2.585-.423-.187-.579-.085-.69.152-.42.895.892 2.88 2.506 3.592.457.2.93.252 1.38.269l-.138.694" id="Fill-76" fill="#77CCD3"/><path d="M57.071 66.522c-.2.722-.316 1.278.099 1.604.137.11.463.28.86-.126.638-.658.121-2.035-.557-2.894l-.402 1.416zM54 65.738c.152-.54.428-1.542 1.067-2.197.705-.723 1.512-.715 2.397-.015 1.52 1.2 2.242 3.288.6 4.972-.34.349-.876.732-1.383.33a2.632 2.632 0 01-.54-.616l1.107-3.343a6.238 6.238 0 00-.672-.635c-.47-.37-1.105-.505-1.501-.101-.663.682-.375 1.909-.024 2.687l-.178.18L54 65.739z" id="Fill-78" fill="#77CCD3"/><path d="M50.831 68c.51 1.607 1.36 3.883 1.954 4.815l1.051-.645.164.139-1.704 1.916c-.38-.595-1.149-1.874-1.527-3.46l-.035-.009c.216 1.618.527 4.164-.752 5.02-.57.383-1.083.262-1.423-.267-.109-.174-.323-.743-.455-1.212l-.373-1.295c-.15-.518-.29-.858-.422-1.063a1.492 1.492 0 00-.339-.39l-.806 1.004-.164-.137 1.164-2.173c.536.273.855.632 1.09 1 .131.206.347.758.428 1.027l.402 1.387c.17.597.269.917.365 1.071.16.248.305.336.601.137.897-.601.664-3.832-.134-6.406l.915-.459" id="Fill-80" fill="#77CCD3"/><path d="M41.273 73c.287.283.528.534.797 1.125.14.313.275.854.432 1.762l.291 1.69L44 77.263l-.008.194-1.308.58-.42 1.836-.482.127-.247-1.664-1.747.452-.062-.416 1.746-.454-.275-1.693c-.108-.657-.22-1.287-.346-1.568-.073-.16-.218-.411-.302-.558l-1.401.726-.148-.153L41.273 73" id="Fill-82" fill="#77CCD3"/><path d="M31.323 78.409l.026.024c.565-1.752 1.415-3.723 2.806-3.859.629-.061.959.37 1.004.892.04.443-.136 1.206-.32 2.021-.172.812-.34 1.676-.284 2.315l1.335-.081.078.2-2.398.875a4.688 4.688 0 01-.113-.734c-.126-1.426.702-3.227.608-4.298-.022-.254-.138-.449-.38-.426-1.34.132-2.39 3.87-2.706 5.662L30 80.966c.24-1.425.338-3.078.522-4.714.276-2.416.674-3.981 3.225-4.233a4.444 4.444 0 012.253.397l-.242 1.538-.326.033c.001-.128.01-.31-.005-.476-.073-.814-.706-1.228-1.504-1.15-1.79.175-2.152 1.868-2.386 4.062l-.214 1.986" id="Fill-84" fill="#77CCD3"/><path id="Fill-86" fill="#77CCD3" d="M19.875 73.66l-1.443-.244-1.56 2.247-.075 4.404 1.142.769-.124.164-3.51-1.374.125-.165 1.158.134.059-3.905-3.57 2.53 1.06.734-.125.166L10 77.94l.125-.166 1.17.138 4.438-2.695 1.561-2.249-1.236-.803.123-.166L20 73.497z"/><path d="M15 43.442V44h-3l2.033-2.631c.19-.246.413-.55.413-.875 0-.514-.432-.938-.912-.938-.475 0-.863.405-.894.896h-.578c.092-.868.628-1.452 1.472-1.452.788 0 1.466.615 1.466 1.466 0 .365-.129.73-.344 1.008l-1.528 1.968H15" id="Fill-88" fill="#FEFEFE"/><path d="M14.513 41.493c0 .662.217 1.973.987 1.973.769 0 .986-1.311.986-1.973 0-.661-.217-1.984-.986-1.984-.77 0-.987 1.323-.987 1.984M14 41.5c0-.984.387-2.499 1.5-2.499 1.112 0 1.5 1.515 1.5 2.5 0 .98-.395 2.5-1.5 2.5-1.107 0-1.5-1.52-1.5-2.5" id="Fill-90" fill="#FEFEFE"/><path d="M18.513 41.493c0 .662.217 1.973.987 1.973.769 0 .986-1.311.986-1.973 0-.661-.217-1.984-.986-1.984-.77 0-.987 1.323-.987 1.984M18 41.5c0-.984.387-2.499 1.5-2.499 1.112 0 1.5 1.515 1.5 2.5 0 .98-.393 2.5-1.5 2.5S18 42.48 18 41.5" id="Fill-92" fill="#FEFEFE"/><path id="Fill-94" fill="#FEFEFE" d="M22.035 39.571l.22-.571h.71v5h-.378v-4.429z"/><path d="M39 43.442V44h-3l2.033-2.631c.19-.246.412-.55.412-.875 0-.514-.43-.938-.911-.938-.475 0-.863.405-.894.896h-.578c.092-.868.628-1.452 1.472-1.452.788 0 1.466.615 1.466 1.466 0 .365-.129.73-.346 1.008l-1.528 1.968H39" id="Fill-96" fill="#FEFEFE"/><path d="M39.514 41.493c0 .662.217 1.973.987 1.973.768 0 .985-1.311.985-1.973 0-.661-.217-1.984-.985-1.984-.77 0-.987 1.323-.987 1.984M39 41.5c0-.984.388-2.499 1.5-2.499s1.5 1.515 1.5 2.5c0 .98-.394 2.5-1.5 2.5-1.106 0-1.5-1.52-1.5-2.5" id="Fill-98" fill="#FEFEFE"/><path d="M45 43.442V44h-3l2.033-2.631c.19-.246.412-.55.412-.875 0-.514-.43-.938-.911-.938-.475 0-.863.405-.894.896h-.578c.092-.868.628-1.452 1.472-1.452.79 0 1.466.615 1.466 1.466 0 .365-.129.73-.344 1.008l-1.528 1.968H45" id="Fill-100" fill="#FEFEFE"/><path id="Fill-102" fill="#FEFEFE" d="M46.035 39.571l.22-.571h.71v5h-.379v-4.429z"/><path id="Fill-104" fill="#6B9A57" d="M98 40.031l5.957-1.573 1.425-35.834-6.735-1.575V0h12.11l14.761 32.42L138.598 0h12.431v1.05l-6.345 1.574 1.619 35.834L152 40.03v1.051h-18.13v-1.05l7.512-1.574-1.554-34.52h-.13L124.158 42h-.194L107.583 4.593h-.13v33.865l7.9 1.573v1.051H98z"/><path d="M175.4 30.606c-1.543.701-4.886 2.394-9.73 2.394-9.04 0-13.67-5.532-13.67-12.922C152 11.49 157.828 6 166.229 6c3.77 0 7.198 1.361 8.912 2.311v6.029h-.77c-.471-2.272-1.157-7.02-7.67-7.02-6.902 0-10.93 5.12-10.93 12.593 0 6.689 3.857 11.767 10.286 11.767 7.413 0 8.015-4.707 9.172-8.176H176l-.6 7.102" id="Fill-106" fill="#6B9A57"/><path id="Fill-108" fill="#6B9A57" d="M178 39.951l6.841-1.57V2.619L178 1.047V0h17.626v1.047L189.84 2.62v19.256L206.479 2.62l-5.788-1.572V0h16.705v1.047l-6.576 1.572-13.878 14.149 19.665 21.613L222 39.95V41h-18.284v-1.049l6.577-1.57-16.639-18.34-3.815 3.93v14.41l5.787 1.57V41H178z"/><path d="M220 40.105l5.843-1.341V8.238L220 6.895V6h27.864v9.952h-1.01c-1.124-6.542-1.967-7.939-6.403-7.939h-10.338v13.755l8.653-.224 1.347-5.48h.899v12.97h-.955l-1.291-5.477-8.653-.224v15.43h11.742c4.661 0 5.673-.334 7.133-10.51H250V41h-30v-.895" id="Fill-110" fill="#6B9A57"/><path d="M252 40.105l5.843-1.341V8.238L252 6.895V6h27.866v9.952h-1.01c-1.125-6.542-1.968-7.939-6.407-7.939h-10.336v13.755l8.651-.224 1.348-5.48h.9v12.97h-.955l-1.293-5.477-8.65-.224v15.43h11.741c4.661 0 5.673-.334 7.134-10.51H282V41h-30v-.895" id="Fill-112" fill="#6B9A57"/><mask id="mask-4" fill="#fff"><use xlink:href="#path-3"/></mask><path id="Fill-114" fill="#77CCD3" mask="url(#mask-4)" d="M162 41h5v-5h-5z"/><path d="M82 65h7.118C93.32 65 96 63.414 96 60.553c0-3.426-3.73-3.86-5.2-4.012v-.052c1.418-.306 4.255-1.38 4.255-3.807 0-2.888-2.416-3.682-4.992-3.682H82v.41l2.731.613v13.954L82 64.59V65zm4.727-15.079c.658-.103 1.394-.206 2.102-.206 2.259 0 4.123.589 4.123 2.812 0 3.119-2.81 3.783-6.225 3.783v-6.389zm0 7.002c.237-.027.736-.051.92-.051 2.574 0 6.251.46 6.251 3.835 0 2.146-1.707 3.474-4.753 3.474-.815 0-1.603-.126-2.418-.204v-7.054z" id="Fill-116" fill="#6B9A57" mask="url(#mask-4)"/><path d="M104.724 65c4.497 0 7.276-2.76 7.276-7.213 0-4.216-2.63-6.787-6.704-6.787C100.843 51 98 53.762 98 58.087c0 4.238 2.375 6.913 6.724 6.913m-4.858-7.021c0-3.703 1.783-6.293 5.091-6.293 3.33 0 5.175 2.506 5.175 6.336 0 3.66-1.717 6.294-5.175 6.294-3.224 0-5.09-2.505-5.09-6.337" id="Fill-117" fill="#6B9A57" mask="url(#mask-4)"/><path d="M115.188 64.642l2.516-.537V51.803h-2.936c-1.656 0-1.971.604-2.39 3.512H112V51h13v4.315h-.378c-.419-2.908-.734-3.512-2.39-3.512h-2.936v12.302l2.516.537V65h-6.624v-.358" id="Fill-118" fill="#6B9A57" mask="url(#mask-4)"/><path d="M125.992 64.125L124 64.65V65h5.255v-.35l-2.119-.525 1.822-4.331h4.852l1.63 4.331-2.457.525V65H139v-.35l-1.864-.525L132.221 51h-.063l-6.166 13.125zm5.552-10.368l1.99 5.337h-4.28l2.29-5.337z" id="Fill-119" fill="#6B9A57" mask="url(#mask-4)"/><path id="Fill-120" fill="#6B9A57" mask="url(#mask-4)" d="M140 65.344l2.137-.526.086-11.943L140 52.35V52h3.953l8.397 10.5.042-.043-.341-9.582-2.95-.525V52H155v.35l-1.796.525L153.033 66h-.064l-9.978-12.644-.042.043.342 11.42 2.671.525v.35H140z"/><path id="Fill-121" fill="#6B9A57" mask="url(#mask-4)" d="M156 64.642l2.198-.537v-12.21L156 51.358V51h6v.358l-2.196.537v12.21l2.196.537V65h-6z"/><path d="M175.7 63.76c-.772.363-2.442 1.24-4.865 1.24-4.521 0-6.835-2.867-6.835-6.7 0-4.453 2.914-7.3 7.115-7.3 1.885 0 3.599.706 4.455 1.2v3.125h-.386c-.234-1.178-.578-3.64-3.833-3.64-3.452 0-5.464 2.654-5.464 6.53 0 3.468 1.927 6.1 5.14 6.1 3.708 0 4.008-2.44 4.588-4.238H176l-.3 3.682" id="Fill-122" fill="#6B9A57" mask="url(#mask-4)"/><path d="M177.99 64.125l-1.99.525V65h5.254v-.35l-2.117-.525 1.82-4.331h4.851l1.633 4.331-2.457.525V65H191v-.35l-1.865-.525L184.22 51h-.064l-6.165 13.125zm5.552-10.368l1.991 5.337h-4.28l2.29-5.337z" id="Fill-123" fill="#6B9A57" mask="url(#mask-4)"/><path d="M192 64.574l2.205-.469V51.893L192 51.358V51h6.188v.358l-2.372.535v12.212h4.005c2.035 0 2.394-1.163 2.797-4.116H203V65h-11v-.426" id="Fill-124" fill="#6B9A57" mask="url(#mask-4)"/><path d="M225.98 62.504c0 .295.074.417.196.612-1.305.734-3.838 1.884-6.571 1.884-4.996 0-7.605-3.279-7.605-7.658 0-5.09 3.347-8.342 8.173-8.342 2.165 0 4.454.832 5.411 1.37v3.572h-.442c-.27-1.346-.813-4.159-4.551-4.159-4.11 0-6.425 3.033-6.425 7.461 0 3.964 2.116 6.972 5.66 6.972 2.388 0 3.669-.929 4.283-1.517v-4.062l-3.002-.585v-.391H228v.39l-2.02.586v3.867" id="Fill-125" fill="#6B9A57" mask="url(#mask-4)"/><path d="M227.99 64.125l-1.99.525V65h5.254v-.35l-2.118-.525 1.82-4.331h4.852l1.633 4.331-2.458.525V65H241v-.35l-1.865-.525L234.22 51h-.064l-6.165 13.125zm5.551-10.368l1.992 5.337h-4.28l2.288-5.337z" id="Fill-126" fill="#6B9A57" mask="url(#mask-4)"/><path d="M241 65h5.95v-.358l-2.012-.536V58.38l1.968.09 3.259 4.294c1.27 1.676 1.924 2.034 4.835 2.236v-.358c-.656-.179-1.596-.425-2.842-2.014l-3.675-4.652c1.222-.311 3.367-1.185 3.367-3.643 0-1.947-1.29-3.333-4.725-3.333H241v.359l2.276.535v12.212l-2.276.536V65zm3.938-13.195c.614-.113 1.268-.18 1.727-.18 1.948 0 3.436.628 3.436 2.728 0 3.377-3.085 3.401-5.163 3.58v-6.128z" id="Fill-127" fill="#6B9A57" mask="url(#mask-4)"/><path d="M255 65h6.053c3.785 0 7.947-1.342 7.947-7.068 0-5.837-4.246-6.932-7.694-6.932H255v.359l2.187.535v12.212l-2.187.536V65zm3.783-13.195c.926-.134 1.767-.18 2.229-.18 3.846 0 6.137 1.925 6.137 6.307 0 4.16-2.122 6.352-6.22 6.352-.715 0-1.494-.089-2.146-.178V51.805z" id="Fill-128" fill="#6B9A57" mask="url(#mask-4)"/><path d="M270 64.642l2.143-.537v-12.21L270 51.358V51h10.216v3.98h-.37c-.413-2.615-.721-3.177-2.347-3.177h-3.792v5.503l3.172-.09.494-2.19h.33v5.188h-.35l-.474-2.191-3.172-.09v6.172h4.305c1.71 0 2.08-.135 2.616-4.203H281V65h-11v-.358" id="Fill-129" fill="#6B9A57" mask="url(#mask-4)"/><path id="Fill-130" fill="#6B9A57" mask="url(#mask-4)" d="M282 65.344l2.135-.526.088-11.943L282 52.35V52h3.951l8.4 10.5.042-.043-.343-9.582-2.948-.525V52H297v.35l-1.795.525L295.034 66h-.063l-9.98-12.644-.044.043.343 11.42 2.67.525v.35H282z"/><path d="M82.044 80.82l1.193-.268 1.215-6.106-1.085-.269.044-.177H89l-.424 2.102h-.282c-.109-1.656-.02-1.702-.933-1.702h-1.8l-.543 2.753 1.616-.045.456-1.006h.217l-.489 2.504h-.216l-.044-1.096-1.606-.046-.607 3.088h2.105c1.27 0 1.15-.09 1.975-2.08h.282L88.218 81H82l.044-.18" id="Fill-131" fill="#77CCD3" mask="url(#mask-4)"/><path d="M91.041 81a3.326 3.326 0 01-.041-.475c0-.66.226-1.035 1.222-1.648l.934-.573-.216-.831a4.089 4.089 0 00-.277-.78l-1.17-.041-.092-.157L93.34 76c.164.258.36.79.483 1.266l.163.652.555-.425c.482-.366.667-.742.74-1.355l.677-.138c.02.138.041.258.041.396 0 .375-.196.642-1.006 1.155l-.944.604.235.92c.093.364.237.68.39.917l1.13-.297.052.159-1.86.89c-.277-.416-.41-.792-.605-1.542l-.174-.66-.586.461c-.728.585-.841 1.02-.914 1.74L91.04 81" id="Fill-132" fill="#77CCD3" mask="url(#mask-4)"/><path d="M98.544 81.256c1.338 0 2.385-2.722 2.385-3.85 0-.456-.2-.749-.512-.749-1.07 0-2.263 2.522-2.708 4.107.19.245.479.492.835.492m-3.477 2.558l1.06-.282.991-4.763c.156-.74.3-1.467.312-1.946l-1.182-.05-.067-.185L98.456 76c0 .81-.09 1.865-.457 3.202l.022.023c.401-.936 1.382-3.225 2.987-3.225.502 0 .992.434.992 1.28 0 1.455-1.272 4.351-3.11 4.351-.446 0-.858-.164-1.237-.4l-.501 2.301 1.292.282-.045.186H95l.067-.186" id="Fill-133" fill="#77CCD3" mask="url(#mask-4)"/><path d="M104.66 81a3.796 3.796 0 01-.204-1.25c0-.53.24-1.667.456-2.606l.78-3.37-1.62-.045-.072-.178 2.915-.551-.947 4.287c-.264 1.205-.408 2.033-.408 2.398 0 .121.011.287.036.475l1.32-.332.084.178-2.34.994" id="Fill-134" fill="#77CCD3" mask="url(#mask-4)"/><path d="M109.942 80.708c1.327 0 1.987-2.582 1.987-3.395 0-.584-.224-1.02-.871-1.02-1.329 0-1.986 2.584-1.986 3.394 0 .584.223 1.02.87 1.02M108 79.303c0-1.478 1.027-3.302 2.957-3.302 1.284 0 2.043.646 2.043 1.698 0 1.48-1.027 3.302-2.957 3.302-1.284 0-2.043-.646-2.043-1.698" id="Fill-135" fill="#77CCD3" mask="url(#mask-4)"/><path d="M114.345 80.896c.404-1.324.881-3.258.881-4.16l-1.19-.043-.036-.168 2.322-.525a8.67 8.67 0 01-.536 3.046l.023.022c.513-1.135 1.572-3.068 2.608-3.068.202 0 .404.117.583.21l-.297.735c-.227-.074-.441-.126-.597-.126-1.094 0-2.344 2.743-2.808 4.181l-.953-.104" id="Fill-136" fill="#77CCD3" mask="url(#mask-4)"/><path d="M121.791 77.865c.745-.323 1.29-.592 1.29-1.063 0-.156-.074-.468-.682-.468-.98 0-1.8 1.188-2.071 2.156l1.463-.625zm1.39 2.447c-.559.24-1.589.688-2.568.688-1.079 0-1.613-.52-1.613-1.52 0-1.72 1.279-3.48 3.795-3.48.522 0 1.205.105 1.205.679 0 .258-.087.54-.162.727l-3.559 1.377c-.05.26-.087.56-.087.82 0 .533.309 1.022.918 1.022 1.017 0 1.86-.947 2.281-1.657h.272l-.482 1.344z" id="Fill-137" fill="#77CCD3" mask="url(#mask-4)"/><path d="M134.337 77.928v.023c.584.02 1.17.127 1.607.3.057.149.1.341.1.524 0 1.048-1.359 2.225-3.874 2.225-2.001 0-3.17-.598-3.17-1.809 0-1.604 1.888-2.01 3.158-2.097v-.021c-.54-.15-1.404-.45-1.404-1.404 0-.802.651-1.669 2.156-1.669.54 0 1.203.15 1.708.3l-.168 1.455h-.27c-.168-.523-.27-1.455-1.168-1.455-.743 0-1.293.642-1.293 1.519 0 1.051.764 1.114 1.247 1.135l-.135.3c-1.751.139-2.684.846-2.684 1.885 0 .984.82 1.562 2.146 1.562 1.685 0 2.853-.942 2.853-1.862 0-.365-.28-.664-.73-.664-.596 0-1.033.514-1.337.858l-.18-.077.753-1.188 2.674-1.702c.9-.578 1.09-.878 1.495-1.487l.179.085c-.202.663-.427 1.658-1.191 2.045l-2.472 1.22" id="Fill-138" fill="#77CCD3" mask="url(#mask-4)"/><path d="M143.557 80.553c.237.045.628.088.96.088 2.499 0 4.181-1.486 4.181-3.99 0-1.656-1.09-2.337-2.76-2.337-.39 0-.663.045-1.054.1l-1.327 6.14zm-2.51.269l1.303-.269 1.326-6.106-1.184-.269.047-.178h3.517c2.369 0 3.944.816 3.944 2.807 0 2.605-2.025 4.193-5.2 4.193H141l.046-.178z" id="Fill-139" fill="#77CCD3" mask="url(#mask-4)"/><path d="M152.845 73.73c0-.382.26-.73.633-.73.328 0 .522.18.522.55 0 .382-.26.731-.634.731-.33 0-.52-.18-.52-.55M151.928 81c-.252-.52-.329-.844-.329-1.328 0-1.19.725-2.525.725-3.278l-1.269-.046-.056-.18 2.478-.562c0 1.316-.837 2.832-.837 3.978 0 .145.012.348.068.56l1.211-.335.056.179L151.93 81" id="Fill-140" fill="#77CCD3" mask="url(#mask-4)"/><path d="M158.43 77.656c-.054-.5-.176-1.365-1.45-1.365-.663 0-1.096.313-1.096.646 0 .958 2.927.968 2.927 2.562 0 .855-.977 1.501-2.169 1.501-1.381 0-2.046-.416-2.642-.677l.393-1.47.353-.062c0 .854.149 1.876 1.774 1.876.692 0 1.288-.418 1.288-.845 0-1.01-2.929-1.187-2.929-2.498 0-.772.897-1.324 2.048-1.324.893 0 1.585.229 2.073.385l-.217 1.197-.352.074" id="Fill-141" fill="#77CCD3" mask="url(#mask-4)"/><path d="M164.096 80.333c-.646.28-1.486.667-2.425.667-1.049 0-1.671-.458-1.671-1.48 0-1.582 1.329-3.52 3.682-3.52.718 0 1.318.178 1.318.707 0 .157-.05.335-.1.5l-1 .273c.136-.22.196-.47.196-.646 0-.354-.304-.5-.646-.5-1.316 0-2.279 1.906-2.279 3.25 0 .604.28 1.04.952 1.04.987 0 1.768-1.01 2.217-1.624h.269l-.513 1.333" id="Fill-142" fill="#77CCD3" mask="url(#mask-4)"/><path d="M167.942 80.708c1.329 0 1.987-2.582 1.987-3.395 0-.584-.224-1.02-.871-1.02-1.327 0-1.986 2.584-1.986 3.394 0 .584.223 1.02.87 1.02M166 79.303c0-1.478 1.027-3.302 2.957-3.302 1.284 0 2.043.646 2.043 1.698 0 1.48-1.027 3.302-2.957 3.302-1.284 0-2.043-.646-2.043-1.698" id="Fill-143" fill="#77CCD3" mask="url(#mask-4)"/><path d="M176.544 76c.24.274.456.608.456 1.103 0 1.054-1.637 3.897-3.536 3.897-.552 0-.944-.293-.944-.85 0-.81.716-2.156.726-3.299l-1.192-.042-.054-.16 2.202-.508c.021.142.042.406.042.61 0 1.153-.726 2.549-.726 3.238 0 .273.184.445.499.445.988 0 2.181-1.61 2.181-3.157 0-.416-.131-.79-.283-1.136l.63-.141" id="Fill-144" fill="#77CCD3" mask="url(#mask-4)"/><path d="M180.792 77.865c.744-.323 1.29-.592 1.29-1.063 0-.156-.073-.468-.682-.468-.982 0-1.8 1.188-2.072 2.156l1.464-.625zm1.39 2.447c-.559.24-1.59.688-2.569.688-1.079 0-1.613-.52-1.613-1.52 0-1.72 1.277-3.48 3.795-3.48.522 0 1.205.105 1.205.679 0 .258-.087.54-.16.727l-3.563 1.377a4.69 4.69 0 00-.085.82c0 .533.31 1.022.915 1.022 1.02 0 1.863-.947 2.284-1.657h.274l-.483 1.344z" id="Fill-145" fill="#77CCD3" mask="url(#mask-4)"/><path d="M183.345 80.896c.405-1.324.882-3.258.882-4.16l-1.191-.043-.036-.168 2.32-.525c0 .578-.034 1.671-.535 3.046l.024.022c.511-1.135 1.57-3.068 2.607-3.068.202 0 .404.117.584.21l-.298.735c-.227-.074-.44-.126-.597-.126-1.094 0-2.343 2.743-2.808 4.181l-.952-.104" id="Fill-146" fill="#77CCD3" mask="url(#mask-4)"/><path d="M193.648 81c-.13-.354-.233-.66-.233-1.308 0-.342.09-.907.3-1.84l.386-1.731H193l.08-.188 1.281-.237L195.383 74h.44l-.414 1.696H197l-.103.425h-1.594l-.4 1.732c-.156.672-.297 1.32-.297 1.626 0 .177.026.46.04.625l1.408-.354.064.19-2.47 1.06" id="Fill-147" fill="#77CCD3" mask="url(#mask-4)"/><path d="M198 80.846l1.624-7.072-1.554-.045-.058-.176L200.81 73l-1.406 5.9.023.023c.629-1.26 1.707-3.227 3.112-3.227.626 0 .962.332.962.873 0 .176-.115.686-.242 1.083l-.349 1.105c-.14.442-.197.75-.197.961 0 .122.01.3.068.442l1.162-.332.058.178-2.008.994a2.257 2.257 0 01-.348-1.237c0-.21.104-.707.174-.94l.371-1.183c.164-.508.244-.784.244-.938 0-.254-.07-.387-.394-.387-.989 0-2.46 2.42-3.112 4.64l-.927-.11" id="Fill-148" fill="#77CCD3" mask="url(#mask-4)"/><path d="M206.792 77.865c.745-.323 1.29-.592 1.29-1.063 0-.156-.074-.468-.681-.468-.982 0-1.8 1.188-2.073 2.156l1.464-.625zm1.391 2.447c-.56.24-1.59.688-2.57.688-1.078 0-1.613-.52-1.613-1.52 0-1.72 1.277-3.48 3.796-3.48.522 0 1.204.105 1.204.679 0 .258-.087.54-.16.727l-3.563 1.377c-.05.26-.085.56-.085.82 0 .533.31 1.022.916 1.022 1.018 0 1.862-.947 2.284-1.657h.276l-.485 1.344z" id="Fill-149" fill="#77CCD3" mask="url(#mask-4)"/><path id="Fill-150" fill="#77CCD3" mask="url(#mask-4)" d="M213.048 80.82l1.026-.268 1.722-6.106-1.363-.269.048-.177h2.33l1.576 5.545 3.2-5.545H224l-.048.177-1.134.269-.706 6.106 1.077.268-.048.18h-3.608l.048-.18 1.385-.268.633-5.458-.024-.02L217.837 81h-.239l-1.648-5.927h-.023l-1.255 5.479 1.386.268-.049.18H213z"/><path d="M226.565 80.435c.948 0 2.211-1.905 2.748-3.448-.136-.16-.393-.503-.894-.503-1.274 0-2.347 2.47-2.347 3.326 0 .395.168.625.493.625m2.412.565c-.213-.403-.257-.666-.257-1.14 0-.412.189-1.29.381-1.794l-.024-.02c-.536 1.32-1.71 2.954-3.005 2.954-.75 0-1.072-.474-1.072-1.14 0-.998 1.364-3.698 3.13-3.698.579 0 .971.24 1.35.423l1.306-.585c-.57 1.05-1.106 2.59-1.106 3.489 0 .242.045.543.069.745l1.196-.303.055.16-2.023.909" id="Fill-151" fill="#77CCD3" mask="url(#mask-4)"/><path d="M232.315 80.854c.38-1.312.83-3.23.83-4.125l-1.09-.042-.055-.166 2.176-.521c0 .573-.035 1.781-.504 3.02l.02.022c.607-1.188 1.582-3.042 2.94-3.042.605 0 .93.313.93.823 0 .166-.111.646-.235 1.02l-.337 1.043c-.134.416-.19.707-.19.906 0 .114.011.281.068.416l1.076-.313.056.168-1.895.937a2.088 2.088 0 01-.336-1.166c0-.199.1-.667.168-.886l.357-1.115c.157-.48.237-.74.237-.885 0-.24-.068-.364-.382-.364-.952 0-2.31 2.281-2.94 4.374l-.894-.104" id="Fill-152" fill="#77CCD3" mask="url(#mask-4)"/><path d="M243.623 78.381l-.021-.024c-.638 1.549-1.549 3.274-2.795 3.274-.564 0-.824-.423-.824-.904 0-.41.219-1.09.444-1.817.218-.727.434-1.503.434-2.087l-1.192-.05-.054-.186 2.2-.587c.032.2.043.457.043.68 0 1.315-.877 2.886-.877 3.872 0 .233.087.422.303.422 1.202 0 2.426-3.32 2.848-4.928l.868.118c-.326 1.28-.543 2.78-.834 4.26-.434 2.18-.91 3.576-3.197 3.576a3.89 3.89 0 01-1.969-.562l.334-1.385h.294c-.013.119-.034.281-.034.435 0 .75.53 1.184 1.245 1.184 1.604 0 2.058-1.514 2.439-3.496l.345-1.795" id="Fill-153" fill="#77CCD3" mask="url(#mask-4)"/><path id="Fill-154" fill="#77CCD3" mask="url(#mask-4)" d="M251.08 74.437l-1.08-.263.046-.174h3.524l-.048.174-1.315.263.575 4.987h.023L255.693 74h.281l.682 5.424h.023l2.607-4.987-1.362-.263.047-.174H261l-.046.174-1.01.263-3.84 6.563h-.422l-.563-4.9h-.024L252.23 81h-.422z"/><path d="M262.943 80.708c1.327 0 1.986-2.582 1.986-3.395 0-.584-.223-1.02-.87-1.02-1.33 0-1.99 2.584-1.99 3.394 0 .584.225 1.02.874 1.02M261 79.303c0-1.478 1.026-3.302 2.958-3.302 1.284 0 2.042.646 2.042 1.698 0 1.48-1.026 3.302-2.957 3.302-1.284 0-2.043-.646-2.043-1.698" id="Fill-155" fill="#77CCD3" mask="url(#mask-4)"/><path d="M267.313 80.854c.381-1.312.83-3.23.83-4.125l-1.087-.042-.056-.166 2.175-.521c0 .573-.034 1.781-.504 3.02l.02.022c.608-1.188 1.584-3.042 2.941-3.042.605 0 .931.313.931.823 0 .166-.112.646-.235 1.02l-.337 1.043c-.135.416-.19.707-.19.906 0 .114.01.281.067.416l1.076-.313.056.168-1.895.937a2.088 2.088 0 01-.337-1.166c0-.199.101-.667.169-.886l.358-1.115c.157-.48.236-.74.236-.885 0-.24-.067-.364-.38-.364-.954 0-2.312 2.281-2.941 4.374l-.897-.104" id="Fill-156" fill="#77CCD3" mask="url(#mask-4)"/><path d="M275.6 80.38c1.055 0 2.244-2.331 2.7-3.822-.122-.244-.41-.508-.878-.508-1.3 0-2.356 2.563-2.356 3.645 0 .443.2.686.534.686m2.379.619c-.19-.442-.235-.73-.235-1.25 0-.496.167-1.225.267-1.723l-.022-.02c-.5 1.159-1.468 2.993-2.956 2.993-.577 0-1.033-.52-1.033-1.25 0-1.237 1.211-4.054 3.112-4.054.577 0 .9.22 1.276.419l.479-2.343-1.477-.043-.068-.178L280 73l-1.011 4.52c-.232 1.048-.289 1.757-.289 2 0 .209.022.484.045.64l1.145-.332.055.176-1.966.996" id="Fill-157" fill="#77CCD3" mask="url(#mask-4)"/><path d="M283.79 77.865c.746-.323 1.29-.592 1.29-1.063 0-.156-.073-.468-.682-.468-.981 0-1.798 1.188-2.071 2.156l1.464-.625zm1.39 2.447c-.56.24-1.59.688-2.567.688-1.08 0-1.613-.52-1.613-1.52 0-1.72 1.277-3.48 3.795-3.48.52 0 1.205.105 1.205.679 0 .258-.089.54-.162.727l-3.561 1.377c-.05.26-.086.56-.086.82 0 .533.309 1.022.916 1.022 1.018 0 1.861-.947 2.283-1.657h.273l-.482 1.344z" id="Fill-158" fill="#77CCD3" mask="url(#mask-4)"/><path d="M287.345 80.896c.404-1.324.883-3.258.883-4.16l-1.192-.043-.036-.168 2.322-.525c0 .578-.037 1.671-.538 3.046l.025.022c.513-1.135 1.572-3.068 2.608-3.068.202 0 .404.117.583.21l-.298.735c-.226-.074-.439-.126-.596-.126-1.094 0-2.345 2.743-2.808 4.181l-.953-.104" id="Fill-159" fill="#77CCD3" mask="url(#mask-4)"/><path d="M295.43 77.656c-.053-.5-.176-1.365-1.449-1.365-.665 0-1.098.313-1.098.646 0 .958 2.928.968 2.928 2.562 0 .855-.977 1.501-2.17 1.501-1.381 0-2.046-.416-2.641-.677l.393-1.47.353-.062c0 .854.148 1.876 1.774 1.876.691 0 1.29-.418 1.29-.845 0-1.01-2.93-1.187-2.93-2.498 0-.772.895-1.324 2.046-1.324.896 0 1.586.229 2.074.385l-.216 1.197-.354.074" id="Fill-160" fill="#77CCD3" mask="url(#mask-4)"/><path d="M76.782.5a.282.282 0 11-.563 0 .282.282 0 01.563 0" id="Fill-161" fill="#9E76B3" mask="url(#mask-4)"/><path d="M76.782 3.5a.282.282 0 11-.563 0 .282.282 0 01.563 0" id="Fill-162" fill="#9E76B3" mask="url(#mask-4)"/><path d="M76.782 5.5a.282.282 0 11-.563 0 .282.282 0 01.563 0" id="Fill-163" fill="#9E76B3" mask="url(#mask-4)"/><path d="M76.782 9.5a.282.282 0 11-.563 0 .282.282 0 01.563 0" id="Fill-164" fill="#9E76B3" mask="url(#mask-4)"/><path d="M76.782 12.5a.281.281 0 11-.563 0 .281.281 0 01.563 0" id="Fill-165" fill="#9E76B3" mask="url(#mask-4)"/><path d="M76.782 15.5a.281.281 0 11-.563 0 .281.281 0 01.563 0" id="Fill-166" fill="#9E76B3" mask="url(#mask-4)"/><path d="M76.782 17.5a.282.282 0 11-.563 0 .282.282 0 01.563 0" id="Fill-167" fill="#9E76B3" mask="url(#mask-4)"/><path d="M76.782 21.5a.282.282 0 11-.563 0 .282.282 0 01.563 0" id="Fill-168" fill="#9E76B3" mask="url(#mask-4)"/><path d="M76.782 24.5a.282.282 0 11-.563 0 .282.282 0 01.563 0" id="Fill-169" fill="#9E76B3" mask="url(#mask-4)"/><path d="M76.782 26.5a.282.282 0 11-.563 0 .282.282 0 01.563 0" id="Fill-170" fill="#9E76B3" mask="url(#mask-4)"/><path d="M76.782 29.5a.282.282 0 11-.563 0 .282.282 0 01.563 0" id="Fill-171" fill="#9E76B3" mask="url(#mask-4)"/><path d="M76.782 33.5a.282.282 0 11-.563 0 .282.282 0 01.563 0" id="Fill-172" fill="#9E76B3" mask="url(#mask-4)"/><path d="M76.782 36.5a.282.282 0 11-.565 0 .282.282 0 01.565 0" id="Fill-173" fill="#9E76B3" mask="url(#mask-4)"/><path d="M76.782 38.5a.281.281 0 11-.563 0 .281.281 0 01.563 0" id="Fill-174" fill="#9E76B3" mask="url(#mask-4)"/><path d="M76.782 41.5a.281.281 0 11-.563 0 .281.281 0 01.563 0" id="Fill-175" fill="#9E76B3" mask="url(#mask-4)"/><path d="M76.782 45.5a.282.282 0 11-.563 0 .282.282 0 01.563 0" id="Fill-176" fill="#9E76B3" mask="url(#mask-4)"/><path d="M76.782 47.5a.282.282 0 11-.563 0 .282.282 0 01.563 0" id="Fill-177" fill="#9E76B3" mask="url(#mask-4)"/><path d="M76.782 50.5a.282.282 0 11-.563 0 .282.282 0 01.563 0" id="Fill-178" fill="#9E76B3" mask="url(#mask-4)"/><path d="M76.782 53.5a.282.282 0 11-.563 0 .282.282 0 01.563 0" id="Fill-179" fill="#9E76B3" mask="url(#mask-4)"/><path d="M76.782 57.5a.282.282 0 11-.563 0 .282.282 0 01.563 0" id="Fill-180" fill="#9E76B3" mask="url(#mask-4)"/><path d="M76.782 59.5a.282.282 0 11-.563 0 .282.282 0 01.563 0" id="Fill-181" fill="#9E76B3" mask="url(#mask-4)"/><path d="M76.782 62.5a.281.281 0 11-.563 0 .281.281 0 01.563 0" id="Fill-182" fill="#9E76B3" mask="url(#mask-4)"/><path d="M76.782 65.5a.281.281 0 11-.563 0 .281.281 0 01.563 0" id="Fill-183" fill="#9E76B3" mask="url(#mask-4)"/><path d="M76.782 68.5a.282.282 0 11-.563 0 .282.282 0 01.563 0" id="Fill-184" fill="#9E76B3" mask="url(#mask-4)"/><path d="M76.782 71.5a.282.282 0 11-.563 0 .282.282 0 01.563 0" id="Fill-185" fill="#9E76B3" mask="url(#mask-4)"/><path d="M76.782 74.5a.282.282 0 11-.563 0 .282.282 0 01.563 0" id="Fill-186" fill="#9E76B3" mask="url(#mask-4)"/><path d="M76.782 77.5a.282.282 0 11-.563 0 .282.282 0 01.563 0" id="Fill-187" fill="#9E76B3" mask="url(#mask-4)"/><path d="M76.782 80.5a.282.282 0 11-.563 0 .282.282 0 01.563 0" id="Fill-188" fill="#9E76B3" mask="url(#mask-4)"/></g></g></g></g></svg>