<svg width="19" height="19" xmlns="http://www.w3.org/2000/svg"><g id="Page-1" stroke="none" stroke-width="1" fill="none" fill-rule="evenodd"><g id="Homepage-3" transform="translate(-439 -66)" fill="#3959A8"><g id="social" transform="translate(300 64)"><path d="M141.618 19a.62.62 0 01-.616-.625V9h2.462c-.32.469-.429 1.343-.429 1.898 0 3.347 2.163 6.07 5.466 6.07 3.304 0 5.513-2.723 5.513-6.07 0-.555-.078-1.416-.476-1.898H156v9.375a.62.62 0 01-.615.625h-13.767zM152 11.626a3.5 3.5 0 11-7 0 3.5 3.5 0 017 0zM155.4 4a.6.6 0 01.6.6v1.8a.6.6 0 01-.6.6h-1.8a.6.6 0 01-.6-.6V4.6a.6.6 0 01.6-.6h1.8zm-14.141-2A2.256 2.256 0 00139 4.253v14.494A2.256 2.256 0 00141.259 21h14.482A2.256 2.256 0 00158 18.747V4.253C158 3.01 155.741 2 155.741 2H141.26z" id="Fill-23"/></g></g></g></svg>