<svg width="146" height="60" xmlns="http://www.w3.org/2000/svg"><g id="Page-1" stroke="none" stroke-width="1" fill="none" fill-rule="evenodd"><g id="Homepage-3" transform="translate(-66 -44)" fill-rule="nonzero"><g id="logo-McKee-1" transform="translate(66 44)"><path id="Rectangle" fill="#F6D32E" d="M50 0h7v7h-7z"/><path id="Path" fill="#000" d="M10 42.691l4.083-1.05.975-23.891-4.613-1.05V16h8.297l10.116 21.612L37.82 16h8.516v.7l-4.346 1.05 1.11 23.886 3.9 1.055v.7H34.58v-.7l5.148-1.05-1.066-23.014h-.089L27.933 44h-.14L16.567 19.058h-.09v22.573l5.414 1.06v.7H10zm52.605-6.377C61.58 36.809 59.347 38 56.118 38 50.088 38 47 34.106 47 28.904 47 22.86 50.887 19 56.484 19c2.515 0 4.801.96 5.944 1.628v4.243h-.512c-.314-1.6-.77-4.942-5.117-4.942-4.6 0-7.287 3.603-7.287 8.862 0 4.707 2.572 8.281 6.86 8.281 4.944 0 5.344-3.312 6.115-5.753H63l-.395 4.995zM65 42.285l4.664-1.074V16.79L65 15.716V15h12.017v.716l-3.945 1.073v13.149l11.346-13.15-3.947-1.072V15h11.39v.716l-4.485 1.073-9.46 9.66 13.407 14.759L95 42.285V43H82.538v-.715l4.484-1.074L75.677 28.69l-2.605 2.679v9.839l3.945 1.077V43H65z"/><path d="M94 42.388l3.895-.921V20.533L94 19.613V19h18.576v6.823h-.673c-.748-4.485-1.311-5.444-4.27-5.444h-6.892v9.432l5.767-.153.9-3.758h.6v8.895h-.637l-.863-3.757-5.767-.153v10.582h7.828c3.108 0 3.782-.231 4.757-7.209H114V43H94v-.612zm22 0l3.896-.921V20.533l-3.896-.92V19h18.575v6.823h-.674c-.748-4.485-1.311-5.444-4.27-5.444h-6.89v9.432l5.767-.153.898-3.758h.6v8.895h-.637l-.86-3.757-5.767-.153v10.582h7.826c3.108 0 3.782-.231 4.755-7.209H136V43h-19.998l-.002-.612z" id="Path" fill="#000"/><path id="Rectangle" fill="#000" d="M55 40h3v3h-3z"/><path d="M3.04 54.448a7.32 7.32 0 01.59-.036c1.654 0 4.019.317 4.019 2.636 0 1.476-1.098 2.389-3.056 2.389-.524 0-1.03-.088-1.554-.14v-4.849zm0-4.814a8.3 8.3 0 011.35-.136c1.452 0 2.65.405 2.65 1.938 0 2.143-1.805 2.6-4 2.6v-4.402zM0 60h4.576C7.277 60 9 58.91 9 56.942c0-2.354-2.398-2.652-3.343-2.758v-.037c.91-.21 2.73-.947 2.73-2.617 0-1.985-1.554-2.53-3.208-2.53H0v.282l1.756.42v9.593L0 59.717V60zm11.329-5.015c0-2.646 1.273-4.497 3.638-4.497 2.364 0 3.696 1.79 3.696 4.527 0 2.615-1.228 4.495-3.696 4.495-2.305 0-3.638-1.79-3.638-4.525zM14.804 60C18.01 60 20 58.028 20 54.846 20 51.834 18.122 50 15.213 50 12.03 50 10 51.972 10 55.06 9.996 58.09 11.693 60 14.8 60h.004z" id="Shape" fill="#000"/><path d="M22.201 59.77l1.743-.346v-7.908H21.91c-1.146 0-1.363.39-1.654 2.259H20V51h9v2.775h-.256c-.29-1.87-.512-2.259-1.654-2.259h-2.046v7.908l1.742.345V60h-4.585v-.23z" id="Path" fill="#000"/><path d="M34.026 51.764l1.326 3.437h-2.851l1.525-3.437zm-3.7 6.668L29 58.769v.226h3.5v-.22l-1.412-.338 1.215-2.786h3.237l1.088 2.786-1.638.337V59H39v-.226l-1.245-.337L34.479 50h-.042l-4.11 8.432z" id="Shape" fill="#000"/><path id="Path" fill="#000" d="M39 59.58l1.425-.337.056-7.68L39 51.224V51h2.639l5.597 6.752.029-.028-.229-6.162-1.965-.337V51H49v.225l-1.194.337L47.693 60h-.042l-6.66-8.131-.027.028.227 7.344 1.78.337v.226H39zm11 .19l1.466-.346v-7.85L50 51.23V51h4v.23l-1.465.344v7.85L54 59.77V60h-4zm13.8-.656c-.513.259-1.628.886-3.242.886C57.544 60 56 57.951 56 55.214 56 52.034 57.943 50 60.744 50a6.022 6.022 0 012.971.856v2.233h-.252c-.157-.842-.387-2.6-2.558-2.6-2.3 0-3.642 1.896-3.642 4.663 0 2.478 1.285 4.358 3.428 4.358 2.472 0 2.671-1.742 3.057-3.026H64l-.2 2.63z"/><path d="M69.024 51.764l1.327 3.432h-2.85l1.523-3.432zm-3.698 6.668L64 58.769v.226h3.502v-.22l-1.41-.338 1.213-2.786h3.237l1.087 2.786-1.637.337V59H74v-.226l-1.245-.337L69.481 50h-.042l-4.113 8.432z" id="Shape" fill="#000"/><path d="M74 59.726l1.603-.302v-7.85L74 51.23V51h4.502v.23l-1.727.344v7.85h2.914c1.479 0 1.74-.748 2.04-2.645H82V60h-8v-.274zm23.608-1.442a.65.65 0 00.136.42c-.897.506-2.64 1.296-4.52 1.296C89.79 60 88 57.746 88 54.736 88 51.238 90.301 49 93.619 49c1.493 0 3.062.572 3.722.943v2.455h-.305c-.185-.926-.559-2.859-3.13-2.859-2.826 0-4.417 2.086-4.417 5.13 0 2.719 1.455 4.792 3.892 4.792 1.642 0 2.522-.638 2.945-1.042v-2.792l-2.065-.404v-.268H99v.268l-1.388.404-.004 2.657z" id="Path" fill="#000"/><path d="M103.026 51.764l1.328 3.432h-2.852l1.524-3.432zm-3.698 6.673L98 58.774V59h3.502v-.226l-1.412-.337 1.214-2.786h3.238l1.087 2.786-1.638.337V59H108v-.226l-1.245-.337L103.478 50h-.04l-4.11 8.437zm11.207-6.921a6.837 6.837 0 011.11-.114c1.253 0 2.21.402 2.21 1.753 0 2.17-1.986 2.185-3.32 2.3v-3.939zM108 59.997h3.83v-.23l-1.295-.345v-3.677l1.266.057 2.096 2.76c.817 1.078 1.241 1.309 3.103 1.438v-.233c-.42-.116-1.026-.273-1.828-1.293l-2.359-2.99c.789-.201 2.168-.76 2.168-2.343 0-1.251-.83-2.141-3.04-2.141H108v.23l1.465.344v7.848l-1.465.345v.23zm11.702-8.481a13.597 13.597 0 011.589-.114c2.748 0 4.385 1.236 4.385 4.058 0 2.675-1.517 4.083-4.445 4.083a13.061 13.061 0 01-1.532-.115l.003-7.912zM117 60h4.324c2.703 0 5.676-.864 5.676-4.544 0-3.752-3.034-4.456-5.496-4.456h-4.503v.23l1.562.344v7.85L117 59.77V60z" id="Shape" fill="#000"/><path d="M127 59.77l1.558-.346v-7.85L127 51.23V51h7.434v2.558h-.264c-.3-1.682-.529-2.042-1.71-2.042h-2.757v3.538l2.308-.058.36-1.409h.24v3.335h-.257l-.345-1.409-2.308-.057v3.968h3.132c1.244 0 1.514-.086 1.903-2.702H135V60h-8v-.23zm9-.19l1.424-.337.057-7.68-1.481-.338V51h2.638l5.596 6.752.029-.028-.229-6.162-1.964-.337V51H146v.225l-1.197.337L144.69 60h-.043l-6.65-8.131-.029.028.229 7.344 1.78.337v.226H136z" id="Path" fill="#000"/><path id="Rectangle" fill="#F6D32E" d="M63 0h7v7h-7zm13 0h7v7h-7zm13 0h7v7h-7z"/></g></g></g></svg>