<svg width="96" height="96" xmlns="http://www.w3.org/2000/svg"><defs><filter id="filter-1"><feColorMatrix in="SourceGraphic" values="0 0 0 0 1.000000 0 0 0 0 1.000000 0 0 0 0 1.000000 0 0 0 1.000000 0"/></filter></defs><g id="Page-1" stroke="none" stroke-width="1" fill="none" fill-rule="evenodd"><g id="TC_L" transform="translate(-628 -4905)" filter="url(#filter-1)"><g transform="translate(628 4905)"><path id="Rectangle" d="M0 0h96v96H0z"/><path d="M32 87.746l3.158-2.947c.374-.278.608-.711.64-1.183a.809.809 0 00-.256-.618.764.764 0 00-.624-.2.875.875 0 00-.642.271.924.924 0 00-.255.662h-1.992c0-1.418.967-2.731 2.93-2.731 1.816 0 2.972.963 2.972 2.496 0 1.183-.625 1.914-1.454 2.612l-1.264 1.067H38V89h-6v-1.254z" id="Path" fill="#000" fill-rule="nonzero"/><path d="M39 86c0-2.222 1.588-4 3.998-4S47 83.778 47 86s-1.591 4-4.002 4C40.588 90 39 88.222 39 86zm5.992 0c-.03-1.117-.935-2.001-2.028-1.981-1.094.02-1.968.936-1.959 2.053.01 1.118.9 2.019 1.993 2.019a1.92 1.92 0 001.447-.598c.379-.398.577-.94.547-1.493z" id="Shape" fill="#000" fill-rule="nonzero"/><path d="M48 87.746l3.154-2.947c.375-.277.61-.71.644-1.183a.809.809 0 00-.257-.62.764.764 0 00-.626-.197.875.875 0 00-.642.27.924.924 0 00-.256.662h-1.992c0-1.418.97-2.731 2.933-2.731 1.817 0 2.973.963 2.973 2.496 0 1.183-.629 1.914-1.454 2.612l-1.264 1.067H54V89h-6v-1.254z" id="Path" fill="#000" fill-rule="nonzero"/><path d="M55 86c0-2.222 1.588-4 4.002-4C61.416 82 63 83.778 63 86s-1.588 4-3.998 4S55 88.222 55 86zm5.992 0c-.03-1.118-.935-2.002-2.03-1.981-1.094.02-1.968.938-1.957 2.056.011 1.118.902 2.018 1.997 2.016a1.915 1.915 0 001.445-.599c.378-.397.576-.938.545-1.492zM47.5 33C35.626 33 26 42.626 26 54.5S35.626 76 47.5 76 69 66.374 69 54.5 59.374 33 47.5 33zm0 40.596c-10.547 0-19.096-8.55-19.096-19.096 0-10.547 8.55-19.096 19.096-19.096 10.547 0 19.096 8.55 19.096 19.096 0 10.547-8.55 19.096-19.096 19.096zM42.715 55.96a2.632 2.632 0 11-5.263.038 2.632 2.632 0 015.263-.038zm14.833 0a2.613 2.613 0 11-2.613-2.612 2.632 2.632 0 012.613 2.612zm2.367-5.475l2.426-2.64h-5.379a16.797 16.797 0 00-18.91 0H32.66l2.426 2.64a7.417 7.417 0 1010.037 10.921l2.378 2.587 2.378-2.583a7.418 7.418 0 1010.037-10.925zM40.083 60.987a5.02 5.02 0 115.017-5.02 5.02 5.02 0 01-5.017 5.013v.007zm7.417-5.173c0-3.303-2.404-6.137-5.57-7.35a14.498 14.498 0 0111.14 0c-3.166 1.213-5.57 4.047-5.57 7.35zm7.417 5.166a5.02 5.02 0 11-.008-10.04 5.02 5.02 0 01.008 10.04z" id="Shape" fill="#000" fill-rule="nonzero"/><path d="M36 78.725s-2.542-2.081-7.1-2.655c-2.77-.307-5.555.398-7.9 2a28.435 28.435 0 007.663 1.837c4.638.5 7.337-1.182 7.337-1.182zm-7-4.277s-2.298-2.617-6.585-4.42A14.276 14.276 0 0014 69.34c2.12 2.023 4.553 3.608 7.182 4.679 4.562 1.92 7.818.429 7.818.429zM22 69s-1.452-3.456-5.31-6.926A17.674 17.674 0 008 58a26.131 26.131 0 005.858 7.417C17.967 69.116 22 69 22 69zm-2-7s-.455-3.669-3.102-7.953A16.493 16.493 0 0010 48a26.124 26.124 0 003.477 8.563C16.297 61.122 20 62 20 62zm0-9s-.116-3.487-2.187-7.727A15.407 15.407 0 0012 39a25.2 25.2 0 002.484 8.336C16.69 51.85 20 53 20 53zm11 19c-.992-1.902-2.404-3.607-4.153-5.017C24.925 65.44 22.553 64.406 20 64c1.149 2.021 2.7 3.842 4.58 5.374C27.807 72.058 31 72 31 72zm7 3.792a12.981 12.981 0 00-3.981-2.203A10.64 10.64 0 0029 73.11a15.604 15.604 0 004.35 2.342c2.743.987 4.65.34 4.65.34zm7 1.808a9.945 9.945 0 00-3.907-.587A7.872 7.872 0 0037 78.41c1.371.448 2.809.643 4.246.576C43.753 78.9 45 77.601 45 77.601zM27 65a18.542 18.542 0 00-2.61-6.35C23.027 56.572 21.159 54.96 19 54a22.203 22.203 0 002.908 6.833C24.193 64.433 27 65 27 65zm-2.158-8c.293-2.428.178-4.9-.34-7.277-.56-2.567-1.737-4.898-3.394-6.723a26.15 26.15 0 00.472 7.859C22.466 55.314 24.842 57 24.842 57zM60 78.725s2.542-2.081 7.1-2.655c2.77-.307 5.555.398 7.9 2a28.433 28.433 0 01-7.682 1.837c-4.638.5-7.318-1.182-7.318-1.182zm7-4.277s2.298-2.617 6.585-4.42A14.276 14.276 0 0182 69.34c-2.119 2.022-4.549 3.607-7.174 4.679-4.57 1.92-7.826.429-7.826.429zM74 69s1.452-3.456 5.31-6.926A17.674 17.674 0 0188 58a26.131 26.131 0 01-5.858 7.417C78.033 69.116 74 69 74 69zm2-7s.455-3.669 3.102-7.953A16.493 16.493 0 0186 48a26.124 26.124 0 01-3.477 8.563C79.703 61.122 76 62 76 62zm0-9s.116-3.487 2.187-7.727A15.407 15.407 0 0184 39a25.2 25.2 0 01-2.484 8.336C79.31 51.85 76 53 76 53zM65 72c.992-1.902 2.404-3.607 4.153-5.017C71.075 65.44 73.447 64.406 76 64c-1.149 2.021-2.7 3.842-4.58 5.374C68.193 72.058 65 72 65 72zm-7 3.792a12.956 12.956 0 013.981-2.203A10.64 10.64 0 0167 73.11a15.604 15.604 0 01-4.35 2.342c-2.743.987-4.65.34-4.65.34zM51 77.6a9.945 9.945 0 013.907-.587A7.872 7.872 0 0159 78.41a11.898 11.898 0 01-4.246.576C52.247 78.9 51 77.601 51 77.601zM69 65a18.542 18.542 0 012.61-6.35c1.363-2.079 3.231-3.69 5.39-4.65a22.203 22.203 0 01-2.908 6.833C71.807 64.433 69 65 69 65zm2.158-8c-.293-2.428-.178-4.9.34-7.277.56-2.567 1.737-4.898 3.394-6.723a26.15 26.15 0 01-.472 7.859C73.534 55.314 71.158 57 71.158 57z" id="Path" fill="#000" fill-rule="nonzero"/><circle id="Oval" fill="#000" fill-rule="nonzero" cx="47.5" cy="78.5" r="1.5"/><path id="Path" fill="#000" fill-rule="nonzero" d="M26 8.942h-2.881V17h-2.253V8.942H18V7h8zM30 10v2.155h-1.006c-.732 0-1.086.414-1.086 1.295V18H26v-8h1.766v1.49c.058-.857.667-1.51 1.388-1.49H30z"/><path d="M30 13.996c0-2.216 1.54-3.99 3.686-3.99a3.13 3.13 0 012.336.855v-.645H38v7.56h-1.978v-.915a2.731 2.731 0 01-2.393 1.133C31.535 17.99 30 16.216 30 13.996zm6.022 0c0-1.099-.877-1.99-1.959-1.99-1.081 0-1.958.891-1.958 1.99 0 1.098.877 1.99 1.958 1.99 1.082 0 1.96-.892 1.96-1.99z" id="Shape" fill="#000" fill-rule="nonzero"/><path d="M38 10h2.162l1.078 4.228c.128.483.198.827.271 1.183.07-.373.143-.7.271-1.183L42.85 10H45l-2.353 8h-2.294L38 10z" id="Path" fill="#000" fill-rule="nonzero"/><path d="M53 14.503h-5.8c.045.966.868 1.724 1.865 1.72.79.061 1.52-.418 1.754-1.152h2.12C52.56 16.927 51.15 18 49.065 18c-2.452 0-4.063-1.75-4.063-4.002a3.825 3.825 0 011.144-2.83A4.076 4.076 0 0149.04 10c2.464 0 3.95 1.453 3.95 4.166l.009.337zm-5.692-1.61h3.636c-.227-.792-1.005-1.314-1.85-1.24-.806-.008-1.526.486-1.786 1.225v.016z" id="Shape" fill="#000" fill-rule="nonzero"/><path id="Path" fill="#000" fill-rule="nonzero" d="M54 7h2v10h-2z"/><path d="M65 14.503h-5.804c.047.965.868 1.722 1.863 1.72.79.061 1.517-.418 1.75-1.152h2.118C64.548 16.927 63.145 18 61.06 18c-2.448 0-4.057-1.75-4.057-4.002a3.828 3.828 0 011.142-2.83A4.067 4.067 0 0161.035 10c2.465 0 3.945 1.453 3.945 4.166l.02.337zm-5.68-1.61h3.631c-.226-.792-1.004-1.314-1.847-1.24a1.853 1.853 0 00-1.795 1.225l.012.016z" id="Shape" fill="#000" fill-rule="nonzero"/><path d="M70 10v2.155h-1.005c-.738 0-1.092.414-1.092 1.295V18H66v-8h1.767v1.49c.059-.857.669-1.51 1.391-1.49H70zm0 5.302h2.205a.8.8 0 00.228.629.825.825 0 00.63.244c.513 0 .823-.246.823-.63s-.342-.642-1.041-.842l-1.01-.29c-1.012-.294-1.712-.998-1.712-2.099 0-1.398 1.276-2.314 2.861-2.314 1.804 0 2.801 1.01 2.801 2.42h-2.054a.72.72 0 00-.222-.515.741.741 0 00-.529-.206c-.433 0-.731.247-.731.537 0 .352.282.52.886.69l1.12.305c1.03.278 1.745.967 1.745 2.102C76 16.76 74.864 18 73.044 18 71.35 18 70 16.97 70 15.302zm6.371-5.22h.21c.302.01.595-.08.811-.246.216-.167.337-.396.335-.635a.888.888 0 01-.322.049 1.585 1.585 0 01-1.005-.324c-.265-.212-.41-.5-.4-.8-.002-.299.147-.586.414-.798.267-.212.63-.33 1.008-.328C78.436 7 79 7.741 79 8.714 79 10.272 78.048 11 76.71 11h-.339v-.918zM26 25.5c0-3.246 2.33-5.5 5.134-5.5 2.734 0 4.457 1.57 4.829 4.08H33.77c-.32-1.22-1.278-1.992-2.645-1.992-1.642 0-2.971 1.39-2.971 3.412 0 2.022 1.337 3.416 2.971 3.416 1.352 0 2.326-.726 2.645-2.011H36C35.565 29.445 33.645 31 31.115 31 28.277 31 26 28.75 26 25.5zM36 20h2.113v3.901c.512-.76 1.417-1.203 2.369-1.156 1.477 0 2.518.985 2.518 2.598V30h-2.113v-4.084a1.298 1.298 0 00-.663-1.222 1.46 1.46 0 00-1.452 0c-.445.257-.701.73-.662 1.222V30H36V20z" id="Path" fill="#000" fill-rule="nonzero"/><path d="M44 26.997C44 24.777 45.62 23 48.09 23A4 4 0 1144 26.997zm6.035 0a1.957 1.957 0 10-1.957 2.008 1.902 1.902 0 001.957-2.008zM52 21.322c0-.73.672-1.322 1.5-1.322s1.5.592 1.5 1.322c0 .73-.672 1.323-1.5 1.323a1.6 1.6 0 01-1.063-.385 1.24 1.24 0 01-.437-.938zm.309 2.265h2.382V31H52.31v-7.413z" id="Shape" fill="#000" fill-rule="nonzero"/><path d="M55.002 26.998a3.856 3.856 0 011.147-2.862 3.945 3.945 0 012.894-1.134c2.418 0 3.72 1.272 3.957 3.049h-2.26c-.217-.63-.76-1.06-1.69-1.06a2.025 2.025 0 00-1.858 2.007c0 1.045.806 1.916 1.858 2.008a1.62 1.62 0 001.69-1.057H63C62.644 29.8 61.39 31 59.043 31a3.945 3.945 0 01-2.896-1.136 3.856 3.856 0 01-1.145-2.865z" id="Path" fill="#000" fill-rule="nonzero"/><path d="M72 27.503h-5.8c.045.964.866 1.722 1.861 1.72.792.061 1.522-.417 1.758-1.152h2.116C71.555 29.927 70.15 31 68.061 31c-2.448 0-4.06-1.746-4.06-4.002a3.825 3.825 0 011.145-2.83A4.076 4.076 0 0168.04 23c2.464 0 3.95 1.453 3.95 4.166l.009.337zm-5.692-1.61h3.636c-.224-.794-1.004-1.317-1.85-1.24-.81-.007-1.533.495-1.786 1.24z" id="Shape" fill="#000" fill-rule="nonzero"/><path id="Path" fill="#000" fill-rule="nonzero" d="M70 21h1v.32h-.383V23h-.23v-1.68H70zm2.99 1.499l-.563-1.485H72v1.977h.341v-1.418l.54 1.404h.261l.512-1.381V23H74v-2h-.44l-.57 1.499z"/></g></g></g></svg>