<svg width="28" height="18" xmlns="http://www.w3.org/2000/svg"><g id="Page-1" stroke="none" stroke-width="1" fill="none" fill-rule="evenodd"><g id="Homepage-3" transform="translate(-482 -66)" fill="#3959A8"><g id="social" transform="translate(300 64)"><g id="Tripadvisor" transform="translate(182 2)"><path d="M6.5 8a2.5 2.5 0 100 5 2.5 2.5 0 000-5" id="Fill-1"/><path d="M21.5 8a2.5 2.5 0 100 5 2.5 2.5 0 000-5" id="Fill-3"/><g id="Group-7"><path d="M25.716 10.433a4.732 4.732 0 11-9.464 0 4.732 4.732 0 019.464 0m-11.722-.137c0-3.114-2.265-5.786-5.252-6.928a13.576 13.576 0 015.25-1.05c1.803-.002 3.59.355 5.253 1.05-2.986 1.143-5.25 3.815-5.25 6.928m-6.996 4.869A4.732 4.732 0 117 5.7a4.732 4.732 0 010 9.464m18.699-9.9l2.288-2.49h-5.072a15.844 15.844 0 00-17.828 0H0l2.288 2.49A6.992 6.992 0 1011.75 15.56L13.993 18l2.241-2.438a6.995 6.995 0 0011.746-5.13 6.975 6.975 0 00-2.282-5.167" id="Fill-5"/></g></g></g></g></g></svg>