<svg width="22" height="18" xmlns="http://www.w3.org/2000/svg"><g id="Page-1" stroke="none" stroke-width="1" fill="none" fill-rule="evenodd"><g id="Homepage-3" transform="translate(-342 -66)" fill="#3959A8"><g id="social" transform="translate(300 64)"><path d="M64 4.13c-.81.362-1.68.606-2.593.716a4.552 4.552 0 001.985-2.514 9.015 9.015 0 01-2.866 1.103A4.494 4.494 0 0057.232 2c-2.493 0-4.514 2.034-4.514 4.544 0 .356.04.703.117 1.036-3.752-.19-7.077-2-9.303-4.749a4.55 4.55 0 00-.611 2.285 4.55 4.55 0 002.007 3.782 4.467 4.467 0 01-2.044-.568v.057a4.539 4.539 0 003.62 4.456 4.493 4.493 0 01-2.038.078 4.522 4.522 0 004.216 3.156 9.017 9.017 0 01-5.605 1.945c-.365 0-.724-.022-1.077-.063A12.716 12.716 0 0048.919 20c8.302 0 12.842-6.925 12.842-12.93 0-.196-.004-.392-.013-.587A9.189 9.189 0 0064 4.13" id="Fill-1-Copy"/></g></g></g></svg>