<svg viewBox="-64 0 512 512" height="65" width="65" xmlns="http://www.w3.org/2000/svg"><path d="M383.324 482.902l-73.191-167.109c-2.215-5.063-8.113-7.363-13.172-5.148-5.059 2.214-7.363 8.113-5.148 13.171l61.292 139.938a61.832 61.832 0 00-15.355-1.922c-16.426 0-31.871 6.398-43.488 18.016C286.426 487.684 276 492 264.918 492c-11.086 0-21.508-4.316-29.348-12.152-23.976-23.98-62.996-23.98-86.972 0-7.84 7.836-18.262 12.152-29.348 12.152-11.082 0-21.504-4.316-29.344-12.152-11.617-11.618-27.058-18.016-43.484-18.016-5.25 0-10.399.652-15.356 1.922L145.242 203.07v59.243c0 5.523 4.477 10 10 10 5.524 0 10-4.477 10-10V188h67.086l25.27 57.695a10.01 10.01 0 009.168 5.989c1.34 0 2.699-.27 4.004-.84 5.058-2.215 7.367-8.114 5.148-13.172l-24.559-56.078a109 109 0 0042.922-70.84l13.73-87.684a19.958 19.958 0 00-4.558-16.078A19.956 19.956 0 00288.27 0a19.956 19.956 0 00-18.368 12.121c-10.265 23.996-27.379 44.012-49.488 57.883l-28.332 17.77-28.332-17.77c-22.11-13.871-39.223-33.887-49.488-57.883A19.952 19.952 0 0095.895 0a19.952 19.952 0 00-15.18 6.988 19.966 19.966 0 00-4.559 16.078l13.73 87.688a108.984 108.984 0 0042.923 70.84L.839 482.902a10.002 10.002 0 0016.231 11.086c16.184-16.183 42.512-16.183 58.692 0C87.379 505.602 102.824 512 119.25 512s31.871-6.395 43.488-18.012c7.836-7.84 18.258-12.156 29.344-12.156 11.086 0 21.508 4.316 29.348 12.156C233.043 505.602 248.488 512 264.914 512c16.43 0 31.871-6.398 43.488-18.012 7.836-7.84 18.258-12.156 29.344-12.156 11.086 0 21.508 4.316 29.348 12.156a10.002 10.002 0 0016.23-11.086zM109.648 107.66L95.871 19.984c11.875 27.762 31.676 50.918 57.25 66.961l32.379 20.313a10.04 10.04 0 006.496 2.383h.086c2.36.007 4.734-.809 6.582-2.383l32.379-20.313c25.578-16.043 45.375-39.199 57.207-66.972l-13.73 87.687A89.02 89.02 0 01235.926 168h-87.684a89.002 89.002 0 01-38.594-60.34zm0 0" fill="#fff"/><path d="M155.242 288.16c-2.64 0-5.21 1.063-7.07 2.93a10.026 10.026 0 00-2.93 7.07c0 2.63 1.063 5.211 2.93 7.07 1.86 1.86 4.43 2.93 7.07 2.93 2.63 0 5.211-1.07 7.07-2.93s2.93-4.44 2.93-7.07c0-2.64-1.07-5.21-2.93-7.07a10.03 10.03 0 00-7.07-2.93zm0 0" fill="#fff"/></svg>