<svg 
 xmlns="http://www.w3.org/2000/svg"
 xmlns:xlink="http://www.w3.org/1999/xlink"
 width="163px" height="37px">
<path fill-rule="evenodd"  fill="rgb(23, 27, 30)"
 d="M153.495,12.845 C152.228,12.845 151.278,13.023 150.645,13.377 C150.011,13.732 149.695,14.188 149.695,14.745 C149.695,15.379 150.037,15.822 150.721,16.075 C151.405,16.329 152.494,16.569 153.989,16.797 C155.661,17.076 157.029,17.374 158.093,17.690 C159.157,18.007 160.081,18.583 160.867,19.419 C161.652,20.255 162.045,21.421 162.045,22.915 C162.045,24.182 161.665,25.309 160.905,26.297 C160.145,27.285 159.036,28.052 157.580,28.596 C156.123,29.141 154.394,29.413 152.393,29.413 C150.695,29.413 149.036,29.204 147.415,28.786 C145.793,28.368 144.501,27.843 143.539,27.209 L145.515,22.953 C146.427,23.536 147.529,24.011 148.821,24.378 C150.113,24.746 151.379,24.929 152.621,24.929 C155.129,24.929 156.383,24.309 156.383,23.067 C156.383,22.485 156.041,22.067 155.357,21.813 C154.673,21.560 153.621,21.345 152.203,21.167 C150.531,20.914 149.150,20.623 148.061,20.293 C146.971,19.964 146.028,19.381 145.230,18.545 C144.432,17.709 144.033,16.519 144.033,14.973 C144.033,13.681 144.406,12.535 145.154,11.534 C145.901,10.534 146.990,9.755 148.422,9.197 C149.853,8.640 151.544,8.361 153.495,8.361 C154.939,8.361 156.376,8.520 157.808,8.836 C159.239,9.153 160.423,9.590 161.361,10.147 L159.385,14.365 C157.586,13.352 155.623,12.845 153.495,12.845 ZM134.495,26.677 C133.709,27.564 132.772,28.242 131.683,28.710 C130.593,29.179 129.415,29.413 128.149,29.413 C125.463,29.413 123.335,28.641 121.765,27.095 C120.194,25.550 119.409,23.257 119.409,20.217 L119.409,8.665 L125.337,8.665 L125.337,19.343 C125.337,22.637 126.717,24.283 129.479,24.283 C130.897,24.283 132.037,23.821 132.899,22.896 C133.760,21.972 134.191,20.597 134.191,18.773 L134.191,8.665 L140.119,8.665 L140.119,29.109 L134.495,29.109 L134.495,26.677 ZM108.541,0.913 L114.469,0.913 L114.469,29.109 L108.541,29.109 L108.541,0.913 ZM99.820,28.102 C98.262,28.976 96.533,29.413 94.633,29.413 C92.023,29.413 89.971,28.590 88.477,26.943 L88.477,36.481 L82.549,36.481 L82.549,8.665 L88.211,8.665 L88.211,11.021 C89.680,9.248 91.821,8.361 94.633,8.361 C96.533,8.361 98.262,8.798 99.820,9.672 C101.378,10.546 102.600,11.775 103.487,13.358 C104.373,14.942 104.817,16.785 104.817,18.887 C104.817,20.990 104.373,22.833 103.487,24.416 C102.600,26.000 101.378,27.228 99.820,28.102 ZM97.350,14.764 C96.374,13.738 95.127,13.225 93.607,13.225 C92.087,13.225 90.839,13.738 89.864,14.764 C88.888,15.790 88.401,17.165 88.401,18.887 C88.401,20.610 88.888,21.984 89.864,23.010 C90.839,24.036 92.087,24.549 93.607,24.549 C95.127,24.549 96.374,24.036 97.350,23.010 C98.325,21.984 98.813,20.610 98.813,18.887 C98.813,17.165 98.325,15.790 97.350,14.764 ZM74.797,29.413 C73.758,29.413 72.884,29.059 72.175,28.349 C71.465,27.640 71.111,26.753 71.111,25.689 C71.111,24.600 71.465,23.720 72.175,23.048 C72.884,22.377 73.758,22.041 74.797,22.041 C75.835,22.041 76.709,22.377 77.419,23.048 C78.128,23.720 78.483,24.600 78.483,25.689 C78.483,26.753 78.128,27.640 77.419,28.349 C76.709,29.059 75.835,29.413 74.797,29.413 ZM63.321,28.064 C61.623,28.964 59.698,29.413 57.545,29.413 C55.391,29.413 53.460,28.964 51.750,28.064 C50.040,27.165 48.703,25.917 47.741,24.321 C46.778,22.725 46.297,20.914 46.297,18.887 C46.297,16.861 46.778,15.049 47.741,13.453 C48.703,11.857 50.040,10.610 51.750,9.710 C53.460,8.811 55.391,8.361 57.545,8.361 C59.698,8.361 61.623,8.811 63.321,9.710 C65.018,10.610 66.348,11.857 67.311,13.453 C68.273,15.049 68.755,16.861 68.755,18.887 C68.755,20.914 68.273,22.725 67.311,24.321 C66.348,25.917 65.018,27.165 63.321,28.064 ZM61.288,14.764 C60.312,13.738 59.065,13.225 57.545,13.225 C56.025,13.225 54.771,13.738 53.783,14.764 C52.795,15.790 52.301,17.165 52.301,18.887 C52.301,20.610 52.795,21.984 53.783,23.010 C54.771,24.036 56.025,24.549 57.545,24.549 C59.065,24.549 60.312,24.036 61.288,23.010 C62.263,21.984 62.751,20.610 62.751,18.887 C62.751,17.165 62.263,15.790 61.288,14.764 ZM30.945,29.109 L22.357,8.665 L28.475,8.665 L34.137,22.573 L39.989,8.665 L45.689,8.665 L37.063,29.109 L30.945,29.109 ZM0.012,2.509 L20.114,2.509 L20.114,7.449 L6.130,7.449 L6.130,13.225 L18.480,13.225 L18.480,18.013 L6.130,18.013 L6.130,24.169 L20.608,24.169 L20.608,29.109 L0.012,29.109 L0.012,2.509 Z"/>
</svg>