<?xml version="1.0" encoding="utf-8"?>
<!-- Generator: Adobe Illustrator 22.1.0, SVG Export Plug-In . SVG Version: 6.00 Build 0)  -->
<svg version="1.1" id="Слой_1" xmlns="http://www.w3.org/2000/svg" xmlns:xlink="http://www.w3.org/1999/xlink" x="0px" y="0px"
	 width="163px" height="37px" viewBox="0 0 163 37" style="enable-background:new 0 0 163 37;" xml:space="preserve">
<style type="text/css">
	.st0{fill:#A772F6;}
	.st1{fill:#171B1E;}
</style>
<path class="st0" d="M74.8,29.4c-1,0-1.9-0.4-2.6-1.1c-0.7-0.7-1.1-1.6-1.1-2.7c0-1.1,0.4-2,1.1-2.6c0.7-0.7,1.6-1,2.6-1
	c1,0,1.9,0.3,2.6,1c0.7,0.7,1.1,1.6,1.1,2.6c0,1.1-0.4,2-1.1,2.7C76.7,29.1,75.8,29.4,74.8,29.4z M63.3,28.1
	c-1.7,0.9-3.6,1.3-5.8,1.3c-2.2,0-4.1-0.4-5.8-1.3c-1.7-0.9-3-2.1-4-3.7c-1-1.6-1.4-3.4-1.4-5.4c0-2,0.5-3.8,1.4-5.4
	c1-1.6,2.3-2.8,4-3.7c1.7-0.9,3.6-1.3,5.8-1.3c2.2,0,4.1,0.4,5.8,1.3c1.7,0.9,3,2.1,4,3.7c1,1.6,1.4,3.4,1.4,5.4
	c0,2-0.5,3.8-1.4,5.4C66.3,25.9,65,27.2,63.3,28.1z M61.3,14.8c-1-1-2.2-1.5-3.7-1.5c-1.5,0-2.8,0.5-3.8,1.5c-1,1-1.5,2.4-1.5,4.1
	c0,1.7,0.5,3.1,1.5,4.1c1,1,2.2,1.5,3.8,1.5c1.5,0,2.8-0.5,3.7-1.5c1-1,1.5-2.4,1.5-4.1C62.8,17.2,62.3,15.8,61.3,14.8z M30.9,29.1
	L22.4,8.7h6.1l5.7,13.9L40,8.7h5.7l-8.6,20.4H30.9z M0,2.5h20.1v4.9h-14v5.8h12.3V18H6.1v6.2h14.5v4.9H0V2.5z"/>
<g id="Слой_2">
	<path class="st1" d="M153.5,12.6c-1.3,0-2.2,0.2-2.8,0.5c-0.6,0.4-0.9,0.8-0.9,1.4c0,0.6,0.3,1.1,1,1.3c0.7,0.3,1.8,0.5,3.3,0.7
		c1.7,0.3,3,0.6,4.1,0.9c1.1,0.3,2,0.9,2.8,1.7c0.8,0.8,1.2,2,1.2,3.5c0,1.3-0.4,2.4-1.1,3.4c-0.8,1-1.9,1.8-3.3,2.3
		c-1.5,0.5-3.2,0.8-5.2,0.8c-1.7,0-3.4-0.2-5-0.6c-1.6-0.4-2.9-0.9-3.9-1.6l2-4.3c0.9,0.6,2,1.1,3.3,1.4c1.3,0.4,2.6,0.6,3.8,0.6
		c2.5,0,3.8-0.6,3.8-1.9c0-0.6-0.3-1-1-1.3c-0.7-0.3-1.7-0.5-3.2-0.6c-1.7-0.3-3.1-0.5-4.1-0.9c-1.1-0.3-2-0.9-2.8-1.7
		c-0.8-0.8-1.2-2-1.2-3.6c0-1.3,0.4-2.4,1.1-3.4c0.7-1,1.8-1.8,3.3-2.3c1.4-0.6,3.1-0.8,5.1-0.8c1.4,0,2.9,0.2,4.3,0.5
		c1.4,0.3,2.6,0.8,3.6,1.3l-2,4.2C157.6,13.2,155.6,12.6,153.5,12.6z M134.5,26.5c-0.8,0.9-1.7,1.6-2.8,2c-1.1,0.5-2.3,0.7-3.5,0.7
		c-2.7,0-4.8-0.8-6.4-2.3c-1.6-1.5-2.4-3.8-2.4-6.9V8.5h5.9v10.7c0,3.3,1.4,4.9,4.1,4.9c1.4,0,2.6-0.5,3.4-1.4
		c0.9-0.9,1.3-2.3,1.3-4.1V8.5h5.9v20.4h-5.6V26.5z M108.5,0.7h5.9v28.2h-5.9V0.7z M99.8,27.9c-1.6,0.9-3.3,1.3-5.2,1.3
		c-2.6,0-4.7-0.8-6.2-2.5v9.5h-5.9V8.5h5.7v2.4c1.5-1.8,3.6-2.7,6.4-2.7c1.9,0,3.6,0.4,5.2,1.3s2.8,2.1,3.7,3.7
		c0.9,1.6,1.3,3.4,1.3,5.5c0,2.1-0.4,3.9-1.3,5.5C102.6,25.8,101.4,27,99.8,27.9z M97.3,14.6c-1-1-2.2-1.5-3.7-1.5
		c-1.5,0-2.8,0.5-3.7,1.5c-1,1-1.5,2.4-1.5,4.1c0,1.7,0.5,3.1,1.5,4.1c1,1,2.2,1.5,3.7,1.5c1.5,0,2.8-0.5,3.7-1.5
		c1-1,1.5-2.4,1.5-4.1C98.8,17,98.3,15.6,97.3,14.6z"/>
</g>
</svg>
