<svg viewBox="0 0 87.05 64.4609" xmlns="http://www.w3.org/2000/svg" xmlns:xlink="http://www.w3.org/1999/xlink" width="87.050049" height="64.460938" fill="none" customFrame="#000000">
	<g id="Page-1">
		<g id="flat">
			<g id="quote-left-saying-speech">
				<path id="Combined-Shape" d="M20.8592 1.34707e-14C32.9706 1.34707e-14 41.7134 9.9988 41.7131 24.8037C41.6355 46.3143 25.4649 61.523 2.13637 64.4436C-0.0279498 64.7146 -0.862486 61.7164 1.13058 60.8302C10.0819 56.8499 14.6028 51.7992 15.1867 46.7999C15.623 43.0649 13.5926 39.7931 11.0431 39.1804C4.43349 37.5922 0.00502343 29.3611 0.00502343 20.8542C0.00502343 9.33673 9.34175 1.34707e-14 20.8592 1.34707e-14Z" fill="rgb(36,79,53)" fill-rule="nonzero"/>
				<path id="Combined-Shape" d="M66.1961 1.34707e-14C78.3075 1.34707e-14 87.0503 9.9988 87.05 24.8037C86.9724 46.3143 70.8018 61.523 47.4733 64.4436C45.309 64.7146 44.4744 61.7164 46.4675 60.8302C55.4188 56.8499 59.9397 51.7992 60.5237 46.7999C60.9599 43.0649 58.9295 39.7931 56.38 39.1804C49.7704 37.5922 45.3419 29.3611 45.3419 20.8542C45.3419 9.33673 54.6787 1.34707e-14 66.1961 1.34707e-14Z" fill="rgb(36,79,53)" fill-rule="nonzero"/>
			</g>
		</g>
	</g>
</svg>
