<svg viewBox="0 0 55.7356 39" xmlns="http://www.w3.org/2000/svg" xmlns:xlink="http://www.w3.org/1999/xlink" width="55.735596" height="39.000000" fill="none" customFrame="#000000">
	<path id="Union" d="M52.8225 0.698552L30.3353 17.0517C28.8642 18.1214 26.8714 18.1214 25.4003 17.0517L2.91311 0.698552C3.7157 0.267531 4.60747 0 5.57356 0L50.162 0C51.1281 0 52.0347 0.26753 52.8225 0.698552ZM0.0808621 5.51761L25.401 23.9335C26.8717 25.0031 28.8641 25.0035 30.3352 23.9343L55.7207 5.48446L55.7356 5.49204L55.7356 33.4266C55.7356 36.5048 53.2402 39.0001 50.162 39.0001L5.57356 39.0001C2.49537 39.0001 0 36.5048 0 33.4266L0 5.55878L0.0808621 5.51761Z" fill="rgb(255,255,255)" fill-rule="evenodd"/>
</svg>
