<svg viewBox="0 0 21.0376 39" xmlns="http://www.w3.org/2000/svg" xmlns:xlink="http://www.w3.org/1999/xlink" width="21.037598" height="39.000000" fill="none" customFrame="#000000">
	<path id="Icon_11_" d="M5.85732 22.0138C5.71089 22.0138 2.48936 22.0138 1.02503 22.0138C0.244055 22.0138 0 21.7209 0 20.9887C0 19.0363 0 17.035 0 15.0826C0 14.3016 0.292866 14.0576 1.02503 14.0576L5.85732 14.0576C5.85732 13.9111 5.85732 11.0801 5.85732 9.7622C5.85732 7.80976 6.199 5.95494 7.17522 4.24656C8.20025 2.48936 9.66458 1.3179 11.5194 0.634543C12.7397 0.195244 13.9599 0 15.2778 0L20.0613 0C20.7447 0 21.0375 0.292866 21.0375 0.97622L21.0375 6.54068C21.0375 7.22403 20.7447 7.5169 20.0613 7.5169C18.7434 7.5169 17.4255 7.5169 16.1076 7.56571C14.7897 7.56571 14.1064 8.20025 14.1064 9.56696C14.0576 11.0313 14.1064 12.4468 14.1064 13.9599L19.7685 13.9599C20.5494 13.9599 20.8423 14.2528 20.8423 15.0338L20.8423 20.9399C20.8423 21.7209 20.5982 21.965 19.7685 21.965C18.0113 21.965 14.2528 21.965 14.1064 21.965L14.1064 37.8773C14.1064 38.7071 13.8623 39 12.9837 39C10.9337 39 8.93242 39 6.88235 39C6.15019 39 5.85732 38.7071 5.85732 37.975C5.85732 32.8498 5.85732 22.1602 5.85732 22.0138Z" fill="rgb(255,255,255)" fill-rule="nonzero"/>
</svg>
