<svg viewBox="0 0 2012.56 326" xmlns="http://www.w3.org/2000/svg" xmlns:xlink="http://www.w3.org/1999/xlink" width="2012.555176" height="326.000000" fill="none" customFrame="#000000">
	<g id="Clip path group">
		<path id="Vector" d="M0 76.0524L111.537 71.1634C111.537 71.1634 205.692 48.8908 210.218 48.8908C214.745 48.8908 273.772 53.4179 273.772 53.4179L360.685 70.077C360.685 70.077 422.247 101.584 430.033 97.4197C437.819 93.2549 480.007 97.0574 483.267 97.4197C486.526 97.782 592.993 130.014 592.993 130.014L676.465 148.303L778.948 179.991L898.814 165.505C898.814 165.505 1046.93 163.151 1050.01 161.703C1053.08 160.254 1183.63 150.295 1187.98 150.114C1192.32 149.933 1366.51 133.092 1366.51 133.092L1430.43 113.355L1554.28 76.0528L1600.45 48.8913L1655.67 57.7643L1717.05 77.3205L1752.18 76.5963L1845.61 68.8098L1886.89 48.8913L1926.19 17.9267L1959.86 0L2012.56 45.6318L2010.71 326L0 326L0 76.0524Z" fill="rgb(30,30,30)" fill-rule="nonzero"/>
	</g>
</svg>
