<svg viewBox="0 0 2703 136.463" xmlns="http://www.w3.org/2000/svg" xmlns:xlink="http://www.w3.org/1999/xlink" width="2703.000000" height="136.462891" fill="none" customFrame="#000000">
	<path id="Union" d="M188.139 72.5223L3.12661 92.7667L0 136.463L2703 136.463L2531.8 73.5925L2467.17 88.4624L2391.74 73.5925L2362.03 58.723L2330.11 53.3751L2272.65 25.5923L2224.31 0.0269801L2181.84 5.37487L2159.17 0.0269801L2103.93 21.4186C2103.93 21.4186 2032.92 55.4623 2023.8 58.4623C2014.68 61.4623 1986.14 69.2883 1980.93 70.3319C1975.72 71.3755 1880.61 93.8104 1880.61 93.8104L1824.45 102.419L1814.68 106.724L1773.25 87.4188L1735.86 63.9404L1701.85 42.6793L1666.02 40.5924L1618.6 8.08691L1548.76 0L1512.15 25.5653L1478.66 23.4785L1437.62 52.8265L1364.14 72.5223L1265.22 83.3463L1215.74 73.5925L1186.03 58.723L1154.11 53.3751L1096.65 25.5923L1048.31 0.0269801L1005.84 5.37487L983.169 0.0269801L927.926 21.4186C927.926 21.4186 856.918 55.4623 847.798 58.4623C838.677 61.4623 810.144 69.2883 804.932 70.3319C799.721 71.3755 704.609 93.8104 704.609 93.8104L648.454 102.419L638.682 106.724L597.25 87.4188L559.856 63.9404L525.851 42.6793L490.021 40.5924C474.212 29.7572 458.404 18.9221 442.595 8.08691L372.76 0C360.556 8.52178 348.352 17.0436 336.148 25.5653C324.987 24.8698 313.825 24.174 302.664 23.4785L261.622 52.8265C237.127 59.3918 212.633 65.9569 188.139 72.5223Z" fill="rgb(90.7978,77.6953,95.625)" fill-rule="evenodd"/>
</svg>
