<svg viewBox="0 0 1915.09 306.095" xmlns="http://www.w3.org/2000/svg" xmlns:xlink="http://www.w3.org/1999/xlink" width="1915.092285" height="306.095398" fill="none" customFrame="#000000">
	<g id="Group 8">
		<path id="Union" d="M1568.1 58.5246C1515.49 96.3004 1470.81 76.3188 1423.51 55.1659L1423.51 55.164C1395.85 42.7938 1367.25 30.0037 1335.4 27.6459C1288.79 24.1939 1220.48 33.9799 1159.88 100.207C1099.39 166.317 1068.38 162.201 1060.32 159.367C1053.92 157.118 1049.87 152.084 1049.47 145.9C1049.03 138.986 1053.14 132.479 1060.21 128.918C1071.37 123.298 1078.54 112.454 1078.93 100.616C1079.25 90.947 1074.92 82.7419 1067.05 78.1047C1058.99 73.3567 1040.11 68.5894 1004.19 90.0326C944.459 125.69 924.627 114.861 912.095 97.8488C906.63 90.4302 901.897 81.3661 896.885 71.7699C885.738 50.4218 873.102 26.2264 847.392 10.2147C834.309 2.0683 811.623 -5.39231 777.857 5.32161C746.13 15.3907 712.026 39.1682 676.492 75.9955C675.521 77.0015 675.55 78.6028 676.556 79.5733C677.563 80.5424 679.166 80.5141 680.135 79.5089C743.347 13.9976 804.871 -10.3017 844.715 14.5104C869.253 29.7912 881.549 53.3378 892.397 74.1117C897.502 83.8848 902.322 93.1174 908.018 100.85C927.095 126.744 955.71 124.866 1006.78 94.3766C1040.46 74.2741 1057.38 78.2844 1064.48 82.4638C1070.7 86.1317 1074.13 92.6875 1073.87 100.45C1073.54 110.436 1067.43 119.613 1057.93 124.399C1049.02 128.889 1043.84 137.252 1044.42 146.226C1044.95 154.5 1050.26 161.196 1058.64 164.141C1061.22 165.05 1064.94 165.859 1069.87 165.764C1086.44 165.443 1116.7 154.903 1163.62 103.623C1222.85 38.894 1289.53 29.3259 1335.03 32.6926C1365.99 34.9843 1394.18 47.5918 1421.44 59.7838L1421.47 59.7953C1450.73 72.8806 1479.01 85.5259 1508.86 84.9481C1528.65 84.5648 1549.14 78.369 1571.05 62.6332C1572.19 61.8179 1572.45 60.2379 1571.63 59.1027C1570.81 57.9675 1569.23 57.7086 1568.1 58.5246ZM49.0147 217.742C42.7274 208.576 36.8302 192.123 44.4432 165.79C53.5924 134.147 42.5592 102.128 15.6521 82.227C15.1721 81.872 14.6839 81.5295 14.1978 81.1845L14.6648 75.3641C16.0181 76.2646 17.3542 77.1913 18.6632 78.1597C47.3174 99.3517 59.0592 133.469 49.3074 167.195C43.7156 186.538 45.0587 203.026 53.1904 214.881C59.4589 224.02 69.5332 229.634 81.5559 230.688C81.6531 230.697 81.7542 230.705 81.8515 230.713C106.245 232.67 131.202 212.099 177.736 165.409C219.055 123.949 258.363 100.473 297.907 93.6368C338.18 86.6759 378.889 96.8737 422.358 124.816C423.534 125.571 423.874 127.137 423.118 128.312C422.362 129.486 420.796 129.827 419.62 129.071C335.935 75.2799 262.443 87.5854 181.323 168.98C133.652 216.81 107.836 237.872 81.4515 235.757C81.3379 235.748 81.2269 235.739 81.1134 235.729C67.5545 234.54 56.1548 228.152 49.0147 217.742ZM1160.92 139.59C1224.17 75.7502 1286.41 95.6446 1287.03 95.8508C1288.36 96.2952 1289.07 97.7266 1288.63 99.0504C1288.18 100.375 1286.75 101.087 1285.43 100.649C1284.83 100.451 1225.45 81.6537 1164.52 143.15C1127.8 180.206 1098.96 199.932 1070.98 207.11C1037.27 215.76 1004.49 205.488 970.763 175.711C902.557 115.487 841.816 107.028 767.659 147.423C717.5 174.749 673.91 185.98 627.397 182.251C609.025 180.779 590.206 176.972 570.334 170.901C493.748 147.502 408.112 133.705 353.661 208.774C353.123 209.516 352.258 209.879 351.406 209.811C350.959 209.775 350.515 209.619 350.126 209.337C348.994 208.516 348.741 206.935 349.561 205.804C405.883 128.155 493.517 142.14 571.814 166.061C640.553 187.065 696.594 180.376 765.234 142.98C803.044 122.383 837.573 114.471 870.818 118.803C904.87 123.238 938.658 140.612 974.115 171.92C1042.63 232.416 1098.34 202.749 1160.92 139.59ZM1842.72 161.015C1767.03 208.708 1727.98 209.579 1661.05 165.06C1627.2 142.544 1594.41 135.511 1560.81 143.56C1530.78 150.753 1498.74 170.105 1459.97 204.459C1425.95 234.61 1398.28 241.91 1377.72 226.142C1362.44 214.426 1355.05 197.317 1347.89 180.772C1344.33 172.534 1340.96 164.753 1336.72 157.794C1328.2 143.8 1316.24 135.951 1303.11 135.702C1291 135.47 1272.36 141.533 1252.34 171.734C1242.52 186.545 1224.17 207.798 1210.47 217.727C1171.61 245.884 1122.27 240.149 1090.6 221.972C1089.39 221.28 1087.84 221.696 1087.14 222.906C1086.45 224.118 1086.87 225.664 1088.08 226.361C1102.41 234.585 1120.2 240.363 1139.09 241.878C1163.8 243.86 1190.38 238.536 1213.44 221.823C1228.14 211.171 1246.63 189.505 1256.56 174.528C1271.19 152.459 1287.69 140.466 1303.01 140.761C1314.38 140.974 1324.81 147.963 1332.4 160.424C1336.46 167.083 1339.75 174.706 1343.24 182.777C1350.66 199.916 1358.32 217.638 1374.64 230.155C1397.39 247.603 1427.23 240.234 1463.33 208.243C1541.55 138.93 1596.2 128.001 1658.24 169.27C1688.6 189.464 1713.38 200.616 1738.25 202.609C1769.95 205.149 1801.77 192.794 1845.42 165.293C1870.92 149.223 1894.57 140.182 1914.69 138.638L1915.09 133.601C1896.62 134.853 1872.62 142.174 1842.72 161.015ZM207.194 223.274C190.625 215.166 170.409 218.392 151.73 232.121C111.897 261.395 54.6646 288 0 258.152L0.446241 252.589C53.4678 282.872 109.681 256.743 148.731 228.043C168.978 213.162 191.097 209.766 209.419 218.728C226.161 226.916 236.886 244.136 237.408 263.669C237.866 280.794 245.731 294.379 257.934 299.121C267.993 303.031 289.934 304.349 323.85 269.262C347.159 245.146 375.616 218.71 409.951 205.479C444.133 192.305 481.722 193.123 524.864 207.979L532.907 210.754C619.18 240.549 666.702 256.959 740.278 188.397C786.736 145.106 814.367 136.807 829.365 137.467C839.715 137.943 844.121 142.683 844.303 142.885C845.238 143.923 845.154 145.523 844.114 146.458C843.074 147.393 841.474 147.307 840.539 146.268C840.337 146.06 817.27 123.569 743.731 192.099C707.925 225.465 676.401 240.708 641.514 241.524C608.724 242.288 574.536 230.485 531.254 215.537L523.216 212.764C436.794 183.008 386.01 212.236 327.491 272.778C299.616 301.617 278.799 307.031 265.618 305.974C261.801 305.668 258.623 304.818 256.1 303.839C241.961 298.344 232.861 283.004 232.347 263.804C231.875 246.161 222.237 230.63 207.194 223.274ZM1682.89 198.878L1685.05 199.837C1686.33 200.405 1686.91 201.9 1686.34 203.176C1685.77 204.453 1684.28 205.025 1683 204.462L1680.84 203.501C1635.3 183.258 1610.21 172.107 1509.06 242.457C1463.94 273.839 1422.29 288.776 1388.75 286.085C1379.48 285.341 1370.83 283.254 1362.89 279.796C1340.06 269.846 1325.28 248.83 1321.28 220.617C1321.08 219.235 1322.04 217.953 1323.43 217.758C1324.81 217.562 1326.09 218.524 1326.29 219.907C1330.03 246.313 1343.75 265.936 1364.92 275.157C1399.91 290.401 1450.07 277.317 1506.17 238.304C1609.66 166.328 1635.67 177.89 1682.89 198.878Z" fill="rgb(36,79,53)" fill-rule="evenodd"/>
	</g>
</svg>
