<svg viewBox="0 0 87.05 64.4609" xmlns="http://www.w3.org/2000/svg" xmlns:xlink="http://www.w3.org/1999/xlink" width="87.050049" height="64.460938" fill="none" customFrame="#000000">
	<g id="Page-1">
		<g id="flat">
			<g id="quote-left-saying-speech">
				<path id="Combined-Shape" d="M20.8592 1.34707e-14C32.9706 1.34707e-14 41.7134 9.9988 41.7131 24.8037C41.6355 46.3143 25.4649 61.523 2.13637 64.4436C-0.0279498 64.7146 -0.862486 61.7164 1.13058 60.8302C10.0819 56.8499 14.6028 51.7992 15.1867 46.7999C15.623 43.0649 13.5926 39.7931 11.0431 39.1804C4.43349 37.5922 0.00502343 29.3611 0.00502343 20.8542C0.00502343 9.33673 9.34175 1.34707e-14 20.8592 1.34707e-14Z" fill="rgb(36,79,53)" fill-rule="nonzero" transform="matrix(-1,0,0,-1,87.05,64.4609)"/>
				<path id="Combined-Shape" d="M20.8592 1.34707e-14C32.9706 1.34707e-14 41.7134 9.9988 41.7131 24.8037C41.6355 46.3143 25.4649 61.523 2.13637 64.4436C-0.0279503 64.7146 -0.862486 61.7164 1.13058 60.8302C10.0819 56.8499 14.6028 51.7992 15.1867 46.7999C15.623 43.0649 13.5926 39.7931 11.0431 39.1804C4.43349 37.5922 0.00502374 29.3611 0.00502374 20.8542C0.00502374 9.33673 9.34175 1.34707e-14 20.8592 1.34707e-14Z" fill="rgb(36,79,53)" fill-rule="nonzero" transform="matrix(-1,0,0,-1,41.7131,64.4609)"/>
			</g>
		</g>
	</g>
</svg>
