<svg viewBox="0 0 39 39" xmlns="http://www.w3.org/2000/svg" xmlns:xlink="http://www.w3.org/1999/xlink" width="39.000000" height="39.000000" fill="none" customFrame="#000000">
	<path id="Vector" d="M37.7455 28.08C37.6389 27.9955 29.9 22.4172 27.7758 22.8176C26.7618 22.997 26.182 23.6886 25.0185 25.0731C24.8313 25.2967 24.3815 25.8323 24.0318 26.2132C23.2965 25.9734 22.5793 25.6814 21.8855 25.3396C18.3047 23.5963 15.4115 20.7031 13.6682 17.1223C13.3261 16.4286 13.0342 15.7114 12.7946 14.976C13.1768 14.625 13.7124 14.1752 13.9412 13.9828C15.3192 12.8258 16.0121 12.246 16.1915 11.2294C16.5594 9.1234 10.985 1.3312 10.9265 1.261C10.6736 0.899692 10.3435 0.599121 9.96017 0.381034C9.57683 0.162947 9.14981 0.0327966 8.71 0C6.4506 7.21645e-16 0 8.3681 0 9.7773C0 9.8592 0.1183 18.1844 10.3844 28.6273C20.8169 38.8817 29.1408 39 29.2227 39C30.6332 39 39 32.5494 39 30.29C38.9676 29.8517 38.8382 29.4261 38.6212 29.0439C38.4043 28.6617 38.1052 28.3325 37.7455 28.08Z" fill="rgb(255,255,255)" fill-rule="nonzero"/>
</svg>
