<svg viewBox="0 0 22 22" xmlns="http://www.w3.org/2000/svg" xmlns:xlink="http://www.w3.org/1999/xlink" width="22.000000" height="22.000000" fill="none">
	<rect id="fi_507257" width="22.000000" height="22.000000" x="0.000000" y="0.000000" fill="rgb(255,255,255)" fill-opacity="0"/>
	<g id="Group">
		<g id="Group">
			<path id="Vector" d="M20.6777 9.4559C20.5877 9.44129 20.4966 9.43455 20.4054 9.43573L4.88485 9.43573L5.22328 9.27833C5.55408 9.12175 5.85503 8.90866 6.11264 8.64869L10.465 4.29634C11.0382 3.74914 11.1345 2.86888 10.6932 2.21067C10.1796 1.50927 9.19471 1.35697 8.49325 1.87057C8.43658 1.91208 8.38272 1.95734 8.3321 2.00604L0.461663 9.87648C-0.153412 10.4909 -0.153953 11.4875 0.460433 12.1026C0.460827 12.103 0.46127 12.1034 0.461663 12.1038L8.3321 19.9743C8.94767 20.5881 9.94432 20.5867 10.5582 19.9712C10.6065 19.9227 10.6516 19.8712 10.6932 19.8168C11.1345 19.1586 11.0382 18.2784 10.465 17.7312L6.12051 13.371C5.88956 13.1398 5.62403 12.9459 5.33347 12.7964L4.86124 12.5839L20.3188 12.5839C21.1229 12.6138 21.8284 12.0521 21.9795 11.2617C22.1186 10.4036 21.5358 9.59511 20.6777 9.4559Z" fill="rgb(0,0,0)" fill-rule="nonzero"/>
		</g>
	</g>
</svg>
