<svg viewBox="0 0 22 22" xmlns="http://www.w3.org/2000/svg" xmlns:xlink="http://www.w3.org/1999/xlink" width="22.000000" height="22.000000" fill="none">
	<rect id="fi_507257" width="22.000000" height="22.000000" x="0.000000" y="0.000000" fill="rgb(255,255,255)" fill-opacity="0" transform="matrix(-1,0,0,1,22,0)"/>
	<g id="Group">
		<g id="Group">
			<path id="Vector" d="M20.6777 7.8895C20.5877 7.87489 20.4966 7.86815 20.4054 7.86933L4.88485 7.86933L5.22328 7.71192C5.55408 7.55535 5.85503 7.34226 6.11264 7.08228L10.465 2.72993C11.0382 2.18274 11.1345 1.30248 10.6932 0.644263C10.1796 -0.0571404 9.19471 -0.209433 8.49325 0.304162C8.43658 0.345679 8.38272 0.390934 8.3321 0.439632L0.461663 8.31007C-0.153412 8.92446 -0.153953 9.9211 0.460433 10.5362C0.460827 10.5366 0.46127 10.537 0.461663 10.5374L8.3321 18.4078C8.94767 19.0217 9.94432 19.0203 10.5582 18.4048C10.6065 18.3563 10.6516 18.3047 10.6932 18.2504C11.1345 17.5922 11.0382 16.712 10.465 16.1648L6.12051 11.8045C5.88956 11.5734 5.62403 11.3795 5.33347 11.23L4.86124 11.0175L20.3188 11.0175C21.1229 11.0474 21.8284 10.4857 21.9795 9.69527C22.1186 8.83715 21.5358 8.02871 20.6777 7.8895Z" fill="rgb(0,0,0)" fill-rule="nonzero" transform="matrix(-1,0,0,1,22,1.56641)"/>
		</g>
	</g>
</svg>
