<svg viewBox="0 0 53 53" xmlns="http://www.w3.org/2000/svg" xmlns:xlink="http://www.w3.org/1999/xlink" width="53.000000" height="53.000000" fill="none">
	<rect id="fi_152810" width="53.000000" height="53.000000" x="0.000000" y="0.000000" fill="rgb(255,255,255)" fill-opacity="0"/>
	<g id="XMLID_822_">
		<path id="XMLID_823_" d="M50.9342 11.052C49.0211 8.77777 45.4889 7.8501 38.7432 7.8501L14.2563 7.8501C7.35623 7.8501 3.7642 8.83761 1.85825 11.2589C0 13.6196 0 17.0979 0 21.912L0 31.0877C0 40.4142 2.2048 45.1494 14.2563 45.1494L38.7433 45.1494C44.5932 45.1494 47.8347 44.3309 49.9318 42.3239C52.0824 40.2658 53 36.9054 53 31.0877L53 21.912C53 16.8351 52.8562 13.3363 50.9342 11.052ZM34.0262 27.7666L22.9068 33.578C22.6582 33.7079 22.3863 33.7724 22.1148 33.7724C21.8074 33.7724 21.5007 33.6896 21.2291 33.5252C20.7175 33.2152 20.4052 32.6608 20.4052 32.0627L20.4052 20.4773C20.4052 19.8802 20.7167 19.3263 21.2272 19.0162C21.7379 18.706 22.373 18.6848 22.9028 18.9601L34.0222 24.734C34.588 25.0277 34.9432 25.6118 34.9441 26.249C34.9448 26.8867 34.591 27.4716 34.0262 27.7666Z" fill="rgb(255,255,255)" fill-rule="nonzero"/>
	</g>
</svg>
