<svg width="208" height="152" xmlns="http://www.w3.org/2000/svg"><path d="M50.582 152c-9.455 0-18.043-2.525-25.764-7.576s-13.788-11.996-18.2-20.835C2.206 114.749 0 104.49 0 92.81c0-10.102 1.89-19.967 5.673-29.595 3.782-9.628 9.218-18.625 16.309-26.99 7.09-8.366 15.363-15.785 24.818-22.256C56.255 7.497 66.497 2.84 77.527 0l21.746 26.517C86.036 32.2 75.4 39.223 67.363 47.59 59.328 55.954 55.31 62.979 55.31 68.66c0 3.473 1.182 6.866 3.546 10.181 2.363 3.315 5.909 6.393 10.636 9.234C76.739 93.44 81.78 98.65 84.618 103.7c2.837 5.05 4.255 10.575 4.255 16.573 0 9.786-3.546 17.52-10.637 23.203-7.09 5.682-16.309 8.523-27.654 8.523zm108.727 0c-9.454 0-18.042-2.525-25.764-7.576-7.72-5.051-13.787-11.996-18.2-20.835-4.412-8.84-6.618-19.099-6.618-30.779 0-10.102 1.891-19.967 5.673-29.595s9.218-18.625 16.31-26.99c7.09-8.366 15.363-15.785 24.817-22.256C164.982 7.497 175.224 2.84 186.255 0L208 26.517c-13.236 5.682-23.873 12.706-31.91 21.072-8.035 8.365-12.054 15.39-12.054 21.071 0 3.473 1.182 6.866 3.546 10.181 2.363 3.315 5.909 6.393 10.636 9.234 7.249 5.366 12.291 10.575 15.127 15.626 2.837 5.05 4.255 10.575 4.255 16.573 0 9.786-3.545 17.52-10.636 23.203-7.091 5.682-16.31 8.523-27.655 8.523z" fill="#FFF"/></svg>