<svg width="108" height="59" xmlns="http://www.w3.org/2000/svg" xmlns:xlink="http://www.w3.org/1999/xlink"><defs><path id="a" d="M6.5 9.75l-3.82 2.009.73-4.255L.317 4.491l4.272-.62L6.5 0l1.91 3.87 4.272.621L9.59 7.504l.73 4.255z"/></defs><g fill="none" fill-rule="evenodd"><path d="M45.41 2.972h.734a7.321 7.321 0 014.768 2.074c-.49.473-.963.963-1.453 1.436-.816-.767-1.861-1.29-2.972-1.42a5.572 5.572 0 00-3.674.8c-.98.62-1.73 1.584-2.139 2.661-.522 1.421-.44 3.07.262 4.426a5.395 5.395 0 002.628 2.481c1.127.49 2.4.572 3.593.294a4.946 4.946 0 002.563-1.535c.572-.669.833-1.534.947-2.383h-4.93V9.764h6.939c.228 1.454.081 3.005-.523 4.36-.506 1.16-1.42 2.09-2.482 2.76-1.322.832-2.922 1.11-4.474 1.012-1.877-.114-3.69-.98-4.996-2.319a7.456 7.456 0 01-2.123-4.784v-.718a7.46 7.46 0 011.943-4.605C41.41 4 43.37 3.07 45.41 2.972zm32.346 5.6c.964-.555 2.156-.767 3.25-.473.637.163 1.175.522 1.633.98.016-.294 0-.572 0-.866h2.057v8.703c0 1.225-.294 2.515-1.11 3.478-.751.882-1.91 1.356-3.054 1.437-1.094.098-2.237-.13-3.135-.75a4.801 4.801 0 01-1.73-2.058c.62-.262 1.257-.506 1.877-.768.294.637.784 1.209 1.437 1.486.637.294 1.388.278 2.041.065a2.25 2.25 0 001.372-1.24c.294-.67.277-1.421.26-2.123-.424.408-.897.767-1.485.947-1.029.326-2.188.196-3.151-.294a4.823 4.823 0 01-2.205-2.319 4.972 4.972 0 01-.065-3.87 4.673 4.673 0 012.008-2.335zm1.83 1.356a2.433 2.433 0 00-1.372.849c-.768.93-.866 2.286-.392 3.364.245.555.67 1.028 1.224 1.29.751.375 1.682.326 2.4-.099a2.75 2.75 0 001.225-1.698c.278-1.126-.016-2.465-.963-3.216-.572-.49-1.388-.67-2.123-.49zm6.547-6.597h2.155v14.598h-2.155V3.33zM57.885 8.034c1.11-.18 2.27 0 3.249.555a4.78 4.78 0 011.91 1.992 5.022 5.022 0 01.343 3.51 4.66 4.66 0 01-1.845 2.63c-.98.685-2.22.98-3.396.832a4.792 4.792 0 01-3.282-1.829c-1.241-1.6-1.306-3.967-.196-5.633a4.675 4.675 0 013.217-2.057zm.212 1.894c-.572.13-1.11.473-1.47.93-.686.866-.816 2.107-.408 3.12.294.718.882 1.305 1.617 1.55a2.66 2.66 0 002.253-.245c.67-.408 1.127-1.11 1.274-1.877.228-1.078-.131-2.319-1.045-2.988-.605-.49-1.454-.67-2.221-.49zm33.963-1.16a4.585 4.585 0 013.56-.685c1.045.228 1.96.914 2.563 1.78.376.522.604 1.126.85 1.714-2.172.882-4.328 1.763-6.5 2.661.295.556.752 1.062 1.356 1.29.833.294 1.829.213 2.547-.293.343-.23.604-.54.833-.866.555.36 1.11.735 1.665 1.094-.636.915-1.567 1.633-2.661 1.927-1.241.36-2.629.228-3.756-.392a4.579 4.579 0 01-1.975-2.074c-.54-1.094-.605-2.384-.294-3.56.294-1.044.93-1.991 1.812-2.596zm.866 1.797c-.523.555-.735 1.322-.735 2.057 1.47-.588 2.923-1.192 4.392-1.796-.163-.392-.49-.686-.882-.866-.914-.408-2.09-.13-2.775.605zM68.661 8.034a4.954 4.954 0 013.233.571c.8.441 1.47 1.127 1.878 1.943.604 1.176.686 2.613.261 3.854a4.698 4.698 0 01-2.106 2.547c-1.845 1.078-4.392.8-5.91-.718-1.536-1.47-1.846-3.985-.8-5.813.701-1.29 2.024-2.172 3.444-2.384zm.343 1.861a2.626 2.626 0 00-1.47.8c-.783.817-.979 2.09-.603 3.135a2.766 2.766 0 001.485 1.633c.719.31 1.584.294 2.27-.082a2.794 2.794 0 001.388-1.763c.294-1.061.016-2.319-.816-3.07-.605-.539-1.454-.8-2.254-.653z" fill="#FFF" fill-rule="nonzero"/><ellipse cx="16.802" cy="16.671" rx="12.638" ry="12.622"/><path d="M33.375 16.671c0 9.21-7.478 16.672-16.687 16.672v-4.05h.114c6.989 0 12.638-5.65 12.638-12.622h3.935z" fill="#FFF" fill-rule="nonzero"/><path d="M0 16.671h4.18c0 6.956 5.633 12.606 12.606 12.622v4.05h-.082C7.462 33.343 0 25.88 0 16.67zM16.688 0c9.225 0 16.687 7.462 16.687 16.671v.082H29.44v-.082C29.44 9.7 23.774 4.05 16.802 4.05h-.114V0z" fill="#FFF" fill-rule="nonzero"/><path d="M0 16.753v-.082C0 7.462 7.478 0 16.688 0h.081v4.05C9.813 4.065 4.164 9.714 4.164 16.67v.082H0zm8.507-2.727l2.27-2.547 5.78 3.462L32.004 0l2.04 1.861-17.111 20.574zm77.201 9.667c.343-.18.784.13.751.522-.016.392-.506.637-.832.408-.327-.212-.278-.783.081-.93zm-46.716.67c1.046-.915 2.76-.899 3.772.064-.114.164-.212.343-.375.474-.13.033-.229-.065-.343-.114a2.119 2.119 0 00-2.172-.131c-.522.278-.849.85-.947 1.42-.114.67-.049 1.405.343 1.993.294.457.816.767 1.355.8.523.032 1.078-.033 1.486-.392.098-.065.196-.196.327-.18.163.115.277.278.408.409a2.589 2.589 0 01-1.812.865c-.719.065-1.486-.13-2.042-.62-.506-.425-.783-1.062-.898-1.699v-1.208c.115-.637.409-1.257.898-1.682zm34.127-.605c.637 0 1.29-.016 1.927 0 .571.033 1.208.196 1.567.686.425.637.327 1.584-.228 2.106a1.988 1.988 0 01-.882.457c.212.164.343.376.49.588.473.653.93 1.29 1.404 1.943-.277 0-.539.017-.816-.016-.13 0-.213-.098-.278-.196-.457-.653-.93-1.306-1.388-1.96-.212-.326-.653-.163-.963-.195v2.384h-.817c-.016-1.943-.016-3.87-.016-5.797zm.816.653v2.123c.556-.017 1.16.081 1.65-.212.587-.343.67-1.356.065-1.731-.523-.278-1.143-.147-1.715-.18zm-22.484-.245c.163-.049.327-.016.49-.032v1.371h1.143v.555h-1.143v2.482a.4.4 0 00.392.408c.212.033.36-.114.539-.18.163.099.212.311.326.458-.408.343-1.012.474-1.502.261-.36-.147-.522-.571-.506-.93V26.06c-.18 0-.376.017-.555-.016-.13-.114-.05-.31-.082-.457a8.5 8.5 0 01.653-.082c.05-.375.098-.751.147-1.11.033-.082.033-.18.098-.229zm-3.51 1.486c.685-.44 1.665-.36 2.253.196-.065.114-.13.229-.212.343-.115.114-.262-.016-.36-.065-.326-.18-.734-.245-1.077-.115-.213.082-.392.294-.36.54.017.195.18.31.327.391.49.229 1.078.278 1.486.653.31.294.326.768.18 1.143-.131.36-.425.62-.784.735a2.133 2.133 0 01-2.058-.376c.115-.147.164-.424.409-.408.212.082.375.245.604.294.326.098.718.098.996-.13.245-.196.294-.637.016-.817-.506-.343-1.192-.31-1.633-.767-.44-.458-.294-1.274.213-1.617zm6.906-.212c.605-.13 1.274-.05 1.764.343.457.359.67.963.702 1.535.033.62-.114 1.29-.555 1.747-.817.8-2.4.686-3.005-.327-.359-.62-.391-1.404-.195-2.074.146-.62.669-1.11 1.29-1.224zm.18.571c-.457.098-.735.555-.784.996-.065.523-.065 1.094.229 1.552.294.44.914.506 1.372.342.44-.18.62-.669.669-1.11.033-.49.016-1.045-.31-1.453-.278-.36-.768-.408-1.176-.327zm3.74-.016c.31-.36.75-.67 1.24-.604.457 0 .8.392.915.816.31-.832 1.47-1.061 2.155-.555.376.294.506.8.49 1.257v2.63h-.768v-2.63c0-.277-.065-.604-.31-.783-.359-.229-.898-.147-1.143.212-.13.18-.163.424-.163.637v2.563h-.768v-2.694c0-.327-.13-.735-.49-.816-.44-.131-.865.13-1.126.473v3.037h-.767v-4.082c.195 0 .375-.033.571.016.163.115.114.343.163.523zm6.04-.114c.54-.523 1.405-.653 2.09-.343.687.31 1.013 1.126.915 1.845 0 .114-.114.13-.212.13h-2.629c.016.409.114.85.408 1.16.343.343.898.375 1.34.245.244-.066.44-.229.669-.31.18.016.261.244.375.359-.44.49-1.11.653-1.747.62-.506-.032-1.012-.245-1.322-.637-.36-.44-.49-1.045-.474-1.616.016-.539.212-1.078.588-1.453zm.752.196c-.343.196-.49.587-.555.963h2.155c-.016-.278-.081-.571-.277-.784-.327-.375-.915-.392-1.323-.18zm4.278-.588c.294-.163.653-.147.963-.033-.016.229-.016.457-.065.67-.18.098-.392-.033-.588 0-.457.016-.767.44-.881.849-.017.849 0 1.698 0 2.563h-.768v-4.082c.196.016.408-.033.588.033.147.212.082.506.114.767.164-.31.343-.604.637-.767zm8.507.081c.686-.326 1.633-.244 2.14.36.342.408.49.996.391 1.518-.016.017-.065.033-.082.05-.914.032-1.828 0-2.743.016.017.408.115.849.408 1.159.31.31.8.375 1.209.277.277-.049.506-.212.75-.326.213-.082.311.212.442.343-.441.473-1.11.653-1.747.62-.523-.016-1.045-.261-1.356-.686-.392-.522-.506-1.224-.424-1.861.081-.62.44-1.208 1.012-1.47zm.294.507c-.343.196-.49.587-.555.963h2.155c-.016-.294-.081-.604-.31-.816-.327-.343-.882-.36-1.29-.147zm8.915-.131c.556-.604 1.535-.751 2.254-.36.62.344.898 1.111.816 1.797 0 .114-.114.13-.196.114h-2.645c.016.408.114.85.408 1.16.343.342.898.375 1.34.244.244-.065.44-.244.685-.31.18.017.261.245.376.36-.441.473-1.11.653-1.748.62-.506-.016-1.012-.245-1.322-.637-.36-.424-.474-.996-.474-1.551-.016-.506.147-1.045.506-1.437zm.8.13c-.342.197-.49.588-.555.948h2.156c-.017-.278-.082-.572-.278-.784-.326-.36-.898-.376-1.322-.163zm9.373-.44c.686-.408 1.633-.327 2.22.228-.113.131-.146.392-.358.376-.294-.114-.572-.31-.898-.278-.31-.016-.67.131-.752.458-.065.212.082.408.262.506.49.261 1.094.294 1.518.67.36.326.343.897.13 1.305-.244.474-.8.686-1.305.686a2.046 2.046 0 01-1.454-.49c.115-.163.18-.457.441-.408.212.098.392.261.62.31.31.066.654.066.915-.13.278-.196.327-.67.016-.85-.49-.326-1.159-.31-1.6-.734-.457-.457-.31-1.323.245-1.65zm-54.44-.213h.768v2.646c0 .343.147.75.507.849.506.163 1.028-.115 1.371-.49v-3.005h.768v4.083c-.18 0-.376.032-.572-.017-.147-.13-.098-.359-.163-.539-.262.262-.572.507-.947.588-.425.082-.915.033-1.258-.261-.342-.294-.457-.767-.457-1.192-.016-.898 0-1.78-.016-2.662zm37.785 0c.229 0 .474-.016.702.017.114.016.147.147.18.228.294.784.604 1.568.914 2.352.082.228.147.473.196.702.098-.49.31-.947.49-1.42l.637-1.617c.049-.098.081-.229.196-.245.212-.017.44 0 .653 0-.555 1.355-1.094 2.727-1.65 4.082h-.685a427.708 427.708 0 00-1.633-4.099zm4.474.017h.768v4.082h-.768V25.44zm5.323 0c.261.032.555-.082.784.065.147.343.229.735.343 1.094.196.702.44 1.388.571 2.107.262-1.013.62-1.993.931-2.972.049-.115.065-.278.212-.294a1.52 1.52 0 01.474.016c.13.065.147.245.196.36.294.963.637 1.91.882 2.906.195-.98.538-1.91.8-2.874.049-.13.065-.36.245-.392.212-.016.408 0 .62 0-.44 1.355-.865 2.727-1.306 4.082-.229 0-.457.017-.67-.016-.081-.082-.098-.212-.147-.327-.294-.947-.636-1.894-.898-2.857-.261.98-.62 1.927-.914 2.89-.05.098-.05.261-.163.294-.213.016-.425 0-.62.016a399.243 399.243 0 01-1.34-4.098z" fill="#FFF" fill-rule="nonzero"/><path fill="#FFF" d="M7.5 52.75l-3.82 2.009.73-4.255-3.092-3.013 4.272-.62L7.5 43l1.91 3.87 4.272.621-3.091 3.013.73 4.255zm16 0l-3.82 2.009.73-4.255-3.092-3.013 4.272-.62L23.5 43l1.91 3.87 4.272.621-3.091 3.013.73 4.255zm16 0l-3.82 2.009.73-4.255-3.092-3.013 4.272-.62L39.5 43l1.91 3.87 4.272.621-3.091 3.013.73 4.255zm16 0l-3.82 2.009.73-4.255-3.092-3.013 4.272-.62L55.5 43l1.91 3.87 4.272.621-3.091 3.013.73 4.255z"/><g transform="translate(65 43)"><mask id="b" fill="#fff"><use xlink:href="#a"/></mask><path stroke="#FFF" d="M6.5 1.13l1.578 3.198 3.53.513L9.053 7.33l.603 3.515L6.5 9.185l-3.157 1.66.603-3.515-2.553-2.49 3.529-.512L6.5 1.13z"/><path fill="#FFF" mask="url(#b)" d="M0-2h7v18H0z"/></g><text font-family="LexendDeca-Regular, Lexend Deca" font-size="14" letter-spacing=".875" fill="#FFF"><tspan x="85" y="55">4.4</tspan></text></g></svg>