<svg width="64" height="65" xmlns="http://www.w3.org/2000/svg"><g stroke="#000" stroke-width="2.667" fill="none" fill-rule="evenodd"><path d="M33.334 5.752v-4H14.667v4"/><path stroke-linecap="round" d="M36 63.086H1.334V4.419h13.333v5.333h18.667V4.42h13.333v20"/><path d="M37.39 57.752H6.667v-48h4"/><path stroke-linecap="round" d="M41.334 24.419V9.752h-8"/><path d="M18.667 52.419h-8m26.667-37.333h-8m-10.667 32h-8M60 64.419v-6.667H41.334v6.667"/><path stroke-linecap="round" d="M30.667 35.086h28"/><path d="M60 58.28V35.087"/><path d="M43.794 28.42h0a2.87 2.87 0 00-2.068.878l-4.392 5.788" stroke-linecap="round"/><path d="M45.334 57.752V55.21L35.53 40.326c-.725-1.212-1.156-3.124-.004-4.323h0a2.846 2.846 0 014.177-.017l4.596 6.426c.247.326.63.518 1.038.52h0a1.355 1.355 0 001.329-1.382v-8.52" stroke-linecap="round"/><path d="M48 35.086h16"/><path d="M60 35.086h0a6.667 6.667 0 00-6.666-6.667H44m-9.333-3.676l-13.333 13.01L16 32.723" stroke-linecap="round"/></g></svg>