<svg width="86" height="56" xmlns="http://www.w3.org/2000/svg"><g stroke="#000" stroke-width="2.667" fill="none" fill-rule="evenodd"><path d="M68.308 49.908c0 2.194 1.79 3.972 4 3.972s4-1.778 4-3.972c0-2.192-1.79-3.97-4-3.97s-4 1.778-4 3.97zm15.999-6.694h-3.999m-3.421-10.667h-4.59a4 4 0 01-4-4v-8.085h7.286M.308 53.88h85.333m-60-3.972c0 2.194 1.792 3.972 4 3.972 2.21 0 4-1.778 4-3.972 0-2.192-1.79-3.97-4-3.97-2.208 0-4 1.778-4 3.97zm-13.333 0c0 2.194 1.792 3.972 4 3.972 2.21 0 4-1.778 4-3.972 0-2.192-1.79-3.97-4-3.97-2.208 0-4 1.778-4 3.97z"/><path d="M80.353 48.553h3.954V36.566l-7.42-4.02-1.808-17.26H62.975v33.267H52.353m-40.016-.006H1.641v-4m57.334-4H.308m52 4v4H38.975v-4m-22.667-40v32m9.333 0v-32m9.334 0v32m9.333 0v-32m9.333 0v32m13.334 2.667h2.666M6.975 36.547V7.213H1.64V4.547L4.308 1.88h58.667v9.333m-61.334 0v25.334"/></g></svg>