<svg width="65" height="65" xmlns="http://www.w3.org/2000/svg"><g stroke="#000" stroke-width="2.667" fill="none" fill-rule="evenodd"><path d="M16.678 35.752h0a5.333 5.333 0 015.333 5.334v2.666a5.333 5.333 0 01-5.333 5.334h0a5.334 5.334 0 01-5.334-5.334v-2.666a5.334 5.334 0 015.334-5.334zM14.01 49.086v2.666l-7.434 2.615a5.335 5.335 0 00-3.232 4.903v3.816m16-14v2.666l7.435 2.615a5.335 5.335 0 013.232 4.903v3.816m-21.333-.001V60.42m16 2.665V60.42m8-24.668h0a5.333 5.333 0 015.333 5.334v2.666a5.333 5.333 0 01-5.333 5.334h0a5.334 5.334 0 01-5.334-5.334v-2.666a5.334 5.334 0 015.334-5.334z" stroke-linecap="round"/><path stroke-linecap="round" d="M30.01 49.086v2.666l-5.071 1.784m10.405-4.45v2.666l4.719 1.66"/><path d="M46.01 49.086v2.666l-7.433 2.615a5.335 5.335 0 00-3.233 4.903v3.816m16-14v2.666l7.435 2.615a5.334 5.334 0 013.232 4.903v3.816M48.677 35.752h0a5.334 5.334 0 015.334 5.334v2.666a5.334 5.334 0 01-5.334 5.334h0a5.334 5.334 0 01-5.333-5.334v-2.666a5.334 5.334 0 015.333-5.334zm-8 27.333V60.42m16 2.665V60.42" stroke-linecap="round"/><path stroke-linecap="round" stroke-linejoin="round" d="M7.344 36.419H2.011V1.752h61.333V36.42h-5.333"/><path d="M30.152 9.706l.931-2.62h3.189l.932 2.62 2.32.961 2.512-1.193 2.255 2.254-1.195 2.511.961 2.321 2.62.932v3.188l-2.62.932-.961 2.32 1.195 2.512-2.255 2.255-2.512-1.195-2.32.962-.932 2.62h-3.189l-.931-2.62-2.32-.962L25.32 28.7l-2.255-2.255 1.194-2.512-.962-2.32-2.62-.932v-3.188l2.62-.932.962-2.321-1.194-2.51 2.255-2.255 2.511 1.193z"/><path d="M29.849 16.258a4 4 0 115.657 5.655 4 4 0 01-5.657-5.655z" stroke-linecap="round"/></g></svg>