<svg width="90" height="90" xmlns="http://www.w3.org/2000/svg"><g fill="#FFF"><path d="M45 1.115C20.8 1.115 1.115 20.801 1.115 45 1.115 69.198 20.8 88.885 45 88.885c24.198 0 43.885-19.687 43.885-43.885C88.885 20.8 69.198 1.115 45 1.115zm0 88.884C20.187 90 0 69.813 0 45 0 20.188 20.187 0 45 0s45 20.187 45 45-20.187 45-45 45"/><path d="M45 19.23c-14.21 0-25.77 11.56-25.77 25.77 0 14.209 11.56 25.769 25.77 25.769 14.209 0 25.769-11.56 25.769-25.77 0-14.208-11.56-25.768-25.77-25.768zm0 52.654c-14.824 0-26.884-12.06-26.884-26.884S30.176 18.116 45 18.116c14.823 0 26.884 12.06 26.884 26.884S59.824 71.884 45 71.884M16 28.768l-4.795-3.535.733-1.522 6.62 5.21-.738 1.537-5.539-1.178 4.378 3.59-.74 1.538-8.202-1.92.732-1.522 5.746 1.528-4.676-3.753.622-1.293L16 28.768m3.88-8.333c-.645-.571-1.238-.89-1.779-.955-.54-.065-1 .116-1.38.545-.376.426-.5.901-.373 1.426.127.524.509 1.07 1.147 1.64l.3.265c.63.557 1.22.873 1.772.948.551.075 1.019-.104 1.403-.539.377-.426.5-.9.367-1.425-.133-.524-.518-1.07-1.156-1.64l-.3-.265zm1.418-1.04c.606.536 1.043 1.114 1.31 1.732.268.619.35 1.237.245 1.856-.105.619-.385 1.186-.842 1.703-.451.51-.977.857-1.576 1.041-.6.184-1.225.184-1.875.001-.65-.182-1.273-.534-1.868-1.055l-.304-.27c-.607-.536-1.045-1.117-1.313-1.743-.268-.627-.348-1.249-.243-1.866.107-.618.386-1.183.84-1.697.454-.513.981-.86 1.581-1.042.6-.18 1.227-.176 1.882.013.654.189 1.284.55 1.887 1.084l.276.243m.824-6.073l5.005 3.873-1.461-6.153 1.87-1.205 4.453 6.915-1.43.92-1.217-1.89-1.958-3.355 1.451 6.356-.978.63-5.177-3.95 2.24 3.166 1.217 1.89-1.425.918-4.452-6.916 1.862-1.199m14.468-1.729l-3.092 1.015.687 2.093 3.629-1.19.424 1.293-5.239 1.719-2.564-7.815 5.228-1.715.428 1.304-3.618 1.187.611 1.863 3.092-1.015.414 1.261m8.853 2.44l-1.687.157-3.785-5.084.5 5.389-1.688.156-.76-8.189 1.688-.157L43.5 11.4 43 6l1.682-.156.76 8.19m9.644-2.698c.205-.838.21-1.511.017-2.02-.194-.51-.57-.831-1.125-.967-.552-.135-1.031-.024-1.436.332-.405.357-.71.95-.917 1.78l-.096.389c-.2.816-.204 1.485-.014 2.008.19.524.567.854 1.13.992.553.135 1.03.022 1.432-.339.402-.361.707-.956.914-1.786l.095-.39zm1.58.77c-.193.786-.5 1.441-.923 1.966-.423.525-.933.885-1.529 1.08-.597.196-1.23.211-1.899.048-.662-.162-1.214-.465-1.655-.91-.442-.446-.733-.999-.874-1.66-.141-.66-.12-1.375.065-2.144l.096-.395c.192-.786.503-1.444.933-1.973.43-.53.942-.89 1.538-1.084.596-.193 1.227-.208 1.893-.046.666.163 1.218.468 1.658.914.439.447.728 1.004.865 1.671.137.668.11 1.393-.081 2.176l-.087.356m6.522 5.082l3.856-4.54 1.468.836-5.653 6.246-1.482-.843 1.557-5.444-3.885 4.12-1.482-.844 2.481-8.051 1.468.835-1.921 5.627 4.067-4.406 1.247.71-1.72 5.754m6.132 8.637l-1.186-1.21 1.553-6.144-3.863 3.79-1.187-1.21 5.872-5.76 1.187 1.21-1.558 6.157 3.871-3.798 1.183 1.206-5.872 5.76m6.212 3.226l-1.709-2.769-1.875 1.157 2.005 3.25-1.159.715-2.894-4.693 7-4.318 2.889 4.683-1.169.72-1.998-3.24-1.669 1.03 1.709 2.768-1.13.697m4.543 2.199l-5.18 1.822.272.772c.22.626.592 1.032 1.117 1.219.525.186 1.169.15 1.932-.111l.41-.144c.788-.278 1.329-.651 1.62-1.122.292-.47.327-1.02.106-1.648l-.277-.788zm-7.026.675l7.758-2.73.84 2.388c.24.682.3 1.346.183 1.992a3.402 3.402 0 01-.867 1.722c-.46.502-1.052.879-1.773 1.132l-.357.126c-.721.254-1.414.331-2.08.232a3.375 3.375 0 01-1.747-.796c-.5-.43-.87-.985-1.112-1.663l-.845-2.403m-50.107 39.57l1.123.85c.357.27.697.4 1.02.39.323-.009.597-.162.82-.458.247-.326.333-.632.257-.918-.076-.285-.31-.577-.704-.873l-1.114-.844-1.402 1.853zm-.638.843l-1.56 2.062 1.273.964c.36.271.708.395 1.045.37.338-.025.626-.196.866-.514.519-.686.434-1.3-.256-1.846l-1.368-1.036zm-3.399 2.11l4.992-6.598 2.261 1.711c.746.565 1.2 1.144 1.364 1.738.164.594.021 1.187-.427 1.779a1.79 1.79 0 01-.861.63c-.346.119-.727.125-1.141.02.283.367.421.757.413 1.172-.007.415-.152.81-.436 1.184-.468.62-1.027.945-1.676.977-.648.031-1.343-.233-2.083-.793l-2.406-1.82m15.873-.118l-2.31 5.023c-.366.799-.912 1.314-1.638 1.546-.725.231-1.513.152-2.363-.24-.86-.394-1.438-.938-1.733-1.63-.295-.692-.255-1.446.12-2.262l2.306-5.019 1.301.599-2.31 5.028c-.232.503-.28.945-.148 1.327.133.382.447.687.943.915 1.005.462 1.751.162 2.239-.897l2.291-4.988 1.302.598m3.738 7.163c.079-.355.014-.656-.193-.904-.207-.247-.615-.541-1.223-.88-.607-.34-1.077-.673-1.409-.998-.634-.624-.87-1.309-.705-2.053.144-.65.527-1.129 1.151-1.433.624-.305 1.36-.364 2.207-.177.562.124 1.04.338 1.435.642.394.305.675.676.842 1.114.167.44.2.89.097 1.357l-1.399-.308c.094-.422.034-.781-.178-1.078-.212-.297-.564-.5-1.056-.608-.459-.101-.836-.082-1.133.058-.296.14-.483.386-.56.738-.066.295.016.572.246.831.23.258.64.55 1.227.876.587.325 1.045.649 1.374.972.328.323.547.658.657 1.006a2.2 2.2 0 01.027 1.144c-.149.673-.525 1.151-1.129 1.435-.603.284-1.347.328-2.232.134a4.042 4.042 0 01-1.54-.681c-.442-.325-.757-.707-.945-1.148a2.285 2.285 0 01-.114-1.421l1.403.309c-.1.459-.027.847.22 1.166.249.318.655.54 1.222.664.488.108.877.09 1.167-.053a.98.98 0 00.541-.704m4.5 2.61l-1.429-.096.557-8.255 1.428.096-.556 8.255m9.158-.469l-1.43.14-4.245-5.48.575 5.841-1.43.141-.811-8.233 1.43-.141 4.259 5.502-.577-5.864 1.42-.14.81 8.234m6.201-5.674l-3.23 1.052.787 2.42 3.777-1.229.355 1.091-5.143 1.675-2.562-7.867 5.107-1.662.358 1.102-3.738 1.217.706 2.172 3.232-1.051.351 1.08m6.415-1.559c-.18-.317-.428-.498-.748-.544-.32-.046-.819.007-1.498.16-.68.152-1.251.218-1.715.197-.89-.042-1.52-.395-1.895-1.057-.327-.581-.36-1.193-.1-1.837.262-.643.77-1.177 1.526-1.604.501-.282 1-.442 1.498-.479a2.53 2.53 0 011.37.268c.417.215.743.53.978.946l-1.248.703c-.212-.376-.496-.604-.852-.684-.356-.08-.753.004-1.192.252-.409.23-.678.497-.805.8-.127.302-.103.61.075.923.148.264.394.416.738.455.344.038.843-.017 1.498-.167.655-.15 1.212-.214 1.672-.193.46.021.847.125 1.16.311.314.187.576.464.784.834.339.6.378 1.207.118 1.822-.26.614-.785 1.144-1.574 1.589a4.04 4.04 0 01-1.6.52c-.547.055-1.037-.02-1.47-.224a2.285 2.285 0 01-1.035-.982l1.253-.706c.23.41.544.65.941.721.397.072.848-.035 1.353-.32.436-.245.713-.518.833-.818a.982.982 0 00-.065-.886m6.032-4.679c-.239-.274-.52-.4-.841-.381-.322.02-.8.173-1.435.46-.635.287-1.181.467-1.64.54-.88.139-1.57-.079-2.07-.653-.438-.502-.594-1.095-.468-1.778.125-.682.515-1.309 1.17-1.879.433-.378.89-.636 1.369-.772a2.522 2.522 0 011.396-.016c.452.127.835.37 1.148.73l-1.079.94c-.284-.325-.608-.49-.972-.497-.365-.006-.737.156-1.117.487-.354.31-.563.624-.626.947-.064.321.022.618.26.89.198.227.47.326.815.294.344-.031.822-.186 1.433-.466.61-.278 1.144-.455 1.598-.527.455-.072.855-.049 1.2.07.345.119.657.338.935.658.454.52.615 1.107.484 1.76-.13.655-.537 1.28-1.219 1.875a4.037 4.037 0 01-1.463.834c-.524.163-1.019.19-1.485.078a2.285 2.285 0 01-1.21-.753l1.082-.946c.31.355.665.527 1.069.517.403-.01.823-.206 1.26-.587.377-.329.593-.652.65-.97a.981.981 0 00-.244-.855m-58.149-8.999l1.495 1.458-.353 2.058 1.849-.972 1.848.972-.353-2.058 1.495-1.458-2.066-.3-.924-1.872-.924 1.872-2.067.3zm5.394 4.28l-2.403-1.264-2.404 1.264.46-2.676-1.945-1.896 2.687-.39 1.202-2.435 1.201 2.435 2.687.39-1.944 1.896.46 2.676M8.13 52.455l1.496 1.458-.353 2.057 1.848-.972 1.849.972-.353-2.057 1.495-1.458-2.066-.3-.925-1.873-.924 1.873-2.066.3zm5.395 4.28l-2.404-1.264-2.403 1.264.459-2.677-1.944-1.895 2.687-.39 1.201-2.437 1.202 2.437 2.687.39-1.944 1.895.46 2.677M6.43 41.826l1.495 1.458-.353 2.057 1.849-.972 1.848.972-.353-2.057 1.495-1.458-2.066-.3-.924-1.874-.924 1.874-2.067.3zm5.394 4.28L9.421 44.84l-2.404 1.265.46-2.677-1.945-1.895 2.687-.39 1.202-2.437 1.202 2.436 2.686.39-1.944 1.896.46 2.677m65.076-4.279l1.496 1.458-.353 2.057 1.848-.972 1.849.972-.354-2.057 1.496-1.458-2.066-.3-.925-1.874-.924 1.874-2.067.3zm5.395 4.28l-2.404-1.265-2.403 1.265.459-2.677-1.945-1.895 2.688-.39 1.201-2.437 1.202 2.436 2.687.39-1.945 1.896.46 2.677m-8.252 19.161l1.849.972-.353-2.058 1.495-1.458-2.067-.3-.924-1.872-.924 1.872-2.066.3 1.495 1.458-.353 2.058 1.848-.972zm2.404 1.736l-2.404-1.264-2.403 1.264.46-2.676-1.945-1.896 2.687-.39 1.201-2.435 1.202 2.435 2.687.39-1.944 1.896.459 2.676m2.14-12.005l1.849.972-.353-2.057 1.495-1.458-2.067-.3-.924-1.873-.924 1.873-2.066.3 1.495 1.458-.353 2.057 1.848-.972zm-2.403 1.737l.459-2.677-1.944-1.895 2.687-.39 1.201-2.437 1.202 2.437 2.687.39-1.944 1.895.459 2.677-2.404-1.264-2.403 1.264"/><path d="M26.985 47.006c1.99-3.08 4.62-5.772 7.112-8.5 1.882-2.062 4.036-3.872 6.015-5.849 4.53-4.524 5.83-6.613 7.762-12.859-.24-.29-.507-.574-.789-.856l-.34-.026c-.04 2.439-.861 4.678-2.426 6.417-2.945 3.27-6.107 6.348-9.231 9.45-2.357 2.343-4.89 4.513-7.178 6.917-3.547 3.725-6.097 8.041-7.011 13.21a.665.665 0 01-.06-.016 26.216 26.216 0 005.723 8.592c-2.844-4.822-2.89-11.354.423-16.48"/><path d="M29.118 37.788c3.606-3.4 7.445-6.55 11.149-9.847 2.823-2.515 5.401-5.226 6.474-9.025a26.443 26.443 0 00-1.707-.062c-14.098 0-25.196 10.633-26.176 24.577.36-.989.815-2.17 1.288-3.103 1.761-3.478 4.954-6.674 8.155-8.781 3.397-2.235 6.51-3.67 9.97-5.808 2.643-1.634 5.113-3.461 6.52-6.385-.377 1.97-2.805 5.54-4.32 6.725-2.843 2.224-3.31 2.452-6.276 4.517-2.236 1.557-5.296 3.16-7.487 4.777-3.317 2.449-6.298 5.237-7.807 9.139-.002.163-.012.325-.012.489 0 3.227.591 6.317 1.665 9.173.307-1.643.545-3.306 1.028-4.895 1.383-4.548 4.138-8.285 7.536-11.491m4.765 23.892c1.041-5.604 5.282-9.315 10.98-9.432 1.413-.028 2.835.042 4.242-.038 2.42-.134 3.185-1.09 3.276-3.513.03-.87.764-1.982 1.174-3.233-.14-.165-.803-.093-1.212-.571 1.802-.925 1.248-1.997.495-3.539-.16-.325.664-1.12 1.179-1.503 1.702-1.268 1.83-1.775.249-3.062-2.423-1.974-3.446-4.444-3.516-7.557-.07-3.138-.479-6.233-2.513-8.965-.022 2.733-.712 5.144-1.863 7.461-1.895 3.814-4.737 6.892-7.663 9.91-2.695 2.777-5.46 5.497-8.016 8.399-4.733 5.374-5.718 11.488-3.19 18.18.031.076.055.155.08.234a26.14 26.14 0 009.964 5.598c-2.191-1.206-4.246-5.257-3.666-8.37"/></g></svg>