<svg width="81" height="49" xmlns="http://www.w3.org/2000/svg" xmlns:xlink="http://www.w3.org/1999/xlink"><defs><path id="a" d="M0 0h28v30H0z"/></defs><g fill="none" fill-rule="evenodd"><path d="M35.295 43.755c0 .337-.149.466-.384.466-.236 0-.385-.129-.385-.466v-2.548c0-.338.15-.466.385-.466.235 0 .384.128.384.466v2.548Zm-.384-3.687c-.729 0-1.126.43-1.126 1.185v2.455c0 .755.397 1.186 1.126 1.186.728 0 1.126-.43 1.126-1.186v-2.455c0-.754-.398-1.185-1.126-1.185Zm2.954 4.773h.742v-1.949h.957v-.675h-.957v-1.422h1.22v-.673h-1.962v4.72Zm6.064 0h2.024v-.674h-1.281v-1.383h1.018v-.674h-1.018v-1.315h1.281v-.673h-2.024v4.72Zm6.306-4.72h-.687l-.573 1.74-.56-1.74h-.769l.776 2.292-.83 2.428h.695l.613-1.868.607 1.868h.782l-.83-2.428.776-2.291Zm2.72-.053c-.728 0-1.106.43-1.106 1.185v2.455c0 .755.378 1.186 1.106 1.186.728 0 1.105-.43 1.105-1.186v-.628h-.701v.675c0 .337-.148.458-.385.458-.235 0-.384-.12-.384-.458v-2.548c0-.338.149-.466.384-.466.237 0 .385.128.385.466v.505h.701v-.46c0-.754-.377-1.184-1.105-1.184m2.907 4.773h2.024v-.674h-1.281v-1.383h1.017v-.674h-1.017v-1.315h1.28v-.673h-2.023v4.72Zm4.573-4.72h-.741v4.72h1.962v-.675h-1.22v-4.044Zm3.636 0h-.741v4.72h1.961v-.675h-1.22v-4.044Zm2.894 4.72h2.022v-.674h-1.28v-1.383h1.017v-.674h-1.017v-1.315h1.28v-.673h-2.022v4.72Zm5.517-1.896-.762-2.823h-.93v4.72h.667v-3.42l.924 3.42h.761v-4.72h-.66v2.823Zm3.589-2.877c-.728 0-1.106.43-1.106 1.185v2.455c0 .755.378 1.186 1.106 1.186.727 0 1.106-.43 1.106-1.186v-.628h-.702v.675c0 .337-.148.458-.385.458-.235 0-.384-.12-.384-.458v-2.548c0-.338.149-.466.384-.466.237 0 .385.128.385.466v.505h.702v-.46c0-.754-.38-1.184-1.106-1.184m4.93.727v-.673h-2.023v4.719H81v-.675h-1.28v-1.382h1.018v-.674H79.72v-1.315H81Zm-25.4-15.148h3.86v-4.213h4.123v-3.682H59.46v-4.209h-3.859v4.21h-4.035v3.681h4.035v4.213Z" fill="#FFF"/><path d="m35.146 36.11-.926-2.766h.815l.522 1.768h.014l.523-1.768h.745l-.926 2.765v2.05h-.767v-2.05Zm3.434-2.766h2.09v.688h-1.324v1.273h1.052v.688h-1.052v1.479h1.323v.687H38.58v-4.815Zm4.513 0h1.038l.794 4.815h-.766l-.14-.956v.014h-.87l-.14.942h-.71l.794-4.815Zm.836 3.22-.342-2.38h-.013l-.335 2.38h.69Zm2.758-3.22h1.135c.395 0 .682.09.863.272.182.18.272.46.272.836v.295c0 .5-.167.817-.501.95v.013a.596.596 0 0 1 .393.338c.077.17.115.396.115.68v.847c0 .137.005.249.014.333a.83.83 0 0 0 .07.251h-.78a1.092 1.092 0 0 1-.056-.22 3.271 3.271 0 0 1-.014-.371v-.88c0-.22-.036-.374-.108-.462-.072-.087-.196-.13-.373-.13h-.264v2.063h-.766v-4.815Zm1.044 2.064c.154 0 .268-.04.345-.117.077-.078.115-.209.115-.392v-.372c0-.174-.031-.3-.094-.378-.063-.078-.161-.117-.296-.117h-.348v1.376h.278Zm4.151 2.82c-.371 0-.652-.104-.843-.313-.19-.208-.285-.508-.285-.897v-.276h.724v.33c0 .312.133.468.397.468.13 0 .229-.037.296-.113.068-.076.101-.199.101-.368a.998.998 0 0 0-.14-.533c-.092-.154-.264-.339-.514-.554-.316-.275-.537-.524-.662-.747a1.507 1.507 0 0 1-.188-.753c0-.38.097-.675.292-.884.195-.208.479-.313.85-.313.367 0 .644.105.832.313.188.209.282.508.282.898v.2H52.3v-.248c0-.165-.032-.286-.097-.361-.065-.076-.16-.114-.286-.114-.255 0-.383.154-.383.461a.9.9 0 0 0 .143.488c.095.152.268.335.519.55.32.276.54.526.661.75.12.225.181.49.181.792 0 .394-.098.697-.296.908-.197.21-.484.316-.86.316Z" fill="#FFF" fill-rule="nonzero"/><g transform="translate(20)"><mask id="b" fill="#fff"><use xlink:href="#a"/></mask><path d="m27.723 20.466-2.397 2.478a14.372 14.372 0 0 0-1.393-1.726c-2.805-2.982-6.32-4.469-10.552-4.469-.46 0-.95.04-1.456.113-.508.08-1.021.193-1.552.345l1.902-8.736h15.228V0H5.643L0 26.723l7.233 1.672c.912-1.005 1.83-1.753 2.774-2.258.943-.5 1.902-.756 2.868-.756 1.823 0 3.367.715 4.653 2.146a6.96 6.96 0 0 1 1.305 2.131l-.056.058.275.284L28 20.749l-.277-.283Z" fill="#FEFEFE" mask="url(#b)"/></g><path d="M28.688 39.012c-.145-.077-.29-.153-.427-.24-1.163-.74-2.094-1.833-2.81-3.273h-7.243V0H5.077L0 8.242h9.496V46.1h8.712v-5.535a14.774 14.774 0 0 0 3.577 4.112c.234.184.477.359.721.531L19.024 48.7l.272.272 9.702-9.726-.273-.271-.037.037Z" fill="#FEFEFE"/></g></svg>