<svg width="62" height="83" xmlns="http://www.w3.org/2000/svg"><path d="m41.83 43.102 4.505 2.844-.346 1.459 13.019 6.126L61.707 79.3l-2.6.271-2.545-24.303-11.19-5.265-3.902 16.46-5.79-3.92-1.854 4.177 4.684 15.525-2.502.755-4.543-15.057h-1.223L25.701 83l-2.504-.755 4.685-15.523-1.854-4.178-5.79 3.92-3.903-16.46-11.19 5.264L2.6 79.57 0 79.3l2.7-25.77 13.018-6.125-.346-1.46 4.504-2.843 10.979 12.607L41.83 43.102Zm9.064 27.275v2.614H41.6v-2.614h9.294Zm-20.04-11.101-2.628 1.78 1.897 4.271h1.462l1.896-4.272-2.627-1.78Zm11.477-12.767L32.81 57.444l6.992 4.732 3.56-15.017-1.03-.65Zm-22.956 0-1.03.65 3.563 15.017 6.992-4.732-9.525-10.935Zm14.947-.006v2.614h-6.944v-2.614h6.944Zm4.058-4.631v2.613H23.325v-2.613H38.38ZM30.852 0c9.501.003 17.23 7.732 17.23 17.23 0 4.818-2.048 9.456-5.62 12.724l-.225.196-.098.086-.154.136a11.089 11.089 0 0 0-3.604 8.176v1.307H23.323v-1.307c0-3.106-1.32-6.092-3.621-8.196l-.42-.359c-3.61-3.3-5.656-7.937-5.656-12.764C13.626 7.732 21.353.003 30.852 0Zm0 2.614c-8.057.002-14.612 6.558-14.612 14.615 0 4.094 1.735 8.03 4.761 10.797.118.095.278.235.442.378a13.779 13.779 0 0 1 4.43 8.837h9.957a13.728 13.728 0 0 1 4.415-8.82l.167-.146c.108-.096.214-.19.32-.28a14.659 14.659 0 0 0 4.737-10.766c0-8.057-6.557-14.613-14.617-14.615Zm-1.259 4.304 2.465.87-2.872 8.132h6.968l-4.096 11.615-2.465-.869 2.87-8.133H25.49l4.102-11.615Z" fill="#FFF" fill-rule="evenodd"/></svg>