<svg width="200" height="46" xmlns="http://www.w3.org/2000/svg" xmlns:xlink="http://www.w3.org/1999/xlink"><defs><path id="a" d="M0 0h41.376v5.241H0z"/><path id="c" d="M0 0h51.509v35.107H0z"/></defs><g fill="none" fill-rule="evenodd"><path d="M1.687 7.356h41.035c3.092 0 3.963.798 3.53 2.742l-.808 3.64c-.432 1.945-1.657 2.743-4.748 2.743H18.21l-1.152 5.186h22.586c2.643 0 4.31.798 3.824 2.993l-.842 3.79c-.632 2.842-2.654 3.64-5.297 3.64H9.68l4.218-18.993H7.264L3.004 32.28s-1.299 4.709 5.644 4.994h27.53c8.676 0 11.917-3.59 12.803-7.58l1.14-5.135c.754-3.392-.825-5.037-3.313-5.735 2.604-.499 4.758-2.793 5.434-5.834l.72-3.242c1.041-4.687-1.308-7.58-9.088-7.58H8.66s-5.7-.244-6.973 5.187M95.285 2.17H72.097c-6.118 0-9.775 2.027-11.656 5.24h9.432a9.984 9.984 0 0 1 1.072-.054h23.188c2.992 0 4.133 1.147 3.668 3.24l-4.053 18.252c-.465 2.094-2.116 3.241-5.108 3.241H65.452c-2.992 0-4.133-1.147-3.668-3.241l3.498-15.751h-6.633l-3.487 15.701c-1.118 5.037 1.16 8.478 9.138 8.478h23.188c7.978 0 11.784-3.441 12.903-8.478l4.031-18.151c1.119-5.037-1.159-8.477-9.137-8.477m15.919 5.24c1.88-3.213 5.538-5.24 11.656-5.24h29.72l-1.152 5.186-40.224.055Zm-.344 29.866h24.847c7.979 0 11.785-3.442 12.903-8.478l.964-4.338c1.118-5.037-1.16-8.477-9.138-8.477h-20.644c-2.818 0-3.993-1.018-3.732-2.886h-6.632c-.905 4.812 1.452 8.072 9.212 8.072h20.644c2.993 0 4.134 1.146 3.67 3.24l-.987 4.439c-.465 2.094-2.116 3.242-5.107 3.242h-30.52s-2.263 5.238 4.518 5.186" fill="#D0D2D3"/><g transform="translate(158.624 2.17)"><mask id="b" fill="#fff"><use xlink:href="#a"/></mask><path d="M0 5.241C1.88 2.027 5.538 0 11.656 0h29.72l-1.152 5.186L0 5.241Z" fill="#D0D2D3" mask="url(#b)"/></g><path d="M158.595 37.276h24.533c7.978 0 11.784-3.442 12.902-8.478l.965-4.338c1.118-5.037-1.16-8.477-9.139-8.477h-20.644c-2.818 0-3.993-1.018-3.731-2.886h-6.633c-.905 4.812 1.452 8.072 9.212 8.072h20.645c2.992 0 4.134 1.146 3.668 3.24l-.985 4.439c-.465 2.094-2.116 3.242-5.108 3.242h-30.52s-1.926 5.51 4.834 5.186" fill="#D0D2D3"/><mask id="d" fill="#fff"><use xlink:href="#c"/></mask><path d="M0 5.188h41.036c3.092 0 3.962.797 3.53 2.742l-.808 3.64c-.432 1.945-1.657 2.743-4.748 2.743H16.523l-1.152 5.186h22.587c2.642 0 4.31.798 3.823 2.992l-.842 3.79c-.631 2.842-2.653 3.64-5.296 3.64H7.993L12.21 10.93H5.578l-4.26 19.184s-1.3 4.709 5.643 4.994h27.53c8.676 0 11.918-3.59 12.804-7.58l1.14-5.135c.754-3.392-.826-5.037-3.314-5.735 2.604-.499 4.76-2.793 5.435-5.835l.72-3.24c1.04-4.688-1.31-7.58-9.088-7.58H6.973S1.273-.243 0 5.188" fill="#E23F25" mask="url(#d)"/><path d="M93.599.002H70.41c-6.117 0-9.774 2.027-11.656 5.24h9.432a9.984 9.984 0 0 1 1.072-.054h23.189c2.992 0 4.133 1.146 3.668 3.24L92.061 26.68c-.465 2.094-2.116 3.241-5.108 3.241H63.765c-2.991 0-4.133-1.147-3.668-3.241l3.498-15.751h-6.632L53.476 26.63c-1.119 5.036 1.16 8.478 9.137 8.478h23.189c7.978 0 11.784-3.442 12.902-8.478l4.031-18.151c1.12-5.037-1.158-8.477-9.136-8.477m15.918 5.241c1.881-3.214 5.539-5.241 11.656-5.241h29.72l-1.152 5.186-40.224.055Zm-.344 29.864h24.848c7.978 0 11.784-3.44 12.902-8.477l.965-4.338c1.118-5.037-1.16-8.477-9.139-8.477h-20.644c-2.818 0-3.993-1.018-3.732-2.886h-6.632c-.905 4.812 1.452 8.072 9.212 8.072h20.645c2.993 0 4.133 1.146 3.668 3.24l-.985 4.439c-.466 2.094-2.116 3.242-5.108 3.242h-30.518s-2.263 5.238 4.518 5.185m47.764-29.864c1.881-3.214 5.539-5.241 11.657-5.241h29.72l-1.152 5.186-40.225.055Zm-.029 29.864h24.533c7.978 0 11.785-3.44 12.903-8.477l.964-4.338c1.118-5.037-1.159-8.477-9.139-8.477h-20.644c-2.818 0-3.993-1.018-3.731-2.886h-6.632c-.906 4.812 1.452 8.072 9.212 8.072h20.644c2.993 0 4.134 1.146 3.67 3.24l-.987 4.439c-.465 2.094-2.116 3.242-5.108 3.242h-30.518s-1.926 5.51 4.833 5.185m-113.3 10.831c-.78 0-1.079-.336-1.079-.83v-2.605h.65v2.61c0 .205.136.317.429.317h2.132c.293 0 .43-.112.43-.316v-2.611h.649v2.606c0 .493-.162.83-.942.83h-2.27Zm5.912 0v-2.927h-1.8v-.508h4.2v.508h-1.75v2.927zm3.346 0h.649v-3.435h-.649zm1.795 0v-3.435h.654v2.927h2.786v.508zm4.405 0h.648v-3.435h-.648zm3.39 0v-2.927h-1.8v-.508h4.202v.508h-1.752v2.927zm5.211 0v-1.396l-2.206-2.04h.83l1.698 1.572 1.698-1.571h.82l-2.192 2.04v1.395zm6.613 0v-.508h2.987c.293 0 .43-.112.43-.316v-.434c0-.206-.137-.318-.43-.318h-2.02c-.781 0-1.079-.337-1.079-.83v-.2c0-.493.298-.83 1.079-.83h2.908v.509h-2.908c-.293 0-.43.112-.43.317v.21c0 .204.137.317.43.317h2.02c.78 0 1.079.336 1.079.83v.424c0 .493-.298.83-1.079.83h-2.986Zm8.836-2.61c0-.205-.137-.317-.43-.317h-2.269c-.292 0-.429.112-.429.317v1.786c0 .204.137.317.43.317h2.269c.292 0 .43-.113.43-.317v-1.786Zm-2.699 2.61c-.78 0-1.078-.337-1.078-.83v-1.775c0-.493.298-.83 1.078-.83h2.27c.78 0 1.078.337 1.078.83v1.776c0 .492-.298.829-1.078.829h-2.27Zm4.444 0v-3.435h.654v2.927h2.786v.508zm5.445 0c-.78 0-1.079-.336-1.079-.83v-2.605h.649v2.61c0 .205.137.317.43.317h2.132c.293 0 .43-.112.43-.316v-2.611h.649v2.606c0 .493-.162.83-.942.83h-2.27Zm5.912 0v-2.927h-1.8v-.508h4.2v.508h-1.751v2.927zm3.346 0h.648v-3.435h-.648zm5.547-2.61c0-.205-.136-.317-.43-.317h-2.268c-.293 0-.43.112-.43.317v1.786c0 .204.137.317.43.317h2.269c.293 0 .43-.113.43-.317v-1.786Zm-2.698 2.61c-.78 0-1.079-.337-1.079-.83v-1.775c0-.493.298-.83 1.079-.83h2.269c.78 0 1.078.337 1.078.83v1.776c0 .492-.298.829-1.078.829h-2.27Zm8.674 0-3.665-2.674v2.674h-.566v-3.435h.561l3.421 2.552v-2.552h.566v3.435zm1.481 0v-.508h2.987c.293 0 .43-.112.43-.316v-.434c0-.206-.137-.318-.43-.318h-2.02c-.78 0-1.079-.337-1.079-.83v-.2c0-.493.298-.83 1.079-.83h2.908v.509h-2.908c-.293 0-.43.112-.43.317v.21c0 .204.137.317.43.317h2.02c.78 0 1.078.336 1.078.83v.424c0 .493-.298.83-1.078.83h-2.987Zm8.659-1.415v1.415h-.648v-3.435h3.532v.508h-2.884v1.004h2.69v.508zm7.475-1.195c0-.205-.137-.317-.43-.317h-2.269c-.293 0-.43.112-.43.317v1.786c0 .204.137.317.43.317h2.269c.293 0 .43-.113.43-.317v-1.786Zm-2.699 2.61c-.78 0-1.079-.337-1.079-.83v-1.775c0-.493.298-.83 1.079-.83h2.269c.78 0 1.078.337 1.078.83v1.776c0 .492-.298.829-1.078.829h-2.269Zm7.791-2.61c0-.205-.136-.317-.43-.317h-2.269v.888h2.27c.293 0 .43-.112.43-.318v-.253Zm-.083 2.61-.805-1.532h-1.81v1.532h-.65v-3.435h2.919c.78 0 1.078.337 1.078.83v.243c0 .444-.24.761-.849.82l.81 1.542h-.693Zm6.263 0v-2.927h-1.8v-.508h4.2v.508h-1.75v2.927zm6.781 0v-1.561h-2.81v1.561h-.65v-3.435h.65v1.366h2.81v-1.366h.65v3.435zm1.77 0v-3.435h3.533v.508h-2.884v.858h2.737v.508h-2.737v1.053h2.884v.508zm11.475 0-1.772-2.766-1.8 2.766h-.723l2.284-3.435h.473l2.27 3.435zm6.166 0v-2.405l-1.748 2.405h-.532l-1.751-2.4v2.4h-.6v-3.435h.604l2.04 2.806 2.03-2.806h.556v3.435zm1.72 0v-3.435h3.533v.508h-2.884v.858h2.737v.508h-2.737v1.053h2.884v.508zm7.918-2.61c0-.205-.137-.317-.43-.317h-2.268v.888h2.268c.293 0 .43-.112.43-.318v-.253Zm-.083 2.61-.805-1.532h-1.81v1.532h-.65v-3.435h2.918c.78 0 1.079.337 1.079.83v.243c0 .444-.239.761-.849.82l.81 1.542h-.693Zm1.765 0h.649v-3.435h-.65zm2.849 0c-.78 0-1.078-.336-1.078-.83v-1.776c0-.493.298-.83 1.078-.83h2.767v.509h-2.767c-.293 0-.43.112-.43.317v1.786c0 .204.137.316.43.316h2.767v.508h-2.767Zm7.777 0-1.772-2.766-1.8 2.766h-.723l2.284-3.435h.474l2.269 3.435zm1.369 0v-.508h2.987c.292 0 .43-.112.43-.316v-.434c0-.206-.138-.318-.43-.318h-2.02c-.781 0-1.08-.337-1.08-.83v-.2c0-.493.299-.83 1.08-.83h2.907v.509h-2.908c-.292 0-.429.112-.429.317v.21c0 .204.137.317.43.317h2.02c.78 0 1.078.336 1.078.83v.424c0 .493-.298.83-1.078.83h-2.987Z" fill="#E23F25"/></g></svg>