<?xml version="1.0" encoding="utf-8"?>
<!-- Generator: Adobe Illustrator 22.1.0, SVG Export Plug-In . SVG Version: 6.00 Build 0)  -->
<svg version="1.1" id="Слой_1" xmlns="http://www.w3.org/2000/svg" xmlns:xlink="http://www.w3.org/1999/xlink" x="0px" y="0px"
	 viewBox="0 0 118.3 109.8" style="enable-background:new 0 0 118.3 109.8;" xml:space="preserve">
<style type="text/css">
	.st0{fill:#FFFFFF;}
</style>
<path class="st0" d="M63,8c1.6,0,3.2,0.6,4.3,1.8c1.1,1.1,1.8,2.7,1.8,4.3c0,1.6-0.6,3.2-1.8,4.3c-1.1,1.1-2.5,1.7-4,1.8l-0.3,0h-3
	v1.5c19.6,0.8,35.5,16.4,36.5,36l0,0.6h0.6l5.2-5.5h15.2l-5.2,5.5h3.6v3.1h-3.6l5.2,5.5h-15.2l-5.2-5.5h-0.6
	C95.7,81.7,78.9,98,58.4,98c-21,0-38.1-17.1-38.1-38.1c0-20.3,16-37,36-38.1l0.6,0v-1.5h-3c-1.6,0-3.2-0.6-4.3-1.8
	c-1.2-1.1-1.8-2.7-1.8-4.3c0-1.6,0.6-3.2,1.8-4.3c1.1-1.1,2.5-1.7,4-1.8l0.3,0H63L63,8z M58.4,24.8c-19.3,0-35.1,15.7-35.1,35.1
	c0,19.3,15.7,35.1,35.1,35.1c18.6,0,33.9-14.6,35-33l0-0.6H81.1c-0.8,11.8-10.7,21.2-22.7,21.2c-12.5,0-22.8-10.2-22.8-22.8
	c0-12.5,10.2-22.8,22.8-22.8c11.9,0,21.7,9.2,22.7,20.9l0,0.4h12.3C92.6,39.7,77.2,24.8,58.4,24.8z M56.9,86.9l3.1,0l0,3.8l-3.1,0
	L56.9,86.9L56.9,86.9z M43.5,82.5l2.7,1.5l-1.9,3.3l-2.7-1.5C41.7,85.8,43.5,82.5,43.5,82.5z M73.2,82.5l1.9,3.3l-2.7,1.5L70.6,84
	C70.6,84,73.2,82.5,73.2,82.5z M58.4,40.2c-10.9,0-19.7,8.8-19.7,19.7c0,10.9,8.8,19.7,19.7,19.7c10.2,0,18.6-7.8,19.6-17.8l0-0.3
	H65.6c-0.7,3.3-3.7,5.8-7.2,5.8c-4,0-7.3-3.3-7.3-7.3c0-4,3.3-7.3,7.3-7.3c3.4,0,6.3,2.4,7.1,5.6l0.1,0.2H78
	C77.2,48.2,68.7,40.2,58.4,40.2L58.4,40.2z M34.2,72l1.5,2.7l-3.3,1.9l-1.5-2.7C30.9,73.9,34.2,72,34.2,72z M82.6,72l3.3,1.9
	l-1.5,2.7L81,74.7C81,74.7,82.5,72,82.6,72z M58.4,55.6c-2.4,0-4.3,1.9-4.3,4.3c0,2.4,1.9,4.3,4.3,4.3c1.7,0,3.2-1,3.9-2.5l0.1-0.2
	h-4v-3.1h4C61.7,56.7,60.1,55.6,58.4,55.6z M108,61.4h-6.7l2.3,2.4h6.7L108,61.4L108,61.4z M31.4,58.3v3.1l-3.8,0v-3.1H31.4z
	 M110.3,55.9h-6.7l-2.3,2.4h6.7L110.3,55.9z M32.5,43.1l3.3,1.9l-1.5,2.7l-3.3-1.9L32.5,43.1z M84.3,43.1l1.5,2.7l-3.3,1.9L81,45
	C81,45,84.3,43.1,84.3,43.1z M44.3,32.4l1.9,3.3l-2.7,1.5L41.7,34L44.3,32.4z M72.5,32.4l2.7,1.5l-1.9,3.3l-2.7-1.5L72.5,32.4
	L72.5,32.4z M88.4,24.2c1,0,1.9,0.4,2.6,1l0.2,0.2l1.7,1.7c0.7,0.7,1.2,1.8,1.2,2.8c0,1-0.4,1.9-1,2.6l-0.2,0.2l-2.2,2.2l-2.2-2.2
	l2.2-2.2c0.3-0.3,0.4-0.8,0.1-1.2l-0.1-0.1L89,27.5c-0.3-0.3-0.8-0.3-1.2-0.1l-0.1,0.1l-2.2,2.2l-2.2-2.2l2.2-2.2
	C86.3,24.6,87.3,24.2,88.4,24.2L88.4,24.2z M28.4,24.2c1.1,0,2.1,0.4,2.8,1.2l2.2,2.2l-2.2,2.2L29,27.5c-0.4-0.3-0.9-0.3-1.3,0
	L26,29.2c-0.4,0.4-0.4,0.9,0,1.3l2.2,2.2L26,34.8l-2.2-2.2c-0.7-0.7-1.2-1.8-1.2-2.8c0-1.1,0.4-2.1,1.2-2.8l1.7-1.7
	C26.3,24.6,27.4,24.2,28.4,24.2L28.4,24.2z M59.9,29.1v3.8h-3.1v-3.8L59.9,29.1L59.9,29.1z M63,11.1h-9.2c-0.8,0-1.6,0.3-2.2,0.9
	c-0.6,0.6-0.9,1.3-0.9,2.1c0,0.8,0.3,1.6,0.9,2.1c0.5,0.5,1.2,0.8,2,0.9l0.2,0h3v-3h3.1v3h3c0.8,0,1.6-0.3,2.2-0.9
	c0.6-0.6,0.9-1.3,0.9-2.1c0-0.8-0.3-1.6-0.9-2.2C64.5,11.4,63.8,11.1,63,11.1L63,11.1z"/>
</svg>
