<svg width="82" height="80" xmlns="http://www.w3.org/2000/svg"><path d="M17.156 60.214V80h-2.905V60.214h2.905ZM50.735 26.98v9.36H24.949V80h-2.905V33.436h25.784v-3.55H9.248c-1.695 0-3.288.66-4.486 1.857a6.308 6.308 0 0 0-1.85 4.187l-.007.298v16.537h3.55V48.22H9.36V80H6.455V55.67H0V36.228c0-2.468.962-4.791 2.71-6.539a9.171 9.171 0 0 1 6.216-2.703l.322-.005h41.487ZM46.033 0 60.92 14.888h20.094v9.002h-3.05v39.624h-30.48v6.316a5.117 5.117 0 0 1 3.658 4.896 5.116 5.116 0 0 1-5.11 5.112 5.115 5.115 0 0 1-5.11-5.112 5.116 5.116 0 0 1 3.448-4.829l.21-.067v-6.316H30.176V60.61H75.06V23.89H30.177v-2.904H78.11v-3.193H30.177V14.89h.968L46.033 0Zm0 72.522a2.206 2.206 0 0 0 0 4.41 2.207 2.207 0 0 0 0-4.41ZM33.243 50.9v5.648H30.34V50.9h2.905Zm6.378-5.649v11.297h-2.905V45.251h2.905ZM46 50.173v6.375h-2.905v-6.375H46Zm6.378-7.278v13.652h-2.905V42.895h2.905Zm6.377 4.05v9.602H55.85v-9.602h2.905Zm6.378-7.262v16.864h-2.905V39.683h2.905Zm6.378 2.744v14.12h-2.905v-14.12h2.905Zm.24-8.991v2.905H55.61v-2.905h16.14ZM58.837 26.98v2.905H55.61V26.98h3.227Zm6.456 0v2.905h-3.228V26.98h3.228Zm6.455 0v2.905h-3.227V26.98h3.227ZM15.703 6.784c4.716 0 8.553 3.838 8.553 8.554s-3.837 8.552-8.553 8.552c-4.717 0-8.552-3.836-8.552-8.552 0-4.716 3.835-8.554 8.552-8.554Zm0 2.905a5.654 5.654 0 0 0-5.647 5.649 5.654 5.654 0 0 0 5.647 5.648 5.655 5.655 0 0 0 5.648-5.648 5.655 5.655 0 0 0-5.648-5.649Zm30.33-5.58-10.78 10.78h21.56L46.033 4.11Z" fill="#FFF" fill-rule="evenodd"/></svg>