<svg width="90" height="90" xmlns="http://www.w3.org/2000/svg"><path d="M45 0c24.812 0 44.999 20.187 44.999 45s-20.187 45-45 45S0 69.813 0 45 20.186 0 45 0Zm1.588 3.217v2.584C67.49 6.638 84.239 23.895 84.239 45c0 20.893-16.415 38.017-37.025 39.17l-.626.03v2.583C68.914 85.944 86.823 67.53 86.823 45S68.914 4.056 46.588 3.217ZM5.8 46.587H3.216c.811 21.582 18.045 39.025 39.542 40.167l.653.03V84.2C23.036 83.383 6.615 66.963 5.8 46.588Zm40.788-37.61v29.497a6.738 6.738 0 0 1 4.87 4.688l.067.25H73.4V45c0 14.975-11.652 27.277-26.365 28.324l-.447.028v7.67c19.15-.834 34.475-16.67 34.475-36.022 0-19.353-15.324-35.189-34.475-36.023Zm-29.942 37.61h-7.67c.803 18.438 15.513 33.324 33.877 34.407l.558.029v-7.67c-14.398-.799-25.968-12.368-26.765-26.765Zm37.561 26.55c1.229 0 2.224.998 2.224 2.227a2.222 2.222 0 0 1-2.224 2.222 2.223 2.223 0 1 1 0-4.449Zm15.967-26.55H62.48c-.749 8.3-7.29 14.948-15.543 15.859l-.35.035v7.686c12.646-.79 22.797-10.933 23.586-23.58Zm-42.655 0H19.83c.783 12.52 10.734 22.587 23.202 23.554l.379.027V62.48c-8.417-.76-15.134-7.476-15.892-15.893Zm10.955 0h-7.767c.724 6.556 5.867 11.795 12.377 12.666l.327.04v-7.77a6.735 6.735 0 0 1-4.937-4.935Zm20.818 0h-7.767a6.735 6.735 0 0 1-4.687 4.87l-.25.067v7.768c6.664-.736 11.968-6.04 12.704-12.704Zm-43.37 9.193a1.481 1.481 0 1 1 0 2.965 1.48 1.48 0 0 1-1.482-1.483c0-.82.663-1.482 1.483-1.482ZM45 41.454A3.549 3.549 0 0 0 41.454 45 3.55 3.55 0 0 0 45 48.545 3.55 3.55 0 0 0 48.546 45 3.55 3.55 0 0 0 45 41.454ZM43.41 3.217c-21.58.81-39.023 18.045-40.164 39.542l-.03.653H5.8C6.608 23.24 22.71 6.946 42.8 5.83l.61-.03V3.218Zm0 5.76C24.974 9.78 10.089 24.489 9.006 42.854l-.03.558h7.67c.79-14.255 12.138-25.737 26.335-26.74l.43-.026v-7.67Zm0 10.854c-12.518.782-22.586 10.733-23.553 23.202l-.027.379h7.689c.748-8.3 7.29-14.947 15.542-15.858l.35-.035V19.83Zm0 10.876c-6.554.724-11.792 5.868-12.663 12.378l-.04.327h7.767a6.739 6.739 0 0 1 4.687-4.872l.25-.066v-7.767Zm10.066 1.8a1.112 1.112 0 1 1 0 2.225 1.112 1.112 0 0 1 0-2.226Zm-22.49-5.638c1.228 0 2.223.996 2.223 2.224a2.224 2.224 0 1 1-4.45 0c0-1.228.996-2.224 2.226-2.224Zm36.503-1.82a2.966 2.966 0 1 1 0 5.933 2.966 2.966 0 0 1 0-5.933Z" fill="#FFF" fill-rule="evenodd"/></svg>