<svg version="1.1" id="Layer_1" xmlns="http://www.w3.org/2000/svg" x="0" y="0" viewBox="0 0 200 200" style="enable-background:new 0 0 200 200" xml:space="preserve"><style>.st1{fill-rule:evenodd;clip-rule:evenodd;fill:#e5301a}</style><path d="M56.8 130.1h-2.3c-.2 0-.4-.1-.6-.2-.2-.1-.3-.3-.4-.5l-1.2-3.3h-6.6l-1.2 3.3c-.1.2-.2.3-.3.5-.2.1-.4.2-.6.2h-2.3l6.2-15.9h3l6.3 15.9zm-10.3-6h5.1l-1.9-5.3-.3-.8c-.1-.3-.2-.7-.3-1-.1.4-.2.7-.3 1l-.3.9-2 5.2zm13.8-9.9h.2l.2.1.2.2 8.3 10.6v-11.2h2.6V130h-1.5c-.4 0-.8-.2-1-.5L61 118.9V130h-2.6v-15.9c0 .1 1.9.1 1.9.1zM89 130.1h-2.3c-.2 0-.5 0-.6-.2-.2-.1-.3-.3-.4-.5l-1.2-3.3h-6.6l-1.2 3.3c-.1.2-.2.4-.3.5-.2.1-.4.2-.6.2h-2.2l6.3-15.9H83l6 15.9zm-10.3-6h5.1l-1.9-5.3c0-.2-.2-.5-.3-.8-.1-.3-.2-.7-.3-1-.1.4-.2.7-.3 1l-.3.9-2 5.2zm14.9 3.6h6.4v2.4h-9.3v-15.9h3v13.5zm13-3.8v6.2h-2.9v-6.2l-5.8-9.7h2.6c.2 0 .4.1.6.2.2.1.3.3.4.5l2.9 5.3c.3.6.6 1.1.8 1.7l.3-.9c.1-.3.3-.6.4-.9l2.9-5.3c.1-.2.2-.3.4-.4.2-.1.4-.2.6-.2h2.5l-5.7 9.7zm18.5-9.7v2.4h-4.8v13.5h-2.9v-13.5h-4.8v-2.4h12.5zm5.2 15.9h-3v-15.9h3v15.9zm14.5-3.7c.2 0 .3.1.4.2l1.2 1.3c-.6.8-1.5 1.4-2.4 1.8-1.1.5-2.2.7-3.4.6-1.1 0-2.2-.2-3.2-.6-.9-.4-1.7-.9-2.4-1.6-.7-.7-1.2-1.6-1.5-2.6-.4-1.1-.5-2.2-.5-3.3 0-1.1.2-2.2.6-3.3.8-2 2.3-3.5 4.2-4.2 1-.4 2.2-.6 3.3-.6 1.1 0 2.1.2 3.1.6.8.3 1.6.9 2.3 1.5l-1 1.4c-.1.1-.1.2-.2.2-.1.1-.2.1-.4.1s-.4-.1-.5-.2c-.2-.2-.4-.3-.7-.4-.3-.2-.7-.3-1-.4-.5-.1-1.1-.2-1.6-.2-.7 0-1.4.1-2 .4-.6.2-1.2.6-1.6 1.1-.5.5-.8 1.1-1 1.8-.3.7-.4 1.5-.4 2.3 0 .8.1 1.6.4 2.4.2.6.6 1.2 1 1.8.4.5.9.8 1.5 1.1.6.3 1.2.4 1.9.4h1.1c.3 0 .6-.1.9-.2.3-.1.5-.2.8-.4.3-.2.5-.4.7-.6l.2-.2c-.1-.2.1-.2.2-.2zm12.3-9.3-.3.3c-.1.1-.2.1-.4.1s-.3-.1-.5-.2l-.7-.4c-.3-.2-.6-.3-.9-.4-.4-.1-.8-.2-1.2-.2-.4 0-.7 0-1.1.1-.3.1-.5.2-.8.4-.2.2-.4.4-.5.6-.1.3-.2.5-.2.8 0 .3.1.7.3.9.2.3.5.5.8.6.4.2.8.4 1.2.5l1.3.4c.5.2.9.3 1.3.6.4.2.8.5 1.2.8.4.3.6.7.8 1.2.2.5.3 1.1.3 1.6 0 .7-.1 1.4-.4 2-.2.6-.6 1.2-1.1 1.6-.5.5-1.1.8-1.7 1.1-.8.3-1.5.4-2.3.4-.5 0-1 0-1.5-.1s-1-.2-1.4-.4c-.4-.2-.9-.4-1.3-.7-.4-.2-.7-.5-1-.9l.9-1.4.3-.3c.1-.1.2-.1.4-.1s.4.1.6.2l.8.5c.3.2.7.4 1 .5.5.2.9.2 1.4.2.7 0 1.4-.2 2-.6.5-.4.7-1 .7-1.6 0-.4-.1-.7-.3-1-.2-.3-.5-.5-.8-.7-.4-.2-.8-.3-1.2-.5l-1.3-.4c-.5-.1-.9-.3-1.3-.5s-.8-.5-1.2-.8c-.4-.3-.6-.8-.8-1.2-.2-.6-.3-1.2-.3-1.8 0-.6.1-1.1.3-1.6.2-.6.6-1.1 1-1.5.5-.4 1-.8 1.6-1 .7-.3 1.4-.5 2.2-.5.9 0 1.8.1 2.6.4.7.3 1.4.7 2 1.2l-.5 1.8z"/><path style="fill:none;stroke:#000;stroke-width:1.5;stroke-miterlimit:10" d="M12.4 103.1h175.2"/><path class="st1" d="M138.7 70h-3.6v21.9h16.8l2.3-3.5h-15.5V70zm-49.2 1.1L76.4 91.9h4.3l4-6.3h8.5l2.2-3.6h-8.5l4.6-7.2 10.8 17.1h4.3L93.4 71c-.7-1.1-2.2-1.4-3.3-.6-.2.1-.4.4-.6.7zm25.5 2.5h15.1l2.2-3.6h-17.4c-6.1 0-10 4.9-10 11s4 11 10 11h14.7l2.3-3.6h-17c-4.1 0-6.6-3.3-6.6-7.4.1-4.2 2.6-7.4 6.7-7.4zM38 70H22.5c-6.1 0-10.1 4.9-10.1 11 0 6 4 11 10.1 11H38c6.1 0 10-4.9 10-11s-3.9-11-10-11zm0 18.4H22.5c-4.1 0-6.5-3.3-6.5-7.4 0-4.1 2.4-7.3 6.5-7.3H38c4.1 0 6.6 3.3 6.6 7.4s-2.5 7.3-6.6 7.3zm126.4-14.8h15.1l2.2-3.6h-17.4c-6.1 0-10.1 4.9-10.1 11 0 6 4 11 10.1 11H179l2.3-3.6h-16.9c-3.2 0-6-2.4-6.3-5.7h19l2.3-3.6h-21.3c.5-3.1 3.2-5.5 6.3-5.5zM68.5 83c3.6.4 6.8-2.2 7.2-5.8.4-3.6-2.2-6.8-5.8-7.2-.5-.1-1-.1-1.5 0H50.2v21.9h4V73.6h14.3c1.6-.1 3 1.1 3.2 2.7.1 1.6-1.1 3-2.7 3.2H57L69.9 92h5.2l-9.2-8.9 2.6-.1zm117.1-13.3c-1.1 0-1.9.9-1.9 2s.9 1.9 2 1.9 1.9-.9 1.9-2c0-1-.9-1.9-2-1.9zm0 3.6c-.9 0-1.6-.7-1.6-1.6 0-.9.7-1.6 1.6-1.6.9 0 1.6.7 1.6 1.6 0 .9-.7 1.6-1.6 1.6z"/><path class="st1" d="M186 71.8c.3 0 .6-.3.6-.6 0-.4-.3-.6-.8-.6h-.9v2.3h.3v-1h.4l.6 1h.4l-.6-1.1zm-.7-.3v-.7h.5c.2 0 .5 0 .5.3s-.3.4-.6.4h-.4z"/></svg>