<svg width="150" height="24" xmlns="http://www.w3.org/2000/svg" xmlns:xlink="http://www.w3.org/1999/xlink"><defs><path id="a" d="M0 23.306h150V0H0z"/></defs><g fill="none" fill-rule="evenodd"><path d="M112.764 2.86c-.013-.225-.027-.532-.239-.863-.354-.567-1.027-.661-1.43-.661-2.078 0-2.49 1.938-2.49 3.25 0 .578.08 1.617.706 2.29.427.473.993.733 2.009.733.887 0 1.194-.107 1.395-.166V5.648h-1.655V4.23h3.486v4.264c-.533.178-1.406.473-3.12.473-1.949 0-2.952-.473-3.627-1.135-.956-.933-1.133-2.292-1.133-3.19 0-3.025 1.89-4.643 4.478-4.643 1.098 0 2.231.307 2.907 1.076.565.65.602 1.322.612 1.784h-1.9m6.694-.189c2.16 0 3.095 1.465 3.095 3.132 0 1.677-.97 3.188-3.13 3.188-1.702 0-3.049-1.05-3.049-3.142 0-1.44.733-3.178 3.084-3.178m.025 5.105c.767 0 1.285-.462 1.285-2.044 0-.793-.152-1.891-1.31-1.891-1.275 0-1.29 1.477-1.29 2.02 0 1.335.45 1.915 1.315 1.915" fill="#FEFEFE"/><mask id="b" fill="#fff"><use xlink:href="#a"/></mask><path fill="#FEFEFE" mask="url(#b)" d="M124.334 8.779h1.747V.237h-1.747zM132.035.25h1.762v7.56c0 .356.02.745.046.968h-1.773l-.047-.86c-.117.212-.234.436-.6.672-.438.284-.9.307-1.16.307-1.594 0-2.54-1.099-2.54-2.965 0-1.973 1.075-3.201 2.636-3.201 1.074 0 1.523.6 1.676.814V.249M130.7 7.763c.509 0 .922-.307 1.112-.673.258-.497.283-1.111.283-1.406 0-1.17-.509-1.808-1.301-1.808-1.169 0-1.3 1.406-1.3 2.009 0 .992.332 1.878 1.206 1.878"/><path fill="#EC2225" mask="url(#b)" d="M0 23.014h101.147V.234H0z"/><path d="M43.842 13.3h5.848l-3.087-4.965-5.667 8.983-2.578.004 6.89-10.798a1.658 1.658 0 0 1 1.355-.706c.536 0 1.036.265 1.32.694l6.928 10.81-2.594-.004-1.206-2.01h-5.919l-1.29-2.008Zm26.79 2.015v-9.38H68.45v10.298c0 .28.105.55.315.756.22.21.502.329.804.329h9.972l1.297-2.003H70.632Zm-36.2-1.677a3.848 3.848 0 0 0 3.848-3.851 3.846 3.846 0 0 0-3.847-3.851H24.86v11.382h2.185V7.954h7.241c1.009 0 1.84.815 1.84 1.833s-.831 1.833-1.84 1.833H28.12l6.53 5.698h3.185l-4.399-3.68h.997Zm-23.042 3.68a5.69 5.69 0 1 1 0-11.382h6.619a5.681 5.681 0 0 1 5.68 5.684c0 3.148-2.538 5.702-5.68 5.702l-6.62-.004Zm6.461-2.003a3.694 3.694 0 0 0 3.69-3.695c0-2.022-1.657-3.666-3.69-3.666h-6.315c-2.03 0-3.684 1.644-3.684 3.666a3.691 3.691 0 0 0 3.684 3.695h6.315Zm41.557 2.003a5.686 5.686 0 0 1-5.682-5.698 5.682 5.682 0 0 1 5.682-5.684h7.86l-1.291 2.018h-6.42a3.675 3.675 0 0 0-3.684 3.666 3.687 3.687 0 0 0 3.684 3.695h7.897l-1.292 2.003h-6.754Zm26.767-2.003a3.687 3.687 0 0 1-3.54-2.682h9.356l1.283-2.005H82.626a3.682 3.682 0 0 1 3.55-2.674h6.43l1.282-2.018h-7.866a5.684 5.684 0 0 0-5.68 5.684c0 3.148 2.543 5.698 5.68 5.698h6.754l1.284-2.003h-7.885Zm8.885-8.171a1.007 1.007 0 0 1 2.015 0 1.008 1.008 0 1 1-2.015 0Zm1.008 1.288c.702 0 1.28-.575 1.28-1.274a1.28 1.28 0 0 0-1.28-1.28c-.719 0-1.282.569-1.282 1.28 0 .7.563 1.274 1.282 1.274Zm-.124-2.033c.206 0 .282 0 .37.034.26.089.288.318.288.4 0 .015-.007.066-.015.117a.387.387 0 0 1-.175.249c-.016.007-.028.019-.066.035l.332.59h-.326l-.284-.55h-.21v.55h-.268V6.4h.354Zm.102.647c.088 0 .18-.01.235-.096a.202.202 0 0 0 .033-.123c0-.076-.04-.146-.102-.168-.062-.032-.13-.032-.268-.032h-.086v.419h.188Z" fill="#FFF" mask="url(#b)"/><path d="M106.985 14.563h2.633c1.231 0 2.26.082 2.97.933.448.543.518 1.158.518 1.595 0 .992-.413 1.831-1.087 2.27-.626.401-1.488.401-1.937.401h-1.241v3.321h-1.856v-8.52Zm1.806 3.84h.735c.59 0 1.689 0 1.689-1.3 0-1.157-.98-1.157-1.499-1.157h-.925v2.456Zm8.996 4.678c-.057-.366-.057-.637-.057-.815-.661.958-1.457.958-1.783.958-.866 0-1.254-.248-1.49-.473a1.85 1.85 0 0 1-.522-1.312c0-.473.166-1.347 1.265-1.854.733-.332 1.785-.332 2.363-.332 0-.39-.011-.58-.081-.791-.153-.437-.617-.497-.78-.497a.798.798 0 0 0-.663.331c-.13.2-.13.39-.13.531h-1.711c.008-.318.047-.956.671-1.405.543-.391 1.241-.484 1.808-.484.499 0 1.537.083 2.127.767.403.484.414 1.194.414 1.467l.013 2.397c0 .508.035 1.017.14 1.512h-1.584m-2.15-1.842c0 .401.272.85.85.85a.984.984 0 0 0 .745-.342c.308-.378.33-.84.33-1.478-1.122-.093-1.926.26-1.926.97m5.382-2.659c0-.284-.047-1.146-.083-1.489h1.643l.034 1.146c.225-.508.613-1.229 2.034-1.159v1.573c-1.773-.166-1.881.744-1.881 1.49v2.942h-1.747V18.58M130.07 23a5.444 5.444 0 0 1-1.358.188c-1.762 0-1.762-1.11-1.762-1.608v-3.272h-1.145V17.15h1.145v-1.17l1.737-.639v1.809h1.417v1.157h-1.417v2.695c.013.544.013.885.793.885.259 0 .378-.011.59-.035V23m1.585-4.822c0-.024 0-.673-.036-1.087h1.676l.05.899c.166-.273.639-1.04 1.938-1.04 1.169 0 1.666.708 1.819 1.123.13.365.165.672.165 1.782v3.228h-1.785v-3.71c0-.25 0-.462-.092-.652a.914.914 0 0 0-.851-.507c-.377 0-.723.177-.91.461-.108.153-.214.447-.214.91v3.498h-1.76v-4.905m9.077 2.362c0 .392 0 1.596 1.216 1.596.438 0 .875-.166 1.041-.827h1.594a1.995 1.995 0 0 1-.567 1.3c-.437.461-1.217.697-2.09.697-.508 0-1.478-.094-2.105-.744-.543-.567-.767-1.371-.767-2.328 0-.969.236-2.127 1.241-2.824a2.99 2.99 0 0 1 1.678-.497c.85 0 1.866.331 2.409 1.442.403.815.378 1.69.355 2.186h-4.005Zm2.221-1.098c0-.272-.023-1.335-1.04-1.335-.768 0-1.086.637-1.12 1.335h2.16Zm3.417-.862c0-.284-.045-1.146-.08-1.489h1.64l.035 1.146c.225-.508.616-1.229 2.035-1.159v1.573c-1.774-.166-1.88.744-1.88 1.49v2.942h-1.75V18.58" fill="#FEFEFE" mask="url(#b)"/></g></svg>