<svg width="34" height="29" xmlns="http://www.w3.org/2000/svg"><path d="M33.89 27.281c-2.206-1.288-4.21-3.096-6.011-5.424-1.802-2.327-2.703-4.672-2.703-7.035 0-.644.184-1.163.552-1.557.368-.394.92-.59 1.654-.59 1.839 0 3.401-.627 4.688-1.88C33.357 9.54 34 8.02 34 6.23c0-1.79-.643-3.276-1.93-4.458C30.783.591 29.22 0 27.382 0c-2.573 0-4.614.913-6.121 2.739C19.754 4.565 19 6.946 19 9.88c0 4.01 1.121 7.644 3.364 10.902 2.243 3.258 5.68 5.997 10.312 8.217l1.214-1.719Zm-19 0c-2.206-1.288-4.21-3.096-6.011-5.424-1.802-2.327-2.703-4.672-2.703-7.035 0-.644.184-1.163.552-1.557.368-.394.92-.59 1.654-.59 1.839 0 3.401-.627 4.688-1.88C14.357 9.54 15 8.02 15 6.23c0-1.79-.643-3.276-1.93-4.458C11.783.591 10.22 0 8.382 0 5.81 0 3.768.913 2.261 2.739.754 4.565 0 6.946 0 9.88c0 4.01 1.121 7.644 3.364 10.902C5.607 24.041 9.044 26.78 13.676 29l1.214-1.719Z" fill="#CE2D15"/></svg>