<svg width="64" height="64" viewBox="0 0 64 64" fill="none" xmlns="http://www.w3.org/2000/svg">
<path d="M32.92 29.04H32.9C32.6 29.01 32.3 29 32 29C29.9135 28.9991 27.8698 29.5916 26.1074 30.7085C24.345 31.8253 22.9365 33.4203 22.0464 35.3075C21.1564 37.1946 20.8213 39.2959 21.0805 41.3662C21.3396 43.4366 22.1823 45.3905 23.51 47" stroke="white" stroke-width="2" stroke-linecap="round" stroke-linejoin="round"/>
<path d="M39.065 25.64C37.0263 24.6415 34.7985 24.0882 32.5295 24.0169C30.2606 23.9456 28.0024 24.358 25.9051 25.2266C23.8077 26.0952 21.9192 27.4001 20.365 29.0548C18.8108 30.7094 17.6265 32.6758 16.8908 34.8233C16.155 36.9709 15.8847 39.2504 16.0977 41.5105C16.3107 43.7705 17.0022 45.9594 18.1263 47.9317C19.2504 49.9039 20.7813 51.6144 22.6172 52.9495C24.4532 54.2845 26.5523 55.2136 28.775 55.675" stroke="white" stroke-width="2" stroke-linecap="round" stroke-linejoin="round"/>
<path d="M36.758 24.719C22.807 21.652 7.733 11.112 2 4" stroke="white" stroke-width="2" stroke-linecap="round" stroke-linejoin="round"/>
<path d="M21.54 52.11C14.73 46.59 6.5 38.79 2 33" stroke="white" stroke-width="2" stroke-linecap="round" stroke-linejoin="round"/>
<path d="M37 40C38.6569 40 40 38.6569 40 37C40 35.3431 38.6569 34 37 34C35.3431 34 34 35.3431 34 37C34 38.6569 35.3431 40 37 40Z" stroke="white" stroke-width="2" stroke-linecap="round" stroke-linejoin="round"/>
<path d="M49 34C50.6569 34 52 32.6569 52 31C52 29.3431 50.6569 28 49 28C47.3431 28 46 29.3431 46 31C46 32.6569 47.3431 34 49 34Z" stroke="white" stroke-width="2" stroke-linecap="round" stroke-linejoin="round"/>
<path d="M59 41C60.6569 41 62 39.6569 62 38C62 36.3431 60.6569 35 59 35C57.3431 35 56 36.3431 56 38C56 39.6569 57.3431 41 59 41Z" stroke="white" stroke-width="2" stroke-linecap="round" stroke-linejoin="round"/>
<path d="M58 53C59.6569 53 61 51.6569 61 50C61 48.3431 59.6569 47 58 47C56.3431 47 55 48.3431 55 50C55 51.6569 56.3431 53 58 53Z" stroke="white" stroke-width="2" stroke-linecap="round" stroke-linejoin="round"/>
<path d="M48 47C49.6569 47 51 45.6569 51 44C51 42.3431 49.6569 41 48 41C46.3431 41 45 42.3431 45 44C45 45.6569 46.3431 47 48 47Z" stroke="white" stroke-width="2" stroke-linecap="round" stroke-linejoin="round"/>
<path d="M48 60C49.6569 60 51 58.6569 51 57C51 55.3431 49.6569 54 48 54C46.3431 54 45 55.3431 45 57C45 58.6569 46.3431 60 48 60Z" stroke="white" stroke-width="2" stroke-linecap="round" stroke-linejoin="round"/>
<path d="M35 55C36.6569 55 38 53.6569 38 52C38 50.3431 36.6569 49 35 49C33.3431 49 32 50.3431 32 52C32 53.6569 33.3431 55 35 55Z" stroke="white" stroke-width="2" stroke-linecap="round" stroke-linejoin="round"/>
<path d="M35 49C31.1134 47.1931 27.6797 44.5404 24.95 41.236" stroke="white" stroke-width="2" stroke-linecap="round" stroke-linejoin="round"/>
<path d="M33.1 54.313C33.1 54.313 25.712 49.969 23.514 47" stroke="white" stroke-width="2" stroke-linecap="round" stroke-linejoin="round"/>
<path d="M32 29C34.014 29.186 44.941 28.364 49 28" stroke="white" stroke-width="2" stroke-linecap="round" stroke-linejoin="round"/>
<path d="M49 34H43" stroke="white" stroke-width="2" stroke-linecap="round" stroke-linejoin="round"/>
<path d="M59 35H54" stroke="white" stroke-width="2" stroke-linecap="round" stroke-linejoin="round"/>
<path d="M37 34C34.6447 33.8447 32.3046 33.5104 30 33" stroke="white" stroke-width="2" stroke-linecap="round" stroke-linejoin="round"/>
<path d="M36.031 39.837C36.031 39.837 31.191 38.3 26 36" stroke="white" stroke-width="2" stroke-linecap="round" stroke-linejoin="round"/>
<path d="M48 41L43 40" stroke="white" stroke-width="2" stroke-linecap="round" stroke-linejoin="round"/>
<path d="M48 47C44.944 47 37.289 44.4 31 42" stroke="white" stroke-width="2" stroke-linecap="round" stroke-linejoin="round"/>
<path d="M58 47L54 46" stroke="white" stroke-width="2" stroke-linecap="round" stroke-linejoin="round"/>
<path d="M58 53C57 53 48 50 48 50" stroke="white" stroke-width="2" stroke-linecap="round" stroke-linejoin="round"/>
<path d="M48 54C45.888 52.8429 43.8804 51.5045 42 50" stroke="white" stroke-width="2" stroke-linecap="round" stroke-linejoin="round"/>
<path d="M46.851 59.771C46.851 59.771 42 56 41 55" stroke="white" stroke-width="2" stroke-linecap="round" stroke-linejoin="round"/>
<path d="M59 41L53 40" stroke="white" stroke-width="2" stroke-linecap="round" stroke-linejoin="round"/>
</svg>
