<svg width="64" height="64" viewBox="0 0 64 64" fill="none" xmlns="http://www.w3.org/2000/svg">
<path d="M45.5 17C47.9853 17 50 14.9853 50 12.5C50 10.0147 47.9853 8 45.5 8C43.0147 8 41 10.0147 41 12.5C41 14.9853 43.0147 17 45.5 17Z" stroke="white" stroke-width="2" stroke-linecap="round" stroke-linejoin="round"/>
<path d="M45.5 1.99998C48.218 1.93526 50.8506 2.95211 52.8194 4.82714C54.7882 6.70217 55.9321 9.28203 56 12C56 21.412 48.588 30.235 45.5 32C42.412 30.235 35 21.412 35 12C35.0679 9.28203 36.2118 6.70217 38.1806 4.82714C40.1494 2.95211 42.782 1.93526 45.5 1.99998Z" stroke="white" stroke-width="2" stroke-linecap="round" stroke-linejoin="round"/>
<path d="M47.0001 35.739C48.4001 39.9969 48.3279 44.6019 46.7948 48.8137C45.2618 53.0256 42.3571 56.5996 38.5476 58.9614C34.7381 61.3231 30.2451 62.3353 25.7909 61.8353C21.3367 61.3353 17.18 59.3521 13.989 56.2045C10.798 53.0569 8.75798 48.9278 8.19696 44.4809C7.63593 40.0339 8.58646 35.5275 10.8957 31.686C13.205 27.8445 16.7389 24.8911 20.9294 23.3004C25.1198 21.7098 29.7234 21.5744 34.0001 22.916" stroke="white" stroke-width="2" stroke-linecap="round" stroke-linejoin="round"/>
<path d="M13.6799 55.95C16.9599 53.55 22.1599 52 27.9999 52C33.8399 52 39.0399 53.55 42.3199 55.95" stroke="white" stroke-width="2" stroke-linecap="round" stroke-linejoin="round"/>
<path d="M13.6799 28.05C16.9599 30.45 22.1599 32 27.9999 32C31.4065 32.0299 34.7917 31.4588 37.9999 30.313" stroke="white" stroke-width="2" stroke-linecap="round" stroke-linejoin="round"/>
<path d="M8 42H48" stroke="white" stroke-width="2" stroke-linecap="round" stroke-linejoin="round"/>
<path d="M28 62C32.4183 62 36 53.0457 36 42C36 30.9543 32.4183 22 28 22C23.5817 22 20 30.9543 20 42C20 53.0457 23.5817 62 28 62Z" stroke="white" stroke-width="2" stroke-linecap="round" stroke-linejoin="round"/>
</svg>
