<svg width="64" height="64" viewBox="0 0 64 64" fill="none" xmlns="http://www.w3.org/2000/svg">
<path d="M20 50H2V6H62V50H44" stroke="white" stroke-width="2" stroke-miterlimit="10" stroke-linecap="round" stroke-linejoin="round"/>
<path d="M42 46H55C55 44.34 56.34 43 58 43V13C56.34 13 55 11.66 55 10H9.08C9.08 11.66 7.74 13 6.08 13C6.05 13 6.03 13 6 12.99V43.01C6.03 43 6.05 43 6.08 43C7.74 43 9.08 44.34 9.08 46H22" stroke="white" stroke-width="2" stroke-miterlimit="10" stroke-linecap="round" stroke-linejoin="round"/>
<path d="M20 14H44V20H20V14Z" stroke="white" stroke-width="2" stroke-miterlimit="10" stroke-linecap="round" stroke-linejoin="round"/>
<path d="M48 18H54L51 21L54 24H40L44 20" stroke="white" stroke-width="2" stroke-miterlimit="10" stroke-linecap="round" stroke-linejoin="round"/>
<path d="M16 18H10L13 21L10 24H24L20 20" stroke="white" stroke-width="2" stroke-miterlimit="10" stroke-linecap="round" stroke-linejoin="round"/>
<path d="M38 28H26" stroke="white" stroke-width="2" stroke-miterlimit="10" stroke-linecap="round" stroke-linejoin="round"/>
<path d="M52 40H44" stroke="white" stroke-width="2" stroke-miterlimit="10" stroke-linecap="round" stroke-linejoin="round"/>
<path d="M12 40H20" stroke="white" stroke-width="2" stroke-miterlimit="10" stroke-linecap="round" stroke-linejoin="round"/>
<path d="M42 33H22" stroke="white" stroke-width="2" stroke-miterlimit="10" stroke-linecap="round" stroke-linejoin="round"/>
<path d="M32 47C33.6569 47 35 45.6569 35 44C35 42.3431 33.6569 41 32 41C30.3431 41 29 42.3431 29 44C29 45.6569 30.3431 47 32 47Z" stroke="white" stroke-width="2" stroke-miterlimit="10" stroke-linecap="round" stroke-linejoin="round"/>
<path d="M37.601 46.318C37.879 47.211 37.661 48.234 36.954 48.953C36.235 49.661 35.212 49.88 34.32 49.599C33.882 50.432 33.007 51 32 51C30.993 51 30.118 50.432 29.681 49.6C28.77 49.88 27.757 49.662 27.047 48.954C26.338 48.235 26.119 47.212 26.4 46.319C25.569 45.881 25 45.006 25 44C25 42.994 25.569 42.119 26.399 41.682C26.119 40.78 26.337 39.756 27.046 39.047C27.765 38.339 28.788 38.12 29.68 38.401C30.118 37.568 30.993 37 32 37C33.007 37 33.882 37.568 34.319 38.4C35.211 38.12 36.234 38.338 36.953 39.046C37.66 39.765 37.879 40.778 37.6 41.681C38.431 42.119 39 42.994 39 44C39 45.006 38.431 45.881 37.601 46.318Z" stroke="white" stroke-width="2" stroke-miterlimit="10" stroke-linecap="round" stroke-linejoin="round"/>
<path d="M32 51L36 58L38 55H42L38 48.25" stroke="white" stroke-width="2" stroke-miterlimit="10" stroke-linecap="round" stroke-linejoin="round"/>
<path d="M32 51L28 58L26 55H22L26 48.25" stroke="white" stroke-width="2" stroke-miterlimit="10" stroke-linecap="round" stroke-linejoin="round"/>
</svg>
