<svg width="35" height="35" viewBox="0 0 35 35" fill="none" xmlns="http://www.w3.org/2000/svg">
<g clip-path="url(#clip0_166_313)">
<path d="M33.999 4.7849C33.4841 4.26913 32.6487 4.26824 32.1338 4.78271L16.3091 20.5657L10.5996 14.3646C10.1062 13.829 9.2721 13.7943 8.73568 14.2876C8.19967 14.781 8.16536 15.6155 8.65871 16.1515L15.2982 23.3621C15.5413 23.6264 15.8816 23.7799 16.2404 23.7873C16.2501 23.7877 16.2594 23.7877 16.2686 23.7877C16.6173 23.7877 16.9528 23.6492 17.1999 23.403L33.9964 6.65049C34.5126 6.13609 34.5135 5.30067 33.999 4.7849Z" fill="#28A9E0"/>
<path d="M33.6809 16.1809C32.9523 16.1809 32.3618 16.7714 32.3618 17.5C32.3618 25.6951 25.6951 32.3618 17.5 32.3618C9.30535 32.3618 2.63819 25.6951 2.63819 17.5C2.63819 9.30535 9.30535 2.63819 17.5 2.63819C18.2286 2.63819 18.8191 2.04771 18.8191 1.31913C18.8191 0.590488 18.2286 0 17.5 0C7.85039 0 0 7.85039 0 17.5C0 27.1492 7.85039 35 17.5 35C27.1492 35 35 27.1492 35 17.5C35 16.7714 34.4095 16.1809 33.6809 16.1809Z" fill="#043567"/>
</g>
<defs>
<clipPath id="clip0_166_313">
<rect width="35" height="35" fill="white"/>
</clipPath>
</defs>
</svg>
