<svg width="76" height="76" viewBox="0 0 76 76" fill="none" xmlns="http://www.w3.org/2000/svg">
<path d="M35.3837 56.1415C35.6311 56.3889 35.9552 56.5126 36.2793 56.5126C36.6034 56.5126 36.9275 56.3889 37.1749 56.1415L53.2952 40.0212C53.79 39.5264 53.79 38.7248 53.2952 38.23L37.7699 22.7047C37.2751 22.2099 36.4735 22.2099 35.9787 22.7047L19.8584 38.825C19.3636 39.3198 19.3636 40.1214 19.8584 40.6162L35.3837 56.1415ZM36.8743 25.3914L50.6085 39.1256L36.2793 53.4548L22.5451 39.7206L36.8743 25.3914Z" fill="white"/>
<path d="M58.7391 21.354C58.7391 20.2605 58.3123 19.2325 57.5392 18.4607C55.9979 16.9169 53.3001 16.9107 51.7514 18.4607C50.977 19.2338 50.5515 20.2617 50.5515 21.354C50.5515 22.4487 50.9783 23.4766 51.7514 24.2485C52.5233 25.0216 53.5512 25.4484 54.6447 25.4484C55.7394 25.4484 56.7673 25.0216 57.5392 24.2485C58.3123 23.4766 58.7391 22.4487 58.7391 21.354ZM55.7481 22.4573C55.1593 23.0474 54.1313 23.0499 53.5425 22.4573C53.2469 22.1629 53.0848 21.7708 53.0848 21.354C53.0848 20.9383 53.2469 20.5462 53.5425 20.2518C53.8369 19.9562 54.2291 19.7941 54.6447 19.7941C55.0615 19.7941 55.4537 19.9562 55.7481 20.2518C56.0437 20.5462 56.2057 20.9383 56.2057 21.354C56.2057 21.7708 56.0437 22.1629 55.7481 22.4573Z" fill="white"/>
<path d="M8.86664 49.092C9.19073 49.092 9.51482 48.9683 9.76222 48.7209L15.2803 43.2039L18.3158 46.2394L12.7978 51.7564C12.303 52.2512 12.303 53.0528 12.7978 53.5476C13.0452 53.795 13.3692 53.9187 13.6933 53.9187C14.0174 53.9187 14.3415 53.795 14.5889 53.5476L20.107 48.0306L23.1426 51.0662L17.6245 56.5844C17.1297 57.0791 17.1297 57.8807 17.6245 58.3755C17.8719 58.6229 18.1959 58.7466 18.52 58.7466C18.8441 58.7466 19.1682 58.6229 19.4156 58.3755L24.9338 52.8573L27.9694 55.893L22.4524 61.411C21.9576 61.9058 21.9576 62.7074 22.4524 63.2022C22.6998 63.4496 23.0239 63.5733 23.348 63.5733C23.672 63.5733 23.9961 63.4496 24.2435 63.2022L29.7605 57.6841L32.7961 60.7197L27.2791 66.2377C26.7843 66.7325 26.7843 67.5341 27.2791 68.0289C27.5265 68.2763 27.8506 68.4 28.1747 68.4C28.4987 68.4 28.8228 68.2763 29.0702 68.0289L34.5872 62.5108L35.3838 63.3073C35.6213 63.5448 35.9429 63.6784 36.2793 63.6784C36.6158 63.6784 36.9374 63.5448 37.1749 63.3073L60.4598 40.0212C60.9546 39.5264 60.9546 38.7248 60.4598 38.2301L58.5029 36.2732L68.0289 26.7472C68.2664 26.5097 68.4 26.1881 68.4 25.8516L68.3975 24.0877C68.3963 23.1055 68.3938 22.2273 68.4 20.9965C68.4012 20.6575 68.2676 20.3334 68.0289 20.0947L55.9052 7.97107C55.6677 7.73357 55.3461 7.59998 55.0097 7.59998C55.0084 7.59998 55.006 7.59998 55.0047 7.59998C53.769 7.60492 52.892 7.60369 51.9123 7.60121L50.1483 7.59998C49.8119 7.59998 49.4903 7.73357 49.2528 7.97107L39.7268 17.497L37.7699 15.5401C37.2751 15.0454 36.4735 15.0454 35.9788 15.5401L12.6926 38.825C12.4551 39.0625 12.3215 39.3842 12.3215 39.7206C12.3215 40.0571 12.4551 40.3787 12.6926 40.6162L13.4892 41.4127L7.97107 46.9297C7.47628 47.4245 7.47628 48.2261 7.97107 48.7209C8.21847 48.9683 8.54255 49.092 8.86664 49.092ZM50.6728 10.1333L51.9086 10.1345C52.7485 10.137 53.5154 10.1383 54.4864 10.1345L65.8642 21.5135C65.8617 22.487 65.8629 23.2515 65.8642 24.0914L65.8666 25.3271L56.7118 34.482L41.5179 19.2882L50.6728 10.1333ZM36.8743 18.2269L38.8312 20.1838L55.8162 37.1687L57.7731 39.1256L36.2793 60.6206L15.3793 39.7206L36.8743 18.2269Z" fill="white"/>
<path d="M37.1748 48.9757C37.6696 48.481 37.6696 47.6794 37.1748 47.1846L29.7097 39.7207L37.7698 31.6618C38.2646 31.167 38.2646 30.3654 37.7698 29.8706C37.275 29.3758 36.4735 29.3758 35.9787 29.8706L27.0229 38.8251C26.7854 39.0626 26.6519 39.3842 26.6519 39.7207C26.6519 40.0571 26.7854 40.3787 27.0229 40.6162L35.3837 48.9757C35.6311 49.2231 35.9552 49.3468 36.2793 49.3468C36.6034 49.3468 36.9274 49.2231 37.1748 48.9757Z" fill="white"/>
</svg>
