<svg viewBox="0 0 168.166 46.31" xmlns="http://www.w3.org/2000/svg" xmlns:xlink="http://www.w3.org/1999/xlink" width="168.166016" height="46.309998" fill="none" customFrame="#000000">
	<g id="Group 1">
		<path id="Vector" d="M5.59325 4.19603C5.53598 5.58144 4.61559 6.26089 3.55135 6.26089C2.35825 6.26089 1.30832 5.54103 1.06424 4.19603L5.59325 4.19603ZM3.56566 7.0199C5.56462 7.0199 6.59954 5.5947 6.59954 3.92955C6.59954 3.76979 6.57091 3.4768 6.57091 3.4768L1.02129 3.4768C1.04993 1.78513 2.32961 0.812685 3.82474 0.812685C5.14737 0.812685 5.99618 1.63863 5.99618 1.63863L6.47069 0.959182C6.47069 0.959182 5.42076 0 3.78178 0C1.63898 0 0 1.43909 0 3.50332C0 5.70142 1.62466 7.0199 3.56566 7.0199Z" fill="rgb(4,53,103)" fill-rule="nonzero" transform="matrix(1,0,0,-1,82.2285,46.31)"/>
		<path id="Vector" d="M0.920391 8.28534C0.920391 8.47162 0.805172 8.57834 0.604049 8.57834L0 8.57834L0 9.36387L1.02129 9.36387C1.63898 9.36387 1.89805 9.12455 1.89805 8.55182L1.89805 1.07916C1.89805 0.879619 2.01327 0.786163 2.21439 0.786163L2.81844 0.786163L2.81844 0L1.79783 0C1.17946 0 0.920391 0.239954 0.920391 0.812685L0.920391 8.28534Z" fill="rgb(4,53,103)" fill-rule="nonzero" transform="matrix(1,0,0,-1,89.9502,46.1501)"/>
		<path id="Vector" d="M5.59325 4.19603C5.53598 5.58144 4.61559 6.26089 3.55203 6.26089C2.35825 6.26089 1.309 5.54103 1.06424 4.19603L5.59325 4.19603ZM3.56634 7.0199C5.56462 7.0199 6.59954 5.5947 6.59954 3.92955C6.59954 3.76979 6.57091 3.4768 6.57091 3.4768L1.02129 3.4768C1.04993 1.78513 2.32961 0.812685 3.82474 0.812685C5.14737 0.812685 5.99618 1.63863 5.99618 1.63863L6.47069 0.959182C6.47069 0.959182 5.42076 0 3.78178 0C1.63966 0 0 1.43909 0 3.50332C0 5.70142 1.62534 7.0199 3.56634 7.0199Z" fill="rgb(4,53,103)" fill-rule="nonzero" transform="matrix(1,0,0,-1,93.8325,46.31)"/>
		<path id="Vector" d="M3.80974 7.0199C4.62991 7.0199 6.38342 6.70038 6.38342 5.5947L6.38342 4.99482L5.46371 4.99482L5.46371 5.38127C5.46371 5.94137 4.41379 6.20722 3.80974 6.20722C2.25734 6.20722 1.00629 5.12869 1.00629 3.50332C1.00629 1.85206 2.31461 0.825945 3.83837 0.825945C5.31918 0.825945 6.16798 1.77187 6.16798 1.77187L6.62818 1.09242C6.62818 1.09242 5.65052 0 3.79542 0C1.63898 0 0 1.4252 0 3.50332C0 5.55492 1.65329 7.0199 3.80974 7.0199Z" fill="rgb(4,53,103)" fill-rule="nonzero" transform="matrix(1,0,0,-1,101.814,46.31)"/>
		<path id="Vector" d="M0.949025 5.99442L0 5.99442L0 6.75343L0.963342 6.75343L0.963342 8.60486L1.92668 8.60486L1.92668 6.75343L3.73815 6.75343L3.73815 5.99442L1.92668 5.99442L1.92668 2.58455C1.92668 1.01286 3.00525 0.812684 3.55135 0.812684C3.75247 0.812684 3.882 0.839206 3.882 0.839206L3.882 0.0271528C3.882 0.0271528 3.70952 0 3.46476 0C2.63095 0 0.949025 0.253214 0.949025 2.4911L0.949025 5.99442Z" fill="rgb(4,53,103)" fill-rule="nonzero" transform="matrix(1,0,0,-1,109.32,46.2034)"/>
		<path id="Vector" d="M0.919709 5.62122C0.919709 5.8075 0.80449 5.91422 0.603367 5.91422L0 5.91422L0 6.69975L1.00561 6.69975C1.60966 6.69975 1.88305 6.47369 1.88305 5.94074L1.88305 5.48799C1.88305 5.20825 1.85442 4.98156 1.85442 4.98156L1.88305 4.98156C2.22803 5.99442 3.0332 6.76669 4.16903 6.76669C4.37083 6.76669 4.55764 6.72691 4.55764 6.72691L4.55764 5.83403C4.55764 5.83403 4.38515 5.86055 4.19766 5.86055C3.17705 5.86055 2.41483 5.1148 2.09849 4.12909C1.95464 3.70286 1.89737 3.25011 1.89737 2.82387L1.89737 0L0.919709 0L0.919709 5.62122Z" fill="rgb(4,53,103)" fill-rule="nonzero" transform="matrix(1,0,0,-1,114.18,46.1498)"/>
		<path id="Vector" d="M3.82474 0.812684C5.36281 0.812684 6.62818 1.98467 6.62818 3.5431C6.62818 5.06175 5.36281 6.19396 3.82474 6.19396C2.27166 6.19396 1.00629 5.06175 1.00629 3.5431C1.00629 1.98467 2.27166 0.812684 3.82474 0.812684ZM3.81042 7.0199C5.92391 7.0199 7.63447 5.52777 7.63447 3.5431C7.63447 1.51865 5.92391 0 3.82474 0C1.71125 0 0 1.51865 0 3.5431C0 5.52777 1.71125 7.0199 3.81042 7.0199Z" fill="rgb(4,53,103)" fill-rule="nonzero" transform="matrix(1,0,0,-1,119.443,46.3098)"/>
		<path id="Vector" d="M0.920391 5.62122C0.920391 5.8075 0.805171 5.91422 0.604049 5.91422L0 5.91422L0 6.69975L1.00629 6.69975C1.61034 6.69975 1.88373 6.46043 1.88373 5.954L1.88373 5.64775C1.88373 5.38127 1.8551 5.16784 1.8551 5.16784L1.88373 5.16784C2.14212 5.78098 3.06252 6.85951 4.75944 6.85951C6.55659 6.85951 7.18928 5.91422 7.18928 4.26233L7.18928 1.07853C7.18928 0.878988 7.30449 0.785532 7.50562 0.785532L8.10898 0.785532L8.10898 0L7.08837 0C6.47001 0 6.21162 0.239954 6.21162 0.812685L6.21162 4.02238C6.21162 5.07502 6.03913 6.00704 4.64422 6.00704C3.40749 6.00704 2.34393 5.22151 2.01259 4.11583C1.92668 3.8361 1.89805 3.52984 1.89805 3.21032L1.89805 0L0.920391 0L0.920391 5.62122Z" fill="rgb(4,53,103)" fill-rule="nonzero" transform="matrix(1,0,0,-1,128.085,46.1498)"/>
		<path id="Vector" d="M0.891079 9.36451L1.8401 9.36451L1.8401 8.21903L0.891079 8.21903L0.891079 9.36451ZM0.919708 5.62187C0.919708 5.80815 0.804476 5.9142 0.603353 5.9142L0 5.9142L0 6.7004L1.0206 6.7004C1.63896 6.7004 1.89736 6.46041 1.89736 5.88768L1.89736 1.07915C1.89736 0.879609 2.01258 0.78616 2.21438 0.78616L2.81776 0.78616L2.81776 0L1.79714 0C1.17877 0 0.919708 0.239945 0.919708 0.812676L0.919708 5.62187Z" fill="rgb(4,53,103)" fill-rule="nonzero" transform="matrix(1,0,0,-1,137,46.1503)"/>
		<path id="Vector" d="M3.80974 7.0199C4.62923 7.0199 6.38342 6.70038 6.38342 5.5947L6.38342 4.99482L5.46371 4.99482L5.46371 5.38127C5.46371 5.94137 4.41379 6.20722 3.80974 6.20722C2.25734 6.20722 1.00629 5.12869 1.00629 3.50332C1.00629 1.85206 2.31461 0.825945 3.83837 0.825945C5.31918 0.825945 6.16798 1.77187 6.16798 1.77187L6.62818 1.09242C6.62818 1.09242 5.65052 0 3.79542 0C1.63898 0 0 1.4252 0 3.50332C0 5.55492 1.65329 7.0199 3.80974 7.0199Z" fill="rgb(4,53,103)" fill-rule="nonzero" transform="matrix(1,0,0,-1,140.883,46.31)"/>
		<path id="Vector" d="M0.560416 1.79839C0.560416 1.79839 1.36559 0.786163 2.78913 0.786163C3.5943 0.786163 4.31288 1.14546 4.31288 1.85143C4.31288 3.31704 0.258391 3.05057 0.258391 5.20825C0.258391 6.42065 1.3799 7.0199 2.83208 7.0199C3.56566 7.0199 5.03215 6.75343 5.03215 5.80751L5.03215 5.23477L4.11176 5.23477L4.11176 5.55492C4.11176 6.04746 3.33522 6.23374 2.86071 6.23374C1.85442 6.23374 1.25037 5.91422 1.25037 5.26193C1.25037 3.75653 5.30486 4.10257 5.30486 1.87795C5.30486 0.759642 4.21266 0 2.77413 0C0.891075 0 0 1.17261 0 1.17261L0.560416 1.79839Z" fill="rgb(4,53,103)" fill-rule="nonzero" transform="matrix(1,0,0,-1,148.418,46.3099)"/>
		<path id="Vector" d="M19.3016 4.92536C19.682 4.92536 20.0018 4.7997 20.2656 4.55028C20.5274 4.30022 20.659 3.99965 20.659 3.64792C20.659 3.29683 20.5206 2.9931 20.2438 2.73673C19.1353 1.85838 17.9013 1.18209 16.5439 0.709126C15.1878 0.236165 13.7575 0 12.2548 0C8.86984 0 5.98254 1.10821 3.58816 3.32399C1.19719 5.54103 0 8.21525 0 11.3511C0 14.4856 1.19719 17.1611 3.58816 19.3775C5.98254 21.5933 8.86984 22.7021 12.2548 22.7021C13.7575 22.7021 15.1912 22.4647 16.5561 21.9917C17.9204 21.5194 19.1482 20.8437 20.2438 19.9648C20.3754 19.8435 20.4872 19.6951 20.582 19.5196C20.6774 19.3434 20.7252 19.1615 20.7252 18.9721C20.7252 18.6204 20.5936 18.323 20.3304 18.0805C20.0686 17.8374 19.7468 17.7155 19.3691 17.7155C19.0173 17.7155 18.7262 17.8165 18.4937 18.0199C16.7136 19.4653 14.6335 20.1877 12.2548 20.1877C9.62933 20.1877 7.38222 19.3232 5.51485 17.5936C3.66247 15.8767 2.73595 13.7967 2.73595 11.3511C2.73595 8.9048 3.66247 6.82415 5.51485 5.10785C7.38222 3.37829 9.62933 2.51383 12.2548 2.51383C13.4077 2.51383 14.5204 2.70895 15.5921 3.10108C16.6645 3.49322 17.6313 4.01985 18.4937 4.68225C18.7119 4.84453 18.9812 4.92536 19.3016 4.92536Z" fill="rgb(4,53,103)" fill-rule="nonzero" transform="matrix(1,0,0,-1,0,32.4509)"/>
		<path id="Vector" d="M0 21.4443C0 21.7953 0.1309 22.0934 0.393382 22.3371C0.656546 22.5796 0.976978 22.7015 1.35672 22.7015C1.73647 22.7015 2.0569 22.5796 2.32007 22.3371C2.58119 22.0934 2.71413 21.7953 2.71413 21.4443L2.71413 19.0933C5.39826 21.4986 8.27193 22.7015 11.3358 22.7015C14.4863 22.7015 17.1554 21.6741 19.3466 19.62C21.5774 17.5659 22.6941 15.0868 22.6941 12.1821L22.6941 1.2566C22.6941 0.904877 22.5578 0.608092 22.2891 0.36435C22.0192 0.121239 21.694 0 21.3142 0C20.9351 0 20.6154 0.121239 20.3522 0.36435C20.0897 0.608092 19.9582 0.904877 19.9582 1.2566L19.9582 12.1821C19.9582 14.4117 19.1107 16.2891 17.4193 17.8165C15.7271 19.3977 13.6988 20.187 11.3358 20.187C8.97074 20.187 6.93838 19.3977 5.22918 17.8165C3.55203 16.2758 2.71413 14.3978 2.71413 12.1821L2.71413 1.2566C2.71413 0.904877 2.58119 0.608092 2.32007 0.36435C2.0569 0.121239 1.73647 0 1.35672 0C0.976978 0 0.656546 0.121239 0.393382 0.36435C0.1309 0.608092 0 0.904877 0 1.2566L0 21.4443Z" fill="rgb(4,53,103)" fill-rule="nonzero" transform="matrix(1,0,0,-1,52.3135,32.4507)"/>
		<path id="Vector" d="M12.2555 2.51383C12.6346 2.51383 12.9591 2.39196 13.2284 2.14821C13.497 1.90574 13.6341 1.60832 13.6341 1.25723C13.6341 0.904877 13.497 0.608724 13.2284 0.364982C12.9591 0.12124 12.6346 0 12.2555 0C6.50819 0 3.63316 2.66222 3.63316 7.98603L3.63316 20.1877L1.37854 20.1877C0.999476 20.1877 0.674953 20.3095 0.405653 20.5539C0.134308 20.7964 0 21.0938 0 21.4449C0 21.796 0.134308 22.0934 0.405653 22.3371C0.674953 22.5796 0.999476 22.7021 1.37854 22.7021L3.63316 22.7021L3.63316 31.1939C3.63316 31.5457 3.76542 31.8437 4.02586 32.0862C4.28766 32.3299 4.61014 32.4512 4.99125 32.4512C5.36895 32.4512 5.69279 32.3299 5.96277 32.0862C6.23275 31.8437 6.3691 31.5457 6.3691 31.1939L6.3691 22.7021L10.4611 22.7021C10.8408 22.7021 11.164 22.5796 11.4347 22.3371C11.7046 22.0934 11.839 21.796 11.839 21.4449C11.839 21.0938 11.7046 20.7964 11.4347 20.5539C11.164 20.3095 10.8408 20.1877 10.4611 20.1877L6.3691 20.1877L6.3691 7.98603C6.3691 4.33747 8.33124 2.51383 12.2555 2.51383Z" fill="rgb(4,53,103)" fill-rule="nonzero" transform="matrix(1,0,0,-1,78.6401,32.4512)"/>
		<path id="Vector" d="M12.2562 20.1877C9.62933 20.1877 7.3829 19.3232 5.51621 17.5936C3.64747 15.8634 2.71549 13.7834 2.71549 11.3511C2.71549 8.91869 3.64747 6.83741 5.51621 5.10785C7.3829 3.37829 9.62933 2.51383 12.2562 2.51383C14.8824 2.51383 17.1295 3.37829 18.9962 5.10785C20.8499 6.82415 21.7751 8.9048 21.7751 11.3511C21.7751 13.7967 20.8499 15.8773 18.9962 17.5936C17.1295 19.3232 14.8824 20.1877 12.2562 20.1877ZM24.511 11.3511C24.511 8.21588 23.3145 5.54103 20.9236 3.32399C18.5299 1.10821 15.6405 0 12.2562 0C8.87189 0 5.98254 1.10821 3.58952 3.32399C1.19651 5.54103 0 8.21588 0 11.3511C0 14.4856 1.19651 17.1611 3.58952 19.3775C5.98254 21.5933 8.87189 22.7021 12.2562 22.7021C15.6405 22.7021 18.5299 21.5933 20.9236 19.3775C23.3145 17.1611 24.511 14.4856 24.511 11.3511Z" fill="rgb(4,53,103)" fill-rule="nonzero" transform="matrix(1,0,0,-1,94.768,32.4511)"/>
		<path id="Vector" d="M22.6941 1.2566C22.6941 0.904877 22.5578 0.608093 22.2891 0.36435C22.0198 0.12124 21.694 0 21.3156 0C20.9365 0 20.6147 0.12124 20.3529 0.36435C20.0897 0.608093 19.9588 0.904877 19.9588 1.2566L19.9588 3.60751C17.274 1.20166 14.401 0 11.3365 0C8.22693 0 5.55098 1.0198 3.30591 3.06067C1.10242 5.1148 0 7.60021 0 10.5188L0 21.4443C0 21.7953 0.1309 22.0934 0.393382 22.3371C0.656545 22.5796 0.977659 22.7015 1.35604 22.7015C1.73579 22.7015 2.05758 22.5796 2.32007 22.3371C2.58118 22.0934 2.71345 21.7953 2.71345 21.4443L2.71345 10.5188C2.71345 8.30302 3.55203 6.41812 5.22987 4.86411C6.96634 3.2962 9.00279 2.5132 11.3365 2.5132C13.6988 2.5132 15.7285 3.2962 17.4199 4.86411C19.1121 6.41812 19.9588 8.30302 19.9588 10.5188L19.9588 21.4443C19.9588 21.7953 20.0897 22.0934 20.3529 22.3371C20.6147 22.5796 20.9365 22.7015 21.3156 22.7015C21.694 22.7015 22.0198 22.5796 22.2891 22.3371C22.5578 22.0934 22.6941 21.7953 22.6941 21.4443L22.6941 1.2566Z" fill="rgb(4,53,103)" fill-rule="nonzero" transform="matrix(1,0,0,-1,122.803,32.4507)"/>
		<path id="Vector" d="M0 21.4443C0 21.7953 0.1309 22.0934 0.393382 22.3371C0.656545 22.5796 0.976978 22.7015 1.35536 22.7015C1.73511 22.7015 2.0569 22.5796 2.31938 22.3371C2.58187 22.0934 2.71277 21.7953 2.71277 21.4443L2.71277 18.5863C5.67506 21.33 8.85552 22.7015 12.2548 22.7015C14.0793 22.7015 15.6391 22.4382 16.9372 21.9109C17.1711 21.8301 17.3831 21.7013 17.5726 21.5257C17.8201 21.2952 17.9449 20.9991 17.9449 20.6341C17.9449 20.2824 17.8133 19.985 17.5515 19.7425C17.2877 19.4987 16.9679 19.3769 16.5882 19.3769C16.3543 19.3769 16.1512 19.4173 15.9746 19.4987C14.9546 19.9584 13.7138 20.187 12.2548 20.187C9.62933 20.187 7.38153 19.3232 5.51553 17.5936C3.64747 15.8767 2.71277 13.7961 2.71277 11.3511L2.71277 1.2566C2.71277 0.904877 2.58187 0.608092 2.31938 0.36435C2.0569 0.121239 1.73511 0 1.35536 0C0.976978 0 0.656545 0.121239 0.393382 0.36435C0.1309 0.608092 0 0.904877 0 1.2566L0 21.4443Z" fill="rgb(4,53,103)" fill-rule="nonzero" transform="matrix(1,0,0,-1,150.221,32.4507)"/>
		<path id="Vector" d="M1.2531 2.30734C1.61034 4.00848 1.89328 5.35222 2.8423 5.35222C3.79133 5.35222 4.07358 4.00848 4.43151 2.30734C4.59105 1.54896 4.84944 0.316991 5.11056 0C5.37099 0.316991 5.63006 1.54896 5.78892 2.30734C6.14685 4.00848 6.42978 5.35222 7.37881 5.35222C8.32715 5.35222 8.61009 4.00848 8.96733 2.30734C9.12687 1.54896 9.38594 0.316991 9.64638 0C9.9075 0.316991 10.1659 1.54896 10.3254 2.30734C10.6834 4.00848 10.9656 5.35222 11.9146 5.35222C12.8637 5.35222 13.1459 4.00848 13.5032 2.30734C13.6627 1.54896 13.9218 0.316991 14.1822 0C14.4426 0.316991 14.7017 1.54896 14.8612 2.30734C15.2192 4.00848 15.5014 5.35222 16.4505 5.35222C17.3995 5.35222 17.6824 4.00848 18.0397 2.30734C18.1992 1.54896 18.4589 0.316991 18.7194 0C18.9798 0.316991 19.2389 1.54896 19.3984 2.30734C19.7564 4.00848 20.0386 5.35222 20.9876 5.35222C21.9373 5.35222 22.2203 4.00848 22.5775 2.30734C22.7377 1.54896 22.9968 0.31636 23.2579 0C23.5184 0.31636 23.7781 1.54896 23.9377 2.30734C24.117 3.15981 24.2779 3.92261 24.5124 4.47134C22.4678 17.8317 0 17.1636 0 2.46584C0 2.21515 0.00681774 1.96888 0.0197714 1.7264C0.173852 1.03117 0.372929 0.244374 0.574051 0C0.834488 0.316991 1.09356 1.54896 1.2531 2.30734Z" fill="rgb(40,169,224)" fill-rule="nonzero" transform="matrix(1,0,0,-1,24.0648,23.4953)"/>
		<path id="Vector" d="M22.8237 8.20503C21.8746 8.20503 21.5917 9.54877 21.2338 11.2499C21.0742 12.0083 20.8152 13.2409 20.554 13.5573C20.2929 13.2403 20.0338 12.0083 19.875 11.2499C19.5171 9.54877 19.2348 8.20503 18.2851 8.20503C17.3361 8.20503 17.0538 9.54877 16.6959 11.2499C16.5364 12.0083 16.2773 13.2403 16.0168 13.5573C15.7557 13.2403 15.4967 12.0083 15.3371 11.2499C14.9799 9.54877 14.6976 8.20503 13.7479 8.20503C12.7989 8.20503 12.5166 9.54877 12.1594 11.2499C11.9999 12.0077 11.7415 13.2396 11.4803 13.5573C11.2199 13.2396 10.9608 12.0077 10.8013 11.2499C10.4441 9.54877 10.1618 8.20503 9.21277 8.20503C8.26375 8.20503 7.98081 9.54877 7.62356 11.2499C7.46403 12.0083 7.20496 13.2396 6.94452 13.5573C6.6834 13.2396 6.42501 12.0083 6.26548 11.2499C5.90823 9.54877 5.62529 8.20503 4.67627 8.20503C3.72724 8.20503 3.44499 9.54877 3.08706 11.2499C2.92753 12.0083 2.66913 13.2403 2.40802 13.5573C2.14758 13.2403 1.88851 12.0083 1.72897 11.2499C1.37172 9.54877 1.08947 8.20503 0.139764 8.20503C0.0913586 8.20503 0.0456787 8.21071 0 8.21766C3.16955 -3.31021 22.6682 -2.70906 24.1381 10.0186C23.8647 8.94383 23.5272 8.20503 22.8237 8.20503Z" fill="rgb(40,169,224)" fill-rule="nonzero" transform="matrix(1,0,0,-1,24.4987,32.6021)"/>
		<path id="Vector" d="M24.4926 5.37306C24.2574 4.82433 24.0972 4.06153 23.9172 3.20843C23.7584 2.45005 23.4986 1.21745 23.2375 0.901088C22.9764 1.21745 22.7173 2.45005 22.5578 3.20843C22.1998 4.9102 21.9176 6.25394 20.9679 6.25394C20.0188 6.25394 19.7366 4.9102 19.3787 3.20906C19.2191 2.45068 18.9601 1.21871 18.6996 0.90172C18.4385 1.21808 18.1794 2.45068 18.0199 3.20843C17.6626 4.9102 17.3797 6.25394 16.4307 6.25394C15.4817 6.25394 15.1987 4.9102 14.8415 3.20906C14.6819 2.45068 14.4229 1.21871 14.1624 0.90172C13.9013 1.21871 13.6429 2.45068 13.4834 3.20843C13.1261 4.9102 12.8432 6.25394 11.8942 6.25394C10.9452 6.25394 10.6629 4.9102 10.3057 3.20843C10.1461 2.45068 9.88704 1.21871 9.62661 0.90172C9.36617 1.21871 9.1071 2.45068 8.94756 3.20906C8.59031 4.9102 8.30738 6.25394 7.35835 6.25394C6.40933 6.25394 6.12708 4.9102 5.76915 3.20906C5.61029 2.45068 5.35122 1.21871 5.09078 0.90172C4.82967 1.21871 4.57059 2.45068 4.41106 3.20843C4.05381 4.9102 3.77156 6.25394 2.82185 6.25394C1.87283 6.25394 1.59057 4.9102 1.23332 3.20906C1.07379 2.45068 0.814716 1.21871 0.55428 0.90172C0.353157 1.14609 0.153398 1.93289 0 2.62812C0.0490875 1.69609 0.190894 0.824682 0.414515 0.0126288C0.459512 0.00568279 0.505192 0 0.55428 0C1.5033 0 1.78556 1.34374 2.14349 3.04488C2.30234 3.80263 2.56141 5.0346 2.82185 5.35159C3.08297 5.0346 3.34204 3.80263 3.50158 3.04425C3.85882 1.34374 4.14108 0 5.09078 0C6.03981 0 6.32206 1.34374 6.67931 3.04488C6.83884 3.80263 7.09792 5.0346 7.35835 5.35159C7.61879 5.0346 7.87855 3.80263 8.0374 3.04488C8.39533 1.34374 8.67758 0 9.62661 0C10.5756 0 10.8579 1.34374 11.2151 3.04425C11.3747 3.80263 11.6337 5.0346 11.8942 5.35159C12.1553 5.0346 12.4137 3.80263 12.5732 3.04425C12.9305 1.34374 13.2134 0 14.1624 0C15.1115 0 15.3937 1.34374 15.7516 3.04488C15.9112 3.80326 16.1696 5.03523 16.4307 5.35222C16.6911 5.03523 16.9502 3.80263 17.1097 3.04425C17.4677 1.34374 17.7499 0 18.6996 0C19.6486 0 19.9309 1.34374 20.2888 3.04488C20.4484 3.80326 20.7067 5.03523 20.9679 5.35222C21.229 5.03523 21.4881 3.80326 21.6476 3.04425C22.0055 1.34374 22.2885 0 23.2375 0C23.9411 0 24.2785 0.738804 24.5519 1.81354C24.6099 2.31366 24.6426 2.83019 24.6426 3.36756C24.6426 4.06847 24.5901 4.73592 24.4926 5.37306Z" fill="rgb(255,255,255)" fill-rule="nonzero" transform="matrix(1,0,0,-1,24.0847,24.3969)"/>
	</g>
</svg>
