<svg width="64" height="64" viewBox="0 0 64 64" fill="none" xmlns="http://www.w3.org/2000/svg">
<path d="M33 34C34.1046 34 35 33.1046 35 32C35 30.8954 34.1046 30 33 30C31.8954 30 31 30.8954 31 32C31 33.1046 31.8954 34 33 34Z" fill="white"/>
<path d="M33 21V30" stroke="white" stroke-width="2" stroke-miterlimit="10" stroke-linecap="round" stroke-linejoin="round"/>
<path d="M39.9999 38.9999L34.4099 33.4099" stroke="white" stroke-width="2" stroke-miterlimit="10" stroke-linecap="round" stroke-linejoin="round"/>
<path d="M33 51C43.4934 51 52 42.4934 52 32C52 21.5066 43.4934 13 33 13C22.5066 13 14 21.5066 14 32C14 42.4934 22.5066 51 33 51Z" stroke="white" stroke-width="2" stroke-miterlimit="10" stroke-linecap="round" stroke-linejoin="round"/>
<path d="M20 7C23.89 4.95 28.3 4 33 4C48.46 4 61 16.54 61 32C61 47.46 48.46 60 33 60C17.54 60 5 47.46 5 32C5 26.93 6.35 22.17 8.71 18.061" stroke="white" stroke-width="2" stroke-miterlimit="10" stroke-linecap="round" stroke-linejoin="round"/>
<path d="M3 20L8.713 18.063L10 24" stroke="white" stroke-width="2" stroke-miterlimit="10" stroke-linecap="round" stroke-linejoin="round"/>
<path d="M33 16V18" stroke="white" stroke-width="2" stroke-miterlimit="10" stroke-linecap="round" stroke-linejoin="round"/>
<path d="M17 32H19" stroke="white" stroke-width="2" stroke-miterlimit="10" stroke-linecap="round" stroke-linejoin="round"/>
<path d="M33 47.999V45.999" stroke="white" stroke-width="2" stroke-miterlimit="10" stroke-linecap="round" stroke-linejoin="round"/>
<path d="M49 32H47" stroke="white" stroke-width="2" stroke-miterlimit="10" stroke-linecap="round" stroke-linejoin="round"/>
<path d="M25.499 20.01C26.0513 20.01 26.499 19.5623 26.499 19.01C26.499 18.4577 26.0513 18.01 25.499 18.01C24.9467 18.01 24.499 18.4577 24.499 19.01C24.499 19.5623 24.9467 20.01 25.499 20.01Z" fill="white"/>
<path d="M20.0081 25.501C20.5603 25.501 21.0081 25.0533 21.0081 24.501C21.0081 23.9487 20.5603 23.501 20.0081 23.501C19.4558 23.501 19.0081 23.9487 19.0081 24.501C19.0081 25.0533 19.4558 25.501 20.0081 25.501Z" fill="white"/>
<path d="M20.0081 40.5029C20.5603 40.5029 21.0081 40.0552 21.0081 39.5029C21.0081 38.9506 20.5603 38.5029 20.0081 38.5029C19.4558 38.5029 19.0081 38.9506 19.0081 39.5029C19.0081 40.0552 19.4558 40.5029 20.0081 40.5029Z" fill="white"/>
<path d="M25.499 45.9939C26.0513 45.9939 26.499 45.5462 26.499 44.9939C26.499 44.4416 26.0513 43.9939 25.499 43.9939C24.9467 43.9939 24.499 44.4416 24.499 44.9939C24.499 45.5462 24.9467 45.9939 25.499 45.9939Z" fill="white"/>
<path d="M40.501 45.9939C41.0533 45.9939 41.501 45.5462 41.501 44.9939C41.501 44.4416 41.0533 43.9939 40.501 43.9939C39.9487 43.9939 39.501 44.4416 39.501 44.9939C39.501 45.5462 39.9487 45.9939 40.501 45.9939Z" fill="white"/>
<path d="M45.9919 40.5029C46.5442 40.5029 46.9919 40.0552 46.9919 39.5029C46.9919 38.9506 46.5442 38.5029 45.9919 38.5029C45.4397 38.5029 44.9919 38.9506 44.9919 39.5029C44.9919 40.0552 45.4397 40.5029 45.9919 40.5029Z" fill="white"/>
<path d="M45.9919 25.501C46.5442 25.501 46.9919 25.0533 46.9919 24.501C46.9919 23.9487 46.5442 23.501 45.9919 23.501C45.4397 23.501 44.9919 23.9487 44.9919 24.501C44.9919 25.0533 45.4397 25.501 45.9919 25.501Z" fill="white"/>
<path d="M40.501 20.01C41.0533 20.01 41.501 19.5623 41.501 19.01C41.501 18.4577 41.0533 18.01 40.501 18.01C39.9487 18.01 39.501 18.4577 39.501 19.01C39.501 19.5623 39.9487 20.01 40.501 20.01Z" fill="white"/>
</svg>
