<svg width="24" height="24" viewBox="0 0 24 24" fill="none" xmlns="http://www.w3.org/2000/svg">
<path d="M19 5.25H17.75V4C17.75 2.48 16.52 1.25 15 1.25H5C3.48 1.25 2.25 2.48 2.25 4V16C2.25 17.52 3.48 18.75 5 18.75H8.25V20C8.25 21.52 9.48 22.75 11 22.75H19C20.52 22.75 21.75 21.52 21.75 20V8C21.75 6.48 20.52 5.25 19 5.25ZM3.75 16V4C3.75 3.31 4.31 2.75 5 2.75H15C15.69 2.75 16.25 3.31 16.25 4V17.25H5C4.31 17.25 3.75 16.69 3.75 16ZM13.82 18.75L9.97 20.67C9.84 20.47 9.75 20.25 9.75 20V18.75H13.82ZM20.25 20C20.25 20.69 19.69 21.25 19 21.25H12.18L17.34 18.67C17.59 18.54 17.76 18.28 17.76 18V6.75H19.01C19.7 6.75 20.26 7.31 20.26 8V20H20.25ZM13.75 14C13.75 14.41 13.41 14.75 13 14.75H7C6.59 14.75 6.25 14.41 6.25 14C6.25 13.59 6.59 13.25 7 13.25H13C13.41 13.25 13.75 13.59 13.75 14ZM13.75 10C13.75 10.41 13.41 10.75 13 10.75H7C6.59 10.75 6.25 10.41 6.25 10C6.25 9.59 6.59 9.25 7 9.25H13C13.41 9.25 13.75 9.59 13.75 10ZM13.75 6C13.75 6.41 13.41 6.75 13 6.75H7C6.59 6.75 6.25 6.41 6.25 6C6.25 5.59 6.59 5.25 7 5.25H13C13.41 5.25 13.75 5.59 13.75 6Z" fill="white"/>
</svg>
