<svg viewBox="0 0 11.2753 15.984" xmlns="http://www.w3.org/2000/svg" xmlns:xlink="http://www.w3.org/1999/xlink" width="11.275269" height="15.984032" fill="none" customFrame="#000000">
	<g id="_x30_1._Facebook">
		<path id="Icon_11_" d="M3.14467 9.0243C3.06281 9.0243 1.34565 9.0247 0.553677 9.0241C0.145958 9.0239 0.000493587 8.91161 0.000493587 8.59713C-2.77918e-05 7.78934 -0.000288481 6.98154 0.000493587 6.17375C0.000754277 5.86326 0.154561 5.74478 0.557066 5.74458C1.34904 5.74418 3.05682 5.74438 3.14467 5.74438C3.14467 5.68904 3.14441 4.5228 3.14467 3.98574C3.14519 3.19173 3.33002 2.43169 3.85635 1.73579C4.3952 1.0235 5.17935 0.535588 6.18431 0.25347C6.82796 0.0726507 7.4961 0.000522887 8.17911 0.000123286C9.03365 -0.000276314 9.88819 0.00032308 10.743 0.00152188C11.1103 0.00192148 11.2732 0.126397 11.274 0.409914C11.2756 1.16975 11.2756 1.92959 11.274 2.68923C11.2735 2.97575 11.1173 3.09083 10.7417 3.09403C10.0412 3.09982 9.34022 3.09623 8.64053 3.11781C7.9338 3.11781 7.56206 3.38234 7.56206 3.94298C7.54511 4.53599 7.55502 5.1296 7.55502 5.74418C7.62123 5.74418 9.63245 5.74398 10.5725 5.74418C10.9995 5.74418 11.1455 5.85667 11.1455 6.18574C11.1455 6.98914 11.1452 7.79273 11.1445 8.59613C11.1442 8.9204 11.0071 9.0239 10.5775 9.0241C9.63741 9.0245 7.63401 9.0243 7.54642 9.0243L7.54642 15.5268C7.54642 15.8735 7.40408 15.9839 6.95778 15.9839C5.86966 15.9839 4.78128 15.9841 3.69316 15.9839C3.29874 15.9839 3.14493 15.8665 3.14493 15.5642C3.14467 13.4465 3.14467 9.09863 3.14467 9.0243Z" fill="rgb(255,255,255)" fill-rule="nonzero"/>
	</g>
</svg>
