<svg width="75" height="75" viewBox="0 0 75 75" fill="none" xmlns="http://www.w3.org/2000/svg">
<g clip-path="url(#clip0_81_152)">
<path d="M12.7221 15.429C12.1558 15.429 11.6967 15.8882 11.6967 16.4544C11.6967 17.0207 12.1558 17.4799 12.7221 17.4799H22.7183L30.2842 25.0458C30.4844 25.2459 30.7467 25.3461 31.0091 25.3461L40.5104 25.3463C41.0766 25.3463 41.5358 24.8871 41.5358 24.3208C41.5358 23.7546 41.0766 23.2954 40.5104 23.2954H31.4336L23.8792 15.7411C23.6929 15.5485 23.4318 15.429 23.1427 15.429L12.7221 15.429Z" fill="white"/>
<path d="M4.49875 18.9022C5.17472 18.9022 5.78701 18.6282 6.22976 18.1854C6.6725 17.7427 6.94655 17.1304 6.94655 16.4544C6.94655 15.7783 6.6725 15.166 6.22976 14.7233C5.78701 14.2805 5.17489 14.0065 4.49875 14.0065C3.82262 14.0065 3.21032 14.2805 2.76758 14.7233C2.32484 15.166 2.05078 15.7783 2.05078 16.4544C2.05078 17.1306 2.32484 17.7427 2.76758 18.1854C3.21032 18.6282 3.82262 18.9022 4.49875 18.9022ZM7.67961 19.6353C6.86558 20.4493 5.74065 20.9531 4.49875 20.9531C3.25669 20.9531 2.13175 20.4493 1.31772 19.6353C0.503695 18.8213 -0.00012207 17.6965 -0.00012207 16.4544C-0.00012207 15.2124 0.503695 14.0874 1.31772 13.2734C2.13175 12.4594 3.25669 11.9556 4.49875 11.9556C5.74082 11.9556 6.86558 12.4594 7.67961 13.2734C8.49364 14.0874 8.99746 15.2124 8.99746 16.4544C8.99746 17.6963 8.49364 18.8213 7.67961 19.6353Z" fill="white"/>
<path d="M43.9838 26.7689C44.6599 26.7689 45.2722 26.4948 45.715 26.0521C46.1577 25.6093 46.4318 24.997 46.4318 24.3209C46.4318 23.6448 46.1577 23.0325 45.715 22.5897C45.2722 22.147 44.6599 21.8729 43.9838 21.8729C43.3078 21.8729 42.6955 22.147 42.2528 22.5897C41.8101 23.0325 41.536 23.6448 41.536 24.3209C41.536 24.997 41.8101 25.6093 42.2528 26.0521C42.6955 26.4948 43.3078 26.7689 43.9838 26.7689ZM47.1648 27.5019C46.3508 28.316 45.2259 28.8198 43.9838 28.8198C42.7419 28.8198 41.617 28.316 40.803 27.5019C39.9889 26.6879 39.4851 25.563 39.4851 24.3209C39.4851 23.0788 39.9889 21.9539 40.803 21.1399C41.617 20.3258 42.7419 19.822 43.9838 19.822C45.2259 19.822 46.3508 20.3258 47.1648 21.1399C47.9789 21.9539 48.4827 23.0788 48.4827 24.3209C48.4827 25.563 47.9789 26.6879 47.1648 27.5019Z" fill="white"/>
<path d="M56.0965 34.1323C56.6627 34.1323 57.1219 33.6731 57.1219 33.1069C57.1219 32.5406 56.6627 32.0814 56.0965 32.0814H24.8348C24.2685 32.0814 23.8093 32.5406 23.8093 33.1069C23.8093 33.6731 24.2685 34.1323 24.8348 34.1323H56.0965Z" fill="white"/>
<path d="M59.5699 35.5548C60.2461 35.5548 60.8584 35.2808 61.3011 34.838C61.7438 34.3953 62.0179 33.783 62.0179 33.1069C62.0179 32.4309 61.7438 31.8186 61.3011 31.3759C60.8584 30.9331 60.2461 30.6591 59.5699 30.6591C58.8938 30.6591 58.2815 30.9331 57.8387 31.3759C57.396 31.8186 57.122 32.4309 57.122 33.1069C57.122 33.783 57.396 34.3953 57.8387 34.838C58.2815 35.2808 58.8938 35.5548 59.5699 35.5548ZM62.751 36.2879C61.9369 37.1019 60.812 37.6057 59.5699 37.6057C58.3279 37.6057 57.2029 37.1019 56.3889 36.2879C55.5749 35.4739 55.071 34.3489 55.071 33.1069C55.071 31.865 55.5749 30.74 56.3889 29.926C57.2029 29.112 58.3279 28.6082 59.5699 28.6082C60.812 28.6082 61.9369 29.112 62.751 29.926C63.565 30.74 64.0688 31.865 64.0688 33.1069C64.0688 34.3489 63.565 35.4739 62.751 36.2879Z" fill="white"/>
<path d="M16.6113 35.5548C17.2874 35.5548 17.8996 35.2808 18.3423 34.838C18.785 34.3953 19.0591 33.783 19.0591 33.1069C19.0591 32.4307 18.785 31.8186 18.3423 31.3759C17.8996 30.9331 17.2873 30.6591 16.6113 30.6591C15.9352 30.6591 15.3229 30.9331 14.8801 31.3759C14.4374 31.8186 14.1633 32.4307 14.1633 33.1069C14.1633 33.783 14.4374 34.3953 14.8801 34.838C15.3229 35.2808 15.9352 35.5548 16.6113 35.5548ZM19.7922 36.2879C18.9781 37.1019 17.8534 37.6057 16.6113 37.6057C15.3692 37.6057 14.2443 37.1019 13.4303 36.2879C12.6162 35.4739 12.1124 34.3489 12.1124 33.1069C12.1124 31.8648 12.6162 30.74 13.4303 29.926C14.2443 29.112 15.3692 28.6082 16.6113 28.6082C17.8532 28.6082 18.9781 29.112 19.7922 29.926C20.6062 30.74 21.11 31.8648 21.11 33.1069C21.11 34.3489 20.6062 35.4739 19.7922 36.2879Z" fill="white"/>
<path d="M39.2398 48.7337C38.6735 48.7337 38.2144 49.1929 38.2144 49.7592C38.2144 50.3255 38.6735 50.7846 39.2398 50.7846H49.6604C49.9495 50.7846 50.2106 50.6651 50.3969 50.4725L57.9513 42.9182H67.0281C67.5943 42.9182 68.0535 42.459 68.0535 41.8928C68.0535 41.3265 67.5943 40.8673 67.0281 40.8673H57.5268C57.2644 40.8673 57.0019 40.9675 56.8017 41.1677L49.236 48.7337L39.2398 48.7337Z" fill="white"/>
<path d="M31.0165 45.2607C32.2583 45.2607 33.3833 45.7646 34.1973 46.5786C35.0113 47.3926 35.5152 48.5175 35.5152 49.7596C35.5152 51.0017 35.0113 52.1266 34.1973 52.9406C33.3833 53.7547 32.2583 54.2585 31.0165 54.2585C29.7744 54.2585 28.6495 53.7547 27.8354 52.9406C27.0214 52.1266 26.5176 51.0017 26.5176 49.7596C26.5176 48.5175 27.0214 47.3926 27.8354 46.5786C28.6495 45.7646 29.7744 45.2607 31.0165 45.2607ZM32.7475 48.0284C32.3047 47.5857 31.6924 47.3117 31.0165 47.3117C30.3403 47.3117 29.728 47.5857 29.2853 48.0284C28.8425 48.4712 28.5685 49.0835 28.5685 49.7596C28.5685 50.4358 28.8425 51.0481 29.2853 51.4908C29.728 51.9335 30.3403 52.2076 31.0165 52.2076C31.6924 52.2076 32.3047 51.9335 32.7475 51.4908C33.1902 51.0481 33.4643 50.4358 33.4643 49.7596C33.4643 49.0835 33.1902 48.4712 32.7475 48.0284Z" fill="white"/>
<path d="M70.5014 37.394C71.7435 37.394 72.8684 37.8979 73.6824 38.7119C74.4964 39.5259 75.0003 40.6509 75.0003 41.8929C75.0003 43.135 74.4964 44.2597 73.6824 45.0738C72.8684 45.8878 71.7435 46.3916 70.5014 46.3916C69.2595 46.3916 68.1346 45.8878 67.3205 45.0738C66.5065 44.2597 66.0027 43.135 66.0027 41.8929C66.0027 40.6509 66.5065 39.5259 67.3205 38.7119C68.1346 37.8979 69.2593 37.394 70.5014 37.394ZM72.2326 40.1617C71.7898 39.719 71.1775 39.4449 70.5014 39.4449C69.8253 39.4449 69.2131 39.719 68.7704 40.1617C68.3276 40.6045 68.0536 41.2168 68.0536 41.8929C68.0536 42.5691 68.3276 43.1812 68.7704 43.6239C69.2131 44.0667 69.8254 44.3407 70.5014 44.3407C71.1775 44.3407 71.7898 44.0667 72.2326 43.6239C72.6753 43.1812 72.9494 42.5691 72.9494 41.8929C72.9494 41.2168 72.6753 40.6045 72.2326 40.1617Z" fill="white"/>
<path d="M56.0965 59.5707C56.6627 59.5707 57.1219 59.1115 57.1219 58.5452C57.1219 57.979 56.6627 57.5198 56.0965 57.5198H24.8348C24.2685 57.5198 23.8093 57.979 23.8093 58.5452C23.8093 59.1115 24.2685 59.5707 24.8348 59.5707H56.0965Z" fill="white"/>
<path d="M59.5699 60.9932C60.2461 60.9932 60.8584 60.7191 61.3011 60.2764C61.7438 59.8336 62.0179 59.2214 62.0179 58.5452C62.0179 57.8692 61.7438 57.2569 61.3011 56.8142C60.8584 56.3715 60.2461 56.0974 59.5699 56.0974C58.8938 56.0974 58.2815 56.3715 57.8387 56.8142C57.396 57.2569 57.122 57.8692 57.122 58.5452C57.122 59.2214 57.396 59.8336 57.8387 60.2764C58.2815 60.7191 58.8938 60.9932 59.5699 60.9932ZM62.751 61.7262C61.9369 62.5403 60.812 63.0441 59.5699 63.0441C58.3279 63.0441 57.2029 62.5403 56.3889 61.7262C55.5749 60.9122 55.071 59.7873 55.071 58.5452C55.071 57.3033 55.5749 56.1784 56.3889 55.3644C57.2029 54.5503 58.3279 54.0465 59.5699 54.0465C60.812 54.0465 61.9369 54.5503 62.751 55.3644C63.565 56.1784 64.0688 57.3033 64.0688 58.5452C64.0688 59.7873 63.565 60.9122 62.751 61.7262Z" fill="white"/>
<path d="M16.6113 60.9932C17.2874 60.9932 17.8996 60.7191 18.3423 60.2764C18.785 59.8336 19.0591 59.2214 19.0591 58.5452C19.0591 57.8692 18.785 57.2569 18.3423 56.8142C17.8996 56.3715 17.2873 56.0974 16.6113 56.0974C15.9352 56.0974 15.3229 56.3715 14.8801 56.8142C14.4374 57.2569 14.1633 57.8691 14.1633 58.5452C14.1633 59.2214 14.4374 59.8336 14.8801 60.2764C15.3229 60.7191 15.9352 60.9932 16.6113 60.9932ZM19.7922 61.7262C18.9781 62.5403 17.8534 63.0441 16.6113 63.0441C15.3692 63.0441 14.2443 62.5403 13.4303 61.7262C12.6162 60.9122 12.1124 59.7873 12.1124 58.5452C12.1124 57.3031 12.6162 56.1784 13.4303 55.3644C14.2443 54.5503 15.3692 54.0465 16.6113 54.0465C17.8532 54.0465 18.9781 54.5503 19.7922 55.3644C20.6062 56.1784 21.11 57.3033 21.11 58.5452C21.11 59.7873 20.6062 60.9122 19.7922 61.7262Z" fill="white"/>
<path d="M24.8345 36.1743C24.2683 36.1743 23.8091 36.6335 23.8091 37.1998C23.8091 37.766 24.2683 38.2252 24.8345 38.2252H29.8242C30.3905 38.2252 30.8497 37.766 30.8497 37.1998C30.8497 36.6335 30.3905 36.1743 29.8242 36.1743H24.8345ZM33.9442 36.1743C33.3779 36.1743 32.9188 36.6335 32.9188 37.1998C32.9188 37.766 33.3779 38.2252 33.9442 38.2252H40.8564C41.4227 38.2252 41.8819 37.766 41.8819 37.1998C41.8819 36.6335 41.4227 36.1743 40.8564 36.1743H33.9442Z" fill="white"/>
</g>
<defs>
<clipPath id="clip0_81_152">
<rect width="75" height="75" fill="white"/>
</clipPath>
</defs>
</svg>
