<svg width="68" height="68" viewBox="0 0 68 68" fill="none" xmlns="http://www.w3.org/2000/svg">
<g clip-path="url(#clip0_81_174)">
<path d="M16.1369 27.0636H25.2422C26.2024 27.0636 26.9838 26.2824 26.9838 25.3222V18.8266C26.9838 17.6957 25.8793 16.8519 24.7881 17.1464C22.4055 17.7881 20.0591 15.8145 20.2216 13.3685C20.3706 11.1272 22.5994 9.51044 24.782 10.0943C25.8723 10.3857 26.9838 9.55586 26.9838 8.42031V1.74144C26.9838 0.781203 26.2026 0 25.2422 0H3.88729C1.74383 0 0 1.74795 0 3.89645V7.9722C0 8.52245 0.445984 8.9683 0.996094 8.9683C1.5462 8.9683 1.99219 8.52245 1.99219 7.9722V3.89645C1.99219 2.84644 2.84232 1.99219 3.88729 1.99219H24.9916V8.09705C21.7058 7.41373 18.4566 9.88497 18.2338 13.2364C17.992 16.8724 21.4114 19.8892 24.9916 19.1448V25.0714H14.5471C13.8182 25.0714 13.2461 25.9505 13.7329 26.6414C15.474 29.1112 13.5104 32.5887 10.5092 32.3862C7.73832 32.1973 6.18574 28.9272 7.79716 26.6414C8.28405 25.9505 7.71176 25.0714 6.98302 25.0714H1.99219V11.9495C1.99219 11.3993 1.5462 10.9534 0.996094 10.9534C0.445984 10.9534 0 11.3993 0 11.9495V25.3222C0 26.2824 0.781203 27.0636 1.74144 27.0636H5.39139C4.33141 30.4608 6.81514 34.1314 10.3737 34.3737C14.2484 34.6382 17.2939 30.7757 16.1369 27.0636Z" fill="white"/>
<path d="M64.1126 15.8647H42.7576C41.7973 15.8647 41.0161 16.6459 41.0161 17.6062V23.9625C37.7303 23.2786 34.4812 25.7493 34.2584 29.101C34.0166 32.7366 37.436 35.755 41.0161 35.0085V40.9362H31.8082C31.2371 40.9362 30.7031 41.2163 30.3797 41.6856C30.052 42.161 29.9798 42.7688 30.1863 43.3116C31.0374 45.5477 29.4459 48.0873 27.0453 48.2508C24.4401 48.4297 22.4574 45.7614 23.3943 43.3077C23.6007 42.7674 23.5288 42.1616 23.2022 41.6872C22.8784 41.2169 22.3436 40.9362 21.7717 40.9362H17.7661C16.8059 40.9362 16.0247 41.7174 16.0247 42.6776V64.1033C16.0247 66.2518 17.7685 67.9998 19.9119 67.9998H64.1127C66.2561 68 67.9999 66.2521 67.9999 64.1036V58.5139C67.9999 57.9637 67.5541 57.5178 67.0038 57.5178C66.4536 57.5178 66.0077 57.9637 66.0077 58.5139V64.1036C66.0077 65.1536 65.1577 66.0078 64.1126 66.0078H43.0083V62.068C43.0083 61.2465 42.102 60.8325 41.4802 61.2258C39.7037 62.3481 37.2477 60.9886 37.262 58.8654C37.2761 56.758 39.6755 55.3994 41.4802 56.5396C42.1356 56.9539 43.0083 56.488 43.0083 55.6975V42.9285H49.6604C50.4473 42.9285 50.927 42.0187 50.4822 41.3695C49.9241 40.5547 49.6257 39.5799 49.6257 38.5911C49.6334 32.1543 59.3828 32.1616 59.3905 38.5911C59.3905 39.58 59.092 40.5549 58.534 41.3695C58.0609 42.0604 58.6313 42.9285 59.3558 42.9285H66.0077V54.5386C66.0077 55.0888 66.4536 55.5346 67.0038 55.5346C67.5541 55.5346 67.9999 55.0888 67.9999 54.5386V19.7613C67.9999 17.6127 66.2561 15.8647 64.1126 15.8647ZM41.0161 63.535V66.0078H19.9118C18.8668 66.0078 18.0167 65.1536 18.0167 64.1036V42.9286H21.4183C20.2638 46.6276 23.3027 50.5048 27.1808 50.2386C30.739 49.9962 33.2237 46.3268 32.161 42.9286H41.0161V54.229C38.3326 53.6514 35.5978 55.6141 35.2989 58.3496C34.954 61.5083 37.877 64.2131 41.0161 63.535ZM60.9764 40.9364C61.2445 40.1921 61.3828 39.4032 61.3828 38.5972C61.3828 29.4892 47.5121 29.5794 47.6354 38.6906C47.6456 39.4641 47.782 40.2211 48.0396 40.9364H43.0083V33.6048C42.8537 32.7625 42.3676 32.4684 41.5499 32.7225C39.068 34.0229 36.0611 32.015 36.2462 29.2334C36.417 26.6664 39.2581 25.0487 41.5499 26.2492C42.3676 26.5032 42.8538 26.2091 43.0083 25.3668V17.8569H64.1126C65.1576 17.8569 66.0077 18.7113 66.0077 19.7613V40.9364H60.9764Z" fill="white"/>
<path d="M36.3242 19.612C36.3242 20.1622 36.7701 20.6081 37.3203 20.6081C37.8706 20.6081 38.3164 20.1622 38.3164 19.612V15.429L44.1052 9.64028H57.1252C57.5564 11.104 58.9115 12.1759 60.5131 12.1759C62.4605 12.1759 64.0448 10.5916 64.0448 8.64419C64.0448 6.69676 62.4605 5.1123 60.5131 5.1123C58.9115 5.1123 57.5564 6.18423 57.1252 7.64809H43.6925C43.4284 7.64809 43.1751 7.75302 42.9881 7.93975L36.6159 14.312C36.4291 14.4988 36.3242 14.7521 36.3242 15.0164V19.612ZM60.5131 7.10449C61.362 7.10449 62.0527 7.79512 62.0527 8.64419C62.0527 9.49312 61.362 10.1838 60.5131 10.1838C59.664 10.1838 58.9734 9.49312 58.9734 8.64419C58.9734 7.79512 59.664 7.10449 60.5131 7.10449Z" fill="white"/>
<path d="M31.7963 6.91966V21.2058C31.7963 21.756 32.2423 22.2019 32.7924 22.2019C33.3425 22.2019 33.7885 21.756 33.7885 21.2058V6.91966C35.2522 6.48855 36.3241 5.13347 36.3241 3.53188C36.3241 1.58445 34.7397 0 32.7924 0C30.845 0 29.2605 1.58445 29.2605 3.53188C29.2605 5.13347 30.3324 6.48842 31.7963 6.91966ZM32.7924 1.99219C33.6413 1.99219 34.3319 2.68281 34.3319 3.53188C34.3319 4.37298 33.6537 5.05777 32.8155 5.07025C32.8078 5.07012 32.8002 5.06905 32.7924 5.06905C32.7845 5.06905 32.777 5.06998 32.7693 5.07025C31.9311 5.05777 31.2527 4.37298 31.2527 3.53188C31.2527 2.68281 31.9434 1.99219 32.7924 1.99219Z" fill="white"/>
<path d="M25.1138 33.1366C25.1138 31.1892 23.5295 29.6047 21.582 29.6047C19.6346 29.6047 18.0503 31.1892 18.0503 33.1366C18.0503 35.084 19.6346 36.6685 21.582 36.6685C22.1943 36.6685 22.7706 36.5117 23.2731 36.2365L25.6992 38.6625V43.5624C25.6992 44.1126 26.1452 44.5585 26.6953 44.5585C27.2454 44.5585 27.6914 44.1126 27.6914 43.5624V38.2499C27.6914 37.9857 27.5865 37.7325 27.3996 37.5455L24.6818 34.8276C24.9571 34.325 25.1138 33.7489 25.1138 33.1366ZM20.0425 33.1366C20.0425 32.2875 20.7331 31.5969 21.582 31.5969C22.431 31.5969 23.1216 32.2875 23.1216 33.1366C23.1216 33.9857 22.431 34.6763 21.582 34.6763C20.7331 34.6763 20.0425 33.9857 20.0425 33.1366Z" fill="white"/>
</g>
<defs>
<clipPath id="clip0_81_174">
<rect width="68" height="68" fill="white"/>
</clipPath>
</defs>
</svg>
