<svg viewBox="0 0 20.855 15.984" xmlns="http://www.w3.org/2000/svg" xmlns:xlink="http://www.w3.org/1999/xlink" width="20.854980" height="15.984028" fill="none" customFrame="#000000">
	<g id="_x31_0.Linkedin">
		<path id="Vector" d="M20.8497 15.984L20.8497 15.9834L20.8549 15.9834L20.8549 10.1213C20.8549 7.25355 20.0494 5.04436 15.675 5.04436C13.572 5.04436 12.1609 5.92887 11.5848 6.76723L11.524 6.76723L11.524 5.31209L7.37646 5.31209L7.37646 15.9834L11.6953 15.9834L11.6953 10.6993C11.6953 9.30809 12.0394 7.96264 14.2873 7.96264C16.5024 7.96264 16.5353 9.55045 16.5353 10.7884L16.5353 15.984L20.8497 15.984Z" fill="rgb(255,255,255)" fill-rule="nonzero"/>
		<path id="Vector" d="M0.343506 5.31269L4.66756 5.31269L4.66756 15.984L0.343506 15.984L0.343506 5.31269Z" fill="rgb(255,255,255)" fill-rule="nonzero"/>
		<path id="Vector" d="M2.50444 0C1.12175 0 0 0.859741 0 1.91948C0 2.97922 1.12175 3.85694 2.50444 3.85694C3.88714 3.85694 5.00889 2.97922 5.00889 1.91948C5.00785 0.859741 3.8861 0 2.50444 0Z" fill="rgb(255,255,255)" fill-rule="nonzero"/>
	</g>
</svg>
