<svg viewBox="0 0 174 107" xmlns="http://www.w3.org/2000/svg" xmlns:xlink="http://www.w3.org/1999/xlink" width="174.000000" height="107.000000" fill="none">
	<mask id="mask_2" width="172.053635" height="32.927734" x="0.001953" y="2.020996" maskUnits="userSpaceOnUse">
		<g filter="url(#pixso_custom_mask_type_luminance)">
			<g id="Group">
				<path id="Vector" d="M0.00195312 2.021L172.056 2.021L172.056 34.9487L0.00195312 34.9487L0.00195312 2.021Z" fill="rgb(255,255,255)" fill-rule="nonzero"/>
			</g>
		</g>
	</mask>
	<mask id="mask_1" width="172.055649" height="32.927738" x="0.001953" y="72.116211" maskUnits="userSpaceOnUse">
		<g filter="url(#pixso_custom_mask_type_luminance)">
			<g id="Group">
				<path id="Vector" d="M0.00195312 72.1162L172.058 72.1162L172.058 105.044L0.00195312 105.044L0.00195312 72.1162Z" fill="rgb(255,255,255)" fill-rule="nonzero"/>
			</g>
		</g>
	</mask>
	<defs>
		<filter id="pixso_custom_mask_type_luminance">
			<feColorMatrix type="matrix" values="1 0 0 0 0 0 1 0 0 0 0 0 1 0 0 0 0 0 1 0 "/>
		</filter>
	</defs>
	<mask id="mask_0" width="9.572023" height="9.563377" x="162.485352" y="2.020996" maskUnits="userSpaceOnUse">
		<g filter="url(#pixso_custom_mask_type_luminance)">
			<g id="Group">
				<path id="Vector" d="M162.485 2.021L172.057 2.021L172.057 11.5844L162.485 11.5844L162.485 2.021Z" fill="rgb(255,255,255)" fill-rule="nonzero"/>
			</g>
		</g>
	</mask>
	<rect id="Frame" width="174.000000" height="107.000000" x="0.000000" y="0.000000" fill="rgb(255,255,255)" fill-opacity="0"/>
	<g id="Group">
		<path id="Vector" d="M126.295 31.5196L113.34 31.5196L113.34 59.5254C113.36 65.0167 115.697 69.1978 119.235 72.0727C122.772 74.9455 127.933 76.393 134.715 76.4132C141.493 76.393 146.634 74.9455 150.139 72.0727C153.639 69.1978 155.953 65.0167 155.972 59.5254L155.972 31.5196L143.021 31.5196L143.023 58.411C143.023 62.8908 139.264 66.543 134.655 66.543C130.058 66.543 126.276 62.8727 126.284 58.4251L126.295 31.5196ZM108.678 53.3319C108.336 32.261 91.3994 31.3686 91.3994 31.3686L66.9828 31.3686L66.9828 75.2932L91.3994 75.2932C91.3994 75.2932 108.336 74.3968 108.678 53.3319ZM95.2193 53.3904C95.4965 66.1416 86.2603 65.5884 86.2603 65.5884L79.8203 65.5884L79.8203 41.2914L86.2603 41.2914C86.2603 41.2914 95.4965 40.6393 95.2193 53.3904ZM15.0688 53.7005C15.1417 60.9402 17.2459 66.6031 21.3875 70.6833C25.525 74.7654 31.2691 76.8469 38.6155 76.9115C45.9559 76.8469 51.6878 74.7654 55.8071 70.6833C59.9305 66.6031 62.0246 60.9402 62.0934 53.7005C62.0246 46.4609 59.9305 40.8 55.8071 36.7198C51.6878 32.6337 45.9559 30.5603 38.6155 30.4876C31.2691 30.5603 25.525 32.6337 21.3875 36.7198C17.2459 40.8 15.1417 46.4609 15.0688 53.7005ZM28.2402 53.5188C28.216 49.0289 29.0495 45.7058 30.7349 43.5416C32.4203 41.3774 35.0708 40.3054 38.6802 40.3154C42.2877 40.3054 44.924 41.3774 46.5871 43.5416C48.2502 45.7058 49.0737 49.0289 49.0474 53.5188C49.0737 58.0108 48.2502 61.3379 46.5871 63.5001C44.924 65.6644 42.2877 66.7384 38.6802 66.7264C35.0708 66.7384 32.4203 65.6644 30.7349 63.5001C29.0495 61.3379 28.216 58.0108 28.2402 53.5188ZM166.025 6.58542L167.486 6.58542C167.791 6.58542 168.036 6.55513 168.212 6.49053C168.386 6.42391 168.515 6.32296 168.606 6.18164C168.7 6.04032 168.742 5.88689 168.742 5.72336C168.742 5.4811 168.655 5.28123 168.477 5.12376C168.305 4.9683 168.03 4.88957 167.647 4.88957L166.025 4.88957L166.025 6.58542ZM165.341 9.44615L165.341 4.32227L167.621 4.32227C168.078 4.32227 168.426 4.37072 168.661 4.46157C168.902 4.55444 169.09 4.71796 169.232 4.95215C169.375 5.1823 169.444 5.44072 169.444 5.72336C169.444 6.08676 169.329 6.39362 169.092 6.64194C168.857 6.89027 168.493 7.04774 167.997 7.1184C168.184 7.20117 168.317 7.28596 168.412 7.37076C168.608 7.55245 168.801 7.78059 168.973 8.05112L169.863 9.44615L169.015 9.44615L168.335 8.38019C168.135 8.07534 167.975 7.83913 167.844 7.67561C167.716 7.51208 167.601 7.397 167.5 7.3324C167.397 7.26779 167.293 7.22136 167.19 7.19713C167.111 7.17896 166.988 7.17089 166.81 7.17089L166.025 7.17089L166.025 9.44615L165.341 9.44615Z" fill="rgb(0,117,166)" fill-rule="evenodd"/>
		<g id="Group">
			<g id="Mask group" mask="url(#mask_0)">
				<path id="Vector" d="M167.265 2.02051C166.622 2.02253 166.015 2.13558 165.458 2.36775C164.896 2.59589 164.39 2.93102 163.943 3.36911C163.466 3.84153 163.105 4.37047 162.857 4.95796C162.614 5.54747 162.49 6.16121 162.486 6.80119C162.49 7.42704 162.606 8.02462 162.84 8.5899C163.077 9.15519 163.419 9.66798 163.862 10.1323C164.327 10.6047 164.849 10.9661 165.422 11.2104C166.003 11.4567 166.618 11.5819 167.265 11.5839C167.884 11.5819 168.485 11.4628 169.064 11.2286C169.63 10.9924 170.165 10.6491 170.64 10.1949C171.101 9.75277 171.447 9.23998 171.69 8.66662C171.933 8.08721 172.052 7.46943 172.056 6.80119C172.052 6.16524 171.943 5.55958 171.718 4.99026C171.492 4.42094 171.158 3.91219 170.717 3.45996C170.254 2.98553 169.73 2.62819 169.145 2.38592C168.556 2.14366 167.929 2.02051 167.265 2.02051ZM167.279 2.72509C167.838 2.72711 168.368 2.83209 168.86 3.04004C169.353 3.24596 169.802 3.55081 170.199 3.95256C170.579 4.33817 170.863 4.77222 171.055 5.25473C171.253 5.73926 171.35 6.25811 171.35 6.80119C171.35 7.36445 171.247 7.89138 171.041 8.38398C170.832 8.87658 170.537 9.31468 170.146 9.69221C169.744 10.0738 169.299 10.3665 168.809 10.5644C168.317 10.7642 167.801 10.8631 167.265 10.8652C166.717 10.8631 166.193 10.7561 165.699 10.5442C165.206 10.3362 164.76 10.0273 164.368 9.62558C163.986 9.2319 163.696 8.79785 163.5 8.3214C163.304 7.84292 163.209 7.33619 163.203 6.80119C163.209 6.25609 163.312 5.72917 163.516 5.22849C163.725 4.73185 164.03 4.2776 164.439 3.87383C164.819 3.4963 165.252 3.21164 165.728 3.01985C166.205 2.82402 166.721 2.72711 167.279 2.72509Z" fill="rgb(0,117,166)" fill-rule="evenodd"/>
			</g>
		</g>
		<g id="Group">
			<g id="Mask group" mask="url(#mask_1)">
				<path id="Vector" d="M0.00146484 72.1278L0.00146484 84.1219C19.4733 96.8125 50.7508 105.045 86.0222 105.045C121.302 105.045 152.587 96.8085 172.057 84.1098L172.057 72.1157C156.373 84.9961 125.277 95.3489 86.0222 95.3489C46.7791 95.3489 15.6938 85.0022 0.00146484 72.1278Z" fill="rgb(0,117,166)" fill-rule="evenodd"/>
			</g>
		</g>
		<g id="Group">
			<g id="Mask group" mask="url(#mask_2)">
				<path id="Vector" d="M86.0218 2.02051C50.7504 2.02051 19.4729 10.2514 -0.000976562 22.942L-0.000976562 34.9361C15.6934 22.0618 46.7787 11.7171 86.0218 11.7171C125.275 11.7171 156.372 22.0679 172.057 34.9482L172.057 22.9541C152.587 10.2555 121.301 2.02051 86.0218 2.02051Z" fill="rgb(0,117,166)" fill-rule="evenodd"/>
			</g>
		</g>
	</g>
</svg>
