<svg width="64" height="64" viewBox="0 0 64 64" fill="none" xmlns="http://www.w3.org/2000/svg">
<path d="M42.19 35.94L47.22 39.84L47.37 39.96L47.92 40.38C48.4051 40.7558 49.0116 40.9401 49.6238 40.8977C50.2361 40.8553 50.8113 40.5892 51.24 40.15L51.28 40.11C51.5231 39.8583 51.711 39.5585 51.8316 39.2299C51.9522 38.9013 52.0028 38.5512 51.9802 38.2019C51.9576 37.8527 51.8623 37.512 51.7004 37.2017C51.5385 36.8914 51.3136 36.6183 51.04 36.4L49.67 35.33C46.89 33.14 42.94 30.06 39.58 27.53H39.57C36.2 24.99 33.43 23 33 23C30.5 23 27.94 27.69 25.62 27.69C24.9312 27.6815 24.2521 27.5264 23.6279 27.235C23.0038 26.9436 22.4488 26.5226 22 26C23.38 24.44 25.94 20.12 27.06 19.38C28.6085 18.5254 30.2724 17.8989 32 17.52C33.3088 17.1929 34.6511 17.0184 36 17C39.62 17 47.19 21 49 21H54.32" stroke="white" stroke-width="2" stroke-linecap="round" stroke-linejoin="round"/>
<path d="M47.215 39.84L47.368 39.958C47.6537 40.1797 47.8879 40.4608 48.0544 40.7818C48.221 41.1028 48.3159 41.4561 48.3326 41.8174C48.3493 42.1786 48.2875 42.5392 48.1513 42.8743C48.0152 43.2093 47.808 43.5108 47.544 43.758L47.337 43.952C46.8968 44.3638 46.3227 44.6027 45.7204 44.6248C45.1181 44.6468 44.528 44.4505 44.059 44.072L38.626 39.688" stroke="white" stroke-width="2" stroke-linecap="round" stroke-linejoin="round"/>
<path d="M42.7001 42.98C42.9797 43.2055 43.2064 43.4897 43.3642 43.8124C43.522 44.1352 43.6069 44.4886 43.6131 44.8478C43.6193 45.207 43.5466 45.5632 43.4001 45.8912C43.2535 46.2191 43.0368 46.511 42.7651 46.746L42.4341 47.032C41.9817 47.423 41.4042 47.6389 40.8063 47.6405C40.2084 47.6422 39.6296 47.4295 39.1751 47.041L33.9331 42.562" stroke="white" stroke-width="2" stroke-linecap="round" stroke-linejoin="round"/>
<path d="M37.7689 45.84L38.0499 46.08C38.2934 46.2869 38.4885 46.5449 38.6214 46.8356C38.7542 47.1263 38.8215 47.4426 38.8186 47.7622C38.8156 48.0818 38.7425 48.3969 38.6043 48.6851C38.4661 48.9733 38.2662 49.2276 38.0189 49.43C37.5996 49.7757 37.0791 49.9755 36.5361 49.9989C35.9932 50.0224 35.4574 49.8683 35.0099 49.56L31.8599 47.391" stroke="white" stroke-width="2" stroke-linecap="round" stroke-linejoin="round"/>
<path d="M39.5798 27.5291H39.5688" stroke="white" stroke-width="2" stroke-linecap="round" stroke-linejoin="round"/>
<path d="M14.7298 35.01C14.7098 35.01 14.6998 35.02 14.6888 35.04C14.0498 35.54 13.4698 36 12.9598 36.4C12.6857 36.6175 12.4604 36.8901 12.2983 37.2001C12.1362 37.5102 12.041 37.8508 12.0188 38.2C11.9932 38.5497 12.0424 38.9008 12.1631 39.2299C12.2838 39.5591 12.4732 39.8588 12.7188 40.109L12.7588 40.15C13.1613 40.5659 13.6968 40.8277 14.2723 40.8898C14.8478 40.9519 15.4268 40.8105 15.9088 40.49C15.9188 40.48 15.9378 40.471 15.9488 40.46" stroke="white" stroke-width="2" stroke-linecap="round" stroke-linejoin="round"/>
<path d="M15.91 40.49C15.92 40.48 15.939 40.471 15.95 40.46C16.59 39.96 17.17 39.5 17.68 39.1C17.9543 38.8829 18.1798 38.6104 18.3418 38.3002C18.5038 37.9901 18.5985 37.6493 18.62 37.3C18.6459 36.9503 18.5969 36.5991 18.4761 36.2699C18.3554 35.9407 18.1658 35.6411 17.92 35.391L17.88 35.35C17.4774 34.9341 16.9419 34.6724 16.3665 34.6102C15.791 34.5481 15.212 34.6896 14.73 35.01C14.71 35.01 14.7 35.02 14.689 35.04" stroke="white" stroke-width="2" stroke-linecap="round" stroke-linejoin="round"/>
<path d="M9.68018 21H15.0002C16.8102 21 24.3802 17 28.0002 17C29.3491 17.0184 30.6914 17.1929 32.0002 17.52" stroke="white" stroke-width="2" stroke-linecap="round" stroke-linejoin="round"/>
<path d="M22.65 41.8799C22.6258 41.9093 22.5986 41.9361 22.569 41.9599L22.369 42.1089L22.359 42.1199L22.289 42.1699L19.938 44.0699C19.4683 44.4475 18.8783 44.6432 18.2761 44.6212C17.6739 44.5992 17.0998 44.3609 16.659 43.9499L16.459 43.7599C16.1927 43.5146 15.9838 43.2135 15.8473 42.8782C15.7107 42.5429 15.6498 42.1815 15.669 41.8199C15.6975 41.1855 15.9655 40.5855 16.419 40.1409L16.778 39.8409" stroke="white" stroke-width="2" stroke-linecap="round" stroke-linejoin="round"/>
<path d="M16.4199 40.141L16.7789 39.841L19.1399 37.941C19.6097 37.5633 20.1999 37.3676 20.8023 37.3896C21.4047 37.4117 21.979 37.65 22.4199 38.061L22.6199 38.251C22.8864 38.4983 23.0953 38.8012 23.2318 39.1381C23.3683 39.4751 23.4291 39.8379 23.4099 40.201C23.3775 40.8368 23.1061 41.4369 22.6499 41.881C22.6257 41.9103 22.5986 41.9371 22.5689 41.961C22.5289 41.991 22.4899 42.03 22.4499 42.061L22.3599 42.121L22.2899 42.171" stroke="white" stroke-width="2" stroke-linecap="round" stroke-linejoin="round"/>
<path d="M27.48 44.76C27.42 44.82 27.35 44.88 27.28 44.94L24.82 47.04C24.3652 47.4282 23.7864 47.6405 23.1885 47.6385C22.5906 47.6365 22.0132 47.4202 21.561 47.029L21.231 46.75C20.9583 46.515 20.7407 46.2228 20.5938 45.8941C20.4468 45.5655 20.3741 45.2085 20.3808 44.8485C20.3875 44.4886 20.4734 44.1346 20.6324 43.8116C20.7915 43.4886 21.0198 43.2047 21.301 42.98" stroke="white" stroke-width="2" stroke-linecap="round" stroke-linejoin="round"/>
<path d="M21.2998 42.98L23.7498 40.88C24.2046 40.4915 24.7837 40.279 25.3818 40.281C25.98 40.283 26.5576 40.4994 27.0098 40.891L27.3398 41.18C27.5941 41.3995 27.8006 41.669 27.9464 41.9717C28.0922 42.2744 28.1742 42.6038 28.1874 42.9396C28.2005 43.2753 28.1445 43.6101 28.0227 43.9233C27.901 44.2365 27.7162 44.5212 27.4798 44.76C27.4198 44.82 27.3498 44.88 27.2798 44.94" stroke="white" stroke-width="2" stroke-linecap="round" stroke-linejoin="round"/>
<path d="M26.23 45.84L25.95 46.08C25.7063 46.2867 25.5109 46.5446 25.3779 46.8353C25.2449 47.126 25.1774 47.4423 25.1803 47.762C25.1831 48.0817 25.2563 48.3968 25.3945 48.685C25.5327 48.9733 25.7326 49.2276 25.98 49.43C26.3998 49.7751 26.9204 49.9744 27.4633 49.9978C28.0062 50.0213 28.5421 49.8676 28.99 49.56L31.22 48.02" stroke="white" stroke-width="2" stroke-linecap="round" stroke-linejoin="round"/>
<path d="M26.23 45.84L28.46 44.3C28.9081 43.9929 29.4439 43.8395 29.9867 43.8629C30.5295 43.8864 31.05 44.0854 31.47 44.43C31.716 44.6319 31.9151 44.885 32.0533 45.1717C32.1914 45.4584 32.2654 45.7718 32.27 46.09C32.2711 46.4103 32.2029 46.7271 32.0702 47.0186C31.9374 47.3101 31.7433 47.5695 31.501 47.779L31.221 48.02" stroke="white" stroke-width="2" stroke-linecap="round" stroke-linejoin="round"/>
<path d="M8.31006 34.04C11.9101 34.17 13.4201 34.63 14.3301 35.33" stroke="white" stroke-width="2" stroke-linecap="round" stroke-linejoin="round"/>
<path d="M49.6699 35.33C50.5799 34.63 52.0899 34.17 55.6899 34.04" stroke="white" stroke-width="2" stroke-linecap="round" stroke-linejoin="round"/>
<path d="M62 18H54L56 37H62" stroke="white" stroke-width="2" stroke-linecap="round" stroke-linejoin="round"/>
<path d="M2 18H10L8 37H2" stroke="white" stroke-width="2" stroke-linecap="round" stroke-linejoin="round"/>
<path d="M32 2V6" stroke="white" stroke-width="2" stroke-linecap="round" stroke-linejoin="round"/>
<path d="M32 58V62" stroke="white" stroke-width="2" stroke-linecap="round" stroke-linejoin="round"/>
<path d="M47 6.01904L45 9.48304" stroke="white" stroke-width="2" stroke-linecap="round" stroke-linejoin="round"/>
<path d="M19 54.517L17 57.981" stroke="white" stroke-width="2" stroke-linecap="round" stroke-linejoin="round"/>
<path d="M47 57.981L45 54.517" stroke="white" stroke-width="2" stroke-linecap="round" stroke-linejoin="round"/>
<path d="M19 9.48304L17 6.01904" stroke="white" stroke-width="2" stroke-linecap="round" stroke-linejoin="round"/>
</svg>
