<svg width="64" height="64" viewBox="0 0 64 64" fill="none" xmlns="http://www.w3.org/2000/svg">
<path d="M15 7H11C11.7956 7 12.5587 7.31607 13.1213 7.87868C13.6839 8.44129 14 9.20435 14 10C14 10.7956 13.6839 11.5587 13.1213 12.1213C12.5587 12.6839 11.7956 13 11 13C10 13 6 13 6 8C6 2 12 2 13 2C14 2 19 3 19 9C19 17 16 27 16 27C16 27 13 37 13 45C13 51 18 52 19 52C20 52 26 52 26 46C26 41 22 41 21 41C20.2044 41 19.4413 41.3161 18.8787 41.8787C18.3161 42.4413 18 43.2044 18 44C18 44.7956 18.3161 45.5587 18.8787 46.1213C19.4413 46.6839 20.2044 47 21 47H22" stroke="white" stroke-width="2" stroke-linecap="round" stroke-linejoin="round"/>
<path d="M13 2H45C46 2 51 3 51 9C51 17 48 27 48 27C47.0545 30.2867 46.3012 33.6257 45.744 37" stroke="white" stroke-width="2" stroke-linecap="round" stroke-linejoin="round"/>
<path d="M51 52C52 52 58 52 58 46C58 41 54 41 53 41H21" stroke="white" stroke-width="2" stroke-linecap="round" stroke-linejoin="round"/>
<path d="M32 52H19" stroke="white" stroke-width="2" stroke-linecap="round" stroke-linejoin="round"/>
<path d="M51 52H48" stroke="white" stroke-width="2" stroke-linecap="round" stroke-linejoin="round"/>
<path d="M40 55C42.7614 55 45 52.7614 45 50C45 47.2386 42.7614 45 40 45C37.2386 45 35 47.2386 35 50C35 52.7614 37.2386 55 40 55Z" stroke="white" stroke-width="2" stroke-linecap="round" stroke-linejoin="round"/>
<path d="M44 53V62L40 59L36 62V53" stroke="white" stroke-width="2" stroke-linecap="round" stroke-linejoin="round"/>
<path d="M11 13H15" stroke="white" stroke-width="2" stroke-linecap="round" stroke-linejoin="round"/>
</svg>
