<svg width="18" height="22" xmlns="http://www.w3.org/2000/svg" xmlns:xlink="http://www.w3.org/1999/xlink"><defs><path d="M1020 454c0 1.103.897 2 2 2s2-.897 2-2-.897-2-2-2-2 .897-2 2zm-2 0c0-2.206 1.794-4 4-4s4 1.794 4 4-1.794 4-4 4-4-1.794-4-4zm-5 .715c0 6.022 7.93 12.737 8.268 13.02.211.177.471.265.732.265s.52-.088.732-.265c.338-.283 8.268-6.998 8.268-13.02 0-4.806-4.038-8.715-9-8.715s-9 3.91-9 8.715z" id="path-1"/></defs><g id="Page-1" stroke="none" stroke-width="1" fill="none" fill-rule="evenodd"><g id="Property-Details" transform="translate(-1013 -446)"><mask id="mask-2" fill="#fff"><use xlink:href="#path-1"/></mask><use id="๐จ-Icon-ะกolor" fill="#A4193B" fill-rule="nonzero" xlink:href="#path-1"/></g></g></svg>