<svg width="43" height="43" xmlns="http://www.w3.org/2000/svg"><g id="Page-1" stroke="none" stroke-width="1" fill="none" fill-rule="evenodd" stroke-linecap="round" stroke-linejoin="round"><g id="Contact-Us" transform="translate(-277 -684)" stroke="#A4193B" stroke-width="3.5"><g id="Arrow,-Location,-Direction" transform="translate(279 686)"><g id="Group"><path d="M10.98 5.031L27.095 5c3.965-.007 7.182 3.255 7.165 7.27v.034c-.016 3.988-3.214 7.214-7.151 7.214H15.15c-3.947 0-7.15 3.243-7.15 7.242h0c0 4 3.205 7.243 7.156 7.241L39 33.993M39 34l-5 5m0-10l5 5" id="Path"/><path d="M9.39 1.61a5.5 5.5 0 11-7.78 7.78 5.5 5.5 0 017.78-7.78" id="Path"/></g></g></g></g></svg>