<svg width="48" height="51" xmlns="http://www.w3.org/2000/svg"><g id="Page-1" stroke="none" stroke-width="1" fill="none" fill-rule="evenodd" stroke-linecap="round" stroke-linejoin="round"><g id="WE-are-ready" transform="translate(-756 -5084)" stroke="#FFE455" stroke-width="2"><g id="documents-file-access.1" transform="translate(757 5085)"><g id="Group"><path d="M46 13.611H35.176h0a2.714 2.714 0 01-2.705-2.722s0 0 0 0V0" id="Path"/><path d="M8.118 13.611V5.444h0C8.118 2.438 10.54 0 13.529 0h19.407c1.435 0 2.811.574 3.826 1.595l7.652 7.699h0A5.46 5.46 0 0146 13.143v30.413h0C46 46.562 43.577 49 40.588 49H13.53h0c-2.988 0-5.411-2.438-5.411-5.444 0 0 0 0 0 0v-2.723M9.2 29.944h8.686" id="Path"/><path id="Path" d="M18.603 31.986L14.95 21.778h-2.841L8.456 31.986"/><rect id="Rectangle" x="0" y="13.611" width="27.059" height="27.222" rx="1.657"/></g></g></g></g></svg>