<svg width="70" height="18" xmlns="http://www.w3.org/2000/svg"><g id="Page-1" stroke="none" stroke-width="1" fill="none" fill-rule="evenodd"><g id="For-Lease" transform="translate(-615 -820)" fill="#A4193B" fill-rule="nonzero"><g id="property" transform="translate(255 659)"><path d="M367.172 178.406c.14 0 .27-.023.387-.07a2.13 2.13 0 00.386-.211c.235-.188.375-.445.422-.773.047-.329-.047-.633-.281-.915l-4.456-5.554h65.065c.282 0 .528-.086.74-.258l.104-.094a1.15 1.15 0 00.352-.844 1.15 1.15 0 00-.352-.843 1.15 1.15 0 00-.844-.352H363.63l4.457-5.554c.2-.242.298-.5.293-.775l-.012-.14a1.158 1.158 0 00-.422-.773 1.424 1.424 0 00-.914-.246.972.972 0 00-.773.457l-6.047 7.453a1.48 1.48 0 00-.211.774c0 .28.07.539.21.773l6.048 7.453a1.13 1.13 0 00.914.492z" id="" transform="rotate(-180 394.945 169.703)"/></g></g></g></svg>