<svg width="50" height="50" xmlns="http://www.w3.org/2000/svg"><g id="Page-1" stroke="none" stroke-width="1" fill="none" fill-rule="evenodd" stroke-linecap="round" stroke-linejoin="round"><g id="WE-are-ready" transform="translate(-935 -5355)" stroke="#FFE455" stroke-width="2"><g id="Calendar,-Dates,-Check-in,-Check-out" transform="translate(936 5356)"><g id="Group"><path d="M41.001 13.44h2.838c2.3 0 4.161 1.85 4.161 4.137v26.29C48 46.15 46.139 48 43.839 48H14.72c-2.3 0-4.161-1.85-4.161-4.137v-3.838" id="Path"/><path d="M2.686 40.32h30.356c1.795 0 3.47-.893 4.465-2.383l1.97-2.947a10.672 10.672 0 001.803-5.934V8.229c0-2.956-2.402-5.349-5.367-5.349H9.078c-2.965 0-5.367 2.393-5.367 5.349v18.87c0 1.66-.389 3.297-1.132 4.784L.287 36.45c-.893 1.779.406 3.87 2.4 3.87zM13.92 0v5.76M30.24 0v5.76m-16.8 10.08h16.32M13.44 26.4h16.32" id="Path"/></g></g></g></g></svg>