<svg width="92" height="91" xmlns="http://www.w3.org/2000/svg" xmlns:xlink="http://www.w3.org/1999/xlink"><defs><path id="path-1" d="M0 91h92V0H0z"/></defs><g id="Page-1" stroke="none" stroke-width="1" fill="none" fill-rule="evenodd"><g id="WE-are-ready" transform="translate(-445 -6047)"><g id="Group-32" transform="translate(445 6047)"><path d="M65.5 39C58.056 39 52 33.168 52 26s6.056-13 13.5-13c1.785 0 3.522.33 5.16.983l-1.289 3.003a10.418 10.418 0 00-3.871-.736c-5.584 0-10.125 4.373-10.125 9.75s4.541 9.75 10.125 9.75S75.625 31.377 75.625 26c0-.458-.034-.921-.1-1.378l3.343-.447c.088.603.132 1.217.132 1.825 0 7.168-6.056 13-13.5 13" id="Fill-1" fill="#A4193B"/><path d="M74.294 22A10.56 10.56 0 0072 18.778L73.944 16c1.255 1.19 2.282 2.633 3.056 4.29L74.294 22z" id="Fill-3" fill="#A4193B"/><mask id="mask-2" fill="#fff"><use xlink:href="#path-1"/></mask><path id="Fill-5" fill="#A4193B" mask="url(#mask-2)" d="M64 10h3V0h-3z"/><path d="M65.5 49C52.541 49 42 38.683 42 26c0-5 1.611-9.754 4.66-13.75l2.689 1.967A19.271 19.271 0 0045.357 26c0 10.87 9.036 19.714 20.143 19.714 11.107 0 20.143-8.843 20.143-19.714 0-10.87-9.036-19.714-20.143-19.714-1.862 0-3.708.248-5.484.739l-.911-3.164A24.086 24.086 0 0165.5 3C78.459 3 89 13.317 89 26S78.459 49 65.5 49" id="Fill-7" fill="#A4193B" mask="url(#mask-2)"/><path d="M52.25 12L50 9.375A23.42 23.42 0 0154.372 6L56 9.106c-1.35.806-2.61 1.78-3.75 2.894" id="Fill-8" fill="#A4193B" mask="url(#mask-2)"/><path id="Fill-9" fill="#A4193B" mask="url(#mask-2)" d="M39 28h10v-3H39z"/><path id="Fill-10" fill="#A4193B" mask="url(#mask-2)" d="M82 28h10v-3H82z"/><path id="Fill-11" fill="#A4193B" mask="url(#mask-2)" d="M64 53h3V43h-3z"/><path d="M8.267 91C3.71 91 0 87.33 0 82.817 0 77.97 4.5 64.892 5.881 61L9 62.083c-3.457 9.76-5.693 17.9-5.693 20.734 0 2.707 2.226 4.91 4.96 4.91V91z" id="Fill-12" fill="#A4193B" mask="url(#mask-2)"/><path d="M15.333 59.25v6.5h3.335l-.001-6.5h-3.334zM18.667 69h-3.334C13.495 69 12 67.542 12 65.75v-6.5c0-1.792 1.495-3.25 3.333-3.25h3.334C20.505 56 22 57.458 22 59.25v6.5c0 1.792-1.495 3.25-3.333 3.25z" id="Fill-13" fill="#A4193B" mask="url(#mask-2)"/><path id="Fill-14" fill="#A4193B" mask="url(#mask-2)" d="M21 63h8v-3h-8z"/><path id="Fill-15" fill="#A4193B" mask="url(#mask-2)" d="M32 63h3v-3h-3z"/><path id="Fill-16" fill="#A4193B" mask="url(#mask-2)" d="M39 63h5v-3h-5z"/><path d="M25.223 44L22 42.928l1.878-5.614A3.385 3.385 0 0127.102 35H39v3.386H27.102L25.223 44z" id="Fill-17" fill="#A4193B" mask="url(#mask-2)"/><path d="M45.333 59.25v6.5h3.337l-.003-6.5h-3.334zM48.667 69h-3.334C43.495 69 42 67.542 42 65.75v-6.5c0-1.792 1.495-3.25 3.333-3.25h3.334C50.505 56 52 57.458 52 59.25v6.5c0 1.792-1.495 3.25-3.333 3.25z" id="Fill-18" fill="#A4193B" mask="url(#mask-2)"/><path d="M55.711 91v-3.267c2.742 0 4.973-2.198 4.973-4.9 0-3.111-2.284-12.147-5.684-20.634L58.083 61C61.346 69.142 64 78.938 64 82.833 64 87.336 60.282 91 55.711 91" id="Fill-19" fill="#A4193B" mask="url(#mask-2)"/><path id="Fill-20" fill="#A4193B" mask="url(#mask-2)" d="M9 91h60v-3H9z"/><path id="Fill-21" fill="#A4193B" mask="url(#mask-2)" d="M72 91h3v-3h-3z"/><path id="Fill-22" fill="#A4193B" mask="url(#mask-2)" d="M79 91h3v-3h-3z"/><path id="Fill-23" fill="#A4193B" mask="url(#mask-2)" d="M9 84h20v-3H9z"/><path id="Fill-24" fill="#A4193B" mask="url(#mask-2)" d="M32 84h3v-3h-3z"/><path id="Fill-25" fill="#A4193B" mask="url(#mask-2)" d="M39 84h3v-3h-3z"/><path d="M13.667 63H5.333C3.495 63 2 61.482 2 59.615c0-.367.057-.727.172-1.07l5-15.232A3.332 3.332 0 0110.333 41H42v3.385H10.333l-5.001 15.23h8.335V63z" id="Fill-26" fill="#A4193B" mask="url(#mask-2)"/><path d="M58.569 63H50v-3.35h8.569l-1.906-5.59L59.916 53l1.907 5.59A3.2 3.2 0 0162 59.65c0 1.848-1.539 3.35-3.431 3.35" id="Fill-27" fill="#A4193B" mask="url(#mask-2)"/><path id="Fill-28" fill="#A4193B" mask="url(#mask-2)" d="M22 23h3V13h-3z"/><path id="Fill-29" fill="#A4193B" mask="url(#mask-2)" d="M13.703 28L7 21.297 9.297 19 16 25.703z"/><path id="Fill-30" fill="#A4193B" mask="url(#mask-2)" d="M22 10h3V7h-3z"/><path id="Fill-31" fill="#A4193B" mask="url(#mask-2)" d="M3.612 19L0 15.388 2.388 13 6 16.612z"/></g></g></g></svg>