<svg width="20" height="20" xmlns="http://www.w3.org/2000/svg" xmlns:xlink="http://www.w3.org/1999/xlink"><defs><path d="M1528.6 38a2.602 2.602 0 00-2.6 2.6c0 7.388 6.011 13.4 13.4 13.4a2.603 2.603 0 002.579-2.928l-4.62-1.06-.285.545c-.456.87-.786 1.502-1.628 1.163-3.306-1.16-6.005-3.86-7.18-7.206-.357-.785.323-1.141 1.185-1.591l.537-.281-1.06-4.621a2.604 2.604 0 00-.328-.021m10.8 18c-8.492 0-15.4-6.908-15.4-15.4a4.605 4.605 0 016.091-4.352c.325.113.57.386.647.722l1.369 5.964a.997.997 0 01-.253.916c-.136.142-.139.145-1.379.794a9.949 9.949 0 004.879 4.883c.65-1.241.654-1.245.796-1.381a1.01 1.01 0 01.916-.253l5.965 1.369a.998.998 0 01.72.646A4.553 4.553 0 011544 51.4c0 2.537-2.064 4.6-4.6 4.6" id="path-1"/></defs><g id="Page-1" stroke="none" stroke-width="1" fill="none" fill-rule="evenodd"><g id="Index" transform="translate(-1524 -36)"><mask id="mask-2" fill="#fff"><use xlink:href="#path-1"/></mask><use id="phone" fill="#000" fill-rule="nonzero" xlink:href="#path-1"/></g></g></svg>