<svg width="280" height="131" xmlns="http://www.w3.org/2000/svg" xmlns:xlink="http://www.w3.org/1999/xlink"><defs><path d="M.072.05a277.526 277.526 0 000 8.487c.04 2.726.176 4.852 1.388 6.516 1.46 2.003 3.89 3.449 7.019 4.869 3.128-1.42 5.56-2.866 7.02-4.87 1.21-1.663 1.346-3.79 1.386-6.515a275.99 275.99 0 000-8.487H.072z" id="path-1"/><path d="M.072.05a277.526 277.526 0 000 8.487c.04 2.726.176 4.852 1.388 6.516 1.46 2.003 3.89 3.449 7.019 4.869 3.128-1.42 5.56-2.866 7.02-4.87 1.21-1.663 1.346-3.79 1.386-6.515a275.99 275.99 0 000-8.487H.072z" id="path-3"/><path d="M.072.05a277.526 277.526 0 000 8.487c.04 2.726.176 4.852 1.388 6.516 1.46 2.003 3.89 3.449 7.019 4.869 3.128-1.42 5.56-2.866 7.02-4.87 1.21-1.663 1.346-3.79 1.386-6.515a275.99 275.99 0 000-8.487H.072z" id="path-5"/><path d="M.072.05a277.526 277.526 0 000 8.487c.04 2.726.176 4.852 1.388 6.516 1.46 2.003 3.89 3.449 7.019 4.869 3.128-1.42 5.56-2.866 7.02-4.87 1.21-1.663 1.346-3.79 1.386-6.515a275.99 275.99 0 000-8.487H.072z" id="path-7"/><path d="M.072.05a277.526 277.526 0 000 8.487c.04 2.726.176 4.852 1.388 6.516 1.46 2.003 3.89 3.449 7.019 4.869 3.128-1.42 5.56-2.866 7.02-4.87 1.21-1.663 1.346-3.79 1.386-6.515a275.99 275.99 0 000-8.487H.072z" id="path-9"/><path d="M.072.05a277.526 277.526 0 000 8.487c.04 2.726.176 4.852 1.388 6.516 1.46 2.003 3.89 3.449 7.019 4.869 3.128-1.42 5.56-2.866 7.02-4.87 1.21-1.663 1.346-3.79 1.386-6.515a275.99 275.99 0 000-8.487H.072z" id="path-11"/><path d="M.072.05a277.526 277.526 0 000 8.487c.04 2.726.176 4.852 1.388 6.516 1.46 2.003 3.89 3.449 7.019 4.869 3.128-1.42 5.56-2.866 7.02-4.87 1.21-1.663 1.346-3.79 1.386-6.515a275.99 275.99 0 000-8.487H.072z" id="path-13"/><path d="M.072.05a277.526 277.526 0 000 8.487c.04 2.726.176 4.852 1.388 6.516 1.46 2.003 3.89 3.449 7.019 4.869 3.128-1.42 5.56-2.866 7.02-4.87 1.21-1.663 1.346-3.79 1.386-6.515a275.99 275.99 0 000-8.487H.072z" id="path-15"/><path d="M.072.05a277.526 277.526 0 000 8.487c.04 2.726.176 4.852 1.388 6.516 1.46 2.003 3.89 3.449 7.019 4.869 3.128-1.42 5.56-2.866 7.02-4.87 1.21-1.663 1.346-3.79 1.386-6.515a275.99 275.99 0 000-8.487H.072z" id="path-17"/><path id="path-19" d="M.001.03h12.371v15.198H.002z"/></defs><g id="Page-1" stroke="none" stroke-width="1" fill="none" fill-rule="evenodd"><g id="Index" transform="translate(-285 -19)"><g id="Group-101" transform="translate(285 19)"><path id="Fill-1" fill="#000" d="M0 124.017L75 125v-2z"/><path id="Fill-2" fill="#000" d="M204 125l75-1.017-75-.983z"/><g id="Group-30" transform="translate(131 63)"><g id="Group-5"><mask id="mask-2" fill="#fff"><use xlink:href="#path-1"/></mask><path d="M.073.05a277.526 277.526 0 000 8.487c.04 2.726.175 4.852 1.387 6.516 1.46 2.003 3.89 3.449 7.019 4.869 3.128-1.42 5.56-2.866 7.02-4.87 1.21-1.663 1.346-3.79 1.386-6.515a275.99 275.99 0 000-8.487H.073z" id="Fill-3" fill="#000" mask="url(#mask-2)"/></g><g id="Group-8"><mask id="mask-4" fill="#fff"><use xlink:href="#path-3"/></mask><path id="Fill-6" fill="#FFE455" mask="url(#mask-4)" d="M2.726-.143v7.726l2.81 2.99.033-7.787z"/></g><g id="Group-11"><mask id="mask-6" fill="#fff"><use xlink:href="#path-5"/></mask><path d="M-.014 10.224S.088 11.82.28 12.59c.2.798.464 1.596.883 2.302.387.652 1.472 1.726 1.472 1.726l.124.083.001-.012-.036-.024-.023-3 .024-6.13L-.13 4.65l.116 5.575z" id="Fill-9" fill="#FFE455" mask="url(#mask-6)"/></g><g id="Group-14"><mask id="mask-8" fill="#fff"><use xlink:href="#path-7"/></mask><path id="Fill-12" fill="#FFE455" mask="url(#mask-8)" d="M8.437-.143H5.581L5.57 2.786l2.895 2.982z"/></g><g id="Group-17"><mask id="mask-10" fill="#fff"><use xlink:href="#path-9"/></mask><path id="Fill-15" fill="#FFE455" mask="url(#mask-10)" d="M12.226 18.15l.253-.192-1.178-1.253.001 1.933z"/></g><g id="Group-20"><mask id="mask-12" fill="#fff"><use xlink:href="#path-11"/></mask><path d="M14.108 11.58l-.019 5.207s.915-.769 1.289-1.233c.4-.496 1.001-1.635 1.001-1.635l-2.271-2.34z" id="Fill-18" fill="#FFE455" mask="url(#mask-12)"/></g><g id="Group-23"><mask id="mask-14" fill="#fff"><use xlink:href="#path-13"/></mask><path d="M5.504 18.535l-.002-.002v.002l.531.356 2.48 1.223.017-.009-.03-6.38-2.963-3.152-.033 7.962z" id="Fill-21" fill="#FFE455" mask="url(#mask-14)"/></g><g id="Group-26"><mask id="mask-16" fill="#fff"><use xlink:href="#path-15"/></mask><path id="Fill-24" fill="#FFE455" mask="url(#mask-16)" d="M11.293-.143l.004 8.828 2.81 2.895.042-11.723z"/></g><g id="Group-29"><mask id="mask-18" fill="#fff"><use xlink:href="#path-17"/></mask><path id="Fill-27" fill="#FFE455" mask="url(#mask-18)" d="M8.5 13.726l2.801 2.98-.003-8.02-2.834-2.918z"/></g></g><g id="Group-100" transform="translate(1)"><path d="M12.897 111.364a7.704 7.704 0 01-3.363.765c-3.847 0-6.559-2.902-6.559-8.29 0-5.389 3.017-8.29 6.753-8.29.886 0 1.87.21 2.896.783l.536 3.168h1.688l-.11-4.006c-1.883-1.078-3.848-1.327-5.342-1.327-5.397 0-9.327 4.145-9.327 9.672 0 5.637 3.764 9.671 9.355 9.671 1.937 0 3.846-.386 5.59-1.326l.11-4.007h-1.687l-.54 3.187z" id="Fill-31" fill="#A4193B"/><path d="M21.045 107.072l2.352-6.325 2.297 6.325h-4.65zm3.793-9.285h-1.605l-5.118 13.877-2.106.354v1.078h5.701v-1.078l-2.37-.362 1.232-3.313h5.583l1.223 3.366-2.291.31v1.077H31.7v-1.078l-1.78-.242-5.083-13.989z" id="Fill-33" fill="#A4193B"/><path d="M43.337 111.742h-5.311a221.237 221.237 0 01-.044-5.167v-1.63c0-1.88.001-3.797.045-5.706l2.17-.264v-1.077h-6.893v1.077l2.198.265c.043 1.873.044 3.788.044 5.704v1.106c0 1.88 0 3.795-.045 5.704l-2.197.264v1.078h12.122l.25-4.476H44.07l-.734 3.122z" id="Fill-35" fill="#A4193B"/><path id="Fill-37" fill="#A4193B" d="M58.157 97.898H55.64v1.216l1.984.21-3.76 10.035-3.905-10.056 2.194-.19v-1.215h-6.67v1.077l1.85.22 5.65 14.067h1.052l5.063-13.986 2.132-.3v-1.078h-1.632z"/><path d="M73.522 111.742h-5.994c-.044-1.9-.045-3.825-.045-5.803h3.45l.314 2.128h1.19v-5.555h-1.19l-.34 2.184h-3.424c0-1.768.002-3.618.044-5.444h5.497l.547 2.901h1.495l-.166-4.255H62.805v1.077l2.198.265c.044 1.909.045 3.824.045 5.704v1.106c0 1.916-.001 3.83-.045 5.704l-2.197.264v1.078h12.62l.138-4.255H74.07l-.548 2.901z" id="Fill-39" fill="#A4193B"/><path d="M82.648 104.861c0-2.014 0-3.833.047-5.72h2.029c2.38 0 3.404.912 3.404 2.764 0 1.74-1.135 2.956-3.764 2.956h-1.716zm4.373 3.316l.913 3.593c.304 1.215 1.024 1.602 2.574 1.602.72 0 1.3-.11 1.771-.276v-1.078l-1.76-.237-.952-3.023c-.576-1.941-1.527-2.801-2.906-3.086 2.714-.476 4.04-2.121 4.04-3.767 0-2.515-2.213-4.007-5.977-4.007H77.97v1.077l2.197.265c.044 1.908.045 3.824.045 5.704v1.106c0 1.916-.001 3.83-.045 5.704l-2.197.264v1.078h6.891v-1.078l-2.169-.263a248.35 248.35 0 01-.045-5.678h.996c1.965 0 2.934.194 3.377 2.1z" id="Fill-41" fill="#A4193B"/><path d="M94.638 99.252h3.49c.044 1.904.045 3.816.045 5.692v1.106c0 1.913 0 3.825-.044 5.696l-2.419.272v1.078h7.362v-1.078l-2.419-.272a247.23 247.23 0 01-.044-5.696v-1.106c0-1.912 0-3.823.044-5.692h3.49l.562 2.818h1.494l-.194-4.172H92.777l-.194 4.172h1.494l.561-2.818z" id="Fill-43" fill="#A4193B"/><path d="M128.947 112.184l.11-4.007h-1.688l-.539 3.187a7.704 7.704 0 01-3.363.765c-3.847 0-6.559-2.902-6.559-8.29 0-5.389 3.017-8.29 6.753-8.29.886 0 1.87.21 2.895.783l.536 3.168h1.689l-.111-4.006c-1.882-1.078-3.847-1.327-5.341-1.327-5.397 0-9.327 4.145-9.327 9.672 0 5.637 3.764 9.671 9.354 9.671 1.938 0 3.847-.386 5.59-1.326" id="Fill-45" fill="#A4193B"/><path d="M138.909 112.101c-3.321 0-4.594-3.426-4.594-6.604s1.273-6.604 4.594-6.604c3.32 0 4.566 3.426 4.566 6.604s-1.245 6.604-4.566 6.604m0-14.562c-3.68 0-7.472 2.901-7.472 7.958 0 5.305 3.763 7.958 7.472 7.958 3.68 0 7.417-2.929 7.417-7.958 0-5.333-3.764-7.958-7.417-7.958" id="Fill-47" fill="#A4193B"/><path d="M168.853 112.018l-2.197-.267a247.222 247.222 0 01-.045-5.701v-1.106c0-1.915 0-3.83.044-5.701l2.198-.268v-1.077h-4.899l-4.996 12.257-5.327-12.257h-4.538v1.077l2.103.28v12.439l-2.159.324v1.078h5.397v-1.078l-1.882-.313v-7.01l-.15-4.077 5.408 12.478h1.329l5.092-12.484v5.355c.022 1.984.008 3.913-.027 5.79l-1.966.261v1.078h6.615v-1.078z" id="Fill-49" fill="#A4193B"/><path d="M191.268 112.018l-2.196-.267a247.228 247.228 0 01-.045-5.701v-1.106c0-1.915 0-3.83.044-5.701l2.197-.268v-1.077h-4.898l-4.996 12.257-5.327-12.257h-4.538v1.077l2.103.28v12.439l-2.159.324v1.078h5.397v-1.078l-1.882-.313v-7.01l-.15-4.077 5.408 12.478h1.329l5.092-12.484v5.355c.022 1.984.008 3.913-.027 5.79l-1.966.261v1.078h6.614v-1.078z" id="Fill-51" fill="#A4193B"/><path d="M204.724 111.742h-5.995c-.043-1.9-.044-3.825-.044-5.803h3.45l.313 2.128h1.19v-5.555h-1.19l-.34 2.184h-3.423c0-1.768.001-3.618.044-5.444h5.497l.547 2.901h1.495l-.166-4.255h-12.095v1.077l2.197.265c.044 1.909.045 3.824.045 5.704v1.106c0 1.916 0 3.83-.044 5.704l-2.198.264v1.078h12.62l.139-4.255h-1.495l-.547 2.901z" id="Fill-53" fill="#A4193B"/><path d="M215.565 104.861h-1.715c0-2.014 0-3.833.046-5.72h2.03c2.38 0 3.403.912 3.403 2.764 0 1.74-1.134 2.956-3.764 2.956zm5.203 3.897c-.575-1.941-1.526-2.801-2.905-3.086 2.714-.476 4.04-2.121 4.04-3.767 0-2.515-2.214-4.007-5.978-4.007h-6.753v1.077l2.197.265c.044 1.908.045 3.824.045 5.704v1.106c0 1.916 0 3.83-.044 5.704l-2.197.264v1.078h6.89v-1.078l-2.168-.263a248.364 248.364 0 01-.045-5.678h.996c1.965 0 2.934.194 3.376 2.1l.914 3.593c.304 1.215 1.024 1.602 2.573 1.602.72 0 1.301-.11 1.772-.276v-1.078l-1.76-.237-.953-3.023z" id="Fill-55" fill="#A4193B"/><path d="M236.12 111.481a6.65 6.65 0 01-2.788.62c-3.238 0-5.507-2.238-5.507-6.604 0-4.421 2.601-6.604 5.673-6.604.667 0 1.48.156 2.338.616l.457 2.423h1.633l-.083-3.343c-1.688-.912-3.487-1.05-4.677-1.05-4.732 0-8.192 3.481-8.192 7.958 0 4.587 3.321 7.958 8.22 7.958 1.688 0 3.404-.331 4.898-1.05l.11-3.343h-1.632l-.45 2.42z" id="Fill-57" fill="#A4193B"/><path d="M242.88 97.898h-2.16v1.077l2.198.265c.044 1.908.044 3.824.044 5.704v1.106c0 1.916 0 3.831-.044 5.703l-2.197.265v1.078h6.89v-1.078l-2.168-.263a247.527 247.527 0 01-.045-5.705v-1.106c0-1.916 0-3.832.044-5.705l2.17-.264v-1.077h-4.733z" id="Fill-59" fill="#A4193B"/><path d="M254.003 107.072l2.352-6.325 2.297 6.325h-4.65zm3.793-9.285h-1.605l-5.118 13.877-2.105.354v1.078h5.701v-1.078l-2.37-.362 1.231-3.313h5.584l1.222 3.366-2.291.31v1.077h6.614v-1.078l-1.78-.242-5.083-13.989z" id="Fill-61" fill="#A4193B"/><g id="Group-65" transform="translate(266.262 97.868)"><mask id="mask-20" fill="#fff"><use xlink:href="#path-19"/></mask><path d="M10.767 10.751l-.734 3.123H4.721a221.69 221.69 0 01-.043-5.168v-1.63c0-1.88.001-3.797.045-5.705l2.17-.264V.03H0v1.078l2.198.265c.043 1.872.044 3.788.044 5.704V8.18c0 1.88-.001 3.796-.045 5.704L0 14.149v1.078h12.122l.249-4.477h-1.605z" id="Fill-63" fill="#A4193B" mask="url(#mask-20)"/></g><path d="M89.838 123.926h-.73c0-1.123.001-2.146.022-3.167h.804c1.152 0 1.702.525 1.702 1.545 0 .901-.51 1.622-1.798 1.622zm2.958 2.119c-.24-1.07-.667-1.608-1.724-1.777 1.53-.257 2.156-1.13 2.156-2.032 0-1.333-1.1-2.122-3.03-2.122h-3.752v.584l1.045.113c.021 1.05.022 2.106.022 3.153v.539c0 1.064-.001 2.118-.021 3.152l-1.046.114v.583h3.747v-.583l-1.065-.116c-.02-1.01-.02-2.034-.02-3.1h.534c.886 0 1.269.278 1.454 1.198l.368 1.727c.136.772.617 1.025 1.534 1.025.474 0 .722-.045 1.133-.151v-.583l-.955-.107-.38-1.617z" id="Fill-66" fill="#A4193B"/><path d="M100.039 127.695h-2.77c-.021-1.052-.022-2.12-.022-3.245h1.614l.152 1.07h.642v-2.806h-.642l-.161 1.083h-1.605c0-1.02.003-2.03.023-3.02h2.52l.263 1.511h.87l-.088-2.174h-6.267v.584l1.046.114c.02 1.05.021 2.105.021 3.152v.539c0 1.064 0 2.118-.021 3.152l-1.046.114v.583h6.516l.087-2.174h-.87l-.262 1.517z" id="Fill-68" fill="#A4193B"/><path d="M103.955 125.162l1.148-3.446 1.129 3.446h-2.277zm2.143-5.087h-1.02l-2.596 7.543-1.023.15v.584h2.769v-.583l-1.089-.16.6-1.799h2.705l.601 1.835-1.095.137v.57h3.599v-.57l-.852-.1-2.599-7.607z" id="Fill-70" fill="#A4193B"/><path d="M115.148 127.686h-2.508c-.02-1.044-.02-2.077-.02-2.962v-.76c0-1.052 0-2.106.02-3.148l1.097-.118v-.584h-3.797v.584l1.046.113c.02 1.04.021 2.095.021 3.153v.67c0 .946 0 1.98-.02 3.02l-1.047.115v.583h6.313l.124-2.385h-.874l-.355 1.719z" id="Fill-72" fill="#A4193B"/><path d="M125.198 127.695h-2.77a163.6 163.6 0 01-.02-3.245h1.613l.152 1.07h.641v-2.806h-.641l-.162 1.083h-1.604c0-1.02.002-2.03.022-3.02h2.521l.262 1.511h.87l-.087-2.174h-6.267v.584l1.045.114c.02 1.05.022 2.105.022 3.152v.539c0 1.064-.001 2.118-.022 3.152l-1.045.114v.583h6.516l.087-2.174h-.87l-.263 1.517z" id="Fill-74" fill="#A4193B"/><path d="M130.386 123.54l-.536-.228c-.82-.338-1.271-.738-1.271-1.457 0-.803.651-1.27 1.49-1.27.342 0 .634.066.926.207l.249 1.436h.947l.088-1.678c-.571-.397-1.33-.645-2.191-.645-1.735 0-2.941.888-2.941 2.348 0 1.321.857 2.05 2.226 2.634l.5.213c.913.377 1.316.705 1.316 1.435 0 .818-.629 1.346-1.66 1.346a2.82 2.82 0 01-1.261-.268l-.247-1.499h-.956l-.075 1.794c.645.4 1.626.653 2.559.653 1.918 0 3.094-.967 3.094-2.432 0-1.213-.643-1.915-2.257-2.59" id="Fill-76" fill="#A4193B"/><path d="M140.11 120.114h-7.05l-.072 2.26h.87l.256-1.598h1.64c.022 1.062.023 2.129.023 3.188v.539c0 1.06 0 2.113-.021 3.144l-1.17.122v.583h4v-.583l-1.175-.121c-.02-1.048-.022-2.101-.022-3.15v-.534a160 160 0 01.023-3.188h1.645l.256 1.599h.865l-.067-2.26z" id="Fill-78" fill="#A4193B"/><path d="M141.925 125.162l1.148-3.446 1.129 3.446h-2.277zm2.143-5.087h-1.02l-2.596 7.543-1.023.15v.584h2.769v-.583l-1.09-.16.6-1.799h2.706l.601 1.835-1.095.137v.57h3.599v-.57l-.852-.1-2.6-7.607z" id="Fill-80" fill="#A4193B"/><path d="M151.356 120.114h-4.367l-.071 2.26h.87l.255-1.598h1.641c.021 1.062.023 2.129.023 3.188v.539c0 1.06-.001 2.113-.022 3.144l-1.17.122v.583h4.001v-.583l-1.176-.121a161.98 161.98 0 01-.021-3.15v-.534a160 160 0 01.022-3.188h1.646l.255 1.599h.866l-.068-2.26h-2.684z" id="Fill-82" fill="#A4193B"/><path d="M160.146 127.695h-2.77a163.6 163.6 0 01-.021-3.245h1.614l.152 1.07h.641v-2.806h-.641l-.162 1.083h-1.604c0-1.02.002-2.03.022-3.02h2.521l.262 1.511h.87l-.087-2.174h-6.268v.584l1.046.114c.02 1.05.022 2.105.022 3.152v.539c0 1.064-.001 2.118-.022 3.152l-1.046.114v.583h6.517l.087-2.174h-.87l-.263 1.517z" id="Fill-84" fill="#A4193B"/><path d="M163.27 126.53c-.571 0-.93.412-.93.93 0 .33.16.689.584.959l.446.284c-.294.812-.898 1.397-1.744 1.828l.174.469c1.19-.406 2.482-1.566 2.482-3.166a2.77 2.77 0 00-.16-.948c-.306-.277-.565-.356-.853-.356" id="Fill-86" fill="#A4193B"/><path d="M169.187 120.114h-1.03v.584l1.046.114c.02 1.05.021 2.105.021 3.152v.539c0 1.064-.001 2.118-.021 3.152l-1.046.114v.583h3.751v-.583l-1.05-.113c-.02-1.05-.022-2.107-.022-3.158v-.534c0-1.064.002-2.12.022-3.153l1.05-.113v-.584h-2.721z" id="Fill-88" fill="#A4193B"/><path id="Fill-90" fill="#A4193B" d="M179.127 120.114h-1.365v.584l1.365.16v4.871l-4.092-5.615h-2.344v.588l.87.092.147.202v6.623l-1.057.15v.583h3.135v-.583l-1.365-.168v-5.626l4.688 6.432h.731v-7.552l1.057-.157v-.584h-1.057z"/><path d="M187.142 127.602c-.426.199-.86.293-1.28.293-1.518 0-2.686-1.181-2.686-3.657 0-2.48 1.26-3.67 2.76-3.67.355 0 .718.081 1.094.282l.298 1.525h.854l-.05-1.864c-.79-.444-1.61-.606-2.418-.606-2.38 0-4.3 1.612-4.3 4.328 0 2.72 1.81 4.328 4.262 4.328.97 0 1.838-.22 2.562-.614l.05-1.855h-.854l-.292 1.51z" id="Fill-92" fill="#A4193B"/><path d="M190.41 126.53c-.559 0-1 .457-1 1.01 0 .54.441.987 1 .987a.992.992 0 00.998-.988c0-.552-.44-1.009-.999-1.009" id="Fill-94" fill="#A4193B"/><path d="M152.743 15.751l.173-.289a2.067 2.067 0 01-.102.08l-.07.21z" id="Fill-96" fill="#A4193B"/><path d="M125.595 31.499c4.28-1.562 6.124 1.05 10 .157a.586.586 0 01.212-.014c-1.155.592-3.465 1.443-6.87 1.174 3.23.667 5.785.016 7.146-.503-.065.828-.557 2.237-.486 3.189-.27.537-.223.758-.537.968-.846.565-.111 1.771.69 2.027.2.064.363.567 1.662.967a239.5 239.5 0 011.129.555c.241-.333.492-.536.556-.555.425-.131.728-.273.951-.407.5.027 1.325.078 1.58.129.372.074 1.193 0 3.245 3.129.522.796 1.032 1.363 1.502 1.766-2.133-1.46-3.808-3.953-5.097-4.309-1.465-.405-2.74 1.016-2.74 1.016l-1.104-.744c-.487-.33-1.202-.548-2.203-.272-1.558.43-3.68 3.983-6.493 5.058 1.099-.684.84-1.098.77-1.128-4.23-3.446-3.913-12.203-3.913-12.203m10.889 4.725c.049-.336.35-1.79.584-2.024-.476.17-.588 1.098-.588 1.098s-.269-.347.03-1.252c.095-.284.304-.258.111-1.245.34-.347.6-.675.917-.891l.004-.25h1.033v.057c.525.16.843.605 1.313 1.084-.193.987.017.96.11 1.245.3.905.031 1.252.031 1.252s-.112-.928-.588-1.098c.235.234.535 1.688.584 2.024.049.337-.72.362-.773.842.222-.343 1.104-.634 1.484-.299.024.038.61.439-.132 1.198-.248.254-.58.34-.794.369-.128.017.56-.627.306-.507-.222.104-.91.81-1.57.984-.475-.277-1.988-.907-2.153-.984-.255-.12.434.524.306.507-.214-.03-.546-.115-.794-.369-.742-.759-.155-1.16-.132-1.198.38-.335 1.262-.044 1.484.299-.053-.48-.822-.505-.773-.842m4.5-3.66c3.874.893 6.507 1.17 9.93-1.065-1.366.887-3.653 7.016-6.227 6.532-1.885-.355-3.27-2.506-3.876-3.633-.237-1.11-.71-2.038.173-1.834m1.483 12.428c.368.763.37 1.655-.313 2.425-.76.857-1.644 1.424-2.57 1.697-.131 1.15-.59 2.471-.944 3.358.528-1.957.963-5.6-.347-6.062l-.583.804c-.946 1.326-.06 5.162-.06 5.162-.234-.701-.802-2.626-.883-3.33-.853-.292-1.678-.834-2.412-1.63-.698-.755-.681-1.661-.313-2.424-1.983 1.669-4.604 2.018-5.397 1.073 1.689 1.068 3.699-.622 6.116-1.769.414-.196.84-.376 1.278-.524.438-.148 1.872-.415 1.872-.415h.616s1.212.181 1.786.363c.574.182 1.127.423 1.66.685 2.317 1.14 4.255 2.695 5.891 1.66-.793.945-3.414.596-5.397-1.073M99.448 63.717c.357.07.687.214.99.43l.488.466c.082.094.153.194.214.3a35.191 35.191 0 004.479-.286l15.198 12.889 5.317-8.818-6.1 5.465-7.805-9.683c5.926-1.23 4.96-4.144 6.689-5.964.85-.36 1.44-.772 1.44-.772s1.68 1.565 3.526 1.006c1.847-.559 2.997-2.347 2.997-2.347s1.816.335 3.048-.391c1.23-.727.951-2.515.951-2.515s.283 1.27 1.28.314c2.034 1.782 4.183 3.596 6.094 6.373v.186c1.901-2.76 4.037-4.592 6.061-6.393.84.623 1.086-.48 1.086-.48s-.28 1.788.952 2.515c1.231.726 3.048.391 3.048.391s1.15 1.788 2.996 2.347c1.847.559 3.526-1.006 3.526-1.006s1.499 1.047 3.161 1.26c1.854 1.784.617 4.352 6.033 5.476l-7.633 9.683-6.161-5.52 5.378 8.873 15.198-12.889c.86.112 1.764.195 2.715.241a2.739 2.739 0 01-.4-.975 2.17 2.17 0 01.026-.95c-5.63-1.22-9.462-3.421-11.864-5.286 1.007-1.336.076-2.53-.856-2.484-1.12.056-3.75-1.508-4.31-3.576-.56-2.068-1.735-2.515-1.175-2.962.56-.447 1.175-3.017 1.175-4.638 0-1.62-1.231-4.862-1.231-4.862s.44-2.2.284-3.216c3.821-3.73 7.277-11.281 7.789-18.68.684-3.998-.463-8.18-1.743-10.446l-.002-.003a1.17 1.17 0 00-.087-.151c-.359-.607-.725-1.062-1.06-1.318-.845-.643-1.562-1.032-2.174-1.213 1.835-3.2 5.153.443 4.43 3.914 1.903-7.301-6.156-5.826-6.473-4.038-5.167-1.084-4.722 6.716-4.82 7.664a7.146 7.146 0 00-.32-.511c-.454-4.297-17.473-21.23-26.938-2.507-.306.604.486 1.254 1.16 1.32 2.579.256 17.096 3.937 19.321 4.954l-.038.094c-2.31-.834-16.747-3.812-19.24-3.947a1.28 1.28 0 00-1.348 1.217c-.046.947-.097 1.89-.153 2.777-.035.551.406 1.031.959 1.01 7.738-.304 16.871 1.41 18.536 2.43l-.038.134c-1.865-.41-12.973-2.238-18.731-1.488-.513.066-.93.443-.965.962v.001c-1.502.348-6.455.722-8.116.7 5.727 2.443 14.099 4.987 21.156 5.113v.004l.19-.002.083.002v-.002l.965-.006c1.62-.04 3.157-.222 4.554-.579v.007l.063-.023c.404-.105.796-.224 1.175-.36l.035-.106c.181-.057.374-.105.62-.144 5.006-16.445 7.71-8.51 7.71-8.51s.001-3.72 1.386-7.058c.664-1.598 1.484-2.087 2.252-2.023-1.535 2.42-1.445 8.071-3.202 10.078-.219.422-.443.828-.674 1.218-1.035 1.747-2.189 3.169-3.437 4.31a7.336 7.336 0 01-1.654 1.317c-2.129 1.462-5.246 2.105-8.83 2.176v.005h-.967c-11.55-.092-27.274-5.66-30.798-8.965-.45.06-.816.227-1.063.535-1.69 2.109.667 15.031 14.374 22.465.077.513.153.89.153.89s-1.232 3.24-1.232 4.861c0 1.62.616 4.191 1.176 4.638.56.447-.616.894-1.176 2.962-.56 2.068-3.19 3.632-4.31 3.576-1.056-.052-2.112 1.488-.344 3.024-3.031 2.17-7.94 4.613-15.261 5.41.096.04.193.077.292.11" id="Fill-98" fill="#A4193B"/></g></g></g></g></svg>