<svg width="116" height="112" xmlns="http://www.w3.org/2000/svg"><g id="Page-1" stroke="none" stroke-width="1" fill="none" fill-rule="evenodd"><g id="Index" transform="translate(-422 -3105)" fill="#A4193B"><g id="Group-4" transform="translate(422 3105)"><path id="Fill-401" d="M54 75h4V65h-4z"/><path d="M54.524 68h-7.81C40.254 68 35 62.746 35 56.286c0-4.432 2.044-7.085 3.971-8.774a6.7 6.7 0 01-.066-.988c0-4.764 3.428-8.739 7.944-9.592.863-5.617 5.726-9.932 11.58-9.932 6.46 0 11.714 5.254 11.714 11.714 0 .432-.03.842-.072 1.217C73.683 41.37 76 44.614 76 48.476a9.761 9.761 0 01-3.436 7.435l-2.532-2.972a5.864 5.864 0 002.063-4.463c0-3.186-2.415-4.814-4.676-5.277l-2.138-.437.672-2.076c0-.002.285-.92.285-1.972 0-4.307-3.502-7.81-7.81-7.81-4.306 0-7.809 3.503-7.809 7.81v1.953h-1.952a5.864 5.864 0 00-5.857 5.857c0 .39.021.464.164.947l.443 1.525-1.074.81c-2.411 1.814-3.438 3.754-3.438 6.48 0 4.307 3.502 7.81 7.81 7.81h7.809V68" id="Fill-402"/><path d="M69.31 67H52v-3.75h17.31c2.12 0 3.845-1.684 3.845-3.75 0-2.068-1.725-3.75-3.846-3.75a3.87 3.87 0 00-3.355 1.916l-3.353-1.837C63.963 53.466 66.533 52 69.31 52c4.241 0 7.69 3.364 7.69 7.5S73.55 67 69.31 67" id="Fill-403"/><path id="Fill-404" d="M21 52h4V35h-4z"/><path d="M29 36H13.667C9.438 36 6 32.636 6 28.5S9.438 21 13.667 21c2.767 0 5.33 1.466 6.687 3.829l-3.343 1.837a3.856 3.856 0 00-3.344-1.916c-2.114 0-3.834 1.682-3.834 3.75 0 2.066 1.72 3.75 3.834 3.75H29V36" id="Fill-405"/><path d="M32.306 37h-4.854v-3.895h4.854c3.752 0 6.805-3.057 6.805-6.816a6.854 6.854 0 00-3.893-6.163l-2.177-1.034 1.472-1.914c.011-.02.71-1.003.71-2.573a4.869 4.869 0 00-4.862-4.868h-2.607l-.28-1.613c-.368-2.105-2.023-4.23-4.89-4.23a4.869 4.869 0 00-4.786 5.716l.319 1.802-1.775.436a5.821 5.821 0 00-4.453 5.678c0 1.724.754 3.352 2.069 4.464l-2.51 2.973A9.719 9.719 0 018 17.526c0-3.94 2.33-7.41 5.835-8.93C13.925 3.842 17.814 0 22.583 0c3.817 0 7.037 2.339 8.301 5.858 4.581.27 8.227 4.09 8.227 8.747 0 1.2-.233 2.22-.521 3.02A10.771 10.771 0 0143 26.29C43 32.194 38.201 37 32.306 37" id="Fill-406"/><path id="Fill-407" d="M19 112h4V97h-4z"/><path d="M7.504 82A51.06 51.06 0 000 81.448V77c2.682 0 5.374.198 8 .587L7.504 82" id="Fill-408"/><path d="M47 112h-4.32c0-3.83-.902-7.585-2.68-11.163L43.886 99c2.066 4.157 3.114 8.528 3.114 13" id="Fill-409"/><path d="M17.07 66A67.38 67.38 0 000 63.805V60c6.087 0 12.143.778 18 2.315L17.07 66" id="Fill-410"/><path d="M48.211 84A54.212 54.212 0 0042 78.043L44.352 75A58.118 58.118 0 0151 81.377L48.211 84" id="Fill-411"/><path d="M55.186 93A46.975 46.975 0 0052 88.321L55.547 86A50.83 50.83 0 0159 91.08L55.186 93" id="Fill-412"/><path d="M64 112h-4.126c0-4.637-.968-9.229-2.874-13.643L60.846 97c2.092 4.85 3.154 9.897 3.154 15" id="Fill-413"/><path d="M22.92 47C14.74 44.789 7.029 43.67 0 43.67V40c7.394 0 15.47 1.169 24 3.473L22.92 47" id="Fill-414"/><path d="M37.17 53c-1.354-.68-4.309-1.955-8.17-3.307L30.346 46c4.046 1.414 7.19 2.775 8.654 3.51L37.17 53" id="Fill-415"/><path d="M81 110h-3.812c0-11.749-5.678-25.762-15.188-37.481L64.926 70C75.143 82.59 81 97.17 81 110" id="Fill-416"/><path d="M76.089 96L74 92.483C83.757 86.19 97.214 83 114 83v4.136c-15.812 0-28.92 3.064-37.911 8.864" id="Fill-417"/><path d="M69.353 80L67 77.02C76.353 70.16 86.987 64 114 64v3.743c-25.802 0-35.843 5.798-44.647 12.257" id="Fill-418"/><path d="M79.604 56L78 52.378C87.538 48.146 99.651 46 114 46v3.963c-13.795 0-25.366 2.03-34.396 6.037" id="Fill-419"/><path id="Fill-420" d="M106 48h4V33h-4z"/><path id="Fill-421" d="M83 52h4V33h-4z"/><path d="M96.422 19.736L80.9 31.196l31.204.002-15.682-11.462zM112.1 35H80.9c-2.15 0-3.9-1.707-3.9-3.802 0-1.19.583-2.33 1.56-3.044l15.602-11.407c1.306-.956 3.178-.998 4.522-.106l15.754 11.513A3.787 3.787 0 01116 31.198c0 2.095-1.75 3.802-3.9 3.802z" id="Fill-422"/><path d="M95 50h-4v-8c0-2.206 1.794-4 4-4h4c2.206 0 4 1.794 4 4v6.74h-4V42h-4v8" id="Fill-423"/><path d="M27 98H11.667C7.439 98 4 94.636 4 90.5S7.439 83 11.667 83c2.767 0 5.33 1.466 6.687 3.829l-3.343 1.837a3.856 3.856 0 00-3.344-1.916c-2.114 0-3.834 1.682-3.834 3.75s1.72 3.75 3.834 3.75H27V98" id="Fill-424"/><path d="M30.306 99h-4.862v-3.895h4.862c3.752 0 6.805-3.057 6.805-6.816a6.854 6.854 0 00-3.893-6.163l-2.177-1.034 1.472-1.914c.011-.02.71-1.003.71-2.573a4.869 4.869 0 00-4.862-4.868h-2.607l-.28-1.613c-.368-2.105-2.023-4.23-4.89-4.23a4.869 4.869 0 00-4.786 5.716l.319 1.802-1.775.436a5.821 5.821 0 00-4.453 5.678c0 1.724.754 3.352 2.069 4.464l-2.51 2.973A9.719 9.719 0 016 79.526c0-3.94 2.33-7.41 5.835-8.93.09-4.754 3.979-8.596 8.748-8.596 3.817 0 7.037 2.339 8.301 5.858 4.581.27 8.227 4.09 8.227 8.747 0 1.2-.233 2.22-.521 3.02A10.771 10.771 0 0141 88.29C41 94.194 36.201 99 30.306 99" id="Fill-425"/></g></g></g></svg>