<svg width="111" height="108" xmlns="http://www.w3.org/2000/svg"><g id="Page-1" stroke="none" stroke-width="1" fill="none" fill-rule="evenodd"><g id="WE-are-ready" transform="translate(-1434 -854)" fill="#A4193B"><g id="Group-5" transform="translate(1434 854)"><path d="M99.9 87.517c-2.455 0-3.91-.734-8.233-2.908-.236-.122-.49-.248-.743-.377l8.343-2.687a6.519 6.519 0 004.333-6.131c0-2.903-1.907-5.339-4.518-6.179l-1.648-9.955-3.65.611 1.534 9.264c-14.911 3.07-21.799 4.491-24.98 5.147l2.378-14.41-3.65-.612-3.256 19.765 2.644-.553c.32-.066 28.234-5.82 28.23-5.821.145-.02.29-.05.441-.05a2.788 2.788 0 012.775 2.793c0 1.17-.747 2.223-1.811 2.6L70.333 86.96c-1.278.317-2.35.557-3.544.557-1.306 0-2.548-.367-3.652-1.002.995-1.268 1.613-2.845 1.613-4.584 0-.283-.033-.557-.089-.97l-2.8-21.152.392-2.456c.36-2.257 2.086-4.098 4.299-4.584L76.42 50.6c1.106 2.016 3.715 3.4 6.83 3.4s5.724-1.384 6.83-3.399l9.868 2.168c2.213.486 3.939 2.327 4.3 4.584l.956 5.946c1.569 9.671 2.096 12.93 2.096 18.632 0 3.184-3.182 5.586-7.4 5.586zM83.25 44.69a12.75 12.75 0 003.7-.55v4.274c0 .76-1.441 1.862-3.7 1.862-2.259 0-3.7-1.102-3.7-1.862V44.14c1.173.354 2.414.55 3.7.55zM74 31.655v-5.35c2.059 1 4.525 1.625 7.4 1.625v-3.724c-7.74 0-11.096-5.46-11.1-8.243-.002-1.106.081-1.747 1.042-5.315 2.37 1.74 4.197 2.386 8.208 2.386h5.55c4.081 0 7.4 3.34 7.4 7.448v11.173c0 5.133-4.15 9.31-9.25 9.31S74 36.788 74 31.655zM38.563 91.077l-.743-6.018c.405.17.828.311 1.27.41l14.56 3.255v.832l-15.087 1.521zM50.19 63.481l1.178 9.486-9.06-2.022a7.215 7.215 0 00-1.607-.187c-1.68 0-3.213.589-4.457 1.542l-.904-7.322 14.85-1.497zM36.717 49.98c-.842.587-2.126.168-2.45-.808l-.891-2.696 1.373-5.53c.133.005.266.02.401.02H37v-3.724h-1.85c-4.081 0-7.4-3.34-7.4-7.448v-7.51l21.641 5.087c-2.088 6.054-2.97 7.13-5.183 9.802l-.169.205c-.081.098-.168.19-.253.281-.463.499-1.236 1.333-1.236 2.637v3.638l-5.833 6.046zm-16.358-33.2l.072-.026c2.598-.976 4.56-3.854 5.802-5.925C28.967 6.351 33.7 3.723 38.85 3.723c.544 0 1.093.03 1.645.09 6.824.735 12.32 6.256 13.063 13.127.209 1.931-.228 4.298-1.336 7.272l-31.885-7.419a.082.082 0 01.022-.013zm88.499 45.92l-.959-5.937c-.599-3.756-3.478-6.825-7.163-7.63l-10.086-2.22v-4.577a13.044 13.044 0 005.55-10.681V20.482c0-6.162-4.978-11.172-11.1-11.172h-5.55c-3.965 0-4.721-.524-8.073-3.3l-2.198-1.82-.762 2.758c-1.652 5.989-1.919 7.091-1.917 9.019.004 2.476 1.267 5.424 3.7 7.774v7.914c0 4.416 2.2 8.321 5.55 10.68v4.578l-10.086 2.22c-1.972.43-3.698 1.522-4.982 3.008a7.447 7.447 0 00-4.472-5.08l-10.06-3.677v-2.916c.065-.078.165-.185.242-.27.13-.14.261-.283.389-.436l.17-.205c2.486-3.003 3.593-4.346 6.109-11.77a3.714 3.714 0 002.523-2.292c1.338-3.547 1.832-6.393 1.552-8.959C56.307 7.941 49.432 1.033 40.89.111 33.692-.667 26.86 2.69 23.075 8.89c-1.48 2.463-2.795 3.932-3.913 4.364a3.704 3.704 0 00-2.512 3.503 3.67 3.67 0 002.895 3.597l4.505 1.058v8.38c0 4.73 2.94 8.772 7.073 10.4l-1.268 5.103-7.492 4.022a7.482 7.482 0 00-3.286 3.652l-4.571 11.05-1.367-1.648C11.716 60.6 9.626 59.586 7.4 59.586c-4.081 0-7.4 3.34-7.4 7.448 0 1.654.548 3.233 1.619 4.614l9.29 11.221c1.423 1.771 3.514 2.786 5.741 2.786 2.997 0 5.678-1.799 6.79-4.486l.61-1.264V108h3.7V67.034h-3.7v4.357l-3.981 8.248a3.695 3.695 0 01-3.419 2.292c-1.104 0-2.146-.51-2.879-1.425L4.5 69.31a3.693 3.693 0 01-.799-2.276c0-2.054 1.66-3.724 3.7-3.724 1.103 0 2.144.51 2.879 1.426l6.802 8.195 2.842-2.389-2.742-3.303 5.308-12.826a3.73 3.73 0 011.63-1.816l6.27-3.366.37 1.12A5.302 5.302 0 0035.79 54a5.302 5.302 0 003.312-1.17l5.788-5.98L55 50.544a3.7 3.7 0 012.288 2.916l3.728 28.151c.015.107.035.209.035.319 0 2.054-1.66 3.724-3.7 3.724a3.61 3.61 0 01-.803-.097l-16.654-3.726c-1.676-.374-2.893-1.9-2.893-3.625 0-2.054 1.66-3.724 3.7-3.724.25 0 .512.033.807.098l15.012 3.35.801-3.638-2.118-.472-1.79-14.406-22.215 2.238 4.14 33.493 18.313-1.847V108h3.7V89.38c.925 0 1.802-.193 2.618-.505a10.972 10.972 0 006.632 2.357v14.906h3.7V90.79c.339-.077.68-.159 1.038-.248l14.51-4.676c1.622.792 2.995 1.483 4.164 2.07 2.721 1.371 4.504 2.26 6.188 2.77v15.43h3.7V91.242c6.329 0 11.1-4.001 11.1-9.31 0-6.004-.54-9.337-2.142-19.232z" id="Fill-1"/><path d="M44.824 9L43 12.17c2.145 1.048 3.718 2.852 4.206 4.83L51 16.206C50.264 13.22 47.954 10.53 44.824 9" id="Fill-3"/></g></g></g></svg>