<svg width="114" height="111" xmlns="http://www.w3.org/2000/svg" xmlns:xlink="http://www.w3.org/1999/xlink"><defs><path id="path-1" d="M0 111h114V0H0z"/></defs><g id="Page-1" stroke="none" stroke-width="1" fill="none" fill-rule="evenodd"><g id="Index" transform="translate(-1383 -3105)"><g id="Group-14" transform="translate(1383 3105)"><path d="M84.85 58.534a4 4 0 00-.744 3.38L86.004 70H86l.002.002-7.75-5.308a4.005 4.005 0 00-4.512.004l-7.74 5.3 1.892-8.074c.072-.298.108-.608.108-.924 0-.888-.302-1.764-.856-2.472L62 52h6.996c1.61 0 3.056-.956 3.676-2.416L76 42.002l3.32 7.562A3.996 3.996 0 0083.004 52l7-.004-5.154 6.538zM90 48l-7.008-.024-3.328-7.58a4 4 0 00-7.328-.002L68.996 48H62c-2.204 0-4 1.796-4 4 0 .89.304 1.766.856 2.474L64 61l-1.892 8.08a4.005 4.005 0 006.152 4.224l7.738-5.306 7.75 5.31a4.004 4.004 0 006.146-4.224l-1.898-8.08 5.154-6.536c.548-.702.85-1.578.85-2.468 0-2.204-1.794-4-4-4z" id="Fill-1" fill="#A4193B"/><mask id="mask-2" fill="#fff"><use xlink:href="#path-1"/></mask><path id="Fill-3" fill="#A4193B" mask="url(#mask-2)" d="M12 96h4V74h-4z"/><path d="M22.106 61.358l-6.976-6.96c.926-.194 1.886-.3 2.87-.3h3.262l4.666 3.991-3.822 3.269zM18 32.15v-9.976c0-9.977 6.022-9.977 8-9.977h7c3.96 0 7.476-1.684 10.31-4.912.386.932.69 1.971.69 2.917 0 3.859-1.628 9.976-6 9.976h-2v3.991h2c.706 0 1.368-.096 2-.25v8.231c0 5.501-4.486 9.977-10 9.977h-2v3.99h2c1.392 0 2.73-.21 4-.588v5.658l-5 4.276-5-4.276V40.976l-.998-.577C19.776 38.539 18 35.61 18 32.15zm24.014 27.84l-3.074-2.55-3.178 3.805-3.69-3.155 4.666-3.99H44v-3.991h-6v-6.51c3.622-2.529 6-6.715 6-11.448V21.625c2.642-2.664 4-7.057 4-11.423 0-3.721-2.518-7.363-2.808-7.766L43.456 0l-1.588 2.536C39.51 6.299 36.526 8.206 33 8.206h-7c-7.626 0-12 5.093-12 13.968v9.976c0 4.496 2.172 8.474 6 11.078v6.88h-2c-9.926 0-18 8.055-18 17.958V96h4V68.066c0-5.172 2.84-9.687 7.042-12.102l10.854 10.83L29 60.718l7.238 6.19 5.776-6.916z" id="Fill-5" fill="#A4193B" mask="url(#mask-2)"/><path d="M88 78.735L90.118 82A29.92 29.92 0 0095 78.81L92.187 76A25.59 25.59 0 0188 78.735" id="Fill-6" fill="#A4193B" mask="url(#mask-2)"/><path d="M57.917 91.66H46.155l9.499-15.28c4.17 4.666 9.872 7.906 16.32 8.932l-10.892 15.853-3.165-9.506zm25.787-6.95l-1.053-3.84a23.784 23.784 0 01-6.298.844c-13.147 0-23.842-10.707-23.842-23.868 0-13.161 10.695-23.868 23.842-23.868a23.875 23.875 0 0117.699 7.875L97 39.183A27.865 27.865 0 0076.353 30c-15.337 0-27.816 12.491-27.816 27.846a27.671 27.671 0 004.526 15.176L39 95.637h16.054L59.836 110 76.54 85.686a27.848 27.848 0 007.165-.976z" id="Fill-7" fill="#A4193B" mask="url(#mask-2)"/><path d="M98.534 51L102 49.614A32.146 32.146 0 00100.211 45L97 47.047A27.506 27.506 0 0198.534 51" id="Fill-8" fill="#A4193B" mask="url(#mask-2)"/><path d="M99.78 73.92a27.588 27.588 0 004.564-15.257c0-1.224-.08-2.455-.243-3.663l-3.987.517c.137 1.038.207 2.096.207 3.146 0 5.078-1.583 9.932-4.574 14.032l-.793 1.087 11.802 18.813H94.848l-3.205 9.54-8.328-12.013L80 92.383 92.904 111l4.842-14.413H114L99.78 73.92z" id="Fill-9" fill="#A4193B" mask="url(#mask-2)"/><path id="Fill-10" fill="#A4193B" mask="url(#mask-2)" d="M82 20h4V8h-4z"/><path id="Fill-11" fill="#A4193B" mask="url(#mask-2)" d="M104 18.808L101.192 16 93 24.192 95.808 27z"/><path id="Fill-12" fill="#A4193B" mask="url(#mask-2)" d="M82 4h4V0h-4z"/><path id="Fill-13" fill="#A4193B" mask="url(#mask-2)" d="M113 10.786L110.214 8 106 12.214 108.786 15z"/></g></g></g></svg>