<svg width="108" height="106" xmlns="http://www.w3.org/2000/svg" xmlns:xlink="http://www.w3.org/1999/xlink"><defs><path id="path-1" d="M0 .438h98.623v103.448H0z"/><path id="path-3" d="M97.11 84.21h10.63V106H97.11z"/><path id="path-5" d="M0 107h108V1H0z"/></defs><g id="Page-1" stroke="none" stroke-width="1" fill="none" fill-rule="evenodd"><g id="WE-are-ready" transform="translate(-1086 -855)"><g id="Group-9" transform="translate(1086 855)"><mask id="mask-2" fill="#fff"><use xlink:href="#path-1"/></mask><path d="M94.335 60.783H79.327v-1.328l7.504-8.381 7.504 8.38v1.329zm0 25.862h-10.72v4.31h10.634c-.523 3.65-3.646 6.466-7.418 6.466-4.137 0-7.504-3.384-7.504-7.543V65.093h15.008v21.552zM42.88 19.835h19.295v-4.31H42.88v4.31zM23.584 56.471h4.287V37.076h-4.287v19.396zM42.88 78.024h19.295v-4.31H42.88v4.31zm33.258-21.453a4.331 4.331 0 00-1.099 2.884v18.57h-8.576v-4.311c0-2.376-1.924-4.31-4.288-4.31H42.88c-2.364 0-4.288 1.934-4.288 4.31v4.31H23.584V60.783h4.287c2.364 0 4.289-1.934 4.289-4.31V37.075c0-2.377-1.925-4.31-4.289-4.31h-4.287V15.523h15.008v4.31c0 2.377 1.924 4.311 4.288 4.311h19.295c2.364 0 4.288-1.934 4.288-4.31v-4.31h10.72v30.172h4.288V15.524c0-2.376-1.924-4.31-4.288-4.31h-53.6c-2.363 0-4.287 1.934-4.287 4.31v62.5c0 2.377 1.924 4.31 4.288 4.31h51.455V88.8H15.01V21.99h-2.145c-4.73 0-8.576-3.867-8.576-8.621 0-4.754 3.846-8.62 8.576-8.62h77.183v43.473l-3.216-3.593-10.693 11.942zM10.72 99.576c-3.547 0-6.432-2.9-6.432-6.466V22.998a12.801 12.801 0 006.432 3.123v73.455zm87.903-40.121c0-1.065-.392-2.09-1.101-2.884l-3.187-3.56V.439H12.864C5.77.438 0 6.238 0 13.368V93.11c0 5.941 4.81 10.776 10.72 10.776h4.288V93.11h60.48c1.405 4.969 5.957 8.621 11.343 8.621 6.5 0 11.792-5.319 11.792-11.853V59.455z" id="Fill-1" fill="#A4193B" mask="url(#mask-2)"/><mask id="mask-4" fill="#fff"><use xlink:href="#path-3"/></mask><path d="M103.672 89.498c0 5.183-2.453 10.055-6.561 13.031L99.435 106c5.2-3.766 8.305-9.935 8.305-16.502V84.21h-4.068v5.288z" id="Fill-4" fill="#A4193B" mask="url(#mask-4)"/><mask id="mask-6" fill="#fff"><use xlink:href="#path-5"/></mask><path id="Fill-7" fill="#A4193B" mask="url(#mask-6)" d="M103 80h4v-4h-4z"/></g></g></g></svg>