<svg width="153" height="119" xmlns="http://www.w3.org/2000/svg" xmlns:xlink="http://www.w3.org/1999/xlink"><defs><path id="path-1" d="M0 .195h148.98V27H0z"/><path id="path-3" d="M.343.237h3.534v3.534H.343z"/><path id="path-5" d="M.196.11h49.79V49.9H.196z"/></defs><g id="Page-1" stroke="none" stroke-width="1" fill="none" fill-rule="evenodd"><g id="Index" transform="translate(-926 -4108)"><g id="Group-14" transform="translate(926 4108)"><g id="Group-3" transform="translate(0 92)"><mask id="mask-2" fill="#fff"><use xlink:href="#path-1"/></mask><path d="M130.181.235c1.456 0 2.708.87 3.265 2.115.428.96.462 2.182.202 3.202-.4 1.572-1.727 3.107-4.525 4.565l-.772-1.043c.547-.455 1.11-.925 1.337-1.269.407-.614-.124-.463-.572-.603a3.566 3.566 0 01-2.507-3.402c0-1.969 1.6-3.565 3.572-3.565zm-11.412 13.99a3.356 3.356 0 013.36 3.352 3.356 3.356 0 01-3.36 3.353 3.356 3.356 0 01-3.36-3.353 3.356 3.356 0 013.36-3.353zm0-6.07c5.215 0 9.443 4.218 9.443 9.422 0 5.204-4.228 9.423-9.443 9.423s-9.444-4.219-9.444-9.423 4.229-9.423 9.444-9.423zM7.39 20.437V8.721h3.023c.96 0 1.78.06 2.46.181.678.12 1.232.306 1.656.557a5.501 5.501 0 012.072 2.12c.48.88.719 1.882.719 3.008 0 1.123-.24 2.12-.717 2.994-.477.874-1.168 1.582-2.074 2.12-.438.257-.998.445-1.674.562-.676.118-1.584.175-2.718.175H7.39zM0 27V2.16h7.402c2.349 0 4.36.127 6.02.382 1.661.255 3.019.649 4.057 1.181 2.207 1.13 3.891 2.63 5.071 4.495 1.175 1.865 1.762 3.99 1.762 6.376 0 2.38-.587 4.495-1.756 6.348-1.168 1.853-2.858 3.353-5.077 4.494-1.073.545-2.444.944-4.098 1.193-1.655.249-3.88.371-6.655.371H0zm35.394-12.776a3.356 3.356 0 013.36 3.353 3.356 3.356 0 01-3.36 3.353 3.356 3.356 0 01-3.36-3.353 3.356 3.356 0 013.36-3.353zm0-6.07c5.215 0 9.443 4.219 9.443 9.423S40.61 27 35.394 27c-5.216 0-9.444-4.219-9.444-9.423s4.228-9.423 9.444-9.423zM46.934 27V9.457h6.4v2.462c1.917-3.193 9.31-4.751 11.433.2 3.016-4.498 11.84-4.293 11.838 1.82L76.598 27h-6.785v-9.597c0-2.579-.44-2.825-2.612-2.73-1.777.08-2.181 1.55-2.189 3.219L64.97 27h-6.382l-.071-8.82c-.028-3.528-.804-3.828-2.542-3.665-1.721.162-2.473.4-2.473 3.664V27h-6.569zm32.423 0h6.65V9.142h-6.65V27zm9.665 0V9.457h6.4v2.462c2.483-4.11 12.14-4.172 12.14 2.247L107.565 27h-6.382l-.07-8.82c-.03-3.528-1.314-3.86-3.048-3.665-1.438.162-2.726.683-2.726 3.664V27h-6.316zm43.246-13.324c.187-6.157 10.1-6.718 15.845-3.247l-2.122 4.164c-1.978-1.372-3.692-2.012-5.87-1.835-2.069.169-2.291 2.414 1.06 2.33 5.234-.133 8.06 2.613 7.781 6.14-.448 5.697-9.441 8.03-17.33 3.035l2.9-4.235c2.193 1.258 4.379 2.38 6.579 2.118 2.283-.273 3.435-2.11-.637-2.541-5.546-.587-8.314-2.354-8.206-5.929zM82.681.195a3.674 3.674 0 013.679 3.67 3.674 3.674 0 01-3.679 3.67 3.674 3.674 0 01-3.678-3.67 3.674 3.674 0 013.678-3.67z" id="Fill-1" fill="#0073AD" mask="url(#mask-2)"/></g><g id="Group-6" transform="translate(149 100)"><mask id="mask-4" fill="#fff"><use xlink:href="#path-3"/></mask><path d="M1.643 1.912h.373c.177 0 .299-.027.363-.08a.26.26 0 00.098-.211.259.259 0 00-.047-.15.278.278 0 00-.13-.1.967.967 0 00-.309-.033h-.348v.574zm-.307 1.07V1.08h.653c.224 0 .386.017.485.052.1.035.18.097.24.184a.506.506 0 01-.06.642.59.59 0 01-.395.173.488.488 0 01.16.101c.078.075.171.2.282.377l.232.372h-.375l-.168-.3c-.133-.235-.239-.383-.321-.442a.394.394 0 00-.246-.066h-.18v.808h-.307zM2.11.53c-.248 0-.49.064-.725.191s-.418.31-.551.546a1.493 1.493 0 00-.2.739c0 .254.066.498.197.731.13.234.312.416.547.546.234.13.478.196.732.196.255 0 .5-.066.734-.196.234-.13.415-.312.544-.546a1.48 1.48 0 00-.003-1.471 1.36 1.36 0 00-.551-.545 1.51 1.51 0 00-.724-.19zm0-.293c.297 0 .586.076.87.228.282.153.502.37.66.654a1.8 1.8 0 01.236.887c0 .304-.077.597-.233.877-.155.282-.373.5-.653.655a1.777 1.777 0 01-1.758 0 1.64 1.64 0 01-.656-.655A1.773 1.773 0 01.581 1.12a1.63 1.63 0 01.662-.654 1.81 1.81 0 01.868-.228z" id="Fill-4" fill="#0073AD" mask="url(#mask-4)"/></g><g id="Group-9" transform="translate(63)"><mask id="mask-6" fill="#fff"><use xlink:href="#path-5"/></mask><path d="M21.177 20.032a6.284 6.284 0 118.872 8.903 6.284 6.284 0 01-8.872-8.903zM.196 24.172L23.61.839a2.522 2.522 0 013.555.007l22.09 22.167a2.52 2.52 0 01-.005 3.555L25.835 49.901.196 24.172z" id="Fill-7" fill="#E51E29" mask="url(#mask-6)"/></g><path d="M38.725 48.962L61.767 26 87 51.32 63.957 74.282a2.481 2.481 0 01-3.499-.007L38.718 52.46a2.48 2.48 0 01.007-3.498m9.843-2.3a6.185 6.185 0 118.731 8.761 6.185 6.185 0 01-8.73-8.762m18.104-.056a6.184 6.184 0 118.731 8.76 6.184 6.184 0 01-8.73-8.76" id="Fill-10" fill="#0073AD"/><path d="M74.4 76v-4h.9l.924 3.194.894-3.194H78v4h-.558v-3.357L76.499 76h-.552l-.985-3.405V76h-.561zm-2.213 0v-3.405H71V72h2.992v.595h-1.195V76h-.61z" id="Fill-12" fill="#0073AD"/></g></g></g></svg>