<svg width="219" height="50" xmlns="http://www.w3.org/2000/svg" xmlns:xlink="http://www.w3.org/1999/xlink"><defs><path id="path-1" d="M.227.158h8.438V10H.227z"/><path id="path-3" d="M.343.157h8.433V10H.343z"/><path id="path-5" d="M.249.055h5.706V5.93H.25z"/></defs><g id="Page-1" stroke="none" stroke-width="1" fill="none" fill-rule="evenodd"><g id="Index" transform="translate(-1196 -4148)"><g id="Group-74" transform="translate(1196 4148)"><path d="M8.993 40S7.175 45.004 7 45.482L4.99 40H2v9h1.67v-7.231C4.016 42.722 6.268 49 6.268 49h1.09l2.598-7.231V49H12v-9H8.993z" id="Fill-1" fill="#050200"/><path d="M19.574 45.446H17c.078-.219 1.128-3.12 1.285-3.554.159.435 1.21 3.335 1.289 3.554zM19.566 40h-2.248L14 49h1.71l.78-2.102h3.622L20.89 49H23l-3.365-9h-.07z" id="Fill-3" fill="#050200"/><path d="M32.635 40h-2.038l-3.314 4.013-.098.126-.211.294V40H25v9h1.974v-2.295a1207 1207 0 001.781-2.11C28.882 44.865 30.8 49 30.8 49H33s-2.744-5.903-2.788-6.001c.066-.084 2.423-2.999 2.423-2.999" id="Fill-5" fill="#050200"/><path id="Fill-7" fill="#050200" d="M35 40v9h2v-9h-.1z"/><path d="M45.53 40v5.972a17.24 17.24 0 00-.124-.235l-.276-.5L41.945 40H40v9h1.498v-6.294l.071.139c-.002 0 .248.482.248.482L45.367 49H47v-9h-1.469z" id="Fill-9" fill="#050200"/><g id="Group-13" transform="translate(49 40)"><mask id="mask-2" fill="#fff"><use xlink:href="#path-1"/></mask><path d="M4.639 6.432h2.087c-.014.565-.21 1.066-.57 1.42-.383.365-.893.558-1.49.558-1.527 0-2.302-1.155-2.302-3.436 0-1.156.209-1.894.697-2.478.373-.454.99-.736 1.606-.736.685 0 1.265.243 1.638.678.202.24.303.464.437.961l.023.085 1.8-.285-.024-.102c-.208-.812-.425-1.229-.892-1.715C6.885.548 5.937.158 4.667.158c-1.416 0-2.53.495-3.306 1.468C.619 2.56.227 3.754.227 5.086c0 1.253.385 2.503 1.055 3.44.715.98 1.779 1.475 3.156 1.475 1.229 0 2.073-.418 2.727-1.314l.523 1.173h.977V4.875H4.64v1.557z" id="Fill-11" fill="#050200" mask="url(#mask-2)"/></g><path d="M70.424 44.112l-1.646-.402c-.865-.214-1.27-.551-1.27-1.055 0-.64.62-1.067 1.548-1.067.927 0 1.472.314 1.716 1l.03.085 1.83-.441-.028-.106c-.173-.583-.383-.901-.841-1.277-.696-.538-1.659-.849-2.647-.849-2.177 0-3.58 1.144-3.58 2.913 0 .62.175 1.177.523 1.657.389.53.872.796 1.935 1.077l1.848.474c.77.198 1.127.526 1.127 1.023 0 .81-.672 1.27-1.837 1.27-.57 0-1.183-.137-1.527-.342-.4-.23-.555-.453-.707-.995l-.027-.089-1.871.4.032.105c.252.787.506 1.18 1.004 1.585.8.627 1.781.922 3.096.922C71.446 50 73 48.752 73 46.89c0-.525-.147-1.042-.42-1.493-.41-.628-1.056-1.016-2.156-1.285" id="Fill-14" fill="#050200"/><path id="Fill-16" fill="#050200" d="M77.093 45.168h3.888v-1.472h-3.888v-2.202h4.843V40H75v9h7v-1.546h-4.907z"/><path d="M89.53 40v5.972a17.24 17.24 0 00-.124-.235l-.275-.5L85.946 40H84v9h1.498v-6.294c.005.006.072.139.072.139-.003 0 .248.482.248.482L89.368 49H91v-9h-1.47z" id="Fill-18" fill="#050200"/><path d="M98.424 44.112l-1.648-.402c-.863-.214-1.27-.551-1.27-1.055 0-.64.624-1.067 1.55-1.067s1.471.314 1.715 1l.03.085 1.834-.441-.03-.106c-.175-.579-.384-.901-.84-1.277-.697-.538-1.662-.849-2.65-.849-2.175 0-3.58 1.144-3.58 2.913 0 .62.175 1.177.527 1.657.384.53.87.796 1.93 1.077l1.851.474c.77.198 1.124.526 1.124 1.023 0 .81-.668 1.27-1.838 1.27-.565 0-1.178-.137-1.528-.342-.394-.23-.553-.453-.704-.995l-.025-.089-1.872.4.033.105c.25.787.505 1.18 1.002 1.585.797.627 1.78.922 3.094.922 2.316 0 3.871-1.248 3.871-3.11a2.87 2.87 0 00-.42-1.493c-.413-.628-1.054-1.016-2.156-1.285" id="Fill-20" fill="#050200"/><path id="Fill-22" fill="#050200" d="M105.091 45.168h3.886v-1.472h-3.886v-2.202h4.845V40H103v9h7v-1.546h-4.909z"/><path d="M122.324 47.375c-.345.63-1.067 1.04-1.846 1.04-1.864 0-2.248-1.873-2.248-3.449 0-.936.193-1.853.527-2.45.312-.571.972-.928 1.72-.928.863 0 1.434.312 1.8.984.325.59.5 1.45.5 2.492 0 .976-.151 1.732-.453 2.31M120.491 40c-2.603 0-4.491 2.094-4.491 4.979 0 1.384.404 2.615 1.172 3.569.745.938 1.914 1.452 3.287 1.452 2.717 0 4.541-1.976 4.541-4.921 0-3.086-1.768-5.079-4.51-5.079" id="Fill-24" fill="#050200"/><path id="Fill-26" fill="#050200" d="M127 40v9h1.884v-3.715h3.246V43.78h-3.246v-2.235H133V40h-.092z"/><path id="Fill-28" fill="#050200" d="M139 40v9h2v-9h-.098z"/><path d="M150.529 40v5.972c-.06-.12-.125-.235-.125-.235 0-.006-.272-.5-.272-.5L146.942 40H145v9h1.496v-6.294l.072.139c-.003 0 .243.482.243.482.004 0 3.557 5.673 3.557 5.673H152v-9h-1.471z" id="Fill-30" fill="#050200"/><path d="M160.353 40l-2.182 6.536c-.172-.52-2.132-6.536-2.132-6.536H154l3.034 9h1.903L162 40h-1.647z" id="Fill-32" fill="#050200"/><path id="Fill-34" fill="#050200" d="M165.092 45.168h3.89v-1.472h-3.89v-2.202h4.846V40H163v9h7v-1.546h-4.908z"/><path d="M176.422 44.112l-1.647-.402c-.865-.214-1.27-.551-1.27-1.055 0-.64.62-1.067 1.552-1.067.924 0 1.47.314 1.714 1l.03.085 1.834-.441-.028-.106c-.173-.579-.383-.901-.844-1.277-.697-.538-1.658-.849-2.652-.849-2.177 0-3.578 1.144-3.578 2.913 0 .62.177 1.177.524 1.657.385.53.87.796 1.931 1.077l1.853.474c.766.198 1.128.526 1.128 1.023 0 .81-.675 1.27-1.841 1.27-.565 0-1.181-.137-1.53-.342-.393-.23-.552-.453-.704-.995l-.024-.089-1.87.4.03.105c.251.787.503 1.186 1 1.585.8.627 1.785.922 3.098.922 2.317 0 3.872-1.248 3.872-3.11a2.86 2.86 0 00-.421-1.493c-.412-.628-1.053-1.016-2.157-1.285" id="Fill-36" fill="#050200"/><path id="Fill-38" fill="#050200" d="M181 40v1.546h2.5V49h2.005v-7.454H188V40h-.097z"/><path id="Fill-40" fill="#050200" d="M190 40v9h2v-9h-.097z"/><path d="M200.53 40v5.972l-.121-.235c-.007-.006-.28-.5-.28-.5L196.945 40H195v9h1.499v-6.294c.002.013.069.139.069.139l.25.482L200.373 49H202v-9h-1.471z" id="Fill-42" fill="#050200"/><g id="Group-46" transform="translate(204 40)"><mask id="mask-4" fill="#fff"><use xlink:href="#path-3"/></mask><path d="M4.76 4.874v1.558h2.082c-.016.564-.21 1.065-.575 1.419-.375.367-.891.559-1.482.559-1.531 0-2.301-1.154-2.301-3.436 0-1.157.202-1.898.691-2.479.372-.453.99-.735 1.61-.735.68 0 1.263.243 1.636.677.2.24.3.465.44.962l.021.086L8.683 3.2l-.028-.102c-.207-.813-.423-1.23-.892-1.716C6.995.547 6.052.157 4.785.157c-1.416 0-2.534.496-3.31 1.47C.731 2.56.343 3.754.343 5.087c0 1.252.383 2.503 1.05 3.439.72.98 1.782 1.474 3.162 1.474 1.23 0 2.07-.417 2.72-1.313.108.234.526 1.173.526 1.173h.975V4.874H4.76z" id="Fill-44" fill="#050200" mask="url(#mask-4)"/></g><path d="M130 28.235c0 4.444-3.47 5.765-8.086 5.765-1.553 0-1.855-.151-2.914-.3v-4.91c.492.103.98.178 1.508.178 2.736 0 2.904-1.312 2.904-3.384V2H130v26.235z" id="Fill-47" fill="#050200"/><path d="M142.498 26.12c1.682 0 2.439-1.365 2.439-6.2 0-4.414-.506-6.046-2.439-6.046s-2.432 1.632-2.432 6.046c0 4.835.752 6.2 2.432 6.2m0-16.12c6.348 0 9.502 4.22 9.502 9.92 0 5.93-3.025 10.08-9.502 10.08-6.472 0-9.498-4.15-9.498-10.08 0-5.7 3.152-9.92 9.498-9.92" id="Fill-49" fill="#050200"/><path d="M155 10.441h7.042v2.478h.086c1.478-1.888 3.697-2.919 6.216-2.919 2.829 0 4.656 1.62 4.656 4.178V29h-7.046V15.878c0-1-.395-1.664-1.694-1.664-.74 0-1.347.259-1.83.768l-.388.455V29H155V10.441z" id="Fill-51" fill="#050200"/><path d="M188.763 17.72c-.044-1.785-.202-3.845-2.534-3.845-1.915 0-2.495 2.06-2.495 3.846h5.029zm-5.029 3.649c0 1.671.368 4.524 3.034 4.524a3.496 3.496 0 003.406-2.622l4.534 1.516c-.29.875-2.374 5.213-8.355 5.213C179.91 30 177 25.245 177 19.96c0-5.396 3.083-9.96 9.27-9.96 6.478 0 8.73 5.095 8.73 10.075v1.294h-11.266z" id="Fill-53" fill="#050200"/><path d="M209.669 16.307c-.66-1.136-1.576-2.432-3.324-2.432-1.43 0-2.095.607-2.095 1.22 0 3.082 10.75 2.088 10.75 8.403 0 4.109-3.58 6.502-8.78 6.502-4.896 0-8.079-2.277-9.22-5.398l5.417-1.489c.831 1.447 1.744 2.78 3.803 2.78 1.31 0 2.22-.57 2.22-1.41 0-3.187-10.744-1.935-10.744-8.548 0-2.02 2.267-5.935 8.524-5.935 3.534 0 7.12 1.442 8.383 5.171l-4.934 1.136z" id="Fill-55" fill="#050200"/><g id="Group-59" transform="translate(213)"><mask id="mask-6" fill="#fff"><use xlink:href="#path-5"/></mask><path d="M.564 2.992C.564 1.549 1.7.375 3.098.375c1.41 0 2.545 1.174 2.545 2.617 0 1.445-1.134 2.616-2.545 2.616-1.397 0-2.534-1.171-2.534-2.616m-.315 0c0 1.62 1.284 2.939 2.85 2.939 1.58 0 2.857-1.32 2.857-2.94 0-1.617-1.278-2.936-2.858-2.936-1.565 0-2.85 1.319-2.85 2.937" id="Fill-57" fill="#050200" mask="url(#mask-6)"/></g><path d="M215.469 2.415v.875h.465c.266 0 .55-.147.55-.46 0-.401-.442-.415-.55-.415h-.465zm.218-.415c.722 0 .849.053 1.005.221.177.183.249.454.249.683 0 .5-.28.631-.513.736L217 5h-.545l-.453-1.23h-.503V5h-.487L215 2h.687z" id="Fill-60" fill="#050200"/><path d="M20.345 1H.082v1.151h3.465v25.695H0V29h21.211L22 20.045h-.87l-.033.127c-.466 1.836-.971 3.633-2.007 5.323-1.427 2.35-2.706 2.35-6.501 2.35H8.215V15.437h1.07c3.728.041 4.686.67 4.845 5.292l.007.157h.966V9.15h-1l-.008.154c-.124 1.878-.196 2.816-.583 3.502-.732 1.368-2.277 1.403-4.058 1.44h-1.24V2.15h2.977c3.697 0 5.73 0 7.298 2.622 0 .004.86 1.885.86 1.885.003 0 .63 2.29.63 2.29l.126-.012h.734L20.504 1h-.159z" id="Fill-62" fill="#050200"/><path d="M30.27 27.826c-1.937 0-2.447-1.867-2.58-2.98-.124-.975-.162-2.487-.116-4.484 0-.767.016-3.34.189-4.493.317-2.485 1.859-2.754 2.508-2.754 1.751 0 2.77 1.615 3.125 2.31.92 1.68 1.049 3.512 1.049 5.086 0 5.787-2.73 7.315-4.174 7.315zm8.216-.422V1h-6.857v1.132h2.89v12.59c-.575-1-1.968-2.854-4.636-2.854-3.334 0-6.883 3.017-6.883 8.607C23 26.685 27.253 29 29.929 29c2.485 0 3.832-1.515 4.59-2.99v2.529H41v-1.135h-2.514z" id="Fill-64" fill="#050200"/><path d="M66.837 12h-6.222v1.155h2.632c-.117.392-2.843 9.343-3.102 10.201-.283-.795-1.832-5.203-1.832-5.203l-.305-.823L56.096 12H54.42s-3.203 10.315-3.476 11.198c-.26-.753-1.308-3.825-1.308-3.825l-.638-1.836c0-.009-1.324-3.472-1.671-4.382h2.656V12H41v1.155h1.962c.078.209 6.08 15.845 6.08 15.845h1.444s3.184-10.205 3.445-11.032C54.24 18.778 58.168 29 58.168 29h1.525l4.951-15.845H67V12h-.163z" id="Fill-66" fill="#050200"/><path d="M75.536 21.725c-.082 2.04-.185 3.245-1.327 4.358-.23.207-.952.836-2.036.836-1.043 0-2.254-.658-2.254-2.518 0-3.091 3.017-3.818 5.617-3.879v1.203zm5.801 5.091l-.257.228c-.249.224-.584.521-.942.521-.693 0-.723-.665-.723-2.053v-7.994c0-1.493 0-2.783-1.116-3.937C77.295 12.62 75.449 12 73.587 12c-3.896 0-6.517 2.177-6.517 4.216 0 1.116.797 1.96 1.843 1.96 1.187 0 1.924-.936 1.924-1.81 0-.565-.29-.975-.528-1.302l-.272-.53c0-.428 1.254-1.442 2.976-1.442 2.333 0 2.441 1.559 2.52 2.698l.003 3.708c-.834.008-3.137.076-5.093.66-2.825.879-4.443 2.68-4.443 4.93C66 27.428 67.802 29 70.484 29c2.18 0 3.975-1.085 5.05-2.927.087.68.25 1.501 1.057 2.162.603.487 1.449.765 2.322.765 1.674 0 2.592-.918 2.983-1.312l.104-.104-.663-.768z" id="Fill-68" fill="#050200"/><path d="M89.474 14.247l-.682 1.398v-3.29H82v1.163h2.716v14.315h-2.68V29h9.314v-1.167h-2.558v-4.658c.038-2.507.075-4.668 1.171-7.305.79-1.892 1.493-1.918 1.497-1.918.212 0 .227 0 .302.775.137 1.29.892 1.992 2.022 1.992 1.285 0 2.216-.932 2.216-2.218C96 13.05 94.853 12 93.27 12c-1.46 0-2.777.78-3.796 2.247" id="Fill-70" fill="#050200"/><path d="M104.266 27.826c-1.819 0-2.403-1.617-2.573-2.98-.16-1.22-.15-3.115-.12-4.484 0-.77.022-3.341.195-4.493.31-2.485 1.85-2.754 2.498-2.754 1.756 0 2.773 1.615 3.133 2.31.923 1.68 1.05 3.512 1.05 5.086 0 5.787-2.734 7.315-4.183 7.315zm8.23-.422V1h-6.863v1.132h2.891V14.72c-.575-.997-1.968-2.851-4.637-2.851-3.337 0-6.887 3.017-6.887 8.607 0 6.21 4.253 8.525 6.928 8.525 2.485 0 3.834-1.515 4.596-2.99v2.529H115v-1.135h-2.503z" id="Fill-72" fill="#050200"/></g></g></g></svg>