<svg width="20" height="16" xmlns="http://www.w3.org/2000/svg" xmlns:xlink="http://www.w3.org/1999/xlink"><defs><path d="M1196 52h-14c-.551 0-1-.448-1-1v-9.75l7.4 5.55a.995.995 0 001.2 0l7.4-5.55V51c0 .552-.449 1-1 1zm-.667-12L1189 44.75l-6.333-4.75h12.666zm.667-2h-14c-1.654 0-3 1.346-3 3v10c0 1.654 1.346 3 3 3h14c1.654 0 3-1.346 3-3V41c0-1.654-1.346-3-3-3z" id="path-1"/></defs><g id="Page-1" stroke="none" stroke-width="1" fill="none" fill-rule="evenodd"><g id="Index" transform="translate(-1179 -38)"><mask id="mask-2" fill="#fff"><use xlink:href="#path-1"/></mask><use id="email" fill="#000" fill-rule="nonzero" xlink:href="#path-1"/></g></g></svg>