<svg width="60" height="50" xmlns="http://www.w3.org/2000/svg"><g id="Page-1" stroke="none" stroke-width="1" fill="none" fill-rule="evenodd" stroke-linecap="round" stroke-linejoin="round"><g id="WE-are-ready" transform="translate(-1470 -5084)" stroke="#FFE455" stroke-width="2"><g id="Rating,-Five,-Star," transform="translate(1471 5085)"><path d="M46.501 44.793l5.52 3.027c1.073.59 2.329-.363 2.124-1.611l-1.054-6.417 4.465-4.544c.87-.885.39-2.428-.813-2.611l-6.17-.938-2.76-5.845a1.437 1.437 0 00-2.627 0l-2.76 5.845-6.17.938c-1.2.183-1.682 1.726-.813 2.611l4.465 4.544-1.054 6.417c-.204 1.248 1.051 2.204 2.125 1.61l5.52-3.026M28.5 19.79l5.52 3.027c1.073.59 2.33-.363 2.125-1.611l-1.055-6.417 4.466-4.544c.87-.885.39-2.428-.813-2.61l-6.167-.936L29.814.854a1.437 1.437 0 00-2.626 0L24.429 6.7l-6.173.938c-1.2.183-1.682 1.726-.813 2.611l4.466 4.544-1.054 6.417c-.205 1.248 1.051 2.204 2.125 1.61l5.52-3.026M11.501 44.793l5.52 3.027c1.073.59 2.329-.363 2.124-1.611l-1.054-6.417 4.465-4.544c.87-.885.39-2.428-.813-2.611l-6.17-.938-2.76-5.845a1.437 1.437 0 00-2.627 0L7.426 31.7l-6.17.938c-1.2.183-1.682 1.726-.813 2.611l4.465 4.544-1.054 6.417c-.204 1.248 1.051 2.204 2.125 1.61l5.52-3.026" id="Path"/></g></g></g></svg>