<svg width="110" height="107" xmlns="http://www.w3.org/2000/svg" xmlns:xlink="http://www.w3.org/1999/xlink"><defs><path id="path-1" d="M0 107h109.26V.568H0z"/></defs><g id="Page-1" stroke="none" stroke-width="1" fill="none" fill-rule="evenodd"><g id="Index" transform="translate(-1385 -1118)"><g id="Group-14" transform="translate(1385 1118)"><path id="Fill-1" fill="#A4193B" d="M66 107h4V94h-4z"/><path id="Fill-2" fill="#A4193B" d="M38 107h4V94h-4z"/><path d="M53.704 79.328c-3.004 0-4.625-1.31-4.625-1.845V67.194l-.923-.533c-2.984-1.72-4.627-4.43-4.627-7.627V49.81c0-9.224 5.57-9.224 7.4-9.224h6.307c3.692 0 7.056-1.597 9.698-4.557.36.864.645 1.83.645 2.712 0 3.568-1.506 9.225-5.55 9.225h-1.85v3.69h1.85c.653 0 1.266-.09 1.85-.231v7.61c0 5.086-4.15 9.224-9.25 9.224h-1.85v3.69h1.85c1.286 0 2.525-.194 3.7-.545v6.079c0 .535-1.62 1.845-4.625 1.845m10.175-3.69h-1.85v-6.022c3.35-2.335 5.55-6.206 5.55-10.582v-9.731c2.442-2.463 3.7-6.525 3.7-10.562 0-3.44-2.33-6.807-2.597-7.182l-1.606-2.25-1.469 2.343c-1.5 2.392-4.17 5.245-8.371 5.245h-6.307c-7.054 0-11.1 4.708-11.1 12.913v9.224c0 4.157 2.01 7.835 5.55 10.243v6.36h-1.85c-9.181 0-16.65 7.448-16.65 16.604V107h3.7V92.241c0-7.119 5.811-12.913 12.95-12.913h2.328c1.098 2.188 4.09 3.69 7.847 3.69 3.758 0 6.749-1.502 7.848-3.69h2.327c7.14 0 12.95 5.794 12.95 12.913V107h3.7V92.241c0-9.156-7.468-16.603-16.65-16.603" id="Fill-3" fill="#A4193B"/><mask id="mask-2" fill="#fff"><use xlink:href="#path-1"/></mask><path id="Fill-5" fill="#A4193B" mask="url(#mask-2)" d="M91.629 103.31h3.7V86.707h-3.7z"/><path d="M89.78 68.259h-1.85v-4.177c3.35-2.336 5.55-6.204 5.55-10.58l.005-7.492c0-6.82-6.053-12.803-12.95-12.803-1.81 0-3.637.378-5.29 1.094l1.473 3.383a9.667 9.667 0 013.817-.787c4.366 0 9.25 3.898 9.25 9.111l-.006 7.492c0 5-4.236 9.224-9.25 9.224v3.69a12.93 12.93 0 003.7-.544v4.233c0 .535-1.62 1.845-4.625 1.845-3.004 0-4.625-1.31-4.625-1.845h-3.7c0 3.155 3.58 5.535 8.325 5.535 3.758 0 6.749-1.502 7.848-3.69h2.327c7.14 0 12.95 5.795 12.95 12.916.004 4.942.011 17.882.01 18.266l3.681.361c.013-.122.022-.22.01-18.629 0-9.156-7.47-16.603-16.65-16.603" id="Fill-7" fill="#A4193B" mask="url(#mask-2)"/><path id="Fill-8" fill="#A4193B" mask="url(#mask-2)" d="M13.929 103.31h3.7V86.707h-3.7z"/><path d="M29.654 75.638c4.745 0 8.325-2.38 8.325-5.535h-3.7c0 .535-1.62 1.845-4.625 1.845-2.976 0-4.59-1.284-4.62-1.828v-4.243c1.174.345 2.411.537 3.695.537 2.91 0 5.437-.66 7.511-1.965l-1.977-3.121c-1.471.926-3.334 1.396-5.534 1.396-5.1 0-9.25-4.088-9.25-9.113V46.01c0-5.367 3.85-9.113 9.361-9.113a9.07 9.07 0 016.647 2.857l2.688-2.533a12.905 12.905 0 00-9.335-4.014c-7.568 0-13.06 5.385-13.06 12.803v7.6c0 4.342 2.2 8.18 5.555 10.496v4.153h-1.856c-9.178 0-16.644 7.447-16.644 16.603l-.006 18.448h3.7l.006-18.448c0-7.12 5.807-12.914 12.944-12.914h2.328c1.097 2.188 4.09 3.69 7.847 3.69" id="Fill-9" fill="#A4193B" mask="url(#mask-2)"/><path d="M84.23 25.828v-2.356a42.7 42.7 0 003.414-1.23c1.318-.547 2.135-1.683 2.135-2.97V9.116c3.53-.341 8.077-1.498 11.319-2.43l-3.375 7.066 5.778 4.697c-3.243 2.458-10.799 7.38-19.272 7.38zm-61.05-6.94V5.742c9.277 2.402 22.366 3.481 31.44 3.481 9.13 0 22.311-1.09 31.46-3.509V18.89c-7.799 3.19-22.077 5.092-31.45 5.092-9.358 0-23.6-1.895-31.45-5.096zm1.85 6.94c-8.446 0-16.018-4.924-19.27-7.382l5.775-4.695-3.374-7.065c3.241.931 7.788 2.088 11.318 2.43v10.157c0 1.286.818 2.422 2.133 2.966 1.05.436 2.196.847 3.417 1.23v2.359zm77.281-13.106l5.81-12.154-4.126 1.373c-.098.03-8.68 2.863-14.216 3.474v-.443c0-1.69-1.385-3.122-3.032-3.127-.322 0-.659.077-.838.125-8.98 2.461-22.185 3.564-31.289 3.564-9.095 0-22.29-1.103-31.28-3.567a3.513 3.513 0 00-.834-.122c-1.641.005-3.027 1.437-3.027 3.127v.443C13.948 4.804 5.362 1.97 5.264 1.94L1.138.57l5.81 12.15L0 18.37l1.58 1.44c.436.397 10.792 9.708 23.448 9.708a3.7 3.7 0 003.7-3.69v-1.322c8.264 2.07 18.572 3.167 25.9 3.167 7.328 0 17.636-1.097 25.9-3.165v1.32a3.7 3.7 0 003.7 3.69c12.656 0 23.012-9.31 23.449-9.707l1.58-1.441-6.947-5.647z" id="Fill-10" fill="#A4193B" mask="url(#mask-2)"/><path d="M76.945 11.262l.596 3.643c.97-.158 1.935-.33 2.891-.513l-.701-3.625c-.92.18-1.852.343-2.786.495" id="Fill-11" fill="#A4193B" mask="url(#mask-2)"/><path d="M54.63 12.914v3.69c4.874 0 12.41-.322 18.266-1.037l-.451-3.66c-5.698.695-13.054 1.007-17.816 1.007" id="Fill-12" fill="#A4193B" mask="url(#mask-2)"/></g></g></g></svg>