<svg width="45" height="45" xmlns="http://www.w3.org/2000/svg"><g id="Page-1" stroke="none" stroke-width="1" fill="none" fill-rule="evenodd" stroke-linecap="round" stroke-linejoin="round"><g id="Contact-Us" transform="translate(-276 -938)" stroke="#A4193B" stroke-width="3.5"><g id="Phone" transform="translate(278 940)"><g id="Group"><path d="M7 36H4.667C2.088 36 0 33.992 0 31.512V9.488C0 7.008 2.088 5 4.667 5H7m14 31h15.422C38.952 36 41 33.992 41 31.512V9.488C41 7.008 38.951 5 36.422 5H21m-4.47 36h-5.06C9 41 7 38.961 7 36.444V4.556C7 2.039 9 0 11.47 0h5.06C19 0 21 2.039 21 4.556v31.888C21 38.961 19 41 16.53 41zM27 14h7" id="Path"/><path d="M27.5 21.35c.084 0 .15.066.15.15 0 .084-.066.15-.15.15a.149.149 0 01-.15-.15.15.15 0 01.15-.15m0 5.55c.084 0 .15.044.15.1 0 .056-.066.1-.15.1-.084 0-.15-.044-.15-.1 0-.054.066-.1.15-.1m6.5-5.55c.056 0 .1.066.1.15 0 .084-.044.15-.1.15-.056 0-.1-.066-.1-.15-.002-.084.044-.15.1-.15m0 5.55c.056 0 .1.044.1.1 0 .056-.044.1-.1.1a.099.099 0 01-.1-.1.098.098 0 01.1-.1" id="Path"/></g></g></g></g></svg>