<svg width="133" height="146" xmlns="http://www.w3.org/2000/svg" xmlns:xlink="http://www.w3.org/1999/xlink"><defs><path d="M.18.046a458.202 458.202 0 000 14.494c.07 4.655.309 8.287 2.447 11.127 2.576 3.422 6.867 5.89 12.387 8.316 5.52-2.426 9.811-4.894 12.387-8.316 2.139-2.84 2.377-6.472 2.448-11.127a457.71 457.71 0 000-14.494H.179z" id="path-1"/><path d="M.18.046a458.202 458.202 0 000 14.494c.07 4.655.309 8.287 2.447 11.127 2.576 3.422 6.867 5.89 12.387 8.316 5.52-2.426 9.811-4.894 12.387-8.316 2.139-2.84 2.377-6.472 2.448-11.127a457.71 457.71 0 000-14.494H.179z" id="path-3"/><path d="M.18.046a458.202 458.202 0 000 14.494c.07 4.655.309 8.287 2.447 11.127 2.576 3.422 6.867 5.89 12.387 8.316 5.52-2.426 9.811-4.894 12.387-8.316 2.139-2.84 2.377-6.472 2.448-11.127a457.71 457.71 0 000-14.494H.179z" id="path-5"/><path d="M.18.046a458.202 458.202 0 000 14.494c.07 4.655.309 8.287 2.447 11.127 2.576 3.422 6.867 5.89 12.387 8.316 5.52-2.426 9.811-4.894 12.387-8.316 2.139-2.84 2.377-6.472 2.448-11.127a457.71 457.71 0 000-14.494H.179z" id="path-7"/><path d="M.18.046a458.202 458.202 0 000 14.494c.07 4.655.309 8.287 2.447 11.127 2.576 3.422 6.867 5.89 12.387 8.316 5.52-2.426 9.811-4.894 12.387-8.316 2.139-2.84 2.377-6.472 2.448-11.127a457.71 457.71 0 000-14.494H.179z" id="path-9"/><path d="M.18.046a458.202 458.202 0 000 14.494c.07 4.655.309 8.287 2.447 11.127 2.576 3.422 6.867 5.89 12.387 8.316 5.52-2.426 9.811-4.894 12.387-8.316 2.139-2.84 2.377-6.472 2.448-11.127a457.71 457.71 0 000-14.494H.179z" id="path-11"/><path d="M.18.046a458.202 458.202 0 000 14.494c.07 4.655.309 8.287 2.447 11.127 2.576 3.422 6.867 5.89 12.387 8.316 5.52-2.426 9.811-4.894 12.387-8.316 2.139-2.84 2.377-6.472 2.448-11.127a457.71 457.71 0 000-14.494H.179z" id="path-13"/><path d="M.18.046a458.202 458.202 0 000 14.494c.07 4.655.309 8.287 2.447 11.127 2.576 3.422 6.867 5.89 12.387 8.316 5.52-2.426 9.811-4.894 12.387-8.316 2.139-2.84 2.377-6.472 2.448-11.127a457.71 457.71 0 000-14.494H.179z" id="path-15"/><path d="M.18.046a458.202 458.202 0 000 14.494c.07 4.655.309 8.287 2.447 11.127 2.576 3.422 6.867 5.89 12.387 8.316 5.52-2.426 9.811-4.894 12.387-8.316 2.139-2.84 2.377-6.472 2.448-11.127a457.71 457.71 0 000-14.494H.179z" id="path-17"/><path id="path-19" d="M0 .117h132.864v135.737H0z"/></defs><g id="Page-1" stroke="none" stroke-width="1" fill="none" fill-rule="evenodd"><g id="For-Lease" transform="translate(-293 -2604)"><g id="Group-35" transform="translate(293 2604)"><g id="Group-28" transform="translate(54 112)"><g id="Group-3"><mask id="mask-2" fill="#fff"><use xlink:href="#path-1"/></mask><path d="M.18.046a458.676 458.676 0 000 14.494c.07 4.655.309 8.287 2.447 11.127 2.576 3.422 6.867 5.89 12.387 8.316 5.52-2.426 9.811-4.894 12.387-8.316 2.139-2.84 2.377-6.472 2.448-11.127a457.71 457.71 0 000-14.494H.179z" id="Fill-1" fill="#000" mask="url(#mask-2)"/></g><g id="Group-6"><mask id="mask-4" fill="#fff"><use xlink:href="#path-3"/></mask><path id="Fill-4" fill="#FFE455" mask="url(#mask-4)" d="M4.862-.283v13.192l4.96 5.108L9.88 4.72z"/></g><g id="Group-9"><mask id="mask-6" fill="#fff"><use xlink:href="#path-5"/></mask><path d="M.026 17.422s.182 2.723.522 4.038c.352 1.363.82 2.726 1.558 3.93.683 1.114 2.597 2.949 2.597 2.949l.219.142.002-.02-.063-.041-.04-5.125.04-10.466L-.177 7.9l.204 9.522z" id="Fill-7" fill="#FFE455" mask="url(#mask-6)"/></g><g id="Group-12"><mask id="mask-8" fill="#fff"><use xlink:href="#path-7"/></mask><path id="Fill-10" fill="#FFE455" mask="url(#mask-8)" d="M14.941-.283h-5.04L9.88 4.72l5.109 5.091z"/></g><g id="Group-15"><mask id="mask-10" fill="#fff"><use xlink:href="#path-9"/></mask><path id="Fill-13" fill="#FFE455" mask="url(#mask-10)" d="M21.627 30.956l.446-.328-2.078-2.139.002 3.302z"/></g><g id="Group-18"><mask id="mask-12" fill="#fff"><use xlink:href="#path-11"/></mask><path d="M24.948 19.736l-.033 8.893s1.615-1.313 2.274-2.105c.707-.848 1.768-2.792 1.768-2.792l-4.01-3.996z" id="Fill-16" fill="#FFE455" mask="url(#mask-12)"/></g><g id="Group-21"><mask id="mask-14" fill="#fff"><use xlink:href="#path-13"/></mask><path d="M9.764 31.614l-.003-.002v.003l.937.607 4.375 2.09.03-.016-.05-10.895-5.23-5.384-.059 13.597z" id="Fill-19" fill="#FFE455" mask="url(#mask-14)"/></g><g id="Group-24"><mask id="mask-16" fill="#fff"><use xlink:href="#path-15"/></mask><path id="Fill-22" fill="#FFE455" mask="url(#mask-16)" d="M19.98-.283l.008 15.077 4.96 4.942.073-20.019z"/></g><g id="Group-27"><mask id="mask-18" fill="#fff"><use xlink:href="#path-17"/></mask><path id="Fill-25" fill="#FFE455" mask="url(#mask-18)" d="M15.053 23.401l4.942 5.088-.007-13.695-5-4.984z"/></g></g><g id="Group-34"><path d="M94.355 27.7c.102-.167.203-.337.304-.507a3.637 3.637 0 01-.18.138l-.124.368z" id="Fill-29" fill="#A4193B"/><g id="Group-33"><mask id="mask-20" fill="#fff"><use xlink:href="#path-19"/></mask><path d="M46.554 55.274c7.534-2.734 10.783 1.84 17.605.276.146-.033.27-.04.375-.025-2.034 1.037-6.1 2.526-12.097 2.055 5.688 1.169 10.187.029 12.584-.879-.115 1.45-.982 3.916-.856 5.583-.476.941-.392 1.328-.946 1.696-1.489.99-.196 3.101 1.216 3.549.35.111.639.993 2.924 1.692.014.004 1.968.961 1.989.973.425-.583.866-.938.98-.973.748-.229 1.281-.477 1.674-.712.881.048 2.333.137 2.78.226.657.13 2.102 0 5.716 5.48.919 1.394 1.817 2.386 2.645 3.092-3.756-2.556-6.707-6.922-8.976-7.545-2.58-.71-4.824 1.778-4.824 1.778l-1.944-1.302c-.857-.577-2.117-.96-3.879-.476-2.742.753-6.48 6.974-11.432 8.857 1.934-1.198 1.479-1.923 1.356-1.976-7.447-6.034-6.89-21.369-6.89-21.369m19.172 8.275c.086-.59.615-3.134 1.028-3.544-.837.296-1.035 1.923-1.035 1.923s-.473-.608.054-2.192c.165-.499.534-.453.194-2.182.6-.606 1.058-1.182 1.616-1.56l.006-.436h1.818v.1c.925.277 1.485 1.058 2.313 1.896-.34 1.729.029 1.683.194 2.182.527 1.584.054 2.192.054 2.192s-.198-1.627-1.035-1.923c.413.41.942 2.955 1.028 3.544.086.59-1.268.634-1.36 1.474.39-.6 1.943-1.11 2.612-.523.041.067 1.074.768-.232 2.097-.437.446-1.023.595-1.4.646-.225.03.989-1.098.54-.888-.391.184-1.601 1.418-2.765 1.724-.836-.485-3.5-1.588-3.79-1.724-.449-.21.765.918.54.888-.377-.05-.963-.2-1.4-.646-1.306-1.329-.273-2.03-.231-2.097.668-.587 2.221-.078 2.612.523-.093-.84-1.447-.884-1.36-1.474m7.922-6.41c6.823 1.564 11.458 2.048 17.484-1.865-2.404 1.554-6.43 12.286-10.964 11.439-3.318-.621-5.756-4.388-6.824-6.362-.417-1.944-1.251-3.568.304-3.212m2.612 21.764c.648 1.335.652 2.898-.55 4.245-1.34 1.501-2.895 2.494-4.526 2.971-.231 2.014-1.04 4.328-1.662 5.88.928-3.426 1.695-9.805-.611-10.613l-1.027 1.407c-1.665 2.321-.106 9.04-.106 9.04-.412-1.229-1.412-4.6-1.554-5.832-1.503-.51-2.955-1.46-4.248-2.853-1.23-1.324-1.199-2.91-.551-4.245-3.491 2.921-8.106 3.533-9.502 1.877 2.973 1.871 6.512-1.089 10.768-3.096.729-.344 1.478-.66 2.25-.919s3.297-.726 3.297-.726h1.085s2.134.318 3.145.637c1.01.318 1.984.74 2.922 1.198 4.08 1.997 7.492 4.719 10.373 2.906-1.396 1.656-6.011 1.044-9.503-1.877M.515 111.69a4.42 4.42 0 011.741.755l.86.815c.145.164.27.339.379.523a62.3 62.3 0 007.885-.499l26.76 22.569 9.362-15.44-10.741 9.569-13.743-16.956c10.434-2.154 8.734-7.256 11.778-10.443 1.497-.63 2.537-1.352 2.537-1.352s2.956 2.74 6.208 1.761c3.252-.978 5.276-4.11 5.276-4.11s3.199.588 5.367-.684 1.675-4.404 1.675-4.404.498 2.223 2.254.55c3.581 3.12 7.365 6.298 10.73 11.16v.326c3.347-4.835 7.108-8.042 10.672-11.196 1.48 1.091 1.912-.84 1.912-.84s-.492 3.132 1.676 4.404c2.168 1.272 5.366.685 5.366.685s2.024 3.131 5.276 4.11c3.252.978 6.208-1.762 6.208-1.762s2.64 1.834 5.566 2.206c3.264 3.124 1.086 7.62 10.622 9.59l-13.438 16.955-10.849-9.665 9.469 15.536 26.76-22.569c1.514.197 3.107.34 4.781.422a4.781 4.781 0 01-.705-1.707 3.78 3.78 0 01.047-1.663c-9.914-2.136-16.66-5.992-20.89-9.257 1.774-2.34.133-4.43-1.508-4.35-1.971.099-6.603-2.641-7.588-6.262-.985-3.62-3.055-4.403-2.07-5.186.986-.783 2.07-5.284 2.07-8.122s-2.168-8.513-2.168-8.513.776-3.852.5-5.633c6.728-6.53 12.814-19.754 13.714-32.711 1.204-7-.815-14.321-3.069-18.29l-.003-.006a1.933 1.933 0 00-.154-.264c-.63-1.063-1.275-1.859-1.866-2.307-1.488-1.127-2.749-1.808-3.827-2.125 3.23-5.602 9.072.776 7.801 6.854 3.35-12.786-10.84-10.202-11.398-7.07-9.099-1.9-8.315 11.759-8.487 13.42a12.504 12.504 0 00-.565-.896c-.798-7.524-30.764-37.175-47.43-4.39-.539 1.058.855 2.196 2.043 2.313 4.54.447 30.102 6.893 34.02 8.674l-.068.163c-4.068-1.46-29.487-6.674-33.875-6.91a2.25 2.25 0 00-2.376 2.131c-.08 1.658-.17 3.309-.27 4.862-.06.965.716 1.806 1.69 1.768 13.624-.53 29.706 2.472 32.638 4.256l-.068.235c-3.284-.718-22.842-3.919-32.98-2.606-.904.117-1.64.776-1.699 1.685l-.001.002c-2.645.608-11.365 1.264-14.29 1.224 10.084 4.279 24.825 8.734 37.25 8.954v.007l.334-.002.147.002v-.003l1.7-.011c2.854-.07 5.557-.388 8.019-1.013v.012l.11-.04a24.65 24.65 0 002.069-.63l.062-.186a7.18 7.18 0 011.09-.253c8.816-28.796 13.575-14.901 13.575-14.901s.004-6.513 2.443-12.36c1.167-2.798 2.611-3.653 3.964-3.542-2.702 4.238-2.545 14.134-5.637 17.647-.386.74-.781 1.45-1.188 2.133-1.823 3.06-3.853 5.55-6.05 7.549-.888.954-1.903 1.71-2.914 2.305-3.748 2.56-9.237 3.686-15.546 3.81v.01h-1.703c-20.337-.163-48.024-9.913-54.23-15.7-.792.105-1.436.398-1.87.937-2.975 3.693 1.173 26.321 25.309 39.34.136.897.268 1.556.268 1.556s-2.167 5.675-2.167 8.513 1.083 7.34 2.069 8.122c.985.783-1.084 1.566-2.07 5.186-.985 3.62-5.616 6.36-7.587 6.263-1.86-.092-3.72 2.605-.608 5.294-5.336 3.8-13.979 8.077-26.871 9.474.17.07.34.134.515.192" id="Fill-31" fill="#A4193B" mask="url(#mask-20)"/></g></g></g></g></g></svg>