<svg width="422" height="421" xmlns="http://www.w3.org/2000/svg"><defs><linearGradient x1="39.037%" y1="15.044%" x2="70.128%" y2="105.286%" id="linearGradient-1"><stop stop-color="#FFC444" offset="0%"/><stop stop-color="#F36F56" offset="100%"/></linearGradient><linearGradient x1="43.398%" y1="6.873%" x2="64.623%" y2="124.644%" id="linearGradient-2"><stop stop-color="#E38DDD" offset="11%"/><stop stop-color="#9571F6" offset="100%"/></linearGradient><linearGradient x1="169.297%" y1="-4.869%" x2="327.718%" y2="-120.997%" id="linearGradient-3"><stop stop-color="#FFC444" offset="0%"/><stop stop-color="#F36F56" offset="100%"/></linearGradient><linearGradient x1="58.542%" y1="64.644%" x2="48.032%" y2="41.759%" id="linearGradient-4"><stop stop-color="#444B8C" offset="0%"/><stop stop-color="#26264F" offset="100%"/></linearGradient><linearGradient x1="41.121%" y1="-12.924%" x2="51.006%" y2="81.853%" id="linearGradient-5"><stop stop-color="#AA80F9" offset="0%"/><stop stop-color="#6165D7" offset="100%"/></linearGradient><linearGradient x1="46.324%" y1="65.255%" x2="115.519%" y2="7.542%" id="linearGradient-6"><stop stop-color="#FFC444" offset="0%"/><stop stop-color="#F36F56" offset="100%"/></linearGradient><linearGradient x1="26.408%" y1="61.488%" x2="309.403%" y2="-136.959%" id="linearGradient-7"><stop stop-color="#FFC444" offset="0%"/><stop stop-color="#F36F56" offset="100%"/></linearGradient><linearGradient x1="33.772%" y1="38.616%" x2="99.301%" y2="81.115%" id="linearGradient-8"><stop stop-color="#FFC444" offset="0%"/><stop stop-color="#F36F56" offset="100%"/></linearGradient><linearGradient x1="-56.475%" y1="50%" x2="43.525%" y2="50%" id="linearGradient-9"><stop stop-color="#311944" offset="0%"/><stop stop-color="#893976" offset="100%"/></linearGradient><linearGradient x1="-25.066%" y1="35.511%" x2="98.137%" y2="54.228%" id="linearGradient-10"><stop stop-color="#FFC444" offset="0%"/><stop stop-color="#F36F56" offset="100%"/></linearGradient><linearGradient x1="49.772%" y1="48.318%" x2="50.899%" y2="120.931%" id="linearGradient-11"><stop stop-color="#FFC444" offset="0%"/><stop stop-color="#F36F56" offset="100%"/></linearGradient><linearGradient x1="67.129%" y1="79.062%" x2="52.872%" y2="54.873%" id="linearGradient-12"><stop stop-color="#311944" offset="0%"/><stop stop-color="#893976" offset="100%"/></linearGradient><linearGradient x1="75.838%" y1="-36.776%" x2="-.364%" y2="214.028%" id="linearGradient-13"><stop stop-color="#311944" offset="0%"/><stop stop-color="#893976" offset="100%"/></linearGradient><linearGradient x1="84.452%" y1="47.725%" x2="-6.361%" y2="53.661%" id="linearGradient-14"><stop stop-color="#311944" offset="0%"/><stop stop-color="#893976" offset="100%"/></linearGradient><linearGradient x1="50%" y1="-23.669%" x2="50%" y2="192.515%" id="linearGradient-15"><stop stop-color="#E38DDD" offset="0%"/><stop stop-color="#9571F6" offset="100%"/></linearGradient><linearGradient x1="50%" y1="-23.059%" x2="50%" y2="185.567%" id="linearGradient-16"><stop stop-color="#E38DDD" offset="0%"/><stop stop-color="#9571F6" offset="100%"/></linearGradient><linearGradient x1="50%" y1="-23.358%" x2="50%" y2="189.038%" id="linearGradient-17"><stop stop-color="#E38DDD" offset="0%"/><stop stop-color="#9571F6" offset="100%"/></linearGradient><linearGradient x1="-5.396%" y1="120.863%" x2="144.484%" y2="-70.983%" id="linearGradient-18"><stop stop-color="#311944" offset="0%"/><stop stop-color="#893976" offset="100%"/></linearGradient><linearGradient x1=".008%" y1="49.998%" x2="100.005%" y2="50.004%" id="linearGradient-19"><stop stop-color="#40447E" offset="0%"/><stop stop-color="#3C3B6B" offset="100%"/></linearGradient><linearGradient x1="0%" y1="50.003%" x2="100%" y2="50.003%" id="linearGradient-20"><stop stop-color="#FF9085" offset="0%"/><stop stop-color="#FB6FBB" offset="100%"/></linearGradient><linearGradient x1="0%" y1="50.002%" x2="100%" y2="50.002%" id="linearGradient-21"><stop stop-color="#FF9085" offset="0%"/><stop stop-color="#FB6FBB" offset="100%"/></linearGradient></defs><g id="Page-1" stroke="none" stroke-width="1" fill="none" fill-rule="evenodd"><g id="WE-are-ready" transform="translate(-345 -4287)" fill-rule="nonzero"><g id="for-sale" transform="translate(345 4287)"><path d="M102.901 24.462c-14.406 20.151 1.89 53.308-19.333 68.37-20.661 14.67-45.589-9.988-65.046 2.615-28.858 18.704-24.54 105.707 16.797 160.178 12.433 16.38 22.898 22.813 27.376 41.238 9.602 39.56-25.826 62.661-19.349 82.244 14.607 44.09 246.15 83.412 340.606-47.666 44.111-61.214 51.555-150.2 13.43-218.25C328.493-9.75 135.23-20.813 102.902 24.46z" id="Path" fill="#F4F7FA"/><path d="M215.413 231.99c26.354.938 59.946-63.899 43.008-97.673-5.57-11.116-13.23-12.116-19.203-26.737-9.25-22.623 2.59-36.141-1.379-54.031-7.97-35.997-73.962-63.043-92.61-46.643-13.991 12.317-6.53 53.716 12.575 79.633 14.477 19.633 30.95 24.02 32.965 41.962 1.726 15.374-9.472 20.107-12.166 37.842-4.342 28.635 17.472 64.961 36.81 65.647z" id="Path" fill="url(#linearGradient-1)"/><path d="M214.632 223a1.8 1.8 0 01-.625-.113 1.879 1.879 0 01-1.074-.969 1.897 1.897 0 01-.074-1.449c40.89-116.503-18.521-170.559-19.13-171.075a1.903 1.903 0 01.526-3.285 1.876 1.876 0 011.886.373c.164.14 16.877 14.794 27.147 46.175 5.435 16.602 8.016 34.741 7.683 53.911-.43 23.603-5.321 48.891-14.541 75.159a1.886 1.886 0 01-1.798 1.273z" id="Path" fill="#FFF" opacity=".5" style="mix-blend-mode:soft-light"/><path d="M200.223 239.14c9.673-6.26-9.015-32.63-9.17-86.243-.094-31.971 5.52-45.007-5.23-63.143-7.333-12.376-22.784-26.783-39.308-26.061-13.375.582-17.336 10.643-26.641 8.467-12.821-2.991-11.392-23.514-25.12-41.49C78.702 9.646 45.117-3.694 28.02 6.485 5.623 19.82 6.529 76.455 31.88 99.072c17.27 15.398 40.27 10.024 46.707 25.922 5.567 13.763-9.698 22.69-5.696 38.16 4.485 17.253 26.564 18.465 63.82 38.287 42.415 22.58 55.226 43.047 63.51 37.7z" id="Path" fill="url(#linearGradient-2)"/><path d="M197.045 236.99c-.636 0-1.233-.31-1.598-.833-.258-.362-26.043-37.063-63.187-98.256-38.097-62.754-67.739-81.418-68.852-82.06a1.96 1.96 0 01.825-3.82c1.763.253 10.827 6.794 22.619 18.932 11.343 11.687 29.028 32.434 48.744 64.916 37.077 61.074 62.79 97.666 63.042 98.028a1.97 1.97 0 01.145 2.038 1.956 1.956 0 01-1.738 1.065v-.01z" id="Shape" fill="#FFF" opacity=".5" style="mix-blend-mode:soft-light"/><path d="M147.846 93c-2.919-1.21-4.401-2.813-5.221-2.256-.93.62-1.358 1.052-2.376 1.64-.762.427-2.673.437-5.352-.346-5.832-1.72-5.389-3.35-8.934-4.033-3.159-.605 1.044-2.104 1.942-2.135 2.089-.053 2.83 1.151 3.598 1.257.522.073 1.436.042 1.54-.39.261-1.051-1.17-1.645-2.344-3.186-2.089-3.034-6.725.878-9.92-.989-.481-.278-.862-.268-.763-.762.162-.8 1.107-1.394 2.088-1.578 6.016-1.12 12.579-5.93 15.07-1.13.913 1.75 1.044 4.254 2.71 5.321 2.61 1.699 5.806 1.315 11.116 2.892-1.796-.53-2.981 3.802-3.154 5.695z" id="Path" fill="url(#linearGradient-3)"/><path d="M144.502 92.125c-1.96-.822 2.412-4.829 3.04-6.884 12.588 2.569 25.28 4.747 38.128 5.846 8.818.76 20.23-6.303 24.747-8.995 13.486-8.09 15.706-17.003 29.954-20.224 3.958-.894 13.43-4.233 16.79 1.027 8.014 12.504 3.698 32.548-15 48.56-3.771 3.237-22.107 6.01-45.422 10.166-18.833 3.345-38.544-16.202-52.237-29.496z" id="Path" fill="#FFF"/><path d="M293.27 70.46c-4.749-4.395-13.832-9.468-18.384-21.25-1.375-3.546-6.231-16.11.935-25.723 4.253-5.695 12.153-9.582 19.118-8.21 5.952 1.17 6.882 5.326 16.994 13.681 3.937 3.251 10.262 8.48 17.304 11.39 12.065 4.979 19.314.294 31.426.827 14.875.658 32.159 8.977 40.488 21.075 14.783 21.472-6.63 43.256 9.559 68.409.42.676.885 1.32 1.395 1.93.455.519.806.912.837.948.971 1.036 6.81 13.977 4.537 23.456-4.45 18.568-38.427 17.574-40.132 32.095-1.127 9.608 13.052 16.048 10.334 28.57-.848 3.877-3.1 6.445-4.697 8.852-6.665 9.934-19.764 11.906-21.882 12.232-19.635 2.967-46.11-20.1-57.353-47.428-20.286-49.282 15.33-96.954-10.48-120.854z" id="Path" fill="url(#linearGradient-4)"/><path d="M235.49 67.466c1.253-1.939 5.23-7.322 22.1-11.287 8.458-1.99 24.095-5.393 44.215-1.134 27.633 5.857 44.87 22.434 51.322 29.39-5.302 3.454-19.94 13.993-27.19 33.977-2.254 6.219-8.918 27.482.608 47.394 5.493 11.472 15.21 20.109 22.585 26.631 11.062 9.797 16.797 11.343 20.506 20.109 4.038 9.574-.031 14.246 4.987 20.799 5.384 7.038 11.697 3.769 20.831 10.884a26.511 26.511 0 015.08 4.965c3.987 5.61 6.24 11.4 6.457 16.928.475 11.827-18.407 24.542-30.166 19.897-4.838-1.913-9.072-5.827-9.072-5.827-4.745-4.094-5.828-7.455-13.316-11.214-17.974-9.028-30.264 1.031-71.21 2.062-22.177.562-33.39.686-39.532-6.81-5.606-6.853-2.66-14.37.707-46.755 1.083-10.828 3.347-33.463 3.363-46.368 0-7.626-2.641-20.109-7.927-45.007-.315-1.47-3.177-14.952-5.493-32.921-2.084-16.19-1.78-21.165 1.145-25.713z" id="Path" fill="#FFF"/><g id="Group" opacity=".15" style="mix-blend-mode:multiply" transform="translate(291 82)" fill="url(#linearGradient-5)"><path d="M111.622 170.89a26.809 26.809 0 00-7.48-8.512c-10.73-7.59-15.3-3.668-20.685-10.731-5.019-6.577-.949-11.265-4.988-20.874-3.709-8.822-9.445-10.349-20.51-20.18-7.376-6.566-17.094-15.213-22.588-26.726-9.528-19.984-2.863-41.323-.609-47.563 7.253-20.056 21.892-30.633 27.195-34.1-.516-.548-1.109-1.18-1.754-1.842C25.245 5.174 4.885 25.427 2.347 31.435c-5.829 13.867 3.394 18.964 3.61 58.962.114 19.114-1.944 26.664 4.241 34.669 7.072 9.127 15.222 6.302 25.446 18.234 7.862 9.164 6.603 15.006 13.928 18.84 7.438 3.917 13.123 1.113 21.815 1.216 26.926.3 49.561 25.841 40.235 7.534z" id="Path"/></g><path d="M290.336 33s1.771 14.267 7.01 17.536c5.24 3.269 13.7 7.535 14.635 8.694.935 1.16-32.441 4.768-48.981-3.624 5.453-1.143 6.933-1.566 6.933-1.566a30.348 30.348 0 007.005-2.789 23.778 23.778 0 007.701-7.16l-.062-7.9 5.76-3.191z" id="Path" fill="url(#linearGradient-6)"/><path d="M290.9 37.844s-3.3 4.6-8.47 2.693c-4.628-1.722-1.865-13.908 1.81-15.298 1.224-.465 3.47-.26 4.975.695 1.058.675 3.88 4.248 2.261 8.255 1.173-.348 2.201-.03 2.457.557.331.751-.662 1.769-.887 1.999a3.88 3.88 0 01-2.147 1.099z" id="Path" fill="url(#linearGradient-7)"/><path d="M327.754 153.378c.149-.607.564-2.502-.205-3.167l-.117-.085c-.876-.554-2.198.217-2.433.333-2.106 1.055-9.317-3.663-16.207-3.452 0 0-5.47.232-10.756 5.605a.112.112 0 00-.036.074c.041.486 5.04.312 8.861.84 8.165 1.118 9.84 5.32 14.593 4.322 1.598-.317 3.883-1.293 6.3-4.47z" id="Path" fill="url(#linearGradient-8)"/><path d="M335.32 68s43.334 28.808 47.477 56.677c4.142 27.87-56.382 32.323-56.382 32.323l-4.874-7.612s25.764-16.203 26.336-19.184C348.449 127.223 307 96.85 307 96.85L335.32 68z" id="Path" fill="#FFF"/><path id="Path" fill="url(#linearGradient-9)" d="M367 389.886V350.45L38 350v39.096L109.43 406z"/><path id="Path" fill="#D8DEE8" d="M366 260.235v4.578l22 .187-5.245-5z"/><path id="Path" fill="url(#linearGradient-10)" d="M108 366l-71-15.255V260l71 .688z"/><path d="M383 259.986l-16.349.314v90.951l-164.157 9.36-68 3.876L108 366V260.94l113.97-32.445L289.912 163 383 259.986zm-46.575 83.263v-90.13l-100.055-.17v95.432l100.055-5.132z" id="Shape" fill="url(#linearGradient-11)"/><g id="Group" opacity=".2" transform="translate(91 161)" fill="#D8DEE8"><path id="Path" d="M293.897 99.192L201.8 3.082 198.98.134l-2.806 2.68-67.522 64.64L15.568 99.177.062 103.525v2.377h17.289v-1.533l113.538-31.857 68.313-65.288 88.236 91.968z"/></g><path id="Path" fill="#FFF" d="M289.678 156l2.818 2.958 93.104 97.476 2.4 2.514v6.39l-.304.026-4.82-5.033-92.976-97.218-68.23 65.49-112.427 33.339L91 267v-7.288l15.487-4.362 112.953-31.82 67.435-64.84z"/><path d="M336 254.093v87.943L238 347v-93l98 .093zm-5.225 79.546v-73.81l-23.553.057v74.824l23.553-1.071zM300.828 335v-75.099l-24.392.057v76.155L300.828 335zm-31.039 1.419v-76.445l-25.27.062v77.532l25.27-1.15z" id="Shape" fill="#FFF"/><path d="M236 349v-96l101 .098v90.798L236 349zm3.06-92.95v89.734l94.88-4.804v-84.836l-94.88-.093zm3.495 83.544V259.02l28.316-.067v79.365l-28.316 1.277zm3.061-77.52v74.315l22.195-1.009v-73.357l-22.195.052zm28.823 76.067v-79.195l27.431-.067v78.011l-27.431 1.251zm3.076-76.144v72.939l21.315-.967v-72.024l-21.315.052zm27.685 74.769v-77.897l26.599-.062v76.718l-26.6 1.241zm3.06-74.815v71.583l20.478-.93v-70.731l-20.478.078z" id="Shape" fill="#FFF"/><path id="Path" fill="url(#linearGradient-12)" d="M290 156l-2.797 2.696-67.43 65.009L138 228l61.506-56.889 2.564-2.365z"/><path id="Path" fill="url(#linearGradient-13)" d="M144 387v-83.46l52-.54v80.566z"/><path id="Path" fill="#FFF" d="M135 387v-89.313l68-.687v85.624l-10.51.879v-76.528l-44.1.92v78.49z"/><path id="Path" fill="url(#linearGradient-14)" d="M219 223l-112.781 31.66-15.47 4.34L22 258.502l13.794-3.739 101.543-27.5z"/><path id="Path" fill="#FFF" d="M91 267l-69-1.559V259l69 .514z"/><path id="Path" fill="url(#linearGradient-15)" d="M330 260v72.971L307 334v-73.938z"/><path id="Path" fill="url(#linearGradient-16)" d="M269 261v74.903L245 337v-75.933z"/><path id="Path" fill="url(#linearGradient-17)" d="M300 261v73.94L277 336v-74.933z"/><path id="Path" fill="#F4F7FA" d="M215.212 394.614v-8.384L202.767 383 135 387.687l.18 16.636L156.234 410 224 405.232v-8.521z"/><path id="Path" fill="#D8DEE8" d="M135 388l12.156 3.341v8.68L156 402.19V411l-20.821-5.873z"/><path d="M156.474 133.998a.515.515 0 01-.423-.224L124.397 87.45l-30.452 46.084a.513.513 0 01-.717.14.526.526 0 01-.14-.724l30.88-46.72a.515.515 0 01.429-.23.515.515 0 01.428.224l32.083 46.981a.525.525 0 01-.129.725.512.512 0 01-.305.068z" id="Path" fill="#893976"/><path d="M126 87a2 2 0 11-4 0 2 2 0 014 0z" id="Path" fill="url(#linearGradient-18)"/><path d="M234 137.889v52.732a5.83 5.83 0 01-.636 2.65 6.252 6.252 0 01-5.395 3.367L40.1 203.993c-4.308.166-8.1-2.594-8.1-6.183v-59.195a5.966 5.966 0 012.188-4.44 9.022 9.022 0 015.912-2.173h187.863a5.893 5.893 0 014.25 1.674 5.926 5.926 0 011.787 4.213z" id="Path" fill="url(#linearGradient-19)"/><path d="M234 135.904v52.715a5.9 5.9 0 01-1.774 4.218 6.275 6.275 0 01-4.195 1.805l-186.01 7.35c-4.271.172-8.026-2.593-8.021-6.178V136.61c0-.497.072-.992.212-1.468a7.13 7.13 0 013.91-4.264 9.127 9.127 0 013.9-.877h186.004a5.866 5.866 0 014.222 1.694 5.902 5.902 0 011.752 4.21z" id="Path" fill="url(#linearGradient-20)"/><path id="Path" fill="#FFF" d="M64.388 168.024l-9.926.206.222 10.667-5.167.103L49 153.344 65.917 153l.083 3.966-11.735.242.145 7.07 9.926-.205z"/><path d="M91.997 167.63c.063 3.234-.898 5.92-2.882 8.057-1.984 2.137-4.604 3.24-7.86 3.31-3.245.066-5.895-.93-7.949-2.99-2.054-2.06-3.118-4.7-3.191-7.92l-.1-4.722a11.123 11.123 0 012.85-8.036c1.971-2.15 4.57-3.26 7.798-3.326 3.228-.066 5.895.934 8.001 3a11.022 11.022 0 013.228 7.91l.105 4.717zm-5.34-4.658a7.953 7.953 0 00-1.634-5 5.054 5.054 0 00-4.27-1.872 4.903 4.903 0 00-4.11 2.046 8.11 8.11 0 00-1.382 5.062l.1 4.757a8.173 8.173 0 001.597 5.052 4.94 4.94 0 004.219 1.878 5.008 5.008 0 004.192-2.051 8.121 8.121 0 001.41-5.115l-.121-4.757zm16.72 4.594l.214 10.326-5.083.108L98 152.185l8.803-.18c2.897-.063 5.178.56 6.841 1.868 1.664 1.308 2.52 3.162 2.567 5.56a5.745 5.745 0 01-.966 3.46 7.293 7.293 0 01-2.983 2.396 5.463 5.463 0 013.283 2.184 7.204 7.204 0 011.067 3.882l.041 1.895c.02.763.13 1.52.33 2.256.142.675.5 1.283 1.017 1.73v.372l-5.255.108a2.88 2.88 0 01-.94-1.859 16.523 16.523 0 01-.25-2.535l-.04-1.827a4.168 4.168 0 00-1.098-2.985 3.906 3.906 0 00-2.963-1.032l-4.077.088zm-.08-3.991l3.618-.078c1.428-.03 2.49-.361 3.176-.991.72-.72 1.085-1.73.992-2.752a3.8 3.8 0 00-1.113-2.798c-.722-.687-1.76-1.033-3.121-.981l-3.705.077.152 7.523z" id="Shape" fill="#FFF"/><path d="M147.683 170.664a3.055 3.055 0 00-1.11-2.406c-.725-.598-1.978-1.153-3.77-1.656-3.07-.85-5.41-1.877-7.017-3.082a6.061 6.061 0 01-2.474-5.01 6.337 6.337 0 012.559-5.32c1.762-1.399 4.018-2.127 6.768-2.186 2.933-.06 5.307.625 7.122 2.054a6.843 6.843 0 012.712 5.708l-.037.11-5.139.105a3.8 3.8 0 00-1.264-2.993 4.942 4.942 0 00-3.384-.985 4.467 4.467 0 00-3.013 1 3.043 3.043 0 00-1.02 2.417c.012.877.466 1.69 1.21 2.165a15.346 15.346 0 004.05 1.724c2.922.762 5.16 1.782 6.715 3.061a6.544 6.544 0 012.4 5.152 6.269 6.269 0 01-2.543 5.367c-1.738 1.332-4.062 2.03-6.974 2.097a12.636 12.636 0 01-7.376-1.955c-2.069-1.363-3.102-3.438-3.098-6.227l.032-.11 5.144-.105c.032 1.552.515 2.684 1.45 3.397a5.854 5.854 0 003.769 1.048 5.14 5.14 0 003.22-.949 2.846 2.846 0 001.068-2.421z" id="Path" fill="#FFF"/><path d="M171.62 171.136l-8.49.175-1.644 5.576L156 177l8.286-25.892 5.381-.108L179 176.532l-5.486.113-1.895-5.509zm-7.282-3.896l5.92-.123-3.088-8.999h-.11l-2.722 9.122z" id="Shape" fill="#FFF"/><path id="Path" fill="#FFF" d="M188.531 171.908l11.388-.238.081 3.983-16.492.347-.508-25.896 5.084-.104zm31.439-7.497l-9.535.195.155 7.34 11.328-.237.082 3.952-16.486.339-.514-25.661 16.44-.339.082 3.967-11.302.236.133 6.452 9.535-.195z"/><path d="M233 193.284a6.24 6.24 0 01-5.386 3.362l-187.528 7.347c-4.301.166-8.086-2.59-8.086-6.176v-59.124a5.96 5.96 0 012.184-4.434A7.12 7.12 0 0138.088 130a29.941 29.941 0 017.678 2.072 18.82 18.82 0 018.354 6.606c3.212 4.73 5.133 9.035 7.994 12.367.61.723 1.279 1.395 1.998 2.01a17.834 17.834 0 007.229 3.689c.743.207 1.549.388 2.38.518 1.13.209 2.272.358 3.418.445 3.41.247 6.834.194 10.234-.16 1.963-.177 3.925-.4 5.887-.617 2.721-.3 5.447-.585 8.174-.705a51.93 51.93 0 015.323.032c.78.046 1.55.114 2.34.207a29.74 29.74 0 014.13.798 32.377 32.377 0 015.36 1.958c6.738 3.15 12.356 8.32 18.103 13.149a149.9 149.9 0 004.131 3.347c4.874 3.74 10.048 6.849 16.24 7.984 9.541 1.75 20.013-.638 29.493-1.87 12.393-1.612 25.534-2.555 37.332 2.48.76.322 5.22 4.316 7.983 7.529.424.528.81 1.005 1.131 1.445z" id="Path" fill="url(#linearGradient-21)" opacity=".3" style="mix-blend-mode:multiply"/></g></g></g></svg>