<svg width="422" height="402" xmlns="http://www.w3.org/2000/svg"><defs><linearGradient x1="47.247%" y1="13.204%" x2="55.2%" y2="122.988%" id="linearGradient-1"><stop stop-color="#E38DDD" offset="0%"/><stop stop-color="#9571F6" offset="100%"/></linearGradient><linearGradient x1="50.813%" y1="46.639%" x2="68.064%" y2="82.612%" id="linearGradient-2"><stop stop-color="#AA80F9" offset="0%"/><stop stop-color="#6165D7" offset="100%"/></linearGradient><linearGradient x1="-23.624%" y1="35.513%" x2="97.211%" y2="54.228%" id="linearGradient-3"><stop stop-color="#D8DEE8" offset="0%"/><stop stop-color="#FFF" offset="100%"/></linearGradient><linearGradient x1="-43.282%" y1="53.709%" x2="150.065%" y2="44.793%" id="linearGradient-4"><stop stop-color="#D8DEE8" offset="0%"/><stop stop-color="#FFF" offset="100%"/></linearGradient><linearGradient x1="119.102%" y1="36.254%" x2="-38.164%" y2="69.541%" id="linearGradient-5"><stop stop-color="#FF9085" offset="0%"/><stop stop-color="#FB6FBB" offset="100%"/></linearGradient><linearGradient x1="84.453%" y1="47.588%" x2="-6.361%" y2="53.882%" id="linearGradient-6"><stop stop-color="#FF9085" offset="0%"/><stop stop-color="#FB6FBB" offset="100%"/></linearGradient><linearGradient x1="-294.894%" y1="49.996%" x2="775.653%" y2="49.996%" id="linearGradient-7"><stop stop-color="#E38DDD" offset="0%"/><stop stop-color="#9571F6" offset="100%"/></linearGradient><linearGradient x1="-16.828%" y1="50%" x2="981.029%" y2="50%" id="linearGradient-8"><stop stop-color="#E38DDD" offset="0%"/><stop stop-color="#9571F6" offset="100%"/></linearGradient><linearGradient x1="-153.47%" y1="50%" x2="880.299%" y2="50%" id="linearGradient-9"><stop stop-color="#E38DDD" offset="0%"/><stop stop-color="#9571F6" offset="100%"/></linearGradient><linearGradient x1="33.613%" y1="-33.133%" x2="86.821%" y2="275.712%" id="linearGradient-10"><stop stop-color="#E38DDD" offset="0%"/><stop stop-color="#9571F6" offset="100%"/></linearGradient><linearGradient x1="69.841%" y1="25.37%" x2="14.858%" y2="114.626%" id="linearGradient-11"><stop stop-color="#FF9085" offset="0%"/><stop stop-color="#FB6FBB" offset="100%"/></linearGradient><linearGradient x1="99.974%" y1="49.992%" x2="-.018%" y2="49.992%" id="linearGradient-12"><stop stop-color="#311944" offset="0%"/><stop stop-color="#893976" offset="100%"/></linearGradient><linearGradient x1="-29.259%" y1="38.363%" x2="254.356%" y2="80.142%" id="linearGradient-13"><stop stop-color="#E38DDD" offset="0%"/><stop stop-color="#9571F6" offset="100%"/></linearGradient><linearGradient x1="-286.192%" y1="14.153%" x2="430.604%" y2="99.502%" id="linearGradient-14"><stop stop-color="#E38DDD" offset="0%"/><stop stop-color="#9571F6" offset="100%"/></linearGradient><linearGradient x1="99.997%" y1="49.991%" x2="0%" y2="49.991%" id="linearGradient-15"><stop stop-color="#E38DDD" offset="0%"/><stop stop-color="#9571F6" offset="100%"/></linearGradient><linearGradient x1="35.079%" y1="6.656%" x2="113.134%" y2="240.521%" id="linearGradient-16"><stop stop-color="#FCB148" offset="0%"/><stop stop-color="#FDBA46" offset="5%"/><stop stop-color="#FFC244" offset="14%"/><stop stop-color="#FFC444" offset="32%"/><stop stop-color="#FDB946" offset="48%"/><stop stop-color="#F99C4D" offset="78%"/><stop stop-color="#F8924F" offset="87%"/><stop stop-color="#F8924F" offset="100%"/></linearGradient><linearGradient x1="-35.613%" y1="436.178%" x2="-67.991%" y2="580.595%" id="linearGradient-17"><stop stop-color="#FCB148" offset="0%"/><stop stop-color="#FDBA46" offset="5%"/><stop stop-color="#FFC244" offset="14%"/><stop stop-color="#FFC444" offset="32%"/><stop stop-color="#FDB946" offset="48%"/><stop stop-color="#F99C4D" offset="78%"/><stop stop-color="#F8924F" offset="87%"/><stop stop-color="#F8924F" offset="100%"/></linearGradient><linearGradient x1="1.34%" y1="165.304%" x2="68.489%" y2="11.073%" id="linearGradient-18"><stop stop-color="#FCB148" offset="0%"/><stop stop-color="#FDBA46" offset="5%"/><stop stop-color="#FFC244" offset="14%"/><stop stop-color="#FFC444" offset="32%"/><stop stop-color="#FDB946" offset="48%"/><stop stop-color="#F99C4D" offset="78%"/><stop stop-color="#F8924F" offset="87%"/><stop stop-color="#F8924F" offset="100%"/></linearGradient><linearGradient x1="117.673%" y1="51.175%" x2="17.511%" y2="54.724%" id="linearGradient-19"><stop stop-color="#AB316D" offset="0%"/><stop stop-color="#792D3D" offset="100%"/></linearGradient><linearGradient x1="109.844%" y1="98.819%" x2="59.486%" y2="37.466%" id="linearGradient-20"><stop stop-color="#AB316D" offset="0%"/><stop stop-color="#792D3D" offset="100%"/></linearGradient><linearGradient x1="5.742%" y1="179.299%" x2="24.328%" y2="133.28%" id="linearGradient-21"><stop stop-color="#444B8C" offset="0%"/><stop stop-color="#26264F" offset="100%"/></linearGradient><linearGradient x1="128.599%" y1="23.119%" x2="-36.057%" y2="-148.971%" id="linearGradient-22"><stop stop-color="#AB316D" offset="0%"/><stop stop-color="#792D3D" offset="100%"/></linearGradient><linearGradient x1="5.228%" y1="61.447%" x2="95.917%" y2="38.687%" id="linearGradient-23"><stop stop-color="#40447E" offset="0%"/><stop stop-color="#3C3B6B" offset="100%"/></linearGradient><linearGradient x1="-.007%" y1="50.003%" x2="99.999%" y2="50.003%" id="linearGradient-24"><stop stop-color="#FF9085" offset="0%"/><stop stop-color="#FB6FBB" offset="100%"/></linearGradient><linearGradient x1=".01%" y1="49.985%" x2="100%" y2="49.985%" id="linearGradient-25"><stop stop-color="#FF9085" offset="0%"/><stop stop-color="#FB6FBB" offset="100%"/></linearGradient><linearGradient x1="0%" y1="50.008%" x2="100.118%" y2="50.008%" id="linearGradient-26"><stop stop-color="#AB316D" offset="0%"/><stop stop-color="#792D3D" offset="100%"/></linearGradient><linearGradient x1="-.007%" y1="50.015%" x2="99.998%" y2="50.015%" id="linearGradient-27"><stop stop-color="#AB316D" offset="0%"/><stop stop-color="#792D3D" offset="100%"/></linearGradient><linearGradient x1="-15.718%" y1="513.553%" x2="-41.06%" y2="688.59%" id="linearGradient-28"><stop stop-color="#FCB148" offset="0%"/><stop stop-color="#FDBA46" offset="5%"/><stop stop-color="#FFC244" offset="14%"/><stop stop-color="#FFC444" offset="32%"/><stop stop-color="#FDB946" offset="48%"/><stop stop-color="#F99C4D" offset="78%"/><stop stop-color="#F8924F" offset="87%"/><stop stop-color="#F8924F" offset="100%"/></linearGradient></defs><g id="Page-1" stroke="none" stroke-width="1" fill="none" fill-rule="evenodd"><g id="WE-are-ready" transform="translate(-342 -3084)" fill-rule="nonzero"><g id="for-rent" transform="translate(342 3084)"><path d="M176.136 399.764C71.45 383.884-13.624 284.744 1.817 174.55 15.003 80.573 97.26 7.44 195.901.533c7.143-.5 14.368-.648 21.675-.445A215.364 215.364 0 01357.658 57.09c35.991 33.202 59.374 77.61 63.632 124.201 11.338 123.959-114.95 238.225-245.154 218.473z" id="Path" fill="#F4F7FA"/><path d="M291.002 242.328c-11.163-13.422-1.719-43.777 9.547-60.916 7.237-11 12.704-12.71 16.163-23.969 4.779-15.554-2.818-21.517 1.54-37.86 3.983-14.889 11.19-13.665 16.23-28.812 5.928-17.815-2.993-23.814 1.026-41.273 4.507-19.617 22.384-40.835 37.982-38.29 10.527 1.714 19.268 14.104 21.142 25.689 2.905 17.908-12.283 23.406-13.73 45.841a38.567 38.567 0 00.826 11.61c2.264 9.505 5.6 15.58 7.617 19.556 7.355 14.521 4.62 30.938 3.536 37.251-2.787 16.597-10.306 16.52-18.19 37.459-8.12 21.563-2.12 26.885-8.659 37.943-13.95 23.628-61.033 32.61-75.03 15.771z" id="Path" fill="url(#linearGradient-1)"/><g id="Group" transform="translate(297 6)" fill="#FFF" opacity=".7"><path d="M.324 250.675a.262.262 0 01-.221-.135.253.253 0 01.098-.35c21.546-11.988 34.747-26.289 39.237-42.516 2.234-8.072 1.869-14.135 1.482-20.55-.432-7.153-.875-14.554 2.06-25.58 3.022-11.27 7.424-15.923 11.682-20.416 4.072-4.302 7.918-8.367 10.6-17.838 3.955-13.991 2.168-23.928.273-34.454-1.544-8.666-3.176-17.626-1.874-29.66C65.824 39.122 76.43 19.41 95.175.563a.257.257 0 01.366 0 .259.259 0 010 .367c-18.663 18.752-29.218 38.368-31.37 58.303-1.292 11.956.32 20.88 1.869 29.516 1.905 10.582 3.707 20.575-.283 34.685-2.713 9.59-6.786 13.893-10.72 18.045-4.216 4.452-8.572 9.054-11.563 20.2-2.935 10.943-2.492 18.302-2.06 25.414.387 6.461.757 12.566-1.503 20.72-4.525 16.362-17.808 30.771-39.479 42.825a.231.231 0 01-.108.037z" id="Path" style="mix-blend-mode:soft-light"/><path d="M63.945 59.465a.258.258 0 01-.253-.206.254.254 0 01.196-.305c30.664-6.791 39.432-35.935 39.515-36.23a.267.267 0 11.515.145 56.397 56.397 0 01-8.202 15.695c-5.524 7.556-15.512 17.312-31.7 20.891l-.071.01zm-1.828 71.545h-.093c-16.125-6.135-23.39-22.47-26.643-35.093a106.716 106.716 0 01-3.203-26.153.263.263 0 01.258-.254.257.257 0 01.252.269A106.069 106.069 0 0035.9 95.783c3.228 12.498 10.41 28.674 26.33 34.727.13.055.195.201.148.335a.263.263 0 01-.262.166zm-21.032 41.58a.258.258 0 01-.005-.516c25.743-.728 40.92-14.435 49.112-25.823a75.972 75.972 0 0011.743-24.738.264.264 0 11.515.114 76.54 76.54 0 01-11.841 24.945c-8.269 11.465-23.565 25.306-49.524 26.019zm-12.511 55.95a.195.195 0 01-.087 0c-18.535-6.983-24.085-24.331-25.49-37.661a94.9 94.9 0 011.38-27.481.264.264 0 11.514.114 94.595 94.595 0 00-1.38 27.305c1.39 13.18 6.884 30.332 25.156 37.221a.253.253 0 01.15.33.257.257 0 01-.243.171z" id="Path" style="mix-blend-mode:soft-light"/></g><path d="M343.608 259.922c16.182 1.098 27.97-9.748 30.835-12.353 1.663-1.527 14.959-14.097 15.73-32.725.695-16.733-9.323-23.36-5.013-39.58a44.99 44.99 0 016.122-13.254c6.672-9.417 12.224-8.314 16.984-16.013 5.092-8.242 3.776-17.675 2.922-23.815-1.036-7.512-2.01-14.413-7.728-18.348-5.59-3.842-13.986-3.65-19.802-.197-8.982 5.307-5.268 14.362-15.835 25.4-6.671 6.968-9.79 5.073-14.627 11.907-5.258 7.435-3.3 12.115-7.252 20.657-4.014 8.693-9.354 11.012-17.13 18.338-7.411 6.98-23.266 21.91-23.8 38.591-.585 18.255 17.135 39.932 38.594 41.392z" id="Path" fill="url(#linearGradient-2)"/><g id="Group" transform="translate(320 94)" fill="#FFF" opacity=".7"><path d="M7.005 169.824a.259.259 0 01-.15-.472c21.161-15.14 32.074-30.512 32.443-45.693.15-6.084-1.329-11.459-2.76-16.652-2.217-8.034-4.308-15.622-.691-25.37 3.113-8.387 9.538-15.207 13.378-19.281 2.765-2.929 5.044-5.318 6.984-7.355 5.07-5.312 7.867-8.24 10.986-12.159C75.18 32.823 78.61 18.482 77.34.285a.26.26 0 01.238-.275.265.265 0 01.28.239c1.262 18.353-2.19 32.792-10.258 42.92-3.114 3.928-5.932 6.862-11.017 12.19-1.94 2.037-4.219 4.42-6.98 7.35-3.814 4.047-10.196 10.821-13.268 19.109-3.56 9.593-1.49 17.103.7 25.054 1.443 5.23 2.932 10.635 2.782 16.803-.374 15.347-11.36 30.86-32.661 46.097a.239.239 0 01-.15.052z" id="Path" style="mix-blend-mode:soft-light"/><path d="M69.732 49.18a58.905 58.905 0 01-6.31-.352.261.261 0 11.057-.518c14.603 1.555 22.387-2.426 26.351-6.054 4.281-3.928 5.143-8.292 5.153-8.329a.263.263 0 01.519.094c-.036.186-.888 4.55-5.288 8.593-3.43 3.14-9.647 6.567-20.482 6.567zM43.958 68.917a.26.26 0 01-.146-.041c-14.094-9.386 1.178-34.368 1.334-34.617a.26.26 0 01.441.275c-.15.243-15.163 24.8-1.484 33.912a.259.259 0 01-.145.471zm-4.551 50.586a.262.262 0 11-.078-.519c26.522-8.443 27.503-30.579 27.503-30.817a.26.26 0 01.518 0c0 .228-.996 22.742-27.865 31.294l-.078.042zM25.38 153.912h-.083c-14.01-4.825-22.443-17.389-24.389-36.337a99.622 99.622 0 011.308-27.423.265.265 0 01.519.109 98.804 98.804 0 00-1.298 27.272c1.34 13.061 6.596 29.885 24.037 35.887a.26.26 0 01.16.332.265.265 0 01-.254.16z" id="Path" style="mix-blend-mode:soft-light"/></g><path id="Path" fill="#D8DEE8" d="M359 261.04v-36.623L48 224v36.302L115.524 276zM358 139v3.842l21 .158-4.646-3.949z"/><path id="Path" fill="url(#linearGradient-3)" d="M115 239l-67-14.538V138l67 .653z"/><path d="M375 138.707l-15.458.3v86.046l-155.202 8.85-64.29 3.67L115 239v-99.368l107.747-30.674L286.98 47 375 138.707zm-44.036 78.774v-85.225l-94.596-.16v90.238l94.596-4.853z" id="Shape" fill="url(#linearGradient-4)"/><g id="Group" opacity=".2" transform="translate(98 45)" fill="#D8DEE8"><path id="Path" d="M277.897 93.538L190.895 3.062 188.23.292l-2.646 2.523-63.78 60.847L14.98 93.523.33 97.621v2.235h16.334V98.41l107.253-29.984 64.529-61.462 83.348 86.574z"/></g><path id="Path" fill="#FFF" d="M285.97 40l2.666 2.796 88.09 92.207 2.274 2.378v6.042l-.295.026-4.554-4.76-87.965-91.964-64.553 61.952-106.373 31.531L98 145v-6.896l14.655-4.13 106.864-30.1 63.803-61.33z"/><path d="M330 133.088V216.3l-93 4.7v-88l93 .088zm-4.937 75.281v-69.855l-22.349.052v70.82l22.349-1.037v.02zm-28.424 1.297v-71.064l-23.139.057v72.102l23.139-1.038v-.057zm-29.432 1.338v-72.34l-23.98.057v73.373l23.98-1.09z" id="Shape" fill="#FFF"/><path d="M235 223v-93l97 .094v87.952L235 223zm4.557-88.41v83.58l87.886-4.48v-79.011l-87.886-.089zm1.642 79.459v-78.314l28.414-.068v77.08L241.2 214.05zm4.557-73.734v68.93l19.28-.885v-68.092l-19.28.047zm25.536 72.339V135.63l27.557-.068v75.842l-27.557 1.249zm4.52-72.412v67.624l18.45-.848v-66.823l-18.45.047zm24.504 71.116v-75.763l26.771-.068v74.582l-26.771 1.25zm4.551-71.168v66.344l17.663-.812v-65.574l-17.663.042z" id="Shape" fill="#FFF"/><path id="Path" fill="url(#linearGradient-5)" d="M287 40l-2.65 2.546-63.882 61.397L143 108l58.268-53.728 2.432-2.236z"/><path id="Path" fill="#F4F7FA" d="M164 182.428l32-.428-.02 73.123L164 257z"/><path id="Path" fill="#97A6B7" d="M157 253v-67.567l37-.433v65.243z"/><path id="Path" fill="#D8DEE8" d="M139 259v-84.35l64-.65v80.863l-6.965.398v-72.269l-32.682.496v74.128z"/><path id="Path" fill="url(#linearGradient-6)" d="M220 104l-106.487 30.782L98.91 139 34 138.514l13.026-3.632 95.872-26.738z"/><path id="Path" fill="#FFF" d="M98 145l-65-1.559V137l65 .521z"/><path id="Path" fill="url(#linearGradient-7)" d="M324 140v68.04l-21 .96v-68.944z"/><path id="Path" fill="url(#linearGradient-8)" d="M267 138v71.947L244 211v-72.937z"/><path id="Path" fill="url(#linearGradient-9)" d="M296 140v69.008L274 210v-69.939z"/><path id="Path" fill="#F4F7FA" d="M140 259.424L204.038 255 219 271.459 140 275z"/><path d="M114.429 368.122c-6.605 1.776-15.444 2.904-25.158.518-10.506-2.588-25.677-10.139-25.332-18.43.124-3.106 2.425-6.527 5.24-7.282 4.165-1.118 6.63 4.368 15.825 8.017 1.699.672 10.486 4.14 13.127.988 1.313-1.552.844-4.477-.16-6.454-2.924-5.78-10.615-4.094-20.01-8.136-9.518-4.099-19.561-13.575-18.933-22.643.376-5.206 4.319-10.62 8.087-10.837 1.612-.093 2.96.781 10.785 8.83 6.424 6.608 8.046 8.622 10.656 8.539 2.687-.088 6.1-2.396 6.692-5.295 1.544-7.55-17.78-11.029-25.379-27.948-3.408-7.582-5.384-19.91.778-24.894 4.17-3.374 11.84-3.224 15.845.29 3.603 3.167 1.966 7.1 6.78 15.387 1.461 2.515 4.468 7.685 6.79 7.189 2.728-.585 3.155-8.7 3.222-10.662.515-14.781-7.665-19.377-5.102-27.379 2.003-6.241 9.426-11.101 16.736-10.915 6.388.166 12.87 4.208 15.243 9.953 2.404 5.838-.49 13.534-6.27 28.931-2.744 7.298-5.148 12.421-2.981 17.944 1.06 2.68 3.485 6.127 5.55 5.791 4.55-.756.55-18.834 9.754-25.122 4.71-3.22 12.113-2.826 16.607.87 5.503 4.528 6.054 13.528 3.207 19.382-3.721 7.634-11.062 5.455-19.66 15.294-3.808 4.363-9.265 12.706-6.527 17.017a6.423 6.423 0 006.471 2.556c5.457-1.273 4.119-10.537 11.243-17.343 5.117-4.901 13.626-7.597 16.839-4.865 4.53 3.861-1.591 18.477-5.195 25.252-4.365 8.208-15.592 24.806-44.77 35.457z" id="Path" fill="url(#linearGradient-10)"/><g id="Group" opacity=".5" transform="translate(110 260)" fill="#FFF"><path d="M5.955 103.922C.16 89.714-.67 56.786 1.3 40.358 3.22 24.35 2.15.518 2.14.274L3.255.217c0 .243 1.09 24.174-.845 40.28C.455 56.803 1.26 89.44 6.985 103.473l-1.03.45z" id="Path"/></g><path d="M110.287 365.689c-4.778-7.402-11.665-20.682-12.203-38.036-.221-7.148-.652-21.117 8.334-32.717 4.48-5.78 13.799-14.208 19.7-11.367 3.798 1.824 5.907 8.19 4.62 12.886-1.289 4.696-5.353 4.991-10.095 12.911-1.755 2.929-3.767 6.37-2.443 8.434 1.109 1.72 4.342 2.177 6.83 1.296 5.132-1.825 3.855-8.232 9.51-12.518 4.023-3.043 10.546-4.256 13.21-1.478 2.308 2.416 1.641 7.776-.663 11.238-3.69 5.562-9.75 3.592-14.04 9.662-1.904 2.695-3.362 6.832-1.884 8.563 1.678 1.975 6.964.59 10.402-1.343 4.532-2.55 4.834-5.479 7.754-5.701 3.254-.254 7.185 3.047 7.631 6.525.662 4.868-5.444 9.792-10.191 11.834-6.076 2.592-10.413.7-13.497 4.52-1.134 1.4-2.217 3.722-1.411 5.183 1.15 2.11 5.686 1.649 8.693 1.343 7.328-.746 9.458-3.317 12.003-1.902 2.546 1.415 3.736 5.935 2.448 8.988-.713 1.695-2.745 4.276-12.27 5.504-6.687.84-17.818 1.14-32.438-3.825z" id="Path" fill="url(#linearGradient-11)"/><path d="M20 27.058l.516 52.67a15.34 15.34 0 006.046 12.032 14.807 14.807 0 005.732 2.785c1.039.27 2.105.422 3.178.455h155.363c1.165 0 1.604-1.734.624-2.36l-29.405-19.076-.908-49.55c-.16-8.518-7.434-15.25-16.204-15.008l-1.919.042-12.412.32-95.996 2.464c-8.183.256-14.669 7.013-14.615 15.226z" id="Path" fill="url(#linearGradient-12)"/><path d="M16 26.984l.52 52.56a15.519 15.519 0 008.63 13.738c1.951.921 4.152 1.718 6.42 1.718h111.614c8.87 0 15.974-7.244 15.813-15.839l-.093-5.505-.914-49.58c-.15-7.958-6.55-14.385-14.578-15.006a14.575 14.575 0 00-1.718-.067l-10.743.264-100.248 2.587c-8.214.214-14.748 6.938-14.703 15.13z" id="Path" fill="url(#linearGradient-13)"/><path d="M149.648 67l38.822 24.934c.43.265.628.788.482 1.274-.146.485-.6.81-1.103.791H133L149.648 67z" id="Path" fill="url(#linearGradient-14)"/><path d="M49.128 28.01c.917.09 1.625.838 1.654 1.748l.058 3.086c1.814.162 3.617.435 5.398.817 1.327.278 2.648.622 3.964 1.029a1.796 1.796 0 011.269 1.82l-.302 3.851c-.022.482-.287.92-.705 1.17a1.471 1.471 0 01-1.375.065 22.905 22.905 0 00-2.663-.92 24.129 24.129 0 00-5.01-.829l-.457-.025.172 8.782c4.68 1.199 8.16 2.87 10.402 5.014a10.95 10.95 0 013.464 8.073c.068 3.518-1.087 6.361-3.485 8.531-2.397 2.17-5.825 3.45-10.267 3.8l.068 3.384c.014.418-.144.824-.438 1.124-.295.3-.7.47-1.123.47h-.03a1.706 1.706 0 01-1.66-1.666l-.068-3.337h-.722a47.303 47.303 0 01-5.997-.515 40.078 40.078 0 01-4.161-.858 1.771 1.771 0 01-1.337-1.8l.354-4.952a1.54 1.54 0 01.739-1.232 1.576 1.576 0 011.445-.1 32.067 32.067 0 009.477 1.96l-.162-9.77c-4.507-1.03-7.886-2.59-10.137-4.68-2.257-2.119-3.427-4.86-3.49-8.228-.073-3.481 1.082-6.17 3.443-8.12 2.362-1.948 5.722-2.92 10.112-3.002l-.063-3.137c-.034-.433.13-.857.446-1.158.316-.3.752-.446 1.187-.395zm-1.394 11.755a5.514 5.514 0 00-3.214 1.193 3.263 3.263 0 00-1.113 2.658 3.504 3.504 0 001.129 2.597 7.63 7.63 0 003.354 1.615l-.156-8.063zm3.22 17.638l.177 8.957c1.508-.025 2.652-.4 3.448-1.13a3.812 3.812 0 001.144-3.04 4.089 4.089 0 00-1.18-2.926 8.213 8.213 0 00-3.589-1.861zM84.126 27.01a1.824 1.824 0 011.659 1.748l.057 3.086a46.65 46.65 0 015.393.817c1.331.283 2.652.628 3.968 1.029a1.796 1.796 0 011.268 1.815l-.301 3.856a1.44 1.44 0 01-.708 1.165 1.476 1.476 0 01-1.372.07 23.24 23.24 0 00-2.663-.921 24.122 24.122 0 00-5.008-.828l-.458-.026.172 8.783c4.68 1.198 8.154 2.87 10.4 5.014a10.97 10.97 0 013.464 8.073c.066 3.517-1.095 6.36-3.484 8.53-2.413 2.186-5.824 3.451-10.266 3.796l.068 3.388c.014.424-.148.834-.449 1.136a1.57 1.57 0 01-1.142.459 1.712 1.712 0 01-1.66-1.667l-.067-3.337h-.723a48.257 48.257 0 01-5.996-.514c-1.402-.212-2.79-.5-4.16-.864a1.766 1.766 0 01-1.337-1.795l.349-4.951a1.54 1.54 0 01.74-1.236c.438-.266.98-.302 1.45-.096 1.19.439 2.406.81 3.64 1.11 1.915.457 3.868.741 5.834.849l-.166-9.77c-4.498-1.029-7.889-2.571-10.136-4.68-2.246-2.108-3.421-4.859-3.489-8.227-.07-3.48 1.08-6.186 3.448-8.12 2.368-1.933 5.738-2.934 10.11-3.002l-.063-3.137a1.436 1.436 0 01.442-1.158c.315-.3.75-.446 1.186-.395zm-1.389 11.755a5.544 5.544 0 00-3.219 1.193 3.278 3.278 0 00-1.108 2.658 3.504 3.504 0 001.129 2.597 7.628 7.628 0 003.354 1.615l-.156-8.063zm3.22 17.637l.176 8.958c1.508 0 2.652-.406 3.443-1.131a3.822 3.822 0 001.149-3.04 4.09 4.09 0 00-1.18-2.93 8.296 8.296 0 00-3.589-1.851v-.006zm35.163-30.394a1.82 1.82 0 011.655 1.749l.062 3.085a46.71 46.71 0 015.397.818c1.332.28 2.654.624 3.965 1.028a1.79 1.79 0 011.275 1.815l-.307 3.857c-.022.482-.287.92-.706 1.169a1.472 1.472 0 01-1.375.065 23.03 23.03 0 00-2.67-.925 24.448 24.448 0 00-5.006-.823l-.458-.031.172 8.783c4.683 1.203 8.16 2.875 10.408 5.019a10.967 10.967 0 013.465 8.073c.066 3.518-1.098 6.361-3.491 8.531-2.41 2.18-5.824 3.45-10.268 3.795l.068 3.39c.014.423-.148.833-.45 1.135a1.573 1.573 0 01-1.143.459 1.713 1.713 0 01-1.66-1.667l-.067-3.342h-.724a48.405 48.405 0 01-6.005-.514 39.438 39.438 0 01-4.163-.864 1.766 1.766 0 01-1.332-1.795l.348-4.952a1.54 1.54 0 01.738-1.236 1.578 1.578 0 011.448-.101 32.557 32.557 0 009.508 1.96l-.167-9.771c-4.51-1.008-7.89-2.566-10.142-4.675-2.252-2.108-3.416-4.85-3.492-8.227-.066-3.483 1.084-6.192 3.45-8.125 2.366-1.934 5.736-2.933 10.111-2.998l-.057-3.137a1.436 1.436 0 01.44-1.148c.31-.299.741-.445 1.173-.4zm-1.395 11.756a5.498 5.498 0 00-3.216 1.193 3.277 3.277 0 00-1.108 2.658 3.523 3.523 0 001.124 2.571 7.688 7.688 0 003.362 1.615l-.162-8.037zm3.227 17.633l.177 8.963c1.504 0 2.654-.407 3.445-1.132a3.821 3.821 0 001.15-3.039 4.088 4.088 0 00-1.181-2.931 8.303 8.303 0 00-3.591-1.861z" id="Shape" fill="#FFF"/><path d="M26 93.282c1.933.921 4.114 1.718 6.36 1.718h158.48c1.161 0 1.599-1.734.622-2.36l-29.31-19.074-.906-49.543c-.16-8.517-7.41-15.25-16.151-15.007l-1.913.042a14.308 14.308 0 00-1.702-.052l-10.645.274v.093a57.93 57.93 0 00-2.21 10.184 108.112 108.112 0 01-1.975 11.183 74.393 74.393 0 01-2.057 7.28c-1.867 5.43-4.145 9.709-6.773 13.109a30.683 30.683 0 01-7.929 7.28c-9.4 5.962-21.114 6.262-32.91 7.762-17.864 2.252-33.265 7.354-49.818 25.76-.432.378-.797.927-1.162 1.351z" id="Path" fill="url(#linearGradient-15)" opacity=".2" style="mix-blend-mode:multiply"/><path id="Rectangle" fill="#ACB4BF" d="M307 327h78v4h-78z"/><path d="M351 389.002a10.642 10.642 0 01-9 0V331h9v58.002z" id="Path" fill="#ACB4BF"/><path d="M297 222s20.742 6.143 27.337 22.759c6.596 16.615 12.016 20.638 17.56 19.874 5.543-.764 21.732-14.87 30.699 3.41 8.967 18.278-1.12 37.134-14.696 44.01-13.576 6.876-42.427 2.5-50.024-21.439C300.28 266.676 297 222 297 222z" id="Path" fill="url(#linearGradient-16)"/><path d="M306.063 362.504c3.885-6.392-.999-12.552-2.112-24.661-1.259-13.721 4.078-16.008 9.362-38.748 3.51-15.128 6.88-29.647 2.86-46.639-1.93-8.148-5.2-21.962-16.742-28.637-5.96-3.441-14.094-3.09-30.123-2.267-19.816 1.03-29.723 1.545-37.114 5.393-1.082.561-23.565 12.676-25.115 32.413-1.56 20.087 20.523 22.796 23.466 49.59 1.327 12.027-1.04 30.528-2.564 42.523-1.466 11.522-2.475 14.474-.182 17.96 5.534 8.406 22.473 6.011 56.352 1.221 13.288-1.88 19.01-3.379 21.912-8.148z" id="Path" fill="url(#linearGradient-17)"/><path d="M254.79 304.067c-1.413 5.264-6.483 9.194-10.017 21.997-.763 2.767-6.191 22.448.85 27.297 4.072 2.798 7.724-2.502 17.597-3.198 17.116-1.2 25.27 13.379 36.449 9.402 1.936-.696 4.497-2.165 7.052-5.55.512 3.048.425 5.71-1.168 8.38-2.857 4.807-8.49 6.318-21.58 8.212-33.361 4.829-50.041 7.269-55.49-1.23-2.259-3.515-1.265-6.49.179-18.103 1.505-12.091 3.83-30.74 2.525-42.862-2.9-26.996-24.66-29.732-23.108-49.985.415-5.41 2.382-10.232 5.009-14.427 27.599 11.323 46.138 43.51 41.703 60.067z" id="Path" fill="url(#linearGradient-18)" opacity=".2" style="mix-blend-mode:multiply"/><path d="M220 345.037l5.474 3.617a12.762 12.762 0 016.815-4.351c4.002-.909 8.598.393 8.71 1.716.08 1.05-2.718 2.1-3.15 2.288-3.493 1.333-6.093.226-7.495 1.68a10.792 10.792 0 01-2.539 2.351 7.18 7.18 0 01-.98.525c-2.33.94-6.332-3.254-6.672-3.621l-.163-4.205z" id="Path" fill="url(#linearGradient-19)"/><path d="M269.882 204s-1.296 7.39-4.27 12.638c-2.686 4.751-13.783 6.446-16.093 7.27-2.31.823 3.483 4.961 9.646 6.466 6.164 1.504 24.181 2.497 27.736.528 3.555-1.97-2.29-2.603-6.534-4.894-4.244-2.29-5.66-11.614-4.332-15.557 1.328-3.943-6.153-6.451-6.153-6.451z" id="Path" fill="url(#linearGradient-20)"/><path d="M281.15 206.07c4.45-1.658 5.045-1.818 5.843-2.698 3.213-3.532 2.415-10.52-1.301-13.696-.193-.165-2.678-2.266-4.354-1.514-1.408.638-.659 2.636-2.206 4.35-1.451 1.602-3.213 1.03-7.39 2.2-3.46.942-5.607 1.544-6.764 3.135-2.377 3.306-.171 10.442 3.926 11.971 1.483.551 2.2 0 12.247-3.748z" id="Path" fill="url(#linearGradient-21)"/><path d="M269.534 209.811s1.644 5.205 7.046 6.143c4.843.841 8.053-10.072 5.546-13.17-.837-1.029-2.801-1.854-4.564-1.78-1.034.049-1.468.387-3.169.43-1.55.037-1.954-.236-2.486.042-.672.354-1.35 1.448-1.153 4.92-.693-1.178-1.7-1.81-2.585-1.607-.299.084-.57.253-.78.488-.93 1.088-.181 2.975 2.145 4.534z" id="Path" fill="url(#linearGradient-22)"/><path d="M364.798 266.965l14.897 38.677c.261.676.357 1.406.278 2.127a4.936 4.936 0 01-3.015 4.003l-136.23 58.62c-3.125 1.345-6.702.397-7.733-2.24l-16.732-43.438a4.691 4.691 0 01.356-3.88 7.153 7.153 0 013.742-3.27l138.334-53.21a4.641 4.641 0 016.103 2.611z" id="Path" fill="url(#linearGradient-23)"/><path d="M364.748 263.98l14.94 38.878a4.668 4.668 0 01-.114 3.624 4.956 4.956 0 01-2.584 2.522L241.72 367.4c-3.102 1.342-6.658.373-7.677-2.273l-16.78-43.663a4.325 4.325 0 01-.258-1.144 5.65 5.65 0 011.68-4.257 7.18 7.18 0 012.631-1.76l137.353-52.964a4.645 4.645 0 013.591.047 4.657 4.657 0 012.488 2.594z" id="Path" fill="url(#linearGradient-24)"/><path id="Path" fill="#FFF" d="M242.061 324.63L232 328.61l7.92 20.39 4.475-1.842-3.119-8.033 6.724-2.73-1.362-3.504-6.755 2.704-2.035-5.24 7.119-2.841-1.368-3.514z"/><path d="M266.147 319.602a8.209 8.209 0 00-2.321-1.785c-2.173-1.111-4.698-1.089-7.575.067-2.89 1.17-4.791 2.924-5.693 5.284a8.768 8.768 0 00-.548 2.536 14.137 14.137 0 001.066 5.93c1.25 3.275 2.986 5.466 5.206 6.574 2.22 1.107 4.763 1.054 7.626-.16 2.856-1.208 4.711-2.994 5.565-5.357.854-2.364.67-5.155-.553-8.374a14.382 14.382 0 00-2.773-4.715zm-3.587 14.962c-1.578.663-2.983.6-4.197-.176-1.215-.776-2.25-2.267-3.075-4.46-.786-2.043-1.037-3.76-.753-5.15 0-.11.046-.207.071-.306a4.586 4.586 0 012.952-3.105c1.709-.69 3.186-.557 4.433.399 1.09.817 2.023 2.242 2.798 4.274 1.691 4.368.962 7.21-2.188 8.524h-.041zm20.852-13.468a6.33 6.33 0 001.711-3.037 5.437 5.437 0 00-.26-3.29c-.746-1.893-1.896-3.073-3.448-3.542-1.556-.461-3.553-.223-6.052.749l-5.363 2.09L277.468 333l3.983-1.62-2.857-7.242 2.001-.8 7.152 5.517 4.253-1.731c-1.32-.901-4.184-2.91-8.588-6.028zm-2.531-2.338c-.42.647-1.172 1.19-2.407 1.68l-1.182.476-2.012-5.107 1.115-.43c1.255-.506 2.225-.658 2.971-.506.501.1.94.391 1.22.81.165.231.3.483.398.748a2.477 2.477 0 01-.103 2.329zm27.993-9.681a6.476 6.476 0 001.593-3.01 5.79 5.79 0 00-.29-3.288c-.71-1.892-1.8-3.075-3.271-3.547-1.471-.475-3.434-.217-5.783.745L296 302.045 303.157 321l3.094-1.308.807-.336-2.74-7.239 1.888-.786 6.797 5.512 3.997-1.696a909.986 909.986 0 01-8.126-6.07zm-2.4-2.358c-.39.652-1.105 1.19-2.262 1.67l-1.126.466-1.927-5.109 1.055-.43a4.99 4.99 0 012.8-.516c.741.205 1.32.795 1.522 1.551.37.759.347 1.656-.061 2.394v-.026z" id="Shape" fill="#FFF"/><path id="Path" fill="#FFF" d="M325.205 296.116l-1.22-3.116-9.985 3.916L321.07 315l9.93-4.06-1.23-3.147-6.389 2.596-1.818-4.646 5.689-2.29-1.22-3.121-5.693 2.275-1.55-3.956zm14.459-11.806l3.349 8.879c.379 1.012 1.007 2.698 2.107 5.269l-.083.032-12.547-11.175-4.49 1.75L335.138 308l2.896-1.24-3.348-8.885c-.41-1.06-1.038-3.064-2.024-5.253l.103-.043 12.714 11.132 4.521-1.993L342.945 283l-3.28 1.31zm7.336-1.566l1.271 3.184 4.474-1.738L358.66 299l3.34-1.349-5.899-14.764 4.479-1.738-1.26-3.149z"/><path d="M380 307.96a4.923 4.923 0 01-3.016 3.992l-136.253 58.442c-3.124 1.34-6.702.396-7.733-2.234l-16.734-43.305a4.664 4.664 0 01.355-3.868 5.588 5.588 0 011.676-4.222 23.877 23.877 0 016.258-.642 14.94 14.94 0 018.038 2.486c3.707 2.568 6.341 5.136 9.398 6.795a13.912 13.912 0 008.398 1.572 21.565 21.565 0 001.913-.283 26.194 26.194 0 002.65-.637 47.154 47.154 0 007.501-3.015c1.397-.688 2.784-1.407 4.17-2.121 1.919-.991 3.847-1.967 5.826-2.825a40.672 40.672 0 013.934-1.484c.588-.19 1.186-.36 1.789-.514a23.2 23.2 0 013.263-.586 26.017 26.017 0 014.511-.082c5.862.4 11.466 2.6 17.07 4.51a92.77 92.77 0 004.01 1.274c4.64 1.361 9.353 2.173 14.24 1.258 7.537-1.417 14.585-6.133 21.23-9.718 8.697-4.695 18.111-9.097 28.237-8.732.65 0 5.072 1.685 8.021 3.257.475.22.887.452 1.248.683z" id="Path" fill="url(#linearGradient-25)" opacity=".3" style="mix-blend-mode:multiply"/><path d="M220 349.46c.895.057 8.04 5.282 9.058 2.933 1.018-2.348.702-5.436 2.326-8.73 1.624-3.296-4.963-6.808 1.608-8.08 6.57-1.273-4.76-6.254-8.608-4.01-3.848 2.246-2.326 10.62-1.608 11.437.718.818-2.776 6.45-2.776 6.45z" id="Path" fill="url(#linearGradient-26)"/><path d="M357.69 260s-19.513.073-17.552 5.845c1.961 5.772 8.088 2.478 12.387-.816 4.3-3.293 6.292-3.743 5.164-5.029z" id="Path" fill="url(#linearGradient-27)"/><path d="M235.82 272.21c3.995-9.622 6.76-24.346.45-46.21-41.577 16.474-62.781 55.502-54.5 86.448 6.823 25.514 31.653 37.937 37.194 40.552l3.867-8.845c-6.417-7.207-13.654-17.807-12.63-29.931 1.419-16.809 17.526-22.56 25.619-42.014z" id="Path" fill="url(#linearGradient-28)"/></g></g></g></svg>