<svg width="116" height="112" xmlns="http://www.w3.org/2000/svg" xmlns:xlink="http://www.w3.org/1999/xlink"><defs><path id="path-1" d="M82.046.538h6.908v10.925h-6.908z"/><path id="path-3" d="M61.045.538h6.91v10.925h-6.91z"/></defs><g id="Page-1" stroke="none" stroke-width="1" fill="none" fill-rule="evenodd"><g id="Index" transform="translate(-902 -3105)"><g id="Group-11" transform="translate(902 3105)"><path d="M102.237 82.403V68.591c0-4.353-3.527-7.892-7.864-7.892s-7.865 3.54-7.865 7.892V80.43h-3.932V60.14a3.91 3.91 0 00.612-.438l11.185-9.952 11.197 9.964c.189.164.39.308.6.434v22.255h-3.933zM90.441 80.71V68.591a3.943 3.943 0 013.932-3.946 3.943 3.943 0 013.932 3.946v13.812h-4.683a7.799 7.799 0 00-3.181-1.693zM63.523 63.068c-.042-.136-.106-.262-.15-.396h15.271V80.43h-9.913l-5.208-17.362zm-8.651-10.566l6.156-6.728c.5-.547 1.209-.86 1.948-.86h16.657l-5.58 4.974a3.906 3.906 0 00-1.307 2.918c0 1.058.41 2.05 1.152 2.79l3.118 3.13H61.55a17.789 17.789 0 00-6.677-6.224zm39.465-15.48l17.719 15.796-3.889 3.932-13.794-12.272L80.61 56.752l-3.932-3.922 17.66-15.809zM35.39 52.805c-2.4 0-3.932-1.168-3.932-1.973v-4.528a13.62 13.62 0 003.932.582c1.366 0 2.686-.207 3.932-.582v4.528c0 .805-1.532 1.973-3.932 1.973zm-9.83-19.731v-7.643c2.188 1.06 4.808 1.723 7.864 1.723V23.21c-8.226 0-11.793-5.785-11.797-8.735-.002-1.172.087-1.85 1.107-5.631 2.519 1.843 4.461 2.527 8.724 2.527h5.898c4.337 0 7.864 3.54 7.864 7.893v13.812c0 5.44-4.41 9.865-9.83 9.865s-9.83-4.425-9.83-9.865zm9.065 59.08a7.83 7.83 0 006.663-7.779c0-4.353-3.527-7.892-7.864-7.892-.395 0-.78.049-1.198.114l-13.261 2.034-1.081-10.329 23.628-3.388 3.52 33.561-23.629 3.388-.794-7.545 14.016-2.165zm76.29-32.613l3.929-3.942A3.921 3.921 0 00116 52.806a3.906 3.906 0 00-1.307-2.918L96.93 34.053a3.915 3.915 0 00-5.136.016l-7.736 6.898H62.976c-1.836 0-3.606.78-4.846 2.137l-7.216 7.89c-.17-.043-.33-.11-.501-.147l-7.159-1.596v-4.858c3.56-2.5 5.899-6.638 5.899-11.318V19.263c0-6.53-5.291-11.839-11.797-11.839h-5.898c-4.214 0-5.018-.554-8.58-3.496L20.542 2l-.81 2.922c-1.756 6.346-2.04 7.514-2.037 9.556.004 2.624 1.347 5.748 3.932 8.238v10.359c0 4.68 2.338 8.818 5.898 11.318v4.858l-7.16 1.596c-6.24 1.393-11.264 6.075-13.11 12.22L.368 86.025C.122 86.836 0 87.588 0 88.322c0 4.353 3.527 7.893 7.864 7.893.378 0 .744-.045 1.188-.113l7.668-1.183.975 9.29V112h3.932v-6.182l27.714-3.972-4.345-41.418-31.422 4.505 1.5 14.297-3.572.549.593 3.899 20.749-3.185c.19-.026.381-.063.58-.063a3.943 3.943 0 013.932 3.946 3.912 3.912 0 01-3.33 3.88L8.4 92.21c-.175.024-.352.058-.537.058a3.943 3.943 0 01-3.932-3.947c0-.34.061-.7.2-1.148l6.89-22.971A13.803 13.803 0 0121.218 54.7l6.915-1.543c1.178 2.133 3.948 3.595 7.257 3.595 3.309 0 6.079-1.462 7.257-3.595L49.56 54.7a13.804 13.804 0 0110.198 9.505l6.051 20.171h22.666a3.943 3.943 0 013.932 3.946 3.943 3.943 0 01-3.932 3.947H60.949a3.943 3.943 0 01-3.932-3.947V72.537h-3.932V112h3.932V95.118c1.162.679 2.493 1.097 3.932 1.097h27.526c4.337 0 7.864-3.54 7.864-7.893 0-.684-.116-1.34-.28-1.973h17.975v-3.946h-3.932v-22.25c.29-.17.57-.364.814-.61z" id="Fill-1" fill="#A4193B"/><path id="Fill-3" fill="#A4193B" d="M113 13.573L110.427 11 103 18.427 105.573 21z"/><mask id="mask-2" fill="#fff"><use xlink:href="#path-1"/></mask><path id="Fill-5" fill="#A4193B" d="M88.954 1.333L84.38.537l-2.334 10.13 4.576.796z"/><mask id="mask-4" fill="#fff"><use xlink:href="#path-3"/></mask><path id="Fill-8" fill="#A4193B" d="M67.954 10.667L65.621.537l-4.575.797 2.333 10.13z"/></g></g></g></svg>