<svg width="56" height="52" xmlns="http://www.w3.org/2000/svg"><g id="Page-1" stroke="none" stroke-width="1" fill="none" fill-rule="evenodd" stroke-linecap="round" stroke-linejoin="round"><g id="WE-are-ready" transform="translate(-392 -5083)" stroke="#FFE455" stroke-width="2"><g id="Sale,-Discount,-Promotion,-Loyalty,-Card" transform="translate(393 5084)"><path id="Path" d="M17.097 38.953l10.8-10.588m.489 10.217a.594.594 0 010 .856.623.623 0 01-.873 0 .594.594 0 010-.856.628.628 0 01.873 0m-10.902-10.7a.594.594 0 010 .856.623.623 0 01-.873 0 .596.596 0 010-.856.625.625 0 01.873 0"/><path d="M39 50H6c-3.315 0-6-2.632-6-5.882V23.529c0-3.25 2.685-5.882 6-5.882h33c3.315 0 6 2.632 6 5.882v20.589C45 47.368 42.315 50 39 50z" id="Path"/><path d="M9 17.647V5.882C9 2.632 11.685 0 15 0h33c3.315 0 6 2.632 6 5.882v20.589c0 3.25-2.685 5.882-6 5.882h-3" id="Path"/></g></g></g></svg>