<svg width="477" height="459" xmlns="http://www.w3.org/2000/svg"><defs><linearGradient x1="50.14%" y1="48.668%" x2="50.045%" y2="49.398%" id="linearGradient-1"><stop stop-color="#444B8C" offset="0%"/><stop stop-color="#26264F" offset="100%"/></linearGradient><linearGradient x1="-159.986%" y1="50.328%" x2="-150.188%" y2="46.891%" id="linearGradient-2"><stop stop-color="#444B8C" offset="0%"/><stop stop-color="#26264F" offset="100%"/></linearGradient><linearGradient x1="100%" y1="49.993%" x2=".006%" y2="49.993%" id="linearGradient-3"><stop stop-color="#FF9085" offset="0%"/><stop stop-color="#FB6FBB" offset="100%"/></linearGradient><linearGradient x1="128.954%" y1="41.234%" x2="29.284%" y2="44.761%" id="linearGradient-4"><stop stop-color="#FF9085" offset="0%"/><stop stop-color="#FB6FBB" offset="100%"/></linearGradient><linearGradient x1="-3012.822%" y1="48.972%" x2="-3011.361%" y2="58.343%" id="linearGradient-5"><stop stop-color="#444B8C" offset="0%"/><stop stop-color="#26264F" offset="100%"/></linearGradient><linearGradient x1="-3438.594%" y1="51.289%" x2="-3436.843%" y2="63.327%" id="linearGradient-6"><stop stop-color="#444B8C" offset="0%"/><stop stop-color="#26264F" offset="100%"/></linearGradient><linearGradient x1="-4149.991%" y1="56.577%" x2="-4147.692%" y2="73.906%" id="linearGradient-7"><stop stop-color="#444B8C" offset="0%"/><stop stop-color="#26264F" offset="100%"/></linearGradient><linearGradient x1="0%" y1="50.001%" x2="100%" y2="50.001%" id="linearGradient-8"><stop stop-color="#E38DDD" offset="0%"/><stop stop-color="#9571F6" offset="100%"/></linearGradient><linearGradient x1="79.01%" y1="8.88%" x2="-10.771%" y2="136.152%" id="linearGradient-9"><stop stop-color="#FFC444" offset="0%"/><stop stop-color="#F36F56" offset="100%"/></linearGradient><linearGradient x1="0%" y1="50.002%" x2="100%" y2="50.002%" id="linearGradient-10"><stop stop-color="#EBEFF2" offset="49%"/><stop stop-color="#FFF" offset="100%"/></linearGradient><linearGradient x1="116.722%" y1="-2.367%" x2="39.688%" y2="69.114%" id="linearGradient-11"><stop stop-color="#AA80F9" offset="0%"/><stop stop-color="#6165D7" offset="100%"/></linearGradient><linearGradient x1="47.262%" y1="7.376%" x2="48.815%" y2="115.294%" id="linearGradient-12"><stop stop-color="#E38DDD" offset="0%"/><stop stop-color="#9571F6" offset="100%"/></linearGradient><linearGradient x1="137.131%" y1="10.133%" x2="19.866%" y2="60.302%" id="linearGradient-13"><stop stop-color="#444B8C" offset="0%"/><stop stop-color="#26264F" offset="100%"/></linearGradient><linearGradient x1="199.242%" y1="-17.907%" x2="50.832%" y2="47.378%" id="linearGradient-14"><stop stop-color="#444B8C" offset="0%"/><stop stop-color="#26264F" offset="100%"/></linearGradient><linearGradient x1="123.159%" y1="-6.244%" x2="13.759%" y2="66.206%" id="linearGradient-15"><stop stop-color="#444B8C" offset="0%"/><stop stop-color="#26264F" offset="100%"/></linearGradient><linearGradient x1="178.034%" y1="-33.379%" x2="42.078%" y2="49.031%" id="linearGradient-16"><stop stop-color="#444B8C" offset="0%"/><stop stop-color="#26264F" offset="100%"/></linearGradient><linearGradient x1="100%" y1="50.008%" x2="-.004%" y2="50.008%" id="linearGradient-17"><stop stop-color="#311944" offset="0%"/><stop stop-color="#6B3976" offset="100%"/></linearGradient><linearGradient x1="514.048%" y1="50.004%" x2="614.047%" y2="50.004%" id="linearGradient-18"><stop stop-color="#311944" offset="0%"/><stop stop-color="#6B3976" offset="100%"/></linearGradient><linearGradient x1="31.484%" y1="61.11%" x2="54.493%" y2="49.508%" id="linearGradient-19"><stop stop-color="#311944" offset="0%"/><stop stop-color="#5C3169" offset="74%"/><stop stop-color="#6B3976" offset="100%"/></linearGradient><linearGradient x1=".144%" y1="50.045%" x2="99.77%" y2="50.045%" id="linearGradient-20"><stop stop-color="#FFC444" offset="0%"/><stop stop-color="#F78E50" offset="64%"/><stop stop-color="#F36F56" offset="100%"/></linearGradient><linearGradient x1="99.999%" y1="49.997%" x2="-.004%" y2="49.997%" id="linearGradient-21"><stop stop-color="#FF9085" offset="0%"/><stop stop-color="#FB6FBB" offset="100%"/></linearGradient><linearGradient x1="34.815%" y1="-16.449%" x2="74.26%" y2="238.912%" id="linearGradient-22"><stop stop-color="#FFC444" offset="0%"/><stop stop-color="#F78E50" offset="64%"/><stop stop-color="#F36F56" offset="100%"/></linearGradient><linearGradient x1="-6.114%" y1="-433.24%" x2="245.767%" y2="1780.582%" id="linearGradient-23"><stop stop-color="#FFC444" offset="0%"/><stop stop-color="#F78E50" offset="64%"/><stop stop-color="#F36F56" offset="100%"/></linearGradient><linearGradient x1="84.787%" y1="25.271%" x2="42.74%" y2="79.023%" id="linearGradient-24"><stop stop-color="#FF9085" offset="0%"/><stop stop-color="#FB6FBB" offset="100%"/></linearGradient><linearGradient x1="100.001%" y1="49.997%" x2=".006%" y2="49.997%" id="linearGradient-25"><stop stop-color="#FF9085" offset="0%"/><stop stop-color="#FB6FBB" offset="100%"/></linearGradient><linearGradient x1="49.748%" y1="25.276%" x2="63.252%" y2="157.82%" id="linearGradient-26"><stop stop-color="#FFC444" offset="0%"/><stop stop-color="#F36F56" offset="100%"/></linearGradient><linearGradient x1=".006%" y1="50.033%" x2="100.001%" y2="50.033%" id="linearGradient-27"><stop stop-color="#FFC444" offset="0%"/><stop stop-color="#F78E50" offset="64%"/><stop stop-color="#F36F56" offset="100%"/></linearGradient><linearGradient x1="-3.754%" y1="49.147%" x2="95.78%" y2="50.537%" id="linearGradient-28"><stop stop-color="#444B8C" offset="0%"/><stop stop-color="#26264F" offset="100%"/></linearGradient><linearGradient x1="33.211%" y1="97.833%" x2="107.632%" y2="-67.67%" id="linearGradient-29"><stop stop-color="#FFC444" offset="0%"/><stop stop-color="#F36F56" offset="100%"/></linearGradient><linearGradient x1="-15.973%" y1="38.305%" x2="76.486%" y2="47.744%" id="linearGradient-30"><stop stop-color="#444B8C" offset="0%"/><stop stop-color="#26264F" offset="100%"/></linearGradient><linearGradient x1="-.475%" y1="115.61%" x2="112.237%" y2="-50.316%" id="linearGradient-31"><stop stop-color="#FFC444" offset="0%"/><stop stop-color="#F36F56" offset="100%"/></linearGradient><linearGradient x1="-2.316%" y1="83.553%" x2="-13.182%" y2="17.065%" id="linearGradient-32"><stop stop-color="#311944" offset="0%"/><stop stop-color="#5C3169" offset="74%"/><stop stop-color="#6B3976" offset="100%"/></linearGradient><linearGradient x1="-2.327%" y1="83.553%" x2="-13.194%" y2="17.065%" id="linearGradient-33"><stop stop-color="#311944" offset="0%"/><stop stop-color="#5C3169" offset="74%"/><stop stop-color="#6B3976" offset="100%"/></linearGradient><linearGradient x1="43.214%" y1="87.232%" x2="52.415%" y2="26.481%" id="linearGradient-34"><stop stop-color="#311944" offset="0%"/><stop stop-color="#5C3169" offset="74%"/><stop stop-color="#6B3976" offset="100%"/></linearGradient><linearGradient x1="-5.09%" y1="26.668%" x2="113.791%" y2="79.464%" id="linearGradient-35"><stop stop-color="#311944" offset="0%"/><stop stop-color="#6B3976" offset="100%"/></linearGradient><linearGradient x1="-.008%" y1="49.991%" x2="99.996%" y2="49.991%" id="linearGradient-36"><stop stop-color="#FFC444" offset="0%"/><stop stop-color="#F78E50" offset="64%"/><stop stop-color="#F36F56" offset="100%"/></linearGradient><linearGradient x1="-.008%" y1="49.995%" x2="99.996%" y2="49.995%" id="linearGradient-37"><stop stop-color="#FFC444" offset="0%"/><stop stop-color="#F78E50" offset="64%"/><stop stop-color="#F36F56" offset="100%"/></linearGradient><linearGradient x1="244.841%" y1="-290.943%" x2="313.606%" y2="-444.324%" id="linearGradient-38"><stop stop-color="#FFC444" offset="0%"/><stop stop-color="#F36F56" offset="100%"/></linearGradient><linearGradient x1="337.56%" y1="-688.979%" x2="448.064%" y2="-1039.866%" id="linearGradient-39"><stop stop-color="#FFC444" offset="0%"/><stop stop-color="#F36F56" offset="100%"/></linearGradient><linearGradient x1="49.076%" y1="40.939%" x2="78.355%" y2="173.581%" id="linearGradient-40"><stop stop-color="#FFC444" offset="0%"/><stop stop-color="#FCB048" offset="23%"/><stop stop-color="#F36F56" offset="100%"/></linearGradient><linearGradient x1="0%" y1="50.002%" x2="99.991%" y2="50.002%" id="linearGradient-41"><stop stop-color="#FFC444" offset="0%"/><stop stop-color="#F78E50" offset="64%"/><stop stop-color="#F36F56" offset="100%"/></linearGradient></defs><g id="Page-1" stroke="none" stroke-width="1" fill="none" fill-rule="evenodd"><g id="WE-are-ready" transform="translate(-1143 -3682)"><g id="Land-Development-and-Redevelopment" transform="translate(1143 3682)"><path d="M381.23 9.852a63.57 63.57 0 00-9.895 0 11.57 11.57 0 00-.219-.952c-1.766-6.203-8.179-9.846-14.412-8.187a11.427 11.427 0 00-7.72 15.157 62.837 62.837 0 00-8.494 4.918 13.255 13.255 0 00-.686-.733c-4.568-4.532-11.937-4.532-16.504 0a11.557 11.557 0 00.23 16.41c.237.23.485.443.739.65a61.673 61.673 0 00-4.818 8.53c-.313-.106-.626-.212-.946-.301a11.521 11.521 0 00-14.187 8.217c-1.533 6.246 2.235 12.565 8.46 14.187.319.083.644.148.969.207a62.022 62.022 0 00.13 9.836c-.32.06-.639.118-.958.207a11.438 11.438 0 00-8.051 14.187c1.777 6.198 8.183 9.839 14.418 8.193.325-.088.638-.195.946-.307a64.747 64.747 0 005.066 8.512 10.76 10.76 0 00-.733.662 11.557 11.557 0 00.236 16.41c4.571 4.53 11.939 4.53 16.51 0 .23-.236.438-.479.645-.727a64.51 64.51 0 008.648 4.906c-.106.308-.207.592-.29.934-1.536 6.246 2.23 12.566 8.453 14.188a11.515 11.515 0 0014.188-8.217c.082-.32.142-.644.195-.964a63.57 63.57 0 009.895 0c.065.314.13.633.219.952 1.766 6.206 8.183 9.85 14.418 8.187a11.438 11.438 0 008.051-14.216c-.095-.32-.207-.633-.32-.94a63.884 63.884 0 008.495-4.925c.22.249.438.497.68.734 4.571 4.53 11.94 4.53 16.51 0a11.557 11.557 0 00-.969-17.06 62.288 62.288 0 004.818-8.53c.307.106.59.212.946.3a11.515 11.515 0 0014.187-8.216c1.533-6.244-2.232-12.563-8.453-14.187a14.33 14.33 0 00-.976-.207c.22-3.277.178-6.566-.124-9.836.313-.06.633-.119.952-.207a11.438 11.438 0 008.051-14.217c-1.766-6.204-8.179-9.846-14.412-8.187-.32.084-.636.185-.946.301a64.723 64.723 0 00-5.072-8.506c.255-.213.497-.432.733-.668a11.557 11.557 0 00-.236-16.41c-4.568-4.532-11.936-4.532-16.504 0-.23.236-.444.479-.65.727a64.434 64.434 0 00-8.643-4.906c.106-.308.207-.591.29-.934 1.53-6.246-2.238-12.563-8.46-14.188a11.521 11.521 0 00-14.187 8.217c-.1.355-.153.68-.212 1zm6.343 22.292c22.694 6.006 36.444 29.095 30.71 51.57-5.734 22.475-28.788 35.835-51.488 29.835s-36.443-29.09-30.703-51.57c5.74-22.481 28.788-35.835 51.481-29.835zM57.236 226.331a38.944 38.944 0 00-5.988 0 8.262 8.262 0 00-.13-.591 7.165 7.165 0 00-8.719-4.954 6.916 6.916 0 00-4.87 8.601c.058.195.123.384.194.591a37.915 37.915 0 00-5.137 2.956c-.136-.148-.266-.301-.414-.443a7.094 7.094 0 00-9.984 0 6.987 6.987 0 00.142 9.925c.142.142.296.272.443.396a37.572 37.572 0 00-2.914 5.16 5.42 5.42 0 00-.591-.183 6.964 6.964 0 00-8.571 4.966 7.094 7.094 0 005.113 8.595l.591.124c-.13 1.981-.102 3.97.083 5.947-.195.035-.39.077-.591.124a6.916 6.916 0 00-4.871 8.6 7.165 7.165 0 008.719 4.955c.195-.054.384-.119.591-.184a39.015 39.015 0 003.062 5.149 6.98 6.98 0 00-.443.402 6.993 6.993 0 00.142 9.925 7.094 7.094 0 009.99 0c.136-.142.266-.29.39-.437a38.973 38.973 0 005.226 2.955 5.746 5.746 0 00-.172.591 7.094 7.094 0 005.113 8.59 6.97 6.97 0 008.578-4.972 8.71 8.71 0 00.118-.59c1.991.153 3.991.153 5.982 0 .042.188.077.383.136.59a7.159 7.159 0 008.713 4.96 6.916 6.916 0 004.871-8.601c-.053-.195-.124-.384-.195-.591a37.98 37.98 0 005.143-2.956c.13.148.266.302.408.443a7.094 7.094 0 009.984 0 6.981 6.981 0 00-.142-9.919 5.586 5.586 0 00-.443-.396 36.703 36.703 0 002.914-5.16c.19.065.379.13.592.183a6.97 6.97 0 008.577-4.972 7.094 7.094 0 00-5.71-8.713c.13-1.981.105-3.97-.077-5.947.189-.035.384-.077.59-.124a6.916 6.916 0 004.872-8.6 7.165 7.165 0 00-8.72-4.955c-.195.054-.384.119-.59.184a39.689 39.689 0 00-3.069-5.15 5.67 5.67 0 00.444-.401 6.987 6.987 0 00-.142-9.925 7.094 7.094 0 00-9.984 0c-.14.137-.27.283-.39.437a38.767 38.767 0 00-5.232-2.955 7.094 7.094 0 00-4.942-9.18 6.958 6.958 0 00-8.571 4.97 4.81 4.81 0 00-.119.58zm3.837 13.484c13.726 3.63 22.037 17.598 18.567 31.188a25.295 25.295 0 01-31.129 18.077c-13.726-3.63-22.043-17.598-18.573-31.194a25.3 25.3 0 0131.14-18.071h-.005z" id="Shape" fill="#D8DEE8" fill-rule="nonzero"/><path d="M443.37 349.056l-275.166-18.999a5.066 5.066 0 00-.993 0L3.337 337.482c-3.92.354-3.742 10.64.71 11.178l257.48 34.48c1.053.134 2.12.134 3.173 0l178.162-25.034c2.376-.455 3.245-8.849.508-9.05z" id="Path" fill="url(#linearGradient-1)" fill-rule="nonzero"/><path d="M442.827 348.784L168.204 322.87a6.19 6.19 0 00-.993 0L4.135 337.186c-2.997.266-3.074 4.617-.089 4.983l257.48 31.774c1.054.133 2.12.133 3.174 0l178.162-23.054a1.07 1.07 0 00-.035-2.105z" id="Path" fill="url(#linearGradient-2)" fill-rule="nonzero"/><path d="M258.813 370.804c.381 0 .762-.024 1.14-.071l159.683-20.636a.497.497 0 000-.982l-245.231-23.09h-.32L18.223 339.71a.591.591 0 100 1.183l239.527 29.828c.353.047.708.075 1.064.083z" id="Path" fill="url(#linearGradient-3)" fill-rule="nonzero"/><path d="M349.646 360.879c.06.473 1.56.686 3.358.467 1.797-.219 3.204-.78 3.145-1.26-.06-.478-1.56-.685-3.358-.466-1.797.218-3.198.78-3.145 1.259z" id="Path" fill="url(#linearGradient-4)" fill-rule="nonzero"/><path d="M219.798 375.58l24.715 3.246c1.803.236 3.281-.645 3.281-1.975 0-1.324-1.478-2.577-3.28-2.79l-24.716-2.885c-1.531-.177-2.755.657-2.755 1.862 0 1.2 1.224 2.347 2.755 2.542z" id="Path" fill="url(#linearGradient-5)" fill-rule="nonzero"/><path d="M192.795 372.033l20.359 2.672c1.472.195 2.678-.62 2.678-1.82 0-1.183-1.183-2.312-2.678-2.483l-20.359-2.365c-1.265-.147-2.282.627-2.282 1.727a2.53 2.53 0 002.282 2.27z" id="Path" fill="url(#linearGradient-6)" fill-rule="nonzero"/><path d="M158.68 367.553l15.488 2.033a1.685 1.685 0 002.022-1.62 2.264 2.264 0 00-2.022-2.122l-15.487-1.809a1.531 1.531 0 00-1.774 1.543 2.057 2.057 0 001.774 1.975z" id="Path" fill="url(#linearGradient-7)" fill-rule="nonzero"/><path d="M130.023 338.83c23.929 4.256 39.824 12.934 74.163 13.625 29.746.591 29.97-6.248 64.54-8.418 45.299-2.837 57.104 8.164 103.448 7.218a290.122 290.122 0 0046.6-4.77l24.07 2.27a1.07 1.07 0 01.036 2.122L264.718 373.93c-1.054.133-2.12.133-3.174 0L43.587 347.01c37.401-12.467 66.036-11.823 86.436-8.181z" id="Path" fill="#FFF" fill-rule="nonzero" opacity=".6" style="mix-blend-mode:soft-light"/><ellipse id="Oval" stroke="#FFF" stroke-width="3" cx="186.748" cy="343.133" rx="30.514" ry="7.076"/><path d="M172.874 343.133c0 1.773 6.213 3.216 13.868 3.216s13.874-1.437 13.874-3.216c0-1.78-6.237-3.216-13.874-3.216-7.638 0-13.868 1.443-13.868 3.216z" id="Path" fill="#FFF" fill-rule="nonzero" opacity=".6" style="mix-blend-mode:soft-light"/><path d="M388.921 59.27l-170.34 268.31-1.555 2.448-2.063 3.257-3.624 5.71-2.63 4.138c0 2.76-9.683 5.001-21.873 5.137h-1.182c-12.721 0-23.054-2.305-23.054-5.149l-2.412-4.215-4.823-8.43-1.65-2.878-2.063-3.612-10.138-17.734-17.462-30.508-19.673-34.386-1.962-3.435-21.742-37.998-13.815-24.148L5.731 68.907a334.73 334.73 0 0195.356-48.633 336.981 336.981 0 0122.463-6.408 310.467 310.467 0 019.647-2.24c1.1-.249 2.217-.48 3.334-.71a333.293 333.293 0 0153.793-6.603c2.306-.102 4.633-.175 6.981-.218a334.918 334.918 0 0196.946 12.272c.94.254 1.868.52 2.784.786l.798.23a343.077 343.077 0 0130.627 10.499 329.03 329.03 0 0160.461 31.389z" id="Path" fill="url(#linearGradient-8)" fill-rule="nonzero" opacity=".29"/><ellipse id="Oval" fill="url(#linearGradient-9)" fill-rule="nonzero" cx="243.692" cy="48.388" rx="25.685" ry="24.455"/><path d="M337.162 60.394c-1.52 3.169-29.675 2.808-85.987 2.099-5.911-.077-14.157-.237-17.095-2.88-4.552-4.102 4.729-13.164 15.086-13.873 9.458-.65 12.543 6.213 25.643 6.804 11.338.508 14.825-4.369 26.654-4.972 17.403-.857 37.904 8.247 35.699 12.822zm-192.858 5.829c-.963 2.128-18.792 1.885-54.443 1.407-3.754-.054-8.967-.16-10.83-1.94-2.878-2.754 3.01-8.866 9.553-9.327 6-.438 7.945 4.179 16.239 4.575 7.176.343 9.387-2.956 16.877-3.346 11.018-.58 24 5.569 22.604 8.63z" id="Path" fill="#FFF" fill-rule="nonzero" style="mix-blend-mode:screen"/><g id="Group" transform="translate(53 88)" fill-rule="nonzero"><path id="Path" fill="#97A6B7" d="M219.06 51.233v96.213l-18.904-1.353V60.432l16.723-8.383 1.696-.715z"/><path id="Path" fill="#FFF" d="M266.132 51.37v91.862l-47.072 4.214V51.14z"/><path id="Path" fill="#CED3DB" d="M234.11 139.833l-5.787.508V61.72l5.787-.036zm12.733-1.059l-6.177.515v-77.64l6.177-.035zm12.343-1.016l-6.171.508V61.59l6.171-.041z"/><path id="Path" fill="#97A6B7" opacity=".5" style="mix-blend-mode:multiply" d="M234.11 139.833l-1.933.17V61.698l1.933-.012zm12.733-1.059l-1.933.166V61.626l1.933-.012zm12.733-1.034l-2.317.16V61.56l2.317-.011z"/><path d="M266.108 143.226l-47.58 4.214-18.372-1.336v-9.972c8.488-11.657 5.876-16.061 7.684-24.349 1.774-8.057-1.903-49.992 9.098-59.734a8.128 8.128 0 011.27-.916c.06.065.143.13.202.195l.213.225c5.615 6.171 8.17 9.097 9.38 12.2 1.213 3.104 1.089 6.214 1.278 12.71.242 7.992.189 14.944 2.837 19.632a10.782 10.782 0 002.046 2.63 12.763 12.763 0 006.579 3.098c.32.059.644.118.975.16 1.832.279 3.612.833 5.279 1.643a24.077 24.077 0 016.171 4.368 32.022 32.022 0 014.399 5.32 36.71 36.71 0 011.696 2.814l.242.455a39.972 39.972 0 014.605 19.336c-.12 2.585.58 5.142 1.998 7.307z" id="Path" fill="#97A6B7" opacity=".1" style="mix-blend-mode:multiply"/><path id="Path" fill="url(#linearGradient-10)" d="M208.26 4.629v143.71l-83.338 7.466V.449z"/><path id="Path" fill="#CED3DB" d="M202.857 27.115l-71.38-1.998v-9.67l71.38 2.612zm0 16.055l-71.38-.898V32.6l71.38 1.52zm0 16.062l-71.38.2v-9.67l71.38.42zm0 16.055l-71.38 1.3v-9.67l71.38-.68zm0 16.061l-71.38 2.4v-9.671l71.38-1.78zm0 16.061l-71.38 3.493v-9.67l71.38-2.88zm0 16.055l-71.38 4.593v-9.67l71.38-3.973z"/><path id="Path" fill="#97A6B7" d="M124.922.45v155.355l-25.082-2.59V14.283L123.982.833l.721-.33z"/><path id="Path" fill="#97A6B7" opacity=".5" style="mix-blend-mode:multiply" d="M202.857 19.815l-71.38-2.5v-1.869l71.38 2.613zm0 16.055l-71.38-1.395V32.6l71.38 1.52zm0 16.061l-71.38-.301v-1.868l71.38.42zm0 16.061l-71.38.798v-1.874l71.38-.68zm0 16.055l-71.38 1.898v-1.868l71.38-1.78zm0 16.061l-71.38 2.997v-1.873l71.38-2.88zm0 16.056l-71.38 4.096v-1.874l71.38-3.972z"/><path d="M205.984 148.57l-81.298 7.235-24.828-2.59V122.46a30.662 30.662 0 013.098-5.592c10.599-16.055 7.093-22.238 9.316-33.665 2.17-11.232-2.601-71.415 11.633-82.357.184-.142.355-.272.544-.396 0 0 0 .042.042.06l.094.13c5.515 7.223 8.601 11.35 10.363 14.95.319.644.59 1.27.827 1.89a25.555 25.555 0 011.478 7.81c.13 2.069.183 4.475.248 7.454 0 .591 0 1.218.042 1.862 0 .372 0 .757.03 1.147.059 2.27.1 4.48.159 6.615.077 2.6.177 5.09.355 7.442.047.632.106 1.253.165 1.862a41.9 41.9 0 001.413 7.75 17.675 17.675 0 004.002 7.389 13.832 13.832 0 002.128 1.832 17.302 17.302 0 006.544 2.655 22.15 22.15 0 019.458 4.729 36.739 36.739 0 016.562 7.123c.408.59.815 1.182 1.182 1.773a52.971 52.971 0 013.972 7.401 59.988 59.988 0 012.601 7.094c.178.59.343 1.182.503 1.773a63.665 63.665 0 012.116 14.548c0 .591.03 1.182.03 1.773v1.112a21.864 21.864 0 00.738 6.313c4.091 14.666 23.356 14.276 26.483 23.633z" id="Path" fill="#97A6B7" opacity=".1" style="mix-blend-mode:multiply"/><path id="Path" fill="#97A6B7" d="M30.004 19.898v143.314L.3 161.35V32.95z"/><path id="Path" fill="#FFF" d="M113.348 22.717V155.84l-83.344 7.372V20.234z"/><path id="Path" fill="#CED3DB" d="M62.8 37.767v21.855l-16.977.053V37.5zm23.149.367v21.429l-16.587.047V37.868zm21.221.331v21.033l-15.044.047V38.223zM62.8 66.58v21.86l-16.977.46V66.727zm23.149-.196V87.82l-16.587.449V66.526zm21.221-.194v21.032l-15.044.431V66.331zM62.8 95.391v21.86l-16.977.875V95.953zm23.149-.751v21.429l-16.587.863V95.19zm21.221-.727v21.039l-15.044.81V94.439zM62.8 124.209v21.854l-16.977 1.295v-22.174zm23.149-1.319v21.435l-16.587 1.265v-21.742zm21.221-1.247v21.033l-15.044 1.194v-21.322z"/><path d="M113.726 153.63v2.21l-83.651 7.372L.69 161.356v-21.754a61.827 61.827 0 017.33-13.289c10.859-14.701 7.36-20.287 9.617-30.697 2.259-10.41-2.754-66.325 12.544-75.411C44.138 36.213 43.186 35.52 43.665 52.126c.254 8.867.236 16.741 2.518 22.54 1.969 5.019 5.651 8.465 12.662 9.641 1.479.254 2.926.666 4.316 1.23 4.48 1.773 8.666 5.09 12.189 9.417a49.064 49.064 0 019.724 21.133 50.15 50.15 0 01.898 6.774c.054.763.083 1.537.1 2.306v2.719a15.417 15.417 0 006 12.484 28.339 28.339 0 004.73 3.098c6.745 3.594 15.02 5.415 16.924 10.162z" id="Path" fill="#97A6B7" opacity=".1" style="mix-blend-mode:multiply"/><path id="Path" fill="#97A6B7" opacity=".5" style="mix-blend-mode:multiply" d="M45.823 37.501l16.977.266v2.318l-16.977-.23zm0 29.226L62.8 66.58v2.318l-16.977.183zm0 29.226L62.8 95.39v2.317l-16.977.597zm0 29.231l16.977-.975v2.317l-16.977 1.005zm23.539-87.316l16.587.266v2.27l-16.587-.23zm0 28.658l16.587-.142v2.276l-16.587.172zm0 28.664l16.587-.55v2.27l-16.587.586zm0 28.658l16.587-.957v2.276l-16.587.987zm37.808-85.383v2.229l-15.044-.207v-2.264zm0 27.725v2.234l-15.044.171v-2.264zm0 27.723v2.235l-15.044.55v-2.259zm0 27.73v2.229l-15.044.934v-2.258z"/><path d="M146.57 228.863c-7.372-3.15-16.357-8.518-23.61-17.734-7.857-9.966-16.41-27.901-10.12-35.273 2.364-2.749 6.94-4.238 10.084-2.89 4.646 1.992 2.956 8.813 8.838 18.821 1.081 1.85 6.685 11.41 11.408 10.41 2.365-.49 4.002-3.5 4.505-6.041 1.46-7.43-6.857-11.445-12.62-21.955-5.841-10.64-8.312-26.66-1.183-34.51 4.096-4.517 11.64-6.633 15.275-4.097 1.554 1.082 2.17 2.855 3.6 15.92 1.182 10.717 1.218 13.743 3.688 15.552 2.471 1.809 7.354 2.217 9.985 0 6.845-5.834-8.477-23.001-3.31-44.04 2.31-9.458 9.363-22.185 18.65-22.304 6.272-.076 13.259 5.623 14.417 11.741 1.04 5.521-3.298 7.945-4.817 19.046-.461 3.364-1.413 10.292 1.093 11.516 2.956 1.436 9.175-5.705 10.64-7.46 11.108-13.212 6.875-23.35 15.01-28.836 6.342-4.286 16.699-3.375 23.308 2.093 5.787 4.776 8.867 13.188 6.916 20.175-1.992 7.094-10.203 12.077-26.6 22.032-7.792 4.729-13.721 7.684-15.678 14.323-.951 3.233-1.182 8.151.952 9.334 4.729 2.607 14.08-16.895 27.103-16.008 6.668.455 13.218 6.177 14.708 12.827 1.82 8.146-4.138 16.812-11.001 20.099-8.932 4.315-14.14-3.003-29.16-.19-6.663 1.248-17.735 4.954-18.29 10.901a7.549 7.549 0 004.138 7.035c5.952 2.784 11.414-6.674 22.87-7.785 8.276-.798 18.054 2.884 19.053 7.726 1.4 6.827-14.779 15.818-22.984 19.43-9.93 4.404-32.258 11.51-66.869.142z" id="Path" fill="url(#linearGradient-11)"/><path d="M151.068 226.776c4.729-17.308 27.582-48.1 41.261-61.69 13.39-13.3 29.557-36.024 29.722-36.249l.444.32c-.16.224-16.357 22.989-29.776 36.319-13.637 13.549-36.437 44.223-41.125 61.478l-.526-.178z" id="Path" fill="#FFF" opacity=".5"/><path d="M168.347 248.536c-11.456-2.85-30.36-9.458-46.7-25.95-6.733-6.781-19.885-20.034-21.582-39.642-.845-9.772.68-26.601 9.092-29.238 5.409-1.69 13.306 2.566 16.262 8.359 2.955 5.793-.74 9.801 1.773 21.907.94 4.481 2.093 9.695 5.279 10.493 2.66.662 6.272-1.868 7.921-5.019 3.405-6.502-3.694-11.592-2.016-20.985 1.183-6.68 6.532-13.868 11.693-13.596 4.48.23 8.69 6.077 9.582 11.592 1.43 8.832-6.349 12.479-5.054 22.363.591 4.386 2.908 9.771 5.94 10.108 3.465.378 7.414-5.84 9.045-10.889 2.158-6.662-.218-9.8 2.453-12.715 2.986-3.245 9.849-3.606 13.478-.644 5.09 4.138 3.547 14.577.727 20.938-3.617 8.146-9.635 10.274-9.21 16.841.16 2.412 1.183 5.68 3.346 6.384 3.062 1.005 7.094-3.623 9.807-6.691 6.556-7.478 6.314-11.947 10.12-12.905 3.807-.957 9.086 2.365 10.6 6.503.839 2.317 1.182 6.71-7.094 16.67-5.77 6.999-16.505 17.545-35.462 26.116z" id="Path" fill="url(#linearGradient-12)"/></g><ellipse id="Oval" fill="#FFF" fill-rule="nonzero" opacity=".7" style="mix-blend-mode:soft-light" cx="264.63" cy="133.168" rx="24.674" ry="29.326"/><ellipse id="Oval" fill="#FFF" fill-rule="nonzero" opacity=".7" cx="264.63" cy="133.168" rx="12.189" ry="14.489"/><path d="M132.53 443.957c-.25-1.36-4.635-2.59-6.81-.769-1.077.899-1.821 2.731-1.183 3.547.225.301-.704.833.19.84 2.943.017 8.044-2.3 7.802-3.618z" id="Path" fill="url(#linearGradient-13)" fill-rule="nonzero"/><path d="M127.73 443.957l-4.553.224c1.579-2.867-.319-10.64-.319-10.64l4.918.148s-.124 2.258-.42 5.621a21.062 21.062 0 00.373 4.647z" id="Path" fill="#D8DEE8" fill-rule="nonzero"/><path d="M128.332 443.862s-5.432-1.253-6.024-.171c-.59 1.081-1.04 3.96 2.406 3.866 3.447-.095 3.92-2.779 3.618-3.695z" id="Path" fill="url(#linearGradient-14)" fill-rule="nonzero"/><path d="M190.147 453.781c-.438-1.312-4.954-1.915-6.851.19-.94 1.046-1.42 2.955-.686 3.694.266.266-.591.922.301.81 2.932-.384 7.667-3.393 7.236-4.694z" id="Path" fill="url(#linearGradient-15)" fill-rule="nonzero"/><path d="M184.809 455.04l-4.475.881c1.182-3.068-1.844-10.51-1.844-10.51l4.882-.591s.207 2.258.39 5.627a21.322 21.322 0 001.047 4.593z" id="Path" fill="#D8DEE8" fill-rule="nonzero"/><path d="M185.98 454.307s-5.557-.478-5.989.668c-.431 1.147-.479 4.073 2.92 3.5 3.4-.574 3.5-3.287 3.068-4.168z" id="Path" fill="url(#linearGradient-16)" fill-rule="nonzero"/><path d="M144.896 297.64c-1.218 20.82-2.958 42.449-5.22 64.888a1508.988 1508.988 0 01-9.523 74.353c-2.797.9-5.805.9-8.601 0 0 0-5.22-8.56-9.21-31.33-2.56-14.595-2.737-14.412-2.767-16.96-.142-12.845 4.363-16.552 5.226-28.043.792-10.64-2.59-13.803-4.61-25.762-1.556-9.192-2.135-22.593 2.766-40.108l31.939 2.961z" id="Path" fill="url(#linearGradient-17)" fill-rule="nonzero"/><path d="M144.896 297.64c-1.218 20.82-2.958 42.449-5.22 64.888a1508.988 1508.988 0 01-9.523 74.353c-2.797.9-5.805.9-8.601 0 .059-2.187.213-5.474.668-9.458 1.182-10.534 3.133-13.537 3.334-19.998.254-8.276-2.743-8.525-3.334-16.67-.917-12.621 6.012-15.612 6.668-26.666.691-11.675-6.621-15.523-12.225-30-3.304-8.548-6.242-21.382-3.706-39.4l31.939 2.95z" id="Path" fill="url(#linearGradient-18)" fill-rule="nonzero" opacity=".3" style="mix-blend-mode:multiply"/><path d="M167.311 296.983a437.876 437.876 0 0117.196 151.632l-5.834 1.631c-11.308-11.822-15.37-22.705-16.889-30.65-2.282-11.752 1.183-15.736-1.844-29.025-.686-3.056-1.661-6.337-12.899-28.374-10.723-21.027-12.922-24.083-14.737-31.631a69.127 69.127 0 01-.922-26.737l35.93-6.846z" id="Path" fill="url(#linearGradient-19)" fill-rule="nonzero"/><path d="M215.542 252.43l19.188-44.927a3.955 3.955 0 00-2.701-5.397l-35.155-8.536a3.955 3.955 0 00-4.593 2.365l-17.651 43.206a3.955 3.955 0 002.5 5.279l33.618 10.285a3.967 3.967 0 004.794-2.275z" id="Path" fill="#26264F" fill-rule="nonzero"/><path d="M214.673 250.272l17.923-41.97a3.689 3.689 0 00-2.524-5.037l-32.838-7.974a3.689 3.689 0 00-4.285 2.193l-16.493 40.356a3.7 3.7 0 002.365 4.93l31.4 9.606a3.7 3.7 0 004.452-2.104z" id="Path" fill="#FFF" fill-rule="nonzero"/><path d="M225.739 237.93l.591-5.321 3.056-5.823a5.545 5.545 0 00.633-2.565v-5.782l-3.719 8.572s-2.417-2.187-3.34-2.648c-.922-.462-.803 1.383-.112 2.074.692.692-.348 6.331.343 6.905l-.23 3.458 2.778 1.13z" id="Path" fill="url(#linearGradient-20)" fill-rule="nonzero"/><path d="M196.484 204.187c-2.861-7.01-9.015-11.042-12.207-13.129-7.543-4.948-12.378-4.043-29.71-6.68-23.096-3.546-25.863-6.845-33.624-4.138-10.203 3.547-15.53 12.804-17.97 17.049-12.302 21.381 2.086 32.252-1.608 74.855-1.514 17.397-5.38 32.512 3.913 41.456 1.956 1.886 4.138 2.867 8.524 4.835 17.356 7.815 32.92 6.467 42.378 5.528 10.404-1.029 15.665-1.62 18.426-5.32 4.41-5.87-.13-13.337-.922-26.259-.591-9.275 1.543-16.622 5.757-31.33 9.807-34.15 22.534-43.442 17.043-56.867z" id="Path" fill="url(#linearGradient-21)" fill-rule="nonzero"/><path d="M157.824 171.77c1.052-3.748-.787-7.218-1.183-7.963-1.696-3.127-2.128-3.547-2.955-4.103l-1.13-.691-.13-.053a13.135 13.135 0 00-3.682-.225c-1.596.343-3.293 6.833-2.808 16.008-.065.349-.13.697-.19 1.052a66.877 66.877 0 00-.59 4.262c-.148 1.324-2.034 1.295-3.364 1.182-5.415-.348-8.063.113-8.276.923-.431 1.507 5.988 6.449 13.916 7.554 10.64.083 19.294-1.052 18.366-2.725-.414-.745-8.66-2.896-10.977-5.036-2.122-1.951-1.951-3.973-2.122-5.415.62-.307 4.35-2.01 5.125-4.77z" id="Path" fill="url(#linearGradient-22)" fill-rule="nonzero"/><path d="M155.867 156.406c0 2.843-1.348 5.876-2.034 6.366a4.729 4.729 0 00-1.028 1.124c-.066.105-.12.218-.16.337-.626 1.773 2.223 3.901 1.673 4.699-.396.591-2.335-.195-2.565.307-.23.503 1.395 1.455 1.147 2.016-.184.432-1.183.042-1.774.692-.313.325-.225.59-.55 1.584a9.423 9.423 0 01-.65 1.525c-.981 1.667-3.765 2.276-4.303 1.608-.148-.183 0-.343-.172-.964a5.09 5.09 0 00-.544-1.253c-.59-.951-1.962-1.637-3.363-2.648-2.595-1.868-3.305-3.458-3.517-3.996a14.978 14.978 0 01-.154-.443c-.674-2.093-.68-5.173.266-7.064 1.578-3.169 5.137-1.667 8.045-4.806 3.364-3.624 1.36-8.578 3.186-9.127 1.987-.603 6.515 4.788 6.497 10.043z" id="Path" fill="#26264F" fill-rule="nonzero"/><path d="M153.296 168.264c-.698-.958-1.922-.06-1.928 1.182-.005 1.242 1.183 2.524 2.365 2.282 1.182-.242.502-2.175-.437-3.464z" id="Path" fill="url(#linearGradient-23)" fill-rule="nonzero"/><path d="M152.734 166.195l1.614 2.099s1.744 2.577 2.76 1.182c.828-1.153 1.047-1.123 1.094-1.076 0 0-.124-.591-.242-1.076a9.458 9.458 0 011.377 2.956c.349 1.306.727 2.707 0 4.055a4.043 4.043 0 01-2.365 1.856s-.59.136-3.12-.307c0 0 2.754-1.998 2.801-2.477.113-1.295-1.685-1.992-3.015-4.64a10.422 10.422 0 01-.904-2.572z" id="Path" fill="#26264F" fill-rule="nonzero"/><path d="M147.195 311.744c3.062-6.095-4.44-14.187.461-23.492 4.138-7.891 11.728-6.124 15.204-13.36 4.197-8.736-4.936-15.268-4.605-28.557.39-15.89 14.063-31.797 22.109-30.402 5.207.899 5.875 8.666 9.54 17.143a193.029 193.029 0 00-10.463 27.966c-4.214 14.702-6.325 22.05-5.757 31.33.792 12.923 5.32 20.389.922 26.259-2.76 3.676-8.022 4.268-18.426 5.32-9.458.94-25.022 2.287-42.378-5.527-2.199-.988-3.842-1.726-5.184-2.46 27.115 4.073 36.153.615 38.577-4.22z" id="Path" fill="url(#linearGradient-24)" fill-rule="nonzero" opacity=".3" style="mix-blend-mode:multiply"/><path d="M226.773 236.889l-5.066-2.188c-2.855 2.92-6.502 5.758-9.558 4.836-4.564-1.371-3.423-9.771-8.985-24.526-6.296-16.723-13.443-21.02-17.043-22.576-2.01-.863-3.399-1.442-5.066-1.034-7.685 1.88-10.215 21.872-8.063 36.851 1.218 8.436 3.594 24.976 17.143 32.82 1.927 1.117 12.532 7.253 23.054 2.424 8.974-4.132 14.507-14.731 13.584-26.607z" id="Path" fill="url(#linearGradient-25)" fill-rule="nonzero"/><path d="M269.536 146.244a10.085 10.085 0 010-7.755c1.726-4.31 1.726-11.232 2.59-13.797.206-.621.165-.993-.036-1.141-.402-.302-2.264 2.175-3.417 4.593-2.034 4.28-1.472 7.543-2.583 7.756-1.248.242-2.637-3.707-3.447-3.447-.632.201 0 2.743 0 5.173 0 1.726 4.31 10.344 4.31 10.344l2.583-1.726z" id="Path" fill="url(#linearGradient-26)" fill-rule="nonzero"/><path d="M363.514 183.527c.207-4.22.662-13.448-4.445-16.67-6.739-4.244-16.664 6.089-27.783 8.867-11.687 2.956-30.544-.97-61.112-34.445l-5.556 5.556c3.156 11.108 11.26 32.956 32.222 48.887 4.895 3.724 34.629 26.323 53.338 14.447 9.175-5.799 12.922-18.147 13.336-26.642z" id="Path" fill="url(#linearGradient-27)" fill-rule="nonzero"/><path d="M368.965 419.785c.863.704 1.022 2.448 1.123 3.594.054.313.054.633 0 .946-.414 1.312-2.956 1.448-6.964 1.862-6.32.645-8.199 1.141-8.69.201-.49-.94.657-2.323.78-2.483.68-.857 1.514-1.182 3.128-1.696 2.956-.981 4.995-1.52 5.604-1.685 3.819-1.01 4.457-1.194 5.019-.739z" id="Path" fill="url(#linearGradient-28)" fill-rule="nonzero"/><path d="M365.217 414.016l-.633 7.2c.178.349 2.317 1.389 4.02.496l1.62-7.093-5.007-.603z" id="Path" fill="url(#linearGradient-29)" fill-rule="nonzero"/><path d="M313.74 416.605c1.03 1.14 1.266 3.24.367 4.268-.898 1.028-2.205.254-5.97.366-4.026.125-5.078 1.076-7.815.32-1.105-.308-3.062-1.047-3.02-1.839 0-.555 1.016-.84 4.338-1.95 4.73-1.585 4.694-1.668 5.699-1.833 2.512-.42 5.036-.84 6.402.668z" id="Path" fill="url(#linearGradient-30)" fill-rule="nonzero"/><path d="M311.158 410.032l-2.022 6.733c.154.36 2.205 1.566 3.972.803l2.997-6.502-4.947-1.034z" id="Path" fill="url(#linearGradient-31)" fill-rule="nonzero"/><path d="M329.11 262.828a629.125 629.125 0 01-19.897 149.16l7.738 2.081c6.538-6.095 14.778-15.695 18.768-29.261 2.471-8.424 1.65-12.75 3.216-23.108 2.495-16.486 7.549-25.129 12.774-38.423 4.694-11.953 10.245-29.486 13.224-52.93l-35.823-7.52z" id="Path" fill="url(#linearGradient-32)" fill-rule="nonzero"/><path d="M329.11 262.828c7.04 5.373 15.795 13.832 15.518 24.035-.207 7.567-5.19 8.956-8.867 19.998-4.54 13.537.993 17.297-2.223 34.445-2.365 12.763-5.32 10.008-8.867 25.555-3.169 13.844-1.773 20.051-6.662 31.111a59.758 59.758 0 01-8.749 14.016l7.738 2.081c6.538-6.095 14.778-15.695 18.769-29.261 2.47-8.424 1.649-12.75 3.215-23.108 2.495-16.486 7.549-25.129 12.775-38.423 4.693-11.953 10.244-29.486 13.223-52.93l-35.87-7.52z" id="Path" fill="url(#linearGradient-33)" fill-rule="nonzero" opacity=".3" style="mix-blend-mode:multiply"/><path d="M357.532 262.934c1.576 28.73 2.86 57.986 3.848 87.771.741 22.35 1.287 44.418 1.638 66.207l7.903.976a92.311 92.311 0 008.24-21.281c2.814-11.279 2.158-17.97 3.394-29.657 1.383-13.106 3.393-15.96 6.957-32.513 7.23-33.552 10.842-50.329 2.779-60.768-2.63-3.37-10.836-11.87-34.759-10.735z" id="Path" fill="url(#linearGradient-34)" fill-rule="nonzero"/><path d="M346.525 184.13c-2.956-1.915-.26-7.49-.1-19.466.195-14.672-3.707-17.403-.592-23.16 3.825-7.04 13.46-9.955 19.845-10.091 1.413 0 1.738-.798 13.537 2.252 21.245 5.503 26.565-.396 36.059 5.498 9.198 5.692 5.172 11.929 14.098 18.608 14.471 10.824 29.693-.88 40.032 8.176 9.783 8.565 10.008 30.384-.278 42.29-11.669 13.495-32.701 9.458-46.8 6.768-2.956-.591-17.953-3.712-33.553-15.228a89.261 89.261 0 01-18.325-18.183c-.886-.993-2.264-2.205-4.084-2.364-2.194-.237-3.95 1.105-4.795 1.69-4.41 3.05-12.141 5.096-15.044 3.21z" id="Path" fill="url(#linearGradient-35)" fill-rule="nonzero"/><path d="M357.26 168.276s24.686-7.2 35.557 5.107c1.696 1.916 3.41 4.73 4.729 10.966 4.617 21.872-7.685 29.633-5.988 49.46.195 2.276 2.335 24.077 18.171 37.478 7.531 6.372 16.108 9.115 15.896 14.778-.148 4.067-4.789 7.773-9.086 9.086-8.217 2.506-13.005-4.416-23.846-6.81-11.326-2.507-13.945 3.316-31.797 5.675-5.912.786-33.057 4.368-39.742-6.816-2.85-4.73.662-7.744 5.675-27.251.508-1.975 9.192-36.254 6.561-51.192a71.669 71.669 0 01-.768-13.514c.076-2 .333-3.988.768-5.94a43.744 43.744 0 019.671-18.09c1.076-1.217 2.37-2.464 14.2-2.937z" id="Path" fill="url(#linearGradient-36)" fill-rule="nonzero"/><g id="Group" opacity=".3" style="mix-blend-mode:multiply" transform="translate(319.759 172.887)" fill="url(#linearGradient-37)" fill-rule="nonzero"><path d="M73.058.497c2.489 0 4.434 9.576 4.73 10.965 4.616 21.872-7.686 29.634-5.989 49.46C71.994 63.198 74.134 85 89.97 98.4c7.531 6.372 16.109 9.115 15.896 14.778-.148 4.067-4.788 7.774-9.086 9.086-8.216 2.506-13.005-4.416-23.846-6.81-11.326-2.506-13.945 3.316-31.797 5.675-5.911.786-33.056 4.369-39.742-6.816-.692-1.152-.952-1.655-.887-2.151.751-5.433 25.85-.491 32.146-10.393 6.142-9.67-9.783-27.032-4.445-32.222 4.138-4.05 14.778 5.651 23.332 1.111 5.356-2.85 6.242-9.358 8.867-23.332C65.072 22.794 69.287.538 73.058.496z" id="Path"/></g><path d="M365.217 152.262c-.331 1.56-2.034 9.943 1.395 12.1.745.468 2.17.734 5.024 1.271 1.874.35 3.44.592 4.552.698a11.55 11.55 0 01-2.258 5.775c-4.546 5.829-13.661 4.322-14.962 4.085-4.587-.833-9.097-2.252-10.19-3.115-1.656-1.318-2.956-2.311-3.73-3.316 1.773-.858 5.355-3.116 7.755-3.86a45.558 45.558 0 015.019-1.23l.756-4.853 6.639-7.555z" id="Path" fill="url(#linearGradient-38)" fill-rule="nonzero"/><path d="M365.347 156.441s-.591 6.142-6.585 7.224c-5.32.97-9.376-11.953-6.639-15.293a7.17 7.17 0 015.12-2.116c1.377.042 6.011 1.803 6.661 6.45.923-.976 2.075-1.254 2.643-.846.721.514.337 2.016.248 2.365a4.31 4.31 0 01-1.448 2.216z" id="Path" fill="url(#linearGradient-39)" fill-rule="nonzero"/><path d="M355.841 256.136l-16.634-41.226a5.172 5.172 0 013.222-6.863l32.943-10.522a3.949 3.949 0 014.558 2.412l17.025 43.46a3.955 3.955 0 01-2.578 5.237l-33.765 9.796a3.955 3.955 0 01-4.77-2.294z" id="Path" fill="#26264F" fill-rule="nonzero"/><path d="M357.958 232.414s-3.334-2.223-3.334-4.44c0-2.216-2.217-5.556-3.328-5.556-1.112 0-1.112 1.111 0 3.334 1.11 2.222-4.446 1.111-6.668-1.112-2.223-2.222-4.446-2.222-3.334-1.11a8.867 8.867 0 012.222 3.333s2.223 8.867 11.941 8.33l2.5-2.78z" id="Path" fill="url(#linearGradient-40)" fill-rule="nonzero"/><path d="M381.296 169.08c7.093-3.169 18.999 9.901 21.109 12.224 11.231 12.314 27.092 40.227 14.447 56.666-10.557 13.72-38.885 16.741-62.228-1.11l3.334-6.669c2.423.88 18.36 6.396 30-2.217 2.47-1.832 6.266-4.64 6.668-8.867.744-7.92-11.285-10.356-16.664-22.226-4.765-10.522-2.796-25.064 3.334-27.801z" id="Path" fill="url(#linearGradient-41)" fill-rule="nonzero"/></g></g></g></svg>