<svg width="113" height="107" xmlns="http://www.w3.org/2000/svg" xmlns:xlink="http://www.w3.org/1999/xlink"><defs><path id="path-1" d="M0 0h113.001v107H0z"/></defs><g id="Page-1" stroke="none" stroke-width="1" fill="none" fill-rule="evenodd"><g id="WE-are-ready" transform="translate(-724 -854)"><g id="Group-10" transform="translate(724 854)"><path id="Fill-1" fill="#A4193B" d="M30 42h21v-4H30z"/><path id="Fill-2" fill="#A4193B" d="M32 92h23v-4H32z"/><path d="M71.465 86.714l1.133 5.572h-7.049l-1.14-5.572h7.056zM77 96l-2.643-13H60l2.659 13H77z" id="Fill-3" fill="#A4193B"/><path d="M61.44 75.25l-1.634-7.5h7.723l1.655 7.5H61.44zM55 64l3.268 15H74l-3.307-15H55z" id="Fill-4" fill="#A4193B"/><path d="M57.458 56.25l-1.643-7.5h7.73l1.64 7.5h-7.727zM51 45l3.287 15H70l-3.285-15H51z" id="Fill-5" fill="#A4193B"/><path id="Fill-6" fill="#A4193B" d="M23 34h4v-4h-4z"/><mask id="mask-2" fill="#fff"><use xlink:href="#path-1"/></mask><path d="M69.328 30.035H52.732v-5.631h17.611l8.756-6.986 8.758 6.986h17.609v43.175H77.257l-7.929-37.544zM58.194 3.768c.004-.004.01-.014.02-.014l41.788.008 9.212 16.887H89.177l-10.078-8.036-10.076 8.036-20.052-.026 9.223-16.855zM3.774 99.272l2.031-3.614 6.571 3.948-2.186 3.602-6.417-3.936zm26.385-46.953l.005-.01 7.502-3.502v9.125L14.327 96.394l-6.68-4.014L30.16 52.32zm79.073-27.92a3.741 3.741 0 003.234-1.84 3.728 3.728 0 00.068-3.733L103.306 1.96A3.787 3.787 0 0099.986 0H58.214a3.789 3.789 0 00-3.324 1.965l-9.225 16.86a3.727 3.727 0 00.068 3.733 3.74 3.74 0 003.232 1.842v5.635h-18.83v3.754h36.136l14.273 67.58h-52.65l-3.15-14.911L32.79 73.21h19.942v-3.755H35.07L41 59.683c.15-.27.431-.771.431-1.49v-3.754h7.534v-3.755h-7.534v-1.877c0-2.07-1.69-3.754-3.768-3.754-.624 0-1.241.17-1.7.437l-7.551 3.492-.18.097a3.825 3.825 0 00-1.346 1.382l-7.083 12.605-6.183-29.277h5.211v-3.754H8.98l8.028 38.008L.477 97.456C.155 98.044 0 98.626 0 99.232c0 1.218.597 2.332 1.71 3.103l6.466 4.046c.646.41 1.322.619 2.011.619a3.711 3.711 0 003.215-1.857l8.49-13.983 2.947 13.963h60.35l-7.136-33.79H113V67.58h-3.767V24.4z" id="Fill-7" fill="#A4193B"/></g></g></g></svg>