<svg width="56" height="55" xmlns="http://www.w3.org/2000/svg"><g id="Page-1" stroke="none" stroke-width="1" fill="none" fill-rule="evenodd" stroke-linecap="round" stroke-linejoin="round"><g id="WE-are-ready" transform="translate(-530 -5350)" stroke="#FFE455" stroke-width="2"><g id="Group,-Copy" transform="translate(531 5351)"><g id="Group"><path d="M18.223 42.697c2.226 2.3 2.226 6.028 0 8.328a5.572 5.572 0 01-8.061 0c-2.226-2.3-2.226-6.028 0-8.328a5.572 5.572 0 018.06 0m25.616 0c2.226 2.3 2.226 6.028 0 8.328a5.572 5.572 0 01-8.06 0c-2.227-2.3-2.227-6.028 0-8.328a5.572 5.572 0 018.06 0M10.308 17.53c2.226 2.3 2.226 6.029 0 8.329a5.572 5.572 0 01-8.06 0c-2.227-2.3-2.227-6.029 0-8.328a5.572 5.572 0 018.06 0M31.03 1.975c2.226 2.3 2.226 6.029 0 8.328a5.572 5.572 0 01-8.06 0c-2.227-2.3-2.227-6.028 0-8.328a5.572 5.572 0 018.06 0M51.753 17.53c2.226 2.3 2.226 6.029 0 8.329a5.572 5.572 0 01-8.061 0c-2.226-2.3-2.226-6.029 0-8.328a5.572 5.572 0 018.06 0M31.03 23.643c2.226 2.3 2.226 6.029 0 8.328a5.572 5.572 0 01-8.06 0c-2.227-2.3-2.227-6.028 0-8.328a5.572 5.572 0 018.06 0m-.781 8.981l6.298 9.423m-12.796-9.423l-6.298 9.393m4.103-15.811l-9.832-2.915M27 21.907v-9.864m5.444 14.163l9.832-2.915" id="Path"/></g></g></g></g></svg>