<svg width="111" height="107" xmlns="http://www.w3.org/2000/svg" xmlns:xlink="http://www.w3.org/1999/xlink"><defs><path id="path-1" d="M0 107h111V0H0z"/></defs><g id="Page-1" stroke="none" stroke-width="1" fill="none" fill-rule="evenodd"><g id="WE-are-ready" transform="translate(-373 -854)"><g id="Group-16" transform="translate(373 854)"><path d="M74.894 107H54.298v-3.74h20.596c5.162 0 9.361-5.871 9.361-13.086v-1.87H26.213v1.87c0 9.279-5.881 16.826-13.107 16.826C5.881 107 0 99.453 0 90.174V21h37.447v3.74H3.745v65.434c0 7.215 4.2 13.087 9.361 13.087 5.162 0 9.362-5.872 9.362-13.087v-5.609H88v5.609C88 99.453 82.119 107 74.894 107" id="Fill-1" fill="#A4193B"/><mask id="mask-2" fill="#fff"><use xlink:href="#path-1"/></mask><path id="Fill-3" fill="#A4193B" mask="url(#mask-2)" d="M13 107h43v-4H13z"/><path id="Fill-5" fill="#A4193B" mask="url(#mask-2)" d="M77 86h4V67h-4z"/><path id="Fill-6" fill="#A4193B" mask="url(#mask-2)" d="M41 25h4v-4h-4z"/><path id="Fill-7" fill="#A4193B" mask="url(#mask-2)" d="M32 66h4V49h-4z"/><path id="Fill-8" fill="#A4193B" mask="url(#mask-2)" d="M13 66h4V49h-4z"/><path id="Fill-9" fill="#A4193B" mask="url(#mask-2)" d="M7 68h34v-4H7z"/><path id="Fill-10" fill="#A4193B" mask="url(#mask-2)" d="M45 68h4v-4h-4z"/><path id="Fill-11" fill="#A4193B" mask="url(#mask-2)" d="M8 77h60v-4H8z"/><path d="M79 3.765C63.431 3.765 50.765 16.43 50.765 32c0 15.569 12.666 28.235 28.235 28.235 15.569 0 28.235-12.666 28.235-28.235C107.235 16.431 94.57 3.765 79 3.765M79 64c-17.645 0-32-14.355-32-32S61.355 0 79 0s32 14.355 32 32-14.355 32-32 32" id="Fill-12" fill="#A4193B" mask="url(#mask-2)"/><path d="M79.5 27.75a3.754 3.754 0 00-3.75 3.75 3.754 3.754 0 003.75 3.75 3.754 3.754 0 003.75-3.75 3.754 3.754 0 00-3.75-3.75m0 11.25c-4.136 0-7.5-3.364-7.5-7.5s3.364-7.5 7.5-7.5 7.5 3.364 7.5 7.5-3.364 7.5-7.5 7.5" id="Fill-13" fill="#A4193B" mask="url(#mask-2)"/><path d="M58.533 31.998C60.861 35.24 68.852 45.222 79 45.222c10.175 0 18.145-9.979 20.467-13.22C97.14 28.76 89.148 18.778 79 18.778c-10.175 0-18.145 9.979-20.467 13.22M79 49c-14.167 0-23.96-15.345-24.37-15.999L54 32l.63-1.001C55.04 30.345 64.833 15 79 15c14.167 0 23.96 15.345 24.37 15.999L104 32l-.63 1.001C102.96 33.655 93.167 49 79 49" id="Fill-14" fill="#A4193B" mask="url(#mask-2)"/><path d="M11.733 55L9 52.517l12.462-13.194A4.276 4.276 0 0124.544 38h.013a4.26 4.26 0 013.082 1.32L40 52.38l-2.73 2.488-12.363-13.062a.482.482 0 00-.35-.151h-.002a.505.505 0 00-.362.151L11.733 55z" id="Fill-15" fill="#A4193B" mask="url(#mask-2)"/></g></g></g></svg>