<svg width="52" height="48" xmlns="http://www.w3.org/2000/svg"><g id="Page-1" stroke="none" stroke-width="1" fill="none" fill-rule="evenodd" stroke-linecap="round" stroke-linejoin="round"><g id="WE-are-ready" transform="translate(-1325 -5350)" stroke="#FFE455" stroke-width="2"><g id="Barcode,-Search" transform="translate(1326 5351)"><path d="M48 16V5.842C48 2.614 45.55 0 42.524 0H33M16 0H5.842A5.84 5.84 0 000 5.842V16m0 14v10.158A5.84 5.84 0 005.842 46H16m3.607-11.606c.06.06.06.153 0 .212a.149.149 0 01-.213 0 .149.149 0 010-.212c.06-.06.155-.06.213 0M10.5 12v23m18-24v9m-9-9v15m17-15v6m9.01 11.49c3.677 3.677 3.28 9.878-1.184 13.014-2.841 1.995-6.81 1.995-9.651 0A8.505 8.505 0 0133.49 28.49a8.498 8.498 0 0112.02 0M50 46l-5-6" id="Path"/></g></g></g></svg>