<svg width="96" height="91" xmlns="http://www.w3.org/2000/svg" xmlns:xlink="http://www.w3.org/1999/xlink"><defs><path id="path-1" d="M0 91h96V0H0z"/></defs><g id="Page-1" stroke="none" stroke-width="1" fill="none" fill-rule="evenodd"><g id="WE-are-ready" transform="translate(-1392 -6047)"><g id="Group-19" transform="translate(1392 6047)"><path d="M14.8 91h-8C4.154 91 2 88.813 2 86.126c0-1.202.134-2.404.4-3.572L9.707 33l3.167.482L5.542 83.16a13.379 13.379 0 00-.342 2.966c0 .897.717 1.625 1.6 1.625h8a2.866 2.866 0 00-1.94-2.736l-2.522-.856 3.552-21.72 3.155.532-3.104 18.987c2.445.86 4.073 3.192 4.059 5.829-.01 1.77-1.445 3.213-3.2 3.213" id="Fill-1" fill="#A4193B"/><path d="M37.06 91h-8.057c-2.665 0-4.834-2.197-4.834-4.898V67.188l-6.883-12.18 2.797-1.622 7.309 12.935v19.781c0 .902.721 1.633 1.61 1.633h8.057a2.88 2.88 0 00-1.954-2.75l-2.88-.97V62.446c0-.273-.067-.542-.196-.78-6.274-10.547-9.471-16.627-9.471-18.011 0-3.387 1.568-12.925 1.634-13.33l.224-1.363h10.378c.145-.052.702-.477.826-.702l.186-.287c.066-.082 6.503-8.163 8.94-11.572l-.001.002s.035-.132.032-.54c-.003-.632-.388-1.227-.934-1.444-.764-.303-1.328-.23-2.287 1.024-2.181 2.859-7.88 9.421-8.12 9.7l-.482.554H11.279c-2.07 0-3.915 1.409-4.486 3.428L3.542 40.5a8.236 8.236 0 00-.32 2.274v8.878c0 .964.727 1.789 1.588 1.8h.024c.783 0 1.46-.437 1.65-1.067l3.082.953c-.602 1.997-2.544 3.38-4.734 3.38h-.061C2.14 56.681 0 54.41 0 51.65v-8.878c0-1.076.15-2.145.445-3.182l3.251-11.37c.964-3.406 4.082-5.788 7.583-5.788h20.217c1.442-1.67 5.75-6.68 7.511-8.987 1.734-2.271 3.755-2.963 6.012-2.065 1.77.703 2.968 2.497 2.981 4.463.005.725-.065 1.662-.643 2.473-2.36 3.301-8.143 10.576-8.957 11.598-.66 1.128-2.266 2.313-3.606 2.313h-7.64c-.431 2.735-1.345 8.834-1.374 11.317.408 1.492 4.88 9.497 9.043 16.497.42.775.625 1.587.625 2.405V81.66l.675.227c2.502.846 4.175 3.21 4.159 5.884-.01 1.78-1.455 3.229-3.223 3.229" id="Fill-3" fill="#A4193B"/><path d="M20.064 3.333c-2.296 0-4.864 2.11-4.864 4.934v3.466c0 2.72 2.125 4.934 4.736 4.934 3.586 0 4.864-2.549 4.864-4.934V8.267c0-2.72-2.125-4.934-4.736-4.934M19.936 20C15.56 20 12 16.292 12 11.733V8.267C12 3.862 15.768 0 20.064 0 24.44 0 28 3.708 28 8.267v3.466C28 16.6 24.685 20 19.936 20" id="Fill-5" fill="#A4193B"/><path d="M81.2 91h-8c-1.765 0-3.2-1.46-3.2-3.257 0-2.65 1.66-4.993 4.13-5.832l.67-.228V55.17H78v28.86l-2.858.97a2.882 2.882 0 00-1.942 2.742h8c.883 0 1.6-.73 1.6-1.629V34H86v52.114C86 88.808 83.846 91 81.2 91" id="Fill-7" fill="#A4193B"/><path d="M76 3.333c-2.646 0-4.8 2.244-4.8 5v3.334c0 2.756 2.154 5 4.8 5s4.8-2.244 4.8-5V8.333c0-2.756-2.154-5-4.8-5M76 20c-4.411 0-8-3.738-8-8.333V8.333C68 3.738 71.589 0 76 0s8 3.738 8 8.333v3.334C84 16.262 80.411 20 76 20" id="Fill-9" fill="#A4193B"/><path d="M61.54 91h-7.856c-1.77 0-3.212-1.46-3.212-3.257 0-2.668 1.783-4.982 4.335-5.627l1.203-.306 9.625-34.283c.591-2.4.898-4.924.898-7.453v-7.702h-9.927l-.273-.102c-1.075-.41-1.886-1.193-2.477-2.39L50 22.53 52.836 21l3.873 7.385c.205.417.388.62.552.73h12.484v10.959c0 2.794-.339 5.586-1.009 8.294L58.591 84.515l-3.007.76a2.534 2.534 0 00-1.9 2.468h7.856c.738 0 1.378-.508 1.56-1.235l5.826-19.537 3.074.941-5.808 19.463C65.677 89.477 63.754 91 61.54 91" id="Fill-11" fill="#A4193B"/><path d="M85.075 47l-.965-3.096c.06-.02 6.01-1.85 7.909-2.499.197-.066.722-.246.722-1.232 0-.304-.085-.6-.245-.855L87.07 29.055a6.506 6.506 0 00-5.77-3.468H59.18L53.486 15.19c-.305-.605-.863-.949-1.486-.949V11a4.868 4.868 0 014.376 2.689l4.74 8.656H81.3a9.757 9.757 0 018.655 5.203l5.366 10.157c.424.665.68 1.556.68 2.468 0 2.067-1.093 3.675-2.925 4.299-1.943.664-7.754 2.452-8 2.528" id="Fill-13" fill="#A4193B"/><mask id="mask-2" fill="#fff"><use xlink:href="#path-1"/></mask><path id="Fill-15" fill="#A4193B" mask="url(#mask-2)" d="M38 91h16v-3H38z"/><path d="M42.317 80H39v-8.125C39 69.187 41.233 67 43.976 67H62v3.25H43.976c-.915 0-1.659.728-1.659 1.625V80z" id="Fill-17" fill="#A4193B" mask="url(#mask-2)"/><path d="M46.946 69L44 67.521l2.84-5.695A3.27 3.27 0 0149.784 60H57v3.305h-7.215L46.946 69z" id="Fill-18" fill="#A4193B" mask="url(#mask-2)"/></g></g></g></svg>