<svg width="70" height="17" xmlns="http://www.w3.org/2000/svg"><g id="Page-1" stroke="none" stroke-width="1" fill="none" fill-rule="evenodd"><g id="Property-Details" transform="translate(-999 -227)" fill="#A4193B" fill-rule="nonzero"><path d="M1006.183 244c.14 0 .27-.023.387-.069.118-.045.247-.114.388-.206.234-.183.375-.435.422-.755.047-.32-.047-.618-.281-.893l-4.463-5.424h65.167c.282 0 .529-.085.741-.253l.104-.091a1.11 1.11 0 00.352-.824c0-.32-.117-.595-.352-.824a1.167 1.167 0 00-.845-.344h-65.168l4.464-5.425c.2-.235.299-.487.293-.757l-.012-.135a1.124 1.124 0 00-.422-.756 1.454 1.454 0 00-.916-.24.978.978 0 00-.774.446l-6.057 7.28c-.14.228-.211.48-.211.755 0 .274.07.526.211.755l6.057 7.28c.093.137.223.251.387.343.164.091.34.137.528.137z" id="-copy-2"/></g></g></svg>