<svg width="18" height="18" xmlns="http://www.w3.org/2000/svg" xmlns:xlink="http://www.w3.org/1999/xlink"><defs><path d="M660 45c0-3.309 2.69-6 6-6 3.309 0 6 2.691 6 6s-2.691 6-6 6c-3.31 0-6-2.691-6-6m15.707 8.293l-3.395-3.396A7.952 7.952 0 00674 45c0-4.411-3.59-8-8-8-4.411 0-8 3.589-8 8s3.589 8 8 8a7.952 7.952 0 004.897-1.688l3.396 3.395a.997.997 0 001.414 0 .999.999 0 000-1.414" id="path-1"/></defs><g id="Page-1" stroke="none" stroke-width="1" fill="none" fill-rule="evenodd"><g id="Index" transform="translate(-658 -37)"><mask id="mask-2" fill="#fff"><use xlink:href="#path-1"/></mask><use id="search" fill="#000" fill-rule="nonzero" xlink:href="#path-1"/></g></g></svg>