<svg width="108" height="107" xmlns="http://www.w3.org/2000/svg" xmlns:xlink="http://www.w3.org/1999/xlink"><defs><path id="path-1" d="M0 106.424h108V.03H0z"/></defs><g id="Page-1" stroke="none" stroke-width="1" fill="none" fill-rule="evenodd"><g id="Index" transform="translate(-913 -1118)"><g id="Group-20" transform="translate(913 1118)"><path id="Fill-1" fill="#A4193B" d="M33 10h4V6h-4z"/><path id="Fill-2" fill="#A4193B" d="M7 40h4v-4H7z"/><path d="M7.322 33.028h3.661V16.514H4.351c-.38 0-.69-.31-.69-.692a1.2 1.2 0 01.38-.684l8.875-8.993a2.761 2.761 0 011.767-.64c.452 0 1.17.202 1.647.545l8.863 9.073c.434.448.434.631.434.7 0 .302-.335.691-.69.691h-6.632v11.01h3.661v-7.34h2.971c2.358 0 4.351-1.998 4.351-4.362 0-1.172-.481-2.236-1.475-3.26l-8.96-9.175-.173-.154c-1.067-.85-2.634-1.398-3.997-1.398-1.498 0-2.957.528-4.24 1.607L1.53 12.47C.042 13.786 0 15.619 0 15.822a4.36 4.36 0 004.351 4.362h2.971v12.844z" id="Fill-3" fill="#A4193B"/><mask id="mask-2" fill="#fff"><use xlink:href="#path-1"/></mask><path id="Fill-5" fill="#A4193B" mask="url(#mask-2)" d="M54.915 29.358h3.661v-3.67h-3.66z"/><path id="Fill-7" fill="#A4193B" mask="url(#mask-2)" d="M39.004 46.274l-16.627 5.58 1.163 3.479 16.626-5.58z"/><path id="Fill-8" fill="#A4193B" mask="url(#mask-2)" d="M44.163 63.866l-9.466 3.342 1.216 3.462 9.465-3.341z"/><path id="Fill-9" fill="#A4193B" mask="url(#mask-2)" d="M43.895 77.566l1.294 3.433 12.127-4.588-1.294-3.433z"/><path id="Fill-10" fill="#A4193B" mask="url(#mask-2)" d="M87.864 71.56h3.661v-3.669h-3.66z"/><path id="Fill-11" fill="#A4193B" mask="url(#mask-2)" d="M7.322 80.735h3.661v-3.67H7.322z"/><path id="Fill-12" fill="#A4193B" mask="url(#mask-2)" d="M7.322 73.396h3.661v-3.67H7.322z"/><path d="M103.955 21.318l-3.425 3.463-8.1-8.12 3.207-3.187c.35-.4.853-.63 1.38-.63.49 0 .95.191 1.294.538l5.497 5.51c.342.344.531.802.531 1.292 0 .448-.163.877-.384 1.134zM87.852 82.574L49.424 93.58 12.812 49.543 51.133 38.56l.121-.026 6.325 7.606-3.32 3.299a5.104 5.104 0 00-1.339 2.37l-4.18 16.768 16.732-4.191a5.103 5.103 0 002.365-1.349l2.06-2.08 17.955 21.616zm-1.83 9.175L47.75 102.716c-.011.004-.15.033-.158.039L10.981 58.717l3.795-1.086L46.61 95.927a3.649 3.649 0 003.729 1.205l32.446-9.292 3.236 3.909zm-23.781-39.3l-2.892-2.901L89.83 19.245l2.768 2.774-30.357 30.43zm2.586 2.596l30.36-30.431 2.765 2.772-30.234 30.56-2.89-2.9zm-8.356-2.34c.053-.21.174-.384.306-.546l8.336 8.364c-.163.13-.333.253-.534.304l-10.81 2.708 2.702-10.83zM106.398 16.3l-5.495-5.509a5.435 5.435 0 00-3.886-1.616c-1.582 0-3.09.684-4.045 1.785L60.189 43.546l-6.123-7.363c-.912-1.09-2.477-1.48-3.819-1.18L11.803 46.014a3.688 3.688 0 00-2.65 3.529c0 .765.232 1.497.761 2.236l2.301 2.767-2.242.643a3.688 3.688 0 00-2.651 3.528c0 .765.233 1.497.762 2.237L44.78 105.1a3.649 3.649 0 002.813 1.323c.242 0 .851-.104 1.007-.14L87.116 95.25a3.647 3.647 0 002.579-3.505c0-.72-.207-1.418-.602-2.016l-2.468-2.99 2.321-.664a3.647 3.647 0 002.58-3.504c0-.72-.207-1.419-.603-2.017L72.484 58.34l34.141-34.514a5.505 5.505 0 001.375-3.64c0-1.469-.57-2.847-1.602-3.885z" id="Fill-13" fill="#A4193B" mask="url(#mask-2)"/><path d="M51.944 18.349h2.971v3.67h3.661v-7.34h-6.632c-.227 0-.42-.064-.532-.178-.108-.108-.161-.286-.158-.525.002-.222.094-.423.381-.673l8.874-8.993c.93-.774 2.422-.82 3.41-.097l8.871 9.079.169.152c.164.132.265.365.261.509-.007.407-.31.726-.69.726h-6.632v7.34h3.661v-3.67h2.971c2.395 0 4.306-1.9 4.351-4.325.026-1.257-.563-2.536-1.543-3.367l-8.892-9.103-.169-.152c-2.288-1.824-5.74-1.9-8.24.205L49.161 10.6a4.406 4.406 0 00-1.569 3.336c-.014 1.22.42 2.338 1.216 3.147.807.816 1.92 1.266 3.135 1.266" id="Fill-14" fill="#A4193B" mask="url(#mask-2)"/><path id="Fill-15" fill="#A4193B" mask="url(#mask-2)" d="M44.495 53.613l-16.626 5.58 1.162 3.48 16.627-5.58z"/><path d="M98.847 51.377c0 1.013-.82 1.835-1.83 1.835h-3.665c-3.026 0-5.488 2.468-5.488 5.501v5.508h3.661v-5.508a1.83 1.83 0 011.827-1.831h3.665c3.028 0 5.491-2.47 5.491-5.505v-7.34h-3.66v7.34z" id="Fill-16" fill="#A4193B" mask="url(#mask-2)"/><path d="M38.44 25.689h3.665a1.83 1.83 0 011.827 1.83v5.51h3.661v-5.51c0-3.032-2.462-5.5-5.488-5.5h-3.664c-1.01 0-1.83-.822-1.83-1.835v-7.34h-3.662v7.34c0 3.035 2.464 5.505 5.492 5.505" id="Fill-17" fill="#A4193B" mask="url(#mask-2)"/><path d="M16.478 93.58h-3.664c-1.01 0-1.83-.822-1.83-1.835v-7.34H7.321v7.34c0 3.035 2.464 5.504 5.492 5.504h3.664a1.83 1.83 0 011.827 1.832v5.508h3.661v-5.508c0-3.033-2.462-5.501-5.488-5.501" id="Fill-18" fill="#A4193B" mask="url(#mask-2)"/></g></g></g></svg>