<svg width="119" height="107" xmlns="http://www.w3.org/2000/svg"><g id="Page-1" stroke="none" stroke-width="1" fill="none" fill-rule="evenodd"><g id="Index" transform="translate(-430 -1118)" fill="#A4193B"><g id="Group-26" transform="translate(430 1118)"><path d="M70.857 51.7c0 1.16-.928 2.1-2.071 2.1H52.214c-1.143 0-2.071-.94-2.071-2.1v-8.4c0-1.16.928-2.1 2.071-2.1h16.572c1.143 0 2.071.94 2.071 2.1v8.4zM68.786 37H52.214C48.788 37 46 39.827 46 43.3v8.4c0 3.473 2.788 6.3 6.214 6.3h16.572C72.212 58 75 55.173 75 51.7v-8.4c0-3.473-2.788-6.3-6.214-6.3z" id="Fill-1"/><path id="Fill-3" d="M46 107h10v-5H46z"/><path id="Fill-5" d="M90 107h4v-5h-4z"/><path id="Fill-6" d="M96 88h4v-5h-4z"/><path id="Fill-7" d="M105 88h4v-5h-4z"/><path id="Fill-8" d="M113 88h4v-5h-4z"/><path id="Fill-9" d="M71 78h4V66h-4z"/><path id="Fill-10" d="M63 78h4v-8h-4z"/><path id="Fill-11" d="M54 78h4v-5h-4z"/><path id="Fill-12" d="M9 78h22v-5H9z"/><path id="Fill-13" d="M8 70h15v-5H8z"/><path id="Fill-14" d="M8 53h29v-5H8z"/><path id="Fill-15" d="M8 42h21v-5H8z"/><path id="Fill-16" d="M34 42h4v-5h-4z"/><path id="Fill-17" d="M75 13h15V8H75z"/><path id="Fill-18" d="M95 13h4V8h-4z"/><path d="M114.825 69.083c0 1.105-1.575 2.336-3.831 2.336h-23.31v-4.186h27.14v1.85zm-31.316 12.8a2.091 2.091 0 01-2.088 2.094H6.263a2.091 2.091 0 01-2.088-2.093V31.65c0-1.155.936-2.093 2.088-2.093h75.158c1.152 0 2.088.938 2.088 2.093v50.233zM50.105 23.28c0-1.155.936-2.093 2.088-2.093h54.28c1.153 0 2.088.938 2.088 2.093v39.768H87.684V31.65c0-3.462-2.81-6.279-6.263-6.279H50.105V23.28zm62.632 39.768V23.279c0-3.462-2.81-6.279-6.263-6.279H52.193c-3.453 0-6.263 2.817-6.263 6.28v2.092H6.263C2.81 25.372 0 28.19 0 31.652v50.232c0 3.464 2.81 6.279 6.263 6.279h22.871L17.77 102.814H0V107h41.754v-4.186H23.06l11.365-14.651H53.26l11.365 14.651h-4.081V107h25.052v-4.186h-15.68L58.55 88.163h22.871c3.453 0 6.263-2.815 6.263-6.28v-6.278h23.31c4.488 0 8.006-2.866 8.006-6.522v-6.036h-6.263z" id="Fill-19"/><path id="Fill-20" d="M82 5h29V0H82z"/><path id="Fill-21" d="M71 5h4V0h-4z"/><path id="Fill-22" d="M63 5h4V0h-4z"/><path id="Fill-23" d="M0 13h15V8H0z"/><path id="Fill-24" d="M19 13h4V8h-4z"/><path id="Fill-25" d="M7 5h29V0H7z"/></g></g></g></svg>