<svg width="461" height="469" xmlns="http://www.w3.org/2000/svg"><defs><linearGradient x1="53.832%" y1="-3.095%" x2="38.864%" y2="110.737%" id="linearGradient-1"><stop stop-color="#AA80F9" offset="0%"/><stop stop-color="#6165D7" offset="100%"/></linearGradient><linearGradient x1="48.783%" y1="50.178%" x2="44.325%" y2="-45.964%" id="linearGradient-2"><stop stop-color="#E38DDD" offset="0%"/><stop stop-color="#9571F6" offset="100%"/></linearGradient><linearGradient x1="18.318%" y1="46.524%" x2="64.493%" y2="53.073%" id="linearGradient-3"><stop stop-color="#D8DEE8" offset="45%"/><stop stop-color="#FFF" offset="100%"/></linearGradient><linearGradient x1="61.261%" y1="54.831%" x2="-.478%" y2="49.102%" id="linearGradient-4"><stop stop-color="#D8DEE8" offset="0%"/><stop stop-color="#FFF" offset="100%"/></linearGradient><linearGradient x1="57.594%" y1="58.276%" x2="6.585%" y2="60.288%" id="linearGradient-5"><stop stop-color="#E38DDD" offset="0%"/><stop stop-color="#9571F6" offset="100%"/></linearGradient><linearGradient x1="50.424%" y1="59.695%" x2="129.812%" y2="-50.787%" id="linearGradient-6"><stop stop-color="#FF9085" offset="0%"/><stop stop-color="#FB6FBB" offset="100%"/></linearGradient><linearGradient x1="529.368%" y1="154.733%" x2="629.591%" y2="154.733%" id="linearGradient-7"><stop stop-color="#FF9085" offset="0%"/><stop stop-color="#FB6FBB" offset="100%"/></linearGradient><linearGradient x1="52.265%" y1="-12.103%" x2="52.265%" y2="201.149%" id="linearGradient-8"><stop stop-color="#E38DDD" offset="0%"/><stop stop-color="#9571F6" offset="100%"/></linearGradient><linearGradient x1="50.005%" y1="-23.361%" x2="50.005%" y2="189.042%" id="linearGradient-9"><stop stop-color="#E38DDD" offset="0%"/><stop stop-color="#9571F6" offset="100%"/></linearGradient><linearGradient x1="54.099%" y1="-37.023%" x2="54.099%" y2="174.084%" id="linearGradient-10"><stop stop-color="#E38DDD" offset="0%"/><stop stop-color="#9571F6" offset="100%"/></linearGradient><linearGradient x1="49.995%" y1="-23.358%" x2="49.995%" y2="189.045%" id="linearGradient-11"><stop stop-color="#E38DDD" offset="0%"/><stop stop-color="#9571F6" offset="100%"/></linearGradient><linearGradient x1="54.575%" y1="-8.778%" x2="54.575%" y2="204.154%" id="linearGradient-12"><stop stop-color="#E38DDD" offset="0%"/><stop stop-color="#9571F6" offset="100%"/></linearGradient><linearGradient x1="50.01%" y1="-23.359%" x2="50.01%" y2="189.047%" id="linearGradient-13"><stop stop-color="#E38DDD" offset="0%"/><stop stop-color="#9571F6" offset="100%"/></linearGradient><linearGradient x1="1.69%" y1="174.593%" x2="79.511%" y2="25.799%" id="linearGradient-14"><stop stop-color="#FFC444" offset="0%"/><stop stop-color="#F57A54" offset="86%"/><stop stop-color="#F36F56" offset="100%"/></linearGradient><linearGradient x1="847.235%" y1="72.922%" x2="845.65%" y2="70.789%" id="linearGradient-15"><stop stop-color="#FFC444" offset="0%"/><stop stop-color="#F57A54" offset="86%"/><stop stop-color="#F36F56" offset="100%"/></linearGradient><linearGradient x1="-48.406%" y1="323.707%" x2="30.031%" y2="186.762%" id="linearGradient-16"><stop stop-color="#FFC444" offset="0%"/><stop stop-color="#F36F56" offset="100%"/></linearGradient><linearGradient x1="556.731%" y1="133.381%" x2="607.231%" y2="115.633%" id="linearGradient-17"><stop stop-color="#D8DEE8" offset="0%"/><stop stop-color="#FFF" offset="100%"/></linearGradient><linearGradient x1="55.165%" y1="58.669%" x2="69.387%" y2="63.397%" id="linearGradient-18"><stop stop-color="#D8DEE8" offset="0%"/><stop stop-color="#EBEEF3" offset="47%"/><stop stop-color="#FFF" offset="100%"/></linearGradient><linearGradient x1="4079.816%" y1="310.981%" x2="4179.329%" y2="310.981%" id="linearGradient-19"><stop stop-color="#FFC444" offset="0%"/><stop stop-color="#F36F56" offset="100%"/></linearGradient><linearGradient x1="1543.229%" y1="130.243%" x2="1692.151%" y2="103.9%" id="linearGradient-20"><stop stop-color="#FF9085" offset="0%"/><stop stop-color="#FB6FBB" offset="100%"/></linearGradient><linearGradient x1="214.826%" y1="51.052%" x2="59.002%" y2="52.698%" id="linearGradient-21"><stop stop-color="#D8DEE8" offset="0%"/><stop stop-color="#FFF" offset="100%"/></linearGradient><linearGradient x1="232.52%" y1="50.845%" x2="75.585%" y2="52.422%" id="linearGradient-22"><stop stop-color="#D8DEE8" offset="0%"/><stop stop-color="#FFF" offset="100%"/></linearGradient><linearGradient x1="136.755%" y1="53.198%" x2="-146.817%" y2="40.39%" id="linearGradient-23"><stop stop-color="#D8DEE8" offset="0%"/><stop stop-color="#FFF" offset="100%"/></linearGradient><linearGradient x1="152.608%" y1="48.387%" x2="32.275%" y2="50.123%" id="linearGradient-24"><stop stop-color="#D8DEE8" offset="0%"/><stop stop-color="#FFF" offset="100%"/></linearGradient><linearGradient x1=".288%" y1="50.007%" x2="100%" y2="50.007%" id="linearGradient-25"><stop stop-color="#444B8C" offset="0%"/><stop stop-color="#26264F" offset="100%"/></linearGradient><linearGradient x1=".001%" y1="48.733%" x2="100%" y2="48.733%" id="linearGradient-26"><stop stop-color="#444B8C" offset="0%"/><stop stop-color="#26264F" offset="100%"/></linearGradient><linearGradient x1="50.011%" y1="174.172%" x2="50.011%" y2="22.883%" id="linearGradient-27"><stop stop-color="#444B8C" offset="0%"/><stop stop-color="#26264F" offset="100%"/></linearGradient><linearGradient x1="50%" y1="118.302%" x2="50%" y2="32.493%" id="linearGradient-28"><stop stop-color="#444B8C" offset="0%"/><stop stop-color="#26264F" offset="100%"/></linearGradient><linearGradient x1="-105.995%" y1="50%" x2="1210.791%" y2="50%" id="linearGradient-29"><stop stop-color="#311944" offset="0%"/><stop stop-color="#893976" offset="100%"/></linearGradient><linearGradient x1="-105.995%" y1="50.104%" x2="1210.791%" y2="50.104%" id="linearGradient-30"><stop stop-color="#311944" offset="0%"/><stop stop-color="#893976" offset="100%"/></linearGradient><linearGradient x1="76.288%" y1="2.377%" x2="59.075%" y2="43.265%" id="linearGradient-31"><stop stop-color="#FF9085" offset="0%"/><stop stop-color="#FB6FBB" offset="100%"/></linearGradient><linearGradient x1="100.833%" y1="61.641%" x2="1.865%" y2="67%" id="linearGradient-32"><stop stop-color="#FCB148" offset="0%"/><stop stop-color="#FDBA46" offset="5%"/><stop stop-color="#FFC244" offset="14%"/><stop stop-color="#FFC444" offset="32%"/><stop stop-color="#FDB946" offset="48%"/><stop stop-color="#F99C4D" offset="78%"/><stop stop-color="#F8924F" offset="87%"/><stop stop-color="#F8924F" offset="100%"/></linearGradient><linearGradient x1="74.327%" y1="141.63%" x2="36.9%" y2="-32.464%" id="linearGradient-33"><stop stop-color="#311944" offset="0%"/><stop stop-color="#893976" offset="100%"/></linearGradient><linearGradient x1="79.353%" y1="56.203%" x2="-15.426%" y2="65.251%" id="linearGradient-34"><stop stop-color="#FCB148" offset="0%"/><stop stop-color="#FDBA46" offset="5%"/><stop stop-color="#FFC244" offset="14%"/><stop stop-color="#FFC444" offset="32%"/><stop stop-color="#FDB946" offset="48%"/><stop stop-color="#F99C4D" offset="78%"/><stop stop-color="#F8924F" offset="87%"/><stop stop-color="#F8924F" offset="100%"/></linearGradient><linearGradient x1="141.767%" y1="101.02%" x2="46.145%" y2="-72.609%" id="linearGradient-35"><stop stop-color="#311944" offset="0%"/><stop stop-color="#893976" offset="100%"/></linearGradient><linearGradient x1="56.182%" y1="83.955%" x2="48.315%" y2="16.204%" id="linearGradient-36"><stop stop-color="#444B8C" offset="0%"/><stop stop-color="#26264F" offset="100%"/></linearGradient><linearGradient x1="55.2%" y1="85.525%" x2="47.553%" y2="16.68%" id="linearGradient-37"><stop stop-color="#311944" offset="0%"/><stop stop-color="#893976" offset="100%"/></linearGradient><linearGradient x1="57.105%" y1="87.394%" x2="47.958%" y2="24.467%" id="linearGradient-38"><stop stop-color="#444B8C" offset="0%"/><stop stop-color="#26264F" offset="100%"/></linearGradient><linearGradient x1="35.822%" y1="92.779%" x2="59.507%" y2="13.465%" id="linearGradient-39"><stop stop-color="#FF9085" offset="0%"/><stop stop-color="#FB6FBB" offset="100%"/></linearGradient><linearGradient x1="-13.394%" y1="130.636%" x2="58.404%" y2="31.761%" id="linearGradient-40"><stop stop-color="#311944" offset="0%"/><stop stop-color="#893976" offset="100%"/></linearGradient><linearGradient x1="9.474%" y1="165.461%" x2="62.493%" y2="13.595%" id="linearGradient-41"><stop stop-color="#444B8C" offset="0%"/><stop stop-color="#26264F" offset="100%"/></linearGradient><linearGradient x1="-308.431%" y1="250.358%" x2="162.826%" y2="-7.1%" id="linearGradient-42"><stop stop-color="#311944" offset="0%"/><stop stop-color="#893976" offset="100%"/></linearGradient><linearGradient x1="1.871%" y1="179.3%" x2="92.23%" y2="-29.856%" id="linearGradient-43"><stop stop-color="#444B8C" offset="0%"/><stop stop-color="#26264F" offset="100%"/></linearGradient><linearGradient x1="-246.802%" y1="141.704%" x2="233.783%" y2="-10.079%" id="linearGradient-44"><stop stop-color="#311944" offset="0%"/><stop stop-color="#893976" offset="100%"/></linearGradient><linearGradient x1="35.147%" y1="83.567%" x2="99.798%" y2="-83.416%" id="linearGradient-45"><stop stop-color="#FF9085" offset="0%"/><stop stop-color="#FB6FBB" offset="100%"/></linearGradient><linearGradient x1="25.841%" y1="93.857%" x2="81.907%" y2="-63.435%" id="linearGradient-46"><stop stop-color="#311944" offset="0%"/><stop stop-color="#893976" offset="100%"/></linearGradient><linearGradient x1="47.196%" y1="83.373%" x2="59.855%" y2=".331%" id="linearGradient-47"><stop stop-color="#FF9085" offset="0%"/><stop stop-color="#FB6FBB" offset="100%"/></linearGradient><linearGradient x1="29.269%" y1="26.082%" x2="82.554%" y2="105.007%" id="linearGradient-48"><stop stop-color="#FF9085" offset="0%"/><stop stop-color="#FB6FBB" offset="100%"/></linearGradient><linearGradient x1="35.085%" y1="9.799%" x2="82.514%" y2="127.547%" id="linearGradient-49"><stop stop-color="#311944" offset="0%"/><stop stop-color="#893976" offset="100%"/></linearGradient><linearGradient x1="40.161%" y1="-50.581%" x2="63.375%" y2="197.152%" id="linearGradient-50"><stop stop-color="#444B8C" offset="0%"/><stop stop-color="#26264F" offset="100%"/></linearGradient><linearGradient x1="0%" y1="50.103%" x2="100%" y2="50.103%" id="linearGradient-51"><stop stop-color="#FFC444" offset="0%"/><stop stop-color="#F36F56" offset="100%"/></linearGradient><linearGradient x1="41.37%" y1="-119.228%" x2="60.502%" y2="268.604%" id="linearGradient-52"><stop stop-color="#444B8C" offset="0%"/><stop stop-color="#26264F" offset="100%"/></linearGradient><linearGradient x1="0%" y1="49.985%" x2="99.988%" y2="49.985%" id="linearGradient-53"><stop stop-color="#FFC444" offset="0%"/><stop stop-color="#F36F56" offset="100%"/></linearGradient><linearGradient x1="46.208%" y1="66.853%" x2="53.075%" y2="30.97%" id="linearGradient-54"><stop stop-color="#AA80F9" offset="0%"/><stop stop-color="#6165D7" offset="100%"/></linearGradient><linearGradient x1="89.932%" y1="-158.493%" x2="18.232%" y2="225.585%" id="linearGradient-55"><stop stop-color="#FFC444" offset="0%"/><stop stop-color="#F36F56" offset="100%"/></linearGradient><linearGradient x1="38.481%" y1="73.64%" x2="67.968%" y2="11.103%" id="linearGradient-56"><stop stop-color="#AA80F9" offset="0%"/><stop stop-color="#6165D7" offset="100%"/></linearGradient><linearGradient x1="0%" y1="49.98%" x2="99.996%" y2="49.98%" id="linearGradient-57"><stop stop-color="#E38DDD" offset="0%"/><stop stop-color="#9571F6" offset="100%"/></linearGradient><linearGradient x1="49.341%" y1="15.787%" x2="50.198%" y2="50.763%" id="linearGradient-58"><stop stop-color="#444B8C" offset="0%"/><stop stop-color="#26264F" offset="100%"/></linearGradient><linearGradient x1="47.031%" y1="69.226%" x2="52.274%" y2="33.2%" id="linearGradient-59"><stop stop-color="#AA80F9" offset="0%"/><stop stop-color="#6165D7" offset="100%"/></linearGradient><linearGradient x1=".013%" y1="49.913%" x2="99.987%" y2="49.913%" id="linearGradient-60"><stop stop-color="#AA80F9" offset="0%"/><stop stop-color="#6165D7" offset="100%"/></linearGradient><linearGradient x1="0%" y1="49.992%" x2="100%" y2="49.992%" id="linearGradient-61"><stop stop-color="#E38DDD" offset="0%"/><stop stop-color="#9571F6" offset="100%"/></linearGradient><linearGradient x1="39.703%" y1="-14.562%" x2="51.56%" y2="81.275%" id="linearGradient-62"><stop stop-color="#AA80F9" offset="0%"/><stop stop-color="#6165D7" offset="100%"/></linearGradient><linearGradient x1="55.001%" y1="36.885%" x2="14.923%" y2="239.593%" id="linearGradient-63"><stop stop-color="#FFC444" offset="0%"/><stop stop-color="#F36F56" offset="100%"/></linearGradient><linearGradient x1="49.727%" y1="64.372%" x2="-49.865%" y2="1128.639%" id="linearGradient-64"><stop stop-color="#FFC444" offset="0%"/><stop stop-color="#F36F56" offset="100%"/></linearGradient><linearGradient x1="50.411%" y1="53.621%" x2="66.034%" y2="197.296%" id="linearGradient-65"><stop stop-color="#311944" offset="0%"/><stop stop-color="#45204F" offset="23%"/><stop stop-color="#893976" offset="100%"/></linearGradient><linearGradient x1="-.026%" y1="50.039%" x2="99.762%" y2="50.039%" id="linearGradient-66"><stop stop-color="#311944" offset="0%"/><stop stop-color="#893976" offset="100%"/></linearGradient><linearGradient x1="82.008%" y1="-66.565%" x2="13.374%" y2="184.263%" id="linearGradient-67"><stop stop-color="#FFC444" offset="0%"/><stop stop-color="#F36F56" offset="100%"/></linearGradient><linearGradient x1="14.914%" y1="63.072%" x2="78.993%" y2="63.846%" id="linearGradient-68"><stop stop-color="#E38DDD" offset="0%"/><stop stop-color="#9571F6" offset="100%"/></linearGradient><linearGradient x1="206.515%" y1="481.639%" x2="38.482%" y2="24.85%" id="linearGradient-69"><stop stop-color="#311944" offset="0%"/><stop stop-color="#A03976" offset="100%"/></linearGradient><linearGradient x1="104.795%" y1="286.538%" x2="-11.52%" y2="-223.3%" id="linearGradient-70"><stop stop-color="#311944" offset="0%"/><stop stop-color="#A03976" offset="100%"/></linearGradient><linearGradient x1="160.411%" y1="25.218%" x2="-142.752%" y2="99.465%" id="linearGradient-71"><stop stop-color="#E38DDD" offset="0%"/><stop stop-color="#9571F6" offset="100%"/></linearGradient><linearGradient x1="438.469%" y1="-180.246%" x2="278.046%" y2="-144.281%" id="linearGradient-72"><stop stop-color="#311944" offset="0%"/><stop stop-color="#A03976" offset="100%"/></linearGradient><linearGradient x1="-58.713%" y1="6.564%" x2="186.952%" y2="113.238%" id="linearGradient-73"><stop stop-color="#E38DDD" offset="0%"/><stop stop-color="#9571F6" offset="100%"/></linearGradient><linearGradient x1="-973.317%" y1="-169.735%" x2="-581.058%" y2="-98.346%" id="linearGradient-74"><stop stop-color="#311944" offset="0%"/><stop stop-color="#A03976" offset="100%"/></linearGradient><linearGradient x1="64.421%" y1="-4.679%" x2="45.055%" y2="103.51%" id="linearGradient-75"><stop stop-color="#E38DDD" offset="0%"/><stop stop-color="#9571F6" offset="100%"/></linearGradient><linearGradient x1="112.575%" y1="-57.502%" x2="58.299%" y2="23.845%" id="linearGradient-76"><stop stop-color="#E38DDD" offset="0%"/><stop stop-color="#9571F6" offset="100%"/></linearGradient><linearGradient x1="43.727%" y1="-13.212%" x2="47.863%" y2="25.683%" id="linearGradient-77"><stop stop-color="#E38DDD" offset="0%"/><stop stop-color="#9571F6" offset="100%"/></linearGradient><linearGradient x1="41.551%" y1="102.098%" x2="84.71%" y2="-200.879%" id="linearGradient-78"><stop stop-color="#FFC444" offset="0%"/><stop stop-color="#F36F56" offset="100%"/></linearGradient><linearGradient x1="42.979%" y1="116.881%" x2="71.598%" y2="-176.277%" id="linearGradient-79"><stop stop-color="#FFC444" offset="0%"/><stop stop-color="#F36F56" offset="100%"/></linearGradient><linearGradient x1="48.575%" y1="58.675%" x2="125.306%" y2="-252.423%" id="linearGradient-80"><stop stop-color="#FFC444" offset="0%"/><stop stop-color="#F36F56" offset="100%"/></linearGradient><linearGradient x1="-133.179%" y1="49.898%" x2="-105.336%" y2="-81.43%" id="linearGradient-81"><stop stop-color="#311944" offset="0%"/><stop stop-color="#6B3976" offset="100%"/></linearGradient><linearGradient x1="-104.382%" y1=".815%" x2="-75.148%" y2="66.019%" id="linearGradient-82"><stop stop-color="#311944" offset="0%"/><stop stop-color="#A03976" offset="100%"/></linearGradient><linearGradient x1="49.626%" y1="-325.491%" x2="134.427%" y2="-273.849%" id="linearGradient-83"><stop stop-color="#311944" offset="0%"/><stop stop-color="#A03976" offset="100%"/></linearGradient><linearGradient x1="72.749%" y1="166.886%" x2="1.529%" y2="-134.051%" id="linearGradient-84"><stop stop-color="#FFC444" offset="0%"/><stop stop-color="#F36F56" offset="100%"/></linearGradient></defs><g id="Page-1" stroke="none" stroke-width="1" fill="none" fill-rule="evenodd"><g id="WE-are-ready" transform="translate(-1144 -2479)" fill-rule="nonzero"><g id="tenant" transform="translate(1144 2479)"><path d="M321.837 17.15c15.669 17.26 6.696 48.077 30.633 62.85 25.586 15.793 49.449-11.008 73.008 1.719 35.755 19.328 42.548 114.434 7.21 178.716-10.98 19.981-21.401 28.72-23.347 49.676-4.183 45.011 38.278 64.752 34.3 87.312-8.95 50.793-255.97 130.885-380.223 1.88-58.033-60.249-80.385-156.861-49.552-237.721C70.325 13.592 281.156-27.661 321.837 17.15z" id="Path" fill="#F4F7FA"/><path d="M107.115 277.989c14.288 1.058 34.498-73.03 42.334-126.293 6.435-43.74 6.241-85.077-1.835-86.553-6.178-1.144-14.704 21.513-19.84 19.877-6.884-2.19 6.68-43.39-5.129-50.792-7.29-4.576-23.367 4.25-32.976 16.33-17.338 21.792-10.532 50.334-.758 119 12.504 87.982 10.846 107.887 18.204 108.43z" id="Path" fill="url(#linearGradient-1)"/><path d="M119.25 229.903c6.963-20.047 15.266-29.852 13.512-47.648-1.53-15.5-8.74-16.964-10.706-35.018-2.225-20.488 6.486-23.623 4.025-40.035-3.387-22.797-21.476-25.466-23.857-45.438-.747-6.315 0-14.822 5.624-25.764a55.757 55.757 0 00-18.084 14.736c-17.492 21.872-10.626 50.518-.765 119.435 12.65 88.303 10.965 108.28 18.4 108.826a5.532 5.532 0 003.485-1.09c.442-20.438 4.3-36.345 8.366-48.004z" id="Path" fill="#FFF" opacity=".3" style="mix-blend-mode:soft-light"/><path d="M119.063 332c28.881-60.002.533-122.187-.482-156.83-2.294-77.936-20.113-94.088-28.94-99.88-11.756-7.712-30.9-12.35-41.291-3.38-19.42 16.78.424 73.776-9.721 77.948-5.254 2.154-11.356-12.786-19.729-11.113-11.47 2.298-16.632 33.517-17.538 41.303-7.048 60.174 90.763 132.68 117.7 151.952z" id="Path" fill="url(#linearGradient-2)"/><path d="M90.978 256.241c-9.321-25.806-15.73-28.834-17.212-47.242-2.734-33.95 17.252-46.05 10.29-71.788-4.96-18.351-16.605-17.703-26.019-40.292A88.96 88.96 0 0151.641 70a18.2 18.2 0 00-2.982 2.07c-19.53 16.746.427 73.629-9.777 77.792-5.283 2.15-11.42-12.76-19.841-11.091-11.536 2.294-16.727 33.45-17.639 41.221C-5.727 240.046 83.883 308.766 110.992 328c.272-1.147-6.921-8.889-6.638-10.001-2.457-27.063-8.237-47.53-13.376-61.758z" id="Path" fill="#FFF" opacity=".5" style="mix-blend-mode:soft-light"/><path id="Path" fill="url(#linearGradient-3)" d="M309.74 353L311 87.178 243.796 45l-76.412 20.046-32.376 39.099L134 321.277z"/><path id="Path" fill="url(#linearGradient-4)" d="M432.068 126.014L312.245 89 311 355l122-38.881z"/><path id="Path" fill="#FFF" d="M388 228l26.256-2.693L415 144.6l-26.204-5.6z"/><path id="Path" fill="url(#linearGradient-5)" d="M394.023 229l15.27-2.795.707-76.728L393 146z"/><path id="Path" fill="url(#linearGradient-6)" d="M165.08 60.119L228.77 24 247 40.962 168.724 62.25 118.871 126l-.871-3.06z"/><path id="Path" fill="url(#linearGradient-7)" d="M230 25l126.068 47.453L461 135 338.67 98.178l-91.147-57.084z"/><path id="Path" fill="#FFF" d="M139.294 142.188L177 137l-.318 66.28L139 204zm89.037-11.101L297 123l-.36 77.645L228 202z"/><path id="Path" fill="url(#linearGradient-8)" d="M233.448 136.828L233 198l57.69-1.973L291 131z"/><g id="Group" opacity=".3" style="mix-blend-mode:multiply" transform="translate(232 137)" fill="url(#linearGradient-9)"><path d="M8.399.108L.82.865.376 61.88l58.034-1.969.035-7.889c-9.4-3.487-19.453-5.648-29.009-9.59C13.512 35.607 11.286 16.523 8.4.108z" id="Path"/></g><path id="Path" fill="#FFF" d="M228 236.144l68.788-.144.212 80-68.76-8.367z"/><path id="Path" fill="url(#linearGradient-10)" d="M232.448 242L232 303.324 289.69 310l.31-67.553z"/><g id="Group" opacity=".3" style="mix-blend-mode:multiply" transform="translate(232 240)" fill="url(#linearGradient-11)"><path d="M25.387 32.073C18.342 22.485 15.797 11.6 13.275.646L.821.55.376 61.24l58.034 6.607.081-17.504c-12.506-4.103-25.104-7.135-33.104-18.27z" id="Path"/></g><path id="Path" fill="url(#linearGradient-12)" d="M142.401 146.663L142 198l29.738-.917L172 143z"/><g id="Group" opacity=".3" style="mix-blend-mode:multiply" transform="translate(142 146)" fill="url(#linearGradient-13)"><path d="M17.821 35.387C9.346 25.684 7.101 12.885 8.1.172l-7.702.983L0 53.563l29.498-.936.035-7.359a52.15 52.15 0 01-11.712-9.88z" id="Path"/></g><path id="Path" fill="url(#linearGradient-14)" d="M312 105.886L312.087 88l5.61 5.078L330 99.669 312.44 106z"/><path id="Path" fill="url(#linearGradient-15)" d="M330.495 100l1.201.715L456 136.53l-22.7.471L312 106.786z"/><path id="Path" fill="url(#linearGradient-16)" d="M134.855 125.266L119 126l16-18z"/><path id="Path" fill="#CA84E5" d="M206 91l12.882-2.072L219 64l-12.876 2.206z"/><path d="M204 93l.138-28.137L221 62l-.138 28.31L204 93zm4.466-24.574l-.098 19.61 8.166-1.3.098-19.671-8.166 1.361z" id="Shape" fill="#FFF"/><path id="Path" fill="#FFF" d="M455.872 136l5.128-1.512-132.792-42.033L247.625 41l-78.823 21.212L166 65.724l78.79-20.597 73.718 48.167 113.843 36.164z"/><path id="Path" fill="#FFF" d="M169.006 62L119 126l1.554-.017L171 63.443z"/><path id="Rectangle" fill="#FFF" transform="rotate(180 270.5 165.5)" d="M269 132h3v67h-3z"/><path id="Rectangle" fill="#FFF" transform="rotate(180 270.5 273.5)" d="M269 240h3v67h-3z"/><path id="Path" fill="url(#linearGradient-17)" d="M98 324.142l.494-101.568L133.651 183 179 227.521 178.46 340l-16.39-1.58-5.342-3.002-36.226-13.342z"/><path id="Path" fill="url(#linearGradient-18)" d="M179 340l.605-112.256L204.463 216 218 227.63l-1.046 109.464z"/><path id="Path" fill="#FFF" d="M227 225.82l-.017 3.18-48.794-.232-46.165-44.792-35.137 39.822-5.887-.023.006-1.199L131.39 179z"/><path id="Path" fill="url(#linearGradient-19)" d="M131.8 179L91 222.989l3.4.011 39.6-43.693z"/><path id="Path" fill="url(#linearGradient-20)" d="M228 226l-48.114-.227L132 179l47.125.221z"/><path id="Path" fill="#97A6B7" d="M135 333.479L88 324v3.401L134.859 337zm-9 5.731L79.051 330s.062 3.721-.051 3.873L125.949 343l.051-3.79z"/><path id="Path" fill="url(#linearGradient-21)" d="M135 338.01L87.345 328 78 330.227 125.494 340l9.506-1.99z"/><path id="Path" fill="url(#linearGradient-22)" d="M69 335.728L115.265 346 126 343.283 78.112 334l-9.106 1.776z"/><path d="M116 349l46.698-10.686L163 327l-26.94 6.325v3.482l-9.432 1.876v3.845l-10.582 2.685L116 349z" id="Path" fill="url(#linearGradient-23)"/><path id="Path" fill="#97A6B7" d="M69.006 335L115 345.163l-.006 3.837L69 338.26z"/><path id="Path" fill="url(#linearGradient-24)" d="M112.824 320L88 324.843 135.235 334 162 327.656z"/><path id="Path" fill="#97A6B7" d="M97 325l52-.013L122.825 320l-25.022 4.266zm25.062-5.326L95.973 324l-.973-.38.177-75.676L123 247z"/><path id="Path" fill="#D8DEE8" d="M123.828 320.98L97 325l.75-77.702L124 246z"/><path d="M124 246l-26.97 1.286-.03 3.003c21.195 17.092 22.047 45.989 22.047 70.711l4.777-.689L124 246z" id="Path" fill="#D8DEE8" opacity=".3" style="mix-blend-mode:multiply"/><path d="M101.304 290.956c-.305.09-.637.04-.895-.136a.912.912 0 01-.409-.754v-11.135a.918.918 0 01.411-.75c.257-.175.588-.227.893-.14.416.124.697.484.696.89v11.135c.001.407-.28.767-.696.89z" id="Path" fill="#97A6B7"/><g id="Group" style="mix-blend-mode:multiply" transform="translate(100 282)"><path d="M6.97 1.05H3.89l-2.402.255a.568.568 0 01-.407-.1.412.412 0 01-.177-.33c0-.238.224-.432.502-.435h5.547l.018.61z" id="Path" fill="url(#linearGradient-25)"/><path d="M1.622 1.3h-.117L1.213.515.42.69C.211.743.069.908.07 1.095a.4.4 0 00.153.308c.098.08.23.122.366.117H.63l.992-.22z" id="Path" fill="url(#linearGradient-26)"/></g><path id="Path" fill="#97A6B7" d="M122 321.046L149 325v-77.703L122 246z"/><path id="Path" fill="url(#linearGradient-27)" d="M124 321.215L149 325l-.017-73.752L124 250z"/><path id="Path" fill="url(#linearGradient-28)" d="M122 320.47l1.3-.47 25.7 4.045V325z"/><path id="Rectangle" fill="url(#linearGradient-29)" d="M123 256h2v6h-2z"/><path id="Rectangle" fill="url(#linearGradient-30)" d="M123 305h2v6h-2z"/><path d="M81.777 272.734c6.338 7.012 21.555 23.79 16.041 35.924-.76 1.664-1.573 3.468-3.36 4.116-5.22 1.93-9.892-9.065-21.629-11.227-5.998-1.104-8.067 1.202-10.072-.746-6.148-5.943 5.134-32.224 13.829-31.796 1.538.064 2.72 1 5.191 3.729z" id="Path" fill="url(#linearGradient-31)"/><path d="M44.578 431.215c-.532.57-.532 1.922-.564 2.761-.025.24-.016.482.026.718.31.974 1.917.96 4.44 1.082 3.993.193 5.19.487 5.462-.25.272-.736-.5-1.723-.585-1.838-.458-.64-.996-.807-2.023-1.134-1.911-.602-3.194-.916-3.583-1.012-2.428-.59-2.838-.698-3.173-.327z" id="Path" fill="url(#linearGradient-32)"/><path d="M46.856 427l.144 5.463c-.676.63-1.558.712-2.293.212L44 427.263l2.856-.263z" id="Path" fill="url(#linearGradient-33)"/><path d="M79.735 431.667c-.752.804-.993 2.35-.411 3.141.582.792 1.522.277 4.113.51 2.786.244 3.479.992 5.4.54.782-.183 2.163-.629 2.163-1.257 0-.415-.676-.666-2.938-1.621-3.209-1.357-3.19-1.42-3.878-1.583-1.71-.358-3.45-.786-4.449.27z" id="Path" fill="url(#linearGradient-34)"/><path d="M81.728 426L83 431.308a2.865 2.865 0 01-3.009.454L78 426.572l3.728-.572z" id="Path" fill="url(#linearGradient-35)"/><path d="M75.06 327A435.613 435.613 0 0083 428.85L77.79 430c-4.128-4.37-9.27-11.177-11.432-20.52-1.346-5.795-.648-8.704-1.324-15.782-1.07-11.268-4.122-17.305-7.124-26.51A151.315 151.315 0 0151 330.823L75.06 327z" id="Path" fill="url(#linearGradient-36)"/><path d="M73.354 397.758c-1.975-7.704-5.774-9.738-5.914-17.013-.093-5.155 1.778-5.562 1.656-10.482-.192-7.447-4.647-11.382-6.855-16.08-2.359-4.96-3.259-12.928 3.079-26.183L51 330.188a146.199 146.199 0 007.128 36.231c3.096 9.165 6.245 15.186 7.349 26.413.697 7.051 0 9.95 1.365 15.724 2.23 9.308 7.552 16.09 11.793 20.444l1.365-.286c-4.607-5.42-6.228-10.254-6.64-14.178-.674-6.387 1.987-9.016-.006-16.778z" id="Path" fill="url(#linearGradient-37)" opacity=".3" style="mix-blend-mode:multiply"/><path d="M58 326.29a2731.792 2731.792 0 00-5.845 58.873c-1.32 15-2.498 29.823-3.532 44.466l-5.45.371a61.322 61.322 0 01-4.869-14.589c-1.516-7.679-.825-12.16-1.243-20.06-.471-8.86-1.743-10.833-3.58-22.092-3.73-22.803-5.594-34.205.309-40.955 1.917-2.19 7.849-7.61 24.21-6.014z" id="Path" fill="url(#linearGradient-38)"/><path d="M21.692 282.483a10.667 10.667 0 01.617-8.9 10.702 10.702 0 017.167-5.33 104.496 104.496 0 0148.452 1.26c.806.217 1.413.88 1.557 1.701.792 4.39 1.58 8.783 2.363 13.18.268 6.389.181 12.788-.26 19.168-.57 7.764-1.08 7.883-2.33 18.84-2.034 17.869-1.182 22.536-4.779 24.685-2.34 1.396-3.187-.289-15.124-1.468-8.011-.794-12.096-1.135-16.153.21-5.517 1.865-7.386 4.996-9.658 3.97-2.188-.976-2.466-4.742-2.728-11.303-.409-10.123-.386-17.013-.426-19.469-.176-11.302-3.04-19.928-6.715-30.975a161.865 161.865 0 00-1.983-5.57z" id="Path" fill="url(#linearGradient-39)"/><path d="M54.415 254a31.165 31.165 0 01-.99 6.576c-.456 1.746-.74 2.187-1.09 2.537-.528.531-1.305.96-5.615 1.751-2.37.43-2.644.396-2.709.616-.308 1.051 5.798 5.012 12.372 4.47 4.02-.334 7.772-2.323 7.612-3.475-.16-1.153-4.15-.746-5.252-2.882-.747-1.48.296-3.486 1.488-5.124-.96-1.95-4.861-2.52-5.816-4.469z" id="Path" fill="url(#linearGradient-40)"/><path d="M60.239 255.347c.955-1.365 1.017-3.231.154-4.666-.78-1.2-2.087-1.435-2.873-1.579-2.267-.419-5.203.448-6.318 2.658-.658 1.314.488 4.184.664 4.7.175.517.605.804.966 1.251.5.632 1.285 1.625 2.56 3.289.154-.567.355-1.118.6-1.647a9.114 9.114 0 011.183-1.906c1.264-1.498 2.209-.998 3.064-2.1z" id="Path" fill="url(#linearGradient-41)"/><path d="M53.761 259.472c.947 1.556 2.665 2.516 4.525 2.528 2.75-.032 3.513-6.056 1.814-7.43a3.591 3.591 0 00-2.716-.486c-.55.128-.78.347-1.726.535-.946.187-1.1.064-1.38.267-.28.203-.616.887-.17 2.672a1.527 1.527 0 00-1.584-.598.91.91 0 00-.39.331c-.424.679.17 1.593 1.627 2.18z" id="Path" fill="url(#linearGradient-42)"/><path d="M54.006 254.019c.136.112-.31.628-.384 1.385-.004 1.681 1.088 3.147 2.644 3.553.86.136 1.13-.39 2.549-.468a6.313 6.313 0 012.068.237c.362 1.646-.136 3.233-1.21 3.926-1.073.693-2.548.177-3.13-.06a4.154 4.154 0 01-2.26-1.924c-.627-1.314.09-2.043-.656-2.96-.384-.462-.898-.675-1.367-1.546a3.969 3.969 0 01-.26-.592c.791-.758 1.82-1.717 2.006-1.551z" id="Path" fill="url(#linearGradient-43)"/><path d="M59.778 260.043a2.458 2.458 0 01-1.662.248c-.05 0-.105 0-.116.04.303.523.778.766 1.24.633.45-.144.81-.713.754-.873-.055-.16-.122-.064-.216-.048z" id="Path" fill="url(#linearGradient-44)"/><path d="M68.554 341.134c-5.889-2.535-5.889-7.76-11.412-9.945-7.88-3.114-16.597 4.13-17.953 2.122-1.356-2.007 8.985-8.5 7.6-14.82-1.098-5.023-8.361-4.135-12.253-11.005-3.691-6.521-.114-12.555-3.382-14.82-1.173-.814-3.24-1.147-7.154.574 2.73 8.55 4.693 16.092 4.836 25.44.04 2.49 0 9.452.43 19.69.263 6.635.572 10.443 2.746 11.43 2.29 1.027 4.155-2.14 9.73-4.015 4.086-1.382 8.2-1.015 16.27-.212 12.019 1.193 12.877 2.896 15.235 1.486 1.534-.924 2.29-2.295 2.753-4.961-2.523.332-5.09 0-7.446-.964z" id="Path" fill="url(#linearGradient-45)" opacity=".3" style="mix-blend-mode:multiply"/><path d="M33.432 344c1.73 1.668 4.15 2.475 6.568 2.192 0 0-2.811 1.82-3.188 6.197-.377 4.377-7.878-.744-3.38-8.389z" id="Path" fill="url(#linearGradient-46)"/><path d="M33.712 348.696c-2.664 1.935-12.73-5.726-18.212-12.597-10.68-13.42-12.798-35.052-4.088-51.146 4.783-8.835 14.296-18.735 19.693-16.679 5.012 1.907 5.466 13.741 4.461 21.127-2.073 15.305-10.909 15.883-10.403 26.338.47 9.945 9.25 20.47 9.29 30.764.016.55-.006 1.672-.741 2.193z" id="Path" fill="url(#linearGradient-47)"/><path d="M75.979 289c10.937 4.411 15.64 10.631 17.61 13.941 1.263 2.107 3.33 5.62 1.958 7.962-1.292 2.18-5.022 2.248-6.847 1.995-9.31-1.4-13.323-18.69-13.7-20.414l.979-3.484z" id="Path" fill="url(#linearGradient-48)"/><path d="M75.965 288.703s-1.49-4.538-4.094-5.291c-2.604-.754-5.214-.38-5.749.373-.534.754.708 2.074 3.237 2.92 2.53.848 3.277 3.885 5.14 4.259 1.862.373 1.466-2.26 1.466-2.26z" id="Path" fill="url(#linearGradient-49)"/><path id="Path" fill="#97A6B7" d="M322 229.963l87.47-3.36L450 225l-64.357 12z"/><path id="Path" fill="#FFF" d="M387 237l-2-.189.51-58.358L387 178z"/><path id="Path" fill="#97A6B7" d="M387 178l1 .561-.319 58.187L387 237z"/><path id="Path" fill="#FFF" d="M323 230l-1-.124.255-46.576.745-.3z"/><path id="Path" fill="#97A6B7" d="M324 183l1 .379-.315 46.451-.685.17z"/><path id="Path" fill="#FFF" d="M418.831 185.255L420 185l-.85 45-1.15-.323z"/><path id="Path" fill="#97A6B7" d="M421.466 185l.534.368-.473 44.485L421 230z"/><path id="Path" fill="#FFF" d="M438.417 187.223L439 187l-.424 39-.576-.286z"/><path id="Path" fill="#97A6B7" d="M438.466 188l.534.32-.474 38.548L438 227z"/><path id="Path" fill="#FFF" d="M450.419 190.18L451 190l-.423 34.977L450 225z"/><path id="Path" fill="#97A6B7" d="M451.465 190l.535.256-.475 34.64L451 225z"/><path id="Path" fill="#FFF" d="M385.603 232.177L450 225v2.246L385.535 237 322 233.611v-3.462z"/><path id="Path" fill="#FFF" opacity=".5" d="M324.683 184.394L386 180v57l-62-7.162zM387.075 180L451 192.38l-.347 32.68L387 233z"/><path id="Rectangle" fill="#97A6B7" d="M311 342h1v45h-1z"/><path d="M310.635 386.996h-.138l-113.774-18.124a.863.863 0 01-.723-.875l1.147-41.139a.864.864 0 01.298-.633.886.886 0 01.67-.201l113.018 14.384 133.755-41.37a.846.846 0 01.762.133c.222.165.35.425.35.702l-.384 34.522a.869.869 0 01-.573.794L310.92 386.973a.822.822 0 01-.286.023zM197.72 367.278l112.8 17.97 133.376-51.474.362-32.756-132.804 41.076a.85.85 0 01-.361.034l-112.255-14.28-1.118 39.43z" id="Shape" fill="#97A6B7"/><path d="M176.837 434s.29 2.743.097 3.66c-.194.916-6.92 1.576-9.2 1.26-2.283-.317 1.359-3.08 2.81-3.6 1.45-.518 6.293-1.32 6.293-1.32z" id="Path" fill="url(#linearGradient-50)"/><path d="M172 430.242l.613 5.345s1.554.93 2.304 0L175 430l-3 .242z" id="Path" fill="url(#linearGradient-51)"/><path d="M210.145 430.268s-1.471.981-1.078 2.158c.392 1.176 3.821 5.882 6.266 7.221 2.444 1.34 1.676-1.45.967-3.165-.71-1.714-2.527-5.554-3.236-6.193-.709-.638-2.919-.02-2.919-.02z" id="Path" fill="url(#linearGradient-52)"/><path d="M208 425a75.757 75.757 0 001.894 5.04c1.15 2.79 1.796 3.834 2.515 4.738.627.793 2.112 2.458 2.51 2.194.397-.264-.68-2.335-2.775-8.328-.305-.872-1.26-3.644-1.26-3.644H208z" id="Path" fill="url(#linearGradient-53)"/><path d="M158.605 344.135a122.94 122.94 0 00-.252 21.498c.909 11.893 3.241 19.403 6.169 32.101 1.794 7.756 4.205 19.158 6.387 33.425a6.078 6.078 0 003.925.782 5.843 5.843 0 002.355-.907c5.709-17.823 4.026-28.877 1.267-35.725-1.177-2.934-2.607-5.25-3.364-9.76-1.01-5.963.241-9.296 2.024-23.112 1.268-9.845 1.049-11.368.202-12.847-3.393-5.918-13.716-5.803-18.713-5.455z" id="Path" fill="url(#linearGradient-54)"/><path d="M123 293.884s-.843-3.017-2.251-3.817c-1.409-.8-3.395-1.649-3.848-1.998-.454-.349-.99.698.324 1.498l1.314.8a1.2 1.2 0 01-.053.537c-.326.622-1.012 1.02-1.768 1.026-3.365.644-4.715.676-5.198.537-.077 0-.365-.108-.489 0-.124.107.153.79.306 1.004.914 1.267 4.078 1.815 6.448.827.86-.365 1.178-.752 1.826-.655 1.002.155 1.615 1.358 1.98 2.357l1.409-2.116z" id="Path" fill="url(#linearGradient-55)"/><path d="M178 347c3.672 18.409 7.275 28.077 9.973 33.543a90.357 90.357 0 015.04 11.958 94.904 94.904 0 013.062 11.388c1.267 5.643 4.394 13.882 12.818 24.689.896.507 1.99.56 2.934.142a2.73 2.73 0 001.173-1.184c-1.103-10.335-2.347-19.012-3.461-25.714a522.03 522.03 0 00-2.834-15.676c-.622-3.183-1.531-7.84-2.622-12.623-1.361-5.956-3.444-14.065-6.659-23.773L178 347z" id="Path" fill="url(#linearGradient-56)"/><path d="M119 295.103l2.778-2.484c.335.343 5.272 5.197 12.168 3.726 4.755-1.013 7.493-4.946 9.249-7.441 5.272-7.539 2.119-13.068 7.794-18.185 1.574-1.426 4.67-3.149 6.686-2.622 4.818 1.254 7.59 15.844 2.932 27.326-.943 2.319-6.124 15.072-17.878 16.457-9.487 1.116-19.548-5.632-23.729-16.777z" id="Path" fill="url(#linearGradient-57)"/><path d="M176.126 272.768c-2.037-1.883-5.94-4.06-7.892-9.106-.574-1.522-2.675-6.89.402-11.024 1.825-2.446 5.217-4.106 8.202-3.52 2.555.505 2.956 2.297 7.296 5.862 1.687 1.396 4.408 3.635 7.427 4.88 5.166 2.137 8.289.127 13.49.357 6.388.281 13.775 3.847 17.38 9.031 6.342 9.187-2.87 18.534 4.104 29.317 2.296 3.531 3.398 2.739 8.788 9.577 5.39 6.839 8.104 10.266 7.622 14.464-.666 5.822-6.934 11.38-12.84 11.759-5.74.367-9.43-4.169-12.364-2.182-2.09 1.412-.895 4.157-3.117 7.464-2.87 4.26-8.478 5.104-9.39 5.242-8.426 1.275-19.792-8.612-24.619-20.325-8.702-21.124 6.59-41.553-4.489-51.796z" id="Path" fill="url(#linearGradient-58)"/><path d="M178.368 395.123c-1.216-2.945-2.693-5.27-3.475-9.796-1.043-5.987.249-9.332 2.09-23.201 1.31-9.882 1.084-11.412.21-12.896-1.895-3.22-5.915-4.651-10.017-5.23.053.206.11.412.151.613 2.155 9.739-6.06 15.656-2.352 26.352 1.825 5.265 4.739 6.473 5.417 12.603.637 5.729-1.669 6.915-1.16 12.122.737 7.774 6.327 9.658 7.78 15.61.945 3.873.146 9.533-6.754 17.725.116.705.232 1.415.342 2.131 1.226.7 2.653.976 4.055.785a6.142 6.142 0 002.433-.91c5.869-17.937 4.13-29.034 1.28-35.908z" id="Path" fill="url(#linearGradient-59)" opacity=".3" style="mix-blend-mode:multiply"/><path d="M156.6 281.252c-8.685 7.103-7.72 20.722-13.064 21.416-1.63.206-1.54-1.088-5.43-2.393-5.68-1.917-8.36 0-12.364-1.435-1.659-.588-3.811-1.894-5.935-4.928l-.807.741c4.18 11.449 14.239 18.37 23.724 17.223 11.751-1.423 16.93-14.524 17.874-16.905A37.316 37.316 0 00162.807 278a17.91 17.91 0 00-6.208 3.252z" id="Path" fill="url(#linearGradient-60)" opacity=".15" style="mix-blend-mode:multiply"/><path d="M151.07 272.182c.54-.829 2.254-3.132 9.524-4.836a42.057 42.057 0 0119.05-.48 42.568 42.568 0 0122.115 12.575 29.671 29.671 0 00-11.716 14.553c-.972 2.663-3.842 11.769.264 20.297 2.364 4.916 6.551 8.608 9.732 11.432 4.768 4.207 7.235 4.852 8.834 8.613 1.726 4.104 0 6.105 2.151 8.912 2.301 3.012 5.039 1.611 8.973 4.664 4.026 3.12 2.6 5.716 6.27 9.145 5.325 5.013 12.394 3.384 12.722 5.642.281 1.937-4.74 4.572-9.007 5.641-8.45 2.115-15.817-1.434-18.009-2.532-6.068-3.03-5.02-4.99-9.645-7.3-7.747-3.863-13.045.435-30.685.881-9.559.24-14.379.292-17.036-2.92-2.416-2.933-1.15-6.15.305-20.006.466-4.636 1.443-14.336 1.45-19.863 0-3.264-1.151-8.574-3.417-19.28-.133-.628-1.37-6.396-2.364-14.1-.897-6.957-.77-9.089.489-11.038z" id="Path" fill="url(#linearGradient-61)"/><g id="Group" opacity=".15" style="mix-blend-mode:multiply" transform="translate(174 278)" fill="url(#linearGradient-62)"><path d="M51.791 78.827c-3.703-3.435-2.258-6.033-6.326-9.158-3.97-3.057-6.715-1.654-9.053-4.67-2.183-2.811-.412-4.814-2.17-8.924-1.614-3.766-4.104-4.413-8.915-8.626-3.21-2.804-7.435-6.502-9.82-11.447-4.144-8.54-1.248-17.658-.267-20.325A29.756 29.756 0 0127.062 1.105c-.22-.24-.482-.504-.76-.79-15.194 2.06-24.056 10.72-25.153 13.284-2.53 5.924 1.48 8.105 1.584 25.185.047 8.173-.847 11.396 1.84 14.807 3.076 3.903 6.616 2.696 11.062 7.796 3.418 3.915 2.873 6.399 6.059 8.053 3.43 1.774 5.618-.298 9.483.52 6.465 1.357 7.846 8.706 12.118 12.724 3.232 3.045 9.204 5.152 20.985 2.862.261-.323.386-.733.349-1.145-.331-2.209-7.464-.555-12.838-5.574z" id="Path"/></g><path d="M174.717 257s.76 6.11 3.002 7.521c2.24 1.412 5.875 3.223 6.273 3.72.397.498-13.9 2.043-20.992-1.55 2.339-.492 2.973-.671 2.973-.671a13.153 13.153 0 003-1.192 10.26 10.26 0 003.302-3.066v-3.385l2.442-1.377z" id="Path" fill="url(#linearGradient-63)"/><path d="M174.677 258.629s-1.415 2.019-3.632 1.157c-1.99-.752-.803-6.082.774-6.69a2.7 2.7 0 012.134.308c1.037.861 1.428 2.315.969 3.61.507-.15.947 0 1.058.243.112.243-.284.776-.384.874-.246.265-.569.44-.92.498z" id="Path" fill="url(#linearGradient-64)"/><path d="M177.05 295.978l-11.613-3.8a.71.71 0 01-.466-.411l-1.929-4.857a.644.644 0 01.14-.677.773.773 0 01.707-.218l10.94 2.185c.413.054.775.288.972.63l2.165 5.922c.173.528-.34 1.397-.915 1.226z" id="Path" fill="url(#linearGradient-65)"/><path d="M176.992 295.953l-11.496-3.48a.738.738 0 01-.478-.436l-1.975-5.083a.687.687 0 01.144-.71.78.78 0 01.723-.229l11.201 2.29a.743.743 0 01.554.464l2.287 6.28a.678.678 0 01-.171.746.773.773 0 01-.79.158z" id="Path" fill="url(#linearGradient-66)"/><path d="M183 295.435s-2.083-3.732-3.328-4.478c-1.246-.746-6.846-1.097-8.404-.905-1.557.192-1.68 1.207-.372 1.986 1.307.78 5.001 1.68 5.643 2.354.641.675 5.215 2.535 6.461 1.043z" id="Path" fill="url(#linearGradient-67)"/><path d="M180.23 295.862c-1.642 3.333 5.78 11.152 14.062 14.886 1.682.762 13.8 6.214 19.243 1.062 4.496-4.265 1.664-13.157.648-16.332-4.97-15.586-20.44-23.586-26.963-26.478-4.93 11.733-2.097 16.987-.981 18.642 1.115 1.656 4.432 5.328 7.907 8.508 2.441 2.26 3.96 3.327 3.755 3.672-.257.43-3.13-.401-14.273-5.723-1.302.181-2.815.627-3.399 1.763z" id="Path" fill="url(#linearGradient-68)"/><path d="M84.907 328.497c.49-.584.836-1.3 1.002-2.079.409-2.079-.648-4.436-1.433-4.418-.784.018-1.209 1.976-1.362 2.818a8.162 8.162 0 00.387 4.182l1.406-.503z" id="Path" fill="url(#linearGradient-69)"/><path d="M113.546 326.437a4.738 4.738 0 01-.532-1.855c-.137-1.798.736-3.677 1.247-3.578.512.098.682 1.792.728 2.517a8.402 8.402 0 01-.549 3.479l-.894-.563z" id="Path" fill="url(#linearGradient-70)"/><path d="M87 404.07s-.537-1.115-1.164-1.069c-.627.047-1.285.105-2.744 1.028-1.46.924-2.16 1.07-2.087 1.662.072.592 4.674.476 5.995-1.62z" id="Path" fill="url(#linearGradient-71)"/><path d="M88 406.11c-.106-.03-1.25-.658-1.9-1.02a.742.742 0 00-.827.081.737.737 0 00-.078 1.072A20.657 20.657 0 0086.95 408l1.05-1.89z" id="Path" fill="url(#linearGradient-72)"/><path d="M97.02 435.694a.353.353 0 010 .123c-.09.5.127 1.003.585 1.36.79.586 2.795.722 5.2.818 2.403.095.497-1.112.152-1.248-.346-.136-5.042-1.747-5.042-1.747l-.895.694z" id="Path" fill="url(#linearGradient-73)"/><path d="M99 433l-.321 1.949s-.48.237-.81-.31L97 433.26l2-.261z" id="Path" fill="url(#linearGradient-74)"/><path d="M107.77 379.008c3.207-.204 4.557 3.49 6.35 6.684 3.572 6.336 8.846 19.896 3.8 26.76-4.249 5.818-16.637 3.008-20.276 1.798-7.626-2.536-7.319-3.327-12.644-6.795.934-.762 1.225-1.698 2.005-2.518 1.908-.192 5.49-.25 7.136-.286 2.438-.046 6.778.158 8.1.262 2.09.163 6.082 1.228 6.777.28 1.532-2.095-2.848-12.758-2.928-16.237-.028-1.431-1.247-9.768 1.68-9.948z" id="Path" fill="url(#linearGradient-75)"/><path d="M114.674 385.433c.83 1.275 1.66 3.421 2.326 4.893-.666.443-1.592.966-1.83 1.713-1.094 3.42 1.26 6.51 1.023 10.806-.057 1.124-.508 5.055-2.626 6.027-2.534 1.157-7.423-.562-10.76-.135-1.733.22-3.387 1.438-5.16 1.242-2.823-.315-4.59-2.343-7.43-2.747a6.891 6.891 0 00-2.856.477c-.486-.337-.91-.69-1.361-1.05.627-.826 1.163-1.651 1.846-2.471 1.897-.186 5.448-.242 7.08-.275 2.416-.045 6.724.151 8.028.247 2.066.151 6.035 1.207 6.718.275 1.507-2.061-2.823-12.25-2.913-15.727-.045-1.45-1.13-9.2 1.648-9.672 3.02-.494 4.861 4.224 6.267 6.397z" id="Path" fill="url(#linearGradient-76)" opacity=".3" style="mix-blend-mode:multiply"/><path d="M110.977 387.564c.343 5.73-3.213 13.71-2.772 20.351a23.376 23.376 0 01-.527 4.836c-.974 2.905-6.758 20.083-6.907 20.249-1.07-.218-2.187-.355-3.281-.573a39.278 39.278 0 01-3.248-9.013c-.887-3.724.917-8.096 1.335-10.577.48-2.865.44-7.523.733-8.497 2.159-7.248-.527-9.998.498-15.928.533-3.072 2.486-4.584 4.72-6.412 3.166 3.186 6.774 2.028 9.449 5.564z" id="Path" fill="url(#linearGradient-77)"/><path d="M86.644 328c.214 1.915.562 4.69 1.185 8.027 1.532 8.216 2.296 12.327 4.698 16.02 3.89 5.985 8.24 5.865 8.465 9.638.207 3.44-3.525 7.516-7.791 8.216a9.059 9.059 0 01-5.13-.734 159.648 159.648 0 01-2.201-9.294 107.193 107.193 0 01-2.565-17.774A239.687 239.687 0 0183 329.18a21.08 21.08 0 013.644-1.18z" id="Path" fill="url(#linearGradient-78)"/><path d="M112.512 326.027c.516 2.682.813 5.404.889 8.137a46.352 46.352 0 01-2.263 16.686c-2.262 6.62-4.689 8.177-4.027 11.96.565 3.325 3.088 5.685 5.192 7.19a84.756 84.756 0 004-10.014 73.512 73.512 0 002.437-9.206c.815-4.22 1.476-7.648 1.194-11.903a32.49 32.49 0 00-3.592-12.687 20.4 20.4 0 00-3.83-.163z" id="Path" fill="url(#linearGradient-79)"/><path d="M114.164 375.244c1.11 4.774 2.381 6.933 1.59 10.279-.66 2.74-4.005 4.071-7.444 5.442-2.311.913-9.419 3.74-13.556.57-1.734-1.335-1.93-2.957-3.173-8.896-3.155-15.098-4.38-16.394-3.05-19.66 2.05-5.06 7.205-7.424 8.956-8.15l.44-.176c4.443-1.668 11.62.148 15.879 2.21 4.669 2.227-2.23 7.269.358 18.381z" id="Path" fill="url(#linearGradient-80)"/><path d="M108.927 343.697c.185-1.016.89-1.046 1.047-1.986.19-1.182-.689-2.589-1.775-3.192-1.086-.603-1.545 0-3.863 0-2.492-.03-2.878-.75-4.905-.443a7.118 7.118 0 00-2.609.88c-.868.515-2.598 1.532-2.8 3.417-.24 2.063 1.501 3.606 1.68 3.748-.655 2.394-.375 3.41.107 3.854 0 0 .51.473 3.13.443.35.469.743.902 1.17 1.295.487.366 1.439.544 3.488-.485.053-.642.145-1.28.274-1.91.303-1.465.454-2.198.84-2.364.974-.348 2.268 3.24 3.583 2.956.846-.172 1.5-1.892 1.394-3.28-.106-1.39-.974-1.78-.761-2.933z" id="Path" fill="url(#linearGradient-81)"/><path d="M104.916 352.333a1.882 1.882 0 00.322 1.404 1.77 1.77 0 001.206.73 15.81 15.81 0 013.363.694c1.211.545-3.496.299-7.78.683a34.998 34.998 0 01-5.77.069.299.299 0 01-.253-.25.307.307 0 01.159-.324 25.012 25.012 0 014.135-1.56c1.784-.442 3.279-4.779 3.279-4.779l1.706 1.274-.367 2.06z" id="Path" fill="url(#linearGradient-82)"/><path d="M103.153 351.2c1.295 1.478 3.21 2.107 5.042 1.657 2.732-.724 2.044-7.53.048-8.613a3.294 3.294 0 00-2.785.139c-.533.284-.688.58-1.574 1.014-.886.434-1.067.347-1.296.637-.23.29-.4 1.124.464 2.989-.625-.481-1.291-.58-1.702-.267-.14.12-.245.281-.304.464-.251.84.544 1.697 2.107 1.98z" id="Path" fill="url(#linearGradient-83)"/><path d="M109.546 382.489c-5.143.565-8.765-4.301-9.038-4.68-2.657-3.696-.715-5.867-2.958-10.739-2.197-4.741-4.49-3.594-7.522-8.477-4.218-6.783-4.042-15.922-4.025-16.346a18.287 18.287 0 00-.97-7.398A16.648 16.648 0 0083 331c0 3.03.08 6.844.307 11.242a103.165 103.165 0 002.594 17.52c.568 2.827 1.192 5.262 1.703 7.292.335 2.486 1.522 6.51 3.406 15.684 1.221 5.878 1.408 7.483 3.117 8.805 4.065 3.148 11.06.35 13.319-.565 3.406-1.356 6.665-2.673 7.312-5.386.465-1.967.204-3.527-.312-5.471a8.89 8.89 0 01-4.9 2.368z" id="Path" fill="url(#linearGradient-84)" opacity=".2" style="mix-blend-mode:multiply"/></g></g></g></svg>