<?xml version="1.0" encoding="UTF-8"?>
<svg width="18px" height="17px" viewBox="0 0 18 17" version="1.1" xmlns="http://www.w3.org/2000/svg" xmlns:xlink="http://www.w3.org/1999/xlink">
    <title>FEAF2C58-59AE-4A43-8E4D-BB123156CC88</title>
    <g id="Page-1" stroke="none" stroke-width="1" fill="none" fill-rule="evenodd">
        <g id="Index" transform="translate(-1090.000000, -926.000000)" fill="#FFFFFF">
            <g id="Group-7" transform="translate(813.000000, 925.000000)">
                <path d="M292.408247,17 L279.48517,17 C279.187939,17 278.946708,16.748 278.946708,16.4375 L278.946708,8 L281.100555,8 C280.820016,8.421875 280.725247,9.2088125 280.725247,9.7083125 C280.725247,12.7205 283.076708,15.1713125 285.966632,15.1713125 C288.857093,15.1713125 291.208555,12.7205 291.208555,9.7083125 C291.208555,9.2088125 291.140708,8.4336875 290.792862,8 L292.946708,8 L292.946708,16.4375 C292.946708,16.748 292.705478,17 292.408247,17 M286.446424,6 C288.379714,6 289.946708,7.56714716 289.946708,9.49971496 C289.946708,11.4328528 288.379714,13 286.446424,13 C284.513703,13 282.946708,11.4328528 282.946708,9.49971496 C282.946708,7.56714716 284.513703,6 286.446424,6 M290.546708,3 L292.346708,3 C292.677908,3 292.946708,3.2688 292.946708,3.6 L292.946708,5.4 C292.946708,5.7312 292.677908,6 292.346708,6 L290.546708,6 C290.215508,6 289.946708,5.7312 289.946708,5.4 L289.946708,3.6 C289.946708,3.2688 290.215508,3 290.546708,3 M292.925833,1 L279.967583,1 C278.851427,1 277.946708,1.90259375 277.946708,3.01609375 L277.946708,15.9839063 C277.946708,17.0974063 278.851427,18 279.967583,18 L292.925833,18 C294.04199,18 294.946708,17.0974063 294.946708,15.9839063 L294.946708,3.01609375 C294.946708,1.90259375 294.04199,1 292.925833,1" id="instagram"></path>
            </g>
        </g>
    </g>
</svg>