<?xml version="1.0" encoding="UTF-8"?>
<svg width="21px" height="18px" viewBox="0 0 21 18" version="1.1" xmlns="http://www.w3.org/2000/svg" xmlns:xlink="http://www.w3.org/1999/xlink">
    <title>24E1C489-52E6-4765-8F0B-44EACDBAA668</title>
    <g id="Page-1" stroke="none" stroke-width="1" fill="none" fill-rule="evenodd">
        <g id="Index" transform="translate(-953.000000, -925.000000)" fill="#FFFFFF">
            <g id="Group-7" transform="translate(813.000000, 925.000000)">
                <path d="M160.946708,18 L157.09834,18 L157.09834,11.8314377 C157.09834,10.3603195 157.074014,8.46805112 155.098746,8.46805112 C153.096719,8.46805112 152.791022,10.071246 152.791022,11.7259425 L152.791022,18 L148.946708,18 L148.946708,5.31482428 L152.636147,5.31482428 L152.636147,7.04926518 L152.688853,7.04926518 C153.202131,6.05162939 154.457351,5 156.32964,5 C160.22666,5 160.946708,7.62658147 160.946708,11.043131 L160.946708,18 Z M143.448071,5 C142.062966,5 140.946708,3.88010899 140.946708,2.49954587 C140.946708,1.11989101 142.062966,0 143.448071,0 C144.826817,0 145.946708,1.11989101 145.946708,2.49954587 C145.946708,3.88010899 144.826817,5 143.448071,5 L143.448071,5 Z M145.946708,18 L141.946708,18 L141.946708,6 L145.946708,6 L145.946708,18 Z" id="Fill-33"></path>
            </g>
        </g>
    </g>
</svg>