<?xml version="1.0" encoding="UTF-8"?>
<svg width="200px" height="61px" viewBox="0 0 200 61" version="1.1" xmlns="http://www.w3.org/2000/svg" xmlns:xlink="http://www.w3.org/1999/xlink">
    <title>A7426613-C2F8-47CC-986F-31D367EBC2E9</title>
    <defs>
        <polygon id="path-1" points="0 0 16.0563564 0 16.0563564 16.7600929 0 16.7600929"></polygon>
        <polygon id="path-3" points="0 0 3.05135709 0 3.05135709 4.52022829 0 4.52022829"></polygon>
        <polygon id="path-5" points="0 0 8 0 8 11 0 11"></polygon>
        <polygon id="path-7" points="0 0 8 0 8 11 0 11"></polygon>
        <polygon id="path-9" points="0 0 7 0 7 11 0 11"></polygon>
    </defs>
    <g id="Page-1" stroke="none" stroke-width="1" fill="none" fill-rule="evenodd">
        <g id="Index" transform="translate(-860.000000, -33.000000)">
            <g id="Logo" transform="translate(860.000000, 33.000000)">
                <g transform="translate(0.000000, 0.000000)">
                    <g id="shadow" opacity="0.2" transform="translate(5.210494, 2.086267)">
                        <path d="M27.1228479,26.3778046 C26.9858524,26.4492171 26.8444847,26.5191723 26.6933315,26.5862127 C26.544885,26.5862127 26.544885,26.6603318 26.6933315,26.8089866 C27.3683156,27.0719431 27.9002664,27.3842429 28.2912658,27.7458862 C28.1817527,27.5285255 28.03518,27.2980482 27.848841,27.0532051 C27.6620857,26.8085702 27.4187,26.5839225 27.1228479,26.3778046" id="Fill-1" fill="#FFFFFF"></path>
                        <path d="M28.0863971,1.74575626 C28.0256028,1.61292472 27.9606444,1.48259157 27.8861088,1.35829623 C27.6633349,0.986867582 27.340625,0.665615118 26.9204776,0.392873234 C26.6704295,0.231726502 26.3710381,0.11909035 26.0250098,0.0530909775 L26.0250098,1.03975036 C26.7176909,1.03975036 27.2746257,1.1767459 27.6958141,1.44823859 C27.8388474,1.54130395 27.9660576,1.64165631 28.0863971,1.74575626" id="Fill-3" fill="#FFFFFF"></path>
                        <path d="M3.23070049,49.5918865 C3.40829502,49.842351 3.59546674,50.0855285 3.78846806,50.324542 C2.64753254,48.6333341 1.86282707,46.8242851 1.44392885,44.8921899 C0.998381037,42.8382978 0.985680843,40.919111 1.40686926,39.1367116 C1.82680849,37.3545203 2.68084453,35.8692221 3.96876918,34.6810252 C5.25565284,33.4928283 6.96372491,32.8986258 9.09298541,32.8986258 C10.3798691,32.8986258 11.5924254,33.1713677 12.7319035,33.7153941 C13.483297,34.0755799 14.1351709,34.5671399 14.6927302,35.1850772 L14.7043894,35.1850772 C14.0104591,34.0466401 13.0950041,33.2055125 11.956567,32.6600287 C10.8170889,32.1160023 9.6045326,31.8432604 8.31785714,31.8432604 C6.18859664,31.8432604 4.48031636,32.4372548 3.19364091,33.6254517 C1.90571625,34.8138568 1.05168021,36.2989468 0.631532793,38.0813462 C0.210344371,39.8635374 0.223044566,41.7827242 0.668592377,43.8366164 C1.11414019,45.8917577 1.96838443,47.8094871 3.23070049,49.5918865" id="Fill-5" fill="#FFFFFF"></path>
                        <path d="M39.1694822,26.5861918 C38.7249754,26.3775755 38.3445942,26.1545934 38.0245909,25.9178701 C37.3693858,26.2274634 36.872829,26.5809869 36.5376271,26.9790651 C36.1407981,27.4500133 35.8936648,27.8828609 35.7949781,28.2784407 L35.7949781,36.5216998 L35.7949781,37.3386763 C35.7949781,40.6561337 35.2253431,43.5651029 34.086906,46.0645428 C32.9474279,48.5650237 31.4506787,50.6445245 29.5941601,52.3026286 C27.7374333,53.9607327 25.6210812,55.2103485 23.2446874,56.0527254 C20.8682936,56.8940612 18.454632,57.3269088 16.0039108,57.3523092 C13.5531897,57.3768768 11.1397363,57.0183566 8.76334249,56.2757075 C6.3869487,55.5330584 4.27038839,54.3935803 2.41386978,52.8595633 C1.52652175,52.1258668 0.723494694,51.3020198 -5.9173974e-15,50.3932272 C0.909417215,51.7311198 1.97040397,52.9074493 3.18920625,53.9151369 C5.04572486,55.4489456 7.16228517,56.588632 9.53867896,57.3310728 C11.9150728,58.0737219 14.3285261,58.4322422 16.7792473,58.4078828 C19.2299685,58.3824824 21.6434218,57.9496348 24.0198156,57.1082989 C26.3962094,56.2659221 28.5127697,55.0163062 30.3692883,53.3579939 C32.225807,51.6998898 33.7227643,49.6205973 34.8622424,47.1199082 C36.0004714,44.6204682 36.5703145,41.711499 36.5703145,38.3940417 L36.5703145,37.5770652 L36.5703145,29.3338061 C36.6690013,28.9382263 36.9161346,28.5055868 37.3129636,28.0344304 C37.7085434,27.564315 38.3271054,27.1558268 39.1694822,26.8089658 C39.3179288,26.660311 39.3179288,26.5861918 39.1694822,26.5861918" id="Fill-7" fill="#FFFFFF"></path>
                        <path d="M12.9975874,39.2304848 C13.1004381,39.5450749 13.2701211,39.8242709 13.511633,40.06495 C13.9317804,40.4861385 14.4643558,40.6962122 15.1083181,40.6962122 C15.6525527,40.6962122 16.1967872,40.4734383 16.7420628,40.0278905 L16.7420628,39.9535631 C17.4847119,39.210914 18.0045871,38.1468043 18.3016883,36.760401 C18.5985814,35.3746224 18.5361214,33.975519 18.115974,32.56434 C17.7922232,31.4802431 17.2402852,30.4846311 16.4639077,29.5758385 C16.844289,30.1862806 17.138059,30.8298266 17.3406375,31.5089747 C17.760785,32.9199455 17.8234531,34.3192571 17.5263519,35.7048275 C17.2292506,37.0914389 16.7093754,38.1555487 15.9667263,38.8979895 L15.9667263,38.9725251 C15.4214508,39.4178647 14.8772162,39.6408468 14.3329816,39.6408468 C13.8151884,39.6408468 13.3706816,39.5026021 12.9975874,39.2304848" id="Fill-9" fill="#FFFFFF"></path>
                        <path d="M37.4287436,0.392873234 C37.0319145,0.665615118 36.7104539,0.987075782 36.4633206,1.35829623 C36.2149381,1.72951667 36.0421322,2.1263457 35.9434454,2.54649312 C35.8437177,2.96768154 35.7949989,3.32620179 35.7949989,3.62330307 L35.7949989,22.8572273 C35.8936856,23.2542646 36.1408189,23.6996042 36.537648,24.194079 C36.6134327,24.2892263 36.7002521,24.3820835 36.7926928,24.4734832 C36.6896339,24.2771507 36.6142655,24.0897708 36.5701271,23.9128009 L36.5701271,4.67866842 C36.5701271,4.38156715 36.6190541,4.0232551 36.7187819,3.60185848 C36.8174686,3.18191925 36.9902746,2.78488202 37.2386571,2.41366158 C37.4857904,2.04244114 37.807251,1.72098047 38.2040801,1.44823859 C38.5998681,1.1767459 39.1438945,1.03975036 39.8378248,1.03975036 L39.8378248,0 L38.6939744,0 C38.1738911,0.0414317825 37.751037,0.171764927 37.4287436,0.392873234" id="Fill-11" fill="#FFFFFF"></path>
                        <path d="M50.2755318,0.801132441 C50.0931486,0.40118041 49.6817456,0.149258517 49.0456949,0.0430765618 L49.0456949,1.03972954 C49.6365662,1.03972954 50.0991864,1.1230095 50.4425081,1.28332344 C50.4002435,1.11717991 50.3454869,0.955824975 50.2755318,0.801132441" id="Fill-13" fill="#FFFFFF"></path>
                        <path d="M42.8076924,21.7589728 C43.2032722,21.363393 43.7475068,21.0165319 44.4414371,20.7194306 C45.0862322,20.4431493 45.9265271,20.296993 46.9583658,20.2776304 L47.1565722,19.2924284 C46.9581576,19.2439179 46.7110244,19.2183093 46.4139231,19.2183093 C45.274445,19.2183093 44.3589899,19.366964 43.6663088,19.6638571 C43.0185989,19.9413876 42.5033041,20.2624318 42.1154277,20.6255325 C41.8851586,21.3977459 41.767942,22.2449114 41.767942,23.1699436 C41.9653156,22.675677 42.3121766,22.2047288 42.8076924,21.7589728" id="Fill-15" fill="#FFFFFF"></path>
                        <path d="M61.9348309,14.3168461 C62.1319962,14.7136752 62.3803787,15.1094632 62.67748,15.5052512 C62.7697126,15.6347516 62.8804749,15.7640437 63.0003981,15.8935441 C62.8944243,15.7199053 62.7965704,15.5462666 62.7101674,15.3722115 L60.1107915,2.00494433 C60.0110637,1.46091796 59.7395711,0.990802561 59.2940232,0.594181729 C59.2694557,0.572320738 59.2440553,0.553374546 59.2190713,0.532554555 C59.2696639,0.666635298 59.3092218,0.805296439 59.3356632,0.949578978 L61.9348309,14.3168461 Z" id="Fill-17" fill="#FFFFFF"></path>
                        <path d="M65.2767102,31.471582 C65.325429,31.7686832 65.4251567,32.1284527 65.5738114,32.5486001 C65.722258,32.9695803 65.9450319,33.3653684 66.2421332,33.736797 C66.3414445,33.8613005 66.4505413,33.9778925 66.563802,34.0911533 C66.4817713,33.9322967 66.4078603,33.7707336 66.3489397,33.6039655 C66.2004932,33.1840262 66.1007654,32.8240486 66.0520466,32.5269473 L63.9725459,21.9075026 C63.9227861,21.5117146 63.9725459,21.1161347 64.1212007,20.7193057 C64.2196792,20.3734857 64.4180937,20.0264164 64.715195,19.6795554 C65.0122963,19.3337353 65.4578441,19.0112336 66.0520466,18.7143406 C66.2004932,18.7143406 66.2004932,18.6400132 66.0520466,18.4913585 C65.6216974,18.3125147 65.2315308,18.1063968 64.8790483,17.8748785 C64.4799291,18.1105608 64.16638,18.3604007 63.9400667,18.62419 C63.6429655,18.9710511 63.444551,19.3181203 63.3458642,19.6639404 C63.1974177,20.0605612 63.1474497,20.4563492 63.1974177,20.8521373 L65.2767102,31.471582 Z" id="Fill-19" fill="#FFFFFF"></path>
                        <path d="M50.2811323,16.186169 L52.618801,4.6877043 L52.1322378,2.21220734 L49.3844153,15.727921 C49.6919266,15.8626264 49.9892361,16.0187763 50.2811323,16.186169" id="Fill-21" fill="#FFFFFF"></path>
                        <path d="M49.6398558,36.1660319 C49.3571203,36.1660319 49.0997852,36.1450037 48.8645193,36.1058622 L48.8645193,36.1502087 L42.1752644,36.1502087 C42.0440984,36.1599941 41.9091849,36.1660319 41.7680253,36.1660319 L41.7680253,37.2055741 L49.6398558,37.2055741 L49.6398558,36.1660319 Z" id="Fill-23" fill="#FFFFFF"></path>
                        <path d="M68.9898515,36.1501879 L56.3240099,36.1501879 C56.2047113,36.1597651 56.0818734,36.1660111 55.9521648,36.1660111 L55.9521648,37.2055533 L69.765188,37.2055533 L69.765188,36.1660111 C69.4839099,36.1660111 69.2261584,36.1426927 68.9898515,36.0979297 L68.9898515,36.1501879 Z" id="Fill-25" fill="#FFFFFF"></path>
                        <path d="M52.4663153,21.7433162 C51.3524458,20.7035658 50.0770131,19.9609167 48.641683,19.5153689 L46.1168426,31.9915404 C46.0668746,32.6854707 46.2155294,33.3781518 46.5623904,34.0708329 C46.6970958,34.3408682 46.8973841,34.5565633 47.159716,34.7212495 C46.9425635,34.1634819 46.8519965,33.6057143 46.8921791,33.0469058 L49.4170194,20.5707343 C50.8523496,21.0164903 52.1277823,21.7589312 53.2416518,22.7986815 C53.9382887,23.4488898 54.5622638,24.118669 55.1135772,24.8076025 C54.3946629,23.7428681 53.5135609,22.7206065 52.4663153,21.7433162" id="Fill-27" fill="#FFFFFF"></path>
                        <path d="M56.2408548,23.1163321 C55.6720527,22.1367515 55.0189295,21.1517577 54.2812772,20.1623918 C54.2246469,20.0863988 54.1651017,20.0162354 54.1074303,19.9425327 C55.0006079,21.2196309 55.7553326,22.4888176 56.3651502,23.7482188 L56.2408548,23.1163321 Z" id="Fill-29" fill="#FFFFFF"></path>
                        <path d="M80.0921534,30.097754 C80.5252093,31.4214891 81.1106674,32.4964252 81.8481115,33.3283921 C81.4631499,32.6971299 81.1358596,31.973427 80.8674899,31.1531194 C80.4219421,29.7921166 80.0994404,28.2697588 79.9020669,26.5860461 C79.7036524,24.9035826 79.5795653,23.1955105 79.5308465,21.4618299 C79.629325,21.1160098 79.8277396,20.6706702 80.1248408,20.1253946 C80.4219421,19.5809519 81.0159365,19.1110447 81.9072403,18.7142156 C82.0556868,18.7142156 82.0556868,18.6400965 81.9072403,18.4914417 C81.4500333,18.2884468 81.0723586,18.0687959 80.7715098,17.8331136 C80.0794533,18.1912175 79.6043411,18.6030369 79.3497126,19.0698211 C79.0526113,19.6150967 78.8541968,20.0606445 78.75551,20.4064645 C78.8042288,22.139937 78.9283159,23.8480091 79.1267305,25.5304726 C79.324104,27.2141852 79.6466056,28.7367512 80.0921534,30.097754" id="Fill-31" fill="#FFFFFF"></path>
                        <path d="M79.8958417,16.6936563 C79.7244932,16.3584545 79.6010307,16.065309 79.5308673,15.8179675 C79.5793779,14.135504 79.7036732,12.4388829 79.9020877,10.7308108 C80.0994613,9.02294696 80.4219629,7.47622982 80.8675107,6.0894102 C81.3130585,4.70404799 81.9187121,3.58997026 82.6869698,2.74780162 C83.4539782,1.90646577 84.406701,1.48527735 85.545971,1.48527735 C86.6844081,1.48527735 87.9223648,1.78237863 89.2592164,2.37637297 C89.4076629,2.42634095 89.692064,2.57478749 90.1132524,2.82192079 C90.5331916,3.07009508 90.9916479,3.41612333 91.4871636,3.86167115 C91.8554693,4.19375001 92.2243995,4.58141824 92.5937462,5.02342665 C92.468618,4.82001534 92.3378685,4.62347462 92.1971253,4.4400505 C91.7016096,3.79712917 91.2060938,3.2516454 90.7118272,2.80630579 C90.2163114,2.36054978 89.7580634,2.01472973 89.337916,1.76655543 C88.9167275,1.51921394 88.6323265,1.3707674 88.4838799,1.32100762 C87.1472365,0.727013272 85.9090716,0.429911998 84.7708427,0.429911998 C83.6313646,0.429911998 82.6786418,0.85089222 81.9116333,1.69222806 C81.1435838,2.53460491 80.5377221,3.64868264 80.0921743,5.03404485 C79.6466265,6.42065626 79.3241248,7.96758161 79.1267513,9.67544549 C78.9283368,11.3835176 78.8042496,13.0801386 78.7555308,14.7626021 C78.8542176,15.1094632 79.0526321,15.5423108 79.3495252,16.062186 C79.4763189,16.2841271 79.660784,16.4942008 79.8958417,16.6936563" id="Fill-33" fill="#FFFFFF"></path>
                        <path d="M80.3476147,36.0546242 C81.8816317,36.8226736 83.6151042,37.2055533 85.5459501,37.2055533 C86.9814885,37.2055533 88.2937726,36.9342688 89.4819695,36.3885768 C90.6701664,35.8445505 91.6970083,35.1262608 92.5639528,34.2351651 C93.4294398,33.3438613 94.1233701,32.3413787 94.6432453,31.2275092 C95.1631205,30.1136397 95.4716727,28.988111 95.5716087,27.8486328 C95.6580117,27.1542861 95.4013012,26.7641195 94.8029346,26.6787575 C94.800228,26.7172745 94.801269,26.7524603 94.7962722,26.7932675 C94.6963363,27.9325374 94.387784,29.0582743 93.8679088,30.1721439 C93.3480336,31.2860134 92.6541033,32.288496 91.7886163,33.1795916 C90.9216719,34.0708954 89.8948299,34.7891851 88.706633,35.3332115 C87.5184361,35.8786952 86.2061521,36.1501879 84.7706137,36.1501879 C82.8397677,36.1501879 81.1062952,35.7673083 79.5722783,34.9992588 C78.0801095,34.2539031 76.8000964,33.2129036 75.7301571,31.8818815 C75.9485588,32.2070898 76.1746639,32.5225127 76.4118036,32.8239861 C77.5000645,34.2108057 78.8123486,35.2876157 80.3476147,36.0546242" id="Fill-35" fill="#FFFFFF"></path>
                        <path d="M70.4752121,18.62419 C70.3888092,18.5317492 70.2922044,18.4409741 70.1866471,18.3518645 C70.0873357,18.3995423 69.9851095,18.4463873 69.8766374,18.4913585 C69.7279827,18.6400132 69.7279827,18.7143406 69.8766374,18.7143406 C70.4708399,19.0112336 70.9278387,19.3337353 71.2505486,19.6795554 C71.2588766,19.6887161 71.2661636,19.6980851 71.2746998,19.7072459 C71.267621,19.6926719 71.2622078,19.6785144 71.2549208,19.6639404 C71.0565063,19.3181203 70.7964646,18.9710511 70.4752121,18.62419" id="Fill-37" fill="#FFFFFF"></path>
                        <path d="M95.645832,10.3224059 L95.645832,2.45057542 L94.8704955,2.45057542 L94.8704955,9.26704054 L94.4834519,9.26704054 C94.5150982,9.5957882 94.5317542,9.94660505 94.5317542,10.3224059 L95.645832,10.3224059 Z" id="Fill-39" fill="#FFFFFF"></path>
                        <path d="M100.568823,18.3358748 C100.455562,18.3897985 100.336472,18.4416403 100.21176,18.4914001 C100.063314,18.6400548 100.063314,18.714174 100.21176,18.714174 C100.685831,18.9277871 101.075165,19.1645104 101.384758,19.4235111 C101.366853,19.3802055 101.349364,19.3379409 101.33021,19.2925534 C101.182805,18.9448595 100.926302,18.6265218 100.568823,18.3358748" id="Fill-41" fill="#FFFFFF"></path>
                        <path d="M101.382114,1.74554806 C101.32132,1.61271652 101.256362,1.48238337 101.181826,1.35808803 C100.958844,0.986659382 100.636342,0.665406918 100.216195,0.392665034 C99.9661467,0.231518302 99.6667552,0.11888215 99.320727,0.0528827776 L99.320727,1.03954216 C100.013408,1.03954216 100.570343,1.1767459 100.991531,1.44803039 C101.134565,1.54109575 101.261775,1.64144811 101.382114,1.74554806" id="Fill-43" fill="#FFFFFF"></path>
                        <path d="M124.062788,34.0047503 L114.470185,16.7093754 L120.485497,4.75287087 C120.634152,4.50552937 120.831317,4.17136851 121.0797,3.75038829 C121.326833,3.33024087 121.636635,2.92175264 122.007855,2.52492361 C122.379284,2.12913558 122.812131,1.78227453 123.307647,1.48538145 C123.801914,1.18828018 124.395908,1.03962544 125.089838,1.03962544 L125.089838,8.32799648e-05 L123.954108,8.32799648e-05 C123.412996,0.0438052615 122.938509,0.185797601 122.532311,0.429807898 C122.036795,0.726909172 121.603947,1.07377023 121.232727,1.46935006 C120.861506,1.86638729 120.551497,2.27487552 120.304363,2.69481474 C120.055981,3.11600316 119.858815,3.45016402 119.710369,3.69750552 L113.695057,15.6535937 L123.497734,33.3283088 C123.667833,33.5721109 123.856462,33.797175 124.062788,34.0047503" id="Fill-45" fill="#FFFFFF"></path>
                        <path d="M109.721999,33.7367762 C109.868364,33.9807865 110.061573,34.2012702 110.293508,34.4025995 C110.174417,34.14693 110.079478,33.8814751 110.01452,33.6039446 C109.914792,33.1840054 109.865865,32.8240278 109.865865,32.5269265 L109.865865,25.9919477 L110.445702,24.8324824 L109.759059,23.5999389 L109.090737,24.9363741 L109.090737,31.4715611 C109.090737,31.7686624 109.139456,32.1284319 109.239183,32.5485793 C109.33787,32.9695595 109.499225,33.3653475 109.721999,33.7367762" id="Fill-47" fill="#FFFFFF"></path>
                        <path d="M112.358247,36.1501879 L99.6938628,36.1501879 C99.5737315,36.1597651 99.450269,36.1660111 99.3205604,36.1660111 L99.3205604,37.2055533 L113.133584,37.2057615 L113.133584,36.1662193 C112.852305,36.1662193 112.594554,36.1426927 112.358247,36.0979297 L112.358247,36.1501879 Z" id="Fill-49" fill="#FFFFFF"></path>
                        <path d="M126.691,36.1501879 L118.522068,36.1501879 C117.679691,36.1501879 117.098397,36.0271418 116.776936,35.7789675 C116.745498,35.7550245 116.716142,35.7242109 116.685537,35.6977695 L116.698029,35.7206715 C116.94537,36.2159791 117.229563,36.5874077 117.552065,36.834541 C117.873525,37.0827153 118.454819,37.2057615 119.297404,37.2057615 L127.466336,37.2057615 L127.466336,36.1662193 C127.18943,36.1662193 126.931679,36.1437337 126.691,36.1014691 L126.691,36.1501879 Z" id="Fill-51" fill="#FFFFFF"></path>
                        <path d="M118.596312,1.17239452 C118.546552,0.82657447 118.373538,0.541132391 118.076437,0.318358485 C117.927158,0.206346933 117.739778,0.122650568 117.51513,0.0668529917 L117.51513,1.03956298 C117.960886,1.03956298 118.323154,1.10243935 118.601517,1.2279839 C118.599435,1.20966231 118.59881,1.19071612 118.596312,1.17239452" id="Fill-53" fill="#FFFFFF"></path>
                        <path d="M110.68736,0.392665034 C110.266171,0.665406918 109.94471,0.986867582 109.721937,1.35808803 C109.499163,1.72930847 109.337808,2.1377967 109.239121,2.58334451 C109.139393,3.02889232 109.090674,3.40032096 109.090674,3.69742224 L109.090674,21.6688222 L109.866011,20.1056573 L109.866011,4.75278759 C109.866011,4.45589451 109.91473,4.08425767 110.014457,3.63891806 C110.113144,3.19316205 110.274499,2.78467382 110.497273,2.41345338 C110.720047,2.04223294 111.041508,1.72077227 111.462696,1.44803039 C111.882635,1.1767459 112.439778,1.03954216 113.1335,1.03954216 L113.1335,0 L111.985902,0 C111.463112,0.0416399824 111.029016,0.171764927 110.68736,0.392665034" id="Fill-55" fill="#FFFFFF"></path>
                        <path d="M137.283587,19.8095346 C137.826572,19.5228433 138.317299,19.4412289 138.753686,19.5684391 C139.347681,19.7424942 139.767828,19.8782405 140.016002,19.9769273 C141.154231,20.5709216 142.268309,21.1651242 143.357819,21.7591185 C144.446288,22.3533211 145.424411,22.9972834 146.291356,23.6901727 C146.804569,24.1013675 147.255946,24.5346316 147.648195,24.989132 C147.630081,24.9593594 147.61405,24.9289622 147.595312,24.8993978 C147.075437,24.0824213 146.381715,23.3281131 145.516019,22.634391 C144.649075,21.9415017 143.670952,21.2975393 142.582691,20.703545 C141.492972,20.1093424 140.379103,19.5153481 139.240666,18.9211455 C138.992491,18.822667 138.572344,18.6867124 137.97835,18.5126573 C137.511566,18.3771192 136.982113,18.4812191 136.393324,18.8187112 C136.460989,19.0493967 136.494093,19.3046498 136.492219,19.5848869 C136.772039,19.6417254 137.03333,19.719384 137.283587,19.8095346" id="Fill-57" fill="#FFFFFF"></path>
                        <path d="M143.877653,11.7336682 C143.699225,11.8610865 143.526628,11.9697669 143.359859,12.0611666 C143.38984,12.1733864 143.427316,12.2820667 143.473745,12.3861667 C143.67091,12.8315063 143.893892,13.1785756 144.142066,13.4257089 C144.185788,13.4486108 144.230968,13.4721374 144.27469,13.4948312 C144.266362,13.4763014 144.257409,13.4604782 144.249081,13.4417403 C144.050667,12.9959842 144.000699,12.4763173 144.100426,11.8823229 C144.100426,11.7336682 144.026099,11.6849494 143.877653,11.7336682" id="Fill-59" fill="#FFFFFF"></path>
                        <path d="M138.176764,28.1499397 C138.071415,28.4457918 137.918805,28.7414357 137.713936,29.0370796 C137.614,29.1365991 137.626908,29.2225857 137.750995,29.2969131 C137.874042,29.3710322 137.985429,29.4083 138.085156,29.4083 C139.273353,29.2596453 140.139048,28.7027105 140.684324,27.7374957 C141.228559,26.7720727 141.414273,25.7450226 141.241467,24.6555124 C141.094686,23.7383918 140.664545,22.9005954 139.956249,22.1406657 C140.212127,22.6028695 140.384516,23.0888081 140.46613,23.5999389 C140.638936,24.689449 140.45343,25.7164992 139.909196,26.681714 C139.506745,27.3939659 138.928782,27.8824029 138.176764,28.1499397" id="Fill-61" fill="#FFFFFF"></path>
                        <path d="M138.075204,9.32756425 C137.735838,8.69734312 137.565323,7.98925522 137.565323,7.20371695 C137.565323,5.76797036 137.948202,4.45589451 138.71646,3.26769762 C139.483469,2.07950072 140.658965,1.48529817 142.243783,1.48529817 C143.729081,1.48529817 145.362826,2.03057374 147.145225,3.11904288 C147.491045,3.36721717 147.899534,3.67576944 148.37069,4.04740629 C148.721923,4.32514497 149.059623,4.65139423 149.383791,5.02594587 C149.241174,4.79609317 149.092519,4.57394386 148.931997,4.36574395 C148.510808,3.82150938 148.065261,3.36326138 147.595353,2.99183273 C147.124197,2.62040409 146.715709,2.31185182 146.369889,2.06346933 C144.587698,0.975208387 142.953953,0.429932818 141.468655,0.429932818 C139.883629,0.429932818 138.708132,1.02392717 137.941124,2.21212406 C137.173074,3.40032096 136.790194,4.71260501 136.790194,6.1481434 C136.790194,7.18768556 137.087088,8.09148138 137.68129,8.85869805 C137.803503,9.01692998 137.936335,9.17287172 138.075204,9.32756425" id="Fill-63" fill="#FFFFFF"></path>
                        <path d="M151.304039,9.87714956 C151.352758,9.97687732 151.378158,10.1253239 151.378158,10.3226974 L152.417909,10.3226974 L152.417909,2.4506587 L151.642572,2.4506587 L151.642572,9.26691562 L151.268021,9.26691562 C151.280929,9.39558316 151.296544,9.52154411 151.304039,9.65437565 L151.304039,9.87714956 Z" id="Fill-65" fill="#FFFFFF"></path>
                        <path d="M153.799586,20.2897893 C153.848305,20.3657823 153.898273,20.4409424 153.944909,20.5179764 C154.587623,21.5831271 154.910124,22.832743 154.910124,24.2680732 C154.910124,26.298647 154.526204,28.055646 153.759195,29.5409442 C152.990937,31.0260341 151.988455,32.2514988 150.751539,33.2169218 C149.513374,34.1823448 148.078044,34.9133347 146.444299,35.4076013 C144.810555,35.9031171 143.151201,36.1502504 141.46853,36.1502504 C137.309945,36.1502504 134.042247,35.1107082 131.665853,33.0312075 C131.242791,32.6685233 130.864908,32.2885584 130.527833,31.8927704 C131.016894,32.6810152 131.654194,33.4122133 132.44119,34.0869893 C134.817584,36.1662818 138.085073,37.2058239 142.243866,37.2058239 C143.926538,37.2058239 145.585683,36.9588988 147.219636,36.463383 C148.853381,35.9691165 150.288711,35.2379184 151.526667,34.2724954 C152.763583,33.3070724 153.766274,32.0818159 154.534323,30.5965177 C155.301332,29.1112196 155.685461,27.3544287 155.685461,25.323855 C155.685461,23.8883166 155.362959,22.6387007 154.720038,21.57355 C154.448961,21.1255037 154.140826,20.6984857 153.799586,20.2897893" id="Fill-67" fill="#FFFFFF"></path>
                        <path d="M135.44464,17.3471334 C135.199172,16.9090808 134.954954,16.5676329 134.710735,16.321957 C133.461952,15.4306532 132.405962,14.478555 131.539226,13.4654542 C131.686632,13.7134203 131.847778,13.9545158 132.03266,14.1843685 C132.938954,15.3123956 134.076767,16.3658872 135.44464,17.3471334" id="Fill-69" fill="#FFFFFF"></path>
                        <path d="M133.893821,23.4512009 C132.854071,23.8480299 132.185749,24.6523061 131.888856,25.8648624 C131.591755,27.0786679 131.714593,28.3282838 132.260077,29.6149592 C132.533027,30.26142 132.927982,30.8758179 133.44411,31.4594023 C133.288376,31.2014426 133.148882,30.9395271 133.035205,30.670741 C132.489929,29.3838573 132.367091,28.1342415 132.663984,26.920436 C132.961086,25.7078797 133.629407,24.9038116 134.669158,24.5067744 C135.263152,24.3096091 135.831746,24.2969089 136.37723,24.469923 C136.739081,24.585474 137.061999,24.7678571 137.34765,25.0143658 C137.253127,24.7880525 137.130497,24.5758968 136.975805,24.3795643 C136.604376,23.9096571 136.146128,23.5881964 135.601893,23.4141413 C135.05641,23.2411271 134.488024,23.2540355 133.893821,23.4512009" id="Fill-71" fill="#FFFFFF"></path>
                        <path d="M158.818744,17.5648897 C159.034648,17.4568339 159.278242,17.3754277 159.550151,17.3208794 C159.278242,17.3208794 159.034648,17.2675802 158.818744,17.1582752 C158.601592,17.0502195 158.357582,16.9423719 158.086922,16.833067 C158.074638,16.8282784 158.062146,16.8207832 158.049654,16.81537 L158.049654,17.3198384 C158.208719,17.4797359 158.3682,17.6075706 158.527681,17.7106296 C158.62845,17.6602452 158.727345,17.6109018 158.818744,17.5648897" id="Fill-73" fill="#FFFFFF"></path>
                        <path d="M160.366024,22.1967131 C161.530902,21.9260532 162.926466,21.7370077 164.552299,21.6277027 L172.636702,21.6277027 L172.636702,20.5721292 L163.776963,20.5721292 C162.151338,20.6816423 160.755566,20.8706879 159.590687,21.1413478 C158.960674,21.2881287 158.449752,21.4757168 158.049592,21.7009891 L158.049592,23.4157236 C158.427891,22.8748202 159.200104,22.4686222 160.366024,22.1967131" id="Fill-75" fill="#FFFFFF"></path>
                        <path d="M171.512547,0.0876729829 L171.46133,0.0876729829 C171.490686,0.109533974 171.517544,0.137432762 171.546276,0.161375752 C171.534617,0.137224562 171.524207,0.111199573 171.512547,0.0876729829" id="Fill-77" fill="#FFFFFF"></path>
                        <path d="M179.508319,6.59046411 C179.616375,5.01938758 179.805421,3.65151415 180.07733,2.48538645 C180.347573,1.32092434 180.780629,0.522061279 181.377746,0.0877562629 L179.766071,0.0877562629 C179.579315,0.462932504 179.423374,0.907647516 179.301993,1.43002109 C179.030084,2.5957324 178.841039,3.96381402 178.732983,5.53509876 L178.732983,14.3946296 L179.508319,14.3946296 L179.508319,6.59046411 Z" id="Fill-79" fill="#FFFFFF"></path>
                        <path d="M175.562889,1.30820333 C175.602239,1.10853961 175.662201,0.928446687 175.731948,0.757722759 C175.602655,0.547232648 175.453168,0.324042343 175.281403,0.0877354429 L175.176887,0.0877354429 C175.26787,0.26054137 175.34303,0.423978301 175.400493,0.576588836 C175.508341,0.793741344 175.562889,1.03754344 175.562889,1.30820333" id="Fill-81" fill="#FFFFFF"></path>
                        <g id="Group-85" transform="translate(178.733149, 19.007132)">
                            <mask id="mask-2" fill="white">
                                <use xlink:href="#path-1"></use>
                            </mask>
                            <g id="Clip-84"></g>
                            <path d="M15.2810407,3.35326778 C14.9012841,2.81215621 14.1290706,2.40595818 12.9646085,2.1342573 C11.7982726,1.86359741 10.4306074,1.67455189 8.85953085,1.56503874 L0,1.56503874 L0,10.3435798 C0.107639354,11.9159056 0.296893074,13.283779 0.568802159,14.4484493 C0.823014252,15.5444136 1.22296628,16.3116303 1.76553525,16.7600929 C1.59751792,16.4030301 1.45615018,15.9868384 1.34413863,15.5038146 C1.07222955,14.3393525 0.883184026,12.9712709 0.775128272,11.3991534 L0.775128272,2.62040409 L9.63486732,2.62040409 C11.2061521,2.72991724 12.5738173,2.91896276 13.739945,3.18962265 C14.9044071,3.46153174 15.6766206,3.86772976 16.0563772,4.40863313 L16.0563772,0.588581151 C15.7971683,0.33041326 15.5387922,0.135538143 15.2810407,0 L15.2810407,3.35326778 Z" id="Fill-83" fill="#FFFFFF" mask="url(#mask-2)"></path>
                        </g>
                        <path d="M171.461309,36.9089725 L175.28157,36.9089725 C175.714625,36.4211601 176.012976,35.9069063 176.175788,35.3645456 C176.194734,35.3166596 176.210349,35.2685654 176.225964,35.2208876 C176.037335,34.9416915 175.896384,34.6383443 175.806858,34.308972 C175.697553,34.0387285 175.616355,33.7680686 175.562848,33.4961595 C175.562848,33.7680686 175.508299,34.0387285 175.400452,34.308972 C175.237848,34.8513328 174.939289,35.3657948 174.506233,35.8533989 L172.287863,35.8533989 C172.058843,36.31477 171.783603,36.6672524 171.461309,36.9089725" id="Fill-86" fill="#FFFFFF"></path>
                        <g id="Group-90" transform="translate(191.738149, 13.580526)">
                            <mask id="mask-4" fill="white">
                                <use xlink:href="#path-3"></use>
                            </mask>
                            <g id="Clip-89"></g>
                            <path d="M2.27604144,0.645627927 L2.27604144,2.68369686 C2.00413235,2.95560595 1.73368067,3.14465147 1.46322898,3.25249902 C1.1913199,3.36180398 0.947517799,3.46965153 0.73161449,3.57770729 C0.459705405,3.68701224 0.215903309,3.74031142 0,3.74031142 L0.73161449,3.98432171 C0.947517799,4.09341847 1.1913199,4.21542362 1.46322898,4.34992076 C1.55795994,4.39759854 1.6524827,4.45631091 1.74700546,4.52022829 C1.9004488,4.44985672 2.06138733,4.37927695 2.23856545,4.30807258 C2.50901714,4.20001682 2.77946882,4.0109713 3.05137791,3.73927042 L3.05137791,0 C2.87461618,0.242761097 2.61332529,0.456998807 2.27604144,0.645627927" id="Fill-88" fill="#FFFFFF" mask="url(#mask-4)"></path>
                        </g>
                        <path d="M180.540762,35.8533365 L176.782129,35.8533365 C176.76922,35.8416773 176.757353,35.8296017 176.744653,35.8177343 C176.927452,36.2260143 177.197904,36.5895314 177.557465,36.90891 L181.377934,36.90891 C181.048353,36.6698965 180.770614,36.3155403 180.540762,35.8533365" id="Fill-91" fill="#FFFFFF"></path>
                        <path d="M47.4977702,44.9387018 C48.0413801,44.9387018 48.5006692,45.0869401 48.87647,45.381543 C48.7459287,45.0940189 48.5995641,44.8510496 48.4371682,44.6545089 C48.012024,44.1404633 47.4405152,43.8833364 46.7224337,43.8833364 C45.8894259,43.8833364 45.2835641,44.2351943 44.9044321,44.9387018 C44.5253,45.6424175 44.3358381,46.7727348 44.3358381,48.3292373 C44.3358381,49.9377899 44.5309214,51.094965 44.9217127,51.8015955 C45.082443,52.0924508 45.2871035,52.3202215 45.5306974,52.4911536 C45.2521259,51.7761951 45.1111746,50.7433153 45.1111746,49.3846027 C45.1111746,47.8281002 45.3006365,46.6977828 45.6797685,45.9940671 C46.0589006,45.2905596 46.6647623,44.9387018 47.4977702,44.9387018" id="Fill-93" fill="#FFFFFF"></path>
                        <path d="M52.2797682,48.1869327 L52.2797682,43.3102662 L51.5044317,43.3102662 L51.5044317,47.1315674 L49.9083712,47.1315674 C50.0047678,47.447823 50.0892969,47.7978071 50.1600849,48.1869327 L52.2797682,48.1869327 Z" id="Fill-95" fill="#FFFFFF"></path>
                        <path d="M50.0526954,53.3482293 C49.096225,54.2014326 47.7450076,54.627826 45.9986267,54.627826 C43.9536872,54.627826 42.3811532,54.0865062 41.2814413,53.0036585 C41.2475047,52.9703465 41.2156501,52.9351607 41.1825464,52.9008077 C41.4196861,53.3326143 41.7109577,53.7188252 42.0565696,54.0590238 C43.1564897,55.1418716 44.7290237,55.6831914 46.7739632,55.6831914 C48.5201358,55.6831914 49.8715615,55.2567979 50.8280319,54.4035947 C51.7842941,53.5508079 52.2854313,52.331381 52.3314434,50.7461468 L51.4459692,50.7461468 C51.2471383,51.8271208 50.7843099,52.6957308 50.0526954,53.3482293" id="Fill-97" fill="#FFFFFF"></path>
                        <path d="M62.1264581,44.9387018 C62.5516023,44.9387018 62.912621,45.0446755 63.2138863,45.2495443 C63.1730791,45.1431541 63.1297735,45.0436345 63.0831367,44.9516102 C62.7210771,44.2395665 62.1439469,43.8833364 61.3511217,43.8833364 C60.552675,43.8833364 59.9711726,44.2351943 59.6064064,44.9387018 C59.2416401,45.6424175 59.059257,46.7727348 59.059257,48.3292373 C59.059257,49.9146797 59.2401827,51.060612 59.6020342,51.7672425 C59.7692187,52.0932836 59.9842892,52.3408332 60.2432899,52.5163458 C59.9709644,51.8024283 59.8345935,50.7593467 59.8345935,49.3846027 C59.8345935,47.8281002 60.0167684,46.6977828 60.3817429,45.9940671 C60.7465091,45.2905596 61.3280115,44.9387018 62.1264581,44.9387018" id="Fill-99" fill="#FFFFFF"></path>
                        <path d="M68.2011694,48.3638402 C68.2011694,50.3225849 67.5921847,51.8561855 66.3746316,52.96485 C65.1566621,54.0735146 63.4708674,54.6277427 61.3168311,54.6277427 C59.1854886,54.6277427 57.5126023,54.0705998 56.2977559,52.9563138 C56.1992773,52.8659551 56.1064201,52.7718487 56.0160614,52.6762849 C56.2933837,53.1728417 56.6446169,53.6185977 57.0730923,54.0116792 C58.2879388,55.1259651 59.9608251,55.6831081 62.0919594,55.6831081 C64.2459957,55.6831081 65.9319986,55.1288799 67.1497599,54.0202154 C68.3675211,52.911759 68.9765059,51.3781585 68.9765059,49.4192055 C68.9765059,47.6172353 68.4610029,46.1735771 67.4329117,45.0863572 C67.9440425,46.001604 68.2011694,47.0931961 68.2011694,48.3638402" id="Fill-101" fill="#FFFFFF"></path>
                        <path d="M77.2810382,44.1073179 C76.8904552,44.1073179 76.6347857,44.1533301 76.514238,44.2451462 C76.393482,44.3371706 76.3333122,44.5982533 76.3333122,45.0292271 L76.3333122,45.1154219 L76.3333122,52.5600261 L77.1084405,52.5600261 L77.1084405,46.1707872 L77.1084405,46.0845925 C77.1084405,45.6538268 77.1688185,45.3925359 77.2895744,45.3005116 C77.4101222,45.2086954 77.6655835,45.1626832 78.0563747,45.1626832 L78.728444,45.1626832 L78.728444,43.4912544 L77.9531076,43.4912544 L77.9531076,44.1073179 L77.2810382,44.1073179 Z" id="Fill-103" fill="#FFFFFF"></path>
                        <path d="M72.3955648,45.1678466 L72.3955648,45.1153802 C72.3955648,44.655883 72.3381017,44.3731475 72.2231753,44.2667574 C72.125946,44.1766068 71.9183706,44.1251814 71.6027396,44.1114403 L71.6027396,45.1628498 L72.1971503,45.1628498 C72.2683547,45.1628498 72.3333131,45.1647236 72.3955648,45.1678466" id="Fill-105" fill="#FFFFFF"></path>
                        <polygon id="Fill-107" fill="#FFFFFF" points="81.9769248 54.2745524 71.6027396 54.2745524 71.6027396 55.3299177 82.7522613 55.3299177 82.7522613 50.392665 81.9769248 50.392665"></polygon>
                        <path d="M85.5421401,45.1627665 L86.1365508,45.1627665 C86.2077552,45.1627665 86.2727136,45.1648485 86.3349653,45.1677633 L86.3349653,45.1152969 C86.3349653,44.6557997 86.2775022,44.3730643 86.1625758,44.2666741 C86.0653465,44.1767317 85.8577711,44.1253064 85.5421401,44.111357 L85.5421401,45.1627665 Z" id="Fill-109" fill="#FFFFFF"></path>
                        <path d="M91.8925497,44.1073179 L91.2204804,44.1073179 C90.8298973,44.1073179 90.5742278,44.1533301 90.4536801,44.2451462 C90.3329242,44.3371706 90.2727544,44.5982533 90.2727544,45.0292271 L90.2727544,45.1154219 L90.2727544,52.5600261 L91.0478826,52.5600261 L91.0478826,46.1707872 L91.0478826,46.0845925 C91.0478826,45.6538268 91.1082606,45.3925359 91.2288084,45.3005116 C91.3495643,45.2086954 91.6050256,45.1626832 91.9958168,45.1626832 L92.6678862,45.1626832 L92.6678862,43.4912544 L91.8925497,43.4912544 L91.8925497,44.1073179 Z" id="Fill-111" fill="#FFFFFF"></path>
                        <polygon id="Fill-113" fill="#FFFFFF" points="95.9163669 54.2745524 85.5421817 54.2745524 85.5421817 55.3299177 96.6917034 55.3299177 96.6917034 50.392665 95.9163669 50.392665"></polygon>
                        <path d="M108.898964,45.5781462 C108.88897,45.552954 108.879185,45.526929 108.869191,45.5031942 C108.73407,45.1815253 108.568967,44.9231492 108.373884,44.7276495 C108.149652,44.5036264 107.876911,44.3441453 107.555242,44.2494143 C107.233365,44.1546834 106.713698,44.107422 105.995616,44.107422 L105.642301,44.107422 L104.125981,44.107422 L104.125981,47.3555488 L104.582563,47.3555488 C104.696449,47.3555488 104.801798,47.34847 104.901109,47.3366026 L104.901109,45.1627873 L106.417637,45.1627873 L106.770953,45.1627873 C107.489034,45.1627873 108.008701,45.2100487 108.330578,45.3049879 C108.541693,45.3670315 108.729906,45.460305 108.898964,45.5781462" id="Fill-115" fill="#FFFFFF"></path>
                        <path d="M106.699748,50.8882641 C106.757836,51.1618388 106.793438,51.5124474 106.805306,51.9436295 L108.287273,51.9436295 L108.287273,46.5412581 L107.512144,46.5412581 L107.512144,50.8882641 L106.699748,50.8882641 Z" id="Fill-117" fill="#FFFFFF"></path>
                        <path d="M100.257252,45.1153802 C100.257252,44.655883 100.199789,44.3731475 100.084862,44.2667574 C99.9892985,44.1784806 99.7871364,44.1272634 99.4814989,44.1124813 L99.4814989,45.1628498 L100.058837,45.1628498 C100.130042,45.1628498 100.195,45.1647236 100.257252,45.1678466 L100.257252,45.1153802 Z" id="Fill-119" fill="#FFFFFF"></path>
                        <polygon id="Fill-121" fill="#FFFFFF" points="111.199927 54.2745524 99.481603 54.2745524 99.481603 55.3299177 111.975263 55.3299177 111.975263 50.4445068 111.199927 50.4445068"></polygon>
                        <path d="M111.906266,43.4912544 L111.130929,43.4912544 L111.130929,46.8472287 L109.752021,46.8472287 C109.847793,47.1320462 109.939818,47.4832795 110.027886,47.9025941 L111.906266,47.9028023 L111.906266,43.4912544 Z" id="Fill-123" fill="#FFFFFF"></path>
                        <path d="M104.125918,52.5943166 L104.901255,52.5943166 L104.901255,49.961837 L105.375118,49.961837 C105.600598,49.961837 105.794224,49.9843225 105.959535,50.0265871 C105.904779,49.6751457 105.82129,49.4236402 105.706989,49.2770674 C105.514404,49.0301424 105.145473,48.9064716 104.599781,48.9064716 L104.125918,48.9064716 L104.125918,52.5943166 Z" id="Fill-125" fill="#FFFFFF"></path>
                        <path d="M122.364647,44.93891 C122.908257,44.93891 123.367546,45.0869401 123.743347,45.3817512 C123.612806,45.0940189 123.466441,44.8510496 123.304045,44.6545089 C122.878901,44.1404633 122.307392,43.8833364 121.589311,43.8833364 C120.756303,43.8833364 120.150441,44.2351943 119.771309,44.9387018 C119.392177,45.6424175 119.202715,46.7727348 119.202715,48.3292373 C119.202715,49.9377899 119.397798,51.094965 119.78859,51.8015955 C119.94932,52.0924508 120.15398,52.3202215 120.397574,52.4911536 C120.119003,51.7761951 119.978052,50.7433153 119.978052,49.3848109 C119.978052,47.8283084 120.167513,46.697991 120.546646,45.9942753 C120.925778,45.2905596 121.531639,44.93891 122.364647,44.93891" id="Fill-127" fill="#FFFFFF"></path>
                        <path d="M124.919572,53.3482293 C123.963102,54.2014326 122.611885,54.627826 120.865504,54.627826 C118.820564,54.627826 117.24803,54.0865062 116.148318,53.0036585 C116.114382,52.9703465 116.082527,52.9351607 116.049423,52.9008077 C116.286563,53.3326143 116.577835,53.7188252 116.923447,54.059232 C118.023367,55.1418716 119.595901,55.6833996 121.64084,55.6833996 C123.387013,55.6833996 124.738438,55.2567979 125.694909,54.4038029 C126.651171,53.5508079 127.152308,52.3315892 127.19832,50.7461468 L126.312846,50.7461468 C126.114015,51.8271208 125.651187,52.6957308 124.919572,53.3482293" id="Fill-129" fill="#FFFFFF"></path>
                        <path d="M127.146645,48.1871409 L127.146645,43.3102662 L126.371309,43.3102662 L126.371309,47.1315674 L124.775248,47.1315674 C124.871645,47.447823 124.956174,47.7978071 125.026962,48.1871409 L127.146645,48.1871409 Z" id="Fill-131" fill="#FFFFFF"></path>
                        <path d="M138.070332,45.3437131 L138.587293,45.3437131 C139.00973,45.3437131 139.36721,45.4371948 139.661813,45.6212436 C139.576867,45.3637003 139.462773,45.1392608 139.315576,44.9516726 C138.96809,44.509456 138.466953,44.2883477 137.812165,44.2883477 L137.294996,44.2883477 L137.294996,51.5774266 C137.294996,52.0315106 137.355374,52.3142461 137.47613,52.4264659 C137.5744,52.5176574 137.773648,52.5711648 138.070332,52.588029 L138.070332,45.3437131 Z" id="Fill-133" fill="#FFFFFF"></path>
                        <path d="M133.383294,45.3571211 L133.383294,44.2882228 L132.866334,44.2882228 C132.217167,44.2882228 131.720402,44.5078737 131.375623,44.9473837 C131.031052,45.3868937 130.85887,46.0258593 130.85887,46.8644885 L130.85887,46.9161221 L129.884911,46.9161221 L129.884911,47.9719038 L131.633999,47.9719038 L131.633999,47.9200621 C131.633999,47.0814328 131.806388,46.4422591 132.150959,46.0029573 C132.448269,45.6238252 132.859463,45.4091711 133.383294,45.3571211" id="Fill-135" fill="#FFFFFF"></path>
                        <polygon id="Fill-137" fill="#FFFFFF" points="139.27683 54.2745524 132.262991 54.2745524 132.262991 55.3299177 140.052167 55.3299177 140.052167 53.6499527 139.27683 53.6499527"></polygon>
                        <path d="M141.568757,46.9161845 L140.504647,46.9161845 C140.575019,47.2120366 140.612079,47.5451565 140.612079,47.9199163 L140.612079,47.9717581 L142.344094,47.9717581 L142.344094,43.491296 L141.568757,43.491296 L141.568757,46.9161845 Z" id="Fill-139" fill="#FFFFFF"></path>
                        <path d="M145.608231,45.1153802 C145.608231,44.667334 145.549102,44.3873051 145.431469,44.2752936 C145.332783,44.1813954 145.126248,44.1272634 144.815198,44.1122731 L144.815198,45.1628498 L145.401072,45.1628498 C145.4754,45.1628498 145.543273,45.16514 145.608231,45.1686794 L145.608231,45.1153802 Z" id="Fill-141" fill="#FFFFFF"></path>
                        <path d="M151.079475,53.6444562 L151.079475,54.2744691 L144.815364,54.2744691 L144.815364,55.3300427 L151.854811,55.3300427 L151.854811,53.6498694 L151.277473,53.6498694 C151.206685,53.6498694 151.141727,53.6477874 151.079475,53.6444562" id="Fill-143" fill="#FFFFFF"></path>
                        <path d="M151.079475,44.1073179 L150.502345,44.1073179 C150.077201,44.1073179 149.805708,44.1633237 149.687867,44.2753352 C149.570234,44.3873468 149.511313,44.6671675 149.511313,45.1154219 L149.511313,51.5775307 C149.511313,52.0316147 149.571691,52.3143502 149.692239,52.4263618 C149.790717,52.5177615 149.989965,52.5710607 150.28665,52.5879249 L150.28665,46.1709954 C150.28665,45.7229492 150.34557,45.4429203 150.463203,45.3309088 C150.580836,45.2188972 150.852329,45.1626832 151.277473,45.1626832 L151.854811,45.1626832 L151.854811,43.4912544 L151.079475,43.4912544 L151.079475,44.1073179 Z" id="Fill-145" fill="#FFFFFF"></path>
                        <path d="M161.563569,44.111586 L161.563569,45.1627873 L162.127166,45.1627873 L162.184005,44.9860256 C162.212736,44.8883799 162.234181,44.8038507 162.248755,44.7318135 C162.262912,44.6601928 162.270199,44.6014804 162.270199,44.55526 C162.270199,44.3830787 162.211279,44.2652375 162.093438,44.202153 C161.997457,44.1505194 161.817989,44.1211632 161.563569,44.111586" id="Fill-147" fill="#FFFFFF"></path>
                        <path d="M159.250093,45.2619738 C159.367726,45.1959744 159.596121,45.1626624 159.935071,45.1626624 L160.589859,45.1626624 L160.589859,43.4912335 L159.814523,43.4912335 L159.814523,44.1072971 L159.159734,44.1072971 C158.820785,44.1072971 158.59239,44.1404009 158.474757,44.2064002 C158.356915,44.2723996 158.298203,44.3887834 158.298203,44.5551351 C158.298203,44.6817206 158.315484,44.8282934 158.349837,44.9948533 L158.349837,45.0121339 L160.21968,51.0607577 L160.449116,50.3505878 L159.125173,46.0674992 L159.125173,46.0502187 C159.090612,45.8836587 159.073331,45.7372942 159.073331,45.6109168 C159.073331,45.4443569 159.132252,45.3279732 159.250093,45.2619738" id="Fill-149" fill="#FFFFFF"></path>
                        <path d="M153.498675,44.1260351 L153.498675,45.1626624 L154.058732,45.1626624 C154.285878,45.1626624 154.48575,45.2167944 154.663345,45.3146484 C154.519479,44.9367655 154.351461,44.6496578 154.158044,44.4562401 C153.975244,44.2734406 153.754344,44.1649684 153.498675,44.1260351" id="Fill-151" fill="#FFFFFF"></path>
                        <path d="M166.294121,44.1073179 L165.863355,44.1073179 C165.495466,44.1073179 165.214188,44.1864339 165.018896,44.3442494 C164.823605,44.5022731 164.653922,44.805204 164.510472,45.2532502 L161.529258,54.2745524 L157.931771,54.2745524 L158.263434,55.3299177 L162.304594,55.3299177 L165.285809,46.3088238 C165.429466,45.8607776 165.598733,45.5578467 165.794233,45.3998229 C165.989316,45.2417992 166.27101,45.1626832 166.638483,45.1626832 L167.069457,45.1626832 L167.069457,43.4912544 L166.294121,43.4912544 L166.294121,44.1073179 Z" id="Fill-153" fill="#FFFFFF"></path>
                        <path d="M175.931507,50.8882641 C175.989595,51.1618388 176.025197,51.5124474 176.037273,51.9438377 L177.51924,51.9438377 L177.51924,46.5414663 L176.743695,46.5414663 L176.743695,50.8882641 L175.931507,50.8882641 Z" id="Fill-155" fill="#FFFFFF"></path>
                        <path d="M168.713424,45.1627665 L169.290555,45.1627665 C169.361551,45.1627665 169.426717,45.1648485 169.488969,45.1677633 L169.488969,45.1152969 C169.488969,44.6557997 169.431506,44.3730643 169.31658,44.2666741 C169.221016,44.1783973 169.018854,44.1273884 168.713424,44.112398 L168.713424,45.1627665 Z" id="Fill-157" fill="#FFFFFF"></path>
                        <path d="M178.130619,45.5781462 C178.120833,45.552954 178.11084,45.5271372 178.100846,45.5031942 C177.965933,45.1815253 177.800622,44.9231492 177.605539,44.7276495 C177.381307,44.5036264 177.108565,44.3441453 176.786897,44.2494143 C176.465228,44.1546834 175.945353,44.107422 175.227479,44.107422 L174.873956,44.107422 L173.357636,44.107422 L173.357636,47.3555488 L173.814426,47.3555488 C173.928312,47.3555488 174.033453,47.34847 174.132972,47.3366026 L174.132972,45.1627873 L175.6495,45.1627873 L176.002607,45.1627873 C176.720897,45.1627873 177.240564,45.2100487 177.562441,45.3049879 C177.773556,45.3672397 177.96156,45.460305 178.130619,45.5781462" id="Fill-159" fill="#FFFFFF"></path>
                        <polygon id="Fill-161" fill="#FFFFFF" points="180.431582 54.2745524 168.713466 54.2745524 168.713466 55.3299177 181.207126 55.3299177 181.207126 50.4445068 180.431582 50.4445068"></polygon>
                        <path d="M181.138129,43.4912544 L180.362584,43.4912544 L180.362584,46.8472287 L178.983676,46.8472287 C179.079448,47.1320462 179.171681,47.4834877 179.259749,47.9028023 L181.138129,47.9028023 L181.138129,43.4912544 Z" id="Fill-163" fill="#FFFFFF"></path>
                        <path d="M173.831603,48.9064924 L173.35774,48.9064924 L173.35774,52.5943375 L174.132868,52.5943375 L174.132868,49.962066 L174.606939,49.962066 C174.83242,49.962066 175.025838,49.9845516 175.191148,50.0266079 C175.136808,49.6751665 175.052904,49.4238692 174.938602,49.2770883 C174.746225,49.0301632 174.377087,48.9064924 173.831603,48.9064924" id="Fill-165" fill="#FFFFFF"></path>
                    </g>
                    <path d="M127.284911,34.3839448 L117.482234,16.7092297 L123.497546,4.75314153 C123.645993,4.50580003 123.843158,4.17163917 124.091541,3.75045075 C124.338674,3.33051153 124.648475,2.9220233 125.019904,2.52498607 C125.391124,2.12940624 125.823972,1.78254519 126.319488,1.48544391 C126.813754,1.18855084 127.407749,1.0398961 128.101679,1.0398961 L128.101679,0.000145739938 L120.52695,0.000145739938 L120.52695,1.0398961 C121.121152,1.0398961 121.5667,1.15128305 121.863593,1.37405696 C122.160695,1.59683086 122.333709,1.88227294 122.383468,2.228093 C122.432187,2.57495405 122.420736,2.94638269 122.346409,3.34196253 C122.272081,3.73899976 122.160695,4.08461161 122.012248,4.38150469 L121.789266,4.75314153 L112.877893,22.7245415 L112.877893,4.75314153 C112.877893,4.45604025 112.926612,4.08461161 113.02634,3.6390638 C113.125027,3.19330779 113.286381,2.78502776 113.509155,2.41359912 C113.731929,2.04237868 114.05339,1.72091801 114.474578,1.44838433 C114.894518,1.17689164 115.451661,1.0398961 116.145383,1.0398961 L116.145383,0.000145739938 L102.332568,0.000145739938 L102.332568,1.0396879 C103.025249,1.0396879 103.582184,1.17689164 104.003372,1.44838433 C104.423519,1.72091801 104.746021,2.04237868 104.968795,2.41359912 C105.191569,2.78502776 105.351675,3.19330779 105.451611,3.6390638 C105.550089,4.08461161 105.600057,4.45604025 105.600057,4.75314153 L105.600057,15.5953601 C105.550089,15.8437426 105.388942,16.2892904 105.11745,16.9322118 C104.844708,17.5761741 104.213446,18.0960493 103.223663,18.4914209 C103.075217,18.6400757 103.075217,18.7141948 103.223663,18.7141948 C104.213446,19.1599508 104.844708,19.7054346 105.11745,20.3481477 C105.388942,20.9923183 105.550089,21.4376579 105.600057,21.6849994 L105.600057,32.527218 C105.600057,32.8243192 105.550089,33.1840887 105.451611,33.6042361 C105.351675,34.0252163 105.191569,34.4210044 104.968795,34.792433 C104.746021,35.1636535 104.423519,35.4861551 104.003372,35.757856 C103.582184,36.0303897 103.025249,36.166136 102.332568,36.166136 L102.332568,37.2058864 L116.145383,37.2058864 L116.145383,36.1663442 C115.451661,36.1663442 114.894518,36.0303897 114.474578,35.757856 C114.05339,35.4861551 113.731929,35.1636535 113.509155,34.792433 C113.286381,34.4210044 113.125027,34.0252163 113.02634,33.6042361 C112.926612,33.1840887 112.877893,32.8243192 112.877893,32.527218 L112.877893,25.9920309 L113.546215,24.6553875 L119.709973,35.7205882 C119.957315,36.216104 120.241508,36.5873245 120.564009,36.834666 C120.88547,37.0828402 121.466764,37.2058864 122.309349,37.2058864 L130.478073,37.2058864 L130.478073,36.1663442 C129.685664,36.1663442 129.041702,35.9931219 128.547227,35.6462609 C128.051919,35.3004408 127.630731,34.8794606 127.284911,34.3839448" id="Fill-177" fill="#FFFFFF"></path>
                    <path d="M158.697385,25.3237925 C158.697385,23.8882541 158.374883,22.6388464 157.731962,21.5734875 C157.087999,20.5095859 156.246664,19.5568631 155.207121,18.7144863 C154.167371,17.8731505 153.003534,17.1178012 151.71665,16.4494795 C150.428725,15.7809495 149.166201,15.1255362 147.929285,14.4813657 C147.680903,14.2342324 147.458129,13.8871631 147.260964,13.4418235 C147.062549,12.9960675 147.012581,12.4764005 147.112309,11.882198 C147.112309,11.7337515 147.03819,11.6848245 146.889535,11.7337515 C146.195813,12.229059 145.589951,12.4520412 145.070076,12.4020732 C144.550409,12.3533544 144.141921,12.2536266 143.844819,12.1049719 C142.853788,11.4122908 142.062628,10.6825501 141.468426,9.91429242 C140.874431,9.14728395 140.57733,8.24327993 140.57733,7.20373777 C140.57733,5.76819938 140.96021,4.45612353 141.728259,3.26771844 C142.495268,2.07952154 143.670764,1.48552719 145.25579,1.48552719 C146.741088,1.48552719 148.374833,2.03080276 150.157024,3.1192719 C150.503053,3.36744619 150.911541,3.67599846 151.382489,4.04763531 C151.852396,4.41885575 152.297944,4.87710376 152.719341,5.42133833 C153.13928,5.96661389 153.499049,6.58517583 153.795942,7.27785694 C154.093044,7.97178725 154.266058,8.76315511 154.316026,9.65425073 L154.316026,9.87723284 C154.364536,9.9769606 154.390145,10.1254071 154.390145,10.3225725 L155.429895,10.3225725 L155.429895,2.45095018 L154.390145,2.45095018 C154.390145,3.19339107 154.067643,3.61457949 153.424722,3.71326625 C152.533626,2.52506935 151.394148,1.60961434 150.008578,0.965652011 C148.621966,0.322730683 147.03819,0.000229019903 145.25579,0.000229019903 C141.789886,0.000229019903 138.992096,0.904024837 136.864085,2.71078367 C134.734824,4.51858351 133.670714,6.98075567 133.670714,10.1000067 C133.670714,11.6848245 134.127921,13.0460355 135.044626,14.1842644 C135.960289,15.3239507 137.111218,16.3878523 138.497829,17.3776347 C138.744963,17.6260172 138.992096,17.971629 139.240478,18.417385 C139.487612,18.8629328 139.561939,19.4325678 139.463252,20.1254571 C139.413284,20.1752169 139.413284,20.2124847 139.463252,20.2366359 C139.512179,20.2622444 139.586298,20.2495443 139.686026,20.1997845 C140.477394,19.6055819 141.171324,19.3955082 141.765527,19.5683141 C142.359521,19.7423693 142.779669,19.8783238 143.027843,19.9768024 C144.16628,20.5710049 145.28015,21.1649993 146.369868,21.7592018 C147.458129,22.3531962 148.436252,22.9971585 149.303197,23.6900478 C150.168892,24.3837699 150.862614,25.1380782 151.382489,25.9550546 C151.902364,26.7720311 152.162198,27.6758269 152.162198,28.6656093 C152.162198,30.1021887 151.951083,31.264777 151.531144,32.1558726 C151.109747,33.0471764 150.565513,33.7654661 149.897191,34.3094925 C149.228869,34.8549763 148.48622,35.2264049 147.669452,35.4235702 C146.852475,35.6219847 146.047158,35.7206715 145.25579,35.7206715 C142.680982,35.7206715 140.638749,35.2005881 139.129091,34.161046 C137.618393,33.1212956 136.591343,31.9587073 136.047108,30.6707826 C135.501833,29.383899 135.378995,28.1342831 135.675888,26.9204776 C135.972989,25.7079213 136.641311,24.9036451 137.681061,24.506816 C138.275055,24.3096507 138.843649,24.2967423 139.389133,24.4697565 C139.933368,24.6438116 140.391616,24.9652723 140.762836,25.4351795 C141.134265,25.9063359 141.33143,26.4632706 141.357039,27.1061919 C141.381398,27.7501543 141.171324,28.3941166 140.725777,29.0370379 C140.626049,29.1365575 140.638749,29.2227523 140.762836,29.2968714 C140.885882,29.3709906 140.997269,29.4082584 141.096997,29.4082584 C142.285194,29.2596036 143.150889,28.7026689 143.696373,27.7374541 C144.240399,26.7720311 144.426114,25.7449809 144.253308,24.6554708 C144.079253,23.5670016 143.510659,22.5888785 142.545236,21.721934 C141.579813,20.856447 140.205901,20.4479588 138.42371,20.4966775 C137.235513,20.5466455 136.244482,20.8308384 135.453114,21.3507136 C134.660497,21.8705888 134.029443,22.5018509 133.559327,23.2445 C133.088379,23.9871491 132.766919,24.7424983 132.594113,25.5095068 C132.420057,26.2775563 132.334071,26.9577454 132.334071,27.5517398 C132.334071,30.1265481 133.373821,32.3045273 135.453114,34.0869268 C137.829508,36.1662193 141.096997,37.2057615 145.25579,37.2057615 C146.938462,37.2057615 148.597607,36.9588364 150.231352,36.4633206 C151.865305,35.969054 153.300635,35.2378559 154.538592,34.2724329 C155.775507,33.3072181 156.778198,32.0817534 157.546247,30.5964553 C158.313256,29.1111571 158.697385,27.3543662 158.697385,25.3237925" id="Fill-179" fill="#FFFFFF"></path>
                    <path d="M196.988576,17.8885572 C197.259027,17.7805015 197.529687,17.591456 197.80118,17.3199633 L197.80118,13.5806929 C197.366875,14.177602 196.446423,14.610866 195.037742,14.8813177 C193.628021,15.1528104 192.030295,15.3424805 190.242066,15.4501199 L182.520139,15.4501199 L182.520139,6.59038083 C182.627987,5.0193043 182.81724,3.65143087 183.08915,2.48551137 C183.359601,1.32104926 183.792657,0.521977999 184.389566,0.0876729829 L180.569514,0.0876729829 C180.135001,0.629825553 179.809793,1.14449574 179.593889,1.63209993 C179.484793,1.84925244 179.403386,2.09326273 179.350087,2.36392262 C179.350087,2.09326273 179.295539,1.84925244 179.187691,1.63209993 C179.024879,1.19904411 178.726529,0.68458213 178.293473,0.0876729829 L174.473004,0.0876729829 C175.123213,0.575485376 175.582918,1.51009478 175.854827,2.8921258 C176.125487,4.27374041 176.314533,5.88666513 176.424046,7.72819335 L176.424046,15.4501199 L168.702119,15.4501199 C166.859134,15.3424805 165.233509,15.1528104 163.825036,14.8813177 C162.415106,14.610866 161.494655,14.177602 161.061391,13.5806929 L161.061391,17.3199633 C161.331842,17.591456 161.602502,17.7805015 161.874203,17.8885572 C162.144863,17.9978622 162.388665,18.1057098 162.605818,18.2137655 C162.821929,18.3230705 163.065523,18.3763696 163.337432,18.3763696 C163.065523,18.430918 162.821929,18.5123242 162.605818,18.6203799 C162.388665,18.7292685 162.144863,18.8512736 161.874203,18.985979 C161.602502,19.1219335 161.331842,19.3249284 161.061391,19.5955883 L161.061391,23.4158485 C161.43969,22.8747369 162.212112,22.4685389 163.377823,22.1966298 C164.542701,21.9261781 165.938474,21.7369244 167.564099,21.6276195 L176.424046,21.6276195 L176.424046,29.268348 C176.314533,31.1111255 176.125487,32.722801 175.854827,34.1046238 C175.582918,35.4862384 175.123213,36.4212642 174.473004,36.9088684 L178.293473,36.9088684 C178.726529,36.4212642 179.024879,35.9068022 179.187691,35.3644415 C179.295539,35.094198 179.350087,34.8235381 179.350087,34.551629 C179.403386,34.8235381 179.484793,35.094198 179.593889,35.3644415 C179.756285,35.9615588 180.081494,36.4758126 180.569306,36.9088684 L184.389566,36.9088684 C183.792657,36.4758126 183.359601,35.6767413 183.08915,34.51103 C182.81724,33.3463597 182.627987,31.9784863 182.520139,30.4061606 L182.520139,21.6276195 L191.380086,21.6276195 C192.950955,21.7369244 194.318828,21.9261781 195.484748,22.1966298 C196.649418,22.4685389 197.421631,22.8747369 197.80118,23.4158485 L197.80118,19.5955883 C197.529687,19.3249284 197.259027,19.1219335 196.988576,18.985979 C196.716667,18.8512736 196.472864,18.7292685 196.256753,18.6203799 L195.525555,18.3763696 C195.74125,18.3763696 195.98526,18.3230705 196.256753,18.2137655 C196.472864,18.1057098 196.716667,17.9978622 196.988576,17.8885572" id="Fill-181" fill="#FFFFFF"></path>
                    <path d="M52.5775357,53.0595185 C52.0661967,53.6312355 51.411408,53.9168858 50.6129614,53.9168858 C49.7341495,53.9168858 49.099348,53.5635705 48.708765,52.85694 C48.3181819,52.1505177 48.1228904,50.9931344 48.1228904,49.3847901 C48.1228904,47.8280793 48.3125605,46.697762 48.6914844,45.9940463 C49.0708246,45.290747 49.6766864,44.938681 50.5096942,44.938681 C51.2275675,44.938681 51.7990763,45.1958079 52.2242205,45.7098534 C52.6493647,46.2241072 52.965204,47.0498281 53.1719465,48.187016 L55.2916298,48.187016 L55.2916298,43.3103495 L53.370361,43.3103495 L53.0686793,43.96493 C52.5689995,43.6836519 52.0418374,43.475452 51.4876092,43.3403302 C50.9331728,43.2054167 50.3373047,43.1379599 49.6997965,43.1379599 C47.7926854,43.1379599 46.2688702,43.7096769 45.1287675,44.8524862 C43.9884566,45.9957119 43.4184052,47.5180697 43.4184052,49.4193513 C43.4184052,51.4297296 43.9684694,52.9764468 45.0685977,54.0590863 C46.1683096,55.141934 47.7408436,55.6832538 49.7857831,55.6832538 C51.532164,55.6832538 52.8833814,55.2568604 53.8398518,54.4036572 C54.7963222,53.5506621 55.2972512,52.3314434 55.3434716,50.7462093 L53.4392752,50.7462093 C53.3757742,51.7170455 53.0888747,52.4880098 52.5775357,53.0595185" id="Fill-183" fill="#FFFFFF"></path>
                    <path d="M66.8702307,52.8311857 C66.5083792,53.5319866 65.9252113,53.882387 65.1211432,53.882387 C64.3285261,53.882387 63.7511878,53.52928 63.3893363,52.8226495 C63.0272767,52.116019 62.846351,50.9702949 62.846351,49.3846443 C62.846351,47.8281418 63.0287341,46.6978245 63.3935003,45.9941088 C63.7582666,45.2906013 64.3399771,44.9387434 65.1384238,44.9387434 C65.9310409,44.9387434 66.5083792,45.2949735 66.8702307,46.0072254 C67.2320821,46.7194773 67.4130078,47.862703 67.4130078,49.4362779 C67.4130078,50.9988183 67.2320821,52.130593 66.8702307,52.8311857 M70.1660353,44.8094513 C68.9509806,43.6951653 67.2751795,43.1378142 65.1384238,43.1378142 C62.9900089,43.1378142 61.3069208,43.6951653 60.0891595,44.8094513 C58.8713982,45.9239454 58.2626217,47.4604608 58.2626217,49.4192055 C58.2626217,51.3664993 58.8699408,52.8971851 60.0849955,54.0116792 C61.299842,55.1259651 62.9727283,55.6831081 65.1038626,55.6831081 C67.2578989,55.6831081 68.9436936,55.1288799 70.1616631,54.0202154 C71.3794244,52.911759 71.9884091,51.3781585 71.9884091,49.4192055 C71.9884091,47.4604608 71.3808818,45.9239454 70.1660353,44.8094513" id="Fill-185" fill="#FFFFFF"></path>
                    <path d="M83.6962188,52.1073579 C83.5812925,52.5210511 83.4118178,52.8485496 83.1877947,53.0896451 C83.0097837,53.2849366 82.7699374,53.4215157 82.468464,53.4989661 C82.1667823,53.5766246 81.6483645,53.6153498 80.9130024,53.6153498 L80.1203854,53.6153498 L80.1203854,46.1707456 L80.1203854,46.0845508 C80.1203854,45.6537852 80.1807633,45.3924943 80.3013111,45.3006781 C80.4218588,45.2086538 80.6775283,45.1628498 81.0681114,45.1628498 L81.7401807,45.1628498 L81.7401807,43.4912127 L74.6145387,43.4912127 L74.6145387,45.1628498 L75.2091576,45.1628498 C75.6284723,45.1628498 75.8953845,45.2157326 76.0103109,45.3221227 C76.1252372,45.4285129 76.1827004,45.7112484 76.1827004,46.1707456 L76.1827004,52.6328544 C76.1827004,53.0925599 76.1237798,53.3771691 76.0061469,53.4860577 C75.8883057,53.5951544 75.6226427,53.6497028 75.2091576,53.6497028 L74.6145387,53.6497028 L74.6145387,55.3300843 L85.7640604,55.3300843 L85.7640604,50.3928316 L83.9287781,50.3928316 C83.8885956,51.1223641 83.810937,51.6938728 83.6962188,52.1073579" id="Fill-187" fill="#FFFFFF"></path>
                    <path d="M97.6356402,52.1073579 C97.5207138,52.5210511 97.3512391,52.8485496 97.127216,53.0896451 C96.9492051,53.2849366 96.7093588,53.4215157 96.4078853,53.4989661 C96.1062036,53.5766246 95.5877858,53.6153498 94.8524237,53.6153498 L94.0598067,53.6153498 L94.0598067,46.1707456 L94.0598067,46.0845508 C94.0598067,45.6537852 94.1201846,45.3924943 94.2407324,45.3006781 C94.3612801,45.2086538 94.6169496,45.1628498 95.0075327,45.1628498 L95.679602,45.1628498 L95.679602,43.4912127 L88.55396,43.4912127 L88.55396,45.1628498 L89.148579,45.1628498 C89.5678936,45.1628498 89.8348059,45.2157326 89.9497322,45.3221227 C90.0646586,45.4285129 90.1221217,45.7112484 90.1221217,46.1707456 L90.1221217,52.6328544 C90.1221217,53.0925599 90.0632012,53.3771691 89.9455682,53.4860577 C89.8277271,53.5951544 89.562064,53.6497028 89.148579,53.6497028 L88.55396,53.6497028 L88.55396,55.3300843 L99.7034817,55.3300843 L99.7034817,50.3928316 L97.8681995,50.3928316 C97.8280169,51.1223641 97.7503583,51.6938728 97.6356402,52.1073579" id="Fill-189" fill="#FFFFFF"></path>
                    <path d="M112.828737,51.973985 C112.722347,52.3789338 112.577232,52.7222555 112.393599,53.0035336 C112.226831,53.2392159 111.9899,53.4057758 111.682805,53.5034216 C111.375502,53.6010673 110.816693,53.6499943 110.006796,53.6499943 L107.913137,53.6499943 L107.913137,49.9621493 L108.387,49.9621493 C108.932692,49.9621493 109.301623,50.08582 109.494207,50.3325369 C109.686584,50.5796702 109.794224,51.1166178 109.817334,51.943796 L111.299301,51.943796 L111.299301,46.5414247 L109.817334,46.5414247 L109.817334,46.6446919 C109.817334,47.3055184 109.709694,47.7648074 109.494207,48.0233917 C109.278721,48.281976 108.903961,48.4112681 108.36972,48.4112681 L107.913137,48.4112681 L107.913137,45.1627249 L109.429457,45.1627249 L109.782773,45.1627249 C110.500854,45.1627249 111.020521,45.2101945 111.342398,45.3051336 C111.664067,45.3998646 111.936809,45.5591375 112.160832,45.7833688 C112.356123,45.9784521 112.521226,46.2370364 112.656348,46.5587053 C112.791261,46.8803742 112.919096,47.3286286 113.039852,47.9028439 L114.918232,47.9028439 L114.918232,43.491296 L102.493485,43.491296 L102.493485,45.1627249 L103.070824,45.1627249 C103.48993,45.1627249 103.757051,45.2160241 103.871977,45.322206 C103.986903,45.4285962 104.044367,45.7115399 104.044367,46.1710371 L104.044367,52.6331459 L104.044367,52.7193407 C104.044367,53.1559359 103.982531,53.4201416 103.859069,53.512166 C103.735606,53.6039821 103.478479,53.6499943 103.087896,53.6497861 L102.493485,53.6497861 L102.493485,55.3299594 L114.987146,55.3299594 L114.987146,50.4445485 L113.039852,50.4445485 C113.005291,51.0591546 112.934919,51.5690362 112.828737,51.973985" id="Fill-191" fill="#FFFFFF"></path>
                    <path d="M127.444413,53.0597059 C126.933074,53.6312147 126.278285,53.9168649 125.479838,53.9168649 C124.601027,53.9168649 123.966225,53.5637579 123.575642,52.8571274 C123.185059,52.1507051 122.989767,50.9931136 122.989767,49.3849775 C122.989767,47.8282667 123.179438,46.6979494 123.558361,45.9942337 C123.937702,45.2907262 124.543563,44.9388683 125.376571,44.9388683 C126.094444,44.9388683 126.665953,45.195787 127.091097,45.7098326 C127.516242,46.2240864 127.832081,47.0498072 128.038823,48.1872034 L130.158507,48.1872034 L130.158507,43.3103286 L128.237238,43.3103286 L127.935556,43.9651174 C127.435877,43.6838393 126.908714,43.4756394 126.354486,43.3403094 C125.80005,43.2056041 125.204182,43.1381473 124.566674,43.1381473 C122.659562,43.1381473 121.135747,43.7096561 119.995644,44.8526736 C118.855334,45.9956911 118.285282,47.5180489 118.285282,49.4193304 C118.285282,51.429917 118.835346,52.9764259 119.935475,54.0592737 C121.035187,55.1419132 122.607721,55.6834412 124.65266,55.6834412 C126.399041,55.6834412 127.750258,55.2568396 128.706729,54.4038445 C129.663199,53.5506413 130.164128,52.3316308 130.210349,50.7461885 L128.306152,50.7461885 C128.242651,51.7170247 127.955752,52.4881971 127.444413,53.0597059" id="Fill-193" fill="#FFFFFF"></path>
                    <path d="M132.896752,47.9718206 L134.645839,47.9718206 L134.645839,47.9199788 C134.645839,47.0815577 134.818229,46.4421758 135.1628,46.002874 C135.507579,45.5635722 136.004344,45.3437131 136.653511,45.3437131 L137.170472,45.3437131 L137.170472,52.6332084 C137.170472,53.1214372 137.107179,53.4129171 136.98101,53.507648 C136.854424,53.602379 136.593133,53.6498486 136.196929,53.6498486 L135.274811,53.6498486 L135.274811,55.3300218 L143.063986,55.3300218 L143.063986,53.6498486 L142.073163,53.6498486 C141.653848,53.6498486 141.383813,53.5938428 141.263265,53.4818312 C141.14251,53.3698197 141.082132,53.086876 141.082132,52.6332084 L141.082132,45.3437131 L141.5993,45.3437131 C142.254089,45.3437131 142.755226,45.5648214 143.10292,46.007038 C143.450197,46.4494628 143.624044,47.0871791 143.624044,47.9199788 L143.624044,47.9718206 L145.355851,47.9718206 L145.355851,43.4911503 L132.896752,43.4911503 L132.896752,47.9718206 Z" id="Fill-195" fill="#FFFFFF"></path>
                    <path d="M147.827163,45.1627457 L148.413038,45.1627457 C148.832352,45.1627457 149.10093,45.2189597 149.218771,45.3309712 C149.336404,45.4429828 149.395325,45.7228035 149.395325,46.1710579 L149.395325,52.6331667 C149.395325,53.0870426 149.334947,53.369778 149.214399,53.4817896 C149.093643,53.5938011 148.826731,53.6500151 148.413038,53.6500151 L147.827163,53.6500151 L147.827163,55.3299802 L154.86661,55.3299802 L154.86661,53.6500151 L154.28948,53.6500151 C153.869958,53.6500151 153.60013,53.5938011 153.479374,53.4817896 C153.358827,53.369778 153.298449,53.0870426 153.298449,52.6331667 L153.298449,46.1710579 C153.298449,45.7228035 153.357369,45.4429828 153.475002,45.3309712 C153.592843,45.2189597 153.864336,45.1627457 154.28948,45.1627457 L154.86661,45.1627457 L154.86661,43.4913168 L147.827163,43.4913168 L147.827163,45.1627457 Z" id="Fill-197" fill="#FFFFFF"></path>
                    <path d="M164.575472,45.1627457 L165.169883,45.1627457 C165.526113,45.1627457 165.763044,45.1943921 165.880885,45.2574767 C165.998518,45.3209776 166.057439,45.4384024 166.057439,45.6107919 C166.057439,45.6568041 166.050152,45.7157247 166.035994,45.7875536 C166.02142,45.8593826 165.999976,45.94412 165.971244,46.0417657 L164.006878,52.1159982 L162.137035,46.0675825 L162.137035,46.0503019 C162.102682,45.883742 162.085401,45.7373775 162.085401,45.6107919 C162.085401,45.4444402 162.144113,45.3280564 162.261955,45.2620571 C162.379588,45.1958495 162.607983,45.1627457 162.946932,45.1627457 L163.601721,45.1627457 L163.601721,43.4913168 L156.51064,43.4913168 L156.51064,45.1627457 L157.070698,45.1627457 C157.42089,45.1627457 157.712578,45.2791295 157.945138,45.511897 C158.177905,45.7444563 158.374446,46.1106799 158.535384,46.6103597 L161.275295,55.3299802 L165.316456,55.3299802 L168.29767,46.3088862 C168.44112,45.86084 168.610595,45.5577009 168.805886,45.3998854 C169.001178,45.2418617 169.282664,45.1627457 169.650345,45.1627457 L170.081111,45.1627457 L170.081111,43.4913168 L164.575472,43.4913168 L164.575472,45.1627457 Z" id="Fill-199" fill="#FFFFFF"></path>
                    <path d="M182.060392,51.973985 C181.954002,52.3789338 181.809095,52.7222555 181.625254,53.0035336 C181.458486,53.2392159 181.221763,53.4057758 180.91446,53.5034216 C180.607157,53.6010673 180.048556,53.6499943 179.238451,53.6499943 L177.144792,53.6499943 L177.144792,49.9621493 L177.618655,49.9621493 C178.164347,49.9621493 178.533486,50.08582 178.725862,50.3325369 C178.918239,50.5796702 179.026087,51.1166178 179.048989,51.943796 L180.530956,51.943796 L180.530956,46.5414247 L179.048989,46.5414247 L179.048989,46.6446919 C179.048989,47.3055184 178.941349,47.7648074 178.725862,48.0233917 C178.510375,48.281976 178.135616,48.4112681 177.601375,48.4112681 L177.144792,48.4112681 L177.144792,45.1627249 L178.66132,45.1627249 L179.014427,45.1627249 C179.732509,45.1627249 180.252176,45.2101945 180.574053,45.3051336 C180.895722,45.3998646 181.168672,45.5591375 181.392695,45.7833688 C181.587778,45.9784521 181.752881,46.2370364 181.888003,46.5587053 C182.022916,46.8803742 182.150959,47.3286286 182.271507,47.9028439 L184.149886,47.9028439 L184.149886,43.491296 L171.72514,43.491296 L171.72514,45.1627249 L172.302479,45.1627249 C172.721793,45.1627249 172.988914,45.2160241 173.103632,45.322206 C173.218558,45.4285962 173.27623,45.7115399 173.27623,46.1710371 L173.27623,52.6331459 L173.27623,52.7193407 C173.27623,53.1559359 173.214394,53.4201416 173.090932,53.512166 C172.967261,53.6039821 172.710342,53.6499943 172.319759,53.6499943 L171.72514,53.6499943 L171.72514,55.3299594 L184.218801,55.3299594 L184.218801,50.4445485 L182.271507,50.4445485 C182.237154,51.0591546 182.166574,51.5690362 182.060392,51.973985" id="Fill-201" fill="#FFFFFF"></path>
                    <path d="M29.0368089,1.03983364 C29.72949,1.03983364 30.2864248,1.17662098 30.7076132,1.44832187 C31.1277606,1.72085555 31.4504705,2.04231622 31.6732444,2.41374486 C31.8958101,2.7849653 32.056124,3.19345353 32.1558518,3.63900134 C32.2545385,4.08454915 32.3042983,4.45576959 32.3042983,4.75287087 L32.3042983,23.8385568 C32.2545385,24.1854178 32.0317646,24.6311739 31.6359766,25.1752002 C31.2391476,25.720684 30.5964345,26.1905912 29.7051306,26.586171 C29.5566841,26.586171 29.5566841,26.6604984 29.7051306,26.8089449 C30.5964345,27.1560142 31.2391476,27.5888618 31.6359766,28.108737 C32.0317646,28.6286122 32.2545385,29.0868602 32.3042983,29.48244 L32.3042983,37.5770444 L32.3042983,38.3199017 C32.3042983,41.5873911 31.9447371,44.3849733 31.2274884,46.7113991 C30.5094069,49.0392823 29.5439839,50.9572199 28.3312194,52.4668775 C27.1176221,53.976535 25.7320517,55.0904046 24.1726344,55.8086943 C22.6130088,56.5257348 21.0165319,56.8855042 19.382579,56.8855042 C16.5106694,56.8855042 14.0472481,56.2915099 11.9935641,55.103313 C9.93863099,53.9151161 8.2803187,52.4298179 7.01779443,50.6474184 C5.75547836,48.865019 4.90144233,46.9470814 4.45589451,44.8921483 C4.0101385,42.8382562 3.99743831,40.9190694 4.41862673,39.1366699 C4.83877415,37.3544787 5.69281019,35.8691805 6.98073485,34.6809836 C8.2676185,33.4927867 9.97569058,32.8987924 12.1049511,32.8987924 C13.3916265,32.8987924 14.604391,33.171326 15.7436609,33.7153524 C16.8820981,34.2608362 17.7975531,35.102172 18.4914834,36.2404009 L18.1200547,36.2404009 C17.4763006,36.2404009 16.9437252,36.4515157 16.5235778,36.8716631 C16.1023894,37.2928515 15.8923157,37.8256351 15.8923157,38.46814 C15.8923157,39.1123105 16.1023894,39.6448859 16.5235778,40.0648251 C16.9437252,40.4862217 17.4763006,40.6962955 18.1200547,40.6962955 C18.6644975,40.6962955 19.2085239,40.4733134 19.7540076,40.0279737 L19.7540076,39.9534382 C20.4964485,39.2109973 21.0165319,38.1468875 21.313425,36.7602761 C21.6105263,35.3747057 21.5478581,33.9753941 21.1279189,32.5644233 C20.7065222,31.1534525 19.9024542,29.8909282 18.7142573,28.7770587 C17.5260604,27.662981 15.8423477,27.0075677 13.6643684,26.8089449 C11.4364212,26.6117796 9.46851559,26.8462127 7.76044352,27.5145344 C6.05257964,28.1828562 4.61600025,29.1366199 3.45320374,30.3737438 C2.28936623,31.6117005 1.42263,33.0842985 0.854036039,34.7921624 C0.28419288,36.5002344 0,38.2709747 0,40.1020929 C0,43.172417 0.568593959,45.8575713 1.70807208,48.1596377 C2.8465092,50.4617041 4.34429936,52.3798499 6.20102618,53.9151161 C8.05754479,55.4489248 10.1741051,56.5886111 12.5504989,57.331052 C14.9268927,58.0737011 17.3403461,58.4322214 19.7910672,58.407862 C22.2417884,58.3824616 24.65545,57.949614 27.0318438,57.1082781 C29.4082376,56.2659013 31.5245897,55.0162854 33.3813165,53.3579731 C35.2378351,51.699869 36.7345843,49.6205765 37.8740624,47.1198873 C39.0124995,44.6204474 39.5821344,41.7116864 39.5821344,38.3940208 L39.5821344,37.5770444 L39.5821344,29.3337853 C39.6808212,28.9382054 39.9279545,28.505566 40.3247835,28.0344096 C40.7205716,27.5642942 41.3389253,27.1560142 42.1813021,26.8089449 C42.3299569,26.6604984 42.3299569,26.586171 42.1813021,26.586171 C41.3389253,26.1905912 40.7205716,25.7450434 40.3247835,25.2495276 C39.9279545,24.7550528 39.6808212,24.3097132 39.5821344,23.912676 L39.5821344,4.6787517 C39.5821344,4.38165043 39.6308532,4.02313018 39.730581,3.60194176 C39.8292677,3.18179433 40.0020737,2.7849653 40.2504562,2.41374486 C40.4975895,2.04231622 40.8190501,1.72085555 41.2158792,1.44832187 C41.6116672,1.17662098 42.1559018,1.03983364 42.8498321,1.03983364 L42.8498321,8.32799648e-05 L29.0368089,8.32799648e-05 L29.0368089,1.03983364 Z" id="Fill-168" fill="#FFFFFF"></path>
                    <path d="M57.2931388,20.1622877 C56.1293013,18.6028703 54.7553901,17.4773416 53.1716134,16.7834113 L55.9192276,3.26769762 L60.15214,24.8036883 C59.4096991,23.2698796 58.4557271,21.721705 57.2931388,20.1622877 M70.0291438,34.7922873 C69.7322507,34.4206504 69.5094768,34.0250706 69.3608221,33.6040904 C69.2123756,33.183943 69.1126478,32.8239653 69.063929,32.5270722 L66.9844283,21.9076275 C66.9346685,21.5116313 66.9844283,21.1160515 67.133083,20.7194306 C67.2315616,20.3736106 67.4299761,20.0265413 67.7270774,19.6796803 C68.0241787,19.3338602 68.4697265,19.0113586 69.063929,18.7142573 C69.2123756,18.7142573 69.2123756,18.6399299 69.063929,18.4914834 C68.4697265,18.2441419 67.9498513,17.9470406 67.5043035,17.6001796 C67.0587557,17.2543595 66.7116864,16.9074984 66.4645531,16.5606374 C66.1676601,16.1648494 65.9192776,15.7690613 65.721904,15.3722323 L63.1227363,2.00496515 C63.0230086,1.46093878 62.7515159,0.990823381 62.3059681,0.594202549 C61.8604203,0.198206316 61.3649045,0 60.8206699,0 L52.0577438,0 L52.0577438,1.03954216 C53.1460048,1.03954216 53.8145347,1.31228404 54.062709,1.85651861 C54.3098423,2.40179418 54.3841696,3.02035612 54.2854829,3.71303723 L51.7606426,16.4119827 C51.2651268,16.3135041 50.8693387,16.2633279 50.5724457,16.2633279 C49.0871475,16.2633279 47.9603696,16.6349648 47.1933611,17.3774056 C46.4253116,18.1200547 45.8438093,18.9126718 45.4482294,19.7537994 C45.0026816,20.744831 44.7799077,21.8832681 44.7799077,23.1699436 C44.977073,22.675677 45.3241423,22.2047288 45.8196581,21.7589728 C46.2152379,21.363393 46.7594725,21.0165319 47.4534028,20.7194306 C48.1460839,20.4223294 49.0615389,20.2736746 50.201017,20.2736746 C50.4981183,20.2736746 50.7452516,20.2992832 50.9436661,20.348002 L48.4186176,32.8985009 C48.2202031,33.5924312 47.873342,34.3092635 47.3790754,35.0521208 C46.8835596,35.7945617 46.0168234,36.1659903 44.7799077,36.1659903 L44.7799077,37.2055325 L52.6517382,37.2055325 L52.6517382,36.1659903 C51.4635413,36.1659903 50.6954918,35.8201702 50.3494636,35.1262399 C50.0026025,34.4335588 49.854156,33.7408777 49.9039157,33.0469474 L52.4289643,20.5707759 C53.8642945,21.0165319 55.1395189,21.7589728 56.2533885,22.7987232 C57.3674662,23.8382653 58.2956214,24.9279837 59.0382705,26.0662126 C59.9295743,27.3541372 60.6720152,28.765108 61.2662177,30.299125 L61.7117655,32.5270722 C61.7604843,32.8239653 61.7733927,33.183943 61.7488251,33.6040904 C61.7234247,34.0250706 61.624738,34.4206504 61.4519321,34.7922873 C61.2778769,35.1635077 60.9934758,35.4860094 60.597896,35.7575021 C60.201067,36.030244 59.6568324,36.1659903 58.9639431,36.1659903 L58.9639431,37.2055325 L72.7769663,37.2055325 L72.7769663,36.1659903 C72.083036,36.1659903 71.5261012,36.030244 71.1059538,35.7575021 C70.6847653,35.4860094 70.3262451,35.1635077 70.0291438,34.7922873" id="Fill-171" fill="#FFFFFF"></path>
                    <path d="M75.4134434,21.8331752 C75.6106087,24.0124037 76.0561565,26.0419365 76.7500868,27.9228145 C77.4427679,29.8049417 78.3338635,31.4386864 79.4235819,32.8240486 C80.5118428,34.21066 81.8243351,35.2876781 83.359393,36.0546866 C84.89341,36.8227361 86.6268824,37.2056157 88.5577284,37.2056157 C89.9932668,37.2056157 91.3055509,36.934123 92.4937478,36.3886393 C93.6819447,35.8446129 94.7087866,35.1263232 95.5757311,34.2350194 C96.4414263,33.3439238 97.1351484,32.3414412 97.6550236,31.2275717 C98.1748988,30.1134939 98.483451,28.9879652 98.583387,27.8486953 C98.6818655,27.0571192 98.3350045,26.6604984 97.5436366,26.6604984 C96.9494341,26.6604984 96.602573,26.9827919 96.5038863,27.6257132 C96.3054717,28.9623566 95.9342513,30.1391025 95.3900167,31.1532443 C94.8447412,32.1686353 94.2018198,33.0099711 93.4591707,33.6782928 C92.7165217,34.3466145 91.9112044,34.8548305 91.0457174,35.2004424 C90.1787729,35.5475116 89.3493045,35.7203176 88.5577284,35.7203176 C87.4184585,35.7203176 86.4657357,35.3003783 85.6987272,34.4580015 C84.9304696,33.6166657 84.324816,32.5154963 83.8792682,31.1532443 C83.4337204,29.7922415 83.1112187,28.2696755 82.9138452,26.5859628 C82.7154307,24.9034993 82.5913435,23.1954273 82.5426248,21.4619548 C82.6413115,21.1161347 82.839726,20.6705869 83.1368273,20.1253114 C83.4337204,19.5810768 84.0279229,19.1111696 84.9190186,18.7143406 C85.0676733,18.7143406 85.0676733,18.6400132 84.9190186,18.4913585 C84.0279229,18.0957786 83.4337204,17.6375306 83.1368273,17.1176554 C82.839726,16.5977803 82.6413115,16.1647244 82.5426248,15.8178634 C82.5913435,14.1353999 82.7154307,12.438987 82.9138452,10.7309149 C83.1112187,9.02305106 83.4337204,7.47612572 83.8794764,6.0895143 C84.3250242,4.70415209 84.9306778,3.59007436 85.6987272,2.74769752 C86.4657357,1.90636167 87.4184585,1.48538145 88.5579366,1.48538145 C89.6963737,1.48538145 90.9343304,1.78227453 92.2709739,2.37647707 C92.4196286,2.42623685 92.7038215,2.57468339 93.1250099,2.82181669 C93.5451573,3.07019918 94.0036135,3.41601923 94.4989211,3.86177525 C94.9931877,4.30711486 95.4887035,4.85239043 95.9842193,5.49531175 C96.4784859,6.13948228 96.8753149,6.90649076 97.1724162,7.79758638 L97.1724162,7.94603292 L97.2467435,7.94603292 C97.4439089,8.59020344 97.5436366,9.38261231 97.5436366,10.3224267 L98.6577143,10.3224267 L98.6577143,2.45059624 L97.5436366,2.45059624 C97.5436366,3.04479879 97.3697897,3.41601923 97.0239696,3.56467397 C95.9342513,2.42623685 94.6846354,1.54784142 93.2736646,0.928238487 C91.8626938,0.309676549 90.2903681,8.32799648e-05 88.5579366,8.32799648e-05 C86.6270906,8.32799648e-05 84.8936182,0.396704112 83.3596012,1.18828018 C81.8243351,1.98048084 80.512051,3.07019918 79.4235819,4.45576959 C78.3340717,5.84238101 77.4429761,7.47612572 76.7500868,9.35700372 C76.0561565,11.2391309 75.6106087,13.2686637 75.4134434,15.4466429 C75.3634754,15.843472 75.2393883,16.23926 75.0420147,16.6348398 C74.8436002,16.9817009 74.5837667,17.31607 74.2623061,17.6375306 C73.9398044,17.9598241 73.4825974,18.2442252 72.8886031,18.4913585 C72.7399483,18.6400132 72.7399483,18.7143406 72.8886031,18.7143406 C73.4825974,19.0112336 73.9398044,19.3337353 74.2623061,19.6795554 C74.5837667,20.0264164 74.8436002,20.3734857 75.0420147,20.7193057 C75.2393883,21.1161347 75.3634754,21.4875634 75.4134434,21.8331752" id="Fill-174" fill="#FFFFFF"></path>
                </g>
                <g id="Group-10">
                    <g id="Group-3">
                        <mask id="mask-6" fill="white">
                            <use xlink:href="#path-5"></use>
                        </mask>
                        <g id="Clip-2"></g>
                        <path d="M8,1.44900493 L7.62895523,1.44900493 C7.58254862,1.27324138 7.48203565,1.10535961 7.32762442,0.943980296 C7.20359599,0.827133005 7.02608551,0.713438424 6.79426056,0.603684729 C6.56222752,0.493931034 6.26089671,0.438955665 5.88985194,0.438955665 L5.14776239,0.438955665 L5.14776239,4.65471921 C5.1785614,4.75718227 5.23662168,4.88900493 5.32173515,5.0497931 C5.40664052,5.21117241 5.59601278,5.35008867 5.88985194,5.467133 C5.93625855,5.51087685 5.93625855,5.53294581 5.88985194,5.53294581 C5.59601278,5.65018719 5.40664052,5.79304433 5.32173515,5.96092611 C5.23662168,6.12939901 5.1785614,6.26496552 5.14776239,6.36723153 L5.14776239,9.61668966 C5.14776239,9.70457143 5.16295379,9.81097537 5.194169,9.9351133 C5.224968,10.0596453 5.27886626,10.1766897 5.35648808,10.2864433 C5.4336937,10.396197 5.53399856,10.4915665 5.65802699,10.5719606 C5.78143111,10.6525517 5.95144995,10.6925517 6.16808349,10.6925517 L6.16808349,11.0001379 L1.85518224,11.0001379 L1.85518224,10.6925517 C2.07139959,10.6925517 2.24537235,10.6525517 2.37689242,10.5719606 C2.5079963,10.4915665 2.60871737,10.396197 2.67822323,10.2864433 C2.74772909,10.1766897 2.79788153,10.0596453 2.82909674,9.9351133 C2.85968764,9.81097537 2.87550335,9.70457143 2.87550335,9.61668966 L2.87550335,6.36723153 C2.85968764,6.2795468 2.80578938,6.14772414 2.71318426,5.97196059 C2.62016294,5.79619704 2.43474461,5.65018719 2.15651305,5.53294581 C2.12529785,5.53294581 2.11010644,5.52565517 2.11010644,5.51087685 C2.11010644,5.49649261 2.12529785,5.48171429 2.15651305,5.467133 C2.43474461,5.35008867 2.62016294,5.20723153 2.71318426,5.03895567 C2.80578938,4.8706798 2.85968764,4.74240394 2.87550335,4.65471921 L2.87550335,0.438955665 L2.11010644,0.438955665 C1.72366217,0.438955665 1.41816933,0.493931034 1.19425224,0.603684729 C0.969918945,0.713438424 0.795946185,0.827133005 0.672542062,0.943980296 C0.517714631,1.10535961 0.417409762,1.27324138 0.371003153,1.44900493 L-4.16202774e-05,1.44900493 L0.463816371,-5.91133005e-05 L7.53614201,-5.91133005e-05 L8,1.44900493 Z" id="Fill-1" fill="#FFFFFF" mask="url(#mask-6)"></path>
                    </g>
                    <g id="Group-6" transform="translate(9.000000, 0.000000)">
                        <mask id="mask-8" fill="white">
                            <use xlink:href="#path-7"></use>
                        </mask>
                        <g id="Clip-5"></g>
                        <path d="M7.54776883,0.427980296 C7.43376401,0.508571429 7.3466369,0.603743842 7.28638752,0.713300493 C7.22613813,0.823251232 7.18248439,0.944039409 7.15578705,1.07566502 C7.12872895,1.20748768 7.11556067,1.31724138 7.11556067,1.40512315 L7.11556067,4.61083744 C7.11556067,4.64019704 7.12205461,4.69142857 7.13558367,4.76453202 C7.14893233,4.83783251 7.17905702,4.9146798 7.22613813,4.99507389 C7.27285846,5.07546798 7.3367156,5.15980296 7.41698798,5.24748768 C7.49744075,5.33517241 7.60441047,5.40866995 7.73879907,5.46699507 C7.76531602,5.48157635 7.77884507,5.49655172 7.77884507,5.51093596 C7.77884507,5.52571429 7.76531602,5.53280788 7.73879907,5.53280788 C7.47038265,5.66463054 7.2995558,5.82600985 7.22613813,6.01576355 C7.15235969,6.20630542 7.11556067,6.33793103 7.11556067,6.41103448 L7.11556067,9.61674877 C7.11556067,9.70463054 7.12872895,9.81083744 7.15578705,9.93517241 C7.18248439,10.0597044 7.22613813,10.1767488 7.28638752,10.2863054 C7.3466369,10.3962562 7.43376401,10.4914286 7.54776883,10.5718227 C7.66141288,10.6526108 7.81221674,10.6926108 8,10.6926108 L8,11 L4.26129112,11 L4.26129112,10.6926108 C4.43536495,10.6926108 4.57949446,10.6526108 4.69349929,10.5718227 C4.80714334,10.4914286 4.89769781,10.3962562 4.96480191,10.2863054 C5.03172563,10.1767488 5.07862635,10.0597044 5.10550407,9.93517241 C5.1322014,9.81083744 5.14573046,9.70463054 5.14573046,9.61674877 L5.14573046,5.73044335 L2.85426954,5.73044335 L2.85426954,9.61674877 C2.85426954,9.70463054 2.86761821,9.81083744 2.89449593,9.93517241 C2.92119326,10.0597044 2.96484701,10.1767488 3.02509639,10.2863054 C3.08552617,10.3962562 3.17247289,10.4914286 3.28629732,10.5718227 C3.40012176,10.6526108 3.55092561,10.6926108 3.73870888,10.6926108 L3.73870888,11 L0,11 L0,10.6926108 C0.187602877,10.6926108 0.338226341,10.6526108 0.452411554,10.5718227 C0.566055604,10.4914286 0.65318271,10.3962562 0.713612483,10.2863054 C0.773861868,10.1767488 0.81715484,10.0597044 0.844212947,9.93517241 C0.87091028,9.81083744 0.884439333,9.70463054 0.884439333,9.61674877 L0.884439333,6.41103448 C0.87091028,6.33793103 0.827256533,6.20630542 0.753838869,6.01576355 C0.68006043,5.82600985 0.509053192,5.66463054 0.241358317,5.53280788 C0.200951543,5.53280788 0.200951543,5.51093596 0.241358317,5.46699507 C0.509053192,5.34995074 0.68006043,5.19625616 0.753838869,5.00591133 C0.827256533,4.81596059 0.87091028,4.68413793 0.884439333,4.61083744 L0.884439333,1.40512315 C0.884439333,1.31724138 0.87091028,1.20748768 0.844212947,1.07566502 C0.81715484,0.944039409 0.773861868,0.823251232 0.713612483,0.713300493 C0.65318271,0.603743842 0.566055604,0.508571429 0.452411554,0.427980296 C0.338226341,0.347783251 0.187602877,0.307389163 0,0.307389163 L0,-0.000197044335 L3.73870888,-0.000197044335 L3.73870888,0.307389163 C3.55092561,0.307389163 3.40012176,0.347783251 3.28629732,0.427980296 C3.17247289,0.508571429 3.08552617,0.603743842 3.02509639,0.713300493 C2.96484701,0.823251232 2.92119326,0.944039409 2.89449593,1.07566502 C2.86761821,1.20748768 2.85426954,1.31724138 2.85426954,1.40512315 L2.85426954,5.29142857 L5.14573046,5.29142857 L5.14573046,1.40512315 C5.14573046,1.31724138 5.1322014,1.20748768 5.10550407,1.07566502 C5.07862635,0.944039409 5.03172563,0.823251232 4.96480191,0.713300493 C4.89769781,0.603743842 4.80714334,0.508571429 4.69349929,0.427980296 C4.57949446,0.347783251 4.43536495,0.307389163 4.26129112,0.307389163 L4.26129112,-0.000197044335 L8,-0.000197044335 L8,0.307389163 C7.81221674,0.307389163 7.66141288,0.347783251 7.54776883,0.427980296" id="Fill-4" fill="#FFFFFF" mask="url(#mask-8)"></path>
                    </g>
                    <g id="Group-9" transform="translate(19.000000, 0.000000)">
                        <mask id="mask-10" fill="white">
                            <use xlink:href="#path-9"></use>
                        </mask>
                        <g id="Clip-8"></g>
                        <path d="M7.00009321,9.55093336 L6.56388064,11 L0,11 L0,10.6926103 C0.193685836,10.6926103 0.349529301,10.6526102 0.467343977,10.5720189 C0.584785822,10.4914277 0.675010985,10.3962551 0.737273805,10.2863041 C0.799536624,10.1767473 0.84446279,10.0597027 0.872425134,9.93517051 C0.899828231,9.81083531 0.913995819,9.70462822 0.913995819,9.61674629 L0.913995819,6.36728234 C0.899828231,6.27940041 0.851546584,6.15151841 0.76859163,5.9830452 C0.685263845,5.81496608 0.512083727,5.66462098 0.249237693,5.53279809 C0.207667008,5.53279809 0.207667008,5.51092613 0.249237693,5.46698516 C0.512083727,5.35013766 0.685263845,5.20728026 0.76859163,5.0390041 C0.851546584,4.87072794 0.899828231,4.73535824 0.913995819,4.63269795 L0.913995819,1.40510597 C0.913995819,1.31722403 0.899828231,1.20747014 0.872425134,1.07564725 C0.84446279,0.944021395 0.799536624,0.823233002 0.737273805,0.713282066 C0.675010985,0.603725219 0.584785822,0.508552635 0.467343977,0.427961358 C0.349529301,0.34776417 0.193685836,0.307370009 0,0.307370009 L0,-0.000216749157 L5.98226388,-0.000216749157 L6.39778432,1.44904693 L6.06540525,1.44904693 C6.02383457,1.27328307 5.93360941,1.10540099 5.79528901,0.944021395 C5.6841853,0.827173896 5.52535918,0.713282066 5.31750576,0.603725219 C5.10983875,0.493971328 4.83972251,0.43899586 4.50734344,0.43899586 L2.94946805,0.43899586 L2.94946805,5.29141835 L4.2789843,5.29141835 C4.33416333,5.29141835 4.4173047,5.28038384 4.52822199,5.25851188 C4.63876646,5.23644288 4.74278638,5.19624576 4.83972251,5.13772349 C4.93647222,5.07939826 5.02315548,4.99506313 5.09939948,4.8851122 C5.17545705,4.77555535 5.21367225,4.63269795 5.21367225,4.45693409 L5.44221781,4.45693409 L5.44221781,6.54284916 L5.21367225,6.54284916 C5.21367225,6.35289808 5.17210157,6.20629683 5.08914662,6.10383359 C5.00600525,6.0015674 4.9124246,5.92077908 4.8085911,5.86225681 C4.70475759,5.80373453 4.60092409,5.76728127 4.49709058,5.75250292 C4.39325708,5.73792161 4.31328478,5.73043391 4.25829217,5.73043391 L2.94946805,5.73043391 L2.94946805,10.5609844 L5.08914662,10.5609844 C5.4349476,10.5609844 5.71214764,10.5097528 5.92000107,10.4072896 C6.12766807,10.3050234 6.2866806,10.1875848 6.39778432,10.0559589 C6.5359183,9.90975174 6.62614346,9.74127853 6.66771414,9.55093336 L7.00009321,9.55093336 Z" id="Fill-7" fill="#FFFFFF" mask="url(#mask-10)"></path>
                    </g>
                </g>
            </g>
        </g>
    </g>
</svg>