<?xml version="1.0" encoding="UTF-8"?>
<svg width="26px" height="18px" viewBox="0 0 26 18" version="1.1" xmlns="http://www.w3.org/2000/svg" xmlns:xlink="http://www.w3.org/1999/xlink">
    <title>41069807-759E-433D-9A6A-E7C95CA140CC</title>
    <g id="Page-1" stroke="none" stroke-width="1" fill="none" fill-rule="evenodd">
        <g id="Index" transform="translate(-904.000000, -925.000000)" fill="#FFFFFF">
            <g id="Group-7" transform="translate(813.000000, 925.000000)">
                <path d="M100.946708,0 L103.887885,10 L106.946708,0 L116.946708,0 L116.947411,3.08560151 C116.790823,3.03016732 116.622289,3 116.446708,3 C115.618281,3 114.946708,3.67157288 114.946708,4.5 L114.946708,4.5 L114.946708,14.5 C114.946708,15.3284271 115.618281,16 116.446708,16 C116.622289,16 116.790823,15.9698327 116.947411,15.9143985 L116.946708,18 L108.946708,18 L108.946708,4 L104.571708,18 L101.321708,18 L96.9467085,4 L96.9467085,18 L91.9467085,18 L91.9470133,15.9145394 C92.5294502,15.7085351 92.9467085,15.1529955 92.9467085,14.5 L92.9467085,14.5 L92.9467085,4.5 C92.9467085,3.8470045 92.5294502,3.29146488 91.9470133,3.08546063 L91.9467085,0 L100.946708,0 Z" id="Combined-Shape"></path>
            </g>
        </g>
    </g>
</svg>