<?xml version="1.0" encoding="UTF-8"?>
<svg width="18px" height="19px" viewBox="0 0 18 19" version="1.1" xmlns="http://www.w3.org/2000/svg" xmlns:xlink="http://www.w3.org/1999/xlink">
    <title>D22EE04D-4589-4EC5-8E66-6B29B7681128</title>
    <g id="Page-1" stroke="none" stroke-width="1" fill="none" fill-rule="evenodd">
        <g id="Index" transform="translate(-1002.000000, -925.000000)" fill="#FFFFFF">
            <g id="Group-7" transform="translate(813.000000, 925.000000)">
                <g id="tiktok" transform="translate(189.463950, 0.000000)">
                    <path d="M16.913224,4.17350586 C14.8726955,4.17350586 13.2125781,2.55097266 13.2125781,0.556640625 C13.2125781,0.249189453 12.9574646,0 12.6430435,0 L9.59276814,0 C9.2781952,0 9.02323355,0.249189453 9.02323355,0.556640625 L9.02323355,12.7792441 C9.02323355,13.9516777 8.04731704,14.9055 6.84757344,14.9055 C5.64801969,14.9055 4.67210319,13.9516777 4.67210319,12.7792441 C4.67210319,11.6066992 5.64801969,10.652877 6.84757344,10.652877 C7.16218435,10.652877 7.41710803,10.4036875 7.41710803,10.0962363 L7.41710803,7.11501758 C7.41710803,6.80771484 7.16218435,6.55837695 6.84757344,6.55837695 C3.33798739,6.55837695 0.482758621,9.34911328 0.482758621,12.7792441 C0.482758621,16.2094121 3.33798739,19 6.84757344,19 C10.3571975,19 13.2125781,16.2094121 13.2125781,12.7792441 L13.2125781,7.36899414 C14.3461798,7.95966406 15.6074331,8.26800586 16.913224,8.26800586 C17.227797,8.26800586 17.4827586,8.01881641 17.4827586,7.71136523 L17.4827586,4.73014648 C17.4827586,4.42284375 17.227797,4.17350586 16.913224,4.17350586 L16.913224,4.17350586 Z" id="Fill-1"></path>
                </g>
            </g>
        </g>
    </g>
</svg>