<?xml version="1.0" encoding="UTF-8"?>
<svg width="20px" height="17px" viewBox="0 0 20 17" version="1.1" xmlns="http://www.w3.org/2000/svg" xmlns:xlink="http://www.w3.org/1999/xlink">
    <title>E29CB154-B140-4885-B9F4-2A70B3A29985</title>
    <g id="Page-1" stroke="none" stroke-width="1" fill="none" fill-rule="evenodd">
        <g id="Index" transform="translate(-812.000000, -926.000000)" fill="#FFFFFF" fill-rule="nonzero">
            <g id="Group-7" transform="translate(813.000000, 925.000000)">
                <g id="icons8-twitter" transform="translate(0.000000, 1.727273)">
                    <path d="M18.9467085,1.16639662 C18.2477314,1.48801995 17.4965482,1.70443926 16.707661,1.80363125 C17.5110496,1.30165849 18.1317186,0.511126657 18.4217506,-0.432701615 C17.6676673,0.0301948571 16.832375,0.366847117 15.9448765,0.547196542 C15.2342982,-0.237323264 14.2220865,-0.727272727 13.0996623,-0.727272727 C10.9476241,-0.727272727 9.20163147,1.08223355 9.20163147,3.31255439 C9.20163147,3.62816646 9.23643532,3.93776573 9.30314288,4.23233684 C6.06348428,4.06401071 3.19216733,2.45288918 1.26925463,0.00915466797 C0.932817445,0.607313017 0.741396661,1.30165849 0.741396661,2.04409715 C0.741396661,3.44481063 1.42877244,4.68020439 2.47578797,5.40460772 C1.83481732,5.38356753 1.23445078,5.2032181 0.70949295,4.89962933 C0.70949295,4.91766466 0.70949295,4.93269358 0.70949295,4.95072891 C0.70949295,6.90751959 2.05234154,8.53968208 3.83603811,8.91240422 C3.50830208,9.00558495 3.16606463,9.05367813 2.80932502,9.05367813 C2.55699694,9.05367813 2.31337002,9.02963154 2.07554411,8.98153836 C2.57149836,10.5836422 4.01005735,11.7559139 5.71544582,11.7859717 C4.38419925,12.8710739 2.70201334,13.5143206 0.874811035,13.5143206 C0.558676282,13.5143206 0.251241934,13.4962852 -0.053291536,13.4602154 C1.66949923,14.6054348 3.72002529,15.2727273 5.92136876,15.2727273 C13.0909611,15.2727273 17.0121945,9.11680024 17.0121945,3.78146289 C17.0121945,3.60411987 17.0092943,3.42978171 17.0005932,3.25544432 C17.7633777,2.69034945 18.4246508,1.97796865 18.9467085,1.16639662" id="Path"></path>
                </g>
            </g>
        </g>
    </g>
</svg>