<svg width="1720" height="315" viewBox="0 0 1720 315" fill="none" xmlns="http://www.w3.org/2000/svg">
<path d="M1261.57 88.7623L1267.87 82.4619L1261.3 75.8894L1265.85 71.3391L1272.42 77.9117L1278.76 71.5725L1283.12 75.9283L1276.78 82.2675L1283.43 88.9178L1278.88 93.4681L1272.23 86.8177L1265.93 93.118L1261.57 88.7623Z" fill="#478ECC"/>
<path d="M1515.67 186.393L1535.58 181.985L1530.98 161.215L1545.36 158.031L1549.96 178.801L1569.99 174.365L1573.04 188.129L1553.01 192.565L1557.66 213.581L1543.28 216.765L1538.63 195.749L1518.72 200.158L1515.67 186.393Z" fill="#478ECC"/>
<path opacity="0.5" d="M4.59916 186.799L24.5089 182.39L19.9097 161.62L34.2889 158.436L38.8881 179.206L58.9207 174.77L61.9686 188.535L41.936 192.971L46.5896 213.986L32.2104 217.17L27.5568 196.155L7.64712 200.563L4.59916 186.799Z" fill="#15499F"/>
<path d="M197.797 228.739L201.382 234.947L207.858 231.208L210.446 235.691L203.97 239.43L207.576 245.676L203.284 248.154L199.678 241.908L193.126 245.691L190.537 241.208L197.09 237.425L193.506 231.217L197.797 228.739Z" fill="#15499F"/>
<path d="M1360.65 291.767L1365.9 290.605L1367.11 296.081L1370.9 295.241L1369.69 289.766L1374.97 288.596L1374.17 284.967L1368.89 286.137L1367.66 280.596L1363.87 281.436L1365.1 286.976L1359.85 288.138L1360.65 291.767Z" fill="#478ECC"/>
<path d="M688.708 179.843L695.009 173.543L688.436 166.97L692.986 162.42L699.559 168.993L705.898 162.653L710.254 167.009L703.915 173.348L710.565 179.999L706.015 184.549L699.364 177.899L693.064 184.199L688.708 179.843Z" fill="#478ECC"/>
<circle opacity="0.5" cx="130" cy="135" r="7" stroke="#15499F" stroke-width="6"/>
<circle cx="400" cy="40" r="7" stroke="#15499F" stroke-width="6"/>
<circle cx="810" cy="40" r="7" stroke="#478ECC" stroke-width="6"/>
<circle cx="1180" cy="82" r="7" stroke="#478ECC" stroke-width="6"/>
<circle cx="1665" cy="15" r="12" stroke="#478ECC" stroke-width="6"/>
<circle r="2.5" transform="matrix(-1 0 0 1 1095 265)" stroke="#478ECC"/>
<circle cx="1685" cy="280" r="27.5" stroke="#478ECC" stroke-width="15"/>
</svg>
