<svg width="46" height="13" viewBox="0 0 46 13" fill="none" xmlns="http://www.w3.org/2000/svg">
<rect width="43" height="13" rx="6.5" fill="#2B74B9"/>
<path d="M4.95546 3.7034C5.08538 3.28507 5.47243 2.99999 5.91047 2.99999H11.6075C12.2915 2.99999 12.7736 3.67133 12.5551 4.31949L10.8692 9.31949C10.7321 9.72616 10.3508 9.99999 9.92162 9.99999H4.35767C3.68377 9.99999 3.2028 9.34698 3.40267 8.7034L4.95546 3.7034Z" fill="white"/>
<path d="M17.9555 3.7034C18.0854 3.28507 18.4724 2.99999 18.9105 2.99999H24.6075C25.2915 2.99999 25.7736 3.67133 25.5551 4.31949L23.8692 9.31949C23.7321 9.72616 23.3508 9.99999 22.9216 9.99999H17.3577C16.6838 9.99999 16.2028 9.34698 16.4027 8.7034L17.9555 3.7034Z" fill="white"/>
<path d="M30.9555 3.7034C31.0854 3.28507 31.4724 2.99999 31.9105 2.99999H37.6075C38.2915 2.99999 38.7736 3.67133 38.5551 4.31949L36.8692 9.31949C36.7321 9.72616 36.3508 9.99999 35.9216 9.99999H30.3577C29.6838 9.99999 29.2028 9.34698 29.4027 8.7034L30.9555 3.7034Z" fill="white"/>
</svg>
