<svg width="129" height="25" xmlns="http://www.w3.org/2000/svg"><g id="Page-1" stroke="none" stroke-width="1" fill="none" fill-rule="evenodd"><g id="Desktop" transform="translate(-260 -40)" fill-rule="nonzero"><g id="logo" transform="translate(260 40)"><path d="M16.48 13.216l-1.548 1.503a.294.294 0 00-.09.2v3.704a.296.296 0 01-.295.287H2.42a.296.296 0 01-.294-.287V7.388c0-.154.136-.287.294-.287h12.253a.264.264 0 00.203-.089l1.549-1.514c.18-.177.056-.498-.204-.498H.294A.296.296 0 000 5.287v15.47c0 .132.136.243.294.243h16.412a.296.296 0 00.294-.287v-7.298a.306.306 0 00-.52-.2z" id="Path" fill="#303030"/><path d="M6.625 10.588l-1.542 1.527a.29.29 0 000 .407l4.438 4.396c.11.11.3.11.41 0l8.986-8.902a.29.29 0 000-.406l-1.542-1.528a.297.297 0 00-.41 0L9.93 13.05c-.11.11-.3.11-.41 0l-2.496-2.472c-.1-.099-.289-.099-.4.01z" id="Path" fill="#18B24B"/><g id="Group" transform="translate(24)" fill="#303030"><path d="M9.018 8.08h1.965c.157 0 .292.134.292.29v10.37c0 .156-.135.29-.292.29H9.018a.296.296 0 01-.292-.29v-.223a.288.288 0 00-.472-.224c-.91.704-1.875 1.06-2.909 1.06-1.527 0-2.785-.546-3.773-1.64C.584 16.596.09 15.201.09 13.527c0-1.64.494-3.014 1.482-4.107.988-1.094 2.224-1.641 3.706-1.641 1.09 0 2.078.38 2.976 1.127.19.156.483.023.483-.223v-.312a.273.273 0 01.28-.29zm-6.334 5.436c0 1.049.28 1.908.853 2.567.584.67 1.314 1.004 2.19 1.004.944 0 1.707-.324 2.28-.97.584-.67.876-1.519.876-2.546 0-1.026-.292-1.875-.876-2.544-.584-.648-1.336-.982-2.257-.982-.876 0-1.606.334-2.19.993-.584.67-.876 1.495-.876 2.478zm14.06 11.473H14.79a.296.296 0 01-.292-.29V8.37c0-.157.135-.29.292-.29h1.954c.157 0 .292.133.292.29v.245c0 .246.28.38.471.223.888-.714 1.865-1.071 2.943-1.071 1.516 0 2.762.558 3.74 1.663.999 1.105 1.493 2.489 1.493 4.174 0 1.64-.494 3.013-1.482 4.107-.977 1.083-2.213 1.63-3.706 1.63-1.09 0-2.09-.369-2.988-1.105a.287.287 0 00-.471.223v6.227a.285.285 0 01-.292.302zm6.345-11.373c0-1.049-.292-1.908-.865-2.567-.584-.67-1.314-1.004-2.19-1.004-.932 0-1.695.323-2.268.97-.584.648-.876 1.496-.876 2.545 0 1.027.292 1.875.876 2.545.573.647 1.325.982 2.257.982.887 0 1.606-.335 2.179-.993.595-.659.887-1.485.887-2.478zm7.546 11.373h-1.954a.296.296 0 01-.292-.29V8.37c0-.157.135-.29.292-.29h1.954c.158 0 .292.133.292.29v.245c0 .246.281.38.472.223.887-.714 1.864-1.071 2.942-1.071 1.516 0 2.763.558 3.74 1.663 1 1.105 1.493 2.489 1.493 4.174 0 1.64-.494 3.013-1.482 4.107-.977 1.083-2.212 1.63-3.706 1.63-1.09 0-2.089-.369-2.987-1.105a.287.287 0 00-.472.223v6.227a.285.285 0 01-.292.302zm6.345-11.373c0-1.049-.292-1.908-.864-2.567-.584-.67-1.314-1.004-2.19-1.004-.932 0-1.696.323-2.269.97-.584.648-.876 1.496-.876 2.545 0 1.027.292 1.875.876 2.545.573.647 1.325.982 2.257.982.888 0 1.606-.335 2.179-.993.595-.659.887-1.485.887-2.478z" id="Shape"/><path d="M42.573 8.08h1.954c.157 0 .292.134.292.29 0 .246.292.38.483.224.27-.246.527-.413.763-.536.37-.19.809-.279 1.314-.279.595 0 1.213.167 1.853.513a.304.304 0 01.124.391l-.899 1.775c-.078.145-.258.212-.404.122-.393-.234-.775-.346-1.157-.346-1.392 0-2.077 1.038-2.077 3.125v5.391c0 .156-.135.29-.292.29h-1.954a.296.296 0 01-.292-.29V8.37a.29.29 0 01.292-.29z" id="Path"/><path d="M50.22 13.471c0-1.585.573-2.924 1.707-4.04 1.134-1.105 2.527-1.663 4.167-1.663 1.64 0 3.043.558 4.188 1.674 1.135 1.116 1.696 2.489 1.696 4.118 0 1.64-.573 3.014-1.707 4.13-1.145 1.105-2.55 1.652-4.222 1.652-1.651 0-3.032-.559-4.155-1.686-1.112-1.105-1.674-2.5-1.674-4.185zm2.606.045c0 1.093.292 1.964.887 2.6.606.647 1.404.971 2.392.971 1 0 1.797-.324 2.392-.96.595-.636.898-1.484.898-2.556 0-1.06-.303-1.92-.898-2.555-.607-.648-1.404-.971-2.392-.971-.977 0-1.763.323-2.37.97-.606.648-.91 1.485-.91 2.5z" id="Shape"/><path d="M65.65 8.248l2.505 5.402a.292.292 0 00.527 0l2.493-5.402a.3.3 0 01.27-.168h2.201a.29.29 0 01.258.424L68.65 19.252c-.113.223-.427.223-.528 0L62.91 8.504a.29.29 0 01.269-.412h2.2a.273.273 0 01.27.156z" id="Path"/><path d="M85.19 14.152h-7.277a.294.294 0 00-.292.335c.113.747.393 1.35.843 1.819.516.524 1.19.792 1.999.792.628 0 1.156-.145 1.572-.446.37-.268.786-.748 1.246-1.44.09-.123.259-.167.382-.09l1.64.916c.146.078.19.268.1.413-.28.446-.583.848-.886 1.183a5.82 5.82 0 01-1.19.993 4.934 4.934 0 01-1.37.57 6.583 6.583 0 01-1.596.178c-1.64 0-2.964-.525-3.964-1.574-1-1.06-1.493-2.455-1.493-4.207 0-1.73.483-3.136 1.448-4.208.977-1.06 2.258-1.585 3.875-1.585s2.908.514 3.84 1.54c.932 1.016 1.404 2.434 1.404 4.242l-.011.312c.022.123-.101.257-.27.257zm-2.717-2.076c.202 0 .348-.201.27-.39-.416-1.083-1.225-1.63-2.449-1.63-.314 0-.595.044-.876.145a2.39 2.39 0 00-.741.402 2.592 2.592 0 00-.797 1.082.294.294 0 00.27.402h4.323v-.011z" id="Shape"/><path d="M90.805.335v18.404c0 .156-.134.29-.292.29H88.56a.296.296 0 01-.292-.29V.335c0-.156.135-.29.292-.29h1.954c.169 0 .292.122.292.29zm6.828 16.518l-4.638-8.349c-.112-.19.034-.435.258-.435h2.28c.112 0 .214.056.258.156l3.021 5.637a.29.29 0 00.517-.012l2.807-5.625a.274.274 0 01.259-.156h2.212c.225 0 .36.235.258.424l-8.478 16.328a.274.274 0 01-.259.157h-2.234a.289.289 0 01-.259-.424l3.998-7.422a.306.306 0 000-.28z" id="Path"/></g></g></g></g></svg>