<svg width="40" height="40" fill="none" xmlns="http://www.w3.org/2000/svg"><circle cx="20" cy="20" r="20" fill="#7C509A"/><path d="M26.254 10.546a30.984 30.984 0 00-11.581 0c-1.686.364-3.812 2.402-4.178 4.003a22.86 22.86 0 000 9.463c.44 1.601 2.565 3.64 4.178 4.003.073 0 .146.073.146.146v4.585c0 .219.294.364.44.146l2.2-2.257s1.758-1.82 2.052-2.11c0 0 .073-.073.146-.073 2.199.073 4.471-.146 6.67-.51 1.686-.364 3.812-2.402 4.178-4.003.66-3.13.66-6.333 0-9.463-.44-1.528-2.565-3.566-4.251-3.93zm.073 13.684c-.366.728-.806 1.31-1.539 1.674l-.66.219a9.295 9.295 0 01-.733-.219c-2.345-.946-4.544-2.256-6.303-4.149a17.504 17.504 0 01-2.42-3.64c-.292-.654-.586-1.236-.806-1.892-.22-.582.147-1.164.514-1.6.366-.438.806-.729 1.319-.947.366-.219.733-.073 1.026.218.586.728 1.173 1.456 1.613 2.257.293.51.22 1.091-.294 1.455-.146.073-.22.146-.366.292-.073.072-.22.145-.293.29-.147.22-.147.437-.074.656.587 1.674 1.686 2.984 3.372 3.712.293.146.513.218.88.218.513-.072.733-.655 1.1-.946.366-.291.806-.291 1.245-.073.367.219.733.51 1.173.801.367.291.733.51 1.1.8.22.146.293.51.146.874zm-3.078-5.459c-.147 0-.074 0 0 0-.293 0-.367-.146-.44-.364 0-.145 0-.364-.073-.51a1.382 1.382 0 00-.514-.8l-.44-.219c-.22-.072-.366-.072-.586-.072-.22-.073-.293-.219-.293-.437 0-.146.22-.291.367-.291 1.172.073 2.052.728 2.199 2.11v.292c0 .145-.074.291-.22.291zm-.733-3.203c-.367-.145-.733-.29-1.173-.364-.147 0-.367-.072-.513-.072-.22 0-.367-.146-.293-.364 0-.219.146-.364.366-.292.733.073 1.393.219 2.053.51 1.319.655 2.052 1.747 2.272 3.203v.946c-.074.291-.587.364-.66 0 0-.073-.073-.218-.073-.291a4.23 4.23 0 00-.44-1.893c-.44-.655-.953-1.091-1.54-1.383zm3.958 4.368c-.22 0-.367-.219-.367-.437 0-.437-.073-.874-.146-1.31-.293-2.33-2.2-4.222-4.471-4.586-.367-.073-.733-.073-1.027-.146-.22 0-.513 0-.586-.29-.073-.22.147-.437.367-.437h.146c3.005.072.147 0 0 0 3.079.072 5.644 2.11 6.157 5.168.073.51.147 1.019.147 1.6.146.22 0 .438-.22.438z" fill="#fff"/></svg>