<svg width="55.000000" height="55.000000" viewBox="0 0 55 55" fill="none" xmlns="http://www.w3.org/2000/svg" xmlns:xlink="http://www.w3.org/1999/xlink">
	
	<defs>
		<clipPath id="clip21_188">
			<rect id="fi_3381432" rx="0.000000" width="54.000000" height="54.000000" transform="translate(0.500000 0.500000)" fill="white" fill-opacity="0"/>
		</clipPath>
	</defs>
	<rect id="fi_3381432" rx="0.000000" width="54.000000" height="54.000000" transform="translate(0.500000 0.500000)" fill="#FFFFFF" fill-opacity="0"/>
	<g clip-path="url(#clip21_188)">
		<path id="Vector" d="M39.09 54.19L15.9 54.19L18.86 30.8L36.13 30.8L39.09 54.19Z" fill="#E8613B" fill-opacity="1.000000" fill-rule="nonzero"/>
		<path id="Vector" d="M21.86 44.85L19.12 44.85L19.12 42.33L23.31 42.33C23.54 42.33 23.73 42.51 23.73 42.74L23.73 42.99C23.73 44.02 22.89 44.85 21.86 44.85Z" fill="#FFDDCE" fill-opacity="1.000000" fill-rule="nonzero"/>
		<path id="Vector" d="M33.13 44.85L35.87 44.85L35.87 42.33L31.68 42.33C31.45 42.33 31.26 42.51 31.26 42.74L31.26 42.99C31.26 44.02 32.1 44.85 33.13 44.85Z" fill="#FFDDCE" fill-opacity="1.000000" fill-rule="nonzero"/>
		<path id="Vector" d="M40.54 48.71L51.56 48.71C52.63 48.71 53.49 47.84 53.49 46.78L53.49 34.65C53.49 33.59 52.63 32.73 51.56 32.73L43.39 32.73C42.5 32.73 41.72 33.34 41.52 34.21L38.66 46.34C38.37 47.55 39.29 48.71 40.54 48.71Z" fill="#6FE1D6" fill-opacity="1.000000" fill-rule="nonzero"/>
		<path id="Vector" d="M51.56 32.73L49.46 32.73C50.52 32.73 51.38 33.59 51.38 34.65L51.38 46.78C51.38 47.84 50.52 48.71 49.46 48.71L51.56 48.71C52.63 48.71 53.49 47.84 53.49 46.78L53.49 34.65C53.49 33.59 52.63 32.73 51.56 32.73Z" fill="#6FE1D6" fill-opacity="1.000000" fill-rule="nonzero"/>
		<path id="Vector" d="M45.7 36.22L45.7 41.83L35.87 41.83L35.87 45.16L47.36 45.16C48.28 45.16 49.03 44.41 49.03 43.49L49.03 36.22L45.7 36.22Z" fill="#6FE1D6" fill-opacity="1.000000" fill-rule="nonzero"/>
		<path id="Vector" d="M32.44 4.25L17.67 4.25C17.3 4.25 17 4.55 17 4.91L17 14.97C17 15.34 17.3 15.64 17.67 15.64L19.32 15.64C19.56 15.64 19.78 15.76 19.9 15.97L21.09 18.03C21.16 18.16 21.35 18.16 21.43 18.03L22.62 15.97C22.74 15.76 22.96 15.64 23.19 15.64L32.44 15.64C32.81 15.64 33.1 15.34 33.1 14.97L33.1 4.91C33.1 4.55 32.81 4.25 32.44 4.25Z" fill="#FFE07D" fill-opacity="1.000000" fill-rule="nonzero"/>
		<path id="Vector" d="M32.44 4.25L29.9 4.25C30.26 4.25 30.56 4.55 30.56 4.91L30.56 14.97C30.56 15.34 30.26 15.64 29.9 15.64L32.44 15.64C32.81 15.64 33.1 15.34 33.1 14.97L33.1 4.91C33.1 4.55 32.81 4.25 32.44 4.25Z" fill="#FFD064" fill-opacity="1.000000" fill-rule="nonzero"/>
		<path id="Vector" d="M10.46 24.32C10.9 24.32 11.26 23.96 11.26 23.51L11.26 23.15C11.26 22.7 10.9 22.34 10.46 22.34C10.01 22.34 9.65 22.7 9.65 23.15L9.65 23.51C9.65 23.96 10.01 24.32 10.46 24.32Z" fill="#0F1923" fill-opacity="1.000000" fill-rule="nonzero"/>
		<path id="Vector" d="M52.67 16.39L51.34 16.39C51 16.39 50.71 16.19 50.58 15.89C50.09 14.73 48.89 14.03 47.64 14.18L41.51 14.91C40.69 15.01 40.04 15.56 39.81 16.35C39.58 17.15 39.83 17.97 40.47 18.49L40.97 18.9L40.97 25.52C40.97 28.42 43.33 30.82 46.28 30.82L46.56 30.82L46.56 31.92L43.39 31.92C42.12 31.92 41.03 32.79 40.73 34.03L39.09 41.02L38.23 41.02L36.93 30.7C36.88 30.3 36.53 29.99 36.13 29.99L18.86 29.99C18.46 29.99 18.11 30.3 18.06 30.7L16.76 41.02L15.9 41.02L14.26 34.03C13.96 32.79 12.87 31.92 11.6 31.92L8.44 31.92L8.44 30.82L8.71 30.82C11.66 30.82 14.02 28.42 14.02 25.52L14.02 18.9L14.52 18.49C15.16 17.97 15.41 17.15 15.18 16.35C14.95 15.56 14.3 15.01 13.48 14.91L7.35 14.18C6.1 14.03 4.9 14.73 4.41 15.89C4.28 16.19 3.99 16.39 3.65 16.39L2.32 16.39C1.04 16.39 0 17.43 0 18.72L0 24.82C0 26.1 1.04 27.14 2.32 27.14L2.57 27.14L2.57 32.06C1.48 32.42 0.7 33.45 0.7 34.65L0.7 46.78C0.7 48.28 1.92 49.51 3.43 49.51L4.35 49.51C4.8 49.51 5.16 49.15 5.16 48.7C5.16 48.26 4.8 47.9 4.35 47.9L3.43 47.9C2.81 47.9 2.31 47.4 2.31 46.78L2.31 34.65C2.31 34.04 2.81 33.53 3.43 33.53L11.6 33.53C12.12 33.53 12.57 33.89 12.69 34.4L14.25 41.02L10.1 41.02L10.1 36.22C10.1 35.78 9.74 35.42 9.29 35.42C8.85 35.42 8.49 35.78 8.49 36.22L8.49 41.83C8.49 42.27 8.85 42.63 9.29 42.63L18.31 42.63L18.31 44.35L7.63 44.35C7.16 44.35 6.77 43.96 6.77 43.49L6.77 36.22C6.77 35.78 6.41 35.42 5.96 35.42C5.52 35.42 5.16 35.78 5.16 36.22L5.16 43.49C5.16 44.85 6.27 45.96 7.63 45.96L15.41 45.96L15.55 46.52C15.63 46.86 15.55 47.2 15.33 47.47C15.12 47.74 14.8 47.9 14.45 47.9L7.58 47.9C7.13 47.9 6.77 48.26 6.77 48.71C6.77 49.15 7.13 49.51 7.58 49.51L14.45 49.51C14.9 49.51 15.34 49.4 15.72 49.2L15.1 54.09C15.07 54.32 15.15 54.55 15.3 54.72C15.45 54.89 15.67 54.99 15.9 54.99L39.09 54.99C39.32 54.99 39.54 54.89 39.69 54.72C39.84 54.55 39.92 54.32 39.89 54.09L39.27 49.2C39.65 49.4 40.09 49.51 40.54 49.51L51.56 49.51C53.07 49.51 54.29 48.28 54.29 46.78L54.29 39.47C54.29 39.03 53.93 38.67 53.49 38.67C53.04 38.67 52.68 39.03 52.68 39.47L52.68 46.78C52.68 47.4 52.18 47.9 51.56 47.9L40.54 47.9C40.19 47.9 39.87 47.74 39.66 47.47C39.44 47.2 39.36 46.86 39.44 46.52L39.58 45.96L47.36 45.96C48.72 45.96 49.83 44.85 49.83 43.49L49.83 36.22C49.83 35.78 49.47 35.42 49.03 35.42C48.58 35.42 48.22 35.78 48.22 36.22L48.22 43.49C48.22 43.96 47.83 44.35 47.36 44.35L36.68 44.35L36.68 42.63L45.7 42.63C46.14 42.63 46.5 42.27 46.5 41.83L46.5 36.22C46.5 35.78 46.14 35.42 45.7 35.42C45.25 35.42 44.89 35.78 44.89 36.22L44.89 41.02L40.74 41.02L42.3 34.4C42.42 33.89 42.87 33.53 43.39 33.53L51.56 33.53C52.18 33.53 52.68 34.04 52.68 34.65L52.68 36.25C52.68 36.7 53.04 37.06 53.49 37.06C53.93 37.06 54.29 36.7 54.29 36.25L54.29 34.65C54.29 33.45 53.51 32.42 52.42 32.06L52.42 27.14L52.67 27.14C53.95 27.14 54.99 26.1 54.99 24.82L54.99 18.72C55 17.43 53.95 16.39 52.67 16.39ZM2.32 25.53C1.93 25.53 1.61 25.21 1.61 24.82L1.61 18.72C1.61 18.32 1.93 18 2.32 18L3.65 18C4.64 18 5.51 17.42 5.9 16.51C6.1 16.02 6.62 15.72 7.16 15.78L13.29 16.51C13.53 16.54 13.61 16.73 13.63 16.8C13.66 16.88 13.69 17.08 13.5 17.24L12.92 17.71L9.72 17.71C8.69 17.71 7.75 18.31 7.33 19.25L6.34 21.46C6.04 22.13 5.35 22.03 4.54 22.31C3.38 22.61 2.57 23.65 2.57 24.84L2.57 25.53L2.32 25.53ZM4.18 31.92L4.18 24.84C4.18 24.38 4.49 23.98 4.94 23.87C5.53 23.63 7.11 23.69 7.81 22.12C8.84 19.94 8.76 19.65 9.31 19.41C9.65 19.25 9.69 19.35 12.41 19.32L12.41 25.52C12.41 25.65 12.4 25.78 12.39 25.9C11.87 25.99 11.5 26 11.03 25.77C10.63 25.58 10.15 25.74 9.95 26.14C9.75 26.54 9.92 27.02 10.32 27.22C10.85 27.48 11.33 27.57 11.78 27.57C11.12 28.56 9.99 29.21 8.71 29.21L8.01 29.21C7.36 29.21 6.82 29.75 6.82 30.4L6.82 31.92L4.18 31.92ZM37.23 45.96L38.17 53.38L16.82 53.38L17.76 45.96L19.12 45.96C19.37 45.96 19.6 45.84 19.75 45.66L21.86 45.66C23.34 45.66 24.53 44.46 24.53 42.99L24.53 42.74C24.53 42.07 23.99 41.52 23.31 41.52L19.87 41.52C19.75 41.23 19.46 41.02 19.12 41.02L18.38 41.02L19.57 31.61L35.42 31.61L36.61 41.02L35.87 41.02C35.53 41.02 35.24 41.23 35.12 41.52L31.68 41.52C31 41.52 30.46 42.07 30.46 42.74L30.46 42.99C30.46 44.46 31.65 45.66 33.13 45.66L35.24 45.66C35.39 45.84 35.62 45.96 35.87 45.96L37.23 45.96ZM22.91 43.13C22.84 43.65 22.4 44.05 21.86 44.05L19.93 44.05L19.93 43.13L22.91 43.13ZM33.13 44.05C32.59 44.05 32.15 43.65 32.08 43.13L35.06 43.13L35.06 44.05L33.13 44.05ZM48.17 31.92L48.17 30.02C48.17 29.57 47.81 29.21 47.36 29.21L46.28 29.21C45 29.21 43.87 28.56 43.21 27.57C43.66 27.57 44.14 27.48 44.67 27.22C45.07 27.02 45.24 26.54 45.04 26.14C44.84 25.74 44.36 25.58 43.96 25.77C43.49 26 43.12 25.99 42.6 25.9C42.59 25.78 42.58 25.65 42.58 25.52L42.58 19.32L45.27 19.32C45.67 19.32 46.03 19.55 46.19 19.91L47.18 22.12C47.88 23.69 49.46 23.63 50.06 23.87C50.5 23.98 50.81 24.38 50.81 24.84L50.81 31.92L48.17 31.92ZM53.38 24.82C53.38 25.21 53.06 25.53 52.67 25.53L52.42 25.53L52.42 24.84C52.42 23.65 51.61 22.61 50.45 22.31C49.64 22.03 48.95 22.13 48.65 21.46L47.66 19.25C47.24 18.31 46.3 17.71 45.27 17.71L42.07 17.71L41.49 17.24C41.3 17.08 41.33 16.88 41.36 16.8C41.38 16.73 41.46 16.54 41.7 16.51L47.83 15.78C48.37 15.72 48.89 16.02 49.09 16.51C49.48 17.42 50.35 18 51.34 18L52.67 18C53.06 18 53.38 18.32 53.38 18.72L53.38 24.82Z" fill="#0F1923" fill-opacity="1.000000" fill-rule="nonzero"/>
		<path id="Vector" d="M44.53 22.34C44.09 22.34 43.73 22.7 43.73 23.15L43.73 23.51C43.73 23.96 44.09 24.32 44.53 24.32C44.98 24.32 45.34 23.96 45.34 23.51L45.34 23.15C45.34 22.7 44.98 22.34 44.53 22.34Z" fill="#0F1923" fill-opacity="1.000000" fill-rule="nonzero"/>
		<path id="Vector" d="M20.6 11.16C21.05 11.16 21.41 10.8 21.41 10.35L21.41 9.53C21.41 9.09 21.05 8.73 20.6 8.73C20.16 8.73 19.8 9.09 19.8 9.53L19.8 10.35C19.8 10.8 20.16 11.16 20.6 11.16Z" fill="#0F1923" fill-opacity="1.000000" fill-rule="nonzero"/>
		<path id="Vector" d="M25.05 11.16C25.5 11.16 25.86 10.8 25.86 10.35L25.86 9.53C25.86 9.09 25.5 8.73 25.05 8.73C24.61 8.73 24.25 9.09 24.25 9.53L24.25 10.35C24.25 10.8 24.61 11.16 25.05 11.16Z" fill="#0F1923" fill-opacity="1.000000" fill-rule="nonzero"/>
		<path id="Vector" d="M29.5 11.16C29.95 11.16 30.31 10.8 30.31 10.35L30.31 9.53C30.31 9.09 29.95 8.73 29.5 8.73C29.06 8.73 28.7 9.09 28.7 9.53L28.7 10.35C28.7 10.8 29.06 11.16 29.5 11.16Z" fill="#0F1923" fill-opacity="1.000000" fill-rule="nonzero"/>
		<path id="Vector" d="M17.67 16.44L19.24 16.44L20.39 18.44C20.57 18.75 20.9 18.94 21.26 18.94C21.61 18.94 21.95 18.75 22.12 18.44L23.27 16.44L32.44 16.44C33.25 16.44 33.91 15.78 33.91 14.97L33.91 13L35.93 13L37.13 15.08C37.31 15.39 37.64 15.58 38 15.58C38.36 15.58 38.69 15.39 38.86 15.08L40.07 13L41.84 13C42.65 13 43.3 12.34 43.3 11.53L43.3 1.47C43.3 0.66 42.65 0 41.84 0L32.34 0C31.89 0 31.53 0.36 31.53 0.8C31.53 1.25 31.89 1.61 32.34 1.61L41.69 1.61L41.69 11.39L39.99 11.39C39.46 11.39 38.97 11.67 38.71 12.12L38 13.35L37.29 12.12C37.03 11.67 36.54 11.39 36.01 11.39L33.91 11.39L33.91 4.91C33.91 4.1 33.25 3.44 32.44 3.44L27.2 3.44L27.2 1.61L29.12 1.61C29.56 1.61 29.92 1.25 29.92 0.8C29.92 0.36 29.56 0 29.12 0L27.06 0C26.25 0 25.59 0.66 25.59 1.47L25.59 3.44L17.67 3.44C16.86 3.44 16.2 4.1 16.2 4.91L16.2 14.97C16.2 15.78 16.86 16.44 17.67 16.44ZM17.81 5.05L32.3 5.05L32.3 14.83L23.19 14.83C22.67 14.83 22.18 15.11 21.92 15.57L21.26 16.71L20.6 15.57C20.33 15.11 19.85 14.83 19.32 14.83L17.81 14.83L17.81 5.05Z" fill="#0F1923" fill-opacity="1.000000" fill-rule="nonzero"/>
	</g>
</svg>
