<svg width="55.000000" height="55.000000" viewBox="0 0 55 55" fill="none" xmlns="http://www.w3.org/2000/svg" xmlns:xlink="http://www.w3.org/1999/xlink">
	
	<defs>
		<clipPath id="clip21_166">
			<rect id="fi_8090816" rx="0.000000" width="54.000000" height="54.000000" transform="translate(0.500000 0.500000)" fill="white" fill-opacity="0"/>
		</clipPath>
	</defs>
	<rect id="fi_8090816" rx="0.000000" width="54.000000" height="54.000000" transform="translate(0.500000 0.500000)" fill="#FFFFFF" fill-opacity="0"/>
	<g clip-path="url(#clip21_166)">
		<path id="Vector" d="M48.57 38.07C48.29 38.07 48.01 38 47.75 37.85C46.96 37.39 46.7 36.38 47.15 35.6C49 32.41 49.98 28.78 49.98 25.07C49.98 13.51 40.57 4.09 29 4.09C17.43 4.09 8.02 13.51 8.02 25.07C8.02 28.78 9 32.41 10.84 35.6C11.3 36.38 11.03 37.39 10.25 37.85C9.46 38.3 8.45 38.04 8 37.25C5.86 33.57 4.72 29.36 4.72 25.07C4.72 18.59 7.25 12.49 11.83 7.91C16.42 3.33 22.51 0.8 29 0.8C35.48 0.8 41.58 3.33 46.16 7.91C50.75 12.49 53.27 18.59 53.27 25.07C53.27 29.36 52.14 33.57 50 37.25C49.69 37.78 49.14 38.07 48.57 38.07Z" fill="#FFFFFF" fill-opacity="1.000000" fill-rule="nonzero"/>
		<path id="Vector" d="M38.98 52.24L33.48 52.24C32.56 52.24 31.82 51.5 31.82 50.58C31.82 49.66 32.56 48.92 33.48 48.92L38.98 48.92C40.49 48.92 41.83 48.02 42.39 46.61L44.88 40.43C45.22 39.58 46.18 39.16 47.03 39.5C47.88 39.85 48.29 40.81 47.95 41.66L45.47 47.85C44.4 50.51 41.85 52.24 38.98 52.24Z" fill="#FFFFFF" fill-opacity="1.000000" fill-rule="nonzero"/>
		<path id="Vector" d="M47.13 27.76L50.76 30.42C51.8 31.18 52.21 32.55 51.77 33.76L49.34 40.43C48.9 41.65 47.71 42.42 46.42 42.34L41.93 42.05L47.13 27.76Z" fill="#EEB756" fill-opacity="1.000000" fill-rule="nonzero"/>
		<path id="Vector" d="M43.39 38.04L41.93 42.05L46.42 42.34C47.71 42.42 48.9 41.65 49.34 40.43L50.8 36.42C50.36 37.64 49.17 38.42 47.88 38.33L43.39 38.04Z" fill="#EEB756" fill-opacity="1.000000" fill-rule="nonzero"/>
		<path id="Vector" d="M45.89 25C47.27 25.5 47.98 27.02 47.48 28.4L42.61 41.78C42.11 43.16 40.59 43.87 39.21 43.36C37.83 42.86 37.12 41.34 37.62 39.96L42.49 26.59C42.99 25.21 44.51 24.5 45.89 25Z" fill="#EEB756" fill-opacity="1.000000" fill-rule="nonzero"/>
		<path id="Vector" d="M39.64 34.41L37.62 39.96C37.37 40.65 37.42 41.38 37.71 41.99C38 42.61 38.52 43.11 39.21 43.36C40.59 43.87 42.11 43.16 42.61 41.78L44.63 36.22C44.13 37.6 42.61 38.31 41.23 37.81C40.54 37.56 40.02 37.05 39.73 36.43C39.45 35.82 39.39 35.09 39.64 34.41Z" fill="#EEB756" fill-opacity="1.000000" fill-rule="nonzero"/>
		<path id="Vector" d="M35.43 50.58C35.43 52.57 33.81 54.19 31.82 54.19C29.83 54.19 28.21 52.57 28.21 50.58C28.21 48.59 29.83 46.97 31.82 46.97C33.81 46.97 35.43 48.59 35.43 50.58Z" fill="#EEB756" fill-opacity="1.000000" fill-rule="evenodd"/>
		<path id="Vector" d="M33.38 53.83C32.91 54.06 32.38 54.19 31.82 54.19C29.83 54.19 28.21 52.57 28.21 50.58C28.21 48.59 29.83 46.97 31.82 46.97C32.38 46.97 32.91 47.1 33.38 47.33C32.17 47.91 31.34 49.15 31.34 50.58C31.34 52.01 32.17 53.25 33.38 53.83Z" fill="#EEB756" fill-opacity="1.000000" fill-rule="nonzero"/>
		<path id="Vector" d="M6.82 19.24L29.64 19.24C32.46 19.24 34.74 21.52 34.74 24.34L34.74 38.18C34.74 41 32.46 43.28 29.64 43.28L24.87 43.28L24.87 48.32C24.87 49.59 23.38 50.28 22.41 49.45L15.2 43.28L6.82 43.28C4 43.28 1.72 41 1.72 38.18L1.72 24.34C1.72 21.52 4 19.24 6.82 19.24Z" fill="#6FE1D6" fill-opacity="1.000000" fill-rule="nonzero"/>
		<path id="Vector" d="M10.52 43.28L6.82 43.28C4 43.28 1.72 41 1.72 38.18L1.72 24.34C1.72 21.52 4 19.24 6.82 19.24L10.52 19.24C7.7 19.24 5.42 21.52 5.42 24.34L5.42 38.18C5.42 41 7.7 43.28 10.52 43.28Z" fill="#6FE1D6" fill-opacity="1.000000" fill-rule="nonzero"/>
		<path id="Vector" d="M7.03 29.14L29.43 29.14C29.88 29.14 30.24 28.78 30.24 28.33C30.24 27.89 29.88 27.53 29.43 27.53L7.03 27.53C6.58 27.53 6.22 27.89 6.22 28.33C6.22 28.78 6.58 29.14 7.03 29.14Z" fill="#0F1923" fill-opacity="1.000000" fill-rule="nonzero"/>
		<path id="Vector" d="M7.03 33.07L29.43 33.07C29.88 33.07 30.24 32.71 30.24 32.26C30.24 31.82 29.88 31.46 29.43 31.46L7.03 31.46C6.58 31.46 6.22 31.82 6.22 32.26C6.22 32.71 6.58 33.07 7.03 33.07Z" fill="#0F1923" fill-opacity="1.000000" fill-rule="nonzero"/>
		<path id="Vector" d="M7.03 37L25.77 37C26.21 37 26.57 36.64 26.57 36.2C26.57 35.75 26.21 35.39 25.77 35.39L7.03 35.39C6.58 35.39 6.22 35.75 6.22 36.2C6.22 36.64 6.58 37 7.03 37Z" fill="#0F1923" fill-opacity="1.000000" fill-rule="nonzero"/>
		<path id="Vector" d="M54.08 25.07C54.08 18.38 51.47 12.08 46.73 7.34C41.99 2.6 35.7 0 29 0C22.3 0 16 2.6 11.26 7.34C8.07 10.54 5.8 14.5 4.7 18.83C2.49 19.68 0.91 21.83 0.91 24.34L0.91 38.18C0.91 41.44 3.56 44.09 6.82 44.09L8.6 44.09C9.04 44.09 9.41 43.73 9.41 43.28C9.41 42.84 9.04 42.47 8.6 42.47L6.82 42.47C4.45 42.47 2.53 40.55 2.53 38.18L2.53 24.34C2.53 21.97 4.45 20.04 6.82 20.04L29.64 20.04C32.01 20.04 33.94 21.97 33.94 24.34L33.94 38.18C33.94 40.55 32.01 42.47 29.64 42.47L24.87 42.47C24.43 42.47 24.06 42.84 24.06 43.28L24.06 48.32C24.06 48.73 23.76 48.9 23.67 48.94C23.57 48.98 23.25 49.1 22.94 48.84L15.72 42.67C15.58 42.54 15.39 42.47 15.2 42.47L12.44 42.47C12 42.47 11.64 42.84 11.64 43.28C11.64 43.73 12 44.09 12.44 44.09L14.9 44.09L21.89 50.06C22.32 50.43 22.84 50.62 23.38 50.62C23.7 50.62 24.03 50.55 24.34 50.4C25.16 50.03 25.68 49.23 25.68 48.32L25.68 44.09L29.64 44.09C32.9 44.09 35.55 41.44 35.55 38.18L35.55 24.34C35.55 21.08 32.9 18.43 29.64 18.43L9.95 18.43C11.25 14.74 13.64 11.43 16.78 9.03C20.32 6.33 24.54 4.9 29 4.9C40.12 4.9 49.17 13.95 49.17 25.07C49.17 26.08 49.09 27.09 48.94 28.09L48.44 27.71C48.53 26.22 47.64 24.78 46.17 24.24C45.3 23.93 44.36 23.97 43.52 24.36C42.68 24.75 42.05 25.44 41.73 26.31L36.86 39.69C36.21 41.48 37.14 43.47 38.93 44.12C39.32 44.26 39.72 44.33 40.12 44.33C40.62 44.33 41.11 44.22 41.58 44.01C42.11 43.76 42.57 43.38 42.91 42.92L43 42.93L41.65 46.31C41.21 47.41 40.16 48.12 38.98 48.12L35.48 48.12C34.69 46.94 33.34 46.16 31.82 46.16C29.38 46.16 27.4 48.15 27.4 50.58C27.4 53.01 29.38 55 31.82 55C33.34 55 34.69 54.22 35.48 53.04L38.98 53.04C42.18 53.04 45.02 51.12 46.22 48.15L48.42 42.67C49.18 42.25 49.79 41.56 50.1 40.71L50.9 38.5C51.05 38.09 50.84 37.62 50.42 37.47C50 37.32 49.54 37.54 49.39 37.95L48.59 40.16C48.27 41.03 47.4 41.6 46.47 41.54L43.62 41.35L47.98 29.38L50.28 31.07C51.03 31.62 51.33 32.61 51.01 33.49L50.7 34.34C50.55 34.76 50.76 35.22 51.18 35.37C51.27 35.41 51.37 35.42 51.46 35.42C51.79 35.42 52.1 35.22 52.22 34.89L52.53 34.04C52.63 33.76 52.69 33.49 52.72 33.21C53.62 30.59 54.08 27.85 54.08 25.07ZM31.82 53.38C30.27 53.38 29.02 52.13 29.02 50.58C29.02 49.03 30.27 47.78 31.82 47.78C33.36 47.78 34.62 49.03 34.62 50.58C34.62 52.13 33.36 53.38 31.82 53.38ZM46.49 43.15L44.72 47.55C43.78 49.91 41.52 51.43 38.98 51.43L36.15 51.43C36.21 51.16 36.23 50.87 36.23 50.58C36.23 50.29 36.21 50 36.15 49.73L38.98 49.73C40.82 49.73 42.45 48.62 43.14 46.91L44.7 43.04L46.37 43.14C46.41 43.15 46.45 43.15 46.49 43.15ZM46.72 28.13L41.85 41.5C41.69 41.97 41.35 42.34 40.9 42.55C40.45 42.75 39.95 42.78 39.48 42.61C38.53 42.26 38.03 41.2 38.38 40.24L43.25 26.86C43.42 26.4 43.75 26.03 44.2 25.82C44.45 25.7 44.72 25.64 44.98 25.64C45.2 25.64 45.41 25.68 45.62 25.76C46.58 26.11 47.07 27.17 46.72 28.13ZM50.4 29.15C50.65 27.81 50.78 26.44 50.78 25.07C50.78 13.06 41.01 3.29 29 3.29C24.19 3.29 19.63 4.83 15.8 7.75C12.27 10.45 9.6 14.23 8.25 18.43L6.82 18.43C6.7 18.43 6.59 18.44 6.48 18.44C7.57 14.7 9.61 11.28 12.4 8.48C16.84 4.05 22.73 1.61 29 1.61C35.27 1.61 41.16 4.05 45.59 8.48C50.02 12.91 52.46 18.81 52.46 25.07C52.46 26.86 52.26 28.63 51.86 30.36C51.68 30.14 51.47 29.94 51.23 29.77L50.4 29.15Z" fill="#0F1923" fill-opacity="1.000000" fill-rule="nonzero"/>
	</g>
</svg>
