<svg width="55.000000" height="55.000000" viewBox="0 0 55 55" fill="none" xmlns="http://www.w3.org/2000/svg" xmlns:xlink="http://www.w3.org/1999/xlink">
	
	<defs>
		<clipPath id="clip14_35">
			<rect id="fi_16257756" rx="0.000000" width="54.000000" height="54.000000" transform="translate(0.500000 0.500000)" fill="white" fill-opacity="0"/>
		</clipPath>
	</defs>
	<rect id="fi_16257756" rx="0.000000" width="54.000000" height="54.000000" transform="translate(0.500000 0.500000)" fill="#FFFFFF" fill-opacity="0"/>
	<g clip-path="url(#clip14_35)">
		<path id="Vector" d="M27.5 1.94L4.01 18.79L50.98 18.79L27.5 1.94Z" fill="#4995F4" fill-opacity="1.000000" fill-rule="nonzero"/>
		<path id="Vector" d="M54.42 19.93L0.57 19.93L27.5 0.57L54.42 19.93ZM7.56 17.64L47.43 17.64L27.5 3.32L7.56 17.64Z" fill="#00204D" fill-opacity="1.000000" fill-rule="nonzero"/>
		<path id="Vector" d="M30.36 11.45C30.36 13.04 29.08 14.32 27.5 14.32C25.91 14.32 24.63 13.04 24.63 11.45C24.63 9.87 25.91 8.59 27.5 8.59C29.08 8.59 30.36 9.87 30.36 11.45Z" fill="#FFFFFF" fill-opacity="1.000000" fill-rule="evenodd"/>
		<path id="Vector" d="M27.5 15.46C25.32 15.46 23.48 13.63 23.48 11.45C23.48 9.28 25.32 7.44 27.5 7.44C29.67 7.44 31.51 9.28 31.51 11.45C31.51 13.63 29.67 15.46 27.5 15.46ZM27.5 9.73C26.58 9.73 25.78 10.54 25.78 11.45C25.78 12.37 26.58 13.17 27.5 13.17C28.41 13.17 29.21 12.37 29.21 11.45C29.21 10.54 28.41 9.73 27.5 9.73Z" fill="#00204D" fill-opacity="1.000000" fill-rule="nonzero"/>
		<path id="Vector" d="M35.4 41.93L45.03 41.93L45.03 47.09L35.4 47.09L35.4 41.93Z" fill="#FFFFFF" fill-opacity="1.000000" fill-rule="nonzero"/>
		<path id="Vector" d="M46.06 48.23L34.37 48.23L34.37 40.79L46.06 40.79L46.06 48.23ZM36.43 45.94L44 45.94L44 43.08L36.43 43.08L36.43 45.94Z" fill="#00204D" fill-opacity="1.000000" fill-rule="nonzero"/>
		<path id="Vector" d="M37.23 23.94L43.19 23.94L43.19 41.93L37.23 41.93L37.23 23.94Z" fill="#4995F4" fill-opacity="1.000000" fill-rule="nonzero"/>
		<path id="Vector" d="M44.22 43.08L36.09 43.08L36.09 22.8L44.22 22.8L44.22 43.08ZM38.27 40.79L42.16 40.79L42.16 25.09L38.27 25.09L38.27 40.79Z" fill="#00204D" fill-opacity="1.000000" fill-rule="nonzero"/>
		<path id="Vector" d="M35.4 18.79L45.03 18.79L45.03 23.94L35.4 23.94L35.4 18.79Z" fill="#FFFFFF" fill-opacity="1.000000" fill-rule="nonzero"/>
		<path id="Vector" d="M46.06 25.09L34.37 25.09L34.37 17.64L46.06 17.64L46.06 25.09ZM36.43 22.8L44 22.8L44 19.93L36.43 19.93L36.43 22.8Z" fill="#00204D" fill-opacity="1.000000" fill-rule="nonzero"/>
		<path id="Vector" d="M9.96 41.93L19.59 41.93L19.59 47.09L9.96 47.09L9.96 41.93Z" fill="#FFFFFF" fill-opacity="1.000000" fill-rule="nonzero"/>
		<path id="Vector" d="M20.62 48.23L8.93 48.23L8.93 40.79L20.62 40.79L20.62 48.23ZM11 45.94L18.56 45.94L18.56 43.08L11 43.08L11 45.94Z" fill="#00204D" fill-opacity="1.000000" fill-rule="nonzero"/>
		<path id="Vector" d="M11.8 23.94L17.76 23.94L17.76 41.93L11.8 41.93L11.8 23.94Z" fill="#4995F4" fill-opacity="1.000000" fill-rule="nonzero"/>
		<path id="Vector" d="M18.79 43.08L10.77 43.08L10.77 22.8L18.9 22.8L18.9 43.08L18.79 43.08ZM12.83 40.79L16.72 40.79L16.72 25.09L12.83 25.09L12.83 40.79Z" fill="#00204D" fill-opacity="1.000000" fill-rule="nonzero"/>
		<path id="Vector" d="M9.96 18.79L19.59 18.79L19.59 23.94L9.96 23.94L9.96 18.79Z" fill="#FFFFFF" fill-opacity="1.000000" fill-rule="nonzero"/>
		<path id="Vector" d="M20.62 25.09L8.93 25.09L8.93 17.64L20.62 17.64L20.62 25.09ZM11 22.8L18.56 22.8L18.56 19.93L11 19.93L11 22.8Z" fill="#00204D" fill-opacity="1.000000" fill-rule="nonzero"/>
		<path id="Vector" d="M1.6 47.09L53.39 47.09L53.39 53.28L1.6 53.28L1.6 47.09Z" fill="#4995F4" fill-opacity="1.000000" fill-rule="nonzero"/>
		<path id="Vector" d="M54.42 54.42L0.57 54.42L0.57 45.94L54.42 45.94L54.42 54.42ZM2.63 52.13L52.36 52.13L52.36 48.23L2.63 48.23L2.63 52.13Z" fill="#00204D" fill-opacity="1.000000" fill-rule="nonzero"/>
	</g>
</svg>
