<svg width="53.000000" height="53.000000" viewBox="0 0 53 53" fill="none" xmlns="http://www.w3.org/2000/svg" xmlns:xlink="http://www.w3.org/1999/xlink">
	
	<defs>
		<clipPath id="clip1_541">
			<rect id="crunchbase-svgrepo-com 1" rx="0.000000" width="52.000000" height="52.000000" transform="translate(0.500000 0.500000)" fill="white" fill-opacity="0"/>
		</clipPath>
	</defs>
	<rect id="crunchbase-svgrepo-com 1" rx="0.000000" width="52.000000" height="52.000000" transform="translate(0.500000 0.500000)" fill="#FFFFFF" fill-opacity="0"/>
	<g clip-path="url(#clip1_541)">
		<path id="Vector" d="M47.7 0L5.3 0C3.89 0 2.55 0.56 1.55 1.55C0.56 2.55 0 3.89 0 5.29L0 47.7C0 49.1 0.56 50.44 1.55 51.44C2.55 52.43 3.89 52.99 5.3 53L47.7 53C49.1 52.99 50.44 52.43 51.44 51.44C52.43 50.44 52.99 49.1 53 47.7L53 5.29C52.99 3.89 52.43 2.55 51.44 1.55C50.44 0.56 49.1 0 47.7 0ZM15.55 31.94C16.68 32.45 17.96 32.5 19.12 32.06C20.27 31.63 21.21 30.76 21.73 29.63L25.39 29.63C24.92 31.57 23.75 33.26 22.11 34.4C20.48 35.53 18.48 36.03 16.5 35.79C14.52 35.55 12.7 34.6 11.38 33.11C10.06 31.61 9.33 29.69 9.33 27.7C9.33 25.71 10.06 23.78 11.38 22.29C12.7 20.8 14.52 19.85 16.5 19.61C18.48 19.37 20.48 19.87 22.11 21C23.75 22.13 24.92 23.83 25.39 25.77L21.73 25.77C21.41 25.08 20.94 24.48 20.35 24.02C19.75 23.56 19.05 23.25 18.31 23.11C17.57 22.98 16.81 23.03 16.09 23.25C15.38 23.48 14.72 23.87 14.19 24.4C13.66 24.94 13.26 25.59 13.04 26.31C12.81 27.03 12.77 27.79 12.9 28.53C13.03 29.27 13.34 29.97 13.81 30.56C14.27 31.15 14.87 31.63 15.55 31.94ZM40.61 33.8C39.91 34.4 39.12 34.87 38.27 35.2C37.04 35.67 35.72 35.84 34.42 35.7C33.12 35.55 31.87 35.09 30.78 34.36L30.78 35.2L27.44 35.2L27.44 11.85L30.76 11.85L30.76 20.93C31.94 20.13 33.31 19.65 34.73 19.54L35.33 19.54C36.99 19.54 38.61 20.04 39.97 20.99C41.33 21.93 42.37 23.28 42.94 24.83C43.52 26.39 43.6 28.08 43.18 29.68C42.77 31.29 41.87 32.73 40.61 33.8ZM40.11 27.7C40.13 28.31 40.02 28.93 39.79 29.51C39.56 30.08 39.22 30.6 38.79 31.05C38.36 31.49 37.84 31.84 37.27 32.08C36.7 32.32 36.09 32.44 35.47 32.44C34.85 32.44 34.24 32.32 33.67 32.08C33.1 31.84 32.58 31.49 32.15 31.05C31.71 30.6 31.37 30.08 31.15 29.51C30.92 28.93 30.81 28.31 30.82 27.7C30.85 26.48 31.35 25.33 32.22 24.48C33.09 23.63 34.25 23.15 35.47 23.15C36.68 23.15 37.85 23.63 38.72 24.48C39.59 25.33 40.09 26.48 40.11 27.7Z" fill="#0F1923" fill-opacity="1.000000" fill-rule="nonzero"/>
	</g>
</svg>
