<svg width="55.000000" height="55.000000" viewBox="0 0 55 55" fill="none" xmlns="http://www.w3.org/2000/svg" xmlns:xlink="http://www.w3.org/1999/xlink">
	
	<defs>
		<clipPath id="clip21_94">
			<rect id="fi_3101013" rx="0.000000" width="54.000000" height="54.000000" transform="translate(0.500000 0.500000)" fill="white" fill-opacity="0"/>
		</clipPath>
	</defs>
	<rect id="fi_3101013" rx="0.000000" width="54.000000" height="54.000000" transform="translate(0.500000 0.500000)" fill="#FFFFFF" fill-opacity="0"/>
	<g clip-path="url(#clip21_94)">
		<path id="Vector" d="M47.07 2.58C48.05 2.58 48.85 3.38 48.85 4.36L48.85 52.41C48.85 53.39 48.05 54.19 47.07 54.19L7.92 54.19C6.94 54.19 6.14 53.39 6.14 52.41L6.14 4.36C6.14 3.38 6.94 2.58 7.92 2.58L47.07 2.58Z" fill="#E8613B" fill-opacity="1.000000" fill-rule="nonzero"/>
		<path id="Vector" d="M44.4 6.14C44.89 6.14 45.29 6.54 45.29 7.03L45.29 49.74C45.29 50.23 44.89 50.63 44.4 50.63L10.59 50.63C10.1 50.63 9.7 50.23 9.7 49.74L9.7 7.03C9.7 6.54 10.1 6.14 10.59 6.14L44.4 6.14Z" fill="#FFFFFF" fill-opacity="1.000000" fill-rule="nonzero"/>
		<path id="Vector" d="M44.4 6.14C44.89 6.14 45.29 6.54 45.29 7.03L45.29 49.74C45.29 50.23 44.89 50.63 44.4 50.63L10.59 50.63C10.1 50.63 9.7 50.23 9.7 49.74L9.7 7.03C9.7 6.54 10.1 6.14 10.59 6.14L44.4 6.14Z" fill="#FFFFFF" fill-opacity="1.000000" fill-rule="nonzero"/>
		<path id="Vector" d="M44.4 6.14L41.93 6.14C42.42 6.14 42.82 6.54 42.82 7.03L42.82 49.74C42.82 50.23 42.42 50.63 41.93 50.63L44.4 50.63C44.89 50.63 45.29 50.23 45.29 49.74L45.29 7.03C45.29 6.54 44.89 6.14 44.4 6.14Z" fill="#FFFFFF" fill-opacity="1.000000" fill-rule="nonzero"/>
		<path id="Vector" d="M47.07 2.58L44.6 2.58C45.58 2.58 46.38 3.38 46.38 4.36L46.38 52.41C46.38 53.39 45.58 54.19 44.6 54.19L47.07 54.19C48.05 54.19 48.85 53.39 48.85 52.41L48.85 4.36C48.85 3.38 48.05 2.58 47.07 2.58Z" fill="#E8613B" fill-opacity="1.000000" fill-rule="nonzero"/>
		<path id="Vector" d="M33.78 7.92L21.21 7.92C20.26 7.92 19.49 7.15 19.49 6.2L19.49 1.66C19.49 1.19 19.87 0.8 20.35 0.8L34.64 0.8C35.12 0.8 35.5 1.19 35.5 1.66L35.5 6.2C35.5 7.15 34.73 7.92 33.78 7.92Z" fill="#EEB756" fill-opacity="1.000000" fill-rule="nonzero"/>
		<path id="Vector" d="M34.64 0.8L32.17 0.8C32.65 0.8 33.03 1.19 33.03 1.66L33.03 6.2C33.03 7.15 32.26 7.92 31.31 7.92L33.78 7.92C34.73 7.92 35.5 7.15 35.5 6.2L35.5 1.66C35.5 1.19 35.12 0.8 34.64 0.8Z" fill="#EEB756" fill-opacity="1.000000" fill-rule="nonzero"/>
		<path id="Vector" d="M34.04 20.95C34.2 21.1 34.41 21.18 34.61 21.18C34.82 21.18 35.03 21.1 35.18 20.95L36.39 19.74L37.6 20.95C37.76 21.1 37.97 21.18 38.17 21.18C38.38 21.18 38.59 21.1 38.74 20.95C39.06 20.63 39.06 20.12 38.74 19.81L37.53 18.6L38.74 17.39C39.06 17.07 39.06 16.56 38.74 16.25C38.43 15.93 37.92 15.93 37.6 16.25L36.39 17.46L35.18 16.25C34.87 15.93 34.36 15.93 34.04 16.25C33.73 16.56 33.73 17.07 34.04 17.39L35.25 18.6L34.04 19.81C33.73 20.12 33.73 20.63 34.04 20.95Z" fill="#151544" fill-opacity="1.000000" fill-rule="nonzero"/>
		<path id="Vector" d="M24.51 23.37C24.19 23.05 23.68 23.05 23.37 23.37L22.16 24.58L20.95 23.37C20.63 23.05 20.12 23.05 19.81 23.37C19.49 23.68 19.49 24.19 19.81 24.51L21.02 25.72L19.81 26.93C19.49 27.24 19.49 27.75 19.81 28.06C19.96 28.22 20.17 28.3 20.38 28.3C20.58 28.3 20.79 28.22 20.95 28.06L22.16 26.85L23.37 28.06C23.52 28.22 23.73 28.3 23.94 28.3C24.14 28.3 24.35 28.22 24.51 28.06C24.82 27.75 24.82 27.24 24.51 26.93L23.3 25.72L24.51 24.51C24.82 24.19 24.82 23.68 24.51 23.37Z" fill="#151544" fill-opacity="1.000000" fill-rule="nonzero"/>
		<path id="Vector" d="M20.38 12.45C18.95 12.45 17.79 13.61 17.79 15.04C17.79 16.46 18.95 17.62 20.38 17.62C21.8 17.62 22.96 16.46 22.96 15.04C22.96 13.61 21.8 12.45 20.38 12.45ZM20.38 16.01C19.84 16.01 19.4 15.57 19.4 15.04C19.4 14.5 19.84 14.06 20.38 14.06C20.91 14.06 21.35 14.5 21.35 15.04C21.35 15.57 20.91 16.01 20.38 16.01Z" fill="#151544" fill-opacity="1.000000" fill-rule="nonzero"/>
		<path id="Vector" d="M14.23 38.17C14.23 39.6 15.39 40.76 16.82 40.76C18.24 40.76 19.4 39.6 19.4 38.17C19.4 36.75 18.24 35.59 16.82 35.59C15.39 35.59 14.23 36.75 14.23 38.17ZM17.79 38.17C17.79 38.71 17.35 39.15 16.82 39.15C16.28 39.15 15.84 38.71 15.84 38.17C15.84 37.64 16.28 37.2 16.82 37.2C17.35 37.2 17.79 37.64 17.79 38.17Z" fill="#151544" fill-opacity="1.000000" fill-rule="nonzero"/>
		<path id="Vector" d="M38.17 30.25C36.75 30.25 35.59 31.41 35.59 32.83C35.59 34.26 36.75 35.42 38.17 35.42C39.6 35.42 40.76 34.26 40.76 32.83C40.76 31.41 39.6 30.25 38.17 30.25ZM38.17 33.81C37.64 33.81 37.2 33.37 37.2 32.83C37.2 32.3 37.64 31.86 38.17 31.86C38.71 31.86 39.15 32.3 39.15 32.83C39.15 33.37 38.71 33.81 38.17 33.81Z" fill="#151544" fill-opacity="1.000000" fill-rule="nonzero"/>
		<path id="Vector" d="M35.59 43.51C35.59 44.94 36.75 46.1 38.17 46.1C39.6 46.1 40.76 44.94 40.76 43.51C40.76 42.09 39.6 40.93 38.17 40.93C36.75 40.93 35.59 42.09 35.59 43.51ZM38.17 42.54C38.71 42.54 39.15 42.97 39.15 43.51C39.15 44.05 38.71 44.49 38.17 44.49C37.64 44.49 37.2 44.05 37.2 43.51C37.2 42.97 37.64 42.54 38.17 42.54Z" fill="#151544" fill-opacity="1.000000" fill-rule="nonzero"/>
		<path id="Vector" d="M38.98 38.62L38.98 37.73C38.98 37.28 38.62 36.92 38.17 36.92C37.73 36.92 37.37 37.28 37.37 37.73L37.37 38.62C37.37 39.06 37.73 39.42 38.17 39.42C38.62 39.42 38.98 39.06 38.98 38.62Z" fill="#151544" fill-opacity="1.000000" fill-rule="nonzero"/>
		<path id="Vector" d="M47.07 1.77L36.31 1.77L36.31 1.66C36.31 0.74 35.56 0 34.64 0L20.35 0C19.43 0 18.68 0.74 18.68 1.66L18.68 1.77L7.92 1.77C6.49 1.77 5.33 2.93 5.33 4.36L5.33 52.41C5.33 53.84 6.49 55 7.92 55L36.56 55C37.01 55 37.37 54.63 37.37 54.19C37.37 53.74 37.01 53.38 36.56 53.38L7.92 53.38C7.38 53.38 6.95 52.95 6.95 52.41L6.95 4.36C6.95 3.82 7.38 3.39 7.92 3.39L18.68 3.39L18.68 5.33L10.59 5.33C9.65 5.33 8.89 6.09 8.89 7.03L8.89 14.4C8.89 14.85 9.25 15.21 9.7 15.21C10.14 15.21 10.5 14.85 10.5 14.4L10.5 7.03C10.5 6.98 10.54 6.95 10.59 6.95L18.79 6.95C19.11 7.97 20.07 8.72 21.21 8.72L23.93 8.72L23.94 8.72L23.94 8.72L31.05 8.72L31.05 8.72L31.06 8.72L33.78 8.72C34.92 8.72 35.88 7.97 36.2 6.95L44.4 6.95C44.45 6.95 44.49 6.98 44.49 7.03L44.49 49.74C44.49 49.79 44.45 49.82 44.4 49.82L10.59 49.82C10.54 49.82 10.5 49.79 10.5 49.74L10.5 17.62C10.5 17.18 10.14 16.82 9.7 16.82C9.25 16.82 8.89 17.18 8.89 17.62L8.89 49.74C8.89 50.68 9.65 51.44 10.59 51.44L44.4 51.44C45.34 51.44 46.1 50.68 46.1 49.74L46.1 7.03C46.1 6.09 45.34 5.33 44.4 5.33L36.31 5.33L36.31 3.39L47.07 3.39C47.61 3.39 48.04 3.82 48.04 4.36L48.04 52.41C48.04 52.95 47.61 53.38 47.07 53.38L39.78 53.38C39.34 53.38 38.98 53.74 38.98 54.19C38.98 54.63 39.34 55 39.78 55L47.07 55C48.5 55 49.66 53.84 49.66 52.41L49.66 4.36C49.66 2.93 48.5 1.77 47.07 1.77ZM34.7 6.2C34.7 6.7 34.29 7.11 33.78 7.11L31.86 7.11L31.86 6.14C31.86 5.69 31.5 5.33 31.05 5.33C30.61 5.33 30.25 5.69 30.25 6.14L30.25 7.11L24.74 7.11L24.74 6.14C24.74 5.69 24.38 5.33 23.94 5.33C23.49 5.33 23.13 5.69 23.13 6.14L23.13 7.11L21.21 7.11C20.7 7.11 20.29 6.7 20.29 6.2L20.29 1.66C20.29 1.63 20.32 1.61 20.35 1.61L34.64 1.61C34.67 1.61 34.7 1.63 34.7 1.66L34.7 6.2Z" fill="#151544" fill-opacity="1.000000" fill-rule="nonzero"/>
		<path id="Vector" d="M15.04 47.88L20.38 47.88C20.82 47.88 21.18 47.52 21.18 47.07C21.18 46.63 20.82 46.27 20.38 46.27L15.04 46.27C14.59 46.27 14.23 46.63 14.23 47.07C14.23 47.52 14.59 47.88 15.04 47.88Z" fill="#151544" fill-opacity="1.000000" fill-rule="nonzero"/>
		<path id="Vector" d="M28.04 16.29L29.34 16.02C29.78 15.92 30.06 15.5 29.97 15.06C29.88 14.63 29.45 14.35 29.01 14.44L25.54 15.16C24.78 15.34 24.84 15.8 24.9 16.12L25.63 19.6C25.71 19.98 26.04 20.24 26.42 20.24C26.47 20.24 26.53 20.24 26.58 20.22C27.02 20.13 27.3 19.71 27.21 19.27L26.82 17.42C30.02 19.35 32.01 22.82 32.01 26.63C32.01 32.57 27.18 37.39 21.24 37.39C20.8 37.39 20.44 37.75 20.44 38.2C20.44 38.64 20.8 39.01 21.24 39.01C28.07 39.01 33.62 33.45 33.62 26.63C33.62 22.4 31.49 18.54 28.04 16.29Z" fill="#151544" fill-opacity="1.000000" fill-rule="nonzero"/>
	</g>
</svg>
