<svg width="55.000000" height="55.000000" viewBox="0 0 55 55" fill="none" xmlns="http://www.w3.org/2000/svg" xmlns:xlink="http://www.w3.org/1999/xlink">
	
	<defs>
		<clipPath id="clip21_225">
			<rect id="fi_3234940" rx="0.000000" width="54.000000" height="54.000000" transform="translate(0.500000 0.500000)" fill="white" fill-opacity="0"/>
		</clipPath>
	</defs>
	<rect id="fi_3234940" rx="0.000000" width="54.000000" height="54.000000" transform="translate(0.500000 0.500000)" fill="#FFFFFF" fill-opacity="0"/>
	<g clip-path="url(#clip21_225)">
		<path id="Vector" d="M44.53 22.74C44.53 34.82 34.74 44.61 22.66 44.61C10.59 44.61 0.8 34.82 0.8 22.74C0.8 10.65 10.59 0.86 22.66 0.86C34.74 0.86 44.53 10.65 44.53 22.74Z" fill="#E8613B" fill-opacity="1.000000" fill-rule="evenodd"/>
		<path id="Vector" d="M22.66 0.86C22.12 0.86 21.58 0.88 21.05 0.92C32.37 1.74 41.3 11.2 41.3 22.74C41.3 34.28 32.37 43.73 21.05 44.55C21.58 44.59 22.12 44.61 22.66 44.61C34.74 44.61 44.53 34.82 44.53 22.74C44.53 10.65 34.74 0.86 22.66 0.86Z" fill="#FD53B9" fill-opacity="1.000000" fill-rule="nonzero"/>
		<path id="Vector" d="M38.83 22.74C38.83 31.67 31.59 38.91 22.66 38.91C13.74 38.91 6.5 31.67 6.5 22.74C6.5 13.8 13.74 6.56 22.66 6.56C31.59 6.56 38.83 13.8 38.83 22.74Z" fill="#FFFFFF" fill-opacity="1.000000" fill-rule="evenodd"/>
		<path id="Vector" d="M33.13 22.74C33.13 28.52 28.44 33.21 22.66 33.21C16.89 33.21 12.2 28.52 12.2 22.74C12.2 16.95 16.89 12.26 22.66 12.26C28.44 12.26 33.13 16.95 33.13 22.74Z" fill="#E8613B" fill-opacity="1.000000" fill-rule="evenodd"/>
		<path id="Vector" d="M27.42 22.74C27.42 25.37 25.29 27.51 22.66 27.51C20.03 27.51 17.9 25.37 17.9 22.74C17.9 20.1 20.03 17.96 22.66 17.96C25.29 17.96 27.42 20.1 27.42 22.74Z" fill="#FFFFFF" fill-opacity="1.000000" fill-rule="evenodd"/>
		<path id="Vector" d="M22.26 36.45L54.18 36.45L54.18 54.18L22.26 54.18L22.26 36.45Z" fill="#6FE1D6" fill-opacity="1.000000" fill-rule="nonzero"/>
		<path id="Vector" d="M22.27 36.44L22.27 36.45L50.97 36.45L50.96 54.19L54.18 54.19L54.19 36.45L22.27 36.44Z" fill="#6FE1D6" fill-opacity="1.000000" fill-rule="nonzero"/>
		<path id="Vector" d="M33.67 48.2C33.13 47.34 32.84 46.34 32.84 45.31C32.84 42.33 35.26 39.91 38.23 39.91C40.08 39.91 41.79 40.85 42.78 42.43C43.32 43.3 43.61 44.29 43.61 45.32C43.61 48.3 41.19 50.72 38.22 50.72C36.36 50.72 34.66 49.78 33.67 48.2Z" fill="#FFFFFF" fill-opacity="1.000000" fill-rule="nonzero"/>
		<path id="Vector" d="M26.53 36.45C26.53 38.81 24.62 40.73 22.26 40.73L22.27 36.44L26.53 36.45Z" fill="#FFFFFF" fill-opacity="1.000000" fill-rule="nonzero"/>
		<path id="Vector" d="M49.91 54.19C49.92 51.82 51.83 49.9 54.18 49.91L54.18 54.19L49.91 54.19Z" fill="#FFFFFF" fill-opacity="1.000000" fill-rule="nonzero"/>
		<path id="Vector" d="M54.19 40.74C51.83 40.74 49.92 38.82 49.92 36.45L54.19 36.45L54.19 40.74Z" fill="#FFFFFF" fill-opacity="1.000000" fill-rule="nonzero"/>
		<path id="Vector" d="M9.13 48.09L18.08 48.09L18.08 51.12L9.13 51.12L9.13 48.09Z" fill="#EEB756" fill-opacity="1.000000" fill-rule="nonzero"/>
		<path id="Vector" d="M9.13 51.12L18.08 51.12L18.08 54.15L9.13 54.15L9.13 51.12Z" fill="#EEB756" fill-opacity="1.000000" fill-rule="nonzero"/>
		<path id="Vector" d="M18.08 42.03L27.04 42.03L27.04 45.06L18.08 45.06L18.08 42.03Z" fill="#EEB756" fill-opacity="1.000000" fill-rule="nonzero"/>
		<path id="Vector" d="M18.08 45.06L27.04 45.06L27.04 48.09L18.08 48.09L18.08 45.06Z" fill="#EEB756" fill-opacity="1.000000" fill-rule="nonzero"/>
		<path id="Vector" d="M18.08 48.09L27.04 48.09L27.04 51.12L18.08 51.12L18.08 48.09Z" fill="#EEB756" fill-opacity="1.000000" fill-rule="nonzero"/>
		<path id="Vector" d="M18.08 51.12L27.04 51.12L27.04 54.15L18.08 54.15L18.08 51.12Z" fill="#EEB756" fill-opacity="1.000000" fill-rule="nonzero"/>
		<path id="Vector" d="M52.31 5.48L46.32 9.63L43.06 8.43L43.08 4.95L49.07 0.8L49.05 4.28L52.31 5.48Z" fill="#FFFFFF" fill-opacity="1.000000" fill-rule="nonzero"/>
		<path id="Vector" d="M38.23 39.11C38.23 39.11 38.23 39.11 38.22 39.11C34.81 39.11 32.04 41.89 32.03 45.31C32.03 48.69 34.85 51.53 38.22 51.53C41.63 51.53 44.41 48.74 44.41 45.32C44.41 41.94 41.6 39.11 38.23 39.11ZM38.22 49.92C35.73 49.92 33.64 47.81 33.65 45.31C33.65 42.78 35.7 40.72 38.22 40.72C40.72 40.72 42.8 42.82 42.8 45.32C42.8 47.85 40.75 49.92 38.22 49.92Z" fill="#0F1923" fill-opacity="1.000000" fill-rule="nonzero"/>
		<path id="Vector" d="M55 36.45C55 36.01 54.61 35.65 54.19 35.65L41.32 35.63C43.95 31.84 45.33 27.41 45.33 22.74C45.33 18.18 43.98 13.94 41.67 10.38L43.17 9.33L46.04 10.39C46.29 10.48 46.54 10.45 46.78 10.29L52.77 6.14C53.3 5.78 53.19 4.95 52.59 4.73L50.78 4.06L52.07 3.17C52.93 2.57 52.01 1.25 51.16 1.84L49.87 2.73L49.88 0.8C49.88 0.16 49.14 -0.23 48.62 0.14L42.62 4.29C42.41 4.44 42.28 4.68 42.27 4.94L42.25 8.01L40.74 9.06C36.6 3.59 30.04 0.05 22.66 0.05C10.16 0.05 0 10.23 0 22.74C0 27.94 1.8 33.02 5.07 37.05C8.19 40.88 12.51 43.61 17.28 44.77L17.28 47.29L9.13 47.29C8.69 47.29 8.33 47.65 8.33 48.09L8.33 54.15C8.33 54.6 8.69 54.96 9.13 54.96L41.53 54.99C42.54 54.99 42.54 53.38 41.53 53.38L27.84 53.37L27.84 42.03C27.84 41.59 27.48 41.23 27.04 41.23L23.99 41.23C25.71 40.6 26.99 39.08 27.28 37.22L49.18 37.25C49.35 38.31 49.83 39.28 50.6 40.05C51.36 40.81 52.32 41.31 53.37 41.47L53.37 49.17C51.23 49.53 49.52 51.23 49.17 53.38L46.74 53.38C45.7 53.38 45.7 54.99 46.74 54.99L54.14 54.99L54.18 54.99C54.62 54.99 54.99 54.63 55 54.19L55 36.46C55 36.46 55 36.46 55 36.45ZM43.88 5.37L48.26 2.34L48.25 4.27C48.24 4.61 48.46 4.92 48.77 5.03L50.58 5.7L46.2 8.73L43.87 7.87L43.88 5.37ZM43.72 22.74C43.72 27.46 42.2 31.91 39.32 35.63L33.71 35.62C36.11 33.55 37.92 30.81 38.86 27.8C39.89 24.51 39.88 20.9 38.84 17.61C38.4 16.21 37.77 14.88 36.99 13.65L40.35 11.31C42.48 14.6 43.72 18.53 43.72 22.74ZM6.32 36.03C3.28 32.29 1.61 27.57 1.61 22.74C1.61 11.12 11.05 1.66 22.66 1.66C29.49 1.66 35.57 4.93 39.42 9.99L36.07 12.33C35.37 11.43 34.58 10.6 33.71 9.85C31.27 7.76 28.31 6.4 25.15 5.93C21.88 5.45 18.57 5.92 15.58 7.3C14.64 7.74 15.31 9.2 16.26 8.77C18.92 7.54 22 7.1 24.91 7.53C27.77 7.95 30.45 9.18 32.66 11.07C33.43 11.74 34.12 12.47 34.74 13.26L31.39 15.6C29.32 13.07 26.18 11.45 22.66 11.45C16.45 11.45 11.4 16.51 11.4 22.74C11.4 28.96 16.45 34.02 22.66 34.02C28.88 34.02 33.93 28.96 33.93 22.74C33.93 20.61 33.34 18.62 32.32 16.92L35.67 14.57C36.36 15.67 36.91 16.86 37.31 18.1C38.25 21.07 38.25 24.34 37.32 27.32C36.38 30.33 34.47 33.05 31.94 34.98C31.65 35.2 31.34 35.41 31.03 35.62L22.23 35.6C21.74 35.65 21.47 35.92 21.43 36.41L21.44 38.06C19.31 37.88 17.22 37.27 15.35 36.25C11.26 34.02 8.32 29.95 7.53 25.36C6.67 20.4 8.37 15.21 11.98 11.71C12.72 10.98 11.6 9.83 10.85 10.55C6.86 14.43 5 20.15 5.94 25.64C6.82 30.7 10.07 35.21 14.58 37.66C16.69 38.81 19.05 39.5 21.44 39.67L21.45 41.23L18.08 41.23C17.64 41.23 17.28 41.59 17.28 42.03L17.28 43.11C13 41.98 9.14 39.49 6.32 36.03ZM21.95 23.18C22.29 23.56 22.67 23.63 23.07 23.38L26.28 21.14C26.5 21.63 26.62 22.17 26.62 22.74C26.62 24.92 24.84 26.71 22.66 26.71C20.48 26.71 18.71 24.92 18.71 22.74C18.71 20.55 20.48 18.77 22.66 18.77C23.7 18.77 24.64 19.17 25.35 19.82L22.15 22.06C21.78 22.32 21.69 22.82 21.95 23.18ZM22.66 17.15C19.59 17.15 17.1 19.66 17.1 22.74C17.1 25.81 19.59 28.32 22.66 28.32C25.73 28.32 28.23 25.81 28.23 22.74C28.23 21.82 28.01 20.96 27.62 20.2L30.99 17.85C31.83 19.28 32.32 20.95 32.32 22.74C32.32 28.07 27.99 32.41 22.66 32.41C17.34 32.41 13.01 28.07 13.01 22.74C13.01 17.4 17.34 13.06 22.66 13.06C25.63 13.06 28.29 14.41 30.06 16.53L26.69 18.89C25.67 17.82 24.25 17.15 22.66 17.15ZM18.89 48.9L26.23 48.9L26.23 50.32L18.89 50.32L18.89 48.9ZM26.23 47.29L18.89 47.29L18.89 45.87L26.23 45.87L26.23 47.29ZM9.94 48.9L17.28 48.9L17.28 50.32L9.94 50.32L9.94 48.9ZM17.28 53.35L9.94 53.35L9.94 51.93L17.28 51.93L17.28 53.35L17.28 53.35ZM18.89 51.93L26.23 51.93L26.23 53.35L18.89 53.35L18.89 51.93ZM26.23 44.26L18.89 44.26L18.89 42.84L26.23 42.84L26.23 44.26ZM23.07 39.83L23.07 37.25L25.63 37.25C25.33 38.52 24.33 39.52 23.07 39.83ZM51.74 38.91C51.28 38.45 50.97 37.88 50.82 37.26L53.38 37.26L53.37 39.83C52.76 39.69 52.2 39.37 51.74 38.91ZM50.81 53.38C51.11 52.12 52.09 51.13 53.34 50.82L53.33 53.38L50.81 53.38Z" fill="#0F1923" fill-opacity="1.000000" fill-rule="nonzero"/>
	</g>
</svg>
