<svg width="55.000000" height="55.000000" viewBox="0 0 55 55" fill="none" xmlns="http://www.w3.org/2000/svg" xmlns:xlink="http://www.w3.org/1999/xlink">
	
	<defs>
		<clipPath id="clip14_65">
			<rect id="fi_16267811" rx="0.000000" width="54.000000" height="54.000000" transform="translate(0.500000 0.500000)" fill="white" fill-opacity="0"/>
		</clipPath>
	</defs>
	<rect id="fi_16267811" rx="0.000000" width="54.000000" height="54.000000" transform="translate(0.500000 0.500000)" fill="#FFFFFF" fill-opacity="0"/>
	<g clip-path="url(#clip14_65)">
		<path id="Vector" d="M33.39 39.54C31.82 38.76 30.11 38.1 28.15 37.45C27.89 37.32 27.63 37.32 27.49 37.19C19.77 34.44 15.19 30.77 15.19 27.5C15.19 24.22 19.77 20.55 27.49 17.8C27.23 17.67 26.97 17.67 26.84 17.54C24.88 16.89 23.17 16.23 21.6 15.45C12.83 19.51 10.73 24.09 10.73 27.5C10.73 30.9 12.7 35.48 21.6 39.54C23.17 40.2 24.88 40.98 26.84 41.64C27.1 41.77 27.36 41.77 27.49 41.9C35.22 44.65 39.8 48.19 39.8 51.59C39.8 52.77 40.85 53.69 42.03 53.69L42.16 53.69C43.34 53.69 44.39 52.64 44.26 51.46C44.26 48.05 42.16 43.6 33.39 39.54Z" fill="#EAEEEF" fill-opacity="1.000000" fill-rule="nonzero"/>
		<path id="Vector" d="M42.16 54.34C40.59 54.34 39.28 53.16 39.28 51.59C39.15 48.58 34.7 45.17 27.36 42.55C27.23 42.55 26.97 42.42 26.71 42.29C24.88 41.64 23.04 40.98 21.47 40.2C12.17 35.88 10.21 30.9 10.21 27.5C10.21 24.09 12.17 19.11 21.47 14.79C21.6 14.66 21.86 14.66 21.99 14.79C23.44 15.45 25.14 16.1 27.1 16.89C27.36 17.02 27.63 17.02 27.76 17.15C28.02 17.28 28.28 17.41 28.28 17.8C28.28 18.07 28.15 18.33 27.89 18.46C20.55 21.08 15.97 24.61 15.97 27.63C15.97 30.64 20.55 34.17 27.89 36.79C28.15 36.79 28.28 36.92 28.54 37.05C30.64 37.84 32.34 38.5 33.78 39.15C42.95 43.34 44.91 48.32 45.04 51.59C45.04 52.38 44.78 53.03 44.26 53.69C43.6 53.95 42.95 54.34 42.16 54.34ZM21.6 16.1C14.92 19.25 11.39 23.17 11.39 27.5C11.39 31.82 15.05 35.75 21.86 39.02C23.44 39.8 25.27 40.46 26.97 41.11C27.23 41.25 27.49 41.25 27.63 41.38C35.74 44.26 40.33 48.05 40.46 51.59C40.46 52.38 41.24 53.16 42.03 53.16C42.42 53.16 42.82 53.03 43.08 52.64C43.34 52.38 43.47 51.98 43.47 51.59C43.47 48.58 41.51 44.26 32.99 40.33C31.55 39.67 29.85 39.02 27.89 38.23C27.76 37.97 27.49 37.97 27.36 37.84C19.24 34.96 14.53 31.16 14.53 27.5C14.53 24.09 18.59 20.55 25.66 17.8C24.09 17.15 22.78 16.63 21.6 16.1Z" fill="#151544" fill-opacity="1.000000" fill-rule="nonzero"/>
		<path id="Vector" d="M44.26 3.53C44.13 6.8 42.16 11.39 33.39 15.45C31.82 14.79 30.11 14.01 28.15 13.35C27.89 13.22 27.63 13.22 27.5 13.09C35.22 10.34 39.8 6.8 39.8 3.4C39.8 2.22 40.85 1.17 42.03 1.3C43.34 1.3 44.26 2.35 44.26 3.53Z" fill="#EAEEEF" fill-opacity="1.000000" fill-rule="nonzero"/>
		<path id="Vector" d="M33.39 16.1C33.26 16.1 33.26 16.1 33.13 16.1C31.55 15.32 29.72 14.66 28.02 14.01C27.76 13.88 27.5 13.88 27.36 13.75C27.1 13.61 26.97 13.35 26.84 13.09C26.84 12.83 26.97 12.57 27.23 12.44C34.57 9.82 39.02 6.41 39.15 3.4C39.15 1.83 40.59 0.52 42.16 0.65C42.82 0.65 43.6 0.91 44.13 1.57C44.65 2.09 44.91 2.88 44.91 3.66C44.78 6.94 42.82 11.78 33.65 16.1C33.65 16.1 33.52 16.1 33.39 16.1ZM29.46 13.09C30.9 13.61 32.21 14.14 33.52 14.66C41.77 10.73 43.6 6.41 43.73 3.53C43.73 3.14 43.6 2.75 43.34 2.48C43.08 2.22 42.69 1.96 42.29 1.96L42.16 1.96C41.38 1.96 40.72 2.61 40.72 3.53C40.46 6.8 36.4 10.34 29.46 13.09Z" fill="#151544" fill-opacity="1.000000" fill-rule="nonzero"/>
		<path id="Vector" d="M44.26 27.5C44.26 30.9 42.29 35.48 33.39 39.54C31.82 38.76 30.11 38.1 28.15 37.45C27.89 37.32 27.63 37.32 27.49 37.19C35.22 34.44 39.8 30.77 39.8 27.5C39.8 24.22 35.22 20.55 27.49 17.8C27.23 17.67 26.97 17.67 26.84 17.54C24.88 16.89 23.17 16.23 21.6 15.45C12.83 11.39 10.73 6.8 10.73 3.53C10.73 2.35 11.65 1.3 12.83 1.3C14.01 1.17 15.05 2.22 15.05 3.4C15.19 6.67 19.77 10.34 27.36 13.09C27.63 13.22 27.89 13.22 28.02 13.35C29.98 14.01 31.69 14.66 33.26 15.45C42.29 19.51 44.26 24.09 44.26 27.5Z" fill="#6FE1D6" fill-opacity="1.000000" fill-rule="nonzero"/>
		<path id="Vector" d="M33.39 40.2C33.26 40.2 33.26 40.2 33.13 40.2C31.69 39.54 29.98 38.89 28.02 38.1C27.76 37.97 27.5 37.97 27.36 37.84C27.1 37.71 26.97 37.45 26.84 37.19C26.84 36.92 26.97 36.66 27.23 36.53C34.57 33.91 39.15 30.38 39.15 27.36C39.15 24.35 34.57 20.95 27.23 18.2C26.97 18.2 26.84 18.07 26.58 17.94C24.48 17.15 22.78 16.5 21.34 15.84C12.17 11.65 10.21 6.67 10.08 3.4C10.08 2.61 10.34 1.96 10.86 1.44C11.39 0.91 12.04 0.52 12.83 0.52L12.96 0.52C14.4 0.52 15.71 1.83 15.71 3.27C15.84 6.28 20.42 9.69 27.63 12.3C27.89 12.3 28.02 12.44 28.28 12.57C30.11 13.22 31.95 13.88 33.52 14.66C42.82 18.98 44.78 23.96 44.78 27.36C44.78 30.77 42.82 35.75 33.52 40.07C33.65 40.2 33.52 40.2 33.39 40.2ZM29.46 37.19C31.03 37.71 32.34 38.23 33.52 38.76C40.2 35.61 43.73 31.69 43.73 27.36C43.73 23.04 40.07 19.11 33.26 15.84C31.69 15.05 29.85 14.4 28.15 13.75C27.89 13.61 27.63 13.61 27.5 13.48C19.38 10.6 14.79 6.8 14.66 3.27C14.4 2.61 13.75 1.96 13.09 1.96L12.96 1.96C12.44 1.96 12.04 2.09 11.78 2.48C11.52 2.75 11.39 3.14 11.39 3.53C11.39 6.54 13.35 10.86 21.86 14.79C23.3 15.45 25.01 16.1 26.97 16.89C27.23 17.02 27.5 17.02 27.63 17.15C35.75 20.03 40.46 23.83 40.46 27.5C40.46 30.9 36.53 34.44 29.46 37.19Z" fill="#151544" fill-opacity="1.000000" fill-rule="nonzero"/>
		<path id="Vector" d="M27.5 41.9C19.77 44.65 15.19 48.19 15.19 51.59C15.19 52.77 14.14 53.69 12.96 53.69L12.83 53.69C11.65 53.69 10.6 52.64 10.73 51.46C10.86 48.19 12.83 43.6 21.6 39.54C23.17 40.2 24.88 40.98 26.84 41.64C26.97 41.77 27.23 41.77 27.5 41.9Z" fill="#6FE1D6" fill-opacity="1.000000" fill-rule="nonzero"/>
		<path id="Vector" d="M12.96 54.34C12.04 54.34 11.39 53.95 10.86 53.42C10.34 52.9 10.08 52.11 10.08 51.46C10.08 48.19 12.17 43.34 21.34 39.02C21.47 38.89 21.73 38.89 21.86 39.02C23.44 39.8 25.27 40.46 26.97 41.11C27.23 41.25 27.5 41.25 27.63 41.38C27.89 41.51 28.02 41.64 28.15 42.03C28.15 42.29 28.02 42.55 27.76 42.69C20.42 45.3 15.97 48.71 15.84 51.72C15.71 53.16 14.53 54.34 12.96 54.34ZM21.6 40.33C13.35 44.26 11.52 48.58 11.39 51.46C11.39 51.85 11.52 52.25 11.78 52.51C12.04 52.77 12.44 53.03 12.83 53.03C13.61 53.03 14.4 52.38 14.4 51.46C14.53 48.19 18.46 44.65 25.53 41.9C24.22 41.38 22.78 40.85 21.6 40.33Z" fill="#151544" fill-opacity="1.000000" fill-rule="nonzero"/>
		<path id="Vector" d="M39.54 4.58L15.32 4.58C14.92 4.58 14.66 4.32 14.66 3.92C14.66 3.53 14.92 3.27 15.32 3.27L39.54 3.27C39.94 3.27 40.2 3.53 40.2 3.92C40.2 4.32 39.94 4.58 39.54 4.58Z" fill="#151544" fill-opacity="1.000000" fill-rule="nonzero"/>
		<path id="Vector" d="M36.66 8.9L18.33 8.9C17.94 8.9 17.67 8.64 17.67 8.25C17.67 7.85 17.94 7.59 18.33 7.59L36.66 7.59C37.05 7.59 37.32 7.85 37.32 8.25C37.32 8.64 37.05 8.9 36.66 8.9Z" fill="#151544" fill-opacity="1.000000" fill-rule="nonzero"/>
		<path id="Vector" d="M39.54 28.15L15.32 28.15C14.92 28.15 14.66 27.89 14.66 27.5C14.66 27.1 14.92 26.84 15.32 26.84L39.54 26.84C39.94 26.84 40.2 27.1 40.2 27.5C40.2 27.89 39.94 28.15 39.54 28.15Z" fill="#151544" fill-opacity="1.000000" fill-rule="nonzero"/>
		<path id="Vector" d="M37.45 32.47L17.54 32.47C17.15 32.47 16.89 32.21 16.89 31.82C16.89 31.42 17.15 31.16 17.54 31.16L37.45 31.16C37.84 31.16 38.1 31.42 38.1 31.82C38.1 32.21 37.84 32.47 37.45 32.47Z" fill="#151544" fill-opacity="1.000000" fill-rule="nonzero"/>
		<path id="Vector" d="M37.45 23.83L17.54 23.83C17.15 23.83 16.89 23.57 16.89 23.17C16.89 22.78 17.15 22.52 17.54 22.52L37.45 22.52C37.84 22.52 38.1 22.78 38.1 23.17C38.1 23.57 37.84 23.83 37.45 23.83Z" fill="#151544" fill-opacity="1.000000" fill-rule="nonzero"/>
		<path id="Vector" d="M39.54 51.72L15.32 51.72C14.92 51.72 14.66 51.46 14.66 51.07C14.66 50.67 14.92 50.41 15.32 50.41L39.54 50.41C39.94 50.41 40.2 50.67 40.2 51.07C40.2 51.46 39.94 51.72 39.54 51.72Z" fill="#151544" fill-opacity="1.000000" fill-rule="nonzero"/>
		<path id="Vector" d="M36.66 47.4L18.33 47.4C17.94 47.4 17.67 47.14 17.67 46.75C17.67 46.35 17.94 46.09 18.33 46.09L36.66 46.09C37.05 46.09 37.32 46.35 37.32 46.75C37.32 47.14 37.05 47.4 36.66 47.4Z" fill="#151544" fill-opacity="1.000000" fill-rule="nonzero"/>
	</g>
</svg>
