<svg width="731.723206" height="666.482788" viewBox="0 0 731.723 666.483" fill="none" xmlns="http://www.w3.org/2000/svg" xmlns:xlink="http://www.w3.org/1999/xlink">
	
	<defs/>
	<path id="Vector" d="M663.59 586.53L667.94 589.04M633.68 581.14L676.53 605.88M616.92 583.34L672.69 615.54M604.76 588.21L664.29 622.57M652.21 627.49L596.26 595.18M635.61 629.77L592.31 604.78M606.62 624.92L602.97 622.81" stroke="#0F1923" stroke-opacity="1.000000" stroke-width="5.764000" stroke-linejoin="round" stroke-linecap="round"/>
	<path id="Vector" d="M585.66 561.31C585.62 554.09 590.36 546.88 599.89 541.38C618.91 530.4 649.78 530.42 668.84 541.43C678.36 546.92 683.13 554.11 683.16 561.31L683.16 561.31L683.16 579.53L683.16 579.53C683.19 586.75 678.45 593.96 668.93 599.46C649.91 610.44 619.03 610.42 599.97 599.41C590.42 593.9 585.65 586.68 585.66 579.46L585.66 561.31Z" fill="#FFFFFF" fill-opacity="1.000000" fill-rule="nonzero"/>
	<path id="Vector" d="M599.89 541.38C618.91 530.4 649.78 530.42 668.84 541.43C678.36 546.92 683.13 554.11 683.16 561.31L683.16 561.31L683.16 579.53L683.16 579.53C683.19 586.75 678.45 593.96 668.93 599.46C649.91 610.44 619.03 610.42 599.97 599.41C590.42 593.9 585.65 586.68 585.66 579.46L585.66 561.31C585.62 554.09 590.36 546.88 599.89 541.38Z" stroke="#0F1923" stroke-opacity="1.000000" stroke-width="14.410000" stroke-linejoin="round"/>
	<path id="Vector" d="M683.16 561.31C683.19 568.53 678.45 575.74 668.93 581.24C649.91 592.22 619.03 592.2 599.97 581.19C590.46 575.7 585.69 568.51 585.65 561.31" stroke="#0F1923" stroke-opacity="1.000000" stroke-width="14.410000" stroke-linejoin="round" stroke-linecap="round"/>
	<path id="Vector" d="M646.57 568.33C653.27 564.46 653.26 558.18 646.55 554.3C639.83 550.42 628.95 550.42 622.25 554.28C615.54 558.15 615.56 564.44 622.28 568.31C628.99 572.19 639.87 572.2 646.57 568.33Z" stroke="#0F1923" stroke-opacity="1.000000" stroke-width="14.410000" stroke-linejoin="round"/>
	<path id="Vector" d="M174.05 612.15L217.44 637.19M163.77 618.09L207.16 643.13M153.48 624.02L196.86 649.07M186.58 655.02L143.19 629.97M176.3 660.95L132.91 635.91" stroke="#4995F4" stroke-opacity="1.000000" stroke-width="5.764000" stroke-linejoin="round" stroke-linecap="round"/>
	<path id="Vector" d="M131.61 589.58L175.1 564.47L218.49 589.52L218.49 622.42L175 647.53L131.61 622.49L131.61 589.58Z" fill="#FFFFFF" fill-opacity="1.000000" fill-rule="nonzero"/>
	<path id="Vector" d="M175.1 564.47L218.49 589.52L218.49 622.42L175 647.53L131.61 622.49L131.61 589.58L175.1 564.47Z" stroke="#4995F4" stroke-opacity="1.000000" stroke-width="14.410000" stroke-linejoin="round"/>
	<path id="Vector" d="M175 614.63L131.61 589.58" stroke="#4995F4" stroke-opacity="1.000000" stroke-width="14.410000" stroke-linejoin="round" stroke-linecap="round"/>
	<path id="Vector" d="M175 614.63L218.49 589.52" stroke="#4995F4" stroke-opacity="1.000000" stroke-width="14.410000" stroke-linejoin="round" stroke-linecap="round"/>
	<path id="Vector" d="M175 614.63L175 647.53" stroke="#4995F4" stroke-opacity="1.000000" stroke-width="14.410000" stroke-linejoin="round" stroke-linecap="round"/>
	<path id="Vector" d="M80.89 239.44L105.76 253.8M70.61 245.38L95.48 259.74M85.19 265.69L60.32 251.32" stroke="#6FE1D6" stroke-opacity="1.000000" stroke-width="5.764000" stroke-linejoin="round" stroke-linecap="round"/>
	<path id="Vector" d="M58.06 158.61L83 144.2L107.87 158.57L107.87 238.17L82.94 252.57L58.06 238.21L58.06 158.61Z" fill="#FFFFFF" fill-opacity="1.000000" fill-rule="nonzero"/>
	<path id="Vector" d="M83 144.2L107.87 158.57L107.87 238.17L82.94 252.57L58.06 238.21L58.06 158.61L83 144.2Z" stroke="#6FE1D6" stroke-opacity="1.000000" stroke-width="14.410000" stroke-linejoin="round"/>
	<path id="Vector" d="M82.94 172.96L58.06 158.61" stroke="#6FE1D6" stroke-opacity="1.000000" stroke-width="14.410000" stroke-linejoin="round" stroke-linecap="round"/>
	<path id="Vector" d="M82.94 172.96L107.87 158.57" stroke="#6FE1D6" stroke-opacity="1.000000" stroke-width="14.410000" stroke-linejoin="round" stroke-linecap="round"/>
	<path id="Vector" d="M82.94 172.96L82.94 252.57" stroke="#6FE1D6" stroke-opacity="1.000000" stroke-width="14.410000" stroke-linejoin="round" stroke-linecap="round"/>
	<path id="Vector" d="M715.23 279.41L715.23 332.85" stroke="#0F1923" stroke-opacity="1.000000" stroke-width="14.410000" stroke-linejoin="round" stroke-linecap="round"/>
	<path id="Vector" d="M715.23 279.41L705.72 295.85" stroke="#0F1923" stroke-opacity="1.000000" stroke-width="14.410000" stroke-linejoin="round" stroke-linecap="round"/>
	<path id="Vector" d="M715.23 279.41L724.49 284.74" stroke="#0F1923" stroke-opacity="1.000000" stroke-width="14.410000" stroke-linejoin="round" stroke-linecap="round"/>
	<path id="Vector" d="M520.2 80.2L512.97 98.2L498.2 80.38" stroke="#0F1923" stroke-opacity="1.000000" stroke-width="14.410000" stroke-linejoin="round" stroke-linecap="round"/>
	<path id="Vector" d="M416.76 635.86L457.24 659.23" stroke="#0F1923" stroke-opacity="1.000000" stroke-width="14.410000" stroke-linejoin="round" stroke-linecap="round"/>
	<path id="Vector" d="M416.7 659.25L457.29 635.82" stroke="#0F1923" stroke-opacity="1.000000" stroke-width="14.410000" stroke-linejoin="round" stroke-linecap="round"/>
	<path id="Vector" d="M14.69 425.61C24.67 419.74 40.81 419.73 50.75 425.58C60.71 431.43 60.67 440.93 50.71 446.79C40.74 452.66 24.6 452.67 14.64 446.82C4.7 440.97 4.72 431.47 14.69 425.61Z" stroke="#0F1923" stroke-opacity="1.000000" stroke-width="14.410000" stroke-linejoin="round"/>
	<path id="Vector" d="M425.57 357.32L384.24 333.47M427.87 370.54L361.38 332.15M343 333.41L425.69 381.15M421.44 390.57L326.69 335.88M415.84 399.23L311.68 339.09M297.66 342.87L409.31 407.33M284.4 347.11L401.98 414.99M271.78 351.7L394.03 422.28M385.51 429.23L259.72 356.61M376.5 435.91L248.16 361.82M237.05 367.29L367.03 442.33M357.14 448.5L226.37 372.99M346.85 454.44L216.08 378.94M206.19 385.1L336.16 460.15M196.72 391.52L325.06 465.61M187.71 398.2L313.49 470.82M301.44 475.73L179.2 405.15M288.82 480.34L171.22 412.44M275.56 484.56L163.91 420.1M157.37 428.2L261.54 488.34M246.53 491.56L151.78 436.86M147.52 446.27L230.22 494.03M211.83 495.28L145.34 456.9M188.95 493.97L147.6 470.09" stroke="#0F1923" stroke-opacity="1.000000" stroke-width="5.764000" stroke-linejoin="round" stroke-linecap="round"/>
	<path id="Vector" d="M266.95 215.37C408.26 137.54 428.3 240.94 428.3 343.38L428.3 343.38C429.05 366.75 403.06 397.96 352.42 427.2C279.24 469.46 198.9 482.01 162.76 461.14C149.96 453.75 144.46 443.15 145.89 430.68L145.63 430.76C145.63 351.53 127.87 291.97 266.95 215.37Z" fill="#FFFFFF" fill-opacity="1.000000" fill-rule="nonzero"/>
	<path id="Vector" d="M428.3 343.38L428.3 343.38C429.05 366.75 403.06 397.96 352.42 427.2C279.24 469.46 198.9 482.01 162.76 461.14C149.96 453.75 144.46 443.15 145.89 430.68L145.63 430.76C145.63 351.53 127.87 291.97 266.95 215.37C408.26 137.54 428.3 240.94 428.3 343.38Z" stroke="#0F1923" stroke-opacity="1.000000" stroke-width="14.410000" stroke-linejoin="round"/>
	<path id="Vector" d="M235.7 274.4C215.25 264.3 197.46 262.6 191.61 267.99M337.03 184.76C354.34 216.84 351.72 264.63 322.24 280.73C313.67 285.42 303.25 287.79 291.24 287.79C276.44 287.79 262.19 284.32 251.6 280.78" stroke="#0F1923" stroke-opacity="1.000000" stroke-width="7.205000" stroke-linejoin="round" stroke-linecap="round"/>
	<path id="Vector" d="M225.42 146.86L225.54 146.83C219.07 134.63 215.25 122.08 215.25 110.32C215.25 63.36 253.32 25.29 300.28 25.29C347.24 25.29 385.31 63.36 385.31 110.32C385.31 154.28 371.91 209.18 331.67 216.02C335.16 237.66 329.56 259.44 314.95 267.41C294.71 278.48 261.43 269.79 242.2 260.67C239.44 259.37 236.94 258.22 234.55 257.15C221.11 251.16 212.95 249.35 204.57 256.54C239.66 222.45 231.53 158.49 225.42 146.86Z" fill="#FFFFFF" fill-opacity="1.000000" fill-rule="nonzero"/>
	<path id="Vector" d="M225.54 146.83C219.07 134.63 215.25 122.08 215.25 110.32C215.25 63.36 253.32 25.29 300.28 25.29C347.24 25.29 385.31 63.36 385.31 110.32C385.31 154.28 371.91 209.18 331.67 216.02C335.16 237.66 329.56 259.44 314.95 267.41C294.71 278.48 261.43 269.79 242.2 260.67C239.44 259.37 236.94 258.22 234.55 257.15C221.11 251.16 212.95 249.35 204.57 256.54C239.66 222.45 231.53 158.49 225.42 146.86L225.54 146.83Z" stroke="#0F1923" stroke-opacity="1.000000" stroke-width="14.410000" stroke-linejoin="round"/>
	<path id="Vector" d="M265.27 193.15C283.61 207.38 304.43 216.74 323.06 216.74C325.99 216.74 328.8 216.5 331.5 216.05" stroke="#0F1923" stroke-opacity="1.000000" stroke-width="14.410000" stroke-linejoin="round" stroke-linecap="round"/>
	<path id="Vector" d="M207.15 54.78C212.9 49.03 216.94 47.84 220.44 48.94C237.03 65.53 252.59 75.63 266.7 81.3C276.06 91.07 276.59 101.38 272.19 109.69C265.36 122.6 262.32 140.12 266.12 151.5L252.74 142.63C250.11 134.16 244.11 125.82 237.11 121.78C227.68 116.35 220.06 120.72 220.06 131.58C220.06 133.94 220.85 136.04 221.51 138.52C213.29 117.02 191.62 70.31 207.15 54.78Z" fill="#FFFFFF" fill-opacity="1.000000" fill-rule="nonzero"/>
	<path id="Vector" d="M237.11 121.78C227.68 116.35 220.06 120.72 220.06 131.58C220.06 133.94 220.85 136.04 221.51 138.52C216.32 124.93 205.78 101.29 202.62 81.8C203.45 78.33 204.86 75.29 207.15 73C212.9 67.25 216.94 66.06 220.43 67.16C237.03 83.75 252.59 93.85 266.7 99.52C269.51 102.45 271.44 105.43 272.76 108.39C272.56 108.82 272.41 109.26 272.19 109.69C265.94 121.49 262.94 137.1 265.36 148.41C265.23 149.2 265.12 149.99 265.01 150.78L252.74 142.63C250.11 134.16 244.11 125.82 237.11 121.78Z" fill="#C6402C" fill-opacity="1.000000" fill-rule="nonzero"/>
	<path id="Vector" d="M220.44 48.94C237.03 65.53 252.59 75.63 266.7 81.3C276.06 91.07 276.59 101.38 272.19 109.69C265.36 122.6 262.32 140.12 266.12 151.5L252.74 142.63C250.11 134.16 244.11 125.82 237.11 121.78C227.68 116.35 220.06 120.72 220.06 131.58C220.06 133.94 220.85 136.04 221.51 138.52C213.29 117.02 191.62 70.31 207.15 54.78C212.9 49.03 216.94 47.84 220.44 48.94Z" stroke="#0F1923" stroke-opacity="1.000000" stroke-width="14.410000" stroke-linejoin="round"/>
	<path id="Vector" d="M379.2 78.66C379.2 78.66 374.68 59.07 351.91 73.5C321.4 92.82 274.88 103.62 220.06 48.58C210.14 38.62 248.37 7.2 299.63 7.2C373.16 7.2 399.4 54.97 379.2 78.66Z" fill="#FFFFFF" fill-opacity="1.000000" fill-rule="nonzero"/>
	<path id="Vector" d="M351.91 73.5C322.15 92.35 277.16 103.05 224.09 52.5C235.78 40.05 264.66 25.42 299.63 25.42C349.85 25.42 377.98 47.71 384.35 69.38C383.26 72.73 381.58 75.87 379.2 78.66C379.2 78.66 374.68 59.07 351.91 73.5Z" fill="#C6402C" fill-opacity="1.000000" fill-rule="nonzero"/>
	<path id="Vector" d="M351.91 73.5C321.4 92.82 274.88 103.62 220.06 48.58C210.14 38.62 248.37 7.2 299.63 7.2C373.16 7.2 399.4 54.97 379.2 78.66C379.2 78.66 374.68 59.07 351.91 73.5Z" stroke="#0F1923" stroke-opacity="1.000000" stroke-width="14.410000" stroke-linejoin="round"/>
	<path id="Vector" d="M427.02 300.66L427.01 300.66C427.77 323.99 401.83 355.13 351.31 384.29C278.29 426.45 198.15 438.97 162.1 418.14C150.72 411.58 145.12 402.48 145.04 391.78" stroke="#0F1923" stroke-opacity="1.000000" stroke-width="7.205000" stroke-linejoin="round" stroke-linecap="round"/>
	<path id="Vector" d="M464.34 492.6L503.79 515.38M493.49 521.33L454.05 498.55M483.21 527.28L443.77 504.49M433.47 510.43L472.92 533.21M423.19 516.37L462.63 539.14M452.34 545.08L412.89 522.31M442.06 551.02L402.6 528.25M392.31 534.18L431.76 556.96M421.48 562.9L382.03 540.13M371.74 546.06L411.19 568.85M361.44 552.01L400.9 574.79M390.62 580.72L351.17 557.95M380.33 586.66L340.87 563.88M330.58 569.82L370.03 592.61M320.29 575.77L359.73 598.54M310 581.72L349.44 604.49M474.63 486.66L514.08 509.43M484.93 480.72L524.37 503.49M495.22 474.77L534.67 497.55M505.51 468.83L544.96 491.6M515.81 462.89L555.26 485.66M526.1 456.94L565.55 479.72M536.39 451L575.84 473.78M546.68 445.06L586.14 467.83" stroke="#0F1923" stroke-opacity="1.000000" stroke-width="5.764000" stroke-linejoin="round" stroke-linecap="round"/>
	<path id="Vector" d="M320 326.69L544.57 197.03C548.93 194.52 552.88 194.27 555.72 195.92L587.28 214.13C590.14 215.78 591.91 219.3 591.91 224.32L591.91 417.19C591.91 427.22 584.84 439.44 576.13 444.48L351.56 574.13C347.25 576.62 343.37 576.86 340.52 575.29L340.51 575.31L308.84 557.02C305.99 555.38 304.22 551.86 304.22 546.84L304.22 353.98C304.22 343.94 311.29 331.72 320 326.69Z" fill="#FFFFFF" fill-opacity="1.000000" fill-rule="nonzero"/>
	<path id="Vector" d="M544.57 197.03C548.93 194.52 552.88 194.27 555.72 195.92L587.28 214.13C590.14 215.78 591.91 219.3 591.91 224.32L591.91 417.19C591.91 427.22 584.84 439.44 576.13 444.48L351.56 574.13C347.25 576.62 343.37 576.86 340.52 575.29L340.51 575.31L308.84 557.02C305.99 555.38 304.22 551.86 304.22 546.84L304.22 353.98C304.22 343.94 311.29 331.72 320 326.69L544.57 197.03Z" stroke="#0F1923" stroke-opacity="1.000000" stroke-width="14.410000" stroke-linejoin="round"/>
	<path id="Vector" d="M538.89 218.53L553.99 209.81M324.62 566.13C321.77 564.49 320 560.97 320 555.95L320 363.09C320 353.05 327.07 340.83 335.78 335.8L523.38 227.5" stroke="#0F1923" stroke-opacity="1.000000" stroke-width="7.205000" stroke-linejoin="round" stroke-linecap="round"/>
	<path id="Vector" d="M335.78 565.06L335.78 372.2C335.78 362.16 342.85 349.94 351.56 344.91L576.13 215.25C584.85 210.23 591.91 214.29 591.91 224.32L591.91 417.19C591.91 427.22 584.85 439.44 576.13 444.48L351.56 574.13C342.85 579.15 335.78 575.1 335.78 565.06Z" fill="#FFFFFF" fill-opacity="1.000000" fill-rule="nonzero"/>
	<path id="Vector" d="M335.78 372.2C335.78 362.16 342.85 349.94 351.56 344.91L576.13 215.25C584.85 210.23 591.91 214.29 591.91 224.32L591.91 417.19C591.91 427.22 584.85 439.44 576.13 444.48L351.56 574.13C342.85 579.15 335.78 575.1 335.78 565.06L335.78 372.2Z" stroke="#0F1923" stroke-opacity="1.000000" stroke-width="14.410000" stroke-linejoin="round"/>
	<path id="Vector" d="M390.58 350.98L390.58 523.01M419.89 334.05L419.89 506.08M449.19 489.16L449.19 317.13M478.49 472.24L478.49 300.21M507.8 283.29L507.8 455.32M537.11 438.41L537.1 266.37" stroke="#0F1923" stroke-opacity="1.000000" stroke-width="7.205000" stroke-linejoin="round" stroke-linecap="round"/>
	<path id="Vector" d="M562.33 423.85L365.35 537.58" stroke="#0F1923" stroke-opacity="1.000000" stroke-width="14.410000" stroke-linejoin="round" stroke-linecap="round"/>
	<path id="Vector" d="M606.18 272.29L553.98 302.27L573.15 313.34L573.15 313.34C562.09 350.88 551.26 388.93 529.16 401.69C521.4 406.17 515.04 405.92 509.56 402.65L551.96 427.14C557.36 430.23 563.64 430.38 571.24 425.98C593.34 413.22 604.17 375.18 615.24 337.64L634.41 348.7L606.18 272.29Z" fill="#FFFFFF" fill-opacity="1.000000" fill-rule="nonzero"/>
	<path id="Vector" d="M571.24 425.98C563.64 430.38 557.36 430.23 551.96 427.14L533.83 416.66C552.84 401.53 562.91 366.35 573.15 331.56L573.15 331.56L568.53 328.9C570.09 323.75 571.63 318.54 573.15 313.34L573.15 313.34L569.8 311.4L606.18 290.51L625.85 343.76L615.24 337.64C604.17 375.18 593.34 413.22 571.24 425.98Z" fill="#EEB756" fill-opacity="1.000000" fill-rule="nonzero"/>
	<path id="Vector" d="M553.98 302.27L573.15 313.34L573.15 313.34C562.09 350.88 551.26 388.93 529.16 401.69C521.4 406.17 515.04 405.92 509.56 402.65L551.96 427.14C557.36 430.23 563.64 430.38 571.24 425.98C593.34 413.22 604.17 375.18 615.24 337.64L634.41 348.7L606.18 272.29L553.98 302.27Z" stroke="#0F1923" stroke-opacity="1.000000" stroke-width="14.410000" stroke-linejoin="round"/>
	<path id="Vector" d="M504.38 352.91L462.4 328.68C481.83 340.7 490.02 390.96 509.56 402.65L551.96 427.14C532.15 415.8 523.99 364.9 504.38 352.91Z" fill="#FFFFFF" fill-opacity="1.000000" fill-rule="nonzero"/>
	<path id="Vector" d="M462.4 328.68C481.83 340.7 490.02 390.96 509.56 402.65L551.96 427.14C532.15 415.8 523.99 364.9 504.38 352.91L462.4 328.68Z" stroke="#0F1923" stroke-opacity="1.000000" stroke-width="14.410000" stroke-linejoin="round"/>
	<path id="Vector" d="M462.4 328.68C456.86 325.25 450.42 324.92 442.53 329.48C399.2 354.49 399.21 476.72 355.88 501.74L397.96 526.03C441.29 501.01 441.28 378.78 484.61 353.77C492.45 349.24 498.87 349.54 504.38 352.91L462.4 328.68Z" fill="#FFFFFF" fill-opacity="1.000000" fill-rule="nonzero"/>
	<path id="Vector" d="M397.95 526.03L368.28 508.9C399.67 470.06 403.8 370.06 442.53 347.7C450.42 343.14 456.86 343.47 462.4 346.9L479.94 357.02C441.24 387.84 439.66 501.95 397.95 526.03Z" fill="#EEB756" fill-opacity="1.000000" fill-rule="nonzero"/>
	<path id="Vector" d="M442.53 329.48C399.2 354.49 399.21 476.72 355.88 501.74L397.96 526.03C441.29 501.01 441.28 378.78 484.61 353.77C492.45 349.24 498.87 349.54 504.38 352.91L462.4 328.68C456.86 325.25 450.42 324.92 442.53 329.48Z" stroke="#0F1923" stroke-opacity="1.000000" stroke-width="14.410000" stroke-linejoin="round"/>
</svg>
