<svg width="55.000000" height="55.000000" viewBox="0 0 55 55" fill="none" xmlns="http://www.w3.org/2000/svg" xmlns:xlink="http://www.w3.org/1999/xlink">
	
	<defs>
		<clipPath id="clip14_94">
			<rect id="fi_16243926" rx="0.000000" width="54.000000" height="54.000000" transform="translate(0.500000 0.500000)" fill="white" fill-opacity="0"/>
		</clipPath>
	</defs>
	<rect id="fi_16243926" rx="0.000000" width="54.000000" height="54.000000" transform="translate(0.500000 0.500000)" fill="#FFFFFF" fill-opacity="0"/>
	<g clip-path="url(#clip14_94)">
		<path id="Vector" d="M41.47 28.64L40.67 40.33L28.3 52.7L29.56 40.56L41.47 28.64Z" fill="#E8613B" fill-opacity="1.000000" fill-rule="nonzero"/>
		<path id="Vector" d="M28.3 54.42C28.07 54.42 27.84 54.42 27.61 54.31C26.92 53.96 26.58 53.28 26.69 52.59L27.95 40.44L31.39 40.79L30.59 48.01L39.07 39.53L39.87 28.41L43.31 28.64L42.39 40.33C42.39 40.79 42.16 41.13 41.93 41.36L29.44 53.96C29.1 54.19 28.76 54.42 28.3 54.42Z" fill="#151544" fill-opacity="1.000000" fill-rule="nonzero"/>
		<path id="Vector" d="M26.35 13.52L14.66 14.43L2.29 26.69L14.43 25.43L26.35 13.52Z" fill="#E8613B" fill-opacity="1.000000" fill-rule="nonzero"/>
		<path id="Vector" d="M2.29 28.41C1.6 28.41 1.03 28.07 0.68 27.38C0.34 26.69 0.45 25.89 1.03 25.43L13.4 13.06C13.75 12.71 14.09 12.6 14.43 12.6L26.12 11.68L26.35 15.12L15.35 16.04L6.87 24.52L14.09 23.71L14.43 27.15L2.52 28.41C2.4 28.41 2.4 28.41 2.29 28.41Z" fill="#151544" fill-opacity="1.000000" fill-rule="nonzero"/>
		<path id="Vector" d="M51.33 11.45L52.7 2.29L43.54 3.66C37.92 4.46 32.77 7.1 28.76 11.11L14.43 25.43L19.47 30.47C24.06 26.81 28.76 23.71 33.22 21.77C31.28 26.23 28.3 31.05 24.52 35.52L29.56 40.56L44 26.12C48.01 22.22 50.53 16.95 51.33 11.45Z" fill="#FFFFFF" fill-opacity="1.000000" fill-rule="nonzero"/>
		<path id="Vector" d="M29.56 42.28C29.1 42.28 28.64 42.16 28.3 41.82L23.26 36.78C22.68 36.2 22.57 35.17 23.14 34.48C25.55 31.51 27.61 28.53 29.33 25.66C26.46 27.27 23.48 29.44 20.51 31.85C19.82 32.42 18.79 32.31 18.21 31.73L13.17 26.69C12.83 26.35 12.71 25.89 12.71 25.43C12.71 24.97 12.94 24.52 13.17 24.17L27.61 9.85C31.85 5.61 37.46 2.86 43.42 1.94L52.59 0.57C53.16 0.45 53.62 0.68 54.08 1.03C54.42 1.37 54.65 1.94 54.54 2.52L53.16 11.68C52.25 17.64 49.5 23.26 45.26 27.5L30.82 41.82C30.47 42.16 30.02 42.28 29.56 42.28ZM26.81 35.4L29.56 38.15L42.73 24.97C46.4 21.31 48.92 16.38 49.72 11.11L50.76 4.23L43.88 5.27C38.72 6.07 33.8 8.47 30.02 12.14L16.84 25.43L19.59 28.18C23.94 24.75 28.41 22 32.54 20.16C33.22 19.93 33.91 20.05 34.48 20.51C34.94 20.96 35.17 21.77 34.83 22.45C33 26.58 30.25 31.05 26.81 35.4Z" fill="#151544" fill-opacity="1.000000" fill-rule="nonzero"/>
		<path id="Vector" d="M18.1 42.51L12.48 36.89L13.29 36.09C15.23 34.14 17.3 32.19 19.47 30.47C24.06 26.81 28.76 23.71 33.22 21.77C31.28 26.23 28.3 31.05 24.52 35.52C22.57 37.92 20.39 40.33 18.1 42.51Z" fill="#E8613B" fill-opacity="1.000000" fill-rule="nonzero"/>
		<path id="Vector" d="M18.1 44.22C17.64 44.22 17.18 44.11 16.84 43.77L11.22 38.15C10.54 37.46 10.54 36.43 11.22 35.75C11.45 35.52 11.8 35.17 12.03 34.94C14.09 32.88 16.27 30.93 18.33 29.21C23.14 25.32 28.07 22.22 32.54 20.28C33.22 20.05 33.91 20.16 34.48 20.62C34.94 21.08 35.17 21.88 34.83 22.57C32.88 27.04 29.79 31.96 25.89 36.78C23.83 39.3 21.65 41.59 19.36 43.88C19.02 44.11 18.56 44.22 18.1 44.22ZM14.89 36.89L18.1 40.1C19.93 38.27 21.54 36.43 23.14 34.48C25.55 31.51 27.61 28.53 29.33 25.66C26.46 27.27 23.48 29.44 20.51 31.85C18.56 33.34 16.72 35.06 14.89 36.89Z" fill="#151544" fill-opacity="1.000000" fill-rule="nonzero"/>
		<path id="Vector" d="M41.28 9.65C43.62 9.73 45.46 11.69 45.38 14.03C45.3 16.37 43.34 18.2 41 18.12C38.66 18.04 36.83 16.08 36.9 13.74C36.98 11.4 38.95 9.57 41.28 9.65Z" fill="#E8613B" fill-opacity="1.000000" fill-rule="evenodd"/>
		<path id="Vector" d="M41.13 19.82C39.64 19.82 38.04 19.25 36.89 18.1C35.75 16.95 35.17 15.46 35.17 13.86C35.17 12.26 35.75 10.77 36.89 9.62C39.18 7.33 42.96 7.33 45.26 9.62C47.55 11.91 47.55 15.69 45.26 17.98C44.11 19.25 42.62 19.82 41.13 19.82ZM41.13 11.34C40.44 11.34 39.87 11.57 39.41 12.03C38.95 12.48 38.72 13.17 38.72 13.75C38.72 14.32 38.95 15.01 39.41 15.46C40.33 16.38 42.05 16.38 42.96 15.46C43.88 14.55 43.88 12.94 42.96 11.91C42.39 11.68 41.82 11.34 41.13 11.34Z" fill="#151544" fill-opacity="1.000000" fill-rule="nonzero"/>
	</g>
</svg>
