<svg width="54.000000" height="54.000000" viewBox="0 0 54 54" fill="none" xmlns="http://www.w3.org/2000/svg" xmlns:xlink="http://www.w3.org/1999/xlink">
	
	<defs>
		<clipPath id="clip1_543">
			<rect id="fi_61109" rx="0.000000" width="53.000000" height="53.000000" transform="translate(0.500000 0.500000)" fill="white" fill-opacity="0"/>
		</clipPath>
	</defs>
	<rect id="fi_61109" rx="0.000000" width="53.000000" height="53.000000" transform="translate(0.500000 0.500000)" fill="#FFFFFF" fill-opacity="0"/>
	<g clip-path="url(#clip1_543)">
		<path id="Vector" d="M48.6 0L5.39 0C2.42 0 0 2.43 0 5.39L0 48.6C0 51.56 2.42 54 5.39 54L48.6 54C51.57 54 54 51.56 54 48.6L54 5.39C54 2.43 51.57 0 48.6 0ZM16.2 45.89L8.1 45.89L8.1 21.6L16.2 21.6L16.2 45.89ZM12.15 17C9.45 17 7.28 14.85 7.28 12.14C7.28 9.45 9.45 7.29 12.15 7.29C14.85 7.29 17.01 9.45 17.01 12.14C17.01 14.85 14.85 17 12.15 17ZM45.9 45.89L37.8 45.89L37.8 31.58C37.8 29.43 35.91 27.54 33.75 27.54C31.59 27.54 29.7 29.43 29.7 31.58L29.7 45.89L21.6 45.89L21.6 21.6L29.7 21.6L29.7 24.83C31.05 22.68 34.02 21.06 36.45 21.06C41.58 21.06 45.9 25.37 45.9 30.5L45.9 45.89Z" fill="#0F1923" fill-opacity="1.000000" fill-rule="nonzero"/>
	</g>
</svg>
