<svg width="55.000000" height="55.000000" viewBox="0 0 55 55" fill="none" xmlns="http://www.w3.org/2000/svg" xmlns:xlink="http://www.w3.org/1999/xlink">
	
	<defs>
		<clipPath id="clip21_138">
			<rect id="fi_3919554" rx="0.000000" width="54.000000" height="54.000000" transform="translate(0.500000 0.500000)" fill="white" fill-opacity="0"/>
		</clipPath>
	</defs>
	<rect id="fi_3919554" rx="0.000000" width="54.000000" height="54.000000" transform="translate(0.500000 0.500000)" fill="#FFFFFF" fill-opacity="0"/>
	<g clip-path="url(#clip21_138)">
		<path id="Vector" d="M26 16.19L19.6 9.8C18.23 8.43 16.01 8.43 14.64 9.8L8.24 16.19C6.02 18.4 7.59 22.19 10.72 22.19L11.59 22.19L11.59 47.24L22.65 47.24L22.65 22.19L23.52 22.19C26.65 22.19 28.21 18.4 26 16.19Z" fill="#EEB756" fill-opacity="1.000000" fill-rule="nonzero"/>
		<path id="Vector" d="M46.75 8.21L40.35 1.82C38.98 0.46 36.76 0.46 35.39 1.82L28.99 8.21C26.78 10.43 28.34 14.21 31.47 14.21L32.34 14.21L32.34 39.26L43.4 39.26L43.4 14.21L44.27 14.21C47.4 14.21 48.97 10.43 46.75 8.21Z" fill="#E8613B" fill-opacity="1.000000" fill-rule="nonzero"/>
		<path id="Vector" d="M33.14 8.21C30.92 10.43 32.49 14.21 35.62 14.21L36.49 14.21L36.49 39.26L32.34 39.26L32.34 14.21L31.47 14.21C28.34 14.21 26.77 10.43 28.99 8.21L35.39 1.82C36.63 0.58 38.57 0.47 39.95 1.47C39.8 1.58 39.67 1.7 39.54 1.82L33.14 8.21Z" fill="#E8613B" fill-opacity="1.000000" fill-rule="nonzero"/>
		<path id="Vector" d="M49.88 30.02L49.88 51.18C49.88 52.84 48.53 54.19 46.87 54.19L8.12 54.19C6.46 54.19 5.11 52.84 5.11 51.18L5.11 30.02C5.11 28.36 6.46 27.01 8.12 27.01L46.87 27.01C48.53 27.01 49.88 28.36 49.88 30.02Z" fill="#FFFFFF" fill-opacity="1.000000" fill-rule="nonzero"/>
		<path id="Vector" d="M37.01 40.6C37.01 45.85 32.75 50.11 27.49 50.11C22.24 50.11 17.98 45.85 17.98 40.6C17.98 35.35 22.24 31.09 27.49 31.09C32.75 31.09 37.01 35.35 37.01 40.6Z" fill="#FFFFFF" fill-opacity="1.000000" fill-rule="evenodd"/>
		<path id="Vector" d="M49.88 45.58L49.88 51.18C49.88 52.84 48.53 54.19 46.87 54.19L41.27 54.19C41.27 49.44 45.12 45.58 49.88 45.58Z" fill="#FFFFFF" fill-opacity="1.000000" fill-rule="nonzero"/>
		<path id="Vector" d="M49.88 30.02L49.88 35.62C45.12 35.62 41.27 31.77 41.27 27.01L46.87 27.01C48.53 27.01 49.88 28.36 49.88 30.02Z" fill="#FFFFFF" fill-opacity="1.000000" fill-rule="nonzero"/>
		<path id="Vector" d="M13.72 54.19L8.12 54.19C6.46 54.19 5.11 52.84 5.11 51.18L5.11 45.58C9.87 45.58 13.72 49.44 13.72 54.19Z" fill="#FFFFFF" fill-opacity="1.000000" fill-rule="nonzero"/>
		<path id="Vector" d="M13.72 27.01C13.72 31.77 9.87 35.62 5.11 35.62L5.11 30.02C5.11 28.36 6.46 27.01 8.12 27.01L13.72 27.01Z" fill="#FFFFFF" fill-opacity="1.000000" fill-rule="nonzero"/>
		<path id="Vector" d="M44.05 40.6C44.05 41.61 43.23 42.43 42.22 42.43C41.21 42.43 40.39 41.61 40.39 40.6C40.39 39.59 41.21 38.77 42.22 38.77C43.23 38.77 44.05 39.59 44.05 40.6Z" fill="#FFFFFF" fill-opacity="1.000000" fill-rule="evenodd"/>
		<path id="Vector" d="M14.6 40.6C14.6 41.61 13.78 42.43 12.77 42.43C11.76 42.43 10.94 41.61 10.94 40.6C10.94 39.59 11.76 38.77 12.77 38.77C13.78 38.77 14.6 39.59 14.6 40.6Z" fill="#FFFFFF" fill-opacity="1.000000" fill-rule="evenodd"/>
		<path id="Vector" d="M27.49 50.92C33.18 50.92 37.81 46.29 37.81 40.6C37.81 34.91 33.18 30.28 27.49 30.28C24.19 30.28 21.06 31.89 19.12 34.58C18.86 34.94 18.94 35.44 19.3 35.7C19.66 35.96 20.17 35.88 20.43 35.52C22.06 33.25 24.7 31.9 27.49 31.9C32.3 31.9 36.2 35.8 36.2 40.6C36.2 45.4 32.3 49.31 27.49 49.31C22.69 49.31 18.79 45.4 18.79 40.6C18.79 39.77 18.91 38.95 19.14 38.16C19.26 37.73 19.02 37.28 18.59 37.16C18.16 37.03 17.72 37.28 17.59 37.71C17.32 38.64 17.18 39.61 17.18 40.6C17.18 46.29 21.81 50.92 27.49 50.92Z" fill="#151544" fill-opacity="1.000000" fill-rule="nonzero"/>
		<path id="Vector" d="M46.87 26.21L44.21 26.21L44.21 15.02L44.27 15.02C46.05 15.02 47.58 14 48.26 12.35C48.94 10.71 48.58 8.9 47.32 7.64L45.79 6.11C45.47 5.8 44.96 5.8 44.65 6.11C44.34 6.43 44.34 6.94 44.65 7.25L46.18 8.78C47.13 9.73 47.11 10.93 46.77 11.74C46.44 12.54 45.61 13.41 44.27 13.41L43.4 13.41C42.96 13.41 42.6 13.77 42.6 14.21L42.6 26.21L33.15 26.21L33.15 14.21C33.15 13.77 32.79 13.41 32.34 13.41L31.47 13.41C30.14 13.41 29.31 12.54 28.97 11.74C28.64 10.93 28.62 9.73 29.56 8.78L35.96 2.39C37.01 1.34 38.73 1.34 39.79 2.4L42.37 4.98C42.69 5.29 43.2 5.29 43.51 4.98C43.82 4.66 43.82 4.15 43.51 3.84L41.07 1.4L40.92 1.25C39.24 -0.42 36.5 -0.42 34.82 1.25L28.42 7.64C27.16 8.9 26.8 10.71 27.48 12.35C28.16 14 29.69 15.02 31.47 15.02L31.54 15.02L31.54 26.21L23.45 26.21L23.45 22.99L23.52 22.99C25.3 22.99 26.83 21.97 27.51 20.33C28.19 18.68 27.83 16.88 26.57 15.62L20.17 9.23C18.49 7.55 15.75 7.55 14.07 9.23L7.67 15.62C6.41 16.88 6.05 18.68 6.73 20.33C7.41 21.97 8.94 22.99 10.72 22.99L10.78 22.99L10.78 26.21L8.12 26.21C6.02 26.21 4.31 27.92 4.31 30.02L4.31 51.18C4.31 53.28 6.02 55 8.12 55L46.87 55C48.97 55 50.68 53.28 50.68 51.18L50.68 30.02C50.68 27.92 48.97 26.21 46.87 26.21ZM49.07 30.02L49.07 34.77C45.41 34.39 42.49 31.48 42.12 27.82L46.87 27.82C48.08 27.82 49.07 28.81 49.07 30.02ZM40.5 27.82C40.89 32.37 44.52 36 49.07 36.39L49.07 44.81C44.52 45.2 40.89 48.84 40.5 53.38L14.49 53.38C14.1 48.84 10.47 45.2 5.92 44.81L5.92 36.39C10.47 36 14.1 32.37 14.49 27.82L40.5 27.82ZM11.59 21.38L10.72 21.38C9.39 21.38 8.55 20.52 8.22 19.71C7.88 18.9 7.86 17.7 8.81 16.76L15.2 10.37C16.26 9.32 17.98 9.32 19.03 10.37L25.43 16.76C26.37 17.7 26.35 18.9 26.02 19.71C25.68 20.52 24.85 21.38 23.52 21.38L22.65 21.38C22.2 21.38 21.84 21.74 21.84 22.19L21.84 26.21L12.4 26.21L12.4 22.19C12.39 21.74 12.03 21.38 11.59 21.38ZM8.12 27.82L12.87 27.82C12.5 31.48 9.58 34.39 5.92 34.77L5.92 30.02C5.92 28.81 6.91 27.82 8.12 27.82ZM5.92 51.18L5.92 46.43C9.58 46.81 12.5 49.72 12.87 53.38L8.12 53.38C6.91 53.38 5.92 52.4 5.92 51.18ZM46.87 53.38L42.12 53.38C42.49 49.72 45.41 46.81 49.07 46.43L49.07 51.18C49.07 52.4 48.08 53.38 46.87 53.38Z" fill="#151544" fill-opacity="1.000000" fill-rule="nonzero"/>
		<path id="Vector" d="M27.43 41.55C26.99 41.55 26.63 41.91 26.63 42.36L26.63 44.5C26.19 44.45 25.87 44.31 25.36 43.98C24.99 43.74 24.49 43.84 24.24 44.21C24 44.58 24.11 45.08 24.48 45.33C25.32 45.88 25.91 46.06 26.63 46.11L26.63 46.72C26.63 47.17 26.99 47.53 27.43 47.53C27.88 47.53 28.24 47.17 28.24 46.72L28.24 46.04C29.69 45.7 30.63 44.46 30.83 43.25C31.09 41.69 30.28 40.33 28.75 39.79C27.85 39.47 26.85 39.08 26.28 38.64C26.05 38.46 25.95 38.09 26.03 37.69C26.09 37.37 26.28 37 26.63 36.79L26.63 37.91C26.63 38.35 26.99 38.71 27.43 38.71C27.88 38.71 28.24 38.35 28.24 37.91L28.24 36.68C28.59 36.8 28.8 36.96 28.85 37C29.19 37.28 29.7 37.24 29.98 36.89C30.26 36.55 30.22 36.04 29.88 35.76C29.72 35.63 29.13 35.19 28.24 35.02L28.24 34.48C28.24 34.04 27.88 33.68 27.43 33.68C26.99 33.68 26.63 34.04 26.63 34.48L26.63 35.08C26.56 35.1 26.49 35.12 26.42 35.14C25.41 35.44 24.65 36.31 24.45 37.39C24.26 38.39 24.58 39.35 25.28 39.9C25.89 40.38 26.74 40.79 28.21 41.31C29.36 41.71 29.29 42.69 29.24 42.98C29.15 43.51 28.81 44.06 28.24 44.34L28.24 42.36C28.24 41.91 27.88 41.55 27.43 41.55Z" fill="#151544" fill-opacity="1.000000" fill-rule="nonzero"/>
		<path id="Vector" d="M42.22 43.24C43.67 43.24 44.85 42.05 44.85 40.6C44.85 39.15 43.67 37.97 42.22 37.97C40.77 37.97 39.59 39.15 39.59 40.6C39.59 42.05 40.77 43.24 42.22 43.24ZM42.22 39.58C42.78 39.58 43.24 40.04 43.24 40.6C43.24 41.17 42.78 41.62 42.22 41.62C41.66 41.62 41.2 41.17 41.2 40.6C41.2 40.04 41.66 39.58 42.22 39.58Z" fill="#151544" fill-opacity="1.000000" fill-rule="nonzero"/>
		<path id="Vector" d="M10.14 40.6C10.14 42.05 11.32 43.24 12.77 43.24C14.22 43.24 15.4 42.05 15.4 40.6C15.4 39.15 14.22 37.97 12.77 37.97C11.32 37.97 10.14 39.15 10.14 40.6ZM12.77 39.58C13.33 39.58 13.79 40.04 13.79 40.6C13.79 41.17 13.33 41.62 12.77 41.62C12.21 41.62 11.75 41.17 11.75 40.6C11.75 40.04 12.21 39.58 12.77 39.58Z" fill="#151544" fill-opacity="1.000000" fill-rule="nonzero"/>
	</g>
</svg>
