<svg width="55.000000" height="55.000000" viewBox="0 0 55 55" fill="none" xmlns="http://www.w3.org/2000/svg" xmlns:xlink="http://www.w3.org/1999/xlink">
	
	<defs>
		<clipPath id="clip21_38">
			<rect id="fi_2831004" rx="0.000000" width="54.000000" height="54.000000" transform="translate(0.500000 0.500000)" fill="white" fill-opacity="0"/>
		</clipPath>
	</defs>
	<rect id="fi_2831004" rx="0.000000" width="54.000000" height="54.000000" transform="translate(0.500000 0.500000)" fill="#FFFFFF" fill-opacity="0"/>
	<g clip-path="url(#clip21_38)">
		<path id="Vector" d="M24.83 34.77C24.83 41.14 19.66 46.3 13.3 46.3C6.93 46.3 1.77 41.14 1.77 34.77C1.77 28.4 6.93 23.24 13.3 23.24C19.66 23.24 24.83 28.4 24.83 34.77Z" fill="#FFFFFF" fill-opacity="1.000000" fill-rule="evenodd"/>
		<path id="Vector" d="M20.19 25.53C21.63 27.45 22.48 29.84 22.48 32.42C22.48 38.79 17.32 43.95 10.95 43.95C8.37 43.95 5.98 43.1 4.06 41.66C6.16 44.48 9.52 46.3 13.3 46.3C19.66 46.3 24.83 41.14 24.83 34.77C24.83 30.99 23.01 27.63 20.19 25.53Z" fill="#FFFFFF" fill-opacity="1.000000" fill-rule="nonzero"/>
		<path id="Vector" d="M53.08 34.78C53.08 41.14 47.92 46.31 41.55 46.31C35.19 46.31 30.02 41.14 30.02 34.78C30.02 28.41 35.19 23.25 41.55 23.25C47.92 23.25 53.08 28.41 53.08 34.78Z" fill="#FFFFFF" fill-opacity="1.000000" fill-rule="evenodd"/>
		<path id="Vector" d="M48.45 25.54C49.89 27.46 50.74 29.85 50.74 32.43C50.74 38.8 45.58 43.96 39.21 43.96C36.62 43.96 34.24 43.11 32.31 41.67C34.42 44.48 37.77 46.31 41.55 46.31C47.92 46.31 53.08 41.14 53.08 34.78C53.08 30.99 51.26 27.64 48.45 25.54Z" fill="#FFFFFF" fill-opacity="1.000000" fill-rule="nonzero"/>
		<path id="Vector" d="M24.83 27.59C24.83 33.96 19.66 39.12 13.3 39.12C6.93 39.12 1.77 33.96 1.77 27.59C1.77 21.22 6.93 16.06 13.3 16.06C19.66 16.06 24.83 21.22 24.83 27.59Z" fill="#FFFFFF" fill-opacity="1.000000" fill-rule="evenodd"/>
		<path id="Vector" d="M20.19 18.35C21.63 20.27 22.48 22.66 22.48 25.25C22.48 31.61 17.32 36.78 10.95 36.78C8.37 36.78 5.98 35.92 4.06 34.49C6.16 37.3 9.52 39.12 13.3 39.12C19.66 39.12 24.83 33.96 24.83 27.59C24.83 23.81 23.01 20.45 20.19 18.35Z" fill="#FFFFFF" fill-opacity="1.000000" fill-rule="nonzero"/>
		<path id="Vector" d="M24.83 20.41C24.83 26.78 19.66 31.94 13.3 31.94C6.93 31.94 1.77 26.78 1.77 20.41C1.77 14.04 6.93 8.88 13.3 8.88C19.66 8.88 24.83 14.04 24.83 20.41Z" fill="#FFFFFF" fill-opacity="1.000000" fill-rule="evenodd"/>
		<path id="Vector" d="M20.19 11.17C21.63 13.09 22.48 15.48 22.48 18.07C22.48 24.43 17.32 29.6 10.95 29.6C8.37 29.6 5.98 28.75 4.06 27.31C6.16 30.12 9.52 31.94 13.3 31.94C19.66 31.94 24.83 26.78 24.83 20.41C24.83 16.63 23.01 13.27 20.19 11.17Z" fill="#FFFFFF" fill-opacity="1.000000" fill-rule="nonzero"/>
		<path id="Vector" d="M24.83 13.15C24.83 19.52 19.66 24.68 13.3 24.68C6.93 24.68 1.77 19.52 1.77 13.15C1.77 6.78 6.93 1.62 13.3 1.62C19.66 1.62 24.83 6.78 24.83 13.15Z" fill="#6FE1D6" fill-opacity="1.000000" fill-rule="evenodd"/>
		<path id="Vector" d="M20.19 3.91C21.63 5.83 22.48 8.22 22.48 10.8C22.48 17.17 17.32 22.33 10.95 22.33C8.37 22.33 5.98 21.48 4.06 20.04C6.16 22.86 9.52 24.68 13.3 24.68C19.66 24.68 24.83 19.52 24.83 13.15C24.83 9.37 23.01 6.01 20.19 3.91Z" fill="#6FE1D6" fill-opacity="1.000000" fill-rule="nonzero"/>
		<path id="Vector" d="M23.75 54.19L2.84 54.19C2.25 54.19 1.77 53.71 1.77 53.12L1.77 50.35C1.77 49.75 2.25 49.27 2.84 49.27L23.75 49.27C24.35 49.27 24.83 49.75 24.83 50.35L24.83 53.12C24.83 53.71 24.35 54.19 23.75 54.19Z" fill="#FFFFFF" fill-opacity="1.000000" fill-rule="nonzero"/>
		<path id="Vector" d="M23.75 49.27L22.38 49.27L22.38 50.67C22.38 51.26 21.9 51.74 21.31 51.74L1.77 51.74L1.77 53.12C1.77 53.71 2.25 54.19 2.84 54.19L23.75 54.19C24.35 54.19 24.83 53.71 24.83 53.12L24.83 50.35C24.83 49.75 24.35 49.27 23.75 49.27Z" fill="#FFFFFF" fill-opacity="1.000000" fill-rule="nonzero"/>
		<path id="Vector" d="M13.05 16.75C12.5 16.75 11.98 16.51 11.62 16.09L8.32 12.24C7.65 11.46 7.74 10.27 8.53 9.59C9.31 8.92 10.5 9.01 11.18 9.8L12.67 11.54C12.76 11.65 12.93 11.64 13.01 11.52L19.53 1.65C20.1 0.78 21.27 0.54 22.13 1.11C23 1.68 23.24 2.85 22.67 3.72L14.62 15.91C14.27 16.43 13.68 16.75 13.05 16.75Z" fill="#FFFFFF" fill-opacity="1.000000" fill-rule="nonzero"/>
		<path id="Vector" d="M22.13 1.11C21.98 1.01 21.82 0.94 21.65 0.89C21.81 1.41 21.75 1.99 21.43 2.48L13.38 14.67C13.03 15.19 12.44 15.51 11.81 15.51C11.5 15.51 11.2 15.43 10.93 15.29L11.62 16.09C11.98 16.51 12.5 16.75 13.05 16.75C13.68 16.75 14.27 16.43 14.62 15.91L22.67 3.72C23.24 2.85 23 1.68 22.13 1.11Z" fill="#FFFFFF" fill-opacity="1.000000" fill-rule="nonzero"/>
		<path id="Vector" d="M53.08 27.6C53.08 33.97 47.92 39.13 41.55 39.13C35.19 39.13 30.02 33.97 30.02 27.6C30.02 21.23 35.19 16.07 41.55 16.07C47.92 16.07 53.08 21.23 53.08 27.6Z" fill="#FFFFFF" fill-opacity="1.000000" fill-rule="evenodd"/>
		<path id="Vector" d="M48.45 18.36C49.89 20.28 50.74 22.67 50.74 25.25C50.74 31.62 45.58 36.78 39.21 36.78C36.62 36.78 34.24 35.93 32.31 34.49C34.42 37.31 37.77 39.13 41.55 39.13C47.92 39.13 53.08 33.97 53.08 27.6C53.08 23.82 51.26 20.46 48.45 18.36Z" fill="#FFFFFF" fill-opacity="1.000000" fill-rule="nonzero"/>
		<path id="Vector" d="M53.08 20.95C53.08 27.32 47.92 32.48 41.55 32.48C35.19 32.48 30.02 27.32 30.02 20.95C30.02 14.58 35.19 9.42 41.55 9.42C47.92 9.42 53.08 14.58 53.08 20.95Z" fill="#E8613B" fill-opacity="1.000000" fill-rule="evenodd"/>
		<path id="Vector" d="M48.45 11.71C49.89 13.63 50.74 16.02 50.74 18.6C50.74 24.97 45.58 30.13 39.21 30.13C36.62 30.13 34.24 29.28 32.31 27.84C34.42 30.66 37.77 32.48 41.55 32.48C47.92 32.48 53.08 27.32 53.08 20.95C53.08 17.17 51.26 13.81 48.45 11.71Z" fill="#E8613B" fill-opacity="1.000000" fill-rule="nonzero"/>
		<path id="Vector" d="M52.15 54.19L31.24 54.19C30.64 54.19 30.16 53.71 30.16 53.12L30.16 50.35C30.16 49.75 30.64 49.27 31.24 49.27L52.15 49.27C52.74 49.27 53.22 49.75 53.22 50.35L53.22 53.12C53.22 53.71 52.74 54.19 52.15 54.19Z" fill="#FFFFFF" fill-opacity="1.000000" fill-rule="nonzero"/>
		<path id="Vector" d="M52.15 49.27L50.78 49.27L50.78 50.67C50.78 51.26 50.3 51.74 49.7 51.74L30.16 51.74L30.16 53.12C30.16 53.71 30.64 54.19 31.24 54.19L52.15 54.19C52.74 54.19 53.22 53.71 53.22 53.12L53.22 50.35C53.22 49.75 52.74 49.27 52.15 49.27Z" fill="#FFFFFF" fill-opacity="1.000000" fill-rule="nonzero"/>
		<path id="Vector" d="M44.36 20.68L46.82 18.22C47.57 17.48 47.59 16.23 46.83 15.5C46.1 14.79 44.92 14.8 44.2 15.53L41.71 18.02C41.62 18.11 41.49 18.11 41.4 18.02L38.91 15.53C38.18 14.8 37.01 14.79 36.28 15.5C35.52 16.23 35.54 17.48 36.29 18.22L38.74 20.68C38.83 20.76 38.83 20.9 38.74 20.98L36.28 23.44C35.55 24.18 35.51 25.38 36.24 26.12C36.61 26.5 37.09 26.69 37.58 26.69C38.06 26.69 38.54 26.5 38.91 26.13L41.4 23.64C41.49 23.56 41.62 23.56 41.71 23.64L44.2 26.13C44.57 26.5 45.05 26.69 45.53 26.69C46.01 26.69 46.5 26.5 46.87 26.12C47.6 25.38 47.56 24.18 46.82 23.44L44.36 20.98C44.28 20.9 44.28 20.76 44.36 20.68Z" fill="#FFFFFF" fill-opacity="1.000000" fill-rule="nonzero"/>
		<path id="Vector" d="M46.82 23.44L44.36 20.98C44.28 20.9 44.28 20.76 44.36 20.68L46.82 18.22C47.57 17.48 47.59 16.23 46.83 15.5C46.21 14.9 45.27 14.82 44.56 15.25C44.68 15.32 44.79 15.4 44.9 15.5C45.66 16.23 45.63 17.48 44.89 18.22L42.43 20.68C42.35 20.76 42.35 20.9 42.43 20.98L44.89 23.44C45.62 24.18 45.66 25.38 44.94 26.12C44.82 26.24 44.69 26.34 44.56 26.42C44.86 26.59 45.19 26.69 45.53 26.69C46.01 26.69 46.5 26.5 46.87 26.12C47.6 25.38 47.56 24.18 46.82 23.44Z" fill="#FFFFFF" fill-opacity="1.000000" fill-rule="nonzero"/>
		<path id="Vector" d="M29.22 34.78C29.22 41.58 34.75 47.11 41.55 47.11C48.35 47.11 53.89 41.58 53.89 34.78C53.88 33.54 53.72 32.37 53.36 31.19C53.7 30.05 53.89 28.85 53.89 27.6C53.88 26.46 53.74 25.36 53.43 24.28C53.73 23.22 53.89 22.1 53.89 20.95C53.89 17.56 52.48 14.29 50.01 11.97C49.69 11.66 49.18 11.68 48.87 12C48.57 12.33 48.58 12.84 48.91 13.14C51.08 15.19 52.28 17.96 52.28 20.95C52.28 26.86 47.47 31.67 41.55 31.67C35.64 31.67 30.83 26.86 30.83 20.95C30.83 15.04 35.64 10.22 41.55 10.22C43.08 10.22 44.55 10.54 45.94 11.16C46.34 11.34 46.82 11.16 47 10.75C47.18 10.35 47 9.87 46.59 9.69C45.01 8.98 43.31 8.61 41.55 8.61C34.75 8.61 29.22 14.15 29.22 20.95C29.22 22.1 29.38 23.21 29.67 24.27C29.37 25.35 29.22 26.47 29.22 27.6C29.22 28.84 29.41 30.05 29.75 31.18C29.4 32.34 29.22 33.55 29.22 34.78ZM41.55 33.28C46.13 33.28 50.13 30.78 52.26 27.06C52.27 27.24 52.28 27.42 52.28 27.6C52.28 33.51 47.47 38.32 41.55 38.32C35.64 38.32 30.83 33.51 30.83 27.6C30.83 27.42 30.84 27.24 30.84 27.06C32.97 30.78 36.98 33.28 41.55 33.28ZM41.55 39.93C46.11 39.93 50.09 37.45 52.23 33.77C52.26 34.1 52.28 34.44 52.28 34.78C52.28 40.69 47.47 45.5 41.55 45.5C35.64 45.5 30.83 40.69 30.83 34.78C30.83 34.44 30.85 34.1 30.88 33.77C33.02 37.45 37 39.93 41.55 39.93Z" fill="#0F1923" fill-opacity="1.000000" fill-rule="nonzero"/>
		<path id="Vector" d="M22.69 5.15L23.34 4.16C24.15 2.93 23.81 1.26 22.58 0.44C21.98 0.05 21.26 -0.09 20.56 0.05C19.86 0.19 19.25 0.6 18.86 1.2L18.39 1.91C16.79 1.18 15.08 0.81 13.3 0.81C6.5 0.81 0.96 6.35 0.96 13.15C0.96 14.4 1.15 15.62 1.5 16.76C1.16 17.96 0.96 19.16 0.96 20.41C0.96 21.64 1.15 22.85 1.49 24C1.14 25.16 0.96 26.37 0.96 27.59C0.96 28.84 1.15 30.04 1.5 31.18C1.14 32.34 0.96 33.55 0.96 34.77C0.96 41.57 6.5 47.1 13.3 47.1C20.1 47.1 25.63 41.57 25.63 34.77C25.63 33.54 25.45 32.35 25.1 31.17C25.45 30.04 25.63 28.84 25.63 27.59C25.63 26.36 25.45 25.17 25.1 23.99C25.45 22.86 25.63 21.66 25.63 20.41C25.63 19.16 25.44 17.97 25.09 16.77C25.44 15.62 25.63 14.41 25.63 13.15C25.63 10.2 24.59 7.38 22.69 5.15ZM20.88 1.63C21.16 1.57 21.45 1.63 21.69 1.78C22.18 2.11 22.32 2.78 21.99 3.27L13.94 15.46C13.75 15.76 13.41 15.94 13.05 15.94C13.05 15.94 13.05 15.94 13.05 15.94C12.73 15.94 12.44 15.81 12.23 15.57L8.93 11.72C8.55 11.27 8.6 10.59 9.05 10.2C9.5 9.82 10.18 9.87 10.56 10.32L12.06 12.06C12.26 12.3 12.58 12.44 12.89 12.42C13.21 12.4 13.51 12.23 13.68 11.96L20.2 2.09C20.36 1.85 20.6 1.69 20.88 1.63ZM13.3 2.42C14.76 2.42 16.17 2.71 17.49 3.27L12.77 10.42L11.79 9.27C10.83 8.15 9.13 8.02 8 8.98C6.88 9.94 6.75 11.64 7.71 12.77L11.01 16.62C11.52 17.21 12.26 17.56 13.05 17.56L13.05 17.56C13.96 17.56 14.79 17.11 15.29 16.35L21.75 6.56C23.22 8.44 24.02 10.75 24.02 13.15C24.02 19.06 19.21 23.87 13.3 23.87C7.38 23.87 2.57 19.06 2.57 13.15C2.57 7.24 7.38 2.42 13.3 2.42ZM24.02 34.77C24.02 40.68 19.21 45.49 13.3 45.49C7.38 45.49 2.57 40.68 2.57 34.77C2.57 34.43 2.59 34.1 2.62 33.76C4.76 37.44 8.74 39.93 13.3 39.93C17.85 39.93 21.84 37.44 23.97 33.76C24 34.1 24.02 34.43 24.02 34.77ZM24.02 20.41C24.02 26.32 19.21 31.13 13.3 31.13C12.36 31.13 11.44 31.01 10.54 30.78C10.11 30.66 9.67 30.92 9.56 31.35C9.44 31.78 9.7 32.22 10.13 32.34C11.16 32.61 12.22 32.75 13.3 32.75C17.85 32.75 21.84 30.27 23.97 26.58C24 26.92 24.02 27.25 24.02 27.59C24.02 33.5 19.21 38.31 13.3 38.31C7.38 38.31 2.57 33.5 2.57 27.59C2.57 27.26 2.59 26.92 2.62 26.59C3.55 28.19 4.84 29.59 6.42 30.65C6.79 30.9 7.29 30.81 7.54 30.43C7.79 30.07 7.69 29.57 7.32 29.32C4.35 27.32 2.57 23.99 2.57 20.41C2.57 20.05 2.59 19.69 2.63 19.33C4.77 23.01 8.75 25.48 13.3 25.48C17.85 25.48 21.83 23.01 23.97 19.33C24 19.69 24.02 20.05 24.02 20.41Z" fill="#0F1923" fill-opacity="1.000000" fill-rule="nonzero"/>
		<path id="Vector" d="M23.75 48.47L2.84 48.47C1.81 48.47 0.96 49.31 0.96 50.35L0.96 53.12C0.96 54.15 1.81 55 2.84 55L23.75 55C24.79 55 25.63 54.15 25.63 53.12L25.63 50.35C25.63 49.31 24.79 48.47 23.75 48.47ZM24.02 53.12C24.02 53.26 23.9 53.38 23.75 53.38L2.84 53.38C2.69 53.38 2.57 53.26 2.57 53.12L2.57 50.35C2.57 50.2 2.69 50.08 2.84 50.08L23.75 50.08C23.9 50.08 24.02 50.2 24.02 50.35L24.02 53.12Z" fill="#0F1923" fill-opacity="1.000000" fill-rule="nonzero"/>
		<path id="Vector" d="M52.15 48.47L31.24 48.47C30.2 48.47 29.36 49.31 29.36 50.35L29.36 53.12C29.36 54.15 30.2 55 31.24 55L42.7 55C43.14 55 43.5 54.63 43.5 54.19C43.5 53.74 43.14 53.38 42.7 53.38L31.24 53.38C31.09 53.38 30.97 53.26 30.97 53.12L30.97 50.35C30.97 50.2 31.09 50.08 31.24 50.08L52.15 50.08C52.3 50.08 52.42 50.2 52.42 50.35L52.42 53.12C52.42 53.26 52.3 53.38 52.15 53.38L46.24 53.38C45.79 53.38 45.43 53.74 45.43 54.19C45.43 54.63 45.79 55 46.24 55L52.15 55C53.18 55 54.03 54.15 54.03 53.12L54.03 50.35C54.03 49.31 53.18 48.47 52.15 48.47Z" fill="#0F1923" fill-opacity="1.000000" fill-rule="nonzero"/>
		<path id="Vector" d="M43.63 14.96L41.55 17.03L39.48 14.96C38.45 13.93 36.76 13.92 35.72 14.92C35.2 15.42 34.92 16.09 34.91 16.82C34.9 17.55 35.2 18.27 35.72 18.79L37.76 20.83L35.71 22.87C34.66 23.93 34.64 25.64 35.66 26.69C36.17 27.21 36.85 27.49 37.58 27.49C38.3 27.49 38.97 27.21 39.48 26.7L41.55 24.63L43.63 26.7C44.14 27.21 44.81 27.49 45.53 27.49C46.25 27.49 46.93 27.21 47.44 26.69C48.47 25.64 48.45 23.93 47.39 22.87L45.35 20.83L47.39 18.79C47.91 18.27 48.2 17.55 48.2 16.82C48.19 16.09 47.9 15.42 47.39 14.92C46.34 13.92 44.66 13.93 43.63 14.96ZM46.27 16.08C46.47 16.28 46.58 16.54 46.59 16.83C46.59 17.14 46.47 17.44 46.25 17.65L43.79 20.11C43.4 20.51 43.4 21.16 43.79 21.55L46.25 24.01C46.69 24.45 46.71 25.14 46.29 25.56C46.09 25.77 45.82 25.88 45.53 25.88C45.24 25.88 44.97 25.77 44.77 25.57L42.28 23.07C42.08 22.87 41.82 22.77 41.55 22.77C41.29 22.77 41.03 22.87 40.83 23.07L38.34 25.57C38.14 25.77 37.87 25.88 37.58 25.88C37.29 25.88 37.02 25.77 36.81 25.56C36.4 25.14 36.42 24.45 36.85 24.01L39.31 21.55C39.71 21.16 39.71 20.51 39.31 20.11L36.86 17.65C36.64 17.44 36.52 17.14 36.52 16.83C36.53 16.54 36.64 16.27 36.84 16.08C37.25 15.68 37.93 15.69 38.34 16.1L40.83 18.59C41.23 18.99 41.88 18.99 42.28 18.59L44.77 16.1C45.18 15.69 45.85 15.68 46.27 16.08Z" fill="#0F1923" fill-opacity="1.000000" fill-rule="nonzero"/>
	</g>
</svg>
