<svg width="338.925812" height="50.000000" viewBox="0 0 338.926 50" fill="none" xmlns="http://www.w3.org/2000/svg" xmlns:xlink="http://www.w3.org/1999/xlink">
	
	<defs/>
	<path id="Shape" d="M134.51 15.8L132.53 15.22L129.82 15.88L127.01 14.97L124.22 15.47L122.32 14.89L117.07 14.64L116.89 14.21L123.56 11.49C123.56 11.49 118.87 8.4 115.32 8.12C113.12 7.97 110.89 8.3 108.81 9.03C108.63 9.09 107.82 8.38 107.64 8.27C107.19 7.97 106.73 7.69 106.27 7.39C105.39 6.83 104.5 6.3 103.59 5.79C101.79 4.78 99.91 3.84 97.98 3.05C94.13 1.41 90.05 0.42 85.89 0.09C83.41 -0.09 80.93 -0.04 78.49 0.49C75.2 1.2 71.95 2.42 68.71 3.36C63.46 4.83 58.17 6.4 52.77 7.11C52.06 7.21 51.35 7.26 50.64 7.31C49.8 7.31 48.94 7.29 48.1 7.18C44.81 6.83 41.61 6.07 38.45 5.16C34.92 4.14 31.12 3.38 27.45 3.28C25.47 3.23 23.52 3.41 21.59 3.84C19.79 4.22 18.02 5.11 16.14 5.11C18.04 5.11 19.97 5.33 21.87 5.41C25.27 5.56 28.89 5.99 32.11 7.08C34.01 7.72 35.73 8.73 37.41 9.82C39.08 10.91 40.57 12.25 42.65 12.35L51.4 12.76C55.45 12.94 59.56 12.33 63.59 11.95C60.67 12.84 57.89 14.03 54.84 14.36C51.7 14.71 48.53 14.51 45.42 14.21C42.68 13.95 39.94 13.62 37.36 12.68C35.2 11.9 33.22 10.76 31.07 9.95C28.84 9.06 26.51 8.45 24.12 8.15C22.15 7.94 20.17 8 18.22 7.97C16.29 7.94 14.44 7.69 12.54 7.46L6.79 6.8C7.45 6.88 8.21 7.29 8.84 7.51C12.74 8.86 16.6 10.3 20.65 11.14C23.24 11.67 25.65 12.35 27.98 13.62C29.78 14.61 31.37 16.03 33.3 16.77C35.2 17.47 37.23 17.68 39.23 17.88C41.39 18.08 43.54 18.39 45.67 18.79C47.77 19.22 49.8 20.03 51.93 20.41C51.58 20.36 42.68 20.24 39.51 19.71C35.58 19.07 31.78 17.88 27.9 16.92C24.33 16 20.63 14.81 16.9 14.79C14.82 14.76 12.82 15.32 10.84 15.9C8.92 16.46 6.97 16.94 5.04 17.47C5.85 17.25 6.97 17.4 7.8 17.37C12.92 17.2 17.76 17.02 22.81 18.24C22.33 18.11 21.44 18.41 20.93 18.46L19.06 18.69C17.66 18.87 16.24 19.02 14.85 19.2C18.4 19.38 21.92 19.38 25.44 20.01C28 20.52 30.51 21.23 32.95 22.16C35.25 23 37.43 24.19 39.84 24.77C42.37 25.38 45.14 25.18 47.72 25.15C50.36 25.13 53.1 25.13 55.71 24.77C58.24 24.42 60.75 23.79 63.29 23.33C60.07 24.62 57.05 26.19 53.58 26.75C50.74 27.21 47.85 27.16 44.99 26.93C41.82 26.68 38.78 25.89 35.68 25.33L25.87 23.53C23.09 23.03 20.3 22.7 17.46 23C15.41 23.25 13.4 23.79 11.5 24.55C9.68 25.26 7.73 26.45 5.7 26.42C4.73 26.4 3.8 26.17 2.86 26.04C1.92 25.92 0.96 25.94 0 25.86L3.92 26.88C5.67 27.33 7.09 27.66 8.92 27.28C10.18 27.03 11.4 26.6 12.67 26.3C16.75 25.33 21.41 25.53 25.52 25.94C24.05 26.57 22.5 27.01 21.03 27.66C19.66 28.3 19.06 29.54 17.81 30.22C16.75 30.81 15.05 30.68 13.88 30.86C12.41 31.04 10.94 31.34 9.5 31.74C7.04 32.48 4.91 33.85 2.63 34.96L9.7 32.73C11.6 32.56 13.96 31.95 15.81 32.28C13.88 35.12 9.58 36.48 6.33 36.79C7.8 36.66 9.27 36.56 10.74 36.46C12.9 36.28 14.62 35.17 16.44 34.08C17.03 33.7 17.66 33.42 18.32 33.21C18.83 33.09 19.33 33.04 19.84 33.01C26 32.68 31.68 35.27 37.23 37.57C35.2 37.07 33.15 36.56 31.04 36.46C30.61 36.43 30.18 36.43 29.73 36.46C26.94 36.61 24.18 38.03 21.39 38.03C24.12 38.03 26.99 37.7 29.7 38.06C30.16 38.11 30.59 38.21 31.04 38.31C32.69 38.74 34.21 39.6 35.89 40.01C35.02 39.78 32.89 40.77 32.01 41L29.37 41.68C29.37 41.68 25.27 43.38 25.34 43.48C38.75 40.67 47.93 45.63 47.93 45.63C61.49 22.62 89.85 13.8 91.29 13.5C91.32 13.55 63.08 26.98 52.54 47.21C52.64 48.4 57.81 49.01 57.81 49.01C59.89 40.57 74.82 28.32 75.55 28.17C75.58 28.27 60.37 45.38 60.85 49.99C60.88 50.05 87.47 47.1 87.47 47.1L96.77 32.86L96.95 25.76L100.34 22.14L98.36 25.84C98.36 25.84 98.44 32.23 99.28 33.82C100.11 35.42 110.48 41.4 110.48 41.4L112.97 45.25L113.7 49.21L117.4 49.54L121.28 48.96L120.85 47.71L125.38 46.57L126.85 44.67L126.2 42.77L127.84 41.96L127.18 40.24L124.8 37.93L121.43 28.86L122.24 26.14L121.18 24.09L119.53 20.31L122.82 19.65L124.32 19L127.03 19.07L129.67 18.08L132.23 18.49L134.53 17.75L140.14 16.94L134.51 15.8ZM55.02 34.63C52.51 35.47 50.13 36.48 47.44 36.1C44.83 35.75 42.2 35.39 39.76 34.36C37.15 33.24 34.82 31.44 31.93 31.06C29.83 30.78 27.67 30.6 25.57 30.38C27.27 30.27 28.94 30.12 30.61 30.02C32.97 29.84 35.15 30.78 37.28 31.67C40.32 32.94 43.49 34.03 46.76 34.53C48.41 34.81 50.08 34.89 51.75 34.81C52.56 34.79 54.03 34.84 55.02 34.63C55.23 34.56 55.45 34.48 55.66 34.43C55.5 34.51 55.28 34.58 55.02 34.63ZM77.66 13.5C76.03 13.98 74.46 14.64 72.87 15.14C68.91 16.36 64.93 16.97 60.85 17.45C61.18 17.4 61.61 17.12 61.92 16.97C62.78 16.59 63.67 16.18 64.53 15.83C66.3 15.12 67.95 14.1 69.88 13.7C70.51 13.57 71.14 13.5 71.78 13.42C74.77 13.09 77.78 12.76 80.77 12.43C79.76 12.53 78.65 13.19 77.66 13.5ZM99.58 8.43C96.19 7.56 92.74 6.91 89.27 6.47C85.89 6.04 81.97 5.49 78.62 6.25C75.65 6.91 72.69 7.56 69.7 8.22C72.16 7.54 74.46 6.4 76.82 5.41C79.18 4.4 81.64 3.53 84.17 3.43C86.93 3.33 89.47 4.09 92 5.11C94.54 6.12 97.05 7.39 99.58 8.43ZM101.64 32.86L100.98 27.18L102.29 22.32C102.29 22.32 101.36 27.21 102.47 30.48C103.56 33.75 105.94 36.33 105.94 36.33L101.64 32.86ZM123.71 40.95L126.09 41.35L123.61 42.82L123.71 40.95ZM115.58 27.77L114.59 25.53L113.19 21.5L116.74 26.62L118.79 28.2L115.58 27.77Z" fill="#0F1923" fill-opacity="1.000000" fill-rule="evenodd"/>
	<path id="Path" d="M160.23 24.73C159.52 25.11 158.48 25.28 157.11 25.28C155.56 25.28 154.42 25.03 153.64 24.52C152.88 24.02 152.39 23.21 152.24 22.12L148.44 22.12C148.52 23.33 148.92 24.52 149.61 25.54C150.32 26.47 151.3 27.18 152.44 27.54C153.69 27.97 155.23 28.2 157.08 28.2C159.67 28.2 161.64 27.74 163.04 26.86C164.38 26.07 165.17 24.6 165.12 23.05C165.12 21.61 164.64 20.47 163.67 19.66C162.71 18.85 161.21 18.26 159.16 17.93L155.69 17.4C154.55 17.22 153.76 17 153.33 16.72C152.9 16.41 152.65 15.93 152.67 15.4C152.67 14.76 153.03 14.28 153.74 13.95C154.45 13.62 155.46 13.45 156.8 13.45C157.97 13.45 158.91 13.62 159.57 13.98C160.25 14.36 160.78 14.97 161.04 15.7L164.69 15.27C164.31 13.65 163.47 12.43 162.2 11.67C160.94 10.91 159.16 10.53 156.88 10.53C155.41 10.51 153.97 10.71 152.57 11.14C151.38 11.55 150.47 12.1 149.83 12.84C149.2 13.57 148.87 14.49 148.89 15.45C148.89 16.94 149.43 18.09 150.49 18.92C151.56 19.76 153.23 20.32 155.51 20.62L158.35 21.03C159.36 21.18 160.1 21.41 160.56 21.74C161.01 22.04 161.27 22.55 161.24 23.1C161.29 23.81 160.86 24.45 160.23 24.73Z" fill="#0F1923" fill-opacity="1.000000" fill-rule="nonzero"/>
	<path id="Shape" d="M174.72 23.94L183.22 23.94L184.89 27.74L188.87 27.74L181.16 10.94L176.9 10.94L169.2 27.74L173.08 27.74L174.72 23.94ZM178.96 14.23L181.92 20.97L175.99 20.97L178.96 14.23Z" fill="#0F1923" fill-opacity="1.000000" fill-rule="nonzero"/>
	<path id="Path" d="M208.16 24.62L197.89 24.62L197.89 10.94L194.11 10.94L194.11 27.77L207.7 27.77L208.16 24.62Z" fill="#0F1923" fill-opacity="1.000000" fill-rule="nonzero"/>
	<path id="Path" d="M215.48 27.77L219.26 27.77L219.26 14.08L225.85 14.08L225.85 10.94L208.89 10.94L208.89 14.08L215.48 14.08L215.48 27.77Z" fill="#0F1923" fill-opacity="1.000000" fill-rule="nonzero"/>
	<path id="Path" d="M261.1 27.77L261.1 10.96L256.82 10.96L250.87 23.71L244.88 10.94L240.5 10.94L240.5 27.77L243.97 27.77L243.97 16.39L249.32 27.77L252.23 27.77L257.61 16.29L257.61 27.77L261.1 27.77Z" fill="#0F1923" fill-opacity="1.000000" fill-rule="nonzero"/>
	<path id="Rectangle" d="M268.15 10.94L271.93 10.94L271.93 27.74L268.15 27.74L268.15 10.94Z" fill="#0F1923" fill-opacity="1.000000" fill-rule="evenodd"/>
	<path id="Path" d="M292.13 22.7L282.4 10.94L278.95 10.94L278.95 27.77L282.55 27.77L282.55 16.01L292.28 27.77L295.73 27.77L295.73 10.94L292.13 10.94L292.13 22.7Z" fill="#0F1923" fill-opacity="1.000000" fill-rule="nonzero"/>
	<path id="Path" d="M306.53 20.67L316.36 20.67L316.36 17.58L306.55 17.58L306.55 14.03L316.87 14.03L316.87 10.94L302.77 10.94L302.77 27.77L316.89 27.77L317.37 24.68L306.53 24.68L306.53 20.67Z" fill="#0F1923" fill-opacity="1.000000" fill-rule="nonzero"/>
	<path id="Path" d="M337.45 19.63C336.49 18.82 334.99 18.24 332.94 17.91L329.49 17.38C328.35 17.2 327.56 16.97 327.13 16.69C326.7 16.39 326.45 15.91 326.5 15.37C326.5 14.74 326.85 14.26 327.56 13.93C328.27 13.6 329.29 13.42 330.63 13.42C331.8 13.42 332.73 13.6 333.39 13.95C334.08 14.33 334.61 14.94 334.86 15.68L338.51 15.25C338.13 13.62 337.3 12.41 336.03 11.65C334.76 10.89 332.99 10.51 330.71 10.51C329.24 10.48 327.79 10.68 326.4 11.11C325.21 11.52 324.29 12.08 323.66 12.81C323.03 13.55 322.7 14.46 322.72 15.42C322.72 16.92 323.25 18.09 324.32 18.9C325.38 19.73 327.06 20.29 329.34 20.59L332.18 21C333.19 21.15 333.93 21.38 334.38 21.71C334.84 22.01 335.09 22.52 335.07 23.08C335.07 23.79 334.66 24.42 334.03 24.73C333.32 25.11 332.28 25.28 330.91 25.28C329.36 25.28 328.22 25.03 327.44 24.52C326.68 24.02 326.2 23.21 326.04 22.12L322.24 22.12C322.32 23.33 322.72 24.52 323.41 25.54C324.12 26.47 325.1 27.18 326.25 27.54C327.49 27.97 329.03 28.2 330.88 28.2C333.47 28.2 335.45 27.74 336.84 26.83C338.18 26.04 338.97 24.57 338.92 23.03C338.89 21.58 338.41 20.44 337.45 19.63Z" fill="#0F1923" fill-opacity="1.000000" fill-rule="nonzero"/>
	<path id="Shape" d="M261.97 32.43L258.57 40.26L260.9 40.26L261.49 38.79L265.08 38.79L265.67 40.26L268.05 40.26L264.65 32.43L261.97 32.43ZM262.17 37.04L263.31 34.23L264.45 37.04L262.17 37.04Z" fill="#0F1923" fill-opacity="1.000000" fill-rule="nonzero"/>
	<path id="Shape" d="M277.66 33.42C276.85 32.76 275.68 32.43 274.11 32.43L270.43 32.43L270.43 40.26L274.01 40.26C275.58 40.26 276.77 39.93 277.6 39.25C278.44 38.57 278.87 37.6 278.87 36.36C278.87 35.04 278.47 34.08 277.66 33.42ZM274.06 38.41L272.71 38.41L272.71 34.28L274.16 34.28C275.76 34.26 276.54 34.97 276.54 36.33C276.54 37.7 275.7 38.41 274.06 38.41Z" fill="#0F1923" fill-opacity="1.000000" fill-rule="nonzero"/>
	<path id="Path" d="M284.93 38.03L282.88 32.43L280.34 32.43L283.54 40.24L286.27 40.24L289.47 32.43L286.98 32.43L284.93 38.03Z" fill="#0F1923" fill-opacity="1.000000" fill-rule="nonzero"/>
	<path id="Rectangle" d="M291.72 32.43L294.03 32.43L294.03 40.26L291.72 40.26L291.72 32.43Z" fill="#0F1923" fill-opacity="1.000000" fill-rule="evenodd"/>
	<path id="Path" d="M303.97 36.33C303.51 35.95 302.77 35.68 301.76 35.52L300.06 35.24C299.78 35.22 299.51 35.12 299.25 34.99C299.12 34.89 299.02 34.71 299.05 34.56C299.05 34.36 299.18 34.18 299.43 34.08C299.78 33.95 300.19 33.9 300.57 33.93C300.92 33.9 301.28 33.98 301.63 34.13C301.89 34.28 302.09 34.51 302.19 34.79L304.37 34.56C304.27 33.85 303.86 33.19 303.23 32.81C302.62 32.43 301.74 32.23 300.62 32.23C299.4 32.23 298.44 32.43 297.78 32.86C297.12 33.22 296.74 33.9 296.74 34.64C296.72 35.27 297 35.88 297.48 36.28C297.98 36.69 298.77 36.97 299.83 37.12L301.23 37.32C301.51 37.35 301.79 37.42 302.04 37.58C302.19 37.68 302.27 37.83 302.27 38.01C302.27 38.26 302.09 38.49 301.84 38.57C301.46 38.72 301.03 38.79 300.62 38.77C300.19 38.79 299.73 38.72 299.33 38.51C299.02 38.34 298.82 38.03 298.77 37.7L296.46 37.7C296.49 38.54 296.92 39.3 297.63 39.78C298.31 40.24 299.3 40.49 300.62 40.49C301.91 40.49 302.9 40.29 303.56 39.86C304.22 39.45 304.6 38.74 304.55 37.98C304.68 37.35 304.42 36.74 303.97 36.33Z" fill="#0F1923" fill-opacity="1.000000" fill-rule="nonzero"/>
	<path id="Shape" d="M313.95 32.71C312.35 32.05 310.56 32.08 308.98 32.74C308.32 33.04 307.74 33.55 307.36 34.15C306.63 35.52 306.63 37.17 307.39 38.54C307.77 39.17 308.32 39.66 308.98 39.96C310.58 40.62 312.38 40.59 313.98 39.93C314.64 39.63 315.22 39.12 315.57 38.51C315.96 37.86 316.16 37.09 316.13 36.33C316.16 35.55 315.96 34.79 315.57 34.1C315.17 33.5 314.61 33.01 313.95 32.71ZM313.14 38.01C312.69 38.41 312.08 38.64 311.47 38.59C310.86 38.64 310.25 38.41 309.79 38.01C309.01 37.04 309.01 35.65 309.79 34.69C310.25 34.28 310.86 34.05 311.47 34.1C311.62 34.08 311.77 34.08 311.92 34.1C313.07 34.23 313.88 35.24 313.75 36.36C313.78 36.94 313.55 37.55 313.14 38.01Z" fill="#0F1923" fill-opacity="1.000000" fill-rule="nonzero"/>
	<path id="Shape" d="M326.3 35.02C326.3 33.29 325.13 32.41 322.8 32.43L318.79 32.43L318.79 40.26L320.97 40.26L320.97 37.6L322.77 37.6L324.34 40.24L326.85 40.24L324.93 37.15C325.81 36.82 326.37 35.95 326.3 35.02ZM323.76 35.73C323.43 35.9 323.05 35.98 322.67 35.95L320.97 35.95L320.97 34.1L322.67 34.1C323.05 34.08 323.41 34.15 323.76 34.31C323.99 34.46 324.12 34.74 324.09 34.99C324.12 35.3 323.99 35.55 323.76 35.73Z" fill="#0F1923" fill-opacity="1.000000" fill-rule="nonzero"/>
	<path id="Path" d="M335.98 36.33C335.52 35.95 334.79 35.68 333.77 35.52L332.08 35.24C331.8 35.22 331.52 35.12 331.26 34.99C331.11 34.89 331.04 34.74 331.06 34.56C331.06 34.36 331.19 34.18 331.44 34.08C331.82 33.95 332.2 33.9 332.58 33.93C332.94 33.9 333.29 33.98 333.65 34.13C333.9 34.28 334.1 34.51 334.2 34.79L336.41 34.56C336.31 33.83 335.9 33.19 335.27 32.81C334.66 32.43 333.77 32.23 332.66 32.23C331.44 32.23 330.5 32.43 329.82 32.86C329.16 33.22 328.78 33.9 328.78 34.64C328.76 35.27 329.03 35.88 329.52 36.28C330.02 36.69 330.81 36.97 331.87 37.12L333.27 37.32C333.55 37.35 333.82 37.42 334.08 37.58C334.23 37.68 334.31 37.83 334.31 38.01C334.31 38.26 334.13 38.49 333.88 38.57C333.49 38.72 333.06 38.79 332.66 38.77C332.23 38.79 331.77 38.72 331.37 38.51C331.06 38.34 330.86 38.03 330.81 37.7L328.5 37.7C328.53 38.54 328.96 39.3 329.67 39.78C330.35 40.24 331.34 40.49 332.63 40.49C333.93 40.49 334.91 40.29 335.57 39.86C336.23 39.45 336.61 38.74 336.56 37.98C336.69 37.35 336.46 36.74 335.98 36.33Z" fill="#0F1923" fill-opacity="1.000000" fill-rule="nonzero"/>
	<path id="Rectangle" d="M148.44 36.05L250.91 36.05L250.91 37.37L148.44 37.37L148.44 36.05Z" fill="#0F1923" fill-opacity="1.000000" fill-rule="evenodd"/>
</svg>
