<svg width="55.000000" height="55.000000" viewBox="0 0 55 55" fill="none" xmlns="http://www.w3.org/2000/svg" xmlns:xlink="http://www.w3.org/1999/xlink">
	
	<defs>
		<clipPath id="clip21_260">
			<rect id="fi_4711920" rx="0.000000" width="54.000000" height="54.000000" transform="translate(0.500000 0.500000)" fill="white" fill-opacity="0"/>
		</clipPath>
	</defs>
	<rect id="fi_4711920" rx="0.000000" width="54.000000" height="54.000000" transform="translate(0.500000 0.500000)" fill="#FFFFFF" fill-opacity="0"/>
	<g clip-path="url(#clip21_260)">
		<path id="Vector" d="M52.58 49.8L2.41 49.8C1.52 49.8 0.8 49.08 0.8 48.19L0.8 20.49C0.8 19.6 1.52 18.88 2.41 18.88L52.58 18.88C53.47 18.88 54.19 19.6 54.19 20.49L54.19 48.19C54.19 49.08 53.47 49.8 52.58 49.8Z" fill="#E8613B" fill-opacity="1.000000" fill-rule="nonzero"/>
		<path id="Vector" d="M52.58 18.88L49.36 18.88C50.25 18.88 50.97 19.6 50.97 20.49L50.97 48.19C50.97 49.08 50.25 49.8 49.36 49.8L52.58 49.8C53.47 49.8 54.19 49.08 54.19 48.19L54.19 20.49C54.19 19.6 53.47 18.88 52.58 18.88Z" fill="#E8613B" fill-opacity="1.000000" fill-rule="nonzero"/>
		<path id="Vector" d="M48.01 44.97L34.93 44.97C31.71 44.97 28.8 46.86 27.5 49.8L27.5 20.15C27.5 17.19 29.9 14.78 32.87 14.78L48.01 14.78C48.43 14.78 48.76 15.12 48.76 15.53L48.76 44.21C48.76 44.63 48.43 44.97 48.01 44.97Z" fill="#F9F7F8" fill-opacity="1.000000" fill-rule="nonzero"/>
		<path id="Vector" d="M48.01 14.78L44.79 14.78C45.21 14.78 45.54 15.12 45.54 15.53L45.54 44.21C45.54 44.63 45.21 44.97 44.79 44.97L48.01 44.97C48.43 44.97 48.76 44.63 48.76 44.21L48.76 15.53C48.76 15.12 48.43 14.78 48.01 14.78Z" fill="#EFEDEF" fill-opacity="1.000000" fill-rule="nonzero"/>
		<path id="Vector" d="M6.98 44.97L20.06 44.97C23.28 44.97 26.19 46.86 27.5 49.8L27.5 20.15C27.5 17.19 25.09 14.78 22.12 14.78L6.98 14.78C6.56 14.78 6.23 15.12 6.23 15.53L6.23 44.21C6.23 44.63 6.56 44.97 6.98 44.97Z" fill="#EFEDEF" fill-opacity="1.000000" fill-rule="nonzero"/>
		<path id="Vector" d="M47.4 9.93L43.69 10.18L9.21 10.18L6.95 8.2C6.56 7.9 6.49 7.74 6.88 7.44L9.21 5.19L43.69 5.19L46.95 5.76C47.55 5.76 48.03 5.72 48.03 6.32L48.21 9.07C48.21 9.66 47.99 9.93 47.4 9.93Z" fill="#EEB756" fill-opacity="1.000000" fill-rule="nonzero"/>
		<path id="Vector" d="M43.69 10.18L43.69 5.19L47.45 5.19C48.05 5.19 48.53 5.67 48.53 6.26L48.53 9.11C48.53 9.7 48.05 10.18 47.45 10.18L43.69 10.18Z" fill="#EEB756" fill-opacity="1.000000" fill-rule="nonzero"/>
		<path id="Vector" d="M47.45 5.19L44.23 5.19C44.82 5.19 45.3 5.67 45.3 6.26L45.3 9.11C45.3 9.7 44.82 10.18 44.23 10.18L47.45 10.18C48.05 10.18 48.53 9.7 48.53 9.11L48.53 6.26C48.53 5.67 48.05 5.19 47.45 5.19Z" fill="#EEB756" fill-opacity="1.000000" fill-rule="nonzero"/>
		<path id="Vector" d="M9.21 5.19L6.75 7.09C6.37 7.39 6.37 7.98 6.75 8.28L9.21 10.18C9.44 9.93 10.07 9.17 10.17 8.01C10.31 6.45 9.38 5.38 9.21 5.19Z" fill="#EEB756" fill-opacity="1.000000" fill-rule="nonzero"/>
		<path id="Vector" d="M23.44 39.06L10.28 39.06C9.83 39.06 9.47 39.42 9.47 39.87C9.47 40.31 9.83 40.67 10.28 40.67L23.44 40.67C23.89 40.67 24.25 40.31 24.25 39.87C24.25 39.42 23.89 39.06 23.44 39.06ZM23.44 34.23L10.28 34.23C9.83 34.23 9.47 34.59 9.47 35.03C9.47 35.48 9.83 35.84 10.28 35.84L23.44 35.84C23.89 35.84 24.25 35.48 24.25 35.03C24.25 34.59 23.89 34.23 23.44 34.23ZM44.71 19.73L31.55 19.73C31.1 19.73 30.74 20.09 30.74 20.53C30.74 20.98 31.1 21.34 31.55 21.34L44.71 21.34C45.16 21.34 45.52 20.98 45.52 20.53C45.52 20.09 45.16 19.73 44.71 19.73ZM52.58 18.08L49.57 18.08L49.57 15.53C49.57 14.67 48.87 13.98 48.01 13.98L32.87 13.98C30.57 13.98 28.56 15.24 27.5 17.11C26.43 15.24 24.42 13.98 22.12 13.98L6.98 13.98C6.12 13.98 5.42 14.67 5.42 15.53L5.42 18.08L2.41 18.08C1.08 18.08 0 19.16 0 20.49L0 48.19C0 49.52 1.08 50.61 2.41 50.61L52.58 50.61C53.91 50.61 55 49.52 55 48.19L55 20.49C55 19.16 53.91 18.08 52.58 18.08ZM2.41 48.99C1.97 48.99 1.61 48.63 1.61 48.19L1.61 20.49C1.61 20.05 1.97 19.69 2.41 19.69L5.42 19.69L5.42 44.21C5.42 45.07 6.12 45.77 6.98 45.77L20.06 45.77C22.52 45.77 24.78 47 26.13 48.99L2.41 48.99ZM26.69 47.1C25.02 45.26 22.63 44.16 20.06 44.16L7.03 44.16L7.03 15.59L22.12 15.59C24.64 15.59 26.69 17.63 26.69 20.15L26.69 47.1ZM53.38 48.19C53.38 48.63 53.02 48.99 52.58 48.99L28.86 48.99C30.21 47 32.47 45.77 34.93 45.77L48.01 45.77C48.87 45.77 49.57 45.07 49.57 44.21L49.57 37.12C49.57 36.68 49.21 36.32 48.76 36.32C48.32 36.32 47.96 36.68 47.96 37.12L47.96 44.16L34.93 44.16C32.36 44.16 29.97 45.26 28.3 47.1L28.3 20.15C28.3 17.63 30.35 15.59 32.87 15.59L47.96 15.59L47.96 33.36C47.96 33.81 48.32 34.17 48.76 34.17C49.21 34.17 49.57 33.81 49.57 33.36L49.57 19.69L52.58 19.69C53.02 19.69 53.38 20.05 53.38 20.49L53.38 48.19ZM6.26 8.92L8.72 10.82C8.81 10.87 8.89 10.98 9.21 10.99L18.18 10.99C18.62 10.99 18.99 10.63 18.99 10.18C18.99 9.74 18.62 9.38 18.18 9.38L10.66 9.38C10.81 9 10.93 8.57 10.97 8.08C11.04 7.27 10.88 6.56 10.64 6L42.89 6L42.89 9.38L21.94 9.38C21.49 9.38 21.13 9.74 21.13 10.18C21.13 10.63 21.49 10.99 21.94 10.99L47.45 10.99C48.49 10.99 49.33 10.15 49.33 9.11L49.33 6.26C49.33 5.23 48.49 4.38 47.45 4.38L9.21 4.38C9.12 4.42 9.13 4.31 8.72 4.55L6.26 6.46C5.88 6.75 5.66 7.2 5.66 7.69C5.66 8.17 5.88 8.62 6.26 8.92ZM44.5 6L47.45 6C47.6 6 47.72 6.12 47.72 6.26L47.72 9.11C47.72 9.26 47.6 9.38 47.45 9.38L44.5 9.38L44.5 6ZM9.03 6.35C9.24 6.74 9.42 7.29 9.37 7.94C9.33 8.38 9.2 8.74 9.04 9.03L7.3 7.69L9.03 6.35ZM23.44 29.39L10.28 29.39C9.83 29.39 9.47 29.75 9.47 30.2C9.47 30.64 9.83 31.01 10.28 31.01L23.44 31.01C23.89 31.01 24.25 30.64 24.25 30.2C24.25 29.75 23.89 29.39 23.44 29.39ZM44.71 39.06L31.55 39.06C31.1 39.06 30.74 39.42 30.74 39.87C30.74 40.31 31.1 40.67 31.55 40.67L44.71 40.67C45.16 40.67 45.52 40.31 45.52 39.87C45.52 39.42 45.16 39.06 44.71 39.06ZM44.71 34.23L31.55 34.23C31.1 34.23 30.74 34.59 30.74 35.03C30.74 35.48 31.1 35.84 31.55 35.84L44.71 35.84C45.16 35.84 45.52 35.48 45.52 35.03C45.52 34.59 45.16 34.23 44.71 34.23ZM44.71 24.56L31.55 24.56C31.1 24.56 30.74 24.92 30.74 25.37C30.74 25.81 31.1 26.17 31.55 26.17L44.71 26.17C45.16 26.17 45.52 25.81 45.52 25.37C45.52 24.92 45.16 24.56 44.71 24.56ZM23.44 24.56L10.28 24.56C9.83 24.56 9.47 24.92 9.47 25.37C9.47 25.81 9.83 26.17 10.28 26.17L23.44 26.17C23.89 26.17 24.25 25.81 24.25 25.37C24.25 24.92 23.89 24.56 23.44 24.56ZM23.44 19.73L10.28 19.73C9.83 19.73 9.47 20.09 9.47 20.53C9.47 20.98 9.83 21.34 10.28 21.34L23.44 21.34C23.89 21.34 24.25 20.98 24.25 20.53C24.25 20.09 23.89 19.73 23.44 19.73ZM44.71 29.39L31.55 29.39C31.1 29.39 30.74 29.75 30.74 30.2C30.74 30.64 31.1 31.01 31.55 31.01L44.71 31.01C45.16 31.01 45.52 30.64 45.52 30.2C45.52 29.75 45.16 29.39 44.71 29.39Z" fill="#0F1923" fill-opacity="1.000000" fill-rule="nonzero"/>
	</g>
</svg>
