<svg width="55.000000" height="55.000000" viewBox="0 0 55 55" fill="none" xmlns="http://www.w3.org/2000/svg" xmlns:xlink="http://www.w3.org/1999/xlink">
	
	<defs>
		<clipPath id="clip21_278">
			<rect id="fi_4185489" rx="0.000000" width="54.000000" height="54.000000" transform="translate(0.500000 0.500000)" fill="white" fill-opacity="0"/>
		</clipPath>
	</defs>
	<rect id="fi_4185489" rx="0.000000" width="54.000000" height="54.000000" transform="translate(0.500000 0.500000)" fill="#FFFFFF" fill-opacity="0"/>
	<g clip-path="url(#clip21_278)">
		<path id="Vector" d="M42.41 36.83L47.18 32.76C48.17 31.92 48.29 30.44 47.46 29.45C46.62 28.46 45.15 28.34 44.17 29.18L34.26 37.64L28.39 41.85L33.64 43.57L42.41 36.83Z" fill="#E8613B" fill-opacity="1.000000" fill-rule="nonzero"/>
		<path id="Vector" d="M36.01 38.71L45.93 30.25C46.42 29.83 47.04 29.65 47.64 29.7C47.58 29.61 47.52 29.53 47.46 29.45C46.62 28.47 45.15 28.34 44.17 29.18L34.26 37.64L28.39 41.85L30.61 42.58L36.01 38.71Z" fill="#E8613B" fill-opacity="1.000000" fill-rule="nonzero"/>
		<path id="Vector" d="M34.43 37.6L41.8 31.35C42.61 30.51 42.67 29.17 41.9 28.26C41.08 27.3 39.63 27.18 38.66 28L32.09 33.56L24.93 39.73L28.65 42.75L34.43 37.6Z" fill="#E8613B" fill-opacity="1.000000" fill-rule="nonzero"/>
		<path id="Vector" d="M26.81 40.9L33.98 34.74L40.54 29.17C41.01 28.77 41.59 28.6 42.15 28.63C42.08 28.5 42 28.38 41.9 28.26C41.08 27.3 39.63 27.18 38.66 28L32.09 33.56L24.93 39.73L28.65 42.75L28.86 42.56L26.81 40.9Z" fill="#E8613B" fill-opacity="1.000000" fill-rule="nonzero"/>
		<path id="Vector" d="M33.27 37.59L33.45 37.61L40.5 37.61C41.04 37.61 41.56 37.42 41.97 37.07L49.45 30.74C49.88 30.37 50.41 30.19 50.93 30.19C51.58 30.19 52.23 30.47 52.69 31C53.51 31.97 53.39 33.42 52.42 34.24L40.61 44.25C39.4 45.28 37.9 45.93 36.31 46.13L23.13 47.71L18.18 53.64C17.9 53.97 17.45 54.1 17.04 53.97L3.22 49.55C2.51 49.32 2.25 48.46 2.71 47.87L8 41.2L8.42 40.32C10.48 35.98 14.84 33.22 19.64 33.22L30.81 33.22C31.6 33.22 32.32 33.54 32.84 34.06C33.36 34.58 33.69 35.3 33.69 36.1C33.69 36.65 33.53 37.16 33.27 37.59Z" fill="#E8613B" fill-opacity="1.000000" fill-rule="nonzero"/>
		<path id="Vector" d="M33.78 39.16L33.97 39.19L41.27 39.19C41.83 39.19 42.37 38.98 42.79 38.61L50.54 31.88C50.99 31.49 51.54 31.3 52.08 31.3C52.4 31.3 52.71 31.36 53 31.49C52.92 31.32 52.82 31.16 52.69 31C52.23 30.47 51.58 30.19 50.93 30.19C50.41 30.19 49.88 30.37 49.45 30.74L41.97 37.07C41.56 37.42 41.04 37.61 40.5 37.61L34.21 37.61C34.21 38.18 34.05 38.71 33.78 39.16Z" fill="#E8613B" fill-opacity="1.000000" fill-rule="nonzero"/>
		<path id="Vector" d="M33.45 37.61L33.27 37.59C33.29 37.56 33.3 37.53 33.32 37.5L16.16 37.5C16.16 39.21 17.55 40.59 19.25 40.59L30.73 40.59C30.76 40.59 30.78 40.59 30.81 40.59C32.37 40.59 33.84 39.77 34.65 38.43C34.81 38.17 34.94 37.9 35.04 37.61L33.45 37.61Z" fill="#E8613B" fill-opacity="1.000000" fill-rule="nonzero"/>
		<path id="Vector" d="M34.26 37.64L30.14 40.59L30.73 40.59C30.76 40.59 30.78 40.59 30.81 40.59C32.37 40.59 33.84 39.77 34.65 38.43C34.96 37.93 35.16 37.37 35.25 36.8L34.26 37.64Z" fill="#E8613B" fill-opacity="1.000000" fill-rule="nonzero"/>
		<path id="Vector" d="M35.23 36.92C35.28 36.65 35.3 36.37 35.3 36.1C35.3 34.9 34.84 33.77 33.99 32.92C33.81 32.74 33.62 32.58 33.42 32.44L32.09 33.56L24.93 39.73L25.99 40.59L30.73 40.59C30.76 40.59 30.78 40.59 30.81 40.59C30.9 40.59 30.99 40.59 31.08 40.58L34.43 37.6L35.23 36.92Z" fill="#E8613B" fill-opacity="1.000000" fill-rule="nonzero"/>
		<path id="Vector" d="M33.69 36.1C33.69 36.65 33.53 37.16 33.27 37.59C32.75 38.44 31.81 39 30.74 38.98L16.31 38.98L10.51 37.22C12.82 34.71 16.12 33.22 19.64 33.22L30.81 33.22C31.6 33.22 32.32 33.54 32.84 34.06C33.36 34.58 33.69 35.3 33.69 36.1Z" fill="#E8613B" fill-opacity="1.000000" fill-rule="nonzero"/>
		<path id="Vector" d="M32.58 0.8L14.42 0.8C11.2 0.8 8.58 3.42 8.58 6.64L8.58 17.95C8.58 21.17 11.2 23.78 14.42 23.78L16.88 23.78L18.33 27.05C18.59 27.63 19.42 27.63 19.68 27.05L21.13 23.78L32.58 23.78C35.8 23.78 38.41 21.17 38.41 17.95L38.41 6.64C38.41 3.42 35.8 0.8 32.58 0.8Z" fill="#6FE1D6" fill-opacity="1.000000" fill-rule="nonzero"/>
		<path id="Vector" d="M30.25 12.24C30.25 15.97 27.23 19 23.5 19C19.77 19 16.75 15.97 16.75 12.24C16.75 8.52 19.77 5.49 23.5 5.49C27.23 5.49 30.25 8.52 30.25 12.24Z" fill="#FFFFFF" fill-opacity="1.000000" fill-rule="evenodd"/>
		<path id="Vector" d="M9.75 43.59L10.17 42.71C12.23 38.37 16.6 35.61 21.4 35.61L32.56 35.61C32.96 35.61 33.33 35.69 33.68 35.83C33.61 35.14 33.31 34.52 32.84 34.06C32.32 33.54 31.6 33.22 30.81 33.22L19.64 33.22C14.84 33.22 10.48 35.98 8.42 40.32L8 41.2L2.71 47.87C2.25 48.46 2.51 49.32 3.22 49.55L4.67 50.01L9.75 43.59Z" fill="#E8613B" fill-opacity="1.000000" fill-rule="nonzero"/>
		<path id="Vector" d="M18.65 19.74C16.15 19.74 14.12 17.72 14.12 15.22L14.12 2.8C14.12 2.09 14.29 1.41 14.59 0.8L14.42 0.8C11.2 0.8 8.58 3.42 8.58 6.64L8.58 17.95C8.58 21.17 11.2 23.78 14.42 23.78L16.88 23.78L18.33 27.05C18.59 27.63 19.42 27.63 19.68 27.05L21.13 23.78L32.58 23.78C35.18 23.78 37.38 22.09 38.13 19.74L18.65 19.74Z" fill="#6FE1D6" fill-opacity="1.000000" fill-rule="nonzero"/>
		<path id="Vector" d="M53.3 30.48C52.77 29.85 52.02 29.46 51.19 29.39C50.36 29.33 49.56 29.58 48.92 30.12L48.51 30.47C48.41 29.96 48.18 29.47 47.83 29.06C46.72 27.75 44.76 27.59 43.45 28.7L43.08 29.01C42.97 28.52 42.75 28.05 42.4 27.64C41.3 26.34 39.33 26.18 38.02 27.28L31.81 32.55C31.49 32.46 31.15 32.41 30.81 32.41L19.64 32.41C17.13 32.41 14.69 33.12 12.57 34.46C10.45 35.8 8.76 37.7 7.69 39.97L7.31 40.77L1.12 48.58C0.85 48.93 0.91 49.44 1.26 49.71C1.4 49.83 1.58 49.89 1.76 49.89C2 49.89 2.23 49.78 2.39 49.58L8.63 41.7C8.67 41.65 8.7 41.6 8.73 41.55L9.15 40.66C11.06 36.63 15.18 34.03 19.64 34.03L30.81 34.03C31.95 34.03 32.88 34.96 32.88 36.1C32.88 36.66 32.66 37.18 32.25 37.58C31.86 37.96 31.35 38.17 30.81 38.17C30.79 38.17 23.54 38.17 23.54 38.17C23.09 38.17 22.73 38.53 22.73 38.98C22.73 39.42 23.09 39.78 23.54 39.78L30.74 39.78C31.73 39.8 32.67 39.43 33.39 38.73C33.49 38.63 33.58 38.53 33.67 38.42L40.5 38.42C41.23 38.42 41.94 38.16 42.49 37.69L49.97 31.35C50.27 31.1 50.66 30.97 51.06 31.01C51.45 31.04 51.81 31.22 52.07 31.53C52.33 31.83 52.45 32.22 52.42 32.61C52.39 33.01 52.2 33.37 51.9 33.63L40.09 43.63C38.99 44.57 37.65 45.15 36.22 45.32L34.09 45.58C33.64 45.63 33.33 46.04 33.38 46.48C33.43 46.89 33.78 47.19 34.18 47.19C34.21 47.19 34.25 47.19 34.28 47.18L36.41 46.93C38.16 46.72 39.79 46.01 41.14 44.87L52.94 34.86C53.58 34.32 53.96 33.57 54.03 32.75C54.1 31.92 53.84 31.11 53.3 30.48ZM39.07 28.52C39.7 27.99 40.64 28.06 41.17 28.69C41.66 29.27 41.64 30.11 41.13 30.66L34.49 36.29C34.49 36.23 34.49 36.16 34.49 36.1C34.49 35.03 34.04 34.07 33.31 33.4L39.07 28.52ZM36.39 36.8L44.49 29.93C45.12 29.4 46.06 29.48 46.59 30.11C46.85 30.41 46.98 30.8 46.94 31.19C46.91 31.59 46.72 31.95 46.42 32.21L41.45 36.46C41.18 36.68 40.85 36.8 40.5 36.8L36.39 36.8Z" fill="#0F1923" fill-opacity="1.000000" fill-rule="nonzero"/>
		<path id="Vector" d="M30.64 45.99L23.03 46.91C22.83 46.93 22.64 47.04 22.51 47.19L17.1 53.67C16.82 54.01 16.86 54.52 17.2 54.81C17.35 54.93 17.54 55 17.72 55C17.95 55 18.18 54.9 18.34 54.71L23.55 48.48L30.83 47.6C31.28 47.55 31.59 47.14 31.54 46.7C31.49 46.26 31.08 45.94 30.64 45.99Z" fill="#0F1923" fill-opacity="1.000000" fill-rule="nonzero"/>
		<path id="Vector" d="M14.42 24.59L16.36 24.59L17.6 27.38C17.85 27.94 18.39 28.29 19.01 28.29C19.62 28.29 20.17 27.94 20.42 27.38L21.66 24.59L25.8 24.59C26.24 24.59 26.61 24.23 26.61 23.78C26.61 23.34 26.24 22.97 25.8 22.97L21.13 22.97C20.81 22.97 20.52 23.16 20.39 23.45L19.01 26.57L17.62 23.45C17.49 23.16 17.2 22.97 16.88 22.97L14.42 22.97C11.65 22.97 9.39 20.72 9.39 17.95L9.39 6.64C9.39 3.87 11.65 1.61 14.42 1.61L32.58 1.61C35.35 1.61 37.61 3.87 37.61 6.64L37.61 17.95C37.61 20.72 35.35 22.97 32.58 22.97L29.24 22.97C28.8 22.97 28.44 23.34 28.44 23.78C28.44 24.23 28.8 24.59 29.24 24.59L32.58 24.59C36.24 24.59 39.22 21.61 39.22 17.95L39.22 6.64C39.22 2.98 36.24 0 32.58 0L14.42 0C10.76 0 7.78 2.98 7.78 6.64L7.78 17.95C7.78 21.61 10.76 24.59 14.42 24.59Z" fill="#0F1923" fill-opacity="1.000000" fill-rule="nonzero"/>
		<path id="Vector" d="M18.44 7.71C18.07 7.45 17.57 7.54 17.31 7.9C16.41 9.18 15.94 10.68 15.94 12.24C15.94 16.41 19.33 19.8 23.5 19.8C27.67 19.8 31.06 16.41 31.06 12.24C31.06 11.07 30.79 9.97 30.32 8.98L32.9 6.5C33.23 6.19 33.24 5.68 32.93 5.36C32.62 5.04 32.11 5.03 31.79 5.33L29.44 7.58C28.05 5.82 25.91 4.68 23.5 4.68C22.37 4.68 21.28 4.93 20.26 5.41C19.85 5.6 19.68 6.09 19.87 6.49C20.07 6.89 20.55 7.07 20.95 6.87C21.75 6.49 22.61 6.3 23.5 6.3C25.45 6.3 27.18 7.24 28.27 8.7L23.22 13.52L22.21 12.5C21.89 12.19 21.38 12.19 21.06 12.5C20.75 12.82 20.75 13.33 21.06 13.65L22.64 15.22C22.79 15.38 23 15.46 23.21 15.46C23.41 15.46 23.61 15.38 23.77 15.23L29.07 10.17C29.31 10.82 29.44 11.51 29.44 12.24C29.44 15.52 26.78 18.19 23.5 18.19C20.22 18.19 17.56 15.52 17.56 12.24C17.56 11.02 17.93 9.84 18.63 8.83C18.89 8.47 18.8 7.96 18.44 7.71Z" fill="#0F1923" fill-opacity="1.000000" fill-rule="nonzero"/>
	</g>
</svg>
