<svg width="55.000000" height="55.000000" viewBox="0 0 55 55" fill="none" xmlns="http://www.w3.org/2000/svg" xmlns:xlink="http://www.w3.org/1999/xlink">
	
	<defs>
		<clipPath id="clip14_112">
			<rect id="fi_16241890" rx="0.000000" width="54.000000" height="54.000000" transform="translate(0.500000 0.500000)" fill="white" fill-opacity="0"/>
		</clipPath>
	</defs>
	<rect id="fi_16241890" rx="0.000000" width="54.000000" height="54.000000" transform="translate(0.500000 0.500000)" fill="#FFFFFF" fill-opacity="0"/>
	<g clip-path="url(#clip14_112)">
		<path id="Vector" d="M38.72 29.1L47.09 47.66L39.18 45.26L35.86 52.7L27.38 33.91L38.72 29.1Z" fill="#EEB756" fill-opacity="1.000000" fill-rule="nonzero"/>
		<path id="Vector" d="M35.86 54.42C35.17 54.42 34.6 54.08 34.26 53.39L25.78 34.6C25.43 33.68 25.78 32.77 26.69 32.31C27.61 31.96 28.53 32.31 28.98 33.22L35.86 48.58L37.69 44.57C38.04 43.77 38.95 43.42 39.76 43.65L44 44.91L37.23 29.9C36.89 28.98 37.23 28.07 38.15 27.61C39.07 27.27 39.98 27.61 40.44 28.53L48.58 46.97C48.81 47.55 48.69 48.35 48.35 48.81C47.89 49.27 47.2 49.5 46.52 49.27L40.1 47.32L37.35 53.39C37.12 54.08 36.43 54.42 35.86 54.42Z" fill="#151544" fill-opacity="1.000000" fill-rule="nonzero"/>
		<path id="Vector" d="M16.27 29.1L7.9 47.66L15.81 45.26L19.13 52.7L27.61 33.91L16.27 29.1Z" fill="#EEB756" fill-opacity="1.000000" fill-rule="nonzero"/>
		<path id="Vector" d="M19.13 54.42C18.44 54.42 17.87 54.08 17.53 53.39L14.89 47.32L8.47 49.27C7.79 49.5 7.1 49.27 6.64 48.81C6.18 48.35 6.07 47.55 6.41 46.97L14.66 28.53C15.01 27.61 16.04 27.27 16.95 27.61C17.87 27.95 18.21 28.98 17.87 29.9L11.11 44.91L15.35 43.65C16.15 43.42 17.07 43.77 17.41 44.57L19.25 48.58L26.12 33.22C26.46 32.31 27.5 31.96 28.41 32.31C29.33 32.65 29.67 33.68 29.33 34.6L20.85 53.39C20.51 54.08 19.82 54.42 19.13 54.42Z" fill="#151544" fill-opacity="1.000000" fill-rule="nonzero"/>
		<path id="Vector" d="M43.31 18.1C43.31 26.83 36.23 33.91 27.5 33.91C18.76 33.91 11.68 26.83 11.68 18.1C11.68 9.37 18.76 2.29 27.5 2.29C36.23 2.29 43.31 9.37 43.31 18.1Z" fill="#FFFFFF" fill-opacity="1.000000" fill-rule="evenodd"/>
		<path id="Vector" d="M27.5 35.63C17.87 35.63 9.96 27.72 9.96 18.1C9.96 8.47 17.87 0.57 27.5 0.57C37.12 0.57 45.03 8.47 45.03 18.1C45.03 27.72 37.12 35.63 27.5 35.63ZM27.5 4.01C19.7 4.01 13.4 10.31 13.4 18.1C13.4 25.89 19.7 32.19 27.5 32.19C35.29 32.19 41.59 25.89 41.59 18.1C41.59 10.31 35.29 4.01 27.5 4.01Z" fill="#151544" fill-opacity="1.000000" fill-rule="nonzero"/>
		<path id="Vector" d="M34.94 18.1C34.94 22.21 31.61 25.55 27.5 25.55C23.38 25.55 20.05 22.21 20.05 18.1C20.05 13.99 23.38 10.65 27.5 10.65C31.61 10.65 34.94 13.99 34.94 18.1Z" fill="#EEB756" fill-opacity="1.000000" fill-rule="evenodd"/>
		<path id="Vector" d="M27.5 27.27C22.45 27.27 18.33 23.14 18.33 18.1C18.33 13.06 22.45 8.93 27.5 8.93C32.54 8.93 36.66 13.06 36.66 18.1C36.66 23.14 32.54 27.27 27.5 27.27ZM27.5 12.26C24.29 12.26 21.77 14.89 21.77 17.98C21.77 21.08 24.4 23.71 27.5 23.71C30.59 23.71 33.22 21.08 33.22 17.98C33.22 14.89 30.7 12.26 27.5 12.26Z" fill="#151544" fill-opacity="1.000000" fill-rule="nonzero"/>
	</g>
</svg>
