<svg width="55.000000" height="55.000000" viewBox="0 0 55 55" fill="none" xmlns="http://www.w3.org/2000/svg" xmlns:xlink="http://www.w3.org/1999/xlink">
	
	<defs>
		<clipPath id="clip21_5">
			<rect id="fi_7928679" rx="0.000000" width="54.000000" height="54.000000" transform="translate(0.500000 0.500000)" fill="white" fill-opacity="0"/>
		</clipPath>
	</defs>
	<rect id="fi_7928679" rx="0.000000" width="54.000000" height="54.000000" transform="translate(0.500000 0.500000)" fill="#FFFFFF" fill-opacity="0"/>
	<g clip-path="url(#clip21_5)">
		<path id="Vector" d="M19.51 12.57C19.51 11.66 20.25 10.92 21.16 10.92L24.53 10.92C24.08 5.26 19.34 0.8 13.56 0.8C7.48 0.8 2.55 5.73 2.55 11.81C2.55 17.89 7.48 22.81 13.56 22.81C15.75 22.81 17.8 22.17 19.51 21.07L19.51 12.57Z" fill="#FFFFFF" fill-opacity="1.000000" fill-rule="nonzero"/>
		<path id="Vector" d="M20.09 11.31C20.38 11.07 20.75 10.92 21.16 10.92L24.53 10.92C24.08 5.26 19.34 0.8 13.56 0.8C12.8 0.8 12.05 0.88 11.33 1.03C16.18 2.03 19.87 6.22 20.09 11.31Z" fill="#FFFFFF" fill-opacity="1.000000" fill-rule="nonzero"/>
		<path id="Vector" d="M19.51 15.37C18.27 19.02 15.16 21.8 11.33 22.59C12.05 22.74 12.8 22.81 13.56 22.81C15.75 22.81 17.8 22.17 19.51 21.07L19.51 15.37Z" fill="#FFFFFF" fill-opacity="1.000000" fill-rule="nonzero"/>
		<path id="Vector" d="M50.64 10.92L21.16 10.92C20.25 10.92 19.51 11.66 19.51 12.57L19.51 25.86L26.12 25.86C27.37 25.86 28.38 26.87 28.38 28.11L28.38 34.02L41.92 34.02L46.27 38.38C46.58 38.69 47.11 38.47 47.11 38.03L47.11 34.02L50.64 34.02C51.55 34.02 52.29 33.29 52.29 32.38L52.29 12.57C52.29 11.66 51.55 10.92 50.64 10.92Z" fill="#6FE1D6" fill-opacity="1.000000" fill-rule="nonzero"/>
		<path id="Vector" d="M50.64 10.92L43.39 10.92C44.3 10.92 45.04 11.66 45.04 12.57L45.04 32.38C45.04 33.29 44.3 34.02 43.39 34.02L41.92 34.02L46.27 38.38C46.58 38.69 47.11 38.47 47.11 38.03L47.11 34.02L50.64 34.02C51.55 34.02 52.29 33.29 52.29 32.38L52.29 12.57C52.29 11.66 51.55 10.92 50.64 10.92Z" fill="#6FE1D6" fill-opacity="1.000000" fill-rule="nonzero"/>
		<path id="Vector" d="M26.12 25.86L8 25.86C6.75 25.86 5.74 26.87 5.74 28.11L5.74 46.24C5.74 47.49 6.75 48.5 8 48.5L12.99 48.5L12.99 53.44C12.99 54.11 13.8 54.44 14.27 53.97L19.74 48.5L26.12 48.5C27.37 48.5 28.38 47.49 28.38 46.24L28.38 28.11C28.38 26.87 27.37 25.86 26.12 25.86Z" fill="#EEB756" fill-opacity="1.000000" fill-rule="nonzero"/>
		<path id="Vector" d="M26.12 25.86L21.19 25.86C22.44 25.86 23.45 26.87 23.45 28.11L23.45 46.24C23.45 47.49 22.44 48.5 21.19 48.5L26.12 48.5C27.37 48.5 28.38 47.49 28.38 46.24L28.38 28.11C28.38 26.87 27.37 25.86 26.12 25.86Z" fill="#EEB756" fill-opacity="1.000000" fill-rule="nonzero"/>
		<path id="Vector" d="M9.86 8.11C9.55 8.43 9.55 8.94 9.86 9.25L12.99 12.38C13.14 12.53 13.35 12.61 13.56 12.61L16.96 12.61C17.4 12.61 17.76 12.25 17.76 11.81C17.76 11.36 17.4 11 16.96 11L13.89 11L11 8.11C10.69 7.8 10.18 7.8 9.86 8.11Z" fill="#0F1923" fill-opacity="1.000000" fill-rule="nonzero"/>
		<path id="Vector" d="M12.75 18.88L12.75 19.44C12.75 19.89 13.12 20.25 13.56 20.25C14 20.25 14.37 19.89 14.37 19.44L14.37 18.88C14.37 18.44 14 18.08 13.56 18.08C13.12 18.08 12.75 18.44 12.75 18.88Z" fill="#0F1923" fill-opacity="1.000000" fill-rule="nonzero"/>
		<path id="Vector" d="M14.37 4.73L14.37 4.17C14.37 3.72 14 3.36 13.56 3.36C13.12 3.36 12.75 3.72 12.75 4.17L12.75 4.73C12.75 5.18 13.12 5.54 13.56 5.54C14 5.54 14.37 5.18 14.37 4.73Z" fill="#0F1923" fill-opacity="1.000000" fill-rule="nonzero"/>
		<path id="Vector" d="M6.48 12.61C6.93 12.61 7.29 12.25 7.29 11.81C7.29 11.36 6.93 11 6.48 11L5.92 11C5.48 11 5.12 11.36 5.12 11.81C5.12 12.25 5.48 12.61 5.92 12.61L6.48 12.61Z" fill="#0F1923" fill-opacity="1.000000" fill-rule="nonzero"/>
		<path id="Vector" d="M18.56 7.61C18.77 7.61 18.98 7.53 19.13 7.37L19.53 6.98C19.84 6.66 19.84 6.15 19.53 5.84C19.21 5.52 18.7 5.52 18.39 5.84L17.99 6.23C17.68 6.55 17.68 7.06 17.99 7.37C18.15 7.53 18.36 7.61 18.56 7.61Z" fill="#0F1923" fill-opacity="1.000000" fill-rule="nonzero"/>
		<path id="Vector" d="M7.59 17.78C7.75 17.93 7.95 18.01 8.16 18.01C8.37 18.01 8.57 17.93 8.73 17.78L9.13 17.38C9.44 17.07 9.44 16.55 9.13 16.24C8.81 15.93 8.3 15.93 7.99 16.24L7.59 16.64C7.28 16.95 7.28 17.46 7.59 17.78Z" fill="#0F1923" fill-opacity="1.000000" fill-rule="nonzero"/>
		<path id="Vector" d="M7.99 7.37C8.14 7.53 8.35 7.61 8.56 7.61C8.76 7.61 8.97 7.53 9.13 7.37C9.44 7.06 9.44 6.55 9.13 6.23L8.73 5.84C8.41 5.52 7.9 5.52 7.59 5.84C7.28 6.15 7.28 6.66 7.59 6.98L7.99 7.37Z" fill="#0F1923" fill-opacity="1.000000" fill-rule="nonzero"/>
		<path id="Vector" d="M50.64 10.11L42.67 10.11C42.23 10.11 41.87 10.47 41.87 10.92C41.87 11.36 42.23 11.73 42.67 11.73L50.64 11.73C51.1 11.73 51.48 12.1 51.48 12.57L51.48 32.38C51.48 32.84 51.1 33.22 50.64 33.22L47.11 33.22C46.67 33.22 46.31 33.58 46.31 34.02L46.31 37.27L42.49 33.45C42.34 33.3 42.13 33.22 41.92 33.22L29.18 33.22L29.18 28.11C29.18 26.43 27.81 25.05 26.12 25.05L20.32 25.05L20.32 12.57C20.32 12.1 20.7 11.73 21.16 11.73L38.91 11.73C39.36 11.73 39.72 11.36 39.72 10.92C39.72 10.47 39.36 10.11 38.91 10.11L25.25 10.11C24.43 4.4 19.5 0 13.56 0C10.75 0 8.02 1 5.89 2.83C3.78 4.63 2.36 7.13 1.91 9.85C1.84 10.29 2.13 10.71 2.57 10.78C3.01 10.85 3.43 10.56 3.5 10.12C3.89 7.77 5.11 5.61 6.93 4.05C8.78 2.47 11.13 1.61 13.56 1.61C18.61 1.61 22.81 5.29 23.62 10.11L21.16 10.11C19.81 10.11 18.71 11.21 18.71 12.57L18.71 16.02C18.46 15.97 18.19 16.05 17.99 16.24C17.68 16.56 17.68 17.07 17.99 17.38L18.39 17.78C18.48 17.87 18.59 17.93 18.71 17.97L18.71 20.61C17.2 21.5 15.44 22.01 13.56 22.01C8.61 22.01 4.38 18.47 3.52 13.6C3.44 13.17 3.02 12.87 2.58 12.95C2.15 13.03 1.85 13.45 1.93 13.89C2.93 19.53 7.82 23.62 13.56 23.62C15.4 23.62 17.15 23.19 18.71 22.43L18.71 25.05L8 25.05C6.31 25.05 4.94 26.43 4.94 28.11L4.94 40.71C4.94 41.15 5.3 41.51 5.74 41.51C6.19 41.51 6.55 41.15 6.55 40.71L6.55 28.11C6.55 27.32 7.2 26.66 8 26.66L26.12 26.66C26.92 26.66 27.57 27.32 27.57 28.11L27.57 46.24C27.57 47.04 26.92 47.69 26.12 47.69L19.74 47.69C19.53 47.69 19.32 47.78 19.17 47.93L13.79 53.31L13.79 48.5C13.79 48.05 13.43 47.69 12.99 47.69L8 47.69C7.2 47.69 6.55 47.04 6.55 46.24L6.55 44.47C6.55 44.02 6.19 43.66 5.74 43.66C5.3 43.66 4.94 44.02 4.94 44.47L4.94 46.24C4.94 47.93 6.31 49.3 8 49.3L12.18 49.3L12.18 53.44C12.18 54.07 12.56 54.63 13.14 54.88C13.34 54.96 13.54 55 13.74 55C14.14 55 14.54 54.84 14.84 54.54L20.07 49.3L26.12 49.3C27.81 49.3 29.18 47.93 29.18 46.24L29.18 34.83L41.58 34.83L45.7 38.95C45.95 39.2 46.28 39.33 46.62 39.33C46.79 39.33 46.96 39.29 47.12 39.23C47.61 39.03 47.92 38.55 47.92 38.03L47.92 34.83L50.64 34.83C51.99 34.83 53.09 33.73 53.09 32.38L53.09 12.57C53.09 11.21 51.99 10.11 50.64 10.11Z" fill="#0F1923" fill-opacity="1.000000" fill-rule="nonzero"/>
		<path id="Vector" d="M46.75 16.88L25.05 16.88C24.61 16.88 24.24 17.24 24.24 17.68C24.24 18.13 24.61 18.49 25.05 18.49L46.75 18.49C47.19 18.49 47.55 18.13 47.55 17.68C47.55 17.24 47.19 16.88 46.75 16.88Z" fill="#0F1923" fill-opacity="1.000000" fill-rule="nonzero"/>
		<path id="Vector" d="M37.53 22.47C37.53 22.03 37.17 21.67 36.72 21.67L25.05 21.67C24.61 21.67 24.24 22.03 24.24 22.47C24.24 22.92 24.61 23.28 25.05 23.28L36.72 23.28C37.17 23.28 37.53 22.92 37.53 22.47Z" fill="#0F1923" fill-opacity="1.000000" fill-rule="nonzero"/>
		<path id="Vector" d="M46.75 21.67L40.61 21.67C40.17 21.67 39.81 22.03 39.81 22.47C39.81 22.92 40.17 23.28 40.61 23.28L46.75 23.28C47.19 23.28 47.55 22.92 47.55 22.47C47.55 22.03 47.19 21.67 46.75 21.67Z" fill="#0F1923" fill-opacity="1.000000" fill-rule="nonzero"/>
		<path id="Vector" d="M31.63 28.07L46.75 28.07C47.19 28.07 47.55 27.71 47.55 27.26C47.55 26.81 47.19 26.45 46.75 26.45L31.63 26.45C31.19 26.45 30.83 26.81 30.83 27.26C30.83 27.71 31.19 28.07 31.63 28.07Z" fill="#0F1923" fill-opacity="1.000000" fill-rule="nonzero"/>
		<path id="Vector" d="M18.78 38.41C20.52 37.68 21.61 35.92 21.49 34.03C21.35 31.81 19.57 30.02 17.34 29.88C16.1 29.81 14.92 30.23 14.02 31.08C13.13 31.92 12.62 33.1 12.62 34.32C12.62 34.76 12.98 35.12 13.42 35.12C13.87 35.12 14.23 34.76 14.23 34.32C14.23 33.53 14.55 32.79 15.12 32.25C15.7 31.71 16.45 31.44 17.24 31.49C18.64 31.58 19.8 32.74 19.88 34.13C19.96 35.34 19.26 36.46 18.16 36.93C17 37.41 16.25 38.54 16.25 39.81C16.25 40.25 16.61 40.61 17.06 40.61C17.5 40.61 17.87 40.25 17.87 39.8C17.87 39.19 18.23 38.64 18.78 38.41Z" fill="#0F1923" fill-opacity="1.000000" fill-rule="nonzero"/>
		<path id="Vector" d="M17.06 42.25C16.61 42.25 16.25 42.61 16.25 43.06L16.25 43.68C16.25 44.12 16.61 44.48 17.06 44.48C17.5 44.48 17.87 44.12 17.87 43.68L17.87 43.06C17.87 42.61 17.5 42.25 17.06 42.25Z" fill="#0F1923" fill-opacity="1.000000" fill-rule="nonzero"/>
	</g>
</svg>
