<svg width="28.431335" height="28.430176" viewBox="0 0 28.4313 28.4302" fill="none" xmlns="http://www.w3.org/2000/svg" xmlns:xlink="http://www.w3.org/1999/xlink">
	
	<defs>
		<clipPath id="clip1_577">
			<rect id="fi_11823292" rx="0.000000" width="27.431358" height="27.429943" transform="translate(0.500000 0.500000)" fill="white" fill-opacity="0"/>
		</clipPath>
	</defs>
	<rect id="fi_11823292" rx="0.000000" width="27.431358" height="27.429943" transform="translate(0.500000 0.500000)" fill="#FFFFFF" fill-opacity="0"/>
	<g clip-path="url(#clip1_577)">
		<path id="Vector" d="M16.86 12.03L27.21 0L24.76 0L15.77 10.45L8.58 0L0.3 0L11.16 15.8L0.3 28.43L2.76 28.43L12.25 17.39L19.84 28.43L28.12 28.43L16.86 12.03L16.86 12.03ZM13.5 15.94L12.4 14.37L3.64 1.84L7.41 1.84L14.48 11.95L15.58 13.52L24.76 26.66L20.99 26.66L13.5 15.94L13.5 15.94Z" fill="#000000" fill-opacity="1.000000" fill-rule="nonzero"/>
	</g>
</svg>
