<svg width="28.786743" height="20.154297" viewBox="0 0 28.7867 20.1543" fill="none" xmlns="http://www.w3.org/2000/svg" xmlns:xlink="http://www.w3.org/1999/xlink">
	
	<defs/>
	<path id="Vector" d="M28.19 3.15C27.86 1.92 26.88 0.94 25.65 0.61C23.4 0 14.39 0 14.39 0C14.39 0 5.38 0 3.12 0.59C1.92 0.92 0.92 1.92 0.59 3.15C0 5.4 0 10.07 0 10.07C0 10.07 0 14.77 0.59 17C0.92 18.23 1.89 19.2 3.13 19.53C5.4 20.15 14.39 20.15 14.39 20.15C14.39 20.15 23.4 20.15 25.65 19.56C26.88 19.22 27.86 18.25 28.19 17.02C28.78 14.77 28.78 10.1 28.78 10.1C28.78 10.1 28.81 5.4 28.19 3.15ZM11.52 14.39L11.52 5.76L19.01 10.07L11.52 14.39Z" fill="#000000" fill-opacity="1.000000" fill-rule="nonzero"/>
</svg>
