<svg width="100.000000" height="99.718994" viewBox="0 0 100 99.719" fill="none" xmlns="http://www.w3.org/2000/svg" xmlns:xlink="http://www.w3.org/1999/xlink">
	
	<defs/>
	<path id="Vector" d="M2.93 17.77L2.93 6.09C2.93 4.31 4.33 2.85 6.05 2.85L24.01 2.85C25.73 2.85 27.13 4.31 27.13 6.09L27.13 17.77C27.13 19.56 25.73 21.01 24.01 21.01L21.48 21.01L21.48 25.3L15.5 21.01L6.05 21.01C4.33 21.01 2.93 19.56 2.93 17.77Z" fill="#8BAE82" fill-opacity="1.000000" fill-rule="nonzero"/>
	<path id="Vector" d="M37.93 6.09C37.93 4.31 39.33 2.85 41.06 2.85L59.02 2.85C60.74 2.85 62.14 4.31 62.14 6.09L62.14 17.77C62.14 19.56 60.74 21.01 59.02 21.01L57.55 21.01L57.55 25.08L52.51 21.01L41.06 21.01C39.33 21.01 37.93 19.56 37.93 17.77L37.93 6.09Z" fill="#8BAE82" fill-opacity="1.000000" fill-rule="nonzero"/>
	<path id="Vector" d="M97.06 17.77C97.06 19.56 95.66 21.01 93.94 21.01L84.4 21.01L78.51 25.28L78.51 21.01L75.98 21.01C74.26 21.01 72.86 19.56 72.86 17.77L72.86 6.09C72.86 4.31 74.26 2.85 75.98 2.85L93.94 2.85C95.66 2.85 97.07 4.31 97.07 6.09L97.06 17.77Z" fill="#8BAE82" fill-opacity="1.000000" fill-rule="nonzero"/>
	<path id="Vector" d="M14.56 24.01L24.41 31.07L24.41 23.99C27.56 23.78 30.06 21.11 30.06 17.84L30.06 6.16C30.06 2.76 27.35 0 24.01 0L6.05 0C2.71 0 0 2.76 0 6.16L0 17.84C0 21.24 2.71 24.01 6.05 24.01L14.56 24.01ZM2.93 17.84L2.93 6.16C2.93 4.38 4.33 2.93 6.05 2.93L24.01 2.93C25.73 2.93 27.14 4.38 27.14 6.16L27.14 17.84C27.14 19.63 25.73 21.08 24.01 21.08L21.48 21.08L21.48 25.37L15.5 21.08L6.05 21.08C4.33 21.08 2.93 19.63 2.93 17.84Z" fill="#273F51" fill-opacity="1.000000" fill-rule="nonzero"/>
	<path id="Vector" d="M6.49 7.89L23.57 7.89L23.57 10.82L6.49 10.82L6.49 7.89Z" fill="#273F51" fill-opacity="1.000000" fill-rule="nonzero"/>
	<path id="Vector" d="M6.49 13.75L16.74 13.75L16.74 16.68L6.49 16.68L6.49 13.75Z" fill="#273F51" fill-opacity="1.000000" fill-rule="nonzero"/>
	<path id="Vector" d="M41.06 24.01L48.57 24.01L48.57 33.03L44.95 30.79L43.41 33.29L50.04 37.38L56.67 33.29L55.13 30.79L51.5 33.03L51.5 24.03L60.48 31.29L60.48 23.83C63.11 23.16 65.07 20.73 65.07 17.85L65.07 6.16C65.07 2.76 62.35 0 59.02 0L41.06 0C37.72 0 35 2.76 35 6.16L35 17.84C35 21.24 37.72 24.01 41.06 24.01ZM37.93 6.16C37.93 4.38 39.33 2.93 41.06 2.93L59.02 2.93C60.74 2.93 62.14 4.38 62.14 6.16L62.14 17.84C62.14 19.63 60.74 21.08 59.02 21.08L57.55 21.08L57.55 25.15L52.51 21.08L41.06 21.08C39.33 21.08 37.93 19.63 37.93 17.84L37.93 6.16Z" fill="#273F51" fill-opacity="1.000000" fill-rule="nonzero"/>
	<path id="Vector" d="M93.94 0L75.98 0C72.64 0 69.93 2.76 69.93 6.16L69.93 17.84C69.93 21.11 72.43 23.78 75.58 23.99L75.58 31.09L85.35 24.01L93.94 24.01C97.28 24.01 100 21.24 100 17.84L100 6.16C100 2.76 97.28 0 93.94 0ZM97.07 17.84C97.07 19.63 95.66 21.08 93.94 21.08L84.4 21.08L78.51 25.35L78.51 21.08L75.98 21.08C74.26 21.08 72.86 19.63 72.86 17.84L72.86 6.16C72.86 4.38 74.26 2.93 75.98 2.93L93.94 2.93C95.66 2.93 97.07 4.38 97.07 6.16L97.07 17.84L97.07 17.84Z" fill="#273F51" fill-opacity="1.000000" fill-rule="nonzero"/>
	<path id="Vector" d="M76.42 7.89L93.5 7.89L93.5 10.82L76.42 10.82L76.42 7.89Z" fill="#273F51" fill-opacity="1.000000" fill-rule="nonzero"/>
	<path id="Vector" d="M76.42 13.75L86.67 13.75L86.67 16.68L76.42 16.68L76.42 13.75Z" fill="#273F51" fill-opacity="1.000000" fill-rule="nonzero"/>
	<path id="Vector" d="M82.2 32.46L83.74 34.95L87.36 32.71L87.36 47.98L90.29 47.98L90.29 32.71L93.92 34.95L95.46 32.46L88.83 28.37L82.2 32.46Z" fill="#273F51" fill-opacity="1.000000" fill-rule="nonzero"/>
	<path id="Vector" d="M9.78 47.98L12.71 47.98L12.71 32.71L16.33 34.95L17.87 32.46L11.24 28.37L4.61 32.46L6.15 34.95L9.78 32.71L9.78 47.98Z" fill="#273F51" fill-opacity="1.000000" fill-rule="nonzero"/>
	<path id="Vector" d="M87.36 62.93C87.36 65.36 85.39 67.33 82.97 67.33L70.89 67.33C70.29 64.44 67.97 62.18 65.05 61.67C64.41 58.28 61.43 55.7 57.85 55.7L51.5 55.7L51.5 48.76C56.09 47.06 54.99 40.31 50.04 40.22C45.08 40.31 43.98 47.06 48.57 48.76L48.57 55.7L42.22 55.7C38.65 55.7 35.66 58.28 35.03 61.67C32.11 62.18 29.78 64.44 29.19 67.33L17.1 67.33C14.68 67.33 12.71 65.36 12.71 62.93L12.71 50.91L9.78 50.91L9.78 62.93C9.78 66.97 13.06 70.26 17.1 70.26L29.19 70.26C29.78 73.15 32.11 75.41 35.03 75.92C35.43 78.08 36.79 79.91 38.65 80.95C38.28 81.41 37.95 81.9 37.65 82.39C32.39 83.47 28.35 88.48 28.43 93.87L28.43 99.71L31.36 99.71L31.36 93.87C31.36 90.49 33.23 87.54 36.06 86.06C35.7 87.32 35.52 88.62 35.52 89.95L35.52 99.71L38.45 99.71L38.45 89.95C38.45 86.9 39.6 84.06 41.71 81.89L58.36 81.89C60.47 84.06 61.62 86.9 61.62 89.95L61.62 99.71L64.55 99.71L64.55 89.95C64.55 88.62 64.37 87.32 64.02 86.06C66.85 87.54 68.71 90.49 68.71 93.87L68.71 99.71L71.64 99.71L71.64 93.87C71.72 88.48 67.68 83.47 62.42 82.39C62.12 81.9 61.79 81.41 61.43 80.95C63.28 79.91 64.64 78.08 65.05 75.92C67.97 75.41 70.29 73.15 70.89 70.26L82.97 70.26C87.01 70.26 90.29 66.97 90.29 62.93L90.29 50.91L87.36 50.91L87.36 62.93ZM50.04 43.15C50.84 43.15 51.5 43.8 51.5 44.61C51.42 46.55 48.65 46.55 48.57 44.61C48.57 43.8 49.23 43.15 50.04 43.15ZM31.97 68.79C31.97 66.9 33.2 65.29 34.9 64.72L34.9 72.87C33.2 72.3 31.97 70.69 31.97 68.79ZM62.24 74.57C62.24 76.99 60.27 78.96 57.85 78.96L42.22 78.96C39.8 78.96 37.83 76.99 37.83 74.57L37.83 63.02C37.83 60.6 39.8 58.63 42.22 58.63L57.85 58.63C60.27 58.63 62.24 60.6 62.24 63.02L62.24 74.57ZM65.17 72.87L65.17 64.72C69.06 66.04 69.06 71.55 65.17 72.87Z" fill="#273F51" fill-opacity="1.000000" fill-rule="nonzero"/>
	<path id="Vector" d="M45.64 10.84L48.57 10.84L48.57 13.77L45.64 13.77L45.64 10.84Z" fill="#273F51" fill-opacity="1.000000" fill-rule="nonzero"/>
	<path id="Vector" d="M51.5 10.84L54.43 10.84L54.43 13.77L51.5 13.77L51.5 10.84Z" fill="#273F51" fill-opacity="1.000000" fill-rule="nonzero"/>
	<path id="Vector" d="M41 69.85L44 66.85L47 69.85" stroke="#273F51" stroke-opacity="1.000000" stroke-width="3.000000" stroke-linejoin="round" stroke-linecap="square"/>
	<path id="Vector" d="M52 69.85L55 66.85L58 69.85" stroke="#273F51" stroke-opacity="1.000000" stroke-width="3.000000" stroke-linejoin="round" stroke-linecap="square"/>
</svg>
