<svg width="100.000000" height="100.000000" viewBox="0 0 100 100" fill="none" xmlns="http://www.w3.org/2000/svg" xmlns:xlink="http://www.w3.org/1999/xlink">
	
	<defs/>
	<path id="Vector" d="M70.54 17.77L34.83 17.77L29.49 22.52L29.49 2.92L70.54 2.92L70.54 17.77Z" fill="#8BAE82" fill-opacity="1.000000" fill-rule="nonzero"/>
	<path id="Vector" d="M70.54 54.49L34.83 54.49L29.49 59.24L29.49 39.64L70.54 39.64L70.54 54.49Z" fill="#8BAE82" fill-opacity="1.000000" fill-rule="nonzero"/>
	<path id="Vector" d="M70.54 91.21L34.83 91.21L29.49 95.96L29.49 76.36L70.54 76.36L70.54 91.21Z" fill="#8BAE82" fill-opacity="1.000000" fill-rule="nonzero"/>
	<path id="Vector" d="M35.34 6.05L64.66 6.05L64.66 8.98L35.34 8.98L35.34 6.05Z" fill="#273F51" fill-opacity="1.000000" fill-rule="nonzero"/>
	<path id="Vector" d="M57.33 11.91L64.66 11.91L64.66 14.84L57.33 14.84L57.33 11.91Z" fill="#273F51" fill-opacity="1.000000" fill-rule="nonzero"/>
	<path id="Vector" d="M35.34 11.91L54.39 11.91L54.39 14.84L35.34 14.84L35.34 11.91Z" fill="#273F51" fill-opacity="1.000000" fill-rule="nonzero"/>
	<path id="Vector" d="M35.34 42.65L64.66 42.65L64.66 45.58L35.34 45.58L35.34 42.65Z" fill="#273F51" fill-opacity="1.000000" fill-rule="nonzero"/>
	<path id="Vector" d="M35.34 48.51L64.66 48.51L64.66 51.44L35.34 51.44L35.34 48.51Z" fill="#273F51" fill-opacity="1.000000" fill-rule="nonzero"/>
	<path id="Vector" d="M35.34 79.29L64.66 79.29L64.66 82.22L35.34 82.22L35.34 79.29Z" fill="#273F51" fill-opacity="1.000000" fill-rule="nonzero"/>
	<path id="Vector" d="M57.33 85.15L64.66 85.15L64.66 88.08L57.33 88.08L57.33 85.15Z" fill="#273F51" fill-opacity="1.000000" fill-rule="nonzero"/>
	<path id="Vector" d="M35.34 85.15L54.39 85.15L54.39 88.08L35.34 88.08L35.34 85.15Z" fill="#273F51" fill-opacity="1.000000" fill-rule="nonzero"/>
	<path id="Vector" d="M100 28.75C100 17.86 91.12 8.99 80.22 8.99L73.45 8.99L73.45 0L26.54 0L26.54 26.56L29.34 26.56L35.93 20.7L48.53 20.7L48.53 24.6C46.82 25.21 45.6 26.84 45.6 28.75C45.6 30.66 46.82 32.28 48.53 32.89L48.53 36.79L38.27 36.79L38.27 39.72L70.52 39.72L70.52 54.37L34.82 54.37L29.47 59.13L29.47 39.72L35.34 39.72L35.34 36.79L26.54 36.79L26.54 45.58L19.77 45.58C8.87 45.58 0 54.45 0 65.34C0 75.67 7.96 84.17 18.07 85.03L15.62 87.48L17.7 89.55L23.61 83.64L17.7 77.73L15.62 79.8L17.89 82.07C9.49 81.13 2.93 73.99 2.93 65.34C2.93 56.06 10.48 48.51 19.77 48.51L26.54 48.51L26.54 63.16L29.34 63.16L35.93 57.3L48.53 57.3L48.53 61.21C46.82 61.81 45.6 63.44 45.6 65.35C45.6 67.26 46.82 68.89 48.53 69.49L48.53 73.43L26.54 73.43L26.54 100L29.36 100L35.95 93.94L73.45 93.94L73.45 73.43L51.46 73.43L51.46 69.49C53.17 68.89 54.39 67.26 54.39 65.35C54.39 63.44 53.17 61.81 51.46 61.21L51.46 57.3L73.45 57.3L73.45 36.79L51.46 36.79L51.46 32.89C53.17 32.28 54.39 30.66 54.39 28.75C54.39 26.84 53.17 25.21 51.46 24.6L51.46 20.7L73.45 20.7L73.45 11.92L80.22 11.92C89.51 11.92 97.06 19.47 97.06 28.75C97.06 37.37 90.55 44.48 82.19 45.46L84.45 43.21L82.38 41.14L76.46 47.05L82.38 52.96L84.45 50.89L81.99 48.43C92.07 47.53 100 39.05 100 28.75ZM70.52 91.01L34.8 91.01L29.47 95.91L29.47 76.36L70.52 76.36L70.52 91.01ZM50 66.81C49.19 66.81 48.53 66.16 48.53 65.35C48.53 64.54 49.19 63.88 50 63.88C50.8 63.88 51.46 64.54 51.46 65.35C51.46 66.16 50.8 66.81 50 66.81ZM50 30.21C49.19 30.21 48.53 29.55 48.53 28.75C48.53 27.94 49.19 27.28 50 27.28C50.8 27.28 51.46 27.94 51.46 28.75C51.46 29.55 50.8 30.21 50 30.21ZM70.52 17.77L34.82 17.77L29.47 22.52L29.47 2.92L70.52 2.92L70.52 17.77Z" fill="#273F51" fill-opacity="1.000000" fill-rule="nonzero"/>
</svg>
