<svg width="100.000000" height="99.999756" viewBox="0 0 100 99.9998" fill="none" xmlns="http://www.w3.org/2000/svg" xmlns:xlink="http://www.w3.org/1999/xlink">
	
	<defs/>
	<path id="Vector" d="M50.01 52.32C46.7 52.32 43.34 46.54 43.34 42.39C43.34 38.71 46.33 35.72 50.01 35.72C53.69 35.72 56.68 38.71 56.68 42.39C56.68 46.54 53.32 52.32 50.01 52.32Z" fill="#8BAE82" fill-opacity="1.000000" fill-rule="nonzero"/>
	<path id="Vector" d="M15.26 52.32C11.95 52.32 8.59 46.54 8.59 42.39C8.59 38.71 11.58 35.72 15.26 35.72C18.93 35.72 21.93 38.71 21.93 42.39C21.93 46.54 18.56 52.32 15.26 52.32Z" fill="#8BAE82" fill-opacity="1.000000" fill-rule="nonzero"/>
	<path id="Vector" d="M84.76 52.32C81.45 52.32 78.09 46.54 78.09 42.39C78.09 38.71 81.08 35.72 84.76 35.72C88.44 35.72 91.43 38.71 91.43 42.39C91.43 46.54 88.07 52.32 84.76 52.32Z" fill="#8BAE82" fill-opacity="1.000000" fill-rule="nonzero"/>
	<path id="Vector" d="M99.99 63.02C99.98 57.52 97.01 52.52 92.31 49.85C94.87 45.38 95.51 39.81 91.99 36.03C90.84 28.43 87.64 21.28 82.69 15.32L80.44 17.19C84.41 21.98 87.18 27.59 88.55 33.58C86.27 32.59 83.33 32.61 81.06 33.63C73.18 0.13 26.83 0.15 18.96 33.63C16.7 32.61 13.76 32.59 11.47 33.58C13.25 25.83 17.38 18.72 23.31 13.28L21.33 11.12C14.18 17.68 9.47 26.51 8.03 36.03C4.52 39.81 5.15 45.37 7.72 49.84C3 52.51 0.03 57.51 0.03 63.02C0.11 66.77 -0.87 71.46 3.8 72.87L3.8 93.58C3.83 99.62 11.41 102.27 15.19 97.66C18.98 102.27 26.55 99.62 26.58 93.58L26.58 72.87C31.21 71.42 30.22 66.79 30.29 63.02C30.28 57.52 27.32 52.52 22.61 49.85C25.38 45.02 25.82 39.11 21.62 35.35C27.74 3.55 72.3 3.57 78.4 35.35C74.21 39.11 74.64 45.02 77.41 49.84C72.7 52.51 69.73 57.51 69.73 63.02C69.82 66.82 68.77 71.38 73.5 72.85L73.5 93.58C73.53 99.62 81.1 102.27 84.89 97.66C88.68 102.27 96.25 99.62 96.28 93.58L96.28 72.86C98.44 72.23 100.08 70.1 99.99 67.87L99.98 67.87C100.01 67.46 99.98 63.52 99.99 63.02ZM23.65 93.58C23.46 98.22 16.85 98.22 16.66 93.58L16.66 86.64L13.73 86.64L13.73 93.58C13.54 98.22 6.92 98.22 6.73 93.58L6.73 80.89L23.65 80.89L23.65 93.58ZM6.73 77.96L6.73 72.87C7.57 72.63 8.33 72.19 8.93 71.59L8.92 71.58C8.97 71.57 15.19 65.54 15.44 65.32L17.03 66.97L17.03 66.98C18.45 68.24 21.69 72.5 23.65 72.87L23.65 77.96L6.73 77.96L6.73 77.96ZM16.94 62.01C17.05 60.74 18.48 60.17 19.4 61.09L21.45 63.22L19.27 65.08L17.34 63.08C17.07 62.79 16.92 62.41 16.94 62.01ZM14.01 62.02C14 62.41 13.85 62.79 13.57 63.05L11.58 64.97L9.49 62.88L11.57 60.8C12.62 59.84 14.11 60.61 14.01 62.02ZM27.37 63.02L27.37 67.9C27.37 69.14 26.36 70.15 25.12 70.15C23.74 70.3 22.2 67.96 21.3 67.19L25.72 63.44L21.51 59.06C20 57.41 17.3 57.29 15.63 58.69C13.97 57.06 11.15 57.02 9.51 58.72L5.35 62.88L9.47 67C8.86 67.59 8.1 68.32 7.57 68.84L7.54 68.82L6.84 69.54C6.1 70.34 4.39 70.33 3.67 69.51C3.22 69.07 2.96 68.48 2.96 67.85L2.96 63.02C2.96 58.48 5.46 54.37 9.41 52.26C12.83 56.29 17.5 56.29 20.92 52.26C24.86 54.38 27.36 58.49 27.37 63.02ZM15.16 52.37C11.85 52.37 8.49 46.59 8.49 42.44C8.49 38.76 11.49 35.77 15.16 35.77C18.84 35.77 21.83 38.76 21.83 42.44C21.83 46.59 18.47 52.37 15.16 52.37ZM84.86 35.77C88.54 35.77 91.53 38.76 91.53 42.44C91.53 46.59 88.17 52.37 84.86 52.37C81.55 52.37 78.19 46.59 78.19 42.44C78.19 38.76 81.18 35.77 84.86 35.77ZM93.35 93.58C93.16 98.22 86.55 98.22 86.35 93.58L86.35 86.64L83.43 86.64L83.43 93.58C83.23 98.22 76.62 98.22 76.43 93.58L76.43 80.89L93.35 80.89L93.35 93.58ZM76.43 77.96L76.43 72.89C77.23 72.66 77.97 72.23 78.6 71.61C80.19 70.08 83.43 66.96 85.13 65.32C86.53 66.83 90.25 71.45 93.35 72.87L93.35 77.96L76.43 77.96ZM86.64 62.01C86.74 60.74 88.18 60.17 89.1 61.09L91.15 63.22L88.96 65.08L87.04 63.08C86.76 62.79 86.62 62.41 86.64 62.01ZM83.71 62.02C83.62 63.23 82.21 63.89 81.28 64.97L79.19 62.88L81.27 60.8C82.32 59.84 83.81 60.61 83.71 62.02ZM96.05 69.76C93.94 71.14 92.53 68.68 91 67.19L95.41 63.44L91.21 59.06C89.7 57.41 87 57.29 85.33 58.69C83.67 57.06 80.85 57.02 79.21 58.72L75.05 62.88L79.17 67C78.17 67.96 77.22 68.87 76.55 69.52C75.31 70.8 72.68 70.04 72.66 67.85C72.33 61.43 72.89 55.62 79.11 52.26C82.52 56.29 87.2 56.29 90.61 52.26C96.25 55.37 97.46 60.52 97.06 66.92L97.04 66.93C97.13 67.97 97.09 69.14 96.05 69.76Z" fill="#273F51" fill-opacity="1.000000" fill-rule="nonzero"/>
	<path id="Vector" d="M50.01 2.88C60.87 2.88 71.01 7.21 78.55 15.08L80.66 13.05C66.04 -2.66 40.25 -4.47 23.64 9.15L25.46 11.45C32.52 5.84 41.01 2.88 50.01 2.88Z" fill="#273F51" fill-opacity="1.000000" fill-rule="nonzero"/>
	<path id="Vector" d="M71.98 40.16C71.98 28.05 62.12 18.2 50.01 18.2C29.5 18.23 20.27 44.13 36.07 57.13C35.3 58.96 34.88 60.95 34.88 63.02C34.95 66.77 33.98 71.46 38.65 72.87L38.65 93.58C38.68 99.62 46.25 102.27 50.04 97.66C53.83 102.27 61.4 99.62 61.43 93.58L61.43 72.87C63.57 72.24 65.14 70.25 65.14 67.9C65.14 64.6 65.42 60.14 63.95 57.14C68.99 52.99 71.98 46.73 71.98 40.16ZM58.5 93.58C58.31 98.22 51.7 98.22 51.51 93.58L51.51 86.64L48.58 86.64L48.58 93.58C48.39 98.22 41.77 98.22 41.58 93.58L41.58 80.89L58.5 80.89L58.5 93.58ZM41.58 77.96L41.58 72.87C42.42 72.63 43.18 72.19 43.78 71.59L43.77 71.58C43.82 71.57 50.04 65.54 50.28 65.32C51.79 66.61 56.47 72.54 58.5 72.87L58.5 77.96L41.58 77.96L41.58 77.96ZM51.79 62.01C51.89 60.74 53.33 60.17 54.25 61.09L56.3 63.22L54.12 65.08L52.19 63.08C51.91 62.79 51.77 62.41 51.79 62.01ZM48.86 62.02C48.85 62.41 48.69 62.79 48.42 63.05L46.43 64.97L44.34 62.88L46.42 60.8C47.47 59.84 48.96 60.61 48.86 62.02ZM62.21 67.9C62.21 69.14 61.21 70.15 59.97 70.15C58.59 70.3 57.05 67.96 56.15 67.19L60.56 63.44L56.36 59.06C54.85 57.41 52.15 57.29 50.48 58.69C48.82 57.06 46 57.02 44.36 58.72L40.2 62.88L44.32 67C43.71 67.59 42.95 68.32 42.41 68.84L42.39 68.82L41.69 69.54C40.95 70.34 39.24 70.33 38.52 69.51C38.07 69.07 37.81 68.48 37.81 67.85L37.81 63.02C37.81 58.48 40.31 54.37 44.26 52.26C47.67 56.29 52.35 56.29 55.77 52.26C62 55.66 62.54 61.48 62.21 67.9ZM50.01 52.37C46.7 52.37 43.34 46.59 43.34 42.44C43.34 38.76 46.33 35.77 50.01 35.77C53.69 35.77 56.68 38.76 56.68 42.44C56.68 46.59 53.32 52.37 50.01 52.37ZM57.46 49.85C61.95 42.74 59.06 33.09 50.01 32.84C40.97 33.09 38.07 42.73 42.57 49.84C40.51 51 38.79 52.61 37.5 54.51C24.35 43.03 32.51 21.14 50.01 21.13C67.52 21.14 75.68 43.04 62.52 54.51C61.23 52.62 59.51 51.01 57.46 49.85Z" fill="#273F51" fill-opacity="1.000000" fill-rule="nonzero"/>
	<path id="Vector" d="M45.62 25.73L48.55 25.73L48.55 28.66L45.62 28.66L45.62 25.73Z" fill="#273F51" fill-opacity="1.000000" fill-rule="nonzero"/>
	<path id="Vector" d="M51.48 25.73L54.41 25.73L54.41 28.66L51.48 28.66L51.48 25.73Z" fill="#273F51" fill-opacity="1.000000" fill-rule="nonzero"/>
</svg>
