<svg width="82" height="82" viewBox="0 0 82 82" fill="none" xmlns="http://www.w3.org/2000/svg">
<path fill-rule="evenodd" clip-rule="evenodd" d="M7.05376 0C3.15808 0 0 3.15808 0 7.05377V10.5794C0.343413 10.5246 0.695626 10.496 1.0545 10.496H41.328C57.9937 10.496 71.504 24.0063 71.504 40.672C71.504 57.3378 57.9937 70.848 41.328 70.848H1.05449C0.695621 70.848 0.343411 70.8195 0 70.7646V74.9462C0 78.8419 3.15808 82 7.05377 82H41C63.6437 82 82 63.6437 82 41C82 18.3563 63.6437 0 41 0H7.05376Z" fill="#5C8481"/>
<path d="M24.7308 47.8203C24.1339 47.8201 23.5615 47.5829 23.1395 47.1608L13.8078 37.8313C13.7319 37.7239 13.6085 37.66 13.477 37.66C13.3454 37.66 13.222 37.7239 13.1461 37.8313L3.81441 47.1608C2.93125 48.0138 1.52743 48.0016 0.659235 47.1334C-0.208962 46.2652 -0.221161 44.8614 0.631818 43.9782L9.96126 34.6488C11.9287 32.7704 15.0252 32.7704 16.9927 34.6488L26.3221 43.9782C26.9656 44.6219 27.1581 45.5898 26.8098 46.4308C26.4615 47.2717 25.641 47.8201 24.7308 47.8203Z" fill="#273F51"/>
<path d="M56.2415 47.8203C55.6447 47.8201 55.0723 47.5829 54.6502 47.1608L45.3186 37.8313C45.2426 37.7239 45.1193 37.66 44.9877 37.66C44.8561 37.66 44.7328 37.7239 44.6568 37.8313L35.3252 47.1608C34.442 48.0138 33.0382 48.0016 32.17 47.1334C31.3018 46.2652 31.2896 44.8614 32.1426 43.9782L41.472 34.6488C43.4395 32.7704 46.5359 32.7704 48.5034 34.6488L57.8328 43.9782C58.4764 44.6219 58.6688 45.5898 58.3205 46.4308C57.9722 47.2717 57.1517 47.8201 56.2415 47.8203Z" fill="#273F51"/>
</svg>
