<svg width="45.000000" height="45.000000" viewBox="0 0 45 45" fill="none" xmlns="http://www.w3.org/2000/svg" xmlns:xlink="http://www.w3.org/1999/xlink">
	
	<defs/>
	<path d="M16 0L22.5 0C34.9264 0 45 10.0736 45 22.5C45 34.9264 34.9264 45 22.5 45L3.87096 45C1.73309 45 0 43.267 0 41.129L0 38.8344C0.188461 38.8644 0.381744 38.88 0.57869 38.88L22.68 38.88C31.8258 38.88 39.24 31.4659 39.24 22.3201C39.24 13.1742 31.8258 5.76001 22.68 5.76001L12.94 5.76001C7.99015 5.76001 3.56529 8.00769 0.630402 11.5381C2.56202 4.8728 8.71196 0 16 0Z" clip-rule="evenodd" fill="#5C8481" fill-opacity="1.000000" fill-rule="evenodd"/>
	<path d="M13.57 26.24C13.24 26.24 12.93 26.11 12.69 25.88L7.57 20.76C7.53 20.7 7.46 20.66 7.39 20.66C7.32 20.66 7.25 20.7 7.21 20.76L2.09 25.88C1.6 26.34 0.83 26.34 0.36 25.86C-0.12 25.38 -0.13 24.61 0.34 24.13L5.46 19.01C6.54 17.98 8.24 17.98 9.32 19.01L14.44 24.13C14.79 24.48 14.9 25.01 14.71 25.48C14.52 25.94 14.07 26.24 13.57 26.24Z" fill="#273F51" fill-opacity="1.000000" fill-rule="nonzero"/>
	<path d="M30.86 26.24C30.53 26.24 30.22 26.11 29.99 25.88L24.86 20.76C24.82 20.7 24.76 20.66 24.68 20.66C24.61 20.66 24.54 20.7 24.5 20.76L19.38 25.88C18.9 26.34 18.13 26.34 17.65 25.86C17.17 25.38 17.17 24.61 17.63 24.13L22.75 19.01C23.83 17.98 25.53 17.98 26.61 19.01L31.73 24.13C32.09 24.48 32.19 25.01 32 25.48C31.81 25.94 31.36 26.24 30.86 26.24Z" fill="#273F51" fill-opacity="1.000000" fill-rule="nonzero"/>
</svg>
