<svg width="250.309326" height="900.188904" viewBox="0 0 250.309 900.189" fill="none" xmlns="http://www.w3.org/2000/svg" xmlns:xlink="http://www.w3.org/1999/xlink">
	
	<defs/>
	<path id="Ellipse 27" d="M1.61 0L8.66 4.51L7.04 7.04L0 2.52L1.61 0ZM22.58 13.9Q29.45 18.7 36.18 23.71L34.39 26.11Q27.7 21.13 20.86 16.36L22.58 13.9ZM49.47 33.94Q56.03 39.17 62.43 44.59L60.49 46.88Q54.12 41.48 47.6 36.29L49.47 33.94ZM75.05 55.64Q81.27 61.26 87.31 67.08L85.23 69.24Q79.22 63.46 73.03 57.87L75.05 55.64ZM99.21 78.9Q105.07 84.9 110.74 91.08L108.53 93.11Q102.89 86.96 97.07 80.99L99.21 78.9ZM121.88 103.63Q127.35 109.99 132.61 116.51L130.28 118.39Q125.04 111.91 119.6 105.58L121.88 103.63ZM142.94 129.73Q148 136.42 152.85 143.26L150.4 144.99Q145.58 138.19 140.55 131.54L142.94 129.73ZM162.33 157.1Q166.95 164.09 171.36 171.23L168.81 172.8Q164.43 165.71 159.82 158.76L162.33 157.1ZM179.95 185.64Q184.13 192.91 188.07 200.31L185.42 201.72Q181.5 194.37 177.35 187.14L179.95 185.64ZM195.73 215.24Q199.44 222.75 202.91 230.38L200.18 231.63Q196.73 224.04 193.04 216.56L195.73 215.24ZM209.61 245.77Q212.84 253.51 215.81 261.34L213.01 262.41Q210.05 254.62 206.85 246.93L209.61 245.77ZM221.53 277.13Q224.25 285.05 226.72 293.06L223.86 293.94Q221.4 285.98 218.69 278.1L221.53 277.13ZM231.42 309.18Q233.64 317.26 235.6 325.4L232.68 326.1Q230.73 318 228.53 309.97L231.42 309.18ZM239.26 341.79Q240.96 349.99 242.4 358.24L239.44 358.76Q238.01 350.55 236.32 342.4L239.26 341.79ZM245.02 374.83Q246.19 383.12 247.11 391.45L244.12 391.78Q243.22 383.49 242.05 375.25L245.02 374.83ZM248.68 408.16Q249.33 416.51 249.72 424.89L246.72 425.03Q246.33 416.7 245.68 408.4L248.68 408.16ZM250.24 441.67L250.3 450.08L250.24 458.51L247.24 458.49L247.3 450.1L247.24 441.69L250.24 441.67ZM249.72 475.29Q249.33 483.67 248.68 492.02L245.68 491.78Q246.33 483.48 246.72 475.15L249.72 475.29ZM247.11 508.73Q246.19 517.06 245.02 525.35L242.05 524.93Q243.21 516.69 244.12 508.4L247.11 508.73ZM242.4 541.94Q240.96 550.19 239.26 558.39L236.32 557.78Q238.01 549.63 239.44 541.42L242.4 541.94ZM235.6 574.78Q233.64 582.92 231.42 591L228.53 590.21Q230.73 582.18 232.68 574.08L235.6 574.78ZM226.72 607.12Q224.25 615.13 221.53 623.05L218.69 622.08Q221.4 614.2 223.86 606.24L226.72 607.12ZM215.81 638.84Q212.84 646.67 209.61 654.41L206.85 653.25Q210.05 645.56 213.01 637.77L215.81 638.84ZM202.91 669.8Q199.44 677.42 195.73 684.94L193.04 683.62Q196.73 676.14 200.18 668.55L202.91 669.8ZM188.07 699.87Q184.13 707.27 179.95 714.54L177.35 713.04Q181.5 705.81 185.42 698.46L188.07 699.87ZM171.36 728.95Q166.95 736.09 162.33 743.08L159.82 741.42Q164.43 734.47 168.81 727.38L171.36 728.95ZM152.85 756.92Q148 763.76 142.94 770.45L140.55 768.64Q145.58 761.99 150.4 755.19L152.85 756.92ZM132.61 783.67Q127.35 790.19 121.88 796.55L119.6 794.6Q125.04 788.27 130.28 781.79L132.61 783.67ZM110.74 809.1Q105.07 815.28 99.21 821.28L97.07 819.18Q102.89 813.22 108.53 807.07L110.74 809.1ZM87.31 833.1Q81.27 838.92 75.05 844.54L73.03 842.31Q79.22 836.72 85.23 830.94L87.31 833.1ZM62.43 855.59Q56.02 861.02 49.47 866.23L47.6 863.89Q54.12 858.7 60.49 853.3L62.43 855.59ZM36.18 876.47Q29.45 881.48 22.58 886.28L20.86 883.82Q27.7 879.05 34.39 874.06L36.18 876.47ZM8.66 895.67L1.61 900.18L0 897.66L7.04 893.14L8.66 895.67Z" fill="#273F51" fill-opacity="1.000000" fill-rule="evenodd"/>
</svg>
