<svg width="315.458344" height="87.688354" viewBox="0 0 315.458 87.6884" fill="none" xmlns="http://www.w3.org/2000/svg" xmlns:xlink="http://www.w3.org/1999/xlink">
	
	<defs/>
	<path id="Ellipse 28" d="M0 87.15L1.09 85.42L1.94 85.96L0.84 87.68L0 87.15ZM3.35 82C4.12 80.87 4.89 79.75 5.68 78.64L6.5 79.22C5.71 80.33 4.94 81.44 4.18 82.56L3.35 82ZM8.08 75.33C8.89 74.24 9.72 73.15 10.55 72.08L11.34 72.69C10.51 73.76 9.69 74.84 8.89 75.93L8.08 75.33ZM13.09 68.88C13.95 67.82 14.83 66.77 15.71 65.73L16.47 66.38C15.59 67.42 14.73 68.46 13.87 69.51L13.09 68.88ZM18.39 62.65C19.3 61.63 20.21 60.62 21.14 59.62L21.87 60.3C20.95 61.29 20.04 62.3 19.14 63.31L18.39 62.65ZM23.95 56.65C24.9 55.67 25.86 54.7 26.83 53.75L27.53 54.46C26.57 55.41 25.61 56.37 24.67 57.35L23.95 56.65ZM29.77 50.91C30.76 49.97 31.76 49.04 32.77 48.13L33.44 48.87C32.43 49.78 31.44 50.7 30.45 51.63L29.77 50.91ZM35.83 45.42C36.86 44.53 37.9 43.65 38.95 42.78L39.58 43.55C38.54 44.41 37.51 45.29 36.48 46.18L35.83 45.42ZM42.12 40.2C43.19 39.35 44.27 38.52 45.36 37.69L45.96 38.49C44.88 39.31 43.81 40.14 42.74 40.98L42.12 40.2ZM48.64 35.26C49.75 34.46 50.86 33.68 51.98 32.9L52.54 33.73C51.43 34.5 50.33 35.28 49.23 36.07L48.64 35.26ZM55.36 30.62C56.5 29.87 57.65 29.13 58.8 28.41L59.33 29.25C58.19 29.97 57.05 30.71 55.91 31.45L55.36 30.62ZM62.29 26.27C63.47 25.57 64.65 24.88 65.83 24.2L66.33 25.07C65.15 25.74 63.97 26.43 62.81 27.13L62.29 26.27ZM69.4 22.23C70.6 21.58 71.8 20.95 73.01 20.33L73.47 21.22C72.26 21.84 71.07 22.47 69.88 23.11L69.4 22.23ZM76.67 18.51C77.9 17.91 79.13 17.33 80.37 16.77L80.79 17.68C79.56 18.24 78.33 18.82 77.11 19.41L76.67 18.51ZM84.12 15.1C85.38 14.56 86.64 14.04 87.9 13.52L88.28 14.45C87.02 14.96 85.76 15.48 84.52 16.02L84.12 15.1ZM91.69 12.04C92.96 11.56 94.24 11.09 95.52 10.64L95.85 11.58C94.58 12.03 93.31 12.5 92.05 12.97L91.69 12.04ZM99.39 9.31C100.68 8.89 101.99 8.47 103.29 8.08L103.58 9.03C102.28 9.43 100.99 9.84 99.7 10.26L99.39 9.31ZM107.23 6.92C108.55 6.55 109.86 6.2 111.18 5.86L111.43 6.83C110.12 7.16 108.81 7.52 107.5 7.88L107.23 6.92ZM115.13 4.89C116.45 4.58 117.78 4.28 119.11 4L119.31 4.98C117.99 5.26 116.67 5.55 115.36 5.86L115.13 4.89ZM123.12 3.2C124.46 2.95 125.81 2.71 127.16 2.49L127.32 3.48C125.98 3.7 124.64 3.94 123.3 4.19L123.12 3.2ZM131.22 1.87C132.58 1.67 133.93 1.5 135.29 1.33L135.41 2.33C134.06 2.49 132.71 2.66 131.37 2.86L131.22 1.87ZM139.34 0.89C140.7 0.76 142.06 0.64 143.42 0.54L143.5 1.53C142.14 1.64 140.79 1.75 139.44 1.89L139.34 0.89ZM147.5 0.27C148.86 0.2 150.21 0.14 151.57 0.09L151.6 1.09C150.25 1.14 148.9 1.2 147.55 1.27L147.5 0.27ZM155.67 0.01L157.72 0L159.78 0.01L159.77 1.01L157.73 1L155.68 1.01L155.67 0.01ZM163.88 0.09C165.24 0.14 166.59 0.2 167.95 0.27L167.9 1.27C166.55 1.2 165.2 1.14 163.84 1.09L163.88 0.09ZM172.03 0.54C173.39 0.64 174.75 0.76 176.11 0.89L176.01 1.89C174.66 1.75 173.31 1.64 171.95 1.53L172.03 0.54ZM180.16 1.33C181.52 1.5 182.87 1.67 184.23 1.87L184.08 2.86C182.74 2.66 181.39 2.49 180.04 2.33L180.16 1.33ZM188.29 2.49C189.64 2.71 190.99 2.95 192.33 3.2L192.15 4.19C190.81 3.94 189.47 3.7 188.13 3.48L188.29 2.49ZM196.34 4C197.67 4.28 199 4.58 200.32 4.89L200.09 5.86C198.78 5.55 197.46 5.26 196.14 4.98L196.34 4ZM204.27 5.86C205.59 6.2 206.9 6.55 208.22 6.92L207.95 7.88C206.64 7.52 205.33 7.16 204.02 6.83L204.27 5.86ZM212.16 8.08C213.46 8.47 214.77 8.89 216.06 9.31L215.75 10.26C214.46 9.84 213.16 9.43 211.87 9.03L212.16 8.08ZM219.93 10.64C221.21 11.09 222.49 11.56 223.76 12.04L223.4 12.97C222.14 12.5 220.87 12.03 219.6 11.58L219.93 10.64ZM227.55 13.52C228.81 14.04 230.07 14.56 231.33 15.1L230.93 16.02C229.68 15.48 228.43 14.96 227.17 14.45L227.55 13.52ZM235.08 16.77C236.32 17.33 237.55 17.91 238.78 18.51L238.34 19.41C237.12 18.82 235.89 18.24 234.66 17.68L235.08 16.77ZM242.44 20.33C243.65 20.95 244.85 21.58 246.05 22.23L245.57 23.11C244.38 22.47 243.19 21.84 241.98 21.22L242.44 20.33ZM249.62 24.2C250.8 24.88 251.98 25.57 253.16 26.27L252.64 27.13C251.48 26.43 250.3 25.74 249.12 25.07L249.62 24.2ZM256.65 28.41C257.8 29.13 258.95 29.87 260.09 30.62L259.54 31.45C258.4 30.71 257.26 29.97 256.11 29.25L256.65 28.41ZM263.47 32.9C264.59 33.68 265.7 34.46 266.81 35.26L266.22 36.07C265.12 35.28 264.02 34.5 262.9 33.73L263.47 32.9ZM270.09 37.69C271.18 38.52 272.26 39.35 273.32 40.2L272.7 40.98C271.64 40.14 270.57 39.31 269.49 38.49L270.09 37.69ZM276.5 42.78C277.55 43.65 278.59 44.53 279.62 45.42L278.97 46.18C277.94 45.29 276.91 44.41 275.86 43.55L276.5 42.78ZM282.68 48.13C283.69 49.04 284.69 49.97 285.68 50.91L284.99 51.63C284.01 50.7 283.01 49.78 282.01 48.87L282.68 48.13ZM288.62 53.75C289.59 54.71 290.55 55.67 291.5 56.65L290.78 57.35C289.84 56.37 288.88 55.41 287.92 54.46L288.62 53.75ZM294.31 59.62C295.24 60.62 296.15 61.63 297.06 62.65L296.31 63.31C295.41 62.3 294.5 61.29 293.58 60.3L294.31 59.62ZM299.74 65.73C300.62 66.77 301.49 67.82 302.35 68.88L301.58 69.51C300.72 68.46 299.85 67.41 298.98 66.38L299.74 65.73ZM304.89 72.08C305.73 73.15 306.55 74.24 307.37 75.33L306.56 75.93C305.75 74.84 304.94 73.76 304.1 72.69L304.89 72.08ZM309.77 78.64C310.56 79.75 311.33 80.87 312.1 82L311.27 82.56C310.51 81.44 309.74 80.33 308.95 79.22L309.77 78.64ZM314.35 85.42L315.45 87.15L314.61 87.68L313.51 85.96L314.35 85.42Z" fill="#273F51" fill-opacity="1.000000" fill-rule="evenodd"/>
</svg>
