<svg width="99.902344" height="100.000061" viewBox="0 0 99.9023 100" fill="none" xmlns="http://www.w3.org/2000/svg" xmlns:xlink="http://www.w3.org/1999/xlink">
	
	<defs/>
	<path id="Vector" d="M58.15 43.35L41.94 43.35L41.94 18.55L51.66 18.55L58.15 25.03L58.15 43.35Z" fill="#8BAE82" fill-opacity="1.000000" fill-rule="nonzero"/>
	<path id="Vector" d="M38.7 45.94L61.19 45.94L61.19 26.27L50.55 15.64L38.7 15.64L38.7 45.94ZM51.41 20.64L56.18 25.41L51.41 25.41L51.41 20.64ZM41.64 18.57L48.48 18.57L48.48 28.34L58.26 28.34L58.26 43.01L41.64 43.01L41.64 18.57Z" fill="#273F51" fill-opacity="1.000000" fill-rule="nonzero"/>
	<path id="Vector" d="M77.33 25.65C77.65 27.33 77.81 29.06 77.81 30.79C77.81 46.15 65.31 58.65 49.95 58.65C46.55 58.65 43.23 58.04 40.08 56.85L39.04 59.59C40.53 60.15 42.05 60.6 43.59 60.92L43.59 67.25L40.66 67.25L40.66 88.26L43.59 88.26L43.59 79.96L56.3 79.96L56.3 100L59.23 100L59.23 67.25L56.3 67.25L56.3 60.92C70.24 57.98 80.74 45.59 80.74 30.79C80.74 28.88 80.56 26.97 80.22 25.11L77.33 25.65ZM46.52 61.39C47.66 61.52 48.8 61.58 49.95 61.58C51.1 61.58 52.24 61.51 53.37 61.39L53.37 67.25L46.52 67.25L46.52 61.39ZM56.3 77.02L43.59 77.02L43.59 70.18L56.3 70.18L56.3 77.02Z" fill="#273F51" fill-opacity="1.000000" fill-rule="nonzero"/>
	<path id="Vector" d="M49.95 2.93C62.24 2.93 73.23 11.16 76.69 22.94L79.5 22.12C77.67 15.86 73.78 10.23 68.57 6.26C63.18 2.16 56.74 0 49.95 0C43.18 0 36.76 2.15 31.38 6.22L33.15 8.56C38.02 4.87 43.82 2.93 49.95 2.93Z" fill="#273F51" fill-opacity="1.000000" fill-rule="nonzero"/>
	<path id="Vector" d="M22.09 30.79C22.09 23.06 25.34 15.61 31.01 10.35L29.02 8.2C22.75 14.01 19.15 22.24 19.15 30.79C19.15 36.62 20.79 42.3 23.9 47.21C26.91 51.99 31.18 55.84 36.22 58.36L37.53 55.73C28 50.98 22.09 41.42 22.09 30.79Z" fill="#273F51" fill-opacity="1.000000" fill-rule="nonzero"/>
	<path id="Vector" d="M66.61 12.27L64.65 14.45C65.33 15.06 65.98 15.72 66.58 16.41L68.79 14.49C68.12 13.71 67.38 12.96 66.61 12.27Z" fill="#273F51" fill-opacity="1.000000" fill-rule="nonzero"/>
	<path id="Vector" d="M64.18 10.33C59.99 7.41 55.06 5.86 49.95 5.86C36.2 5.86 25.02 17.04 25.02 30.79C25.02 44.53 36.2 55.71 49.95 55.71C63.69 55.71 74.87 44.53 74.87 30.79C74.87 25.84 73.42 21.06 70.68 16.96L68.24 18.59C70.66 22.21 71.94 26.43 71.94 30.79C71.94 42.91 62.07 52.78 49.95 52.78C37.82 52.78 27.95 42.91 27.95 30.79C27.95 18.66 37.82 8.79 49.95 8.79C54.46 8.79 58.8 10.16 62.5 12.74L64.18 10.33Z" fill="#273F51" fill-opacity="1.000000" fill-rule="nonzero"/>
	<path id="Vector" d="M40.66 91.2L43.59 91.2L43.59 100L40.66 100L40.66 91.2Z" fill="#273F51" fill-opacity="1.000000" fill-rule="nonzero"/>
	<path id="Vector" d="M15.44 24.12L9.89 18.57L0 18.57L0 39.1L15.44 39.1L15.44 24.12ZM12.51 36.16L2.93 36.16L2.93 21.5L8.67 21.5L12.51 25.33L12.51 36.16Z" fill="#273F51" fill-opacity="1.000000" fill-rule="nonzero"/>
	<path id="Vector" d="M12.46 36.14L2.88 36.14L2.88 21.48L8.62 21.48L12.46 25.31L12.46 36.14Z" fill="#8BAE82" fill-opacity="1.000000" fill-rule="nonzero"/>
	<path id="Vector" d="M97.03 36.14L87.45 36.14L87.45 21.48L93.19 21.48L97.03 25.31L97.03 36.14Z" fill="#8BAE82" fill-opacity="1.000000" fill-rule="nonzero"/>
	<path id="Vector" d="M94.35 18.57L84.45 18.57L84.45 39.1L99.9 39.1L99.9 24.12L94.35 18.57ZM96.96 36.16L87.39 36.16L87.39 21.5L93.13 21.5L96.96 25.33L96.96 36.16Z" fill="#273F51" fill-opacity="1.000000" fill-rule="nonzero"/>
	<path id="Vector" d="M9.28 49.07L20.23 49.07L20.23 52L9.28 52L9.28 49.07Z" fill="#273F51" fill-opacity="1.000000" fill-rule="nonzero"/>
	<path id="Vector" d="M3.42 49.07L6.35 49.07L6.35 52L3.42 52L3.42 49.07Z" fill="#273F51" fill-opacity="1.000000" fill-rule="nonzero"/>
	<path id="Vector" d="M13.78 56.89L25.51 56.89L25.51 59.82L13.78 59.82L13.78 56.89Z" fill="#273F51" fill-opacity="1.000000" fill-rule="nonzero"/>
	<path id="Vector" d="M7.91 56.89L10.85 56.89L10.85 59.82L7.91 59.82L7.91 56.89Z" fill="#273F51" fill-opacity="1.000000" fill-rule="nonzero"/>
	<path id="Vector" d="M2.05 56.89L4.98 56.89L4.98 59.82L2.05 59.82L2.05 56.89Z" fill="#273F51" fill-opacity="1.000000" fill-rule="nonzero"/>
	<path id="Vector" d="M31.86 29.32L34.79 29.32L34.79 32.25L31.86 32.25L31.86 29.32Z" fill="#273F51" fill-opacity="1.000000" fill-rule="nonzero"/>
	<path id="Vector" d="M65.1 29.32L68.03 29.32L68.03 32.25L65.1 32.25L65.1 29.32Z" fill="#273F51" fill-opacity="1.000000" fill-rule="nonzero"/>
	<path id="Vector" d="M48.48 93.54L51.41 93.54L51.41 96.48L48.48 96.48L48.48 93.54Z" fill="#273F51" fill-opacity="1.000000" fill-rule="nonzero"/>
	<path id="Vector" d="M48.48 84.75L51.41 84.75L51.41 90.61L48.48 90.61L48.48 84.75Z" fill="#273F51" fill-opacity="1.000000" fill-rule="nonzero"/>
</svg>
