<svg width="199.015137" height="49.608398" viewBox="0 0 199.015 49.6084" fill="none" xmlns="http://www.w3.org/2000/svg" xmlns:xlink="http://www.w3.org/1999/xlink">
	
	<defs/>
	<path id="Shape" d="M84.14 49.6C82.11 49.6 80.16 48.8 78.73 47.36L46.98 15.62C46.72 15.25 46.3 15.03 45.85 15.03C45.4 15.03 44.98 15.25 44.72 15.62L12.97 47.36C9.97 50.26 5.19 50.22 2.24 47.27C-0.72 44.31 -0.76 39.54 2.14 36.53L33.89 4.79C40.58 -1.6 51.12 -1.6 57.81 4.79L89.55 36.53C91.74 38.72 92.4 42.01 91.21 44.88C90.03 47.74 87.24 49.6 84.14 49.6Z" fill="#273F51" fill-opacity="1.000000" fill-rule="nonzero"/>
	<path id="Shape" d="M191.35 49.6C189.32 49.6 187.38 48.8 185.94 47.36L154.19 15.62C153.93 15.25 153.51 15.03 153.06 15.03C152.62 15.03 152.2 15.25 151.94 15.62L120.19 47.36C117.18 50.26 112.41 50.22 109.45 47.27C106.5 44.31 106.46 39.54 109.36 36.53L141.1 4.79C147.8 -1.6 158.33 -1.6 165.03 4.79L196.77 36.53C198.96 38.72 199.61 42.01 198.43 44.88C197.24 47.74 194.45 49.6 191.35 49.6Z" fill="#273F51" fill-opacity="1.000000" fill-rule="nonzero"/>
</svg>
