<svg width="78.000000" height="62.733154" viewBox="0 0 78 62.7332" fill="none" xmlns="http://www.w3.org/2000/svg" xmlns:xlink="http://www.w3.org/1999/xlink">
	
	<defs/>
	<path id="Vector" d="M3.35 34.49L12.92 24.92L28.18 40.19L65.04 3.33L74.61 12.9L28.18 59.33L3.35 34.49Z" fill="#8BAE82" fill-opacity="1.000000" fill-rule="nonzero"/>
	<path id="Vector" d="M65.06 0L28.2 36.85L12.93 21.59L0 34.52L28.2 62.73L78 12.93L65.06 0ZM3.36 34.52L12.93 24.96L28.2 40.22L65.06 3.36L74.63 12.93L28.2 59.36L3.36 34.52Z" fill="#273F51" fill-opacity="1.000000" fill-rule="nonzero"/>
	<path id="Vector" d="M34.49 47.67L28.1 54.06L26.53 52.49L24.85 54.17L28.1 57.43L36.17 49.35L34.49 47.67Z" fill="#273F51" fill-opacity="1.000000" fill-rule="nonzero"/>
	<path id="Vector" d="M35.69 46.46L38.1 44.05L39.79 45.74L37.38 48.15L35.69 46.46Z" fill="#273F51" fill-opacity="1.000000" fill-rule="evenodd"/>
</svg>
