<svg width="100.000000" height="85.118652" viewBox="0 0 100 85.1187" fill="none" xmlns="http://www.w3.org/2000/svg" xmlns:xlink="http://www.w3.org/1999/xlink">
	
	<defs/>
	<rect id="Rectangle 27" x="63.397583" y="74.337891" width="36.391769" height="14.612411" transform="rotate(-44.995 63.397583 74.337891)" fill="#8BAE82" fill-opacity="1.000000"/>
	<rect id="Rectangle 28" width="36.391769" height="14.612411" transform="matrix(-0.707169 -0.707044 -0.707044 0.707169 36.0668 74.3379)" fill="#8BAE82" fill-opacity="1.000000"/>
	<path id="Vector" d="M98.54 54.93L90.04 46.43L87.56 48.92L78.35 39.71L79.57 38.5C81.95 36.12 81.95 32.24 79.57 29.86C78.74 29.04 77.71 28.48 76.59 28.23C77.32 27.21 77.71 25.98 77.71 24.7C77.71 23.06 77.08 21.53 75.93 20.38C74.85 19.3 73.42 18.67 71.9 18.6C72 18.16 72.05 17.7 72.05 17.23C72.05 15.6 71.42 14.07 70.27 12.92C69.15 11.79 67.66 11.17 66.07 11.14C66.43 9.22 65.87 7.15 64.39 5.67C62.26 3.54 58.93 3.32 56.54 5.01L47.98 1.33C45.94 0.45 43.88 0.75 42.32 2.16C41.36 3.02 40.7 4.24 40.41 5.51C39.84 5.33 39.23 5.24 38.61 5.24C36.98 5.24 35.45 5.88 34.3 7.03C32.81 8.51 32.25 10.57 32.62 12.49C31.03 12.52 29.54 13.15 28.42 14.27C27.27 15.42 26.64 16.95 26.64 18.59C26.64 19.06 26.69 19.51 26.79 19.96C25.26 20.03 23.84 20.65 22.75 21.73C20.62 23.87 20.4 27.2 22.09 29.58C21 29.83 19.96 30.37 19.12 31.22C16.74 33.6 16.74 37.47 19.12 39.85L20.34 41.08L12.43 48.99L9.95 46.51L1.45 55C0.51 55.94 0 57.19 0 58.52C0 59.86 0.51 61.11 1.45 62.05L23.06 83.66C24 84.6 25.25 85.11 26.58 85.11C27.92 85.11 29.17 84.6 30.11 83.66L38.6 75.16L36.12 72.68L42.15 66.64L52.13 65.94L54.53 63.54L63.73 72.74L61.39 75.09L69.88 83.58C70.85 84.55 72.13 85.04 73.41 85.04C74.68 85.04 75.96 84.55 76.93 83.58L86.7 73.81L84.63 71.74L74.86 81.51C74.06 82.31 72.75 82.31 71.96 81.51L65.53 75.09L90.04 50.57L96.47 57C96.85 57.38 97.07 57.9 97.07 58.45C97.07 59 96.85 59.51 96.47 59.9L86.7 69.67L88.77 71.74L98.54 61.97C99.48 61.03 100 59.78 100 58.45C100 57.11 99.48 55.86 98.54 54.93ZM44.28 4.33C44.98 3.7 45.84 3.59 46.83 4.02L54.23 7.2L48.67 12.76L43.22 7.32C43.05 6.31 43.48 5.05 44.28 4.33ZM36.37 9.1C36.96 8.5 37.76 8.17 38.61 8.17C39.47 8.17 40.26 8.5 40.86 9.1L47.63 15.87C48.23 16.46 48.55 17.26 48.55 18.11C48.55 18.96 48.23 19.76 47.63 20.36C46.39 21.6 44.38 21.6 43.14 20.36L36.37 13.59C35.13 12.35 35.13 10.33 36.37 9.1ZM30.49 16.34C31.09 15.75 31.88 15.42 32.73 15.42C33.59 15.42 34.38 15.75 34.98 16.34L41.07 22.43L41.07 22.43C42.31 23.67 42.31 25.68 41.07 26.92C40.47 27.52 39.67 27.85 38.82 27.85C37.97 27.85 37.17 27.52 36.58 26.92L30.49 20.83C29.89 20.24 29.56 19.44 29.56 18.59C29.56 17.74 29.89 16.94 30.49 16.34ZM24.83 23.8C25.42 23.21 26.22 22.88 27.07 22.88C27.92 22.88 28.72 23.21 29.32 23.8L34.5 28.99C34.5 28.99 34.5 28.99 34.51 28.99C35.1 29.59 35.43 30.39 35.43 31.24C35.43 32.09 35.1 32.89 34.51 33.48C33.27 34.72 31.25 34.72 30.01 33.48L27.75 31.22C27.75 31.22 27.75 31.22 27.75 31.22L24.83 28.3C23.59 27.06 23.59 25.04 24.83 23.8ZM21.19 33.29C22.43 32.05 24.44 32.05 25.68 33.29L27.94 35.55C28.54 36.15 28.87 36.95 28.87 37.8C28.87 38.65 28.54 39.45 27.94 40.05C26.7 41.28 24.69 41.28 23.45 40.05L21.19 37.78C19.95 36.54 19.95 34.53 21.19 33.29ZM50.83 63.1L40.86 63.79L34.04 70.6L25.31 61.87L23.24 63.94L34.46 75.16L28.04 81.59C27.65 81.97 27.14 82.18 26.58 82.18C26.03 82.18 25.52 81.97 25.13 81.59L3.52 59.98C3.14 59.59 2.92 59.08 2.92 58.52C2.92 57.97 3.14 57.46 3.52 57.07L9.95 50.65L21.17 61.87L23.24 59.8L14.5 51.06L22.54 43.03C23.51 43.61 24.6 43.9 25.7 43.9C27.26 43.9 28.82 43.31 30.01 42.12C31.33 40.8 31.91 39.04 31.78 37.32C31.94 37.33 32.1 37.34 32.26 37.34C33.82 37.34 35.39 36.74 36.58 35.55C37.73 34.4 38.36 32.87 38.36 31.24C38.36 31.07 38.35 30.91 38.34 30.75C38.5 30.77 38.66 30.77 38.82 30.77C40.46 30.77 41.99 30.14 43.14 28.99C44.45 27.68 45.04 25.91 44.9 24.19C45.06 24.21 45.22 24.21 45.38 24.21C46.95 24.21 48.51 23.62 49.7 22.43C51.72 20.41 52.03 17.3 50.61 14.96L57.83 7.74C59.06 6.5 61.08 6.5 62.32 7.74C63.56 8.98 63.56 10.99 62.32 12.23L58.27 16.28L60.34 18.35L63.71 14.99C64.3 14.39 65.1 14.06 65.95 14.06C66.8 14.06 67.6 14.39 68.2 14.99C68.79 15.58 69.12 16.38 69.12 17.23C69.12 18.08 68.79 18.88 68.2 19.48L63.47 24.2L65.54 26.28L69.37 22.45C69.96 21.85 70.76 21.53 71.61 21.53C72.46 21.53 73.26 21.85 73.86 22.45C74.45 23.05 74.78 23.84 74.78 24.7C74.78 25.55 74.45 26.34 73.86 26.94L68.82 31.98L70.89 34.05L73.01 31.93C73.6 31.34 74.4 31.01 75.25 31.01C76.1 31.01 76.9 31.34 77.5 31.94C78.74 33.17 78.74 35.19 77.5 36.43L50.83 63.1ZM56.6 61.46L76.28 41.78L85.49 50.99L65.81 70.67L56.6 61.46Z" fill="#273F51" fill-opacity="1.000000" fill-rule="nonzero"/>
	<path id="Vector" d="M19.82 1.65L22.27 0.04L26.64 6.7L24.18 8.31L19.82 1.65Z" fill="#273F51" fill-opacity="1.000000" fill-rule="nonzero"/>
	<path id="Vector" d="M14.36 8.67L16.05 6.27L22.56 10.86L20.87 13.25L14.36 8.67Z" fill="#273F51" fill-opacity="1.000000" fill-rule="nonzero"/>
	<path id="Vector" d="M73.37 6.66L77.73 6.1e-5L80.18 1.6L75.82 8.26L73.37 6.66Z" fill="#273F51" fill-opacity="1.000000" fill-rule="nonzero"/>
	<path id="Vector" d="M10.57 16.65L11.26 13.8L19 15.67L18.31 18.52L10.57 16.65Z" fill="#273F51" fill-opacity="1.000000" fill-rule="nonzero"/>
	<path id="Vector" d="M77.48 10.87L84 6.29L85.68 8.68L79.17 13.27L77.48 10.87Z" fill="#273F51" fill-opacity="1.000000" fill-rule="nonzero"/>
	<path id="Vector" d="M81 15.61L88.74 13.74L89.42 16.59L81.69 18.46L81 15.61Z" fill="#273F51" fill-opacity="1.000000" fill-rule="nonzero"/>
	<path id="Vector" d="M50.92 38.8L52.99 36.73L55.06 38.8L52.99 40.87L50.92 38.8Z" fill="#273F51" fill-opacity="1.000000" fill-rule="nonzero"/>
	<path id="Vector" d="M46.77 34.66L48.85 32.59L50.92 34.66L48.85 36.73L46.77 34.66Z" fill="#273F51" fill-opacity="1.000000" fill-rule="nonzero"/>
</svg>
