<svg width="100.000000" height="100.000000" viewBox="0 0 100 100" fill="none" xmlns="http://www.w3.org/2000/svg" xmlns:xlink="http://www.w3.org/1999/xlink">
	
	<defs>
		<clipPath id="clip85_1257">
			<rect id="fi_1702458" rx="0.000000" width="99.000000" height="99.000000" transform="translate(0.500000 0.500000)" fill="white" fill-opacity="0"/>
		</clipPath>
	</defs>
	<rect id="fi_1702458" rx="0.000000" width="99.000000" height="99.000000" transform="translate(0.500000 0.500000)" fill="#FFFFFF" fill-opacity="0"/>
	<g clip-path="url(#clip85_1257)">
		<path id="Vector" d="M36.69 32.67L36.69 29.74L11.35 29.74L11.35 79.64L22.21 79.64L22.21 76.7L14.28 76.7L14.28 32.67L36.69 32.67Z" fill="#273F51" fill-opacity="1.000000" fill-rule="nonzero"/>
		<circle id="Ellipse 30" cx="82.000000" cy="34.000000" r="12.000000" fill="#8BAE82" fill-opacity="1.000000"/>
		<circle id="Ellipse 30" cx="82.000000" cy="34.000000" r="12.000000" fill="#8BAE82" fill-opacity="1.000000"/>
		<circle id="Ellipse 31" cx="39.000000" cy="51.000000" r="12.000000" fill="#8BAE82" fill-opacity="1.000000"/>
		<circle id="Ellipse 31" cx="39.000000" cy="51.000000" r="12.000000" fill="#8BAE82" fill-opacity="1.000000"/>
		<path id="Vector" d="M6.45 29.25C6.45 26.82 8.43 24.84 10.86 24.84L45.66 24.84L45.66 21.91L10.86 21.91C6.81 21.91 3.52 25.2 3.52 29.25L3.52 59.58L6.45 59.58L6.45 29.25Z" fill="#273F51" fill-opacity="1.000000" fill-rule="nonzero"/>
		<path id="Vector" d="M100 20.13L100 9.09C100 5.04 96.7 1.75 92.66 1.75L85.53 1.75L85.53 4.69L92.66 4.69C95.08 4.69 97.06 6.66 97.06 9.09L97.06 13.49L66.73 13.49L66.73 9.09C66.73 6.66 68.7 4.69 71.13 4.69L82.59 4.69L82.59 1.75L71.13 1.75C67.08 1.75 63.79 5.04 63.79 9.09L63.79 21.91L48.6 21.91L48.6 24.84L63.79 24.84L63.79 29.74L39.62 29.74L39.62 32.67L63.79 32.67L63.79 63.89C63.79 67.93 67.08 71.22 71.13 71.22L85.71 71.22L85.71 76.7L25.14 76.7L25.14 79.64L88.64 79.64L88.64 71.22L92.66 71.22C92.95 71.22 93.25 71.2 93.54 71.17L93.54 84.53L62.42 84.53L62.42 86C62.42 86.7 61.85 87.27 61.15 87.27L38.84 87.27C38.14 87.27 37.57 86.7 37.57 86L37.57 84.53L16.28 84.53L16.28 87.47L34.9 87.47C35.49 89.07 37.04 90.21 38.84 90.21L61.15 90.21C62.95 90.21 64.5 89.07 65.09 87.47L97.06 87.47L97.06 91.09C97.06 93.52 95.08 95.49 92.66 95.49L7.33 95.49C4.91 95.49 2.93 93.52 2.93 91.09L2.93 87.47L13.34 87.47L13.34 84.53L6.45 84.53L6.45 62.52L3.52 62.52L3.52 84.53L0 84.53L0 91.09C0 95.13 3.29 98.43 7.33 98.43L92.66 98.43C96.7 98.43 100 95.13 100 91.09L100 84.53L96.47 84.53L96.47 70.15C98.58 68.86 100 66.54 100 63.89L100 23.07L97.06 23.07L97.06 50.68L66.73 50.68L66.73 16.43L97.06 16.43L97.06 20.13L100 20.13ZM97.06 53.61L97.06 63.89C97.06 66.31 95.08 68.29 92.66 68.29L71.13 68.29C68.7 68.29 66.73 66.31 66.73 63.89L66.73 53.61L97.06 53.61Z" fill="#273F51" fill-opacity="1.000000" fill-rule="nonzero"/>
		<path id="Vector" d="M86.3 56.55L77.49 56.55L77.49 65.35L86.3 65.35L86.3 56.55ZM83.36 62.42L80.43 62.42L80.43 59.48L83.36 59.48L83.36 62.42Z" fill="#273F51" fill-opacity="1.000000" fill-rule="nonzero"/>
		<path id="Vector" d="M52.25 51.75C52.25 44.47 46.32 38.54 39.04 38.54C31.75 38.54 25.83 44.47 25.83 51.75C25.83 59.04 31.75 64.96 39.04 64.96C46.32 64.96 52.25 59.04 52.25 51.75ZM39.04 62.03C33.37 62.03 28.76 57.42 28.76 51.75C28.76 46.09 33.37 41.48 39.04 41.48C44.7 41.48 49.31 46.09 49.31 51.75C49.31 57.42 44.7 62.03 39.04 62.03Z" fill="#273F51" fill-opacity="1.000000" fill-rule="nonzero"/>
		<path id="Vector" d="M69.66 33.55C69.66 40.3 75.15 45.78 81.89 45.78C88.64 45.78 94.12 40.3 94.12 33.55C94.12 26.81 88.64 21.32 81.89 21.32C75.15 21.32 69.66 26.81 69.66 33.55ZM91.19 33.55C91.19 38.68 87.02 42.85 81.89 42.85C76.77 42.85 72.6 38.68 72.6 33.55C72.6 28.43 76.77 24.26 81.89 24.26C87.02 24.26 91.19 28.43 91.19 33.55Z" fill="#273F51" fill-opacity="1.000000" fill-rule="nonzero"/>
		<path id="Vector" d="M72.11 7.62L75.04 7.62L75.04 10.56L72.11 10.56L72.11 7.62Z" fill="#273F51" fill-opacity="1.000000" fill-rule="nonzero"/>
		<path id="Vector" d="M88.74 7.62L91.68 7.62L91.68 10.56L88.74 10.56L88.74 7.62Z" fill="#273F51" fill-opacity="1.000000" fill-rule="nonzero"/>
		<path id="Vector" d="M77.98 7.62L85.81 7.62L85.81 10.56L77.98 10.56L77.98 7.62Z" fill="#273F51" fill-opacity="1.000000" fill-rule="nonzero"/>
		<path id="Vector" d="M37.57 67.9L40.5 67.9L40.5 70.83L37.57 70.83L37.57 67.9Z" fill="#273F51" fill-opacity="1.000000" fill-rule="nonzero"/>
		<path id="Vector" d="M43.44 67.9L46.37 67.9L46.37 70.83L43.44 70.83L43.44 67.9Z" fill="#273F51" fill-opacity="1.000000" fill-rule="nonzero"/>
		<path id="Vector" d="M31.7 67.9L34.63 67.9L34.63 70.83L31.7 70.83L31.7 67.9Z" fill="#273F51" fill-opacity="1.000000" fill-rule="nonzero"/>
		<path id="Vector" d="M7.33 90.01L15.16 90.01L15.16 92.95L7.33 92.95L7.33 90.01Z" fill="#273F51" fill-opacity="1.000000" fill-rule="nonzero"/>
		<path id="Vector" d="M18.1 90.01L21.03 90.01L21.03 92.95L18.1 92.95L18.1 90.01Z" fill="#273F51" fill-opacity="1.000000" fill-rule="nonzero"/>
		<path id="Vector" d="M36.88 53.98L34.01 51.11L31.93 53.18L36.88 58.13L46.14 48.88L44.06 46.8L36.88 53.98Z" fill="#273F51" fill-opacity="1.000000" fill-rule="nonzero"/>
		<path id="Vector" d="M77.26 32.52L75.18 34.59L80.13 39.54L88.61 31.07L86.53 28.99L80.13 35.39L77.26 32.52Z" fill="#273F51" fill-opacity="1.000000" fill-rule="nonzero"/>
	</g>
</svg>
