<svg width="100.000000" height="100.000000" viewBox="0 0 100 100" fill="none" xmlns="http://www.w3.org/2000/svg" xmlns:xlink="http://www.w3.org/1999/xlink">
	
	<defs/>
	<rect id="Rectangle 23" x="2.343750" y="1.953125" width="23.632812" height="23.828125" fill="#8BAE82" fill-opacity="1.000000"/>
	<rect id="Rectangle 26" x="73.437500" y="1.953125" width="23.632812" height="23.828125" fill="#8BAE82" fill-opacity="1.000000"/>
	<rect id="Rectangle 24" x="2.343750" y="74.218750" width="23.632812" height="23.828125" fill="#8BAE82" fill-opacity="1.000000"/>
	<rect id="Rectangle 25" x="73.437500" y="74.218750" width="23.632812" height="23.828125" fill="#8BAE82" fill-opacity="1.000000"/>
	<path id="Vector" d="M45.6 48.53L48.53 48.53L48.53 51.46L45.6 51.46L45.6 48.53Z" fill="#273F51" fill-opacity="1.000000" fill-rule="nonzero"/>
	<path id="Vector" d="M51.46 48.53L54.39 48.53L54.39 51.46L51.46 51.46L51.46 48.53Z" fill="#273F51" fill-opacity="1.000000" fill-rule="nonzero"/>
	<path id="Vector" d="M79.98 48.56C84.01 48.56 87.3 45.27 87.3 41.23L87.3 28.32L95.6 28.32C98.02 28.32 100 26.34 100 23.92L100 4.39C100 1.97 98.02 0 95.6 0L92.77 0L92.77 2.92L95.6 2.92C96.41 2.92 97.07 3.58 97.07 4.39L97.07 23.92C97.07 24.73 96.41 25.39 95.6 25.39L76.07 25.39C75.26 25.39 74.6 24.73 74.6 23.92L74.6 4.39C74.6 3.58 75.26 2.92 76.07 2.92L89.84 2.92L89.84 0L76.07 0C73.65 0 71.67 1.97 71.67 4.39L71.67 23.92C71.67 26.34 73.65 28.32 76.07 28.32L84.37 28.32L84.37 41.23C84.37 43.66 82.4 45.63 79.98 45.63L74.65 45.63L76.16 44.26L72.55 35.55L67.36 35.81L64.18 32.63L64.44 27.44L55.73 23.83L52.25 27.69L47.74 27.69L44.26 23.83L35.55 27.44L35.81 32.63L32.63 35.81L27.44 35.55L23.83 44.26L25.35 45.63L20.01 45.63C17.59 45.63 15.62 43.66 15.62 41.23L15.62 28.32L23.92 28.32C26.34 28.32 28.32 26.34 28.32 23.92L28.32 4.39C28.32 1.97 26.34 0 23.92 0L20.01 0L20.01 2.92L23.92 2.92C24.73 2.92 25.39 3.58 25.39 4.39L25.39 23.92C25.39 24.73 24.73 25.39 23.92 25.39L4.39 25.39C3.58 25.39 2.92 24.73 2.92 23.92L2.92 4.39C2.92 3.58 3.58 2.92 4.39 2.92L17.08 2.92L17.08 0L4.39 0C1.97 0 0 1.97 0 4.39L0 23.92C0 26.34 1.97 28.32 4.39 28.32L12.69 28.32L12.69 41.23C12.69 45.27 15.98 48.56 20.01 48.56L27.69 48.56L27.69 51.46L20.01 51.46C15.98 51.46 12.69 54.75 12.69 58.79L12.69 71.67L4.39 71.67C1.97 71.67 0 73.65 0 76.07L0 95.6C0 98.02 1.97 100 4.39 100L17.08 100L17.08 97.07L6.15 97.07L20.23 87.33L25.39 92.46L25.39 95.6C25.39 96.41 24.73 97.07 23.92 97.07L20.01 97.07L20.01 100L23.92 100C26.34 100 28.32 98.02 28.32 95.6L28.32 76.07C28.32 73.65 26.34 71.67 23.92 71.67L15.62 71.67L15.62 58.79C15.62 56.36 17.59 54.39 20.01 54.39L25.31 54.39L23.83 55.73L27.44 64.44L32.63 64.18L35.81 67.36L35.55 72.55L44.26 76.16L47.74 72.3L52.25 72.3L55.73 76.16L64.44 72.55L64.18 67.36L67.36 64.18L72.55 64.44L76.16 55.73L74.68 54.39L79.98 54.39C82.4 54.39 84.37 56.36 84.37 58.79L84.37 71.67L76.07 71.67C73.65 71.67 71.67 73.65 71.67 76.07L71.67 95.6C71.67 98.02 73.65 100 76.07 100L89.84 100L89.84 97.07L76.07 97.07C75.26 97.07 74.6 96.41 74.6 95.6L74.6 76.07C74.6 75.26 75.26 74.6 76.07 74.6L95.6 74.6C96.41 74.6 97.07 75.26 97.07 76.07L97.07 95.6C97.07 96.41 96.41 97.07 95.6 97.07L92.77 97.07L92.77 100L95.6 100C98.02 100 100 98.02 100 95.6L100 76.07C100 73.65 98.02 71.67 95.6 71.67L87.3 71.67L87.3 58.79C87.3 54.75 84.01 51.46 79.98 51.46L72.3 51.46L72.3 48.56L79.98 48.56ZM25.39 76.07L25.39 88.32L20.57 83.53L2.93 95.73C2.91 95.61 2.93 76.2 2.92 76.07C2.92 75.26 3.58 74.6 4.39 74.6L23.92 74.6C24.73 74.6 25.39 75.26 25.39 76.07ZM69.37 51.46L60.42 51.46L57.03 57.22C52.85 56.52 50.18 61.6 53.19 64.65C54.05 65.51 55.18 65.94 56.3 65.94C60.05 65.96 62.09 61.46 59.59 58.64L62.09 54.39L70.31 54.39L72.66 56.52L70.63 61.41L66.21 61.18L61.18 66.21L61.41 70.63L56.52 72.66L53.55 69.37L46.44 69.37L43.47 72.66L38.58 70.63L38.81 66.21L33.78 61.18L29.36 61.41L27.33 56.52L29.68 54.39L38.35 54.39L40.38 57.51C38.89 59.17 38.98 61.93 40.6 63.48C42.24 65.19 45.18 65.19 46.81 63.48C46.81 63.48 46.81 63.48 46.81 63.48C49.83 60.41 47.16 55.32 42.93 56.05L39.94 51.46L30.62 51.46L30.62 48.56L40.83 48.56L45.96 42C48.63 42.58 51.27 40.43 51.23 37.69C51.22 33.79 46.49 31.83 43.73 34.59C42.14 36.11 42.01 38.81 43.43 40.48L39.4 45.63L29.72 45.63L27.33 43.47L29.36 38.58L33.78 38.81L38.81 33.78L38.58 29.36L43.47 27.33L46.44 30.62L53.55 30.62L56.52 27.33L61.41 29.36L61.19 33.78L66.21 38.81L70.63 38.58L72.66 43.47L70.27 45.63L63.83 45.63L61.68 43.02C63.19 40.13 61.03 36.59 57.77 36.62C55.41 36.57 53.33 38.65 53.38 41.01C53.35 44.16 56.68 46.33 59.55 45.03L62.45 48.56L69.37 48.56L69.37 51.46L69.37 51.46ZM57.77 61.55C57.78 62.84 56.17 63.5 55.27 62.58C54.7 62.04 54.7 61.06 55.27 60.51C56.17 59.59 57.78 60.26 57.77 61.55ZM43.71 58.91C45 58.9 45.66 60.51 44.74 61.41C44.2 61.98 43.22 61.98 42.67 61.41C41.75 60.51 42.42 58.9 43.71 58.91ZM45.37 37.69C45.35 36.4 46.97 35.74 47.87 36.66C48.44 37.2 48.44 38.18 47.87 38.73C46.97 39.65 45.35 38.98 45.37 37.69ZM57.77 42.48C56.48 42.49 55.81 40.88 56.73 39.98C57.28 39.41 58.26 39.41 58.81 39.98C59.73 40.88 59.06 42.49 57.77 42.48Z" fill="#273F51" fill-opacity="1.000000" fill-rule="nonzero"/>
	<path id="Vector" d="M80.07 22.6L94.15 14.16L80.07 5.71L80.07 22.6ZM83 10.88L88.46 14.16L83 17.43L83 10.88Z" fill="#273F51" fill-opacity="1.000000" fill-rule="nonzero"/>
	<path id="Vector" d="M10.15 85.87C12.57 85.87 14.55 83.9 14.55 81.47C14.3 75.65 6 75.65 5.76 81.47C5.76 83.9 7.73 85.87 10.15 85.87ZM10.15 80.01C10.96 80.01 11.62 80.67 11.62 81.47C11.54 83.42 8.76 83.42 8.69 81.47C8.69 80.67 9.34 80.01 10.15 80.01Z" fill="#273F51" fill-opacity="1.000000" fill-rule="nonzero"/>
	<path id="Vector" d="M84.37 85.53C81.6 84.49 78.45 86.7 78.51 89.67C78.51 92.1 80.48 94.07 82.91 94.07C85.33 94.07 87.3 92.1 87.3 89.67L87.3 80.53L91.69 80.53L91.69 77.6L84.37 77.6L84.37 85.53ZM82.91 91.14C82.1 91.14 81.44 90.48 81.44 89.67C81.52 87.73 84.29 87.73 84.37 89.67C84.37 90.48 83.71 91.14 82.91 91.14Z" fill="#273F51" fill-opacity="1.000000" fill-rule="nonzero"/>
	<path id="Vector" d="M7.32 7.12L20.99 7.12L20.99 10.05L7.32 10.05L7.32 7.12Z" fill="#273F51" fill-opacity="1.000000" fill-rule="nonzero"/>
	<path id="Vector" d="M7.32 12.69L20.99 12.69L20.99 15.62L7.32 15.62L7.32 12.69Z" fill="#273F51" fill-opacity="1.000000" fill-rule="nonzero"/>
	<path id="Vector" d="M7.32 18.26L17.08 18.26L17.08 21.19L7.32 21.19L7.32 18.26Z" fill="#273F51" fill-opacity="1.000000" fill-rule="nonzero"/>
</svg>
