<svg width="32.000000" height="32.000000" viewBox="0 0 32 32" fill="none" xmlns="http://www.w3.org/2000/svg" xmlns:xlink="http://www.w3.org/1999/xlink">
	
	<defs>
		<clipPath id="clip19_328">
			<rect id="bell-checkmark 1" rx="0.000000" width="23.000000" height="23.000000" transform="translate(4.500000 4.500000)" fill="white" fill-opacity="0"/>
		</clipPath>
	</defs>
	<circle id="Ellipse 11" cx="16.000000" cy="16.000000" r="16.000000" fill="#CCE5C5" fill-opacity="1.000000"/>
	<rect id="bell-checkmark 1" rx="0.000000" width="23.000000" height="23.000000" transform="translate(4.500000 4.500000)" fill="#FFFFFF" fill-opacity="0"/>
	<g clip-path="url(#clip19_328)">
		<path id="Vector" d="M13.51 22L13.51 22.51C13.51 23.88 14.62 24.99 15.99 24.99L15.98 24.98C17.35 24.98 18.45 23.86 18.46 22.49C18.46 22.48 18.46 22.48 18.46 22.48L18.46 21.96" stroke="#FFFFFF" stroke-opacity="1.000000" stroke-width="1.500000" stroke-linejoin="round" stroke-linecap="round"/>
		<path id="Vector" d="M21.93 22C23.06 22 23.98 21.08 23.98 19.94C23.97 19.36 23.75 18.8 23.34 18.39L21.97 17.02L21.97 12.97C21.97 9.65 19.28 6.97 15.97 6.97L15.96 6.97C12.64 6.97 9.96 9.65 9.96 12.97L9.96 17.02L8.59 18.38L8.58 18.38C8.17 18.78 7.94 19.34 7.94 19.91C7.94 21.04 8.85 21.96 9.99 21.96L21.88 21.96L21.94 22L21.93 22Z" stroke="#FFFFFF" stroke-opacity="1.000000" stroke-width="1.500000" stroke-linejoin="round"/>
		<path id="Vector" d="M17.83 14.2L15.53 16.49L14.15 15.11" stroke="#FFFFFF" stroke-opacity="1.000000" stroke-width="1.500000" stroke-linejoin="round" stroke-linecap="round"/>
	</g>
</svg>
