<svg width="100.000000" height="100.000000" viewBox="0 0 100 100" fill="none" xmlns="http://www.w3.org/2000/svg" xmlns:xlink="http://www.w3.org/1999/xlink">
	
	<defs>
		<clipPath id="clip81_1227">
			<rect id="fi_7110596" rx="0.000000" width="99.000000" height="99.000000" transform="translate(0.500000 0.500000)" fill="white" fill-opacity="0"/>
		</clipPath>
	</defs>
	<rect id="fi_7110596" rx="0.000000" width="99.000000" height="99.000000" transform="translate(0.500000 0.500000)" fill="#FFFFFF" fill-opacity="0"/>
	<g clip-path="url(#clip81_1227)">
		<circle id="Ellipse 28" cx="80.761719" cy="19.238281" r="17.675781" fill="#8BAE82" fill-opacity="1.000000"/>
		<circle id="Ellipse 28" cx="80.761719" cy="19.238281" r="17.675781" fill="#8BAE82" fill-opacity="1.000000"/>
		<circle id="Ellipse 28" cx="80.761719" cy="19.238281" r="17.675781" fill="#8BAE82" fill-opacity="1.000000"/>
		<circle id="Ellipse 29" cx="19.675781" cy="19.238281" r="17.675781" fill="#8BAE82" fill-opacity="1.000000"/>
		<circle id="Ellipse 29" cx="19.675781" cy="19.238281" r="17.675781" fill="#8BAE82" fill-opacity="1.000000"/>
		<circle id="Ellipse 29" cx="19.675781" cy="19.238281" r="17.675781" fill="#8BAE82" fill-opacity="1.000000"/>
		<path id="Vector" d="M38.22 49.97C38.22 56.44 43.48 61.7 49.95 61.7C56.42 61.7 61.68 56.44 61.68 49.97L61.68 32.39L45.5 32.39C43.49 32.39 41.79 33.76 41.28 35.62C39.51 36.18 38.22 37.84 38.22 39.79L38.22 49.97ZM49.95 58.77C45.1 58.77 41.15 54.82 41.15 49.97L41.15 45.59L58.76 45.59L58.76 49.97C58.76 54.82 54.81 58.77 49.95 58.77ZM42.59 38.35L44.06 38.35L44.06 36.77C44.06 35.97 44.7 35.32 45.5 35.32L58.76 35.32L58.76 42.66L41.15 42.66L41.15 39.79C41.15 38.99 41.8 38.35 42.59 38.35Z" fill="#273F51" fill-opacity="1.000000" fill-rule="nonzero"/>
		<path id="Vector" d="M49.95 64.63C40.29 64.63 32.42 72.49 32.42 82.15L32.42 100L67.48 100L67.48 93.9L64.55 93.9L64.55 97.02L55.88 97.02L55.88 68.81C60.98 71.09 64.55 76.21 64.55 82.15L64.55 85.12L67.48 85.12L67.48 82.15C67.48 72.49 59.62 64.63 49.95 64.63ZM51.97 67.7L49.92 69.75L47.88 67.7C48.56 67.61 49.25 67.55 49.95 67.55C50.64 67.55 51.31 67.61 51.97 67.7ZM35.35 82.15C35.35 76.19 38.95 71.05 44.09 68.79L44.09 97.02L35.35 97.02L35.35 82.15ZM47.01 97.02L47.01 70.98L49.92 73.89L52.95 70.86L52.95 97.02L47.01 97.02Z" fill="#273F51" fill-opacity="1.000000" fill-rule="nonzero"/>
		<path id="Vector" d="M64.55 88.04L67.48 88.04L67.48 90.97L64.55 90.97L64.55 88.04Z" fill="#273F51" fill-opacity="1.000000" fill-rule="nonzero"/>
		<path id="Vector" d="M38.22 81.87L41.15 81.87L41.15 84.79L38.22 84.79L38.22 81.87Z" fill="#273F51" fill-opacity="1.000000" fill-rule="nonzero"/>
		<path id="Vector" d="M31.49 14.76L25.28 8.55L16.51 17.32L12.23 13.05L6.02 19.26L16.51 29.75L31.49 14.76ZM12.23 17.19L16.51 21.46L25.28 12.69L27.35 14.76L16.51 25.61L10.16 19.26L12.23 17.19Z" fill="#273F51" fill-opacity="1.000000" fill-rule="nonzero"/>
		<path id="Vector" d="M80.84 0C76.58 0 72.55 1.36 69.18 3.95L70.97 6.27C73.82 4.08 77.23 2.92 80.84 2.92C89.79 2.92 97.07 10.2 97.07 19.15C97.07 28.09 89.79 35.37 80.84 35.37C71.9 35.37 64.62 28.09 64.62 19.15C64.62 15.14 66.09 11.29 68.77 8.31L66.59 6.35C63.43 9.87 61.69 14.41 61.69 19.15C61.69 29.71 70.28 38.3 80.84 38.3C91.4 38.3 100 29.71 100 19.15C100 8.59 91.4 0 80.84 0Z" fill="#273F51" fill-opacity="1.000000" fill-rule="nonzero"/>
		<path id="Vector" d="M38.3 19.15C38.3 8.59 29.71 0 19.15 0C14.82 0 10.74 1.4 7.35 4.06L9.15 6.37C12.03 4.11 15.49 2.92 19.15 2.92C28.09 2.92 35.37 10.2 35.37 19.15C35.37 28.09 28.09 35.37 19.15 35.37C10.2 35.37 2.92 28.09 2.92 19.15C2.92 15.14 4.4 11.29 7.08 8.31L4.9 6.35C1.74 9.87 0 14.41 0 19.15C0 29.71 8.59 38.3 19.15 38.3C29.71 38.3 38.3 29.71 38.3 19.15Z" fill="#273F51" fill-opacity="1.000000" fill-rule="nonzero"/>
		<path id="Vector" d="M76.5 29.73L80.84 25.39L85.19 29.73L91.48 23.6L87.05 19.18L91.47 14.76L85.26 8.55L80.84 12.96L76.43 8.55L70.22 14.76L74.63 19.18L70.2 23.6L76.5 29.73ZM74.36 14.76L76.43 12.69L80.84 17.1L85.26 12.69L87.33 14.76L82.91 19.17L87.31 23.58L85.22 25.62L80.84 21.25L76.47 25.62L74.37 23.58L78.77 19.17L74.36 14.76Z" fill="#273F51" fill-opacity="1.000000" fill-rule="nonzero"/>
		<path id="Vector" d="M67.55 54.35L76.53 54.35L76.53 57.28L67.55 57.28L67.55 54.35Z" fill="#273F51" fill-opacity="1.000000" fill-rule="nonzero"/>
		<path id="Vector" d="M66.71 47.24L75.55 45.68L76.06 48.56L67.22 50.12L66.71 47.24Z" fill="#273F51" fill-opacity="1.000000" fill-rule="nonzero"/>
		<path id="Vector" d="M66.71 64.38L67.22 61.5L76.07 63.06L75.56 65.95L66.71 64.38Z" fill="#273F51" fill-opacity="1.000000" fill-rule="nonzero"/>
		<path id="Vector" d="M23.42 54.35L32.4 54.35L32.4 57.28L23.42 57.28L23.42 54.35Z" fill="#273F51" fill-opacity="1.000000" fill-rule="nonzero"/>
		<path id="Vector" d="M23.94 48.59L24.45 45.71L33.29 47.27L32.78 50.15L23.94 48.59Z" fill="#273F51" fill-opacity="1.000000" fill-rule="nonzero"/>
		<path id="Vector" d="M23.95 63.06L32.79 61.49L33.3 64.38L24.46 65.94L23.95 63.06Z" fill="#273F51" fill-opacity="1.000000" fill-rule="nonzero"/>
	</g>
</svg>
