<svg xmlns="http://www.w3.org/2000/svg" width="25.19" height="29"><path id="Apple" d="M1800.9 1001.88a6.994 6.994 0 00-4.48 2.39 2.683 2.683 0 103.06 2.32 6.3 6.3 0 001.42-4.71zm6.22 9.73a7.508 7.508 0 00-5.64-2.94c-2.64 0-3.76 1.25-5.6 1.25-1.89 0-3.33-1.25-5.62-1.25a7.685 7.685 0 00-6.15 3.66c-2.13 3.26-1.77 9.37 1.69 14.58 1.23 1.86 2.88 3.96 5.04 3.98 1.93.02 2.47-1.22 5.07-1.23s3.1 1.24 5.02 1.22c2.16-.01 3.9-2.33 5.13-4.2a20.48 20.48 0 001.91-3.52 6.35 6.35 0 01-.85-11.55z" transform="translate(-1782.78 -1001.88)" fill="#c76b83" fill-rule="evenodd"/></svg>