<svg xmlns="http://www.w3.org/2000/svg" width="40" height="22.03"><path id="Deezer" d="M1715.94 1026.54h7.29v2.18h-7.29v-2.18zm0-2.84h7.29v2.19h-7.29v-2.19zm0-2.83h7.29v2.18h-7.29v-2.18zm0-2.84h7.29v2.18h-7.29v-2.18zm0-2.84h7.29v2.18h-7.29v-2.18zm8.18 11.35h7.29v2.18h-7.29v-2.18zm0-2.84h7.29v2.19h-7.29v-2.19zm0-2.83h7.29v2.18h-7.29v-2.18zm8.18 5.67h7.29v2.18h-7.29v-2.18zm0-2.84h7.29v2.19h-7.29v-2.19zm0-2.83h7.29v2.18h-7.29v-2.18zm0-2.84h7.29v2.18h-7.29v-2.18zm0-2.84h7.29v2.18h-7.29v-2.18zm0-2.83h7.29v2.18h-7.29v-2.18zm0-2.84h7.29v2.18h-7.29v-2.18zm8.17 17.02h7.3v2.18h-7.3v-2.18zm0-2.84h7.3v2.19h-7.3v-2.19zm0-2.83h7.3v2.18h-7.3v-2.18zm0-2.84h7.3v2.18h-7.3v-2.18zm0-2.84h7.3v2.18h-7.3v-2.18zm8.18 11.35h7.3v2.18h-7.3v-2.18zm0-2.84h7.3v2.19h-7.3v-2.19zm0-2.83h7.3v2.18h-7.3v-2.18zm0-2.84h7.3v2.18h-7.3v-2.18zm0-2.84h7.3v2.18h-7.3v-2.18zm0-2.83h7.3v2.18h-7.3v-2.18zm0-2.84h7.3v2.18h-7.3v-2.18zm0-2.84h7.3v2.18h-7.3v-2.18z" transform="translate(-1715.94 -1006.69)" fill="#c76b83" fill-rule="evenodd"/></svg>