<?xml version="1.0" encoding="utf-8"?>
<!-- Generator: Adobe Illustrator 22.1.0, SVG Export Plug-In . SVG Version: 6.00 Build 0)  -->
<svg version="1.1" id="Слой_1" xmlns="http://www.w3.org/2000/svg" xmlns:xlink="http://www.w3.org/1999/xlink" x="0px" y="0px"
	 width="62px" height="55px" viewBox="0 0 62 55" style="enable-background:new 0 0 62 55;" xml:space="preserve">
<style type="text/css">
	.st0{fill:#FFFFFF;}
	.st1{fill:none;stroke:#FFFFFF;stroke-width:4;stroke-linecap:round;stroke-linejoin:round;}
</style>
<title>Artboard 17</title>
<path class="st0" d="M33,5.2c-0.2-0.9-1.2-1.5-2.1-1.3c-0.3,0.1-0.5,0.2-0.8,0.4L15.3,17.2c-0.1,0.1-0.3,0.2-0.4,0.3h-10
	c-0.6,0-1,0.4-1,1v18.1c0,0.6,0.4,1,1,1h10c0.2,0.1,0.3,0.2,0.4,0.3l14.9,12.9c0.7,0.6,1.8,0.6,2.5-0.2c0.3-0.3,0.4-0.7,0.4-1.1v-44
	C33.1,5.4,33,5.3,33,5.2z"/>
<line class="st1" x1="40.1" y1="19.9" x2="55.3" y2="35.1"/>
<line class="st1" x1="40.1" y1="35.1" x2="55.3" y2="19.9"/>
</svg>
