<?xml version="1.0" encoding="utf-8"?>
<!-- Generator: Adobe Illustrator 22.1.0, SVG Export Plug-In . SVG Version: 6.00 Build 0)  -->
<svg version="1.1" id="Слой_1" xmlns="http://www.w3.org/2000/svg" xmlns:xlink="http://www.w3.org/1999/xlink" x="0px" y="0px"
	 width="62px" height="55px" viewBox="0 0 62 55" style="enable-background:new 0 0 62 55;" xml:space="preserve">
<style type="text/css">
	.st0{fill:#FFFFFF;}
</style>
<title>Artboard 17</title>
<path class="st0" d="M33,5.2c-0.2-0.9-1.2-1.5-2.1-1.3c-0.3,0.1-0.5,0.2-0.8,0.4L15.3,17.2c-0.1,0.1-0.3,0.2-0.4,0.3h-10
	c-0.6,0-1,0.4-1,1v18.1c0,0.6,0.4,1,1,1h10c0.2,0.1,0.3,0.2,0.4,0.3l14.9,12.9c0.7,0.6,1.8,0.6,2.5-0.2c0.3-0.3,0.4-0.7,0.4-1.1v-44
	C33.1,5.4,33,5.3,33,5.2z"/>
<path class="st0" d="M40,27.5c0,3.9-1.4,7.4-3.7,10.2c-0.4,0.5-0.3,1.3,0.3,1.7h0.1c0.5,0.3,1.1,0.2,1.4-0.2
	c2.8-3.1,4.4-7.2,4.4-11.7s-1.7-8.6-4.4-11.7c-0.4-0.4-0.9-0.5-1.4-0.2h-0.1c-0.6,0.4-0.7,1.2-0.3,1.7C38.7,20.1,40,23.6,40,27.5z"
	/>
<path class="st0" d="M48.9,27.4c0,6.2-2.3,11.9-6.1,16.2c-0.5,0.5-0.4,1.4,0.3,1.8l0,0c0.5,0.3,1.1,0.2,1.4-0.2
	c4.3-4.7,6.9-10.9,6.9-17.7s-2.6-13-6.9-17.7c-0.4-0.4-1-0.5-1.4-0.2l0,0c-0.6,0.4-0.8,1.2-0.3,1.8C46.6,15.5,48.9,21.2,48.9,27.4z"
	/>
<path class="st0" d="M56.8,27.5c0,8.4-3.2,16-8.4,21.8c-0.5,0.5-0.4,1.4,0.3,1.8l0,0c0.5,0.3,1,0.2,1.4-0.2
	c5.7-6.1,9.3-14.3,9.3-23.4c0-9-3.5-17.3-9.3-23.4c-0.4-0.4-1-0.5-1.4-0.2l0,0c-0.6,0.4-0.8,1.2-0.3,1.8
	C53.7,11.5,56.8,19.1,56.8,27.5z"/>
</svg>
