<svg xmlns="http://www.w3.org/2000/svg" width="27.03" height="27"><path id="Spotify" d="M1676.33 1030.92a13.51 13.51 0 10-13.51-13.51 13.512 13.512 0 0013.51 13.51zm5.48-7.14c-.91 0-3.78-3.18-11.84-1.53a3.833 3.833 0 01-.65.14.9.9 0 01-.12-1.78c4.46-.98 9.02-.9 12.91 1.43a.908.908 0 01-.3 1.74zm1.47-3.57a1.221 1.221 0 01-.67-.23 17.618 17.618 0 00-13-1.6 2.233 2.233 0 01-.65.14 1.111 1.111 0 01-.21-2.19 19.739 19.739 0 0114.97 1.74 1.14 1.14 0 01.62 1.07 1.069 1.069 0 01-1.06 1.07zm-15.34-8.43c5.09-1.49 12.8-1.02 17.59 1.78a1.326 1.326 0 01-.56 2.5v-.01a1.282 1.282 0 01-.71-.21c-3.87-2.31-10.81-2.87-15.3-1.62a2.413 2.413 0 01-.7.14 1.255 1.255 0 01-1.27-1.28 1.286 1.286 0 01.95-1.3z" transform="translate(-1662.81 -1003.91)" fill="#c76b83" fill-rule="evenodd"/></svg>