<svg xmlns="http://www.w3.org/2000/svg" width="25.625" height="27.531"><defs><filter id="filter" x="29" y="58.969" width="25.625" height="27.531" filterUnits="userSpaceOnUse"><feFlood result="flood" flood-color="#fff"/><feComposite result="composite" operator="in" in2="SourceGraphic"/><feBlend result="blend" in2="SourceGraphic"/></filter></defs><path id="Volume_Off" data-name="Volume Off" d="M43.857 81.289l-1.078-1.074a10.572 10.572 0 000-14.97l1.078-1.075a12.09 12.09 0 010 17.119zm-5.687-1.928l-2.97-2.354a.455.455 0 00-.283-.1h-5.466a.454.454 0 01-.451-.452V69a.454.454 0 01.455-.454h5.485a.457.457 0 00.284-.1l2.945-2.346a.455.455 0 01.739.355v12.551a.455.455 0 01-.738.355zM48.916 86.5l-1.078-1.075a17.934 17.934 0 000-25.4l1.078-1.075a19.452 19.452 0 010 27.55z" transform="translate(-29 -58.969)" fill="#fff" fill-rule="evenodd" filter="url(#filter)"/></svg>