<svg width="51" height="56" xmlns="http://www.w3.org/2000/svg"><g stroke="#FFF" stroke-width="2" fill="none" fill-rule="evenodd" stroke-linecap="round" stroke-linejoin="round"><path d="M39.88 48.52h-2.809a5.47 5.47 0 00-2.204.463L23.68 53.92m-2.16-21.688c-1.375-.972-3.04-1.166-4.548-.531l-6.252 2.686"/><path d="M27.328 38.647l-4.214 1.93a4.22 4.22 0 01-4.55-.674h0a4.042 4.042 0 01-1.35-3.353 4.07 4.07 0 011.883-3.095l7.205-4.584a5.61 5.61 0 015.227-.412l8.351 3.61M28.112 38.8l2.34 1.997a5.283 5.283 0 011.868 3.957 5.277 5.277 0 01-1.776 3.996l-5.431 4.85c-2.083 1.86-5.275 1.867-7.366.017l-3.787-3.352a5.53 5.53 0 00-3.24-1.334M1 31.24h6.943c1.534 0 2.777 1.209 2.777 2.7v16.2c0 1.491-1.243 2.7-2.777 2.7H1m48.6 0h-6.943c-1.534 0-2.777-1.209-2.777-2.7v-16.2c0-1.491 1.243-2.7 2.777-2.7H49.6m0-8.64V7.075A6.075 6.075 0 0043.525 1H7.075A6.075 6.075 0 001 7.075V22.6m9.72-7.56l3.24 3.24m6.48-5.4l-5.4 5.4m11.88-.54H38.8"/></g></svg>