<svg width="54" height="54" xmlns="http://www.w3.org/2000/svg"><g fill="none" fill-rule="evenodd"><path stroke="#FFF" stroke-width="2" stroke-linecap="round" stroke-linejoin="round" d="M6.75 47.25h31.5m9-2.25V24.75A2.25 2.25 0 0045 22.5h-9a2.25 2.25 0 00-2.25 2.25v4.5H27a2.25 2.25 0 00-2.25 2.25V36H13.5a2.25 2.25 0 00-2.25 2.25V45a2.25 2.25 0 002.25 2.25H45A2.25 2.25 0 0047.25 45zm-30.375-9V23.089M40.5 22.5V6.935m6.75-.185h-5.344a4.5 4.5 0 00-2.562.8L11.25 27"/><path d="M0 0h54v54H0z"/></g></svg>