<svg width="51" height="48" xmlns="http://www.w3.org/2000/svg"><g stroke="#FFF" stroke-width="2" fill="none" fill-rule="evenodd" stroke-linecap="round" stroke-linejoin="round"><path d="M36.389 36h5.444C46.343 36 50 32.384 50 27.923V9.077C50 4.617 46.344 1 41.833 1H9.167C4.657 1 1 4.616 1 9.077v5.385m19 .597A7.03 7.03 0 0129.941 25M1 44.333l3.151 1.541A11.113 11.113 0 009.03 47h17.88c2.258 0 4.09-1.79 4.09-4h0c0-2.21-1.832-4-4.09-4H16"/><path d="M1 25h7.908a5.32 5.32 0 013.257 1.12l6.072 4.698c1.022.79 1.661 2 1.752 3.314a4.627 4.627 0 01-1.28 3.537h0a4.307 4.307 0 01-5.759.422l-3.807-2.946"/></g></svg>