<svg width="54" height="54" xmlns="http://www.w3.org/2000/svg"><g fill="none" fill-rule="evenodd"><path stroke="#FFF" stroke-width="2" stroke-linecap="round" stroke-linejoin="round" d="M11.25 20.25H3.375m7.875 13.5H7.875M11.25 27H5.625m7.056-14.319a20.25 20.25 0 110 28.638M27 16.875v2.25m0 18v-2.25"/><path d="M31.934 22.323A4.938 4.938 0 0027 19.125a4.655 4.655 0 00-5.063 4.09h0c0 1.612 1.138 3 2.72 3.316l4.687.938a3.382 3.382 0 012.718 3.316h0A4.655 4.655 0 0127 34.875a4.938 4.938 0 01-4.934-3.198" stroke="#FFF" stroke-width="2" stroke-linecap="round" stroke-linejoin="round"/><path d="M54 0v54H0V0z"/></g></svg>