<svg width="54" height="54" xmlns="http://www.w3.org/2000/svg"><g fill="none" fill-rule="evenodd"><path d="M0 0h54v54H0z"/><path d="M16.06 44.023c8.718 5.61 20.263 3.744 26.77-4.326 6.507-8.07 5.882-19.749-1.448-27.079-7.33-7.33-19.008-7.955-27.079-1.448-8.07 6.507-9.936 18.052-4.327 26.77" stroke="#FFF" stroke-width="2" stroke-linecap="round" stroke-linejoin="round"/><path d="M9.976 37.94l-.96 5.75a1.125 1.125 0 001.295 1.294l5.749-.96M27 34.874a10.931 10.931 0 009.468-5.418h0a4.92 4.92 0 000-4.913h0a10.981 10.981 0 00-18.936 0h0a4.92 4.92 0 000 4.913h0A10.931 10.931 0 0027 34.874h0z" stroke="#FFF" stroke-width="2" stroke-linecap="round" stroke-linejoin="round"/><path stroke="#FFF" stroke-width="2" stroke-linecap="round" stroke-linejoin="round" d="M26.989 27l.011-.011.011.011-.011.011-.011-.011"/></g></svg>