<svg width="44" height="44" xmlns="http://www.w3.org/2000/svg"><g stroke="#FFF" stroke-width="2" fill="none" fill-rule="evenodd" stroke-linecap="round" stroke-linejoin="round"><path d="M16.734 27.266a3.058 3.058 0 11-4.324 4.324 3.058 3.058 0 014.324-4.324"/><path d="M18.55 16.813l2.063.688c.473.158.792.6.792 1.098v1.978c0 1.123.898 2.04 2.02 2.065l1.873.04c.43.01.816.255 1.01.64l.972 1.944a1.16 1.16 0 01-.216 1.336L25.664 28a2.066 2.066 0 00-.031 2.889l1.294 1.352c.297.31.398.758.26 1.165L26.5 35.47c-.157.472-.6.792-1.098.792h-1.978c-1.122 0-2.04.897-2.065 2.02l-.04 1.872c-.01.43-.255.817-.64 1.01l-1.944.972a1.16 1.16 0 01-1.336-.216L16 40.52a2.066 2.066 0 00-2.89-.03l-1.352 1.293c-.31.297-.758.398-1.165.261l-2.063-.688a1.159 1.159 0 01-.792-1.098V38.28a2.067 2.067 0 00-2.021-2.066l-1.87-.04a1.156 1.156 0 01-1.01-.64l-.972-1.943a1.16 1.16 0 01.216-1.337l1.4-1.397a2.066 2.066 0 00.031-2.889l-1.294-1.352a1.152 1.152 0 01-.26-1.166l.688-2.063c.157-.472.6-.792 1.098-.792h1.978c1.122 0 2.04-.898 2.065-2.02l.04-1.872c.01-.43.255-.817.64-1.01l1.944-.973a1.16 1.16 0 011.336.216l1.397 1.4a2.066 2.066 0 002.89.031l1.352-1.293a1.156 1.156 0 011.163-.261zm16.315 2.412l1.79-.482a.956.956 0 00.696-.77l.34-2.09a1.429 1.429 0 011.179-1.179l2.088-.34a.956.956 0 00.769-.695l.482-1.79a.955.955 0 00-.32-.988l-1.64-1.341a1.431 1.431 0 01-.432-1.611l.754-1.985a.954.954 0 00-.219-1.015l-1.311-1.31a.958.958 0 00-1.015-.217l-2.943 1.116-1.99-2.435a.956.956 0 00-.987-.32l-1.791.482a.956.956 0 00-.695.77l-.34 2.09a1.429 1.429 0 01-1.179 1.179l-2.088.34a.956.956 0 00-.77.695l-.481 1.79a.96.96 0 00.317.989l1.638 1.338c.475.39.648 1.038.43 1.611l-.754 1.985a.954.954 0 00.219 1.015l1.311 1.311a.958.958 0 001.015.219l1.987-.754a1.423 1.423 0 011.609.432l1.34 1.64a.962.962 0 00.99.32h0z"/></g></svg>