<svg width="54" height="54" xmlns="http://www.w3.org/2000/svg"><g fill="none" fill-rule="evenodd"><g stroke-linecap="round" stroke-linejoin="round" stroke="#FFF" stroke-width="2"><path d="M18.803 38.25V20.101m-9.803 0V38.25m11.25 0H6.75l-2.25 4.5V45h18m6.937-.522l-.324-2.444h0l-1.497-1.957h0a3.008 3.008 0 010-3.652l1.497-1.955h0l.326-2.444h0a3.008 3.008 0 012.583-2.583l2.441-.324h0l1.958-1.496h0a3.008 3.008 0 013.651 0l1.958 1.496h0l2.443.327h0a3.01 3.01 0 012.584 2.583l.324 2.441h0l1.496 1.955h0a3.008 3.008 0 010 3.652l-1.496 1.957h0l-.327 2.444h0a3.01 3.01 0 01-2.583 2.585l-2.441.322h0l-1.957 1.498h0a3.015 3.015 0 01-3.652 0l-1.958-1.498h0l-2.443-.326h0a3.004 3.004 0 01-2.583-2.581h0z"/><path d="M41.751 36.502l-4.376 4.376-2.626-2.628M45 13.338L24.75 4.5 4.5 13.338v6.764H45z"/></g><path d="M0 0h54v54H0z"/></g></svg>