<svg width="54" height="54" xmlns="http://www.w3.org/2000/svg"><g fill="none" fill-rule="evenodd"><path d="M0 0h54v54H0z"/><path d="M33.764 10.721A19.016 19.016 0 0025.875 9C15.313 9 6.75 17.564 6.75 28.125c0 10.562 8.563 19.125 19.125 19.125S45 38.687 45 28.125c0-2.817-.628-5.481-1.721-7.889" stroke="#FFF" stroke-width="2" stroke-linecap="round" stroke-linejoin="round"/><path stroke="#FFF" stroke-width="2" stroke-linecap="round" stroke-linejoin="round" d="M25.875 19.627l8.498 14.87-8.498-2.124-8.498 2.124zm16.875.623a9 9 0 110-18 9 9 0 010 18"/><path stroke="#FFF" stroke-width="2" stroke-linecap="round" stroke-linejoin="round" d="M46.75 9.25l-4.999 5-3.002-3"/></g></svg>