<svg width="64" height="52" xmlns="http://www.w3.org/2000/svg"><path d="M48.277 51c-3.926 0-7.198-1.257-9.815-3.77-2.618-2.514-3.926-5.684-3.926-9.509 0-2.076.354-4.207 1.063-6.393s1.936-5.137 3.68-8.853L49.75 1H63l-6.87 25.574c4.034 2.841 6.052 6.612 6.052 11.311 0 3.716-1.336 6.83-4.008 9.345-2.672 2.513-5.97 3.77-9.897 3.77zm-33.536 0c-3.926 0-7.197-1.257-9.815-3.77C2.31 44.716 1 41.546 1 37.72c0-2.076.354-4.207 1.063-6.393.71-2.186 1.936-5.137 3.681-8.853L16.214 1h13.25l-6.87 25.574c4.035 2.841 6.052 6.612 6.052 11.311 0 3.716-1.336 6.83-4.007 9.345C21.967 49.743 18.668 51 14.74 51z" stroke="#262261" fill="none"/></svg>