<svg width="54" height="54" xmlns="http://www.w3.org/2000/svg"><g fill="none" fill-rule="evenodd"><g stroke-linecap="round" stroke-linejoin="round" stroke="#FFF" stroke-width="2"><path d="M30.184 23.929h0a.281.281 0 11-.399 0h0a.281.281 0 01.399 0"/><path d="M26.914 17.64H33.3a3.06 3.06 0 013.06 3.06v6.383h0a3.062 3.062 0 01-.9 2.165l-8.1 8.1h0a3.062 3.062 0 01-4.329 0l-6.381-6.379h0a3.062 3.062 0 010-4.329l8.1-8.1h0a3.062 3.062 0 012.164-.9h0z"/><path d="M7.875 30.294l2.7 3.521.58 4.379h0a5.43 5.43 0 004.647 4.669l4.392.585 3.514 2.677h0a5.427 5.427 0 006.593 0l3.519-2.686h0l4.383-.581h0a5.43 5.43 0 004.666-4.664l.585-4.392 2.7-3.517h0a5.427 5.427 0 000-6.588l-2.7-3.521-.58-4.379h0a5.43 5.43 0 00-4.671-4.66l-4.392-.584-3.515-2.678h0a5.427 5.427 0 00-6.592 0l-3.52 2.678h0l-4.382.58h0a5.43 5.43 0 00-4.662 4.664l-.585 4.392-2.68 3.517h0a5.423 5.423 0 000 6.588h0z"/></g><path d="M0 0h54v54H0z"/></g></svg>