<svg width="54" height="54" xmlns="http://www.w3.org/2000/svg"><g fill="none" fill-rule="evenodd"><path d="M47.449 47.051a.281.281 0 11-.398.398.281.281 0 01.398-.398m0-20.25a.281.281 0 11-.398.398.281.281 0 01.398-.398m0 10.125a.281.281 0 11-.398.398.281.281 0 01.398-.398m0-20.25a.281.281 0 11-.398.398.281.281 0 01.398-.398M37.324 47.051a.281.281 0 11-.398.398.281.281 0 01.398-.398M6.949 6.551a.281.281 0 11-.398.398.281.281 0 01.398-.398m40.5 0a.281.281 0 11-.398.398.281.281 0 01.398-.398m-20.25 0a.281.281 0 11-.398.398.281.281 0 01.398-.398m-10.125 0a.281.281 0 11-.398.398.281.281 0 01.398-.398m20.25 0a.281.281 0 11-.398.398.281.281 0 01.398-.398M6.949 16.676a.281.281 0 11-.398.398.281.281 0 01.398-.398M22.936 47.25H10.813a4.065 4.065 0 01-4.063-4.063V31.064A4.065 4.065 0 0110.813 27h12.123A4.065 4.065 0 0127 31.064v12.123a4.065 4.065 0 01-4.064 4.063h0zm2.871-19.057L36 18m0 9v-9m-9 0h9" stroke-linecap="round" stroke-linejoin="round" stroke="#FFF" stroke-width="2"/><path d="M0 0h54v54H0z"/></g></svg>