<svg width="54" height="54" xmlns="http://www.w3.org/2000/svg"><g fill="none" fill-rule="evenodd"><g stroke-linecap="round" stroke-linejoin="round" stroke="#FFF" stroke-width="2"><path d="M38.25 15.75h4.5a4.5 4.5 0 014.5 4.5v22.5a4.5 4.5 0 01-4.5 4.5h-31.5a4.499 4.499 0 01-4.5-4.5v-22.5a4.5 4.5 0 014.5-4.5h4.5"/><path d="M18.189 21.976l-.324-2.441v-.003l-1.496-1.957a3.008 3.008 0 010-3.652l1.496-1.957v-.003l.326-2.443a3.008 3.008 0 012.583-2.583l2.441-.324h.003l1.957-1.496a3.008 3.008 0 013.652 0l1.957 1.496h.003l2.443.326a3.008 3.008 0 012.583 2.583l.324 2.441v.003l1.496 1.957a3.008 3.008 0 010 3.652l-1.496 1.957v.003l-.326 2.443a3.008 3.008 0 01-2.583 2.583l-2.441.324h-.003l-1.957 1.496a3.008 3.008 0 01-3.652 0l-1.957-1.496h-.003l-2.443-.326a3.005 3.005 0 01-2.583-2.583h0z"/><path d="M30.501 14l-4.376 4.376L23.5 15.75m-7.75 18h22.5m-18 6.75h13.5"/></g><path d="M0 0h54v54H0z"/></g></svg>