<svg width="18" height="20" xmlns="http://www.w3.org/2000/svg"><g id="Page-1" stroke="none" stroke-width="1" fill="none" fill-rule="evenodd" stroke-linecap="round" stroke-linejoin="round"><g id="Home" transform="translate(-1448 -54)" stroke="#FFF" stroke-width="1.5"><g id="Group-9" transform="translate(1448 54)"><path d="M14.75 18.75h-12a2 2 0 01-2-2V6.25a1.5 1.5 0 011.5-1.5h13a1.5 1.5 0 011.5 1.5v10.5a2 2 0 01-2 2z" id="Stroke-1"/><path d="M4.75 4.75V4.5A3.75 3.75 0 018.5.75H9a3.75 3.75 0 013.75 3.75v.25" id="Stroke-3"/><path d="M9.566 9.052l-.816-.834.834-.816a2 2 0 012.828.029l.816.834-.834.817a2 2 0 01-2.828-.03z" id="Stroke-5"/><path d="M11.568 9.566A4 4 0 118.75 8.405" id="Stroke-7"/></g></g></g></svg>