<svg width="44" height="44" xmlns="http://www.w3.org/2000/svg"><g id="Page-1" stroke="none" stroke-width="1" fill="none" fill-rule="evenodd" stroke-linecap="round" stroke-linejoin="round"><g id="About-Our-Fruit" transform="translate(-465 -753)" fill="#FFF" stroke="#F06724" stroke-width="3"><g id="Check-mark,-Сertificate" transform="translate(467 755)"><path d="M1.1 23.254l2.656 3.476.573 4.326a5.359 5.359 0 004.605 4.61l4.338.58 3.474 2.652a5.359 5.359 0 006.51 0l3.475-2.655h-.004l4.33-.573a5.359 5.359 0 004.608-4.605l.578-4.337c0 .002 1.343-1.756 2.656-3.474a5.36 5.36 0 000-6.508l-2.651-3.478-.574-4.327a5.359 5.359 0 00-4.605-4.608l-4.34-.578-3.474-2.653a5.359 5.359 0 00-6.509 0L13.27 3.755h.005l-4.33.575a5.359 5.359 0 00-4.61 4.605l-.58 4.337c0-.002-1.341 1.756-2.655 3.474a5.364 5.364 0 000 6.508h0z" id="Path"/></g></g></g></svg>