<svg width="20" height="20" xmlns="http://www.w3.org/2000/svg"><g id="Page-1" stroke="none" stroke-width="1" fill="none" fill-rule="evenodd" stroke-linecap="round" stroke-linejoin="round"><g id="About-Us" transform="translate(-395 -763)" stroke="#F06724" stroke-width="1.5"><g id="Check-mark,-Сertificate" transform="translate(396 764)"><path d="M.495 10.465l1.195 1.564.258 1.947A2.411 2.411 0 004.02 16.05l1.952.261 1.563 1.194a2.411 2.411 0 002.929 0l1.564-1.195h-.002l1.948-.258a2.411 2.411 0 002.074-2.072l.26-1.952 1.195-1.563a2.412 2.412 0 000-2.929L16.31 5.971l-.258-1.947A2.411 2.411 0 0013.98 1.95l-1.953-.26L10.464.496a2.411 2.411 0 00-2.929 0L5.971 1.69h.002l-1.948.259a2.411 2.411 0 00-2.074 2.072L1.69 5.973.495 7.536a2.414 2.414 0 000 2.929h0z" id="Path"/><path id="Path" d="M11.803 7.602l-3.501 3.501-2.103-2.101"/></g></g></g></svg>