<svg width="51" height="51" xmlns="http://www.w3.org/2000/svg"><g id="Page-1" stroke="none" stroke-width="1" fill="none" fill-rule="evenodd"><g id="Home" transform="translate(-411 -3900)" fill="#FFF"><g id="social_btns" transform="translate(346 3900)"><g id="facebook" transform="translate(65)"><rect id="shape" fill-opacity=".08" x="0" y="0" width="51" height="51" rx="25.5"/><g id="icon/facebook" transform="translate(19.833 15.583)"><path d="M10.694.004L8.03 0C5.035 0 3.1 1.929 3.1 4.914v2.265H.42a.413.413 0 00-.42.408v3.282c0 .225.188.407.42.407H3.1v8.283c0 .225.187.407.418.407h3.497a.413.413 0 00.419-.407v-8.283h3.134a.413.413 0 00.419-.407l.001-3.282a.402.402 0 00-.123-.288.426.426 0 00-.296-.12H7.434V5.26c0-.923.226-1.392 1.464-1.392h1.796a.413.413 0 00.419-.408V.411a.413.413 0 00-.419-.407z" id="Path"/></g></g></g></g></g></svg>