<svg width="51" height="51" xmlns="http://www.w3.org/2000/svg"><g id="Page-1" stroke="none" stroke-width="1" fill="none" fill-rule="evenodd"><g id="Home" transform="translate(-476 -3900)" fill="#FFF"><g id="social_btns" transform="translate(346 3900)"><g id="instagram" transform="translate(130)"><rect id="shape" fill-opacity=".08" x="0" y="0" width="51" height="51" rx="25.5"/><g id="icon/instagram" transform="translate(14.167 15.583)"><path d="M15.3 0H5.833A5.838 5.838 0 000 5.832V15.3a5.838 5.838 0 005.832 5.832H15.3a5.839 5.839 0 005.832-5.832V5.83A5.839 5.839 0 0015.3 0zm3.958 15.3a3.961 3.961 0 01-3.957 3.958H5.83A3.961 3.961 0 011.876 15.3V5.83a3.961 3.961 0 013.957-3.956H15.3a3.962 3.962 0 013.957 3.957V15.3z" id="Shape"/><path d="M10.566 5.121a5.451 5.451 0 00-5.445 5.446 5.451 5.451 0 005.445 5.445 5.451 5.451 0 005.446-5.445 5.451 5.451 0 00-5.446-5.446zm0 9.016a3.574 3.574 0 01-3.57-3.57 3.574 3.574 0 013.57-3.57 3.574 3.574 0 013.57 3.57 3.574 3.574 0 01-3.57 3.57z" id="Shape"/><path d="M16.24 3.531a1.38 1.38 0 00-1.375 1.375c0 .362.148.717.404.973.255.255.61.402.971.402.363 0 .716-.147.973-.402a1.38 1.38 0 000-1.945 1.38 1.38 0 00-.973-.403z" id="Path"/></g></g></g></g></g></svg>