<svg width="39" height="41" xmlns="http://www.w3.org/2000/svg"><g id="Page-1" stroke="none" stroke-width="1" fill="none" fill-rule="evenodd" stroke-linecap="round" stroke-linejoin="round"><g id="Contact-Us" transform="translate(-383 -686)" stroke="#F9B019" stroke-width="3"><g id="Pin,-Location" transform="translate(385 688)"><g id="Group"><path d="M11.892 23.733C4.982 24.643 0 27.185 0 30.184 0 33.948 7.834 37 17.5 37S35 33.948 35 30.184c0-2.999-4.982-5.54-11.892-6.451" id="Path"/><path d="M29.167 11.359C29.167 5.087 23.944 0 17.5 0S5.833 5.087 5.833 11.359c0 8.52 11.667 17.852 11.667 17.852s11.667-9.332 11.667-17.852z" id="Path"/><path d="M20.25 8.93a3.899 3.899 0 010 5.508 3.885 3.885 0 01-5.5 0 3.899 3.899 0 010-5.508 3.885 3.885 0 015.5 0" id="Path"/></g></g></g></g></svg>