<svg width="286" height="110" xmlns="http://www.w3.org/2000/svg"><g id="Page-1" stroke="none" stroke-width="1" fill="none" fill-rule="evenodd"><g id="Home" transform="translate(-343 -38)"><g id="Group-229" transform="translate(344 38)"><path d="M110.625 63c-1.968 0-3.804-.253-5.507-.76-1.702-.507-3.145-1.102-4.325-1.789l-1.568 1.637h-1.93L97 50.094h1.953a31.619 31.619 0 001.68 3.609 17.624 17.624 0 002.362 3.397 12.29 12.29 0 003.1 2.554c1.143.657 2.479.985 4.008.985 2.059 0 3.637-.519 4.735-1.556 1.096-1.038 1.646-2.344 1.646-3.92 0-1.295-.466-2.383-1.397-3.264-.93-.882-2.373-1.643-4.325-2.285a608.512 608.512 0 01-3.509-1.174 58.598 58.598 0 01-3.009-1.104c-2.164-.89-3.773-2.161-4.825-3.815-1.052-1.655-1.578-3.505-1.578-5.549 0-1.295.272-2.54.817-3.733.545-1.194 1.34-2.267 2.384-3.22 1-.888 2.279-1.614 3.838-2.176 1.56-.562 3.255-.843 5.086-.843 1.787 0 3.46.257 5.019.771 1.559.515 2.785 1.03 3.679 1.543l1.385-1.402h1.976l.18 11.316h-1.952a44.159 44.159 0 00-1.601-3.738c-.613-1.274-1.26-2.332-1.942-3.176a8.893 8.893 0 00-2.565-2.168c-.969-.538-2.105-.808-3.407-.808-1.634 0-2.97.476-4.008 1.429-1.036.952-1.555 2.13-1.555 3.535 0 1.328.45 2.413 1.352 3.256.9.843 2.304 1.584 4.211 2.225 1.12.39 2.264.78 3.43 1.17a62.15 62.15 0 013.11 1.124c2.196.874 3.864 2.08 5.007 3.617 1.143 1.537 1.715 3.446 1.715 5.724a9.443 9.443 0 01-.977 4.168c-.65 1.341-1.528 2.458-2.634 3.348-1.211.982-2.611 1.74-4.2 2.27-1.59.53-3.444.796-5.564.796z" id="Stroke-1" stroke="#F16522" stroke-width="2"/><path d="M139.484 63c-1.75 0-3.388-.28-4.913-.845a11.546 11.546 0 01-3.987-2.45c-1.111-1.047-1.986-2.343-2.625-3.887-.64-1.544-.959-3.241-.959-5.092 0-1.839.322-3.542.967-5.108a12.11 12.11 0 012.717-4.072c1.144-1.126 2.519-1.998 4.123-2.618 1.603-.618 3.32-.928 5.148-.928 1.324 0 2.529.162 3.617.485 1.088.323 2.008.685 2.76 1.085l1.043-.918h1.464l.152 8.65h-1.481c-.84-2.644-1.849-4.585-3.025-5.825-1.177-1.237-2.611-1.856-4.303-1.856-2.106 0-3.708.922-4.806 2.768-1.097 1.846-1.646 4.435-1.646 7.768 0 1.886.187 3.494.562 4.827.376 1.332.866 2.405 1.472 3.219.65.848 1.416 1.47 2.302 1.866.885.395 1.865.593 2.941.593 1.568 0 2.966-.422 4.193-1.27 1.227-.845 2.344-2.126 3.353-3.84l1.447.868a14.448 14.448 0 01-1.649 2.63 9.941 9.941 0 01-2.136 1.997 11.152 11.152 0 01-2.936 1.435c-1.072.345-2.338.518-3.795.518z" id="Stroke-3" stroke="#F16522" stroke-width="2"/><path d="M179 62h-12.4v-1.32c.27-.022.663-.056 1.181-.101.517-.044.873-.112 1.066-.203.399-.169.674-.391.825-.667.15-.277.226-.629.226-1.058v-8.27h-9.796v8.084c0 .384.078.727.234 1.032.155.305.423.54.8.71.205.09.556.186 1.05.287.496.102.9.164 1.213.187V62H151v-1.32a16.94 16.94 0 001.188-.11c.523-.061.904-.137 1.14-.228.388-.146.658-.368.809-.667.15-.298.225-.652.225-1.057V41.637c0-.394-.067-.727-.202-.998-.134-.27-.412-.508-.832-.71-.313-.147-.721-.28-1.229-.398A10.063 10.063 0 00151 39.32V38h12.4v1.32c-.335.023-.733.079-1.197.168-.464.091-.82.176-1.067.254-.42.147-.698.381-.833.702a2.614 2.614 0 00-.201 1.024v7.17h9.796v-7.001c0-.394-.07-.727-.21-.998-.14-.27-.42-.508-.84-.71-.281-.136-.656-.262-1.123-.382a9.819 9.819 0 00-1.124-.228V38H179v1.32c-.345.023-.733.07-1.164.143a8.435 8.435 0 00-1.164.28c-.41.146-.685.377-.824.693a2.5 2.5 0 00-.21 1.032v16.997c0 .406.069.75.21 1.032.14.281.414.518.824.71.259.113.633.214 1.123.305.491.09.892.146 1.205.169V62z" id="Stroke-5" stroke="#F16522" stroke-width="2"/><path d="M195.909 52.427l-3.33-8.555-3.282 8.555h6.612zM208 62h-12.535v-1.301a15.105 15.105 0 002.055-.325c.787-.172 1.182-.386 1.182-.642 0-.089-.008-.19-.024-.3a2.194 2.194 0 00-.138-.451l-1.963-4.903h-7.944c-.183.456-.385.99-.605 1.6a78.12 78.12 0 00-.572 1.635c-.205.623-.326 1.074-.364 1.352a5.248 5.248 0 00-.057.583c0 .357.263.66.787.908.523.252 1.395.432 2.616.543V62H181v-1.301a8.46 8.46 0 001.208-.175c.449-.094.803-.225 1.063-.392a4.188 4.188 0 001.127-.984c.307-.388.565-.85.77-1.385 1.254-3.123 2.51-6.254 3.77-9.389 1.26-3.136 2.651-6.594 4.176-10.374h3.243c2.118 5.36 3.778 9.595 4.978 12.709a374.91 374.91 0 003.065 7.739c.14.333.319.637.535.908.216.273.524.532.925.776.302.178.652.31 1.054.4.4.09.762.145 1.086.167V62z" id="Stroke-7" stroke="#F16522" stroke-width="2"/><path d="M220.484 63c-1.75 0-3.388-.28-4.913-.845a11.546 11.546 0 01-3.987-2.45c-1.111-1.047-1.986-2.343-2.625-3.887-.64-1.544-.959-3.241-.959-5.092 0-1.839.322-3.542.968-5.108a12.093 12.093 0 012.716-4.072c1.144-1.126 2.519-1.998 4.123-2.618 1.603-.618 3.319-.928 5.148-.928 1.324 0 2.53.162 3.617.485 1.088.323 2.01.685 2.76 1.085l1.043-.918h1.464l.152 8.65h-1.481c-.84-2.644-1.849-4.585-3.025-5.825-1.177-1.237-2.611-1.856-4.303-1.856-2.106 0-3.708.922-4.806 2.768-1.098 1.846-1.646 4.435-1.646 7.768 0 1.886.188 3.494.562 4.827.376 1.332.866 2.405 1.47 3.219.651.848 1.418 1.47 2.304 1.866.886.395 1.865.593 2.941.593 1.57 0 2.967-.422 4.193-1.27 1.227-.845 2.344-2.126 3.353-3.84l1.447.868a14.448 14.448 0 01-1.649 2.63 9.918 9.918 0 01-2.136 1.997 11.137 11.137 0 01-2.936 1.435c-1.072.345-2.338.518-3.795.518z" id="Stroke-9" stroke="#F16522" stroke-width="2"/><path d="M260 62h-12.4v-1.32c.27-.022.663-.056 1.181-.101.517-.044.873-.112 1.066-.203.399-.169.674-.391.825-.667.151-.277.226-.629.226-1.058v-8.27h-9.796v8.084c0 .384.078.727.234 1.032.156.305.423.54.8.71.205.09.556.186 1.05.287.496.102.9.164 1.213.187V62H232v-1.32a16.94 16.94 0 001.188-.11c.523-.061.904-.137 1.14-.228.388-.146.658-.368.809-.667.15-.298.225-.652.225-1.057V41.637c0-.394-.067-.727-.202-.998-.134-.27-.412-.508-.832-.71-.313-.147-.721-.28-1.229-.398A10.063 10.063 0 00232 39.32V38h12.4v1.32c-.334.023-.733.079-1.197.168-.463.091-.819.176-1.067.254-.42.147-.698.381-.833.702a2.631 2.631 0 00-.201 1.024v7.17h9.796v-7.001c0-.394-.07-.727-.21-.998-.14-.27-.42-.508-.84-.71-.281-.136-.656-.262-1.123-.382a9.777 9.777 0 00-1.124-.228V38H260v1.32c-.345.023-.733.07-1.164.143a8.435 8.435 0 00-1.164.28c-.41.146-.685.377-.824.693-.14.316-.21.659-.21 1.032v16.997c0 .406.07.75.21 1.032.14.281.414.518.824.71.259.113.634.214 1.123.305.491.09.892.146 1.205.169V62z" id="Stroke-11" stroke="#F16522" stroke-width="2"/><path d="M284 44.867h-1.305c-.345-1.026-.899-2.125-1.66-3.298-.762-1.173-1.465-1.804-2.111-1.895a22.291 22.291 0 00-1.32-.118 21.5 21.5 0 00-1.35-.051h-.785V58.33c0 .406.072.764.217 1.075.146.31.43.554.854.735.257.102.655.205 1.196.313.54.107 1 .184 1.38.228V62h-13.231v-1.32c.323-.033.778-.08 1.362-.143.586-.062.985-.138 1.197-.228.434-.18.724-.423.87-.728.144-.303.217-.664.217-1.082V39.505h-.785c-.379 0-.829.017-1.35.05-.524.034-.964.074-1.32.119-.646.09-1.349.722-2.11 1.895-.763 1.173-1.317 2.272-1.661 3.298H261V38h23v6.867z" id="Stroke-13" stroke="#F16522" stroke-width="2"/><path d="M133 88.597a18.6 18.6 0 00-1.255.164 9.307 9.307 0 00-1.368.374c-.624.203-1.035.538-1.233 1.006a3.747 3.747 0 00-.296 1.472v3.858c0 .78.007 1.407.023 1.882.014.476.038 1.064.068 1.766-1.52.934-3.768 1.815-6.742 2.641-2.972.826-5.707 1.24-8.2 1.24-2.344 0-4.54-.368-6.594-1.101a15.215 15.215 0 01-5.408-3.3c-1.55-1.449-2.77-3.25-3.66-5.404-.89-2.15-1.335-4.616-1.335-7.392 0-2.588.418-4.983 1.255-7.183.836-2.199 2.045-4.093 3.627-5.684 1.551-1.575 3.44-2.792 5.669-3.65 2.229-.858 4.696-1.286 7.403-1.286 1.84 0 3.544.233 5.11.701 1.567.467 2.86.966 3.879 1.497l1.414-1.286h1.986l.204 12.11h-2.007c-1.156-3.64-2.54-6.341-4.153-8.107-1.612-1.765-3.65-2.648-6.113-2.648-2.92 0-5.175 1.31-6.765 3.93-1.59 2.621-2.383 6.232-2.383 10.834 0 4.883.778 8.704 2.338 11.465 1.559 2.761 3.768 4.142 6.627 4.142 1.339 0 2.528-.207 3.57-.62 1.042-.413 1.852-.891 2.43-1.437v-6.734c0-.561-.099-1.032-.296-1.414-.198-.382-.593-.713-1.187-.994-.456-.218-1.027-.398-1.711-.537a26.528 26.528 0 00-1.71-.305v-1.823H133v1.823z" id="Stroke-15" stroke="#F16522" stroke-width="2"/><path d="M149.712 84.156c0-1.6-.438-2.77-1.317-3.508-.879-.739-2.13-1.108-3.754-1.108h-1.31v10.046h1.26c1.624 0 2.884-.434 3.779-1.303.895-.868 1.342-2.242 1.342-4.127zM161 102h-9.025c-1.558-2.436-2.853-4.375-3.885-5.818-1.032-1.443-2.315-3.112-3.85-5.006h-.91v7.288c0 .405.076.75.225 1.033.15.281.434.518.854.71.209.09.538.183.985.278.449.096.832.161 1.153.196V102H134v-1.32c.32-.034.743-.08 1.268-.144.524-.061.897-.138 1.118-.228.42-.18.702-.409.846-.685.143-.276.215-.628.215-1.057v-16.93c0-.405-.06-.743-.182-1.014-.122-.27-.415-.507-.879-.71a6.993 6.993 0 00-1.25-.372c-.482-.102-.86-.175-1.136-.22V78h13.193c2.95 0 5.191.472 6.722 1.413 1.53.941 2.295 2.365 2.295 4.27 0 1.681-.472 3.03-1.418 4.05-.943 1.022-2.384 1.82-4.317 2.394.75.992 1.627 2.142 2.627 3.45 1 1.307 2.04 2.645 3.124 4.008.342.439.81.979 1.401 1.616.592.636 1.113 1.027 1.566 1.175.254.079.577.146.97.203.39.056.671.09.837.102V102z" id="Stroke-17" stroke="#F16522" stroke-width="2"/><path d="M178.111 97.253c.488-1.015.84-2.163 1.057-3.447.217-1.281.326-2.73.326-4.347 0-1.371-.096-2.707-.286-4.006-.189-1.299-.511-2.457-.967-3.472-.466-1.014-1.084-1.827-1.854-2.441-.77-.614-1.73-.92-2.879-.92-1.963 0-3.454.956-4.473 2.868-1.02 1.913-1.529 4.614-1.529 8.105 0 1.482.111 2.882.335 4.198.221 1.314.57 2.464 1.048 3.444.488.994 1.106 1.765 1.854 2.317.748.552 1.67.828 2.765.828 1.073 0 1.995-.278 2.765-.837.77-.556 1.383-1.32 1.838-2.29zm4.18-16.964c1.14 1.069 2.042 2.361 2.708 3.874.668 1.515 1.001 3.24 1.001 5.178 0 1.727-.282 3.368-.846 4.927-.565 1.558-1.378 2.9-2.44 4.024a11.927 11.927 0 01-3.936 2.731c-1.507.652-3.301.977-5.383.977a13.34 13.34 0 01-4.767-.851 11.73 11.73 0 01-3.952-2.472c-1.128-1.058-2.022-2.344-2.684-3.859-.662-1.512-.992-3.2-.992-5.058 0-1.938.322-3.694.967-5.27.646-1.576 1.532-2.926 2.66-4.05 1.117-1.102 2.442-1.95 3.977-2.547 1.534-.595 3.168-.893 4.904-.893 1.725 0 3.343.289 4.855.868 1.514.58 2.823 1.385 3.929 2.421z" id="Stroke-19" stroke="#F16522" stroke-width="2"/><path d="M215 79.338a5.03 5.03 0 00-1.021.2c-.324.101-.66.258-1.005.469-.465.279-.824.577-1.077.895-.254.318-.505.756-.754 1.312-.335.77-.805 1.893-1.41 3.37-.606 1.478-1.297 3.159-2.075 5.044a776.638 776.638 0 00-2.243 5.567c-.807 2.02-1.576 3.953-2.311 5.805h-3.257c-1.513-3.825-3.052-7.71-4.62-11.657-1.565-3.947-2.667-6.69-3.306-8.229-.248-.557-.489-.978-.721-1.262-.232-.284-.602-.577-1.11-.879a4.788 4.788 0 00-.972-.443 8.062 8.062 0 00-1.118-.225V78h12.462v1.271c-1.165.145-1.956.299-2.372.46-.416.162-.624.366-.624.61 0 .124.02.254.057.394.038.14.095.326.17.56.346.98.972 2.582 1.879 4.803a797.885 797.885 0 014.035 10.167 571.207 571.207 0 002.721-7.033c.724-1.916 1.361-3.608 1.912-5.079.271-.712.495-1.378.673-1.997.178-.618.267-1.083.267-1.396 0-.356-.248-.655-.745-.895-.496-.24-1.416-.415-2.754-.527V78H215v1.338z" id="Stroke-21" stroke="#F16522" stroke-width="2"/><path d="M236.306 84.123h-1.287c-.327-.91-.892-1.831-1.693-2.763-.802-.932-1.598-1.484-2.389-1.652-.338-.078-.81-.126-1.414-.143a57.478 57.478 0 00-1.498-.025h-3.49v9.25h2.474a6.1 6.1 0 001.693-.219c.508-.146.97-.429 1.389-.845.259-.26.522-.716.787-1.371.264-.652.438-1.223.517-1.707h1.287V94.66h-1.287c-.068-.474-.24-1.069-.517-1.785s-.54-1.21-.787-1.48a2.896 2.896 0 00-1.322-.837c-.508-.152-1.095-.227-1.76-.227h-2.473v6.916c0 .722.054 1.293.16 1.716.108.423.308.748.602.973.281.214.668.355 1.16.423.49.067 1.16.1 2.006.1.395 0 .87-.004 1.424-.016a13.11 13.11 0 001.456-.1 9.14 9.14 0 001.329-.255c.413-.111.72-.276.924-.49.542-.553 1.152-1.396 1.83-2.529.676-1.132 1.121-1.981 1.337-2.544H238l-.457 7.475H215v-1.32a27.49 27.49 0 001.287-.135c.542-.067.926-.146 1.152-.236.43-.181.716-.41.864-.686.146-.276.22-.627.22-1.057V81.638c0-.407-.063-.743-.186-1.008-.124-.265-.423-.504-.898-.718-.294-.135-.707-.26-1.236-.372a15.583 15.583 0 00-1.203-.22V78h21.306v6.123z" id="Stroke-23" stroke="#F16522" stroke-width="2"/><path d="M249.588 102c-1.384 0-2.677-.181-3.874-.542-1.2-.361-2.214-.788-3.045-1.278l-1.103 1.17h-1.358L240 92.781h1.375a22.64 22.64 0 001.182 2.578 12.526 12.526 0 001.662 2.428 8.69 8.69 0 002.18 1.824c.805.469 1.745.703 2.821.703 1.449 0 2.56-.371 3.333-1.112.772-.741 1.158-1.673 1.158-2.8 0-.925-.328-1.701-.983-2.332-.655-.629-1.67-1.173-3.044-1.632-.895-.301-1.719-.58-2.469-.838a40.233 40.233 0 01-2.117-.788c-1.524-.636-2.656-1.543-3.396-2.726-.74-1.181-1.111-2.502-1.111-3.963 0-.925.193-1.814.576-2.667a7.068 7.068 0 011.677-2.3c.704-.635 1.604-1.152 2.701-1.554 1.097-.4 2.291-.602 3.58-.602 1.256 0 2.434.183 3.532.55 1.096.368 1.96.736 2.588 1.103l.975-1.002h1.39l.128 8.083h-1.374a32.29 32.29 0 00-1.127-2.67c-.432-.91-.887-1.665-1.366-2.268a6.273 6.273 0 00-1.806-1.548c-.682-.385-1.48-.577-2.397-.577-1.15 0-2.09.339-2.821 1.019-.729.681-1.094 1.523-1.094 2.527 0 .946.317 1.723.951 2.325.634.602 1.621 1.131 2.964 1.59.788.278 1.592.556 2.413.835.82.278 1.55.547 2.189.803 1.545.624 2.72 1.485 3.524 2.583.804 1.099 1.206 2.462 1.206 4.088 0 1.026-.23 2.018-.687 2.977a6.846 6.846 0 01-1.853 2.391 9.286 9.286 0 01-2.957 1.624c-1.119.379-2.423.567-3.915.567z" id="Stroke-25" stroke="#F16522" stroke-width="2"/><path d="M43.979 25.288c5.453-.485 11.066.642 16.68.479 2.087.484 4.972.163 6.096 2.25.48.323 1.282.323 1.765 0 .8-1.123 1.444-1.607 2.885-1.766 1.444 0 3.37-.321 4.01 1.287-.64 1.767-1.122 3.534-.479 5.464 1.602 5.145 3.048 10.45 2.725 15.915.323 3.858 1.123 7.395 1.765 11.09-.321 6.271-1.765 12.218-1.124 18.647.803-.161 2.087-.161 2.408.804.8 3.216-.964 6.751.96 9.644.483 4.503.483 9.486-.319 13.665-1.285 1.608-3.53 2.25-5.455 1.93-.641-1.447 1.285-1.93.964-3.376-.161-1.124-.322-2.412-1.444-2.894-.964 0-1.603 1.124-2.245 1.608-3.53 1.124-7.217 2.41-10.266 4.663-5.294 2.088-10.746 3.695-16.039 5.302l-.16-.158-.322.158c-1.443-5.786-8.5-5.786-13.634-6.27-1.281.324-2.083 1.933-3.366 2.574-6.898-1.446-13.954.163-20.693.322-1.282.16-2.083-.803-2.884-1.447-1.767-.163-3.37-.163-4.652-1.285-.483-3.697.319-7.397.319-11.092.802-.325 1.927 1.447 2.245.32-.643-5.143.321-9.965 1.285-14.629-1.125-3.214-1.125-7.716.64-10.766.163-1.128-1.282-1.29-1.604-2.414-1.121-10.769-.16-21.861-1.764-32.311l.322-4.34c-.802-.963-1.124-2.092-1.284-3.053l11.388-.806-.16.162c0 .161 5.453.802 5.132-.32.802.158 1.283.801 1.925 1.285.641-.484.962-1.609 1.923-1.93 7.54.321 14.758 3.055 22.457 1.288" id="Fill-27" fill="#F9B019"/><path d="M37.013 61.371c.939.979 1.881 1.95 2.35 3.259 1.412-1.63 3.763-2.121 5.8-1.468 1.253.654 2.664 1.631 3.136 3.098-.472-1.308-2.039-2.444-3.295-2.938-1.723-.487-4.074-.322-5.169 1.308.154.322-.157.816.31.977 1.256-.977 3.764-1.63 5.332-.492 0 .165-.628 0-.628.492.155.815.94.974 1.567 1.302 0 .816-1.879-.328-1.412.981.473.483 1.1.65 1.727.65-.315.487-1.727.487-2.51.487-.312.492.316.977.783 1.142h.943c-.47.814-2.821-.165-2.35 1.302l.469.162c-.629.166 0 1.31.315 1.794 1.096.166 2.035-.98 3.29-.813 1.25.166 2.352.979 3.448 1.957-.157 1.467-2.038 1.95-2.665 2.93.94.651 2.197.168 2.979-.486-.47.654-1.41.975-2.194 1.301-.629.33-2.196-.487-2.196.98 1.256.164 2.508.979 3.762.164-1.41.651-2.665 1.137-4.233.487-.94.164-1.88-1.957-2.506-.487.783 1.467 2.194 2.444 3.76 2.444 2.352.16 4.392-1.472 5.174-3.588-.782 2.611-2.977 3.91-4.7 6.032-1.1.653-2.668.815-3.92.488-2.194-.488-3.605-2.279-4.076-4.404-2.352.495-4.702 0-6.425-1.787-.94-.976-1.097-2.285-1.412-3.588-.784 1.797-2.82 3.426-5.014 3.26.311.487 1.411 1.143 2.039 1.465-4.39-2.28-8.463-6.355-11.755-10.101-.316-1.308.467-3.26-.943-3.916-.94.657-.624 1.96-.784 2.939 0-.493-.156-2.444.784-2.939.315 0 .627.164.783.495l.315 3.421c1.412 2.118 2.82 3.261 4.388 4.728-.157-.494-.157-1.31-.469-1.963 0-.32.156-.482.156-.813-.156 1.147-.156 2.444 1.095 2.776 1.1-.166.317-1.467.629-2.282-.468-.494 0-.816 0-1.31 1.098-1.298 2.666-2.278 4.39-1.79 1.567.326 1.878 3.42 3.76 1.469.626-.656-.314-.977-.469-1.47-.784-.815-1.724-1.952-2.98-1.952h.472c-.156-.814-.156-1.96.311-2.775 0 .816-.783 1.797-.156 2.444 1.256 0 .94-1.463 1.412-2.279.628-.648.941-2.114 2.195-1.795.469-.16.313-.815.156-.976-.472-.652-1.255-.16-1.723.161-.628.655-1.411 1.308-1.727 2.283 0-.815 1.566-2.117 2.35-2.766 1.413-.495 3.764-.495 5.33 0" id="Fill-29" fill="#F06724"/><path d="M9.537 2.52l.463.83c-.77-.333-2.308-.997-1.848-.663-.615-.334-.768.33-1.075.497 0 0 .847.84.154 1.33-.693.488-1.077.165-1.386.665l.309.833c-.77.165-1.539-.833-2 0 0 .664.461 1.161.921 1.494-.77.334-1.538 1.995-.77 2.494-1.69-.499-2.46-2.326-3.382-3.823C.46 4.845 0 3.518 0 4.181.613 2.02 2.462.193 4.615.025c1.999-.167 3.847.5 4.922 2.495" id="Fill-31" fill="#F06724"/><path d="M17.47 26.44c.798 2.012 1.365 5.504 3.228 9.4-.687 1.44 2.412 2.721.863 4-.69-.159-.69-1.279-1.55-.96-.52.32-.349.801-.52 1.12-1.551-2.4-3.787-4.478-3.615-7.68-.345-2.882-.809-7.358-1.205-7.73-.4-.37.37-.88-.109-1.325-.48-.444-1.146-5.72.404-7l.738-.265c-.346 3.68 1.074 6.76 1.766 10.44" id="Fill-33" fill="#F9B019"/><path d="M50.875 75.096c.292.255 0 .649-.146.777-.29.127-.583.127-.729.127.146-.387.146-1.296.875-.904" id="Fill-35" fill="#231F20"/><path d="M50.875 75.096c.292.255 0 .649-.146.777-.29.127-.583.127-.729.127.146-.387.146-1.296.875-.904z" id="Stroke-37" stroke="#231F20" stroke-width=".073" stroke-linecap="square"/><path d="M35.95 48.115c.127.354 0 .706-.256.883-.767 0-.767-1.232-1.406-1.232.51.703.385 2.114 1.278 2.114.128.708-.127 1.588-.51 2.12-.511-.177-1.15-.532-1.277-1.236.509-1.766-1.278-3.177-.64-4.764 1.022.527 2.045.704 2.811 2.115" id="Fill-39" fill="#231F20"/><path d="M35.95 48.115c.127.354 0 .706-.256.883-.767 0-.767-1.232-1.406-1.232.51.703.385 2.114 1.278 2.114.128.708-.127 1.588-.51 2.12-.511-.177-1.15-.532-1.277-1.236.509-1.766-1.278-3.177-.64-4.764 1.022.527 2.045.704 2.811 2.115z" id="Stroke-41" stroke="#231F20" stroke-width=".073" stroke-linecap="square"/><path d="M10.971 4.945c.161 2.099-.321 4.358-2.26 5.487-2.256.807-5.323.97-7.097-.968C.16 8.498 0 6.56 0 4.622c0-.647.322-1.452.806-1.935.323-.162.483 0 .483.322-.16 1.291-.807 2.744 0 3.873.808 1.13 1.774 2.743 3.388 2.906-.807-.644-2.095-1.453-2.095-2.422.806-.322 1.774.163 2.902 0-.321-.322-1.29-.806-.968-1.613.807-.485 1.132.483 1.939.162-1.292-1.778 2.42-.486 1.13-2.42-.163-.325.32-.486.482-.808h.484c0-.324-1.129-.324-.806-.969 0-.646.806-.97 1.13-.485.643 1.292 2.096 2.098 2.096 3.712" id="Fill-43" fill="#231F20"/><path d="M10.971 4.945c.161 2.099-.321 4.358-2.26 5.487-2.256.807-5.323.97-7.097-.968C.16 8.498 0 6.56 0 4.622c0-.647.322-1.452.806-1.935.323-.162.483 0 .483.322-.16 1.291-.807 2.744 0 3.873.808 1.13 1.774 2.743 3.388 2.906-.807-.644-2.095-1.453-2.095-2.422.806-.322 1.774.163 2.902 0-.321-.322-1.29-.806-.968-1.613.807-.485 1.132.483 1.939.162-1.292-1.778 2.42-.486 1.13-2.42-.163-.325.32-.486.482-.808h.484c0-.324-1.129-.324-.806-.969 0-.646.806-.97 1.13-.485.643 1.292 2.096 2.098 2.096 3.712z" id="Stroke-45" stroke="#231F20" stroke-width=".073" stroke-linecap="square"/><path d="M12.22 10.583c.327 2.246-.975 4.818 1.137 6.261.486-.643.324-1.606 1.136-1.93l.487.645c-.326 2.729-2.11 4.977-.487 7.708 0 .322.487.16.65.322-.812 3.368-.327 7.222 0 10.754.81 2.09 2.107 4.015 3.407 6.103.652-.322.324-1.285.975-1.285l1.3.963c1.784-1.604-1.623-2.73-.812-4.494-1.95-4.658-4.708-8.83-4.385-14.29-.812-1.927-.163-4.818-.485-6.906-.163.323-.327.16-.65.16-.162-.641-.65-1.444 0-2.087.65 0 1.135.803 1.3 1.286.322 4.175.16 8.507 1.624 12.204 1.945 5.298 4.542 10.436 8.279 15.094 3.245 2.246 3.73 6.582 7.304 8.667 0 .323-.162.482-.326.482-2.27-.804-4.059-2.567-6.495-2.89-2.27-1.766-4.382-3.531-5.843-5.94l-.161 1.927c2.11 4.014 3.246 8.51 6.817 11.72.488 2.087 1.788 3.851 1.623 5.943-1.135-.163-1.298-1.606-1.623-2.572-.162-1.284-1.135-2.085-2.109-2.568-3.735-4.495-9.418-8.51-9.578-14.61-.325-2.57-2.112-4.336-2.274-6.907-.651-3.532 1.3-8.507-1.623-11.076C9.134 21.178 8.973 18.288 8 15.718c0-1.604 1.46-2.086 1.46-3.692l.812.322c.486-.322-.325-1.606.811-1.446-.487-.962.973-1.284 1.136-.32" id="Fill-47" fill="#231F20"/><path d="M12.22 10.583c.327 2.246-.975 4.818 1.137 6.261.486-.643.324-1.606 1.136-1.93l.487.645c-.326 2.729-2.11 4.977-.487 7.708 0 .322.487.16.65.322-.812 3.368-.327 7.222 0 10.754.81 2.09 2.107 4.015 3.407 6.103.652-.322.324-1.285.975-1.285l1.3.963c1.784-1.604-1.623-2.73-.812-4.494-1.95-4.658-4.708-8.83-4.385-14.29-.812-1.927-.163-4.818-.485-6.906-.163.323-.327.16-.65.16-.162-.641-.65-1.444 0-2.087.65 0 1.135.803 1.3 1.286.322 4.175.16 8.507 1.624 12.204 1.945 5.298 4.542 10.436 8.279 15.094 3.245 2.246 3.73 6.582 7.304 8.667 0 .323-.162.482-.326.482-2.27-.804-4.059-2.567-6.495-2.89-2.27-1.766-4.382-3.531-5.843-5.94l-.161 1.927c2.11 4.014 3.246 8.51 6.817 11.72.488 2.087 1.788 3.851 1.623 5.943-1.135-.163-1.298-1.606-1.623-2.572-.162-1.284-1.135-2.085-2.109-2.568-3.735-4.495-9.418-8.51-9.578-14.61-.325-2.57-2.112-4.336-2.274-6.907-.651-3.532 1.3-8.507-1.623-11.076C9.134 21.178 8.973 18.288 8 15.718c0-1.604 1.46-2.086 1.46-3.692l.812.322c.486-.322-.325-1.606.811-1.446-.487-.962.973-1.284 1.136-.32z" id="Stroke-49" stroke="#231F20" stroke-width=".073" stroke-linecap="square"/><path d="M38.071 27.28a82.534 82.534 0 018.385-.428c4.997 1.282 10.966-.285 15.965.996.967.144 1.772-1.136 2.579-.143 0 .855-1.293.71-2.259.71-.647-.71-2.093.571-2.419-.71-5.158.429-10.802.855-15.964.143-2.9.568-6.125.428-9.188.854-.808-.71-1.935-.854-2.905-.854-.32.286.324 1.28-.482 1.138-1.452-.284-3.064-.284-4.355-.71-1.127 0-2.095.852-2.9.284-.646-.997-3.065-1.28-2.42-2.56 5.32.712 10.481.712 15.963 1.28" id="Fill-51" fill="#231F20"/><path d="M38.071 27.28a82.534 82.534 0 018.385-.428c4.997 1.282 10.966-.285 15.965.996.967.144 1.772-1.136 2.579-.143 0 .855-1.293.71-2.259.71-.647-.71-2.093.571-2.419-.71-5.158.429-10.802.855-15.964.143-2.9.568-6.125.428-9.188.854-.808-.71-1.935-.854-2.905-.854-.32.286.324 1.28-.482 1.138-1.452-.284-3.064-.284-4.355-.71-1.127 0-2.095.852-2.9.284-.646-.997-3.065-1.28-2.42-2.56 5.32.712 10.481.712 15.963 1.28z" id="Stroke-53" stroke="#231F20" stroke-width=".073" stroke-linecap="square"/><path d="M10.707 26.155c.158.316.474.633.158.949-.788.475-2.207.317-2.678 1.42L4.248 29c-.945-1.109-2.521-1.579-2.207-3 2.677.471 5.828-.16 8.666.155" id="Fill-55" fill="#231F20"/><path d="M10.707 26.155c.158.316.474.633.158.949-.788.475-2.207.317-2.678 1.42L4.248 29c-.945-1.109-2.521-1.579-2.207-3 2.677.471 5.828-.16 8.666.155z" id="Stroke-57" stroke="#231F20" stroke-width=".073" stroke-linecap="square"/><path d="M74 27.333c-.124 1.333-1.129 1.169-1.758 1.667-.254-.832-1.636 0-1.132-1.333.754-.5 1.761-.667 2.64-.667l.25.333z" id="Fill-59" fill="#231F20"/><path d="M74 27.333c-.124 1.333-1.129 1.169-1.758 1.667-.254-.832-1.636 0-1.132-1.333.754-.5 1.761-.667 2.64-.667l.25.333z" id="Stroke-61" stroke="#231F20" stroke-width=".073" stroke-linecap="square"/><path d="M73.273 32.453c.343 3.228 2.768 6.291 1.21 9.517.519 7.423-2.596 14.195-1.73 22.103a60.87 60.87 0 010 7.906c-.866.16-.695-.648-1.037-.971-.35-3.063-.35-6.289-.695-9.354-2.075-1.132-.345-3.07-.345-4.682.69-1.45.69-3.385 2.076-4.515.864-5.16 1.73-11.615-.694-16.293-.516-1.613-1.209-3.387-1.037-5.001 1.386-.485 2.076.161 2.252 1.29" id="Fill-63" fill="#231F20"/><path d="M73.273 32.453c.343 3.228 2.768 6.291 1.21 9.517.519 7.423-2.596 14.195-1.73 22.103a60.87 60.87 0 010 7.906c-.866.16-.695-.648-1.037-.971-.35-3.063-.35-6.289-.695-9.354-2.075-1.132-.345-3.07-.345-4.682.69-1.45.69-3.385 2.076-4.515.864-5.16 1.73-11.615-.694-16.293-.516-1.613-1.209-3.387-1.037-5.001 1.386-.485 2.076.161 2.252 1.29z" id="Stroke-65" stroke="#231F20" stroke-width=".073" stroke-linecap="square"/><path d="M5.915 38.754c1.39 2.689.173 6.33 1.91 9.019-2.258 3.322 0 6.96 0 10.44L8 64.543c-.52.63-.348 1.42 0 2.054-.694.32-1.564.637-2.085.159-.173-.47.521-.63.695-.95-.346-.945-1.39.157-1.564-.79-.697-7.75-1.216-15.82-1.216-23.886-.172-3.325-1.389-6.807-.521-10.13 4.516.316 1.563 5.222 2.606 7.754" id="Fill-67" fill="#231F20"/><path d="M5.915 38.754c1.39 2.689.173 6.33 1.91 9.019-2.258 3.322 0 6.96 0 10.44L8 64.543c-.52.63-.348 1.42 0 2.054-.694.32-1.564.637-2.085.159-.173-.47.521-.63.695-.95-.346-.945-1.39.157-1.564-.79-.697-7.75-1.216-15.82-1.216-23.886-.172-3.325-1.389-6.807-.521-10.13 4.516.316 1.563 5.222 2.606 7.754z" id="Stroke-69" stroke="#231F20" stroke-width=".073" stroke-linecap="square"/><path d="M50.25 32.912c1.2.521 2.102 1.392 3.15 2.262v.349l-1.351.173c.601.87 1.951.87 1.951 1.915-1.5.345-3-1.395-4.35-.175a.835.835 0 00-.9 0c.15.52 1.05 1.044.6 1.564-2.551-.349-4.651-1.739-7.05-2.087-.45-.173-.3-.87-.15-1.39 1.35-2.261 3.899-2.61 5.7-4.523.9.349 1.347 1.566 2.4 1.912" id="Fill-71" fill="#231F20"/><path d="M50.25 32.912c1.2.521 2.102 1.392 3.15 2.262v.349l-1.351.173c.601.87 1.951.87 1.951 1.915-1.5.345-3-1.395-4.35-.175a.835.835 0 00-.9 0c.15.52 1.05 1.044.6 1.564-2.551-.349-4.651-1.739-7.05-2.087-.45-.173-.3-.87-.15-1.39 1.35-2.261 3.899-2.61 5.7-4.523.9.349 1.347 1.566 2.4 1.912z" id="Stroke-73" stroke="#231F20" stroke-width=".073" stroke-linecap="square"/><path d="M43.065 36.324c3.713 2.701 7.753 3.975 11.63 6.04 2.582.159 3.23 3.178 5.814 3.178 2.1 1.749 4.038 4.611 5.491 6.995-.16 1.113-1.453 1.113-2.096 1.431-.972.159-2.102-.318-3.071-.477.485-1.43 4.522 0 2.906-2.703-2.583-3.656-7.59-3.814-10.983-6.359-4.523-1.273-8.563-3.815-13.084-4.768-.971-.319-1.616.16-2.101.953 0 1.273 1.13 2.067 1.455 3.338-.16.32-.646.16-.97 0l-5.977-6.517c-.16-.796-.16-2.067.807-2.385 3.392-.316 6.786.954 10.179 1.274" id="Fill-75" fill="#231F20"/><path d="M43.065 36.324c3.713 2.701 7.753 3.975 11.63 6.04 2.582.159 3.23 3.178 5.814 3.178 2.1 1.749 4.038 4.611 5.491 6.995-.16 1.113-1.453 1.113-2.096 1.431-.972.159-2.102-.318-3.071-.477.485-1.43 4.522 0 2.906-2.703-2.583-3.656-7.59-3.814-10.983-6.359-4.523-1.273-8.563-3.815-13.084-4.768-.971-.319-1.616.16-2.101.953 0 1.273 1.13 2.067 1.455 3.338-.16.32-.646.16-.97 0l-5.977-6.517c-.16-.796-.16-2.067.807-2.385 3.392-.316 6.786.954 10.179 1.274z" id="Stroke-77" stroke="#231F20" stroke-width=".073" stroke-linecap="square"/><path d="M49.159 45.535c.164.153.164.46-.17.615-1.164.613-2.993.613-4.326.306-.498.153-.834.462-1 .92 2.83.462 5.66.615 8.324 1.228.167.307.332.617 0 .77-1.997 1.227-4.327-.77-6.328.614-.331 0-.662-.156-.831.306v.153c2.832.615 5.994-.306 8.657.768.5.154 1.165-.153 1.499.307.166.92-1 .46-1.499.768-3.163-.154-5.16 1.994-8.157 2.15-.331.303-.832.767-1.163.458-2.833-2.917-2.833-6.754-3.165-10.437l.167-.461c2.662.46 5.159 1.074 7.992 1.535" id="Fill-79" fill="#231F20"/><path d="M49.159 45.535c.164.153.164.46-.17.615-1.164.613-2.993.613-4.326.306-.498.153-.834.462-1 .92 2.83.462 5.66.615 8.324 1.228.167.307.332.617 0 .77-1.997 1.227-4.327-.77-6.328.614-.331 0-.662-.156-.831.306v.153c2.832.615 5.994-.306 8.657.768.5.154 1.165-.153 1.499.307.166.92-1 .46-1.499.768-3.163-.154-5.16 1.994-8.157 2.15-.331.303-.832.767-1.163.458-2.833-2.917-2.833-6.754-3.165-10.437l.167-.461c2.662.46 5.159 1.074 7.992 1.535z" id="Stroke-81" stroke="#231F20" stroke-width=".073" stroke-linecap="square"/><path d="M76.056 45.042c-.302 5.198 1.046 9.746 1.944 14.62-.748 4.222-.596 8.603-1.196 12.996-.748 4.38 1.196 8.12.748 12.342-.45-.812-1.645-1.139-1.945-2.116.147-2.756-.15-5.034-.15-7.629 1.198-6.66 1.347-14.298 0-20.956-.75-3.248-.45-6.983 0-10.234.599-.324.45.651.599.977" id="Fill-83" fill="#231F20"/><path d="M76.056 45.042c-.302 5.198 1.046 9.746 1.944 14.62-.748 4.222-.596 8.603-1.196 12.996-.748 4.38 1.196 8.12.748 12.342-.45-.812-1.645-1.139-1.945-2.116.147-2.756-.15-5.034-.15-7.629 1.198-6.66 1.347-14.298 0-20.956-.75-3.248-.45-6.983 0-10.234.599-.324.45.651.599.977z" id="Stroke-85" stroke="#231F20" stroke-width=".073" stroke-linecap="square"/><path d="M29.56 54.461c1.192.844 3.75.844 3.409 2.868l-.343.671c-.852-.167-1.361-.844-2.387-1.009-1.194-1.18-2.56-2.362-3.239-3.71.854-1.01 1.532 1.012 2.56 1.18" id="Fill-87" fill="#231F20"/><path d="M29.56 54.461c1.192.844 3.75.844 3.409 2.868l-.343.671c-.852-.167-1.361-.844-2.387-1.009-1.194-1.18-2.56-2.362-3.239-3.71.854-1.01 1.532 1.012 2.56 1.18z" id="Stroke-89" stroke="#231F20" stroke-width=".073" stroke-linecap="square"/><path d="M64.542 61.225c1.897 1.422.632 4.592 3.791 4.433.475.949 0 1.902.313 2.856.793 5.063 3.161 9.341 5.057 13.932-.317 3.49 1.58 6.177 1.26 9.503-1.102.321-.946-.949-1.26-1.584-.474-6.175-3.317-11.399-6.004-16.63-1.102 0-1.102-1.262-1.42-2.054-.47-4.282-4.263-7.92-8.368-9.19.633-1.105-2.054-1.266-.316-1.897 2.054.471 3.631 2.053 5.525 2.214-2.05-2.537-3.787-4.116-5.841-6.336V56c2.683 1.265 5.052 3.009 7.263 5.225" id="Fill-91" fill="#231F20"/><path d="M64.542 61.225c1.897 1.422.632 4.592 3.791 4.433.475.949 0 1.902.313 2.856.793 5.063 3.161 9.341 5.057 13.932-.317 3.49 1.58 6.177 1.26 9.503-1.102.321-.946-.949-1.26-1.584-.474-6.175-3.317-11.399-6.004-16.63-1.102 0-1.102-1.262-1.42-2.054-.47-4.282-4.263-7.92-8.368-9.19.633-1.105-2.054-1.266-.316-1.897 2.054.471 3.631 2.053 5.525 2.214-2.05-2.537-3.787-4.116-5.841-6.336V56c2.683 1.265 5.052 3.009 7.263 5.225z" id="Stroke-93" stroke="#231F20" stroke-width=".073" stroke-linecap="square"/><path d="M39.026 63.508c1.069 1.599.916 3.996.155 5.431-.762 0-1.525 0-1.982.484 1.372 0 3.35-.799 4.419.479 1.827 1.598 2.895 3.833 2.134 6.23-.46 2.083-2.44 3.682-4.269 3.837-1.522.161-2.894-.315-3.96-1.276-.761-.8-1.523-1.92-1.523-3.034 1.372.636 2.133 2.712 3.809 2.872-.307-.8-2.745-1.6-1.83-2.872 1.22.473 1.982 1.757 3.202 1.757-.307-.8-1.679-.8-1.679-1.92 1.372-.162 2.593.48 3.965.799-.308-.636-1.831-.636-1.68-1.76.917.162 1.68.484 2.593.162-.308 0-.762-.162-.913-.478.303-.484 1.064-.321 1.368-.959-1.217-1.124-2.286-3.358-4.572-2.56-1.216.164-2.588 1.122-3.199 2.236-.453-.16-.913-.473-.609-.958.307-1.114 2.287-1.6 1.678-2.555.609-1.597 2.59-3.04 1.523-4.953-.914-1.124-2.132-2.238-3.505-2.723-.151-.158 0-.636.304-.636 1.983-.477 3.657.636 4.57 2.397" id="Fill-95" fill="#231F20"/><path d="M39.026 63.508c1.069 1.599.916 3.996.155 5.431-.762 0-1.525 0-1.982.484 1.372 0 3.35-.799 4.419.479 1.827 1.598 2.895 3.833 2.134 6.23-.46 2.083-2.44 3.682-4.269 3.837-1.522.161-2.894-.315-3.96-1.276-.761-.8-1.523-1.92-1.523-3.034 1.372.636 2.133 2.712 3.809 2.872-.307-.8-2.745-1.6-1.83-2.872 1.22.473 1.982 1.757 3.202 1.757-.307-.8-1.679-.8-1.679-1.92 1.372-.162 2.593.48 3.965.799-.308-.636-1.831-.636-1.68-1.76.917.162 1.68.484 2.593.162-.308 0-.762-.162-.913-.478.303-.484 1.064-.321 1.368-.959-1.217-1.124-2.286-3.358-4.572-2.56-1.216.164-2.588 1.122-3.199 2.236-.453-.16-.913-.473-.609-.958.307-1.114 2.287-1.6 1.678-2.555.609-1.597 2.59-3.04 1.523-4.953-.914-1.124-2.132-2.238-3.505-2.723-.151-.158 0-.636.304-.636 1.983-.477 3.657.636 4.57 2.397z" id="Stroke-97" stroke="#231F20" stroke-width=".073" stroke-linecap="square"/><path d="M32.93 61.57c.397.938-1 .563-1.402.748-1.595 1.317-1.794 3.19-2.996 4.682-1.197-.37 0-1.873 0-2.81.8-1.492 2.202-3.365 4.198-3.177l.2.558z" id="Fill-99" fill="#231F20"/><path d="M32.93 61.57c.397.938-1 .563-1.402.748-1.595 1.317-1.794 3.19-2.996 4.682-1.197-.37 0-1.873 0-2.81.8-1.492 2.202-3.365 4.198-3.177l.2.558z" id="Stroke-101" stroke="#231F20" stroke-width=".073" stroke-linecap="square"/><path d="M27.774 64.622c.324.247.324.627-.159.752-.48-.125-.643.375-1.12.626-2.405-.878-5.608-.626-8.173-.379L18 65.374c2.726-1.38 6.732-1.88 9.774-.752" id="Fill-103" fill="#231F20"/><path d="M27.774 64.622c.324.247.324.627-.159.752-.48-.125-.643.375-1.12.626-2.405-.878-5.608-.626-8.173-.379L18 65.374c2.726-1.38 6.732-1.88 9.774-.752z" id="Stroke-105" stroke="#231F20" stroke-width=".073" stroke-linecap="square"/><path d="M49.257 66.472c.82 1.425 1.147 3.314.494 4.735 2.13.318 4.103 1.58 4.922 3.634.327 1.418.655 3.313-.33 4.413-1.31 2.056-3.446 3-5.742 2.688-1.311-.32-2.3-.95-3.119-1.899l.167-.789c1.64.632 3.608 1.899 5.413.95.494-.16.983-.16 1.477-.471-1.313.31-2.626.153-3.938-.16 0-1.574 1.803-.476 2.46-.948.657-.471 1.643-.626 2.135-1.261-.983.155-2.134 1.101-3.118.473.326-.95 1.478-.95 2.135-1.578.326-.318.491-.79.491-1.261-1.148-1.267-2.79-2.212-4.595-1.894-.82.16-1.475.788-2.297.788-.492-.319-.33-.95-.657-1.418l.494-.16c-.33-.318-.82-.318-.82-.95.82-.157 2.294-.157 2.46-.789-.655 0-1.477.16-1.807-.628v-.318c.82 0 2.136.318 2.791-.632-.655 0-1.64 0-1.971-.628v-.318c.657-.311 1.316.157 1.807-.471-.656-.318-1.475-.473-1.969-1.108.162-.31.162-.31.494-.47h.162c-.656-.63-2.134-.95-3.61-.79-.655.472-1.477.63-1.97 1.107-.656-.946.33-1.578.986-1.895 2.627-.95 5.578-.319 7.055 2.048" id="Fill-107" fill="#231F20"/><path d="M49.257 66.472c.82 1.425 1.147 3.314.494 4.735 2.13.318 4.103 1.58 4.922 3.634.327 1.418.655 3.313-.33 4.413-1.31 2.056-3.446 3-5.742 2.688-1.311-.32-2.3-.95-3.119-1.899l.167-.789c1.64.632 3.608 1.899 5.413.95.494-.16.983-.16 1.477-.471-1.313.31-2.626.153-3.938-.16 0-1.574 1.803-.476 2.46-.948.657-.471 1.643-.626 2.135-1.261-.983.155-2.134 1.101-3.118.473.326-.95 1.478-.95 2.135-1.578.326-.318.491-.79.491-1.261-1.148-1.267-2.79-2.212-4.595-1.894-.82.16-1.475.788-2.297.788-.492-.319-.33-.95-.657-1.418l.494-.16c-.33-.318-.82-.318-.82-.95.82-.157 2.294-.157 2.46-.789-.655 0-1.477.16-1.807-.628v-.318c.82 0 2.136.318 2.791-.632-.655 0-1.64 0-1.971-.628v-.318c.657-.311 1.316.157 1.807-.471-.656-.318-1.475-.473-1.969-1.108.162-.31.162-.31.494-.47h.162c-.656-.63-2.134-.95-3.61-.79-.655.472-1.477.63-1.97 1.107-.656-.946.33-1.578.986-1.895 2.627-.95 5.578-.319 7.055 2.048z" id="Stroke-109" stroke="#231F20" stroke-width=".073" stroke-linecap="square"/><path d="M17.815 70.243c7.36 9.14 18.079 13.053 28.479 16.154.642 1.145 3.36.16 2.56 2.29-1.918.972-3.838-.66-5.76-.331-2.078.815-3.36-1.144-4.96-1.466-4.48-2.125-8.801-4.732-13.12-7.343-3.04-2.94-5.28-6.042-8.482-8.652-.958-1.304-.48-3.422.32-4.895 1.122.98.799 2.778.963 4.243" id="Fill-111" fill="#231F20"/><path d="M17.815 70.243c7.36 9.14 18.079 13.053 28.479 16.154.642 1.145 3.36.16 2.56 2.29-1.918.972-3.838-.66-5.76-.331-2.078.815-3.36-1.144-4.96-1.466-4.48-2.125-8.801-4.732-13.12-7.343-3.04-2.94-5.28-6.042-8.482-8.652-.958-1.304-.48-3.422.32-4.895 1.122.98.799 2.778.963 4.243z" id="Stroke-113" stroke="#231F20" stroke-width=".073" stroke-linecap="square"/><path d="M32 70.635c0 .934-1.11.471-1.583 1.092-.954-.467-.954-1.87-2.218-2.024-1.743-.47-3.49.466-4.597 1.866-.477.937.477 2.494-.315 3.431-1.112-.317-1.112-1.095-1.27-2.028-.157-1.712.792-2.96 2.062-4.046 1.424-.935 3.326-1.093 5.068-.78 1.27.624 2.22 1.402 2.853 2.489" id="Fill-115" fill="#231F20"/><path d="M32 70.635c0 .934-1.11.471-1.583 1.092-.954-.467-.954-1.87-2.218-2.024-1.743-.47-3.49.466-4.597 1.866-.477.937.477 2.494-.315 3.431-1.112-.317-1.112-1.095-1.27-2.028-.157-1.712.792-2.96 2.062-4.046 1.424-.935 3.326-1.093 5.068-.78 1.27.624 2.22 1.402 2.853 2.489z" id="Stroke-117" stroke="#231F20" stroke-width=".073" stroke-linecap="square"/><path d="M6.864 77.17l.163 3.645c.16-.32.973-.32.973.16-.16 6.971-.65 14.265-.65 21.554l.49.636c-1.466 1.424-3.414.631-5.37.47-.972-3.009-.16-6.34 0-9.348.49 0 .815.316.98.63.324 2.378-.813 5.237.485 7.454.162.158.49 0 .814 0l.327-.48c-.49-5.066-.165-10.934.16-16.322 1.628-4.754-.65-9.67.164-14.738.324-.157.489-1.272.974-.637 2.116 2.065.328 4.6.49 6.976" id="Fill-119" fill="#231F20"/><path d="M6.864 77.17l.163 3.645c.16-.32.973-.32.973.16-.16 6.971-.65 14.265-.65 21.554l.49.636c-1.466 1.424-3.414.631-5.37.47-.972-3.009-.16-6.34 0-9.348.49 0 .815.316.98.63.324 2.378-.813 5.237.485 7.454.162.158.49 0 .814 0l.327-.48c-.49-5.066-.165-10.934.16-16.322 1.628-4.754-.65-9.67.164-14.738.324-.157.489-1.272.974-.637 2.116 2.065.328 4.6.49 6.976z" id="Stroke-121" stroke="#231F20" stroke-width=".073" stroke-linecap="square"/><path d="M25 72.106c-.137.33-.137.652-.412.872-.278.109-.413-.22-.552-.328-.136-.325.139-.544.412-.65.278 0 .415 0 .552.106" id="Fill-123" fill="#231F20"/><path d="M25 72.106c-.137.33-.137.652-.412.872-.278.109-.413-.22-.552-.328-.136-.325.139-.544.412-.65.278 0 .415 0 .552.106z" id="Stroke-125" stroke="#231F20" stroke-width=".073" stroke-linecap="square"/><path d="M16.834 74.173c.5 5.202 2.665 9.936 4.166 14.667 0 .16-.332.16-.5.16-2.165-4.573-3.999-9.464-4.5-14.675.167-.31.501-.47.834-.152" id="Fill-127" fill="#231F20"/><path d="M16.834 74.173c.5 5.202 2.665 9.936 4.166 14.667 0 .16-.332.16-.5.16-2.165-4.573-3.999-9.464-4.5-14.675.167-.31.501-.47.834-.152z" id="Stroke-129" stroke="#231F20" stroke-width=".073" stroke-linecap="square"/><path d="M17.808 73.474c.648 3.345.97 7 3.395 9.548 2.102 4.3 5.01 8.276 8.73 11.615-.322.954-.487 2.387-.648 3.501.648.959 2.104 1.753 1.617 2.862-1.938-1.43-3.073-3.495-4.85-4.928-1.13-2.072-3.718-3.823-3.234-6.209-.808-3.978-4.362-6.68-4.849-10.82L17 73.635l.487-.635.321.474z" id="Fill-131" fill="#231F20"/><path d="M17.808 73.474c.648 3.345.97 7 3.395 9.548 2.102 4.3 5.01 8.276 8.73 11.615-.322.954-.487 2.387-.648 3.501.648.959 2.104 1.753 1.617 2.862-1.938-1.43-3.073-3.495-4.85-4.928-1.13-2.072-3.718-3.823-3.234-6.209-.808-3.978-4.362-6.68-4.849-10.82L17 73.635l.487-.635.321.474z" id="Stroke-133" stroke="#231F20" stroke-width=".073" stroke-linecap="square"/><path d="M16.248 81.16c-.125 1.893 0 3.95.752 5.53 0 .157 0 .31-.128.31-.749-.471-.749-1.89-1.122-2.841-.252-2.84-1.377-5.368-1.75-8.215l.25-.944c1.125 1.735.875 4.42 1.998 6.16" id="Fill-135" fill="#231F20"/><path d="M16.248 81.16c-.125 1.893 0 3.95.752 5.53 0 .157 0 .31-.128.31-.749-.471-.749-1.89-1.122-2.841-.252-2.84-1.377-5.368-1.75-8.215l.25-.944c1.125 1.735.875 4.42 1.998 6.16z" id="Stroke-137" stroke="#231F20" stroke-width=".073" stroke-linecap="square"/><path d="M27.931 76.016c.175.323 0 .648-.349.968-.706-.161-1.408 0-1.582-.479.524-.33 1.403-.166 1.931-.489" id="Fill-139" fill="#231F20"/><path d="M27.931 76.016c.175.323 0 .648-.349.968-.706-.161-1.408 0-1.582-.479.524-.33 1.403-.166 1.931-.489z" id="Stroke-141" stroke="#231F20" stroke-width=".073" stroke-linecap="square"/><path d="M59.336 80.594c.55 1.064 1.102 3.014.138 4.08-.273.176-.548.526-.825.176C58.786 82.367 57 81.307 57 79c.961 0 1.649.707 2.336 1.594" id="Fill-143" fill="#231F20"/><path d="M59.336 80.594c.55 1.064 1.102 3.014.138 4.08-.273.176-.548.526-.825.176C58.786 82.367 57 81.307 57 79c.961 0 1.649.707 2.336 1.594z" id="Stroke-145" stroke="#231F20" stroke-width=".073" stroke-linecap="square"/><path d="M78.925 82.253c.403 2.097-.538 4.671.538 6.606.136 3.865.269 8.056.537 11.92-.268.643-1.345.97-1.075 1.937-.673.319-.943 1.284-1.751 1.284-.673-1.447.808-2.087 1.078-2.894.268-5.803-.539-11.277-.539-16.756.269-1.452.133-3.22.807-4.35.405.48-.268 1.61.405 2.253" id="Fill-147" fill="#231F20"/><path d="M78.925 82.253c.403 2.097-.538 4.671.538 6.606.136 3.865.269 8.056.537 11.92-.268.643-1.345.97-1.075 1.937-.673.319-.943 1.284-1.751 1.284-.673-1.447.808-2.087 1.078-2.894.268-5.803-.539-11.277-.539-16.756.269-1.452.133-3.22.807-4.35.405.48-.268 1.61.405 2.253z" id="Stroke-149" stroke="#231F20" stroke-width=".073" stroke-linecap="square"/><path d="M59 88.158c-.168 1.262-2.19 1.104-1.854 2.516-.505.625-1.178.159-1.686.159-1.854.31-3.372-.476-5.059-.786-.335-.319-.504-.785-.335-1.26 2.022-.312 4.046.155 6.07.475.505-.945 1.852-1.57 2.864-1.104" id="Fill-151" fill="#231F20"/><path d="M59 88.158c-.168 1.262-2.19 1.104-1.854 2.516-.505.625-1.178.159-1.686.159-1.854.31-3.372-.476-5.059-.786-.335-.319-.504-.785-.335-1.26 2.022-.312 4.046.155 6.07.475.505-.945 1.852-1.57 2.864-1.104z" id="Stroke-153" stroke="#231F20" stroke-width=".073" stroke-linecap="square"/><path d="M33.225 89.939l.158 1.234c2.7 1.686 5.24 3.688 8.26 4.61.477.152.637.77.32 1.073 1.268 1.385 2.698 2.92 3.97 4.155 0 .612.634 1.382 1.27 1.69 1.113.303 1.908-1.078 2.861-1.078 0 .31-.16.614 0 .77.475-1.079.316-2.308.952-3.232 1.272.77-.636 2.92 1.43 3.232 1.43-.46 2.858-.156 4.13-.46.316.149.316.767 0 .917-.317.31-.794.31-.953.77 2.383-1.071 5.56-1.383 7.944-2.765.953.31 1.904.46 2.856-.31 2.86-1.072 5.562-2.92 8.422-3.533.478.46-.316.613-.158.925-4.608 3.996-10.646 4.763-15.57 7.685-3.65.458-6.67 2.304-10.327 2.763l-.635.615c-1.11-.615-1.588-1.84-1.588-2.92 1.113-.458.794 1.383 1.908 1.08.951-1.08.951-2.461 1.43-3.844-1.589.457-3.338 1.226-5.244.77-2.86-.616-6.038-.313-8.579-1.693.318-1.693-1.587-1.228-2.54-1.847-.953-.77-1.274-1.998-1.588-2.921 1.745.767 3.492 1.692 5.4 1.536-2.224-1.84-5.88-2.305-6.354-5.683 1.589-.619 2.225 1.688 3.652 1.997 1.589.924 3.177 1.693 4.766 2.15v-.923l-6.989-5.07c-.475-.768-1.111-1.693-.635-2.616.795-.148.795.77 1.43.923" id="Fill-155" fill="#231F20"/><path d="M33.225 89.939l.158 1.234c2.7 1.686 5.24 3.688 8.26 4.61.477.152.637.77.32 1.073 1.268 1.385 2.698 2.92 3.97 4.155 0 .612.634 1.382 1.27 1.69 1.113.303 1.908-1.078 2.861-1.078 0 .31-.16.614 0 .77.475-1.079.316-2.308.952-3.232 1.272.77-.636 2.92 1.43 3.232 1.43-.46 2.858-.156 4.13-.46.316.149.316.767 0 .917-.317.31-.794.31-.953.77 2.383-1.071 5.56-1.383 7.944-2.765.953.31 1.904.46 2.856-.31 2.86-1.072 5.562-2.92 8.422-3.533.478.46-.316.613-.158.925-4.608 3.996-10.646 4.763-15.57 7.685-3.65.458-6.67 2.304-10.327 2.763l-.635.615c-1.11-.615-1.588-1.84-1.588-2.92 1.113-.458.794 1.383 1.908 1.08.951-1.08.951-2.461 1.43-3.844-1.589.457-3.338 1.226-5.244.77-2.86-.616-6.038-.313-8.579-1.693.318-1.693-1.587-1.228-2.54-1.847-.953-.77-1.274-1.998-1.588-2.921 1.745.767 3.492 1.692 5.4 1.536-2.224-1.84-5.88-2.305-6.354-5.683 1.589-.619 2.225 1.688 3.652 1.997 1.589.924 3.177 1.693 4.766 2.15v-.923l-6.989-5.07c-.475-.768-1.111-1.693-.635-2.616.795-.148.795.77 1.43.923z" id="Stroke-157" stroke="#231F20" stroke-width=".073" stroke-linecap="square"/><path d="M36 90.502c-.283.335-.567.498-.992.498-.286-.669-1.42-1.166-.85-2 .564.496 1.842.329 1.842 1.502" id="Fill-159" fill="#231F20"/><path d="M36 90.502c-.283.335-.567.498-.992.498-.286-.669-1.42-1.166-.85-2 .564.496 1.842.329 1.842 1.502z" id="Stroke-161" stroke="#231F20" stroke-width=".073" stroke-linecap="square"/><path d="M43.986 91.57c-.164.143.16.43-.164.43-.322-.145-.643-.43-.809-.569L43.18 91c.322 0 .807.29.807.57" id="Fill-163" fill="#231F20"/><path d="M43.986 91.57c-.164.143.16.43-.164.43-.322-.145-.643-.43-.809-.569L43.18 91c.322 0 .807.29.807.57z" id="Stroke-165" stroke="#231F20" stroke-width=".073" stroke-linecap="square"/><path d="M44 93.45L43.676 95c-1.949-.685-4.216-1.209-5.676-3.103 1.46.168 2.756 1.032 4.055 1.552.16-1.037-1.949-2.763-.163-3.449.813 1.033 1.458 2.237 2.108 3.45" id="Fill-167" fill="#231F20"/><path d="M44 93.45L43.676 95c-1.949-.685-4.216-1.209-5.676-3.103 1.46.168 2.756 1.032 4.055 1.552.16-1.037-1.949-2.763-.163-3.449.813 1.033 1.458 2.237 2.108 3.45z" id="Stroke-169" stroke="#231F20" stroke-width=".073" stroke-linecap="square"/><path d="M46.114 94.395c.963.995 2.5.595 2.886 2.194-1.154 1.392-2.117-1.199-3.271-1.199-.965-.792-1.537-2.196-1.729-3.39 1.345.199 1.154 1.8 2.114 2.395" id="Fill-171" fill="#231F20"/><path d="M46.114 94.395c.963.995 2.5.595 2.886 2.194-1.154 1.392-2.117-1.199-3.271-1.199-.965-.792-1.537-2.196-1.729-3.39 1.345.199 1.154 1.8 2.114 2.395z" id="Stroke-173" stroke="#231F20" stroke-width=".073" stroke-linecap="square"/><path d="M62 94.276c0 .423-1.002.562-1.002.987-1.327 1.118-3.322.84-4.817 1.54-.831.14-1.66.278-2.494.14 0-.42-.83-.562-.665-1.122 2.825-.844 5.818-1.545 8.81-1.821l.168.276z" id="Fill-175" fill="#231F20"/><path d="M62 94.276c0 .423-1.002.562-1.002.987-1.327 1.118-3.322.84-4.817 1.54-.831.14-1.66.278-2.494.14 0-.42-.83-.562-.665-1.122 2.825-.844 5.818-1.545 8.81-1.821l.168.276z" id="Stroke-177" stroke="#231F20" stroke-width=".073" stroke-linecap="square"/><path d="M24.615 103.302c.818-.52 1.312-.13 1.967.265 1.473.13 3.111 0 4.418.52v.389c-2.618.394-5.073-.522-7.857-.128-3.601.256-7.202.522-10.968.652-1.309-.13-2.292-.652-2.945-1.698-.33-.387-.33-1.037.163-1.302 4.582 1.302 10.31.393 15.222 1.302" id="Fill-179" fill="#231F20"/><path d="M24.615 103.302c.818-.52 1.312-.13 1.967.265 1.473.13 3.111 0 4.418.52v.389c-2.618.394-5.073-.522-7.857-.128-3.601.256-7.202.522-10.968.652-1.309-.13-2.292-.652-2.945-1.698-.33-.387-.33-1.037.163-1.302 4.582 1.302 10.31.393 15.222 1.302z" id="Stroke-181" stroke="#231F20" stroke-width=".073" stroke-linecap="square"/><path d="M36 66.5c0 .235 0 .595-.459.477-.153-.242-.919-.715-.308-.954.462-.117.613.24.767.478" id="Fill-183" fill="#FEFEFE"/><path d="M36 66.5c0 .235 0 .595-.459.477-.153-.242-.919-.715-.308-.954.462-.117.613.24.767.478z" id="Stroke-185" stroke="#FEFEFE" stroke-width=".073" stroke-linecap="square"/><path d="M27.954 70.443c0 .224 0 .444-.32.557-.162-.224-1.135-.78-.162-1 .321 0 .482.22.482.443" id="Fill-187" fill="#FEFEFE"/><path d="M27.954 70.443c0 .224 0 .444-.32.557-.162-.224-1.135-.78-.162-1 .321 0 .482.22.482.443z" id="Stroke-189" stroke="#FEFEFE" stroke-width=".073" stroke-linecap="square"/><path d="M44.955 66.616c-.111.21-.275.53-.676.31-.041-.254-.582-.868.139-.926.512.011.494.365.537.616" id="Fill-191" fill="#FEFEFE"/><path d="M44.955 66.616c-.111.21-.275.53-.676.31-.041-.254-.582-.868.139-.926.512.011.494.365.537.616z" id="Stroke-193" stroke="#FEFEFE" stroke-width=".073" stroke-linecap="square"/><path d="M39.955 72.445c0 .22 0 .443-.322.555-.162-.222-1.132-.777-.162-1 .324 0 .484.223.484.445" id="Fill-195" fill="#FEFEFE"/><path d="M39.955 72.445c0 .22 0 .443-.322.555-.162-.222-1.132-.777-.162-1 .324 0 .484.223.484.445z" id="Stroke-197" stroke="#FEFEFE" stroke-width=".073" stroke-linecap="square"/><path d="M10.823 19c-.484-.286-.646-.571-.646-1 .322.286.483.57.646 1" id="Fill-199" fill="#FFDB8D"/><path d="M10.823 19c-.484-.286-.646-.571-.646-1 .322.286.483.57.646 1z" id="Stroke-201" stroke="#FFDB8D" stroke-width=".073" stroke-linecap="square"/><path d="M110.625 63c-1.968 0-3.804-.253-5.507-.76-1.702-.507-3.145-1.102-4.325-1.789l-1.568 1.637h-1.93L97 50.094h1.953a31.619 31.619 0 001.68 3.609 17.624 17.624 0 002.362 3.397 12.29 12.29 0 003.1 2.554c1.143.657 2.479.985 4.008.985 2.059 0 3.637-.519 4.735-1.556 1.096-1.038 1.646-2.344 1.646-3.92 0-1.295-.466-2.383-1.397-3.264-.93-.882-2.373-1.643-4.325-2.285a608.512 608.512 0 01-3.509-1.174 58.598 58.598 0 01-3.009-1.104c-2.164-.89-3.773-2.161-4.825-3.815-1.052-1.655-1.578-3.505-1.578-5.549 0-1.295.272-2.54.817-3.733.545-1.194 1.34-2.267 2.384-3.22 1-.888 2.279-1.614 3.838-2.176 1.56-.562 3.255-.843 5.086-.843 1.787 0 3.46.257 5.019.771 1.559.515 2.785 1.03 3.679 1.543l1.385-1.402h1.976l.18 11.316h-1.952a44.159 44.159 0 00-1.601-3.738c-.613-1.274-1.26-2.332-1.942-3.176a8.893 8.893 0 00-2.565-2.168c-.969-.538-2.105-.808-3.407-.808-1.634 0-2.97.476-4.008 1.429-1.036.952-1.555 2.13-1.555 3.535 0 1.328.45 2.413 1.352 3.256.9.843 2.304 1.584 4.211 2.225 1.12.39 2.264.78 3.43 1.17a62.15 62.15 0 013.11 1.124c2.196.874 3.864 2.08 5.007 3.617 1.143 1.537 1.715 3.446 1.715 5.724a9.443 9.443 0 01-.977 4.168c-.65 1.341-1.528 2.458-2.634 3.348-1.211.982-2.611 1.74-4.2 2.27-1.59.53-3.444.796-5.564.796" id="Fill-203" fill="#231F20"/><path d="M139.484 63c-1.75 0-3.388-.28-4.913-.845a11.546 11.546 0 01-3.987-2.45c-1.111-1.047-1.986-2.343-2.625-3.887-.64-1.544-.959-3.241-.959-5.092 0-1.839.322-3.542.967-5.108a12.11 12.11 0 012.717-4.072c1.144-1.126 2.519-1.998 4.123-2.618 1.603-.618 3.32-.928 5.148-.928 1.324 0 2.529.162 3.617.485 1.088.323 2.008.685 2.76 1.085l1.043-.918h1.464l.152 8.65h-1.481c-.84-2.644-1.849-4.585-3.025-5.825-1.177-1.237-2.611-1.856-4.303-1.856-2.106 0-3.708.922-4.806 2.768-1.097 1.846-1.646 4.435-1.646 7.768 0 1.886.187 3.494.562 4.827.376 1.332.866 2.405 1.472 3.219.65.848 1.416 1.47 2.302 1.866.885.395 1.865.593 2.941.593 1.568 0 2.966-.422 4.193-1.27 1.227-.845 2.344-2.126 3.353-3.84l1.447.868a14.448 14.448 0 01-1.649 2.63 9.941 9.941 0 01-2.136 1.997 11.152 11.152 0 01-2.936 1.435c-1.072.345-2.338.518-3.795.518" id="Fill-205" fill="#231F20"/><path d="M179 62h-12.4v-1.32c.27-.022.663-.056 1.181-.101.517-.044.873-.112 1.066-.203.399-.169.674-.391.825-.667.15-.277.226-.629.226-1.058v-8.27h-9.796v8.084c0 .384.078.727.234 1.032.155.305.423.54.8.71.205.09.556.186 1.05.287.496.102.9.164 1.213.187V62H151v-1.32a16.94 16.94 0 001.188-.11c.523-.061.904-.137 1.14-.228.388-.146.658-.368.809-.667.15-.298.225-.652.225-1.057V41.637c0-.394-.067-.727-.202-.998-.134-.27-.412-.508-.832-.71-.313-.147-.721-.28-1.229-.398A10.063 10.063 0 00151 39.32V38h12.4v1.32c-.335.023-.733.079-1.197.168-.464.091-.82.176-1.067.254-.42.147-.698.381-.833.702a2.614 2.614 0 00-.201 1.024v7.17h9.796v-7.001c0-.394-.07-.727-.21-.998-.14-.27-.42-.508-.84-.71-.281-.136-.656-.262-1.123-.382a9.819 9.819 0 00-1.124-.228V38H179v1.32c-.345.023-.733.07-1.164.143a8.435 8.435 0 00-1.164.28c-.41.146-.685.377-.824.693a2.5 2.5 0 00-.21 1.032v16.997c0 .406.069.75.21 1.032.14.281.414.518.824.71.259.113.633.214 1.123.305.491.09.892.146 1.205.169V62z" id="Fill-207" fill="#231F20"/><path d="M195.909 52.427l-3.33-8.555-3.282 8.555h6.612zM208 62h-12.535v-1.301a15.105 15.105 0 002.055-.325c.787-.172 1.182-.386 1.182-.642 0-.089-.008-.19-.024-.3a2.194 2.194 0 00-.138-.451l-1.963-4.903h-7.944c-.183.456-.385.99-.605 1.6a78.12 78.12 0 00-.572 1.635c-.205.623-.326 1.074-.364 1.352a5.248 5.248 0 00-.057.583c0 .357.263.66.787.908.523.252 1.395.432 2.616.543V62H181v-1.301a8.46 8.46 0 001.208-.175c.449-.094.803-.225 1.063-.392a4.188 4.188 0 001.127-.984c.307-.388.565-.85.77-1.385 1.254-3.123 2.51-6.254 3.77-9.389 1.26-3.136 2.651-6.594 4.176-10.374h3.243c2.118 5.36 3.778 9.595 4.978 12.709a374.91 374.91 0 003.065 7.739c.14.333.319.637.535.908.216.273.524.532.925.776.302.178.652.31 1.054.4.4.09.762.145 1.086.167V62z" id="Fill-209" fill="#231F20"/><path d="M220.484 63c-1.75 0-3.388-.28-4.913-.845a11.546 11.546 0 01-3.987-2.45c-1.111-1.047-1.986-2.343-2.625-3.887-.64-1.544-.959-3.241-.959-5.092 0-1.839.322-3.542.968-5.108a12.093 12.093 0 012.716-4.072c1.144-1.126 2.519-1.998 4.123-2.618 1.603-.618 3.319-.928 5.148-.928 1.324 0 2.53.162 3.617.485 1.088.323 2.01.685 2.76 1.085l1.043-.918h1.464l.152 8.65h-1.481c-.84-2.644-1.849-4.585-3.025-5.825-1.177-1.237-2.611-1.856-4.303-1.856-2.106 0-3.708.922-4.806 2.768-1.098 1.846-1.646 4.435-1.646 7.768 0 1.886.188 3.494.562 4.827.376 1.332.866 2.405 1.47 3.219.651.848 1.418 1.47 2.304 1.866.886.395 1.865.593 2.941.593 1.57 0 2.967-.422 4.193-1.27 1.227-.845 2.344-2.126 3.353-3.84l1.447.868a14.448 14.448 0 01-1.649 2.63 9.918 9.918 0 01-2.136 1.997 11.137 11.137 0 01-2.936 1.435c-1.072.345-2.338.518-3.795.518" id="Fill-211" fill="#231F20"/><path d="M260 62h-12.4v-1.32c.27-.022.663-.056 1.181-.101.517-.044.873-.112 1.066-.203.399-.169.674-.391.825-.667.151-.277.226-.629.226-1.058v-8.27h-9.796v8.084c0 .384.078.727.234 1.032.156.305.423.54.8.71.205.09.556.186 1.05.287.496.102.9.164 1.213.187V62H232v-1.32a16.94 16.94 0 001.188-.11c.523-.061.904-.137 1.14-.228.388-.146.658-.368.809-.667.15-.298.225-.652.225-1.057V41.637c0-.394-.067-.727-.202-.998-.134-.27-.412-.508-.832-.71-.313-.147-.721-.28-1.229-.398A10.063 10.063 0 00232 39.32V38h12.4v1.32c-.334.023-.733.079-1.197.168-.463.091-.819.176-1.067.254-.42.147-.698.381-.833.702a2.631 2.631 0 00-.201 1.024v7.17h9.796v-7.001c0-.394-.07-.727-.21-.998-.14-.27-.42-.508-.84-.71-.281-.136-.656-.262-1.123-.382a9.777 9.777 0 00-1.124-.228V38H260v1.32c-.345.023-.733.07-1.164.143a8.435 8.435 0 00-1.164.28c-.41.146-.685.377-.824.693-.14.316-.21.659-.21 1.032v16.997c0 .406.07.75.21 1.032.14.281.414.518.824.71.259.113.634.214 1.123.305.491.09.892.146 1.205.169V62z" id="Fill-213" fill="#231F20"/><path d="M284 44.867h-1.305c-.345-1.026-.899-2.125-1.66-3.298-.762-1.173-1.465-1.804-2.111-1.895a22.291 22.291 0 00-1.32-.118 21.5 21.5 0 00-1.35-.051h-.785V58.33c0 .406.072.764.217 1.075.146.31.43.554.854.735.257.102.655.205 1.196.313.54.107 1 .184 1.38.228V62h-13.231v-1.32c.323-.033.778-.08 1.362-.143.586-.062.985-.138 1.197-.228.434-.18.724-.423.87-.728.144-.303.217-.664.217-1.082V39.505h-.785c-.379 0-.829.017-1.35.05-.524.034-.964.074-1.32.119-.646.09-1.349.722-2.11 1.895-.763 1.173-1.317 2.272-1.661 3.298H261V38h23v6.867z" id="Fill-215" fill="#231F20"/><path d="M133 88.597a18.6 18.6 0 00-1.255.164 9.307 9.307 0 00-1.368.374c-.624.203-1.035.538-1.233 1.006a3.747 3.747 0 00-.296 1.472v3.858c0 .78.007 1.407.023 1.882.014.476.038 1.064.068 1.766-1.52.934-3.768 1.815-6.742 2.641-2.972.826-5.707 1.24-8.2 1.24-2.344 0-4.54-.368-6.594-1.101a15.215 15.215 0 01-5.408-3.3c-1.55-1.449-2.77-3.25-3.66-5.404-.89-2.15-1.335-4.616-1.335-7.392 0-2.588.418-4.983 1.255-7.183.836-2.199 2.045-4.093 3.627-5.684 1.551-1.575 3.44-2.792 5.669-3.65 2.229-.858 4.696-1.286 7.403-1.286 1.84 0 3.544.233 5.11.701 1.567.467 2.86.966 3.879 1.497l1.414-1.286h1.986l.204 12.11h-2.007c-1.156-3.64-2.54-6.341-4.153-8.107-1.612-1.765-3.65-2.648-6.113-2.648-2.92 0-5.175 1.31-6.765 3.93-1.59 2.621-2.383 6.232-2.383 10.834 0 4.883.778 8.704 2.338 11.465 1.559 2.761 3.768 4.142 6.627 4.142 1.339 0 2.528-.207 3.57-.62 1.042-.413 1.852-.891 2.43-1.437v-6.734c0-.561-.099-1.032-.296-1.414-.198-.382-.593-.713-1.187-.994-.456-.218-1.027-.398-1.711-.537a26.528 26.528 0 00-1.71-.305v-1.823H133v1.823z" id="Fill-217" fill="#231F20"/><path d="M149.712 84.156c0-1.6-.438-2.77-1.317-3.508-.879-.739-2.13-1.108-3.754-1.108h-1.31v10.046h1.26c1.624 0 2.884-.434 3.779-1.303.895-.868 1.342-2.242 1.342-4.127zM161 102h-9.025c-1.558-2.436-2.853-4.375-3.885-5.818-1.032-1.443-2.315-3.112-3.85-5.006h-.91v7.288c0 .405.076.75.225 1.033.15.281.434.518.854.71.209.09.538.183.985.278.449.096.832.161 1.153.196V102H134v-1.32c.32-.034.743-.08 1.268-.144.524-.061.897-.138 1.118-.228.42-.18.702-.409.846-.685.143-.276.215-.628.215-1.057v-16.93c0-.405-.06-.743-.182-1.014-.122-.27-.415-.507-.879-.71a6.993 6.993 0 00-1.25-.372c-.482-.102-.86-.175-1.136-.22V78h13.193c2.95 0 5.191.472 6.722 1.413 1.53.941 2.295 2.365 2.295 4.27 0 1.681-.472 3.03-1.418 4.05-.943 1.022-2.384 1.82-4.317 2.394.75.992 1.627 2.142 2.627 3.45 1 1.307 2.04 2.645 3.124 4.008.342.439.81.979 1.401 1.616.592.636 1.113 1.027 1.566 1.175.254.079.577.146.97.203.39.056.671.09.837.102V102z" id="Fill-219" fill="#231F20"/><path d="M178.111 97.253c.488-1.015.84-2.163 1.057-3.447.217-1.281.326-2.73.326-4.347 0-1.371-.096-2.707-.286-4.006-.189-1.299-.511-2.457-.967-3.472-.466-1.014-1.084-1.827-1.854-2.441-.77-.614-1.73-.92-2.879-.92-1.963 0-3.454.956-4.473 2.868-1.02 1.913-1.529 4.614-1.529 8.105 0 1.482.111 2.882.335 4.198.221 1.314.57 2.464 1.048 3.444.488.994 1.106 1.765 1.854 2.317.748.552 1.67.828 2.765.828 1.073 0 1.995-.278 2.765-.837.77-.556 1.383-1.32 1.838-2.29m4.18-16.964c1.14 1.069 2.042 2.361 2.708 3.874.668 1.515 1.001 3.24 1.001 5.178 0 1.727-.282 3.368-.846 4.927-.565 1.558-1.378 2.9-2.44 4.024a11.927 11.927 0 01-3.936 2.731c-1.507.652-3.301.977-5.383.977a13.34 13.34 0 01-4.767-.851 11.73 11.73 0 01-3.952-2.472c-1.128-1.058-2.022-2.344-2.684-3.859-.662-1.512-.992-3.2-.992-5.058 0-1.938.322-3.694.967-5.27.646-1.576 1.532-2.926 2.66-4.05 1.117-1.102 2.442-1.95 3.977-2.547 1.534-.595 3.168-.893 4.904-.893 1.725 0 3.343.289 4.855.868 1.514.58 2.823 1.385 3.929 2.421" id="Fill-221" fill="#231F20"/><path d="M215 79.338a5.03 5.03 0 00-1.021.2c-.324.101-.66.258-1.005.469-.465.279-.824.577-1.077.895-.254.318-.505.756-.754 1.312-.335.77-.805 1.893-1.41 3.37-.606 1.478-1.297 3.159-2.075 5.044a776.638 776.638 0 00-2.243 5.567c-.807 2.02-1.576 3.953-2.311 5.805h-3.257c-1.513-3.825-3.052-7.71-4.62-11.657-1.565-3.947-2.667-6.69-3.306-8.229-.248-.557-.489-.978-.721-1.262-.232-.284-.602-.577-1.11-.879a4.788 4.788 0 00-.972-.443 8.062 8.062 0 00-1.118-.225V78h12.462v1.271c-1.165.145-1.956.299-2.372.46-.416.162-.624.366-.624.61 0 .124.02.254.057.394.038.14.095.326.17.56.346.98.972 2.582 1.879 4.803a797.885 797.885 0 014.035 10.167 571.207 571.207 0 002.721-7.033c.724-1.916 1.361-3.608 1.912-5.079.271-.712.495-1.378.673-1.997.178-.618.267-1.083.267-1.396 0-.356-.248-.655-.745-.895-.496-.24-1.416-.415-2.754-.527V78H215v1.338z" id="Fill-223" fill="#231F20"/><path d="M236.306 84.123h-1.287c-.327-.91-.892-1.831-1.693-2.763-.802-.932-1.598-1.484-2.389-1.652-.338-.078-.81-.126-1.414-.143a57.478 57.478 0 00-1.498-.025h-3.49v9.25h2.474a6.1 6.1 0 001.693-.219c.508-.146.97-.429 1.389-.845.259-.26.522-.716.787-1.371.264-.652.438-1.223.517-1.707h1.287V94.66h-1.287c-.068-.474-.24-1.069-.517-1.785s-.54-1.21-.787-1.48a2.896 2.896 0 00-1.322-.837c-.508-.152-1.095-.227-1.76-.227h-2.473v6.916c0 .722.054 1.293.16 1.716.108.423.308.748.602.973.281.214.668.355 1.16.423.49.067 1.16.1 2.006.1.395 0 .87-.004 1.424-.016a13.11 13.11 0 001.456-.1 9.14 9.14 0 001.329-.255c.413-.111.72-.276.924-.49.542-.553 1.152-1.396 1.83-2.529.676-1.132 1.121-1.981 1.337-2.544H238l-.457 7.475H215v-1.32a27.49 27.49 0 001.287-.135c.542-.067.926-.146 1.152-.236.43-.181.716-.41.864-.686.146-.276.22-.627.22-1.057V81.638c0-.407-.063-.743-.186-1.008-.124-.265-.423-.504-.898-.718-.294-.135-.707-.26-1.236-.372a15.583 15.583 0 00-1.203-.22V78h21.306v6.123z" id="Fill-225" fill="#231F20"/><path d="M249.588 102c-1.384 0-2.677-.181-3.874-.542-1.2-.361-2.214-.788-3.045-1.278l-1.103 1.17h-1.358L240 92.781h1.375a22.64 22.64 0 001.182 2.578 12.526 12.526 0 001.662 2.428 8.69 8.69 0 002.18 1.824c.805.469 1.745.703 2.821.703 1.449 0 2.56-.371 3.333-1.112.772-.741 1.158-1.673 1.158-2.8 0-.925-.328-1.701-.983-2.332-.655-.629-1.67-1.173-3.044-1.632-.895-.301-1.719-.58-2.469-.838a40.233 40.233 0 01-2.117-.788c-1.524-.636-2.656-1.543-3.396-2.726-.74-1.181-1.111-2.502-1.111-3.963 0-.925.193-1.814.576-2.667a7.068 7.068 0 011.677-2.3c.704-.635 1.604-1.152 2.701-1.554 1.097-.4 2.291-.602 3.58-.602 1.256 0 2.434.183 3.532.55 1.096.368 1.96.736 2.588 1.103l.975-1.002h1.39l.128 8.083h-1.374a32.29 32.29 0 00-1.127-2.67c-.432-.91-.887-1.665-1.366-2.268a6.273 6.273 0 00-1.806-1.548c-.682-.385-1.48-.577-2.397-.577-1.15 0-2.09.339-2.821 1.019-.729.681-1.094 1.523-1.094 2.527 0 .946.317 1.723.951 2.325.634.602 1.621 1.131 2.964 1.59.788.278 1.592.556 2.413.835.82.278 1.55.547 2.189.803 1.545.624 2.72 1.485 3.524 2.583.804 1.099 1.206 2.462 1.206 4.088 0 1.026-.23 2.018-.687 2.977a6.846 6.846 0 01-1.853 2.391 9.286 9.286 0 01-2.957 1.624c-1.119.379-2.423.567-3.915.567" id="Fill-227" fill="#231F20"/></g></g></g></svg>