<svg width="20" height="21" xmlns="http://www.w3.org/2000/svg"><g id="Page-1" stroke="none" stroke-width="1" fill="none" fill-rule="evenodd" stroke-linecap="round" stroke-linejoin="round"><g id="Home" transform="translate(-904 -53)" stroke="#F9B019" stroke-width="1.5"><g id="Pin,-Location" transform="translate(905 54)"><g id="Group"><path d="M6.116 12.187C2.562 12.655 0 13.96 0 15.5 0 17.433 4.029 19 9 19s9-1.567 9-3.5c0-1.54-2.562-2.845-6.116-3.313" id="Path"/><path d="M15 5.833C15 2.612 12.314 0 9 0S3 2.612 3 5.833C3 10.208 9 15 9 15s6-4.792 6-9.167z" id="Path"/><path d="M10.414 4.586a2 2 0 11-2.828 2.828 2 2 0 012.828-2.828" id="Path"/></g></g></g></g></svg>