<svg width="110" height="109" xmlns="http://www.w3.org/2000/svg"><g id="Page-1" stroke="none" stroke-width="1" fill="none" fill-rule="evenodd" stroke-linecap="round" stroke-linejoin="round"><g id="FAQ" transform="translate(-345 -583)" stroke="#FEF8EA" stroke-width="10"><g id="Chat,-Messages,-Bubble,-Question" transform="translate(350 588)"><g id="Group"><path d="M0 45.187C0 60 7.889 73.04 19.994 81.26 19.99 85.98 20 92.34 20 99.015l19.617-9.645A55.34 55.34 0 0050 90.359c27.511 0 50-20.113 50-45.172C100 20.127 77.511.015 50 .015S0 20.128 0 45.187z" id="Path"/><path d="M48.997 51.015v-1.151c0-3.773 2.273-5.815 4.55-7.384C55.771 40.944 58 38.94 58 35.246c0-5.102-4.03-9.23-8.997-9.23-4.968 0-9.003 4.123-9.003 9.225m8.994 28.524c-.498 0-.9.335-.894.75 0 .415.402.75.9.75s.9-.335.9-.75-.396-.75-.906-.75" id="Path"/></g></g></g></g></svg>