<svg width="51" height="51" xmlns="http://www.w3.org/2000/svg"><g id="Page-1" stroke="none" stroke-width="1" fill="none" fill-rule="evenodd"><g id="Home" transform="translate(-346 -3900)" fill="#FFF"><g id="social_btns" transform="translate(346 3900)"><g id="twitter"><rect id="shape" fill-opacity=".08" x="0" y="0" width="51" height="51" rx="25.5"/><g id="icon/twitter" transform="translate(15.583 17)"><path d="M19.518 1.874c-.44.19-.898.341-1.368.45a4.15 4.15 0 001.126-1.75c.062-.191-.15-.357-.327-.254a7.998 7.998 0 01-2.09.843.562.562 0 01-.497-.12A4.336 4.336 0 0013.531 0c-.451 0-.907.069-1.354.204C10.79.624 9.72 1.741 9.386 3.12a4.352 4.352 0 00-.102 1.537.147.147 0 01-.038.117.16.16 0 01-.133.052C6.078 4.549 3.34 3.122 1.407.805a.227.227 0 00-.367.028 4.096 4.096 0 00-.579 2.099c0 1.131.466 2.198 1.275 2.976a3.888 3.888 0 01-.975-.369c-.148-.08-.33.023-.333.188-.02 1.682.987 3.178 2.498 3.851a3.92 3.92 0 01-.812-.066c-.167-.03-.307.124-.255.281.49 1.495 1.808 2.596 3.385 2.847a8.026 8.026 0 01-4.419 1.31H.33a.326.326 0 00-.32.24.328.328 0 00.163.366A11.954 11.954 0 006.07 16.11c1.812 0 3.508-.351 5.04-1.044a11.11 11.11 0 003.687-2.698 11.775 11.775 0 002.258-3.692 11.42 11.42 0 00.767-4.042V4.57c0-.214.1-.416.272-.553a8.327 8.327 0 001.7-1.822c.125-.182-.071-.41-.276-.321z" id="Path"/></g></g></g></g></g></svg>