<svg width="24" height="24" xmlns="http://www.w3.org/2000/svg"><g fill="none" fill-rule="evenodd"><path d="M7.496 3h9.009A4.495 4.495 0 0121 7.496v9.009A4.495 4.495 0 0116.504 21H7.496A4.495 4.495 0 013 16.504V7.496A4.495 4.495 0 017.496 3h0z" stroke="#FFF" stroke-width="1.5" stroke-linecap="round" stroke-linejoin="round"/><path d="M16.949 6.713a.338.338 0 10.002.674.338.338 0 00-.002-.674m-2.403 2.741a3.6 3.6 0 11-5.092 5.092 3.6 3.6 0 015.092-5.092" stroke="#FFF" stroke-width="1.5" stroke-linecap="round" stroke-linejoin="round"/><path d="M0 24V0h24v24z"/></g></svg>