<svg width="34" height="34" xmlns="http://www.w3.org/2000/svg"><g fill="none" fill-rule="evenodd"><path d="M26.495 26.864l1.216-1.217c.83-.83.83-2.175 0-3.005l-2.716-2.716a2.833 2.833 0 00-4.007 0l-2.13 2.13a11.767 11.767 0 01-6.913-6.914l2.129-2.13a2.833 2.833 0 000-4.007L11.358 6.29a2.125 2.125 0 00-3.005 0L7.136 7.505a5.018 5.018 0 00-1.47 3.544h0a17.27 17.27 0 0017.285 17.284h0a5.018 5.018 0 003.544-1.47h0z" stroke="#0A1956" stroke-width="1.5" stroke-linecap="round" stroke-linejoin="round"/><path d="M0 0h34v34H0z"/></g></svg>