<svg width="260" height="58" xmlns="http://www.w3.org/2000/svg"><path d="M6.288 5.472h7.636c2.633 0 4.262.33 4.889.987.626.658.94 2.36.94 5.103 0 2.395-.377 3.913-1.13 4.556-.754.642-2.526.963-5.317.963H6.288V5.471zm0 16.795h7.256l1.426-.024c4.44 0 7.391-.714 8.85-2.141 1.46-1.427 2.189-4.313 2.189-8.66 0-4.376-.765-7.33-2.295-8.86C22.182 1.05 19.22.285 14.828.285H.126v32.472h6.162v-10.49zM37.606 5.472h9.278c2.014 0 3.318.337 3.913 1.01.595.676.892 2.17.892 4.485 0 2.268-.345 3.779-1.035 4.532-.69.753-2.09 1.13-4.198 1.13h-8.85V5.472zm0 16.343h8.873c3.299 0 4.948 1.673 4.948 5.02v5.923h6.162v-7.16c0-3.981-1.8-6.082-5.4-6.304v-.215c2.33-.46 3.873-1.293 4.627-2.498.752-1.205 1.13-3.449 1.13-6.732 0-3.616-.754-6.114-2.26-7.493-1.507-1.38-4.251-2.07-8.231-2.07h-16.01v32.472h6.16V21.815zm32.508-14.94c.697-1.062 3.116-1.594 7.255-1.594 3.997 0 6.356.497 7.078 1.488.721.99 1.082 4.207 1.082 9.646 0 5.424-.38 8.67-1.142 9.742-.761 1.07-3.053 1.605-6.875 1.605-3.997 0-6.404-.475-7.22-1.427-.817-.952-1.225-3.758-1.225-8.421 0-6.297.349-9.976 1.047-11.039m6.732 26.168c6.55 0 10.677-.967 12.382-2.901 1.705-1.935 2.558-6.622 2.558-14.06 0-6.804-.849-11.185-2.546-13.144C87.542.98 83.745 0 77.845 0c-6.63 0-10.792.992-12.49 2.974-1.697 1.983-2.544 6.843-2.544 14.583 0 6.502.864 10.709 2.593 12.62 1.728 1.911 5.542 2.866 11.442 2.866m46.984 0c6.12 0 10.065-.677 11.835-2.034 1.767-1.356 2.651-4.38 2.651-9.075l-.094-6.447h-14.298v4.543h8.16l-.024 1.333c0 2.775-.456 4.536-1.368 5.282-.912.745-3.05 1.117-6.411 1.117-3.458 0-5.662-.44-6.614-1.32-.951-.88-1.427-2.93-1.427-6.15l-.047-4.163.024-3.26c0-3.282.48-5.367 1.438-6.255.96-.888 3.224-1.333 6.793-1.333 3.282 0 5.332.259 6.15.774.815.515 1.279 1.836 1.39 3.96h6.234c0-4.218-.842-6.942-2.523-8.17C134.02.614 130.291 0 124.52 0c-4.41 0-7.533.397-9.373 1.19-1.84.793-3.212 2.33-4.116 4.615-.73 1.871-1.094 6.36-1.094 13.464 0 5.568.912 9.255 2.735 11.063 1.824 1.808 5.544 2.711 11.158 2.711m27.416-11.062l5.518-16.914 5.615 16.914h-11.133zm14.63 10.777h6.399L161.308.286h-9.253l-10.8 32.472h6.517l2.022-6.232h14.012l2.07 6.232zm28.367-5.543c-.76.587-2.52.88-5.28.88-3.537 0-5.703-.253-6.495-.761-.794-.507-1.19-1.895-1.19-4.163l-.023-.69h-5.996l.025 1.19c0 3.774.836 6.28 2.509 7.517s5.063 1.856 10.17 1.856c5.677 0 9.35-.63 11.014-1.892 1.666-1.26 2.498-4.048 2.498-8.362 0-3.504-.71-5.812-2.129-6.922-1.42-1.11-4.548-1.8-9.385-2.07-4.091-.222-6.502-.539-7.232-.952-.73-.412-1.094-1.641-1.094-3.687 0-1.728.448-2.862 1.345-3.402.895-.539 2.803-.809 5.72-.809 2.474 0 4.045.235 4.71.702.667.468 1.072 1.614 1.214 3.437 0 .143.016.365.048.667h6.019V8.517c0-3.362-.849-5.622-2.546-6.78C196.448.58 193.157 0 188.272 0c-5.154 0-8.591.63-10.312 1.892-1.721 1.26-2.582 3.786-2.582 7.577 0 3.71.714 6.129 2.142 7.255 1.427 1.127 4.71 1.84 9.848 2.141l3.402.215c1.92.11 3.167.424 3.747.94.579.515.868 1.557.868 3.127 0 2.126-.38 3.481-1.142 4.068m34.744.357h-16.2v-9.183h15.225v-4.543h-15.225V5.472h16.058V.286h-22.22v32.472h22.362zm23.753-.357c-.76.587-2.52.88-5.28.88-3.537 0-5.702-.253-6.495-.761-.793-.507-1.189-1.895-1.189-4.163l-.024-.69h-5.995l.024 1.19c0 3.774.836 6.28 2.51 7.517 1.672 1.237 5.062 1.856 10.17 1.856 5.677 0 9.35-.63 11.014-1.892 1.665-1.26 2.497-4.048 2.497-8.362 0-3.504-.71-5.812-2.128-6.922-1.42-1.11-4.549-1.8-9.385-2.07-4.092-.222-6.503-.539-7.233-.952-.729-.412-1.093-1.641-1.093-3.687 0-1.728.447-2.862 1.344-3.402.895-.539 2.803-.809 5.72-.809 2.475 0 4.046.235 4.711.702.667.468 1.071 1.614 1.214 3.437 0 .143.015.365.047.667h6.02V8.517c0-3.362-.85-5.622-2.547-6.78C254.945.58 251.655 0 246.77 0c-5.155 0-8.592.63-10.312 1.892-1.722 1.26-2.582 3.786-2.582 7.577 0 3.71.714 6.129 2.142 7.255 1.427 1.127 4.71 1.84 9.848 2.141l3.402.215c1.919.11 3.167.424 3.746.94.58.515.869 1.557.869 3.127 0 2.126-.38 3.481-1.142 4.068M129.184 52.538c0 1.163-.19 1.893-.573 2.191-.381.299-1.317.448-2.807.448-1.454 0-2.377-.148-2.77-.442-.392-.294-.588-.99-.588-2.088V42.583h-2.824v10.064c0 2.036.403 3.37 1.21 4.002.807.632 2.509.949 5.103.949 2.457 0 4.084-.335 4.88-1.004.796-.669 1.193-2.04 1.193-4.11v-9.9h-2.824v9.954zm18.737-9.955h-3.51l-4.95 6.062h-1.33v-6.062h-2.824v14.883h2.823v-6.444h1.352l5.452 6.444h3.62l-6.64-7.654zM0 52.074h114.623v-3.53H0zm150.597 0H260v-3.53H150.597z" fill="#0A1956" fill-rule="evenodd"/></svg>