<svg width="220" height="49" xmlns="http://www.w3.org/2000/svg"><path d="M5.32 4.63h6.462c2.227 0 3.606.279 4.137.835.53.557.795 1.997.795 4.318 0 2.026-.32 3.311-.957 3.855s-2.136.815-4.498.815H5.32V4.63zm0 14.211h6.14l1.207-.02c3.758 0 6.254-.604 7.489-1.812 1.234-1.207 1.851-3.65 1.851-7.327 0-3.703-.647-6.203-1.942-7.498S16.264.242 12.547.242H.107v27.476H5.32v-8.877zM31.82 4.63h7.85c1.705 0 2.809.285 3.312.855.503.571.755 1.835.755 3.795 0 1.919-.292 3.197-.876 3.835-.584.637-1.768.955-3.552.955H31.82V4.63zm0 13.829h7.508c2.792 0 4.187 1.416 4.187 4.247v5.012h5.214V21.66c0-3.368-1.523-5.145-4.57-5.334v-.181c1.973-.39 3.278-1.094 3.916-2.114.637-1.02.956-2.918.956-5.696 0-3.06-.638-5.174-1.913-6.34C45.844.824 43.522.241 40.154.241H26.607v27.476h5.213v-9.26zM59.327 5.818c.59-.9 2.637-1.35 6.139-1.35 3.382 0 5.378.42 5.989 1.26.61.837.916 3.559.916 8.162 0 4.589-.322 7.336-.967 8.242-.644.907-2.583 1.359-5.817 1.359-3.382 0-5.418-.402-6.11-1.207-.69-.806-1.036-3.18-1.036-7.126 0-5.328.295-8.441.886-9.34m5.696 22.142c5.543 0 9.035-.819 10.478-2.456 1.442-1.637 2.164-5.603 2.164-11.896 0-5.758-.718-9.464-2.155-11.122C74.074.83 70.861 0 65.87 0c-5.61 0-9.133.84-10.57 2.517-1.435 1.677-2.153 5.79-2.153 12.339 0 5.502.732 9.061 2.194 10.678 1.463 1.617 4.69 2.426 9.682 2.426m39.755 0c5.18 0 8.518-.574 10.015-1.721 1.496-1.148 2.244-3.707 2.244-7.68l-.08-5.455h-12.098v3.845h6.904l-.02 1.128c0 2.348-.386 3.838-1.157 4.468-.772.631-2.58.946-5.425.946-2.926 0-4.791-.372-5.596-1.117-.805-.745-1.208-2.48-1.208-5.204l-.04-3.522.02-2.758c0-2.778.406-4.542 1.218-5.294.811-.751 2.727-1.127 5.747-1.127 2.777 0 4.512.219 5.203.654.69.436 1.083 1.554 1.178 3.352h5.274c0-3.57-.712-5.875-2.135-6.915C113.401.52 110.247 0 105.362 0c-3.731 0-6.374.336-7.93 1.007-1.558.67-2.719 1.972-3.483 3.905-.618 1.583-.926 5.381-.926 11.393 0 4.71.771 7.83 2.314 9.36 1.543 1.53 4.69 2.295 9.441 2.295m23.2-9.36l4.669-14.312 4.75 14.312h-9.42zm12.379 9.118h5.414L136.491.242h-7.83l-9.138 27.476h5.515l1.711-5.273h11.856l1.752 5.273zm24.003-4.69c-.644.497-2.134.745-4.469.745-2.992 0-4.824-.214-5.495-.644-.672-.43-1.006-1.604-1.006-3.523l-.02-.584h-5.074l.021 1.007c0 3.194.707 5.314 2.123 6.36 1.416 1.048 4.284 1.57 8.606 1.57 4.803 0 7.91-.533 9.32-1.6 1.409-1.066 2.113-3.425 2.113-7.075 0-2.965-.6-4.918-1.801-5.858-1.201-.939-3.849-1.522-7.941-1.75-3.463-.189-5.503-.457-6.12-.806-.617-.349-.926-1.39-.926-3.12 0-1.463.38-2.422 1.138-2.878.757-.457 2.372-.685 4.84-.685 2.094 0 3.423.198 3.986.594.564.396.906 1.365 1.027 2.908 0 .121.013.31.04.564h5.093V7.207c0-2.845-.718-4.758-2.154-5.737-1.436-.98-4.22-1.47-8.354-1.47-4.361 0-7.27.534-8.725 1.6-1.457 1.067-2.185 3.205-2.185 6.412 0 3.14.604 5.186 1.812 6.139 1.208.953 3.985 1.557 8.334 1.812l2.878.181c1.624.094 2.68.36 3.17.795.49.436.735 1.319.735 2.647 0 1.799-.322 2.946-.966 3.442m29.399.302H180.05v-7.77h12.882v-3.844H180.05V4.63h13.587V.242h-18.801v27.476h18.922V23.33zm20.098-.302c-.644.497-2.133.745-4.468.745-2.993 0-4.825-.214-5.495-.644-.672-.43-1.006-1.604-1.006-3.523l-.02-.584h-5.074l.02 1.007c0 3.194.708 5.314 2.124 6.36 1.416 1.048 4.284 1.57 8.605 1.57 4.804 0 7.912-.533 9.32-1.6 1.41-1.066 2.114-3.425 2.114-7.075 0-2.965-.6-4.918-1.801-5.858-1.202-.939-3.85-1.522-7.942-1.75-3.462-.189-5.502-.457-6.12-.806-.616-.349-.925-1.39-.925-3.12 0-1.463.379-2.422 1.138-2.878.757-.457 2.372-.685 4.84-.685 2.094 0 3.423.198 3.986.594.564.396.906 1.365 1.027 2.908 0 .121.013.31.04.564h5.093V7.207c0-2.845-.718-4.758-2.154-5.737-1.436-.98-4.22-1.47-8.354-1.47-4.361 0-7.27.534-8.726 1.6-1.456 1.067-2.184 3.205-2.184 6.412 0 3.14.604 5.186 1.812 6.139 1.208.953 3.985 1.557 8.333 1.812l2.879.181c1.624.094 2.68.36 3.17.795.49.436.735 1.319.735 2.647 0 1.799-.322 2.946-.967 3.442M109.31 44.455c0 .984-.162 1.602-.485 1.854-.323.253-1.115.38-2.375.38-1.23 0-2.011-.126-2.344-.375-.332-.249-.498-.838-.498-1.767v-8.515h-2.39v8.515c0 1.723.342 2.851 1.025 3.387.682.534 2.122.802 4.317.802 2.08 0 3.456-.283 4.13-.848.673-.567 1.01-1.726 1.01-3.479v-8.377h-2.39v8.423zm15.854-8.423h-2.97l-4.188 5.13h-1.126v-5.13h-2.39v12.593h2.39v-5.452h1.143l4.614 5.452h3.062l-5.618-6.476 5.083-6.117zM0 44.063h96.989v-2.987H0v2.987zm127.428 0H220v-2.987h-92.572v2.987z" fill="#FFF" fill-rule="evenodd"/></svg>