<svg width="49" height="38" xmlns="http://www.w3.org/2000/svg"><path d="M37.306 38c-3.13 0-5.7-.987-7.712-2.962-2.012-1.974-3.018-4.563-3.018-7.767 0-1.49.187-2.98.56-4.471.372-1.49 1.154-3.725 2.346-6.706L35.965 0h11.064l-4.805 17.659c1.862.82 3.315 2.049 4.358 3.688 1.043 1.64 1.565 3.614 1.565 5.924 0 3.204-1.024 5.793-3.073 7.767C43.024 37.013 40.435 38 37.306 38zm-26.377 0c-3.129 0-5.7-.987-7.711-2.962C1.206 33.064.2 30.475.2 27.271c0-1.49.186-2.98.559-4.471.372-1.49 1.155-3.725 2.347-6.706L9.588 0h11.065l-4.806 17.659c1.863.82 3.316 2.049 4.359 3.688 1.043 1.64 1.565 3.614 1.565 5.924 0 3.204-1.025 5.793-3.074 7.767C16.648 37.013 14.06 38 10.93 38z" fill="#0A1956"/></svg>