<svg width="21" height="21" xmlns="http://www.w3.org/2000/svg"><g id="Page-1" stroke="none" stroke-width="1" fill="none" fill-rule="evenodd" stroke-linecap="round" stroke-linejoin="round"><g id="pop-up" transform="translate(-1105 -1227)" stroke="#0096AF" stroke-width="1.5"><g id="arrows-round.4" transform="translate(1106 1228)"><path id="Path" d="M7.751 7.006h4.243v4.243"/><path d="M12 7l-7.525 7.525a1.353 1.353 0 01-1.913 0h0A7.115 7.115 0 01.479 9.51h0c0-1.23.238-2.46.711-3.617a9.496 9.496 0 012.084-3.13A9.139 9.139 0 019.756.078a9.139 9.139 0 016.482 2.685 9.137 9.137 0 012.685 6.482 9.139 9.139 0 01-2.685 6.482 9.137 9.137 0 01-6.482 2.685c-.987 0-1.972-.17-2.917-.488" id="Path"/></g></g></g></svg>