<svg width="32" height="40" xmlns="http://www.w3.org/2000/svg"><g id="Page-1" stroke="none" stroke-width="1" fill="none" fill-rule="evenodd"><g id="pop-up" transform="translate(-689 -608)" fill="#FF4C2F" fill-rule="nonzero"><g id="Group-2" transform="translate(616 208)"><g id="authereum_shield" transform="translate(73 400)"><g id="Group" transform="matrix(1 0 0 -1 0 40)"><path d="M6.703 38.516A986.68 986.68 0 001.064 36.7L0 36.353v-7.481c0-4.478.034-7.854.084-8.414.368-3.919 2.044-7.634 4.843-10.72.637-.705 10.742-9.62 11.027-9.73.117-.042 9 7.626 10.457 9.034 2.53 2.434 4.508 5.996 5.212 9.406.369 1.798.394 2.468.369 10.44l-.026 7.499-5.689 1.815c-3.125.992-5.698 1.798-5.715 1.79-.008-.017.461-.959 1.056-2.104L22.7 35.81l1.617-.526a439.3 439.3 0 012.983-.958l1.366-.433-.033-6.887c-.026-6.616-.034-6.921-.202-7.693-.636-2.91-1.952-5.377-3.971-7.464-.386-.399-2.346-2.154-4.349-3.893-2.003-1.747-3.746-3.266-3.871-3.384l-.218-.204-3.846 3.35c-4.7 4.106-5.405 4.801-6.527 6.548a14.828 14.828 0 00-1.886 4.3c-.377 1.527-.41 2.096-.41 8.898v6.42l1.198.382c.653.212 1.994.645 2.974.959.972.314 1.777.602 1.777.627 0 .026.47.959 1.047 2.07a93.825 93.825 0 011.048 2.061c0 .05-.1.017-4.693-1.467z" id="Path"/><path d="M15.786 39.737c-.075-.153-2.187-4.232-4.684-9.058l-4.541-8.78.067-.712c.15-1.458.687-3.002 1.558-4.402.31-.508.403-.602.486-.508.05.059 1.71 3.231 3.687 7.048 1.97 3.808 3.603 6.93 3.637 6.93.025 0 1.684-3.088 3.678-6.854s3.662-6.912 3.712-6.997c.084-.144.1-.136.235.042.863 1.145 1.575 3.037 1.776 4.708l.1.848-4.759 8.982c-2.614 4.936-4.767 8.999-4.784 9.008-.008.016-.084-.094-.168-.255z" id="Path"/><path d="M13.658 18.134l-2.304-4.656 1.299-1.146a204.05 204.05 0 012.32-2.01l1.031-.865.226.187c.134.102 1.165 1.01 2.296 2.018l2.07 1.832-2.296 4.648c-1.265 2.554-2.304 4.649-2.32 4.649-.01 0-1.057-2.095-2.322-4.657z" id="Path"/></g></g></g></g></g></svg>