<svg width="1920" height="883" xmlns="http://www.w3.org/2000/svg" xmlns:xlink="http://www.w3.org/1999/xlink"><defs><linearGradient x1="0%" y1="50%" x2="100%" y2="50%" id="linearGradient-3"><stop stop-color="#0096AF" offset="0%"/><stop stop-color="#A51E8C" offset="100%"/></linearGradient><linearGradient x1="0%" y1="50%" x2="100%" y2="50%" id="linearGradient-4"><stop stop-color="#0096AF" offset="0%"/><stop stop-color="#A51E8C" offset="100%"/></linearGradient><linearGradient x1="0%" y1="50%" x2="100%" y2="50%" id="linearGradient-5"><stop stop-color="#0096AF" offset="0%"/><stop stop-color="#A51E8C" offset="100%"/></linearGradient><linearGradient x1="0%" y1="50%" x2="100%" y2="50%" id="linearGradient-6"><stop stop-color="#0096AF" offset="0%"/><stop stop-color="#A51E8C" offset="100%"/></linearGradient><linearGradient x1="0%" y1="50%" x2="100%" y2="50%" id="linearGradient-7"><stop stop-color="#0096AF" offset="0%"/><stop stop-color="#A51E8C" offset="100%"/></linearGradient><linearGradient x1="0%" y1="50%" x2="100%" y2="50%" id="linearGradient-8"><stop stop-color="#0096AF" offset="0%"/><stop stop-color="#A51E8C" offset="100%"/></linearGradient><linearGradient x1="0%" y1="50%" x2="100%" y2="50%" id="linearGradient-9"><stop stop-color="#0096AF" offset="0%"/><stop stop-color="#A51E8C" offset="100%"/></linearGradient><linearGradient x1="0%" y1="50%" x2="100%" y2="50%" id="linearGradient-10"><stop stop-color="#0096AF" offset="0%"/><stop stop-color="#A51E8C" offset="100%"/></linearGradient><linearGradient x1="0%" y1="50%" x2="100%" y2="50%" id="linearGradient-11"><stop stop-color="#0096AF" offset="0%"/><stop stop-color="#A51E8C" offset="100%"/></linearGradient><path id="path-1" d="M0 0h2193v1146H0z"/></defs><g id="Page-1" stroke="none" stroke-width="1" fill="none" fill-rule="evenodd"><g id="Home---blue-white"><g id="Group-7" transform="translate(-74 -222)"><g id="Group-3" opacity=".179"><mask id="mask-2" fill="#fff"><use xlink:href="#path-1"/></mask><path d="M2067.493 395.189a4.725 4.725 0 00-1.647-.377l-3.04-83.152 56.657-19.28a4.75 4.75 0 001.767 2.076l-53.737 100.733zm59.021 98.525a4.74 4.74 0 00-1.369 1.708l-83.613-31.314 22.791-60.04a4.696 4.696 0 003.541-.38l58.65 90.026zm-98.875 17.41a4.735 4.735 0 00-2.706-3.287l16.32-42.993 83.614 31.314a4.716 4.716 0 00-.18 1.28c0 .087.008.17.013.256l-97.06 13.43zm103.856 67.936c-.16.315-.283.649-.368.998l-55.194-8.726-49.311-56.108c.075-.088.145-.18.213-.272l104.66 64.108zm-2.878 47.77c-.098-.006-.195-.015-.293-.015a4.684 4.684 0 00-2.809.935l-23.952-27.256 30.22-16.692a4.733 4.733 0 002.856 1.978l-6.022 41.05zm-53.819 83.959l-19.742-17.148-1.751-61.954a4.73 4.73 0 004.145-4.017l66.154 3.982a4.717 4.717 0 001.775 3.58l-50.58 75.557zm78.258 69.02a4.7 4.7 0 00.127 5.74l-81.483 77.429a4.702 4.702 0 00-3.137-1.201c-.025 0-.049.003-.073.003l-11.67-117.502a4.73 4.73 0 003.868-4.643 4.716 4.716 0 00-1.78-3.69l16.049-23.976 78.1 67.84zm-29.268 239.944c-.408 0-.801.057-1.18.155l-19.677-56.289 52.86-176.077-31.755 232.224c-.083-.005-.163-.013-.248-.013zm-101.915-64.872a4.739 4.739 0 001.708-1.277l67.174 47.834-24.04 80.078a4.707 4.707 0 00-.977-.102 4.65 4.65 0 00-.57.038l-43.295-126.571zm16.638-115.297l-18.13 106.265-.062-.003-1.392-124.151 19.584 17.89zm-71.862-66.71a4.7 4.7 0 00.988-2.882 4.7 4.7 0 00-.13-1.084l49.86-16.267.753 67.25-51.47-47.017zm-133.616-56.885a4.676 4.676 0 00.133-2.344l73.998-21.108 52.695 73.855c-.47.4-.861.89-1.146 1.443l-125.68-51.846zm-48.976-104.227l23.726-4.92 19.489 103.166a4.055 4.055 0 00-.262.08l-42.953-98.326zm-96.938 19.304a4.612 4.612 0 00-.42-.986l80.501-54.94 15.747 36.048-95.828 19.878zm-90.78-44.377c.24-.565.372-1.187.372-1.84 0-.106-.009-.21-.016-.316l111.066-16.858-23.804 60.21a4.71 4.71 0 00-5.347 1.987l-82.271-43.183zm-48.103-9.531c.01-.128.02-.256.02-.385a4.729 4.729 0 00-3.048-4.413l24.36-84.793 14.346 1.127 7.306 91.498a4.729 4.729 0 00-3.808 3.496l-39.176-6.53zm-23.77 36.424a4.708 4.708 0 00-6.172.454l-41.302-34.701 46.114-40.719a4.704 4.704 0 004.697 1.093l13.568 32.865a4.727 4.727 0 00-2.565 4.2c0 1.697.902 3.184 2.25 4.018l-16.59 32.79zm-93.602 9.384a4.692 4.692 0 00-.882-2.118l46.414-40.986 41.394 34.777a4.7 4.7 0 00-.87 2.725l-86.056 5.602zm-140.435 74.7a4.714 4.714 0 00-1.296-.642l13.055-58.577 23.202 10.82a4.689 4.689 0 001.118 4.998l-36.08 43.4zm-98.092 44.131a4.705 4.705 0 00-1.706-.323c-.13 0-.258.01-.386.02l-5.57-33.399 25.702-9.293a4.756 4.756 0 001.877 2.086l-19.917 40.91zm-72.84 17.13a4.739 4.739 0 00-2.353-2.936l3.986-9.397h64.796c.002.024.001.05.004.073l-66.433 12.26zm-37.325 44.904a4.684 4.684 0 00-2.204-.697l-.886-35.049 31.335-6.565c.258.86.755 1.617 1.415 2.196l-29.66 40.115zm-131.22 48.815a4.741 4.741 0 00-.428-.759l51.13-42.142 73.34-1.414c.024.24.072.474.131.702l-124.173 43.613zM840.27 938.872a4.735 4.735 0 00-1.27-.958l50.386-121.925a4.709 4.709 0 004.916-1.317l48.377 37.341a4.702 4.702 0 00.038 5.189l-102.447 81.67zm-33.027-37.051l26.522 36.71a4.72 4.72 0 00-1.588 2.843l-50.211-3.692 25.277-35.861zm-74.011 103.63a4.637 4.637 0 00-.675-.329l20.377-68.785 27.585 2.029-47.287 67.085zm-145.9-23.52l12.543-52.526c.232.036.468.06.71.06 1.514 0 2.86-.719 3.726-1.83l122.372 79.649a4.746 4.746 0 00-.388.974L587.333 981.93zm-20.374 81.924a4.79 4.79 0 00-.71-.06c-.49 0-.962.076-1.407.215l-36.163-88.986a4.742 4.742 0 002.413-2.947l55.283 10.473-19.416 81.305zm-135.454-29.014c.04-.243.065-.491.065-.745a4.69 4.69 0 00-.542-2.189l91.757-58.24a4.716 4.716 0 005.167 1.658l36.162 88.986a4.746 4.746 0 00-2.337 2.7l-130.272-32.17zm-107.975 62.01a4.716 4.716 0 00-3.805-1.935c-.398 0-.783.055-1.152.148l-30.587-89.249 134.171 27.714a4.644 4.644 0 00-.038.567c0 .762.186 1.48.508 2.118l-99.097 60.638zm-103.261-76.906l51.402-17.5 15.419 3.185 30.737 89.687a4.766 4.766 0 00-1.535 1.086l-96.023-76.458zm-45.286-36.06a4.73 4.73 0 00.602-1.286l94.565 19.533-50.613 17.23-44.554-35.478zm-39.541 64.105a4.756 4.756 0 00-1.622-1.978l35.21-60.488a4.686 4.686 0 005.459-1.026l44.162 35.166-83.21 28.326zM75.987 914.258a4.749 4.749 0 001.412-1.107l89.63 65.65a4.689 4.689 0 00-.699 2.46c0 1.599.8 3.013 2.018 3.868l-35.21 60.488a4.682 4.682 0 00-3.446-.244L75.986 914.258zM12.27 760.733a4.738 4.738 0 002.394-2.981l73.83 36.048-14.442 111.539c-.071-.003-.141-.01-.214-.01-.502 0-.986.08-1.441.226L12.271 760.733zm80.604-29.703a4.742 4.742 0 003.379 2.836l-7.654 59.11-73.793-36.03c.012-.136.022-.27.022-.408 0-.354-.043-.698-.118-1.03l78.164-24.478zM19.032 499.103a4.741 4.741 0 002.016-1.678l71.907 40.394a4.692 4.692 0 00-.43 1.96 4.728 4.728 0 004.33 4.706V724.54c-.259.022-.51.065-.755.127L19.032 499.103zm69.471-238.524c.714.434 1.55.69 2.446.69.057 0 .112-.006.169-.009l10.373 86.504-67.033-6.894c0-.03.005-.06.005-.09a4.71 4.71 0 00-1.642-3.572l55.682-76.629zM35.36 79.531a4.744 4.744 0 001.978-1.537L138.14 141.22a4.697 4.697 0 00-.53 2.166c0 1.77.978 3.312 2.42 4.122L92.536 252.097a4.69 4.69 0 00-1.586-.28c-.36 0-.708.044-1.045.12L35.36 79.531zM144.83 7.516a4.723 4.723 0 003.198 1.891l-2.775 61.065L38.25 74.588a4.677 4.677 0 00-.47-1.545L144.83 7.516zm47.85 61.92a4.706 4.706 0 001.576 2.974l-49.444 66.96a4.698 4.698 0 00-1.87-.665l3.065-67.475 46.672-1.795zM38.277 75.374l106.939-4.114-3.063 67.409a4.717 4.717 0 00-3.594 1.886L37.76 77.329a4.71 4.71 0 00.519-1.954zM227.144 285.79a4.743 4.743 0 00-1.732 2.36l-129.797-30.9c.035-.23.06-.465.06-.706a4.73 4.73 0 00-2.422-4.122l47.494-104.588c.497.178 1.03.28 1.587.28a4.7 4.7 0 002.078-.488l82.733 138.166zm-11.527 69.36a4.706 4.706 0 00-.59-.042 4.713 4.713 0 00-3.365 1.413l-30.51-25.398 45.397-38.17a4.74 4.74 0 001.988 1.194l-12.92 61.003zm7.895 84.545a4.685 4.685 0 00-.004-3.554l41.173-20.94a4.721 4.721 0 003.425 2.203l-1.812 43.911-42.782-21.62zm151.77 77.583a4.684 4.684 0 00-.146 3.133l-108.513 42.856a4.732 4.732 0 00-3.642-2.592l4.049-98.105 108.251 54.708zm30.112 88.956l-64.713-7.694c.003-.056.01-.11.01-.165 0-1.638-.84-3.084-2.11-3.932l39.153-71.083a4.685 4.685 0 002.9.313l24.76 82.56zm77.795 10.044c-.001.055-.008.108-.008.163 0 1.443.652 2.735 1.673 3.602l-50.178 70.366a4.691 4.691 0 00-3.386-.565l-24.797-82.686 76.696 9.12zm79.813 55.046a4.689 4.689 0 00-.686 2.44c0 .108.01.216.017.324l-38.407 5.9-33.377-59.63c.348-.237.662-.52.935-.839l71.518 51.805zm48.337 22.484l-14.742 16.465-26.32-33.076c.36-.34.67-.73.91-1.168l40.152 17.78zm39.696-43.159c.144.109.293.21.45.302l-23.706 49.276-15.131-6.7 38.387-42.878zm31.723 71.435a4.73 4.73 0 00-4.643-3.864 4.74 4.74 0 00-1.053.122l-21.379-67.092a4.766 4.766 0 001.45-.95l75.258 66.806-49.633 4.978zm155.738-14.828c.061.333.155.654.283.96l-72.667 37.77-31.853-28.276 104.237-10.454zm83.752 23.196a4.684 4.684 0 00.517 3.3l-18.698 12.77-56.795-37.846c.1-.18.186-.366.26-.558l74.716 22.334zm68.648 7.621l-19.905 48.06a4.67 4.67 0 00-3.869.455l-37.18-51.58a4.72 4.72 0 001.574-2.735l59.38 5.8zm16.73-38.34a4.714 4.714 0 003.605-.305l26.617 42.44-45.818-4.475 15.597-37.66zm270.815-93.045l-22.864 23.885-80.03-2.42a4.47 4.47 0 00-.024-.31l102.918-21.155zm34.702-35.113a4.752 4.752 0 001.8 1.76l-12.273 27.57-21.914 4.503 32.387-33.833zm36.65-4.244l-25.814 1.165 26.468-4.302-.655 3.137zm11.37-50.627c.188.024.38.039.575.039.72 0 1.4-.167 2.011-.456l23.724 41.093-36.02 5.853 9.71-46.529zm49.178-38.717a4.714 4.714 0 003.608 1.68c.602 0 1.176-.117 1.707-.323l20.862 42.808-70.068-9.869c.005-.089.013-.176.013-.266a4.69 4.69 0 00-.662-2.402l44.54-31.628zm96.813-18.494l-10.582 21.546-77.9-6.12a4.29 4.29 0 00-.019-.378l88.501-15.048zm44.367-88.555c.19.076.388.138.591.188l-13.088 82.148-30.485 5.184 42.982-87.52zm74.325 29.613l-41.875 42.37a4.697 4.697 0 00-3.028-1.101c-.404 0-.793.056-1.167.151l-24.623-71.112a4.745 4.745 0 002.192-1.985l68.5 31.677zm115.828-116.08c.388.325.83.584 1.308.773l-42.883 144.11a4.703 4.703 0 00-1.106-.136c-1.757 0-3.29.966-4.104 2.393l-67.695-31.304 114.48-115.837zm71.406 23.855a4.706 4.706 0 00.99 4.495l-34.984 36.648-31.946-64.582a4.746 4.746 0 001.79-1.944l64.15 25.383zm21.338 53.795a4.732 4.732 0 00-2.88 4.35c0 .608.118 1.187.329 1.722L1796.86 385.4l-6.235-12.605 25.464-58.63c.476.162.984.254 1.514.254.376 0 .742-.05 1.093-.134l15.722 47.837zm71.051-110.856c.476.233.994.393 1.544.455l-1.956 67.895-65.111 43.901a4.778 4.778 0 00-.935-.883l66.458-111.368zm148.588-45.602c.2.526.49 1.006.851 1.425l-29.4 30.168a4.71 4.71 0 00-3.004-1.08 4.728 4.728 0 00-4.718 4.583l-105.569 5.622a4.055 4.055 0 00-.04-.269l141.88-40.45zm-39.825 121.692a4.739 4.739 0 00-3.275-2.713l11.272-79.028c.091.005.182.013.275.013a4.73 4.73 0 004.725-4.725 4.701 4.701 0 00-1.162-3.093l29.402-30.17a4.7 4.7 0 002.783 1.07l3.744 102.393-47.764 16.253zm48.776 68.24l-49.875-62.91a4.709 4.709 0 001.496-3.44 4.72 4.72 0 00-.146-1.142l47.543-16.179 3.032 82.914a4.69 4.69 0 00-2.05.756zm-97.125 40.18c.115-.408.181-.837.181-1.282 0-.387-.052-.76-.14-1.121l95.361-31.975a4.752 4.752 0 002.3 2.387l-22.79 60.045-74.912-28.054zm57.148 71.658c-.969 0-1.87.294-2.62.795l-55.838-70.297a4.746 4.746 0 001.032-1.42l74.91 28.056-16.328 43.015a4.702 4.702 0 00-1.156-.15zm14.148 57.772l-12.587-48.592a4.709 4.709 0 001.469-.834l48.653 55.36-37.535-5.934zm-16.64 98.453a4.696 4.696 0 00-.113-5.723l29.173-27.458a4.696 4.696 0 002.918 1.226l1.731 61.236-33.709-29.281zm34.896 71.28a4.734 4.734 0 00-1.22.308l-35.04-70.338a4.74 4.74 0 00.849-.654l34.254 29.754 1.157 40.93zm.788-.018l-1.137-40.21 19.27 16.738-16.103 24.055a4.704 4.704 0 00-2.03-.583zm-4.615 6.548a4.743 4.743 0 003.175 2.736l-16.116 94.456-19.753-18.044-.763-68.232 33.457-10.916zm-34.43-75.893a4.74 4.74 0 001.299-.315l35.036 70.34a4.725 4.725 0 00-2.276 4.034c0 .374.048.735.13 1.084l-33.226 10.841-.964-85.984zm-51.834 100.374l49.659-100.684c.434.172.9.28 1.386.315l.967 86.234-50.091 16.343a4.747 4.747 0 00-1.92-2.208zm7.526-92.156l-9.847 91.479c-.038-.001-.074-.006-.112-.006-.881 0-1.704.248-2.41.669l-52.534-73.629 64.903-18.513zm-88.457-14.499l32.84-32.802 58.506 20.465-2.798 25.99-65.48 18.68-23.068-32.333zm-52.275 52.216l51.71-51.652 22.83 31.998-73.732 21.032a4.74 4.74 0 00-.808-1.378zm4.595-110.675a4.736 4.736 0 003.618 3.294l-11.694 105.708c-.043-.001-.084-.006-.126-.006a4.78 4.78 0 00-.488.025l-19.49-103.176 28.18-5.845zm-37.354-42.724a4.714 4.714 0 001.673-.852l36.703 39.077a4.7 4.7 0 00-1.181 3.727l-28.166 5.842-9.03-47.794zm-4.925-1.573a4.716 4.716 0 004.152 1.723l9.03 47.804-23.902 4.958-15.873-36.336 26.593-18.15zm-33.204 3.017l32.276-4.9c.105.438.268.851.485 1.231l-26.471 18.066-6.29-14.397zm-165.038 23.195l134.144-81.215a4.741 4.741 0 002.425 2.856l-24.686 62.436-111.518 16.926a4.64 4.64 0 00-.365-1.003zm59.129-88.443l-60.967 86.471a4.683 4.683 0 00-2.37-.654l-7.295-91.368 70.632 5.55zm-73.63-43.104a4.73 4.73 0 003.546-2.738l82.215 28.636-11.604 16.458-71.223-5.598-2.935-36.758zm-1.69-.023c.293.058.595.089.904.09l2.924 36.629-14.059-1.105 10.231-35.614zm-22.782 34.628l21.573-35.05c.147.074.299.14.454.2l-10.278 35.773-11.75-.923zm-96.573 79.81a4.695 4.695 0 00.665-4.098l60.814-24.208c.126.251.273.488.44.712l-46.203 40.798-15.716-13.204zm-31.207 54.637a4.68 4.68 0 00-.796-.614l26.383-52.367a4.707 4.707 0 005.116-1.051l15.623 13.126-46.326 40.906zM1303.735 631.5l31.193-1.895-4.312 16.64a4.675 4.675 0 00-.798-.074c-1.752 0-3.28.962-4.097 2.382l-23.359-10.893 1.373-6.16zm-10.042 2.116a4.68 4.68 0 00.29-1.523l8.934-.542-1.286 5.767-7.938-3.702zm-5.473 63.22l1.333-60.14a4.726 4.726 0 003.807-2.366l8.097 3.775-13.095 58.752c-.047-.007-.094-.017-.142-.022zm-68.958-1.084l29.847-9.694a4.732 4.732 0 004.357 2.897 4.72 4.72 0 004.02-2.254l25.859 13.063a4.73 4.73 0 00-.29 1.075l-63.668-4.098c-.007-.34-.05-.67-.125-.989zm-36.828-1.08l27.508 2.18c.002.418.062.822.166 1.208l-25.566 9.244-2.108-12.632zm-28.114 23.56l-16.02-12.12 6.13-14.45 37.195 2.946 2.164 12.97-29.469 10.655zm32.799 24.816l-32.05-24.249 28.851-10.432 5.548 33.258a4.72 4.72 0 00-2.35 1.423zm-71.783 2.757v-12.64l12.558-4.54-7.287 17.18h-5.271zm0 9.657v-8.869h4.937l-3.855 9.089a4.728 4.728 0 00-1.082-.22zm-36.69-4.566a4.732 4.732 0 003.744-2.66l28.014 10.63c-.12.415-.187.85-.187 1.302 0 .197.016.389.04.58l-31.197 6.536-.414-16.388zm-21.1 20.896l-3.355-5.35 20.563-16.947a4.706 4.706 0 003.104 1.417l.42 16.537-20.733 4.343zm19.98 31.859l-19.535-31.147 20.306-4.256.883 34.9c-.59.064-1.148.24-1.654.503zm-114.386 6.047l5.197-14.506a4.66 4.66 0 001.216.165 4.728 4.728 0 004.586-3.61l40.443 6.321-13.216 10.893-38.226.737zM948.6 850.28l14.255-39.789 37.532-.723-50.365 41.511a4.73 4.73 0 00-1.423-1zm-53.07-38.49l43.71-.843 6.268 39.046a4.724 4.724 0 00-2.347 1.397l-48.377-37.34a4.7 4.7 0 00.745-2.26zm-58.644 125.597l-5.159-70.302 41.155-58.386 13.234 2.352a4.728 4.728 0 002.542 4.634L838.273 937.61a4.688 4.688 0 00-1.386-.222zm-5.874-69.289l5.089 69.35a4.68 4.68 0 00-1.698.62l-26.681-36.929 23.29-33.04zm-52.11-6.846a4.706 4.706 0 00.324-6.857l44.38-50.56a4.69 4.69 0 002.758.929l4.557 62.097-23.688 33.603-28.33-39.212zm-4.037 1.044a4.686 4.686 0 003.398-.583l28.491 39.432-25.706 36.468-27.886-2.05 21.703-73.267zm-59.129 70.514l-9.704-48.005 65.545-25.086a4.743 4.743 0 002.538 2.35l-21.755 73.435-36.624-2.694zm15.107 71.984a4.64 4.64 0 00-.547.035L715.9 933.615l36.233 2.663-20.328 68.616a4.759 4.759 0 00-.96-.099zm-125.598-79.317l72.868 5.357 49.8 74.986a4.72 4.72 0 00-.796.805l-122.374-79.649c.248-.459.418-.965.502-1.5zm-74.501 43.185l66.056-41.105a4.74 4.74 0 002.307 1.667l-12.551 52.559-55.315-10.48a4.687 4.687 0 00-.498-2.64zm-101.177 61.578l46.102-78.382c.62.299 1.312.47 2.046.47 1.74 0 3.258-.947 4.079-2.35l40.33 19.171a4.692 4.692 0 00-.307 1.665c0 .789.197 1.533.54 2.188l-91.756 58.24a4.784 4.784 0 00-1.034-1.002zm-144.321-32.417l96.385-32.812a4.729 4.729 0 004.328 2.836c.717 0 1.396-.165 2.007-.453l36.187 62.82a4.743 4.743 0 00-1.84 2.544L287.69 1004.95l-2.442-7.127zm-.747.254l2.293 6.688-13.653-2.82 11.36-3.868zm-108.86-17.939l88.037-29.51a4.731 4.731 0 004.338 2.858c.399 0 .783-.056 1.153-.149l15.078 43.995-12.626 4.298-95.878-19.803c.023-.187.038-.375.038-.566 0-.388-.052-.762-.14-1.123zM78.375 911.36l106.327 21.194-12.721 44.073a4.71 4.71 0 00-4.488 1.537l-89.63-65.65c.22-.358.394-.744.512-1.154zm68.674-88.969L76.564 906.2a4.71 4.71 0 00-1.731-.766l14.407-111.27 57.809 28.227zm-49.8-88.418a4.729 4.729 0 004.393-3l97.699 29.24-51.77 61.557-58.225-28.43 7.689-59.378c.07.003.14.01.213.01zM21.774 493.88l79.739-22.443-4.337 63.619c-1.595.024-3 .84-3.84 2.074l-71.905-40.393a4.7 4.7 0 00.343-2.857zm11.651-150.155l69.718 46.708a4.709 4.709 0 00.72 5.557l-83.909 95.001a4.706 4.706 0 00-2.042-.873l11.833-144.613a4.713 4.713 0 003.68-1.78zm72.902 44.37a4.723 4.723 0 00-2.743 1.685l-69.718-46.708c.242-.437.416-.913.512-1.42l67.209 6.913 4.74 39.53zm46.579-34.252l-42.285 35.553a4.707 4.707 0 00-3.349-1.397c-.057 0-.112.007-.169.009l-4.718-39.361 50.521 5.196zm-58.594-93.988l85.613 71.27-26.18 22.011-51.456-5.291-10.39-86.673a4.727 4.727 0 002.413-1.317zm116.073 99.107l-55.55-5.713 25.705-21.611 30.619 25.49a4.707 4.707 0 00-.774 1.834zm51.809 201.682c-.323.014-.637.06-.94.135l-40.233-118.525a4.747 4.747 0 002.133-1.858l43.104 21.784-4.064 98.464zm167.02 130.22l-89.641-89.444a4.696 4.696 0 001.021-2.098l65.046 7.735 24.897 83.016c-.485.192-.932.46-1.323.792zm103.63 6.667l-44.482 31.542-51.899-32.446a4.695 4.695 0 00.528-2.16c0-.11-.01-.218-.016-.325l86.532-13.293 9.336 16.682zm30.134-21.37l-29.489 20.911-9.152-16.35 38.115-5.856c.11.463.29.898.526 1.295zm13.583 56.492l-8.41-54.3a4.685 4.685 0 001.514-.662l26.4 33.177-19.504 21.785zm36.08-.954l-25.916 53.87a4.694 4.694 0 00-1.684-.316c-.112 0-.222.01-.331.018l-7.993-51.612 19.845-22.166L612.64 731.7zm.378-.788l-15.925-20.013 15-16.754 15.344 6.793-14.419 29.974zm60.636-9.51a4.688 4.688 0 00-.265 1.545c0 .888.251 1.717.68 2.427l-41.61 29.97-18.896-23.748 14.595-30.339 45.496 20.145zm71.043 35.715l-62.224-32.349a4.68 4.68 0 00.366-1.821c0-.026-.003-.053-.004-.079l50.357-5.05 32.17 28.558-20.665 10.74zm36.422 3.246l-11.22 9.855-24.347-12.657 20.442-10.625 15.125 13.427zm58.226-51.16l-57.63 50.635-14.973-13.291 72.404-37.634c.062.1.13.195.2.29zm32.436 59.372l-26.341-58.058a4.75 4.75 0 001.393-1.186l56.533 37.671-31.585 21.573zm39.779-16.112l-28.65 40.642-10.798-23.802 31.96-21.83 7.488 4.99zm12.278-17.42l-11.825 16.775-7.24-4.824 18.434-12.59c.19.232.4.446.63.639zm42.018 52.655l-33.093-22.053-4.758-29.638a4.678 4.678 0 001.296-.538l37.18 51.579a4.79 4.79 0 00-.625.65zm82.168-29.603l-74.268 30.392a4.754 4.754 0 00-2.04-2.05l19.998-48.283 46.662 4.559 9.648 15.382zm25.386-11.96c0 .022-.003.043-.003.065 0 .494.077.97.218 1.419l-24.861 10.174-9.398-14.983 34.044 3.324zm-60.797-47.792l61.502 45.383a4.682 4.682 0 00-.627 1.624l-34.65-3.385-26.942-42.957c.261-.197.501-.42.717-.665zm99.454-5.668l-31.721 49.352a4.708 4.708 0 00-5.763 1.064l-61.502-45.382c.427-.69.681-1.497.702-2.362l96.487-5.741a4.718 4.718 0 001.797 3.069zm6.862-1.218a4.704 4.704 0 00.67-1.76l24.002 1.9-5.95 14.025-18.722-14.165zm-36.507 52.773a4.751 4.751 0 00-1.416-1.773l31.721-49.352c.552.293 1.167.48 1.82.533v38.976l-32.125 11.616zm.416 1.576a4.63 4.63 0 00-.149-.834l31.858-11.52v12.354h-31.71zm-33.65 12.664l24.74-10.123c.097.187.204.369.323.541l-20.483 16.883-4.58-7.301zm-6.505 16.438l-68.605 14.374c-.007-.023-.012-.045-.02-.067l74.391-30.443 4.707 7.504-10.473 8.632zm1.66-.348l9.234-7.611 3.146 5.016-12.38 2.595zm-70.106 15.493l67.138-14.067-25.98 21.413-41.135-6.429c.008-.11.017-.224.017-.338 0-.196-.016-.389-.04-.579zm-58.52-34.82l-14.792 32.852-8.534 18.952a4.69 4.69 0 00-1.573-.275c-.556 0-1.088.102-1.584.278l-5.946-13.103 28.927-41.038 3.503 2.334zm8.862-19.68l-8.534 18.952-3.376-2.25 11.814-16.76c.033.02.063.04.096.059zm-7.87 19.395l8.59-19.073a4.67 4.67 0 001.571.276c.122 0 .24-.01.358-.02l4.642 28.919-15.16-10.102zm20.574 43.824l-42.018 11.13a4.755 4.755 0 00-2.155-2.544l23.272-51.682 15.658 10.434 5.243 32.662zm27.62-7.315l-26.854 7.113-5.116-31.864 32.484 21.645a4.696 4.696 0 00-.59 2.281c0 .282.03.556.077.825zm-82.141 3.226l5.754 12.683a4.738 4.738 0 00-2.26 2.911l-12.874-2.288 9.38-13.306zm-51.648 5.794a4.697 4.697 0 00-.596-2.764l40.933-27.959 10.934 24.097-9.859 13.986-41.412-7.36zm-.14.776l41.051 7.295-40.39 57.3-4.487-61.144a4.732 4.732 0 003.825-3.451zm-52.34 52.624a4.855 4.855 0 00-.532-.347l20.183-45.361 23.695-6.503a4.721 4.721 0 001.032 1.65l-44.378 50.56zm-81.574-13.441a4.74 4.74 0 003.117-2.92l71.007 19.301a4.69 4.69 0 00-.08.854c0 .457.067.896.188 1.314l-65.42 25.038-8.812-43.587zm-37.358 61.256l-12.957-19.51 45.829-42.785a4.702 4.702 0 003.168 1.23c.185 0 .367-.014.546-.034l8.838 43.714-45.424 17.385zm-131.338 64.763l9.595-29.662 58.071-10.807c.087.316.204.618.35.905l-66.055 41.105a4.75 4.75 0 00-1.96-1.541zm-45.949-19.325l54.665-10.173-9.466 29.26a4.678 4.678 0 00-1.073-.128c-1.74 0-3.26.947-4.079 2.35l-40.331-19.171a4.692 4.692 0 00.284-2.138zm-209.775 2.59l108.602 13.224c-.003.06-.009.119-.009.178 0 .395.054.777.146 1.144l-96.39 32.814-15.077-43.995a4.74 4.74 0 002.728-3.364zm-97.735 28.814l46.047-38.752 42.368 8.444c-.02.176-.032.354-.032.535 0 .386.052.761.14 1.121l-88.037 29.51a4.718 4.718 0 00-.486-.858zm45.059-38.95l-45.564 38.345a4.75 4.75 0 00-1.665-1.079l12.74-44.14 34.489 6.874zm-12.504-83.046a4.715 4.715 0 004.703-1.804l62.275 39.005-53.703 45.195-35.04-6.984 21.765-75.412zm-129.148 52.01l125.908-54.418a4.752 4.752 0 002.485 2.185l-21.785 75.48L78.53 910.586a4.58 4.58 0 00-.217-2.038zm125.676-58.353a4.7 4.7 0 00-.325 1.71c0 .527.09 1.032.25 1.506l-125.91 54.417a4.794 4.794 0 00-.836-1.122l70.61-83.957 56.211 27.446zm19.896-82.634l-15.01 79.644a4.723 4.723 0 00-4.538 2.283l-56.036-27.36 51.862-61.667 23.722 7.1zm8.575-45.502l-8.429 44.724-23.315-6.979 31.744-37.745zm-130.897 5.272l118.996-65.237 19.562 19.317-7.363 39.07-32.865 39.077-98.022-29.338a4.694 4.694 0 00-.308-2.889zm51.315-132.067l-54.176 129.49a4.669 4.669 0 00-1.06-.211V544.485a4.701 4.701 0 002.677-1.12l52.56 51.9zm-51.042-54.376l69.302 10.735-17.932 42.858-52.333-51.676c.458-.548.79-1.2.963-1.917zm60.302-86.512l15.737 17.513-77.269 64.57a4.73 4.73 0 00-2.646-1.346l4.353-63.9 59.825-16.837zm-54.8-56.927a4.69 4.69 0 002.784-.963l51.428 57.236-59.18 16.656 4.968-72.93zm103.07-36.616l-98.75 30.143a4.656 4.656 0 00-.532-.975l42.87-36.045 56.31 5.79c-.001.03-.005.06-.005.09 0 .343.039.676.108.997zm4.513 74.965l-103.135-41.673a4.696 4.696 0 00.103-2.397l98.752-30.142a4.728 4.728 0 004.24 2.968l3.614 68.693a4.733 4.733 0 00-3.574 2.55zM259.545 561.6l-62.586-69.651 20.724-49.53c.458.148.945.231 1.453.231.393 0 .774-.054 1.139-.145l40.234 118.527c-.345.15-.667.343-.964.568zm72.105 38.693l-42.718 23.42-24.256-54.216a4.763 4.763 0 001.85-1.85l64.987 29.163a4.694 4.694 0 00-.272 1.566c0 .683.148 1.33.41 1.917zM453.012 754.14l-18.855-55.344a4.766 4.766 0 001.888-1.502l51.622 32.273-34.655 24.573zm93.42 12.166l-61.982 69.23a4.692 4.692 0 00-2.843-.96c-.395 0-.777.055-1.144.146l-27.186-79.803 35.113-24.9 58.042 36.287zm15.327-17.12l-14.794 16.525-57.879-36.186 44.145-31.304 28.528 50.966zm21.329 36.496l-20.368-36.389 13.318-14.876 7.895 50.973a4.736 4.736 0 00-.845.292zm5.54 1.23a4.773 4.773 0 00-1.192-1l25.75-53.529 18.635 23.42-43.192 31.108zm74.33 8.019a4.716 4.716 0 00-1.405 2.558l-71.791-7.418c0-.03.005-.06.005-.092 0-.888-.251-1.717-.68-2.428l43.226-31.131 30.645 38.511zm14.035-67.401l-10.454 66.127c-.115-.008-.229-.018-.346-.018-.97 0-1.871.295-2.622.797l-30.619-38.477 41.578-29.945a4.714 4.714 0 002.463 1.516zm11.42 58.842l-9.182-58.839a4.736 4.736 0 002.876-2.069l61.738 32.096-55.432 28.812zm10.604 46.128a4.705 4.705 0 00-3.273-1.325 4.13 4.13 0 00-.336.017l-6.867-43.999 56.158-29.189 24.568 12.772-70.25 61.724zm-65.529 29.716l30.886-59.49a4.7 4.7 0 001.82.365c.96 0 1.854-.29 2.601-.785l23.73 30.144a4.71 4.71 0 00-1.506 3.45c0 1.103.383 2.118 1.018 2.922l-45.732 42.694-12.817-19.3zm-29.735 59.026a4.69 4.69 0 00-.651-.496l29.971-57.731 12.65 19.046-41.97 39.181zm.539.574l41.872-39.091 12.787 19.254-54.115 20.71a4.785 4.785 0 00-.544-.873zm-51.488-30.904l43.731 31.403a4.692 4.692 0 00-.65 2.898l-57.647 10.727 14.566-45.028zm-74.525 52.002l3.553-98.897a4.71 4.71 0 003.366-1.652l66.935 48.065-14.776 45.674-55.089 10.251a4.732 4.732 0 00-3.99-3.441zm-92.319 15.482h-.022l-5.882-66.61 38.672-19.817 55.8 72.156a4.71 4.71 0 00-1.537 3.478c0 .134.009.266.02.397l-82.48 13.949a4.73 4.73 0 00-4.57-3.553zm-113.576-11.433l47.87-24.531 61.51 38.526a4.68 4.68 0 00-.43 1.204l-108.602-13.225c.001-.06.008-.117.008-.177a4.69 4.69 0 00-.356-1.797zm25.772-38.371l-27.601 36.188a4.702 4.702 0 00-2.54-.746 4.73 4.73 0 00-4.537 3.42l-41.752-8.323 53.415-44.954 23.015 14.415zm71.081-93.606c.059.06.122.113.184.168l-70.785 92.809-22.862-14.319 93.463-78.658zm-156.186 36.181l155.058-38.01c.149.442.36.853.624 1.225l-93.66 78.824-62.487-39.139a4.69 4.69 0 00.529-2.163c0-.25-.025-.496-.064-.737zm33.87-76.713l-36.767 73.07a4.885 4.885 0 00-.506-.17l14.996-79.566 22.278 6.666zm7.692-78.735l21.33 21.062-28.661 56.96-22.491-6.732 8.703-46.18 21.119-25.11zm-.563-.556l-20.259 24.089 7.006-37.176 13.253 13.087zm78.585-93.439l-34.948 41.555-8.433-18.846 42.774-23.45a4.8 4.8 0 00.607.741zm14.516 152.117l-41.876-93.6 28.927-57.485c.546.22 1.14.345 1.764.345.138 0 .273-.008.408-.02l24.258 141.28-13.481 9.48zm24.25 53.245c-.128.033-.254.07-.378.114l-23.544-52.626 13.3-9.353 10.622 61.865zm58.38-108.608l-55.405 108.806a4.691 4.691 0 00-1.79-.355c-.139 0-.274.01-.41.021l-10.684-62.23 67.152-47.225c.323.387.708.718 1.138.983zm-53.586 110.135a4.758 4.758 0 00-1.125-.97l55.41-108.803a4.684 4.684 0 001.786.352c.395 0 .777-.054 1.144-.146l18.93 55.57-76.146 53.997zm100.95 29.15l-99.904-25.333c.042-.253.07-.51.07-.775 0-.876-.245-1.695-.662-2.399l75.958-53.863 27.11 79.58a4.744 4.744 0 00-2.572 2.79zm103.7-49.944a4.694 4.694 0 00-.528 2.16c0 .588.113 1.15.31 1.67l-94.944 45.273a4.728 4.728 0 00-.645-.86l62.072-69.331 33.734 21.088zm.419-.666l-33.621-21.02 14.522-16.22 20.235 36.15a4.752 4.752 0 00-1.136 1.09zm19.32 132.86c-.049 0-.098.005-.147.007l-14.464-125.407c.478-.097.93-.266 1.345-.494l45.257 68.146-30.17 58.113a4.686 4.686 0 00-1.82-.365zm-16.616-125.436c.346.081.704.128 1.074.128.05 0 .098-.006.148-.006l14.464 125.406a4.725 4.725 0 00-2.66 1.57l-43.935-31.55 30.91-95.548zm-97.946 43.056l94.944-45.274a4.744 4.744 0 002.252 1.98l-30.831 95.304-66.73-47.918a4.672 4.672 0 00.365-4.092zm-110.25-22.5a4.73 4.73 0 001.276-1.94l99.904 25.335c-.043.252-.07.51-.07.774 0 .636.128 1.242.357 1.797l-58.288 29.87-43.178-55.836zm-2.381 1.174a4.684 4.684 0 001.76-.69l43.087 55.718-38.257 19.605-6.59-74.633zm-160.928 33.214l85.164-59.89 70.335 21.051c-.067.314-.102.64-.102.973 0 .251.025.497.063.737l-155.055 38.015a4.652 4.652 0 00-.405-.886zm84.204-60.177l-84.655 59.531a4.776 4.776 0 00-1.156-.995l36.832-73.196 48.98 14.66zm30.816-21.67l-29.996 21.093-49.44-14.797 28.485-56.608 50.951 50.311zm42.032 40.396l-40.808-40.295 18.116-12.74 23.48 52.485a4.688 4.688 0 00-.788.55zm-1.324 1.858l-69.744-20.874 29.605-20.82 40.908 40.395a4.727 4.727 0 00-.77 1.3zM304.819 661.15l41.676 93.153-18.358 12.91-51.233-50.588 27.915-55.475zm-6.775-17.071l35.196-41.85c.085.06.172.117.26.171l-28.64 56.916-6.816-15.237zm6.36 16.145l-28.088 55.819-21.195-20.928 42.36-50.366 6.923 15.475zM271.179 945.26l27.645-36.25 20.652 12.935-47.456 24.319a4.76 4.76 0 00-.84-1.004zm49.113-23.733l-20.988-13.146 70.736-92.75c.735.472 1.607.75 2.545.75l.022-.001 6.618 74.947-58.933 30.2zm61.892 38.765l-61.115-38.278 58.23-29.841 5.855 66.297a4.725 4.725 0 00-2.97 1.822zm95.307-17.403c-.86.04-1.66.31-2.341.752l-55.71-72.039 58.162-29.805a4.724 4.724 0 003.443 2.194l-3.554 98.898zm186.186-140.531l-30.687 59.108-45.019-67.785a4.725 4.725 0 001.711-2.826l71.791 7.419c0 .03-.005.06-.005.091a4.72 4.72 0 002.209 3.993zm29.465 29.601l-23.73-30.143a4.71 4.71 0 001.14-5.273l17.252-8.966 6.826 43.736c-.538.13-1.04.35-1.488.646zm-15.026-104.287c.114 0 .226-.01.337-.018l9.223 59.101-17.491 9.092a4.738 4.738 0 00-2.868-2.068l10.454-66.125c.114.008.229.018.345.018zm-430.785-80.255l41.231-22.604 8.561 19.136-42.564 50.61-13.585-13.414 6.357-33.728zm-.895.49l-6.139 32.57-19.016-18.779 25.155-13.791zm-52.928-13.631l65.825-65.323c.517.441 1.13.771 1.803.958l-14.511 76.994-25.93 14.216-27.187-26.845zm-92.642 91.935l92.083-91.38 27.026 26.685-118.79 65.123a4.718 4.718 0 00-.319-.428zm91.523-91.934l-92.079 91.376c-.27-.23-.565-.43-.882-.595l54.055-129.198 38.906 38.417zm65.297-69.248c-.008.11-.016.22-.016.332a4.7 4.7 0 001.108 3.034l-65.83 65.327-39.137-38.645 18.13-43.33 85.745 13.282zm4.709 5.058c.547 0 1.072-.1 1.561-.272l24.283 54.277-40.72 22.324 14.39-76.355c.16.016.322.026.486.026zm-65.772-77.335l62.336 69.373a4.718 4.718 0 00-1.153 2.126L172.253 551l24.37-58.246zm19.155-51.509c.344.348.741.64 1.178.869L196.377 491.3l-17.369-19.33 36.77-30.727zm-1.063-1.667c.143.38.33.735.56 1.06l-36.795 30.747-15.496-17.246 51.731-14.561zm-103.228-44.724l103.135 41.672a4.727 4.727 0 00-.123 2.296l-52.102 14.663-51.689-57.524c.31-.328.573-.7.779-1.107zM101.11 537.065l77.293-64.589 17.637 19.629-24.589 58.77-69.494-10.765c.008-.11.017-.219.017-.331 0-1.01-.322-1.945-.864-2.714zm674.72 315.88a4.729 4.729 0 00-4.435 3.112l-71.007-19.302c.05-.278.08-.562.08-.853 0-.297-.03-.586-.083-.867l96.922-26.597-19.922 44.776a4.696 4.696 0 00-1.555-.269zm29.818-63.255l-7.927 17.817-97.546 26.77a4.677 4.677 0 00-.64-1.183l70.482-61.927 35.631 18.523zm2.41-5.416l-2.09 4.696-35.317-18.36 11.063-9.721 26.344 23.385zm19.57 11.206l15.07-84.381a4.7 4.7 0 002.025-.258l26.4 58.186-41.046 28.036a4.726 4.726 0 00-2.45-1.583zm-5.574 2.74a4.694 4.694 0 00-.283 2.687l-23.07 6.332 7.645-17.186 15.708 8.167zm.582-1.005c-.075.1-.147.202-.214.307l-15.755-8.19 2.008-4.51 13.96 12.393zm3.777-1.9a4.7 4.7 0 00-3.255 1.31l-14.148-12.558 32.576-73.215c.111.04.224.074.339.104l-15.072 84.382a4.512 4.512 0 00-.44-.022zm13.452-85.52c.3.288.634.538 1 .74l-32.471 72.984-26.083-23.153 57.554-50.57zm-272.823-31.304c.112 0 .222-.01.331-.018l8.51 54.94-13.57 15.156-28.436-50.804 29.556-20.958a4.716 4.716 0 003.61 1.684zM428.66 691.423a4.704 4.704 0 00-.466 5.428l-66.849 47.01-24.194-140.916a4.702 4.702 0 001.868-.967l89.64 89.445zM20.546 491.512l83.91-95a4.71 4.71 0 002.105.88l-4.99 73.212-80.013 22.52a4.727 4.727 0 00-1.012-1.612zm406.297 537.858a4.7 4.7 0 00-2.006.453l-36.188-62.82a4.72 4.72 0 002.036-3.88c0-.134-.01-.266-.02-.397l82.48-13.949a4.732 4.732 0 001.847 2.682l-46.103 78.382a4.7 4.7 0 00-2.046-.47zm178.464-104.678a4.725 4.725 0 00-.187-1.266l54.277-20.773 18.165 27.352-72.255-5.313zm73.249 5.385l-18.405-27.713 45.135-17.274 9.636 47.661-36.366-2.674zm50.012 75.305l-49.46-74.474 35.976 2.646 14.442 71.432a4.69 4.69 0 00-.958.396zm166.953-194.38c-.012-.114-.032-.226-.052-.339l41.942-11.108 1.703 10.607-43.593.84zm44.388-.855l-1.733-10.795 26.932-7.134a4.745 4.745 0 002.488 2.712l-5.298 14.785-22.389.432zm6.734 39.703c-.12 0-.238.01-.357.018l-6.25-38.935 21.978-.423-14.155 39.504a4.7 4.7 0 00-1.216-.164zm128.464-43.119l-58.67-9.17 26.599-21.923 14.136-2.961 19.69 31.395a4.734 4.734 0 00-1.755 2.66zm39.442-51.268a4.73 4.73 0 00-3.863 2.67l-28.013-10.632a4.71 4.71 0 00.167-.907h31.71v8.869zm23.435-48.603l15.455 11.693-24.114 8.718 8.659-20.411zm-9.67 20.777l-12.977 4.692v-38.69a4.703 4.703 0 003.118-1.556l18.882 14.287-9.022 21.267zm40.32-95.053l-24.708 58.25-24.259-1.921a4.7 4.7 0 00-1.245-3.167l49.512-53.618c.22.172.453.325.7.456zm115.919-.346c.012.23.035.456.08.675l-38.625 11.152a4.723 4.723 0 00-.874-1.443l10.77-11.25 28.649.866zm6.265-4.71a4.703 4.703 0 00-1.553-.268 4.73 4.73 0 00-4.692 4.19l-27.936-.844 23.163-24.196 22.477-4.62-11.459 25.738zm19.082-27.305l-4.414 19.808-12.607 8.917a4.749 4.749 0 00-1.34-1.102l11.687-26.251 6.674-1.372zm5.91-26.516l-5.722 25.673-6.468 1.33 12.046-27.056c.048.017.095.038.144.053zm29.683 14.23a4.628 4.628 0 00-.575-.04c-1.22 0-2.328.469-3.167 1.23l-19.984-18.667c.097-.346.153-.709.167-1.082l27.693-1.25-4.134 19.808zm47.067-21.748l30.943 53.598a4.749 4.749 0 00-1.56 1.832l-72.49-27.685c.122-.417.19-.856.19-1.311a4.731 4.731 0 00-3.379-4.528l4.176-20.004 42.12-1.902zm-.444-.767l-41.51 1.874.675-3.236 36.614-5.95 4.221 7.312zm57.072-17.273l5.21 10.691a4.722 4.722 0 00-2.301 3.874l-59.094 2.668-4.277-7.407 60.462-9.826zm24.25-20l-8.145 16.585-15.653 2.545-11.763-24.139 35.561 5.01zm60.569-43.377l-7.286 45.728a4.296 4.296 0 00-.35-.018 4.731 4.731 0 00-4.605 3.679l-47.142-6.64 22.42-45.653 36.963 2.904zm.124-.78l-36.713-2.885 10.694-21.776 30.782-5.234-4.763 29.895zm-6.631 46.631l7.294-45.789 21.1 1.658-27.393 44.503a4.772 4.772 0 00-1.001-.372zm-5.836 4.95l-55.418 9.006 8.013-16.315 47.4 6.677c-.005.09-.014.177-.014.266 0 .124.01.245.02.366zm-62.425 23.275l6.581-13.401 55.97-9.096c.02.077.038.156.06.232l-60.814 24.207a4.747 4.747 0 00-1.797-1.942zm-4.133-.354L1450 548.017l14.867-2.415-6.334 12.896a4.68 4.68 0 00-3.427-.004zm-28.91 60.445c-.72 0-1.4.166-2.01.455l-30.74-53.244 58.685-2.65a4.723 4.723 0 002.214 3.417l-26.382 52.368a4.694 4.694 0 00-1.767-.346zm-82.077-21.663c.26.045.526.073.799.073a4.728 4.728 0 004.253-2.68l72.49 27.685a4.705 4.705 0 00-.184 1.202l-85.513 5.198 8.155-31.478zm-3.732-3.32c.111.376.269.731.464 1.061l-34.407 24.336 4.302-19.304 29.641-6.093zm-23.168-20.033a4.725 4.725 0 004.246-2.667l19.747 18.445a4.698 4.698 0 00-.983 3.483l-29.295 6.022 5.646-25.333c.21.03.421.05.639.05zm-11.03 46.576l35.115-24.838a4.726 4.726 0 002.053 1.417l-8.22 31.726-31.222 1.898 2.273-10.203zm-18.755 76.325a4.688 4.688 0 00-2.405.834l-22.028-26.644 23.93-34.924a4.69 4.69 0 001.836.595l-1.333 60.14zm-30.982-16.254l6.085-8.88 21.886 26.47c-.276.27-.516.574-.719.904L1257.846 686a4.721 4.721 0 00-1.393-5.43v-.001zm-37.978 13.475l21.37-18.577 9.508 6.447a4.695 4.695 0 00-.61 2.315c0 .372.048.732.13 1.08l-29.849 9.692a4.747 4.747 0 00-.549-.957zm-47.64-60.913c.18 0 .357-.012.531-.032l10.128 60.71-36.739-2.911 24.606-58.007c.464.154.96.24 1.475.24zm68.222 16.593l-9.42 17.869-54.603-37.03c.109-.21.202-.429.278-.656l61.625 15.102a4.74 4.74 0 00-.063.736c0 1.67.873 3.137 2.183 3.979zm46.402-14.951l-30.5 26.513-10.058-12.166a4.707 4.707 0 001.331-4.302l38.624-11.15c.152.397.356.768.603 1.105zm-29.999 27.12l30.514-26.525c.098.097.2.19.307.277l-23.802 34.737-7.019-8.49zm-1.992 17.61c-.347 0-.685.04-1.011.112l-3.675-11.917 6.084-5.289 7.15 8.648-6.214 9.068a4.688 4.688 0 00-2.334-.622zm-5.336-11.24l3.573 11.585a4.745 4.745 0 00-1.91 1.415l-9.334-6.33 7.67-6.67zm-3.838-18.64l10.07 12.18-5.835 5.072-5.166-16.748c.33-.134.642-.303.931-.504zm-14.002 18.414l9.46-17.942a4.69 4.69 0 002.858.266l5.268 17.08-8.091 7.034-9.495-6.438zm-55.678-36.805l54.654 37.06-12.752 24.19a4.719 4.719 0 00-4.055.174l-38.757-60.505a4.73 4.73 0 00.91-.92zm43.346 62.216a4.678 4.678 0 00-.75-.594l12.713-24.115 9.248 6.27-21.21 18.44zm-35.657.425l-10.163-60.93c.316-.09.618-.211.903-.363l38.757 60.504a4.724 4.724 0 00-1.79 2.983l-27.707-2.194zm111.633-62.567a4.696 4.696 0 00-.604-1.715l11.9-8.416-2.135 9.575-9.16.556zm37.446 15.136l4.375-16.887 85.77-5.213c.01.074.02.15.033.223l-87.32 24.675a4.743 4.743 0 00-2.859-2.798zm244.993-198.72a4.724 4.724 0 001.77 2.622l-21.786 35.393-21.44-1.684 4.796-30.097 36.66-6.234zm117.9-13.67l-108.692 11.602a4.701 4.701 0 00-1.051-2.176l42.075-42.576 67.954 31.424a4.709 4.709 0 00-.291 1.617c0 .037.005.072.006.108zm87.698-41.334l8.243-18.978 5.94 12.007-14.183 6.97zm24.051 12.978l-35.337 46.595-13.1-3.427 23.902-55.034 15.014-7.38 9.521 19.246zm27.086-35.718l-26.555 35.016-9.345-18.89 35.006-17.209c.243.405.545.77.894 1.083zm70.856-12.42a4.722 4.722 0 00-4.46 4.608l-58.572 3.621a4.696 4.696 0 00-.548-1.62l64.645-43.587-1.065 36.977zm51.875-71.234l50.148 40.28a4.698 4.698 0 00-.693 3.668l-96.697 30.218a4.735 4.735 0 00-3.845-2.915l1.08-37.536 50.007-33.715zm-48.04-34.586a4.706 4.706 0 003.162-1.461l44.236 35.53-49.336 33.266 1.939-67.335zm102.105 72.78a4.708 4.708 0 00-3.42 1.475l-49.961-40.13 62.3-42.005a4.732 4.732 0 002.626 1.646l-11.27 79.028c-.093-.004-.183-.014-.275-.014zm8.621 186.218l-43.587-9.856-12.296-61.848a4.726 4.726 0 001.316-.608l55.84 70.298a4.72 4.72 0 00-1.273 2.014zm-28.03 47.088c.007-.113.016-.228.016-.344a4.709 4.709 0 00-1.434-3.385l31.27-38.052a4.696 4.696 0 002.684.841c.273 0 .538-.028.798-.073l12.502 48.26-45.837-7.247zm57.666 68.17l-43.136-5.608-17.512-58.512a4.735 4.735 0 002.857-3.271l46.176 7.299 14.671 56.633a4.739 4.739 0 00-3.056 3.459zm-28.276 31.368a4.704 4.704 0 00-4.127-1.114l-10.486-35.035 42.791 5.562c-.003.073-.01.143-.01.217a4.7 4.7 0 001.01 2.91l-29.178 27.46zm-7.724 2.328a4.718 4.718 0 00-.155 1.182c0 .312.032.617.09.913l-38.318 10.929 2.744-25.49 35.639 12.466zm-32.481-41.805l24.74 3.217 10.59 35.373a4.749 4.749 0 00-2.591 2.472l-35.81-12.527 3.071-28.535zm-47.614-6.19l46.833 6.088-3.054 28.37-57.974-20.279 14.195-14.178zm-86.235-11.02c.015-.062.034-.123.047-.185l85.202 11.077-14.034 14.019-71.215-24.91zm-1.516 2.42a4.758 4.758 0 001.257-1.677l70.856 24.785-32.479 32.441-39.634-55.55zm-43.788-53.593l36.258-74.664c.441.171.914.277 1.408.307l2.576 119.648a4.697 4.697 0 00-2.44 1.002l-36.704-39.077a4.703 4.703 0 001.218-3.158 4.723 4.723 0 00-2.316-4.058zm-63.406-45.183a4.761 4.761 0 001.879-1.857l55.318 48.302a4.697 4.697 0 00-.925 2.796c0 .108.01.212.017.317l-32.486 4.93-23.803-54.488zm-2.244.568a4.71 4.71 0 001.522-.256l23.72 54.3-51.123 7.759 24.515-62.005c.432.131.89.202 1.366.202zm-4.572-5.9a4.505 4.505 0 00-.087.414l-73.436-5.772 11.463-16.259 62.06 21.616zm-34.116-61.25a4.69 4.69 0 004.701.531l31.399 57.944a4.748 4.748 0 00-1.726 2.03l-61.846-21.541 27.472-38.964zm7.455-2.985a4.69 4.69 0 00.074-.809c0-.608-.119-1.187-.33-1.721l77.008-37.855-23.582 54.295-53.17-13.91zm32.745 60.937a4.697 4.697 0 00-1.512-.253c-.675 0-1.316.145-1.897.4l-31.4-57.943a4.751 4.751 0 001.865-2.378l53.052 13.878-20.108 46.296zm1.015.488a4.213 4.213 0 00-.29-.177l20.154-46.405 12.902 3.375-32.766 43.207zm96.43-26.552a4.718 4.718 0 00-.074.809c0 .315.032.622.091.92l-94.563 27.131a4.734 4.734 0 00-1.257-1.832l32.964-43.467 62.84 16.439zm2.213-3.232a4.745 4.745 0 00-2.012 2.47l-62.525-16.357 34.902-46.021 29.635 59.908zm-.077-95.211l2.02 94.552a4.683 4.683 0 00-1.238.308l-29.81-60.259 26.792-35.327a4.696 4.696 0 002.236.726zm86.221 117.774l36.7-50.429a4.681 4.681 0 002.98.66l12.225 61.504-51.905-11.735zm62.292 63.985a4.73 4.73 0 00-2.545 1.807l-75.26-44.474 15.01-20.624 52.576 11.886 10.219 51.405zm1.192 9.258c.037.001.074.007.111.007.334 0 .66-.037.974-.103l17.414 58.172-24.409-3.173 5.91-54.903zm-2.939-1.117a4.714 4.714 0 002.155 1.035l-5.908 54.884-46.213-6.009 49.966-49.91zm-136.844 37.475l135.487-39.387c.193.498.463.956.8 1.356l-50.395 50.338-85.808-11.155c.003-.073.01-.144.01-.215a4.66 4.66 0 00-.094-.937zm-3.578-125.365l27.716 16.371-27.943 105.281a4.737 4.737 0 00-.533-.062l-2.574-119.648a4.725 4.725 0 003.334-1.942zm60.321-106.476l-24.327 91.657-35.419 10.363a4.744 4.744 0 00-1.625-2.116l60.852-100.126c.168.084.341.157.52.222zm-28.731 111.322l5.052-19.034 77.978-22.812a4.75 4.75 0 001.319 1.873l-36.898 50.702-47.451-10.73zm-30.914-6.181l29.943 6.77-2.686 10.118-27.513-16.257c.1-.204.188-.414.256-.631zm.125-2.368l34.957-10.225-4.937 18.6-29.976-6.777c.03-.214.05-.431.05-.653a4.73 4.73 0 00-.094-.945zm27.836 19.673l2.75-10.362 47.15 10.66-14.855 20.41-35.045-20.708zm-27.241 106.298a4.682 4.682 0 00-.862-.412l27.886-105.068 34.786 20.547-61.81 84.933zm137.445-37.045l-135.487 39.387a4.736 4.736 0 00-1.321-1.88l61.854-84.994 75.336 44.498a4.687 4.687 0 00-.382 2.989zm-76.932-191.42a4.7 4.7 0 002.61-.79l51.28 64.845a4.709 4.709 0 00-1.405 4.388l-77.516 22.677 24.204-91.197c.27.048.544.077.827.077zm-106.105 181.839a4.707 4.707 0 00-3.284 1.336l-55.499-48.46a4.695 4.695 0 00.175-2.469l94.562-27.131a4.742 4.742 0 002.005 2.382l-36.257 74.664a4.697 4.697 0 00-1.702-.322zm221.622-33.29l-31.27 38.05a4.692 4.692 0 00-3.215-.808l-10.15-51.059 43.251 9.779c-.03.213-.05.43-.05.653 0 1.326.55 2.525 1.434 3.384zm-12.166-182.192l-44.622 96.705a4.702 4.702 0 00-1.613-.29c-.965 0-1.862.293-2.61.791l-51.281-64.844a4.71 4.71 0 001.5-3.444 4.7 4.7 0 00-.117-1.028l96.697-30.218a4.756 4.756 0 002.046 2.328zm-108.022 29.6a4.724 4.724 0 001.892 3.131l-60.853 100.127a4.687 4.687 0 00-1.812-.487l-2.022-94.552a4.73 4.73 0 004.226-4.598l58.569-3.62zm-313.889 83.486l108.692-11.603a4.712 4.712 0 001.238 2.381l-27.649 39.216-82.43-28.711c.097-.377.154-.769.154-1.175 0-.037-.004-.072-.005-.108zm9.356 134.792l61.234-86.851 73.9 5.807c0 .18.013.357.034.531l-134.383 81.36a4.79 4.79 0 00-.785-.847zm236.562 129.723a4.71 4.71 0 00-2.141-1.032l11.692-105.708c.043 0 .085.007.13.007.88 0 1.703-.248 2.41-.67l39.712 55.66-51.803 51.743zm132.225 54.4l9.881-91.793 38.629-11.02a4.74 4.74 0 001.981 2.375l-49.658 100.683a4.698 4.698 0 00-.833-.244zm97.093-365.826c0 .387.05.762.14 1.122l-95.362 31.975a4.76 4.76 0 00-2.01-2.238l44.623-96.705a4.688 4.688 0 004.23-.503l49.875 62.908a4.707 4.707 0 00-1.496 3.441zm-43.071-157.982c.08.596.271 1.156.554 1.66l-62.502 42.142-44.422-35.681a4.7 4.7 0 00.801-2.499l105.569-5.622zm-228.072 131.27l-8.877 20.44-77.839 38.26a4.884 4.884 0 00-.515-.702l76.354-79.986 10.877 21.988zm24.882-59.448c.226.183.47.347.727.486l-25.198 58.017-10.709-21.65 35.18-36.853zm-69.937-27.795a4.68 4.68 0 001.734-.334l32.073 64.837-76.55 80.193a4.692 4.692 0 00-1.11-.67l42.888-144.126c.312.065.634.1.965.1zm-191.46 85.695a4.73 4.73 0 001.167-.15l24.623 71.11a4.73 4.73 0 00-2.813 4.319c0 .135.01.268.02.4l-36.395 6.189 13.046-81.886c.117.009.233.018.352.018zm-134.634 104.436l77.591 6.098-22.396 45.603-36.343-5.119-21.096-43.289a4.728 4.728 0 002.244-3.293zm-52.264 37.36l70.592 9.944 11.892 24.402-60.523 9.835-23.872-41.349a4.74 4.74 0 001.911-2.832zM1254.845 631.34l-10.278 10.736a4.698 4.698 0 00-2.969-1.056 4.731 4.731 0 00-4.476 3.224l-61.625-15.101c.01-.068.023-.134.03-.202l79.318 2.399zM653.88 651.61c.363 0 .714-.046 1.054-.124l21.378 67.093a4.753 4.753 0 00-2.34 2.1l-45.47-20.133 23.694-49.253c.523.201 1.09.317 1.684.317zm-165.971-30.443c.696 0 1.357-.155 1.953-.428l33.235 59.376-86.24 13.248a4.733 4.733 0 00-1.537-2.498l50.179-70.365c.706.421 1.53.667 2.41.667zm-110.864-98.185l-39.153 71.082a4.697 4.697 0 00-1.925-.414 4.73 4.73 0 00-4.133 2.439l-64.986-29.162a4.677 4.677 0 00.273-1.566 4.72 4.72 0 00-.203-1.363l108.513-42.855c.37.744.927 1.38 1.614 1.84zM264.32 414.503l-41.172 20.938a4.722 4.722 0 00-3.867-2.235l-3.614-68.693a4.696 4.696 0 002.433-1.096l46.965 46.28a4.706 4.706 0 00-.745 4.805zm-38.275-122.154l-45.508 38.263-85.722-71.362a4.7 4.7 0 00.62-1.234l129.797 30.901a4.705 4.705 0 00-.059.707c0 1.015.325 1.954.872 2.725zm776.588 516.589l12.99-10.706 59.362 9.277-.002.034-72.35 1.395zm118.83-63.132l7.442-17.546 25.282-9.14 32.455 24.556a4.69 4.69 0 00-.717 2.13h-64.462zm422.067-173.759c-.5 0-.981.08-1.433.223l-13.568-32.864a4.728 4.728 0 002.565-4.199 4.72 4.72 0 00-1.924-3.798l27.605-44.847 11.991.942-24.315 84.634a4.803 4.803 0 00-.921-.09zm141.156 56.131l23.975-60.64 51.784-7.86 6.433 14.728-80.623 55.023a4.735 4.735 0 00-1.57-1.25zm380.67 234.862l-25.998-23.748 16.2-94.952c.135.012.268.02.404.02.025 0 .049-.004.073-.004l11.67 117.502a4.705 4.705 0 00-2.349 1.182zm.511 7.338l-43.877 75.907a4.638 4.638 0 00-.834-.301l18.045-105.769 25.623 23.406a4.7 4.7 0 00-.987 2.882 4.72 4.72 0 002.03 3.875zm25.126 130.263l-66.958-47.68a4.68 4.68 0 00.667-2.407 4.721 4.721 0 00-2.03-3.876l43.877-75.906a4.694 4.694 0 002.013.456 4.73 4.73 0 001.18-.155l32.36 92.565-11.109 37.003zm29.192 20.788l-28.514-20.304 10.873-36.222 19.32 55.263a4.749 4.749 0 00-1.68 1.263zm-52.718 60.317l23.964-79.825 28.298 20.15a4.698 4.698 0 00-.667 2.407c0 1.213.463 2.316 1.216 3.154l-51.603 54.813a4.718 4.718 0 00-1.208-.699zm86.26-295.627a4.7 4.7 0 001.406.869l-52.646 175.367-32-91.54a4.73 4.73 0 002.8-4.312 4.702 4.702 0 00-1.043-2.956l81.482-77.428zm-30.076-155.254l-66.154-3.98a4.683 4.683 0 00-.411-1.823l43.77-24.178 24.066 27.384a4.712 4.712 0 00-1.27 2.597zm-23.328-30.586l-43.615 24.093a4.723 4.723 0 00-3.93-2.105 4.68 4.68 0 00-.799.072l-14.585-56.301 38.134 6.027 24.795 28.214zm31.079-17.167l-30.373 16.777-24.283-27.63 54.257 8.577c-.008.116-.018.229-.018.346 0 .688.15 1.34.417 1.93zm56.872-221.158a4.7 4.7 0 00-2.738.88l-58.404-69.004a4.717 4.717 0 001.384-3.339 4.73 4.73 0 00-4.725-4.726 4.731 4.731 0 00-4.725 4.726c0 .394.054.776.145 1.142l-56.436 19.205-3.736-102.154a4.727 4.727 0 003.54-2.359l65.304 30.171a4.677 4.677 0 00-.291 1.615 4.73 4.73 0 004.725 4.726 4.73 4.73 0 004.725-4.726 4.73 4.73 0 00-4.725-4.726 4.726 4.726 0 00-4.105 2.396l-65.304-30.17c.184-.506.29-1.048.29-1.616a4.73 4.73 0 00-4.725-4.726 4.73 4.73 0 00-4.635 5.638l-141.881 40.451a4.728 4.728 0 00-4.415-3.058c-.561 0-1.098.104-1.598.283l-19.194-42.005a4.729 4.729 0 002.412-4.117 4.731 4.731 0 00-4.725-4.726 4.73 4.73 0 00-4.725 4.726 4.73 4.73 0 004.725 4.726 4.69 4.69 0 001.597-.283l19.194 42.005a4.726 4.726 0 00-2.411 4.117 4.72 4.72 0 001.976 3.836l-66.458 111.368a4.695 4.695 0 00-2.072-.484c-.378 0-.743.05-1.095.133l-15.722-47.835a4.732 4.732 0 002.882-4.351 4.731 4.731 0 00-4.725-4.726 4.725 4.725 0 00-4.23 2.63l-64.149-25.384c.13-.432.203-.89.203-1.366a4.73 4.73 0 00-4.726-4.725 4.731 4.731 0 00-4.725 4.725c0 1.172.431 2.243 1.14 3.07l-114.682 116.04-68.759-31.797a4.71 4.71 0 00.29-1.617 4.73 4.73 0 00-4.724-4.726 4.73 4.73 0 00-4.725 4.726c0 1.718.924 3.22 2.298 4.048l-43.232 88.03-89.063 15.145a4.729 4.729 0 00-4.57-3.549 4.73 4.73 0 00-4.725 4.726c0 .878.245 1.697.663 2.402l-44.54 31.628a4.715 4.715 0 00-3.61-1.681 4.731 4.731 0 00-4.724 4.726 4.732 4.732 0 003.377 4.527l-9.77 46.824-28.822 4.685a4.729 4.729 0 00-4.58-3.583 4.73 4.73 0 00-4.725 4.726c0 .568.106 1.111.291 1.617l-33.384 34.874-104.036 21.384a4.73 4.73 0 00-4.53-3.391 4.73 4.73 0 00-4.725 4.725c0 1.228.475 2.345 1.246 3.187l-49.512 53.618a4.699 4.699 0 00-2.901-1.005 4.728 4.728 0 00-4.719 4.613l-96.487 5.742a4.73 4.73 0 00-4.672-4.054 4.731 4.731 0 00-4.725 4.726 4.728 4.728 0 002.561 4.197l-15.69 37.883-59.617-5.823c0-.022.003-.044.003-.065a4.73 4.73 0 00-4.725-4.726 4.728 4.728 0 00-4.394 3l-74.715-22.334a4.731 4.731 0 00-4.623-5.697 4.73 4.73 0 00-4.726 4.726c0 .026.003.053.004.078L733.458 717l-75.801-67.29a4.69 4.69 0 00.947-2.825 4.73 4.73 0 00-4.725-4.726 4.73 4.73 0 00-4.725 4.726 4.7 4.7 0 001.296 3.24l-38.558 43.068-40.388-17.884a4.71 4.71 0 00.264-1.544 4.73 4.73 0 00-4.726-4.726c-1.43 0-2.71.64-3.577 1.647l-71.518-51.804a4.689 4.689 0 00.686-2.44 4.731 4.731 0 00-4.725-4.725 4.734 4.734 0 00-4.63 3.779l-77.03-9.16-24.86-82.892a4.73 4.73 0 002.997-4.393 4.73 4.73 0 00-4.725-4.726 4.722 4.722 0 00-4.02 2.252l-108.573-54.87 1.827-44.271a4.728 4.728 0 004.526-4.716 4.73 4.73 0 00-4.725-4.726 4.702 4.702 0 00-3.074 1.144l-46.965-46.28a4.706 4.706 0 001.096-3.023 4.733 4.733 0 00-3.364-4.523l12.921-61.003c.194.023.39.04.59.04a4.731 4.731 0 004.725-4.725 4.73 4.73 0 00-4.725-4.726 4.68 4.68 0 00-2.078.488L145.088 147.22a4.72 4.72 0 001.971-3.833 4.711 4.711 0 00-1.615-3.548l49.444-66.96c.72.446 1.568.709 2.477.709a4.731 4.731 0 004.725-4.726 4.73 4.73 0 00-4.725-4.726 4.726 4.726 0 00-4.714 4.513l-46.609 1.792 2.772-60.999a4.727 4.727 0 004.545-4.716A4.73 4.73 0 00148.634 0a4.73 4.73 0 00-4.725 4.726c0 .762.185 1.481.508 2.12L37.368 72.371a4.715 4.715 0 00-3.804-1.935 4.73 4.73 0 00-4.726 4.726 4.73 4.73 0 004.726 4.726c.359 0 .707-.045 1.044-.121l54.545 172.406a4.73 4.73 0 00-2.929 4.37c0 1.427.638 2.705 1.641 3.573l-55.681 76.628a4.69 4.69 0 00-2.446-.69 4.73 4.73 0 00-4.725 4.726 4.73 4.73 0 003.95 4.656L17.128 490.051a4.73 4.73 0 00-4.716 4.725 4.73 4.73 0 004.725 4.726c.396 0 .78-.054 1.148-.147l77.068 225.567a4.728 4.728 0 00-2.83 4.326c0 .354.042.698.116 1.03l-78.162 24.48a4.732 4.732 0 00-4.374-2.946c-1.24 0-2.367.485-3.211 1.269l-6.547-3.198-.346.708 6.343 3.097a4.699 4.699 0 00-.964 2.85 4.73 4.73 0 004.725 4.726c.503 0 .986-.08 1.44-.226L71.67 905.859a4.73 4.73 0 00-2.558 4.196c0 .298.032.59.085.875l-44.002 12.175a4.728 4.728 0 00-4.428-3.091 4.73 4.73 0 00-4.725 4.726 4.73 4.73 0 004.725 4.725 4.73 4.73 0 004.725-4.725c0-.3-.03-.593-.084-.876l44-12.179a4.73 4.73 0 004.43 3.096c.495 0 .971-.078 1.42-.22l53.706 131.114a4.728 4.728 0 00-2.577 4.205 4.73 4.73 0 004.725 4.725 4.73 4.73 0 004.725-4.725c0-.395-.055-.776-.146-1.143l83.69-28.49 96.414 76.772a4.695 4.695 0 00-.797 2.623 4.731 4.731 0 004.725 4.726 4.731 4.731 0 004.725-4.726c0-.763-.185-1.481-.508-2.12l99.098-60.636a4.716 4.716 0 003.804 1.936 4.73 4.73 0 004.474-3.217l130.272 32.172c-.04.243-.065.49-.065.744a4.731 4.731 0 004.725 4.726 4.73 4.73 0 004.725-4.726 4.73 4.73 0 00-3.249-4.485l19.424-81.338 138.996 26.334a4.73 4.73 0 004.7 5.215 4.73 4.73 0 004.724-4.726 4.72 4.72 0 00-1.693-3.619l47.56-67.469 50.68 3.727a4.73 4.73 0 004.723 4.678 4.731 4.731 0 004.725-4.726 4.69 4.69 0 00-.8-2.626l102.447-81.67a4.708 4.708 0 003.432 1.485 4.73 4.73 0 004.725-4.725c0-.41-.058-.806-.156-1.187l124.173-43.613a4.73 4.73 0 004.308 2.797 4.73 4.73 0 004.725-4.726c0-1.414-.626-2.68-1.612-3.548l29.658-40.115c.722.448 1.57.71 2.479.71a4.73 4.73 0 004.701-5.192l66.433-12.26a4.73 4.73 0 004.554 3.484 4.73 4.73 0 004.725-4.726c0-1.724-.93-3.23-2.312-4.056l19.918-40.91a4.67 4.67 0 001.705.324 4.727 4.727 0 004.668-4.031l63.668 4.099a4.728 4.728 0 004.72 4.634 4.73 4.73 0 004.726-4.726 4.705 4.705 0 00-1.415-3.365l36.08-43.401a4.694 4.694 0 002.705.856 4.73 4.73 0 004.725-4.726c0-.307-.032-.608-.088-.9l87.322-24.675a4.729 4.729 0 004.418 3.068 4.73 4.73 0 004.721-4.64l86.073-5.602a4.729 4.729 0 004.654 3.94 4.73 4.73 0 004.725-4.725 4.704 4.704 0 00-1.294-3.24l16.682-32.974a4.695 4.695 0 001.774.349 4.73 4.73 0 004.574-3.564l39.176 6.53c-.01.128-.02.255-.02.385a4.731 4.731 0 004.725 4.725 4.72 4.72 0 003.982-2.19l82.271 43.183a4.697 4.697 0 00-.373 1.84 4.731 4.731 0 004.725 4.725 4.73 4.73 0 004.725-4.725c0-.194-.014-.384-.038-.571l95.991-19.911 43.017 98.475a4.731 4.731 0 00-2.48 4.157 4.73 4.73 0 004.726 4.726 4.73 4.73 0 004.199-2.567l125.679 51.845a4.698 4.698 0 00-.223 1.43 4.73 4.73 0 004.725 4.726 4.701 4.701 0 003.206-1.263l52.013 47.513 1.4 124.883a4.73 4.73 0 00-4.278 4.703 4.73 4.73 0 004.725 4.726c.397 0 .78-.055 1.15-.147l43.262 126.48a4.731 4.731 0 00-3.377 4.527c0 .667.14 1.301.392 1.877l-50.936 49.69a4.702 4.702 0 00-3.091-1.159 4.73 4.73 0 00-4.725 4.726 4.73 4.73 0 004.725 4.726 4.73 4.73 0 004.725-4.726c0-1.14-.407-2.188-1.082-3.005l50.774-49.533a4.72 4.72 0 003.943 2.13 4.73 4.73 0 004.725-4.726 4.701 4.701 0 00-1.215-3.154l51.603-54.813a4.694 4.694 0 002.937 1.031 4.73 4.73 0 004.725-4.726 4.732 4.732 0 00-3.696-4.61l31.8-232.56c.082.005.164.012.247.012a4.73 4.73 0 004.725-4.726 4.73 4.73 0 00-4.725-4.725c-1.28 0-2.44.514-3.293 1.343l-78.173-67.902 50.635-75.64c.679.38 1.46.597 2.29.597a4.73 4.73 0 004.726-4.726 4.732 4.732 0 00-3.687-4.607l6.052-41.042c.099.007.197.016.297.016a4.73 4.73 0 004.725-4.726 4.73 4.73 0 00-4.725-4.725c-1.56 0-2.943.762-3.803 1.933l-104.66-64.11a4.687 4.687 0 00.509-2.12c0-.087-.009-.17-.013-.255l97.06-13.43a4.731 4.731 0 004.607 3.69 4.73 4.73 0 004.725-4.726 4.73 4.73 0 00-4.725-4.726c-.81 0-1.572.206-2.24.566l-58.65-90.025a4.716 4.716 0 001.829-3.726 4.723 4.723 0 00-2.164-3.966l53.737-100.733a4.697 4.697 0 004.607-.493l58.404 69.005a4.711 4.711 0 00-1.384 3.339 4.73 4.73 0 004.725 4.726 4.73 4.73 0 004.725-4.726 4.73 4.73 0 00-4.725-4.726z" id="Fill-1" fill="#333" mask="url(#mask-2)"/></g><g id="Group-55" opacity=".226" transform="translate(683 115)"><path d="M482 469.81L514.964 489c9.95-20.845 16.244-43.789 18.036-68h-38.06A151.36 151.36 0 01482 469.81" id="Fill-1" stroke="url(#linearGradient-3)"/><path d="M407.788 545c-15.093 6.864-31.524 11.33-48.788 12.936V596c24.2-1.803 47.145-8.097 68-18.043L407.788 545z" id="Fill-3" stroke="url(#linearGradient-4)"/><path d="M576.796 525c15.638-32.137 25.22-68.023 27.204-106h-37.877c-1.88 30.82-9.652 59.982-22.123 86.268L576.796 525z" id="Fill-5" stroke="url(#linearGradient-5)"/><path d="M532.702 595.036A262.189 262.189 0 00567 553.271L533.287 534a224.299 224.299 0 01-28.073 33.834A224.511 224.511 0 01471 595.626L490.462 629a263.638 263.638 0 0042.24-33.964" id="Fill-7" stroke="url(#linearGradient-6)"/><path d="M443.065 604c-26.54 12.896-55.972 20.926-87.065 22.88V666c38.344-2.061 74.552-11.961 107-28.106L443.065 604z" id="Fill-9" stroke="url(#linearGradient-7)"/><path d="M678 421h-38.736c-2.09 42.997-13.49 83.577-32.264 119.76L640.57 560c22.005-41.877 35.293-89.012 37.43-139" id="Fill-11" stroke="url(#linearGradient-8)"/><path d="M580.424 643.42A327.77 327.77 0 00625 587.915L592.23 569a289.708 289.708 0 01-38.523 47.688A290.598 290.598 0 01506 655.238L524.913 688a327.946 327.946 0 0055.511-44.58" id="Fill-13" stroke="url(#linearGradient-9)"/><path d="M478.765 669C442.57 687.771 401.988 699.18 359 701.27V740c49.982-2.149 97.12-15.435 139-37.447L478.765 669z" id="Fill-15" stroke="url(#linearGradient-10)"/><path d="M689 626.162L655.824 607a366.622 366.622 0 01-50.574 63.22A365.914 365.914 0 01542 720.81L561.172 754a404.276 404.276 0 0071.157-56.7A404.975 404.975 0 00689 626.163" id="Fill-17" stroke="url(#linearGradient-9)"/><path d="M359 771.681V811c63.8-2.278 123.883-19.346 177-47.949L516.564 729C469.199 754.288 415.737 769.452 359 771.681" id="Fill-19" stroke="url(#linearGradient-11)"/><path d="M719.231 639a446.749 446.749 0 01-63.4 79.8A447.704 447.704 0 01576 782.24L595.491 816a487.05 487.05 0 0087.89-69.623A487.633 487.633 0 00753 658.505L719.231 639z" id="Fill-21" stroke="url(#linearGradient-9)"/><path d="M427 233.036c-20.827-9.95-43.78-16.244-68-18.036v38.06c17.282 1.618 33.695 6.086 48.793 12.94L427 233.036z" id="Fill-24" stroke="url(#linearGradient-4)"/><path d="M451.752 248L432 282.22a156.862 156.862 0 0119.922 16.85A158.523 158.523 0 01468.787 319L503 299.25A196.582 196.582 0 00451.752 248" id="Fill-26" stroke="url(#linearGradient-9)"/><path d="M514.957 324L482 343.176A151.195 151.195 0 01494.948 392H533c-1.792-24.219-8.085-47.17-18.043-68" id="Fill-28" stroke="url(#linearGradient-3)"/><path d="M155 392h38.06A151.556 151.556 0 01206 343.17L173.036 324c-9.972 20.825-16.256 43.785-18.036 68" id="Fill-30" stroke="url(#linearGradient-3)"/><path d="M281.2 266c15.093-6.865 31.536-11.333 48.8-12.94V215c-24.212 1.792-47.156 8.087-68 18.036L281.2 266z" id="Fill-32" stroke="url(#linearGradient-4)"/><path d="M463 172.106C430.557 155.96 394.34 146.049 356 144v39.12c31.1 1.966 60.527 9.984 87.06 22.88L463 172.106z" id="Fill-34" stroke="url(#linearGradient-7)"/><path d="M471 220.37a226.105 226.105 0 0134.183 27.765 223.426 223.426 0 0128.1 33.865L567 262.731a262.493 262.493 0 00-34.326-41.783A265.147 265.147 0 00490.464 187L471 220.37z" id="Fill-36" stroke="url(#linearGradient-6)"/><path d="M84 392h37.881c1.88-30.816 9.639-59.976 22.119-86.258L111.21 286C95.576 318.146 85.984 354.015 84 392" id="Fill-38" stroke="url(#linearGradient-5)"/><path d="M159.31 220.968a262.287 262.287 0 00-34.31 41.77L158.725 282a224.193 224.193 0 0128.073-33.838A225.717 225.717 0 01221 220.366L201.538 187a264.08 264.08 0 00-42.228 33.968" id="Fill-40" stroke="url(#linearGradient-6)"/><path d="M245.935 206c26.527-12.896 55.96-20.926 87.065-22.88V144c-38.356 2.05-74.564 11.961-107 28.118L245.935 206z" id="Fill-42" stroke="url(#linearGradient-7)"/><path d="M498 110.442C456.117 88.425 408.986 75.149 359 73v38.736c42.992 2.09 83.577 13.502 119.751 32.264L498 110.442z" id="Fill-44" stroke="url(#linearGradient-10)"/><path d="M134.277 197.312A289.507 289.507 0 01182 158.762L163.073 126a327.86 327.86 0 00-55.516 44.58C90.776 187.373 75.803 205.975 63 226.073L95.762 245a290.246 290.246 0 0138.515-47.688" id="Fill-46" stroke="url(#linearGradient-9)"/><path d="M210.246 144c36.18-18.76 76.758-30.18 119.754-32.27V73c-49.99 2.149-97.112 15.435-139 37.447L210.246 144z" id="Fill-48" stroke="url(#linearGradient-10)"/><path d="M148 93.413L128.709 60a407.518 407.518 0 00-71.64 57.092A407.334 407.334 0 000 188.71L33.413 208a368.548 368.548 0 0150.907-63.657A369.861 369.861 0 01148 93.413" id="Fill-50" stroke="url(#linearGradient-9)"/></g></g></g></g></svg>