<svg version="1.1" id="Layer_1" xmlns="http://www.w3.org/2000/svg" x="0" y="0" viewBox="0 0 2193 1146" xml:space="preserve" enable-background="new 0 0 2193 1146"><g id="Group-3" opacity=".179"><defs><filter id="Adobe_OpacityMaskFilter" filterUnits="userSpaceOnUse" x="0" y="0" width="2193" height="1146"><feColorMatrix values="1 0 0 0 0 0 1 0 0 0 0 0 1 0 0 0 0 0 1 0"/></filter></defs><mask maskUnits="userSpaceOnUse" x="0" y="0" width="2193" height="1146" id="mask-3_1_"><g filter="url(#Adobe_OpacityMaskFilter)"><path id="path-2_1_" fill-rule="evenodd" clip-rule="evenodd" fill="#fff" d="M0 0h2193v1146H0z"/></g></mask><path id="Fill-1" d="M2067.5 395.2c-.5-.2-1.1-.3-1.6-.4l-3-83.2 56.7-19.3c.4.9 1 1.6 1.8 2.1l-53.9 100.8zm59 98.5c-.6.5-1.1 1-1.4 1.7l-83.6-31.3 22.8-60c.4.1.8.2 1.3.2.8 0 1.6-.2 2.2-.6l58.7 90zm-98.9 17.4c-.3-1.5-1.4-2.7-2.7-3.3l16.3-43 83.6 31.3c-.1.4-.2.8-.2 1.3v.3l-97 13.4zm103.9 68c-.2.3-.3.6-.4 1l-55.2-8.7-49.3-56.1c.1-.1.1-.2.2-.3l104.7 64.1zm-2.9 47.7h-.3c-1.1 0-2 .3-2.8.9l-24-27.3 30.2-16.7c.7 1 1.7 1.7 2.9 2l-6 41.1zm-53.8 84l-19.7-17.1-1.8-62c2.1-.2 3.8-1.9 4.1-4l66.2 4c0 1.4.7 2.7 1.8 3.6l-50.6 75.5zm78.3 69c-.6.8-.9 1.7-.9 2.8 0 1.1.4 2.1 1 3l-81.5 77.4c-.8-.7-1.9-1.2-3.1-1.2h-.1l-11.7-117.5c2.2-.4 3.9-2.3 3.9-4.6 0-1.5-.7-2.8-1.8-3.7l16-24 78.2 67.8zm-29.3 240c-.4 0-.8.1-1.2.2l-19.7-56.3 52.9-176.1-31.8 232.2h-.2zm-101.9-64.9c.7-.3 1.2-.7 1.7-1.3l67.2 47.8-24 80.1c-.3-.1-.6-.1-1-.1h-.6l-43.3-126.5zm16.6-115.3l-18.1 106.3h-.1l-1.4-124.2 19.6 17.9zm-71.9-66.7c.6-.8 1-1.8 1-2.9 0-.4 0-.7-.1-1.1l49.9-16.3.8 67.2-51.6-46.9zM1833 716c.1-.5.2-.9.2-1.4 0-.3 0-.6-.1-.9l74-21.1 52.7 73.9c-.5.4-.9.9-1.1 1.4L1833 716zm-48.9-104.2l23.7-4.9 19.5 103.2c-.1 0-.2.1-.3.1l-42.9-98.4zm-97 19.3c-.1-.3-.2-.7-.4-1l80.5-54.9 15.7 36-95.8 19.9zm-90.8-44.4c.2-.6.4-1.2.4-1.8v-.3l111.1-16.9-23.8 60.2c-.4-.1-.9-.2-1.4-.2-1.7 0-3.1.9-4 2.2l-82.3-43.2zm-48.1-9.5v-.4c0-2-1.3-3.7-3-4.4l24.4-84.8 14.3 1.1 7.3 91.5c-1.9.3-3.4 1.7-3.8 3.5l-39.2-6.5zm-23.7 36.4c-.8-.6-1.8-.9-2.8-.9-1.3 0-2.5.5-3.3 1.4l-41.3-34.7 46.1-40.7c.8.8 2 1.3 3.3 1.3.5 0 1-.1 1.4-.2l13.6 32.9c-1.5.8-2.6 2.4-2.6 4.2 0 1.7.9 3.2 2.3 4l-16.7 32.7zm-93.6 9.4c-.1-.8-.4-1.5-.9-2.1l46.4-41 41.4 34.8c-.5.8-.9 1.7-.9 2.7l-86 5.6zm-140.5 74.7c-.4-.3-.8-.5-1.3-.6l13.1-58.6 23.2 10.8c-.2.5-.3 1.1-.3 1.6 0 1.3.5 2.5 1.4 3.4l-36.1 43.4zm-98.1 44.1c-.5-.2-1.1-.3-1.7-.3h-.4l-5.6-33.4 25.7-9.3c.4.9 1.1 1.6 1.9 2.1l-19.9 40.9zm-72.8 17.1c-.3-1.3-1.2-2.3-2.4-2.9l4-9.4h64.8v.1l-66.4 12.2zm-37.3 44.9c-.6-.4-1.4-.6-2.2-.7l-.9-35 31.3-6.6c.3.9.8 1.6 1.4 2.2l-29.6 40.1zM951 852.6c-.1-.3-.3-.5-.4-.8l51.1-42.1 73.3-1.4c0 .2.1.5.1.7L951 852.6zm-110.7 86.3c-.4-.4-.8-.7-1.3-1L889.4 816c.5.1.9.2 1.4.2 1.4 0 2.6-.6 3.5-1.5l48.4 37.3c-.5.7-.8 1.6-.8 2.6s.3 1.9.8 2.6l-102.4 81.7zm-33.1-37.1l26.5 36.7c-.8.7-1.4 1.7-1.6 2.8l-50.2-3.7 25.3-35.8zm-74 103.7c-.2-.1-.4-.2-.7-.3l20.4-68.8 27.6 2-47.3 67.1zm-145.9-23.6l12.5-52.5c.2 0 .5.1.7.1 1.5 0 2.9-.7 3.7-1.8l122.4 79.6c-.2.3-.3.6-.4 1l-138.9-26.4zm-20.3 82c-.2 0-.5-.1-.7-.1-.5 0-1 .1-1.4.2l-36.2-89c1.2-.6 2.1-1.7 2.4-2.9l55.3 10.5-19.4 81.3zm-135.5-29.1c0-.2.1-.5.1-.7 0-.8-.2-1.5-.5-2.2l91.8-58.2c.9 1.1 2.2 1.9 3.8 1.9.5 0 1-.1 1.4-.2l36.2 89c-1.1.6-1.9 1.5-2.3 2.7l-130.5-32.3zm-108 62.1c-.9-1.2-2.2-1.9-3.8-1.9-.4 0-.8.1-1.2.1l-30.6-89.2 134.2 27.7v.6c0 .8.2 1.5.5 2.1l-99.1 60.6zm-103.2-77l51.4-17.5 15.4 3.2 30.7 89.7c-.6.3-1.1.6-1.5 1.1l-96-76.5zm-45.3-36c.3-.4.5-.8.6-1.3l94.6 19.5-50.6 17.2-44.6-35.4zm-39.6 64.1c-.4-.8-.9-1.5-1.6-2l35.2-60.5c.6.3 1.3.5 2 .5 1.4 0 2.6-.6 3.4-1.5l44.2 35.2-83.2 28.3zM76 914.3c.5-.3 1-.7 1.4-1.1l89.6 65.6c-.4.7-.7 1.6-.7 2.5 0 1.6.8 3 2 3.9l-35.2 60.5c-.6-.3-1.3-.5-2-.5-.5 0-1 .1-1.4.2L76 914.3zM12.3 760.7c1.2-.6 2-1.7 2.4-3l73.8 36-14.4 111.6h-.2c-.5 0-1 .1-1.4.2L12.3 760.7zM92.9 731c.6 1.4 1.8 2.5 3.4 2.8L88.6 793l-73.8-36v-.4c0-.4 0-.7-.1-1L92.9 731zM19 499.1c.8-.4 1.5-.9 2-1.7l72 40.4c-.3.6-.4 1.3-.4 2 0 2.5 1.9 4.5 4.3 4.7v180.1c-.3 0-.5.1-.8.1L19 499.1zm69.5-238.5c.7.4 1.5.7 2.4.7h.2l10.4 86.5-67-6.9v-.1c0-1.4-.6-2.7-1.6-3.6l55.6-76.6zM35.4 79.5c.8-.3 1.5-.9 2-1.5l100.8 63.2c-.3.6-.5 1.4-.5 2.2 0 1.8 1 3.3 2.4 4.1L92.5 252.1c-.5-.2-1-.3-1.6-.3-.4 0-.7 0-1 .1L35.4 79.5zm109.4-72c.7 1 1.9 1.7 3.2 1.9l-2.8 61.1-107 4.1c0-.6-.2-1.1-.4-1.6l107-65.5zm47.9 61.9c.1 1.2.7 2.2 1.6 3l-49.4 67c-.6-.3-1.2-.6-1.9-.7l3.1-67.5 46.6-1.8zm-154.4 6l106.9-4.1-3.1 67.4c-1.5.1-2.8.8-3.6 1.9L37.8 77.3c.3-.6.4-1.2.5-1.9zm188.8 210.4c-.8.6-1.4 1.4-1.7 2.4l-129.8-31c0-.2.1-.5.1-.7 0-1.8-1-3.3-2.4-4.1l47.5-104.6c.5.2 1 .3 1.6.3.7 0 1.4-.2 2.1-.5l82.6 138.2zm-11.5 69.4h-.6c-1.3 0-2.5.5-3.4 1.4l-30.5-25.4 45.4-38.2c.5.5 1.2 1 2 1.2l-12.9 61zm7.9 84.5c.2-.5.3-1.1.3-1.8 0-.6-.1-1.2-.4-1.8l41.2-20.9c.7 1.2 2 2 3.4 2.2l-1.8 43.9-42.7-21.6zm151.8 77.6c-.2.5-.3 1.1-.3 1.8 0 .5.1.9.2 1.4l-108.5 42.9c-.7-1.4-2-2.4-3.6-2.6l4-98.1 108.2 54.6zm30.1 88.9l-64.7-7.7v-.2c0-1.6-.8-3.1-2.1-3.9l39.2-71.1c.6.3 1.2.4 1.9.4.3 0 .7 0 1-.1l24.7 82.6zm77.8 10.1v.2c0 1.4.7 2.7 1.7 3.6l-50.2 70.4c-.7-.4-1.5-.7-2.4-.7-.3 0-.7 0-1 .1l-24.8-82.7 76.7 9.1zm79.8 55c-.4.7-.7 1.5-.7 2.4v.3l-38.4 5.9-33.4-59.6c.3-.2.7-.5.9-.8l71.6 51.8zm48.3 22.5l-14.7 16.5-26.3-33.1c.4-.3.7-.7.9-1.2l40.1 17.8zm39.7-43.1c.1.1.3.2.4.3l-23.7 49.3-15.1-6.7 38.4-42.9zm31.8 71.4c-.4-2.2-2.3-3.9-4.6-3.9-.4 0-.7 0-1.1.1l-21.4-67.1c.5-.2 1-.6 1.5-.9l75.3 66.8-49.7 5zm155.7-14.8c.1.3.2.7.3 1L766.1 746l-31.9-28.3 104.3-10.4zm83.7 23.2c-.1.3-.1.6-.1 1 0 .8.2 1.6.6 2.3L904 746.6l-56.8-37.8.3-.6 74.7 22.3zm68.7 7.6l-19.9 48c-.5-.1-.9-.2-1.4-.2-.9 0-1.7.3-2.4.7L929.9 735c.8-.7 1.4-1.6 1.6-2.7l59.4 5.8zm16.7-38.4c.5.1.9.2 1.4.2.8 0 1.5-.2 2.2-.5l26.6 42.4-45.8-4.5 15.6-37.6zm270.8-93l-22.9 23.9-80-2.4v-.3l102.9-21.2zm34.7-35.1c.4.7 1.1 1.3 1.8 1.8l-12.3 27.6-21.9 4.5 32.4-33.9zm36.7-4.3l-25.8 1.2 26.5-4.3-.7 3.1zm11.4-50.6h.6c.7 0 1.4-.2 2-.5l23.7 41.1-36 5.9 9.7-46.5zm49.1-38.7c.9 1 2.2 1.7 3.6 1.7.6 0 1.2-.1 1.7-.3l20.9 42.8-70.1-9.9v-.3c0-.9-.2-1.7-.7-2.4l44.6-31.6zm96.9-18.5l-10.6 21.5-77.9-6.1v-.4l88.5-15zm44.3-88.6c.2.1.4.1.6.2l-13.1 82.1-30.5 5.2 43-87.5zm74.3 29.7l-41.9 42.4c-.8-.7-1.9-1.1-3-1.1-.4 0-.8.1-1.2.2l-24.6-71.1c.9-.4 1.7-1.1 2.2-2l68.5 31.6zm115.9-116.1c.4.3.8.6 1.3.8l-42.9 144.1c-.4-.1-.7-.1-1.1-.1-1.8 0-3.3 1-4.1 2.4l-67.7-31.3 114.5-115.9zm71.4 23.8c-.1.4-.2.9-.2 1.4 0 1.2.5 2.3 1.2 3.1l-35 36.6-31.9-64.6c.8-.5 1.4-1.1 1.8-1.9l64.1 25.4zm21.3 53.8c-1.7.7-2.9 2.4-2.9 4.4 0 .6.1 1.2.3 1.7l-35 17.2-6.2-12.6 25.5-58.6c.5.2 1 .3 1.5.3.4 0 .7 0 1.1-.1l15.7 47.7zm71.1-110.8c.5.2 1 .4 1.5.5l-2 67.9-65.1 43.9-.9-.9 66.5-111.4zm148.6-45.6c.2.5.5 1 .9 1.4l-29.4 30.2c-.8-.7-1.9-1.1-3-1.1-2.6 0-4.6 2-4.7 4.6l-105.6 5.6v-.3l141.8-40.4zm-39.9 121.7c-.6-1.4-1.8-2.4-3.3-2.7l11.3-79h.3c2.6 0 4.7-2.1 4.7-4.7 0-1.2-.4-2.3-1.2-3.1l29.4-30.2c.8.6 1.7 1 2.8 1.1l3.7 102.4-47.7 16.2zm48.8 68.2l-49.9-62.9c.9-.9 1.5-2.1 1.5-3.4 0-.4-.1-.8-.1-1.1L2062 312l3 82.9c-.7 0-1.4.3-2 .7zm-97.1 40.2c.1-.4.2-.8.2-1.3 0-.4-.1-.8-.1-1.1l95.4-32c.5 1 1.3 1.9 2.3 2.4l-22.8 60-75-28zm57.1 71.6c-1 0-1.9.3-2.6.8l-55.8-70.3c.4-.4.8-.9 1-1.4l74.9 28.1-16.3 43c-.4-.1-.8-.2-1.2-.2zm14.2 57.8l-12.6-48.6c.5-.2 1-.5 1.5-.8l48.7 55.4-37.6-6zm-16.7 98.5c.6-.8.9-1.7.9-2.8 0-1.1-.4-2.1-1-2.9l29.2-27.5c.8.7 1.8 1.2 2.9 1.2l1.7 61.2-33.7-29.2zm34.9 71.2c-.4 0-.8.2-1.2.3l-35-70.3c.3-.2.6-.4.8-.7l34.3 29.8 1.1 40.9zm.8 0l-1.1-40.2 19.3 16.7-16.1 24.1c-.7-.3-1.3-.5-2.1-.6zm-4.6 6.6c.6 1.3 1.7 2.4 3.2 2.7l-16.1 94.5-19.8-18-.8-68.2 33.5-11zm-34.4-75.9c.5 0 .9-.2 1.3-.3l35 70.3c-1.4.8-2.3 2.3-2.3 4 0 .4 0 .7.1 1.1l-33.2 10.8-.9-85.9zM1965.3 766l49.7-100.7c.4.2.9.3 1.4.3l1 86.2-50.1 16.3c-.4-.9-1.1-1.6-2-2.1zm7.6-92.2l-9.8 91.5h-.1c-.9 0-1.7.2-2.4.7l-52.5-73.6 64.8-18.6zm-88.5-14.5l32.8-32.8 58.5 20.5-2.8 26-65.5 18.7-23-32.4zm-52.3 52.2l51.7-51.7 22.8 32-73.7 21c-.1-.4-.4-.9-.8-1.3zm4.6-110.7c.5 1.7 1.9 3 3.6 3.3l-11.7 105.7h-.6l-19.5-103.2 28.2-5.8zm-37.3-42.7c.6-.2 1.2-.5 1.7-.9l36.7 39.1c-.8.8-1.2 1.9-1.2 3.2v.6l-28.2 5.8-9-47.8zm-4.9-1.6c.9 1.1 2.2 1.7 3.7 1.7h.5l9 47.8-23.9 5-15.9-36.3 26.6-18.2zm-33.2 3.1l32.3-4.9c.1.4.3.9.5 1.2l-26.5 18.1-6.3-14.4zm-165.1 23.2l134.1-81.2c.4 1.3 1.3 2.3 2.4 2.9l-24.7 62.4-111.5 16.9c0-.4-.1-.7-.3-1zm59.1-88.5l-61 86.5c-.7-.4-1.5-.7-2.4-.7l-7.3-91.4 70.7 5.6zm-73.6-43.1c1.6-.3 2.9-1.3 3.5-2.7l82.2 28.6-11.6 16.5-71.2-5.6-2.9-36.8zm-1.7 0c.3.1.6.1.9.1l2.9 36.6-14.1-1.1 10.3-35.6zm-22.8 34.6l21.6-35c.1.1.3.1.5.2l-10.3 35.8-11.8-1zm-96.5 79.8c.5-.8.9-1.7.9-2.7 0-.5-.1-.9-.2-1.4l60.8-24.2c.1.3.3.5.4.7l-46.2 40.8-15.7-13.2zm-31.2 54.7c-.2-.2-.5-.4-.8-.6l26.4-52.4c.5.2 1.1.3 1.8.3 1.3 0 2.5-.5 3.4-1.4l15.6 13.1-46.4 41zm-125.8 11.2l31.2-1.9-4.3 16.6c-.3 0-.5-.1-.8-.1-1.8 0-3.3 1-4.1 2.4l-23.4-10.9 1.4-6.1zm-10 2.1c.2-.5.3-1 .3-1.5l8.9-.5-1.3 5.8-7.9-3.8zm-5.5 63.2l1.3-60.1c1.6-.1 3-1 3.8-2.4l8.1 3.8-13.1 58.8s0-.1-.1-.1zm-68.9-1l29.8-9.7c.7 1.7 2.4 2.9 4.4 2.9 1.7 0 3.2-.9 4-2.3l25.9 13.1c-.1.3-.2.7-.3 1.1l-63.7-4.1c0-.4-.1-.7-.1-1zm-36.9-1.1l27.5 2.2c0 .4.1.8.2 1.2l-25.6 9.2-2.1-12.6zm-28.1 23.5l-16-12.1 6.1-14.4 37.2 2.9 2.2 13-29.5 10.6zm32.8 24.8l-32-24.2 28.9-10.4 5.5 33.3c-1 .2-1.8.7-2.4 1.3zm-71.8 2.8v-12.6l12.6-4.5-7.3 17.2h-5.3zm0 9.7v-8.9h4.9l-3.9 9.1c-.2-.1-.6-.2-1-.2zm-36.7-4.6c1.7-.2 3.1-1.2 3.7-2.7l28 10.6c-.1.4-.2.8-.2 1.3v.6l-31.2 6.5-.3-16.3zm-21.1 20.9l-3.4-5.3 20.6-16.9c.8.8 1.9 1.3 3.1 1.4l.4 16.5-20.7 4.3zm20 31.9l-19.5-31.1 20.3-4.3.9 34.9c-.6 0-1.2.2-1.7.5zm-114.4 6l5.2-14.5c.4.1.8.2 1.2.2 2.2 0 4.1-1.5 4.6-3.6l40.4 6.3-13.2 10.9-38.2.7zm-14.5 40.6l14.3-39.8 37.5-.7-50.4 41.5c-.4-.4-.9-.8-1.4-1zm-53.1-38.5l43.7-.8 6.3 39c-.9.2-1.7.7-2.3 1.4l-48.4-37.3c.4-.7.7-1.5.7-2.3zm-58.6 125.6l-5.2-70.3 41.2-58.4 13.2 2.4v.4c0 1.8 1 3.4 2.6 4.2l-50.4 121.9c-.5-.1-.9-.2-1.4-.2zm-5.9-69.3l5.1 69.4c-.6.1-1.2.3-1.7.6l-26.7-36.9 23.3-33.1zm-52.1-6.8c1-.9 1.7-2.2 1.7-3.6 0-1.3-.5-2.4-1.3-3.3l44.4-50.6c.8.6 1.7.9 2.8.9l4.6 62.1-23.7 33.6-28.5-39.1zm-4 1c.3.1.6.1 1 .1.9 0 1.7-.3 2.4-.7l28.5 39.4-25.8 36.5-27.9-2.1 21.8-73.2zm-59.2 70.5l-9.7-48 65.5-25.1c.5 1.1 1.4 1.9 2.5 2.4l-21.8 73.4-36.5-2.7zm15.1 72h-.5l-14.4-71.2 36.2 2.7-20.3 68.6c-.3-.1-.6-.1-1-.1zm-125.6-79.3l72.9 5.4 49.8 75c-.3.2-.6.5-.8.8L604.7 927c.3-.5.5-1 .5-1.5zm-74.5 43.2l66.1-41.1c.6.8 1.4 1.4 2.3 1.7l-12.6 52.6-55.3-10.5v-.5c.1-.9-.1-1.6-.5-2.2zm-101.1 61.5l46.1-78.4c.6.3 1.3.5 2 .5 1.7 0 3.3-.9 4.1-2.4l40.3 19.2c-.2.5-.3 1.1-.3 1.7 0 .8.2 1.5.5 2.2l-91.8 58.2c-.2-.3-.5-.7-.9-1zm-144.4-32.4l96.4-32.8c.7 1.7 2.4 2.8 4.3 2.8.7 0 1.4-.2 2-.5l36.2 62.8c-.9.6-1.5 1.5-1.8 2.5L287.7 1005l-2.5-7.2zm-.7.3l2.3 6.7-13.7-2.8 11.4-3.9zm-108.9-18l88-29.5c.7 1.7 2.4 2.9 4.3 2.9.4 0 .8-.1 1.2-.1l15.1 44-12.6 4.3-95.9-19.8v-.6c.1-.4 0-.8-.1-1.2zm-97.2-68.7l106.3 21.2-12.7 44c-.3-.1-.6-.1-.9-.1-1.4 0-2.7.6-3.6 1.6l-89.6-65.7c.2-.2.4-.6.5-1zm68.6-89l-70.5 83.8c-.5-.4-1.1-.6-1.7-.8l14.4-111.3 57.8 28.3zM97.2 734c2 0 3.7-1.2 4.4-3l97.7 29.2-51.8 61.6-58.2-28.4L97 734h.2zM21.8 493.9l79.7-22.4-4.3 63.6c-1.6 0-3 .8-3.8 2.1l-71.9-40.4c.3-.6.4-1.3.4-2 0-.3-.1-.6-.1-.9zm11.6-150.2l69.7 46.7c-.4.7-.6 1.5-.6 2.3 0 1.3.5 2.4 1.3 3.3L20 491c-.6-.4-1.3-.7-2-.9l11.8-144.6c1.4 0 2.8-.7 3.6-1.8zm72.9 44.4c-1.1.2-2.1.8-2.7 1.7l-69.7-46.7c.2-.4.4-.9.5-1.4l67.2 6.9 4.7 39.5zm46.6-34.3l-42.3 35.6c-.9-.9-2-1.4-3.3-1.4h-.2l-4.7-39.4 50.5 5.2zm-58.6-93.9l85.6 71.3-26.2 22-51.5-5.3-10.4-86.7c1-.2 1.9-.7 2.5-1.3zM210.4 359l-55.5-5.7 25.7-21.6 30.6 25.5c-.4.5-.7 1.1-.8 1.8zm51.8 201.6c-.3 0-.6.1-.9.1L221 442.3c.9-.4 1.6-1 2.1-1.9l43.1 21.8-4 98.4zm167 130.3l-89.6-89.4c.5-.6.9-1.3 1-2.1l65 7.7 24.9 83c-.4.2-.9.4-1.3.8zm103.6 6.6L488.3 729l-51.9-32.4c.3-.6.5-1.4.5-2.2v-.3l86.5-13.3 9.4 16.7zm30.2-21.3l-29.5 20.9-9.2-16.4 38.1-5.9c.2.5.3 1 .6 1.4zm13.6 56.5l-8.4-54.3c.5-.1 1.1-.4 1.5-.7l26.4 33.2-19.5 21.8zm36-1l-25.9 53.9c-.5-.2-1.1-.3-1.7-.3h-.3l-8-51.6 19.8-22.2 16.1 20.2zm.4-.8l-15.9-20 15-16.8 15.3 6.8-14.4 30zm60.7-9.5c-.2.5-.3 1-.3 1.5 0 .9.3 1.7.7 2.4l-41.6 30-18.9-23.7 14.6-30.3 45.5 20.1zm71 35.7l-62.2-32.3c.2-.6.4-1.2.4-1.8v-.1l50.4-5.1 32.2 28.6-20.8 10.7zm36.4 3.3l-11.2 9.9-24.3-12.7L766 747l15.1 13.4zm58.2-51.2l-57.6 50.6-15-13.3 72.4-37.6c.1.1.2.2.2.3zm32.5 59.4l-26.3-58.1c.5-.3 1-.7 1.4-1.2l56.5 37.7-31.6 21.6zm39.8-16.1L883 793.1l-10.8-23.8 32-21.8 7.4 5zm12.2-17.5L912 751.8l-7.2-4.8 18.4-12.6c.2.2.4.5.6.6zm42.1 52.7l-33.1-22.1L928 736c.5-.1.9-.3 1.3-.5l37.2 51.6c-.2.1-.5.4-.6.6zm82.1-29.6l-74.3 30.4c-.4-.9-1.2-1.6-2-2.1l20-48.3 46.7 4.6 9.6 15.4zm25.4-12c0 .1 0 .1 0 0 0 .6.1 1 .2 1.5l-24.9 10.2-9.4-15 34.1 3.3zm-60.8-47.8l61.5 45.4c-.3.5-.5 1-.6 1.6l-34.7-3.4-26.9-43c.3-.1.5-.3.7-.6zm99.5-5.6l-31.7 49.4c-.7-.4-1.4-.6-2.2-.6-1.4 0-2.7.6-3.5 1.6l-61.5-45.4c.4-.7.7-1.5.7-2.4l96.5-5.7c.1 1.3.7 2.3 1.7 3.1zm6.8-1.2c.3-.5.6-1.1.7-1.8l24 1.9-5.9 14-18.8-14.1zm-36.5 52.7c-.3-.7-.8-1.3-1.4-1.8l31.7-49.4c.6.3 1.2.5 1.8.5v39l-32.1 11.7zm.4 1.6c0-.3-.1-.6-.1-.8l31.9-11.5v12.4h-31.8zm-33.6 12.7l24.7-10.1c.1.2.2.4.3.5l-20.5 16.9-4.5-7.3zm-6.5 16.4l-68.6 14.4v-.1l74.4-30.4 4.7 7.5-10.5 8.6zm1.6-.3l9.2-7.6 3.1 5-12.3 2.6zm-70.1 15.5l67.1-14.1-26 21.4-41.1-6.4v-.3c.1-.3.1-.5 0-.6zm-58.5-34.9l-14.8 32.9-8.5 19c-.5-.2-1-.3-1.6-.3-.6 0-1.1.1-1.6.3l-5.9-13.1 28.9-41 3.5 2.2zm8.9-19.6l-8.5 19-3.4-2.2 11.9-16.8c-.1-.1-.1-.1 0 0zm-7.9 19.3l8.6-19.1c.5.2 1 .3 1.6.3h.4l4.6 28.9-15.2-10.1zm20.6 43.9l-42 11.1c-.4-1.1-1.2-2-2.2-2.5l23.3-51.7 15.7 10.4 5.2 32.7zm27.6-7.3l-26.9 7.1-5.1-31.9 32.5 21.6c-.4.7-.6 1.5-.6 2.3 0 .3.1.6.1.9zm-82.1 3.2l5.8 12.7c-1.1.6-1.9 1.7-2.3 2.9l-12.9-2.3 9.4-13.3zm-51.7 5.8v-.4c0-.8-.2-1.6-.6-2.3l40.9-28 10.9 24.1-9.9 14-41.3-7.4zm-.1.8l41.1 7.3-40.4 57.3-4.5-61.1c1.8-.4 3.3-1.8 3.8-3.5zm-52.4 52.6c-.2-.1-.3-.2-.5-.3l20.2-45.4 23.7-6.5c.2.6.6 1.2 1 1.7l-44.4 50.5zm-81.5-13.5c1.4-.4 2.6-1.5 3.1-2.9l71 19.3c-.1.3-.1.6-.1.9 0 .5.1.9.2 1.3l-65.4 25-8.8-43.6zm-37.4 61.3l-13-19.5 45.8-42.8c.8.8 1.9 1.2 3.2 1.2h.5l8.8 43.7-45.3 17.4zm-131.3 64.8l9.6-29.7 58-10.8c.1.3.2.6.4.9L530.3 968c-.5-.7-1.1-1.2-1.9-1.5zm-46-19.4l54.7-10.2-9.5 29.3c-.3-.1-.7-.1-1.1-.1-1.7 0-3.3.9-4.1 2.4l-40.3-19.2c.2-.5.3-1.1.3-1.7v-.5zm-209.8 2.6l108.6 13.2v.2c0 .4.1.8.1 1.1L285 997.1l-15.1-44c1.4-.6 2.4-1.9 2.7-3.4zm-97.7 28.8l46-38.8 42.4 8.4v.5c0 .4.1.8.1 1.1l-88 29.5c-.1-.1-.3-.4-.5-.7zm45.1-38.9l-45.6 38.3c-.5-.5-1-.8-1.7-1.1l12.7-44.1 34.6 6.9zm-12.5-83.1c.3.1.6.1.9.1 1.5 0 2.9-.7 3.8-1.9l62.3 39-53.7 45.2-35-7 21.7-75.4zm-129.2 52l125.9-54.4c.5 1 1.4 1.8 2.5 2.2l-21.8 75.5-106.4-21.2v-.5c.1-.6 0-1.1-.2-1.6zM204 850.2c-.2.5-.3 1.1-.3 1.7 0 .5.1 1 .2 1.5L78 907.8c-.2-.4-.5-.8-.8-1.1l70.6-84 56.2 27.5zm19.9-82.6l-15 79.6h-.5c-1.7 0-3.2.9-4.1 2.3l-56-27.4 51.9-61.7 23.7 7.2zm8.6-45.5l-8.4 44.7-23.3-7 31.7-37.7zm-130.9 5.2l119-65.2 19.6 19.3-7.4 39.1-32.9 39.1-98-29.3c.1-.3.1-.6.1-1 0-.7-.2-1.4-.4-2zm51.3-132L98.7 724.8c-.3-.1-.7-.2-1.1-.2V544.5c1-.1 1.9-.5 2.7-1.1l52.6 51.9zm-51.1-54.4l69.3 10.7-17.9 42.9-52.3-51.7c.4-.5.8-1.2.9-1.9zm60.3-86.5l15.7 17.5-77.3 64.6c-.7-.7-1.6-1.2-2.6-1.3l4.4-63.9 59.8-16.9zm-54.8-57c1 0 2-.4 2.8-1l51.4 57.2-59.2 16.7 5-72.9zm103.1-36.6L111.7 391c-.1-.3-.3-.7-.5-1l42.9-36 56.3 5.8v.1c-.1.3-.1.6 0 .9zm4.5 75l-103.1-41.7c.1-.4.2-.9.2-1.4 0-.3 0-.7-.1-1l98.8-30.1c.7 1.7 2.3 2.9 4.2 3l3.6 68.7c-1.6.2-2.9 1.1-3.6 2.5zm44.6 125.8L197 491.9l20.7-49.5c.5.1.9.2 1.5.2.4 0 .8-.1 1.1-.1L260.5 561c-.3.2-.7.4-1 .6zm72.2 38.7L289 623.7l-24.3-54.2c.8-.4 1.4-1.1 1.9-1.8l65 29.2c-.2.5-.3 1-.3 1.6-.1.6.1 1.2.4 1.8zM453 754.1l-18.9-55.3c.8-.3 1.4-.9 1.9-1.5l51.6 32.3-34.6 24.5zm93.4 12.2l-62 69.2c-.8-.6-1.8-1-2.8-1-.4 0-.8.1-1.1.1l-27.2-79.8 35.1-24.9 58 36.4zm15.4-17.1L547 765.7l-57.9-36.2 44.1-31.3 28.6 51zm21.3 36.5l-20.4-36.4 13.3-14.9 7.9 51c-.3.1-.5.2-.8.3zm5.5 1.2c-.3-.4-.7-.7-1.2-1l25.7-53.5 18.6 23.4-43.1 31.1zm74.4 8c-.7.7-1.2 1.6-1.4 2.6l-71.8-7.4v-.1c0-.9-.3-1.7-.7-2.4l43.2-31.1 30.7 38.4zm14-67.4l-10.5 66.1h-.3c-1 0-1.9.3-2.6.8L633 756l41.6-29.9c.6.7 1.4 1.2 2.4 1.4zm11.4 58.9l-9.2-58.8c1.2-.3 2.2-1 2.9-2.1l61.7 32.1-55.4 28.8zm10.6 46.1c-.8-.8-2-1.3-3.3-1.3h-.3l-6.9-44 56.2-29.2 24.6 12.8-70.3 61.7zm-65.5 29.7l30.9-59.5c.6.2 1.2.4 1.8.4 1 0 1.9-.3 2.6-.8l23.7 30.1c-.9.9-1.5 2.1-1.5 3.5 0 1.1.4 2.1 1 2.9l-45.7 42.7-12.8-19.3zm-29.7 59c-.2-.2-.4-.4-.7-.5l30-57.7 12.6 19-41.9 39.2zm.5.6l41.9-39.1L659 902l-54.1 20.7-.6-.9zm-51.5-30.9l43.7 31.4c-.4.7-.7 1.5-.7 2.4v.5l-57.6 10.7 14.6-45zm-74.5 52l3.6-98.9c1.3-.1 2.5-.7 3.4-1.7l66.9 48.1-14.8 45.7-55.1 10.3c-.5-1.9-2.1-3.3-4-3.5zM386 958.4s-.1 0 0 0l-5.9-66.6 38.7-19.8 55.8 72.2c-.9.9-1.5 2.1-1.5 3.5v.4L390.6 962c-.6-2.1-2.4-3.6-4.6-3.6zM272.4 947l47.9-24.5 61.5 38.5c-.2.4-.3.8-.4 1.2L272.8 949v-.2c-.1-.7-.2-1.3-.4-1.8zm25.8-38.4l-27.6 36.2c-.7-.5-1.6-.7-2.5-.7-2.2 0-4 1.4-4.5 3.4l-41.8-8.3 53.4-45 23 14.4zm71-93.6l.2.2-70.8 92.8-22.9-14.3 93.5-78.7zm-156.1 36.2l155.1-38c.1.4.4.9.6 1.2l-93.7 78.8-62.5-39.1c.3-.6.5-1.4.5-2.2v-.7zm33.8-76.7l-36.8 73.1c-.2-.1-.3-.1-.5-.2l15-79.6 22.3 6.7zm7.7-78.8l21.3 21.1-28.7 57-22.5-6.7 8.7-46.2 21.2-25.2zm-.5-.5l-20.3 24.1 7-37.2 13.3 13.1zm78.5-93.5l-34.9 41.6-8.4-18.8L332 601c.2.3.4.5.6.7zm14.6 152.1l-41.9-93.6 28.9-57.5c.5.2 1.1.3 1.8.3h.4l24.3 141.3-13.5 9.5zm24.2 53.3c-.1 0-.3.1-.4.1l-23.5-52.6 13.3-9.4 10.6 61.9zm58.4-108.6l-55.4 108.8c-.6-.2-1.2-.4-1.8-.4h-.4l-10.7-62.2 67.2-47.2c.3.4.7.7 1.1 1zm-53.6 110.1c-.3-.4-.7-.7-1.1-1l55.4-108.8c.6.2 1.2.4 1.8.4.4 0 .8-.1 1.1-.1l18.9 55.6-76.1 53.9zm100.9 29.2l-99.9-25.3c0-.3.1-.5.1-.8 0-.9-.2-1.7-.7-2.4l76-53.9 27.1 79.6c-1.2.5-2.1 1.5-2.6 2.8zm103.7-50c-.3.6-.5 1.4-.5 2.2 0 .6.1 1.1.3 1.7L485.7 837l-.6-.9 62.1-69.3 33.6 21zm.5-.6l-33.6-21 14.5-16.2 20.2 36.2c-.4.2-.8.5-1.1 1zM600.6 920h-.1L586 794.6c.5-.1.9-.3 1.3-.5l45.3 68.1-30.2 58.1c-.6-.2-1.2-.3-1.8-.3zM584 794.6c.3.1.7.1 1.1.1h.1l14.5 125.4c-1.1.2-2 .8-2.7 1.6l-43.9-31.5 30.9-95.6zm-98 43l94.9-45.3c.5.9 1.3 1.6 2.3 2l-30.8 95.3-66.7-47.9c.4-.7.7-1.5.7-2.4-.1-.6-.2-1.1-.4-1.7zm-110.2-22.5c.6-.5 1-1.2 1.3-1.9l99.9 25.3c0 .3-.1.5-.1.8 0 .6.1 1.2.4 1.8L419 871l-43.2-55.9zm-2.4 1.2c.6-.1 1.2-.3 1.8-.7l43.1 55.7-38.3 19.6-6.6-74.6zm-160.9 33.2l85.2-59.9 70.3 21.1c-.1.3-.1.6-.1 1 0 .3 0 .5.1.7l-155.1 38c-.1-.3-.3-.6-.4-.9zm84.2-60.2L212 848.9c-.3-.4-.7-.7-1.2-1l36.8-73.2 49.1 14.6zm30.8-21.6l-30 21.1L248 774l28.5-56.6 51 50.3zm42 40.4l-40.8-40.3 18.1-12.7 23.5 52.5c-.3.1-.5.3-.8.5zm-1.3 1.8L298.5 789l29.6-20.8 40.9 40.4c-.4.4-.6.9-.8 1.3zm-63.4-148.7l41.7 93.2-18.4 12.9-51.2-50.6 27.9-55.5zm-6.8-17.1l35.2-41.8c.1.1.2.1.3.2l-28.6 56.9-6.9-15.3zm6.4 16.1L276.3 716l-21.2-20.9 42.4-50.4 6.9 15.5zm-33.2 285.1l27.6-36.3 20.7 12.9-47.5 24.4c-.2-.4-.5-.7-.8-1zm49.1-23.8l-21-13.1 70.7-92.8c.7.5 1.6.7 2.5.7l6.6 74.9-58.8 30.3zm61.9 38.8L321.1 922l58.2-29.8 5.9 66.3c-1.3.2-2.3.8-3 1.8zm95.3-17.4c-.9 0-1.7.3-2.3.8l-55.7-72 58.2-29.8c.7 1.2 2 2 3.4 2.2l-3.6 98.8zm186.2-140.5L633 861.5l-45-67.8c.9-.7 1.5-1.7 1.7-2.8l71.8 7.4v.1c0 1.6.9 3.1 2.2 4zm29.4 29.6l-23.7-30.1c.9-.9 1.5-2.1 1.5-3.5 0-.6-.1-1.3-.4-1.8l17.3-9 6.8 43.7c-.5.1-1 .4-1.5.7zm-15-104.3h.3l9.2 59.1-17.5 9.1c-.6-1-1.7-1.8-2.9-2.1l10.5-66.1h.4zm-430.8-80.3l41.2-22.6 8.6 19.1-42.6 50.6-13.5-13.4 6.3-33.7zm-.9.5l-6.1 32.6-19-18.8 25.1-13.8zm-52.9-13.6l65.8-65.3c.5.4 1.1.8 1.8 1l-14.5 77-25.9 14.2-27.2-26.9zm-92.6 91.9l92.1-91.4 27 26.7-118.8 65.1c-.1-.1-.2-.3-.3-.4zm91.5-91.9l-92.1 91.4-.9-.6 54.1-129.2 38.9 38.4zm65.3-69.3v.3c0 1.2.4 2.2 1.1 3L193 633.6 153.9 595l18.1-43.3 85.7 13.3zm4.7 5.1c.5 0 1.1-.1 1.6-.3l24.3 54.3-40.7 22.3L262 570c.1.1.2.1.4.1zm-65.8-77.3l62.3 69.4c-.6.6-1 1.3-1.2 2.1L172.3 551l24.3-58.2zm19.2-51.6c.3.3.7.6 1.2.9l-20.6 49.2L179 472l36.8-30.8zm-1.1-1.6c.1.4.3.7.6 1.1l-36.8 30.7-15.5-17.3 51.7-14.5zm-103.2-44.7l103.1 41.7c-.1.4-.2.9-.2 1.4 0 .3 0 .6.1.9l-52.1 14.7-51.7-57.6c.3-.4.6-.7.8-1.1zm-10.4 142.2l77.3-64.6 17.6 19.6-24.6 58.8-69.4-10.8v-.3c0-1-.3-2-.9-2.7zm674.7 315.8c-2 0-3.8 1.3-4.4 3.1l-71-19.3c.1-.3.1-.6.1-.9 0-.3 0-.6-.1-.9l96.9-26.6-19.9 44.8c-.5-.1-1-.2-1.6-.2zm29.8-63.2l-7.9 17.8-97.5 26.8-.6-1.2 70.5-61.9 35.5 18.5zm2.5-5.4L806 789l-35.3-18.4 11.1-9.7 26.3 23.4zm19.5 11.2l15.1-84.4h.4c.6 0 1.1-.1 1.6-.3l26.4 58.2-41 28c-.6-.7-1.5-1.3-2.5-1.5zm-5.5 2.7c-.2.6-.4 1.2-.4 1.8 0 .3 0 .6.1.9l-23.1 6.3 7.6-17.2 15.8 8.2zm.5-1c-.1.1-.1.2-.2.3l-15.8-8.2 2-4.5 14 12.4zm3.8-1.9c-1.3 0-2.4.5-3.3 1.3L809 784.1l32.6-73.2c.1 0 .2.1.3.1l-15.1 84.4c-.1-.1-.2-.1-.4-.1zm13.5-85.5c.3.3.6.5 1 .7l-32.5 73-26.1-23.2 57.6-50.5zM567 678.5h.3l8.5 54.9-13.6 15.2-28.4-50.8 29.6-21c.9 1 2.2 1.7 3.6 1.7zm-138.3 12.9c-.7.8-1.1 1.9-1.1 3 0 .9.2 1.7.7 2.4l-66.8 47-24.2-140.9c.7-.2 1.3-.5 1.9-1l89.5 89.5zM20.5 491.5l83.9-95c.6.5 1.3.8 2.1.9l-5 73.2-80 22.5c-.2-.6-.5-1.1-1-1.6zm406.3 537.9c-.7 0-1.4.2-2 .5L388.6 967c1.2-.9 2-2.3 2-3.9v-.4l82.5-13.9c.3 1.1.9 2 1.8 2.7l-46.1 78.4c-.5-.4-1.2-.5-2-.5zm178.5-104.7c0-.4-.1-.9-.2-1.3l54.3-20.8 18.2 27.4-72.3-5.3zm73.3 5.4l-18.4-27.7 45.1-17.3 9.6 47.7-36.3-2.7zm50 75.3l-49.5-74.5 36 2.6 14.4 71.4c-.3.2-.6.3-.9.5zM895.5 811c0-.1 0-.2-.1-.3l41.9-11.1 1.7 10.6-43.5.8zm44.4-.9l-1.7-10.8 26.9-7.1c.4 1.2 1.3 2.2 2.5 2.7l-5.3 14.8-22.4.4zm6.7 39.7h-.4l-6.3-38.9 22-.4-14 39.5c-.4-.1-.8-.2-1.3-.2zm128.5-43.1l-58.7-9.2 26.6-21.9 14.1-3 19.7 31.4c-.8.7-1.4 1.7-1.7 2.7zm39.4-51.2c-1.7.1-3.2 1.2-3.9 2.7l-28-10.6c.1-.3.1-.6.2-.9h31.7v8.8zm23.5-48.6l15.5 11.7-24.1 8.7 8.6-20.4zm-9.7 20.7l-13 4.7v-38.7c1.2-.1 2.3-.7 3.1-1.6l18.9 14.3-9 21.3zm40.3-95l-24.7 58.2-24.3-1.9c0-1.2-.5-2.3-1.2-3.2l49.5-53.6c.3.2.5.4.7.5zm116-.4c0 .2 0 .5.1.7l-38.6 11.2c-.2-.5-.5-1-.9-1.4l10.8-11.3 28.6.8zm6.2-4.7c-.5-.2-1-.3-1.6-.3-2.4 0-4.4 1.8-4.7 4.2l-27.9-.8 23.2-24.2 22.5-4.6-11.5 25.7zm19.1-27.3l-4.4 19.8-12.6 8.9c-.4-.4-.8-.8-1.3-1.1l11.7-26.3 6.6-1.3zm5.9-26.5l-5.7 25.7-6.5 1.3 12-27.1c.1.1.2.1.2.1zm29.7 14.2h-.6c-1.2 0-2.3.5-3.2 1.2l-20-18.7c.1-.3.2-.7.2-1.1l27.7-1.3-4.1 19.9zm47.1-21.7l30.9 53.6c-.7.5-1.2 1.1-1.6 1.8l-72.5-27.7c.1-.4.2-.9.2-1.3 0-2.1-1.4-3.9-3.4-4.5l4.2-20 42.2-1.9zm-.5-.8l-41.5 1.9.7-3.2 36.6-5.9 4.2 7.2zm57.1-17.3l5.2 10.7c-1.3.8-2.2 2.2-2.3 3.9l-59.1 2.7-4.3-7.4 60.5-9.9zm24.2-20l-8.1 16.6-15.7 2.5-11.8-24.1 35.6 5zm60.6-43.3l-7.3 45.7h-.4c-2.2 0-4.1 1.6-4.6 3.7l-47.1-6.6 22.4-45.7 37 2.9zm.1-.8l-36.7-2.9 10.7-21.8 30.8-5.2-4.8 29.9zm-6.6 46.6l7.3-45.8 21.1 1.7-27.4 44.5c-.3-.2-.7-.3-1-.4zm-5.8 5l-55.4 9 8-16.3 47.4 6.7v.3c-.1 0 0 .2 0 .3zm-62.5 23.2l6.6-13.4 56-9.1c0 .1 0 .2.1.2l-60.8 24.2c-.5-.7-1.1-1.4-1.9-1.9zm-4.1-.3L1450 548l14.9-2.4-6.3 12.9c-.5-.2-1.1-.3-1.7-.3-.7 0-1.3.1-1.8.3zm-28.9 60.4c-.7 0-1.4.2-2 .5l-30.7-53.2 58.7-2.6c.2 1.4 1 2.7 2.2 3.4l-26.4 52.4c-.6-.3-1.2-.5-1.8-.5zm-82.1-21.6c.3 0 .5.1.8.1 1.9 0 3.5-1.1 4.3-2.7l72.5 27.7c-.1.4-.2.8-.2 1.2l-85.5 5.2 8.1-31.5zm-3.7-3.3c.1.4.3.7.5 1.1l-34.4 24.3 4.3-19.3 29.6-6.1zm-23.2-20.1c1.9 0 3.5-1.1 4.2-2.7l19.7 18.4c-.6.8-1 1.8-1 2.9v.6l-29.3 6 5.6-25.3c.4.1.6.1.8.1zm-11 46.6l35.1-24.8c.5.6 1.2 1.1 2.1 1.4l-8.2 31.7-31.2 1.9 2.2-10.2zm-18.8 76.3c-.9.1-1.7.4-2.4.8l-22-26.6 23.9-34.9c.6.3 1.2.5 1.8.6l-1.3 60.1zm-30.9-16.2l6.1-8.9 21.9 26.5c-.3.3-.5.6-.7.9l-25.9-13.1c.2-.5.3-1.1.3-1.8 0-1.4-.7-2.8-1.7-3.6zm-38 13.4l21.4-18.6 9.5 6.4c-.4.7-.6 1.5-.6 2.3 0 .4 0 .7.1 1.1L1219 695c-.1-.3-.3-.7-.5-1zm-47.7-60.9h.5l10.1 60.7-36.7-2.9 24.6-58c.5.1 1 .2 1.5.2zm68.3 16.6l-9.4 17.9-54.6-37c.1-.2.2-.4.3-.7L1237 645c0 .2-.1.5-.1.7 0 1.7.8 3.2 2.2 4zm46.4-14.9l-30.5 26.5-10.1-12.2c.9-.9 1.4-2.1 1.4-3.4 0-.3 0-.6-.1-.9l38.6-11.2c.2.5.4.8.7 1.2zm-30 27.1l30.5-26.5.3.3-23.8 34.7-7-8.5zm-2 17.6c-.3 0-.7 0-1 .1l-3.7-11.9 6.1-5.3 7.2 8.6-6.2 9.1c-.8-.4-1.6-.6-2.4-.6zm-5.4-11.2l3.6 11.6c-.8.3-1.4.8-1.9 1.4l-9.3-6.3 7.6-6.7zm-3.8-18.7l10.1 12.2-5.8 5.1-5.2-16.7.9-.6zm-14 18.4l9.5-17.9c.6.2 1.2.4 1.8.4.3 0 .7 0 1-.1l5.3 17.1-8.1 7-9.5-6.5zm-55.7-36.8l54.7 37.1-12.8 24.2c-.6-.2-1.2-.4-1.8-.4-.8 0-1.5.2-2.2.6l-38.8-60.5c.3-.3.7-.6.9-1zm43.4 62.2c-.2-.2-.5-.4-.8-.6l12.7-24.1 9.2 6.3-21.1 18.4zm-35.7.5l-10.2-60.9c.3-.1.6-.2.9-.4l38.8 60.5c-.9.7-1.6 1.8-1.8 3l-27.7-2.2zm111.6-62.6c-.1-.6-.3-1.2-.6-1.7l11.9-8.4-2.1 9.6-9.2.5zm37.5 15.1l4.4-16.9 85.8-5.2v.2l-87.3 24.7c-.6-1.3-1.6-2.3-2.9-2.8zm245-198.7c.3 1.1.9 2 1.8 2.6l-21.8 35.4-21.4-1.7 4.8-30.1 36.6-6.2zm117.9-13.6l-108.7 11.6c-.2-.8-.5-1.6-1.1-2.2l42.1-42.6 68 31.4c-.2.5-.3 1-.3 1.6v.2zm87.7-41.4l8.2-19 5.9 12-14.1 7zm24 13l-35.3 46.6-13.1-3.4 23.9-55 15-7.4 9.5 19.2zm27.1-35.7l-26.6 35-9.3-18.9 35-17.2c.3.4.6.8.9 1.1zm70.9-12.4c-2.5.1-4.4 2.1-4.5 4.6l-58.6 3.6c-.1-.6-.3-1.1-.5-1.6l64.6-43.6-1 37zm51.8-71.3l50.1 40.3c-.5.8-.8 1.7-.8 2.6 0 .4 0 .7.1 1l-96.7 30.2c-.6-1.6-2.1-2.7-3.8-2.9l1.1-37.5 50-33.7zm-48-34.6c1.2-.1 2.4-.6 3.2-1.5l44.2 35.5-49.3 33.3 1.9-67.3zm102.1 72.8c-1.3 0-2.6.6-3.4 1.5l-50-40.1 62.3-42c.7.8 1.6 1.4 2.6 1.6l-11.3 79h-.2zm8.6 186.2l-43.6-9.9-12.3-61.8c.5-.1.9-.3 1.3-.6l55.8 70.3c-.5.6-.9 1.3-1.2 2zm-28 47.1v-.3c0-1.3-.6-2.5-1.4-3.4l31.3-38.1c.8.5 1.7.8 2.7.8.3 0 .5 0 .8-.1l12.5 48.3-45.9-7.2zm57.7 68.2l-43.1-5.6-17.5-58.5c1.4-.6 2.5-1.8 2.9-3.3l46.2 7.3 14.7 56.6c-1.7.6-2.9 1.9-3.2 3.5zm-28.3 31.4c-.8-.8-1.9-1.2-3.2-1.2-.3 0-.7 0-1 .1l-10.5-35 42.8 5.6v.2c0 1.1.4 2.1 1 2.9l-29.1 27.4zm-7.7 2.3c-.1.4-.2.8-.2 1.2 0 .3 0 .6.1.9l-38.3 10.9 2.7-25.5 35.7 12.5zm-32.5-41.8l24.7 3.2 10.6 35.4c-1.2.5-2.1 1.3-2.6 2.5l-35.8-12.5 3.1-28.6zm-47.6-6.2l46.8 6.1-3.1 28.4-58-20.3 14.3-14.2zm-86.3-11v-.2l85.2 11.1-14 14-71.2-24.9zm-1.5 2.4c.5-.5 1-1 1.3-1.7l70.9 24.8-32.5 32.4-39.7-55.5zm-43.8-53.6l36.3-74.7c.4.2.9.3 1.4.3l2.6 119.6c-.9.1-1.8.5-2.4 1l-36.7-39.1c.8-.8 1.2-1.9 1.2-3.2-.1-1.6-1-3.1-2.4-3.9zm-63.4-45.2c.8-.4 1.4-1.1 1.9-1.9l55.3 48.3c-.6.8-.9 1.7-.9 2.8v.3l-32.5 4.9-23.8-54.4zm-2.2.6c.5 0 1-.1 1.5-.3l23.7 54.3-51.1 7.8 24.5-62c.4.1.9.2 1.4.2zm-4.6-5.9c0 .1-.1.3-.1.4l-73.4-5.8 11.5-16.3 62 21.7zm-34.1-61.3c.8.6 1.8.9 2.8.9.7 0 1.3-.1 1.9-.4l31.4 57.9c-.8.5-1.4 1.2-1.7 2l-61.8-21.5 27.4-38.9zm7.4-2.9c0-.3.1-.5.1-.8 0-.6-.1-1.2-.3-1.7l77-37.9-23.6 54.3-53.2-13.9zm32.8 60.9c-.5-.2-1-.3-1.5-.3-.7 0-1.3.1-1.9.4l-31.4-57.9c.9-.6 1.5-1.4 1.9-2.4l53.1 13.9-20.2 46.3zm1 .5c-.1-.1-.2-.1-.3-.2l20.2-46.4 12.9 3.4-32.8 43.2zm96.4-26.6c0 .3-.1.5-.1.8 0 .3 0 .6.1.9l-94.6 27.1c-.3-.7-.7-1.3-1.3-1.8l33-43.5 62.9 16.5zm2.2-3.2c-.9.6-1.6 1.4-2 2.5l-62.5-16.4 34.9-46 29.6 59.9zm0-95.2l2 94.6c-.4 0-.8.2-1.2.3l-29.8-60.3 26.8-35.3c.6.4 1.4.6 2.2.7zm86.2 117.8l36.7-50.4c.7.4 1.6.7 2.4.7h.5l12.2 61.5-51.8-11.8zm62.3 63.9c-1 .3-1.9.9-2.5 1.8l-75.3-44.5 15-20.6 52.6 11.9 10.2 51.4zm1.2 9.3h.1c.3 0 .7 0 1-.1l17.4 58.2-24.4-3.2 5.9-54.9zm-3-1.1c.6.5 1.3.9 2.2 1L1979 617l-46.2-6 49.9-49.9zm-136.8 37.5l135.5-39.4c.2.5.5 1 .8 1.4l-50.4 50.3-85.8-11.2v-.2c0-.3 0-.6-.1-.9zm-3.6-125.4l27.7 16.4-27.9 105.3c-.2 0-.4-.1-.5-.1l-2.6-119.6c1.4-.2 2.5-.9 3.3-2zm60.3-106.5l-24.3 91.7-35.4 10.4c-.3-.9-.9-1.6-1.6-2.1l60.9-100.1c.1 0 .3.1.4.1zM1873.9 478l5.1-19 78-22.8c.3.7.7 1.4 1.3 1.9l-36.9 50.7-47.5-10.8zm-30.9-6.1l29.9 6.8-2.7 10.1-27.5-16.3.3-.6zm.1-2.4l35-10.2-4.9 18.6-30-6.8c0-.2.1-.4.1-.7-.1-.3-.1-.6-.2-.9zm27.9 19.7l2.8-10.4 47.1 10.7-14.9 20.4-35-20.7zm-27.3 106.3c-.3-.2-.6-.3-.9-.4l27.9-105.1 34.8 20.5-61.8 85zm137.5-37.1l-135.5 39.4c-.3-.7-.7-1.4-1.3-1.9l61.9-85 75.3 44.5c-.3.6-.5 1.3-.5 2.1 0 .3 0 .6.1.9zm-77-191.4c1 0 1.9-.3 2.6-.8l51.3 64.8c-.9.9-1.5 2.1-1.5 3.4 0 .3 0 .6.1.9l-77.5 22.7 24.2-91.2c.3.2.5.2.8.2zm-106.1 181.8c-1.3 0-2.4.5-3.3 1.3l-55.5-48.5c.2-.5.3-1 .3-1.5 0-.3 0-.6-.1-.9l94.6-27.1c.4 1 1.1 1.8 2 2.4l-36.3 74.7c-.5-.2-1.1-.4-1.7-.4zm221.6-33.3l-31.3 38.1c-.8-.5-1.7-.8-2.7-.8h-.5l-10.1-51.1 43.3 9.8c0 .2-.1.4-.1.7 0 1.3.6 2.5 1.4 3.3zm-12.1-182.1l-44.6 96.7c-.5-.2-1-.3-1.6-.3-1 0-1.9.3-2.6.8l-51.3-64.8c.9-.9 1.5-2.1 1.5-3.4 0-.4 0-.7-.1-1l96.7-30.2c.3.8 1.1 1.6 2 2.2zm-108 29.6c.2 1.3.9 2.4 1.9 3.1l-60.9 100.1c-.6-.3-1.2-.4-1.8-.5l-2-94.6c2.3-.2 4.2-2.2 4.2-4.6l58.6-3.5zm-313.9 83.4l108.7-11.6c.2.9.6 1.7 1.2 2.4l-27.6 39.2-82.4-28.7c.1-.4.2-.8.2-1.2-.1 0-.1 0-.1-.1zm9.3 134.8l61.2-86.9 73.9 5.8v.5L1595.7 582c-.1-.2-.4-.5-.7-.8zM1831.6 711c-.6-.5-1.3-.9-2.1-1l11.7-105.7h.1c.9 0 1.7-.2 2.4-.7l39.7 55.7-51.8 51.7zm132.2 54.4l9.9-91.8 38.6-11c.4 1 1.1 1.8 2 2.4l-49.7 100.7c-.2-.2-.5-.3-.8-.3zm97.1-365.9c0 .4.1.8.1 1.1l-95.4 32c-.4-.9-1.1-1.7-2-2.2l44.6-96.7c.5.2 1 .3 1.6.3 1 0 1.9-.3 2.6-.8l49.9 62.9c-.8.8-1.4 2.1-1.4 3.4zm-43.1-158c.1.6.3 1.2.6 1.7l-62.5 42.1-44.4-35.7c.5-.7.8-1.6.8-2.5l105.5-5.6zm-228 131.3l-8.9 20.4-77.8 38.3c-.2-.2-.3-.5-.5-.7l76.4-80 10.8 22zm24.8-59.4c.2.2.5.3.7.5l-25.2 58-10.7-21.6 35.2-36.9zm-69.9-27.8c.6 0 1.2-.1 1.7-.3l32.1 64.8-76.6 80.2c-.3-.3-.7-.5-1.1-.7l42.9-144.1c.3 0 .7.1 1 .1zm-191.5 85.7c.4 0 .8-.1 1.2-.2l24.6 71.1c-1.7.7-2.8 2.4-2.8 4.3v.4l-36.4 6.2 13-81.9c.2.1.3.1.4.1zm-134.6 104.4l77.6 6.1-22.4 45.6-36.3-5.1-21.1-43.3c1.1-.7 2-1.9 2.2-3.3zm-52.3 37.4l70.6 9.9 11.9 24.4-60.5 9.8-23.9-41.3c1-.7 1.7-1.7 1.9-2.8zm-111.5 118.2l-10.3 10.7c-.8-.7-1.8-1.1-3-1.1-2.1 0-3.8 1.4-4.5 3.2l-61.6-15.1v-.2l79.4 2.5zm-600.9 20.3c.4 0 .7 0 1.1-.1l21.4 67.1c-1 .4-1.8 1.2-2.3 2.1l-45.5-20.1 23.7-49.3c.4.2 1 .3 1.6.3zm-166-30.4c.7 0 1.4-.2 2-.4l33.2 59.4-86.2 13.2c-.2-1-.8-1.9-1.5-2.5l50.2-70.4c.6.4 1.4.7 2.3.7zM377 523l-39.2 71.1c-.6-.3-1.2-.4-1.9-.4-1.8 0-3.3 1-4.1 2.4l-65-29.2c.2-.5.3-1 .3-1.6 0-.5-.1-.9-.2-1.4L375.4 521c.4.9 1 1.5 1.6 2zM264.3 414.5l-41.2 20.9c-.8-1.3-2.2-2.2-3.9-2.2l-3.6-68.7c.9-.1 1.8-.5 2.4-1.1l47 46.3c-.7.8-1.1 1.9-1.1 3 .1.7.2 1.3.4 1.8zM226 292.3l-45.5 38.3-85.7-71.4c.3-.4.5-.8.6-1.2l129.8 30.9c0 .2-.1.5-.1.7.1 1 .4 2 .9 2.7zm776.6 516.6l13-10.7 59.4 9.3-72.4 1.4zm118.9-63.1l7.4-17.5 25.3-9.1 32.5 24.6c-.4.6-.7 1.4-.7 2.1h-64.5zm422-173.8c-.5 0-1 .1-1.4.2l-13.6-32.9c1.5-.8 2.6-2.4 2.6-4.2 0-1.6-.8-2.9-1.9-3.8l27.6-44.8 12 .9-24.3 84.6c-.3.1-.7 0-1 0zm141.2 56.2l24-60.6 51.8-7.9 6.4 14.7-80.6 55c-.5-.5-1-.9-1.6-1.2zM2065.4 863l-26-23.7 16.2-95h.5l11.7 117.5c-1 .2-1.8.6-2.4 1.2zm.5 7.4l-43.9 75.9c-.3-.1-.5-.2-.8-.3l18-105.8 25.6 23.4c-.6.8-1 1.8-1 2.9 0 1.6.8 3 2.1 3.9zm25.1 130.2l-67-47.7c.4-.7.7-1.5.7-2.4 0-1.6-.8-3-2-3.9l43.9-75.9c.6.3 1.3.5 2 .5.4 0 .8-.1 1.2-.2l32.4 92.6-11.2 37zm29.2 20.8l-28.5-20.3 10.9-36.2 19.3 55.3c-.7.3-1.3.7-1.7 1.2zm-52.7 60.3l24-79.8 28.3 20.2c-.4.7-.7 1.5-.7 2.4 0 1.2.5 2.3 1.2 3.2l-51.6 54.8c-.4-.3-.8-.6-1.2-.8zm86.2-295.6c.4.4.9.7 1.4.9l-52.6 175.4-32-91.5c1.6-.7 2.8-2.4 2.8-4.3 0-1.1-.4-2.1-1-3l81.4-77.5zm-30-155.2l-66.2-4c0-.6-.2-1.3-.4-1.8l43.8-24.2 24.1 27.4c-.7.7-1.2 1.6-1.3 2.6zm-23.4-30.6l-43.6 24.1c-.8-1.3-2.3-2.1-3.9-2.1-.3 0-.5 0-.8.1l-14.6-56.3 38.1 6 24.8 28.2zm31.1-17.2l-30.4 16.8-24.3-27.6 54.3 8.6v.3c0 .7.1 1.3.4 1.9zm56.9-221.1c-1 0-2 .3-2.7.9l-58.4-69c.9-.9 1.4-2 1.4-3.3 0-2.6-2.1-4.7-4.7-4.7s-4.7 2.1-4.7 4.7c0 .4.1.8.1 1.1l-56.4 19.2-3.7-102.2c1.5-.2 2.8-1.1 3.5-2.4l65.3 30.2c-.2.5-.3 1-.3 1.6 0 2.6 2.1 4.7 4.7 4.7s4.7-2.1 4.7-4.7-2.1-4.7-4.7-4.7c-1.8 0-3.3 1-4.1 2.4l-65.3-30.2c.2-.5.3-1 .3-1.6 0-2.6-2.1-4.7-4.7-4.7s-4.7 2.1-4.7 4.7c0 .3 0 .6.1.9l-142 40.5c-.7-1.8-2.4-3.1-4.4-3.1-.6 0-1.1.1-1.6.3l-19.2-42c1.4-.8 2.4-2.4 2.4-4.1 0-2.6-2.1-4.7-4.7-4.7s-4.7 2.1-4.7 4.7 2.1 4.7 4.7 4.7c.6 0 1.1-.1 1.6-.3l19.2 42c-1.4.8-2.4 2.4-2.4 4.1 0 1.6.8 3 2 3.8l-66.5 111.4c-.6-.3-1.3-.5-2.1-.5-.4 0-.7 0-1.1.1l-15.7-47.8c1.7-.7 2.9-2.4 2.9-4.4 0-2.6-2.1-4.7-4.7-4.7-1.9 0-3.5 1.1-4.2 2.6l-64.1-25.4c.1-.4.2-.9.2-1.4 0-2.6-2.1-4.7-4.7-4.7s-4.7 2.1-4.7 4.7c0 1.2.4 2.2 1.1 3.1l-114.7 116-68.8-31.8c.2-.5.3-1 .3-1.6 0-2.6-2.1-4.7-4.7-4.7s-4.7 2.1-4.7 4.7c0 1.7.9 3.2 2.3 4l-43.2 88-89.1 15.1c-.5-2-2.4-3.5-4.6-3.5-2.6 0-4.7 2.1-4.7 4.7 0 .9.2 1.7.7 2.4l-44.5 31.6c-.9-1-2.2-1.7-3.6-1.7-2.6 0-4.7 2.1-4.7 4.7 0 2.1 1.4 3.9 3.4 4.5l-9.8 46.8-28.8 4.7c-.5-2.1-2.4-3.6-4.6-3.6-2.6 0-4.7 2.1-4.7 4.7 0 .6.1 1.1.3 1.6l-33.4 34.9-104 21.4c-.6-2-2.4-3.4-4.5-3.4-2.6 0-4.7 2.1-4.7 4.7 0 1.2.5 2.3 1.2 3.2l-49.5 53.6c-.8-.6-1.8-1-2.9-1-2.6 0-4.7 2.1-4.7 4.6l-96.5 5.7c-.3-2.3-2.3-4.1-4.7-4.1-2.6 0-4.7 2.1-4.7 4.7 0 1.8 1 3.4 2.6 4.2l-15.7 37.9L932 731v-.1c0-2.6-2.1-4.7-4.7-4.7-2 0-3.7 1.2-4.4 3l-74.7-22.3c.1-.3.1-.6.1-1 0-2.6-2.1-4.7-4.7-4.7s-4.7 2.1-4.7 4.7v.1l-105 10.5-75.8-67.3c.6-.8.9-1.8.9-2.8 0-2.6-2.1-4.7-4.7-4.7s-4.7 2.1-4.7 4.7c0 1.3.5 2.4 1.3 3.2l-38.6 43.1-40.4-17.9c.2-.5.3-1 .3-1.5 0-2.6-2.1-4.7-4.7-4.7-1.4 0-2.7.6-3.6 1.6l-71.5-51.8c.4-.7.7-1.5.7-2.4 0-2.6-2.1-4.7-4.7-4.7-2.3 0-4.2 1.6-4.6 3.8l-77-9.2-24.9-82.9c1.8-.7 3-2.4 3-4.4 0-2.6-2.1-4.7-4.7-4.7-1.7 0-3.2.9-4 2.3l-108.6-54.9 1.8-44.3c2.5-.1 4.5-2.2 4.5-4.7 0-2.6-2.1-4.7-4.7-4.7-1.2 0-2.2.4-3.1 1.1l-47-46.3c.7-.8 1.1-1.9 1.1-3 0-2.1-1.4-3.9-3.4-4.5l12.9-61h.6c2.6 0 4.7-2.1 4.7-4.7s-2.1-4.7-4.7-4.7c-.7 0-1.4.2-2.1.5l-82.7-138.2c1.2-.9 2-2.3 2-3.8 0-1.4-.6-2.7-1.6-3.5l49.4-67c.7.4 1.6.7 2.5.7 2.6 0 4.7-2.1 4.7-4.7s-2.1-4.7-4.7-4.7c-2.5 0-4.6 2-4.7 4.5L146 70.4l2.8-61c2.5-.1 4.5-2.2 4.5-4.7 0-2.6-2.1-4.7-4.7-4.7a4.695 4.695 0 00-4.2 6.8l-107 65.5c-.9-1.2-2.2-1.9-3.8-1.9-2.6 0-4.7 2.1-4.7 4.7s2.1 4.7 4.7 4.7c.4 0 .7 0 1-.1l54.5 172.4c-1.7.7-2.9 2.4-2.9 4.4 0 1.4.6 2.7 1.6 3.6l-55.7 76.6c-.7-.4-1.5-.7-2.4-.7-2.6 0-4.7 2.1-4.7 4.7 0 2.3 1.7 4.3 3.9 4.7L17.1 490.1c-2.6 0-4.7 2.1-4.7 4.7s2.1 4.7 4.7 4.7c.4 0 .8-.1 1.1-.1L95.3 725c-1.7.7-2.8 2.4-2.8 4.3 0 .4 0 .7.1 1l-78.2 24.5c-.7-1.7-2.4-2.9-4.4-2.9-1.2 0-2.4.5-3.2 1.3L.3 750l-.3.6 6.3 3.1c-.6.8-1 1.8-1 2.8 0 2.6 2.1 4.7 4.7 4.7.5 0 1-.1 1.4-.2l60.1 144.8c-1.5.8-2.6 2.4-2.6 4.2 0 .3 0 .6.1.9l-44 12.2c-.7-1.8-2.4-3.1-4.4-3.1-2.6 0-4.7 2.1-4.7 4.7s2.1 4.7 4.7 4.7 4.7-2.1 4.7-4.7c0-.3 0-.6-.1-.9l44-12.2c.7 1.8 2.4 3.1 4.4 3.1.5 0 1-.1 1.4-.2l53.7 131.1c-1.5.8-2.6 2.4-2.6 4.2 0 2.6 2.1 4.7 4.7 4.7s4.7-2.1 4.7-4.7c0-.4-.1-.8-.1-1.1l83.7-28.5 96.4 76.8c-.5.8-.8 1.7-.8 2.6 0 2.6 2.1 4.7 4.7 4.7a4.695 4.695 0 004.2-6.8l99.1-60.6c.9 1.2 2.2 1.9 3.8 1.9 2.1 0 3.8-1.3 4.5-3.2l130.3 32.2c0 .2-.1.5-.1.7 0 2.6 2.1 4.7 4.7 4.7s4.7-2.1 4.7-4.7c0-2.1-1.4-3.9-3.2-4.5l19.4-81.3 139 26.3v.5c0 2.6 2.1 4.7 4.7 4.7s4.7-2.1 4.7-4.7c0-1.5-.7-2.8-1.7-3.6l47.6-67.5 50.7 3.7c0 2.6 2.1 4.7 4.7 4.7s4.7-2.1 4.7-4.7c0-1-.3-1.9-.8-2.6l102.4-81.7c.9.9 2.1 1.5 3.4 1.5 2.6 0 4.7-2.1 4.7-4.7 0-.4-.1-.8-.2-1.2l124.2-43.6c.7 1.6 2.4 2.8 4.3 2.8 2.6 0 4.7-2.1 4.7-4.7 0-1.4-.6-2.7-1.6-3.5l29.7-40.1c.7.4 1.6.7 2.5.7 2.6 0 4.7-2.1 4.7-4.7v-.5l66.4-12.3c.5 2 2.4 3.5 4.6 3.5 2.6 0 4.7-2.1 4.7-4.7 0-1.7-.9-3.2-2.3-4.1l19.9-40.9c.5.2 1.1.3 1.7.3 2.4 0 4.3-1.8 4.7-4l63.7 4.1c0 2.6 2.1 4.6 4.7 4.6s4.7-2.1 4.7-4.7c0-1.3-.5-2.5-1.4-3.4l36.1-43.4c.8.5 1.7.9 2.7.9 2.6 0 4.7-2.1 4.7-4.7 0-.3 0-.6-.1-.9l87.3-24.7c.7 1.8 2.4 3.1 4.4 3.1 2.6 0 4.7-2.1 4.7-4.6l86.1-5.6c.4 2.2 2.3 3.9 4.7 3.9 2.6 0 4.7-2.1 4.7-4.7 0-1.3-.5-2.4-1.3-3.2l16.7-33c.5.2 1.1.3 1.8.3 2.2 0 4.1-1.5 4.6-3.6l39.2 6.5v.4c0 2.6 2.1 4.7 4.7 4.7 1.7 0 3.1-.9 4-2.2l82.3 43.2c-.2.6-.4 1.2-.4 1.8 0 2.6 2.1 4.7 4.7 4.7s4.7-2.1 4.7-4.7v-.6l96-19.9 43 98.5c-1.5.8-2.5 2.4-2.5 4.2 0 2.6 2.1 4.7 4.7 4.7 1.8 0 3.4-1 4.2-2.6l125.7 51.8c-.1.5-.2.9-.2 1.4 0 2.6 2.1 4.7 4.7 4.7 1.2 0 2.4-.5 3.2-1.3l52 47.5 1.4 124.9c-2.4.2-4.3 2.2-4.3 4.7 0 2.6 2.1 4.7 4.7 4.7.4 0 .8-.1 1.1-.1l43.3 126.5c-2 .6-3.4 2.4-3.4 4.5 0 .7.1 1.3.4 1.9l-50.9 49.7c-.8-.7-1.9-1.2-3.1-1.2-2.6 0-4.7 2.1-4.7 4.7s2.1 4.7 4.7 4.7 4.7-2.1 4.7-4.7c0-1.1-.4-2.2-1.1-3l50.8-49.5c.8 1.3 2.3 2.1 3.9 2.1 2.6 0 4.7-2.1 4.7-4.7 0-1.2-.5-2.3-1.2-3.2l51.6-54.8c.8.6 1.8 1 2.9 1 2.6 0 4.7-2.1 4.7-4.7 0-2.3-1.6-4.1-3.7-4.6l31.8-232.6h.2c2.6 0 4.7-2.1 4.7-4.7s-2.1-4.7-4.7-4.7c-1.3 0-2.4.5-3.3 1.3l-78.2-67.9 50.6-75.6c.7.4 1.5.6 2.3.6 2.6 0 4.7-2.1 4.7-4.7 0-2.2-1.6-4.1-3.7-4.6l6.1-41h.3c2.6 0 4.7-2.1 4.7-4.7s-2.1-4.7-4.7-4.7c-1.6 0-2.9.8-3.8 1.9l-104.7-64.1c.3-.6.5-1.4.5-2.1v-.3l97.1-13.4c.5 2.1 2.4 3.7 4.6 3.7 2.6 0 4.7-2.1 4.7-4.7s-2.1-4.7-4.7-4.7c-.8 0-1.6.2-2.2.6l-58.7-90c1.1-.9 1.8-2.2 1.8-3.7 0-1.7-.9-3.1-2.2-4l53.7-100.7c.6.2 1.2.4 1.9.4 1 0 2-.3 2.7-.9l58.4 69c-.9.9-1.4 2-1.4 3.3 0 2.6 2.1 4.7 4.7 4.7s4.7-2.1 4.7-4.7c.9-2.6-1.2-4.7-3.8-4.7z" mask="url(#mask-3_1_)" fill-rule="evenodd" clip-rule="evenodd" fill="#0096af"/></g><g id="Group-55" transform="translate(683 115)" opacity=".226"><linearGradient id="Fill-1_2_" gradientUnits="userSpaceOnUse" x1="-878.098" y1="876.915" x2="-877.098" y2="876.915" gradientTransform="matrix(51 0 0 -68 45265 60089.602)"><stop offset="0" stop-color="#0096af"/><stop offset="1" stop-color="#a51e8c"/></linearGradient><path id="Fill-1_1_" d="M482 469.8l33 19.2c9.9-20.8 16.2-43.8 18-68h-38.1c-1.6 17.3-6 33.7-12.9 48.8" fill="none" stroke="url(#Fill-1_2_)"/><linearGradient id="Fill-3_1_" gradientUnits="userSpaceOnUse" x1="-879.073" y1="877.825" x2="-878.073" y2="877.825" gradientTransform="matrix(68 0 0 -51 60136 45335.2)"><stop offset="0" stop-color="#0096af"/><stop offset="1" stop-color="#a51e8c"/></linearGradient><path id="Fill-3" d="M407.8 545c-15.1 6.9-31.5 11.3-48.8 12.9V596c24.2-1.8 47.1-8.1 68-18l-19.2-33z" fill="none" stroke="url(#Fill-3_1_)"/><linearGradient id="Fill-5_1_" gradientUnits="userSpaceOnUse" x1="-878.683" y1="876.121" x2="-877.683" y2="876.121" gradientTransform="matrix(60 0 0 -106 53265 93345.203)"><stop offset="0" stop-color="#0096af"/><stop offset="1" stop-color="#a51e8c"/></linearGradient><path id="Fill-5" d="M576.8 525c15.6-32.1 25.2-68 27.2-106h-37.9c-1.9 30.8-9.7 60-22.1 86.3l32.8 19.7z" fill="none" stroke="url(#Fill-5_1_)"/><linearGradient id="Fill-7_1_" gradientUnits="userSpaceOnUse" x1="-879.927" y1="876.311" x2="-878.927" y2="876.311" gradientTransform="matrix(96 0 0 -95 84944 83833)"><stop offset="0" stop-color="#0096af"/><stop offset="1" stop-color="#a51e8c"/></linearGradient><path id="Fill-7" d="M532.7 595c12.8-12.7 24.3-26.7 34.3-41.8L533.3 534c-8.2 12.2-17.6 23.5-28.1 33.8-10.4 10.3-21.9 19.6-34.2 27.8l19.5 33.4c15.2-9.9 29.4-21.3 42.2-34" fill="none" stroke="url(#Fill-7_1_)"/><linearGradient id="Fill-9_1_" gradientUnits="userSpaceOnUse" x1="-880.14" y1="877.352" x2="-879.14" y2="877.352" gradientTransform="matrix(107 0 0 -62 94531 55021.398)"><stop offset="0" stop-color="#0096af"/><stop offset="1" stop-color="#a51e8c"/></linearGradient><path id="Fill-9" d="M443.1 604c-26.5 12.9-56 20.9-87.1 22.9V666c38.3-2.1 74.6-12 107-28.1L443.1 604z" fill="none" stroke="url(#Fill-9_1_)"/><linearGradient id="Fill-11_1_" gradientUnits="userSpaceOnUse" x1="-879.197" y1="875.784" x2="-878.197" y2="875.784" gradientTransform="matrix(71 0 0 -139 63030 122228.797)"><stop offset="0" stop-color="#0096af"/><stop offset="1" stop-color="#a51e8c"/></linearGradient><path id="Fill-11" d="M678 421h-38.7c-2.1 43-13.5 83.6-32.3 119.8l33.6 19.2c22-41.9 35.3-89 37.4-139" fill="none" stroke="url(#Fill-11_1_)"/><linearGradient id="Fill-13_1_" gradientUnits="userSpaceOnUse" x1="-880.328" y1="875.987" x2="-879.328" y2="875.987" gradientTransform="matrix(119 0 0 -119 105265 104872.797)"><stop offset="0" stop-color="#0096af"/><stop offset="1" stop-color="#a51e8c"/></linearGradient><path id="Fill-13" d="M580.4 643.4c16.8-16.8 31.8-35.4 44.6-55.5L592.2 569c-11.1 17.2-24.1 33.2-38.5 47.7a289.31 289.31 0 01-47.7 38.5l18.9 32.8c20.1-12.8 38.7-27.8 55.5-44.6" fill="none" stroke="url(#Fill-13_1_)"/><linearGradient id="Fill-15_1_" gradientUnits="userSpaceOnUse" x1="-880.568" y1="877.09" x2="-879.568" y2="877.09" gradientTransform="matrix(139 0 0 -71 122758 62963.2)"><stop offset="0" stop-color="#0096af"/><stop offset="1" stop-color="#a51e8c"/></linearGradient><path id="Fill-15" d="M478.8 669c-36.2 18.8-76.8 30.2-119.8 32.3V740c50-2.1 97.1-15.4 139-37.4L478.8 669z" fill="none" stroke="url(#Fill-15_1_)"/><linearGradient id="Fill-17_1_" gradientUnits="userSpaceOnUse" x1="-880.646" y1="875.741" x2="-879.646" y2="875.741" gradientTransform="matrix(147 0 0 -147 129997 129416.398)"><stop offset="0" stop-color="#0096af"/><stop offset="1" stop-color="#a51e8c"/></linearGradient><path id="Fill-17" d="M689 626.2L655.8 607c-14.5 22.9-31.5 44.1-50.6 63.2s-40.3 36.1-63.3 50.6l19.2 33.2c25.8-16.2 49.7-35.2 71.2-56.7s40.5-45.3 56.7-71.1" fill="none" stroke="url(#Fill-17_1_)"/><linearGradient id="Fill-19_1_" gradientUnits="userSpaceOnUse" x1="-880.876" y1="876.841" x2="-879.876" y2="876.841" gradientTransform="matrix(177 0 0 -82 156274 72650.398)"><stop offset="0" stop-color="#0096af"/><stop offset="1" stop-color="#a51e8c"/></linearGradient><path id="Fill-19" d="M359 771.7V811c63.8-2.3 123.9-19.3 177-47.9L516.6 729c-47.4 25.3-100.9 40.5-157.6 42.7" fill="none" stroke="url(#Fill-19_1_)"/><linearGradient id="Fill-21_1_" gradientUnits="userSpaceOnUse" x1="-880.876" y1="875.565" x2="-879.876" y2="875.565" gradientTransform="matrix(177 0 0 -177 156491 155704.406)"><stop offset="0" stop-color="#0096af"/><stop offset="1" stop-color="#a51e8c"/></linearGradient><path id="Fill-21" d="M719.2 639c-18.1 29-39.4 55.8-63.4 79.8S605 764.2 576 782.2l19.5 33.8c32-19.8 61.5-43.2 87.9-69.6 26.4-26.5 49.8-55.9 69.6-87.9L719.2 639z" fill="none" stroke="url(#Fill-21_1_)"/><linearGradient id="Fill-24_1_" gradientUnits="userSpaceOnUse" x1="-879.073" y1="877.653" x2="-878.073" y2="877.653" gradientTransform="matrix(68 0 0 -51 60136 45005.2)"><stop offset="0" stop-color="#0096af"/><stop offset="1" stop-color="#a51e8c"/></linearGradient><path id="Fill-24" d="M427 233c-20.8-9.9-43.8-16.2-68-18v38.1c17.3 1.6 33.7 6.1 48.8 12.9l19.2-33z" fill="none" stroke="url(#Fill-24_1_)"/><linearGradient id="Fill-26_1_" gradientUnits="userSpaceOnUse" x1="-879.197" y1="876.759" x2="-878.197" y2="876.759" gradientTransform="matrix(71 0 0 -71 62855 62542.2)"><stop offset="0" stop-color="#0096af"/><stop offset="1" stop-color="#a51e8c"/></linearGradient><path id="Fill-26" d="M451.8 248L432 282.2c7.1 5 13.8 10.7 19.9 16.9 6.1 6.1 11.8 12.8 16.9 19.9l34.2-19.7c-6.9-10-14.7-19.4-23.3-28-8.5-8.6-17.9-16.4-27.9-23.3" fill="none" stroke="url(#Fill-26_1_)"/><linearGradient id="Fill-28_1_" gradientUnits="userSpaceOnUse" x1="-878.098" y1="876.959" x2="-877.098" y2="876.959" gradientTransform="matrix(51 0 0 -68 45265 59992.602)"><stop offset="0" stop-color="#0096af"/><stop offset="1" stop-color="#a51e8c"/></linearGradient><path id="Fill-28" d="M515 324l-33 19.2c6.9 15.1 11.4 31.5 12.9 48.8H533c-1.8-24.2-8.1-47.2-18-68" fill="none" stroke="url(#Fill-28_1_)"/><linearGradient id="Fill-30_1_" gradientUnits="userSpaceOnUse" x1="-878.098" y1="877.044" x2="-877.098" y2="877.044" gradientTransform="matrix(51 0 0 -68 44938 59992.602)"><stop offset="0" stop-color="#0096af"/><stop offset="1" stop-color="#a51e8c"/></linearGradient><path id="Fill-30" d="M155 392h38.1c1.6-17.3 6.1-33.7 12.9-48.8L173 324c-9.9 20.8-16.2 43.8-18 68" fill="none" stroke="url(#Fill-30_1_)"/><linearGradient id="Fill-32_1_" gradientUnits="userSpaceOnUse" x1="-879.073" y1="877.653" x2="-878.073" y2="877.653" gradientTransform="matrix(68 0 0 -51 60039 45005.2)"><stop offset="0" stop-color="#0096af"/><stop offset="1" stop-color="#a51e8c"/></linearGradient><path id="Fill-32" d="M281.2 266c15.1-6.9 31.5-11.3 48.8-12.9V215c-24.2 1.8-47.2 8.1-68 18l19.2 33z" fill="none" stroke="url(#Fill-32_1_)"/><linearGradient id="Fill-34_1_" gradientUnits="userSpaceOnUse" x1="-880.14" y1="877.048" x2="-879.14" y2="877.048" gradientTransform="matrix(107 0 0 -62 94531 54561.398)"><stop offset="0" stop-color="#0096af"/><stop offset="1" stop-color="#a51e8c"/></linearGradient><path id="Fill-34" d="M463 172.1C430.6 156 394.3 146 356 144v39.1c31.1 2 60.5 10 87.1 22.9l19.9-33.9z" fill="none" stroke="url(#Fill-34_1_)"/><linearGradient id="Fill-36_1_" gradientUnits="userSpaceOnUse" x1="-879.927" y1="876.352" x2="-878.927" y2="876.352" gradientTransform="matrix(96 0 0 -95 84944 83486)"><stop offset="0" stop-color="#0096af"/><stop offset="1" stop-color="#a51e8c"/></linearGradient><path id="Fill-36" d="M471 220.4c12.3 8.1 23.8 17.5 34.2 27.8 10.4 10.3 19.9 21.7 28.1 33.9l33.7-19.3c-10-15.1-21.5-29.1-34.3-41.8-12.8-12.7-27-24.1-42.2-33.9L471 220.4z" fill="none" stroke="url(#Fill-36_1_)"/><linearGradient id="Fill-38_1_" gradientUnits="userSpaceOnUse" x1="-878.683" y1="876.203" x2="-877.683" y2="876.203" gradientTransform="matrix(60 0 0 -106 52805 93212.203)"><stop offset="0" stop-color="#0096af"/><stop offset="1" stop-color="#a51e8c"/></linearGradient><path id="Fill-38" d="M84 392h37.9c1.9-30.8 9.6-60 22.1-86.3L111.2 286C95.6 318.1 86 354 84 392" fill="none" stroke="url(#Fill-38_1_)"/><linearGradient id="Fill-40_1_" gradientUnits="userSpaceOnUse" x1="-879.927" y1="876.352" x2="-878.927" y2="876.352" gradientTransform="matrix(96 0 0 -95 84598 83486)"><stop offset="0" stop-color="#0096af"/><stop offset="1" stop-color="#a51e8c"/></linearGradient><path id="Fill-40" d="M159.3 221c-12.8 12.7-24.3 26.7-34.3 41.8l33.7 19.3c8.2-12.2 17.6-23.5 28.1-33.8 10.4-10.3 21.9-19.7 34.2-27.8L201.5 187c-15.2 9.9-29.4 21.3-42.2 34" fill="none" stroke="url(#Fill-40_1_)"/><linearGradient id="Fill-42_1_" gradientUnits="userSpaceOnUse" x1="-880.14" y1="877.048" x2="-879.14" y2="877.048" gradientTransform="matrix(107 0 0 -62 94401 54561.398)"><stop offset="0" stop-color="#0096af"/><stop offset="1" stop-color="#a51e8c"/></linearGradient><path id="Fill-42" d="M245.9 206c26.5-12.9 56-20.9 87.1-22.9V144c-38.4 2-74.6 12-107 28.1l19.9 33.9z" fill="none" stroke="url(#Fill-42_1_)"/><linearGradient id="Fill-44_1_" gradientUnits="userSpaceOnUse" x1="-880.568" y1="876.677" x2="-879.568" y2="876.677" gradientTransform="matrix(139 0 0 -71 122758 62367.2)"><stop offset="0" stop-color="#0096af"/><stop offset="1" stop-color="#a51e8c"/></linearGradient><path id="Fill-44" d="M498 110.4c-41.9-22-89-35.3-139-37.4v38.7c43 2.1 83.6 13.5 119.8 32.3l19.2-33.6z" fill="none" stroke="url(#Fill-44_1_)"/><linearGradient id="Fill-46_1_" gradientUnits="userSpaceOnUse" x1="-880.328" y1="876.018" x2="-879.328" y2="876.018" gradientTransform="matrix(119 0 0 -119 104822 104429.797)"><stop offset="0" stop-color="#0096af"/><stop offset="1" stop-color="#a51e8c"/></linearGradient><path id="Fill-46" d="M134.3 197.3c14.5-14.5 30.5-27.4 47.7-38.5L163.1 126c-20.1 12.8-38.7 27.8-55.5 44.6C90.8 187.4 75.8 206 63 226.1L95.8 245c11.1-17.2 24-33.2 38.5-47.7" fill="none" stroke="url(#Fill-46_1_)"/><linearGradient id="Fill-48_1_" gradientUnits="userSpaceOnUse" x1="-880.568" y1="876.677" x2="-879.568" y2="876.677" gradientTransform="matrix(139 0 0 -71 122590 62367.2)"><stop offset="0" stop-color="#0096af"/><stop offset="1" stop-color="#a51e8c"/></linearGradient><path id="Fill-48" d="M210.2 144c36.2-18.8 76.8-30.2 119.8-32.3V73c-50 2.1-97.1 15.4-139 37.4l19.2 33.6z" fill="none" stroke="url(#Fill-48_1_)"/><linearGradient id="Fill-50_1_" gradientUnits="userSpaceOnUse" x1="-880.655" y1="875.76" x2="-879.655" y2="875.76" gradientTransform="matrix(148 0 0 -148 130337 129744.602)"><stop offset="0" stop-color="#0096af"/><stop offset="1" stop-color="#a51e8c"/></linearGradient><path id="Fill-50" d="M148 93.4L128.7 60c-26 16.3-50 35.5-71.6 57.1-21.6 21.6-40.8 45.6-57.1 71.6L33.4 208c14.6-23.1 31.7-44.4 50.9-63.7 19.3-19.2 40.6-36.3 63.7-50.9" fill="none" stroke="url(#Fill-50_1_)"/><linearGradient id="Fill-53_1_" gradientUnits="userSpaceOnUse" x1="-880.876" y1="876.339" x2="-879.876" y2="876.339" gradientTransform="matrix(177 0 0 -82 156070 71921.398)"><stop offset="0" stop-color="#0096af"/><stop offset="1" stop-color="#a51e8c"/></linearGradient><path id="Fill-53" d="M174.4 82C221.8 56.7 275.3 41.5 332 39.3V0c-63.8 2.3-123.9 19.3-177 47.9L174.4 82z" fill="none" stroke="url(#Fill-53_1_)"/></g></svg>