<svg width="1920" height="1803" xmlns="http://www.w3.org/2000/svg"><defs><linearGradient x1="1.223%" y1="55.975%" x2="95.798%" y2="44.349%" id="linearGradient-1"><stop stop-color="#F8FFF5" offset="0%"/><stop stop-color="#E8FCF6" offset="100%"/></linearGradient></defs><g id="Page-1" stroke="none" stroke-width="1" fill="none" fill-rule="evenodd" opacity="1"><g id="Home---blue-white" transform="translate(0 -1461)" fill="url(#linearGradient-1)" fill-rule="nonzero"><g id="Shape/Bg/Lightgreen2" transform="translate(-526 1457)"><g id="Bg-Shape"><path d="M40.597 677.82c285.768 125.474 588.252 201.81 907.452 229.011 478.8 40.801 668.898-245.463 647.157-392.214-9.886-66.728 23.415-246.449 181.49-358.653 78.806-55.936 374.387-243.488 969.542-96.737s761.783 123.719 1110.436-42.117c232.435-110.557 232.435 346.15 0 1370.118-229.252 167.59-521.388 193.256-876.409 76.996-532.531-174.391-1332.522-419.196-1537.893 36.194C1237.002 1955.808 40.597 1716.268 0 1890" id="Path-22"/></g></g></g></g></svg>