<svg width="33" height="33" xmlns="http://www.w3.org/2000/svg"><defs><linearGradient x1="50%" y1="100%" x2="50%" y2="0%" id="linearGradient-1"><stop stop-color="#1447EA" offset="0%"/><stop stop-color="#2B65FB" offset="100%"/></linearGradient></defs><g id="Page-1" stroke="none" stroke-width="1" fill="none" fill-rule="evenodd"><g id="pop-up" transform="translate(-987 -336)" fill-rule="nonzero"><g id="Group-2" transform="translate(616 208)"><g id="coinbase-wallet" transform="translate(371 128)"><path d="M16.5 0C7.38 0 0 7.38 0 16.5 0 25.62 7.38 33 16.5 33 25.62 33 33 25.62 33 16.5 33 7.38 25.62 0 16.5 0zm0 26.155c-5.33 0-9.655-4.326-9.655-9.655 0-5.33 4.326-9.655 9.655-9.655 5.33 0 9.655 4.326 9.655 9.655 0 5.33-4.326 9.655-9.655 9.655z" id="Shape" fill="url(#linearGradient-1)"/><path d="M19.264 19h-4.55a.721.721 0 01-.714-.715v-4.57c0-.39.325-.715.715-.715h4.57c.39 0 .715.325.715.715v4.57c0 .39-.325.715-.736.715z" id="Path" fill="#2059EB"/></g></g></g></g></svg>