<svg width="40" height="40" xmlns="http://www.w3.org/2000/svg"><g id="Page-1" stroke="none" stroke-width="1" fill="none" fill-rule="evenodd"><g id="Home---blue-white" transform="translate(-378 -1050)"><g id="compound-comp-logo" transform="translate(378 1050)"><path d="M20 40c11.046 0 20-8.954 20-20S31.046 0 20 0 0 8.954 0 20s8.954 20 20 20z" id="Path" fill="#070A0E" fill-rule="nonzero"/><path d="M11.923 25.705A2.032 2.032 0 0111 23.99v-3.904c0-.464.362-.84.806-.838.142 0 .281.04.404.114l8.44 5.138c.495.3.8.851.8 1.448v4.045c.001.555-.43 1.007-.962 1.007a.947.947 0 01-.505-.148l-8.06-5.147zm12.582-7.412c.494.3.796.853.798 1.449v8.209a.672.672 0 01-.327.583l-1.848 1.085a.315.315 0 01-.074.032v-4.558c0-.59-.297-1.137-.783-1.44l-7.413-4.628v-5.146c0-.463.362-.84.806-.837.141 0 .281.04.404.114l8.437 5.137zm3.695-6.062c.496.3.8.853.8 1.45v11.99a.684.684 0 01-.339.59l-1.752.986v-8.346c0-.59-.296-1.135-.779-1.439l-7.577-4.744v-4.88c0-.147.038-.293.107-.421a.788.788 0 011.099-.304l8.44 5.118z" id="Shape" fill="#00D395"/></g></g></g></svg>