<svg width="41" height="41" xmlns="http://www.w3.org/2000/svg"><g id="Page-1" stroke="none" stroke-width="1" fill="none" fill-rule="evenodd"><g id="Home---blue-white" transform="translate(-377 -1231)" fill-rule="nonzero"><g id="multi-collateral-dai-dai-logo" transform="translate(377 1231)"><path d="M20.5 0C31.823 0 41 9.179 41 20.5 41 31.823 31.823 41 20.5 41 9.179 41 0 31.822 0 20.5 0 9.179 9.179 0 20.5 0z" id="Path" fill="#F5AC37"/><path d="M21.822 20.964h7.847c.168 0 .247 0 .259-.22.064-.8.064-1.604 0-2.404 0-.155-.077-.22-.246-.22H14.066c-.194 0-.246.065-.246.246v2.3c0 .298 0 .298.31.298h7.692zm7.23-5.533a.252.252 0 000-.18 5.114 5.114 0 00-.467-.815 6.593 6.593 0 00-.955-1.202 3.17 3.17 0 00-.594-.582 9.272 9.272 0 00-3.873-1.965 9.611 9.611 0 00-2.194-.233h-6.93c-.194 0-.22.078-.22.246v4.589c0 .193 0 .246.246.246h14.894s.129-.026.155-.104h-.063zm0 8.222a3.007 3.007 0 00-.66 0H14.079c-.194 0-.259 0-.259.259v4.486c0 .207 0 .259.259.259h6.608c.316.024.632.001.941-.065a9.824 9.824 0 002.802-.62c.327-.114.643-.262.941-.44h.09a8.392 8.392 0 003.602-3.63s.09-.196-.012-.247v-.002zm-17.825 7.33v-7.149c0-.168 0-.193-.207-.193h-2.8c-.156 0-.22 0-.22-.207v-2.456h2.994c.167 0 .233 0 .233-.22v-2.43c0-.156 0-.194-.207-.194h-2.8c-.156 0-.22 0-.22-.206v-2.275c0-.143 0-.18.206-.18h2.775c.193 0 .246 0 .246-.246V8.259c0-.207 0-.259.258-.259h9.68c.702.028 1.4.105 2.09.233a12.57 12.57 0 014.04 1.5 11.387 11.387 0 012.271 1.757c.511.532.972 1.107 1.381 1.72.406.62.744 1.284 1.009 1.977a.335.335 0 00.385.272h2.31c.297 0 .297 0 .31.285v2.12c0 .207-.077.26-.284.26h-1.782c-.18 0-.232 0-.22.232.071.787.071 1.577 0 2.365 0 .22 0 .246.247.246h2.038c.09.116 0 .232 0 .35.013.15.013.301 0 .451v1.565c0 .22-.064.284-.258.284h-2.44a.323.323 0 00-.374.246 10.338 10.338 0 01-2.711 3.956c-.439.396-.9.768-1.381 1.111-.517.298-1.02.608-1.55.854a13.94 13.94 0 01-3.045.969c-.997.178-2.007.26-3.02.245h-8.958v-.013l.004-.002z" id="Shape" fill="#FEFEFD"/></g></g></g></svg>