<svg id="Layer_1" data-name="Layer 1" xmlns="http://www.w3.org/2000/svg" viewBox="0 0 126.8 126.8"><defs><style>.cls-2{fill:#fff}</style></defs><circle cx="63.4" cy="63.4" r="63.4" fill="#a4268a"/><path class="cls-2" d="M74.6 123V66.1h29a11.07 11.07 0 018.7 3.8 13.59 13.59 0 013.2 9.4v29.2c0 6.2-2.6 10.6-7.8 13.1a13.29 13.29 0 01-5.7 1.4zm27-8.2q5.7 0 5.7-6.9V80.2a1.76 1.76 0 01-.1-.6c-.2-2-.7-3.4-1.6-4.1s-2.3-1.1-4.3-1.1H82.8v40.4z" transform="translate(-31.5 -30.5)"/><path d="M55.9 27.1v9.7m4.8-9.7v9.7m-4.8-9.7v9.7" fill="none"/><path class="cls-2" d="M55.3 91.5h5.8V102h-5.8zm9.9 0H71V102h-5.8zm-9.9-65h5.8V37h-5.8zm9.9 0H71V37h-5.8z"/></svg>