<svg width="40" height="40" xmlns="http://www.w3.org/2000/svg"><g id="Page-1" stroke="none" stroke-width="1" fill="none" fill-rule="evenodd"><g id="Home---blue-white" transform="translate(-378 -870)" fill-rule="nonzero"><g id="delfi-copy-18" transform="translate(378 870)"><circle id="Oval" fill="#0F8B06" cx="20" cy="20" r="20"/><path d="M12 30V9h4.438c3.206 0 5.507.242 6.987.727 2.054.727 3.698 1.938 4.849 3.715C29.424 15.22 30 17.32 30 19.742c0 2.1-.493 3.958-1.397 5.573-.904 1.616-2.137 2.747-3.617 3.554-1.48.727-3.534 1.131-6.246 1.131H12zm2.055-2.02h2.466c2.958 0 5.013-.16 6.164-.565 1.644-.484 2.877-1.453 3.78-2.746.905-1.373 1.398-2.988 1.398-4.927 0-2.019-.493-3.796-1.48-5.169-.986-1.454-2.383-2.423-4.191-2.988-1.315-.404-3.534-.566-6.576-.566h-1.561v16.962z" id="Shape" fill="#FFF"/><path id="Path" fill="#FFF" d="M19 29.627V7h-2v25h2zm5 .071V7h-2v25h2z"/></g></g></g></svg>