<svg width="20" height="20" xmlns="http://www.w3.org/2000/svg"><g id="Page-1" stroke="none" stroke-width="1" fill="none" fill-rule="evenodd" stroke-linecap="round" stroke-linejoin="round"><g id="Home---blue-white" transform="translate(-679 -7)" stroke-width="1.5"><g id="info-loading" transform="translate(679 8)"><g id="Group"><path d="M3.628 15.355h0A9 9 0 1010 0M9 12.5h2.31" id="Path" stroke="#323232"/><path id="Path" stroke="#323232" d="M10.159 12.5V8.25h-1.15M10.1 5.247h0a.25.25 0 11-.25-.25"/><path d="M6.575.681h0a.05.05 0 01.05.05s0 0 0 0m-2.954 1.89h0a.05.05 0 01.05.05m-1.99 2.854h0a.05.05 0 01.05.05s0 0 0 0M1.05 8.95h0A.05.05 0 011.1 9m.631 3.375h0a.05.05 0 01.05.05s0 0 0 0" id="Path" stroke="#A51E8C"/></g></g></g></g></svg>