<svg width="33" height="35" xmlns="http://www.w3.org/2000/svg"><g id="Page-1" stroke="none" stroke-width="1" fill="none" fill-rule="evenodd"><g id="pop-up" transform="translate(-689 -265)"><g id="Group-2" transform="translate(616 208)"><g id="Metamask" transform="translate(73 57)"><path id="Fill-1" fill="#E4761B" d="M31.24 23.771l-2 6.765-3.927-1.075z"/><path id="Fill-2" fill="#E4761B" d="M25.313 29.461l3.788-5.19 2.14-.5z"/><path d="M28.297 18.67l1.894-1.311 1.05 6.412-2.944-5.1zm0 0l2.943 5.1-2.14.5-.803-5.6z" id="Fill-3" fill="#F6851B"/><path d="M30.888 15.276l-5.002-.46 5.174-1.008-.172 1.468zm-5.002-.46l5.445-2.23-.27 1.222-5.175 1.009z" id="Fill-4" fill="#763D16"/><path d="M30.888 15.276l.172-1.468.73.607-.902.86zm1.091-2.173l-.919.705.271-1.221.648.516zm-1.09 2.173l-.698 2.083-4.305-2.542 5.002.459z" id="Fill-5" fill="#763D16"/><path id="Fill-6" fill="#E2761B" d="M21.09 27.814l1.36.434 2.862 1.213z"/><path d="M30.192 17.359l-5.65-1.861 1.345-.681 4.305 2.542zm0 0l.697-2.083.598.459-1.295 1.624z" id="Fill-7" fill="#763D16"/><path id="Fill-8" fill="#763D16" d="M27.231 8.43l-1.345 6.387-1.344.68z"/><path id="Fill-9" fill="#763D16" d="M31.331 12.586l-5.445 2.23 1.345-6.387z"/><path id="Fill-10" fill="#763D16" d="M27.231 8.43l4.1 4.156 1.583-4.813z"/><path id="Fill-11" fill="#F6851B" d="M30.192 17.359l-1.895 1.312-3.756-3.173z"/><path id="Fill-12" fill="#763D16" d="M27.231 8.43l5.683-.657-.247-4.6z"/><path id="Fill-13" fill="#E2761B" d="M21.163 5.83l.148 5.601 11.356-8.258z"/><path id="Fill-14" fill="#F6851B" d="M12.718 5.158l8.446.672.147 5.6z"/><path id="Fill-15" fill="#763D16" d="M24.542 15.498l-3.23-4.067L27.23 8.43z"/><path id="Fill-16" fill="#E4761B" d="M24.542 15.498l3.756 3.173-5.273.582z"/><path id="Fill-17" fill="#E4761B" d="M23.025 19.253l-1.714-7.822 3.231 4.067z"/><path id="Fill-18" fill="#763D16" d="M21.311 11.43l5.92-3.001 5.436-5.256z"/><path id="Fill-19" fill="#C0AD9E" d="M12.792 29.33l2.68 2.797-3.648-3.322z"/><path id="Fill-20" fill="#CD6116" d="M25.313 29.461l1.27-4.83 2.518-.36z"/><path id="Fill-21" fill="#E2761B" d="M1.919 15.874l4.64-4.879-4.042 4.298z"/><path d="M21.311 11.43l-4.518-.147-4.075-6.125 8.593 6.273zm7.79 12.84l-2.518.362 1.714-5.961.804 5.6z" id="Fill-22" fill="#F6851B"/><path id="Fill-23" fill="#E4751F" d="M28.297 18.67l-1.714 5.962-.14-2.911z"/><path id="Fill-24" fill="#CD6116" d="M23.025 19.253l5.272-.582-1.853 3.05z"/><path id="Fill-25" fill="#F6851B" d="M16.793 11.283l4.518.148 1.714 7.822z"/><path d="M16.793 11.283l-4.075-6.125L4.6 0l12.193 11.283zM2.115 34.324l10.595-3.28L0 26.246l2.115 8.077z" id="Fill-26" fill="#E4761B"/><path id="Fill-27" fill="#763D16" d="M3.493 17.892l4.001-3.14 3.354.779z"/><path id="Fill-28" fill="#763D16" d="M10.848 15.53l-3.354-.779L9.29 7.34z"/><path id="Fill-29" fill="#763D16" d="M2.517 15.293l4.978-.541-4.002 3.14z"/><path id="Fill-30" fill="#CD6116" d="M26.444 21.721l-2.066-1.042-1.353-1.426z"/><path id="Fill-31" fill="#763D16" d="M2.517 15.293l-.353-1.861 5.331 1.32z"/><path id="Fill-32" fill="#233447" d="M23.951 23.025l.426-2.345 2.067 1.04z"/><path id="Fill-33" fill="#F6851B" d="M26.584 24.632l-2.632-1.607 2.492-1.304z"/><path d="M9.29 7.339l7.503 3.944-5.945 4.247L9.29 7.339zm0 0l-1.795 7.413-5.765-2.887 7.56-4.526zm-1.795 7.413l-5.33-1.321-.435-1.566 5.765 2.887z" id="Fill-34" fill="#763D16"/><path d="M19.442 19.376l-8.216-.172-.378-3.674 8.594 3.846zm-8.594-3.846l5.946-4.247 2.648 8.093-8.594-3.846z" id="Fill-35" fill="#E4761B"/><path d="M23.025 19.253l-3.583.123-2.649-8.093 6.232 7.97zM3.493 17.892l7.355-2.362.377 3.674-7.732-1.312z" id="Fill-36" fill="#F6851B"/><path id="Fill-37" fill="#CD6116" d="M24.378 20.68l-.427 2.345-.927-3.772z"/><path id="Fill-38" fill="#763D16" d="M9.29 7.338l7.503 3.945L4.6 0z"/><path id="Fill-39" fill="#E4761B" d="M0 26.247l12.71 4.796-2.427-5.223z"/><path id="Fill-40" fill="#CD6116" d="M12.71 31.044l-2.428-5.223 5.052-.246z"/><path d="M0 26.247l11.225-7.043-7.732-1.313L0 26.247zm0 0l10.283-.427.942-6.616L0 26.247zm23.025-6.995l-3.583.123 1.009 2.51 3.246-.189-.672-2.444zm5.01 8.8l-1.452-3.42-2.632-1.608 4.084 5.027z" id="Fill-41" fill="#F6851B"/><path id="Fill-42" fill="#C0AD9E" d="M15.473 32.126l-2.763-1.083 9.61 1.616z"/><path id="Fill-43" fill="#763D16" d="M3.493 17.892l-1.575-2.017.6-.582z"/><path id="Fill-44" fill="#D7C1B3" d="M23.41 31.462l-1.09 1.197-9.61-1.615z"/><path id="Fill-45" fill="#E4761B" d="M23.927 28.527L12.71 31.044l2.624-5.47z"/><path id="Fill-46" fill="#D7C1B3" d="M12.71 31.044l11.216-2.517-.515 2.935z"/><path d="M2.517 15.293l-1.09-1.107.737-.755.353 1.862zm-.787-3.427L1.361 5.56l7.93 1.779-7.56 4.527z" id="Fill-47" fill="#763D16"/><path id="Fill-48" fill="#CD6116" d="M17.605 21l1.837-1.625-.262 3.97z"/><path id="Fill-49" fill="#CD6116" d="M19.442 19.376L17.605 21l-2.674 1.385z"/><path id="Fill-50" fill="#F6851B" d="M28.035 28.051l-.5-.369-3.583-4.657z"/><path id="Fill-51" fill="#CD6116" d="M14.932 22.385l-3.707-3.182 8.217.173z"/><path id="Fill-52" fill="#E4751F" d="M19.18 23.345l.261-3.97 1.01 2.51z"/><path id="Fill-53" fill="#763D16" d="M1.066 12.488l.664-.623.435 1.566z"/><path id="Fill-54" fill="#233447" d="M19.18 23.345l-4.249-.96L17.604 21z"/><path id="Fill-55" fill="#763D16" d="M4.6 0L1.36 5.559l7.93 1.78z"/><path id="Fill-56" fill="#C0AD9E" d="M22.77 33.89l-.451-1.23-6.846-.534z"/><path id="Fill-57" fill="#F6851B" d="M15.334 25.575l-.402-3.19 4.248.96z"/><path id="Fill-58" fill="#E4751F" d="M11.225 19.204l3.707 3.182.401 3.189z"/><path d="M11.225 19.204l4.108 6.37-5.05.247.942-6.617zm9.225 2.682l3.247-.19 3.838 5.987-7.085-5.797z" id="Fill-59" fill="#F6851B"/><path id="Fill-60" fill="#E4751F" d="M20.45 21.885l4.034 6.142-5.305-4.683z"/><path id="Fill-61" fill="#F6851B" d="M19.18 23.345l5.304 4.682-.557.5z"/><path d="M27.535 27.682l-3.05.345-4.034-6.142 7.084 5.797zm-3.608.845l-8.593-2.952 3.846-2.23 4.747 5.182z" id="Fill-62" fill="#F6851B"/><path id="Fill-63" fill="#C0AD9E" d="M22.77 33.89l.64-2.428-1.091 1.198.452 1.23 4.255-.69 1.312-2.632z"/><path d="M24.214 31.142L22.77 33.89l5.568-3.32-4.125.573zm-.804.32l-.64 2.427 1.444-2.747-.804.32z" id="Fill-64" fill="#C0AD9E"/><path id="Fill-65" fill="#161616" d="M25.476 28.666l3.066-.368-1.008-.616z"/><path d="M25.124 29.15l3.73-.451-.516 1.869-3.214-1.418zm.353-.484l-.993-.64 3.051-.344-2.058.984z" id="Fill-66" fill="#161616"/><path d="M28.543 28.297l.312.402-3.731.451 3.419-.853zm-4.616.23l.557-.5.993.64-1.55-.14zm.287 2.615l-.804.32.517-2.936.287 2.616zm4.124-.574l-4.124.574.91-1.992 3.214 1.418z" id="Fill-67" fill="#161616"/><path d="M23.927 28.527l1.197.623-.91 1.993-.287-2.616zm1.197.623l.353-.484 3.066-.368-3.42.852z" id="Fill-68" fill="#161616"/><path id="Fill-69" fill="#161616" d="M25.124 29.15l.352-.484-1.55-.14z"/></g></g></g></g></svg>