<svg width="40" height="40" xmlns="http://www.w3.org/2000/svg"><g id="Page-1" stroke="none" stroke-width="1" fill="none" fill-rule="evenodd"><g id="Home---blue-white" transform="translate(-379 -1590)" fill="#000" fill-rule="nonzero"><g id="omg-omg-logo" transform="translate(379 1590)"><g id="Group" transform="matrix(1 0 0 -1 0 40)"><path d="M17.512 39.894C8.887 38.722 1.945 32.222.358 23.827c-.994-5.297.096-10.61 3.126-15.153C4.542 7.101 7.187 4.437 8.71 3.425 11.035 1.9 13.408.905 16.15.311c1.89-.4 5.803-.4 7.694 0 3.912.835 7.07 2.472 9.86 5.105 2.95 2.809 4.906 6.212 5.772 10.048 1.507 6.645-.337 13.403-5.002 18.363-2.742 2.889-6.718 5.088-10.662 5.842-1.65.321-4.81.434-6.3.225zM22 38.305c4.761-.546 9.266-2.986 12.2-6.613 1.892-2.36 2.982-4.543 3.704-7.512.352-1.413.416-2.055.432-4.013 0-2.793-.288-4.51-1.202-6.822C32.31.937 16.358-2.417 7.011 7.005 1.736 12.302.18 20.006 2.987 26.957c1.427 3.58 4.409 7.03 7.711 8.908 3.607 2.07 7.359 2.873 11.303 2.44z" id="Shape"/><path d="M7.059 24.726c-2.084-.755-3.415-3.34-2.934-5.747.24-1.204.513-1.766 1.267-2.552.994-1.075 1.635-1.316 3.382-1.316 1.395 0 1.604.048 2.373.465 1.427.803 2.213 2.07 2.389 3.869.224 2.472-1.203 4.783-3.303 5.377-.817.225-2.389.176-3.174-.096zm3.51-2.007c.947-.69 1.428-2.28 1.091-3.676-.641-2.696-4.184-3.226-5.403-.802-.737 1.444-.352 3.708.77 4.494.93.674 2.581.658 3.543-.016z" id="Shape"/><path d="M28.75 24.661c-3.014-1.204-3.863-5.65-1.587-8.346 1.235-1.477 4.152-1.75 5.451-.498l.353.337.048-.45c.048-.4.096-.433.85-.433h.801l.048 2.536.048 2.52h-4.505v-1.605h1.363c1.475 0 1.523-.032 1.106-.899-.288-.593-1.314-1.187-2.084-1.187-1.844 0-2.95 1.3-2.95 3.403.016 2.327 1.507 3.66 3.543 3.178.786-.193 1.587-.883 1.587-1.38 0-.161.24-.225.962-.225h.946l-.224.722c-.497 1.685-1.732 2.536-3.768 2.6-.898.032-1.395-.032-1.988-.273zm-13.883-4.655v-4.815h1.603l.032 3.242.048 3.259 1.186-3.259 1.187-3.258.801.048.802.048 1.17 3.21 1.17 3.21.049-3.21.048-3.21.85-.048.833-.048-.032 4.783-.048 4.784h-2.229l-1.282-3.564c-.706-1.974-1.33-3.531-1.379-3.45-.064.063-.641 1.588-1.282 3.402-.642 1.814-1.25 3.387-1.331 3.5-.096.112-.545.192-1.17.192h-1.026v-4.816z" id="Path"/></g></g></g></g></svg>