<svg width="40" height="40" xmlns="http://www.w3.org/2000/svg"><defs><linearGradient x1="0%" y1="50%" x2="100%" y2="50%" id="linearGradient-1"><stop stop-color="#001C3A" offset="0%"/><stop stop-color="#001E3D" offset="60%"/><stop stop-color="#001F3F" offset="70%"/><stop stop-color="#002042" offset="100%"/></linearGradient></defs><g id="Page-1" stroke="none" stroke-width="1" fill="none" fill-rule="evenodd"><g id="Home---blue-white" transform="translate(-378 -1680)" fill-rule="nonzero"><g id="ren-ren-logo" transform="translate(378 1680)"><circle id="Oval" fill="url(#linearGradient-1)" cx="20" cy="20" r="20"/><g id="Layer_1-2" transform="translate(7 5)" fill="#FFF"><path d="M4.09 6.625L6.256 5.5l.254.5 7.89-4.5-.51-.375-.635-.375L13 .625.018 8v.25l3.691-2 .382.375zm0 4.75l6.237-3.625.255.5 8.018-4.5-.636-.375-.637-.25L17.073 3 .018 12.625v.25l3.691-2 .382.5zm0 2.25L12.365 9l.254.375 8.018-4.5-.636-.25-.636-.375-.255-.125L.02 14.875v.375l3.69-2.125.382.5zm0 2.25l10.31-5.75.255.375 8.018-4.375-.637-.375-.636-.375-.255-.125-21.127 12v.25l3.691-2 .382.375zm0 2.375l12.346-7 .255.5 8.018-4.5-.636-.375-.51-.25-.381-.25L.018 19.5v.375L3.71 17.75l.382.5zm21.383-10.5l-.255-.25-25.2 14.375v.25l3.691-2 .382.5L16.436 13.5l.255.5 9.29-5.125V8l-.508-.25zm-23.8 15.875l2.036-1.25.255.5 12.472-7 .255.5 9.29-5.25V9.5L1.292 23.375l.382.25zm14.763-5.375l.255.5 9.29-5.375V11.75L3.328 24.625l.382.125 2.036-1.25.382.5m-.382 1.875L7.91 24.75l.255.5 8.272-4.75.255.5 9.29-5.25v-1.625L5.365 25.75l.381.125zM7.782 27l2.163-1.125.255.5 6.236-3.5.255.5 9.29-5.25v-1.75L7.4 26.875l.382.125zm1.654 1l.382.25L11.982 27l.254.5 4.2-2.375.255.5 9.29-5.25V18.75L9.437 28zm2.419 1.375l2.036-1.25.382.5 2.163-1.125.255.5 9.29-5.25V21L11.6 29.25l.255.125zm4.709-26.75l-.637-.375-.636-.25-.255-.25-15.018 8.5v.375L3.71 8.5l.382.5 4.2-2.375.254.5 8.019-4.5z" id="Shape"/></g></g></g></g></svg>