<svg width="40" height="40" xmlns="http://www.w3.org/2000/svg"><defs><linearGradient x1="50.007%" y1="0%" x2="50.007%" y2="26.461%" id="linearGradient-1"><stop stop-color="#090220" offset="0%"/><stop stop-color="#170659" offset="100%"/></linearGradient></defs><g id="Page-1" stroke="none" stroke-width="1" fill="none" fill-rule="evenodd"><g id="Home---blue-white" transform="translate(-378 -1770)" fill-rule="nonzero"><g id="synthetix-network-token-snx-logo" transform="translate(378 1770)"><circle id="Oval" fill="url(#linearGradient-1)" cx="20" cy="20" r="20"/><g id="Group" transform="translate(8 11)" fill="#00D1FF"><path d="M6.05 4.204a.818.818 0 00-.646-.308H.184a.172.172 0 01-.114-.044.139.139 0 01-.043-.098V.17C.027.132.043.1.07.071A.131.131 0 01.183.027H5.7c1.39 0 2.592.582 3.605 1.74l1.342 1.668L8.033 6.68 6.051 4.204zm9.645-2.453C16.703.604 17.909.027 19.315.027h5.502a.137.137 0 01.102.033.129.129 0 01.033.11v3.584a.15.15 0 01-.033.098.112.112 0 01-.102.044h-5.221a.816.816 0 00-.647.308l-3.847 4.769 3.864 4.801a.813.813 0 00.625.286h5.22a.12.12 0 01.103.044.18.18 0 01.032.115v3.583c0 .039-.01.072-.032.1a.112.112 0 01-.103.043h-5.495c-1.407 0-2.603-.582-3.605-1.74l-3.2-3.978-3.2 3.978c-1.008 1.158-2.215 1.74-3.621 1.74H.183a.12.12 0 01-.102-.044.152.152 0 01-.033-.115v-3.584c0-.038.011-.07.033-.098a.112.112 0 01.102-.044h5.221a.851.851 0 00.647-.308l3.777-4.697 5.867-7.304z" id="Shape"/></g></g></g></g></svg>