<svg width="1232" height="207" xmlns="http://www.w3.org/2000/svg"><defs><linearGradient x1="0%" y1="50%" x2="100%" y2="50%" id="linearGradient-1"><stop stop-color="#0096AF" offset="0%"/><stop stop-color="#A51E8C" offset="100%"/></linearGradient></defs><g id="Page-1" stroke="none" stroke-width="1" fill="none" fill-rule="evenodd" fill-opacity="0"><g id="Home---blue-white" transform="translate(-344 -687)" fill="#0096AF" fill-rule="nonzero" stroke="url(#linearGradient-1)"><path d="M424.612 893C470.85 893 503 865.81 503 829.453c0-68.435-95.841-56.826-95.841-82.183 0-7.027 6.124-11.915 18.678-11.915 18.985 0 34.295 10.387 42.868 22.608L503 723.745C488.302 702.665 461.969 688 427.98 688c-43.48 0-75.019 25.358-75.019 60.492 0 69.046 95.841 56.52 95.841 83.1 0 9.165-7.96 14.053-23.271 14.053-18.066 0-33.376-7.332-44.705-22.913L345 856.338C357.248 875.586 380.213 893 424.612 893zm193.497-5V739.395H672V692H514v47.395h53.585V888h50.524zm112.738 0l13.441-36.998h76.675L834.403 888H890l-76.369-196H754.37L678 888h52.847zM804 807h-44l22.152-61L804 807zm157.32 81v-74.303h15.552l45.44 74.303H1083l-64.957-100.905L1077.51 692h-56.114l-45.745 74.303H961.32V692H911v196h50.32zm193.68 0V692h-50v196h50zm87.33 0V776.393L1314.01 888H1368V692h-50.33v113.441L1245.99 692H1192v196h50.33zm254.95 5c35.188 0 61.197-10.082 77.72-23.83v-78.212h-50.487v46.133c-7.344 3.666-15.605 5.5-23.867 5.5-29.374 0-50.487-23.525-50.487-52.244 0-28.718 21.113-51.937 48.04-51.937 16.522 0 31.822 7.638 41.001 17.109l33.658-38.495C1557.253 699.61 1533.08 688 1497.586 688 1441.591 688 1396 733.827 1396 790.347c0 56.52 43.45 102.653 101.28 102.653z" id="STAKING"/></g></g></svg>