<svg width="44" height="36" xmlns="http://www.w3.org/2000/svg"><g id="Page-1" stroke="none" stroke-width="1" fill="none" fill-rule="evenodd"><g id="Home---blue-white" transform="translate(-850 -3117)" fill="#323232" fill-rule="nonzero"><g id="icons8-twitter" transform="translate(850 3117)"><path d="M44 4.26a18.036 18.036 0 01-5.185 1.435 9.129 9.129 0 003.97-5.032 18.004 18.004 0 01-5.737 2.205A8.982 8.982 0 0030.46 0c-4.983 0-9.027 4.071-9.027 9.09 0 .71.081 1.406.236 2.07-7.503-.38-14.152-4.005-18.605-9.503A9.103 9.103 0 001.84 6.236a9.09 9.09 0 004.017 7.56 8.903 8.903 0 01-4.09-1.135v.115c0 4.402 3.11 8.075 7.24 8.913a8.89 8.89 0 01-2.378.318 8.777 8.777 0 01-1.7-.162c1.15 3.605 4.48 6.242 8.43 6.31a17.988 17.988 0 01-11.21 3.889c-.732 0-1.444-.041-2.149-.122A25.419 25.419 0 0013.836 36C30.44 36 39.52 22.15 39.52 10.145c0-.4-.007-.792-.027-1.184A18.126 18.126 0 0044 4.261" id="Path"/></g></g></g></svg>