<svg width="40" height="40" xmlns="http://www.w3.org/2000/svg"><g id="Page-1" stroke="none" stroke-width="1" fill="none" fill-rule="evenodd"><g id="Home---blue-white" transform="translate(-378 -2130)" fill-rule="nonzero"><g id="usdt" transform="translate(378 2130)"><circle id="Oval" fill="#26A17B" cx="20" cy="20" r="20"/><path d="M22.44 21.827v-.003c-.136.01-.84.052-2.413.052a52.33 52.33 0 01-2.449-.052v.004c-4.83-.212-8.436-1.049-8.436-2.05 0-1 3.606-1.838 8.436-2.053v3.27c.316.022 1.22.075 2.47.075 1.5 0 2.252-.062 2.392-.074v-3.269c4.821.214 8.418 1.051 8.418 2.05 0 1.002-3.597 1.837-8.418 2.05m0-4.44v-2.925h6.727V10H10.852v4.462h6.726v2.924C12.111 17.636 8 18.714 8 20.006c0 1.29 4.111 2.367 9.578 2.618V32h4.862v-9.378c5.459-.25 9.56-1.327 9.56-2.617s-4.101-2.367-9.56-2.618" id="Shape" fill="#FFF"/></g></g></g></svg>