<svg width="168" height="55" fill="none" xmlns="http://www.w3.org/2000/svg"><path d="M13.669 33.602L82.174 1.464l68.588 32.138h2.115L82.174.407l-70.62 33.195h2.115zM2.604 46.701v-.081c0-.081 0-.081.08-.163 0-.081.082-.244.164-.407.162-.325.325-.813.488-1.383 1.22-3.58 2.603-7.16 3.986-10.74.082-.244.245-.325.489-.325s.406.163.488.326c.57 1.383 4.719 12.448 4.719 12.773 0 .326-.244.57-.57.57-.244 0-.407-.163-.488-.326l-1.139-3.173h-6.02l-1.14 3.173c-.081.163-.325.326-.488.326a.556.556 0 01-.57-.57zm.406.326c.163.081.326 0 .326-.163l1.22-3.255h6.346l1.22 3.336c.082.082.164.163.245.163h.081c.163-.081.244-.163.163-.325L8.055 34.09c-.082-.081-.163-.163-.244-.163-.082 0-.163.082-.244.163L2.929 46.62c-.081.163 0 .325.081.407zm4.8-12.123l3.011 8.055h-6.02l3.01-8.055zm-2.603 7.81h5.207l-2.603-6.996-2.604 6.996zm14.563-9.031c3.743 0 6.103 3.58 6.103 6.998 0 1.79-.651 3.66-1.872 5.044.163.163.489.488.733.813.244.163.407.407.57.57.08.081.162.163.162.244 0 .081.081.081.081.163 0 0 .082.081.082.163a.556.556 0 01-.57.569c-.081 0-.163-.081-.163-.081-.08 0-.08-.082-.162-.082-.082-.081-.163-.162-.244-.162-.163-.163-.326-.407-.57-.57-.325-.325-.57-.65-.732-.813-.976.732-2.197 1.22-3.417 1.22-3.743 0-6.102-3.58-6.102-6.997s2.36-7.079 6.102-7.079zm0 13.67c1.303 0 2.523-.49 3.5-1.303l1.627 1.79c.08.082.08.082.162.082s.163 0 .163-.082c.081-.081.081-.244 0-.407l-1.627-1.79c1.22-1.22 1.952-3.01 1.952-5.044 0-3.661-2.603-6.671-5.858-6.671-3.254 0-5.776 3.01-5.776 6.671 0 3.824 2.603 6.753 5.858 6.753zm0-12.856c2.93 0 5.29 2.766 5.29 6.184 0 1.87-.652 3.498-1.79 4.637l-1.221-1.383c-.081-.081-.244-.163-.407 0-.163.163-.081.244 0 .407l1.22 1.383c-.894.732-1.952 1.22-3.091 1.22-2.93 0-5.289-2.766-5.289-6.183 0-3.499 2.36-6.265 5.289-6.265zm-5.044 6.184c0 2.928 1.953 5.939 5.045 5.939.976 0 1.952-.326 2.685-.976l-.57-.57c-.163-.163-.325-.325-.407-.488-.081-.082-.081-.163-.162-.163-.082-.081-.082-.163-.082-.244 0-.325.244-.57.57-.57.163 0 .244.082.244.082.081.081.163.081.244.163.325.325.65.65.976 1.057.977-1.139 1.465-2.685 1.465-4.23 0-2.93-1.953-5.94-5.045-5.94-3.01 0-4.963 3.01-4.963 5.94zm13.099-6.103c0-.325.245-.57.57-.57.325 0 .57.245.57.57v9.357c0 1.627 2.522 2.685 3.986 2.685 1.546 0 3.987-1.058 3.987-2.685v-9.357c0-.325.244-.57.57-.57.325 0 .569.245.569.57v9.357c0 2.44-3.255 3.742-5.126 3.742-1.871 0-5.126-1.301-5.126-3.742v-9.357zm.326 0v9.357c0 1.627 2.115 3.417 4.8 3.417 2.685 0 4.8-1.871 4.8-3.417v-9.357c0-.162-.162-.244-.325-.244s-.244.082-.244.244v9.357c0 1.302-1.871 2.929-4.23 2.929-2.36 0-4.313-1.627-4.313-2.93v-9.356c0-.162-.081-.244-.244-.244-.163 0-.244.082-.244.244zM39.46 46.701v-.081c0-.081 0-.081.081-.163 0-.081.082-.244.163-.407.163-.325.325-.813.488-1.383 1.22-3.58 2.604-7.16 3.987-10.74.081-.244.244-.325.488-.325s.407.163.488.326c.57 1.383 4.72 12.448 4.72 12.773 0 .326-.245.57-.57.57-.244 0-.407-.163-.489-.326l-1.139-3.173h-5.939L40.6 46.945c-.081.163-.325.326-.488.326-.407 0-.651-.244-.651-.57zm.407.326c.163.081.325 0 .325-.163l1.22-3.255h6.347l1.22 3.336c.082.082.163.163.244.163h.082c.162-.081.244-.163.162-.325L44.83 34.172c-.082-.082-.163-.163-.244-.163-.082 0-.163.081-.244.163l-4.638 12.53c0 .08.081.243.163.325zm4.8-12.123l3.01 8.055h-5.939l2.93-8.055zm-2.604 7.81h5.126l-2.603-6.996-2.523 6.996zm14.808-8.624h2.36c3.661 0 6.427 3.092 6.427 6.672 0 3.498-2.766 6.671-6.427 6.671H56.79a.556.556 0 01-.57-.57V34.66c0-.488.326-.57.651-.57zm-.325.488v12.204c0 .163.163.326.244.326h2.44c3.418 0 6.184-2.848 6.184-6.346 0-3.499-2.766-6.346-6.183-6.346H56.79c-.163-.082-.244 0-.244.162zm.488.244h2.116c3.091 0 5.613 2.604 5.613 5.777s-2.522 5.777-5.614 5.777h-2.115V34.823zm.325 11.391h1.872c3.01 0 5.37-2.604 5.37-5.532 0-2.93-2.36-5.533-5.37-5.533h-1.872v11.065zm10.333.569V34.578c0-.325.245-.57.57-.57h4.15c2.115 0 3.905 1.71 3.905 3.825 0 1.546-.977 2.929-2.36 3.498.326.488.814 1.628 1.383 2.604l.895 1.79c.163.244.244.488.326.57 0 .08.081.162.081.162 0 .081.082.163.082.163 0 .325-.245.57-.57.57-.163 0-.407-.082-.488-.326l-2.848-5.37h-4.067v5.044c0 .326-.245.57-.57.57-.245.163-.489-.081-.489-.325zm.57.245c.163 0 .244-.163.244-.326v-5.288h3.905c.163 0 .407 0 .57-.082l2.929 5.533c.081.081.163.163.244.163.081 0 .081 0 .081-.082.163-.081.163-.244.082-.325l-2.848-5.37c1.465-.488 2.522-1.79 2.522-3.417 0-1.953-1.627-3.58-3.661-3.58h-4.15c-.162 0-.244.163-.244.325v12.123c.082.163.163.326.326.326zm.244-12.205h3.905c1.709 0 3.092 1.384 3.092 3.01 0 1.628-1.383 3.011-3.092 3.011h-3.905v-6.02zm.244.326v5.451h3.661c1.546 0 2.848-1.22 2.848-2.766s-1.302-2.766-2.848-2.766h-3.66v.08zm8.868 11.553v-.081c0-.081 0-.081.082-.163 0-.081.081-.244.162-.407.163-.325.326-.813.489-1.383 1.22-3.58 2.603-7.16 3.986-10.74.082-.244.244-.325.489-.325.244 0 .406.163.488.326.57 1.383 4.719 12.448 4.719 12.773 0 .326-.245.57-.57.57-.244 0-.407-.163-.488-.326l-1.14-3.173h-6.101l-1.14 3.173c-.08.163-.325.326-.487.326-.245 0-.489-.244-.489-.57zm.407.326c.163.081.326 0 .326-.163l1.22-3.255h6.346l1.22 3.336c.082.082.163.163.245.163h.081c.163-.081.244-.163.163-.325L82.988 34.09c-.081-.081-.162-.163-.244-.163-.081 0-.163.082-.244.163l-4.638 12.53c-.08.163 0 .325.163.407zm4.72-12.123l3.01 8.055h-5.94l2.93-8.055zm-2.604 7.81h5.207l-2.604-6.996-2.603 6.996zm9.926-8.705c.325 0 .57.244.57.57v12.203c0 .326-.245.57-.57.57a.556.556 0 01-.57-.57V34.578c0-.325.244-.57.57-.57zm-.244.57v12.203c0 .163.162.245.244.245.162 0 .244-.082.244-.245V34.578c0-.162-.082-.244-.244-.244-.163 0-.244.082-.244.244zm3.742 12.203V34.578c0-.325.244-.57.57-.57.162 0 .325.082.406.245l8.136 10.902V34.497c0-.325.244-.57.57-.57.325 0 .569.245.569.57v12.285c0 .326-.244.57-.569.57a.447.447 0 01-.407-.244l-8.136-10.902v10.576c0 .326-.244.57-.57.57a.556.556 0 01-.57-.57zm.325 0c0 .163.163.326.245.326.162 0 .244-.163.244-.325V35.392l8.624 11.553a.25.25 0 00.163.082h.081c.081 0 .163-.163.163-.245V34.578c0-.162-.082-.244-.244-.244-.163 0-.245.163-.245.244v11.39l-8.542-11.552c-.082-.082-.163-.163-.326-.082-.081 0-.163.163-.163.244v12.204zm22.944-13.099a5.55 5.55 0 014.394 2.197c.081.081.162.163.162.326 0 .325-.244.57-.569.57-.081 0-.163 0-.163-.082-.081 0-.081-.082-.081-.082l-.244-.244c-.977-.895-2.034-1.627-3.417-1.627-3.092 0-5.045 3.01-5.045 5.94 0 2.928 1.953 5.939 5.045 5.939 1.139 0 2.034-.488 2.685-.976.325-.245.569-.489.813-.651l.244-.245c.082 0 .082-.08.082-.08.081-.082.162-.082.162-.082.326 0 .57.244.57.57 0 .162-.082.243-.163.325-1.058 1.302-2.685 2.197-4.393 2.197-3.743 0-6.102-3.58-6.102-6.997-.082-3.336 2.278-6.998 6.02-6.998zm-5.858 6.998c0 3.742 2.604 6.752 5.777 6.752 1.627 0 3.092-.732 4.231-2.034.081-.08.081-.325-.082-.406-.081-.082-.244-.082-.406 0-.977 1.22-2.36 1.87-3.743 1.87-2.929 0-5.289-2.765-5.289-6.182 0-3.418 2.36-6.184 5.289-6.184 1.464 0 2.766.65 3.743 1.871.081.082.244.163.406 0 .163-.081.163-.244.082-.407-1.139-1.301-2.604-2.033-4.231-2.033-3.092.08-5.777 3.01-5.777 6.753zm11.066 6.02v-.081c0-.081 0-.081.081-.163 0-.081.081-.244.163-.407.162-.325.325-.813.488-1.383 1.22-3.58 2.603-7.16 3.986-10.74.082-.244.245-.325.489-.325s.406.163.488.326c.569 1.383 4.719 12.448 4.719 12.773 0 .326-.244.57-.57.57-.244 0-.407-.163-.488-.326l-1.139-3.173h-5.939l-1.139 3.173c-.082.163-.326.326-.489.326-.406 0-.65-.244-.65-.57zm.406.326c.163.081.326 0 .326-.163l1.22-3.255h6.346l1.221 3.336c.081.082.162.163.244.163h.081c.163-.081.244-.163.163-.325l-4.638-12.611c-.081-.082-.162-.163-.244-.163-.081 0-.162.081-.244.163l-4.637 12.53c0 .08.081.243.162.325zm4.801-12.123l3.01 8.055h-5.939l2.929-8.055zm-2.604 7.81h5.207l-2.603-6.996-2.604 6.996zm9.926-8.624h2.36c3.661 0 6.427 3.092 6.427 6.672 0 3.498-2.766 6.671-6.427 6.671h-2.441a.556.556 0 01-.57-.57V34.66c.082-.488.326-.57.651-.57zm-.325.488v12.204c0 .163.162.326.244.326h2.441c3.417 0 6.183-2.848 6.183-6.346 0-3.499-2.766-6.346-6.183-6.346h-2.441c-.163-.082-.244 0-.244.162zm.569.244h2.116c3.091 0 5.613 2.604 5.613 5.777s-2.522 5.777-5.613 5.777h-2.116V34.823zm.244 11.391h1.872c3.01 0 5.369-2.604 5.369-5.532 0-2.93-2.359-5.533-5.369-5.533h-1.872v11.065zm10.984-12.123h2.359c3.662 0 6.428 3.092 6.428 6.672 0 3.498-2.766 6.671-6.428 6.671h-2.44a.556.556 0 01-.57-.57V34.66c.081-.488.326-.57.651-.57zm-.325.488v12.204c0 .163.162.326.244.326h2.44c3.418 0 6.184-2.848 6.184-6.346 0-3.499-2.766-6.346-6.184-6.346h-2.44c-.163-.082-.244 0-.244.162zm.569.244h2.115c3.092 0 5.614 2.604 5.614 5.777s-2.522 5.777-5.614 5.777h-2.115V34.823zm.244 11.391h1.871c3.011 0 5.37-2.604 5.37-5.532 0-2.93-2.359-5.533-5.37-5.533h-1.871v11.065zm8.543-11.635c0-.325.244-.57.569-.57.163 0 .326.082.407.245l4.15 5.532 4.149-5.613a.447.447 0 01.407-.244c.325 0 .569.244.569.569 0 .163-.162.325-.244.488-.081.163-.325.407-.488.733-.407.569-.895 1.301-1.464 2.033-.977 1.384-2.116 2.767-2.441 3.174v5.939c0 .325-.244.57-.57.57a.556.556 0 01-.569-.57v-5.94a82.215 82.215 0 01-2.36-3.172 61.827 61.827 0 01-1.464-1.953c-.163-.326-.407-.488-.488-.651-.082-.081-.082-.163-.163-.244.081-.244 0-.326 0-.326zm.325.163l4.475 6.02v6.021c0 .163.082.245.244.245.163 0 .244-.163.244-.245v-6.02l4.557-6.102c.081-.163.081-.326-.082-.407-.081-.081-.325-.081-.407.081l-4.393 5.858-4.312-5.776c-.082-.082-.244-.163-.407-.082.081.082 0 .244.081.407z" fill="#fff"/><path d="M3.824 45.888l4.23-11.147c.082-.163.245-.407.733-.407.407 0 .65.244.65.407l4.232 11.147v.162c0 .163-.082.57-.732.57-.407 0-.651-.244-.733-.407l-.976-2.685H6.184l-.977 2.685c-.081.163-.244.407-.732.407-.57 0-.732-.488-.732-.57 0-.081.081-.081.081-.162zm6.916-3.499l-2.034-5.451-2.034 5.451h4.068zm3.986-1.709c0-3.254 2.36-6.264 5.777-6.264 3.417 0 5.777 3.091 5.777 6.265 0 1.464-.489 3.173-1.628 4.393l1.302 1.383a.621.621 0 01.163.407c0 .163-.163.57-.732.57-.245 0-.489-.082-.57-.245l-1.22-1.139a5.377 5.377 0 01-3.092.977c-3.417 0-5.777-3.092-5.777-6.346zm5.777 5.126a3.57 3.57 0 002.197-.732c-.082-.081-.244-.325-.407-.407-.163-.163-.244-.325-.407-.407-.081-.081-.244-.325-.244-.488 0-.163.163-.57.732-.57.326 0 .488.082.57.245l.732.732c.814-.976 1.14-2.278 1.14-3.417 0-2.441-1.628-5.126-4.313-5.126-2.685 0-4.312 2.685-4.312 5.126 0 2.36 1.627 5.044 4.312 5.044zM28.64 35.31c0-.162.08-.569.731-.569.57 0 .733.488.733.57v8.298c0 1.14 1.79 2.197 3.417 2.197 1.627 0 3.417-1.057 3.417-2.197v-8.298c0-.163.163-.57.732-.57.57 0 .733.488.733.57v8.298c0 1.872-2.523 3.418-4.8 3.418-2.279 0-4.801-1.546-4.801-3.418l-.163-8.298zm11.552 10.578l4.231-11.147c.082-.163.244-.407.733-.407.406 0 .65.244.65.407l4.231 11.147v.162c0 .163-.081.57-.732.57-.407 0-.651-.244-.732-.407l-.977-2.685h-5.044l-.976 2.685c-.082.163-.245.407-.733.407-.57 0-.732-.488-.732-.57 0-.081.081-.081.081-.162zm6.916-3.499l-2.034-5.451-2.034 5.451h4.068zm10.17-7.648h2.116c3.335 0 6.102 2.685 6.102 6.02a6.007 6.007 0 01-6.021 6.021h-2.197c-.57 0-.732-.488-.732-.569V35.311c-.081-.489.407-.57.732-.57zm.651 10.74h1.465c2.603 0 4.556-2.278 4.556-4.8 0-2.523-1.953-4.8-4.556-4.8h-1.465v9.6zm10.659-10.74h3.742c2.522 0 3.743 2.034 3.743 3.499a3.517 3.517 0 01-2.116 3.173c.244.488.733 1.383 1.22 2.278.326.57.652 1.139.814 1.546.082.081.407.813.407.895 0 .162-.163.57-.732.57-.407 0-.57-.245-.651-.326l-2.44-4.638H69.32v4.394c0 .162-.163.57-.732.57-.57 0-.733-.489-.733-.57V35.31c0-.163.163-.57.733-.57zm.732 5.777h3.01c1.383 0 2.278-1.22 2.278-2.278 0-1.14-.895-2.279-2.278-2.279h-3.01v4.557zm8.543 5.37l4.23-11.147c.082-.163.245-.407.733-.407.406 0 .65.244.65.407l4.231 11.147v.162c0 .163-.162.57-.732.57-.407 0-.65-.244-.732-.407l-.977-2.685h-5.044l-.976 2.685c-.082.163-.244.407-.733.407-.569 0-.732-.488-.732-.57 0-.081 0-.081.082-.162zm6.915-3.499l-2.034-5.451-2.034 5.451h4.068zm4.8-7.079c0-.162.163-.569.733-.569s.732.488.732.57v10.82a.706.706 0 01-.732.651.706.706 0 01-.733-.65V35.31zm4.719 10.822V35.31c0-.163.163-.651.733-.651.325 0 .488.163.65.325l6.916 9.031V35.31c0-.163.163-.651.732-.651.57 0 .733.488.733.65v10.822c0 .162-.082.57-.733.57-.325 0-.488-.163-.65-.245l-6.916-9.031v8.706c0 .162-.163.57-.732.57-.57 0-.733-.489-.733-.57zm16.679-5.452c0-3.173 2.36-6.264 5.777-6.264 1.871 0 3.336.976 4.231 1.952.081.082.081.244.081.326 0 .162-.163.57-.732.57-.326 0-.488-.163-.57-.245-.813-.895-1.708-1.464-3.01-1.464-2.685 0-4.312 2.685-4.312 5.126 0 2.359 1.627 5.044 4.312 5.044 1.302 0 2.197-.651 3.01-1.465.082-.081.326-.244.57-.244.569 0 .732.488.732.651 0 .081-.081.244-.081.326-.895 1.057-2.36 2.034-4.231 2.034-3.417 0-5.777-3.092-5.777-6.346zm11.228 5.208l4.231-11.147c.081-.163.244-.407.732-.407.407 0 .651.244.651.407l4.231 11.147v.162c0 .163-.082.57-.732.57-.407 0-.651-.244-.733-.407l-.976-2.685h-5.044l-.977 2.685c-.081.163-.244.407-.732.407-.569 0-.732-.488-.732-.57.081-.081.081-.081.081-.162zm6.997-3.499l-2.034-5.451-2.034 5.451h4.068zm5.614-7.648h2.116c3.335 0 6.102 2.685 6.102 6.02a6.007 6.007 0 01-6.021 6.021h-2.197c-.569 0-.732-.488-.732-.569V35.311c-.081-.489.407-.57.732-.57zm.651 10.74h1.465c2.603 0 4.556-2.278 4.556-4.8 0-2.523-1.953-4.8-4.556-4.8h-1.465v9.6zm10.74-10.74h2.115c3.336 0 6.102 2.685 6.102 6.02a6.007 6.007 0 01-6.021 6.021h-2.196c-.57 0-.733-.488-.733-.569V35.311c-.081-.489.407-.57.733-.57zm.65 10.74h1.465c2.604 0 4.556-2.278 4.556-4.8 0-2.523-1.952-4.8-4.556-4.8h-1.465v9.6zm9.032-10.74a.98.98 0 01.65.244l3.499 4.556 3.58-4.637c.081-.082.325-.326.651-.326.569 0 .732.489.732.651 0 .082-.081.244-.081.326-.163.244-1.139 1.546-2.116 2.847a48.04 48.04 0 01-1.383 1.79c-.163.244-.325.407-.407.57-.081.081-.081.081-.081.163v5.207c0 .162-.163.57-.732.57-.57 0-.733-.489-.733-.57v-5.207c0-.082-.081-.082-.081-.163-.081-.163-.244-.326-.407-.57-1.139-1.464-2.278-3.01-3.498-4.556-.082-.081-.082-.244-.082-.325-.244-.163-.081-.57.489-.57zM35.88 49.793v.325h-1.139v.57H35.8v.325h-1.06v.651h1.22v.407h-1.545v-2.278h1.464zm2.034 0v.325h-1.058v.651h.895v.326h-.895v.976h-.406v-2.278h1.464zm1.871 0v.325h-1.057v.651h.895v.326h-.895v.976h-.407v-2.278h1.465zm.895 0v2.278h-.406v-2.278h.407zm2.116 2.197c-.081.081-.244.081-.407.081-.244 0-.407-.081-.65-.163a.981.981 0 01-.408-.407c-.08-.162-.162-.325-.162-.569 0-.244.081-.407.162-.65a.98.98 0 01.407-.408c.163-.081.326-.163.57-.163.163 0 .244 0 .407.082.08 0 .244.081.325.163l-.163.325c-.162-.081-.325-.163-.488-.163-.163 0-.244 0-.407.082-.081.081-.244.162-.244.325s-.081.244-.081.407c0 .163 0 .325.081.407.082.163.163.244.244.325.082.082.244.082.407.082.081 0 .244 0 .326-.082.08 0 .162-.081.244-.163l.162.326c-.081.081-.162.163-.325.163zm1.22-2.197v2.278h-.406v-2.278h.406zm2.197 0v.325h-1.139v.57h1.058v.325h-1.058v.651h1.22v.407H44.75v-2.278h1.464zm2.604 0v2.36l-1.627-1.628v1.546h-.407v-2.36l1.627 1.628v-1.546h.407zm2.115 2.197c-.081.081-.244.081-.407.081-.244 0-.407-.081-.65-.163a.98.98 0 01-.407-.407c-.082-.162-.163-.325-.163-.569 0-.244.081-.407.163-.65a.98.98 0 01.406-.408c.163-.081.326-.163.57-.163.163 0 .244 0 .407.082.081 0 .244.081.325.163l-.163.325c-.162-.081-.325-.163-.488-.163-.162 0-.244 0-.407.082-.08.081-.244.162-.244.325s-.08.244-.08.407c0 .163 0 .325.08.407.082.163.163.244.244.325.082.082.245.082.407.082.082 0 .244 0 .326-.082.081 0 .163-.081.244-.163l.163.326c-.082.081-.245.163-.326.163zm2.685-2.197l-.814 1.546v.732h-.325v-.732l-.814-1.546h.407l.57 1.139.57-1.14h.406zm1.871 0v2.278h-.407v-2.278h.407zm2.685 0v2.36l-1.627-1.628v1.546h-.407v-2.36l1.627 1.628v-1.546h.407zm3.173 0v.325H60.29v.651h.895v.326h-.895v.976h-.407v-2.278h1.464zm.895 0v1.953h1.14v.325h-1.547v-2.278h.407zm1.627.569a.981.981 0 01.407-.406c.163-.082.407-.163.57-.163.244 0 .407.081.57.163a.981.981 0 01.406.406c.082.163.163.407.163.57 0 .244-.081.407-.163.57a.981.981 0 01-.407.406c-.162.082-.325.163-.57.163-.243 0-.406-.081-.569-.163a.981.981 0 01-.407-.407c-.08-.162-.162-.406-.162-.569 0-.244 0-.407.162-.57zm.326.977c.081.081.163.244.325.325.082.082.244.082.407.082.163 0 .244 0 .407-.082.081-.081.244-.163.244-.325 0-.163.082-.244.082-.407 0-.163 0-.326-.082-.407a.635.635 0 00-.325-.325c-.082-.082-.244-.082-.407-.082-.163 0-.244 0-.407.082-.081.081-.244.162-.325.325-.082.163-.082.244-.082.407 0 .163.082.244.163.407zm4.068.813l-.57-1.383-.57 1.383-.894-2.36h.407l.57 1.547.406-.977-.244-.57h.325l.57 1.465.488-1.464h.407l-.895 2.36zm1.22-1.302s.082-.08.163-.08.081 0 .163.08c0 0 .081.082.081.163 0 .082 0 .082-.081.163 0 0-.082.081-.163.081s-.081 0-.163-.081c0 0-.081-.081-.081-.163 0-.081 0-.081.081-.162zm0 .896s.082-.082.163-.082.081 0 .163.082c0 0 .081.08.081.162s0 .082-.081.163c0 0-.082.081-.163.081s-.081 0-.163-.081c0 0-.081-.081-.081-.163 0-.081 0-.162.081-.162zm3.173-1.953v.325h-.57v1.953h-.325v-1.953h-.57v-.325h1.465zm2.441 2.278h-.407v-.976H73.55v.976h-.325v-2.278h.407v.976h1.139v-.976h.406v2.278h-.08zm2.197-2.278v.325h-1.14v.57h1.059v.325h-1.058v.651h1.139v.407h-1.546v-2.278h1.546zm2.929.163a.739.739 0 01.244.57c0 .162 0 .243-.081.406-.082.081-.163.244-.244.244-.163.081-.326.081-.489.081h-.325v.814h-.407v-2.278h.651c.244 0 .488.081.65.163zm-.325.895c.08-.082.08-.082.162-.163.082-.082 0-.082 0-.163s0-.163-.081-.244c-.081-.081-.163-.081-.326-.081h-.325v.813h.325c.082-.081.163-.081.245-.162zm1.057-.489a.981.981 0 01.407-.406c.163-.082.407-.163.57-.163.244 0 .406.081.57.163a.981.981 0 01.406.406c.081.163.163.407.163.57 0 .244-.082.407-.163.57a.981.981 0 01-.407.406c-.163.082-.407.163-.57.163-.244 0-.406-.081-.569-.163a.981.981 0 01-.407-.407c-.081-.162-.162-.406-.162-.569 0-.244 0-.407.162-.57zm.326.977c.081.081.162.244.325.325.081.082.244.082.407.082.163 0 .244 0 .407-.082.081-.081.244-.163.244-.325 0-.163.081-.244.081-.407 0-.163 0-.326-.081-.407a.635.635 0 00-.326-.325c-.081-.082-.244-.082-.406-.082-.163 0-.245 0-.407.082-.082.081-.244.162-.326.325-.081.163-.081.244-.081.407 0 .163.081.244.163.407zm4.068.813l-.57-1.383-.57 1.383-.894-2.36h.407l.569 1.547.407-.977-.244-.57h.325l.57 1.465.488-1.464h.407l-.895 2.36zm2.847-2.359v.325h-1.139v.57h1.058v.325h-1.058v.651h1.22v.407h-1.545v-2.278h1.465zm1.872 2.278l-.489-.814h-.325v.814h-.407v-2.278h.651c.244 0 .488.081.651.163a.739.739 0 01.244.57c0 .162 0 .243-.081.406-.082.081-.163.244-.244.244l.57.895h-.57zm-.895-1.139h.325c.163 0 .244 0 .326-.081.08-.082.08-.163.08-.245v-.162c0-.082-.08-.082-.162-.163-.081-.081-.163-.081-.244-.081h-.325v.732zm3.254-1.139v.325h-1.058v.651h.895v.326h-.895v.976h-.406v-2.278h1.464zm.895 1.709c.082.08.082.162.163.162.081.082.163.082.244.082.081 0 .163 0 .244-.082.081-.081.163-.081.163-.163.081-.08.081-.162.081-.244v-1.464h.326v1.464c0 .163 0 .326-.082.407a.636.636 0 01-.325.326c-.163.081-.326.081-.407.081-.081 0-.325 0-.407-.081a.635.635 0 01-.325-.326c-.082-.163-.082-.244-.082-.407v-1.464h.326v1.464c0 .082 0 .163.081.245zm2.359-1.709v1.953h1.14v.325h-1.465v-2.278h.326zm2.767 0h.65c.326 0 .489.081.733.163a.985.985 0 01.407.406c.081.163.162.407.162.57 0 .244-.081.407-.162.57a.985.985 0 01-.407.406c-.163.082-.326.163-.57.163h-.732l-.081-2.278zm.65 1.953c.163 0 .326 0 .407-.082.163-.081.245-.163.326-.244.081-.081.081-.244.081-.407 0-.162 0-.325-.081-.488-.081-.081-.163-.244-.326-.244-.08-.081-.244-.081-.325-.081h-.407v1.546h.326zm3.011.325l-.488-.814h-.325v.814h-.407v-2.278h.651c.244 0 .488.081.65.163a.739.739 0 01.245.57c0 .162 0 .243-.082.406-.081.081-.163.244-.244.244l.407.895h-.407zm-.895-1.139h.326c.162 0 .244 0 .325-.081.081-.082.081-.163.081-.245v-.162c0-.082-.081-.082-.162-.163-.082-.081-.163-.081-.244-.081h-.326v.732zm3.01.57h-.813l-.244.569h-.326l.977-2.36.976 2.36h-.407l-.163-.57zm-.162-.245l-.326-.732-.325.732h.651zm1.546-1.464v2.278h-.407v-2.278h.407zm2.766 0v2.36l-1.627-1.628v1.546h-.407v-2.36l1.627 1.628v-1.546h.407zm1.871 1.709h-.813l-.244.569h-.326l.976-2.36.977 2.36h-.407l-.163-.57zm-.163-.245l-.325-.732-.325.732h.65zm2.604.733c-.163.081-.325.081-.407.081-.244 0-.488-.081-.651-.163a.98.98 0 01-.406-.407c-.082-.162-.163-.325-.163-.569 0-.244.081-.488.163-.65a.98.98 0 01.406-.408c.163-.081.407-.163.57-.163.163 0 .244 0 .407.082.081 0 .244.081.325.081l-.081.326c-.082 0-.163-.082-.244-.082h-.244c-.244 0-.489.082-.651.244a.738.738 0 00-.244.57c0 .163 0 .325.081.407.081.081.163.244.325.244.163.081.245.081.407.081h.244c.082 0 .082 0 .163-.081v-.326h-.407v-.325h.814v.976c-.163 0-.244.082-.407.082zm2.441-2.197v.325h-1.139v.57h1.058v.325h-1.058v.651h1.22v.407h-1.546v-2.278h1.465zm2.359.325c-.081 0-.244 0-.244.082-.081.081-.081.081-.081.244 0 .081.081.162.162.244.082.081.163.081.326.163.081 0 .244.081.325.162.082.082.163.082.163.244.081.082.081.163.081.326 0 .081 0 .244-.081.325l-.244.244c-.081.082-.244.082-.407.082-.163 0-.244 0-.407-.082-.162-.081-.244-.081-.325-.162l.163-.326c.081.082.162.082.244.163.081 0 .244.081.325.081.082 0 .244 0 .326-.081.081-.081.162-.163.162-.244 0-.081 0-.163-.081-.244-.081-.082-.163-.082-.325-.163-.163-.081-.245-.081-.326-.163-.081-.081-.163-.081-.244-.162-.081-.082-.081-.163-.081-.326s.081-.325.162-.488c.163-.081.326-.163.489-.163.162 0 .244 0 .406.082.163.081.244.081.326.162l-.163.244c-.325-.244-.488-.244-.651-.244zm1.221.244a.98.98 0 01.406-.406c.163-.082.407-.163.57-.163.244 0 .407.081.57.163a.98.98 0 01.406.406c.082.163.163.407.163.57 0 .244-.081.407-.163.57a.98.98 0 01-.406.406c-.163.082-.407.163-.57.163-.244 0-.407-.081-.57-.163a.98.98 0 01-.406-.407c-.082-.162-.163-.406-.163-.569 0-.244.081-.407.163-.57zm.325.977c.082.081.163.244.326.325.081.082.244.082.406.082.163 0 .244 0 .407-.082.082-.081.244-.163.244-.325 0-.163.082-.244.082-.407 0-.163 0-.326-.082-.407a.632.632 0 00-.325-.325c-.082-.082-.244-.082-.407-.082-.163 0-.244 0-.407.082-.081.081-.244.162-.325.325-.082.163-.082.244-.082.407.082.163.082.244.163.407zm2.766-1.546v1.953h1.139v.325h-1.464v-2.278h.325zm2.116 1.709c.081.08.081.162.163.162.081.082.162.082.244.082.081 0 .162 0 .244-.082.081-.081.163-.081.163-.163.081-.08.081-.162.081-.244v-1.464h.325v1.464c0 .163 0 .326-.081.407a.636.636 0 01-.325.326c-.163.081-.326.081-.407.081-.163 0-.326 0-.407-.081-.081-.082-.244-.163-.326-.326-.081-.163-.081-.244-.081-.407v-1.464h.326v1.464c0 .082 0 .163.081.245zm3.336-1.709v.325h-.57v1.953h-.325v-1.953h-.57v-.325h1.465zm.895 0v2.278h-.407v-2.278h.407zm.651.569a.98.98 0 01.406-.406c.163-.082.407-.163.57-.163.244 0 .407.081.569.163a.978.978 0 01.407.406c.082.163.163.407.163.57 0 .244-.081.407-.163.57a.978.978 0 01-.407.406c-.162.082-.406.163-.569.163-.244 0-.407-.081-.57-.163a.98.98 0 01-.406-.407c-.082-.162-.163-.406-.163-.569 0-.244.081-.407.163-.57zm.325.977c.081.081.163.244.325.325.082.082.245.082.407.082.163 0 .244 0 .407-.082.081-.081.244-.163.244-.325 0-.163.081-.244.081-.407 0-.163 0-.326-.081-.407a.636.636 0 00-.325-.325c-.163-.082-.244-.082-.407-.082-.163 0-.244 0-.407.082a.632.632 0 00-.325.325c-.082.163-.082.244-.082.407.082.163.082.244.163.407zm4.475-1.546v2.36l-1.627-1.628v1.546h-.407v-2.36l1.627 1.628v-1.546h.407z" fill="#fff"/></svg>