<svg width="350" height="349" fill="none" xmlns="http://www.w3.org/2000/svg"><path d="M221.23 11.182l-4.411-4.412c-9.027-9.027-23.663-9.027-32.69 0L127.77 63.13c-9.027 9.026-9.027 23.661 0 32.688l4.411 4.412c9.027 9.027 23.663 9.027 32.69 0l56.359-56.36c9.027-9.027 9.027-23.661 0-32.688zm-121 122l-4.411-4.412c-9.027-9.027-23.662-9.027-32.69 0L6.77 185.13c-9.027 9.027-9.027 23.661 0 32.688l4.412 4.412c9.026 9.027 23.66 9.027 32.686 0l56.362-56.36c9.027-9.027 9.027-23.661 0-32.688zM11.182 6.77L6.77 11.182c-9.027 9.027-9.027 23.661 0 32.688l56.361 56.36c9.024 9.027 23.66 9.027 32.687 0l4.412-4.412c9.027-9.027 9.027-23.66 0-32.687L43.87 6.77c-9.027-9.027-23.661-9.027-32.688 0zm120.999 122l-4.411 4.412c-9.027 9.027-9.027 23.661 0 32.687l56.359 56.361c9.027 9.026 23.663 9.027 32.69 0l4.411-4.412c9.027-9.026 9.027-23.661 0-32.687l-56.359-56.361c-9.027-9.027-23.663-9.027-32.69 0zm211.049 3.412l-4.411-4.412c-9.027-9.027-23.663-9.027-32.69 0l-56.359 56.36c-9.027 9.027-9.027 23.661 0 32.688l4.419 4.412c9.019 9.027 23.655 9.027 32.682 0l56.359-56.36c9.027-9.027 9.027-23.661 0-32.688zm-122 121l-4.411-4.412c-9.027-9.027-23.663-9.027-32.69 0l-56.359 56.361c-9.027 9.026-9.027 23.66 0 32.687l4.411 4.412c9.027 9.027 23.663 9.027 32.69 0l56.359-56.361c9.027-9.026 9.027-23.66 0-32.687zm32.951-4.412l-4.411 4.412c-9.027 9.027-9.027 23.661 0 32.688l56.359 56.36c9.027 9.027 23.663 9.027 32.69 0l4.411-4.412c9.027-9.027 9.027-23.661 0-32.688l-56.359-56.36c-9.027-9.027-23.663-9.027-32.69 0z" fill="#F4F4F4"/></svg>