<svg width="17" height="16" fill="none" xmlns="http://www.w3.org/2000/svg"><path fill-rule="evenodd" clip-rule="evenodd" d="M14.923 14.5h-12a.5.5 0 01-.5-.5V6.5h2c-.26.375-.348 1.074-.348 1.518 0 2.678 2.183 4.856 4.867 4.856s4.867-2.178 4.867-4.856c0-.444-.063-1.133-.386-1.518h2V14a.5.5 0 01-.5.5M8.942 4.949c1.7 0 3.077 1.375 3.077 3.07a3.073 3.073 0 01-3.077 3.07 3.073 3.073 0 01-3.077-3.07 3.073 3.073 0 013.077-3.07M12.923 2h1.5a.5.5 0 01.5.5V4a.5.5 0 01-.5.5h-1.5a.5.5 0 01-.5-.5V2.5a.5.5 0 01.5-.5m2.098-2H2.825A1.9 1.9 0 00.923 1.897v12.205A1.9 1.9 0 002.825 16h12.196a1.9 1.9 0 001.902-1.898V1.898A1.9 1.9 0 0015.021 0" fill="#011F75"/></svg>