<svg width="187" height="93" fill="none" xmlns="http://www.w3.org/2000/svg"><path d="M163.583 2.015l-.794-.795a4.166 4.166 0 00-5.891 0l-10.155 10.155a4.165 4.165 0 000 5.89l.795.795a4.165 4.165 0 005.89 0l10.155-10.155a4.164 4.164 0 000-5.89zM141.655 23.94l-.795-.795a4.165 4.165 0 00-5.89 0L124.815 33.3a4.164 4.164 0 000 5.89l.795.795a4.164 4.164 0 005.889 0l10.156-10.155a4.165 4.165 0 000-5.89zM125.606 1.22l-.795.795a4.165 4.165 0 000 5.89l10.155 10.155a4.165 4.165 0 005.89 0l.795-.795a4.165 4.165 0 000-5.89L131.496 1.22a4.165 4.165 0 00-5.89 0zm21.932 21.926l-.795.795a4.165 4.165 0 000 5.89l10.155 10.154a4.166 4.166 0 005.891 0l.794-.794a4.164 4.164 0 000-5.89l-10.155-10.155a4.165 4.165 0 00-5.89 0z" fill="#fff"/><path d="M185.513 23.759l-.795-.796a4.165 4.165 0 00-5.89 0L168.673 33.12a4.165 4.165 0 000 5.89l.796.794a4.164 4.164 0 005.889 0l10.155-10.155a4.164 4.164 0 000-5.89zM163.59 45.688l-.795-.795a4.165 4.165 0 00-5.89 0L146.75 55.048a4.165 4.165 0 000 5.89l.795.794a4.165 4.165 0 005.89 0l10.155-10.155a4.163 4.163 0 000-5.89zm5.882-.795l-.795.795a4.165 4.165 0 000 5.89l10.155 10.155a4.166 4.166 0 005.891 0l.794-.795a4.164 4.164 0 000-5.89l-10.155-10.155a4.165 4.165 0 00-5.89 0z" fill="#FFDC00"/><path d="M70.952 69.431c-.2 0-.285-.085-.285-.285V50.553c0-.2.085-.28.285-.28h5.352c.196 0 .281.08.281.28v6.34a.153.153 0 00.17.17h3.973a.15.15 0 00.126-.043.148.148 0 00.04-.127v-6.34c0-.2.085-.28.285-.28h5.352c.196 0 .28.08.28.28v18.593c0 .2-.084.285-.28.285h-5.352c-.2 0-.285-.085-.285-.285V62.47a.147.147 0 00-.04-.127.149.149 0 00-.126-.043h-3.973a.149.149 0 00-.127.043.153.153 0 00-.043.127v6.676c0 .2-.085.285-.28.285h-5.353zm18.63 0c-.196 0-.28-.085-.28-.285V50.553c0-.2.084-.28.28-.28h12.82c.196 0 .281.08.281.28v4.354c0 .196-.085.28-.281.28h-7.08a.152.152 0 00-.17.17v1.85a.149.149 0 00.102.162.148.148 0 00.069.005h5.662c.196 0 .281.085.281.28v4.228c0 .196-.085.281-.281.281h-5.662a.152.152 0 00-.17.17v2.027a.151.151 0 00.17.17h7.071c.196 0 .281.085.281.282v4.334c0 .2-.085.285-.281.285H89.582z" fill="#fff"/><path fill-rule="evenodd" clip-rule="evenodd" d="M104.761 69.146c0 .2.085.285.255.285l8.618.015c2.049 0 3.652-.592 4.808-1.775a6.322 6.322 0 001.776-4.624c0-3.717-2.527-6.084-6.595-6.084h-2.778a.148.148 0 01-.166-.17v-1.38a.149.149 0 01.098-.164.145.145 0 01.068-.006h7.804c.171 0 .256-.081.256-.28v-4.44a.212.212 0 00-.01-.102.218.218 0 00-.143-.141.221.221 0 00-.103-.008h-13.633a.223.223 0 00-.246.149.224.224 0 00-.009.103v18.622zm9.58-6.113c0 .876-.563 1.523-1.325 1.523h-2.171a.147.147 0 01-.161-.102.144.144 0 01-.005-.068v-2.703a.15.15 0 01.098-.164.145.145 0 01.068-.006h2.171c.788 0 1.325.643 1.325 1.52zm8.011-8.337c-.395 1.238-.592 2.956-.592 5.156 0 2.194.197 3.913.592 5.156 1.002 3.125 3.831 4.76 7.397 4.76 3.565 0 6.38-1.635 7.397-4.76.391-1.265.588-2.984.588-5.156 0-2.173-.197-3.891-.588-5.156-1.002-3.129-3.832-4.764-7.397-4.764-3.566 0-6.384 1.635-7.397 4.764zm9.213 1.69c.14.477.222 1.635.222 3.466h-.008c0 1.83-.081 2.985-.214 3.465-.255.814-.877 1.21-1.805 1.21-.928 0-1.55-.396-1.801-1.21-.145-.48-.226-1.634-.226-3.465s.081-2.989.226-3.466c.251-.817.873-1.213 1.801-1.213.928 0 1.55.396 1.805 1.213z" fill="#fff"/><path d="M.257 92.514c-.17 0-.255-.084-.255-.28V73.61a.225.225 0 01.255-.255H15.61c.2 0 .311.085.311.255v18.622c0 .197-.085.281-.281.281h-5.411c-.14 0-.222-.084-.222-.28V78.736a.147.147 0 00-.17-.166H6.09a.15.15 0 00-.127.04.148.148 0 00-.043.126v13.496c0 .197-.085.281-.255.281H.257zm18.427 0c-.196 0-.281-.085-.281-.28V73.64c0-.2.085-.284.28-.284h12.831c.196 0 .281.084.281.284v4.339c0 .196-.085.28-.28.28H24.43a.152.152 0 00-.17.17v1.85a.152.152 0 00.17.17h5.663c.196 0 .281.085.281.282v4.227c0 .196-.085.28-.28.28h-5.663a.152.152 0 00-.17.171v2.045a.152.152 0 00.17.17h7.082c.196 0 .281.086.281.282v4.338c0 .196-.085.281-.28.281l-12.831-.01z" fill="#fff"/><path fill-rule="evenodd" clip-rule="evenodd" d="M33.87 92.233c0 .196.086.281.282.281l5.326.033c.196 0 .28-.085.28-.28V86.8a.148.148 0 01.17-.167h2.142c2.478 0 4.368-.636 5.633-1.849a6.34 6.34 0 001.946-4.808c0-4.032-2.508-6.62-7.579-6.62h-7.918c-.196 0-.282.084-.282.284v18.593zm9.861-12.257c0 1.158-.647 1.72-1.971 1.72l-1.831.007a.147.147 0 01-.127-.04.146.146 0 01-.043-.126V78.43a.148.148 0 01.17-.17h1.83c1.325 0 1.972.558 1.972 1.716z" fill="#fff"/><path d="M51.62 92.514c-.196 0-.281-.085-.281-.28V73.64c0-.2.085-.284.28-.284h12.813c.2 0 .285.084.285.284v4.339c0 .196-.085.28-.285.28h-7.065a.149.149 0 00-.166.17v1.85a.148.148 0 00.166.17h5.667c.196 0 .28.085.28.282v4.227c0 .196-.084.28-.28.28h-5.666a.149.149 0 00-.167.171v2.045a.147.147 0 00.098.164c.022.008.045.01.069.007h7.064c.2 0 .285.085.285.28v4.34c0 .195-.085.28-.285.28l-12.812-.01zm15.471 0c-.196 0-.281-.085-.281-.28V73.64c0-.2.085-.284.281-.284h5.108a.447.447 0 01.477.284l3.946 8.929h.111l3.832-8.929a.45.45 0 01.48-.284h5.042c.196 0 .281.085.281.284v18.593c0 .196-.085.281-.281.281H81.32c-.2 0-.282-.085-.282-.28v-8.789h-.144l-2.533 6.085a.543.543 0 01-.537.37h-2.478a.522.522 0 01-.536-.37l-2.537-6.085h-.14v8.788c0 .196-.082.281-.282.281h-4.76z" fill="#fff"/><path fill-rule="evenodd" clip-rule="evenodd" d="M89.039 77.78c-.395 1.24-.592 2.958-.592 5.155.002 2.2.2 3.918.592 5.156.998 3.129 3.831 4.764 7.397 4.764 3.565 0 6.384-1.635 7.397-4.764.392-1.27.589-2.989.592-5.156.002-2.167-.195-3.886-.592-5.156-1.002-3.125-3.832-4.76-7.397-4.76-3.566 0-6.384 1.635-7.397 4.76zm9.213 1.69c.14.48.225 1.634.225 3.465 0 1.83-.085 2.989-.225 3.466-.252.817-.87 1.213-1.801 1.213-.932 0-1.55-.396-1.805-1.213-.14-.477-.226-1.635-.226-3.466 0-1.83.085-2.985.226-3.466.255-.813.876-1.209 1.805-1.209.928 0 1.55.396 1.8 1.21z" fill="#fff"/><path d="M106.818 92.514c-.196 0-.281-.085-.281-.28V73.64c0-.2.085-.284.281-.284h12.453c.196 0 .281.084.281.284v4.646c0 .2-.085.284-.281.284h-6.657a.154.154 0 00-.068.007.144.144 0 00-.092.093.14.14 0 00-.007.067v13.496c0 .196-.114.281-.31.281h-5.319zm14.398 0c-.17 0-.255-.084-.255-.28V73.61a.226.226 0 01.255-.255h5.411a.223.223 0 01.189.065.217.217 0 01.053.088.221.221 0 01.01.102v8.507h.085l4.845-8.451a.567.567 0 01.507-.311h4.79a.224.224 0 01.254.255v18.622c0 .197-.085.281-.254.281h-5.438c-.14 0-.225-.084-.225-.28v-8.537h-.067l-4.808 8.48a.617.617 0 01-.566.337h-4.786z" fill="#fff"/></svg>