<svg width="137" height="68" fill="none" xmlns="http://www.w3.org/2000/svg"><path d="M119.783 1.475l-.582-.582a3.05 3.05 0 00-4.313 0l-7.436 7.436a3.05 3.05 0 000 4.313l.582.582a3.05 3.05 0 004.313 0l7.436-7.436a3.05 3.05 0 000-4.313zM103.726 17.53l-.582-.582a3.05 3.05 0 00-4.313 0l-7.436 7.436a3.05 3.05 0 000 4.313l.582.582a3.05 3.05 0 004.313 0l7.436-7.436a3.05 3.05 0 000-4.313zM91.975.894l-.583.582a3.05 3.05 0 000 4.312l7.436 7.437a3.05 3.05 0 004.313 0l.582-.583a3.05 3.05 0 000-4.312L96.287.894a3.05 3.05 0 00-4.313 0zm16.059 16.054l-.582.583a3.05 3.05 0 000 4.312l7.436 7.436a3.05 3.05 0 004.313 0l.582-.582a3.05 3.05 0 000-4.313l-7.436-7.436a3.05 3.05 0 00-4.313 0z" fill="#011F75"/><path d="M135.841 17.397l-.582-.582a3.05 3.05 0 00-4.313 0l-7.436 7.436a3.05 3.05 0 000 4.313l.583.582a3.049 3.049 0 004.312 0l7.436-7.436a3.05 3.05 0 000-4.313zm-16.053 16.058l-.582-.583a3.05 3.05 0 00-4.313 0l-7.436 7.436a3.05 3.05 0 000 4.313l.582.582a3.05 3.05 0 004.313 0l7.436-7.436a3.05 3.05 0 000-4.313zm4.307-.582l-.582.582a3.05 3.05 0 000 4.313l7.436 7.436a3.05 3.05 0 004.313 0l.582-.582a3.05 3.05 0 000-4.313l-7.436-7.436a3.05 3.05 0 00-4.313 0z" fill="#FFDC00"/><path d="M51.954 50.84c-.146 0-.208-.062-.208-.208V37.018c0-.147.062-.206.208-.206h3.92c.143 0 .205.06.205.206v4.642a.112.112 0 00.032.093.112.112 0 00.093.031h2.908a.108.108 0 00.122-.124v-4.642c0-.147.063-.206.209-.206h3.919c.143 0 .206.06.206.206v13.614c0 .146-.063.209-.206.209h-3.92c-.145 0-.208-.063-.208-.209v-4.888a.107.107 0 00-.03-.093.109.109 0 00-.092-.032h-2.908a.11.11 0 00-.093.032.111.111 0 00-.032.093v4.888c0 .146-.062.209-.206.209h-3.919zm13.642 0c-.143 0-.206-.062-.206-.208V37.018c0-.147.063-.206.206-.206h9.387c.143 0 .206.06.206.206v3.187c0 .144-.063.206-.206.206h-5.184a.111.111 0 00-.124.125v1.354a.108.108 0 00.124.122h4.147c.143 0 .206.062.206.206v3.095c0 .144-.063.206-.206.206h-4.147a.111.111 0 00-.124.125v1.484a.11.11 0 00.124.124h5.179c.143 0 .205.063.205.206v3.174c0 .146-.062.209-.205.209h-9.382z" fill="#011F75"/><path fill-rule="evenodd" clip-rule="evenodd" d="M76.71 50.632c0 .146.063.209.188.209l6.31.01c1.5 0 2.674-.433 3.52-1.3a4.632 4.632 0 001.3-3.385c0-2.722-1.85-4.455-4.828-4.455h-2.034a.108.108 0 01-.122-.124v-1.01a.107.107 0 01.03-.094.109.109 0 01.092-.031h5.714c.125 0 .187-.06.187-.206v-3.25a.164.164 0 00-.111-.179.162.162 0 00-.076-.005h-9.982a.162.162 0 00-.187.184v13.636zm7.015-4.477c0 .642-.411 1.116-.97 1.116h-1.59a.108.108 0 01-.121-.124v-1.98a.108.108 0 01.072-.12.107.107 0 01.05-.005h1.59c.576 0 .97.471.97 1.113zm5.866-6.105c-.289.907-.433 2.166-.433 3.776 0 1.607.144 2.866.433 3.776.734 2.288 2.806 3.485 5.417 3.485 2.61 0 4.672-1.197 5.416-3.486.287-.926.431-2.184.431-3.775 0-1.59-.144-2.849-.431-3.775-.734-2.291-2.805-3.488-5.416-3.488-2.61 0-4.675 1.197-5.417 3.488zm6.747 1.239c.103.349.162 1.197.162 2.537h-.005c0 1.34-.06 2.186-.157 2.538-.187.596-.642.886-1.322.886s-1.135-.29-1.319-.886c-.106-.352-.165-1.197-.165-2.538 0-1.34.06-2.188.165-2.538.184-.598.64-.888 1.319-.888.68 0 1.135.29 1.322.889z" fill="#011F75"/><path d="M.189 67.743c-.125 0-.187-.062-.187-.206V53.901a.165.165 0 01.187-.187H11.43c.146 0 .227.063.227.187v13.636c0 .144-.062.206-.206.206H7.49c-.103 0-.162-.062-.162-.206v-9.882a.108.108 0 00-.125-.122H4.459a.109.109 0 00-.12.072.108.108 0 00-.004.05v9.882c0 .144-.062.206-.187.206H.188zm13.492 0c-.143 0-.206-.062-.206-.206V53.923c0-.147.063-.209.206-.209h9.395c.144 0 .206.062.206.209v3.176c0 .144-.062.206-.206.206H17.89a.111.111 0 00-.125.125v1.354a.111.111 0 00.125.125h4.146c.144 0 .206.062.206.206v3.095c0 .143-.062.206-.206.206H17.89a.111.111 0 00-.125.124v1.498a.111.111 0 00.125.125h5.186c.144 0 .206.062.206.206v3.176c0 .144-.062.206-.206.206l-9.395-.008z" fill="#011F75"/><path fill-rule="evenodd" clip-rule="evenodd" d="M24.802 67.537c0 .144.062.206.205.206l3.9.024c.144 0 .206-.062.206-.205v-4.003a.107.107 0 01.032-.093.11.11 0 01.093-.03h1.568c1.814 0 3.198-.465 4.125-1.353a4.642 4.642 0 001.424-3.521c0-2.952-1.836-4.848-5.55-4.848h-5.798c-.143 0-.206.062-.206.209v13.614zm7.22-8.975c0 .848-.474 1.26-1.444 1.26l-1.34.005a.108.108 0 01-.12-.072.107.107 0 01-.005-.05V57.43a.108.108 0 01.125-.125h1.34c.97 0 1.444.41 1.444 1.257z" fill="#011F75"/><path d="M37.798 67.743c-.143 0-.206-.062-.206-.206V53.923c0-.147.063-.209.206-.209h9.382c.146 0 .208.062.208.209v3.176c0 .144-.062.206-.208.206h-5.173a.108.108 0 00-.122.125v1.354a.109.109 0 00.072.12.107.107 0 00.05.005h4.15c.143 0 .205.062.205.206v3.095c0 .143-.062.206-.206.206h-4.149a.108.108 0 00-.122.124v1.498a.109.109 0 00.122.125h5.173c.146 0 .208.062.208.206v3.176c0 .144-.062.206-.208.206l-9.382-.008zm11.329 0c-.144 0-.206-.062-.206-.206V53.923c0-.147.062-.209.206-.209h3.74a.328.328 0 01.35.209l2.89 6.537h.08l2.806-6.537a.33.33 0 01.352-.209h3.692c.143 0 .206.062.206.209v13.614c0 .144-.063.206-.206.206h-3.491c-.146 0-.206-.062-.206-.206v-6.435h-.106l-1.855 4.455a.398.398 0 01-.393.271h-1.814a.382.382 0 01-.393-.27l-1.858-4.456h-.103v6.435c0 .144-.06.206-.206.206h-3.485z" fill="#011F75"/><path fill-rule="evenodd" clip-rule="evenodd" d="M65.198 56.953c-.289.908-.433 2.167-.433 3.776.001 1.61.146 2.869.433 3.775.731 2.291 2.806 3.488 5.417 3.488 2.61 0 4.674-1.197 5.416-3.488.287-.93.432-2.188.433-3.775.002-1.587-.142-2.846-.433-3.776-.734-2.288-2.806-3.485-5.416-3.485-2.611 0-4.675 1.197-5.417 3.485zm6.746 1.238c.103.352.165 1.197.165 2.538 0 1.34-.062 2.188-.165 2.537-.184.599-.636.889-1.319.889-.682 0-1.134-.29-1.321-.889-.103-.35-.166-1.197-.166-2.537 0-1.341.063-2.186.166-2.538.187-.596.642-.886 1.321-.886.68 0 1.135.29 1.32.886z" fill="#011F75"/><path d="M78.217 67.743c-.144 0-.206-.062-.206-.206V53.923c0-.147.062-.209.206-.209h9.119c.143 0 .205.062.205.209v3.401c0 .147-.062.209-.205.209H82.46a.11.11 0 00-.091.03.109.109 0 00-.031.092v9.882c0 .144-.084.206-.228.206h-3.894zm10.543 0c-.125 0-.187-.062-.187-.206V53.901a.166.166 0 01.187-.187h3.962a.165.165 0 01.184.187v6.23h.063l3.547-6.19a.414.414 0 01.371-.227h3.508a.163.163 0 01.14.047.161.161 0 01.046.14v13.636c0 .144-.062.206-.186.206h-3.982c-.102 0-.165-.062-.165-.206v-6.25H96.2l-3.52 6.21a.452.452 0 01-.415.246H88.76z" fill="#011F75"/></svg>