<svg width="26" height="26" fill="none" xmlns="http://www.w3.org/2000/svg"><path fill-rule="evenodd" clip-rule="evenodd" d="M13 26c7.18 0 13-5.82 13-13S20.18 0 13 0 0 5.82 0 13s5.82 13 13 13zM5.655 13.069l3.173 1.034a.347.347 0 00.16-.01l.002-.001c.732-.463 7.26-4.585 7.636-4.723.06-.018.104.002.092.043-.151.53-5.83 5.578-5.83 5.578s-.056.063-.046.114c.005.04.026.075.06.098.72.482 3.982 2.674 4.926 3.486a.88.88 0 00.641.248c.481-.018.615-.546.615-.546s2.244-9.028 2.319-10.237l.009-.121c.005-.057.009-.105.01-.155a1.011 1.011 0 00-.028-.28.3.3 0 00-.205-.222c-.205-.078-.552.039-.552.039S6.328 11.838 5.625 12.328c-.151.105-.202.166-.227.238-.122.35.257.503.257.503z" fill="#fff"/></svg>