<svg width="16" height="16" fill="none" xmlns="http://www.w3.org/2000/svg"><path fill-rule="evenodd" clip-rule="evenodd" d="M8 16A8 8 0 108 0a8 8 0 000 16zM3.48 8.042l1.952.637a.214.214 0 00.1-.006v-.001c.452-.285 4.468-2.821 4.7-2.907.036-.01.063.002.056.027-.093.326-3.588 3.433-3.588 3.433s-.034.039-.028.07a.085.085 0 00.037.06C7.152 9.652 9.159 11 9.74 11.5a.542.542 0 00.395.153c.296-.011.379-.336.379-.336s1.38-5.556 1.426-6.3l.006-.074c.003-.035.005-.065.005-.095a.62.62 0 00-.017-.173.184.184 0 00-.125-.137c-.126-.048-.34.024-.34.024S3.894 7.285 3.462 7.586c-.094.065-.125.103-.14.147-.075.215.158.31.158.31z" fill="#011F75"/></svg>