<svg version="1.1" id="Layer_1" xmlns="http://www.w3.org/2000/svg" x="0" y="0" width="499.8" height="553" xml:space="preserve"><style>.st0{fill-rule:evenodd;clip-rule:evenodd;fill:#f2cb51}.st1{fill:#d35b47}.st1,.st2{fill-rule:evenodd;clip-rule:evenodd}.st2,.st3{fill:#98ccc7}.st4{fill:#f2cb51}</style><path class="st0" d="M149.7 225.9h57s8.4-26.9 17.8-57.1C236.4 130.5 250 87 250 87s-27.7 43.5-56.5 81.9c-22.7 30.2-43.8 57-43.8 57zm221.5-57.3c-65.7-38-120.3-80.9-121.3-81.7-1 .8-55.4 43.7-120.8 81.7C77 198.8 10.4 225.9 10.4 225.9h60s46.4-26.5 84.1-56.3c48.2-38.2 94.4-81.8 95.3-82.7 1 .9 47.4 44.5 95.7 82.7 37.8 29.9 85.3 56.3 85.3 56.3h59.3c.2 0-66.6-27-118.9-57.3zM250 87s13.5 43.4 25.5 81.8c9.4 30.2 17.8 57.2 17.8 57.2h56.9s-21.2-26.9-43.8-57C277.6 130.6 250 87 250 87z"/><path class="st1" d="M210.6 225.9h78L249.9 87l-39.3 138.9zm135.3-57.3c-48.6-38.2-95.8-81.4-96-81.6v-.1s-47.3 43.3-96.1 81.6c-38.6 30.3-74.2 57.4-74.2 57.4h63s29.3-27.3 51.8-57.6c27.8-37.4 54.4-79.6 55.5-81.3.2.3 27.1 43.3 55.4 81.4 22.5 30.4 52.8 57.6 52.8 57.6H423c0-.1-38.5-27.2-77.1-57.4z"/><path class="st1" d="M249.9 72.4c4.7 0 8.5 3.8 8.5 8.5s-3.8 8.5-8.5 8.5-8.5-3.8-8.5-8.5 3.8-8.5 8.5-8.5z"/><path class="st2" d="M249.9 30.2s12-17.4 60-2c50.1 16 72-22 72-22 .8 6.2-19.1 67.3-76 49-34-10.9-56 13-56 13v-38z"/><path class="st1" d="M209.9 230.7c.2 21.5 17.7 38.8 39.2 38.8 21.5 0 39-17.3 39.2-38.8h-78.4z"/><path class="st0" d="M148.9 230.7c.2 15.7 13 28.4 28.7 28.4s28.5-12.7 28.7-28.4h-57.4zm144 0c.2 15.7 13 28.4 28.7 28.4s28.5-12.7 28.7-28.4h-57.4zm-282.1 0c.2 16.5 13.6 29.8 30.2 29.8s30-13.3 30.2-29.8H10.8zm419.6 0c.2 16.5 13.6 29.8 30.2 29.8s30-13.3 30.2-29.8h-60.4z"/><path class="st1" d="M78.5 230.6c.2 17.7 14.6 32 32.4 32 17.8 0 32.2-14.3 32.4-32H78.5zm279.7 0c.2 17.7 14.6 32 32.4 32s32.2-14.3 32.4-32h-64.8z"/><path class="st2" d="M58.9 290.4h4v-26h-4v26zm0 118h4v-29h-4v29zm285-113h4v-31h-4v31zm0 113h4v-24h-4v24zm-96-113h4v-12h-4v12zm0 113h4v-24h-4v24zm-96-113h4v-31h-4v31zm0 113h4v-24h-4v24zm286-144v26h4v-26h-4zm0 144h4v-29h-4v29zM10.7 452.3v-15.9c0-6.7 4.8-12.2 10.8-12.2h458c5.9 0 10.8 5.4 10.8 12.2v15.9"/><path class="st1" d="M12.6 456.5h475.7c1.1 0 1.9.8 1.9 1.7v4.6c0 1-.9 1.7-1.9 1.7H12.6c-1.1 0-1.9-.8-1.9-1.7v-4.6c0-.9.9-1.7 1.9-1.7z"/><path class="st3" d="M42.7 487.1v15.1l-23-21.3h-2.6l-6.4 6.2v46.5h9.6l6.4-6.2v-15.1l22.9 21.3h2.6l6.4-6.2v-46.5H49l-6.3 6.2zm8-4.6h6.4v43.4h-.4l-31.5-29.3v29.3h-6.4v-43.4h.3l31.6 29.3v-29.3zm15.6 4.6v46.5h35.1l6.4-6.2v-9.3H96.6l4.8-4.7v-9.3H82.3v-7.8h19.1l6.4-6.2v-9.3H72.7l-6.4 6.3zm8-4.6h31.9v6.2H80.7v17.1h19.1v6.2H80.7v7.8h25.5v6.2H74.3v-43.5zm71.1 4.6v26.4c0 1.4-.3 2.7-.8 3.9-1.2.5-2.6.7-4 .7-6.2 0-11.2-4.8-11.2-10.9v-26.4h-9.6l-6.4 6.2v26.4c0 11.2 9.3 20.2 20.7 20.2 5.7 0 10.9-2.2 14.7-5.9 1-1.1 5.3-5.1 6.4-6.2 3.8-3.7 6.1-8.7 6.1-14.3v-26.4h-9.6l-6.3 6.3zm8-4.6h6.4v24.8c0 10.3-8.5 18.6-19.1 18.6-10.6 0-19.1-8.3-19.1-18.6v-24.8h6.4v24.8c0 6.9 5.7 12.4 12.8 12.4 7 0 12.8-5.5 12.8-12.4v-24.8zm39.6 6.2h-9.6v18.6h9.6c5.3 0 9.6-4.2 9.6-9.3-.1-5.2-4.4-9.3-9.6-9.3zm1.4 16.9c-.5.1-1 .1-1.5.1h-8v-9.3h1.6c4.4 0 8 3.5 8 7.8 0 .5 0 1-.1 1.4zm16.1-7.6c0-9.4-7.8-17.1-17.5-17.1h-17.5l-6.4 6.2v46.5h9.6l6.4-6.2v-6.2h1.1l8.4 12.4H206l6.4-6.2-10.1-15c4.9-2.9 8.2-8.3 8.2-14.4zm-1.2 27.9h-7.7l-8.4-12.4h-10v12.4H177v-43.4h16c8.8 0 15.9 6.9 15.9 15.5 0 6.1-3.6 11.4-9 14l9.4 13.9zm36.2-37.2c-8.8 0-15.9 6.9-15.9 15.5s7.1 15.5 15.9 15.5 15.9-6.9 15.9-15.5-7.1-15.5-15.9-15.5zm6.4 28c-1.9.9-4.1 1.5-6.4 1.5-7.9 0-14.4-6.3-14.4-14 0-2.2.6-4.4 1.5-6.3 1.9-.9 4.1-1.5 6.4-1.5 7.9 0 14.4 6.3 14.4 14 0 2.2-.5 4.4-1.5 6.3zm-6.4-35.8c-6.6 0-12.5 2.5-16.8 6.8-1.1 1.1-5.4 5.1-6.4 6.2-4.4 4.2-7.1 10.1-7.1 16.5 0 12.8 10.7 23.3 23.9 23.3 6.6 0 12.6-2.6 16.9-6.8 1.1-1.1 5.4-5.1 6.4-6.2 4.3-4.2 7-10 7-16.4 0-12.9-10.7-23.4-23.9-23.4zm0 45c-12.3 0-22.3-9.7-22.3-21.7s10-21.7 22.3-21.7 22.3 9.7 22.3 21.7-10 21.7-22.3 21.7zm46.2-45h-9.6l-6.4 6.2v46.5h35.1l6.4-6.2v-9.3h-25.5v-37.2zm23.9 38.8v6.2h-31.9v-43.4h6.4v37.2h25.5zm31.1-35.2l-27.6 49.1H330l6.4-6.2.8-1.6H359l4.4 7.8h10.9l6.4-6.2-27.6-49.1-6.4 6.2zm24 41.4l-4.4-7.8h-26.5l-4.3 7.8h-7.3l24.9-44.3 24.9 44.3h-7.3zM343.3 512h19.6l-9.8-17.4-9.8 17.4zm2.7-1.6l2.2-3.8 2.2 3.8H346zm72.3-23.3v15.1l-23-21.3h-2.6l-6.4 6.2v46.5h9.6l6.4-6.2v-15.1l22.9 21.3h2.6l6.4-6.2v-46.5h-9.6l-6.3 6.2zm8-4.6h6.4v43.4h-.4l-31.5-29.3v29.3h-6.4v-43.4h.3l31.6 29.3v-29.3zm39.5-1.6h-17.5l-6.4 6.2v46.5h17.5c6.6 0 12.6-2.6 16.9-6.8 1.1-1.1 5.4-5.1 6.4-6.2 4.3-4.2 7-10 7-16.4.1-12.8-10.6-23.3-23.9-23.3zm0 45h-15.9v-43.4h15.9c12.3 0 22.3 9.7 22.3 21.7.1 12-9.9 21.7-22.3 21.7zm0-37.2h-9.6v31h9.6c8.8 0 15.9-6.9 15.9-15.5.1-8.6-7-15.5-15.9-15.5zm6.5 28c-1.9.9-4.1 1.5-6.4 1.5h-8v-21.7h1.6c7.9 0 14.4 6.3 14.4 14-.1 2.1-.7 4.3-1.6 6.2zM60.9 317.2c-10 0-18.1 8.1-18.1 18.1 0 10 8.1 18.1 18.1 18.1 10 0 18.1-8.1 18.1-18.1 0-10-8.1-18.1-18.1-18.1zm0 33.7c-8.6 0-15.6-7-15.6-15.6s7-15.6 15.6-15.6 15.6 7 15.6 15.6c-.1 8.6-7 15.6-15.6 15.6zm31.4-23.4h-2.6c-.7-2.5-1.6-4.9-2.9-7.1l1.8-1.8c.7-.7 1.1-1.6 1.1-2.5 0-1-.4-1.9-1.1-2.6l-5.9-5.9c-1.4-1.4-3.7-1.4-5.1 0l-1.8 1.8c-2.2-1.3-4.6-2.3-7.1-2.9v-2.6c0-2-1.6-3.6-3.6-3.6h-8.3c-2 0-3.6 1.6-3.6 3.6v2.6c-2.5.7-4.8 1.6-7.1 2.9l-1.8-1.8c-1.4-1.4-3.7-1.4-5.1 0l-5.9 5.9c-.7.7-1.1 1.6-1.1 2.5 0 1 .4 1.9 1.1 2.5l1.8 1.8c-1.3 2.2-2.3 4.6-2.9 7.1h-2.6c-2 0-3.6 1.6-3.6 3.6v8.3c0 2 1.6 3.6 3.6 3.6h2.6c.7 2.5 1.6 4.8 2.9 7.1l-1.8 1.8c-.7.7-1.1 1.6-1.1 2.5 0 1 .4 1.9 1.1 2.5l5.9 5.9c1.4 1.4 3.7 1.4 5.1 0l1.8-1.8c2.2 1.3 4.6 2.3 7.1 2.9v2.6c0 2 1.6 3.6 3.6 3.6H65c2 0 3.6-1.6 3.6-3.6v-2.6c2.5-.7 4.8-1.6 7.1-2.9l1.8 1.8c1.4 1.4 3.7 1.4 5.1 0l5.9-5.9c.7-.7 1.1-1.6 1.1-2.5 0-1-.4-1.9-1.1-2.5l-1.8-1.8c1.3-2.2 2.3-4.6 2.9-7.1h2.6c2 0 3.6-1.6 3.6-3.6V331c.1-1.9-1.5-3.5-3.5-3.5zm1 12c0 .6-.5 1-1 1h-4.7l-.2 1c-.7 2.9-1.8 5.7-3.4 8.2l-.5.9 3.3 3.3c.4.4.4 1 0 1.4l-5.9 5.9c-.4.4-1 .4-1.4 0l-3.3-3.3-.9.5c-2.5 1.6-5.3 2.7-8.2 3.4l-1 .2v4.7c0 .6-.5 1-1 1h-8.3c-.6 0-1-.5-1-1V362l-1-.2c-2.9-.7-5.7-1.8-8.2-3.4l-.9-.5-3.3 3.3c-.4.4-1 .4-1.4 0l-5.9-5.9c-.4-.4-.4-1 0-1.4l3.3-3.3-.5-.9c-1.6-2.5-2.7-5.3-3.4-8.2l-.2-1h-4.7c-.6 0-1-.5-1-1v-8.3c0-.6.5-1 1-1h4.7l.2-1c.7-2.9 1.8-5.7 3.4-8.2l.5-.9-3.3-3.3c-.4-.4-.4-1 0-1.4l5.9-5.9c.4-.4 1-.4 1.4 0l3.3 3.3.9-.5c2.5-1.6 5.3-2.7 8.2-3.4l1-.2V304c0-.6.5-1 1-1H65c.6 0 1 .5 1 1v4.7l1 .2c2.9.7 5.7 1.8 8.2 3.4l.9.5 3.3-3.3c.4-.4 1-.4 1.4 0l5.9 5.9c.4.4.4 1 0 1.4l-3.3 3.3.5.9c1.6 2.5 2.7 5.3 3.4 8.2l.2 1h4.7c.6 0 1 .5 1 1v8.3zm-32.4-17.2c-7.1 0-13 5.8-13 13 0 7.1 5.8 13 13 13 7.1 0 13-5.8 13-13-.1-7.1-5.9-13-13-13zm0 23.4c-5.7 0-10.4-4.7-10.4-10.4s4.7-10.4 10.4-10.4 10.4 4.7 10.4 10.4c-.1 5.7-4.7 10.4-10.4 10.4z"/><path class="st4" d="M185.6 349.3c.2-1.3.3-2.7.3-4.1 0-6.9-2.2-13.3-5.9-18.5.7-1 1.1-2.1 1.1-3.3 0-1.5-.6-2.9-1.7-4-6.8-6.9-15.9-10.7-25.5-10.7-9.7 0-18.8 3.8-25.6 10.7-2 2-2.1 5.1-.6 7.3-3.7 5.3-5.8 11.6-5.8 18.5 0 1.4.1 2.7.3 4.1-2.6 3.3-3.8 7.7-3.1 12.2 1.2 7.4 7.5 12.9 15 13 1.3 2 3.4 3.3 5.9 3.3.4 0 .8 0 1.2-.1 3.8-.6 6.4-4.3 5.8-8.2l-4.1-24.8c-.6-3.4-3.5-5.9-6.9-5.9-.4 0-.8 0-1.2.1-1.8.3-3.5 1.3-4.5 2.9-.5.8-.9 1.6-1.1 2.5-1.6.6-3 1.4-4.3 2.4v-1.4c0-6.2 2-11.9 5.2-16.7.7.3 1.5.5 2.4.5 1.5 0 2.9-.6 4-1.7 4.7-4.8 11-7.4 17.7-7.4 6.7 0 12.9 2.6 17.6 7.4 1.1 1.1 2.5 1.7 4 1.7.8 0 1.6-.2 2.3-.5 3.3 4.8 5.2 10.5 5.2 16.7v1.4c-1.3-1-2.7-1.8-4.3-2.4-.2-.9-.6-1.7-1.1-2.5-1.1-1.5-2.7-2.6-4.5-2.9-.4-.1-.8-.1-1.2-.1-3.4 0-6.3 2.5-6.9 5.9l-4.1 24.8c-.6 3.8 1.9 7.5 5.7 8.2.4.1.8.1 1.2.1 2.5 0 4.7-1.3 5.9-3.3 7.5-.1 13.7-5.5 15-13 .4-4.5-.8-8.8-3.4-12.2zm-50.4-7.6c.2 0 .5-.1.7-.1 2.1 0 3.8 1.5 4.1 3.5l4.1 24.8c.4 2.3-1.2 4.5-3.4 4.9-1.9.3-3.6-.7-4.4-2.3l-.1-.1c-.1-.2-.1-.3-.2-.5s-.1-.4-.2-.6l-4.1-24.8v-1.2c.2-1.8 1.6-3.3 3.5-3.6zm-6.2 5.6l2 12.1 2 12.1c-5.6-.6-10.2-4.8-11.2-10.5-.4-2.7 0-5.3 1.1-7.6.6 2.5 1.5 4.9 2.7 7.1.4.7 1.2.9 1.9.6.7-.4.9-1.2.6-1.9-1.5-2.8-2.5-5.8-3-9 1.1-1.2 2.4-2.2 3.9-2.9zm44.5-21.9c-5.2-5.3-12.2-8.2-19.6-8.2-7.4 0-14.4 2.9-19.6 8.2-1.1 1.1-2.9 1.1-4 0s-1.1-2.9 0-4c6.3-6.4 14.7-9.9 23.6-9.9 8.9 0 17.3 3.5 23.6 9.8.5.5.8 1.2.8 2s-.3 1.5-.8 2c-1.1 1.2-2.9 1.2-4 .1zm-6.4 49.4c-2.3-.4-3.8-2.6-3.4-4.9l4.1-24.8c.3-2.1 2.1-3.5 4.1-3.5.2 0 .5 0 .7.1 1.9.3 3.2 1.8 3.5 3.6v1.2l-4.1 24.8c0 .2-.1.4-.2.6-.1.2-.1.3-.2.5l-.1.2c-.8 1.6-2.6 2.6-4.4 2.2zm18.8-13.8c-1 5.7-5.6 10-11.2 10.5l2-12.1 2-12.1c1.5.7 2.8 1.7 3.9 2.8-.5 3.2-1.5 6.2-3 9-.4.7-.1 1.5.6 1.9.2.1.4.2.7.2.5 0 1-.3 1.2-.7 1.2-2.3 2.1-4.7 2.8-7.1 1 2.3 1.4 4.9 1 7.6z"/><path d="M282.2 306h-65.1c-2.5 0-4.5 2-4.5 4.5v45.7c0 2.5 2 4.5 4.5 4.5h22.3v3.3c0 3-2.4 5.5-5.4 5.5h-4.9c-.9 0-1.7.8-1.7 1.7 0 1 .8 1.7 1.7 1.7h41.1c.9 0 1.7-.8 1.7-1.7 0-1-.8-1.7-1.7-1.7h-4.9c-3 0-5.4-2.5-5.4-5.5v-3.3h22.3c2.5 0 4.5-2 4.5-4.5v-45.7c0-2.5-2-4.5-4.5-4.5zM241 369.5c1.2-1.5 1.9-3.4 1.9-5.5v-3.3h13.7v3.3c0 2.1.7 4 1.9 5.5H241zm42.3-13.3c0 .6-.5 1.1-1.1 1.1h-65.1c-.6 0-1.1-.5-1.1-1.1v-9.1h67.2v9.1zm0-12.6h-67.2v-33.1c0-.6.5-1.1 1.1-1.1h65.1c.6 0 1.1.5 1.1 1.1v33.1zm-33.6 10.5c1 0 1.8-.8 1.8-1.9s-.8-1.9-1.8-1.9-1.8.8-1.8 1.9.8 1.9 1.8 1.9zm2.9-36.1c-.7-.7-1.7-.7-2.4 0l-12.1 12.3c-.7.7-.7 1.8 0 2.5.3.3.8.5 1.2.5.4 0 .9-.2 1.2-.5l12.1-12.3c.7-.8.7-1.9 0-2.5zm4.8 7.1l-4.8 4.9c-.7.7-.7 1.8 0 2.5.3.3.8.5 1.2.5.4 0 .9-.2 1.2-.5l4.8-4.9c.7-.7.7-1.8 0-2.5s-1.8-.7-2.4 0z" fill="#d35b47"/><path class="st4" d="M366.8 343.8c1.2-.1 2.5.2 3.5.7 1.1.6 2.4.5 3.4-.1s1.7-1.7 1.7-3v-15.6c0-.7-.6-1.4-1.4-1.4h-15.6c-.4 0-.6-.2-.7-.4-.1-.1-.2-.4 0-.8.8-1.5 1.1-3.2 1-4.9-.3-5-4.4-9-9.3-9.2-2.7-.1-5.2.9-7.1 2.7-1.9 1.9-3 4.3-3 7 0 1.5.3 3 1 4.4.2.4 0 .7 0 .8-.1.1-.3.4-.7.4H324c-.7 0-1.4.6-1.4 1.4v15.6c0 .4-.2.6-.4.7-.1.1-.4.2-.8 0-1.5-.8-3.2-1.1-4.9-1-5 .3-9 4.4-9.2 9.3-.1 2.7.9 5.2 2.7 7.1 1.9 1.9 4.3 3 7 3 1.5 0 3-.3 4.4-1 .4-.2.7 0 .8 0 .1.1.4.3.4.7v15.6c0 .7.6 1.4 1.4 1.4h15.6c1.2 0 2.3-.6 3-1.7.6-1 .7-2.3.2-3.4-.5-1.1-.8-2.3-.7-3.5.2-3.6 3.2-6.5 6.7-6.6 1.9-.1 3.8.6 5.2 2 1.4 1.3 2.2 3.1 2.2 5.1 0 1.1-.3 2.2-.7 3.1-.6 1.1-.5 2.4.1 3.4s1.8 1.7 3 1.7h15.6c.7 0 1.4-.6 1.4-1.4v-15.6c0-1.2-.6-2.3-1.7-3-1-.6-2.3-.7-3.4-.1-1 .5-2 .7-3.1.7-1.9 0-3.7-.8-5.1-2.2-1.3-1.4-2-3.2-2-5.2 0-3.5 2.9-6.5 6.5-6.7zm-9.3 6.7c-.1 2.7.9 5.2 2.7 7.1 1.9 1.9 4.3 3 7 3 1.5 0 3-.3 4.4-1 .4-.2.7 0 .8 0 .1.1.4.3.4.7v14.2h-14.2c-.4 0-.6-.2-.7-.4-.1-.1-.2-.4 0-.8.7-1.4 1-2.8 1-4.4 0-2.7-1.1-5.2-3-7-1.8-1.8-4.2-2.7-6.8-2.7h-.4c-5 .2-9.1 4.2-9.3 9.2-.1 1.7.3 3.4 1 4.9.2.4 0 .7 0 .8-.1.1-.3.4-.7.4h-14.2v-14.2c0-1.2-.6-2.3-1.7-3-1-.6-2.3-.7-3.4-.1-1 .5-2 .7-3.1.7-1.9 0-3.7-.8-5.1-2.2-1.3-1.4-2-3.2-2-5.2.1-3.6 3.1-6.5 6.6-6.7 1.2-.1 2.5.2 3.5.7 1.1.6 2.4.5 3.4-.1s1.7-1.7 1.7-3v-14.2h14.2c1.2 0 2.3-.6 3-1.7.6-1 .7-2.3.1-3.4-.5-1-.7-2-.7-3.1 0-1.9.8-3.7 2.2-5.1 1.4-1.3 3.2-2 5.2-2 3.6.1 6.5 3.1 6.7 6.6.1 1.2-.2 2.5-.7 3.5-.6 1.1-.5 2.4.2 3.4.6 1 1.7 1.7 3 1.7h14.2v14.2c0 .4-.2.6-.4.7-.1.1-.4.2-.8 0-1.5-.8-3.2-1.1-4.9-1-5 .4-9.1 4.5-9.2 9.5zm-23-21h-5.4c-.7 0-1.4.6-1.4 1.4 0 .7.6 1.4 1.4 1.4h5.4c.7 0 1.4-.6 1.4-1.4-.1-.7-.7-1.4-1.4-1.4zm6.5 0h-1.5c-.7 0-1.4.6-1.4 1.4 0 .7.6 1.4 1.4 1.4h1.5c.7 0 1.4-.6 1.4-1.4 0-.7-.6-1.4-1.4-1.4z"/><path class="st3" d="M466.1 327.2h-59.9c-.8 0-1.4.6-1.4 1.4v4.8c0 .8.6 1.4 1.4 1.4h.9v27.7h-.9c-.8 0-1.4.6-1.4 1.4v4.9c0 .8.6 1.4 1.4 1.4h59.9c.8 0 1.4-.6 1.4-1.4V364c0-.8-.6-1.4-1.4-1.4h-.9v-27.7h.9c.8 0 1.4-.6 1.4-1.4v-4.8c0-.9-.6-1.5-1.4-1.5zm-1.5 40.2h-57v-2h57v2zm-3.2-5H438l11.7-25.2 11.7 25.2zm-9.5-27.6h10.4v22.6l-10.4-22.6zm-15.7 24.9l-11.5-24.9h23l-11.5 24.9zm-2 2.7h-23.4l11.7-25.2 11.7 25.2zm-24.2-5v-22.6h10.4L410 357.4zm54.6-25.4h-57v-2h57v2zm-30.6-8.2c.4.5 1 .9 1.7.9h.3c1.3 0 2.3-.9 2.5-2.2.1-.7-.1-1.3-.5-1.8s-1-.9-1.7-.9h-.3c-.4 0-.9.1-1.2.3L402 304.7c-.7-.3-1.6 0-1.9.7-.3.7 0 1.6.7 1.9l32.8 15.4c0 .4.2.8.4 1.1zm38.8-22.5c-.3-.7-1.1-1.1-1.9-.9l-33.9 12c-.4-.3-.9-.5-1.4-.5-.6 0-1.1.2-1.5.5-.5.4-.9 1-.9 1.7-.1.7.1 1.3.5 1.8.5.6 1.2 1 2 1 .6 0 1.1-.2 1.5-.5.4-.3.7-.8.9-1.3l33.9-12c.7-.3 1.1-1.1.8-1.8z"/></svg>