<svg version="1.1" id="Capa_1" xmlns="http://www.w3.org/2000/svg" x="0" y="0" width="512" height="512" xml:space="preserve"><style>.st0{fill:#fff}</style><path class="st0" d="M256 512C114.8 512 0 397.2 0 256S114.8 0 256 0s256 114.8 256 256-114.9 256-256 256zm0-494.6c-131.6 0-238.6 107-238.6 238.6S124.5 494.6 256 494.6s238.6-107 238.6-238.6S387.6 17.4 256 17.4z"/><path class="st0" d="M285.5 345.9c-2.2 0-4.4-.8-6.1-2.5l-84.8-84.9c-3.4-3.4-3.4-8.9 0-12.3l84.8-84.9c3.4-3.4 8.9-3.4 12.3 0 3.4 3.4 3.4 8.9 0 12.3L213 252.3l78.7 78.8c3.4 3.4 3.4 8.9 0 12.3-1.8 1.6-4 2.5-6.2 2.5z"/></svg>