<svg version="1.1" id="Layer_1" xmlns="http://www.w3.org/2000/svg" x="0" y="0" width="35" height="35" xml:space="preserve"><style>.st0{fill:#fff}</style><g id="whatsapp__x2C__icons__x2C__logo__x2C__social__x2C__media"><path class="st0" d="M29.8 5.1C26.7 2 22.3 0 17.5 0 12.6 0 8.2 2 5.1 5.1 1.9 8.3 0 12.7 0 17.5c0 4.8 2 9.2 5.1 12.4C8.2 33 12.6 35 17.5 35c4.8 0 9.2-2 12.4-5.1C33 26.7 35 22.3 35 17.5c0-4.8-2-9.2-5.2-12.4zm-.9 23.8c-2.9 2.9-6.9 4.7-11.4 4.7S9 31.8 6 28.9C3.1 26 1.3 22 1.3 17.5S3.1 9 6 6.1c3-2.9 7-4.7 11.5-4.7S26 3.2 28.9 6.1c2.9 2.9 4.7 6.9 4.7 11.4s-1.8 8.5-4.7 11.4z"/><path class="st0" d="M21.6 19c-.2-.1-1.3-.6-1.5-.7-.2-.1-.3-.1-.5.1-.1.2-.6.7-.7.8-.1.2-.3.2-.5.1s-.9-.3-1.7-1.1c-.6-.6-1.1-1.3-1.2-1.5-.1-.2 0-.3.1-.5.1-.1.2-.2.3-.4l.1-.1c.1-.1.1-.2.1-.3.1-.1 0-.3 0-.4 0-.1-.5-1.2-.7-1.6-.2-.4-.4-.4-.5-.4h-.4c-.2 0-.4 0-.6.3-.2.2-.8.7-.8 1.8 0 .2 0 .5.1.7.2.8.7 1.4.8 1.5.1.1 1.5 2.4 3.7 3.2 2.2.9 2.2.6 2.6.5.4 0 1.3-.5 1.5-1 .2-.5.2-.9.1-1 .1.2 0 .1-.3 0z"/><path class="st0" d="M17.6 8.6c-4.7 0-8.6 3.7-8.8 8.3v.4c0 1.6.5 3.2 1.3 4.5l-1.6 4.7 4.9-1.5c1.3.7 2.7 1.1 4.2 1.1 4.8 0 8.8-3.9 8.8-8.7v-.2c-.1-4.9-4-8.6-8.8-8.6zm0 16c-1.5 0-2.9-.4-4.1-1.2l-2.8.9.9-2.7c-.9-1.2-1.4-2.7-1.4-4.3v-.7c.4-3.7 3.5-6.6 7.3-6.6 3.9 0 7.1 3 7.4 6.7v.6c.1 4-3.2 7.3-7.3 7.3z"/></g></svg>