<svg width="185" height="159" fill="none" xmlns="http://www.w3.org/2000/svg"><g clip-path="url(#clip0)"><path d="M135.321 128.091c24.312-24.312 24.312-63.73 0-88.042-24.312-24.313-63.73-24.313-88.042 0-24.313 24.312-24.313 63.73 0 88.042 24.312 24.312 63.73 24.312 88.042 0z" fill="#9FDF9D"/><path d="M2.695 4.194l18.27 42.866 13.351-9.135 7.738 11.244L43.451 30.2l16.16-9.847L2.695 4.194z" fill="#FFB031"/><path d="M37.276 35.896L20.964 47.06l13.352-9.135 7.738 11.244L43.451 30.2l-25.75-15.335 19.575 21.03z" fill="#FF9433"/><path d="M43.11 34.85L17.7 14.867 43.451 30.2l-.342 4.65z" fill="#F73"/><path d="M42.382 54.515a28.256 28.256 0 00-.543-2.477l1.253-.336c.227.847.417 1.719.568 2.592l-1.278.22zM27.254 83.63a10.717 10.717 0 01-5.209-1.737l.717-1.08a9.43 9.43 0 004.578 1.524l-.086 1.294zm5.387-1.057l-.572-1.163c1.35-.663 2.654-1.691 3.88-3.055l.964.866c-1.336 1.488-2.774 2.617-4.272 3.352zm-14.204-4.821a10.707 10.707 0 01-1.118-4.712c0-.131.002-.263.008-.394l.015-.281 1.293.095-.013.236a9.395 9.395 0 00.976 4.482l-1.16.574zm50.175-.296l-.006-1.297a75.549 75.549 0 005.166-.205l.095 1.293a76.241 76.241 0 01-5.255.209zm-5.26-.17l-.828-.064a50.02 50.02 0 01-4.416-.55l.22-1.278c1.34.232 2.747.407 4.303.536l.811.06-.09 1.296zm15.74-.59l-.175-1.285a94.473 94.473 0 005.11-.843l.246 1.273a95.957 95.957 0 01-5.18.855zm-26.137-1.311a25.108 25.108 0 01-4.247-1.883 23.333 23.333 0 01-.607-.354l.67-1.111c.19.115.38.226.572.334a23.852 23.852 0 004.03 1.786l-.418 1.228zm-12.942-.517l-1.125-.646a29.154 29.154 0 002.14-4.624l1.22.439a30.453 30.453 0 01-2.235 4.83zm49.385-.143l-.305-1.26c1.622-.393 3.31-.84 5.016-1.33l.357 1.248c-1.724.493-3.428.944-5.068 1.342zm10.077-2.872l-.4-1.233a187.601 187.601 0 004.92-1.673l.433 1.222a187.604 187.604 0 01-4.953 1.684zm-55.704-1.71c-1.193-.868-2.474-1.78-3.86-2.54l-.435-.23.594-1.153c.154.079.31.16.462.245 1.455.796 2.83 1.774 4.003 2.629l-.764 1.05zm-23.318-1.95l-.907-.926c1.142-1.118 2.703-1.955 4.773-2.561l.436 1.223c-1.906.558-3.329 1.313-4.302 2.265zm14.286-2.531a20.607 20.607 0 00-4.495-.498l-.526.007-.032-1.297c1.785-.044 3.587.13 5.336.522l-.283 1.266zm8.878-.764l-1.277-.227c.297-1.676.451-3.385.46-5.078l1.297.006a31.366 31.366 0 01-.48 5.299z" fill="#54CC76"/><path d="M109.393 68.34l-.461-1.212c.807-.308 1.614-.62 2.418-.934l.471 1.208c-.807.315-1.616.629-2.428.938z" fill="#00C8B7"/><path d="M150.221 99.946a1.296 1.296 0 01-.124-2.587c7.837-.76 15.048-4.501 20.302-10.535a1.297 1.297 0 011.956 1.703c-5.692 6.536-13.507 10.59-22.007 11.413a1.398 1.398 0 01-.127.006z" fill="#44BC66"/><path d="M134.415 99.035l-45.18 26.643-45.18-26.643c0-.022 0-.051.007-.074.037-.17 2.53-2.251 6.333-5.34.037-.03.066-.06.103-.088C62.974 83.403 89.234 62.66 89.234 62.66s26.261 20.743 38.736 30.873c3.862 3.134 6.4 5.252 6.436 5.429a.204.204 0 01.009.073z" fill="#7A4C08"/><path d="M107.816 40.596H59.069a7.57 7.57 0 00-7.57 7.57v73.704a7.57 7.57 0 007.57 7.571h61.082a7.57 7.57 0 007.571-7.571V60.5l-19.906-19.904z" fill="#fff"/><path d="M107.815 52.93a7.57 7.57 0 007.571 7.572h12.334l-19.905-19.905V52.93z" fill="#E6E8E8"/><path d="M82.543 53.054H65.725a2.697 2.697 0 00-2.697 2.697v16.818a2.697 2.697 0 002.697 2.697h16.818a2.697 2.697 0 002.697-2.697V55.75a2.698 2.698 0 00-2.697-2.697z" fill="#54CC76"/><path d="M105.582 81.438H65.229a2.173 2.173 0 000 4.346h40.353a2.173 2.173 0 000-4.347zm0 10.824H65.229a2.173 2.173 0 000 4.346h40.353a2.173 2.173 0 000-4.346zm-18.326 10.5H65.229a2.173 2.173 0 000 4.346h22.027a2.173 2.173 0 000-4.346z" fill="#D9DBDB"/><path d="M134.42 99.034v43.344c0 3.029-2.476 5.505-5.506 5.505H49.552c-3.03 0-5.492-2.476-5.492-5.505V99.034l45.18 26.639 45.18-26.64z" fill="#FFB031"/><path d="M132.893 146.158l-29.079-29.079-14.574 8.593-14.58-8.596-29.08 29.081a5.457 5.457 0 003.972 1.727h79.363a5.482 5.482 0 003.978-1.726z" fill="#FF9433"/><path d="M143.545 39.533c-13.006 1.277-23.397 11.996-24.326 25.032a26.95 26.95 0 004.761 17.388c1.275 1.837 1.485 4.209.627 6.274l-2.145 5.164 8.767-2.273a6.609 6.609 0 014.292.333c4.064 1.763 8.641 2.566 13.451 2.1 12.765-1.235 23.095-11.544 24.327-24.31 1.655-17.127-12.622-31.39-29.754-29.708z" fill="#54CC76"/><path d="M146.96 80.256l1.492-1.492s-1.185-2.792 3.782-7.501c2.956-2.803 3.618-5.516 3.378-7.735-.383-3.532-3.267-6.416-6.799-6.8-2.219-.24-4.932.422-7.735 3.379-4.709 4.967-7.501 3.783-7.501 3.783l-1.492 1.492 14.875 14.874zm-11.509-9.111a4.113 4.113 0 00.408 5.337 4.113 4.113 0 005.337.408l-5.745-5.745zm21.204-12.605l-.929.929a8.972 8.972 0 00-2.863-2.848l.936-.937a2.022 2.022 0 012.863 0 2.022 2.022 0 01-.007 2.856z" fill="#fff"/><path d="M145.559 39.417c9.668 2.895 16.718 11.849 16.718 22.458 0 12.95-10.499 23.45-23.451 23.45-6.823 0-12.946-2.931-17.231-7.582a27.121 27.121 0 002.385 4.21c1.275 1.836 1.485 4.209.627 6.274l-2.145 5.164 8.767-2.273a6.609 6.609 0 014.292.333c4.064 1.763 8.641 2.566 13.451 2.1 12.765-1.235 23.095-11.545 24.327-24.31 1.59-16.451-11.522-30.25-27.74-29.824z" fill="#44BC66"/><path d="M4.244 16.905l5.925 13.598a1.367 1.367 0 01-.711 1.799l-.211.09a1.367 1.367 0 01-1.801-.723l-5.714-13.69a1.366 1.366 0 012.512-1.074z" fill="#FFB031"/><path d="M27.459 112.602a4.357 4.357 0 100 8.715 4.357 4.357 0 000-8.715zm0 6.12a1.763 1.763 0 11-.001-3.525 1.763 1.763 0 010 3.525zm116.747 11.51a4.357 4.357 0 100 8.715 4.357 4.357 0 000-8.715zm0 6.12a1.763 1.763 0 110-3.527 1.763 1.763 0 010 3.527zm35.643-73.788a3.336 3.336 0 100 6.672 3.336 3.336 0 000-6.672zm0 4.686a1.35 1.35 0 11-.001-2.699 1.35 1.35 0 01.001 2.699zM121.112 9.202a3.527 3.527 0 100 7.053 3.527 3.527 0 000-7.053zm0 4.955a1.428 1.428 0 110-2.857 1.428 1.428 0 010 2.857zM8.293 91.38a3.708 3.708 0 100 7.417 3.708 3.708 0 000-7.416zm148.776 12.276a2.698 2.698 0 10.001 5.395 2.698 2.698 0 00-.001-5.395zM67.752 10.31a3.942 3.942 0 100 7.885 3.942 3.942 0 000-7.885zm21.104 142.789a2.872 2.872 0 100 5.744 2.872 2.872 0 000-5.744zm55.601-127.584a3.37 3.37 0 100 6.741 3.37 3.37 0 000-6.741zM25.039 55.565a1.919 1.919 0 100-3.838 1.919 1.919 0 000 3.838zm155.975-9.814a3.274 3.274 0 100 6.548 3.274 3.274 0 000-6.548zM6.454 67.254a2.089 2.089 0 100-4.178 2.089 2.089 0 000 4.178zM94.273 3.307l1.312-1.312a1.173 1.173 0 000-1.654 1.173 1.173 0 00-1.654 0L92.62 1.653 91.308.34a1.173 1.173 0 00-1.654 0 1.173 1.173 0 000 1.654l1.312 1.312-1.312 1.312a1.173 1.173 0 000 1.654 1.173 1.173 0 001.654 0L92.62 4.96l1.312 1.312a1.173 1.173 0 001.654 0 1.173 1.173 0 000-1.654l-1.313-1.312zM4.96 42.957l1.313-1.312a1.173 1.173 0 000-1.654 1.173 1.173 0 00-1.654 0l-1.312 1.312-1.312-1.312a1.173 1.173 0 00-1.654 0 1.173 1.173 0 000 1.654l1.312 1.312L.34 44.269a1.173 1.173 0 000 1.654 1.173 1.173 0 001.654 0l1.312-1.312 1.312 1.312a1.173 1.173 0 001.654 0 1.173 1.173 0 000-1.654L4.96 42.957zm154.748 80.117l1.111-1.111a.994.994 0 000-1.401.994.994 0 00-1.401 0l-1.111 1.111-1.111-1.111a.994.994 0 00-1.401 0 .994.994 0 000 1.401l1.111 1.111-1.111 1.111a.994.994 0 000 1.401.994.994 0 001.401 0l1.111-1.111 1.111 1.111a.994.994 0 001.401 0 .994.994 0 000-1.401l-1.111-1.111z" fill="#9FDF9D"/></g><defs><clipPath id="clip0"><path fill="#fff" d="M0 0h184.288v158.844H0z"/></clipPath></defs></svg>