<svg width="64" height="64" xmlns="http://www.w3.org/2000/svg"><g fill="#FF0100" fill-rule="evenodd"><path d="M32 29c-1.654 0-3 1.346-3 3s1.346 3 3 3 3-1.346 3-3-1.346-3-3-3m0 8c-2.757 0-5-2.244-5-5 0-2.757 2.243-5 5-5s5 2.243 5 5c0 2.756-2.243 5-5 5"/><path d="M36 33h12v-2H36zm-5-5h2V16h-2zm0 35h2v-9h-2zm0-53h2V1h-2zM1 33h9v-2H1zm53 0h9v-2h-9zm0 15h2v-2h-2zm0-30h2v-2h-2zM8 48h2v-2H8zm0-30h2v-2H8zm38 38h2v-2h-2zm-30 0h2v-2h-2zm30-46h2V8h-2zm-30 0h2V8h-2zm19 35h2v-2h-2zm-4 0h2v-2h-2zm-4 0h2v-2h-2z"/><path d="M3 2c-.552 0-1 .45-1 1v58c0 .551.448 1 1 1h58c.552 0 1-.449 1-1V3c0-.55-.448-1-1-1H3Zm58 62H3c-1.654 0-3-1.346-3-3V3c0-1.654 1.346-3 3-3h58c1.654 0 3 1.346 3 3v58c0 1.654-1.346 3-3 3Z"/><path d="M6 29H4V7c0-1.654 1.346-3 3-3h22v2H7c-.552 0-1 .45-1 1v22Zm23 31H7c-1.654 0-3-1.346-3-3V35h2v22c0 .551.448 1 1 1h22v2Zm28 0H35v-2h22c.552 0 1-.449 1-1V35h2v22c0 1.654-1.346 3-3 3m3-31h-2V7c0-.55-.448-1-1-1H35V4h22c1.654 0 3 1.346 3 3v22Z"/></g></svg>