<svg width="62" height="64" xmlns="http://www.w3.org/2000/svg"><g fill="#FF0100" fill-rule="evenodd"><path d="M2 62h42V9.414L36.586 2H2v60Zm43 2H1a1 1 0 0 1-1-1V1a1 1 0 0 1 1-1h36c.266 0 .52.105.707.293l8 8A.996.996 0 0 1 46 9v54a1 1 0 0 1-1 1Z"/><path d="m10 23.414-3.707-3.707 1.414-1.414L10 20.585l3.293-3.292 1.414 1.414zM18 19h10v-2H18zm0 4h16v-2H18zm-8 10.414-3.707-3.707 1.414-1.414L10 30.585l3.293-3.292 1.414 1.414zM18 29h22v-2H18zm0 4h8v-2h-8zm0 6h22v-2H18zm0 4h12v-2H18zm0 6h14v-2H18zm0 4h22v-2H18zm38-1h2V6h-2zm-6 0h2V6h-2z"/><path d="M52 5h4V2h-4v3Zm-2 2h8V0h-8v7Zm2 50.723 2 3.334 2-3.334V53h-4v4.723ZM54 64a.997.997 0 0 1-.857-.485l-3-5A.992.992 0 0 1 50 58v-6a1 1 0 0 1 1-1h6a1 1 0 0 1 1 1v6c0 .182-.049.36-.143.515l-3 5A.997.997 0 0 1 54 64Zm-3-27h6v-2h-6zm11-11h-2V13h-3v-2h5zM51 41h6v-2h-6zm0 4h6v-2h-6zm0 4h6v-2h-6zM28 33h12v-2H28zm2-14h10v-2H30zm4 30h6v-2h-6zm11-39h-8a1 1 0 0 1-1-1V1h2v7h7v2ZM6 6h2V4H6zm4 0h2V4h-2zm4 0h2V4h-2zm-8 4h26V8H6zm1.707 33.707-1.414-1.414 6-6 1.414 1.414z"/><path d="m12.293 43.707-6-6 1.414-1.414 6 6zm-4.586 10-1.414-1.414 6-6 1.414 1.414z"/><path d="m12.293 53.707-6-6 1.414-1.414 6 6z"/></g></svg>