<svg width="64" height="64" xmlns="http://www.w3.org/2000/svg"><g fill-rule="evenodd"><path d="M9 0v34h2V2h34v8h8v24h2V8.586L46.414 0H9Zm38 3.414L51.586 8H47V3.414ZM9 46v18h46V50h-2v12H11V46zm50-4h3v-4h-3v4Zm-36 0h34v-4H23v4Zm-12 0h10v-4H11v4Zm-2 0H6.277l-3.333-2 3.333-2H9v4Zm49-6H6a.997.997 0 0 0-.515.143l-5 3a.997.997 0 0 0 0 1.714l5 3A.997.997 0 0 0 6 44h47v2H39v2h16v-4h9v-8h-6Z"/><path d="M21.706 52.707c.492-.49.733-.707 1.294-.707s.802.217 1.293.707C24.838 53.253 25.587 54 27 54c1.416 0 2.163-.747 2.707-1.293.49-.49.73-.707 1.293-.707s.802.217 1.292.707C32.837 53.253 33.584 54 35 54v-2c-.563 0-.802-.217-1.291-.707C33.163 50.747 32.416 50 31 50c-1.416 0-2.163.747-2.707 1.293-.49.49-.73.707-1.293.707s-.802-.217-1.294-.707C25.162 50.747 24.413 50 23 50s-2.16.747-2.706 1.293c-.492.49-.733.707-1.294.707s-.802-.217-1.294-.707C17.16 50.747 16.413 50 15 50v2c.563 0 .803.217 1.295.707C16.84 53.253 17.587 54 19 54s2.16-.747 2.706-1.293M15 10h2V8h-2zm4 0h2V8h-2zm4 0h2V8h-2zm-8 6h34v-2H15zm0 4h34v-2H15zm0 4h34v-2H15zm0 4h34v-2H15zm0 4h16v-2H15zm0 26h20v-2H15z"/></g></svg>