<svg width="52" height="64" xmlns="http://www.w3.org/2000/svg"><g fill="#FF0100" fill-rule="evenodd"><path d="M45 14h-1v-2h1c2.757 0 5-2.243 5-5s-2.243-5-5-5V0c3.859 0 7 3.141 7 7s-3.141 7-7 7m-26 0h2v-2h-2zm4 0h2v-2h-2zm-8 0h2v-2h-2zm-7 6h23v-2H8zm0 4h23v-2H8zm0 4h23v-2H8zm0 4h23v-2H8zm0 4h23v-2H8z"/><path d="M39 58H27v-2h11V7a6.98 6.98 0 0 1 2.105-5H7C4.243 2 2 4.243 2 7v49h11v2H1a1 1 0 0 1-1-1V7c0-3.859 3.141-7 7-7h38a1 1 0 1 1 0 2c-2.757 0-5 2.243-5 5v50a1 1 0 0 1-1 1"/><path d="M24 64a1 1 0 0 1-.707-.293L20 60.414l-3.293 3.293A.998.998 0 0 1 15 63V52h2v8.586l2.293-2.293a.999.999 0 0 1 1.414 0L23 60.586V52h2v11a.999.999 0 0 1-1 1"/><path d="M20 42c-2.757 0-5 2.243-5 5s2.243 5 5 5 5-2.243 5-5-2.243-5-5-5m0 12c-3.859 0-7-3.141-7-7s3.141-7 7-7 7 3.141 7 7-3.141 7-7 7M8 48h2v-2H8zm21 0h2v-2h-2zm13-1h2V12h-2z"/></g></svg>