<svg width="64" height="58" xmlns="http://www.w3.org/2000/svg"><g fill-rule="evenodd"><path d="M4 31c-1.103 0-2-.897-2-2s.897-2 2-2 2 .897 2 2-.897 2-2 2m4-2c0-1.76-1.15-3.241-2.732-3.774C7.121 11.924 18.455 2 32 2a27.035 27.035 0 0 1 20.968 10H49v2h6a1 1 0 0 0 1-1V7h-2v3.123C48.517 3.743 40.495 0 32 0 17.409 0 5.208 10.722 3.271 25.074A4 4 0 0 0 0 29c0 2.206 1.794 4 4 4s4-1.794 4-4m52 2c-1.103 0-2-.897-2-2s.897-2 2-2 2 .897 2 2-.897 2-2 2m4-2c0-2.206-1.794-4-4-4s-4 1.794-4 4c0 1.761 1.151 3.242 2.733 3.775C56.883 46.085 45.568 56 32 56a27.035 27.035 0 0 1-20.968-10H15v-2H9a1 1 0 0 0-1 1v6h2v-3.123C15.483 54.257 23.505 58 32 58c14.615 0 26.795-10.714 28.73-25.074A4 4 0 0 0 64 29"/><path d="M44.635 28.175a1.001 1.001 0 0 0 0 1.65l3.975 2.723a16.914 16.914 0 0 1-1.087 3.345l-4.815-.134a1.02 1.02 0 0 0-.837.412.998.998 0 0 0-.133.923l1.616 4.544a16.975 16.975 0 0 1-2.837 2.069l-3.828-2.945a1 1 0 0 0-1.569.511l-1.361 4.619c-1.288.146-2.23.146-3.517 0l-1.362-4.62a.998.998 0 0 0-1.57-.51l-3.826 2.945a17.024 17.024 0 0 1-2.838-2.07l1.617-4.543c.11-.311.06-.656-.133-.923a1.03 1.03 0 0 0-.837-.412l-4.815.134a16.848 16.848 0 0 1-1.087-3.345l3.974-2.723a1 1 0 0 0 0-1.65l-3.974-2.723a16.84 16.84 0 0 1 1.087-3.344l4.815.133c.327-.007.643-.144.837-.412.193-.266.243-.612.133-.923l-1.617-4.544a17.024 17.024 0 0 1 2.838-2.07l3.827 2.946a1 1 0 0 0 1.569-.51l1.362-4.62a14.08 14.08 0 0 1 3.517 0l1.36 4.62a1 1 0 0 0 1.569.51l3.829-2.945a16.975 16.975 0 0 1 2.837 2.069l-1.616 4.544a.998.998 0 0 0 .133.923c.194.268.504.406.837.412l4.815-.133a16.904 16.904 0 0 1 1.087 3.344l-3.975 2.723Zm6.066-2.44a18.922 18.922 0 0 0-1.652-5.085c-.173-.351-.52-.55-.926-.56l-4.012.11 1.347-3.785c.13-.368.035-.78-.246-1.053a18.998 18.998 0 0 0-4.315-3.145.998.998 0 0 0-1.08.09l-3.191 2.456-1.134-3.846a.998.998 0 0 0-.82-.708c-2.02-.285-3.324-.285-5.345 0a.998.998 0 0 0-.82.708l-1.133 3.846-3.192-2.456a.999.999 0 0 0-1.078-.09 19.004 19.004 0 0 0-4.316 3.145c-.28.273-.377.685-.246 1.053l1.347 3.786-4.011-.111c-.387.01-.753.209-.926.56a18.889 18.889 0 0 0-1.653 5.086c-.067.384.097.774.42.996L17.03 29l-3.312 2.269a1 1 0 0 0-.42.996 18.912 18.912 0 0 0 1.653 5.086c.173.35.538.572.926.559l4.01-.111-1.346 3.786c-.131.368-.034.78.246 1.053a18.974 18.974 0 0 0 4.316 3.145.996.996 0 0 0 1.078-.09l3.192-2.455 1.134 3.845c.11.377.43.654.819.708 1.01.143 1.86.209 2.673.209.814 0 1.663-.066 2.673-.21a.997.997 0 0 0 .819-.707l1.134-3.845 3.192 2.456a.996.996 0 0 0 1.079.089 18.968 18.968 0 0 0 4.315-3.145c.28-.273.377-.685.246-1.053l-1.347-3.786 4.012.11a.982.982 0 0 0 .926-.558 18.945 18.945 0 0 0 1.652-5.086 1 1 0 0 0-.42-.996l-3.311-2.27 3.31-2.267a.998.998 0 0 0 .42-.996ZM5 40h2v-2H5zm52-20h2v-2h-2z"/><path d="M32 24c1.103 0 2 .897 2 2h2c0-1.859-1.28-3.411-3-3.858V20h-2v2.142c-1.72.447-3 1.999-3 3.858 0 2.193 2.992 3.644 3.591 3.913C32.576 30.354 34 31.351 34 32c0 1.103-.897 2-2 2s-2-.897-2-2h-2c0 1.859 1.28 3.411 3 3.858V38h2v-2.142c1.72-.447 3-1.999 3-3.858 0-2.193-2.992-3.644-3.591-3.913C31.424 27.646 30 26.649 30 26c0-1.103.897-2 2-2m6 6h2v-2h-2zm-14 0h2v-2h-2z"/></g></svg>