<svg width="64" height="64" xmlns="http://www.w3.org/2000/svg"><g fill-rule="evenodd"><path d="M17.414 31 29 42.586 46.586 25 43 21.414 29.707 34.707a.999.999 0 0 1-1.414 0L21 27.414 17.414 31ZM29 45a.997.997 0 0 1-.707-.293l-13-13a.999.999 0 0 1 0-1.414l5-5a.999.999 0 0 1 1.414 0L29 32.586l13.293-13.293a.999.999 0 0 1 1.414 0l5 5a.999.999 0 0 1 0 1.414l-19 19A.997.997 0 0 1 29 45Zm2 13h2v-2h-2zm0-50h2V6h-2zM6 33h2v-2H6zm50 0h2v-2h-2z"/><path d="M32 2C15.458 2 2 15.458 2 32s13.458 30 30 30 30-13.458 30-30S48.542 2 32 2m0 62C14.355 64 0 49.645 0 32S14.355 0 32 0s32 14.355 32 32-14.355 32-32 32"/></g></svg>