<svg width="38" height="27" xmlns="http://www.w3.org/2000/svg"><path d="M9.175 27c-2.14 0-3.887-.473-5.237-1.419a8.368 8.368 0 0 1-2.982-3.72C.319 20.327 0 18.69 0 16.95c0-2.556.56-4.985 1.682-7.286 1.121-2.301 2.561-4.296 4.32-5.983C7.761 1.994 9.582.767 11.469 0l5.964 4.219a25.401 25.401 0 0 0-3.976 2.224 22.051 22.051 0 0 0-3.403 2.838C9.06 10.304 8.31 11.352 7.8 12.426l.382.307c.306-.205.675-.37 1.109-.499.433-.127 1.006-.191 1.72-.191 1.02 0 2.039.255 3.058.767 1.02.511 1.886 1.265 2.6 2.262.714.998 1.07 2.263 1.07 3.797 0 1.892-.407 3.426-1.223 4.603a7.565 7.565 0 0 1-3.211 2.646 10.074 10.074 0 0 1-4.13.882Zm20.262 0c-2.141 0-3.887-.473-5.238-1.419a8.368 8.368 0 0 1-2.982-3.72c-.637-1.534-.955-3.17-.955-4.91 0-2.556.56-4.985 1.682-7.286 1.121-2.301 2.561-4.296 4.32-5.983C28.022 1.994 29.844.767 31.73 0l5.964 4.219a25.401 25.401 0 0 0-3.976 2.224 22.051 22.051 0 0 0-3.402 2.838c-.994 1.023-1.746 2.071-2.256 3.145l.383.307c.305-.205.675-.37 1.108-.499.434-.127 1.007-.191 1.72-.191 1.02 0 2.04.255 3.059.767 1.02.511 1.886 1.265 2.6 2.262.713.998 1.07 2.263 1.07 3.797 0 1.892-.408 3.426-1.223 4.603a7.565 7.565 0 0 1-3.212 2.646 10.074 10.074 0 0 1-4.128.882Z" fill="#FF0100"/></svg>