<svg width="64" height="52" xmlns="http://www.w3.org/2000/svg"><g fill-rule="evenodd"><path d="M53 15c-3.028 0-4 1.094-4 4.5 0 2.666 1.402 5.5 4 5.5s4-2.834 4-5.5c0-3.406-.972-4.5-4-4.5m0 12c-3.42 0-6-3.225-6-7.5 0-3.026.682-6.5 6-6.5s6 3.474 6 6.5c0 4.275-2.58 7.5-6 7.5"/><path d="m45.515 28.857-1.03-1.715 5-3 1.03 1.715zM61 35h-6v-2h6c.297 0 1-.776 1-2v-1.42l-6.496-3.712.992-1.736L64 28.42V31c0 2.168-1.374 4-3 4M11 15c-3.028 0-4 1.094-4 4.5 0 2.666 1.402 5.5 4 5.5s4-2.834 4-5.5c0-3.406-.972-4.5-4-4.5m0 12c-3.42 0-6-3.225-6-7.5 0-3.026.682-6.5 6-6.5s6 3.474 6 6.5c0 4.275-2.58 7.5-6 7.5"/><path d="m18.485 28.857-5-3 1.03-1.715 5 3zM9 35H3c-1.626 0-3-1.832-3-4v-2.58l7.504-4.288.992 1.736L2 29.58V31c0 1.224.703 2 1 2h6v2Zm2 17H9v-9c0-8.01 4.446-9.7 9.152-11.488 1.743-.662 3.544-1.347 5.352-2.38l.992 1.736c-1.943 1.111-3.904 1.856-5.633 2.513C14.128 35.181 11 36.369 11 43v9Zm44 0h-2v-9c0-6.631-3.128-7.819-7.863-9.619-1.729-.657-3.69-1.402-5.633-2.513l.992-1.736c1.808 1.033 3.609 1.718 5.352 2.38C50.554 33.3 55 34.99 55 43v9Z"/><path d="m32 30.882 3.803 1.9 2.91-2.91-1.187-1.78-5.526.922-5.526-.921-1.187 1.78 2.91 2.91L32 30.882Zm4.197 4.335L32 33.117l-4.197 2.1-5.09-5.09 2.813-4.22L32 26.986l6.474-1.08 2.813 4.22-5.09 5.09Z"/><path d="M36 27h2v-4h-2zm-10 0h2v-4h-2zm5 15h2v-2h-2zm0-4h2v-2h-2z"/><path d="M32 25c-.132 0-3.261-.013-5.447-1.105l-.108-.063c-.137-.092-3.384-2.333-4.435-9.69L22 14v-4h2v3.929c.861 5.917 3.201 7.96 3.519 8.212 1.762.844 4.455.859 4.482.859.025 0 2.717-.015 4.478-.858.313-.25 2.661-2.305 3.521-8.213V10h2l-.01 4.142c-1.051 7.357-4.298 9.598-4.435 9.69l-.108.063C35.261 24.987 32.132 25 32 25m10-15h-2c0-5.532-2.467-8-8-8-5.533 0-8 2.468-8 8h-2c0-6.636 3.364-10 10-10s10 3.364 10 10"/><path d="m37.045 13.096-10-4-3.598 1.799-.895-1.79 4.402-2.2 10 4 3.598-1.8.895 1.79zM17 52h2v-8h-2zm28 0h2v-8h-2z"/></g></svg>