<svg width="64" height="64" xmlns="http://www.w3.org/2000/svg"><g fill="#FF0100" fill-rule="evenodd"><path d="M60 30H22v-2h36V10H22V8h38zM12 2C9.794 2 8 3.794 8 6s1.794 4 4 4c2.205 0 4-1.794 4-4s-1.795-4-4-4m0 10c-3.309 0-6-2.69-6-6 0-3.309 2.691-6 6-6 3.31 0 6 2.691 6 6 0 3.31-2.69 6-6 6"/><path d="M64 38H18V20h16v-4H8c-3.309 0-6 2.691-6 6v14h4v-8h2v10H0V22c0-4.41 3.59-8 8-8h28v8H20v14h42V6H20V4h44v34Z"/><path d="M22 34h38v-2H22zm39 30H3c-1.626 0-3-1.831-3-4v-2.58l7.504-4.288.992 1.736L2 58.58V60c0 1.224.703 2 1 2h58c.297 0 1-.776 1-2v-1.42l-6.496-3.712.992-1.736L64 57.42V60c0 2.169-1.374 4-3 4"/><path d="m43.031 59.133-8.479-4.239.895-1.789 7.522 3.76 6.535-3.734.992 1.736zm-22.062 0-7.465-4.266.992-1.736 6.535 3.734 7.522-3.76.895 1.79z"/><path d="M11 44c-3.028 0-4 1.093-4 4.5 0 2.667 1.401 5.5 4 5.5 2.598 0 4-2.833 4-5.5 0-3.407-.973-4.5-4-4.5m0 12c-3.42 0-6-3.224-6-7.5 0-3.026.682-6.5 6-6.5 5.317 0 6 3.474 6 6.5 0 4.276-2.58 7.5-6 7.5m21-12c-3.028 0-4 1.093-4 4.5 0 2.667 1.401 5.5 4 5.5 2.598 0 4-2.833 4-5.5 0-3.407-.973-4.5-4-4.5m0 12c-3.42 0-6-3.224-6-7.5 0-3.026.682-6.5 6-6.5 5.317 0 6 3.474 6 6.5 0 4.276-2.58 7.5-6 7.5m21-12c-3.028 0-4 1.093-4 4.5 0 2.667 1.401 5.5 4 5.5 2.598 0 4-2.833 4-5.5 0-3.407-.973-4.5-4-4.5m0 12c-3.42 0-6-3.224-6-7.5 0-3.026.682-6.5 6-6.5 5.317 0 6 3.474 6 6.5 0 4.276-2.58 7.5-6 7.5m-33 5h2v-3h-2zm22 0h2v-3h-2zM11 20h2v-2h-2zm0 4h2v-2h-2z"/></g></svg>