<svg width="25.000000" height="25.000000" viewBox="0 0 25 25" fill="none" xmlns="http://www.w3.org/2000/svg" xmlns:xlink="http://www.w3.org/1999/xlink">
	<desc>
			Created with Pixso.
	</desc>
	<defs>
		<clipPath id="clip94_157">
			<rect id="fi_892498" rx="0.000000" width="24.000000" height="24.000000" transform="translate(0.500000 0.500000)" fill="white" fill-opacity="0"/>
		</clipPath>
	</defs>
	<rect id="fi_892498" rx="0.000000" width="24.000000" height="24.000000" transform="translate(0.500000 0.500000)" fill="#FFFFFF" fill-opacity="0"/>
	<g clip-path="url(#clip94_157)">
		<path id="Vector" d="M24.06 6.14L12.49 17.71L0.92 6.14C0.7 5.93 0.36 5.93 0.15 6.15C-0.05 6.36 -0.05 6.69 0.15 6.9L12.1 18.86C12.32 19.07 12.66 19.07 12.87 18.86L24.83 6.9C25.04 6.7 25.05 6.35 24.84 6.14C24.63 5.92 24.29 5.91 24.07 6.12C24.07 6.13 24.06 6.13 24.06 6.14L24.06 6.14Z" fill="#FFC107" fill-opacity="1.000000" fill-rule="nonzero"/>
		<path id="Vector" d="M12.49 19.02C12.34 19.02 12.21 18.96 12.1 18.86L0.15 6.91C-0.06 6.69 -0.05 6.35 0.16 6.14C0.37 5.93 0.71 5.93 0.92 6.14L12.49 17.71L24.06 6.14C24.27 5.92 24.61 5.91 24.83 6.12C25.04 6.33 25.05 6.68 24.84 6.89C24.84 6.9 24.83 6.9 24.83 6.9L12.87 18.86C12.77 18.96 12.63 19.02 12.49 19.02Z" fill="#0F1923" fill-opacity="1.000000" fill-rule="nonzero"/>
	</g>
</svg>
