<svg width="28.526367" height="30.000000" viewBox="0 0 28.5264 30" fill="none" xmlns="http://www.w3.org/2000/svg" xmlns:xlink="http://www.w3.org/1999/xlink">
	<desc>
			Created with Pixso.
	</desc>
	<defs/>
	<path id="Path" d="M25.79 2.72L25.79 2.72C28.1 5.02 28.1 8.75 25.8 11.06C23.49 13.36 19.76 13.36 17.46 11.06C15.16 8.76 15.16 5.02 17.46 2.72C17.46 2.72 17.46 2.72 17.46 2.72L17.46 2.72C19.76 0.42 23.49 0.42 25.79 2.72Z" stroke="#0F1923" stroke-opacity="1.000000" stroke-width="2.000000" stroke-linejoin="round" stroke-linecap="round"/>
	<path id="Path" d="M23.63 5.64L21.13 8.14L19.62 6.64" stroke="#0F1923" stroke-opacity="1.000000" stroke-width="2.000000" stroke-linejoin="round" stroke-linecap="round"/>
	<path id="Path" d="M25.79 18.93L25.79 18.93C28.1 21.23 28.1 24.97 25.8 27.27C23.49 29.57 19.76 29.57 17.46 27.27C15.16 24.97 15.16 21.24 17.46 18.93C17.46 18.93 17.46 18.93 17.46 18.93L17.46 18.93C19.76 16.63 23.49 16.63 25.79 18.93Z" stroke="#0F1923" stroke-opacity="1.000000" stroke-width="2.000000" stroke-linejoin="round" stroke-linecap="round"/>
	<path id="Path" d="M12.78 11.1L2.68 11.1L2.68 11.1C1.75 11.1 1 10.35 1 9.42L1 4.36L1 4.36C1 3.43 1.75 2.68 2.68 2.68L12.78 2.68" stroke="#0F1923" stroke-opacity="1.000000" stroke-width="2.000000" stroke-linejoin="round" stroke-linecap="round"/>
	<path id="Path" d="M12.78 27.31L2.68 27.31L2.68 27.31C1.75 27.31 1 26.56 1 25.63L1 20.57L1 20.57C1 19.64 1.75 18.89 2.68 18.89L12.78 18.89" stroke="#0F1923" stroke-opacity="1.000000" stroke-width="2.000000" stroke-linejoin="round" stroke-linecap="round"/>
	<path id="Path" d="M22.88 21.85L20.38 24.35" stroke="#0F1923" stroke-opacity="1.000000" stroke-width="2.000000" stroke-linejoin="round" stroke-linecap="round"/>
</svg>
