<svg width="30.003906" height="30.004150" viewBox="0 0 30.0039 30.0042" fill="none" xmlns="http://www.w3.org/2000/svg" xmlns:xlink="http://www.w3.org/1999/xlink">
	<desc>
			Created with Pixso.
	</desc>
	<defs/>
	<path id="Path" d="M25.88 13.44L25.88 4.11C25.88 2.39 24.49 1 22.77 1L4.11 1C2.39 1 1 2.39 1 4.11L1 24.33" stroke="#0F1923" stroke-opacity="1.000000" stroke-width="2.000000" stroke-linejoin="round" stroke-linecap="round"/>
	<path id="Path" d="M7.22 1L7.22 21.22" stroke="#0F1923" stroke-opacity="1.000000" stroke-width="2.000000" stroke-linejoin="round" stroke-linecap="round"/>
	<path id="Path" d="M13.44 21.22L4.11 21.22C2.39 21.22 1 22.61 1 24.33C1 26.05 2.39 27.44 4.11 27.44L13.44 27.44" stroke="#0F1923" stroke-opacity="1.000000" stroke-width="2.000000" stroke-linejoin="round" stroke-linecap="round"/>
	<path id="Path" d="M25.42 26.62C23.86 27.71 21.68 27.71 20.12 26.62C17.67 24.9 17.45 21.49 19.47 19.47C21.3 17.65 24.25 17.65 26.07 19.47C28.09 21.49 27.87 24.9 25.42 26.62Z" stroke="#0F1923" stroke-opacity="1.000000" stroke-width="2.000000" stroke-linejoin="round"/>
	<path id="Path" d="M29 29L26.07 26.07" stroke="#0F1923" stroke-opacity="1.000000" stroke-width="2.000000" stroke-linejoin="round" stroke-linecap="round"/>
</svg>
