<svg width="35.000000" height="35.000000" viewBox="0 0 35 35" fill="none" xmlns="http://www.w3.org/2000/svg" xmlns:xlink="http://www.w3.org/1999/xlink">
	<desc>
			Created with Pixso.
	</desc>
	<defs>
		<clipPath id="clip168_178">
			<rect id="fi_709510" rx="0.000000" width="34.000000" height="34.000000" transform="translate(0.500000 0.500000)" fill="white" fill-opacity="0"/>
		</clipPath>
	</defs>
	<rect id="fi_709510" rx="0.000000" width="34.000000" height="34.000000" transform="translate(0.500000 0.500000)" fill="#FFFFFF" fill-opacity="0"/>
	<g clip-path="url(#clip168_178)">
		<path id="Vector" d="M33.99 4.78C33.48 4.26 32.64 4.26 32.13 4.78L16.3 20.56L10.59 14.36C10.1 13.82 9.27 13.79 8.73 14.28C8.19 14.78 8.16 15.61 8.65 16.15L15.29 23.36C15.54 23.62 15.88 23.77 16.24 23.78C16.25 23.78 16.25 23.78 16.26 23.78C16.61 23.78 16.95 23.64 17.2 23.4L33.99 6.65C34.51 6.13 34.51 5.3 33.99 4.78Z" fill="#FFC107" fill-opacity="1.000000" fill-rule="nonzero"/>
		<path id="Vector" d="M33.68 16.18C32.95 16.18 32.36 16.77 32.36 17.5C32.36 25.69 25.69 32.36 17.5 32.36C9.3 32.36 2.63 25.69 2.63 17.5C2.63 9.3 9.3 2.63 17.5 2.63C18.22 2.63 18.81 2.04 18.81 1.31C18.81 0.59 18.22 0 17.5 0C7.85 0 0 7.85 0 17.5C0 27.14 7.85 35 17.5 35C27.14 35 35 27.14 35 17.5C35 16.77 34.4 16.18 33.68 16.18Z" fill="#FFFFFF" fill-opacity="1.000000" fill-rule="nonzero"/>
	</g>
</svg>
