<svg width="23.000000" height="23.000000" viewBox="0 0 23 23" fill="none" xmlns="http://www.w3.org/2000/svg" xmlns:xlink="http://www.w3.org/1999/xlink">
	<desc>
			Created with Pixso.
	</desc>
	<defs>
		<clipPath id="clip94_197">
			<rect id="fi_709510" rx="0.000000" width="22.000000" height="22.000000" transform="translate(0.500000 0.500000)" fill="white" fill-opacity="0"/>
		</clipPath>
	</defs>
	<rect id="fi_709510" rx="0.000000" width="22.000000" height="22.000000" transform="translate(0.500000 0.500000)" fill="#FFFFFF" fill-opacity="0"/>
	<g clip-path="url(#clip94_197)">
		<path id="Vector" d="M22.34 3.14C22 2.8 21.45 2.8 21.11 3.14L10.71 13.51L6.96 9.43C6.64 9.08 6.09 9.06 5.74 9.38C5.38 9.71 5.36 10.26 5.68 10.61L10.05 15.35C10.21 15.52 10.43 15.62 10.67 15.63C10.67 15.63 10.68 15.63 10.69 15.63C10.91 15.63 11.14 15.54 11.3 15.37L22.34 4.37C22.67 4.03 22.68 3.48 22.34 3.14Z" fill="#5F6368" fill-opacity="1.000000" fill-rule="nonzero"/>
		<path id="Vector" d="M22.13 10.63C21.65 10.63 21.26 11.02 21.26 11.5C21.26 16.88 16.88 21.26 11.5 21.26C6.11 21.26 1.73 16.88 1.73 11.5C1.73 6.11 6.11 1.73 11.5 1.73C11.97 1.73 12.36 1.34 12.36 0.86C12.36 0.38 11.97 0 11.5 0C5.15 0 0 5.15 0 11.5C0 17.84 5.15 23 11.5 23C17.84 23 23 17.84 23 11.5C23 11.02 22.61 10.63 22.13 10.63Z" fill="#5F6368" fill-opacity="1.000000" fill-rule="nonzero"/>
	</g>
</svg>
