<svg width="65.000000" height="65.000000" viewBox="0 0 65 65" fill="none" xmlns="http://www.w3.org/2000/svg" xmlns:xlink="http://www.w3.org/1999/xlink">
	<desc>
			Created with Pixso.
	</desc>
	<defs>
		<clipPath id="clip103_1897">
			<rect id="fi_1692139" rx="0.000000" width="64.000000" height="64.000000" transform="translate(0.500000 0.500000)" fill="white" fill-opacity="0"/>
		</clipPath>
	</defs>
	<rect id="fi_1692139" rx="0.000000" width="64.000000" height="64.000000" transform="translate(0.500000 0.500000)" fill="#FFFFFF" fill-opacity="0"/>
	<g clip-path="url(#clip103_1897)">
		<path id="Vector" d="M57.82 39.11C57.29 38.57 56.93 37.9 56.78 37.16C55.71 31.8 54.95 29.55 52.68 22.84C51.67 19.87 48.7 10.91 48.69 10.89C47.71 8.36 45.12 6.91 42.67 7.51C40.12 8.13 38.48 10.55 38.84 13.14L39.79 21.08L34.55 15.88C34.05 15.38 33.25 15.38 32.75 15.88C32.26 16.38 32.26 17.18 32.76 17.67L40.58 25.46C40.97 25.84 41.55 25.94 42.04 25.7C42.52 25.46 42.8 24.94 42.74 24.41C42.74 24.41 41.35 12.8 41.35 12.79C41.17 11.5 41.99 10.29 43.27 9.97C44.46 9.68 45.79 10.48 46.32 11.78C48.02 17 49.27 20.69 50.27 23.66C52.5 30.24 53.25 32.46 54.29 37.66C54.54 38.89 55.14 40.01 56.03 40.9L61.8 46.66L47.44 61.02L41.78 55.37C40.81 54.4 39.53 53.77 38.07 53.56C36.72 53.36 35.39 53.07 34.08 52.7C34.3 52.61 34.52 52.51 34.75 52.41C35.95 51.9 36.82 50.81 37.07 49.52C37.55 47.05 35.67 44.79 33.19 44.79L30.19 44.79L38.79 36.22C40.28 34.74 40.28 32.33 38.79 30.84C38.44 30.49 38.04 30.22 37.6 30.04C38.44 28.58 38.23 26.7 36.99 25.46C35.75 24.22 33.86 24.01 32.41 24.84C32.23 24.41 31.96 24.01 31.61 23.66C30.12 22.17 27.71 22.17 26.22 23.66L25.17 24.71C24.99 24.33 24.74 23.97 24.43 23.66C23.24 22.47 21.48 22.25 20.09 22.92C19.97 22.8 21.57 24.39 6.74 9.67C5.75 8.68 5.75 7.07 6.74 6.08C7.73 5.09 9.33 5.09 10.33 6.08C25.92 21.55 24.32 19.96 24.43 20.08C24.93 20.57 25.74 20.57 26.23 20.07C26.72 19.57 26.72 18.77 26.22 18.27L15.71 7.88C14.72 6.89 14.72 5.28 15.71 4.29C16.69 3.31 18.3 3.29 19.3 4.29L25.56 10.52C26.06 11.01 26.86 11.01 27.35 10.51C27.85 10.01 27.85 9.21 27.35 8.72L21.09 2.49C19.11 0.52 15.89 0.52 13.91 2.49C13.27 3.14 12.83 3.92 12.6 4.77L12.12 4.29C10.14 2.3 6.93 2.3 4.94 4.29C2.96 6.27 2.96 9.49 4.94 11.47L5.43 11.95C4.59 12.18 3.8 12.61 3.15 13.26C1.17 15.24 1.17 18.46 3.15 20.45L3.63 20.92C2.78 21.15 1.99 21.6 1.35 22.24C-0.63 24.22 -0.63 27.44 1.36 29.42L7.91 35.87C6.73 38.14 6.11 40.68 6.11 43.25C6.11 43.59 5.98 43.91 5.74 44.15L0.26 49.62C-0.23 50.12 -0.23 50.92 0.26 51.42L11.03 62.19C11.53 62.68 12.33 62.68 12.83 62.19L18.3 56.71C18.54 56.47 18.86 56.34 19.2 56.34C24.14 56.34 27.57 55.33 30.51 54.19C32.83 55.07 35.25 55.71 37.7 56.07C38.61 56.2 39.4 56.58 39.99 57.16L46.55 63.71C46.8 63.96 47.12 64.08 47.45 64.08C47.77 64.08 48.1 63.96 48.34 63.71L64.5 47.56C64.73 47.32 64.87 47 64.87 46.66C64.87 46.32 64.73 46 64.5 45.76L57.82 39.11ZM4.94 15.06C5.92 14.08 7.52 14.07 8.51 15.04C9.91 16.42 16.74 23.18 18.14 24.56L14.55 28.15L4.94 18.65C3.95 17.66 3.95 16.05 4.94 15.06ZM3.15 24.03C4.4 22.78 5.47 23.25 6.95 24.2L12.76 29.95L10.81 31.89C10.26 32.44 9.75 33.04 9.29 33.66L3.15 27.62C2.16 26.63 2.16 25.02 3.15 24.03ZM16.51 54.92L11.93 59.49L2.95 50.52L7.53 45.94C8.25 45.22 8.65 44.27 8.65 43.25C8.65 40.8 9.31 38.39 10.58 36.29C11.14 35.34 11.83 34.47 12.61 33.69L20.84 25.46C21.34 24.96 22.14 24.96 22.64 25.46C23.12 25.94 23.13 26.74 22.65 27.24C22.64 27.25 22.63 27.25 22.63 27.26L17.25 32.63C16.75 33.13 16.75 33.93 17.25 34.43C17.75 34.92 18.55 34.92 19.05 34.43C19.85 33.63 25.91 27.56 28.02 25.46C28.51 24.96 29.32 24.96 29.81 25.46C30.31 25.95 30.31 26.76 29.81 27.25L20.84 36.22C20.34 36.72 20.34 37.52 20.84 38.02C21.34 38.51 22.14 38.51 22.64 38.02C23.94 36.71 32.63 28.03 33.4 27.25C33.9 26.76 34.7 26.76 35.2 27.25C35.69 27.75 35.69 28.55 35.2 29.05C33.99 30.25 25.57 38.67 24.43 39.81C23.93 40.31 23.93 41.11 24.43 41.61C24.93 42.1 25.73 42.1 26.22 41.61L35.2 32.64C35.2 32.64 35.2 32.64 35.2 32.63C35.69 32.14 36.5 32.14 36.99 32.63C37.49 33.13 37.49 33.94 37 34.43L26.23 45.16C25.86 45.52 25.75 46.07 25.95 46.55C26.14 47.02 26.61 47.33 27.12 47.33L33.19 47.33C34.05 47.33 34.76 48.1 34.58 49.04C34.4 49.94 33.73 50.09 32.85 50.47C31.88 50.88 30.97 51.28 30.03 51.65C27.22 52.77 23.97 53.8 19.2 53.8C18.18 53.8 17.23 54.2 16.51 54.92Z" fill="#FFC107" fill-opacity="1.000000" fill-rule="nonzero"/>
		<path id="Vector" d="M29.16 12.29C28.67 12.79 28.67 13.59 29.16 14.09C29.66 14.58 30.46 14.58 30.96 14.09C31.45 13.59 31.45 12.79 30.96 12.29C30.46 11.8 29.66 11.8 29.16 12.29Z" fill="#FFC107" fill-opacity="1.000000" fill-rule="nonzero"/>
	</g>
</svg>
