<svg width="65.000000" height="65.000000" viewBox="0 0 65 65" fill="none" xmlns="http://www.w3.org/2000/svg" xmlns:xlink="http://www.w3.org/1999/xlink">
	<desc>
			Created with Pixso.
	</desc>
	<defs>
		<clipPath id="clip94_285">
			<rect id="fi_4085529" rx="0.000000" width="64.000000" height="64.000000" transform="translate(0.500000 0.500000)" fill="white" fill-opacity="0"/>
		</clipPath>
	</defs>
	<rect id="fi_4085529" rx="0.000000" width="64.000000" height="64.000000" transform="translate(0.500000 0.500000)" fill="#FFFFFF" fill-opacity="0"/>
	<g clip-path="url(#clip94_285)">
		<path id="Vector" d="M33.76 63.71C33.76 64.41 33.2 64.98 32.5 64.98C31.79 64.98 31.23 64.41 31.23 63.71C31.23 63.01 31.79 62.44 32.5 62.44C33.2 62.44 33.76 63.01 33.76 63.71Z" fill="#FFC107" fill-opacity="1.000000" fill-rule="evenodd"/>
		<path id="Vector" d="M63.45 57.18L59.77 57.18L59.77 53.16C59.77 52.45 59.2 51.88 58.5 51.88L54.13 51.88L54.13 29.52L55.54 29.52C56.24 29.52 56.8 28.94 56.8 28.23L56.8 24.26L62.09 24.26C62.64 24.26 63.12 23.9 63.29 23.37C63.46 22.84 63.28 22.26 62.83 21.93L33.24 0.24C32.79 -0.09 32.2 -0.09 31.75 0.24L2.16 21.93C1.71 22.26 1.53 22.84 1.7 23.37C1.87 23.9 2.35 24.26 2.9 24.26L8.19 24.26L8.19 28.23C8.19 28.94 8.75 29.52 9.45 29.52L10.86 29.52L10.86 51.88L6.49 51.88C5.79 51.88 5.22 52.45 5.22 53.16L5.22 57.18L1.54 57.18C0.84 57.18 0.27 57.75 0.27 58.46L0.27 63.71C0.27 64.42 0.84 65 1.54 65L26.88 65C27.58 65 28.15 64.42 28.15 63.71C28.15 63 27.58 62.42 26.88 62.42L2.81 62.42L2.81 59.75L6.49 59.75L58.5 59.75L62.18 59.75L62.18 62.42L38.11 62.42C37.41 62.42 36.84 63 36.84 63.71C36.84 64.42 37.41 65 38.11 65L63.45 65C64.15 65 64.72 64.42 64.72 63.71L64.72 58.46C64.72 57.75 64.15 57.18 63.45 57.18ZM51.59 51.88L48.92 51.88L48.92 29.52L51.59 29.52L51.59 51.88ZM36.36 51.88L36.36 29.52L37.77 29.52C38.47 29.52 39.04 28.94 39.04 28.23L39.04 24.26L43.71 24.26L43.71 28.23C43.71 28.94 44.28 29.52 44.98 29.52L46.39 29.52L46.39 51.88L36.36 51.88ZM18.6 51.88L18.6 29.52L20.01 29.52C20.71 29.52 21.28 28.94 21.28 28.23L21.28 24.26L25.95 24.26L25.95 28.23C25.95 28.94 26.52 29.52 27.22 29.52L28.63 29.52L28.63 51.88L18.6 51.88ZM28.48 26.95L28.48 24.26L36.5 24.26L36.5 26.95L28.48 26.95ZM31.16 29.52L33.83 29.52L33.83 51.88L31.16 51.88L31.16 29.52ZM54.27 26.95L46.25 26.95L46.25 24.26L54.27 24.26L54.27 26.95ZM32.5 2.87L58.17 21.69L6.82 21.69L32.5 2.87ZM10.72 24.26L18.74 24.26L18.74 26.95L10.72 26.95L10.72 24.26ZM13.4 29.52L16.07 29.52L16.07 51.88L13.4 51.88L13.4 29.52ZM7.76 57.18L7.76 54.45L57.23 54.45L57.23 57.18L7.76 57.18Z" fill="#FFC107" fill-opacity="1.000000" fill-rule="nonzero"/>
		<path id="Vector" d="M32.5 19.1C35.59 19.1 38.1 16.55 38.1 13.41C38.1 10.28 35.59 7.73 32.5 7.73C29.4 7.73 26.89 10.28 26.89 13.41C26.89 16.55 29.4 19.1 32.5 19.1ZM32.5 10.3C34.19 10.3 35.56 11.7 35.56 13.41C35.56 15.13 34.19 16.53 32.5 16.53C30.8 16.53 29.43 15.13 29.43 13.41C29.43 11.7 30.8 10.3 32.5 10.3Z" fill="#FFC107" fill-opacity="1.000000" fill-rule="nonzero"/>
	</g>
</svg>
