<svg width="65.000000" height="65.000000" viewBox="0 0 65 65" fill="none" xmlns="http://www.w3.org/2000/svg" xmlns:xlink="http://www.w3.org/1999/xlink">
	<desc>
			Created with Pixso.
	</desc>
	<defs>
		<clipPath id="clip103_1881">
			<rect id="fi_9507452" rx="0.000000" width="64.000000" height="64.000000" transform="translate(0.500000 0.500000)" fill="white" fill-opacity="0"/>
		</clipPath>
	</defs>
	<rect id="fi_9507452" rx="0.000000" width="64.000000" height="64.000000" transform="translate(0.500000 0.500000)" fill="#FFFFFF" fill-opacity="0"/>
	<g clip-path="url(#clip103_1881)">
		<path id="Vector" d="M24.85 18.93C27.03 20.93 29.18 22.33 29.27 22.39C29.48 22.52 29.72 22.59 29.96 22.59C30.2 22.59 30.45 22.52 30.66 22.38C31.59 21.76 39.73 16.19 39.73 11.23C39.77 7.35 36.05 4.37 32.25 5.22C31.65 5.35 31.22 5.9 31.26 6.52L31.46 10.21L29.83 12.29C29.7 12.47 29.61 12.67 29.58 12.89L29.51 13.35L29.25 13L30 10.47C30.08 10.21 30.07 9.93 29.97 9.67C29.97 9.67 29.28 7.8 28.61 6.02C28.46 5.62 28.12 5.32 27.71 5.23C23.83 4.34 20.18 7.33 20.18 11.23C20.18 13.51 21.75 16.1 24.85 18.93ZM26.34 7.61C26.39 7.61 26.45 7.61 26.5 7.62C26.89 8.65 27.25 9.63 27.44 10.15L26.64 12.88C26.53 13.26 26.6 13.67 26.83 13.99L29.31 17.38C29.91 18.25 31.44 17.93 31.59 16.8L32.05 13.58L33.75 11.4C33.94 11.16 34.03 10.85 34.02 10.55L33.86 7.62C35.72 7.77 37.19 9.33 37.19 11.23C37.19 13.75 33.01 17.6 29.95 19.78C27.51 18.07 22.72 14.11 22.72 11.23C22.72 9.24 24.34 7.61 26.34 7.61Z" fill="#FFC107" fill-opacity="1.000000" fill-rule="nonzero"/>
		<path id="Vector" d="M20.94 27.67L44.05 27.67C44.75 27.67 45.32 27.1 45.32 26.4C45.32 25.7 44.75 25.13 44.05 25.13L20.94 25.13C20.24 25.13 19.67 25.7 19.67 26.4C19.67 27.1 20.24 27.67 20.94 27.67Z" fill="#FFC107" fill-opacity="1.000000" fill-rule="nonzero"/>
		<path id="Vector" d="M15.86 32.75L44.05 32.75C44.75 32.75 45.32 32.18 45.32 31.48C45.32 30.78 44.75 30.21 44.05 30.21L15.86 30.21C15.16 30.21 14.59 30.78 14.59 31.48C14.59 32.18 15.16 32.75 15.86 32.75Z" fill="#FFC107" fill-opacity="1.000000" fill-rule="nonzero"/>
		<path id="Vector" d="M15.86 37.83L44.05 37.83C44.75 37.83 45.32 37.26 45.32 36.56C45.32 35.86 44.75 35.29 44.05 35.29L15.86 35.29C15.16 35.29 14.59 35.86 14.59 36.56C14.59 37.26 15.16 37.83 15.86 37.83Z" fill="#FFC107" fill-opacity="1.000000" fill-rule="nonzero"/>
		<path id="Vector" d="M15.56 54.58C16.37 54.78 17.39 54.39 17.78 53.22C17.99 52.62 18.25 52.11 18.53 51.69C18.67 52.32 18.78 52.87 18.95 53.53C19.17 54.3 19.85 54.59 20.42 54.48C20.9 54.39 21.56 53.92 21.44 53C21.44 52.59 21.71 51.06 22.07 49.27C22.36 49.37 22.68 49.36 22.98 49.23C23.62 48.95 23.91 48.2 23.63 47.55L22.65 45.35C22.18 44.26 20.52 44.42 20.25 45.59C20.07 46.42 19.9 47.18 19.76 47.88C19.45 47.74 18.95 47.73 18.55 47.98C18.47 48.03 17.04 49.01 15.97 51.03C15.83 50.22 15.79 48.97 16.1 47.18C16.16 46.84 16.24 46.69 16.27 46.64C16.44 46.64 16.85 46.8 17.11 46.98C17.68 47.39 18.47 47.26 18.88 46.7C19.29 46.13 19.17 45.34 18.6 44.92C18.31 44.71 16.78 43.69 15.3 44.29C14.67 44.55 13.87 45.18 13.6 46.75C12.77 51.6 13.98 54.17 15.56 54.58Z" fill="#FFC107" fill-opacity="1.000000" fill-rule="nonzero"/>
		<path id="Vector" d="M40.87 44.28L35.54 47.37C35 47.68 34.77 48.34 34.99 48.92C35 48.93 35.54 50.4 34.44 51.17C33.86 51.57 33.72 52.36 34.12 52.94C34.51 53.47 35.24 53.68 35.88 53.26C37.52 52.12 37.78 50.38 37.62 49.09L42.14 46.47C42.75 46.12 42.96 45.35 42.61 44.74C42.26 44.13 41.48 43.93 40.87 44.28Z" fill="#FFC107" fill-opacity="1.000000" fill-rule="nonzero"/>
		<path id="Vector" d="" fill="#FFC107" fill-opacity="1.000000" fill-rule="nonzero"/>
		<path id="Vector" d="M32.79 46.86C33.26 47.31 34.13 47.29 34.6 46.76C35.06 46.24 35 45.42 34.48 44.96C33.67 44.26 31.81 43.31 30.01 44.25C28.78 44.88 28.55 46.56 29.25 49.99C28.22 50.79 28.14 51.82 28.14 51.89C28.1 52.59 28.63 53.19 29.33 53.23C29.36 53.23 29.38 53.23 29.41 53.23C29.62 53.23 29.83 53.17 30.01 53.08C30.3 54.11 30.53 54.84 30.55 54.89C30.78 55.51 31.41 55.93 32.14 55.71C32.81 55.49 33.18 54.78 32.96 54.11C32.69 53.28 32.45 52.43 32.24 51.62C32.92 51.55 33.43 50.96 33.38 50.27C33.3 49.43 32.54 48.94 31.67 49.12C31.43 47.88 31.33 46.9 31.41 46.42C32.02 46.29 32.66 46.76 32.79 46.86Z" fill="#FFC107" fill-opacity="1.000000" fill-rule="nonzero"/>
		<path id="Vector" d="M54.2 3.8L50.4 3.8L50.4 1.26C50.4 0.56 49.83 0 49.13 0L10.79 0C10.08 0 9.52 0.56 9.52 1.26L9.52 58.65C9.52 59.35 10.08 59.92 10.79 59.92L14.59 59.92L14.59 63.73C14.59 64.43 15.16 65 15.86 65L54.2 65C54.91 65 55.47 64.43 55.47 63.73L55.47 38.21C55.47 37.48 54.86 36.89 54.12 36.94C53.44 36.99 52.93 37.58 52.93 38.25L52.93 62.46L17.13 62.46L17.13 59.92L40.87 59.92C41.21 59.92 41.53 59.78 41.77 59.55L50.02 51.29C50.26 51.06 50.4 50.73 50.4 50.4L50.4 6.34L52.93 6.34L52.93 26.78C52.93 27.48 53.5 28.05 54.2 28.05C54.91 28.05 55.47 27.48 55.47 26.78L55.47 5.07C55.47 4.37 54.91 3.8 54.2 3.8ZM42.27 55.46L42.36 53.01L45.29 52.44L42.27 55.46ZM47.86 49.35L40.88 50.72C40.31 50.83 39.88 51.32 39.86 51.91L39.65 57.38L12.06 57.38L12.06 2.53L47.86 2.53L47.86 49.35Z" fill="#FFC107" fill-opacity="1.000000" fill-rule="nonzero"/>
		<path id="Vector" d="M36.91 45.11C37.14 45.05 38.82 44.54 40.49 42.76C40.97 42.24 40.94 41.44 40.43 40.96C39.92 40.48 39.11 40.51 38.63 41.02C37.44 42.3 36.26 42.66 36.25 42.66C35.59 42.85 35.2 43.53 35.37 44.2C35.55 44.87 36.24 45.28 36.91 45.11Z" fill="#FFC107" fill-opacity="1.000000" fill-rule="nonzero"/>
		<path id="Vector" d="M55.47 32.5C55.47 33.2 54.91 33.77 54.2 33.77C53.5 33.77 52.93 33.2 52.93 32.5C52.93 31.79 53.5 31.23 54.2 31.23C54.91 31.23 55.47 31.79 55.47 32.5Z" fill="#FFC107" fill-opacity="1.000000" fill-rule="evenodd"/>
	</g>
</svg>
