<svg width="28.000000" height="28.000000" viewBox="0 0 28 28" fill="none" xmlns="http://www.w3.org/2000/svg" xmlns:xlink="http://www.w3.org/1999/xlink">
	<desc>
			Created with Pixso.
	</desc>
	<defs>
		<clipPath id="clip168_255">
			<rect id="fi_9086405" rx="0.000000" width="27.000000" height="27.000000" transform="translate(0.500000 0.500000)" fill="white" fill-opacity="0"/>
		</clipPath>
	</defs>
	<rect id="fi_9086405" rx="0.000000" width="27.000000" height="27.000000" transform="translate(0.500000 0.500000)" fill="#FFFFFF" fill-opacity="0"/>
	<g clip-path="url(#clip168_255)">
		<path id="Vector" d="M21.4 19.42C17.55 19.57 13.96 17.59 12.03 14.26C10.1 10.92 10.18 6.82 12.24 3.55C12.4 3.3 12.41 2.97 12.26 2.71C12.1 2.44 11.82 2.29 11.51 2.3C9.58 2.37 7.68 2.93 5.99 3.9C3.22 5.5 1.24 8.08 0.41 11.18C-0.42 14.27 0.01 17.5 1.61 20.27C3.21 23.05 5.79 25.03 8.89 25.86C11.96 26.68 15.2 26.27 17.98 24.66C19.66 23.69 21.1 22.31 22.13 20.68C22.29 20.42 22.3 20.1 22.14 19.83C21.99 19.57 21.71 19.41 21.4 19.42ZM17.16 23.24C14.77 24.62 11.98 24.99 9.31 24.27C6.64 23.56 4.41 21.85 3.03 19.45C1.64 17.06 1.28 14.27 1.99 11.6C2.71 8.93 4.42 6.7 6.81 5.32C7.83 4.73 8.94 4.32 10.08 4.11C8.48 7.61 8.65 11.68 10.61 15.08C12.57 18.47 16.01 20.65 19.84 21.02C19.09 21.9 18.18 22.66 17.16 23.24Z" fill="#000000" fill-opacity="1.000000" fill-rule="nonzero"/>
		<path id="Vector" d="M20.75 1.72C16.75 1.72 13.5 4.97 13.5 8.96C13.5 12.96 16.75 16.21 20.75 16.21C24.74 16.21 28 12.96 28 8.96C28 4.97 24.74 1.72 20.75 1.72ZM15.2 9.78C15.62 9.74 15.94 9.39 15.94 8.96C15.94 8.54 15.62 8.19 15.2 8.15C15.34 7.2 15.72 6.33 16.27 5.6C16.42 5.72 16.6 5.78 16.78 5.78C16.99 5.78 17.2 5.7 17.36 5.54C17.66 5.25 17.68 4.78 17.42 4.46C18.15 3.91 19.02 3.55 19.96 3.41C20.02 3.82 20.36 4.13 20.78 4.13C21.19 4.13 21.53 3.82 21.59 3.42C22.53 3.56 23.39 3.94 24.11 4.48C23.88 4.8 23.91 5.25 24.2 5.54C24.36 5.7 24.57 5.78 24.78 5.78C24.94 5.78 25.11 5.73 25.25 5.63C25.79 6.36 26.16 7.22 26.3 8.15C25.91 8.22 25.61 8.56 25.61 8.96C25.61 9.37 25.91 9.71 26.3 9.77C26.16 10.71 25.79 11.57 25.25 12.3C24.93 12.07 24.48 12.09 24.2 12.38C23.91 12.67 23.88 13.12 24.11 13.44C23.39 13.99 22.53 14.36 21.59 14.5C21.53 14.11 21.19 13.8 20.78 13.8C20.36 13.8 20.02 14.11 19.96 14.51C19.02 14.38 18.15 14.01 17.42 13.47C17.68 13.15 17.66 12.68 17.36 12.38C17.06 12.08 16.59 12.06 16.27 12.32C15.72 11.59 15.34 10.72 15.2 9.78Z" fill="#000000" fill-opacity="1.000000" fill-rule="nonzero"/>
		<path id="Vector" d="M19.46 11.18C19.69 11.18 19.91 11.09 20.07 10.91L21.35 9.52C21.49 9.37 21.57 9.17 21.57 8.96L21.57 6.34C21.57 5.89 21.2 5.52 20.75 5.52C20.3 5.52 19.93 5.89 19.93 6.34L19.93 8.64L18.86 9.8C18.55 10.13 18.58 10.65 18.91 10.96C19.07 11.11 19.27 11.18 19.46 11.18Z" fill="#000000" fill-opacity="1.000000" fill-rule="nonzero"/>
	</g>
</svg>
