<svg width="30.000000" height="30.000000" viewBox="0 0 30 30" fill="none" xmlns="http://www.w3.org/2000/svg" xmlns:xlink="http://www.w3.org/1999/xlink">
	<desc>
			Created with Pixso.
	</desc>
	<defs/>
	<path id="Path" d="M17.8 19.27L14.29 22.77L12.19 20.67" stroke="#0F1923" stroke-opacity="1.000000" stroke-width="2.000000" stroke-linejoin="round" stroke-linecap="round"/>
	<path id="Path" d="M10.33 10.89L8.77 10.89C7.48 10.89 6.44 11.94 6.44 13.23L6.44 25.88" stroke="#0F1923" stroke-opacity="1.000000" stroke-width="2.000000" stroke-linejoin="round" stroke-linecap="round"/>
	<path id="Path" d="M19.66 10.89L21.22 10.89C22.51 10.89 23.55 11.94 23.55 13.23L23.55 25.88" stroke="#0F1923" stroke-opacity="1.000000" stroke-width="2.000000" stroke-linejoin="round" stroke-linecap="round"/>
	<path id="Path" d="M12.03 13.01C11.09 13.01 10.33 12.25 10.33 11.31L10.33 10.48C10.33 9.54 11.09 8.77 12.03 8.77L17.96 8.77C18.9 8.77 19.66 9.54 19.66 10.48L19.66 11.31C19.66 12.25 18.9 13.01 17.96 13.01L12.03 13.01Z" stroke="#0F1923" stroke-opacity="1.000000" stroke-width="2.000000" stroke-linejoin="round"/>
	<path id="Path" d="M24.89 24.89C19.43 30.36 10.56 30.36 5.1 24.89C-0.37 19.43 -0.37 10.56 5.1 5.1C10.56 -0.37 19.43 -0.37 24.89 5.1C30.36 10.56 30.36 19.43 24.89 24.89Z" stroke="#0F1923" stroke-opacity="1.000000" stroke-width="2.000000" stroke-linejoin="round"/>
</svg>
