<svg width="310.543701" height="45.000000" viewBox="0 0 310.544 45" fill="none" xmlns="http://www.w3.org/2000/svg" xmlns:xlink="http://www.w3.org/1999/xlink">
	<desc>
			Created with Pixso.
	</desc>
	<defs/>
	<path id="Logo" d="M119.283 13.7017L121.063 14.2261L126.127 15.2529L121.085 15.9829L119.01 16.644L116.706 16.2793L114.333 17.1689L111.892 17.1006L110.546 17.6934L107.581 18.2866L109.064 21.6855L110.022 23.5332L109.292 25.9741L112.326 34.1411L114.47 36.2168L115.063 37.7681L113.58 38.498L114.174 40.209L112.85 41.9199L108.767 42.9463L109.155 44.064L105.665 44.5889L102.334 44.2925L101.673 40.7334L99.437 37.2661C99.437 37.2661 90.1069 31.8828 89.3542 30.4453C88.6013 29.0083 88.533 23.2598 88.533 23.2598L90.3123 19.9292L87.2554 23.1914L87.0957 29.5786L78.7239 42.3989C78.7239 42.3989 54.7942 45.0449 54.7712 44.9995C54.7646 44.9346 54.7612 44.8672 54.7612 44.7974C54.7612 40.9888 64.5823 29.4072 67.3081 26.1934L67.3088 26.1924L67.3091 26.1919L67.3093 26.1919L67.3096 26.1914L67.3103 26.1909L67.3108 26.1899L67.3115 26.189C67.7485 25.6738 68.0022 25.3745 68.0022 25.3589L68.0022 25.3584C67.3406 25.4951 53.9045 36.5132 52.0339 44.1099C52.0339 44.1099 47.3804 43.5625 47.2891 42.4902C56.1958 25.4048 79.1287 13.7046 81.894 12.2939L81.8943 12.2935L81.8945 12.2935C82.074 12.2021 82.1685 12.1538 82.1685 12.1504C80.8682 12.4238 55.3416 20.3628 43.1372 41.0757C43.1372 41.0757 34.8794 36.6045 22.8118 39.1367C22.8113 39.1357 22.811 39.1348 22.811 39.1338C22.811 39.0176 26.439 37.5171 26.439 37.5171L28.8115 36.9014C29.0444 36.8413 29.3723 36.7231 29.7395 36.5908C30.6162 36.2754 31.7156 35.8794 32.2742 36.0049Q32.2878 36.0083 32.3015 36.0117C32.2925 36.0093 32.2834 36.0068 32.2742 36.0049C30.7793 35.6372 29.4182 34.8687 27.9446 34.4829C27.5339 34.3921 27.1462 34.3008 26.7356 34.2549C25.0845 34.0391 23.3711 34.105 21.6724 34.1699C20.8599 34.2012 20.0505 34.2324 19.2532 34.2324C21.7625 34.2324 24.249 32.9546 26.7583 32.8179C27.1689 32.7949 27.5566 32.7949 27.9446 32.8179C29.8379 32.9092 31.6858 33.3652 33.5107 33.8218C33.1731 33.6812 32.8352 33.54 32.4963 33.3984C27.8225 31.4434 23.0305 29.439 17.8618 29.7153C17.4055 29.7383 16.9492 29.7837 16.4929 29.8979C15.8999 30.0806 15.3296 30.3315 14.8049 30.6733C13.1624 31.6543 11.6113 32.6582 9.67212 32.8179C8.34912 32.9092 7.02612 33.0005 5.70288 33.1143C8.6228 32.8408 12.501 31.6089 14.2346 29.0537C13.0625 28.8452 11.6643 29.0547 10.3423 29.2524C9.78613 29.3359 9.24365 29.4175 8.73706 29.4644L2.37231 31.4722C4.42554 30.4683 6.3418 29.2363 8.55444 28.5747C9.85474 28.21 11.1777 27.936 12.501 27.7764C13.5503 27.6167 15.0786 27.731 16.0369 27.2061C17.1545 26.5903 17.7019 25.4727 18.9338 24.9023C20.2568 24.3091 21.6484 23.9214 22.9717 23.3511C19.2761 22.9858 15.0786 22.8032 11.406 23.6704C10.2654 23.9438 9.17041 24.332 8.02979 24.5601C6.38721 24.9023 5.10986 24.6055 3.53589 24.1948L0 23.2827C0.866943 23.3511 1.73364 23.3281 2.57764 23.4424C3.42188 23.5562 4.26587 23.7617 5.13257 23.7842C6.49487 23.8013 7.81909 23.2085 9.08594 22.6406C9.51636 22.4482 9.94019 22.2583 10.3567 22.0962C12.0674 21.4121 13.8696 20.9331 15.7173 20.7046C18.2722 20.4312 20.7817 20.7275 23.291 21.1836L32.1191 22.8032C34.9021 23.3052 37.6396 24.0127 40.4912 24.2407C43.0688 24.4458 45.6694 24.4917 48.2244 24.0811C51.3496 23.5791 54.0642 22.1646 56.9612 21.0015C54.6802 21.4121 52.4216 21.9824 50.1406 22.3018C47.791 22.6211 45.3271 22.6211 42.9548 22.6436C42.5425 22.6479 42.1252 22.6567 41.7051 22.666C39.7534 22.7085 37.7373 22.752 35.8604 22.3018C33.6931 21.7769 31.7314 20.7046 29.6555 19.9521C27.4656 19.1079 25.207 18.4692 22.9031 18.0132C19.7322 17.4429 16.5615 17.4429 13.3677 17.2832C14.6223 17.1235 15.8999 16.9863 17.1545 16.8267L18.8425 16.6216C18.9949 16.6064 19.1851 16.5654 19.3872 16.5225C19.7783 16.439 20.2139 16.3462 20.5032 16.4097C20.5125 16.4116 20.5215 16.4141 20.5308 16.416C20.5217 16.4136 20.5125 16.4116 20.5032 16.4097C16.0046 15.3291 11.6846 15.479 7.12085 15.6372L7.02612 15.6406C6.79077 15.6475 6.53101 15.6392 6.2627 15.6304C5.67993 15.6113 5.05737 15.5913 4.55859 15.7266C6.28613 15.2495 8.03613 14.8174 9.76343 14.3174C11.5427 13.793 13.345 13.291 15.2156 13.3135C18.5688 13.3364 21.8994 14.4087 25.116 15.23C28.6062 16.0967 32.0278 17.1689 35.5637 17.7393C38.4153 18.2183 46.4221 18.3325 46.7415 18.3779C44.8254 18.0356 43.0005 17.3057 41.1069 16.918C39.1909 16.5532 37.2517 16.2793 35.3127 16.0967C33.5107 15.9141 31.6858 15.7319 29.9749 15.0933C28.2412 14.4316 26.804 13.1538 25.1843 12.2642C23.0857 11.1235 20.9185 10.5078 18.5918 10.0288C14.9419 9.27588 11.4744 7.97559 7.96143 6.7666C7.39111 6.56152 6.70679 6.19629 6.11353 6.12793L11.292 6.72119C13.0027 6.92627 14.668 7.1543 16.4019 7.17725C16.8076 7.18262 17.2146 7.18408 17.6223 7.18604C18.9802 7.19141 20.3486 7.19678 21.7168 7.33691C23.8613 7.61084 25.96 8.1582 27.9673 8.95654C29.9065 9.68652 31.6858 10.7134 33.6248 11.4204C35.9514 12.2642 38.4153 12.561 40.8789 12.7891C43.6848 13.063 46.5361 13.2451 49.365 12.9258C52.1023 12.6294 54.6116 11.5571 57.2351 10.7588C56.4373 10.834 55.6362 10.9194 54.833 11.0049C51.9844 11.3076 49.1096 11.6133 46.2625 11.4888L38.3923 11.1235C36.5217 11.0327 35.176 9.82373 33.6704 8.84277C32.1648 7.86182 30.6135 6.94922 28.9026 6.37891C26.0056 5.39795 22.7434 5.01025 19.6868 4.87354C17.9758 4.80469 16.2419 4.59961 14.5312 4.59961C16.2192 4.59961 17.8162 3.80127 19.4358 3.45898C21.1694 3.07129 22.926 2.91162 24.7053 2.95703C28.0129 3.04834 31.4348 3.73291 34.6057 4.64502C37.457 5.46631 40.3313 6.15088 43.2969 6.47021C44.0498 6.56152 44.8254 6.58398 45.5781 6.58398C46.2168 6.53857 46.8557 6.49316 47.4944 6.40186C52.3533 5.76318 57.1208 4.34863 61.843 3.02539C64.7629 2.18164 67.6829 1.08643 70.6484 0.447754C72.8384 -0.03125 75.074 -0.0766602 77.3096 0.0830078C81.0505 0.379395 84.7234 1.26904 88.1907 2.75195C89.9246 3.45898 91.6125 4.30322 93.2322 5.21533C94.0535 5.67188 94.8518 6.15088 95.6501 6.65283C96.0608 6.92627 96.4714 7.17725 96.8821 7.45117C96.9307 7.479 97.032 7.55713 97.1538 7.65137C97.4329 7.86768 97.8203 8.16699 97.9314 8.13525C99.802 7.47363 101.81 7.17725 103.794 7.31396C106.988 7.56494 111.208 10.3481 111.208 10.3481L105.208 12.7891L105.368 13.1768L110.09 13.4048L111.801 13.9297L114.31 13.4736L116.843 14.2944L119.283 13.7017ZM80.3435 5.83154C83.4688 6.21924 86.571 6.8125 89.6279 7.58789C87.3467 6.65283 85.0884 5.51221 82.8071 4.59961C80.5259 3.68701 78.2449 3.00293 75.7583 3.09375C73.4771 3.18506 71.2644 3.96094 69.1428 4.87354C67.0212 5.76318 64.9453 6.78955 62.7327 7.40527C65.4246 6.8125 68.0935 6.21924 70.7625 5.62598C73.646 4.9707 77.0105 5.40332 79.9546 5.78174C80.0852 5.79834 80.2148 5.81494 80.3435 5.83154ZM305.158 16.1069C307.006 16.4033 308.352 16.9282 309.219 17.6582C310.085 18.3882 310.519 19.4146 310.542 20.7148C310.543 20.7573 310.544 20.7993 310.544 20.8418C310.544 22.1865 309.843 23.4512 308.671 24.1367C307.417 24.958 305.637 25.3687 303.31 25.3687C301.645 25.3687 300.253 25.1631 299.136 24.7754C298.109 24.4561 297.219 23.8174 296.581 22.9731C295.965 22.0605 295.6 20.9888 295.531 19.8936L298.953 19.8936C299.09 20.8745 299.523 21.6045 300.208 22.0605C300.915 22.5171 301.942 22.7451 303.333 22.7451C304.565 22.7451 305.5 22.5854 306.139 22.2432C306.709 21.9692 307.074 21.3994 307.074 20.7603C307.075 20.7373 307.076 20.7148 307.076 20.6919C307.076 20.2173 306.85 19.79 306.458 19.5288C306.048 19.2319 305.386 19.0269 304.474 18.8896L301.919 18.5249C299.866 18.251 298.36 17.7495 297.402 16.9966C296.444 16.2666 295.965 15.2173 295.965 13.8711C295.964 13.8403 295.964 13.8091 295.964 13.7783C295.964 12.9458 296.259 12.1597 296.809 11.5215C297.379 10.8599 298.2 10.3584 299.273 9.99316C300.527 9.60547 301.828 9.42285 303.151 9.4458Q306.23 9.4458 307.941 10.4722C309.082 11.1567 309.834 12.2515 310.177 13.7114L306.892 14.0996C306.664 13.438 306.185 12.8901 305.569 12.5483C304.976 12.229 304.132 12.0693 303.082 12.0693C301.873 12.0693 300.961 12.229 300.322 12.5254C299.683 12.8218 299.364 13.2554 299.364 13.8257C299.36 13.8662 299.358 13.9067 299.358 13.9463C299.358 14.377 299.579 14.7612 299.934 15.0117C300.322 15.2627 301.029 15.4683 302.056 15.6279L305.158 16.1069ZM146.912 22.7451C148.144 22.7451 149.079 22.5854 149.718 22.2432C150.258 22.0059 150.634 21.4819 150.634 20.8853C150.634 20.8516 150.633 20.8174 150.63 20.7832C150.631 20.7603 150.632 20.7373 150.632 20.7148C150.632 20.2402 150.406 19.8125 150.014 19.5513C149.604 19.2549 148.942 19.0493 148.03 18.9126L145.475 18.5479C143.422 18.2739 141.916 17.772 140.958 17.0195C140 16.2666 139.521 15.2397 139.521 13.894C139.52 13.8628 139.52 13.832 139.52 13.8013C139.52 12.9688 139.815 12.1821 140.365 11.5444C140.935 10.8828 141.757 10.3809 142.829 10.0161C144.083 9.62842 145.384 9.4458 146.707 9.46875Q149.786 9.46875 151.497 10.4951C152.638 11.1797 153.391 12.2744 153.733 13.7344L150.448 14.1221C150.22 13.4604 149.741 12.9131 149.125 12.5708C148.532 12.2515 147.688 12.0918 146.638 12.0918C145.429 12.0918 144.517 12.2515 143.878 12.5483Q143.23 12.8491 143.02 13.3384Q142.92 13.5718 142.92 13.8486C142.919 13.8706 142.918 13.8921 142.918 13.9141C142.918 14.3667 143.143 14.7734 143.513 15.0347C143.901 15.2856 144.608 15.4907 145.635 15.6504L148.76 16.1294C150.608 16.4263 151.953 16.9507 152.82 17.6807C153.687 18.4106 154.121 19.4375 154.121 20.7378C154.122 20.7798 154.123 20.8223 154.123 20.8647C154.123 22.209 153.422 23.4736 152.25 24.1592C150.995 24.958 149.216 25.3687 146.889 25.3687C145.224 25.3687 143.833 25.1631 142.715 24.7754C141.688 24.4561 140.798 23.8174 140.16 22.9731C139.544 22.0605 139.179 20.9888 139.11 19.8936L142.532 19.8936C142.669 20.8745 143.103 21.6045 143.787 22.0605C144.494 22.5171 145.521 22.7451 146.912 22.7451ZM170.408 21.5356L162.767 21.5356L161.284 24.9575L157.793 24.9575L164.728 9.8335L168.561 9.8335L175.496 24.9575L171.914 24.9575L170.408 21.5356ZM183.616 22.1519L192.855 22.1519L192.445 24.9805L180.218 24.9805L180.218 9.8335L183.616 9.8335L183.616 22.1519ZM202.847 24.9805L199.448 24.9805L199.448 12.6621L193.517 12.6621L193.517 9.8335L208.778 9.8335L208.778 12.6621L202.847 12.6621L202.847 24.9805ZM240.509 9.85645L240.509 24.9805L237.361 24.9805L237.361 14.647L232.525 24.9805L229.902 24.9805L225.088 14.7383L225.088 24.9805L221.963 24.9805L221.963 9.8335L225.909 9.8335L231.293 21.3306L236.654 9.85645L240.509 9.85645ZM246.851 9.8335L250.25 9.8335L250.25 24.958L246.851 24.958L246.851 9.8335ZM259.671 9.8335L268.431 20.4185L268.431 9.8335L271.67 9.8335L271.67 24.9805L268.568 24.9805L259.808 14.396L259.808 24.9805L256.569 24.9805L256.569 9.8335L259.671 9.8335ZM290.239 18.5933L281.388 18.5933L281.388 22.1978L291.152 22.1978L290.718 24.9805L278.012 24.9805L278.012 9.8335L290.695 9.8335L290.695 12.6167L281.411 12.6167L281.411 15.8101L290.239 15.8101L290.239 18.5933ZM72.7014 11.1924C72.6841 11.1938 72.6665 11.1958 72.6492 11.1978C69.9746 11.4927 67.2776 11.7871 64.6033 12.082C64.033 12.1504 63.4626 12.2188 62.8923 12.333C61.1587 12.6978 59.6758 13.6104 58.0791 14.249C57.3035 14.5684 56.5049 14.9336 55.7295 15.2754C55.4556 15.4126 55.0679 15.6636 54.7712 15.709C58.4441 15.2754 62.0254 14.728 65.584 13.6333C67.0212 13.1768 68.4355 12.5835 69.8955 12.1504C70.7683 11.8818 71.7507 11.3062 72.6492 11.1978L72.7014 11.1924ZM169.245 18.8667L166.576 12.7988L163.907 18.8667L169.245 18.8667ZM4.55859 15.7266L4.53955 15.7319C4.5459 15.73 4.55225 15.728 4.55859 15.7266ZM103.132 22.9858L104.022 24.9932L106.919 25.3813L105.072 23.9668L101.878 19.3589L103.132 22.9858ZM90.8826 24.4688L91.4756 29.5786L95.3538 32.7036C95.3538 32.7036 93.2092 30.377 92.2285 27.4341C91.8542 26.3369 91.7368 25.0366 91.7368 23.8374C91.7368 21.8203 92.0688 20.0889 92.0688 20.0889L90.8826 24.4688ZM48.6584 31.4707C48.9458 31.3716 49.2341 31.272 49.5244 31.1753C49.7527 31.1299 49.958 31.0615 50.0947 30.9932C49.9124 31.0386 49.707 31.1069 49.5244 31.1753C48.8479 31.3145 47.9204 31.3213 47.1938 31.3262C46.9653 31.3281 46.7566 31.3296 46.5818 31.335C45.0762 31.4033 43.5706 31.335 42.0879 31.084C39.145 30.6279 36.2937 29.647 33.5562 28.5063C33.5098 28.4873 33.4631 28.4678 33.4167 28.4482C31.5447 27.6675 29.6267 26.8677 27.5566 27.0234C26.051 27.1147 24.5454 27.252 23.0171 27.3433C24.9104 27.5483 26.8496 27.708 28.7429 27.959C31.3435 28.3013 33.4421 29.9209 35.7917 30.9243C37.9817 31.8599 40.354 32.1792 42.7039 32.4985C44.811 32.7969 46.7102 32.1421 48.6584 31.4707ZM298.986 35.0981Q298.398 35.0981 297.901 34.9092Q297.48 34.749 297.15 34.479Q297.09 34.4297 297.033 34.377C296.79 34.1436 296.601 33.873 296.466 33.5649C296.331 33.2568 296.263 32.9185 296.263 32.5498C296.263 32.1812 296.331 31.8428 296.466 31.5352Q296.579 31.2778 296.742 31.0576L296.742 31.0571Q296.872 30.8818 297.033 30.73C297.28 30.4966 297.57 30.3169 297.901 30.1909Q298.398 30.002 298.986 30.002C299.383 30.002 299.744 30.0649 300.071 30.1909C300.402 30.3169 300.689 30.4966 300.932 30.73Q301.093 30.8823 301.223 31.0581Q301.386 31.2783 301.499 31.5352Q301.507 31.5532 301.515 31.5718Q301.709 32.019 301.709 32.5498C301.709 32.9185 301.639 33.2593 301.499 33.5718C301.364 33.8799 301.175 34.1484 300.932 34.377C300.689 34.6055 300.402 34.7832 300.071 34.9092C299.744 35.0352 299.383 35.0981 298.986 35.0981ZM243.906 35L243.906 30.1001L245.046 30.1001L246.771 32.9312L248.448 30.1001L249.59 30.1001L249.604 35L248.33 35L248.317 32.4004L247.055 34.5171L246.439 34.5171L245.187 32.4731L245.187 35L243.906 35ZM254.956 33.9292L257.518 33.9292L257.518 35L253.584 35L253.584 30.1001L257.427 30.1001L257.427 31.1709L254.956 31.1709L254.956 31.9971L257.133 31.9971L257.133 33.0332L254.956 33.0332L254.956 33.9292ZM261.287 35L261.287 30.1001L263.604 30.1001C264.146 30.1001 264.622 30.2002 265.032 30.4009Q265.465 30.6123 265.763 30.9443Q265.889 31.0854 265.991 31.248C266.225 31.6118 266.341 32.0459 266.341 32.5498C266.341 33.0493 266.225 33.4834 265.991 33.8521Q265.889 34.0142 265.763 34.1553L265.762 34.1558Q265.465 34.4878 265.032 34.6992C264.622 34.8999 264.146 35 263.604 35L261.287 35ZM270.071 35L270.071 30.1001L271.457 30.1001L271.457 35L270.071 35ZM274.854 35L277.018 30.1001L278.383 30.1001L280.553 35L279.111 35L278.729 34.0479L276.651 34.0479L276.269 35L274.854 35ZM284.742 35L284.742 31.1992L283.238 31.1992L283.238 30.1001L287.626 30.1001L287.626 31.1992L286.128 31.1992L286.128 35L284.742 35ZM291.143 35L291.143 30.1001L292.529 30.1001L292.529 35L291.143 35ZM305.435 35L305.435 30.1001L306.576 30.1001L308.739 32.7114L308.739 30.1001L310.097 30.1001L310.097 35L308.956 35L306.793 32.3887L306.793 35L305.435 35ZM298.986 33.9502C299.173 33.9502 299.345 33.9175 299.504 33.8521C299.667 33.7866 299.807 33.6934 299.924 33.5718C300.045 33.4458 300.139 33.2969 300.204 33.124C300.274 32.9512 300.309 32.7598 300.309 32.5498C300.309 32.3354 300.274 32.144 300.204 31.9761C300.139 31.8032 300.045 31.6562 299.924 31.5352C299.807 31.4092 299.667 31.3135 299.504 31.248Q299.266 31.1499 298.986 31.1499C298.799 31.1499 298.624 31.1826 298.461 31.248C298.302 31.3135 298.162 31.4092 298.041 31.5352C297.924 31.6562 297.831 31.8032 297.761 31.9761C297.696 32.144 297.663 32.3354 297.663 32.5498C297.663 32.7598 297.696 32.9512 297.761 33.124C297.831 33.2969 297.924 33.4458 298.041 33.5718C298.162 33.6934 298.302 33.7866 298.461 33.8521C298.624 33.9175 298.799 33.9502 298.986 33.9502ZM262.673 33.894L263.548 33.894C263.828 33.894 264.071 33.8428 264.276 33.7402Q264.449 33.6514 264.581 33.5205Q264.688 33.4136 264.766 33.2778C264.883 33.0728 264.941 32.8301 264.941 32.5498C264.941 32.2651 264.883 32.0225 264.766 31.8218Q264.683 31.6782 264.567 31.5679L264.566 31.5674Q264.44 31.4473 264.276 31.3672Q263.968 31.2061 263.548 31.2061L262.673 31.2061L262.673 33.894ZM278.318 33.0259L277.69 31.4595L277.061 33.0259L278.318 33.0259ZM138.693 32L232.762 32L232.762 33.3687L138.693 33.3687L138.693 32ZM113.489 37.2207L111.345 36.8555L111.254 38.5435L113.489 37.2207Z" clip-rule="evenodd" fill="#FFFFFF" fill-opacity="1.000000" fill-rule="evenodd"/>
</svg>
