<svg width="28.000000" height="28.000000" viewBox="0 0 28 28" fill="none" xmlns="http://www.w3.org/2000/svg" xmlns:xlink="http://www.w3.org/1999/xlink">
	<desc>
			Created with Pixso.
	</desc>
	<defs>
		<clipPath id="clip168_251">
			<rect id="fi_4776725" rx="0.000000" width="27.000000" height="27.000000" transform="translate(0.500000 0.500000)" fill="white" fill-opacity="0"/>
		</clipPath>
	</defs>
	<rect id="fi_4776725" rx="0.000000" width="27.000000" height="27.000000" transform="translate(0.500000 0.500000)" fill="#FFFFFF" fill-opacity="0"/>
	<g clip-path="url(#clip168_251)">
		<path id="Vector" d="M0.82 24.71L2.87 24.71C2.81 24.98 2.78 25.25 2.78 25.53L2.78 27.17C2.78 27.63 3.15 28 3.61 28L12.35 28C12.81 28 13.17 27.63 13.17 27.17L13.17 25.53C13.17 25.25 13.15 24.98 13.09 24.71L14.9 24.71C14.84 24.98 14.82 25.25 14.82 25.53L14.82 27.17C14.82 27.63 15.18 28 15.64 28L24.39 28C24.84 28 25.21 27.63 25.21 27.17L25.21 25.53C25.21 25.25 25.18 24.98 25.12 24.71L27.17 24.71C27.75 24.71 28.14 24.14 27.94 23.6L22.97 10.37C22.85 10.05 22.54 9.84 22.2 9.84L19.19 9.84L19.19 9.02C19.19 7.3 18.13 5.83 16.64 5.22C17.04 4.68 17.28 4 17.28 3.28C17.28 1.47 15.8 0 14 0C12.19 0 10.71 1.47 10.71 3.28C10.71 4 10.95 4.68 11.35 5.22C9.86 5.83 8.8 7.3 8.8 9.02L8.8 9.84L5.79 9.84C5.45 9.84 5.14 10.05 5.02 10.37L0.05 23.6C-0.15 24.14 0.24 24.71 0.82 24.71L0.82 24.71ZM14 1.64C14.9 1.64 15.64 2.37 15.64 3.28C15.64 4.18 14.9 4.92 14 4.92C13.09 4.92 12.35 4.18 12.35 3.28C12.35 2.37 13.09 1.64 14 1.64ZM10.44 9.02C10.44 7.66 11.54 6.56 12.9 6.56L15.09 6.56C16.45 6.56 17.55 7.66 17.55 9.02L17.55 9.84L10.44 9.84L10.44 9.02ZM11.53 26.35L4.43 26.35L4.43 25.53C4.43 24.18 5.53 23.07 6.89 23.07L9.07 23.07C10.43 23.07 11.53 24.18 11.53 25.53L11.53 26.35ZM6.34 19.79C6.34 18.89 7.08 18.15 7.98 18.15C8.88 18.15 9.62 18.89 9.62 19.79C9.62 20.7 8.88 21.43 7.98 21.43C7.08 21.43 6.34 20.7 6.34 19.79ZM23.57 26.35L16.46 26.35L16.46 25.53C16.46 24.18 17.56 23.07 18.92 23.07L21.1 23.07C22.46 23.07 23.57 24.18 23.57 25.53L23.57 26.35L23.57 26.35ZM18.37 19.79C18.37 18.89 19.11 18.15 20.01 18.15C20.92 18.15 21.65 18.89 21.65 19.79C21.65 20.7 20.92 21.43 20.01 21.43C19.11 21.43 18.37 20.7 18.37 19.79ZM24.38 23.07C23.94 22.48 23.34 22.02 22.65 21.74C23.05 21.19 23.29 20.52 23.29 19.79C23.29 17.98 21.82 16.51 20.01 16.51C18.2 16.51 16.73 17.98 16.73 19.79C16.73 20.52 16.97 21.19 17.37 21.74C16.68 22.02 16.08 22.48 15.64 23.07L12.35 23.07C11.91 22.48 11.31 22.02 10.62 21.74C11.02 21.19 11.26 20.52 11.26 19.79C11.26 17.98 9.79 16.51 7.98 16.51C6.17 16.51 4.7 17.98 4.7 19.79C4.7 20.52 4.94 21.19 5.34 21.74C4.65 22.02 4.05 22.48 3.61 23.07L2 23.07L6.36 11.48L21.63 11.48L25.99 23.07L24.38 23.07Z" fill="#000000" fill-opacity="1.000000" fill-rule="nonzero"/>
	</g>
</svg>
