<svg width="35.538574" height="34.999512" viewBox="0 0 35.5386 34.9995" fill="none" xmlns="http://www.w3.org/2000/svg" xmlns:xlink="http://www.w3.org/1999/xlink">
	<desc>
			Created with Pixso.
	</desc>
	<defs/>
	<path id="LinkedIn" d="M2.62256 0.00244141L32.9058 0.00244141L32.9058 0C33.5942 -0.00878906 34.2583 0.251953 34.7524 0.725098C35.2461 1.19824 35.5288 1.84473 35.5386 2.52295L35.5386 32.4741C35.5288 33.1528 35.2466 33.7998 34.7529 34.2729C34.2593 34.7466 33.5947 35.0078 32.9058 34.9995L2.62256 34.9995C1.93457 35.0063 1.27246 34.7446 0.780762 34.271C0.289062 33.7979 0.00830078 33.1514 0 32.4741L0 2.52539C0.00830078 1.84814 0.289062 1.20215 0.78125 0.729004C1.27295 0.256348 1.93506 -0.00537109 2.62256 0.00244141ZM6.20898 10.3306C6.71143 10.6611 7.30225 10.8374 7.90674 10.8374C8.30811 10.8374 8.70557 10.7598 9.07617 10.6084C9.44678 10.457 9.78369 10.2354 10.0674 9.95557C10.3511 9.67627 10.5762 9.34424 10.7295 8.979C10.8833 8.61426 10.9619 8.22266 10.9619 7.82764C10.9619 7.23242 10.7827 6.65039 10.4468 6.15576C10.1108 5.66064 9.6333 5.2749 9.0752 5.04736C8.5166 4.81982 7.90234 4.76025 7.30957 4.87646C6.7168 4.99268 6.17236 5.2793 5.74512 5.7002C5.31787 6.12109 5.02686 6.65771 4.90918 7.24121C4.7915 7.8252 4.85205 8.43018 5.0835 8.97998C5.31445 9.53027 5.70654 10 6.20898 10.3306ZM30.2808 29.8223L25.0146 29.8223L25.0146 21.7007C25.0146 19.7637 24.98 17.271 22.2764 17.271C19.5337 17.271 19.1138 19.3809 19.1138 21.5596L19.1138 29.8218L13.8481 29.8218L13.8481 13.1201L18.9033 13.1201L18.9033 15.4028L18.9741 15.4028C19.48 14.5508 20.2109 13.8501 21.0894 13.375C21.9678 12.8999 22.9604 12.6685 23.9614 12.7051C29.2988 12.7051 30.2827 16.1621 30.2827 20.6602L30.2808 29.8223ZM10.5396 29.8223L5.26855 29.8223L5.26855 13.1201L10.5396 13.1201L10.5396 29.8223Z" clip-rule="evenodd" fill="#0F1923" fill-opacity="1.000000" fill-rule="evenodd"/>
</svg>
