<svg width="30.187500" height="30.000122" viewBox="0 0 30.1875 30.0001" fill="none" xmlns="http://www.w3.org/2000/svg" xmlns:xlink="http://www.w3.org/1999/xlink">
	<desc>
			Created with Pixso.
	</desc>
	<defs/>
	<path id="Path" d="M7.42 14.94C6.91 13.78 6.63 12.52 6.63 11.2C6.63 5.54 11.7 1 17.91 1C24.11 1 29.18 5.54 29.18 11.2C29.18 14.54 27.4 17.49 24.67 19.35C24.68 20.41 24.67 21.85 24.67 23.36L20.25 21.18C19.49 21.32 18.71 21.4 17.91 21.4C16.91 21.4 15.94 21.28 15.02 21.06" stroke="#0F1923" stroke-opacity="1.000000" stroke-width="2.000000" stroke-linejoin="round" stroke-linecap="round"/>
	<path id="Path" d="M8.15 28.72C11.97 28.72 15.06 25.63 15.06 21.81C15.06 18 11.97 14.9 8.15 14.9C4.33 14.9 1.24 18 1.24 21.81" stroke="#0F1923" stroke-opacity="1.000000" stroke-width="2.000000" stroke-linejoin="round" stroke-linecap="round"/>
	<path id="Path" d="M8.16 28.73C7.12 28.73 6.13 28.5 5.25 28.09L1 29L1.88 24.73C1.47 23.85 1.24 22.86 1.24 21.81" stroke="#0F1923" stroke-opacity="1.000000" stroke-width="2.000000" stroke-linejoin="round" stroke-linecap="round"/>
</svg>
