<svg width="65.000000" height="65.000000" viewBox="0 0 65 65" fill="none" xmlns="http://www.w3.org/2000/svg" xmlns:xlink="http://www.w3.org/1999/xlink">
	<desc>
			Created with Pixso.
	</desc>
	<defs>
		<clipPath id="clip103_1901">
			<rect id="fi_5479773" rx="0.000000" width="64.000000" height="64.000000" transform="translate(0.500000 0.500000)" fill="white" fill-opacity="0"/>
		</clipPath>
	</defs>
	<rect id="fi_5479773" rx="0.000000" width="64.000000" height="64.000000" transform="translate(0.500000 0.500000)" fill="#FFFFFF" fill-opacity="0"/>
	<g clip-path="url(#clip103_1901)">
		<path id="Vector" d="M33.23 48.15C33.23 48.15 33.23 48.15 33.23 48.15L26.42 43.13C25.76 42.64 24.98 42.39 24.16 42.39C23.58 42.39 22.99 42.52 22.47 42.78C21.92 43.05 21.45 43.44 21.09 43.93C20.49 44.75 20.24 45.76 20.39 46.76C20.42 46.98 20.47 47.19 20.54 47.4C20.1 47.39 18.27 47.38 17.76 47.38L17.76 34.23C17.76 32.13 16.05 30.42 13.95 30.42C11.85 30.42 10.14 32.13 10.14 34.23L10.14 51.15C10.14 52.16 10.53 53.11 11.24 53.83C11.95 54.55 12.9 54.95 13.91 54.96C13.91 54.96 13.92 54.96 13.92 54.96L13.93 54.96C14.95 54.97 17.33 54.99 20.41 55.01C20.37 55.16 20.33 55.31 20.31 55.46C20.13 56.46 20.36 57.47 20.95 58.31C21.66 59.31 22.83 59.92 24.06 59.92C24.85 59.92 25.61 59.67 26.26 59.22L33.17 54.33C34.16 53.62 34.76 52.48 34.78 51.26C34.79 50.04 34.21 48.88 33.23 48.15ZM31.7 52.25L24.79 57.14C24.58 57.3 24.32 57.38 24.06 57.38C23.65 57.38 23.26 57.18 23.02 56.84C22.83 56.56 22.75 56.23 22.81 55.89C22.87 55.56 23.05 55.27 23.33 55.07L23.72 54.79C24.17 54.47 24.36 53.9 24.2 53.37C24.03 52.85 23.54 52.49 22.99 52.49C18.7 52.47 13.93 52.42 13.93 52.42C13.6 52.41 13.28 52.28 13.05 52.05C12.81 51.81 12.68 51.49 12.68 51.15L12.68 34.23C12.68 33.53 13.25 32.96 13.95 32.96C14.65 32.96 15.22 33.53 15.22 34.23L15.22 48.63C15.22 49.33 15.78 49.9 16.48 49.9C16.48 49.9 21.75 49.94 23.24 49.95L23.25 49.95C23.79 49.95 24.28 49.6 24.45 49.08C24.63 48.56 24.44 47.98 24 47.66L23.41 47.22C23.41 47.22 23.41 47.22 23.41 47.22C23.14 47.02 22.95 46.72 22.9 46.38C22.85 46.05 22.93 45.71 23.14 45.44C23.26 45.27 23.41 45.15 23.59 45.06C23.77 44.97 23.96 44.92 24.16 44.92C24.43 44.92 24.69 45.01 24.91 45.17L31.72 50.2C32.05 50.44 32.24 50.82 32.24 51.23C32.23 51.64 32.03 52.02 31.7 52.25Z" fill="#FFC107" fill-opacity="1.000000" fill-rule="nonzero"/>
		<path id="Vector" d="M31.74 16.75L38.56 21.77C39.21 22.26 40 22.52 40.81 22.52C41.4 22.52 41.98 22.38 42.5 22.12C43.05 21.85 43.52 21.46 43.88 20.97C44.48 20.15 44.73 19.14 44.58 18.14C44.55 17.92 44.5 17.71 44.43 17.51C44.87 17.51 47 17.52 47.21 17.53L47.21 30.67C47.21 32.77 48.92 34.48 51.02 34.48C53.12 34.48 54.83 32.77 54.83 30.67L54.83 13.75C54.83 12.74 54.44 11.79 53.73 11.07C53.02 10.35 52.07 9.95 51.06 9.94C51.06 9.94 51.05 9.94 51.05 9.94L51.05 9.94C50.26 9.93 47.82 9.91 44.56 9.89C44.6 9.74 44.64 9.59 44.66 9.44C44.84 8.43 44.61 7.43 44.02 6.59C43.31 5.59 42.14 4.99 40.91 4.99C40.12 4.99 39.36 5.23 38.71 5.69L31.8 10.57C30.81 11.28 30.21 12.42 30.19 13.65C30.18 14.87 30.76 16.03 31.74 16.75ZM33.27 12.65L40.18 7.76C40.4 7.6 40.64 7.52 40.91 7.52C41.68 7.52 42.29 8.25 42.16 9.01C41.98 10.05 40.38 10.26 40.77 11.53C40.94 12.05 41.43 12.41 41.98 12.41C46.49 12.44 50.04 12.47 51.03 12.48L51.04 12.48C51.38 12.49 51.69 12.62 51.92 12.86C52.16 13.1 52.29 13.41 52.29 13.75L52.29 30.67C52.29 31.37 51.72 31.94 51.02 31.94C50.32 31.94 49.75 31.37 49.75 30.67L49.75 16.27C49.75 15.57 49.19 15 48.49 15C47.89 14.99 43.22 14.96 41.73 14.95C41.73 14.95 41.73 14.95 41.72 14.95C41.18 14.95 40.69 15.3 40.52 15.82C40.35 16.34 40.53 16.92 40.97 17.24C41.43 17.59 41.98 17.9 42.07 18.52C42.12 18.85 42.04 19.19 41.83 19.46C41.43 20.02 40.62 20.14 40.06 19.73L33.25 14.71C32.92 14.46 32.73 14.08 32.73 13.67C32.74 13.26 32.94 12.88 33.27 12.65Z" fill="#FFC107" fill-opacity="1.000000" fill-rule="nonzero"/>
		<path id="Vector" d="M26.44 26.44C27.4 25.48 27.92 24.2 27.92 22.85L27.92 5.07C27.92 3.72 27.4 2.44 26.44 1.48C25.48 0.52 24.2 0 22.85 0L5.07 0C3.72 0 2.44 0.52 1.48 1.48C0.52 2.44 0 3.72 0 5.07L0 22.85C0 24.2 0.52 25.48 1.48 26.44C2.44 27.4 3.72 27.92 5.07 27.92L22.85 27.92C24.2 27.92 25.48 27.4 26.44 26.44ZM2.53 22.85L2.53 5.07C2.54 3.68 3.68 2.54 5.07 2.53L22.85 2.53C24.24 2.54 25.38 3.68 25.39 5.07L25.39 22.85C25.38 24.24 24.24 25.38 22.85 25.39L5.07 25.39C3.68 25.38 2.54 24.24 2.53 22.85Z" fill="#FFC107" fill-opacity="1.000000" fill-rule="nonzero"/>
		<path id="Vector" d="M63.04 43.9C61.72 41.68 59.81 39.87 57.52 38.66C56.5 38.13 55.43 37.72 54.32 37.45C53.25 37.19 52.15 37.06 51.04 37.06L51.03 37.06C48.53 37.06 46.06 37.74 43.9 39.02C41.68 40.33 39.87 42.24 38.66 44.54C38.13 45.55 37.72 46.63 37.45 47.73C37.19 48.81 37.06 49.91 37.06 51.02C37.06 53.52 37.74 55.99 39.02 58.15C40.33 60.38 42.24 62.19 44.54 63.39C45.56 63.93 46.63 64.33 47.73 64.6C48.81 64.86 49.91 65 51.02 65L51.02 65C52.56 65 54.09 64.74 55.56 64.24C55.88 64.13 56.14 63.9 56.29 63.59C56.43 63.29 56.46 62.95 56.35 62.62C56.17 62.11 55.69 61.77 55.15 61.77C55 61.77 54.87 61.79 54.73 61.84C53.53 62.25 52.28 62.46 51.02 62.46C49.16 62.46 47.38 62.01 45.72 61.15C41.95 59.17 39.6 55.29 39.6 51.02C39.6 49.16 40.04 47.38 40.91 45.72C42.89 41.95 46.77 39.6 51.04 39.6C52.9 39.6 54.68 40.04 56.34 40.91C60.11 42.89 62.46 46.77 62.46 51.04C62.46 52.34 62.24 53.62 61.8 54.84C61.69 55.16 61.7 55.51 61.85 55.81C61.99 56.12 62.25 56.35 62.57 56.47C62.71 56.52 62.85 56.54 63 56.54C63.53 56.54 64.01 56.2 64.19 55.7C64.72 54.2 65 52.63 65 51.04C65 48.53 64.32 46.06 63.04 43.9Z" fill="#FFC107" fill-opacity="1.000000" fill-rule="nonzero"/>
		<path id="Vector" d="M61.23 60.05C61.23 60.76 60.66 61.32 59.96 61.32C59.26 61.32 58.69 60.76 58.69 60.05C58.69 59.35 59.26 58.78 59.96 58.78C60.66 58.78 61.23 59.35 61.23 60.05Z" fill="#FFC107" fill-opacity="1.000000" fill-rule="evenodd"/>
	</g>
</svg>
