<svg width="65.000000" height="65.000000" viewBox="0 0 65 65" fill="none" xmlns="http://www.w3.org/2000/svg" xmlns:xlink="http://www.w3.org/1999/xlink">
	<desc>
			Created with Pixso.
	</desc>
	<defs>
		<clipPath id="clip94_298">
			<rect id="fi_4766907" rx="0.000000" width="64.000000" height="64.000000" transform="translate(0.500000 0.500000)" fill="white" fill-opacity="0"/>
		</clipPath>
	</defs>
	<rect id="fi_4766907" rx="0.000000" width="64.000000" height="64.000000" transform="translate(0.500000 0.500000)" fill="#FFFFFF" fill-opacity="0"/>
	<g clip-path="url(#clip94_298)">
		<path id="Vector" d="M47.71 61.31C47.05 61.31 46.51 61.81 46.44 62.46L36.89 62.46L35.38 53.38L37.06 51.7C37.29 51.47 37.43 51.14 37.43 50.81C37.43 50.47 37.29 50.15 37.06 49.91L35.57 48.43L38.11 48.43C40.89 48.43 43.47 49.81 45.03 52.12C45.42 52.7 46.21 52.85 46.79 52.46C47.37 52.07 47.52 51.28 47.13 50.7C45.12 47.71 41.79 45.92 38.19 45.89C39.42 44.53 40.17 42.72 40.17 40.75L40.17 38.89C40.17 34.65 36.73 31.21 32.49 31.21C28.26 31.21 24.82 34.65 24.82 38.89L24.82 40.75C24.82 42.73 25.57 44.53 26.8 45.89C20.84 45.94 16.01 50.79 16.01 56.76L16.01 63.73C16.01 64.43 16.58 64.99 17.28 64.99L47.71 64.99C48.41 64.99 48.97 64.43 48.97 63.73L48.97 62.58C48.98 61.88 48.41 61.31 47.71 61.31ZM32.51 52.66L30.66 50.81L32.51 48.95L34.36 50.81L32.51 52.66ZM31.85 55.54C32.05 55.66 32.28 55.73 32.51 55.73C32.74 55.73 32.96 55.66 33.17 55.54L34.31 62.46L30.7 62.46L31.85 55.54ZM27.36 38.89C27.36 36.05 29.66 33.75 32.5 33.75C35.33 33.75 37.63 36.05 37.63 38.89L37.63 40.75C37.63 43.58 35.33 45.89 32.5 45.89C29.66 45.89 27.36 43.58 27.36 40.75L27.36 38.89ZM18.55 56.76C18.55 52.16 22.29 48.43 26.88 48.43L29.44 48.43L27.96 49.91C27.72 50.15 27.59 50.47 27.59 50.81C27.59 51.14 27.72 51.47 27.96 51.7L29.64 53.38L28.13 62.46L18.55 62.46L18.55 56.76L18.55 56.76Z" fill="#FFC107" fill-opacity="1.000000" fill-rule="nonzero"/>
		<path id="Vector" d="M16.23 8.11C16.23 3.64 12.59 0 8.11 0C3.64 0 0 3.64 0 8.11C0 12.59 3.64 16.23 8.11 16.23C12.59 16.23 16.23 12.59 16.23 8.11ZM2.53 8.11C2.53 5.04 5.04 2.53 8.11 2.53C11.19 2.53 13.69 5.04 13.69 8.11C13.69 11.19 11.19 13.69 8.11 13.69C5.04 13.69 2.53 11.19 2.53 8.11Z" fill="#FFC107" fill-opacity="1.000000" fill-rule="nonzero"/>
		<path id="Vector" d="M25.65 16.23L39.34 16.23C40.04 16.23 40.61 15.66 40.61 14.96L40.61 1.26C40.61 0.56 40.04 0 39.34 0L25.65 0C24.95 0 24.38 0.56 24.38 1.26L24.38 14.96C24.38 15.66 24.95 16.23 25.65 16.23ZM26.92 2.53L38.07 2.53L38.07 13.69L26.92 13.69L26.92 2.53Z" fill="#FFC107" fill-opacity="1.000000" fill-rule="nonzero"/>
		<path id="Vector" d="M64.83 13.82L57.5 1.13C57.27 0.74 56.85 0.5 56.4 0.5C55.95 0.5 55.53 0.74 55.3 1.13L47.98 13.82C47.75 14.21 47.75 14.7 47.98 15.09C48.2 15.48 48.62 15.73 49.08 15.73L63.73 15.73C64.18 15.73 64.6 15.48 64.83 15.09C65.05 14.7 65.05 14.21 64.83 13.82ZM51.27 13.19L56.4 4.31L61.53 13.19L51.27 13.19Z" fill="#FFC107" fill-opacity="1.000000" fill-rule="nonzero"/>
		<path id="Vector" d="M32.5 28.72C33.2 28.72 33.76 28.15 33.76 27.45L33.76 23.83L33.82 23.9C34.06 24.24 34.45 24.43 34.85 24.43C35.1 24.43 35.36 24.35 35.59 24.19C36.16 23.78 36.29 22.99 35.88 22.42L33.53 19.13C33.29 18.8 32.9 18.6 32.5 18.6C32.09 18.6 31.7 18.8 31.46 19.13L29.11 22.42C28.7 22.99 28.83 23.78 29.4 24.19C29.97 24.6 30.77 24.47 31.17 23.9L31.23 23.83L31.23 27.45C31.23 28.15 31.79 28.72 32.5 28.72Z" fill="#FFC107" fill-opacity="1.000000" fill-rule="nonzero"/>
		<path id="Vector" d="M22.04 39C22.04 38.3 21.47 37.73 20.77 37.73L9.39 37.73L9.39 23.83L9.44 23.9C9.69 24.24 10.08 24.43 10.47 24.43C10.73 24.43 10.99 24.35 11.21 24.19C11.78 23.78 11.91 22.99 11.51 22.42L9.15 19.13C8.91 18.8 8.53 18.6 8.12 18.6C7.71 18.6 7.33 18.8 7.09 19.13L4.73 22.42C4.33 22.99 4.46 23.78 5.03 24.19C5.6 24.6 6.39 24.47 6.8 23.9L6.85 23.83L6.85 39C6.85 39.7 7.42 40.27 8.12 40.27L20.77 40.27C21.47 40.27 22.04 39.7 22.04 39Z" fill="#FFC107" fill-opacity="1.000000" fill-rule="nonzero"/>
		<path id="Vector" d="M57.9 19.13C57.66 18.8 57.28 18.6 56.87 18.6C56.46 18.6 56.08 18.8 55.84 19.13L53.48 22.42C53.08 22.99 53.21 23.78 53.78 24.19C54.35 24.6 55.14 24.47 55.55 23.9L55.6 23.83L55.6 37.73L44.22 37.73C43.52 37.73 42.95 38.3 42.95 39C42.95 39.7 43.52 40.27 44.22 40.27L56.87 40.27C57.57 40.27 58.14 39.7 58.14 39L58.14 23.83L58.19 23.9C58.44 24.24 58.83 24.43 59.22 24.43C59.48 24.43 59.74 24.35 59.96 24.19C60.53 23.78 60.66 22.99 60.26 22.42L57.9 19.13Z" fill="#FFC107" fill-opacity="1.000000" fill-rule="nonzero"/>
		<path id="Vector" d="M48.97 56.87C48.97 57.57 48.41 58.14 47.71 58.14C47 58.14 46.44 57.57 46.44 56.87C46.44 56.17 47 55.6 47.71 55.6C48.41 55.6 48.97 56.17 48.97 56.87Z" fill="#FFC107" fill-opacity="1.000000" fill-rule="evenodd"/>
	</g>
</svg>
