<svg width="202.000000" height="168.000000" viewBox="0 0 202 168" fill="none" xmlns="http://www.w3.org/2000/svg" xmlns:xlink="http://www.w3.org/1999/xlink">
	<desc>
			Created with Pixso.
	</desc>
	<defs/>
	<path id="Shape" d="M0 168L0 104.925Q0 60.0854 21.384 34.0781Q22.8257 32.3252 24.3562 30.6533Q45.5303 7.52686 83.7417 0L83.7417 31.0889Q58.9624 38.8589 47.4043 55.7021Q44.7332 59.5947 42.7681 63.9717Q39.7161 70.9199 38.6826 78.1567Q37.8933 83.6846 38.282 89.3809L85.2371 89.3809L85.2371 168L0 168ZM159.83 64.5693C166.809 48.4272 180.367 37.2671 200.505 31.0889L200.505 0Q164.671 7.271 143.279 28.855Q140.925 31.2305 138.745 33.7793Q116.763 59.4873 116.763 104.925L116.763 168L202 168L202 89.3809L155.045 89.3809C154.247 81.4092 155.842 73.1387 159.83 64.5693Z" clip-rule="evenodd" fill="#0F1923" fill-opacity="1.000000" fill-rule="evenodd"/>
</svg>
