<svg width="65.000000" height="65.000000" viewBox="0 0 65 65" fill="none" xmlns="http://www.w3.org/2000/svg" xmlns:xlink="http://www.w3.org/1999/xlink">
	<desc>
			Created with Pixso.
	</desc>
	<defs>
		<clipPath id="clip94_291">
			<rect id="fi_2510712" rx="0.000000" width="64.000000" height="64.000000" transform="translate(0.500000 0.500000)" fill="white" fill-opacity="0"/>
		</clipPath>
	</defs>
	<rect id="fi_2510712" rx="0.000000" width="64.000000" height="64.000000" transform="translate(0.500000 0.500000)" fill="#FFFFFF" fill-opacity="0"/>
	<g clip-path="url(#clip94_291)">
		<path id="XMLID_67_" d="M25.7 47.2C25.44 47.11 25.17 47.01 24.91 46.92L24.91 41.97C25.57 42.19 26.01 42.5 26.03 42.52C26.59 42.94 27.38 42.83 27.8 42.27C28.23 41.71 28.12 40.91 27.56 40.49C27.49 40.44 26.45 39.67 24.91 39.35L24.91 38.31C24.91 37.61 24.34 37.04 23.64 37.04C22.94 37.04 22.37 37.61 22.37 38.31L22.37 39.34C22.2 39.37 22.04 39.41 21.87 39.47C20.21 39.96 18.97 41.38 18.63 43.16C18.32 44.79 18.85 46.37 20 47.27C20.6 47.74 21.35 48.17 22.37 48.63L22.37 55.06C21.52 54.99 20.97 54.78 20.04 54.17C19.46 53.79 18.67 53.95 18.29 54.54C17.9 55.13 18.07 55.91 18.66 56.3C20.1 57.24 21.1 57.53 22.37 57.61L22.37 58.68C22.37 59.38 22.94 59.95 23.64 59.95C24.34 59.95 24.91 59.38 24.91 58.68L24.91 57.46C27.27 56.88 28.79 54.87 29.12 52.89C29.55 50.32 28.21 48.09 25.7 47.2ZM21.57 45.27C21.17 44.96 21 44.32 21.13 43.63C21.24 43.03 21.63 42.31 22.37 41.98L22.37 45.8C22.07 45.63 21.8 45.45 21.57 45.27ZM26.62 52.47C26.46 53.36 25.89 54.31 24.91 54.78L24.91 49.62C26.82 50.32 26.7 51.97 26.62 52.47Z" fill="#FFC107" fill-opacity="1.000000" fill-rule="nonzero"/>
		<path id="XMLID_69_" d="M51.2 8.56C51.53 8.56 51.86 8.43 52.1 8.19C52.33 7.95 52.47 7.63 52.47 7.29C52.47 6.96 52.33 6.63 52.1 6.39C51.86 6.16 51.53 6.02 51.2 6.02C50.86 6.02 50.54 6.16 50.3 6.39C50.06 6.63 49.93 6.96 49.93 7.29C49.93 7.63 50.06 7.95 50.3 8.19C50.54 8.43 50.86 8.56 51.2 8.56Z" fill="#FFC107" fill-opacity="1.000000" fill-rule="nonzero"/>
		<path id="XMLID_72_" d="M64.96 25.91C63.62 19.99 60.67 14.54 56.43 10.15C55.94 9.64 55.14 9.63 54.64 10.12C54.13 10.61 54.12 11.41 54.6 11.91C57.67 15.08 60 18.85 61.47 22.96C59 21.55 56.21 20.81 53.32 20.81C49.95 20.81 46.71 21.82 43.98 23.7C43.35 17.52 42.09 11.94 40.37 7.82C39.49 5.69 38.56 4.11 37.64 2.96C40.44 3.43 43.15 4.29 45.74 5.52C46.37 5.83 47.13 5.56 47.43 4.93C47.73 4.29 47.46 3.53 46.83 3.23C42.34 1.08 37.51 0 32.5 0C28.62 0 24.82 0.66 21.21 1.96C17.72 3.22 14.47 5.04 11.58 7.39C5.77 12.09 1.67 18.66 0.03 25.91C-0.1 26.45 0.15 27.01 0.63 27.29C1.12 27.57 1.72 27.49 2.13 27.11C4.73 24.68 8.12 23.35 11.67 23.35C15.23 23.35 18.62 24.68 21.22 27.11C21.71 27.57 22.46 27.57 22.95 27.11C25.24 24.97 28.14 23.68 31.23 23.4L31.23 33.84C28.95 32.66 26.37 31.99 23.64 31.99C14.54 31.99 7.13 39.39 7.13 48.49C7.13 57.59 14.54 64.99 23.64 64.99L50.52 64.99C51.22 64.99 51.79 64.43 51.79 63.73L51.79 41.64C51.79 40.93 51.22 40.37 50.52 40.37L38 40.37C36.92 38.47 35.48 36.8 33.76 35.47L33.76 23.4C36.85 23.68 39.75 24.97 42.04 27.11C42.53 27.57 43.29 27.57 43.77 27.11C46.37 24.68 49.76 23.34 53.32 23.34C56.87 23.34 60.26 24.68 62.86 27.11C63.1 27.34 63.41 27.46 63.73 27.46C63.94 27.46 64.16 27.4 64.36 27.29C64.84 27.01 65.09 26.45 64.96 25.91ZM49.25 62.46L32.42 62.46C34.39 61.21 36.08 59.57 37.37 57.63L49.25 57.63L49.25 62.46ZM40.05 50.27L49.25 50.27L49.25 55.09L38.76 55.09C39.42 53.59 39.86 51.97 40.05 50.27ZM49.25 42.91L49.25 47.73L40.12 47.73C40.05 46.04 39.72 44.42 39.17 42.91L49.25 42.91ZM37.6 48.49C37.6 56.19 31.34 62.46 23.64 62.46C15.94 62.46 9.67 56.19 9.67 48.49C9.67 40.79 15.94 34.53 23.64 34.53C31.34 34.53 37.6 40.79 37.6 48.49ZM21.01 23.7C18.28 21.82 15.04 20.81 11.67 20.81C8.78 20.81 5.98 21.56 3.51 22.96C7.24 12.38 16.36 4.78 27.35 2.96C26.43 4.11 25.5 5.69 24.62 7.82C22.9 11.94 21.64 17.52 21.01 23.7ZM32.5 20.81C29.31 20.81 26.23 21.72 23.59 23.41C24.21 17.69 25.38 12.57 26.96 8.79C28.62 4.81 30.63 2.53 32.5 2.53C34.36 2.53 36.37 4.81 38.03 8.79C39.61 12.57 40.78 17.69 41.4 23.41C38.76 21.72 35.68 20.81 32.5 20.81Z" fill="#FFC107" fill-opacity="1.000000" fill-rule="nonzero"/>
	</g>
</svg>
