<svg width="310.543701" height="45.000000" viewBox="0 0 310.544 45" fill="none" xmlns="http://www.w3.org/2000/svg" xmlns:xlink="http://www.w3.org/1999/xlink">
	<desc>
			Created with Pixso.
	</desc>
	<defs/>
	<path id="Logo" d="M119.283 13.7015L121.063 14.2262L126.127 15.2527L121.085 15.9827L119.01 16.6442L116.706 16.2793L114.333 17.1689L111.892 17.1005L110.546 17.6936L107.581 18.2867L109.064 21.6857L110.022 23.5334L109.292 25.9743L112.326 34.141L114.47 36.2168L115.063 37.7681L113.58 38.498L114.174 40.2089L112.85 41.9198L108.767 42.9464L109.155 44.0641L105.665 44.5888L102.334 44.2923L101.673 40.7336L99.437 37.2662C99.437 37.2662 90.1069 31.8826 89.3542 30.4454C88.6013 29.0083 88.533 23.2597 88.533 23.2597L90.3123 19.9292L87.2554 23.1913L87.0957 29.5786L78.7239 42.3989C78.7239 42.3989 54.7942 45.045 54.7712 44.9994C54.7646 44.9347 54.7612 44.8673 54.7612 44.7972C54.7612 40.9888 64.5823 29.4074 67.3081 26.1931L67.3088 26.1924L67.3091 26.1921L67.3093 26.1917L67.3096 26.1913L67.3103 26.1907L67.3108 26.1899L67.3115 26.189C67.7485 25.6737 68.0022 25.3745 68.0022 25.3586L68.0022 25.3584C67.3406 25.4953 53.9045 36.5134 52.0339 44.1098C52.0339 44.1098 47.3804 43.5623 47.2891 42.4901C56.1958 25.4047 79.1287 13.7047 81.894 12.2937L81.8943 12.2937L81.8945 12.2935C82.074 12.202 82.1685 12.1538 82.1685 12.1503C80.8682 12.424 55.3416 20.3626 43.1372 41.0758C43.1372 41.0758 34.8794 36.6046 22.8118 39.1368C22.8113 39.1359 22.811 39.135 22.811 39.1339C22.811 39.0176 26.439 37.5171 26.439 37.5171L28.8115 36.9012C29.0444 36.8413 29.3723 36.7232 29.7395 36.591C30.6162 36.2753 31.7156 35.8794 32.2742 36.0048Q32.2878 36.0082 32.3015 36.0115C32.2925 36.0091 32.2834 36.0069 32.2742 36.0048C30.7793 35.6371 29.4182 34.8686 27.9446 34.4831C27.5339 34.3919 27.1462 34.3006 26.7356 34.255C25.0845 34.039 23.3711 34.1048 21.6724 34.17C20.8599 34.2011 20.0505 34.2322 19.2532 34.2322C21.7625 34.2322 24.249 32.9547 26.7583 32.8179C27.1689 32.7951 27.5566 32.7951 27.9446 32.8179C29.8379 32.9091 31.6858 33.3654 33.5107 33.8216C33.1731 33.6814 32.8352 33.5399 32.4963 33.3983C27.8225 31.4433 23.0305 29.4389 17.8618 29.7155C17.4055 29.7383 16.9492 29.7839 16.4929 29.8979C15.8999 30.0804 15.3296 30.3314 14.8049 30.6736C13.1624 31.6545 11.6113 32.6582 9.67212 32.8179C8.34912 32.9091 7.02612 33.0004 5.70288 33.1144C8.6228 32.8407 12.501 31.6088 14.2346 29.0539C13.0625 28.8452 11.6643 29.0546 10.3423 29.2527C9.78613 29.336 9.24365 29.4172 8.73706 29.4645L2.37231 31.472C4.42554 30.4682 6.3418 29.2364 8.55444 28.5749C9.85474 28.2099 11.1777 27.9361 12.501 27.7764C13.5503 27.6168 15.0786 27.7308 16.0369 27.2061C17.1545 26.5902 17.7019 25.4724 18.9338 24.9021C20.2568 24.309 21.6484 23.9212 22.9717 23.3509C19.2761 22.9859 15.0786 22.8035 11.406 23.6703C10.2654 23.944 9.17041 24.3318 8.02979 24.56C6.38721 24.9021 5.10986 24.6056 3.53589 24.195L0 23.2825C0.866943 23.3509 1.73364 23.3281 2.57764 23.4422C3.42188 23.5562 4.26587 23.7616 5.13257 23.7844C6.49487 23.8014 7.81909 23.2083 9.08594 22.6408C9.51636 22.448 9.94019 22.2582 10.3567 22.0963C12.0674 21.4119 13.8696 20.9329 15.7173 20.7048C18.2722 20.431 20.7817 20.7276 23.291 21.1838L32.1191 22.8035C34.9021 23.3053 37.6396 24.0125 40.4912 24.2406C43.0688 24.4459 45.6694 24.4915 48.2244 24.0809C51.3496 23.5791 54.0642 22.1647 56.9612 21.0013C54.6802 21.4119 52.4216 21.9822 50.1406 22.3016C47.791 22.621 45.3271 22.621 42.9548 22.6438C42.5425 22.6478 42.1252 22.6569 41.7051 22.666C39.7534 22.7083 37.7373 22.7521 35.8604 22.3016C33.6931 21.7769 31.7314 20.7048 29.6555 19.952C27.4656 19.1079 25.207 18.4692 22.9031 18.013C19.7322 17.4427 16.5615 17.4427 13.3677 17.283C14.6223 17.1233 15.8999 16.9864 17.1545 16.8267L18.8425 16.6214C18.9949 16.6062 19.1851 16.5656 19.3872 16.5225C19.7783 16.439 20.2139 16.3461 20.5032 16.4095C20.5125 16.4117 20.5215 16.4139 20.5308 16.4161C20.5217 16.4138 20.5125 16.4116 20.5032 16.4095C16.0046 15.3293 11.6846 15.479 7.12085 15.6372L7.02612 15.6405C6.79077 15.6477 6.53101 15.6392 6.2627 15.6304C5.67993 15.6114 5.05737 15.5911 4.55859 15.7265C6.28613 15.2495 8.03613 14.8175 9.76343 14.3174C11.5427 13.7928 13.345 13.2909 15.2156 13.3137C18.5688 13.3365 21.8994 14.4087 25.116 15.2299C28.6062 16.0968 32.0278 17.1689 35.5637 17.7392C38.4153 18.2183 46.4221 18.3323 46.7415 18.3779C44.8254 18.0358 43.0005 17.3058 41.1069 16.918C39.1909 16.553 37.2517 16.2793 35.3127 16.0968C33.5107 15.9143 31.6858 15.7318 29.9749 15.093C28.2412 14.4315 26.804 13.154 25.1843 12.2644C23.0857 11.1238 20.9185 10.5079 18.5918 10.0288C14.9419 9.27601 11.4744 7.97573 7.96143 6.7667C7.39111 6.56139 6.70679 6.1964 6.11353 6.12797L11.292 6.72108C13.0027 6.92638 14.668 7.1545 16.4019 7.17731C16.8076 7.18258 17.2146 7.1842 17.6223 7.18582C18.9802 7.19122 20.3486 7.19666 21.7168 7.337C23.8613 7.61074 25.96 8.15823 27.9673 8.95664C29.9065 9.68662 31.6858 10.7132 33.6248 11.4203C35.9514 12.2644 38.4153 12.5609 40.8789 12.789C43.6848 13.0628 46.5361 13.2453 49.365 12.9259C52.1023 12.6293 54.6116 11.5572 57.2351 10.7588C56.4373 10.834 55.6362 10.9192 54.833 11.0047C51.9844 11.3076 49.1096 11.6133 46.2625 11.4888L38.3923 11.1238C36.5217 11.0325 35.176 9.82349 33.6704 8.84258C32.1648 7.86167 30.6135 6.9492 28.9026 6.3789C26.0056 5.39799 22.7434 5.01019 19.6868 4.87331C17.9758 4.80488 16.2419 4.59957 14.5312 4.59957C16.2192 4.59957 17.8162 3.80116 19.4358 3.45898C21.1694 3.07117 22.926 2.91149 24.7053 2.95712C28.0129 3.04836 31.4348 3.73272 34.6057 4.6452C37.457 5.46642 40.3313 6.15078 43.2969 6.47015C44.0498 6.56139 44.8254 6.58421 45.5781 6.58421C46.2168 6.53858 46.8557 6.49296 47.4944 6.40171C52.3533 5.76298 57.1208 4.34864 61.843 3.02555C64.7629 2.18151 67.6829 1.08654 70.6484 0.447807C72.8384 -0.0312424 75.074 -0.0768661 77.3096 0.0828171C81.0505 0.379372 84.7234 1.26904 88.1907 2.75181C89.9246 3.45898 91.6125 4.30302 93.2322 5.21549C94.0535 5.67173 94.8518 6.15078 95.6501 6.65264C96.0608 6.92638 96.4714 7.17731 96.8821 7.45106C96.9307 7.4788 97.032 7.55717 97.1538 7.65153C97.4329 7.86748 97.8203 8.16716 97.9314 8.13541C99.802 7.47387 101.81 7.17731 103.794 7.31419C106.988 7.56512 111.208 10.3482 111.208 10.3482L105.208 12.789L105.368 13.1768L110.09 13.405L111.801 13.9296L114.31 13.4734L116.843 14.2946L119.283 13.7015ZM80.3435 5.83141C83.4688 6.21922 86.571 6.81232 89.6279 7.58793C87.3467 6.65264 85.0884 5.51205 82.8071 4.59957C80.5259 3.6871 78.2449 3.00274 75.7583 3.09399C73.4771 3.18523 71.2644 3.96084 69.1428 4.87331C67.0212 5.76298 64.9453 6.78951 62.7327 7.40543C65.4246 6.81232 68.0935 6.21922 70.7625 5.62611C73.646 4.97078 77.0105 5.40317 79.9546 5.78154C80.0852 5.7983 80.2148 5.81496 80.3435 5.83141ZM305.158 16.1068C307.006 16.4034 308.352 16.928 309.219 17.658C310.085 18.388 310.519 19.4145 310.542 20.7148C310.543 20.7572 310.544 20.7995 310.544 20.8418C310.544 22.1864 309.843 23.451 308.671 24.1366C307.417 24.9578 305.637 25.3684 303.31 25.3684C301.645 25.3684 300.253 25.1631 299.136 24.7753C298.109 24.456 297.219 23.8172 296.581 22.9732C295.965 22.0607 295.6 20.9886 295.531 19.8936L298.953 19.8936C299.09 20.8745 299.523 21.6045 300.208 22.0607C300.915 22.517 301.942 22.7451 303.333 22.7451C304.565 22.7451 305.5 22.5854 306.139 22.2432C306.709 21.9695 307.074 21.3992 307.074 20.7604C307.075 20.7375 307.076 20.7147 307.076 20.6919C307.076 20.2172 306.85 19.7898 306.458 19.5286C306.048 19.232 305.386 19.0267 304.474 18.8899L301.919 18.5249C299.866 18.2511 298.36 17.7493 297.402 16.9965C296.444 16.2665 295.965 15.2171 295.965 13.8712C295.964 13.8402 295.964 13.8093 295.964 13.7784C295.964 12.9458 296.259 12.1595 296.809 11.5216C297.379 10.8601 298.2 10.3582 299.273 9.99323C300.527 9.60542 301.828 9.42293 303.151 9.44574Q306.23 9.44574 307.941 10.4723C309.082 11.1566 309.834 12.2516 310.177 13.7116L306.892 14.0994C306.664 13.4378 306.185 12.8903 305.569 12.5482C304.976 12.2288 304.132 12.0691 303.082 12.0691C301.873 12.0691 300.961 12.2288 300.322 12.5253C299.683 12.8219 299.364 13.2553 299.364 13.8256C299.36 13.8663 299.358 13.9066 299.358 13.9465C299.358 14.3771 299.579 14.7613 299.934 15.0118C300.322 15.2628 301.029 15.4681 302.056 15.6278L305.158 16.1068ZM146.912 22.7451C148.144 22.7451 149.079 22.5854 149.718 22.2432C150.258 22.0057 150.634 21.482 150.634 20.8851C150.634 20.8513 150.633 20.8174 150.63 20.7832C150.631 20.7603 150.632 20.7374 150.632 20.7147C150.632 20.24 150.406 19.8126 150.014 19.5514C149.604 19.2549 148.942 19.0495 148.03 18.9127L145.475 18.5477C143.422 18.2739 141.916 17.7721 140.958 17.0193C140 16.2665 139.521 15.24 139.521 13.8941C139.52 13.863 139.52 13.832 139.52 13.8011C139.52 12.9686 139.815 12.1823 140.365 11.5444C140.935 10.8829 141.757 10.381 142.829 10.016C144.083 9.62823 145.384 9.44574 146.707 9.46855Q149.786 9.46855 151.497 10.4951C152.638 11.1794 153.391 12.2744 153.733 13.7344L150.448 14.1222C150.22 13.4606 149.741 12.9131 149.125 12.571C148.532 12.2516 147.688 12.0919 146.638 12.0919C145.429 12.0919 144.517 12.2516 143.878 12.5482Q143.23 12.8492 143.02 13.3383Q142.92 13.5719 142.92 13.8484C142.919 13.8704 142.918 13.8923 142.918 13.914C142.918 14.3669 143.143 14.7735 143.513 15.0347C143.901 15.2856 144.608 15.4909 145.635 15.6506L148.76 16.1296C150.608 16.4262 151.953 16.9509 152.82 17.6808C153.687 18.4108 154.121 19.4373 154.121 20.7376C154.122 20.78 154.123 20.8223 154.123 20.8646C154.123 22.2092 153.422 23.4738 152.25 24.1594C150.995 24.9578 149.216 25.3684 146.889 25.3684C145.224 25.3684 143.833 25.1631 142.715 24.7753C141.688 24.456 140.798 23.8172 140.16 22.9732C139.544 22.0607 139.179 20.9886 139.11 19.8936L142.532 19.8936C142.669 20.8745 143.103 21.6045 143.787 22.0607C144.494 22.517 145.521 22.7451 146.912 22.7451ZM183.616 22.152L192.855 22.152L192.445 24.9806L180.218 24.9806L180.218 9.83355L183.616 9.83355L183.616 22.152ZM202.847 24.9806L199.448 24.9806L199.448 12.6622L193.517 12.6622L193.517 9.83355L208.778 9.83355L208.778 12.6622L202.847 12.6622L202.847 24.9806ZM240.509 9.85636L240.509 24.9806L237.361 24.9806L237.361 14.6469L232.525 24.9806L229.902 24.9806L225.088 14.7381L225.088 24.9806L221.963 24.9806L221.963 9.83355L225.909 9.83355L231.293 21.3307L236.654 9.85636L240.509 9.85636ZM246.851 9.83355L250.25 9.83355L250.25 24.9578L246.851 24.9578L246.851 9.83355ZM259.671 9.83355L268.431 20.4183L268.431 9.83355L271.67 9.83355L271.67 24.9806L268.568 24.9806L259.808 14.3959L259.808 24.9806L256.569 24.9806L256.569 9.83355L259.671 9.83355ZM290.239 18.5933L281.388 18.5933L281.388 22.1976L291.152 22.1976L290.718 24.9806L278.012 24.9806L278.012 9.83355L290.695 9.83355L290.695 12.6166L281.411 12.6166L281.411 15.8103L290.239 15.8103L290.239 18.5933ZM170.408 21.536L162.767 21.536L161.284 24.9578L157.793 24.9578L164.728 9.83355L168.561 9.83355L175.496 24.9578L171.914 24.9578L170.408 21.536ZM72.7014 11.1922C72.6841 11.1939 72.6665 11.1959 72.6492 11.198C69.9746 11.4926 67.2776 11.7872 64.6033 12.0819C64.033 12.1503 63.4626 12.2187 62.8923 12.3328C61.1587 12.6978 59.6758 13.6103 58.0791 14.249C57.3035 14.5684 56.5049 14.9333 55.7295 15.2755C55.4556 15.4124 55.0679 15.6633 54.7712 15.709C58.4441 15.2755 62.0254 14.728 65.584 13.6331C67.0212 13.1768 68.4355 12.5837 69.8955 12.1503C70.7683 11.8818 71.7507 11.3059 72.6492 11.198L72.7014 11.1922ZM169.245 18.8671L166.576 12.7991L163.907 18.8671L169.245 18.8671ZM4.55859 15.7265L4.53955 15.7318C4.5459 15.73 4.55225 15.7282 4.55859 15.7265ZM103.132 22.9859L104.022 24.9934L106.919 25.3812L105.072 23.9669L101.878 19.3589L103.132 22.9859ZM90.8826 24.4687L91.4756 29.5786L95.3538 32.7038C95.3538 32.7038 93.2092 30.377 92.2285 27.4343C91.8542 26.337 91.7368 25.0367 91.7368 23.8374C91.7368 21.8203 92.0688 20.0888 92.0688 20.0888L90.8826 24.4687ZM48.6584 31.4706C48.9458 31.3716 49.2341 31.2722 49.5244 31.1754C49.7527 31.1298 49.958 31.0614 50.0947 30.9929C49.9124 31.0386 49.707 31.107 49.5244 31.1754C48.8479 31.3142 47.9204 31.3211 47.1938 31.3264C46.9653 31.3281 46.7566 31.3296 46.5818 31.3351C45.0762 31.4035 43.5706 31.3351 42.0879 31.0842C39.145 30.6279 36.2937 29.647 33.5562 28.5064C33.5098 28.4871 33.4631 28.4677 33.4167 28.4483C31.5447 27.6677 29.6267 26.8678 27.5566 27.0237C26.051 27.1149 24.5454 27.2518 23.0171 27.343C24.9104 27.5483 26.8496 27.708 28.7429 27.9589C31.3435 28.3011 33.4421 29.9208 35.7917 30.9245C37.9817 31.8598 40.354 32.1791 42.7039 32.4985C44.811 32.7967 46.7102 32.1421 48.6584 31.4706ZM298.986 35.098Q298.398 35.098 297.901 34.909Q297.48 34.7491 297.15 34.479Q297.09 34.4298 297.033 34.377C296.79 34.1437 296.601 33.873 296.466 33.565C296.331 33.257 296.263 32.9187 296.263 32.55C296.263 32.1813 296.331 31.843 296.466 31.535Q296.579 31.278 296.742 31.0578L296.742 31.0573Q296.872 30.8819 297.033 30.73C297.28 30.4967 297.57 30.317 297.901 30.191Q298.398 30.002 298.986 30.002C299.383 30.002 299.744 30.065 300.071 30.191C300.402 30.317 300.689 30.4967 300.932 30.73Q301.093 30.8822 301.223 31.0581Q301.386 31.2781 301.499 31.535Q301.507 31.5532 301.515 31.5716Q301.709 32.0188 301.709 32.55C301.709 32.9187 301.639 33.2593 301.499 33.572C301.364 33.88 301.175 34.1483 300.932 34.377C300.689 34.6057 300.402 34.783 300.071 34.909C299.744 35.035 299.383 35.098 298.986 35.098ZM243.906 35L243.906 30.1L245.046 30.1L246.771 32.931L248.448 30.1L249.59 30.1L249.604 35L248.33 35L248.317 32.4002L247.055 34.517L246.439 34.517L245.187 32.4729L245.187 35L243.906 35ZM254.956 33.929L257.518 33.929L257.518 35L253.584 35L253.584 30.1L257.427 30.1L257.427 31.171L254.956 31.171L254.956 31.997L257.133 31.997L257.133 33.033L254.956 33.033L254.956 33.929ZM261.287 35L261.287 30.1L263.604 30.1C264.146 30.1 264.622 30.2003 265.032 30.401Q265.465 30.6122 265.763 30.9442Q265.889 31.0852 265.991 31.248C266.225 31.612 266.341 32.046 266.341 32.55C266.341 33.0493 266.225 33.4833 265.991 33.852Q265.889 34.0144 265.763 34.1551L265.762 34.1558Q265.465 34.4877 265.032 34.699C264.622 34.8997 264.146 35 263.604 35L261.287 35ZM270.071 35L270.071 30.1L271.457 30.1L271.457 35L270.071 35ZM274.854 35L277.018 30.1L278.383 30.1L280.553 35L279.111 35L278.729 34.048L276.651 34.048L276.269 35L274.854 35ZM284.742 35L284.742 31.199L283.238 31.199L283.238 30.1L287.626 30.1L287.626 31.199L286.128 31.199L286.128 35L284.742 35ZM291.143 35L291.143 30.1L292.529 30.1L292.529 35L291.143 35ZM305.435 35L305.435 30.1L306.576 30.1L308.739 32.7113L308.739 30.1L310.097 30.1L310.097 35L308.956 35L306.793 32.3887L306.793 35L305.435 35ZM298.986 33.95C299.173 33.95 299.345 33.9173 299.504 33.852C299.667 33.7867 299.807 33.6933 299.924 33.572C300.045 33.446 300.139 33.2967 300.204 33.124C300.274 32.9513 300.309 32.76 300.309 32.55C300.309 32.3353 300.274 32.144 300.204 31.976C300.139 31.8033 300.045 31.6563 299.924 31.535C299.807 31.409 299.667 31.3133 299.504 31.248Q299.266 31.15 298.986 31.15C298.799 31.15 298.624 31.1827 298.461 31.248C298.302 31.3133 298.162 31.409 298.041 31.535C297.924 31.6563 297.831 31.8033 297.761 31.976C297.696 32.144 297.663 32.3353 297.663 32.55C297.663 32.76 297.696 32.9513 297.761 33.124C297.831 33.2967 297.924 33.446 298.041 33.572C298.162 33.6933 298.302 33.7867 298.461 33.852C298.624 33.9173 298.799 33.95 298.986 33.95ZM262.673 33.894L263.548 33.894C263.828 33.894 264.071 33.8427 264.276 33.74Q264.449 33.6515 264.581 33.5205Q264.688 33.4134 264.766 33.278C264.883 33.0727 264.941 32.83 264.941 32.55C264.941 32.2653 264.883 32.0227 264.766 31.822Q264.683 31.678 264.567 31.5677L264.566 31.5673Q264.44 31.4472 264.276 31.367Q263.968 31.206 263.548 31.206L262.673 31.206L262.673 33.894ZM278.318 33.026L277.69 31.4592L277.061 33.026L278.318 33.026ZM138.693 32L232.762 32L232.762 33.3687L138.693 33.3687L138.693 32ZM113.489 37.2206L111.345 36.8556L111.254 38.5437L113.489 37.2206Z" clip-rule="evenodd" fill="#0F1923" fill-opacity="1.000000" fill-rule="evenodd"/>
</svg>
