<svg width="28.000000" height="28.000000" viewBox="0 0 28 28" fill="none" xmlns="http://www.w3.org/2000/svg" xmlns:xlink="http://www.w3.org/1999/xlink">
	<desc>
			Created with Pixso.
	</desc>
	<defs>
		<clipPath id="clip168_245">
			<rect id="fi_8569750" rx="0.000000" width="27.000000" height="27.000000" transform="translate(0.500000 0.500000)" fill="white" fill-opacity="0"/>
		</clipPath>
	</defs>
	<rect id="fi_8569750" rx="0.000000" width="27.000000" height="27.000000" transform="translate(0.500000 0.500000)" fill="#FFFFFF" fill-opacity="0"/>
	<g clip-path="url(#clip168_245)">
		<path id="Vector" d="M25.42 0L16.63 0C15.19 0 14.05 1.16 14.05 2.57L14.05 9.6C14.05 11.04 15.22 12.18 16.63 12.18L18.93 12.18L20.44 13.7C20.75 14.01 21.3 14.01 21.6 13.7L23.12 12.18L25.42 12.18C26.86 12.18 28 11.01 28 9.6L28 2.57C28 1.13 26.83 0 25.42 0ZM22.78 10.54C22.56 10.54 22.36 10.63 22.2 10.78L21.02 11.96L19.85 10.78C19.69 10.63 19.48 10.54 19.27 10.54L18.46 10.54C19.27 8.06 22.78 8.06 23.59 10.54L22.78 10.54ZM20.09 6.09C20.09 5.57 20.51 5.15 21.02 5.15C22.27 5.2 22.27 6.98 21.02 7.02C20.51 7.02 20.09 6.6 20.09 6.09ZM26.35 9.6C26.35 10.11 25.94 10.54 25.42 10.54L25.28 10.54C25.03 9.26 24.23 8.19 23.13 7.57C24.34 5.91 23.09 3.49 21.02 3.51C18.95 3.49 17.71 5.91 18.92 7.57C17.82 8.19 17.01 9.26 16.77 10.54L16.63 10.54C16.12 10.54 15.69 10.13 15.69 9.6L15.69 2.57C15.69 2.06 16.11 1.64 16.63 1.64L25.42 1.64C25.93 1.64 26.35 2.05 26.35 2.57L26.35 9.6Z" fill="#0F1923" fill-opacity="1.000000" fill-rule="nonzero"/>
		<path id="Vector" d="M20.15 18.89L19.27 18.89C18.18 18.93 18.18 20.49 19.27 20.53L20.15 20.53C21.23 20.49 21.23 18.93 20.15 18.89Z" fill="#0F1923" fill-opacity="1.000000" fill-rule="nonzero"/>
		<path id="Vector" d="M27.17 22.84L25.68 22.84L27.95 16.01C28.04 15.76 27.99 15.49 27.84 15.27C27.69 15.06 27.44 14.93 27.17 14.93L14.87 14.93C14.52 14.93 14.21 15.16 14.1 15.49L13.7 16.68C12.88 15.76 11.85 15.05 10.72 14.6C13.68 12.01 11.83 7.02 7.84 7.02C3.86 7.02 2.01 12 4.97 14.6C2.06 15.75 0 18.59 0 21.9C0 22.32 0.09 22.71 0.27 23.05C0.1 23.2 0 23.42 0 23.66L0 27.17C0 27.63 0.36 28 0.82 28L27.17 28C27.63 28 28 27.63 28 27.17L28 23.66C28 23.21 27.63 22.84 27.17 22.84ZM15.47 16.57L26.04 16.57L23.95 22.84L13.38 22.84L15.47 16.57ZM7.84 8.66C9.33 8.66 10.54 9.87 10.54 11.36C10.4 14.93 5.29 14.93 5.15 11.36C5.15 9.87 6.36 8.66 7.84 8.66ZM7.84 15.69C9.96 15.69 11.94 16.78 13.07 18.56L11.65 22.84L11.28 22.84C10.9 20.84 9.13 19.33 7.02 19.33L2.57 19.33C2.44 19.33 2.31 19.34 2.18 19.35C3.16 17.2 5.33 15.69 7.84 15.69ZM2.57 20.97L7.02 20.97C8.22 20.97 9.24 21.75 9.59 22.84L2.57 22.84C1.34 22.79 1.33 21.01 2.57 20.97ZM26.35 26.35L1.64 26.35L1.64 24.48L26.35 24.48L26.35 26.35Z" fill="#0F1923" fill-opacity="1.000000" fill-rule="nonzero"/>
	</g>
</svg>
