<svg width="28.000000" height="28.000000" viewBox="0 0 28 28" fill="none" xmlns="http://www.w3.org/2000/svg" xmlns:xlink="http://www.w3.org/1999/xlink">
	<desc>
			Created with Pixso.
	</desc>
	<defs>
		<clipPath id="clip168_261">
			<rect id="fi_6160135" rx="0.000000" width="27.000000" height="27.000000" transform="translate(0.500000 0.500000)" fill="white" fill-opacity="0"/>
		</clipPath>
	</defs>
	<rect id="fi_6160135" rx="0.000000" width="27.000000" height="27.000000" transform="translate(0.500000 0.500000)" fill="#FFFFFF" fill-opacity="0"/>
	<g clip-path="url(#clip168_261)">
		<path id="Vector" d="M17.95 20.08L18.83 20.08C19.91 20.04 19.91 18.48 18.83 18.44L17.95 18.44C16.86 18.48 16.86 20.04 17.95 20.08Z" fill="#000000" fill-opacity="1.000000" fill-rule="nonzero"/>
		<path id="Vector" d="M9.16 20.08L10.04 20.08C11.13 20.04 11.13 18.48 10.04 18.44L9.16 18.44C8.08 18.48 8.08 20.04 9.16 20.08Z" fill="#000000" fill-opacity="1.000000" fill-rule="nonzero"/>
		<path id="Vector" d="M4.77 20.08L5.65 20.08C6.73 20.04 6.73 18.48 5.65 18.44L4.77 18.44C3.68 18.48 3.68 20.04 4.77 20.08Z" fill="#000000" fill-opacity="1.000000" fill-rule="nonzero"/>
		<path id="Vector" d="M17.95 24.47L18.83 24.47C19.91 24.43 19.91 22.87 18.83 22.83L17.95 22.83C16.86 22.87 16.86 24.43 17.95 24.47Z" fill="#000000" fill-opacity="1.000000" fill-rule="nonzero"/>
		<path id="Vector" d="M9.16 24.47L10.04 24.47C11.13 24.43 11.13 22.87 10.04 22.83L9.16 22.83C8.08 22.87 8.08 24.43 9.16 24.47Z" fill="#000000" fill-opacity="1.000000" fill-rule="nonzero"/>
		<path id="Vector" d="M4.77 24.47L5.65 24.47C6.73 24.43 6.73 22.87 5.65 22.83L4.77 22.83C3.68 22.87 3.68 24.43 4.77 24.47Z" fill="#000000" fill-opacity="1.000000" fill-rule="nonzero"/>
		<path id="Vector" d="M17.95 15.69L18.83 15.69C19.91 15.65 19.91 14.08 18.83 14.04L17.95 14.04C16.86 14.09 16.86 15.65 17.95 15.69Z" fill="#000000" fill-opacity="1.000000" fill-rule="nonzero"/>
		<path id="Vector" d="M9.16 15.69L10.04 15.69C11.13 15.65 11.13 14.08 10.04 14.04L9.16 14.04C8.08 14.09 8.08 15.65 9.16 15.69Z" fill="#000000" fill-opacity="1.000000" fill-rule="nonzero"/>
		<path id="Vector" d="M13.56 20.08L14.43 20.08C15.52 20.04 15.52 18.48 14.43 18.44L13.56 18.44C12.47 18.48 12.47 20.04 13.56 20.08Z" fill="#000000" fill-opacity="1.000000" fill-rule="nonzero"/>
		<path id="Vector" d="M13.56 24.47L14.43 24.47C15.52 24.43 15.52 22.87 14.43 22.83L13.56 22.83C12.47 22.87 12.47 24.43 13.56 24.47Z" fill="#000000" fill-opacity="1.000000" fill-rule="nonzero"/>
		<path id="Vector" d="M13.56 15.69L14.43 15.69C15.52 15.65 15.52 14.08 14.43 14.04L13.56 14.04C12.47 14.09 12.47 15.65 13.56 15.69Z" fill="#000000" fill-opacity="1.000000" fill-rule="nonzero"/>
		<path id="Vector" d="M27.17 3.5L23.6 3.5L23.6 2.56C23.47 -0.85 18.58 -0.85 18.45 2.56L18.45 3.5L16.57 3.5L16.57 2.56C16.44 -0.85 11.55 -0.85 11.42 2.56L11.42 3.5L9.54 3.5L9.54 2.56C9.41 -0.85 4.52 -0.85 4.39 2.56L4.39 3.5L0.82 3.5C0.36 3.5 0 3.87 0 4.32L0 27.17C0 27.62 0.36 27.99 0.82 27.99L27.17 27.99C27.63 27.99 28 27.62 28 27.17L28 4.32C28 3.87 27.63 3.5 27.17 3.5ZM20.09 2.56C20.13 1.32 21.91 1.32 21.96 2.56L21.96 3.5L20.09 3.5L20.09 2.56ZM13.06 2.56C13.11 1.32 14.89 1.32 14.93 2.56L14.93 3.5L13.06 3.5L13.06 2.56ZM6.03 2.56C6.08 1.32 7.86 1.32 7.9 2.56L7.9 3.5L6.03 3.5L6.03 2.56ZM26.35 26.35L1.64 26.35L1.64 12.17L26.35 12.17L26.35 26.35ZM26.35 10.53L1.64 10.53L1.64 5.14L4.39 5.14L4.39 6.08C4.39 7.5 5.54 8.66 6.97 8.66C7.42 8.66 7.79 8.29 7.79 7.84C7.79 7.38 7.42 7.02 6.97 7.02C6.45 7.02 6.03 6.6 6.03 6.08L6.03 5.14L11.42 5.14L11.42 6.08C11.42 7.5 12.57 8.66 14 8.66C14.45 8.66 14.82 8.29 14.82 7.84C14.82 7.38 14.45 7.02 14 7.02C13.48 7.02 13.06 6.6 13.06 6.08L13.06 5.14L18.45 5.14L18.45 6.08C18.45 7.5 19.6 8.66 21.02 8.66C21.48 8.66 21.84 8.29 21.84 7.84C21.84 7.38 21.48 7.02 21.02 7.02C20.51 7.02 20.09 6.6 20.09 6.08L20.09 5.14L26.35 5.14L26.35 10.53Z" fill="#000000" fill-opacity="1.000000" fill-rule="nonzero"/>
		<path id="Vector" d="M21.98 16.1C22.3 16.42 22.82 16.42 23.14 16.1L23.22 16.03L23.3 16.1C23.62 16.42 24.14 16.42 24.46 16.1C24.78 15.78 24.78 15.26 24.46 14.94L24.38 14.87L24.46 14.79C24.78 14.47 24.78 13.95 24.46 13.63C24.14 13.31 23.62 13.31 23.3 13.63L23.22 13.71L23.14 13.63C22.82 13.31 22.3 13.31 21.98 13.63C21.66 13.95 21.66 14.47 21.98 14.79L22.06 14.87L21.98 14.94C21.66 15.26 21.66 15.78 21.98 16.1Z" fill="#000000" fill-opacity="1.000000" fill-rule="nonzero"/>
		<path id="Vector" d="M21.98 20.5C22.3 20.82 22.82 20.82 23.14 20.5L23.22 20.42L23.3 20.5C23.62 20.82 24.14 20.82 24.46 20.5C24.78 20.18 24.78 19.66 24.46 19.34L24.38 19.26L24.46 19.18C24.78 18.86 24.78 18.34 24.46 18.02C24.14 17.7 23.62 17.7 23.3 18.02L23.22 18.1L23.14 18.02C22.82 17.7 22.3 17.7 21.98 18.02C21.66 18.34 21.66 18.86 21.98 19.18L22.06 19.26L21.98 19.34C21.66 19.66 21.66 20.18 21.98 20.5Z" fill="#000000" fill-opacity="1.000000" fill-rule="nonzero"/>
		<path id="Vector" d="M21.98 24.89C22.3 25.21 22.82 25.21 23.14 24.89L23.22 24.81L23.3 24.89C23.62 25.21 24.14 25.21 24.46 24.89C24.78 24.57 24.78 24.05 24.46 23.73L24.38 23.65L24.46 23.57C24.78 23.25 24.78 22.73 24.46 22.41C24.14 22.09 23.62 22.09 23.3 22.41L23.22 22.49L23.14 22.41C22.82 22.09 22.3 22.09 21.98 22.41C21.66 22.73 21.66 23.25 21.98 23.57L22.06 23.65L21.98 23.73C21.66 24.05 21.66 24.57 21.98 24.89Z" fill="#000000" fill-opacity="1.000000" fill-rule="nonzero"/>
	</g>
</svg>
