<svg width="25.000000" height="35.000000" viewBox="0 0 25 35" fill="none" xmlns="http://www.w3.org/2000/svg" xmlns:xlink="http://www.w3.org/1999/xlink">
	<desc>
			Created with Pixso.
	</desc>
	<defs/>
	<path id="Path" d="M5.5 33C3.56 33 2 31.45 2 29.55L2 5.44C2 3.54 3.56 2 5.5 2L19.5 2C21.43 2 23 3.54 23 5.44L23 29.55C23 31.45 21.43 33 19.5 33L5.5 33Z" stroke="#FFFFFF" stroke-opacity="1.000000" stroke-width="4.000000" stroke-linejoin="round"/>
	<path id="Path" d="M11.5 27C11.5 27.27 11.72 27.5 12 27.5C12.27 27.5 12.5 27.27 12.5 27C12.5 26.72 12.27 26.5 11.99 26.5C11.72 26.5 11.49 26.72 11.5 27Z" stroke="#FFFFFF" stroke-opacity="1.000000" stroke-width="4.000000" stroke-linejoin="round"/>
	<path id="Path" d="M11 7L15 7" stroke="#FFFFFF" stroke-opacity="1.000000" stroke-width="4.000000" stroke-linejoin="round" stroke-linecap="round"/>
</svg>
