<svg width="46" height="48" xmlns="http://www.w3.org/2000/svg"><g stroke="#000" stroke-width="2" fill="none" fill-rule="evenodd"><path d="M34 44v2a1 1 0 001 1h5a1 1 0 001-1v-4"/><path d="M27 43H15a3 3 0 01-3-3v-2.586c0-.905.36-1.774 1-2.414v-1l-3-.656a1 1 0 01-1-1V31a1 1 0 011-1h4c.334 0 3.031 3 5 3h16c1.969 0 4.666-3 5-3h4a1 1 0 011 1v1.344a1 1 0 01-1 1L41 34v1c.64.64 1 1.509 1 2.414V40a3 3 0 01-3 3H27z"/><path d="M38 31l-1.316-3.949A3 3 0 0033.838 25H20.162a3 3 0 00-2.846 2.051L16 31m6 9h10m-12 4v2a1 1 0 01-1 1h-5a1 1 0 01-1-1v-4m25.588-6.62A6.83 6.83 0 0134.172 37H33m-17.588-1.62A6.83 6.83 0 0019.828 37H21"/><path d="M10 38H3a2 2 0 01-2-2V11h39v16M6 3H3a2 2 0 00-2 2v6h39V5a2 2 0 00-2-2h-3m-6 0H12"/><path d="M6 6h6V1H6zm23 0h6V1h-6zM6 21h7v-5H6zm0 10v-6h7v3m4-7h7v-5h-7zm11 0h7v-5h-7z"/></g></svg>