<svg width="48" height="44" xmlns="http://www.w3.org/2000/svg"><g stroke="#000" stroke-width="2" fill="none" fill-rule="evenodd"><path d="M13.914 8L9.336 3.464A5.105 5.105 0 005.757 2H3.828C2.171 2 1 3.343 1 5v7c0 1.657 1.171 3 2.828 3H5"/><path d="M11.828 3l2-2h10a4 4 0 012.83 1.172l19.756 20.414a2 2 0 010 2.828l-18.586 17a2 2 0 01-2.828 0L6.085 24C5.335 23.25 5 22.232 5 21.171V9l2.914-3m7.914 0l-4 4"/><path d="M18 15h13.828a1 1 0 01.984 1.181l-1.288 7a1 1 0 01-.984.819H18"/><path d="M31 28H20.14a1 1 0 01-.965-.742L15.57 13.742a1 1 0 00-.966-.742H11m8 18h2m9 0h2"/></g></svg>