<svg width="51" height="46" xmlns="http://www.w3.org/2000/svg"><g stroke="#000" stroke-width="2" fill="none" fill-rule="evenodd"><path d="M46 38h-4m-4 0h-4m15-7h-4m-4 0h-4m0-16h4m4 0h4M34 8h4m4 0h4m4 15h-4m-4 0h-4M16.303 38.004C18.288 41.714 21.003 44 24 44h15c6.075 0 11-9.404 11-21 0-11.6-4.925-21-11-21H24c-2.413 0-4.645 1.482-6.46 4"/><path d="M22 10.007C23.177 8.731 24.543 8 26 8c4.419 0 8 6.716 8 15 0 8.284-3.582 15-8 15-1.455 0-2.819-.728-3.994-2.001M13 23v5H1V17h9M1 45h12V34H1z"/><path d="M4 22l3 3 7-8M13 7v5H1V1h9"/><path d="M4 6l3 3 7-8"/></g></svg>