<svg width="356" height="85" fill="none" xmlns="http://www.w3.org/2000/svg"><path d="M354.762 5.942a.5.5 0 00.142-.99l-.142.99zM.154 80.409c42.069 7.367 71.99 4.48 96.54-3.542 24.534-8.015 43.677-21.153 64.153-34.199 20.486-13.052 42.342-26.04 72.376-33.866 30.035-7.826 68.281-10.499 121.539-2.86l.142-.99c-53.359-7.653-91.743-4.984-121.933 2.883-30.191 7.866-52.154 20.924-72.661 33.99-20.516 13.071-39.54 26.124-63.926 34.092-24.37 7.962-54.121 10.85-96.058 3.507l-.173.985z" fill="#1A202C"/></svg>