<svg width="24" height="24" xmlns="http://www.w3.org/2000/svg"><g fill="none" fill-rule="evenodd"><path d="M0 0h24v24H0z"/><path stroke="#3E1313" stroke-width="1.5" stroke-linecap="round" stroke-linejoin="round" d="M16 7h2m-3 3h3M7.595 5v2M5.5 10V7.8a.8.8 0 01.8-.8h2.4a.8.8 0 01.8.8V10m2.5 4v-3.067a.933.933 0 00-.933-.933H3.933a.933.933 0 00-.933.933V21m3-7h3m-3 3h3m13-.5c0 1.639-1.788 3.389-2.808 4.254-.403.328-.98.328-1.383 0C16.788 19.89 15 18.14 15 16.5"/><path d="M18.499 16.24a.26.26 0 10.002.52.26.26 0 00-.002-.52" stroke="#3E1313" stroke-width="1.5" stroke-linecap="round" stroke-linejoin="round"/><path d="M22 16.5h0a3.5 3.5 0 00-3.5-3.5h0a3.5 3.5 0 00-3.5 3.5h0M2 21h11M12 7V5.751a1.5 1.5 0 01.973-1.404l6-2.25A1.5 1.5 0 0121 3.5V10" stroke="#3E1313" stroke-width="1.5" stroke-linecap="round" stroke-linejoin="round"/></g></svg>