<svg width="34" height="34" xmlns="http://www.w3.org/2000/svg"><g fill="none" fill-rule="evenodd"><path d="M0 0h34v34H0z"/><path stroke="#FFF" stroke-width="2" stroke-linecap="round" stroke-linejoin="round" d="M29.75 11.333H4.25m20.542 7.084h0a6.375 6.375 0 11-6.375 6.375h0a6.375 6.375 0 016.375-6.375s0 0 0 0"/><path d="M20.787 29.75H8.5h0a4.25 4.25 0 01-4.25-4.25s0 0 0 0v-17h0A4.25 4.25 0 018.5 4.25h17a4.25 4.25 0 014.25 4.25v12.287m-4.647.874v3.386m-2.762 0h2.762" stroke="#FFF" stroke-width="2" stroke-linecap="round" stroke-linejoin="round"/><path d="M9.632 16.292h0a.07.07 0 11-.07-.071" stroke="#FFF" stroke-width="2" stroke-linecap="round" stroke-linejoin="round"/><path d="M9.561 16.22h0c.04 0 .07.033.07.072 0 0 0 0 0 0m4.961 0h0a.07.07 0 11-.071-.071m-.001-.001h0c.04 0 .072.033.072.072 0 0 0 0 0 0m-4.96 4.25h0a.07.07 0 11-.07-.071" stroke="#FFF" stroke-width="2" stroke-linecap="round" stroke-linejoin="round"/><path d="M9.561 20.47h0c.04 0 .07.033.07.072 0 0 0 0 0 0m4.961 0h0a.07.07 0 11-.071-.071m-.001-.001h0c.04 0 .072.033.072.072 0 0 0 0 0 0m4.957-4.25h0a.07.07 0 11-.071-.071" stroke="#FFF" stroke-width="2" stroke-linecap="round" stroke-linejoin="round"/><path d="M19.478 16.22h0c.039 0 .07.033.07.072 0 0 0 0 0 0m-9.916 8.5h0a.07.07 0 11-.07-.071" stroke="#FFF" stroke-width="2" stroke-linecap="round" stroke-linejoin="round"/><path d="M9.561 24.72h0c.04 0 .07.033.07.072 0 0 0 0 0 0m4.961 0h0a.07.07 0 11-.071-.071m-.001-.001h0c.04 0 .072.033.072.072 0 0 0 0 0 0" stroke="#FFF" stroke-width="2" stroke-linecap="round" stroke-linejoin="round"/></g></svg>