<svg width="34" height="34" xmlns="http://www.w3.org/2000/svg"><g fill="none" fill-rule="evenodd"><circle stroke="#FFF" stroke-width="2" stroke-linecap="round" stroke-linejoin="round" cx="10.625" cy="23.375" r="2.125"/><path d="M5.313 16.118L17.57 6.292a2.905 2.905 0 012.153-.606A11.352 11.352 0 0129.75 16.971v9.94a2.837 2.837 0 01-2.833 2.839H7.083a2.837 2.837 0 01-2.833-2.84v-8.574c0-.862.39-1.678 1.063-2.218z" stroke="#FFF" stroke-width="2" stroke-linecap="round" stroke-linejoin="round"/><path d="M24.083 29.75h-3.541a1.417 1.417 0 01-1.417-1.417v-.354a3.188 3.188 0 013.188-3.187h0a3.188 3.188 0 013.187 3.187v.354c0 .783-.634 1.417-1.417 1.417zM29.75 17H4.587m12.767 0h2.834c.782 0 1.416.634 1.416 1.417h0a2.833 2.833 0 01-2.833 2.833h0a2.833 2.833 0 01-2.834-2.833h0c0-.783.635-1.417 1.417-1.417z" stroke="#FFF" stroke-width="2" stroke-linecap="round" stroke-linejoin="round"/><path d="M34 34H0V0h34z"/></g></svg>