<svg width="158" height="83" xmlns="http://www.w3.org/2000/svg"><g fill="none" fill-rule="evenodd"><path d="M.565 46.209c0 19.185 18.958 34.229 41.674 34.229 8.14 0 15.78-1.937 22.185-5.255 2.568-1.538 5.82-2.477 9.326-2.477a18.15 18.15 0 019.537 2.729c7.71 4.473 17.117 7.101 27.224 7.101 25.857 0 47.362-17.258 47.362-39.131v-29.66c-8.897 4.216-20.037 6.727-32.131 6.727-14.46 0-27.572-3.59-37.08-9.4C83.772 8.086 79.828 4.51 77.14.536c-9.109 18.368-28.061 30.991-49.96 30.991-8.765 0-17.061-2.022-24.43-5.618-1.2-.59-2.184.03-2.184 1.362v18.938z" fill="#3E1313" fill-rule="nonzero"/><path d="M94.7 44.512c-1.326 0-2.516-.157-3.57-.47a9.113 9.113 0 01-2.809-1.364 10.862 10.862 0 01-2.193-2.148l2.949-3.329c.944 1.267 1.896 2.122 2.856 2.565.96.443 1.955.665 2.982.665.516 0 .982-.068 1.397-.204.415-.135.74-.332.973-.59.233-.257.35-.572.35-.944 0-.288-.071-.546-.213-.774a2.077 2.077 0 00-.594-.607 4.63 4.63 0 00-.889-.472 8.978 8.978 0 00-1.078-.36 19.04 19.04 0 00-1.18-.275c-1.094-.242-2.049-.546-2.865-.91-.816-.365-1.497-.81-2.044-1.334a5.004 5.004 0 01-1.216-1.798c-.264-.673-.396-1.43-.396-2.27 0-.898.203-1.722.61-2.473a6.173 6.173 0 011.653-1.94 7.708 7.708 0 012.406-1.253 9.307 9.307 0 012.869-.439c1.301 0 2.424.136 3.368.408.944.272 1.754.667 2.432 1.185a7.49 7.49 0 011.722 1.854l-2.99 2.895a6.605 6.605 0 00-1.302-1.24 5.293 5.293 0 00-3.086-.988c-.568 0-1.057.068-1.467.203-.41.136-.731.332-.963.588a1.363 1.363 0 00-.348.95c0 .313.095.586.285.821.19.235.449.44.774.615s.697.324 1.115.447c.418.124.85.229 1.298.316 1.047.206 1.997.48 2.848.821.852.342 1.587.758 2.208 1.25a4.99 4.99 0 011.422 1.764c.328.683.492 1.465.492 2.347 0 1.385-.336 2.56-1.008 3.526-.673.966-1.595 1.7-2.767 2.205-1.173.505-2.517.757-4.032.757zm16.561-.017c-1.26 0-2.39-.34-3.392-1.02-1.002-.68-1.797-1.612-2.384-2.798s-.881-2.537-.881-4.055c0-1.537.293-2.896.879-4.078.586-1.181 1.39-2.108 2.414-2.78 1.024-.671 2.193-1.007 3.506-1.007.726 0 1.39.103 1.995.31a5.16 5.16 0 011.592.866c.458.37.847.798 1.167 1.282.32.484.56 1.003.724 1.558l-.952-.114v-3.588h4.528v15.155h-4.61V40.56l1.03-.02a5.115 5.115 0 01-.749 1.524c-.34.48-.758.899-1.252 1.258a6.343 6.343 0 01-1.651.856 5.918 5.918 0 01-1.964.318zm1.28-3.86c.697 0 1.304-.164 1.82-.493.516-.328.915-.793 1.196-1.395.28-.602.421-1.31.421-2.125 0-.807-.14-1.512-.421-2.115-.281-.603-.68-1.069-1.196-1.397-.516-.329-1.123-.493-1.82-.493-.69 0-1.289.164-1.795.493-.507.328-.9.794-1.181 1.397s-.422 1.308-.422 2.115c0 .815.14 1.523.422 2.125.28.602.674 1.067 1.18 1.395.507.329 1.105.493 1.795.493zm13.869 10.159l3.469-8.127.045 2.341-7.301-15.937h5.164l3.208 7.612c.171.387.332.8.482 1.24.15.44.266.86.35 1.263l-.643.368c.108-.29.237-.65.385-1.076.148-.427.305-.895.471-1.404l2.814-8.003h5.189l-6.447 15.155-2.623 6.568h-4.564zM33.692 63.549c-1.51 0-2.897-.253-4.162-.759a9.722 9.722 0 01-3.29-2.143 9.573 9.573 0 01-2.148-3.287c-.505-1.267-.757-2.658-.757-4.173 0-1.482.263-2.851.79-4.106a9.847 9.847 0 012.213-3.274 10.119 10.119 0 013.35-2.162c1.284-.514 2.688-.771 4.212-.771.949 0 1.88.125 2.792.377a9.885 9.885 0 012.546 1.097 8.687 8.687 0 012.055 1.735l-2.99 3.388a7.484 7.484 0 00-1.261-1.098 5.776 5.776 0 00-1.468-.728 5.405 5.405 0 00-1.707-.261c-.769 0-1.492.138-2.17.413a5.217 5.217 0 00-1.769 1.176 5.493 5.493 0 00-1.184 1.84c-.288.718-.432 1.526-.432 2.423 0 .878.142 1.674.426 2.39a5.207 5.207 0 001.209 1.836 5.324 5.324 0 001.88 1.171c.733.273 1.548.41 2.445.41.595 0 1.17-.086 1.725-.257a6.41 6.41 0 002.776-1.72l2.345 3.725c-.47.525-1.1.997-1.891 1.416-.79.419-1.666.747-2.628.985a12.05 12.05 0 01-2.907.357zm10.242-.286v-21.13h4.499v9.059l-.924.343a4.45 4.45 0 011.122-1.892 6.186 6.186 0 011.962-1.346 5.865 5.865 0 012.39-.503c1.143 0 2.106.232 2.89.695.783.464 1.373 1.156 1.77 2.075.397.92.596 2.052.596 3.398v9.301h-4.581v-8.937c0-.606-.087-1.11-.26-1.513a1.811 1.811 0 00-.795-.9c-.356-.197-.788-.287-1.295-.271-.407 0-.78.063-1.12.19-.34.125-.633.307-.881.543a2.63 2.63 0 00-.582.808c-.14.303-.21.636-.21 1v9.08h-4.581zm25.364.286c-1.673 0-3.13-.337-4.368-1.01-1.24-.673-2.2-1.594-2.88-2.764-.682-1.17-1.022-2.513-1.022-4.03 0-1.16.19-2.224.57-3.195a7.618 7.618 0 011.602-2.527 7.138 7.138 0 012.443-1.656c.943-.39 1.971-.586 3.087-.586 1.058 0 2.03.191 2.917.574a6.846 6.846 0 012.3 1.601 7.049 7.049 0 011.485 2.43c.344.935.5 1.953.47 3.054l-.028 1.224H63.788l-.657-2.555h9.021l-.494.535v-.587a2.376 2.376 0 00-.423-1.267 2.66 2.66 0 00-1.018-.867 3.154 3.154 0 00-1.422-.314c-.755 0-1.391.149-1.91.446a2.877 2.877 0 00-1.181 1.287c-.269.56-.403 1.246-.403 2.055 0 .84.178 1.57.534 2.194.355.624.87 1.107 1.544 1.449.674.342 1.48.513 2.418.513.644 0 1.22-.093 1.726-.28.506-.188 1.049-.513 1.627-.974l2.157 3.035a8.764 8.764 0 01-1.9 1.249 9.93 9.93 0 01-2.035.724c-.69.161-1.38.242-2.074.242zm16.734 0c-1.673 0-3.13-.337-4.369-1.01-1.239-.673-2.199-1.594-2.88-2.764-.681-1.17-1.022-2.513-1.022-4.03 0-1.16.19-2.224.571-3.195a7.631 7.631 0 011.601-2.527 7.138 7.138 0 012.444-1.656c.942-.39 1.971-.586 3.086-.586 1.059 0 2.031.191 2.918.574a6.846 6.846 0 012.299 1.601 7.049 7.049 0 011.485 2.43c.345.935.502 1.953.472 3.054l-.029 1.224H80.521l-.656-2.555h9.02l-.493.535v-.587a2.376 2.376 0 00-.423-1.267 2.66 2.66 0 00-1.018-.867 3.154 3.154 0 00-1.422-.314c-.755 0-1.392.149-1.91.446a2.877 2.877 0 00-1.181 1.287c-.27.56-.404 1.246-.404 2.055 0 .84.178 1.57.534 2.194a3.612 3.612 0 001.545 1.449c.674.342 1.48.513 2.418.513.644 0 1.219-.093 1.725-.28.507-.188 1.05-.513 1.628-.974l2.157 3.035a8.764 8.764 0 01-1.9 1.249 9.93 9.93 0 01-2.035.724c-.69.161-1.38.242-2.074.242zm14.636 0c-1.486 0-2.796-.238-3.93-.714-1.135-.476-2.041-1.115-2.719-1.917l2.786-2.386a5.528 5.528 0 002.002 1.295c.741.273 1.447.41 2.118.41.255 0 .487-.027.695-.08.207-.053.382-.135.524-.246.143-.111.252-.24.328-.384.076-.145.114-.312.114-.499 0-.374-.165-.665-.493-.871-.18-.1-.469-.218-.867-.353a21.372 21.372 0 00-1.552-.442c-.897-.231-1.673-.505-2.328-.823-.655-.318-1.19-.684-1.603-1.097a4.224 4.224 0 01-.882-1.324 4.197 4.197 0 01-.307-1.635c0-.716.163-1.36.488-1.933a4.665 4.665 0 011.34-1.477 6.46 6.46 0 011.942-.949 7.798 7.798 0 012.271-.33c.836 0 1.634.092 2.394.277.76.185 1.471.45 2.132.795a8.016 8.016 0 011.756 1.228l-2.406 2.676a7.547 7.547 0 00-2.476-1.477 3.854 3.854 0 00-1.257-.236c-.29 0-.546.024-.766.073a1.54 1.54 0 00-.551.228c-.148.103-.26.228-.336.375a1.07 1.07 0 00-.114.5 1.163 1.163 0 00.612.978c.188.109.488.238.901.387.414.15.988.322 1.722.518.898.248 1.667.527 2.307.839.64.311 1.153.674 1.536 1.087.316.329.55.704.702 1.125.152.421.228.884.228 1.387 0 .965-.275 1.824-.826 2.577-.551.752-1.302 1.343-2.252 1.773-.95.43-2.027.645-3.233.645zm16.235 0c-1.674 0-3.13-.337-4.369-1.01-1.239-.673-2.199-1.594-2.88-2.764-.681-1.17-1.022-2.513-1.022-4.03 0-1.16.19-2.224.571-3.195a7.631 7.631 0 011.601-2.527 7.138 7.138 0 012.444-1.656c.942-.39 1.971-.586 3.086-.586 1.058 0 2.031.191 2.918.574a6.846 6.846 0 012.299 1.601 7.049 7.049 0 011.485 2.43c.344.935.501 1.953.471 3.054l-.028 1.224h-12.087l-.657-2.555h9.022l-.494.535v-.587a2.376 2.376 0 00-.423-1.267 2.66 2.66 0 00-1.018-.867 3.154 3.154 0 00-1.422-.314c-.755 0-1.392.149-1.91.446a2.877 2.877 0 00-1.181 1.287c-.27.56-.404 1.246-.404 2.055 0 .84.178 1.57.534 2.194.356.624.87 1.107 1.545 1.449.674.342 1.48.513 2.417.513.644 0 1.22-.093 1.726-.28.507-.188 1.05-.513 1.628-.974l2.157 3.035a8.764 8.764 0 01-1.9 1.249 9.93 9.93 0 01-2.036.724 9.083 9.083 0 01-2.073.242z" fill="#EA9C00" fill-rule="nonzero"/><path d="M10.398 46.117a2.645 2.645 0 100-5.29 2.645 2.645 0 000 5.29zm31.742 30.42a2.645 2.645 0 100-5.29 2.645 2.645 0 000 5.29zM147.947 27.6a2.645 2.645 0 100-5.29 2.645 2.645 0 000 5.29zm-38.355 48.936a3.968 3.968 0 100-7.936 3.968 3.968 0 000 7.936zm29.097-7.936a5.29 5.29 0 100-10.58 5.29 5.29 0 000 10.58zm-66.13-41a2.645 2.645 0 100-5.29 2.645 2.645 0 000 5.29zm-10.58 10.58a3.968 3.968 0 100-7.935 3.968 3.968 0 000 7.936zm-46.29 25.13a3.968 3.968 0 100-7.936 3.968 3.968 0 000 7.936zm58.854-25.13a1.984 1.984 0 100-3.967 1.984 1.984 0 000 3.968z" fill="#EA9C00"/></g></svg>