<svg width="158" height="82" xmlns="http://www.w3.org/2000/svg"><g fill="none" fill-rule="evenodd"><path d="M0 45.673c0 19.185 18.958 34.229 41.673 34.229 8.14 0 15.78-1.937 22.186-5.255 2.567-1.538 5.82-2.477 9.325-2.477a18.15 18.15 0 019.537 2.729C90.432 79.372 99.838 82 109.945 82c25.858 0 47.362-17.258 47.362-39.131v-29.66c-8.896 4.216-20.037 6.727-32.13 6.727-14.46 0-27.573-3.59-37.08-9.4C83.205 7.55 79.261 3.974 76.573 0c-9.108 18.368-28.061 30.991-49.96 30.991-8.765 0-17.06-2.022-24.43-5.618-1.2-.59-2.183.03-2.183 1.362v18.938z" fill="#EA9C00" fill-rule="nonzero"/><path d="M94.134 43.976c-1.326 0-2.516-.157-3.57-.47a9.113 9.113 0 01-2.808-1.364 10.862 10.862 0 01-2.194-2.148l2.95-3.329c.943 1.267 1.895 2.122 2.856 2.565.96.443 1.954.665 2.982.665.515 0 .981-.068 1.396-.204.415-.135.74-.332.973-.59.233-.257.35-.572.35-.944 0-.288-.07-.546-.212-.774a2.077 2.077 0 00-.594-.607 4.63 4.63 0 00-.89-.472 8.978 8.978 0 00-1.077-.36 19.04 19.04 0 00-1.18-.275c-1.094-.242-2.05-.546-2.865-.91-.816-.365-1.498-.81-2.045-1.334a5.004 5.004 0 01-1.216-1.798c-.264-.673-.395-1.43-.395-2.27 0-.898.203-1.722.61-2.473a6.173 6.173 0 011.653-1.94 7.708 7.708 0 012.406-1.253 9.307 9.307 0 012.868-.439c1.301 0 2.424.136 3.368.408.944.272 1.755.667 2.432 1.185a7.49 7.49 0 011.722 1.854l-2.99 2.895a6.605 6.605 0 00-1.301-1.24 5.293 5.293 0 00-3.087-.988c-.567 0-1.056.068-1.466.203-.41.136-.731.332-.964.588a1.363 1.363 0 00-.348.95c0 .313.095.586.286.821.19.235.448.44.773.615s.697.324 1.115.447c.419.124.851.229 1.299.316a15.95 15.95 0 012.848.821c.851.342 1.587.758 2.207 1.25a4.99 4.99 0 011.422 1.764c.328.683.492 1.465.492 2.347 0 1.385-.336 2.56-1.008 3.526-.672.966-1.594 1.7-2.767 2.205-1.173.505-2.516.757-4.031.757zm16.561-.016c-1.259 0-2.39-.34-3.391-1.02-1.003-.68-1.797-1.613-2.385-2.799-.587-1.186-.88-2.537-.88-4.055 0-1.537.292-2.896.878-4.078.586-1.181 1.391-2.108 2.415-2.78 1.024-.671 2.192-1.007 3.506-1.007.726 0 1.39.103 1.994.31a5.16 5.16 0 011.593.866c.458.37.847.798 1.166 1.282.32.484.561 1.003.725 1.558l-.952-.114v-3.588h4.527V43.69h-4.61v-3.667l1.03-.02a5.115 5.115 0 01-.748 1.524c-.341.48-.759.899-1.252 1.258a6.343 6.343 0 01-1.652.856 5.918 5.918 0 01-1.964.318zm1.28-3.861c.698 0 1.305-.164 1.82-.493.517-.328.915-.793 1.196-1.395.281-.602.421-1.31.421-2.125 0-.807-.14-1.512-.42-2.115-.282-.603-.68-1.069-1.196-1.397-.516-.329-1.123-.493-1.821-.493-.69 0-1.288.164-1.795.493-.506.328-.9.794-1.18 1.397-.282.603-.422 1.308-.422 2.115 0 .815.14 1.523.421 2.125.281.602.675 1.067 1.181 1.395.507.329 1.105.493 1.795.493zm13.869 10.159l3.47-8.127.044 2.341-7.3-15.937h5.164l3.207 7.612c.172.387.333.8.482 1.24.15.44.267.86.351 1.263l-.644.368a72.888 72.888 0 00.857-2.48l2.813-8.003h5.189l-6.446 15.155-2.624 6.568h-4.563zM33.127 63.013c-1.51 0-2.898-.253-4.163-.759a9.722 9.722 0 01-3.29-2.143 9.573 9.573 0 01-2.148-3.287c-.504-1.267-.757-2.658-.757-4.173 0-1.482.263-2.851.79-4.106a9.847 9.847 0 012.213-3.274 10.119 10.119 0 013.35-2.162c1.285-.514 2.689-.771 4.212-.771.95 0 1.88.125 2.792.377a9.885 9.885 0 012.546 1.097 8.687 8.687 0 012.055 1.735l-2.99 3.388a7.484 7.484 0 00-1.26-1.098 5.776 5.776 0 00-1.468-.728 5.405 5.405 0 00-1.708-.261 5.72 5.72 0 00-2.17.413 5.217 5.217 0 00-1.768 1.176 5.493 5.493 0 00-1.184 1.84c-.288.718-.433 1.526-.433 2.423 0 .878.143 1.674.427 2.39a5.207 5.207 0 001.208 1.836 5.324 5.324 0 001.881 1.171c.733.273 1.547.41 2.444.41a5.82 5.82 0 001.725-.257 6.41 6.41 0 002.776-1.72l2.346 3.725c-.47.525-1.101.997-1.892 1.416-.79.419-1.666.747-2.627.985-.962.238-1.93.357-2.907.357zm10.242-.286v-21.13h4.498v9.059l-.924.343a4.47 4.47 0 011.122-1.892 6.186 6.186 0 011.962-1.346 5.865 5.865 0 012.391-.503c1.143 0 2.105.232 2.889.695.783.464 1.373 1.156 1.77 2.075.397.92.596 2.052.596 3.398v9.301h-4.58V53.79c0-.605-.087-1.109-.261-1.512a1.811 1.811 0 00-.795-.9c-.355-.197-.787-.287-1.295-.271-.407 0-.78.063-1.12.19a2.523 2.523 0 00-.88.543 2.63 2.63 0 00-.583.808c-.14.303-.21.636-.21 1v9.08h-4.58zm25.364.286c-1.674 0-3.13-.337-4.369-1.01-1.239-.673-2.199-1.594-2.88-2.764-.681-1.17-1.022-2.513-1.022-4.03 0-1.16.19-2.224.571-3.195.38-.97.915-1.813 1.601-2.527a7.138 7.138 0 012.444-1.656c.942-.39 1.97-.586 3.086-.586 1.058 0 2.031.191 2.918.574a6.846 6.846 0 012.299 1.601 7.049 7.049 0 011.485 2.43c.344.935.501 1.953.471 3.054l-.028 1.224H63.222l-.657-2.555h9.022l-.494.535v-.587a2.376 2.376 0 00-.423-1.267 2.66 2.66 0 00-1.018-.867 3.154 3.154 0 00-1.422-.314c-.755 0-1.392.149-1.91.446a2.877 2.877 0 00-1.181 1.287c-.27.56-.404 1.246-.404 2.055 0 .84.178 1.57.534 2.194.356.624.87 1.106 1.545 1.449.674.342 1.48.513 2.417.513.644 0 1.22-.093 1.726-.28.507-.188 1.05-.513 1.628-.974l2.157 3.035a8.764 8.764 0 01-1.9 1.249 9.93 9.93 0 01-2.036.723 9.03 9.03 0 01-2.073.243zm16.733 0c-1.673 0-3.13-.337-4.368-1.01-1.24-.673-2.2-1.594-2.88-2.764-.682-1.17-1.022-2.513-1.022-4.03 0-1.16.19-2.224.57-3.195a7.634 7.634 0 011.602-2.527 7.138 7.138 0 012.444-1.656c.942-.39 1.97-.586 3.086-.586 1.058 0 2.03.191 2.917.574a6.846 6.846 0 012.3 1.601 7.049 7.049 0 011.485 2.43c.344.935.501 1.953.471 3.054l-.029 1.224H79.956l-.657-2.555h9.021l-.493.535v-.587a2.376 2.376 0 00-.423-1.267 2.66 2.66 0 00-1.019-.867 3.154 3.154 0 00-1.422-.314c-.755 0-1.391.149-1.91.446a2.877 2.877 0 00-1.18 1.287c-.27.56-.404 1.246-.404 2.055 0 .84.178 1.57.534 2.194.356.624.87 1.106 1.544 1.449.674.342 1.48.513 2.418.513.644 0 1.22-.093 1.726-.28.506-.188 1.049-.513 1.628-.974l2.156 3.035a8.764 8.764 0 01-1.9 1.249 9.93 9.93 0 01-2.035.723c-.69.162-1.38.243-2.074.243zm14.636 0c-1.485 0-2.796-.238-3.93-.714-1.135-.476-2.04-1.115-2.718-1.917l2.786-2.386a5.528 5.528 0 002.001 1.295c.742.273 1.448.41 2.118.41.256 0 .487-.027.695-.08.208-.053.383-.135.525-.246.142-.111.251-.24.327-.384.076-.146.114-.312.114-.499 0-.375-.164-.665-.493-.871-.18-.1-.468-.218-.866-.353a21.372 21.372 0 00-1.553-.442c-.896-.231-1.672-.505-2.327-.823-.655-.318-1.19-.684-1.603-1.097a4.224 4.224 0 01-.883-1.324 4.197 4.197 0 01-.306-1.635c0-.716.162-1.36.488-1.933a4.665 4.665 0 011.339-1.477 6.46 6.46 0 011.943-.949 7.798 7.798 0 012.27-.33c.836 0 1.634.092 2.395.277.76.185 1.47.45 2.132.795a8.016 8.016 0 011.755 1.228l-2.406 2.676a7.547 7.547 0 00-2.476-1.477 3.854 3.854 0 00-1.257-.236c-.29 0-.545.024-.765.073a1.54 1.54 0 00-.552.228c-.148.103-.26.228-.335.375a1.07 1.07 0 00-.114.5 1.163 1.163 0 00.612.978c.187.109.487.238.9.387.414.15.988.322 1.723.518.897.248 1.666.527 2.307.839.64.311 1.152.674 1.536 1.087.315.329.549.704.701 1.125.152.421.229.884.229 1.387 0 .965-.276 1.824-.827 2.577-.551.752-1.301 1.343-2.251 1.773-.95.43-2.028.645-3.234.645zm16.235 0c-1.673 0-3.13-.337-4.368-1.01-1.24-.673-2.2-1.594-2.88-2.764-.682-1.17-1.022-2.513-1.022-4.03 0-1.16.19-2.224.57-3.195a7.618 7.618 0 011.602-2.527 7.138 7.138 0 012.443-1.656c.943-.39 1.971-.586 3.087-.586 1.058 0 2.03.191 2.917.574a6.846 6.846 0 012.3 1.601 7.049 7.049 0 011.485 2.43c.344.935.501 1.953.47 3.054l-.028 1.224h-12.086l-.657-2.555h9.021l-.494.535v-.587a2.376 2.376 0 00-.423-1.267 2.66 2.66 0 00-1.018-.867 3.154 3.154 0 00-1.422-.314c-.755 0-1.391.149-1.91.446a2.877 2.877 0 00-1.18 1.287c-.27.56-.404 1.246-.404 2.055 0 .84.178 1.57.534 2.194a3.61 3.61 0 001.544 1.449c.674.342 1.48.513 2.418.513.644 0 1.22-.093 1.726-.28.506-.188 1.049-.513 1.627-.974l2.157 3.035a8.764 8.764 0 01-1.9 1.249 9.93 9.93 0 01-2.035.723c-.69.162-1.38.243-2.074.243z" fill="#FFF" fill-rule="nonzero"/><circle fill="#FFF" cx="9.833" cy="42.936" r="2.645"/><circle fill="#FFF" cx="41.575" cy="73.356" r="2.645"/><circle fill="#FFF" cx="147.381" cy="24.42" r="2.645"/><circle fill="#FFF" cx="109.026" cy="72.033" r="3.968"/><circle fill="#FFF" cx="138.123" cy="62.775" r="5.29"/><circle fill="#FFF" cx="71.994" cy="24.42" r="2.645"/><circle fill="#FFF" cx="61.413" cy="33.678" r="3.968"/><circle fill="#FFF" cx="15.123" cy="58.807" r="3.968"/><circle fill="#FFF" cx="73.978" cy="35.662" r="1.984"/></g></svg>