<svg width="34" height="34" xmlns="http://www.w3.org/2000/svg"><g fill="none" fill-rule="evenodd"><path d="M0 0h34v34H0z"/><path stroke="#FFF" stroke-width="2" stroke-linecap="round" stroke-linejoin="round" d="M14.167 12.042v1.416m5.666-1.416v1.416M13.58 26.917l2.418 2.418c.554.553 1.45.553 2.004 0l2.418-2.418h5.08a4.25 4.25 0 004.25-4.25V8.5a4.25 4.25 0 00-4.25-4.25h-17A4.25 4.25 0 004.25 8.5v14.167a4.25 4.25 0 004.25 4.25h5.08zM17 20.542a7.423 7.423 0 01-4.958-1.859m9.916 0A7.423 7.423 0 0117 20.542"/></g></svg>