<svg width="408" height="682" xmlns="http://www.w3.org/2000/svg"><path d="M-243.627 427c.404.709.86 1.395 1.206 2.13 17.364 36.858 43.414 66.411 76.515 90.094 24.58 17.585 51.183 31.49 78.872 43.514 24.705 10.729 49.499 21.284 73.895 32.671 26.901 12.556 51.346 28.943 72.622 49.716 10.212 9.97 18.627 21.324 25.223 33.976.383.735.68 1.515 1.294 2.899-.893-.42-1.28-.53-1.58-.752-18.488-13.648-38.843-23.908-60.37-31.725-21.203-7.699-42.674-14.678-64.085-21.802-22.927-7.629-45.73-15.54-67.561-25.981-27.953-13.37-53.269-30.437-74.913-52.646-2.695-2.766-5.266-5.703-7.535-8.82-24.538-33.706-42.407-70.604-53.431-110.752-.216-.785-.352-1.591-.525-2.387zM5.283.996c29.036-3.877 55.22 3.69 78.81 20.473 18.648 13.268 33.573 30.188 46.005 49.347.595.918 1.194 1.836 1.739 2.785 2.008 3.497 5.01 5.578 8.964 6.22a3417.29 3417.29 0 0023.015 3.643c28.623 4.447 56.78 10.686 83.66 21.818 1.6.663 3.165 1.416 4.722 2.185l1.867.925c6.828 3.373 12.234 8.27 16.096 14.887 1.775 3.042 3.734 5.981 5.697 8.91 1.951 2.91 4.611 4.783 7.983 6 27.528 9.928 55.018 19.963 82.505 30.003 8.001 2.923 15.78 6.354 23.062 10.816 2.173 1.332 4.27 2.798 6.324 4.31 10.018 7.372 13.63 17.383 11.82 29.473-1.314 8.772-2.785 17.521-4.294 26.262-1.235 7.151-.93 14.284-.12 21.435 1.262 11.121 2.487 22.244 1.869 33.471-.263 4.771-1.037 9.45-2.987 13.827-2.223 4.989-5.191 9.219-10.703 11.315-2.14.813-4.175 2.634-5.575 4.507-2.828 3.78-5.354 7.814-7.699 11.919-2.89 5.061-5.332 10.38-8.226 15.44-2.42 4.23-5.525 7.962-10.03 11.204-1.28-7.538-1.345-14.847-2.405-22.006l-.852-.176c-.582 1.118-1.22 2.211-1.736 3.359-2.248 4.986-4.386 10.024-6.708 14.975-2.336 4.985-5.263 9.6-9.321 13.398-.464.434-.958.837-1.46 1.23l-1.007.784-.5.396-.701-.378 2.914-50.398c-1.645-.904-3.18-.78-4.674-.582l-.497.067c-.248.034-.495.067-.74.095-13.58 1.533-26.202 6.144-38.361 12.13-17.365 8.549-33.297 19.173-46.53 33.445-3.534 3.81-6.518 8.157-9.53 12.416-3.303 4.672-3.614 9.965-2.377 15.39 1.29 5.65 3.978 10.687 7.104 15.504 4.456 6.864 9.746 13.062 15.437 18.91a230.287 230.287 0 0035.41 29.764c1.806 1.231 3.692 2.348 5.556 3.49.51.312 1.08.526 2.049.99 5.445-5.26 9.95-11.362 14.338-18.053 1.37 2.974 1.451 5.73 1.387 8.477-.065 2.777-.307 5.55-.473 8.346 1.201.408 1.756-.247 2.247-.892l.146-.191c.096-.127.193-.248.293-.356 4.813-5.158 9.569-10.37 14.356-15.551.62-.67 1.316-1.27 2.447-2.353.301 12.031-3.012 22.586-7.37 32.881 1.721 1.296 3.317 2.373 4.764 3.623 1.235 1.068 1.454 2.34.527 3.89-8.415 14.075-15.742 28.84-26.54 41.395-8.207 9.544-16.985 18.43-27.945 24.844-1.642.961-2.011 2.178-1.959 3.892.21 6.81.385 13.62.498 20.432.207 12.528.363 25.056.532 37.584.005.343-.087.686-.252 1.894-1-3.147-1.77-5.526-2.515-7.912-4.53-14.503-9.266-28.923-14.928-43.044-12.742-31.776-34.036-56.076-63.377-73.469-2.158-1.279-4.34-2.517-6.511-3.774l-.682.541c.153.322.297.65.44.98l.423.99c.358.823.737 1.631 1.23 2.362 3.671 5.44 7.373 10.865 11.215 16.186 8.54 11.832 17.628 23.296 25.667 35.456 14.95 22.615 24.157 47.618 28.481 74.357 1.146 7.086 1.09 14.31-.42 21.423-.096.45-.27.881-.613 1.976-.606-1.31-1.072-2.07-1.323-2.895-3.22-10.58-6.445-21.16-9.599-31.76-7.57-25.44-19.82-48.544-34.862-70.275-13.45-19.433-28.553-37.558-43.79-55.579-8.403-9.937-16.85-19.837-25.234-29.79-10.028-11.905-16.57-25.68-21.457-40.329-4.82-14.446-7.887-29.327-10.922-44.216-4.953-24.297-9.997-48.572-18.149-72.061-3.915-11.282-8.432-22.306-14.984-32.352-10.003-15.338-23.532-25.749-41.82-29.224-13.119-2.492-26.135-1.669-38.979 1.8-19.024 5.138-35.902 14.15-49.762 28.348-14.137 14.481-22.202 32.043-25.596 51.842-3.94 22.988-1.561 45.599 4.752 67.847 10.953 38.603 31.008 71.616 60.822 98.656 16.869 15.298 34.721 29.371 52.624 43.398l2.011 1.575 4.02 3.152c13.395 10.513 26.71 21.125 39.294 32.619 18.038 16.475 32.34 35.607 41.14 58.575 7.293 19.036 10.052 38.736 8.438 59.761-.64-.956-1.026-1.344-1.193-1.81-11.018-30.71-29.99-55.926-53.46-78.144-19.885-18.823-42.408-33.774-66.866-45.778-20.718-10.168-41.768-19.663-62.692-29.408-19.068-8.88-37.936-18.135-55.833-29.248-39.643-24.617-70.31-57.709-92.567-98.62-8.775-16.13-14.803-33.306-17.577-51.53-5.473-35.951 2.59-68.6 24.136-97.86 14.968-20.327 34.115-35.92 55.973-48.212 8.457-4.755 17.373-8.694 26.083-12.999 1.138-.562 2.296-1.087 3.3-2.255-1.023-.065-2.047-.206-3.068-.184-19.288.42-38.27 2.887-56.713 8.744-29.796 9.462-54.32 26.254-72.11 52.292-2.457 3.598-4.655 7.374-7.301 10.955.214-1.007.386-2.025.648-3.019 10.454-39.648 29.76-74.084 60.281-101.803 18.543-16.84 39.637-29.338 63.957-35.868 24.008-6.446 47.822-6.276 71.133 3.205 18.285 7.437 32.887 19.62 44.543 35.406 2.951 3.997 5.536 8.282 8.085 12.557 4.396 7.374 9.899 13.845 15.919 19.89 8.705 8.742 18.2 16.505 29.048 22.47 6.637 3.648 13.542 6.576 21.268 7.036 8.688.519 15.368-2.795 19.922-10.247 2.308-3.775 3.635-7.924 4.632-12.216 1.847-7.95 3.509-15.937 3.352-24.135-.062-3.245-.64-6.532-1.392-9.702-1.012-4.265-3.466-7.778-6.948-10.434-2.214-1.689-4.621-3.134-6.998-4.596-1.758-1.081-3.59-2.045-5.418-3.008-11.932-6.29-19.56-16.113-23.66-28.833-1.379-4.278-2.561-8.63-4.152-12.827-8.17-21.546-23.214-36.742-43.644-46.876-12.398-6.15-25.555-9.88-39.162-12.149-16.486-2.748-33.077-3.426-50.002-2.51.262-.4.362-.732.582-.862 13.63-8.074 27.712-15.172 43.054-19.43 21.714-6.026 42.819-4.257 63.218 5.317C35.79 30.126 48.99 38.916 60.55 50.116c8.32 8.06 16.135 16.49 22.28 26.423 2.272 3.67 5.524 6.74 8.407 10.015.6.681 1.548 1.057 2.985 1.277-.314-1.323-.563-2.665-.95-3.966-5.722-19.182-16.599-35.077-31.329-48.369C45.362 20.533 26.223 10.421 4.18 6.155.25 5.395-3.728 4.877-8.364 4.139-3.538 2.471.851 1.59 5.282.996zM46.767 252c1.284.773 2.081 1.132 2.736 1.666 9.32 7.61 14.771 17.6 17.582 29.161 2.17 8.925 2.997 18.02 3 27.185.004 17.065-.259 34.134-.07 51.198.239 21.57 3.143 42.753 10.535 63.136 10.537 29.051 28.31 52.881 52.301 72.025 17.04 13.597 33.282 27.996 48.113 44.034 16.15 17.463 25.893 38.084 31.019 61.113 2.285 10.27 3.367 20.68 2.915 31.214-.383 8.944-1.882 17.675-5.271 26.01-.481 1.182-1.059 2.325-1.945 4.258-1.045-4.06-1.806-7.205-2.666-10.324-3.797-13.765-10.495-25.861-20.368-36.212-14.04-14.72-26.378-30.891-39.221-46.636-12.765-15.648-25.598-31.247-38.74-46.573-3.214-3.746-6.817-7.156-10.456-10.533l-1.986-1.84a303.505 303.505 0 01-3.942-3.707c-1.013-.973-2.246-1.716-3.727-2.315 7.085 13.211 13.605 26.548 17.104 41.843-1.012-.866-1.591-1.255-2.04-1.76-16.2-18.253-30.867-37.61-42.254-59.323-8.889-16.95-15.226-34.766-17.925-53.788-1.824-12.852-1.849-25.738-.587-38.654 1.36-13.945 4.217-27.614 7.095-41.279l.785-3.727c.521-2.485 1.04-4.97 1.545-7.459 2.816-13.865 5.139-27.799 5.234-41.997.1-14.887-2.355-29.343-7.653-43.28-.338-.89-.59-1.81-1.113-3.436zm104.73-150.982c-3.612-.311-7.203-.544-11.077-.15.248 2.25.607 4.158.642 6.072.092 5.09.356 10.206-.011 15.271-.78 10.764-3.849 21.05-7.86 30.985-4.869 12.054-10.174 23.932-15.34 35.864-5.9 13.626-11.469 27.354-13.884 42.129-1.395 8.531-2.428 17.095-2.194 25.759.22 8.176 1.732 16.182 3.387 24.16.143.69.613 1.31.932 1.963l.774.087c8.386-25.62 19.694-49.485 39.968-67.96l.566.436c-.39.865-.813 1.715-1.163 2.595-3.045 7.676-6.472 15.228-9.044 23.06-9.54 29.041-13.343 58.927-12.622 89.456.44 18.682 2.772 37.081 7.557 55.144 4.926 18.597 12.35 36.072 23.464 51.89 9.082 12.922 20.716 23.15 33.48 32.221 11.097 7.886 22.391 15.511 33.263 23.698 17.74 13.358 31.195 30.208 39.731 50.84.288.697.73 1.33 1.421 2.572.202-1.197.37-1.656.339-2.1-.225-3.273-.382-6.556-.76-9.811-2.27-19.514-10.14-36.361-23.984-50.383-7.379-7.474-15.676-13.82-24.06-20.081a924.21 924.21 0 00-2.234-1.664l-6.71-4.98c-5.217-3.88-10.408-7.792-15.455-11.88-31.172-25.244-46.145-58.384-47.377-98.154-.522-16.869 1.26-33.51 4.626-50.005 1.012-4.962 2.261-9.877 3.402-14.813l.714.05c-3.225 31.063-1.368 61.55 10.126 91.101 3.026-8.75 6.556-17.225 11.399-25.056 4.886-7.9 9.987-15.668 14.994-23.493.605.856.681 1.446.593 2.01-.88 5.639-1.58 11.316-2.723 16.902-3.813 18.635-6.048 37.417-6.195 56.46-.065 8.398 2.24 15.956 7.508 22.334 4.083 4.944 8.623 9.588 13.424 13.84 4.027 3.568 8.272 6.892 12.54 10.186l2.845 2.194a746.02 746.02 0 012.84 2.2c9.89 7.703 19.605 15.59 28.226 24.746 14.285 15.17 23.82 32.743 27.18 53.464.46 2.836.842 5.685 1.325 8.974 1.738-.78 3.109-1.24 4.32-1.968 4.125-2.478 7.38-5.928 10.345-9.658 6.708-8.436 11.839-17.798 16.015-27.7 1.038-2.46 1.865-5.008 2.805-7.51.759-2.02.532-3.753-1.25-5.19-2.27-1.828-4.32-3.976-6.746-5.554-7.432-4.837-14.886-9.657-22.536-14.135-15.73-9.208-31.651-18.088-47.378-27.3-9.13-5.348-18.005-11.161-25.899-18.252-3.588-3.224-6.77-6.957-9.795-10.731-2.343-2.922-3.113-6.541-2.816-10.328.528-6.711 1.905-13.216 4.523-19.445 4.497-10.7 11.233-19.86 19.293-28.1 13.678-13.982 29.74-24.605 47.166-33.264 22.505-11.182 46.14-18.739 71.23-20.948 15.673-1.38 31.33 0 46.871 2.318 4.66.694 9.26 1.787 13.935 2.707.135-.343.376-.674.376-1.003-.025-5.958-.048-11.917-.156-17.874-.02-1.076-.351-2.16-.639-3.214-.785-2.875-2.575-4.779-5.652-4.794-3.142-.014-6.332.046-9.42.563-11.391 1.907-22.827 3.31-34.367 3.88-11.277.558-22.551 1.174-33.3 1.737 1.1-.322 2.755-.87 4.443-1.287 6.126-1.514 12.287-2.89 18.389-4.493 8.267-2.173 16.197-5.182 23.187-10.263 1.004-.73 1.888-1.624 2.826-2.442l-.352-.821h-28.907c1.289-2.453 2.986-3.665 4.779-4.586 2.364-1.214 4.882-2.134 7.354-3.132 3.598-1.452 7.32-2.64 10.793-4.343 4.183-2.052 7.453-5.266 10.288-9.338-6.696-5.97-12.516-12.309-17.427-19.45-6.429-9.347-11.909-19.576-12.196-23.231 3.839 2.036 7.474 3.959 11.104 5.892 6.324 3.37 12.55 6.943 19.006 10.033 3.127 1.497 6.635 2.353 10.063 3.03 4.012.792 7.636-.955 9.212-4.338 2.57-5.515 3.148-12.502-3.027-17.094-1.462-1.087-2.865-2.296-4.45-3.166-3.403-1.87-6.83-3.73-10.383-5.285-11.702-5.121-23.936-8.73-36.106-12.521-15.41-4.8-30.853-9.51-46.16-14.62-5.727-1.913-11.175-4.717-16.636-7.353-4.884-2.357-8.409-6.108-10.262-11.323-1.139-3.204-2.475-6.34-3.562-9.562-1.648-4.888-4.696-8.458-9.439-10.511-2.336-1.011-4.655-2.139-7.09-2.833-9.331-2.66-18.673-5.296-28.073-7.7-19.405-4.962-38.822-9.906-58.872-11.633zM12.83 252c1.198.369 2.357.642 3.451 1.075 10.803 4.283 16.612 12.485 18.804 23.46 1.733 8.673 1.363 17.397.346 26.102-2.205 18.851-7.28 37.125-11.674 55.534-3.211 13.459-6.359 26.922-8.136 40.667-1.362 10.538-1.345 21.06-.381 31.602 1.507 16.494 5.61 32.29 13.878 46.803 3.851 6.759 8.225 13.238 12.542 19.727 3.104 4.666 6.515 9.133 9.771 13.701.683.958 1.288 1.968 1.568 3.329-.663-.413-1.352-.79-1.985-1.243-27.531-19.68-51.54-42.863-71.57-69.988-15.429-20.89-25.009-44.177-29.183-69.642-3.783-23.08-3.007-45.938 3.737-68.463 3.584-11.97 8.88-23.125 16.485-33.158.856-1.129 1.786-2.203 2.681-3.303l.699.213c0 1.28-.052 2.56.008 3.837.437 9.206.551 18.443 1.442 27.607 1.004 10.32 5.004 19.684 11.24 28.493 1.51-.486 3.052-.82 4.45-1.459 5.782-2.639 10.012-6.966 13.298-12.246 4.45-7.147 6.814-15.03 8.21-23.219 2.058-12.062 2.19-24.144.131-36.228a10.947 10.947 0 01-.172-1.81c0-.341.168-.683.36-1.391zm-69.76-34.13h-.13c-12.179.295-24.24 1.552-36.016 4.81-35.967 9.95-59.25 32.634-68.455 69.046-5.407 21.392-4.558 42.942.05 64.356 7.77 36.12 24.385 67.76 49.147 95.084 18.65 20.58 40.675 36.426 66.75 46.352 2.243.853 4.513 1.63 6.789 2.394l3.414 1.144 1.704.58.409-.727c-.97-.836-1.925-1.688-2.91-2.504-12.564-10.413-24.408-21.58-35.262-33.777-18.17-20.414-33.197-42.827-43.101-68.443-11.037-28.543-14.96-57.887-8.365-88.015 8.53-38.958 30.057-68.534 65.18-87.883.912-.502 1.796-1.057 3.362-1.982-1.392-.232-2.046-.45-2.695-.434zM194 367c7.843-38.572 50.512-72.931 87-69.802-1.266.559-2.026.96-2.828 1.237-12.013 4.164-23.539 9.413-34.65 15.639-20.207 11.322-35.655 27.37-46.733 47.813-.925 1.707-1.86 3.409-2.789 5.113zm10.553-218c.734.123 1.482.19 2.199.378 4.77 1.256 9.027 3.555 13.018 6.42 2.893 2.077 4.685 4.784 5.586 8.28 2.061 8.007 2.4 16.154 2.326 24.35-.031 3.418-.086 6.841-.29 10.252-.109 1.803.486 2.928 2.02 3.89 4.537 2.846 9.035 5.761 13.454 8.788 2.884 1.974 5.645 4.146 8.134 7.307-3.971.884-7.343-.192-10.7-.823-7.795-1.468-15.337-3.9-22.532-7.186-10.285-4.696-20.47-9.627-30.571-14.71-7.399-3.722-13.461-9.166-18.372-15.87a47.533 47.533 0 01-1.651-2.41c-.118-.183-.083-.467-.174-1.08 2.61-.32 5.23-.57 7.827-.97 7.083-1.09 14.15-2.286 21.236-3.355 7.248-1.094 14.5-1.522 21.985.713 1.436-11.134-5.325-17.22-12.617-23.25l-.585-.483zM12.98 123.2c1.346-1.279 2.596-1.552 4.242-.741 2.29 1.127 4.722 1.984 6.94 3.232 15.06 8.48 28.668 18.859 40.557 31.455.752.797 1.402 1.692 2.163 2.479 6.568 6.79 6.088 14.501 2.631 22.378-3.043 6.935-9.477 9.54-16.654 7.104-4.99-1.693-9.047-4.734-12.079-9.035-3.02-4.284-5.875-8.683-8.82-13.019-.666-.98-1.406-1.907-2.112-2.859l-.802.266 3.028 16.516c-1.348-.475-2.253-.677-3.047-1.092-12.922-6.759-21.594-16.99-24.456-31.47-1.938-9.808 1.116-18.291 8.409-25.214zM-94.308 57.102c19.932-5.065 39.643-3.712 59.111 2.49 12.451 3.968 24.275 9.35 35.3 16.428 6.234 4.002 11.815 8.75 16.49 14.573 4.757 5.924 7.285 12.923 10.407 20.418-1.532-.82-2.467-1.293-3.378-1.81C1.268 96.51-22.64 88.36-47.96 84.247c-14.698-2.387-29.474-3.23-44.29-1.914-33.995 3.018-63.577 15.77-87.417 40.853l-.162.176c-.271.295-.562.583-1.172.638.5-.705.975-1.43 1.504-2.112 12.41-16.026 25.972-30.92 42.154-43.224 13.005-9.889 27.145-17.524 43.034-21.562z" fill-rule="evenodd"/></svg>