<svg width="124" height="110" xmlns="http://www.w3.org/2000/svg"><g fill="none" fill-rule="evenodd"><path stroke="#FFF" stroke-width="3" stroke-linecap="round" stroke-linejoin="round" d="M6.813 7.255v96.363h109.563M11.266 6.173L6.813 1.72h0L2.36 6.173M117.898 108.07l4.462-4.452h0l-4.462-4.453m-5.13-72.338l7.726 7.718M77.558 47.35l20.936-20.937m-43.861 12.91l8.202 8.211M12.463 67.423l28.1-28.091"/><path d="M52.46 32.292a4.866 4.866 0 01-4.867 4.866 4.864 4.864 0 01-4.857-4.866 4.856 4.856 0 014.857-4.858 4.858 4.858 0 014.867 4.858m22.678 21.816a4.864 4.864 0 01-4.858 4.866 4.871 4.871 0 01-4.866-4.866 4.864 4.864 0 014.866-4.858 4.856 4.856 0 014.858 4.858m35.351-34.629a4.866 4.866 0 01-4.867 4.866 4.858 4.858 0 01-4.858-4.866 4.856 4.856 0 014.858-4.858 4.864 4.864 0 014.867 4.858" fill="#4D00FF" fill-rule="nonzero"/><path stroke="#FFF" stroke-width="3" stroke-linecap="round" stroke-linejoin="round" stroke-dasharray="0.013333333,13.333333" d="M47.6 52.19v39.935m22.686-21.631v23.514m35.342-57.94v58.724"/></g></svg>