<svg width="34.622" height="35" fill="none" xmlns="http://www.w3.org/2000/svg"><mask id="a" maskUnits="userSpaceOnUse" x="0" y="0" width="34.622" height="35"><path d="M0 0h34.62v35H0V0z" fill="#000" fill-rule="evenodd"/></mask><g mask="url(#a)"><path d="M34.622 17.5c0 9.665-7.75 17.5-17.31 17.5C7.75 35 0 27.165 0 17.5S7.75 0 17.311 0c9.56 0 17.311 7.835 17.311 17.5zM16.945 8.107c.954-.005 1.9.069 2.837.22.937.152 1.866.381 2.786.689.326.117.61.24.854.369.243.128.477.3.7.514.204.215.373.454.509.717.135.263.236.55.303.862-2.095.565-4.455.847-7.078.847-2.929 0-5.67-.376-8.226-1.127.058-.283.16-.555.306-.816a3.78 3.78 0 01.564-.753 2.62 2.62 0 01.542-.431c.2-.12.419-.215.656-.286a15.753 15.753 0 012.552-.61c.874-.135 1.773-.2 2.695-.195zm.803 5.968c-3.162-.055-5.978-.453-8.447-1.194-.03.3-.046.684-.046 1.148 0 .734.06 1.413.18 2.036 2.184.752 4.996 1.16 8.436 1.226 2.432 0 4.86-.31 7.285-.93.113-.627.169-1.26.167-1.901.002-.468-.024-.9-.075-1.299-2.387.61-4.887.914-7.5.914zM10.01 17.92c2.287.633 4.938.973 7.953 1.018 2.15.031 4.438-.23 6.862-.785-.178.52-.395 1.047-.65 1.578-.23.482-.5.969-.805 1.461a29.83 29.83 0 01-5.464.494c-2.572-.042-4.71-.272-6.415-.691a17.187 17.187 0 01-.868-1.58c-.24-.498-.445-.997-.613-1.495zm7.794 5.522a34.16 34.16 0 01-5.011-.374c.497.606.98 1.142 1.45 1.608 1.345 1.276 2.303 2.099 2.876 2.47a19.034 19.034 0 002.487-1.808 19.713 19.713 0 002.158-2.135c-1.313.16-2.633.239-3.96.239z" clip-rule="evenodd" fill="#FFF" fill-rule="evenodd"/></g></svg>