<svg width="35" height="35" fill="none" xmlns="http://www.w3.org/2000/svg"><path d="M4.16 0h26.68A4.156 4.156 0 0135 4.15v26.7A4.156 4.156 0 0130.84 35H4.16A4.156 4.156 0 010 30.85V4.15A4.156 4.156 0 014.16 0zm22.09 4.375h3.281c.604 0 1.094.49 1.094 1.094V8.75c0 .604-.49 1.094-1.094 1.094H26.25c-.604 0-1.094-.49-1.094-1.094V5.469c0-.604.49-1.094 1.094-1.094zm-1.979 13.166c0-3.708-3.013-6.715-6.73-6.715-3.717 0-6.73 3.007-6.73 6.715 0 3.708 3.013 6.715 6.73 6.715 3.717 0 6.73-3.007 6.73-6.715zm6.354 14.178H4.375c-.604 0-1.094-.49-1.094-1.094V14.219h4.375c-.57.82-.762 2.35-.762 3.322 0 5.857 4.776 10.622 10.647 10.622 5.87 0 10.647-4.765 10.647-10.622 0-.972-.138-2.479-.844-3.322h4.375v16.406c0 .604-.49 1.094-1.094 1.094z" clip-rule="evenodd" fill="#FFF" fill-rule="evenodd"/></svg>