<svg width="229" height="72.97" fill="none" xmlns="http://www.w3.org/2000/svg"><defs><linearGradient x1="0" y1="0" x2="0" y2="72.97" id="b" gradientUnits="userSpaceOnUse"><stop stop-color="#4D00FF"/><stop offset="1" stop-color="#3500C1"/></linearGradient><clipPath id="a"><path fill="#fff" fill-opacity="0" d="M0 0h229v72.97H0z"/></clipPath></defs><path d="M0 0h229v72.97H0z"/><g clip-path="url(#a)" fill-rule="evenodd"><path d="M68.689 19.579c.894.658 1.311 1.512 1.311 2.529 0 .2-.016.406-.048.619-.14.936-.297 1.871-.459 2.805a6.394 6.394 0 00-.088 1.093c0 .398.03.797.076 1.196.11.969.217 1.938.217 2.913 0 .22-.006.44-.018.662-.028.51-.11 1.009-.32 1.476-.237.533-.554.985-1.143 1.209-.229.087-.446.281-.596.481-.302.404-.572.835-.822 1.273-.31.54-.57 1.109-.88 1.65a3.68 3.68 0 01-1.072 1.196c-.136-.805-.143-1.586-.257-2.35l-.09-.02c-.063.12-.13.237-.186.36-.24.532-.469 1.07-.717 1.599-.25.532-.562 1.025-.996 1.43-.1.094-.211.173-.317.258l-.075-.04.311-5.383c-.19-.104-.367-.08-.54-.056l-.091.011c-1.452.164-2.8.657-4.1 1.296-1.856.913-3.559 2.048-4.973 3.572-.377.407-.696.871-1.018 1.326a1.774 1.774 0 00-.326 1.053c0 .193.026.391.072.59.138.604.425 1.142.759 1.657.476.733 1.041 1.395 1.65 2.02a24.607 24.607 0 003.784 3.178c.193.132.395.25.594.373.054.033.115.056.219.105.582-.561 1.063-1.213 1.532-1.927.126.272.15.528.15.78 0 .042 0 .083-.002.125-.007.296-.033.593-.05.891.133.046.192-.032.246-.103l.04-.05c.515-.551 1.023-1.108 1.535-1.661.066-.072.14-.136.262-.252l.002.163c0 1.218-.344 2.296-.79 3.35.184.138.354.253.509.386.077.067.117.141.117.225a.38.38 0 01-.06.19c-.9 1.504-1.683 3.08-2.837 4.422-.877 1.019-1.815 1.968-2.986 2.653-.166.097-.21.218-.21.384v.032c.023.727.041 1.454.053 2.182.023 1.338.04 2.676.057 4.014v.003a.503.503 0 01-.01.084 4.94 4.94 0 00-.017.115c-.107-.336-.189-.59-.269-.845-.483-1.549-.99-3.089-1.595-4.597-1.362-3.394-3.637-5.989-6.773-7.847-.23-.136-.464-.269-.696-.403l-.073.058c.074.155.13.322.224.463.392.58.788 1.16 1.199 1.729.912 1.263 1.884 2.488 2.743 3.786 1.597 2.416 2.581 5.086 3.043 7.942.056.344.085.691.085 1.04a6 6 0 01-.13 1.248c-.01.048-.028.094-.065.21-.065-.139-.115-.22-.142-.308-.344-1.13-.688-2.26-1.025-3.392-.81-2.717-2.118-5.185-3.726-7.506-1.438-2.075-3.051-4.011-4.68-5.936-.898-1.061-1.8-2.119-2.697-3.182-1.071-1.271-1.77-2.742-2.293-4.307-.515-1.543-.843-3.132-1.167-4.722-.53-2.595-1.068-5.188-1.94-7.697-.418-1.205-.9-2.382-1.6-3.455-1.07-1.638-2.516-2.75-4.47-3.121-1.402-.266-2.793-.178-4.166.192-2.033.549-3.837 1.512-5.318 3.028-1.51 1.546-2.373 3.422-2.735 5.537-.14.816-.206 1.629-.206 2.437 0 1.62.263 3.223.713 4.809 1.171 4.123 3.314 7.649 6.5 10.537 1.803 1.634 3.711 3.137 5.624 4.635 1.648 1.29 3.298 2.577 4.844 3.988 1.928 1.76 3.457 3.803 4.397 6.256.636 1.66.95 3.366.95 5.158 0 .404-.017.812-.048 1.225-.069-.102-.11-.144-.128-.193-1.177-3.28-3.205-5.973-5.713-8.346-2.125-2.01-4.532-3.607-7.146-4.89-2.214-1.086-4.464-2.1-6.7-3.14-2.038-.949-4.054-1.937-5.967-3.124-4.236-2.63-7.514-6.164-9.893-10.533-.937-1.723-1.582-3.557-1.878-5.504a15.172 15.172 0 01-.177-2.286c0-2.949.92-5.672 2.756-8.165 1.6-2.171 3.646-3.837 5.982-5.15.904-.507 1.857-.928 2.788-1.388.122-.06.245-.116.353-.24l-.105-.009a1.86 1.86 0 00-.223-.011c-2.062.045-4.09.308-6.061.934-3.185 1.01-5.805 2.803-7.707 5.585-.262.384-.497.787-.78 1.17.023-.108.041-.217.07-.323 1.117-4.235 3.18-7.912 6.442-10.873 1.981-1.798 4.236-3.133 6.835-3.83 2.565-.69 5.11-.67 7.601.342 1.955.794 3.515 2.095 4.76 3.781.316.427.593.885.865 1.341.47.788 1.058 1.479 1.701 2.125.93.933 1.945 1.762 3.105 2.4.709.389 1.447.702 2.272.75.929.056 1.643-.298 2.13-1.093.246-.404.388-.847.495-1.305.188-.812.359-1.627.359-2.462l-.001-.116a4.931 4.931 0 00-.149-1.036 1.956 1.956 0 00-.742-1.114c-.237-.18-.494-.335-.748-.491-.188-.116-.384-.219-.58-.322-1.275-.671-2.09-1.72-2.528-3.08-.147-.456-.274-.92-.444-1.369-.873-2.301-2.48-3.924-4.664-5.007-1.325-.656-2.73-1.055-4.185-1.297-1.762-.294-3.535-.366-5.344-.268.028-.043.039-.078.062-.092 1.457-.863 2.962-1.62 4.602-2.075 2.32-.644 4.576-.455 6.756.567 1.552.729 2.962 1.667 4.198 2.864.89.86 1.724 1.76 2.381 2.822.243.392.59.72.898 1.07.065.072.166.112.32.136-.034-.142-.06-.285-.102-.424-.612-2.049-1.774-3.746-3.348-5.166-1.772-1.598-3.818-2.678-6.173-3.134-.42-.08-.846-.136-1.34-.215A7.284 7.284 0 0126.96.106c3.104-.414 5.902.394 8.423 2.187 1.993 1.417 3.588 3.224 4.916 5.27.064.098.128.196.186.298.215.373.536.596.958.664.82.133 1.64.262 2.46.39 3.059.474 6.068 1.14 8.94 2.33.24.099.472.217.705.332a3.98 3.98 0 011.72 1.59c.19.325.4.638.609.951.209.311.493.511.853.64 2.942 1.061 5.88 2.133 8.817 3.205.855.313 1.687.679 2.465 1.156.232.142.456.299.676.46zM16.256 8.896c-3.666.324-6.855 1.69-9.426 4.38-.035.037-.065.08-.144.087.054-.076.105-.153.162-.227 1.339-1.718 2.8-3.314 4.546-4.633 1.402-1.06 2.926-1.879 4.64-2.312 2.149-.543 4.274-.398 6.373.267a16.032 16.032 0 013.806 1.761 7.3 7.3 0 011.778 1.563c.513.635.786 1.385 1.122 2.188-.165-.088-.266-.138-.364-.194-2.41-1.36-4.988-2.234-7.718-2.675-1.585-.256-3.178-.346-4.775-.205zm50.989 23.293c.498.074.99.19 1.489.29a.406.406 0 01.016-.036.171.171 0 00.024-.072c-.002-.636-.005-1.273-.016-1.91-.002-.114-.038-.23-.069-.342-.084-.307-.275-.51-.604-.512a5.952 5.952 0 00-1.006.06c-1.218.203-2.44.353-3.673.414-1.206.06-2.41.125-3.56.186.119-.035.295-.093.476-.138.654-.161 1.313-.308 1.965-.48.883-.232 1.73-.553 2.478-1.096.107-.078.202-.173.302-.26l-.038-.088H61.94c.138-.262.32-.392.51-.49.253-.13.523-.228.787-.335.384-.155.782-.281 1.153-.463.447-.22.797-.563 1.1-.998a11.547 11.547 0 01-1.863-2.077c-.687-.998-1.272-2.09-1.303-2.481l1.187.63c.675.359 1.34.74 2.03 1.07.335.16.71.252 1.076.324.429.085.816-.102.985-.463.117-.252.195-.532.195-.809 0-.37-.14-.736-.519-1.017-.156-.116-.306-.245-.475-.338-.364-.2-.73-.398-1.11-.564-1.25-.547-2.558-.933-3.859-1.338-1.647-.512-3.297-1.015-4.933-1.561-.612-.204-1.194-.504-1.778-.785a2.08 2.08 0 01-1.096-1.21c-.122-.342-.265-.677-.381-1.02-.176-.523-.502-.904-1.009-1.124-.25-.108-.497-.228-.758-.302a114.58 114.58 0 00-3-.823c-2.074-.53-4.149-1.058-6.291-1.242a6.186 6.186 0 00-1.184-.016c.026.24.065.444.068.648l.008.349c.006.218.011.437.011.655 0 .21-.005.419-.02.627-.083 1.15-.411 2.249-.84 3.31-.52 1.287-1.087 2.556-1.64 3.83-.63 1.456-1.225 2.922-1.483 4.5-.135.824-.238 1.651-.238 2.486 0 .088.001.177.003.265.024.873.186 1.728.363 2.58.015.074.065.14.1.21l.082.01c.896-2.737 2.105-5.286 4.271-7.26l.06.047c-.04.093-.086.183-.123.278-.326.82-.692 1.626-.967 2.462-.94 2.858-1.358 5.791-1.358 8.785 0 .256.003.513.009.77.047 1.995.296 3.96.808 5.89.526 1.985 1.32 3.852 2.507 5.541.97 1.38 2.214 2.473 3.578 3.441 1.186.843 2.393 1.657 3.555 2.531 1.896 1.427 3.334 3.227 4.246 5.43.03.075.078.142.152.275.008-.048.016-.085.022-.115a.51.51 0 00.015-.098v-.011c-.025-.35-.042-.7-.082-1.048-.243-2.084-1.084-3.884-2.563-5.381-.789-.799-1.675-1.476-2.572-2.145-.874-.653-1.76-1.292-2.607-1.978-3.331-2.696-4.931-6.236-5.063-10.483-.007-.208-.01-.416-.01-.623 0-1.59.186-3.16.504-4.718.108-.53.242-1.055.364-1.582l.076.005a26.984 26.984 0 00-.151 2.788c0 2.356.35 4.675 1.233 6.942.324-.935.7-1.84 1.218-2.676.523-.844 1.068-1.673 1.603-2.51.05.073.066.127.066.176a.247.247 0 01-.003.04c-.094.602-.169 1.208-.29 1.805-.408 1.99-.647 3.996-.663 6.03v.037c0 .882.247 1.676.803 2.348a13.3 13.3 0 001.434 1.478c.622.55 1.292 1.047 1.948 1.557 1.057.823 2.095 1.666 3.016 2.643 1.527 1.62 2.546 3.497 2.905 5.71.05.303.09.608.142.959.185-.083.332-.133.461-.21.441-.265.79-.633 1.106-1.032.717-.9 1.265-1.9 1.711-2.958.111-.263.2-.535.3-.802a.615.615 0 00.044-.215.421.421 0 00-.177-.34c-.243-.195-.462-.424-.721-.593a60.21 60.21 0 00-2.409-1.51c-1.68-.983-3.382-1.931-5.063-2.915-.976-.571-1.924-1.192-2.768-1.95-.383-.344-.723-.742-1.047-1.146a1.469 1.469 0 01-.307-.94 6.65 6.65 0 01.49-2.24c.48-1.142 1.2-2.12 2.062-3 1.461-1.494 3.178-2.629 5.04-3.553 2.405-1.195 4.931-2.002 7.613-2.238 1.675-.147 3.348 0 5.009.248zM30.803 19.16c-.322-.455-.627-.923-.94-1.384-.072-.104-.15-.203-.226-.304l-.085.028.323 1.756c-.144-.05-.24-.072-.325-.116-1.378-.718-2.302-1.806-2.607-3.346a3.084 3.084 0 01-.061-.6c0-.791.333-1.49.957-2.08.144-.136.277-.165.452-.08.244.12.504.212.74.345a18.107 18.107 0 014.324 3.344c.08.085.15.18.23.263.389.4.546.832.546 1.279 0 .358-.101.728-.265 1.1-.325.738-1.01 1.015-1.776.756a2.543 2.543 0 01-1.287-.96zm21.712 3.985a9.327 9.327 0 00-.188-.039 10.453 10.453 0 01-2.403-.763 95.807 95.807 0 01-3.26-1.563c-.79-.396-1.436-.974-1.96-1.687a5.026 5.026 0 01-.176-.256c-.013-.02-.009-.05-.019-.114.279-.034.558-.061.835-.104.755-.115 1.51-.242 2.265-.356.773-.116 1.546-.162 2.345.076.014-.108.02-.212.02-.312 0-1.033-.719-1.628-1.46-2.236.079.013.158.02.235.04.508.134.963.378 1.388.683.309.22.5.508.596.88.202.783.249 1.579.249 2.38l-.001.207a21.273 21.273 0 01-.032 1.132c0 .167.065.276.217.37.483.303.963.613 1.435.934.307.21.602.441.867.777-.35.078-.656.013-.953-.05zm-39.253 9.768c.912-4.16 3.212-7.32 6.966-9.386.097-.053.192-.113.36-.211l-.137-.026c-.064-.013-.108-.022-.152-.02-1.302.03-2.59.165-3.849.513-3.844 1.063-6.332 3.485-7.316 7.374a13.325 13.325 0 00-.4 3.283c0 1.198.148 2.396.405 3.59.831 3.858 2.607 7.237 5.253 10.156 1.993 2.198 4.347 3.89 7.134 4.95.419.16.848.294 1.272.44l.044-.078c-.104-.089-.206-.18-.311-.267a34.428 34.428 0 01-3.769-3.607c-1.942-2.18-3.548-4.574-4.606-7.31-.789-2.039-1.238-4.116-1.238-6.23 0-1.048.11-2.105.344-3.17zm10.3-3.84c.09-.12.188-.235.282-.353l.073.023v.13l-.002.13c0 .05.001.1.004.15.046.986.058 1.974.152 2.955.105 1.104.527 2.106 1.185 3.05.16-.053.322-.089.47-.157.609-.282 1.055-.745 1.402-1.31.469-.765.718-1.609.865-2.485.112-.666.17-1.333.17-2 0-.625-.05-1.251-.156-1.877a1.178 1.178 0 01-.018-.194.26.26 0 01.018-.08l.02-.069c.126.04.248.07.364.116 1.14.458 1.752 1.335 1.983 2.51.09.462.127.925.127 1.389 0 .468-.037.936-.09 1.404-.233 2.018-.768 3.973-1.232 5.943-.338 1.44-.67 2.881-.858 4.352a14.412 14.412 0 00-.112 1.824c0 .52.025 1.038.072 1.558.159 1.765.592 3.455 1.464 5.008.406.724.867 1.417 1.322 2.111.328.5.687.978 1.03 1.466a.9.9 0 01.166.357c-.07-.044-.142-.085-.21-.133-2.903-2.106-5.434-4.587-7.547-7.49-1.627-2.235-2.637-4.727-3.077-7.452a18.092 18.092 0 01-.239-2.888c0-1.49.2-2.971.633-4.439.378-1.28.936-2.475 1.738-3.548zm16.973 24.055c1.825 1.449 3.564 2.984 5.153 4.693 1.729 1.862 2.773 4.06 3.321 6.514a12.869 12.869 0 01.313 3.327c-.041.954-.202 1.884-.565 2.773-.051.126-.113.248-.208.454-.112-.433-.194-.768-.286-1.1a8.929 8.929 0 00-2.18-3.86c-1.504-1.57-2.826-3.293-4.201-4.971a262.513 262.513 0 00-4.149-4.965c-.531-.617-1.163-1.148-1.754-1.714a1.228 1.228 0 00-.4-.247c.76 1.409 1.458 2.83 1.832 4.46-.108-.092-.17-.133-.218-.187-1.735-1.946-3.306-4.009-4.525-6.323-.952-1.807-1.63-3.706-1.92-5.734a16.016 16.016 0 01-.156-2.263c0-.618.033-1.237.093-1.857.186-1.892.63-3.736 1.01-5.592.301-1.478.55-2.963.56-4.476v-.093c0-1.554-.263-3.064-.82-4.52-.035-.095-.063-.194-.118-.367.137.083.222.12.293.178.998.81 1.581 1.876 1.882 3.108.233.951.321 1.92.322 2.898v.044c0 .662-.004 1.323-.008 1.985-.003.661-.007 1.322-.007 1.984 0 .481.002.962.007 1.444.026 2.299.337 4.557 1.128 6.73 1.129 3.096 3.032 5.636 5.601 7.677zm6.854-14.493l-.3.543c.843-4.1 5.433-7.751 9.358-7.418-.137.059-.218.101-.304.131a23.19 23.19 0 00-3.727 1.662c-2.174 1.203-3.836 2.909-5.027 5.082zM24.9 63.654c2.875 1.35 5.488 3.113 7.762 5.348a14.35 14.35 0 012.697 3.655c.04.08.072.163.138.312-.096-.045-.137-.057-.17-.081-1.975-1.468-4.15-2.572-6.452-3.413-2.266-.828-4.561-1.579-6.85-2.345-2.45-.821-4.888-1.672-7.221-2.795-2.988-1.439-5.694-3.274-8.008-5.664a8.743 8.743 0 01-.805-.948A36.623 36.623 0 01.28 45.809c-.023-.084-.038-.171-.056-.257l.04-.014c.043.076.091.15.128.23 1.856 3.964 4.64 7.143 8.179 9.691 2.627 1.892 5.47 3.388 8.43 4.681 2.641 1.154 5.291 2.29 7.9 3.515z" clip-rule="evenodd" fill="url(#b)"/><path d="M104.55 18.72h-1.79c-.23-2.27-2.16-3.71-4.86-3.71-2.84 0-4.8 1.6-4.8 3.79 0 2.15 2.08 3.16 4.06 3.71l2.14.62c2.59.72 5.53 2.07 5.53 5.46 0 3.26-2.64 5.75-7.06 5.75-4.15 0-6.78-2.21-7-5.44h1.92c.19 2.42 2.34 3.74 5.08 3.74 3.04 0 5.27-1.64 5.27-4.09 0-2.07-1.73-3.02-4.26-3.75l-2.44-.72c-3.19-.94-5.04-2.58-5.04-5.2 0-3.28 2.9-5.54 6.66-5.54 3.78 0 6.46 2.29 6.59 5.38zm33.53-5.37c5.15 0 8.81 4.09 8.81 10.47 0 6.37-3.66 10.46-8.81 10.46s-8.8-4.11-8.8-10.46c0-6.37 3.66-10.47 8.8-10.47zm32.45 0c4.34 0 7.4 2.9 8.07 6.65h-1.87c-.57-2.79-3-4.9-6.2-4.9-3.85 0-7 3.08-7 8.72 0 5.65 3.15 8.71 7 8.71 3.2 0 5.63-2.1 6.2-4.9h1.87c-.67 3.74-3.73 6.65-8.07 6.65-5.14 0-8.79-4.09-8.79-10.46 0-6.38 3.65-10.47 8.79-10.47zm-53.99 1.95h-6.46v-1.67h14.77v1.67h-6.45V34h-1.86V15.3zm36.84-1.67h1.86V34h-1.86V13.63zm-15.3 18.9c4.02 0 7.01-3.24 7-8.71 0-5.49-2.98-8.72-7-8.72-4 0-7 3.23-7 8.72 0 5.45 2.97 8.71 7 8.71zm28.8 11.19h-1.8c-.22-2.27-2.16-3.71-4.85-3.71-2.84 0-4.8 1.6-4.8 3.79 0 2.15 2.08 3.16 4.06 3.71l2.14.62c2.59.72 5.53 2.07 5.53 5.46 0 3.26-2.64 5.75-7.06 5.75-4.16 0-6.78-2.21-7-5.44h1.92c.19 2.42 2.34 3.74 5.08 3.74 3.04 0 5.26-1.64 5.26-4.09 0-2.07-1.72-3.02-4.25-3.75l-2.44-.72c-3.19-.94-5.04-2.58-5.04-5.2 0-3.28 2.9-5.54 6.65-5.54 3.79 0 6.47 2.29 6.6 5.38zm23.92-5.37c5.15 0 8.81 4.09 8.81 10.47 0 3.78-1.29 6.76-3.42 8.56l2.66 3.52h-2.06l-1.95-2.6c-1.2.63-2.56.98-4.04.98-5.15 0-8.8-4.11-8.8-10.46 0-6.37 3.66-10.47 8.8-10.47zM93.56 59H91.7V38.63h6.57c4.34 0 6.56 2.73 6.56 6.28 0 3.57-2.22 6.3-6.53 6.3h-4.74V59zm19.51 0h-1.86V38.63h1.86v9.34h11.55v-9.34h1.86V59h-1.86v-9.36h-11.55V59zm26.26-8.82l-7.35-11.55h2.15l6.03 9.67h.19l6.03-9.67h2.15l-7.35 11.55V59h-1.85v-8.82zm34.32-11.55h1.86V59h-1.86V38.63zm46.03 13.36V38.63h1.86v13.48c0 4.16-3.13 7.23-7.72 7.23-4.58 0-7.73-3.07-7.71-7.23V38.63h1.86v13.36c0 3.24 2.3 5.6 5.85 5.6s5.86-2.36 5.86-5.6zM240.96 59h-12.01V38.63h11.81v1.67h-9.95v7.67h9.32v1.67h-9.32v7.69h10.15V59zm-47.21-2.14l-3.21-4.23h2.07l2.5 3.31c1.66-1.47 2.7-3.9 2.69-7.12 0-5.49-2.98-8.72-7-8.72-4 0-7 3.23-7 8.72 0 5.45 2.97 8.71 7 8.71 1.07 0 2.07-.24 2.95-.67zM93.56 40.3v9.24h4.69c3.19 0 4.75-1.96 4.75-4.63s-1.56-4.61-4.78-4.61h-4.66z" fill="#FFF"/></g></svg>