<svg width="90" height="32" xmlns="http://www.w3.org/2000/svg"><defs><linearGradient x1="50%" y1="0%" x2="50%" y2="100%" id="a"><stop stop-color="#4D00FF" offset="0%"/><stop stop-color="#3500C1" offset="100%"/></linearGradient></defs><g fill="none" fill-rule="evenodd"><path d="M.113 19.516c.019.033.04.065.056.098.795 1.7 1.988 3.062 3.505 4.154 1.126.81 2.344 1.452 3.613 2.006 1.131.495 2.267.982 3.385 1.507a11.96 11.96 0 013.327 2.292c.467.46.853.983 1.155 1.566.018.034.031.07.06.134-.042-.02-.06-.025-.073-.035-.847-.63-1.78-1.102-2.766-1.463-.97-.354-1.954-.676-2.935-1.005-1.05-.351-2.095-.716-3.095-1.198-1.28-.616-2.44-1.403-3.432-2.427a3.747 3.747 0 01-.345-.406A15.695 15.695 0 01.12 19.633c-.01-.037-.016-.074-.024-.11l.017-.007zM11.555.046c1.33-.178 2.53.168 3.61.937.854.607 1.537 1.381 2.107 2.258.027.042.054.084.08.128.091.16.229.255.41.285.351.057.702.112 1.054.166 1.311.204 2.6.49 3.832.999.102.043.202.093.302.142.312.155.56.379.737.682.081.14.17.274.26.408a.71.71 0 00.366.274c1.261.455 2.52.914 3.78 1.374.366.133.722.29 1.055.495.1.06.196.128.29.197.459.337.624.796.541 1.349-.06.402-.127.802-.196 1.202a3.443 3.443 0 00-.006.981c.058.51.114 1.018.086 1.532a1.776 1.776 0 01-.137.633c-.102.229-.238.422-.49.518a.62.62 0 00-.255.206c-.13.173-.246.358-.353.546-.132.232-.244.475-.377.707-.11.193-.253.364-.46.513-.058-.345-.06-.68-.11-1.008l-.038-.008c-.027.051-.056.101-.08.154-.103.228-.2.459-.307.685a1.96 1.96 0 01-.427.614c-.043.04-.09.073-.136.11l-.032-.017.133-2.307c-.096-.053-.184-.03-.27-.02-.622.07-1.2.282-1.757.556-.796.391-1.525.877-2.132 1.53-.161.175-.298.374-.436.569-.151.214-.166.456-.109.704.06.26.182.49.326.71.204.314.446.598.707.866.494.508 1.035.963 1.621 1.362.083.056.17.108.255.16.023.014.05.024.094.045.25-.24.455-.52.656-.826a.827.827 0 01.064.388c-.003.127-.014.254-.022.382.072.024.093-.034.123-.066.22-.236.439-.475.658-.712.028-.03.06-.058.112-.108.014.551-.138 1.034-.338 1.505.08.06.152.11.219.166.056.05.066.107.024.178-.386.645-.721 1.32-1.216 1.895-.376.437-.778.844-1.28 1.137-.075.044-.092.1-.09.178.01.312.018.624.023.936.01.573.017 1.147.025 1.72 0 .016-.004.031-.012.087l-.115-.362a26.485 26.485 0 00-.684-1.97c-.583-1.455-1.559-2.567-2.903-3.364-.098-.058-.198-.115-.298-.172l-.031.024c.031.067.055.139.096.199.168.249.338.497.514.74.39.542.807 1.067 1.175 1.624.685 1.035 1.107 2.18 1.305 3.403.052.324.05.655-.02.98-.004.021-.012.041-.028.091-.028-.06-.049-.095-.06-.132-.148-.485-.296-.969-.44-1.454-.347-1.165-.908-2.222-1.597-3.217-.616-.89-1.307-1.719-2.005-2.544l-1.156-1.363c-.46-.545-.76-1.176-.983-1.846-.22-.662-.361-1.343-.5-2.024-.227-1.112-.458-2.224-.831-3.299-.18-.516-.387-1.02-.687-1.48-.458-.703-1.077-1.18-1.915-1.338a3.949 3.949 0 00-1.785.082c-.872.235-1.645.648-2.28 1.298-.647.663-1.016 1.466-1.172 2.373-.18 1.052-.071 2.087.218 3.105.501 1.767 1.42 3.278 2.786 4.516.772.7 1.59 1.344 2.41 1.986.706.553 1.413 1.105 2.076 1.71.826.754 1.48 1.63 1.884 2.681a6.18 6.18 0 01.386 2.735c-.029-.043-.047-.061-.054-.082-.505-1.406-1.374-2.56-2.449-3.577-.91-.862-1.942-1.546-3.062-2.096-.95-.465-1.913-.9-2.872-1.346-.873-.406-1.737-.83-2.557-1.339-1.816-1.126-3.22-2.641-4.24-4.514a7.168 7.168 0 01-.805-2.358c-.25-1.646.119-3.14 1.106-4.48.685-.93 1.562-1.644 2.563-2.206.13-.073.261-.141.394-.208l.801-.387c.052-.026.105-.05.151-.104-.047-.003-.094-.009-.14-.008-.884.02-1.753.132-2.598.4-1.365.433-2.488 1.202-3.303 2.394-.112.164-.213.337-.334.501.01-.046.018-.092.03-.138.479-1.815 1.363-3.391 2.76-4.66.85-.77 1.816-1.343 2.93-1.642 1.1-.295 2.19-.287 3.258.147.837.34 1.506.898 2.04 1.62.135.184.254.38.37.576.202.337.454.633.73.91a5.9 5.9 0 001.33 1.028c.304.167.62.301.974.323.398.023.704-.128.913-.47a1.86 1.86 0 00.212-.559c.084-.364.16-.73.153-1.104a2.117 2.117 0 00-.064-.444.839.839 0 00-.318-.478 3.597 3.597 0 00-.32-.21c-.08-.05-.165-.094-.248-.138-.547-.288-.896-.738-1.084-1.32-.063-.196-.117-.395-.19-.587-.374-.986-1.063-1.682-2-2.146a6.352 6.352 0 00-1.793-.556 10.43 10.43 0 00-2.29-.115c.012-.018.016-.033.027-.04.624-.369 1.269-.694 1.972-.888a4.062 4.062 0 012.895.243c.665.312 1.27.714 1.8 1.227.38.369.738.755 1.02 1.21.104.167.253.308.385.458.027.031.07.048.136.058-.014-.06-.025-.122-.043-.181-.262-.878-.76-1.606-1.435-2.214C13.39.94 12.514.477 11.504.282c-.18-.035-.362-.059-.574-.093.22-.076.422-.116.625-.143zm1.866 11.56c.06.035.096.051.126.076.428.347.678.804.807 1.332.1.408.137.823.138 1.242 0 .78-.012 1.56-.004 2.339.011.985.145 1.953.484 2.884.483 1.327 1.3 2.415 2.4 3.29a19.763 19.763 0 012.208 2.012c.742.797 1.189 1.74 1.424 2.791.105.47.155.945.134 1.426a3.508 3.508 0 01-.242 1.188c-.022.054-.049.107-.09.195-.047-.186-.082-.33-.122-.472a3.826 3.826 0 00-.935-1.654c-.644-.672-1.21-1.411-1.8-2.13a112.643 112.643 0 00-1.778-2.128c-.228-.264-.498-.492-.752-.734a.526.526 0 00-.17-.106c.325.603.624 1.213.784 1.911-.046-.04-.073-.057-.093-.08-.744-.834-1.417-1.718-1.94-2.71-.407-.774-.698-1.588-.822-2.457a7.368 7.368 0 01-.027-1.766c.048-.486.135-.966.233-1.443l.2-.954c.129-.633.235-1.27.24-1.918a5.392 5.392 0 00-.352-1.977c-.015-.04-.027-.083-.05-.157zm4.497-6.998l-.174.009c.012.103.028.19.03.278.004.233.016.467 0 .699-.036.493-.177.963-.36 1.418-.224.552-.467 1.096-.703 1.642-.27.623-.525 1.252-.636 1.928a6.22 6.22 0 00-.1 1.18c.01.373.079.74.155 1.105.006.032.028.06.042.09l.036.004c.384-1.173.902-2.265 1.83-3.11l.026.02c-.018.039-.037.078-.053.118-.14.351-.297.697-.414 1.055-.437 1.33-.611 2.698-.578 4.095.02.855.127 1.697.346 2.524.225.851.565 1.651 1.074 2.375.416.592.95 1.06 1.534 1.475.508.361 1.025.71 1.523 1.085a5.516 5.516 0 011.82 2.327c.013.032.033.06.065.118.01-.055.017-.076.016-.096-.01-.15-.018-.3-.035-.45a3.817 3.817 0 00-1.099-2.306c-.338-.342-.718-.632-1.102-.919-.374-.28-.754-.554-1.117-.848-1.428-1.155-2.114-2.672-2.17-4.493a9.88 9.88 0 01.212-2.288c.046-.227.103-.452.156-.678l.032.002c-.147 1.422-.062 2.817.464 4.17.139-.4.3-.789.522-1.147.224-.362.458-.717.687-1.075.028.039.031.066.027.092-.04.258-.072.518-.125.773a13.368 13.368 0 00-.283 2.585c-.003.384.102.73.343 1.022.188.226.395.439.615.633.267.236.554.449.835.668.453.352.898.713 1.293 1.132.654.695 1.09 1.5 1.245 2.448l.06.41c.08-.035.143-.056.198-.09.19-.113.338-.271.474-.442.307-.386.542-.814.734-1.268.047-.112.085-.229.128-.343.035-.093.024-.172-.057-.238-.104-.084-.198-.182-.31-.254-.34-.222-.68-.442-1.031-.647-.72-.422-1.45-.828-2.17-1.25a7.19 7.19 0 01-1.186-.835 4.102 4.102 0 01-.45-.491.653.653 0 01-.128-.473c.024-.307.087-.605.207-.89.206-.49.515-.91.884-1.286.626-.64 1.362-1.127 2.16-1.523 1.03-.512 2.113-.858 3.262-.959.718-.063 1.435 0 2.147.106.214.032.424.082.638.124.007-.016.018-.03.018-.046a74.568 74.568 0 00-.007-.818c-.001-.05-.017-.099-.03-.147-.036-.132-.118-.219-.259-.22-.144 0-.29.003-.431.026a13.44 13.44 0 01-1.574.178c-.517.025-1.033.054-1.525.08.05-.015.126-.04.203-.06.28-.069.563-.132.842-.205.38-.1.742-.237 1.062-.47.046-.033.087-.074.13-.112l-.016-.037h-1.324a.47.47 0 01.219-.21c.108-.056.223-.098.336-.144.165-.066.336-.12.495-.198a1.25 1.25 0 00.471-.428 4.949 4.949 0 01-.798-.89c-.295-.428-.546-.896-.559-1.063.176.093.343.18.509.27.29.154.575.317.87.459.144.068.304.107.461.138.184.036.35-.043.422-.198.118-.253.144-.573-.139-.783-.066-.05-.13-.105-.203-.145a5.946 5.946 0 00-.476-.242c-.536-.234-1.096-.4-1.654-.573-.705-.22-1.413-.435-2.114-.669-.262-.087-.512-.216-.762-.336a.891.891 0 01-.47-.519c-.052-.146-.113-.29-.163-.437a.762.762 0 00-.432-.482c-.107-.046-.213-.097-.325-.13a48.85 48.85 0 00-1.286-.352c-.889-.227-1.778-.453-2.696-.532a2.65 2.65 0 00-.508-.007zm-5.906 6.958c.054.017.106.03.156.049.488.196.75.572.85 1.076.078.398.061.798.015 1.197-.1.865-.329 1.703-.528 2.547-.145.617-.287 1.235-.367 1.865a6.695 6.695 0 00-.018 1.45c.069.756.254 1.48.628 2.146.174.31.371.607.567.905.14.214.294.418.441.628.031.044.058.09.071.153-.03-.02-.061-.037-.09-.057a14.479 14.479 0 01-3.234-3.21 7.338 7.338 0 01-1.32-3.194c-.17-1.059-.135-2.107.17-3.14.162-.549.4-1.06.745-1.52.038-.053.08-.102.12-.152l.032.01c0 .058-.002.117 0 .175.02.423.026.846.066 1.267.045.473.226.902.508 1.306.068-.022.138-.037.201-.067.261-.12.453-.319.601-.561.201-.328.308-.69.371-1.065a4.98 4.98 0 00.006-1.662.51.51 0 01-.008-.083c0-.015.008-.03.017-.063zM8.7 9.973a6.769 6.769 0 00-1.65.22c-1.647.455-2.714 1.493-3.135 3.16-.248.98-.21 1.966.002 2.946.356 1.653 1.117 3.101 2.25 4.352.855.942 1.864 1.667 3.058 2.122.18.068.364.126.546.188l.018-.033-.133-.115a14.75 14.75 0 01-1.615-1.546c-.832-.934-1.52-1.96-1.974-3.133-.506-1.306-.685-2.65-.383-4.028.39-1.783 1.376-3.137 2.985-4.023.042-.023.082-.048.154-.09-.064-.011-.094-.021-.123-.02zm15.317 3.63l.174.008c-.058.026-.093.044-.13.057a9.942 9.942 0 00-1.597.712 5.4 5.4 0 00-2.154 2.178l-.13.233c.362-1.757 2.33-3.322 4.011-3.18zm-3.225-6.835c.033.005.068.008.1.017.218.057.413.162.595.292a.64.64 0 01.256.377c.094.365.11.736.106 1.11a9.153 9.153 0 01-.013.466c-.005.082.022.133.092.177.207.13.413.263.615.4.132.09.258.19.372.333-.182.04-.336-.008-.49-.037a4.48 4.48 0 01-1.03-.327c-.47-.214-.935-.439-1.396-.67a2.344 2.344 0 01-.916-.833c-.005-.008-.003-.021-.008-.049.12-.015.24-.026.358-.044.324-.05.647-.104.97-.153.332-.05.664-.07 1.006.032.068-.527-.27-.806-.617-1.091zm-8.72-1.2l.053.018c.104.052.216.09.317.148a7.76 7.76 0 011.853 1.433c.034.036.064.077.099.113.3.31.278.66.12 1.02-.14.315-.433.434-.76.323a1.09 1.09 0 01-.553-.411c-.138-.196-.268-.396-.403-.594-.03-.044-.064-.087-.096-.13l-.037.012.138.753c-.061-.022-.103-.031-.139-.05-.59-.308-.986-.774-1.117-1.434-.089-.447.05-.833.384-1.149.062-.058.119-.07.194-.034zm-5.2-2.915c.92-.232 1.831-.17 2.731.115a6.87 6.87 0 011.631.755c.288.183.546.402.762.67.22.271.337.593.481.937l-.156-.083a9.867 9.867 0 00-3.308-1.146 8.251 8.251 0 00-2.046-.088c-1.571.138-2.938.724-4.04 1.876l-.015.017a.07.07 0 01-.046.02c.023-.031.045-.065.069-.096.574-.736 1.2-1.42 1.948-1.986.6-.454 1.254-.805 1.989-.99z" fill="url(#a)"/><path d="M36.981 12.774l-.497.317c.125.354.301.685.53.993a2.6 2.6 0 00.848.739 2.39 2.39 0 001.17.278c.316 0 .61-.05.88-.152.271-.1.508-.244.711-.429.203-.184.362-.406.476-.664.113-.258.17-.544.17-.858 0-.34-.059-.633-.176-.879a2.07 2.07 0 00-.459-.631 2.815 2.815 0 00-.621-.44 5.793 5.793 0 00-.66-.294 6.187 6.187 0 01-1.035-.467 1.886 1.886 0 01-.626-.557 1.281 1.281 0 01-.21-.731c0-.35.122-.639.364-.868.242-.23.588-.345 1.038-.345.333 0 .614.063.842.19.228.126.417.285.566.477.15.192.266.386.35.583l.53-.295a2.712 2.712 0 00-.45-.725 2.44 2.44 0 00-.746-.585c-.297-.155-.65-.232-1.059-.232-.4 0-.757.079-1.069.236a1.815 1.815 0 00-.735.66 1.793 1.793 0 00-.266.976c0 .329.063.61.19.845.127.234.293.434.499.6.205.164.427.304.666.42.24.115.469.213.689.293.293.106.574.23.841.375.268.145.486.331.655.56.168.23.253.529.253.9 0 .422-.142.771-.425 1.047-.283.276-.67.414-1.164.414-.372 0-.69-.079-.954-.236a2.061 2.061 0 01-.664-.633 4.379 4.379 0 01-.452-.882zm5.723-4.898h2.024V15h.61V7.876h2.023V7.3h-4.657zm6.173 3.274c0-.644.137-1.217.41-1.718a3.087 3.087 0 011.132-1.188 3.113 3.113 0 011.642-.436c.62 0 1.169.145 1.646.436.478.29.853.686 1.127 1.188.273.501.41 1.074.41 1.718 0 .641-.137 1.213-.41 1.716-.274.503-.65.9-1.127 1.19-.477.29-1.026.436-1.646.436-.613 0-1.16-.145-1.642-.436a3.085 3.085 0 01-1.132-1.19c-.273-.503-.41-1.075-.41-1.716zm-.642 0c0 .563.095 1.086.285 1.569.19.482.457.9.802 1.255.344.354.75.63 1.216.83.467.198.974.297 1.523.297.553 0 1.061-.1 1.525-.298a3.714 3.714 0 001.214-.83c.344-.353.612-.772.801-1.254.19-.483.285-1.006.285-1.569 0-.568-.095-1.092-.285-1.572a3.714 3.714 0 00-2.015-2.081 3.836 3.836 0 00-1.525-.298c-.549 0-1.056.1-1.523.298a3.705 3.705 0 00-2.018 2.081 4.238 4.238 0 00-.285 1.572zm9.823-3.85V15h.605V7.3zm3.424 3.85c0-.66.14-1.24.42-1.74.282-.498.657-.89 1.126-1.173a2.98 2.98 0 011.569-.424c.358 0 .687.041.989.125.301.084.577.204.828.362.25.157.47.346.658.564V8.06a3.385 3.385 0 00-1.056-.645c-.382-.143-.855-.215-1.42-.215-.535 0-1.03.097-1.487.291a3.588 3.588 0 00-1.196.823c-.34.354-.605.773-.794 1.255a4.297 4.297 0 00-.284 1.582c0 .572.094 1.1.284 1.582.189.482.453.9.794 1.255.34.354.739.628 1.196.823.456.194.952.291 1.488.291.564 0 1.037-.072 1.419-.215a3.385 3.385 0 001.056-.645v-.81c-.19.219-.41.408-.656.567-.246.16-.52.28-.82.364a3.72 3.72 0 01-1 .126c-.576 0-1.1-.143-1.57-.43a3.142 3.142 0 01-1.125-1.181c-.28-.502-.42-1.077-.42-1.727zM36.924 17.3V25h.61v-7.7h-.61zm.341.572h1.463c.563 0 1.022.146 1.376.437.354.29.531.714.531 1.27 0 .552-.177.974-.53 1.268-.355.293-.814.44-1.377.44h-1.463v.572h1.463c.484 0 .915-.092 1.292-.274.378-.183.677-.446.896-.788.22-.343.329-.748.329-1.218 0-.476-.11-.884-.33-1.223a2.152 2.152 0 00-.894-.782 2.933 2.933 0 00-1.293-.274h-1.463v.572zm6.497 3.225h5.192v-.572h-5.192v.572zm4.785-3.797V25h.61v-7.7h-.61zm-5.109 0V25h.61v-7.7h-.61zm12.578 0l-2.21 3.982-2.157-3.982h-.684l2.541 4.543V25h.61v-3.168L56.7 17.3zm2.55 5.474l-.497.317c.125.354.301.685.53.993a2.6 2.6 0 00.848.739 2.39 2.39 0 001.17.278c.316 0 .61-.05.88-.152.271-.1.508-.244.711-.429.204-.184.362-.406.476-.664.113-.258.17-.544.17-.858 0-.34-.059-.633-.176-.879a2.07 2.07 0 00-.459-.631 2.815 2.815 0 00-.621-.44 5.793 5.793 0 00-.66-.294 6.187 6.187 0 01-1.035-.467 1.886 1.886 0 01-.626-.557 1.281 1.281 0 01-.21-.731c0-.35.122-.639.364-.868.242-.23.588-.345 1.038-.345.333 0 .614.063.842.19.228.126.417.285.566.477.15.192.266.386.35.583l.53-.295a2.712 2.712 0 00-.45-.725 2.44 2.44 0 00-.745-.585c-.297-.155-.65-.232-1.06-.232-.4 0-.757.079-1.069.236a1.815 1.815 0 00-.735.66 1.793 1.793 0 00-.266.976c0 .329.064.61.19.845.127.234.293.434.499.6.205.164.427.304.666.42.24.115.469.213.689.293.293.106.574.23.841.375.268.145.486.331.655.56.169.23.253.529.253.9 0 .422-.142.771-.425 1.047-.283.276-.67.414-1.163.414-.373 0-.691-.079-.955-.236a2.061 2.061 0 01-.664-.633 4.379 4.379 0 01-.452-.882zm6.471-5.474V25h.605v-7.7zm3.419 3.85c0-.644.137-1.217.41-1.718a3.087 3.087 0 011.132-1.188 3.113 3.113 0 011.641-.436c.62 0 1.17.145 1.647.436.477.29.853.686 1.126 1.188.274.501.41 1.074.41 1.718 0 .641-.136 1.213-.41 1.716-.273.503-.649.9-1.126 1.19-.477.29-1.026.436-1.647.436-.613 0-1.16-.145-1.64-.436a3.085 3.085 0 01-1.133-1.19c-.273-.503-.41-1.075-.41-1.716zm-.643 0c0 .563.095 1.086.285 1.569.19.482.458.9.802 1.255.345.354.75.63 1.217.83.466.198.974.297 1.522.297.553 0 1.062-.1 1.526-.298a3.714 3.714 0 001.213-.83c.345-.353.612-.772.802-1.254.19-.483.285-1.006.285-1.569 0-.568-.095-1.092-.285-1.572a3.714 3.714 0 00-2.015-2.081 3.836 3.836 0 00-1.526-.298c-.548 0-1.056.1-1.522.298a3.705 3.705 0 00-2.019 2.081 4.238 4.238 0 00-.285 1.572zm3.778.55l3.388 3.3h.796l-3.388-3.3h-.796zm5.999-4.4v5.214c0 .381.055.731.164 1.05.11.318.271.591.484.82.214.229.473.407.778.535a2.67 2.67 0 001.039.191 2.67 2.67 0 001.038-.191 2.23 2.23 0 00.778-.535 2.28 2.28 0 00.484-.82 3.23 3.23 0 00.164-1.05V17.3h-.61v5.214c0 .616-.16 1.107-.482 1.472-.32.365-.778.548-1.372.548-.594 0-1.052-.183-1.373-.548-.321-.365-.482-.856-.482-1.472V17.3h-.61zm7.826 7.7h3.817v-.572h-3.817V25zm0-7.128h3.817V17.3h-3.817v.572zm0 3.195h3.597v-.572h-3.597v.572zm-.319-3.767V25h.61v-7.7h-.61z" fill="#FFF" fill-rule="nonzero"/></g></svg>