<svg width="124" height="120" xmlns="http://www.w3.org/2000/svg"><g fill="none" fill-rule="evenodd"><path d="M82.193 57.742s-6.539 6.841-6.539 18.09h-5.933m7.584-22.53a8.245 8.245 0 01-.721-3.379c0-1.624.469-3.138 1.279-4.418" stroke="#FFF" stroke-width="3" stroke-linecap="round" stroke-linejoin="round"/><path d="M68.182 56.76c3.496 0 6.694-1.274 9.161-3.38a8.25 8.25 0 007.494 4.795 8.251 8.251 0 008.253-8.252 8.257 8.257 0 00-5.26-7.692c.197-.585.31-1.212.31-1.865a5.824 5.824 0 00-8.07-5.374c-2.515-3.907-6.897-6.497-11.888-6.497a14.1 14.1 0 00-9.929 4.079 7.958 7.958 0 00-1.628-.167 7.885 7.885 0 00-6.176 2.977m7.767-2.815a7.905 7.905 0 015.689 4.68m-31.409 3.759V10.78a3.377 3.377 0 013.375-3.374h21.375" stroke="#FFF" stroke-width="3" stroke-linecap="round" stroke-linejoin="round"/><path d="M80.45 7.406h21.374a3.377 3.377 0 013.375 3.374v89.276a3.373 3.373 0 01-3.375 3.373h-38.65" stroke="#FFF" stroke-width="3" stroke-linecap="round" stroke-linejoin="round"/><path d="M57.245 3.37v11.938c0 1.128.915 2.042 2.043 2.042h.82a2.044 2.044 0 002.025-1.78l.034-.252a7.15 7.15 0 017.09-6.225h0a7.15 7.15 0 017.09 6.225l.034.251a2.045 2.045 0 002.025 1.781h0a2.042 2.042 0 002.043-2.042V3.369a1.58 1.58 0 00-1.578-1.582H58.824c-.872 0-1.579.71-1.579 1.582h0zm60.803 38.75l-3.77 5.662v51.876a3.77 3.77 0 003.77 3.771h0a3.77 3.77 0 003.77-3.77V47.781l-3.77-5.661zm-3.77 43.42h3.77m-60.162 32.82H7.107a5.286 5.286 0 01-5.288-5.285V46.3a5.29 5.29 0 015.288-5.29h50.779a5.29 5.29 0 015.288 5.29v66.776a5.286 5.286 0 01-5.288 5.286z" stroke="#FFF" stroke-width="3" stroke-linecap="round" stroke-linejoin="round"/><path d="M18.963 92.237h-4.927a2.088 2.088 0 01-2.087-2.09v-4.924c0-1.154.934-2.09 2.087-2.09h4.927c1.153 0 2.087.936 2.087 2.09v4.925a2.088 2.088 0 01-2.087 2.089zm15.997 0h-4.927a2.088 2.088 0 01-2.088-2.09v-4.924a2.09 2.09 0 012.088-2.09h4.927a2.09 2.09 0 012.087 2.09v4.925a2.088 2.088 0 01-2.088 2.089zm-7.015-18.086v-4.925c0-1.154.935-2.089 2.088-2.089h4.927c1.152 0 2.087.935 2.087 2.09v4.924a2.088 2.088 0 01-2.087 2.09h-4.927a2.088 2.088 0 01-2.088-2.09zm0 31.994v-4.925a2.09 2.09 0 012.088-2.09h4.927a2.09 2.09 0 012.087 2.09v4.925a2.088 2.088 0 01-2.087 2.089h-4.927a2.088 2.088 0 01-2.088-2.09zM11.949 74.151v-4.925c0-1.154.934-2.089 2.087-2.089h4.927c1.153 0 2.087.935 2.087 2.09v4.924a2.088 2.088 0 01-2.087 2.09h-4.927a2.088 2.088 0 01-2.087-2.09zm0 31.994v-4.925c0-1.154.934-2.09 2.087-2.09h4.927c1.153 0 2.087.936 2.087 2.09v4.925a2.088 2.088 0 01-2.087 2.089h-4.927a2.088 2.088 0 01-2.087-2.09zm31.993-31.994v-4.925c0-1.154.935-2.089 2.088-2.089h4.926c1.153 0 2.088.935 2.088 2.09v4.924a2.088 2.088 0 01-2.088 2.09H46.03a2.088 2.088 0 01-2.088-2.09zm9.102 27.957v3.452a2.677 2.677 0 01-2.674 2.674h-3.754a2.676 2.676 0 01-2.674-2.674V85.808a2.673 2.673 0 012.674-2.674h3.754a2.673 2.673 0 012.674 2.674v16.3zm-2.088-41.865h-36.92a2.088 2.088 0 01-2.087-2.089V53.23c0-1.154.934-2.089 2.087-2.089h36.92c1.153 0 2.088.935 2.088 2.09v4.924a2.088 2.088 0 01-2.088 2.09z" stroke="#FFF" stroke-width="3" stroke-linecap="round" stroke-linejoin="round"/><path fill="#4D00FF" fill-rule="nonzero" d="M100.498 98.729V75.394L77.163 98.729z"/></g></svg>