<svg xmlns="http://www.w3.org/2000/svg" width="411.13" height="104.514"><path data-name="Combined Shape" d="M24.237 100.58a45.092 45.092 0 01-14.248-9.326A44.506 44.506 0 01.63 78.3l16.528-11.842a48.75 48.75 0 006.7 9.2 26.811 26.811 0 008.095 6.006 21.619 21.619 0 009.353 2.086 13.884 13.884 0 008.624-2.563 8.413 8.413 0 003.38-7.108 9.055 9.055 0 00-2-6.069 18.838 18.838 0 00-6.331-4.418q-4.331-2.06-11.431-4.719-3.564-1.349-8.1-3.6a41.541 41.541 0 01-8.654-5.8 29.065 29.065 0 01-6.8-8.691 26.3 26.3 0 01-2.685-12.31 24.67 24.67 0 014.612-15.035 29.389 29.389 0 0112.379-9.6A43.337 43.337 0 0141.575.5a41.508 41.508 0 0117.114 3.231 38.461 38.461 0 0111.969 8.143A40.775 40.775 0 0178 21.885L59.894 31.951a27.205 27.205 0 00-4.851-6.145 21.822 21.822 0 00-6.026-4.047 17.174 17.174 0 00-7.1-1.459q-5.037 0-7.684 2.156a6.727 6.727 0 00-2.646 5.444 7.83 7.83 0 002.586 5.844 25.867 25.867 0 007.44 4.617q4.855 2.139 11.677 4.558a57.846 57.846 0 019.68 4.471 35.6 35.6 0 017.988 6.285 26.986 26.986 0 015.411 8.4 28.392 28.392 0 011.951 10.864 28.029 28.029 0 01-11.206 23.073 38.062 38.062 0 01-11.653 5.953 44.426 44.426 0 01-13.442 2.048 45.591 45.591 0 01-17.782-3.433zm334.022-1.092a49.1 49.1 0 01-17.067-10.512A47.806 47.806 0 01330.07 72.71a53.394 53.394 0 01-3.959-20.881 53.4 53.4 0 013.959-20.881 47.811 47.811 0 0111.122-16.265 49.089 49.089 0 0117.067-10.511A61.978 61.978 0 01379.963.5q10.793 0 17.777 2.663a49.743 49.743 0 0112.89 7.26v25.625a47.041 47.041 0 00-7.391-6.462 35.862 35.862 0 00-9.537-4.768 39.064 39.064 0 00-12.346-1.778 31.422 31.422 0 00-14.589 3.425 27.246 27.246 0 00-10.729 9.868 28.412 28.412 0 00-4.072 15.5 28.448 28.448 0 004.072 15.467 27.2 27.2 0 0010.729 9.9 31.421 31.421 0 0014.589 3.424 38.184 38.184 0 0012.346-1.824 37.726 37.726 0 009.537-4.768 45.316 45.316 0 007.391-6.421v25.626a52.269 52.269 0 01-12.891 7.216q-6.984 2.707-17.777 2.707a61.978 61.978 0 01-21.703-3.672zm-72.913 1.324V2.634h24.331v98.178zm-172.346 0V23.877H86V2.634h77.689v21.243h-27v76.936z" fill="none" stroke="#fff" stroke-miterlimit="10" opacity=".137"/></svg>