<svg width="320" height="106" xmlns="http://www.w3.org/2000/svg"><path d="M-28.471 66.958L-45 78.804c2.212 4.705 5.331 9.022 9.36 12.95 4.027 3.929 8.776 7.037 14.247 9.326 5.47 2.29 11.398 3.434 17.781 3.434 4.63 0 9.111-.683 13.443-2.049 4.332-1.365 8.216-3.35 11.653-5.953 3.437-2.604 6.164-5.852 8.18-9.744 2.016-3.891 3.025-8.335 3.025-13.33 0-4.078-.65-7.7-1.95-10.865-1.301-3.165-3.105-5.965-5.412-8.398-2.307-2.434-4.97-4.529-7.988-6.285a57.805 57.805 0 00-9.68-4.471C3.113 41.804-.78 40.283-4.015 38.856c-3.237-1.428-5.717-2.967-7.44-4.617-1.725-1.65-2.587-3.598-2.587-5.844 0-2.19.883-4.003 2.648-5.44C-9.63 21.518-7.07 20.8-3.71 20.8c2.558 0 4.924.486 7.098 1.459 2.174.972 4.182 2.321 6.025 4.047 1.843 1.727 3.46 3.775 4.851 6.146l18.107-10.066c-1.709-3.399-4.157-6.736-7.343-10.01-3.187-3.276-7.177-5.99-11.97-8.144C8.267 2.077 2.562 1-4.054 1c-6.338 0-12.097 1.112-17.275 3.337-5.18 2.225-9.306 5.427-12.38 9.605-3.074 4.179-4.611 9.19-4.611 15.036 0 4.775.895 8.878 2.685 12.31 1.79 3.43 4.056 6.328 6.8 8.691 2.745 2.364 5.63 4.295 8.654 5.795 3.025 1.5 5.725 2.7 8.101 3.6 4.734 1.771 8.544 3.344 11.432 4.718 2.887 1.374 4.997 2.846 6.33 4.418 1.332 1.571 1.999 3.594 1.999 6.068 0 3.034-1.127 5.403-3.38 7.11-2.252 1.705-5.127 2.558-8.625 2.558-3.29 0-6.408-.696-9.352-2.087-2.944-1.391-5.642-3.393-8.095-6.005-2.452-2.612-4.685-5.678-6.7-9.196zM170.35 1c7.59 0 14.582 1.241 20.975 3.724 6.394 2.482 11.974 6.003 16.741 10.564 4.767 4.56 8.46 9.973 11.076 16.238 2.617 6.264 3.926 13.197 3.926 20.796 0 7.565-1.294 14.532-3.882 20.902-2.588 6.37-6.237 11.893-10.946 16.568-4.71 4.676-10.276 8.299-16.698 10.868-6.423 2.57-13.487 3.854-21.192 3.854-7.668 0-14.722-1.285-21.162-3.854-6.44-2.57-12.016-6.192-16.726-10.868-4.71-4.675-8.36-10.198-10.947-16.568-2.588-6.37-3.882-13.337-3.882-20.902 0-7.6 1.338-14.532 4.013-20.796 2.675-6.265 6.397-11.678 11.164-16.238 4.767-4.56 10.356-8.082 16.768-10.564C155.99 2.24 162.915 1 170.35 1zm-52.29 2.134v21.242H91.065v76.936H67.37V24.376H40.372V3.134h77.689zm52.29 19.619c-5.524 0-10.36 1.26-14.508 3.782-4.148 2.522-7.382 5.997-9.702 10.425-2.32 4.429-3.48 9.55-3.48 15.362 0 5.755 1.16 10.86 3.48 15.318 2.32 4.458 5.554 7.947 9.702 10.47 4.148 2.521 8.984 3.782 14.508 3.782 5.561 0 10.406-1.26 14.536-3.783 4.13-2.522 7.355-6.011 9.675-10.469 2.32-4.457 3.48-9.563 3.48-15.318 0-5.813-1.131-10.933-3.393-15.362-2.261-4.428-5.443-7.903-9.544-10.425-4.102-2.522-9.02-3.782-14.754-3.782zm69.365-19.619v98.178h24.331V3.134h-24.33zm66.62 49.196c0-6.036 1.358-11.201 4.072-15.497 2.714-4.295 6.29-7.584 10.73-9.868 4.438-2.283 9.301-3.425 14.588-3.425 4.673 0 8.788.593 12.346 1.778 3.559 1.186 6.738 2.775 9.537 4.768 2.8 1.993 5.264 4.147 7.391 6.463V10.923a49.722 49.722 0 00-12.89-7.26C347.454 1.888 341.529 1 334.333 1c-7.867 0-15.101 1.224-21.703 3.672-6.602 2.447-12.291 5.951-17.067 10.512-4.776 4.56-8.484 9.982-11.123 16.265-2.639 6.283-3.958 13.244-3.958 20.881 0 7.637 1.32 14.598 3.958 20.88 2.64 6.284 6.347 11.706 11.123 16.266 4.776 4.56 10.465 8.065 17.067 10.512 6.602 2.448 13.836 3.672 21.703 3.672 7.196 0 13.121-.902 17.777-2.707A52.258 52.258 0 00365 93.737V68.111c-2.127 2.316-4.591 4.456-7.39 6.42-2.8 1.963-5.98 3.552-9.538 4.767-3.558 1.215-7.673 1.822-12.346 1.822-5.287 0-10.15-1.142-14.588-3.425-4.44-2.283-8.016-5.582-10.73-9.895-2.714-4.312-4.072-9.47-4.072-15.47z" stroke="#FFF" fill="none" opacity=".137"/></svg>