<svg width="1922.13" height="486" fill="none" xmlns="http://www.w3.org/2000/svg"><g opacity=".137" style="mix-blend-mode:normal"><mask id="a" fill="#fff"><path d="M.63 365.042l77.442-55.504q14.156 24.726 31.392 43.085 17.235 18.36 37.924 28.137c13.793 6.518 28.4 9.778 43.821 9.778q23.998 0 39.658-11.428.379-.277.754-.561c10.555-7.992 15.832-19.095 15.832-33.307q0-14.994-6.962-25.271h-.001q-1.112-1.642-2.403-3.164c-6.243-7.363-16.13-14.262-29.659-20.698q-20.293-9.655-53.561-22.11c-11.13-4.213-23.782-9.833-37.955-16.861q-21.26-10.542-40.546-27.152-.864-.744-1.714-1.503l-.066-.059Q56.494 212.254 44.5 189.26q-12.578-24.115-12.578-57.674 0-32.725 13.711-58.018 3.5-6.456 7.894-12.429 4.437-6.032 9.499-11.485Q82.608 28.56 111.53 16.136 147.928.5 192.473.5q46.499 0 80.182 15.138 33.684 15.138 56.08 38.155c14.931 15.345 26.399 30.979 34.404 46.902l-84.834 47.163q-9.777-16.661-22.73-28.793c-8.636-8.088-18.046-14.41-28.231-18.965q-1.516-.679-3.06-1.29l-.012-.005q-13.997-5.538-30.185-5.538-23.604 0-36.007 10.1c-8.269 6.734-12.404 15.231-12.404 25.49q0 6.336 1.954 11.998v.002h.001q2.911 8.437 10.161 15.378 12.116 11.598 34.861 21.632c15.164 6.689 33.399 13.816 54.707 21.381q24.139 8.608 45.353 20.95c14.142 8.228 26.617 18.043 37.426 29.445 10.808 11.402 19.258 24.519 25.351 39.351 6.093 14.831 9.14 31.799 9.14 50.902 0 23.406-4.724 44.226-14.172 62.461-9.448 18.234-22.223 33.451-38.326 45.649-16.102 12.199-34.302 21.498-54.599 27.896-20.297 6.399-41.292 9.598-62.983 9.598-29.91 0-57.68-5.362-83.313-16.087q-33.382-13.967-59.12-36.619l-.004-.004-.005-.005q-3.902-3.434-7.627-7.067Q16.174 398.109.63 365.042zm762-124.078q0 53.165 18.188 97.932 13.07 32.171 33.843 58.194 8.133 10.189 17.448 19.435c22.068 21.908 48.19 38.88 78.365 50.918q45.263 18.057 99.156 18.057 54.15 0 99.29-18.057 34.24-13.696 61.55-35.91v-.005l.27-.216q8.55-6.976 16.42-14.787 9.29-9.228 17.41-19.394v-.003q20.79-26.037 33.87-58.232c12.13-29.845 18.19-62.489 18.19-97.932q0-53.412-18.39-97.441-12.34-29.543-31.49-53.693v-.002q-9.39-11.84-20.41-22.384-8.27-7.912-17.23-14.933l-.01-.007-.02-.01-.01-.011q-27.35-21.405-61.17-34.537C1077.95 6.316 1045.19.5 1009.63.5q-52.265 0-97.327 17.446-34.569 13.384-62.335 35.362-8.429 6.672-16.231 14.136-10.117 9.678-18.893 20.45-20.287 24.896-33.412 55.629-18.802 44.029-18.802 97.441zm903.22-72.572c-12.72 20.126-19.08 44.328-19.08 72.608 0 28.115 6.36 52.277 19.08 72.484 12.71 20.208 29.47 35.661 50.27 46.36 20.8 10.699 43.58 16.049 68.35 16.049 21.89 0 41.17-2.846 57.85-8.538 16.67-5.691 31.56-13.137 44.68-22.338 13.12-9.201 24.66-19.226 34.63-30.075v120.065c-18.45 14.085-38.58 25.355-60.4 33.81-21.81 8.455-49.57 12.683-83.29 12.683-36.86 0-70.75-5.734-101.68-17.203-30.94-11.468-57.59-27.886-79.97-49.253-22.38-21.367-39.75-46.77-52.11-76.209-12.37-29.439-18.55-62.051-18.55-97.835 0-35.784 6.18-68.396 18.55-97.835 12.36-29.439 29.73-54.842 52.11-76.209 22.38-21.367 49.03-37.785 79.97-49.253C1707.19 6.234 1741.08.5 1777.94.5c33.72 0 61.48 4.16 83.29 12.477 21.82 8.319 41.95 19.657 60.4 34.016v120.065q-14.95-16.274-34.63-30.28-19.68-14.007-44.68-22.339c-16.68-5.554-35.96-8.332-57.85-8.332-24.77 0-47.55 5.35-68.35 16.049-20.8 10.699-37.56 26.111-50.27 46.236zM400.63 110.026h126.496V470.5h111.018V110.026H764.63V10.5h-364v99.526zm934-99.526v460h114v-460h-114zM896.194 168.988q-16.303 31.122-16.303 71.976c0 26.962 5.434 50.885 16.303 71.77q10.087 19.382 25.092 33.557l.015.014q9.243 8.727 20.35 15.48 2.303 1.4 4.665 2.689l.005.002q27.554 15.033 63.309 15.033 36.98 0 64.96-15.873l.13-.075q1.52-.864 3.02-1.776c19.35-11.816 34.46-28.166 45.32-49.051 10.87-20.885 16.31-44.808 16.31-71.77q0-40.854-15.9-71.976-9.69-18.978-24.19-32.973l-.03-.031q-9.27-8.938-20.49-15.842-28.83-17.724-69.13-17.724-35.759 0-63.314 15.035l-.038.021q-2.343 1.279-4.627 2.668-11.602 7.053-21.168 16.228l-.001.001-.002.001q-14.471 13.88-24.286 32.616z" clip-rule="evenodd" fill-rule="evenodd"/></mask><path d="M.63 365.042l77.442-55.504q14.156 24.726 31.392 43.085 17.235 18.36 37.924 28.137c13.793 6.518 28.4 9.778 43.821 9.778q23.998 0 39.658-11.428.379-.277.754-.561c10.555-7.992 15.832-19.095 15.832-33.307q0-14.994-6.962-25.271h-.001q-1.112-1.642-2.403-3.164c-6.243-7.363-16.13-14.262-29.659-20.698q-20.293-9.655-53.561-22.11c-11.13-4.213-23.782-9.833-37.955-16.861q-21.26-10.542-40.546-27.152-.864-.744-1.714-1.503l-.066-.059Q56.494 212.254 44.5 189.26q-12.578-24.115-12.578-57.674 0-32.725 13.711-58.018 3.5-6.456 7.894-12.429 4.437-6.032 9.499-11.485Q82.608 28.56 111.53 16.136 147.928.5 192.473.5q46.499 0 80.182 15.138 33.684 15.138 56.08 38.155c14.931 15.345 26.399 30.979 34.404 46.902l-84.834 47.163q-9.777-16.661-22.73-28.793c-8.636-8.088-18.046-14.41-28.231-18.965q-1.516-.679-3.06-1.29l-.012-.005q-13.997-5.538-30.185-5.538-23.604 0-36.007 10.1c-8.269 6.734-12.404 15.231-12.404 25.49q0 6.336 1.954 11.998v.002h.001q2.911 8.437 10.161 15.378 12.116 11.598 34.861 21.632c15.164 6.689 33.399 13.816 54.707 21.381q24.139 8.608 45.353 20.95c14.142 8.228 26.617 18.043 37.426 29.445 10.808 11.402 19.258 24.519 25.351 39.351 6.093 14.831 9.14 31.799 9.14 50.902 0 23.406-4.724 44.226-14.172 62.461-9.448 18.234-22.223 33.451-38.326 45.649-16.102 12.199-34.302 21.498-54.599 27.896-20.297 6.399-41.292 9.598-62.983 9.598-29.91 0-57.68-5.362-83.313-16.087q-33.382-13.967-59.12-36.619l-.004-.004-.005-.005q-3.902-3.434-7.627-7.067Q16.174 398.109.63 365.042zm762-124.078q0 53.165 18.188 97.932 13.07 32.171 33.843 58.194 8.133 10.189 17.448 19.435c22.068 21.908 48.19 38.88 78.365 50.918q45.263 18.057 99.156 18.057 54.15 0 99.29-18.057 34.24-13.696 61.55-35.91v-.005l.27-.216q8.55-6.976 16.42-14.787 9.29-9.228 17.41-19.394v-.003q20.79-26.037 33.87-58.232c12.13-29.845 18.19-62.489 18.19-97.932q0-53.412-18.39-97.441-12.34-29.543-31.49-53.693v-.002q-9.39-11.84-20.41-22.384-8.27-7.912-17.23-14.933l-.01-.007-.02-.01-.01-.011q-27.35-21.405-61.17-34.537C1077.95 6.316 1045.19.5 1009.63.5q-52.265 0-97.327 17.446-34.569 13.384-62.335 35.362-8.429 6.672-16.231 14.136-10.117 9.678-18.893 20.45-20.287 24.896-33.412 55.629-18.802 44.029-18.802 97.441zm903.22-72.572c-12.72 20.126-19.08 44.328-19.08 72.608 0 28.115 6.36 52.277 19.08 72.484 12.71 20.208 29.47 35.661 50.27 46.36 20.8 10.699 43.58 16.049 68.35 16.049 21.89 0 41.17-2.846 57.85-8.538 16.67-5.691 31.56-13.137 44.68-22.338 13.12-9.201 24.66-19.226 34.63-30.075v120.065c-18.45 14.085-38.58 25.355-60.4 33.81-21.81 8.455-49.57 12.683-83.29 12.683-36.86 0-70.75-5.734-101.68-17.203-30.94-11.468-57.59-27.886-79.97-49.253-22.38-21.367-39.75-46.77-52.11-76.209-12.37-29.439-18.55-62.051-18.55-97.835 0-35.784 6.18-68.396 18.55-97.835 12.36-29.439 29.73-54.842 52.11-76.209 22.38-21.367 49.03-37.785 79.97-49.253C1707.19 6.234 1741.08.5 1777.94.5c33.72 0 61.48 4.16 83.29 12.477 21.82 8.319 41.95 19.657 60.4 34.016v120.065q-14.95-16.274-34.63-30.28-19.68-14.007-44.68-22.339c-16.68-5.554-35.96-8.332-57.85-8.332-24.77 0-47.55 5.35-68.35 16.049-20.8 10.699-37.56 26.111-50.27 46.236zM400.63 110.026h126.496V470.5h111.018V110.026H764.63V10.5h-364v99.526zm934-99.526v460h114v-460h-114zM896.194 168.988q-16.303 31.122-16.303 71.976c0 26.962 5.434 50.885 16.303 71.77q10.087 19.382 25.092 33.557l.015.014q9.243 8.727 20.35 15.48 2.303 1.4 4.665 2.689l.005.002q27.554 15.033 63.309 15.033 36.98 0 64.96-15.873l.13-.075q1.52-.864 3.02-1.776c19.35-11.816 34.46-28.166 45.32-49.051 10.87-20.885 16.31-44.808 16.31-71.77q0-40.854-15.9-71.976-9.69-18.978-24.19-32.973l-.03-.031q-9.27-8.938-20.49-15.842-28.83-17.724-69.13-17.724-35.759 0-63.314 15.035l-.038.021q-2.343 1.279-4.627 2.668-11.602 7.053-21.168 16.228l-.001.001-.002.001q-14.471 13.88-24.286 32.616z" clip-rule="evenodd" mask="url(#a)"/><path d="M.338 364.636l77.893-55.827.275.481q14.126 24.675 31.322 42.991 17.172 18.291 37.774 28.027 20.589 9.729 43.607 9.73 23.835-.001 39.363-11.332l-.003.002q.38-.277.75-.557 15.634-11.839 15.634-32.909 0-14.841-6.876-24.99l.001.002q-1.099-1.623-2.372-3.123-9.297-10.964-29.492-20.571-20.273-9.643-53.522-22.092-16.713-6.327-38.002-16.882-21.315-10.568-40.65-27.221-.867-.747-1.72-1.509l-.067-.059q-18.16-16.232-30.195-39.305-12.635-24.223-12.635-57.906 0-32.853 13.771-58.256 3.517-6.487 7.93-12.487 4.455-6.055 9.536-11.53 19.654-21.17 48.673-33.637Q147.825 0 192.473 0q46.606 0 80.387 15.182 33.772 15.177 56.234 38.263 22.45 23.071 34.492 47.025l.215.429-85.68 47.633-.248-.421q-9.74-16.599-22.64-28.682-12.892-12.074-28.093-18.873-1.506-.674-3.04-1.28l-.012-.006q-13.908-5.503-30.001-5.503-23.426 0-35.691 9.988-12.22 9.951-12.22 25.102 0 6.252 1.927 11.835l.001.004-.474.161.47-.173q2.875 8.333 10.038 15.19 12.052 11.538 34.717 21.536 22.73 10.027 54.673 21.367 24.182 8.622 45.436 20.989 21.274 12.378 37.538 29.533 16.274 17.168 25.451 39.505 9.177 22.337 9.177 51.092 0 35.229-14.228 62.691-14.226 27.452-38.468 45.818-24.226 18.351-54.751 27.974Q227.165 486 194.55 486q-44.965 0-83.506-16.126-33.46-13.999-59.257-36.705l-.005-.004-.005-.005q-3.91-3.442-7.645-7.085Q15.76 398.402.177 365.255L0 364.879l.338-.243zm.583.813l-.291-.407.452-.212q15.506 32.982 43.748 60.53 3.716 3.624 7.608 7.05l.006.005.003.003q25.674 22.594 58.983 36.534Q149.786 485 194.55 485q32.46 0 62.833-9.575 30.36-9.571 54.448-27.817 24.062-18.229 38.183-45.481 14.116-27.244 14.116-62.231 0-28.557-9.102-50.712-9.105-22.164-25.252-39.197-16.165-17.051-37.315-29.357-21.174-12.319-45.268-20.911-31.977-11.352-54.742-21.394-22.826-10.07-35.005-21.729-7.337-7.024-10.285-15.566l-.002-.006-.002-.006q-1.981-5.741-1.981-12.161 0-15.627 12.588-25.877 12.541-10.213 36.323-10.213 16.283 0 30.368 5.573l.013.005q1.554.616 3.081 1.298 15.353 6.868 28.367 19.057 13.006 12.181 22.82 28.905l-.431.253-.243-.437 84.834-47.163.243.437-.447.224q-11.973-23.816-34.315-46.777-22.331-22.95-55.926-38.048Q238.864 1 192.473 1q-44.442 0-80.746 15.595-28.825 12.382-48.334 33.4-5.042 5.431-9.463 11.44-4.373 5.945-7.856 12.371-13.65 25.181-13.65 57.78 0 33.437 12.52 57.443 11.952 22.912 29.975 39.022l.066.059q.846.756 1.707 1.497 19.237 16.568 40.442 27.083 21.239 10.531 37.909 16.841 33.289 12.463 53.6 22.126 20.39 9.699 29.826 20.827 1.308 1.542 2.433 3.203l.003.004q7.048 10.404 7.048 25.551 0 21.568-16.03 33.706-.378.286-.758.563l-.004.003q-15.79 11.523-39.952 11.524-23.243.001-44.034-9.826-20.774-9.816-38.076-28.246-17.276-18.404-31.46-43.179l.433-.249.291.407L.922 365.449zM763.13 240.964q0 53.059 18.151 97.744 13.04 32.101 33.771 58.07 8.115 10.167 17.409 19.392 33.036 32.787 78.198 50.809Q955.833 485 1009.63 485q54.05 0 99.1-18.021 34.16-13.663 61.42-35.834l.01-.004.26-.217q8.52-6.951 16.38-14.754 9.27-9.202 17.38-19.351v-.008q20.74-25.967 33.8-58.103 18.15-44.669 18.15-97.744 0-53.316-18.35-97.248-12.31-29.472-31.42-53.575v.002Q1197 78.328 1186 67.805q-8.26-7.9-17.2-14.9l-.01-.008-.01-.009-.02-.012q-27.27-21.355-61.04-34.463Q1062.88 1 1009.63 1q-52.172 0-97.147 17.413Q877.981 31.77 850.278 53.7q-8.416 6.662-16.195 14.105-10.094 9.659-18.852 20.404-20.246 24.843-33.339 55.511-18.762 43.939-18.762 97.244zm-1 0q0-53.51 18.842-97.637 13.154-30.798 33.484-55.75 8.797-10.793 18.936-20.495 7.814-7.475 16.266-14.166 27.815-22.023 62.464-35.436Q957.27 0 1009.63 0q53.44 0 98.45 17.48 33.9 13.163 61.3 34.61l.01.011.02.01v.006q8.99 7.032 17.28 14.965 11.05 10.572 20.45 22.431v.006q19.19 24.212 31.56 53.812 18.43 44.116 18.43 97.633 0 53.27-18.23 98.12-13.11 32.271-33.94 58.36v-.001q-8.14 10.194-17.45 19.437-7.9 7.836-16.46 14.82l-.26.214-.01.007q-27.38 22.267-61.68 35.986Q1063.87 486 1009.63 486q-53.993 0-99.341-18.092-45.355-18.096-78.533-51.028-9.334-9.266-17.486-19.478-20.82-26.084-33.916-58.318-18.224-44.863-18.224-98.12zm904.14-72.305q-19 30.069-19 72.341 0 42.033 19 72.218 19.01 30.196 50.08 46.182 31.08 15.993 68.12 15.993 32.75 0 57.69-8.511 24.94-8.515 44.55-22.274 19.64-13.776 34.55-30.005l.87-.945v121.596l-.2.15q-27.74 21.174-60.52 33.879-32.8 12.715-83.47 12.717-55.37 0-101.86-17.234-46.5-17.239-80.13-49.36-33.65-32.136-52.23-76.378-18.59-44.258-18.59-98.028 0-53.771 18.59-98.028 18.58-44.244 52.23-76.378 33.63-32.122 80.13-49.36Q1722.57 0 1777.94 0q50.67 0 83.47 12.51 32.8 12.509 60.53 34.088l.19.15v121.594l-.87-.945q-14.92-16.237-34.55-30.212-19.61-13.963-44.55-22.271-24.94-8.307-57.69-8.307-37.04 0-68.12 15.993-31.08 15.989-50.08 46.059zm-.85-.534q19.15-30.301 50.47-46.414 31.3-16.104 68.58-16.104 32.93 0 58 8.358 25.08 8.355 44.82 22.405 19.71 14.037 34.71 30.35l-.37.338h-.5V46.993h.5l-.31.395q-27.6-21.489-60.26-33.943Q1828.41 1 1777.94 1q-55.19 0-101.51 17.172-46.3 17.166-79.79 49.146-33.49 31.99-52 76.041-18.51 44.071-18.51 97.641 0 53.568 18.51 97.641 18.51 44.047 52 76.041 33.49 31.978 79.79 49.146Q1722.74 481 1777.94 481q50.48 0 83.11-12.649 32.64-12.656 60.28-33.742l.3.398h-.5V314.942h.5l.37.338q-14.98 16.309-34.71 30.146-19.73 13.842-44.81 22.403-25.08 8.564-58.01 8.564-37.29 0-68.58-16.104-31.32-16.111-50.47-46.538-19.15-30.429-19.15-72.751 0-42.563 19.15-72.875zM400.63 109.526h126.996V470.5h-.5v-.5h111.018v.5h-.5V109.526H764.63v.5h-.5V10.5h.5v.5h-364v-.5h.5v99.526h-.5v-.5zm-.5 1V10h365v100.526H638.144v-.5h.5V471H526.626V110.026h.5v.5H400.13zm935-100.026v460h-.5v-.5h114v.5h-.5v-460h.5v.5h-114v-.5h.5zm-1-.5h115v461h-115V10zM896.637 169.22q-16.246 31.016-16.246 71.744.004 40.321 16.247 71.539 10.046 19.307 24.992 33.424l.014.014q9.204 8.691 20.267 15.417 2.292 1.393 4.645 2.677l.005.003q27.436 14.972 63.069 14.971 36.85-.001 64.71-15.808l.14-.075q1.51-.859 3-1.768 28.9-17.647 45.14-48.855 16.24-31.216 16.25-71.539 0-40.737-15.84-71.749-9.65-18.903-24.09-32.84l-.04-.031q-9.22-8.898-20.41-15.776-28.7-17.65-68.86-17.65-35.625 0-63.074 14.974l-.038.021q-2.332 1.273-4.607 2.656-11.557 7.026-21.082 16.162l-.007.006.006-.005q-14.417 13.827-24.191 32.488zm-.886-.464q9.851-18.805 24.382-32.744l.009-.008-.005.005q9.604-9.212 21.255-16.294 2.294-1.395 4.647-2.68l.038-.021q27.662-15.096 63.553-15.096 40.44 0 69.39 17.798 11.27 6.934 20.58 15.908l.03.031q14.56 14.053 24.29 33.105 15.94 31.228 15.95 72.204-.01 40.567-16.36 72.001-16.37 31.453-45.51 49.247-1.51.916-3.03 1.784l-.13.075q-28.1 15.939-65.21 15.938-35.887-.001-63.55-15.094l-.003-.002q-2.373-1.295-4.685-2.701-11.155-6.78-20.434-15.544l-.015-.014q-15.067-14.232-25.192-33.689-16.364-31.436-16.36-72.001 0-40.974 16.36-72.208z" fill="#FFF"/></g></svg>