<svg width="3650" height="532" fill="none" xmlns="http://www.w3.org/2000/svg"><g opacity=".211" style="mix-blend-mode:normal"><mask id="a" fill="#fff"><path d="M1553.33 336.3l-83.83 60.311q16.83 35.93 47.47 65.93c20.42 19.999 44.51 35.826 72.25 47.479 27.75 11.653 57.81 17.48 90.18 17.48 23.48 0 46.21-3.477 68.18-10.429 21.97-6.953 41.67-17.056 59.1-30.311 17.43-13.256 31.25-29.79 41.48-49.604 10.23-19.813 15.34-42.436 15.34-67.868 0-20.758-3.3-39.195-9.89-55.311-6.6-16.117-15.74-30.37-27.44-42.759-11.7-12.389-25.21-23.054-40.51-31.994-15.31-8.941-31.68-16.529-49.09-22.765-23.07-8.22-42.81-15.964-59.22-23.232-16.41-7.269-28.99-15.104-37.73-23.506q-7.82-7.506-10.97-16.624-2.15-6.191-2.15-13.124 0-7.535 2.73-13.903 3.32-7.764 10.7-13.795c8.95-7.316 21.94-10.975 38.97-10.975 12.98 0 24.98 2.475 36 7.425 11.02 4.95 21.21 11.818 30.56 20.607 9.34 8.788 17.55 19.217 24.6 31.287l91.83-51.247c-8.67-17.302-21.08-34.29-37.24-50.964-16.16-16.673-36.4-30.493-60.7-41.46C1739.64 5.984 1710.71.5 1677.15.5c-32.14 0-61.34 5.663-87.61 16.99-26.26 11.326-47.19 27.626-62.78 48.9-15.59 21.275-23.39 46.79-23.39 76.548 0 24.31 4.54 45.2 13.62 62.669 9.07 17.469 20.57 32.219 34.49 44.252 13.92 12.032 28.54 21.867 43.89 29.503 15.34 7.637 29.03 13.743 41.08 18.322 24.01 9.022 43.33 17.03 57.98 24.024q21.96 10.49 32.1 22.491 1.35 1.598 2.52 3.319 7.62 11.199 7.62 27.578c0 15.443-5.72 27.507-17.14 36.192-11.43 8.684-26.01 13.026-43.74 13.026q-13.83 0-26.84-3.238l-.01-.001q-10.56-2.627-20.59-7.385c-14.93-7.083-28.61-17.274-41.05-30.573q-18.65-19.95-33.97-46.817zm607.17-74.513q0 57.769 20.02 106.414 13.28 32.276 33.9 58.858l.02.03.01.006v.01q10.45 13.454 22.77 25.447 9.12 8.881 19.04 16.767v.003l.05.039q29.93 23.791 67.07 38.518 49.47 19.621 108.13 19.621 58.93 0 107.6-19.621 25.77-10.383 47.92-25.272l-79.9-75.402q-29.42 13.987-66.76 13.987-30.57 0-57.14-10.314-10.14-3.939-19.71-9.384-13.01-7.41-24.02-17.099l-.01-.006-.03-.03-.05-.04q-18.2-16.048-30.9-38.337-20.4-35.813-20.4-84.195 0-44.391 18.18-78.209 10.28-19.112 25.1-33.576l.03-.028v-.003q11.39-11.107 25.45-19.469 3.57-2.119 7.25-4.005 29.79-15.253 67.39-15.253 46.94 0 80.19 21.334.96.614 1.91 1.247 14.76 9.862 26.55 22.502v.007l.01.004q15.19 16.298 25.43 37.212c12.12 24.763 18.18 51.943 18.18 81.537 0 26.806-5.07 50.536-15.22 71.188l81.29 75.295q17.36-24.389 28.89-53.369 19.35-48.645 19.35-106.414c0-38.691-6.6-73.984-19.8-105.878q-14.22-34.386-36.72-62.05l-.01-.022q-8.8-10.812-18.85-20.596-7.83-7.613-16.27-14.467l-.01-.005v-.002q-30.17-24.498-68.2-39.31Q2489.55.5 2431.51.5q-56.89 0-106.14 18.957-36.61 14.091-66.53 36.95v.007l-.02.01q-10.31 7.886-19.83 16.817-13.29 12.46-24.47 26.587-20.06 25.357-33.34 56.081-20.68 47.841-20.68 105.878zM.5 12.5v499h120.355V338.476H76.06v-99.109h44.795V111.609H76.06V12.5H.5zm120.355 0v99.109h52.69q36.499 0 57.265 16.302c13.844 10.867 20.767 26.726 20.767 47.577q0 21.773-10.239 36.361-4.343 6.188-10.528 11.083c-13.844 10.957-32.932 16.435-57.265 16.435h-52.69v99.109h52.69q63.957 0 106.954-19.726c28.664-13.15 50.331-31.973 64.999-56.466 14.668-24.493 22.002-53.425 22.002-86.796 0-33.846-7.334-62.897-22.002-87.152-14.668-24.256-36.335-42.959-64.999-56.11Q237.502 12.5 173.545 12.5h-52.69zm329.645 0v499h120.279V302.354h-86.807V194.379h86.807V12.5H450.5zm410.723 289.854h-76.002V511.5H905.5v-499H785.221v181.879h76.002v107.975zM1297.52 12.5l-97.15 187.56-96.89-187.56H965.5l174.19 296.838V511.5h122.06V308.18L1435.5 12.5h-137.98zm653.98 0v499h121v-499h-121zm857 0v334.774c0 31.482 5.12 58.775 15.37 81.879 10.25 23.105 24.6 42.181 43.04 57.228 18.43 15.047 39.86 26.329 64.27 33.845 24.41 7.516 50.68 11.274 78.82 11.274 28.14 0 54.41-3.758 78.82-11.274 24.41-7.516 45.84-18.798 64.28-33.845 18.44-15.047 32.79-34.123 43.03-57.228 10.25-23.104 15.37-50.397 15.37-81.879V12.5h-120.89v325.926c0 25.338-6.71 45.872-20.14 61.602-13.42 15.729-33.57 23.594-60.47 23.594q-34.08 0-53.74-16.838v-.003q-3.61-3.093-6.73-6.753-2.14-2.509-4.06-5.18v-.006q-16.08-22.454-16.08-56.416V12.5H2808.5zm511 0v499h79.62v-99.109h35.76v-114.47h-35.76v-96.893h35.76v-89.419h-35.76V12.5h-79.62zm115.38 0v99.109h214.62V12.5h-214.62zM570.779 302.354h214.442V194.379H570.779v107.975zm2864.101-4.433h200.43v-96.893h-200.43v96.893zm-866.32 48.354l-52.69-48.814h-125.04l116.3 109.744q4.09-1.945 8.03-4.162 14.39-8.095 25.97-19.13l.01-.005.01-.007v-.005q14.38-13.7 24.45-31.927c1.03-1.871 2.02-3.769 2.96-5.694zm866.32 66.116V511.5h214.62v-99.109h-214.62zm-847.85 70.216l40.01 37.758h129.46l-106.65-98.795q-3.33 4.671-6.87 9.172l-.02.028-.01.007q-8.99 11.431-19.36 21.775-9.38 9.354-19.64 17.606l-.01.004-.4.324-.02.016-.02.017q-7.97 6.376-16.47 12.088z" clip-rule="evenodd" fill-rule="evenodd"/></mask><path d="M1553.33 336.3l-83.83 60.311q16.83 35.93 47.47 65.93c20.42 19.999 44.51 35.826 72.25 47.479 27.75 11.653 57.81 17.48 90.18 17.48 23.48 0 46.21-3.477 68.18-10.429 21.97-6.953 41.67-17.056 59.1-30.311 17.43-13.256 31.25-29.79 41.48-49.604 10.23-19.813 15.34-42.436 15.34-67.868 0-20.758-3.3-39.195-9.89-55.311-6.6-16.117-15.74-30.37-27.44-42.759-11.7-12.389-25.21-23.054-40.51-31.994-15.31-8.941-31.68-16.529-49.09-22.765-23.07-8.22-42.81-15.964-59.22-23.232-16.41-7.269-28.99-15.104-37.73-23.506q-7.82-7.506-10.97-16.624-2.15-6.191-2.15-13.124 0-7.535 2.73-13.903 3.32-7.764 10.7-13.795c8.95-7.316 21.94-10.975 38.97-10.975 12.98 0 24.98 2.475 36 7.425 11.02 4.95 21.21 11.818 30.56 20.607 9.34 8.788 17.55 19.217 24.6 31.287l91.83-51.247c-8.67-17.302-21.08-34.29-37.24-50.964-16.16-16.673-36.4-30.493-60.7-41.46C1739.64 5.984 1710.71.5 1677.15.5c-32.14 0-61.34 5.663-87.61 16.99-26.26 11.326-47.19 27.626-62.78 48.9-15.59 21.275-23.39 46.79-23.39 76.548 0 24.31 4.54 45.2 13.62 62.669 9.07 17.469 20.57 32.219 34.49 44.252 13.92 12.032 28.54 21.867 43.89 29.503 15.34 7.637 29.03 13.743 41.08 18.322 24.01 9.022 43.33 17.03 57.98 24.024q21.96 10.49 32.1 22.491 1.35 1.598 2.52 3.319 7.62 11.199 7.62 27.578c0 15.443-5.72 27.507-17.14 36.192-11.43 8.684-26.01 13.026-43.74 13.026q-13.83 0-26.84-3.238l-.01-.001q-10.56-2.627-20.59-7.385c-14.93-7.083-28.61-17.274-41.05-30.573q-18.65-19.95-33.97-46.817zm607.17-74.513q0 57.769 20.02 106.414 13.28 32.276 33.9 58.858l.02.03.01.006v.01q10.45 13.454 22.77 25.447 9.12 8.881 19.04 16.767v.003l.05.039q29.93 23.791 67.07 38.518 49.47 19.621 108.13 19.621 58.93 0 107.6-19.621 25.77-10.383 47.92-25.272l-79.9-75.402q-29.42 13.987-66.76 13.987-30.57 0-57.14-10.314-10.14-3.939-19.71-9.384-13.01-7.41-24.02-17.099l-.01-.006-.03-.03-.05-.04q-18.2-16.048-30.9-38.337-20.4-35.813-20.4-84.195 0-44.391 18.18-78.209 10.28-19.112 25.1-33.576l.03-.028v-.003q11.39-11.107 25.45-19.469 3.57-2.119 7.25-4.005 29.79-15.253 67.39-15.253 46.94 0 80.19 21.334.96.614 1.91 1.247 14.76 9.862 26.55 22.502v.007l.01.004q15.19 16.298 25.43 37.212c12.12 24.763 18.18 51.943 18.18 81.537 0 26.806-5.07 50.536-15.22 71.188l81.29 75.295q17.36-24.389 28.89-53.369 19.35-48.645 19.35-106.414c0-38.691-6.6-73.984-19.8-105.878q-14.22-34.386-36.72-62.05l-.01-.022q-8.8-10.812-18.85-20.596-7.83-7.613-16.27-14.467l-.01-.005v-.002q-30.17-24.498-68.2-39.31Q2489.55.5 2431.51.5q-56.89 0-106.14 18.957-36.61 14.091-66.53 36.95v.007l-.02.01q-10.31 7.886-19.83 16.817-13.29 12.46-24.47 26.587-20.06 25.357-33.34 56.081-20.68 47.841-20.68 105.878zM.5 12.5v499h120.355V338.476H76.06v-99.109h44.795V111.609H76.06V12.5H.5zm120.355 0v99.109h52.69q36.499 0 57.265 16.302c13.844 10.867 20.767 26.726 20.767 47.577q0 21.773-10.239 36.361-4.343 6.188-10.528 11.083c-13.844 10.957-32.932 16.435-57.265 16.435h-52.69v99.109h52.69q63.957 0 106.954-19.726c28.664-13.15 50.331-31.973 64.999-56.466 14.668-24.493 22.002-53.425 22.002-86.796 0-33.846-7.334-62.897-22.002-87.152-14.668-24.256-36.335-42.959-64.999-56.11Q237.502 12.5 173.545 12.5h-52.69zm329.645 0v499h120.279V302.354h-86.807V194.379h86.807V12.5H450.5zm410.723 289.854h-76.002V511.5H905.5v-499H785.221v181.879h76.002v107.975zM1297.52 12.5l-97.15 187.56-96.89-187.56H965.5l174.19 296.838V511.5h122.06V308.18L1435.5 12.5h-137.98zm653.98 0v499h121v-499h-121zm857 0v334.774c0 31.482 5.12 58.775 15.37 81.879 10.25 23.105 24.6 42.181 43.04 57.228 18.43 15.047 39.86 26.329 64.27 33.845 24.41 7.516 50.68 11.274 78.82 11.274 28.14 0 54.41-3.758 78.82-11.274 24.41-7.516 45.84-18.798 64.28-33.845 18.44-15.047 32.79-34.123 43.03-57.228 10.25-23.104 15.37-50.397 15.37-81.879V12.5h-120.89v325.926c0 25.338-6.71 45.872-20.14 61.602-13.42 15.729-33.57 23.594-60.47 23.594q-34.08 0-53.74-16.838v-.003q-3.61-3.093-6.73-6.753-2.14-2.509-4.06-5.18v-.006q-16.08-22.454-16.08-56.416V12.5H2808.5zm511 0v499h79.62v-99.109h35.76v-114.47h-35.76v-96.893h35.76v-89.419h-35.76V12.5h-79.62zm115.38 0v99.109h214.62V12.5h-214.62zM570.779 302.354h214.442V194.379H570.779v107.975zm2864.101-4.433h200.43v-96.893h-200.43v96.893zm-866.32 48.354l-52.69-48.814h-125.04l116.3 109.744q4.09-1.945 8.03-4.162 14.39-8.095 25.97-19.13l.01-.005.01-.007v-.005q14.38-13.7 24.45-31.927c1.03-1.871 2.02-3.769 2.96-5.694zm866.32 66.116V511.5h214.62v-99.109h-214.62zm-847.85 70.216l40.01 37.758h129.46l-106.65-98.795q-3.33 4.671-6.87 9.172l-.02.028-.01.007q-8.99 11.431-19.36 21.775-9.38 9.354-19.64 17.606l-.01.004-.4.324-.02.016-.02.017q-7.97 6.376-16.47 12.088z" clip-rule="evenodd" fill="#FFF" fill-opacity=".354" fill-rule="evenodd" mask="url(#a)"/><path d="M1553.62 336.706l-83.83 60.311-.29-.406.45-.212q16.79 35.853 47.37 65.784 30.56 29.93 72.1 47.376Q1630.94 527 1679.4 527q35.15 0 68.03-10.406 32.87-10.41 58.94-30.233 26.05-19.814 41.35-49.434Q1863 407.32 1863 369.288q0-31.034-9.86-55.122-9.85-24.083-27.34-42.604-17.5-18.532-40.4-31.907-22.92-13.385-49-22.725-34.63-12.34-59.25-23.246-24.7-10.94-37.88-23.602-7.9-7.591-11.1-16.822-2.17-6.269-2.17-13.287 0-7.638 2.77-14.099 3.37-7.878 10.84-13.985 13.56-11.089 39.29-11.089 19.57.001 36.2 7.469 16.61 7.459 30.7 20.699 14.08 13.234 24.69 31.399l-.43.252-.24-.437 91.82-51.247.25.437-.45.223q-12.96-25.886-37.15-50.839-24.18-24.946-60.55-41.351Q1727.38 1 1677.15 1q-48.1 0-87.41 16.949-39.27 16.937-62.58 48.737-23.29 31.78-23.29 76.252.01 36.35 13.56 62.438 13.58 26.119 34.38 44.104 20.84 18.012 43.78 29.435 22.99 11.444 41.04 18.301 36.04 13.548 58.01 24.04 22.07 10.539 32.27 22.62 1.37 1.618 2.55 3.361 7.7 11.324 7.71 27.859-.01 23.414-17.34 36.59-17.28 13.128-44.04 13.128-13.89-.001-26.96-3.252l-.01-.002q-10.6-2.638-20.68-7.418-22.47-10.662-41.2-30.684-18.71-19.991-34.05-46.91l.44-.248.29.406zm-.59-.811l.45-.325.28.483q15.29 26.816 33.91 46.722 18.6 19.885 40.9 30.463 9.99 4.738 20.49 7.352l.01.001q12.96 3.223 26.72 3.223 26.43 0 43.44-12.924 16.93-12.876 16.94-35.794-.01-16.228-7.53-27.297-1.16-1.7-2.49-3.278-10.06-11.917-31.94-22.362-21.94-10.475-57.94-24.008-18.09-6.875-41.13-18.341-23.06-11.478-43.99-29.573-20.94-18.11-34.61-44.4-13.66-26.305-13.67-62.899 0-44.798 23.48-76.843 23.48-32.02 62.99-49.065Q1628.83 0 1677.15 0q50.43 0 87 16.493 36.55 16.484 60.86 41.567 24.29 25.064 37.32 51.087l.22.428-92.67 51.719-.25-.423q-10.54-18.039-24.52-31.175-13.95-13.125-30.41-20.515-16.45-7.381-35.8-7.381-25.37.001-38.66 10.863-7.28 5.952-10.55 13.604-2.69 6.273-2.69 13.706 0 6.85 2.12 12.96 3.12 9.004 10.84 16.428 13.06 12.539 37.59 23.409 24.59 10.891 59.18 23.219 26.18 9.37 49.18 22.803 23.03 13.447 40.62 32.083 17.62 18.657 27.54 42.912 9.93 24.272 9.93 55.501 0 38.276-15.4 68.098-15.39 29.821-41.62 49.772-26.21 19.932-59.25 30.39Q1714.7 528 1679.4 528q-48.67 0-90.37-17.519-41.7-17.52-72.41-47.583-30.71-30.058-47.57-66.075l-.18-.375 84.16-60.553zM2161 261.787q0 57.649 19.98 106.223 13.24 32.187 33.83 58.742l.03.03v.011l.01.003q10.44 13.451 22.72 25.397 9.12 8.875 19 16.735v-.002l.05.044q29.86 23.745 66.94 38.445Q2372.95 527 2431.51 527q58.83 0 107.42-19.584 25.71-10.369 47.82-25.224l.28.415-.34.363-79.91-75.401.35-.364.21.452q-29.53 14.036-66.97 14.035-30.65-.001-57.32-10.347-10.18-3.952-19.78-9.416-13.06-7.437-24.1-17.159l-.01-.009-.03-.027-.05-.039q-18.26-16.103-31-38.465-20.47-35.923-20.47-84.443 0-44.516 18.24-78.446 10.32-19.189 25.19-33.696l.03-.029v.004q11.42-11.15 25.55-19.547 3.57-2.125 7.27-4.021 29.91-15.308 67.62-15.308 47.08 0 80.46 21.413.96.613 1.92 1.252 14.81 9.887 26.63 22.577l.01.009v.004l.01.001q15.25 16.369 25.5 37.33 18.24 37.266 18.24 81.757 0 40.333-15.27 71.409l-.45-.221.34-.366 81.29 75.294-.34.367-.41-.29q17.33-24.327 28.83-53.264 19.32-48.547 19.32-106.229 0-57.941-19.76-105.687-14.19-34.32-36.64-61.925l-.02-.023q-8.77-10.785-18.81-20.553-7.82-7.605-16.23-14.437l-.01-.005v-.002q-30.1-24.446-68.07-39.232Q2489.45 1 2431.51 1q-56.82 0-105.96 18.924-36.57 14.073-66.4 36.88l-.01.006-.01.01q-10.29 7.867-19.8 16.786-13.24 12.42-24.41 26.532-20.01 25.277-33.28 55.969-20.64 47.72-20.64 105.68zm-1 0q0-58.167 20.72-106.077 13.33-30.813 33.41-56.192 11.21-14.17 24.51-26.642 9.55-8.953 19.88-16.849l.01-.01.01-.008q29.96-22.894 66.65-37.018Q2374.5 0 2431.51 0q58.15 0 106.9 18.991 38.11 14.844 68.34 39.389l.01.006q8.45 6.86 16.29 14.496 10.09 9.81 18.89 20.64l.02.022q22.52 27.719 36.8 62.174 19.83 47.928 19.83 106.069 0 57.873-19.39 106.598-11.54 29.049-28.95 53.475l-.33.463-81.97-75.933.16-.335q15.17-30.867 15.17-70.968-.01-44.261-18.13-81.317-10.2-20.828-25.35-37.093l-.01-.008v-.004.003q-11.75-12.604-26.46-22.428-.94-.63-1.9-1.241-33.13-21.255-79.92-21.255-37.48 0-67.16 15.198-3.68 1.881-7.22 3.99-14.02 8.337-25.35 19.391l-.01.009-.03.028q-14.76 14.401-25 33.455-18.13 33.708-18.13 77.972 0 48.256 20.34 83.948 12.66 22.218 30.79 38.209l.05.04.04.032v.003q10.97 9.655 23.94 17.041 9.53 5.426 19.65 9.353 26.47 10.278 56.95 10.279 37.22-.001 66.54-13.939l.31-.147 80.61 76.066-.52.349q-22.2 14.917-48.01 25.322Q2490.53 528 2431.51 528q-58.74 0-108.32-19.656-37.21-14.754-67.19-38.592l-.04-.034-.01-.008q-9.92-7.889-19.08-16.8-12.32-11.996-22.81-25.495l-.01-.017v-.002l-.03-.03q-20.68-26.663-33.97-58.975Q2160 319.635 2160 261.787zM1 12.5v499H.5v-.5h120.355v.5h-.5V338.476h.5v.5H75.56V238.867h45.295v.5h-.5V111.609h.5v.5H75.56V12.5h.5v.5H.5v-.5H1zM0 12h76.56v99.609h-.5v-.5h45.295v128.758H76.06v-.5h.5v99.109h-.5v-.5h45.295V512H0V12zm121.355.5v99.109h-.5v-.5h52.69q36.672 0 57.574 16.408 20.958 16.451 20.958 47.971-.001 21.931-10.329 36.649-4.385 6.247-10.627 11.187-20.903 16.543-57.576 16.543h-52.69v-.5h.5v99.109h-.5v-.5h52.69q63.848.001 106.746-19.68 42.854-19.661 64.778-56.269Q367 225.408 367 175.488q0-50.629-21.93-86.893-21.924-36.253-64.779-55.914Q237.391 13 173.544 13h-52.689v-.5h.5zm-1-.5h53.189q64.065 0 107.164 19.771 43.136 19.79 65.218 56.306Q368 124.582 368 175.488q0 50.198-22.073 87.053-22.083 36.875-65.219 56.664-43.099 19.772-107.163 19.771h-53.19V238.867h53.19q36.325 0 56.955-16.327 6.128-4.85 10.429-10.978 10.148-14.458 10.148-36.074-.001-31.033-20.575-47.184-20.631-16.195-56.957-16.195h-53.19V12zM451 12.5v499h-.5v-.5h120.279v.5h-.5V302.354h.5v.5h-87.307V193.879h87.307v.5h-.5V12.5h.5v.5H450.5v-.5h.5zm-1-.5h121.279v182.879h-87.307v-.5h.5v107.975h-.5v-.5h87.307V512H450V12zm411.223 290.854h-76.002v-.5h.5V511.5h-.5v-.5H905.5v.5h-.5v-499h.5v.5H785.221v-.5h.5v181.879h-.5v-.5h76.502v108.975h-.5zm0-1v.5h-.5V194.379h.5v.5h-76.502V12H906v500H784.721V301.854h76.502zM1297.96 12.73l-97.59 188.417-97.33-188.417.44-.23v.5H965.5v-.5l.431-.253 174.259 296.955V511.5h-.5v-.5h122.06v.5h-.5V308.044l173.82-295.797.43.253v.5h-137.98v-.5l.44.23zm-.75-.73h139.16l-174.19 296.433-.43-.253h.5V512h-123.06V309.338h.5l-.43.253L964.627 12h139.163l97.03 187.83-.45.23-.44-.23 97.14-187.56.14-.27zm654.79.5v499h-.5v-.5h121v.5h-.5v-499h.5v.5h-121v-.5h.5zm-1-.5h122v500h-122V12zm858 .5v334.774q-.02 47.097 15.33 81.677 15.31 34.541 42.89 57.043 27.59 22.506 64.1 33.754Q2967.86 531 3010 531q42.14 0 78.68-11.252 36.52-11.248 64.1-33.754 27.58-22.494 42.9-57.043 15.32-34.568 15.32-81.677V12.5h.5v.5h-120.89v-.5h.5v325.926q0 38.185-20.26 61.926-20.27 23.769-60.85 23.77-34.27-.001-54.06-16.958l-.01-.003q-3.64-3.124-6.78-6.809-2.16-2.53-4.08-5.213-16.18-22.592-16.18-56.713V12.5h.5v.5H2808.5v-.5h.5zm-1-.5h121.89v326.426q0 33.799 15.98 56.12l.01.011q1.9 2.648 4.03 5.146 3.09 3.626 6.67 6.697l.01.004q19.52 16.719 53.41 16.718 40.11.001 60.09-23.419 20.02-23.461 20.02-61.277V12H3212v335.274q0 47.32-15.41 82.082-15.4 34.765-43.17 57.413-27.75 22.629-64.45 33.935Q3052.3 532 3010 532t-78.97-11.296q-36.7-11.306-64.44-33.935-27.76-22.654-43.17-57.413-15.42-34.772-15.42-82.082V12zm512 .5v499h-.5v-.5h79.62v.5h-.5v-99.609h36.26v.5h-.5v-114.47h.5v.5h-36.26v-97.893h36.26v.5h-.5v-89.419h.5v.5h-36.26V12.5h.5v.5h-79.62v-.5h.5zm-1-.5h80.62v99.609h-.5v-.5h36.26v90.419h-36.26v-.5h.5v96.893h-.5v-.5h36.26v115.47h-36.26v-.5h.5V512H3319V12zm116.38.5v99.109h-.5v-.5h214.62v.5h-.5V12.5h.5v.5h-214.62v-.5h.5zm-1-.5H3650v100.109h-215.62V12zM570.779 301.854h214.442v.5h-.5V194.379h.5v.5H570.779v-.5h.5v107.975h-.5v-.5zm-.5 1V193.879h215.442v108.975H570.279zm2864.601-5.433h200.43v.5h-.5v-96.893h.5v.5h-200.43v-.5h.5v96.893h-.5v-.5zm-.5 1v-97.893h201.43v97.893h-201.43zm-866.16 48.222l-52.69-48.815.34-.367v.5h-125.04v-.5l.35-.364 116.29 109.744-.34.364-.22-.452q4.07-1.933 8-4.145 14.34-8.063 25.88-19.057v-.003l.01-.006.01-.011q14.31-13.638 24.35-31.804 1.54-2.794 2.95-5.672l.45.22-.34.368zm.68-.734l.28.253-.17.334q-1.42 2.903-2.98 5.714-10.1 18.301-24.54 32.052v-.002.009l-.01.006q-11.64 11.079-26.08 19.204-3.96 2.229-8.06 4.178l-.31.147-117.46-110.843h126.49l52.84 48.948zm866.48 66.482V511.5h-.5v-.5h214.62v.5h-.5v-99.109h.5v.5h-214.62v-.5h.5zm-1-.5H3650V512h-215.62V411.891zm-847.01 70.352l40.02 37.758-.35.364v-.5h129.46v.5l-.34.367-106.65-98.795.34-.367.4.29q-3.34 4.691-6.88 9.191l-.02.029v.006q-9.01 11.446-19.41 21.82-9.39 9.369-19.68 17.642v.004l-.41.324-.02.017-.02.016q-7.98 6.39-16.5 12.112l-.28-.414.34-.364zm-.68.727l-.46-.429.52-.349q8.48-5.7 16.44-12.063l.02-.017.02-.016.4-.324.01-.003q10.24-8.24 19.6-17.571 10.35-10.33 19.32-21.729l.01-.01.02-.026q3.52-4.484 6.85-9.153l.33-.463 108.01 100.048h-130.94l-40.15-37.895z" fill="#FFF"/></g></svg>