<svg width="50" height="35" fill="none" xmlns="http://www.w3.org/2000/svg"><mask id="a" fill="#fff"><path d="M8.767.305L25 0l16.233.305c4.646.087 8.403 3.779 8.528 8.382L50 17.5l-.24 8.814c-.124 4.602-3.88 8.294-8.527 8.381L25 35l-16.233-.305C4.121 34.608.365 30.916.24 26.314L0 17.5l.24-8.813C.365 4.084 4.12.392 8.767.305zM33 17.5L20 25V10l13 7.5z" clip-rule="evenodd" fill-rule="evenodd"/></mask><path d="M8.767.305L25 0l16.233.305c4.646.087 8.403 3.779 8.528 8.382L50 17.5l-.24 8.814c-.124 4.602-3.88 8.294-8.527 8.381L25 35l-16.233-.305C4.121 34.608.365 30.916.24 26.314L0 17.5l.24-8.813C.365 4.084 4.12.392 8.767.305zM33 17.5L20 25V10l13 7.5z" clip-rule="evenodd" fill="#FFF" fill-rule="evenodd" mask="url(#a)"/></svg>