<svg width="40" height="40" xmlns="http://www.w3.org/2000/svg"><g id="Page-1" stroke="none" stroke-width="1" fill="none" fill-rule="evenodd"><g id="Home-Ten-" transform="translate(-540 -1049)" fill="#F3BA2F" fill-rule="nonzero"><g id="binance-coin-bnb-logo" transform="translate(540 1049)"><path d="M12.232 16.808L20 9.04l7.772 7.772 4.52-4.52L20 0 7.712 12.288l4.52 4.52M0 20l4.52-4.52 4.52 4.519-4.52 4.52L0 20zm12.232 3.192L20 30.96l7.772-7.772 4.522 4.518-.002.002L20 40 7.712 27.712l-.006-.006 4.526-4.514m18.728-3.19l4.52-4.52 4.52 4.52-4.52 4.52-4.52-4.52z" id="Shape"/><path id="Path" d="M24.632 19.928h.002l-4.565-4.565-3.374 3.373-.387.388-.8.8-.006.006.006.007 4.561 4.561 4.565-4.565.003-.002-.004-.003"/></g></g></g></svg>