<svg width="31" height="42" xmlns="http://www.w3.org/2000/svg" xmlns:xlink="http://www.w3.org/1999/xlink"><defs><path id="path-1" d="M0 0h30.988v40.996H0z"/></defs><g id="Page-1" stroke="none" stroke-width="1" fill="none" fill-rule="evenodd"><g id="Home-Ten-" transform="translate(-383 -1498)"><g id="Group-6" transform="translate(383 1498)"><g id="Group-3"><mask id="mask-2" fill="#fff"><use xlink:href="#path-1"/></mask><path d="M15.702 0C7.045.036.035 7.06 0 15.735c0 1.737.28 3.462.828 5.11a2.245 2.245 0 002.762 1.379 2.24 2.24 0 001.335-2.758 10.4 10.4 0 01-.611-4.01C4.503 9.19 9.724 4.264 15.977 4.453c6.253.19 11.17 5.421 10.98 11.686-.176 5.866-4.787 10.63-10.634 10.986 0 0-2.204.135-3.3.27a11.38 11.38 0 00-1.2.238.144.144 0 01-.206.002l-.002-.002a.145.145 0 010-.176l.341-1.865 2.07-9.328a2.152 2.152 0 10-4.21-.903S4.894 38.193 4.894 38.4a2.073 2.073 0 001.532 2.53h.114a2.067 2.067 0 002.534-1.546.534.534 0 010-.102c.061-.27.682-3.307.682-3.307a5.59 5.59 0 014.624-4.406c.475-.073 2.472-.207 2.472-.207 8.625-.861 14.919-8.565 14.058-17.206C30.124 6.274 23.608.206 15.702 0" id="Fill-1" fill="#FFF" mask="url(#mask-2)"/></g><path d="M17 37.052a2.48 2.48 0 00-2.935 1.914l-.008.038a2.459 2.459 0 001.894 2.928h.069a2.432 2.432 0 002.935-1.784c.003-.01.004-.02.008-.03v-.136A2.56 2.56 0 0017 37.052" id="Fill-4" fill="#E6007A"/></g></g></g></svg>