<svg width="51" height="51" xmlns="http://www.w3.org/2000/svg" xmlns:xlink="http://www.w3.org/1999/xlink"><defs><path id="path-1" d="M0 0h51v51H0z"/></defs><g id="Page-1" stroke="none" stroke-width="1" fill="none" fill-rule="evenodd"><g id="Home-Ten-" transform="translate(-572 -3296)"><g id="Group-3" transform="translate(572 3296)"><mask id="mask-2" fill="#fff"><use xlink:href="#path-1"/></mask><path d="M25.498 0C11.418 0 0 11.707 0 26.148c0 11.55 7.306 21.35 17.44 24.807 1.276.24 1.74-.566 1.74-1.26 0-.62-.021-2.264-.034-4.447-7.093 1.58-8.59-3.504-8.59-3.504-1.159-3.02-2.83-3.825-2.83-3.825-2.316-1.623.174-1.589.174-1.589 2.56.185 3.906 2.693 3.906 2.693 2.275 3.997 5.967 2.843 7.422 2.174.231-1.69.889-2.843 1.618-3.496-5.662-.66-11.615-2.902-11.615-12.922 0-2.854.994-5.188 2.625-7.016-.263-.661-1.138-3.32.25-6.918 0 0 2.14-.704 7.012 2.68 2.033-.58 4.216-.87 6.384-.88 2.164.01 4.347.3 6.383.88 4.868-3.384 7.005-2.68 7.005-2.68 1.392 3.599.517 6.257.254 6.918 1.634 1.828 2.622 4.162 2.622 7.016 0 10.044-5.963 12.254-11.643 12.903.915.805 1.73 2.402 1.73 4.84 0 3.496-.03 6.316-.03 7.173 0 .699.458 1.512 1.753 1.257C43.699 47.488 51 37.694 51 26.148 51 11.708 39.582 0 25.498 0" id="Fill-1" fill="#FEFEFE" mask="url(#mask-2)"/></g></g></g></svg>