<svg width="75" height="94" xmlns="http://www.w3.org/2000/svg"><g id="Page-1" stroke="none" stroke-width="1" fill="none" fill-rule="evenodd"><g id="Home-Ten-" transform="translate(-393 -62)" fill="#EB4F45"><g id="logo" transform="translate(393 62)"><path id="Path" fill-rule="nonzero" d="M22 74v2.084h-9.777V94H9.777V76.084H0V74zm5 19.994V74h20v2.084H29.498v6.67H46.14v2.083H29.498v7.08h17.486V94zM52.477 94H50V74h4.365l18.158 17.5V74H75v20h-3.326L52.477 76.084z"/><g id="Group-5" transform="translate(6)"><path id="Fill-1" d="M31 0L0 18v36l24.8-14.4-6.2-3.6-12.4 7.2V21.6l18.6-10.8v14.4l6.2 3.6z"/><path id="Fill-2" d="M34 0v28.8l6.2-3.6V10.8l18.6 10.8v21.6L46.4 36l-6.2 3.6L65 54V18z"/><path id="Fill-3" d="M51.167 22.78L34 32.658V59l17.167-9.878-5.722-3.293-5.723 3.293v-13.17l.643-.37.969-.558 9.833-5.658v6.585L56 38.732V20z"/><path id="Fill-4" d="M9 38.732l4.833-2.78v-6.586l9.833 5.658.97.557.641.37v13.17l-5.722-3.292-5.722 3.293L31 59V32.658L13.833 22.78 9 20z"/></g></g></g></g></svg>