<svg version="1.1" id="Слой_1" xmlns="http://www.w3.org/2000/svg" x="0" y="0" width="31.1" height="37" xml:space="preserve"><g id="system"><g id="pc_x2F_header" transform="translate(-360 -21)"><g id="编组" transform="translate(360 21.728)"><path id="形状结合" d="M31.1 20.6v2.5c0 7-10.2 11-13.3 12l-1.1.4v-4.3l.6-.2c4.9-1.8 9.8-4.9 9.8-7.9v-2.5h4zM15.7.1l4.2 1.3v4.4l-4.2-1.3-.3.1v9.9h4.4v4.1h-4.4v16.8l-1.2-.4c-.5-.2-1.4-.5-2.5-1l-.5-.2V1.4L15.7.1zM9.9 1.8v4.4L4.3 8v6.5H10v18.9l-1.3-.6c-3.9-2-8.5-5.3-8.5-10v-2.2h4.1v2.2c0 1 .5 2 1.5 3v-7.2H.1V4.8l9.8-3zm11.2-.1l10 3.1v13.8h-5.9v6s-1.3 1.7-4.1 3.1v-26zm78.6 6.4c3.4 0 6.2 2.7 6.3 6.1 0 3.4-2.8 6.2-6.2 6.2h-4v6.9h-3.2l-.1-19.2h7.2zM84.5 14c3.7 0 6.7 3 6.7 6.6 0 .6-.1 1.1-.2 1.7h-9.5c.6 1.1 1.7 1.8 3 1.8.6 0 1.2-.2 1.7-.4l3.5 1.1c-1.2 1.5-3.1 2.5-5.3 2.5-3.7 0-6.7-3-6.7-6.6s3-6.7 6.8-6.7zm-7.4-5.9v3.2h-.8c-1.2 0-2.2 1-2.3 2.2v.5h3.1v3.2H74v10.1h-3.2V17.2h-1.5V14h1.5v-1.1c0-2.7 2.2-4.8 4.9-4.8h1.4zM61.3 14h.3c1.2.1 2.4.4 3.3 1.1l3.1-1v13.2h-3.2v-1l-.6.3c-.3.2-.7.3-1 .4h-.1c-.1 0-.2 0-.2.1h-1.6c-1.5 0-2.9-.5-4-1.3-.3-.2-.5-.4-.7-.6-.2-.2-.4-.5-.6-.7-.8-1-1.3-2.3-1.3-3.7v-.3c-.1-3.5 2.9-6.5 6.6-6.5zm51 0s.1 0 0 0h.3c1.2.1 2.4.4 3.3 1.1l3.1-1v13.2h-3.2v-1l-.6.3c-.3.2-.7.3-1 .4h-.1c-.1 0-.2 0-.2.1h-1.6c-1.5 0-2.9-.5-4-1.3-.3-.2-.5-.4-.7-.6-.2-.2-.4-.5-.6-.7-.8-1-1.3-2.3-1.3-3.7v-.3c-.1-3.5 2.9-6.5 6.6-6.5zm11.3-5.9v19.1h-3.2v-18l3.2-1.1zm-77.5 0c3.1 0 5.4 1.6 6.7 4.1-2 .7-3.2 1-3.5 1.1-.7-1-1.6-1.7-3.2-1.7-1.5 0-2.5.8-2.5 1.8 0 1.1.7 1.7 3.5 2.6 3 .9 6.1 1.9 6.1 5.7 0 3.5-2.8 5.6-6.8 5.6-3.8 0-6.3-1.8-7.3-4.6 1.5-.5 2.6-.8 3.5-1 .7 1.3 2 2 3.9 2 2.2 0 3-.9 3-2 0-1.4-1.3-1.9-4-2.7-2.9-.8-5.6-2-5.6-5.5.1-3.4 3-5.4 6.2-5.4zM61.2 17c-2 0-3.6 1.6-3.6 3.5s1.6 3.5 3.6 3.5 3.6-1.6 3.6-3.5-1.6-3.5-3.6-3.5zm51 0c-2 0-3.6 1.6-3.6 3.5s1.6 3.5 3.6 3.5 3.6-1.6 3.6-3.5-1.6-3.5-3.6-3.5zm-27.7.2c-1.4 0-2.6.8-3.1 1.9h6.3c-.7-1.1-1.9-1.9-3.2-1.9zm15.2-5.9h-4v5.9h4c1.7 0 3-1.3 3-3 0-1.6-1.3-2.9-3-2.9zM25.2 7.4v7.1H27V7.9l-1.8-.5z" fill="#050101"/></g></g></g></svg>