<svg width="560" height="560" xmlns="http://www.w3.org/2000/svg"><g id="Page-1" stroke="none" stroke-width="1" fill="none" fill-rule="evenodd"><g id="Home-Ten-" transform="translate(-1018 -2631)"><g id="Group-15" transform="translate(1018 2631)"><path id="Line-2" stroke="#FFF" stroke-linecap="square" d="M280 281l26-221"/><path id="Line-3" stroke="#FFF" stroke-linecap="square" d="M286.496 291.762L43 248"/><path id="Line-4" stroke="#FFF" stroke-linecap="square" d="M286.014 291.613L413 464M286.014 291.613L245.5 449.5m40.514-157.887L378.5 154.5m-92.486 137.113L440.5 314.5"/><circle id="Oval" stroke="#FFF" opacity=".178" transform="rotate(47 280.5 280.5)" cx="280.5" cy="280.5" r="143"/><circle id="Oval" stroke="#FFF" opacity=".043" transform="rotate(47 280 280)" cx="280" cy="280" r="197.5"/><circle id="Oval" stroke="#FFF" fill-opacity=".158" fill="#D8D8D8" transform="rotate(47 280 280)" cx="280" cy="280" r="99.5"/><path id="Line-2" stroke="#F3BA2F" stroke-width="2" stroke-linecap="square" d="M343.07 258.333l140.68-31.168"/><g id="Group-12" transform="translate(388 171)"><g id="Group-9"><circle id="Oval" stroke="#F3BA2F" stroke-width="4" fill="#FFF" transform="rotate(47 61.5 61.5)" cx="61.5" cy="61.5" r="41.216"/><path d="M51.17 57.256l10.33-10.33L71.835 57.26l6.01-6.01L61.5 34.905l-16.34 16.34 6.01 6.01M34.905 61.5l6.011-6.011 6.01 6.01-6.01 6.01-6.01-6.009zm16.265 4.245L61.5 76.074 71.834 65.74l6.014 6.007-.003.003L61.5 88.095l-16.34-16.34-.008-.009 6.019-6.002m24.903-4.241l6.01-6.011 6.01 6.01-6.01 6.01-6.01-6.01z" id="Shape" fill="#F3BA2F" fill-rule="nonzero"/></g><path id="Path" fill="#F3BA2F" fill-rule="nonzero" d="M67.994 61.997h.003L62 56l-4.432 4.431-.51.51-1.05 1.05-.008.008.008.009L62 68l5.997-5.997L68 62l-.005-.003"/></g><path id="Line-3" stroke="#EB4F45" stroke-width="2" stroke-linecap="square" d="M277.76 277.634L132.106 121.439"/><path id="Line-4" stroke="#0033AD" stroke-width="2" stroke-linecap="square" d="M277.472 277.22L121.588 422.582"/><circle id="Oval" fill="#FFF" cx="441" cy="315" r="4"/><circle id="Oval" fill="#FFF" cx="245" cy="450" r="4"/><circle id="Oval" fill="#FFF" cx="380" cy="152" r="4"/><g id="Group-13" transform="translate(94 84)"><circle id="Oval" stroke="#EB4F45" stroke-width="4" fill="#FFF" transform="rotate(47 68.5 68.5)" cx="68.5" cy="68.5" r="46.135"/><g id="Group-5" transform="translate(39 41)" fill="#EB4F45"><path id="Fill-1" d="M29.576 0L0 16.759v33.517l23.66-13.407-5.915-3.352-11.83 6.704V20.11L23.66 10.054v13.407l5.916 3.352z"/><path id="Fill-2" d="M31.424 0v26.814l5.915-3.352V10.055L55.085 20.11v20.11l-11.83-6.703-5.916 3.352L61 50.276V16.759z"/><path id="Fill-3" d="M48.733 21.143l-17.309 8.96V54l17.31-8.96-5.77-2.988-5.77 2.987V33.091l.647-.335.978-.506 9.914-5.133v5.974l4.873 2.523V18.62z"/><path id="Fill-4" d="M7.394 35.614l4.873-2.523v-5.974l9.914 5.133.977.506.648.335v11.948l-5.77-2.987-5.77 2.987L29.577 54V30.104l-17.31-8.961-4.872-2.522z"/></g></g><g id="Group-14" transform="translate(80 318)"><circle id="Oval" stroke="#0033AD" stroke-width="4" fill="#FFF" transform="rotate(47 68.5 68.5)" cx="68.5" cy="68.5" r="46.135"/><g id="cardano-ada-logo" transform="translate(41 42)" fill="#0033AD" fill-rule="nonzero"><path d="M14.716 26.751c-.117 2.563 1.44 4.757 3.463 4.904h.218c2.038 0 3.682-2.083 3.667-4.664 0-2.581-1.644-4.664-3.681-4.646-1.95 0-3.565 1.936-3.667 4.406zm-12.777-.678c-1.014-.068-1.892.73-1.937 1.755-.045 1.026.72 1.915 1.734 1.961 1.014.068 1.87-.73 1.937-1.755a1.85 1.85 0 00-1.734-1.96zM15.543 5.38c.902-.454 1.262-1.592.811-2.503a1.849 1.849 0 00-2.478-.819c-.901.455-1.262 1.57-.811 2.48a1.814 1.814 0 002.478.843c-.022 0 0 0 0 0zm3.67 5.595c.906-.458 1.271-1.583.818-2.5a1.833 1.833 0 00-2.47-.83c-.906.459-1.271 1.584-.818 2.502a1.833 1.833 0 002.47.828zM6.351 16.457c.849.556 1.98.323 2.546-.538a1.893 1.893 0 00-.53-2.583 1.832 1.832 0 00-2.546.538 1.874 1.874 0 00.53 2.583zm1.106 7.753c-1.02-.059-1.88.723-1.938 1.756a1.846 1.846 0 001.734 1.962c1.02.059 1.88-.723 1.937-1.756a1.854 1.854 0 00-1.733-1.962zm-.932 13.231a1.876 1.876 0 00-.812 2.503 1.83 1.83 0 002.471.822 1.876 1.876 0 00.812-2.503c-.459-.911-1.57-1.287-2.47-.822zm7.181-15.402a1.81 1.81 0 002.54-.54c.558-.866.323-2.02-.533-2.572a1.81 1.81 0 00-2.54.54 1.866 1.866 0 00.533 2.572zm23.901-11.171a1.828 1.828 0 002.545-.531c.552-.857.32-2.023-.524-2.584a1.828 1.828 0 00-2.544.531 1.862 1.862 0 00.523 2.584zm3.673-5.587c.856.568 1.983.318 2.546-.545.564-.864.316-2-.54-2.568a1.836 1.836 0 00-2.547.523 1.924 1.924 0 00.54 2.59zm-2.46 17.072c-2.027-.148-3.776 1.827-3.878 4.392-.117 2.566 1.443 4.781 3.47 4.91h.204c2.027 0 3.674-2.086 3.674-4.67.015-2.454-1.516-4.503-3.47-4.632zm-18.198-.703c.626 1.564 1.893 2.557 3.29 2.557 2.024 0 3.669-2.078 3.669-4.653a5.72 5.72 0 00-.393-2.097c-.918-2.299-3.13-3.218-4.935-2.06-1.82 1.177-2.548 3.973-1.63 6.253zm29.866-5.092c.9-.466 1.254-1.597.795-2.512a1.828 1.828 0 00-2.474-.807c-.901.466-1.255 1.579-.813 2.494.477.915 1.573 1.292 2.492.825zm-9.022 2.257a1.876 1.876 0 00-.818 2.5c.459.918 1.562 1.295 2.466.83a1.876 1.876 0 00.818-2.5 1.836 1.836 0 00-2.466-.83zM29.313 3.722c1.005.053 1.87-.734 1.94-1.753C31.325.95 30.53.074 29.525.003a1.854 1.854 0 00-1.94 1.734 1.88 1.88 0 001.729 1.985zm-1.833 9.309c1.018.063 1.886-.728 1.936-1.758a1.84 1.84 0 00-1.737-1.96c-1.017-.062-1.885.73-1.935 1.759-.05 1.03.72 1.909 1.737 1.959zM15.534 35.18a1.872 1.872 0 00.818-2.497c-.459-.916-1.562-1.293-2.466-.829a1.872 1.872 0 00-.818 2.498c.458.916 1.561 1.292 2.466.828zM30.02 17.002c-1.109 2.16-.642 5.041 1.064 6.445 1.707 1.403 3.981.812 5.09-1.348 1.108-2.161.641-5.042-1.065-6.445-.598-.499-1.298-.757-2.012-.757-1.24 0-2.392.794-3.077 2.105zm6.356 15.356c-.917-2.303-3.128-3.224-4.931-2.063-1.819 1.16-2.546 3.96-1.63 6.244.917 2.302 3.128 3.223 4.931 2.063 1.804-1.142 2.546-3.905 1.644-6.208 0-.018 0-.018-.014-.036zm6.918-.397a1.81 1.81 0 00-2.54.54c-.558.866-.323 2.02.533 2.572a1.81 1.81 0 002.54-.54 1.866 1.866 0 00-.533-2.572zm8.186-5.789a1.846 1.846 0 00-1.733-1.962c-1.02-.059-1.88.723-1.937 1.756a1.846 1.846 0 001.733 1.962c1.005.059 1.88-.738 1.938-1.756zm3.783-1.961c-1.014-.068-1.893.73-1.939 1.755-.045 1.026.722 1.915 1.736 1.96 1.014.07 1.87-.729 1.938-1.754a1.868 1.868 0 00-1.735-1.961zm-4.614 13.332a1.832 1.832 0 00-2.546.538 1.893 1.893 0 00.53 2.583c.85.556 1.98.323 2.546-.538a1.874 1.874 0 00-.53-2.583zM15.713 48.722c-.854-.572-1.977-.32-2.54.525a1.89 1.89 0 00.518 2.583c.854.571 1.977.32 2.539-.526.584-.845.337-2.01-.517-2.582zm25.744-.102c-.902.454-1.262 1.592-.811 2.503a1.849 1.849 0 002.478.819c.901-.455 1.262-1.57.811-2.48a1.814 1.814 0 00-2.478-.843c.022 0 0 0 0 0zM26.982 37.002c1.105-2.156.64-5.031-1.062-6.45-1.7-1.4-3.97-.811-5.09 1.345-1.119 2.156-.639 5.031 1.062 6.45.597.498 1.295.756 2.007.756 1.25.019 2.4-.774 3.083-2.1zm-7.589 6.13a1.828 1.828 0 00-2.545.531c-.552.857-.32 2.023.524 2.584a1.828 1.828 0 002.544-.531 1.865 1.865 0 00-.523-2.584zm10.133 7.146c-1.006-.053-1.87.734-1.941 1.753-.07 1.019.724 1.895 1.73 1.966a1.854 1.854 0 001.94-1.734c.053-1.037-.723-1.913-1.729-1.985zm-1.846-9.309c-1.017-.063-1.885.729-1.935 1.759a1.841 1.841 0 001.736 1.96 1.843 1.843 0 001.935-1.76c.062-1.017-.72-1.909-1.736-1.959zm10.095 2.061a1.876 1.876 0 00-.798 2.506c.464.913 1.568 1.282 2.468.81.9-.457 1.264-1.577.813-2.49-.464-.914-1.568-1.297-2.483-.826z" id="Path"/></g></g><g id="Group-4" transform="translate(365 291)"><circle id="Oval" stroke="#FFF" fill="#050319" cx="13.5" cy="13.5" r="13"/><g id="multi-collateral-dai-dai-logo" transform="translate(2 2)" fill-rule="nonzero"><path d="M11.5 0C17.852 0 23 5.15 23 11.5 23 17.852 17.852 23 11.5 23 5.15 23 0 17.851 0 11.5 0 5.15 5.15 0 11.5 0z" id="Path" fill="#F5AC37"/><path d="M12.79 11.56h4.313c.092 0 .135 0 .142-.12.035-.438.035-.88 0-1.318 0-.085-.043-.12-.135-.12H8.527c-.106 0-.135.035-.135.134v1.262c0 .163 0 .163.17.163h4.228zm3.973-3.033a.138.138 0 000-.1 2.803 2.803 0 00-.256-.446c-.15-.24-.325-.46-.525-.66a1.74 1.74 0 00-.327-.318 5.1 5.1 0 00-2.128-1.078 5.293 5.293 0 00-1.206-.127H8.512c-.106 0-.12.042-.12.134V8.45c0 .106 0 .134.135.134h8.185s.071-.014.085-.056h-.034zm0 4.508a1.656 1.656 0 00-.363 0H8.534c-.106 0-.142 0-.142.142v2.46c0 .114 0 .142.142.142h3.632c.174.014.347.001.517-.035a5.41 5.41 0 001.54-.34 2.82 2.82 0 00.518-.241h.05a4.607 4.607 0 001.978-1.991s.05-.107-.006-.136zm-9.796 4.02v-3.92c0-.092 0-.106-.114-.106H5.314c-.085 0-.12 0-.12-.114v-1.347h1.645c.092 0 .128 0 .128-.12v-1.333c0-.085 0-.106-.114-.106H5.314c-.085 0-.12 0-.12-.113V8.648c0-.078 0-.099.113-.099h1.525c.106 0 .135 0 .135-.134V4.594c0-.114 0-.142.142-.142h5.32c.386.015.77.057 1.149.127a6.936 6.936 0 012.22.823 6.21 6.21 0 011.248.964c.28.291.534.607.759.942.223.34.409.705.554 1.085a.185.185 0 00.212.15h1.27c.163 0 .163 0 .17.155v1.163c0 .113-.043.142-.157.142h-.979c-.099 0-.127 0-.12.128.039.431.039.865 0 1.297 0 .12 0 .134.135.134h1.12c.05.064 0 .128 0 .192.007.082.007.166 0 .248v.858c0 .12-.035.156-.142.156h-1.34a.177.177 0 00-.206.135 5.68 5.68 0 01-1.49 2.17 8.543 8.543 0 01-.759.609c-.284.163-.56.333-.851.468a7.673 7.673 0 01-1.674.53 8.733 8.733 0 01-1.66.136H6.965v-.007l.002-.002z" id="Shape" fill="#FEFEFD"/></g></g><g id="Group-11" transform="translate(332 185)"><circle id="Oval" stroke="#FFF" fill="#050319" cx="13.5" cy="13.5" r="13"/><g id="usdt" transform="translate(3 3)" fill-rule="nonzero"><circle id="Oval" fill="#26A17B" cx="10.5" cy="10.5" r="10.5"/><path d="M11.781 11.459v-.001c-.072.005-.441.027-1.267.027-.658 0-1.122-.02-1.285-.027v.002c-2.537-.111-4.43-.55-4.43-1.077 0-.525 1.893-.964 4.43-1.077v1.716c.165.012.64.04 1.296.04.788 0 1.182-.033 1.256-.04V9.308c2.531.112 4.42.552 4.42 1.076 0 .526-1.889.964-4.42 1.076m0-2.33V7.591h3.532V5.25H5.697v2.342h3.532v1.536c-2.87.13-5.029.697-5.029 1.375 0 .677 2.158 1.243 5.029 1.375V16.8h2.552v-4.924c2.866-.13 5.019-.696 5.019-1.373s-2.153-1.243-5.019-1.375" id="Shape" fill="#FFF"/></g></g><g id="Group-10" transform="translate(106 236)"><circle id="Oval" stroke="#FFF" fill="#171719" cx="30.5" cy="30.5" r="30"/><g id="yearn-finance-yfi-logo" transform="translate(6 6)"><path d="M24.5 0C38.029 0 49 10.971 49 24.5S38.029 49 24.5 49 0 38.029 0 24.5 10.971 0 24.5 0z" id="SVGID" fill="#006AE3"/><path id="SVGID-2" fill="#FFF" fill-rule="nonzero" d="M23.902 34.659V14.34h2.39v20.32z"/><path d="M34.659 20.834l-7.228 1.762-1.612-6.897 2.15-.446.847 3.268s1.952-2.945-.651-5.995c-1.535-1.567-2.263-1.634-3.984-1.88-1.513-.2-5.031.27-6.08 4.046-.444 2.432.057 4.233 3.466 6.588l-.19 2.622s-3.808-2.465-4.79-4.194c-.76-1.368-2.061-4.07.29-7.832 1.265-1.881 3.76-3.686 8.157-3.496 2.211.085 7.61 2.57 6.773 8.374-.145 1.088-.76 2.536-.76 2.536l2.966-.608.646 2.152z" id="SVGID-3" fill="#FFF" fill-rule="nonzero"/><path d="M31.992 37.29c-1.332 1.856-3.898 3.607-8.318 3.311-2.227-.138-7.589-2.767-6.579-8.575.177-1.088.838-2.524.838-2.524l-3.003.534-.589-2.17 7.335-1.595 1.426 6.967-2.181.396-.76-3.306s-2.051 2.906.479 6.036c1.499 1.613 2.228 1.694 3.96 1.985 1.516.239 5.076-.153 6.242-3.918.515-2.429.062-4.251-3.3-6.704l.27-2.63s3.764 2.568 4.7 4.329c.72 1.398 1.953 4.146-.52 7.864z" id="SVGID-4" fill="#FFF" fill-rule="nonzero"/></g></g><g id="Group-7" transform="translate(270 108)"><circle id="Oval" stroke="#FFF" fill="#171719" cx="26" cy="26" r="25.5"/><g id="uniswap-uni-logo" transform="translate(11 7)" fill="#FF007A"><path d="M12.33 8.112c-.382-.056-.4-.075-.218-.093.345-.056 1.144.018 1.707.149 1.307.316 2.487 1.136 3.74 2.57l.327.39.473-.074c2.015-.335 4.085-.074 5.81.745.473.223 1.217.67 1.308.782.036.037.09.28.127.521.127.876.073 1.527-.2 2.03-.145.28-.145.354-.054.596.073.186.29.317.49.317.436 0 .89-.708 1.108-1.695l.09-.39.164.185c.926 1.062 1.653 2.533 1.762 3.576L29 18l-.163-.242c-.273-.428-.527-.708-.872-.95-.618-.428-1.271-.558-2.996-.652-1.562-.093-2.452-.223-3.324-.521-1.489-.503-2.251-1.155-4.013-3.557-.78-1.061-1.271-1.638-1.761-2.123-1.072-1.061-2.143-1.62-3.541-1.843z" id="Path" fill-rule="nonzero"/><path d="M25.352 10.993c.035-.735.122-1.219.314-1.664.07-.174.14-.329.157-.329.017 0-.018.135-.07.29-.14.426-.157 1.026-.07 1.703.122.871.175.987 1.01 1.936.384.445.837 1.006 1.01 1.238l.297.426-.296-.31c-.366-.386-1.202-1.122-1.394-1.219-.121-.077-.139-.077-.226.02-.07.077-.087.193-.087.754-.017.871-.122 1.413-.383 1.975-.14.29-.157.232-.035-.097.087-.252.104-.368.104-1.2 0-1.684-.174-2.09-1.236-2.768a12.587 12.587 0 00-.976-.561c-.278-.135-.487-.252-.47-.252.035-.038 1.063.29 1.463.484.61.271.714.29.784.271.052-.058.087-.213.104-.697zm-12.147 2.691c-.793-.905-1.303-2.31-1.19-3.356l.038-.328.19.031c.34.047.924.234 1.208.375.755.375 1.095.89 1.415 2.17.095.374.227.811.284.952.094.234.453.78.755 1.124.207.25.075.375-.397.343-.717-.062-1.68-.609-2.303-1.311zm11.729 7.826C21.29 20.026 20 18.746 20 16.575c0-.315.018-.575.018-.575.019 0 .148.111.313.241.737.594 1.565.854 3.867 1.188 1.344.204 2.117.352 2.817.593 2.228.742 3.609 2.264 3.94 4.323.092.594.037 1.726-.11 2.32-.13.463-.498 1.316-.59 1.335-.018 0-.055-.093-.055-.241-.037-.78-.423-1.522-1.068-2.097-.773-.668-1.767-1.168-4.198-2.152zm-2.582.47a3.651 3.651 0 00-.197-.722L22.057 21l.177.189c.255.258.452.567.628.996.138.327.138.43.138.962 0 .516-.02.636-.138.928-.196.464-.432.79-.825 1.151-.707.636-1.63.98-2.947 1.134-.235.017-.903.069-1.493.103-1.473.069-2.456.206-3.34.48-.118.035-.236.07-.255.052-.04-.034.57-.343 1.06-.55.688-.291 1.396-.446 2.948-.686.766-.104 1.552-.241 1.748-.31 1.945-.532 2.908-1.855 2.594-3.47z" id="Path" fill-rule="nonzero"/><path d="M23.444 25.313c-.455-1.098-.56-2.138-.315-3.12.035-.097.07-.193.105-.193.035 0 .14.058.245.135.21.154.647.424 1.767 1.098 1.418.847 2.223 1.502 2.783 2.253.49.655.788 1.406.928 2.331.087.52.035 1.772-.088 2.292-.385 1.637-1.26 2.947-2.538 3.698-.192.116-.35.193-.367.193-.018 0 .052-.193.157-.424.42-.982.473-1.926.158-2.985-.193-.655-.595-1.445-1.4-2.774-.963-1.54-1.19-1.945-1.435-2.504zm-13.067 5.093c1.328-1.209 2.961-2.066 4.469-2.34.646-.116 1.722-.077 2.315.098.95.273 1.812.858 2.26 1.58.432.7.629 1.305.826 2.65.072.526.162 1.072.18 1.189.143.702.43 1.247.79 1.54.556.448 1.525.468 2.476.078.162-.059.305-.117.305-.098.036.04-.449.39-.772.566-.448.253-.807.331-1.292.331-.861 0-1.597-.487-2.19-1.462-.125-.195-.376-.76-.591-1.286-.629-1.58-.952-2.047-1.687-2.573-.646-.449-1.472-.546-2.1-.215-.826.43-1.04 1.58-.467 2.28.234.293.664.527 1.023.586.664.097 1.239-.468 1.239-1.19 0-.467-.162-.74-.593-.954-.574-.273-1.202.039-1.184.643 0 .253.108.41.34.526.144.078.144.078.037.059-.52-.117-.646-.82-.234-1.267.503-.546 1.562-.312 1.92.448.144.312.162.935.037 1.325-.305.858-1.167 1.306-2.046 1.053-.592-.176-.844-.351-1.562-1.15-1.256-1.404-1.74-1.676-3.535-1.969L10 30.796l.377-.39z" id="Path" fill-rule="nonzero"/><path d="M.62.787C4.862 5.97 11.398 14.026 11.726 14.465c.273.367.163.715-.292.97-.255.147-.783.294-1.037.294-.292 0-.638-.147-.874-.385-.164-.164-.874-1.208-2.476-3.717A237.682 237.682 0 004.77 8.093c-.073-.036-.073-.036 2.148 3.955 1.402 2.509 1.857 3.406 1.857 3.516 0 .238-.073.366-.364.696-.492.55-.71 1.172-.874 2.472-.182 1.446-.673 2.472-2.075 4.211-.82 1.026-.947 1.209-1.147 1.63-.255.513-.328.806-.364 1.465-.037.696.036 1.135.236 1.794.182.586.383.97.874 1.721.419.66.674 1.154.674 1.337 0 .147.036.147.692 0 1.565-.366 2.858-.989 3.568-1.758.437-.476.546-.732.546-1.391 0-.421-.018-.513-.127-.77-.182-.402-.528-.732-1.275-1.244-.983-.678-1.402-1.227-1.51-1.96-.092-.622.017-1.043.564-2.197.564-1.19.71-1.685.8-2.893.055-.77.146-1.08.365-1.318.236-.257.437-.348 1.001-.422.929-.128 1.53-.366 2.003-.824.419-.384.6-.769.619-1.336l.018-.421-.237-.257C11.908 13.11.055 0 .001 0-.017 0 .274.348.62.787zm5.59 26.038a.758.758 0 00-.238-1.007c-.31-.201-.782-.11-.782.165 0 .073.036.146.145.183.164.092.182.183.055.385-.128.2-.128.384.036.512.255.202.601.092.783-.238z" id="Shape"/><path d="M13.026 17.037c-.44.105-.86.494-.989.884-.073.24-.036.674.092.81.201.209.385.269.897.269 1.008 0 1.869-.36 1.96-.794.092-.36-.293-.855-.824-1.08-.275-.12-.842-.164-1.136-.09zm1.173.749c.146-.18.091-.375-.183-.51-.495-.254-1.246-.045-1.246.345 0 .195.385.405.751.405.238 0 .568-.12.678-.24z" id="Shape"/></g></g><g id="Group-8" transform="translate(328 358)"><circle id="Oval" stroke="#FFF" fill="#171719" cx="31.5" cy="31.5" r="31"/><g id="usdc.8dd9681c" transform="translate(7 7)" fill-rule="nonzero"><circle id="Oval" fill="#2775C9" cx="24.5" cy="24.5" r="24.5"/><path d="M25.345 42.241c-9.332 0-16.897-7.564-16.897-16.896S16.013 8.448 25.345 8.448c9.332 0 16.896 7.565 16.896 16.897A16.897 16.897 0 0125.345 42.24zm-1.007-23.166a3.71 3.71 0 00-3.523 3.552c0 1.74 1.064 2.876 3.322 3.35l1.582.374c1.538.36 2.171.878 2.171 1.755 0 .877-1.107 1.74-2.545 1.74a2.732 2.732 0 01-2.589-1.309.978.978 0 00-.877-.56h-.848a.503.503 0 00-.403.589 3.926 3.926 0 003.753 2.991v1.208a1.014 1.014 0 002.028 0v-1.222a3.768 3.768 0 003.724-3.71c0-1.827-1.05-2.876-3.537-3.408l-1.438-.317c-1.438-.36-2.114-.834-2.114-1.64 0-.804.863-1.696 2.3-1.696a2.358 2.358 0 012.287 1.165 1.15 1.15 0 001.036.661h.675a.604.604 0 00.446-.719 3.81 3.81 0 00-3.422-2.876v-.992a1.014 1.014 0 00-2.028 0v1.064zm-11.662 6.27a12.64 12.64 0 008.628 11.978h.201c.358 0 .647-.29.647-.647v-.302a1.35 1.35 0 00-.834-1.25 10.584 10.584 0 010-19.63c.504-.204.834-.693.834-1.236v-.33a.604.604 0 00-.805-.576 12.64 12.64 0 00-8.671 11.993zm25.338 0a12.64 12.64 0 00-8.628-11.964h-.216a.676.676 0 00-.676.675v.216c.012.567.355 1.074.877 1.294a10.584 10.584 0 010 19.615 1.438 1.438 0 00-.863 1.28v.244a.676.676 0 00.892.633 12.64 12.64 0 008.614-11.993z" id="Shape" fill="#FFF"/></g></g><circle id="Oval" stroke="#FFF" fill="#171719" cx="263.5" cy="376.5" r="18"/><g id="binance-usd-busd-logo" transform="translate(253 366)" fill="#F0B90B" fill-rule="nonzero" stroke="#F0B90B"><path id="Path" d="M11.442 0L14 2.602 7.558 9 5 6.46zm3.778 4L18 6.833 6.78 18 4 15.233zM3 8l3 3.036L3 14l-3-2.964zm16.22 0L22 10.833 10.78 22 8 19.233z"/></g><circle id="Oval" stroke="#07A5FF" stroke-width="7" fill="#FFF" cx="280.5" cy="280.5" r="65"/><g id="cardano-ada-logo" transform="translate(290 265)" fill="#0033AD" fill-rule="nonzero"><path d="M8.003 14.366c-.063 1.377.784 2.555 1.884 2.634h.119c1.108 0 2.002-1.119 1.994-2.505 0-1.386-.894-2.505-2.002-2.495-1.06 0-1.94 1.04-1.995 2.366zm-6.948-.364a1 1 0 10.943 1.053 1 1 0 00-.943-1.053zM8.453 2.89c.49-.245.687-.856.441-1.345a1.012 1.012 0 00-1.347-.44.993.993 0 00-.441 1.332.992.992 0 001.347.453c-.012 0 0 0 0 0zm1.997 3.004c.492-.246.69-.85.444-1.343a1.003 1.003 0 00-1.343-.445 1.002 1.002 0 00.898 1.788zM3.454 8.838A1.004 1.004 0 004.84 8.55a1.009 1.009 0 00-.289-1.387 1.004 1.004 0 00-1.384.289.999.999 0 00.288 1.387zm.601 4.164a.996.996 0 00-1.053.943.996.996 0 00.943 1.053 1 1 0 00.11-1.997zm-.506 7.105a1.001 1.001 0 00.902 1.786c.49-.25.691-.845.442-1.344a1.004 1.004 0 00-1.344-.442zm3.905-8.271a.992.992 0 001.382-.29.992.992 0 00-.29-1.382.992.992 0 00-1.382.29.994.994 0 00.29 1.382zm12.999-5.999a1.002 1.002 0 001.384-.286c.3-.46.174-1.086-.285-1.388a1.002 1.002 0 00-1.383.286.993.993 0 00.284 1.388zm1.997-3.001a.998.998 0 001.385-.293.988.988 0 00-.294-1.379 1.006 1.006 0 00-1.385.281 1.025 1.025 0 00.294 1.391zm-1.337 9.168c-1.103-.08-2.054.981-2.11 2.36-.063 1.377.785 2.567 1.888 2.636H21c1.105 0 2-1.12 2-2.508.008-1.318-.825-2.418-1.887-2.488zm-9.897-.377c.34.84 1.029 1.373 1.789 1.373 1.1 0 1.995-1.116 1.995-2.499 0-.385-.071-.77-.214-1.126-.499-1.234-1.702-1.728-2.684-1.106-.99.632-1.385 2.133-.886 3.358zm16.242-2.735a1 1 0 00-.913-1.783c-.49.251-.682.849-.442 1.34.26.491.855.694 1.355.443zm-4.906 1.212c-.492.25-.694.85-.445 1.343a.999.999 0 101.786-.897 1.005 1.005 0 00-1.341-.446zm-6.61-8.105a1.012 1.012 0 001.056-.941C17.036.51 16.604.04 16.058 0A1.004 1.004 0 0015 .933a1.015 1.015 0 00.94 1.066zm-.996 4.999a.993.993 0 001.052-.944.993.993 0 00-.944-1.052.993.993 0 00-1.053.944.998.998 0 00.945 1.052zM8.448 18.893a1 1 0 10-.897-1.786 1 1 0 00.897 1.786zm7.879-9.763c-.603 1.16-.35 2.708.579 3.462.927.753 2.165.436 2.767-.724.603-1.16.35-2.708-.579-3.461A1.714 1.714 0 0018 8c-.674 0-1.3.426-1.673 1.13zm3.456 8.247c-.498-1.236-1.7-1.73-2.682-1.108-.988.624-1.384 2.127-.886 3.354.499 1.236 1.701 1.73 2.682 1.108.981-.614 1.385-2.097.894-3.334 0-.01 0-.01-.008-.02zm3.763-.213a.992.992 0 00-1.382.29.992.992 0 00.29 1.382.992.992 0 001.382-.29.994.994 0 00-.29-1.382zm4.452-3.109a.996.996 0 00-.943-1.053.996.996 0 00-1.053.943.996.996 0 00.943 1.053 1.006 1.006 0 001.053-.943zm2.057-1.053a1 1 0 10-.11 1.996 1 1 0 001.054-.943 1.008 1.008 0 00-.944-1.053zm-2.509 7.16a1.004 1.004 0 00-1.385.289 1.009 1.009 0 00.289 1.387 1.004 1.004 0 001.384-.289.999.999 0 00-.288-1.387zm-19 6.003a.998.998 0 00-1.381.283 1.007 1.007 0 00.28 1.387.998.998 0 001.382-.283.988.988 0 00-.281-1.387zm14.001-.055c-.49.245-.687.856-.441 1.345.245.489.857.684 1.347.44a.993.993 0 00.441-1.332.992.992 0 00-1.347-.453c.012 0 0 0 0 0zm-7.873-6.238c.601-1.158.348-2.702-.577-3.464-.925-.753-2.159-.436-2.768.722s-.348 2.702.577 3.464c.325.267.704.406 1.092.406.68.01 1.305-.416 1.676-1.128zm-4.127 3.291a1.002 1.002 0 00-1.384.286c-.3.46-.174 1.086.285 1.388a1.002 1.002 0 001.383-.286.994.994 0 00-.284-1.388zm5.511 3.838a1.012 1.012 0 00-1.056.941c-.038.548.394 1.018.94 1.057A1.004 1.004 0 0017 28.067a1.015 1.015 0 00-.94-1.066zm-1.004-4.999a.993.993 0 00-1.052.944.993.993 0 00.944 1.053.998.998 0 001.052-.945.997.997 0 00-.944-1.052zm5.491 1.107a1 1 0 00-.435 1.345 1 1 0 001.785-.902 1.007 1.007 0 00-1.35-.443z" id="Path"/></g><g id="binance-coin-bnb-logo-copy" transform="translate(254 236)" fill="#F3BA2F" fill-rule="nonzero"><path d="M9.785 13.447L16 7.232l6.218 6.217 3.616-3.616L16 0 6.17 9.83l3.615 3.616M0 16l3.616-3.617L7.232 16l-3.616 3.616L0 16zm9.785 2.554L16 24.768l6.217-6.217 3.618 3.614-.001.002L16 32l-9.83-9.83-.006-.006 3.622-3.61m14.982-2.552l3.616-3.617L32 16.001l-3.616 3.616-3.616-3.615z" id="Shape"/><path id="Path" d="M19.997 15.498h.001L16.5 12l-2.585 2.585-.298.297-.612.613-.005.004.005.005L16.5 19l3.498-3.498L20 15.5l-.003-.002"/></g><g id="Group-5" transform="translate(243 279)" fill="#EB4F45"><path id="Fill-1" d="M16 0L0 9v18l12.8-7.2L9.6 18l-6.4 3.6V10.8l9.6-5.4v7.2l3.2 1.8z"/><path id="Fill-2" d="M17 0v14.4l3.2-1.8V5.4l9.6 5.4v10.8L23.4 18l-3.2 1.8L33 27V9z"/><path id="Fill-3" d="M26.364 11.355L17 16.167V29l9.364-4.812-3.121-1.604-3.122 1.604V17.77l.35-.18.53-.272 5.363-2.756v3.208L29 19.126V10z"/><path id="Fill-4" d="M4 19.126l2.636-1.355v-3.208L12 17.319l.528.272.35.18v6.417l-3.12-1.604-3.122 1.604L16 29V16.167l-9.364-4.813L4 10z"/></g><circle id="Oval" fill="#FFF" cx="43" cy="248" r="4"/><circle id="Oval" fill="#FFF" cx="413" cy="464" r="4"/><circle id="Oval" fill="#FFF" cx="306" cy="60" r="4"/></g></g></g></svg>