<svg width="53" height="53" xmlns="http://www.w3.org/2000/svg" xmlns:xlink="http://www.w3.org/1999/xlink"><defs><path id="path-1" d="M0 0h53v53H0z"/></defs><g id="Page-1" stroke="none" stroke-width="1" fill="none" fill-rule="evenodd"><g id="Home-Ten-" transform="translate(-1126 -3296)"><g id="Group-3" transform="translate(1126 3296)"><mask id="mask-2" fill="#fff"><use xlink:href="#path-1"/></mask><path d="M39.52 18.164L35.174 38.65c-.303 1.455-1.183 1.803-2.401 1.13l-10.68-7.89 12.289-11.089c.539-.479-.118-.711-.834-.277L18.38 30.09l-6.55-2.045c-1.415-.433-1.425-1.405.317-2.103l25.527-9.844c1.166-.529 2.29.28 1.846 2.065M26.5 0C11.865 0 0 11.864 0 26.5 0 41.135 11.865 53 26.5 53 41.136 53 53 41.135 53 26.5 53 11.864 41.136 0 26.5 0" id="Fill-1" fill="#FFF" mask="url(#mask-2)"/></g></g></g></svg>