<svg width="40" height="36" xmlns="http://www.w3.org/2000/svg"><g id="Page-1" stroke="none" stroke-width="1" fill="none" fill-rule="evenodd"><g id="Home-Ten-" transform="translate(-378 -871)" fill="#EB4F45"><g id="TEnfi-token" transform="translate(378 871)"><path id="Fill-1" d="M19 0L0 11v22l15.2-8.8-3.8-2.2-7.6 4.4V13.2l11.4-6.6v8.8l3.8 2.2z"/><path id="Fill-2" d="M21 0v17.6l3.8-2.2V6.6l11.4 6.6v13.2L28.6 22l-3.8 2.2L40 33V11z"/><path id="Fill-3" d="M31.925 13.711L21 19.79V36l10.925-6.079-3.642-2.026-3.642 2.026v-8.105l.41-.227.616-.343 6.258-3.482v4.052L35 23.528V12z"/><path id="Fill-4" d="M5 23.527l3.075-1.71v-4.053l6.258 3.481.617.344.408.227v8.105l-3.641-2.026-3.642 2.026L19 36V19.79L8.075 13.71 5 12z"/></g></g></g></svg>