<svg width="40" height="46" xmlns="http://www.w3.org/2000/svg"><g id="Page-1" stroke="none" stroke-width="1" fill="none" fill-rule="evenodd"><g id="Home---blue-white" transform="translate(-380 -1946)" fill="#FF007A"><g id="uniswap-uni-logo" transform="translate(380 1946)"><path d="M15.426 10.145c-.493-.072-.517-.096-.282-.12.447-.073 1.481.024 2.21.193 1.692.412 3.22 1.477 4.84 3.34l.424.51.61-.098c2.61-.435 5.288-.096 7.52.969.612.29 1.575.871 1.693 1.016.047.049.117.364.164.678.165 1.138.094 1.985-.258 2.639-.188.363-.188.46-.07.775.093.242.375.411.634.411.564 0 1.151-.92 1.433-2.203l.118-.508.211.242c1.199 1.38 2.139 3.292 2.28 4.648L37 23l-.212-.315c-.352-.556-.681-.92-1.128-1.234-.799-.557-1.645-.727-3.877-.848-2.021-.12-3.173-.29-4.3-.677-1.928-.654-2.915-1.501-5.194-4.624-1.01-1.38-1.645-2.13-2.28-2.76-1.386-1.38-2.773-2.106-4.583-2.397z" id="Path" fill-rule="nonzero"/><path d="M33.293 13.563c.05-.946.171-1.568.44-2.14.097-.224.194-.423.219-.423.024 0-.025.174-.098.373-.195.548-.22 1.32-.097 2.19.17 1.12.244 1.269 1.414 2.488a39.82 39.82 0 011.414 1.593l.415.547-.415-.398c-.512-.497-1.682-1.443-1.95-1.567-.171-.1-.195-.1-.317.024-.098.1-.122.25-.122.97-.025 1.12-.171 1.817-.537 2.539-.195.373-.22.299-.049-.124.122-.324.147-.473.147-1.543 0-2.165-.244-2.688-1.732-3.559-.365-.224-1-.547-1.365-.721-.39-.174-.683-.324-.659-.324.05-.05 1.488.374 2.049.622.853.349 1 .374 1.097.349.073-.075.122-.274.146-.896zm-16.787 3.595c-.99-1.268-1.628-3.235-1.486-4.7l.047-.458.236.044c.425.065 1.156.328 1.51.524.944.525 1.369 1.246 1.77 3.038.118.524.283 1.136.354 1.333.118.328.566 1.093.944 1.574.26.35.094.524-.496.48-.896-.087-2.1-.852-2.879-1.835zM32.28 27.163C27.64 25.233 26 23.57 26 20.748c0-.41.023-.748.023-.748.024 0 .188.145.399.314.937.771 1.992 1.109 4.92 1.543 1.711.265 2.696.458 3.586.772 2.835.965 4.593 2.942 5.015 5.62.117.771.047 2.243-.14 3.014-.165.603-.634 1.713-.75 1.737-.024 0-.071-.12-.071-.314-.047-1.013-.539-1.977-1.36-2.725-.983-.868-2.249-1.52-5.342-2.798zm-3.072 1.143a5.22 5.22 0 00-.24-.962l-.12-.344.216.252c.312.344.552.756.768 1.328.168.436.168.573.168 1.283 0 .687-.024.848-.168 1.237a4.122 4.122 0 01-1.009 1.535c-.864.847-1.993 1.305-3.602 1.511-.288.023-1.104.092-1.824.138-1.801.091-3.002.275-4.083.641-.144.046-.288.092-.312.069-.048-.046.697-.458 1.297-.733.84-.39 1.705-.596 3.602-.916.936-.138 1.897-.32 2.137-.413 2.377-.71 3.554-2.473 3.17-4.626z" id="Path" fill-rule="nonzero"/><path d="M30.592 32.141c-.607-1.372-.747-2.672-.42-3.9.046-.12.093-.241.14-.241.046 0 .186.072.326.169.28.192.864.53 2.357 1.372 1.89 1.06 2.964 1.878 3.71 2.817.654.819 1.05 1.758 1.237 2.913.117.65.047 2.215-.117 2.865-.513 2.047-1.68 3.684-3.383 4.623-.257.145-.467.241-.49.241-.024 0 .07-.24.21-.53.56-1.228.63-2.407.21-3.732-.257-.818-.794-1.805-1.867-3.467-1.283-1.926-1.587-2.432-1.913-3.13zm-17.107 6.866c1.707-1.51 3.807-2.582 5.745-2.923.83-.147 2.215-.098 2.976.121 1.223.341 2.33 1.072 2.908 1.974.554.877.807 1.632 1.061 3.314.092.657.208 1.34.23 1.486.185.877.555 1.56 1.016 1.925.715.56 1.961.584 3.184.097.208-.073.393-.146.393-.122.046.049-.577.488-.993.707-.576.317-1.038.414-1.66.414-1.108 0-2.054-.61-2.816-1.827-.161-.244-.484-.95-.761-1.608-.808-1.974-1.223-2.559-2.17-3.217-.83-.56-1.891-.682-2.699-.268-1.061.536-1.338 1.974-.6 2.851.3.366.854.658 1.315.731.854.122 1.592-.585 1.592-1.486 0-.585-.207-.926-.761-1.194-.738-.341-1.546.049-1.523.804 0 .317.139.512.439.658.184.097.184.097.046.073-.67-.146-.831-1.023-.3-1.584.646-.682 2.007-.39 2.469.56.184.39.207 1.17.046 1.657-.392 1.072-1.5 1.633-2.63 1.316-.762-.22-1.085-.438-2.008-1.437-1.615-1.755-2.238-2.096-4.546-2.461L13 39.495l.485-.488z" id="Path" fill-rule="nonzero"/><path d="M.81 1.016c5.548 6.686 14.095 17.082 14.523 17.65.358.472.215.92-.38 1.251-.334.19-1.024.378-1.358.378-.38 0-.833-.189-1.142-.496-.215-.212-1.143-1.56-3.238-4.796a306.24 306.24 0 00-2.976-4.56c-.095-.047-.095-.047 2.81 5.103 1.832 3.237 2.428 4.395 2.428 4.537 0 .307-.096.472-.477.898-.642.708-.928 1.512-1.142 3.19-.238 1.866-.881 3.189-2.715 5.433-1.07 1.323-1.238 1.56-1.5 2.103-.333.662-.428 1.04-.476 1.89-.047.898.048 1.465.31 2.316.238.756.5 1.252 1.143 2.22.547.851.88 1.489.88 1.725 0 .19.048.19.905 0 2.048-.472 3.738-1.276 4.667-2.268.571-.614.714-.945.714-1.796 0-.543-.024-.661-.167-.992-.238-.52-.69-.945-1.666-1.606-1.286-.875-1.834-1.583-1.976-2.529-.12-.803.023-1.346.738-2.835.738-1.535.928-2.173 1.047-3.733.072-.992.19-1.394.476-1.7.31-.332.572-.45 1.31-.544 1.214-.166 2-.473 2.619-1.064.547-.496.785-.992.81-1.724l.023-.544-.31-.33C15.572 16.917.072 0 .001 0c-.024 0 .357.449.81 1.016zm7.31 33.597a.97.97 0 00-.31-1.3c-.405-.26-1.024-.141-1.024.213 0 .095.048.19.19.237.215.118.239.236.072.496-.166.26-.166.496.048.661.333.26.786.118 1.024-.307z" id="Shape"/><path d="M17.369 22.055c-.587.157-1.148.742-1.32 1.326-.097.36-.048 1.012.123 1.214.269.315.513.405 1.197.405 1.343 0 2.49-.54 2.613-1.192.122-.54-.39-1.28-1.1-1.618-.365-.18-1.123-.247-1.513-.135zm1.563 1.124c.195-.27.122-.562-.244-.764-.66-.383-1.661-.068-1.661.517 0 .292.513.607 1.001.607.318 0 .757-.18.904-.36z" id="Shape"/></g></g></g></svg>