<svg width="40" height="40" xmlns="http://www.w3.org/2000/svg"><g id="Page-1" stroke="none" stroke-width="1" fill="none" fill-rule="evenodd"><g id="Home-Ten-" transform="translate(-378 -1949)" fill-rule="nonzero"><g id="usdt.49e25172" transform="translate(378 1949)"><circle id="Oval" fill="#26A17B" cx="20" cy="20" r="20"/><path d="M22.042 21.364v-.002c-.142.01-.876.054-2.514.054-1.307 0-2.227-.039-2.55-.054v.004c-5.033-.222-8.789-1.097-8.789-2.144 0-1.046 3.756-1.921 8.788-2.146v3.418a38.29 38.29 0 002.573.079c1.563 0 2.346-.065 2.492-.078V17.08c5.022.223 8.769 1.099 8.769 2.143 0 1.047-3.747 1.92-8.77 2.142m0-4.64v-3.06h7.008V9H9.97v4.664h7.007v3.058C11.283 16.983 7 18.11 7 19.46s4.283 2.476 9.977 2.738V32h5.065v-9.805C27.728 21.935 32 20.808 32 19.46c0-1.348-4.272-2.474-9.958-2.737" id="Shape" fill="#FFF"/></g></g></g></svg>