<svg width="30" height="44" xmlns="http://www.w3.org/2000/svg"><g id="Page-1" stroke="none" stroke-width="1" fill="none" fill-rule="evenodd"><g id="pop-up" transform="translate(-989 -397)" fill="#000" fill-rule="nonzero"><g id="Group-2" transform="translate(616 208)"><g id="wallet_trezor" transform="translate(373 189)"><path d="M15.024 0C9.044 0 4.206 4.885 4.206 10.92v4.094c-2.1.384-4.206.895-4.206 1.56v21.36s0 .59.658.87c2.383.975 11.76 4.325 13.914 5.092.277.104.356.104.428.104.103 0 .15 0 .428-.104 2.154-.767 11.555-4.117 13.938-5.091.61-.256.634-.847.634-.847V16.573c0-.664-2.076-1.2-4.181-1.56v-4.092C25.849 4.885 20.979 0 15.024 0zm0 5.22c3.524 0 5.654 2.15 5.654 5.707v3.557a76.08 76.08 0 00-11.301 0v-3.557c0-3.563 2.13-5.707 5.647-5.707zM15 19.722c4.918 0 9.045.384 9.045 1.072v13.327c0 .207-.024.231-.206.304-.174.08-8.386 3.07-8.386 3.07s-.332.104-.429.104c-.102 0-.428-.128-.428-.128s-8.212-2.99-8.387-3.07c-.175-.08-.205-.104-.205-.305V20.77c-.049-.689 4.078-1.048 8.996-1.048z" id="Trezor"/></g></g></g></g></svg>