<svg width="41" height="41" xmlns="http://www.w3.org/2000/svg"><g id="Page-1" stroke="none" stroke-width="1" fill="none" fill-rule="evenodd"><g id="Home---blue-white" transform="translate(-377 -2310)"><g id="yearn-finance-yfi-logo" transform="translate(377 2310)"><path d="M20.5 0C31.82 0 41 9.18 41 20.5S31.82 41 20.5 41 0 31.82 0 20.5 9.18 0 20.5 0z" id="SVGID" fill="#006AE3"/><path id="SVGID-2" fill="#FFF" fill-rule="nonzero" d="M20 29V12h2v17z"/><path d="M29 17.433l-6.048 1.474-1.348-5.77 1.798-.374.709 2.734s1.634-2.464-.545-5.016c-1.284-1.311-1.893-1.367-3.333-1.574-1.266-.167-4.21.227-5.087 3.387-.372 2.034.047 3.54 2.9 5.512L17.886 20s-3.186-2.063-4.007-3.51c-.635-1.144-1.725-3.406.242-6.553 1.06-1.574 3.147-3.084 6.826-2.925 1.85.071 6.367 2.15 5.667 7.006-.121.91-.636 2.123-.636 2.123l2.482-.509.54 1.8z" id="SVGID-3" fill="#FFF" fill-rule="nonzero"/><path d="M26.77 31.202c-1.116 1.553-3.263 3.018-6.96 2.77-1.865-.115-6.35-2.315-5.506-7.174.148-.91.701-2.113.701-2.113l-2.513.448L12 23.316l6.137-1.334 1.193 5.83-1.825.331-.636-2.767s-1.716 2.432.401 5.05c1.254 1.35 1.864 1.418 3.314 1.662 1.268.2 4.247-.128 5.223-3.278.43-2.032.052-3.558-2.762-5.61l.227-2.2s3.149 2.148 3.933 3.621c.6 1.17 1.633 3.47-.436 6.58z" id="SVGID-4" fill="#FFF" fill-rule="nonzero"/></g></g></g></svg>