<svg width="243" height="219" xmlns="http://www.w3.org/2000/svg" xmlns:xlink="http://www.w3.org/1999/xlink"><defs><path id="a" d="M0 0h7v7H0z"/></defs><g fill="none" fill-rule="evenodd"><path d="M208.447 128.857c.243-.66.396-1.173.62-1.652.212-.451.456-.902.765-1.29.337-.422.735-.81 1.163-1.14.394-.304.862-.516 1.302-.758.454-.25 1.045-.18 1.59-.632-.352-.134-.565-.233-.789-.297-2.195-.626-3.63-2.02-4.307-4.186-.037-.12-.047-.252-.101-.362-.081-.162-.094-.42-.405-.355-.162.47-.287.959-.499 1.406a7.66 7.66 0 0 1-.833 1.396 5.427 5.427 0 0 1-1.073 1.052c-.435.319-.952.525-1.412.814-.413.259-.997.122-1.407.593.856.38 1.665.684 2.42 1.088a4.391 4.391 0 0 1 1.777 1.745c.42.76.734 1.578 1.19 2.578m-44.09-79.141c-4.218-1.63-4.285-2.663-5.366-5.298-.064.048-.161.082-.189.145a8.17 8.17 0 0 0-.255.705c-.526 1.637-1.535 2.877-3.09 3.643-.449.22-.946.343-1.42.516-.152.056-.335.095-.285.411.142.056.32.144.508.199 2.245.653 3.7 2.084 4.34 4.327.064.227.193.437.326.732 1.608-4.069 2.532-4.244 5.43-5.38m44.02 103.596c.355-.214.338-.577.438-.886.635-1.972 1.95-3.29 3.901-3.99.198-.07.413-.088.61-.159.18-.064.417-.097.39-.388-.628-.232-1.288-.403-1.873-.713a6.046 6.046 0 0 1-1.512-1.116c-.46-.476-.8-1.068-1.174-1.622-.37-.549-.298-1.293-.752-1.878-1.125 2.996-1.44 3.91-5.37 5.441.858.383 1.67.693 2.43 1.1a4.547 4.547 0 0 1 1.854 1.848c.407.754.707 1.565 1.059 2.363m18.027 6.96c-1.516-.461-2.752-.928-3.729-1.901-.979-.974-1.425-2.22-1.87-3.56-.398.913-.695 1.738-1.107 2.5a4.683 4.683 0 0 1-1.95 1.923c-.755.397-1.567.686-2.502 1.086.49.163.845.267 1.189.4a8.54 8.54 0 0 1 1.037.453c.33.18.654.386.942.626.32.268.619.57.885.891.24.288.448.61.623.94.175.332.274.701.438 1.038.148.305.104.71.49 1.035.399-1.353.88-2.54 1.821-3.496.973-.987 2.232-1.43 3.733-1.935m-42.738-43.863c.52-1.232.97-2.427 1.92-3.364.957-.943 2.137-1.44 3.445-1.768-.416-.407-.415-.413-.716-.497-2.152-.607-3.547-1.992-4.248-4.087-.053-.158-.061-.336-.138-.479-.063-.115-.198-.192-.335-.317-.101.197-.178.3-.209.416-.637 2.396-2.151 3.908-4.572 4.527-.18.046-.334.195-.652.388 1.44.378 2.63.855 3.588 1.797.955.94 1.44 2.117 1.917 3.384m-42.555-78.86c1.474.326 2.628.87 3.583 1.8.994.97 1.413 2.229 1.853 3.575 1.362-3.478 1.718-4.036 5.518-5.551-.967-.359-1.813-.568-2.537-1.033-.794-.51-1.477-1.14-1.914-1.963-.404-.761-.684-1.588-1.034-2.424-.354.84-.638 1.67-1.043 2.435-.437.824-1.148 1.42-1.914 1.965-.709.504-1.642.526-2.512 1.195m37.147 61.355c.411.15.746.277 1.084.392 1.916.65 3.213 1.919 3.877 3.82.082.236.112.491.21.718.05.114.198.186.4.362.33-1.409.87-2.561 1.823-3.502.941-.93 2.153-1.35 3.375-1.764-.063-.113-.075-.171-.105-.183-.313-.117-.628-.226-.943-.337-1.714-.605-2.954-1.724-3.681-3.384-.15-.342-.217-.72-.35-1.07-.048-.128-.175-.226-.296-.373-1.232 2.706-.807 3.282-5.394 5.321m17.874 66.703c.086-.219.196-.432.254-.658a5.868 5.868 0 0 1 1.264-2.422 5.822 5.822 0 0 1 2.931-1.855c.295-.08.638-.107.849-.5-.416-.129-.788-.205-1.125-.358-.569-.26-1.158-.51-1.664-.869-1.169-.828-1.92-1.963-2.265-3.358-.058-.233-.079-.51-.44-.497-.244.615-.434 1.26-.751 1.836-.3.542-.676 1.07-1.126 1.493-.48.451-1.055.828-1.644 1.133-.563.293-1.196.453-2.016.75 1.475.437 2.684.879 3.65 1.808 1 .963 1.534 2.16 2.083 3.497M171.232 56.727c-.241.607-.429 1.243-.738 1.813-.296.545-.66 1.083-1.102 1.514a7.26 7.26 0 0 1-1.627 1.166c-.562.301-1.2.466-2.004.765.426.174.638.293.866.35.962.238 1.807.69 2.536 1.347.93.838 1.55 1.862 1.83 3.086.05.222.06.518.467.485.12-.38.237-.778.374-1.167.45-1.27 1.27-2.255 2.394-2.99.604-.395 1.268-.65 1.972-.82.16-.038.287-.207.554-.411-2.937-.653-4.656-2.355-5.522-5.138m24.772 96.58c.1-.059.153-.07.167-.1.073-.147.156-.294.198-.45.61-2.3 2.075-3.76 4.368-4.42.226-.065.435-.19.812-.357-.783-.297-1.423-.473-1.995-.775-.55-.29-1.089-.651-1.525-1.088-.465-.467-.808-1.056-1.198-1.597-.384-.53-.307-1.277-.916-1.993-.31 1.475-.848 2.626-1.778 3.562-.943.949-2.125 1.458-3.568 1.791.84.631 1.767.669 2.482 1.16.739.508 1.426 1.069 1.858 1.844.422.756.72 1.58 1.095 2.422m-12.288-85.933c.197-.52.331-.85.447-1.186.468-1.358 1.311-2.433 2.556-3.148.573-.33 1.239-.497 1.854-.757.163-.07.298-.207.544-.384-.534-.171-.935-.281-1.322-.427-1.752-.661-2.967-1.857-3.603-3.615-.099-.274-.146-.567-.254-.837-.05-.124-.186-.215-.317-.356-1.037 2.93-1.686 4.008-5.464 5.346.93.405 1.804.559 2.53 1.034.713.466 1.369 1.005 1.793 1.733.436.748.752 1.566 1.236 2.597m-19.46-29.796-.021-.252c-.61-.234-1.249-.414-1.82-.719-.549-.292-1.086-.656-1.519-1.095a7.34 7.34 0 0 1-1.172-1.614c-.305-.557-.475-1.186-.785-1.99-.187.518-.304.818-.406 1.124-.666 2.01-2.03 3.323-4.037 3.991-.198.066-.42.071-.61.152-.121.052-.206.19-.38.36.473.142.832.242 1.186.356 1.286.418 2.299 1.203 3.058 2.304a5.59 5.59 0 0 1 .867 1.934c.056.245.082.559.462.697.604-2.862 2.312-4.616 5.176-5.248m44.061 92.578c-.34 1.527-.865 2.684-1.79 3.628-.94.959-2.131 1.446-3.438 1.901.751.444 1.61.606 2.322 1.073.75.491 1.434 1.06 1.866 1.837.422.759.728 1.58 1.104 2.417.497-.337.349-.977.629-1.415.292-.456.505-.968.828-1.398a5.42 5.42 0 0 1 1.065-1.061c.431-.324.942-.543 1.404-.83.447-.278 1.08-.133 1.5-.622-.153-.102-.24-.201-.345-.225-2.486-.57-4.067-2.066-4.733-4.518-.051-.185-.18-.35-.412-.787m-24.642-50.553c.446-.954.764-1.77 1.196-2.52a4.461 4.461 0 0 1 1.795-1.724c.763-.401 1.574-.714 2.516-1.132-.51-.17-.86-.29-1.212-.405a5.912 5.912 0 0 1-2.77-1.884 6.044 6.044 0 0 1-1.216-2.45c-.047-.19-.054-.43-.412-.431-.23.59-.412 1.227-.72 1.797-.294.544-.662 1.078-1.105 1.506-.475.458-1.068.798-1.624 1.168-.534.353-1.246.325-1.838.742.893.403 1.708.722 2.474 1.131a4.445 4.445 0 0 1 1.776 1.744c.42.744.726 1.55 1.14 2.458m17.889 19.2c-.55-.178-.903-.286-1.251-.407-1.27-.44-2.302-1.197-3.062-2.304a5.792 5.792 0 0 1-.924-2.177c-.038-.194-.115-.409-.404-.327-.043.075-.105.141-.123.217-.559 2.469-2.055 4.048-4.516 4.72-.233.065-.452.178-.913.362 1.477.409 2.686.835 3.647 1.751 1.003.956 1.542 2.157 1.913 3.617.675-.8.656-1.742 1.168-2.44.528-.718 1.078-1.412 1.861-1.839.765-.417 1.59-.723 2.604-1.173m-5.579-6.717c.449-1.001.77-1.844 1.195-2.63a4.467 4.467 0 0 1 1.871-1.825c.786-.41 1.632-.708 2.476-1.066-.87-.368-1.703-.656-2.473-1.065a4.623 4.623 0 0 1-1.94-1.929c-.399-.754-.697-1.56-1.062-2.397-1.522 3.789-2.006 4.02-5.543 5.43 1.353.437 2.616.858 3.604 1.838.978.97 1.451 2.19 1.872 3.644m-19.226-54.604c-.663-.528-1.407-.467-1.946-.844-.514-.358-1.085-.662-1.522-1.099a7.106 7.106 0 0 1-1.184-1.606c-.309-.564-.476-1.205-.706-1.812-.422.143-.377.478-.457.745-.642 2.127-2.044 3.508-4.165 4.18-.16.05-.34.048-.488.118-.128.061-.223.19-.404.354.505.16.903.274 1.293.413 1.36.484 2.426 1.345 3.133 2.59.306.538.46 1.16.702 1.735.07.167.206.308.41.602.361-1.438.87-2.607 1.818-3.558.94-.943 2.15-1.365 3.516-1.818m19.192 103.516c.428-.12.38-.456.46-.723.638-2.127 2.038-3.508 4.154-4.187.199-.064.414-.086.604-.169.09-.04.139-.178.243-.322-.199-.07-.348-.136-.504-.177-2.357-.614-3.879-2.07-4.53-4.414a1.83 1.83 0 0 0-.195-.45c-.033-.054-.143-.061-.284-.116-.333 1.262-.83 2.436-1.778 3.385-.942.943-2.147 1.38-3.66 1.86.828.41 1.521.457 2.066.804.528.337 1.09.653 1.528 1.088.468.465.87 1.024 1.187 1.602.31.567.479 1.211.71 1.82M171.22 69.04c-.242.608-.43 1.244-.74 1.814-.297.543-.665 1.076-1.108 1.504-.475.457-1.064.802-1.623 1.167-.536.35-1.24.345-1.918.782.418.157.689.247.95.359.537.23 1.104.417 1.597.72 1.345.828 2.192 2.039 2.59 3.561.068.255.032.6.483.632.115-.364.228-.717.337-1.07.264-.857.735-1.59 1.353-2.232a5.867 5.867 0 0 1 2.782-1.638c.29-.076.627-.106.861-.49-2.923-.6-4.669-2.317-5.564-5.109m-5.12-19.445-.004.233c.381.137.764.27 1.144.411 1.441.535 2.527 1.481 3.222 2.84.244.477.373 1.013.56 1.52.069.186.116.41.439.336.11-.339.227-.691.34-1.045.33-1.022.933-1.865 1.739-2.566a5.745 5.745 0 0 1 2.673-1.33c.207-.041.411-.105.337-.487-1.253-.253-2.403-.802-3.358-1.737-.953-.932-1.37-2.14-1.84-3.565-.442.709-.434 1.378-.763 1.89-.36.56-.7 1.149-1.154 1.627-.424.447-.954.824-1.497 1.124-.575.316-1.222.504-1.837.749m29.803 79.092c.398-.058.418-.328.476-.568a5.793 5.793 0 0 1 1.872-3.057 5.906 5.906 0 0 1 2.67-1.349c.192-.041.435-.046.415-.347-.801-.352-1.628-.65-2.386-1.068-.78-.43-1.337-1.121-1.858-1.847-.508-.709-.514-1.642-1.135-2.462-.128.417-.207.688-.294.958-.232.722-.552 1.4-1.028 1.999-.864 1.086-1.965 1.811-3.32 2.15-.234.058-.521.04-.565.461 1.228.362 2.425.817 3.374 1.762.952.947 1.43 2.13 1.779 3.368m.052-23.006c-.124.424-.199.698-.285.968-.283.888-.715 1.694-1.353 2.384a5.918 5.918 0 0 1-2.87 1.739c-.276.073-.6.075-.727.511 1.276.31 2.452.82 3.411 1.752.958.932 1.4 2.135 1.834 3.495.566-.622.477-1.374.858-1.906.365-.508.67-1.076 1.108-1.51a7.12 7.12 0 0 1 1.615-1.18c.574-.31 1.224-.477 1.999-.766-.93-.405-1.744-.703-2.502-1.105-.83-.441-1.42-1.153-1.96-1.919-.501-.71-.517-1.638-1.128-2.463m-12.185-24.35-.258.017c-.338 1.273-.855 2.436-1.81 3.382-.974.965-2.244 1.348-3.706 1.861.63.192 1.032.299 1.422.437 1.765.623 3.014 1.787 3.696 3.53.122.31.182.644.305.953.049.12.194.202.412.418.315-1.435.879-2.575 1.82-3.525.964-.976 2.243-1.35 3.64-1.85-.809-.287-1.466-.452-2.056-.75a6.15 6.15 0 0 1-1.536-1.076 7.257 7.257 0 0 1-1.195-1.6c-.315-.56-.495-1.194-.734-1.797m-6.838 5.214c-.713-.24-1.243-.375-1.733-.596a7.507 7.507 0 0 1-1.41-.818 5.494 5.494 0 0 1-1.065-1.063c-.326-.43-.575-.922-.829-1.402-.24-.453-.205-1.024-.572-1.532-.394.895-.695 1.708-1.1 2.466a4.62 4.62 0 0 1-1.953 1.92c-.772.402-1.606.688-2.438 1.035.847.365 1.704.675 2.503 1.094a4.44 4.44 0 0 1 1.861 1.837c.42.786.74 1.626 1.14 2.527 1.308-3.924 2.64-4.46 5.596-5.468m36.89 73.737c-.857-.375-1.678-.673-2.438-1.084a4.697 4.697 0 0 1-1.927-1.945c-.4-.755-.695-1.565-1.153-2.62-.312 1.608-.868 2.795-1.839 3.784-.961.98-2.23 1.368-3.69 1.876.583.19.938.298 1.287.42 1.907.664 3.228 1.916 3.883 3.833.068.197.12.401.195.596.064.165-.016.44.301.44.36-.799.671-1.614 1.084-2.376a4.503 4.503 0 0 1 1.862-1.836c.766-.407 1.586-.714 2.435-1.088m-30.176-31.53c.13-.1.182-.118.193-.15.076-.236.14-.476.215-.713.406-1.276 1.135-2.329 2.213-3.135a5.95 5.95 0 0 1 2.403-1.066c.162-.033.325-.105.26-.407-.193-.063-.422-.142-.655-.21-1.117-.327-2.087-.892-2.87-1.753-.72-.792-1.215-1.703-1.436-2.754-.042-.199-.073-.424-.362-.41-.037.029-.087.048-.098.08-.065.197-.122.395-.179.594a6.017 6.017 0 0 1-2.44 3.409 5.551 5.551 0 0 1-2.076.886c-.205.042-.417.096-.425.37 2.798 1.036 3.85 1.47 5.257 5.26m-17.97-29.838c.546.165.904.275 1.262.381a5.725 5.725 0 0 1 2.454 1.479c.817.82 1.37 1.785 1.603 2.926.045.22.053.519.484.475.05-.222.091-.464.162-.698.266-.89.67-1.712 1.295-2.413a6.092 6.092 0 0 1 2.7-1.776c.361-.119.791-.118 1.19-.482-.425-.145-.744-.234-1.048-.36-.502-.21-1.024-.393-1.484-.673-1.392-.847-2.247-2.101-2.682-3.654-.058-.207.052-.537-.33-.567-1.601 3.731-1.712 3.784-5.605 5.362m17.98 31.308c-.157.36-.227.502-.28.65-.154.431-.26.885-.46 1.295-.817 1.684-2.172 2.731-3.975 3.23-.217.059-.538-.028-.596.43.245.08.503.171.764.252 1.88.585 3.233 1.754 3.98 3.577.14.346.196.726.323 1.078.045.125.184.216.375.427.104-.381.161-.617.231-.85.644-2.12 2.026-3.526 4.142-4.219.199-.065.415-.085.606-.166.095-.04.151-.171.233-.27-3.075-1.104-4.036-1.818-5.343-5.434m42.947 17.644c-1.696-.29-2.93-.852-3.95-1.862-1.017-1.006-1.415-2.318-1.918-3.937-.597 3.302-2.348 5.165-5.6 5.839 1.019.437 1.828.73 2.584 1.125a4.683 4.683 0 0 1 1.96 1.909c.416.76.716 1.583 1.086 2.42.391-.85.724-1.698 1.16-2.49a4.42 4.42 0 0 1 1.874-1.817c.81-.413 1.676-.717 2.804-1.187m-18.192 19.341c-.794 2.887-2.505 4.713-5.47 5.177-1.668.261-3.17-.269-4.493-1.286-1.274-.981-1.928-2.358-2.265-3.928l-.243.066c-.07.214-.147.428-.212.644-.678 2.27-2.125 3.805-4.46 4.359-3.698.876-6.669-1.636-7.304-4.544-.65-2.977 1.122-6.098 4.14-7.002.352-.105.693-.24 1.226-.428l-1.262-.412c-2.522-.819-4.287-3.042-4.262-5.645.027-2.804 1.667-4.923 4.248-5.794.338-.113.768-.055.974-.563-1.303-.307-2.482-.82-3.442-1.76-.958-.938-1.407-2.14-1.835-3.532-.186.247-.306.351-.354.481-.115.314-.177.647-.294.96-1.034 2.748-4.123 4.593-7.57 3.5-2.158-.683-3.996-2.841-4.037-5.531a5.938 5.938 0 0 1 3.816-5.689c.428-.155.865-.285 1.264-.415.065-.278-.074-.361-.242-.412-.241-.073-.49-.12-.729-.202-1.873-.643-3.153-1.886-3.812-3.749-.124-.35-.237-.703-.39-1.16-.16.182-.3.278-.352.408-.121.31-.181.645-.301.956-.927 2.414-3.22 3.903-5.823 3.828-3.13-.09-5.09-2.342-5.593-4.321-1.09-4.29 2.024-7.093 4.767-7.558 2.544-.432 5.732.954 6.769 4.043.113.339.045.769.53 1.032.434-1.222.829-2.442 1.786-3.371.962-.934 2.114-1.489 3.375-1.745.049-.38-.153-.444-.361-.486a5.77 5.77 0 0 1-2.865-1.513c-3.195-3.045-2.132-8.343 1.997-9.933.423-.163.86-.288 1.29-.431-.128-.41-.452-.409-.727-.483a5.838 5.838 0 0 1-2.515-1.394c-.718-.672-1.263-1.457-1.57-2.396-.128-.391-.258-.781-.425-1.286-.163.207-.294.314-.346.45-.117.313-.175.648-.292.96-.804 2.155-2.743 3.779-5.544 3.91-3.106.147-5.912-2.512-6.052-5.59-.136-2.998 1.445-5.248 4.336-6.177.3-.097.595-.21 1.11-.391l-1.268-.422c-1.827-.61-3.168-1.779-3.825-3.58-1.233-3.38.504-6.737 3.714-7.832.386-.132.773-.261 1.385-.468-.586-.19-.937-.314-1.294-.42-2.21-.653-4.237-2.89-4.198-5.803.031-2.367 1.584-4.822 4.249-5.645.316-.097.62-.233.928-.358.025-.01.028-.069.059-.153-.396-.126-.792-.25-1.187-.378-2.254-.729-4.004-3.005-4.048-5.53-.05-2.9 1.906-5.06 3.921-5.745.279-.095.57-.152.844-.259.14-.055.251-.182.49-.364-1.431-.4-2.652-.913-3.615-1.911-.926-.958-1.348-2.161-1.726-3.432-.413.371-.39.82-.54 1.2-.904 2.294-2.518 3.747-5.04 4.005-2.607.267-4.635-.738-5.941-2.996-1.723-2.98-.53-7.06 3.011-8.474.424-.17.865-.295 1.42-.482-.175-.17-.259-.308-.38-.357-.271-.11-.567-.16-.843-.263-1.813-.667-3.033-1.918-3.671-3.729-.125-.355-.23-.718-.35-1.075-.01-.032-.064-.05-.165-.125-.139.403-.272.785-.402 1.168-.827 2.434-3.047 4.138-5.628 4.137-3.147 0-5.138-1.968-5.849-4.18-1.006-3.132.662-6.402 3.8-7.489.352-.122.714-.218 1.184-.36-.148-.16-.224-.31-.34-.354-.314-.119-.651-.173-.965-.288-1.818-.667-3.018-1.939-3.668-3.739-.125-.345-.236-.696-.391-1.158-.39.407-.394.834-.528 1.2-.66 1.797-1.87 3.056-3.688 3.718-3.892 1.418-8.21-1.506-8.05-5.852.134-3.696 3.23-5.72 5.745-5.752 2.882-.037 5.137 1.492 6.04 4.223l.337 1.02c.344-.233.376-.569.454-.86.268-.994.776-1.846 1.485-2.591 2.8-2.94 8.346-2.344 10.029 2.195.143.388.252.788.376 1.18.355-.004.29-.273.356-.434.08-.193.129-.398.196-.597.87-2.589 3.109-4.137 5.855-4.137 2.581-.001 4.915 1.768 5.662 4.234.095.314.208.623.31.928.375 0 .305-.271.354-.437.211-.727.452-1.44.893-2.068 1.444-2.051 3.446-2.915 5.915-2.587 2.336.31 3.899 1.664 4.766 3.823.108.271.154.567.262.838.055.138.181.25.302.407 1.159-2.959 1.525-3.852 5.268-5.277-.169-.372-.544-.341-.852-.442-1.973-.647-3.377-1.906-3.978-3.896-1.11-3.67 1.03-6.956 4.36-7.674 3.851-.83 6.571 1.731 7.243 4.493.613 2.52-.65 5.927-4.06 7.058-.345.114-.767.075-.944.442.878.415 1.78.764 2.601 1.25.845.501 1.446 1.275 1.893 2.152.447.875.685 1.812.669 2.785a5.954 5.954 0 0 1-.726 2.772 6.229 6.229 0 0 1-1.93 2.13c-.77.541-1.699.775-2.571 1.205 3.14.855 4.963 2.753 5.226 5.948.08.966-.19 1.91-.624 2.792a6.119 6.119 0 0 1-1.944 2.276c-.787.571-1.711.832-2.598 1.111.01.37.243.39.44.433 1.235.267 2.27.877 3.127 1.792.674.72 1.117 1.568 1.391 2.508.067.23.14.458.259.85.183-.246.323-.351.347-.479.157-.794.46-1.53.93-2.182 1.393-1.93 3.297-2.878 5.673-2.589 2.527.308 4.315 1.71 5.05 4.152 1.029 3.413-.81 6.324-3.583 7.39-.419.162-.85.288-1.278.431.14.416.465.405.74.482 1.392.389 2.495 1.18 3.34 2.346 1.992 2.755 1.298 7.565-2.978 9.09-.391.14-.795.244-1.366.417.347.171.538.308.75.365 2.471.662 3.992 2.226 4.575 4.7.025.11.112.206.22.396.129-.177.252-.288.301-.426.128-.353.195-.73.335-1.076.98-2.42 3.357-3.908 6.018-3.73 2.372.16 4.722 1.725 5.377 4.43.88 3.635-1.193 6.236-3.787 7.198-.42.156-.853.282-1.507.497.585.193.935.319 1.29.424 2.172.643 4.237 2.822 4.204 5.8-.03 2.548-1.731 4.87-4.239 5.65-.318.098-.627.224-.938.344-.029.011-.039.07-.083.156.402.129.796.257 1.191.382 2.026.637 4.056 2.734 4.068 5.641.01 2.663-1.725 4.884-4.01 5.694-.375.133-.85.08-1.165.57 1.27.42 2.485.847 3.423 1.797.942.954 1.473 2.119 1.771 3.41.475-.178.457-.548.553-.855.467-1.508 1.36-2.7 2.748-3.47 4.194-2.324 8.98.655 9.053 5.044.04 2.354-1.417 4.94-4.164 5.832l-.892.288c-.06.3.098.366.259.416.16.05.329.073.49.123 2.742.843 4.417 3.348 4.298 5.982-.108 2.404-1.58 4.51-3.897 5.38-.388.146-.786.266-1.288.434.168.164.254.306.378.358.23.097.489.124.725.209 1.957.702 3.256 2.032 3.858 4.02.06.2.116.402.173.603.052.182.101.366.22.8l.434-1.43c.65-2.137 2.551-4.228 5.772-4.275 2.43-.036 4.63 1.458 5.523 3.722.939 2.38.462 4.523-1.256 6.396-.666.727-1.502 1.214-2.448 1.504-.397.122-.799.232-1.283.372.345.389.775.384 1.152.503 2.032.643 3.412 1.962 4.048 3.987.97 3.086-.68 6.327-3.746 7.416-.392.139-.793.255-1.25.401.29.38.677.394 1.015.507 2.12.708 3.498 2.12 4.07 4.276.973 3.668-1.832 7.31-5.642 7.434-2.517.082-5.11-1.503-5.958-4.192-.11-.345-.247-.682-.407-1.121-1.36 3.568-1.965 4.16-5.459 5.457.345.317.765.334 1.13.46 1.824.631 3.133 1.823 3.777 3.629 1.18 3.3-.532 6.697-3.82 7.783-.348.115-.697.227-1.304.423.63.216 1.006.342 1.38.472 2.073.718 3.439 2.14 3.934 4.244.828 3.52-1.289 6.307-4.043 7.155-4.032 1.242-8.054-1.86-7.819-6.048.161-2.86 2.066-4.646 3.997-5.319.393-.136.791-.257 1.212-.393-.19-.394-.545-.405-.85-.491-1.26-.354-2.302-1.04-3.093-2.07-2.807-3.652-.731-8.173 2.808-9.366l1.401-.472c-1.551-.453-2.79-.948-3.762-1.934-.938-.952-1.435-2.134-1.874-3.421M90.438 24.003c-.87-.38-1.683-.683-2.442-1.083a4.517 4.517 0 0 1-1.862-1.82c-.415-.753-.72-1.565-1.115-2.447-.364.82-.663 1.618-1.062 2.365a4.607 4.607 0 0 1-1.94 1.914c-.762.4-1.58.698-2.424 1.064.886.384 1.71.682 2.476 1.088a4.53 4.53 0 0 1 1.854 1.828c.407.743.715 1.538 1.105 2.392 1.371-3.548 2.13-4.068 5.41-5.3m-5.313 6.885c-.363.12-.384.383-.45.617-.728 2.536-2.444 4.03-5.07 4.43-3.134.478-6.363-1.75-6.755-5.11-.402-3.462 1.887-5.835 4.466-6.509.238-.062.475-.126.863-.229-.84-.59-1.772-.61-2.495-1.096-.778-.524-1.504-1.102-1.954-1.913-.415-.748-.716-1.556-1.074-2.353-.374.296-.366.737-.5 1.117-.854 2.43-3.199 4.043-5.823 4.007-2.502-.034-4.76-1.63-5.604-3.964-.127-.35-.235-.708-.358-1.06-.011-.033-.061-.053-.142-.119-.296.31-.319.725-.447 1.093a6.02 6.02 0 0 1-6.046 4.039c-3.178-.184-5.476-2.548-5.717-5.486-.22-2.694 1.515-5.628 4.845-6.233 3.675-.668 6.111 1.563 6.922 3.93.12.35.25.697.38 1.043.009.021.064.025.167.06.117-.347.236-.692.35-1.04.859-2.633 3.39-4.106 5.738-4.111 2.288-.005 4.853 1.387 5.765 4.081.118.347.232.694.345 1.034.369-.022.295-.284.362-.447.218-.537.362-1.115.655-1.609 1.352-2.27 3.41-3.3 6.058-2.99 2.502.294 4.124 1.75 4.982 4.048.126.337.072.75.501 1.043.071-.152.14-.277.189-.41.168-.466.273-.964.504-1.399 1.204-2.276 3.116-3.44 5.75-3.314 2.525.121 4.256 1.415 5.275 3.654.136.3.193.632.305.944.05.14.146.263.295.521.14-.244.232-.362.28-.495.1-.272.165-.557.266-.829.875-2.346 3.259-3.84 5.684-3.83 2.274.008 4.745 1.414 5.636 3.894.15.418.269.848.45 1.423.178-.235.301-.34.347-.47.123-.351.185-.724.32-1.07 1.44-3.652 5.952-4.85 9.051-2.688 2.108 1.47 2.9 3.557 2.427 5.994-.457 2.355-2.002 3.85-4.361 4.54-2.648.774-6.178-.639-7.249-3.904-.102-.312-.195-.626-.299-.937-.01-.029-.064-.043-.1-.066-.234-.035-.272.146-.32.299-.097.316-.158.644-.275.953-.89 2.343-3.133 3.877-5.656 3.878-2.525.001-4.77-1.528-5.665-3.869-.156-.407-.284-.825-.477-1.392-.517.67-.45 1.398-.828 1.928-.386.54-.726 1.127-1.191 1.593-.435.435-.977.794-1.528 1.084-.58.305-1.226.49-1.945.765.399.384.84.372 1.206.501 1.322.466 2.371 1.261 3.123 2.419 2.316 3.568.185 8.03-3.696 8.962-2.603.626-6.022-.724-7.093-3.823l-.39-1.129M17.003.007C20.3.017 23.037 2.76 23 6.015c-.037 3.255-2.822 6.032-6.06 5.985-3.108-.046-5.955-2.505-5.941-6.046.015-3.789 3.281-6.096 6.003-5.946" fill="#265D33"/><path d="M208 177.99c-.057 2.857-2.077 5.95-5.971 6.01-3.585.054-5.999-2.823-6.029-5.91-.032-3.322 2.503-6.134 5.992-6.09 3.8.049 5.904 2.975 6.008 5.99M165.056 111c3.086.04 5.968 2.479 5.944 6.06a5.951 5.951 0 0 1-6.044 5.94c-3.34-.039-5.975-2.711-5.956-6.041.018-3.295 2.75-5.983 6.056-5.959M22.993 18.066c.137 2.762-2.228 5.96-6.025 5.934-3.844-.027-6.044-3.307-5.966-6.018.094-3.296 2.786-6.105 6.049-5.978 4.006.156 6.087 3.358 5.942 6.062M24.002 6.06C23.92 3.21 26.107.103 29.98.003c3.245-.084 5.98 2.64 6.02 5.885.043 3.349-2.568 6.116-5.912 6.113-3.953-.003-6.127-3.17-6.085-5.94m152.973 141.94c3.493-.074 6.034 2.882 6.024 5.996-.01 3.077-2.436 6.038-6.036 6.003-3.827-.037-5.94-3.219-5.964-5.953-.027-3.12 2.51-6.098 5.976-6.046M59.993 6.19c.032 3.113-2.774 5.91-6.206 5.807-2.895-.085-5.903-2.622-5.784-6.255.091-2.77 2.516-5.804 6.168-5.741 2.91.05 6.001 2.545 5.822 6.19M67.01.004c3.333-.102 6.024 2.834 5.99 6.065-.033 3.093-2.682 5.929-6.018 5.931-3.065.002-6.016-2.598-5.982-6.091.032-3.177 2.742-6.028 6.01-5.905m66.994 54.971c-.118-2.889 2.29-5.937 5.938-5.975 3.528-.037 6.058 2.888 6.058 6.008 0 2.564-1.911 5.857-5.962 5.989-3.304.108-6.04-2.67-6.034-6.022M190.022 49c-3.42-.078-6.03-2.69-6.022-6.026.007-3.23 2.48-5.924 5.92-5.973 3.312-.048 6.05 2.44 6.08 5.937.03 3.534-2.725 5.968-5.978 6.062" fill="#265D33"/><path d="M42.017 11.994C38.969 12.13 35.976 9.5 36 5.956 36.023 2.62 38.844.016 41.995 0 44.94-.014 48.03 2.415 48 6.065c-.029 3.601-3.117 6.07-5.983 5.93m190.978 166.057c.09 3.152-2.674 5.959-6.006 5.948-3.316-.01-5.98-2.825-5.989-5.992-.009-3.075 2.576-6.047 6.099-6.008 3.248.036 6.033 2.819 5.896 6.052M127.953 12.004c3.315-.131 6.03 2.755 6.047 5.933.016 3.06-2.424 6.024-5.949 6.063-3.303.036-6.04-2.662-6.051-5.965-.011-3.599 2.966-6.126 5.953-6.03m-6.958 18.503c.115 2.544-1.916 5.524-5.554 5.492-3.108-.028-5.451-2.363-5.441-5.504.012-3.686 3.091-5.474 5.454-5.496 3.02-.028 5.66 2.535 5.541 5.508M73.004 5.504c-.11-2.51 1.963-5.44 5.461-5.503C80.946-.044 84.041 1.803 84 5.558c-.041 3.685-3.037 5.477-5.53 5.441-3.49-.05-5.572-2.968-5.466-5.495M46.995 18.5c.12 2.347-1.73 5.452-5.454 5.5-2.922.037-5.421-2.128-5.538-5.444-.107-3.038 2.47-5.548 5.544-5.556 3.106-.007 5.548 2.658 5.448 5.5m111.002 85.952c.105 3.202-2.658 5.52-5.407 5.548-2.61.026-5.61-1.92-5.59-5.508.019-3.396 2.642-5.48 5.491-5.492 3.163-.013 5.553 2.523 5.506 5.452m-5.554-42.447c2.858-.135 5.54 2.352 5.557 5.468.013 2.39-1.765 5.523-5.516 5.527-3.372.003-5.504-2.72-5.484-5.549.023-3.329 2.882-5.557 5.443-5.446m-11.988-38.011c-2.73.102-5.493-2.318-5.455-5.602.03-2.525 2.12-5.413 5.549-5.392 3.197.02 5.443 2.695 5.451 5.486.009 3.15-2.694 5.652-5.545 5.508m-36.77 1.01c3.08.072 5.432 2.598 5.31 5.637-.148 3.711-3.214 5.488-5.742 5.352-2.86-.155-5.38-2.43-5.248-5.72.127-3.164 2.657-5.378 5.68-5.27m-31.691 5.489c.128 2.377-1.814 5.477-5.487 5.508-3.277.027-5.504-2.78-5.507-5.506-.003-2.555 2.055-5.496 5.506-5.494 3.553.002 5.626 3.06 5.488 5.492M29.487 13.006c2.69-.133 5.509 2.124 5.513 5.46.004 3.284-2.694 5.521-5.478 5.534-2.424.01-5.49-1.778-5.522-5.499-.03-3.5 2.904-5.61 5.487-5.495m190.507 91.479c.132 2.586-2.013 5.542-5.532 5.515-3.2-.025-5.454-2.561-5.462-5.484-.008-3.344 2.816-5.535 5.556-5.516 2.951.02 5.54 2.561 5.438 5.485m-12.999-36.941c.098 2.921-2.49 5.501-5.592 5.455-2.4-.035-5.438-1.925-5.403-5.54.032-3.356 2.665-5.46 5.49-5.459 3.39 0 5.63 2.787 5.505 5.544M128.46 37.005c2.811-.126 5.563 2.26 5.54 5.516-.024 3.328-2.839 5.459-5.474 5.479-2.694.02-5.547-2.197-5.526-5.541.022-3.354 2.878-5.575 5.46-5.454m42.534 104.508c.13 2.48-1.925 5.517-5.524 5.487-3.015-.025-5.364-2.281-5.467-5.455-.098-3.021 2.445-5.5 5.498-5.544 3.073-.046 5.618 2.6 5.493 5.512m-87-99.069c.14 2.934-2.356 5.552-5.443 5.556-3.036.004-5.583-2.518-5.55-5.505.033-2.995 2.465-5.463 5.433-5.495 3.376-.036 5.67 2.8 5.56 5.444m74.001-23.986c.13 3.098-2.604 5.537-5.48 5.542-2.694.005-5.524-2.167-5.515-5.524.008-2.889 2.244-5.522 5.56-5.475 3.626.05 5.549 3.04 5.435 5.457m43.532 177.54c-3.037.002-5.478-2.432-5.526-5.455-.042-2.629 2.052-5.556 5.561-5.543a5.445 5.445 0 0 1 5.438 5.51c-.026 3.522-2.97 5.563-5.473 5.488M213.97 87.003c2.707-.09 5 2.281 5.03 4.933.029 2.506-2.011 5.07-5.04 5.064-2.492-.005-4.972-1.988-4.96-5.011.013-3.25 2.742-5.07 4.97-4.986M0 6.019C-.007 3.235 2.277.929 5.043 1.002c2.958.077 4.95 2.426 4.957 4.98.007 2.664-2.09 4.997-5.047 5.018C2.223 11.02.006 8.745 0 6.019m189.993 29.977c-2.481.11-4.977-2.022-4.993-4.92-.015-2.793 2.234-5.13 5-5.075 3.274.064 4.99 2.688 5 4.951.014 3.012-2.498 5.157-5.007 5.044m36.911 97.998c-2.285.034-4.973-1.909-4.903-5.12.065-2.998 2.67-4.949 5.162-4.872 2.227.07 4.873 1.893 4.837 5.066-.037 3.189-2.794 5.05-5.096 4.926m-32.909 44.479c.109 2.267-1.742 4.524-4.49 4.527-2.655.003-4.516-2.143-4.505-4.527.012-2.66 2.273-4.449 4.445-4.473 2.408-.026 4.618 1.947 4.55 4.473M148 92.444c.027-2.442 2.054-4.445 4.498-4.444 2.121.001 4.534 1.573 4.502 4.553-.03 2.771-2.219 4.47-4.611 4.447-2.443-.023-4.415-2.11-4.389-4.556m78.437 102.552c-2.281.052-4.44-1.81-4.437-4.543.003-2.495 2.09-4.48 4.558-4.453 2.454.027 4.52 2.115 4.44 4.575-.088 2.686-2.211 4.518-4.561 4.421m4.556-78.522c.117 2.369-1.924 4.56-4.527 4.526-2.713-.037-4.447-2.316-4.466-4.49-.017-1.956 1.543-4.535 4.556-4.51 2.912.025 4.569 2.529 4.437 4.474m-16.547 82.529c2.738-.098 4.543 2.299 4.554 4.473.01 1.968-1.546 4.533-4.517 4.524-2.48-.007-4.436-1.906-4.482-4.422-.05-2.777 2.22-4.657 4.445-4.575M161 18.446c.015-2.473 2.02-4.447 4.515-4.446A4.457 4.457 0 0 1 170 18.47c.014 2.465-1.813 4.429-4.443 4.527-2.499.093-4.572-2.028-4.557-4.55m-8.517 65.55c-2.397.096-4.498-1.976-4.483-4.526.015-2.56 2.249-4.508 4.57-4.47 2.425.038 4.416 2.19 4.43 4.49.013 2.247-1.892 4.61-4.517 4.506M87.003 42.96c-.072-2.065 1.672-3.992 4.015-3.96 2.402.034 4.009 1.923 3.982 4.027-.027 2.086-1.551 3.981-4.048 3.973a3.89 3.89 0 0 1-3.949-4.04m130.993 37.067c.089 2.13-1.835 4.031-4.034 3.972-2.178-.06-3.94-1.781-3.962-3.957-.022-2.21 1.786-4.038 4.004-4.042 2.354-.004 4.094 2 3.992 4.027m-12.005-24.982c.098 1.94-1.7 3.965-4.014 3.955-1.771-.008-3.971-1.408-3.977-3.998-.005-2.345 1.875-4.038 4.082-4.001 2.461.04 4.05 2.19 3.91 4.044m-52.91 57.96c2.18.03 3.997 1.875 3.915 4.05-.086 2.31-1.864 3.955-4.028 3.945-2.462-.011-4.034-2.129-3.967-4.118.07-2.048 1.788-3.995 4.08-3.877m89.913 41.04c.081 1.907-1.484 3.994-4.033 3.954-2.378-.036-3.986-1.808-3.962-4.048.029-2.612 2.222-3.962 4.056-3.951 2.015.012 4.06 1.755 3.939 4.045m-53.03-132.051c-2.069.093-3.982-1.764-3.965-4.062.013-1.69 1.352-3.918 3.971-3.932A3.98 3.98 0 0 1 194 18.005c-.01 2.258-1.906 4.113-4.035 3.99m-15.963 144.499c-.072-2.036 1.729-3.48 3.473-3.494 1.488-.012 3.491 1.099 3.525 3.453.028 1.99-1.541 3.542-3.543 3.547-1.639.004-3.533-1.383-3.455-3.506M226.536 200c1.9.013 3.482 1.557 3.464 3.47a3.511 3.511 0 0 1-3.534 3.53c-1.6-.015-3.398-1.236-3.465-3.48-.058-1.943 1.58-3.533 3.535-3.52m-27.533 3.484c.006-1.901 1.545-3.478 3.444-3.484 1.663-.006 3.484 1.175 3.552 3.528.053 1.868-1.58 3.44-3.47 3.472-1.99.032-3.606-1.666-3.526-3.516" fill="#265D33"/><g transform="translate(211 212)"><mask id="b" fill="#fff"><use xlink:href="#a"/></mask><path d="M3.508.001c1.556-.04 3.531 1.221 3.491 3.56-.038 2.272-1.944 3.448-3.497 3.44C1.566 6.987-.026 5.377 0 3.433.025 1.629 1.576-.01 3.508 0" fill="#5A5A5A" mask="url(#b)"/></g><path d="M180.996 6.455c.096 1.946-1.521 3.533-3.511 3.545-1.922.012-3.414-1.558-3.483-3.466-.056-1.523 1.125-3.53 3.534-3.534 2.063-.004 3.535 1.703 3.46 3.455M132 55.527A3.51 3.51 0 0 1 128.49 59c-2.01.003-3.503-1.56-3.49-3.593.012-2.005 1.73-3.43 3.544-3.407 1.882.025 3.475 1.638 3.456 3.527M54.486 33.994c-1.641.112-3.506-1.278-3.486-3.468.019-1.964 1.535-3.525 3.467-3.526 1.907-.001 3.531 1.61 3.533 3.504.002 1.93-1.563 3.483-3.514 3.49M152.544 126c1.976.008 3.465 1.523 3.456 3.517-.009 1.987-1.52 3.494-3.492 3.483-1.937-.011-3.521-1.601-3.508-3.52.014-1.928 1.602-3.487 3.544-3.48m89.451 15.507c.095 1.618-1.222 3.43-3.437 3.492-1.748.048-3.562-1.276-3.558-3.516.003-1.95 1.5-3.41 3.445-3.481 1.73-.062 3.648 1.426 3.55 3.505m0 24.997c.1 1.699-1.345 3.528-3.56 3.496-1.811-.027-3.436-1.447-3.435-3.501 0-2.11 1.727-3.525 3.575-3.499 1.917.027 3.512 1.657 3.42 3.504M69.994 43.052c.056 1.408-1.148 3.004-3.071 2.947-1.858-.056-2.994-1.561-2.92-3.1.078-1.61 1.398-2.962 3.01-2.897 2.053.083 3.074 1.712 2.981 3.05M189.99 9c-1.688-.003-2.978-1.283-2.99-2.97-.012-1.745 1.323-3.065 3.066-3.03A2.97 2.97 0 0 1 193 6.04c-.021 1.674-1.33 2.962-3.01 2.96M138 67.447c-.012-1.513 1.265-2.443 2.462-2.447 1.302-.005 2.536.963 2.538 2.518.002 1.338-1.159 2.463-2.49 2.482-1.392.02-2.524-1.131-2.51-2.553m29 86.61c-.023 1.125-.885 1.952-2.027 1.943-1.153-.009-1.968-.827-1.973-1.98-.005-1.193.88-2.056 2.072-2.019a1.995 1.995 0 0 1 1.928 2.056" fill="#265D33"/></g></svg>