<svg width="233" height="271" xmlns="http://www.w3.org/2000/svg"><path d="M17.002 0a6 6 0 1 0 0 12A5.996 5.996 0 0 0 23 6.001 5.998 5.998 0 0 0 17.002 0ZM23 6.001A5.999 5.999 0 0 0 29 12a6 6 0 1 0-6-5.999Zm13 0A5.997 5.997 0 0 0 41.999 12 6.001 6.001 0 1 0 36 6.001Zm12 0A6 6 0 0 0 54.001 12 6 6 0 1 0 48 6.001Zm12 0A5.998 5.998 0 0 0 66 12a6.001 6.001 0 1 0-6-5.999Zm13 0A5.996 5.996 0 0 0 78.998 12a6 6 0 1 0 0-12A5.998 5.998 0 0 0 73 6.001Zm12 0A6 6 0 1 0 97 6a6 6 0 0 0-12 .002Zm12 0A6 6 0 0 0 103.001 12 5.997 5.997 0 0 0 109 6.001a6.001 6.001 0 1 0-12 0ZM103.001 13A6 6 0 1 0 103 25a6 6 0 0 0 .002-12Zm0 12A5.998 5.998 0 0 0 97 30.998a6 6 0 1 0 12 0A5.996 5.996 0 0 0 103.001 25ZM110 30.998a6.001 6.001 0 1 0 12.002.002A6.001 6.001 0 0 0 110 30.998ZM116 37a6 6 0 1 0 0 12 6 6 0 0 0 0-12Zm6 6.001a6 6 0 1 0 12-.003 6 6 0 0 0-12 .003ZM127.998 50a6 6 0 1 0 .004 12 6 6 0 0 0-.004-12ZM134 56a6 6 0 1 0 12.001-.001A6 6 0 0 0 134 56Zm6.001 6a6.001 6.001 0 1 0 0 11.998 6.001 6.001 0 0 0 0-11.998Zm0 12a6.001 6.001 0 1 0 0 12.002 6.001 6.001 0 0 0 0-12.002ZM147 79.999a6 6 0 1 0 12.001.001A6 6 0 0 0 147 80ZM153 87a6.001 6.001 0 1 0 .002 12.002A6.001 6.001 0 0 0 153 87Zm6 6.002A5.996 5.996 0 0 0 164.999 99 5.998 5.998 0 0 0 171 93.002a6 6 0 1 0-12 0ZM164.999 99a5.999 5.999 0 0 0-5.999 6 6 6 0 1 0 5.999-6Zm7.001 6a6.001 6.001 0 1 0 12.002-.002A6.001 6.001 0 0 0 172 105Zm6.002 6a6.002 6.002 0 0 0-6.002 5.999 6 6 0 1 0 6.002-5.999Zm5.998 5.999a6.001 6.001 0 1 0 12.002 0A6.001 6.001 0 0 0 184 117Zm6 7.001c-3.313 0-6 2.688-6 6.002a5.998 5.998 0 0 0 6 5.998 6.001 6.001 0 0 0 0-12Zm6 6.002a5.996 5.996 0 0 0 5.999 5.998 5.998 5.998 0 0 0 6.001-5.998 6 6 0 1 0-12 0Zm5.999 5.998a5.999 5.999 0 0 0-5.999 6 6 6 0 1 0 5.999-6Zm0 12a5.997 5.997 0 0 0-5.999 5.999 6.001 6.001 0 1 0 5.999-5.999Zm7.001 5.999a6 6 0 1 0 12 .001 6 6 0 0 0-12-.001Zm6.002 7.001a6.001 6.001 0 1 0 5.998 6.001 6 6 0 0 0-5.998-6.001Zm0 12a6.001 6.001 0 1 0-.002 12.002 6.001 6.001 0 0 0 .002-12.002Zm0 12a6 6 0 1 0 0 12 6.001 6.001 0 0 0 0-12ZM208 190.998a5.998 5.998 0 0 0-6.001-5.998 5.996 5.996 0 0 0-5.999 5.998 6 6 0 1 0 12 0ZM201.999 198a6 6 0 1 0 .002 12 6 6 0 0 0-.002-12Zm0 12a6 6 0 0 0-5.999 6.001 5.997 5.997 0 0 0 5.999 5.999 6.001 6.001 0 1 0 0-12ZM196 216.001a6 6 0 1 0-12-.002 6 6 0 0 0 12 .002ZM190 223a6 6 0 1 0 0 12 6 6 0 0 0 0-12Zm0 12a6 6 0 1 0 0 12 6 6 0 0 0 0-12Zm-6 5.998a6 6 0 1 0-12 .003 6 6 0 0 0 12-.003Zm-13 0a6 6 0 1 0-12 .005 6 6 0 0 0 12-.005ZM164.999 247a6 6 0 0 0-5.999 6.001 5.997 5.997 0 0 0 5.999 5.999 6.001 6.001 0 1 0 0-12ZM159 253.001a6 6 0 1 0-12.001-.001A6 6 0 0 0 159 253ZM153 247a6.001 6.001 0 0 0 0-12 6 6 0 1 0 0 12Zm-7-6.002a6 6 0 1 0-12 .005 6 6 0 0 0 12-.005Zm-12 0a6.001 6.001 0 0 0-12 0 6.001 6.001 0 1 0 12 0Zm-12 0a6 6 0 1 0-12 .005 6 6 0 0 0 12-.005Zm-13 0a6 6 0 1 0-12 .005 6 6 0 0 0 12-.005Zm-12 0a6.001 6.001 0 0 0-12 0 6.001 6.001 0 1 0 12 0Zm-12 0a6.001 6.001 0 1 0-12.002.006A6.001 6.001 0 0 0 85 240.998Zm-13 0a6 6 0 1 0-12 .005 6 6 0 0 0 12-.005Zm-12 0a6 6 0 1 0-12 .004 6 6 0 0 0 12-.004Zm-12 0a6 6 0 1 0-12 .005 6 6 0 0 0 12-.005ZM41.999 235a6.001 6.001 0 1 0 0-12.002A6.001 6.001 0 0 0 42 235Zm0-13a6.001 6.001 0 1 0 0-11.998 6.001 6.001 0 0 0 0 11.998Zm0-12A6 6 0 1 0 42 198a6 6 0 0 0 0 12Zm0-13A6.002 6.002 0 0 0 48 190.998 5.998 5.998 0 0 0 41.999 185 5.996 5.996 0 0 0 36 190.998 6 6 0 0 0 41.999 197Zm0-12a6.001 6.001 0 1 0 0-12.002A6.001 6.001 0 0 0 42 185ZM48 179a6 6 0 1 0 12 0 6 6 0 0 0-12 0Zm6.001-6A6 6 0 1 0 54 161a6 6 0 0 0 0 12Zm0-13a6 6 0 1 0-.003-12.001A6 6 0 0 0 54 160Zm0-12A6 6 0 1 0 54 136a6 6 0 0 0 .002 12ZM48 142a6.001 6.001 0 1 0-12.002.002A6.001 6.001 0 0 0 48 142Zm-6.001-6A5.998 5.998 0 0 0 48 130.002a6 6 0 1 0-12 0A5.996 5.996 0 0 0 41.999 136Zm0-13a6.001 6.001 0 1 0 0-12.002 6.001 6.001 0 0 0 0 12.002Zm0-12A6 6 0 1 0 42 99a6 6 0 0 0-.002 12ZM35 105a6 6 0 1 0-12 0 6 6 0 0 0 12 0Zm-6-6a6.001 6.001 0 1 0-.003-11.998A6.001 6.001 0 0 0 29 99Zm0-13a6 6 0 1 0 0-12 6 6 0 0 0 0 12Zm0-12a6 6 0 1 0 0-12 6 6 0 0 0 0 12Zm0-12a6 6 0 1 0 0-12 6 6 0 0 0 0 12Zm0-13a6 6 0 1 0 0-12 6 6 0 0 0 0 12Zm0-12a6.001 6.001 0 1 0-.002-12.002A6.001 6.001 0 0 0 29 37Zm0-12a6 6 0 1 0 0-12 6 6 0 0 0 0 12Zm-6-6a6.001 6.001 0 1 0-11.998.003A6.001 6.001 0 0 0 23 19Zm13 0a6.001 6.001 0 1 0 11.998-.001 6.001 6.001 0 0 0-11.998 0Zm12 0a6 6 0 1 0 12 0 6 6 0 0 0-12 0Zm12 0a6 6 0 1 0 12 0 6 6 0 0 0-12 0Zm13 0c0 3.313 2.684 6 5.998 6A6.001 6.001 0 1 0 73 19Zm12 0a6 6 0 1 0 12 0 6 6 0 0 0-12 0Zm5.998 6a6.001 6.001 0 1 0 .006 11.998A6.001 6.001 0 0 0 90.998 25Zm0 12a6 6 0 1 0 .005 12 6 6 0 0 0-.005-12ZM97 43.001a6.001 6.001 0 1 0 12.002-.004A6.001 6.001 0 0 0 97 43ZM103.001 50A6 6 0 1 0 103 62.001 6 6 0 0 0 103 50ZM110 56a6 6 0 1 0 12 0 6 6 0 0 0-12 0Zm6 6a6 6 0 1 0 0 12 6 6 0 0 0 0-12Zm6 5.999A6 6 0 1 0 134 68a6 6 0 0 0-12 0ZM127.998 74a6 6 0 1 0 .005 12 6 6 0 0 0-.005-12Zm0 13a6.001 6.001 0 1 0 .006 12.002A6.001 6.001 0 0 0 127.998 87ZM134 93.002A5.998 5.998 0 0 0 140.001 99 5.996 5.996 0 0 0 146 93.002a6 6 0 1 0-12 0ZM140.001 99a6.001 6.001 0 1 0 0 12.002A6.001 6.001 0 0 0 140 99Zm6.999 6a6 6 0 1 0 12 0 6 6 0 0 0-12 0Zm6 6a6 6 0 1 0 .001 12.001A6 6 0 0 0 153 111Zm6 5.999a6.001 6.001 0 1 0 11.998 0 6.001 6.001 0 0 0-11.998 0Zm5.999 7.001a6 6 0 0 0-5.999 6.002 5.996 5.996 0 0 0 5.999 5.998 5.998 5.998 0 0 0 6.001-5.998 6.002 6.002 0 0 0-6.001-6.002Zm7.001 6.002a6 6 0 0 0 6.002 5.998 6.001 6.001 0 1 0-6.002-5.998Zm6.002 5.998a6.001 6.001 0 1 0-.002 11.998 6.001 6.001 0 0 0 .002-11.998Zm5.998 6a6 6 0 1 0 12 0 6 6 0 0 0-12 0Zm6 6a6.001 6.001 0 1 0 .001 11.998 6.001 6.001 0 0 0 0-11.998Zm0 13a6 6 0 1 0 0 12 6 6 0 0 0 0-12Zm6 6.001a6 6 0 1 0 11.999-.003A6 6 0 0 0 196 167Zm5.999 5.999a5.998 5.998 0 0 0-5.999 6 6.001 6.001 0 1 0 5.999-6ZM196 179a6 6 0 1 0-11.999 0A6 6 0 0 0 196 179Zm-6 6c-3.313 0-6 2.684-6 5.998a6.001 6.001 0 1 0 6-5.998Zm0 13a6 6 0 1 0 0 12 6 6 0 0 0 0-12Zm-6 5.998a6 6 0 1 0-12 .003 6 6 0 0 0 12-.003ZM178.002 210a6 6 0 1 0-.004 12 6 6 0 0 0 .004-12Zm0 13a6.001 6.001 0 1 0-.002 12.002 6.001 6.001 0 0 0 .002-12.002ZM171 229a6 6 0 1 0-12 .001 6 6 0 0 0 12-.001Zm-12 0a6 6 0 1 0-12 0 6 6 0 0 0 12 0Zm-13 0a6 6 0 1 0-12 .001 6 6 0 0 0 12-.001Zm-12 0a6.001 6.001 0 1 0-12.002.002A6.001 6.001 0 0 0 134 229Zm-12 0a6 6 0 1 0-12 0 6 6 0 0 0 12 0Zm-13 0a6 6 0 1 0-12 0 6 6 0 0 0 12-.001Zm-12 0a6.001 6.001 0 1 0-12.002.002A6.001 6.001 0 0 0 97 229Zm-12 0a6.001 6.001 0 1 0-12.002.002A6.001 6.001 0 0 0 85 229Zm-13 0a6 6 0 1 0-12 0 6 6 0 0 0 12 0Zm-12 0a6 6 0 1 0-12 0 6 6 0 0 0 12 0Zm-5.999-7a6 6 0 1 0-.003-11.999A6 6 0 0 0 54 222Zm0-12a6.001 6.001 0 0 0 0-12 6 6 0 1 0 0 12Zm0-13a6.001 6.001 0 0 0 0-12A5.999 5.999 0 0 0 48 190.998 6.002 6.002 0 0 0 54.001 197ZM60 190.998a6.001 6.001 0 1 0 12.002.002A6.001 6.001 0 0 0 60 190.998ZM66 185a6 6 0 1 0-.001-12.002 6 6 0 0 0 0 12.002Zm0-12a6 6 0 1 0 0-12 6 6 0 0 0 0 12Zm0-13a6.001 6.001 0 1 0-.002-12.002A6.001 6.001 0 0 0 66 160Zm0-12a6 6 0 1 0 0-12 6 6 0 0 0 0 12Zm0-12c3.313 0 6-2.684 6-5.998A6.001 6.001 0 1 0 66 136Zm-6-5.998a6.001 6.001 0 1 0-12 0A5.999 5.999 0 0 0 54.001 136 5.998 5.998 0 0 0 60 130.002ZM54.001 123a6 6 0 1 0-.003-12.001A6 6 0 0 0 54 123Zm0-12A6 6 0 1 0 54 99a6 6 0 0 0 .002 12Zm0-12A6.001 6.001 0 1 0 48 93.002 5.999 5.999 0 0 0 54.001 99ZM48 93.002a6 6 0 1 0-12 0A5.996 5.996 0 0 0 41.999 99 5.998 5.998 0 0 0 48 93.002ZM41.999 86a6.001 6.001 0 1 0 0-12.002 6.001 6.001 0 0 0 0 12.002Zm0-12a6.001 6.001 0 1 0 0-12.002 6.001 6.001 0 0 0 0 12.002Zm0-12A6 6 0 1 0 42 49.999 6 6 0 0 0 42 62Zm0-13a6.001 6.001 0 1 0 0-12.002 6.001 6.001 0 0 0 0 12.002Zm0-12A6.002 6.002 0 0 0 48 30.998 5.998 5.998 0 0 0 41.999 25 5.996 5.996 0 0 0 36 30.998 6 6 0 0 0 41.999 37ZM48 30.998A6.001 6.001 0 1 0 54.001 25 5.999 5.999 0 0 0 48 30.998Zm12 0A6.001 6.001 0 1 0 72.002 31 6.001 6.001 0 0 0 60 30.998Zm13 0a6 6 0 1 0 12 0A6 6 0 0 0 78.998 25 5.996 5.996 0 0 0 73 30.998ZM78.998 37A5.998 5.998 0 0 0 73 43.001 5.998 5.998 0 0 0 78.998 49 6.002 6.002 0 0 0 85 43.001 6.002 6.002 0 0 0 78.998 37Zm0 13A5.998 5.998 0 0 0 73 56a6.001 6.001 0 1 0 5.998-6ZM85 56a6 6 0 1 0 12 0 6 6 0 0 0-12 0Zm5.998 6a6 6 0 1 0 .005 12 6 6 0 0 0-.005-12ZM97 67.999a6.001 6.001 0 1 0 12.002 0 6.001 6.001 0 0 0-12.002 0ZM103.001 74a6.001 6.001 0 1 0 0 12.002 6.001 6.001 0 0 0 0-12.002ZM110 79.999A6 6 0 1 0 122 80a6 6 0 0 0-12-.002ZM116 87a6.001 6.001 0 1 0 .002 12.002A6.001 6.001 0 0 0 116 87Zm0 12a6 6 0 1 0 0 12 6 6 0 0 0 0-12Zm6 6a6 6 0 1 0 12 0 6 6 0 0 0-12 0Zm5.998 6a6 6 0 1 0 .005 12 6 6 0 0 0-.005-12Zm6.002 5.999a6.001 6.001 0 1 0 12.002 0 6.001 6.001 0 0 0-12.002 0Zm6.001 7.001a6.002 6.002 0 0 0-6.001 6.002 5.998 5.998 0 0 0 6.001 5.998 5.996 5.996 0 0 0 5.999-5.998 6 6 0 0 0-5.999-6.002Zm6.999 6.002a5.998 5.998 0 0 0 6 5.998 6.001 6.001 0 1 0-6-5.998Zm6 5.998a6 6 0 1 0 0 12 6 6 0 0 0 0-12Zm6 6a6 6 0 1 0 12-.001 6 6 0 0 0-12 .001Zm5.999 6a5.997 5.997 0 0 0-5.999 5.999 6.001 6.001 0 1 0 5.999-5.999Zm7.001 5.999a6 6 0 1 0 12 .001 6 6 0 0 0-12-.001Zm6.002 7.001a6.001 6.001 0 1 0 5.998 6.001 6 6 0 0 0-5.998-6.001Zm0 12a6.001 6.001 0 1 0-.002 12.002 6.001 6.001 0 0 0 .002-12.002Zm0 12a6 6 0 1 0 0 12 6.001 6.001 0 0 0 0-12ZM171 190.998a5.998 5.998 0 0 0-6.001-5.998 5.996 5.996 0 0 0-5.999 5.998 6 6 0 1 0 12 0ZM164.999 198a6 6 0 1 0 .002 12 6 6 0 0 0-.002-12Zm0 12a6 6 0 0 0-5.999 6.001 5.997 5.997 0 0 0 5.999 5.999 6.001 6.001 0 1 0 0-12ZM159 216.001a6 6 0 1 0-12.001-.001A6 6 0 0 0 159 216Zm-13 0a6.001 6.001 0 1 0-11.998 0 6.001 6.001 0 0 0 11.998 0Zm-12 0a6 6 0 1 0-12-.001 6 6 0 0 0 12 .001Zm-12 0a6.001 6.001 0 1 0-12.002 0A6.001 6.001 0 0 0 122 216Zm-13 0a6.001 6.001 0 1 0-11.998 0 6.001 6.001 0 0 0 11.998 0Zm-12 0A6 6 0 1 0 85 216a6 6 0 0 0 12 0Zm-12 0A6.002 6.002 0 0 0 78.998 210 5.998 5.998 0 0 0 73 216.001 5.996 5.996 0 0 0 78.998 222 6 6 0 0 0 85 216.001Zm-13 0a6.001 6.001 0 1 0-12.002 0A6.001 6.001 0 0 0 72 216ZM66 210a6 6 0 1 0 0-12 6 6 0 0 0 0 12Zm7-6.002a6 6 0 1 0 12 0 6.001 6.001 0 0 0-12 0ZM78.998 197a6 6 0 1 0 0-12A5.996 5.996 0 0 0 73 190.998 6 6 0 0 0 78.998 197Zm0-12A6.001 6.001 0 1 0 79 173.002 6.001 6.001 0 0 0 78.998 185Zm0-12a6.001 6.001 0 1 0 0-12A5.999 5.999 0 0 0 73 167.001 5.998 5.998 0 0 0 78.998 173Zm0-13a6 6 0 1 0 0-12A5.996 5.996 0 0 0 73 153.999 5.998 5.998 0 0 0 78.998 160Zm0-12A6.001 6.001 0 1 0 79 135.998 6.001 6.001 0 0 0 78.998 148Zm0-12a6 6 0 1 0 0-12A6 6 0 0 0 73 130.002 5.996 5.996 0 0 0 78.998 136Zm0-13A6.002 6.002 0 0 0 85 116.999 6.002 6.002 0 0 0 78.998 111 5.998 5.998 0 0 0 73 116.999 5.998 5.998 0 0 0 78.998 123ZM72 116.999a6.001 6.001 0 1 0-12.002.004A6.001 6.001 0 0 0 72 117ZM66 111a6 6 0 1 0 0-12 6 6 0 0 0 0 12Zm0-12c3.313 0 6-2.684 6-5.998A6.001 6.001 0 1 0 66 99Zm0-13a6.001 6.001 0 1 0-.002-12.002A6.001 6.001 0 0 0 66 86Zm-6-6.001a6 6 0 1 0-12.001.003A6 6 0 0 0 60 80ZM54.001 74a6 6 0 1 0-.003-12.001A6 6 0 0 0 54 74Zm0-12A6 6 0 1 0 54 50a6 6 0 0 0 0 12Zm0-13a6 6 0 1 0-.003-12.001A6 6 0 0 0 54 49ZM60 43.001a6 6 0 1 0 12-.003 6 6 0 0 0-12 .003ZM66 50a6 6 0 1 0 0 12 6 6 0 0 0 0-12Zm0 12a6 6 0 1 0 0 12 6 6 0 0 0 0-12Zm7 5.999A5.998 5.998 0 0 0 78.998 74a6 6 0 1 0 0-12A5.996 5.996 0 0 0 73 67.999ZM78.998 74A5.998 5.998 0 0 0 73 79.999 5.998 5.998 0 0 0 78.998 86 6.002 6.002 0 0 0 85 79.999 6.002 6.002 0 0 0 78.998 74ZM85 79.999A6 6 0 1 0 97 80a6 6 0 0 0-12 0ZM90.998 87a6.001 6.001 0 1 0 .006 12.002A6.001 6.001 0 0 0 90.998 87ZM97 93.002A5.998 5.998 0 0 0 103.001 99 5.996 5.996 0 0 0 109 93.002a6 6 0 1 0-12 0ZM103.001 99a6.001 6.001 0 1 0 0 12.002A6.001 6.001 0 0 0 103 99Zm0 12a6.001 6.001 0 1 0 0 12.002 6.001 6.001 0 0 0 0-12.002Zm6.999 5.999a6 6 0 1 0 12 .002 6 6 0 0 0-12-.002Zm6 7.001a6.001 6.001 0 1 0 .002 12.002A6.001 6.001 0 0 0 116 124Zm6 6.002a5.998 5.998 0 0 0 5.998 5.998 6 6 0 1 0 0-12 6.001 6.001 0 0 0-5.998 6.002Zm5.998 5.998a6 6 0 1 0 .005 12 6 6 0 0 0-.005-12Zm6.002 6a6 6 0 1 0 12-.001 6 6 0 0 0-12 .001Zm6.001 6a6.001 6.001 0 1 0 0 11.998 6.001 6.001 0 0 0 0-11.998Zm6.999 5.999a6 6 0 1 0 12.001.001A6 6 0 0 0 147 154Zm6 7.001a6.001 6.001 0 1 0 .002 12.002A6.001 6.001 0 0 0 153 161Zm6 6.001a6 6 0 1 0 11.999-.003A6 6 0 0 0 159 167Zm5.999 5.999a5.998 5.998 0 0 0-5.999 6 6.001 6.001 0 1 0 5.999-6ZM159 179a6 6 0 1 0-12 0 6 6 0 0 0 12 0Zm-6 6a6.001 6.001 0 1 0 .002 11.998A6.001 6.001 0 0 0 153 185Zm0 13a6 6 0 1 0 0 12 6 6 0 0 0 0-12Zm-7 5.998a6 6 0 1 0-12 .005 6 6 0 0 0 12-.005Zm-12 0a6.001 6.001 0 0 0-12 0 6.001 6.001 0 1 0 12 0Zm-12 0a6 6 0 1 0-12 .005 6 6 0 0 0 12-.005Zm-13 0a6 6 0 1 0-12 .005 6 6 0 0 0 12-.005Zm-12 0a6.001 6.001 0 0 0-12 0 6.001 6.001 0 1 0 12 0ZM90.998 197a6 6 0 1 0 0-12 6.001 6.001 0 0 0 0 12Zm0-12A6.001 6.001 0 1 0 91 173.002 6.001 6.001 0 0 0 90.998 185Zm0-12a6.001 6.001 0 1 0 0-12 6 6 0 0 0 0 12Zm0-13a6 6 0 1 0 .004-12 6 6 0 0 0-.004 12Zm0-12A6.001 6.001 0 1 0 91 135.998 6.001 6.001 0 0 0 90.998 148Zm0-12a6 6 0 1 0 0-12 6.001 6.001 0 0 0 0 12Zm0-13A6.002 6.002 0 0 0 97 116.999 6 6 0 1 0 90.998 123Zm0-12A6.001 6.001 0 1 0 91 98.998 6.001 6.001 0 0 0 90.998 111ZM85 105c0-3.313-2.688-6-6.002-6A5.998 5.998 0 0 0 73 105a6.001 6.001 0 0 0 12 0Zm-6.002-6a6 6 0 1 0 0-12A6 6 0 0 0 73 93.002 5.996 5.996 0 0 0 78.998 99ZM97 130.002a5.998 5.998 0 0 0 6.001 5.998 5.996 5.996 0 0 0 5.999-5.998 6 6 0 1 0-12 0Zm6.001 5.998a6.001 6.001 0 1 0 0 12.002A6.001 6.001 0 0 0 103 136Zm6.999 6a6 6 0 1 0 11.999 0A6 6 0 0 0 110 142Zm6 6a6 6 0 1 0 .001 12 6 6 0 0 0-.001-12Zm6 5.999a6 6 0 1 0 12 .001 6 6 0 0 0-12-.001Zm5.998 7.001a6 6 0 0 0 0 12 6.001 6.001 0 1 0 0-12Zm6.002 6.001a6 6 0 1 0 12.001-.003A6 6 0 0 0 134 167Zm6.001 5.999a6 6 0 1 0-.002 12 6 6 0 0 0 .002-12Zm0 12a5.998 5.998 0 0 0-6.001 5.998 6 6 0 1 0 12 0 5.996 5.996 0 0 0-5.999-5.998ZM134 190.998a6 6 0 0 0-6.002-5.998 6.001 6.001 0 1 0 6.002 5.998Zm-12 0a5.998 5.998 0 0 0-6-5.998 6.001 6.001 0 1 0 6 5.998Zm-13 0a5.996 5.996 0 0 0-5.999-5.998A5.998 5.998 0 0 0 97 190.998a6 6 0 1 0 12 0ZM103.001 185a5.999 5.999 0 0 0 5.999-6 6 6 0 1 0-5.999 6Zm0-12a5.999 5.999 0 0 0 5.999-5.999 6 6 0 1 0-12 0 6 6 0 0 0 6.001 5.999Zm0-13a6 6 0 0 0 5.999-6.001 5.997 5.997 0 0 0-5.999-5.999 6.001 6.001 0 1 0 0 12Zm6.999 7.001a6 6 0 1 0 12-.002 6 6 0 0 0-12 .002Zm6 5.999a6 6 0 1 0 0 11.999A6 6 0 0 0 116 173Zm6 6a6 6 0 1 0 12 0 6 6 0 0 0-12 0ZM116 0a6 6 0 1 0 0 12 6 6 0 1 0 0-12Zm12.5 2a4.5 4.5 0 1 0 0 9 4.5 4.5 0 0 0 0-9ZM4.499 2a4.5 4.5 0 1 0 .001 9.001A4.5 4.5 0 0 0 4.5 2ZM115.5 13c-3.037 0-5.5 2.46-5.5 5.498A5.502 5.502 0 0 0 115.5 24c3.037 0 5.5-2.464 5.5-5.502A5.499 5.499 0 0 0 115.5 13ZM4.999 16A2.997 2.997 0 0 0 2 18.998 3.002 3.002 0 0 0 4.999 22 3.002 3.002 0 0 0 8 18.998 2.997 2.997 0 0 0 4.999 16Zm12.003 9a6 6 0 1 0 0 12A6 6 0 0 0 23 30.998 5.998 5.998 0 0 0 17.002 25Zm111.496 0a5.5 5.5 0 1 0 .003 11 5.5 5.5 0 0 0-.003-11Zm12.002 1a4.5 4.5 0 1 0 .001 9.001A4.5 4.5 0 0 0 140.5 26ZM4.998 28A2.998 2.998 0 0 0 2 30.997 3.002 3.002 0 0 0 4.998 34a3 3 0 1 0 0-6ZM16.5 38a5.5 5.5 0 0 0-5.5 5.501A5.5 5.5 0 1 0 16.5 38Zm124.002 0a5.5 5.5 0 1 0 0 11A5.497 5.497 0 0 0 146 43.502 5.5 5.5 0 0 0 140.502 38ZM17 51a5 5 0 1 0 0 10 5 5 0 0 0 0-10Zm135.5 1a3.501 3.501 0 1 0 .002 6.998A3.501 3.501 0 0 0 152.5 52Zm.5 10a6 6 0 1 0 .001 12.001A6 6 0 0 0 153 62ZM16.502 63a4.5 4.5 0 1 0-.003 9.001A4.5 4.5 0 0 0 16.502 63Zm148.996 1A3.5 3.5 0 1 0 169 67.498 3.5 3.5 0 0 0 165.498 64Zm-.5 10A5.996 5.996 0 0 0 159 79.997a6 6 0 1 0 12 0A5.999 5.999 0 0 0 164.998 74Zm13.004 2a4 4 0 1 0 0 8A3.998 3.998 0 0 0 182 79.999 3.998 3.998 0 0 0 178.002 76ZM17 76a4 4 0 1 0 0 8 4 4 0 0 0 0-8Zm161 11c-3.316 0-6 2.684-6 6a6 6 0 1 0 6-6ZM16.502 89a3.5 3.5 0 1 0-.002 7.001A3.5 3.5 0 0 0 16.502 89ZM190 100a5 5 0 1 0 0 10 5 5 0 0 0 0-10ZM29 111a6 6 0 1 0 6 5.998A6 6 0 0 0 29 111Zm172.999 1a4.998 4.998 0 0 0-4.999 4.999 5.001 5.001 0 1 0 4.999-4.999ZM29.5 124a5.5 5.5 0 1 0 0 11 5.5 5.5 0 0 0 0-11Zm185.002 14a4.5 4.5 0 1 0-.003 9 4.5 4.5 0 0 0 .003-9ZM29 138a4 4 0 1 0-.002 7.999A4 4 0 0 0 29 138Zm13 10a5.999 5.999 0 0 0-6 5.999 6 6 0 1 0 12 0A6 6 0 0 0 41.999 148Zm185 3a3 3 0 1 0 0 6 3 3 0 0 0 0-6ZM42 161a6 6 0 1 0 .001 12.002 6 6 0 0 0 0-12.002Zm185 2a4 4 0 1 0 0 8 4 4 0 1 0 0-8Zm-198 0a4 4 0 1 0 0 8 4 4 0 0 0 0-8Zm198 10a6 6 0 1 0 .001 12.002 6 6 0 0 0 0-12.002Zm-198 1a5 5 0 1 0-.002 9.999A5 5 0 0 0 29 174Zm.5 12a5.5 5.5 0 1 0 5.5 5.498A5.5 5.5 0 0 0 29.5 186Zm197.5 1a4 4 0 1 0 .001 7.999A4 4 0 0 0 227 187Zm-11.998 11a6.001 6.001 0 1 0 0 11.998A6.001 6.001 0 0 0 215 198ZM29.5 199a4.5 4.5 0 1 0-.001 9 4.5 4.5 0 0 0 .001-9Zm-.5 12c-2.761 0-5 2.24-5 5.002A4.999 4.999 0 0 0 29 221a4.999 4.999 0 1 0 0-10Zm186.002 0a5 5 0 1 0-.003 10 5 5 0 0 0 .003-10ZM202 223a6 6 0 1 0 .001 11.999A6 6 0 0 0 202 223Zm-172.5 1a4.5 4.5 0 1 0 0 9 4.5 4.5 0 0 0 0-9Zm185.502 2a3.002 3.002 0 0 0-3.002 3 3.001 3.001 0 1 0 3.002-3ZM202 235a6 6 0 1 0 .001 12.002 6 6 0 0 0 0-12.002Zm13.002 3a2.999 2.999 0 1 0 0 6 2.999 2.999 0 0 0 2.998-3.002 2.997 2.997 0 0 0-2.998-2.998ZM140 247a6 6 0 1 0 0 12 6 6 0 1 0 0-12Zm-12.002 0a6 6 0 1 0 .004 12 6 6 0 0 0-.004-12Zm-12.5 1a5.5 5.5 0 1 0 .004 11 5.5 5.5 0 0 0-.004-11Zm62.004 0a5.5 5.5 0 1 0-.005 11 5.5 5.5 0 0 0 .005-11Zm-74 0a5.5 5.5 0 1 0-.004 11 5.5 5.5 0 0 0 .004-11Zm-12.504 0a5 5 0 1 0 .004 10 5 5 0 0 0-.004-10Zm-12.5 1a4.5 4.5 0 1 0 .005 9 4.5 4.5 0 0 0-.005-9ZM66.5 249a4.5 4.5 0 1 0 0 9 4.5 4.5 0 0 0 0-9Zm135.498 0a4 4 0 1 0 .004 8 4 4 0 0 0-.004-8Zm-147.997 0A4 4 0 1 0 58 253c0-2.213-1.79-4-3.999-4ZM41.5 250a3.5 3.5 0 1 0 .002 7 3.5 3.5 0 0 0-.002-7Zm136.003 10a5.501 5.501 0 1 0-.002 11.002 5.501 5.501 0 0 0 .002-11.002Zm-12.504 3a3 3 0 1 0 .003 6 3 3 0 0 0-.003-6Z" fill="#265D33" fill-rule="evenodd"/></svg>