<svg width="28" height="28" xmlns="http://www.w3.org/2000/svg"><path d="M24.154 25H3.846C3.38 25 3 24.608 3 24.125V11h3.385c-.441.656-.59 1.88-.59 2.657 0 4.686 3.695 8.498 8.236 8.498 4.542 0 8.238-3.812 8.238-8.498 0-.777-.107-1.982-.654-2.657H25v13.125c0 .483-.38.875-.846.875M19 14a5 5 0 1 1-10 0 5 5 0 0 1 10 0Zm5.2-11a.8.8 0 0 1 .8.8v2.4a.8.8 0 0 1-.8.8h-2.4a.8.8 0 0 1-.8-.8V3.8a.8.8 0 0 1 .8-.8h2.4ZM3.328 0A3.324 3.324 0 0 0 0 3.32v21.36C0 26.512 1.49 28 3.328 28h21.343A3.324 3.324 0 0 0 28 24.68V3.32C28 1.488 26.51 0 24.671 0H3.328Z" fill="#FFF" fill-rule="evenodd"/></svg>