<svg width="24" height="24" xmlns="http://www.w3.org/2000/svg"><g fill="none" fill-rule="evenodd"><path d="M0 0h24v24H0z"/><path d="M18.001 5.25a.25.25 0 1 1-.002.5.25.25 0 0 1 .002-.5" stroke="#EA0228" stroke-width="1.5" stroke-linecap="round" stroke-linejoin="round"/><path d="M21.5 5.5h0A3.5 3.5 0 0 0 18 2h0a3.5 3.5 0 0 0-3.5 3.5h0c0 1.639 1.788 3.389 2.808 4.254.403.328.98.328 1.383 0C19.712 8.89 21.5 7.14 21.5 5.5Zm-16.342.658 12.685 12.685" stroke="#EA0228" stroke-width="1.5" stroke-linecap="round" stroke-linejoin="round"/><path d="M21 12a9 9 0 1 1-9-9M5.157 17.843 11 12" stroke="#EA0228" stroke-width="1.5" stroke-linecap="round" stroke-linejoin="round"/></g></svg>