<svg width="368" height="418" xmlns="http://www.w3.org/2000/svg"><g fill="none" fill-rule="evenodd"><path d="M299.411 413.648a4.352 4.352 0 0 1-4.354 4.352 4.352 4.352 0 0 1 0-8.703 4.352 4.352 0 0 1 4.354 4.351m17.055-17.054a4.352 4.352 0 0 1-4.355 4.352 4.352 4.352 0 0 1 0-8.703 4.352 4.352 0 0 1 4.355 4.351m-17.055 0a4.352 4.352 0 0 1-4.354 4.352 4.352 4.352 0 0 1 0-8.703 4.352 4.352 0 0 1 4.354 4.351m-17.054 0a4.352 4.352 0 0 1-4.354 4.352 4.352 4.352 0 0 1 0-8.703 4.352 4.352 0 0 1 4.354 4.351m34.109-17.054a4.352 4.352 0 0 1-4.355 4.352 4.352 4.352 0 0 1 0-8.703 4.352 4.352 0 0 1 4.355 4.351m-17.055 0a4.352 4.352 0 0 1-4.354 4.352 4.352 4.352 0 0 1 0-8.703 4.352 4.352 0 0 1 4.354 4.351m-17.054 0a4.352 4.352 0 0 1-4.354 4.352 4.352 4.352 0 0 1 0-8.703 4.352 4.352 0 0 1 4.354 4.351m-17.054 0a4.352 4.352 0 0 1-4.354 4.352 4.352 4.352 0 0 1 0-8.703 4.352 4.352 0 0 1 4.354 4.351m51.163-17.054a4.352 4.352 0 0 1-4.355 4.352 4.352 4.352 0 0 1 0-8.703 4.352 4.352 0 0 1 4.355 4.351m-17.055 0a4.352 4.352 0 0 1-4.354 4.352 4.352 4.352 0 0 1 0-8.703 4.352 4.352 0 0 1 4.354 4.351" fill="#265D33"/><path d="M282.357 362.486a4.352 4.352 0 0 1-4.354 4.352 4.352 4.352 0 0 1 0-8.703 4.352 4.352 0 0 1 4.354 4.351m-17.054 0a4.352 4.352 0 0 1-4.354 4.352 4.352 4.352 0 0 1 0-8.703 4.352 4.352 0 0 1 4.354 4.351" fill="#EA0228"/><path d="M248.25 362.486a4.352 4.352 0 0 1-4.355 4.352 4.352 4.352 0 0 1 0-8.703 4.352 4.352 0 0 1 4.354 4.351m68.217-17.054a4.352 4.352 0 0 1-4.355 4.352 4.352 4.352 0 0 1 0-8.703 4.352 4.352 0 0 1 4.355 4.351m-17.055 0a4.352 4.352 0 0 1-4.354 4.352 4.352 4.352 0 0 1 0-8.703 4.352 4.352 0 0 1 4.354 4.351m-17.054 0a4.352 4.352 0 0 1-4.354 4.352 4.352 4.352 0 0 1 0-8.703 4.352 4.352 0 0 1 4.354 4.351" fill="#265D33"/><path d="M265.303 345.432a4.352 4.352 0 0 1-4.354 4.352 4.352 4.352 0 0 1 0-8.703 4.352 4.352 0 0 1 4.354 4.351" fill="#EA0228"/><path d="M248.25 345.432a4.352 4.352 0 0 1-4.355 4.352 4.352 4.352 0 0 1 0-8.703 4.352 4.352 0 0 1 4.354 4.351m-17.054 0a4.352 4.352 0 0 1-4.354 4.352 4.352 4.352 0 0 1 0-8.703 4.352 4.352 0 0 1 4.354 4.351m68.216-17.054a4.352 4.352 0 0 1-4.354 4.352 4.352 4.352 0 0 1 0-8.703 4.352 4.352 0 0 1 4.354 4.351m-17.054 0a4.352 4.352 0 0 1-4.354 4.352 4.352 4.352 0 0 1 0-8.703 4.352 4.352 0 0 1 4.354 4.351m-17.054 0a4.352 4.352 0 0 1-4.354 4.352 4.352 4.352 0 0 1 0-8.703 4.352 4.352 0 0 1 4.354 4.351m-17.053 0a4.352 4.352 0 0 1-4.355 4.352 4.352 4.352 0 0 1 0-8.703 4.352 4.352 0 0 1 4.354 4.351m-17.054 0a4.352 4.352 0 0 1-4.354 4.352 4.352 4.352 0 0 1 0-8.703 4.352 4.352 0 0 1 4.354 4.351m68.216-17.054a4.352 4.352 0 0 1-4.354 4.352 4.352 4.352 0 0 1 0-8.703 4.352 4.352 0 0 1 4.354 4.351" fill="#265D33"/><path d="M282.357 311.324a4.352 4.352 0 0 1-4.354 4.352 4.352 4.352 0 0 1 0-8.703 4.352 4.352 0 0 1 4.354 4.351" fill="#EA0228"/><path d="M265.303 311.324a4.352 4.352 0 0 1-4.354 4.352 4.352 4.352 0 0 1 0-8.703 4.352 4.352 0 0 1 4.354 4.351" fill="#265D33"/><path d="M248.25 311.324a4.352 4.352 0 0 1-4.355 4.352 4.352 4.352 0 0 1 0-8.703 4.352 4.352 0 0 1 4.354 4.351" fill="#EA0228"/><path d="M231.195 311.324a4.352 4.352 0 0 1-4.354 4.352 4.352 4.352 0 0 1 0-8.703 4.352 4.352 0 0 1 4.354 4.351m-17.054 0a4.352 4.352 0 0 1-4.354 4.352 4.352 4.352 0 0 1 0-8.703 4.352 4.352 0 0 1 4.354 4.351m68.216-17.054a4.352 4.352 0 0 1-4.354 4.352 4.352 4.352 0 0 1 0-8.703 4.352 4.352 0 0 1 4.354 4.351m-17.054 0a4.352 4.352 0 0 1-4.354 4.352 4.352 4.352 0 0 1 0-8.703 4.352 4.352 0 0 1 4.354 4.351m-17.053 0a4.352 4.352 0 0 1-4.355 4.352 4.352 4.352 0 0 1 0-8.703 4.352 4.352 0 0 1 4.354 4.351m-17.054 0a4.352 4.352 0 0 1-4.354 4.352 4.352 4.352 0 0 1 0-8.703 4.352 4.352 0 0 1 4.354 4.351m-17.054 0a4.352 4.352 0 0 1-4.354 4.352 4.352 4.352 0 0 1 0-8.703 4.352 4.352 0 0 1 4.354 4.351m68.216-17.054a4.352 4.352 0 0 1-4.354 4.352 4.352 4.352 0 0 1 0-8.703 4.352 4.352 0 0 1 4.354 4.351m-17.054 0a4.352 4.352 0 0 1-4.354 4.352 4.352 4.352 0 0 1 0-8.703 4.352 4.352 0 0 1 4.354 4.351m-17.053 0a4.352 4.352 0 0 1-4.355 4.352 4.352 4.352 0 0 1 0-8.703 4.352 4.352 0 0 1 4.354 4.351m-17.054 0a4.352 4.352 0 0 1-4.354 4.352 4.352 4.352 0 0 1 0-8.703 4.352 4.352 0 0 1 4.354 4.351m-17.054 0a4.352 4.352 0 0 1-4.354 4.352 4.352 4.352 0 0 1 0-8.703 4.352 4.352 0 0 1 4.354 4.351m51.162-17.054a4.352 4.352 0 0 1-4.354 4.352 4.352 4.352 0 0 1 0-8.704 4.352 4.352 0 0 1 4.354 4.352m-17.053 0a4.352 4.352 0 0 1-4.355 4.352 4.352 4.352 0 0 1 0-8.704 4.352 4.352 0 0 1 4.354 4.352" fill="#265D33"/><path d="M231.195 260.162a4.352 4.352 0 0 1-4.354 4.352 4.352 4.352 0 0 1 0-8.704 4.352 4.352 0 0 1 4.354 4.352" fill="#EA0228"/><path d="M214.141 260.162a4.352 4.352 0 0 1-4.354 4.352 4.352 4.352 0 0 1 0-8.704 4.352 4.352 0 0 1 4.354 4.352m-17.054 0a4.352 4.352 0 0 1-4.354 4.352 4.352 4.352 0 0 1 0-8.704 4.352 4.352 0 0 1 4.354 4.352" fill="#265D33"/><path d="M248.25 243.108a4.352 4.352 0 0 1-4.355 4.352 4.352 4.352 0 0 1 0-8.704 4.352 4.352 0 0 1 4.354 4.352" fill="#EA0228"/><path d="M231.195 243.108a4.352 4.352 0 0 1-4.354 4.352 4.352 4.352 0 0 1 0-8.704 4.352 4.352 0 0 1 4.354 4.352m-17.054 0a4.352 4.352 0 0 1-4.354 4.352 4.352 4.352 0 0 1 0-8.704 4.352 4.352 0 0 1 4.354 4.352m-17.054 0a4.352 4.352 0 0 1-4.354 4.352 4.352 4.352 0 0 1 0-8.704 4.352 4.352 0 0 1 4.354 4.352m-17.054 0a4.352 4.352 0 0 1-4.354 4.352 4.352 4.352 0 0 1 0-8.704 4.352 4.352 0 0 1 4.354 4.352m-17.053 0a4.352 4.352 0 0 1-4.355 4.352 4.352 4.352 0 0 1 0-8.704 4.352 4.352 0 0 1 4.354 4.352m-17.054 0a4.352 4.352 0 0 1-4.354 4.352 4.352 4.352 0 0 1 0-8.704 4.352 4.352 0 0 1 4.354 4.352m-17.054 0a4.352 4.352 0 0 1-4.354 4.352 4.352 4.352 0 0 1 0-8.704 4.352 4.352 0 0 1 4.354 4.352m-17.054 0a4.352 4.352 0 0 1-4.354 4.352 4.352 4.352 0 0 1 0-8.704 4.352 4.352 0 0 1 4.354 4.352m-17.054 0a4.352 4.352 0 0 1-4.354 4.352 4.352 4.352 0 0 1 0-8.704 4.352 4.352 0 0 1 4.354 4.352m-34.053-.004a4.352 4.352 0 0 1-4.355 4.351 4.352 4.352 0 0 1 0-8.703 4.352 4.352 0 0 1 4.355 4.352m-17.055 0a4.352 4.352 0 0 1-4.355 4.351 4.352 4.352 0 0 1 0-8.703 4.352 4.352 0 0 1 4.355 4.352m-17.055 0a4.352 4.352 0 0 1-4.355 4.351 4.352 4.352 0 0 1 0-8.703 4.352 4.352 0 0 1 4.354 4.352m-17.055 0a4.352 4.352 0 0 1-4.355 4.351 4.352 4.352 0 0 1 0-8.703 4.352 4.352 0 0 1 4.355 4.352m238.706-17.05a4.352 4.352 0 0 1-4.355 4.352 4.352 4.352 0 0 1 0-8.704 4.352 4.352 0 0 1 4.354 4.352m-17.054 0a4.352 4.352 0 0 1-4.354 4.352 4.352 4.352 0 0 1 0-8.704 4.352 4.352 0 0 1 4.354 4.352m-17.054 0a4.352 4.352 0 0 1-4.354 4.352 4.352 4.352 0 0 1 0-8.704 4.352 4.352 0 0 1 4.354 4.352m-17.054 0a4.352 4.352 0 0 1-4.354 4.352 4.352 4.352 0 0 1 0-8.704 4.352 4.352 0 0 1 4.354 4.352m-17.054 0a4.352 4.352 0 0 1-4.354 4.352 4.352 4.352 0 0 1 0-8.704 4.352 4.352 0 0 1 4.354 4.352m-17.053 0a4.352 4.352 0 0 1-4.355 4.352 4.352 4.352 0 0 1 0-8.704 4.352 4.352 0 0 1 4.354 4.352m-17.054 0a4.352 4.352 0 0 1-4.354 4.352 4.352 4.352 0 0 1 0-8.704 4.352 4.352 0 0 1 4.354 4.352m-17.054 0a4.352 4.352 0 0 1-4.354 4.352 4.352 4.352 0 0 1 0-8.704 4.352 4.352 0 0 1 4.354 4.352m-17.054 0a4.352 4.352 0 0 1-4.354 4.352 4.352 4.352 0 0 1 0-8.704 4.352 4.352 0 0 1 4.354 4.352m-17.054 0a4.352 4.352 0 0 1-4.354 4.352 4.352 4.352 0 0 1 0-8.704 4.352 4.352 0 0 1 4.354 4.352m-17.053 0a4.352 4.352 0 0 1-4.355 4.352 4.352 4.352 0 0 1 0-8.704 4.352 4.352 0 0 1 4.354 4.352m-16.999-.003a4.352 4.352 0 0 1-4.355 4.352 4.352 4.352 0 0 1 0-8.704 4.352 4.352 0 0 1 4.355 4.352" fill="#265D33"/><path d="M43.655 226.051a4.352 4.352 0 0 1-4.355 4.352 4.352 4.352 0 0 1 0-8.704 4.352 4.352 0 0 1 4.355 4.352m-17.055 0a4.352 4.352 0 0 1-4.355 4.352 4.352 4.352 0 0 1 0-8.704 4.352 4.352 0 0 1 4.354 4.352" fill="#EA0228"/><path d="M9.544 226.051a4.352 4.352 0 0 1-4.355 4.352 4.352 4.352 0 0 1 0-8.704 4.352 4.352 0 0 1 4.355 4.352M248.25 209a4.352 4.352 0 0 1-4.355 4.352 4.352 4.352 0 0 1 0-8.704 4.352 4.352 0 0 1 4.354 4.352m-17.054 0a4.352 4.352 0 0 1-4.354 4.352 4.352 4.352 0 0 1 0-8.704 4.352 4.352 0 0 1 4.354 4.352m-17.054 0a4.352 4.352 0 0 1-4.354 4.352 4.352 4.352 0 0 1 0-8.704A4.352 4.352 0 0 1 214.14 209m-17.053 0a4.352 4.352 0 0 1-4.354 4.352 4.352 4.352 0 0 1 0-8.704 4.352 4.352 0 0 1 4.354 4.352m-17.054 0a4.352 4.352 0 0 1-4.354 4.352 4.352 4.352 0 0 1 0-8.704 4.352 4.352 0 0 1 4.354 4.352m-17.053 0a4.352 4.352 0 0 1-4.355 4.352 4.352 4.352 0 0 1 0-8.704 4.352 4.352 0 0 1 4.354 4.352m-17.054 0a4.352 4.352 0 0 1-4.354 4.352 4.352 4.352 0 0 1 0-8.704 4.352 4.352 0 0 1 4.354 4.352" fill="#265D33"/><path d="M128.871 209a4.352 4.352 0 0 1-4.354 4.352 4.352 4.352 0 0 1 0-8.704A4.352 4.352 0 0 1 128.87 209m-17.053 0a4.352 4.352 0 0 1-4.354 4.352 4.352 4.352 0 0 1 0-8.704 4.352 4.352 0 0 1 4.354 4.352" fill="#EA0228"/><path d="M94.763 209a4.352 4.352 0 0 1-4.354 4.352 4.352 4.352 0 0 1 0-8.704A4.352 4.352 0 0 1 94.763 209m-17.053 0a4.352 4.352 0 0 1-4.355 4.352 4.352 4.352 0 0 1 0-8.704A4.352 4.352 0 0 1 77.709 209m-16.999-.001a4.352 4.352 0 0 1-4.355 4.351 4.352 4.352 0 0 1 0-8.703 4.352 4.352 0 0 1 4.355 4.352m-17.055 0a4.352 4.352 0 0 1-4.355 4.351 4.352 4.352 0 0 1 0-8.703 4.352 4.352 0 0 1 4.355 4.352m-17.055 0a4.352 4.352 0 0 1-4.355 4.351 4.352 4.352 0 0 1 0-8.703 4.352 4.352 0 0 1 4.354 4.352m-17.055 0a4.352 4.352 0 0 1-4.355 4.351 4.352 4.352 0 0 1 0-8.703 4.352 4.352 0 0 1 4.355 4.352m221.651-17.053a4.352 4.352 0 0 1-4.354 4.352 4.352 4.352 0 0 1 0-8.704 4.352 4.352 0 0 1 4.354 4.352m-17.054 0a4.352 4.352 0 0 1-4.354 4.352 4.352 4.352 0 0 1 0-8.704 4.352 4.352 0 0 1 4.354 4.352m-17.054 0a4.352 4.352 0 0 1-4.354 4.352 4.352 4.352 0 0 1 0-8.704 4.352 4.352 0 0 1 4.354 4.352m-17.054 0a4.352 4.352 0 0 1-4.354 4.352 4.352 4.352 0 0 1 0-8.704 4.352 4.352 0 0 1 4.354 4.352m-17.053 0a4.352 4.352 0 0 1-4.355 4.352 4.352 4.352 0 0 1 0-8.704 4.352 4.352 0 0 1 4.354 4.352m-17.054 0a4.352 4.352 0 0 1-4.354 4.352 4.352 4.352 0 0 1 0-8.704 4.352 4.352 0 0 1 4.354 4.352m-17.054 0a4.352 4.352 0 0 1-4.354 4.352 4.352 4.352 0 0 1 0-8.704 4.352 4.352 0 0 1 4.354 4.352m-17.054 0a4.352 4.352 0 0 1-4.354 4.352 4.352 4.352 0 0 1 0-8.704 4.352 4.352 0 0 1 4.354 4.352m-17.054 0a4.352 4.352 0 0 1-4.354 4.352 4.352 4.352 0 0 1 0-8.704 4.352 4.352 0 0 1 4.354 4.352m-17.053 0a4.352 4.352 0 0 1-4.355 4.352 4.352 4.352 0 0 1 0-8.704 4.352 4.352 0 0 1 4.354 4.352m-16.999 0a4.352 4.352 0 0 1-4.355 4.352 4.352 4.352 0 0 1 0-8.704 4.352 4.352 0 0 1 4.355 4.352m-17.055 0a4.352 4.352 0 0 1-4.355 4.352 4.352 4.352 0 0 1 0-8.704 4.352 4.352 0 0 1 4.355 4.352m-17.055 0a4.352 4.352 0 0 1-4.355 4.352 4.352 4.352 0 0 1 0-8.704 4.352 4.352 0 0 1 4.354 4.352m-17.055 0a4.352 4.352 0 0 1-4.355 4.352 4.352 4.352 0 0 1 0-8.704 4.352 4.352 0 0 1 4.355 4.352m238.706-17.054a4.352 4.352 0 0 1-4.355 4.352 4.352 4.352 0 0 1 0-8.704 4.352 4.352 0 0 1 4.354 4.352m-17.054 0a4.352 4.352 0 0 1-4.354 4.352 4.352 4.352 0 0 1 0-8.704 4.352 4.352 0 0 1 4.354 4.352m-17.054 0a4.352 4.352 0 0 1-4.354 4.352 4.352 4.352 0 0 1 0-8.704 4.352 4.352 0 0 1 4.354 4.352m-17.054 0a4.352 4.352 0 0 1-4.354 4.352 4.352 4.352 0 0 1 0-8.704 4.352 4.352 0 0 1 4.354 4.352m-17.054 0a4.352 4.352 0 0 1-4.354 4.352 4.352 4.352 0 0 1 0-8.704 4.352 4.352 0 0 1 4.354 4.352m-17.053 0a4.352 4.352 0 0 1-4.355 4.352 4.352 4.352 0 0 1 0-8.704 4.352 4.352 0 0 1 4.354 4.352m-17.054 0a4.352 4.352 0 0 1-4.354 4.352 4.352 4.352 0 0 1 0-8.704 4.352 4.352 0 0 1 4.354 4.352m-17.054 0a4.352 4.352 0 0 1-4.354 4.352 4.352 4.352 0 0 1 0-8.704 4.352 4.352 0 0 1 4.354 4.352m-17.054 0a4.352 4.352 0 0 1-4.354 4.352 4.352 4.352 0 0 1 0-8.704 4.352 4.352 0 0 1 4.354 4.352m-17.054 0a4.352 4.352 0 0 1-4.354 4.352 4.352 4.352 0 0 1 0-8.704 4.352 4.352 0 0 1 4.354 4.352m-17.053 0a4.352 4.352 0 0 1-4.355 4.352 4.352 4.352 0 0 1 0-8.704 4.352 4.352 0 0 1 4.354 4.352m170.541-17.054a4.352 4.352 0 0 1-4.355 4.352 4.352 4.352 0 0 1 0-8.704 4.352 4.352 0 0 1 4.354 4.352m-17.054 0a4.352 4.352 0 0 1-4.354 4.352 4.352 4.352 0 0 1 0-8.704 4.352 4.352 0 0 1 4.354 4.352m-17.054 0a4.352 4.352 0 0 1-4.354 4.352 4.352 4.352 0 0 1 0-8.704 4.352 4.352 0 0 1 4.354 4.352m-17.054 0a4.352 4.352 0 0 1-4.354 4.352 4.352 4.352 0 0 1 0-8.704 4.352 4.352 0 0 1 4.354 4.352m-17.054 0a4.352 4.352 0 0 1-4.354 4.352 4.352 4.352 0 0 1 0-8.704 4.352 4.352 0 0 1 4.354 4.352m-17.053 0a4.352 4.352 0 0 1-4.355 4.352 4.352 4.352 0 0 1 0-8.704 4.352 4.352 0 0 1 4.354 4.352m-17.054 0a4.352 4.352 0 0 1-4.354 4.352 4.352 4.352 0 0 1 0-8.704 4.352 4.352 0 0 1 4.354 4.352m-17.054 0a4.352 4.352 0 0 1-4.354 4.352 4.352 4.352 0 0 1 0-8.704 4.352 4.352 0 0 1 4.354 4.352m-17.054 0a4.352 4.352 0 0 1-4.354 4.352 4.352 4.352 0 0 1 0-8.704 4.352 4.352 0 0 1 4.354 4.352m-17.054 0a4.352 4.352 0 0 1-4.354 4.352 4.352 4.352 0 0 1 0-8.704 4.352 4.352 0 0 1 4.354 4.352m-17.053 0a4.352 4.352 0 0 1-4.355 4.352 4.352 4.352 0 0 1 0-8.704 4.352 4.352 0 0 1 4.354 4.352m170.541-17.054a4.352 4.352 0 0 1-4.355 4.351 4.352 4.352 0 0 1 0-8.703 4.352 4.352 0 0 1 4.354 4.352m-17.054 0a4.352 4.352 0 0 1-4.354 4.351 4.352 4.352 0 0 1 0-8.703 4.352 4.352 0 0 1 4.354 4.352m-17.054 0a4.352 4.352 0 0 1-4.354 4.351 4.352 4.352 0 0 1 0-8.703 4.352 4.352 0 0 1 4.354 4.352m-17.054 0a4.352 4.352 0 0 1-4.354 4.351 4.352 4.352 0 0 1 0-8.703 4.352 4.352 0 0 1 4.354 4.352m-17.054 0a4.352 4.352 0 0 1-4.354 4.351 4.352 4.352 0 0 1 0-8.703 4.352 4.352 0 0 1 4.354 4.352m-17.053 0a4.352 4.352 0 0 1-4.355 4.351 4.352 4.352 0 0 1 0-8.703 4.352 4.352 0 0 1 4.354 4.352m-17.054 0a4.352 4.352 0 0 1-4.354 4.351 4.352 4.352 0 0 1 0-8.703 4.352 4.352 0 0 1 4.354 4.352m-17.054 0a4.352 4.352 0 0 1-4.354 4.351 4.352 4.352 0 0 1 0-8.703 4.352 4.352 0 0 1 4.354 4.352" fill="#265D33"/><path d="M111.817 140.784a4.352 4.352 0 0 1-4.354 4.351 4.352 4.352 0 0 1 0-8.703 4.352 4.352 0 0 1 4.354 4.352m-17.054 0a4.352 4.352 0 0 1-4.354 4.351 4.352 4.352 0 0 1 0-8.703 4.352 4.352 0 0 1 4.354 4.352" fill="#EA0228"/><path d="M77.71 140.784a4.352 4.352 0 0 1-4.355 4.351 4.352 4.352 0 0 1 0-8.703 4.352 4.352 0 0 1 4.354 4.352m187.594-17.054a4.352 4.352 0 0 1-4.354 4.351 4.352 4.352 0 0 1 0-8.703 4.352 4.352 0 0 1 4.354 4.352m-17.053 0a4.352 4.352 0 0 1-4.355 4.351 4.352 4.352 0 0 1 0-8.703 4.352 4.352 0 0 1 4.354 4.352m-17.054 0a4.352 4.352 0 0 1-4.354 4.351 4.352 4.352 0 0 1 0-8.703 4.352 4.352 0 0 1 4.354 4.352m-17.054 0a4.352 4.352 0 0 1-4.354 4.351 4.352 4.352 0 0 1 0-8.703 4.352 4.352 0 0 1 4.354 4.352m-17.054 0a4.352 4.352 0 0 1-4.354 4.351 4.352 4.352 0 0 1 0-8.703 4.352 4.352 0 0 1 4.354 4.352m-17.054 0a4.352 4.352 0 0 1-4.354 4.351 4.352 4.352 0 0 1 0-8.703 4.352 4.352 0 0 1 4.354 4.352m-17.053 0a4.352 4.352 0 0 1-4.355 4.351 4.352 4.352 0 0 1 0-8.703 4.352 4.352 0 0 1 4.354 4.352m-17.054 0a4.352 4.352 0 0 1-4.354 4.351 4.352 4.352 0 0 1 0-8.703 4.352 4.352 0 0 1 4.354 4.352m-17.054 0a4.352 4.352 0 0 1-4.354 4.351 4.352 4.352 0 0 1 0-8.703 4.352 4.352 0 0 1 4.354 4.352" fill="#265D33"/><path d="M111.817 123.73a4.352 4.352 0 0 1-4.354 4.351 4.352 4.352 0 0 1 0-8.703 4.352 4.352 0 0 1 4.354 4.352" fill="#EA0228"/><path d="M94.763 123.73a4.352 4.352 0 0 1-4.354 4.351 4.352 4.352 0 0 1 0-8.703 4.352 4.352 0 0 1 4.354 4.352m-17.053 0a4.352 4.352 0 0 1-4.355 4.351 4.352 4.352 0 0 1 0-8.703 4.352 4.352 0 0 1 4.354 4.352m204.648-17.054a4.352 4.352 0 0 1-4.354 4.351 4.352 4.352 0 0 1 0-8.703 4.352 4.352 0 0 1 4.354 4.352m-17.054 0a4.352 4.352 0 0 1-4.354 4.351 4.352 4.352 0 0 1 0-8.703 4.352 4.352 0 0 1 4.354 4.352m-17.053 0a4.352 4.352 0 0 1-4.355 4.351 4.352 4.352 0 0 1 0-8.703 4.352 4.352 0 0 1 4.354 4.352m-17.054 0a4.352 4.352 0 0 1-4.354 4.351 4.352 4.352 0 0 1 0-8.703 4.352 4.352 0 0 1 4.354 4.352m-17.054 0a4.352 4.352 0 0 1-4.354 4.351 4.352 4.352 0 0 1 0-8.703 4.352 4.352 0 0 1 4.354 4.352m-17.054 0a4.352 4.352 0 0 1-4.354 4.351 4.352 4.352 0 0 1 0-8.703 4.352 4.352 0 0 1 4.354 4.352m-17.054 0a4.352 4.352 0 0 1-4.354 4.351 4.352 4.352 0 0 1 0-8.703 4.352 4.352 0 0 1 4.354 4.352m-17.053 0a4.352 4.352 0 0 1-4.355 4.351 4.352 4.352 0 0 1 0-8.703 4.352 4.352 0 0 1 4.354 4.352m-17.054 0a4.352 4.352 0 0 1-4.354 4.351 4.352 4.352 0 0 1 0-8.703 4.352 4.352 0 0 1 4.354 4.352m-17.054 0a4.352 4.352 0 0 1-4.354 4.351 4.352 4.352 0 0 1 0-8.703 4.352 4.352 0 0 1 4.354 4.352m-17.054 0a4.352 4.352 0 0 1-4.354 4.351 4.352 4.352 0 0 1 0-8.703 4.352 4.352 0 0 1 4.354 4.352m-17.054 0a4.352 4.352 0 0 1-4.354 4.351 4.352 4.352 0 0 1 0-8.703 4.352 4.352 0 0 1 4.354 4.352m-17.053 0a4.352 4.352 0 0 1-4.355 4.351 4.352 4.352 0 0 1 0-8.703 4.352 4.352 0 0 1 4.354 4.352" fill="#265D33"/><path d="M299.411 89.622a4.352 4.352 0 0 1-4.354 4.351 4.352 4.352 0 0 1 0-8.703 4.352 4.352 0 0 1 4.354 4.352m-17.054 0a4.352 4.352 0 0 1-4.354 4.351 4.352 4.352 0 0 1 0-8.703 4.352 4.352 0 0 1 4.354 4.352m-17.054 0a4.352 4.352 0 0 1-4.354 4.351 4.352 4.352 0 0 1 0-8.703 4.352 4.352 0 0 1 4.354 4.352" fill="#EA0228"/><path d="M248.25 89.622a4.352 4.352 0 0 1-4.355 4.351 4.352 4.352 0 0 1 0-8.703 4.352 4.352 0 0 1 4.354 4.352m51.162-17.054a4.352 4.352 0 0 1-4.354 4.351 4.352 4.352 0 0 1 0-8.703 4.352 4.352 0 0 1 4.354 4.352m-17.054 0a4.352 4.352 0 0 1-4.354 4.351 4.352 4.352 0 0 1 0-8.703 4.352 4.352 0 0 1 4.354 4.352" fill="#265D33"/><path d="M265.303 72.568a4.352 4.352 0 0 1-4.354 4.351 4.352 4.352 0 0 1 0-8.703 4.352 4.352 0 0 1 4.354 4.352" fill="#EA0228"/><path d="M248.25 72.568a4.352 4.352 0 0 1-4.355 4.351 4.352 4.352 0 0 1 0-8.703 4.352 4.352 0 0 1 4.354 4.352m68.217-17.054a4.352 4.352 0 0 1-4.355 4.351 4.352 4.352 0 0 1 0-8.703 4.352 4.352 0 0 1 4.355 4.352m-17.055 0a4.352 4.352 0 0 1-4.354 4.351 4.352 4.352 0 0 1 0-8.703 4.352 4.352 0 0 1 4.354 4.352m-17.054 0a4.352 4.352 0 0 1-4.354 4.351 4.352 4.352 0 0 1 0-8.703 4.352 4.352 0 0 1 4.354 4.352m-17.054 0a4.352 4.352 0 0 1-4.354 4.351 4.352 4.352 0 0 1 0-8.703 4.352 4.352 0 0 1 4.354 4.352m-17.053 0a4.352 4.352 0 0 1-4.355 4.351 4.352 4.352 0 0 1 0-8.703 4.352 4.352 0 0 1 4.354 4.352M333.52 38.46a4.352 4.352 0 0 1-4.355 4.351 4.352 4.352 0 0 1 0-8.703 4.352 4.352 0 0 1 4.355 4.352m-17.054 0a4.352 4.352 0 0 1-4.355 4.351 4.352 4.352 0 0 1 0-8.703 4.352 4.352 0 0 1 4.355 4.352m-17.055 0a4.352 4.352 0 0 1-4.354 4.351 4.352 4.352 0 0 1 0-8.703 4.352 4.352 0 0 1 4.354 4.352m-17.054 0a4.352 4.352 0 0 1-4.354 4.351 4.352 4.352 0 0 1 0-8.703 4.352 4.352 0 0 1 4.354 4.352m-17.054 0a4.352 4.352 0 0 1-4.354 4.351 4.352 4.352 0 0 1 0-8.703 4.352 4.352 0 0 1 4.354 4.352m-17.053 0a4.352 4.352 0 0 1-4.355 4.351 4.352 4.352 0 0 1 0-8.703 4.352 4.352 0 0 1 4.354 4.352m119.379-17.054a4.352 4.352 0 0 1-4.355 4.351 4.352 4.352 0 0 1 0-8.703 4.352 4.352 0 0 1 4.355 4.352m-17.054 0a4.352 4.352 0 0 1-4.355 4.351 4.352 4.352 0 0 1 0-8.703 4.352 4.352 0 0 1 4.355 4.352m-17.054 0a4.352 4.352 0 0 1-4.355 4.351 4.352 4.352 0 0 1 0-8.703 4.352 4.352 0 0 1 4.355 4.352m-17.054 0a4.352 4.352 0 0 1-4.355 4.351 4.352 4.352 0 0 1 0-8.703 4.352 4.352 0 0 1 4.355 4.352m-17.055 0a4.352 4.352 0 0 1-4.354 4.351 4.352 4.352 0 0 1 0-8.703 4.352 4.352 0 0 1 4.354 4.352m-17.054 0a4.352 4.352 0 0 1-4.354 4.351 4.352 4.352 0 0 1 0-8.703 4.352 4.352 0 0 1 4.354 4.352m-17.054 0a4.352 4.352 0 0 1-4.354 4.351 4.352 4.352 0 0 1 0-8.703 4.352 4.352 0 0 1 4.354 4.352m-17.053 0a4.352 4.352 0 0 1-4.355 4.351 4.352 4.352 0 0 1 0-8.703 4.352 4.352 0 0 1 4.354 4.352M367.628 4.352a4.352 4.352 0 0 1-4.355 4.351 4.352 4.352 0 0 1 0-8.703 4.352 4.352 0 0 1 4.355 4.352m-17.054 0a4.352 4.352 0 0 1-4.355 4.351 4.352 4.352 0 0 1 0-8.703 4.352 4.352 0 0 1 4.355 4.352m-17.054 0a4.352 4.352 0 0 1-4.355 4.351 4.352 4.352 0 0 1 0-8.703 4.352 4.352 0 0 1 4.355 4.352m-17.054 0a4.352 4.352 0 0 1-4.355 4.351 4.352 4.352 0 0 1 0-8.703 4.352 4.352 0 0 1 4.355 4.352m-17.055 0a4.352 4.352 0 0 1-4.354 4.351 4.352 4.352 0 0 1 0-8.703 4.352 4.352 0 0 1 4.354 4.352m-17.054 0a4.352 4.352 0 0 1-4.354 4.351 4.352 4.352 0 0 1 0-8.703 4.352 4.352 0 0 1 4.354 4.352m-17.054 0a4.352 4.352 0 0 1-4.354 4.351 4.352 4.352 0 0 1 0-8.703 4.352 4.352 0 0 1 4.354 4.352m-17.053 0a4.352 4.352 0 0 1-4.355 4.351 4.352 4.352 0 0 1 0-8.703 4.352 4.352 0 0 1 4.354 4.352" fill="#265D33"/></g></svg>