<svg width="372" height="149" xmlns="http://www.w3.org/2000/svg"><g fill="#265D33" fill-rule="evenodd"><path d="M242.546 140.43a3.675 3.675 0 0 0-3.672 3.673c0 2.026 1.647 3.648 3.672 3.648 2.026 0 3.673-1.622 3.673-3.648a3.675 3.675 0 0 0-3.673-3.672m24.679-.196c-1.95.198-3.477 1.867-3.477 3.868a3.869 3.869 0 1 0 3.868-3.868c-.133 0-.261-.013-.391 0m-12.144-.612c-2.468 0-4.456 2.012-4.456 4.48a4.447 4.447 0 0 0 4.456 4.456c2.468 0 4.48-1.988 4.48-4.456a4.489 4.489 0 0 0-4.48-4.48m25.07-11.58c-1.936 0-3.501 1.589-3.501 3.526a3.499 3.499 0 0 0 3.5 3.5c1.937 0 3.527-1.565 3.527-3.5a3.54 3.54 0 0 0-3.526-3.526m-50.14-.245c-2.074 0-3.745 1.695-3.745 3.77a3.738 3.738 0 0 0 3.746 3.746c2.074 0 3.769-1.671 3.769-3.745a3.78 3.78 0 0 0-3.77-3.771m12.535-2.326c-3.36 0-6.071 2.735-6.071 6.097a6.062 6.062 0 0 0 6.07 6.07c3.362 0 6.098-2.71 6.098-6.07a6.104 6.104 0 0 0-6.097-6.097m25.07-.146c-3.435 0-6.218 2.807-6.218 6.243a6.216 6.216 0 0 0 6.218 6.217 6.216 6.216 0 0 0 6.219-6.217c0-3.436-2.783-6.243-6.22-6.243m-50.138-10.063c-2.076 0-3.746 1.695-3.746 3.77a3.738 3.738 0 0 0 3.746 3.747c2.075 0 3.77-1.671 3.77-3.746a3.78 3.78 0 0 0-3.77-3.771m62.674-1.86a5.633 5.633 0 0 0-5.63 5.63c0 3.108 2.523 5.607 5.63 5.607 3.108 0 5.63-2.5 5.63-5.606a5.633 5.633 0 0 0-5.63-5.631m-50.14-.466c-3.353 0-6.071 2.743-6.071 6.097a6.072 6.072 0 0 0 12.143 0c0-3.354-2.72-6.097-6.071-6.097m-25.07-10.258a3.825 3.825 0 0 0-3.82 3.819c0 2.106 1.714 3.795 3.82 3.795 2.105 0 3.819-1.69 3.819-3.795a3.824 3.824 0 0 0-3.82-3.82m87.746-2.007a5.833 5.833 0 0 0-5.828 5.827c0 3.214 2.613 5.803 5.828 5.803 3.213 0 5.826-2.59 5.826-5.803a5.833 5.833 0 0 0-5.826-5.827m-75.21-.268a6.099 6.099 0 0 0-6.097 6.095c0 3.365 2.732 6.072 6.097 6.072 3.364 0 6.095-2.707 6.095-6.072a6.098 6.098 0 0 0-6.095-6.095M154.802 89.58c-2.408 0-4.358 1.974-4.358 4.382a4.357 4.357 0 1 0 8.716 0c0-2.408-1.95-4.382-4.358-4.382m25.07-1.052a5.438 5.438 0 0 0-5.435 5.434c0 2.999 2.436 5.41 5.435 5.41 2.999 0 5.435-2.411 5.435-5.41a5.438 5.438 0 0 0-5.435-5.434m-12.535 0a5.438 5.438 0 0 0-5.436 5.434c0 2.999 2.437 5.41 5.436 5.41s5.435-2.411 5.435-5.41a5.438 5.438 0 0 0-5.435-5.434m25.069-.074a5.51 5.51 0 0 0-5.508 5.508c0 3.04 2.468 5.485 5.508 5.485s5.509-2.445 5.509-5.485a5.511 5.511 0 0 0-5.51-5.508m137.886-.123c-3.1 0-5.606 2.534-5.606 5.63a5.603 5.603 0 0 0 5.606 5.608c3.098 0 5.63-2.508 5.63-5.607 0-3.097-2.532-5.631-5.63-5.631m-12.535-.318c-3.272 0-5.925 2.678-5.925 5.949a5.925 5.925 0 1 0 11.85 0c0-3.271-2.653-5.95-5.925-5.95m-112.814-.145a6.098 6.098 0 0 0-6.096 6.095c0 3.364 2.73 6.072 6.096 6.072 3.364 0 6.095-2.708 6.095-6.072a6.098 6.098 0 0 0-6.095-6.095m100.279-.074c-3.397 0-6.145 2.773-6.145 6.169a6.141 6.141 0 0 0 6.145 6.146c3.397 0 6.17-2.748 6.17-6.146 0-3.396-2.773-6.17-6.17-6.17m37.605-9.915c-1.955 0-3.525 1.596-3.525 3.55a3.515 3.515 0 0 0 3.525 3.526c1.955 0 3.55-1.571 3.55-3.526a3.558 3.558 0 0 0-3.55-3.55M3.942 77.046C1.732 77.27 0 79.16 0 81.428a4.384 4.384 0 0 0 8.765 0 4.384 4.384 0 0 0-4.383-4.382c-.151 0-.293-.014-.44 0m63.115-.367a4.752 4.752 0 0 0-4.75 4.749c0 2.62 2.129 4.726 4.75 4.726 2.62 0 4.75-2.105 4.75-4.726a4.753 4.753 0 0 0-4.75-4.75m75.21-.097a4.85 4.85 0 0 0-4.847 4.847c0 2.675 2.173 4.823 4.847 4.823 2.674 0 4.847-2.148 4.847-4.823a4.85 4.85 0 0 0-4.847-4.847m-125.35-.49a5.34 5.34 0 0 0-5.337 5.337 5.34 5.34 0 0 0 5.338 5.338 5.34 5.34 0 0 0 5.336-5.338 5.34 5.34 0 0 0-5.336-5.337m12.534-.073c-2.983 0-5.386 2.428-5.386 5.41a5.376 5.376 0 0 0 5.386 5.387c2.984 0 5.41-2.404 5.41-5.387a5.417 5.417 0 0 0-5.41-5.41m300.839-.05c-3.004 0-5.435 2.456-5.435 5.46a5.432 5.432 0 0 0 5.435 5.436c3.004 0 5.46-2.431 5.459-5.436 0-3.004-2.455-5.46-5.46-5.46m-12.534 0c-3.004 0-5.435 2.456-5.435 5.46a5.432 5.432 0 0 0 5.435 5.436c3.004 0 5.46-2.431 5.46-5.436 0-3.004-2.456-5.46-5.46-5.46m-263.234 0c-3.004 0-5.435 2.456-5.435 5.46a5.432 5.432 0 0 0 5.435 5.436c3.004 0 5.46-2.431 5.46-5.436 0-3.004-2.456-5.46-5.46-5.46m-12.535-.048a5.511 5.511 0 0 0-5.508 5.508c0 3.04 2.468 5.484 5.508 5.484s5.509-2.444 5.509-5.484a5.512 5.512 0 0 0-5.51-5.508m112.816-.71c-3.422 0-6.194 2.797-6.194 6.218a6.193 6.193 0 0 0 6.194 6.194 6.193 6.193 0 0 0 6.194-6.194c0-3.421-2.772-6.218-6.194-6.218m213.094-8.79c-1.355 0-2.45 1.118-2.45 2.473a2.446 2.446 0 0 0 2.45 2.449c1.355 0 2.472-1.094 2.472-2.45a2.485 2.485 0 0 0-2.472-2.471m-12.535-.808c-1.807 0-3.256 1.473-3.256 3.28a3.245 3.245 0 0 0 3.256 3.257c1.807 0 3.28-1.45 3.28-3.257a3.287 3.287 0 0 0-3.28-3.28m-25.07-.735c-2.205 0-3.99 1.81-3.99 4.015a3.988 3.988 0 0 0 3.99 3.99 3.988 3.988 0 0 0 3.99-3.99c0-2.205-1.785-4.015-3.99-4.015M4.38 64.51c-2.408 0-4.356 1.973-4.356 4.382a4.354 4.354 0 0 0 4.357 4.358c2.41 0 4.383-1.948 4.383-4.358a4.397 4.397 0 0 0-4.383-4.382m12.536-1.616c-3.308 0-5.975 2.69-5.975 5.998a5.964 5.964 0 0 0 5.975 5.974c3.307 0 5.998-2.666 5.998-5.974a6.005 6.005 0 0 0-5.998-5.998m75.209-.122c-3.368 0-6.096 2.753-6.096 6.12a6.095 6.095 0 0 0 6.096 6.097 6.095 6.095 0 0 0 6.096-6.097c0-3.367-2.728-6.12-6.096-6.12m12.535-.073c-3.408 0-6.17 2.786-6.17 6.193a6.17 6.17 0 1 0 12.34 0c0-3.407-2.763-6.193-6.17-6.193m-25.07-.025a6.22 6.22 0 0 0-6.218 6.218 6.22 6.22 0 0 0 6.218 6.219 6.221 6.221 0 0 0 6.219-6.22 6.22 6.22 0 0 0-6.22-6.217m288.305-9.646c-1.831 0-3.305 1.499-3.305 3.33a3.298 3.298 0 0 0 3.305 3.305c1.83 0 3.33-1.475 3.33-3.305a3.34 3.34 0 0 0-3.33-3.33m-350.978-.857c-2.303 0-4.163 1.884-4.163 4.187a4.158 4.158 0 0 0 4.163 4.162c2.302 0 4.186-1.86 4.186-4.162a4.199 4.199 0 0 0-4.186-4.187m338.002-.196c-2.21.225-3.941 2.114-3.941 4.383a4.383 4.383 0 0 0 4.382 4.382 4.383 4.383 0 0 0 0-8.765c-.151 0-.294-.015-.441 0m-24.63-1.273c-3.111 0-5.63 2.543-5.63 5.656a5.628 5.628 0 0 0 5.63 5.63c3.113 0 5.656-2.518 5.656-5.63 0-3.113-2.543-5.656-5.655-5.656m-300.84-.245a5.904 5.904 0 0 0-5.9 5.9c0 3.257 2.645 5.876 5.9 5.876 3.257 0 5.902-2.62 5.902-5.875a5.905 5.905 0 0 0-5.901-5.901m288.304-.122c-3.313 0-5.998 2.71-5.998 6.023a5.998 5.998 0 0 0 11.996 0c0-3.313-2.686-6.023-5.998-6.023m-275.77-.147c-3.396 0-6.144 2.773-6.144 6.17a6.14 6.14 0 0 0 6.145 6.145c3.397 0 6.17-2.748 6.17-6.145 0-3.397-2.773-6.17-6.17-6.17m300.839-.073c-3.435 0-6.218 2.807-6.218 6.243a6.217 6.217 0 0 0 6.218 6.218 6.216 6.216 0 0 0 6.218-6.218c0-3.436-2.782-6.243-6.218-6.243m25.07-10.283c-2.191 0-3.966 1.8-3.966 3.99a3.966 3.966 0 1 0 7.932 0c0-2.19-1.775-3.99-3.966-3.99M54.522 38.389c-2.988 0-5.411 2.446-5.411 5.435a5.41 5.41 0 0 0 10.822 0c0-2.99-2.422-5.435-5.411-5.435m300.839-.71c-3.382 0-6.121 2.762-6.121 6.145a6.118 6.118 0 0 0 6.12 6.12c3.383 0 6.146-2.738 6.146-6.12 0-3.383-2.763-6.145-6.145-6.145m-288.304-.074c-3.428 0-6.194 2.79-6.194 6.219a6.185 6.185 0 0 0 6.194 6.194c3.429 0 6.218-2.766 6.218-6.194a6.225 6.225 0 0 0-6.218-6.22m300.839-9.473a3.163 3.163 0 0 0-3.16 3.158c0 1.74 1.419 3.134 3.16 3.134 1.74 0 3.158-1.394 3.158-3.134a3.162 3.162 0 0 0-3.158-3.158m-12.535-.05c-1.757 0-3.183 1.45-3.183 3.208a3.184 3.184 0 0 0 6.366 0c0-1.758-1.426-3.208-3.183-3.208M79.59 26.955c-2.382 0-4.308 1.95-4.308 4.334a4.305 4.305 0 0 0 4.309 4.309c2.384 0 4.333-1.926 4.333-4.31a4.345 4.345 0 0 0-4.333-4.333m-12.535-.441c-2.63 0-4.75 2.146-4.75 4.775a4.742 4.742 0 0 0 4.75 4.749c2.629 0 4.774-2.121 4.774-4.75a4.785 4.785 0 0 0-4.774-4.774m275.769-.538c-2.93 0-5.288 2.384-5.288 5.313a5.277 5.277 0 0 0 5.288 5.288c2.929 0 5.313-2.36 5.313-5.288a5.32 5.32 0 0 0-5.313-5.313m-12.535-.563c-3.235 0-5.851 2.64-5.851 5.876a5.846 5.846 0 0 0 5.85 5.85c3.236 0 5.877-2.615 5.877-5.85 0-3.235-2.641-5.876-5.876-5.876m-12.535-.343a6.222 6.222 0 0 0-6.22 6.219 6.222 6.222 0 0 0 6.22 6.218 6.22 6.22 0 0 0 6.219-6.218 6.222 6.222 0 0 0-6.22-6.22m-225.628-.023c-3.442 0-6.22 2.8-6.22 6.243a6.209 6.209 0 0 0 6.22 6.218c3.442 0 6.243-2.776 6.243-6.218a6.25 6.25 0 0 0-6.243-6.243m263.234-11.58a5.292 5.292 0 0 0-5.29 5.288c0 2.918 2.372 5.263 5.29 5.263 2.917 0 5.289-2.345 5.289-5.263a5.293 5.293 0 0 0-5.29-5.288m-250.698-.05a5.339 5.339 0 0 0-5.337 5.338c0 2.946 2.39 5.312 5.337 5.312 2.946 0 5.337-2.366 5.337-5.312a5.339 5.339 0 0 0-5.337-5.337m238.164-.392a5.732 5.732 0 0 0-5.73 5.729 5.732 5.732 0 0 0 5.73 5.729 5.732 5.732 0 0 0 5.729-5.73 5.732 5.732 0 0 0-5.73-5.728m-94.011 43.334a6.27 6.27 0 0 0 6.267 6.267 6.27 6.27 0 0 0 6.268-6.267 6.27 6.27 0 0 0-6.268-6.268 6.27 6.27 0 0 0-6.267 6.268m-50.14 0a6.27 6.27 0 0 0-6.268-6.268 6.27 6.27 0 0 0-6.267 6.268 6.27 6.27 0 0 0 6.267 6.267 6.27 6.27 0 0 0 6.268-6.267m12.535 0a6.27 6.27 0 0 0-6.267-6.268 6.27 6.27 0 0 0-6.268 6.268 6.27 6.27 0 0 0 6.268 6.267 6.27 6.27 0 0 0 6.267-6.267m12.535 0a6.27 6.27 0 0 0-6.267-6.268 6.27 6.27 0 0 0-6.268 6.268 6.27 6.27 0 0 0 6.268 6.267 6.27 6.27 0 0 0 6.267-6.267m12.535 0a6.27 6.27 0 0 0-6.267-6.268 6.27 6.27 0 0 0-6.268 6.268 6.27 6.27 0 0 0 6.268 6.267 6.27 6.27 0 0 0 6.267-6.267m6.267 6.267a6.27 6.27 0 0 0 6.268-6.267 6.27 6.27 0 0 0-6.268-6.268 6.27 6.27 0 0 0-6.267 6.268 6.27 6.27 0 0 0 6.267 6.267m6.268 6.267a6.27 6.27 0 0 0-6.268-6.267 6.27 6.27 0 0 0-6.267 6.267 6.27 6.27 0 0 0 6.267 6.268 6.27 6.27 0 0 0 6.268-6.268m6.267 6.268a6.27 6.27 0 0 0-6.267 6.267 6.27 6.27 0 0 0 6.267 6.268 6.27 6.27 0 0 0 6.268-6.268 6.27 6.27 0 0 0-6.268-6.267m6.268-6.268a6.27 6.27 0 0 0-6.268-6.267 6.27 6.27 0 0 0-6.267 6.267 6.27 6.27 0 0 0 6.267 6.268 6.27 6.27 0 0 0 6.268-6.268m6.267-6.267a6.27 6.27 0 0 0-6.267 6.267 6.27 6.27 0 0 0 6.267 6.268 6.27 6.27 0 0 0 6.268-6.268 6.27 6.27 0 0 0-6.268-6.267m0-12.535a6.27 6.27 0 0 0-6.267 6.268 6.27 6.27 0 0 0 6.267 6.267 6.27 6.27 0 0 0 6.268-6.267 6.27 6.27 0 0 0-6.268-6.268m-6.267-6.267a6.268 6.268 0 0 0 12.535 0 6.27 6.27 0 0 0-6.268-6.268 6.27 6.27 0 0 0-6.267 6.268m-12.535 0a6.27 6.27 0 0 0 6.267 6.267 6.27 6.27 0 0 0 6.268-6.267 6.27 6.27 0 0 0-6.268-6.268 6.27 6.27 0 0 0-6.267 6.268m-12.535 0a6.27 6.27 0 0 0 6.267 6.267 6.27 6.27 0 0 0 6.268-6.267 6.27 6.27 0 0 0-6.268-6.268 6.27 6.27 0 0 0-6.267 6.268m-12.535 0a6.27 6.27 0 0 0 6.268 6.267 6.27 6.27 0 0 0 6.267-6.267 6.27 6.27 0 0 0-6.267-6.268 6.27 6.27 0 0 0-6.268 6.268m-12.535 0a6.268 6.268 0 1 0 6.268-6.268 6.27 6.27 0 0 0-6.268 6.268m-12.535 0a6.27 6.27 0 0 0 6.268 6.267 6.27 6.27 0 0 0 6.267-6.267 6.27 6.27 0 0 0-6.267-6.268 6.27 6.27 0 0 0-6.268 6.268m-12.535 0a6.27 6.27 0 0 0 6.267 6.267 6.27 6.27 0 0 0 6.268-6.267 6.27 6.27 0 0 0-6.268-6.268 6.27 6.27 0 0 0-6.267 6.268m-12.535 0a6.27 6.27 0 0 0 6.268 6.267 6.27 6.27 0 0 0 6.267-6.267 6.27 6.27 0 0 0-6.267-6.268 6.27 6.27 0 0 0-6.268 6.268m-12.535 0a6.27 6.27 0 0 0 6.268 6.267 6.27 6.27 0 0 0 6.267-6.267 6.27 6.27 0 0 0-6.267-6.268 6.27 6.27 0 0 0-6.268 6.268m-12.535 0a6.27 6.27 0 0 0 6.268 6.267 6.27 6.27 0 0 0 6.267-6.267 6.27 6.27 0 0 0-6.267-6.268 6.27 6.27 0 0 0-6.268 6.268m-12.535 0a6.268 6.268 0 1 0 6.268-6.268 6.27 6.27 0 0 0-6.268 6.268m-12.535 0a6.27 6.27 0 0 0-6.267-6.268 6.27 6.27 0 0 0-6.268 6.268 6.27 6.27 0 0 0 6.268 6.267 6.27 6.27 0 0 0 6.267-6.267m6.268 6.267a6.268 6.268 0 1 0-.002-12.536 6.268 6.268 0 0 0 .002 12.536m6.267 6.268a6.27 6.27 0 0 0-6.267-6.268 6.27 6.27 0 0 0-6.268 6.268 6.268 6.268 0 0 0 12.535 0m12.535 0a6.27 6.27 0 0 0-6.267-6.268 6.27 6.27 0 0 0-6.268 6.268 6.27 6.27 0 0 0 6.268 6.267 6.27 6.27 0 0 0 6.267-6.267m12.535 0a6.27 6.27 0 0 0-6.267-6.268 6.27 6.27 0 0 0-6.268 6.268 6.27 6.27 0 0 0 6.268 6.267 6.27 6.27 0 0 0 6.267-6.267m12.535 0a6.27 6.27 0 0 0-6.267-6.268 6.27 6.27 0 0 0-6.268 6.268 6.27 6.27 0 0 0 6.268 6.267 6.27 6.27 0 0 0 6.267-6.267m6.268 6.267a6.27 6.27 0 0 0 6.267-6.267 6.27 6.27 0 0 0-6.267-6.268 6.27 6.27 0 0 0-6.268 6.268 6.27 6.27 0 0 0 6.268 6.267m6.267 6.267a6.27 6.27 0 0 0-6.267-6.267 6.27 6.27 0 0 0-6.268 6.267 6.27 6.27 0 0 0 6.268 6.268 6.27 6.27 0 0 0 6.267-6.268m12.535 0a6.27 6.27 0 0 0-6.268-6.267 6.27 6.27 0 0 0-6.267 6.267 6.27 6.27 0 0 0 6.267 6.268 6.27 6.27 0 0 0 6.268-6.268m12.535 0a6.27 6.27 0 0 0-6.267-6.267 6.27 6.27 0 0 0-6.268 6.267 6.27 6.27 0 0 0 6.268 6.268 6.27 6.27 0 0 0 6.267-6.268m12.535 0a6.27 6.27 0 0 0-6.267-6.267 6.27 6.27 0 0 0-6.268 6.267 6.27 6.27 0 0 0 6.268 6.268 6.27 6.27 0 0 0 6.267-6.268m6.268 6.268a6.27 6.27 0 0 0 6.267-6.268 6.27 6.27 0 0 0-6.267-6.267 6.27 6.27 0 0 0-6.268 6.267 6.27 6.27 0 0 0 6.268 6.268m6.267 6.267a6.27 6.27 0 0 0-6.267-6.267 6.27 6.27 0 0 0-6.268 6.267 6.27 6.27 0 0 0 6.268 6.268 6.27 6.27 0 0 0 6.267-6.268m6.267 6.268a6.27 6.27 0 0 0 6.268-6.268 6.27 6.27 0 0 0-6.268-6.267 6.27 6.27 0 0 0-6.267 6.267 6.27 6.27 0 0 0 6.267 6.268m6.268 6.267a6.27 6.27 0 0 0-6.268-6.267 6.27 6.27 0 0 0-6.267 6.267 6.27 6.27 0 0 0 6.267 6.268 6.27 6.27 0 0 0 6.268-6.268m6.267 6.268a6.27 6.27 0 0 0-6.267 6.267 6.27 6.27 0 0 0 6.267 6.268 6.27 6.27 0 0 0 6.268-6.268 6.27 6.27 0 0 0-6.268-6.267m6.268-6.268a6.27 6.27 0 0 0-6.268-6.267 6.27 6.27 0 0 0-6.267 6.267 6.27 6.27 0 0 0 6.267 6.268 6.27 6.27 0 0 0 6.268-6.268m6.267-6.267a6.27 6.27 0 0 0-6.267 6.267 6.27 6.27 0 0 0 6.267 6.268 6.27 6.27 0 0 0 6.268-6.268 6.27 6.27 0 0 0-6.268-6.267m6.268-6.268a6.27 6.27 0 0 0-6.268-6.267 6.27 6.27 0 0 0-6.267 6.267 6.27 6.27 0 0 0 6.267 6.268 6.27 6.27 0 0 0 6.268-6.268m6.267-18.802a6.27 6.27 0 0 0-6.267 6.267 6.27 6.27 0 0 0 6.267 6.268 6.27 6.27 0 0 0 6.268-6.268 6.27 6.27 0 0 0-6.268-6.267m0-12.535a6.27 6.27 0 0 0-6.267 6.268 6.27 6.27 0 0 0 6.267 6.267 6.27 6.27 0 0 0 6.268-6.267 6.27 6.27 0 0 0-6.268-6.268m0-12.535a6.27 6.27 0 0 0-6.267 6.268 6.27 6.27 0 0 0 6.267 6.267 6.27 6.27 0 0 0 6.268-6.267 6.27 6.27 0 0 0-6.268-6.268m6.268-6.267a6.27 6.27 0 0 0 6.268 6.267 6.269 6.269 0 0 0 6.266-6.267 6.27 6.27 0 0 0-6.266-6.268 6.27 6.27 0 0 0-6.268 6.268m-12.535 0a6.27 6.27 0 0 0 6.267 6.267 6.27 6.27 0 0 0 6.268-6.267 6.27 6.27 0 0 0-6.268-6.268 6.27 6.27 0 0 0-6.267 6.268m-12.535 0a6.27 6.27 0 0 0 6.267 6.267 6.27 6.27 0 0 0 6.268-6.267 6.27 6.27 0 0 0-6.268-6.268 6.27 6.27 0 0 0-6.267 6.268m-12.535 0a6.27 6.27 0 0 0 6.267 6.267 6.27 6.27 0 0 0 6.268-6.267 6.27 6.27 0 0 0-6.268-6.268 6.27 6.27 0 0 0-6.267 6.268m-12.535 0a6.27 6.27 0 0 0 6.267 6.267 6.27 6.27 0 0 0 6.268-6.267 6.27 6.27 0 0 0-6.268-6.268 6.27 6.27 0 0 0-6.267 6.268m-12.535 0a6.27 6.27 0 0 0 6.268 6.267 6.27 6.27 0 0 0 6.267-6.267 6.27 6.27 0 0 0-6.267-6.268 6.27 6.27 0 0 0-6.268 6.268m-12.535 0a6.27 6.27 0 0 0 6.268 6.267 6.27 6.27 0 0 0 6.267-6.267 6.27 6.27 0 0 0-6.267-6.268 6.27 6.27 0 0 0-6.268 6.268m-12.535 0a6.27 6.27 0 0 0 6.268 6.267 6.27 6.27 0 0 0 6.267-6.267 6.27 6.27 0 0 0-6.267-6.268 6.27 6.27 0 0 0-6.268 6.268m-12.535 0a6.27 6.27 0 0 0 6.267 6.267 6.27 6.27 0 0 0 6.268-6.267 6.27 6.27 0 0 0-6.268-6.268 6.27 6.27 0 0 0-6.267 6.268m-12.535 0a6.27 6.27 0 0 0 6.268 6.267 6.27 6.27 0 0 0 6.267-6.267 6.27 6.27 0 0 0-6.267-6.268 6.27 6.27 0 0 0-6.268 6.268m-12.535 0a6.27 6.27 0 0 0 6.268 6.267 6.27 6.27 0 0 0 6.267-6.267 6.27 6.27 0 0 0-6.267-6.268 6.27 6.27 0 0 0-6.268 6.268m-12.535 0a6.27 6.27 0 0 0 6.268 6.267 6.27 6.27 0 0 0 6.267-6.267 6.27 6.27 0 0 0-6.267-6.268 6.27 6.27 0 0 0-6.268 6.268m-12.535 0a6.27 6.27 0 0 0 6.268 6.267 6.27 6.27 0 0 0 6.267-6.267 6.27 6.27 0 0 0-6.267-6.268 6.27 6.27 0 0 0-6.268 6.268m-12.535 0a6.268 6.268 0 1 0 6.268-6.268 6.27 6.27 0 0 0-6.268 6.268m-12.535 0a6.27 6.27 0 0 0 6.268 6.267 6.27 6.27 0 0 0 6.267-6.267 6.27 6.27 0 0 0-6.267-6.268 6.27 6.27 0 0 0-6.268 6.268m-6.267 6.267a6.27 6.27 0 0 0 6.267-6.267 6.27 6.27 0 0 0-6.267-6.268 6.27 6.27 0 0 0-6.267 6.268 6.27 6.27 0 0 0 6.267 6.267m-6.267 6.268a6.268 6.268 0 0 0 6.267 6.267 6.268 6.268 0 0 0 0-12.535 6.27 6.27 0 0 0-6.267 6.268m-12.536 0a6.27 6.27 0 0 0 6.268 6.267 6.27 6.27 0 0 0 6.268-6.267 6.27 6.27 0 0 0-6.268-6.268 6.27 6.27 0 0 0-6.268 6.268m-6.267 6.267a6.268 6.268 0 0 0 0-12.535 6.268 6.268 0 0 0 0 12.535m-25.07 12.535a6.27 6.27 0 0 0 6.268-6.267 6.27 6.27 0 0 0-6.268-6.268 6.27 6.27 0 0 0-6.267 6.268 6.27 6.27 0 0 0 6.267 6.267M35.72 68.893a6.27 6.27 0 0 0-6.268-6.267 6.27 6.27 0 0 0-6.267 6.267 6.27 6.27 0 0 0 6.267 6.268 6.27 6.27 0 0 0 6.268-6.268m12.535 0a6.27 6.27 0 0 0-6.268-6.267 6.27 6.27 0 0 0-6.267 6.267 6.27 6.27 0 0 0 6.267 6.268 6.27 6.27 0 0 0 6.268-6.268m12.535 0a6.27 6.27 0 0 0-6.268-6.267 6.27 6.27 0 0 0-6.267 6.267 6.27 6.27 0 0 0 6.267 6.268 6.27 6.27 0 0 0 6.268-6.268m6.267-6.267a6.27 6.27 0 0 0-6.267 6.267 6.27 6.27 0 0 0 6.267 6.268 6.27 6.27 0 0 0 6.268-6.268 6.27 6.27 0 0 0-6.268-6.267m6.268-6.267a6.27 6.27 0 0 0-6.268-6.268 6.27 6.27 0 0 0-6.267 6.268 6.27 6.27 0 0 0 6.267 6.267 6.27 6.27 0 0 0 6.268-6.267m12.534 0a6.27 6.27 0 0 0-6.267-6.268 6.27 6.27 0 0 0-6.267 6.268 6.27 6.27 0 0 0 6.267 6.267 6.27 6.27 0 0 0 6.267-6.267m12.536 0a6.27 6.27 0 0 0-6.268-6.268 6.27 6.27 0 0 0-6.268 6.268 6.27 6.27 0 0 0 6.268 6.267 6.27 6.27 0 0 0 6.268-6.267m12.534 0a6.27 6.27 0 0 0-6.267-6.268 6.27 6.27 0 0 0-6.267 6.268 6.27 6.27 0 0 0 6.267 6.267 6.27 6.27 0 0 0 6.267-6.267m6.268 6.267a6.27 6.27 0 0 0 6.267-6.267 6.27 6.27 0 0 0-6.267-6.268 6.27 6.27 0 0 0-6.268 6.268 6.27 6.27 0 0 0 6.268 6.267m6.267 6.267a6.274 6.274 0 0 0-6.267-6.267c-3.456 0-6.243 2.81-6.243 6.267a6.234 6.234 0 0 0 6.243 6.244c3.456 0 6.267-2.787 6.267-6.244m12.535 0a6.27 6.27 0 0 0-6.267-6.267 6.27 6.27 0 0 0-6.268 6.267 6.269 6.269 0 0 0 12.535 0m12.535 0a6.27 6.27 0 0 0-6.267-6.267 6.27 6.27 0 0 0-6.268 6.267 6.27 6.27 0 0 0 6.268 6.268 6.27 6.27 0 0 0 6.267-6.268m12.535 0a6.27 6.27 0 0 0-6.267-6.267 6.27 6.27 0 0 0-6.268 6.267 6.27 6.27 0 0 0 6.268 6.268 6.27 6.27 0 0 0 6.267-6.268m6.268 6.268a6.27 6.27 0 0 0 6.267-6.268 6.27 6.27 0 0 0-6.267-6.267 6.27 6.27 0 0 0-6.268 6.267 6.27 6.27 0 0 0 6.268 6.268m6.267 6.267a6.27 6.27 0 0 0-6.267-6.267 6.27 6.27 0 0 0-6.268 6.267 6.27 6.27 0 0 0 6.268 6.268 6.27 6.27 0 0 0 6.267-6.268m12.535 0a6.27 6.27 0 0 0-6.267-6.267 6.27 6.27 0 0 0-6.268 6.267 6.27 6.27 0 0 0 6.268 6.268 6.27 6.27 0 0 0 6.267-6.268m12.535 0a6.27 6.27 0 0 0-6.268-6.267 6.27 6.27 0 0 0-6.267 6.267 6.27 6.27 0 0 0 6.267 6.268 6.27 6.27 0 0 0 6.268-6.268m12.535 0a6.27 6.27 0 0 0-6.267-6.267 6.27 6.27 0 0 0-6.268 6.267 6.27 6.27 0 0 0 6.268 6.268 6.27 6.27 0 0 0 6.267-6.268m6.268 6.268a6.27 6.27 0 0 0 6.267-6.268 6.27 6.27 0 0 0-6.267-6.267 6.27 6.27 0 0 0-6.268 6.267 6.27 6.27 0 0 0 6.268 6.268m6.267 6.267a6.27 6.27 0 0 0-6.267-6.267 6.27 6.27 0 0 0-6.268 6.267 6.27 6.27 0 0 0 6.268 6.268 6.27 6.27 0 0 0 6.267-6.268m6.268 6.268a6.27 6.27 0 0 0 6.267-6.268 6.27 6.27 0 0 0-6.267-6.267 6.27 6.27 0 0 0-6.268 6.267 6.27 6.27 0 0 0 6.268 6.268m6.267 6.267a6.27 6.27 0 0 0-6.267-6.267 6.27 6.27 0 0 0-6.268 6.267 6.27 6.27 0 0 0 6.268 6.268 6.27 6.27 0 0 0 6.267-6.268m6.267 6.268a6.27 6.27 0 0 0 6.268-6.268 6.27 6.27 0 0 0-6.268-6.267 6.27 6.27 0 0 0-6.267 6.267 6.27 6.27 0 0 0 6.267 6.268m6.268 6.268a6.27 6.27 0 0 0-6.268-6.268 6.27 6.27 0 0 0-6.267 6.268 6.27 6.27 0 0 0 6.267 6.267 6.27 6.27 0 0 0 6.268-6.267m6.267 6.267a6.27 6.27 0 0 0-6.267 6.268 6.27 6.27 0 0 0 6.267 6.267 6.27 6.27 0 0 0 6.268-6.267 6.27 6.27 0 0 0-6.268-6.268m6.268-6.267a6.27 6.27 0 0 0-6.268-6.268 6.27 6.27 0 0 0-6.267 6.268 6.27 6.27 0 0 0 6.267 6.267 6.27 6.27 0 0 0 6.268-6.267m6.267-6.268a6.27 6.27 0 0 0-6.267 6.268 6.27 6.27 0 0 0 6.267 6.267 6.27 6.27 0 0 0 6.268-6.267 6.27 6.27 0 0 0-6.268-6.268m6.268-6.268a6.268 6.268 0 1 0-6.268 6.268 6.27 6.27 0 0 0 6.268-6.268m6.267-6.267a6.27 6.27 0 0 0-6.267 6.267 6.27 6.27 0 0 0 6.267 6.268 6.27 6.27 0 0 0 6.268-6.268 6.27 6.27 0 0 0-6.268-6.267m6.268-6.268a6.27 6.27 0 0 0-6.268-6.267 6.27 6.27 0 0 0-6.267 6.267 6.27 6.27 0 0 0 6.267 6.268 6.27 6.27 0 0 0 6.268-6.268m6.268-6.267a6.27 6.27 0 0 0-6.268 6.267 6.27 6.27 0 0 0 6.268 6.268 6.27 6.27 0 0 0 6.266-6.268 6.269 6.269 0 0 0-6.266-6.267m6.266-6.268a6.269 6.269 0 0 0-6.266-6.267 6.27 6.27 0 0 0-6.268 6.267 6.27 6.27 0 0 0 6.268 6.268 6.27 6.27 0 0 0 6.266-6.268m6.268-6.267a6.27 6.27 0 0 0-6.268 6.267 6.27 6.27 0 0 0 6.268 6.268 6.27 6.27 0 0 0 6.267-6.268 6.27 6.27 0 0 0-6.267-6.267m6.267-6.268a6.27 6.27 0 0 0 6.268 6.268 6.27 6.27 0 0 0 6.268-6.268 6.27 6.27 0 0 0-6.268-6.267 6.27 6.27 0 0 0-6.268 6.267m-12.535 0a6.27 6.27 0 0 0 6.268 6.268 6.27 6.27 0 0 0 6.267-6.268 6.27 6.27 0 0 0-6.267-6.267 6.27 6.27 0 0 0-6.268 6.267m-6.266-6.267a6.27 6.27 0 0 0-6.268 6.267 6.27 6.27 0 0 0 6.268 6.268 6.27 6.27 0 0 0 6.266-6.268 6.269 6.269 0 0 0-6.266-6.267m0-12.535a6.27 6.27 0 0 0-6.268 6.268 6.27 6.27 0 0 0 6.268 6.267 6.269 6.269 0 0 0 6.266-6.267 6.27 6.27 0 0 0-6.266-6.268m6.266-6.267a6.27 6.27 0 0 0-6.266-6.268 6.27 6.27 0 0 0-6.268 6.268 6.27 6.27 0 0 0 6.268 6.267 6.268 6.268 0 0 0 6.266-6.267m6.268 6.267c-3.45 0-6.242 2.818-6.242 6.268a6.24 6.24 0 0 0 6.242 6.242c3.45 0 6.267-2.793 6.267-6.242 0-3.45-2.817-6.268-6.267-6.268m31.338-6.267a6.268 6.268 0 0 0 12.535 0 6.27 6.27 0 0 0-6.268-6.268 6.27 6.27 0 0 0-6.267 6.268m-12.535 0a6.268 6.268 0 0 0 12.535 0 6.27 6.27 0 0 0-6.268-6.268 6.27 6.27 0 0 0-6.267 6.268m-12.536 0a6.27 6.27 0 0 0 6.268 6.267 6.27 6.27 0 0 0 6.268-6.267 6.27 6.27 0 0 0-6.268-6.268 6.27 6.27 0 0 0-6.268 6.268m-6.267-6.268a6.27 6.27 0 0 0-6.268 6.268 6.268 6.268 0 1 0 6.268-6.268m0-12.535a6.27 6.27 0 0 0-6.268 6.268 6.27 6.27 0 0 0 6.268 6.267 6.27 6.27 0 0 0 6.267-6.267 6.27 6.27 0 0 0-6.267-6.268m18.803-6.267a6.27 6.27 0 0 0 6.267 6.267 6.27 6.27 0 0 0 6.268-6.267 6.27 6.27 0 0 0-6.268-6.268 6.27 6.27 0 0 0-6.267 6.268m-12.536 0a6.27 6.27 0 0 0 6.268 6.267 6.27 6.27 0 0 0 6.268-6.267 6.27 6.27 0 0 0-6.268-6.268 6.27 6.27 0 0 0-6.268 6.268m-12.535 0a6.27 6.27 0 0 0 6.268 6.267 6.27 6.27 0 0 0 6.267-6.267 6.27 6.27 0 0 0-6.267-6.268 6.27 6.27 0 0 0-6.268 6.268m-12.534 0a6.27 6.27 0 0 0 6.268 6.267 6.269 6.269 0 0 0 6.266-6.267 6.27 6.27 0 0 0-6.266-6.268 6.27 6.27 0 0 0-6.268 6.268m-12.535 0a6.27 6.27 0 0 0 6.267 6.267 6.27 6.27 0 0 0 6.268-6.267 6.27 6.27 0 0 0-6.268-6.268 6.27 6.27 0 0 0-6.267 6.268m-12.535 0a6.27 6.27 0 0 0 6.267 6.267 6.27 6.27 0 0 0 6.268-6.267 6.27 6.27 0 0 0-6.268-6.268 6.27 6.27 0 0 0-6.267 6.268m-12.535 0a6.27 6.27 0 0 0 6.267 6.267 6.27 6.27 0 0 0 6.268-6.267 6.27 6.27 0 0 0-6.268-6.268 6.27 6.27 0 0 0-6.267 6.268m-12.535 0a6.27 6.27 0 0 0 6.267 6.267 6.27 6.27 0 0 0 6.268-6.267 6.27 6.27 0 0 0-6.268-6.268 6.27 6.27 0 0 0-6.267 6.268m-12.535 0a6.27 6.27 0 0 0 6.268 6.267 6.27 6.27 0 0 0 6.267-6.267 6.27 6.27 0 0 0-6.267-6.268 6.27 6.27 0 0 0-6.268 6.268m-12.535 0a6.27 6.27 0 0 0 6.268 6.267 6.27 6.27 0 0 0 6.267-6.267 6.27 6.27 0 0 0-6.267-6.268 6.27 6.27 0 0 0-6.268 6.268m-12.535 0a6.27 6.27 0 0 0 6.268 6.267 6.27 6.27 0 0 0 6.267-6.267 6.27 6.27 0 0 0-6.267-6.268 6.27 6.27 0 0 0-6.268 6.268m-12.535 0a6.27 6.27 0 0 0 6.267 6.267 6.27 6.27 0 0 0 6.268-6.267 6.27 6.27 0 0 0-6.268-6.268 6.27 6.27 0 0 0-6.267 6.268m-12.535 0a6.27 6.27 0 0 0 6.268 6.267 6.27 6.27 0 0 0 6.267-6.267 6.27 6.27 0 0 0-6.267-6.268 6.27 6.27 0 0 0-6.268 6.268m-12.535 0a6.27 6.27 0 0 0 6.268 6.267 6.27 6.27 0 0 0 6.267-6.267 6.27 6.27 0 0 0-6.267-6.268 6.27 6.27 0 0 0-6.268 6.268m-12.535 0a6.27 6.27 0 0 0 6.268 6.267 6.27 6.27 0 0 0 6.267-6.267 6.27 6.27 0 0 0-6.267-6.268 6.27 6.27 0 0 0-6.268 6.268m-12.535 0a6.27 6.27 0 0 0 6.268 6.267 6.27 6.27 0 0 0 6.267-6.267 6.27 6.27 0 0 0-6.267-6.268 6.27 6.27 0 0 0-6.268 6.268m-12.535 0a6.268 6.268 0 1 0 6.268-6.268 6.27 6.27 0 0 0-6.268 6.268m-6.267-6.268c-3.45 0-6.243 2.819-6.243 6.268a6.242 6.242 0 0 0 6.243 6.243c3.45 0 6.267-2.794 6.267-6.243 0-3.45-2.817-6.268-6.267-6.268M355.36 1.176c-2.778 0-5.02 2.265-5.02 5.043a5.011 5.011 0 0 0 5.02 5.019c2.778 0 5.043-2.241 5.043-5.02a5.052 5.052 0 0 0-5.043-5.042M230.01.466c-3.166 0-5.73 2.586-5.73 5.753a5.726 5.726 0 0 0 5.73 5.729c3.167 0 5.754-2.562 5.754-5.73 0-3.166-2.587-5.752-5.753-5.752M217.477.44a5.782 5.782 0 0 0-5.78 5.778c0 3.189 2.59 5.753 5.78 5.753 3.188 0 5.777-2.564 5.777-5.753A5.78 5.78 0 0 0 217.477.44m-12.535 0a5.78 5.78 0 0 0-5.778 5.778c0 3.189 2.589 5.753 5.778 5.753 3.188 0 5.778-2.564 5.778-5.753A5.781 5.781 0 0 0 204.942.44m-12.536 0a5.78 5.78 0 0 0-5.777 5.778c0 3.189 2.589 5.753 5.777 5.753 3.189 0 5.779-2.564 5.779-5.753a5.782 5.782 0 0 0-5.78-5.778m-12.533 0a5.78 5.78 0 0 0-5.778 5.778c0 3.189 2.589 5.753 5.778 5.753 3.188 0 5.778-2.564 5.778-5.753A5.781 5.781 0 0 0 179.872.44m-62.675 0c-3.184 0-5.754 2.594-5.754 5.778a5.745 5.745 0 0 0 5.754 5.753c3.184 0 5.778-2.57 5.778-5.753A5.787 5.787 0 0 0 117.197.44M242.546.416c-3.192 0-5.777 2.61-5.777 5.803a5.775 5.775 0 0 0 5.777 5.777c3.193 0 5.803-2.584 5.803-5.777s-2.61-5.803-5.803-5.803m-75.21 0c-3.192 0-5.777 2.61-5.777 5.803a5.775 5.775 0 0 0 5.778 5.777c3.193 0 5.802-2.584 5.802-5.777s-2.61-5.803-5.802-5.803M255.08.392c-3.21 0-5.802 2.617-5.802 5.827a5.795 5.795 0 0 0 5.802 5.802c3.21 0 5.827-2.592 5.827-5.802A5.837 5.837 0 0 0 255.08.392m12.535-.05a5.878 5.878 0 0 0-5.876 5.877 5.879 5.879 0 0 0 5.876 5.876 5.879 5.879 0 0 0 5.876-5.876 5.878 5.878 0 0 0-5.876-5.876m-112.814 0c-3.24 0-5.852 2.636-5.852 5.876a5.842 5.842 0 0 0 5.852 5.85c3.239 0 5.875-2.611 5.875-5.85a5.882 5.882 0 0 0-5.875-5.876M280.15.293c-3.26 0-5.9 2.666-5.9 5.926 0 3.26 2.64 5.9 5.9 5.9 3.26 0 5.9-2.64 5.9-5.9 0-3.26-2.64-5.925-5.9-5.925M142.267.27a5.952 5.952 0 0 0-5.95 5.949 5.952 5.952 0 0 0 5.95 5.949 5.951 5.951 0 0 0 5.949-5.95 5.951 5.951 0 0 0-5.95-5.948m150.42-.05c-3.307 0-5.973 2.69-5.973 5.999a5.964 5.964 0 0 0 5.974 5.974c3.306 0 5.998-2.667 5.998-5.974A6.005 6.005 0 0 0 292.687.22M129.732.17c-3.331 0-6.023 2.718-6.023 6.048a6.018 6.018 0 0 0 6.023 6.023c3.33 0 6.047-2.693 6.047-6.023 0-3.33-2.716-6.047-6.047-6.047M305.22.122c-3.357 0-6.071 2.74-6.071 6.097a6.066 6.066 0 0 0 6.07 6.07c3.358 0 6.097-2.713 6.097-6.07S308.577.123 305.22.123m12.535-.05c-3.386 0-6.12 2.76-6.12 6.146a6.112 6.112 0 0 0 6.12 6.12c3.387 0 6.145-2.734 6.145-6.12a6.154 6.154 0 0 0-6.145-6.145m12.535-.05c-3.415 0-6.17 2.78-6.17 6.195a6.16 6.16 0 0 0 6.17 6.17c3.415 0 6.194-2.755 6.194-6.17A6.202 6.202 0 0 0 330.29.025M342.826 0a6.22 6.22 0 0 0-6.218 6.219 6.22 6.22 0 0 0 6.218 6.218 6.22 6.22 0 0 0 6.218-6.218 6.22 6.22 0 0 0-6.218-6.22"/><path d="M280.15 75.16a6.27 6.27 0 0 0-6.266 6.268 6.27 6.27 0 0 0 6.267 6.268 6.27 6.27 0 0 0 6.268-6.268 6.27 6.27 0 0 0-6.268-6.267"/></g></svg>