<svg width="62" height="62" xmlns="http://www.w3.org/2000/svg"><g stroke="#265D33" stroke-width="2" fill="none" fill-rule="evenodd"><path d="m44.568 57.128-.006-.005c-3.208-2.229-7.664-.822-8.998 2.838l-.003.007c-.451 1.237-2.14 1.402-2.823.277l-.008-.013c-2.023-3.332-6.67-3.848-9.38-1.044l-.001.003c-.917.946-2.528.416-2.692-.89l-.005-.022c-.489-3.862-4.522-6.209-8.143-4.744-1.223.495-2.477-.642-2.096-1.902l.008-.028c1.125-3.724-1.598-7.498-5.502-7.627h-.002c-1.318-.042-2-1.587-1.14-2.584l.024-.028c2.545-2.944 1.598-7.49-1.91-9.189l-.006-.001c-1.187-.574-1.178-2.26.014-2.823l.037-.016c3.524-1.662 4.518-6.191 2.01-9.164l-.009-.01c-.847-1.005-.15-2.541 1.167-2.57l.04-.002c3.895-.09 6.653-3.82 5.582-7.552l-.006-.018c-.362-1.263.902-2.38 2.119-1.876l.03.014c3.596 1.496 7.64-.792 8.188-4.63l.005-.027c.185-1.3 1.798-1.809 2.702-.854l.018.02c2.67 2.825 7.3 2.377 9.372-.907l.02-.028c.7-1.112 2.381-.921 2.814.317l.006.02c1.282 3.664 5.696 5.133 8.934 2.974l.03-.021c1.097-.732 2.555.124 2.443 1.433l-.002.013c-.331 3.867 3.103 7.002 6.945 6.338l.037-.007c1.3-.224 2.283 1.15 1.644 2.3l-.002.005c-1.887 3.4-.03 7.657 3.753 8.609l.035.008c1.28.32 1.617 1.975.563 2.766l-.002.001c-3.117 2.343-3.16 6.99-.087 9.388l.024.02c1.04.812.672 2.46-.614 2.757-3.809.878-5.747 5.108-3.916 8.546l.01.02c.62 1.162-.39 2.52-1.687 2.27h-.001c-3.84-.738-7.339 2.346-7.066 6.23l.002.016c.091 1.31-1.385 2.144-2.469 1.392Z"/><path d="M50 30.5C50 41.27 41.27 50 30.5 50S11 41.27 11 30.5 19.73 11 30.5 11 50 19.73 50 30.5Z"/><path d="M24 31.222 29.455 37 39 24"/></g></svg>