<svg width="35" height="28" xmlns="http://www.w3.org/2000/svg"><path d="M35 3.314a14.55 14.55 0 0 1-4.125 1.113 7.11 7.11 0 0 0 3.158-3.91 14.54 14.54 0 0 1-4.56 1.715A7.225 7.225 0 0 0 24.232 0c-3.966 0-7.18 3.164-7.18 7.069 0 .553.063 1.093.186 1.61A20.495 20.495 0 0 1 2.437 1.293a6.957 6.957 0 0 0-.972 3.554c0 2.452 1.267 4.616 3.193 5.884a7.23 7.23 0 0 1-3.251-.884c-.002.03-.002.059-.002.089 0 3.425 2.476 6.281 5.761 6.93a7.301 7.301 0 0 1-3.243.122c.914 2.809 3.566 4.852 6.708 4.91a14.553 14.553 0 0 1-8.918 3.025c-.58 0-1.15-.034-1.713-.098A20.563 20.563 0 0 0 11.007 28c13.209 0 20.43-10.771 20.43-20.112 0-.307-.006-.612-.02-.915A14.44 14.44 0 0 0 35 3.314" fill="#FFF" fill-rule="evenodd"/></svg>