<svg xmlns="http://www.w3.org/2000/svg" width="247.51" height="19.032"><path fill="#fff" d="M204.26 16.429a8.755 8.755 0 01-3.041-6.913A8.751 8.751 0 01204.26 2.6a14.45 14.45 0 0116.549 0 8.74 8.74 0 013.056 6.912 8.742 8.742 0 01-3.056 6.913 14.45 14.45 0 01-16.549 0zm1.535-6.913c0 3.464 2.58 5.616 6.735 5.616s6.734-2.152 6.734-5.616c0-3.48-2.58-5.642-6.734-5.642s-6.736 2.161-6.736 5.642zm-53.428 3.12h4.833c0 1.508 1.794 2.5 5.33 2.5 3.77 0 5.746-.545 5.746-1.82 0-4.212-15.444 1.352-15.444-7.462 0-3.718 4.082-5.85 9.828-5.85 5.954 0 9.75 2.626 9.75 6.4h-4.628c0-1.508-1.821-2.523-5.122-2.523-3.251 0-5.2.572-5.2 1.769 0 3.9 15.418-1.144 15.418 7.514 0 3.926-3.822 5.876-10.322 5.876-6.316-.008-10.216-2.66-10.19-6.404zM73.278 9.074V.416h4.6v9.438c0 3.432 1.795 5.148 5.174 5.148 3.354 0 5.174-1.716 5.174-5.148V.416H92.8v8.658c0 7.748-3.8 9.959-9.751 9.959s-9.771-2.211-9.771-9.959zM44.51 18.616L55.482.416h5.148L71.6 18.615h-5.354L64.3 15.21H51.843l-1.95 3.406H44.51zm9.516-7.28h8.06l-4-7.1zm173.282 7.28V.416h13.754a6.8 6.8 0 014.338 1.271 4.172 4.172 0 011.511 3.357c0 2.383-1.66 3.578-5.382 3.875V9.1c3.912.206 5.98 1.762 5.98 4.5a4.686 4.686 0 01-1.612 3.6 6.388 6.388 0 01-4.264 1.417zm4.628-3.926h8.606c1.571 0 2.366-.682 2.366-2.028 0-1.328-.8-2-2.366-2h-8.632zm-.026-7.2h8.242c1.532 0 2.184-.466 2.184-1.561 0-1.132-.673-1.638-2.184-1.638h-8.268zM193.9 18.616L181.316 7.28v11.336h-4.6V.416h3.8l12.636 11.363V.416h4.6v18.2zm-66.829 0V12.74L117.554.416h5.646l6.162 8.424L135.52.416h5.642l-9.517 12.3v5.9zm-23.594 0V4.29h-7.619V.416H115.7V4.29h-7.644v14.326zm-79.881 0V.416h18.328V4.29H28.2V7.2h12.19v3.667H28.2v3.847h13.724v3.9zM0 18.616V.416h13.754a6.8 6.8 0 014.339 1.271A4.175 4.175 0 0119.6 5.044c0 2.383-1.66 3.578-5.382 3.875V9.1c3.912.206 5.981 1.762 5.981 4.5a4.686 4.686 0 01-1.612 3.6 6.388 6.388 0 01-4.264 1.417zm4.628-3.926h8.606c1.57 0 2.366-.682 2.366-2.028 0-1.328-.8-2-2.366-2H4.6zM4.6 7.488h8.242c1.531 0 2.184-.466 2.184-1.561 0-1.132-.674-1.638-2.184-1.638H4.576z"/></svg>