<svg width="28" height="28" xmlns="http://www.w3.org/2000/svg"><path d="M24.615 24.544H4.302a.847.847 0 01-.846-.846V11.003h3.386c-.441.634-.59 1.818-.59 2.57 0 4.532 3.696 8.22 8.238 8.22 4.543 0 8.24-3.688 8.24-8.22 0-.752-.107-1.918-.654-2.57h3.385v12.695a.846.846 0 01-.846.846M14.49 8.377a5.202 5.202 0 015.208 5.196 5.202 5.202 0 01-5.208 5.197 5.202 5.202 0 01-5.208-5.197 5.202 5.202 0 015.208-5.196m6.74-4.992h2.539c.467 0 .846.38.846.847V6.77c0 .467-.38.846-.846.846h-2.54a.847.847 0 01-.846-.846V4.23c0-.466.38-.846.847-.846M24.78 0H4.138a3.216 3.216 0 00-3.22 3.212v20.66a3.216 3.216 0 003.22 3.211H24.78A3.216 3.216 0 0028 23.871V3.211A3.216 3.216 0 0024.78 0" fill="#FFF" fill-rule="evenodd"/></svg>