<svg width="29" height="28" xmlns="http://www.w3.org/2000/svg"><path d="M24.265 23.077h-4.074v-6.285c0-1.498-.028-3.428-2.12-3.428-2.122 0-2.447 1.633-2.447 3.32v6.392H11.55V10.153h3.911v1.766h.055a4.258 4.258 0 011.637-1.57 4.34 4.34 0 012.223-.518c4.13 0 4.89 2.676 4.89 6.156v7.09zM6.952 8.387a2.39 2.39 0 01-1.314-.393 2.337 2.337 0 01-.87-1.045 2.296 2.296 0 01.511-2.538 2.398 2.398 0 012.577-.505c.432.176.802.474 1.062.857a2.304 2.304 0 01-.294 2.94 2.367 2.367 0 01-1.672.683zm2.037 14.69H4.911V10.153h4.078v12.924zM26.297.002H2.863a2.023 2.023 0 00-1.425.562C1.058.93.84 1.43.834 1.954V25.13c.006.524.223 1.024.604 1.39.38.367.893.57 1.425.564h23.434a2.03 2.03 0 001.429-.562c.382-.366.6-.867.608-1.392V1.952a1.966 1.966 0 00-.609-1.39A2.029 2.029 0 0026.297 0" fill="#FFF"/></svg>