<svg width="28" height="28" xmlns="http://www.w3.org/2000/svg"><path d="M13.542 0c7.479 0 13.541 6.063 13.541 13.542s-6.062 13.541-13.541 13.541C6.062 27.083 0 21.021 0 13.542 0 6.062 6.063 0 13.542 0zm6.447 7.682c-.214-.081-.576.04-.576.04s-3.205 1.153-6.502 2.369l-.66.244c-3.075 1.138-6.05 2.268-6.391 2.507-.158.11-.211.173-.237.248-.127.363.268.523.268.523l3.304 1.077c.056.01.113.006.167-.01.752-.475 7.564-4.776 7.957-4.92.062-.02.108.002.096.044-.068.239-1.21 1.355-2.486 2.546l-.406.378c-1.565 1.45-3.182 2.887-3.182 2.887s-.057.066-.047.119a.143.143 0 00.062.101c.75.502 4.148 2.786 5.131 3.631.179.174.42.267.669.259.5-.019.64-.57.64-.57s.678-2.726 1.316-5.44l.135-.58c.494-2.119.931-4.11.964-4.643.008-.123.018-.202.02-.286a1.056 1.056 0 00-.03-.292.312.312 0 00-.212-.232z" fill="#FFF"/></svg>