<svg xmlns="http://www.w3.org/2000/svg" width="386.328" height="40"><g fill="#1d1d1b"><path d="M368.148 33.854c0-1.854 2.35-8.742 2.35-10.979 0-2.514-1.37-3.047-2.984-3.142h-1.678a5.225 5.225 0 00-.628 0 4.882 4.882 0 01-1.935.05l-.309-.082a2.69 2.69 0 01-1.678-3.406 1.183 1.183 0 01.057-.208 2.544 2.544 0 013.211-1.678 2.325 2.325 0 011.715 3.142.571.571 0 00.094.7 1.231 1.231 0 00.371.245 2.7 2.7 0 00.44.151 6.3 6.3 0 004.4-1.791c1.59-1.609 3.878-6.938 3.878-11.035 0-3.011-1.445-4.047-4.4-4.047h-3.173l-3.25 11.882a3.9 3.9 0 00-2.64.415c-1.772 1.075-2 3.148-.917 4.92a3.573 3.573 0 001.69 1.49l-4.833 17.677h3.371l-.276 1.044h-14.7L356.943.736h19.444c4.2 0 9.941 1.094 9.941 7.924 0 6.278-5.826 10.489-14.453 10.489l-.113.106c4.374.277 9.294 1.917 9.294 7.158 0 2.621-2.023 7.484-2.023 9.125 0 .767.546 1.037 1.307 1.037a5.953 5.953 0 003.3-1.791l.628.93c-2.948 2.785-5.788 3.877-8.854 3.877-3.602 0-7.266-1.255-7.266-5.737zm-257.584 5.222L120.726 2.2h-3.419l.283-1.03h32.432l-3.456 12.31h-1.031c0-8.924-3.036-11.311-9.98-11.311h-3.588L127.4 18.736h1.4c3.746 0 6.781-.811 9.062-5.8h1.194l-3.909 13.938h-1.257a11.558 11.558 0 00.22-2.282c0-3.2-1.031-4.826-5.53-4.826h-1.471l-5.026 18.28h3.394l-.309 1.03zm-104.632 0L2.79 2.169H0l.257-1.024H16.61l-.271 1.024H13.58l2.02 25.055h.107L21.055 17c.246-.591.327-1.251-.5-1.314a2.728 2.728 0 01-2.244-3.582 1.222 1.222 0 00.063-.251 3.034 3.034 0 013.778-2.017 3.6 3.6 0 01.377.094 3.173 3.173 0 012.086 3.984 4.841 4.841 0 01-1.2 1.961s-.56.735-1.188 1.633c-.282.409-11.127 21.568-11.127 21.568z"/><path data-name="Shape" d="M314.065 39.203l10.351-37.4h-3.381l.276-1.035h33.934l-3.412 12.4h-1.012c0-8.955-3.061-11.362-10.055-11.362h-5.078l-4.644 16.936h3.5c3.771 0 6.831-.817 9.119-5.845h1.175l-3.934 14.039h-1.257a11.679 11.679 0 00.22-2.294c0-2.564-1.37-4.857-5.19-4.857h-3.934l-5.084 18.406h3.827c6.774 0 13.63-2.978 17.32-11.01h1.119l-3.312 12.022zm-289.154-.12l-1.772-21.3c.786-1.47 2.583-3.211 2.627-4.613a4.022 4.022 0 00-3.382-4.075l-.571-6.894h-2.64l.264-1.024h16.062l-.27 1.024h-2.756l2.048 24.678h.113l8.139-15.93a10.192 10.192 0 001.351-4.631c-.003-2.427-1.351-4.15-4.051-4.15l.27-1.024h13.072l-.242 1.024h-.327c-4.361 0-6.033 3.771-7.754 7.114l-15.3 29.8z"/><path data-name="Shape" d="M297.576 39.987c-7.861 0-14.648-4.053-16.66-11.543a24.632 24.632 0 003.337-12.933 21.879 21.879 0 00-.371-4.2A23.145 23.145 0 01303.992 0c6.34 0 8.684 2.57 10.928 2.57a3.507 3.507 0 003.39-1.802h1.2l-4.04 14.259h-1.175a26.4 26.4 0 00.164-2.9c0-5.567-2.816-10.765-9.427-10.765-3.167 0-5.568 1.7-7.095 5.084-3.828 8.308-6.781 20.323-6.781 26.06 0 3.878 2.137 6.121 5.85 6.121 4.1 0 5.9-3.77 6.831-7.158l1.791-6.793a3.24 3.24 0 001.521-2.237 1.986 1.986 0 00-1.012-1.96.493.493 0 00-.126.069.4.4 0 00-.044.559 2.48 2.48 0 01-1.6 3.487l-.233.082a2.751 2.751 0 01-3.406-1.885 3.207 3.207 0 01-.126-.352 2.891 2.891 0 012.012-3.55 2.681 2.681 0 01.829-.15 6 6 0 011.257.082h13.216l-5.656 20.411h-.836s-.691-2.206-3.9-1.131a26.68 26.68 0 01-9.849 1.885zM76.51 39.076l.27-1.031h1.722l9.873-35.813H85.01l.279-1.032h18.048l-.276 1.031h-3.413l-9.916 35.82h5.656c6.736-.176 11.959-3.8 14.988-9.848.2-.4.383-.8.56-1.212h1.194l-3.325 12.085z"/><path data-name="Shape" d="M42.18 24.025C42.18 13.098 50.193.944 65.689.944c9.7 0 16.207 6.768 16.207 15.936a22.882 22.882 0 01-23.081 23.088c-8.962 0-16.635-5.813-16.635-15.943zm177.44-.289c-2.965 2.922-6.385 1.54-7.333-1.256 2.269.923 3.984.283 4.022-.553-.949 0-3.915-.081-5.656-1.087s-2.244-2.891-4.041-2.262a3.041 3.041 0 013.5-1.5 7.194 7.194 0 00-.773-1.031c4.7-4.085 3.494-10.866.931-13.826.471-1.001 1.766-1.033 2.193-1.252-.3 1.049 1.057 1.15.905 2.7.83-2.407 1.319-2.607 3.456-3.035-.327.477-1.049 1.219-.207 1.734 3.488-3.407 10.036-1.307 11.94-.358s3.33.472 3.65-1.188c1.112 1.578 1.3 3.337.17 4.45a.616.616 0 01.507.134c.192.137.334.274.75-.084-.308 2.076-3.16 2.057-3.454 1.886-1.8 1.571-5.059 1.333-5.763 1.257a2.821 2.821 0 011.684.811 1.442 1.442 0 01-.9 2.451c.917-1.508-2.08-2.413-3.186 2.263-.579 2.909 4.342 7.917 8.848 4.606l-1.307 4.712c-3.274 2.062-8.434.792-7.265 2.313-2.275-.1-2.745-1.256-2.671-1.885z"/><path data-name="Shape" d="M222.43 39.236l.314-1.043h3.22l7.8-26.337h-.088l-6.904 6.91a4.975 4.975 0 01-1.093-.434L243.118.736h4.436L237.248 38.19h1.685l-.278 1.046zm-21.266-.034l.283-1.044c4.669 0 8.032-3.437 13.826-9.337l3.77-3.821a2.121 2.121 0 00.276.39 3.183 3.183 0 00.446.377l-4.757 4.776c-2.432 2.514-3.085 3.469-3.45 4.4-1.018 2.589 1.427 3.217 3.23 3.217l-.308 1.044z"/><path data-name="Shape" d="M137.266 35.663c-1.056-2.733-.4-7.861 8.339-11a8.366 8.366 0 01.314 1.018 4.1 4.1 0 00-1.245 2.8c-.157 1.866 1.885 8.741 5.656 7.887a7.934 7.934 0 00.961 1.489c-.616.994-2.419 2.149-5.272 2.149-4.819-.007-7.698-1.609-8.753-4.343zm15.145.742l-.509-.7a36.986 36.986 0 01-4.657-10.278l-.3-1.256a.13.13 0 01-.031-.1l-.094-.427a12.712 12.712 0 01-.131-1.948c0-3.909 2.872-8.339 7.164-8.383 2.771 0 4.505 1.477 4.505 4.172 0 2.47-1.885 4.035-3.984 4.933.013 0-.232-.352-.352-.628 1.81-.8 3.444-2.325 3.444-4.4v-.213a2.9 2.9 0 00-2.922-2.884 2.394 2.394 0 00-2.7 2.545 25.285 25.285 0 001.119 5.386c.069.232.145.472.214.672a58.123 58.123 0 002.809 7.158 12.4 12.4 0 00.628 1.257c1.237 2.651 3.268 5.165 5.5 5.165a5.387 5.387 0 002.658-1.471l.478.547c-2.105 2.362-4.8 3.808-7.088 3.808a7.237 7.237 0 01-5.751-2.955zm17.967 2.816l10.381-37.429h-3.388l.283-1.037h20.449a21.228 21.228 0 017.8 1.1c2.551 1.018 4.437 3.029 4.437 6.913 0 5.241-3.972 8.665-9.319 9.885a20.144 20.144 0 01-4.066.5v.106a19.17 19.17 0 012.859.459c.409.094.811.207 1.2.339 3.77 1.219 6.284 3.74 6.284 7.673 0 5.027-3.632 11.475-17.4 11.494zm69.955-.019l10.325-37.429h-1.684l.263-1.037h17.168c10.727 0 16.829 3.991 16.823 14.749 0 15.082-10.607 23.717-25.136 23.717z"/><path d="M156.558 29.387a1.923 1.923 0 00.4.729c.147-.334.461-.929.624-1.214a1.024 1.024 0 01.566-.5c.4-.088.553.138.7.779a3.337 3.337 0 004.246 2.769 3.639 3.639 0 002.878-4.255 2.545 2.545 0 00-.075-.314 3.827 3.827 0 00-4.4-3.142 3.437 3.437 0 00-.44.1 4.2 4.2 0 00-2.413 1.383 10.463 10.463 0 00-1.47 2.419c-.226.421-.421.836-.616 1.246z"/></g></svg>