<svg width="50.000000" height="50.000000" viewBox="0 0 50 50" fill="none" xmlns="http://www.w3.org/2000/svg" xmlns:xlink="http://www.w3.org/1999/xlink">
	
	<defs>
		<clipPath id="clip386_738">
			<rect id="fi_653166" rx="0.000000" width="49.000000" height="49.000000" transform="translate(0.500000 0.500000)" fill="white" fill-opacity="0"/>
		</clipPath>
	</defs>
	<rect id="fi_653166" rx="0.000000" width="49.000000" height="49.000000" transform="translate(0.500000 0.500000)" fill="#FFFFFF" fill-opacity="0"/>
	<g clip-path="url(#clip386_738)">
		<path id="Vector" d="M45.16 8.06L33.87 8.06L33.87 9.67L45.16 9.67C46.94 9.67 48.38 11.12 48.38 12.9C48.38 14.68 46.94 16.12 45.16 16.12L39.51 16.12L39.51 50L45.16 50C47.83 50 50 47.82 50 45.16L50 12.9C50 10.23 47.83 8.06 45.16 8.06ZM48.38 45.16C48.38 46.94 46.94 48.38 45.16 48.38L41.12 48.38L41.12 17.74L45.16 17.74C46.39 17.74 47.53 17.27 48.38 16.5L48.38 45.16Z" fill="#000000" fill-opacity="1.000000" fill-rule="nonzero"/>
		<path id="Vector" d="M1.61 37.09L1.61 8.43C2.46 9.2 3.59 9.67 4.83 9.67L12.9 9.67L12.9 8.06L4.83 8.06C3.05 8.06 1.61 6.61 1.61 4.83C1.61 3.05 3.05 1.61 4.83 1.61L9.67 1.61L9.67 6.45L11.29 6.45L11.29 0L4.83 0C2.16 0 0 2.16 0 4.83L0 37.09C0 39.76 2.16 41.93 4.83 41.93L37.9 41.93L37.9 40.32L4.83 40.32C3.05 40.32 1.61 38.87 1.61 37.09Z" fill="#000000" fill-opacity="1.000000" fill-rule="nonzero"/>
		<path id="Vector" d="M23.38 24.84L30.77 13.76C31.74 12.3 32.25 10.6 32.25 8.85C32.25 3.97 28.28 0 23.37 0C18.48 0 14.51 3.97 14.51 8.85C14.51 10.6 15.03 12.3 16 13.76L23.38 24.84ZM23.4 1.61C27.39 1.61 30.64 4.86 30.64 8.85C30.64 10.28 30.22 11.67 29.42 12.87L23.38 21.93L17.34 12.87C16.54 11.67 16.12 10.28 16.12 8.85C16.12 4.86 19.37 1.61 23.4 1.61Z" fill="#000000" fill-opacity="1.000000" fill-rule="nonzero"/>
		<path id="Vector" d="M24.17 27.4C30.72 27.21 35.48 24.84 35.48 21.77C35.48 19.82 33.56 18.11 30.22 17.08L29.74 18.62C32.29 19.41 33.87 20.61 33.87 21.77C33.87 23.57 29.95 25.62 24.15 25.78L22.64 25.78C16.81 25.62 12.9 23.57 12.9 21.77C12.9 20.61 14.48 19.41 17.02 18.62L16.55 17.08C13.2 18.11 11.29 19.82 11.29 21.77C11.29 24.84 16.04 27.21 22.61 27.4L24.17 27.4Z" fill="#000000" fill-opacity="1.000000" fill-rule="nonzero"/>
		<path id="Vector" d="M23.38 12.9C25.61 12.9 27.41 11.09 27.41 8.87C27.41 6.64 25.61 4.83 23.38 4.83C21.16 4.83 19.35 6.64 19.35 8.87C19.35 11.09 21.16 12.9 23.38 12.9ZM23.38 6.45C24.72 6.45 25.8 7.53 25.8 8.87C25.8 10.2 24.72 11.29 23.38 11.29C22.05 11.29 20.96 10.2 20.96 8.87C20.96 7.53 22.05 6.45 23.38 6.45Z" fill="#000000" fill-opacity="1.000000" fill-rule="nonzero"/>
		<path id="Vector" d="M16.12 29.03L16.12 27.41L14.51 27.41L14.51 29.03C14.51 29.47 14.15 29.83 13.7 29.83L6.45 29.83L6.45 31.45L13.7 31.45C15.04 31.45 16.12 30.36 16.12 29.03Z" fill="#000000" fill-opacity="1.000000" fill-rule="nonzero"/>
		<path id="Vector" d="M3.22 29.83L4.83 29.83L4.83 31.45L3.22 31.45L3.22 29.83Z" fill="#000000" fill-opacity="1.000000" fill-rule="evenodd"/>
		<path id="Vector" d="M25 34.67L25 38.7L26.61 38.7L26.61 34.67C26.61 34.23 26.97 33.87 27.41 33.87L37.9 33.87L37.9 32.25L27.41 32.25C26.08 32.25 25 33.34 25 34.67Z" fill="#000000" fill-opacity="1.000000" fill-rule="nonzero"/>
		<path id="Vector" d="M21.77 34.67L21.77 35.48L23.38 35.48L23.38 34.67C23.38 32.45 25.19 30.64 27.41 30.64L37.9 30.64L37.9 29.03L27.41 29.03C24.3 29.03 21.77 31.56 21.77 34.67Z" fill="#000000" fill-opacity="1.000000" fill-rule="nonzero"/>
		<path id="Vector" d="M21.77 37.09L23.38 37.09L23.38 38.7L21.77 38.7L21.77 37.09Z" fill="#000000" fill-opacity="1.000000" fill-rule="evenodd"/>
		<path id="Vector" d="M3.22 34.67L13.7 34.67C16.82 34.67 19.35 32.14 19.35 29.03L19.35 28.22L17.74 28.22L17.74 29.03C17.74 31.25 15.93 33.06 13.7 33.06L3.22 33.06L3.22 34.67Z" fill="#000000" fill-opacity="1.000000" fill-rule="nonzero"/>
	</g>
</svg>
