<svg width="80.000000" height="80.000000" viewBox="0 0 80 80" fill="none" xmlns="http://www.w3.org/2000/svg" xmlns:xlink="http://www.w3.org/1999/xlink">
	
	<defs>
		<clipPath id="clip262_229">
			<rect id="fi_3014499" rx="0.000000" width="39.000000" height="39.000000" transform="translate(20.500000 20.500000)" fill="white" fill-opacity="0"/>
		</clipPath>
	</defs>
	<circle id="Ellipse 7" cx="40.000000" cy="40.000000" r="40.000000" fill="#FFFFFF" fill-opacity="1.000000"/>
	<circle id="Ellipse 7" cx="40.000000" cy="40.000000" r="39.500000" stroke="#232323" stroke-opacity="1.000000" stroke-width="1.000000"/>
	<rect id="fi_3014499" rx="0.000000" width="39.000000" height="39.000000" transform="translate(20.500000 20.500000)" fill="#FFFFFF" fill-opacity="0"/>
	<g clip-path="url(#clip262_229)">
		<path id="Vector" d="M43.51 30.62C43.51 31.27 42.99 31.79 42.34 31.79C41.69 31.79 41.17 31.27 41.17 30.62C41.17 29.97 41.69 29.45 42.34 29.45C42.99 29.45 43.51 29.97 43.51 30.62Z" fill="#232323" fill-opacity="1.000000" fill-rule="evenodd"/>
		<path id="Vector" d="M48.2 30.62C48.2 31.27 47.67 31.79 47.03 31.79C46.38 31.79 45.85 31.27 45.85 30.62C45.85 29.97 46.38 29.45 47.03 29.45C47.67 29.45 48.2 29.97 48.2 30.62Z" fill="#232323" fill-opacity="1.000000" fill-rule="evenodd"/>
		<path id="Vector" d="M52.89 30.62C52.89 31.27 52.36 31.79 51.71 31.79C51.07 31.79 50.54 31.27 50.54 30.62C50.54 29.97 51.07 29.45 51.71 29.45C52.36 29.45 52.89 29.97 52.89 30.62Z" fill="#232323" fill-opacity="1.000000" fill-rule="evenodd"/>
		<path id="Vector" d="M46.34 57.57C48.27 57.57 49.84 56 49.84 54.06L49.84 49.37C49.84 48.87 49.52 48.42 49.04 48.26L42.02 45.91C41.68 45.8 41.3 45.85 41 46.05L38.02 48.04C34.82 46.52 31.03 42.77 29.53 39.63L31.52 36.64C31.72 36.34 31.77 35.97 31.65 35.62L29.31 28.61C29.15 28.13 28.7 27.81 28.2 27.81L23.51 27.81C21.57 27.81 20 29.38 20 31.31C20 37.78 22.94 44.43 28.07 49.54C33.2 54.64 39.86 57.57 46.34 57.57ZM23.51 30.15L27.35 30.15L29.25 35.82L27.22 38.86C27.01 39.18 26.97 39.59 27.11 39.95C27.89 41.89 29.45 44.08 31.5 46.12C33.54 48.13 35.74 49.67 37.7 50.46C38.06 50.6 38.47 50.56 38.79 50.34L41.83 48.32L47.5 50.21L47.5 54.06C47.5 54.71 46.99 55.23 46.34 55.23C34 55.23 22.34 43.6 22.34 31.31C22.34 30.66 22.85 30.15 23.51 30.15Z" fill="#232323" fill-opacity="1.000000" fill-rule="nonzero"/>
		<path id="Vector" d="M41.89 43.42C42.33 43.6 42.83 43.5 43.17 43.17L47.51 38.82L51.71 38.82C56.28 38.82 60 35.14 60 30.62C60 26.1 56.28 22.42 51.71 22.42L42.34 22.42C37.82 22.42 34.14 26.1 34.14 30.62C34.14 34.75 37.2 38.17 41.17 38.74L41.17 42.34C41.17 42.81 41.45 43.24 41.89 43.42ZM36.48 30.62C36.48 27.39 39.11 24.76 42.34 24.76L51.71 24.76C54.99 24.76 57.65 27.39 57.65 30.62C57.65 33.85 54.99 36.48 51.71 36.48L47.03 36.48C46.72 36.48 46.42 36.6 46.2 36.82L43.51 39.51L43.51 37.65C43.51 37 42.99 36.48 42.34 36.48C39.11 36.48 36.48 33.85 36.48 30.62Z" fill="#232323" fill-opacity="1.000000" fill-rule="nonzero"/>
	</g>
</svg>
