<svg width="37.297119" height="37.300781" viewBox="0 0 37.2971 37.3008" fill="none" xmlns="http://www.w3.org/2000/svg" xmlns:xlink="http://www.w3.org/1999/xlink">
	
	<defs/>
	<path id="Vector" d="M2.11 21.49L4.43 24.53L4.93 28.32C5.21 30.42 6.86 32.07 8.96 32.35L12.76 32.86L15.8 35.18C17.48 36.47 19.81 36.47 21.49 35.18L24.53 32.86L24.53 32.86L28.32 32.36C30.42 32.08 32.07 30.43 32.35 28.33L32.86 24.53C32.86 24.53 34.03 23 35.18 21.49C36.46 19.81 36.46 17.48 35.18 15.8L32.86 12.75L32.36 8.97C32.08 6.87 30.43 5.22 28.33 4.94L24.53 4.43L21.49 2.11C19.81 0.82 17.48 0.82 15.8 2.11L12.76 4.43L12.76 4.43L8.97 4.93C6.87 5.21 5.22 6.86 4.94 8.96L4.43 12.76C4.43 12.76 3.26 14.29 2.11 15.8C0.83 17.48 0.83 19.81 2.11 21.49Z" fill="#FFFFFF" fill-opacity="1.000000" fill-rule="nonzero"/>
	<path id="Vector" d="M4.43 24.53L4.93 28.32C5.21 30.42 6.86 32.07 8.96 32.35L12.76 32.86L15.8 35.18C17.48 36.47 19.81 36.47 21.49 35.18L24.53 32.86L24.53 32.86L28.32 32.36C30.42 32.08 32.07 30.43 32.35 28.33L32.86 24.53C32.86 24.53 34.03 23 35.18 21.49C36.46 19.81 36.46 17.48 35.18 15.8L32.86 12.75L32.36 8.97C32.08 6.87 30.43 5.22 28.33 4.94L24.53 4.43L21.49 2.11C19.81 0.82 17.48 0.82 15.8 2.11L12.76 4.43L12.76 4.43L8.97 4.93C6.87 5.21 5.22 6.86 4.94 8.96L4.43 12.76C4.43 12.76 3.26 14.29 2.11 15.8C0.83 17.48 0.83 19.81 2.11 21.49L4.43 24.53Z" stroke="#000000" stroke-opacity="1.000000" stroke-width="2.000000" stroke-linejoin="round"/>
	<path id="Vector" d="M24.1 15.93L17.29 22.73L13.2 18.65" stroke="#678CB6" stroke-opacity="1.000000" stroke-width="2.000000" stroke-linejoin="round" stroke-linecap="round"/>
</svg>
