<svg width="50.000000" height="50.000000" viewBox="0 0 50 50" fill="none" xmlns="http://www.w3.org/2000/svg" xmlns:xlink="http://www.w3.org/1999/xlink">
	
	<defs>
		<clipPath id="clip386_722">
			<rect id="fi_247293" rx="0.000000" width="49.000000" height="49.000000" transform="translate(0.500000 0.500000)" fill="white" fill-opacity="0"/>
		</clipPath>
	</defs>
	<rect id="fi_247293" rx="0.000000" width="49.000000" height="49.000000" transform="translate(0.500000 0.500000)" fill="#FFFFFF" fill-opacity="0"/>
	<g clip-path="url(#clip386_722)">
		<path id="Vector" d="M46.15 15.89C46.55 14.7 46.77 13.42 46.77 12.09C46.77 5.42 41.34 0 34.67 0C31.02 0 27.74 1.63 25.52 4.2L25 3.91L0 18.07L0 50L50 50L50 18.07L46.15 15.89ZM34.67 1.61C40.45 1.61 45.16 6.31 45.16 12.09C45.16 17.87 40.45 22.58 34.67 22.58C32.8 22.58 30.96 22.07 29.34 21.1L29.04 20.93L24.56 22.21L25.84 17.73L25.66 17.43C24.7 15.8 24.19 13.96 24.19 12.09C24.19 6.31 28.89 1.61 34.67 1.61ZM24.06 6.29C23.12 8.01 22.58 9.99 22.58 12.09C22.58 14.13 23.1 16.15 24.1 17.94L22.21 24.56L28.82 22.67C30.62 23.66 32.63 24.19 34.67 24.19C39.44 24.19 43.56 21.41 45.53 17.4L47.73 18.64L25 36.08L2.26 18.64L24.06 6.29ZM1.61 20.18L18.29 32.97L1.61 47.42L1.61 20.18ZM2.96 48.38L19.6 33.97L25 38.11L30.39 33.97L47.03 48.38L2.96 48.38ZM48.38 47.42L31.7 32.97L48.38 20.18L48.38 47.42Z" fill="#000000" fill-opacity="1.000000" fill-rule="nonzero"/>
		<path id="Vector" d="M32.77 20.76C33.4 20.9 34.04 20.96 34.67 20.96C35.89 20.96 37.09 20.71 38.22 20.22L37.58 18.74C36.18 19.35 34.63 19.51 33.11 19.18C30.23 18.57 27.98 16.21 27.51 13.3C27.15 11.04 27.82 8.8 29.36 7.15C30.9 5.5 33.08 4.67 35.33 4.86C38.62 5.15 41.37 7.73 41.85 11C41.97 11.8 41.96 12.6 41.82 13.37C41.61 14.5 40.61 15.32 39.44 15.32C39.03 15.32 38.7 14.99 38.7 14.58L38.7 11.29C38.7 9.06 36.9 7.25 34.67 7.25C32.45 7.25 30.64 9.06 30.64 11.29L30.64 12.9C30.64 15.12 32.45 16.93 34.67 16.93L37.09 16.93L37.09 15.32L34.67 15.32C33.34 15.32 32.25 14.23 32.25 12.9L32.25 11.29C32.25 9.95 33.34 8.87 34.67 8.87C36.01 8.87 37.09 9.95 37.09 11.29L37.09 14.58C37.09 15.88 38.14 16.93 39.44 16.93C41.39 16.93 43.06 15.56 43.4 13.66C43.57 12.71 43.59 11.74 43.45 10.76C42.85 6.77 39.5 3.61 35.47 3.26C32.71 3.01 30.06 4.03 28.18 6.05C26.3 8.06 25.48 10.8 25.92 13.55C26.49 17.12 29.24 20.01 32.77 20.76Z" fill="#000000" fill-opacity="1.000000" fill-rule="nonzero"/>
		<path id="Vector" d="M24.19 40.32L25.8 40.32L25.8 41.93L24.19 41.93L24.19 40.32Z" fill="#000000" fill-opacity="1.000000" fill-rule="evenodd"/>
		<path id="Vector" d="M27.41 40.32L29.03 40.32L29.03 41.93L27.41 41.93L27.41 40.32Z" fill="#000000" fill-opacity="1.000000" fill-rule="evenodd"/>
		<path id="Vector" d="M20.96 40.32L22.58 40.32L22.58 41.93L20.96 41.93L20.96 40.32Z" fill="#000000" fill-opacity="1.000000" fill-rule="evenodd"/>
	</g>
</svg>
