<svg width="74.000000" height="74.000000" viewBox="0 0 74 74" fill="none" xmlns="http://www.w3.org/2000/svg" xmlns:xlink="http://www.w3.org/1999/xlink">
	
	<defs>
		<clipPath id="clip386_306">
			<rect id="fi_1465433" rx="0.000000" width="73.000000" height="73.000000" transform="translate(0.500000 0.500000)" fill="white" fill-opacity="0"/>
		</clipPath>
	</defs>
	<rect id="fi_1465433" rx="0.000000" width="73.000000" height="73.000000" transform="translate(0.500000 0.500000)" fill="#FFFFFF" fill-opacity="0"/>
	<g clip-path="url(#clip386_306)">
		<path id="Vector" d="M74 54.72L74 43.15L69.24 42.35C69.06 41.87 68.86 41.39 68.64 40.91L71.44 36.99L63.26 28.81L59.33 31.61C58.86 31.39 58.38 31.19 57.9 31.01L57.29 27.35L57.29 10.24L47.04 0L19.09 0L19.09 9.54L3.58 9.54L3.58 35.8L2.38 35.8C1.07 35.8 0 36.87 0 38.19L0 71.61C0 72.92 1.07 74 2.38 74L45.35 74C46.67 74 47.74 72.92 47.74 71.61L57.1 71.61L57.9 66.85C58.37 66.68 58.85 66.48 59.33 66.25L63.26 69.06L71.44 60.88L68.64 56.95C68.86 56.47 69.06 55.99 69.24 55.51L74 54.72ZM47.74 4.07L53.21 9.54L47.74 9.54L47.74 4.07ZM21.48 2.38L45.35 2.38L45.35 11.93L54.9 11.93L54.9 26.25L45.53 26.25L44.74 31.01C44.26 31.18 43.78 31.38 43.3 31.61L41.77 30.51L41.77 21.48L52.51 21.48L52.51 19.09L41.77 19.09L41.77 16.7L52.51 16.7L52.51 14.32L41.77 14.32L41.77 9.54L21.48 9.54L21.48 2.38ZM5.96 11.93L39.38 11.93L39.38 28.81L39.37 28.8L38.4 29.78C37.75 29.08 36.83 28.64 35.8 28.64L11.93 28.64C9.96 28.64 8.35 30.25 8.35 32.22L8.35 35.8L5.96 35.8L5.96 11.93ZM10.74 35.8L10.74 32.22C10.74 31.56 11.27 31.03 11.93 31.03L35.8 31.03C36.46 31.03 37 31.56 37 32.22L37 35.8L10.74 35.8ZM45.35 38.19L45.35 43.48L29.83 52.79L29.83 52.51C29.83 51.19 28.76 50.12 27.45 50.12L20.29 50.12C18.97 50.12 17.9 51.19 17.9 52.51L17.9 52.79L2.38 43.48L2.38 38.19L45.35 38.19ZM47.74 42.75C48.82 42.12 50.05 41.77 51.32 41.77C55.27 41.77 58.48 44.98 58.48 48.93C58.48 52.88 55.27 56.09 51.32 56.09C50.04 56.09 48.82 55.74 47.74 55.11L47.74 42.75ZM47.74 57.76C48.87 58.21 50.07 58.48 51.32 58.48C56.58 58.48 60.87 54.2 60.87 48.93C60.87 43.67 56.58 39.38 51.32 39.38C50.07 39.38 48.87 39.64 47.74 40.1L47.74 38.19C47.74 37.97 47.7 37.77 47.65 37.58C48.83 37.19 50.05 37 51.32 37C57.9 37 63.25 42.35 63.25 48.93C63.25 55.51 57.9 60.87 51.32 60.87C50.09 60.87 48.89 60.67 47.74 60.31L47.74 57.76ZM27.45 57.29L20.29 57.29L20.29 52.51L27.45 52.51L27.45 57.29ZM2.38 71.61L2.38 69.22L38.19 69.22L38.19 66.83L2.38 66.83L2.38 46.26L17.9 55.57L17.9 57.29C17.9 58.6 18.97 59.67 20.29 59.67L27.45 59.67C28.76 59.67 29.83 58.6 29.83 57.29L29.83 55.57L45.35 46.26L45.35 66.83L40.58 66.83L40.58 69.22L45.35 69.22L45.35 71.61L2.38 71.61ZM68.33 60.62L63 65.94L59.55 63.47L58.91 63.8C58.09 64.22 57.27 64.56 56.47 64.82L55.78 65.05L55.08 69.22L47.74 69.22L47.74 62.79C48.9 63.09 50.1 63.25 51.32 63.25C59.22 63.25 65.64 56.83 65.64 48.93C65.64 41.03 59.22 34.61 51.32 34.61C49.31 34.61 47.38 35.02 45.56 35.82C45.49 35.82 45.42 35.8 45.35 35.8L39.38 35.8L39.38 32.22C39.38 32.21 39.38 32.19 39.38 32.18L39.63 31.92L43.08 34.39L43.73 34.06C44.54 33.64 45.36 33.3 46.17 33.04L46.86 32.81L47.55 28.64L55.08 28.64L55.78 32.81L56.47 33.04C57.27 33.3 58.09 33.64 58.91 34.06L59.55 34.39L63 31.92L68.33 37.24L65.86 40.7L66.19 41.34C66.61 42.16 66.95 42.97 67.21 43.78L67.43 44.47L71.61 45.17L71.61 52.7L67.43 53.39L67.21 54.08C66.95 54.89 66.6 55.71 66.19 56.52L65.86 57.17L68.33 60.62Z" fill="#000000" fill-opacity="1.000000" fill-rule="nonzero"/>
		<path id="Vector" d="M50.12 29.83L52.51 29.83L52.51 32.22L50.12 32.22L50.12 29.83Z" fill="#000000" fill-opacity="1.000000" fill-rule="nonzero"/>
		<path id="Vector" d="M62.29 36.27L63.98 34.58L65.66 36.27L63.98 37.96L62.29 36.27Z" fill="#000000" fill-opacity="1.000000" fill-rule="nonzero"/>
		<path id="Vector" d="M68.03 47.74L70.41 47.74L70.41 50.12L68.03 50.12L68.03 47.74Z" fill="#000000" fill-opacity="1.000000" fill-rule="nonzero"/>
		<path id="Vector" d="M62.29 61.59L63.98 59.9L65.66 61.59L63.98 63.28L62.29 61.59Z" fill="#000000" fill-opacity="1.000000" fill-rule="nonzero"/>
		<path id="Vector" d="M50.12 65.64L52.51 65.64L52.51 68.03L50.12 68.03L50.12 65.64Z" fill="#000000" fill-opacity="1.000000" fill-rule="nonzero"/>
		<path id="Vector" d="M8.35 14.32L37 14.32L37 16.7L8.35 16.7L8.35 14.32Z" fill="#000000" fill-opacity="1.000000" fill-rule="nonzero"/>
		<path id="Vector" d="M8.35 19.09L10.74 19.09L10.74 21.48L8.35 21.48L8.35 19.09Z" fill="#000000" fill-opacity="1.000000" fill-rule="nonzero"/>
		<path id="Vector" d="M13.12 19.09L15.51 19.09L15.51 21.48L13.12 21.48L13.12 19.09Z" fill="#000000" fill-opacity="1.000000" fill-rule="nonzero"/>
		<path id="Vector" d="M17.9 19.09L37 19.09L37 21.48L17.9 21.48L17.9 19.09Z" fill="#000000" fill-opacity="1.000000" fill-rule="nonzero"/>
		<path id="Vector" d="M8.35 23.87L37 23.87L37 26.25L8.35 26.25L8.35 23.87Z" fill="#000000" fill-opacity="1.000000" fill-rule="nonzero"/>
		<path id="Vector" d="M23.87 4.77L26.25 4.77L26.25 7.16L23.87 7.16L23.87 4.77Z" fill="#000000" fill-opacity="1.000000" fill-rule="nonzero"/>
		<path id="Vector" d="M28.64 4.77L38.19 4.77L38.19 7.16L28.64 7.16L28.64 4.77Z" fill="#000000" fill-opacity="1.000000" fill-rule="nonzero"/>
		<path id="Vector" d="M40.58 4.77L42.96 4.77L42.96 7.16L40.58 7.16L40.58 4.77Z" fill="#000000" fill-opacity="1.000000" fill-rule="nonzero"/>
	</g>
</svg>
