<svg width="178.000000" height="178.000000" viewBox="0 0 178 178" fill="none" xmlns="http://www.w3.org/2000/svg" xmlns:xlink="http://www.w3.org/1999/xlink">
	
	<defs/>
	<path id="Vector" d="M167.33 143.31C174.32 133.8 178 122.74 178 111.08C178 92.42 168.32 75.1 151.99 64.29C150.49 47.66 142.72 32.24 129.75 20.37C115.39 7.23 96.35 0 76.13 0C55.91 0 36.87 7.23 22.52 20.37C7.99 33.66 0 51.38 0 70.27C0 84.8 4.68 98.57 13.58 110.35L0.5 142.71C-0.56 145.33 0.08 148.34 2.11 150.31C3.43 151.59 5.18 152.27 6.95 152.27C7.9 152.27 8.85 152.08 9.75 151.68L47.06 135.23C51.74 137.02 56.56 138.36 61.5 139.25C66.56 147.56 73.77 154.61 82.54 159.73C92.32 165.45 103.63 168.51 115.25 168.6C115.42 168.61 115.59 168.63 115.77 168.63C123.8 168.63 131.59 167.24 138.95 164.5L168.24 177.4C169.14 177.8 170.09 178 171.04 178C172.81 178 174.56 177.32 175.88 176.03C177.91 174.06 178.55 171.06 177.49 168.44L167.33 143.31ZM152.92 144.78L158.18 157.77L141.89 150.6C140.13 149.82 138.13 149.81 136.36 150.56C129.98 153.28 123.15 154.68 116.05 154.72C115.95 154.71 115.86 154.7 115.76 154.7C102.06 154.7 89.12 149.35 80.07 140.44C91.54 139.89 102.78 136.96 112.8 131.87C116.22 130.14 117.59 125.95 115.85 122.53C114.11 119.1 109.93 117.74 106.5 119.47C97.28 124.16 86.78 126.64 76.13 126.64C66.88 126.64 57.98 124.84 49.67 121.29C47.9 120.54 45.89 120.55 44.13 121.33L19.81 132.05L28 111.79C28.97 109.39 28.53 106.64 26.85 104.67C18.38 94.74 13.9 82.84 13.9 70.27C13.9 39.19 41.82 13.9 76.13 13.9C110.45 13.9 138.36 39.19 138.36 70.27C138.36 80.31 135.41 90.16 129.83 98.77C127.74 101.99 128.65 106.3 131.88 108.39C135.1 110.48 139.4 109.56 141.49 106.34C146.45 98.7 149.76 90.27 151.29 81.51C159.44 89.49 164.09 99.99 164.09 111.08C164.09 120.79 160.63 129.98 154.08 137.66C152.4 139.63 151.95 142.38 152.92 144.78ZM82.74 106.03C82.74 109.87 79.62 112.98 75.78 112.98C71.94 112.98 68.83 109.87 68.83 106.03C68.83 102.19 71.94 99.08 75.78 99.08C79.62 99.08 82.74 102.19 82.74 106.03ZM102.2 53.93C102.2 54.03 102.21 54.13 102.21 54.23C102.21 64.69 95.99 74.11 86.36 78.22C84.37 79.07 83.08 81.08 83.08 83.33L83.08 83.78C83.08 87.62 79.97 90.73 76.13 90.73C72.29 90.73 69.18 87.62 69.18 83.78L69.18 83.33C69.18 75.5 73.78 68.47 80.9 65.43C85.34 63.54 88.22 59.24 88.3 54.43C88.3 54.36 88.3 54.29 88.3 54.23C88.3 47.52 82.84 42.06 76.13 42.06C69.42 42.06 63.96 47.52 63.96 54.23C63.96 58.07 60.85 61.18 57.01 61.18C53.17 61.18 50.06 58.07 50.06 54.23C50.06 39.85 61.75 28.16 76.13 28.16C90.41 28.16 102.04 39.69 102.2 53.93Z" fill="#E7F0F8" fill-opacity="1.000000" fill-rule="nonzero"/>
</svg>
