<svg width="74.000000" height="74.000000" viewBox="0 0 74 74" fill="none" xmlns="http://www.w3.org/2000/svg" xmlns:xlink="http://www.w3.org/1999/xlink">
	
	<defs>
		<clipPath id="clip386_296">
			<rect id="fi_2518622" rx="0.000000" width="73.000000" height="73.000000" transform="translate(0.500000 0.500000)" fill="white" fill-opacity="0"/>
		</clipPath>
	</defs>
	<rect id="fi_2518622" rx="0.000000" width="73.000000" height="73.000000" transform="translate(0.500000 0.500000)" fill="#FFFFFF" fill-opacity="0"/>
	<g clip-path="url(#clip386_296)">
		<path id="Vector" d="M57.81 1.15C54.62 1.15 52.03 3.75 52.03 6.96L52.03 7.07C52.03 9.83 54.03 12.13 56.65 12.61L56.65 15.08C51.47 15.58 47.4 19.96 47.4 25.28C47.4 28.65 49.06 31.81 51.84 33.72L62.95 41.36C64.8 42.63 65.9 44.72 65.9 46.97C65.9 50.1 63.78 52.81 60.75 53.57L59.82 53.8C60.01 52.84 60.12 51.85 60.12 50.85C60.12 42.57 53.39 35.84 45.11 35.84L28.88 35.84C20.6 35.84 13.87 42.57 13.87 50.85C13.87 51.85 13.98 52.84 14.17 53.8L13.24 53.57C10.21 52.81 8.09 50.1 8.09 46.97C8.09 44.72 9.19 42.63 11.04 41.36L22.15 33.72C24.93 31.81 26.59 28.65 26.59 25.28C26.59 19.96 22.52 15.58 17.34 15.08L17.34 12.61C19.96 12.13 21.96 9.83 21.96 7.07L21.96 6.96C21.96 3.75 19.37 1.15 16.18 1.15C7.89 1.15 1.15 7.89 1.15 16.18L1.15 18.31C1.15 25.42 6.94 31.21 14.06 31.21C17.14 31.21 19.65 28.71 19.65 25.62C19.65 24.51 19.33 23.44 18.71 22.52L17.79 21.13C17.56 20.79 17.34 20.06 17.34 19.65L17.34 17.41C21.24 17.9 24.28 21.24 24.28 25.27C24.28 27.89 22.99 30.33 20.84 31.81L9.73 39.45C7.25 41.15 5.78 43.96 5.78 46.97C5.78 51.16 8.62 54.8 12.68 55.81L14.92 56.37C16.38 60.08 19.31 63.13 23.16 64.72L30.39 67.69C32.7 68.65 34.65 70.25 36.03 72.32L37 73.77L37.96 72.32C39.34 70.25 41.29 68.65 43.6 67.7L50.83 64.72C54.68 63.13 57.61 60.09 59.07 56.37L61.31 55.81C65.37 54.8 68.21 51.16 68.21 46.97C68.21 43.96 66.74 41.15 64.26 39.45L53.15 31.81C51 30.33 49.71 27.89 49.71 25.28C49.71 21.24 52.75 17.9 56.65 17.41L56.65 19.65C56.65 20.06 56.43 20.79 56.2 21.13L55.28 22.52C54.66 23.44 54.34 24.51 54.34 25.62C54.34 28.71 56.85 31.21 59.93 31.21C67.05 31.21 72.84 25.42 72.84 18.31L72.84 16.18C72.84 7.89 66.1 1.15 57.81 1.15ZM14.06 28.9C8.22 28.9 3.46 24.15 3.46 18.31L3.46 16.18C3.46 9.17 9.17 3.46 16.18 3.46C18.1 3.46 19.65 5.03 19.65 6.96L19.65 7.07C19.65 8.91 18.16 10.4 16.32 10.4L16.18 10.4C15.02 10.4 13.88 9.93 13.05 9.11L12.37 8.43L10.74 10.06L11.42 10.74C12.4 11.72 13.67 12.37 15.03 12.61L15.03 15.83C15.03 17.11 14.39 18.3 13.33 19.01C12.7 19.43 11.96 19.65 11.21 19.65L9.25 19.65L9.25 21.96L11.21 21.96C12.42 21.96 13.6 21.61 14.61 20.93C14.79 20.81 14.97 20.67 15.13 20.53C15.27 21.21 15.53 21.92 15.86 22.41L16.79 23.8C17.15 24.34 17.34 24.97 17.34 25.62C17.34 27.43 15.87 28.9 14.06 28.9ZM49.95 62.58L42.72 65.56C40.48 66.48 38.53 67.92 37 69.75C35.46 67.92 33.5 66.48 31.27 65.56L24.04 62.58C19.27 60.62 16.18 56.01 16.18 50.85C16.18 44.61 20.71 39.42 26.65 38.36C25.87 39.7 25.43 41.21 25.43 42.78L27.75 42.78C27.75 41.49 28.12 40.25 28.83 39.18L29.52 38.15L32.37 38.15L32.37 40.28C32.37 42.9 33.27 45.46 34.9 47.51L37.25 50.44L39.05 48.99L36.71 46.06C35.4 44.43 34.68 42.37 34.68 40.28L34.68 38.15L37.75 38.15L39.6 39.63C41.62 41.25 42.78 43.66 42.78 46.25L45.09 46.25C45.09 43.12 43.74 40.2 41.41 38.15L45.11 38.15C52.11 38.15 57.81 43.85 57.81 50.85C57.81 56.01 54.72 60.62 49.95 62.58ZM70.53 18.31C70.53 24.15 65.77 28.9 59.93 28.9C58.12 28.9 56.65 27.43 56.65 25.62C56.65 24.97 56.84 24.34 57.2 23.8L58.13 22.41C58.46 21.92 58.72 21.21 58.86 20.53C59.03 20.67 59.2 20.81 59.38 20.93C60.39 21.61 61.57 21.96 62.78 21.96L64.75 21.96L64.75 19.65L62.78 19.65C62.03 19.65 61.29 19.43 60.66 19.01C59.6 18.3 58.96 17.11 58.96 15.83L58.96 12.61C60.32 12.37 61.59 11.72 62.57 10.74L63.25 10.06L61.62 8.43L60.94 9.1C60.11 9.93 58.97 10.4 57.81 10.4L57.67 10.4C55.83 10.4 54.34 8.91 54.34 7.07L54.34 6.96C54.34 5.03 55.89 3.46 57.81 3.46C64.82 3.46 70.53 9.17 70.53 16.18L70.53 18.31Z" fill="#000000" fill-opacity="1.000000" fill-rule="nonzero"/>
		<path id="Vector" d="M39.34 58.04L37.26 60.54L39.04 62.02L41.12 59.52C43.68 56.45 45.09 52.56 45.09 48.56L42.78 48.56C42.78 52.02 41.56 55.38 39.34 58.04Z" fill="#000000" fill-opacity="1.000000" fill-rule="nonzero"/>
		<path id="Vector" d="M50.68 43.29L48.75 44.57L49.7 46C50.47 47.15 50.87 48.48 50.87 49.85L50.87 50.87L53.18 50.87L53.18 49.85C53.18 48.02 52.64 46.25 51.63 44.72L50.68 43.29Z" fill="#000000" fill-opacity="1.000000" fill-rule="nonzero"/>
		<path id="Vector" d="M47.37 58.84L46.88 59.09L47.92 61.16L48.41 60.91C51.35 59.44 53.18 56.48 53.18 53.18L50.87 53.18C50.87 55.59 49.53 57.76 47.37 58.84Z" fill="#000000" fill-opacity="1.000000" fill-rule="nonzero"/>
		<path id="Vector" d="M34.8 57.17L36.87 56.13C36.01 54.42 34.68 53 33.01 52.05L31.18 51C29.06 49.79 27.75 47.53 27.75 45.09L25.43 45.09C25.43 48.36 27.19 51.39 30.03 53.01L31.86 54.06C33.13 54.79 34.15 55.86 34.8 57.17Z" fill="#000000" fill-opacity="1.000000" fill-rule="nonzero"/>
		<path id="Vector" d="M21.95 48.39L19.66 48.72C20.45 54.22 23.67 58.96 28.49 61.71L29.48 62.28L30.63 60.27L29.64 59.7C25.44 57.3 22.64 53.18 21.95 48.39Z" fill="#000000" fill-opacity="1.000000" fill-rule="nonzero"/>
		<path id="Vector" d="M33.75 61.68L32.74 61.34L32 63.53L33.02 63.87C34.31 64.3 35.35 65.2 35.96 66.42L38.03 65.38C37.14 63.62 35.63 62.3 33.75 61.68Z" fill="#000000" fill-opacity="1.000000" fill-rule="nonzero"/>
	</g>
</svg>
