<svg width="74.000000" height="74.000000" viewBox="0 0 74 74" fill="none" xmlns="http://www.w3.org/2000/svg" xmlns:xlink="http://www.w3.org/1999/xlink">
	
	<defs>
		<clipPath id="clip386_335">
			<rect id="fi_1875422" rx="0.000000" width="73.000000" height="73.000000" transform="translate(0.500000 0.500000)" fill="white" fill-opacity="0"/>
		</clipPath>
	</defs>
	<rect id="fi_1875422" rx="0.000000" width="73.000000" height="73.000000" transform="translate(0.500000 0.500000)" fill="#FFFFFF" fill-opacity="0"/>
	<g clip-path="url(#clip386_335)">
		<path id="Vector" d="M16.18 41.62C14.91 41.62 13.87 40.58 13.87 39.31L11.56 39.31C11.56 41.46 13.04 43.25 15.03 43.77L15.03 46.25L17.34 46.25L17.34 43.93L20.81 43.93L20.81 39.31C20.81 36.76 18.73 34.68 16.18 34.68C14.91 34.68 13.87 33.65 13.87 32.37L13.87 30.06L16.18 30.06C17.46 30.06 18.5 31.09 18.5 32.37L20.81 32.37C20.81 30.22 19.33 28.43 17.34 27.91L17.34 25.43L15.03 25.43L15.03 27.75L11.56 27.75L11.56 32.37C11.56 34.92 13.63 37 16.18 37C17.46 37 18.5 38.03 18.5 39.31L18.5 41.62L16.18 41.62Z" fill="#000000" fill-opacity="1.000000" fill-rule="nonzero"/>
		<path id="Vector" d="M24.28 34.68L26.59 34.68L26.59 37L24.28 37L24.28 34.68Z" fill="#000000" fill-opacity="1.000000" fill-rule="nonzero"/>
		<path id="Vector" d="M5.78 34.68L8.09 34.68L8.09 37L5.78 37L5.78 34.68Z" fill="#000000" fill-opacity="1.000000" fill-rule="nonzero"/>
		<path id="Vector" d="M26.59 1.15L26.59 25.02C23.89 22.42 20.22 20.81 16.18 20.81C7.89 20.81 1.15 27.55 1.15 35.84C1.15 40.71 3.49 45.03 7.09 47.78C3.2 49.65 1.15 51.89 1.15 54.34L1.15 61.28C1.15 68.79 19.62 72.84 37 72.84C54.37 72.84 72.84 68.79 72.84 61.28L72.84 52.03L72.84 50.87L72.84 1.15L26.59 1.15ZM70.53 3.46L70.53 49.71L28.9 49.71L28.9 43.81C30.36 41.5 31.21 38.77 31.21 35.84C31.21 32.91 30.36 30.18 28.9 27.87L28.9 3.46L70.53 3.46ZM3.46 35.84C3.46 28.83 9.17 23.12 16.18 23.12C23.2 23.12 28.9 28.83 28.9 35.84C28.9 42.85 23.2 48.56 16.18 48.56C9.17 48.56 3.46 42.85 3.46 35.84ZM16.18 50.87C20.22 50.87 23.89 49.26 26.59 46.66L26.59 52.03L63.88 52.03C59.81 54.51 49.97 56.65 37 56.65C19.37 56.65 8.46 52.74 8.12 49.85C8.54 49.65 8.99 49.46 9.46 49.26C11.49 50.28 13.77 50.87 16.18 50.87ZM3.46 61.28L3.46 58.64C4.63 59.66 6.2 60.57 8.09 61.37L8.09 65.77C5.11 64.36 3.46 62.79 3.46 61.28ZM63.59 62.21L63.59 66.74C61.63 67.46 59.3 68.12 56.65 68.67L56.65 64.06C59.17 63.55 61.51 62.93 63.59 62.21ZM54.34 69.12C52.19 69.5 49.88 69.82 47.4 70.05L47.4 65.4C49.78 65.18 52.11 64.87 54.34 64.49L54.34 69.12ZM45.09 70.24C42.88 70.4 40.56 70.49 38.15 70.52L38.15 65.89C40.46 65.87 42.79 65.77 45.09 65.6L45.09 70.24ZM35.84 70.52C33.43 70.49 31.11 70.4 28.9 70.24L28.9 65.61C31.2 65.78 33.52 65.87 35.84 65.89L35.84 70.52ZM26.59 70.05C24.11 69.82 21.8 69.5 19.65 69.12L19.65 64.52C21.87 64.89 24.2 65.19 26.59 65.42L26.59 70.05ZM17.34 68.67C14.69 68.12 12.36 67.46 10.4 66.74L10.4 62.26C12.48 62.97 14.82 63.58 17.34 64.09L17.34 68.67ZM65.9 65.77L65.9 61.33C67.78 60.52 69.36 59.62 70.53 58.61L70.53 61.28C70.53 62.79 68.88 64.36 65.9 65.77ZM70.53 54.64L70.5 54.64C69.87 58.96 56.25 63.59 37 63.59C17.23 63.59 3.46 58.71 3.46 54.34C3.46 53.25 4.37 52.11 6.04 51.01C8.1 56.24 22.62 58.96 37 58.96C49.37 58.96 63.79 56.79 67.37 52.03L70.53 52.03L70.53 54.64Z" fill="#000000" fill-opacity="1.000000" fill-rule="nonzero"/>
		<path id="Vector" d="M48.56 14.55L36.18 26.93L37.81 28.56L48.56 17.82L53.18 22.44L61.28 14.35L65.37 18.44L68.65 5.34L55.55 8.62L59.64 12.71L53.18 19.17L48.56 14.55ZM65.47 8.52L64.12 13.92L60.07 9.87L65.47 8.52Z" fill="#000000" fill-opacity="1.000000" fill-rule="nonzero"/>
		<path id="Vector" d="M61.28 45.09L58.96 45.09L58.96 24.28L52.03 24.28L52.03 45.09L49.71 45.09L49.71 26.59L42.78 26.59L42.78 45.09L40.46 45.09L40.46 31.21L33.53 31.21L33.53 47.4L68.21 47.4L68.21 19.65L61.28 19.65L61.28 45.09ZM38.15 45.09L35.84 45.09L35.84 33.53L38.15 33.53L38.15 45.09ZM54.34 26.59L56.65 26.59L56.65 45.09L54.34 45.09L54.34 26.59ZM45.09 28.9L47.4 28.9L47.4 45.09L45.09 45.09L45.09 28.9ZM63.59 21.96L65.9 21.96L65.9 45.09L63.59 45.09L63.59 21.96Z" fill="#000000" fill-opacity="1.000000" fill-rule="nonzero"/>
		<path id="Vector" d="M31.21 5.78L33.53 5.78L33.53 8.09L31.21 8.09L31.21 5.78Z" fill="#000000" fill-opacity="1.000000" fill-rule="nonzero"/>
		<path id="Vector" d="M35.84 5.78L52.03 5.78L52.03 8.09L35.84 8.09L35.84 5.78Z" fill="#000000" fill-opacity="1.000000" fill-rule="nonzero"/>
		<path id="Vector" d="M31.21 10.4L33.53 10.4L33.53 12.71L31.21 12.71L31.21 10.4Z" fill="#000000" fill-opacity="1.000000" fill-rule="nonzero"/>
		<path id="Vector" d="M35.84 10.4L52.03 10.4L52.03 12.71L35.84 12.71L35.84 10.4Z" fill="#000000" fill-opacity="1.000000" fill-rule="nonzero"/>
	</g>
</svg>
