<svg width="40.000000" height="40.000000" viewBox="0 0 40 40" fill="none" xmlns="http://www.w3.org/2000/svg" xmlns:xlink="http://www.w3.org/1999/xlink">
	
	<defs>
		<clipPath id="clip383_457">
			<rect id="fi_2111532" rx="0.000000" width="13.399999" height="13.399999" transform="translate(13.301758 13.301758)" fill="white" fill-opacity="0"/>
		</clipPath>
	</defs>
	<rect id="Rectangle 1" rx="20.000000" width="40.000000" height="40.000000" fill="#FFFFFF" fill-opacity="1.000000"/>
	<rect id="Rectangle 1" x="0.500000" y="0.500000" rx="19.500000" width="39.000000" height="39.000000" stroke="#000000" stroke-opacity="1.000000" stroke-width="1.000000"/>
	<rect id="fi_2111532" rx="0.000000" width="13.399999" height="13.399999" transform="translate(13.301758 13.301758)" fill="#FFFFFF" fill-opacity="0"/>
	<g clip-path="url(#clip383_457)">
		<path id="Vector" d="M27.19 27.2L27.2 27.2L27.2 21.91C27.2 19.33 26.64 17.34 23.62 17.34C22.17 17.34 21.19 18.14 20.8 18.89L20.75 18.89L20.75 17.58L17.89 17.58L17.89 27.2L20.87 27.2L20.87 22.44C20.87 21.18 21.11 19.97 22.66 19.97C24.19 19.97 24.21 21.4 24.21 22.52L24.21 27.2L27.19 27.2Z" fill="#000000" fill-opacity="1.000000" fill-rule="nonzero"/>
		<path id="Vector" d="M13.03 17.58L16.02 17.58L16.02 27.2L13.03 27.2L13.03 17.58Z" fill="#000000" fill-opacity="1.000000" fill-rule="nonzero"/>
		<path id="Vector" d="M14.53 12.8C13.57 12.8 12.8 13.57 12.8 14.53C12.8 15.48 13.57 16.27 14.53 16.27C15.48 16.27 16.26 15.48 16.26 14.53C16.25 13.57 15.48 12.8 14.53 12.8Z" fill="#000000" fill-opacity="1.000000" fill-rule="nonzero"/>
	</g>
</svg>
