<svg width="74.000000" height="74.000000" viewBox="0 0 74 74" fill="none" xmlns="http://www.w3.org/2000/svg" xmlns:xlink="http://www.w3.org/1999/xlink">
	
	<defs>
		<clipPath id="clip262_406">
			<rect id="fi_3713422" rx="0.000000" width="73.000000" height="73.000000" transform="translate(0.500000 0.500000)" fill="white" fill-opacity="0"/>
		</clipPath>
	</defs>
	<rect id="fi_3713422" rx="0.000000" width="73.000000" height="73.000000" transform="translate(0.500000 0.500000)" fill="#FFFFFF" fill-opacity="0"/>
	<g clip-path="url(#clip262_406)">
		<path id="Vector" d="M34.97 49.71C34.59 49.71 34.22 49.56 33.95 49.29C33.68 49.02 33.53 48.66 33.53 48.27C33.53 47.97 33.4 47.67 33.19 47.46C32.97 47.24 32.68 47.12 32.37 47.12C32.06 47.12 31.77 47.24 31.55 47.46C31.34 47.67 31.21 47.97 31.21 48.27C31.22 49.27 31.61 50.22 32.31 50.93C33.02 51.63 33.97 52.03 34.97 52.03L35.84 52.03C35.84 52.33 35.96 52.63 36.18 52.84C36.39 53.06 36.69 53.18 37 53.18C37.3 53.18 37.6 53.06 37.81 52.84C38.03 52.63 38.15 52.33 38.15 52.03L39.02 52.03C39.94 52.03 40.82 51.69 41.51 51.08C42.2 50.48 42.64 49.64 42.75 48.73C42.86 47.82 42.64 46.9 42.12 46.15C41.6 45.39 40.82 44.85 39.93 44.63L38.15 44.19L38.15 40.46L39.02 40.46C39.4 40.46 39.77 40.62 40.04 40.89C40.31 41.16 40.46 41.52 40.46 41.9C40.46 42.21 40.59 42.51 40.8 42.72C41.02 42.94 41.31 43.06 41.62 43.06C41.93 43.06 42.22 42.94 42.44 42.72C42.65 42.51 42.78 42.21 42.78 41.9C42.78 40.91 42.38 39.96 41.68 39.25C40.97 38.55 40.02 38.15 39.02 38.15L38.15 38.15C38.15 37.84 38.03 37.55 37.81 37.33C37.6 37.12 37.3 37 37 37C36.69 37 36.39 37.12 36.18 37.33C35.96 37.55 35.84 37.84 35.84 38.15L34.97 38.15C34.05 38.15 33.17 38.49 32.48 39.09C31.79 39.7 31.35 40.54 31.24 41.45C31.13 42.36 31.35 43.27 31.87 44.03C32.39 44.78 33.17 45.32 34.06 45.55L35.84 45.99L35.84 49.71L34.97 49.71ZM34.62 43.3C34.28 43.22 33.98 43.01 33.78 42.72C33.58 42.43 33.49 42.08 33.54 41.73C33.58 41.38 33.75 41.06 34.01 40.83C34.28 40.59 34.62 40.46 34.97 40.46L35.84 40.46L35.84 43.61L34.62 43.3ZM38.15 46.57L39.37 46.87C39.71 46.96 40.01 47.17 40.21 47.46C40.41 47.75 40.5 48.1 40.45 48.45C40.41 48.8 40.24 49.12 39.98 49.35C39.71 49.58 39.37 49.71 39.02 49.71L38.15 49.71L38.15 46.57Z" fill="#000000" fill-opacity="1.000000" fill-rule="nonzero"/>
		<path id="Vector" d="M64.75 67.06L9.25 67.06C8.94 67.06 8.64 67.18 8.43 67.4C8.21 67.61 8.09 67.91 8.09 68.21C8.09 68.52 8.21 68.81 8.43 69.03C8.64 69.25 8.94 69.37 9.25 69.37L64.75 69.37C65.05 69.37 65.35 69.25 65.56 69.03C65.78 68.81 65.9 68.52 65.9 68.21C65.9 67.91 65.78 67.61 65.56 67.4C65.35 67.18 65.05 67.06 64.75 67.06Z" fill="#000000" fill-opacity="1.000000" fill-rule="nonzero"/>
		<path id="Vector" d="M58.96 71.68L15.03 71.68C14.72 71.68 14.43 71.8 14.21 72.02C13.99 72.24 13.87 72.53 13.87 72.84C13.87 73.15 13.99 73.44 14.21 73.66C14.43 73.87 14.72 74 15.03 74L58.96 74C59.27 74 59.56 73.87 59.78 73.66C60 73.44 60.12 73.15 60.12 72.84C60.12 72.53 60 72.24 59.78 72.02C59.56 71.8 59.27 71.68 58.96 71.68Z" fill="#000000" fill-opacity="1.000000" fill-rule="nonzero"/>
		<path id="Vector" d="M23.12 48.56C23.81 48.56 24.48 48.36 25.05 47.98C25.62 47.59 26.06 47.05 26.32 46.42C26.59 45.79 26.66 45.09 26.52 44.41C26.39 43.74 26.06 43.12 25.57 42.64C25.09 42.15 24.47 41.82 23.8 41.69C23.12 41.56 22.43 41.62 21.79 41.89C21.16 42.15 20.62 42.59 20.24 43.16C19.85 43.73 19.65 44.41 19.65 45.09C19.65 46.01 20.02 46.89 20.67 47.54C21.32 48.19 22.2 48.56 23.12 48.56ZM23.12 43.93C23.35 43.93 23.57 44 23.76 44.13C23.95 44.26 24.1 44.44 24.19 44.65C24.28 44.86 24.3 45.09 24.25 45.32C24.21 45.54 24.1 45.75 23.94 45.91C23.78 46.07 23.57 46.18 23.35 46.23C23.12 46.27 22.89 46.25 22.68 46.16C22.47 46.07 22.29 45.92 22.16 45.73C22.03 45.54 21.96 45.32 21.96 45.09C21.96 44.78 22.09 44.49 22.3 44.27C22.52 44.06 22.81 43.94 23.12 43.93Z" fill="#000000" fill-opacity="1.000000" fill-rule="nonzero"/>
		<path id="Vector" d="M70.53 25.43L3.46 25.43C3.16 25.43 2.86 25.55 2.65 25.77C2.43 25.99 2.31 26.28 2.31 26.59L2.31 63.59C2.31 63.89 2.43 64.19 2.65 64.41C2.86 64.62 3.16 64.74 3.46 64.74L70.53 64.74C70.83 64.74 71.13 64.62 71.34 64.41C71.56 64.19 71.68 63.89 71.68 63.59L71.68 26.59C71.68 26.28 71.56 25.99 71.34 25.77C71.13 25.55 70.83 25.43 70.53 25.43ZM69.37 62.43L4.62 62.43L4.62 27.74L69.37 27.74L69.37 62.43Z" fill="#000000" fill-opacity="1.000000" fill-rule="nonzero"/>
		<path id="Vector" d="M8.09 53.18C9.62 53.18 11.09 53.79 12.17 54.88C13.26 55.96 13.87 57.43 13.87 58.96C13.87 59.27 13.99 59.56 14.21 59.78C14.43 60 14.72 60.12 15.03 60.12L58.96 60.12C59.27 60.12 59.56 60 59.78 59.78C60 59.56 60.12 59.27 60.12 58.96C60.12 57.43 60.73 55.96 61.82 54.88C62.9 53.79 64.37 53.18 65.9 53.18C66.21 53.18 66.5 53.06 66.72 52.84C66.94 52.63 67.06 52.33 67.06 52.03L67.06 38.15C67.06 37.84 66.94 37.55 66.72 37.33C66.5 37.12 66.21 36.99 65.9 36.99C64.37 36.99 62.9 36.38 61.82 35.3C60.73 34.21 60.12 32.75 60.12 31.21C60.12 30.91 60 30.61 59.78 30.4C59.56 30.18 59.27 30.06 58.96 30.06L15.03 30.06C14.72 30.06 14.43 30.18 14.21 30.4C13.99 30.61 13.87 30.91 13.87 31.21C13.87 32.75 13.26 34.21 12.17 35.3C11.09 36.38 9.62 36.99 8.09 36.99C7.78 36.99 7.49 37.12 7.27 37.33C7.05 37.55 6.93 37.84 6.93 38.15L6.93 52.03C6.93 52.33 7.05 52.63 7.27 52.84C7.49 53.06 7.78 53.18 8.09 53.18ZM9.25 39.22C10.97 38.97 12.57 38.17 13.81 36.93C15.04 35.7 15.85 34.1 16.1 32.37L57.89 32.37C58.14 34.1 58.95 35.7 60.18 36.93C61.42 38.17 63.02 38.97 64.75 39.22L64.75 50.95C63.02 51.2 61.42 52.01 60.18 53.24C58.95 54.48 58.14 56.08 57.89 57.81L16.1 57.81C15.85 56.08 15.04 54.48 13.81 53.24C12.57 52.01 10.97 51.2 9.25 50.95L9.25 39.22Z" fill="#000000" fill-opacity="1.000000" fill-rule="nonzero"/>
		<path id="Vector" d="M50.87 48.56C51.56 48.56 52.23 48.35 52.8 47.97C53.37 47.59 53.81 47.05 54.07 46.42C54.34 45.78 54.41 45.08 54.27 44.41C54.14 43.74 53.81 43.12 53.32 42.64C52.84 42.15 52.22 41.82 51.55 41.69C50.87 41.55 50.18 41.62 49.54 41.88C48.91 42.15 48.37 42.59 47.99 43.16C47.6 43.73 47.4 44.4 47.4 45.09C47.4 46.01 47.77 46.89 48.42 47.54C49.07 48.19 49.95 48.56 50.87 48.56ZM50.87 43.93C51.1 43.93 51.32 44 51.51 44.13C51.7 44.25 51.85 44.43 51.94 44.65C52.03 44.86 52.05 45.09 52 45.31C51.96 45.54 51.85 45.74 51.69 45.91C51.53 46.07 51.32 46.18 51.1 46.22C50.87 46.27 50.64 46.24 50.43 46.16C50.22 46.07 50.04 45.92 49.91 45.73C49.78 45.54 49.71 45.32 49.71 45.09C49.71 44.78 49.84 44.49 50.05 44.27C50.27 44.05 50.56 43.93 50.87 43.93Z" fill="#000000" fill-opacity="1.000000" fill-rule="nonzero"/>
		<path id="Vector" d="M13.02 22.67C13.21 22.42 13.49 22.25 13.8 22.18L16.79 21.48C16.97 21.44 17.14 21.36 17.28 21.24C17.42 21.12 17.53 20.97 17.6 20.8L19.18 16.97C19.25 16.8 19.28 16.62 19.27 16.43C19.25 16.25 19.19 16.07 19.09 15.92L17.47 13.31C17.3 13.04 17.23 12.73 17.27 12.41C17.3 12.1 17.44 11.81 17.66 11.59L21.99 7.25C22.22 7.03 22.51 6.89 22.82 6.86C23.13 6.82 23.44 6.89 23.71 7.06L26.32 8.69C26.48 8.79 26.66 8.84 26.84 8.86C27.03 8.87 27.21 8.84 27.38 8.77L31.21 7.19C31.38 7.12 31.53 7.01 31.64 6.87C31.76 6.73 31.85 6.56 31.89 6.38L32.58 3.39C32.65 3.08 32.83 2.81 33.07 2.61C33.31 2.42 33.62 2.31 33.93 2.31L40.06 2.31C40.37 2.31 40.68 2.42 40.92 2.62C41.16 2.81 41.34 3.08 41.41 3.39L42.1 6.38C42.14 6.56 42.23 6.73 42.35 6.87C42.46 7.01 42.61 7.12 42.78 7.19L46.61 8.77C46.78 8.85 46.96 8.87 47.15 8.86C47.33 8.85 47.51 8.79 47.67 8.69L50.28 7.06C50.54 6.9 50.86 6.83 51.17 6.86C51.48 6.9 51.77 7.03 52 7.25L56.33 11.59C56.55 11.81 56.69 12.1 56.72 12.41C56.76 12.72 56.69 13.04 56.53 13.3L54.9 15.92C54.8 16.07 54.74 16.25 54.72 16.44C54.71 16.62 54.74 16.8 54.81 16.97L56.39 20.8C56.46 20.97 56.57 21.12 56.71 21.24C56.85 21.36 57.02 21.44 57.2 21.48L60.19 22.18C60.5 22.24 60.78 22.42 60.97 22.67C61.16 22.91 61.44 23.06 61.74 23.1C62.04 23.14 62.35 23.05 62.59 22.87C62.83 22.68 62.99 22.41 63.03 22.11C63.07 21.81 62.99 21.5 62.81 21.26C62.29 20.58 61.55 20.11 60.72 19.92L58.3 19.36L57.17 16.64L58.49 14.53C58.93 13.82 59.12 12.98 59.03 12.15C58.93 11.32 58.56 10.54 57.97 9.95L53.63 5.62C53.04 5.03 52.27 4.65 51.43 4.56C50.6 4.46 49.76 4.65 49.06 5.1L46.95 6.41L44.22 5.28L43.66 2.87C43.48 2.05 43.02 1.32 42.36 0.8C41.71 0.28 40.9 -0.01 40.06 0L33.93 0C33.09 -0.01 32.28 0.28 31.63 0.8C30.97 1.32 30.51 2.05 30.33 2.87L29.77 5.28L27.04 6.41L24.93 5.09C24.22 4.65 23.39 4.46 22.55 4.56C21.72 4.65 20.95 5.03 20.36 5.62L16.02 9.95C15.43 10.54 15.06 11.32 14.96 12.15C14.87 12.98 15.06 13.82 15.5 14.53L16.82 16.64L15.69 19.36L13.27 19.92C12.44 20.11 11.7 20.59 11.18 21.26C11 21.5 10.92 21.81 10.96 22.11C11 22.41 11.16 22.68 11.4 22.87C11.64 23.05 11.95 23.14 12.25 23.1C12.55 23.06 12.83 22.91 13.02 22.67Z" fill="#000000" fill-opacity="1.000000" fill-rule="nonzero"/>
		<path id="Vector" d="M37 12.71C34.2 12.7 31.47 13.54 29.16 15.12C26.85 16.69 25.07 18.93 24.07 21.54C24.01 21.69 23.98 21.84 23.98 21.99C23.98 22.14 24.02 22.29 24.08 22.43C24.14 22.58 24.23 22.7 24.34 22.81C24.45 22.91 24.58 23 24.72 23.05C24.86 23.11 25.01 23.14 25.17 23.13C25.32 23.13 25.47 23.09 25.61 23.03C25.75 22.97 25.88 22.88 25.98 22.77C26.08 22.66 26.17 22.53 26.22 22.38C27.07 20.22 28.55 18.35 30.47 17.04C32.39 15.73 34.67 15.03 37 15.03C39.32 15.03 41.6 15.73 43.52 17.04C45.44 18.35 46.92 20.22 47.77 22.38C47.82 22.53 47.91 22.66 48.01 22.77C48.12 22.88 48.24 22.97 48.38 23.03C48.52 23.09 48.67 23.13 48.82 23.13C48.98 23.14 49.13 23.11 49.27 23.05C49.41 23 49.54 22.91 49.65 22.81C49.76 22.7 49.85 22.58 49.91 22.43C49.97 22.29 50.01 22.14 50.01 21.99C50.01 21.84 49.98 21.69 49.92 21.54C48.92 18.93 47.14 16.69 44.83 15.12C42.52 13.54 39.79 12.7 37 12.71Z" fill="#000000" fill-opacity="1.000000" fill-rule="nonzero"/>
	</g>
</svg>
