<svg width="74.000000" height="74.000000" viewBox="0 0 74 74" fill="none" xmlns="http://www.w3.org/2000/svg" xmlns:xlink="http://www.w3.org/1999/xlink">
	
	<defs>
		<clipPath id="clip262_442">
			<rect id="fi_3441612" rx="0.000000" width="73.000000" height="73.000000" transform="translate(0.500000 0.500000)" fill="white" fill-opacity="0"/>
		</clipPath>
	</defs>
	<rect id="fi_3441612" rx="0.000000" width="73.000000" height="73.000000" transform="translate(0.500000 0.500000)" fill="#FFFFFF" fill-opacity="0"/>
	<g clip-path="url(#clip262_442)">
		<path id="Vector" d="M49.71 17.34C49.71 14.82 48.97 12.36 47.57 10.27C46.17 8.18 44.19 6.55 41.86 5.59C39.54 4.63 36.98 4.37 34.51 4.86C32.05 5.36 29.78 6.57 28 8.35C26.22 10.12 25.01 12.39 24.52 14.86C24.03 17.32 24.28 19.88 25.24 22.21C26.21 24.53 27.84 26.52 29.93 27.91C32.02 29.31 34.48 30.06 37 30.06C40.37 30.05 43.6 28.71 45.98 26.33C48.37 23.94 49.71 20.71 49.71 17.34ZM26.59 17.34C26.59 15.28 27.2 13.27 28.34 11.56C29.49 9.85 31.11 8.51 33.01 7.72C34.91 6.94 37.01 6.73 39.03 7.13C41.04 7.53 42.9 8.53 44.35 9.98C45.81 11.44 46.8 13.29 47.2 15.31C47.6 17.33 47.4 19.42 46.61 21.32C45.82 23.22 44.49 24.85 42.78 25.99C41.07 27.13 39.05 27.75 37 27.75C34.24 27.74 31.59 26.64 29.64 24.69C27.69 22.74 26.59 20.1 26.59 17.34Z" fill="#000000" fill-opacity="1.000000" fill-rule="nonzero"/>
		<path id="Vector" d="M38.15 25.43L38.15 24.28C39.07 24.28 39.95 23.91 40.6 23.26C41.25 22.61 41.62 21.73 41.62 20.81L41.62 20.16C41.62 19.43 41.39 18.72 40.97 18.13C40.54 17.54 39.94 17.1 39.25 16.87L38.15 16.5L38.15 12.71C38.46 12.71 38.75 12.84 38.97 13.05C39.19 13.27 39.31 13.56 39.31 13.87C39.31 14.18 39.43 14.47 39.65 14.69C39.86 14.9 40.16 15.03 40.46 15.03C40.77 15.03 41.06 14.9 41.28 14.69C41.5 14.47 41.62 14.18 41.62 13.87C41.62 12.95 41.25 12.07 40.6 11.42C39.95 10.77 39.07 10.4 38.15 10.4L38.15 9.25C38.15 8.94 38.03 8.64 37.81 8.43C37.6 8.21 37.3 8.09 37 8.09C36.69 8.09 36.39 8.21 36.18 8.43C35.96 8.64 35.84 8.94 35.84 9.25L35.84 10.4C34.92 10.4 34.04 10.77 33.39 11.42C32.74 12.07 32.37 12.95 32.37 13.87L32.37 14.52C32.37 15.24 32.6 15.95 33.02 16.54C33.45 17.14 34.05 17.58 34.74 17.81L35.84 18.17L35.84 21.96C35.53 21.96 35.24 21.84 35.02 21.62C34.8 21.41 34.68 21.11 34.68 20.81C34.68 20.5 34.56 20.21 34.34 19.99C34.13 19.77 33.83 19.65 33.53 19.65C33.22 19.65 32.93 19.77 32.71 19.99C32.49 20.21 32.37 20.5 32.37 20.81C32.37 21.73 32.74 22.61 33.39 23.26C34.04 23.91 34.92 24.28 35.84 24.28L35.84 25.43C35.84 25.74 35.96 26.03 36.18 26.25C36.39 26.47 36.69 26.59 37 26.59C37.3 26.59 37.6 26.47 37.81 26.25C38.03 26.03 38.15 25.74 38.15 25.43ZM35.47 15.61C35.24 15.54 35.04 15.39 34.9 15.19C34.76 15 34.68 14.76 34.68 14.52L34.68 13.87C34.68 13.56 34.8 13.27 35.02 13.05C35.24 12.84 35.53 12.71 35.84 12.71L35.84 15.73L35.47 15.61ZM38.15 18.94L38.52 19.06C38.75 19.14 38.95 19.29 39.09 19.49C39.23 19.68 39.31 19.92 39.31 20.16L39.31 20.81C39.31 21.11 39.19 21.41 38.97 21.62C38.75 21.84 38.46 21.96 38.15 21.96L38.15 18.94Z" fill="#000000" fill-opacity="1.000000" fill-rule="nonzero"/>
		<path id="Vector" d="M65.74 29.38C63.48 28.7 61.08 28.62 58.78 29.17C56.48 29.72 54.37 30.86 52.65 32.49C50.94 34.12 49.7 36.18 49.04 38.45C48.38 40.72 48.33 43.12 48.91 45.41L45.99 48.33C42.56 51.75 39.89 55.85 38.15 60.37L38.15 34.62C42.64 34.32 46.84 32.29 49.86 28.95C52.88 25.62 54.48 21.24 54.33 16.74C54.18 12.24 52.29 7.98 49.05 4.85C45.82 1.72 41.49 -0.03 37 -0.03C32.5 -0.03 28.17 1.72 24.94 4.85C21.7 7.98 19.81 12.24 19.66 16.74C19.51 21.24 21.11 25.62 24.13 28.95C27.15 32.29 31.35 34.32 35.84 34.62L35.84 62.71C34.69 60.31 33.15 58.12 31.27 56.23L25.08 50.04C25.61 47.8 25.56 45.47 24.95 43.26C24.34 41.04 23.19 39.02 21.59 37.37C19.85 35.69 17.71 34.5 15.37 33.91C13.03 33.32 10.57 33.35 8.25 34.01C8.05 34.06 7.86 34.16 7.71 34.31C7.57 34.46 7.46 34.64 7.41 34.84C6.76 37.17 6.72 39.62 7.32 41.96C7.91 44.3 9.1 46.45 10.77 48.18C12.03 49.42 13.52 50.4 15.16 51.06C16.8 51.72 18.55 52.05 20.32 52.03C21.37 52.02 22.42 51.9 23.45 51.67L29.64 57.86C33.33 61.55 35.52 66.47 35.78 71.68L26.59 71.68C26.28 71.68 25.99 71.8 25.77 72.02C25.55 72.24 25.43 72.53 25.43 72.84C25.43 73.14 25.55 73.44 25.77 73.66C25.99 73.87 26.28 73.99 26.59 73.99L47.4 73.99C47.71 73.99 48 73.87 48.22 73.66C48.44 73.44 48.56 73.14 48.56 72.84C48.56 72.53 48.44 72.24 48.22 72.02C48 71.8 47.71 71.68 47.4 71.68L38.18 71.68C38.45 63.51 41.82 55.74 47.62 49.97L50.54 47.05C51.57 47.27 52.62 47.39 53.67 47.4C55.44 47.42 57.19 47.1 58.83 46.44C60.47 45.78 61.96 44.8 63.22 43.56C64.89 41.82 66.08 39.68 66.68 37.34C67.27 35 67.23 32.54 66.58 30.22C66.53 30.02 66.42 29.83 66.28 29.68C66.13 29.54 65.94 29.43 65.74 29.38ZM12.41 46.55C11.1 45.18 10.14 43.51 9.63 41.69C9.13 39.86 9.08 37.94 9.5 36.09C11.35 35.67 13.27 35.72 15.09 36.23C16.92 36.73 18.59 37.69 19.95 39C21.11 40.19 21.98 41.61 22.52 43.17C23.06 44.73 23.25 46.39 23.07 48.03L18.16 43.11C17.94 42.9 17.65 42.79 17.34 42.79C17.04 42.79 16.75 42.91 16.54 43.13C16.32 43.34 16.2 43.63 16.2 43.94C16.19 44.24 16.31 44.53 16.52 44.75L21.43 49.66C19.79 49.84 18.13 49.65 16.57 49.11C15.01 48.57 13.59 47.7 12.41 46.55ZM21.96 17.34C21.96 14.37 22.85 11.46 24.5 8.99C26.15 6.52 28.5 4.59 31.24 3.45C33.99 2.31 37.01 2.02 39.93 2.6C42.84 3.18 45.52 4.61 47.62 6.71C49.73 8.81 51.16 11.49 51.74 14.41C52.32 17.32 52.02 20.34 50.88 23.09C49.74 25.84 47.82 28.18 45.35 29.84C42.87 31.49 39.97 32.37 37 32.37C33.01 32.37 29.19 30.78 26.37 27.96C23.55 25.14 21.97 21.32 21.96 17.34ZM61.58 41.92C60.4 43.07 58.98 43.95 57.42 44.49C55.86 45.03 54.2 45.21 52.56 45.04L57.47 40.12C57.68 39.91 57.8 39.61 57.79 39.31C57.79 39.01 57.67 38.72 57.45 38.5C57.24 38.29 56.95 38.17 56.65 38.16C56.34 38.16 56.05 38.28 55.83 38.49L50.92 43.4C50.74 41.76 50.93 40.1 51.47 38.54C52.01 36.98 52.88 35.56 54.03 34.38C55.4 33.06 57.07 32.11 58.9 31.6C60.72 31.09 62.64 31.05 64.49 31.47C64.91 33.31 64.86 35.24 64.36 37.06C63.85 38.89 62.89 40.56 61.58 41.92Z" fill="#000000" fill-opacity="1.000000" fill-rule="nonzero"/>
		<path id="Vector" d="M65.65 2.74C65.53 2.61 65.4 2.51 65.24 2.44C65.08 2.37 64.92 2.33 64.74 2.33C64.57 2.33 64.4 2.37 64.25 2.44C64.09 2.51 63.95 2.61 63.84 2.74C63.23 3.51 57.81 10.37 57.81 13.87C57.81 15.71 58.54 17.47 59.84 18.77C61.14 20.08 62.91 20.81 64.75 20.81C66.58 20.81 68.35 20.08 69.65 18.77C70.95 17.47 71.68 15.71 71.68 13.87C71.68 10.37 66.26 3.51 65.65 2.74ZM64.75 18.49C63.52 18.49 62.34 18.01 61.48 17.14C60.61 16.27 60.12 15.1 60.12 13.87C60.12 12.11 62.67 8.12 64.75 5.35C66.82 8.12 69.37 12.11 69.37 13.87C69.37 15.1 68.88 16.27 68.01 17.14C67.15 18.01 65.97 18.49 64.75 18.49Z" fill="#000000" fill-opacity="1.000000" fill-rule="nonzero"/>
		<path id="Vector" d="M63.59 13.87C63.59 13.56 63.47 13.27 63.25 13.05C63.03 12.84 62.74 12.71 62.43 12.71C62.13 12.71 61.83 12.84 61.61 13.05C61.4 13.27 61.28 13.56 61.28 13.87C61.28 14.79 61.64 15.67 62.29 16.32C62.94 16.97 63.83 17.34 64.75 17.34C65.05 17.34 65.35 17.22 65.56 17C65.78 16.78 65.9 16.49 65.9 16.18C65.9 15.88 65.78 15.58 65.56 15.37C65.35 15.15 65.05 15.03 64.75 15.03C64.44 15.03 64.14 14.9 63.93 14.69C63.71 14.47 63.59 14.18 63.59 13.87Z" fill="#000000" fill-opacity="1.000000" fill-rule="nonzero"/>
		<path id="Vector" d="M16.18 23.12C16.18 19.62 10.76 12.76 10.15 11.99C10.03 11.86 9.9 11.76 9.74 11.69C9.58 11.62 9.42 11.58 9.24 11.58C9.07 11.58 8.9 11.62 8.75 11.69C8.59 11.76 8.45 11.86 8.34 11.99C7.73 12.76 2.31 19.62 2.31 23.12C2.31 24.96 3.04 26.72 4.34 28.02C5.64 29.33 7.41 30.06 9.25 30.06C11.09 30.06 12.85 29.33 14.15 28.02C15.45 26.72 16.18 24.96 16.18 23.12ZM4.62 23.12C4.62 21.36 7.17 17.37 9.25 14.6C11.32 17.37 13.87 21.36 13.87 23.12C13.87 24.35 13.38 25.52 12.52 26.39C11.65 27.26 10.47 27.74 9.25 27.74C8.02 27.74 6.84 27.26 5.97 26.39C5.11 25.52 4.62 24.35 4.62 23.12Z" fill="#000000" fill-opacity="1.000000" fill-rule="nonzero"/>
		<path id="Vector" d="M10.4 25.43C10.4 25.13 10.28 24.83 10.06 24.62C9.85 24.4 9.55 24.28 9.25 24.28C8.94 24.28 8.64 24.15 8.43 23.94C8.21 23.72 8.09 23.43 8.09 23.12C8.09 22.81 7.97 22.52 7.75 22.3C7.53 22.09 7.24 21.96 6.93 21.96C6.63 21.96 6.33 22.09 6.11 22.3C5.9 22.52 5.78 22.81 5.78 23.12C5.78 24.04 6.14 24.92 6.79 25.57C7.44 26.22 8.33 26.59 9.25 26.59C9.55 26.59 9.85 26.47 10.06 26.25C10.28 26.03 10.4 25.74 10.4 25.43Z" fill="#000000" fill-opacity="1.000000" fill-rule="nonzero"/>
	</g>
</svg>
