<svg width="74.000000" height="74.000000" viewBox="0 0 74 74" fill="none" xmlns="http://www.w3.org/2000/svg" xmlns:xlink="http://www.w3.org/1999/xlink">
	
	<defs>
		<clipPath id="clip386_347">
			<rect id="fi_2974854" rx="0.000000" width="73.000000" height="73.000000" transform="translate(0.500000 0.500000)" fill="white" fill-opacity="0"/>
		</clipPath>
	</defs>
	<rect id="fi_2974854" rx="0.000000" width="73.000000" height="73.000000" transform="translate(0.500000 0.500000)" fill="#FFFFFF" fill-opacity="0"/>
	<g clip-path="url(#clip386_347)">
		<path id="Vector" d="M33.53 6.93C33.53 7.57 33.01 8.09 32.37 8.09C31.73 8.09 31.21 7.57 31.21 6.93C31.21 6.29 31.73 5.78 32.37 5.78C33.01 5.78 33.53 6.29 33.53 6.93Z" fill="#000000" fill-opacity="1.000000" fill-rule="evenodd"/>
		<path id="Vector" d="M56.65 33.53C51.55 33.53 47.4 37.68 47.4 42.78C47.4 47.88 51.55 52.03 56.65 52.03C61.75 52.03 65.9 47.88 65.9 42.78C65.9 37.68 61.75 33.53 56.65 33.53ZM56.65 49.71C52.83 49.71 49.71 46.6 49.71 42.78C49.71 38.95 52.83 35.84 56.65 35.84C60.48 35.84 63.59 38.95 63.59 42.78C63.59 46.6 60.48 49.71 56.65 49.71Z" fill="#000000" fill-opacity="1.000000" fill-rule="nonzero"/>
		<path id="Vector" d="M56.65 38.15C54.1 38.15 52.03 40.23 52.03 42.78C52.03 45.33 54.1 47.4 56.65 47.4C59.2 47.4 61.28 45.33 61.28 42.78C61.28 40.23 59.2 38.15 56.65 38.15ZM56.65 45.09C55.38 45.09 54.34 44.05 54.34 42.78C54.34 41.5 55.38 40.46 56.65 40.46C57.93 40.46 58.96 41.5 58.96 42.78C58.96 44.05 57.93 45.09 56.65 45.09Z" fill="#000000" fill-opacity="1.000000" fill-rule="nonzero"/>
		<path id="Vector" d="M70.45 47.4L72.84 47.4L72.84 38.15L70.45 38.15C70.02 38.15 69.64 37.89 69.46 37.45C69.29 37.05 69.38 36.59 69.68 36.29L71.37 34.6L64.83 28.06L63.14 29.75C62.84 30.05 62.38 30.14 61.94 29.96C61.54 29.79 61.28 29.41 61.28 28.97L61.28 19.65C62.55 19.65 63.59 18.61 63.59 17.34L63.59 12.71C63.59 11.44 62.55 10.4 61.28 10.4L38.15 10.4L38.15 6.93C38.15 3.75 35.56 1.15 32.37 1.15C29.18 1.15 26.59 3.75 26.59 6.93L26.59 10.4L3.46 10.4C2.19 10.4 1.15 11.44 1.15 12.71L1.15 17.34C1.15 18.61 2.19 19.65 3.46 19.65L3.46 70.53C3.46 71.8 4.5 72.84 5.78 72.84L58.96 72.84C60.24 72.84 61.28 71.8 61.28 70.53L61.28 56.58C61.28 56.15 61.54 55.76 61.97 55.58C62.38 55.41 62.84 55.5 63.14 55.81L64.83 57.49L71.37 50.95L69.68 49.27C69.38 48.96 69.29 48.5 69.47 48.07C69.63 47.66 70.02 47.4 70.45 47.4ZM28.9 6.93C28.9 5.02 30.46 3.46 32.37 3.46C34.28 3.46 35.84 5.02 35.84 6.93L35.84 10.4L28.9 10.4L28.9 6.93ZM3.46 12.71L61.28 12.71L61.28 17.34L3.46 17.34L3.46 12.71ZM58.96 19.65L58.96 26.59L56.65 26.59L56.65 21.96L8.09 21.96L8.09 28.9L47.63 28.9L45.32 31.21L8.09 31.21L8.09 55.02L5.78 52.7L5.78 19.65L58.96 19.65ZM45.09 26.59L45.09 24.28L54.34 24.28L54.34 26.59L45.09 26.59ZM52.03 28.9L52.03 28.97C52.03 29.41 51.76 29.79 51.33 29.97C50.92 30.14 50.47 30.05 50.16 29.75L49.32 28.9L52.03 28.9ZM10.4 26.59L10.4 24.28L19.65 24.28L19.65 26.59L10.4 26.59ZM21.96 24.28L31.21 24.28L31.21 26.59L21.96 26.59L21.96 24.28ZM33.53 24.28L42.78 24.28L42.78 26.59L33.53 26.59L33.53 24.28ZM43.62 36.29C43.93 36.59 44.01 37.05 43.83 37.48C43.67 37.89 43.28 38.15 42.85 38.15L40.46 38.15L40.46 42.78L33.53 42.78L33.53 33.53L43.01 33.53L41.94 34.6L43.62 36.29ZM45.32 54.34L33.53 54.34L33.53 45.09L40.46 45.09L40.46 47.4L42.85 47.4C43.28 47.4 43.67 47.66 43.85 48.1C44.01 48.5 43.92 48.96 43.62 49.27L41.93 50.95L45.32 54.34ZM54.34 58.96L54.34 65.9L45.09 65.9L45.09 56.65L47.63 56.65L48.47 57.49L50.16 55.81C50.47 55.5 50.92 55.42 51.36 55.59C51.76 55.76 52.03 56.15 52.03 56.58L52.03 58.96L54.34 58.96ZM6.82 57.02L14.34 64.54C13.48 65.28 12.94 66.31 12.78 67.45L6.82 57.02ZM21.96 42.78L21.96 33.53L31.21 33.53L31.21 42.78L21.96 42.78ZM31.21 45.09L31.21 54.34L21.96 54.34L21.96 45.09L31.21 45.09ZM19.65 42.78L10.4 42.78L10.4 33.53L19.65 33.53L19.65 42.78ZM10.4 45.09L19.65 45.09L19.65 54.34L10.4 54.34L10.4 45.09ZM10.4 57.33L10.4 56.65L19.65 56.65L19.65 65.9L16.46 65.9L18.13 65.06L10.4 57.33ZM21.96 56.65L31.21 56.65L31.21 65.9L21.96 65.9L21.96 56.65ZM33.53 56.65L42.78 56.65L42.78 65.9L33.53 65.9L33.53 56.65ZM5.78 59.85L11.88 70.53L5.78 70.53L5.78 59.85ZM17.44 70.53C16.15 70.53 15.09 69.5 15.04 68.21L56.65 68.21L56.65 58.96L58.96 58.96L58.96 70.53L17.44 70.53ZM67.32 47.21C66.79 48.48 67.08 49.93 68.05 50.9L68.1 50.95L64.83 54.22L64.78 54.17C63.81 53.2 62.36 52.92 61.07 53.45C59.79 53.98 58.96 55.21 58.96 56.58L58.96 56.65L54.34 56.65L54.34 56.58C54.34 55.21 53.51 53.98 52.21 53.44C50.94 52.92 49.49 53.2 48.53 54.17L48.47 54.22L45.2 50.95L45.26 50.9C46.22 49.93 46.51 48.48 45.97 47.19C45.45 45.91 44.22 45.09 42.85 45.09L42.78 45.09L42.78 40.46L42.85 40.46C44.22 40.46 45.45 39.64 45.98 38.34C46.51 37.07 46.22 35.62 45.26 34.65L45.2 34.6L48.47 31.33L48.53 31.38C49.49 32.35 50.94 32.63 52.24 32.1C53.51 31.57 54.34 30.35 54.34 28.97L54.34 28.9L58.96 28.9L58.96 28.97C58.96 30.35 59.79 31.57 61.09 32.11C62.36 32.63 63.81 32.35 64.78 31.38L64.83 31.33L68.1 34.6L68.05 34.65C67.08 35.62 66.79 37.07 67.33 38.36C67.85 39.64 69.08 40.46 70.45 40.46L70.53 40.46L70.53 45.09L70.45 45.09C69.08 45.09 67.85 45.91 67.32 47.21Z" fill="#000000" fill-opacity="1.000000" fill-rule="nonzero"/>
	</g>
</svg>
