<svg width="50.000000" height="50.000000" viewBox="0 0 50 50" fill="none" xmlns="http://www.w3.org/2000/svg" xmlns:xlink="http://www.w3.org/1999/xlink">
	
	<defs>
		<clipPath id="clip386_732">
			<rect id="fi_1284457" rx="0.000000" width="49.000000" height="49.000000" transform="translate(0.500000 0.500000)" fill="white" fill-opacity="0"/>
		</clipPath>
	</defs>
	<rect id="fi_1284457" rx="0.000000" width="49.000000" height="49.000000" transform="translate(0.500000 0.500000)" fill="#FFFFFF" fill-opacity="0"/>
	<g clip-path="url(#clip386_732)">
		<path id="Vector" d="M50 31.89C50 29.38 48.31 27.15 45.9 26.47L38.72 24.41L38.72 22.31C39.6 21.5 40.28 20.49 40.68 19.34C41.66 19.24 42.59 18.8 43.26 18.06C43.93 17.32 44.28 16.35 44.29 15.35L44.31 15.35L44.31 10.52C44.31 4.74 39.61 0.04 33.83 0.04C28.06 0.04 23.36 4.74 23.36 10.52L23.36 15.35L23.38 15.35C23.38 16.35 23.73 17.32 24.41 18.06C25.08 18.8 26.01 19.24 26.99 19.34C27.4 20.51 28.1 21.54 29 22.35L29 24.41L21.81 26.47C19.4 27.15 17.72 29.38 17.72 31.89L17.72 36.15C17.21 36.02 16.73 35.78 16.34 35.4L14.59 33.64C14.02 33.07 13.69 32.28 13.69 31.46C13.69 30.65 14.02 29.86 14.59 29.28L15.54 28.34C16.43 27.45 16.91 26.27 16.91 25.02L16.91 24.87C16.91 23.73 16.5 22.63 15.75 21.78L12.24 17.76C11.34 16.74 10.06 16.16 8.71 16.16C7.57 16.16 6.47 16.57 5.62 17.32L2.58 19.98C0.94 21.41 0 23.49 0 25.67C0 26.96 0.33 28.24 0.97 29.37C5.21 36.92 11.36 43.29 18.74 47.81L20.56 48.91C21.71 49.62 23.04 50 24.4 50C26.53 50 28.56 49.08 29.96 47.47L32.67 44.37C33.42 43.52 33.83 42.42 33.83 41.28C33.83 40.96 33.8 40.64 33.73 40.33L50 40.33L50 31.89ZM41.23 26.81L38.44 31.83L35.03 28.99L38.11 25.91L41.23 26.81ZM42.07 16.98C41.79 17.28 41.44 17.5 41.05 17.63C41.07 17.41 41.08 17.19 41.08 16.96L41.08 13.11C41.95 13.44 42.6 14.2 42.68 15.11C42.75 15.8 42.53 16.47 42.07 16.98ZM33.83 1.65C38.72 1.65 42.7 5.63 42.7 10.52L42.7 12.2C41.98 11.66 41.1 11.32 40.14 11.32L39.67 11.32C37.68 11.32 35.81 10.55 34.4 9.14L33.83 8.57L33.26 9.14C31.86 10.55 29.99 11.32 28 11.32L27.39 11.32L27.39 11.32C26.48 11.35 25.65 11.68 24.97 12.2L24.97 10.52C24.97 5.63 28.95 1.65 33.83 1.65ZM25.6 16.98C25.14 16.47 24.92 15.8 24.98 15.11C25.07 14.2 25.72 13.44 26.58 13.11L26.58 16.96C26.58 17.19 26.6 17.41 26.62 17.63C26.23 17.5 25.88 17.28 25.6 16.98ZM28.19 16.96L28.19 12.92C30.28 12.88 32.25 12.14 33.83 10.8C35.41 12.14 37.39 12.88 39.47 12.92L39.47 16.96C39.47 20.07 36.94 22.6 33.83 22.6C30.72 22.6 28.19 20.07 28.19 16.96ZM33.83 24.21C35.01 24.21 36.12 23.93 37.1 23.42L37.1 24.64L33.83 27.91L30.61 24.69L30.61 23.45C31.58 23.93 32.68 24.21 33.83 24.21ZM29.57 25.92L32.64 28.99L29.23 31.83L26.45 26.82L29.57 25.92ZM11.02 18.82L14.54 22.84C15.03 23.4 15.3 24.12 15.3 24.87L15.3 25.02C15.3 25.39 15.23 25.76 15.1 26.1L7.18 18.18C7.65 17.91 8.17 17.77 8.71 17.77C9.59 17.77 10.44 18.15 11.02 18.82ZM28.75 46.41C27.65 47.66 26.07 48.38 24.4 48.38C23.34 48.38 22.3 48.09 21.4 47.54L19.58 46.43C12.43 42.06 6.48 35.89 2.37 28.58C1.87 27.69 1.61 26.69 1.61 25.67C1.61 23.95 2.35 22.32 3.64 21.19L5.92 19.19L14.16 27.44L13.46 28.14C12.58 29.02 12.08 30.23 12.08 31.46C12.08 32.7 12.58 33.91 13.46 34.78L15.21 36.53C16.09 37.42 17.27 37.91 18.53 37.91C19.78 37.91 20.96 37.42 21.85 36.53L22.55 35.83L30.8 44.07L28.75 46.41ZM31.81 42.81L23.89 34.89C24.24 34.76 24.6 34.69 24.97 34.69L25.12 34.69C25.87 34.69 26.59 34.96 27.15 35.45L31.17 38.97C31.84 39.55 32.22 40.4 32.22 41.28C32.22 41.82 32.08 42.35 31.81 42.81ZM48.38 38.72L43.53 38.72L43.53 33.08L41.91 33.08L41.91 38.72L33.06 38.72C32.83 38.36 32.56 38.04 32.23 37.75L28.21 34.24C27.36 33.49 26.26 33.08 25.12 33.08L24.97 33.08C23.72 33.08 22.54 33.56 21.65 34.45L20.71 35.4C20.32 35.78 19.84 36.02 19.33 36.15L19.33 31.89C19.33 30.1 20.53 28.51 22.25 28.01L24.85 27.27L28.77 34.32L33.03 30.77L33.03 37.1L34.64 37.1L34.64 30.77L38.9 34.32L42.82 27.26L45.46 28.02C47.18 28.51 48.38 30.1 48.38 31.89L48.38 38.72Z" fill="#000000" fill-opacity="1.000000" fill-rule="nonzero"/>
	</g>
</svg>
