<svg width="300.000000" height="49.000000" viewBox="0 0 300 49" fill="none" xmlns="http://www.w3.org/2000/svg" xmlns:xlink="http://www.w3.org/1999/xlink">
	
	<defs/>
	<path id="The Bipolar Resection Company" d="M75.81 33.58L74.9 33.58L74.9 45.1L75.81 45.1L75.81 40.92Q75.81 39.4 76.47 38.62C76.92 38.09 77.52 37.83 78.28 37.83Q79.08 37.83 79.61 38.21Q79.81 38.35 79.97 38.55C80.37 39.03 80.56 39.72 80.56 40.63L80.56 45.1L81.52 45.1L81.52 40.55C81.52 39.74 81.39 39.07 81.12 38.55C80.87 38.03 80.51 37.64 80.05 37.38C79.59 37.12 79.07 36.98 78.48 36.98Q77.63 36.98 76.96 37.33Q76.92 37.36 76.87 37.38Q76.58 37.54 76.35 37.76Q76.02 38.08 75.81 38.52L75.81 33.58ZM131.69 33.62L130.78 33.62L130.78 45.1L131.69 45.1L131.69 33.62ZM229.16 37.19Q228.76 38.23 228.76 39.5Q228.76 40.74 229.16 41.8C229.43 42.49 229.81 43.1 230.3 43.61C230.8 44.12 231.38 44.51 232.04 44.79C232.7 45.07 233.42 45.21 234.2 45.21C235.43 45.21 236.48 44.92 237.35 44.34C238.23 43.77 238.89 42.95 239.32 41.88L238.52 41.59C238.28 42.17 237.94 42.66 237.51 43.08Q237.25 43.34 236.94 43.55Q236.52 43.84 236.03 44.02C235.47 44.24 234.86 44.34 234.2 44.33C233.37 44.33 232.61 44.14 231.93 43.75C231.26 43.36 230.73 42.8 230.33 42.09C229.95 41.36 229.75 40.5 229.75 39.5C229.75 38.48 229.95 37.62 230.33 36.9C230.73 36.18 231.26 35.62 231.93 35.24C232.61 34.86 233.37 34.66 234.2 34.66C234.85 34.66 235.45 34.76 235.99 34.97C236.55 35.16 237.03 35.44 237.45 35.82Q237.57 35.92 237.68 36.04Q238.14 36.53 238.43 37.19L239.23 36.89C238.79 35.92 238.14 35.16 237.27 34.62C236.42 34.06 235.4 33.78 234.2 33.78Q233.03 33.78 232.04 34.2C231.38 34.48 230.8 34.87 230.3 35.38C229.81 35.88 229.43 36.49 229.16 37.19ZM72.92 33.9L64.72 33.9L64.72 34.74L68.35 34.74L68.35 45.1L69.31 45.1L69.31 34.74L72.92 34.74L72.92 33.9ZM97.53 33.9L97.53 45.1L102.01 45.1C102.8 45.1 103.46 44.96 103.99 44.7C104.53 44.43 104.93 44.07 105.19 43.62C105.47 43.16 105.61 42.66 105.61 42.1Q105.61 41.32 105.29 40.76C105.09 40.38 104.81 40.07 104.46 39.85C104.1 39.61 103.7 39.46 103.26 39.4L103.26 39.3C103.63 39.23 103.97 39.09 104.28 38.89C104.6 38.68 104.86 38.41 105.05 38.06C105.24 37.7 105.34 37.27 105.34 36.74C105.34 36.22 105.21 35.75 104.97 35.32Q104.93 35.25 104.89 35.19Q104.54 34.64 103.86 34.3C103.36 34.03 102.72 33.9 101.93 33.9L97.53 33.9ZM158.84 34.33C158.29 34.04 157.58 33.9 156.69 33.9L152.97 33.9L152.97 45.1L153.94 45.1L153.94 40.42L156.71 40.42L159.56 45.1L160.66 45.1L157.72 40.34C157.96 40.3 158.18 40.24 158.39 40.17C158.86 40 159.25 39.77 159.56 39.48C159.87 39.18 160.1 38.83 160.25 38.44C160.39 38.04 160.47 37.62 160.47 37.16C160.47 36.54 160.34 35.99 160.07 35.5C159.8 35 159.39 34.62 158.84 34.33ZM108.01 35.11C108.14 35.24 108.31 35.3 108.51 35.3Q108.65 35.3 108.76 35.25Q108.88 35.21 108.97 35.11C109.11 34.98 109.18 34.82 109.18 34.63C109.18 34.43 109.11 34.26 108.97 34.14C108.85 34.01 108.69 33.94 108.51 33.94C108.31 33.94 108.14 34.01 108.01 34.14C107.89 34.26 107.82 34.43 107.82 34.63C107.82 34.82 107.89 34.98 108.01 35.11ZM202.72 35.11C202.85 35.24 203.01 35.3 203.21 35.3C203.39 35.3 203.55 35.24 203.68 35.11C203.82 34.98 203.89 34.82 203.89 34.63C203.89 34.43 203.82 34.26 203.68 34.14C203.55 34.01 203.39 33.94 203.21 33.94C203.01 33.94 202.85 34.01 202.72 34.14C202.59 34.26 202.53 34.43 202.53 34.63C202.53 34.82 202.59 34.98 202.72 35.11ZM104.14 35.83Q104.38 36.28 104.38 36.86Q104.38 37.49 104.1 37.96Q103.95 38.2 103.74 38.39C103.32 38.76 102.71 38.95 101.91 38.95L98.5 38.95L98.5 34.74L101.85 34.74Q103.13 34.74 103.75 35.34Q103.99 35.56 104.14 35.83ZM159.06 35.66Q159.48 36.26 159.48 37.16C159.48 37.63 159.38 38.04 159.19 38.41Q159.12 38.54 159.03 38.65Q158.76 39.02 158.29 39.25C157.89 39.46 157.37 39.56 156.73 39.56L153.94 39.56L153.94 34.74L156.69 34.74C157.7 34.74 158.41 34.96 158.84 35.4Q158.96 35.52 159.06 35.66ZM197.51 34.86L197.51 37.09L196.26 37.09L196.26 37.94L197.51 37.94L197.51 42.66C197.51 43.18 197.59 43.6 197.76 43.94C197.94 44.28 198.18 44.56 198.48 44.76C198.79 44.95 199.13 45.07 199.51 45.11Q199.68 45.13 199.86 45.13Q200.26 45.13 200.66 45.03L200.66 44.25C200.29 44.31 199.93 44.31 199.59 44.25C199.25 44.17 198.96 44.01 198.74 43.75C198.53 43.5 198.42 43.13 198.42 42.66L198.42 37.94L200.66 37.94L200.66 37.09L198.42 37.09L198.42 34.86L197.51 34.86ZM85.24 44.68C85.82 45.03 86.48 45.21 87.23 45.21Q88.38 45.21 89.27 44.71Q89.31 44.69 89.35 44.66C89.96 44.3 90.42 43.78 90.71 43.1L89.93 42.78Q89.78 43.12 89.56 43.39Q89.28 43.72 88.89 43.94C88.42 44.21 87.86 44.34 87.19 44.34C86.67 44.34 86.2 44.22 85.79 43.98C85.38 43.72 85.06 43.37 84.81 42.92Q84.44 42.25 84.43 41.37L90.84 41.37C90.85 41.23 90.86 41.1 90.86 40.98C90.87 40.86 90.87 40.74 90.87 40.63Q90.89 39.72 90.53 38.99Q90.48 38.87 90.41 38.76C90.1 38.2 89.66 37.77 89.1 37.46Q89.01 37.41 88.92 37.37Q88.15 36.98 87.19 36.98C86.47 36.98 85.82 37.16 85.26 37.51Q84.98 37.68 84.74 37.89Q84.25 38.32 83.91 38.93C83.59 39.54 83.43 40.24 83.43 41.02Q83.43 42.25 83.91 43.19C84.23 43.82 84.68 44.32 85.24 44.68ZM112.64 43.43L112.64 48.3L111.73 48.3L111.73 37.09L112.58 37.09L112.64 38.86C112.86 38.33 113.23 37.89 113.73 37.53C114.24 37.16 114.89 36.98 115.68 36.98Q116.54 36.98 117.25 37.31Q117.42 37.4 117.58 37.5Q117.82 37.64 118.03 37.81Q118.55 38.26 118.88 38.92C119.2 39.53 119.36 40.25 119.36 41.1C119.36 41.93 119.21 42.65 118.9 43.27Q118.62 43.84 118.18 44.26Q117.93 44.5 117.62 44.7Q117.58 44.72 117.55 44.73Q116.76 45.21 115.68 45.21C114.87 45.21 114.2 45.02 113.66 44.65Q113.06 44.2 112.73 43.61Q112.68 43.52 112.64 43.43ZM122.76 44.71C123.36 45.04 124.03 45.21 124.78 45.21C125.53 45.21 126.21 45.04 126.79 44.71C127.39 44.38 127.86 43.91 128.2 43.29C128.55 42.67 128.73 41.93 128.73 41.08C128.73 40.24 128.56 39.51 128.22 38.9C127.88 38.28 127.41 37.81 126.81 37.48C126.22 37.15 125.56 36.98 124.81 36.98C124.05 36.98 123.37 37.15 122.78 37.48Q122.48 37.65 122.22 37.87Q121.72 38.29 121.38 38.9Q120.87 39.83 120.87 41.11Q120.87 42.38 121.37 43.3C121.71 43.91 122.17 44.38 122.76 44.71ZM139.32 43.4L139.38 45.1L140.23 45.1L140.23 39.62C140.23 38.8 139.97 38.16 139.44 37.69Q139.44 37.68 139.43 37.68Q138.65 36.98 137.25 36.98C136.42 36.98 135.73 37.18 135.17 37.58C134.62 37.96 134.24 38.51 134.04 39.22L134.87 39.51C135.01 38.98 135.28 38.57 135.68 38.28Q136.31 37.85 137.24 37.85C137.89 37.85 138.39 38.01 138.76 38.33C139.13 38.64 139.32 39.07 139.32 39.62L139.32 40.3L136.72 40.58C135.73 40.68 134.99 40.94 134.48 41.37C133.98 41.78 133.73 42.33 133.73 43C133.73 43.46 133.84 43.85 134.05 44.18C134.28 44.51 134.59 44.77 135 44.95C135.4 45.12 135.89 45.21 136.47 45.21C137.19 45.21 137.79 45.05 138.26 44.74C138.74 44.42 139.09 43.98 139.32 43.4ZM164.24 44.84Q165 45.21 165.93 45.21Q167.09 45.21 167.97 44.71Q168.01 44.69 168.06 44.66C168.67 44.3 169.12 43.78 169.42 43.1L168.63 42.78C168.42 43.28 168.07 43.67 167.59 43.94C167.13 44.21 166.56 44.34 165.9 44.34C165.38 44.34 164.91 44.22 164.49 43.98C164.09 43.72 163.76 43.37 163.51 42.92Q163.15 42.25 163.13 41.37L169.55 41.37C169.56 41.23 169.56 41.1 169.56 40.98C169.57 40.86 169.58 40.74 169.58 40.63C169.59 39.93 169.43 39.3 169.11 38.76C168.81 38.2 168.37 37.77 167.8 37.46Q167.71 37.41 167.62 37.37Q166.86 36.98 165.9 36.98Q165.05 36.98 164.35 37.3Q164.15 37.39 163.96 37.51C163.4 37.85 162.95 38.33 162.62 38.93C162.3 39.54 162.14 40.24 162.14 41.02C162.14 41.84 162.3 42.56 162.62 43.19C162.94 43.82 163.38 44.32 163.95 44.68Q164.09 44.77 164.24 44.84ZM172.34 43.64C172.17 43.4 172.05 43.11 171.97 42.76L171.11 43.05C171.28 43.77 171.62 44.32 172.13 44.68C172.65 45.03 173.32 45.21 174.13 45.21Q175.03 45.21 175.68 44.94C176.13 44.75 176.48 44.49 176.72 44.15Q176.85 43.99 176.93 43.8Q177.11 43.42 177.11 42.95C177.11 42.55 177.02 42.21 176.85 41.94C176.68 41.68 176.46 41.46 176.18 41.29C175.9 41.12 175.6 40.98 175.28 40.87C174.96 40.76 174.65 40.67 174.34 40.6C174.06 40.54 173.8 40.47 173.54 40.41C173.28 40.34 173.05 40.26 172.85 40.17C172.66 40.07 172.5 39.94 172.39 39.78C172.27 39.62 172.21 39.42 172.21 39.18C172.21 38.75 172.38 38.42 172.72 38.2C173.06 37.96 173.52 37.85 174.08 37.85C174.34 37.85 174.6 37.88 174.87 37.94C175.13 38.01 175.37 38.13 175.59 38.31C175.81 38.48 175.97 38.74 176.07 39.08L176.92 38.79C176.72 38.16 176.37 37.7 175.86 37.41C175.35 37.13 174.76 36.98 174.1 36.98C173.54 36.98 173.05 37.08 172.61 37.27C172.18 37.45 171.85 37.71 171.6 38.06Q171.5 38.2 171.42 38.36Q171.24 38.75 171.24 39.22C171.24 39.64 171.33 39.98 171.51 40.23C171.7 40.48 171.94 40.68 172.23 40.84Q172.54 41 172.87 41.11Q173.01 41.15 173.16 41.19C173.48 41.28 173.76 41.35 174.02 41.42C174.39 41.5 174.74 41.6 175.06 41.72C175.38 41.84 175.64 41.99 175.83 42.18Q175.9 42.25 175.96 42.33Q176.13 42.59 176.13 42.97C176.13 43.36 175.96 43.69 175.62 43.96C175.29 44.22 174.79 44.34 174.13 44.34C173.72 44.34 173.36 44.28 173.06 44.17C172.76 44.05 172.52 43.87 172.34 43.64ZM180.73 44.84Q181.48 45.21 182.41 45.21Q183.57 45.21 184.45 44.71Q184.5 44.69 184.54 44.66C185.15 44.3 185.6 43.78 185.9 43.1L185.12 42.78C184.91 43.28 184.56 43.67 184.08 43.94C183.61 44.21 183.04 44.34 182.38 44.34C181.86 44.34 181.39 44.22 180.97 43.98C180.57 43.72 180.24 43.37 180 42.92Q179.63 42.25 179.61 41.37L186.03 41.37C186.04 41.23 186.05 41.1 186.05 40.98C186.06 40.86 186.06 40.74 186.06 40.63C186.07 39.93 185.92 39.3 185.6 38.76C185.29 38.2 184.85 37.77 184.29 37.46Q184.2 37.41 184.11 37.37Q183.34 36.98 182.38 36.98Q181.54 36.98 180.84 37.3Q180.64 37.39 180.45 37.51C179.88 37.85 179.43 38.33 179.1 38.93C178.78 39.54 178.62 40.24 178.62 41.02C178.62 41.84 178.78 42.56 179.1 43.19C179.42 43.82 179.87 44.32 180.43 44.68Q180.58 44.77 180.73 44.84ZM189.42 44.7C190 45.04 190.68 45.21 191.46 45.21Q192.57 45.21 193.43 44.74Q193.51 44.7 193.59 44.65Q193.99 44.4 194.29 44.08Q194.69 43.65 194.94 43.08L194.1 42.79Q193.91 43.19 193.62 43.5Q193.38 43.75 193.06 43.94C192.6 44.21 192.08 44.34 191.48 44.34C190.59 44.34 189.88 44.05 189.35 43.46C188.83 42.88 188.57 42.09 188.57 41.11C188.57 40.45 188.68 39.87 188.92 39.38C189.16 38.89 189.51 38.51 189.94 38.25C190.39 37.98 190.91 37.85 191.5 37.85Q192.34 37.85 192.99 38.21Q193.05 38.24 193.11 38.28C193.58 38.56 193.9 38.94 194.07 39.43L194.92 39.14C194.65 38.47 194.21 37.94 193.59 37.56Q193.47 37.49 193.35 37.42Q192.52 36.98 191.46 36.98C190.68 36.98 190 37.16 189.42 37.51C188.84 37.85 188.39 38.34 188.07 38.97C187.75 39.59 187.59 40.31 187.59 41.13C187.59 41.94 187.75 42.65 188.07 43.27C188.39 43.88 188.84 44.35 189.42 44.7ZM207.81 44.71C208.41 45.04 209.08 45.21 209.82 45.21C210.58 45.21 211.25 45.04 211.84 44.71C212.44 44.38 212.91 43.91 213.25 43.29Q213.78 42.36 213.78 41.08C213.78 40.24 213.61 39.51 213.26 38.9C212.92 38.28 212.45 37.81 211.86 37.48C211.27 37.15 210.6 36.98 209.86 36.98C209.1 36.98 208.42 37.15 207.82 37.48C207.24 37.81 206.77 38.28 206.43 38.9C206.09 39.52 205.92 40.26 205.92 41.11C205.92 41.95 206.09 42.68 206.42 43.3C206.76 43.91 207.22 44.38 207.81 44.71ZM216.67 37.09L215.82 37.09L215.82 45.1L216.73 45.1L216.73 40.87C216.73 39.86 216.95 39.09 217.39 38.58C217.83 38.07 218.43 37.82 219.2 37.82C219.92 37.82 220.49 38.06 220.89 38.54C221.3 39.02 221.5 39.71 221.5 40.62L221.5 45.1L222.41 45.1L222.41 40.52Q222.41 39.32 222.01 38.55C221.76 38.03 221.4 37.64 220.93 37.38Q220.87 37.35 220.81 37.32Q220.16 36.98 219.34 36.98C218.7 36.98 218.16 37.12 217.71 37.4C217.27 37.68 216.94 38.06 216.72 38.55L216.67 37.09ZM242.9 44.71C243.5 45.04 244.17 45.21 244.92 45.21C245.67 45.21 246.35 45.04 246.93 44.71C247.53 44.38 248 43.91 248.34 43.29Q248.87 42.36 248.87 41.08C248.87 40.24 248.7 39.51 248.36 38.9C248.02 38.28 247.55 37.81 246.95 37.48C246.36 37.15 245.7 36.98 244.95 36.98C244.19 36.98 243.51 37.15 242.92 37.48C242.33 37.81 241.87 38.28 241.53 38.9C241.18 39.52 241.01 40.26 241.01 41.11C241.01 41.95 241.18 42.68 241.51 43.3C241.85 43.91 242.31 44.38 242.9 44.71ZM251.76 37.09L250.92 37.09L250.92 45.1L251.83 45.1L251.83 40.92C251.83 39.91 252.04 39.14 252.45 38.62C252.88 38.09 253.46 37.83 254.2 37.83C254.91 37.83 255.45 38.07 255.83 38.55C256.21 39.02 256.4 39.71 256.4 40.62L256.4 45.1L257.33 45.1L257.33 40.92Q257.33 39.4 257.97 38.62C258.41 38.09 259 37.83 259.73 37.83C260.45 37.83 261 38.07 261.4 38.55C261.79 39.02 261.99 39.71 261.99 40.62L261.99 45.1L262.9 45.1L262.9 40.52C262.9 39.73 262.77 39.07 262.52 38.55C262.26 38.03 261.9 37.64 261.44 37.38C260.99 37.12 260.46 36.98 259.88 36.98Q259.17 36.98 258.57 37.23Q258.35 37.32 258.15 37.45Q257.97 37.55 257.82 37.68Q257.3 38.11 257.04 38.86C256.81 38.23 256.45 37.76 255.97 37.45Q255.71 37.28 255.43 37.17Q254.93 36.98 254.36 36.98C253.71 36.98 253.17 37.13 252.76 37.41C252.34 37.7 252.03 38.08 251.83 38.55L251.76 37.09ZM266.23 43.43L266.23 48.3L265.32 48.3L265.32 37.09L266.17 37.09L266.23 38.86C266.46 38.33 266.82 37.89 267.32 37.53Q268.09 36.98 269.27 36.98C269.99 36.98 270.62 37.15 271.18 37.5C271.73 37.83 272.17 38.3 272.47 38.92C272.79 39.53 272.95 40.25 272.95 41.1C272.95 41.93 272.8 42.65 272.49 43.27Q272.21 43.84 271.78 44.26Q271.52 44.5 271.21 44.7C270.67 45.04 270.02 45.21 269.27 45.21C268.46 45.21 267.79 45.02 267.26 44.65C266.79 44.31 266.45 43.9 266.23 43.43ZM280.07 43.4L280.13 45.1L280.98 45.1L280.98 39.62C280.98 38.8 280.72 38.16 280.19 37.69L280.18 37.68Q279.4 36.98 278 36.98C277.17 36.98 276.48 37.18 275.92 37.58C275.37 37.96 274.99 38.51 274.79 39.22L275.62 39.51C275.76 38.98 276.03 38.57 276.43 38.28Q277.06 37.85 277.99 37.85Q278.96 37.85 279.51 38.33C279.88 38.64 280.07 39.07 280.07 39.62L280.07 40.3L277.47 40.58C276.48 40.68 275.74 40.94 275.23 41.37C274.73 41.78 274.48 42.33 274.48 43C274.48 43.46 274.59 43.85 274.8 44.18C275.03 44.51 275.34 44.77 275.75 44.95C276.15 45.12 276.64 45.21 277.22 45.21C277.94 45.21 278.54 45.05 279.01 44.74C279.49 44.42 279.84 43.98 280.07 43.4ZM284.26 37.09L283.42 37.09L283.42 45.1L284.33 45.1L284.33 40.87C284.33 39.86 284.55 39.09 284.98 38.58C285.42 38.07 286.02 37.82 286.79 37.82C287.52 37.82 288.08 38.06 288.49 38.54C288.89 39.02 289.1 39.71 289.1 40.62L289.1 45.1L290.01 45.1L290.01 40.52Q290.01 39.32 289.61 38.55C289.35 38.03 288.99 37.64 288.52 37.38Q288.46 37.35 288.4 37.32Q287.76 36.98 286.94 36.98C286.3 36.98 285.75 37.12 285.3 37.4C284.87 37.68 284.54 38.06 284.31 38.55L284.26 37.09ZM143.51 37.09L142.67 37.09L142.67 45.1L143.58 45.1L143.58 40.82C143.58 40.33 143.65 39.9 143.8 39.51C143.95 39.13 144.16 38.81 144.43 38.55C144.7 38.3 145.03 38.12 145.4 38.02C145.78 37.92 146.19 37.91 146.65 38.01L146.65 37.09C146.18 37.01 145.75 37.02 145.35 37.13C144.96 37.23 144.61 37.41 144.3 37.66C143.99 37.9 143.74 38.19 143.56 38.52L143.51 37.09ZM108.94 37.09L108.05 37.09L108.05 45.1L108.94 45.1L108.94 37.09ZM203.65 37.09L202.75 37.09L202.75 45.1L203.65 45.1L203.65 37.09ZM298.83 37.09L297.89 37.09L295.25 43.94L292.46 37.09L291.47 37.09L294.77 45.02L293.44 48.3L294.34 48.3L298.83 37.09ZM117.7 38.83Q118.38 39.69 118.38 41.1Q118.38 42.5 117.7 43.36Q117.65 43.42 117.6 43.48C117.09 44.07 116.4 44.36 115.52 44.36C114.96 44.36 114.45 44.23 114.02 43.96C113.59 43.69 113.25 43.31 113.01 42.82C112.76 42.33 112.64 41.76 112.64 41.1Q112.64 40.09 112.99 39.37C113.24 38.88 113.58 38.5 114.02 38.23C114.45 37.96 114.95 37.83 115.5 37.83C116.38 37.83 117.08 38.12 117.6 38.71Q117.65 38.77 117.7 38.83ZM271.19 38.71C271.72 39.3 271.98 40.09 271.98 41.1C271.98 42.1 271.72 42.89 271.19 43.48C270.68 44.07 269.99 44.36 269.11 44.36C268.55 44.36 268.05 44.23 267.61 43.96C267.18 43.69 266.85 43.31 266.6 42.82Q266.23 42.09 266.23 41.1C266.23 40.42 266.35 39.85 266.59 39.37C266.83 38.88 267.17 38.5 267.61 38.23C268.05 37.96 268.54 37.83 269.1 37.83Q269.96 37.83 270.6 38.21Q270.93 38.41 271.19 38.71ZM89.56 39.16C89.79 39.56 89.89 40.03 89.88 40.57L84.43 40.57C84.47 40.04 84.61 39.58 84.86 39.18C85.11 38.76 85.44 38.43 85.83 38.2C86.23 37.96 86.67 37.85 87.16 37.85C87.72 37.85 88.2 37.96 88.6 38.2Q88.98 38.41 89.25 38.72Q89.43 38.92 89.56 39.16ZM126.22 44.01C125.77 44.23 125.29 44.34 124.78 44.34C124.26 44.34 123.78 44.23 123.34 44.01C122.9 43.77 122.54 43.42 122.26 42.94C121.99 42.46 121.85 41.84 121.85 41.1C121.85 40.35 121.99 39.74 122.26 39.25C122.54 38.78 122.9 38.42 123.35 38.2Q123.65 38.04 123.97 37.96Q124.37 37.85 124.79 37.85Q125.22 37.85 125.61 37.96Q125.93 38.04 126.23 38.2C126.68 38.42 127.04 38.78 127.32 39.25C127.61 39.74 127.75 40.35 127.75 41.1C127.75 41.84 127.61 42.46 127.32 42.94Q127.02 43.46 126.57 43.79Q126.41 43.91 126.22 44.01ZM168.27 39.16C168.49 39.56 168.6 40.03 168.59 40.57L163.13 40.57C163.17 40.04 163.32 39.58 163.56 39.18C163.82 38.76 164.14 38.43 164.54 38.2C164.93 37.96 165.38 37.85 165.87 37.85C166.42 37.85 166.9 37.96 167.31 38.2C167.72 38.43 168.04 38.75 168.27 39.16ZM184.75 39.16C184.97 39.56 185.08 40.03 185.07 40.57L179.61 40.57C179.66 40.04 179.8 39.58 180.05 39.18C180.3 38.76 180.63 38.43 181.02 38.2C181.42 37.96 181.86 37.85 182.35 37.85C182.91 37.85 183.39 37.96 183.79 38.2C184.21 38.43 184.53 38.75 184.75 39.16ZM211.26 44.01C210.82 44.23 210.34 44.34 209.82 44.34C209.31 44.34 208.83 44.23 208.38 44.01Q208.29 43.96 208.2 43.9Q207.67 43.55 207.31 42.94C207.03 42.46 206.9 41.84 206.9 41.1C206.9 40.35 207.03 39.74 207.31 39.25C207.59 38.78 207.95 38.42 208.4 38.2C208.85 37.96 209.33 37.85 209.84 37.85C210.35 37.85 210.83 37.96 211.28 38.2C211.73 38.42 212.09 38.78 212.37 39.25Q212.8 39.98 212.8 41.1Q212.8 42.22 212.37 42.94C212.09 43.42 211.72 43.77 211.26 44.01ZM246.36 44.01C245.91 44.23 245.43 44.34 244.92 44.34C244.41 44.34 243.93 44.23 243.48 44.01Q243.38 43.96 243.29 43.9Q242.76 43.55 242.41 42.94C242.13 42.46 241.99 41.84 241.99 41.1C241.99 40.35 242.13 39.74 242.41 39.25C242.68 38.78 243.05 38.42 243.49 38.2C243.94 37.96 244.42 37.85 244.93 37.85C245.45 37.85 245.93 37.96 246.37 38.2C246.82 38.42 247.18 38.78 247.46 39.25Q247.89 39.98 247.89 41.1Q247.89 42.22 247.46 42.94C247.18 43.42 246.82 43.77 246.36 44.01ZM101.94 44.25L98.5 44.25L98.5 39.8L101.9 39.8C102.74 39.8 103.41 40 103.9 40.39C104.4 40.78 104.65 41.32 104.65 42.02C104.65 42.73 104.41 43.28 103.93 43.67C103.46 44.06 102.8 44.25 101.94 44.25ZM136.71 41.38L139.32 41.08L139.32 41.48Q139.32 42.31 139 42.98Q138.86 43.28 138.65 43.53Q138.41 43.82 138.07 44.02C137.66 44.27 137.15 44.39 136.53 44.39C135.95 44.39 135.49 44.26 135.17 44.01C134.86 43.75 134.71 43.4 134.71 42.95C134.71 42.5 134.87 42.15 135.19 41.9C135.52 41.63 136.03 41.46 136.71 41.38ZM277.46 41.38L280.07 41.08L280.07 41.48C280.07 42.03 279.96 42.54 279.75 42.98C279.54 43.42 279.23 43.77 278.82 44.02C278.41 44.27 277.9 44.39 277.28 44.39C276.7 44.39 276.24 44.26 275.92 44.01C275.61 43.75 275.46 43.4 275.46 42.95Q275.46 42.54 275.64 42.23Q275.76 42.04 275.94 41.9C276.27 41.63 276.78 41.46 277.46 41.38Z" fill="#2A3651" fill-opacity="1.000000" fill-rule="evenodd"/>
	<path id="PSS UROLOGY" d="M84.71 20.02C84.43 19.67 84.24 19.26 84.16 18.79L81.04 19.67C81.22 20.55 81.61 21.32 82.21 21.97C82.81 22.6 83.57 23.09 84.49 23.42C85.42 23.75 86.45 23.92 87.59 23.92C88.97 23.92 90.12 23.69 91.04 23.22C91.95 22.75 92.64 22.13 93.09 21.35C93.55 20.56 93.79 19.69 93.79 18.72Q93.79 17.35 93.24 16.45Q92.99 16.02 92.66 15.66Q92.29 15.27 91.84 14.97C91.25 14.57 90.61 14.25 89.91 14Q88.86 13.6 87.81 13.3C87.23 13.11 86.7 12.93 86.24 12.75C85.77 12.55 85.39 12.31 85.11 12.05C84.83 11.76 84.69 11.39 84.69 10.92Q84.69 10.56 84.81 10.25Q84.9 10.02 85.06 9.82C85.31 9.5 85.64 9.26 86.06 9.1C86.48 8.93 86.94 8.85 87.44 8.87C87.9 8.87 88.34 8.95 88.74 9.12C89.14 9.27 89.48 9.48 89.76 9.75C90.04 10.01 90.23 10.33 90.31 10.7L93.44 9.85C93.17 9.03 92.75 8.35 92.19 7.8C91.64 7.23 90.95 6.8 90.14 6.52C89.32 6.22 88.4 6.07 87.39 6.07Q85.59 6.07 84.21 6.65C83.29 7.03 82.57 7.6 82.04 8.35Q81.97 8.44 81.92 8.53Q81.26 9.6 81.26 11.07Q81.26 12.35 81.71 13.2C82.03 13.75 82.45 14.2 82.99 14.55C83.52 14.9 84.11 15.19 84.76 15.42C85.41 15.65 86.07 15.87 86.74 16.07C87.45 16.29 88.08 16.51 88.61 16.75C89.16 16.98 89.59 17.26 89.89 17.6C90.19 17.93 90.34 18.35 90.34 18.85C90.34 19.48 90.09 20.02 89.61 20.47C89.13 20.9 88.4 21.12 87.44 21.12C86.82 21.12 86.28 21.03 85.81 20.85C85.36 20.65 84.99 20.37 84.71 20.02ZM99.51 20.02C99.22 19.67 99.04 19.26 98.96 18.79L95.83 19.67C96.01 20.55 96.41 21.32 97.01 21.97C97.61 22.6 98.36 23.09 99.28 23.42C100.21 23.75 101.25 23.92 102.38 23.92C103.76 23.92 104.91 23.69 105.83 23.22C106.75 22.75 107.43 22.13 107.88 21.35Q108.09 21 108.23 20.63Q108.58 19.74 108.58 18.72C108.58 17.8 108.4 17.04 108.03 16.45Q107.78 16.02 107.45 15.66Q107.09 15.27 106.63 14.97C106.05 14.57 105.41 14.25 104.71 14Q103.66 13.6 102.61 13.3C102.02 13.11 101.5 12.93 101.03 12.75C100.56 12.55 100.19 12.31 99.91 12.05Q99.8 11.94 99.72 11.82Q99.48 11.45 99.48 10.92Q99.48 10.56 99.6 10.25Q99.7 10.02 99.86 9.82C100.11 9.5 100.44 9.26 100.86 9.1C101.27 8.93 101.73 8.85 102.23 8.87C102.7 8.87 103.13 8.95 103.53 9.12C103.93 9.27 104.27 9.48 104.56 9.75Q104.81 9.99 104.96 10.28Q105.06 10.48 105.11 10.7L108.23 9.85C107.96 9.03 107.55 8.35 106.98 7.8C106.43 7.23 105.75 6.8 104.93 6.52C104.11 6.22 103.2 6.07 102.18 6.07C100.98 6.07 99.92 6.26 99.01 6.65C98.09 7.03 97.36 7.6 96.83 8.35C96.31 9.1 96.06 10 96.06 11.07C96.06 11.92 96.21 12.63 96.51 13.2Q96.73 13.59 97.03 13.91Q97.36 14.27 97.78 14.55C98.31 14.9 98.91 15.19 99.56 15.42C100.21 15.65 100.86 15.87 101.53 16.07C102.25 16.29 102.87 16.51 103.41 16.75C103.96 16.98 104.38 17.26 104.68 17.6C104.98 17.93 105.13 18.35 105.13 18.85C105.13 19.48 104.89 20.02 104.41 20.47C103.92 20.9 103.2 21.12 102.23 21.12C101.61 21.12 101.07 21.03 100.61 20.85C100.16 20.65 99.79 20.37 99.51 20.02ZM155.5 23.27C156.55 23.7 157.69 23.92 158.93 23.92C160.14 23.92 161.27 23.7 162.3 23.27C163.35 22.84 164.26 22.23 165.03 21.45C165.81 20.65 166.42 19.7 166.85 18.62C167.28 17.52 167.5 16.31 167.5 15C167.5 13.68 167.28 12.48 166.85 11.4C166.42 10.3 165.81 9.35 165.03 8.57Q164.62 8.14 164.16 7.79Q163.32 7.14 162.3 6.72C161.27 6.29 160.14 6.07 158.93 6.07C157.69 6.07 156.55 6.29 155.5 6.72C154.45 7.15 153.53 7.77 152.75 8.57C151.97 9.35 151.36 10.3 150.93 11.4C150.51 12.48 150.3 13.68 150.3 15C150.3 16.31 150.51 17.52 150.93 18.62C151.36 19.7 151.97 20.65 152.75 21.45C153.53 22.23 154.45 22.84 155.5 23.27ZM187.75 23.27C188.8 23.7 189.94 23.92 191.18 23.92C192.39 23.92 193.52 23.7 194.55 23.27C195.6 22.84 196.51 22.23 197.28 21.45C198.06 20.65 198.67 19.7 199.1 18.62C199.54 17.52 199.75 16.31 199.75 15C199.75 13.68 199.54 12.48 199.1 11.4C198.67 10.3 198.06 9.35 197.28 8.57C196.51 7.77 195.6 7.15 194.55 6.72C193.52 6.29 192.39 6.07 191.18 6.07C189.94 6.07 188.8 6.29 187.75 6.72C186.7 7.15 185.79 7.77 185 8.57C184.22 9.35 183.61 10.3 183.18 11.4C182.76 12.48 182.55 13.68 182.55 15C182.55 16.31 182.76 17.52 183.18 18.62C183.61 19.7 184.22 20.65 185 21.45C185.79 22.23 186.7 22.84 187.75 23.27ZM214.41 8.45C215.53 9.13 216.39 10.11 216.99 11.4L218.31 10.9C217.86 9.89 217.25 9.04 216.49 8.32C215.74 7.59 214.86 7.03 213.86 6.65C212.86 6.26 211.78 6.07 210.61 6.07C209.38 6.07 208.24 6.29 207.19 6.72C206.14 7.15 205.22 7.77 204.44 8.57C203.65 9.35 203.04 10.3 202.61 11.4C202.19 12.48 201.99 13.68 201.99 15C201.99 16.31 202.19 17.52 202.61 18.62C203.04 19.7 203.65 20.65 204.44 21.45C205.22 22.23 206.14 22.84 207.19 23.27C208.24 23.7 209.38 23.92 210.61 23.92C211.91 23.92 213.11 23.67 214.21 23.17C215.31 22.67 216.24 21.98 217.01 21.1C217.79 20.2 218.37 19.17 218.74 18.02L218.74 14.52L210.71 14.52L210.71 15.77L217.21 15.77L217.21 17.92C216.88 18.89 216.39 19.72 215.74 20.42Q215.4 20.79 215.01 21.09Q214.31 21.64 213.46 22C212.58 22.36 211.63 22.55 210.61 22.55C209.28 22.55 208.07 22.25 206.99 21.65C205.92 21.03 205.07 20.15 204.44 19.02Q203.51 17.32 203.51 15Q203.51 12.65 204.44 10.97C205.07 9.84 205.92 8.96 206.99 8.35C208.07 7.73 209.28 7.42 210.61 7.42C212.04 7.42 213.31 7.76 214.41 8.45ZM78.82 13.6C79.05 12.95 79.17 12.3 79.17 11.65Q79.17 10.77 78.92 9.98Q78.75 9.46 78.47 8.97C78.02 8.14 77.33 7.48 76.4 7C75.48 6.5 74.31 6.25 72.9 6.25L65.69 6.25L65.69 23.75L69.07 23.75L69.07 17.07L72.9 17.07Q74.6 17.07 75.77 16.6C76.57 16.28 77.22 15.86 77.72 15.35Q78.46 14.56 78.81 13.62Q78.82 13.61 78.82 13.6ZM120.23 6.25L118.71 6.25L118.71 17.22C118.71 18.77 119.01 20.04 119.61 21.02C120.21 22 121 22.74 121.98 23.22C122.97 23.69 124.05 23.92 125.23 23.92C126.12 23.92 126.95 23.79 127.73 23.52Q128.55 23.24 129.23 22.77Q129.53 22.57 129.81 22.32C130.41 21.77 130.87 21.08 131.21 20.25C131.56 19.4 131.73 18.39 131.73 17.22L131.73 6.25L130.21 6.25L130.21 17.25Q130.21 19.15 129.53 20.35Q129.08 21.16 128.41 21.67Q128.11 21.9 127.76 22.07C127.02 22.42 126.19 22.6 125.26 22.6C124.32 22.6 123.47 22.42 122.71 22.07C121.96 21.7 121.36 21.13 120.91 20.35C120.46 19.54 120.23 18.51 120.23 17.25L120.23 6.25ZM145.22 6.92C144.37 6.47 143.25 6.25 141.87 6.25L136.04 6.25L136.04 23.75L137.57 23.75L137.57 16.45L141.89 16.45L146.34 23.75L148.07 23.75L143.47 16.32Q144.03 16.22 144.52 16.04C145.25 15.78 145.86 15.42 146.34 14.97C146.83 14.5 147.19 13.96 147.42 13.35Q147.77 12.42 147.77 11.35C147.77 10.38 147.56 9.51 147.14 8.75C146.73 7.98 146.09 7.37 145.22 6.92ZM172.33 22.42L172.33 6.25L170.81 6.25L170.81 23.75L180.68 23.75L180.68 22.42L172.33 22.42ZM234.98 6.25L233.33 6.25L227.9 15.37L222.48 6.25L220.78 6.25L227.13 16.82L227.13 23.75L228.65 23.75L228.65 16.82L234.98 6.25ZM162.48 21.67C161.43 22.29 160.24 22.6 158.93 22.6C157.59 22.6 156.39 22.29 155.33 21.67C154.26 21.05 153.41 20.18 152.78 19.04C152.16 17.91 151.85 16.56 151.85 15C151.85 13.43 152.16 12.08 152.78 10.95C153.41 9.8 154.26 8.92 155.33 8.32C156.39 7.7 157.59 7.4 158.93 7.4Q160.46 7.4 161.76 7.95Q162.13 8.11 162.48 8.32C163.54 8.92 164.38 9.8 165 10.95C165.63 12.08 165.95 13.43 165.95 15C165.95 16.56 165.63 17.91 165 19.04C164.38 20.18 163.54 21.05 162.48 21.67ZM194.73 21.67C193.68 22.29 192.49 22.6 191.18 22.6C189.84 22.6 188.64 22.29 187.58 21.67C186.51 21.05 185.66 20.18 185.03 19.04C184.41 17.91 184.1 16.56 184.1 15C184.1 13.43 184.41 12.08 185.03 10.95C185.66 9.8 186.51 8.92 187.58 8.32C188.64 7.7 189.84 7.4 191.18 7.4Q192.71 7.4 194.01 7.95Q194.38 8.11 194.73 8.32C195.79 8.92 196.64 9.8 197.25 10.95Q198.2 12.65 198.2 15Q198.2 17.35 197.25 19.04C196.64 20.18 195.79 21.05 194.73 21.67ZM145.22 8.6C145.89 9.28 146.22 10.2 146.22 11.35C146.22 12.08 146.07 12.73 145.77 13.3C145.47 13.86 145 14.3 144.37 14.62C143.74 14.94 142.92 15.1 141.92 15.1L137.57 15.1L137.57 7.57L141.87 7.57C143.44 7.57 144.55 7.91 145.22 8.6ZM74.44 13.95C74.01 14.15 73.46 14.25 72.8 14.25L69.07 14.25L69.07 9.07L72.8 9.07C73.8 9.07 74.53 9.3 75 9.75Q75.13 9.87 75.24 10.02Q75.72 10.65 75.72 11.65Q75.72 12.45 75.4 13.05Q75.33 13.17 75.25 13.27Q74.96 13.69 74.44 13.95Z" fill="#232323" fill-opacity="1.000000" fill-rule="evenodd"/>
	<circle id="Ellipse 21" cx="24.500000" cy="24.500000" r="24.500000" fill="#3D599D" fill-opacity="1.000000"/>
	<path id="Ellipse 23" d="M24.87 32.72C24.87 34.98 21.67 38.44 17.71 38.44C13.76 38.44 10.55 34.98 10.55 32.72C10.55 30.47 13.76 28.64 17.71 28.64C21.67 28.64 24.87 30.47 24.87 32.72Z" fill="#97D5FA" fill-opacity="1.000000" fill-rule="nonzero"/>
	<path id="Intersect" d="M46.7119 14.1479C47.3127 15.4351 47.8051 16.7832 48.177 18.1802L32.4156 26.3848L21.8618 33.1689C20.7395 34.0669 19.165 34.1353 17.9691 33.3379L17.7157 33.1689L20.3541 30.5308C23.1068 27.7778 26.2025 25.3916 29.5651 23.4302L38.0696 18.4692L46.7119 14.1479ZM38.0825 4.10645C39.3016 4.91992 40.4438 5.84033 41.4955 6.85352L15.4824 18.4146C13.9978 19.0747 13.3082 20.7964 13.9268 22.2983L18.0925 32.4155C16.6688 33.1274 14.9932 33.127 13.5695 32.4155L9.7041 22.4302C9.26941 21.3066 9.04639 20.1128 9.04639 18.9087C9.04639 17.9121 9.48193 16.9653 10.2386 16.3164C11.1968 15.4951 12.2784 14.8301 13.4438 14.3457L38.0825 4.10645Z" clip-rule="evenodd" fill="#FFFFFF" fill-opacity="1.000000" fill-rule="evenodd"/>
</svg>
