<svg width="60.000000" height="32.000000" viewBox="0 0 60 32" fill="none" xmlns="http://www.w3.org/2000/svg" xmlns:xlink="http://www.w3.org/1999/xlink">
	
	<defs/>
	<path id="Vector" d="M0.39 14.97L14.03 0.5C14.52 -0.11 15.38 -0.18 15.95 0.34C16.52 0.86 16.59 1.78 16.1 2.38C16.05 2.44 16 2.49 15.95 2.54L4.65 14.56L58.63 14.56C59.38 14.56 60 15.2 60 16C60 16.8 59.38 17.45 58.63 17.45L4.65 17.45L15.95 29.45C16.52 29.97 16.59 30.88 16.1 31.49C15.61 32.1 14.75 32.17 14.18 31.65C14.12 31.6 14.07 31.55 14.03 31.49L0.39 17.02C-0.14 16.45 -0.14 15.54 0.39 14.97Z" fill="#678CB6" fill-opacity="1.000000" fill-rule="nonzero"/>
</svg>
