<svg width="60.000000" height="32.000000" viewBox="0 0 60 32" fill="none" xmlns="http://www.w3.org/2000/svg" xmlns:xlink="http://www.w3.org/1999/xlink">
	
	<defs/>
	<path id="Vector" d="M59.6 14.97L45.96 0.5C45.47 -0.11 44.61 -0.18 44.04 0.34C43.47 0.86 43.4 1.78 43.89 2.38C43.94 2.44 43.99 2.49 44.04 2.54L55.34 14.56L1.36 14.56C0.61 14.56 0 15.2 0 16C0 16.8 0.61 17.45 1.36 17.45L55.34 17.45L44.04 29.45C43.47 29.97 43.4 30.88 43.89 31.49C44.38 32.1 45.24 32.17 45.81 31.65C45.87 31.6 45.92 31.55 45.96 31.49L59.6 17.02C60.13 16.45 60.13 15.54 59.6 14.97Z" fill="#678CB6" fill-opacity="1.000000" fill-rule="nonzero"/>
</svg>
