<svg width="74.000000" height="74.000000" viewBox="0 0 74 74" fill="none" xmlns="http://www.w3.org/2000/svg" xmlns:xlink="http://www.w3.org/1999/xlink">
	
	<defs>
		<clipPath id="clip262_392">
			<rect id="fi_7060676" rx="0.000000" width="73.000000" height="73.000000" transform="translate(0.500000 0.500000)" fill="white" fill-opacity="0"/>
		</clipPath>
	</defs>
	<rect id="fi_7060676" rx="0.000000" width="73.000000" height="73.000000" transform="translate(0.500000 0.500000)" fill="#FFFFFF" fill-opacity="0"/>
	<g clip-path="url(#clip262_392)">
		<path id="Vector" d="M12.71 48.56C10.2 48.56 7.74 49.3 5.65 50.7C3.56 52.1 1.93 54.08 0.96 56.41C0 58.73 -0.25 61.29 0.24 63.76C0.73 66.23 1.94 68.49 3.72 70.27C5.5 72.05 7.77 73.26 10.23 73.75C12.7 74.24 15.26 73.99 17.58 73.03C19.91 72.06 21.89 70.43 23.29 68.34C24.69 66.25 25.43 63.79 25.43 61.28C25.43 57.9 24.09 54.67 21.7 52.29C19.32 49.9 16.09 48.56 12.71 48.56ZM12.71 71.68C10.66 71.68 8.64 71.07 6.93 69.93C5.22 68.79 3.89 67.16 3.1 65.26C2.31 63.36 2.11 61.26 2.51 59.25C2.91 57.23 3.9 55.37 5.36 53.92C6.81 52.46 8.66 51.47 10.68 51.07C12.7 50.67 14.79 50.87 16.7 51.66C18.6 52.45 20.22 53.78 21.37 55.5C22.51 57.21 23.12 59.22 23.12 61.28C23.12 64.04 22.02 66.68 20.07 68.63C18.12 70.58 15.47 71.68 12.71 71.68Z" fill="#000000" fill-opacity="1.000000" fill-rule="nonzero"/>
		<path id="Vector" d="M63.63 10.35C63.7 10.48 63.8 10.6 63.92 10.7C64.03 10.79 64.17 10.87 64.31 10.91C64.46 10.96 64.61 10.97 64.76 10.96C64.91 10.94 65.06 10.9 65.19 10.82L73.18 6.56C73.45 6.42 73.65 6.17 73.74 5.88C73.83 5.58 73.8 5.27 73.65 5C73.51 4.73 73.26 4.53 72.97 4.44C72.68 4.35 72.36 4.38 72.09 4.52L64.1 8.79C63.97 8.86 63.85 8.95 63.76 9.07C63.66 9.19 63.59 9.32 63.54 9.47C63.5 9.61 63.48 9.77 63.5 9.92C63.51 10.07 63.56 10.22 63.63 10.35Z" fill="#000000" fill-opacity="1.000000" fill-rule="nonzero"/>
		<path id="Vector" d="M62.52 6.97C62.68 6.97 62.85 6.93 63 6.86C63.16 6.79 63.29 6.69 63.4 6.56L67.33 1.9C67.52 1.66 67.62 1.36 67.59 1.05C67.57 0.75 67.42 0.46 67.19 0.27C66.95 0.07 66.65 -0.03 66.34 0C66.04 0.03 65.75 0.17 65.56 0.41L61.63 5.07C61.49 5.24 61.4 5.44 61.37 5.66C61.34 5.88 61.38 6.1 61.47 6.3C61.56 6.5 61.71 6.67 61.9 6.79C62.08 6.91 62.3 6.97 62.52 6.97Z" fill="#000000" fill-opacity="1.000000" fill-rule="nonzero"/>
		<path id="Vector" d="M72.71 11.98L66.65 12.65C66.36 12.68 66.09 12.82 65.9 13.05C65.71 13.28 65.61 13.57 65.63 13.86C65.64 14.16 65.77 14.43 65.99 14.64C66.2 14.84 66.49 14.95 66.78 14.95C66.82 14.95 66.87 14.95 66.91 14.95L72.97 14.28C73.12 14.26 73.26 14.22 73.4 14.14C73.53 14.07 73.65 13.97 73.74 13.85C73.84 13.73 73.91 13.6 73.95 13.45C74 13.3 74.01 13.15 73.99 13C73.97 12.85 73.93 12.7 73.85 12.57C73.78 12.44 73.68 12.32 73.56 12.22C73.44 12.13 73.31 12.06 73.16 12.02C73.02 11.97 72.86 11.96 72.71 11.98Z" fill="#000000" fill-opacity="1.000000" fill-rule="nonzero"/>
		<path id="Vector" d="M66.16 22.91C65.88 23.03 65.66 23.26 65.55 23.55C65.44 23.83 65.45 24.15 65.57 24.43C67.33 28.39 68.23 32.67 68.21 37C68.2 45.27 64.91 53.21 59.06 59.06C53.21 64.91 45.27 68.2 37 68.21C33.88 68.22 30.79 67.75 27.81 66.83C27.67 66.79 27.51 66.77 27.36 66.78C27.21 66.8 27.06 66.84 26.93 66.91C26.79 66.98 26.68 67.08 26.58 67.2C26.48 67.31 26.41 67.45 26.36 67.59C26.32 67.74 26.3 67.89 26.32 68.04C26.33 68.19 26.37 68.34 26.44 68.47C26.51 68.61 26.61 68.73 26.73 68.82C26.84 68.92 26.98 69 27.12 69.04C32.14 70.59 37.45 70.93 42.62 70.05C47.8 69.17 52.69 67.09 56.91 63.97C61.13 60.85 64.57 56.79 66.93 52.1C69.29 47.42 70.53 42.24 70.53 37C70.54 32.35 69.57 27.75 67.69 23.5C67.63 23.36 67.54 23.23 67.43 23.13C67.32 23.02 67.19 22.94 67.05 22.88C66.9 22.83 66.75 22.8 66.6 22.81C66.45 22.81 66.3 22.85 66.16 22.91Z" fill="#000000" fill-opacity="1.000000" fill-rule="nonzero"/>
		<path id="Vector" d="M37 60.12C34.35 60.12 31.72 59.67 29.23 58.79C28.94 58.68 28.62 58.7 28.35 58.83C28.07 58.97 27.86 59.2 27.75 59.49C27.65 59.78 27.67 60.1 27.8 60.37C27.93 60.65 28.17 60.86 28.46 60.97C32.3 62.33 36.41 62.75 40.44 62.19C44.48 61.64 48.32 60.12 51.65 57.78C54.98 55.43 57.7 52.31 59.57 48.7C61.45 45.08 62.43 41.07 62.43 37C62.43 34.82 62.16 32.66 61.6 30.56C61.55 30.28 61.39 30.03 61.16 29.85C60.93 29.68 60.64 29.6 60.35 29.63C60.07 29.66 59.8 29.79 59.61 30.01C59.42 30.22 59.31 30.5 59.31 30.79C59.31 30.89 59.32 30.99 59.35 31.08C59.86 33.01 60.12 35 60.12 37C60.11 43.13 57.67 49 53.34 53.34C49 57.67 43.13 60.11 37 60.12Z" fill="#000000" fill-opacity="1.000000" fill-rule="nonzero"/>
		<path id="Vector" d="M4.96 12.37C5.07 12.48 5.19 12.57 5.33 12.63C5.47 12.68 5.62 12.71 5.78 12.71L11.08 12.71L12.5 14.13C8.47 18.44 5.65 23.74 4.32 29.48C2.99 35.23 3.21 41.23 4.95 46.87C5.02 47.1 5.17 47.31 5.37 47.45C5.57 47.6 5.81 47.68 6.05 47.68C6.17 47.68 6.29 47.66 6.4 47.63C6.69 47.54 6.93 47.33 7.08 47.06C7.22 46.79 7.25 46.47 7.16 46.18C5.54 40.94 5.34 35.38 6.56 30.04C7.79 24.7 10.4 19.78 14.13 15.77L18.22 19.85C15.11 23.26 12.98 27.45 12.06 31.97C11.15 36.5 11.48 41.18 13.02 45.53C13.13 45.82 13.34 46.06 13.62 46.19C13.89 46.32 14.21 46.34 14.5 46.24C14.79 46.13 15.02 45.92 15.16 45.64C15.29 45.37 15.3 45.05 15.2 44.76C13.8 40.82 13.5 36.58 14.32 32.49C15.14 28.39 17.06 24.6 19.87 21.51L23.93 25.56C22.08 27.67 20.78 30.2 20.12 32.93C19.46 35.65 19.48 38.5 20.16 41.22C20.84 43.94 22.18 46.45 24.04 48.54C25.91 50.63 28.26 52.24 30.88 53.23C33.51 54.22 36.33 54.55 39.12 54.21C41.9 53.86 44.56 52.85 46.86 51.25C49.17 49.66 51.05 47.53 52.35 45.04C53.66 42.56 54.34 39.8 54.34 37C54.34 36.82 54.34 36.66 54.32 36.48C54.29 36.18 54.15 35.9 53.92 35.7C53.68 35.5 53.38 35.41 53.08 35.43C52.77 35.45 52.49 35.6 52.29 35.83C52.09 36.06 51.99 36.37 52.02 36.67C52.03 36.78 52.03 36.89 52.03 37C52.02 39.42 51.43 41.8 50.31 43.94C49.18 46.09 47.56 47.93 45.57 49.31C43.58 50.69 41.29 51.57 38.89 51.87C36.49 52.18 34.05 51.9 31.78 51.06C29.51 50.22 27.47 48.84 25.85 47.05C24.23 45.25 23.06 43.09 22.45 40.75C21.84 38.41 21.8 35.95 22.35 33.59C22.89 31.23 23.99 29.04 25.57 27.2L29.7 31.33C28.25 33.2 27.56 35.54 27.79 37.89C28.01 40.25 29.12 42.42 30.89 43.99C32.66 45.55 34.96 46.38 37.32 46.3C39.68 46.23 41.92 45.26 43.59 43.59C45.26 41.92 46.23 39.68 46.3 37.32C46.38 34.96 45.55 32.66 43.99 30.89C42.42 29.12 40.25 28.01 37.89 27.79C35.54 27.56 33.2 28.25 31.33 29.7L27.21 25.57C29.31 23.77 31.87 22.59 34.6 22.16C34.75 22.13 34.89 22.08 35.02 22C35.15 21.92 35.26 21.82 35.35 21.69C35.44 21.57 35.51 21.43 35.54 21.28C35.58 21.14 35.58 20.98 35.56 20.83C35.53 20.68 35.48 20.54 35.4 20.41C35.32 20.28 35.22 20.17 35.09 20.08C34.97 19.99 34.83 19.93 34.68 19.89C34.54 19.85 34.38 19.85 34.23 19.87C31.02 20.39 28.02 21.79 25.57 23.93L21.51 19.87C25.74 16.01 31.27 13.87 36.99 13.87C37.17 13.87 37.34 13.87 37.52 13.89C37.67 13.9 37.82 13.89 37.97 13.85C38.11 13.8 38.25 13.73 38.37 13.64C38.48 13.54 38.58 13.43 38.66 13.29C38.73 13.16 38.77 13.01 38.79 12.86C38.81 12.71 38.79 12.56 38.75 12.41C38.71 12.27 38.64 12.13 38.54 12.01C38.45 11.89 38.33 11.8 38.2 11.72C38.06 11.65 37.92 11.6 37.77 11.59C37.51 11.56 37.25 11.55 36.99 11.56C30.65 11.55 24.53 13.93 19.85 18.22L15.77 14.13C19.69 10.48 24.48 7.9 29.69 6.65C34.89 5.39 40.34 5.5 45.49 6.96C45.63 7 45.79 7.01 45.94 7C46.09 6.98 46.24 6.93 46.37 6.86C46.5 6.78 46.62 6.68 46.71 6.57C46.81 6.45 46.88 6.31 46.92 6.16C46.96 6.02 46.97 5.86 46.96 5.71C46.94 5.56 46.89 5.42 46.82 5.28C46.74 5.15 46.64 5.03 46.53 4.94C46.41 4.84 46.27 4.77 46.12 4.73C40.57 3.16 34.71 3.05 29.11 4.41C23.5 5.77 18.34 8.56 14.13 12.5L12.71 11.08L12.71 5.78C12.71 5.62 12.68 5.47 12.63 5.33C12.57 5.19 12.48 5.07 12.37 4.96L7.75 0.33C7.59 0.17 7.38 0.06 7.16 0.02C6.93 -0.03 6.7 0 6.49 0.08C6.28 0.17 6.1 0.32 5.97 0.51C5.84 0.7 5.78 0.92 5.78 1.15L5.78 5.78L1.15 5.78C0.92 5.78 0.7 5.84 0.51 5.97C0.32 6.1 0.17 6.28 0.08 6.49C0 6.7 -0.03 6.93 0.02 7.16C0.06 7.38 0.17 7.59 0.33 7.75L4.96 12.37ZM31.35 32.98L36.18 37.81C36.39 38.03 36.69 38.14 36.99 38.14C37.3 38.14 37.59 38.02 37.81 37.81C38.02 37.59 38.14 37.3 38.14 36.99C38.15 36.69 38.03 36.39 37.81 36.18L32.98 31.35C34.4 30.33 36.15 29.89 37.89 30.11C39.62 30.33 41.2 31.19 42.33 32.52C43.46 33.86 44.04 35.56 43.97 37.31C43.9 39.05 43.17 40.7 41.94 41.94C40.7 43.17 39.05 43.9 37.31 43.97C35.56 44.04 33.86 43.46 32.52 42.33C31.19 41.2 30.33 39.62 30.11 37.89C29.89 36.15 30.33 34.4 31.35 32.98ZM6.93 8.09C7.08 8.09 7.23 8.06 7.38 8C7.52 7.94 7.64 7.86 7.75 7.75C7.86 7.64 7.94 7.52 8 7.37C8.06 7.23 8.09 7.08 8.09 6.93L8.09 3.94L10.4 6.25L10.4 10.4L6.25 10.4L3.94 8.09L6.93 8.09Z" fill="#000000" fill-opacity="1.000000" fill-rule="nonzero"/>
		<path id="Vector" d="M18.16 55.83C18.05 55.73 17.92 55.64 17.78 55.58C17.64 55.52 17.49 55.5 17.34 55.5C17.19 55.5 17.04 55.52 16.9 55.58C16.76 55.64 16.63 55.73 16.52 55.83L7.27 65.08C7.16 65.19 7.08 65.32 7.02 65.46C6.96 65.6 6.93 65.75 6.93 65.9C6.93 66.06 6.96 66.21 7.01 66.35C7.07 66.49 7.16 66.62 7.27 66.72C7.37 66.83 7.5 66.92 7.64 66.98C7.78 67.03 7.93 67.06 8.09 67.06C8.24 67.06 8.39 67.03 8.53 66.97C8.67 66.91 8.8 66.83 8.91 66.72L18.16 57.47C18.26 57.36 18.35 57.23 18.41 57.09C18.46 56.95 18.49 56.8 18.49 56.65C18.49 56.5 18.46 56.35 18.41 56.21C18.35 56.07 18.26 55.94 18.16 55.83Z" fill="#000000" fill-opacity="1.000000" fill-rule="nonzero"/>
		<path id="Vector" d="M16.76 62.43C16.19 62.43 15.63 62.6 15.15 62.92C14.68 63.24 14.31 63.69 14.09 64.22C13.87 64.75 13.81 65.33 13.93 65.89C14.04 66.45 14.31 66.96 14.72 67.37C15.12 67.77 15.64 68.05 16.2 68.16C16.76 68.27 17.34 68.21 17.87 67.99C18.4 67.77 18.85 67.4 19.16 66.93C19.48 66.45 19.65 65.89 19.65 65.32C19.65 64.56 19.35 63.82 18.8 63.28C18.26 62.74 17.53 62.43 16.76 62.43ZM16.76 65.9C16.65 65.9 16.53 65.87 16.44 65.8C16.34 65.74 16.27 65.65 16.23 65.54C16.18 65.44 16.17 65.32 16.19 65.21C16.22 65.1 16.27 65 16.35 64.91C16.43 64.83 16.54 64.78 16.65 64.76C16.76 64.73 16.88 64.75 16.98 64.79C17.09 64.83 17.18 64.91 17.24 65C17.3 65.1 17.34 65.21 17.34 65.32C17.34 65.48 17.28 65.62 17.17 65.73C17.06 65.84 16.91 65.9 16.76 65.9Z" fill="#000000" fill-opacity="1.000000" fill-rule="nonzero"/>
		<path id="Vector" d="M11.56 57.23C11.56 56.66 11.39 56.1 11.07 55.62C10.75 55.15 10.3 54.78 9.77 54.56C9.24 54.34 8.66 54.28 8.1 54.39C7.54 54.51 7.03 54.78 6.62 55.19C6.22 55.59 5.94 56.1 5.83 56.67C5.72 57.23 5.78 57.81 6 58.34C6.22 58.86 6.59 59.32 7.06 59.63C7.54 59.95 8.1 60.12 8.67 60.12C9.43 60.12 10.17 59.81 10.71 59.27C11.25 58.73 11.56 58 11.56 57.23ZM8.09 57.23C8.09 57.12 8.12 57 8.19 56.91C8.25 56.81 8.34 56.74 8.45 56.7C8.55 56.65 8.67 56.64 8.78 56.66C8.89 56.68 8.99 56.74 9.08 56.82C9.16 56.9 9.21 57 9.23 57.12C9.26 57.23 9.24 57.35 9.2 57.45C9.16 57.56 9.08 57.65 8.99 57.71C8.89 57.77 8.78 57.81 8.67 57.81C8.51 57.81 8.37 57.75 8.26 57.64C8.15 57.53 8.09 57.38 8.09 57.23Z" fill="#000000" fill-opacity="1.000000" fill-rule="nonzero"/>
		<path id="Vector" d="M38.68 23.68C39.29 24.81 40.19 25.75 41.29 26.41C42.39 27.06 43.64 27.41 44.93 27.41C45.07 27.41 45.23 27.4 45.38 27.39L51.84 32.45C52.51 32.98 53.37 33.22 54.22 33.12C55.07 33.01 55.84 32.58 56.37 31.9C56.89 31.23 57.13 30.37 57.03 29.53C56.93 28.68 56.49 27.9 55.82 27.37L52.8 25.01C54.89 24.35 57.09 24.11 59.27 24.29C60.18 24.58 61.16 24.5 62.01 24.07C64.86 22.55 64.72 17.1 61.68 11.39C60.48 9.05 58.83 6.98 56.81 5.3C54.76 3.7 52.81 3.27 51.32 4.07C50.49 4.54 49.88 5.32 49.61 6.24C48.46 9.12 43.73 12.7 41.02 14.46C39.55 15.43 38.5 16.91 38.07 18.62C37.64 20.32 37.85 22.13 38.68 23.68ZM54.39 29.19C54.51 29.29 54.61 29.41 54.67 29.55C54.73 29.69 54.75 29.84 54.74 29.99C54.73 30.15 54.68 30.29 54.59 30.42C54.51 30.55 54.39 30.65 54.26 30.72C54.1 30.8 53.93 30.84 53.75 30.83C53.57 30.81 53.4 30.74 53.27 30.63L48.17 26.64C48.86 26.35 49.52 26.09 50.14 25.87L54.39 29.19ZM52.41 6.11C53.23 5.67 54.65 6.55 55.38 7.12C57.15 8.6 58.6 10.43 59.64 12.48C62.23 17.34 62.13 21.39 60.92 22.03C59.7 22.68 56.29 20.52 53.69 15.66C52.56 13.65 51.85 11.43 51.6 9.14C51.49 7.6 51.8 6.43 52.41 6.11ZM49.46 10.48C49.85 12.67 50.59 14.79 51.65 16.75C52.67 18.72 54.01 20.52 55.61 22.06C53.37 22.41 51.18 22.99 49.06 23.8L44.35 14.98C46.21 13.66 47.92 12.16 49.46 10.48ZM42.28 16.4C42.33 16.37 42.38 16.33 42.43 16.3L46.9 24.66C46.84 24.68 46.78 24.7 46.73 24.73C45.64 25.18 44.42 25.22 43.31 24.82C42.2 24.42 41.27 23.63 40.72 22.59C40.16 21.55 40.01 20.34 40.3 19.19C40.59 18.05 41.29 17.06 42.28 16.4Z" fill="#000000" fill-opacity="1.000000" fill-rule="nonzero"/>
	</g>
</svg>
