<svg width="77.000000" height="77.000000" viewBox="0 0 77 77" fill="none" xmlns="http://www.w3.org/2000/svg" xmlns:xlink="http://www.w3.org/1999/xlink">
	
	<defs>
		<clipPath id="clip262_462">
			<rect id="fi_2316257" rx="0.000000" width="76.000000" height="76.000000" transform="translate(0.500000 0.500000)" fill="white" fill-opacity="0"/>
		</clipPath>
	</defs>
	<rect id="fi_2316257" rx="0.000000" width="76.000000" height="76.000000" transform="translate(0.500000 0.500000)" fill="#FFFFFF" fill-opacity="0"/>
	<g clip-path="url(#clip262_462)">
		<path id="Vector" d="M64.91 52.59C64.84 52.34 64.69 52.12 64.48 51.97C64.27 51.81 64.02 51.73 63.76 51.73L58.64 51.73L55.29 40.56C55.21 40.31 55.06 40.09 54.85 39.94C54.65 39.78 54.39 39.7 54.14 39.7L49.02 39.7L45.66 28.52C45.59 28.28 45.44 28.06 45.23 27.9C45.02 27.75 44.77 27.67 44.51 27.67L32.48 27.67C32.22 27.67 31.97 27.75 31.76 27.9C31.55 28.06 31.4 28.28 31.33 28.52L27.97 39.7L22.85 39.7C22.6 39.7 22.34 39.78 22.14 39.94C21.93 40.09 21.78 40.31 21.7 40.56L18.35 51.73L13.23 51.73C12.97 51.73 12.72 51.81 12.51 51.97C12.3 52.12 12.15 52.34 12.08 52.59L8.47 64.62C8.41 64.8 8.4 64.99 8.43 65.17C8.47 65.36 8.54 65.53 8.65 65.68C8.77 65.83 8.91 65.96 9.08 66.04C9.25 66.12 9.43 66.17 9.62 66.17L67.37 66.17C67.56 66.17 67.74 66.12 67.91 66.04C68.08 65.96 68.22 65.83 68.34 65.68C68.45 65.53 68.52 65.36 68.56 65.17C68.59 64.99 68.58 64.8 68.52 64.62L64.91 52.59ZM56.13 51.73L40.11 51.73L43 42.1L53.24 42.1L56.13 51.73ZM48.12 60.78L46.13 54.14L50.11 54.14L48.12 60.78ZM38.5 48.75L36.5 42.1L40.49 42.1L38.5 48.75ZM33.37 30.07L43.62 30.07L46.5 39.7L30.49 39.7L33.37 30.07ZM23.75 42.1L33.99 42.1L36.88 51.73L20.86 51.73L23.75 42.1ZM28.87 60.78L26.88 54.14L30.86 54.14L28.87 60.78ZM11.24 63.76L14.12 54.14L24.37 54.14L27.25 63.76L11.24 63.76ZM30.49 63.76L33.37 54.14L43.62 54.14L46.5 63.76L30.49 63.76ZM49.74 63.76L52.62 54.14L62.87 54.14L65.75 63.76L49.74 63.76Z" fill="#000000" fill-opacity="1.000000" fill-rule="nonzero"/>
		<path id="Vector" d="M38.5 21.65C38.81 21.65 39.12 21.52 39.35 21.3C39.57 21.07 39.7 20.77 39.7 20.45L39.7 12.03C39.7 11.71 39.57 11.4 39.35 11.18C39.12 10.95 38.81 10.82 38.5 10.82C38.18 10.82 37.87 10.95 37.64 11.18C37.42 11.4 37.29 11.71 37.29 12.03L37.29 20.45C37.29 20.77 37.42 21.07 37.64 21.3C37.87 21.52 38.18 21.65 38.5 21.65Z" fill="#000000" fill-opacity="1.000000" fill-rule="nonzero"/>
		<path id="Vector" d="M20.8 27.31C21.03 27.53 21.33 27.65 21.65 27.65C21.96 27.65 22.26 27.52 22.49 27.3C22.71 27.08 22.84 26.77 22.84 26.46C22.84 26.14 22.72 25.84 22.5 25.61L16.49 19.6C16.26 19.38 15.96 19.26 15.64 19.26C15.32 19.26 15.02 19.39 14.8 19.61C14.58 19.84 14.45 20.14 14.45 20.45C14.44 20.77 14.57 21.07 14.79 21.3L20.8 27.31Z" fill="#000000" fill-opacity="1.000000" fill-rule="nonzero"/>
		<path id="Vector" d="M16.84 43.31C16.84 42.99 16.71 42.68 16.49 42.46C16.26 42.23 15.95 42.1 15.64 42.1L7.21 42.1C6.89 42.1 6.59 42.23 6.36 42.46C6.14 42.68 6.01 42.99 6.01 43.31C6.01 43.63 6.14 43.93 6.36 44.16C6.59 44.38 6.89 44.51 7.21 44.51L15.64 44.51C15.95 44.51 16.26 44.38 16.49 44.16C16.71 43.93 16.84 43.63 16.84 43.31Z" fill="#000000" fill-opacity="1.000000" fill-rule="nonzero"/>
		<path id="Vector" d="M56.19 27.31L62.21 21.3C62.42 21.07 62.55 20.77 62.54 20.45C62.54 20.14 62.41 19.84 62.19 19.61C61.97 19.39 61.67 19.26 61.35 19.26C61.03 19.26 60.73 19.38 60.5 19.6L54.49 25.61C54.27 25.84 54.15 26.14 54.15 26.46C54.15 26.77 54.28 27.08 54.5 27.3C54.73 27.52 55.03 27.65 55.34 27.65C55.66 27.65 55.96 27.53 56.19 27.31Z" fill="#000000" fill-opacity="1.000000" fill-rule="nonzero"/>
		<path id="Vector" d="M69.78 42.1L61.35 42.1C61.04 42.1 60.73 42.23 60.5 42.46C60.28 42.68 60.15 42.99 60.15 43.31C60.15 43.63 60.28 43.93 60.5 44.16C60.73 44.38 61.04 44.51 61.35 44.51L69.78 44.51C70.1 44.51 70.4 44.38 70.63 44.16C70.85 43.93 70.98 43.63 70.98 43.31C70.98 42.99 70.85 42.68 70.63 42.46C70.4 42.23 70.1 42.1 69.78 42.1Z" fill="#000000" fill-opacity="1.000000" fill-rule="nonzero"/>
	</g>
</svg>
