<svg width="74.000000" height="74.000000" viewBox="0 0 74 74" fill="none" xmlns="http://www.w3.org/2000/svg" xmlns:xlink="http://www.w3.org/1999/xlink">
	
	<defs>
		<clipPath id="clip386_322">
			<rect id="fi_576737" rx="0.000000" width="73.000000" height="73.000000" transform="translate(0.500000 0.500000)" fill="white" fill-opacity="0"/>
		</clipPath>
	</defs>
	<rect id="fi_576737" rx="0.000000" width="73.000000" height="73.000000" transform="translate(0.500000 0.500000)" fill="#FFFFFF" fill-opacity="0"/>
	<g clip-path="url(#clip386_322)">
		<path id="Vector" d="M54.9 19.09L54.9 9.54L35.8 9.54L35.8 0L0 0L0 54.9L19.09 54.9L19.09 64.45L38.19 64.45L38.19 74L74 74L74 19.09L54.9 19.09ZM54.9 26.25L66.83 26.25L66.83 42.96L54.9 42.96L54.9 26.25ZM35.8 35.87C36.2 35.83 36.6 35.8 37 35.8C42.92 35.8 47.74 40.62 47.74 46.54C47.74 52.47 42.92 57.29 37 57.29C35.5 57.29 34.05 56.98 32.72 56.4L35.8 54.34L35.8 35.87ZM2.38 52.51L2.38 2.38L33.41 2.38L33.41 52.51L2.38 52.51ZM21.48 54.9L30.67 54.9L21.48 61.02L21.48 54.9ZM24.23 62.06L30.45 57.91C32.43 59.06 34.66 59.67 37 59.67C44.23 59.67 50.12 53.78 50.12 46.54C50.12 39.3 44.23 33.41 37 33.41C36.6 33.41 36.2 33.44 35.8 33.47L35.8 26.25L45.35 26.25L45.35 23.87L35.8 23.87L35.8 21.48L50.12 21.48L50.12 19.09L35.8 19.09L35.8 16.7L50.12 16.7L50.12 14.32L35.8 14.32L35.8 11.93L52.51 11.93L52.51 62.06L24.23 62.06ZM40.58 64.45L49.76 64.45L40.58 70.57L40.58 64.45ZM71.61 71.61L43.32 71.61L54.9 63.89L54.9 59.67L69.22 59.67L69.22 57.29L54.9 57.29L54.9 54.9L69.22 54.9L69.22 52.51L54.9 52.51L54.9 50.12L69.22 50.12L69.22 47.74L54.9 47.74L54.9 45.35L69.22 45.35L69.22 23.87L54.9 23.87L54.9 21.48L71.61 21.48L71.61 71.61Z" fill="#000000" fill-opacity="1.000000" fill-rule="nonzero"/>
		<path id="Vector" d="M4.77 23.87L31.03 23.87L31.03 4.77L4.77 4.77L4.77 23.87ZM7.16 7.16L28.64 7.16L28.64 21.48L7.16 21.48L7.16 7.16Z" fill="#000000" fill-opacity="1.000000" fill-rule="nonzero"/>
		<path id="Vector" d="M4.77 26.25L31.03 26.25L31.03 28.64L4.77 28.64L4.77 26.25Z" fill="#000000" fill-opacity="1.000000" fill-rule="evenodd"/>
		<path id="Vector" d="M28.64 31.03L31.03 31.03L31.03 33.41L28.64 33.41L28.64 31.03Z" fill="#000000" fill-opacity="1.000000" fill-rule="evenodd"/>
		<path id="Vector" d="M4.77 31.03L26.25 31.03L26.25 33.41L4.77 33.41L4.77 31.03Z" fill="#000000" fill-opacity="1.000000" fill-rule="evenodd"/>
		<path id="Vector" d="M47.74 23.87L50.12 23.87L50.12 26.25L47.74 26.25L47.74 23.87Z" fill="#000000" fill-opacity="1.000000" fill-rule="evenodd"/>
		<path id="Vector" d="M66.83 62.06L69.22 62.06L69.22 64.45L66.83 64.45L66.83 62.06Z" fill="#000000" fill-opacity="1.000000" fill-rule="evenodd"/>
		<path id="Vector" d="M57.29 62.06L64.45 62.06L64.45 64.45L57.29 64.45L57.29 62.06Z" fill="#000000" fill-opacity="1.000000" fill-rule="evenodd"/>
	</g>
</svg>
