<svg width="40" height="40" xmlns="http://www.w3.org/2000/svg"><g id="Page-1" stroke="none" stroke-width="1" fill="none" fill-rule="evenodd"><g id="Home-Ten-" transform="translate(-378 -1050)"><g id="alpha-finance-lab-alpha-logo" transform="translate(378 1050)"><g id="Group-3" fill="#29B2FF"><path d="M20 0C8.96 0 0 8.96 0 20s8.96 20 20 20 20-8.96 20-20S31.04 0 20 0" id="Fill-1"/></g><path id="Fill-4" fill="#FFF" d="M14.167 14L5 26h1.873l1.993-2.627h6.377v-1.49H9.982L16 14z"/><path id="Fill-6" fill="#FFF" d="M35 26l-9.167-12H24l6.018 7.882h-5.26v1.49h6.376L33.127 26z"/><path id="Fill-8" fill="#FFF" d="M20 26h1V7h-1z"/><path id="Fill-15" fill="#FFF" d="M9 23h6v-1H9z"/><path id="Stroke-16" stroke="#FFF" stroke-width="1.492" d="M9 23h6v-1H9z"/><path id="Fill-17" fill="#FFF" d="M25 23h6v-1h-6z"/><path id="Stroke-18" stroke="#FFF" stroke-width="1.492" d="M25 23h6v-1h-6z"/></g></g></g></svg>