<?xml version="1.0" encoding="utf-8"?>
<!-- Generator: Adobe Illustrator 22.1.0, SVG Export Plug-In . SVG Version: 6.00 Build 0)  -->
<svg version="1.1" id="Слой_1" xmlns="http://www.w3.org/2000/svg" xmlns:xlink="http://www.w3.org/1999/xlink" x="0px" y="0px"
	 width="3147.3px" height="1890px" viewBox="0 0 3147.3 1890" style="enable-background:new 0 0 3147.3 1890;" xml:space="preserve"
	>
<style type="text/css">
	.st0{opacity:5.500000e-02;}
	.st1{fill:url(#Path-22_1_);}
</style>
<g id="Page-1" class="st0">
	<g id="Deep-Stake" transform="translate(526 -1953)">
		<g id="Bg-Shape" transform="translate(-526 1953)">
			
				<linearGradient id="Path-22_1_" gradientUnits="userSpaceOnUse" x1="184.3003" y1="1705.7676" x2="185.2461" y2="1705.8838" gradientTransform="matrix(4031.0002 0 0 -1888.8082 -743008.5 3222878.75)">
				<stop  offset="0" style="stop-color:#F8FFF5"/>
				<stop  offset="1" style="stop-color:#E8FCF6"/>
			</linearGradient>
			<path id="Path-22" class="st1" d="M-90,677.8c285.8,125.5,588.3,201.8,907.5,229c478.8,40.8,668.9-245.5,647.2-392.2
				c-9.9-66.7,23.4-246.4,181.5-358.7c78.8-55.9,374.4-243.5,969.5-96.7S3377.4,182.9,3726,17.1c232.4-110.6,232.4,346.1,0,1370.1
				c-229.3,167.6-521.4,193.3-876.4,77c-532.5-174.4-1332.5-419.2-1537.9,36.2C1106.4,1955.8-90,1716.3-130.6,1890"/>
		</g>
	</g>
</g>
</svg>
