<svg width="40" height="37" xmlns="http://www.w3.org/2000/svg"><g id="Page-1" stroke="none" stroke-width="1" fill="none" fill-rule="evenodd"><g id="Home-Ten-" transform="translate(-378 -962)" fill="#0033AD" fill-rule="nonzero"><g id="cardano-ada-logo" transform="translate(378 962)"><path d="M11.004 18.84c-.079 1.651.98 3.065 2.355 3.16h.148c1.385 0 2.503-1.343 2.493-3.006 0-1.663-1.118-3.006-2.503-2.994-1.326 0-2.424 1.248-2.493 2.84zm-9.949-.838a1 1 0 10.943 1.053 1 1 0 00-.943-1.053zM10.453 2.89c.49-.245.687-.856.441-1.345a1.012 1.012 0 00-1.347-.44.993.993 0 00-.441 1.332.992.992 0 001.347.453c-.012 0 0 0 0 0zm2.721 4.951a1.504 1.504 0 00.667-2.015 1.504 1.504 0 00-2.015-.667 1.504 1.504 0 00-.667 2.015 1.504 1.504 0 002.015.667zm-8.72 2.997a1.004 1.004 0 001.385-.289 1.009 1.009 0 00-.289-1.387 1.004 1.004 0 00-1.384.289.999.999 0 00.288 1.387zm1.129 6.165a1.493 1.493 0 00-1.58 1.414 1.493 1.493 0 001.414 1.58 1.5 1.5 0 00.166-2.995zm-1.034 9.104a1.001 1.001 0 00.902 1.786c.49-.25.691-.845.442-1.344a1.004 1.004 0 00-1.344-.442zm5.132-11.353a1.488 1.488 0 002.073-.435 1.488 1.488 0 00-.435-2.073 1.488 1.488 0 00-2.073.435 1.492 1.492 0 00.435 2.073zM26.68 7.755a1.503 1.503 0 002.076-.428c.45-.69.26-1.63-.427-2.082a1.503 1.503 0 00-2.076.428 1.489 1.489 0 00.427 2.082zm2.77-4.919a.998.998 0 001.385-.293.988.988 0 00-.294-1.379 1.006 1.006 0 00-1.385.281 1.025 1.025 0 00.294 1.391zm-2.81 13.169c-1.377-.095-2.566 1.178-2.636 2.831-.08 1.653.981 3.08 2.36 3.164h.138C27.88 22 29 20.656 29 18.99c.01-1.581-1.03-2.902-2.36-2.985zm-12.37-1.652C14.694 15.36 15.555 16 16.505 16 17.882 16 19 14.66 19 13.001c0-.462-.09-.924-.267-1.35-.624-1.482-2.128-2.075-3.355-1.328-1.237.758-1.732 2.56-1.109 4.03zm21.188-3.461a1 1 0 00-.913-1.783c-.49.251-.682.849-.442 1.34.26.491.855.694 1.355.443zm-6.63 1.264a1.503 1.503 0 00-.668 2.015 1.498 1.498 0 102.68-1.347 1.507 1.507 0 00-2.012-.668zM19.942 1.999a1.012 1.012 0 001.056-.941C21.036.51 20.604.04 20.058 0A1.004 1.004 0 0019 .933a1.015 1.015 0 00.94 1.066zm-.523 6.998a1.49 1.49 0 001.578-1.416 1.49 1.49 0 00-1.417-1.578 1.49 1.49 0 00-1.578 1.416c-.04.83.587 1.538 1.417 1.578zM11.172 24.84a1.5 1.5 0 10-1.346-2.68 1.5 1.5 0 001.346 2.68zm10.236-13.483c-.753 1.392-.436 3.249.724 4.153 1.16.904 2.706.524 3.46-.869.753-1.392.436-3.249-.724-4.153A2.197 2.197 0 0023.5 10c-.843 0-1.626.512-2.092 1.357z" id="Path"/><path d="M25.729 22.653c-.623-1.484-2.126-2.078-3.352-1.33-1.236.748-1.73 2.552-1.108 4.024.623 1.484 2.126 2.078 3.352 1.33 1.227-.736 1.731-2.517 1.118-4 0-.012 0-.012-.01-.024zm4.59-.407a1.488 1.488 0 00-2.073.435 1.488 1.488 0 00.435 2.073 1.488 1.488 0 002.073-.435 1.492 1.492 0 00-.435-2.073zm5.678-3.663a1.493 1.493 0 00-1.414-1.58 1.493 1.493 0 00-1.58 1.414 1.493 1.493 0 001.414 1.58 1.509 1.509 0 001.58-1.414zm3.058-1.581a1 1 0 10-.11 1.996 1 1 0 001.054-.943 1.008 1.008 0 00-.944-1.053zm-3.509 9.16a1.004 1.004 0 00-1.385.289 1.009 1.009 0 00.289 1.387 1.004 1.004 0 001.384-.289.999.999 0 00-.288-1.387zm-25 8.003a.998.998 0 00-1.381.283 1.007 1.007 0 00.28 1.387.998.998 0 001.382-.283.988.988 0 00-.281-1.387zm19.001-.055c-.49.245-.687.856-.441 1.345.245.489.857.684 1.347.44a.993.993 0 00.441-1.332.992.992 0 00-1.347-.453c.012 0 0 0 0 0zm-10.954-8.464c.751-1.39.435-3.242-.722-4.157-1.156-.903-2.698-.523-3.46.867-.76 1.39-.435 3.242.722 4.157.405.32.88.487 1.364.487.85.012 1.631-.499 2.096-1.354zm-5.273 3.599a1.503 1.503 0 00-2.076.428c-.45.69-.26 1.63.427 2.082a1.503 1.503 0 002.076-.428 1.49 1.49 0 00-.427-2.082zm6.738 5.756a1.012 1.012 0 00-1.056.941c-.038.548.394 1.018.94 1.057A1.004 1.004 0 0021 36.067a1.015 1.015 0 00-.94-1.066zm-.478-6.998a1.49 1.49 0 00-1.577 1.417 1.49 1.49 0 001.416 1.578c.83.04 1.538-.587 1.578-1.417a1.496 1.496 0 00-1.416-1.578zm7.237 1.16a1.502 1.502 0 00-.652 2.018 1.495 1.495 0 002.014.653 1.5 1.5 0 00.663-2.006 1.51 1.51 0 00-2.025-.665z" id="Path"/></g></g></g></svg>