<svg width="40" height="40" xmlns="http://www.w3.org/2000/svg"><defs><linearGradient x1="0%" y1="0%" x2="100%" y2="0%" id="linearGradient-1"><stop stop-color="#0DF" offset="0%"/><stop stop-color="#FF00D4" offset="100%"/></linearGradient></defs><g id="Page-1" stroke="none" stroke-width="1" fill="none" fill-rule="evenodd"><g id="Deep-Stake" transform="translate(-378 -870)"><g id="DEST-SYMBOL" transform="translate(378 870)"><g id="dest-symbol" fill="url(#linearGradient-1)" fill-rule="nonzero"><circle id="Oval" cx="20" cy="20" r="20"/></g><g id="Group" transform="translate(10.77 6.154)" fill="#FFF"><path d="M11.728 23.077c5.475 0 8.272-3.64 8.272-9.453 0-5.997-3.111-9.009-8.416-9.009H0v18.462h11.728zM11.822 20H3.077V7.692h8.643c3.443 0 5.203 2.185 5.203 5.92 0 4.037-1.938 6.388-5.101 6.388z" id="D" fill-rule="nonzero"/><path id="Rectangle" d="M7.692 0h3.077v4.615H7.692zm0 10.769h3.077v6.154H7.692zm0 12.308h3.077v4.615H7.692z"/></g></g></g></g></svg>