<svg width="669" height="787" xmlns="http://www.w3.org/2000/svg"><defs><linearGradient x1="0%" y1="0%" x2="100%" y2="0%" id="linearGradient-1"><stop stop-color="#0DF" offset="0%"/><stop stop-color="#FF00D4" offset="100%"/></linearGradient></defs><g id="Page-1" stroke="none" stroke-width="1" fill="none" fill-rule="evenodd" opacity=".145"><g id="Deep-Stake" transform="translate(-626 -36)" fill="url(#linearGradient-1)" fill-rule="nonzero"><g id="SvgjsG48329" transform="translate(626 36)"><path d="M23.303 129.406c13.071 16.902 32.243 31.333 57.517 43.283.578.29 13.504 5.973 38.769 17.048 25.563 10.204 38.055 16.322 37.476 18.363-.876 2.916-14.526.29-40.956-7.869-9.003-2.626-18.304-5.682-27.886-9.183-8.135-3.497-12.492-5.538-13.07-6.118-28.755-13.701-49.084-30.023-60.997-48.966-5.515-8.454-9.148-16.177-10.893-23.17-1.157-2.626-1.889-5.683-2.178-9.184-.29-3.497-.579-5.973-.868-7.429-.29-3.79-.29-7.288 0-10.494.29-2.916.434-4.807.434-5.682l.868-3.062 1.31 3.062c.868 1.455 2.179 6.412 3.923 14.861 4.357 13.7 9.871 25.211 16.551 34.54zm-1.302-98.367l7.404 16.176c4.067 10.785 10.024 22.15 17.861 34.1 13.658 20.984 29.92 38.327 48.803 52.027.289.871 3.914 3.352 10.892 7.43 8.424 5.246 16.55 9.328 24.397 12.244l25.707 7.868c8.127 1.456 12.194 2.912 12.194 4.372 0 1.166-4.357 2.04-13.07 2.622l-13.071-.876-15.25-3.496c-8.713-2.331-17.86-6.118-27.442-11.365-7.846-4.663-11.914-7.143-12.203-7.434-20.917-15.156-37.902-34.244-50.972-57.27-6.978-13.115-11.77-25.795-14.382-38.036-.868-8.743-1.455-13.845-1.744-15.301l.876-3.061zM218.93 494.022c-1.158-.294-2.468-.875-3.923-1.75-5.515-2.622-10.603-4.227-15.25-4.808-8.424-.585-15.827 0-22.218 1.747-8.714 2.04-15.538 6.122-20.474 12.24-1.744 2.916-3.633 6.707-5.667 11.37l-3.49 6.993c-3.48 4.372-5.369 6.703-5.658 6.997l-6.101 3.932c-2.613 2.041-4.068 3.207-4.357 3.497l-3.047 3.061-1.744 3.497-.434 4.372-.443 1.75v.875l4.8 14.427c1.446 4.957 1.157 9.474-.877 13.55l.434-.435-3.914 6.558c-1.745 2.331-3.923 4.082-6.535 5.247-1.456.876-4.068 1.601-7.846 2.186-3.49-.29-5.957-.73-7.404-1.31-3.489-2.041-5.522-3.352-6.1-3.937l-4.792-4.807c-.587-.875-1.6-3.061-3.055-6.558l-.868-5.687c-.578-10.2-1.02-15.592-1.31-16.172-1.745-4.082-4.646-6.853-8.714-8.309-3.191-1.456-7.259-1.895-12.194-1.31l-5.668 1.746-5.667 3.061c-6.093 4.082-10.45 6.558-13.07 7.433-5.804 2.621-11.182 3.061-16.118 1.31-4.357-1.165-8.28-2.911-11.76-5.246 0 .294.145.73.434 1.315 1.157 3.787 3.634 7.283 7.403 10.49 4.357 3.206 9.301 5.247 14.816 6.122 2.033.58 5.667 1.165 10.892 1.746 4.646.875 8.714 2.48 12.202 4.812 8.127 5.537 12.927 14.28 14.373 26.231 1.166 6.993 1.6 17.488 1.31 31.478.869 11.656 5.813 19.964 14.816 24.917 5.514 2.916 11.037 4.811 16.55 5.687 6.391.87 12.638.725 18.739-.44l9.582-2.186 8.713-4.808c2.613-2.04 4.357-4.226 5.234-6.557l4.79-11.37 1.745-2.621c1.447-2.916 2.902-4.957 4.357-6.123 1.157-1.746 4.068-4.077 8.714-6.993l10.892-4.807c4.068-1.46 7.259-3.207 9.582-5.247 3.489-3.497 5.522-6.558 6.101-9.184 2.323-6.118 1.302-15.007-3.055-26.667l-6.093-14.866a56.41 56.41 0 01-2.62-17.047c0-10.204 2.765-19.529 8.28-27.982a29.507 29.507 0 012.612-3.061c-1.736.585-3.191 1.165-4.357 1.75-4.06 1.75-8.127 4.662-12.194 8.744-2.902 3.497-4.502 5.247-4.791 5.247-7.557 9.619-13.071 22.15-16.56 37.596-.579 2.332-2.034 9.91-4.357 22.735-.868 5.828-1.455 8.889-1.744 9.18l-.868 1.75-1.31-1.31c-1.158-2.917-2.034-6.123-2.613-9.62-1.455-5.828-1.6-13.99-.434-24.48.579-6.708 2.034-13.411 4.357-20.114 3.48-10.2 7.837-18.363 13.07-24.48l6.536-6.559 7.403-5.247c5.812-2.04 9.003-3.206 9.59-3.496 5.804-2.041 11.616-2.626 17.428-1.75 3.191.29 5.514.874 6.97 1.75 1.744-.29 3.046-.44 3.922-.44.579-2.331 1.591-5.537 3.047-9.615zm96.72-84.816c.876 1.166-3.77 6.993-13.94 17.488-4.067 4.662-9.87 9.764-17.427 15.301l-11.76 6.993-12.637 4.812c-7.846 3.206-13.215 7.723-16.126 13.551a5216.177 5216.177 0 01-8.713 20.549c-3.191 8.159-5.37 15.447-6.536 21.86l-1.736 9.179c0 2.04-.144 5.101-.442 9.183l1.31 7.869c1.745 4.371 2.757 6.703 3.047 6.993 2.034 3.791 5.233 8.018 9.59 12.68 2.323 2.916 6.101 6.993 11.326 12.24l5.668 6.998 4.357 6.993c3.19 4.957 4.79 10.494 4.79 16.613 0 4.662-1.455 9.909-4.356 15.74a93.84 93.84 0 01-7.846 10.93c-8.425 9.615-13.071 15.153-13.939 16.613-3.2 4.662-4.212 8.889-3.055 12.676.877 2.04 3.344 6.122 7.412 12.244 3.191 4.953 5.08 9.034 5.659 12.24.876 5.248 1.455 11.22 1.744 17.924l-.434 7.433c.29.875.868 2.33 1.745 4.372 1.157 2.33 4.501 4.517 10.015 6.558l8.714 3.496 7.412 5.247 6.101 5.683 9.148 10.494c3.778 4.953 6.246 8.889 7.404 11.805.876 3.787.587 8.304-.868 13.551l-.877 3.937c1.455 2.62 4.068 4.807 7.846 6.557l16.993 8.744c-.289 1.746-4.067 2.476-11.326 2.186l-9.59-2.186-6.535-3.061-3.923-2.626-3.48-3.932c-1.745-2.626-2.18-6.852-1.311-12.68.587-2.621.732-4.807.434-6.558l-5.225-7.433-13.505-14.426-11.768-8.744c-3.48-1.746-6.383-3.642-8.714-5.683-1.157-1.165-2.025-2.766-2.613-4.807-.578-1.17-.868-2.626-.868-4.372-.289-4.081.29-6.558 1.745-7.433l-4.8-22.299c-1.446-3.497-3.48-6.703-6.092-9.615-4.647-6.122-7.702-10.494-9.157-13.115-1.736-3.792-2.178-7.579-1.302-11.37.579-2.912 2.034-6.412 4.357-10.49.868-1.46 5.514-7.578 13.939-18.362 6.101-8.454 9.003-14.867 8.714-19.238 0-5.248-4.068-12.531-12.194-21.86-4.945-4.952-8.714-8.889-11.335-11.805-5.225-5.243-9.293-10.345-12.194-15.301-1.745-2.912-3.055-6.264-3.923-10.055-.579-1.165-1.158-4.952-1.745-11.365.29-4.662.434-8.308.434-10.93l2.179-10.054v-1.315c-.868.585-2.323 1.165-4.357 1.75-4.936 2.331-8.859 6.268-11.76 11.805-3.779 6.413-5.37 14.427-4.791 24.046.578 5.247 1.6 9.619 3.046 13.115l6.101 14.427c5.523 14.571 7.114 26.23 4.791 34.975-3.48 10.494-10.892 18.072-22.218 22.734-7.846 2.912-12.781 5.828-14.815 8.744-.868.58-1.745 1.746-2.613 3.497l-1.31 2.186-4.791 11.365c-1.744 4.372-4.936 8.018-9.582 10.93-6.97 4.956-14.96 8.163-23.963 9.618-8.135 1.456-15.972 1.456-23.529 0-8.135-1.455-15.104-4.077-20.916-7.868-6.382-3.497-11.471-8.599-15.25-15.302-2.322-4.956-3.769-11.365-4.356-19.238.587-14.861.442-25.21-.434-31.038-.579-4.957-1.591-8.744-3.047-11.365-1.744-3.501-3.922-6.123-6.535-7.873-2.612-1.746-9.003-3.642-19.172-5.683-7.846-2.04-13.939-5.247-18.295-9.619-4.647-4.662-7.412-9.47-8.28-14.426-1.166-3.207-1.745-6.993-1.745-11.365-.578-.876-1.012-1.606-1.31-2.186-4.646-7.579-5.948-15.157-3.915-22.735 2.324-5.537 6.68-9.91 13.071-13.116 5.804-2.33 10.892-2.916 15.25-1.75 4.645.875 7.837 3.206 9.581 6.998 1.455 2.621 2.178 5.537 2.178 8.743 0 5.538-1.744 8.599-5.224 9.18-.877.584-2.324.875-4.357.875l-.877-.436 4.357-2.186c2.034-1.165 2.613-3.646 1.745-7.433-.868-6.412-3.923-9.619-9.148-9.619-2.902 0-6.246.73-10.024 2.186-4.357 2.916-6.97 6.123-7.838 9.62l1.302 9.618c.587 1.456 1.455 3.057 2.613 4.808 3.778 5.537 8.713 8.889 14.815 10.054 4.357 1.166 11.037-1.601 20.04-8.304l6.978-3.936 4.79-1.75 4.357-.872c6.68-1.46 12.926-.875 18.73 1.746 6.978 2.916 12.203 7.724 15.692 14.427 1.446 3.5 2.323 7.288 2.612 11.37v9.178l.868 3.497 1.31 2.186 1.745 2.186 2.612 1.315c1.745.87 3.336.87 4.791 0 .868-.295 1.89-1.605 3.047-3.936l.442-.436c0-2.335-.145-3.936-.442-4.812l-2.179-6.993c-1.157-3.206-1.88-6.267-2.178-9.183l-.434-3.497.434-3.061 3.055-9.615 2.178-3.5c1.157-2.037 2.902-3.933 5.225-5.683.587-.29 2.612-1.601 6.101-3.933l4.791-3.06 3.055-3.937 3.047-5.683c4.067-6.993 6.68-11.22 7.845-12.68 6.68-8.159 15.683-13.115 27.01-14.862 9.003-1.75 17.717-1.605 26.141.436 5.225 1.75 10.458 4.517 15.683 8.308.877 1.166 1.745 2.186 2.613 3.061a350.973 350.973 0 013.054-8.743c4.936-11.66 8.28-18.948 10.016-21.86.298-.875 1.745-2.916 4.357-6.122 1.166-2.041 3.055-3.787 5.668-5.247l3.046-2.186 3.489-1.746 19.172-6.998 10.458-5.247a131.712 131.712 0 0017.862-12.676c11.905-8.744 18.15-12.68 18.73-11.805zm-21.785-13.551c0 2.621-.724 5.537-2.179 8.744a50.813 50.813 0 01-6.969 12.24c-10.748 12.24-21.495 18.798-32.243 19.674-2.323.29-4.059.145-5.225-.44l-1.31-.871.442-1.315c.868-1.166 2.179-2.331 3.915-3.497 1.166-1.165 4.067-3.496 8.714-6.993a125.82 125.82 0 0015.249-15.302l7.846-9.183c5.522-6.118 8.858-8.89 10.024-8.304 1.157.58 1.736 2.33 1.736 5.247zm52.725 27.102c-5.233 5.832-7.846 8.893-7.846 9.184-3.19 3.206-8.858 7.283-16.993 12.24-4.068 2.04-7.838 3.352-11.327 3.936-2.033.29-3.633.29-4.79 0l-.877-.44v-1.31c.587-1.166 1.455-2.621 2.62-4.372 4.068-3.787 6.68-6.267 7.838-7.433 2.323-2.331 7.267-6.703 14.815-13.116l8.714-6.993c6.101-4.372 10.024-5.682 11.76-3.936 1.745 1.46.443 5.537-3.914 12.24zm44.003-26.231c1.455 1.46-.145 6.267-4.791 14.43l-8.28 12.24c-6.68 7.87-13.36 14.137-20.04 18.8-5.812 3.205-10.313 5.101-13.513 5.682-2.612.584-4.646.73-6.093.44l-1.31-.44 4.357-6.118c9.88-9.039 18.448-18.073 25.707-27.107.29-.29 3.778-3.936 10.458-10.93 7.259-6.412 11.76-8.743 13.505-6.997zm127.218 48.53c3.489-.875 8.135-1.895 13.947-3.06l8.714-2.187 3.48-1.31a55.86 55.86 0 0111.769-3.937l3.48-.435 4.357.435c3.489 1.46 5.812 2.626 6.97 3.497 3.488 3.5 5.522 7.578 6.1 12.244l1.311 8.744.434.436 1.31 8.308a36.596 36.596 0 011.303 9.615v1.315l-.868 3.057v.44h-.434v.875l-.443.87-1.302 1.75-2.178 2.187c-.877 1.165-2.034 2.186-3.49 3.061l-1.301.875-4.8 9.615c-2.025 2.04-3.335 3.206-3.914 3.5-2.91 1.166-6.101 1.021-9.59-.439l-3.923-2.621-2.178-2.186c-1.736-2.041-2.902-3.207-3.48-3.497-.58-.294-1.456.145-2.613 1.31-2.323 4.663-3.634 8.015-3.923 10.055-1.455 4.372-2.179 7.869-2.179 10.495l-.876 2.185-.868-2.185c-1.455-2.916-2.034-6.708-1.745-11.37 0-2.621.29-4.662.877-6.118.868-3.5 1.591-5.832 2.178-6.998 2.034-4.952 4.936-7.433 8.714-7.433 2.902-.29 6.68 1.896 11.326 6.558l1.745 1.315.434.436 1.302-.436v-.44l.876-1.31 3.047-6.994c1.455-2.04 3.344-3.936 5.667-5.686h.434l.868-1.747v-.875l-3.046-15.301c-1.745-8.454-2.902-12.826-3.49-13.116l-.433-.436-.868-.44h-2.613l-8.714 3.062-4.356 2.186-10.893 2.186c-15.393 2.621-24.694 4.517-27.885 5.682-.58.29-1.166.585-1.745.876-.29 1.455-2.468 4.662-6.535 9.619l-15.683 19.673c-4.936 6.118-10.893 12.095-17.862 17.923-6.68 5.247-10.169 8.018-10.458 8.308-11.914 7.869-24.984 11.805-39.212 11.805-2.902 0-12.637-.44-29.197-1.315h-5.224c-.579 2.336-1.158 5.247-1.745 8.744-.578 3.206-1.302 8.744-2.178 16.617-1.447 7.578-3.191 14.136-5.225 19.673-2.613 5.537-6.246 11.365-10.892 17.488-5.234 6.408-8.859 10.78-10.893 13.115-6.101 7.869-9.147 12.53-9.147 13.987l-2.621 5.687-1.736 6.118c0 2.625.578 5.682 1.736 9.183 2.62 4.372 7.99 9.18 16.125 14.427l28.32 16.612 3.923 4.372c.868.58 1.89 2.04 3.046 4.372l2.613 4.807.876 4.812.434 8.743-1.31 30.164-.868 4.811c-.579 1.747-1.31 4.227-2.179 7.433l-6.535 10.93-1.31 3.057-.434-3.497c-.29-.875.144-3.351 1.31-7.433l1.736-5.243.877-10.494-1.31-16.177c0-5.827-.146-10.344-.435-13.55 0-5.538-1.013-9.765-3.046-12.68-2.034-2.917-6.246-6.119-12.637-9.62-8.425-4.077-15.105-7.429-20.04-10.054-10.169-6.413-16.994-12.826-20.483-19.234-3.19-5.537-4.356-11.515-3.48-17.927l2.178-8.304 3.48-7.873c1.745-3.497 5.234-8.744 10.46-15.737 2.322-2.622 6.245-6.848 11.76-12.68 4.356-5.243 7.7-10.055 10.024-14.427 2.033-4.081 4.067-9.764 6.101-17.047 2.612-9.039 4.212-14.431 4.79-16.177.869-2.626 1.89-4.812 3.047-6.558-8.126.58-14.951 2.331-20.474 5.247-1.455.871-4.501 2.912-9.148 6.118 1.158 4.372 1.158 9.62 0 15.742-.289 1.455-1.744 5.682-4.356 12.675l-6.97 21.424c-4.646 12.531-8.28 20.11-10.892 22.735-1.455 2.331-4.068 5.392-7.846 9.18-5.514 4.08-8.424 6.121-8.714 6.121l-1.744 1.311.876.436c5.225 3.496 10.16 10.494 14.807 20.984l2.179 6.122 1.31 2.622.868 3.5 1.744 3.933c.29.294.588.44.877.44l8.714 1.746c6.093.584 10.747 1.605 13.938 3.06l-.434-.435c6.102 2.331 11.471 5.683 16.117 10.055 3.2 3.206 5.234 5.682 6.102 7.433 2.323 2.912 3.489 5.973 3.489 9.179.578 3.206-.587 6.703-3.49 10.494l-4.79 4.808c-3.2 3.206-5.233 5.537-6.101 6.993-2.034 3.5-1.745 7.143.868 10.93 1.165 1.46 3.633 3.936 7.411 7.433l9.148 6.557 1.31 1.75h-2.178c-2.62 0-6.535-1.02-11.769-3.06-4.067-1.75-7.692-4.227-10.892-7.433-2.612-3.207-4.212-6.118-4.79-8.744-1.158-3.497-.724-7.723 1.31-12.676.868-2.04 3.336-5.392 7.403-10.059l3.49-4.372.867-1.31-2.178-3.497c-.868-1.456-2.179-2.916-3.923-4.372-3.191-2.916-7.114-5.247-11.76-6.993l-.434-.44-14.382-2.186-8.713-3.061c-3.49-1.456-5.812-3.642-6.97-6.558l-5.233-17.923c-2.323-9.328-5.08-15.737-8.271-19.238-1.456-.87-2.324-1.746-2.621-2.621l-8.714 4.807c-10.16 5.247-16.407 11.95-18.73 20.113-1.744 6.118-.578 14.282 3.48 24.481 2.035 4.372 5.957 11.515 11.77 21.424l11.76 17.923c4.067 6.122 7.845 9.91 11.326 11.37 1.166.58 3.344 1.6 6.535 3.056 2.91 1.46 5.378 2.916 7.412 4.372 2.034 1.75 3.634 3.937 4.79 6.558l1.745 6.558c.579 3.5.579 6.998 0 10.494-.289 2.041-.723 4.517-1.31 7.433l-1.745 8.744-.434 4.807c-.578-.29-1.157-1.891-1.744-4.807l-.434-9.619c0-8.163-.434-13.406-1.302-15.737-1.166-4.372-2.766-7.143-4.8-8.308-5.224-1.456-9.726-3.207-13.504-5.247-4.068-1.747-9.148-6.264-15.25-13.552l-12.636-17.927c-5.803-7.868-10.305-15.447-13.504-22.73-5.225-11.66-6.825-22.444-4.791-32.354l1.31-4.807 2.179-4.372c1.157-2.626 3.046-5.247 5.658-7.873 4.068-4.372 9.301-8.304 15.684-11.8l15.691-9.184c2.034-.875 4.357-2.476 6.97-4.807l5.658-6.558c3.49-4.957 6.833-11.515 10.025-19.674l8.28-21.423c4.067-10.2 5.514-17.343 4.356-21.42-.29-2.626-1.6-6.268-3.923-10.93-3.19-6.412-4.935-10.204-5.225-11.37-3.778-8.453-6.1-15.736-6.977-21.859-.29-1.165-.434-4.372-.434-9.619.587-3.496 1.165-5.827 1.744-6.993 2.323-3.787 3.634-5.537 3.923-5.247.579.29.579 2.331 0 6.122v6.118c.868 4.667 1.455 7.433 1.744 8.309.868 3.206 3.626 9.473 8.272 18.798 1.166 2.331 3.055 5.977 5.667 10.93 2.034 3.206 3.634 6.267 4.791 9.183 1.744-2.916 3.923-5.537 6.535-7.873 8.135-7.578 20.04-11.365 35.732-11.365l28.32-.435c5.225 0 10.603-.876 16.117-2.626 5.812-1.456 11.181-3.932 16.117-7.433 1.166 0 4.357-2.186 9.59-6.558 4.936-3.787 11.037-9.18 18.296-16.172 7.556-7.579 13.802-13.266 18.738-17.053.868-.584 1.744-1.165 2.612-1.75-1.744.585-3.19 1.02-4.357 1.315-6.101 1.746-11.181 2.186-15.249 1.31-4.357-.584-7.403-2.185-9.148-4.81-2.033-2.332-2.467-3.788-1.31-4.373.29-.29 1.6.15 3.923 1.315 2.034.871 4.357 1.166 6.97.871 2.91-.29 6.824-1.456 11.768-3.497 2.612-1.165 7.259-3.206 13.939-6.118 4.357-2.335 9.581-4.081 15.683-5.247zm-98.03-69.95c2.033-3.496 3.633-5.102 4.79-4.811 1.456 0 2.179 2.04 2.179 6.122v6.122l-3.914 13.987-5.668 11.805c-6.68 9.91-15.394 18.072-26.141 24.485-8.714 4.077-14.67 6.118-17.862 6.118-3.489.29-5.956.29-7.412 0l-1.301-.875.867-1.311c1.166-1.166 3.055-2.621 5.668-4.372 8.714-5.537 13.36-8.598 13.938-9.18 7.557-5.831 14.526-13.26 20.917-22.298l6.101-9.615 7.838-16.177zm93.239-150.394c-2.902-.58-5.668-3.497-8.28-8.744l-.868-3.932c-.579-2.04 0-4.227 1.745-6.558 1.735-2.335 4.067-2.335 6.969 0 2.612 1.746 3.923 3.057 3.923 3.932 2.612 4.957 3.336 8.89 2.178 11.805-.29 1.75-.876 2.916-1.744 3.497-1.166.585-2.468.585-3.923 0zm-166.43 138.59l-.877-.876 2.613-4.372c1.455-1.456 3.489-2.766 6.101-3.932.587-.294 4.502-2.186 11.769-5.687.29 0 2.757-.726 7.403-2.186 4.936-1.165 7.99-.725 9.148 1.315 2.034 3.207-1.591 7.43-10.892 12.676-2.613 1.46-7.259 3.061-13.939 4.812-2.612.29-5.233.145-7.846-.44-1.446-.29-2.612-.726-3.48-1.31zm-1.31-22.296c1.744.29 2.901.871 3.488 1.747v3.936c-1.455 2.331-2.765 3.787-3.923 4.372-.578.58-2.033 1.165-4.356 1.746-2.324 1.166-4.357 1.605-6.102 1.315-2.323 0-4.357-.585-6.101-1.75-3.48-2.041-4.646-4.227-3.48-6.558.867-2.622 2.757-3.937 5.658-3.937 1.455-.29 2.766-.58 3.923-.87l3.047-.44 7.845.44zm-49.237-54.213l18.738 5.248c2.034.875 3.344 1.746 3.923 2.621 0 1.166-1.021 2.476-3.055 3.936-5.225 3.787-12.917 4.372-23.086 1.747-1.166 0-3.634-1.311-7.412-3.933-4.357-2.916-6.093-5.537-5.225-7.868 1.166-2.335 4.212-3.206 9.148-2.626l6.97.875zm30.064 40.658c0 1.166-.868 2.186-2.612 3.061-3.778 2.622-9.871 3.061-18.296 1.311-2.323-.58-4.356-1.601-6.1-3.061-3.78-2.622-4.936-5.243-3.49-7.869 1.166-2.04 3.634-3.06 7.412-3.06l5.659.439c8.424 2.331 13.36 4.227 14.815 5.682 1.744 1.166 2.612 2.332 2.612 3.497zm-87.571-18.798c.289 1.75-9.003 5.828-27.886 12.24-19.462 5.538-29.333 8.309-29.622 8.309-22.372 4.371-41.39 4.371-57.082 0-11.326-3.497-20.33-8.599-27.01-15.302-1.455-1.46-3.778-4.517-6.969-9.184l-.876-2.185 2.178.44 10.024 5.682c7.557 4.372 15.973 7.433 25.274 9.18 13.65 2.915 30.932 2.185 51.84-2.187l29.63-5.682c19.462-3.497 29.63-3.933 30.499-1.311zm14.815 82.63l9.148-8.744c5.812-5.832 9.581-8.453 11.326-7.872 1.166.584 1.6 2.335 1.31 5.247-.578 2.916-1.744 5.977-3.489 9.183l-8.28 11.365c-11.904 11.95-23.23 17.923-33.978 17.923-2.613 0-4.502-.29-5.668-.87l-.868-.876 4.791-4.812c1.456-.87 4.647-3.056 9.582-6.557 5.523-3.787 10.892-8.45 16.126-13.987zm-46.182-44.594l18.73-6.558c12.492-4.081 19.172-5.247 20.04-3.496 1.455 2.621-3.625 7.283-15.25 13.986-12.483 5.538-18.873 8.454-19.163 8.744-20.627 6.707-39.356 8.744-56.205 6.122-3.49-.585-6.102-1.31-7.846-2.186l-1.302-.875 1.302-.875c1.744-.871 4.212-1.746 7.412-2.622 2.901-.584 9.147-1.75 18.73-3.496a333.955 333.955 0 0033.552-8.744zm-20.916 45.905l-1.31-.875.876-1.311c.868-1.166 2.468-2.331 4.79-3.497 3.779-2.04 15.973-8.453 36.6-19.238l13.939-7.433c9.59-4.081 14.815-5.392 15.683-3.932 2.034 2.331-1.157 6.848-9.582 13.551-6.969 6.413-11.326 9.62-13.07 9.62-16.85 9.324-30.788 13.99-41.825 13.99-2.902 0-4.935-.295-6.101-.875zm1.31-144.272c8.714 2.04 12.926 3.642 12.629 4.807 0 1.46-4.502 2.186-13.505 2.186-9.003-.29-19.019-1.165-30.064-2.621-9.293-1.166-19.309-2.916-30.056-5.247-6.978-1.75-11.769-3.062-14.381-3.937-29.92-8.449-54.172-19.673-72.757-33.66-13.07-10.494-22.074-21.86-27.018-34.104-1.446-4.372-2.178-10.054-2.178-17.048l.876-2.625 1.302 2.625c2.613 6.703 4.791 11.51 6.536 14.427 6.1 10.494 15.249 19.673 27.451 27.542 17.717 11.95 40.957 21.859 69.71 29.728 3.779 2.04 18.007 5.832 42.693 11.369 6.978 1.746 16.56 3.932 28.762 6.558zm4.791 27.977c12.492.585 22.074 1.606 28.754 3.061 8.425 1.46 12.637 3.062 12.637 4.812-.29.871-4.646 1.601-13.07 2.186l-28.32 1.31c-26.142 1.166-40.813 1.166-44.004 0-33.698-1.75-59.405-7.868-77.122-18.362-13.65-8.453-22.797-19.383-27.443-32.79-1.745-5.827-2.621-11.22-2.621-16.176l.876-3.061 1.302 2.626c.877 1.455 3.2 6.118 6.978 13.99 5.804 10.78 14.807 19.234 27.01 25.357 15.393 8.158 39.356 13.115 71.888 14.861l43.135 2.186zm84.526-22.295l5.659 3.937c3.488 2.621 6.969 4.517 10.458 5.682 1.744.876 3.778 1.601 6.101 2.186 2.034.876 3.336 1.747 3.923 2.622.29 1.165-.587 2.625-2.62 4.372-2.026 1.46-5.226 2.186-9.583 2.186-4.935 0-10.313-2.041-16.117-6.119-.29 0-1.166-.73-2.62-2.185-1.737-1.46-3.047-3.207-3.915-5.248-2.91-4.956-3.055-8.308-.443-10.054 1.456-.585 4.51.29 9.157 2.621zm7.403-22.294c.579.58 3.634 1.89 9.148 3.932 2.91 1.165 4.646 2.33 5.233 3.496 0 1.166-1.889 2.336-5.667 3.501-2.613 1.456-6.97 1.456-13.07 0-7.549-2.335-14.382-6.412-20.475-12.244-2.91-2.912-5.523-6.409-7.846-10.49-4.357-7.288-5.225-11.66-2.612-13.116 1.744-1.166 5.514.875 11.326 6.118l8.28 7.433c5.514 4.957 10.747 8.744 15.683 11.37zm219.155-56.835l.868 1.746c2.034 4.957 4.79 6.998 8.28 6.123 2.034-.585 4.646-2.626 7.837-6.123l9.156-9.619a212.396 212.396 0 01-12.202 4.812c-6.39 2.04-11.037 3.061-13.939 3.061zm-134.196-6.997c-.578 1.46-2.467 2.185-5.667 2.185l-5.225-.435-5.667-1.75c-2.613-.876-5.948-2.622-10.016-5.248l-4.79-3.496c-13.659-12.826-20.483-25.792-20.483-38.907.289-2.626.731-4.667 1.31-6.123l.868-.875 4.357 5.683c1.166 1.75 3.489 5.537 6.97 11.37 4.067 6.412 9.445 12.675 16.125 18.797l3.48 3.062c1.166.875 3.634 2.766 7.412 5.682l7.403 5.247c2.613 2.041 3.923 3.642 3.923 4.808zm-2.612-35.85c.579.875 3.046 3.936 7.403 9.183 2.323 2.621 3.2 4.517 2.613 5.682-.579 1.456-2.757 1.456-6.536 0-4.059-1.455-7.982-3.787-11.76-6.993-3.19-2.626-6.246-6.122-9.148-10.494-2.033-3.497-3.2-5.392-3.489-5.683-5.224-11.66-7.837-23.17-7.837-34.54 0-7.868.723-13.99 2.179-18.362.868-3.206 1.736-5.537 2.612-6.993.579-.585 1.013-.876 1.302-.876l.876 1.311c.868 1.46 1.456 3.791 1.745 6.998l2.612 17.048c2.034 11.66 4.936 21.423 8.714 29.292.29.29 3.191 5.102 8.714 14.426zM539.161 374.23c0 1.166.145 2.331.434 3.497 1.455-1.456 3.49-2.912 6.102-4.372 5.224-3.497 13.07-7.724 23.528-12.676 2.902-1.166 7.548-3.206 13.94-6.122 5.811-2.041 11.325-2.477 16.559-1.311 4.067 1.746 7.258 4.517 9.581 8.304l2.613 3.5c4.944 8.745 8.714 14.282 11.335 16.613 3.19 3.497 7.692 7.139 13.504 10.93 12.782 8.159 21.206 15.156 25.265 20.984 4.655 6.413 6.689 14.571 6.102 24.48l-1.302 14.867c0 3.787.723 7.578 2.178 11.365l-7.846-1.31c-4.067 0-8.714-.876-13.938-2.622-2.91-1.166-5.09-2.626-6.536-4.372-.29-.29-1.166-1.75-2.62-4.372-.58-1.165-.869-3.061-.869-5.682 0-1.75.724-5.248 2.179-10.495l.434-2.186v-1.31l-.868-2.626c.29-.29-2.323-.871-7.846-1.746-6.68-1.46-12.05-3.497-16.117-6.123-5.234-3.206-9.88-7.723-13.947-13.55l-6.093-8.744c-2.323-5.248-3.778-8.309-4.357-9.184 0-.29-1.021-1.6-3.055-3.932 0-1.46-1.744-.145-5.225 3.932l-9.59 9.62-5.659 4.371-16.126 8.744c-2.901 1.46-5.224 2.625-6.969 3.496 3.778-.58 8.28-1.31 13.505-2.186 9.011-2.036 16.27-2.33 21.784-.87 3.2.58 6.102 2.185 8.714 4.807 2.034 2.33 3.2 4.662 3.489 6.993.868 4.082.579 7.433-.868 10.059-.29.29-.443.58-.443.87.298 1.166.588 2.772.877 4.812l1.744 16.177 6.97 24.046.434 4.371c0 2.912-.145 4.808-.434 5.683-.29 3.206-2.613 6.268-6.97 9.18-6.101 2.33-9.88 3.79-11.334 4.371-1.158.585-2.757 2.186-4.791 4.812-2.323 3.787-4.357 6.558-6.102 8.304-1.157 1.165-2.901 2.33-5.224 3.496l-4.791 1.315c-3.779 0-6.391-.149-7.846-.44-5.225-1.165-8.28-1.746-9.148-1.746-2.612-.584-5.225-.44-7.846.436l-1.736.435.434-2.185 2.179-3.057 3.046-1.315c.29-.29 1.6-.726 3.923-1.311l10.024-.875c4.357 0 7.259-.871 8.714-2.622.29-.29 1.591-2.33 3.915-6.122 3.2-5.243 6.246-8.744 9.156-10.49 2.902-1.46 6.39-2.916 10.45-4.372.876-.585 1.165-1.02.876-1.31v-1.316l-5.233-23.605.876-14.427c0-2.335.579-4.956 1.745-7.872.868-2.622 1.59-4.517 2.178-5.683v-.875c.29-2.331-.145-4.517-1.31-6.558-1.456-2.912-3.923-4.517-7.404-4.807-3.2-.29-9.003.585-17.427 2.621-10.748 3.206-20.193 4.957-28.32 5.247-1.166.29-6.978 0-17.428-.875l-10.024-.871-5.667-1.75c-2.323-.585-4.647-2.041-6.97-4.372-.578-.29-1.012-.876-1.302-1.75l-1.744-4.373c-.579-2.621-.29-6.408.868-11.365l2.178-5.247 1.31-5.247c.869-2.331 1.6-6.118 2.18-11.365.867-8.159-.58-14.427-4.358-18.798-.578-.585-2.323-2.186-5.233-4.812-1.736-1.166-2.468-2.037-2.178-2.621.297-.876 1.455-1.166 3.488-.876 2.613 0 5.379 1.02 8.28 3.061 3.48 1.75 6.246 5.102 8.28 10.055 2.034 4.081 3.047 8.744 3.047 13.99 0 4.958-.434 9.62-1.311 13.992l-1.302 6.557-1.744 4.808-.434 4.811 5.224 1.747 8.714 1.31c2.323.295 5.234.585 8.714.876.877 0 1.6.145 2.179.44l1.31-10.06c.579-5.242 1.013-9.614 1.302-13.115 0-6.408-.579-12.676-1.736-18.798-.876-6.994-3.778-14.717-8.714-23.17a343.69 343.69 0 00-19.606-29.293 190.531 190.531 0 01-18.738-31.478l-4.79-12.24-2.613-11.366c-.587-7.578-.145-11.37 1.302-11.37 1.455 0 3.344 3.207 5.667 9.62l4.791 9.619c.868 2.33 2.757 5.828 5.667 10.494 5.804 9.615 12.484 19.234 20.04 28.853 7.838 11.365 14.373 21.86 19.606 31.478 5.225 9.62 8.28 18.798 9.148 27.542zm25.708 17.052l8.28-10.059c5.224-5.242 9.87-8.013 13.938-8.304 3.2 0 5.957.726 8.28 2.186l4.357 3.932 11.76 20.989c3.2 4.372 6.68 7.868 10.458 10.49 1.745 1.46 5.668 3.06 11.76 4.811l7.412 1.747c3.778 1.165 6.39 3.351 7.837 6.557 1.745 2.916 2.332 5.832 1.745 8.744l-.434 3.497-3.046 7.433-.877 3.497c-.579 2.625.732 5.247 3.923 7.872l11.76 6.118.877.876c-1.455-2.331-2.323-5.102-2.613-8.309-.876-4.372-1.31-9.614-1.31-15.737-.579-7.578-2.613-13.406-6.102-17.487-2.901-3.497-10.603-9.034-23.086-16.613-6.101-3.496-11.624-7.578-16.56-12.24-2.323-2.335-6.535-8.599-12.636-18.802l-1.745-3.057c-.868-1.75-2.025-2.916-3.48-3.501-1.166-.58-3.923-.436-8.28.44l-38.344 13.115a6725.48 6725.48 0 01-9.148 2.622c-.29 8.163-2.034 17.197-5.225 27.106a240.7 240.7 0 01-3.489 8.308c.29-.294.588-.44.877-.44 2.034 0 4.79-.145 8.271-.435-1.157-1.165 1.166-4.372 6.978-9.619l13.505-11.365 4.357-4.372zM551.798 139.46l4.357-2.186c22.074-15.156 27.01-15.156 14.815 0-2.034 2.626-4.068 5.538-6.101 8.744-8.714 12.24-15.539 20.84-20.483 25.796-4.935 4.372-8.56 7.868-10.892 10.49l2.178-.436c4.944 0 9.59-.145 13.947-.435 2.034 0 3.48.435 4.357 1.31l-.434 4.373c-2.323 4.662-7.7 7.283-16.125 7.868a27.114 27.114 0 013.055 4.807l1.302 5.248c.289 1.165.144 3.206-.434 6.122-1.158 4.662-1.745 7.723-1.745 9.18.29 4.371 3.778 12.534 10.458 24.484l11.76 27.102c2.332 6.123 3.49 10.64 3.49 13.556-.868 2.912-1.31 4.517-1.31 4.807l-2.18 3.937-13.938 14.861c-2.902 2.336-5.514 3.792-7.846 4.372-3.19 1.46-6.535 1.896-10.016 1.315-2.901-.294-5.812-1.315-8.713-3.061-1.166-.29-2.757-1.46-4.791-3.497-1.745-1.75-2.91-3.79-3.49-6.122l-1.31-10.054-2.178-3.937c-.579-.875-4.204-4.662-10.892-11.365-6.97-7.578-11.037-11.805-12.195-12.68l-15.249-10.49c-4.935-3.791-8.424-8.599-10.458-14.43-1.455-4.373-2.034-8.45-1.744-12.241 0-2.912.289-4.372.876-4.372.579-.29 1.591 1.02 3.047 3.936 2.323 5.538 3.778 8.744 4.356 9.62 2.324 4.077 5.523 7.283 9.582 9.614 1.455 1.166 3.923 2.48 7.412 3.937l8.714 5.247c3.778 2.33 8.714 6.703 14.815 13.115l12.194 12.24 2.613 3.497 1.744 4.372 1.745 10.494v.436l1.31.875 4.357 1.31c2.034.291 4.501-.58 7.403-2.62l8.714-8.309c3.2-3.787 4.646-5.828 4.357-6.118.29-.585-.434-3.061-2.179-7.433l-6.969-19.238-3.489-7.433c-6.68-13.987-9.87-23.896-9.582-29.728.29-3.206 1.6-7.138 3.923-11.805l.434-3.057-.434-3.5c-.587-2.622-2.178-5.393-4.8-8.305h-.867c-1.744-1.165-3.046-2.186-3.923-3.06-4.068 2.04-7.837 3.06-11.326 3.06-6.39 0-10.748-2.476-13.07-7.433-.29-.585-.58-1.02-.869-1.31l-.442.875-3.047 3.057c-2.323.875-3.923.875-4.79 0-.58-.871-.877-2.331-.877-4.372v-2.622l-.434-2.186-2.179-6.993c-.578-2.04-1.157-3.791-1.744-5.247-1.447 9.91-1.88 17.778-1.302 23.606.29 2.335.29 3.936 0 4.811l-1.31.436c-1.447 0-3.047-.726-4.791-2.186-2.613-2.041-4.502-5.683-5.668-10.93-.578-2.331-.868-4.807-.868-7.433-2.033.295-5.37.73-10.024 1.315-9.292 1.166-18.585 3.787-27.877 7.869-9.59 4.662-17.283 10.344-23.095 17.047-2.902 3.792-4.936 6.413-6.101 7.873l-2.179 3.497c-7.837 12.24-12.05 25.791-12.637 40.657-.289 8.744 1.745 19.674 6.102 32.79.587 1.75 2.323 5.972 5.233 12.68 1.157 3.206 2.757 6.703 4.791 10.49l8.28 15.301c3.19 6.703 4.935 11.95 5.225 15.741 5.812 3.207 10.458 5.393 13.938 6.558 5.523 2.037 8.28 3.352 8.28 3.932-.29.585-3.48.44-9.582-.435-5.812-.585-13.649-3.206-23.529-7.869-9.87-4.666-19.316-11.95-28.32-21.859-9.87-10.494-17.282-22.154-22.218-34.975-4.067-9.329-8.28-22.444-12.637-39.347-4.356-16.616-7.692-27.691-10.024-33.229-3.19-7.578-7.258-14.28-12.194-20.109-4.646-4.081-7.114-6.267-7.412-6.557-2.612-2.332-6.68-5.102-12.194-8.309-6.97-4.081-11.182-6.558-12.637-7.433l-26.141-12.24c-13.07-4.953-29.477-10.785-49.236-17.488-34.558-11.075-61.43-21.569-80.603-31.478l-15.683-9.615c-7.548-4.666-12.05-7.723-13.505-9.183-6.969-5.247-14.228-11.656-21.784-19.234-8.135-8.163-17.572-19.093-28.32-32.79C44.22 24.482 36.23 13.407 31.583 6.119L28.094 0l5.234 4.807c6.101 6.413 15.393 16.758 27.885 31.039 10.16 11.66 19.896 21.57 29.188 29.732 9.293 8.159 16.56 13.987 21.785 17.488 2.612 2.036 7.114 4.807 13.504 8.304l14.816 8.743c19.172 9.33 45.602 19.093 79.292 29.293 24.694 8.159 41.39 13.99 50.104 17.487 14.236 5.828 27.596 12.531 40.088 20.11l-2.178-4.808c-.579-1.456-.877-3.352-.877-5.683-.289-2.625-.144-4.662.443-6.122l.868-.875 5.225 4.811c1.166 1.456 3.633 4.663 7.412 9.62 4.356 5.537 9.581 10.635 15.683 15.301l3.489 2.186c3.77 2.331 6.246 3.642 7.403 3.932l3.923 2.186 3.48 1.31c2.621.876 4.068 2.187 4.357 3.937 0 1.166-1.591 2.04-4.79 2.622l-4.792.875-5.667-.436c-1.157 0-2.323-.29-3.48-.875a77.064 77.064 0 016.535 13.99c2.902 6.704 6.246 18.364 10.016 34.976 3.778 16.903 7.412 29.438 10.892 37.596 9.59 24.776 24.26 43.284 44.011 55.524a696.06 696.06 0 002.613 1.75c-1.455-2.915-3.634-6.267-6.536-10.058l-10.458-14.427a38.296 38.296 0 01-4.357-7.433c-1.157 1.46-2.178 2.48-3.046 3.062l-3.489.875c-1.157 0-2.178-.585-3.046-1.75-2.621-2.037-3.345-5.243-2.179-9.615l2.179-3.062c.868-.875 2.033-1.46 3.48-1.75l-2.178-3.932a204.402 204.402 0 01-2.179-6.122c-.579 1.75-1.302 3.06-2.178 3.936l-3.48 2.621c-1.167 0-2.324-.875-3.49-2.621-2.323-4.082-3.046-9.619-2.178-16.617l2.178-6.118c1.166-2.04 2.468-3.206 3.923-3.496a84.324 84.324 0 01-.434-8.309v-5.247c-4.357 7.579-6.978 11.805-7.846 12.68l-3.923 2.186c-1.157-.29-2.033-1.605-2.612-3.936-1.455-5.537 0-12.53 4.357-20.984l5.225-6.123c3.2-2.62 5.812-3.496 7.846-2.62 1.455-5.829 3.778-11.516 6.969-17.053-7.259 5.832-11.76 9.329-13.505 10.494l-4.79 2.186c-1.166-.585-1.6-2.33-1.311-5.247 0-2.331 1.021-5.392 3.055-9.18 2.902-4.661 6.97-8.888 12.194-12.68.877-.875 3.634-2.185 8.28-3.931 4.646-1.46 7.846-1.606 9.582-.44l.876-.875a62.225 62.225 0 0112.637-10.49c-5.812.58-11.037 1.746-15.692 3.496-4.646 2.041-7.692 3.207-9.148 3.497l-5.658.875v-1.31c0-1.166.434-2.626 1.301-4.372 1.456-2.626 4.068-5.538 7.846-8.744 6.102-4.082 12.926-6.558 20.474-7.433l11.327.435c5.812.585 9.3 1.896 10.458 3.937 1.166-.585 2.178-.876 3.055-.876l-9.157-4.807c-3.19-1.165-5.37-1.75-6.535-1.75l-2.612-.436h-6.102l-5.659-1.31 3.047-4.812c.587-.875 2.034-1.746 4.357-2.622 1.744-.875 2.765-1.31 3.055-1.31l3.914-.876c1.745-.29 5.089-.145 10.024.436l16.56 8.308c-4.357-3.206-8.28-6.558-11.769-10.054-6.101-5.538-12.194-11.95-18.295-19.238-5.234-6.413-7.99-9.764-8.28-10.055L372.73 65.578c-1.744-3.206-3.2-6.122-4.357-8.744 2.034 11.075 5.37 22.586 10.016 34.536 0 1.165 1.021 3.351 3.055 6.558 3.48 7.578 5.659 12.095 6.535 13.555l7.838 12.24c2.612 4.082 3.489 6.703 2.612 7.869-1.157 1.165-3.625.29-7.403-2.622l-6.535-4.371-5.668-6.558c-2.902-3.501-5.948-8.163-9.148-13.991l-3.923-6.998-6.969-24.045c-.868-2.912-1.744-9.034-2.612-18.359-.29-3.79-.145-8.308.434-13.555 0-3.206.434-6.118 1.31-8.744 0-.58.145-1.02.434-1.31-1.157-6.703-1.157-11.515 0-14.427l.868-2.625 1.31 2.625 4.357 12.676c3.49 7.578 9.438 17.637 17.862 30.168l38.778 55.959c.579.585 8.425 10.494 23.529 29.728l17.428 18.363c4.067 3.496 6.39 6.122 6.969 7.868.579 0 1.31.15 2.178.44 0-3.206.29-6.703.868-10.494 0-2.622 1.31-6.558 3.923-11.805 1.166-2.622 2.613-4.953 4.357-6.993 2.034-1.75 3.634-2.332 4.791-1.75.587.294 1.021 1.314 1.31 3.06l.868.875 4.357 7.434c3.49 5.537 6.102 10.93 7.846 16.176l.434 1.311c0-.29.145-.585.434-.875l.877 1.31c1.744-2.33 5.37-5.247 10.892-8.743l13.939-8.304c7.556-3.501 15.98-8.018 25.273-13.556z" id="Shape"/></g></g></g></svg>