<svg width="40" height="39" xmlns="http://www.w3.org/2000/svg"><defs><linearGradient x1="40.086%" y1="90.151%" x2="67.937%" y2="20.389%" id="linearGradient-1"><stop stop-color="#174E5B" offset="0%"/><stop stop-color="#195A6C" offset="7%"/><stop stop-color="#1E779A" offset="21%"/><stop stop-color="#27A7E3" offset="40%"/><stop stop-color="#2ABAFF" offset="47%"/><stop stop-color="#1DDAF0" offset="70%"/><stop stop-color="#0EFFE0" offset="100%"/></linearGradient><linearGradient x1="59.807%" y1="9.851%" x2="32.098%" y2="79.607%" id="linearGradient-2"><stop stop-color="#174E5B" offset="0%"/><stop stop-color="#195A6C" offset="7%"/><stop stop-color="#1E779A" offset="21%"/><stop stop-color="#27A7E3" offset="40%"/><stop stop-color="#2ABAFF" offset="47%"/><stop stop-color="#1DDAF0" offset="70%"/><stop stop-color="#0EFFE0" offset="100%"/></linearGradient></defs><g id="Page-1" stroke="none" stroke-width="1" fill="none" fill-rule="evenodd"><g id="Home-Ten-" transform="translate(-378 -1681)" fill-rule="nonzero"><g id="injective-protocol-inj-logo" transform="translate(378 1681)"><path d="M24.937 38.039c-.097-.097-.193-.194-.29-.194-2.216-.484-4.433-1.258-6.361-2.42-4.048-2.42-6.747-6-6.843-10.163 0-1.548.289-3.097.963-4.549.386-.968 2.7-4.259 2.988-4.84 1.543-2.42 1.06-2.226-1.156-5.226l-3.085-4.55L9.13 3c-1.156.774-2.313 1.742-3.373 2.71-2.12 2.13-3.76 4.84-4.723 7.744a20.41 20.41 0 00-.868 9.001c.386 3.001 1.542 5.905 3.277 8.421 1.735 2.517 4.049 4.646 6.651 6.098C3.25 31.941.07 24.294 2.671 16.648c.675-2.033 1.735-3.969 3.085-5.711l2.217 3.291c.096.194.192.387.192.678 0 .193-.096.483-.192.677-1.06 1.355-1.928 2.807-2.506 4.453-2.892 8.42 4.915 17.132 13.108 18.584 1.542.29 4.434.58 5.976.193.097 0 .193-.096.193-.096.096-.097.096-.097.096-.194v-.29c.193 0 .193-.097.097-.194z" id="Path" fill="url(#linearGradient-1)"/><path d="M15.096.961c.096.097.192.194.288.194 2.205.484 4.41 1.258 6.328 2.42 4.028 2.42 6.713 6 6.809 10.163 0 1.548-.288 3.097-.96 4.549-.383.968-2.684 4.259-2.972 4.84-1.534 2.42-1.055 2.226 1.15 5.226l3.07 4.55L30.917 36c1.15-.774 2.301-1.742 3.356-2.71 2.11-2.13 3.74-4.84 4.699-7.744a20.51 20.51 0 00.863-9.001c-.384-3.001-1.535-5.905-3.26-8.421-1.727-2.517-4.028-4.646-6.617-6.098 6.808 5.033 9.973 12.68 7.288 20.326-.672 2.033-1.726 3.969-3.069 5.711l-2.205-3.291c-.096-.194-.192-.387-.192-.678 0-.193.096-.483.192-.677 1.054-1.355 1.917-2.807 2.493-4.453 2.876-8.42-4.89-17.132-13.041-18.584-1.534-.29-4.41-.58-5.945-.193-.095 0-.191.096-.191.096-.192 0-.288.097-.288.194v.29s0 .097.096.194z" id="Path" fill="url(#linearGradient-2)"/></g></g></g></svg>