<svg width="33" height="32" xmlns="http://www.w3.org/2000/svg" xmlns:xlink="http://www.w3.org/1999/xlink"><defs><path id="path-1" d="M.012.042h19.036V18.97H.012z"/><path id="path-3" d="M0 .05h6.989v8.914H0z"/><path id="path-5" d="M0 32h32V0H0z"/></defs><g id="Page-1" stroke="none" stroke-width="1" fill="none" fill-rule="evenodd"><g id="pop-up" transform="translate(-689 -404)"><g id="Group-2" transform="translate(616 208)"><g id="Group-12" transform="translate(73 196)"><g id="Group-3" transform="translate(13)"><mask id="mask-2" fill="#fff"><use xlink:href="#path-1"/></mask><path d="M14.118.042H.012V18.97h19.036V4.944c0-2.716-2.199-4.902-4.93-4.902" id="Fill-1" fill="#1D2028" mask="url(#mask-2)"/></g><g id="Group-6"><mask id="mask-4" fill="#fff"><use xlink:href="#path-3"/></mask><path d="M6.989.05H4.684C2.089.05 0 2.716 0 6.025v2.94h6.989V.05z" id="Fill-4" fill="#1D2028" mask="url(#mask-4)"/></g><mask id="mask-6" fill="#fff"><use xlink:href="#path-5"/></mask><path id="Fill-7" fill="#1D2028" mask="url(#mask-6)" d="M0 19h7v-7H0z"/><path d="M25 32h2.309C29.908 32 32 29.886 32 27.258V25h-7v7z" id="Fill-9" fill="#1D2028" mask="url(#mask-6)"/><path id="Fill-10" fill="#1D2028" mask="url(#mask-6)" d="M13 32h7v-7h-7z"/><path d="M0 25v2.309A4.68 4.68 0 004.691 32H7v-7H0z" id="Fill-11" fill="#1D2028" mask="url(#mask-6)"/></g></g></g></g></svg>