<svg width="102" height="103" xmlns="http://www.w3.org/2000/svg"><defs><linearGradient x1="0%" y1="0%" x2="100%" y2="0%" id="linearGradient-1"><stop stop-color="#0DF" offset="0%"/><stop stop-color="#FF00D4" offset="100%"/></linearGradient><linearGradient x1="0%" y1="0%" x2="100%" y2="0%" id="linearGradient-2"><stop stop-color="#0DF" offset="0%"/><stop stop-color="#FF00D4" offset="100%"/></linearGradient><linearGradient x1="0%" y1="0%" x2="100%" y2="0%" id="linearGradient-3"><stop stop-color="#0DF" offset="0%"/><stop stop-color="#FF00D4" offset="100%"/></linearGradient><linearGradient x1="0%" y1="0%" x2="100%" y2="0%" id="linearGradient-4"><stop stop-color="#0DF" offset="0%"/><stop stop-color="#FF00D4" offset="100%"/></linearGradient><linearGradient x1="0%" y1="0%" x2="100%" y2="0%" id="linearGradient-5"><stop stop-color="#0DF" offset="0%"/><stop stop-color="#FF00D4" offset="100%"/></linearGradient><linearGradient x1="0%" y1="0%" x2="100%" y2="0%" id="linearGradient-6"><stop stop-color="#0DF" offset="0%"/><stop stop-color="#FF00D4" offset="100%"/></linearGradient><linearGradient x1="0%" y1="0%" x2="100%" y2="0%" id="linearGradient-7"><stop stop-color="#0DF" offset="0%"/><stop stop-color="#FF00D4" offset="100%"/></linearGradient><linearGradient x1="0%" y1="0%" x2="100%" y2="0%" id="linearGradient-8"><stop stop-color="#0DF" offset="0%"/><stop stop-color="#FF00D4" offset="100%"/></linearGradient><linearGradient x1="0%" y1="0%" x2="100%" y2="0%" id="linearGradient-9"><stop stop-color="#0DF" offset="0%"/><stop stop-color="#FF00D4" offset="100%"/></linearGradient><linearGradient x1="0%" y1="0%" x2="100%" y2="0%" id="linearGradient-10"><stop stop-color="#0DF" offset="0%"/><stop stop-color="#FF00D4" offset="100%"/></linearGradient><linearGradient x1="0%" y1="0%" x2="100%" y2="0%" id="linearGradient-11"><stop stop-color="#0DF" offset="0%"/><stop stop-color="#FF00D4" offset="100%"/></linearGradient><linearGradient x1="0%" y1="0%" x2="100%" y2="0%" id="linearGradient-12"><stop stop-color="#0DF" offset="0%"/><stop stop-color="#FF00D4" offset="100%"/></linearGradient><linearGradient x1="0%" y1="0%" x2="100%" y2="0%" id="linearGradient-13"><stop stop-color="#0DF" offset="0%"/><stop stop-color="#FF00D4" offset="100%"/></linearGradient><linearGradient x1="0%" y1="0%" x2="100%" y2="0%" id="linearGradient-14"><stop stop-color="#0DF" offset="0%"/><stop stop-color="#FF00D4" offset="100%"/></linearGradient><linearGradient x1="0%" y1="0%" x2="100%" y2="0%" id="linearGradient-15"><stop stop-color="#0DF" offset="0%"/><stop stop-color="#FF00D4" offset="100%"/></linearGradient><linearGradient x1="0%" y1="0%" x2="100%" y2="0%" id="linearGradient-16"><stop stop-color="#0DF" offset="0%"/><stop stop-color="#FF00D4" offset="100%"/></linearGradient><linearGradient x1="0%" y1="0%" x2="100%" y2="0%" id="linearGradient-17"><stop stop-color="#0DF" offset="0%"/><stop stop-color="#FF00D4" offset="100%"/></linearGradient><linearGradient x1="0%" y1="0%" x2="100%" y2="0%" id="linearGradient-18"><stop stop-color="#0DF" offset="0%"/><stop stop-color="#FF00D4" offset="100%"/></linearGradient><linearGradient x1="0%" y1="0%" x2="100%" y2="0%" id="linearGradient-19"><stop stop-color="#0DF" offset="0%"/><stop stop-color="#FF00D4" offset="100%"/></linearGradient><linearGradient x1="0%" y1="0%" x2="100%" y2="0%" id="linearGradient-20"><stop stop-color="#0DF" offset="0%"/><stop stop-color="#FF00D4" offset="100%"/></linearGradient><linearGradient x1="0%" y1="0%" x2="100%" y2="0%" id="linearGradient-21"><stop stop-color="#0DF" offset="0%"/><stop stop-color="#FF00D4" offset="100%"/></linearGradient><linearGradient x1="0%" y1="0%" x2="100%" y2="0%" id="linearGradient-22"><stop stop-color="#0DF" offset="0%"/><stop stop-color="#FF00D4" offset="100%"/></linearGradient><linearGradient x1="0%" y1="0%" x2="100%" y2="0%" id="linearGradient-23"><stop stop-color="#0DF" offset="0%"/><stop stop-color="#FF00D4" offset="100%"/></linearGradient><linearGradient x1="0%" y1="0%" x2="100%" y2="0%" id="linearGradient-24"><stop stop-color="#0DF" offset="0%"/><stop stop-color="#FF00D4" offset="100%"/></linearGradient><linearGradient x1="0%" y1="0%" x2="100%" y2="0%" id="linearGradient-25"><stop stop-color="#0DF" offset="0%"/><stop stop-color="#FF00D4" offset="100%"/></linearGradient><linearGradient x1="0%" y1="0%" x2="100%" y2="0%" id="linearGradient-26"><stop stop-color="#0DF" offset="0%"/><stop stop-color="#FF00D4" offset="100%"/></linearGradient><linearGradient x1="0%" y1="0%" x2="100%" y2="0%" id="linearGradient-27"><stop stop-color="#0DF" offset="0%"/><stop stop-color="#FF00D4" offset="100%"/></linearGradient><linearGradient x1="0%" y1="0%" x2="100%" y2="0%" id="linearGradient-28"><stop stop-color="#0DF" offset="0%"/><stop stop-color="#FF00D4" offset="100%"/></linearGradient><linearGradient x1="0%" y1="0%" x2="100%" y2="0%" id="linearGradient-29"><stop stop-color="#0DF" offset="0%"/><stop stop-color="#FF00D4" offset="100%"/></linearGradient><linearGradient x1="0%" y1="0%" x2="100%" y2="0%" id="linearGradient-30"><stop stop-color="#0DF" offset="0%"/><stop stop-color="#FF00D4" offset="100%"/></linearGradient><linearGradient x1="0%" y1="0%" x2="100%" y2="0%" id="linearGradient-31"><stop stop-color="#0DF" offset="0%"/><stop stop-color="#FF00D4" offset="100%"/></linearGradient><linearGradient x1="0%" y1="0%" x2="100%" y2="0%" id="linearGradient-32"><stop stop-color="#0DF" offset="0%"/><stop stop-color="#FF00D4" offset="100%"/></linearGradient><linearGradient x1="0%" y1="0%" x2="100%" y2="0%" id="linearGradient-33"><stop stop-color="#0DF" offset="0%"/><stop stop-color="#FF00D4" offset="100%"/></linearGradient><linearGradient x1="0%" y1="0%" x2="100%" y2="0%" id="linearGradient-34"><stop stop-color="#0DF" offset="0%"/><stop stop-color="#FF00D4" offset="100%"/></linearGradient><linearGradient x1="0%" y1="0%" x2="100%" y2="0%" id="linearGradient-35"><stop stop-color="#0DF" offset="0%"/><stop stop-color="#FF00D4" offset="100%"/></linearGradient><linearGradient x1="0%" y1="0%" x2="100%" y2="0%" id="linearGradient-36"><stop stop-color="#0DF" offset="0%"/><stop stop-color="#FF00D4" offset="100%"/></linearGradient><linearGradient x1="0%" y1="0%" x2="100%" y2="0%" id="linearGradient-37"><stop stop-color="#0DF" offset="0%"/><stop stop-color="#FF00D4" offset="100%"/></linearGradient></defs><g id="Page-1" stroke="none" stroke-width="1" fill="none" fill-rule="evenodd"><g id="Deep-Stake" transform="translate(-346 -48)" fill-rule="nonzero"><g id="Color-logo---no-background" transform="translate(346 48.982)"><g id="SvgjsG48328" transform="translate(0 .018)"><path d="M1.59 50.515v1.408-2.815c.201.402 0 .804 0 1.407zm98.062-1.608v1.407c0-.603.202-.804 0-1.407z" id="Shape" fill="url(#linearGradient-1)"/><path d="M99.652 38.049c0-.403-.202-.805-.404-1.207-7.28-26.542-34.98-42.225-61.87-34.987C20.19 6.681 6.643 19.952 1.993 37.043c0 .402-.203.804-.405 1.207a50.363 50.363 0 000 24.53c0 .403.202.805.405 1.207 7.48 26.743 35.18 42.427 62.072 35.188C81.253 94.55 94.597 81.078 99.45 63.987c0-.402.202-.804.404-1.206 2.022-8.244 2.022-16.69-.202-24.732zM98.64 60.97c-.202.603-.202 1.005-.404 1.609-.203.603-.203.804-.405 1.206-7.48 25.939-34.574 41.02-60.657 33.58C21 92.74 8.262 79.871 3.61 63.785c-.202-.402-.202-.804-.404-1.206 0-.403-.202-1.006-.405-1.609-.606-3.016-1.01-6.233-1.213-9.25v-2.814c0-3.218.405-6.234 1.213-9.25.203-.603.203-1.005.405-1.608.202-.604.202-.805.404-1.207C10.89 11.104 38.185-3.977 64.065 3.463c16.378 4.624 29.116 17.292 33.766 33.58.202.401.202.803.405 1.206 0 .402.202 1.005.404 1.608.607 3.016 1.01 6.234 1.213 9.25v2.815a69.39 69.39 0 01-1.213 9.048z" id="Shape" fill="url(#linearGradient-2)"/><circle id="Oval" fill="url(#linearGradient-3)" cx="50.722" cy="91.333" r="1"/><circle id="Oval" fill="url(#linearGradient-4)" transform="rotate(-82.992 45.73 91.176)" cx="45.731" cy="91.176" r="1"/><circle id="Oval" fill="url(#linearGradient-5)" transform="rotate(-76.001 40.704 90.127)" cx="40.704" cy="90.127" r="1"/><circle id="Oval" fill="url(#linearGradient-6)" transform="rotate(-68.999 35.949 88.544)" cx="35.949" cy="88.544" r="1"/><circle id="Oval" fill="url(#linearGradient-7)" transform="rotate(-62.01 31.331 86.592)" cx="31.331" cy="86.592" r="1"/><circle id="Oval" fill="url(#linearGradient-8)" transform="rotate(-54.992 26.991 83.94)" cx="26.991" cy="83.94" r="1"/><circle id="Oval" fill="url(#linearGradient-9)" transform="rotate(-48 23.136 80.681)" cx="23.136" cy="80.681" r="1"/><circle id="Oval" fill="url(#linearGradient-10)" transform="rotate(-41.001 19.631 77.286)" cx="19.631" cy="77.286" r="1"/><circle id="Oval" fill="url(#linearGradient-11)" transform="rotate(-34.002 16.547 73.259)" cx="16.547" cy="73.259" r="1"/><circle id="Oval" fill="url(#linearGradient-12)" transform="rotate(-27 14.155 68.976)" cx="14.155" cy="68.976" r="1"/><circle id="Oval" fill="url(#linearGradient-13)" transform="rotate(-7.008 55.763 90.936)" cx="55.763" cy="90.936" r="1"/><circle id="Oval" fill="url(#linearGradient-14)" transform="rotate(-13.999 60.84 90.111)" cx="60.839" cy="90.111" r="1"/><circle id="Oval" fill="url(#linearGradient-15)" transform="rotate(-21.009 65.466 88.549)" cx="65.466" cy="88.549" r="1"/><circle id="Oval" fill="url(#linearGradient-16)" transform="rotate(-27.99 69.893 86.554)" cx="69.893" cy="86.554" r="1"/><circle id="Oval" fill="url(#linearGradient-17)" transform="rotate(-35 74.32 83.879)" cx="74.32" cy="83.879" r="1"/><circle id="Oval" fill="url(#linearGradient-18)" transform="rotate(-42 78.234 80.898)" cx="78.234" cy="80.898" r="1"/><circle id="Oval" fill="url(#linearGradient-19)" transform="rotate(-48.997 81.841 77.219)" cx="81.841" cy="77.219" r="1"/><circle id="Oval" fill="url(#linearGradient-20)" transform="rotate(-55.998 84.923 73.235)" cx="84.923" cy="73.235" r="1"/><circle id="Oval" fill="url(#linearGradient-21)" transform="rotate(-63 87.47 68.944)" cx="87.47" cy="68.944" r="1"/><g id="Group" transform="translate(13.278 8.623)"><circle id="Oval" fill="url(#linearGradient-3)" cx="37.444" cy=".672" r="1"/><circle id="Oval" fill="url(#linearGradient-13)" transform="rotate(-7.008 32.4 1.079)" cx="32.399" cy="1.079" r="1"/><circle id="Oval" fill="url(#linearGradient-14)" transform="rotate(-13.999 27.527 1.86)" cx="27.527" cy="1.86" r="1"/><circle id="Oval" fill="url(#linearGradient-22)" transform="rotate(-21.001 22.655 3.484)" cx="22.655" cy="3.484" r="1"/><circle id="Oval" fill="url(#linearGradient-23)" transform="rotate(-27.99 18.002 5.531)" cx="18.002" cy="5.531" r="1"/><circle id="Oval" fill="url(#linearGradient-24)" transform="rotate(-35.008 13.785 8.103)" cx="13.785" cy="8.103" r="1"/><circle id="Oval" fill="url(#linearGradient-25)" transform="rotate(-42 9.923 11.286)" cx="9.923" cy="11.286" r="1"/><circle id="Oval" fill="url(#linearGradient-26)" transform="rotate(-48.997 6.362 14.954)" cx="6.362" cy="14.954" r="1"/><circle id="Oval" fill="url(#linearGradient-27)" transform="rotate(-55.998 3.21 18.813)" cx="3.209" cy="18.813" r="1"/><circle id="Oval" fill="url(#linearGradient-28)" transform="rotate(-63 .817 23.1)" cx=".817" cy="23.099" r="1"/><circle id="Oval" fill="url(#linearGradient-4)" transform="rotate(-82.992 42.47 1.081)" cx="42.47" cy="1.081" r="1"/><circle id="Oval" fill="url(#linearGradient-5)" transform="rotate(-76.001 47.532 1.948)" cx="47.532" cy="1.948" r="1"/><circle id="Oval" fill="url(#linearGradient-29)" transform="rotate(-68.991 52.18 3.558)" cx="52.18" cy="3.558" r="1"/><circle id="Oval" fill="url(#linearGradient-30)" transform="rotate(-62.01 56.67 5.544)" cx="56.67" cy="5.544" r="1"/><circle id="Oval" fill="url(#linearGradient-31)" transform="rotate(-55 61.056 8.05)" cx="61.056" cy="8.051" r="1"/><circle id="Oval" fill="url(#linearGradient-32)" transform="rotate(-48 65.01 11.305)" cx="65.01" cy="11.305" r="1"/><circle id="Oval" fill="url(#linearGradient-33)" transform="rotate(-41.001 68.494 14.713)" cx="68.494" cy="14.713" r="1"/><circle id="Oval" fill="url(#linearGradient-34)" transform="rotate(-34.002 71.649 18.946)" cx="71.649" cy="18.946" r="1"/><circle id="Oval" fill="url(#linearGradient-35)" transform="rotate(-27 74.007 23.041)" cx="74.007" cy="23.041" r="1"/></g></g><g id="SvgjsG48329" transform="translate(28 17.018)" fill="url(#linearGradient-36)"><path d="M1.67 8.958c.896 1.158 2.21 2.146 3.942 2.964.04.02.926.41 2.657 1.168 1.753.699 2.609 1.118 2.57 1.257-.06.2-.996.02-2.808-.538-.617-.18-1.255-.39-1.912-.63-.557-.239-.856-.379-.895-.418-1.971-.939-3.365-2.056-4.181-3.354C.665 8.828.416 8.3.296 7.821a1.95 1.95 0 01-.15-.63 5.217 5.217 0 00-.059-.508c-.02-.26-.02-.5 0-.719.02-.2.03-.329.03-.389l.06-.21.09.21c.059.1.149.44.268 1.018.299.938.677 1.726 1.135 2.365zm-.09-6.736l.508 1.108c.279.738.687 1.516 1.224 2.335.936 1.437 2.051 2.625 3.345 3.563.02.06.269.23.747.509a9.359 9.359 0 001.672.838l1.762.539c.557.1.836.2.836.3 0 .08-.299.14-.896.179l-.896-.06-1.045-.24a8.55 8.55 0 01-1.881-.778c-.538-.32-.817-.489-.837-.509a12.243 12.243 0 01-3.493-3.922c-.479-.898-.807-1.766-.986-2.605-.06-.598-.1-.948-.12-1.048l.06-.21zm13.5 31.706c-.08-.02-.17-.06-.27-.12a3.474 3.474 0 00-1.045-.329c-.577-.04-1.084 0-1.522.12-.598.14-1.066.42-1.404.838-.12.2-.249.46-.388.779l-.24.479c-.238.3-.367.459-.387.479l-.419.27a6.8 6.8 0 00-.298.239l-.209.21-.12.239-.03.3-.03.119v.06l.33.988c.099.34.079.649-.06.928l.029-.03-.268.45a1.14 1.14 0 01-.448.359c-.1.06-.28.11-.538.15-.24-.02-.408-.05-.507-.09-.24-.14-.379-.23-.419-.27l-.328-.33a3.47 3.47 0 01-.21-.448l-.059-.39c-.04-.698-.07-1.068-.09-1.107a.99.99 0 00-.597-.57c-.219-.1-.498-.13-.836-.09l-.388.12-.389.21c-.417.28-.716.45-.896.51-.398.179-.766.209-1.104.089-.3-.08-.568-.2-.807-.36 0 .02.01.05.03.09.08.26.25.5.508.719.298.22.637.36 1.015.42.14.039.389.08.747.119.318.06.597.17.836.33.557.379.886.977.985 1.796.08.479.11 1.197.09 2.156.06.798.399 1.367 1.016 1.706.378.2.756.33 1.134.39.438.059.866.049 1.284-.03l.657-.15.597-.33c.18-.14.3-.29.36-.449l.328-.778.12-.18c.098-.2.198-.34.298-.42.08-.119.279-.278.597-.478l.747-.33c.278-.1.497-.219.656-.359.24-.24.379-.449.419-.629.159-.419.089-1.027-.21-1.826l-.417-1.018a3.86 3.86 0 01-.18-1.167c0-.7.19-1.338.567-1.917.06-.08.12-.15.18-.21-.12.04-.22.08-.3.12-.277.12-.556.32-.835.6-.199.239-.308.359-.328.359-.518.658-.896 1.517-1.135 2.574-.04.16-.14.679-.299 1.557-.06.4-.1.61-.12.629l-.059.12-.09-.09c-.08-.2-.14-.42-.179-.659-.1-.399-.11-.958-.03-1.676.04-.46.14-.919.299-1.378.239-.698.537-1.257.896-1.676l.448-.45.507-.359c.399-.14.617-.22.658-.239.397-.14.796-.18 1.194-.12.219.02.378.06.478.12.12-.02.209-.03.269-.03.04-.16.109-.38.209-.659zm6.629-5.808c.06.08-.258.479-.955 1.198-.28.319-.677.668-1.195 1.047l-.806.48-.866.329c-.538.22-.906.529-1.105.928-.279.659-.478 1.128-.598 1.407a8.219 8.219 0 00-.448 1.497l-.119.629c0 .14-.01.35-.03.629l.09.539c.12.299.189.459.209.478.139.26.358.55.657.869.16.2.418.479.776.838l.389.48.298.478c.22.34.329.719.329 1.138 0 .32-.1.679-.299 1.078-.16.26-.338.509-.538.748-.577.659-.896 1.038-.955 1.138-.22.32-.289.609-.21.868.06.14.23.42.509.839.218.339.348.618.388.838.06.36.1.768.12 1.227l-.03.51c.02.06.059.16.119.299.08.16.308.31.686.449l.598.24.508.359.418.389.627.719c.259.339.428.608.507.808.06.26.04.569-.06.928l-.06.27c.1.18.28.329.539.449l1.164.599c-.02.12-.278.17-.776.15l-.657-.15-.448-.21-.27-.18-.238-.27c-.12-.179-.149-.468-.09-.868.04-.18.05-.329.03-.449l-.358-.509-.926-.988-.806-.598a2.83 2.83 0 01-.597-.39.752.752 0 01-.18-.329.672.672 0 01-.06-.3c-.019-.279.02-.448.12-.508l-.328-1.527c-.1-.24-.239-.46-.418-.659-.319-.42-.528-.719-.628-.898a1.184 1.184 0 01-.089-.779c.04-.2.14-.439.299-.718.06-.1.378-.52.955-1.258.418-.579.617-1.018.597-1.317 0-.36-.278-.858-.835-1.497-.34-.34-.598-.609-.777-.809a5.334 5.334 0 01-.836-1.047 2.35 2.35 0 01-.27-.689c-.039-.08-.078-.34-.119-.778.02-.32.03-.57.03-.749l.15-.688v-.09c-.06.04-.16.08-.3.12-.338.16-.606.429-.805.808-.26.439-.368.988-.329 1.647.04.359.11.658.21.898l.417.988c.379.998.488 1.796.329 2.395-.239.719-.747 1.238-1.523 1.557-.538.2-.876.399-1.016.599-.06.04-.12.12-.179.24l-.09.149-.328.778c-.12.3-.338.55-.657.749a3.855 3.855 0 01-1.642.658c-.558.1-1.095.1-1.613 0-.558-.1-1.035-.279-1.434-.538a2.647 2.647 0 01-1.045-1.048c-.16-.34-.258-.779-.299-1.318.04-1.018.03-1.726-.03-2.125-.039-.34-.108-.6-.208-.779-.12-.24-.269-.42-.448-.539-.18-.12-.617-.25-1.314-.39-.538-.139-.956-.358-1.254-.658-.319-.32-.508-.648-.568-.988-.08-.22-.12-.479-.12-.778a1.958 1.958 0 01-.09-.15c-.318-.519-.407-1.038-.267-1.557.159-.379.457-.678.895-.898.398-.16.747-.2 1.046-.12.318.06.537.22.656.48.1.179.15.379.15.598 0 .38-.12.589-.358.629-.06.04-.16.06-.299.06l-.06-.03.299-.15c.139-.08.179-.25.12-.509-.06-.439-.27-.659-.628-.659-.199 0-.428.05-.687.15-.299.2-.478.42-.537.659l.09.659c.04.1.099.209.178.329.26.38.597.609 1.016.688.298.08.756-.11 1.373-.568l.479-.27.328-.12.299-.06c.457-.1.886-.06 1.283.12.479.2.837.53 1.076.988.099.24.16.5.179.779v.628l.06.24.09.15.119.15.179.09c.12.059.229.059.328 0 .06-.02.13-.11.21-.27l.03-.03c0-.16-.01-.27-.03-.33l-.15-.479c-.08-.22-.13-.429-.15-.628l-.03-.24.03-.21.21-.658.15-.24c.079-.14.198-.269.357-.389.04-.02.18-.11.419-.27l.328-.209.21-.27.208-.389c.279-.478.458-.768.538-.868.458-.559 1.075-.898 1.851-1.018a4.161 4.161 0 011.792.03c.358.12.717.31 1.075.57.06.079.12.149.18.209.06-.18.129-.38.208-.6.339-.798.568-1.297.687-1.496.02-.06.12-.2.299-.42a.978.978 0 01.388-.359l.209-.15.239-.119 1.314-.48.717-.359a8.901 8.901 0 001.224-.868c.816-.598 1.244-.868 1.284-.808zm-1.493-.928c0 .18-.05.38-.15.599-.118.3-.278.578-.477.838-.737.838-1.474 1.287-2.21 1.347-.16.02-.278.01-.358-.03l-.09-.06.03-.09c.06-.08.15-.16.269-.239.08-.08.278-.24.597-.479a8.62 8.62 0 001.045-1.048l.538-.629c.378-.419.607-.609.687-.568.08.04.119.16.119.359zm3.614 1.856c-.359.4-.538.609-.538.629-.219.22-.607.499-1.165.838-.279.14-.537.23-.776.27-.14.02-.25.02-.328 0l-.06-.03v-.09c.04-.08.1-.18.18-.3.278-.259.457-.429.536-.509.16-.16.498-.459 1.016-.898l.597-.479c.418-.3.687-.389.806-.27.12.1.03.38-.268.839zm3.016-1.796c.1.1-.01.429-.328.988l-.568.838c-.458.539-.916.968-1.374 1.287-.398.22-.707.35-.926.39-.179.04-.318.05-.417.03l-.09-.03.298-.42a16.787 16.787 0 001.762-1.856l.717-.748c.498-.44.806-.599.926-.48zm8.72 3.323c.239-.06.557-.13.956-.21l.597-.15.239-.089c.259-.12.528-.21.806-.27l.239-.03.299.03c.239.1.398.18.477.24.24.24.379.519.418.838l.09.6.03.029.09.569c.06.22.09.439.09.658v.09l-.06.21v.03h-.03v.06l-.03.06-.09.12-.149.15a.838.838 0 01-.24.209l-.088.06-.33.658c-.138.14-.228.22-.268.24-.2.08-.418.07-.657-.03l-.269-.18-.15-.15c-.118-.14-.198-.219-.238-.239-.04-.02-.1.01-.179.09-.16.32-.249.549-.269.688-.1.3-.15.54-.15.72l-.06.149-.059-.15c-.1-.2-.139-.46-.12-.779 0-.179.02-.319.06-.418.06-.24.11-.4.15-.48.14-.339.338-.509.597-.509.2-.02.458.13.777.45l.12.09.03.03.088-.03v-.03l.06-.09.21-.48c.099-.14.228-.269.388-.389h.03l.059-.12v-.06l-.209-1.047c-.12-.58-.199-.879-.239-.898l-.03-.03-.06-.03h-.178l-.598.21-.298.149-.747.15c-1.055.18-1.692.309-1.911.389l-.12.06c-.02.1-.169.319-.448.658l-1.075 1.348a8.896 8.896 0 01-1.224 1.227 34.4 34.4 0 00-.717.57 4.78 4.78 0 01-2.688.808c-.198 0-.866-.03-2-.09h-.359c-.04.16-.08.359-.12.598-.04.22-.089.6-.149 1.138-.099.52-.219.968-.358 1.348a6.796 6.796 0 01-.747 1.197c-.358.44-.607.738-.746.898-.418.54-.627.859-.627.958l-.18.39-.119.419c0 .18.04.389.12.629.179.299.547.628 1.105.988l1.94 1.137.27.3c.06.04.129.14.208.3l.18.328.06.33.03.599-.09 2.065-.06.33c-.04.12-.09.29-.15.509l-.447.748-.09.21-.03-.24c-.02-.06.01-.23.09-.509l.119-.359.06-.719-.09-1.107c0-.4-.01-.709-.03-.928 0-.38-.069-.67-.208-.869-.14-.2-.429-.419-.867-.659a42.331 42.331 0 01-1.373-.688c-.697-.44-1.165-.878-1.404-1.317a1.882 1.882 0 01-.239-1.228l.15-.569.238-.539c.12-.24.359-.599.717-1.078.16-.18.428-.469.806-.868.299-.359.528-.689.687-.988.14-.28.279-.669.418-1.167.18-.62.29-.989.329-1.108.06-.18.13-.33.209-.45-.557.04-1.025.16-1.404.36-.1.06-.308.2-.627.419.08.3.08.659 0 1.078-.02.1-.12.39-.298.868l-.478 1.467c-.319.858-.568 1.377-.747 1.557-.1.16-.278.37-.537.629-.378.28-.578.42-.598.42l-.12.089.06.03c.359.24.697.718 1.016 1.437l.149.419.09.18.06.24.119.269c.02.02.04.03.06.03l.597.12c.418.04.737.11.956.209l-.03-.03c.418.16.786.39 1.105.689.219.22.358.389.418.509.16.2.239.409.239.628.04.22-.04.46-.24.719l-.328.33c-.219.219-.358.378-.418.478-.14.24-.12.49.06.749.08.1.249.27.508.509l.627.449.09.12h-.15c-.18 0-.448-.07-.806-.21a2.37 2.37 0 01-.747-.509c-.179-.22-.289-.419-.328-.599-.08-.24-.05-.529.09-.868.059-.14.228-.37.507-.689l.24-.3.059-.089-.15-.24a1.25 1.25 0 00-.269-.299c-.218-.2-.487-.36-.806-.479l-.03-.03-.985-.15-.597-.21c-.24-.099-.399-.249-.478-.448l-.359-1.228c-.16-.639-.348-1.077-.567-1.317-.1-.06-.16-.12-.18-.18l-.597.33c-.696.359-1.124.818-1.284 1.377-.12.419-.04.978.239 1.677.14.299.408.788.807 1.467l.806 1.227c.279.42.538.679.776.779.08.04.23.11.448.21.2.1.369.199.508.298.14.12.25.27.328.45l.12.449c.04.24.04.479 0 .718-.02.14-.05.31-.09.51l-.12.598-.03.33c-.039-.02-.078-.13-.119-.33l-.03-.659c0-.559-.03-.918-.089-1.077-.08-.3-.19-.49-.329-.57a4.431 4.431 0 01-.925-.359c-.28-.12-.627-.429-1.046-.928l-.866-1.227a8.227 8.227 0 01-.925-1.557c-.358-.798-.468-1.537-.329-2.216l.09-.329.15-.3c.079-.18.208-.359.387-.538.28-.3.638-.57 1.075-.809l1.076-.628c.14-.06.298-.17.478-.33l.387-.449c.24-.34.469-.788.688-1.347l.567-1.467c.279-.699.378-1.188.299-1.467-.02-.18-.11-.43-.27-.749-.218-.439-.338-.698-.357-.778-.26-.58-.419-1.078-.479-1.497-.02-.08-.03-.3-.03-.66.04-.239.08-.398.12-.478.16-.26.25-.38.27-.36.039.02.039.16 0 .42v.419c.059.32.099.509.119.569.06.22.248.649.567 1.287.08.16.209.41.388.749.14.22.25.429.328.629.12-.2.27-.38.448-.54.558-.518 1.374-.778 2.45-.778l1.94-.03c.359 0 .727-.06 1.105-.18.399-.1.767-.269 1.105-.508.08 0 .299-.15.657-.45a15.4 15.4 0 001.255-1.107c.517-.52.946-.909 1.284-1.168l.179-.12c-.12.04-.219.07-.299.09-.418.12-.766.15-1.045.09-.299-.04-.507-.15-.627-.33-.14-.16-.17-.259-.09-.299.02-.02.11.01.27.09.139.06.298.08.477.06.2-.02.468-.1.807-.24.179-.08.497-.22.955-.419.299-.16.657-.28 1.075-.359zm-6.72-4.79c.14-.24.25-.35.329-.33.1 0 .15.14.15.42v.419l-.269.958-.388.808a5.562 5.562 0 01-1.792 1.677c-.598.279-1.006.419-1.225.419-.239.02-.408.02-.508 0l-.089-.06.06-.09c.08-.08.209-.18.388-.3.597-.379.916-.588.955-.628.518-.4.996-.908 1.434-1.527l.418-.659.538-1.107zm6.391-10.3c-.198-.04-.388-.24-.567-.599l-.06-.269c-.04-.14 0-.29.12-.449.119-.16.279-.16.478 0 .179.12.269.21.269.27.179.339.228.608.149.808-.02.12-.06.2-.12.24a.316.316 0 01-.269 0zM23.83 24.976l-.06-.06.179-.3c.1-.099.239-.189.418-.268l.807-.39c.02 0 .189-.05.507-.15.338-.08.548-.05.627.09.14.22-.109.51-.746.869-.18.1-.498.21-.956.33a1.654 1.654 0 01-.538-.031.66.66 0 01-.238-.09zm-.09-1.527c.12.02.199.06.24.12v.27c-.1.16-.19.259-.27.299-.04.04-.14.08-.298.12-.16.08-.299.11-.419.09a.736.736 0 01-.418-.12c-.238-.14-.318-.29-.238-.45.06-.179.189-.269.388-.269.1-.02.19-.04.268-.06l.21-.03.537.03zm-3.375-3.712l1.285.359c.139.06.229.12.268.18 0 .08-.07.17-.209.27-.358.258-.885.299-1.582.119-.08 0-.25-.09-.508-.27-.299-.2-.418-.379-.359-.538.08-.16.29-.22.627-.18l.478.06zm2.06 2.784c0 .08-.059.15-.178.21-.26.18-.677.21-1.254.09-.16-.04-.299-.11-.418-.21-.26-.18-.339-.36-.24-.539.08-.14.25-.21.508-.21l.388.03c.578.16.916.29 1.016.39.12.08.179.16.179.24zm-6.002-1.287c.02.12-.617.399-1.911.838-1.334.38-2.01.569-2.03.569-1.534.3-2.837.3-3.913 0-.776-.24-1.393-.589-1.851-1.048-.1-.1-.26-.31-.478-.629l-.06-.15.15.03.686.39c.518.3 1.095.509 1.733.628.935.2 2.12.15 3.553-.15l2.031-.389c1.334-.239 2.03-.269 2.09-.09zm1.016 5.658l.627-.598c.398-.4.657-.58.776-.54.08.04.11.16.09.36-.04.2-.12.41-.24.629l-.567.778c-.816.818-1.592 1.228-2.329 1.228-.179 0-.308-.02-.388-.06l-.06-.06.329-.33c.1-.06.318-.209.657-.449a6.876 6.876 0 001.105-.958zm-3.166-3.053l1.284-.45c.857-.28 1.314-.359 1.374-.239.1.18-.249.499-1.045.958-.856.38-1.294.579-1.314.599-1.414.459-2.698.598-3.852.419-.24-.04-.419-.09-.538-.15l-.09-.06.09-.06c.12-.06.289-.12.508-.18.199-.04.627-.12 1.284-.239.776-.16 1.543-.359 2.3-.598zm-1.433 3.143l-.09-.06.06-.09c.06-.08.17-.16.328-.239.26-.14 1.095-.579 2.51-1.317l.954-.51c.658-.279 1.016-.369 1.075-.269.14.16-.079.47-.656.928-.478.44-.777.659-.896.659-1.155.639-2.11.958-2.867.958-.199 0-.338-.02-.418-.06zm.09-9.88c.597.14.886.25.865.33 0 .1-.308.149-.925.149-.618-.02-1.304-.08-2.061-.18-.637-.08-1.324-.2-2.06-.359-.479-.12-.807-.21-.986-.27-2.05-.578-3.713-1.347-4.987-2.305-.896-.718-1.513-1.497-1.852-2.335-.1-.3-.15-.689-.15-1.168l.06-.18.09.18c.18.46.328.789.448.988.418.719 1.045 1.348 1.882 1.886 1.214.819 2.807 1.497 4.778 2.036.259.14 1.234.4 2.926.779.478.12 1.135.27 1.972.449zm.328 1.916c.856.04 1.513.11 1.97.21.578.1.867.21.867.33-.02.059-.318.109-.896.149l-1.941.09c-1.792.08-2.797.08-3.016 0-2.31-.12-4.072-.54-5.286-1.258-.936-.579-1.563-1.327-1.881-2.245a3.88 3.88 0 01-.18-1.108l.06-.21.09.18c.06.1.219.419.478.958.397.738 1.014 1.317 1.85 1.737 1.056.558 2.699.898 4.928 1.017l2.957.15zm5.794-1.527l.388.27c.239.18.477.31.716.389.12.06.26.11.419.15.139.06.228.12.268.18.02.079-.04.179-.18.299-.138.1-.357.15-.656.15-.338 0-.707-.14-1.105-.42-.02 0-.08-.05-.18-.15a.951.951 0 01-.268-.359c-.2-.34-.209-.569-.03-.688.1-.04.31.02.628.18zm.507-1.527c.04.04.25.13.627.27.2.08.319.16.359.24 0 .079-.13.159-.389.239-.179.1-.477.1-.896 0a3.517 3.517 0 01-1.403-.839c-.2-.2-.378-.439-.538-.718-.298-.5-.358-.799-.179-.898.12-.08.378.06.777.419l.567.509c.378.34.737.599 1.075.778zm15.022-3.892l.06.12c.139.34.328.479.567.419.14-.04.318-.18.537-.42l.628-.658c-.28.12-.558.23-.837.33-.438.14-.756.21-.955.21zm-9.198-.48c-.04.1-.17.15-.389.15l-.358-.03-.389-.12c-.179-.059-.407-.179-.686-.358l-.328-.24c-.937-.878-1.404-1.766-1.404-2.664.02-.18.05-.32.09-.42l.059-.06.299.39c.08.12.239.379.477.778.28.44.648.868 1.106 1.288l.238.21c.08.06.25.189.508.388l.508.36c.179.14.269.25.269.329zm-.18-2.454c.04.06.21.27.508.629.16.18.22.31.179.389-.04.1-.189.1-.448 0-.278-.1-.547-.26-.806-.479a3.247 3.247 0 01-.627-.719c-.14-.24-.22-.369-.24-.389-.357-.798-.536-1.587-.536-2.365 0-.54.05-.958.149-1.258.06-.22.119-.379.179-.479.04-.04.07-.06.09-.06l.06.09c.059.1.099.26.119.48l.179 1.167c.14.798.338 1.467.597 2.006.02.02.219.35.597.988zm11.826 16.587c0 .08.01.16.03.24.1-.1.24-.2.418-.3.358-.24.896-.53 1.613-.868.199-.08.517-.22.955-.42.399-.14.777-.17 1.135-.09.28.12.498.31.657.57l.18.24c.338.598.597.977.776 1.137.219.24.528.489.926.748.876.559 1.453 1.038 1.732 1.437.319.44.458.998.418 1.677l-.09 1.018c0 .26.05.519.15.778l-.538-.09c-.279 0-.597-.06-.955-.179-.2-.08-.35-.18-.448-.3a2.58 2.58 0 01-.18-.299c-.04-.08-.06-.21-.06-.389 0-.12.05-.36.15-.719l.03-.15v-.09l-.06-.179c.02-.02-.159-.06-.538-.12-.457-.1-.825-.239-1.104-.419a3.238 3.238 0 01-.956-.928l-.418-.599a6.97 6.97 0 00-.299-.629c0-.02-.07-.11-.209-.269 0-.1-.12-.01-.358.27l-.657.658-.388.3-1.106.598-.477.24c.259-.04.567-.09.925-.15.618-.14 1.116-.16 1.494-.06.219.04.418.15.597.33.14.16.22.319.239.479.06.28.04.509-.06.688-.02.02-.03.04-.03.06.02.08.04.19.06.33l.12 1.107.477 1.647.03.3c0 .199-.01.329-.03.389-.02.22-.179.429-.477.628-.418.16-.677.26-.777.3-.08.04-.19.15-.329.33a3.195 3.195 0 01-.418.568c-.08.08-.199.16-.358.24l-.328.09c-.26 0-.438-.01-.538-.03-.358-.08-.568-.12-.627-.12a.987.987 0 00-.538.03l-.119.03.03-.15.15-.21.208-.09c.02-.02.11-.05.269-.09l.687-.06c.299 0 .498-.059.597-.179.02-.02.11-.16.269-.42.219-.358.428-.598.627-.718.2-.1.438-.2.716-.299.06-.04.08-.07.06-.09v-.09l-.358-1.616.06-.988c0-.16.04-.34.12-.54.059-.179.109-.309.149-.389v-.06a.707.707 0 00-.09-.449c-.1-.2-.269-.309-.507-.329-.22-.02-.618.04-1.195.18-.737.22-1.384.34-1.941.359-.08.02-.478 0-1.195-.06l-.687-.06-.388-.12c-.16-.04-.319-.14-.478-.299-.04-.02-.07-.06-.09-.12l-.119-.3c-.04-.179-.02-.438.06-.777l.15-.36.089-.36c.06-.159.11-.418.15-.777.059-.56-.04-.988-.3-1.288-.04-.04-.159-.15-.358-.33-.12-.08-.17-.139-.15-.179.021-.06.1-.08.24-.06.179 0 .368.07.567.21.239.12.428.35.568.688.14.28.209.6.209.959 0 .339-.03.658-.09.958l-.09.449-.12.329-.029.33.358.12.598.089c.159.02.358.04.597.06.06 0 .11.01.15.03l.089-.689c.04-.359.07-.658.09-.898 0-.439-.04-.868-.12-1.288-.06-.478-.259-1.007-.597-1.586a23.536 23.536 0 00-1.344-2.006 13.046 13.046 0 01-1.284-2.156l-.329-.838-.179-.779c-.04-.519-.01-.778.09-.778.1 0 .229.22.388.658l.328.66c.06.159.19.398.389.718.398.658.855 1.317 1.373 1.976.538.778.986 1.497 1.344 2.156.358.658.568 1.287.627 1.886zm1.762 1.167l.568-.688c.358-.36.677-.55.955-.57.22 0 .409.05.568.15l.298.27.807 1.437c.219.3.457.54.716.719.12.1.389.21.806.33l.509.119c.258.08.438.23.537.449.12.2.16.4.12.599l-.03.24-.21.508-.06.24c-.039.18.05.359.27.539l.806.419.06.06c-.1-.16-.16-.35-.18-.57a5.557 5.557 0 01-.09-1.077c-.039-.519-.178-.918-.417-1.198-.2-.239-.727-.618-1.583-1.137a5.963 5.963 0 01-1.135-.839c-.16-.16-.448-.588-.866-1.287l-.12-.21a.464.464 0 00-.238-.24c-.08-.039-.27-.03-.568.03l-2.628.899-.627.18c-.02.559-.14 1.177-.358 1.856-.08.2-.16.39-.24.569.02-.02.041-.03.06-.03.14 0 .33-.01.568-.03-.08-.08.08-.3.478-.659l.926-.778.298-.3zm-.896-17.245l.3-.15c1.512-1.038 1.85-1.038 1.015 0-.14.18-.28.38-.419.599-.597.838-1.065 1.427-1.404 1.767a9.266 9.266 0 00-.746.718l.15-.03c.338 0 .657-.01.955-.03.14 0 .239.03.299.09l-.03.3c-.16.319-.528.498-1.105.538.08.1.15.21.21.33l.088.359c.02.08.01.22-.03.42-.079.318-.119.528-.119.628.02.3.259.858.717 1.677l.806 1.856c.16.419.24.728.24.928-.06.2-.09.31-.09.33l-.15.269-.955 1.018c-.2.16-.378.26-.538.299-.219.1-.448.13-.687.09a1.44 1.44 0 01-.597-.21c-.08-.02-.189-.1-.328-.24a.888.888 0 01-.24-.418l-.09-.689-.149-.27c-.04-.06-.288-.319-.746-.778-.478-.519-.757-.808-.836-.868l-1.045-.719a2.09 2.09 0 01-.717-.988c-.1-.3-.14-.579-.12-.838 0-.2.02-.3.06-.3.04-.02.11.07.21.27.158.38.258.599.298.659.16.279.378.499.657.658.1.08.268.17.508.27l.597.36c.259.159.597.458 1.015.897l.836.839.18.24.119.298.12.72v.029l.09.06.298.09c.14.02.308-.04.507-.18l.598-.569c.219-.26.318-.399.298-.419.02-.04-.03-.21-.15-.509l-.477-1.317-.239-.51c-.458-.957-.677-1.636-.657-2.035.02-.22.11-.49.27-.809l.029-.209-.03-.24c-.04-.18-.15-.37-.329-.568h-.06a1.844 1.844 0 01-.268-.21c-.279.14-.537.21-.777.21-.438 0-.736-.17-.895-.51a.344.344 0 00-.06-.09l-.03.06-.209.21c-.16.06-.269.06-.328 0-.04-.06-.06-.16-.06-.3v-.179l-.03-.15-.15-.479c-.04-.14-.079-.26-.12-.359-.098.679-.128 1.218-.088 1.617.02.16.02.27 0 .33l-.09.029c-.1 0-.209-.05-.329-.15-.179-.14-.308-.389-.388-.748-.04-.16-.06-.33-.06-.51-.139.021-.368.05-.687.09-.637.08-1.274.26-1.91.54-.658.319-1.185.708-1.583 1.167-.2.26-.339.44-.419.54l-.149.239a5.467 5.467 0 00-.866 2.784c-.02.599.12 1.347.418 2.246.04.12.16.409.359.868.08.22.189.46.328.718l.568 1.048c.218.46.338.819.358 1.078.398.22.717.37.955.45.379.139.568.229.568.269-.02.04-.239.03-.657-.03-.398-.04-.936-.22-1.613-.539-.676-.32-1.324-.818-1.94-1.497a7.307 7.307 0 01-1.524-2.395c-.279-.639-.567-1.537-.866-2.695-.299-1.138-.527-1.896-.687-2.275a5.29 5.29 0 00-.836-1.377c-.318-.28-.488-.43-.508-.45-.179-.16-.458-.349-.836-.569-.477-.28-.766-.449-.866-.509l-1.792-.838c-.896-.339-2.02-.738-3.375-1.197-2.368-.759-4.21-1.478-5.524-2.156L8.24 6.982c-.518-.32-.826-.529-.926-.629a14.107 14.107 0 01-1.493-1.317c-.558-.559-1.205-1.307-1.941-2.245C3.103 1.773 2.556 1.014 2.237.515L1.998.096l.359.33a75.782 75.782 0 011.911 2.125 21.618 21.618 0 002 2.036c.638.559 1.136.958 1.494 1.198.179.14.488.329.926.568l1.015.6c1.314.638 3.126 1.307 5.435 2.005 1.693.559 2.837.958 3.434 1.198.976.399 1.892.858 2.748 1.377l-.15-.33a1.075 1.075 0 01-.06-.388c-.02-.18-.01-.32.031-.42l.06-.06.358.33c.08.1.249.32.508.659.298.379.657.728 1.075 1.048l.239.15c.258.159.428.249.507.269l.27.15.238.089c.18.06.279.15.298.27 0 .08-.109.14-.328.18l-.328.059-.389-.03c-.08 0-.16-.02-.238-.06.179.3.328.619.448.958.198.46.428 1.258.686 2.396.26 1.157.508 2.016.747 2.574.657 1.697 1.663 2.965 3.016 3.803l.18.12c-.1-.2-.25-.43-.449-.69l-.716-.987a2.57 2.57 0 01-.299-.51c-.08.1-.15.17-.209.21l-.239.06c-.08 0-.15-.04-.209-.12-.18-.139-.229-.359-.15-.658l.15-.21c.06-.06.14-.1.239-.12l-.15-.269c-.059-.16-.109-.3-.149-.419-.04.12-.09.21-.15.27l-.238.18c-.08 0-.159-.06-.239-.18-.16-.28-.209-.66-.15-1.138l.15-.42c.08-.14.17-.219.269-.239-.02-.2-.03-.39-.03-.569v-.36c-.298.52-.478.81-.537.87l-.27.149c-.079-.02-.139-.11-.178-.27-.1-.379 0-.858.298-1.437l.358-.419c.22-.18.399-.24.538-.18.1-.399.26-.788.478-1.167-.498.4-.806.639-.926.718l-.328.15c-.08-.04-.11-.16-.09-.36 0-.159.07-.369.21-.628.198-.32.477-.609.835-.868.06-.06.25-.15.568-.27.318-.1.537-.11.656-.03l.06-.06c.26-.279.548-.519.867-.718-.399.04-.757.12-1.076.24-.318.14-.527.22-.627.239l-.388.06v-.09c0-.08.03-.18.09-.3.1-.18.278-.378.537-.598.418-.28.886-.45 1.404-.51l.776.03c.398.04.637.13.717.27a.48.48 0 01.21-.06l-.628-.329c-.22-.08-.368-.12-.448-.12l-.18-.03h-.418l-.388-.09.21-.329c.04-.06.139-.12.298-.18a.95.95 0 01.21-.09l.268-.06c.12-.019.348-.009.687.03l1.135.57a6.982 6.982 0 01-.807-.689c-.418-.38-.836-.818-1.254-1.317-.359-.44-.548-.669-.567-.689L25.62 4.587c-.12-.22-.22-.42-.299-.599.14.759.368 1.547.687 2.365 0 .08.07.23.209.45.238.519.388.828.448.928l.537.838c.18.28.24.46.18.539-.08.08-.25.02-.508-.18l-.448-.299-.389-.449a6.186 6.186 0 01-.627-.958l-.269-.48-.477-1.646c-.06-.2-.12-.619-.18-1.257-.02-.26-.01-.57.03-.929 0-.22.03-.419.09-.598 0-.04.01-.07.03-.09-.08-.46-.08-.789 0-.988l.06-.18.09.18.298.868c.239.519.647 1.208 1.224 2.066L28.965 8c.04.04.578.719 1.613 2.036l1.194 1.258c.28.239.438.419.478.538.04 0 .09.01.15.03 0-.22.02-.459.059-.718 0-.18.09-.45.269-.809.08-.18.179-.339.298-.479.14-.12.25-.16.329-.12.04.02.07.09.09.21l.06.06.298.51c.239.378.418.748.538 1.107l.03.09c0-.02.01-.04.03-.06l.06.09c.119-.16.367-.36.746-.6l.955-.568a19.2 19.2 0 001.732-.928z" id="Shape"/></g><g id="SvgjsG48330" transform="translate(29 78.018)" fill="url(#linearGradient-37)"><path d="M.037 5.905V.153h2.05c1.734 0 2.578 1.127 2.578 2.876 0 1.745-.844 2.876-2.577 2.876H.038zm1.374-1.307h.605c.832 0 1.204-.52 1.204-1.569 0-1.053-.372-1.58-1.204-1.58h-.605v3.15-.001zm7.322-3.15H6.888v.94h1.643V3.67H6.888v.927h1.845v1.307H5.515V.153h3.218v1.295zm4.253 0H11.14v.94h1.644V3.67H11.14v.927h1.846v1.307H9.768V.153h3.218v1.295zM16.35.153c1.085 0 1.748.865 1.748 1.921 0 1.084-.663 1.882-1.748 1.882h-.958v1.949H14.02V.153h2.331zm-.238 2.57c.49 0 .682-.25.682-.672 0-.4-.191-.665-.682-.665h-.72v1.338h.72zm6.494 3.26c-1.16 0-2.104-.606-2.252-1.76l1.423-.353c.04.626.4.92.887.92.353 0 .57-.184.57-.513 0-.43-.509-.59-1.1-.81-.746-.27-1.582-.606-1.582-1.667 0-1.072.8-1.73 1.942-1.73.93 0 1.943.4 2.163 1.59l-1.32.352c-.075-.52-.327-.748-.752-.748-.379 0-.645.16-.645.497 0 .321.475.45 1.02.642.76.274 1.697.65 1.697 1.788 0 1.264-.98 1.792-2.05 1.792zm6.17-5.83v1.295H27.58v4.457h-1.358V1.448h-1.2V.153h3.755zm4.335 5.752L32.77 4.84h-2.12l-.338 1.064h-1.395l1.95-5.752h1.69l1.95 5.752h-1.395zm-2.069-2.293h1.334L31.71 1.53l-.667 2.082zm7.287 2.293l-1.496-2.309h-.327v2.309h-1.373V.153h1.373v2.152h.317l1.55-2.152h1.668l-2.03 2.755 2.066 2.997H38.33zm5.593-4.457h-1.845v.94h1.643V3.67h-1.643v.927h1.845v1.307h-3.218V.153h3.218v1.295z" id="Shape"/></g></g></g></g></svg>