<svg width="38" height="38" xmlns="http://www.w3.org/2000/svg"><g id="Page-1" stroke="none" stroke-width="1" fill="none" fill-rule="evenodd"><g id="Home-Ten-" transform="translate(-380 -1320)"><g id="pancakeswap-cake-logo" transform="translate(380 1320)"><path d="M6.833 5.938C6.233 2.85 8.63 0 11.748 0c2.757 0 5.034 2.256 5.034 4.987v6.175c.72 0 1.439-.118 2.158-.118.72 0 1.319 0 2.038.118V4.987c0-2.73 2.278-4.987 5.035-4.987 3.116 0 5.514 2.85 5.034 5.938L29.73 13.18C34.404 15.2 38 18.763 38 23.156v2.732c0 3.68-2.397 6.768-5.874 8.787C28.65 36.813 24.095 38 18.94 38c-5.155 0-9.71-1.188-13.186-3.325C2.397 32.656 0 29.569 0 25.888v-2.732c0-4.393 3.476-7.956 8.151-9.975L6.833 5.938zM27.93 14.13l1.558-8.55c.36-2.137-1.199-4.156-3.476-4.156-1.918 0-3.477 1.544-3.477 3.444v7.837c-.48-.118-1.079-.118-1.558-.118-.72 0-1.319-.12-2.038-.12-.72 0-1.438 0-2.158.12-.48 0-1.079.118-1.558.118V4.988c0-1.9-1.558-3.444-3.476-3.444-2.158 0-3.836 2.018-3.357 4.156l1.559 8.55c-5.035 1.9-8.392 5.225-8.392 9.025v2.731c0 5.819 7.792 10.569 17.382 10.569 9.59 0 17.382-4.75 17.382-10.569v-2.731c.12-3.919-3.237-7.244-8.391-9.144z" id="Shape" fill="#633001"/><path d="M35.88 25.67c0 5.687-7.818 10.33-17.44 10.33C8.818 36 1 31.357 1 25.67V23h35v2.67h-.12z" id="Path" fill="#FEDC90" fill-rule="nonzero"/><path d="M8.566 6.118C8.096 4 9.738 2 11.848 2c1.876 0 3.4 1.53 3.4 3.412v7.764c1.173-.117 2.345-.235 3.635-.235 1.172 0 2.345.118 3.517.235V5.412A3.408 3.408 0 0125.8 2c2.11 0 3.752 2 3.4 4.118l-1.524 8.47C32.6 16.471 36 19.765 36 23.53 36 29.294 28.38 34 19 34 9.62 34 2 29.294 2 23.53c0-3.765 3.283-7.06 8.207-8.942l-1.641-8.47z" id="Path" fill="#D1884F"/><path d="M14 22c0 1.625-.875 3-2 3s-2-1.375-2-3 .875-3 2-3 2 1.375 2 3zm13 0c0 1.625-.875 3-2 3s-2-1.375-2-3 .875-3 2-3 2 1.375 2 3z" id="Path" fill="#633001" fill-rule="nonzero"/></g></g></g></svg>