<svg width="27" height="42" xmlns="http://www.w3.org/2000/svg" xmlns:xlink="http://www.w3.org/1999/xlink"><defs><path id="path-1" d="M0 .214h26.96v17.254H0z"/><path id="path-3" d="M.33.075h12.532v20.7H.33z"/><path id="path-5" d="M.948.075H13.48v20.7H.948z"/><path id="path-7" d="M.144.258h1.35v1.086H.144z"/><path id="path-9" d="M.2.205h16.414V9.75H.201z"/><path id="path-11" d="M.157.258h1.35v1.086H.157z"/></defs><g id="Page-1" stroke="none" stroke-width="1" fill="none" fill-rule="evenodd"><g id="pop-up" transform="translate(-990 -468)"><g id="Group-2" transform="translate(616 208)"><g id="Portis" transform="translate(374 260)"><path id="Fill-1" fill="#133444" d="M.97 23.1l-.97.417.196 2.029L9.176 35l11.942-1.647L26 23.517 13 18z"/><g id="Group-44"><path d="M23.838 17.178a13.47 13.47 0 00-8.57-4.72c-.07-.007-.143-.017-.215-.025a13.265 13.265 0 00-3.148 0l-.214.026a13.443 13.443 0 00-8.569 4.719l-.547.899-.903 1.496-.661 1.096c-.01.026-.027.062-.037.089l-.008.017 1.468.864 9.257 5.457 1.788 1.051V15.105l-1.788.809v-1.95l1.788-.81 1.79.81 9.114 4.122-.545-.908z" id="Fill-2" fill="#C42370"/><g id="Group-6" transform="translate(0 23.188)"><mask id="mask-2" fill="#fff"><use xlink:href="#path-1"/></mask><path d="M26.96 3.464c0 4.344-2.076 8.405-5.288 11.022a13.466 13.466 0 01-4.256 2.35 12.53 12.53 0 01-3.927.632c-7.452 0-13.49-6.587-13.49-14.004C0 2.368.136 1.283.395.214l13.085 7.71 13.077-7.7c.268 1.06.402 2.155.402 3.24" id="Fill-4" fill="#1C4D6B" mask="url(#mask-2)"/></g><path id="Fill-7" fill="#000" d="M11.905 12.441l1.574.713-1.788.81v-1.62z"/><path id="Fill-9" fill="#000" d="M11.69 15.914l1.79-.81v13.051l-1.79-1.059z"/><path id="Fill-11" fill="#1D4259" d="M13.48 15.104v13.052l12.532-7.381z"/><g id="Group-15" transform="translate(13.15)"><mask id="mask-4" fill="#fff"><use xlink:href="#path-3"/></mask><path id="Fill-13" fill="#4B6B9A" mask="url(#mask-4)" d="M.33.075v15.03l12.532 5.67z"/></g><path d="M13.48 15.104v13.044l-1.79-1.051L.958 20.775l-.018-.008.027-.01c.009-.027.026-.062.036-.088l1.566-2.591 9.123-4.113v1.957l1.789-.818z" id="Fill-16" fill="#343535"/><path id="Fill-18" fill="#3E5578" d="M13.48 15.104v13.052l-1.79-1.059L.958 20.784l-.01-.01.02-.007 10.724-4.853z"/><g id="Group-22"><mask id="mask-6" fill="#fff"><use xlink:href="#path-5"/></mask><path id="Fill-20" fill="#6DB2D8" mask="url(#mask-6)" d="M13.48.075v15.03L.948 20.775z"/></g><path d="M8.408 39.588c.187.08.375.16.563.231a7.641 7.641 0 01-.563-.23" id="Fill-23" fill="#335F8A"/><path d="M8.971 39.82c.188.07.385.142.582.205-.197-.063-.394-.125-.582-.206" id="Fill-25" fill="#335F8A"/><g id="Group-29" transform="translate(9.45 39.313)"><mask id="mask-8" fill="#fff"><use xlink:href="#path-7"/></mask><path d="M.595.872c.151.044.295.08.447.116C.9.953.746.907.595.872" id="Fill-27" fill="#335F8A" mask="url(#mask-8)"/></g><path d="M.403 23.41l13.077 7.702a15.179 15.179 0 01-.94 3.418c-1.046 2.52-3.157 5.183-7.253 3.153C2.066 35.065 0 30.996 0 26.652c0-1.086.134-2.181.403-3.241" id="Fill-30" fill="#6DB2D8"/><g id="Group-34" transform="translate(5.05 30.906)"><mask id="mask-10" fill="#fff"><use xlink:href="#path-9"/></mask><path d="M16.614 6.776l-.035.027c-.073.054-.135.106-.207.16l-.017.018c-.072.063-.153.115-.224.169-.08.063-.161.125-.25.179a2.8 2.8 0 00-.251.177c-.081.062-.151.098-.224.152l-.043.027c-.081.052-.162.098-.234.152-.008.008-.018.008-.027.017-.08.053-.16.098-.24.143-.081.044-.18.106-.269.15-.09.054-.18.098-.269.142l-.01.01-.266.133c-.09.046-.18.089-.278.134-.099.045-.188.089-.279.124a11.41 11.41 0 01-1.143.437c-.081.027-.153.053-.234.07-.08.028-.178.055-.259.081-.151.045-.295.08-.447.116-.054.018-.116.027-.17.044l-.098.018-.242.054c-.08.017-.143.026-.223.044a1.92 1.92 0 01-.206.036c-.072.008-.153.026-.223.035-.036.01-.073.01-.108.018l-.17.017-.099.01a1.25 1.25 0 01-.187.018c-.08.008-.153.018-.232.018-.064 0-.117.01-.179.017-.063 0-.108.01-.162.01h-.008c-.063 0-.125.008-.18.008-.08 0-.17.01-.25.01h-.519c-.089 0-.17 0-.25-.01-.063 0-.125-.008-.187-.008h-.01c-.054 0-.108-.01-.16-.01-.054 0-.118-.008-.18-.017-.08-.01-.151-.01-.232-.018-.062-.01-.126-.01-.188-.018l-.09-.01a1.177 1.177 0 00-.169-.017.431.431 0 01-.108-.018c-.071-.01-.151-.017-.224-.035-.07-.01-.134-.027-.205-.036-.072-.008-.143-.027-.223-.044a7.614 7.614 0 00-.243-.054l-.097-.018a1.322 1.322 0 01-.17-.044c-.153-.036-.296-.08-.447-.116l-.269-.08c-.08-.027-.152-.044-.233-.071-.197-.062-.385-.133-.58-.205a8.781 8.781 0 01-.565-.232c-.09-.044-.188-.08-.277-.124-.089-.045-.188-.088-.277-.134L2.5 8.299l-.01-.01c-.089-.044-.178-.098-.268-.142-.09-.044-.179-.098-.268-.15-.09-.054-.162-.099-.241-.143l-.027-.017a2.596 2.596 0 01-.233-.152l-.045-.027a3.455 3.455 0 01-.223-.152c-.072-.054-.17-.115-.251-.177-.08-.063-.16-.116-.25-.179L.46 6.98l-.018-.017c-.071-.054-.135-.106-.205-.16l-.036-.027c4.087 2.03 6.207-.64 7.253-3.152.448-1.095.762-2.243.94-3.419.178 1.176.491 2.316.94 3.419 1.082 2.511 3.192 5.173 7.28 3.152" id="Fill-32" fill="#529BBA" mask="url(#mask-10)"/></g><g id="Group-37" transform="translate(15.85 39.313)"><mask id="mask-12" fill="#fff"><use xlink:href="#path-11"/></mask><path d="M.608.988C.76.953.912.907 1.055.872.912.916.76.952.608.988" id="Fill-35" fill="#335F8A" mask="url(#mask-12)"/></g><path d="M17.406 40.033c.197-.062.385-.133.582-.204-.187.07-.385.133-.582.204" id="Fill-38" fill="#335F8A"/><path d="M17.988 39.82c.187-.072.375-.151.563-.232-.179.089-.376.16-.563.231" id="Fill-40" fill="#335F8A"/><path d="M26.96 26.651c0 4.344-2.076 8.405-5.288 11.031-4.086 2.03-6.207-.641-7.253-3.151a15.013 15.013 0 01-.94-3.419l13.078-7.702c.268 1.06.402 2.155.402 3.241" id="Fill-42" fill="#4B6B9A"/></g></g></g></g></g></svg>