<svg width="32" height="31" xmlns="http://www.w3.org/2000/svg" xmlns:xlink="http://www.w3.org/1999/xlink"><defs><path id="path-1" d="M0 0h32v31H0z"/></defs><g id="Page-1" stroke="none" stroke-width="1" fill="none" fill-rule="evenodd"><g id="pop-up" transform="translate(-689 -543)"><g id="Group-2" transform="translate(616 208)"><g id="Group-3" transform="translate(73 335)"><mask id="mask-2" fill="#fff"><use xlink:href="#path-1"/></mask><path d="M22.65 27.076h-4.484 4.484zM27.514 8.74v3.782V8.74zM22.65 27.076h-4.484V11.43c0-1.486 1.245-2.69 2.783-2.69h6.565v3.782H22.65v14.554zM4.514 22.24v-3.78 3.78zM9.378 3.903h4.486-4.486zm0 0h4.486v15.646c0 1.486-1.247 2.69-2.783 2.69H4.514v-3.78h4.864V3.902zm-4.864 0v20.483c0 1.486 1.246 2.69 2.783 2.69h17.435c1.536 0 2.782-1.204 2.782-2.69V6.593c0-1.486-1.246-2.69-2.782-2.69H4.514zM0 0h25.044C28.885 0 32 3.011 32 6.725v17.55C32 27.99 28.885 31 25.044 31H6.956C3.115 31 0 27.989 0 24.275V0z" id="Fill-1" fill="#3964DF" mask="url(#mask-2)"/></g></g></g></g></svg>