<svg width="1074" height="181" xmlns="http://www.w3.org/2000/svg" xmlns:xlink="http://www.w3.org/1999/xlink"><defs><linearGradient x1="0%" y1="0%" x2="100%" y2="0%" id="linearGradient-1"><stop stop-color="#0DF" offset="0%"/><stop stop-color="#FF00D4" offset="100%"/></linearGradient><path d="M481.535 849C521.919 849 550 825.258 550 793.513c0-59.756-83.71-49.619-83.71-71.76 0-6.136 5.35-10.404 16.315-10.404 16.581 0 29.953 9.07 37.442 19.74L550 701.212C537.163 682.805 514.163 670 484.477 670c-37.977 0-65.524 22.142-65.524 52.82 0 60.289 83.71 49.351 83.71 72.56 0 8.003-6.954 12.271-20.326 12.271-15.779 0-29.151-6.402-39.046-20.007L412 816.988C422.698 833.794 442.756 849 481.535 849zm168.395-4V715.35H697V674H559v41.35h46.802V845h44.128zm98.187 0l11.729-32.28h66.909l11.73 32.28H887l-66.643-171h-51.714L702 845h46.117zM812 775h-39l19.634-54L812 775zm136.883 70v-64.825h13.564L1002.074 845H1055l-56.649-88.034L1050.213 674h-48.936l-39.894 64.825h-12.5V674H905v171h43.883zM1118 845V674h-43v171h43zm76.038 0v-97.371L1256.76 845H1304V674h-44.038v98.972L1197.24 674H1150v171h44.038zm222.229 4c30.666 0 53.333-8.803 67.733-20.808V759.9h-44v40.282c-6.4 3.201-13.6 4.802-20.8 4.802-25.6 0-44-20.541-44-45.617 0-25.076 18.4-45.35 41.867-45.35 14.4 0 27.733 6.669 35.733 14.938l29.333-33.612c-13.6-15.206-34.666-25.343-65.6-25.343-48.8 0-88.533 40.015-88.533 89.367 0 49.351 37.867 89.633 88.267 89.633z" id="path-2"/></defs><g id="Page-1" stroke="none" stroke-width="1" fill="none" fill-rule="evenodd"><g id="Deep-Stake" transform="translate(-411 -669)" fill-rule="nonzero"><g id="STAKING"><use fill-opacity="0" fill="#0096AF" xlink:href="#path-2"/><use stroke="url(#linearGradient-1)" fill-opacity=".059" fill="#FFF" xlink:href="#path-2"/></g></g></g></svg>