<svg width="40" height="40" xmlns="http://www.w3.org/2000/svg"><g id="Page-1" stroke="none" stroke-width="1" fill="none" fill-rule="evenodd"><g id="Home-Ten-" transform="translate(-378 -1769)" fill-rule="nonzero"><g id="usdc.8dd9681c" transform="translate(378 1769)"><circle id="Oval" fill="#2775C9" cx="20" cy="20" r="20"/><path d="M19.5 34C11.492 34 5 27.508 5 19.5S11.492 5 19.5 5 34 11.492 34 19.5A14.5 14.5 0 0119.5 34zm-.864-19.88a3.184 3.184 0 00-3.023 3.048c0 1.493.913 2.468 2.85 2.875l1.358.32c1.32.31 1.863.754 1.863 1.506 0 .753-.95 1.494-2.184 1.494a2.345 2.345 0 01-2.221-1.123.84.84 0 00-.753-.482h-.728a.432.432 0 00-.346.506 3.369 3.369 0 003.221 2.567v1.037a.87.87 0 001.74 0v-1.05a3.233 3.233 0 003.196-3.183c0-1.567-.9-2.468-3.035-2.925l-1.234-.271c-1.234-.309-1.814-.716-1.814-1.407 0-.691.74-1.456 1.974-1.456a2.024 2.024 0 011.962 1 .987.987 0 00.889.567h.58a.518.518 0 00.382-.617 3.27 3.27 0 00-2.937-2.468v-.852a.87.87 0 10-1.74 0v.914zM8.628 19.5a10.847 10.847 0 007.404 10.28h.173a.555.555 0 00.555-.556v-.259a1.16 1.16 0 00-.715-1.074 9.083 9.083 0 010-16.844c.432-.176.715-.595.715-1.061v-.284a.518.518 0 00-.69-.494A10.847 10.847 0 008.627 19.5zm21.744 0a10.847 10.847 0 00-7.404-10.267h-.185a.58.58 0 00-.58.58v.185c.01.486.304.921.752 1.11a9.083 9.083 0 010 16.833c-.439.191-.727.62-.74 1.098v.21a.58.58 0 00.765.543A10.847 10.847 0 0030.372 19.5z" id="Shape" fill="#FFF"/></g></g></g></svg>