<svg width="33" height="33" xmlns="http://www.w3.org/2000/svg"><defs><radialGradient cx="0%" cy="50%" fx="0%" fy="50%" r="100%" id="radialGradient-1"><stop stop-color="#5D9DF6" offset="0%"/><stop stop-color="#006FFF" offset="100%"/></radialGradient></defs><g id="Page-1" stroke="none" stroke-width="1" fill="none" fill-rule="evenodd"><g id="pop-up" transform="translate(-689 -335)" fill-rule="nonzero"><g id="Group-2" transform="translate(616 208)"><g id="walletconnect-circle-blue" transform="translate(73 127)"><rect id="base" fill="url(#radialGradient-1)" x="0" y="0" width="33" height="33" rx="16.5"/><path d="M10.89 11.345a7.885 7.885 0 0111.22 0l.373.376a.403.403 0 010 .566l-1.275 1.287a.197.197 0 01-.28 0l-.514-.518a5.5 5.5 0 00-7.828 0l-.55.555a.197.197 0 01-.28 0l-1.276-1.287a.403.403 0 010-.566l.41-.413zm13.858 2.661l1.136 1.146a.403.403 0 010 .566l-5.12 5.165a.394.394 0 01-.56 0l-3.634-3.666a.099.099 0 00-.14 0l-3.633 3.666a.394.394 0 01-.561 0l-5.12-5.165a.403.403 0 010-.566l1.136-1.146a.394.394 0 01.56 0l3.634 3.666c.039.04.101.04.14 0l3.633-3.666a.394.394 0 01.561 0l3.634 3.666c.039.04.101.04.14 0l3.633-3.666a.394.394 0 01.561 0z" id="WalletConnect" fill="#FFF"/></g></g></g></g></svg>