<svg width="58" height="76" xmlns="http://www.w3.org/2000/svg"><g id="Page-1" stroke="none" stroke-width="1" fill="none" fill-rule="evenodd" stroke-linecap="round" stroke-linejoin="round"><g id="Contact-Us" transform="translate(-931 -1187)" stroke="#F6B219" stroke-width="4"><g id="marker-pin.2" transform="translate(933 1189)"><path d="M0 28.18v-.688C0 12.308 12.088 0 27 0h0c14.912 0 27 12.308 27 27.492v.688c0 13.844-17.214 34.684-24.152 42.524a3.778 3.778 0 01-5.696 0C17.214 62.864 0 42.024 0 28.18z" id="Path"/><path d="M19 27.073C19 31.453 22.356 35 26.5 35h0c4.144 0 7.5-3.547 7.5-7.927v-.146C34 22.547 30.644 19 26.5 19h0c-4.144 0-7.5 3.547-7.5 7.927" id="Path"/></g></g></g></svg>