<svg width="1920" height="689" xmlns="http://www.w3.org/2000/svg"><g id="Page-1" stroke="none" stroke-width="1" fill="none" fill-rule="evenodd"><g id="Home-Page" transform="translate(0 -3551)" fill="#ECF1F5"><path d="M8749.304 7524.27c-318.938-587.516-720.348-1146.404-1227.68-1619.22-1195.043-1113.167-2390.087-1788.29-4183.532-2188.1-1307.024-291.45-2641.799-188.28-3811.437 225.362-61.169 22.094-108.072 64.938-134.455 121.614-26.382 56.485-28.141 121.23-5.276 179.252l344.54 876.469c23.06 58.405 69.181 105.284 128.005 129.683 58.629 24.4 123.511 23.824 183.508-.192 57.065-24.015 114.911-47.07 173.149-69.164 1193.48-453.605 2556.788-513.355 3873.778-188.09 17.589 51.49 46.708 99.136 86.184 138.714L62.91 14626.512c-68.79 152.548-64.49 302.595 9.576 334.488l5251.548-9330.88c94.392 3.65 186.83-28.819 257.574-89.914 1094.007 542.558 2001.772 1330.458 2639.454 2296.649 61.56 93.372 180.185 128.53 281.807 89.914 14.462-5.572 28.924-12.488 42.604-21.134l123.315-77.81c103.186-65.13 138.168-197.12 80.516-303.556" id="Fill-1"/></g></g></svg>