<svg width="12" height="12" xmlns="http://www.w3.org/2000/svg"><defs><filter id="filter-1"><feColorMatrix in="SourceGraphic" values="0 0 0 0 0.964706 0 0 0 0 0.698039 0 0 0 0 0.098039 0 0 0 1.000000 0"/></filter></defs><g id="Page-1" stroke="none" stroke-width="1" fill="none" fill-rule="evenodd" stroke-linecap="round" stroke-linejoin="round"><g id="calendar-schedule.9" transform="translate(-378 -2644)" filter="url(#filter-1)"><g transform="translate(379 2644)" stroke="#76CD4D" stroke-width="1.5"><path id="Path" d="M0 5.008h10M6.944.842v1.666M3.056.842v1.666m5.277 8.5H1.667h0A1.667 1.667 0 010 9.342v-6h0c0-.92.746-1.667 1.667-1.667 0 0 0 0 0 0h6.666c.92 0 1.667.746 1.667 1.667 0 0 0 0 0 0v6h0c0 .92-.746 1.666-1.667 1.666 0 0 0 0 0 0h0z"/></g></g></g></svg>