<svg width="40" height="40" xmlns="http://www.w3.org/2000/svg" xmlns:xlink="http://www.w3.org/1999/xlink"><defs><path id="path-1" d="M0 0h40v40H0z"/></defs><g id="Page-1" stroke="none" stroke-width="1" fill="none" fill-rule="evenodd"><g id="Home-Page" transform="translate(-1446 -4048)"><g id="Group-3" transform="translate(1446 4048)"><mask id="mask-2" fill="#fff"><use xlink:href="#path-1"/></mask><path d="M30.278 20.907a3.506 3.506 0 01-3.43 3.581 3.504 3.504 0 01-3.581-3.581 3.506 3.506 0 017.011 0m.372 4.61a5.93 5.93 0 01-1.767 1.05 6.137 6.137 0 01-5.65-.634v.634h-2.516V8.95h2.5v6.85a6.24 6.24 0 013-1.05h.45a6.116 6.116 0 013.983 10.767m-18.908-1.409a3.516 3.516 0 004.658-1.741h2.767a6.15 6.15 0 110-2.917H16.4a3.516 3.516 0 10-4.658 4.658M36 0H4a4.016 4.016 0 00-4 4v32a4.017 4.017 0 004 4h32a4.018 4.018 0 004-4V4a4.017 4.017 0 00-4-4" id="Fill-1" fill="#000" mask="url(#mask-2)"/></g></g></g></svg>