<svg width="97" height="76" xmlns="http://www.w3.org/2000/svg"><g id="Page-1" stroke="none" stroke-width="1" fill="none" fill-rule="evenodd" stroke-linecap="round" stroke-linejoin="round"><g id="Contact-Us" transform="translate(-1333 -1187)" stroke="#F6B219" stroke-width="4"><g id="Emails,-Letter,-Mail" transform="translate(1335 1189)"><path d="M0 9.134h0a9.112 9.112 0 004.04 7.561l30.902 20.776a20.809 20.809 0 0023.188 0l30.824-20.73A9.088 9.088 0 0093 9.186v-.052C93 4.091 88.877 0 83.793 0H9.207C4.123 0 0 4.09 0 9.134h0z" id="Path"/><path d="M0 10v51.667A10.33 10.33 0 0010.333 72h72.334A10.33 10.33 0 0093 61.667V10M3 69l31-31m25 0l31 31" id="Path"/></g></g></g></svg>