<svg width="280" height="66" xmlns="http://www.w3.org/2000/svg" xmlns:xlink="http://www.w3.org/1999/xlink"><defs><path id="path-1" d="M.581.574h39.29v47.705H.581z"/><path id="path-3" d="M0 .783h25.33v21.614H0z"/></defs><g id="Page-1" stroke="none" stroke-width="1" fill="none" fill-rule="evenodd"><g id="Home-Page" transform="translate(-345 -35)"><g id="Group-29" transform="translate(345 35)"><g id="Group-3" transform="translate(240)"><mask id="mask-2" fill="#fff"><use xlink:href="#path-1"/></mask><path d="M39.755 17.186c-1.332-2.457-3.009-4.793-5.128-6.77-4.992-4.654-9.984-7.477-17.475-9.149C11.692.05 6.117.48 1.232 2.21a.973.973 0 00-.562.509.95.95 0 00-.022.75l1.439 3.664c.096.244.289.44.534.542.245.102.516.1.767 0 .238-.101.48-.197.723-.29 4.985-1.896 10.68-2.146 16.181-.786.074.215.196.414.36.58L3.472 46.88c-.288.637-.27 1.265.04 1.398L25.447 9.266c.394.016.78-.12 1.075-.376 4.57 2.269 8.362 5.563 11.026 9.603a.99.99 0 001.355.287l.515-.325a.958.958 0 00.336-1.27" id="Fill-1" fill="#F6B219" mask="url(#mask-2)"/></g><path d="M234.115 49.285c1.323 2.472 2.986 4.824 5.09 6.813 4.955 4.683 9.91 7.522 17.347 9.204a28.452 28.452 0 0015.802-.947.972.972 0 00.58-1.267l-1.428-3.686a.978.978 0 00-1.292-.545c-.237.1-.477.198-.718.29-4.948 1.91-10.601 2.16-16.062.792a1.525 1.525 0 00-.358-.584l17.055-39.948c.285-.642.267-1.272-.04-1.407l-21.774 39.253a1.54 1.54 0 00-1.068.379c-4.536-2.282-8.3-5.597-10.944-9.661a.978.978 0 00-1.345-.29l-.511.328a.97.97 0 00-.334 1.276" id="Fill-4" fill="#F6B219"/><g id="Group-8" transform="translate(0 17)"><mask id="mask-4" fill="#fff"><use xlink:href="#path-3"/></mask><path id="Fill-6" fill="#231F20" mask="url(#mask-4)" d="M8.64.783h16.69L22.768 7.26h-8.016L13.7 9.826h7.26l-2.135 5.323h-7.26l-2.892 7.248H0z"/></g><path id="Fill-9" fill="#231F20" d="M27.484 18H44l-2.387 6.202h-7.967l-.903 2.285h7.677l-2 5.157h-7.677l-.84 2.186h7.968L35.484 40H19z"/><path d="M50.11 28.315h2.012c.411 0 .735-.092.974-.278.238-.185.454-.527.648-1.028l.715-1.795c.085-.24.13-.435.13-.587 0-.175-.071-.294-.212-.36-.14-.065-.372-.097-.697-.097H51.7l-1.59 4.145zM64 21.46c0 .718-.196 1.59-.585 2.611l-.324.882c-.563 1.501-1.46 2.677-2.694 3.525-1.233.849-2.758 1.328-4.576 1.436l-.129.327c1.363.11 2.363.451 3.002 1.028.638.577.957 1.321.957 2.235 0 .653-.141 1.328-.422 2.024L57.509 40h-8.793l1.75-4.504c.109-.283.164-.501.164-.654 0-.391-.239-.586-.714-.586h-2.11L45.567 40H37l8.535-22h12.883C62.138 18 64 19.154 64 21.46z" id="Fill-11" fill="#231F20"/><path d="M73.11 28.315h2.012c.411 0 .735-.092.974-.278.238-.185.454-.527.648-1.028l.715-1.795c.085-.24.13-.435.13-.587 0-.175-.071-.294-.212-.36-.14-.065-.372-.097-.697-.097H74.7l-1.59 4.145zM87 21.46c0 .718-.196 1.59-.585 2.611l-.324.882c-.563 1.501-1.46 2.677-2.694 3.525-1.233.849-2.758 1.328-4.576 1.436l-.129.327c1.363.11 2.363.451 3.002 1.028.638.577.957 1.321.957 2.235 0 .653-.141 1.328-.422 2.024L80.509 40h-8.793l1.75-4.504c.109-.283.164-.501.164-.654 0-.391-.239-.586-.714-.586h-2.11L68.567 40H60l8.535-22h12.883C85.138 18 87 19.154 87 21.46z" id="Fill-13" fill="#231F20"/><path d="M94.679 31.253h2.188l1.834-6.17h-1.158l-2.864 6.17zM108 18l-5.245 22h-8.494l1.03-3.428H92.2L90.624 40H82l11.713-22H108z" id="Fill-15" fill="#231F20"/><path id="Fill-17" fill="#231F20" d="M145 18l-8.574 22h-8.117l5.705-14.656h-.848L125.766 40h-10.009l3.88-14.656h-.782L113.15 40H105l8.574-22h14.245l-4.498 14.199h.75L130.688 18z"/><path id="Fill-19" fill="#231F20" d="M147.484 18H164l-2.387 6.202h-7.967l-.903 2.285h7.677l-2 5.157h-7.677l-.84 2.186h7.968L155.484 40H139z"/><path id="Fill-21" fill="#231F20" d="M181.36 18H189l-8.62 22h-13.355l4.244-14.438h-.914L164.674 40H157l8.62-22h13.453l-4.31 14.699h.849z"/><path id="Fill-23" fill="#231F20" d="M208 18l-2.742 7.116h-4.097L195.386 40H187l5.742-14.884h-4.098L191.387 18z"/><path d="M211.679 31.253h2.188l1.834-6.17h-1.158l-2.864 6.17zM225 18l-5.245 22h-8.494l1.03-3.428h-3.09L207.624 40H199l11.713-22H225z" id="Fill-25" fill="#231F20"/><path d="M231.382 33.34c.647 0 1.1-.132 1.358-.394.259-.263.39-.525.39-.788a.654.654 0 00-.18-.475c-.118-.12-.318-.246-.598-.377l-2.103-.59c-1.164-.372-2.054-.98-2.668-1.822-.615-.842-.922-1.908-.922-3.2 0-1.07.27-2.258.808-3.56.539-1.3 1.634-2.481 3.284-3.543 1.65-1.06 3.995-1.591 7.036-1.591 1.358 0 2.545.055 3.558.164 1.014.11 2.232.307 3.655.59l-2.264 5.906a469.412 469.412 0 00-5.887-.032c-1.1 0-1.65.35-1.65 1.05 0 .196.06.361.177.492.12.131.33.251.632.36l1.65.526c1.38.481 2.382 1.094 3.007 1.837.626.744.939 1.772.939 3.084 0 1.181-.28 2.45-.84 3.806-.563 1.357-1.667 2.565-3.317 3.626-1.65 1.061-3.984 1.591-7.004 1.591-1.704 0-3.11-.066-4.221-.196-1.111-.132-2.518-.372-4.222-.723l2.265-5.774c1.811.021 4.183.033 7.117.033" id="Fill-27" fill="#231F20"/></g></g></g></svg>