<svg width="28" height="40" xmlns="http://www.w3.org/2000/svg"><g id="Page-1" stroke="none" stroke-width="1" fill="none" fill-rule="evenodd"><g id="Home-Page" transform="translate(-1547 -4048)" fill="#000"><path d="M1568.761 4064c1.333-3.35 2.373-6.116 3.12-8.298.746-2.181 1.119-3.52 1.119-4.018 0-.533-.124-.948-.373-1.242-.25-.294-.593-.442-1.03-.442-.557 0-1.124.428-1.701 1.284-.578.856-1.214 2.232-1.91 4.128l-2.986 7.98 3.761.608zm-3.761 6.914a20.319 20.319 0 01-2.629-.284 14.191 14.191 0 01-2.371-.63c.344.672.65 1.344.92 2.016.268.672.488 1.334.66 1.984.517-.63 1.06-1.202 1.63-1.717a13.6 13.6 0 011.79-1.37zm-3-7.32l-3.2-9.034c-.83-2.297-1.472-3.798-1.926-4.503-.455-.705-.948-1.057-1.481-1.057a1.25 1.25 0 00-1.008.463c-.257.31-.385.724-.385 1.246 0 .888.345 2.432 1.037 4.633.691 2.2 1.728 5.087 3.111 8.658a.98.98 0 01.504-.449c.217-.087.513-.13.889-.13.118 0 .355.01.71.029.356.02.939.068 1.749.145zm-3.277 12.406c.322 0 .615-.137.88-.413.265-.276.397-.574.397-.893 0-.338-.26-1.125-.78-2.36a23.131 23.131 0 00-1.943-3.64c-.568-.89-1.126-1.56-1.674-2.014-.55-.453-1.069-.68-1.56-.68-.398 0-.837.236-1.32.707-.482.47-.723.91-.723 1.32 0 .426.236 1.066.71 1.92.472.853 1.106 1.76 1.9 2.72.832 1.049 1.617 1.866 2.354 2.453.738.587 1.324.88 1.76.88zm-7.864.079c.255.313.61.772 1.066 1.378 1.203 1.672 2.314 2.508 3.335 2.508.345 0 .656-.11.929-.33.273-.221.41-.451.41-.69 0-.275-.182-.734-.547-1.378-.365-.643-.865-1.368-1.503-2.177-.729-.937-1.335-1.621-1.818-2.053-.483-.432-.87-.648-1.162-.648-.638 0-1.226.345-1.763 1.034-.537.689-.806 1.502-.806 2.439 0 .753.187 1.594.56 2.521.374.928.916 1.86 1.627 2.798a10.867 10.867 0 004.004 3.348c1.595.781 3.358 1.171 5.29 1.171 3.553 0 6.528-1.337 8.924-4.01s3.595-6.021 3.595-10.045c0-1.23-.091-2.209-.273-2.935-.183-.726-.483-1.254-.902-1.585-.748-.624-2.2-1.185-4.36-1.68a30.127 30.127 0 00-6.766-.745c-.656 0-1.12.11-1.394.33-.273.221-.41.598-.41 1.13 0 1.25.693 2.155 2.078 2.715 1.384.561 3.626.84 6.724.84h1.12a.75.75 0 01.616.29c.154.193.26.483.314.868-.31.294-.947.63-1.913 1.006-.966.377-1.705.749-2.214 1.117a9.867 9.867 0 00-2.638 2.88c-.666 1.111-.998 2.163-.998 3.155 0 .606.14 1.337.424 2.19.282.855.423 1.383.423 1.586v.193l-.054.248c-.802-.056-1.435-.528-1.9-1.42-.465-.89-.697-2.08-.697-3.569v-.248a1.52 1.52 0 01-.424.276 1.198 1.198 0 01-.45.083 2.47 2.47 0 01-.466-.042 4.701 4.701 0 01-.491-.124c.054.203.095.4.122.593.028.193.041.344.041.455 0 .68-.264 1.263-.792 1.75a2.691 2.691 0 01-1.886.73c-1.148 0-2.315-.565-3.5-1.695-1.184-1.13-1.776-2.237-1.776-3.32 0-.203.023-.382.068-.538a.923.923 0 01.233-.4zm19.612-11.018c1.657.311 2.826 1.007 3.507 2.088.681 1.08 1.022 2.784 1.022 5.11 0 4.615-1.394 8.392-4.183 11.332-2.79 2.94-6.356 4.409-10.7 4.409a13.89 13.89 0 01-4.985-.92c-1.611-.614-2.996-1.47-4.156-2.57-1.325-1.207-2.32-2.485-2.982-3.831-.663-1.346-.994-2.724-.994-4.135 0-1.575.34-2.792 1.022-3.654.68-.86 1.757-1.446 3.23-1.758a14.672 14.672 0 01-.607-1.62c-.129-.44-.193-.78-.193-1.017 0-.824.437-1.667 1.311-2.528.874-.86 1.699-1.291 2.472-1.291.331 0 .68.06 1.049.179.368.12.791.316 1.27.59-1.418-3.993-2.448-7.074-3.092-9.244-.645-2.17-.967-3.668-.967-4.492 0-1.136.294-2.037.884-2.706.589-.669 1.39-1.003 2.402-1.003 1.73 0 3.921 3.846 6.572 11.539.46 1.318.81 2.335 1.05 3.05.202-.568.487-1.375.855-2.418 2.651-7.62 4.934-11.43 6.849-11.43.939 0 1.688.317 2.25.949.562.631.842 1.479.842 2.54 0 .807-.308 2.28-.925 4.424-.617 2.143-1.55 4.945-2.803 8.407z" id="Fill-1"/></g></g></svg>