<svg width="291" height="418" xmlns="http://www.w3.org/2000/svg" xmlns:xlink="http://www.w3.org/1999/xlink"><defs><path id="path-1" d="M3 4h249v302H3z"/></defs><g id="Page-1" stroke="none" stroke-width="1" fill="none" fill-rule="evenodd"><g id="Home-Page" transform="translate(-1213 -1854)"><g id="Group-2" transform="translate(1213 1854)"><g id="Group-3" transform="translate(38)"><mask id="mask-2" fill="#fff"><use xlink:href="#path-1"/></mask><path d="M251.267 109.165c-8.443-15.55-19.07-30.343-32.5-42.858-31.636-29.463-63.271-47.332-110.748-57.915C73.419.678 38.084 3.41 7.12 14.357c-1.62.585-2.861 1.719-3.56 3.22a6.002 6.002 0 00-.14 4.744l9.121 23.198a6.182 6.182 0 003.389 3.432c1.552.646 3.27.631 4.858-.005 1.51-.635 3.042-1.246 4.584-1.83C56.967 35.11 93.057 33.528 127.92 42.137a9.58 9.58 0 002.282 3.672L21.317 297.147c-1.821 4.037-1.708 8.009.253 8.853L160.591 59.03a9.872 9.872 0 006.82-2.38c28.96 14.36 52.99 35.215 69.872 60.788 1.63 2.471 4.77 3.402 7.46 2.38a6.45 6.45 0 001.128-.56l3.264-2.059c2.732-1.724 3.658-5.217 2.132-8.034" id="Fill-1" fill="#F6B219" mask="url(#mask-2)"/></g><path d="M.73 312.139c8.375 15.658 18.91 30.549 32.233 43.146 31.382 29.659 62.768 47.641 109.864 58.293 34.322 7.765 69.373 5.017 100.082-5.999 1.612-.594 2.843-1.73 3.536-3.24a6.16 6.16 0 00.139-4.781l-9.048-23.347a6.197 6.197 0 00-3.361-3.455c-1.545-.65-3.244-.635-4.82.005a145.376 145.376 0 01-4.546 1.838c-31.34 12.09-67.14 13.677-101.725 5.016a9.66 9.66 0 00-2.268-3.7l108.016-253.003c1.802-4.064 1.689-8.057-.251-8.912L90.676 362.605a9.757 9.757 0 00-6.769 2.396c-28.723-14.45-52.566-35.448-69.306-61.185a6.193 6.193 0 00-7.405-2.401c-.38.148-.755.338-1.114.568l-3.238 2.073A6.145 6.145 0 00.73 312.14" id="Fill-4" fill="#F6B219"/></g></g></g></svg>