<svg version="1.1" id="Слой_1" xmlns="http://www.w3.org/2000/svg" x="0" y="0" width="54.7" height="55.1" xml:space="preserve"><style>.st0{fill:none;stroke:#fff;stroke-width:2;stroke-linecap:round;stroke-linejoin:round}</style><g id="Page-1"><g id="Index" transform="translate(-1491 -1452)"><g id="chat-message-info" transform="translate(1491 1452)"><path id="Path" class="st0" d="M27.8 27.5v9"/><path id="Path_1_" class="st0" d="M27.8 20.4c.1 0 .2 0 .3-.1.1-.1.1-.2.1-.3 0-.2-.1-.3-.3-.4-.2-.1-.4 0-.5.1s-.2.3-.1.5.3.2.5.2"/><path id="Path_2_" class="st0" d="M5.4 41.4c-7.1-11.2-4.7-26 5.7-34.3s25.3-7.4 34.7 2 10.1 24.4 1.8 34.7-23.1 12.7-34.3 5.5l-7.4 1.2c-.5.1-.9-.1-1.3-.4-.3-.3-.5-.8-.4-1.3l1.2-7.4z"/></g></g></g></svg>