<svg version="1.1" id="Слой_1" xmlns="http://www.w3.org/2000/svg" x="0" y="0" width="32.2" height="32.9" xml:space="preserve"><style>.st0{fill:none;stroke:#0979fe;stroke-width:2;stroke-linecap:round}</style><g id="Page-1"><g id="Publications" transform="translate(-369 -355.5)"><g id="users-message-support_1" transform="translate(369 355.5)"><path id="Path" class="st0" d="M17.6 20.1c-1.7 0-3 1.3-3 3v1.5c0 1.7 1.3 3 3 3h1.3v2.2c0 .3.2.6.4.7.3.1.6.1.8-.1l3.1-2.5c.3-.2.6-.3.9-.3h4c1.7 0 3-1.3 3-3v-1.5c0-1.7-1.3-3-3-3H17.6z"/><path id="Path_1_" class="st0" d="M4.1 3.6c-1.7 0-3 1.3-3 3v1.5c0 1.7 1.3 3 3 3h4c.3 0 .7.1.9.3l3.1 2.5c.2.2.5.2.8.1.3-.1.4-.4.4-.7v-2.2h1.3c1.7 0 3-1.3 3-3V6.6c0-1.7-1.3-3-3-3H4.1z"/><path id="Path_2_" class="st0" d="M1.1 31.2v-.6c0-1.7 1.4-3.1 3.1-3.1h4.2c1.7 0 3.1 1.4 3.1 3.1v.6c0 .4-.3.8-.8.8h-9c-.3-.1-.6-.4-.6-.8z"/><circle id="Oval" class="st0" cx="6.3" cy="20.7" r="3"/><path id="Path_3_" class="st0" d="M20.6 14.7v-.6c0-1.7 1.4-3.1 3.1-3.1h4.2c1.7 0 3.1 1.4 3.1 3.1v.6c0 .4-.3.8-.8.8h-9c-.3-.1-.6-.4-.6-.8z"/><circle id="Oval_1_" class="st0" cx="25.8" cy="4.2" r="3"/></g></g></g></svg>