<svg width="789" height="623" xmlns="http://www.w3.org/2000/svg"><path d="M763.345 410.416H589.096v-51.309h102.62c14.175 0 25.655-11.48 25.655-25.654 0-14.175-11.48-25.655-25.655-25.655h-102.62V256.49h92.218v-.162c.323 0 .592.162.862.162 14.121 0 25.547-11.426 25.547-25.493 0-14.121-11.426-25.547-25.547-25.547-.27 0-.539.216-.862.216v-.485h-92.218v-76.91H409.51V25.654C409.51 11.479 398.084 0 383.855 0c-14.175 0-25.601 11.479-25.601 25.654v102.617H178.669v76.91H64.461c-14.175 0-25.655 11.48-25.655 25.654 0 14.175 11.48 25.655 25.655 25.655h114.208v51.308H76.049c-14.175 0-25.655 11.48-25.655 25.655 0 14.174 11.48 25.654 25.655 25.654h102.62v51.309H26.248c-.216 0-.377-.108-.593-.108C11.48 410.308 0 421.788 0 435.963c0 14.12 11.48 25.654 25.655 25.654v.108h153.014v76.963h76.965V623h51.31v-84.312h51.31V623h51.256v-84.312h51.31V623h51.311v-84.312h76.965v-76.963h174.249c14.175 0 25.655-11.48 25.655-25.655 0-14.174-11.48-25.654-25.655-25.654" fill="#3E44A9" fill-rule="evenodd"/></svg>