<svg version="1.1" id="Слой_1" xmlns="http://www.w3.org/2000/svg" x="0" y="0" width="32.5" height="38.1" xml:space="preserve"><style>.st0{fill:none;stroke:#0979fe;stroke-width:2;stroke-linecap:round}</style><g id="Page-1"><g id="Publications" transform="translate(-994 -353)"><g id="book-open-left" transform="translate(994 353)"><path id="Path" class="st0" d="M18.8 1.5l-15 5C2.2 7 1.2 8.4 1.2 10v23.1c0 1.2.6 2.3 1.6 3s2.2.9 3.4.5l15-5c1.5-.5 2.6-1.9 2.6-3.6V5c0-1.2-.6-2.3-1.6-3-1-.7-2.3-.9-3.4-.5z"/><path id="Path_1_" class="st0" d="M5 36.9h22.5c2.1 0 3.8-1.7 3.8-3.8V10.6c0-2.1-1.7-3.8-3.8-3.8h-3.8"/></g></g></g></svg>