<svg width="165.003" height="51.769" xmlns="http://www.w3.org/2000/svg"><g fill="none"><path d="M0 0v1.294c3.026.324 4.829 1.165 9.207 5.434l1.674 1.618V19.93h1.48V9.575l41.465 39.27h1.287V13.783c0-7.893 2.64-10.48 7.92-12.486V0h-17.32v1.295c5.28 2.005 7.92 4.593 7.92 12.486v23.16L16.997 1.748C15.324.195 14.873.001 13.778.001L0 0zm10.868 35.62c-.194 7.208-2.828 9.678-7.906 11.607v1.294H20.28v-1.294c-5.078-1.929-7.712-4.399-7.906-11.607h-1.507z" fill="#C8102E"/><path d="M105.725 16.946h-.597l-2.594 1.699V19l1.178-.003.016 9.016c.002.888-.143 1.114-1.062 1.244v.5l4.145-.007v-.5c-.92-.127-1.065-.353-1.067-1.24l-.006-3.742c.772-.711 1.368-1.067 2.046-1.068.79-.001 1.017.401 1.018 1.127l.006 3.678c.002.887-.143 1.112-1.062 1.243l.001.5 4.145-.007-.002-.5c-.919-.127-1.064-.353-1.066-1.24l-.006-3.855c-.003-1.29-.552-2.209-2.182-2.206-.984.002-1.95.584-2.9 1.393l-.011-6.387zm-25.996.756l-3.903.006.001.5c.92.257 1.453.74 1.456 2.626l.01 5.678-8.24-8.292c-.452-.45-.63-.499-.92-.498l-3.048.005.001.5c.661.064 1.048.32 1.808 1.045.242.225.469.5.47.951l.01 6.468c.004 1.887-.528 2.372-1.446 2.63v.501l3.904-.006-.001-.5c-.92-.257-1.453-.74-1.456-2.627l-.01-6.096 9.273 9.289.66-.001-.015-9.048c-.004-1.887.528-2.372 1.447-2.631l-.001-.5zm58.904 2.846l-.29.001-2.9 1.909v.516l1.178-.002.01 5.274c.001 1.048.599 1.611 1.776 1.609a4.321 4.321 0 002.595-.892l-.242-.515c-.435.194-.823.291-1.162.292-.758.001-.952-.386-.952-.917l-.009-4.855 2.048-.004-.002-.919-2.048.003-.002-1.5zm-38.818.07h-.29l-2.9 1.907.002.517 1.177-.002.01 5.274c.001 1.049.598 1.612 1.776 1.61a4.32 4.32 0 002.595-.892l-.243-.515c-.435.194-.822.291-1.16.292-.758.002-.953-.386-.954-.918l-.008-4.854 2.048-.004-.001-.92-2.048.004-.004-1.5zm-87.076.844l-.26.002c-.135.001-.191.043-.236.18-.221.654-.334.982-.566 1.638-.236-.653-.351-.979-.577-1.63-.046-.136-.102-.177-.237-.176l-.295.002c-.093.001-.15.084-.117.178.324.918.49 1.377.835 2.295.052.135.11.177.25.176l.244-.002c.14-.001.199-.043.25-.18.34-.922.505-1.383.826-2.306.033-.095-.025-.177-.117-.177zm.91.023c-.079-.004-.127.08-.085.154.26.454.392.681.66 1.136-.305.471-.46.707-.777 1.178-.045.07 0 .158.081.162l.34.016c.15.008.203-.02.282-.148.188-.3.281-.45.465-.749.18.317.27.477.454.794.077.135.13.168.28.175l.37.018c.08.004.129-.08.084-.154-.31-.501-.464-.751-.764-1.252.276-.427.411-.641.679-1.069a.107.107 0 00-.084-.162l-.331-.017c-.146-.007-.196.02-.27.15l-.382.634a86.95 86.95 0 01-.378-.673c-.074-.135-.123-.168-.27-.175l-.355-.018zm-4.805.08c-.103.006-.154.01-.257.015-.117.007-.178.073-.178.197-.002.903-.002 1.355 0 2.258 0 .124.062.185.184.178.525-.028.788-.041 1.313-.07.122-.005.183-.073.18-.197l-.005-.207c-.003-.124-.066-.185-.187-.179l-.856.046a385.26 385.26 0 01-.014-1.862c-.002-.124-.062-.185-.18-.178zm149.952.174h-.742l-2.335 1.537v.355l1.113-.002.007 4.29c.002.888-.143 1.114-1.062 1.244v.5l4.145-.007v-.5c-.92-.128-1.065-.353-1.067-1.24l-.006-3.726c.805-.727 1.466-1.083 2.046-1.084.79-.002 1.017.401 1.018 1.127l.006 3.677c.002.887-.143 1.113-1.062 1.244l.001.5 4.145-.007v-.5c-.92-.127-1.065-.353-1.067-1.24l-.007-3.855c-.002-1.29-.553-2.208-2.181-2.205-1 .001-1.983.616-2.95 1.44l-.002-1.548zm-6.58.011l-.709.002-2.336 1.536v.355l1.113-.003.008 4.291c.002.887-.143 1.113-1.062 1.244l.001.5 4.273-.008v-.5c-1.05-.16-1.195-.384-1.196-1.385l-.006-3.322c.322-.581.627-1.001.949-1.292.001.63.437 1.031.985 1.03.548 0 1.08-.437 1.079-1.276-.001-.71-.405-1.144-1.115-1.143-.79.002-1.402.664-1.98 1.6l-.003-1.629zm-59.22.105l-.71.001-2.336 1.537v.354l1.114-.001.007 4.29c.001.887-.144 1.113-1.062 1.244v.5l4.275-.008-.001-.5c-1.05-.159-1.194-.385-1.196-1.385l-.006-3.322c.322-.582.627-1.001.95-1.292 0 .629.436 1.03.984 1.03.549-.001 1.08-.437 1.08-1.276-.002-.71-.406-1.144-1.116-1.143-.79.001-1.402.663-1.98 1.6l-.004-1.63zm52.414.02c-2.241.004-3.883 1.813-3.879 4.055.004 2.226 1.426 3.917 3.926 3.913 1.532-.003 2.45-.682 2.997-1.618l-.436-.338a2.46 2.46 0 01-1.853.842c-1.484.002-2.325-1.125-2.634-2.592l4.836-1.622c-.1-1.71-1.36-2.642-2.957-2.64zm-13.692.025c-1.709.003-2.82.988-2.818 2.472.003 1.5 1.246 1.933 2.408 2.319 1.145.384 1.936.61 1.938 1.464 0 .532-.402.936-1.176.937-1.08.002-1.904-.706-2.89-1.962l-.436.162.634 2.515h.274l.467-.34a4.05 4.05 0 001.79.4c1.645-.003 2.999-.973 2.996-2.538-.002-1.5-1.246-1.965-2.407-2.334-1.146-.37-1.937-.61-1.938-1.449 0-.451.337-.871.999-.872.822-.001 1.549.497 2.421 1.48l.42-.195-.617-1.998h-.258l-.29.242a3.857 3.857 0 00-1.517-.303zm-7.386.012c-2.048.004-3.546 1.104-3.544 2.136 0 .5.34.919.92.917.661 0 .984-.437 1.08-.872.096-.5-.067-.871-.31-1.08a2.788 2.788 0 011.226-.293c.694 0 1.033.24 1.034.87l.003 1.612c-2.886.715-4.207 1.346-4.204 2.878.002 1.178.76 1.805 1.954 1.804.758-.002 1.628-.326 2.37-.908.113.532.485.838 1.178.837.694-.002 1.435-.325 1.918-.665l-.146-.452c-.79.147-1.08.035-1.081-.497l-.008-4.307c-.002-1.29-.568-1.982-2.39-1.98zm-7.725.014c-2.242.004-3.883 1.813-3.88 4.055.004 2.226 1.427 3.918 3.927 3.913 1.532-.003 2.45-.682 2.996-1.619l-.436-.337c-.434.5-1.095.84-1.853.842-1.483.002-2.325-1.126-2.633-2.593l4.835-1.62c-.1-1.71-1.36-2.643-2.956-2.64zm-31.82.057c-2.613.004-4.174 1.894-4.17 4.088.004 2.113 1.427 3.884 4.023 3.88 2.613-.005 4.173-1.895 4.17-4.088-.004-2.113-1.426-3.884-4.023-3.88zm60.222.732c.742-.001 1.21.53 1.406 1.578l-2.998 1.037a5.972 5.972 0 01-.017-.532c-.002-1.307.545-2.081 1.61-2.083zm-28.803.05c.741 0 1.21.53 1.406 1.579l-2.998 1.037a5.827 5.827 0 01-.017-.532c-.002-1.306.544-2.081 1.609-2.083zm-31.627.008c1.71-.003 2.214 2.094 2.217 4.013.003 1.45-.624 2.37-1.947 2.374-1.71.002-2.214-2.093-2.217-4.013-.002-1.452.625-2.372 1.947-2.374zm40.162 3.155l.005 2.339c-.451.355-.855.517-1.258.518-.629 0-1-.337-1.002-1.128-.001-.822.37-1.21 2.255-1.73zm-112.41.292c-.122-.001-.185.062-.185.186l-.01 2.26c-.001.124.064.189.19.19l.278.002c.127 0 .191-.063.19-.187l-.008-2.26c0-.124-.064-.188-.185-.19l-.27-.001zm1.543.021c-.121-.006-.186.055-.189.18l-.005.207c-.003.123.06.19.182.196l.588.028-.026 1.862c-.002.124.062.19.188.197l.279.012c.126.006.192-.055.192-.18.006-.744.008-1.116.012-1.861l.59.027c.123.006.186-.055.185-.18v-.206c-.002-.124-.065-.192-.188-.197-.724-.034-1.085-.05-1.808-.085zm-3.708.007l-.858.027c-.122.005-.185.071-.186.195l-.009 2.26c0 .124.065.186.191.182l.275-.008c.127-.005.191-.07.191-.195l-.004-.806.294-.01c.168.325.252.488.423.813.07.133.125.165.278.16l.336-.011c.092-.003.143-.09.1-.169a74.676 74.676 0 01-.527-.947.734.734 0 00.426-.7c-.01-.49-.372-.81-.93-.791zm-2.326.115l-1.484.125c-.122.01-.185.079-.184.203.007.9.012 1.35.022 2.252.002.124.069.182.195.172l1.533-.125c.127-.01.19-.08.185-.204l-.006-.187c-.005-.124-.072-.183-.197-.173l-1.054.087-.01-.507c.289-.023.434-.035.722-.06.125-.01.187-.079.184-.203l-.005-.164c-.004-.124-.07-.183-.193-.172l-.718.06-.008-.455 1.035-.087c.123-.01.184-.08.18-.203l-.006-.188c-.003-.124-.069-.181-.19-.171zm9.576.08c-.141-.013-.201.022-.256.153a86.402 86.402 0 01-.968 2.21c-.042.091.015.18.115.188l.28.026c.146.013.209-.022.263-.153l.132-.32 1 .091.118.342c.047.14.108.186.255.2.127.01.19.016.319.028.1.01.162-.068.125-.165-.356-.95-.53-1.425-.868-2.375-.05-.14-.11-.187-.25-.2l-.265-.025zm-12.342.175l-.272.038c-.142.02-.2.068-.243.21-.213.68-.32 1.02-.54 1.7a81.645 81.645 0 01-.662-1.536c-.052-.128-.113-.16-.255-.141l-.312.042c-.098.013-.157.104-.117.192.37.864.562 1.296.96 2.16.059.127.122.16.269.14l.255-.034c.146-.02.206-.069.254-.21.323-.96.481-1.441.79-2.402.033-.098-.03-.172-.127-.159zm15.471.156c-.499-.051-.875.252-.899.69-.014.281.124.529.395.726.1.076.4.286.502.363.107.078.162.147.157.237-.005.116-.12.184-.283.167-.144-.014-.286-.086-.458-.238-.094-.085-.177-.093-.262-.007l-.133.129c-.089.09-.09.18.004.276.192.195.466.351.825.387.518.052.918-.212.94-.695.012-.266-.126-.517-.402-.718-.102-.076-.401-.286-.503-.363-.117-.083-.16-.144-.154-.241.005-.105.095-.182.246-.166a.604.604 0 01.307.143c.099.078.185.082.265-.01l.115-.131c.076-.083.08-.185.004-.256a1.158 1.158 0 00-.666-.293zm-10.389.005c.164-.005.284.112.286.292.003.173-.116.298-.281.303l-.398.013-.002-.595.395-.013zm7.357.455c.116.35.174.526.292.877l-.622-.057c.133-.328.2-.492.33-.82zm-5.201 3.728c-.127-.002-.193.06-.195.185l-.003.207c-.003.125.061.19.189.192l.608.011-.016 1.864c0 .125.066.19.197.192.115.003.173.003.288.005.13.003.197-.06.197-.185V31.57l.608.011c.127.003.192-.06.19-.185v-.207c-.002-.125-.068-.19-.194-.192l-1.87-.034zm-1.815.023l-.887.022c-.126.004-.192.069-.193.193l-.008 2.26c0 .125.067.187.197.184l.284-.007c.131-.003.198-.069.197-.193l-.004-.806.304-.008c.173.326.26.489.436.815.073.134.129.166.287.163l.347-.01c.095-.001.148-.09.103-.168-.22-.38-.328-.57-.543-.95a.727.727 0 00.44-.697c-.01-.49-.383-.812-.96-.798zm4.654.046c-.1-.007-.164.072-.128.169.332.941.503 1.412.852 2.353.052.14.114.185.264.194l.262.017c.15.009.215-.029.272-.16.39-.895.579-1.343.945-2.238.038-.091-.023-.178-.123-.184l-.28-.018c-.147-.01-.209.028-.26.16-.252.636-.38.955-.644 1.591a133.52 133.52 0 01-.59-1.67c-.046-.14-.107-.184-.252-.194l-.318-.02zm-7.126.056l-.28.017c-.127.008-.192.076-.19.2.014.903.022 1.354.04 2.257.002.124.07.184.201.176l.29-.017c.13-.008.195-.076.191-.2-.024-.903-.035-1.354-.056-2.257-.003-.125-.07-.185-.196-.176zm-1.587.105l-.28.03c-.146.014-.206.061-.25.202-.222.675-.334 1.012-.562 1.688a88.384 88.384 0 01-.678-1.562c-.053-.13-.116-.165-.263-.15l-.32.034c-.1.01-.16.099-.12.188.38.879.576 1.317.981 2.195.06.13.126.164.277.149l.262-.026c.15-.015.212-.062.262-.203.336-.953.5-1.429.822-2.381.034-.098-.03-.174-.13-.164zm12.779.102c-.494-.046-.869.262-.895.701-.017.282.119.528.385.722.105.073.39.285.496.358.105.078.158.147.153.236-.006.116-.12.185-.281.17-.143-.012-.283-.082-.451-.233-.093-.084-.175-.091-.26-.005-.027.026-.105.105-.133.131-.088.09-.09.18.002.276.188.195.46.348.815.38.513.047.91-.223.934-.706.014-.267-.121-.516-.393-.715-.105-.073-.39-.285-.495-.358-.115-.082-.157-.143-.151-.24.005-.105.096-.184.244-.17a.6.6 0 01.304.141c.097.077.183.08.262-.014.024-.025.092-.106.116-.132.075-.084.08-.184.005-.255a1.123 1.123 0 00-.657-.287zm-8.73.222c.169-.004.294.114.296.295a.287.287 0 01-.291.3l-.41.011-.004-.596c.164-.003.245-.005.408-.01zm69.066 4.71l-3.902.006v.5c.92.257 1.453.74 1.456 2.627l.007 3.887c.005 2.725-1.428 3.986-4.138 3.99-2.693.005-4.146-1.25-4.151-3.975l-.01-4.904c-.001-1.225.353-1.436 1.369-1.583v-.532l-4.904.009v.532c1.017.143 1.34.352 1.343 1.578l.008 4.839c.006 3.129 1.638 5.303 5.75 5.296 4.113-.007 5.739-2.187 5.733-5.252l-.007-3.887c-.004-1.887.528-2.373 1.447-2.632l-.001-.5zm47.304.529c-.71.001-1.241.55-1.24 1.228.001.628.47 1.128 1.115 1.126a1.228 1.228 0 001.223-1.243 1.09 1.09 0 00-1.098-1.111zm-34.384.06a1.22 1.22 0 00-1.24 1.228c.001.63.47 1.129 1.115 1.128a1.229 1.229 0 001.224-1.244c-.001-.613-.47-1.112-1.099-1.111zm40.324 2.268h-.29l-2.9 1.909.001.516 1.177-.002.01 5.274c.002 1.048.6 1.611 1.777 1.61a4.317 4.317 0 002.594-.892l-.242-.516c-.435.194-.822.292-1.161.293-.758.001-.952-.386-.953-.918l-.009-4.855 2.049-.003-.002-.92-2.048.004-.003-1.5zm-4.917 1.235l-.79.001-2.368 1.553.001.354 1.145-.002.007 4.274c.002.887-.159 1.097-1.143 1.244v.5l4.307-.008v-.5c-1-.143-1.146-.352-1.148-1.24l-.01-6.176zm-13.644.023l-.71.002-2.335 1.536v.355l1.114-.002.007 4.29c.001.887-.143 1.113-1.063 1.244l.002.5 4.274-.008v-.5c-1.05-.159-1.195-.385-1.197-1.384l-.006-3.323c.322-.581.627-1.001.95-1.292 0 .63.436 1.031.985 1.03.548 0 1.08-.437 1.078-1.275 0-.71-.405-1.145-1.115-1.144-.79.001-1.402.664-1.98 1.6l-.004-1.629zm-20.74.038h-.79l-2.368 1.553.001.355 1.145-.002.008 4.274c.001.887-.16 1.097-1.143 1.244v.5l4.306-.008v-.5c-1-.143-1.146-.352-1.148-1.24l-.01-6.176zm-10.401.018l-.742.001-2.335 1.537v.354l1.113-.002.007 4.29c.001.887-.143 1.114-1.062 1.245l.001.5 4.145-.008-.001-.5c-.92-.128-1.065-.353-1.067-1.24l-.007-3.726c.805-.727 1.466-1.083 2.047-1.084.79-.001 1.017.402 1.018 1.127l.006 3.678c.002.887-.143 1.113-1.062 1.243v.5l4.145-.007v-.5c-.92-.128-1.065-.353-1.067-1.24l-.007-3.855c-.002-1.29-.552-2.208-2.18-2.205-1 .002-1.984.616-2.95 1.44l-.002-1.548zm37.64.046c-1.709.003-2.82.989-2.817 2.473.002 1.5 1.245 1.933 2.407 2.318 1.146.385 1.937.61 1.939 1.464 0 .532-.402.936-1.177.938-1.08.002-1.903-.706-2.89-1.963l-.435.162.633 2.515h.275l.467-.34c.533.257 1.13.402 1.79.4 1.646-.003 2.999-.973 2.996-2.538-.003-1.5-1.245-1.965-2.407-2.334-1.146-.369-1.937-.609-1.938-1.447-.001-.452.337-.872.998-.874.823 0 1.55.498 2.422 1.48l.419-.194-.617-1.999h-.258l-.29.243a3.856 3.856 0 00-1.516-.304zm-13.304.023c-2.241.005-3.883 1.814-3.88 4.056.005 2.226 1.427 3.916 3.927 3.912 1.532-.002 2.45-.682 2.997-1.618l-.437-.338c-.434.5-1.095.84-1.853.842-1.483.003-2.324-1.125-2.633-2.592l4.836-1.622c-.1-1.709-1.36-2.642-2.957-2.64zm36.497.097l-3.178.006.002.452c1.048.224 1.162.756.68 1.886l-1.22 2.92-1.522-3.432c-.324-.757-.277-1.193.836-1.324l-.001-.5-4.242.008.001.5c.5.128.694.337 1.131 1.24l2.704 5.801-.45.968c-.257.565-.498.985-.772 1.227-.194-.66-.566-1.014-1.147-1.014-.58.001-1.08.39-1.078 1.148a1.322 1.322 0 001.34 1.32c1.033-.002 1.677-.52 2.464-2.247l3.037-6.731c.594-1.324.787-1.614 1.416-1.776l-.001-.452zm-40.498.072l-3.177.005v.452c1.05.224 1.164.756.682 1.886l-1.22 2.921-1.523-3.432c-.324-.758-.276-1.193.836-1.324v-.5l-4.242.007.001.5c.5.129.71.338 1.131 1.24l2.769 5.98.839-.002 2.49-5.504c.594-1.324.786-1.615 1.415-1.778v-.451zm3.598.67c.742 0 1.21.531 1.406 1.58l-2.998 1.036a5.687 5.687 0 01-.017-.532c-.002-1.306.545-2.08 1.61-2.083z" fill="#000"/></g></svg>