<svg version="1.1" id="Слой_1" xmlns="http://www.w3.org/2000/svg" x="0" y="0" width="33" height="33.1" xml:space="preserve"><style>.st0{fill:none;stroke:#0979fe;stroke-width:2;stroke-linecap:round}</style><g id="Page-1"><g id="Gallery" transform="translate(-506 -252)"><g id="photos-images-2" transform="translate(506 252)"><path id="Path" class="st0" d="M7.8 24.3l-.2 1.1c-.2 1.6.8 3.1 2.4 3.4l15.7 2.8c1.6.3 3.1-.8 3.4-2.4l2.5-14.3c.1-.8 0-1.6-.5-2.2-.4-.6-1.1-1.1-1.9-1.2l-4.8-.9"/><path id="Path_1_" class="st0" d="M4.5 1.6h16.1c.8 0 1.5.3 2.1.9s.9 1.3.9 2.1v16.1c0 .8-.3 1.5-.9 2.1s-1.3.9-2.1.9H4.5c-.8 0-1.5-.3-2.1-.9s-.9-1.3-.9-2.1V4.6c.1-1.7 1.4-3 3-3z"/><path id="Path_2_" class="st0" d="M23.6 17.1h-22"/></g></g></g></svg>