<svg version="1.1" id="Слой_1" xmlns="http://www.w3.org/2000/svg" x="0" y="0" width="32.1" height="32.2" xml:space="preserve"><style>.st0{fill:none;stroke:#fff;stroke-width:2;stroke-linecap:round;stroke-linejoin:round}</style><g id="Page-1"><g id="COURSES" transform="translate(-369 -230)"><g id="chip-microchip-square-signal" transform="translate(369 230)"><path id="Rectangle" class="st0" d="M11.9 11.2h8.3c.5 0 .8.4.8.8v8.3c0 .5-.4.8-.8.8h-8.3c-.5 0-.8-.4-.8-.8V12c0-.4.3-.8.8-.8z"/><path id="Path" class="st0" d="M31.1 21.2h-5"/><path id="Path_1_" class="st0" d="M6.1 11.2h-5"/><path id="Path_2_" class="st0" d="M6.1 21.2h-5"/><path id="Path_3_" class="st0" d="M11.1 1.2v5"/><path id="Path_4_" class="st0" d="M11.1 26.2v5"/><path id="Path_5_" class="st0" d="M21.1 26.2v5"/><path id="Path_6_" class="st0" d="M16.1 26.2v5"/><path id="Path_7_" class="st0" d="M14.4 6.2h-3.3c-2.8 0-5 2.2-5 5v10c0 2.8 2.2 5 5 5h10c2.8 0 5-2.2 5-5v-3.3"/><path id="Path_8_" class="st0" d="M19.4 6.2c3.7 0 6.7 3 6.7 6.7"/><path id="Path_9_" class="st0" d="M19.4 1.2c6.4 0 11.7 5.2 11.7 11.7"/><path id="Path_10_" class="st0" d="M6.1 16.2h-5"/></g></g></g></svg>