<svg width="44" height="44" xmlns="http://www.w3.org/2000/svg"><g fill="none" fill-rule="evenodd"><path d="M0 44h44V0H0z"/><path d="M6 15V9.6C6 7.612 7.567 6 9.5 6H13m25 23v5.4a3.6 3.6 0 01-3.6 3.6H29m-1.91-16h6.82c2.258 0 4.09-1.903 4.09-4.25v-8.5C38 6.903 36.168 5 33.91 5H22.09C19.833 5 18 6.903 18 9.25v5.194" stroke="#FFF" stroke-width="2" stroke-linecap="round" stroke-linejoin="round"/><path d="M24 12l3.58 1.782a2.046 2.046 0 001.84 0L33 12M19 26v-4c0-1.105-.796-2-1.778-2h-4.444c-.982 0-1.778.895-1.778 2v4" stroke="#FFF" stroke-width="2" stroke-linecap="round" stroke-linejoin="round"/><rect stroke="#FFF" stroke-width="2" stroke-linecap="round" stroke-linejoin="round" x="6" y="26" width="18" height="13" rx="1.5"/></g></svg>