<svg width="250.001" height="71.34" xmlns="http://www.w3.org/2000/svg"><g fill="none" fill-rule="evenodd"><path d="M28.554 53.92h5.036v-5.036h-5.036v5.036zm-2.518 2.518h10.072V46.366H26.036v10.072z" fill="#0979FE"/><path d="M6.607 26.569a1.262 1.262 0 001.7-.526 6.554 6.554 0 015.815-3.513c.854 0 1.703.193 2.534.553a10.037 10.037 0 00-.183 1.883c0 4.78 3.397 8.933 8.076 9.872l.682.026a1.259 1.259 0 100-2.518h-.304a7.574 7.574 0 01-5.938-7.38c0-4.166 3.388-7.554 7.554-7.554 2.092 0 4.06.867 5.489 2.378a7.908 7.908 0 00-2.97 6.176 1.258 1.258 0 002.517 0 5.411 5.411 0 015.407-5.407c2.375 0 4.441 1.545 5.142 3.84a1.257 1.257 0 001.772.757c.789-.396 1.6-.597 2.415-.597a5.411 5.411 0 015.407 5.406 5.412 5.412 0 01-5.407 5.404 1.259 1.259 0 100 2.518c4.37 0 7.925-3.555 7.925-7.922 0-4.37-3.555-7.924-7.925-7.924a7.59 7.59 0 00-2.285.354 7.85 7.85 0 00-9.745-3.87 10.05 10.05 0 00-7.742-3.632c-4.02 0-7.488 2.376-9.102 5.788a8.824 8.824 0 00-3.32-.67 9.067 9.067 0 00-8.04 4.857 1.259 1.259 0 00.526 1.7" fill="#FFF"/><path d="M23.52 58.956h15.107V43.85H23.52v15.106zM9.893 57.697a1.26 1.26 0 01-1.26-1.259 1.26 1.26 0 011.26-1.259c.693 0 1.259.566 1.259 1.26 0 .692-.566 1.258-1.26 1.258zM54.05 36.013a1.263 1.263 0 00.944 1.51 3.823 3.823 0 012.971 3.743 3.848 3.848 0 01-3.843 3.843H41.145v-3.777H32.33v-5.036a1.259 1.259 0 10-2.518 0v5.036h-8.81v3.777H7.553a5.043 5.043 0 01-5.036-5.036 5.042 5.042 0 015.036-5.036 1.259 1.259 0 100-2.518C3.388 32.519 0 35.907 0 40.073c0 4.163 3.388 7.552 7.554 7.552h13.448v2.518h-5.036a1.259 1.259 0 100 2.518h5.036v2.518h-7.565c-.52-1.463-1.907-2.518-3.544-2.518a3.781 3.781 0 00-3.778 3.777 3.781 3.781 0 003.778 3.778c1.637 0 3.023-1.056 3.544-2.519h7.565v3.778h3.775v5.036a1.259 1.259 0 102.518 0v-5.036h2.518v5.036a1.259 1.259 0 102.518 0v-5.036h2.518v7.983a1.259 1.259 0 102.518 0v-7.983h3.778v-3.778h8.549c.698 0 1.259-.563 1.259-1.259 0-.695-.561-1.259-1.26-1.259h-8.548v-2.518h5.036a1.259 1.259 0 100-2.518h-5.036v-2.518H54.12a6.367 6.367 0 006.362-6.359 6.334 6.334 0 00-4.922-6.198 1.26 1.26 0 00-1.51.945z" fill="#FFF"/><path d="M34.044 28.69a1.259 1.259 0 102.518 0 1.259 1.259 0 00-2.518 0M5.718 30.945a1.259 1.259 0 10.001-2.517 1.259 1.259 0 000 2.517" fill="#3F4898"/><path d="M15.186 64.308c.542-.45.619-1.251.172-1.796a1.282 1.282 0 00-1.799-.182c-.14.11-3.45 2.713-7.409-.059a1.274 1.274 0 00-1.783.315 1.282 1.282 0 00.315 1.786c4.468 3.126 8.824 1.325 10.504-.064m1.924 2.699c-.238.164-5.94 3.97-14.622-.108a1.283 1.283 0 00-1.09 2.32c10.081 4.737 16.895.09 17.18-.111a1.278 1.278 0 00.313-1.778 1.283 1.283 0 00-1.78-.323" fill="#0979FE"/><path d="M70.624 57.278h1.249v10.737h6.618v1.08h-7.867V57.277zm19.46 7.646l-2.836-6.345-2.839 6.345h5.674zm.454 1.013h-6.58l-1.421 3.156h-1.299l5.401-11.816h1.233l5.401 11.816h-1.317l-1.418-3.156zm15.039 1.586c.54-.36.812-.923.812-1.688 0-1.473-1.072-2.211-3.209-2.211h-4.168v4.439h4.168c1.058 0 1.857-.178 2.397-.54zm-6.565-9.213v4.288h3.76c.961 0 1.696-.185 2.212-.55.521-.365.778-.897.778-1.595 0-.699-.257-1.23-.778-1.595-.516-.365-1.251-.548-2.211-.548h-3.761zm7.99 5.695c.421.5.633 1.145.633 1.93 0 1.014-.373 1.794-1.122 2.34-.749.544-1.854.82-3.314.82h-5.436V57.277h5.097c1.317 0 2.336.268 3.063.794.725.529 1.087 1.278 1.087 2.243 0 .653-.161 1.209-.481 1.664-.32.455-.762.796-1.325 1.02.777.17 1.378.503 1.798 1.006zm13.712 3.443a4.56 4.56 0 001.772-1.756c.429-.746.643-1.585.643-2.505 0-.923-.214-1.757-.643-2.508a4.579 4.579 0 00-1.772-1.756c-.754-.42-1.598-.632-2.532-.632-.933 0-1.78.211-2.539.632a4.644 4.644 0 00-1.79 1.756c-.432.751-.649 1.585-.649 2.508 0 .92.217 1.759.648 2.505a4.626 4.626 0 001.791 1.756c.76.42 1.606.632 2.54.632.933 0 1.777-.211 2.53-.632m-5.71.96a5.683 5.683 0 01-2.23-2.15c-.534-.91-.801-1.936-.801-3.071 0-1.138.267-2.161.801-3.071a5.707 5.707 0 012.23-2.153c.95-.524 2.01-.786 3.18-.786 1.169 0 2.224.26 3.163.778a5.712 5.712 0 012.22 2.153c.542.915.811 1.941.811 3.079 0 1.135-.27 2.163-.812 3.081a5.743 5.743 0 01-2.219 2.15c-.939.517-1.994.776-3.164.776-1.169 0-2.23-.26-3.179-.786m21.778-4.902c.619-.515.93-1.243.93-2.177 0-.957-.311-1.69-.93-2.2-.617-.513-1.51-.767-2.682-.767h-3.14v5.922h3.14c1.171 0 2.065-.26 2.682-.778zm.997 5.587l-2.7-3.796c-.305.032-.62.05-.945.05h-3.174v3.746h-1.249V57.28h4.423c1.505 0 2.69.36 3.544 1.082.855.716 1.28 1.708 1.28 2.967 0 .924-.232 1.701-.698 2.339-.468.637-1.134 1.095-2 1.375l2.887 4.05h-1.368zm13.62-4.169l-2.835-6.345-2.838 6.345h5.673zm.455 1.013h-6.58l-1.421 3.156h-1.299l5.402-11.816h1.232l5.401 11.816h-1.317l-1.418-3.156zm8.927-7.576h-4.15v-1.082h9.552v1.082h-4.15v10.733h-1.252V58.361zm17.452 9.087a4.56 4.56 0 001.772-1.756c.429-.746.643-1.585.643-2.505 0-.923-.214-1.757-.643-2.508a4.579 4.579 0 00-1.772-1.756c-.754-.42-1.598-.632-2.531-.632-.934 0-1.78.211-2.54.632a4.644 4.644 0 00-1.79 1.756c-.432.751-.648 1.585-.648 2.508 0 .92.216 1.759.648 2.505a4.626 4.626 0 001.79 1.756c.76.42 1.606.632 2.54.632.933 0 1.777-.211 2.531-.632m-5.71.96a5.683 5.683 0 01-2.23-2.15c-.535-.91-.802-1.936-.802-3.071 0-1.138.267-2.161.801-3.071a5.707 5.707 0 012.23-2.153c.95-.524 2.01-.786 3.18-.786 1.169 0 2.224.26 3.163.778a5.712 5.712 0 012.22 2.153c.542.915.812 1.941.812 3.079 0 1.135-.27 2.163-.813 3.081a5.743 5.743 0 01-2.219 2.15c-.939.517-1.994.776-3.163.776-1.17 0-2.23-.26-3.18-.786m21.778-4.902c.619-.515.931-1.243.931-2.177 0-.957-.312-1.69-.931-2.2-.616-.513-1.51-.767-2.682-.767h-3.14v5.922h3.14c1.172 0 2.066-.26 2.682-.778zm.997 5.587l-2.7-3.796c-.305.032-.62.05-.945.05h-3.174v3.746h-1.248V57.28h4.422c1.505 0 2.69.36 3.545 1.082.854.716 1.28 1.708 1.28 2.967 0 .924-.233 1.701-.698 2.339-.469.637-1.135 1.095-2 1.375l2.886 4.05h-1.368zm10.552-4.083v4.084h-1.233V65.01l-4.724-7.732h1.333l4.05 6.634 4.05-6.634h1.248l-4.724 7.732z" fill="#FFF"/><path d="M218.226 6.92a1.261 1.261 0 01-1.6 1.947c-.138-.108-3.394-2.672-7.29.058a1.26 1.26 0 01-1.447-2.066c4.396-3.078 8.683-1.306 10.337.061m3.646-2.974a1.265 1.265 0 01-1.754.318c-.235-.162-5.845-3.907-14.389.106a1.26 1.26 0 11-1.071-2.283c9.922-4.66 16.627-.087 16.905.108.568.4.706 1.18.31 1.751" fill="#0979FE"/><path d="M214.368 14.91a1.352 1.352 0 10-2.705.001 1.352 1.352 0 002.705-.001m-5.409 0a4.062 4.062 0 014.058-4.058 4.062 4.062 0 014.057 4.058 4.062 4.062 0 01-4.057 4.057 4.062 4.062 0 01-4.058-4.057" fill="#3F4898"/><path d="M70.922 48.635V24.422c0-.532.174-.981.526-1.346.352-.363.78-.545 1.29-.545h7.939c.508 0 .989.182 1.444.545.455.365.759.801.918 1.309l5.756 16.659 5.755-16.66c.154-.507.46-.943.915-1.308.455-.363.937-.545 1.445-.545h7.94c.508 0 .934.182 1.28.545.342.365.516.814.516 1.346v24.213c0 .535-.18.979-.537 1.339-.357.357-.79.534-1.296.534h-3.515c-.505 0-.94-.177-1.296-.534-.36-.36-.537-.804-.537-1.339V29.572l-6.885 19.18c-.185.481-.503.894-.958 1.24-.455.347-.936.516-1.444.516H87.39c-.508 0-.987-.17-1.434-.516a2.966 2.966 0 01-.968-1.24l-6.867-19.18v19.063c0 .535-.18.979-.536 1.339a1.765 1.765 0 01-1.3.534h-3.51c-.507 0-.944-.177-1.306-.534a1.801 1.801 0 01-.547-1.339m42.12 0v-24.29c0-.508.182-.936.548-1.288a1.81 1.81 0 011.306-.526h22.494c.508 0 .942.182 1.299.545.357.365.534.801.534 1.309v1.833c0 .508-.177.939-.534 1.296a1.77 1.77 0 01-1.299.537h-16.992v5.679h14.633c.508 0 .939.177 1.299.534.354.36.534.791.534 1.3v1.832c0 .508-.18.94-.534 1.299-.36.357-.791.537-1.3.537h-14.632v5.756h16.953c.497 0 .917.174 1.27.526.351.352.526.78.526 1.288v1.873c0 .508-.18.939-.545 1.299a1.804 1.804 0 01-1.307.534h-22.399c-.508 0-.944-.177-1.306-.534a1.801 1.801 0 01-.548-1.339m30.574.039v-24.29c0-.508.174-.945.526-1.307a1.72 1.72 0 011.291-.547h5.732c.455 0 .939.182 1.444.547.508.362.926.799 1.249 1.307l11.786 18.124V24.344c0-.508.18-.936.535-1.288.36-.35.79-.526 1.298-.526h3.357c.505 0 .939.177 1.296.526.357.352.537.793.537 1.328v24.29c0 .508-.18.939-.537 1.299-.357.357-.79.534-1.296.534h-6.478c-.508 0-1.029-.177-1.56-.534a4.268 4.268 0 01-1.27-1.3l-10.79-16.74v16.74c0 .509-.177.94-.537 1.3-.357.357-.79.534-1.296.534h-3.433c-.508 0-.944-.177-1.307-.534a1.755 1.755 0 01-.547-1.3m33.048-22.455v-1.833c0-.535.175-.976.526-1.328.352-.352.794-.527 1.328-.527h24.758c.535 0 .977.175 1.328.527.35.352.527.793.527 1.328v1.833c0 .534-.178.973-.527 1.317-.351.344-.793.516-1.328.516h-8.702v20.66a1.7 1.7 0 01-.537 1.28 1.784 1.784 0 01-1.296.517h-3.687c-.508 0-.942-.17-1.299-.516a1.714 1.714 0 01-.537-1.28V28.05h-8.7c-.534 0-.976-.172-1.328-.516-.351-.344-.526-.783-.526-1.317m32.444 22.495v-24.33c0-.508.182-.942.547-1.307a1.774 1.774 0 011.307-.545h3.63c.53 0 .975.18 1.335.545.357.365.537.8.537 1.307v24.29c0 .508-.185.942-.558 1.301a1.833 1.833 0 01-1.315.535h-3.629c-.508 0-.944-.172-1.307-.519a1.685 1.685 0 01-.547-1.277m12.156-5.365c0-.767.228-1.318.682-1.648.455-.334.9-.5 1.328-.5h2.323c1.169 0 2.06.64 2.669 1.915.613 1.275 1.983 1.91 4.118 1.91l6.83.137c2.288 0 3.433-.748 3.433-2.243 0-1.132-1.396-2.023-4.195-2.674a95.806 95.806 0 00-4.134-.886 48.069 48.069 0 01-4.5-1.103 27.691 27.691 0 01-4.105-1.56c-1.251-.599-2.261-1.421-3.036-2.469-.773-1.047-1.159-2.28-1.159-3.698 0-2.613.928-4.626 2.788-6.038 1.862-1.413 5.06-2.116 9.599-2.116l4.957.116c2.666 0 5.068.688 7.208 2.058 2.142 1.373 3.211 3.087 3.211 5.142 0 .767-.227 1.32-.682 1.658-.458.339-.892.506-1.307.506h-2.322c-1.17 0-2.061-.638-2.675-1.92-.61-1.28-1.984-1.921-4.115-1.921l-5.873-.12c-2.29 0-3.436.75-3.436 2.244 0 .82.725 1.49 2.177 2.01 1.45.521 3.206.979 5.267 1.376 2.063.396 4.134.875 6.216 1.433 2.079.561 3.846 1.482 5.295 2.762 1.452 1.28 2.175 2.878 2.175 4.79 0 2.614-.932 4.626-2.796 6.039-1.868 1.412-5.063 2.119-9.592 2.119l-5.911-.12c-2.667 0-5.074-.684-7.219-2.057-2.148-1.373-3.219-3.087-3.219-5.142" fill="#FFF"/></g></svg>