<svg width="98" height="24" fill="none" xmlns="http://www.w3.org/2000/svg"><path fill-rule="evenodd" clip-rule="evenodd" d="M88.954 23.984c-1.255-.127-3.252-.54-3.917-.81l-.326-.13-.044-1.518a320.39 320.39 0 0 1-.062-2.48l-.019-.963.195-.088c.107-.049.324-.094.48-.1l.286-.013.244.564c.949 2.203 2.062 3.391 3.516 3.753.555.137 1.595.139 2.005.002 1.15-.383 1.781-1.204 1.787-2.326.006-1.329-.768-1.967-3.694-3.045-1.813-.668-2.445-1.011-3.198-1.738-.813-.784-1.202-1.677-1.276-2.92-.088-1.501.41-2.767 1.515-3.846 1.112-1.086 2.555-1.675 4.52-1.844 1.732-.149 4.389.197 5.781.753l.254.102.045 1.353c.025.744.051 1.74.058 2.216l.012.864-.342.119c-.539.189-.574.165-.874-.584-.841-2.101-1.818-3.096-3.34-3.4-.928-.184-1.703.015-2.267.583-.44.443-.61.836-.652 1.497-.045.715.09 1.102.554 1.581.572.59 1.509 1.099 3.374 1.834 2.285.9 3.376 1.665 3.968 2.782.385.726.494 1.305.456 2.42-.03.838-.058 1.01-.26 1.572-.658 1.832-2.145 3.038-4.44 3.604-.779.192-.89.202-2.436.218-.891.009-1.748.003-1.903-.012Zm-30.366-.19c2.14-.303 3.71-.996 5.04-2.225 1.922-1.777 2.847-4.284 2.722-7.374-.064-1.591-.34-2.63-1.039-3.92-.947-1.747-2.568-2.972-4.407-3.333-1.38-.27-3.156-.059-4.506.538-.337.148-.659.27-.716.27-.09 0-.1-.492-.078-3.875L55.632 0l-.283.053c-.155.03-1.74.308-3.523.62-1.783.31-3.31.58-3.396.6-.129.028-.151.074-.137.282.015.232.035.253.295.307.893.185 1.052.251 1.384.575.407.396.59.902.711 1.958.096.842.118 15.34.026 17.48l-.054 1.268.726.147c2.748.554 5.488.746 7.208.504Zm19.409-.002c1.632-.25 3.24-.989 4.395-2.02.633-.566.843-.838.755-.981-.235-.381-.225-.381-.824-.034-.955.553-1.434.706-2.555.814-1.31.127-2.52-.08-3.636-.62-.741-.36-1.63-1.186-2.073-1.93-.605-1.014-.934-2.198-1.032-3.72-.041-.64-.032-.8.047-.847.055-.032 2.404-.059 5.26-.06h5.16V14.2c0-.436-.152-1.611-.288-2.227-.549-2.476-1.996-4.241-4.06-4.951-.821-.283-1.598-.402-2.622-.402-2.427 0-4.409.75-5.942 2.25-1.222 1.196-1.947 2.539-2.39 4.427-.133.569-.156.864-.156 2.06 0 1.185.023 1.491.153 2.04.821 3.484 3.252 5.779 6.745 6.367.885.149 2.19.16 3.063.027Zm-49.95-.087c1.25-.275 2.246-.695 3.137-1.323 2.167-1.526 3.354-3.865 3.464-6.826.108-2.918-.826-5.405-2.63-7.01-1.465-1.301-3.311-1.925-5.698-1.925-2.53 0-4.567.74-6.134 2.227-1.679 1.593-2.567 3.816-2.567 6.424 0 2.706.803 4.89 2.358 6.421.858.844 1.694 1.35 2.891 1.752.424.142.735.21 1.867.409.097.017.747.02 1.444.007.94-.018 1.417-.058 1.868-.156Zm-13.622-7.75-.163-.631c-.306-1.186-.897-2.035-1.627-2.34-.336-.14-1.17-.22-2.783-.266l-.758-.021v1.499c0 1.634.096 3.845.218 5.044.17 1.673.623 2.597 1.437 2.932.156.063.647.167 1.093.23.446.063.866.142.933.174.172.084.182.95.012 1.012-.133.048-12.566.045-12.693-.004-.059-.022-.088-.187-.088-.494 0-.55-.038-.526 1.092-.723.866-.152 1.176-.307 1.558-.78.742-.917.902-2.682.904-9.95.001-6.826-.138-8.262-.905-9.317-.34-.468-.914-.723-1.874-.83l-.74-.085L.02.861 0 .316.232.277c.127-.021 4.606-.03 9.952-.02l9.721.02.046.265c.025.146.066 1.645.091 3.331l.046 3.066-.501.144c-.755.216-.75.218-1.09-.628-.833-2.08-1.789-3.279-3.097-3.884-.902-.418-1.32-.468-3.867-.468H9.316l-.038.349c-.072.654-.185 4.861-.184 6.843v1.976l.652-.003a38.042 38.042 0 0 0 1.57-.056c.76-.042.986-.08 1.304-.219.781-.34 1.312-1.091 1.638-2.313l.168-.63 1.15-.04v7.984l-1.15-.039Zm20.4 7.617c-.065-.039-.086-.192-.071-.514l.021-.46.247-.049c.135-.027.427-.081.647-.12.682-.12 1.074-.47 1.295-1.153.18-.557.259-2.34.263-5.919.005-4.377-.092-5.411-.561-5.997-.255-.318-.438-.408-1.055-.52a78.913 78.913 0 0 1-.713-.131c-.141-.028-.158-.071-.158-.397 0-.316.021-.373.158-.427.211-.082 7.19-1.397 7.414-1.397h.174l-.034.98-.067 1.744-.033.764.253-.43c.81-1.377 1.717-2.231 2.924-2.753.663-.286 1.105-.372 1.924-.372.97 0 1.941.3 1.941.598 0 .201-1.71 4.463-1.805 4.497-.046.017-.38-.104-.742-.268-.755-.341-1.464-.509-2.152-.507-.857.002-1.814.299-2.191.681-.162.164-.163.173-.203 2.614-.04 2.418.046 5.366.19 6.552.123 1.01.407 1.508.995 1.74.197.077 1.437.237 1.843.237.03 0 .046.232.035.515l-.02.515-5.215.016c-2.837.009-5.204-.009-5.305-.04Zm-7.92-.91c.499-.139 1.115-.683 1.443-1.275.677-1.221.98-3.028.987-5.897.01-3.595-.588-5.883-1.85-7.081-.53-.503-.905-.66-1.582-.658-1.503.002-2.458 1.482-2.835 4.396-.173 1.34-.174 4.53-.001 5.702.534 3.624 1.912 5.353 3.838 4.814Zm30.527-.031c.511-.091.909-.284 1.336-.646 1.07-.907 1.874-2.78 2.19-5.1.13-.945.112-3.098-.03-3.887-.387-2.134-1.217-3.536-2.428-4.1-.503-.234-.58-.251-1.176-.251a4.15 4.15 0 0 0-1.104.13l-.467.13-.034 2.427c-.044 3.11.063 10.898.153 11.122.057.142.12.172.406.193.667.05.781.048 1.154-.018Zm19.644-9.54 1.226-.041-.045-.821c-.155-2.895-.907-4.477-2.125-4.476-1.325.001-2.383 1.607-2.823 4.282a7.713 7.713 0 0 0-.1.867l-.001.269 1.32-.02a178.28 178.28 0 0 0 2.548-.06Z" fill="#1D1D1F"/></svg>