<svg width="96" height="24" fill="none" xmlns="http://www.w3.org/2000/svg"><path d="M3.68 23.723H0V.24l3.68.24v23.243ZM7.87 1.872a2.13 2.13 0 0 1 2.112 2.111 2.11 2.11 0 0 1-2.111 2.112 2.13 2.13 0 0 1-2.112-2.112 2.12 2.12 0 0 1 2.112-2.111Zm1.84 21.851H6.031V6.975l3.68.208v16.54Zm8.783-13.373v3.695h-2.768v9.662h-3.679V5.343c0-2.8 2.32-5.343 5.055-5.343.928 0 1.664.272 1.84.384l-.144 3.551H17.1c-.736 0-1.36.624-1.36 1.408v5.007h2.752Zm1.488 1.488c0-2.8 2.255-5.103 5.07-5.103 2.784 0 5.04 2.287 5.04 5.103v3.583a1.83 1.83 0 0 1-1.84 1.84h-4.607v1.615c0 .768.624 1.408 1.392 1.408h3.535l.112 3.136-3.327.511c-3.2.544-5.407-2.24-5.407-5.039l.032-7.054Zm3.68 1.727h2.75v-1.727c0-.768-.623-1.408-1.36-1.408-.767 0-1.39.624-1.39 1.408v1.727Zm9.597 10.158V.383h2.368v7.088c.656-.208 1.696-.304 2.4-.304 2.527 0 4.479 2.287 4.479 4.895v11.645h-2.32V12.062c0-1.28-1.04-2.304-2.32-2.304H35.61v13.95l-2.352.015Zm17.95-12.045c0-1.344-.624-2.416-2.32-2.24h.032c-.944.032-2.16.144-3.184.208-.032-.864-.064-1.2-.096-1.856.8-.303 1.952-.591 2.944-.623 2.975-.064 4.927 2.351 4.927 4.943v7.086c0 2.56-2.048 4.671-4.607 4.671-2.56 0-4.655-2.111-4.655-4.67V17.74c0-2.56 1.743-4.496 4.655-4.496 1.104 0 1.664.112 2.287.304l.017-1.871Zm0 7.55v-4.03H48.92a2.267 2.267 0 0 0-2.288 2.287v1.727c0 1.28 1.008 2.32 2.288 2.32 1.28.016 2.288-1.024 2.288-2.304Zm8.974-12.045c2.56 0 4.655 2.08 4.655 4.67v.305c-.912.032-1.664.032-2.351.064v-.352c0-1.248-1.04-2.288-2.32-2.288-1.248 0-2.256 1.04-2.256 2.288v7.454c0 1.312 1.008 2.288 2.256 2.288 1.248 0 2.288-.96 2.32-2.208 1.151.096 2.255.144 2.351.144-.112 2.464-2.191 4.447-4.655 4.447-2.56 0-4.64-2.08-4.64-4.67V11.87c0-2.592 2.08-4.687 4.64-4.687ZM66.709.448h2.367v23.275H66.71V.448Zm7.487 23.275-4.512-7.902c-.447-.768-.447-.864.096-1.792l3.984-6.622h2.703l-4.479 7.63 4.847 8.67c-.032.016-2.64.016-2.64.016Zm3.103-11.821c0-2.592 2.08-4.703 4.655-4.703 2.56 0 4.624 2.111 4.624 4.703v3.663c0 .688-.528 1.2-1.184 1.2h-5.727v2.527c0 1.28 1.008 2.32 2.287 2.32h2.992c.032.768.064 1.312.128 1.84l-2.848.447c-2.911.512-4.927-2.031-4.927-4.623v-7.374Zm2.384 2.495h4.575v-2.511c0-1.28-1.04-2.32-2.288-2.32-1.28 0-2.287 1.04-2.287 2.32v2.511Zm11.374 9.326h-2.368v-11.63c0-2.59 2.016-5.006 4.991-4.942 1.008.032 1.632.272 2.32.592a125.8 125.8 0 0 1-.096 1.855l-2.575-.064c-1.248 0-2.256 1.344-2.256 2.56l-.016 11.63Z" fill="#1D1D1F"/></svg>