<svg width="121" height="32" fill="none" xmlns="http://www.w3.org/2000/svg"><g clip-path="url(#a)" fill="#1D1D1F"><path fill-rule="evenodd" clip-rule="evenodd" d="M20.097 3.355c2.229 2.193 3.53 5.2 3.62 8.372a.355.355 0 0 1-.095.252.338.338 0 0 1-.242.105h-1.496a.332.332 0 0 0-.3.187.357.357 0 0 0 .022.36 12.267 12.267 0 0 1 2.117 6.944c-.01 6.571-5.198 11.974-11.583 12.066-3.084.045-6.061-1.158-8.29-3.352C1.62 26.096.32 23.09.228 19.92a.357.357 0 0 1 .094-.255.338.338 0 0 1 .244-.106h1.496a.333.333 0 0 0 .298-.188.356.356 0 0 0-.022-.359 12.266 12.266 0 0 1-2.116-6.944C.233 5.497 5.421.094 11.805.001c3.085-.045 6.063 1.16 8.292 3.354Zm-6.279 4.701L6.6 15.482a.352.352 0 0 0-.073.379.346.346 0 0 0 .125.156.332.332 0 0 0 .188.059h2.707c.09 0 .176.036.239.102.063.065.1.153.1.246v6.873a.34.34 0 0 0 .209.321.33.33 0 0 0 .368-.075l7.219-7.425a.351.351 0 0 0 .073-.38.347.347 0 0 0-.125-.156.331.331 0 0 0-.188-.059h-2.707a.333.333 0 0 1-.239-.101.353.353 0 0 1-.099-.247V8.304a.356.356 0 0 0-.057-.194.33.33 0 0 0-.52-.053Z"/><path d="M39.932 13.476c.71.212 1.36.334 2.16.58 2.543.795 3.786 2.07 3.786 5.018 0 3.315-2.663 5.05-5.769 5.05-4.196 0-5.62-2.436-5.653-5.126 0-.092.036-.18.1-.246a.334.334 0 0 1 .239-.102h3.124c.085 0 .167.033.23.092.063.06.102.14.108.228.073 1.02.518 1.87 1.912 1.87 1.036 0 1.865-.517 1.865-1.46s-.474-1.37-1.568-1.673c-.858-.244-1.539-.396-2.396-.731-2.19-.822-3.283-2.342-3.283-4.807 0-2.738 2.248-4.746 5.414-4.746 3.22 0 5.178 1.61 5.342 4.778a.357.357 0 0 1-.093.256.339.339 0 0 1-.245.108H42.23a.333.333 0 0 1-.225-.086.351.351 0 0 1-.113-.218c-.113-1.062-.677-1.673-1.786-1.673-.946 0-1.568.548-1.568 1.369.004.788.448 1.245 1.394 1.519Zm11.715 4.381c0 1.583.622 2.586 2.042 2.586s2.188-1.065 2.188-2.616V7.983c0-.092.036-.181.1-.246a.334.334 0 0 1 .239-.102h3.287a.33.33 0 0 1 .239.102.355.355 0 0 1 .099.246v15.58a.35.35 0 0 1-.1.246.334.334 0 0 1-.238.102h-3.258a.333.333 0 0 1-.24-.102.353.353 0 0 1-.098-.246v-.869c-.414.548-1.45 1.4-3.313 1.4-3.52 0-4.91-2.436-4.91-5.75V7.982a.35.35 0 0 1 .099-.246.334.334 0 0 1 .24-.102h3.286c.09 0 .176.036.24.102a.354.354 0 0 1 .098.246v9.874Zm14.594 9.226-3.287 2.807a.334.334 0 0 1-.502-.08.355.355 0 0 1-.053-.188V7.982c0-.092.036-.18.1-.246a.334.334 0 0 1 .239-.102h3.08c.09 0 .176.037.24.102a.355.355 0 0 1 .099.246v1.203c.798-.821 2.336-1.825 4.85-1.825 4.791 0 7.927 3.468 7.927 8.367 0 4.716-3.076 8.457-8.104 8.457-2.1 0-3.668-.881-4.467-1.58v4.21a.356.356 0 0 1-.122.269Zm4.381-6.518c2.693 0 4.349-2.009 4.349-4.777 0-2.768-1.745-4.808-4.378-4.808-2.691 0-4.348 2.039-4.348 4.808 0 2.77 1.745 4.777 4.377 4.777Zm13.812 3.347h-3.287a.334.334 0 0 1-.239-.102.353.353 0 0 1-.099-.246V5.27a.461.461 0 0 1 .16-.348l3.249-2.777a.334.334 0 0 1 .502.08.356.356 0 0 1 .053.188v21.15a.356.356 0 0 1-.099.247.337.337 0 0 1-.24.102Zm2.512-19.714c0-.646.25-1.266.694-1.723a2.336 2.336 0 0 1 1.675-.713c.628 0 1.23.256 1.675.713.444.457.694 1.077.694 1.723 0 .646-.25 1.266-.694 1.723a2.336 2.336 0 0 1-1.675.714c-.628 0-1.23-.257-1.675-.714a2.472 2.472 0 0 1-.694-1.723Zm4.01 19.714H87.67a.334.334 0 0 1-.239-.102.353.353 0 0 1-.1-.246V7.984c0-.092.037-.181.1-.246a.334.334 0 0 1 .24-.102h3.286c.09 0 .176.036.24.102a.355.355 0 0 1 .099.246v15.58a.35.35 0 0 1-.1.246.333.333 0 0 1-.239.102Zm7.44-16.276h1.998c.09 0 .176.036.239.102a.35.35 0 0 1 .099.246v2.741a.35.35 0 0 1-.099.246.332.332 0 0 1-.239.102h-1.998v12.491c0 .092-.035.18-.099.246a.334.334 0 0 1-.239.102h-3.287a.334.334 0 0 1-.24-.102.353.353 0 0 1-.098-.246v-12.49h-1.14a.334.334 0 0 1-.24-.103.353.353 0 0 1-.1-.246V7.984c0-.093.037-.181.1-.246a.334.334 0 0 1 .24-.102h1.14v-.73c0-3.195 1.24-5.264 5.028-5.264.156 0 .581 0 .947.013a.33.33 0 0 1 .23.107.351.351 0 0 1 .094.24v2.73a.35.35 0 0 1-.099.246.332.332 0 0 1-.239.102h-.4c-1.331 0-1.598.883-1.598 1.856v.7Zm7.666 10.221c0 1.583.621 2.586 2.042 2.586 1.42 0 2.188-1.065 2.188-2.616V7.983c0-.092.036-.181.099-.246a.334.334 0 0 1 .239-.102h3.292a.33.33 0 0 1 .239.102.355.355 0 0 1 .099.246v15.58a.353.353 0 0 1-.099.246.333.333 0 0 1-.239.102h-3.261a.336.336 0 0 1-.24-.102.355.355 0 0 1-.099-.246v-.869c-.415.548-1.449 1.4-3.313 1.4-3.52 0-4.91-2.436-4.91-5.75V7.982c0-.092.036-.181.1-.246a.332.332 0 0 1 .239-.102h3.286c.089 0 .175.036.239.102a.355.355 0 0 1 .099.246v9.874Zm14.377 6.056h-3.287a.332.332 0 0 1-.239-.102.35.35 0 0 1-.099-.246V5.223a.36.36 0 0 1 .032-.148.338.338 0 0 1 .091-.12l3.287-2.807a.33.33 0 0 1 .359-.047.347.347 0 0 1 .195.315v21.15a.359.359 0 0 1-.1.245.333.333 0 0 1-.239.102Z"/></g><defs><clipPath id="a"><path fill="#fff" transform="translate(.222)" d="M0 0h120.556v31.641H0z"/></clipPath></defs></svg>