<svg width="186" height="25" fill="none" xmlns="http://www.w3.org/2000/svg"><path d="M34.623 8.022h17.328V0H34.623v8.022ZM0 0v8.022h8.648v16.043h8.649V8.022h8.679V0H0Z" fill="#1D1D1F"/><path d="M25.975 24.066h25.976v-8.022H34.624V8.022h-8.649v16.044ZM74.036 6.059H61.31v3.337h4.263v10.462h4.2V9.396h4.263V6.06Zm4.787 3.225c-2.996 0-5.22 1.823-5.22 5.413 0 3.17 1.884 5.386 5.313 5.386 1.791 0 3.243-.421 4.633-1.178l-1.483-2.272c-1.142.533-1.946.73-2.965.73-1.05 0-1.791-.506-1.946-1.656h6.703c.03-.168.03-.392.03-.701.031-3.843-1.914-5.722-5.065-5.722Zm-1.606 4.207c.124-1.037.618-1.57 1.514-1.57 1.142 0 1.544.533 1.73 1.57h-3.244Zm14.115 3.703c-1.05 0-1.606-.842-1.606-2.496 0-1.627.495-2.553 1.514-2.553.834 0 1.204.42 1.76 1.346l2.688-1.85c-.989-1.46-2.224-2.357-4.386-2.357-3.645 0-5.437 2.188-5.437 5.357 0 3.478 2.008 5.414 5.344 5.414 2.008 0 3.243-.701 4.571-2.468l-2.47-1.768c-.742 1.01-1.236 1.375-1.978 1.375Zm13.467-7.91c-1.359 0-2.162.42-2.873.898V5.498l-3.922 1.43v12.958h3.922v-5.918c0-1.29.494-1.655 1.328-1.655.803 0 1.298.365 1.298 1.683v5.89h3.922v-6.339c0-2.72-1.204-4.263-3.675-4.263Zm13.096 7.461c-1.822 0-2.564-1.683-2.564-3.787 0-2.188.772-3.786 2.533-3.786 1.39 0 1.915.813 2.44 2.103l3.83-1.374c-1.05-2.609-2.533-4.067-6.27-4.067-4.077 0-6.95 2.693-6.95 7.124 0 4.095 2.41 7.124 6.919 7.124 3.614 0 5.313-1.767 6.332-3.562l-3.552-1.71c-.834 1.29-1.39 1.935-2.718 1.935Zm12.571-6.479v-.757h-3.923v10.35h3.923V14.22c0-1.262.587-1.683 1.544-1.683.772 0 1.328.364 1.822.87l.927-3.675c-.463-.252-1.019-.449-1.853-.449-1.019 0-1.792.393-2.44.982Zm12.663 5.161c0 1.29-.494 1.654-1.297 1.654-.803 0-1.297-.364-1.297-1.683v-5.89h-3.923v6.34c0 2.72 1.205 4.234 3.706 4.234 1.329 0 2.162-.42 2.842-.897v.701h3.923V9.536h-3.923v5.89m13.529-6.142c-1.359 0-2.163.42-2.873.898V9.48h-3.923v10.35h3.923v-5.919c0-1.29.494-1.655 1.328-1.655.803 0 1.297.365 1.297 1.683v5.89h3.923V13.49c0-2.664-1.174-4.207-3.675-4.207Zm11.458 7.91c-1.05 0-1.606-.842-1.606-2.496 0-1.627.494-2.553 1.483-2.553.834 0 1.204.42 1.76 1.346l2.688-1.85c-.989-1.46-2.224-2.357-4.386-2.357-3.645 0-5.436 2.188-5.436 5.357 0 3.478 2.007 5.414 5.343 5.414 2.008 0 3.243-.701 4.571-2.468l-2.471-1.768c-.679 1.01-1.204 1.375-1.946 1.375Zm13.468-7.91c-1.359 0-2.162.42-2.873.898V5.498l-3.922 1.43v12.958h3.922v-5.918c0-1.29.495-1.655 1.329-1.655.803 0 1.297.365 1.297 1.683v5.89h3.922v-6.339c.031-2.72-1.173-4.263-3.675-4.263Z" fill="#1D1D1F"/></svg>