<svg width="108" height="24" fill="none" xmlns="http://www.w3.org/2000/svg"><path d="M52.756 7.5c1.843 1.687 2.879 3.976 2.88 6.364V24h-9.818v-8.893a2.885 2.885 0 0 0-.963-2.122L41.464 9.88A3.435 3.435 0 0 0 39.148 9H36v15h-9.818V0h14.321a10.6 10.6 0 0 1 3.757.685 9.921 9.921 0 0 1 3.186 1.951l5.31 4.864ZM98.182 0v8.893a2.885 2.885 0 0 1-.963 2.122l-3.394 3.106c-.304.279-.665.5-1.062.65a3.525 3.525 0 0 1-1.252.229h-4.716a8.454 8.454 0 0 0 1.569-4.864V0h-9.819v8.893c-.001.797-.348 1.56-.963 2.122L74.19 14.12c-.304.279-.665.5-1.062.65a3.529 3.529 0 0 1-1.252.229h-3.148V0H58.91v24h14.32c2.605 0 5.103-.948 6.945-2.636l3.28-3.005V24h9.412c2.604 0 5.102-.948 6.944-2.636l5.309-4.864c1.842-1.688 2.878-3.977 2.88-6.364V0h-9.818ZM0 9h6.545v15h9.819V9h6.545V0H0v9Z" fill="#1D1D1F"/></svg>