<svg width="186.000000" height="48.000000" viewBox="0 0 186 48" fill="none" xmlns="http://www.w3.org/2000/svg" xmlns:xlink="http://www.w3.org/1999/xlink">
	<desc>
			Created with Pixso.
	</desc>
	<defs>
		<clipPath id="clip323_1794">
			<rect id="_Слой_1" rx="0.000000" width="185.000000" height="47.000000" transform="translate(0.500000 0.500000)" fill="white" fill-opacity="0"/>
		</clipPath>
	</defs>
	<rect id="_Слой_1" rx="0.000000" width="185.000000" height="47.000000" transform="translate(0.500000 0.500000)" fill="#FFFFFF" fill-opacity="0"/>
	<g clip-path="url(#clip323_1794)">
		<path id="Vector" d="M63.04 32C61.35 32 60.47 30.92 60.47 29.48L60.47 9.56L62.92 9.56L62.92 29.88L65.24 29.88L65.24 32L63.04 32Z" fill="#FFFFFF" fill-opacity="1.000000" fill-rule="nonzero"/>
		<path id="Vector" d="M69.81 22.76L69.81 22.96L78.47 22.96L78.47 22.64C78.47 19.87 76.78 18.03 74.3 18.03C71.65 18.03 69.81 20.03 69.81 22.76ZM67.25 24.15C67.25 19.2 70.05 15.96 74.3 15.96C78.55 15.96 81.07 19.15 81.07 23.6L81.07 24.76L69.81 24.76L69.81 25.48C69.81 28.15 71.53 30.2 74.46 30.2C76.42 30.2 77.95 29.24 78.79 27.52L80.51 28.76C79.51 30.88 77.26 32.31 74.3 32.31C70.05 32.36 67.25 29.15 67.25 24.15Z" fill="#FFFFFF" fill-opacity="1.000000" fill-rule="nonzero"/>
		<path id="Vector" d="M93.3 27.43L93.3 24.88L90.09 24.88C87.32 24.88 86.08 25.72 86.08 27.24L86.08 27.88C86.08 29.43 87.28 30.31 89.17 30.31C91.57 30.27 93.3 29.03 93.3 27.43ZM96.18 32C94.38 32 93.66 30.91 93.5 29.43L93.34 29.43C92.65 31.36 91.01 32.36 88.81 32.36C85.48 32.36 83.56 30.55 83.56 27.64C83.56 24.72 85.68 23.08 90.25 23.08L93.34 23.08L93.34 21.52C93.34 19.31 92.13 18.08 89.65 18.08C87.77 18.08 86.52 19 85.68 20.39L84.24 19.03C85.08 17.36 86.96 15.96 89.81 15.96C93.58 15.96 95.82 17.91 95.82 21.24L95.82 29.84L97.62 29.84L97.62 31.96L96.18 31.96L96.18 32Z" fill="#FFFFFF" fill-opacity="1.000000" fill-rule="nonzero"/>
		<path id="Vector" d="M99.19 29.27L100.91 27.88C102.11 29.39 103.6 30.27 105.56 30.27C107.64 30.27 108.85 29.36 108.85 27.72C108.85 26.52 108.16 25.55 106.12 25.27L104.88 25.08C101.99 24.64 99.83 23.48 99.83 20.55C99.83 17.48 102.23 15.96 105.4 15.96C107.92 15.96 109.61 16.87 110.85 18.48L109.25 19.91C108.57 18.95 107.2 18 105.2 18C103.2 18 102.11 18.91 102.11 20.43C102.11 21.96 103.2 22.55 105.12 22.88L106.32 23.08C109.77 23.6 111.13 25.12 111.13 27.48C111.13 30.52 108.93 32.36 105.32 32.36C102.51 32.36 100.59 31.15 99.19 29.27Z" fill="#FFFFFF" fill-opacity="1.000000" fill-rule="nonzero"/>
		<path id="Vector" d="M116.58 22.76L116.58 22.96L125.24 22.96L125.24 22.64C125.24 19.87 123.55 18.03 121.07 18.03C118.42 18.03 116.58 20.03 116.58 22.76ZM114.02 24.15C114.02 19.2 116.82 15.96 121.07 15.96C125.32 15.96 127.84 19.15 127.84 23.6L127.84 24.76L116.58 24.76L116.58 25.48C116.58 28.15 118.3 30.2 121.23 30.2C123.19 30.2 124.72 29.24 125.56 27.52L127.28 28.76C126.28 30.88 124.04 32.31 121.07 32.31C116.82 32.36 114.02 29.15 114.02 24.15Z" fill="#FFFFFF" fill-opacity="1.000000" fill-rule="nonzero"/>
		<path id="Vector" d="M131.53 32L131.53 16.36L133.97 16.36L133.97 18.92L134.1 18.92C134.86 17.16 136.18 16 138.54 16C141.75 16 143.79 18.2 143.79 21.96L143.79 32L141.35 32L141.35 22.4C141.35 19.6 140.15 18.2 137.78 18.2C135.86 18.2 133.97 19.16 133.97 21.16L133.97 32L131.53 32Z" fill="#FFFFFF" fill-opacity="1.000000" fill-rule="nonzero"/>
		<path id="Vector" d="M149.89 22.76L149.89 22.96L158.54 22.96L158.54 22.64C158.54 19.87 156.86 18.03 154.37 18.03C151.73 18.03 149.89 20.03 149.89 22.76ZM147.32 24.15C147.32 19.2 150.13 15.96 154.37 15.96C158.62 15.96 161.15 19.15 161.15 23.6L161.15 24.76L149.89 24.76L149.89 25.48C149.89 28.15 151.61 30.2 154.53 30.2C156.5 30.2 158.02 29.24 158.86 27.52L160.59 28.76C159.58 30.88 157.34 32.31 154.37 32.31C150.13 32.36 147.32 29.15 147.32 24.15Z" fill="#FFFFFF" fill-opacity="1.000000" fill-rule="nonzero"/>
		<path id="Vector" d="M163.35 29.27L165.08 27.88C166.28 29.39 167.76 30.27 169.72 30.27C171.81 30.27 173.01 29.36 173.01 27.72C173.01 26.52 172.33 25.55 170.29 25.27L169.04 25.08C166.16 24.64 163.99 23.48 163.99 20.55C163.99 17.48 166.4 15.96 169.56 15.96C172.09 15.96 173.77 16.87 175.01 18.48L173.41 19.91C172.73 18.95 171.37 18 169.36 18C167.36 18 166.28 18.91 166.28 20.43C166.28 21.96 167.36 22.55 169.28 22.88L170.49 23.08C173.93 23.6 175.29 25.12 175.29 27.48C175.29 30.52 173.09 32.36 169.48 32.36C166.68 32.36 164.75 31.15 163.35 29.27Z" fill="#FFFFFF" fill-opacity="1.000000" fill-rule="nonzero"/>
		<path id="Vector" d="M182.59 32C180.91 32 180.02 30.92 180.02 29.44L180.02 18.48L177.46 18.48L177.46 16.36L178.9 16.36C179.94 16.36 180.26 16 180.26 14.92L180.26 12.04L182.47 12.04L182.47 16.36L186 16.36L186 18.48L182.47 18.48L182.47 29.88L185.76 29.88L185.76 32L182.59 32Z" fill="#FFFFFF" fill-opacity="1.000000" fill-rule="nonzero"/>
		<path id="Vector" d="M14.7 0L14.7 16.92L29.37 8.47L14.7 0Z" fill="#CFC4FF" fill-opacity="1.000000" fill-rule="nonzero"/>
		<path id="Vector" d="M14.7 16.91L14.7 48L0 39.52L0 8.47L14.7 16.91Z" fill="#6C42DC" fill-opacity="1.000000" fill-rule="nonzero"/>
		<path id="Vector" d="M29.37 8.47L29.37 25.4L44.08 16.91L29.37 8.47Z" fill="#CFC4FF" fill-opacity="1.000000" fill-rule="nonzero"/>
		<path id="Vector" d="M44.08 16.91L44.08 31.04L14.7 48L14.7 16.91L29.37 8.47L29.37 25.4L44.08 16.91Z" fill="#AE99FF" fill-opacity="1.000000" fill-rule="nonzero"/>
		<path id="Vector" d="M14.7 0L14.7 16.92L0 8.47L14.7 0Z" fill="#8766FF" fill-opacity="1.000000" fill-rule="nonzero"/>
	</g>
</svg>
