<svg width="186.000000" height="48.000000" viewBox="0 0 186 48" fill="none" xmlns="http://www.w3.org/2000/svg" xmlns:xlink="http://www.w3.org/1999/xlink">
	<desc>
			Created with Pixso.
	</desc>
	<defs>
		<clipPath id="clip323_1106">
			<rect id="logo" rx="0.000000" width="185.000000" height="47.000000" transform="translate(0.500000 0.500000)" fill="white" fill-opacity="0"/>
		</clipPath>
	</defs>
	<rect id="logo" rx="0.000000" width="185.000000" height="47.000000" transform="translate(0.500000 0.500000)" fill="#FFFFFF" fill-opacity="0"/>
	<g clip-path="url(#clip323_1106)">
		<path id="Vector" d="M62.85 32C61.17 32 60.29 30.91 60.29 29.48L60.29 9.56L62.73 9.56L62.73 29.87L65.05 29.87L65.05 32L62.85 32Z" fill="#282828" fill-opacity="1.000000" fill-rule="nonzero"/>
		<path id="Vector" d="M69.61 22.75L69.61 22.96L78.24 22.96L78.24 22.64C78.24 19.87 76.56 18.04 74.08 18.04C71.44 18.04 69.61 20.04 69.61 22.75ZM67.05 24.16C67.05 19.2 69.85 15.96 74.08 15.96C78.32 15.96 80.83 19.16 80.83 23.6L80.83 24.75L69.61 24.75L69.61 25.48C69.61 28.16 71.32 30.2 74.24 30.2C76.2 30.2 77.72 29.23 78.56 27.52L80.27 28.75C79.28 30.87 77.04 32.31 74.08 32.31C69.85 32.35 67.05 29.16 67.05 24.16Z" fill="#282828" fill-opacity="1.000000" fill-rule="nonzero"/>
		<path id="Vector" d="M93.02 27.43L93.02 24.87L89.83 24.87C87.07 24.87 85.83 25.71 85.83 27.23L85.83 27.87C85.83 29.43 87.03 30.31 88.91 30.31C91.3 30.27 93.02 29.04 93.02 27.43ZM95.9 32C94.1 32 93.38 30.91 93.22 29.43L93.06 29.43C92.38 31.35 90.74 32.35 88.55 32.35C85.23 32.35 83.31 30.56 83.31 27.64C83.31 24.71 85.43 23.08 89.99 23.08L93.06 23.08L93.06 21.52C93.06 19.31 91.86 18.08 89.39 18.08C87.51 18.08 86.27 19 85.43 20.39L83.99 19.04C84.83 17.35 86.71 15.96 89.55 15.96C93.3 15.96 95.54 17.91 95.54 21.23L95.54 29.83L97.34 29.83L97.34 31.96L95.9 31.96L95.9 32Z" fill="#282828" fill-opacity="1.000000" fill-rule="nonzero"/>
		<path id="Vector" d="M98.9 29.27L100.61 27.87C101.81 29.39 103.29 30.27 105.25 30.27C107.33 30.27 108.53 29.35 108.53 27.71C108.53 26.52 107.85 25.56 105.81 25.27L104.57 25.08C101.69 24.64 99.54 23.48 99.54 20.56C99.54 17.48 101.93 15.96 105.09 15.96C107.61 15.96 109.29 16.87 110.53 18.48L108.93 19.91C108.25 18.95 106.89 18 104.89 18C102.89 18 101.81 18.91 101.81 20.43C101.81 21.96 102.89 22.56 104.81 22.87L106.01 23.08C109.45 23.6 110.8 25.12 110.8 27.48C110.8 30.52 108.61 32.35 105.01 32.35C102.21 32.35 100.3 31.16 98.9 29.27Z" fill="#282828" fill-opacity="1.000000" fill-rule="nonzero"/>
		<path id="Vector" d="M116.24 22.75L116.24 22.96L124.87 22.96L124.87 22.64C124.87 19.87 123.19 18.04 120.71 18.04C118.08 18.04 116.24 20.04 116.24 22.75ZM113.68 24.16C113.68 19.2 116.48 15.96 120.71 15.96C124.95 15.96 127.47 19.16 127.47 23.6L127.47 24.75L116.24 24.75L116.24 25.48C116.24 28.16 117.96 30.2 120.87 30.2C122.83 30.2 124.35 29.23 125.19 27.52L126.91 28.75C125.91 30.87 123.67 32.31 120.71 32.31C116.48 32.35 113.68 29.16 113.68 24.16Z" fill="#282828" fill-opacity="1.000000" fill-rule="nonzero"/>
		<path id="Vector" d="M131.14 32L131.14 16.35L133.58 16.35L133.58 18.91L133.7 18.91C134.46 17.16 135.78 16 138.14 16C141.33 16 143.37 18.2 143.37 21.96L143.37 32L140.93 32L140.93 22.39C140.93 19.6 139.74 18.2 137.38 18.2C135.46 18.2 133.58 19.16 133.58 21.16L133.58 32L131.14 32Z" fill="#282828" fill-opacity="1.000000" fill-rule="nonzero"/>
		<path id="Vector" d="M149.45 22.75L149.45 22.96L158.08 22.96L158.08 22.64C158.08 19.87 156.4 18.04 153.92 18.04C151.28 18.04 149.45 20.04 149.45 22.75ZM146.89 24.16C146.89 19.2 149.69 15.96 153.92 15.96C158.16 15.96 160.67 19.16 160.67 23.6L160.67 24.75L149.45 24.75L149.45 25.48C149.45 28.16 151.16 30.2 154.08 30.2C156.04 30.2 157.56 29.23 158.4 27.52L160.12 28.75C159.12 30.87 156.88 32.31 153.92 32.31C149.69 32.35 146.89 29.16 146.89 24.16Z" fill="#282828" fill-opacity="1.000000" fill-rule="nonzero"/>
		<path id="Vector" d="M162.87 29.27L164.59 27.87C165.79 29.39 167.27 30.27 169.23 30.27C171.3 30.27 172.5 29.35 172.5 27.71C172.5 26.52 171.82 25.56 169.79 25.27L168.55 25.08C165.67 24.64 163.51 23.48 163.51 20.56C163.51 17.48 165.91 15.96 169.07 15.96C171.58 15.96 173.26 16.87 174.5 18.48L172.9 19.91C172.22 18.95 170.86 18 168.87 18C166.87 18 165.79 18.91 165.79 20.43C165.79 21.96 166.87 22.56 168.79 22.87L169.99 23.08C173.42 23.6 174.78 25.12 174.78 27.48C174.78 30.52 172.58 32.35 168.99 32.35C166.19 32.35 164.27 31.16 162.87 29.27Z" fill="#282828" fill-opacity="1.000000" fill-rule="nonzero"/>
		<path id="Vector" d="M182.05 32C180.38 32 179.5 30.91 179.5 29.43L179.5 18.48L176.94 18.48L176.94 16.35L178.38 16.35C179.42 16.35 179.74 16 179.74 14.91L179.74 12.04L181.93 12.04L181.93 16.35L185.45 16.35L185.45 18.48L181.93 18.48L181.93 29.87L185.21 29.87L185.21 32L182.05 32Z" fill="#282828" fill-opacity="1.000000" fill-rule="nonzero"/>
		<path id="Vector" d="M14.66 0L14.66 16.91L29.29 8.47L14.66 0Z" fill="#CFC4FF" fill-opacity="1.000000" fill-rule="nonzero"/>
		<path id="Vector" d="M14.66 16.91L14.66 48L0 39.52L0 8.47L14.66 16.91Z" fill="#6C42DC" fill-opacity="1.000000" fill-rule="nonzero"/>
		<path id="Vector" d="M29.29 8.47L29.29 25.39L43.95 16.91L29.29 8.47Z" fill="#CFC4FF" fill-opacity="1.000000" fill-rule="nonzero"/>
		<path id="Vector" d="M43.95 16.91L43.95 31.04L14.66 48L14.66 16.91L29.29 8.47L29.29 25.39L43.95 16.91Z" fill="#AE99FF" fill-opacity="1.000000" fill-rule="nonzero"/>
		<path id="Vector" d="M14.66 0L14.66 16.91L0 8.47L14.66 0Z" fill="#8766FF" fill-opacity="1.000000" fill-rule="nonzero"/>
	</g>
</svg>
