<svg width="90" height="91" xmlns="http://www.w3.org/2000/svg" xmlns:xlink="http://www.w3.org/1999/xlink"><defs><path id="path-1" d="M0 90.01h90V.045H0z"/></defs><g id="Page-1" stroke="none" stroke-width="1" fill="none" fill-rule="evenodd"><g id="Dark" transform="translate(-1118 -3213)"><g id="Group-4" transform="translate(285 3213)"><g id="AE" transform="translate(833)"><path id="Fill-1" fill="#FFF" d="M0 0v37.94l2.784 3.063L0 44.205V90.01h90V61.748l-4.455-6.196L90 48.591V0z"/><g id="Group-26"><path d="M17.428 62.735V48.611H32.35l1.602 2.091 1.654-2.091h54.17v13.15s-1.417.96-3.056.974H56.727L54.92 60.51v2.226h-5.915v-3.8s-.808.53-2.555.53h-2.014v3.27H35.48L33.881 60.6l-1.623 2.136h-14.83z" id="Fill-2" fill="#141919"/><path d="M0 37.965l3.365-7.863h5.82l1.91 4.405v-4.405h7.235l1.137 3.184 1.102-3.184h32.478v1.6s1.707-1.6 4.513-1.6l10.537.037 1.877 4.347v-4.384h6.055l1.666 2.497v-2.497h6.11v14.125h-6.11l-1.597-2.505v2.505h-8.895L66.308 42h-2.391l-.88 2.227h-6.033c-2.414 0-3.957-1.568-3.957-1.568v1.568H43.95L42.146 42v2.227H8.323L7.43 42H5.046l-.888 2.227H0v-6.262z" id="Fill-4" fill="#141919"/><path d="M6.236 34.305l1.484 3.7H4.747l1.489-3.7zm-1.68-2.461L.018 42.42h2.956l.837-2.118h4.87l.832 2.118h3.02L7.999 31.844H4.557z" id="Fill-6" fill="#FFF"/><path id="Fill-8" fill="#FFF" d="M12.845 42.418V31.842l4.2.015 2.442 6.82 2.384-6.835h4.166v10.576H23.4v-7.793l-2.797 7.793h-2.314l-2.805-7.793v7.793z"/><path id="Fill-10" fill="#FFF" d="M27.843 42.418V31.842h8.61v2.365h-5.944v1.81h5.804v2.226H30.51v1.879h5.943v2.296z"/><path d="M40.618 34.21h3.016c.724 0 1.25.566 1.25 1.113 0 .702-.682 1.113-1.21 1.113h-3.056v-2.227zm-2.638-2.366V42.42h2.638v-3.758h1.111l3.164 3.758h3.224l-3.472-3.897a3.218 3.218 0 002.895-3.248c0-2.226-1.743-3.431-3.689-3.431H37.98z" id="Fill-12" fill="#FFF"/><mask id="mask-2" fill="#fff"><use xlink:href="#path-1"/></mask><path id="Fill-14" fill="#FFF" mask="url(#mask-2)" d="M48.617 42.418h2.694V31.842h-2.694z"/><path d="M57.699 42.418h-.582c-2.813 0-4.522-2.221-4.522-5.245 0-3.098 1.69-5.331 5.242-5.331h2.917v2.505H57.73c-1.443 0-2.463 1.128-2.463 2.852 0 2.049 1.167 2.909 2.847 2.909h.695l-1.111 2.31z" id="Fill-16" fill="#FFF" mask="url(#mask-2)"/><path d="M65.12 34.305l1.483 3.7h-2.972l1.488-3.7zm-1.68-2.461L58.9 42.42h2.956l.837-2.118h4.87l.833 2.118h3.02L66.88 31.844h-3.44z" id="Fill-17" fill="#FFF" mask="url(#mask-2)"/><path id="Fill-18" fill="#FFF" mask="url(#mask-2)" d="M71.724 42.418V31.842h3.354l4.284 6.645v-6.645H82v10.576h-3.246l-4.392-6.819v6.819z"/><path id="Fill-19" fill="#FFF" mask="url(#mask-2)" d="M19.233 60.926V50.35h8.61v2.366h-5.944v1.809h5.805v2.227h-5.805v1.878h5.944v2.296z"/><path id="Fill-20" fill="#FFF" mask="url(#mask-2)" d="M61.42 60.926V50.35h8.61v2.366h-5.944v1.809h5.777v2.227h-5.777v1.878h5.944v2.296z"/><path id="Fill-21" fill="#FFF" mask="url(#mask-2)" d="M28.177 60.926l4.192-5.223-4.292-5.353H31.4l2.556 3.31 2.565-3.31h3.193l-4.235 5.288 4.2 5.288h-3.324l-2.482-3.257-2.421 3.257z"/><path d="M42.701 52.744h2.925c.76 0 1.302.466 1.302 1.217 0 .706-.54 1.218-1.31 1.218H42.7v-2.435zm-2.708-2.392v10.576h2.708v-3.34h2.777c2.35 0 4.132-1.25 4.132-3.679 0-2.013-1.397-3.557-3.789-3.557h-5.828z" id="Fill-22" fill="#FFF" mask="url(#mask-2)"/><path d="M53.394 52.716h3.016c.723 0 1.25.567 1.25 1.113 0 .703-.682 1.113-1.211 1.113h-3.055v-2.226zm-2.639-2.366v10.576h2.639V57.17h1.11l3.164 3.757h3.224l-3.471-3.896a3.218 3.218 0 002.894-3.249c0-2.225-1.743-3.43-3.688-3.43h-5.872z" id="Fill-23" fill="#FFF" mask="url(#mask-2)"/><path d="M71.252 60.926V58.63h5.28c.782 0 1.12-.423 1.12-.887 0-.445-.337-.894-1.12-.894h-2.386c-2.074 0-3.23-1.266-3.23-3.168 0-1.696 1.059-3.33 4.14-3.33h5.139l-1.111 2.379H74.64c-.85 0-1.11.446-1.11.873 0 .438.322.922.971.922h2.5c2.312 0 3.315 1.314 3.315 3.035 0 1.85-1.118 3.366-3.441 3.366h-5.623z" id="Fill-24" fill="#FFF" mask="url(#mask-2)"/><path d="M80.936 60.926V58.63h5.28c.781 0 1.12-.423 1.12-.887 0-.445-.338-.894-1.12-.894H83.83c-2.074 0-3.23-1.266-3.23-3.168 0-1.696 1.058-3.33 4.14-3.33h5.139l-1.111 2.379h-4.444c-.85 0-1.111.446-1.111.873 0 .438.323.922.972.922h2.5c2.312 0 3.315 1.314 3.315 3.035 0 1.85-1.118 3.366-3.441 3.366h-5.623z" id="Fill-25" fill="#FFF" mask="url(#mask-2)"/></g></g></g></g></g></svg>