<svg width="170" height="170" viewBox="0 0 170 170" fill="none" xmlns="http://www.w3.org/2000/svg">
<path d="M99.1587 15.6587C99.1587 17.837 98.4326 20.0152 97.7065 22.1935C95.5282 26.913 90.8087 29.8174 85.363 29.8174C81.3695 29.8174 78.1021 28.3652 75.5608 25.8239C73.0195 23.2826 71.5674 19.6522 71.5674 16.0217C71.2043 7.67174 77.3761 1.5 85 1.5C92.6239 1.5 99.1587 7.67174 99.1587 15.6587Z" stroke="#6D6C9F" stroke-width="3" stroke-miterlimit="10" stroke-linecap="round" stroke-linejoin="round"/>
<path d="M88.6304 15.6588C88.6304 16.3848 88.6304 16.7479 88.2674 17.474C87.5413 18.5631 86.4522 19.2892 85 19.2892C83.9109 19.2892 83.1848 18.9261 82.4587 18.2001C81.7326 17.474 81.3696 16.3848 81.3696 15.6588C81.3696 13.4805 82.8217 12.0283 85 12.0283C86.8152 12.0283 88.6304 13.4805 88.6304 15.6588Z" stroke="#6D6C9F" stroke-width="3" stroke-miterlimit="10" stroke-linecap="round" stroke-linejoin="round"/>
<path d="M88.6304 61.7652C88.6304 62.4913 88.6304 62.8543 88.2674 63.5804C87.5413 64.6695 86.4522 65.3956 85 65.3956C83.9109 65.3956 83.1848 65.0326 82.4587 64.3065C81.7326 63.5804 81.3696 62.8543 81.3696 61.7652C81.3696 59.5869 82.8217 58.1348 85 58.1348C86.8152 58.1348 88.6304 59.95 88.6304 61.7652Z" stroke="#6D6C9F" stroke-width="3" stroke-miterlimit="10" stroke-linecap="round" stroke-linejoin="round"/>
<path d="M18.9261 85.0001C18.9261 85.7262 18.9261 86.0892 18.563 86.8153C18.2 87.9044 16.7478 88.6305 15.6587 88.6305C14.5696 88.6305 13.8435 88.2675 13.1174 87.5414C12.3913 86.8153 12.0283 86.0892 12.0283 85.0001C12.0283 82.8218 13.4804 81.3696 15.6587 81.3696C17.4739 81.3696 18.9261 83.1848 18.9261 85.0001Z" stroke="#6D6C9F" stroke-width="3" stroke-miterlimit="10" stroke-linecap="round" stroke-linejoin="round"/>
<path d="M157.972 50.8738C157.972 51.5999 157.972 51.963 157.609 52.6891C156.883 53.7782 155.793 54.5043 154.341 54.5043C153.252 54.5043 152.526 54.1412 151.8 53.4151C151.074 52.6891 150.711 51.963 150.711 50.8738C150.711 48.6956 152.163 47.2434 154.341 47.2434C156.52 47.2434 157.972 49.0586 157.972 50.8738Z" stroke="#6D6C9F" stroke-width="3" stroke-miterlimit="10" stroke-linecap="round" stroke-linejoin="round"/>
<path d="M157.972 119.126C157.972 119.852 157.972 120.215 157.609 120.941C156.883 122.03 155.793 122.756 154.341 122.756C153.252 122.756 152.526 122.393 151.8 121.667C151.074 120.941 150.711 120.215 150.711 119.126C150.711 116.948 152.163 115.496 154.341 115.496C156.52 115.496 157.972 116.948 157.972 119.126Z" stroke="#6D6C9F" stroke-width="3" stroke-miterlimit="10" stroke-linecap="round" stroke-linejoin="round"/>
<path d="M88.6304 108.235C88.6304 108.961 88.6304 109.324 88.2674 110.05C87.5413 111.139 86.4522 111.865 85 111.865C83.9109 111.865 83.1848 111.502 82.4587 110.776C81.7326 110.05 81.3696 109.324 81.3696 108.235C81.3696 106.056 82.8217 104.604 85 104.604C86.8152 104.604 88.6304 106.056 88.6304 108.235Z" stroke="#6D6C9F" stroke-width="3" stroke-miterlimit="10" stroke-linecap="round" stroke-linejoin="round"/>
<path d="M88.6304 154.704C88.6304 155.43 88.6304 155.794 88.2674 156.52C87.5413 157.609 86.4522 158.335 85 158.335C83.9109 158.335 83.1848 157.972 82.4587 157.246C81.7326 156.52 81.3696 155.794 81.3696 154.704C81.3696 152.526 82.8217 151.074 85 151.074C86.8152 151.074 88.6304 152.526 88.6304 154.704Z" stroke="#6D6C9F" stroke-width="3" stroke-miterlimit="10" stroke-linecap="round" stroke-linejoin="round"/>
<path d="M99.1587 154.704C99.1587 162.328 92.987 168.5 85 168.5C77.3761 168.5 70.8413 162.328 70.8413 154.704C70.8413 150.711 72.2935 147.443 74.8348 144.902C77.3761 142.361 80.6435 140.909 84.637 140.909C90.0826 140.909 94.8022 144.176 96.9804 148.533C98.4326 149.985 99.1587 152.163 99.1587 154.704Z" stroke="#6D6C9F" stroke-width="3" stroke-miterlimit="10" stroke-linecap="round" stroke-linejoin="round"/>
<path d="M29.4543 26.5501C29.4543 28.7283 29.0913 30.9066 28.0022 33.0848C25.8239 37.8044 21.1043 40.7087 15.6587 40.7087C11.6652 40.7087 8.39783 39.2566 5.85652 36.7153C2.95217 33.8109 1.5 30.1805 1.5 26.5501C1.5 18.5631 7.67174 12.3914 15.2957 12.3914C23.2826 12.3914 29.4543 18.5631 29.4543 26.5501Z" stroke="#6D6C9F" stroke-width="3" stroke-miterlimit="10" stroke-linecap="round" stroke-linejoin="round"/>
<path d="M18.9261 26.5499C18.9261 27.276 18.9261 27.639 18.563 28.3651C18.2 29.0912 16.7478 30.1803 15.6587 30.1803C14.5696 30.1803 13.8435 29.8173 13.1174 29.0912C12.3913 28.3651 12.0283 27.276 12.0283 26.5499C12.0283 24.3716 13.4804 22.9194 15.6587 22.9194C17.4739 22.9194 18.9261 24.3716 18.9261 26.5499Z" stroke="#6D6C9F" stroke-width="3" stroke-miterlimit="10" stroke-linecap="round" stroke-linejoin="round"/>
<path d="M18.9261 143.813C18.9261 144.539 18.9261 144.902 18.563 145.628C17.837 146.717 16.7478 147.443 15.2957 147.443C14.2065 147.443 13.4804 147.08 12.7544 146.354C12.0283 145.628 11.6652 144.902 11.6652 143.813C11.6652 141.635 13.1174 140.183 15.2957 140.183C17.4739 140.183 18.9261 141.635 18.9261 143.813Z" stroke="#6D6C9F" stroke-width="3" stroke-miterlimit="10" stroke-linecap="round" stroke-linejoin="round"/>
<path d="M29.4543 143.813C29.4543 151.437 23.2826 157.609 15.2957 157.609C7.67174 157.609 1.5 151.437 1.5 143.813C1.5 139.82 2.95217 136.552 5.49348 134.011C8.03478 131.47 11.6652 130.017 15.2957 130.017C20.7413 130.017 25.4609 133.285 27.6391 137.641C29.0913 139.093 29.4543 141.272 29.4543 143.813Z" stroke="#6D6C9F" stroke-width="3" stroke-miterlimit="10" stroke-linecap="round" stroke-linejoin="round"/>
<path d="M85 122.394C92.8196 122.394 99.1587 116.054 99.1587 108.235C99.1587 100.415 92.8196 94.0762 85 94.0762C77.1804 94.0762 70.8413 100.415 70.8413 108.235C70.8413 116.054 77.1804 122.394 85 122.394Z" stroke="#6D6C9F" stroke-width="3" stroke-miterlimit="10" stroke-linecap="round" stroke-linejoin="round"/>
<path d="M29.4543 85C29.4543 86.8152 29.0913 88.6304 28.3652 90.0826C27.6391 91.8978 26.55 93.7131 25.0978 94.8022C22.5565 97.3435 18.9261 98.7957 15.2957 98.7957C7.67174 99.1587 1.5 92.6239 1.5 85C1.5 77.3761 7.67174 70.8413 15.6587 70.8413C19.6522 70.8413 22.9196 72.2935 25.4609 74.8348C26.913 76.287 28.0022 77.7391 28.7283 79.9174C29.0913 81.7326 29.4543 83.1848 29.4543 85Z" stroke="#6D6C9F" stroke-width="3" stroke-miterlimit="10" stroke-linecap="round" stroke-linejoin="round"/>
<path d="M99.1587 61.7651C99.1587 65.0325 98.0696 68.2999 95.8913 70.8412C93.35 74.1086 89.3565 75.9238 85 75.9238C78.8283 75.9238 73.3826 71.9303 71.5674 66.1217C71.2043 64.6695 70.8413 63.2173 70.8413 61.7651C70.8413 54.1412 77.013 47.9695 85 47.9695C92.6239 47.9695 99.1587 54.1412 99.1587 61.7651Z" stroke="#6D6C9F" stroke-width="3" stroke-miterlimit="10" stroke-linecap="round" stroke-linejoin="round"/>
<path d="M168.5 119.126C168.5 126.75 162.328 132.922 154.704 132.922C149.259 132.922 144.539 130.018 142.361 125.298C141.272 123.483 140.909 121.304 140.909 118.763C140.909 115.496 141.998 112.228 144.176 110.05C146.717 106.783 150.711 104.968 155.067 104.968C162.328 104.968 168.5 111.502 168.5 119.126Z" stroke="#6D6C9F" stroke-width="3" stroke-miterlimit="10" stroke-linecap="round" stroke-linejoin="round"/>
<path d="M154.341 65.0325C162.161 65.0325 168.5 58.6934 168.5 50.8738C168.5 43.0542 162.161 36.7151 154.341 36.7151C146.522 36.7151 140.183 43.0542 140.183 50.8738C140.183 58.6934 146.522 65.0325 154.341 65.0325Z" stroke="#6D6C9F" stroke-width="3" stroke-miterlimit="10" stroke-linecap="round" stroke-linejoin="round"/>
<path d="M71.5674 103.878L28.7283 90.0825" stroke="#6D6C9F" stroke-width="3" stroke-miterlimit="10" stroke-linecap="round" stroke-linejoin="round"/>
<path d="M75.1978 144.539L25.4609 94.8022" stroke="#6D6C9F" stroke-width="3" stroke-miterlimit="10" stroke-linecap="round" stroke-linejoin="round"/>
<path d="M143.813 110.05L95.8913 70.8413" stroke="#6D6C9F" stroke-width="3" stroke-miterlimit="10" stroke-linecap="round" stroke-linejoin="round"/>
<path d="M71.5674 66.1218L28.3652 79.9175" stroke="#6D6C9F" stroke-width="3" stroke-miterlimit="10" stroke-linecap="round" stroke-linejoin="round"/>
<path d="M141.998 125.298L97.3435 148.17" stroke="#6D6C9F" stroke-width="3" stroke-miterlimit="10" stroke-linecap="round" stroke-linejoin="round"/>
<path d="M141.998 44.7023L97.3435 21.8306" stroke="#6D6C9F" stroke-width="3" stroke-miterlimit="10" stroke-linecap="round" stroke-linejoin="round"/>
<path d="M75.1978 25.4609L25.4609 75.1979" stroke="#6D6C9F" stroke-width="3" stroke-miterlimit="10" stroke-linecap="round" stroke-linejoin="round"/>
<path d="M143.813 59.95L95.8913 99.1586" stroke="#6D6C9F" stroke-width="3" stroke-miterlimit="10" stroke-linecap="round" stroke-linejoin="round"/>
<path d="M72.6565 55.2304L28.3652 31.9956" stroke="#6D6C9F" stroke-width="3" stroke-miterlimit="10" stroke-linecap="round" stroke-linejoin="round"/>
<path d="M72.6565 114.406L28.0022 137.278" stroke="#6D6C9F" stroke-width="3" stroke-miterlimit="10" stroke-linecap="round" stroke-linejoin="round"/>
</svg>
