<svg version="1.1" id="Слой_1" xmlns="http://www.w3.org/2000/svg" x="0" y="0" width="160" height="67" xml:space="preserve"><style>.st0{fill:#fff}</style><path id="Fill-1" class="st0" d="M131.5 12.8h1.7l.3-1.9 2.7-4h-1.9l-1.2 2c-.1.3-.2.5-.3.8h-.1c0-.3 0-.5-.1-.8l-.6-2h-1.7l1.5 4-.3 1.9z"/><path id="Fill-3" class="st0" d="M136.6 12.4c.3.3.7.4 1.1.4.9 0 1.9 0 2.8-.1v-1.2h-2.2c-.1 0-.2 0-.3-.1-.1-.1-.1-.2 0-.3l.1-.9h2.3l.1-1.1h-2.2l.1-.7c0-.1 0-.2.1-.3.1-.1.2-.1.3-.1h2.2l.2-1.1c-1-.1-2-.1-2.9-.1-.4 0-.7.1-1 .3-.3.2-.4.6-.5.9l-.5 3.2c-.1.5 0 .9.3 1.2"/><path id="Fill-5" class="st0" d="M143.6 8.7c.1-.2.1-.4.2-.6h.3v.6l.2 1.5H143l.6-1.5zm-1.6 4.1l.6-1.4h1.9l.1 1.4h1.7l-.9-5.5c0-.1-.1-.2-.2-.3-.1-.1-.2-.1-.4-.1h-1.5c-.3 0-.5.1-.6.4l-2.4 5.5h1.7z"/><path id="Fill-7" class="st0" d="M149.6 8.1h1c.2 0 .4 0 .6.1.1.1.1.3.1.5s-.1.4-.3.6c-.2.1-.4.2-.7.1h-.9l.2-1.3zm-.4 2.5h.9c.1 0 .2 0 .3.1.1.1.1.2.1.3l.2 1.8h1.8l-.2-1.8c0-.4-.3-.8-.8-.9V10c.4 0 .8-.2 1.1-.4.2-.3.4-.6.4-.9.2-.5 0-1-.5-1.4-.6-.3-1.3-.5-1.9-.4-.9 0-1.7 0-2.6.1l-.9 5.8h1.7l.4-2.2z"/><path id="Fill-9" class="st0" d="M157 12.5c.4-.3.6-.8.6-1.3.1-.4 0-.7-.1-1.1-.2-.3-.5-.5-.9-.7l-1-.4c-.1 0-.3-.1-.4-.2-.1-.1-.1-.2 0-.3 0-.1.1-.2.2-.3.2-.1.4-.1.6-.1h1.9l.1-1c-.7-.2-1.3-.3-2-.3-.6 0-1.2.1-1.7.3-.4.3-.7.7-.7 1.2-.1.3 0 .7.1 1 .2.3.5.6.9.7l1.1.5c.1 0 .2.1.3.2.1.1.1.2 0 .3 0 .1-.1.3-.2.3-.2.1-.4.1-.7.1h-1.9l-.1 1.1c.7.2 1.4.3 2.2.3.6.1 1.2-.1 1.7-.3"/><path id="Fill-11" class="st0" d="M147.3 19.5c-.2.4-.6.6-1 .6s-.8-.1-1.1-.5c-.2-.4-.4-.8-.3-1.3 0-.5.1-1 .4-1.5.3-.3.6-.5 1-.5s.8.2 1 .5c.3.4.4.8.4 1.3-.1.6-.2 1-.4 1.4zm-1.1-3.7c-.6 0-1.2.3-1.5.9-.3.5-.4 1-.4 1.6 0 .6.1 1.2.5 1.7.8.9 2.1 1 2.9.1 0-.1.1-.1.1-.2.3-.5.5-1.1.5-1.7 0-.6-.1-1.1-.4-1.6-.5-.6-1.1-.9-1.7-.8z"/><path id="Fill-13" class="st0" d="M153.1 16.4v-.6h-4v4.9h.8v-2.3h2.8v-.5h-2.8v-1.5z"/><path id="Fill-15" class="st0" d="M136.8 24.8h1.3v-.4h-1.3V24h1.4v-.4h-1.9v2h2v-.3h-1.5z"/><path id="Fill-17" class="st0" d="M140.2 23.6h-.5l-.4.7-.4-.7h-.6l.7 1-.7 1h.5l.5-.7.4.7h.5l-.7-1z"/><path id="Fill-19" class="st0" d="M141.3 24c.1 0 .3 0 .4.1.1.1.1.1.1.2h.5c0-.1-.1-.2-.1-.3-.4-.4-1-.4-1.5-.1-.4.4-.4 1 0 1.5.2.2.5.3.7.3.2 0 .5-.1.6-.2.2-.1.3-.3.3-.5h-.5c0 .1-.1.2-.1.2-.1.1-.2.1-.4.1-.1 0-.3-.1-.4-.2-.1-.1-.2-.3-.1-.5 0-.2 0-.3.1-.5.1-.1.2-.1.4-.1"/><path id="Fill-21" class="st0" d="M142.8 24.8h1.2v-.4h-1.2V24h1.3v-.4h-1.9v2h2v-.3h-1.4z"/><path id="Fill-23" class="st0" d="M145.1 23.6h-.9v2h3v-.3h-2.1z"/><path id="Fill-25" class="st0" d="M147.7 23.6h-.5v2h1.9v-.3h-1.4z"/><path id="Fill-27" class="st0" d="M149.7 24.8h1.2v-.4h-1.2V24h1.3v-.4h-1.9v2h2v-.3h-1.4z"/><path id="Fill-29" class="st0" d="M152.6 25l-1-1.4h-.5v2h.5v-1.4l1 1.4h.5v-2h-.5z"/><path id="Fill-31" class="st0" d="M154.1 24c.1 0 .3 0 .4.1.1.1.1.1.1.2h.5c0-.1-.1-.2-.2-.3-.2-.2-.5-.3-.8-.3-.3 0-.5.1-.7.2-.2.2-.3.5-.3.8 0 .3.1.5.3.7.2.2.5.3.7.3.2 0 .5-.1.6-.2.2-.1.3-.3.3-.5h-.5c0 .1-.1.2-.1.2-.1.1-.2.1-.4.1s-.3-.1-.4-.2c-.1-.1-.2-.3-.1-.5 0-.2 0-.3.1-.5.2 0 .3-.1.5-.1"/><path id="Fill-33" class="st0" d="M155.6 25.3v-.5h1.3v-.4h-1.3V24h1.4v-.4h-1.9v2h1.9v-.3z"/><path id="Fill-35" class="st0" d="M114.4 31.3c-2 0-4-.2-6-.6 2.7.1 5.3-.2 7.9-.9 13.4-3.3 17-13.2 26.9-16-1.9 0-6.6 1.3-10.4 3.4-5.7 3.1-12.1 12.2-25.3 11.6-3.5-.2-6.8-1.2-9.8-3 1.7 1.8 3.7 3.3 6 4.2.9.3 1.8.6 2.7.7 7.4 3.2 12.8 1.6 16.2.5 7.7-2.6 13.2-11.2 17.9-13.2-6.3.9-15.2 13.1-26.1 13.3"/><path id="Fill-37" class="st0" d="M67 10.8h-8.6L55.3 14v14l3.5 3.5h10l2.3-2.4v-8.5h-6.2v3H67v3.2h-6.3v-11H67v2.3h4.1v-7.3h-.3z"/><path class="st0" d="M32.9 44.2V31.7l-4.1-4.2h-8.3l-4.1 4.2v12.5h-2.6v5.1h8.3v-8.1h5.2v8.1h8.2v-5.1h-2.6zm-5.2-4.8h-5.9v-6.9h5.9v6.9z"/><path id="Fill-42" class="st0" d="M108.8 24.6l3.8-3.8v-5.7l-1.3-1.3 1-1.1.3-.3V6.8L108.8 3h-7.3l-3.7 3.8V10h5.1V9l.8-1h2.9l.9 1v1.3l-.9.9h-2.3l-.1 5.1h2.4l.9 1v1.3l-.9.9h-2.9l-.8-.9v-1h-5.1v3.2l3.7 3.8z"/><path id="Fill-43" class="st0" d="M119.3 9l.8-.9h2.7l.8.9v9.6l-.8.9h-2.7l-.8-.9V9zm.2 15.6c3.6-1.9 6.4-4.3 8.9-6.3V6.8L124.9 3h-6.8l-3.5 3.9v13.9l3.5 3.9 1.4-.1z"/><path id="Fill-44" class="st0" d="M80.8 36.5L76 31.2c1.4-1.2 2.5-2.6 3.4-4.2l5.9 3.1c-1.1 2-2.3 4-3.8 5.7-.2.2-.5.4-.7.7zm-8.3 4.1l-2.2-6.3c2-.6 3.8-1.6 5.4-2.9l-.3.3 4.8 5.3c-2 1.8-4.6 2.7-7.7 3.6zm-3.2.8c-1.3.4-2.7.7-4.1 1.1l-1.7-6.4c1.4-.4 2.8-.8 4.2-1.1l.3-.1c.5-.1 1.1-.3 1.6-.4l2.2 6.3c-.8.2-1.6.4-2.5.6zm-11.8 3.9L54 39.6c2.8-1.3 5.8-2.4 8.7-3.2l1.7 6.4c-2.4.6-4.7 1.5-6.9 2.5zm-5.4 2.8c-.6.4-1.2.8-1.7 1.2l-4.9-4.6c1-.8 2-1.6 3-2.3 1.5-.9 3.1-1.8 4.7-2.6l3.5 5.6c-1.5.9-3.1 1.7-4.6 2.7zm-6.4 5.6c-.6.6-1.2 1.2-1.8 1.9l-4.7-4.7 1.8-1.8c1.3-1.4 2.7-2.7 4.2-4l-.2.1 4.8 4.6c-1.4 1.3-2.8 2.6-4.1 3.9zm-10.6 8.2l-2.9-6c2.4-1.1 4.5-2.7 6.3-4.6l4.7 4.7c-2.2 2.5-5 4.5-8.1 5.9zm-10.7 2.3l.6-6.6c2.2-.1 4.5-.5 6.5-1.3l2.9 6c-3.1 1.2-6.5 1.9-10 1.9zm-.7 0h-.5c-1.2 0-2.5-.1-3.9-.2-2.6-.3-5-1.3-7.2-2.8l4.1-5.2-.4-.3c1.2.9 2.6 1.5 4 1.7 1.1.1 2.2.2 3.3.2h1.1l-.5 6.6zM5.1 54.1l5.6-3.6c1.3 2 3 3.7 4.9 5.1l-4.1 5.2.3.2c-2.6-1.9-4.9-4.2-6.7-6.9zm-3.8-8.9l6.5-1.7c.4 2.3 1.3 4.5 2.6 6.4l-5.6 3.6c-1.7-2.6-2.9-5.4-3.5-8.3zm-.2-1c-.5-3-.5-6.1.1-9.1l6.6 1.3c-.3 2.1-.4 4.2-.1 6.2l-6.5 1.8-.1-.2zm4.4-19.5l5.5 3.8c-1.4 2.2-2.5 4.6-3 7.2l-6.6-1.2c.7-3.5 2.1-6.9 4.1-9.8zm2.6-3.6c1.1-1.3 2.3-2.5 3.6-3.6l4.3 5.1-2.7 2.7c-.7.8-1.3 1.7-1.9 2.5L5.9 24c.7-1 1.4-1.9 2.2-2.9zm11.3-9.3l-.2.1 3.6 5.5c-2.2 1.4-4.3 2.9-6.3 4.7l-4.3-5c2.3-2 4.7-3.7 7.2-5.3zm9.1-4.7l2.8 6c-2.7 1.1-5.3 2.4-7.8 4l-3.6-5.5c2.7-1.7 5.6-3.2 8.6-4.5zM37.1 4l2.3 6.3c-2.5.7-5 1.6-7.4 2.5l-2.8-6c2.6-1.1 5.2-2 7.9-2.8zm8.7-2.1l1.8 6.5c-2.5.4-5 1-7.5 1.7l-2.3-6.3c2.7-.8 5.3-1.4 8-1.9zm10-1.1l.2 6.7h.5c-2.7.1-5.4.4-8.1.8l-1.8-6.5c3-.5 6.1-.8 9.2-1zm3.8 0c1.6 0 3 .1 4.5.2l-.2 6.7c-1.4-.1-2.9-.2-4.4-.2h-2.8L56.5.9c1.1-.1 2.1-.1 3.1-.1zm5.2.2c2.4.2 4.7.6 7 1.2l-2.5 6.2c-1.6-.4-3.1-.6-4.7-.8l.2-6.6zm15.3 4.9l-4.6 4.9c-1.7-.9-3.5-1.6-5.3-2.1l2.5-6.1-.3-.1c2.7.6 5.3 1.8 7.7 3.4zm5.5 6.2l-6 3c-.7-1.6-2-3-3.5-3.9l4.6-4.9c2.1 1.5 3.8 3.5 4.9 5.8zm1.1 4c.2 1.6.4 3.1.4 4.7l-6.6-.2c-.1-.9-.2-1.9-.4-2.8V17c-.1-.4-.1-.7-.2-1.1l6-3c.4 1 .7 2.1.8 3.2zM50.5 40.4c-.8.4-1.6.9-2.4 1.4-1.2.8-2.3 1.6-3.4 2.5v-.2c0-2.3 1.9-4.1 4.2-4.1.6 0 1.1.2 1.6.4zm2.8-3.6l-2.5 3c-.6-.3-1.3-.5-1.9-.5-2.7 0-4.9 2.2-4.9 4.9 0 .3 0 .5.1.8l-4 1.8.3.7 2.1-1-2.1 2.1c-4.6 4.7-8.2 8.4-17.2 8.3-1 0-2.1-.1-3.2-.2-4.2-.4-10.5-6.9-11.6-13.6-1-6.2.8-12 5.4-17.3C24.1 14 44.6 8 59.5 8.2c8.2.1 17.2 2.1 19.4 7.3l.1.2c.2.5.3.9.4 1.4 0 .2.1.5.1.8.3 1.9.9 5.2-.6 8.4-.8 1.8-2.1 3.3-3.6 4.5-2.2 1.7-4.7 2.9-7.4 3.4l-.3.1c-5.4 1.2-10.7 3.1-15.7 5.5l2.1-2.5-.7-.5zm32.3-7.4l-5.9-3.1c.7-1.6 1-3.2.9-4.9l6.6.2c0 2.6-.5 5.3-1.6 7.8zM82 36.2c4.6-5.5 6-9.7 5.9-15v-.5c-.1-1.6-.2-3.2-.4-4.8C86.2 6.1 75.7.2 59.6 0c-10.5-.1-21 2-30.7 6.1l-.5.3c-9.2 3.9-16.5 9.2-20.8 14.3-.8 1-1.6 1.9-2.3 3l-.4.6C.9 30.2-.7 37.4.5 44.4 1.9 54.2 10.9 64 19.2 64.8c1.4.1 2.7.2 3.9.2 12.5.1 18.1-5.6 23.1-10.8 2.1-2.1 4-4.1 6.3-5.5 6.2-3.9 11.9-5.3 17-6.6 5.1-1.2 9.6-2.3 12.5-5.9z"/><path id="Fill-45" class="st0" d="M39.5 36l4.5 4.4.4-.6-4.4-4.3z"/><path id="Fill-46" class="st0" d="M46.4 34.6l.5 3.8.5-.1-.4-3.8z"/><path id="Fill-47" class="st0" d="M49.4 38.2l.6.2 1.4-4.7-.7-.2z"/><path id="Fill-48" class="st0" d="M38.5 41.3l4.8 1.1.2-.9-4.8-1.1z"/><path id="Fill-49" class="st0" d="M37.5 43.7l.1.5 5.9-.2-.1-.5z"/><path id="Fill-50" class="st0" d="M88.3 41.1l-1.3.3c-.3-.9-1-1.5-1.9-1.5-.7 0-1.3.3-1.7.9-.5.7-.7 1.6-.6 2.5-.1.9.2 1.8.6 2.6.4.5 1 .8 1.7.8.5 0 1-.2 1.3-.5.4-.4.6-.8.7-1.3l1.2.4c-.2.7-.6 1.4-1.1 1.8-1.5 1-3.4.8-4.7-.5-.7-.9-1.1-2-1-3.2-.1-1.2.3-2.4 1-3.3.7-.8 1.7-1.2 2.7-1.2.9 0 1.7.3 2.4.9.3.4.6.9.7 1.3m-6.1-1.3c-.8 1-1.2 2.3-1.2 3.7-.1 1.3.3 2.6 1.2 3.6 1.4 1.5 3.7 1.7 5.3.5.7-.6 1.2-1.4 1.4-2.3l.1-.2-2.1-.7-.1.3c-.1.5-.3 1-.6 1.3-.3.3-.6.4-1 .4-.5 0-1-.2-1.3-.6-.4-.7-.6-1.5-.5-2.3-.1-.8.1-1.5.5-2.2.3-.4.8-.7 1.4-.6.4 0 .7.1 1 .3.3.2.5.6.5 1l.1.2 2.2-.5-.1-.3c-.1-.7-.4-1.3-.9-1.8-.7-.7-1.7-1.1-2.7-1-1.3-.2-2.5.3-3.2 1.2"/><path id="Fill-51" class="st0" d="M91.4 43.4c0-.8.1-1.5.4-2.2.2-.4.5-.8.8-1.2.3-.3.7-.6 1.2-.8.6-.2 1.3-.3 2-.3 1.2-.1 2.4.4 3.2 1.2 1.6 1.9 1.6 4.6 0 6.5-.8.8-2 1.2-3.2 1.2-1.2.1-2.4-.4-3.2-1.2-.9-.9-1.3-2-1.2-3.2m4.4 4.9c1.3.1 2.6-.4 3.6-1.3 1.8-2.1 1.8-5.1 0-7.2-.9-.9-2.2-1.4-3.6-1.3-.7 0-1.5.1-2.2.4-.5.2-1 .5-1.3.9-.4.4-.7.8-.9 1.3-.3.8-.5 1.6-.5 2.4-.1 1.3.4 2.6 1.3 3.6 1 .8 2.3 1.2 3.6 1.2"/><path id="Fill-52" class="st0" d="M94.1 41.6c.9-.9 2.5-.9 3.5 0 .5.6.7 1.4.7 2.2.1.8-.2 1.6-.7 2.3-.9.9-2.4 1-3.3.1l-.1-.1c-.5-.6-.8-1.4-.7-2.2-.2-.8 0-1.6.6-2.3m1.7 5.7c.8 0 1.6-.3 2.1-.9.6-.7.9-1.7.8-2.6.1-.9-.2-1.8-.8-2.5-.5-.6-1.3-.9-2.1-.9s-1.6.3-2.2.9c-.6.7-.9 1.6-.8 2.6-.1.9.2 1.8.8 2.6.6.5 1.4.8 2.2.8"/><path id="Fill-53" class="st0" d="M107.9 45.8v-6.9h1.2v8.8h-1.5l-4.2-6.7v6.7h-1.2v-8.8h1.4l4.3 6.9zm-6.2-7.4v9.9h2.3v-5.5l3.4 5.5h2.3v-9.9h-2.3V44l-3.4-5.6h-2.3z"/><path id="Fill-54" class="st0" d="M118.8 47.1c-1.5 1-3.5.8-4.7-.5-.7-.9-1.1-2-1-3.2-.1-1.2.3-2.4 1-3.3.7-.8 1.7-1.2 2.7-1.2.9 0 1.7.3 2.4.9.3.4.6.8.7 1.3l-1.2.3c-.1-.4-.3-.7-.6-1-.4-.3-.8-.5-1.3-.5-.7 0-1.3.3-1.7.8-.5.7-.7 1.6-.6 2.5-.1.9.1 1.8.6 2.6.4.5 1 .8 1.7.8.5 0 1-.2 1.3-.5.4-.4.6-.8.7-1.4l1.2.4c-.3.9-.7 1.5-1.2 2m1.6-1.9l.1-.2-2.1-.7-.1.3c-.1.5-.3 1-.6 1.3-.3.3-.6.4-1 .4-.5 0-1-.2-1.3-.6-.4-.7-.6-1.5-.5-2.3-.1-.8.1-1.5.5-2.2.3-.4.8-.7 1.4-.6.4 0 .7.1 1 .3.3.2.5.6.5 1l.1.2 2.2-.5-.1-.3c-.1-.7-.5-1.3-.9-1.8-.7-.7-1.7-1.1-2.7-1-1.1 0-2.3.4-3 1.3-.8 1-1.2 2.3-1.2 3.7-.1 1.3.3 2.6 1.1 3.6.8.9 1.8 1.3 2.9 1.3.9 0 1.7-.2 2.4-.8.7-.7 1.1-1.5 1.3-2.4"/><path id="Fill-55" class="st0" d="M127.6 42.4c-.1.1-.3.3-.5.3-.6.1-1.2.1-1.8.1H124v-1.9h2.9c.2 0 .5.1.6.3.2.2.2.4.2.6.1.2.1.4-.1.6m-.6-2h-3.6v2.9h1.9c.7 0 1.4 0 2-.1.3-.1.6-.3.7-.5.2-.3.3-.6.3-.9 0-.4-.1-.7-.4-1-.1-.2-.5-.3-.9-.4"/><path id="Fill-56" class="st0" d="M129.6 40c.3.4.4.9.4 1.3 0 .6-.2 1.1-.6 1.6-.4.5-1 .7-1.7.8l-.7.1.6.4c.3.2.7.4.9.7.4.5.7 1 1 1.5l.9 1.4h-1.6l-1.3-1.9c-.3-.5-.6-1-1-1.4-.2-.2-.4-.4-.7-.5-.3-.1-.7-.1-1-.1h-.6v3.9H123V39h3.7c.7 0 1.4 0 2 .2.4.1.7.4.9.8m-3-1.6h-4.2v9.8h2.4v-3.9h.1c.3 0 .6 0 .8.1.2.1.3.2.5.3.3.4.7.9.9 1.3l1.4 2.1h2.8L130 46c-.3-.5-.7-1.1-1.1-1.6l-.5-.5c.5-.1 1-.4 1.4-.8.5-.5.7-1.2.7-1.9 0-.6-.1-1.1-.4-1.6-.3-.5-.7-.8-1.2-1-.8-.1-1.5-.2-2.3-.2"/><path id="Fill-57" class="st0" d="M138.8 46.7v1.1h-6V39h5.8v1.1H134v2.6h4.3v1H134v3h4.8zm-4.3-2.5h4.3v-2.1h-4.3v-1.6h4.6v-2.1h-6.8v9.9h6.9v-2.1h-4.7v-2z"/><path id="Fill-58" class="st0" d="M140.8 40.1V39h6.9v1.1h-2.8v7.7h-1.4v-7.7h-2.7zm2.2 8.2h2.4v-7.7h2.8v-2.1h-7.9v2.1h2.8v7.7z"/><path id="Fill-59" class="st0" d="M155.6 47.8h-6V39h5.8v1.1h-4.6v2.6h4.3v1h-4.3v3h4.7v1.1zm.4-1.6h-4.7v-2h4.3v-2.1h-4.3v-1.6h4.6v-2.1h-6.8v9.9h6.9v-2.1z"/><path id="Fill-60" class="st0" d="M140.7 63.5h1v-6.9h-1v6.9zm-.5.5h2v-7.9h-2V64z"/><path id="Fill-61" class="st0" d="M148.6 56.7v6.9h-1.2l-3.7-5.4v5.4h-1v-6.9h1.2l3.7 5.6v-5.6h1zm-1.5 3.8l-2.9-4.3h-2V64h2v-4.2L147 64h2v-7.9h-2v4.4z"/><path id="Fill-62" class="st0" d="M156.4 61.4c-.2.6-.5 1.2-.9 1.6-1.3.9-2.9.7-4-.4-.6-.8-.9-1.8-.9-2.8-.1-1.1.3-2.1.9-2.9.6-.7 1.4-1.1 2.3-1 .7 0 1.5.2 2 .8.3.3.5.7.6 1.1l-1 .3c-.2-.8-.9-1.3-1.7-1.3-.6 0-1.1.3-1.5.7-.4.7-.6 1.4-.6 2.2-.1.8.1 1.7.6 2.3.4.5.9.8 1.5.7.4 0 .9-.2 1.2-.5.3-.3.5-.7.6-1.2l.9.4zm-1.3-.8c-.1.4-.3.8-.5 1.2-.2.2-.5.4-.9.4s-.8-.2-1.1-.6c-.3-.6-.5-1.3-.4-2-.1-.7.1-1.3.4-1.9.3-.4.7-.6 1.1-.5.3 0 .6.1.8.3.2.2.4.5.5.8l.1.3 1.9-.6-.1-.3c-.1-.6-.4-1.2-.8-1.6-.6-.6-1.5-1-2.3-1-1 0-2 .4-2.7 1.2-.7.9-1.1 2.1-1 3.3-.1 1.2.3 2.3 1 3.2 1.2 1.4 3.2 1.6 4.7.5.6-.5 1-1.3 1.2-2.1V61l-1.9-.7v.3z"/><path id="Fill-63" class="st0" d="M158.5 63.5h1v-1h-1v1zm-.5.5h2v-2h-2v2z"/><path id="Fill-64" class="st0" d="M79 56.2c-.2.3-.5.5-.8.6-.7.2-1.4.2-2.1.2h-1.4v-3.6h1.2c.6 0 1.3 0 1.9.1.4.1.8.3 1 .6.3.3.4.7.4 1.1.1.4 0 .7-.2 1m.4-4.8c-1-.2-2.1-.2-3.1-.2h-4.2V64h2.6v-4.8h1.7c.9 0 1.8 0 2.7-.2.5-.1.9-.3 1.4-.6.5-.3.8-.8 1.1-1.3.3-.6.5-1.3.4-2 0-.9-.2-1.8-.7-2.5-.5-.5-1.2-1-1.9-1.2"/><path id="Fill-65" class="st0" d="M90.3 60.6c-1.2 1.5-3.3 1.6-4.7.2l-.2-.2c-1.3-2.1-1.3-4.8 0-6.9.6-.8 1.5-1.2 2.5-1.1.9 0 1.8.4 2.4 1.1.7 1 1 2.2.9 3.4.2 1.3-.2 2.5-.9 3.5m1.9-8.5c-1.1-1.2-2.7-1.9-4.3-1.8-.9 0-1.8.2-2.6.5-.6.3-1.1.7-1.6 1.2s-.9 1.1-1.1 1.8c-.4 1.1-.6 2.2-.6 3.4-.1 1.8.5 3.6 1.6 5 2.4 2.4 6.2 2.4 8.6 0 1.1-1.4 1.7-3.2 1.6-5.1.1-1.8-.5-3.6-1.6-5"/><path id="Fill-66" class="st0" d="M104.2 60.6c-1.2 1.5-3.3 1.6-4.7.2l-.2-.2c-.7-1-1-2.2-1-3.4-.1-1.2.2-2.5.9-3.4 1.3-1.5 3.5-1.5 4.8-.1l.1.1c.7 1 1 2.2.9 3.4.2 1.2-.2 2.4-.8 3.4m1.8-8.5c-1.1-1.2-2.7-1.9-4.3-1.8-.9 0-1.8.2-2.6.5-.6.3-1.1.7-1.6 1.2s-.9 1.1-1.1 1.8c-.4 1.1-.6 2.2-.6 3.4-.1 1.8.5 3.6 1.6 5 2.4 2.4 6.2 2.4 8.6 0 1.1-1.4 1.7-3.2 1.6-5.1.1-1.8-.4-3.6-1.6-5"/><path id="Fill-67" class="st0" d="M112.2 51.2h-2.6V64h8.9v-2.1h-6.3z"/><path id="Fill-68" class="st0" d="M127.4 56.4c-.9-.4-1.9-.8-2.9-1-.9-.1-1.7-.4-2.5-.9-.3-.2-.4-.5-.4-.8 0-.3.2-.6.4-.8.5-.3 1.2-.5 1.8-.5.6 0 1.2.1 1.7.5.4.4.7.9.7 1.5l2.7-.1c0-1.1-.5-2.2-1.3-2.9-1.1-.8-2.4-1.2-3.8-1.1-.9 0-1.8.1-2.6.5-.7.3-1.3.7-1.7 1.3-.4.6-.6 1.2-.6 1.9 0 1 .4 2 1.2 2.7.9.7 1.9 1.1 3 1.3 1.1.3 1.8.5 2.2.6.4.1.7.3 1 .6.2.2.3.5.3.8 0 .5-.3 1-.7 1.3-.6.4-1.3.6-2 .5-.7 0-1.4-.2-2-.6-.5-.5-.9-1.2-1-1.9l-2.6.3c.1 1.3.7 2.5 1.6 3.4 1.1.8 2.5 1.3 3.9 1.2 1 0 2-.1 2.9-.5.7-.3 1.4-.8 1.8-1.5.8-1.3.8-2.9.1-4.3-.1-.7-.6-1.1-1.2-1.5"/><path id="Fill-69" class="st0" d="M130.6 63.8h1.3c0 .5-.1.9-.4 1.3-.3.4-.7.6-1.2.8l.5 1.1c.5-.2 1-.5 1.4-.9.4-.3.6-.8.8-1.2.2-.6.2-1.2.2-1.9v-2h-2.7l.1 2.8z"/><path id="Fill-70" class="st0" d="M55.8 14.3l2.8-3h12v6.6h-3.5v-2.3h-6.5v11.2h6.5v-3.5h-2v-2.5h5.5v8L68.5 31H59l-3.2-3.2V14.3zm12.9 17.2l2.4-2.5v-8.7h-6.6v3.5h2v2.5H61V16.2h5.5v2.3H71v-7.6H58.4l-3.1 3.3V28l3.5 3.5h9.9z"/><path id="Fill-71" class="st0" d="M35 44.3v4.4h-7.6v-7.9h-5.6v7.9h-7.6v-4.4h2.6V32l3.8-3.9h7.9l3.9 3.9v12.3H35zm-2-12.5l-4.2-4.2h-8.3l-4.1 4.2v12h-2.5v5.4h8.6v-8H27v7.9h8.6v-5.4H33V31.8z"/><path id="Fill-72" class="st0" d="M44 32.5h-2l-1.6-1.6v-1.4l2.6-1.8 2.8 2.8-1.8 2zm-2-9.9l.8-.9h1.6l.8.9v1.2l-2 1.4L42 24v-1.4zm8.4 9.8l-2-2 1-1.2L48 28l-1 1.1-2.4-2.5 2.5-1.8v-3.3l-1.7-1.8h-3.5l-1.7 1.8v3.3l1.5 1.5-3.1 2.2v3.3l2.7 2.7h3.6l2.2-2.6 1.9 1.9 1.4-1.4z"/></svg>