<svg width="66" height="148" xmlns="http://www.w3.org/2000/svg"><g id="Page-1" stroke="none" stroke-width="1" fill="none" fill-rule="evenodd" stroke-linecap="round" stroke-linejoin="round"><g id="Dark" transform="translate(-392 -847)" stroke="#FFF" stroke-width="2"><g id="arrow-down" transform="translate(393 845)"><path id="Stroke-1" d="M32 149v-48"/><path d="M32 68c-.56 0-1 .44-1 1s.44 1 1 1 1-.44 1-1-.44-1-1-1" id="Stroke-3"/><path d="M32 36c-.56 0-1 .44-1 1s.44 1 1 1 1-.44 1-1-.44-1-1-1" id="Stroke-5"/><path d="M32 3c-.56 0-1 .44-1 1s.44 1 1 1 1-.44 1-1-.44-1-1-1" id="Stroke-5-Copy"/><path id="Stroke-7" d="M64 117l-32.004 32L0 117"/></g></g></g></svg>