<svg width="164" height="77" xmlns="http://www.w3.org/2000/svg" xmlns:xlink="http://www.w3.org/1999/xlink"><defs><path id="path-1" d="M0 0h44.453v.97H0z"/></defs><g id="Page-1" stroke="none" stroke-width="1" fill="none" fill-rule="evenodd"><g id="Dark" transform="translate(-1293 -3220)"><g id="Group-4" transform="translate(285 3213)"><g id="CAlvert" transform="translate(1008 7)"><path d="M6.512 66.141c1.142 0 2.273-.217 3.304-.746l.064-2.249h-1l-.318 1.79a4.811 4.811 0 01-1.986.429c-2.274 0-3.878-1.629-3.878-4.653 0-3.025 1.78-4.654 3.99-4.654.6.005 1.19.157 1.71.439l.318 1.78h.999l-.064-2.249c-1.11-.605-2.273-.746-3.155-.746-3.187 0-5.508 2.33-5.508 5.43 0 3.165 2.225 5.429 5.524 5.429" id="Fill-1" fill="#FFF"/><path d="M15.063 58.976l1.3 3.668h-2.635l1.335-3.668zm-.963 6.54l-1.346-.209.698-1.923h3.166l.694 1.955-1.3.177v.625h3.747v-.625l-1.01-.141-2.875-8.119h-.913l-2.9 8.056-1.194.204v.625H14.1v-.625z" id="Fill-3" fill="#FFF"/><path d="M27.663 63.52h-.9l-.407 1.833h-2.97c-.026-1.081-.026-2.153-.026-3.024v-.956c0-1.097 0-2.221.026-3.334l1.21-.152v-.63h-3.849v.63l1.226.157c.025 1.098.025 2.216.025 3.334v.646c0 1.098 0 2.221-.025 3.335l-1.226.152v.63h6.775l.14-2.62z" id="Fill-5" fill="#FFF"/><path d="M145.229 65.51l-1.243-.151c-.026-1.119-.026-2.237-.026-3.335v-.646c0-1.123 0-2.242.026-3.334l1.243-.152v-.63l-2.714-.006h-1.238v.63l1.259.158c.026 1.113.026 2.237.026 3.334v.646c0 1.119 0 2.242-.026 3.335l-1.259.152v.63h3.952v-.63z" id="Fill-7" fill="#FFF"/><path d="M150.4 58.977l1.305 3.67h-2.635l1.33-3.67zm-.953 6.538l-1.345-.208.698-1.924h3.165l.693 1.955-1.3.177v.626h3.75v-.626l-1.008-.14-2.88-8.119h-.911l-2.9 8.056-1.192.203v.626h3.23v-.626z" id="Fill-9" fill="#FFF"/><path d="M163.1 63.526l-.407 1.827h-2.97c-.025-1.081-.025-2.153-.025-3.024v-.956c0-1.097 0-2.221.025-3.334l1.211-.152v-.63h-3.85v.63l1.227.157c.025 1.098.025 2.216.025 3.334v.646c0 1.098 0 2.221-.025 3.335l-1.227.152v.63h6.775l.141-2.62-.9.005z" id="Fill-11" fill="#FFF"/><g id="Group-15" transform="translate(0 72.064)"><mask id="mask-2" fill="#fff"><use xlink:href="#path-1"/></mask><path id="Fill-13" fill="#FFF" mask="url(#mask-2)" d="M44.453.97V0L0 .494z"/></g><path id="Fill-16" fill="#FFF" d="M118.554 73.051l44.458-.502-44.458-.485z"/><path id="Fill-18" fill="#FFF" d="M31.898 66.141h.594l2.859-8.085 1.203-.176v-.624h-3.158v.707l1.122.119-2.123 5.805-2.204-5.815 1.24-.11v-.706h-3.768v.624l1.046.13z"/><path d="M44.344 65.353h-3.249c-.024-1.113-.024-2.237-.024-3.392h1.873l.17 1.245h.644v-3.25h-.643l-.186 1.275h-1.858c0-1.034 0-2.116.024-3.182h2.98l.298 1.696h.81l-.088-2.489H38.53v.63l1.19.158c.025 1.113.025 2.237.025 3.334v.646c0 1.119 0 2.242-.025 3.335l-1.19.152v.63h6.843l.073-2.489h-.81l-.292 1.701z" id="Fill-20" fill="#FFF"/><path d="M49.045 57.973h1.122c1.316 0 1.877.52 1.877 1.587 0 1-.626 1.695-2.075 1.695h-.949c0-1.154 0-2.2.025-3.282m2.388 5.184l.506 2.061c.17.701.566.923 1.42.923.333.005.666-.047.978-.16v-.618l-.973-.134-.526-1.737c-.318-1.113-.844-1.608-1.604-1.773 1.5-.273 2.23-1.216 2.23-2.164 0-1.443-1.222-2.299-3.302-2.299h-3.728v.619l1.211.154c.025 1.093.025 2.196.025 3.273v.634c0 1.097 0 2.2-.025 3.272l-1.211.15v.618h3.803v-.619l-1.197-.15c-.025-1.05-.025-2.122-.025-3.256h.551c1.093 0 1.624.113 1.867 1.206" id="Fill-22" fill="#FFF"/><path d="M56.52 58.05h2.026c.026 1.113.026 2.231.026 3.328v.646c0 1.119 0 2.237-.026 3.33l-1.404.157v.63h4.275v-.63l-1.404-.158c-.026-1.113-.026-2.231-.026-3.329v-.646c0-1.118 0-2.236.026-3.329h2.026l.323 1.65h.867l-.115-2.443h-7.68l-.109 2.442h.867l.329-1.649z" id="Fill-24" fill="#FFF"/><path d="M76.009 65.395l.063-2.249h-.999l-.319 1.79a4.798 4.798 0 01-1.987.429c-2.275 0-3.875-1.629-3.875-4.653 0-3.025 1.78-4.654 3.991-4.654a3.67 3.67 0 011.712.439l.319 1.78h.999l-.064-2.249c-1.11-.605-2.275-.746-3.157-.746-3.189 0-5.511 2.33-5.511 5.43 0 3.165 2.227 5.429 5.527 5.429 1.137 0 2.27-.217 3.3-.746" id="Fill-26" fill="#FFF"/><path d="M82.014 65.389c-1.76 0-2.439-1.915-2.439-3.69s.678-3.69 2.44-3.69c1.76 0 2.424 1.915 2.424 3.69s-.664 3.69-2.425 3.69m0-8.133c-1.952 0-3.966 1.62-3.966 4.443 0 2.963 2 4.442 3.966 4.442 1.952 0 3.938-1.635 3.938-4.442-.005-2.974-2-4.443-3.938-4.443" id="Fill-28" fill="#FFF"/><path d="M90.032 61.229l-.092-2.382 3.235 7.294h.796l3.046-7.294v3.127c.01 1.16.005 2.288-.016 3.385l-1.179.152v.63h3.961v-.63l-1.313-.157c-.027-1.113-.027-2.236-.027-3.333v-.645c0-1.118 0-2.24.027-3.332l1.313-.158v-.63H96.85l-2.992 7.164-3.186-7.164H87.96v.63l1.26.163v7.268l-1.292.189v.63h3.229v-.63l-1.125-.184V61.23z" id="Fill-30" fill="#FFF"/><path d="M100.803 57.886l1.26.163v7.268l-1.292.189v.63H104v-.63l-1.125-.184V61.23l-.091-2.382 3.233 7.294h.796l3.044-7.294v3.127c.011 1.16.006 2.288-.016 3.385l-1.178.152v.63h3.96v-.63h.005l-1.313-.157c-.027-1.113-.027-2.236-.027-3.333v-.645c0-1.118 0-2.24.027-3.332l1.313-.158v-.63h-2.932l-2.99 7.164-3.185-7.164h-2.717v.63z" id="Fill-32" fill="#FFF"/><path d="M121.518 63.652h-.81l-.287 1.701h-3.253c-.025-1.113-.025-2.237-.025-3.392h1.873l.17 1.245h.645v-3.25h-.644L119 61.23h-1.858c0-1.034 0-2.116.025-3.182h2.98l.297 1.696h.81l-.093-2.489h-6.56v.63l1.19.158c.025 1.113.025 2.237.025 3.334v.646c0 1.119 0 2.242-.025 3.335l-1.19.152v.63h6.843l.073-2.489z" id="Fill-34" fill="#FFF"/><path d="M126.102 57.973h1.123c1.316 0 1.882.52 1.882 1.587 0 .995-.625 1.695-2.081 1.695h-.949c0-1.154 0-2.2.025-3.282zm1.197 7.384l-1.197-.15c-.025-1.05-.025-2.122-.025-3.256h.552c1.087 0 1.619.113 1.863 1.206l.506 2.061c.17.701.566.923 1.42.923a2.75 2.75 0 00.98-.16v-.618l-.974-.134-.522-1.737c-.318-1.113-.844-1.608-1.604-1.773 1.5-.273 2.23-1.216 2.23-2.164 0-1.443-1.222-2.299-3.303-2.299h-3.731v.619l1.212.154c.025 1.093.025 2.196.025 3.273v.634c0 1.097 0 2.2-.025 3.272l-1.212.15v.618h3.805v-.619z" id="Fill-36" fill="#FFF"/><path d="M137.67 66.141c.884 0 1.782-.185 2.563-.587l.056-1.865h-.855l-.236 1.354a3.29 3.29 0 01-1.457.346c-1.692 0-2.877-1.249-2.877-3.69 0-2.467 1.358-3.69 2.966-3.69a2.47 2.47 0 011.223.345l.24 1.354h.85l-.042-1.865c-.884-.511-1.824-.587-2.445-.587-2.472 0-4.283 1.946-4.283 4.443 0 2.562 1.735 4.442 4.297 4.442" id="Fill-38" fill="#FFF"/><path d="M53.112 72.33h-.374c0-.66 0-1.263.01-1.865h.41c.59 0 .872.312.872.909.009.533-.254.956-.918.956zm1.517 1.247c-.124-.629-.341-.946-.885-1.046.784-.153 1.106-.666 1.106-1.194 0-.782-.562-1.247-1.554-1.247h-1.923v.343l.535.069c.01.618.01 1.236.01 1.855v.317c0 .628 0 1.247-.01 1.854l-.535.07v.343h1.923v-.344l-.544-.069c-.009-.591-.009-1.194-.009-1.823h.277c.452 0 .65.164.747.703l.189 1.015c.069.454.318.602.788.602.199.005.392-.026.581-.09v-.343l-.488-.064-.208-.95z" id="Fill-40" fill="#FFF"/><path d="M59.588 74.622h-1.656c-.011-.629-.011-1.269-.011-1.94h.962l.092.64h.381v-1.678h-.381l-.097.65h-.957c0-.613 0-1.215.01-1.806h1.506l.156.903h.522l-.054-1.301h-3.748v.35l.624.07c.01.628.01 1.257.01 1.886v.323c0 .64 0 1.269-.01 1.887l-.624.07v.35h3.898l.054-1.302h-.521l-.156.898z" id="Fill-42" fill="#FFF"/><path d="M61.49 73.125l.562-2.056.553 2.056H61.49zm1.045-3.035h-.5l-1.27 4.497-.5.09v.349h1.352v-.348l-.53-.097.293-1.07h1.322l.294 1.092-.535.08v.337h1.756v-.342l-.417-.06-1.265-4.528z" id="Fill-44" fill="#FFF"/><path d="M68.4 74.628h-1.54c-.01-.624-.01-1.242-.01-1.775v-.457c0-.629 0-1.258.01-1.887l.674-.07v-.35h-2.33v.35l.641.07c.011.624.011 1.253.011 1.887v.404c0 .564 0 1.183-.01 1.806l-.641.07v.35h3.874l.078-1.43h-.536l-.22 1.032z" id="Fill-46" fill="#FFF"/><path d="M74.402 74.627H72.75c-.011-.63-.011-1.27-.011-1.943h.961l.091.64h.382v-1.679h-.382l-.096.652h-.956c0-.614 0-1.217.01-1.809h1.504l.156.904h.52l-.053-1.302h-3.742v.35l.628.064c.01.63.01 1.26.01 1.89v.322c0 .641 0 1.27-.01 1.89l-.623.07v.35h3.893l.053-1.303h-.52l-.162.904z" id="Fill-48" fill="#FFF"/><path d="M77.444 72.158l-.377-.128c-.573-.194-.888-.42-.888-.83 0-.46.453-.721 1.045-.721a1.62 1.62 0 01.648.118l.176.819h.667l.063-.957a3.174 3.174 0 00-1.535-.37c-1.215 0-2.058.508-2.058 1.337 0 .753.598 1.168 1.56 1.5l.353.123c.642.215.919.405.919.82 0 .465-.44.768-1.158.768a2.334 2.334 0 01-.881-.154l-.17-.855h-.673l-.05 1.024c.452.23 1.138.374 1.786.374 1.34 0 2.165-.553 2.165-1.388-.012-.696-.466-1.096-1.592-1.48" id="Fill-50" fill="#FFF"/><path d="M82.958 70.09h-3.882l-.04 1.355h.48l.14-.957h.9c.01.634.01 1.274.01 1.908v.323c0 .634 0 1.264-.01 1.882l-.643.075v.35h2.203v-.35l-.648-.07c-.01-.629-.01-1.258-.01-1.887v-.323c0-.645 0-1.285.01-1.908h.906l.139.957h.475l-.03-1.355z" id="Fill-52" fill="#FFF"/><path d="M84.209 73.125l.562-2.056.553 2.056h-1.115zm1.045-3.035h-.497l-1.268 4.497-.501.09v.349h1.352v-.348l-.531-.097.294-1.07h1.322l.294 1.092-.536.08v.337h1.757v-.342l-.417-.06-1.27-4.528z" id="Fill-54" fill="#FFF"/><path d="M89.386 70.09H86.98l-.04 1.355h.481l.139-.957h.901c.01.634.01 1.274.01 1.908v.323c0 .634 0 1.264-.01 1.882l-.644.075v.35h2.204v-.35l-.649-.07c-.01-.629-.01-1.258-.01-1.887v-.323c0-.645 0-1.285.01-1.908h.907l.138.957h.476l-.04-1.355h-1.466z" id="Fill-56" fill="#FFF"/><path d="M95.149 74.622h-1.656c-.011-.629-.011-1.269-.011-1.94h.968l.09.64h.383v-1.678h-.382l-.097.65h-.957c0-.613 0-1.215.01-1.806h1.506l.156.903h.522l-.054-1.301H91.88v.35l.623.07c.011.628.011 1.257.011 1.886v.323c0 .64 0 1.269-.01 1.887l-.624.07v.35h3.898l.053-1.302h-.521l-.161.898z" id="Fill-58" fill="#FFF"/><path d="M97.05 74.038c-.422 0-.69.273-.69.618 0 .22.121.457.436.635l.335.19c-.221.534-.67.926-1.3 1.21l.128.309c.884-.267 1.848-1.033 1.848-2.095a1.7 1.7 0 00-.12-.63c-.235-.183-.422-.237-.637-.237" id="Fill-60" fill="#FFF"/><path d="M98.795 70.095v.35l.55.069c.01.628.01 1.257.01 1.885v.323c0 .639 0 1.267-.01 1.885l-.55.07v.349h1.976v-.35l-.554-.07c-.01-.628-.01-1.261-.01-1.89v-.322c0-.64 0-1.268.01-1.885l.554-.07v-.35l-1.43.006h-.546z" id="Fill-62" fill="#FFF"/><path id="Fill-64" fill="#FFF" d="M104.65 70.09h-.82v.347l.82.097v2.898l-2.451-3.342h-1.406v.347l.522.054.086.123v3.941l-.63.091v.348h1.875v-.348l-.814-.096v-3.353l2.807 3.829h.436v-4.498l.636-.09v-.348h-.636z"/><path d="M110.977 74.478c-.227.107-.48.164-.733.169-.873 0-1.545-.671-1.545-2.084s.723-2.094 1.586-2.094c.222 0 .434.057.63.159l.17.87h.492l-.031-1.065a2.742 2.742 0 00-1.39-.343c-1.369 0-2.47.917-2.47 2.468s1.039 2.467 2.45 2.467a3.132 3.132 0 001.472-.348l.03-1.06h-.49l-.17.86z" id="Fill-66" fill="#FFF"/><path d="M112.133 74.038a.496.496 0 00-.494.494c0 .271.222.494.494.494a.492.492 0 00.494-.49.5.5 0 00-.494-.498" id="Fill-68" fill="#FFF"/><path d="M90.815 8.961c.049-.053.105-.1.153-.153a.911.911 0 00-.088.043l-.065.11z" id="Fill-70" fill="#FFF"/><path d="M73.87 18.455c2.521-.915 3.607.616 5.89.095a.347.347 0 01.128-.01c-.678.347-2.04.846-4.048.689 1.902.389 3.407.01 4.212-.295-.037.484-.329 1.31-.286 1.867-.16.316-.133.442-.318.568-.498.332-.064 1.036.408 1.189.116.037.212.331.98.568.005 0 .657.32.667.326.143-.195.292-.316.329-.326a2.76 2.76 0 00.561-.237c.297.016.78.048.933.074.217.042.704 0 1.912 1.83.244.384.54.731.885 1.036-1.256-.857-2.246-2.314-3.004-2.524-.863-.237-1.616.594-1.616.594l-.651-.437c-.286-.194-.71-.32-1.298-.157-.917.252-2.167 2.33-3.825 2.96.646-.399.493-.64.456-.662-2.5-2.02-2.315-7.148-2.315-7.148m6.415 2.767c.032-.2.207-1.047.344-1.189-.28.1-.344.642-.344.642s-.159-.205.016-.731c.053-.168.18-.153.063-.731.202-.2.355-.395.54-.52v-.148h.61v.031c.307.095.498.353.773.637-.11.578.011.563.064.73.175.532.016.732.016.732s-.064-.542-.344-.642c.137.137.317.99.344 1.189.026.2-.424.21-.456.494.133-.2.652-.373.874-.173.016.02.36.257-.079.7a.815.815 0 01-.466.215c-.074.01.328-.368.18-.3-.133.063-.535.473-.927.579-.28-.163-1.17-.532-1.266-.579-.149-.068.254.305.18.3a.815.815 0 01-.466-.216c-.435-.442-.09-.678-.08-.7.223-.194.742-.026.874.174-.026-.278-.482-.294-.45-.494m2.649-2.14c2.283.52 3.835.683 5.848-.627-.805.521-2.15 4.108-3.666 3.824-1.107-.205-1.928-1.467-2.283-2.13-.138-.647-.418-1.189.1-1.068m.875 7.28c.217.446.217.967-.186 1.42-.45.504-.969.836-1.515.994-.08.673-.35 1.446-.556 1.967.313-1.147.567-3.282-.206-3.55L81 27.66c-.556.778-.037 3.024-.037 3.024-.138-.41-.471-1.536-.52-1.952-.502-.168-.99-.489-1.419-.957-.413-.442-.402-.973-.185-1.42-1.166.978-2.713 1.184-3.179.626.996.626 2.177-.363 3.603-1.036.243-.116.498-.221.752-.305.26-.084 1.102-.242 1.102-.242h.365s.715.105 1.054.21c.334.11.663.242.98.4 1.367.668 2.506 1.578 3.47.973-.466.563-2.007.358-3.178-.62M58.464 37.325c.212.043.408.127.583.253l.286.273c.047.053.09.11.127.174.885 0 1.764-.058 2.638-.168l8.953 7.547 3.131-5.165-3.592 3.203-4.598-5.67c3.491-.72 2.924-2.43 3.941-3.492.297-.126.578-.273.848-.452 0 0 .99.915 2.077.589 1.086-.326 1.764-1.373 1.764-1.373s1.07.195 1.796-.226c.725-.426.561-1.473.561-1.473s.164.742.753.184c1.197 1.042 2.463 2.104 3.591 3.735v.11c1.118-1.62 2.379-2.693 3.57-3.745.499.363.642-.278.642-.278s-.164 1.046.561 1.472c.726.426 1.796.226 1.796.226s.678 1.047 1.765 1.373c1.086.326 2.076-.589 2.076-.589s.885.616 1.86.736c1.091 1.047.365 2.551 3.554 3.209l-4.492 5.67-3.629-3.235 3.168 5.196 8.953-7.552c.509.068 1.038.11 1.6.142a1.508 1.508 0 01-.233-.574 1.239 1.239 0 01.016-.557c-3.317-.715-5.573-2.004-6.988-3.098.594-.784.043-1.483-.503-1.457-.657.032-2.21-.883-2.538-2.093-.328-1.21-1.022-1.473-.694-1.736.329-.263.694-1.767.694-2.719s-.725-2.845-.725-2.845.26-1.289.164-1.883c2.251-2.183 4.286-6.606 4.588-10.94.402-2.34-.27-4.791-1.028-6.117a.783.783 0 00-.053-.089c-.212-.358-.424-.62-.625-.773-.498-.379-.922-.605-1.282-.71 1.08-1.873 3.035.257 2.611 2.293 1.124-4.276-3.628-3.413-3.814-2.367-3.046-.636-2.781 3.934-2.84 4.486a3.724 3.724 0 00-.19-.3c-.27-2.513-10.293-12.433-15.872-1.467-.18.353.286.737.684.773 1.52.148 10.07 2.304 11.384 2.904-.016.036-.01.02-.021.052-1.362-.489-9.864-2.23-11.337-2.314a.752.752 0 00-.795.71v.005c-.026.553-.058 1.105-.09 1.626a.55.55 0 00.509.589h.053c4.561-.18 9.938.825 10.918 1.425-.005.026-.016.053-.02.079-1.098-.242-7.645-1.31-11.036-.873-.302.042-.55.257-.567.563-.884.205-3.803.42-4.778.41 3.374 1.43 8.306 2.924 12.465 2.998h.16l.566-.006c.953-.02 1.86-.131 2.68-.336v.005l.038-.016c.238-.063.471-.131.694-.21l.02-.063c.117-.037.24-.069.366-.084 2.951-9.636 4.54-4.986 4.54-4.986s0-2.178.816-4.134c.392-.936.874-1.22 1.325-1.184-.906 1.415-.853 4.729-1.886 5.901-.127.248-.26.484-.398.716-.609 1.02-1.287 1.856-2.023 2.524-.286.3-.615.563-.975.773-1.256.858-3.089 1.231-5.202 1.273v.005h-.573c-6.802-.052-16.067-3.318-18.144-5.248-.265.036-.482.131-.625.315-.996 1.236.392 8.804 8.466 13.16.047.3.09.52.09.52s-.72 1.904-.72 2.85c0 .947.365 2.457.693 2.72.329.263-.36.526-.694 1.735-.334 1.21-1.88 2.125-2.537 2.094-.626-.032-1.245.873-.202 1.772-1.785 1.273-4.678 2.703-8.99 3.166.058.027.117.048.175.063" id="Fill-72" fill="#FFF"/><path d="M87.264 50.485zm-.5.187l-.01.003a.601.601 0 00.01-.003v-.46l-1.167-1.08v1.895c-.318.088-.641.176-.96.267l.003-.001v-3.045l-1.042-.963v4.333a7.1 7.1 0 00-1.01.435v-5.7l1.01.932v-2.368l-.006-.005h.006v.005l1.042.963v-.968h.957v1.852l1.168 1.08v-2.932h1.064v3.915l.745.688.006-.01-.006.01c-.161.271-.42.495-.745.687v-1.375l-1.064-.984v2.368l.356.33a9.166 9.166 0 01-.356.131zm-4.176-11.986h3.024v.562c.356-.022.502.34.376.547.86-.062.8.292.81.64-.214-.145-.574-.159-.778 0l-.002.95.962-.002c.16-.201.146-.557 0-.769.352.01.71-.05.647.8a.38.38 0 01.554.372h.546v2.94h-3.115v-.402c-.356.022-.502-.34-.376-.547-.86.062-.801-.291-.81-.639.214.144.574.158.778 0l.001-.95-.961.002c-.16.2-.146.557 0 .768-.352-.009-.71.05-.647-.8a.38.38 0 01-.554-.372h-.455v-3.1zm5.105 11.634zm-.172.085zm-.189.078zM82.4 44.726h-.804V42.69l-1.064-.983v2.368l.704.65h-.704v-.65l-1.168-1.079v1.73h-.957v-2.614l-1.042-.963v3.577H76.26v-4.597l1.104 1.02v-2.368l-.103-.095h.103v.095l1.042.963v-1.058h.957v1.942l1.168 1.079v-3.02h1.064v4.003l.804.743v1.293zm0 7.327c-.84-.454-1.963-.735-3.023-1.03v-.645c-.356.022-.502-.339-.376-.547-.86.062-.8-.291-.81-.639.214.144.574.158.778 0l.002-.95-.962.002c-.16.201-.146.557 0 .769-.352-.01-.71.05-.646-.8a.38.38 0 01-.554-.373h-.548v-2.928h3.116v.39c.357-.022.503.34.377.548.86-.063.8.29.81.638-.215-.144-.575-.158-.779 0l-.001.95.962-.001c.16-.201.146-.557 0-.769.351.01.71-.05.646.8a.38.38 0 01.554.372h.454v4.213zm6.387-2.535a1.49 1.49 0 00.124-.344l.005-.02V38.5H76.072v10.654l.005.02c.027.12.069.235.124.344.292.577.934.925 1.513 1.162.355.146.724.264 1.092.373.391.116.785.222 1.178.331.435.12.871.245 1.297.394.382.133.768.288 1.119.489l.094.054.094-.054a6.753 6.753 0 011.119-.49c.426-.148.862-.272 1.297-.393.393-.109.787-.215 1.178-.33.368-.11.737-.228 1.092-.374.579-.237 1.221-.585 1.513-1.162z" id="Fill-74" fill="#FFF"/><path d="M84.964 38.994v-1.48a.439.439 0 00-.434.638c-.992-.072-.924.34-.934.745.247-.168.662-.184.897 0l.002 1.109-1.11-.002c-.184-.235-.168-.65 0-.897-.405.01-.818-.058-.745.934a.439.439 0 00-.639.433h2.963v-1.48z" id="Fill-76" fill="#FFF"/><path d="M84.964 41.955v1.48c.41.025.58-.396.434-.639.992.073.923-.34.934-.745-.247.168-.662.184-.897 0l-.002-1.108 1.109.002c.184.235.168.65 0 .897.406-.011.818.058.746-.934a.439.439 0 00.639-.434h-2.963v1.48z" id="Fill-78" fill="#FFF"/><path id="Fill-80" fill="#FFF" d="M78.048 37.513v2.875l.988 1.074v-2.876z"/><path id="Fill-82" fill="#FFF" d="M83.976 45.41v2.875l.988 1.074v-2.875z"/><path d="M78.602 46.05c-.992-.073-.923.34-.934.745.247-.168.662-.184.897 0l.002 1.108-1.109-.002c-.184-.234-.168-.65 0-.896-.406.01-.818-.058-.746.933a.439.439 0 00-.639.434h2.963v-2.96a.439.439 0 00-.434.638" id="Fill-84" fill="#FFF"/><path d="M79.47 49.707c.992.072.924-.34.934-.746-.247.169-.662.185-.897 0l-.002-1.108 1.11.002c.184.235.168.65 0 .897.405-.011.818.058.745-.934a.439.439 0 00.639-.433h-2.963v2.96a.439.439 0 00.434-.638" id="Fill-86" fill="#FFF"/></g></g></g></g></svg>