<svg width="1687" height="258" xmlns="http://www.w3.org/2000/svg"><g id="Page-1" stroke="none" stroke-width="1" fill="none" fill-rule="evenodd"><g id="Dark" transform="translate(-116 -1044)" fill="#141919" fill-rule="nonzero" stroke="#FFF"><path d="M215.644 1254v-.003c49.418 0 87.303-33.129 94.356-81.935h-52.277c-5.198 20.627-21.381 34.047-41.967 34.047-26.272 0-45.54-20.828-45.54-49.458 0-28.74 19.268-49.874 45.54-49.874 19.525 0 35.555 12.36 41.924 31.395h51.787c-7.54-47.064-45.2-79.172-93.823-79.172-56.47 0-98.644 41.824-98.644 97.654 0 55.522 42.174 97.346 98.644 97.346zm185.073 0c16.772 0 31.747-5.496 43.572-15.035l4.26 10.17H487v-143.8l-37.071-.002-5.089 11.12c-11.924-9.797-27.115-15.453-44.123-15.453-44.155 0-75.717 31.697-75.717 76.232 0 44.69 31.562 76.768 75.717 76.768zm7.283-45c-18.443 0-32-13.701-32-32.056 0-18.243 13.445-31.944 32-31.944 18.443 0 32 13.701 32 31.944 0 18.355-13.557 32.056-32 32.056zm160.144 92v-56.77c10.185 6.147 22.131 9.576 35.182 9.576 44.13 0 75.674-32.052 75.674-76.979S647.455 1100 603.326 1100c-17.15 0-32.424 5.928-44.293 16.183l-6.227-11.456H519V1301h49.144zM595 1210c-18.443 0-32-14.057-32-33 0-18.943 13.557-33 32-33 18.443 0 32 14.057 32 33 0 18.943-13.67 33-32 33zm173.717 44c16.772 0 31.747-5.496 43.572-15.035l4.26 10.17H855v-143.8l-37.071-.002-5.089 11.12c-11.924-9.797-27.115-15.453-44.123-15.453-44.155 0-75.717 31.697-75.717 76.232 0 44.69 31.562 76.768 75.717 76.768zm5.283-45c-18.443 0-32-13.701-32-32.056 0-18.243 13.445-31.944 32-31.944 18.443 0 32 13.701 32 31.944 0 18.355-13.557 32.056-32 32.056zm196.095 45c44.483 0 75.905-31.9 75.905-76.716 0-44.815-31.422-76.713-75.905-76.713v.003c-13.36 0-25.56 3.565-35.9 9.939V1053H885v196.276h36.824l4.692-10.706c11.737 9.787 26.719 15.43 43.579 15.43zM963 1209c-18.443 0-32-13.71-32-31.924 0-18.367 13.557-32.076 32-32.076 18.443 0 32 13.71 32 32.076 0 18.215-13.67 31.924-32 31.924zm155-122v-42h-50v42h50zm0 163v-144h-50v144h50zm81-1v-195h-50v195h50zm81-162v-42h-50v42h50zm-1 163v-144h-50v144h50zm129 0v-43.419h-19.091c-10.494 0-16.736-6.218-16.736-16.524v-45.802h35.025v-38.177h-36.28V1064h-10.217L1296 1132.667v11.588h26.432v54.306c0 31.983 19.41 51.439 51.346 51.439H1408zm74-163v-42h-50v42h50zm-1 163v-144h-50v144h50zm100.33 4c36.181 0 65.355-20.474 75.503-53.244h-49.43c-4.775 8.405-14.469 13.465-26.073 13.465-15.684 0-26.19-8.517-29.44-24.987h107.082c.646-4.44 1.025-8.767 1.025-13.093l.003-.005c0-42.116-32.186-75.136-78.67-75.136-45.263 0-78.33 32.368-78.33 76.388 0 43.866 33.334 76.612 78.33 76.612zm28.67-93h-58c3.999-13.557 14.012-21 28.415-21 14.914 0 25.249 7.36 29.585 21zm128.439 93c38.207 0 63.561-19.637 63.561-49.644 0-36.413-30.194-41.127-52.902-45.155-13.657-2.433-24.651-4.335-24.651-12.506 0-6.655 5.332-10.58 13.27-10.58 8.972 0 15.143 4.262 15.143 13.43h46.369c-.565-29.094-24.29-48.545-60.897-48.545-36.833 0-61.389 18.581-61.389 47.362 0 34.826 29.55 41.545 51.84 45.153 13.811 2.282 24.694 4.643 24.694 12.926 0 7.421-6.865 11.112-14.11 11.112-9.389 0-16.707-4.834-16.707-15.335H1675c.453 31.11 24.265 51.78 63.447 51.78l-.008.002z" id="Capabilities"/></g></g></svg>