<svg width="38" height="38" viewBox="0 0 38 38" fill="none" xmlns="http://www.w3.org/2000/svg">
<path d="M24.6406 26.4219H18.7031C17.8833 26.4219 17.2188 27.0864 17.2188 27.9062C17.2188 28.7261 17.8833 29.3906 18.7031 29.3906H24.6406C25.4604 29.3906 26.125 28.7261 26.125 27.9062C26.125 27.0864 25.4604 26.4219 24.6406 26.4219Z" fill="white"/>
<path d="M33.5469 2.67188H10.3906C7.93517 2.67188 5.9375 4.66955 5.9375 7.125V11.5781H4.45312C1.99767 11.5781 0 13.5758 0 16.0312V30.875C0 33.3305 1.99767 35.3281 4.45312 35.3281H27.6094C30.0648 35.3281 32.0625 33.3305 32.0625 30.875V26.4219H33.5469C36.0023 26.4219 38 24.4242 38 21.9688V7.125C38 4.66955 36.0023 2.67188 33.5469 2.67188ZM4.45312 14.5469H27.6094C28.4279 14.5469 29.0938 15.2128 29.0938 16.0312V17.5156H2.96875V16.0312C2.96875 15.2128 3.63464 14.5469 4.45312 14.5469ZM29.0938 30.875C29.0938 31.6935 28.4279 32.3594 27.6094 32.3594H4.45312C3.63464 32.3594 2.96875 31.6935 2.96875 30.875V20.4844H29.0938V30.875ZM35.0312 21.9688C35.0312 22.7872 34.3654 23.4531 33.5469 23.4531H32.0625V16.0312C32.0625 13.5758 30.0648 11.5781 27.6094 11.5781H8.90625V7.125C8.90625 6.30652 9.57214 5.64062 10.3906 5.64062H33.5469C34.3654 5.64062 35.0312 6.30652 35.0312 7.125V21.9688Z" fill="white"/>
</svg>
