<svg width="40" height="27" xmlns="http://www.w3.org/2000/svg"><g id="Page-1" stroke="none" stroke-width="1" fill="none" fill-rule="evenodd"><g id="Dark" transform="translate(-1093 -1752)" fill="#EE3C45" fill-rule="nonzero"><path d="M1125.32 1779c2.16 0 3.98-.706 5.46-2.119 1.48-1.412 2.22-3.128 2.22-5.146 0-1.695-.58-3.127-1.74-4.298-1.16-1.17-2.62-1.755-4.38-1.755-3.28 0-5 1.372-5.16 4.116-1.12-1.533-1.68-3.39-1.68-5.57 0-4.923 3.32-8.273 9.96-10.049.96-.242 1.44-.645 1.44-1.21 0-.646-.44-.969-1.32-.969-2.08 0-4.8.928-8.16 2.785-4.64 2.583-6.96 6.901-6.96 12.955 0 3.31.98 6.013 2.94 8.112s4.42 3.148 7.38 3.148zm-21.93 0c2.093 0 3.885-.706 5.375-2.119 1.49-1.412 2.235-3.128 2.235-5.146 0-1.695-.584-3.127-1.752-4.298-1.167-1.17-2.637-1.755-4.41-1.755-3.22 0-4.912 1.372-5.073 4.116-1.127-1.533-1.691-3.35-1.691-5.448 0-5.005 3.302-8.395 9.906-10.17.966-.243 1.45-.646 1.45-1.211 0-.646-.443-.969-1.33-.969-2.013 0-4.71.928-8.093 2.785-4.671 2.583-7.007 6.86-7.007 12.834 0 3.31.966 6.033 2.9 8.172 1.932 2.14 4.429 3.209 7.49 3.209z" id="“" transform="rotate(180 1113 1765.5)"/></g></g></svg>