<svg width="91" height="91" xmlns="http://www.w3.org/2000/svg" xmlns:xlink="http://www.w3.org/1999/xlink"><defs><path id="path-1" d="M0 .026h91V90.87H0z"/></defs><g id="Page-1" stroke="none" stroke-width="1" fill="none" fill-rule="evenodd"><g id="Dark" transform="translate(-1542 -3213)"><g id="Group-4" transform="translate(285 3213)"><g id="Comores" transform="translate(1257)"><path id="Fill-1" fill="#FFF" d="M30.591 26.652l.087.114.057-.119z"/><path id="Fill-2" fill="#FFF" d="M44.51 72.59l-.56-.383-.428.596.58.393z"/><path id="Fill-3" fill="#FFF" d="M24.528 63.304l-.789.16.214.83.775-.168z"/><g id="Group-159"><path d="M22.743 64.838a.465.465 0 01.269-.098 4.6 4.6 0 01.295.003c.038.14.069.274.093.403.058.3.053.48-.017.54-.047.041-.152.027-.315-.044a1.045 1.045 0 01-.373-.261.383.383 0 01-.105-.277.4.4 0 01.153-.266m-.625.05a.376.376 0 00-.128.374.836.836 0 00.206.4c.298.346.604.497.917.453.202-.027.432-.152.69-.375.163-.14.226-.386.19-.737-.009-.104-.069-.396-.18-.876l-.608.232.024.05a85.69 85.69 0 00-.584.193c-.223.08-.4.176-.527.287" id="Fill-4" fill="#FFF"/><path id="Fill-6" fill="#FFF" d="M45.236 72.291l-.437-.311-.33.468.44.315z"/><path d="M31.33 71.336a.6.6 0 01.335.005 1.916 1.916 0 01-.061.844l-.052.025a1.481 1.481 0 01-.321-.342 1.188 1.188 0 01-.192-.402c.123-.069.22-.112.291-.13m-7.716-4.26c.254.348.527.627.841.911 1.113 1.006 2.058 1.746 3.247 2.681.464.335 1.45.917 1.45.917l.193.13c.243.14.444.217.602.232a1.26 1.26 0 00.552-.097c.082.216.203.419.365.608.14.164.28.286.42.366l.327.187 1.333.612.307-.64.847-2.742.131.127c.054-.05.119-.132.196-.248a2.69 2.69 0 00.194-.336l-.267-.29c-.11-.13-.136-.259-.075-.385l-.032-.06a2.181 2.181 0 00-.302.329c-.094.126-.175.26-.242.402l.13.163-.944 2.954-.951-.459c.077-.148.127-.365.148-.654a6.36 6.36 0 00-.006-.792 1.55 1.55 0 00-.596-.032c-.264.03-.513.1-.746.212a1.34 1.34 0 01-.496.138 1.055 1.055 0 01-.592-.147l-.152-.087.15-.223c.242-.356.387-.63.437-.82.033-.126.039-.33.018-.608l-.565.33c.04.264.051.451.031.563-.028.162-.121.36-.28.597l-1.392-.94c-.053-.114-.104-.323-.152-.639-.078-.5-.143-.849-.196-1.048-.107-.399-.256-.676-.446-.832a.866.866 0 00-.632-.212 1.183 1.183 0 00-.485.16c.108.066.21.138.305.216.156.128.29.282.395.454.097.157.184.353.263.589.064.189.13.435.2.738l-1.973-1.611.032-.01c.413-.413.699-.797.856-1.151a1.76 1.76 0 00.069-1.322l-.536.458c.17.325.192.656.065.993-.1.272-.304.56-.61.865l-.99-.992a.449.449 0 01-.13-.208.343.343 0 01.05-.253l-.06-.06a1.565 1.565 0 00-.4.302c-.076.077-.105.182-.084.315.022.135.097.237.178.349" id="Fill-8" fill="#FFF"/><path id="Fill-10" fill="#FFF" d="M25.193 63.338l-.577.134.157.649.572-.14z"/><path d="M34.068 73.704c.136-.14.24-.298.316-.476.095-.224.215-.566.361-1.022.119-.367.243-.782.374-1.246.133-.463.235-.828.306-1.096l-.298.25c-.096.083-.19.168-.284.254a48.878 48.878 0 01-.671 2.236 12.3 12.3 0 01-.352.99c-.013.03-.04.085-.082.167a4.844 4.844 0 01-.111.216l.045.059c.193-.146.325-.257.396-.332" id="Fill-12" fill="#FFF"/><path id="Fill-14" fill="#FFF" d="M30.821 68.028l-.522.281.322.585.516-.285z"/><path id="Fill-16" fill="#FFF" d="M30.265 68.425l-.312-.586-.526.274.323.59z"/><path id="Fill-18" fill="#FFF" d="M50.841 72.02l.655.152.137-.568-.645-.159z"/><path d="M58.348 74.58c-.23.314-.487.532-.771.653a2.48 2.48 0 01-.453.14c-.17.038-.334.075-.493.109v.157l.554-.024a4.83 4.83 0 00.553-.052 2.23 2.23 0 00.524-.146c.166-.072.344-.243.533-.513.199-.282.34-.578.423-.887.096-.35.092-.648-.013-.892l-.347-.809a1.49 1.49 0 00-.42-.576 2.038 2.038 0 00-.62-.333l.035.604c.219.1.403.21.551.33.185.15.315.312.39.487.088.204.088.476 0 .816-.09.337-.24.654-.446.936" id="Fill-20" fill="#FFF"/><path id="Fill-22" fill="#FFF" d="M67.858 68.033l.625-.215-.186-.567-.638.224z"/><path d="M65.144 68.103a1.188 1.188 0 01-.443.043 1.282 1.282 0 01-.023-.318.617.617 0 01.119-.314 1.913 1.913 0 01.773.346l.005.058c-.118.077-.262.14-.431.185zm-2.021 2.908c.041-.002.08-.003.119-.002.265.005.445.076.54.212.027.038.029.08.007.124a.287.287 0 01-.1.114c-.252.176-.5.223-.746.141-.203-.067-.38-.21-.532-.427.204-.095.44-.15.712-.162zm-.983-.466a6.555 6.555 0 01-.068-.615c-.012-.269.025-.433.11-.492a.099.099 0 01.064-.02c.07.005.153.078.252.218.058.084.046.218-.035.405a2.17 2.17 0 01-.323.504zm-.822.663c-.176.092-.32.14-.427.14a.299.299 0 01-.272-.158.215.215 0 01-.019-.181.256.256 0 01.121-.147.294.294 0 01.128-.039.331.331 0 01.137.023c.107.04.24.147.396.317l-.064.045zm7.22-6.26l-.15.157c-.088.06-.327.106-.72.137-.503.04-.857.079-1.059.116-.406.077-.694.205-.864.384a.865.865 0 00-.258.614c0 .157.042.322.123.496.074-.103.154-.199.239-.288a1.8 1.8 0 01.482-.361c.164-.084.366-.157.606-.218.194-.049.444-.098.752-.145l-1.736 1.829-.012-.014c-.11-.13-.306-.258-.585-.382a6.337 6.337 0 00-.746-.265 1.545 1.545 0 00-.233.549 2.319 2.319 0 00-.057.773c.019.19.006.361-.04.513a1.05 1.05 0 01-.34.506l-.17.145-1.245.87c.174-.32.266-.53.273-.633a.78.78 0 00-.16-.52 1.014 1.014 0 00-.31-.29c-.12-.076-.21-.092-.272-.05-.117.082-.19.243-.22.482a2.84 2.84 0 00.013.72c.027.216.07.44.13.673l-.407.285c-.165-.29-.324-.5-.478-.628-.2-.168-.391-.2-.574-.097-.181.102-.27.294-.267.575.003.241.068.478.188.687.133.236.309.36.527.373.184.01.411-.06.68-.206l.033-.017c-.04.316-.078.55-.113.699a2.643 2.643 0 01-.284.75c-.155.26-.362.462-.618.606a1.73 1.73 0 01-.377.15l-.417.123.008.14c.163-.03.327-.06.49-.088.205-.04.367-.08.488-.117.158-.049.31-.114.455-.195.375-.21.597-.588.667-1.132.053-.405.014-.761-.112-1.07l.377-.255.144.217c.227.325.527.503.903.535a1.22 1.22 0 00.825-.21.359.359 0 00.157-.37 1.004 1.004 0 00-.188-.421.834.834 0 00-.48-.327 1.113 1.113 0 00-.5-.026l1.081-.76.169-.144c.214-.18.355-.343.423-.487.069-.146.101-.33.097-.551.232-.003.464-.049.697-.135.156-.059.409-.212.573-.328.073-.053.146-.113.213-.167l2.635-2.773-.457-.434z" id="Fill-24" fill="#FFF"/><path id="Fill-26" fill="#FFF" d="M52.351 71.076l-.643-.152-.139.576.65.15z"/><path d="M47.48 76.31l.068.032c.107-.217.176-.375.206-.474a1.54 1.54 0 00.07-.566c-.016-.244-.06-.602-.134-1.076a34.75 34.75 0 00-.223-1.281 62.97 62.97 0 00-.215-1.118l-.155.358a9.94 9.94 0 00-.141.353 49.7 49.7 0 01.4 2.3c.068.446.111.794.127 1.044.002.031.002.093 0 .185.002.092 0 .173-.002.243" id="Fill-28" fill="#FFF"/><path d="M52.097 73.772c.097-.11.238-.226.423-.35l.163.367c-.09.179-.204.286-.344.321a1.662 1.662 0 01-.275.05.82.82 0 01-.185-.005.999.999 0 01.218-.383m-.482.995c.19-.01.418-.05.687-.117a.62.62 0 00.314-.195.86.86 0 00.19-.373c.144.325.29.583.44.774.202.256.387.362.556.32l.183-.043 1.96-.648-.278-.838c-.135-.408-.262-.69-.382-.846-.08-.104-.237-.232-.471-.386l-.083.649c.233.129.388.235.464.32.111.12.211.316.3.586l-1.638.542-.21.053c-.077.02-.182-.084-.316-.309a7.647 7.647 0 01-.344-.697l-.257-.578a12.824 12.824 0 01-.194-.399l-.176-.403c-.048.092-.086.19-.114.29a.583.583 0 00-.013.287c.004.018.024.066.058.142l.068.14c-.347.28-.62.578-.82.89-.201.309-.277.564-.226.765.014.056.115.081.302.074" id="Fill-30" fill="#FFF"/><path id="Fill-32" fill="#FFF" d="M56.139 75.176l-.653-.104-.096.584.66.103z"/><path d="M42.443 74.84a.618.618 0 01.31-.127 1.917 1.917 0 01.273.802l-.037.043a1.485 1.485 0 01-.43-.19 1.185 1.185 0 01-.333-.294c.086-.111.159-.189.217-.233m2.035.126c-.188-.07-.278-.197-.27-.38a.27.27 0 01.08-.186.227.227 0 01.176-.073c.14.006.256.101.347.286.047.096.095.242.142.437a2.887 2.887 0 01-.475-.084m-4.555 1.178c-.27.22-.578.39-.91.496-.37.12-.706.146-1.008.078a2.488 2.488 0 01-.448-.153 40.48 40.48 0 01-.463-.201l-.092.127c.153.102.307.204.462.305.183.12.343.214.478.282.178.09.348.153.51.19.177.04.421.005.733-.103.327-.112.614-.269.862-.47.284-.228.455-.472.514-.73l.005-.024.198.023c.278.033.493.026.645-.022.154-.05.31-.151.47-.305.16.167.35.307.573.418.193.096.37.153.53.172 0 0 .25.035.375.045.622.045 1.247.051 1.87.054.495.003 1.485-.029 1.485-.029l-.01-.709-.47-2.832.175.055a1.45 1.45 0 00.065-.309c.017-.137.025-.266.023-.387a68.36 68.36 0 01-.368-.14c-.158-.067-.238-.171-.24-.311l-.055-.039a2.179 2.179 0 00-.124.43c-.027.153-.04.31-.036.467l.19.087.474 3.064-1.083.016.025-.611a2.325 2.325 0 00-.116-.885c-.115-.319-.295-.483-.541-.493-.215-.009-.402.11-.562.357a1.385 1.385 0 00-.228.709c-.012.289.118.5.39.631.122.059.388.126.8.203-.113.03-.23.05-.346.059a4.224 4.224 0 01-.38-.001l-.864-.036c.015-.167-.024-.388-.12-.665a6.319 6.319 0 00-.314-.726c-.165.02-.352.087-.56.203a2.316 2.316 0 00-.605.487c-.126.143-.26.25-.402.32-.183.09-.384.122-.603.097l-.121-.016.048-.216c.056-.25.056-.487-.003-.713a2.04 2.04 0 00-.306-.633l-.326.51c.118.209.203.406.253.59.062.23.072.437.03.623-.049.217-.208.437-.479.66" id="Fill-34" fill="#FFF"/><path id="Fill-36" fill="#FFF" d="M55.46 75.755l-.654-.111-.104.583.663.105z"/><path id="Fill-40" fill="#FFF" d="M27.437 81.696l-.313-.136-.674 1.549.313.136z"/><path d="M33.85 84.907c.052-.186.133-.315.241-.384a.432.432 0 01.367-.048.428.428 0 01.286.229c.057.114.059.265.006.451-.052.189-.134.319-.245.39a.427.427 0 01-.361.05.432.432 0 01-.284-.233c-.059-.119-.062-.27-.01-.455m-.299.587c.102.187.273.315.515.382.239.067.45.047.635-.061.184-.109.313-.294.387-.557.074-.265.06-.491-.043-.68-.102-.19-.272-.317-.512-.384a.927.927 0 00-.369-.035.667.667 0 00-.251.088.802.802 0 00-.214.18c-.08.1-.145.231-.19.397-.073.259-.059.482.042.67" id="Fill-42" fill="#FFF"/><path id="Fill-44" fill="#FFF" d="M61.098 82.705l-1.175.43.58 1.587 1.206-.442-.097-.267-.886.324-.158-.432.796-.291-.098-.267-.796.291-.13-.351.857-.314z"/><path id="Fill-46" fill="#FFF" d="M36.35 86.142l-.824-.202.332-1.35-.33-.082-.401 1.627 1.154.284z"/><path id="Fill-48" fill="#FFF" d="M30.64 84.159l.6.21.108-.305-.6-.211z"/><path id="Fill-50" fill="#FFF" d="M30.067 83.066l.103-.267L29 82.35l-.608 1.575 1.198.462.103-.265-.88-.34.165-.429.791.306.103-.266-.791-.305.135-.35z"/><path d="M59.04 84.243l-.152-.454.156-.052c.116-.04.195-.062.236-.068a.235.235 0 01.154.028c.047.026.08.068.1.127a.224.224 0 01-.07.249.875.875 0 01-.247.111l-.177.06zm.63.066a.466.466 0 00.225-.336.55.55 0 00-.03-.265.522.522 0 00-.197-.28.443.443 0 00-.283-.08 1.99 1.99 0 00-.393.104l-.519.175.538 1.6.323-.108-.203-.604.211-.07c.146-.05.256-.095.328-.136z" id="Fill-52" fill="#FFF"/><path id="Fill-54" fill="#FFF" d="M25.656 81.542l.16 1.285.311.143.704-1.536-.288-.131-.47 1.025-.158-1.314-.302-.138-.704 1.536.289.131z"/><path d="M24.021 81.116l.405-.82-.306-.151-.399.808a2.06 2.06 0 00-.16.399.471.471 0 00.003.21.535.535 0 00.113.218c.059.07.16.14.305.212.12.06.225.092.314.098.09.006.17-.006.239-.036a.477.477 0 00.186-.145c.053-.067.125-.19.214-.373l.393-.795-.306-.151-.413.838c-.06.12-.106.203-.14.25a.235.235 0 01-.145.092c-.061.014-.135-.001-.222-.044a.368.368 0 01-.175-.156.277.277 0 01-.02-.195 1.98 1.98 0 01.114-.259" id="Fill-56" fill="#FFF"/><path d="M33.389 84.397a.492.492 0 00-.05-.406c-.074-.12-.212-.213-.414-.276a.845.845 0 00-.336-.044.46.46 0 00-.252.1.439.439 0 00-.095.578c.05.086.156.177.317.276.125.076.204.127.238.152a.27.27 0 01.094.107.15.15 0 01.004.107.209.209 0 01-.13.131c-.066.027-.152.025-.256-.008a.37.37 0 01-.213-.15.407.407 0 01-.042-.27l-.326-.069c-.035.187-.014.345.066.474.08.128.221.224.425.288.14.044.263.062.369.052a.497.497 0 00.433-.347.463.463 0 00-.11-.496 1.618 1.618 0 00-.315-.227c-.147-.087-.235-.154-.265-.201a.13.13 0 01.065-.197.392.392 0 01.24.011c.092.03.155.07.189.12.035.05.046.12.034.207l.33.088z" id="Fill-58" fill="#FFF"/><path id="Fill-60" fill="#FFF" d="M64.282 81.391l-1.149.499.673 1.549 1.178-.512-.113-.26-.865.375-.184-.421.778-.338-.113-.261-.778.338-.149-.344.836-.363z"/><path id="Fill-62" fill="#FFF" d="M67.131 80.025l-1.2.6.127.255.448-.224.627 1.256.305-.153-.627-1.255.448-.223z"/><path id="Fill-64" fill="#FFF" d="M64.54 81.276l.713 1.53.287-.134-.465-.998 1.082.71.31-.144-.714-1.53-.287.133.477 1.023-1.103-.73z"/><path d="M37.763 85.304l.15.03c.137.027.228.05.272.07.06.026.106.062.14.108a.386.386 0 01.063.18c.009.073 0 .173-.024.301a1.111 1.111 0 01-.094.298.356.356 0 01-.12.142.312.312 0 01-.148.042.932.932 0 01-.205-.024l-.25-.05.216-1.097zm.327 1.458a.604.604 0 00.261-.085.746.746 0 00.235-.258c.053-.092.094-.206.12-.343.031-.155.039-.289.023-.402a.74.74 0 00-.105-.3.566.566 0 00-.22-.202 1.216 1.216 0 00-.308-.093l-.612-.121-.327 1.657.63.124c.123.024.224.032.303.023z" id="Fill-66" fill="#FFF"/><path id="Fill-68" fill="#FFF" d="M42.202 87.383l.34.03.145-1.683-.34-.03z"/><path id="Fill-70" fill="#FFF" d="M61.35 82.611l.628 1.568.294-.118-.494-1.234.804 1.11.305-.122-.182-1.359.493 1.235.295-.118-.628-1.568-.475.19.147 1.182-.713-.955z"/><path d="M39.689 85.764l.132.655-.456-.072.324-.583zm-.472.847l.667.106.086.402.366.058-.404-1.774-.356-.056-.913 1.565.357.057.197-.358z" id="Fill-72" fill="#FFF"/><path id="Fill-74" fill="#FFF" d="M36.51 86.467l.333.075.368-1.648-.332-.075z"/><path id="Fill-76" fill="#FFF" d="M43.584 87.483l.082-1.4.5.029.016-.285-1.34-.08-.016.286.5.03-.082 1.4z"/><path id="Fill-78" fill="#FFF" d="M49.99 85.112l-.114.361.203-.026.27-.382z"/><path id="Fill-80" fill="#FFF" d="M52.02 86.962l.32-1.765-.357.06-.203 1.3-.627-1.163-.364.06.871 1.568z"/><path d="M48.345 86.015c.139-.012.232-.015.28-.008.065.008.12.03.165.065a.388.388 0 01.11.155c.03.068.05.167.06.297.012.13.01.234-.007.311a.352.352 0 01-.076.17.308.308 0 01-.13.082.937.937 0 01-.204.034l-.254.022-.096-1.115.152-.013zm.268 1.385a.977.977 0 00.298-.062.6.6 0 00.227-.154.744.744 0 00.155-.313c.025-.103.032-.224.02-.363a1.241 1.241 0 00-.09-.392.735.735 0 00-.184-.26.563.563 0 00-.267-.132 1.218 1.218 0 00-.323-.005l-.62.054.145 1.682.64-.055z" id="Fill-82" fill="#FFF"/><path id="Fill-84" fill="#FFF" d="M49.673 87.3l1.274-.164-.036-.282-.936.12-.058-.456.84-.108-.035-.282-.841.108-.048-.372.904-.115-.036-.284-1.242.16z"/><path id="Fill-86" fill="#FFF" d="M28.263 82.355l.462.191.11-.264-1.24-.514-.11.264.464.192-.538 1.296.315.13z"/><path id="Fill-88" fill="#FFF" d="M44.932 85.4l-.164.342.204.003.323-.339z"/><path id="Fill-90" fill="#FFF" d="M45.58 86.138l.005-.285-1.252-.021-.029 1.688 1.285.022.005-.285-.944-.016.008-.46.848.015.004-.284-.847-.015.006-.374z"/><path id="Fill-92" fill="#FFF" d="M47.103 86.631l-.635.023.011.323.636-.022z"/><path id="Fill-94" fill="#FFF" d="M29.713 82.15l-.273.264.192.074.42-.207z"/><path id="Fill-96" fill="#FFF" d="M53.682 84.925l-1.227.248.334 1.655 1.26-.254-.057-.279-.925.187-.091-.45.831-.169-.056-.278-.831.167-.075-.367.894-.18z"/><path id="Fill-98" fill="#FFF" d="M54.29 84.799l-.332.078.384 1.63 1.157-.272-.065-.277-.826.194z"/><path d="M41.63 86.255a.183.183 0 01-.103.06 1.358 1.358 0 01-.306-.015l-.251-.03.05-.425.264.03c.137.017.22.028.246.035a.205.205 0 01.12.081.199.199 0 01.03.142.22.22 0 01-.05.122m.401-.103a.487.487 0 00-.042-.273.386.386 0 00-.177-.183 1.209 1.209 0 00-.385-.091l-.713-.084-.196 1.678.34.04.08-.7.07.007c.077.01.133.022.168.04a.252.252 0 01.093.081 2.3 2.3 0 01.15.267l.203.393.405.048-.167-.351a1.867 1.867 0 00-.162-.295.784.784 0 00-.164-.162.538.538 0 00.35-.116.452.452 0 00.147-.3" id="Fill-100" fill="#FFF"/><path d="M57.562 84.708l-.14-.458.158-.048c.117-.036.197-.056.238-.06a.234.234 0 01.153.031.22.22 0 01.096.13.225.225 0 01-.077.247.876.876 0 01-.25.104l-.178.054zm.627.084a.493.493 0 00.146-.128.463.463 0 00.089-.201.55.55 0 00-.022-.267.521.521 0 00-.19-.285.442.442 0 00-.28-.088 1.98 1.98 0 00-.396.093l-.523.16.492 1.616.326-.1-.186-.61.213-.064c.148-.045.258-.087.331-.126z" id="Fill-102" fill="#FFF"/><path d="M56.677 85.5a.427.427 0 01-.284.228.432.432 0 01-.363-.055c-.112-.073-.192-.202-.242-.386-.05-.188-.047-.34.012-.454a.432.432 0 01.29-.229.43.43 0 01.363.05c.107.07.186.198.236.385.051.19.047.343-.012.46m-.03-1.107c-.184-.11-.396-.133-.636-.068a.924.924 0 00-.335.159.666.666 0 00-.171.204.802.802 0 00-.091.264c-.02.126-.007.272.038.438.07.26.197.444.38.554.183.11.395.131.638.066.24-.065.41-.19.514-.378.103-.187.119-.413.048-.676-.072-.265-.2-.453-.385-.563" id="Fill-104" fill="#FFF"/><path d="M64.294 22.142a.439.439 0 01-.208.16.366.366 0 01-.239-.001c-.081-.027-.252-.14-.513-.337l-.402-.305.518-.683.424.321c.22.167.35.27.39.31a.41.41 0 01.122.261.397.397 0 01-.092.274m.101-1.166l-1.144-.868-2.04 2.692.543.412.852-1.124.11.084c.125.094.208.174.25.239a.507.507 0 01.078.235c.011.093.007.297-.012.612l-.052.884.65.492.07-.774a3.77 3.77 0 00.02-.672 1.569 1.569 0 00-.118-.446c.262.145.502.197.72.156a.907.907 0 00.559-.366c.12-.16.188-.33.204-.513a.768.768 0 00-.12-.495c-.092-.148-.282-.33-.57-.548" id="Fill-106" fill="#FFF"/><path d="M44.333 14.557c-.26.01-.48.056-.661.141a.92.92 0 00-.41.358.867.867 0 00-.127.487.88.88 0 00.335.668c.152.127.412.229.78.306.287.06.47.103.551.128a.546.546 0 01.25.139.3.3 0 01.078.2.417.417 0 01-.156.333c-.108.096-.27.148-.49.156-.208.007-.375-.04-.5-.14-.126-.1-.212-.26-.26-.481l-.661.088c.058.376.205.659.44.849.236.188.567.275.994.26.293-.01.537-.06.73-.149a.995.995 0 00.584-.943.99.99 0 00-.154-.531.929.929 0 00-.385-.33c-.162-.079-.41-.151-.744-.218-.334-.066-.545-.134-.634-.203a.26.26 0 01-.108-.202.247.247 0 01.1-.213c.11-.085.263-.131.461-.139.192-.006.337.027.435.1.1.072.167.194.202.367l.68-.055a.983.983 0 00-.364-.731c-.22-.178-.542-.26-.966-.245" id="Fill-110" fill="#FFF"/><path d="M49.22 15.613a.772.772 0 01.643-.181.71.71 0 01.435.215.714.714 0 01.19.446l.69-.065c-.037-.279-.122-.5-.254-.665-.221-.278-.536-.446-.945-.504-.469-.066-.869.035-1.2.303-.33.266-.536.677-.615 1.234-.074.526.01.962.252 1.306.244.344.587.547 1.031.61.359.05.667.004.925-.14.26-.144.465-.391.617-.742l-.625-.3c-.09.236-.21.402-.355.498a.684.684 0 01-.487.106.748.748 0 01-.555-.354c-.126-.2-.16-.513-.1-.935.057-.399.174-.676.353-.832" id="Fill-112" fill="#FFF"/><path id="Fill-114" fill="#FFF" d="M63.897 24.898l1.85 1.782.395-.41-1.359-1.309.638-.662 1.221 1.177.395-.41-1.221-1.177.52-.539 1.312 1.265.396-.412-1.803-1.738z"/><path d="M69.504 27.39a.982.982 0 00.355-.737c.007-.283-.126-.588-.398-.913a1.698 1.698 0 00-.516-.437.922.922 0 00-.534-.104.868.868 0 00-.463.197.88.88 0 00-.323.674c-.007.198.072.466.236.805.128.264.207.435.237.514.042.116.057.21.043.282a.3.3 0 01-.11.184.417.417 0 01-.36.08c-.141-.025-.282-.122-.423-.291-.132-.16-.198-.32-.196-.481.002-.16.076-.327.222-.5l-.475-.469c-.261.276-.395.566-.401.869-.004.301.13.616.403.944.188.225.376.388.565.487a.994.994 0 001.103-.116.991.991 0 00.325-.448.928.928 0 00.025-.506c-.036-.176-.13-.416-.283-.722-.152-.305-.228-.513-.227-.626a.26.26 0 01.092-.209.247.247 0 01.23-.05c.135.033.266.127.393.279.122.147.185.282.187.404.004.123-.052.251-.166.385l.46.504z" id="Fill-116" fill="#FFF"/><path id="Fill-118" fill="#FFF" d="M56 16.372l-1.3 3.116.584.245 1.025-2.454-.408 2.711.606.253 1.643-2.195-1.024 2.453.584.245 1.302-3.117-.944-.395-1.447 1.893.322-2.362z"/><path id="Fill-120" fill="#FFF" d="M25.884 21.527l2.096 2.65.535-.424-2.096-2.649z"/><path d="M37.462 18.553l-.581-2.16.296-.08a3.11 3.11 0 01.549-.114.648.648 0 01.346.072c.1.054.19.142.272.265.08.123.155.31.223.563.067.252.099.458.094.616a.708.708 0 01-.09.36.62.62 0 01-.228.208 1.843 1.843 0 01-.39.138l-.491.132zm1.293.168a1.2 1.2 0 00.393-.385 1.49 1.49 0 00.194-.67 2.223 2.223 0 00-.087-.721 2.48 2.48 0 00-.314-.741 1.472 1.472 0 00-.454-.446 1.129 1.129 0 00-.572-.168c-.154-.003-.366.032-.638.104l-1.203.324.877 3.262 1.24-.333c.243-.066.43-.141.564-.226z" id="Fill-122" fill="#FFF"/><path d="M30.378 21.46a.853.853 0 01-.398.61.864.864 0 01-.725.122c-.256-.069-.49-.264-.699-.583-.213-.326-.3-.616-.26-.87a.865.865 0 01.409-.616.858.858 0 01.72-.13c.248.065.477.26.69.584.214.328.302.622.263.882m-.746-2.086c-.419-.095-.836-.006-1.253.266-.23.151-.408.321-.535.511a1.326 1.326 0 00-.2.494 1.603 1.603 0 00-.008.56c.042.251.157.521.345.809.295.45.65.722 1.066.816.416.094.834.003 1.254-.273.415-.271.662-.617.742-1.036.079-.421-.031-.86-.33-1.316-.301-.46-.662-.737-1.081-.83" id="Fill-124" fill="#FFF"/><path id="Fill-126" fill="#FFF" d="M42.167 14.745l-2.477.368.497 3.34 2.54-.377-.083-.562-1.867.277-.135-.91 1.678-.249-.084-.563-1.677.25-.11-.74 1.802-.269z"/><path d="M54.069 17.529c-.102.378-.263.64-.483.784a.854.854 0 01-.721.109.865.865 0 01-.573-.46c-.12-.237-.13-.54-.03-.91.101-.375.26-.633.475-.774a.866.866 0 01.732-.103c.272.073.464.223.578.45.115.23.122.53.022.904m-.455-1.92a1.853 1.853 0 00-.738-.06 1.33 1.33 0 00-.501.18 1.57 1.57 0 00-.423.367c-.16.198-.285.464-.375.796-.14.519-.106.965.1 1.339.208.372.553.624 1.038.754.48.129.902.084 1.268-.136.367-.221.62-.595.762-1.121.143-.531.11-.985-.099-1.36-.207-.376-.551-.629-1.032-.758" id="Fill-128" fill="#FFF"/><path d="M61.144 20.746c-.197.339-.42.55-.67.631a.854.854 0 01-.725-.083.864.864 0 01-.433-.593c-.053-.26.016-.556.209-.886.195-.336.415-.544.66-.623a.87.87 0 01.734.09c.243.142.39.338.44.587.051.25-.02.543-.215.877m.062-1.97a1.851 1.851 0 00-.696-.251 1.324 1.324 0 00-.532.043c-.183.051-.35.132-.504.242-.206.15-.395.374-.569.671-.27.465-.354.905-.252 1.32.102.412.37.745.805.998.428.25.848.316 1.26.2.41-.118.753-.413 1.027-.884.277-.475.363-.922.26-1.34-.103-.416-.369-.75-.799-1" id="Fill-130" fill="#FFF"/><path d="M23.33 27.924a.554.554 0 01-.39-.055 3.784 3.784 0 01-.45-.341l-1.406-1.17-.436.524 1.385 1.152c.29.242.524.408.701.497a.94.94 0 00.411.093c.153.002.311-.037.476-.117.163-.081.348-.246.555-.494a1.75 1.75 0 00.337-.564 1.03 1.03 0 00.041-.482.942.942 0 00-.195-.429c-.105-.135-.313-.332-.625-.592l-1.364-1.134-.436.524 1.437 1.195c.205.17.346.3.421.39a.475.475 0 01.112.323c-.003.126-.066.263-.19.412-.122.146-.25.236-.384.268" id="Fill-132" fill="#FFF"/><path id="Fill-134" fill="#FFF" d="M30.565 18.365l1.485 3.034.569-.28-.969-1.977 2.192 1.38.614-.302-1.485-3.033-.569.278.992 2.026-2.233-1.418z"/><path id="Fill-136" fill="#FFF" d="M23.154 23.977l2.313 2.461.461-.433-1.508-1.606 2.5.673.5-.468-2.313-2.462-.462.434 1.545 1.644-2.552-.697z"/><path id="Fill-138" fill="#FFF" d="M13.244 60.626l-.136.22.335-.053z"/><path id="Fill-140" fill="#FFF" d="M9.83 52.068l-.183.183.338.025z"/><path id="Fill-142" fill="#FFF" d="M10.633 43.688l-.245.083.293.171z"/><path id="Fill-144" fill="#FFF" d="M17.182 25.096l-.256-.037.183.285z"/><path id="Fill-146" fill="#FFF" d="M77.557 60.84l.335.054-.136-.22z"/><g id="Group-150"><mask id="mask-2" fill="#fff"><use xlink:href="#path-1"/></mask><path d="M90.716 55.79l-.217-.058.217.057zm-9.521-3.333l-.16.159.16-.159zm5 13.995l-.198-.106.198.106zM71.14 68.835l.037-.019-.037.02zm-51.28-.047l-.037-.019.037.02zm-6.56-7.823l.191.117-.191-.117zM9.805 52.41l.16.159-.16-.16zM5.003 66.298l-.198.107.198-.107zm36.677-55.92l.186-.125-.186.125zm-9.512 2.22l.02-.032-.02.032zM12.136 33.756l.046.22-.046-.22zm-1.675 10.228l.072.212-.072-.212zm68.403-10.181l-.046.22.046-.22zM58.832 12.645l-.02-.032.02.032zm-9.512-2.22l-.186-.125.186.125zm14.638-6.323l.01-.02-.01.02zm26.597 38.73l-.22.044.22-.044zm-.089 12.711l-.28-.008-.286.008-.29.023-.295.038-.297.051-.3.066-.301.08-.302.095-.304.11-.302.122-.302.137-.299.15-.297.163-.293.177-.289.19-.187.134.015-.03.2-.426.188-.434.174-.442.157-.446.137-.452.116-.455.051-.25a1.694 1.694 0 101.161-3.18l.212-.15.254-.2.255-.218.253-.24.25-.264.242-.286.233-.31.22-.334.207-.36.19-.386.17-.413.149-.44.123-.468.097-.496.068-.525.035-.556.001-.585-.035-.616-.074-.648-.116-.68-.182.036.182-.036-.05-.255-.246.087-.256.1-.256.117-.253.132-.25.148-.248.164-.244.177-.24.191-.235.205-.23.218-.225.231-.218.244-.21.255-.202.266-.195.278-.185.288-.176.298-.11.202.001-.033-.008-.47-.023-.473-.038-.473-.055-.47-.075-.466-.096-.46-.071-.27a1.696 1.696 0 10.8-3.287l.19-.176.228-.23.226-.249.22-.27.215-.293.203-.314.192-.337.178-.36.16-.383.14-.407.116-.43.091-.456.063-.48.034-.504v-.53l-.035-.555-.073-.58-.113-.608-.155-.633-.2-.66-.058.02.058-.02-.082-.247-.233.118-.242.131-.238.148-.235.164-.23.179-.225.193-.22.206-.213.22-.208.234-.2.245-.194.258-.185.268-.177.28-.167.29-.158.3-.147.31-.137.317-.083.214-.004-.033-.066-.466-.083-.465-.098-.465-.114-.46-.134-.452-.153-.444-.173-.431-.19-.404a1.697 1.697 0 10-.34-3.366l.12-.23.138-.292.128-.31.117-.33.104-.347.086-.364.068-.382.045-.399.022-.414-.005-.43-.035-.445-.067-.46-.101-.473-.138-.486-.178-.5-.22-.51-.263-.523-.31-.534-.36-.544-.41-.555-.16-.205-.18.19-.183.205-.175.22-.166.232-.157.246-.146.258-.138.268-.128.279-.117.29-.106.297-.096.308-.084.316-.072.323-.06.329-.049.335-.035.341-.022.345-.006.23-.014-.03-.22-.416-.234-.411-.248-.405-.262-.394-.278-.382-.293-.366-.308-.348-.187-.188a1.697 1.697 0 00-.432-3.183v-.001a1.687 1.687 0 00-1.073.146l.051-.255.05-.318.037-.334.02-.349.003-.362-.019-.375-.041-.385-.068-.395-.095-.405-.124-.411-.158-.418-.192-.422-.23-.426-.268-.428-.31-.43-.354-.43-.399-.428-.447-.426-.496-.422-.55-.419-.21-.152-.12.232-.119.249-.107.26-.094.269-.082.28-.07.288-.056.296-.045.303-.032.311-.019.316-.005.323.007.326.02.33.035.333.047.336.062.336.075.338.058.223-.022-.025-.327-.338-.34-.33-.351-.319-.362-.305-.373-.29-.384-.27-.07-.044a1.694 1.694 0 10-1.753-2.896l.016-.26.005-.323-.01-.335-.03-.348-.047-.36-.072-.368-.094-.375-.122-.382-.151-.388-.181-.39-.215-.39-.25-.392-.286-.39-.326-.386-.367-.383-.41-.376-.455-.367-.503-.36-.55-.349-.602-.336-.23-.122-.087.247-.083.262-.07.272-.055.28-.042.29-.028.294-.015.301-.002.307.012.312.026.316.04.32.052.322.067.324.08.325.094.326.108.325.122.323.09.212-.027-.02-.37-.29-.383-.279-.393-.267-.4-.251-.41-.234-.419-.214-.423-.19-.431-.165-.435-.136-.08-.02a1.696 1.696 0 10-2.702-2.026l-.09-.243-.126-.298-.146-.302-.167-.307-.19-.31-.213-.307-.239-.305-.266-.3-.294-.293-.323-.284-.355-.271-.387-.257-.42-.24-.454-.222-.49-.202-.527-.177-.565-.153-.605-.126-.644-.096-.687-.065-.008.12.008-.12-.26-.018.021.26.03.274.047.277.062.279.078.28.094.282.108.281.123.282.137.28.15.279.166.276.178.274.193.269.205.264.217.26.23.254.243.247.167.158-.032-.009-.457-.115-.462-.1-.467-.085-.468-.068-.47-.049-.469-.026-.464-.003-.46.024-.454.051-.444.081-.435.116-.42.15-.405.186-.388.227.123.188-.123-.188-.152.1.065.169.076.162.1.162.123.16.145.158.166.156.187.155.208.153.226.149.248.146.265.141.284.137.301.13.32.125.337.116.352.107.369.1.385.087.398.077.036.005-.342.302-.414.413-.41.461-.405.511-.4.563.187.125-.187-.125-.144.215.234.112.251.112.263.099.272.087.282.073.29.061.298.048.305.035.311.022.317.009.322-.004.326-.018.33-.032.332-.044.334-.058.334-.073.335-.086.336-.1.334-.115.33-.129.33-.143.326-.158.322-.173.316-.188.31-.204.305-.218.164-.129a1.697 1.697 0 003.067.89l.248.213.297.24.316.235.334.231.03.02-.434.138-.546.21-.562.256-.577.304-.592.353-.22.138.169.197.184.204.2.197.214.19.229.18.24.173.253.165.265.155.276.146.287.136.296.127.305.115.314.104.322.094.33.082.334.069.342.056.347.044.352.03.354.016.36.003.362-.013.364-.028.365-.044.367-.061.366-.076.203-.052a1.697 1.697 0 002.458 2.047l.162.174.28.278.298.275.028.024-.45.076-.57.132-.592.174-.614.22-.636.267-.236.106.139.219.154.228.17.222.186.218.2.211.215.205.227.198.24.191.253.184.265.174.276.167.286.157.296.147.306.138.314.127.322.115.33.104.338.092.344.08.35.065.354.052.36.038.366.023.367.008.372-.009.373-.024.208-.023a1.697 1.697 0 002.34 2.274l.02.042.172.34.192.345.209.348.02.03-.453-.052-.584-.033-.617.003-.651.039-.686.079-.183.285.084.262.102.26.117.262.134.258.148.257.163.254.178.25.191.247.205.242.219.237.23.23.244.224.255.218.266.21.277.2.288.192.3.183.308.172.316.16.326.15.336.136.344.125.35.11.36.095.366.081.205.036a1.697 1.697 0 001.33 2.881l.004.03.048.378.064.389.08.397.009.036-.409-.202-.54-.227-.582-.204-.626-.182-.672-.156-.045.22.045-.22-.253-.052-.016.259-.008.274.008.28.023.286.039.288.053.292.069.294.083.295.097.297.112.297.126.296.14.295.154.293.167.29.18.287.194.282.207.278.22.272.233.266.244.257.257.25.27.243.283.232.293.221.306.21.317.2.182.103a1.697 1.697 0 00.36 3.182l-.001.072v.382l.014.394.03.405.003.036-.38-.251-.506-.294-.551-.277-.599-.259-.647-.24-.293.171-.043.272-.027.28-.014.285.003.291.016.296.03.3.046.304.059.307.074.308.087.31.102.31.116.31.128.31.143.307.157.304.17.301.184.299.197.292.21.287.223.28.238.274.25.267.264.256.277.248.29.238.166.124a1.697 1.697 0 00-.373 3.037l-.098.245-.012.034-.23-.393-.326-.486-.374-.491-.423-.497-.475-.5-.16.16.16-.16-.339.025-.158.225-.148.239-.137.25-.126.263-.116.273-.105.283-.093.292-.081.302-.07.309-.058.317-.045.323-.033.33-.02.334-.007.34.007.34.02.346.034.35.048.349.062.35.077.35.093.35.108.35.123.346.14.344.155.341.096.185a1.697 1.697 0 00-1.422 2.881l-.215.303-.02.031-.133-.436-.205-.548-.25-.564-.297-.58-.347-.597-.335-.054-.206.182-.199.198-.192.212-.183.227-.176.238-.167.252-.158.263-.149.274-.139.285-.13.295-.118.304-.108.313-.097.32-.085.33-.072.333-.06.341-.048.347-.034.351-.02.355-.006.359.01.362.023.365.04.365.057.368.073.367.05.203a1.697 1.697 0 00-2.24 2.033l-.123.127-.263.294-.26.312-.022.028-.099-.444-.16-.563-.206-.582-.251-.602-.3-.621-.118-.23-.211.15-.22.165-.213.182-.208.197-.2.211-.194.224-.186.238-.178.25-.17.262-.161.273-.153.284-.142.294-.131.303-.122.313-.11.32-.099.327-.086.336-.075.342-.061.348-.048.351-.034.358-.019.362-.004.365.011.368.029.37.043.372.061.374.08.373.095.373.116.373.134.37.155.369.147.312c-.495.362-1 .714-1.512 1.054l-.131-.226-.144-.248-.143-.243-.143-.24-.14-.235-.14-.23-.136-.223-.134-.217-.13-.21-.129-.201-.124-.193-.12-.184-.116-.173-.123.083.123-.083-.034-.051-.057.024-.758.324-.747.314-.735.305-.723.295-.712.286-.701.276-.692.266-.681.257-.673.246-.664.237-.656.226-.648.217-.64.206-.634.196-.628.186-.62.175-.617.165-.611.154-.607.144-.602.133-.6.122-.595.111-.593.101-.591.09-.59.079-.587.067-.587.057-.587.045-.587.034-.588.023-.589.011h-.59l-.002.149h.594l.591-.012.59-.022.59-.035.59-.045.59-.057.59-.068.593-.079.593-.09.596-.101.598-.112.602-.123.604-.134.609-.144.613-.155.618-.165.624-.176.629-.186.635-.196.642-.207.65-.217.657-.227.665-.237.674-.247.683-.256.692-.267.703-.277.713-.286.724-.295.735-.306.747-.314.703-.3.081.121.12.183.123.192.127.2.131.21.134.215.136.223.138.23.14.234.143.24.143.242.143.247.145.25.144.252.144.253.144.254.142.254.142.254.139.252.137.25.135.249.132.245.13.24.125.237.122.232.117.226.113.219.108.212.102.204.097.196.091.187.054.113-.69.365-.755.387-.755.375-.756.364-.757.353-.757.341-.758.33-.76.318-.759.306-.76.294-.762.282-.762.27-.763.258-.764.246-.765.233-.766.221-.766.209-.768.196-.768.183-.769.17-.77.159-.77.145-.772.132-.773.119-.773.106-.775.093-.775.08-.776.066-.777.052-.778.04-.78.025-.78.013-.779-.013-.779-.025-.778-.04-.777-.052-.776-.066-.775-.08-.775-.093-.774-.106-.772-.119-.772-.132-.77-.145-.77-.158-.77-.17-.768-.184-.767-.196-.766-.209-.766-.22-.765-.234-.764-.246-.763-.258-.762-.27-.761-.282-.761-.294-.76-.306-.759-.318-.758-.33-.758-.34-.756-.354-.756-.364-.755-.375-.754-.387-.691-.365.054-.113.09-.187.098-.196.102-.204.108-.212.113-.22.117-.225.122-.232.126-.236.129-.241.132-.245.135-.248.137-.251.14-.252.14-.254.143-.254.144-.254.144-.253.144-.252.145-.25.143-.247.143-.243.142-.24.14-.234.139-.229.136-.222.134-.217.13-.209.128-.2.124-.192.12-.183.08-.121.703.3.747.315.735.305.724.296.713.285.703.277.692.267.683.256.674.247.665.237.657.228.65.216.642.207.635.197.63.185.623.176.618.166.613.154.609.145.604.133.602.123.598.112.596.1.593.091.592.08.59.067.59.057.59.046.59.034.591.022.592.012h.591l.001-.149h-.591l-.589-.01-.588-.024-.587-.034-.587-.045-.587-.057-.588-.067-.589-.079-.591-.09-.593-.1-.596-.112-.599-.122-.602-.133-.607-.144-.61-.154-.617-.165-.621-.175-.628-.186-.634-.196-.64-.206-.648-.217-.656-.226-.664-.236-.672-.247-.682-.257-.692-.266-.701-.276-.712-.286-.723-.295-.735-.305-.747-.314-.758-.324-.058.137.058-.137-.057-.024-.034.05-.116.174-.12.184-.124.193-.128.201-.131.21-.134.217-.137.223-.139.23-.14.235-.143.24-.143.244-.144.247-.13.225a40.658 40.658 0 01-1.528-1.068l.162-.344.155-.368.134-.371.116-.373.096-.373.079-.374.061-.373.043-.372.029-.37.011-.368-.004-.365-.02-.363-.033-.357-.048-.352-.06-.347-.076-.342-.086-.336-.098-.327-.11-.32-.123-.313-.131-.303-.142-.294-.153-.284-.16-.273-.17-.262-.179-.25-.186-.238-.194-.224-.2-.212-.208-.196-.213-.182-.22-.165-.211-.15-.119.23-.299.62-.251.603-.205.582-.161.563-.1.444-.022-.029-.26-.311-.262-.294-.122-.127a1.697 1.697 0 00-2.24-2.033l.05-.203.072-.367.056-.368.04-.365.025-.365.009-.363-.006-.358-.02-.355-.034-.35-.047-.348-.06-.341-.073-.334-.085-.328-.097-.321-.108-.313-.118-.304-.13-.295-.14-.285-.148-.274-.158-.263-.167-.252-.176-.239-.183-.226-.192-.212-.199-.198-.206-.182-.335.054.192.117-.192-.117-.347.596-.297.58-.25.565-.205.548-.133.436-.02-.03-.214-.303a1.697 1.697 0 00-1.422-2.881l.095-.186.155-.341.14-.344.124-.347.107-.349.093-.35.077-.351.062-.35.048-.349.034-.349.02-.345.007-.342-.007-.34-.02-.334-.033-.329-.045-.323-.058-.317-.07-.31-.081-.3-.093-.293-.105-.284-.116-.272-.126-.263-.137-.25-.148-.24-.158-.224-.339-.025.16.159-.16-.159-.475.5-.423.497-.374.491-.325.486-.23.393-.013-.034-.099-.244a1.697 1.697 0 00-.373-3.037l.168-.126.29-.237.276-.248.264-.256.25-.267.238-.274.223-.28.21-.287.197-.292.184-.299.17-.301.157-.304.143-.308.128-.309.116-.31.102-.31.087-.31.074-.309.06-.306.044-.304.031-.3.016-.296.003-.291-.014-.286-.027-.279-.043-.272-.293-.17.073.212-.073-.213-.647.24-.599.26-.551.276-.507.293-.38.252.004-.036.03-.405.015-.394v-.382l-.003-.073a1.697 1.697 0 00.36-3.182l.183-.102.317-.2.306-.21.294-.221.282-.233.27-.242.257-.25.244-.258.233-.265.22-.272.207-.278.193-.282.18-.286.168-.291.154-.293.14-.295.126-.296.112-.297.097-.297.083-.295.069-.294.053-.292.04-.288.022-.285.008-.28-.008-.276-.016-.259-.253.052.045.22-.045-.22-.672.157-.627.181-.582.205-.54.227-.408.202.009-.036.08-.397.064-.39.048-.378.003-.03c.3.022.609-.033.896-.18a1.697 1.697 0 00.435-2.7l.205-.036.366-.081.359-.096.351-.11.344-.124.336-.137.326-.149.316-.16.309-.172.299-.183.288-.192.277-.2.266-.21.255-.218.243-.224.232-.23.218-.238.205-.241.191-.247.178-.25.163-.254.148-.257.134-.259.117-.26.102-.262.084-.262-.183-.285-.686-.078-.65-.04-.618-.002-.584.032-.453.053.02-.03.209-.348.192-.345.172-.34.02-.042c.34.197.752.278 1.169.197a1.697 1.697 0 001.171-2.471l.208.023.373.024.372.009.368-.008.364-.023.361-.038.355-.052.349-.066.344-.079.338-.092.33-.104.322-.115.314-.127.306-.138.296-.147.286-.157.276-.167.265-.175.252-.183.24-.19.228-.199.214-.205.201-.211.185-.218.171-.222.154-.228.14-.22-.237-.105-.636-.267-.614-.22-.592-.174-.57-.132-.45-.076.028-.024.298-.275.28-.278.163-.174a1.697 1.697 0 002.458-2.047l.202.052.366.076.367.06.365.045.364.027.363.013.359-.002.354-.016.352-.03.347-.044.342-.056.335-.07.329-.08.322-.095.314-.104.305-.115.296-.127.287-.136.276-.146.265-.156.253-.164.24-.173.229-.18.213-.19.2-.197.185-.204.168-.197-.218-.138-.593-.354-.577-.303-.562-.256-.546-.21-.434-.138.03-.02.334-.23.316-.237.297-.24.248-.213a1.697 1.697 0 003.067-.89l.164.13.304.218.311.204.316.188.322.173.327.158.329.143.33.129.334.115.336.1.335.086.334.073.334.058.332.044.33.032.326.018.322.004.317-.009.311-.022.305-.035.298-.048.29-.061.282-.073.273-.087.262-.099.251-.112.234-.112-.144-.215-.187.125.187-.125-.4-.563-.405-.51-.41-.462-.414-.413-.342-.302.036-.005.398-.077.385-.088.369-.099.352-.107.337-.116.32-.124.301-.131.284-.137.266-.142.247-.145.227-.15.207-.152.187-.156.166-.155.145-.158.123-.16.1-.162.076-.162.065-.17-.152-.099-.123.188.123-.188-.388-.227-.406-.187-.42-.15-.434-.115-.444-.08-.453-.052-.46-.024-.465.003-.47.026-.469.048-.468.069-.467.085-.462.1-.457.115-.032.009.167-.158.243-.247.23-.254.218-.26.204-.264.193-.27.178-.273.165-.277.151-.278.137-.28.123-.282.108-.281.093-.282.079-.28.062-.28.047-.276.03-.274.02-.26-.259.018-.687.065-.644.096-.605.125-.565.153-.527.178-.49.201-.454.222-.42.24-.387.258-.355.27-.323.284-.294.293-.267.3-.238.306-.214.308-.19.309-.166.307-.145.302-.126.297-.091.244a1.697 1.697 0 10-2.702 2.027l-.08.019-.435.136-.43.164-.424.19-.418.214-.41.234-.401.252-.393.267-.382.279-.371.289-.026.021.09-.212.12-.324.109-.324.094-.327.08-.324.067-.324.053-.322.04-.32.024-.316.013-.312-.002-.307-.015-.3-.028-.296-.042-.289-.056-.28-.07-.272-.082-.262-.087-.247-.23.121-.602.337-.55.35-.503.358-.455.368-.41.376-.367.383-.326.386-.286.39-.25.391-.215.391-.18.39-.152.388-.122.382-.094.375-.072.368-.048.36-.028.348-.01.335.004.323.016.26a1.697 1.697 0 10-1.752 2.896l-.071.044-.384.27-.373.29-.362.305-.351.32-.34.328-.327.34-.022.024.058-.223.075-.338.062-.336.047-.336.034-.333.021-.33.007-.327-.005-.322-.02-.316-.031-.31-.045-.304-.057-.296-.069-.288-.082-.28-.094-.27-.107-.26-.12-.248-.12-.232-.21.152-.549.418-.496.423-.448.426-.398.428-.354.43-.31.43-.268.427-.23.427-.192.422-.158.418-.124.411-.095.404-.068.396-.041.385-.019.375.003.362.02.349.037.334.05.318.051.255a1.697 1.697 0 00-1.505 3.038l-.187.188-.308.348-.293.366-.278.382-.262.394-.248.405-.234.41-.22.417-.014.03-.007-.23-.021-.345-.035-.34-.049-.337-.06-.328-.072-.323-.084-.316-.096-.308-.106-.298-.117-.29-.128-.278-.137-.269-.147-.257-.157-.246-.166-.233-.175-.22-.184-.204-.18-.19-.16.205-.41.555-.359.544-.31.534-.263.522-.22.511-.178.5-.138.486-.102.473-.066.46-.035.445-.005.43.022.414.045.4.068.38.086.365.104.347.117.33.128.31.138.292.12.23a1.697 1.697 0 10-.34 3.365l-.19.405-.173.431-.153.444-.134.453-.114.459-.098.465-.082.465-.067.466-.004.033-.083-.214-.137-.318-.147-.31-.158-.3-.167-.289-.177-.28-.185-.269-.194-.257-.2-.246-.208-.233-.214-.22-.22-.206-.224-.193-.23-.18-.235-.163-.238-.148-.242-.131-.233-.118-.082.247-.2.66-.155.633-.113.607-.073.58-.035.556v.53l.034.504.063.48.091.455.117.431.14.407.16.383.177.36.192.337.203.314.215.292.22.271.226.25.227.229.19.176a1.697 1.697 0 10.8 3.287l-.07.27-.096.46-.075.465-.055.47-.039.474-.023.472-.007.47v.034l-.109-.202-.176-.298-.185-.288-.195-.278-.202-.266-.21-.256-.218-.243-.225-.231-.23-.218-.235-.205-.24-.191-.244-.177-.247-.164-.251-.148-.253-.133-.256-.116-.256-.1-.246-.088-.05.255-.116.68-.074.649-.035.616.001.585.035.555.068.526.097.496.123.468.148.44.17.413.19.385.207.36.221.335.233.31.242.286.25.263.253.24.255.22.254.198.212.15a1.697 1.697 0 101.16 3.18l.052.25.116.456.138.451.157.447.173.442.188.434.2.426.015.03-.187-.134-.29-.19-.292-.177-.297-.164-.3-.15-.3-.136-.303-.123-.304-.109-.302-.094-.301-.081-.3-.066-.297-.052-.294-.038-.29-.022-.286-.008-.281.008-.274.023-.26.03.067.25.196.663.22.614.239.569.258.525.276.483.292.442.305.403.317.366.327.33.334.295.34.263.345.232.346.204.345.175.343.15.34.127.333.105.326.084.315.066.257.042a1.697 1.697 0 002.293 2.497l.068.132.239.407.256.399.27.39.283.379.293.368.022.025-.213-.087-.325-.118-.326-.104-.327-.09-.325-.078-.325-.063-.323-.05-.32-.036-.316-.022-.312-.009-.307.006-.301.018-.295.03-.288.046-.28.058-.271.073-.261.086-.246.088.123.23.198-.107-.198.106.344.599.355.547.364.498.373.451.38.406.386.363.39.322.393.283.394.245.393.21.392.177.389.147.383.118.377.091.369.067.36.045.348.025.335.007.323-.009.26-.018c-.2.298-.308.66-.285 1.045a1.697 1.697 0 003.349.268l.16.254.27.388.285.377.3.367.312.356.321.345.024.023-.22-.07-.333-.092-.333-.079-.333-.065-.33-.051-.329-.038-.326-.024-.322-.01-.316.002-.312.015-.306.03-.298.04-.292.055-.283.067-.275.08-.264.094-.254.106-.239.107.141.219.39.57.396.517.402.469.407.42.41.376.414.332.414.29.413.251.412.214.409.18.404.145.4.116.391.088.382.06.373.039.362.016.35-.002.335-.02.321-.033.304-.045.287-.055.269-.063.249-.067.228-.07.206-.07.183-.069.158-.065.006-.002a41.324 41.324 0 002.273 1.62l-.033.058-.143.254-.143.255-.141.254-.14.253-.138.25-.135.25-.132.244-.13.242-.125.237-.122.232-.118.226-.113.22-.108.213-.104.205-.097.197-.091.187-.085.178-.03.064.062.033.755.4.756.387.757.377.757.365.759.353.759.343.76.33.76.318.763.307.762.295.763.283.765.27.765.26.766.246.767.234.767.221.77.21.769.196.77.184.772.171.772.159.773.145.774.133.775.12.776.105.777.094.778.08.779.066.78.053.78.04.782.025.783.012v-.148.148l.783-.012.781-.026.781-.04.78-.052.779-.067.778-.08.777-.093.775-.106.776-.12.774-.132.773-.145.772-.159.772-.171.77-.184.77-.197.769-.209.767-.222.767-.233.766-.247.765-.259.765-.27.763-.283.762-.295.762-.307.761-.318.76-.33.76-.343.758-.353.757-.365.757-.377.756-.387.755-.4-.07-.13.07.13.062-.033-.03-.064-.001.005.001-.005-.085-.178-.091-.187-.097-.197-.103-.205-.109-.213-.113-.22-.118-.226-.122-.232-.125-.237-.13-.242-.132-.245-.135-.248-.138-.251-.14-.253-.14-.254-.144-.255-.143-.254-.034-.059a41.482 41.482 0 002.23-1.591l.05.022.158.064.183.069.206.07.228.07.25.068.268.062.287.055.304.045.321.034.335.019.35.002.362-.016.373-.038.382-.061.391-.088.4-.116.404-.146.409-.179.412-.214.413-.251.414-.29.413-.332.411-.376.407-.42.402-.468.396-.518.39-.57.14-.218-.238-.108-.254-.106-.264-.093-.275-.08-.283-.068-.292-.054-.298-.042-.306-.028-.312-.016-.316-.003-.322.011-.326.024-.329.038-.33.051-.333.065-.333.079-.334.092-.219.07.024-.023.32-.344.312-.357.3-.367.287-.377.27-.388.16-.254a1.697 1.697 0 103.064-1.313l.26.018.322.009.335-.007.349-.025.36-.044.368-.068.377-.09.383-.119.389-.146.392-.177.393-.21.394-.246.393-.283.39-.321.386-.363.38-.407.373-.45.365-.5.354-.546.344-.599-.198-.106.198.106.123-.228-.246-.09-.26-.085-.272-.072-.28-.06-.288-.044-.295-.031-.3-.018-.308-.005-.312.008-.316.022-.32.037-.323.049-.324.064-.326.076-.327.09-.326.105-.325.119-.213.086.022-.025.293-.368.282-.38.271-.39.256-.397.239-.408.068-.131a1.697 1.697 0 002.293-2.497l.257-.043.315-.066.325-.084.334-.105.34-.126.343-.15.345-.176.346-.204.344-.232.34-.262.335-.296.327-.33.317-.366.305-.403.292-.442.276-.483.258-.525.24-.57.219-.613.195-.662-.216-.058.216.058.068-.25-.26-.03-.274-.024z" id="Fill-148" fill="#FFF" mask="url(#mask-2)"/></g><path id="Fill-151" fill="#FFF" d="M81.015 52.323l.339-.024-.184-.184z"/><path id="Fill-153" fill="#FFF" d="M80.32 43.99l.292-.171-.245-.084z"/><path id="Fill-155" fill="#FFF" d="M73.89 25.391l.184-.284-.256.036z"/><path d="M46.548 53.48l-.301.022-.66.017-.66-.017-.327-.025.54-4.058c.286.029.571.023.85-.016l.558 4.076zm1.952 3.058l-.095-1.49.949 1.15 1.424-.55-.82 1.31.974 1.194-1.46-.393-.818 1.282-.093-1.531-1.485-.423 1.424-.549zm7.052-23.884l.155.195.207.274.2.28.193.285.186.29.177.296.17.301.162.306.153.311.146.316.137.32.128.324.097.264-6.145 4.705-3.142 2.392a3.643 3.643 0 00-.621-.62l7.797-10.239zm2.391 11.442l-.12.42-.2.595-.23.582-.257.567-.283.553-.216.377-7.502-.988a3.643 3.643 0 000-.847l8.808-1.259zm-.773 8.088l-1.275.777.325 1.451.05.224-.172-.152.122-.072-.122.072-1.089-.97-1.259.754-.196.117.09-.21.582-1.363-1.1-1.007-.165-.15.221.022-.057.128.057-.128 1.467.141.56-1.326.09-.211.05.223-.139-.012.14.012.32 1.402 1.468.141.221.022-.19.115zm-4.94-.52l-.536.308-.553.283-.393.178-2.906-3.843a3.64 3.64 0 00.514-.524l4.377 3.275-.502.323zm-9.604 5.846l-.093 1.531-.818-1.282-1.46.393.973-1.193-.82-1.31 1.426.548.948-1.15-.095 1.491 1.424.55-1.485.422zm-3.146-5.538l-.536-.308-.47-.301 4.233-3.221c.16.19.34.363.54.519l-2.85 3.76-.364-.166-.553-.283zm-2.608.821l.603 1.411-1.306-.78-1.13 1.004.337-1.502-1.32-.805 1.52-.147.333-1.453.582 1.376 1.52-.146-1.139 1.042zm-3.09-7.1l-.23-.582-.202-.595-.074-.26 8.581 1.162a3.64 3.64 0 00.023.903l-7.257 1.018-.302-.526-.283-.553-.257-.567zm-.345-9.064l.122-.347.132-.342.14-.338.151-.333.16-.327.168-.323.178-.316.185-.311.195-.306.202-.3.211-.292.198-.259 7.699 10.112a3.642 3.642 0 00-.578.596l-9.164-6.91.001-.004zm11.592 5.518L42.29 22.618l-.02-.144-.105.101-1.609 1.558-.704-3.06-.145.033.725 3.148-1.379 1.334-1.269-3.954-.141.046 1.291 4.023-1.234 1.195-.044.001-1.89-4.53-.136.058 1.867 4.478-1.758.06-1.92-3.691-.131.068 1.886 3.628-1.908.065-1.707-2.699-.126.08 1.66 2.625-2.221.076-.057.119 3.809 5.002-.4.345-.398.366-.385.379-.373.391-.36.403-.346.416-.332.426-.32.438-.104.153-5.151-3.884-.117-.088-.002.146-.037 2.239-2.662-1.666-.079.126 2.739 1.713-.031 1.919-3.693-1.899-.068.132 3.758 1.932-.028 1.717-.03.033-4.539-1.867-.056.137 4.486 1.846-1.2 1.286-3.968-1.253-.044.142 3.899 1.231-1.304 1.396-3.115-.702-.032.145 3.03.682-1.517 1.625.022.064-.022-.064-.098.105.142.02 6.89.933-.026.517-.01.58.021.842.063.83.104.819.138.772-7.117.999.003.003-.035.005-.145.02.102.105 1.557 1.61-3.06.703.033.145 3.148-.724 1.334 1.379-3.954 1.268.045.141 4.024-1.29 1.194 1.234.002.045-4.53 1.888.057.136 4.478-1.866.06 1.759-3.692 1.918.069.132 3.628-1.886.065 1.91-2.7 1.705.08.125 2.626-1.66.075 2.223.064.03-.064-.03.005.143.114-.087 6.162-4.69.296.342.541.568.568.542.594.514.618.486.343.243-4.726 6.237-.086.114.143.005.182.005-.01.014.79.011 1.477.047-1.69 2.714.127.078 1.735-2.786 1.896.06-1.896 3.708.133.068 1.927-3.77 1.748.055-1.859 4.549.138.056 1.84-4.5 1.277 1.23-1.237 3.947.142.044 1.214-3.876 1.392 1.341-.68 3.05.145.032.66-2.96 1.453 1.4.105.1.02-.144v-.007l.01-.061.107.1 1.06-7.969.234.03.83.063.842.022v-.074.074l.841-.022.83-.063.41-.052 1.082 7.902.02.142.104-.098 1.623-1.52.687 3.03.145-.034-.707-3.114 1.394-1.306 1.237 3.898.142-.045-1.259-3.965 1.284-1.203 1.852 4.484.138-.057-1.874-4.535.023-.022.53-.018 1.196-.021 1.938 3.755.132-.068-1.904-3.69 1.918-.034L59 67.236l.126-.08-1.67-2.66 2.24-.039.145-.002-.088-.117-4.726-6.248.26-.184.617-.486.594-.514.568-.542.541-.568.425-.49 6.127 4.583.115.085.004-.143-.06.029.06-.029.057-2.222 2.64 1.637.078-.126-2.714-1.683.05-1.91 3.643 1.856.067-.132-3.707-1.888.045-1.759 4.494 1.83.056-.138-4.546-1.85.001-.027.892-.954.293-.308 4.034 1.257.044-.142-3.964-1.235 1.322-1.39 3.154.698.032-.145-3.066-.678 1.544-1.623.1-.105-.144-.02-7.113-.935.099-.55.104-.819.063-.83.021-.841h-.074.074l-.01-.557-.027-.553-.012-.145 6.937-.991.144-.02-.101-.105-1.562-1.605 3.058-.713-.033-.145-3.146.733-1.338-1.374 3.95-1.28-.046-.141-4.02 1.302-1.197-1.231-.002-.045 4.524-1.9-.057-.137-4.473 1.879-.064-1.758 3.685-1.93-.069-.13-3.623 1.895-.07-1.909L67 32.226l-.08-.125-2.621 1.667-.082-2.222-.064-.03.064.03-.005-.143-.114.087-5.176 3.963-.106-.153-.308-.418-.322-.407-.334-.397-.346-.386-.358-.375-.37-.364-.381-.351-.392-.34-.096-.078 3.802-4.993-.146-.005.04-.054h.001l.088-.117-.146-.002-2.017-.033 1.621-2.564-.125-.08-1.67 2.641-1.933-.031 1.874-3.604-.132-.068-1.908 3.67-1.773-.03 1.87-4.487-.136-.057-1.892 4.535-1.278-1.194 1.294-4.032-.141-.045-1.273 3.965-1.387-1.295.737-3.199-.145-.033-.717 3.115-1.081-1.01-.567-.549-.003.017-.132-.124-.105-.097-.02.142-2.65 19.568a3.639 3.639 0 00-.83.013z" id="Fill-157" fill="#FFF"/></g></g></g></g></g></svg>