<svg width="1682" height="218" xmlns="http://www.w3.org/2000/svg"><g id="Page-1" stroke="none" stroke-width="1" fill="none" fill-rule="evenodd"><g id="Dark" transform="translate(-119 -3462)" fill="#141919" fill-rule="nonzero" stroke="#FFF"><path d="M229.378 3679v-.003c54.794 0 96.802-36.697 104.622-90.759h-57.966c-5.763 22.849-23.707 37.714-46.533 37.714-29.13 0-50.495-23.072-50.495-54.785 0-31.836 21.365-55.245 50.495-55.245 21.65 0 39.424 13.69 46.486 34.776h57.422C325.05 3498.566 283.29 3463 229.378 3463 166.763 3463 120 3509.328 120 3571.17c0 61.502 46.763 107.83 109.378 107.83zM438 3679c51.587 0 89-35.504 89-84.501 0-49.165-37.413-84.499-89-84.499-51.755 0-89 35.334-89 84.499 0 48.997 37.245 84.501 89 84.501zm0-49c-19.8-.003-34-14.488-34-35.501 0-21.014 14.2-35.499 34-35.499s34 14.611 34 35.501c0 21.014-14.2 35.499-34 35.499zm168.707 44v-84.542c0-20.15 9.815-32.027 26.874-32.027 13.768 0 20.712 9.142 20.712 27.568V3674H709v-96.536c0-40.336-24.224-66.464-61.107-66.464-20.539 0-38.171 7.872-49.998 21.006l-7.515-16.324H552V3674h54.707zM847 3674v-47.854h-20.966c-11.525 0-18.38-6.853-18.38-18.213v-50.48h38.465v-42.076h-39.842V3469h-11.222L724 3544.68v12.773h29.028v59.854c0 35.25 21.316 56.693 56.389 56.693H847zm98.196 5c18.428 0 34.882-6.071 47.875-16.607l4.68 11.233H1040v-158.837l-40.732-.003-5.592 12.283c-13.101-10.821-29.793-17.069-48.48-17.069-48.516 0-83.196 35.012-83.196 84.204 0 49.363 34.68 84.796 83.196 84.796zm7.304-48c-20.46 0-35.5-15.414-35.5-36.063 0-20.523 14.916-35.937 35.5-35.937 20.46 0 35.5 15.414 35.5 35.937 0 20.65-15.04 36.063-35.5 36.063zm199.92 48c44.583 0 78.414-29.067 84.58-72.2h-53.583c-4.504 14.181-16.363 23.173-30.996 23.173-18.996 0-32.803-14.948-32.803-35.644 0-20.695 13.64-35.305 32.803-35.305 14.216 0 26.29 8.406 30.875 21.366h53.12c-5.96-42.25-39.33-70.39-83.825-70.39-51.112 0-87.591 35.011-87.591 84.159 0 49.147 36.649 84.835 87.423 84.835l-.002.006zm214.58-5v-47.854h-20.966c-11.525 0-18.38-6.853-18.38-18.213v-50.48h38.465v-42.076h-39.842V3469h-11.222L1244 3544.68v12.773h29.028v59.854c0 35.25 21.316 56.693 56.389 56.693H1367zm179.501 5c52.267 0 89.499-34.183 89.499-84.815V3468h-57.726v125.127c0 20.115-12.913 33.113-31.773 33.113-18.862 0-31.775-12.998-31.775-33.113V3468H1457v126.185c0 50.632 37.232 84.815 89.501 84.815zM1800 3624.169c0-40.222-33.285-45.43-58.317-49.88-15.055-2.687-27.175-4.787-27.175-13.813 0-7.352 5.878-11.687 14.63-11.687 9.889 0 16.691 4.708 16.691 14.835h51.116c-.622-32.138-26.776-53.624-67.13-53.624-40.604 0-67.673 20.525-67.673 52.317 0 38.469 32.575 45.89 57.147 49.877 15.224 2.52 27.221 5.128 27.221 14.277 0 8.198-7.568 12.275-15.553 12.275-10.35 0-18.418-5.34-18.418-16.939H1660c.49 33.81 25.91 56.456 67.865 57.178l2.073.015 2.021-.011c40.986-.686 68.041-22.209 68.041-54.82z" id="ContactUs"/></g></g></svg>