<svg width="190" height="156" viewBox="0 0 190 156" fill="none" xmlns="http://www.w3.org/2000/svg">
<path d="M65.2004 54.4843C65.2004 33.3501 78.2977 14.5972 94.3716 14.5972C110.446 14.5972 123.543 33.6478 123.543 54.4843C123.543 75.3209 110.446 82.7625 94.3716 82.7625C78.2977 82.7625 65.2004 75.6186 65.2004 54.4843Z" stroke="#6D6C9F" stroke-width="3" stroke-miterlimit="10" stroke-linecap="round" stroke-linejoin="round"/>
<path d="M119.673 106.278H69.07C65.498 106.278 62.5214 102.706 62.5214 98.5389C62.5214 93.4786 66.6887 89.9066 70.856 91.0973C86.037 94.9669 103.004 94.9669 118.185 91.0973C122.352 89.9066 126.519 93.4786 126.519 98.5389C126.222 102.706 123.245 106.278 119.673 106.278Z" stroke="#6D6C9F" stroke-width="3" stroke-miterlimit="10" stroke-linecap="round" stroke-linejoin="round"/>
<path d="M126.817 98.5386H128.603C133.366 98.5386 137.235 94.0737 137.235 88.7157V66.6884C137.235 61.3305 141.105 56.8655 145.868 56.8655" stroke="#6D6C9F" stroke-width="3" stroke-miterlimit="10" stroke-linecap="round" stroke-linejoin="round"/>
<path d="M43.1732 56.5679H44.9591C49.7218 56.5679 53.5914 61.0329 53.5914 66.3908V88.4181C53.5914 93.7761 57.4611 98.241 62.2237 98.241" stroke="#6D6C9F" stroke-width="3" stroke-miterlimit="10" stroke-linecap="round" stroke-linejoin="round"/>
<path d="M89.0136 106.278H99.4319V130.092H89.0136V106.278Z" stroke="#6D6C9F" stroke-width="3" stroke-miterlimit="10" stroke-linecap="round" stroke-linejoin="round"/>
<path d="M120.268 143.784H68.4747C64.9027 143.784 62.2237 146.761 62.2237 150.035V154.5H127.115V150.035C126.817 146.463 123.84 143.784 120.268 143.784Z" stroke="#6D6C9F" stroke-width="3" stroke-miterlimit="10" stroke-linecap="round" stroke-linejoin="round"/>
<path d="M102.706 130.091H86.037C83.0603 130.091 80.679 132.473 80.679 135.449V143.486H108.064V135.449C108.064 132.473 105.683 130.091 102.706 130.091Z" stroke="#6D6C9F" stroke-width="3" stroke-miterlimit="10" stroke-linecap="round" stroke-linejoin="round"/>
<path d="M177.42 115.208C167.3 110.743 154.5 118.185 142.296 127.71C148.547 136.64 168.193 133.366 177.42 115.208Z" stroke="#6D6C9F" stroke-width="3" stroke-miterlimit="10" stroke-linecap="round" stroke-linejoin="round"/>
<path d="M187.541 75.321C176.527 75.6187 167.895 88.1207 161.942 101.516C171.467 106.874 186.648 95.86 187.541 75.321Z" stroke="#6D6C9F" stroke-width="3" stroke-miterlimit="10" stroke-linecap="round" stroke-linejoin="round"/>
<path d="M179.802 34.8386C169.979 39.8989 167.3 55.3775 167.597 69.9631C178.611 70.5585 187.839 53.5915 179.802 34.8386Z" stroke="#6D6C9F" stroke-width="3" stroke-miterlimit="10" stroke-linecap="round" stroke-linejoin="round"/>
<path d="M155.095 1.5C148.844 10.43 153.607 25.6109 159.858 38.7082C169.681 34.5409 171.467 14.8949 155.095 1.5Z" stroke="#6D6C9F" stroke-width="3" stroke-miterlimit="10" stroke-linecap="round" stroke-linejoin="round"/>
<path d="M11.323 115.208C21.4436 110.743 34.2432 118.185 46.4475 127.71C40.1965 136.64 20.5506 133.366 11.323 115.208Z" stroke="#6D6C9F" stroke-width="3" stroke-miterlimit="10" stroke-linecap="round" stroke-linejoin="round"/>
<path d="M1.5 75.321C12.5136 75.6187 21.1459 88.1207 27.0992 101.516C17.2763 106.874 2.09533 95.86 1.5 75.321Z" stroke="#6D6C9F" stroke-width="3" stroke-miterlimit="10" stroke-linecap="round" stroke-linejoin="round"/>
<path d="M8.94163 34.8386C18.7646 39.8989 21.4436 55.3775 21.1459 69.9631C10.1323 70.5585 0.904662 53.5915 8.94163 34.8386Z" stroke="#6D6C9F" stroke-width="3" stroke-miterlimit="10" stroke-linecap="round" stroke-linejoin="round"/>
<path d="M33.6478 1.5C39.8988 10.43 35.1362 25.6109 28.8852 38.7082C19.0622 34.5409 17.2763 14.8949 33.6478 1.5Z" stroke="#6D6C9F" stroke-width="3" stroke-miterlimit="10" stroke-linecap="round" stroke-linejoin="round"/>
</svg>
