<svg width="172" height="39" xmlns="http://www.w3.org/2000/svg" xmlns:xlink="http://www.w3.org/1999/xlink"><defs><path id="path-1" d="M.306.208h20.46v25.278H.306z"/><path id="path-3" d="M0 39h171.752V.208H0z"/></defs><g id="Page-1" stroke="none" stroke-width="1" fill="none" fill-rule="evenodd"><g id="Dark" transform="translate(-285 -4449)"><g id="Logo" transform="translate(285 4449)"><path id="Fill-1" fill="#FFF" d="M16.416 0v13.116L6.946 0H1v25h6.584V11.433L17.38 25H23V0z"/><path id="Fill-2" fill="#FFF" d="M28 0v25h17v-5.974h-9.848v-3.742h8.564v-5.65h-8.564v-3.68h9.533V0z"/><path id="Fill-3" fill="#FFF" d="M76.5 0l-4.064 14.42L66.237.124H63.8l-6.09 14.285L53.563 0H46l8.003 25h6.2l4.81-12.067L69.918 25h6.2L84 0z"/><path id="Fill-4" fill="#EE3D45" d="M88 0v25h14v-1.116H89.224V0z"/><path d="M133.839 0L123 25h1.278l3.155-7.24h14.062l3.21 7.24H146L134.87 0h-1.031zm.535 1.697l6.644 14.964H127.9l6.474-14.964z" id="Fill-5" fill="#EE3D45"/><g id="Group-33"><g id="Group-8" transform="translate(150.986)"><mask id="mask-2" fill="#fff"><use xlink:href="#path-1"/></mask><path d="M19.554 12.82c0-6.644-4.921-11.484-11.757-11.484H1.5v23.022h6.297c6.808 0 11.757-4.866 11.757-11.538m1.212 0c0 7.331-5.459 12.666-12.942 12.666H.306V.208h7.518c7.51 0 12.942 5.309 12.942 12.612" id="Fill-6" fill="#EE3D45" mask="url(#mask-2)"/></g><mask id="mask-4" fill="#fff"><use xlink:href="#path-3"/></mask><path id="Fill-9" fill="#879A9D" mask="url(#mask-4)" d="M0 38.888h1.471V31.04H0z"/><path id="Fill-11" fill="#879A9D" mask="url(#mask-4)" d="M12.006 31.041v7.847h-1.21l-4.369-5.313v5.313h-1.46V31.04h1.211l4.369 5.313V31.04z"/><path id="Fill-12" fill="#879A9D" mask="url(#mask-4)" d="M17.098 32.274h-2.625v-1.233h6.721v1.233H18.57v6.614h-1.472z"/><path id="Fill-13" fill="#879A9D" mask="url(#mask-4)" d="M29.602 37.666v1.222h-5.94v-7.847h5.782v1.222h-4.311v2.04h3.824v1.2h-3.824v2.163z"/><path d="M37.976 34.875h1.392v3.127a4.437 4.437 0 01-1.426.74 5.52 5.52 0 01-1.675.258c-.807 0-1.535-.174-2.183-.521a3.888 3.888 0 01-1.528-1.44c-.37-.614-.555-1.305-.555-2.074 0-.77.185-1.461.555-2.074a3.89 3.89 0 011.533-1.44c.653-.348 1.386-.522 2.201-.522.664 0 1.268.109 1.81.325.544.217 1 .535 1.37.953l-.928.897a2.993 2.993 0 00-2.184-.897c-.558 0-1.054.116-1.488.348a2.554 2.554 0 00-1.019.975 2.784 2.784 0 00-.367 1.435c0 .523.122.994.367 1.412.246.418.585.747 1.019.986a3 3 0 001.477.36c.618 0 1.161-.136 1.63-.404v-2.444z" id="Fill-14" fill="#879A9D" mask="url(#mask-4)"/><path d="M47.312 32.678c-.332-.27-.82-.404-1.46-.404h-1.72v3.128h1.72c.64 0 1.128-.137 1.46-.41.331-.272.498-.659.498-1.16 0-.5-.167-.885-.498-1.154zm.532 6.21l-1.619-2.298c-.067.008-.17.011-.305.011h-1.788v2.287h-1.471V31.04h3.259c.686 0 1.285.113 1.794.336.509.225.9.546 1.17.965.272.418.408.915.408 1.49 0 .59-.145 1.099-.435 1.525-.291.426-.708.744-1.251.953l1.822 2.578h-1.584z" id="Fill-15" fill="#879A9D" mask="url(#mask-4)"/><path d="M56.942 35.929l-1.494-3.43-1.483 3.43h2.977zm.485 1.143h-3.96l-.78 1.816H51.17l3.565-7.847h1.449l3.575 7.847H58.22l-.793-1.816z" id="Fill-16" fill="#879A9D" mask="url(#mask-4)"/><path id="Fill-17" fill="#879A9D" mask="url(#mask-4)" d="M63.335 32.274H60.71v-1.233h6.721v1.233h-2.625v6.614h-1.47z"/><path id="Fill-18" fill="#879A9D" mask="url(#mask-4)" d="M75.84 37.666v1.222h-5.942v-7.847h5.783v1.222H71.37v2.04h3.824v1.2H71.37v2.163z"/><path d="M82.232 37.655c.581 0 1.092-.11 1.534-.331a2.38 2.38 0 001.018-.941c.238-.408.357-.88.357-1.418 0-.538-.119-1.01-.357-1.418a2.376 2.376 0 00-1.018-.942c-.442-.22-.953-.33-1.534-.33H80.31v5.38h1.923zm-3.394-6.614H82.3c.845 0 1.596.163 2.252.488a3.63 3.63 0 011.528 1.379c.362.594.543 1.28.543 2.057 0 .777-.18 1.462-.543 2.056a3.63 3.63 0 01-1.528 1.38c-.656.324-1.407.487-2.252.487h-3.462V31.04z" id="Fill-19" fill="#879A9D" mask="url(#mask-4)"/><path d="M94.709 38.742c-.57-.172-1.021-.4-1.353-.683l.51-1.133c.324.255.722.462 1.193.622.472.161.945.241 1.42.241.589 0 1.028-.093 1.318-.28.291-.187.437-.433.437-.74a.714.714 0 00-.244-.554 1.71 1.71 0 00-.617-.342 13.603 13.603 0 00-1.018-.28 11.938 11.938 0 01-1.466-.426 2.414 2.414 0 01-.962-.668c-.267-.302-.401-.711-.401-1.227 0-.433.119-.827.356-1.183.238-.354.596-.637 1.075-.846.48-.209 1.066-.314 1.76-.314.483 0 .958.06 1.426.18.467.12.871.29 1.21.515l-.463 1.133a4.594 4.594 0 00-1.087-.46 4.107 4.107 0 00-1.097-.157c-.581 0-1.013.097-1.296.291-.283.195-.425.453-.425.774 0 .224.081.407.244.549.162.142.368.254.617.336.248.083.588.176 1.018.28a10.88 10.88 0 011.449.421c.377.146.7.368.967.667.268.299.402.702.402 1.21 0 .434-.12.826-.357 1.177-.237.352-.598.632-1.08.841-.484.209-1.072.314-1.765.314a6.09 6.09 0 01-1.771-.258" id="Fill-20" fill="#879A9D" mask="url(#mask-4)"/><path d="M107.625 37.37c.422-.236.755-.565.996-.987a2.81 2.81 0 00.362-1.418c0-.524-.12-.996-.362-1.418a2.57 2.57 0 00-.996-.987 2.883 2.883 0 00-1.425-.353 2.88 2.88 0 00-1.426.353 2.564 2.564 0 00-.996.987 2.803 2.803 0 00-.362 1.418c0 .523.12.996.362 1.418.241.422.573.75.996.986a2.88 2.88 0 001.426.353c.527 0 1.003-.118 1.425-.353m-3.61 1.11a3.873 3.873 0 01-1.527-1.446 3.941 3.941 0 01-.555-2.068c0-.763.185-1.452.555-2.069a3.875 3.875 0 011.528-1.445c.648-.348 1.376-.522 2.184-.522.807 0 1.535.174 2.183.522.65.347 1.159.828 1.528 1.44.37.613.555 1.304.555 2.074 0 .77-.185 1.46-.555 2.073a3.884 3.884 0 01-1.528 1.44c-.648.349-1.376.522-2.183.522-.808 0-1.536-.173-2.184-.521" id="Fill-21" fill="#879A9D" mask="url(#mask-4)"/><path id="Fill-22" fill="#879A9D" mask="url(#mask-4)" d="M113.385 31.041h1.471v6.614h4.142v1.233h-5.613z"/><path d="M122.256 38.086c-.61-.608-.915-1.481-.915-2.617v-4.427h1.47v4.37c0 1.54.672 2.31 2.015 2.31 1.335 0 2.002-.77 2.002-2.31v-4.37h1.45v4.427c0 1.136-.305 2.009-.912 2.617-.608.61-1.458.914-2.552.914s-1.946-.304-2.558-.914" id="Fill-23" fill="#879A9D" mask="url(#mask-4)"/><path id="Fill-24" fill="#879A9D" mask="url(#mask-4)" d="M133.154 32.274h-2.625v-1.233h6.722v1.233h-2.625v6.614h-1.472z"/><path id="Fill-25" fill="#879A9D" mask="url(#mask-4)" d="M139.717 38.888h1.471V31.04h-1.471z"/><path d="M149.811 37.37c.422-.236.755-.565.996-.987a2.81 2.81 0 00.362-1.418c0-.524-.12-.996-.362-1.418a2.57 2.57 0 00-.996-.987 2.883 2.883 0 00-1.425-.353 2.88 2.88 0 00-1.426.353 2.564 2.564 0 00-.996.987 2.803 2.803 0 00-.363 1.418c0 .523.121.996.363 1.418.241.422.573.75.996.986a2.88 2.88 0 001.426.353c.527 0 1.002-.118 1.425-.353m-3.61 1.11a3.873 3.873 0 01-1.527-1.446 3.945 3.945 0 01-.555-2.068c0-.763.185-1.452.555-2.069a3.875 3.875 0 011.528-1.445c.648-.348 1.376-.522 2.184-.522.806 0 1.534.174 2.183.522a3.89 3.89 0 011.528 1.44c.37.613.555 1.304.555 2.074 0 .77-.185 1.46-.555 2.073a3.884 3.884 0 01-1.528 1.44c-.649.349-1.377.522-2.183.522-.808 0-1.536-.173-2.184-.521" id="Fill-26" fill="#879A9D" mask="url(#mask-4)"/><path id="Fill-27" fill="#879A9D" mask="url(#mask-4)" d="M162.61 31.041v7.847h-1.212l-4.367-5.313v5.313h-1.46V31.04h1.21l4.369 5.313V31.04z"/><path d="M166.78 38.742c-.57-.172-1.021-.4-1.353-.683l.51-1.133c.324.255.722.462 1.193.622.471.161.945.241 1.42.241.589 0 1.028-.093 1.318-.28.291-.187.437-.433.437-.74a.714.714 0 00-.244-.554 1.711 1.711 0 00-.616-.342c-.25-.083-.59-.176-1.02-.28a11.958 11.958 0 01-1.465-.426 2.419 2.419 0 01-.962-.668c-.267-.302-.401-.711-.401-1.227 0-.433.119-.827.357-1.183.237-.354.595-.637 1.074-.846.479-.209 1.066-.314 1.76-.314.483 0 .958.06 1.426.18.467.12.871.29 1.21.515l-.463 1.133a4.598 4.598 0 00-1.086-.46 4.111 4.111 0 00-1.098-.157c-.581 0-1.013.097-1.296.291-.283.195-.424.453-.424.774 0 .224.08.407.243.549.162.142.368.254.617.336.249.083.588.176 1.018.28.589.135 1.071.275 1.449.421.377.146.7.368.967.667.268.299.402.702.402 1.21 0 .434-.12.826-.357 1.177-.237.352-.598.632-1.08.841-.483.209-1.072.314-1.766.314a6.09 6.09 0 01-1.77-.258" id="Fill-28" fill="#879A9D" mask="url(#mask-4)"/><path id="Fill-29" fill="#EE3D45" mask="url(#mask-4)" d="M107.936 1.346h12.531V.208h-13.725v1.138z"/><path id="Fill-30" fill="#EE3D45" mask="url(#mask-4)" d="M112.988 24.34h-6.247v1.146h14.127V24.34z"/><path d="M100.606 13.157s3.827-1.925 9.193-2.405c15.817-1.414 10.215 8.934 7.892 10.294.146-3.601-6.791-8.186-17.085-7.89" id="Fill-31" fill="#EE3B44" opacity=".357" mask="url(#mask-4)"/><path d="M99.682 13.938s3.113-3.167 8.233-5.425c15.088-6.653 13.083 5.395 11.257 7.507-1.077-3.594-9.46-5.799-19.49-2.082" id="Fill-32" fill="#EE3C45" mask="url(#mask-4)"/></g></g></g></g></svg>