<svg width="224" height="26" viewBox="0 0 224 26" fill="none" xmlns="http://www.w3.org/2000/svg">
<path d="M145 6C145 2.68625 148.061 0 151.838 0H165C165 3.31374 161.939 6 158.162 6H145Z" fill="#6D6C9F"/>
<path d="M144.347 16H139C139 12.6863 141.754 10 145.151 10H161C161 13.3137 158.246 16 154.849 16H144.347Z" fill="#6D6C9F"/>
<path d="M197 26V0H209.378C212.27 0 214.813 0.532382 217.007 1.59714C219.201 2.66191 220.909 4.16 222.13 6.09143C223.377 8.02286 224 10.3257 224 13C224 15.6495 223.377 17.9524 222.13 19.9086C220.909 21.84 219.201 23.3381 217.007 24.4029C214.813 25.4676 212.27 26 209.378 26H197ZM204.404 20.1314H209.079C210.575 20.1314 211.871 19.859 212.968 19.3143C214.09 18.7448 214.963 17.9276 215.586 16.8629C216.209 15.7733 216.521 14.4857 216.521 13C216.521 11.4895 216.209 10.2019 215.586 9.13714C214.963 8.07238 214.09 7.26762 212.968 6.72286C211.871 6.15333 210.575 5.86857 209.079 5.86857H204.404V20.1314Z" fill="#6D6C9F"/>
<path d="M161 26L172.388 0H179.575L191 26H183.408L174.489 3.60286H177.364L168.445 26H161ZM167.229 20.9486L169.108 15.5257H181.713L183.592 20.9486H167.229Z" fill="#6D6C9F"/>
<path d="M109 26V0H116.444V20.1686H129V26H109Z" fill="#6D6C9F"/>
<path d="M68.4731 26L60 0H67.6146L74.7439 22.5086H70.8993L78.4019 0H85.1953L92.2873 22.5086H88.592L95.9453 0H103L94.5269 26H86.6137L80.5668 6.87143H82.6944L76.3863 26H68.4731Z" fill="white"/>
<path d="M40.8007 10.0657H52.9448V15.5629H40.8007V10.0657ZM41.3238 20.3171H55V26H34V0H54.5142V5.68286H41.3238V20.3171Z" fill="white"/>
<path d="M0 26V0H6.11862L20.6081 17.3086H17.7177V0H25V26H18.8814L4.39189 8.69143H7.28228V26H0Z" fill="white"/>
<path d="M134 26C134 22.6863 136.933 20 140.551 20H156C156 23.3137 153.067 26 149.449 26H134Z" fill="#6D6C9F"/>
</svg>
