<svg width="20" height="20" xmlns="http://www.w3.org/2000/svg"><g id="Page-1" stroke="none" stroke-width="1" fill="none" fill-rule="evenodd" stroke-linecap="round" stroke-linejoin="round"><g id="Dark" transform="translate(-1138 -3953)" stroke="#EE3C45" stroke-width="1.5"><g id="Group-7" transform="translate(1139 3951)"><g id="Linkedin" transform="translate(0 3)"><path d="M4.5 0h9.004A4.496 4.496 0 0118 4.496v9.009A4.496 4.496 0 0113.504 18H4.496A4.496 4.496 0 010 13.504V4.5A4.5 4.5 0 014.5 0h0zm.62 8.1v5.4" id="Path"/><g id="Group" transform="translate(4 4)"><path d="M4.719 9.5V6.35a2.25 2.25 0 012.25-2.25h0a2.25 2.25 0 012.25 2.25V9.5M1.118.838a.225.225 0 10.003.45.225.225 0 00-.003-.45" id="Path"/></g></g></g></g></g></svg>