<svg width="264" height="60" xmlns="http://www.w3.org/2000/svg" xmlns:xlink="http://www.w3.org/1999/xlink"><defs><path id="path-1" d="M.47.32h31.404v38.89H.469z"/><path id="path-3" d="M0 60h263.62V.32H0z"/></defs><g id="Page-1" stroke="none" stroke-width="1" fill="none" fill-rule="evenodd"><g id="Dark" transform="translate(-285 -36)"><g id="Logo" transform="translate(285 36)"><path id="Fill-1" fill="#FFF" d="M24.825 0v20.461L10.19 0H1v39h10.175V17.835L26.316 39H35V0z"/><path id="Fill-2" fill="#FFF" d="M43 0v39h26v-9.32H53.938v-5.838h13.098V15.03H53.938V9.287h14.58V0z"/><path id="Fill-3" fill="#FFF" d="M117.553 0l-6.203 22.495L101.888.193h-3.72l-9.295 22.285L82.543 0H71l12.216 39h9.463l7.341-18.824L107.506 39h9.462L129 0z"/><path id="Fill-4" fill="#EE3D45" d="M136 0v39h21v-1.741h-19.165V0z"/><path d="M205.494 0L189 39h1.944l4.802-11.296h21.398L222.028 39H224L207.062 0h-1.568zm.814 2.647l10.11 23.344h-19.96l9.85-23.344z" id="Fill-5" fill="#EE3D45"/><g id="Group-33"><g id="Group-8" transform="translate(231.746)"><mask id="mask-2" fill="#fff"><use xlink:href="#path-1"/></mask><path d="M30.013 19.723c0-10.222-7.553-17.667-18.046-17.667H2.302v35.418h9.665c10.45 0 18.046-7.487 18.046-17.75m1.86 0c0 11.278-8.378 19.486-19.864 19.486H.47V.32h11.54c11.527 0 19.865 8.167 19.865 19.403" id="Fill-6" fill="#EE3D45" mask="url(#mask-2)"/></g><mask id="mask-4" fill="#fff"><use xlink:href="#path-3"/></mask><path id="Fill-9" fill="#879A9D" mask="url(#mask-4)" d="M0 59.828h2.258V47.756H0z"/><path id="Fill-11" fill="#879A9D" mask="url(#mask-4)" d="M18.428 47.756v12.072H16.57l-6.705-8.174v8.174h-2.24V47.756h1.858l6.705 8.174v-8.174z"/><path id="Fill-12" fill="#879A9D" mask="url(#mask-4)" d="M26.244 49.653h-4.03v-1.897h10.317v1.897h-4.029v10.175h-2.258z"/><path id="Fill-13" fill="#879A9D" mask="url(#mask-4)" d="M45.436 57.948v1.88h-9.119V47.756h8.875v1.88h-6.616v3.139h5.87v1.845h-5.87v3.328z"/><path d="M58.289 53.654h2.137v4.811a6.804 6.804 0 01-2.19 1.138 8.454 8.454 0 01-2.57.397c-1.239 0-2.356-.267-3.351-.802a5.974 5.974 0 01-2.345-2.216c-.568-.943-.852-2.006-.852-3.19 0-1.184.284-2.248.852-3.19a5.977 5.977 0 012.353-2.217c1.001-.534 2.127-.801 3.379-.801 1.017 0 1.944.166 2.778.499a5.466 5.466 0 012.102 1.466l-1.425 1.38c-.926-.92-2.043-1.38-3.352-1.38-.857 0-1.618.179-2.284.535a3.925 3.925 0 00-1.563 1.5c-.377.644-.564 1.38-.564 2.208 0 .805.187 1.529.564 2.173.376.643.897 1.15 1.563 1.517.666.368 1.421.552 2.267.552.95 0 1.783-.207 2.5-.62v-3.76z" id="Fill-14" fill="#879A9D" mask="url(#mask-4)"/><path d="M72.618 50.274c-.51-.414-1.257-.621-2.24-.621h-2.64v4.811h2.64c.983 0 1.73-.21 2.24-.629.51-.42.764-1.015.764-1.785s-.255-1.362-.764-1.776zm.817 9.553l-2.485-3.534c-.103.011-.26.017-.468.017h-2.744v3.517h-2.259V47.756h5.003c1.053 0 1.972.173 2.753.517.782.345 1.38.84 1.797 1.484.417.643.626 1.408.626 2.293 0 .908-.223 1.69-.669 2.345-.446.656-1.086 1.144-1.92 1.466l2.797 3.966h-2.431z" id="Fill-15" fill="#879A9D" mask="url(#mask-4)"/><path d="M87.399 55.275l-2.293-5.277-2.275 5.277h4.568zm.745 1.759h-6.077l-1.2 2.794H78.54l5.472-12.072h2.223l5.488 12.072h-2.362l-1.217-2.794z" id="Fill-16" fill="#879A9D" mask="url(#mask-4)"/><path id="Fill-17" fill="#879A9D" mask="url(#mask-4)" d="M97.212 49.653h-4.03v-1.897H103.5v1.897h-4.03v10.175h-2.258z"/><path id="Fill-18" fill="#879A9D" mask="url(#mask-4)" d="M116.404 57.948v1.88h-9.118V47.756h8.875v1.88h-6.617v3.139h5.87v1.845h-5.87v3.328z"/><path d="M126.217 57.93c.892 0 1.676-.17 2.353-.508a3.646 3.646 0 001.564-1.449c.365-.626.547-1.353.547-2.181 0-.828-.182-1.555-.547-2.182a3.65 3.65 0 00-1.564-1.448c-.677-.34-1.461-.509-2.353-.509h-2.953v8.278h2.953zm-5.21-10.174h5.315c1.296 0 2.448.25 3.455.75 1.008.5 1.79 1.207 2.345 2.121.557.915.834 1.97.834 3.165 0 1.196-.277 2.25-.834 3.164-.555.914-1.337 1.621-2.345 2.122-1.007.5-2.159.75-3.455.75h-5.315V47.755z" id="Fill-19" fill="#879A9D" mask="url(#mask-4)"/><path d="M145.367 59.603c-.875-.264-1.567-.614-2.076-1.051l.782-1.742c.497.39 1.108.71 1.832.956.723.248 1.45.372 2.18.372.903 0 1.577-.144 2.022-.432.447-.287.67-.667.67-1.137a1.1 1.1 0 00-.373-.854 2.62 2.62 0 00-.947-.526c-.382-.127-.903-.27-1.563-.431-.927-.219-1.677-.437-2.25-.656a3.705 3.705 0 01-1.476-1.026c-.411-.465-.617-1.095-.617-1.889 0-.665.182-1.272.547-1.819.365-.546.914-.98 1.65-1.302.735-.321 1.636-.483 2.701-.483.742 0 1.471.093 2.189.276.717.185 1.337.448 1.858.793l-.712 1.743a7.042 7.042 0 00-1.667-.708 6.29 6.29 0 00-1.685-.241c-.891 0-1.554.15-1.989.448-.434.3-.651.696-.651 1.19 0 .345.124.627.373.845.25.219.565.391.947.517.382.127.903.271 1.563.432.903.207 1.644.422 2.224.647a3.815 3.815 0 011.484 1.025c.41.46.617 1.082.617 1.863a3.16 3.16 0 01-.548 1.81c-.364.541-.917.972-1.658 1.294-.742.322-1.645.483-2.709.483a9.329 9.329 0 01-2.718-.397" id="Fill-20" fill="#879A9D" mask="url(#mask-4)"/><path d="M165.193 57.491a3.947 3.947 0 001.528-1.518c.37-.649.556-1.377.556-2.181 0-.805-.186-1.532-.556-2.182a3.948 3.948 0 00-1.528-1.518c-.65-.361-1.38-.543-2.188-.543-.812 0-1.54.182-2.19.543a3.94 3.94 0 00-1.528 1.518c-.37.65-.556 1.377-.556 2.182 0 .804.186 1.532.556 2.181.37.65.88 1.156 1.529 1.518.648.362 1.377.543 2.189.543.809 0 1.539-.181 2.188-.543m-5.54 1.707a5.95 5.95 0 01-2.346-2.224c-.568-.949-.852-2.01-.852-3.182 0-1.173.284-2.234.852-3.182a5.953 5.953 0 012.345-2.224c.995-.535 2.113-.803 3.353-.803 1.238 0 2.355.268 3.35.803A5.978 5.978 0 01168.7 50.6c.568.944.852 2.007.852 3.19 0 1.185-.284 2.248-.852 3.19a5.968 5.968 0 01-2.345 2.217c-.995.535-2.112.802-3.35.802-1.24 0-2.358-.267-3.353-.802" id="Fill-21" fill="#879A9D" mask="url(#mask-4)"/><path id="Fill-22" fill="#879A9D" mask="url(#mask-4)" d="M174.033 47.756h2.258V57.93h6.357v1.897h-8.615z"/><path d="M187.65 58.595c-.938-.937-1.406-2.28-1.406-4.027v-6.812h2.257v6.725c0 2.37 1.03 3.553 3.092 3.553 2.049 0 3.074-1.183 3.074-3.553v-6.725h2.223v6.812c0 1.747-.467 3.09-1.398 4.027-.933.937-2.238 1.405-3.917 1.405-1.679 0-2.987-.468-3.926-1.405" id="Fill-23" fill="#879A9D" mask="url(#mask-4)"/><path id="Fill-24" fill="#879A9D" mask="url(#mask-4)" d="M204.377 49.653h-4.03v-1.897h10.317v1.897h-4.03v10.175h-2.257z"/><path id="Fill-25" fill="#879A9D" mask="url(#mask-4)" d="M214.45 59.828h2.258V47.756h-2.259z"/><path d="M229.943 57.491a3.947 3.947 0 001.528-1.518c.37-.649.556-1.377.556-2.181 0-.805-.185-1.532-.556-2.182a3.948 3.948 0 00-1.528-1.518c-.65-.361-1.379-.543-2.188-.543-.812 0-1.54.182-2.19.543a3.94 3.94 0 00-1.527 1.518c-.371.65-.557 1.377-.557 2.182 0 .804.186 1.532.557 2.181.37.65.879 1.156 1.528 1.518.648.362 1.377.543 2.189.543.809 0 1.539-.181 2.188-.543m-5.54 1.707a5.95 5.95 0 01-2.346-2.224c-.567-.949-.851-2.01-.851-3.182 0-1.173.284-2.234.851-3.182a5.953 5.953 0 012.345-2.224c.996-.535 2.113-.803 3.353-.803 1.238 0 2.355.268 3.35.803a5.978 5.978 0 012.346 2.215c.567.944.851 2.007.851 3.19 0 1.185-.284 2.248-.851 3.19a5.968 5.968 0 01-2.345 2.217c-.996.535-2.113.802-3.351.802-1.24 0-2.357-.267-3.353-.802" id="Fill-26" fill="#879A9D" mask="url(#mask-4)"/><path id="Fill-27" fill="#879A9D" mask="url(#mask-4)" d="M249.587 47.756v12.072h-1.86l-6.703-8.174v8.174h-2.241V47.756h1.859l6.704 8.174v-8.174z"/><path d="M255.987 59.603c-.875-.264-1.567-.614-2.076-1.051l.782-1.742c.498.39 1.109.71 1.832.956.724.248 1.45.372 2.18.372.903 0 1.577-.144 2.023-.432.447-.287.67-.667.67-1.137a1.1 1.1 0 00-.374-.854c-.25-.225-.565-.4-.946-.526a20.95 20.95 0 00-1.564-.431c-.926-.219-1.676-.437-2.25-.656a3.713 3.713 0 01-1.476-1.026c-.41-.465-.616-1.095-.616-1.889 0-.665.182-1.272.547-1.819.364-.546.914-.98 1.65-1.302.735-.321 1.635-.483 2.7-.483.742 0 1.472.093 2.19.276.717.185 1.337.448 1.858.793l-.712 1.743a7.048 7.048 0 00-1.667-.708 6.297 6.297 0 00-1.685-.241c-.892 0-1.555.15-1.99.448-.433.3-.65.696-.65 1.19 0 .345.124.627.373.845.25.219.564.391.947.517.382.127.903.271 1.563.432.903.207 1.644.422 2.223.647a3.815 3.815 0 011.485 1.025c.41.46.616 1.082.616 1.863 0 .667-.182 1.27-.547 1.81-.365.541-.918.972-1.658 1.294-.742.322-1.645.483-2.71.483a9.329 9.329 0 01-2.718-.397" id="Fill-28" fill="#879A9D" mask="url(#mask-4)"/><path id="Fill-29" fill="#EE3D45" mask="url(#mask-4)" d="M165.669 2.07h19.234V.32h-21.067v1.75z"/><path id="Fill-30" fill="#EE3D45" mask="url(#mask-4)" d="M173.424 37.446h-9.588v1.764h21.683v-1.764z"/><path d="M154.418 20.241s5.874-2.96 14.11-3.699c24.277-2.175 15.68 13.744 12.114 15.836.224-5.54-10.424-12.593-26.224-12.137" id="Fill-31" fill="#EE3B44" opacity=".357" mask="url(#mask-4)"/><path d="M153 21.443s4.779-4.873 12.637-8.346c23.159-10.236 20.08 8.3 17.278 11.548-1.652-5.528-14.52-8.92-29.915-3.202" id="Fill-32" fill="#EE3C45" mask="url(#mask-4)"/></g></g></g></g></svg>