<?xml version="1.0" encoding="utf-8"?>
<!-- Generator: Adobe Illustrator 22.1.0, SVG Export Plug-In . SVG Version: 6.00 Build 0)  -->
<svg version="1.1" id="Слой_1" xmlns="http://www.w3.org/2000/svg" xmlns:xlink="http://www.w3.org/1999/xlink" x="0px" y="0px"
	 width="164px" height="67px" viewBox="0 0 164 67" style="enable-background:new 0 0 164 67;" xml:space="preserve">
<style type="text/css">
	.st0{fill:#FFFFFF;}
</style>
<title>7DBBD24F-E519-4A63-91A6-85D95A9474E9</title>
<desc>Created with sketchtool.</desc>
<g id="Page-1">
	<g id="Dark" transform="translate(-530.000000, -3225.000000)">
		<g id="Group-4" transform="translate(285.000000, 3213.000000)">
			<g id="logo-McKee-1" transform="translate(245.000000, 12.000000)">
				<rect id="Rectangle" x="56.3" class="st0" width="7.9" height="7.9"/>
				<polygon id="Path" class="st0" points="11.9,47.8 16.4,46.6 17.5,19.7 12.4,18.5 12.4,17.7 21.7,17.7 33,42.1 43.1,17.7 
					52.6,17.7 52.6,18.5 47.7,19.7 49,46.6 53.3,47.8 53.3,48.6 39.4,48.6 39.4,47.8 45.2,46.6 44,20.7 43.9,20.7 32,49.3 
					31.8,49.3 19.2,21.2 19.1,21.2 19.1,46.6 25.2,47.8 25.2,48.6 11.9,48.6 				"/>
				<path id="Path_1_" class="st0" d="M70.7,40.5c-1.1,0.5-3.6,1.8-7.2,1.8c-6.7,0-10.1-4.2-10.1-9.9c0-6.6,4.3-10.8,10.5-10.8
					c2.8,0,5.3,1,6.6,1.8v4.6h-0.6c-0.3-1.7-0.9-5.4-5.7-5.4c-5.1,0-8.1,3.9-8.1,9.7c0,5.1,2.9,9,7.6,9c5.5,0,5.9-3.6,6.8-6.3h0.6
					L70.7,40.5z"/>
				<polygon id="Path_2_" class="st0" points="73.1,48.5 78.3,47.3 78.3,19.7 73.1,18.5 73.1,17.7 86.6,17.7 86.6,18.5 82.1,19.7 
					82.1,34.6 94.8,19.7 90.4,18.5 90.4,17.7 103.2,17.7 103.2,18.5 98.2,19.7 87.6,30.6 102.6,47.2 106.7,48.5 106.7,49.3 
					92.7,49.3 92.7,48.5 97.8,47.3 85.1,33.2 82.1,36.2 82.1,47.2 86.6,48.5 86.6,49.3 73.1,49.3 				"/>
				<path id="Path_3_" class="st0" d="M105.7,47.6l4.4-1V23.4l-4.4-1v-0.7h21.1v7.6h-0.8c-0.8-5-1.5-6-4.9-6h-7.8v10.5l6.6-0.2
					l1-4.2h0.7v9.9h-0.7l-1-4.2l-6.6-0.2v11.7h8.9c3.5,0,4.3-0.3,5.4-8h0.8v9.7h-22.7V47.6z"/>
				<path id="Path_4_" class="st0" d="M129.4,47.6l4.4-1V23.4l-4.4-1v-0.7h21.1v7.6h-0.8c-0.8-5-1.5-6-4.8-6h-7.8v10.5l6.6-0.2
					l1-4.2h0.7v9.9h-0.7l-1-4.2l-6.6-0.2v11.7h8.9c3.5,0,4.3-0.3,5.4-8h0.8v9.7h-22.7L129.4,47.6z"/>
				<rect id="Rectangle_1_" x="62.2" y="45.3" class="st0" width="3" height="3"/>
				<path id="Shape" class="st0" d="M3.3,61c0.2,0,0.5,0,0.6,0c1.8,0,4.4,0.3,4.4,2.8c0,1.6-1.2,2.6-3.4,2.6c-0.6,0-1.1-0.1-1.7-0.2
					V61z M3.3,55.9c0.5-0.1,1-0.1,1.5-0.1c1.6,0,2.9,0.4,2.9,2.1c0,2.3-2,2.8-4.4,2.8V55.9z M0,67h5c3,0,4.9-1.2,4.9-3.3
					c0-2.5-2.6-2.9-3.7-3v0c1-0.2,3-1,3-2.8c0-2.1-1.7-2.7-3.5-2.7H0v0.3l1.9,0.5v10.3L0,66.7V67z"/>
				<path id="Shape_1_" class="st0" d="M12.3,61.6c0-2.9,1.4-4.9,4-4.9s4,1.9,4,4.9c0,2.8-1.3,4.9-4,4.9
					C13.8,66.5,12.3,64.5,12.3,61.6z M16.1,67c3.5,0,5.6-2.1,5.6-5.6c0-3.3-2-5.3-5.2-5.3c-3.5,0-5.7,2.1-5.7,5.5
					C10.9,64.9,12.7,67,16.1,67L16.1,67z"/>
				<path id="Path_5_" class="st0" d="M25.1,66.7l1.9-0.4v-8.7h-2.2c-1.3,0-1.5,0.4-1.8,2.5h-0.3v-3h9.9v3h-0.3
					c-0.3-2-0.6-2.5-1.8-2.5h-2.2v8.7l1.9,0.4V67h-5V66.7z"/>
				<path id="Shape_2_" class="st0" d="M37.6,58.1l1.6,3.8h-3.4L37.6,58.1z M33.2,65.4l-1.6,0.4V66h4.2v-0.2l-1.7-0.4l1.4-3h3.8
					l1.3,3l-1.9,0.4V66h4.8v-0.2L42,65.4l-3.9-9.2h-0.1L33.2,65.4z"/>
				<polygon id="Path_6_" class="st0" points="43.5,66.5 45.2,66.2 45.2,57.8 43.5,57.4 43.5,57.1 46.6,57.1 53.2,64.5 53.3,64.5 
					53,57.8 50.7,57.4 50.7,57.1 55.3,57.1 55.3,57.4 53.9,57.8 53.8,67 53.7,67 45.8,58.1 45.8,58.1 46.1,66.2 48.2,66.5 
					48.2,66.8 43.5,66.8 				"/>
				<polygon id="Path_7_" class="st0" points="56.3,66.7 58.1,66.4 58.1,57.8 56.3,57.4 56.3,57.1 61.3,57.1 61.3,57.4 59.4,57.8 
					59.4,66.4 61.3,66.7 61.3,67 56.3,67 				"/>
				<path id="Path_8_" class="st0" d="M70.9,66c-0.6,0.3-1.8,1-3.6,1c-3.3,0-5.1-2.2-5.1-5.2c0-3.4,2.2-5.7,5.3-5.7
					c1.2,0,2.3,0.3,3.3,0.9v2.4h-0.3c-0.2-0.9-0.4-2.8-2.8-2.8c-2.6,0-4,2.1-4,5.1c0,2.7,1.4,4.7,3.8,4.7c2.7,0,3-1.9,3.4-3.3h0.3
					L70.9,66z"/>
				<path id="Shape_3_" class="st0" d="M77.1,58.1l1.6,3.8h-3.4L77.1,58.1z M72.7,65.4l-1.6,0.4V66h4.2v-0.2l-1.7-0.4l1.4-3h3.8
					l1.3,3l-1.9,0.4V66H83v-0.2l-1.5-0.4l-3.9-9.2h-0.1L72.7,65.4z"/>
				<path id="Path_9_" class="st0" d="M83,66.7l1.8-0.3v-8.6L83,57.4v-0.3h5v0.3l-1.9,0.4v8.6h3.2c1.6,0,1.9-0.8,2.3-2.9h0.3V67H83
					V66.7z"/>
				<path id="Path_10_" class="st0" d="M110,65c0,0.2,0.1,0.3,0.2,0.5c-1,0.6-3.1,1.5-5.3,1.5c-4,0-6.1-2.6-6.1-6.1
					c0-4.1,2.7-6.7,6.6-6.7c1.7,0,3.6,0.7,4.3,1.1v2.9h-0.4c-0.2-1.1-0.7-3.3-3.7-3.3c-3.3,0-5.2,2.4-5.2,6c0,3.2,1.7,5.6,4.5,5.6
					c1.9,0,2.9-0.7,3.4-1.2v-3.3l-2.4-0.5v-0.3h5.5v0.3l-1.6,0.5L110,65z"/>
				<path id="Shape_4_" class="st0" d="M115.6,58.1l1.6,3.8h-3.4L115.6,58.1z M111.2,65.4l-1.6,0.4V66h4.2v-0.2l-1.7-0.4l1.4-3h3.8
					l1.3,3l-1.9,0.4V66h4.8v-0.2l-1.5-0.4l-3.9-9.2h0L111.2,65.4z"/>
				<path id="Shape_5_" class="st0" d="M124.3,57.7c0.4-0.1,0.8-0.1,1.2-0.1c1.4,0,2.4,0.4,2.4,1.9c0,2.4-2.2,2.4-3.6,2.5V57.7z
					 M121.5,67h4.2v-0.3l-1.4-0.4v-4l1.4,0.1l2.3,3c0.9,1.2,1.4,1.4,3.4,1.6v-0.3c-0.5-0.1-1.1-0.3-2-1.4l-2.6-3.3
					c0.9-0.2,2.4-0.8,2.4-2.6c0-1.4-0.9-2.3-3.3-2.3h-4.3v0.3l1.6,0.4v8.6l-1.6,0.4V67z"/>
				<path id="Shape_6_" class="st0" d="M134.3,57.7c0.6-0.1,1.1-0.1,1.7-0.1c3,0,4.8,1.4,4.8,4.4c0,2.9-1.6,4.5-4.8,4.5
					c-0.6,0-1.1-0.1-1.7-0.1L134.3,57.7z M131.4,67h4.7c2.9,0,6.2-0.9,6.2-5c0-4.1-3.3-4.9-6-4.9h-4.9v0.3l1.7,0.4v8.6l-1.7,0.4
					L131.4,67z"/>
				<path id="Path_11_" class="st0" d="M142.3,66.7l1.7-0.4v-8.6l-1.7-0.4v-0.3h8.3v2.8h-0.3c-0.3-1.8-0.6-2.2-1.9-2.2h-3.1v3.9
					l2.6-0.1l0.4-1.5h0.3v3.7h-0.3l-0.4-1.5l-2.6-0.1v4.3h3.5c1.4,0,1.7-0.1,2.1-3h0.3V67h-8.9V66.7z"/>
				<polygon id="Path_12_" class="st0" points="152.1,66.5 153.8,66.2 153.9,57.8 152.1,57.4 152.1,57.1 155.3,57.1 161.9,64.5 
					161.9,64.5 161.7,57.8 159.3,57.4 159.3,57.1 164,57.1 164,57.4 162.6,57.8 162.4,67 162.4,67 154.5,58.1 154.5,58.1 
					154.7,66.2 156.9,66.5 156.9,66.8 152.1,66.8 				"/>
				<rect id="Rectangle_2_" x="71.1" class="st0" width="7.9" height="7.9"/>
				<rect id="Rectangle_3_" x="86" class="st0" width="7.9" height="7.9"/>
				<rect id="Rectangle_4_" x="99.8" class="st0" width="7.9" height="7.9"/>
			</g>
		</g>
	</g>
</g>
</svg>
