<?xml version="1.0" encoding="utf-8"?>
<!-- Generator: Adobe Illustrator 22.1.0, SVG Export Plug-In . SVG Version: 6.00 Build 0)  -->
<svg version="1.1" id="Слой_1" xmlns="http://www.w3.org/2000/svg" xmlns:xlink="http://www.w3.org/1999/xlink" x="0px" y="0px"
	 width="253px" height="40px" viewBox="0 0 253 40" style="enable-background:new 0 0 253 40;" xml:space="preserve">
<style type="text/css">
	.st0{fill:#FFFFFF;}
</style>
<g id="Page-1">
	<g id="Dark" transform="translate(-780 -3239)">
		<g id="Group-4" transform="translate(285 3213)">
			<g id="logo-ccf" transform="translate(495 26)">
				<path id="Shape" class="st0" d="M30.7,12v7h6c1.6,0,2.9-1.3,2.9-3V3c0-1.7-1.3-3-2.9-3H23.9C22.2,0,21,1.3,21,3v6.1h6.8
					C29.4,9.1,30.7,10.5,30.7,12L30.7,12z M8.9,12v7h-6C1.3,19,0,17.7,0,16V3c0-1.7,1.3-3,2.9-3h12.8c1.6,0,2.9,1.3,2.9,3v6.1h-6.8
					C10.3,9.1,8.9,10.5,8.9,12L8.9,12z"/>
				<path id="Shape_1_" class="st0" d="M8.9,28v-7h-6C1.3,21,0,22.3,0,24v13.1C0,38.7,1.3,40,2.9,40h12.8c1.6,0,2.9-1.3,2.9-3v-6.1
					h-6.8C10.3,30.9,8.9,29.6,8.9,28L8.9,28z M30.7,28v-7h6c1.6,0,2.9,1.3,2.9,3v13.1c0,1.7-1.3,3-2.9,3H23.9c-1.6,0-2.9-1.3-2.9-3
					v-6.1h6.8C29.4,30.9,30.7,29.6,30.7,28L30.7,28z"/>
				<path id="Shape_2_" class="st0" d="M108.7,30.8v-0.1V30.8z M65.6,24.6c-0.7,4.6-3.7,7.4-8.2,7.4c-6.2,0-9-5.9-9-11.5
					c0-5.7,2.8-11.5,9-11.5c4.5,0,7.5,2.6,8.2,7.4l-4.2,0.6c-0.5-2.4-1.4-4.4-4-4.4c-3.7,0-4.5,5.1-4.5,7.9s0.8,7.9,4.5,7.9
					c2.7,0,3.7-2.1,4-4.4L65.6,24.6L65.6,24.6z M68.2,9.2h4.2v22.4h-4.2V9.2L68.2,9.2z M84.6,21.9c0-1.8-0.7-3.6-2.7-3.6
					c-1.8,0-2.7,1.9-2.7,3.6C79.3,21.9,84.6,21.9,84.6,21.9z M79,24.6c-0.1,1.9,0.9,4.3,3.1,4.3c1.3,0,2.2-0.8,2.7-2.4l3.9,0.5
					c-0.9,3.2-3.9,5-6.8,5c-4.6,0-6.9-4.1-6.9-8.4s2.3-8.4,6.9-8.4c3.9,0,6.9,1.9,6.8,9.4H79V24.6L79,24.6z M113.3,21.9
					c0-1.8-0.7-3.6-2.7-3.6c-1.8,0-2.7,1.9-2.7,3.6H113.3z M107.7,24.6c-0.1,1.9,0.9,4.3,3.1,4.3c1.3,0,2.2-0.8,2.7-2.4l3.9,0.5
					c-0.9,3.2-3.9,5-6.8,5c-4.6,0-6.9-4.1-6.9-8.4s2.3-8.4,6.9-8.4c3.9,0,6.9,1.9,6.8,9.4h-9.7C107.7,24.5,107.7,24.6,107.7,24.6z
					 M98.2,31.6h-4.4l-4.8-16.1h4.3L96,27.4h0.1l2.7-11.9h4.2L98.2,31.6z M120.1,9.2h4.2v22.4h-4.2C120.1,31.6,120.1,9.2,120.1,9.2z
					 M135.9,24.3c-1.7,0.4-5.1,0.5-5.1,2.8c0,0.9,0.5,1.8,1.4,1.8c1.7,0,2.9-1.1,3.7-2.1L135.9,24.3L135.9,24.3z M136.1,30.1
					c-1.5,1.1-2.5,1.8-4.5,1.8c-2.8,0-5-1.9-5-4.7c0-4.5,5.8-5.5,9.1-5.8c0.2-2.3-0.5-3.1-2-3.1c-1.3,0-2.3,0.6-2.5,2l-3.9-0.6
					c0.9-3.4,3.1-4.5,6.5-4.5c4.3,0,6.1,2,6.1,5.1v7.9c0,1.2,0,2.3,0.6,3.3h-3.9C136.2,30.9,136.1,30.1,136.1,30.1L136.1,30.1z
					 M147.5,17.2c1.3-1.1,2.9-2,4.7-2c1.7,0,4.1,1.1,4.1,5v11.4h-4.1v-9.7c0-1.3,0.1-3.3-1.7-3.3c-1.2,0-2.2,0.9-2.9,1.8v11.3h-4.1
					v-16h4.1v1.7L147.5,17.2L147.5,17.2z M198.9,24.7c-0.7,4.6-3.7,7.3-8.2,7.3c-6.2,0-9-5.9-9-11.5c0-5.7,2.8-11.5,9-11.5
					c4.5,0,7.5,2.6,8.2,7.4l-4.1,0.6c-0.5-2.4-1.4-4.4-4-4.4c-3.7,0-4.5,5.1-4.5,7.9s0.8,7.9,4.5,7.9c2.7,0,3.7-2.1,4-4.4
					L198.9,24.7L198.9,24.7z M201.5,9.2h4.1v22.4h-4.1C201.5,31.6,201.5,9.2,201.5,9.2z M213.2,31.6h-4.1V15.5h4.1
					C213.2,15.5,213.2,31.6,213.2,31.6z M213.2,13.1h-4.1V9.2h4.1V13.1z M220.7,17.2c1.3-1.1,2.9-2,4.6-2c1.7,0,4.1,1.1,4.1,5v11.4
					h-4.1v-9.7c0-1.3,0.1-3.3-1.7-3.3c-1.2,0-2.2,0.9-2.9,1.8v11.3h-4.1v-16h4.1V17.2z M237,31.6h-4.1V15.5h4.1
					C237,15.5,237,31.6,237,31.6z M237,13.1h-4.1V9.2h4.1V13.1z M253,26.4c-0.7,3.3-3,5.6-6.6,5.6c-4.6,0-6.9-4.1-6.9-8.4
					s2.3-8.4,6.9-8.4c3.5,0,5.9,2.1,6.6,5.6l-3.8,0.5c-0.2-1.3-0.7-3-2.8-3c-2.2,0-2.7,3.2-2.7,5.2c0,2,0.3,5.2,2.7,5.2
					c2.1,0,2.4-1.4,2.8-3L253,26.4z M168.7,26.5c-0.7,0.9-1.5,1.9-2.7,1.9c-2.5,0-2.9-3.1-2.9-5c0-1.8,0.5-4.7,2.8-4.7
					c1.2,0,2.1,0.8,2.8,1.8V26.5z M172.9,28.8V9.2h-4.1v7.8c-1.2-1.1-2.2-1.9-3.8-1.9c-2.3,0-5.8,2-5.8,7.9c0,6.8,2.9,8.8,6.1,8.8
					c1.7,0,2.7-0.6,3.9-1.8c0,0,0.1,0.8,0.5,1.4h3.8C173,30.7,172.9,29.7,172.9,28.8z"/>
			</g>
		</g>
	</g>
</g>
</svg>
