<svg width="30" height="30" viewBox="0 0 30 30" fill="none" xmlns="http://www.w3.org/2000/svg">
<path d="M0 5.06298V19.4786C0 21.198 1.38895 22.5869 3.1083 22.5869H3.79971V27.592C3.79971 27.9959 4.28921 28.1978 4.57679 27.9102L9.90006 22.5869H26.8917C28.6111 22.5869 30 21.198 30 19.4786V5.06298C30 3.34363 28.6111 1.95468 26.8917 1.95468H3.1083C1.38895 1.95468 0 3.34363 0 5.06298ZM6.10035 15.9298C6.10035 15.7095 6.27779 15.5321 6.49806 15.5321H16.0432C16.2635 15.5321 16.441 15.7095 16.441 15.9298V17.5023C16.441 17.7226 16.2635 17.9 16.0432 17.9H6.49194C6.27167 17.9 6.09423 17.7226 6.09423 17.5023V15.9298H6.10035ZM6.06975 11.4876C6.06975 11.2673 6.2472 11.0899 6.46747 11.0899H23.5325C23.7528 11.0899 23.9302 11.2673 23.9302 11.4876V13.0601C23.9302 13.2804 23.7528 13.4578 23.5325 13.4578H6.46747C6.2472 13.4578 6.06975 13.2804 6.06975 13.0601V11.4876ZM6.06975 7.04544C6.06975 6.82517 6.2472 6.64773 6.46747 6.64773H23.5325C23.7528 6.64773 23.9302 6.82517 23.9302 7.04544V8.61795C23.9302 8.83822 23.7528 9.01566 23.5325 9.01566H6.46747C6.2472 9.01566 6.06975 8.83822 6.06975 8.61795V7.04544Z" fill="#6D6C9F"/>
</svg>
