<svg width="71" height="48" xmlns="http://www.w3.org/2000/svg"><g id="Page-1" stroke="none" stroke-width="1" fill="none" fill-rule="evenodd"><g id="Dark" transform="translate(-358 -1641)" fill="#EE3C45" fill-rule="nonzero"><path d="M415.347 1689c3.84 0 7.075-1.256 9.706-3.767 2.631-2.511 3.947-5.56 3.947-9.148 0-3.013-1.031-5.56-3.093-7.641-2.063-2.08-4.658-3.121-7.787-3.121-5.831 0-8.889 2.44-9.173 7.318-1.991-2.726-2.987-6.027-2.987-9.901 0-8.753 5.902-14.709 17.707-17.866 1.706-.43 2.56-1.148 2.56-2.152 0-1.148-.783-1.722-2.347-1.722-3.698 0-8.533 1.65-14.507 4.95-8.249 4.593-12.373 12.27-12.373 23.032 0 5.883 1.742 10.69 5.227 14.422 3.484 3.73 7.857 5.596 13.12 5.596zm-38.877 0c3.722 0 6.908-1.256 9.557-3.767s3.973-5.56 3.973-9.148c0-3.013-1.038-5.56-3.114-7.641-2.076-2.08-4.69-3.121-7.839-3.121-5.727 0-8.734 2.44-9.02 7.318-2.005-2.726-3.007-5.955-3.007-9.686 0-8.897 5.87-14.924 17.61-18.08 1.719-.431 2.578-1.149 2.578-2.153 0-1.148-.787-1.722-2.362-1.722-3.58 0-8.376 1.65-14.39 4.95-8.304 4.593-12.456 12.198-12.456 22.817 0 5.883 1.718 10.726 5.154 14.529 3.437 3.803 7.875 5.704 13.316 5.704z" id="“"/></g></g></svg>