<svg width="1683" height="135" xmlns="http://www.w3.org/2000/svg"><g id="Page-1" stroke="none" stroke-width="1" fill="none" fill-rule="evenodd"><g id="Dark" transform="translate(-116 -2266)" fill="#141919" fill-rule="nonzero" stroke="#FFF"><path d="M185.102 2400v-.002c39.64 0 67.898-27.078 67.898-64.998 0-37.922-28.258-65-67.898-65-39.742 0-68.102 27.18-68.102 65s28.36 65 68.102 65zm.5-31c-18.795-.002-32.602-14.109-32.602-33.5 0-19.393 13.807-33.5 32.602-33.5 18.794 0 32.398 14.005 32.398 33.5 0 19.495-13.604 33.5-32.398 33.5zm129.45 31c28.18 0 46.948-17.471 46.948-44.293V2301h-32.86v53.27c0 10.018-5.31 16.07-14.088 16.07-8.78-.001-14.193-5.951-14.193-16.07V2301H268v54.707c0 26.822 18.871 44.293 47.052 44.293zm98.743-3v-48.587c0-12.187 4.863-17.297 16.473-17.297H443V2301h-8.687c-11.332 0-19.511 3.264-26.225 11.058l-5.117-10.603H381V2397h32.795zm131.978 0l23.29-59.851L592.812 2397h30.02L661 2273h-36.315l-19.678 71.523-30.018-70.91h-11.8l-29.489 70.855L513.62 2273H477l38.755 124h30.018zm164.727 3c31.01 0 53.5-21.429 53.5-51 0-29.674-22.49-51-53.5-51-31.111 0-53.5 21.326-53.5 51 0 29.571 22.389 51 53.5 51zm0-29c-11.938-.002-20.5-8.774-20.5-21.5 0-12.727 8.562-21.5 20.5-21.5s20.5 8.85 20.5 21.5c0 12.727-8.562 21.5-20.5 21.5zm102.295 26v-48.587c0-12.187 4.863-17.297 16.473-17.297H842V2301h-8.687c-11.332 0-19.511 3.264-26.225 11.058l-5.117-10.603H780V2397h32.795zm75.24 0v-40.39l24.021 40.39H951l-32.914-49.989 29.89-45.521h-37.094l-22.847 37.417V2267H855v130h33.035zm145.364 3c12.714 0 24.32-3.339 34.053-9.275 1.948 2.126 3.954 4.308 6.018 6.547H1106c-7.381-8.456-14.22-16.241-20.516-23.41 7.043-9.96 11.322-22.262 11.913-36.004h-26.9a42.883 42.883 0 01-3.837 14.479c-5.647-6.514-10.624-12.343-14.926-17.562 13.266-8.033 26.056-17.697 26.056-34.61 0-19.87-16.67-31.165-37.352-31.165-20.933 0-37.63 11.07-37.63 31.24 0 7.186 2.027 14.455 11.726 28.265-11.56 7.732-21.534 18.075-21.534 34.86 0 21.788 16.536 36.635 40.4 36.635zm3.413-85c-3.873-6.059-5.812-10.66-5.812-14.17 0-5.56 3.837-8.83 9.035-8.83 5.054 0 8.965 3.345 8.965 8.83 0 5.631-5.104 9.888-12.188 14.17zm-.885 58c-7.806 0-12.927-4.567-12.927-11.393 0-5.356 2.878-9.69 7.311-13.607 5.196 6.298 11.366 13.502 18.689 21.814-4.063 2.047-8.492 3.186-13.073 3.186zm148.302 24v-37.94h12.41l20.158 37.94H1255l-24.67-45.097c12.274-7.334 19.722-19.803 19.722-35.02 0-25.92-19.416-43.883-46.201-43.883H1150v124h34.23zm15.553-67H1184v-27h15.782c9.659 0 15.218 5.69 15.218 13.46 0 7.774-5.56 13.54-15.218 13.54zm112.106 70c23.967 0 43.292-13.65 50.014-35.496h-32.743c-3.163 5.603-9.585 8.977-17.271 8.977-10.39 0-17.35-5.678-19.502-16.658h70.933c.428-2.96.68-5.845.68-8.729l.001-.003c0-28.078-21.32-50.091-52.112-50.091-29.984 0-51.888 21.579-51.888 50.926 0 29.243 22.081 51.074 51.888 51.074zm20.112-61h-39c2.689-9.683 9.422-15 19.107-15 10.028 0 16.977 5.257 19.893 15zm126 27.906c0-24.275-19.97-27.419-34.99-30.104-9.033-1.622-16.305-2.89-16.305-8.337 0-4.438 3.527-7.054 8.777-7.054 5.934 0 10.016 2.842 10.016 8.954h30.669c-.373-19.397-16.065-32.365-40.278-32.365-24.362 0-40.604 12.388-40.604 31.576 0 23.218 19.545 27.697 34.288 30.103 9.135 1.521 16.333 3.095 16.333 8.617 0 4.948-4.54 7.409-9.332 7.409-6.21 0-11.05-3.223-11.05-10.224H1374c.294 20.407 15.545 34.074 40.719 34.51l1.244.009 1.213-.007c24.59-.414 40.824-13.404 40.824-33.087zm61.052 33.094c28.18 0 46.948-17.471 46.948-44.293V2301h-32.86v53.27c0 10.018-5.31 16.07-14.088 16.07-8.78-.001-14.193-5.951-14.193-16.07V2301H1472v54.707c0 26.822 18.871 44.293 47.052 44.293zm99.948-3v-130h-33v130h33zm85 0v-28.713h-12.614c-6.933 0-11.057-4.111-11.057-10.927v-30.288h23.14v-25.246H1679.5V2274h-6.751L1630 2319.409v7.663h17.464v35.912c0 21.15 12.824 34.016 33.925 34.016H1704zm94-30.094c0-24.275-19.97-27.419-34.99-30.104-9.033-1.622-16.305-2.89-16.305-8.337 0-4.438 3.527-7.054 8.777-7.054 5.934 0 10.016 2.842 10.016 8.954h30.669c-.373-19.397-16.065-32.365-40.278-32.365-24.362 0-40.604 12.388-40.604 31.576 0 23.218 19.545 27.697 34.288 30.103 9.135 1.521 16.333 3.095 16.333 8.617 0 4.948-4.54 7.409-9.332 7.409-6.21 0-11.05-3.223-11.05-10.224H1714c.294 20.407 15.545 34.074 40.719 34.51l1.244.009 1.213-.007c24.59-.414 40.824-13.404 40.824-33.087z" id="OurWork&amp;Results"/></g></g></svg>