<svg width="30" height="30" viewBox="0 0 30 30" fill="none" xmlns="http://www.w3.org/2000/svg">
<g clip-path="url(#clip0_1_318)">
<path d="M22.808 19.8456C21.8279 18.878 20.6043 18.878 19.6305 19.8456C18.8876 20.5822 18.1447 21.3189 17.4143 22.068C17.2146 22.274 17.046 22.3177 16.8025 22.1804C16.3218 21.9182 15.8099 21.7059 15.348 21.4188C13.1942 20.0641 11.3901 18.3224 9.79196 16.3622C8.99913 15.3883 8.29371 14.3458 7.80053 13.1721C7.70065 12.9349 7.71938 12.7788 7.9129 12.5853C8.65578 11.8674 9.37994 11.1308 10.1103 10.3941C11.1279 9.37032 11.1279 8.17172 10.1041 7.14167C9.52352 6.55486 8.94295 5.98053 8.36238 5.39371C7.76308 4.79441 7.17002 4.18887 6.56447 3.59581C5.58437 2.64067 4.3608 2.64067 3.38693 3.60205C2.63781 4.33869 1.91989 5.09406 1.15828 5.81821C0.452855 6.48619 0.0970199 7.30398 0.0221072 8.25912C-0.0965044 9.81355 0.284301 11.2806 0.821175 12.7102C1.91989 15.6692 3.59294 18.2974 5.62182 20.7071C8.36238 23.9658 11.6336 26.544 15.4603 28.4044C17.1833 29.2409 18.9688 29.8839 20.9102 29.99C22.2462 30.0649 23.4073 29.7278 24.3375 28.6853C24.9742 27.9736 25.6922 27.3244 26.3664 26.6439C27.3652 25.6326 27.3714 24.409 26.3789 23.4102C25.1927 22.2178 24.0004 21.0317 22.808 19.8456Z" fill="#6D6C9F"/>
<path d="M21.6156 14.8702L23.9192 14.4769C23.5571 12.3606 22.5583 10.4441 21.0413 8.92085C19.4369 7.31647 17.408 6.30515 15.1731 5.99301L14.8485 8.30906C16.5777 8.55253 18.1509 9.33286 19.3932 10.5752C20.5668 11.7488 21.3347 13.2346 21.6156 14.8702Z" fill="#6D6C9F"/>
<path d="M25.2177 4.85683C22.5583 2.19744 19.1935 0.518146 15.479 0L15.1544 2.31605C18.3632 2.76552 21.2723 4.22008 23.5696 6.51115C25.7483 8.68986 27.1779 11.4429 27.696 14.4706L29.9996 14.0773C29.3941 10.5689 27.7397 7.38513 25.2177 4.85683Z" fill="#6D6C9F"/>
</g>
<defs>
<clipPath id="clip0_1_318">
<rect width="30" height="30" fill="white"/>
</clipPath>
</defs>
</svg>
