<svg width="170" height="170" viewBox="0 0 170 170" fill="none" xmlns="http://www.w3.org/2000/svg">
<path d="M117.422 148.938V164.153C117.422 166.689 115.611 168.5 113.075 168.5H5.84707C3.31128 168.138 1.5 166.326 1.5 163.791V21.4241C1.5 18.8883 3.67354 17.077 5.84707 17.077H41.3482" stroke="#6D6C9F" stroke-width="3" stroke-miterlimit="10" stroke-linecap="round" stroke-linejoin="round"/>
<path d="M77.2115 17.077H112.713C115.248 17.077 117.06 18.8883 117.06 21.4241V36.6388" stroke="#6D6C9F" stroke-width="3" stroke-miterlimit="10" stroke-linecap="round" stroke-linejoin="round"/>
<path d="M99.3091 138.795V145.316C99.3091 147.489 97.4978 148.938 94.962 148.938H23.5976C21.0618 148.938 19.2505 147.127 19.2505 145.316V34.4653C19.2505 32.2918 21.4241 30.8428 23.5976 30.8428H41.3482" stroke="#6D6C9F" stroke-width="3" stroke-miterlimit="10" stroke-linecap="round" stroke-linejoin="round"/>
<path d="M77.2115 30.8428H94.962C97.4978 30.8428 99.3091 32.2918 99.3091 34.4653V46.4198" stroke="#6D6C9F" stroke-width="3" stroke-miterlimit="10" stroke-linecap="round" stroke-linejoin="round"/>
<path d="M77.2115 19.2505V36.2766H41.3481V19.2505C41.3481 9.46963 49.68 1.5 59.4609 1.5C64.5325 1.5 68.8796 3.67354 72.1399 6.57158C75.4002 9.83189 77.2115 14.5412 77.2115 19.2505Z" stroke="#6D6C9F" stroke-width="3" stroke-miterlimit="10" stroke-linecap="round" stroke-linejoin="round"/>
<path d="M52.2158 25.4088V19.2505C52.2158 15.2657 55.4761 12.0054 59.4609 12.0054C61.2722 12.0054 63.0835 12.7299 64.5325 14.1789C65.6193 15.6279 66.7061 17.4392 66.7061 19.2505V25.4088H52.2158Z" stroke="#6D6C9F" stroke-width="3" stroke-miterlimit="10" stroke-linecap="round" stroke-linejoin="round"/>
<path d="M34.103 49.3179H84.8189" stroke="#6D6C9F" stroke-width="3" stroke-miterlimit="10" stroke-linecap="round" stroke-linejoin="round"/>
<path d="M34.103 64.5326H75.0379" stroke="#6D6C9F" stroke-width="3" stroke-miterlimit="10" stroke-linecap="round" stroke-linejoin="round"/>
<path d="M34.103 80.8341H42.4349V89.166H34.103V80.8341Z" stroke="#6D6C9F" stroke-width="3" stroke-miterlimit="10" stroke-linecap="round" stroke-linejoin="round"/>
<path d="M34.103 103.656H42.4349V111.988H34.103V103.656Z" stroke="#6D6C9F" stroke-width="3" stroke-miterlimit="10" stroke-linecap="round" stroke-linejoin="round"/>
<path d="M34.103 126.841H42.4349V135.172H34.103V126.841Z" stroke="#6D6C9F" stroke-width="3" stroke-miterlimit="10" stroke-linecap="round" stroke-linejoin="round"/>
<path d="M55.4761 84.8188H64.1703" stroke="#6D6C9F" stroke-width="3" stroke-miterlimit="10" stroke-linecap="round" stroke-linejoin="round"/>
<path d="M55.4761 108.003H71.4154" stroke="#6D6C9F" stroke-width="3" stroke-miterlimit="10" stroke-linecap="round" stroke-linejoin="round"/>
<path d="M55.4761 131.188H84.8189" stroke="#6D6C9F" stroke-width="3" stroke-miterlimit="10" stroke-linecap="round" stroke-linejoin="round"/>
<path d="M155.821 99.6715C155.097 102.57 154.01 105.468 152.198 108.003L162.342 115.248L149.663 127.927L142.418 117.784C139.882 119.233 136.984 120.682 134.086 121.407L135.897 133.724H117.784L119.595 121.407C116.697 120.682 113.799 119.596 111.264 117.784L104.018 127.927L91.3395 115.248L101.483 108.003C100.034 105.468 98.5846 102.57 97.8601 99.6715L84.8189 101.845V83.7322L97.1356 85.5435C97.8601 82.6454 98.9469 79.7474 100.758 77.2116L90.9772 69.9665L103.656 57.2875L110.901 67.0684C113.437 65.6194 116.335 64.1704 119.233 63.4459L117.422 51.1292H135.535L133.723 63.0836C136.621 63.8081 139.52 64.8949 142.055 66.7062L149.3 56.9252L161.979 69.6042L152.198 76.8493C153.648 79.3851 155.097 82.2832 155.821 85.1812L168.138 83.3699V101.483L155.821 99.6715Z" stroke="#6D6C9F" stroke-width="3" stroke-miterlimit="10" stroke-linecap="round" stroke-linejoin="round"/>
<path d="M126.478 106.554C134.081 106.554 140.244 100.391 140.244 92.7886C140.244 85.186 134.081 79.0228 126.478 79.0228C118.876 79.0228 112.713 85.186 112.713 92.7886C112.713 100.391 118.876 106.554 126.478 106.554Z" stroke="#6D6C9F" stroke-width="3" stroke-miterlimit="10" stroke-linecap="round" stroke-linejoin="round"/>
</svg>
