<svg width="16" height="16" viewBox="0 0 16 16" fill="none" xmlns="http://www.w3.org/2000/svg">
<g clip-path="url(#clip0_1_306)">
<path d="M12.4653 7.6935C12.0693 7.654 11.198 7.654 11.198 7.0995C11.198 6.34725 12.3068 5.35725 14.0888 4.288C14.643 3.9315 15.7918 3.37725 15.7918 2.62475C15.7918 2.03075 15.356 1.59525 14.4453 1.714C13.574 1.83275 12.2275 2.42675 10.4458 3.9315C8.5845 5.476 6.84225 8.05 6.84225 10.5842C6.84225 13.1582 8.5845 15.7322 11.3963 15.7322C13.6533 15.7322 15.5938 14.0295 15.5938 11.693C15.5935 9.911 14.366 7.852 12.4653 7.6935Z" fill="#EE3C45"/>
<path d="M6.8985 6.57999C6.57325 6.40999 6.2165 6.29874 5.8315 6.26674C5.4355 6.22724 4.56425 6.22724 4.56425 5.67274C4.56425 4.92049 5.673 3.93049 7.455 2.86124C8.0095 2.50474 9.15775 1.95049 9.15775 1.19799C9.15775 0.603988 8.722 0.168488 7.81125 0.287238C6.94 0.405988 5.5935 0.999988 3.81175 2.50474C1.95075 4.04924 0.208252 6.62324 0.208252 9.15774C0.208252 11.7317 1.9505 14.3057 4.76225 14.3057C5.42325 14.3057 6.05675 14.1587 6.6225 13.8935C6.06775 12.8905 5.772 11.73 5.772 10.5845C5.77225 9.16999 6.22775 7.79824 6.8985 6.57999Z" fill="#EE3C45"/>
</g>
<defs>
<clipPath id="clip0_1_306">
<rect width="16" height="16" fill="white"/>
</clipPath>
</defs>
</svg>
