<svg width="157" height="157" viewBox="0 0 157 157" fill="none" xmlns="http://www.w3.org/2000/svg">
<path d="M121.406 44.586C121.406 63.624 109.048 79.656 92.014 85.334V143.784L75.982 155.14H64.292V145.12L72.308 138.774L64.292 132.428L72.308 126.082L64.292 119.736V85.668C47.258 79.99 34.9 63.958 34.9 44.92C35.234 20.872 54.606 1.5 78.32 1.5C102.034 1.5 121.406 20.872 121.406 44.586Z" stroke="#6D6C9F" stroke-width="3" stroke-miterlimit="10"/>
<path d="M78.32 37.2381C84.4073 37.2381 89.342 32.3034 89.342 26.2161C89.342 20.1288 84.4073 15.1941 78.32 15.1941C72.2327 15.1941 67.298 20.1288 67.298 26.2161C67.298 32.3034 72.2327 37.2381 78.32 37.2381Z" stroke="#6D6C9F" stroke-width="3" stroke-miterlimit="10"/>
<path d="M80.324 85V111.72" stroke="#6D6C9F" stroke-width="3" stroke-miterlimit="10"/>
<path d="M117.732 97.3582H106.042" stroke="#6D6C9F" stroke-width="3" stroke-miterlimit="10"/>
<path d="M127.084 106.71C132.249 106.71 136.436 102.523 136.436 97.3581C136.436 92.1931 132.249 88.0061 127.084 88.0061C121.919 88.0061 117.732 92.1931 117.732 97.3581C117.732 102.523 121.919 106.71 127.084 106.71Z" stroke="#6D6C9F" stroke-width="3" stroke-miterlimit="10"/>
<path d="M117.732 144.786H106.042" stroke="#6D6C9F" stroke-width="3" stroke-miterlimit="10"/>
<path d="M127.084 154.138C132.249 154.138 136.436 149.951 136.436 144.786C136.436 139.621 132.249 135.434 127.084 135.434C121.919 135.434 117.732 139.621 117.732 144.786C117.732 149.951 121.919 154.138 127.084 154.138Z" stroke="#6D6C9F" stroke-width="3" stroke-miterlimit="10"/>
<path d="M136.77 121.072H106.042" stroke="#6D6C9F" stroke-width="3" stroke-miterlimit="10"/>
<path d="M145.788 130.424C150.953 130.424 155.14 126.237 155.14 121.072C155.14 115.907 150.953 111.72 145.788 111.72C140.623 111.72 136.436 115.907 136.436 121.072C136.436 126.237 140.623 130.424 145.788 130.424Z" stroke="#6D6C9F" stroke-width="3" stroke-miterlimit="10"/>
<path d="M38.908 97.3582H50.598" stroke="#6D6C9F" stroke-width="3" stroke-miterlimit="10"/>
<path d="M29.556 106.71C34.721 106.71 38.908 102.523 38.908 97.3581C38.908 92.1931 34.721 88.0061 29.556 88.0061C24.391 88.0061 20.204 92.1931 20.204 97.3581C20.204 102.523 24.391 106.71 29.556 106.71Z" stroke="#6D6C9F" stroke-width="3" stroke-miterlimit="10"/>
<path d="M38.908 144.786H50.598" stroke="#6D6C9F" stroke-width="3" stroke-miterlimit="10"/>
<path d="M29.556 154.138C34.721 154.138 38.908 149.951 38.908 144.786C38.908 139.621 34.721 135.434 29.556 135.434C24.391 135.434 20.204 139.621 20.204 144.786C20.204 149.951 24.391 154.138 29.556 154.138Z" stroke="#6D6C9F" stroke-width="3" stroke-miterlimit="10"/>
<path d="M19.87 121.072H50.598" stroke="#6D6C9F" stroke-width="3" stroke-miterlimit="10"/>
<path d="M10.852 130.424C16.017 130.424 20.204 126.237 20.204 121.072C20.204 115.907 16.017 111.72 10.852 111.72C5.68703 111.72 1.5 115.907 1.5 121.072C1.5 126.237 5.68703 130.424 10.852 130.424Z" stroke="#6D6C9F" stroke-width="3" stroke-miterlimit="10"/>
</svg>
