<svg width="152" height="170" viewBox="0 0 152 170" fill="none" xmlns="http://www.w3.org/2000/svg">
<path d="M8.23815 110.972C4.46479 110.972 1.5 107.737 1.5 103.964V75.1249C1.5 71.3515 4.73431 68.1172 8.50767 68.1172H15.2458H30.3393H40.3117C44.0851 68.1172 47.3194 71.3515 47.3194 75.1249V103.964C47.3194 107.737 44.0851 110.972 40.3117 110.972H30.0697H8.23815Z" stroke="#6D6C9F" stroke-width="3" stroke-miterlimit="10" stroke-linecap="round" stroke-linejoin="round"/>
<path d="M90.7131 113.667C90.174 115.823 88.0178 117.44 85.5921 117.44H82.3578H68.3424C66.1862 117.44 63.7605 116.632 62.1433 115.014L56.7528 109.624C55.1357 108.007 52.9795 107.198 50.5537 107.198H46.5108C47.0499 106.39 47.3194 105.312 47.3194 103.964V75.1247C47.3194 74.3161 47.0499 73.238 46.7804 72.4294L51.6318 70.2732" stroke="#6D6C9F" stroke-width="3" stroke-miterlimit="10" stroke-linecap="round" stroke-linejoin="round"/>
<path d="M149.47 143.854C151.356 147.088 150.009 151.401 146.774 153.287L121.709 167.572C118.474 169.459 114.162 168.381 112.275 165.146L108.771 159.217L101.225 146.01L96.1036 137.385C94.2169 134.151 95.295 129.838 98.7989 127.952L123.865 113.667C127.099 111.78 131.411 112.858 133.298 116.093L138.419 124.987L149.47 143.854Z" stroke="#6D6C9F" stroke-width="3" stroke-miterlimit="10" stroke-linecap="round" stroke-linejoin="round"/>
<path d="M124.134 86.9839L124.943 88.3315C126.021 90.2182 126.29 92.6439 125.751 94.8001L123.865 102.077C123.326 104.234 123.595 106.659 124.673 108.546L126.83 112.05C125.751 112.05 124.673 112.319 123.865 112.858L98.7988 127.143C97.9903 127.682 97.4512 128.221 96.9122 128.76L85.8616 120.944C84.7835 120.136 83.9749 119.327 83.4359 118.249L82.3578 116.632L81.2797 115.015" stroke="#6D6C9F" stroke-width="3" stroke-miterlimit="10" stroke-linecap="round" stroke-linejoin="round"/>
<path d="M107.424 4.77848C109.31 1.54417 113.623 0.466068 116.857 2.62227L141.923 16.9071C145.157 18.7938 146.505 23.1062 144.349 26.3406L140.845 32.2701L133.298 45.4769L128.177 54.1017C126.291 57.336 121.978 58.6837 118.474 56.5275L93.4083 42.2426C90.174 40.3559 88.8264 36.0435 90.9826 32.8092L96.1036 23.9148L107.424 4.77848Z" stroke="#6D6C9F" stroke-width="3" stroke-miterlimit="10" stroke-linecap="round" stroke-linejoin="round"/>
<path d="M71.8463 74.0467C71.0377 75.3943 69.9596 76.2029 68.612 76.4724C66.9948 77.0115 65.3777 76.4724 64.03 75.3943C62.1433 73.7772 61.8738 70.8124 62.9519 68.9257L71.5767 54.1018C72.6549 52.2151 74.5415 50.5979 76.6977 50.0589L83.9749 47.9027C86.1312 47.3636 88.0178 45.7465 89.0959 43.8598L91.2521 40.356C91.7912 41.1645 92.5998 41.9731 93.6779 42.5122L118.744 56.797C119.552 57.3361 120.361 57.6056 121.17 57.6056L119.822 71.0819C119.822 72.4295 119.283 73.5076 118.744 74.5858L114.162 82.6715" stroke="#6D6C9F" stroke-width="3" stroke-miterlimit="10" stroke-linecap="round" stroke-linejoin="round"/>
<path d="M78.854 62.1875L64.5691 86.7144C63.2215 89.1401 64.03 92.3744 66.4558 93.722C67.8034 94.5306 69.151 94.5306 70.2291 94.2611C71.5768 93.9916 72.6549 93.183 73.4634 91.8354L87.7483 67.3085" stroke="#6D6C9F" stroke-width="3" stroke-miterlimit="10" stroke-linecap="round" stroke-linejoin="round"/>
<path d="M87.7483 67.3086L69.9596 98.0345C68.612 100.46 69.4205 103.695 71.8463 105.042C73.1939 105.851 74.5415 105.851 75.6196 105.581C76.9673 105.312 78.0454 104.503 78.8539 103.156L96.6427 72.4296" stroke="#6D6C9F" stroke-width="3" stroke-miterlimit="10" stroke-linecap="round" stroke-linejoin="round"/>
<path d="M96.3731 72.4294L83.1663 95.3391C81.8187 97.7649 82.6273 100.999 85.053 102.347C86.4007 103.155 87.7483 103.155 88.8264 102.886C90.174 102.616 91.2521 101.808 91.7912 100.46L104.998 77.5504" stroke="#6D6C9F" stroke-width="3" stroke-miterlimit="10" stroke-linecap="round" stroke-linejoin="round"/>
<path d="M105.267 77.5505L94.7559 95.8783C93.4083 98.304 94.2169 101.538 96.6426 102.886C97.9903 103.695 99.3379 103.695 100.416 103.425C101.764 103.155 102.842 102.347 103.65 100.999L114.162 82.6715" stroke="#6D6C9F" stroke-width="3" stroke-miterlimit="10" stroke-linecap="round" stroke-linejoin="round"/>
</svg>
