<svg width="170" height="171" viewBox="0 0 170 171" fill="none" xmlns="http://www.w3.org/2000/svg">
<path d="M167.933 83.2756H161.088C157.846 83.2756 155.324 80.7539 155.324 77.5117C155.324 74.2695 157.846 71.7477 161.088 71.7477H167.933C165.411 67.0646 160.368 63.8224 154.244 64.5429C148.48 65.2633 143.797 69.9465 143.076 75.7104C141.995 83.6358 148.12 90.4805 156.045 90.4805C161.088 90.4805 165.772 87.5985 167.933 83.2756Z" stroke="#6D6C9F" stroke-width="3" stroke-miterlimit="10" stroke-linecap="round" stroke-linejoin="round"/>
<path d="M144.157 71.7477H126.865" stroke="#6D6C9F" stroke-width="3" stroke-miterlimit="10" stroke-linecap="round" stroke-linejoin="round"/>
<path d="M144.157 83.2755H126.865" stroke="#6D6C9F" stroke-width="3" stroke-miterlimit="10" stroke-linecap="round" stroke-linejoin="round"/>
<path d="M42.5679 152.803C41.8474 154.244 40.4064 155.324 38.6052 155.324H36.0835C33.922 155.324 31.7605 153.523 31.4003 151.362C31.0401 149.921 29.9593 148.48 28.5183 147.759C28.1581 147.759 27.7979 147.399 27.4376 147.399C26.3569 146.679 24.5557 147.039 23.4749 147.759C22.7544 148.48 21.6737 148.84 20.593 148.84C19.5122 148.84 18.0713 148.48 17.3508 147.399L15.5495 145.598C13.7483 144.157 13.7483 141.275 15.1893 139.474C15.9098 139.113 16.27 138.033 16.27 136.952C16.27 136.231 16.27 135.871 15.9098 135.151C15.9098 134.79 15.5495 134.43 15.5495 134.07C14.8291 132.629 13.7483 131.548 11.9471 131.188C9.78563 130.828 7.98441 129.027 7.98441 126.505V123.983C7.98441 121.822 9.78563 119.66 11.9471 119.3C13.3881 118.94 14.8291 117.859 15.5495 116.418C15.5495 116.058 15.9098 115.697 15.9098 115.337C16.27 114.617 16.27 112.816 15.1893 111.375C13.7483 109.573 14.1086 107.052 15.5495 105.25L17.3508 103.449C18.7917 102.368 21.3135 102.008 23.4749 103.449C24.9159 104.53 26.3569 104.53 27.7979 103.809C28.1581 103.809 28.5183 103.449 28.8786 103.449C30.3196 102.729 31.4003 101.648 31.7605 99.8467C32.1208 97.6853 33.922 95.884 36.4437 95.884H38.9654C40.7667 95.884 42.2076 96.9648 42.9281 98.4057" stroke="#6D6C9F" stroke-width="3" stroke-miterlimit="10" stroke-linecap="round" stroke-linejoin="round"/>
<path d="M42.5679 134.07C41.1269 135.151 39.3257 135.511 37.5245 135.511C32.1208 135.511 27.7979 131.188 27.7979 125.784C27.7979 120.381 32.1208 116.058 37.5245 116.058C39.3257 116.058 41.1269 116.778 42.5679 117.499" stroke="#6D6C9F" stroke-width="3" stroke-miterlimit="10" stroke-linecap="round" stroke-linejoin="round"/>
<path d="M126.865 37.5244V113.896" stroke="#6D6C9F" stroke-width="3" stroke-miterlimit="10" stroke-linecap="round" stroke-linejoin="round"/>
<path d="M42.5679 58.4186V9.42538C42.5679 5.10245 46.1703 1.5 50.133 1.5H118.94C123.263 1.5 126.505 5.10245 126.505 9.42538V11.9471" stroke="#6D6C9F" stroke-width="3" stroke-miterlimit="10" stroke-linecap="round" stroke-linejoin="round"/>
<path d="M126.865 137.672V161.449C126.865 165.771 123.263 169.374 119.3 169.374H50.133C45.8101 169.374 42.5679 165.771 42.5679 161.449V82.1947" stroke="#6D6C9F" stroke-width="3" stroke-miterlimit="10" stroke-linecap="round" stroke-linejoin="round"/>
<path d="M90.4804 11.5868H78.9526" stroke="#6D6C9F" stroke-width="3" stroke-miterlimit="10" stroke-linecap="round" stroke-linejoin="round"/>
<path d="M78.9526 159.287H90.4804" stroke="#6D6C9F" stroke-width="3" stroke-miterlimit="10" stroke-linecap="round" stroke-linejoin="round"/>
<path d="M160.728 136.592H60.5801C56.6174 136.592 53.3752 133.349 53.3752 129.387V122.182C53.3752 118.219 56.6174 114.977 60.5801 114.977H160.368C164.331 114.977 167.573 118.219 167.573 122.182V129.387C167.933 133.349 164.691 136.592 160.728 136.592Z" stroke="#6D6C9F" stroke-width="3" stroke-miterlimit="10" stroke-linecap="round" stroke-linejoin="round"/>
<path d="M141.275 135.871V115.337" stroke="#6D6C9F" stroke-width="3" stroke-miterlimit="10" stroke-linecap="round" stroke-linejoin="round"/>
<path d="M85.437 81.8345H5.10245C2.94098 81.8345 1.5 80.3935 1.5 78.232V62.3813C1.5 60.2198 2.94098 58.7788 5.10245 58.7788H85.0767C87.2382 58.7788 88.6792 60.2198 88.6792 62.3813V78.232C89.0394 80.0332 87.2382 81.8345 85.437 81.8345Z" stroke="#6D6C9F" stroke-width="3" stroke-miterlimit="10" stroke-linecap="round" stroke-linejoin="round"/>
<path d="M66.344 81.4743V59.1392" stroke="#6D6C9F" stroke-width="3" stroke-miterlimit="10" stroke-linecap="round" stroke-linejoin="round"/>
<path d="M19.152 70.3066H56.2572" stroke="#6D6C9F" stroke-width="3" stroke-miterlimit="10" stroke-linecap="round" stroke-linejoin="round"/>
<path d="M11.5869 70.3066H12.3073" stroke="#6D6C9F" stroke-width="3" stroke-miterlimit="10" stroke-linecap="round" stroke-linejoin="round"/>
<path d="M156.045 127.225C154.604 128.666 152.442 128.666 151.002 127.225C149.561 125.784 149.561 123.263 151.002 121.822C152.442 120.381 154.604 120.381 156.045 121.822C157.486 123.623 157.486 125.784 156.045 127.225Z" stroke="#6D6C9F" stroke-width="3" stroke-miterlimit="10" stroke-linecap="round" stroke-linejoin="round"/>
<path d="M156.405 127.586L159.287 130.468" stroke="#6D6C9F" stroke-width="3" stroke-miterlimit="10" stroke-linecap="round" stroke-linejoin="round"/>
<path d="M156.045 26.717C156.045 32.481 151.722 36.8039 146.318 36.8039C143.436 36.8039 118.579 36.8039 116.058 36.8039C111.735 36.8039 107.772 33.2015 107.772 28.5183C107.772 23.8351 111.375 20.2326 116.058 20.2326C117.138 20.2326 118.219 20.5929 118.94 20.9531C120.381 15.9097 125.064 11.947 130.828 11.947C135.511 11.947 139.474 14.4687 141.635 18.4314C143.076 17.3507 144.877 16.9904 146.679 16.9904C151.722 16.6302 156.045 21.3134 156.045 26.717Z" stroke="#6D6C9F" stroke-width="3" stroke-miterlimit="10" stroke-linecap="round" stroke-linejoin="round"/>
<path d="M20.593 21.6738C9.06514 11.5869 -1.38195 32.1208 20.593 41.8474C42.5679 31.7606 32.1208 11.2267 20.593 21.6738Z" stroke="#6D6C9F" stroke-width="3" stroke-miterlimit="10" stroke-linecap="round" stroke-linejoin="round"/>
</svg>
