<svg width="40.000000" height="40.000000" viewBox="0 0 40 40" fill="none" xmlns="http://www.w3.org/2000/svg" xmlns:xlink="http://www.w3.org/1999/xlink">
	<desc>
			Created with Pixso.
	</desc>
	<defs/>
	<path id="Vector" d="M34.18 18.3L39.63 18.3C39.82 18.3 39.99 18.45 40 18.66L40 21.33C40 21.53 39.83 21.69 39.64 21.69L34.18 21.69C33.41 28.23 28.23 33.41 21.69 34.18L21.69 39.64C21.69 39.83 21.53 40 21.33 40L18.66 40C18.46 40 18.3 39.83 18.3 39.64L18.3 34.18C11.76 33.41 6.58 28.23 5.81 21.69L0.35 21.69C0.16 21.69 0 21.53 0 21.33L0 18.66C0 18.46 0.16 18.3 0.35 18.3L5.8 18.3C6.57 11.76 11.75 6.58 18.29 5.81L18.29 0.35C18.29 0.16 18.45 0 18.65 0L21.33 0C21.52 0 21.69 0.16 21.69 0.35L21.69 5.81C28.22 6.58 33.4 11.76 34.18 18.3ZM9.1 19.99C9.1 26.01 13.98 30.88 19.99 30.88C26.01 30.88 30.88 26.01 30.88 19.99C30.88 13.98 26.01 9.1 19.99 9.1C13.98 9.1 9.1 13.98 9.1 19.99ZM16.2 16.2C17.22 15.19 18.56 14.63 19.99 14.63C21.42 14.63 22.76 15.19 23.78 16.2C24.79 17.22 25.35 18.56 25.35 19.99C25.35 21.42 24.79 22.76 23.78 23.78C22.76 24.79 21.42 25.35 19.99 25.35C18.56 25.35 17.22 24.79 16.2 23.78C15.19 22.76 14.63 21.43 14.63 19.99C14.63 18.55 15.19 17.22 16.2 16.2Z" fill="#FFD200" fill-opacity="1.000000" fill-rule="evenodd"/>
</svg>
