<svg width="40.000000" height="40.000000" viewBox="0 0 40 40" fill="none" xmlns="http://www.w3.org/2000/svg" xmlns:xlink="http://www.w3.org/1999/xlink">
	<desc>
			Created with Pixso.
	</desc>
	<defs>
		<clipPath id="clip19_1102">
			<rect id="Bold" rx="7.500000" width="38.333332" height="38.333332" transform="translate(0.833333 0.833333)" fill="white" fill-opacity="0"/>
		</clipPath>
	</defs>
	<g clip-path="url(#clip19_1102)">
		<path id="Subtract" d="M11.66 2.91C12.35 2.91 12.91 3.47 12.91 4.16L12.91 6.68C14.02 6.66 15.26 6.66 16.66 6.66L23.33 6.66C24.73 6.66 25.97 6.66 27.08 6.68L27.08 4.16C27.08 3.47 27.64 2.91 28.33 2.91C29.02 2.91 29.58 3.47 29.58 4.16L29.58 6.79C31.98 6.99 33.55 7.46 34.71 8.61C35.87 9.77 36.34 11.35 36.53 13.75L3.46 13.75C3.65 11.35 4.12 9.77 5.28 8.61C6.44 7.46 8.01 6.99 10.41 6.79L10.41 4.16C10.41 3.47 10.97 2.91 11.66 2.91ZM3.35 16.25C3.33 17.35 3.33 18.6 3.33 20L3.33 23.33C3.33 29.61 3.33 32.76 5.28 34.71C7.23 36.66 10.38 36.66 16.66 36.66L23.33 36.66C29.61 36.66 32.76 36.66 34.71 34.71C36.66 32.76 36.66 29.61 36.66 23.33L36.66 20C36.66 18.6 36.66 17.35 36.64 16.25L3.35 16.25ZM13.33 21.66C13.33 22.58 12.58 23.33 11.66 23.33C10.74 23.33 10 22.58 10 21.66C10 20.74 10.74 20 11.66 20C12.58 20 13.33 20.74 13.33 21.66ZM20 23.33C20.92 23.33 21.66 22.58 21.66 21.66C21.66 20.74 20.92 20 20 20C19.07 20 18.33 20.74 18.33 21.66C18.33 22.58 19.07 23.33 20 23.33ZM30 21.66C30 22.58 29.25 23.33 28.33 23.33C27.41 23.33 26.66 22.58 26.66 21.66C26.66 20.74 27.41 20 28.33 20C29.25 20 30 20.74 30 21.66ZM13.33 28.33C13.33 29.25 12.58 30 11.66 30C10.74 30 10 29.25 10 28.33C10 27.41 10.74 26.66 11.66 26.66C12.58 26.66 13.33 27.41 13.33 28.33ZM20 30C20.92 30 21.66 29.25 21.66 28.33C21.66 27.41 20.92 26.66 20 26.66C19.07 26.66 18.33 27.41 18.33 28.33C18.33 29.25 19.07 30 20 30ZM30 28.33C30 29.25 29.25 30 28.33 30C27.41 30 26.66 29.25 26.66 28.33C26.66 27.41 27.41 26.66 28.33 26.66C29.25 26.66 30 27.41 30 28.33Z" fill="#FFD200" fill-opacity="1.000000" fill-rule="evenodd"/>
	</g>
</svg>
