<svg width="32.000000" height="32.000000" viewBox="0 0 32 32" fill="none" xmlns="http://www.w3.org/2000/svg" xmlns:xlink="http://www.w3.org/1999/xlink">
	<desc>
			Created with Pixso.
	</desc>
	<defs>
		<clipPath id="clip19_1004">
			<rect id="Facebook - Negative" rx="0.000000" width="31.333334" height="31.333334" transform="translate(0.333333 0.333333)" fill="white" fill-opacity="0"/>
		</clipPath>
	</defs>
	<rect id="Facebook - Negative" rx="0.000000" width="31.333334" height="31.333334" transform="translate(0.333333 0.333333)" fill="#FFFFFF" fill-opacity="0"/>
	<g clip-path="url(#clip19_1004)">
		<path id="Vector" d="M32 16C32 7.16 24.83 0 16 0C7.16 0 0 7.16 0 16C0 23.98 5.85 30.6 13.5 31.8L13.5 20.62L9.43 20.62L9.43 16L13.5 16L13.5 12.47C13.5 8.46 15.88 6.25 19.54 6.25C21.29 6.25 23.12 6.56 23.12 6.56L23.12 10.5L21.1 10.5C19.12 10.5 18.5 11.73 18.5 13L18.5 16L22.93 16L22.22 20.62L18.5 20.62L18.5 31.8C26.14 30.6 32 23.98 32 16Z" fill="#063477" fill-opacity="1.000000" fill-rule="nonzero"/>
	</g>
</svg>
