<svg width="32.000000" height="32.000000" viewBox="0 0 32 32" fill="none" xmlns="http://www.w3.org/2000/svg" xmlns:xlink="http://www.w3.org/1999/xlink">
	<desc>
			Created with Pixso.
	</desc>
	<defs>
		<clipPath id="clip19_1005">
			<rect id="Instagram - Negative" rx="0.000000" width="31.333334" height="31.333334" transform="translate(0.333333 0.333333)" fill="white" fill-opacity="0"/>
		</clipPath>
	</defs>
	<rect id="Instagram - Negative" rx="0.000000" width="31.333334" height="31.333334" transform="translate(0.333333 0.333333)" fill="#FFFFFF" fill-opacity="0"/>
	<g clip-path="url(#clip19_1005)">
		<path id="Vector" d="M16 2.88C20.27 2.88 20.78 2.9 22.46 2.97C24.02 3.04 24.86 3.3 25.43 3.52C26.17 3.81 26.71 4.16 27.26 4.71C27.83 5.28 28.17 5.81 28.46 6.55C28.68 7.11 28.94 7.96 29.01 9.52C29.08 11.21 29.1 11.71 29.1 15.98C29.1 20.26 29.08 20.76 29.01 22.45C28.94 24.01 28.68 24.85 28.46 25.41C28.17 26.16 27.82 26.7 27.26 27.25C26.7 27.81 26.17 28.16 25.43 28.45C24.86 28.66 24.01 28.93 22.46 29C20.77 29.07 20.26 29.09 16 29.09C11.72 29.09 11.21 29.07 9.53 29C7.97 28.93 7.13 28.66 6.56 28.45C5.82 28.16 5.28 27.81 4.73 27.25C4.16 26.69 3.82 26.16 3.53 25.41C3.31 24.85 3.05 24 2.98 22.45C2.91 20.76 2.89 20.25 2.89 15.98C2.89 11.71 2.91 11.2 2.98 9.52C3.05 7.96 3.31 7.11 3.53 6.55C3.82 5.81 4.17 5.27 4.73 4.71C5.29 4.15 5.82 3.81 6.56 3.52C7.13 3.3 7.98 3.04 9.53 2.97C11.21 2.9 11.72 2.88 16 2.88ZM16 0C11.65 0 11.11 0.01 9.4 0.09C7.7 0.16 6.53 0.44 5.52 0.83C4.46 1.25 3.57 1.79 2.68 2.68C1.79 3.57 1.25 4.46 0.83 5.51C0.44 6.53 0.16 7.7 0.09 9.4C0.01 11.11 0 11.65 0 16C0 20.34 0.01 20.88 0.09 22.59C0.16 24.29 0.44 25.46 0.83 26.47C1.25 27.53 1.79 28.42 2.68 29.31C3.57 30.2 4.46 30.75 5.51 31.15C6.53 31.54 7.7 31.82 9.4 31.9C11.1 31.97 11.65 31.99 15.99 31.99C20.33 31.99 20.88 31.97 22.58 31.9C24.28 31.82 25.45 31.54 26.46 31.15C27.51 30.75 28.41 30.2 29.3 29.31C30.18 28.42 30.73 27.53 31.14 26.48C31.53 25.46 31.81 24.29 31.88 22.59C31.96 20.89 31.98 20.34 31.98 16C31.98 11.66 31.96 11.11 31.88 9.41C31.81 7.71 31.53 6.54 31.14 5.53C30.75 4.46 30.2 3.57 29.31 2.68C28.42 1.79 27.53 1.25 26.48 0.84C25.46 0.45 24.3 0.17 22.6 0.09C20.88 0.01 20.34 0 16 0Z" fill="#063477" fill-opacity="1.000000" fill-rule="nonzero"/>
		<path id="Vector" d="M15.99 7.78C11.46 7.78 7.78 11.46 7.78 16C7.78 20.53 11.46 24.21 15.99 24.21C20.53 24.21 24.21 20.53 24.21 16C24.21 11.46 20.53 7.78 15.99 7.78ZM15.99 21.33C13.05 21.33 10.66 18.94 10.66 16C10.66 13.05 13.05 10.66 15.99 10.66C18.94 10.66 21.33 13.05 21.33 16C21.33 18.94 18.94 21.33 15.99 21.33Z" fill="#063477" fill-opacity="1.000000" fill-rule="nonzero"/>
		<path id="Vector" d="M26.46 7.45C26.46 8.51 25.59 9.37 24.54 9.37C23.48 9.37 22.62 8.51 22.62 7.45C22.62 6.39 23.48 5.53 24.54 5.53C25.59 5.53 26.46 6.4 26.46 7.45Z" fill="#063477" fill-opacity="1.000000" fill-rule="nonzero"/>
	</g>
</svg>
