<svg width="40.000000" height="40.000000" viewBox="0 0 40 40" fill="none" xmlns="http://www.w3.org/2000/svg" xmlns:xlink="http://www.w3.org/1999/xlink">
	<desc>
			Created with Pixso.
	</desc>
	<defs>
		<clipPath id="clip19_1103">
			<rect id="Bold" rx="0.000000" width="38.333332" height="38.333332" transform="translate(0.833333 0.833333)" fill="white" fill-opacity="0"/>
		</clipPath>
	</defs>
	<g clip-path="url(#clip19_1103)">
		<path id="Vector" d="M20 3.33C12.63 3.33 6.66 10 6.66 17.5C6.66 24.93 10.92 33.02 17.56 36.12C19.1 36.84 20.89 36.84 22.43 36.12C29.07 33.02 33.33 24.93 33.33 17.5C33.33 10 27.36 3.33 20 3.33ZM20 20C21.84 20 23.33 18.5 23.33 16.66C23.33 14.82 21.84 13.33 20 13.33C18.15 13.33 16.66 14.82 16.66 16.66C16.66 18.5 18.15 20 20 20Z" fill="#FFD200" fill-opacity="1.000000" fill-rule="evenodd"/>
	</g>
</svg>
