<svg width="286.000000" height="80.000000" viewBox="0 0 286 80" fill="none" xmlns="http://www.w3.org/2000/svg" xmlns:xlink="http://www.w3.org/1999/xlink">
	<desc>
			Created with Pixso.
	</desc>
	<defs>
		<clipPath id="clip49_474">
			<rect id="MinLOgo" rx="0.000000" width="285.000000" height="79.000000" transform="translate(0.500000 0.500000)" fill="white" fill-opacity="0"/>
		</clipPath>
	</defs>
	<g clip-path="url(#clip49_474)">
		<path id="Vector" d="M22.82 1.62C21.05 3.63 19.96 6.27 19.96 9.17C20.07 15.53 20.85 21.88 20.92 28.22C21.06 34.15 19.28 39.72 17.13 45.15C16.41 46.65 15.63 48.11 14.85 49.59L12.57 49.12C10.51 48.71 9.17 46.71 9.58 44.64C9.94 42.84 11.53 41.57 13.3 41.57L14.13 41.66L12.27 26.11C11.66 19.2 8.1 13.12 2.85 9.17C1.95 8.49 0.99 7.87 0 7.32L0 62.53L12.72 62.53C13.67 67.7 16.52 72.21 20.51 75.3C21.46 75.96 22.26 76.82 22.83 77.83C23.41 76.82 24.2 75.96 25.15 75.3C29.15 72.21 31.99 67.7 32.95 62.53L45.67 62.53L45.67 7.32C44.68 7.87 43.72 8.49 42.82 9.17C37.57 13.12 34.01 19.2 33.4 26.11L31.54 41.66L32.37 41.57C34.14 41.58 35.73 42.84 36.09 44.64C36.5 46.71 35.16 48.71 33.1 49.12L30.82 49.59C30.04 48.12 29.26 46.65 28.54 45.15C26.38 39.72 24.61 34.16 24.75 28.22C24.82 21.86 25.6 15.51 25.7 9.17C25.7 6.27 24.62 3.64 22.85 1.62L22.82 1.62ZM3.79 15.28C6.25 18.18 7.9 21.78 8.39 25.75L9.92 38.57C7.97 39.55 6.49 41.33 5.93 43.49L3.77 43.49L3.77 15.28L3.79 15.28ZM41.85 15.28L41.85 43.49L39.7 43.49C39.14 41.33 37.66 39.54 35.71 38.57L37.23 25.75C37.73 21.78 39.38 18.17 41.84 15.28L41.85 15.28ZM22.82 41.07C23.84 44.41 25.25 47.6 27 50.55C25.33 51.06 23.89 52.04 22.82 53.37C21.75 52.04 20.31 51.06 18.64 50.55C20.39 47.59 21.8 44.41 22.82 41.07ZM3.79 47.3L5.94 47.3C6.62 49.94 8.68 52.01 11.27 52.74L13.1 53.16C12.61 54.93 12.34 56.8 12.34 58.74L3.78 58.74L3.78 47.31L3.79 47.3ZM39.7 47.3L41.86 47.3L41.86 58.74L33.29 58.74C33.29 56.81 33.02 54.93 32.54 53.16L34.36 52.74C36.97 52.01 39.02 49.93 39.69 47.3L39.7 47.3ZM16.82 54.03C19.13 54.36 20.91 56.34 20.91 58.74L16.15 58.74C16.15 57.1 16.4 55.53 16.82 54.03ZM28.81 54.03C29.24 55.53 29.48 57.1 29.48 58.74L24.72 58.74C24.72 56.33 26.5 54.36 28.81 54.03ZM16.59 62.55L20.92 62.55L20.92 70.57C18.82 68.37 17.3 65.62 16.59 62.55ZM24.72 62.55L29.05 62.55C28.35 65.62 26.82 68.38 24.72 70.57L24.72 62.55Z" fill="#FFFFFF" fill-opacity="1.000000" fill-rule="nonzero"/>
		<rect id="Rectangle 1" x="56.555786" width="4.350443" height="40.000000" fill="#265AA5" fill-opacity="1.000000"/>
		<rect id="Rectangle 2" x="56.555786" y="40.000000" width="4.350443" height="40.000000" fill="#FBD81C" fill-opacity="1.000000"/>
		<path id="МІНІСТЕРСТВО МОЛОДІ ТА СПОРТУ УКРАЇНИ" d="M128.67 12L130.09 12C129.73 13.35 128.96 14.55 127.78 15.61C126.61 16.66 125.17 17.18 123.45 17.18Q121.8 17.18 120.43 16.55Q119.27 16.02 118.32 15.02Q117.81 14.47 117.42 13.85Q116.28 11.98 116.28 9.4Q116.28 6.8 117.44 4.94Q117.82 4.33 118.32 3.8Q119.29 2.78 120.48 2.23Q121.82 1.62 123.45 1.62C125.19 1.62 126.64 2.14 127.78 3.17Q129.26 4.48 129.89 6.11L129.89 6.11Q130 6.4 130.09 6.7L128.67 6.7C128.56 6.41 128.43 6.13 128.28 5.85C128.14 5.57 127.91 5.23 127.61 4.86C127.3 4.48 126.97 4.17 126.61 3.91C126.26 3.63 125.8 3.4 125.24 3.22Q124.41 2.91 123.45 2.91C121.79 2.91 120.39 3.52 119.26 4.73C118.14 5.93 117.58 7.48 117.58 9.4C117.58 11.32 118.14 12.88 119.26 14.09C120.39 15.29 121.79 15.89 123.45 15.89C124.27 15.89 125.01 15.74 125.67 15.45C126.34 15.17 126.87 14.8 127.26 14.35C127.67 13.89 127.97 13.47 128.17 13.1C128.39 12.72 128.56 12.36 128.67 12ZM186.75 12L188.16 12C187.8 13.35 187.03 14.55 185.86 15.61C184.68 16.66 183.24 17.18 181.53 17.18C179.48 17.18 177.77 16.46 176.4 15.02C175.03 13.57 174.35 11.69 174.35 9.4C174.35 7.11 175.03 5.24 176.4 3.8C177.77 2.34 179.48 1.62 181.53 1.62C183.27 1.62 184.71 2.14 185.86 3.17C187.02 4.2 187.79 5.37 188.16 6.7L186.75 6.7C186.63 6.41 186.5 6.13 186.36 5.85C186.21 5.57 185.99 5.23 185.68 4.86C185.38 4.48 185.05 4.17 184.68 3.91C184.33 3.63 183.88 3.4 183.31 3.22C182.76 3.01 182.17 2.91 181.53 2.91Q180.25 2.91 179.19 3.39Q178.16 3.84 177.33 4.73C176.21 5.93 175.66 7.48 175.66 9.4C175.66 11.32 176.21 12.88 177.33 14.09Q178.14 14.95 179.14 15.4Q180.23 15.89 181.53 15.89Q182.75 15.89 183.75 15.45C184.41 15.17 184.94 14.8 185.34 14.35C185.74 13.89 186.05 13.47 186.25 13.1C186.47 12.72 186.63 12.36 186.75 12ZM220.77 3.8C222.15 2.34 223.86 1.62 225.91 1.62C227.95 1.62 229.66 2.34 231.02 3.8C232.4 5.24 233.09 7.11 233.09 9.4C233.09 11.69 232.4 13.57 231.02 15.02C229.66 16.46 227.95 17.18 225.91 17.18C223.86 17.18 222.15 16.46 220.77 15.02C219.41 13.57 218.73 11.69 218.73 9.4C218.73 7.11 219.41 5.24 220.77 3.8ZM68.84 16.97L68.84 1.83L71.34 1.83L76.45 15.67L76.89 15.67L82 1.83L84.5 1.83L84.5 16.97L83.2 16.97L83.2 3.45L82.76 3.45L77.76 16.97L75.58 16.97L70.58 3.45L70.15 3.45L70.15 16.97L68.84 16.97ZM89.08 16.97L89.08 1.83L90.38 1.83L90.38 16.97L89.08 16.97ZM94.96 16.97L94.96 1.83L96.26 1.83L96.26 8.64L105.29 8.64L105.29 1.83L106.59 1.83L106.59 16.97L105.29 16.97L105.29 9.94L96.26 9.94L96.26 16.97L94.96 16.97ZM111.16 16.97L111.16 1.83L112.46 1.83L112.46 16.97L111.16 16.97ZM137.18 16.97L137.18 3.13L131.96 3.13L131.96 1.83L143.7 1.83L143.7 3.13L138.48 3.13L138.48 16.97L137.18 16.97ZM146.96 16.97L146.96 1.83L156.53 1.83L156.53 3.13L148.26 3.13L148.26 8.75L156.09 8.75L156.09 10.05L148.26 10.05L148.26 15.67L156.53 15.67L156.53 16.97L146.96 16.97ZM160.55 16.97L160.55 1.83L166.85 1.83C168.12 1.83 169.17 2.27 170.03 3.15C170.89 4.03 171.31 5.14 171.31 6.48C171.31 7.82 170.89 8.92 170.05 9.77C169.22 10.6 168.16 11.02 166.85 11.02L161.85 11.02L161.85 16.97L160.55 16.97ZM195.25 16.97L195.25 3.13L190.03 3.13L190.03 1.83L201.78 1.83L201.78 3.13L196.56 3.13L196.56 16.97L195.25 16.97ZM205.03 16.97L205.03 1.83L211.23 1.83C212.43 1.83 213.42 2.22 214.19 3C214.97 3.78 215.36 4.76 215.36 5.94C215.36 6.98 215.05 7.85 214.43 8.56C214.18 8.85 213.88 9.09 213.51 9.29L213.51 9.4Q213.64 9.46 213.76 9.53L213.76 9.53Q214.18 9.76 214.54 10.11C215.23 10.81 215.58 11.72 215.58 12.86Q215.58 13.95 215.14 14.81Q214.86 15.35 214.41 15.8C213.64 16.58 212.65 16.97 211.45 16.97L205.03 16.97ZM221.71 14.09C222.84 15.29 224.24 15.89 225.91 15.89C227.58 15.89 228.97 15.29 230.08 14.09Q230.49 13.66 230.8 13.17Q231.78 11.59 231.78 9.4Q231.78 7.19 230.78 5.62Q230.48 5.15 230.08 4.73C228.97 3.52 227.58 2.91 225.91 2.91C224.24 2.91 222.84 3.52 221.71 4.73Q221.34 5.12 221.06 5.56L221.06 5.56Q220.03 7.15 220.03 9.4C220.03 11.32 220.59 12.88 221.71 14.09ZM161.85 9.72L166.85 9.72Q167.81 9.72 168.52 9.31Q168.84 9.12 169.12 8.84C169.71 8.25 170.01 7.46 170.01 6.48C170.01 5.46 169.72 4.64 169.14 4.04C168.56 3.43 167.8 3.13 166.85 3.13L161.85 3.13L161.85 9.72ZM206.34 8.75L211.23 8.75C212.06 8.75 212.73 8.49 213.25 7.97Q213.54 7.68 213.73 7.34Q214.06 6.73 214.06 5.94Q214.06 5.13 213.71 4.52Q213.53 4.2 213.25 3.93C212.73 3.4 212.06 3.13 211.23 3.13L206.34 3.13L206.34 8.75ZM206.34 15.67L211.45 15.67C212.27 15.67 212.95 15.41 213.47 14.89C214.01 14.36 214.28 13.68 214.28 12.86C214.28 12 214.02 11.31 213.51 10.81C213.01 10.3 212.32 10.05 211.45 10.05L206.34 10.05L206.34 15.67ZM90.36 34.61C91.74 33.16 93.45 32.43 95.5 32.43Q97.15 32.43 98.51 33.06Q99.67 33.61 100.61 34.61C101.99 36.05 102.67 37.92 102.67 40.21C102.67 42.5 101.99 44.38 100.61 45.83C99.24 47.27 97.54 48 95.5 48C93.45 48 91.74 47.27 90.36 45.83C89 44.38 88.32 42.5 88.32 40.21C88.32 37.92 89 36.05 90.36 34.61ZM122.66 34.61C124.04 33.16 125.75 32.43 127.79 32.43C129.84 32.43 131.54 33.16 132.91 34.61C134.28 36.05 134.97 37.92 134.97 40.21C134.97 42.5 134.28 44.38 132.91 45.83C131.54 47.27 129.84 48 127.79 48C125.75 48 124.04 47.27 122.66 45.83C121.3 44.38 120.62 42.5 120.62 40.21C120.62 37.92 121.3 36.05 122.66 34.61ZM208.79 42.81L210.2 42.81C209.84 44.16 209.07 45.36 207.9 46.42C206.72 47.47 205.28 48 203.57 48C201.52 48 199.81 47.27 198.43 45.83C197.07 44.38 196.39 42.5 196.39 40.21C196.39 37.92 197.07 36.05 198.43 34.61C199.81 33.16 201.52 32.43 203.57 32.43C205.31 32.43 206.75 32.95 207.9 33.98C209.06 35.01 209.82 36.18 210.2 37.51L208.79 37.51C208.67 37.22 208.54 36.94 208.4 36.67C208.25 36.38 208.03 36.05 207.72 35.67C207.42 35.3 207.08 34.98 206.72 34.72C206.37 34.45 205.92 34.21 205.35 34.03C204.8 33.83 204.2 33.72 203.57 33.72C201.9 33.72 200.5 34.33 199.37 35.54C198.25 36.74 197.69 38.29 197.69 40.21C197.69 42.13 198.25 43.69 199.37 44.9C200.5 46.1 201.9 46.7 203.57 46.7C204.38 46.7 205.12 46.55 205.79 46.27C206.45 45.98 206.98 45.61 207.37 45.16C207.78 44.7 208.08 44.28 208.29 43.91C208.5 43.53 208.67 43.17 208.79 42.81ZM231.28 34.61C232.66 33.16 234.37 32.43 236.42 32.43C238.46 32.43 240.17 33.16 241.53 34.61C242.91 36.05 243.59 37.92 243.59 40.21C243.59 42.5 242.91 44.38 241.53 45.83C240.17 47.27 238.46 48 236.42 48C234.37 48 232.66 47.27 231.28 45.83C229.92 44.38 229.24 42.5 229.24 40.21C229.24 37.92 229.92 36.05 231.28 34.61ZM68.84 47.78L68.84 32.64L71.34 32.64L76.45 46.48L76.89 46.48L82 32.64L84.5 32.64L84.5 47.78L83.2 47.78L83.2 34.27L82.76 34.27L77.76 47.78L75.58 47.78L70.58 34.27L70.15 34.27L70.15 47.78L68.84 47.78ZM104.09 47.89L104.09 46.59L104.74 46.59C105.31 46.59 105.76 46.42 106.09 46.09C106.44 45.76 106.64 45.28 106.7 44.64L107.72 32.64L116.81 32.64L116.81 47.78L115.51 47.78L115.51 33.94L108.92 33.94L108 44.64C107.8 46.81 106.71 47.89 104.74 47.89L104.09 47.89ZM136.81 50.81L136.81 46.48L136.92 46.48C137.6 46.48 138.1 46.32 138.42 46.01C138.74 45.69 138.93 45.2 138.99 44.54L140.03 32.64L149.1 32.64L149.1 46.48L150.84 46.48L150.84 50.81L149.54 50.81L149.54 47.78L138.12 47.78L138.12 50.81L136.81 50.81ZM154.1 47.78L154.1 32.64L155.4 32.64L155.4 47.78L154.1 47.78ZM168.77 47.78L168.77 33.94L163.55 33.94L163.55 32.64L175.3 32.64L175.3 33.94L170.08 33.94L170.08 47.78L168.77 47.78ZM175.41 47.78L181.17 32.64L183.13 32.64L188.89 47.78L187.59 47.78L186.02 43.67L178.28 43.67L176.71 47.78L175.41 47.78ZM213.8 47.78L213.8 32.64L225.44 32.64L225.44 47.78L224.13 47.78L224.13 33.94L215.1 33.94L215.1 47.78L213.8 47.78ZM247.39 47.78L247.39 32.64L253.7 32.64C254.96 32.64 256.02 33.08 256.88 33.96C257.73 34.84 258.16 35.95 258.16 37.29C258.16 38.63 257.74 39.73 256.9 40.58C256.07 41.41 255 41.83 253.7 41.83L248.7 41.83L248.7 47.78L247.39 47.78ZM265.45 47.78L265.45 33.94L260.23 33.94L260.23 32.64L271.97 32.64L271.97 33.94L266.75 33.94L266.75 47.78L265.45 47.78ZM275.45 47.78L275.45 46.48L277.4 46.48C277.97 46.48 278.37 46.24 278.6 45.75L279.23 44.36L273.6 32.64L275.01 32.64L279.69 42.37L280.14 42.37L284.58 32.64L286 32.64L279.69 46.48C279.47 46.93 279.19 47.26 278.84 47.48C278.51 47.68 278.03 47.78 277.4 47.78L275.45 47.78ZM91.3 44.9Q92.11 45.76 93.11 46.21Q94.19 46.7 95.5 46.7Q96.82 46.7 97.91 46.19Q98.88 45.75 99.67 44.9C100.8 43.69 101.37 42.13 101.37 40.21C101.37 38.29 100.8 36.74 99.67 35.54C98.56 34.33 97.16 33.72 95.5 33.72C93.83 33.72 92.43 34.33 91.3 35.54C90.18 36.74 89.62 38.29 89.62 40.21C89.62 42.13 90.18 43.69 91.3 44.9ZM123.6 44.9Q124.41 45.76 125.41 46.21Q126.49 46.7 127.79 46.7C129.46 46.7 130.85 46.1 131.97 44.9C133.1 43.69 133.67 42.13 133.67 40.21C133.67 38.29 133.1 36.74 131.97 35.54C130.85 34.33 129.46 33.72 127.79 33.72C126.13 33.72 124.73 34.33 123.6 35.54C122.48 36.74 121.92 38.29 121.92 40.21C121.92 42.13 122.48 43.69 123.6 44.9ZM232.22 44.9C233.35 46.1 234.75 46.7 236.42 46.7C238.08 46.7 239.48 46.1 240.59 44.9C241.72 43.69 242.29 42.13 242.29 40.21C242.29 38.29 241.72 36.74 240.59 35.54C239.48 34.33 238.08 33.72 236.42 33.72C234.75 33.72 233.35 34.33 232.22 35.54C231.1 36.74 230.54 38.29 230.54 40.21C230.54 42.13 231.1 43.69 232.22 44.9ZM139.53 46.48L147.8 46.48L147.8 33.94L141.23 33.94L140.29 44.54C140.22 45.24 140.07 45.77 139.86 46.11C139.74 46.29 139.63 46.41 139.53 46.48ZM248.7 40.54L253.7 40.54C254.63 40.54 255.38 40.24 255.96 39.65C256.56 39.06 256.85 38.27 256.85 37.29C256.85 36.27 256.56 35.45 255.98 34.85C255.4 34.24 254.64 33.94 253.7 33.94L248.7 33.94L248.7 40.54ZM178.78 42.37L185.52 42.37L182.37 34.05L181.93 34.05L178.78 42.37ZM121.16 61.08L121.16 59.56L122.68 59.56L122.68 61.08L121.16 61.08ZM124.85 61.08L124.85 59.56L126.38 59.56L126.38 61.08L124.85 61.08ZM69.06 78.59L69.06 77.29L71.02 77.29C71.58 77.29 71.98 77.05 72.21 76.56L72.84 75.17L67.21 63.45L68.62 63.45L73.3 73.18L73.76 73.18L78.19 63.45L79.61 63.45L73.3 77.29C73.08 77.74 72.8 78.07 72.45 78.29C72.12 78.49 71.64 78.59 71.02 78.59L69.06 78.59ZM82.54 78.59L82.54 63.45L83.84 63.45L83.84 70.59L90.69 63.45L92.43 63.45L85.26 70.91L92.87 78.59L91.13 78.59L83.84 71.24L83.84 78.59L82.54 78.59ZM95.49 78.59L95.49 63.45L101.8 63.45C103.06 63.45 104.12 63.89 104.97 64.77C105.83 65.65 106.26 66.76 106.26 68.1C106.26 69.44 105.84 70.54 104.99 71.39C104.17 72.23 103.1 72.64 101.8 72.64L96.79 72.64L96.79 78.59L95.49 78.59ZM106.91 78.59L112.67 63.45L114.63 63.45L120.4 78.59L119.09 78.59L117.53 74.48L109.78 74.48L108.22 78.59L106.91 78.59ZM123.11 78.59L123.11 63.45L124.42 63.45L124.42 78.59L123.11 78.59ZM128.99 78.59L128.99 63.45L130.3 63.45L130.3 70.27L139.32 70.27L139.32 63.45L140.63 63.45L140.63 78.59L139.32 78.59L139.32 71.56L130.3 71.56L130.3 78.59L128.99 78.59ZM145.19 78.59L145.19 63.45L146.5 63.45L146.5 77.18L146.93 77.18L154.44 63.45L156.83 63.45L156.83 78.59L155.53 78.59L155.53 64.86L155.09 64.86L147.59 78.59L145.19 78.59ZM96.79 71.35L101.8 71.35C102.72 71.35 103.48 71.05 104.06 70.46C104.65 69.87 104.95 69.08 104.95 68.1C104.95 67.08 104.66 66.27 104.08 65.66C103.5 65.05 102.74 64.75 101.8 64.75L96.79 64.75L96.79 71.35ZM110.28 73.18L117.02 73.18L113.87 64.86L113.44 64.86L110.28 73.18Z" fill="#FFFFFF" fill-opacity="1.000000" fill-rule="evenodd"/>
	</g>
</svg>
