<svg width="285.738525" height="56.000000" viewBox="0 0 285.739 56" fill="none" xmlns="http://www.w3.org/2000/svg" xmlns:xlink="http://www.w3.org/1999/xlink">
	<desc>
			Created with Pixso.
	</desc>
	<defs>
		<clipPath id="clip49_489">
			<rect id="logo" rx="0.000000" width="284.431366" height="54.692810" transform="translate(0.653595 0.653595)" fill="white" fill-opacity="0"/>
		</clipPath>
	</defs>
	<rect id="logo" rx="0.000000" width="284.431366" height="54.692810" transform="translate(0.653595 0.653595)" fill="#FFFFFF" fill-opacity="0"/>
	<g clip-path="url(#clip49_489)">
		<path id="Vector" d="M0 27.97C0 12.53 12.58 0 28.02 0C43.46 0 56.01 12.53 56.01 27.97C56.01 43.41 43.46 56 28.02 56C12.58 56 0 43.46 0 27.97ZM29.2 13.38L29.2 27.97C29.2 31.35 31.92 34.1 35.33 34.1C38.74 34.1 41.38 31.35 41.38 27.97L41.38 13.38C41.38 10 38.66 7.28 35.33 7.28C32 7.28 29.2 10 29.2 13.38Z" fill="#FFFFFF" fill-opacity="1.000000" fill-rule="evenodd"/>
		<path id="Vector" d="M232.73 36.33L232.73 37.24C232.73 38.59 231.63 39.69 230.28 39.69L229.26 39.69C227.92 39.69 226.82 38.59 226.82 37.24L226.82 36.33C226.82 34.98 227.92 33.88 229.26 33.88L230.28 33.88C231.63 33.88 232.73 34.98 232.73 36.33Z" fill="#FFFFFF" fill-opacity="1.000000" fill-rule="nonzero"/>
		<path id="Vector" d="M242.09 12.8L242.09 39.68L236.74 39.68L236.74 12.8L242.09 12.8Z" fill="#FFFFFF" fill-opacity="1.000000" fill-rule="nonzero"/>
		<path id="Vector" d="M246.05 17.2L246.05 12.8L251.4 12.8L251.4 17.2L246.05 17.2ZM251.4 20.21L251.4 39.67L246.05 39.67L246.05 20.21L251.4 20.21Z" fill="#FFFFFF" fill-opacity="1.000000" fill-rule="nonzero"/>
		<path id="Vector" d="M253.36 23.79L253.36 20.21L256.56 20.21L256.56 18.7C256.56 16.98 257.09 15.55 258.18 14.46C259.26 13.36 260.89 12.8 263.07 12.8C263.54 12.8 264.02 12.81 264.49 12.85C264.96 12.89 265.43 12.91 265.89 12.94L265.89 16.93C265.26 16.85 264.61 16.81 263.93 16.81C263.2 16.81 262.68 16.98 262.36 17.32C262.05 17.66 261.89 18.23 261.89 19.03L261.89 20.19L265.58 20.19L265.58 23.78L261.89 23.78L261.89 39.66L256.54 39.66L256.54 23.78L253.34 23.78L253.36 23.79Z" fill="#FFFFFF" fill-opacity="1.000000" fill-rule="nonzero"/>
		<path id="Vector" d="M272.98 35C273.78 35.79 274.94 36.17 276.44 36.17C277.53 36.17 278.46 35.89 279.23 35.36C280 34.82 280.48 34.25 280.65 33.64L285.36 33.64C284.6 35.98 283.45 37.64 281.89 38.65C280.34 39.66 278.46 40.15 276.25 40.15C274.72 40.15 273.33 39.91 272.1 39.42C270.87 38.94 269.83 38.23 268.98 37.33C268.13 36.43 267.46 35.34 267 34.09C266.53 32.83 266.31 31.45 266.31 29.95C266.31 28.44 266.55 27.13 267.03 25.88C267.5 24.63 268.18 23.54 269.07 22.63C269.95 21.71 270.99 20.99 272.22 20.46C273.44 19.93 274.78 19.67 276.27 19.67C277.93 19.67 279.37 19.98 280.6 20.63C281.83 21.27 282.83 22.13 283.63 23.2C284.42 24.29 284.99 25.51 285.34 26.89C285.7 28.27 285.82 29.71 285.72 31.21L271.68 31.21C271.76 32.94 272.19 34.21 273 34.98L272.98 35ZM279.02 24.77C278.38 24.06 277.41 23.71 276.1 23.71C275.25 23.71 274.53 23.85 273.97 24.14C273.41 24.43 272.95 24.78 272.61 25.21C272.27 25.64 272.04 26.09 271.89 26.57C271.75 27.04 271.67 27.47 271.65 27.85L280.34 27.85C280.09 26.49 279.65 25.47 279 24.77L279.02 24.77Z" fill="#FFFFFF" fill-opacity="1.000000" fill-rule="nonzero"/>
		<path id="Vector" d="M83.83 30.16C83.83 37.07 78.92 40.23 73.87 40.23C68.35 40.23 64.1 36.6 64.1 30.51C64.1 24.42 68.11 20.47 74.22 20.47C79.97 20.47 83.83 24.44 83.83 30.16ZM70.17 30.35C70.17 33.59 71.51 36.03 74.02 36.03C76.34 36.03 77.76 33.75 77.76 30.31C77.76 27.53 76.68 24.68 74.02 24.68C71.37 24.68 70.17 27.57 70.17 30.35Z" fill="#FFFFFF" fill-opacity="1.000000" fill-rule="nonzero"/>
		<path id="Vector" d="M87.46 27.15C87.46 24.37 87.42 22.56 87.3 20.94L92.32 20.94L92.56 24.42L92.72 24.42C93.68 21.63 95.96 20.48 97.81 20.48C98.35 20.48 98.62 20.52 99.04 20.6L99.04 26.12C98.58 26.04 98.11 25.96 97.46 25.96C95.3 25.96 93.83 27.12 93.45 28.93C93.37 29.32 93.33 29.78 93.33 30.23L93.33 39.8L87.46 39.8L87.46 27.15Z" fill="#FFFFFF" fill-opacity="1.000000" fill-rule="nonzero"/>
		<path id="Vector" d="M109.5 15.84L109.5 20.94L113.71 20.94L113.71 25.27L109.5 25.27L109.5 32.1C109.5 34.38 110.07 35.42 111.81 35.42C112.62 35.42 113.02 35.39 113.55 35.27L113.59 39.71C112.86 39.99 111.43 40.21 109.81 40.21C107.92 40.21 106.34 39.56 105.37 38.59C104.28 37.46 103.75 35.66 103.75 32.99L103.75 25.27L101.24 25.27L101.24 20.94L103.75 20.94L103.75 17.42L109.5 15.84Z" fill="#FFFFFF" fill-opacity="1.000000" fill-rule="nonzero"/>
		<path id="Vector" d="M117.09 12.41L122.96 12.41L122.96 23.22L123.04 23.22C123.66 22.37 124.43 21.71 125.35 21.24C126.24 20.78 127.33 20.51 128.4 20.51C132.14 20.51 135 23.1 135 28.81L135 39.8L129.13 39.8L129.13 29.42C129.13 26.95 128.28 25.25 126.09 25.25C124.54 25.25 123.58 26.26 123.16 27.33C123 27.69 122.96 28.18 122.96 28.6L122.96 39.79L117.09 39.79L117.09 12.41Z" fill="#FFFFFF" fill-opacity="1.000000" fill-rule="nonzero"/>
		<path id="Vector" d="M158.36 30.16C158.36 37.07 153.46 40.23 148.4 40.23C142.88 40.23 138.64 36.6 138.64 30.51C138.64 24.42 142.65 20.47 148.75 20.47C154.5 20.47 158.36 24.44 158.36 30.16ZM144.69 30.35C144.69 33.59 146.03 36.03 148.54 36.03C150.86 36.03 152.28 33.75 152.28 30.31C152.28 27.53 151.2 24.68 148.54 24.68C145.89 24.68 144.69 27.57 144.69 30.35Z" fill="#FFFFFF" fill-opacity="1.000000" fill-rule="nonzero"/>
		<path id="Vector" d="M161.98 26.95C161.98 24.6 161.91 22.63 161.83 20.93L166.81 20.93L167.04 23.48L167.16 23.48C167.97 22.25 169.67 20.47 172.87 20.47C175.34 20.47 177.24 21.74 178.05 23.71L178.13 23.71C178.86 22.71 179.67 21.93 180.6 21.4C181.64 20.82 182.79 20.47 184.19 20.47C187.83 20.47 190.56 23.02 190.56 28.69L190.56 39.8L184.85 39.8L184.85 29.54C184.85 26.8 183.96 25.21 182.06 25.21C180.68 25.21 179.75 26.14 179.32 27.25C179.2 27.67 179.12 28.26 179.12 28.76L179.12 39.79L173.41 39.79L173.41 29.18C173.41 26.82 172.56 25.2 170.66 25.2C169.16 25.2 168.27 26.37 167.92 27.28C167.72 27.74 167.68 28.29 167.68 28.78L167.68 39.78L161.97 39.78L161.97 26.93L161.98 26.95Z" fill="#FFFFFF" fill-opacity="1.000000" fill-rule="nonzero"/>
		<path id="Vector" d="M213.83 30.16C213.83 37.07 208.92 40.23 203.87 40.23C198.35 40.23 194.1 36.6 194.1 30.51C194.1 24.42 198.11 20.47 204.22 20.47C209.97 20.47 213.83 24.44 213.83 30.16ZM200.15 30.35C200.15 33.59 201.5 36.03 204.01 36.03C206.32 36.03 207.75 33.75 207.75 30.31C207.75 27.53 206.66 24.68 204.01 24.68C201.36 24.68 200.15 27.57 200.15 30.35Z" fill="#FFFFFF" fill-opacity="1.000000" fill-rule="nonzero"/>
		<path id="Vector" d="M217.45 12.41L223.32 12.41L223.32 39.8L217.45 39.8L217.45 12.41Z" fill="#FFFFFF" fill-opacity="1.000000" fill-rule="nonzero"/>
	</g>
</svg>
