<svg width="222.596680" height="43.625000" viewBox="0 0 222.597 43.625" fill="none" xmlns="http://www.w3.org/2000/svg" xmlns:xlink="http://www.w3.org/1999/xlink">
	<desc>
			Created with Pixso.
	</desc>
	<defs>
		<clipPath id="clip19_1008">
			<rect id="logo" rx="0.000000" width="221.578415" height="42.606926" transform="translate(0.509165 0.509165)" fill="white" fill-opacity="0"/>
		</clipPath>
	</defs>
	<rect id="logo" rx="0.000000" width="221.578415" height="42.606926" transform="translate(0.509165 0.509165)" fill="#FFFFFF" fill-opacity="0"/>
	<g clip-path="url(#clip19_1008)">
		<path id="Vector" d="M0 21.79C0 9.76 9.8 0 21.83 0C33.85 0 43.63 9.76 43.63 21.79C43.63 33.81 33.85 43.62 21.83 43.62C9.8 43.62 0 33.85 0 21.79ZM22.74 10.42L22.74 21.79C22.74 24.42 24.86 26.56 27.52 26.56C30.18 26.56 32.24 24.42 32.24 21.79L32.24 10.42C32.24 7.79 30.12 5.67 27.52 5.67C24.92 5.67 22.74 7.79 22.74 10.42Z" fill="#063477" fill-opacity="1.000000" fill-rule="evenodd"/>
		<path id="Vector" d="M181.3 28.3L181.3 29.01C181.3 30.06 180.44 30.91 179.4 30.91L178.6 30.91C177.55 30.91 176.7 30.06 176.7 29.01L176.7 28.3C176.7 27.25 177.55 26.39 178.6 26.39L179.4 26.39C180.44 26.39 181.3 27.25 181.3 28.3Z" fill="#063477" fill-opacity="1.000000" fill-rule="nonzero"/>
		<path id="Vector" d="M188.59 9.97L188.59 30.91L184.43 30.91L184.43 9.97L188.59 9.97Z" fill="#063477" fill-opacity="1.000000" fill-rule="nonzero"/>
		<path id="Vector" d="M191.68 13.4L191.68 9.97L195.84 9.97L195.84 13.4L191.68 13.4ZM195.84 15.74L195.84 30.9L191.68 30.9L191.68 15.74L195.84 15.74Z" fill="#063477" fill-opacity="1.000000" fill-rule="nonzero"/>
		<path id="Vector" d="M197.37 18.53L197.37 15.74L199.86 15.74L199.86 14.57C199.86 13.23 200.28 12.12 201.13 11.26C201.97 10.41 203.23 9.97 204.94 9.97C205.3 9.97 205.68 9.98 206.05 10.01C206.41 10.04 206.78 10.06 207.14 10.08L207.14 13.19C206.65 13.12 206.14 13.09 205.61 13.09C205.04 13.09 204.63 13.23 204.39 13.49C204.14 13.76 204.02 14.2 204.02 14.83L204.02 15.73L206.89 15.73L206.89 18.52L204.02 18.52L204.02 30.89L199.85 30.89L199.85 18.52L197.36 18.52L197.37 18.53Z" fill="#063477" fill-opacity="1.000000" fill-rule="nonzero"/>
		<path id="Vector" d="M212.66 27.27C213.28 27.88 214.18 28.17 215.35 28.17C216.2 28.17 216.92 27.96 217.52 27.54C218.12 27.13 218.5 26.68 218.63 26.21L222.3 26.21C221.71 28.03 220.81 29.33 219.6 30.11C218.39 30.89 216.92 31.28 215.2 31.28C214.01 31.28 212.93 31.09 211.97 30.71C211.02 30.33 210.2 29.78 209.54 29.08C208.88 28.38 208.36 27.53 208 26.56C207.64 25.58 207.46 24.5 207.46 23.33C207.46 22.16 207.65 21.14 208.02 20.16C208.39 19.18 208.92 18.34 209.61 17.62C210.29 16.91 211.11 16.35 212.06 15.93C213.01 15.53 214.06 15.32 215.22 15.32C216.52 15.32 217.64 15.57 218.59 16.07C219.55 16.57 220.33 17.24 220.95 18.07C221.57 18.92 222.01 19.87 222.29 20.94C222.56 22.02 222.66 23.14 222.58 24.32L211.65 24.32C211.71 25.66 212.04 26.65 212.68 27.25L212.66 27.27ZM217.36 19.29C216.86 18.75 216.11 18.47 215.09 18.47C214.43 18.47 213.87 18.58 213.43 18.81C212.99 19.03 212.64 19.3 212.37 19.64C212.11 19.98 211.92 20.32 211.81 20.7C211.7 21.07 211.64 21.4 211.62 21.7L218.39 21.7C218.2 20.64 217.85 19.84 217.35 19.29L217.36 19.29Z" fill="#063477" fill-opacity="1.000000" fill-rule="nonzero"/>
		<path id="Vector" d="M65.3 23.49C65.3 28.88 61.48 31.34 57.54 31.34C53.24 31.34 49.93 28.51 49.93 23.77C49.93 19.02 53.06 15.95 57.82 15.95C62.3 15.95 65.3 19.04 65.3 23.49ZM54.66 23.64C54.66 26.17 55.71 28.06 57.66 28.06C59.47 28.06 60.58 26.29 60.58 23.61C60.58 21.44 59.73 19.22 57.66 19.22C55.6 19.22 54.66 21.47 54.66 23.64Z" fill="#063477" fill-opacity="1.000000" fill-rule="nonzero"/>
		<path id="Vector" d="M68.13 21.15C68.13 18.98 68.1 17.58 68.01 16.31L71.92 16.31L72.1 19.02L72.23 19.02C72.98 16.85 74.75 15.96 76.2 15.96C76.62 15.96 76.83 15.99 77.16 16.05L77.16 20.34C76.8 20.28 76.43 20.22 75.92 20.22C74.24 20.22 73.09 21.13 72.8 22.53C72.74 22.84 72.71 23.2 72.71 23.55L72.71 31.01L68.13 31.01L68.13 21.15Z" fill="#063477" fill-opacity="1.000000" fill-rule="nonzero"/>
		<path id="Vector" d="M85.3 12.34L85.3 16.31L88.58 16.31L88.58 19.68L85.3 19.68L85.3 25.01C85.3 26.78 85.75 27.6 87.1 27.6C87.73 27.6 88.04 27.56 88.46 27.47L88.49 30.94C87.92 31.15 86.81 31.32 85.55 31.32C84.07 31.32 82.84 30.81 82.08 30.06C81.24 29.18 80.82 27.78 80.82 25.7L80.82 19.68L78.87 19.68L78.87 16.31L80.82 16.31L80.82 13.57L85.3 12.34Z" fill="#063477" fill-opacity="1.000000" fill-rule="nonzero"/>
		<path id="Vector" d="M91.22 9.66L95.79 9.66L95.79 18.08L95.85 18.08C96.33 17.42 96.93 16.91 97.65 16.55C98.35 16.19 99.19 15.98 100.03 15.98C102.94 15.98 105.17 17.99 105.17 22.44L105.17 31.01L100.6 31.01L100.6 22.92C100.6 21 99.93 19.67 98.22 19.67C97.02 19.67 96.27 20.46 95.94 21.29C95.82 21.57 95.79 21.95 95.79 22.28L95.79 31L91.22 31L91.22 9.66Z" fill="#063477" fill-opacity="1.000000" fill-rule="nonzero"/>
		<path id="Vector" d="M123.37 23.49C123.37 28.88 119.55 31.34 115.61 31.34C111.31 31.34 108 28.51 108 23.77C108 19.02 111.13 15.95 115.88 15.95C120.36 15.95 123.37 19.04 123.37 23.49ZM112.71 23.64C112.71 26.17 113.76 28.06 115.72 28.06C117.52 28.06 118.63 26.29 118.63 23.61C118.63 21.44 117.79 19.22 115.72 19.22C113.65 19.22 112.71 21.47 112.71 23.64Z" fill="#063477" fill-opacity="1.000000" fill-rule="nonzero"/>
		<path id="Vector" d="M126.19 21C126.19 19.16 126.13 17.63 126.07 16.3L129.95 16.3L130.13 18.29L130.22 18.29C130.85 17.33 132.18 15.95 134.67 15.95C136.6 15.95 138.07 16.93 138.7 18.47L138.77 18.47C139.34 17.69 139.97 17.09 140.69 16.67C141.5 16.22 142.4 15.95 143.49 15.95C146.32 15.95 148.45 17.93 148.45 22.35L148.45 31.01L144 31.01L144 23.01C144 20.87 143.31 19.64 141.83 19.64C140.75 19.64 140.03 20.37 139.69 21.23C139.6 21.56 139.54 22.01 139.54 22.4L139.54 31L135.09 31L135.09 22.73C135.09 20.89 134.43 19.63 132.95 19.63C131.78 19.63 131.09 20.54 130.81 21.25C130.66 21.61 130.63 22.04 130.63 22.42L130.63 30.99L126.18 30.99L126.18 20.98L126.19 21Z" fill="#063477" fill-opacity="1.000000" fill-rule="nonzero"/>
		<path id="Vector" d="M166.57 23.49C166.57 28.88 162.76 31.34 158.82 31.34C154.52 31.34 151.21 28.51 151.21 23.77C151.21 19.02 154.33 15.95 159.09 15.95C163.57 15.95 166.57 19.04 166.57 23.49ZM155.92 23.64C155.92 26.17 156.97 28.06 158.93 28.06C160.73 28.06 161.84 26.29 161.84 23.61C161.84 21.44 160.99 19.22 158.93 19.22C156.86 19.22 155.92 21.47 155.92 23.64Z" fill="#063477" fill-opacity="1.000000" fill-rule="nonzero"/>
		<path id="Vector" d="M169.4 9.66L173.97 9.66L173.97 31.01L169.4 31.01L169.4 9.66Z" fill="#063477" fill-opacity="1.000000" fill-rule="nonzero"/>
	</g>
</svg>
