<svg width="288.000000" height="242.000000" viewBox="0 0 288 242" fill="none" xmlns="http://www.w3.org/2000/svg" xmlns:xlink="http://www.w3.org/1999/xlink">
	<desc>
			Created with Pixso.
	</desc>
	<defs>
		<clipPath id="clip19_733">
			<rect id="SportUnity" rx="0.000000" width="287.000000" height="241.000000" transform="translate(0.500000 0.500000)" fill="white" fill-opacity="0"/>
		</clipPath>
	</defs>
	<g clip-path="url(#clip19_733)">
		<path id="Logo" d="M198.75 30.53C196.17 26.5 194.69 22.94 193.93 18.82L193.93 18.8C193.57 16.81 193.35 16.31 192.4 15.01C191.92 14.36 191.39 14.35 190.86 14.35C190.34 14.34 189.83 14.33 189.37 13.7C189.16 13.41 189.07 13.08 189.07 12.74C189.07 11.61 189.98 10.29 190.55 9.47C190.58 9.41 190.62 9.36 190.66 9.3C191.73 7.74 192.68 6.19 193.63 4.65C194.53 3.2 195.41 1.75 196.39 0.32C196.93 -0.46 197.82 0.35 198.29 0.78C198.34 0.83 198.39 0.87 198.43 0.9C198.85 1.27 199.01 1.92 199.03 2.22C199.04 2.33 199.04 2.44 199.04 2.55C199.04 3.3 198.86 3.87 198.67 4.48C198.54 4.89 198.4 5.33 198.31 5.84C198.25 6.27 198.16 6.68 198.07 7.09C197.89 7.96 197.71 8.83 197.71 9.84C197.71 9.9 197.71 9.96 197.71 10.02C197.74 11.6 198.35 13.5 198.95 15.08C200.44 19 202.61 22.76 204.97 26.14C205.27 26.58 205.64 26.98 205.99 27.37C206.51 27.95 207.01 28.5 207.27 29.11C207.71 30.11 207.85 30.97 207.85 31.81C207.85 32.49 207.75 33.17 207.65 33.92C207.61 34.24 207.56 34.58 207.52 34.93C207.43 35.75 207.41 36.58 207.38 37.42C207.34 38.85 207.3 40.28 206.92 41.65C205.89 45.4 204.31 49.17 201.76 52C200.55 53.33 199.33 54.32 198.11 55.3C197.02 56.18 195.94 57.06 194.86 58.18C194.89 58.37 194.91 58.57 194.94 58.77C195.01 59.47 195.05 60.29 195.05 61.17C195.05 64.75 194.5 69.48 194 72.71C193.86 73.69 193.4 74.69 192.97 75.66C192.58 76.51 192.2 77.34 192.08 78.08C192.05 78.24 192.04 78.4 192.04 78.56C192.04 79.01 192.13 79.46 192.22 79.93C192.32 80.43 192.42 80.94 192.42 81.49C192.42 82.05 192.31 82.65 191.98 83.3C190.74 85.72 189.43 86 186.41 86.66C186.21 86.7 186 86.75 185.78 86.8C185.55 86.84 185.25 86.88 184.9 86.92C183.69 87.06 181.98 87.25 181.5 88.26C181.38 88.49 181.34 88.75 181.34 89.03C181.34 89.86 181.77 90.82 182.1 91.56C182.26 91.91 182.4 92.21 182.45 92.42C182.74 93.65 182.98 94.79 183.2 95.89C183.53 97.47 183.84 98.95 184.25 100.5C184.35 100.85 184.45 101.12 184.53 101.36C184.7 101.84 184.83 102.21 184.83 102.77C184.83 102.91 184.82 103.06 184.81 103.23C184.6 105.2 184.07 107.22 183.55 109.19C183.41 109.74 183.27 110.28 183.13 110.81C183.03 111.21 182.92 111.68 182.92 112.01C182.93 112.17 182.95 112.23 182.97 112.27C182.99 112.31 183.01 112.35 183.01 112.42C183.01 112.45 183.01 112.48 183 112.53C182.99 112.63 182.97 112.75 182.95 112.87C182.91 113.09 182.87 113.32 182.87 113.54C182.87 113.87 183.1 114.29 183.27 114.54C183.35 114.67 183.4 114.61 183.42 114.58C183.42 114.57 183.43 114.56 183.43 114.56C183.44 114.56 183.44 114.61 183.44 114.76C183.43 114.81 183.43 114.86 183.42 114.92C186.91 115.85 190.32 116.9 193.64 118.06C196.22 116.12 198.73 114.38 201.64 112.64C203.34 111.61 204.21 109.92 204.28 107.84C204.3 107.19 204.56 106.87 205.33 106.99C205.87 107.07 206.53 107.23 207.19 107.38C207.49 107.45 207.79 107.52 208.08 107.59C209.54 107.93 211.1 108.23 212.63 108.52C213.26 108.64 213.88 108.76 214.49 108.88C214.64 108.92 214.9 108.87 214.95 108.83C214.97 108.82 214.98 108.78 214.98 108.75C214.98 108.71 214.97 108.68 214.95 108.68C214.09 108.5 213.22 108.32 212.35 108.15L212.35 108.15C210.83 107.85 209.31 107.54 207.86 107.15C207.82 107.15 207.81 107.1 207.81 107.05C207.81 107 207.82 106.95 207.86 106.95C209.4 106.74 210.95 106.48 212.51 106.21C213.63 106.02 214.75 105.83 215.86 105.66C215.81 105.64 215.77 105.63 215.72 105.62C215.68 105.6 215.64 105.59 215.6 105.58L215.56 105.57C215.26 105.47 215.11 105.43 214.58 105.49C214.29 105.53 213.92 105.59 213.54 105.66C213.01 105.75 212.44 105.84 211.95 105.89C211.08 105.96 210.35 105.44 210.15 104.61C210.12 104.52 210.11 104.42 210.11 104.34C210.11 103.67 210.75 103.25 211.17 102.98C211.4 102.83 211.66 102.72 211.88 102.63C212.1 102.54 212.29 102.46 212.4 102.36C212.6 102.2 212.92 101.89 212.92 101.75C212.92 101.73 212.9 101.71 212.87 101.7C212.8 101.68 212.67 101.73 212.51 101.8C212.26 101.91 211.92 102.05 211.52 102.05C210.85 102.05 209.56 102.58 209.4 103.58C209.4 103.63 209.07 103.85 209.07 103.71C209.07 103.7 209.07 103.69 209.08 103.68C209.11 103.57 209.25 103.22 209.39 102.88C209.49 102.62 209.6 102.36 209.65 102.21C207.22 101.62 205.94 100.48 204.71 98.24C204.61 98.04 204.55 97.88 204.48 97.72C204.37 97.46 204.26 97.18 203.96 96.66C203.79 96.36 203.6 96 203.39 95.61L203.39 95.61C203 94.87 202.55 94.01 201.99 93.15C201.12 91.84 200.27 89.09 200.1 87.41L199.97 87.53C199.95 87.35 199.94 87.17 199.94 87C199.94 85.57 200.55 84.48 201.37 83.62C202 82.96 202.37 82.57 202.78 82.13L202.78 82.13C202.97 81.92 203.17 81.71 203.41 81.46C203.42 81.44 203.43 81.44 203.43 81.45C203.43 81.47 203.41 81.52 203.39 81.58C203.36 81.67 203.32 81.8 203.32 81.86C203.32 81.9 203.33 81.92 203.38 81.89C205.1 80.81 206.64 81.01 208.41 82.01C208.33 81.86 208.15 81.61 207.96 81.37C207.73 81.08 207.51 80.79 207.49 80.67C207.49 80.67 207.49 80.67 207.49 80.67C207.49 80.57 207.74 80.69 207.99 80.8C208.26 80.92 208.53 81.05 208.53 80.95L208.53 80.94C208.51 80.85 208.26 80.57 208.01 80.28C207.71 79.95 207.39 79.59 207.39 79.48C207.39 79.39 207.65 79.5 207.91 79.61C208.13 79.7 208.34 79.79 208.39 79.76C208.44 79.74 208.48 79.73 208.52 79.73C208.59 79.73 208.64 79.73 208.64 79.61C208.64 79.54 208.51 79.36 208.37 79.16L208.37 79.16C208.18 78.91 207.98 78.62 207.98 78.48C207.98 78.46 207.98 78.44 207.99 78.43C208.05 78.35 208.29 78.53 208.56 78.73C208.92 79 209.33 79.31 209.46 79.13C209.53 79.03 209.57 78.92 209.57 78.79C209.57 78.31 209.11 77.7 208.48 77.65C208.91 77.2 210.37 76.62 210.75 76.65C210.86 76.65 210.92 76.65 210.94 76.65C210.92 76.66 210.88 76.69 210.88 76.77C210.88 76.85 210.62 77.05 210.35 77.27C210.04 77.52 209.7 77.79 209.7 77.91C209.7 77.99 210.05 77.96 210.41 77.93C210.8 77.9 211.22 77.87 211.22 77.97C211.22 77.98 211.22 77.98 211.22 77.98C211.19 78.12 210.97 78.35 210.73 78.6C210.46 78.87 210.18 79.16 210.1 79.39C211.89 78.85 213.84 78.31 215.65 77.88C215.72 77.87 215.79 77.92 215.79 78C215.79 78.03 215.78 78.07 215.75 78.11C215.69 78.2 215.31 78.53 214.98 78.81C214.75 79.01 214.54 79.19 214.49 79.24C214.47 79.28 214.45 79.31 214.45 79.33C214.45 79.39 214.53 79.39 214.56 79.39C216.25 78.93 218.09 78.3 219.71 77.73C219.74 77.72 219.75 77.69 219.75 77.66C219.75 77.59 219.7 77.51 219.58 77.51C219.5 77.51 219.33 77.54 219.14 77.57C218.85 77.61 218.5 77.66 218.27 77.66C217.89 77.66 217.25 77.63 216.83 77.58C219.94 74.45 222.99 71.64 227.08 69.85C226.62 70.4 226.13 70.93 225.64 71.45L225.52 71.59L225.34 71.78C225.83 71.57 226.31 71.36 226.79 71.14C227.37 70.87 227.96 70.6 228.57 70.36C229.67 69.93 230.01 69.98 230.66 70.99C232.65 70.51 233.63 71.66 234.69 73.02C234.71 73.05 234.72 73.04 234.72 73.01C234.72 72.94 234.69 72.8 234.67 72.66L234.67 72.66C234.63 72.5 234.6 72.34 234.6 72.27C234.6 72.22 234.61 72.2 234.64 72.23C234.75 72.32 235.02 72.63 235.3 72.95L235.3 72.95C235.63 73.33 235.97 73.72 236.09 73.81C236.18 73.86 236.39 74.05 236.62 74.25L236.62 74.25L236.62 74.25C236.97 74.55 237.35 74.88 237.35 74.81C237.35 74.8 237.35 74.8 237.34 74.78C237.37 74.83 237.39 74.86 237.41 74.89L237.43 74.91L237.44 74.93C237.44 74.93 237.44 74.93 237.45 74.94C237.46 74.95 237.47 74.97 237.48 74.98L237.48 74.94L237.45 74.89C237.37 74.78 237.28 74.65 237.28 74.65C237.28 74.65 237.29 74.67 237.31 74.69C236.9 74.12 233.18 69.61 232.1 69.28C232.09 69.28 232.09 69.28 232.09 69.28C232.09 69.26 232.49 69.26 232.68 69.4C233.77 70.22 234.78 70.44 236.02 70.72C236.41 70.81 236.83 70.91 237.28 71.03C239.15 71.53 241.71 72.13 243.75 72.57C243.81 72.59 244 72.7 244 72.75C244 72.75 244 72.76 244 72.76C243.99 72.78 243.88 72.79 243.76 72.79C243.61 72.8 243.43 72.81 243.43 72.86C243.41 73.66 243 73.91 242.52 74.19C242.26 74.35 241.98 74.52 241.72 74.8C244.65 74.32 246.99 72.99 249.5 71.53C249.51 71.53 249.51 71.54 249.51 71.56C249.51 71.62 249.49 71.73 249.46 71.83C249.43 71.94 249.41 72.04 249.41 72.09C249.41 72.12 249.42 72.13 249.45 72.11C249.8 71.79 250.21 71.34 250.63 70.89C250.94 70.55 251.25 70.22 251.54 69.93C250.98 70.06 250.43 70.18 249.88 70.3L249.87 70.3C248.89 70.52 247.9 70.74 246.91 70.98C247.2 70.34 247.22 70.31 247.68 69.7L247.78 69.56C248.33 68.82 249.45 67.29 250.05 66.37C250.34 65.92 250.58 65.49 250.82 65.06C251.07 64.62 251.31 64.17 251.62 63.71C253.02 61.65 254.43 60.32 257.02 60.17C257 60.13 256.89 60.06 256.79 60.01C256.69 59.95 256.6 59.9 256.6 59.87C256.6 59.87 256.6 59.87 256.6 59.87C256.6 59.86 256.6 59.86 256.6 59.85C256.6 59.84 256.59 59.81 256.58 59.78C256.56 59.75 256.55 59.72 256.55 59.69C256.55 59.65 256.58 59.63 256.7 59.65C256.72 59.65 256.75 59.66 256.77 59.66L256.86 59.68C257.24 59.73 257.94 59.84 258.36 60.13C258.84 60.48 259.88 60.6 260.46 60.52C261.05 60.42 261.17 60.42 261.7 60.62C262.24 60.82 263.6 61.61 263.94 61.83C264.04 61.89 264.07 61.93 264.07 61.95C264.07 61.96 264.04 61.97 264.01 61.97C263.97 61.98 263.92 61.98 263.92 62.01C263.92 62.02 263.92 62.02 263.92 62.03C263.92 62.03 263.93 62.04 263.93 62.04C263.93 62.08 263.76 62.06 263.59 62.03C263.39 62.01 263.17 61.98 263.17 62.04C263.17 62.05 263.17 62.06 263.19 62.08C263.27 62.18 263.36 62.29 263.44 62.39C264.1 63.21 264.85 64.14 265.91 64.21C265.93 64.21 265.94 64.21 265.94 64.22C265.94 64.24 265.84 64.28 265.71 64.33C265.48 64.42 265.14 64.55 265.14 64.66C265.14 64.67 265.14 64.68 265.14 64.69C265.2 64.8 265.38 65.05 265.56 65.29C265.7 65.48 265.84 65.67 265.91 65.79C265.98 65.9 266.05 65.93 266.11 65.95C266.19 65.98 266.26 66.01 266.31 66.24C266.41 66.64 266.83 67.15 267.2 67.32C267.33 67.38 267.48 67.43 267.61 67.48C267.82 67.55 268 67.61 268.05 67.7C268.05 67.71 268.06 67.71 268.06 67.71C268.06 67.76 267.83 67.75 267.57 67.74C267.22 67.73 266.79 67.71 266.79 67.84C266.79 67.85 266.79 67.86 266.8 67.87C267.23 68.97 267.87 69.31 268.9 68.37C268.86 68.6 268.71 68.92 268.57 69.24C268.4 69.62 268.24 69.99 268.24 70.2C268.25 70.4 268.56 70.38 268.85 70.37C269.1 70.36 269.34 70.35 269.34 70.48C269.34 70.49 269.34 70.49 269.34 70.5C269.33 70.62 269.14 70.68 268.91 70.75C268.61 70.84 268.25 70.95 268.19 71.26C268.17 71.33 268.17 71.4 268.17 71.48C268.17 71.62 268.19 71.79 268.2 71.97C268.22 72.17 268.24 72.38 268.24 72.59C268.24 72.95 268.18 73.31 267.95 73.61C267.9 73.67 267.85 73.74 267.79 73.81C267.3 74.45 266.8 75.08 266.03 75.37C266.04 75.21 266.25 74.98 266.46 74.74C266.68 74.48 266.9 74.22 266.9 74.05C266.9 74.02 266.9 74 266.88 73.97C266.72 73.69 266.21 73.39 265.81 74.24C265.41 75.09 263.67 76.88 262.89 77.61C262.14 78.31 261.71 79.1 261.32 79.8L261.26 79.91C260.99 80.4 260.93 80.7 260.85 81.08C260.82 81.25 260.78 81.43 260.71 81.66C260.51 82.35 260.1 82.6 259.46 82.35C258.82 82.11 258.74 82.17 258.36 82.74C257.97 83.3 256.89 83.88 256.32 84.15C256.09 84.26 256.01 84.27 255.95 84.28C255.87 84.29 255.87 84.29 255.58 84.6C255.11 85.12 254.11 85.98 253.18 85.91C253.36 86 253.84 86.11 254.25 86.21C254.57 86.29 254.86 86.36 254.93 86.4C255 86.43 255.04 86.52 255.04 86.61C255.04 86.72 254.97 86.82 254.81 86.78C254.76 86.77 254.68 86.76 254.59 86.74C254.21 86.69 253.57 86.59 253.11 86.16C252.54 85.65 251.4 84.32 250.8 83.59C250.29 84.12 250.26 84.74 250.23 85.39C250.21 85.83 250.18 86.3 250 86.75C250.88 87.04 251.17 87.74 251.17 88.52C251.17 88.58 251.17 88.64 251.17 88.71C251.15 88.81 250.95 88.59 250.95 88.59C250.95 88.59 250.75 88.01 250.72 88.04C250.68 88.09 250.58 88.11 250.55 88.11C250.55 88.11 250.55 88.11 250.55 88.11C250.55 88.15 250.95 88.61 250.95 88.61C250.95 88.61 253.43 94.36 253.61 94.78C253.24 92.1 252.67 89.22 251.1 86.71C253.74 86.96 254.91 88.31 256.23 90.54C256.24 90.31 256.25 90.17 256.26 90.06C256.26 89.97 256.27 89.91 256.27 89.83C256.27 89.67 256.25 89.48 256.17 88.99C256.14 88.81 256.12 88.6 256.12 88.37C256.12 87.31 256.48 85.86 257.45 85.2C258.64 84.38 259.34 84.52 260.51 85.27C262.57 83.75 264.19 83.64 266.18 85.32C267 86.01 267.7 86.91 268.37 87.75L268.55 87.99C269.58 89.3 270 90.86 270 92.38C270 93.29 269.85 94.2 269.59 95.03C269.01 96.93 268.28 97.76 267.24 98.96C267.06 99.16 266.87 99.38 266.66 99.62C267.17 99.64 267.31 99.84 267.31 100.09C267.31 100.29 267.22 100.52 267.15 100.71L267.12 100.78C266.97 101.16 266.83 101.53 266.69 101.89C265.84 104.1 265.03 106.19 264.02 108.34C263.85 108.69 263.47 109.01 263.14 109.28C262.97 109.42 262.82 109.55 262.7 109.67C262.65 109.72 262.59 109.78 262.54 109.83L262.49 109.88C262.23 110.14 262.01 110.36 261.9 110.66C261.23 112.63 260.28 114.39 258.79 115.77C257.3 117.15 255.67 117.23 254.03 116.45C252.39 115.67 251.3 114.44 250.92 112.86C250.39 110.72 250.24 108.63 250.24 106.54C250.24 105.24 250.3 103.94 250.36 102.63L250.39 101.93C250.4 101.78 250.4 101.62 250.41 101.46L250.42 101.25L250.42 101.21L250.42 101.18C250.42 101.15 250.42 101.12 250.42 101.09L250.43 101.02C250.43 100.96 250.43 100.91 250.43 100.87C250.43 100.82 250.43 100.8 250.42 100.8C249.36 101.35 247.61 102.21 246.59 102.56C246.5 102.59 246.42 102.62 246.34 102.65C245.48 102.94 245.01 103.1 244.58 103.81C244.11 104.59 243.3 105.11 242.61 105.36C242.51 105.39 242.43 105.42 242.36 105.45C241.93 105.6 241.89 105.61 241.51 106.02C241.2 106.35 240.72 107.1 240.35 107.69C240.17 107.97 240.02 108.21 239.92 108.35C239.72 108.64 239.52 108.77 239.36 108.87C239.27 108.93 239.2 108.97 239.15 109.03C239.13 109.06 239.12 109.08 239.12 109.1C239.12 109.12 239.17 109.11 239.22 109.1C239.27 109.09 239.32 109.07 239.32 109.1C239.25 109.53 239.03 110.01 238.81 110.49C238.55 111.06 238.29 111.62 238.29 112.1C238.29 112.13 238.3 112.16 238.3 112.19C238.32 112.41 238.58 112.44 238.91 112.48C239.17 112.51 239.48 112.54 239.72 112.69C239.75 112.71 239.79 112.73 239.82 112.75C240.12 112.94 240.4 113.1 240.4 113.39C240.4 113.56 240.31 113.76 240.09 114.04C240.01 114.14 239.93 114.23 239.86 114.32C239.36 114.92 239.13 115.2 239.08 116.39C239.03 117.73 238.31 119.56 237.38 120.94C237.26 121.11 237.18 121.33 237.18 121.64C237.18 121.81 237.2 122 237.26 122.22C237.33 122.47 237.45 122.79 237.58 123.16C237.78 123.73 238.02 124.39 238.16 124.97C238.21 125.13 238.22 125.31 238.22 125.5C238.22 126.36 237.81 127.37 237.31 128.08C237.24 127.72 237.18 127.36 237.11 126.99C236.89 125.83 236.68 124.65 236.41 123.52C236.4 123.48 236.4 123.43 236.39 123.38C236.38 123.25 236.37 123.12 236.28 123.09C236.24 123.07 236.16 123.02 236.04 122.94C235.67 122.7 234.99 122.25 234.99 122.42C234.99 122.43 234.99 122.43 234.99 122.44C235.08 122.82 235.35 123.4 235.64 124.01C235.93 124.64 236.24 125.29 236.38 125.78C236.38 125.79 236.38 125.79 236.38 125.79C236.38 125.85 236.25 126.01 236.12 125.93C236.07 125.89 235.87 125.68 235.66 125.45C235.42 125.19 235.15 124.9 235.09 124.87C234.99 124.83 234.79 124.99 234.79 125.1C234.79 125.12 234.79 125.14 234.8 125.15C234.94 125.32 235.07 125.48 235.2 125.64C236.11 126.75 236.9 127.71 236.9 129.25C236.9 129.41 236.9 129.58 236.88 129.76C235.61 128.68 234.29 127.55 233.13 126.37C233.12 126.35 233.11 126.33 233.11 126.31C233.11 126.25 233.17 126.17 233.28 126.17C233.36 126.17 233.63 126.25 233.91 126.34C234.19 126.43 234.46 126.51 234.54 126.51C234.65 126.53 234.7 126.45 234.7 126.39C234.7 126.37 234.69 126.35 234.69 126.33C233.87 124.19 231.43 123.29 229.29 122.86C229.37 123.04 229.47 123.2 229.62 123.34C231.33 124.88 232.81 126.42 234.34 128.18C234.48 128.34 234.64 128.5 234.8 128.66C235.28 129.13 235.78 129.62 235.94 130.36C236.1 131.04 236.14 132.25 236.18 133.2L236.18 133.2C236.19 133.62 236.2 133.98 236.22 134.23C236.25 134.5 236.25 134.72 236.25 134.89C236.25 134.94 236.25 134.99 236.25 135.03C236.25 135.07 236.25 135.11 236.25 135.14C236.25 135.37 236.26 135.55 236.33 135.78C237.29 138.96 237.63 141.97 237.82 145.17C246.21 153.77 252.42 163.57 255.87 174.15C238.65 143.25 194.94 121.29 143.75 121.29C92.57 121.29 48.85 143.25 31.64 174.15C35.61 161.95 43.27 150.77 53.71 141.29C53.35 140.43 52.96 139.38 52.77 138.69C52.62 138.21 52.46 137.67 52.32 137.17C52.19 136.71 52.08 136.28 51.98 135.98C51.89 135.7 51.87 135.55 51.87 135.44C51.87 135.38 51.87 135.33 51.88 135.27C51.89 135.21 51.9 135.14 51.9 135.05C51.9 135.03 51.9 135 51.9 134.98C51.9 134.79 51.91 134.7 51.93 134.62C51.94 134.55 51.95 134.48 51.95 134.36C51.95 134.33 51.95 134.29 51.95 134.25C51.93 133.87 51.9 133.55 51.51 133.2C51.13 132.85 50.64 132.29 50.26 131.82C49.87 131.35 49.29 130.26 49.12 129.82C48.99 129.53 48.99 129.52 48.96 129.45C48.95 129.42 48.93 129.38 48.9 129.31C48.8 129.06 48.69 129.09 48.54 129.18C48.37 129.26 48.27 129.21 48.17 129.14C48.11 129.1 48.06 129.04 48.02 129C48.01 128.98 47.99 128.97 47.98 128.96L47.97 128.94C47.33 128.23 46.25 126.83 45.83 126.23C45.57 125.86 45.48 125.7 45.4 125.55C45.35 125.45 45.3 125.36 45.21 125.22C45.01 124.91 44.99 124.9 44.81 124.77C44.78 124.75 44.74 124.72 44.69 124.69C44.48 124.53 44.43 124.49 44.27 124.36C44.21 124.31 44.12 124.25 44.01 124.15C43.84 124.02 43.56 123.8 43.25 123.57L43.24 123.56L43.23 123.55C42.78 123.2 42.28 122.82 42 122.59C41.53 122.21 41.18 121.87 40.88 121.54C40.74 121.39 40.69 121.32 40.63 121.25C40.57 121.18 40.52 121.11 40.35 120.93C40.04 120.59 39.76 120.13 39.64 119.58C39.53 119.03 39.28 118.58 38.94 118.03C38.61 117.5 38.29 116.77 38.02 116.12C37.84 115.69 37.78 114.94 37.78 114.34C37.78 114.04 37.79 113.79 37.82 113.62C37.87 113.33 38.31 112.09 38.65 111.11C38.88 110.47 39.06 109.94 39.07 109.87C39.09 109.8 39.09 109.76 39.09 109.73C39.09 109.69 39.08 109.69 39.05 109.68L39.04 109.67C39.03 109.67 39.03 109.67 39.02 109.67L38.99 109.7C38.99 109.7 38.96 109.63 38.87 109.77C38.82 109.86 38.17 111.58 37.74 112.75C37.54 113.28 37.38 113.7 37.35 113.77C37.25 114.04 37.1 114.39 36.88 114.61C36.67 114.82 36.52 114.96 36.15 114.81L36.13 114.8C35.77 114.67 35.57 114.6 35.2 114.19C34.81 113.77 34.24 112.94 33.86 112.33C33.47 111.71 32.66 110.12 32.44 109.65C32.29 109.35 32.29 109.35 32.27 109.36C32.26 109.36 32.24 109.37 32.2 109.35C32.15 109.32 32.13 109.34 32.13 109.38C32.13 109.43 32.17 109.52 32.2 109.6C32.25 109.73 32.3 109.87 32.44 110.2C32.49 110.32 32.59 110.58 32.72 110.88L32.72 110.89L32.72 110.89L32.72 110.89C32.92 111.39 33.17 111.99 33.24 112.18C33.28 112.27 33.3 112.32 33.32 112.36C33.33 112.39 33.34 112.4 33.34 112.41C33.34 112.41 33.34 112.41 33.34 112.42C33.34 112.42 33.33 112.43 33.32 112.44C33.31 112.45 33.29 112.46 33.27 112.48C33.23 112.52 33.15 112.57 33.06 112.62C32.95 112.68 32.84 112.74 32.77 112.81C31.94 113.6 30.74 114.58 29.79 115.36L29.79 115.36C29.55 115.55 29.34 115.73 29.15 115.89C28.16 116.68 27.57 117.15 26.67 117.72C25.77 118.28 25.05 118.38 24.01 118.51C23.51 118.57 22.75 118.64 22.02 118.7C21.24 118.76 20.48 118.83 20.07 118.88C19.63 118.93 19.37 118.99 19.15 119.03C18.97 119.07 18.82 119.1 18.65 119.11C17.09 119.28 15.3 119.16 14.03 119.03L12.54 118.87L12.54 118.87C11.76 118.79 11.03 118.72 10.54 118.66C9.83 118.59 9.8 118.58 9.52 118.5L9.52 118.5L9.4 118.46C9.32 118.44 9.26 118.43 9.23 118.42C9.19 118.41 9.18 118.41 9.18 118.4C9.18 118.4 9.18 118.4 9.18 118.4C9.18 118.39 9.18 118.39 9.18 118.39C9.18 118.38 9.18 118.37 9.18 118.36C9.18 118.33 9.17 118.28 9.1 118.17C8.98 117.96 8.86 117.61 8.75 117.25C8.67 117.01 8.6 116.78 8.52 116.59C8.45 116.41 8.39 116.25 8.33 116.1C8.22 115.8 8.11 115.5 7.93 115.12C7.65 114.54 7.06 113.16 6.86 112.58C6.71 112.15 6.64 111.71 6.58 111.38C6.56 111.26 6.55 111.16 6.53 111.08C6.51 110.99 6.5 110.93 6.49 110.89C6.48 110.83 6.48 110.81 6.47 110.8C6.46 110.79 6.46 110.78 6.45 110.77L6.43 110.75C6.36 110.66 6.34 110.65 6.33 110.83C6.33 110.85 6.33 110.88 6.33 110.91C6.33 111.2 6.38 111.95 6.41 112.14C6.43 112.23 6.43 112.3 6.43 112.35C6.43 112.42 6.42 112.46 6.38 112.51C6.31 112.59 6.26 112.48 6.24 112.43C5.96 111.75 5.63 111.1 5.29 110.44C5.08 110.04 4.87 109.64 4.67 109.23C4.17 108.14 3.82 106.99 3.67 105.79C3.57 105.01 3.47 104.26 3.36 103.49C3.3 103.08 3.24 102.66 3.19 102.23C3.02 101 2.73 98.79 2.63 97.77C2.53 96.76 2.47 96.23 2.38 95.63C2.36 95.39 2.34 95.23 2.33 95.1C2.32 94.91 2.31 94.79 2.27 94.58C2.21 94.31 2.21 94.31 2.12 94.24C2.09 94.22 2.06 94.19 2.02 94.15L1.98 94.12C1.79 93.94 1.56 93.73 1.46 93.47L1.46 93.45C1.36 93.18 1.34 93.13 1.16 92.83C1 92.53 0.83 92.1 0.73 91.67C0.68 91.51 0.62 91.26 0.54 91C0.42 90.56 0.28 90.08 0.23 89.86C0.21 89.8 0.2 89.76 0.2 89.73C0.19 89.72 0.18 89.7 0.16 89.66L0.14 89.62C0.06 89.45 0 89.31 0 89.08C0 89 0 88.9 0.03 88.79C0.06 88.61 0.12 88.29 0.17 87.95C0.25 87.52 0.33 87.05 0.38 86.85C0.42 86.65 0.43 86.64 0.44 86.63C0.45 86.62 0.46 86.62 0.49 86.5C0.56 86.23 0.79 85.98 1.05 85.9C1.3 85.81 1.36 85.71 1.46 85.51C1.56 85.32 1.65 85.13 1.71 84.9C1.78 84.67 1.93 84.5 2.18 84.5C2.43 84.5 2.55 84.37 2.65 84.18C2.75 83.98 2.87 83.8 2.98 83.65C3.1 83.5 3.17 83.47 3.37 83.45C3.57 83.44 3.92 83.42 4.1 83.42C4.29 83.42 4.36 83.4 4.51 83.3C4.63 83.21 4.68 83.19 4.84 83.12L4.89 83.1C5.07 83.02 5.46 83.02 5.64 83.1C5.72 83.14 5.75 83.15 5.77 83.17C5.8 83.19 5.82 83.2 5.94 83.24C5.97 83.24 6 83.25 6.03 83.26C6.18 83.3 6.28 83.34 6.51 83.14C6.78 82.9 7.3 82.7 7.75 82.72C8.2 82.72 8.6 83.09 8.73 83.42C8.8 83.59 8.83 83.7 8.86 83.8C8.88 83.9 8.9 83.98 8.95 84.08C8.97 84.13 8.99 84.17 9 84.2C9.03 84.3 9.04 84.31 9.27 84.33C9.57 84.37 10.06 84.57 10.31 84.85C10.51 85.08 10.6 85.26 10.6 85.52C10.6 85.58 10.6 85.64 10.59 85.71C10.52 86.1 10.37 86.41 10.17 86.81C9.97 87.21 9.6 87.88 9.37 88.24C9.15 88.6 9.11 88.91 9.06 89.23L9.05 89.31C9 89.66 8.97 89.71 8.75 89.99C8.59 90.19 8.41 90.38 8.2 90.6C8.12 90.68 8.04 90.76 7.95 90.85C7.84 90.97 7.68 91.12 7.51 91.28C7.2 91.58 6.86 91.91 6.7 92.12C6.63 92.21 6.58 92.26 6.55 92.29C6.52 92.32 6.51 92.33 6.5 92.35C6.5 92.35 6.5 92.36 6.5 92.36C6.5 92.38 6.51 92.4 6.53 92.45C6.55 92.49 6.58 92.54 6.61 92.63C6.69 92.83 6.75 92.92 6.82 93.04C6.9 93.16 6.99 93.32 7.16 93.66C7.5 94.35 8.27 96.24 8.53 97.19C8.82 98.12 9.37 99.75 9.62 100.37C9.7 100.56 9.74 100.67 9.77 100.73C9.79 100.79 9.8 100.81 9.81 100.84C9.82 100.85 9.83 100.87 9.84 100.89C9.86 100.92 9.88 100.95 9.92 101.02C9.96 101.08 9.98 101.12 9.99 101.15C10.01 101.18 10.01 101.19 10.02 101.2C10.03 101.2 10.03 101.21 10.05 101.21C10.07 101.23 10.13 101.25 10.26 101.35C10.4 101.46 10.56 101.56 10.74 101.68C10.97 101.83 11.23 101.99 11.53 102.21C12.06 102.6 13.05 103.56 13.5 104.16C13.97 104.76 14.4 105.54 14.67 106.12C14.89 106.6 15.08 107.29 15.19 107.71L15.19 107.71C15.22 107.8 15.24 107.88 15.25 107.94C15.29 108.05 15.3 108.11 15.3 108.14C15.3 108.15 15.29 108.15 15.29 108.16C15.3 108.15 15.32 108.15 15.35 108.17C15.44 108.21 15.45 108.2 15.48 108.13C15.5 108.09 15.52 108.05 15.56 107.99C15.6 107.91 15.66 107.78 15.72 107.64C15.8 107.44 15.91 107.2 16.04 106.99C16.07 106.94 16.1 106.9 16.13 106.86C16.33 106.54 16.56 106.21 16.91 105.86L16.99 105.78C17.36 105.4 17.76 105.01 18.4 104.78C18.52 104.73 18.64 104.69 18.75 104.65C19.25 104.46 19.65 104.31 20.49 104.18C21.51 104.01 23.48 103.89 24.73 103.83C24.95 103.83 25.12 103.83 25.22 103.46C25.32 103.1 25.55 102.48 25.79 102.02C26.02 101.55 26.42 101 26.81 100.53C27.17 100.07 28.36 99.2 28.66 98.99C28.89 98.82 28.9 98.82 28.91 98.83C28.91 98.83 28.91 98.83 28.93 98.82C29.88 98.26 31.54 97.99 32.39 97.91C32.93 97.85 33.34 97.87 33.67 97.89L33.67 97.89C33.86 97.9 34.03 97.91 34.19 97.91C34.33 97.91 34.39 97.91 34.41 97.92C34.42 97.91 34.44 97.89 34.51 97.86C34.8 97.72 35.01 97.52 35.3 97.24C35.58 96.96 36.05 96.49 36.35 96.16L36.39 96.11C36.53 95.97 36.6 95.88 36.6 95.79C36.6 95.7 36.53 95.6 36.37 95.43C36.24 95.3 36.09 95.15 35.94 95C35.66 94.73 35.37 94.45 35.15 94.18C34.8 93.76 34.11 92.83 33.93 92.52C33.88 92.44 33.85 92.39 33.84 92.37C33.82 92.35 33.82 92.34 33.82 92.33L33.82 92.33L33.82 92.33C33.83 92.33 33.85 92.34 33.86 92.28C33.87 92.18 33.92 92.2 34 92.24C34.02 92.25 34.05 92.26 34.08 92.27C34.14 92.29 34.28 92.36 34.43 92.43C34.63 92.52 34.84 92.62 34.93 92.65C34.98 92.67 35.03 92.7 35.08 92.72C35.17 92.77 35.25 92.81 35.3 92.77C35.31 92.75 35.33 92.74 35.34 92.74C35.35 92.73 35.36 92.72 35.36 92.71C35.36 92.7 35.33 92.66 35.23 92.55C35.18 92.49 35.08 92.38 34.97 92.24C34.63 91.84 34.1 91.22 33.93 91.04C33.74 90.82 33.72 90.82 33.6 90.86C33.57 90.87 33.54 90.88 33.49 90.89C33.24 90.94 32.94 90.97 32.69 90.9C32.66 90.9 32.63 90.89 32.61 90.88C32.55 90.86 32.51 90.85 32.48 90.86C32.44 90.86 32.4 90.89 32.32 90.95C32.29 90.97 32.27 90.98 32.24 91C32.1 91.1 31.9 91.25 31.68 91.42L31.68 91.42C31.48 91.57 31.27 91.73 31.1 91.85C30.75 92.1 30.13 92.47 29.78 92.58C29.48 92.68 29.4 92.67 29.21 92.65L29.16 92.64L29.11 92.63C29.03 92.62 29.01 92.61 29.01 92.6C29.01 92.6 29.02 92.6 29.02 92.6C29.02 92.59 29.03 92.59 29.03 92.59C29.03 92.59 28.99 92.58 28.81 92.57C28.39 92.53 27.67 91.85 27.61 91.37C27.56 90.98 27.46 90.89 27.31 90.75C27.26 90.71 27.21 90.66 27.16 90.6C27.06 90.5 26.95 90.38 26.83 90.26C26.62 90.05 26.4 89.82 26.29 89.66C26.11 89.4 26.1 89.3 26.09 89.09L26.09 89.06C26.07 88.82 26.04 88.77 25.85 88.66C25.67 88.54 25.5 88.38 25.4 88.19C25.34 88.08 25.28 87.99 25.22 87.9C25.19 87.84 25.15 87.79 25.12 87.73C25.02 87.56 24.97 87.43 24.97 87.21C24.97 87 24.85 86.86 24.63 86.95C24.52 86.99 24.42 87.03 24.33 87.08C24.24 87.12 24.15 87.16 24.05 87.19C23.97 87.22 23.94 87.24 23.91 87.26C23.87 87.28 23.84 87.3 23.65 87.34C23.34 87.41 22.86 87.2 22.86 86.75C22.86 86.72 22.86 86.7 22.86 86.68C22.89 86.34 22.93 86.06 22.98 85.77C23 85.61 23.02 85.44 23.04 85.27C23.1 84.86 23.18 84.17 23.18 83.69C23.18 83.57 23.17 83.46 23.16 83.37C23.15 83.3 23.15 83.24 23.15 83.2C23.15 83.16 23.15 83.13 23.15 83.11C23.15 83.1 23.15 83.09 23.15 83.08C23.15 83.07 23.15 83.07 23.15 83.06C23.14 83.04 23.11 83.02 23.03 82.97C23 82.95 22.95 82.92 22.89 82.89C22.49 82.64 21.87 81.72 21.86 81.24C21.86 80.99 21.84 80.97 21.83 80.95C21.82 80.94 21.81 80.92 21.81 80.71C21.81 80.28 21.51 79.29 21.36 78.88C21.21 78.46 21.15 78.2 21.1 77.91C21.04 77.65 20.99 77.66 20.82 77.72L20.79 77.73C20.62 77.79 20.41 77.95 20.26 78.07C20.23 78.09 20.21 78.11 20.19 78.13C20.09 78.2 20.06 78.27 20.06 78.35C20.06 78.39 20.07 78.44 20.09 78.5C20.11 78.61 20.22 78.79 20.31 78.93C20.33 78.97 20.35 79 20.37 79.03C20.39 79.07 20.42 79.11 20.45 79.16C20.5 79.23 20.55 79.29 20.55 79.35C20.55 79.37 20.54 79.38 20.54 79.39L20.53 79.41C20.51 79.44 20.5 79.45 20.49 79.45C20.47 79.46 20.45 79.45 20.38 79.41L20.35 79.39C20.31 79.37 20.29 79.36 20.27 79.36C20.21 79.33 20.21 79.33 19.92 79.13C19.53 78.86 18.6 77.56 18.5 77.02C18.45 76.79 18.4 76.6 18.36 76.45C18.3 76.23 18.25 76.05 18.23 75.85L18.22 75.76C18.21 75.7 18.21 75.66 18.21 75.64C18.21 75.62 18.21 75.61 18.21 75.6C18.22 75.58 18.23 75.57 18.24 75.54C18.25 75.52 18.27 75.47 18.3 75.4C18.36 75.22 18.52 74.99 18.66 74.77C18.73 74.67 18.79 74.56 18.85 74.47C18.94 74.32 19.02 74.15 19.1 73.99C19.17 73.86 19.23 73.73 19.3 73.61L19.33 73.56C19.45 73.34 19.45 73.33 19.75 73.42C19.83 73.45 19.91 73.48 20 73.5C20.23 73.59 20.48 73.67 20.8 73.72C21.24 73.79 21.91 73.74 22.36 73.54C22.38 73.54 22.4 73.54 22.4 73.52C22.4 73.51 22.4 73.5 22.39 73.49C22.39 73.39 22.39 73.37 22.24 73.31C22.23 73.3 22.21 73.29 22.19 73.28L22.13 73.26C21.96 73.19 21.73 73.1 21.62 72.99L21.6 72.97C21.59 72.96 21.58 72.95 21.57 72.94C21.52 72.89 21.47 72.85 21.47 72.81C21.47 72.77 21.52 72.72 21.66 72.66C21.75 72.61 21.85 72.56 21.96 72.51C22.18 72.4 22.43 72.27 22.71 72.16C23.11 71.99 23.5 71.81 24.01 71.54C24.53 71.28 25.52 70.61 26 70.23C26.45 69.88 27.31 69.58 27.71 69.44L27.79 69.41C27.93 69.37 28 69.36 28.03 69.35C28.05 69.35 28.06 69.35 28.06 69.35L28.06 69.35L28.06 69.34C28.05 69.34 28.05 69.34 28.05 69.33C28.04 69.32 28.03 69.3 28.01 69.26C27.97 69.19 27.57 69.22 27.21 69.26C26.92 69.28 26.65 69.3 26.62 69.26C26.61 69.26 26.61 69.25 26.61 69.24C26.61 69.15 26.85 69.02 27.06 68.93C27.29 68.83 27.82 68.72 28.19 68.67C28.47 68.63 29.03 68.56 29.42 68.52L29.43 68.52C29.56 68.5 29.67 68.49 29.75 68.48C30.05 68.45 30.16 68.48 30.3 68.55C31.2 69.03 33.06 69.35 33.78 69.45C34.32 69.52 34.41 69.53 34.56 69.55C34.61 69.55 34.67 69.56 34.75 69.56C35.02 69.61 35.03 69.63 35.09 69.7C35.1 69.72 35.12 69.73 35.13 69.75C36.18 70.89 37.2 71.99 38.29 73.09C38.44 73.24 38.52 73.44 38.56 73.61C38.68 74.07 38.84 74.64 38.99 75.22L38.99 75.22C39.2 75.98 39.41 76.74 39.54 77.27C39.78 78.2 39.98 78.75 40.23 79.38C40.36 79.71 40.52 80.05 40.66 80.35C40.79 80.62 40.9 80.87 40.98 81.07C41.04 81.22 41.1 81.35 41.15 81.47C41.24 81.67 41.32 81.83 41.32 81.96C41.32 81.97 41.32 81.98 41.31 81.99C41.31 82.11 41.13 81.97 40.97 81.85C40.85 81.76 40.75 81.68 40.75 81.72C40.74 81.76 40.72 81.76 40.71 81.76C40.71 81.76 40.71 81.76 40.71 81.77L40.71 81.77C40.71 81.77 40.72 81.78 40.73 81.8L40.73 81.8C40.76 81.82 40.79 81.86 40.85 81.92C41.08 82.17 42.07 83.17 42.38 83.45C42.54 83.58 42.64 83.69 42.72 83.78C42.82 83.89 42.9 83.98 43.04 84.07C43.11 84.12 43.15 84.16 43.17 84.19C43.18 84.2 43.19 84.21 43.2 84.22C43.23 84.24 43.27 84.24 43.41 84.23L43.5 84.23C43.67 84.23 43.91 84.22 44.17 84.21C44.57 84.19 45.02 84.17 45.38 84.18C45.82 84.2 46.49 84.34 47.01 84.46C47.17 84.49 47.31 84.53 47.43 84.55C47.54 84.57 47.62 84.59 47.68 84.61C47.77 84.63 47.81 84.65 47.85 84.63C47.89 84.61 47.9 84.55 47.94 84.41L47.96 84.35L47.97 84.33L47.98 84.27C48.04 84.09 48.09 83.88 48.15 83.67C48.25 83.29 48.35 82.87 48.5 82.45C48.74 81.79 49.19 80.81 49.61 80.16C50.02 79.51 50.56 78.9 51.06 78.36C51.55 77.84 52.37 77.25 52.85 76.9L52.88 76.88C53.17 76.66 53.4 76.53 53.61 76.4C53.75 76.32 53.88 76.24 54.02 76.15C54.14 76.07 54.19 76.05 54.21 76.04L54.22 76.04L54.22 76.03L54.22 76.03C54.22 76.03 54.23 76.03 54.23 76.02L54.23 76.02L54.24 76.01C54.25 75.98 54.27 75.92 54.35 75.78C54.44 75.62 54.54 75.41 54.64 75.17C54.8 74.83 54.97 74.44 55.17 74.1C55.51 73.54 56.16 72.67 56.66 72.16C57.16 71.64 58.3 70.88 58.68 70.63C58.82 70.54 58.87 70.51 58.89 70.51C58.9 70.5 58.9 70.49 58.92 70.48C58.94 70.45 58.96 70.43 58.98 70.42C59.02 70.39 59.04 70.37 59.04 70.35C59.04 70.32 59 70.29 58.92 70.21C58.89 70.18 58.86 70.16 58.85 70.14L58.83 70.12C58.82 70.11 58.81 70.11 58.81 70.1C58.77 70.07 58.73 70.04 58.56 69.93L58.43 69.85C58 69.56 56.89 68.7 56.33 68.18C55.76 67.67 55.06 66.94 54.55 66.37C54.07 65.81 53.57 65.07 53.28 64.52C53.06 64.1 52.94 63.91 52.77 63.64L52.77 63.64L52.67 63.5L52.6 63.38C52.33 62.93 51.93 62.26 51.68 61.86C51.62 61.78 51.58 61.7 51.55 61.64C51.42 61.42 51.37 61.34 51.06 61.18C50.96 61.13 50.86 61.08 50.75 61.02C50.45 60.87 50.12 60.7 49.81 60.52C49.52 60.34 49.5 60.33 49.33 60.19C49.25 60.13 49.15 60.05 48.97 59.92C48.39 59.48 47.1 58.42 46.45 57.76C46.42 57.73 46.4 57.71 46.37 57.68C46.27 57.58 46.15 57.45 46.06 57.39C45.95 57.31 45.89 57.29 45.78 57.42C45.66 57.56 45.39 57.67 45.21 57.74C45.17 57.75 45.14 57.76 45.12 57.77C45.01 57.8 45 57.8 44.83 57.94C44.76 57.99 44.72 58.02 44.68 58.05C44.6 58.11 44.53 58.16 44.29 58.39C43.92 58.74 42.77 59.62 42.23 59.98C41.7 60.33 41.15 60.52 40.6 60.68C40.04 60.87 39.12 61.06 38.71 61.15C38.41 61.21 38.38 61.18 38.32 61.12C38.3 61.09 38.27 61.06 38.22 61.03C38.13 60.97 38.11 60.93 38.09 60.89C38.07 60.85 38.04 60.8 37.95 60.73C37.83 60.63 37.79 60.44 37.79 60.26C37.79 60.17 37.8 60.07 37.82 60L37.84 59.96C37.85 59.9 37.87 59.86 37.87 59.83C37.87 59.77 37.81 59.77 37.62 59.8C37.32 59.83 36.77 59.8 36.43 59.63C36.1 59.45 35.82 59.09 35.82 58.74C35.82 58.59 35.82 58.45 35.83 58.32L35.83 58.32C35.83 58.19 35.84 58.08 35.84 57.96C35.84 57.9 35.84 57.84 35.83 57.79C35.83 57.76 35.83 57.73 35.83 57.7C35.83 57.5 35.87 57.36 35.93 57.2L35.95 57.12C35.98 57.03 36 56.98 36 56.93C36 56.87 35.97 56.82 35.91 56.72L35.9 56.71L35.87 56.66L35.86 56.64L35.84 56.6C35.77 56.48 35.72 56.39 35.63 56.17C35.57 56.04 35.53 55.88 35.53 55.71C35.53 55.53 35.58 55.34 35.7 55.16C35.82 54.97 35.87 54.84 35.87 54.69C35.87 54.56 35.84 54.41 35.78 54.2C35.76 54.1 35.74 54 35.74 53.9C35.74 53.5 35.96 53.1 36.58 53.05C36.81 53.03 37.1 53.01 37.42 52.99C38.23 52.94 39.23 52.87 39.79 52.77C40.58 52.62 41.45 52.52 42 52.57C42.38 52.6 42.63 52.66 42.85 52.71C42.94 52.73 43.03 52.75 43.12 52.77C43.4 52.82 43.49 52.82 43.62 52.8C44.74 52.73 46.65 52.68 47.52 52.72C48.08 52.74 48.12 52.76 48.24 52.84C48.3 52.88 48.39 52.95 48.6 53.03C48.83 53.12 49.09 53.25 49.36 53.38C49.84 53.6 50.35 53.85 50.78 53.96C50.97 54.02 51.13 54.06 51.27 54.1C51.63 54.2 51.9 54.28 52.4 54.4C53.1 54.56 53.58 54.68 54.54 54.91C54.81 54.98 55.18 55.06 55.59 55.16C56.63 55.4 57.93 55.71 58.6 55.91C58.99 56.02 59.38 56.13 59.75 56.24C60.29 56.39 60.78 56.52 61.12 56.64L61.16 56.65C61.43 56.75 61.44 56.75 61.45 56.76C61.46 56.77 61.47 56.78 61.67 56.87C61.98 57.02 62.32 57.23 62.67 57.45C62.84 57.55 63.01 57.65 63.18 57.76C63.59 58 63.91 58.22 64.32 58.52C64.44 58.61 64.57 58.7 64.72 58.8C65.35 59.25 66.86 60.63 67.27 61.15C67.49 61.41 67.62 61.57 67.72 61.69C67.81 61.8 67.88 61.87 67.96 61.98C68.01 62.04 68.04 62.09 68.06 62.12C68.1 62.15 68.11 62.17 68.11 62.19L68.11 62.19C68.11 62.2 68.1 62.21 68.08 62.23L68.06 62.25C68 62.32 67.94 62.28 67.82 62.19C67.78 62.17 67.73 62.13 67.68 62.1C67.57 62.03 67.26 61.82 66.95 61.61C66.64 61.39 66.33 61.18 66.22 61.11C66.18 61.09 66.14 61.06 66.1 61.03C65.92 60.91 65.74 60.78 65.74 60.86C65.74 60.86 65.74 60.86 65.74 60.87C65.75 60.97 65.93 61.12 66.21 61.36C66.26 61.4 66.3 61.44 66.36 61.48C66.72 61.78 67.61 62.56 68.13 63.06C68.65 63.56 69.46 64.37 69.95 64.91C70.13 65.11 70.34 65.32 70.55 65.53C70.89 65.88 71.24 66.23 71.44 66.5C71.56 66.66 71.64 66.75 71.7 66.81C71.81 66.92 71.86 66.97 71.96 67.24C71.99 67.34 72.03 67.41 72.05 67.46C72.09 67.56 72.12 67.61 72.12 67.73C72.12 67.82 72.11 67.95 72.07 68.17C72.06 68.26 72.04 68.37 72.02 68.49C71.92 69.19 71.76 70.21 71.72 71.08C71.67 72.09 71.65 73.87 71.65 74.92C71.65 75.18 71.66 75.45 71.66 75.73C71.66 76.02 71.66 76.31 71.66 76.6C71.66 77.16 71.65 77.69 71.62 78.08C71.57 78.62 71.55 78.68 71.48 78.86C71.44 78.95 71.4 79.06 71.34 79.24C71.15 79.82 71.09 79.95 70.77 80.67L70.7 80.81C70.32 81.66 69.01 83.25 68.11 83.85C67.21 84.45 65.54 85.07 64.9 85.28C64.8 85.31 64.71 85.34 64.64 85.36C64.39 85.44 64.32 85.46 64.27 85.5C64.24 85.52 64.22 85.54 64.2 85.57L64.18 85.58C64.17 85.59 64.17 85.6 64.17 85.61C64.17 85.67 64.47 85.64 64.69 85.63C64.8 85.62 64.88 85.61 64.9 85.61C64.93 85.61 64.94 85.61 64.95 85.6C64.96 85.59 64.97 85.59 65 85.6C65.09 85.61 65.17 85.6 65.24 85.6C65.45 85.59 65.56 85.58 65.79 85.96C66.09 86.46 66.54 87.38 66.77 88.03L66.85 88.24C67.03 88.74 67.13 89.02 67.32 89.72C67.4 89.99 67.43 90.36 67.43 90.76C67.43 91.57 67.3 92.51 67.12 93.02C66.96 93.48 66.84 93.74 66.72 94C66.64 94.15 66.57 94.31 66.49 94.51C66.46 94.59 66.44 94.64 66.42 94.69C66.37 94.8 66.35 94.85 66.34 94.9C66.33 94.95 66.33 94.99 66.33 95.09C66.32 95.18 66.32 95.3 66.31 95.51C66.26 96.16 66.22 97.41 66.22 98.39C66.22 98.54 66.22 98.69 66.22 98.82C66.22 98.85 66.22 98.88 66.22 98.91C66.22 99.94 65.96 101.57 65.74 102.4C65.58 102.98 65.33 103.42 65.11 103.79C65.01 103.96 64.92 104.12 64.85 104.28C64.77 104.45 64.73 104.51 64.7 104.55L64.7 104.56L64.69 104.56C64.69 104.57 64.69 104.57 64.69 104.58C64.69 104.58 64.68 104.58 64.68 104.59C64.68 104.59 64.69 104.6 64.69 104.62C64.7 104.66 64.72 104.73 64.73 104.89C64.75 105.01 64.77 105.19 64.79 105.39C64.85 105.94 64.94 106.69 64.94 107.13C64.94 107.2 64.94 107.27 64.93 107.32C64.92 107.48 64.92 107.58 64.92 107.65C64.92 107.71 64.92 107.74 64.93 107.79C64.93 107.84 64.93 107.89 64.93 108C64.93 108.28 65.03 108.38 65.18 108.54L65.22 108.58C65.28 108.65 65.38 108.74 65.48 108.83C65.67 109.01 65.88 109.2 65.95 109.3C65.99 109.35 66.04 109.39 66.08 109.42C66.13 109.47 66.17 109.51 66.17 109.55C66.17 109.56 66.16 109.58 66.14 109.6C66.13 109.61 66.12 109.61 66.12 109.62L66.1 109.63C66.09 109.64 66.08 109.65 66.07 109.65C66.05 109.66 66.02 109.65 65.92 109.62C65.88 109.61 65.82 109.59 65.75 109.57C65.39 109.45 64.52 109.2 63.9 109.05C63.28 108.9 61.81 108.63 61.19 108.62C60.82 108.61 58.94 108.36 57.44 108.16L57.44 108.16L57.44 108.16C56.47 108.03 55.65 107.93 55.52 107.92C55.42 107.91 55.35 107.91 55.31 107.9C55.26 107.89 55.24 107.89 55.23 107.9C55.23 107.9 55.22 107.91 55.22 107.92C55.22 107.92 55.22 107.93 55.21 107.94L55.21 107.95L55.21 107.97C55.2 107.99 55.2 108 55.2 108.01C55.2 108.07 55.25 108.07 55.39 108.1L55.42 108.1C55.45 108.11 55.49 108.11 55.52 108.12C55.67 108.15 56.94 108.48 58.19 108.82C59.34 109.12 60.47 109.43 60.72 109.48C60.85 109.51 61.01 109.54 61.2 109.58C61.79 109.69 62.59 109.85 63.11 110.07C63.8 110.33 65.14 110.86 65.75 111.26C65.92 111.37 66.06 111.46 66.18 111.54C66.54 111.77 66.76 111.91 67.07 112.16C67.31 112.35 67.47 112.47 67.61 112.57C67.72 112.65 67.82 112.72 67.93 112.81C67.96 112.84 67.99 112.86 68.02 112.88C68.05 112.9 68.07 112.92 68.09 112.94C68.18 113 68.2 113.02 68.29 113.14C68.32 113.19 68.35 113.22 68.38 113.25C68.42 113.29 68.44 113.32 68.44 113.36C68.44 113.41 68.4 113.47 68.29 113.59C68.1 113.81 68.02 113.89 67.77 114.12C67.69 114.2 67.6 114.29 67.48 114.41C66.97 114.87 65.72 116.04 65.03 116.59C65.02 116.6 65 116.61 64.98 116.63C64.92 116.67 64.85 116.73 64.85 116.76C64.85 116.78 64.87 116.79 64.9 116.8C64.95 116.81 64.95 116.83 64.95 116.84L64.95 116.85L64.95 116.85L64.95 116.85C64.95 116.86 64.97 116.85 65.02 116.82C65.05 116.8 65.11 116.77 65.2 116.72C65.62 116.5 67.06 115.87 67.73 115.75L67.88 115.73C68.53 115.61 69.4 115.46 69.9 115.52C70.08 115.54 70.15 115.54 70.19 115.54L70.2 115.54L70.21 115.54C70.22 115.54 70.22 115.54 70.23 115.55C70.24 115.55 70.25 115.56 70.27 115.57C70.31 115.59 70.38 115.64 70.53 115.72C70.88 115.9 71.45 116.32 71.95 116.7C72.18 116.87 72.4 117.03 72.57 117.15C72.94 117.42 73.39 117.77 73.8 118.09L73.8 118.09L73.8 118.09C74.02 118.26 74.22 118.42 74.4 118.55C74.9 118.93 75.53 119.45 75.82 119.76C75.86 119.8 75.9 119.84 75.93 119.88C75.98 119.92 76.02 119.96 76.06 120C76.18 120.11 76.24 120.17 76.32 120.28C76.36 120.34 76.39 120.37 76.41 120.39C76.42 120.39 76.42 120.4 76.43 120.4L76.43 120.41L76.43 120.41L76.44 120.42C76.44 120.42 76.44 120.42 76.44 120.42C76.44 120.43 76.43 120.45 76.41 120.49L76.4 120.49C76.39 120.52 76.38 120.54 76.38 120.55C76.37 120.56 76.37 120.57 76.36 120.58C76.35 120.59 76.34 120.59 76.28 120.59C76.24 120.59 76.2 120.59 76.13 120.59C75.83 120.61 74.71 120.69 74.36 120.74C74.01 120.79 73.54 120.88 73.39 120.94C73.34 120.96 73.31 120.98 73.28 120.98C73.25 120.99 73.23 121 73.23 121.01C73.23 121.02 73.24 121.03 73.28 121.06C73.3 121.08 73.31 121.1 73.31 121.11C73.32 121.11 73.32 121.11 73.32 121.12C73.33 121.13 73.35 121.13 73.49 121.13C73.54 121.13 73.61 121.13 73.69 121.13C74.18 121.13 75.52 121.36 76.25 121.66C76.97 121.96 78.01 122.56 78.57 123.06C78.9 123.34 79.23 123.7 79.49 124.04C88.11 119.83 97.55 116.44 107.6 114.03C106.58 113.13 105.9 112.09 105.67 110.46C105.67 110.44 105.67 110.42 105.67 110.4C105.67 110.32 105.69 110.23 105.71 110.14C105.73 110.05 105.75 109.96 105.75 109.88C105.75 109.83 105.74 109.78 105.72 109.73C105.68 109.59 105.54 109.49 105.41 109.39C105.32 109.33 105.23 109.27 105.19 109.2C104.4 108.07 103.98 107.11 103.98 106.42C103.98 105.3 105.07 104.85 107.43 105.39C107.91 104.36 108.78 102.71 109.33 101.92C109.63 101.48 109.81 101.29 109.98 101.09C110.12 100.94 110.26 100.78 110.47 100.48C109.96 100.7 109.55 100.52 109.14 100.34C108.86 100.22 108.59 100.1 108.28 100.1C107.89 100.11 107.69 100.31 107.48 100.52C107.29 100.71 107.09 100.91 106.74 100.97C106.6 100.99 106.48 101.01 106.37 101.04C105.93 101.12 105.69 101.17 104.9 100.92C103.92 100.62 101.33 99.77 100.42 99.3C99.94 99.05 99.88 98.86 99.83 98.67C99.78 98.51 99.74 98.36 99.42 98.17C98.72 97.77 96.66 97.41 96.11 97.39C93.2 97.28 91.35 97.95 88.8 98.86L88.55 98.95C87.84 99.21 87.15 99.41 86.46 99.61C84.58 100.14 82.79 100.65 81.07 102.26C79.85 103.41 79.01 106.41 78.56 108.24C78.53 108.35 78.52 108.5 78.52 108.67C78.52 108.77 78.52 108.87 78.53 108.98C78.53 109.09 78.53 109.2 78.53 109.31C78.53 109.65 78.51 109.97 78.36 110.15C78.04 110.53 77.74 110.38 77.66 109.72C77.65 109.65 77.64 109.57 77.64 109.48C77.64 109.27 77.67 109.02 77.69 108.75C77.72 108.44 77.75 108.1 77.75 107.78C77.75 107.41 77.71 107.05 77.57 106.79C76.42 107.94 75.27 109.13 74.12 110.32C73.41 111.06 72.7 111.8 71.99 112.53C71.9 112.45 71.87 112.34 71.87 112.21C71.87 111.8 72.19 111.23 72.33 110.99C72.35 110.96 72.36 110.93 72.37 110.91C72.67 110.35 72.99 109.85 73.3 109.37C73.74 108.66 74.18 107.98 74.51 107.17C73.19 107.94 70.12 107.6 69.08 107.15C68.63 106.96 68.49 106.87 68.49 106.82C68.49 106.77 68.59 106.76 68.71 106.75C68.77 106.74 68.84 106.74 68.9 106.72C69.55 106.56 70.22 106.52 70.89 106.48C71.82 106.42 72.75 106.37 73.63 105.99C72.96 105.78 72.28 105.55 71.61 105.32C71.03 105.13 70.44 104.93 69.87 104.74C70.03 103.87 70.9 104.1 71.63 104.29C71.93 104.37 72.21 104.44 72.41 104.43C73.86 104.32 74.42 103.17 74.93 102.11C75.15 101.67 75.36 101.24 75.62 100.92C76.15 100.25 76.67 100.21 77.21 100.17C77.56 100.14 77.93 100.11 78.31 99.9C80.07 98.93 81.67 97.42 83.22 95.97C84.39 94.86 85.53 93.79 86.7 92.98C89.41 91.12 91.28 90.79 94.35 90.4C95 90.33 95.99 90.45 96.94 90.56L96.94 90.56C97.82 90.67 98.65 90.77 99.14 90.7C99.79 90.62 99.92 90.41 100.03 90.22C100.1 90.12 100.16 90.03 100.29 89.96C101.09 89.53 101.76 89.81 102.39 90.07C102.82 90.25 103.24 90.43 103.67 90.37C104.47 90.28 104.79 89.95 105.2 89.53C105.34 89.39 105.48 89.24 105.66 89.09C106.13 88.67 106.22 87.9 106.29 87.18C106.33 86.84 106.37 86.51 106.44 86.23C106.56 85.79 106.68 85.36 106.8 84.93C107.35 82.91 107.9 80.94 107.9 78.86C107.9 78.74 107.9 78.62 107.9 78.5C107.88 78.03 107.76 77.67 107.64 77.31C107.52 76.94 107.4 76.57 107.39 76.1C107.44 76.21 107.49 76.31 107.54 76.42C109.21 79.6 110.65 82.93 112.09 86.24L112.19 86.48C112.21 86.52 112.23 86.57 112.25 86.62C112.32 86.8 112.38 86.97 112.61 87.01C111.32 82.97 109.92 79.08 107.76 75.4L107.78 75.4C109.15 75.27 110.5 74.79 111.71 74.25C111.9 74.18 112.41 73.87 112.41 73.79C112.41 73.78 112.4 73.77 112.38 73.77C112.03 73.76 111.55 73.86 111.05 73.97L111.05 73.97C110.51 74.08 109.96 74.2 109.55 74.17C109.36 74.16 109.16 74.13 108.97 74.1C108.54 74.03 108.12 73.96 107.8 74.1C107.89 73.74 107.96 73.38 107.96 73.02C108.31 72.98 108.65 72.95 108.99 72.92C110.73 72.75 112.32 72.6 113.53 71.09C113.55 71.07 113.56 71.03 113.56 70.99C113.56 70.9 113.52 70.8 113.46 70.8C111.88 70.6 110.6 71.16 109.27 71.75C108.79 71.95 108.31 72.16 107.81 72.34C108 72.23 108.34 72.05 108.69 71.86L108.7 71.85L108.7 71.85C109.24 71.56 109.81 71.25 109.99 71.13L110.08 71.07C110.31 70.91 110.6 70.72 110.6 70.66C110.6 70.65 110.58 70.64 110.54 70.65C110 70.7 108.92 70.93 108.03 71.13C107.76 71.19 107.51 71.25 107.29 71.29C106.85 71.39 106.53 71.59 106.21 71.79C105.85 72.02 105.48 72.25 104.92 72.36C103.85 72.56 101.63 71.88 100.69 71.51C96.36 69.83 93.25 67.88 89.71 64.96C89.36 64.67 89.02 64.27 88.66 63.85C88.09 63.19 87.48 62.47 86.73 62.1C86.38 61.92 86 61.8 85.64 61.68C84.73 61.4 83.87 61.13 83.52 60.02C80.21 59.67 77.77 58.34 75.68 55.79C75.29 55.32 75.07 54.78 74.85 54.24C74.58 53.57 74.31 52.92 73.73 52.38C73.27 51.96 72.8 51.87 72.33 51.77C71.72 51.65 71.1 51.52 70.5 50.67C70.38 50.49 70.23 50.3 70.07 50.09C69.3 49.06 68.25 47.66 68.25 46.35C68.25 45.66 68.55 44.99 69.35 44.42C71.03 43.22 73.47 43.29 75.83 43.37C77.13 43.41 78.41 43.45 79.51 43.27C77.94 41.19 74.95 40.57 72.66 40.74C70.98 40.86 70.5 41.34 69.79 42.07C69.53 42.34 69.23 42.64 68.83 42.97C68.5 42.02 67.31 40.54 66.56 40.12C66.12 39.88 65.99 39.99 65.85 40.1C65.76 40.18 65.66 40.26 65.44 40.21C65.21 40.15 65.13 40.08 65.07 40.01C64.98 39.93 64.9 39.86 64.53 39.86C64.32 39.86 64.06 39.97 63.79 40.08C63.21 40.31 62.55 40.57 62.08 40.04C61.9 39.84 61.83 39.6 61.83 39.35C61.83 39 61.95 38.62 62.07 38.26C62.18 37.91 62.29 37.58 62.29 37.3C62.29 37.25 62.28 37.2 62.28 37.15C62.26 37.02 62.05 37.18 61.87 37.32L61.87 37.32C61.74 37.43 61.61 37.52 61.59 37.48C61.59 37.47 61.59 37.47 61.59 37.46C61.59 37.41 61.62 37.32 61.67 37.22C61.72 37.08 61.78 36.93 61.78 36.83C61.78 36.77 61.76 36.73 61.71 36.71C61.62 36.69 61.46 36.74 61.29 36.79C61.02 36.88 60.73 36.97 60.67 36.76C60.67 36.75 60.66 36.73 60.66 36.71C60.66 36.58 60.82 36.5 60.96 36.42C61.07 36.36 61.18 36.31 61.18 36.24C61.18 36.21 61.16 36.17 61.11 36.13C60.96 36.02 60.75 36.07 60.54 36.11C60.28 36.17 60.01 36.22 59.85 35.98C59.82 35.93 59.81 35.89 59.81 35.86C59.81 35.75 59.95 35.71 60.07 35.68C60.18 35.65 60.28 35.63 60.28 35.57C60.28 35.53 60.23 35.47 60.12 35.38C59.95 35.25 59.85 35.21 59.79 35.18C59.77 35.17 59.75 35.16 59.73 35.14C59.66 35.1 59.62 35.02 59.44 34.67L59.33 34.49C59.09 34.03 58.65 33.67 58.17 33.26C57.67 32.84 57.11 32.37 56.66 31.71L56.58 31.74C56.44 31.54 56.28 31.32 56.1 31.08C55.41 30.16 54.56 29.01 54.56 27.78C54.56 27.33 54.68 26.87 54.96 26.4C56.19 24.34 59.54 24.97 61.24 26.02C62.03 26.5 62.47 27.03 62.9 27.55C63.4 28.15 63.88 28.73 64.85 29.18C65.41 29.44 66.15 29.62 66.92 29.8C68.63 30.21 70.52 30.66 71.04 32.21C71.17 32.62 71.22 33 71.22 33.37C71.22 33.86 71.13 34.32 71.05 34.76C70.96 35.18 70.89 35.59 70.89 35.99C70.89 36.6 71.06 37.21 71.67 37.86C72.15 38.38 72.37 38.24 72.78 37.98C73 37.84 73.27 37.67 73.66 37.55C74.78 37.2 76.44 36.85 77.82 37.68C79.55 38.72 80.63 40.19 81.8 41.79C82.21 42.35 82.63 42.93 83.09 43.5C86.18 47.36 90.19 50.8 94.19 53.86C100.24 54.58 105.91 56.19 111.77 57.9C111.93 57.95 112.15 58.02 112.41 58.11L112.41 58.11C113.44 58.47 115.09 59.04 115.52 58.65C117.11 57.21 117.84 56.17 118.83 54.75L118.84 54.75C119.2 54.23 119.6 53.66 120.1 53C120.72 52.17 121.36 51.15 122.03 50.08C123.36 47.94 124.83 45.59 126.57 44.15C127.32 43.52 128.05 43.62 128.82 43.73C129.29 43.79 129.76 43.86 130.26 43.77C127.94 46.2 125.58 48.56 123.21 50.92C127.12 48.29 130.53 45.21 133.69 41.75C133.74 41.7 133.76 41.65 133.76 41.61C133.76 41.5 133.63 41.44 133.57 41.44C131.83 41.12 130.22 41.38 128.57 41.65C127.58 41.82 126.58 41.98 125.53 42.02C125 39.34 122.29 38.18 120.11 37.33C119.49 37.08 118.77 36.87 118.05 36.65C116.26 36.12 114.4 35.57 113.6 34.39C112.98 33.49 112.75 32.71 112.75 31.98C112.75 30.92 113.24 29.98 113.77 28.98C114.11 28.32 114.47 27.64 114.72 26.88C113.47 25.91 111.88 25.73 110.33 25.56C109.45 25.46 108.58 25.36 107.8 25.12C105.84 24.52 105.27 23.36 105.27 22.01C105.27 20.98 105.6 19.83 105.93 18.74C106.12 18.1 106.3 17.49 106.41 16.92C106.56 16.14 106.61 15.36 106.61 14.59C106.61 13.76 106.55 12.94 106.49 12.13C106.43 11.34 106.38 10.57 106.38 9.81C106.38 8.53 106.54 7.3 107.13 6.09C108.76 2.75 111.12 5.3 112.11 7.44C112.44 8.17 112.6 9.15 112.72 9.97C112.8 10.43 112.86 10.84 112.94 11.13C113.07 11.58 113.17 11.64 113.25 11.68C113.31 11.72 113.37 11.75 113.41 12.02C113.5 12.58 113.71 13.15 114.01 13.48C114.12 13.6 114.15 13.64 114.15 13.66C114.15 13.68 114.14 13.68 114.13 13.69C114.1 13.71 114.06 13.75 114.06 13.88C114.06 13.9 114.06 13.92 114.06 13.94C114.07 14.07 114.1 14.25 114.14 14.44C114.19 14.78 114.26 15.17 114.26 15.46C114.26 15.56 114.25 15.64 114.23 15.71C114.22 15.73 114.22 15.75 114.22 15.77C114.22 15.91 114.38 15.94 114.53 15.97C114.68 16 114.83 16.03 114.83 16.16C114.83 16.17 114.83 16.18 114.83 16.19C114.82 16.23 114.81 16.29 114.8 16.35C114.75 16.54 114.68 16.81 114.68 17.05C114.68 17.3 114.75 17.53 114.98 17.64C115.5 17.87 116.02 15.84 116.07 15.61C116.07 15.6 116.07 15.6 116.07 15.59C116.07 15.44 115.75 15.06 115.51 14.77L115.51 14.77C115.37 14.6 115.25 14.46 115.25 14.43C115.25 14.42 115.26 14.42 115.28 14.43C116.01 14.77 116.26 15.31 116.26 15.93C116.26 16.51 116.04 17.17 115.77 17.8C115.74 17.88 115.68 17.94 115.61 18C115.51 18.11 115.41 18.22 115.41 18.38C115.41 18.43 115.41 18.48 115.43 18.54C115.52 18.78 115.6 19.15 115.6 19.46C115.6 19.63 115.58 19.79 115.52 19.9C115.5 19.94 115.49 19.97 115.47 19.99L115.47 19.99C115.45 20.05 115.44 20.07 115.44 20.08C115.44 20.08 115.44 20.08 115.44 20.09C115.44 20.09 115.44 20.09 115.45 20.1C115.47 20.11 115.51 20.13 115.55 20.23C115.59 20.33 115.72 20.43 115.87 20.53C116.09 20.7 116.34 20.89 116.34 21.12C116.34 21.14 116.34 21.15 116.34 21.16C116.32 21.34 116.15 21.43 115.99 21.52C115.83 21.6 115.69 21.68 115.69 21.82C115.69 21.88 115.71 21.95 115.77 22.03C116.01 22.39 116.48 22.69 116.93 22.97C117.09 23.08 117.26 23.19 117.41 23.29C118.91 21.78 120.83 20.73 122.81 21.56C123.99 22.07 124.25 22.89 124.51 23.72C124.68 24.27 124.85 24.83 125.3 25.3C125.73 25.77 126.28 25.98 126.86 26.2C127.33 26.38 127.81 26.57 128.29 26.9C128.78 27.25 129.17 27.26 129.6 27.28C130.1 27.3 130.65 27.33 131.5 27.88C132.81 28.75 134.37 30.38 135.89 31.97C136.19 32.28 136.49 32.59 136.78 32.89C137.35 33.48 138.19 34.09 139.08 34.75C141.01 36.17 143.22 37.79 143.67 39.79C143.85 40.59 143.93 41.39 143.93 42.2C143.93 45.44 142.64 48.73 141.5 51.65C141.14 52.57 140.8 53.46 140.51 54.3C139.67 56.76 138.78 57.93 137.68 59.37L137.48 59.63C136.91 60.39 136.45 60.81 136.03 61.2C135.57 61.62 135.15 62 134.67 62.73C134.24 63.39 133.79 64.03 133.35 64.66C132.87 65.35 132.38 66.05 131.9 66.79C132.5 67.79 132.59 68.93 132.59 70.06C132.59 70.33 132.59 70.61 132.58 70.88C132.58 71.15 132.57 71.42 132.57 71.68C132.57 71.98 132.58 72.27 132.6 72.56C132.67 73.45 132.95 73.98 133.22 74.51C133.51 75.06 133.8 75.61 133.87 76.58C133.9 76.95 133.92 77.33 133.92 77.72C133.92 79.33 133.64 81.05 132.89 82.75C131.95 84.85 130.5 87.53 129.28 89.64C130.81 87.76 132.35 85.8 133.82 83.85C133.42 87.91 132.84 91.94 132.13 95.94C134.19 97.28 135.05 99.44 135.91 101.63C136.14 102.2 136.37 102.77 136.61 103.33C138 103.67 139.02 104.88 140 106.03C140.65 106.8 141.28 107.56 142 108C143.3 108.83 144.6 109.38 145.91 109.85C151.87 109.93 157.72 110.33 163.42 111.05C163.78 110.88 164.21 110.64 164.35 110.4C165.45 108.47 167.1 105.47 167.96 103.81C168.45 102.84 168.74 102.04 168.99 101.32C169.18 100.8 169.35 100.31 169.58 99.82C169.84 99.26 170.09 98.86 170.32 98.5C170.58 98.1 170.81 97.74 170.98 97.26C171.52 95.81 171.74 94.49 171.98 93.11C172.07 92.59 172.16 92.05 172.27 91.5C171.94 91.68 171.6 91.82 171.27 91.95C170.81 92.14 170.36 92.32 169.93 92.6C169.18 93.08 168.49 93.68 168.42 94.66C168.41 94.83 168.41 95 168.4 95.19C168.36 96.11 168.32 97.22 167.71 97.76C167.21 98.19 166.85 98 166.5 97.82C166.33 97.73 166.16 97.64 165.98 97.62C165.68 97.61 165.57 97.67 165.46 97.73C165.37 97.78 165.29 97.82 165.1 97.82C164.78 97.82 164.49 97.77 164.19 97.72C164.1 97.7 164.01 97.69 163.91 97.67C163.74 97.65 163.64 97.58 163.55 97.52C163.42 97.43 163.3 97.34 162.97 97.37C162.77 97.39 162.58 97.51 162.38 97.64C162.05 97.85 161.69 98.08 161.22 97.87C160.8 97.69 160.54 97.31 160.27 96.91C160.05 96.59 159.83 96.27 159.51 96.01C159.03 95.61 158.19 95.3 157.44 95.03C157.08 94.89 156.74 94.77 156.47 94.65C156.08 94.46 155.74 94.21 155.41 93.96C155.05 93.69 154.71 93.44 154.33 93.3C153.88 93.13 153.48 93.22 153.09 93.3C152.86 93.35 152.64 93.39 152.43 93.38L152.42 93.38C151.86 93.35 151.27 93.31 151.01 92.97C150.99 92.94 150.98 92.92 150.98 92.9C150.98 92.74 151.6 92.8 151.98 92.84C152.15 92.86 152.28 92.88 152.28 92.86C152.28 92.86 152.27 92.86 152.26 92.85C150.44 91.9 148.8 90.84 148.15 88.74C148.12 88.67 148.11 88.62 148.11 88.6C148.11 88.51 148.29 88.82 148.41 89.02C148.45 89.1 148.49 89.17 148.5 89.17C149.64 90.65 150.89 91.64 152.61 92.33C151.99 91.97 151.27 91.49 150.71 91.1C150.14 90.72 149.69 90.27 149.65 89.62C149.65 89.57 149.65 89.52 149.65 89.48C149.65 89.32 149.68 89.36 149.72 89.41C149.77 89.48 149.84 89.58 149.9 89.32C149.93 89.19 149.95 88.98 149.95 88.74C149.95 88.46 149.93 88.13 149.92 87.83C149.9 87.58 149.89 87.36 149.89 87.19C149.89 87.11 149.9 87.04 149.9 87C149.92 86.82 149.97 87.14 150.02 87.46C150.06 87.71 150.1 87.96 150.12 87.96C150.13 87.96 150.14 87.93 150.14 87.89C150.14 87.75 150.09 87.47 150.05 87.36C150.04 87.31 150.03 87.23 150.03 87.13C150.03 87.02 150.04 86.89 150.05 86.78L150.05 86.69C150.05 86.65 150.05 86.62 150.05 86.6C150.05 86.59 150.05 86.58 150.05 86.56C150.05 86.35 150.18 85.75 150.29 86.1C150.34 86.25 150.39 86.55 150.45 86.87C150.53 87.28 150.61 87.71 150.69 87.86C150.82 88.13 151.62 89.47 151.66 88.99C151.66 88.98 151.66 88.97 151.66 88.96C151.66 88.69 151.49 88.19 151.31 87.69C151.15 87.22 150.98 86.74 150.96 86.45C150.95 86.39 150.95 86.35 150.95 86.31C150.95 86.02 151.07 86.13 151.13 86.19C151.16 86.21 151.17 86.23 151.17 86.21C151.15 85.98 151.14 85.72 151.14 85.44C151.14 84.45 151.3 83.3 151.64 82.62C151.86 82.19 152.15 81.88 152.41 81.6C152.68 81.31 152.92 81.06 153.05 80.72C153.1 80.6 153.12 80.5 153.12 80.43C153.12 80.26 153.03 80.19 152.93 80.12C152.84 80.05 152.75 79.98 152.74 79.83C152.74 79.8 152.74 79.78 152.74 79.76C152.74 79.66 152.75 79.57 152.76 79.5C152.77 79.44 152.78 79.39 152.78 79.34C152.78 79.24 152.75 79.16 152.68 79.04C152.57 78.9 152.48 78.9 152.37 78.89C152.28 78.89 152.18 78.88 152.04 78.78C151.76 78.58 150.99 78.05 150.64 78.01C150.57 78.01 150.54 78.02 150.54 78.04C150.54 78.13 151.03 78.4 151.09 78.43C151.09 78.43 151.1 78.43 151.11 78.44C151.12 78.44 151.12 78.44 151.13 78.44L151.16 78.45L151.2 78.45C151.36 78.48 151.61 78.53 151.61 78.64C151.61 78.67 151.6 78.7 151.57 78.73C151.37 78.94 150.89 78.66 150.66 78.48C148.99 77.23 148.14 76.01 148.14 74C148.14 73.87 148.14 73.74 148.15 73.61C148.16 73.67 148.16 73.76 148.16 73.86C148.16 73.9 148.16 73.94 148.16 73.99C148.16 74.04 148.16 74.09 148.16 74.14C148.16 74.6 148.19 75.13 148.58 75.2C148.75 75.23 148.81 75.11 148.81 74.92C148.81 74.69 148.73 74.38 148.67 74.11C148.62 73.9 148.57 73.72 148.57 73.63C148.57 73.6 148.58 73.59 148.58 73.57C149.21 72.06 149.92 70.95 150.79 70.22C150.84 70.16 150.89 70.11 150.95 70.06L150.89 70.13C152.23 69.08 153.96 68.88 156.41 69.45C156.73 69.52 156.97 69.74 157.18 69.94C157.59 70.31 157.92 70.61 158.55 69.88C158.86 69.51 159.01 69.11 159.01 68.75C159.01 68 158.38 67.38 157.27 67.45C157.74 67.08 158.28 67.2 158.81 67.3C159.09 67.36 159.36 67.42 159.62 67.4C159.83 67.39 159.9 67.35 159.9 67.31C159.9 67.28 159.85 67.24 159.81 67.2C159.77 67.17 159.73 67.13 159.73 67.11C159.73 67.08 159.76 67.06 159.85 67.05C160.27 67 160.53 67.4 160.73 67.7L160.75 67.73C160.9 67.96 161.02 68.24 161.12 68.47C161.16 68.55 161.19 68.62 161.22 68.68C161.28 68.81 161.34 68.82 161.4 68.84C161.45 68.85 161.5 68.86 161.52 68.97C161.53 68.99 161.53 69.01 161.53 69.03C161.53 69.09 161.5 69.11 161.47 69.14C161.42 69.18 161.37 69.22 161.37 69.35C161.37 69.36 161.37 69.37 161.37 69.38C161.39 69.68 161.39 69.71 161.39 70.21C161.39 70.48 161.1 70.98 160.82 71.46C160.58 71.86 160.36 72.25 160.32 72.47C160.31 72.49 160.31 72.51 160.31 72.53C160.31 72.77 160.6 72.91 160.88 73.05C161.13 73.17 161.37 73.29 161.39 73.47C161.39 73.49 161.39 73.5 161.39 73.51C161.39 73.66 161.33 73.8 161.27 73.91C161.24 74 161.2 74.07 161.2 74.13C161.2 74.2 161.26 74.24 161.42 74.24C161.73 74.24 161.74 73.7 161.75 73.25C161.75 72.99 161.76 72.76 161.82 72.67C161.97 72.46 162.37 73.15 162.37 73.49C162.37 73.53 162.37 73.56 162.36 73.59C161.74 75.19 160.9 75.73 159.06 75.25C158.88 75.2 158.29 74.89 158.18 74.5C158.17 74.47 158.16 74.44 158.16 74.4C158.16 74.31 158.2 74.23 158.23 74.17C158.24 74.13 158.26 74.1 158.26 74.07C158.26 74.01 158.13 74.01 157.61 74.12C156.52 74.34 155.02 75.77 154.78 76.88C154.75 77.02 154.74 77.14 154.74 77.25C154.74 77.75 155 78 155.28 78.26C155.44 78.42 155.6 78.57 155.72 78.78C156.09 79.44 156.32 79.64 156.92 79.79C157.1 79.84 157.16 79.85 157.16 79.84C157.16 79.83 157.13 79.82 157.09 79.8C157.02 79.76 156.9 79.69 156.9 79.64C156.9 79.63 156.91 79.62 156.92 79.61C156.96 79.59 156.97 79.56 156.97 79.53C156.97 79.49 156.94 79.45 156.92 79.41C156.89 79.38 156.88 79.35 156.88 79.33C156.88 79.31 156.89 79.3 156.92 79.29C160.52 78.46 162.77 78.93 165.35 81.76C165.64 82.08 165.84 82.46 166.03 82.82C166.46 83.65 166.86 84.41 168.29 84.3C168.93 84.25 170.36 83.09 170.7 82.37C171.03 81.66 171.45 80.19 171.57 79.69C171.61 79.49 171.75 79.22 171.86 78.99C171.95 78.81 172.03 78.67 172.03 78.61C172.03 78.56 171.97 78.59 171.82 78.73C171.39 79.1 170.72 80.56 170.28 81.51C170.13 81.84 170.01 82.11 169.93 82.25C169.86 82.38 169.8 82.51 169.75 82.61C169.61 82.91 169.54 83.05 169.54 82.71C169.54 82.66 169.54 82.59 169.54 82.5C169.56 82.12 169.8 81.39 170.05 80.66C170.3 79.92 170.55 79.17 170.56 78.78C170.56 78.76 170.57 78.74 170.57 78.73C170.57 78.34 170.33 78.64 170.11 78.93C169.96 79.12 169.81 79.31 169.75 79.28C169.66 79.24 169.59 79.54 169.54 79.75C169.5 79.89 169.48 79.98 169.48 79.84C169.48 79.78 169.48 79.66 169.49 79.48C169.56 78.36 169.85 77.02 170.75 76.02C171.26 75.45 171.88 74.95 172.51 74.45C173 74.06 173.5 73.67 173.96 73.22C175.28 71.95 176.58 70.61 177.88 69.26C179.55 67.54 181.22 65.81 182.95 64.23L183.01 64.17C183.27 63.93 183.85 63.38 183.85 63.86C183.85 64.11 183.46 64.59 183.07 65.06C182.71 65.5 182.36 65.93 182.36 66.13C182.36 66.16 182.37 66.19 182.38 66.2C182.63 66.55 184.3 66.05 184.84 65.87C185.27 65.73 185.68 65.15 185.97 64.74C186.04 64.64 186.1 64.55 186.16 64.47C186.2 64.43 186.21 64.39 186.21 64.37C186.21 64.31 186.1 64.32 185.96 64.34C185.78 64.37 185.57 64.4 185.57 64.25C185.57 64.24 185.57 64.23 185.58 64.23C185.6 64.05 185.8 64.02 186.01 63.99C186.22 63.96 186.43 63.93 186.48 63.76C186.48 63.74 186.48 63.73 186.48 63.72C186.48 63.55 186.13 63.57 185.85 63.58C185.66 63.59 185.51 63.6 185.51 63.55C185.51 63.55 185.51 63.55 185.51 63.54C185.53 63.49 185.72 63.47 185.94 63.44C186.22 63.41 186.56 63.38 186.64 63.24C186.66 63.21 186.68 63.19 186.69 63.17C186.72 63.13 186.74 63.11 186.74 63.09C186.74 63.09 186.74 63.09 186.74 63.09C186.73 63.07 186.7 63.08 186.64 63.08C186.59 63.08 186.51 63.08 186.41 63.08C186.03 63.04 185.24 63.09 184.72 63.14C184.48 63.17 184.22 63.25 183.95 63.34C183.65 63.43 183.36 63.53 183.08 63.54C182.79 63.56 182.73 63.4 182.73 63.2C182.73 63.12 182.74 63.03 182.75 62.95C182.76 62.88 182.77 62.82 182.77 62.76C182.78 62.62 183.05 62.54 183.28 62.47C183.44 62.42 183.58 62.38 183.58 62.33C183.58 62.31 183.57 62.3 183.54 62.28C182.77 61.84 181.98 61.61 181.23 61.39C179.78 60.96 178.43 60.55 177.45 58.77C176.65 57.3 176.25 55.85 176.25 54.45C176.25 52.09 177.38 49.86 179.57 47.94C179.57 48.13 179.49 48.27 179.39 48.43C179.36 48.49 179.32 48.54 179.29 48.61C178.12 50.89 177.33 52.88 177.33 55.22C177.33 55.92 177.4 56.65 177.55 57.42C177.62 57.78 177.88 58.15 178.14 58.5C178.31 58.74 178.48 58.97 178.59 59.2C178.47 58.88 178.36 58.6 178.25 58.32C178.01 57.73 177.8 57.19 177.6 56.41C177.52 56.1 177.49 55.73 177.49 55.32C177.49 54.18 177.76 52.8 178.17 52.08C178.38 51.71 178.57 51.43 178.73 51.18C179 50.76 179.23 50.42 179.42 49.89C179.6 49.4 179.68 49.66 179.77 49.94C179.84 50.17 179.91 50.41 180.04 50.34C180.14 50.28 180.17 50.19 180.17 50.08C180.17 49.99 180.15 49.89 180.13 49.79L180.13 49.79C180.11 49.68 180.08 49.56 180.08 49.46C180.08 49.42 180.09 49.39 180.09 49.36C180.13 49.22 180.19 49.21 180.25 49.2C180.29 49.19 180.33 49.18 180.33 49.11C180.33 49.05 180.31 48.96 180.26 48.81C180.18 48.56 180.02 48.22 179.85 47.85C179.61 47.32 179.34 46.73 179.26 46.33C178.83 44.21 178.82 41.81 178.81 39.52C178.81 38 178.8 36.53 178.67 35.22C178.43 32.66 177.41 32.55 175.88 32.38C175.43 32.33 174.95 32.28 174.43 32.16C171.61 31.52 169.45 30.27 167.12 28.92C166.54 28.58 165.95 28.24 165.33 27.9L165.29 27.87C164.84 27.61 164.21 27.24 163.59 27.3C163.36 27.32 163.29 27.31 163.24 27.29C163.15 27.27 163.15 27.27 162.54 27.57C162.21 27.73 162.02 28.14 161.83 28.58C161.47 29.38 161.07 30.27 159.62 29.8C157.38 29.06 156.22 26.95 155.35 24.17C155.12 23.42 154.76 22.54 154.38 21.6C153.52 19.5 152.53 17.07 152.53 14.99C152.53 14.57 152.57 14.15 152.66 13.76C152.9 12.79 153.35 12.77 153.83 12.75C154.09 12.75 154.37 12.74 154.62 12.56C155.23 12.15 155.73 12.56 156.04 12.82C156.1 12.86 156.15 12.9 156.19 12.93C157.09 13.55 157.56 14.12 158.1 14.77C158.36 15.09 158.65 15.44 159.01 15.82C159.52 16.35 159.96 17.04 160.41 17.75C160.93 18.58 161.46 19.42 162.14 20.05C163.08 20.92 164.42 21.35 165.67 21.74C166.09 21.88 166.49 22 166.87 22.14C170.63 23.56 174.41 23.94 178.29 24.17C178.83 24.2 179.32 24.07 179.8 23.94C180.42 23.77 181 23.61 181.63 23.84C183.97 24.69 185.17 26.09 186.48 28.18C187.39 29.66 188.05 31.4 188.69 33.1C188.97 33.83 189.25 34.56 189.54 35.25C190.86 38.44 191.12 41.35 191.4 44.59L191.4 44.62C191.73 44.27 192.06 43.92 192.39 43.56C194.85 40.92 197.46 38.12 199.17 35.5C199.6 34.83 199.76 34.15 199.76 33.51C199.76 32.28 199.16 31.18 198.75 30.53ZM124.12 37.58C122.97 36.02 121.92 34.42 120.86 32.81C120.17 31.76 119.48 30.71 118.76 29.66L118.68 29.54C118.38 29.12 118.03 28.62 117.57 28.37C118.62 32.32 121.18 34.86 124.12 37.58ZM129.35 63.34C128.74 63.63 128.15 63.91 127.64 64.18C128.03 64.06 128.43 64.03 128.83 64C129.33 63.96 129.84 63.92 130.35 63.73C136.03 61.53 138.82 57.27 140.94 51.73L140.97 51.68C141.04 51.53 141.15 51.3 141.15 51.12C141.15 51.06 141.14 51.01 141.11 50.97C140.78 51.5 140.47 52.03 140.16 52.55C138.08 56.03 136.16 59.25 132.53 61.68C131.7 62.24 130.5 62.81 129.35 63.34ZM181.9 69.34C182.05 69.26 182.22 69.18 182.4 69.07L182.4 69.05C182.53 68.96 182.69 68.86 182.85 68.75C183.35 68.42 183.95 68.03 184.46 67.8C182.87 67.83 181.51 68.07 180.06 68.77C179.88 68.85 179.72 69 179.56 69.16C179.42 69.29 179.27 69.43 179.11 69.53C178.96 69.62 178.91 69.59 178.86 69.57C178.79 69.53 178.72 69.49 178.4 69.75C177.85 70.21 176.87 71.36 176.67 72.21C177.01 72.04 177.43 71.81 177.87 71.57C178.49 71.24 179.13 70.89 179.57 70.7C179.88 70.56 180.15 70.5 180.4 70.44C180.76 70.35 181.07 70.28 181.35 70.01C181.43 69.93 181.46 69.89 181.46 69.88C181.46 69.86 181.39 69.9 181.3 69.95C181.18 70.02 181.04 70.1 181.04 70.06C181.04 70.04 181.06 70 181.11 69.93C181.35 69.63 181.6 69.5 181.9 69.34ZM150.95 70.06C151.09 69.87 151.25 69.67 151.42 69.48L151.42 69.46C151.47 69.41 151.49 69.41 151.49 69.44C151.49 69.51 151.36 69.77 151.27 69.83C151.27 69.83 151.27 69.84 151.26 69.84C151.25 69.84 151.25 69.85 151.24 69.85L151.22 69.87C151.15 69.91 151.04 69.98 150.95 70.06ZM150.71 70.39C149.86 71.63 149.48 72.94 149.45 74.62C149.54 74.36 149.55 74.22 149.55 74.09C149.55 74.05 149.55 74.02 149.55 73.98C149.55 73.94 149.55 73.9 149.55 73.86C149.55 73.7 149.57 73.5 149.69 73.12C149.95 72.23 151.06 70.78 152.01 70.11C152.03 70.1 152.04 70.09 152.04 70.08C152.04 70.03 151.63 70.13 151.54 70.21C151.44 70.31 150.91 70.76 150.74 70.51C150.72 70.48 150.71 70.45 150.71 70.41C150.71 70.4 150.71 70.4 150.71 70.39ZM169.11 109.68C168.91 109.96 168.36 110.9 168.01 111.69C171.67 112.26 175.27 112.96 178.79 113.77C178.85 113.72 178.93 113.68 179 113.63C179.37 113.4 179.77 113.13 179.77 112.54C179.75 111.05 179.24 109.32 178.76 107.75C178.53 106.98 178.32 106.26 178.17 105.61C178.01 104.9 177.96 104.3 177.96 103.73C177.96 103.15 178.01 102.6 178.08 102.02C178.13 101.58 178.18 101.13 178.2 100.62C178.22 100.35 178.42 100.7 178.47 100.9C178.52 101.12 178.84 101.78 179.12 101.9C179.29 101.97 179.33 101.92 179.33 101.85C179.33 101.8 179.31 101.75 179.3 101.7C179.3 101.68 179.29 101.66 179.29 101.65C178.96 99.99 178.49 98.14 177.94 96.63C177.62 95.76 177.26 95.25 176.87 94.7C176.57 94.28 176.26 93.84 175.93 93.2C175.24 91.87 174.72 90.44 174.72 88.71C174.72 88.5 174.73 88.28 174.74 88.06C174.77 87.75 174.85 87.34 174.93 86.89C175.07 86.2 175.22 85.42 175.22 84.75C175.22 84.53 175.2 84.31 175.16 84.12C175.01 83.42 174.6 82.96 174.18 82.47C173.91 82.17 173.63 81.85 173.41 81.46C173.24 81.18 173.17 80.82 173.17 80.44C173.17 79.46 173.62 78.31 174.06 77.83C174.39 77.47 174.57 77.42 174.75 77.38C174.9 77.33 175.04 77.3 175.26 77.07C175.75 76.57 176.48 75.25 176.7 74.77C176.79 74.56 177.08 74.32 177.35 74.09C177.63 73.86 177.88 73.64 177.88 73.51C177.88 73.47 177.86 73.43 177.8 73.41C177.38 73.21 176.48 74.12 176.05 74.65C175.92 74.81 175.76 75.02 175.6 75.25C175.19 75.79 174.69 76.46 174.26 76.83C174.06 77 174 76.98 174 76.88C174 76.77 174.08 76.56 174.13 76.42C174.15 76.36 174.17 76.32 174.17 76.31C174.17 76.3 174.16 76.32 174.12 76.37C172.85 78.45 171.86 80.57 171.86 83.07C171.86 83.36 171.87 83.65 171.9 83.95C171.97 84.6 172.27 85.19 172.58 85.79C172.84 86.27 173.09 86.76 173.22 87.29C173.36 87.87 173.4 88.35 173.43 88.84C173.47 89.36 173.51 89.91 173.67 90.6C173.86 91.39 174.57 92.14 175.27 92.87C175.78 93.41 176.27 93.93 176.55 94.45C176.7 94.74 176.76 94.97 176.76 95.17C176.76 95.49 176.61 95.73 176.44 95.99C176.26 96.27 176.06 96.58 175.98 97.04C175.91 97.4 175.89 97.74 175.86 98.08C175.8 98.86 175.74 99.62 175.19 100.52C174.33 101.91 173.32 103.31 172.3 104.73C171.14 106.34 169.97 107.96 168.98 109.63C168.97 109.64 168.97 109.64 168.97 109.64C168.97 109.65 169.01 109.63 169.05 109.6C169.12 109.55 169.2 109.49 169.2 109.53C169.2 109.55 169.18 109.59 169.11 109.68ZM107.44 74.42C107.54 74.26 107.66 74.16 107.8 74.1C107.76 74.26 107.72 74.43 107.67 74.59C107.54 75.08 107.4 75.57 107.39 76.03L107.39 76.08L107.39 76.1C107.28 75.82 107.2 75.54 107.2 75.27C107.2 74.99 107.28 74.71 107.44 74.42ZM237.34 74.78L237.33 74.77L237.32 74.76L237.31 74.74C237.32 74.76 237.33 74.77 237.34 74.78ZM239.41 77.34C239.41 76.86 237.68 75.2 237.5 75.02C237.5 75.02 237.46 76.02 236.98 76.17C236.85 76.21 236.6 76.22 236.31 76.24C235.51 76.3 234.32 76.38 233.92 77.03C234.62 77.07 235.36 77.13 236.11 77.19C237.23 77.28 238.36 77.37 239.4 77.4C239.41 77.38 239.41 77.36 239.41 77.34ZM210.94 76.65C210.95 76.64 210.96 76.64 210.96 76.64L210.96 76.64C210.96 76.64 210.96 76.64 210.94 76.65ZM207.62 82.54C206.57 81.61 205.63 80.82 204.33 81.72C205.43 81.97 206.54 82.22 207.62 82.54ZM221.18 82.25C219.81 82.68 218.43 83.17 217.06 83.66L217.06 83.66L217.05 83.66C216.4 83.89 215.75 84.13 215.1 84.35L215.1 84.37C216.6 85.47 218 87.18 218.54 88.82C218.72 89.37 218.8 89.82 218.8 90.23C218.8 91.05 218.47 91.7 217.95 92.57C217.86 92.74 217.77 92.96 217.77 93.15C217.77 93.21 217.78 93.27 217.8 93.32C218.24 94.1 218.49 94.77 218.49 95.5C218.49 95.87 218.42 96.25 218.29 96.68C219.36 97.07 220.43 97.47 221.48 97.89C220.08 96.26 219.29 94.75 219.29 92.99C219.29 92.19 219.45 91.34 219.79 90.4C220.11 90.88 220.44 91.36 220.76 91.84C221.21 92.52 221.67 93.2 222.12 93.85C222.15 93.88 222.25 93.86 222.25 93.81C221.98 92.81 221.5 91.87 221.03 90.94C220.42 89.75 219.81 88.55 219.61 87.18C219.6 87.12 219.6 87.05 219.6 86.98C219.6 86.3 220.06 85.4 220.51 84.52C220.91 83.76 221.29 83.01 221.38 82.4C221.38 82.35 221.26 82.22 221.18 82.25ZM201.47 86.05C201.76 85.87 202.05 85.7 202.34 85.52L202.35 85.52C203.39 84.9 204.44 84.27 205.5 83.67C203.76 83.17 202.31 84.73 201.47 86.05ZM215.95 85.7C215.03 84.8 214.16 84.07 212.81 83.82L212.81 83.84C207.71 82.94 204.05 85.3 201.96 89.84C201.87 90.03 201.73 90.43 201.73 90.56C201.73 90.6 201.74 90.61 201.77 90.59C201.99 90.43 202.26 89.97 202.54 89.5C202.91 88.89 203.29 88.24 203.63 88.08C203.88 87.95 204.17 88.34 204.46 88.73C204.75 89.11 205.03 89.48 205.27 89.39C205.76 89.2 206.22 88.86 206.68 88.5C207.23 88.09 207.8 87.67 208.46 87.46C209.38 87.16 210.42 87.12 211.42 87.09C211.75 87.08 212.07 87.07 212.39 87.05C212.05 86.77 211.6 86.46 211.16 86.15C210.58 85.74 210 85.33 209.66 85.02C209.65 85 209.64 84.99 209.64 84.98C209.64 84.93 209.92 84.99 210.2 85.05C210.48 85.11 210.77 85.18 210.77 85.12L210.77 85.12C210.75 85.05 210.51 84.9 210.28 84.76C210.06 84.63 209.84 84.51 209.84 84.46C209.84 84.46 209.85 84.45 209.85 84.45C209.86 84.41 210.05 84.44 210.27 84.47C210.5 84.5 210.76 84.53 210.87 84.5C210.97 84.47 211.05 84.42 211.12 84.38C211.21 84.32 211.31 84.26 211.45 84.23C211.74 84.18 212.04 84.15 212.35 84.3C212.51 84.36 212.69 84.58 212.87 84.8C213.07 85.03 213.26 85.26 213.41 85.28C213.54 85.31 213.72 85.19 213.9 85.08C214.11 84.94 214.32 84.8 214.46 84.88C214.57 84.94 214.6 84.95 214.6 84.96C214.6 84.97 214.6 84.97 214.59 84.97C214.59 84.98 214.58 84.98 214.58 85C214.58 85.01 214.59 85.03 214.61 85.07C214.62 85.08 214.63 85.09 214.63 85.1C214.63 85.16 214.52 85.22 214.42 85.28C214.33 85.32 214.25 85.36 214.25 85.4C214.25 85.42 214.26 85.43 214.29 85.45C214.42 85.51 214.83 85.55 215.22 85.6C215.51 85.63 215.79 85.66 215.95 85.7ZM202.07 86.76C203.03 86.1 203.98 85.43 204.93 84.78C203.6 85.03 202.78 85.58 202.07 86.76ZM221.49 87.19C221.47 87.2 221.46 87.21 221.45 87.21L221.43 87.21L221.43 87.21L221.43 87.22L221.43 87.21L221.43 87.23C221.43 87.22 221.43 87.22 221.44 87.21C221.44 87.21 221.45 87.21 221.45 87.21L221.51 87.21C221.92 87.21 224.27 88.21 224.61 88.66C224.81 88.94 225.11 89.13 225.33 89.28C225.46 89.36 225.56 89.43 225.61 89.49C225.74 89.63 225.8 89.67 225.8 89.66C225.8 89.65 225.8 89.65 225.79 89.64C225.6 89.3 225.39 88.95 225.18 88.59L225.18 88.59C224.67 87.7 224.12 86.77 223.59 85.91C223.31 86.06 222.8 86.39 222.35 86.67C222 86.88 221.7 87.07 221.56 87.14C221.54 87.16 221.53 87.17 221.51 87.18L221.49 87.19ZM221.42 87.26L221.41 87.26C221.41 87.26 220.68 87.48 220.63 87.56C220.61 87.6 220.51 87.61 220.42 87.63C220.32 87.65 220.21 87.67 220.21 87.71C220.21 87.72 220.22 87.73 220.23 87.74C220.98 88.68 221.8 89.65 222.62 90.62L222.63 90.62C223.2 91.29 223.77 91.96 224.31 92.62C224.32 92.65 224.39 92.61 224.39 92.58C224.39 92.57 224.39 92.57 224.39 92.57C223.73 91.44 223.05 90.31 222.37 89.18C222.17 88.86 221.98 88.53 221.78 88.21C221.75 88.16 221.72 88.11 221.72 88.09C221.72 88.09 221.72 88.09 221.72 88.09C221.72 88.08 221.72 88.08 221.72 88.07L221.72 88.07C221.72 88.07 221.72 88.06 221.72 88.05C221.72 88.05 221.72 88.04 221.72 88.04C221.56 88 221.43 87.35 221.42 87.26ZM37.59 90.45L37.59 90.49L37.64 90.49L37.64 90.45C37.64 90.44 37.6 90.45 37.6 90.45L37.59 90.45ZM37.65 90.7C37.57 90.55 37.55 90.56 37.55 90.6C37.55 90.61 37.55 90.62 37.55 90.64C37.56 90.65 37.56 90.67 37.56 90.68C37.56 90.69 37.56 90.7 37.55 90.7C37.53 90.89 37.52 91.12 37.52 91.38C37.52 92.08 37.6 92.96 37.63 93.39L37.64 93.43C37.67 94 37.75 94.46 37.82 94.66C37.87 94.88 37.9 94.95 37.97 94.71C37.99 94.66 37.99 94.56 37.99 94.43C37.99 94.22 37.98 93.95 37.96 93.67C37.95 93.4 37.94 93.12 37.94 92.92C37.94 92.89 37.94 92.85 37.94 92.82C37.94 92.79 37.94 92.76 37.94 92.73C37.94 92.18 37.81 90.94 37.67 90.7L37.65 90.7ZM152.84 93.87C152.84 93.94 152.68 94.01 152.48 94.03L152.48 94.01C152.09 94.06 151.84 94.06 151.29 94.01C150.75 93.96 149.28 93.03 149 92.67C148.83 92.44 148.69 92.03 148.69 91.81C148.69 91.66 148.75 91.6 148.88 91.72C149.05 91.86 149.12 92 149.19 92.16C149.28 92.34 149.37 92.54 149.62 92.77C150.09 93.22 151.74 93.8 152.41 93.78C152.72 93.77 152.84 93.82 152.84 93.87ZM3.47 96.33C3.47 96.44 3.71 97.21 3.93 97.88C4.03 98.21 4.13 98.52 4.19 98.7C4.31 99.11 4.34 100.13 4.36 100.8C4.37 101.06 4.38 101.26 4.39 101.35C4.42 101.64 4.46 101.46 4.5 101.28C4.51 101.25 4.52 101.23 4.52 101.2C4.56 101.04 4.62 100.52 4.62 100.07C4.62 99.96 4.61 99.86 4.61 99.77C4.57 99.27 4.12 97.67 3.92 97.31C3.82 97.13 3.71 96.86 3.62 96.65C3.53 96.43 3.47 96.27 3.47 96.33C3.47 96.33 3.47 96.34 3.47 96.34L3.47 96.33ZM257.44 98.66C257.41 99.23 257.38 99.79 257.34 100.35L257.32 100.37C257.11 100.29 256.9 100.21 256.69 100.14C256.47 100.06 256.26 99.98 256.05 99.9C256.7 100.38 256.91 100.9 256.91 101.46C256.91 101.99 256.73 102.54 256.54 103.11L256.54 103.11C256.48 103.28 256.42 103.45 256.37 103.63C256.37 103.63 256.37 103.63 256.37 103.64C256.37 103.71 256.59 103.71 256.62 103.63L256.66 103.55C257.26 102.24 257.9 100.87 258.44 99.45C258.45 99.43 258.46 99.41 258.47 99.4C258.5 99.32 258.53 99.27 258.53 99.18C258.53 99.11 258.51 99 258.44 98.84C258.27 98.47 257.79 97.42 257.55 96.94C257.51 97.51 257.48 98.08 257.44 98.66ZM169.23 98.59C169.48 98.16 170.61 97.21 170.65 97.36L170.66 97.36C170.66 97.36 170.67 97.36 170.67 97.37C170.67 97.46 170.47 97.72 170.23 98.03C169.96 98.38 169.64 98.81 169.48 99.15C169.08 100.03 168.68 101.02 168.27 102.03C167.77 103.26 167.26 104.51 166.74 105.61C166.67 105.72 166.38 105.97 166.38 105.88C166.38 105.88 166.38 105.87 166.39 105.86C166.44 105.69 166.49 105.53 166.54 105.36C166.57 105.27 166.6 105.18 166.63 105.09C167.34 102.88 168.09 100.54 169.23 98.59ZM214.42 100.47C214.05 100.78 213.68 101.07 213.34 101.33L213.37 101.32C213.35 101.33 213.3 101.4 213.3 101.45C213.3 101.49 213.33 101.52 213.46 101.5C213.53 101.49 213.66 101.45 213.83 101.41C214.27 101.29 214.94 101.12 215.33 101.12C215.86 101.13 216.77 101.33 217.24 101.47C217.5 101.54 217.68 101.61 217.86 101.67C218 101.72 218.14 101.76 218.31 101.82C218.34 101.83 218.37 101.83 218.37 101.82C218.37 101.81 218.36 101.81 218.36 101.8C218.12 101.57 217.66 101.41 217.21 101.25C216.67 101.07 216.12 100.88 215.95 100.57C215.9 100.49 215.88 100.41 215.88 100.34C215.88 99.94 216.54 99.75 217.02 99.99C217.36 100.16 217.86 100.29 218.34 100.42C218.64 100.5 218.94 100.58 219.17 100.67C218.95 100.55 218.58 100.37 218.21 100.18L218.2 100.17L218.2 100.17L218.19 100.17L218.19 100.17C217.62 99.88 217.02 99.58 216.8 99.45C216.72 99.41 216.69 99.34 216.69 99.26C216.69 99.08 216.84 98.86 216.93 98.72C216.97 98.67 216.99 98.63 216.99 98.62C216.99 98.61 216.99 98.61 216.97 98.62C216.15 99.07 215.26 99.79 214.42 100.47ZM116.58 112.17C122.66 111.1 128.92 110.39 135.34 110.05C134.26 109.28 133.25 108.58 132.78 108.58C130.56 108.57 128.99 108.5 126.7 107.75C126.25 107.6 125.78 107.35 125.28 107.08C124.63 106.72 123.93 106.34 123.16 106.14C122.79 106.04 122.37 105.97 121.94 105.88C120.77 105.66 119.47 105.41 118.54 104.76C118.14 105.23 118.02 105.84 118.02 106.47C118.02 106.97 118.09 107.48 118.16 107.94C118.2 108.23 118.24 108.49 118.26 108.72C118.27 108.82 118.27 108.92 118.27 109.01C118.27 109.65 118.09 109.9 117.82 110.27C117.79 110.31 117.76 110.35 117.73 110.39L117.69 110.45L117.66 110.5C117.48 110.76 117.42 110.7 117.37 110.63C117.31 110.55 117.25 110.47 116.96 110.96C116.77 111.27 116.67 111.7 116.58 112.17ZM252.77 113.38C253.1 111.44 254.21 110.04 255.39 108.55L255.39 108.54C255.52 108.37 255.66 108.2 255.8 108.02C254.18 109.6 252.82 111.01 252.77 113.38ZM261.68 110.45C261.68 110.35 261.66 110.27 261.6 110.2C261.34 109.88 261.04 110.96 261.04 111.68C261.04 111.94 261.07 112.15 261.17 112.24C261.15 112.21 261.15 112.16 261.15 112.12C261.15 111.89 261.28 111.59 261.41 111.29C261.55 110.99 261.68 110.69 261.68 110.45ZM200.3 114.35C200.34 114.33 200.44 114.26 200.47 114.24C200.48 114.25 200.69 114.24 201 114.22L201 114.22C202.01 114.17 204.11 114.07 204.7 114.24C205.33 114.43 206.95 114.43 208.08 114.43L208.09 114.43C208.23 114.44 208.36 114.44 208.48 114.44C208.59 114.44 208.7 114.44 208.79 114.44C206.84 114.04 204.77 113.57 202.78 113.11C204.82 112.51 206.8 111.81 208.73 110.98C206.99 109.82 204.95 110.02 203.65 111.31C203.26 111.69 202.94 112.04 202.65 112.37L202.64 112.37C201.94 113.14 201.38 113.75 200.47 114.24C200.43 114.27 200.32 114.27 200.3 114.27L200.29 114.27L200.3 114.27C200.32 114.27 200.33 114.28 200.33 114.29C200.33 114.3 200.32 114.31 200.31 114.32C200.31 114.33 200.31 114.33 200.3 114.34C200.3 114.33 200.3 114.32 200.3 114.32L200.29 114.32L200.29 114.33C200.29 114.33 200.29 114.33 200.29 114.34C200.28 114.34 200.28 114.34 200.28 114.34C200.28 114.35 200.29 114.35 200.3 114.35C199.59 115.87 197.89 116.87 196.34 117.79L196.34 117.79C195.89 118.06 195.46 118.31 195.07 118.57C195.26 118.64 195.45 118.71 195.64 118.78C196.09 118.57 196.57 118.4 196.71 118.38L196.77 118.38C197.48 117.9 198.43 117.96 199.29 118.01C199.67 118.03 200.02 118.06 200.34 118.03C200.36 118.03 200.37 118.03 200.37 118.02C200.37 117.98 200.22 117.91 200.07 117.83C199.89 117.73 199.7 117.63 199.7 117.59C199.7 117.58 199.71 117.57 199.72 117.57C199.94 117.45 200.5 117.28 200.99 117.13C201.37 117.01 201.72 116.91 201.84 116.85C201.95 116.8 201.98 116.76 201.98 116.74C201.98 116.72 201.95 116.71 201.91 116.7C201.88 116.69 201.86 116.68 201.84 116.67C201.8 116.64 201.5 116.65 201.22 116.66C200.98 116.67 200.75 116.68 200.7 116.67C200.63 116.64 200.56 116.54 200.56 116.48C200.56 116.46 200.56 116.44 200.59 116.44C201.15 116.28 201.74 116.13 202.34 115.98C203.33 115.72 204.34 115.46 205.3 115.17C203.68 115.02 201.99 114.87 200.39 114.74C200.31 114.73 200.3 114.56 200.3 114.44L200.3 114.41L200.3 114.38C200.3 114.37 200.3 114.35 200.3 114.35ZM200.3 114.34L200.3 114.35L200.3 114.35L200.3 114.34ZM11.36 116.19C11.28 116.13 11.21 116.42 11.15 116.65C11.12 116.77 11.1 116.87 11.08 116.92C11.05 116.98 10.97 117.09 10.87 117.2C10.77 117.33 10.65 117.46 10.65 117.53C10.65 117.54 10.65 117.54 10.66 117.55C10.72 117.65 10.98 117.47 11.09 117.3C11.19 117.16 11.37 116.55 11.37 116.29C11.37 116.24 11.36 116.2 11.34 116.19L11.36 116.19ZM217.69 126.56C216.94 127.04 216.22 127.53 215.51 128.04C216.51 128.61 217.48 129.2 218.45 129.79C218.4 129.51 218.34 129.24 218.27 128.98C218.21 128.74 218.16 128.48 218.1 128.23C217.98 127.67 217.85 127.09 217.69 126.56ZM160.97 164.3C160.97 167.71 160.25 170.67 158.81 173.19C157.38 175.7 155.34 177.64 152.69 179.02C150.05 180.4 146.74 181.09 143.17 181.09C139.59 181.09 136.46 180.4 133.81 179.02C131.15 177.64 129.11 175.7 127.69 173.19C126.27 170.67 125.56 167.71 125.56 164.3C125.56 160.89 126.27 157.93 127.69 155.42C129.11 152.91 131.15 150.96 133.81 149.58C136.46 148.2 139.46 147.52 143.17 147.52C146.88 147.52 150.05 148.2 152.69 149.58C155.34 150.96 157.38 152.91 158.81 155.42C160.25 157.93 160.97 160.89 160.97 164.3ZM58.26 169.38L65.57 169.38L65.57 170.26C65.57 171.26 65.79 172.07 66.22 172.69C66.67 173.3 67.48 173.75 68.65 174.05C69.82 174.33 71.5 174.48 73.73 174.48C75.68 174.48 77.19 174.38 78.22 174.17C79.28 173.95 80 173.62 80.38 173.17C80.76 172.72 80.97 172.14 80.97 171.42C80.97 170.41 80.63 169.68 79.96 169.23C79.29 168.78 78.12 168.41 76.47 168.11L67.27 166.8C65.32 166.47 63.65 165.93 62.26 165.19C60.87 164.44 59.8 163.44 59.05 162.19C58.3 160.93 57.93 159.41 57.93 157.63C57.93 156.4 58.2 155.19 58.73 153.99C59.28 152.78 60.14 151.71 61.31 150.75C62.48 149.78 64.01 149.02 65.92 148.44C67.83 147.85 70.17 147.56 72.94 147.56C76.3 147.56 79.06 148.04 81.23 148.99C83.41 149.95 85.03 151.3 86.1 153.03C87.18 154.76 87.72 156.77 87.72 159.03L87.72 159.33L80.33 159.33L80.33 158.65C80.33 157.62 80.13 156.77 79.68 156.12C79.23 155.47 78.42 155.01 77.25 154.69C76.08 154.37 74.41 154.22 72.22 154.22C70.47 154.22 69.08 154.32 68.09 154.56C67.11 154.77 66.39 155.12 65.97 155.57C65.55 156.02 65.34 156.6 65.34 157.32C65.34 157.93 65.45 158.45 65.72 158.85C65.97 159.25 66.39 159.56 66.94 159.8C67.51 160.03 68.23 160.21 69.15 160.38L78.34 161.84C80.8 162.23 82.74 162.86 84.19 163.74C85.65 164.62 86.7 165.68 87.35 166.93C88 168.18 88.34 169.54 88.34 171.04C88.34 172.79 87.85 174.43 86.87 175.98C85.88 177.53 84.33 178.76 82.17 179.71C80.01 180.65 77.22 181.12 73.76 181.12C70.47 181.12 67.66 180.69 65.35 179.82C63.03 178.96 61.27 177.68 60.07 175.98C58.87 174.27 58.26 172.15 58.26 169.63L58.26 169.38ZM197.83 154.57L197.83 148L229.52 148L229.52 154.57L217.34 154.57L217.34 180.6L210 180.6L210 154.57L197.83 154.57ZM109.73 171.61L99.95 171.61L99.95 180.62L92.62 180.62L92.62 148.02L109.73 148.02C112.28 148.02 114.48 148.47 116.34 149.4C118.19 150.32 119.65 151.66 120.67 153.41C121.69 155.16 122.2 157.27 122.2 159.78C122.2 162.29 121.69 164.42 120.67 166.18C119.63 167.96 118.19 169.29 116.34 170.23C114.48 171.14 112.28 171.61 109.73 171.61ZM189.55 168.98C190.27 169.76 190.94 170.72 191.56 171.86L191.58 171.86L196.32 180.62L187.82 180.62L183.32 172.15C182.87 171.31 182.38 170.64 181.9 170.16C181.4 169.68 180.78 169.33 180.01 169.11C179.24 168.89 178.22 168.8 176.95 168.8L172.1 168.8L172.1 180.62L164.76 180.62L164.76 148.02L182.85 148.02C185.54 148.02 187.85 148.4 189.74 149.17C191.63 149.92 193.05 151.03 194.03 152.5C195.02 153.96 195.5 155.72 195.5 157.8C195.5 159.58 195.17 161.11 194.48 162.37C193.8 163.64 192.78 164.65 191.41 165.42C190.04 166.18 188.33 166.65 186.28 166.85L186.28 167.23C187.75 167.61 188.83 168.2 189.55 168.98ZM148.95 173.14C150.4 172.5 151.46 171.47 152.13 170.04C152.79 168.61 153.13 166.75 153.13 164.3C153.13 161.86 152.79 159.95 152.13 158.53C151.46 157.12 150.4 156.1 148.95 155.47C147.5 154.84 145.52 154.52 143.15 154.52C140.78 154.52 138.87 154.84 137.43 155.47C136 156.1 134.96 157.12 134.31 158.53C133.64 159.95 133.32 161.91 133.32 164.3C133.32 166.7 133.65 168.61 134.31 170.04C134.96 171.47 136 172.5 137.43 173.14C138.87 173.77 140.73 174.08 143.15 174.08C145.57 174.08 147.5 173.77 148.95 173.14ZM113.48 155.69C112.51 154.94 111 154.57 108.95 154.57L99.95 154.57L99.95 165.04L108.95 165.04C111 165.04 112.51 164.67 113.48 163.94C114.43 163.21 114.92 161.76 114.92 159.78C114.92 157.8 114.43 156.44 113.48 155.69ZM172.09 163.29L182.8 163.29L182.8 163.27C184.52 163.27 185.79 162.97 186.61 162.37C187.43 161.78 187.83 160.61 187.83 158.9C187.83 157.28 187.43 156.15 186.61 155.52C185.79 154.89 184.52 154.57 182.8 154.57L172.09 154.57L172.09 163.29ZM58.26 169.33L58.26 169.38L58.23 169.38L58.26 169.33ZM82.77 211.36C83.29 210.23 83.56 208.75 83.56 206.9L83.52 206.9L83.52 188.45L90.86 188.45L90.86 207.43C90.86 210.34 90.26 212.86 89.06 214.97C87.85 217.08 86.06 218.71 83.71 219.84C81.33 220.97 78.32 221.54 74.78 221.54C71.24 221.54 68.26 220.97 65.89 219.84C63.5 218.69 61.71 217.08 60.5 214.97C59.3 212.87 58.7 210.36 58.7 207.43L58.7 188.45L66.04 188.45L66.04 206.9C66.04 208.76 66.31 210.24 66.84 211.36C67.38 212.47 68.29 213.27 69.58 213.74C70.87 214.2 72.54 214.44 74.8 214.44C77.05 214.44 78.81 214.2 80.08 213.74C81.35 213.27 82.25 212.47 82.77 211.36ZM124.09 210.74L123.76 204.17L123.76 188.45L131.1 188.45L131.1 221.05L123.27 221.05L111.19 205.49L107.04 199.35L106.54 199.35L106.84 205.34L106.84 221.05L99.5 221.05L99.5 188.45L107.33 188.45L119.06 203.87L123.56 210.74L124.09 210.74ZM139.89 188.45L147.23 188.45L147.23 221.05L139.89 221.05L139.89 188.45ZM154.72 195.02L154.72 188.45L186.39 188.45L186.39 195.02L174.22 195.02L174.22 221.05L166.89 221.05L166.89 195.02L154.72 195.02ZM212.76 197.99L219.01 188.45L228.12 188.45L213.34 210.28L213.34 221.05L205.95 221.05L205.95 210.28L191.44 188.45L200.49 188.45L206.74 197.99L209.48 202.36L210.01 202.36L212.76 197.99ZM85.33 239.3C85.45 239.05 85.51 238.7 85.51 238.27L85.51 232.71L87.57 232.71L87.57 238.29C87.57 239.05 87.42 239.72 87.12 240.27C86.82 240.81 86.36 241.25 85.76 241.55C85.16 241.85 84.44 242 83.54 242C82.64 242 81.9 241.85 81.3 241.55C80.71 241.25 80.26 240.81 79.96 240.27C79.66 239.7 79.51 239.05 79.51 238.29L79.51 232.71L81.55 232.71L81.55 238.27C81.55 238.7 81.6 239.03 81.73 239.3C81.87 239.57 82.07 239.73 82.35 239.85C82.64 239.97 83.04 240.02 83.54 240.02C84.04 240.02 84.44 239.97 84.73 239.85C85.01 239.73 85.21 239.55 85.33 239.3ZM124.81 238.15C125.21 238.27 125.51 238.45 125.75 238.69L125.75 238.67C125.98 238.9 126.18 239.2 126.35 239.55L127.52 241.85L125.11 241.85L124.03 239.73C123.89 239.47 123.76 239.25 123.63 239.08C123.49 238.92 123.32 238.8 123.14 238.72C122.96 238.64 122.71 238.6 122.37 238.6L121.55 238.6L121.55 241.85L119.5 241.85L119.5 232.71L123.73 232.71C124.46 232.71 125.08 232.83 125.58 233.05C126.08 233.26 126.47 233.58 126.73 234C127 234.41 127.14 234.91 127.14 235.51C127.14 236.01 127.05 236.42 126.88 236.79C126.72 237.16 126.45 237.44 126.12 237.64C125.78 237.84 125.35 237.97 124.81 238.02L124.81 238.15ZM103.6 236.37L105.76 232.73L108.08 232.73L105.32 237.26L108.05 241.86L105.69 241.86L103.63 238.35L101.86 238.35L101.86 241.86L99.8 241.86L99.8 232.73L101.86 232.73L101.86 236.37L103.6 236.37ZM138.5 241.86L141.89 232.73L144.89 232.73L148.28 241.86L146.04 241.86L145.29 239.83L141.39 239.83L140.64 241.86L138.5 241.86ZM161.72 232.73L161.72 241.86L159.67 241.86L159.67 232.73L161.72 232.73ZM180.09 238.54L180.06 237.31L180.06 232.73L182.11 232.73L182.11 241.86L179.93 241.86L177.07 237.54L176.18 236.14L176.05 236.14L176.06 237.54L176.06 241.86L174.01 241.86L174.01 232.73L176.2 232.73L179.17 237.31L179.94 238.54L180.09 238.54ZM194.42 241.86L194.42 232.73L201.42 232.73L201.42 234.56L196.47 234.56L196.47 236.36L201.2 236.36L201.2 238.19L196.47 238.19L196.47 240.02L201.42 240.02L201.42 241.86L194.42 241.86ZM142.58 236.59L142.06 238L144.6 238L144.09 236.59L143.42 234.53L143.28 234.53L142.58 236.59ZM121.55 236.92L123.81 236.92L123.81 236.94C124.29 236.94 124.63 236.84 124.81 236.67C125 236.49 125.08 236.17 125.08 235.74C125.08 235.31 125 234.99 124.81 234.83C124.63 234.64 124.29 234.56 123.81 234.56L121.55 234.56L121.55 236.92Z" fill="#FFD200" fill-opacity="1.000000" fill-rule="evenodd"/>
	</g>
</svg>
