<svg width="32.000000" height="32.000000" viewBox="0 0 32 32" fill="none" xmlns="http://www.w3.org/2000/svg" xmlns:xlink="http://www.w3.org/1999/xlink">
	<desc>
			Created with Pixso.
	</desc>
	<defs>
		<clipPath id="clip19_1007">
			<rect id="Telegram - Negative" rx="0.000000" width="31.333334" height="31.333334" transform="translate(0.333333 0.333333)" fill="white" fill-opacity="0"/>
		</clipPath>
	</defs>
	<rect id="Telegram - Negative" rx="0.000000" width="31.333334" height="31.333334" transform="translate(0.333333 0.333333)" fill="#FFFFFF" fill-opacity="0"/>
	<g clip-path="url(#clip19_1007)">
		<path id="Subtract" d="M16 32C24.8365 32 32 24.8369 32 16C32 7.16309 24.8365 0 16 0C7.16345 0 0 7.16309 0 16C0 24.8369 7.16345 32 16 32ZM16.5734 11.8125C15.0172 12.459 11.9069 13.7988 7.24255 15.8311C6.48511 16.1328 6.08832 16.4268 6.05225 16.7148C5.99121 17.2021 6.60095 17.3936 7.43127 17.6553C7.54425 17.6904 7.66125 17.7275 7.78125 17.7666C8.59821 18.0322 9.69708 18.3428 10.2684 18.3545C10.7866 18.3662 11.365 18.1523 12.0035 17.7139Q18.5405 13.3008 18.7524 13.2529C18.8521 13.2305 18.9901 13.2021 19.0837 13.2852C19.1772 13.3682 19.168 13.5264 19.1581 13.5684C19.0789 13.9062 14.985 17.6299 14.7495 17.874C14.624 18.0049 14.4962 18.1279 14.3733 18.2461C13.6144 18.9775 13.0452 19.5264 14.4048 20.4229C15.7717 21.3232 16.5673 21.8984 17.9755 22.8213C18.1628 22.9434 18.3416 23.0713 18.5159 23.1953C19.1788 23.668 19.7744 24.0928 20.5101 24.0254C20.9377 23.9854 21.3793 23.584 21.6036 22.3848C22.1336 19.5508 23.1755 13.4111 23.4163 10.8818C23.4374 10.6602 23.4108 10.376 23.3895 10.252C23.3682 10.127 23.3237 9.94922 23.1618 9.81836C22.9701 9.66309 22.6742 9.62988 22.5418 9.63184C21.94 9.64258 21.0167 9.96387 16.5734 11.8125Z" clip-rule="evenodd" fill="#063477" fill-opacity="1.000000" fill-rule="evenodd"/>
	</g>
</svg>
