<svg width="32.000000" height="32.000000" viewBox="0 0 32 32" fill="none" xmlns="http://www.w3.org/2000/svg" xmlns:xlink="http://www.w3.org/1999/xlink">
	<desc>
			Created with Pixso.
	</desc>
	<defs>
		<clipPath id="clip19_1006">
			<rect id="TikTok - Negative" rx="0.000000" width="31.333334" height="31.333334" transform="translate(0.333333 0.333333)" fill="white" fill-opacity="0"/>
		</clipPath>
	</defs>
	<rect id="TikTok - Negative" rx="0.000000" width="31.333334" height="31.333334" transform="translate(0.333333 0.333333)" fill="#FFFFFF" fill-opacity="0"/>
	<g clip-path="url(#clip19_1006)">
		<path id="Vector" d="M22.76 0L17.37 0L17.37 21.79C17.37 24.39 15.29 26.52 12.71 26.52C10.13 26.52 8.05 24.39 8.05 21.79C8.05 19.24 10.08 17.15 12.57 17.06L12.57 11.59C7.09 11.68 2.66 16.18 2.66 21.79C2.66 27.45 7.18 32 12.76 32C18.33 32 22.85 27.4 22.85 21.79L22.85 10.62C24.88 12.1 27.37 12.98 30 13.03L30 7.55C25.94 7.41 22.76 4.08 22.76 0Z" fill="#063477" fill-opacity="1.000000" fill-rule="nonzero"/>
	</g>
</svg>
