<svg width="40" height="40" viewBox="0 0 40 40" fill="none" xmlns="http://www.w3.org/2000/svg">
<path fill-rule="evenodd" clip-rule="evenodd" d="M19.9999 36.6668C29.2047 36.6668 36.6666 29.2049 36.6666 20.0002C36.6666 10.7954 29.2047 3.3335 19.9999 3.3335C10.7952 3.3335 3.33325 10.7954 3.33325 20.0002C3.33325 29.2049 10.7952 36.6668 19.9999 36.6668ZM19.9999 12.0835C20.6903 12.0835 21.2499 12.6431 21.2499 13.3335V19.4824L25.0505 23.2829C25.5386 23.7711 25.5386 24.5626 25.0505 25.0507C24.5623 25.5389 23.7709 25.5389 23.2827 25.0507L19.116 20.884C18.8816 20.6496 18.7499 20.3317 18.7499 20.0002V13.3335C18.7499 12.6431 19.3096 12.0835 19.9999 12.0835Z" fill="#FFD200"/>
</svg>
