<svg width="40.000000" height="40.000000" viewBox="0 0 40 40" fill="none" xmlns="http://www.w3.org/2000/svg" xmlns:xlink="http://www.w3.org/1999/xlink">
	<desc>
			Created with Pixso.
	</desc>
	<defs>
		<clipPath id="clip19_998">
			<rect id="Bold" rx="0.000000" width="38.333332" height="38.333332" transform="translate(0.833333 0.833333)" fill="white" fill-opacity="0"/>
		</clipPath>
	</defs>
	<g clip-path="url(#clip19_998)">
		<path id="Vector" d="M5.28 8.61C3.33 10.57 3.33 13.71 3.33 19.99C3.33 26.28 3.33 29.42 5.28 31.37C7.23 33.33 10.38 33.33 16.66 33.33L23.33 33.33C29.61 33.33 32.76 33.33 34.71 31.37C36.66 29.42 36.66 26.28 36.66 19.99C36.66 13.71 36.66 10.57 34.71 8.61C32.76 6.66 29.61 6.66 23.33 6.66L16.66 6.66C10.38 6.66 7.23 6.66 5.28 8.61ZM30.96 12.53C31.4 13.06 31.33 13.85 30.8 14.29L27.13 17.34C25.66 18.57 24.46 19.57 23.4 20.25C22.3 20.96 21.23 21.4 20 21.4C18.76 21.4 17.69 20.96 16.59 20.25C15.53 19.57 14.33 18.57 12.86 17.34L9.19 14.29C8.66 13.85 8.59 13.06 9.03 12.53C9.48 12 10.27 11.93 10.8 12.37L14.39 15.37C15.95 16.66 17.03 17.56 17.94 18.14C18.82 18.71 19.42 18.9 20 18.9C20.57 18.9 21.17 18.71 22.05 18.14C22.96 17.56 24.04 16.66 25.6 15.37L29.2 12.37C29.73 11.93 30.51 12 30.96 12.53Z" fill="#FFD200" fill-opacity="1.000000" fill-rule="evenodd"/>
	</g>
</svg>
