<svg width="172" height="172" xmlns="http://www.w3.org/2000/svg"><defs><linearGradient x1="50%" y1="104.307%" x2="50%" y2="0%" id="a"><stop stop-color="#D9AC4C" offset="0%"/><stop stop-color="#BA843A" offset="30.858%"/><stop stop-color="#F0D46D" offset="50.954%"/><stop stop-color="#CAA64B" offset="80.269%"/><stop stop-color="#D9AC4C" offset="100%"/></linearGradient></defs><g fill="none" fill-rule="evenodd"><path d="M86 148c-34.242 0-62-27.758-62-62 0-34.242 27.758-62 62-62 34.242 0 62 27.758 62 62 0 34.242-27.758 62-62 62M86 0C38.503 0 0 38.503 0 86s38.503 86 86 86 86-38.503 86-86S133.497 0 86 0" fill="url(#a)" transform="rotate(180 86 86)"/><circle fill="#080D16" cx="85.5" cy="86.5" r="63.5"/><g fill="#FFF"><path d="M121.045 117.925h-3.714v-4.062h-.002a7.561 7.561 0 0 0 1.345-4.309c0-4.194-3.41-7.605-7.601-7.605-4.192 0-7.602 3.411-7.602 7.605 0 1.6.5 3.083 1.345 4.31v4.06H83.85V68.273h37.194v49.653Zm-8.964 3.052a1.477 1.477 0 0 0-2.017 0l-2.293 2.142v-6.725a7.54 7.54 0 0 0 3.302.766c1.184 0 2.302-.28 3.302-.767v6.726l-2.294-2.142Zm-1.008-6.774a4.652 4.652 0 0 1-4.646-4.649 4.652 4.652 0 0 1 4.646-4.648 4.652 4.652 0 0 1 4.645 4.648 4.652 4.652 0 0 1-4.645 4.649Zm-8.207-48.888a60.341 60.341 0 0 0-2.247-9.6 60.304 60.304 0 0 0 6.414-2.439 32.349 32.349 0 0 1 6.462 12.039h-10.63ZM83.85 58.488a60.388 60.388 0 0 0 13.926-1.954 57.27 57.27 0 0 1 2.102 8.78H83.85v-6.826ZM68.924 95.134a57.498 57.498 0 0 1 11.972-1.556v13.216a32.486 32.486 0 0 1-6.492-.946 57.537 57.537 0 0 1-5.48-10.714Zm-2.869.767a60.333 60.333 0 0 0 4.017 8.52 32.305 32.305 0 0 1-9.919-6.42 57.349 57.349 0 0 1 5.902-2.1Zm-3.9-20.028a60.63 60.63 0 0 0 2.925 17.232 60.41 60.41 0 0 0-7.12 2.62 32.172 32.172 0 0 1-7.97-19.854l12.166.002Zm2.831-19.896a60.592 60.592 0 0 0-2.83 16.938H49.99A32.304 32.304 0 0 1 57.767 53.3a60.322 60.322 0 0 0 7.22 2.677Zm.964-2.799a57.314 57.314 0 0 1-6.024-2.164A32.513 32.513 0 0 1 70.06 44.39a60.359 60.359 0 0 0-4.11 8.788Zm14.946 2.353a57.557 57.557 0 0 1-12.081-1.582 57.501 57.501 0 0 1 5.587-10.998 32.247 32.247 0 0 1 6.494-.958V55.53Zm0 11.262v6.124l-15.785-.001a57.655 57.655 0 0 1 2.728-16.159 60.476 60.476 0 0 0 13.057 1.731v8.305Zm0 23.827a60.46 60.46 0 0 0-12.961 1.708 57.693 57.693 0 0 1-2.824-16.455h15.785V90.62ZM95.89 44.871a32.142 32.142 0 0 1 8.993 6.117 57.312 57.312 0 0 1-5.24 1.935 59.984 59.984 0 0 0-3.753-8.052Zm.899 8.866A57.51 57.51 0 0 1 83.85 55.53V41.99c2.628.116 5.178.547 7.617 1.25a57.503 57.503 0 0 1 5.32 10.496Zm25.733 11.578h-5.961C112.466 49.762 98.576 39 82.374 39 62.868 39 47 54.877 47 74.393c0 9.455 3.68 18.343 10.36 25.028 6.333 6.336 14.642 9.972 23.536 10.334v9.649c0 .816.662 1.478 1.478 1.478h22.441v5.64a1.479 1.479 0 0 0 2.486 1.08l3.772-3.522 3.771 3.523a1.479 1.479 0 0 0 2.487-1.082v-5.639h5.191c.816 0 1.478-.662 1.478-1.478v-52.61a1.48 1.48 0 0 0-1.478-1.48Z"/><path d="M91 76h22v-3H91zm-2 12h27v-3H89zm0-5h27v-3H89zm0 10h27v-3H89zm0 5h27v-3H89zm0 10h9v-3h-9z"/></g></g></svg>