<svg width="172" height="172" xmlns="http://www.w3.org/2000/svg"><defs><linearGradient x1="50%" y1="104.307%" x2="50%" y2="0%" id="a"><stop stop-color="#D9AC4C" offset="0%"/><stop stop-color="#BA843A" offset="30.858%"/><stop stop-color="#F0D46D" offset="50.954%"/><stop stop-color="#CAA64B" offset="80.269%"/><stop stop-color="#D9AC4C" offset="100%"/></linearGradient></defs><g fill="none" fill-rule="evenodd"><path d="M86 148c-34.242 0-62-27.758-62-62 0-34.242 27.758-62 62-62 34.242 0 62 27.758 62 62 0 34.242-27.758 62-62 62M86 0C38.503 0 0 38.503 0 86s38.503 86 86 86 86-38.503 86-86S133.497 0 86 0" fill="url(#a)" transform="rotate(180 86 86)"/><circle fill="#080D16" cx="86.5" cy="86.5" r="63.5"/><g fill="#FFF"><path d="m119.584 118.674-43.926 1.03V50.952l43.926 3.402v64.32Zm-9.696 6.321-23.29.56v-3.691l23.29-.546v3.677Zm-45.053-12.313v-6.341h8.407v7.536l-8.407-1.195Zm19.873-71.468 23.29 1.804v8.016l-23.29-1.804v-8.016Zm36.177 10.818-10.471-.81v-8.017l7.344.568-4.883 4.114 1.558 1.849 7.138-6.015a1.21 1.21 0 0 0-.686-2.129l-46.342-3.588a1.21 1.21 0 0 0-.896.3L45.405 63.409a1.209 1.209 0 0 0 .803 2.11h2.865v52.557h2.416V65.519h18.343v-2.416H49.385l25.483-22.65 7.424.574v8.016l-7.749-.6a1.21 1.21 0 0 0-1.301 1.204v54.278H56.568v2.416h5.851v7.39c0 .601.443 1.11 1.038 1.196l9.785 1.391v4.622a1.208 1.208 0 0 0 1.208 1.208h.028l9.704-.227v4.871A1.207 1.207 0 0 0 85.39 128h.029l25.705-.617a1.209 1.209 0 0 0 1.18-1.208v-4.913l8.517-.2a1.209 1.209 0 0 0 1.18-1.208V53.236a1.21 1.21 0 0 0-1.116-1.204Z"/><path d="M91.43 78.396h.112c.226 1.41.48 2.988.764 4.342l.99 4.82h-3.62l.99-4.82c.253-1.27.536-2.904.763-4.342ZM86 95h2.092l1.273-5.693h4.213L94.852 95H97l-4.242-19h-2.403L86 95Zm15.182-17.13c.283-.085.68-.113 1.02-.113 3.059 0 4.532 2.595 4.532 7.338 0 6.39-2.322 8.091-4.73 8.091-.2 0-.51 0-.822-.055V77.87Zm5.523 15.094C107.923 91.68 109 89.337 109 85.04c0-3.934-1.105-6.36-2.579-7.617-1.048-.92-2.463-1.423-4.474-1.423-1.105 0-2.097.112-2.947.363v18.441c.652.14 1.558.196 2.438.196 2.208 0 4.021-.641 5.267-2.036ZM105 57.178 103.154 57 103 59.822l1.846.178zm-6 .001L97.156 57 97 59.821l1.844.179zm-7-1L90.156 56 90 58.821l1.844.179zm11 57.854.044 1.967 1.956-.033-.044-1.967zm-6-.001.043 1.968 1.957-.032-.043-1.968zm-7 .001.044 1.967 1.956-.033-.044-1.967z"/><path d="M84.565 116h.11l3.14-.071-.06-2.408-3.139.07a1.997 1.997 0 0 1-1.486-.558 1.91 1.91 0 0 1-.616-1.408V60.209c0-.524.21-.998.59-1.335.38-.337.888-.5 1.435-.46l3.267.242.194-2.4-3.266-.242c-1.249-.095-2.437.294-3.337 1.092A4.093 4.093 0 0 0 80 60.209v51.416a4.25 4.25 0 0 0 1.374 3.131 4.634 4.634 0 0 0 3.19 1.244m28.897-53.03v48.415c0 1.131-.999 2.108-2.183 2.134l-2.474.056.06 2.425 2.474-.056c2.57-.058 4.662-2.103 4.662-4.56V62.97c0-2.424-2.057-4.546-4.585-4.732l-3.22-.238-.195 2.417 3.22.239c1.215.09 2.241 1.149 2.241 2.314"/></g></g></svg>