<svg width="201" height="95" xmlns="http://www.w3.org/2000/svg"><defs><linearGradient x1="50%" y1="104.307%" x2="50%" y2="0%" id="a"><stop stop-color="#D9AC4C" offset="0%"/><stop stop-color="#BA843A" offset="30.858%"/><stop stop-color="#F0D46D" offset="50.954%"/><stop stop-color="#CAA64B" offset="80.269%"/><stop stop-color="#D9AC4C" offset="100%"/></linearGradient></defs><path d="M0 32.717C0 14.647 14.647 0 32.717 0s32.717 14.647 32.717 32.717-14.647 32.717-32.717 32.717S0 50.787 0 32.717Zm38.493-15.465H26.94l-11.284 30.93h10.16l1.306-4.361h10.833l1.302 4.361h10.52l-11.285-30.93Zm-5.841 8.634 3.236 11.012H29.19l3.28-11.012h.182Zm34.658 6.831C67.31 14.647 81.957 0 100.027 0s32.717 14.647 32.717 32.717-14.647 32.717-32.717 32.717S67.31 50.787 67.31 32.717Zm17.905-15.465v30.93H98.61c10.565 0 16.23-4.899 16.23-15.465 0-10.563-5.665-15.465-16.23-15.465H85.215Zm13.216 7.417c4.359 0 6.248 2.473 6.248 6.7v2.696c0 4.227-1.89 6.7-6.248 6.7h-3.283V24.669h3.283Zm36.186 8.048C134.617 14.647 149.264 0 167.334 0s32.717 14.647 32.717 32.717-14.647 32.717-32.717 32.717-32.717-14.647-32.717-32.717Zm49.418-15.465h-10.16l-6.248 20.68h-.181l-6.201-20.68h-10.613l10.972 30.93h11.505l10.926-30.93ZM19.323 94.525h5.04v-4.73h-5.04v4.73Zm30.893 0v-3.923H41.16v-2.496h7.605v-3.759H41.16V82.09h8.892v-3.924H35.905v16.359h14.311ZM77.62 78.166h-5.875L69.25 82.35h-.096l-2.473-4.184h-6.35l5.282 7.705-5.851 8.654h5.897l3.02-5.087h.095l3.02 5.087h6.373l-5.848-8.632 5.301-7.727Zm10.662 0v16.359h5.255v-5.278h3.923c3.09 0 5.229-2.308 5.229-5.397v-.31c0-3.093-2.14-5.374-5.229-5.374h-9.178Zm7.418 3.877c1.14 0 1.664.616 1.664 1.593v.187c0 .977-.547 1.596-1.664 1.596h-2.163v-3.376H95.7Zm32.417 12.482v-3.923h-9.06v-2.496h7.609v-3.759h-7.61V82.09h8.895v-3.924h-14.149v16.359h14.315Zm26.736-11.342c0-2.663-1.879-5.017-5.516-5.017h-10.012v16.359h5.256v-5.967h1.948l2.901 5.967h5.898l-3.637-6.847c2.114-.785 3.162-2.592 3.162-4.495Zm-5.35.215c0 .877-.666 1.52-1.474 1.52h-3.448v-3.02h3.448c.808 0 1.474.62 1.474 1.5Zm31.23-5.232h-15.98v4.184h5.374v12.175h5.255V82.35h5.351v-4.184Z" fill="url(#a)" fill-rule="evenodd"/></svg>