<svg width="172" height="172" xmlns="http://www.w3.org/2000/svg" xmlns:xlink="http://www.w3.org/1999/xlink"><defs><path id="b" d="M0 0h84v84H0z"/><path id="d" d="M0 84h84V0H0z"/><linearGradient x1="50%" y1="104.307%" x2="50%" y2="0%" id="a"><stop stop-color="#D9AC4C" offset="0%"/><stop stop-color="#BA843A" offset="30.858%"/><stop stop-color="#F0D46D" offset="50.954%"/><stop stop-color="#CAA64B" offset="80.269%"/><stop stop-color="#D9AC4C" offset="100%"/></linearGradient></defs><g fill="none" fill-rule="evenodd"><circle fill="#080D16" cx="86.5" cy="86.5" r="63.5"/><path d="M86 148c-34.242 0-62-27.758-62-62 0-34.242 27.758-62 62-62 34.242 0 62 27.758 62 62 0 34.242-27.758 62-62 62M86 0C38.503 0 0 38.503 0 86s38.503 86 86 86 86-38.503 86-86S133.497 0 86 0" fill="url(#a)" transform="rotate(180 86 86)"/><g transform="translate(44 44)"><mask id="c" fill="#fff"><use xlink:href="#b"/></mask><path d="M42.006 80.804c-21.4 0-38.81-17.41-38.81-38.81 0-21.393 17.41-38.797 38.81-38.797a38.843 38.843 0 0 1 17.666 4.25l-2.69 2.69c-.974.974-1.892 2.31-2.654 3.773-3.877-1.713-8.015-2.582-12.322-2.582-16.917 0-30.679 13.757-30.679 30.667 0 16.916 13.762 30.678 30.679 30.678 16.91 0 30.667-13.762 30.667-30.678 0-4.21-.827-8.252-2.458-12.041 1.51-.762 2.889-1.696 3.888-2.697l2.61-2.609a38.735 38.735 0 0 1 4.09 17.347c0 21.399-17.405 38.809-38.797 38.809Zm4.807-38.805A4.818 4.818 0 0 1 42 46.812a4.818 4.818 0 0 1-4.813-4.813A4.818 4.818 0 0 1 42 37.188c.744 0 1.445.174 2.074.476L40.87 40.87a1.598 1.598 0 1 0 2.26 2.26l3.206-3.205c.302.63.477 1.332.477 2.075Zm5.41-12.484-5.808 5.809A7.961 7.961 0 0 0 42 33.99c-4.416 0-8.01 3.593-8.01 8.008 0 4.417 3.594 8.01 8.01 8.01 4.417 0 8.01-3.593 8.01-8.01a7.958 7.958 0 0 0-1.334-4.415l5.808-5.809A16.068 16.068 0 0 1 58.144 42c0 8.902-7.241 16.144-16.144 16.144-8.902 0-16.144-7.242-16.144-16.144 0-8.901 7.242-16.144 16.144-16.144 3.877 0 7.438 1.374 10.224 3.66Zm2.966-2.966a3.464 3.464 0 0 1-.047-.888l.394-5.193c.194-2.559 1.891-6.255 3.706-8.07l4.876-4.875c.52-.52 1.058-.796 1.542-.796.083 0 .164.008.243.024.543.112 1.016.615 1.333 1.413l.222.563c.455 1.144 1.202 2.33 2.116 3.438L55.189 26.55Zm3.18 2.39a3.411 3.411 0 0 1-.972-.077L71.821 14.44c1.097.925 2.275 1.685 3.412 2.152l.846.347c.8.33 1.303.817 1.414 1.373.111.557-.164 1.2-.776 1.812l-4.874 4.875c-1.808 1.809-5.494 3.466-8.05 3.619l-5.424.322Zm11.108 13.056c0 15.153-12.324 27.481-27.471 27.481-15.154 0-27.482-12.328-27.482-27.481 0-15.147 12.328-27.47 27.482-27.47 3.872 0 7.589.783 11.07 2.327-.39 1.169-.648 2.328-.727 3.374l-.395 5.194v.003A19.224 19.224 0 0 0 42 22.658c-10.664 0-19.34 8.677-19.34 19.341 0 10.665 8.676 19.341 19.34 19.341 10.665 0 19.341-8.676 19.341-19.34 0-3.605-.994-6.98-2.718-9.873l5.36-.319c1.015-.06 2.136-.29 3.269-.646 1.474 3.405 2.225 7.042 2.225 10.833Zm9.605-19.728c1.293-1.352 1.86-3.013 1.546-4.584-.324-1.615-1.54-2.964-3.335-3.702l-.845-.347c-.757-.311-1.57-.832-2.352-1.47l1.076-1.077a1.597 1.597 0 1 0-2.26-2.26L71.85 9.89c-.619-.782-1.121-1.59-1.42-2.34l-.222-.563c-.718-1.807-2.052-3.034-3.659-3.365-1.53-.317-3.155.221-4.496 1.465A42.033 42.033 0 0 0 42.006 0C18.844 0 0 18.839 0 41.995 0 65.157 18.844 84 42.006 84 65.16 84 84 65.157 84 41.995a41.913 41.913 0 0 0-4.918-19.728Z" fill="#FFF" mask="url(#c)"/><mask id="e" fill="#fff"><use xlink:href="#d"/></mask><path fill="#FFF" mask="url(#e)" d="M39 9h3V6h-3zm-13 3.213L24.126 9 21 10.787 22.874 14zM13 24.874 9.787 23 8 26.126 11.213 28zM6 45h3v-3H6zm3 14.874L10.787 63 14 61.126 12.213 58zm14 14.339L26.126 76 28 72.787 24.874 71zm19 4.786 2.999.001.001-3h-2.999zm16-7.213L59.873 75 63 73.214 61.127 70zm13-12.661L74.213 61 76 57.875 72.788 56zM76 39v3h3v-3z"/></g></g></svg>