<svg width="50" height="50" xmlns="http://www.w3.org/2000/svg"><g fill="none" fill-rule="evenodd"><path d="M0 0h50v50H0z"/><path d="M37.925 12.004A18.052 18.052 0 0 0 25.077 6.68c-10.015 0-18.162 8.144-18.165 18.154a18.125 18.125 0 0 0 2.423 9.077L6.758 43.32l9.63-2.525a18.16 18.16 0 0 0 8.68 2.21h.01c10.01 0 18.157-8.146 18.162-18.156a18.045 18.045 0 0 0-5.315-12.844Z" stroke="#D9AC4C" stroke-width="3" stroke-linecap="round" stroke-linejoin="round"/><g stroke-linecap="round" stroke-linejoin="round" stroke="#D9AC4C" stroke-width="3"><path d="m27.281 28.25.846-.84a2.275 2.275 0 0 1 2.902-.24c.867.61 1.65 1.155 2.38 1.663a2.253 2.253 0 0 1 .3 3.45l-.749.748M16.969 17.04l.748-.748a2.255 2.255 0 0 1 3.45.3c.506.729 1.052 1.512 1.662 2.379.63.896.533 2.125-.24 2.902l-.839.846"/><path d="M32.96 33.031c-3.085 3.071-8.27.463-12.364-3.633"/><path d="M20.6 29.404c-4.094-4.096-6.702-9.279-3.631-12.364m4.781 5.679c.665 1.048 1.517 2.085 2.48 3.048l.003.004c.963.962 2 1.814 3.048 2.479"/></g></g></svg>