<svg width="133.368164" height="45.000000" viewBox="0 0 133.368 45" fill="none" xmlns="http://www.w3.org/2000/svg" xmlns:xlink="http://www.w3.org/1999/xlink">
	
	<defs/>
	<path id="Vector" d="M131.61 37.28C131.26 37.1 130.82 37.2 130.44 37.34C129.13 37.85 128.09 38.87 126.8 39.44C125.52 40.01 123.72 39.95 123.03 38.72C122.39 37.59 123.04 36.18 123.79 35.12C125.34 32.92 127.32 31.09 129.27 29.23C130.14 28.38 131 27.54 131.83 26.64C132.76 25.62 133.7 24.27 133.25 22.95C132.93 22 131.92 21.38 130.92 21.39C129.92 21.39 128.98 21.96 128.37 22.75C128.27 22.88 128.16 23.03 127.99 23.03C127.8 23.03 127.68 22.82 127.58 22.66C126.66 21.2 124.56 21.12 122.87 21.5C118.06 22.6 114.09 25.95 110.62 29.46C107.14 32.97 103.89 36.82 99.66 39.37C98.94 39.8 98.17 40.21 97.33 40.31C96.48 40.41 95.56 40.17 95.04 39.5C94.39 38.67 94.56 37.45 95.01 36.48C95.67 35.07 96.82 33.97 97.94 32.89C100.4 30.55 102.87 28.2 105.32 25.85C106.16 25.06 107.07 23.96 106.66 22.88C106.42 22.26 105.78 21.87 105.13 21.72C104.48 21.56 103.8 21.61 103.14 21.62C100.56 21.64 97.98 20.91 95.77 19.56C95.13 19.17 94.48 18.71 93.74 18.6C92.77 18.45 91.75 19.01 91.32 19.89C90.9 20.77 91.12 21.91 91.84 22.58C92.31 23.02 92.95 23.27 93.36 23.76C93.95 24.43 93.59 25.02 93.17 25.67C91.22 28.75 88.58 31.68 85.35 33.44C84.67 33.84 83.87 34.22 83.12 33.97C81.98 33.57 83.02 32.57 83.34 31.91C84.52 29.56 85.53 27.17 85.13 24.45C84.81 22.28 83.39 20.94 81.32 20.68C79.72 20.46 78.22 20.96 76.79 21.6C73.84 22.91 71.43 24.97 69.27 27.34C68.03 28.68 67.02 30.21 65.84 31.61C64.38 33.33 62.78 34.96 61.02 36.38C60.06 37.15 59.04 37.87 57.97 38.5C57.15 39.01 56.22 39.39 55.26 39.37C54.02 39.34 52.88 38.48 52.58 37.25C52.26 35.85 52.87 34.34 53.48 33.11C54.32 31.42 55.38 29.86 56.46 28.3C57.77 26.43 59.1 24.55 60.54 22.78C64.82 17.51 69.44 12.62 74.33 7.94C75.53 6.79 76.82 5.7 77.86 4.36C78.85 3.07 78.48 1.13 77.12 0.35C75.85 -0.37 74.57 0.06 73.54 1.12C72.07 2.64 70.96 4.47 69.71 6.19C68.4 7.99 67.08 9.8 65.78 11.62C64.4 13.53 63.06 15.49 61.66 17.39C59.68 20.11 57.67 22.82 55.49 25.4C53.33 27.99 51.65 30.95 49.35 33.44C47.41 35.54 45.34 37.48 42.72 38.73C42.28 38.94 41.98 38.7 42.01 38.22C42.13 35.83 41.52 33.53 41.11 31.23C40.78 29.38 40.43 27.55 40.34 25.69C40.31 24.79 40.23 23.84 40.71 23C40.89 22.67 41 22.22 41.46 22.24C41.89 22.25 42.05 22.68 42.23 23.02C42.27 23.09 42.28 23.19 42.33 23.25C42.85 24.1 43.44 24.8 44.58 24.78C45.71 24.78 46.48 24.28 46.99 23.3C47.47 22.35 47.21 21.22 46.4 20.29C44.66 18.29 40.92 17.94 39.24 20.64C38.18 22.36 38.35 24.66 38.56 26.59C38.64 27.34 38.7 28.08 38.75 28.83C38.95 32.11 38.27 35.45 36.49 38.24C35.64 39.55 34.6 40.71 33.25 41.6C32.5 42.11 31.38 42.67 30.44 42.56C29.91 42.48 29.41 42.15 29.13 41.67C28.53 40.68 29.06 39.59 29.68 38.76C30.41 37.76 31.31 36.79 31.77 35.64C32.03 35.07 32.14 34.41 31.96 33.81C31.7 32.91 30.94 32.37 30.02 32.35C28.43 32.32 27.47 33.58 26.79 34.86C25.65 37.05 24.63 38.63 22.22 39.54C20.63 40.14 18.45 40.26 18.25 38.08C18.15 36.98 18.63 36.12 19.21 35.3C20.77 33.08 22.8 31.27 24.72 29.37C25.91 28.19 27.19 27.1 28.18 25.73C28.98 24.61 29.04 23.11 28.29 22.34C27.48 21.51 26.31 21.34 25.22 21.8C24.65 22.03 24.23 22.4 23.88 22.86C23.52 23.34 23.28 23.37 22.98 22.8C21.9 20.69 18.46 21.47 16.74 22.12C14.11 23.12 11.76 24.57 9.57 26.34C7.21 28.23 4.97 30.4 3.19 32.88C1.65 34.97 -0.09 37.56 0 40.29C0.08 42.61 1.91 44.86 4.33 44.83C6.37 44.8 8.05 44 9.67 42.95C11.12 42.02 12.39 40.85 13.75 39.56C13.5 39.79 13.57 40.51 13.52 40.83C13.29 42.31 13.59 43.75 15.01 44.53C17.42 45.87 21.01 43.99 23.16 42.81C23.72 42.51 25.17 41.58 26.26 40.52C26.36 40.83 26.48 41.12 26.64 41.42C27.99 43.84 30.3 44.74 32.92 44.97C34.79 45.12 36.67 44.67 38.33 43.82C40.89 42.49 43.35 41.02 45.5 39.06C46.25 38.36 47.03 37.69 47.82 36.98C47.92 37.27 47.83 37.49 47.75 37.69C46.78 40 46.59 43.46 49.35 44.57C50.66 45.09 52.19 44.89 53.49 44.35C55.27 43.6 57 42.3 58.44 41.07C59.96 39.78 61.49 38.51 62.76 36.95C62.88 36.8 62.98 36.57 63.26 36.6C63.27 36.68 63.3 36.75 63.3 36.83C63.29 36.91 63.25 37 63.22 37.08C62.71 38.45 62.74 39.91 63.1 41.23C64.82 47.34 72.31 43.86 75.65 41.3C76.89 40.33 78.06 39.29 79.07 38.09C79.46 37.62 79.93 36.99 80.42 36.6C80.5 36.54 81.1 35.97 81.14 35.88C82.51 36.23 83.97 35.48 85.14 34.85C86.75 34 88.22 32.9 89.53 31.65C91.76 29.55 93.6 27 95.72 24.76C95.79 24.69 95.86 24.61 95.93 24.54C96.38 24.07 96.84 23.59 97.44 23.34C98.17 23.04 99.05 23.15 99.68 23.63C100.31 24.11 100.64 24.95 100.5 25.73C100.39 26.35 100 26.89 99.61 27.39C97.76 29.75 95.51 31.78 93.26 33.77C91.73 35.13 90.13 36.55 89.31 38.43C88.48 40.31 88.64 42.8 90.23 44.09C91.77 45.34 94.04 45.09 95.89 44.38C99.45 43.01 102.29 40.29 105.01 37.64C104.28 39.55 104.45 41.93 105.91 43.35C107.63 45.02 110.49 44.84 112.62 43.77C114.75 42.69 116.43 40.89 118.32 39.44C117.89 40.85 117.74 42.53 118.68 43.66C119.87 45.11 122.13 44.94 123.91 44.36C125.82 43.74 127.63 42.82 129.24 41.65C130.11 41.03 130.92 40.33 131.55 39.48C132.06 38.8 132.34 37.65 131.59 37.25L131.61 37.28ZM10.68 38.74C9.86 39.26 8.86 39.73 7.93 39.42C7.27 39.19 6.79 38.58 6.57 37.92C6.43 37.49 6.36 37.03 6.35 36.57C6.3 33.88 8.33 31 9.99 29.01C11.78 26.87 14 25.05 16.39 23.68C17.74 22.9 21.25 21.11 21.67 23.78C22.13 26.63 19.3 29.71 17.69 31.81C15.69 34.42 13.46 36.94 10.67 38.73L10.68 38.74ZM76.8 33.03C76.87 35.23 75.56 37.62 73.49 38.53C72.19 39.1 70.55 39.09 69.45 38.12C67.67 36.55 68.49 33.86 69.33 32.01C70.45 29.58 71.93 27.39 73.81 25.49C75.53 23.75 77.53 22.52 80.06 22.37C80.99 22.34 81.86 22.47 82.56 23.11C83.47 23.96 83.79 25.65 83.43 26.84C83.25 27.37 83.32 28.06 82.64 27.81C79.32 26.63 76.73 29.94 76.8 33.03ZM115.23 38.57C114.42 39.1 113.41 39.58 112.49 39.25C111.83 39.03 111.34 38.43 111.14 37.76C110.98 37.32 110.91 36.87 110.91 36.42C110.86 33.73 112.88 30.84 114.55 28.86C116.34 26.71 118.56 24.89 120.95 23.52C122.3 22.75 125.8 20.95 126.24 23.63C126.69 26.48 123.86 29.57 122.26 31.66C120.25 34.28 118.03 36.8 115.23 38.58L115.23 38.57Z" fill="#E56C94" fill-opacity="1.000000" fill-rule="nonzero"/>
</svg>
