<svg width="17.999512" height="18.000000" viewBox="0 0 17.9995 18" fill="none" xmlns="http://www.w3.org/2000/svg" xmlns:xlink="http://www.w3.org/1999/xlink">
	
	<defs/>
	<path id="CArt Icon" d="M17.98 15.66L16.5 4.6L12.51 4.6L12.51 3.51C12.51 1.57 10.93 0 9 0C7.06 0 5.48 1.57 5.48 3.51L5.48 4.6L1.49 4.6L0.01 15.64L0.01 15.66C-0.06 16.25 0.13 16.85 0.53 17.29C0.93 17.74 1.51 18 2.1 18L15.89 18C16.48 18 17.06 17.74 17.45 17.29C17.85 16.85 18.05 16.25 17.98 15.66ZM6.89 3.51C6.89 2.35 7.83 1.4 9 1.4C10.16 1.4 11.1 2.35 11.1 3.51L11.1 4.6L6.89 4.6L6.89 3.51ZM16.41 16.36C16.27 16.51 16.09 16.59 15.89 16.59L2.1 16.59C1.9 16.59 1.72 16.51 1.58 16.36C1.45 16.21 1.39 16.02 1.4 15.82L2.72 6.01L5.48 6.01L5.48 8.15L6.89 8.15L6.89 6.01L11.1 6.01L11.1 8.15L12.51 8.15L12.51 6.01L15.27 6.01L16.58 15.82C16.6 16.02 16.54 16.21 16.41 16.36Z" fill="#000000" fill-opacity="1.000000" fill-rule="nonzero"/>
</svg>
