<svg width="49.000000" height="49.000000" viewBox="0 0 49 49" fill="none" xmlns="http://www.w3.org/2000/svg" xmlns:xlink="http://www.w3.org/1999/xlink">
	
	<defs>
		<clipPath id="clip304_260">
			<rect id="fi_9985876" rx="0.000000" width="48.000000" height="48.000000" transform="translate(0.500000 0.500000)" fill="white" fill-opacity="0"/>
		</clipPath>
	</defs>
	<rect id="fi_9985876" rx="0.000000" width="48.000000" height="48.000000" transform="translate(0.500000 0.500000)" fill="#FFFFFF" fill-opacity="0"/>
	<g clip-path="url(#clip304_260)">
		<path id="Vector" d="M41.82 26.73C40.93 25.84 39.98 25.03 38.99 24.3L42.5 16.68L45.77 19.84C45.91 19.98 46.09 20.04 46.27 20.04C46.46 20.04 46.65 19.97 46.79 19.83C47.06 19.54 47.06 19.09 46.77 18.81L42.8 14.97C41.95 14.15 40.9 13.56 39.75 13.27L34.41 11.88C34.02 11.78 33.63 12.01 33.53 12.39C33.43 12.78 33.66 13.17 34.05 13.27L39.39 14.65C40.12 14.84 40.8 15.18 41.39 15.65L39.74 19.24L37.71 18.1L38.39 17.09C38.62 16.76 38.53 16.31 38.2 16.09C37.87 15.87 37.42 15.96 37.2 16.29L33.79 21.38C31.78 20.55 29.66 20 27.47 19.74L26.81 11.37L31.22 12.53C31.28 12.55 31.34 12.55 31.4 12.55C31.72 12.55 32.01 12.34 32.09 12.02C32.2 11.64 31.97 11.24 31.58 11.14L26.24 9.74C25.1 9.44 23.89 9.44 22.75 9.74L17.41 11.14C17.02 11.24 16.8 11.64 16.9 12.02C17 12.4 17.39 12.63 17.77 12.53L22.18 11.37L21.52 19.74C19.33 20 17.21 20.55 15.2 21.38L10.53 14.41L14.94 13.27C15.33 13.17 15.56 12.78 15.46 12.39C15.36 12.01 14.97 11.78 14.58 11.88L9.24 13.27C8.09 13.56 7.04 14.15 6.19 14.97L2.22 18.81C1.93 19.09 1.93 19.54 2.2 19.83C2.34 19.97 2.53 20.04 2.72 20.04C2.9 20.04 3.08 19.98 3.22 19.84L6.49 16.68L10 24.3C9.01 25.03 8.06 25.84 7.17 26.73C2.54 31.36 0 37.51 0 44.06C0 44.45 0.32 44.78 0.71 44.78C1.11 44.78 1.43 44.45 1.43 44.06C1.43 41.3 1.91 38.62 2.83 36.1L4 44.16C4.05 44.52 4.35 44.78 4.7 44.78C4.74 44.78 4.77 44.77 4.81 44.77C5.2 44.71 5.47 44.35 5.42 43.96L5.29 43.08L8.04 41.31C8.34 41.12 8.74 41.15 9.01 41.38L9.43 41.75C9.87 42.12 10.45 42.24 10.99 42.06C11.54 41.88 11.94 41.44 12.06 40.88L12.51 38.93C12.69 38.14 13.29 37.48 14.06 37.23L17.37 36.12C18.03 35.89 18.54 35.39 18.77 34.73C19.01 34.08 18.93 33.36 18.55 32.77L17.05 30.41C16.44 29.46 15.22 29.1 14.19 29.58L12.86 30.2C12.52 30.35 12.13 30.24 11.92 29.94C11.8 29.76 11.76 29.55 11.81 29.33C11.86 29.12 11.99 28.95 12.18 28.85C12.53 28.66 12.65 28.22 12.46 27.87C12.27 27.53 11.83 27.4 11.49 27.59C10.95 27.89 10.55 28.4 10.41 29C10.27 29.6 10.38 30.24 10.73 30.75C11.34 31.64 12.49 31.95 13.47 31.5L14.8 30.88C15.17 30.7 15.62 30.83 15.83 31.18L17.34 33.54C17.48 33.76 17.5 34.02 17.42 34.25C17.34 34.49 17.15 34.67 16.91 34.76L13.6 35.87C12.36 36.28 11.41 37.33 11.11 38.61L10.66 40.56C10.65 40.64 10.59 40.68 10.55 40.69C10.5 40.71 10.44 40.71 10.37 40.66L9.95 40.3C9.2 39.65 8.1 39.57 7.26 40.11L5.07 41.52L3.92 33.6C5.01 31.47 6.44 29.49 8.19 27.75C12.09 23.84 17.15 21.51 22.6 21.07L23.67 22.76C24.07 23.41 24.14 24.21 23.85 24.92L23.02 26.94C22.77 27.53 22.2 27.92 21.55 27.92L20.15 27.92C19.62 27.92 19.14 27.66 18.84 27.23L18.55 26.81C17.67 25.53 15.97 25.13 14.61 25.87L14 26.21C13.65 26.4 13.52 26.84 13.71 27.19C13.9 27.53 14.34 27.66 14.69 27.47L15.3 27.13C16.02 26.74 16.91 26.95 17.37 27.62L17.66 28.05C18.22 28.87 19.15 29.35 20.15 29.35L21.55 29.35C22.78 29.35 23.87 28.62 24.34 27.49L25.18 25.46C25.65 24.33 25.54 23.03 24.88 21.99L24.25 21C24.33 21 24.41 20.99 24.5 20.99C26.69 20.99 28.84 21.3 30.89 21.89L29.72 22.89C28.97 23.53 28.73 24.61 29.13 25.52C29.63 26.63 30.94 27.15 32.06 26.67L32.56 26.46C32.84 26.34 33.17 26.41 33.38 26.64C33.54 26.8 33.61 27.02 33.58 27.25C33.54 27.47 33.42 27.66 33.22 27.78L28.23 30.73C27.08 31.41 26.37 32.66 26.37 33.99L26.37 34.57C26.37 35.85 27.18 36.94 28.31 37.37C27.13 38.36 26.37 39.84 26.37 41.5C26.37 42.55 26.68 43.58 27.26 44.45C27.4 44.66 27.62 44.78 27.86 44.78C27.99 44.78 28.13 44.74 28.25 44.66C28.58 44.44 28.67 43.99 28.46 43.66C28.03 43.02 27.81 42.27 27.81 41.5C27.81 39.33 29.57 37.56 31.75 37.56L38.49 37.56C39.77 37.56 40.8 36.52 40.8 35.25C40.8 33.97 39.77 32.94 38.49 32.94L32.83 32.94C31.82 32.94 30.99 33.7 30.91 34.7C30.91 34.7 30.91 34.7 30.9 34.7C30.84 35.51 30.17 36.12 29.36 36.12C28.5 36.12 27.81 35.43 27.81 34.57L27.81 33.99C27.81 33.16 28.25 32.39 28.96 31.97L33.95 29.01C34.52 28.67 34.9 28.1 35 27.45C35.09 26.79 34.88 26.14 34.43 25.65C33.81 25 32.83 24.79 32 25.14L31.5 25.35C31.1 25.52 30.62 25.33 30.44 24.93C30.3 24.6 30.38 24.21 30.66 23.98L32.49 22.41C35.58 23.55 38.41 25.35 40.8 27.75C44.29 31.24 46.53 35.65 47.28 40.44L46.81 40.84C46.32 41.27 45.67 41.47 45.02 41.4L43.6 41.25C43.36 41.23 43.13 41.32 42.98 41.5C42.82 41.68 42.77 41.93 42.83 42.16L43.41 44.25C43.5 44.57 43.79 44.78 44.1 44.78C44.17 44.78 44.23 44.77 44.29 44.75C44.68 44.64 44.9 44.25 44.79 43.87L44.5 42.79L44.87 42.83C45.8 42.93 46.73 42.68 47.48 42.14C47.53 42.77 47.56 43.41 47.56 44.06C47.56 44.45 47.88 44.78 48.28 44.78C48.67 44.78 49 44.45 49 44.06C49 37.51 46.45 31.36 41.82 26.73ZM32.33 34.83C32.33 34.83 32.33 34.83 32.33 34.83C32.36 34.57 32.57 34.37 32.83 34.37L38.49 34.37C38.98 34.37 39.37 34.77 39.37 35.25C39.37 35.73 38.98 36.12 38.49 36.12L31.92 36.12C32.15 35.74 32.29 35.31 32.33 34.83ZM36.91 19.3L39.13 20.55L37.79 23.47C36.93 22.91 36.04 22.41 35.12 21.97L36.91 19.3ZM25.34 11.01L25.66 14.95L23.33 14.95L23.65 11.01C24.21 10.92 24.78 10.92 25.34 11.01ZM7.6 15.65C8.04 15.3 8.54 15.01 9.08 14.82L11.28 18.1L9.25 19.24L7.6 15.65ZM9.86 20.55L12.08 19.3L13.87 21.97C12.95 22.41 12.06 22.91 11.2 23.47L9.86 20.55ZM22.97 19.61L23.22 16.39L25.77 16.39L26.02 19.61C25.52 19.58 25.01 19.56 24.5 19.56C23.98 19.56 23.47 19.58 22.97 19.61Z" fill="#E56C94" fill-opacity="1.000000" fill-rule="nonzero"/>
		<path id="Vector" d="M24.5 8.72C25.74 8.72 26.75 7.71 26.75 6.47C26.75 5.22 25.74 4.21 24.5 4.21C23.25 4.21 22.24 5.22 22.24 6.47C22.24 7.71 23.25 8.72 24.5 8.72ZM24.5 5.65C24.95 5.65 25.31 6.02 25.31 6.47C25.31 6.92 24.95 7.28 24.5 7.28C24.04 7.28 23.68 6.92 23.68 6.47C23.68 6.02 24.04 5.65 24.5 5.65Z" fill="#E56C94" fill-opacity="1.000000" fill-rule="nonzero"/>
		<path id="Vector" d="M41.77 13.23C42.11 13.42 42.49 13.52 42.87 13.52C43.08 13.52 43.28 13.49 43.49 13.43C44.06 13.27 44.54 12.89 44.84 12.37C45.13 11.84 45.21 11.23 45.04 10.66C44.88 10.08 44.5 9.6 43.98 9.3C42.89 8.69 41.52 9.08 40.91 10.17C40.3 11.25 40.69 12.62 41.77 13.23ZM42.16 10.87C42.38 10.47 42.88 10.33 43.27 10.55C43.67 10.77 43.81 11.27 43.59 11.67C43.48 11.86 43.31 11.99 43.1 12.05C42.89 12.11 42.67 12.09 42.48 11.98C42.08 11.76 41.94 11.26 42.16 10.87Z" fill="#E56C94" fill-opacity="1.000000" fill-rule="nonzero"/>
		<path id="Vector" d="M5.5 13.43C5.71 13.49 5.91 13.52 6.12 13.52C6.5 13.52 6.88 13.42 7.22 13.23C8.3 12.62 8.69 11.25 8.08 10.17C7.47 9.08 6.1 8.69 5.01 9.3C4.49 9.6 4.11 10.08 3.95 10.66C3.78 11.23 3.86 11.84 4.15 12.37C4.45 12.89 4.93 13.27 5.5 13.43ZM5.72 10.55C5.84 10.48 5.98 10.45 6.11 10.45C6.4 10.45 6.68 10.6 6.83 10.87C7.05 11.26 6.91 11.76 6.51 11.98C6.32 12.09 6.1 12.11 5.89 12.05C5.68 11.99 5.51 11.86 5.4 11.67C5.18 11.27 5.32 10.77 5.72 10.55Z" fill="#E56C94" fill-opacity="1.000000" fill-rule="nonzero"/>
	</g>
</svg>
