<svg width="33.000000" height="33.000000" viewBox="0 0 33 33" fill="none" xmlns="http://www.w3.org/2000/svg" xmlns:xlink="http://www.w3.org/1999/xlink">
	
	<defs>
		<clipPath id="clip126_60">
			<rect id="fi_1384031" rx="0.000000" width="32.000000" height="32.000000" transform="translate(0.500000 0.500000)" fill="white" fill-opacity="0"/>
		</clipPath>
	</defs>
	<rect id="fi_1384031" rx="0.000000" width="32.000000" height="32.000000" transform="translate(0.500000 0.500000)" fill="#FFFFFF" fill-opacity="0"/>
	<g clip-path="url(#clip126_60)">
		<path id="Vector" d="M32.96 9.7C32.89 7.94 32.6 6.74 32.2 5.69C31.78 4.58 31.13 3.59 30.29 2.77C29.46 1.93 28.46 1.28 27.37 0.87C26.32 0.46 25.12 0.18 23.36 0.1C21.6 0.01 21.04 0 16.56 0C12.08 0 11.52 0.01 9.76 0.09C8 0.17 6.8 0.45 5.75 0.86C4.64 1.28 3.65 1.92 2.83 2.77C1.99 3.59 1.34 4.59 0.92 5.69C0.52 6.74 0.23 7.94 0.16 9.69C0.07 11.46 0.05 12.02 0.05 16.5C0.05 20.98 0.07 21.54 0.15 23.3C0.23 25.05 0.51 26.26 0.92 27.3C1.34 28.41 1.99 29.4 2.83 30.23C3.65 31.07 4.65 31.72 5.75 32.13C6.8 32.54 8 32.82 9.75 32.9C11.51 32.98 12.07 33 16.55 33C21.03 33 21.59 32.98 23.35 32.9C25.1 32.82 26.31 32.54 27.35 32.13C29.57 31.27 31.33 29.52 32.18 27.3C32.59 26.25 32.87 25.05 32.95 23.3C33.03 21.54 33.05 20.98 33.05 16.5C33.05 12.02 33.04 11.46 32.96 9.7ZM29.99 23.17C29.92 24.78 29.65 25.65 29.42 26.23C28.87 27.67 27.73 28.81 26.29 29.37C25.71 29.59 24.83 29.86 23.23 29.93C21.49 30.01 20.97 30.03 16.56 30.03C12.16 30.03 11.63 30.01 9.9 29.93C8.29 29.86 7.41 29.59 6.83 29.37C6.12 29.1 5.47 28.68 4.94 28.13C4.39 27.6 3.97 26.95 3.71 26.24C3.48 25.66 3.21 24.78 3.14 23.18C3.06 21.44 3.04 20.91 3.04 16.51C3.04 12.11 3.06 11.58 3.14 9.85C3.21 8.23 3.48 7.36 3.71 6.78C3.97 6.07 4.39 5.42 4.95 4.89C5.48 4.34 6.13 3.92 6.84 3.66C7.42 3.43 8.3 3.16 9.9 3.09C11.64 3.01 12.17 2.99 16.57 2.99C20.98 2.99 21.5 3.01 23.24 3.09C24.85 3.16 25.72 3.43 26.3 3.66C27.01 3.92 27.66 4.34 28.19 4.89C28.74 5.42 29.16 6.07 29.42 6.78C29.65 7.36 29.92 8.24 29.99 9.85C30.07 11.59 30.09 12.11 30.09 16.51C30.09 20.91 30.07 21.43 29.99 23.17Z" fill="#000000" fill-opacity="1.000000" fill-rule="nonzero"/>
		<path id="Vector" d="M16.56 8.02C11.88 8.02 8.08 11.82 8.08 16.5C8.08 21.18 11.88 24.98 16.56 24.98C21.24 24.98 25.03 21.18 25.03 16.5C25.03 11.82 21.24 8.02 16.56 8.02ZM16.56 22C13.52 22 11.06 19.53 11.06 16.5C11.06 13.46 13.52 11 16.56 11C19.59 11 22.06 13.46 22.06 16.5C22.06 19.53 19.59 22 16.56 22Z" fill="#000000" fill-opacity="1.000000" fill-rule="nonzero"/>
		<path id="Vector" d="M27.35 7.69C27.35 8.78 26.46 9.66 25.37 9.66C24.28 9.66 23.39 8.78 23.39 7.69C23.39 6.59 24.28 5.71 25.37 5.71C26.46 5.71 27.35 6.59 27.35 7.69Z" fill="#000000" fill-opacity="1.000000" fill-rule="nonzero"/>
	</g>
</svg>
