<svg width="47.000000" height="47.000000" viewBox="0 0 47 47" fill="none" xmlns="http://www.w3.org/2000/svg" xmlns:xlink="http://www.w3.org/1999/xlink">
	
	<defs>
		<clipPath id="clip304_280">
			<rect id="fi_10577427" rx="0.000000" width="46.000000" height="46.000000" transform="translate(0.500000 0.500000)" fill="white" fill-opacity="0"/>
		</clipPath>
	</defs>
	<rect id="fi_10577427" rx="0.000000" width="46.000000" height="46.000000" transform="translate(0.500000 0.500000)" fill="#FFFFFF" fill-opacity="0"/>
	<g clip-path="url(#clip304_280)">
		<path id="Vector" d="M21.29 36.71C14 36.71 8.07 30.78 8.07 23.5C8.07 16.21 14 10.28 21.29 10.28C21.7 10.28 22.03 10.6 22.03 11.01C22.03 11.42 21.7 11.75 21.29 11.75C14.81 11.75 9.54 17.02 9.54 23.5C9.54 29.97 14.81 35.25 21.29 35.25C21.7 35.25 22.03 35.57 22.03 35.98C22.03 36.39 21.7 36.71 21.29 36.71Z" fill="#E56C94" fill-opacity="1.000000" fill-rule="nonzero"/>
		<path id="Vector" d="M21.29 44.79C20.89 44.79 20.56 44.46 20.56 44.06C20.56 43.65 20.89 43.32 21.29 43.32C30 43.32 37.08 36.24 37.08 27.53C37.08 18.83 30 11.75 21.29 11.75C20.89 11.75 20.56 11.42 20.56 11.01C20.56 10.6 20.89 10.28 21.29 10.28C30.81 10.28 38.55 18.02 38.55 27.53C38.55 37.05 30.81 44.79 21.29 44.79Z" fill="#E56C94" fill-opacity="1.000000" fill-rule="nonzero"/>
		<path id="Vector" d="M21.29 47C20.89 47 20.56 46.67 20.56 46.26L20.56 41.85C20.56 41.45 20.89 41.12 21.29 41.12C21.7 41.12 22.03 41.45 22.03 41.85L22.03 46.26C22.03 46.67 21.7 47 21.29 47Z" fill="#E56C94" fill-opacity="1.000000" fill-rule="nonzero"/>
		<path id="Vector" d="M21.29 47C21.16 47 21.03 46.96 20.91 46.89L17.24 44.69C16.89 44.48 16.78 44.03 16.99 43.68C17.2 43.33 17.65 43.22 18 43.43L21.67 45.63C22.02 45.84 22.13 46.29 21.92 46.64C21.78 46.87 21.54 47 21.29 47Z" fill="#E56C94" fill-opacity="1.000000" fill-rule="nonzero"/>
		<path id="Vector" d="M17.62 44.79C17.37 44.79 17.13 44.66 16.99 44.44C16.78 44.09 16.89 43.64 17.24 43.43L20.91 41.23C21.26 41.02 21.71 41.13 21.92 41.48C22.13 41.83 22.02 42.28 21.67 42.48L18 44.69C17.88 44.76 17.75 44.79 17.62 44.79Z" fill="#E56C94" fill-opacity="1.000000" fill-rule="nonzero"/>
		<path id="Vector" d="M21.29 44.79C20.89 44.79 20.56 44.46 20.56 44.06C20.56 43.65 20.89 43.32 21.29 43.32C30 43.32 37.08 36.24 37.08 27.53C37.08 18.83 30 11.75 21.29 11.75C20.89 11.75 20.56 11.42 20.56 11.01C20.56 10.6 20.89 10.28 21.29 10.28C30.81 10.28 38.55 18.02 38.55 27.53C38.55 37.05 30.81 44.79 21.29 44.79Z" fill="#E56C94" fill-opacity="1.000000" fill-rule="nonzero"/>
		<path id="Vector" d="M2.9 33.43C2.63 33.43 2.37 33.28 2.25 33.03C0.75 30.04 0 26.84 0 23.49C0 11.75 9.55 2.2 21.29 2.2C21.7 2.2 22.03 2.53 22.03 2.93C22.03 3.34 21.7 3.67 21.29 3.67C10.36 3.67 1.46 12.56 1.46 23.5C1.46 26.61 2.17 29.59 3.56 32.37C3.74 32.73 3.59 33.17 3.23 33.35C3.13 33.41 3.01 33.43 2.9 33.43Z" fill="#E56C94" fill-opacity="1.000000" fill-rule="nonzero"/>
		<path id="Vector" d="M22.03 5.87C21.62 5.87 21.29 5.54 21.29 5.14L21.29 0.73C21.29 0.32 21.62 0 22.03 0C22.43 0 22.76 0.32 22.76 0.73L22.76 5.14C22.76 5.54 22.43 5.87 22.03 5.87Z" fill="#E56C94" fill-opacity="1.000000" fill-rule="nonzero"/>
		<path id="Vector" d="M25.7 3.67C25.57 3.67 25.44 3.63 25.32 3.56L21.65 1.36C21.3 1.15 21.19 0.7 21.4 0.35C21.61 0 22.06 -0.11 22.4 0.1L26.08 2.3C26.42 2.51 26.54 2.96 26.33 3.31C26.19 3.54 25.95 3.67 25.7 3.67Z" fill="#E56C94" fill-opacity="1.000000" fill-rule="nonzero"/>
		<path id="Vector" d="M22.03 5.87C21.78 5.87 21.53 5.74 21.4 5.51C21.19 5.17 21.3 4.71 21.65 4.51L25.32 2.3C25.67 2.09 26.12 2.21 26.33 2.56C26.54 2.9 26.42 3.35 26.08 3.56L22.4 5.77C22.29 5.84 22.16 5.87 22.03 5.87L22.03 5.87Z" fill="#E56C94" fill-opacity="1.000000" fill-rule="nonzero"/>
		<path id="Vector" d="M44.09 37.84C43.98 37.84 43.86 37.81 43.76 37.76C43.4 37.58 43.25 37.14 43.43 36.77C44.82 34 45.53 31.01 45.53 27.9C45.53 16.97 36.63 8.07 25.7 8.07C25.29 8.07 24.96 7.74 24.96 7.34C24.96 6.93 25.29 6.6 25.7 6.6C37.44 6.6 47 16.16 47 27.9C47 31.24 46.24 34.45 44.74 37.43C44.62 37.69 44.36 37.84 44.09 37.84L44.09 37.84Z" fill="#E56C94" fill-opacity="1.000000" fill-rule="nonzero"/>
		<path id="Vector" d="M46.26 39.65C46.09 39.65 45.93 39.6 45.79 39.48L41.38 35.81C41.07 35.55 41.03 35.09 41.29 34.78C41.55 34.46 42.01 34.42 42.33 34.68L46.73 38.35C47.04 38.61 47.08 39.08 46.83 39.39C46.68 39.56 46.47 39.65 46.26 39.65Z" fill="#E56C94" fill-opacity="1.000000" fill-rule="nonzero"/>
		<path id="Vector" d="M41.85 41.12C41.45 41.12 41.12 40.79 41.12 40.39L41.12 35.25C41.12 34.84 41.45 34.51 41.85 34.51C42.26 34.51 42.59 34.84 42.59 35.25L42.59 40.39C42.59 40.79 42.26 41.12 41.85 41.12Z" fill="#E56C94" fill-opacity="1.000000" fill-rule="nonzero"/>
		<path id="Vector" d="M41.85 41.12C41.55 41.12 41.26 40.93 41.16 40.62C41.03 40.23 41.24 39.82 41.62 39.69L46.03 38.22C46.42 38.09 46.83 38.3 46.96 38.68C47.09 39.07 46.88 39.49 46.49 39.61L42.09 41.08C42.01 41.11 41.93 41.12 41.85 41.12Z" fill="#E56C94" fill-opacity="1.000000" fill-rule="nonzero"/>
		<path id="Vector" d="M38.92 47C37.3 47 35.98 45.68 35.98 44.06C35.98 42.44 37.3 41.12 38.92 41.12C40.54 41.12 41.85 42.44 41.85 44.06C41.85 45.68 40.54 47 38.92 47ZM38.92 42.59C38.11 42.59 37.45 43.25 37.45 44.06C37.45 44.87 38.11 45.53 38.92 45.53C39.73 45.53 40.39 44.87 40.39 44.06C40.39 43.25 39.73 42.59 38.92 42.59Z" fill="#E56C94" fill-opacity="1.000000" fill-rule="nonzero"/>
		<path id="Vector" d="M3.67 41.85C2.05 41.85 0.73 40.54 0.73 38.92C0.73 37.3 2.05 35.98 3.67 35.98C5.29 35.98 6.6 37.3 6.6 38.92C6.6 40.54 5.29 41.85 3.67 41.85ZM3.67 37.45C2.86 37.45 2.2 38.11 2.2 38.92C2.2 39.73 2.86 40.39 3.67 40.39C4.48 40.39 5.14 39.73 5.14 38.92C5.14 38.11 4.48 37.45 3.67 37.45Z" fill="#E56C94" fill-opacity="1.000000" fill-rule="nonzero"/>
		<path id="Vector" d="M8.07 35.98C6.86 35.98 5.87 34.99 5.87 33.78C5.87 32.56 6.86 31.57 8.07 31.57C9.29 31.57 10.28 32.56 10.28 33.78C10.28 34.99 9.29 35.98 8.07 35.98ZM8.07 33.04C7.67 33.04 7.34 33.37 7.34 33.78C7.34 34.18 7.67 34.51 8.07 34.51C8.48 34.51 8.81 34.18 8.81 33.78C8.81 33.37 8.48 33.04 8.07 33.04Z" fill="#E56C94" fill-opacity="1.000000" fill-rule="nonzero"/>
		<path id="Vector" d="M16.15 41.12C14.94 41.12 13.95 40.13 13.95 38.92C13.95 37.7 14.94 36.71 16.15 36.71C17.37 36.71 18.35 37.7 18.35 38.92C18.35 40.13 17.37 41.12 16.15 41.12ZM16.15 38.18C15.75 38.18 15.42 38.51 15.42 38.92C15.42 39.32 15.75 39.65 16.15 39.65C16.56 39.65 16.89 39.32 16.89 38.92C16.89 38.51 16.56 38.18 16.15 38.18Z" fill="#E56C94" fill-opacity="1.000000" fill-rule="nonzero"/>
		<path id="Vector" d="M41.85 28.64C40.64 28.64 39.65 27.65 39.65 26.43C39.65 25.22 40.64 24.23 41.85 24.23C43.07 24.23 44.06 25.22 44.06 26.43C44.06 27.65 43.07 28.64 41.85 28.64ZM41.85 25.7C41.45 25.7 41.12 26.03 41.12 26.43C41.12 26.84 41.45 27.17 41.85 27.17C42.26 27.17 42.59 26.84 42.59 26.43C42.59 26.03 42.26 25.7 41.85 25.7Z" fill="#E56C94" fill-opacity="1.000000" fill-rule="nonzero"/>
		<path id="Vector" d="M7.34 16.89C6.12 16.89 5.14 15.9 5.14 14.68C5.14 13.47 6.12 12.48 7.34 12.48C8.55 12.48 9.54 13.47 9.54 14.68C9.54 15.9 8.55 16.89 7.34 16.89ZM7.34 13.95C6.93 13.95 6.6 14.28 6.6 14.68C6.6 15.09 6.93 15.42 7.34 15.42C7.74 15.42 8.07 15.09 8.07 14.68C8.07 14.28 7.74 13.95 7.34 13.95Z" fill="#E56C94" fill-opacity="1.000000" fill-rule="nonzero"/>
		<path id="Vector" d="M41.85 10.28C40.64 10.28 39.65 9.29 39.65 8.07C39.65 6.86 40.64 5.87 41.85 5.87C43.07 5.87 44.06 6.86 44.06 8.07C44.06 9.29 43.07 10.28 41.85 10.28ZM41.85 7.34C41.45 7.34 41.12 7.67 41.12 8.07C41.12 8.48 41.45 8.81 41.85 8.81C42.26 8.81 42.59 8.48 42.59 8.07C42.59 7.67 42.26 7.34 41.85 7.34Z" fill="#E56C94" fill-opacity="1.000000" fill-rule="nonzero"/>
		<path id="Vector" d="M6.6 5.14C5.39 5.14 4.4 4.15 4.4 2.93C4.4 1.72 5.39 0.73 6.6 0.73C7.82 0.73 8.81 1.72 8.81 2.93C8.81 4.15 7.82 5.14 6.6 5.14ZM6.6 2.2C6.2 2.2 5.87 2.53 5.87 2.93C5.87 3.34 6.2 3.67 6.6 3.67C7.01 3.67 7.34 3.34 7.34 2.93C7.34 2.53 7.01 2.2 6.6 2.2Z" fill="#E56C94" fill-opacity="1.000000" fill-rule="nonzero"/>
		<path id="Vector" d="M35.25 6.6C33.62 6.6 32.31 5.29 32.31 3.67C32.31 2.05 33.62 0.73 35.25 0.73C36.87 0.73 38.18 2.05 38.18 3.67C38.18 5.29 36.87 6.6 35.25 6.6ZM35.25 2.2C34.44 2.2 33.78 2.86 33.78 3.67C33.78 4.48 34.44 5.14 35.25 5.14C36.05 5.14 36.71 4.48 36.71 3.67C36.71 2.86 36.05 2.2 35.25 2.2Z" fill="#E56C94" fill-opacity="1.000000" fill-rule="nonzero"/>
		<path id="Vector" d="M21.29 36.71C20.89 36.71 20.56 36.39 20.56 35.98L20.56 23.5C20.56 23.09 20.89 22.76 21.29 22.76C21.7 22.76 22.03 23.09 22.03 23.5L22.03 35.98C22.03 36.39 21.7 36.71 21.29 36.71Z" fill="#E56C94" fill-opacity="1.000000" fill-rule="nonzero"/>
		<path id="Vector" d="M15.42 30.1C12.99 30.1 11.01 28.13 11.01 25.7C11.01 23.48 14.45 19.12 14.84 18.63C15.04 18.39 15.37 18.29 15.66 18.4C15.95 18.5 16.15 18.78 16.15 19.09C16.15 20.7 16.96 21.42 17.9 22.26C18.8 23.07 19.82 23.98 19.82 25.7C19.82 28.13 17.85 30.1 15.42 30.1ZM14.99 20.87C13.78 22.57 12.48 24.7 12.48 25.7C12.48 27.32 13.8 28.64 15.42 28.64C17.04 28.64 18.35 27.32 18.35 25.7C18.35 24.69 17.83 24.18 16.92 23.35C16.23 22.74 15.42 22.01 14.99 20.87Z" fill="#E56C94" fill-opacity="1.000000" fill-rule="nonzero"/>
		<path id="Vector" d="M20.56 31.57C17.32 31.57 14.68 28.94 14.68 25.7C14.68 25.29 15.01 24.96 15.42 24.96C15.82 24.96 16.15 25.29 16.15 25.7C16.15 28.13 18.13 30.1 20.56 30.1C20.96 30.1 21.29 30.43 21.29 30.84C21.29 31.24 20.96 31.57 20.56 31.57Z" fill="#E56C94" fill-opacity="1.000000" fill-rule="nonzero"/>
		<path id="Vector" d="M27.17 35.25C24.74 35.25 22.76 33.27 22.76 30.84C22.76 29.12 23.79 28.21 24.69 27.4C25.62 26.56 26.43 25.84 26.43 24.23C26.43 23.92 26.63 23.64 26.92 23.54C27.22 23.43 27.54 23.53 27.74 23.77C28.13 24.26 31.57 28.62 31.57 30.84C31.57 33.27 29.6 35.25 27.17 35.25ZM27.59 26.01C27.16 27.16 26.36 27.88 25.67 28.49C24.75 29.32 24.23 29.83 24.23 30.84C24.23 32.46 25.55 33.78 27.17 33.78C28.79 33.78 30.1 32.46 30.1 30.84C30.1 29.84 28.81 27.71 27.59 26.01Z" fill="#E56C94" fill-opacity="1.000000" fill-rule="nonzero"/>
		<path id="Vector" d="M22.76 24.5C21.58 24.5 20.48 24.04 19.65 23.21C18.81 22.37 18.35 21.27 18.35 20.09C18.35 18.91 18.81 17.81 19.65 16.97C21.22 15.4 26.73 14.76 27.35 14.69C27.67 14.65 27.96 14.82 28.1 15.1C28.23 15.38 28.17 15.72 27.95 15.94C26.82 17.08 26.88 18.16 26.95 19.41C27.01 20.62 27.09 21.99 25.88 23.21C25.04 24.04 23.94 24.5 22.76 24.5L22.76 24.5ZM25.87 16.38C23.81 16.72 21.39 17.31 20.68 18.01C20.13 18.57 19.82 19.31 19.82 20.09C19.82 20.87 20.13 21.61 20.68 22.17C21.79 23.28 23.73 23.28 24.84 22.17C25.55 21.45 25.55 20.72 25.48 19.49C25.43 18.57 25.37 17.49 25.87 16.38L25.87 16.38Z" fill="#E56C94" fill-opacity="1.000000" fill-rule="nonzero"/>
		<path id="Vector" d="M21.27 24.18C21.26 24.18 21.25 24.18 21.23 24.18C20.83 24.16 20.52 23.82 20.54 23.41C20.61 21.97 21.21 20.6 22.24 19.57C22.53 19.28 22.99 19.28 23.28 19.57C23.57 19.86 23.57 20.32 23.28 20.61C22.51 21.38 22.06 22.4 22 23.48C21.98 23.87 21.66 24.18 21.27 24.18Z" fill="#E56C94" fill-opacity="1.000000" fill-rule="nonzero"/>
		<path id="Vector" d="M21.29 36.71C20.89 36.71 20.56 36.39 20.56 35.98C20.56 35.57 20.89 35.25 21.29 35.25C24.13 35.25 26.43 33.27 26.43 30.84C26.43 30.43 26.76 30.1 27.17 30.1C27.57 30.1 27.9 30.43 27.9 30.84C27.9 34.08 24.94 36.71 21.29 36.71Z" fill="#E56C94" fill-opacity="1.000000" fill-rule="nonzero"/>
		<path id="Vector" d="M33.78 27.17C33.37 27.17 33.04 26.84 33.04 26.43C33.04 24.41 31.39 22.76 29.37 22.76C28.96 22.76 28.64 22.43 28.64 22.03C28.64 21.62 28.96 21.29 29.37 21.29C32.2 21.29 34.51 23.6 34.51 26.43C34.51 26.84 34.18 27.17 33.78 27.17Z" fill="#E56C94" fill-opacity="1.000000" fill-rule="nonzero"/>
	</g>
</svg>
