<svg width="59.000000" height="59.000000" viewBox="0 0 59 59" fill="none" xmlns="http://www.w3.org/2000/svg" xmlns:xlink="http://www.w3.org/1999/xlink">
	
	<defs>
		<clipPath id="clip304_233">
			<rect id="recyclable 1" rx="0.000000" width="58.000000" height="58.000000" transform="translate(0.500000 0.500000)" fill="white" fill-opacity="0"/>
		</clipPath>
	</defs>
	<rect id="recyclable 1" rx="0.000000" width="58.000000" height="58.000000" transform="translate(0.500000 0.500000)" fill="#FFFFFF" fill-opacity="0"/>
	<g clip-path="url(#clip304_233)">
		<path id="Vector" d="M22.74 9.48L21.6 10.62L20.46 9.48L19.56 10.37L20.7 11.51L19.56 12.65L20.46 13.55L21.6 12.41L22.74 13.55L23.64 12.65L22.5 11.51L23.64 10.37L22.74 9.48Z" fill="#E56C94" fill-opacity="1.000000" fill-rule="nonzero"/>
		<path id="Vector" d="M12.48 9.48L11.34 10.62L10.2 9.48L9.3 10.37L10.44 11.51L9.3 12.65L10.2 13.55L11.34 12.41L12.48 13.55L13.37 12.65L12.23 11.51L13.37 10.37L12.48 9.48Z" fill="#E56C94" fill-opacity="1.000000" fill-rule="nonzero"/>
		<path id="Vector" d="M22.74 19.61L21.6 20.75L20.46 19.61L19.56 20.51L20.7 21.65L19.56 22.79L20.46 23.69L21.6 22.55L22.74 23.69L23.64 22.79L22.5 21.65L23.64 20.51L22.74 19.61Z" fill="#E56C94" fill-opacity="1.000000" fill-rule="nonzero"/>
		<path id="Vector" d="M12.48 19.61L11.34 20.75L10.2 19.61L9.3 20.51L10.44 21.65L9.3 22.79L10.2 23.69L11.34 22.55L12.48 23.69L13.37 22.79L12.23 21.65L13.37 20.51L12.48 19.61Z" fill="#E56C94" fill-opacity="1.000000" fill-rule="nonzero"/>
		<path id="Vector" d="M16.66 14.55L15.52 15.69L14.38 14.55L13.48 15.44L14.62 16.58L13.48 17.72L14.38 18.62L15.52 17.48L16.66 18.62L17.55 17.72L16.41 16.58L17.55 15.44L16.66 14.55Z" fill="#E56C94" fill-opacity="1.000000" fill-rule="nonzero"/>
		<path id="Vector" d="M26.92 14.55L25.78 15.69L24.64 14.55L23.74 15.44L24.88 16.58L23.74 17.72L24.64 18.62L25.78 17.48L26.92 18.62L27.82 17.72L26.68 16.58L27.82 15.44L26.92 14.55Z" fill="#E56C94" fill-opacity="1.000000" fill-rule="nonzero"/>
		<path id="Vector" d="M30.72 13.55L31.86 12.41L33 13.55L33.9 12.65L32.76 11.51L33.9 10.37L33 9.48L31.86 10.62L30.72 9.48L29.83 10.37L30.97 11.51L29.83 12.65L30.72 13.55Z" fill="#E56C94" fill-opacity="1.000000" fill-rule="nonzero"/>
		<path id="Vector" d="M30.72 23.69L31.86 22.55L33 23.69L33.9 22.79L32.76 21.65L33.9 20.51L33 19.61L31.86 20.75L30.72 19.61L29.83 20.51L30.97 21.65L29.83 22.79L30.72 23.69Z" fill="#E56C94" fill-opacity="1.000000" fill-rule="nonzero"/>
		<path id="Vector" d="M22.74 29.77L21.6 30.91L20.46 29.77L19.56 30.67L20.7 31.81L19.56 32.95L20.46 33.84L21.6 32.7L22.74 33.84L23.64 32.95L22.5 31.81L23.64 30.67L22.74 29.77Z" fill="#E56C94" fill-opacity="1.000000" fill-rule="nonzero"/>
		<path id="Vector" d="M12.48 29.77L11.34 30.91L10.2 29.77L9.3 30.67L10.44 31.81L9.3 32.95L10.2 33.84L11.34 32.7L12.48 33.84L13.37 32.95L12.23 31.81L13.37 30.67L12.48 29.77Z" fill="#E56C94" fill-opacity="1.000000" fill-rule="nonzero"/>
		<path id="Vector" d="M16.66 24.7L15.52 25.84L14.38 24.7L13.48 25.6L14.62 26.74L13.48 27.88L14.38 28.77L15.52 27.64L16.66 28.77L17.55 27.88L16.41 26.74L17.55 25.6L16.66 24.7Z" fill="#E56C94" fill-opacity="1.000000" fill-rule="nonzero"/>
		<path id="Vector" d="M26.92 24.7L25.78 25.84L24.64 24.7L23.74 25.6L24.88 26.74L23.74 27.88L24.64 28.77L25.78 27.64L26.92 28.77L27.82 27.88L26.68 26.74L27.82 25.6L26.92 24.7Z" fill="#E56C94" fill-opacity="1.000000" fill-rule="nonzero"/>
		<path id="Vector" d="M40.05 24.86C39.51 24.86 38.98 24.89 38.45 24.95L37.24 23.74L38.87 22.11C38.99 21.99 39.06 21.83 39.06 21.66C39.06 21.49 38.99 21.33 38.87 21.21L37.24 19.58L38.87 17.95C38.99 17.84 39.06 17.67 39.06 17.51C39.06 17.34 38.99 17.18 38.87 17.06L37.24 15.43L38.87 13.8C38.99 13.68 39.06 13.52 39.06 13.35C39.06 13.18 38.99 13.02 38.87 12.9L37.24 11.28L38.87 9.65C38.99 9.53 39.06 9.37 39.06 9.2C39.06 9.03 38.99 8.87 38.87 8.75L34.52 4.4C34.4 4.28 34.24 4.21 34.07 4.21C33.9 4.21 33.74 4.28 33.62 4.4L31.99 6.03L30.37 4.4C30.25 4.28 30.08 4.21 29.92 4.21C29.75 4.21 29.59 4.28 29.47 4.4L27.84 6.03L26.21 4.4C26.09 4.28 25.93 4.21 25.76 4.21C25.59 4.21 25.43 4.28 25.32 4.4L23.69 6.03L22.06 4.4C21.94 4.28 21.78 4.21 21.61 4.21C21.44 4.21 21.28 4.28 21.16 4.4L19.53 6.03L17.9 4.4C17.78 4.28 17.62 4.21 17.45 4.21C17.29 4.21 17.13 4.28 17.01 4.4L15.38 6.03L13.75 4.4C13.63 4.28 13.47 4.21 13.3 4.21C13.13 4.21 12.97 4.28 12.85 4.4L11.22 6.03L9.59 4.4C9.48 4.28 9.31 4.21 9.15 4.21C8.98 4.21 8.82 4.28 8.7 4.4L4.35 8.75C4.23 8.87 4.16 9.03 4.16 9.2C4.16 9.37 4.23 9.53 4.35 9.65L5.97 11.27L4.35 12.9C4.23 13.02 4.16 13.18 4.16 13.35C4.16 13.52 4.23 13.68 4.35 13.8L5.97 15.43L4.35 17.06C4.23 17.18 4.16 17.34 4.16 17.51C4.16 17.67 4.23 17.84 4.35 17.95L5.97 19.58L4.35 21.21C4.23 21.33 4.16 21.49 4.16 21.66C4.16 21.83 4.23 21.99 4.35 22.11L5.97 23.74L4.35 25.37C4.23 25.49 4.16 25.65 4.16 25.81C4.16 25.98 4.23 26.14 4.35 26.26L5.97 27.89L4.35 29.52C4.23 29.64 4.16 29.8 4.16 29.97C4.16 30.14 4.23 30.3 4.35 30.42L5.97 32.05L4.35 33.67C4.1 33.92 4.1 34.32 4.35 34.57L8.7 38.92C8.95 39.17 9.35 39.17 9.59 38.92L11.22 37.29L12.85 38.92C13.1 39.17 13.5 39.17 13.75 38.92L15.38 37.29L17.01 38.92C17.25 39.17 17.66 39.17 17.9 38.92L19.53 37.29L21.16 38.92C21.41 39.17 21.81 39.17 22.06 38.92L23.69 37.29L24.98 38.59C24.94 39.05 24.92 39.52 24.92 39.99C24.92 48.34 31.71 55.13 40.05 55.13C48.39 55.13 55.18 48.34 55.18 39.99C55.18 31.65 48.39 24.86 40.05 24.86ZM24.13 35.95C24.01 35.83 23.85 35.76 23.69 35.76C23.52 35.76 23.36 35.83 23.24 35.95L21.61 37.58L19.98 35.95C19.73 35.7 19.33 35.7 19.08 35.95L17.45 37.58L15.83 35.95C15.58 35.7 15.18 35.7 14.93 35.95L13.3 37.58L11.67 35.95C11.42 35.7 11.02 35.7 10.78 35.95L9.15 37.58L5.69 34.12L7.32 32.49C7.44 32.37 7.5 32.21 7.5 32.05C7.5 31.88 7.44 31.72 7.32 31.6L5.69 29.97L7.32 28.34C7.44 28.22 7.5 28.06 7.5 27.89C7.5 27.72 7.44 27.56 7.32 27.44L5.69 25.81L7.32 24.19C7.44 24.07 7.5 23.91 7.5 23.74C7.5 23.57 7.44 23.41 7.32 23.29L5.69 21.66L7.32 20.03C7.44 19.91 7.5 19.75 7.5 19.58C7.5 19.42 7.44 19.25 7.32 19.14L5.69 17.51L7.32 15.88C7.44 15.76 7.5 15.6 7.5 15.43C7.5 15.26 7.44 15.1 7.32 14.98L5.69 13.35L7.32 11.72C7.44 11.6 7.5 11.44 7.5 11.28C7.5 11.11 7.44 10.95 7.32 10.83L5.69 9.2L9.15 5.74L10.78 7.37C10.89 7.49 11.06 7.56 11.22 7.56C11.39 7.56 11.55 7.49 11.67 7.37L13.3 5.74L14.93 7.37C15.05 7.49 15.21 7.56 15.38 7.56C15.55 7.56 15.71 7.49 15.83 7.37L17.45 5.74L19.08 7.37C19.2 7.49 19.36 7.56 19.53 7.56C19.7 7.56 19.86 7.49 19.98 7.37L21.61 5.74L23.24 7.37C23.36 7.49 23.52 7.56 23.69 7.56C23.85 7.56 24.02 7.49 24.13 7.37L25.76 5.74L27.39 7.37C27.51 7.49 27.67 7.56 27.84 7.56C28.01 7.56 28.17 7.49 28.29 7.37L29.92 5.74L31.55 7.37C31.66 7.49 31.83 7.56 31.99 7.56C32.16 7.56 32.32 7.49 32.44 7.37L34.07 5.74L37.53 9.2L35.9 10.83C35.78 10.95 35.71 11.11 35.71 11.28C35.71 11.44 35.78 11.6 35.9 11.72L37.53 13.35L35.9 14.98C35.78 15.1 35.71 15.26 35.71 15.43C35.71 15.6 35.78 15.76 35.9 15.88L37.53 17.51L35.9 19.14C35.78 19.25 35.71 19.42 35.71 19.58C35.71 19.75 35.78 19.91 35.9 20.03L37.53 21.66L35.9 23.29C35.78 23.41 35.71 23.57 35.71 23.74C35.71 23.91 35.78 24.07 35.9 24.19L36.91 25.19C31.02 26.44 26.39 31.12 25.21 37.03L24.13 35.95ZM40.05 53.86C32.41 53.86 26.19 47.64 26.19 39.99C26.19 32.35 32.41 26.13 40.05 26.13C47.7 26.13 53.91 32.35 53.91 39.99C53.91 47.64 47.7 53.86 40.05 53.86Z" fill="#E56C94" fill-opacity="1.000000" fill-rule="nonzero"/>
		<path id="Vector" d="M51.13 40.66L48.72 36.15C48.42 35.72 48 35.81 47.85 35.89L43.61 38.19C43.31 38.36 43.19 38.74 43.36 39.05C43.36 39.05 44.51 41.22 45.48 43.03L44.04 43.03L44.06 42.44C44.07 42.12 43.84 41.84 43.52 41.79L43.18 41.74C42.92 41.7 42.66 41.82 42.53 42.05L40.34 45.79C40.23 45.99 40.23 46.23 40.34 46.43L42.55 50.18C42.66 50.37 42.9 50.53 43.19 50.48L43.54 50.43C43.84 50.38 44.07 50.12 44.07 49.81L44.08 49.15L45.22 49.14C45.22 49.14 45.22 49.14 45.23 49.14C45.3 49.14 46.95 49.07 47.76 47.87C47.87 47.71 51.06 42.05 51.13 41.82C51.24 41.44 51.27 40.97 51.13 40.66ZM46.71 47.16C46.28 47.8 45.26 47.87 45.19 47.87L43.45 47.89C43.2 47.89 42.98 48.04 42.88 48.25L41.62 46.11L42.85 44.01C42.98 44.21 43.21 44.3 43.38 44.3L46.16 44.3C46.39 44.72 46.57 45.07 46.68 45.27C46.98 46.1 47 46.73 46.71 47.16ZM49.92 41.43C49.78 41.73 48.85 43.37 47.94 44.96C47.9 44.88 47.87 44.8 47.82 44.72C47.4 43.93 45.51 40.39 44.77 39.01L47.9 37.31L49.94 41.13C49.95 41.23 49.94 41.35 49.92 41.43Z" fill="#E56C94" fill-opacity="1.000000" fill-rule="nonzero"/>
		<path id="Vector" d="M39.04 43.03C39.04 43.03 36.59 43.02 34.53 43.02L35.21 41.75L35.72 42.04C36 42.2 36.36 42.13 36.55 41.88L36.76 41.6C36.91 41.39 36.93 41.11 36.79 40.89L34.52 37.19C34.4 36.99 34.19 36.88 33.96 36.89L29.61 37.06C29.35 37.07 29.12 37.24 29.04 37.49L28.92 37.82C28.82 38.11 28.95 38.43 29.22 38.58L29.8 38.9L29.27 39.9C29.27 39.91 29.27 39.91 29.26 39.92C29.23 39.98 28.51 41.47 29.19 42.75C29.28 42.92 32.76 48.4 32.94 48.57C33.15 48.84 33.59 49.11 33.96 49.12C33.96 49.12 39.07 49.12 39.07 49.12C39.62 49.05 39.71 48.65 39.71 48.48L39.68 43.66C39.67 43.31 39.39 43.03 39.04 43.03ZM30.31 42.16C29.95 41.48 30.37 40.54 30.4 40.48L31.21 38.93C31.32 38.71 31.3 38.46 31.16 38.27L33.64 38.17L34.91 40.24C34.67 40.25 34.49 40.42 34.41 40.57L33.09 43.02C32.61 43.02 32.22 43.02 31.99 43.02C31.12 42.9 30.55 42.61 30.31 42.16ZM34.1 47.85C34.01 47.81 33.91 47.74 33.85 47.69C33.65 47.43 32.64 45.83 31.67 44.28C31.76 44.28 31.84 44.29 31.94 44.29C32.83 44.29 36.85 44.29 38.41 44.29L38.43 47.85L34.1 47.85Z" fill="#E56C94" fill-opacity="1.000000" fill-rule="nonzero"/>
		<path id="Vector" d="M44.93 37C44.94 37 44.94 37 44.94 37C45.17 37 45.38 36.88 45.49 36.69L47.68 32.93C47.81 32.71 47.79 32.43 47.63 32.22L47.42 31.95C47.23 31.7 46.89 31.63 46.62 31.78L46.04 32.1L45.47 31.12C45.47 31.11 45.47 31.11 45.47 31.1C45.43 31.04 44.57 29.63 43.12 29.51C42.92 29.5 36.43 29.48 36.2 29.54C35.93 29.56 35.41 29.79 35.18 30.1L32.43 34.41C32.34 34.55 32.19 34.96 32.63 35.29L36.71 37.86C37.13 38.11 37.46 37.86 37.58 37.67C37.58 37.67 38.9 35.6 40.01 33.87L40.72 35.13L40.19 35.4C39.91 35.55 39.78 35.89 39.89 36.19L40.01 36.51C40.11 36.76 40.34 36.92 40.6 36.92L44.93 37ZM36.85 36.45L33.84 34.56L36.17 30.91C36.26 30.86 36.37 30.8 36.45 30.78C36.77 30.76 38.67 30.76 40.5 30.78C40.44 30.85 37.7 35.14 36.85 36.45ZM41.38 31.72C41.96 31.06 42.51 30.74 43.01 30.78C43.78 30.84 44.34 31.7 44.38 31.75L45.25 33.27C45.37 33.48 45.6 33.6 45.83 33.59L44.58 35.73L42.16 35.68C42.26 35.4 42.23 35.23 42.15 35.08L40.79 32.66C41.05 32.25 41.26 31.92 41.38 31.72Z" fill="#E56C94" fill-opacity="1.000000" fill-rule="nonzero"/>
	</g>
</svg>
