<svg width="29.000000" height="29.000000" viewBox="0 0 29 29" fill="none" xmlns="http://www.w3.org/2000/svg" xmlns:xlink="http://www.w3.org/1999/xlink">
	
	<defs/>
	<path id="Vector" d="M14.78 7C9.02 7 5.96 10.68 5.96 14.71C5.96 16.57 7.01 18.9 8.67 19.63C9.15 19.85 9.09 19.59 9.5 18.02C9.53 17.89 9.51 17.78 9.41 17.66C7.02 14.9 8.94 9.23 14.44 9.23C22.4 9.23 20.91 20.23 15.82 20.23C14.51 20.23 13.54 19.21 13.85 17.93C14.22 16.42 14.95 14.79 14.95 13.69C14.95 10.94 10.85 11.35 10.85 15C10.85 16.12 11.25 16.89 11.25 16.89C11.25 16.89 9.93 22.22 9.68 23.22C9.27 24.9 9.74 27.63 9.78 27.87C9.81 28 9.95 28.04 10.03 27.93C10.16 27.76 11.76 25.49 12.21 23.84C12.37 23.24 13.04 20.81 13.04 20.81C13.48 21.6 14.75 22.27 16.1 22.27C20.12 22.27 23.03 18.73 23.03 14.35C23.01 10.14 19.41 7 14.78 7Z" fill="#000000" fill-opacity="1.000000" fill-rule="nonzero"/>
	<circle id="Ellipse 1" cx="14.500000" cy="14.500000" r="13.500000" stroke="#000000" stroke-opacity="1.000000" stroke-width="2.000000"/>
</svg>
