<svg width="18.000000" height="18.000000" viewBox="0 0 18 18" fill="none" xmlns="http://www.w3.org/2000/svg" xmlns:xlink="http://www.w3.org/1999/xlink">
	
	<defs/>
	<path id="Search icon" d="M10.26 0C5.99 0 2.53 3.45 2.53 7.73C2.53 9.56 3.16 11.29 4.32 12.68L0 17L0.99 18L5.31 13.67C6.7 14.83 8.43 15.46 10.26 15.46C14.54 15.46 18 12 18 7.73C18 3.45 14.54 0 10.26 0ZM10.26 14.05C6.77 14.05 3.94 11.22 3.94 7.73C3.94 4.24 6.77 1.4 10.26 1.4C13.75 1.4 16.59 4.24 16.59 7.73C16.59 11.22 13.75 14.05 10.26 14.05Z" fill="#000000" fill-opacity="1.000000" fill-rule="nonzero"/>
</svg>
