<svg width="27.000000" height="27.000000" viewBox="0 0 27 27" fill="none" xmlns="http://www.w3.org/2000/svg" xmlns:xlink="http://www.w3.org/1999/xlink">
	
	<defs>
		<clipPath id="clip126_64">
			<rect id="fi_3046120" rx="0.000000" width="26.000000" height="26.000000" transform="translate(0.500000 0.500000)" fill="white" fill-opacity="0"/>
		</clipPath>
	</defs>
	<rect id="fi_3046120" rx="0.000000" width="26.000000" height="26.000000" transform="translate(0.500000 0.500000)" fill="#FFFFFF" fill-opacity="0"/>
	<g clip-path="url(#clip126_64)">
		<path id="Vector" d="M25.32 6.77C23.78 6.77 22.36 6.26 21.22 5.39C19.91 4.41 18.97 2.96 18.64 1.29C18.56 0.88 18.51 0.45 18.51 0.02L14.11 0.02L14.11 12.04L14.1 18.63C14.1 20.39 12.95 21.89 11.36 22.41C10.9 22.56 10.4 22.64 9.88 22.61C9.22 22.57 8.6 22.37 8.06 22.05C6.91 21.36 6.14 20.12 6.11 18.69C6.08 16.46 7.88 14.65 10.11 14.65C10.55 14.65 10.97 14.72 11.36 14.85L11.36 11.56L11.36 10.38C10.95 10.32 10.52 10.29 10.09 10.29C7.66 10.29 5.38 11.3 3.75 13.12C2.52 14.5 1.78 16.26 1.67 18.11C1.52 20.53 2.41 22.83 4.12 24.53C4.38 24.78 4.64 25.01 4.92 25.22C6.39 26.36 8.2 26.97 10.09 26.97C10.52 26.97 10.95 26.94 11.36 26.88C13.14 26.62 14.77 25.81 16.06 24.53C17.65 22.96 18.53 20.88 18.53 18.67L18.51 8.83C19.27 9.41 20.1 9.89 20.98 10.27C22.37 10.85 23.83 11.15 25.34 11.15L25.34 7.95L25.34 6.76C25.34 6.77 25.33 6.77 25.32 6.77Z" fill="#000000" fill-opacity="1.000000" fill-rule="nonzero"/>
	</g>
</svg>
