<svg width="18.000000" height="18.000000" viewBox="0 0 18 18" fill="none" xmlns="http://www.w3.org/2000/svg" xmlns:xlink="http://www.w3.org/1999/xlink">
	
	<defs/>
	<path id="User icon" d="M15.36 11.63C14.38 10.65 13.21 9.93 11.94 9.49C13.3 8.55 14.2 6.98 14.2 5.2C14.2 2.33 11.86 0 9 0C6.13 0 3.79 2.33 3.79 5.2C3.79 6.98 4.69 8.55 6.05 9.49C4.78 9.93 3.61 10.65 2.63 11.63C0.93 13.33 0 15.59 0 18L1.4 18C1.4 13.81 4.81 10.4 9 10.4C13.18 10.4 16.59 13.81 16.59 18L18 18C18 15.59 17.06 13.33 15.36 11.63ZM9 9C6.9 9 5.2 7.29 5.2 5.2C5.2 3.1 6.9 1.4 9 1.4C11.09 1.4 12.79 3.1 12.79 5.2C12.79 7.29 11.09 9 9 9Z" fill="#000000" fill-opacity="1.000000" fill-rule="nonzero"/>
</svg>
