<?xml version="1.0" encoding="utf-8"?>
<!-- Generator: Adobe Illustrator 22.1.0, SVG Export Plug-In . SVG Version: 6.00 Build 0)  -->
<svg version="1.1" id="Слой_1" xmlns="http://www.w3.org/2000/svg" xmlns:xlink="http://www.w3.org/1999/xlink" x="0px" y="0px"
	 width="319px" height="308px" viewBox="0 0 319 308" style="enable-background:new 0 0 319 308;" xml:space="preserve">
<style type="text/css">
	.st0{fill:none;stroke:#CC9E0E;stroke-width:9;}
	.st1{filter:url(#Adobe_OpacityMaskFilter);}
	.st2{fill:#FFFFFF;}
	.st3{mask:url(#mask-2_1_);fill:none;stroke:#CC9E0E;stroke-width:9;}
</style>
<title>Energy</title>
<desc>Created with Sketch.</desc>
<g id="Page-1">
	<g id="ENERGY-_x26_-LOGISTICS" transform="translate(-1064.000000, -340.000000)">
		<g id="Energy" transform="translate(1064.000000, 340.000000)">
			<path id="Stroke-1" class="st0" d="M160,92l-48.7,67.8c-28.3,39.4,0,94.2,48.7,94.2c48.7,0,77.1-54.7,48.7-94.2L160,92z"/>
			<path id="Stroke-3" class="st0" d="M175.2,183c6.4,8.8,3.2,17.2,1.5,20.4s-6.8,10.6-17.8,10.6s-16.2-7.4-17.8-10.6"/>
			<g id="Group-7" transform="translate(0.000000, 298.000000)">
				<g id="Clip-6">
				</g>
				<defs>
					<filter id="Adobe_OpacityMaskFilter" filterUnits="userSpaceOnUse" x="0" y="1" width="319" height="9">
						<feColorMatrix  type="matrix" values="1 0 0 0 0  0 1 0 0 0  0 0 1 0 0  0 0 0 1 0"/>
					</filter>
				</defs>
				<mask maskUnits="userSpaceOnUse" x="0" y="1" width="319" height="9" id="mask-2_1_">
					<g class="st1">
						<polygon id="path-1_1_" class="st2" points="0,0.9 319,0.9 319,10.1 0,10.1 						"/>
					</g>
				</mask>
				<line id="Stroke-5" class="st3" x1="0" y1="5.5" x2="319" y2="5.5"/>
			</g>
			<path id="Stroke-8" class="st0" d="M248,4v33.9c0,89.9,13.5,179.2,40,265.1l0,0"/>
			<path id="Stroke-10" class="st0" d="M71,4v33.9c0,89.9-13.5,179.2-40,265.1v0"/>
			<line id="Stroke-12" class="st0" x1="220" y1="5" x2="279" y2="5"/>
			<line id="Stroke-14" class="st0" x1="40" y1="5" x2="160" y2="5"/>
			<line id="Stroke-16" class="st0" x1="100" y1="45" x2="220" y2="45"/>
			<line id="Stroke-18" class="st0" x1="180" y1="5" x2="199" y2="5"/>
		</g>
	</g>
</g>
</svg>
