<svg width="292" height="311" xmlns="http://www.w3.org/2000/svg"><g id="Page-1" stroke="none" stroke-width="1" fill="none" fill-rule="evenodd"><g id="HEALTHCARE-&amp;-PHARMACEUTICALS" transform="translate(-1077 -341)" stroke="#CC9E0E" stroke-width="9"><g id="healtcare" transform="translate(1082 346)"><path d="M221.636 142H80.364C58.063 142 40 124.09 40 102h222c0 22.09-18.073 40-40.364 40z" id="Stroke-1"/><path id="Stroke-3" d="M151.5 142v162"/><path id="Stroke-5" d="M91 301.5h120"/><path d="M100.714 50.337c0-29.435-25.279-52.96-55.302-50.101C19.226 2.732 0 26.217 0 52.5v48.168c0 44.474 36.066 80.533 80.571 80.533h181.286c11.119 0 20.143 9.02 20.143 20.133s-9.024 20.133-20.143 20.133H80.571c-11.129 0-20.142 9.02-20.142 20.133s9.013 20.133 20.142 20.133h141c11.12 0 20.143 9.02 20.143 20.133V302" id="Stroke-7"/><path id="Stroke-9" d="M241.5 71V51"/><path id="Stroke-11" d="M241.5 31V11"/><path id="Stroke-13" d="M201.5 71V51"/></g></g></g></svg>