<svg width="20" height="23" xmlns="http://www.w3.org/2000/svg"><g id="Page-1" stroke="none" stroke-width="1" fill="none" fill-rule="evenodd" stroke-linecap="round" stroke-linejoin="round"><g id="Home-" transform="translate(-67 -980)" stroke="#FFF" stroke-width="1.5"><g id="Earth,-Pin,-Location,-Direction" transform="translate(68 981)"><path d="M12 9s3.502-2.875 3.502-5.5C15.502 1.567 13.934 0 12 0a3.501 3.501 0 00-3.502 3.5C8.498 6.125 12 9 12 9z" id="Path"/><path d="M12.001 3.35a.25.25 0 11-.002.5.25.25 0 01.002-.5m-3.47-.325C3.78 3.271 0 7.188 0 12a9 9 0 009 9 9 9 0 009-9 8.948 8.948 0 00-2.977-6.671" id="Path"/><path d="M5 20.068v-.071c0-2 4-1.764 4-4 0-2-3-2-3-5 0-2.828-2-3-5-3H.939M14.97 18.72a2.95 2.95 0 01-.444-.203 3.012 3.012 0 013.041-5.199c.106.062.195.14.291.212" id="Path"/></g></g></g></svg>