<?xml version="1.0" encoding="utf-8"?>
<!-- Generator: Adobe Illustrator 22.1.0, SVG Export Plug-In . SVG Version: 6.00 Build 0)  -->
<svg version="1.1" id="Слой_1" xmlns="http://www.w3.org/2000/svg" xmlns:xlink="http://www.w3.org/1999/xlink" x="0px" y="0px"
	 width="546px" height="485px" viewBox="0 0 546 485" style="enable-background:new 0 0 546 485;" xml:space="preserve">
<style type="text/css">
	.st0{opacity:0.1;}
	.st1{fill:none;stroke:#000000;stroke-miterlimit:10;}
	.st2{filter:url(#Adobe_OpacityMaskFilter);}
	.st3{fill:#FFFFFF;}
	.st4{mask:url(#mask-2_2_);}
	.st5{fill:#CB9D0E;}
	.st6{filter:url(#Adobe_OpacityMaskFilter_1_);}
	.st7{mask:url(#mask-4_2_);}
</style>
<g id="Map" class="st0">
	<g id="Stroke-1">
		<path class="st1" d="M146.3,331l-8.2,0l-0.3-0.1H101l-1-1l0-0.8l0.5-1.8l-0.8,1.7l-0.5,1.2l-0.9,0.6H73.5l-3.9,0.1h-3.3l-6-0.1H48
			l-5.7,0.1l-0.9-0.1h-4.1l-0.8,0.1h-3.8l-4.5-0.1H9.4l-1-1v-0.8l-0.2-3.9l-0.5-21.3l-0.2-7.3l-0.1-5.2l-0.3-7.3l0-3.5l-0.3-7.3
			l-0.5-18.5l-0.1-2.5l-0.1-4.7l-0.1-1.2l-0.3-8.8l0-2.4l-0.1-2.4l-0.1-1.6l0-2.1l-0.1-2.5l-0.4-11.2l-0.2-4.6l-1.4-3.4L3,206.5
			l-0.1-0.3v-1.1l-1-3.7l0.1-1.1l-0.2-0.7l-0.1-0.4l-1.2-2.6L0.1,196L0,195.3l0.1-0.5l0.2-0.8l0.6-1.3l0.7-1.1l0.7-1l0.6-1.3
			l0.6-1.9l0.3-2.2l-0.1-0.5l-0.4-0.6l-1.1-2.8l-0.5-2.3l-0.1-3.5l0.1-0.4l0.2-0.5l0.4-0.4l0.9-0.5l0.8-1l0.3-0.9l0.3-0.5l1-0.9
			l0.3-0.1l0.4,0.8h1.1v0.1l0.2,0.8l1.4,0.4h0.8l1-0.2l1.1-0.4l1.7-0.6l2.6-0.7l1.6,0l2.1,0.5l3.8,1.3l3.7,0.5l3.5,0.8l2.4,0.6
			l2.3,0.3l0.1,0l0.6,0l0.9,0.2l0.2,0.1l0.4,0.5l0.3,0.8l0.1,0.4l0.5,0.7l0.3,0l1.4,0.5l0.9,0.2l1.5-0.5l0.5-0.4l1.3,0.1l0.4,0.5
			l0.4,0.8l0.1,0.3l0.1,0.6l4.3,0.5l1.8-0.3H52l0.4,0.1l1.9,0.8l2.3,0.8l1.4,0.6l0.6,0.7l0,0.1l0.6,0.5l2,0.8h0.5l0.5-0.1h0.3
			l0.5-0.2l0.3-0.1l3-1.3l0.4-0.3l1.1-0.9l1.2-0.8l0.8-0.7l0.7-0.5l2.4-2.2l0.8-0.7l1.5,0.1l0.6,0.7l0.4,0.6l0.3,0l0.2-0.1v-0.9
			l0.1-0.3l0.6-1.9l0.1,0l-0.1-0.2l1.2-1.3l0.5,0.1l0.6,0.4l0.1,0.2l0.2,0.1l0.3,0.1l1.1-0.3l1.2-0.4l1.7-0.8l2-0.5l0.1,0.3l0-0.3
			l0.5-0.3l0.3-0.1l1.1-0.1l0.4,0l1.5,0.3l0.5,0.2l1.6,0.6l0.3,0.2l2.3,1.2l0.3,0.1h0.2l0.9-0.2l1-0.3l1.8-1l1,0.1l0.9,0.6l0.4,0.6
			l0.1,0.3l1,1.2l0.3,0.2l0.6,0.2l1.2,1l0.7,0l0.7,0.1l0.5,0.3l1,1l1.4,1.3l0.2,0.3l0.6,0.5l0.3,0.1l1.1,0.2l0.3,0.1l0.5-0.1
			l4.4-2.4l1.4,0.5l0.5,1.3l0.2-0.1l0.8-0.4l1.3-0.7l0.9-0.1l0.9,0.4l0.2,0.1l1.1,0.2l0.6-0.1h0.3l3.3-0.9l0.6-0.4l1.5-0.7l1.5-1.2
			l1.5,0.4l1.1,2.6l1.9,5.1l1.3,2.7l1.3,3.4l0,0.6l-0.1,0.5l0.6,0.4l0.4,0.5l1.7,4.6l0.5,1.7l1.6,4.1l0.4,1.6l0.1,0.7l-0.1,0.3
			l0.2,0.8l0.3,0.6l-0.7,1.1l0,0l0,0.1l0.1,0.1l-0.2,0.1l-1,2l-0.2,0.6l-0.7,3.9l-0.5,3.2l0.1,1.1l0.1,0.3l0,0.7l-0.3,0.7l-0.3,0.5
			l-0.7,1.5l-0.9,2.1l-0.4,1.7l0.1,1l0.1,0.2l0.3,0.4l0.2,0.6v2.9l-0.1,0.3l-0.1,0.4l-0.2,0.3l-1.4,1.7l-0.4,0.3l-0.1,0.3l-0.1,0.3
			v0.9l-1.8,0.6l-0.4-0.5l-0.2-0.2l-0.5-0.1l-0.4-0.1l-5-3.3l-0.5-0.6l-0.9-1l-1.3-2l-0.3-0.7l-0.4-0.6l-0.6-0.3l-1.7-1.3l-2-2.1
			l-0.7-1.1l-0.9-2L119,217l-0.2-2l0-0.1l-2.7-2.8l-0.4-0.2l-0.5-0.4l-0.2-0.3l-2.3-3.8l-0.4-1l-0.5-1.9l-0.1-1.1l0.1-0.5l-0.5-0.7
			l-0.6-0.6l-0.3-0.5l-0.2,0.6l-0.2,0.3l-0.4,0.5l-0.5,1l-0.1,1l0.2,0.4l0.3,0.3l0.3,0.2l0.3,0.2l2,2l0.5,0.6l0.2,0.3l0.5,1.7
			l0.5,1.2l0.1,0.8l0.1,0.4v0.3l-0.2,0.6l-0.2,0.3l-0.1,0.7l0.8,1.6l0.7,0.7l0.3,0.1l0.4,0.2l0.3,0.2l0.2,0.3l0.5,1.4l0.3,1.1
			l0.9,1.2l1,0.8l0.2,0.3l0.3,0.5l0.8,1.5l0.8,1.2l0.7,0.9l0.7,0.7l1.6,1.7l0.8,0.6l0.4,0.2l0.7,0.4l0.4,0.3l1.2,2l0.4,1l0.1,0.4
			v0.5l-1.4,0.7l0.2,1.3l0.8,0.9l1.3,1.6l0.6,1.2l0.4,1.3l0.2,0.3l1.3,0.6l0.5,0.6l0.3,0.9l0,0.5l-0.1,0.4l0.1,0.4l1.6,2.9l0.1,0.4
			l0.2,2.1l-0.1,2l0.1,0l0.5,0.2l0.4,0.5l1.1,1.9l1,2.3l0.6,1.1l0.6,1.6l1.6,2.8l1.8,2.9l0.8,1.1l0.3,0.2l0.4,0.4l0.2,0.4l1.9,3.9
			l1.5,3.4l1.2,2.3l1.4,2.2l0.7,1.4l1.6,3.6l0.9,3.2l1.1,1.4l0.8,0.6l0.6,0.6l0.7,0.6l0.2,0.3l1,1.8l0.3,0.3l3.4,2.3l0.5,0.2
			l0.4,0.4l0.2,0.4l0.5,0.7l-0.9,1.6l-2.9-0.4l-0.4-0.2l-0.2-0.2v1.2l0.3,0.8l0.2,0.5l0.1,0.5l0,0.8l-0.1,1.3l-0.1,1.4l0,0.1
			l0.7,1.1l0.3,0.6l0.1,0.4v0.9l0.2,0.8l0.2,0.4l0.2,0.5l0.7,1.2l0.4,1.5v0.4l0.1,0.3l1,1.5l1.4,1.6l0.2,0.1l0.9,0.4l1,0.3l0.5,0.1
			l1.5,0.5l1.2,0.5l0.4,0.3l0.6,0.8l1.6,2.3l0.3,0.7l0.8,1.2l0.6,0.1l0.4,0.2l3.1,2.3l1.7,1.4l0.5,0.4l0.3,0.5l0.1,0.6v0.4l-0.3,0.7
			l-0.8,0.5H147L146.3,331z M10.4,328.9h17.9l4.5,0.1h3.7l0.8-0.1l4.3,0l0.8,0.1h1.2l4.4-0.1h12.4l6,0.1h3.3l3.9-0.1h24.2l0.3-0.8
			l0.3-0.5l0.7-1.6l0.4-0.4l0.6-0.4l0.4-0.1l0.6,0l0.5,0.1l0.5,0.4l0.4,0.5l0.2,0.4l0.1,0.5l0,0.5l-0.4,1.4H138l0.5,0.1h7.8l0.7-0.1
			h29.4l-1.1-0.9l-2.8-2.1l-0.9-0.2l-0.5-0.4l-0.5-0.6l-0.7-1.1l-0.3-0.7l-1.9-2.6l-0.9-0.4l-3.1-0.9l-1.1-0.6l-0.6-0.4l-1.5-1.8
			l-1.2-1.7l-0.2-0.4l-0.1-0.8v-0.4l-0.4-1.2l-0.5-0.8l-0.2-0.5l-0.2-0.3l-0.1-0.3l-0.3-1.4v-0.8l-0.1-0.4l-0.7-1.2l-0.1-0.4l0-0.4
			l0.3-3.4l-0.2-0.4l-0.4-1l-0.1-0.3V298l0.1-0.4l0.2-0.5l0.4-0.5l0.6-0.3l0.5,0.1l-1.7-1.2l-0.7-0.8l-0.9-1.7l-0.6-0.5l-0.7-0.6
			l-0.8-0.6l-0.2-0.3l-0.2-0.2l-1.2-1.5l-0.2-0.6v-0.2l-0.8-2.7l-1.5-3.4l-0.7-1.3l-1.4-2.1l-0.5-0.9l-0.8-1.5l-1.5-3.4l-0.7-1.5
			l-1.2-2.5l-0.2-0.1l-0.3-0.2l-0.3-0.4l-0.8-1.1l-1.8-3l-1.7-3.1l-0.3-0.8l-0.3-0.8l-0.6-1.1l-1-2.3l-0.9-1.6l-0.3-0.1l-0.6-0.4
			l-0.2-0.3l-0.1-0.4l-0.1-0.7l0.1-2.1l-0.2-1.6l-1.7-3.2l-0.1-0.7l0-0.4l0.1-0.4l-0.1-0.2l-1.1-0.5l-0.3-0.3l-0.5-0.7l-0.1-0.3
			l-0.4-1.3l-0.4-0.8l-2.1-2.4l-0.2-0.5l-0.4-3l0.3-0.8l0.3-0.3l0.3,0l-0.6-0.9l-1-0.6l-1.1-0.9l-2.5-2.6l-0.7-1l-0.8-1.3l-1.1-2
			l-1-0.9l-1.1-1.4l-0.2-0.3l-0.7-2.2l-0.2-0.1l-0.4-0.2l-0.3-0.3l-1-1.1l-1-2l-0.1-0.5l0.1-1.3l0.3-0.6l0-0.1l-0.1-0.7l-0.4-1
			l-0.5-1.6l-0.3-0.4l-1.7-1.8l-0.6-0.4l-0.5-0.5l-0.2-0.3l-0.4-0.9l-0.1-0.5l0.2-1.4l0.1-0.3l0.7-1.5l0.4-0.5l0.2-0.6l-0.2-0.9
			l0.3-0.7l0.6-0.6l0.5-0.2l0-0.1l0.4,0l0.2-0.1l0,0.1l1.4,0l0.2,1v0.4l0.4,1.1l0.5,0.5l0.9,1.1l0.2,0.7l-0.1,0.8l0.1,0.7l0.4,1.6
			l0.3,0.8l2.1,3.5l0.2,0.2l0.2,0.1l0.4,0.2l3.3,3.4l0.2,1l-0.1,0.3l0.1,1.4l0.6,3.1l0.7,1.6l0.5,0.7l0.2,0.2l1.6,1.7l0.3,0.2
			l1.1,0.8l0.5,0.2l0.4,0.4l0.7,1l0.3,0.7l1.2,1.8l1.3,1.4l0.3,0.2l4.3,2.8l0.6,0.1l0,0l0.3-0.6l0.4-0.4l0.3-0.2l1.2-1.4v-2.4
			l-0.3-0.4l-0.3-0.5l-0.1-0.4l-0.1-1.4l0-0.3l0.6-2l1.1-2.8l0.9-1.8l-0.1-0.3l-0.1-1.4l0-0.2l0.8-4.8l0.5-2.7l0.3-0.9l1.1-2.3
			l0.2-0.2l0-0.1l-0.3-1.1l0.1-0.6l0-0.1l-0.4-1.5l-1.6-4l-0.5-1.8l-1.6-4.2l-0.7-0.5l-0.4-0.6l-0.1-0.5l0-0.5l0.1-0.5l-1.2-3
			l-1.3-2.7l-2.5-6.5l-0.7,0.5l-2.4,1.2l-3.8,1.1h-0.4l-0.6,0.1l-0.4,0l-1.4-0.2l-0.4-0.2l-0.3-0.2l-1,0.5l-0.8,0.4l-0.6,0.4
			l-0.4,0.2l-0.9,0.1l-1.1-1v-0.6l-0.1-0.2l-0.1,0l-3.6,1.9l-0.9,0.2l-0.6,0l-0.5-0.2l-1.2-0.2l-0.6-0.3l-0.3-0.2l-0.9-0.9l-0.3-0.5
			l-0.8-0.7l0,0v0.5l-0.3,0.7l-0.3,0.4l-0.7,0.3h-0.4l-0.5-0.2l-0.7,0.7l-0.9-0.1l-0.8-0.5l-0.5-0.9l-0.2-0.5l-1.2,0.1l-1.4-1
			l-0.2-0.2l-0.5-0.8l0.1-0.1l-0.6-0.6l0.5-2l-0.9,0.3l-1.3,0.3l-0.7,0l-0.8-0.2l-2.7-1.4l-1.4-0.5l-0.6,1.3l-0.6,0.2l-0.9,0.1
			l-0.5,0.4l-0.9,0.5l-0.5,0.1l-2.1,0.1l-1.9,0.5l-0.5,0l-0.8-0.2l-0.3-0.9l-0.3,0l-0.2,0l-0.8-0.2l-0.4,1.3l0,1.2l-0.1,0.5
			l-0.6,0.7l-1,0.4l-0.5,0.1l-1-0.1l-0.7-0.5l-0.4-0.7l-0.1,0.1l-2.6,2.3l-0.7,0.5l-0.8,0.7l-1.2,0.8l-0.2,0.2l-0.9,0.8l-0.7,0.4
			l-3.9,1.8l-0.5,0.1h-0.4l-0.5,0.1l-1.1,0l-1.2-0.4l-1.5-0.6l-1-0.8l-0.4-0.6l-0.9-0.4l-2.2-0.7l-1.8-0.7h-0.1l-1.7,0.3l-0.3,0
			l-1.1-0.2l-3.7-0.4l-0.6-0.2l-0.3-0.2l-0.3-0.5l-0.2-0.9l0,0l-1.9,0.6l-0.5,0l-1.4-0.3l-1.9-0.6l-0.6-0.4l-0.4-0.4l-0.5-0.8
			l-0.1-0.3l-0.2-0.6l-0.1,0l-0.5,0.1l-1.2-0.1l-1.7-0.3l-2.4-0.7l-3.3-0.7l-4-0.5L19,173l-1.9-0.4H16l-2.1,0.6l-1.5,0.6l-1.3,0.4
			l-1.3,0.3l-1.4,0l-2-0.6l-0.4-0.5l-0.1,0.2l-0.2,0.3l-1.2,1.4l-0.8,0.5l0.1,3.2l0.5,2.2l0.9,2.1l0.3,0.4l0.2,0.3l0.3,0.9l0,0.4
			L5.5,188l-0.7,2.1l-0.8,1.6l-0.7,1l-0.6,0.9l-0.5,1.1l-0.1,0.7l0.2,0.4l1.4,3l0.1,0.4l0.2,0.5l0.1,0.4v0.7L4,201.2l1,3.7v1.1
			l0.4,1l1.3,3l0.1,0.3l0.3,4.8L7.4,229l0,2.1l0.1,1.6l0.1,2.4l0,2.4l0.1,3l0.1,5.7l0.1,1.3v1l0.1,3.6l0.1,2.5l0,1.3l0.5,17.2
			l0.3,7.3l0,3.5l0.3,7.3l0.1,5.2l0.2,7.3l0.5,21.3L10.4,328.9z M103,179l0.1,0.1l0.5-0.3l0.9,0l0-0.1v-0.3l-0.1-0.2l-0.4-0.1
			l0.1-0.8l-0.4,0.6l-1.3-0.6l-0.5-0.3l-0.2-0.2l-0.2,0l-0.8-0.5l-0.4-0.4l-0.2-0.3l-0.4-0.7l-0.4,1.6l0,0l0.4,0.6l0.6,0.4l0,0
			l0.6-0.3l0.4-0.1h0.3l0.8,0.5l0.3,0.4l0.2,0.5V179z"/>
	</g>
	<g id="Stroke-3">
		<path class="st1" d="M133.3,179.9l-1.4-0.4l-0.8-1.7l0.2-1.2l0.8-0.7l2.5-2.7l0.3-0.6l1.5-0.3l1.2,0.9l0.3,1.3l-0.3,0.5l-0.3,0.4
			l-0.8,0.6l-1.1,1l-0.1,0.2l0.1,0.6l-0.2,0.7l-0.6,0.7l-0.3,0.2L133.3,179.9z M133.2,177.5L133.2,177.5L133.2,177.5L133.2,177.5z"
			/>
	</g>
	<g id="Stroke-4">
		<path class="st1" d="M522.2,280l-0.9,0l-2.6-0.8l-0.5-0.4l-0.3-0.4l-2.9-0.7l-4.9-0.8l-0.7-0.8l-0.5-2l-0.7,0.1l0.4,0.3l0.5,1.1
			l-1.2,1.4l-0.5-0.2l-1.9-0.9l-0.4-0.4l-2.4-0.4l-1.7,0.1l-0.4,0l-1.8-0.6h-1.2l-0.8,0.1l-0.7,0.1h-0.3l-0.3-0.1l-0.6-0.3l-0.5-0.4
			l-0.4-0.4l-0.5-0.3l-0.3,0.1l-0.7,0.1l-1.5,0.6l-1.9,0.6H488l-0.3-0.1l-0.7-0.3l-0.5-0.5l-0.9-1.2l-1.3-0.7h-0.4l-0.9,0.1
			l-4.7-0.7l-0.4,0.3l-2.5,0.7h-0.5l-0.4-0.1l-1-0.5l-0.3-0.2l-0.5-0.6l-0.3-0.7l-0.2-0.5l-0.5,0.2l-0.5,0.2l-0.6,0.1l-0.8-0.1
			l-0.8-1v-0.2l-0.1-0.1h-0.4l-0.2,0.1l-0.6,0.1l-1.5-0.1l-3.1-0.5l-0.7-0.6l-0.4-1.1l-0.1-0.5l-0.3-0.8l-0.4-0.7l-0.1,0l-0.5-0.7
			l-0.1,0.1l-0.6-1.2l-0.1-0.5v-0.2l-1.8-5.7l0-0.4l0.1-0.5v-0.7l-0.1-0.7l-0.4-1.8l-0.3-0.5l-0.4-1l-0.1-0.5l-0.3-0.4l-2.4-2.4
			l-0.2-0.4l0-0.7l-0.3-0.4l-2-0.4h-0.3l-1.5-0.1l-2.6-0.6l-2.3,0.6l-0.1,0.1l-1.6,1.3l-0.1,0.3l-0.7,0.5l-1.8,0.4h-0.5l-1.3,0.2
			l-0.3,0.1l-0.2,0.2l-0.1,0.2l0.1,0.4l0.2,0.4l0.1,0.5v0.4l-0.6,0.9l-1.6,0.7l-0.8,0.2l-0.6,0l-0.6-0.1l-0.5-0.3l-0.6-0.1l-0.1,0
			l-0.9,0.9l-4.2,3.4l-0.9,0.5l-0.8,0.1l-1.5-0.4l-3.4-1.4l-1.8-1.3l-0.5-0.6l-0.1,0l-0.1,0.1l-0.7,0.3l-0.8,0l-1.5-0.4l-3.2,0.4
			l-1.5-0.2l-1-0.4l-0.6-0.4l-2.6-1.8l-0.2-0.3l-0.2-0.4l-0.2-0.8l0-0.3l-0.6-0.4l-1.1-0.2l-2-0.8l-2.7-1.2l-2.3-1.4l-0.6-0.6
			l-0.8-0.5l-1.2-0.6l-0.8-0.3l-0.4-0.3l-0.5-0.6l0.2-1.5l0.2-0.2l-1.6-1.9l-0.7-0.3l-1-0.1l-2.3-0.8l-0.3-0.2l-0.2-0.1l-0.4-0.2
			l-0.5-0.5l-0.3-0.5l-1-0.7l-0.5-0.1l-2.2-0.2h-0.5l-0.4,0.2l-0.5,0.1l-1.7-0.2l-0.4-0.1l-0.3-0.1l-2.4-1.7l-1.8-2l-1.1-2l-0.6-1.9
			l-1.4-2l-0.9-1.4l-0.1-0.3l-0.4-1.9l-0.2-1.5l-0.2-0.5l-0.4-0.6l-1.6-0.4l-0.4-0.2l-0.5-0.5l-0.9-1.2l-0.2-0.6v-0.8l0.2-0.5
			l0.2-0.4l1.1-0.2l-0.2-0.2l-0.5-0.3h-0.9l-0.1,0.1l-1,0l-0.6-0.4l-0.4-0.5l-0.3-0.8l0-0.6l0.2-0.9l-0.2-2.6l-0.4-0.7l-2.3-2.1
			h-0.1l-0.8-0.3l-0.2-0.2l-2.5-3.3l-0.5-0.3l-1.2-1.2l-0.3-0.7v-1.1l-0.2-0.6l-0.3-0.7l-0.3-0.4l-0.2-0.4l-0.3-0.2l-0.7,0.1
			l-0.4,0.2l-0.2,0.1l-0.3,0.2l-1.4,1.3L348,199l-0.4,0.1l-1.1-0.3l-0.9-1l-0.3-0.7v-0.4l-0.1-0.3l-0.3-0.1h-0.7l-0.4,0.1l-0.5,0
			l-1.3-0.4l-2.9-1.5l0.2,0.5l0.1,0.4l0,1.6l-0.1,0.8l-0.5,0.7l-0.6,0.4l-0.6,0.1l-1.3-0.1h-0.5l-0.2,0.1l-0.3,0.6l-0.3,0.3
			l-0.7,0.3H334l-0.4-0.1l-0.6-0.2l-1-0.2l-0.5-0.3l-0.4-0.4l-0.2-0.3l-0.8-1.9l-0.1-1.4l-1.6-1.7l-2.2-1.8l-0.2-0.1l-0.5-0.1
			l-0.4-0.2l-0.5-0.4l-0.4-0.7l-0.2-2.8l-0.5-4.6h-1.8l-2.1-0.1l-0.9-0.9l-0.1-1.7l-0.3-1.5V178l-0.3-2.8l0-0.3l0.2-0.9l0.4-1.1
			l0.5-1.9l0.4-2l0,0l-0.8-1l-0.9-0.8l-1.8-2.1l-0.5-0.8l-3-4l-0.1-1l0-0.1l-0.6-0.7l-0.5-0.1l-0.3,0.2l-1.3,0.3l-0.7-0.1l-0.3-0.1
			l-1.3-0.9l-0.1-0.2l-1.4-0.9l-0.4-0.4l-0.3-0.1l-0.3-0.3l-0.2-0.2l-0.5-0.4l-0.2-0.2l-1.9-1.5l-0.8-0.3l-2.4-1.8l-0.9-0.5
			l-0.5-0.1l-0.9-0.2h-0.6l-1,0.3h-0.4l-0.5-0.1l-0.6-0.4l-0.5-0.6l-0.2-0.8v-1.3l0.1-0.4l0.5-1.1l0.3-0.4l-0.2-0.5l-0.7-0.6
			l-1.1-1.3l-0.2-0.3l-0.2-0.8l-0.1-0.2l-0.2,0h-0.4l-0.3-0.1l-0.8-0.3l-0.6-1.3l0.1-0.4l0.2-0.2l-0.7,0.3h-0.5l-1-1l-0.4-0.2
			l-0.3-0.3l-0.8-1.1l-0.1-0.3l-0.1-0.3l-1.4-1.9l-0.4-0.5l-0.6,0l-0.3-0.1l-0.5-0.3l-0.3-0.4l-0.1-1l0.6-1.7l0.2-0.3l1-0.9
			l-0.1-1.8l-1.1-0.2l-0.7-1l-0.5-1.3l0.1-0.9l1.4-2.2l1-0.4l0.7,0.1l-0.1-0.2l-0.2-0.1l-0.4-0.5l-0.1-0.4l0-0.6l0.4-1.2l0.3-0.4
			l0.3-0.3l0.5-0.2l0.3-0.8l1-0.5l0,0l-0.2-0.6v-0.6l0.3-0.7l0.8-0.9l1.1-0.3l0.8,0.4l0.8-0.3v-0.7l-0.2-0.1l-0.5-0.6l0-0.7
			l-1.4-1.4l-0.9-1.4l-0.1-0.3l-0.4-1.6l0-0.5l0.5-1.8l0.7-0.7l0.5-0.1l0.5,0l0.4,0.1l-0.2-0.1l-0.3-0.3l-0.5-0.5l-2,0.5l-0.1,0.1
			l-0.7,0.3h-1.5l-0.7-0.3l-0.2-0.2l-0.2-0.3l-0.1-0.3l-0.2-0.3l-0.8-0.9l-0.4-0.3l-1.4-0.6l-0.6,0.3l-1.2-0.2l-1-1.1l-0.2-0.4
			l-0.3-1.1l-0.5-1.7l-0.9-2.2l0,0l-0.6,0.1l-0.5,0l-0.5-0.1l-0.5-0.3l-0.3-0.3l-0.2-0.4l-0.1-0.3l-0.3-0.6l-0.5-0.4l-0.4-0.8l0-0.5
			l0.4-1.3l0-0.1l-0.4-0.4l-0.9-0.5l-0.5,0l-0.6-0.2l-0.2-0.1l-0.4-0.4l-0.3-0.5l0.1-1l0.6-0.9l-0.2-1.2l-0.1,0l-0.5-0.1l-0.6-0.4
			l-0.3-0.4l-0.3-0.3l-0.3-1.1l0.2-0.5l0-0.3l0.2-1.5l-0.1-0.1l-2-1.6l-0.5-0.2l-0.3-0.1l-0.5-0.7l-0.5-3v-1.3l0.1-0.3l-0.1-0.1
			l-4.8-2l-0.6-0.9v-1l0.1-0.3l1.6-4.2l0.7-1.5l0,0l-1,0.1l-0.8-0.3l-0.2-0.2l-0.2-0.4l-0.2-1l0-0.6l0.1-0.4l-0.2-1.4l-0.2-0.4
			l-0.7-1.2l-0.1-0.8l0.3-1l-0.5-0.2l-0.6-0.5l-0.3-0.3l-0.9-1.9l0-0.7l0.3-0.8l0.1-0.8l-2.1-2.9l-0.2-0.2l-0.4-0.5l-0.3-0.7v-0.3
			l0.4-0.8l0.5-0.4l0.5-0.2l1.6-0.1l0.5,0.1l0.4,0.2l0.6,0.1l0,0l0.6-0.3l0.2-2.7l-0.2-0.7l0.3-1.1l1.6-1.3l1.2,0l2,1.4l0.9,0.9
			l0.4,0.1l0.4,0.1l0.4,0.2l0.4,0.5l0.7,2l0.3,0.4l0.6,0.2l0.9,0.8l1,1.1l0.3,0.6l0.3,0.8l0.8,0.2l0.1,0l1,0.1l0.8,0.7l1.3,1.6
			l0.2,0.4l0.1,0.4l1,0.4l4.2,1l3.3,0.5l1.1,0.4l0.5-0.4l0.2-0.2l0.4-0.2l1.1-0.3h0.4l0.4,0.1l0.9,0.3l0.4,0.1l0.2-0.3l1-1l0.8-0.9
			l0.1-0.4l0.2-0.5l1-1.1l0.4-0.3l0.4-0.1l0.3-0.1l0.8,0.1l0.2-0.1v-0.1l0.1-0.5l0.7-1.1l0.3-0.3l1-0.6l0.4-0.1l0.9-0.5l0.3-0.6
			l0.6-0.8l0.3-0.2l1-0.5l0.9-0.2l2.3-1.7l0-0.2l0.2-0.4l0.2-0.3l0.5-0.3l2.3-0.5l0.8,0.1l1.2,0.8l0.3,0.3l0.2,0.3l3,2.6l0.6,0.5
			l0.3,0.3l0.2,0.3l0.4,0.4l-0.2,1.5l-1.3,0.8l-0.8,0.2l-0.3,0.3l0.1,0.2l1.2,0.9l0.8,0.4l0.4,0.4l0.6,0.9l0.2,0.6l0,0.6l-0.1,0.5
			l-0.2,0.4l-0.2,0.3l-0.4,0.3l-0.5,0.2l-0.7,0.1h-1l-0.3,0.1l-0.3,0.5l0,0l1.6,0.9l0.5,0.2l1,0.5l0.5,0.7l0.1,0.4l0.5,0.5l0.1,0
			l0.6-0.2h0.5l0.8,0.4l2.3,2.7l0.4,0.6l0.1,0l0.6-0.3l0.5-0.3l0.4-0.2l0.7-0.1l0.6,0.1l0.6,0.2l11.2,2.8l3-1l4.4-1.1l2.4-1.1
			l2.7-1.3l2.5-0.5l2.3-0.7l2.2-1.4l1.3,0.2l3,3.8l2.7,3.8l2.5,2.5l2.8,2.6l2.3,1.1l5.4,0.9l1.6,0.4l0.3,0.1l1.2,0.8l1.8,0.9l2.2,1
			l1,0.7l2.3,1.3L386,77l1.7-0.1l3-0.2l0.2,0l3.9,0.4l1.7-0.4l0.8-0.5l1-0.6l0.3-0.2l0.3-0.2l0.7-0.2l0.7,0l0.2,0.1l0.7-0.6l0.1-0.5
			l-0.3-0.5l-0.1-0.4l0-0.4l0.1-1.1l0.1-0.3l0.3-0.5l0.2-0.3l0.6-0.5l0.4-0.2l0.2-0.1l0.3-0.2l0.7-0.8l0-0.1l0.2-0.4l1.3-1.2
			l0.6-0.3l0.6-0.2l1.7-0.8l0.5-0.6l0.5-0.3l0.6-0.2l2.5-0.2l1.1-0.3h1l0.6,0.2l0.3,0.2l0.3,0.1l1.4,0.2h0.5l0.2-0.1l0.3-0.1h0.4
			l0.7-0.1l0.6,0.1l0.4,0.2l0.1,0l-0.1-0.1l-0.1-0.4l0.2-1.1l1.4-1.3l0.3-0.1l0.5-0.1h0.4l0.9-0.1l0.6,0.1l1.3-0.1l0.7-0.2l1,0.3
			l0.1,0.2l1,0.5l1.1,0.1l1.2,0.3l0.3-0.2l0-0.1l0,0l0.4-0.7l0.4-0.3l0.5-0.2h0.3l0.5,0.1l0.5,0.3L434,62l2.3,2.9l0.2,0.3l0.2,0.7
			v0.7l0.8,0.5l0.7,0.1l2.5,0l7.2,2.3l0.7,0.6l0.5,1.3l1.9,0.5h1l1.9-0.3l1,0.1l1-0.3l0.4,0l1.8,0.2l0.7,0.2l1.3,0.5l1.3,0.9l1,0.6
			l0.2-0.1l0.3-0.1l0.6,0l0.4,0.1l0.4,0.3l0.6,0.6l0.3,0.7v0.3l0.1,0.6l0.5,1.4l1.1,1.2l0.8,0.3l2.4,1l1.5,0.4l3.2,1.5l0.7,0.5
			l0.2,0.2l0.3,0.5l0.4,0.7l0.7,0.7l0.2,0.3l2.9,3.3H491l0.7,0.3l0.4,0.5l0.5,1l0.1,0.5v2.4l0.7,2l0.8,1.9l0.2,0.9v1l0.5,1.9
			l0.1,0.3l0.3,0.4l0.5,1.2l0.1,0.4v1.9l0.2,0.5l0.3,0.2l0.4,0.6l0.3,1.1l0,0.9l-1,2.9l-0.6,0.9v0.4l0.1,0.5l0.2,0.2l0.4,0.6
			l0.1,0.4l0.1,0.9v1l-0.1,2.3l-0.2,1.7l-0.7,2.3l-0.3,0.5l-1.5,1.4l-0.4,0.2l0.1,0l1.4,1.8l0.2,0.4l0.1,0.6l-1,1.2l-2.2,0l-1.1,1.4
			l-0.1,0.4l-0.2,0.4l0.2,0.7l0.5,1.6l0.8,2.2l0.1,0.3v0.8l-0.3,0.7l0.3,0.7l0.3,0.3l1.4,0.7l0.4,0.1h2.4l0.4,0.1l0.5,0.3l0.5,0.5
			l0.2,1.2l-0.1,0.3l-0.9,0.5h-0.2l-0.6,1.5l-0.4,0.7l-0.2,0.5l-1.4,2.4l0,0.8l3.1,7.1l2.3,5l0.4,1.1l0.3,1.5l0,1.8l-0.2,1.3
			l0.2,0.4l0.1,0.3l0.4,2.9l0.1,1.8l0.8,2l3,0.4l1.3,0.3l3.6,0.5l3.8,0.6l0.6,0.4l0.3,0.4l0.4,0.4l0.3,0.6l0.1,0.8l0.7,1.2l0.9,2.5
			l0,0.5l-0.6,3.9l-0.2,0.4l-4.4,6.7l-1.2,1.5l-0.7,1.1l-0.5,0.6l-1.5,2.3l-1.6,2.3l6.3,6.5l0.6,0.8l0.9,2.1l1.1,1.7l1.4,1.4
			l2.2,4.3l0.1,0.1l3.9,3.7l0.4,0.3l3.6,1.2l1.8,0.3l1.3,0.5l1.4,1l0.2,0.2l0.7,1l0.6,0.6l0.8-0.1l1.2-0.3l1.2,0.7l0.3,1.2v3.3
			l0.8,2.5l0.4,0.9l0.2,0.9l0.7,4.3l0,0.4l-0.3,1.3v1.4l1.2,0.2l1.2-0.3l2.3-0.4l0.6,0.1l1.3,0.6l0.4,0.4l0.7,1.3l0.1,0.5v0.4
			l-0.9,1l0,0.1l0.2,1.8l0,0.4L545,250v3.4l-0.7,0.9l-0.4,0.1l-0.3,0.1l-1.6,0l-1.1-0.2h-2.2l-0.4,0.4l-0.7,0.4l-1.8,0.4h-0.6
			l-0.5,0.1l-0.8,0.1l-1,0.6l-0.2,0.7l0.2,0.3l0,1l-0.2,0.4l-1.1,0.5l-1.1-0.2l-0.1,0.2l-0.9,0.6l-0.1,0l-2.3,1l-0.1,0.4l-0.1,1.1
			l0,2.4l0,0.1l-0.1,1.2l0.1,0.3l-0.1,0.8l-0.3,0.5l-0.7,0.5l-0.2,0v2.5l0.1,1.3l0.1,1.9l0,1.6l0,0.2l-0.3,1.8l-1.1,0.7l-0.3,0.2
			l-0.2,0.5l-0.3,0.4l-0.7,0.6L522.2,280z M521.7,278L521.7,278l0.4-0.2l0.2-0.5l0.3-0.4l0.7-0.6l0.3-0.1l0.1-0.9v-1.5l-0.3-3.2
			l0-3.4l0.7-1l0.4-0.1l0-0.3l0.2-1.3v-2.5l0.1-1.4l0.1-0.4v-0.2l0.5-0.9l0.3-0.2l2.8-1.3l0.2-0.5l1.1-0.6l0.6,0.1l0-0.1l0.5-1.5
			l0.5-0.6l1.6-0.9l0.4-0.1l0.9-0.1l0.7-0.1h0.6l1.4-0.4l0.1-0.2l0.9-0.5l3.1,0l1.1,0.2h0.7l0-2.9l0.3-1.2l-0.2-1.5l-0.1-0.4l0-0.7
			l0.3-0.6l0.4-0.3l-0.2-0.3l-0.7-0.3l-2.4,0.4l-0.8,0.3l-0.4,0l-1.7-0.3l-0.5-0.3l-0.5-0.5l-0.3-0.7l0-2.3l0.3-1.2l-0.8-4.8
			l-0.4-0.8l-0.9-2.7l-0.1-0.3v-3.2l-1.5,0.3l-1-0.3l-1.1-1.1l-0.7-0.9l-1.2-0.8l-0.9-0.3l-1.7-0.3L522,223l-0.5-0.3l-1.3-1.1
			l-3.1-2.9l-0.2-0.3l-2.2-4.3l-1.3-1.3l-1.4-2.2l-0.1-0.3l-0.7-1.6l-0.4-0.5l-6.8-7l0.4-1l-0.4-0.3l0.5-0.8l1.5-2.2l1.6-2.5
			l0.5-0.6l0.6-1l1.2-1.5l4.2-6.5l0.6-3.4l-0.8-2.2l-0.7-1.2l-0.1-0.3l-0.1-0.7l-0.5-0.6l-3.4-0.6l-3.6-0.5l-1.3-0.3l-3.5-0.5
			L500,174l-1.1-2.9l-0.1-1.9l-0.4-2.7l-0.3-0.6l0-0.8l0.1-0.3l0.1-0.9v-1.5l-0.2-1l-0.3-0.9l-5.5-12.4l-0.1-0.6v-1l0.1-0.5l0.5-0.9
			l1-1.7l0.3-0.6l0.4-0.6l0.5-1.3l-1.4,0l-0.9-0.2l-1.6-0.8l-0.4-0.2l-0.5-0.7l-0.3-0.4l-0.4-1.4l0.2-0.9l0.2-0.2v-0.2l-1.4-4.3
			l-0.1-0.5l0-0.5l0.4-1.2l0.2-0.4l1.5-1.9l0.6-0.4l0.9-0.1h0.3l-0.4-0.5l-0.1,0l-0.6-0.3l-0.8-0.9l0-1.3l0.2-0.2l0.3-0.2l0.5-0.3
			l0.4-0.1h0.4l1.1-1l0.6-1.9l0.1-1.4l0.1-2.2l0-0.9l-0.1-0.5l-0.2-0.2l-0.5-0.7l-0.2-1.2v-0.8l0.2-0.6l0.7-1l0.8-2.4v-0.3l-0.1-0.4
			l-0.2-0.2l-0.3-0.4l-0.3-0.6l-0.2-0.8V103l-0.4-0.9l-0.3-0.4L493,101l-0.5-2.4v-1l-0.1-0.4l-0.7-1.7l-0.8-2.2l-0.1-0.3v-2.3
			l-0.3-0.5l-10.5,0l-0.5-0.1l-0.5-0.3l-4.3-5.1l-0.3-0.6l-0.5-0.4l-2.9-1.3l-1.5-0.4l-3.4-1.4l-0.4-0.3l-1.4-1.5l-0.2-0.3l-0.7-1.8
			l-0.2-0.9l0,0l-0.6,0.2h-0.4l-0.5-0.1l-0.5-0.2l-1.1-0.7l-1.2-0.9l-1.5-0.5l-1.3-0.1l-1.3,0.4h-0.7l-0.5-0.1l-1.9,0.2l-1.4,0
			l-2.5-0.6l-0.5-0.3l-0.2-0.3l-0.3-0.7v-0.2l-0.2-0.5l-6.6-2.1l-2.2,0l-1-0.1l-0.4-0.1l-1.6-1l-0.4-0.8l0-1.2l-1.8-2.3l-0.1,0.2
			l-0.9,0.8l-0.9,0.2l-1.6-0.4l-1.3-0.2l-0.5-0.2l-1-0.6l-0.5,0.1l-1.6,0.1l-0.5-0.1l-1,0.1l-0.4,0.4l0.2,0.8l-0.1,0.9l-0.8,0.8
			l-1.4,0.3l-0.7-0.1l-0.4-0.2l-0.6,0.1h-0.3l-0.2,0.1l-0.3,0.1l-0.9,0l-1.9-0.3l-0.8-0.4h-0.6l-0.9,0.3l-2.6,0.2l-0.5,0.6l-0.2,0.2
			l-2.9,1.3l-0.7,0.7l0,0.1l-0.2,0.4l-1.1,1.1l-0.5,0.4l-0.3,0.2l-0.3,0.1l-0.2,0.2L403,72l-0.1,0.8l0,0.1l0.3,0.5l0.1,0.8l-0.3,1.1
			l-0.2,0.4l-0.3,0.4l-1,0.9l-0.7,0.2l-0.8,0l-0.3-0.1l-0.1,0l-0.7,0.5l-1,0.5l-0.8,0.5l-2,0.5l-0.3,0l-3.9-0.4l-5,0.4l-0.6-0.1
			l-6.9-4l-0.9-0.7l-1.9-0.8l-2.1-1l-1.1-0.8l-1.3-0.3l-5.5-0.9l-0.3-0.1l-2.8-1.4l-2.9-2.8l-2.7-2.7l-2.7-3.8l-2.4-3l-1.8,1.1
			l-2.5,0.8L345,59l-2.4,1.2l-2.7,1.2l-1.4,0.4l-3.1,0.8l-3.2,1.1l-0.6,0L320,60.8l-0.4-0.2l-0.2,0L319,61l-1,0.5l-0.7,0.1l-0.9-0.3
			l-0.4-0.2l-0.4-0.4l-0.4-0.8l-1.7-2l-0.3,0.1l-0.5,0.1l-0.9-0.2l-1.3-1.1l-0.3-0.6l0-0.3l-0.9-0.5l-0.3-0.1l-0.3-0.2l-0.2-0.2
			l-1.2-0.7l-0.4-0.4l-0.3-0.5l-0.1-0.4v-0.5l0.2-0.5l0.6-1l0.6-0.4l1.1-0.3h1l0.2-0.1l-0.4-0.6l-0.7-0.3l-1.5-1.1l-0.3-0.5
			l-0.2-0.6l-0.1-0.3v-0.5l0.1-0.5l0.2-0.4l0.2-0.3l0.6-0.5l0.4-0.2l0.8-0.2l-0.9-0.7l-0.6-0.6l-2.3-2.1l-0.1-0.2l-0.6-0.4l-1.5,0.3
			l0,0.1l-0.4,0.5l-2.8,2l-0.4,0.2l-1,0.2l-0.5,0.3l-0.4,0.5l-0.2,0.4l-0.2,0.3l-0.6,0.5l-1.2,0.6l-0.4,0.1l-0.4,0.3l-0.4,0.7v0.3
			l-0.5,0.8l-1,0.6l-0.8,0.1l-0.6-0.1l-0.7,0.7l-0.1,0.4l-0.2,0.5l-1,1.1l-0.9,0.9l-0.2,0.4l-0.9,0.6l-0.5,0l-1.1-0.2l-0.9-0.3
			l-0.4,0.1l-0.2,0.2l-0.4,0.3l-0.7,0.4l-0.5,0.1l-0.4-0.1l-1.4-0.5l-3.1-0.5l-4.6-1.1l-0.2-0.1l-1.2-0.5l-0.5-0.5l-0.2-0.6
			l-0.1-0.4l-1-1.4l-0.2-0.1l-0.3,0l-0.6-0.1l-1.2-0.4l-0.7-0.8l-0.1-0.4l-0.2-0.4l-0.2-0.2l-0.8-0.9l-0.5-0.5l-0.7-0.3l-0.4-0.4
			l-0.6-0.9l-0.7-1.8l-0.5-0.1l-0.5-0.3l-1.1-1.1l-1.2-0.8l-0.5,0.4l0.1,0.3l0,0.3l-0.3,3.4l-0.5,0.8l-0.5,0.3l-1,0.5l-0.4,0.1
			l-0.5,0l-1.2-0.3l-0.3-0.1l-0.3,0l2.2,3l0.2,0.7l-0.2,1.5l-0.2,0.5l0.1,0.2l0.5,1l0.2,0.1h0.2l0.8,0.5l0.4,0.7l0.1,0.5l0,0.5
			l-0.3,1l0.8,1.5l0.1,0.3l0.3,1.8l0,0.4l-0.1,0.6l0,0.1l0.8-0.1l0.8,0.3l0.8,0.9l0.2,1l-0.1,0.4l-0.8,1.7l-1.5,3.9V68l0.3,0.1
			l4.1,1.8l0.4,0.3l0.6,0.8l0.1,1.1l-0.1,0.3v0.9l0.4,2.1l0.1,0l0.4,0.2l2.7,2.2l0.3,0.7l0,0.6l-0.2,2.2l0.2,0.2l0.4,0.1l0.7,0.3
			l0.6,0.8l0.4,2.1v0.4l-0.2,0.6l-0.2,0.3h0l0.5,0.1l1.3,0.8l0.2,0.2l0.6,0.8l0.2,0.5l0.1,0.8l-0.1,0.7l-0.2,0.3l-0.1,0.4l0.2,0.1
			l0.3,0.3l0.7,1.1l0.1,0l0.2-0.1l0.6-0.2h0.4l0.9,0.5l0.5,1l0.9,2.3l0.5,1.9l0.2,0.9l0.3,0.4l0.1,0l0.4-0.1h0.5l0.5,0.2l0,0
			l1.7,0.8l1,0.9l1,1.4h0.6l0.4-0.2l2.6-0.6l0.8,0.1l0.6,0.4l0.3,0.3l0.2,0.3l0.3-0.1l0.3-0.2l0.5-0.1h0.5l0.7,0.3l0.3,0.2l0.3,0.7
			v0.6l-0.3,0.7l-0.7,0.8l-0.3,0.2l-0.7,0.3l-1.4,0.4l-0.7,0l-0.3,0.8l0.3,1.2l1,1.4l1.3,1.3l0.1,0.8l0.2,0.2l0.3,0.2l0.5,0.8v1.9
			l-0.6,0.9l-1.8,0.8l-0.8,0l-0.6-0.2l0,0l0.1,0.1l0.2,0.7l-0.1,1.2l-0.5,0.8l-0.3,0.1l-0.5,0l-0.1,0.3l-0.2,0.4l-0.2,0.2l-0.5,0.2
			l-0.1,0.4l0.3,0.3l0.4,0.8l0.5,1.3l-0.1,0.9l-0.2,0.4l-1.1,0.4l-1.4-0.3l-0.8,1.2l0.3,0.7l0.3,0l0.3,0.1l0.3,0.2l0.4,0.4l0.3,0.5
			l0.1,0.4l0.1,2.5l-0.3,0.8l-1.1,1.1l-0.2,0.6h0.1l0.7,0.3l0.8,0.9l1.5,2.1l0.2,0.4l0.1,0.3l0.5,0.8l0.7,0.4l0.1,0.2l0.1,0l1.1-0.2
			l1.1,0.5l0.8,1.4l-0.1,0.6l0.1,0l1.1,0.6l0.2,0.4l0.2,0.3l0.1,0.3l0.2,0.6l0.9,1l0.7,0.6l0.3,0.4l0.5,1.1l0,0.6l-0.1,0.4l-0.2,0.4
			l-0.4,0.5l-0.2,0.6l0,0.9l0.3-0.1l0.7-0.2l1.1,0l0.9,0.3l0.5,0.1l0.3,0.1l1.1,0.7l2.4,1.8l0.7,0.3l0.8,0.6l2.4,2l0.1,0.2l0.3,0.2
			l0.3,0.3l0.1,0.2l1.6,1.1l0.1,0.2l0.8,0.5l0.6-0.1l0.9-0.3l1.3,0.2l0.5,0.3l1.3,1.4l0.2,1l-0.1,0.1l2.7,3.7l0.5,0.8l1.6,1.8
			l0.9,0.9l1.2,1.6l0.1,0.8l-1,4.4l-0.4,1.2l-0.1,0.6l0.2,2.7l0,0.6l0.3,1.4l0,0.9l1.1,0.1l2.7,0l1,1v0.7l0.7,7.1l0.6,0.2l0.5,0.2
			l0.3,0.2l0.2,0.2l2.1,1.7l1.9,2l0.3,0.7v0.5l0.1,0.9l0.7,1.4l1.1,0.3l0.1-0.1l0.3-0.3l0.6-0.5l0.6-0.2l1,0l1,0.1l0-0.2v-1.1
			l-0.4-0.9l-0.1-0.1l-0.3-0.3l-0.4-0.6l-0.1-0.5v-0.8l0.1-0.4l0.9-2.3l0.3-0.4l0.3-0.2l0.4-0.2l1-0.1h0.7l0.3,0.1l2,0.8l0.4,0.4
			l0.5,0.8l0.1,0.9l-0.4,0.9l-0.4,0.5l-0.5,0.3l-1,0l1.9,1l0.8,0.3l0.5-0.1h1l0.4,0.1l0.8,0.3l0.6,0.6l0.3,1.3l0.1,0.1l1.4-0.9
			l1.4-1.3l0.5-0.4l0.8-0.4l0.5-0.2l1.4-0.1l0.5,0.1l0.5,0.2l0.3,0.2l0.5,0.6l0.2,0.4l0.3,0.5l0.4,0.9l0.3,0.8l0.1,0.3v0.9l0.7,0.7
			l0.4,0.2l0.4,0.3l0.6,0.9l1.8,2.4l0.5,0.2l0.3,0.3l2.6,2.4l0.7,1.1l0.1,0.3l0.1,0.7l0.1,2.5l0,0.3l-0.2,0.7l0.3-0.1h1.5l0.5,0.1
			l1.1,0.7l0.7,0.6l0.3,0.5l0.1,0.8v0.3l-0.1,0.3l-0.4,1l-0.8,0.2l0.3,0.4h0.1l0.3,0.1l0.4,0.1l0.8,0.2l0.5,0.3l0.3,0.3l0.6,1
			l0.3,0.8l0.1,0.5l0.1,1.2l0.3,1.5l0.8,1.2l1.6,2.4l0.6,1.9l0.9,1.6l1.5,1.6l2,1.4l0.2,0l1.2,0.1l0.4-0.2l0.4-0.1l0.8,0l3.2,0.4
			l0.5,0.2l1.3,0.9l0.6,0.8l0.4,0.2l0.3,0.2l0.3,0.1l1.5,0.5l0.9,0.1l0.3,0.1l1,0.5l0.3,0.2l2,2.4l0.2,0.8l-0.1,0.9l-0.1,0.2
			l0.7,0.4l1.1,0.5l1,0.8l0.5,0.5l2,1.2l2.5,1.1l1.9,0.7l1,0.2l0.4,0.2l1.1,0.7l0.4,0.5l0.2,0.7l0,0.5l2.8,1.9l0.7,0.3l1,0.1l3-0.4
			l0.4,0l1.5,0.5l0.4-0.2l0.7-0.2h0.4l0.6,0.2l0.6,0.4l0.5,0.6l1.4,1l3,1.2l0.9,0.3l0.4-0.3l4-3.2l1-1l0.5-0.3l0.5-0.1l0.4,0
			l1.1,0.1l0.9,0.4h0.1l0.3-0.1l0.6-0.3l-0.1-0.2l-0.1-0.9l0.1-0.5l0.3-0.6l0.2-0.3l0.5-0.5l0.3-0.2l0.9-0.3l1.7-0.3h0.5l0.9-0.2
			l0-0.1l0.3-0.4l1.9-1.5l0.5-0.3l2.9-0.7l0.6,0l2.4,0.6l1.2,0.1l0.3,0l0.2,0l2.4,0.5l0.5,0.3l0.8,0.9l0.2,0.4l0,0.7l2.2,2.2
			l0.5,0.8l0.1,0.7l0.3,0.8l0.3,0.7l0.5,2.1l0.1,1l0,0.9l-0.1,0.4l0.2,0.5l1.7,5.5l0.4,0.8l0.6,0.5l0.7,1.2l0.4,1.1l0.2,0.8l2.5,0.4
			l1.1,0.1l0.1-0.1l0.5-0.2h0.9l0.3,0.1l0.4,0.1l0.5,0.3l0.5,0.7l0.2-0.1l1.1-0.4l0.9,0.1l0.4,0.3l0.3,0.3l0.5,0.8l0.1,0.3l0.3,0.4
			l0.2,0.1l0.6,0.3h0.1l1.8-0.5l0.4-0.3l0.4-0.1l0.3-0.1l0.5,0l4.5,0.7l0.7-0.1h0.8l0.5,0.1l1.8,1l0.3,0.3l0.3,0.4l0.7,0.9l0.1,0
			h0.9l1.4-0.4l1.8-0.7l0.7-0.1l0.3-0.1l0.6,0l0.7,0.2l0.9,0.5l0.7,0.6l0.5-0.1l1-0.1l1.7,0l1.7,0.6l1.7-0.1l0.2,0l2.9,0.5l0.3,0.2
			l0.1-0.3l0.1-0.3l0.4-0.5l0.3-0.2l0.5-0.3l0.7-0.1h0.9l0.4,0.1l0.5,0.2l0.3,0.3l0.3,0.4l0.3,0.6l0.3,1.3l1.6,0.2l2.8,0.5l0.3,0.1
			l2.6,0.6l0.3,0.1l0.4,0.3l0.4,0.5L521.7,278z M340,192.6l1.1,0.6l-0.9-0.5L340,192.6z"/>
	</g>
	<g id="Stroke-6">
		<path class="st1" d="M305.5,214l-24.1-2.1l-0.5-0.2l-27-21.7l-12.4-9.6l-9.4-4.3l-15.1-9.4l-4.5-0.8l-8.4-1.6l-4.1-0.9l-0.5-1.7
			l0.8-0.8l-0.2-0.5l-2,0.6l-1.2-0.6l-1-2.9l0.7-1.3l0.4-0.1l-5-13.2l0.3-1.1l0.3-0.2l2-1.3l5.6-3.3l2.4-1.5l3-1.7l2.6-1.6l12.7-7.5
			l0.9-2.8l1.3-2.6l-0.3-1.9l-0.4-2.6v-0.6l-0.3-1.4l0-0.8l0.1-0.5l0.3-2.2l-0.1-0.7v-0.9l0.1-0.5l0.5-0.9l0.6-1l-0.4-2.9l-0.2-0.4
			l-1.7-2.8l-0.2-0.5l-0.2-4.9l0.1-0.5l1.3-2.8l0.7-0.6l5.3-1.2l6-6.8l0,0l0.4-1.4l0.5-0.2l2.1-0.5l1.5-2.7l0.2-0.3l0.5-0.4l0.6-0.3
			l0.7,0l0.8,0.3l1.2,0.5l0.5-0.2l2-0.5l0.6,0l4.7,2l1.7,0.4l2.4,0.1l0.8-0.1l0.1-0.2l0.2-0.4l0.6-0.6l0.7-0.3h1.6l0.4,0.1l1.6,0.8
			l0.4,0.3l0.5,0.6l0.2,0.4L262,80v0.5l-0.6,0.7l-0.1,0.3l0.4,0.6l0.4-0.5l1.3-0.5l0.2-0.2l0.7-0.6l0.4-0.5l0.2-0.2l0.6-0.4l0.7-0.1
			l1.7,0.3l0.4,0.1l0.4,0.2l0.3,0.2l0.2,1.1l0,0l0.2,0.2l0.4,0.1l0.7,0.3l0.6,0.8l0.4,2.1v0.4l-0.2,0.6l-0.2,0.3h0l0.5,0.1l1.3,0.8
			l0.2,0.2l0.6,0.8l0.2,0.5l0.1,0.8l-0.1,0.7l-0.2,0.3l-0.1,0.4l0.2,0.1l0.3,0.3l0.7,1.1l0.1,0l0.2-0.1l0.6-0.2h0.4l0.9,0.5l0.5,1
			l0.9,2.3l0.5,1.9L279,98l0.3,0.4l0.1,0l0.4-0.1h0.5l0.5,0.2l0,0l1.7,0.8l1,0.9l1,1.4h0.6l0.4-0.2l2.6-0.6l0.8,0.1l0.7,0.4l0.3,0.3
			l0.2,0.3l0.3-0.1l0.3-0.2l0.5-0.1h0.5l0.7,0.3l0.3,0.2l0.3,0.7v0.6l-0.3,0.7l-0.7,0.8l-0.3,0.2l-0.7,0.3l-1.4,0.4l-0.7,0l-0.3,0.8
			l0.3,1.2l1,1.4l1.3,1.3l0.1,0.8l0.2,0.2l0.3,0.2l0.5,0.8v1.9l-0.6,0.9l-1.8,0.8l-0.8,0l-0.6-0.2l0,0l0.1,0.1l0.2,0.7l-0.1,1.1
			l-0.5,0.8l-0.3,0.1l-0.5,0l-0.1,0.3l-0.2,0.4l-0.2,0.2l-0.5,0.2L286,120l0.3,0.3l0.4,0.8l0.5,1.3l-0.1,0.9l-0.2,0.4l-1.1,0.4
			l-1.4-0.3l-0.8,1.2l0.3,0.7l0.3,0l0.3,0.1l0.3,0.2l0.6,0.6l0.1,0.3l0.1,0.4l0.1,2.5l-0.3,0.8l-1.1,1.1l-0.2,0.6h0.1l0.7,0.3
			l0.8,0.9l1.5,2.1l0.2,0.4l0.1,0.3l0.5,0.8l0.7,0.4l0.1,0.2l0.1,0l1.1-0.2l1.1,0.5l0.8,1.4l-0.1,0.6l0.1,0l1.1,0.6l0.2,0.4l0.2,0.3
			l0.1,0.3l0.2,0.6l0.9,1l0.7,0.6l0.3,0.4l0.5,1.1l0,0.6l-0.1,0.4l-0.2,0.4l-0.4,0.5l-0.2,0.5l0,0.9l0.3-0.1l0.7-0.1l1.1,0l0.9,0.3
			l0.5,0.1l0.3,0.1l1.2,0.7l2.4,1.7l0.7,0.3l0.8,0.6l2.4,2l0.1,0.2l0.3,0.2l0.4,0.3l0.1,0.2l1.6,1.1l0.1,0.2l0.8,0.5l0.6-0.1
			l0.9-0.3l1.3,0.2l0.5,0.3l1.3,1.4l0.2,1l0,0.1l2.8,3.7l0.5,0.8l1.6,1.8l0.9,0.9l1.2,1.6l0.1,0.8l-1,4.4l-0.4,1.2l-0.1,0.6l0.2,2.7
			l0,0.6l0.3,1.4l0,0.9l1.1,0.1l2.7,0l1,1v0.7l0.7,7.1l0.6,0.2l0.5,0.2l0.3,0.2l0.2,0.2l2.1,1.7l1.9,2l0.3,0.7v0.4l0.1,0.9l0.7,1.4
			l0.7,0.2l0.6,0.5l0.2,0.4l-0.3,1.3l-0.4,0.2l-0.5,0.2l-1.5,0l-1.1-0.3l-0.5-0.2l-0.8-0.3l-0.9-0.6l-0.9-0.3l-1.1-0.1l-1.2,0.1
			l-0.5,0.3h-0.1l-0.3-0.1l-2.9-1h-4.9l-1.7,0.6l-0.5,0.4l-0.2,0.3l-0.1,0.8l-0.5,1.8l-1.2,3.8l-0.3,0.4l-1.1,1.9l-0.6,1.2l-0.7,1.6
			l-0.3,0.4l-0.3,0.7l-0.4,0.4l-0.7,0.5l-0.3,0.4l-0.5,0.5l-1.6,0.6L305.5,214z M281.9,209.9l23.5,2.1l1.1-0.5l0.7-0.9l0.6-0.4
			l0.3-0.6l0.3-0.4l0.6-1.4l0.6-1.3l1.4-2.4l1.5-5.1l0.2-0.8l0.2-0.6l0.4-0.6l0.5-0.4l0.6-0.4l2-0.8l0.4-0.1h5.2l0.3,0.1l2.6,0.9
			l0.3-0.2l2-0.1l0.1,0l1,0.1l0.6,0.2l1.1,0.5l0.7,0.5l0.4,0.1l-0.5-1.3l-0.1-1.4l-1.6-1.7l-2.2-1.8l-0.2-0.1l-0.6-0.1l-0.4-0.2
			l-0.5-0.4l-0.4-0.7l-0.2-2.8l-0.5-4.6h-1.8l-2.1-0.1l-0.9-0.9l-0.1-1.7l-0.3-1.5v-0.6l-0.3-2.8l0-0.3l0.2-0.9l0.4-1.1l0.5-1.9
			l0.4-1.9l0,0l-0.8-1l-0.9-0.8l-1.8-2.1l-0.5-0.8l-3-3.9l-0.1-1l0-0.1l-0.6-0.7l-0.5-0.1l-0.3,0.2l-1.3,0.3l-0.7-0.1l-0.3-0.1
			l-1.3-0.9l-0.1-0.2l-1.4-0.9l-0.4-0.4l-0.3-0.1l-0.3-0.3l-0.2-0.2l-0.5-0.4l-0.2-0.2l-1.9-1.5l-0.8-0.3l-2.4-1.8l-0.9-0.5
			l-0.5-0.1l-0.9-0.2h-0.6l-1,0.3h-0.4l-0.5-0.1l-0.6-0.4l-0.5-0.6l-0.2-0.8v-1.3l0.1-0.4l0.5-1.1l0.3-0.4l-0.2-0.5l-0.7-0.6
			l-1.1-1.2l-0.2-0.3l-0.2-0.8l-0.1-0.2l-0.2,0h-0.4l-0.3-0.1l-0.8-0.3l-0.6-1.3l0.1-0.4l0.2-0.2l0,0l-0.7,0.3h-0.5l-1-1l-0.4-0.2
			l-0.3-0.3l-0.8-1.1l-0.1-0.3l-0.1-0.3l-1.4-1.9l-0.4-0.5l-0.6,0L283,134l-0.5-0.3l-0.3-0.4l-0.2-1l0.6-1.7l0.2-0.3l1-0.9l-0.1-1.8
			l-1.1-0.2l-0.7-1l-0.5-1.2l0.1-0.9l1.4-2.2l1-0.4l0.7,0.1l-0.1-0.2l-0.2-0.1l-0.4-0.5l-0.1-0.4l0-0.6l0.4-1.2l0.3-0.4l0.3-0.3
			l0.5-0.2l0.3-0.8l1-0.5l-0.2-0.6v-0.6l0.3-0.7l0.8-0.9l1.1-0.3l0.8,0.4l0.8-0.3v-0.7l-0.2-0.1l-0.5-0.6l0-0.7l-1.4-1.4l-0.9-1.4
			l-0.1-0.3l-0.4-1.6l0-0.5l0.5-1.8l0.7-0.7l0.5-0.1l0.5,0l0.4,0.1l-0.1-0.1l-0.4-0.3l-0.5-0.5l-2,0.5l-0.1,0.1l-0.7,0.2h-1.5
			l-0.7-0.3l-0.2-0.2l-0.2-0.3l-0.1-0.3l-0.2-0.3l-0.8-0.9l-0.4-0.3l-1.4-0.6l-0.6,0.3l-1.2-0.2l-1-1.1l-0.2-0.4l-0.3-1.1l-0.5-1.7
			l-0.9-2.2l0,0l-0.6,0.1l-0.5,0l-0.5-0.1l-0.5-0.3l-0.3-0.3l-0.2-0.4l-0.1-0.3l-0.3-0.6l-0.5-0.4l-0.4-0.8l0-0.5l0.4-1.3l0-0.1
			l-0.4-0.4l-0.9-0.5l-0.5,0l-0.6-0.2l-0.2-0.1L269,87l-0.3-0.5l0.1-1l0.6-0.9l-0.2-1.2l-0.1,0l-0.5-0.1l-0.6-0.4l-0.3-0.4l-0.3-0.3
			l-0.2-0.8l-0.8-0.1l-0.3,0.2l-0.1,0.1l-0.2,0.3l-1.2,1l-1.1,0.5l-0.1,0.2l-0.3,0.6l-1.2,0.6l-0.8-0.2l-0.5-0.4l-1.1-1.8l-0.1-0.9
			l0.3-1l0.3-0.3l0-0.2l-0.2-0.3l-1.2-0.6h-0.9l-0.1,0.2l-0.2,0.5l-0.3,0.4l-0.8,0.4l-1.5,0.1l-2.7-0.1l-2.1-0.4l-4.5-1.9l-1.6,0.4
			l-0.4,0.2l-0.4,0.1l-0.8,0l-0.5-0.2l-1.1-0.5l0,0l-1.4,2.7l0,0l-0.7,0.8l-0.6,0.1l-1.3,0.3l0,0.1h0.1v0.1l-0.2,0.7l-6.5,7.4
			l-0.5,0.3l-5.2,1.2l-1,2.1l0.1,4.4l0.1,0.1l1.6,2.7l0.4,0.9l0.5,3.4l-0.1,0.7l-1.1,1.9v0.5l0.1,0.7l0,0.4l-0.1,0.4l0,0.4l-0.4,2.2
			l0.3,1.4v0.7l0.3,2.3l0.4,2.2l-0.1,0.6l-1.5,2.8l-0.9,2.9l-0.4,0.6l-4.4,2.6l-8.6,5l-2.6,1.6l-3,1.6l-2.3,1.5l-7,4.2l5.1,13.5
			l-0.7,1.3l-0.4,0.1l0.3,1l2-0.6l1.2,0.6l0.8,2l-0.2,1l2.3,0.5l13,2.5l0.3,0.1l15.2,9.4l9.5,4.4l14.6,11.3l11.3,9.1L281.9,209.9z"
			/>
	</g>
	<g id="Stroke-7">
		<polygon class="st1" points="146.6,169.6 146.5,169.6 145.6,169.1 145.5,168.9 145.4,168.5 146.4,167.4 147.2,167.7 147.6,168.5 
			147.6,168.6 		"/>
	</g>
	<g id="Stroke-8">
		<path class="st1" d="M144.9,207.6l-1.7-0.2l-0.5-1l-0.3-1.1l0-0.6l0-0.1l-0.4-1.5l-1.7-3.9l-0.6-1.8l-1.6-4.2l-0.8-0.5l-0.5-0.6
			l-0.1-0.5l0-0.5l0.1-0.5l-1.2-3l-1.4-2.7l-2.4-6l0.3-1.2l0.8-0.5l0.2-0.3l-0.1-0.5l0.1-0.5l0.2-0.6l0.2-0.3l1.3-1.4l0.3-0.2
			l-0.3-0.3l0-1.2l-0.1,0l0.2-0.5l0.5-0.9l1.4-3.1l0.5-1.2l0.7-2.8l0.1-0.8l0.2-0.3l0.2-1.4l0.4-2.2l0.2-1.5l0.4-4.1v-0.8l0.6-0.9
			l0.5-0.2l0.6,0.1v0l-0.1-1.2l0-0.7l0.1-0.4l0.1-0.6l0-0.2l1-1.2l2.5,0l0.8,0.1l0.4,0.2l0.4,0.3l0.3-0.1l0.5-0.3l0.1-0.3l0.2-1
			l0.5-1.3l1.5-0.4l0.3,0.2l0.4,0l0.8,0.4l0.1,0.1l0.2,0.8l-0.1,0.5l-0.1,1.2l0,3.3l-0.1,0.2l0.1,0.2l0.2,0.6v0.3l0.4,0.8l0,0.9
			l-0.1,0.4v0.5l-0.5,0.5l0.1,0.1l-0.2,0.3l-0.3,0.3v3.5h-0.5l-0.6,1.1l-1-0.2l-0.6-0.4l-0.9-1.2l-0.5-0.2h-1.1l-0.4-0.1l-0.3-0.1
			l-1,0.6l-0.2,0.7l0.1,0.5l-0.1,2l-0.1,0.3l-0.5,1.1l0.4,1.4l0.1,0.5l0,0.3l-0.2,1.1l-0.1,1.2l0.8-0.2l0.8,0.1l1.7,1l0.4,1.2
			l-0.1,0.4l-0.8,0.6l-0.6,0.1l-0.6,0.4l-1.3,1l-0.3,0.7l0.1,0.7l0,0.5l-0.1,0.4l-0.3,0.8l3.2-0.3l0.1-0.1l0.2-0.2l1.9-1.5l0.7-0.3
			h1l1,0.8l0.2,0.9l0,1l-0.2,0.9l-0.3,1.6l0.5,0.7l0.2,0.6l0,1.3l-0.6,2.4l-0.3,0.5l-0.4,0.4l-0.1,0.3l-0.5,1.4l0,0.6l-0.4,1.4
			l-0.5,0.9l-0.1,0.3l-0.5,2.5l0.3,1.6l0.3,2.8l0,0.4l-0.2,0.8l-0.3,0.4l-0.2,0.2l0,0.1l-0.4,1.3v0.9l0.1,0.2l0,0.5l-0.8,3.8
			l-0.2,0.6l0.1,0.2v0.4l-0.5,0.5l0.1,0L144.9,207.6z M144.4,204l0.1,0.2l0.7-3.3l-0.1-0.4l0-1.4l0.6-2l0.2-0.3l0.2-0.2l0.1-0.5
			l-0.2-2.6l-0.3-1.7l0-0.6l0.7-3.1l0.5-0.9l0.3-1v-0.4l0.1-0.3l0.6-1.8l0.3-0.5l0.5-0.6l0.5-2V180l-0.6-0.9l-0.1-0.7l0.4-2l0.2-0.8
			v-0.2l-1.4,1l-0.2,0.2l-0.4,0.3l-0.3,0.1l-0.3,0.1l-1.2,0.1l-2.7,0.2l-0.3,0l-0.6-0.1l-0.6-0.4l-0.2-0.4l-0.2-0.5v-0.5l0.1-0.4
			l0.6-1.2l-0.1-0.6l0-0.4l0.3-0.9l0.4-0.7l0.4-0.4l1.4-1.1l-0.5,0.1l-0.6,0l-0.5-0.1l0-0.1l-0.9-0.9v-0.5l0.2-2.1l0.1-0.3l0.1-0.4
			l-0.1-0.3l-0.5-1.3l0-0.9l0.6-1.3l0.1-1.6l-0.1-0.5l0-0.6l0.4-1.2l0.5-0.6l1.8-1.1l1-0.1l0.6,0.3l1.2,0l0.9,0.3l0.4,0.2l0.4,0.4
			v-2l0.3-0.7l0.7-0.6l0-0.3l0.1-0.4l-0.4-0.8v-0.4l-0.2-0.3l0.1-0.1l-0.1-1l-0.2,0l0.1-0.4v-2.6l-0.1,0.3l-0.2,0.3l-0.3,0.5
			l-1.3,0.6l-0.6,0.1l-0.4,0l-0.4-0.1l-0.3-0.1l-0.3-0.2l-0.5-0.1h-1.2l-0.1,0.5l-0.1,0.4v0.3l0.1,1.5l0,0.3l-0.1,0.4l-0.2,0.4
			l-0.4,0.5l-0.5,0.3l-0.4,0l0,0.1l-0.1,0.9l-0.3,3.2l-0.3,1.9l-0.4,1.9l-0.2,1.6l-0.2,0.3l-0.1,0.8l-0.8,3l-0.5,1.3l-1.5,3.2
			l-0.4,0.7l0.4,0.3l0.3,1.2l-0.2,0.5l-0.3,0.4l-0.8,0.6l-1,1l-0.1,0.2l0.1,0.7l-0.2,0.7l-0.5,0.8l-0.5,0.4l0.1,0.1l2,5.1l1.4,2.7
			l1.4,3.4l0,0.6l-0.1,0.5l0.6,0.4l0.4,0.5l1.8,4.5l0.6,1.7l1.7,4L144.4,204z"/>
	</g>
	<g id="Stroke-9">
		<path class="st1" d="M159.7,213l-12.5-2.3l-3.1-0.5l-0.8-0.6l-0.1-0.4l-0.1-0.5l0.1-1.1l0.2-0.9l-0.2-0.6l0-0.4l-0.1-0.5l0.4-0.9
			l0.7-3.3l-0.1-0.4l0-1.4l0.6-2l0.2-0.3l0.2-0.2l0.1-0.5l-0.2-2.6l-0.3-1.8l0-0.6l0.7-3.2l0.5-0.9l0.3-1l0-0.7l0.6-1.8l0.3-0.5
			l0.5-0.6l0.5-2v-0.6l-0.6-0.9l-0.1-0.7l0.4-2l0.2-0.8v-0.5l-0.1-0.9l0-1.3l0.1-0.6v-0.5l0.1-0.3l0.6-1.8l-0.1-0.8l-0.3-1.6
			l-0.1-1.1l-0.2-0.7l0-0.4l0.5-2.9l-0.3-2.3l0,0l-0.2-0.6V155l0.3-0.7l0.6-0.6l0.6-0.3l0.4-0.3l1.1-0.7l0.8-0.1l0.4,0.1l1.9,0.4
			l0.5,0.2l1,0.9l0.3,0.4l0.3,0.7l0.7,0.8l0.4,0.1l0.2-0.1l1.1,0.1l2.2,1.7l0.6,0.6l1.1,0.1l0.3,0.1l1.7,0.3l2.2,0.5l0,0l0.2-0.2
			l3.8-2.5l6.1-4.3l9.2-6.1l2.7-1.9l3.5-2.2l1.5,0.5l5.4,14.3l-0.7,1.3l-0.4,0.1l0.3,1l2-0.6l1.2,0.6l0.8,2l-0.2,1.1l-1.3,1.3
			l-1.6,1.6l-0.7,0.8l-0.5,0.3l-7.1,2l-7,2.2l-3.4,1.1l-3.2,0.9l-4.8,1.5l3.4,3.6l2.9,3.2l1.1,1.3l6.6,7.3l-0.2,1.5l-4.1,2.6
			l-1.8,5.1l-0.7,0.6l-10,2.2l-2.8,5.5l-0.2,0.3l-2.9,2.8l-2.7,2.4L159.7,213z M145.1,208.3l2.4,0.4l12.1,2.2l2.3-2.1l2.8-2.6l3-5.8
			l0.7-0.5l9.9-2.2l1.7-4.9l0.4-0.5l3.4-2.2l-5.9-6.5l-1.1-1.3l-2.9-3.1l-4.5-4.7l0.4-1.6l2.6-0.9l3.7-1.1l3.2-0.9l3.7-1.2l6.8-2.1
			l6.9-1.9l0.6-0.6l2.5-2.5l-0.2-0.5l-2,0.6l-1.2-0.6l-1-2.9l0.7-1.3l0.4-0.1l-4.5-12.2l-2.4,1.5l-2.7,1.9l-10.8,7.2l-4.4,3.2
			l-3.7,2.4l-0.3,0.4l-1,0.4l-2.7-0.6l-1.9-0.3l-0.3-0.1l-1-0.1l-0.6-0.3l-0.8-0.8l-0.4-0.3l-1.2-0.9l-0.6,0.1l-0.7-0.2l-0.6-0.3
			l-0.4-0.3l-1-1.4l-0.3-0.7l-0.6-0.6l-1.8-0.3l-0.7,0.4l-0.4,0.3l-0.3,0.1l-0.3,0.3v3.2l0.1,0.2l0.1,0.4l0.3,2.6l-0.5,2.9l0.2,0.7
			l0.1,1.1l0.3,1.6l0.2,1.1l0,0.4l-0.2,0.9l-0.4,1.1l0,0.7l-0.1,0.6v0.9l0.1,0.9l0,1l-0.2,0.9l-0.3,1.6l0.5,0.8l0.2,0.6l0,1.3
			l-0.6,2.4l-0.3,0.5l-0.4,0.4l-0.1,0.3l-0.5,1.4l0,0.6l-0.4,1.4l-0.6,1.3l-0.5,2.5l0.2,1.6l0.3,2.8l0,0.4l-0.2,0.8l-0.2,0.4
			l-0.2,0.2l0,0.1l-0.4,1.4v0.9l0.1,0.2l0,0.5l-0.8,3.8l-0.2,0.6l0.1,0.2l0.2,1l-0.2,0.7L145.1,208.3z"/>
	</g>
	<g id="Stroke-10">
		<path class="st1" d="M323.9,224l-0.7-0.3l-1.2-1.3l-0.3-0.5l-0.5-1.1l-0.1-0.4v-0.8l-0.2-0.3l-0.4-0.9l-0.6-1.2l-0.5-0.8l-6.1-0.8
			l-2.8-0.3l-3.6-0.5l-0.7-1.4l0.2-0.4l0.7-0.8l0.6-0.4l0.3-0.6l0.3-0.4l0.6-1.4l0.6-1.3l1.4-2.4l1.6-5.1l0.2-0.8l0.2-0.6l0.4-0.6
			l0.5-0.4l0.6-0.4l2-0.7l0.4-0.1h5.2l0.3,0.1l3.1,1l0,0.1l0.8,0.7l0.1,0.5l0.9,2.6l0.7,0.9l0.4,0.3l0.3,0.3l0.9,1.6l0.4,0.9
			l-0.2,1.1l-0.2,0.3l-1.1,0.3l-0.6-0.3l-0.3-0.2l-0.2-0.2l-0.8-0.5l-2.3,2.6l0.6,0.2l0,0l0.2-0.1l1-0.7l1.1-0.2l0.3,0.1l0.4,0.4
			l0.2,0.3l0.3,0.3l0.2,0.3l1.2,2.4l0.5,1.7l0.4,1.2l0.3,0.5l0.3,0.3l1.5,2.1l1.3,1.6l0.3,0.7l0.2,0.8v0.2l0.6,1.6l-0.9,1.3
			l-1.5,0.1L323.9,224z M324.3,222l8.4,0l-0.2-0.5l-0.1-0.8l-0.2-0.3l-1.2-1.4l-1.5-2.1l-0.2-0.2l-0.2-0.3l-0.4-0.8l-0.5-1.3
			l-0.5-1.7l-0.3-0.7l-0.7-1.2l-0.2-0.2l-0.7,0.5l-0.3,0.1l-0.1-0.1l-0.3,0.3h-0.5l-0.4-0.1l-1.7-0.7l-0.6-0.9v-0.6l0.2-0.7l3-3.5
			l0.3-0.2l0.3-0.1l0.7-0.1l0.1,0l-0.1,0l-1-1.4l-0.4-1.1l-0.6-2l-2.5-0.8h-4.9l-1.7,0.6l-0.5,0.4l-0.2,0.3l-0.1,0.7l-0.5,1.9
			l-1.2,3.8l-0.3,0.4l-1.1,1.9l-0.6,1.2l-0.7,1.6l-0.3,0.4l-0.3,0.7l-0.2,0.2l1.6,0.2l2.8,0.3l6.6,0.9l0.8,0.5l0.1,0.3l0.6,0.9
			l0.7,1.3l0.4,0.9l0.2,0.3l0.2,0.6v0.9l0.5,1.1L324.3,222z"/>
	</g>
	<g id="Stroke-11">
		<path class="st1" d="M146.2,149l-0.4,0l-0.4-0.1l-0.3-0.1l-0.3-0.2l-0.5-0.1H142l-0.7-1.7l0.5-0.5l0.5-0.6l0.2-0.8l0-1l0.5-1.9
			v-0.3l0.3-0.7l0.7-0.7l0.2-0.3l0.2-0.8l0.3-1.8l0.4-0.9l0.3-0.7v-0.7l-0.1-0.5l1-1.2h0.6l0.5-1v-1.1l-0.3-0.7l-0.1-1l0.2-0.6
			l-0.1-0.6l0.1-0.6l0.5-0.7l2-2l1.8-1.3l-0.1-0.6l-0.2-0.5l1.2-1.3l0.8,0.2h0.9l0.1-0.1l2.7,0l2.2,0.2l0.9,1v0.5l-0.3,0.7l-0.1,0.1
			l0.1,0.1l1.2,0.9l0.4,0.6l0.4,1.5l0.6,1.5l0.3,0.2l0.2,1.5l-1.6,1.8l-1.4,1.1l-0.8,0.9l0.6,0.3l0.4,0.5l0.2,0.9l-0.1,0.4l-1,0.7
			l-0.5,0L157,136l-1.7,0.4l-0.5,0.7l-0.5,0.6l0.4,0.2l0.3,0.2l0.5,0.5l0.2,1.1l-0.2,0.6l-0.2,0.3l-2,2l-0.4,0.2l-0.2,0.1l-0.1,0.4
			l-0.2,0.4L152,144l0,0l-0.3,0.2l-1.9,1.1l-0.1-0.1l-0.5,0.2l-0.2,0.5l-0.1,1l-0.3,0.6l-0.2,0.3l-0.3,0.5l-1.3,0.6L146.2,149z
			 M146,147L146,147l0.3,0l0.5-0.3l0.1-0.3l0.2-1l0.5-1.3l1-0.3l0.1-0.2l2-1.2l0.1-0.4l0.4-0.6l0.8-0.4l0.5-0.5l1-1l-0.2-0.1h-0.2
			l-1-1.2l0.3-1.3l0.2-0.4l0.6-0.7l0.6-0.9l0.6-0.4l2.3-0.5l-0.1-0.4l0.7-1.2l0.3-0.3l0.7-0.8l1.5-1.1l0.7-0.8l0-0.1l-0.8-2
			l-0.3-1.2l-0.9-0.7l-0.7,0.1l-1.1-1.2l0.1-0.6l0.3-0.5l-0.4-0.1h-2.4l-0.1,0.1h-0.7l0,0.3v0.5l-0.4,0.8l-1.2,0.9l-1,0.7l-1.8,1.8
			l0.1,0.7l-0.2,0.6l0.1,0.5l0.2,0.5l0.1,0.4v1.5l-0.1,0.4l-0.8,1.6l-0.6,0.5l-0.5,0.1v0.7l-0.1,0.4l-0.4,1l-0.4,0.8l-0.2,1.5
			l-0.3,1.1l-0.2,0.3l-0.5,0.7l-0.5,0.5l0,0.2l-0.5,1.9l0,1l-0.3,1.3l0.4,0l0.8,0.1l0.4,0.2L146,147z"/>
	</g>
	<g id="Stroke-12">
		<path class="st1" d="M414.7,417.7l-0.1-0.2l-1.3,0l-5.4-11.7l-12.8-27l0.5-1.4l41-16.3l7-31.9l-7.2-11.2l-0.2-0.6l0.1-1.6l0-0.2
			l-0.1-0.6v-0.5l-0.1-0.5l0-1.8l0.3-1.9l1-2.1l0.1-0.6l0.2-0.6l0.6-3.1l0.8-2.2l0.8-1.9l-0.2-1.3l-0.2-0.3l-0.5-1.1l0.5-1.3l2-1
			l0.6-0.1l0.4,0l1.4,0.2l0.8-0.2l1-0.3l-0.5-0.9l-0.4,0.1l-0.6,0l-1.1-0.4l-0.6-1.2l0.3-1.1l-0.1-1.3l-0.4-1l-0.3-1.4l0.2-0.8
			l0.3-0.4l0.1-0.3l-0.4-0.7l-0.2-0.6l-0.3-2.1l0-0.4l0.1-0.4l0.2-0.3l0.8-1.2l0.4-0.4l0.6-0.3l0.4-0.1l0.7,0l0.2,0.1h0.2l0.7,0.3
			l0.5,0.5l0.3,0.5l0.4,1.4l-0.6,0.4l0.5,0.8v-0.4l0.7-1l0.7-0.2l0.2-0.3l0.3-0.2l-0.1-0.3l0.3-1l0.3-0.2l0.7-0.3h0.3l0.9,0.5
			l0.2,0.4l0.6,1.5l1.5,3l0.4,0.9l1.4,2.4l0.3,0.3l0.3,0.2l0.8,0.7l1.6,2l0.1,0.3l0.2,0.6l0.5,0.8l0.6,0.6l3.1,2.7l0.7,0.5l5,1.7
			l4.6,1.4l0.8,0.3l0.1,0l0.9-0.1l0.6,0l1.3,0.2l0.9,0.3l0.5,0.1l0.4,0.2l0.8,0.7l0.2,0.1l0.4,0.1l1.1,0l0.1-0.2l0.9-0.4l1.2,0.1
			l0.3,0.1l0.8,0.4l2.9,2.8l1.2,1.7l1,0.9l1.2,2l0.4,0.9l0.2,0.3l1,1.4l0.6,0.3l1,0.8l0.3,0.4l1.2,2.6l1.3,1.5l1.3,1.1l0.5,0.4
			l0.2,0.1l1.2,0l2.1,0.5l0.7,0.5l0.5,1.1l0.3,1.1l0,2.5l-0.3,1.3l-0.5,1l-0.7,1l-0.7,2.6l-0.2,0.4l-0.8,0.8l-0.5,1.1l-0.5,0.7
			l-0.3,2l-1.4,3.2l-0.5,0.5l-1,0.5l-1.1,0.7l-1.1,0.9l-2.1,2.6l-0.8,1.1l-0.1,0.4l-0.4,0.8l-1,2.1l0.1,0.6l0.1,0.3l-0.1,0.9
			l-0.4,0.6l-1.2,1.2l-0.1,0.3l-0.1,0.9l-0.5,2.2l-0.2,0.4l-0.9,1l-0.5,0.3l-0.5,0.1l-0.4,0l-2-0.3l0-0.2l-0.4,0l-0.8-0.4l-0.3-0.2
			l-0.2-0.2l-0.3-0.8l0.1-0.8l0.2-0.4l0.2-0.2l0.1-0.4l-0.4,0.3l-0.2,0.7l-0.3,0.6l-0.2,0.3l-1.1,1.2l-1.5,2.6l0.2,0.3l0.1,0.3
			l0.1,1.2l-0.3,1.9l-0.6,2.3l-0.5,1.1l-0.4,0.6v0.2l1.1,3.7l0.4,0.9l0.2,0.8l0,0.7l-0.3,0.9l0.1,0.3l1.5,3.6l0,0.8l-0.5,1l-0.5,0.5
			l-1.3,0.5l-0.4,0.1l-0.7,0l-2.3-0.2l-2.6,0.5l-2.2,0.5l-1.2,0.5l-1.4,0.7l-1.3,0.9l-0.2,0.3l-1.8,2l0,0.1l-0.1,0.4l0.1,1.5l0,0.2
			l-0.3,1.8l-0.3,1.2l-0.3,1l0.1,1l-0.3,0.7l-0.5,0.5l-0.5,0.3l-0.4,0.1l-0.6,1l-0.8,0.9l0,0l-0.7,0.7l-0.9,0l-0.9-0.2h-0.5
			l-2.1,0.3l-0.8,0.3l-1.9,0.2h-0.7l-2,0.2l-2.3,0.7l-0.1,0.2l-0.1,0.6l-0.3,0.8l-0.1,0.5l-0.2,0.4l-0.3,0.4l-0.6,0.3l-0.3,0.3
			l-0.3,0.7l-0.1,0.4l0.1,0.1l0.4,0.3l0.5,0.7l0.1,0.4l0.1,0.3v0.5l-0.1,0.4l-1.2,3.1l-1.9,2.6l-0.9,0.6l-1.9,0.8l-1.4,0.4l-0.5,0
			l-1.3-0.4l-0.6-0.4l-0.4-0.5l-0.5-0.1l-0.4-0.1h-2.6l-3.8,0.4l-0.8,0.5l-1,1l-0.5,0.3l-1.4,0.4l-0.9,0.3l-0.5,0.6l-0.3,0.4
			l-1.1,0.9l-0.6,0.2h-1.9l-1.4,0.2l-2.2,0.7L414.7,417.7z M397.4,378.9l12.4,26l0.5,1.2l4.4,9.4l0.2-0.1l2.5-0.8l1.7-0.3h1.7
			l0.7-0.5l0.2-0.3l0.8-0.8l0.4-0.2l1.1-0.4l1.2-0.3l1.2-1.1l1.1-0.6l0.4-0.1l4.1-0.4l3,0l1.6,0.4l0.7,0.7l0,0.1l0.1,0.1l0.6,0.2
			l1-0.3l1.6-0.7l0.6-0.6l1.4-2l1-2.6l0-0.3l-0.1-0.2l-0.3-0.1l-0.4-0.3l-0.3-0.4l-0.2-0.7l0.2-1.2l0.4-1l0.2-0.4l0.6-0.6l0.6-0.3
			l0.1-0.4l0.3-0.8l0.2-0.7l0.3-0.5l0.3-0.3l0.4-0.3l0.3-0.2l2.7-0.8l2.3-0.3h0.7l1.6-0.2l0.8-0.3l2.4-0.3l0.9,0l0.7,0.2l0.7-0.8
			l0.6-0.9l0.3-0.3l0.7-0.4l0.2-0.1l-0.1-0.5l0-0.4l0.4-1.3l0.2-1l0.3-1.6l-0.1-1.5l0-0.3l0.2-0.8l0.3-0.6l0.7-0.9l0.4-0.4l1.1-1.4
			l1.7-1.2l1.5-0.8l1.5-0.6l0.6-0.1l2.3-0.6l2.4-0.4l0.6,0l2.3,0.2l0.7-0.3l0.1-0.3l-1.6-3.9l0-0.8l0.3-0.9V372l-0.1-0.3l-0.4-0.8
			l-1.2-4.2v-0.6l0.2-0.6l0.6-0.8l0.3-0.7l0.5-1.9l0.2-1.6l-0.1-0.6l-0.2-0.4l-0.1-0.5v-0.6l0.2-0.5l0.4-0.7l1.3-2.3l1-1.2l0.2-0.4
			l0.2-0.8l0.4-0.5l0.6-0.5l1.2-0.6l0.8-0.1l0.6,0.3l0.4,0.3l0.4,0.8l0,0.6l-0.4,1.4l-0.2,0.4l0,0l0.1,0l0.1,0.1l0.2,0.1l0,0.1
			l1.6,0.2l0,0l0.5-0.6l0.4-1.9l0.2-1.1l0.2-0.6l0.2-0.4l1.2-1.2l0-0.1l-0.1-1l0.1-0.5l1.7-3.7l0.9-1.2l2.3-2.8l1.3-1.1l1.3-0.8
			l0.8-0.4l1.2-2.7l0.3-2l0.1-0.4l0.5-0.8l0.5-1.1l0.2-0.3l0.7-0.7l0.7-2.5l0.1-0.3l0.7-1.1l0.3-0.7l0.2-0.9v-2l-0.2-0.6l-0.2-0.4
			l-1.6-0.4l-1.2,0l-0.5-0.1l-0.3-0.1l-0.8-0.5l-1.5-1.3l-1.5-1.8l-0.3-0.6l-0.1-0.3l-0.8-1.7l-0.7-0.6l-0.6-0.3l-0.3-0.2l-0.4-0.5
			l-1.2-1.7l-0.1-0.3l-0.1-0.4l-0.2-0.5l-1-1.7l-0.9-0.8l-1.2-1.7l-2.6-2.5l-0.2-0.1l-0.4,0l-0.2,0.2l-0.5,0.3l-0.5,0.1l-1.6,0
			l-0.9-0.2l-0.7-0.4l-0.6-0.6l-0.7-0.2l-0.5-0.2l-0.4,0l-0.9-0.1l-0.7,0.1l0,0l-0.5,0.2l-1.1-0.3l-0.4-0.2l-4.3-1.3l-5.4-1.9
			l-0.9-0.6l-3.3-3l-0.6-0.8l-0.7-1l-0.1-0.3l-0.2-0.6l-0.2-0.2l-1.2-1.4l-1-0.8l-0.6-0.7l-1.6-2.7l-0.4-0.9l-1.4-2.9l-0.2,0.1
			l-0.3,0.4l-0.3,0.2l-0.5,0.2l-0.2,0.6l-0.5,0.6l-0.6,0.4l-0.5,0.1l-0.5,0l-0.6-0.2l-0.3-0.1l-0.4-0.4l-1.2-2l-0.1-0.8l0.1-0.4
			l0.3-0.1l-0.1,0l-0.2,0.1l-0.4,0.6l-0.3,0.4l0.3,2.2l0.4,0.8l0.1,0.9l-0.5,1.1l-0.1,0.2l0.2,0.9l0.4,1.2l0.1,1.7l-0.1,0.5l0,0
			l0.9-0.1l0.5,0.1l0.6,0.5l1.3,2.4l-0.2,1.2l-0.3,0.3l-0.4,0.2l-1.8,0.6l-1.1,0.3l-0.4,0l-1.4-0.2l-0.3,0.1l-0.8,0.4l0,0.1l0.1,0.1
			l0.3,0.6l0.3,1.9l-0.1,0.5l-0.9,2.1l-0.7,2l-0.6,3.1l-0.2,0.6l-0.2,0.8l-1,2l-0.2,1.4v1.4l0.1,0.5v0.5l0.1,0.6v0.4l-0.1,1.4
			l7.2,11.2l0.1,0.8l-2.7,12l-4.5,20.8l-0.6,0.7L397.4,378.9z"/>
	</g>
	<g id="Stroke-13">
		<path class="st1" d="M448,271l-0.9-0.2l-0.6-0.4l-0.2-0.1l0-0.1l-0.8-0.7l-0.2-1.3l-0.1-1.6l0-0.2l0.2-1.2l0.1-1.4l0-0.1l-0.1,0
			l-1.4-1.2l0.1-0.5l1-2.5l0.3-0.5l1.4,0l0-0.1l0.6-1l0.5-0.7l1.8,0.6v0.8l0.3,0.2l0.2,0.1l0.6,0.9v1.6l-0.8,0.5l0,0l0.4,0.8l0,2
			l-0.2,0.7v0.2l-0.1,0.4l-0.3,0.7l-0.3,1.1l-0.7,0.7v0.5l0.1,0.2l-0.7,1.3L448,271z M447.2,266.7l0.1,1.2l0.4-0.5l0.3-0.2l0.3-0.9
			l0.2-0.5l0-0.4l0.2-0.7v-1.1l-0.4-0.3l-0.4-0.2l-0.5-0.6l-0.3-0.9l0-0.1l-0.4-0.1l-0.2,0.5l0.4,0.1l0.6,1.1l0.1,0.5l-0.1,1.9
			L447.2,266.7z"/>
	</g>
	<g id="Stroke-14">
		<path class="st1" d="M376.8,288l-1.9-0.4l-0.6-0.3l-1.6-1.9l-0.7-1l0.3-1l-0.1-0.1l0.1-0.4l-0.3-1.7l-0.7-2.2l-0.8-1.5l-0.1-0.7
			l-0.5-5.2l0.3-0.8l0.3-0.4l0.3,0l-0.1-0.2l0.9-1l-0.1-0.3l-0.1-0.9l0.1-0.5v-0.4l0.2-0.6l0.4-0.5l0,0l0-0.5l0.5-1.8l0.5-1.2
			l0.3-0.4l1.8-1.5l0.9-0.5l1,0l0.9,0.5l0.6,0.4l0.3,0.4l0.2,0.4l0.1,0.4v0.3l0.4,0.7l0.3,0l0.5,0l0.4,0.1l0.3,0.2l0.8,0.6l0.4,0.5
			l0.6,2.4v1.4l-0.1,0.4l-0.5,1.1l-0.6,0.5l0,0.2l-0.1,0.7l0,0.1l0.2,0.3l0.3,0.8l0.1,1l-0.1,0.5l0.4,0.1l0.4,0.3l0.4,0.6l0.4,1.7
			l0.1,2.6l0,0.3l-0.6,1.8l-0.7,1l-0.3,0.9l0,0.4l-0.3,1.6l-0.2,0.4l-0.9,1.3l-0.4,0.3l-0.5,0.2l-1.4-0.9l-0.2,0.3l-0.3,0.3
			l-0.8,0.5L376.8,288z M375.6,285.7l1.2,0.2l0.3-0.2l0.2-0.4l0.2-0.2l0,0l0.1-0.3l0.7-0.4l0.5-0.1h0.8l0.6,0.3l0.2-1.1l0-0.6
			l0.5-1.4l0.7-1l0.4-1.2l-0.1-2.3l-0.2-0.9h-0.1l-0.7-0.3l-0.2-0.2l-0.3-0.5l-0.1-0.5l0-0.3l0.1-0.7l-0.1-0.5l-0.1-0.2l-0.2-0.2
			l-0.2-0.4l-0.2-0.7l0.1-0.8l0-0.3l0-0.5l0.1-0.4l0.5-0.6l0.3-0.1l0.2-0.5v-1.1l-0.4-1.7l-0.4-0.3l-0.6,0.1l-0.9-0.3l-0.4-0.4
			l-0.8-1.2l-0.2-0.5v-0.4l-0.5-0.3l-0.4,0.2l-1.4,1.1l-0.4,1l-0.4,1.4l0,0.1l-0.1,0.1l0.4,0.3l0,0.5l-0.1,0.5l-0.7,0.3v0.3
			l-0.1,0.4l0,0.5l0.1,0.2l0.9,0.8l-0.3,0.6l-0.5,0.5l-0.8,0.3l0.1,0.7v0.4l-1,1l0.4,3.8l0.1,0.1l0.7,1.3l0.7,2.5l0.4,2l-0.1,0.6
			l-0.2,0.4l0.2,0.2L375.6,285.7z"/>
	</g>
	<g id="Stroke-15">
		<path class="st1" d="M318.9,434.6l-1.8-0.6l-0.1-3.4l-0.6-13.2l-11.9-5.3l-7-3l-7.9-3.6l-0.8-0.1l-2.4,0.2l-1.4,1l-2,0.7l-0.6,0
			l-2.6-0.8l-0.4-0.2L279,406l-1.1-1l-0.5-0.7l-1.3-0.5l-0.6-0.1l-0.1,0l-0.3,0.3l-0.3,0.2l-0.7,0.3l-0.7,0.7l-0.7,0.8l-0.3,3.4
			l-0.2,3l0.4,1.2l0.7,2.2l0.1,0.6l-1.1,1.2l-0.5-0.1l-0.2,0.5v0.5l-0.3,0.7l-2.1,2.3l-0.3,0.2l-1.5,0.7l-0.5,0.1l-1.3-0.9l-0.1-1.1
			l-0.6-0.8l-0.2-0.3l-0.3-0.8l-0.1-0.3l0-0.8l0.1-0.2v-0.2l-0.9-1.7l-0.2-0.3l-0.6-0.2l-0.4-0.2l-0.6-0.6l-0.3-0.7v-1.6l-1.1-1
			l-1.4,0.4l-0.5-1l-0.5-2.9v-1.1l-0.1-1.1l-0.1-0.4l-1.5-1.4l-1.5-1.8l-2.8-2.3l-0.5,0l-0.9-0.4l-0.4-0.3l-0.8-1l-0.9-1.1l-1.3-2.3
			l-0.1-0.6l-0.8-0.8l-0.2-0.3l-0.2-0.5l-1-1.7l-0.3-1v-0.4l-0.1-0.7l-1-1.3l-0.3-0.1l-1-0.5l-0.4-0.4l-0.8-1.4l-0.1-0.6l0.1-1.1
			l0.2-0.6l-0.2-0.1l-0.6-0.5l-0.6-1.3l-0.1-0.6l0.3-1.4l-0.4-0.1l-0.5-0.3l-0.4-0.5l-0.2-0.3l-0.2-0.8l-1.4-4.1l-1.5-1.2l-1.1-1.1
			l0-1.2l0,0l0.1-0.5l-0.1-0.5l-0.4-0.6h-0.5l-0.8-0.4l-2.1-2.8l-1-0.5l-2.5-1.7l-1.9-1.6l-0.8-1l-0.1-0.1h-2.3l-0.6-0.2l-1.2-0.8
			l-2.3-1.9l-1-1.4l-1.6-3.1l-0.5-0.3l-0.4-0.6l-0.2-0.8l0.1-0.1l-0.5-0.2l-0.4-0.4l-1.4-1.5l-1.8-3.4l-0.7-2.2l0-0.7l0.7-1.9v-0.6
			l-0.1-0.4l-0.2-0.4l-0.8-1.3l-0.1-0.3l-0.4-1.7l-0.4-0.9l-0.2-0.3l-0.3-0.5l-0.2-0.6l0.1-4.6l0.2-1.8l0.8-2.4l-0.7-3l-1.6-2.8
			l0-0.2l-0.8-1.1l-0.8-1.3l0.5-0.6l-0.3-0.3l-1.8-3.2l-0.8-1.3l-0.3-1.2v-0.5l-0.1-0.9l-0.4-0.7l-0.6-0.6l-0.2-0.1l-0.7-0.6
			l-1.1-2.8l-0.4-1.3l-2.8-2.6l-1.6-1.3l-0.6-0.4l-0.9-0.2l-0.3-0.2l-4.2-3.1l-0.9,0.6H187l-0.4-0.1l-1-0.5l-0.3-0.2l-0.7-0.8
			l-0.7-1l-0.1-0.7l0.1-0.4l0-0.2l-1-1.5l-0.2-0.5l-0.5-0.8l-0.3-0.3l-0.5-0.6l-0.3-0.2l-0.3-0.3l-1.4-2l0.8-1.6h0.6l0.2-1.2
			l-0.5-2.4l-0.2-0.5l-0.2-0.2l-0.3-0.2l-0.3-0.3l-0.8-1.1l-0.8-1.5l-0.2-0.8v-0.3l-2-3.2l-1.2-1.2l-0.5,0.3l-1-0.5l-0.4-0.4
			l-0.8-1.4l-0.2-0.6l0-0.7l0.2-0.6l0.3-0.8l-0.2-0.4l-0.9-0.2l-0.2-0.1l-0.6-0.2l-0.4-0.3l-0.6-0.7l-0.3-0.6l-0.2-0.8l-4-7.4
			l-0.9-1l-0.7-0.4l-0.3-0.4l-0.9-1.8l-0.1-0.5l-1.5-1.2l-1.8-2.4l-0.4-0.9l-0.1-0.6l0.1-0.2l-0.9-1.3l-1.2-0.6l-0.3-0.3l-0.4-0.5
			l-0.7-0.9l-0.9-1.6l-0.3-1v-0.5l-0.1-0.2l-2.6-3.8l-0.3-0.3l-1-1.2l-0.3-0.2l-0.3-0.3l-0.4-0.7l-1-0.6l-0.4,0l-0.4,0.3l-0.6,0.2
			h-0.3l-0.8,0.1l-0.6-0.1l-1.3-0.7v0.4l-0.2,0.6l-0.2,0.3l-1.6-0.1l-0.8-1.1l-0.1-0.8l0.1-0.5l0.2-0.4l0.5-0.6l0.6-1.7l0.6-1.5
			v-0.3l0.1-0.3l0.7-1.8l-0.1-1.1l-0.1-0.4l0-0.4l0.4-3.2v-0.5l0.4-3.9l0-0.2l0-0.1l0.1-1.1l0.1-0.5l0.5-2l0.3-0.5l0.1-0.1l0.8-0.3
			l3.2,0.5l12,2.2l2.3-2.1l2.8-2.6l3-5.8l0.7-0.5l9.8-2.2l1.7-4.9l0.4-0.5l3.4-2.1l-5.9-6.4l-1.1-1.3l-2.8-3.1l-4.4-4.6l0.4-1.6
			l2.6-0.9l3.7-1.1l3.2-0.9l3.7-1.2l6.7-2l6.8-1.9l0.5-0.6l1.7-1.7l0.9-0.3l4.1,0.9l13,2.5l0.3,0.1l15.1,9.4l9.5,4.4l14.5,11.4
			l11.2,9.1l13.4,10.8l23.5,2.1l1.4-0.5l0.6,0l0.6,0.1l2.8,0.4l2.8,0.3l6.6,0.9l0.8,0.5l0.1,0.3l0.6,0.9l0.7,1.4l0.4,0.9l0.2,0.3
			l0.2,0.6v0.9l0.5,1.1l0.8,0.8h8.2l1.4-0.1l0.8,0.3l1.2,0.7l0.5,0.7l0.3,1.3l0.1,1.3l1.4,3.3l0.7,1.1l3.5,3.4l0.3,0.6l0.1,1.1
			l-0.2,0.7l-0.4,0.5l-0.3-0.1l0.2,0.5l0.3,0.1l0.3-0.2l0.9,0l0.5,0.3l1,1l1.2-0.1l0.3,0l0.7,0.1l0.5,0.2l1,0.9l0.3,0.4l0.3,0.6
			l-0.9,1.4h-0.2l0.2,0.2l2.2,2.8l0.2-0.2l1.2-0.3l0.5,0.2l0.4,0.4l1.2,1.9l0.7,1.2l0.4,0.3l2.1,1.3l0.4,0l0.7,0.1l0.5,0.3l3.2,3
			l0.3,0.7v0.4l-1.5,0.8l-0.6-0.4l0.1,0.5l0.5,1.2l0.4,0.2l0.9,0.3l0.5,0.4l0.6,0.9l0.1,0.3l0.3,1.3v2l-0.1,0.4l-0.6,1.3l-0.6,0.5
			l-0.5,0.1l-1-0.4l0,0.2l1.5,1.4l0.3,0.6l0.1,0.7l0.3,0.7l0.5,0.7l0.4,0.3l0.3,0.3l0.7,1.3l0.1,0.5v0.5l-0.3,0.1l0.9,1.2l0.8,0.7
			l1,0.2l0.5,0.2l0.4,0.4l0.3,0.4l0.8,2.3l0.6,3.1l0.4,0.2l0.4,0.3l0.5,0.8l1.3,1.9l0.2,0.4l0.3,1.5l1,0.2l0.7,0.9l1.4,1.6l1.3,0.2
			l0.4-0.2l0.3-0.4l0.2-0.2l0.9-0.3l0.7,0.2l0.8,0.4l0.1,0.2l0.9-0.6h0.5l0.6,0.2l0.6,0.5l0.2,1.3l-1.1,1.5l-1,1l-0.2,0.4l0.3-0.1
			h0.9l0.3,0.1l0.5,0.2l0.5,0.2l0.3,0.3l0.2,0.2h0.1v0.1l0.1,0.2l-0.1,0.1l1.1,0.5l0.1,2.1l15.1,18.7l35.6,4.9l0.4-0.6l1.7,0
			l7.5,11.5l0.1,0.8l-2.7,12l-4.5,20.8l-0.6,0.7l-41.8,16.4l-11,2.9l-34,9l-9.8,12.9l-8.7,11.6L318.9,434.6z M291.1,404l7.2,3.2l7,3
			l12.5,5.5l0.6,0.9l0.7,14.5l12.4-16.4l8.7-11.6l10-13.2l0.5-0.4l45.3-12l41.1-16.2l7-31.8l-6.5-9.9l-0.8,0.4l-36.6-5l-0.6-0.4
			l-15.6-19.3l-0.2-0.6l-0.1-1.4l-0.2-0.1l-0.4-0.3l-0.3-0.3l-0.4-0.2H382l-0.1,0.1l-0.7,0.3h-0.6l-0.3-0.1l-0.4-0.1l-0.6-0.8
			l-0.1-0.6l0-0.5l0.5-1.4l0.2-0.4l0.2-0.3l-0.8-0.4l-0.1-0.6l-0.2,0.2l-0.9,0.5l-0.7,0.1l-2-0.4l-0.6-0.3l-1.9-2.2l-1.2-0.3
			l-0.5-0.8L371,284v-0.3l-0.2-1.1l-1.6-2.3l-0.2,0.1l-0.3-0.1l-0.6-0.7l-0.7-3.9l-0.7-1.9l-1-0.2l-0.5-0.3l-1.1-1.1l-2.7-3.5
			l0.5-0.6l-0.7-1l-0.4-1.1l-0.1-0.4l-1.5-1.4l-0.3-0.5l-0.4-1.9l0.1-0.7l0.6-1l1.3-0.4l0.5,0.2l0.4,0.4l0.1,0.2V259l-0.2-0.8
			l-0.3-0.4l-1.1-0.3l-0.6-0.3l-0.5-0.5l-0.7-1.8l-0.6-2.2l0-0.6l0.1-0.6l0.3-0.1l-0.6-0.5l-0.4-0.1h-0.4l-0.6-0.2l-1.1-0.8
			l-1.4-0.8l-0.7-0.7l-0.7-1.3l-0.8-1.2l-0.3,0.3l-1,0.3l-1.2-0.7l-0.1-0.3l-2.2-2.8L345,241l0.3-1.4l-0.3,0l-0.4,0l-0.4-0.1
			l-0.4-0.2l-0.8-0.8l-0.1,0l-0.7,0.1l-1.1-0.2l-0.7-0.6l-0.9-2l-0.1-0.5l0.1-1.1l0.3-0.6l-2.7-2.6l-0.8-1.4l-1.6-3.8l-0.1-1.4
			l-0.2-0.8l-0.8-0.5l-1.2,0.1l-8.7,0l-0.7-0.3l-1.2-1.3l-0.3-0.5l-0.5-1.1l-0.1-0.4v-0.8l-0.2-0.3l-0.4-0.9l-0.6-1.2l-0.5-0.8
			l-6-0.8l-2.8-0.3l-3.3-0.5l-1.3,0.5l-0.5,0.1l-24-2.1l-0.5-0.2l-26.9-21.7l-12.4-9.6l-9.4-4.3l-15-9.4l-4.5-0.8l-8.4-1.6l-3.5-0.8
			l-1.2,1.3l-0.7,0.8l-0.5,0.3l-7.1,2l-7,2.1l-3.4,1.1l-3.2,0.9l-4.8,1.5l3.4,3.5l2.9,3.2l1.1,1.3l6.6,7.3l-0.2,1.5l-4.1,2.6
			l-1.8,5.1l-0.7,0.6l-9.9,2.2l-2.8,5.5l-0.2,0.3l-2.9,2.8l-2.7,2.4l-0.8,0.2l-12.5-2.3l-2.3-0.4l-0.4,1.7l-0.1,1.1l-0.4,3.9l0,0.4
			l0,0.1l-0.4,3.1l0.1,0.5l0.1,1.4l0,0.4l-0.7,1.9v0.3l-0.1,0.4l-0.6,1.6l-0.4,1.2l0.3,0l1.7,1l0.8-0.1l0.5-0.3l0.4-0.1l0.3-0.1h0.7
			l0.5,0.1l1.5,0.9l0.4,0.4l0.4,0.8l0.3,0.2l0.3,0.3l1.6,1.9l2.5,3.7l0.1,0.3l0.2,0.8v0.5l0.2,0.5l0.2,0.3l0.5,1l0.8,1.1l1.2,0.7
			l0.3,0.3l1.3,1.9l0.1,0.4l0,0.5l0,0.2l0.2,0.5l1.5,2l1.4,1.2l0.3,0.4l0.2,0.6l0.1,0.4l0.6,1.2l0.7,0.5l1.2,1.4l1.4,2.5l2.9,5.2
			l0.2,0.8l0.1,0.2l0.2,0.3l0.8,0.2l0.6,0.1l0.6,0.3l0.4,0.5l0.2,0.4l0.2,0.9v0.4l-0.1,0.4l-0.5,1.1l0.1,0.2l0.6,1l0.2,0.1l0.6-0.3
			l0.8,0.4l1.7,1.7l2.3,3.5l0.2,0.5v0.5l0.1,0.2l0.2,0.3l0.5,0.9l0.6,0.8l0.4,0.3l0.4,0.4l0.2,0.3l0.4,1l0.5,2.5l0,0.3l-0.2,1.8
			l-0.3,0.6l-0.5,0.5l0.4,0.6l0.4,0.3l1,1.2l0.7,1.3l0.1,0.3l0.9,1.3l0.2,0.4l0.1,0.6l0,0.6l0.4,0.6l0.4,0.4l0.3,0.1l0.5-0.5
			l1.2-0.1l1.1,0.8l3.7,2.7l0.8,0.2l0.3,0.1l0.9,0.6l1.6,1.4l3.1,2.8l0.3,0.4l0.5,1.5l0.9,2.2l0.5,0.3l1,1l0.6,1l0.2,0.5l0.1,1.2
			v0.5l0.2,0.6l0.7,1l1.7,3l0.2,0.1l0.3,0.3l1,1.6L208,316l0.2,0.2l0.2,0.6l1.6,2.8l0.8,3.4l0,0.5l-0.8,2.5l-0.1,1.4l-0.1,4.3
			l0.5,0.6l0.6,1.4l0.3,1.6l1.1,1.8l0.1,0.3l0.2,0.8l0,1.1l-0.1,0.5l-0.5,1.4l0.6,1.8l1.7,3.1l1.2,1.2h0.1l0.6,0.2l0.5,0.4l0.3,0.5
			l0.2,0.5l-0.3,0.5l0.4,0.3l0.3,0.4l1.7,3.2l0.8,1.1l2,1.6l0.9,0.6h2.2l0.4,0.1l0.5,0.2l0.3,0.2l0.5,0.5l0.5,0.6l1.6,1.4l2.3,1.6
			l1,0.5l0.4,0.3l1.9,2.6h0.5l0.8,0.4l0.4,0.5l0.6,0.8l0.2,0.4l0.2,0.7l0,0.6l-0.2,0.6l0.5,0.5l1.6,1.2l0.3,0.5l1.8,5.1l0.6,0.1
			l0.6,0.4l0.3,0.4l0.2,0.8l-0.3,1.7l0.3,0.6l0.2,0.1l0.6,0.5l0.4,1.1l-0.4,1.1l0,0.5l0.5,0.9l1.1,0.6l0.4,0.3l1.3,1.8l0.2,0.4
			l0.1,1.5l0.2,0.5l0.2,0.4l0.7,1.1l0.2,0.5l0.9,1l0.3,0.7v0.2l1.1,2l1,1.1l0.5,0.6l0.3,0.1l0.1,0l0.9,0.2l3.4,2.8l1.5,1.8l1.6,1.5
			l0.3,0.4l0.3,1l0.1,1.4v1l0.3,1.4l0.6,0.1l2.2,2l0.3,0.7v1.6l0.2,0.2l0.8,0.4l0.3,0.3l0.5,0.6l1,2l0.1,0.5l0,0.9l-0.1,0.2v0.2
			l0.1,0.4l0.7,0.9l0.2,0.6l0.3-0.1l1.7-1.9l0-0.5l0.4-1.3l0.6-0.7l0.4-0.1l-0.4-1.3l-0.5-1.3l-0.1-0.4l0.3-3.3l0.4-3.7l0.2-0.5
			l0.9-1.1l1-1l0.5-0.3l0.4-0.2l0.5-0.4l0.5-0.3l0.6-0.1l1.3,0.2l1.6,0.6l0.3,0.2l0.5,0.5l0.4,0.6l1,0.9l2.1,0.6l1.6-0.5l1.3-0.9
			l0.5-0.2l2.8-0.3l0.2,0l1.4,0.2L291.1,404z"/>
	</g>
	<g id="Stroke-16">
		<path class="st1" d="M167.5,161l-2.7-0.6l-1.9-0.3l-0.3-0.1l-1-0.1l-0.6-0.3l-0.8-0.8l-0.4-0.3l-1.2-0.9l-0.6,0.1l-0.7-0.2
			l-0.6-0.3l-0.4-0.3l-1-1.3l-0.3-0.7l-0.6-0.6l-1.8-0.3l-0.7,0.4l-0.4,0.3l-1.6-0.8l0-0.9l0.1-0.4l-0.4-0.7v-0.4l-0.2-0.3l0.1-0.1
			l-0.1-1l-0.2,0l0.1-0.4l0-3.1l0.1-1.2l-0.6-0.6v-0.5l0.5-0.9l2-1.2l0.1-0.4l0.4-0.6l0.8-0.4l0.5-0.5l1-1.1l-0.2-0.1h-0.2l-1-1.2
			l0.3-1.3l0.2-0.4l0.6-0.7l0.6-0.9l0.6-0.4l2.2-0.5l-0.1-0.4l0.7-1.2l0.3-0.3l0.7-0.8l1.4-1.1l0.7-0.8l-0.1-0.1l-0.8-2l-0.3-1.2
			l-0.9-0.7l-0.7,0.1l-1.1-1.2l0.1-0.6l0.3-0.5l-0.4-0.1h-2.4l-0.1,0.1l-1.4,0l-0.9-0.2l-0.6-0.5l-0.4-0.9l-0.2-0.6l-0.9-2.4
			l-0.2-0.7l-0.1-1.3v-1.9l0.1-0.5l0.6-1.2l0-0.1l-0.1-0.1l-0.3-0.6l-0.3-2.3l-0.5-0.5l-0.9-0.3l-0.6-0.5l-0.6-1.4l0-0.9l0.5-0.9
			l0.7-1.4l0.3-2.1l0.5-1.1l1.3-0.5l2.4,1l0-0.1l0.4-0.9l0.8-0.6l0.8-0.1l0.3-0.1l-0.3-2.1l0-0.4l0.2-0.6l0.8-0.7l1.4-0.2l0.3-0.1
			l0.6,0l0.3,0.1l-1.2-1.5l-0.2-0.3l-0.3-1l0-0.4l0.3-2.2l0.8-3.3l0.2,0l0.7-1.1l0.9,0l3.4,0.9l1,0.5l0.7,0.6l1,0.7l1.6-0.1l1.4,0.1
			l1.9-0.3l0.4-0.2l1.5-0.8l0.8-0.2h0.7l1.3-0.4l1.4-0.8l0.3-0.1l1-0.6l1.4-0.6l1-0.1l2,0.2l0.9,0.2l1.3,0.6l0.5,0.3l2.1,1.8
			l0.3,0.2h0.4l2.1,0.1l0.3,0l0.3-0.2l0.4-0.1h0.5l0.3,0.1l1.7,0.6l0.3,0.1L194,88l2.5-0.4l4.8-1l1.5-0.5l1-0.4l2.6-1.2l0.8-0.4
			l2-1.5l0.6-0.2h0.3l0.2-0.1l1.5-0.7l0.8-0.4l1.2-0.4l0.7-0.1l1.9,0l2.6,0.5l1.3,0.4h1.9l2.3-0.2l3.8-0.6l1.9-0.7l0.9-0.5l0.6-0.6
			l0.4-0.5l0.8-0.4l0.7,0l1.2,0.2l0.4,0.2l0.8,0.6l0.4,0.6l0.3,1.7l0.4,0.6l-0.1,0.7h0.1v0.1l-0.2,0.7l-6.5,7.4l-0.5,0.3l-5.2,1.1
			l-1,2.1l0.1,4.4l0.1,0.1l1.6,2.7l0.4,0.9l0.5,3.4l-0.1,0.7l-1.1,1.9v0.5l0.1,0.7l0,0.4l-0.1,0.4l0,0.4l-0.4,2.2l0.3,1.4v0.7
			l0.3,2.3l0.4,2.2l-0.1,0.6l-1.4,2.8l-0.9,2.9l-0.5,0.6l-4.4,2.6l-8.6,5l-2.6,1.6l-3,1.6l-2.3,1.5l-5.6,3.3l-5.5,3.5l-2.7,1.8
			l-10.8,7.2l-4.4,3.1l-3.7,2.4l-0.3,0.4L167.5,161z M163.4,158.1l1.7,0.3l2.2,0.5l0,0l0.2-0.2l3.8-2.5l6-4.3l9.1-6l2.7-1.9l5.6-3.5
			l5.6-3.3l2.4-1.5l3-1.6l2.6-1.6l12.7-7.5l0.9-2.8l1.3-2.6l-0.3-1.9l-0.4-2.6v-0.6l-0.3-1.4l0-0.8l0.1-0.5l0.3-2.2l-0.1-0.7v-0.9
			l0.1-0.5l0.5-0.9l0.6-1l-0.4-2.9l-0.2-0.4l-1.7-2.8l-0.2-0.5l-0.2-4.9l0.1-0.5l1.3-2.7l0.7-0.6l5.4-1.2l5.9-6.8l-0.2-0.4l-0.1-0.3
			l-0.2-1.4l-0.3-0.2l-0.7-0.1l-0.2,0.2l-0.9,0.9l-0.4,0.2l-0.8,0.4l-2.3,0.9l-5,0.8h-0.3l-1.2,0.1l-2.3,0l-1.4-0.4l-2.5-0.5h-1.5
			l-0.3,0.1l-1.1,0.4l-0.5,0.3l-2.1,0.9l-0.5,0.1l-0.1,0.1l-1.9,1.4l-0.7,0.4l-4,1.8l-1.5,0.5l-5,1l-2.5,0.4l-0.2,0.1l-0.5,0.1
			l-1-0.2l-0.4-0.2l-1.2-0.3l-0.3,0.2l-0.4,0.1h-0.6l-2.1-0.1l-0.6,0l-0.5-0.1l-0.8-0.5l-2.1-1.8l-0.3-0.2l-1-0.4l-0.5-0.1l-1.8-0.2
			l-0.5,0.1l-0.9,0.4l-0.8,0.6l-0.3,0.2l-0.3,0.1l-1.4,0.8l-1.9,0.5h-0.7l-0.2,0.1l-1.8,1l-0.3,0.1l-2.4,0.4l-1.4-0.1l-0.1,0
			l-1.6,0.1l-0.7-0.2l-1.4-1l-0.7-0.6l-0.5-0.3l-2.5-0.7l-0.6,2.6l-0.2,1.9l0.2,0.6l0.2,0.2l1.5,1.7l0.3,0.7v0.9l-0.7,1l-0.9,0.2
			l-0.7-0.1l-0.4-0.2l-0.2-0.1l-0.3,0.1l-0.8,0.1l0.2,2.1v0.5l-0.5,0.9l-1,0.5l-0.4,0.1l-0.4,0l-0.1,0.2l0,1l-0.1,0.5l-0.6,0.7
			l-0.3,0.1l-1.3-0.5l-0.2-0.3l-1.7-0.7l0,0.1l-0.3,2.2l-1,2.1l0.2,0.5l0.7,0.2l0.4,0.3l0.9,0.9l0.3,0.5l0.4,2.3l0.4,0.7l0.1,0.5
			l-0.1,0.7l-0.7,1.3v1.6l0.1,1.1l0.1,0.5l1.2,3.1l0.4,0.1h0.9l0.1-0.1l2.7,0l2.1,0.2l0.9,1v0.5l-0.3,0.7l-0.1,0.1l0.1,0.1l1.2,0.9
			l0.4,0.6l0.4,1.5l0.6,1.5l0.3,0.2l0.2,1.5l-1.6,1.8l-1.4,1.1l-0.8,0.9l0.6,0.3l0.4,0.5l0.2,0.9l-0.1,0.4l-1,0.7l-0.5,0l-1.4-0.4
			l-1.6,0.4l-0.5,0.7l-0.5,0.6l0.4,0.2l0.3,0.2l0.5,0.5l0.2,1l-0.2,0.6l-0.2,0.3l-1.9,2l-0.4,0.2l-0.2,0.1l-0.1,0.4l-0.2,0.4
			l-0.4,0.2l0,0l-0.3,0.2l-0.8,0.5l0.1,0.5l-0.1,0.5l-0.1,1.2l0,3.3l-0.1,0.3l0.1,0.2l0.2,0.6v0.3l0.3,0.6l0.7-0.1l0.4,0.1l1.9,0.4
			l0.5,0.2l1,0.9l0.3,0.4l0.3,0.7l0.7,0.8l0.4,0.1l0.2-0.1l1.1,0.1l2.2,1.7l0.6,0.6l1,0.1L163.4,158.1z"/>
	</g>
	<g id="Stroke-17">
		<path class="st1" d="M153.3,104.9l-1.3-0.5l-0.2-0.3l-2.6-1.1l-0.5-1.4l0.4-0.8l-0.2-0.6l-0.2-0.3l-1.4-2l-1-1.2l-0.2-0.6v-0.4
			l0.1-0.5l0.5-0.8l1.3-1.5l1.7-1.7l1.7-0.9l0.1-0.3l-0.4-1.7l-0.4-0.4l-0.4-0.6l-0.7-0.6l-0.2,0l-0.3,0.3l-0.5,0.7l-1.1,1.1
			l-0.4,0.3l-0.6,0.2l-1.2,0l0.2,0.2l0.2,0.8v0.5l-0.5,0.8l-0.6,0.3l-0.6,0.3l-1.1-0.2l-0.2-0.1l-0.7,0.3l-0.6,0.5l-1,0.1l-2.4-1.3
			l-2.3-1.3l-0.5-0.2l-0.6-0.1v-0.2l-1-0.2l-0.2-0.4l-0.4-0.2l-0.6-0.3h-0.6l-0.3,0.1l-0.2,0.1l-0.3,0.1l-0.6,0.2l-1.1,1.1l-2.3,1.7
			l-0.4,0.6l-0.2,0.4l-0.2,0.3l-1.1,1.1l-0.4,0.5v0.1l-0.1,0.4l-0.5,1.1l-0.3,0.4l-0.5,0.4l-0.8,0.2l-1.3-0.3l-0.2,0.2l-1.5,1.5
			l-0.9,0.3l-0.7-0.1l-0.6,0.5l-0.7,0.2h-2.3l-1,0.3l-3.5,0.5l-1.1-0.1l-0.6,0.3l-0.5,0.5l-0.7,0.3h-0.6l-1.5-0.1l-0.4-0.1l-1.3-0.8
			l-0.5,0l-0.6-0.2l-2.1-1.4l-1.4-1.5l-1.1-1.4l-0.8-1.3l-0.6-0.6l-0.6-0.7l-0.6-0.4l-2.4-0.6l-0.3-0.1l-1-0.7l-2.2-1l-3.2-1.8
			l-0.7-0.2l-4-0.6H80L79.2,88l-0.7,0.1L77.8,88l-0.6-0.4L77,87.9l-0.3,0.5l-0.1,0.7l0.1,1.7l0,0.2l-0.3,2.3L76,94.4l0.1,0.2
			l0.3,0.7v0.4l-0.1,0.5l-0.9,1.6l-0.3,0.4l-1.7-0.2l-0.1-0.3L73,97.5L72.1,97h-0.7L71,97.7l-0.6,0.2L66,99.4l-0.5,0l-0.1,0l0,0
			l-0.2,0.1l0,0l-1.5,0.3L63,98.9l-0.4-0.3l-0.7-0.1L59.4,98l-0.7-0.3l-0.6-0.5l-0.3-0.3L57,96.4l-0.5-0.2l-0.4-0.3l-0.5-0.6
			l-0.2-0.4l-0.4-1.5l0-0.4L54,92.1l0-1.1l0.1-0.4l0.3-0.3L53.8,90l-0.2,0.2l-0.2,0.4l-1.2,0.5l-2.6-0.9l-0.5-0.4l-0.8-1.4l-0.9-0.5
			l0,0.1l-0.5,0.6l-1.3,0.2l-0.3-0.2l0,0.7l-0.6,0.7l-2,1.9l-0.3,0.2l-1.2,0.5l-1.1-0.3l-0.2-0.3l-0.2-0.3l-0.1-0.4l0.4-1l0,0l0-0.9
			l-0.4,0l-1.5-0.1l-0.5,0l0,0.1l-0.1,0.3l-0.8,0.7l-2.1,0.3L34.6,91l-1.1,0.2L32,90.6l-0.6-0.7l-0.1-0.3l0.5-1.1l1.3-0.8l0.5-0.1
			H34l3.2-0.5l2.3-0.2l0.8-0.3l0.4-1.3l0.2-0.2l-2.3,0.1l-2.3,0.3l-2.2,0.1l-0.4-0.1l-0.9-0.4l-0.5,0.2l-0.2,0.3l-0.3,0.3l-0.4,0.2
			l-0.4,0.1l-0.7,0L30.2,86l-0.6-0.6l-0.4-1.6v-0.5l0.3-0.7l1.2-1.3l0.7-0.3H32l0.6,0.2l0.5,0.4l0.5-0.2l0.1-0.4h-0.4L32.8,81
			l-1-0.6l-0.2-0.2l-0.3-0.3l-0.2,0.1L30.2,80l-0.5-0.1l-0.6-0.2l-0.6-1.2l0.2-0.9v-0.8l-0.4-1.6l-0.3-0.9l0.5-2.1l0.2-0.3l0.1-0.7
			l-0.1-1.2l0.1-0.3l0-0.5L25.7,68l-0.4,0.1H25l-0.7-0.3l-1.6-1.5l-0.5-0.6l-0.1,0l-0.4,0.4l-0.1,0.5l-1,0.9h-0.3l-0.4-0.1l-0.6-0.3
			l-0.3-0.2l-1.4-1.4l-1.1-0.1l-0.4-0.1l-0.4-0.2l-0.5-0.5l-0.3-0.7V62l0.7-0.9l0.3-0.1l1.3,0.7l0,0.1l0.3-0.2l-1.4-0.6l-0.5-2.1
			l-0.1-1v-0.5l0.6-0.9l0.6-0.3l0.4-0.1h1l0.7,0.3l0.6,0.6l0.6,0.5l0.2,0.2l0.7,1.1l0.1,0.4l0.3,1.3l-0.3,0.4l0.4,1l0.8-0.5l0.8-0.3
			l0.2,0l-0.4-0.4L21,58.1l-0.2-0.4l-0.2-1.4l0.6-1.1l1.1-0.4l0.8-0.8l-0.6-0.1L21.7,53l-0.2-0.3l-0.2-0.4l-0.1-0.4v-0.8l0.5-0.8
			l0.3-0.2l-0.2-0.3l-0.4-0.1l-0.5-0.4l-0.4-0.6l-1-0.7L19,46.9l0.3-0.6l0.3-0.4l1.7-1.5l0.9-1l-0.2,0h-0.7l-1,0.1h-0.4l-6.7,1.6
			l-0.6,0L12.2,45l-0.3-0.2l-0.5-0.4l-0.4-1l0.4-1.8l0.4-0.6l0.2-0.1v-0.5l-0.4-3.7l0-0.7l0.1-0.4l0.5-1l0.9-0.5h0.4l0.3,0.1
			l0.4-0.2l0.4-0.9l0.2-0.8l0.5-0.9l0.5-0.5l0.8-0.3l1-1l0.7-0.8l0.2-0.4l0.7-0.6l1.6-0.3l1.2,0l1,0.2l0.1,0l0.3-0.4l0.4-0.4
			l0.7-0.3h0.4l2-0.1l0.9,0.5l0.5,0.9l1.3,0.8l0.8,0.3l0.3,0l0.5-0.1H33l-1.3-1.4l0.1-1.5l0.8-0.5l0.4-0.1l0.4,0l1.5,0.1l2.1,0.5
			l0.7,0.7l0.1,0.4l-0.1,0.6l0.9-0.2h0.6l0.7-0.1l3.2,0.1l0.3,0l0.2,0l1.8,0.4l0.8-0.4l0.6-0.1l-0.5-0.3l-0.5-1.3l0.2-0.5l0.5-0.5
			l1.2-0.5l0.2-0.3l0.5-0.3l0.8-0.3l2.2-0.3h1.1l1-0.4l-0.4-0.3l-1.1-0.9l-1.2-0.5l-0.3-0.2L50.5,21l-1.2-0.8l-0.4-0.6l-0.3-1l0-0.5
			l0.2-0.6l0.4-0.8l0-1.1l0.2-0.2l0.4-0.6l0.2-0.2l0.4-0.3l0.4-0.1l0.7-0.1l0.4,0l0.9,0.1l2.6,0.5l1.2,0.3l0.4-0.1l0.3,0l1.8,0.3
			l1.5,0.2l1.5,0.1l2.2,0l0.9-0.8l0.9-0.3l0.6,0.1l0.4,0.2l0.5,0.4l1.7,0.5l1.3,0.2l1.9,0.7l1.5,0.1l2.6,0l1.7-0.1l0.6-0.4l0.3-0.3
			l0.3-0.4L80,15l0.1-0.9l0.3-0.6l1.6-1.4l0.3-0.2l0.7-0.3l2.2-1.2L87.8,9l1.8-0.9l0.1-0.2l1.1-1.5l0.4-0.3l4.1-1.8l0.4-0.1h0.7
			l0.2-0.1L97.2,4l2.7-0.6l0.4-0.4l1.2-0.6l2-0.6l1.3-0.6l0.4-0.1l1,0l2,0.3l0.6,0.2h0.3l1.5,0.1l0.4,0l0.2,0l0.7,0.1h1l1.1-0.1
			l1.7,0l1.9,0.5l0.8,0.1h0.6l2.5-0.1l0.2,0l0.7,0.1h1.1l0.3-0.1l0.6-0.1l0.3-0.2l0.4-0.4l0.1-0.2l0.4-0.8l0.9-0.6h0.7l0.4,0.1
			l0.4,0.2l0.3,0.2l1.4,0.6l0.2,1.7L129.7,3l0,0.2v0.4l0.4,0.7l1.1,1.3l0.6,0.6l0.3,0.1l2.4,1.1l1,0.3l0.5,0l0.2-0.1l1.8-0.5
			l1.1-0.4l0.9-0.5l0.5-0.1h0.4l0.5,0.1l1.4,0.8l0.4,0.4l0.7,0.9l0.3,0.5l0.1,0.4l0.1,0.9l0,0.2l-0.1,0.5l0,0.1l0.6,0.7l1,1l1.4,1.1
			l0.9,0.5l0.7-0.5l0.3-0.6l0.7-0.6l1.5-0.3l0.5,0l1.2,0.2l0.7,0.3l1,0.4l1.2,0.6l0.4,0.4l0.3,0.6l0.2,0.9l0.8,0.2l1.1,0.1h0.7
			l0.5,0.1l2.7,1.6l0.3,0.1l0,0l0.1-0.3l0.5-0.8l0.3-0.2l0.9-0.3l1,0.2L166,16l0.4,0.3l0.4,0.6l0.1,0.5l0.1,0.1l0.8,0.5l1.2,0
			l2.3,0.6l2.4,0.6l0.2-0.1l0.8-0.1l0.2,0.1l1-0.1l2.2-0.4l0.5-0.6l0.5-0.3l1.9-0.6l0.4,0l0.8,0.1l1.1-0.3l0.1-0.1l1.2-0.4l0.6,0.2
			l0.3,0.2l0.4-0.1l0.7-0.3l0.2-0.2l1-0.3l1.1,0.4l0.9,0.6l1.5,0.7l0.1,0l0.6,0l2.6,0.9l2.5,0.6l0.1-0.1l1.4-0.5l0.8-0.4l0,0l0,0
			l0.1-0.3l0.5-0.3l0.9-0.4l1.6-0.3l0.5-0.3l1-1l0.6-0.5l1-0.5l0.7-0.1l0.5,0.1l2.7-1.5l0.8-0.7l1.3-0.8l0.5-0.1l0.2,0l1.2-1.9
			l0.8-0.5l0.8,0l2.1,0.5L218,10l0.8,0.6l0.1-0.2l0.4-0.4l1-0.6l0.6-0.1l1.6,0.3l1.1,0l1.6,0.3l0.5,0.2l1.4,0.5l0.4-0.5l0.2-0.9
			l0.4-0.6l0.1-0.1l0.4-0.2l0.8-0.2h0.4l2.1,0.1l0.7,0.4l0.9,1.2l2.2,2.1l1.4,1l1.4,1.7l1.1-0.2h0.3l0.3,0.1l1,0.4l0.4,0.2l0.3,0.4
			l0.3,0.5l0.1,0.8l-0.1,0.3l0.3,0.6l0.6,0.3h0.3l0.7,0.3l1.1,1.1l0.2,0.3l1.4,3l0.1,0.3l0.1,1.3l0,0.4l-0.3,0.9l-0.6,1.4l-0.3,0.4
			l-0.3,0.2v0.2l0.4,1l1,1.6l1,2l-0.3,0.7l2.6,1.1l0.6,0.1h0.8l3.1-0.6l0.6,0.1l1.7,0.8l1.5,0.8l1,1l0.3,0.5l0.1,0.2l0.2,0.4
			l0.7,0.4l2.1,1.7l0.3,0.4l0.2,0.3l0.3,0.7l0.1,0.6L262,42l-1.1-1.1l-1.2-0.8l-0.5,0.4l0.1,0.3l0,0.3l-0.3,3.4l-0.5,0.8l-0.5,0.3
			l-1,0.5l-0.4,0.1l-0.5,0l-1.2-0.3l-0.3-0.1l-0.3,0l2.2,3.1l0.2,0.7l-0.2,1.5l-0.2,0.5l0.1,0.2l0.5,1l0.2,0.1h0.2l0.8,0.5l0.4,0.7
			l0.1,0.5l0,0.5l-0.3,1l0.8,1.5l0.1,0.3l0.3,1.8l0,0.4l-0.1,0.6l0,0.1l0.8-0.1l0.8,0.3l0.8,0.9l0.2,1l-0.1,0.4l-0.8,1.7l-1.5,3.9
			V69l0.3,0.1l4.1,1.8l0.4,0.3l0.6,0.8l0.1,1.1l-0.1,0.3v0.9l0.4,2.1l0.1,0l0.4,0.2l2.7,2.2l0.3,0.7l0,0.6l-0.2,1.8l-1.6,0.7l0,0
			l-0.1,0l-0.2-0.1l-1-0.2l-0.3,0.2l-0.1,0.1l-0.2,0.3l-1.2,1l-1.1,0.5l-0.1,0.2l-0.3,0.6l-1.2,0.6l-0.8-0.3l-0.5-0.4l-1.1-1.8
			l-0.1-0.9l0.3-1l0.3-0.3l0-0.2l-0.2-0.3l-1.2-0.6h-0.9l-0.1,0.2l-0.2,0.5l-0.3,0.4l-0.8,0.5l-1.5,0.1l-2.7-0.1l-2.1-0.5l-4.5-1.9
			l-1.6,0.4l-0.4,0.2l-0.4,0.1l-0.8,0l-0.5-0.2l-1.1-0.5l0,0l-1.4,2.7l0,0l-0.7,0.8l-0.6,0.1l-2,0.6l-1.4-0.5l-0.2-0.5l-0.2-1.4
			l-0.3-0.2l-0.7-0.1l-0.2,0.2l-0.9,0.9l-0.4,0.3l-0.8,0.4l-2.3,0.9l-5,0.8h-0.3l-1.2,0.1l-2.3,0l-1.4-0.4l-2.5-0.5h-1.5l-0.3,0.1
			l-1.1,0.4l-0.4,0.3l-2.1,0.9l-0.5,0.1l-0.1,0.1l-1.9,1.4l-0.6,0.4l-3.9,1.9l-1.5,0.5l-5,1l-2.5,0.4l-0.2,0.1l-0.6,0.1l-1-0.2
			l-0.4-0.2l-1.2-0.3l-0.3,0.2l-0.4,0.1h-0.6l-2.1-0.1l-0.6,0l-0.5-0.1l-0.8-0.5l-2.1-1.8l-0.3-0.2l-1-0.4l-0.5-0.1l-1.8-0.2
			l-0.5,0.1l-0.9,0.4l-0.8,0.6l-0.3,0.2l-0.3,0.1l-1.3,0.8l-1.9,0.6h-0.7l-0.2,0.1l-1.8,1l-0.3,0.1l-2.4,0.4l-1.4-0.1l-0.1,0
			l-1.6,0.1l-0.7-0.2l-1.4-1l-0.7-0.6l-0.5-0.3l-2.5-0.7l-0.6,2.6l-0.2,1.9l0.2,0.6l0.2,0.2l1.2,1.4l0.3,0.3l0.3,0.7v0.9l-0.7,1
			l-0.9,0.2l-0.7-0.1l-0.4-0.2l-0.2-0.1l-0.3,0.1l-0.8,0.1l0.2,2.1l0,0.6l-0.5,0.9l-1,0.5l-0.4,0.1l-0.4,0l-0.1,0.2l0,1l-0.1,0.5
			l-0.6,0.7L153.3,104.9z M151.1,101.6l1.3,0.6l0-0.1l0.4-0.9l0.8-0.6l0.8-0.1l0.3-0.2l-0.3-2.2l0-0.4l0.2-0.6l0.8-0.7l1.4-0.2
			l0.3-0.1l0.6,0l0.3,0.1l-1.2-1.6l-0.2-0.3l-0.3-1l0-0.4l0.3-2.3l0.8-3.3l0.2,0l0.7-1.1l0.9,0l3.4,0.9l1,0.5l0.7,0.6l1,0.7l1.6-0.1
			l1.4,0.1l1.9-0.3l0.4-0.2l1.5-0.8l0.8-0.2h0.7l1.3-0.4l1.1-0.7l0.6-0.2l1-0.6l1.4-0.6l1-0.1l2,0.2l0.9,0.2l1.3,0.6l0.5,0.3
			l2.1,1.8l0.3,0.2h0.4l2.1,0.1l0.3,0l0.3-0.2l0.4-0.1h0.5l0.3,0.1l1.7,0.6l0.3,0.1l0.3-0.1l2.5-0.4l4.8-1l1.5-0.5l1-0.4l2.6-1.3
			l0.8-0.4l2-1.5l0.6-0.2h0.3l0.2-0.1l1.5-0.7l0.8-0.4l1.1-0.4l0.7-0.1l1.9,0l2.6,0.5l1.3,0.4h1.9l2.3-0.2l3.8-0.6l1.9-0.7l0.9-0.5
			l0.6-0.6l0.4-0.5l0.8-0.4l0.7,0l1.2,0.2l0.4,0.2l0.8,0.6l0.3,0.6l0.1,0.9l1.3-0.3l1.5-2.8l0.2-0.3l0.5-0.4l0.6-0.3l0.7,0l0.8,0.3
			l1.2,0.5l0.5-0.2l2-0.5l0.6,0l4.7,2l1.7,0.4l2.4,0.1l0.8-0.1l0.1-0.2l0.2-0.4l0.6-0.7l0.7-0.3h1.6l0.4,0.1l1.6,0.8l0.4,0.3
			l0.5,0.6l0.2,0.4l0.1,0.8v0.5l-0.5,0.7l-0.1,0.3l0.4,0.6l0.4-0.5l1.3-0.5l0.2-0.2l0.7-0.6l0.4-0.5l0.2-0.2l0.7-0.4l0.7-0.1
			l1.1,0.2l0.1-0.5l-0.1-0.1l-2-1.6l-0.5-0.2l-0.3-0.1l-0.5-0.7l-0.5-3v-1.3l0.1-0.4l-0.1-0.1l-4.8-2l-0.6-0.9v-1l0.1-0.3l1.6-4.2
			l0.7-1.5l0,0l-1,0.1l-0.8-0.3l-0.2-0.2l-0.2-0.4l-0.2-1l0-0.6l0.1-0.4l-0.2-1.4l-0.2-0.4l-0.7-1.2l-0.1-0.8l0.3-1.1l-0.5-0.2
			l-0.6-0.5l-0.3-0.3l-0.9-1.9l0-0.7l0.3-0.8l0.1-0.8l-2.1-2.9l-0.2-0.2l-0.4-0.5l-0.3-0.7v-0.3l0.4-0.8l0.5-0.4l0.5-0.2l1.6-0.1
			l0.6,0.1l0.4,0.2l0.6,0.1l0,0l0.6-0.3l0.2-2.7l-0.2-0.7l0.3-1.1l1-0.8l0,0l-0.5-0.8l-0.2-0.4l-0.7-0.7l-2.4-1.2l-3.1,0.6l-1.2,0
			l-0.9-0.2l-3.4-1.4l-0.3-0.2l-0.4-0.4l-0.1-1.3l0.3-0.4l-0.5-0.9l-1.1-1.8l-0.5-1.3l-0.1-0.4v-0.9l0.4-0.8l0.5-0.4l0.5-1.1
			l0.2-0.5l-0.1-0.9l-0.1-0.2l-1.2-2.4l-0.7-0.7h-0.1l-0.4-0.1l-1.1-0.5l-0.5-0.5l-0.5-1.1l-0.1-0.4l0.1-0.6l-0.6-0.2l-1.4,0.3
			l-0.9-0.4l-1.7-2.1l-1.3-0.9L234,13l-2-1.9l-0.7-0.9l-1.6-0.1l-0.2,0l-0.1,0.6l-0.2,0.4l-0.9,1.1l-0.8,0.4l-0.6,0l-2-0.7l-0.5-0.2
			l-1.2-0.2l-1.1,0l-1.3-0.2l-0.3,0.2l-0.1,0.2l-0.3,0.4l-0.6,0.5l-1.2,0.1l-1.4-0.9l-1.7-0.4l-1.1,1.7l-0.4,0.4l-0.7,0.3h-0.3
			l-0.9,0.5l-0.3,0.3l-0.6,0.5l-3.1,1.7l-0.5,0.1l-0.9-0.1l-0.6,0.3l-0.4,0.3l-1.2,1.1l-1,0.5l-1.5,0.3l-0.7,0.3l-0.1,0.1l-0.4,0.3
			l-1.1,0.6l-2.1,0.7h-0.3l-0.4-0.1l-0.3-0.1l-2.3-0.5l-2.4-0.8l-0.2,0.1l-0.7-0.1l-2-0.9l-0.9-0.6l-0.2-0.1l-0.4,0.2l-0.2,0.1
			l-0.3,0.2l-0.3,0.1l-0.6,0.2l-0.6,0.1l-0.5-0.1l-0.4-0.3l-0.3,0.1l-0.6,0.2l-1.2,0.3l-0.3,0l-0.8-0.1l-1.5,0.5l-0.7,0.7l-0.5,0.3
			l-2.6,0.4l-1.3,0.1l-0.4,0l-0.1,0.1l-0.7,0.1l-0.4-0.1l-4.5-1.1h-1.1l-0.5-0.1l-1.3-0.8l-0.4-0.4l-0.2-0.3l-0.2-0.6l-0.2,0
			l-0.1,0.1l-0.1,0.3L164,19l-0.5,0.2l-0.5,0.1l-0.4,0l-0.6-0.1l-0.3-0.1l-2.7-1.5l-0.6,0l-1.6-0.2l-1.1-0.4l-0.5-0.4l-0.3-0.4
			l-0.2-0.4l-0.2-0.9l-0.9-0.5l-1.4-0.6l-1.1-0.1l-0.6,0.1l-0.2,0.4l-0.3,0.4l-1.2,0.8l-0.3,0.1l-0.4,0.1h-0.5l-0.4-0.1l-1.5-0.8
			l-1.5-1.3l-1.1-1.1l-0.8-0.9l-0.2-0.5l-0.1-0.5l0-0.3l0.1-0.5L142,9.3l-0.1-0.2l-0.7-0.8l-0.7-0.4L140.3,8l-0.5,0.3l-1.3,0.5
			l-2.4,0.7l-1.1,0l-1.5-0.4l-2.6-1.1l-0.4-0.2l-0.8-0.8l-1.2-1.5l-0.6-1l-0.1-0.5l0-0.9l0.1-0.4l-0.5-0.2L127,2.1l-0.2,0.3L126.5,3
			l-0.9,0.8l-0.8,0.4l-1.2,0.3l-1.5,0l-0.7-0.1l-3.1,0.1l-0.1,0l-0.9-0.1l-0.7-0.1l-1.3-0.4h-1.2L113,3.9l-1.3,0l-0.7-0.1h-0.4
			l-1.5-0.1l-0.4,0l-0.3-0.1l-0.6-0.2L106,3.1h-0.6l-1.3,0.6l-1.9,0.6l-0.8,0.4L101.1,5l-0.5,0.3l-2.2,0.5h-0.3L97.3,6l-0.5,0.2
			h-0.8l-0.7,0.3l-3.1,1.3l-1.3,1.7l-0.3,0.3l-2,1l-3.1,1.8l-1.8,0.9l-0.6,0.2l-1.2,1l-0.1,0.8l-0.1,0.4l-0.4,0.7l-0.6,0.7l-0.6,0.5
			l-0.9,0.5l-0.4,0.1l-2,0.1l-2.7,0l-2-0.2l-1.9-0.7l-1.1-0.1l-2-0.5l-0.5-0.2l-0.3-0.3l-0.8,0.7l-0.3,0.2l-0.4,0.1l-0.3,0.1h-2.4
			l-1.5-0.1l-0.2,0l-0.2,0l-1.3-0.2l-1.6-0.2L56.9,17l-0.5,0l-1.3-0.4L51.9,16l-0.5,0.1l-0.2,0.3l0,0.1v0.4l-0.1,0.5l-0.5,0.9
			l0.1,0.4l1.2,0.9l1.4,0.6l1.2,1l0.7,0.5h1.5l0.2-0.1l0.3-0.1h1.8l2.9,0.3l0.4,0.1l0.7,0.9v0.5l-0.8,1l-0.6,0.1l-2.6,0.1L57.3,25
			l-1-0.4L56,24.8l-1.1,0l-1.5,0.6L53,25.4h-1.2L50,25.6l-0.3,0.1l-0.3,0.4l-0.5,0.3l0.3,0.2h0.2l0.4-0.2l0.4-0.1H51l0.7,0.2
			l0.9,0.8l0.1,1.4l-1,1.2L51,30.2l-1.1,0.1h-0.6l-0.5-0.1l-1.1-0.5h-0.6l-0.9,0.4l-0.6,0.1l-2-0.5h-0.3l-3-0.1l-0.6,0.1h-0.6
			L37.6,30l-1.2,0.3l-0.5,0l-0.4-0.1l-0.8,0.6L34.2,31l-0.8,0.1l-2,0l-0.5,0.1l-0.9,0L29.5,31l-0.8-0.3l-1.6-1l-0.4-0.4l-0.3-0.5
			l-1.4,0.1l-0.3,0.5l-0.7,0.5l-0.8,0.1l-0.4,0l-1-0.2h-0.8l-0.8,0.2L20,30.1l-0.9,1l-1.2,1.2l-0.4,0.2l-0.7,0.2l-0.2,0.5l-0.2,0.7
			l-0.6,1.3l-0.5,0.5l-1,0.5l-0.7,0l0,0.1v0.4l0.1,1.3l0.3,2.4v0.9l-0.2,0.6l-0.3,0.4l-0.3,0.3l-0.1,0.6l0.4-0.1l6.3-1.4h0.5l1-0.1
			h0.6l0.6-0.2l0.3-0.1h0.8l0.8,0.4l0.3,0.4l0.2,0.7l-0.1,1.1l-0.7,0.8l-0.2,0.1l-1,1.1L21.3,47l0.3,0.2l0.2,0.2l0.3,0.5l0.4,0.1
			l0.5,0.4l0.3,0.5l0.7,0.9l-0.3,1.4l-0.7,0.5l0.2,0.2l0.3-0.1l0.5-0.1l0.4,0l1.3,0.2l0.8,0.7l0.2,0.9l-0.6,1.2l-2,0.8l-0.9,0.9
			l-0.3,0.2l-0.5,0.2l0.1,0.4l0.1,0.1l2.2,2.4l0.2-0.1l0.9-0.1l1.5,0.1l0.8,1.4l-0.4,0.8l-0.6,0.5l-0.5,0.1l-3.4,0.5l-0.4,0.2
			l-0.8,0.5l0.8,0.3l0.9,1l1.1,1.1l0.2,0l0.6,0.1l3.6,1.5l0.4,0.3l0.4,0.7l0.2,0.7v0.7l-0.1,0.2l0.1,1.1l0,0.2l-0.1,1l-0.1,0.4
			l-0.2,0.4l-0.2,1.2l0.2,0.3l0.4,2.1l0,1.1l0,0l0.1-0.2l0.7-0.7l0.9-0.2l1,1.3l-0.2,0.8l0.6,0.4h0.1l0.5-0.1l1,0.4l0.5,0.6l0.2,0.9
			l-0.5,1.7l-0.6,0.7l-0.7,0.3l0.2,0.1l1.9-0.1l2.3-0.3l2.5-0.1l2.4-0.2H45l0.6,1.8l-1.7,1.1l-1.3,0.6l-0.2,0.5l0.1,0l0.4,0.1
			l0.3,0.4l0.2-0.7l0.9-0.6h0.4l0.7,0.3l0.4-0.5l0.9-0.3l0.8,0.1l2.1,1.3l0.5,0.6l0.1,0.4l0.4,0.6l1.5,0.5l0.7-0.9l1.3-0.2l1.8,1.2
			l0.3,0.3l0.5,0.9l-0.3,0.7l0.5,0.2l0.3,0.3l0.3,0.7v0.2l-0.1,0.4l-0.2,0.4l0.2,1l0.2,0.3l0.4,0.2l1.2,0.8l0.3,0.3l0.4,0.3l0.3,0.2
			l2.9,0.5l0.4,0.2l1,0.7l0,0l0.8-0.2l0.4,0.1l4.1-1.4l0.3-0.6l0.4-0.2L71,95h1.4l0.5,0.1l1.3,0.7l0.2-0.3l-0.2-0.4l-0.1-0.7
			l0.2-0.9l0.4-1l0.2-1.8l-0.1-1.7l0-0.2l0.1-1l0.1-0.4l0.7-1.1l0.5-0.5l0.5-0.3l0.5-0.1l0.8,0.1l0.7,0.4l0.4-0.1l1.1-0.1l1.5,0
			l0.8,0.1l3.5,0.6l0.9,0.2l0.3,0.1l0.4,0.3l2.7,1.5l2.4,1.1l1,0.6l2.6,0.7l0.9,0.5l0.3,0.2l0.6,0.8l0.7,0.8l0.8,1.3l1,1.2l1.3,1.4
			l1.8,1.2h0.3l0.5,0.1l0.3,0.1l1.1,0.7l1.1,0.1l0.1,0l0.6-0.5l1-0.5l0.5-0.1l1.2,0.1l3.1-0.5l1.2-0.3h2l0.6-0.5l0.7-0.2l0.9,0.1
			l1-1l0.6-0.7l1.1-0.3l0.8,0.3l0.3,0.1l0.3-0.7v-0.3l0.2-0.7l0.9-1l0.8-0.8l0.2-0.5l0.5-0.8l0.2-0.2l2.3-1.7l1.1-1.1l0.5-0.3
			l0.7-0.2l0.3-0.2l0.4-0.2l0.8-0.1h0.9l0.4,0.1l1,0.5l0.6,0.4l0.3,0.3l0.1,0.2l0.8,0.2l0.7,0.3l4.1,2.2l0.4-0.3l1.1-0.5l0.8,0
			l0.1,0.1l-0.4-1.1l0.6-0.7l0.4-0.4l0.6-0.3l0.9-0.1l1,0l0.9-0.9l0.5-0.7l0.3-0.3l0.6-0.5l0.9-0.2l0.9,0.3l0.3,0.2l1.1,0.9l0.5,0.6
			l0.5,0.5l0.2,0.4l0.1,0.4l0.4,2l0,0.4l-0.3,1l-0.7,0.7l-0.3,0.1l-1.4,0.8l-1.3,1.3l-1.3,1.6l0.7,0.9l1.8,2.7l0.4,1.1l-0.1,0.8
			L151.1,101.6z M31.7,83.1l-0.5,0.6l0.2-0.1l0.6-0.2L31.7,83.1z M18.3,63.5l0.6,0.3l1.2,1.2l0,0l0.8-0.9l0.4-0.3l-0.1,0l-0.7-0.4
			L20,63l-0.4-0.8l-0.4,0.6l-0.5,0.5L18.3,63.5z M18.1,59.5l0.8,0.2l0.3,0.2l0.3,0.2l-0.1-0.5l-0.5-0.8l-0.6-0.5L17.9,58h-0.2
			l0.1,0.5L18.1,59.5L18.1,59.5z M34.4,27.7L34.4,27.7l0.6,0.1l0.1-0.1L34.4,27.7L34.4,27.7z"/>
	</g>
	<g id="Stroke-19">
		<path class="st1" d="M436.4,320l-36.8-5.1l-0.6-0.4l-15.7-19.4l-0.2-0.6l-0.1-2.4l1-1h2l0.9,0.5l0.8,1.4l0.1,0.5v0.6l0.3,1.2
			l0.2,0.3l0.1,0l1.2,0l1.9,0.5l2-0.3l0.9-0.3l1.2-0.8l1-1l0.7-1l0.8-0.4h0.7l0.7,0.3l0.6,0.6l3.4,0l1.8,0.2l2-0.2l0.5,0.1l1.2,0.5
			l1-0.1l0.7,0l0.3,0.1l1.2,0.5l0.5,0.3l0.2,0.2l3.5-0.2l3.1-1.2l0.9-0.7l1-0.6l1.7-0.6l0.3-0.3l0.2-0.4l0.1-0.4v-0.5l0.2-0.6
			l0.4-0.5l1-0.4l0,0l0.8-2.7l-0.3-1.1l0.2-1l0.9-1l3.4-2.7l0.7-0.4l0.6-0.5l2.3-3.5l0.8-1.1l0.5-0.8l0.3-0.4l0.6-0.4l0.4-0.4l0.4-1
			V271l0.2-0.6l0.6-0.7l0.9,0.4l0.2-0.3l0.7-0.8l0.9-0.8l1.4-0.8l1.9-2.3l0.3-2.1v-0.5l0.6-0.9l1-0.4l1.2,0.4l0.6,1.1l0.1,0.6
			l-0.1,1.9l-0.2,1.1l0.1,1.5l0.1,0.5l0.2,0.1l0.4,0.3l0,0l0.6,0l0.9,0.4l0.3,0.2l0.3,0.3l0.2,0.4l0.4,1.4l0.1,1v0.5l0.2,1.2
			l0.1,0.3l0.1,0.3v3.9l0.4,1.4l-0.5,0.6l0.1,0.6v0.5l-0.7,0.9l-0.2,0.1l-0.4,0.4l-0.3,0.2l-0.5,0.2l-0.2,0.6l-0.5,0.6l-0.6,0.4
			l-0.5,0.1l-0.5,0l-0.6-0.2l-0.3-0.1l-0.4-0.4l-1.3-2l-0.1-0.8l0.1-0.4l0.3-0.1l-0.1,0l-0.2,0.1l-0.3,0.5l-0.4,0.5l0.3,2.2l0.4,0.8
			l0.1,0.9l-0.5,1.1l-0.1,0.2l0.2,0.9l0.4,1.2l0.1,1.7l-0.1,0.6l0.1,0l0.9-0.1l0.5,0.1l0.6,0.5l1.3,2.4l-0.2,1.2l-0.3,0.3l-0.4,0.2
			l-1.9,0.6l-1.1,0.3l-0.4,0l-1.5-0.2l-0.3,0.1l-0.8,0.4l0,0.1l0.1,0.1l0.3,0.6l0.3,1.9l-0.1,0.5l-0.9,2.2l-0.7,2l-0.7,3.1l-0.2,0.6
			l-0.2,0.8l-1,2l-0.2,1.4v1.4l0.1,0.5v0.5l0.1,0.6v0.4l-0.1,1.7l-0.2,0.5l-0.8,1.1L436.4,320z M400.3,313l35.8,4.9l0.3-0.4l0.1-1.4
			l0-0.2l-0.1-0.6v-0.5l-0.1-0.5l0-1.8l0.3-1.9l1-2.1l0.1-0.6l0.2-0.6l0.7-3.1l0.8-2.2l0.8-2l-0.2-1.3l-0.2-0.3l-0.5-1.1l0.5-1.3
			l2-1l0.6-0.1l0.4,0l1.4,0.2l0.8-0.2l1-0.3l-0.5-0.9l-0.4,0.1l-0.6,0l-1.1-0.4l-0.6-1.2l0.3-1.1l-0.1-1.3l-0.4-1l-0.3-1.4l0.2-0.8
			l0.3-0.4l0.1-0.3l-0.4-0.7l-0.2-0.6l-0.3-2.1l0-0.5l0.1-0.4l0.2-0.3l0.8-1.2l0.4-0.4l0.6-0.3l0.4-0.1l0.7,0l0.2,0.1h0.2l0.7,0.3
			l0.5,0.5l0.3,0.5l0.4,1.4l-0.6,0.4l0.5,0.9v-0.4l0.7-1l0.7-0.2l0.2-0.3l0.3-0.2l-0.1-0.3l0.3-1l-0.2-1v-3.9l-0.1-0.4l-0.2-1.6
			v-0.6l-0.1-0.7l-0.3-0.9l-0.3-0.1l-0.2,0l-0.8-0.1l-0.9-0.5l0-0.1l-0.9-0.7l-0.3-1.3l-0.1-1.7l0-0.1l-2.1,2.5l-0.3,0.2l-1.4,0.8
			l-0.6,0.5l-0.4,0.5v0.1l-0.6,0.9l-0.7,0.3l-0.5,0.1l-0.5,1.1l-0.9,0.8l-0.6,0.4l-0.4,0.8l-0.9,1.1l-0.7,1.3l-0.3,0.4l-0.7,0.9
			l-0.7,1.1l-1.2,1l-0.7,0.3l-3,2.4l-0.3,0.4l0.2,0.9l0,0.5l-1,3.7l-0.7,0.7l-0.4,0.1l-0.3,0.1l0,0.2l-0.1,0.6l-0.1,0.3l-0.4,0.8
			l-0.3,0.3l-0.6,0.5l-0.3,0.2l-1.8,0.6l-0.6,0.4l-0.8,0.7l-0.3,0.2l-3.7,1.3l-4.1,0.2l-0.5-0.1l-0.3-0.1l-0.4-0.4l-0.2-0.1
			l-0.8-0.3h-0.4l-1.2,0.1l-0.5-0.1l-1.1-0.5l-2.3,0.2l-0.1,0l-1.6-0.2h-3.6l-0.7-0.3l-0.5-0.4l-0.5,0.7l-1.3,1.3l-1.6,1l-1.4,0.5
			l-0.5,0.1l-1.7,0.2l-0.4,0l-2-0.5h-1.1l-0.3-0.1L400.3,313z M385.1,294.1l1,1.2l-0.3-1.1v-0.5l-0.4-0.6H385L385.1,294.1z"/>
	</g>
	<g id="Stroke-20">
		<path class="st1" d="M142.8,177l-0.4,0l-0.5-0.1l-0.6-0.5l-0.2-0.4l-0.1-0.5V175l0.1-0.4l0.5-1.3l-0.1-0.7l0-0.4l0.3-0.9l0.4-0.7
			l0.3-0.4l1.4-1.2l-0.5,0.1l-0.6,0l-0.4-0.1l0-0.1l-0.9-0.9v-0.5l0.2-2.1l0.1-0.3l0.1-0.4l-0.1-0.3l-0.4-1.4l0-0.8l0.5-1.4l0.1-1.7
			l0,0l-0.1-0.5l0-0.5l0.3-1.2l0.4-0.6l1.6-1.1l1.1-0.1l0.5,0.3h0.8l0.3,0.1l0.8,0.3l0.4,0.3l0.4,0.4l0.6,1l0.5,0.1l0.6,0.5l0.1,0.3
			l0.1,0.3l0.2,2.7l-0.4,3l0.2,0.7l0.1,1.2l0.3,1.6l0.1,1.1l0,0.4l-0.2,0.9l-0.3,1.1l0,0.7l-0.1,0.6v1l-1,1l-0.5,0l-1.4,1.2
			l-0.2,0.3l-0.3,0.3l-0.2,0.1l-0.4,0.1l-1,0.1L142.8,177z M143.5,172.6l0.1,0.7l0,0.4l-0.1,0.4l-0.3,0.8l2.7-0.3l0.1-0.1l0.2-0.2
			l1.7-1.5l0.6-0.3l0-0.4l0.1-0.6l0-0.8l0.5-1.8l-0.1-0.9l-0.3-1.6l-0.1-1.2l-0.2-0.7l0-0.4l0.4-3l-0.2-2l-0.3-0.1l-0.6-0.4
			l-0.8-1.2l-0.4-0.1h-0.9l-0.6-0.2l-0.8,0.6l-0.2,0.7l0,0l0.1,0.5l-0.2,2.4l-0.4,1.1l0,0l0.4,1.4l0.1,0.8l-0.2,1.1l-0.1,1.2
			l0.5-0.2l0.9,0.1l0.8,0.6l0.3-0.3h0.1l0.7,0.2l0.1,0.1l0.3,0.8v0.3l-0.6,0.6l0,0l-0.1,0.4l-0.8,0.7l-0.5,0.1l-0.5,0.4l-1.1,1
			L143.5,172.6z"/>
	</g>
	<g id="Stroke-21">
		<path class="st1" d="M286,485l-0.7-0.2l-0.4-0.2l-0.4-0.5l-0.1-0.3l-0.8-0.4l-1.7-0.6l-0.9-0.2l-0.5,0.6l-0.3,0.3l-0.3,0.1
			l-0.3,0.1l-0.1,0l-0.2,0v0l-1-0.1l-0.2-0.3l-0.3-0.8l0.1-1.4l0.1-0.4l-1.2-2.3l-0.7-1.2l-1.1-2l-0.5-0.7l-0.4-1l0-0.5l0.2-1.2
			l0.2-3.4l0-0.8l0-0.2l0.1-0.8l-0.1-0.7l-0.6-2.1l-0.4-0.3l-0.3-0.3l-1.3-1.1l-0.4-0.9l0.1-1.4l0-1.4l-0.6-1.9l-0.7-2.7v-1.5
			L270,451l-0.5-1.2l-0.3-1.6v-1.4l-0.1-0.8l-0.1-0.5l-0.9-2.4l-0.2-0.2l-0.8-0.4l-0.5-0.3l0,0l-0.3-0.1l0,0l-1-0.5l-0.1-0.5l0-0.6
			l0.2-0.7l0.3-0.4l0.4-0.4l0.8,0.1l0-0.1l-0.4-1.7l-0.4-0.8l-0.4-0.5l-0.2-0.4l-0.5-2.1l0-0.6l0.1-0.4l0.3-0.4l0.3-0.2l0.1-0.9
			l0.4-0.7l0.4-0.3l0.1-0.2l0.1-1.1l0-1.8l-0.6-3.5l-0.3-0.9l0.7-1.4l0.4-0.1l1-0.5l1.7-1.9l0-0.5l0.4-1.3l0.6-0.7l0.4-0.1l-0.4-1.3
			l-0.5-1.3l-0.1-0.4l0.3-3.3l0.4-3.7l0.2-0.5l0.9-1.1l1-1l0.5-0.3l0.3-0.2l0.5-0.4l0.5-0.3l0.6-0.1l1.3,0.2l1.6,0.6l0.3,0.2
			l0.5,0.5l0.4,0.6l1,0.9l2.1,0.6l1.6-0.5l1.3-0.9l0.5-0.2l2.8-0.3l0.2,0l1.4,0.2l0.8,0.4l7.1,3.2l6.9,3l12.4,5.6l0.6,0.9l0.6,14.5
			l12.3-16.4l8.6-11.6l9.9-13.2l0.5-0.4l45.2-12l1.2,0.5l12.8,27l0.5,1.2l4.9,10.5l-0.7,1.4l-1.2,0.2l-0.9,0.3l-0.5,0.5l-0.4,0.2
			l-0.3,0.1l-1.9,1l-1.8,0.4l-1.5,1l-0.3,0.3l-1.9,1.8l-0.8,1.4l-0.8,2.7l0.4,1.6l0.9,3.1l-0.1,0.8l-0.6,1.1l-0.5,0.5l-2.1,0.8
			l-1.2,0.5l-3.1,1.7l-0.3,0.2l0,0.2l-0.6,0.7l-1.2,0.5l-1.2,0.6l-3.3,1.6l-0.4,0.1l-1.1,0.4l-1.4,0.2l-2.8,0.7l-2.4,0.7l-1.9,0.3
			l-1.2,0.5l-0.6,0.4l-3.2,2.3l-0.5,0.2l-2,0.3l-0.6-0.4h-0.5l-5.8,2l-1.5,0.9l-2.3,1.2l-1.8,0.9l-0.4,0.2l-0.4,0.8l-0.2,1.1v0.3
			l-0.2,0.6l-2.2,2.9l-1.7,1.5l-0.2,0.3l-0.8,0.5l-0.4,0l-0.8-0.1l-0.7,0.1l-1.8,0.5l-1.8,0.3l-1.4,0l-0.6-0.1l-0.3-0.1l-0.6-0.3
			l-1.3-0.4l-0.7,0.3l-0.1,0.1l-0.3,0.5l-0.8,0.7l-1.1,0.6l-0.4,0.1l-0.6,0.1l-0.9,0.5l-0.4,0.6l-2.7,2.8l-0.4,0.3l-0.5,0.2
			l-0.8,0.1l-0.8,0.4l-1.3,0.4l-2.3,0.5l-0.9,0.3l-1.1,0.8l-1.3,0.7l-1.2,0.4l-3.3,0.4l-1.8,0l-0.7-0.1h-1.8l-3.1,0.3l-1.7,0.3
			l-2.3,0.8l-0.7,0.7l-0.3,0.4l-0.7,0.9l0,0.1l-0.1,0.3l-1.1,1.7l-0.3,0.3l-0.5,0.3l-1.3,0.3h-0.3l-0.4,0.1l-0.7,0.3l-0.5,0.5
			l-0.5,1.3l-0.2,1.6l-1.8,0.2l-0.2,0.5l-0.3,0.3l-0.7,0.3h-0.8l-0.3-0.1l-1.8-0.6l-0.3-0.2l-0.6-0.5l-0.5-0.1l-0.3,0.2l-0.3,0.1
			l-1.3,1.5l-0.5,0.3l-1.9,0.8l-1.5,0.3L286,485z M281,480.5l1.5,0.4l1.9,0.7l1.3,0.6l0.5,0.6l0.1,0.2l2.9-0.3l1.3-0.2l1.6-0.8
			l1.2-1.4l0.4-0.3l0.4-0.2l0.3-0.2l0.6-0.2l0.7,0l0.9,0.3l0.3,0.2l0.6,0.5l0.7,0.2l0.4-0.9l1.1-0.5l0.4-0.1h0.8l0.4-1.1l0,0
			l0.2-0.5l0.5-0.5l0.6-0.5l0.3-0.2l0.3-0.1l0.7-0.3l1.8-0.3l0.8-1.3l0-0.2l0.2-0.4l1.1-1.5l0.9-1l0.4-0.3l2.8-0.9l1.9-0.3l3.2-0.3
			l2,0l0.2,0l0.7,0.1h1.5l3-0.4l0.8-0.3l1.1-0.6l1.4-0.9l1.1-0.4l2.4-0.5l1.5-0.5l0.5-0.2l0.3-0.1l0.8-0.1l0.1-0.1l2.4-2.5l0.3-0.5
			l0.4-0.4l1.3-0.8l0.4-0.1l0.6-0.1l0.8-0.5l0.3-0.3l0.3-0.4l0.3-0.4l0.4-0.2l1.1-0.4l0.4-0.1l0.7,0l0.5,0.1l1.3,0.5l0.5,0.3
			l0.3,0.1h1l1.5-0.2l1.8-0.5l1.2-0.1l0.6,0.1l0.1-0.1l1.7-1.6l1.8-2.5l0-0.2l0.3-1.4l0.1-0.3l0.6-1.1l0.4-0.4l0.7-0.4l1.9-0.9
			l2.2-1.1l1.8-1.1l6-2.1l0.3-0.1h1l0.4,0.3l1.3-0.2l3.8-2.7l1.6-0.7l2.6-0.5l1.7-0.5l2.9-0.8l1.4-0.2l1.3-0.5l5.1-2.4l0.3-0.6
			l0.8-0.6l3.3-1.8l1.3-0.5l1.8-0.6l0.2-0.5l-1.3-4.7l0-0.5l1-3.2l1.1-1.9l2.4-2.4l2-1.2l0.5-0.2l1.5-0.3l2-1.1l0.3-0.3l0.5-0.3
			l1.4-0.4l-4.9-10.5l-12.5-26.2l-10.1,2.7l-33.9,9l-9.7,13l-8.6,11.6l-14,18.7l-1.8-0.6l-0.1-3.4l-0.6-13.3l-11.9-5.3l-6.9-3
			l-7.3-3.3l-0.5-0.3l-0.8-0.1l-2.4,0.2l-1.4,1l-2,0.7l-0.6,0l-2.6-0.8l-0.4-0.2l-0.2-0.2l-1.1-1l-0.5-0.7l-1.3-0.5l-0.6-0.1l-0.1,0
			l-0.3,0.3l-0.3,0.2l-0.6,0.3l-0.7,0.7l-0.7,0.8l-0.3,3.4l-0.2,3l0.4,1.2l0.7,2.2l0.1,0.6l-1.1,1.2L272,418l-0.2,0.5v0.5l-0.3,0.7
			l-2.1,2.3l-0.3,0.2l-0.9,0.4l0.1,0.2l0.6,3.8v2l-0.1,1.5l-0.2,0.5l-0.6,0.7l-0.2,0.1l-0.1,0.8l-0.3,0.6l-0.4,0.3l0.3,1.5l0.5,0.6
			l0.6,1.2l0.4,2l0.1,1.5l0,0.4l-0.2,0.5l0.2,0.1l0.3,0.2l0.5,0.5l0.2,0.3l1.1,2.8l0.2,0.8l0.1,1v1.4l0.2,1.2l0.3,0.8l0.6,1.3
			l0.1,0.4v1.7l0.6,2.3l0.6,2.3v1.6l-0.1,0.9l0.1,0l1.8,1.5l0.4,0.5l0.7,2.5l0.2,1l0,0.6l-0.1,0.6v0.8l-0.3,3.6l-0.2,1l0.2,0.6
			l0.4,0.5l1.1,2l0.7,1.2l1.3,2.6l0.1,0.5v0.4l0.1,0L281,480.5z"/>
	</g>
</g>
<g id="Group-3" transform="rotate(-180 136 77)">
	<defs>
		<filter id="Adobe_OpacityMaskFilter" filterUnits="userSpaceOnUse">
			<feColorMatrix  type="matrix" values="1 0 0 0 0  0 1 0 0 0  0 0 1 0 0  0 0 0 1 0"/>
		</filter>
	</defs>
	<mask maskUnits="userSpaceOnUse" id="mask-2_2_">
		<g class="st2">
			<path id="path-1_2_" class="st3" d="M-1-1h32.9v47.8H-1V-1z"/>
		</g>
	</mask>
	<g id="Fill-1" class="st4">
		<path class="st5" d="M15.5,46.8l13.4-20C36.6,15.1,28.9-1,15.5-1C2.1-1-5.7,15.1,2.1,26.8L15.5,46.8z"/>
	</g>
</g>
<g id="drop" transform="rotate(-180 217 154)">
	<defs>
		<filter id="Adobe_OpacityMaskFilter_1_" filterUnits="userSpaceOnUse">
			<feColorMatrix  type="matrix" values="1 0 0 0 0  0 1 0 0 0  0 0 1 0 0  0 0 0 1 0"/>
		</filter>
	</defs>
	<mask maskUnits="userSpaceOnUse" id="mask-4_2_">
		<g class="st6">
			<path id="path-3_2_" class="st3" d="M-1-1h32.9v47.8H-1V-1z"/>
		</g>
	</mask>
	<g id="Fill-1_1_" class="st7">
		<path class="st5" d="M15.5,46.8l13.4-20C36.6,15.1,28.9-1,15.5-1C2.1-1-5.7,15.1,2.1,26.8L15.5,46.8z"/>
	</g>
</g>
</svg>
