<svg width="546" height="485" xmlns="http://www.w3.org/2000/svg" xmlns:xlink="http://www.w3.org/1999/xlink"><defs><path id="path-1" d="M0 0h32.949v47.776H0z"/><path id="path-3" d="M0 0h32.949v47.776H0z"/></defs><g id="Page-1" stroke="none" stroke-width="1" fill="none" fill-rule="evenodd"><g id="Home-" transform="translate(-976 -214)"><g id="Group-2" transform="translate(977 215)"><g id="Map" opacity=".093" stroke="#231F20" stroke-linejoin="bevel" stroke-width="2"><path id="Stroke-1" d="M5.563 171.78l2.039.629H8.69l1.134-.234 1.184-.396 1.6-.63 1.807-.491.487-.131h1.367l.533.13h.255l1.274.363 1.136.395 1.878.61.486.15.371.13 1.806.232 2.019.262 1.76.364 1.623.38 2.41.651 1.506.248 1.158.136.349-.136.649.136.232.128.278.631.14.508.23.381.256.377.254.243.394.242h.233l1.506.514 1.274.267 1.88-.646.624-.5.255.258.418.756.115.626.116.512.278.244 3.778.376 1.113.153 1.135-.153.625-.109h.418l1.877.756 2.27.756.489.24.904.405.114.482 1.043.775 1.23.5.763.274.37.117h.767l.37-.117h.533l.488-.274.369-.104 1.138-.511 1.993-.905.531-.357.766-.656.255-.253.533-.372.742-.494.74-.651.766-.505 2.503-2.266.65-.514.253-.273.512.646.624 1.003 1.021.135.974-.377.137-.514v-1.134l.626-1.9.51.123-.231-.258-.28-.754.511.128.28.395.486.23.533.137h.231l.998-.245.277-.122 1.23-.395.532-.231.602-.28.51-.247.533-.139 1.483-.357-3.407 1.77-1.76.633-.372.508.766.248 1.993-.492 2.178-.128.856-.523.532-.5 1.253-.139.394-.123-.277-.758-.602-.364-.534-.132-.766-.135.532-.258 1.114-.132.533.132.719.13.534.263.625.23.996.39.14.123 1.25.634 1.275.639.534.122h.466l.995-.258 1.16-.364.74-.39.394-.234.533-.273.233-.123.346.247.533.383.118.523.394.489.37.401.395.62.368.136.374.238h.277l1.368 1.15-.512-.254-.74-.375-.393-.246-.118-.275h-.256l-.624-.374-.395-.382-.254-.518-.648-1.236-.372-.28-.625.28-1.021 3.78.419-.12.507.757 1.368 1.014.372-.374.65-.275h.255l.253.397v.878l.21.267.392.756.905.11v-.243l-.139-.134.766-.489.509.367h.394l.348-.367v-.633l.117-.128v-.646l-.326-.89-.278-.107h-.116l-.533-.14h.927l.74.14.976.997 1.043.885.231.255.254.389.766.743.6.264 1.047.146.624.237.882-.237 3.406-1.797 1.114-.623.532 1.512v.762l.902-.11.605-.396.788-.378 1.366-.767.65.255.347.267.648.122.742.123h.256l.532-.123h.465l.905-.26.879-.257.88-.238.882-.26.649-.374.857-.382.765-.378 1.413-1.164.139-.102.208.508.51 1.243.394.91 1.9 5.057 1.369 2.786 1.273 3.307-.23.862.116.506 1.018.646 1.738 4.553.511 1.674 1.622 4.024.395 1.529.139.256-.139.512.255 1.128.394.762h-.255l-.394.25-1.112 2.29-.278.758-.488 2.536-.254 1.51-.51 3.301.114 1.393.14.396-.255.632-.277.494-.488 1.023-.256.642-.879 2.125-.51 1.905.116 1.405.277.507.394.495v2.913l-.138.382-1.39 1.666-.418.242-.348.635-.117.511v1.004l-.507-.63-.51-.374-.743-.145-2.293-1.519-2.157-1.39-.37-.25-.533-.634-.857-.889-1.275-1.888-.372-.756-.602-.887-.626-.266-1.136-.871-.417-.263-1.622-1.785-.255-.242-.626-.897-.395-.879-.394-.89-.6-3.291-.14-1.53v-.25l.14-.37-3.293-3.414-.371-.13-.51-.384-2.272-3.674-.394-.888-.485-1.775-.093-.89.093-.876-.374-.519-.392-.489-.626-.645-.508-1.518v-.519l-.14-.887-.094.769-1.158.368-.254.66.394.373-.394 1.265-.487.623-.625 1.276-.163 1.405.394.854.533.525.487.243 1.9 1.912.486.61.512 1.797.416 1.008.093.885.115.131v.253l-.369.51-.12 1.274 1 2.017.74.762.28.251.508.133.255.237.232.514.139.377.138.387.374 1.265 1.112 1.376 1.042.897.254.53.835 1.518.79 1.256.74 1.015.764.757 1.67 1.773.998.756.369.152.51.35.254.132.487.763.626 1.03.14.365.277.635v.511l-.532-.39-.51-.366-.233-.153-.255.26.374 3.043.994 1.142 1.16 1.408.487.993.253.89.14.524.256.38.208.248.277.128.51.237.767.39.113.367.14.522-.14.64.14.744 1.646 3.032.231 1.905-.091 2.167.091.501.163.255.602.134.255.236 1.02 1.78.997 2.306.626 1.128.37.871.14.386.139.39 1.623 2.893 1.784 2.932.764 1.128.233.274.416.243.208.378 1.16 2.409.115.267.626 1.237 1.506 3.313.788 1.523.487.876.51.786.487.762.417.606.743 1.404 1.507 3.415.88 2.913v.38l1.25 1.538.163.247.857.62.65.638.763.636.489.876.139.263.368.753.489.514 1.667 1.135 1.508 1.025.37.237.511.255.254.5.534.762-2.92-.378-.766-.506-.255-.378-.28.128-.253.134-.232.511v2.143l.372 1.025.254.504v.74l-.14 1.302-.114 1.641.114.378.65 1.006.256.625v1.021l.255 1.134.254.383.255.634.487.756.137.264.374 1.258v.518l.113.62 1.158 1.648 1.507 1.778.394.259.999.508 1.135.382.532.105 1.344.395 1.182.495.604.775 1.53 2.143.37.764.627 1.021.394.514.37.105.718.139 3.058 2.272.768.647.88.744.391.389.095.384v.373l-.095.146h-30.961l-.604.104h-7.972l-.394-.104h-36.966v-.52l.626-2.163-.117-.493-.395-.512-.508-.133-.394.133-.372.25-.72 1.64-.277.506-.509 1.292H72.474L68.58 329h-3.314l-5.935-.104H46.98l-4.45.104H41.3l-.881-.104h-4.195l-.742.104h-3.776l-4.43-.104H8.367v-.777l-.16-3.933-.511-21.286-.233-7.342-.115-5.188-.278-7.35v-3.431l-.255-7.335-.255-8.756-.234-8.488v-1.27l-.138-2.538-.115-3.654v-1.027l-.14-1.258-.14-5.715-.114-3.037v-2.4l-.115-2.4-.14-1.642v-2.03l-.116-2.547-.37-11.153-.257-4.82-1.297-3.028-.21-.506-.253-.756v-1.267l-1.02-3.799.115-.262v-.748l-.255-.636-.093-.519-.624-1.393-.649-1.38-.254-.387-.14-.262.14-.5.114-.63.649-1.266.626-1.018.371-.494.372-.5.648-1.415.626-2.023.37-2.533-.255-.897-.394-.5-.995-2.286-.118-.372-.487-2.034-.138-3.53.231-.518 1.02-.64.487-.62.534-.625.255-.76.092-.395.395-.362.394-.394.255-.128V170v.264z"/><path id="Stroke-3" d="M131 176.305l.398-.375.422-.36 1.747-1.857.873-.987.265-.476.133-.25 1.162.86-.264.51-.317.224-.581.383-1.27 1.221-.267.602.106.868-.579.732-1.008.6-.583-1.203z"/><path id="Stroke-4" d="M264.9 42.804l.857.754.904 1.026.255.382.254.61.093.538 1.157.348.65.14.347-.14.65.511 1.251 1.646.114.62.163.383.604.273.625.237.253.134 1.02.231 3.291.789 1.506.238 1.666.243 1.504.528h.096l.646-.39.371-.264.257-.239.762-.25h.372l.994.372.904.117h.37l.255-.622.997-1.003.996-1.13.138-.639 1.022-1.135.394-.139h.394l.6.139.995-.65v-.62l.674-1.136.764-.505.51-.145.972-.498.394-.353.233-.511.647-.754.766-.405 1.11-.25 2.781-2.018.137-.504.232-.25 2.27-.504.393.25.394.255.373.249.255.4 1.25 1.118.878.756.512.498.507.405.627.475.231.39.418.497-1.043.65-.346.104-.65.145-.625.505-.23.383v.487l.23.644 1.508 1.135.625.273.255.227.624.886v.394l-.117.487-.231.273-.276.121-.512.116h-1.159l-.833.244-.649 1.026v.503l.255.511 1.227.754.3.25.37.133.49.237.905.517.113.747 1.252 1.137.507-.104.372-.279h.512l2.173 2.546.465.88.394.238.625.146 1.02-.505.533-.394.716-.123.629.268 11.535 2.887 3.242-1.13 3.057-.754 1.391-.395 2.501-1.118 2.525-1.27 2.5-.51 2.527-.766 2.337-1.501 3.011 3.78 2.734 3.796 2.549 2.53 2.872 2.765 1.53.759.995.517 5.583.88 1.484.383 1.272.892 1.898.9 2.016.858 1.02.754 2.154 1.28.234.117 4.399 2.528 2.04-.13 3.031-.247 4.034.377 2.014-.498.625-.385.255-.131.788-.39.348-.233.369-.271.396-.115h.369l.37.115h.534l.994-.86.234-.27.278-1.138-.394-.607-.118-.395.118-1.148.255-.516.394-.364.208-.123.393-.122.51-.389.925-1.02.095-.353.252-.26.767-.76.51-.267.624-.244 1.897-.893.119-.104.255-.388.23-.262.393-.121 1.136-.121 1.504-.128.397-.128.507-.132h1.023l.346.26.511.249 1.643.244h.788l.346-.123h.51l.788-.121.72.383 1.387-.262.139-.875-.369-.377-.142-.383.51-.515.281-.251.323-.37.255-.133h.416l.997-.115.393.115 1.621-.115.766-.25.231.25.394.247.649.37.348.137 1.134.115 1.668.394.858-.754.113-.394v-.115l.394-.25h.28l.465.25 2.291 2.898.114.383v1.252l.372.256 1.16.654.994.1h2.27l6.835 2.155.394.11.485 1.165v.372l.231.25 2.547.637h1.159l1.994-.26.345.127h.674l1.134-.372 1.622.147.74.225 1.043.382.348.25.926.644.997.62.464.244h.415l.348-.245.277-.105.372.105.645.649v.378l.118.752.14.383.394.994.093.26 1.366 1.507 1.019.383 2.386 1.002 1.412.395 3.057 1.379.72.517.252.36.255.497.28.4.6.627.259.383 3.033 3.535.51.122h10.724l.256.272.51.981v2.55l.742 2.116.737 1.793.163.618v1.156l.51 2.127.232.506.23.273.51 1.24v2.03l.142.503.229.51.532.384.233.886v.621l-.858 2.672-.788 1.124v.753l.164 1.01.233.132.39.639.094.76v.991l-.093 2.285-.136 1.512-.652 2.279-1.479 1.392-.305.11h-.575l-.536.267-.23.238.766.897.487.104 1.41 1.78.114.644h-2.011l-.765.117-1.53 1.903-.116.503-.139.37-.113.383.113.499.139.509.233.755.274.898.765 2.269v.752l-.393.509.256.877.137.509.26.26.114.268.368.238.49.25 1.04.498.626.132h2.501l.255.123.533.506-.139.253h-.74l-.255.39-.536 1.514-.509.752-.204.505-1.048 1.763-.485.892v1.014l.092.375.163.379.23.5 1.394 3.14 1.388 3.18 2.27 5.047.372 1.01.14.52.138.624v1.644l-.139 1.125-.139.376.369.754.394 2.93.116 1.884 1.02 2.648 3.543.515 1.274.245 3.638.523 3.796.617.373.506.51.489.139 1.024.343.62.373.645.904 2.528-.648 3.913-4.4 6.708-1.158 1.515-.604 1-.532.627-1.507 2.407-1.504 2.127-.487.783h-.138l2.92 3.028 3.912 4.035.486.618.766 1.78.113.388 1.277 1.892 1.252 1.252.74 1.408.648 1.257.879 1.764.255.259 2.781 2.647 1.252 1.13.369.242.277.14 3.777 1.28 1.642.228 1.112.405 1.415.986.762 1.03 1.022 1.005.465-.12.784-.129 1.273-.277.234.902v3.525l.139.383.091.373.649 1.919.373.752.139.5v.253l.74 4.42-.091.377-.28 1.025v2.012l.532.487 1.737.267.906-.267.485-.11 2.27-.377 1.298.618.717 1.27v.376l-.717.123-.28.643.139.502.233 1.779-.372 1.38v3.534l-.394.134h-1.387l-.607-.134-.623-.126h-2.895l-.252.494-.51.271-1.555.377h-.72l-.507.134-1.017.109-1.554.883-.465 1.512.373.648-.231.385-.674-.134-.624-.11-.627-.141-.394 1.004h-.345l-.255.134-2.55 1.13-.231.133v.372l-.139.5-.113 1.147v2.515l-.164 1.398.164.505-.258.52-.626.112-.393.12v3.294l.138 1.373.142 1.897v1.533l-.28 1.767-.485-.132-.742.645-.301.75-.739.62h-.606l-2.569-.752-.346-.511-.394-.265-2.64-.61-.396-.152-2.64-.466-.858-.139-1.018-.145-.419-.103-.23-1.018-.115-.394v-.361l-.12-.267-.158-.383-.348-.25-.256-.105h-.88l-.51.106-.255.249-.256.383-.138.505.28.517h.369l.51 1.12-.368-.102-1.901-.886-.278-.375-1.485-.274-1.413-.238-1.852.126-1.921-.618h-1.37l-.904.096-.482.13h-.255l-.394-.13-.373-.254-.482-.5-.654-.36-.507-.141-.372.142-.787.127-1.62.623-1.53.492h-1.252l-.394-.13-.345-.253-.765-1.001-.255-.379-.394-.232-1.369-.76h-.76l-.652.104-3.147-.498-1.507-.257h-.369l-.394.136-.141.249-2.246.632h-.51l-.742-.366-.372-.143-.37-.372-.276-.503-.138-.39-.37-.62-.372-.266-1.114.383-.532.262-.787-.124v-.52l-.485-.622-.374-.128h-.879l-.393.245-1.53-.117-3.01-.505-.232-.509-.139-.396-.116-.605-.372-.907-.646-1.115-.487-.138v-.128l-.648-1.246v-.4l-1.646-5.038-.23-.759.091-.62v-.785l-.091-.747-.164-.754-.323-1.275-.28-.502-.394-1v-.376l-.23-.388-.277-.394-2.27-2.276-.209-.367.21-.377-.21-.374-.67-.766-1.785-.375-.604-.126h-.371l-1.274-.117-2.522-.639h-.394l-2.642.639-.23.243-1.785 1.403-.234.489-1.525.367h-.628l-1.528.268-.373.14-.252.11-.51.512-.252.618.113.894.28.516v.377l-1.532.615-.487.134h-.394l-.598-.134-.28-.238-1.11-.133-.536.133-.997.991-4.05 3.286-.881.511-1.366-.381-3.176-1.254-1.641-1.141-.627-.754-.372-.267h-.394l-.464.133-.274.249h-.51l-.394-.115-.374-.134-.507-.133-.371-.116-1.901.249-1.25.134-1.248-.134-.904-.37-.629-.382-2.408-1.642-.231-.266-.137-.494v-.52l-.118-.366-.394-.244-.74-.516-1.114-.225-1.04-.396-.996-.37-.88-.393-1.668-.754-2.131-1.254-.626-.643-.904-.632-.997-.494-.23-.148-.88-.36-.535-.627.535-.39.115-.892-1.387-1.638-.652-.763-.994-.503-1.02-.123-1.623-.497-.394-.136-.368-.249-.374-.126-.252-.255-.28-.25-.116-.38-1.273-.881-.348-.14-.646-.104-2.294-.256h-.717l-.628.256-1.528-.153-.394-.103-2.246-1.525-1.668-1.753-.997-1.777-.648-2.033-1.504-2.149-.859-1.387-.255-1.117-.139-.638-.141-1.263-.092-.385-.252-.63-.535-.756-.232-.259-.9-.249-.372-.135h-.255l-.37-.114-.394-.377-.879-1.156v-.753l.23-.37.532.37.51.517.37-1.027v-.346l-.114-.652-.65-.635-.878-.503h-1.487l-.393.249-.646-.377-.255-.755.255-1.027-.139-2.52-.116-.5-.372-.638-.252-.378-2.413-2.137-.346-.261h-.416l-.21-.245-1.923-2.539-.623-.864-.51-.255-.256-.243-.37-.39-.255-.267-.23-.25v-1.257l-.255-.755-.373-.889-.277-.374-.256-.51-.368-.382-.28-.123-.23-.118h-.256l-1.018.118-.372.257-.37.121-.51.376-1.366 1.258-1.901 1.266-.39.126-.881-1v-.512l-.142-.503-.116-.374-.369-.137-.51-.244h-1.02l-.51.12-1.11-.376-3.405-1.767-1.274-1.525 1.878-.257.762.153 1.042.63.487-.272.372-.858-.51-.788-.487-.227-1.411-.527h-.745l-.901.133-.348.249-.904 2.29v.754l.371.631.394.25.394.876.231.51v1.379l-.138.773-.625.395-1.369-.146h-.879l-.625.503-.255.5-.255.253h-.394l-.625-.253-1.02-.251-.37-.382-.741-1.633-.139-1.137v-.511l-1.9-2.028-2.015-1.613-.255-.271-.487-.238-.67-.14-.486-.366-.142-1.657-.09-1.139-.51-4.789v-.774h-2.781l-2.04-.105-.091-1.78-.277-1.385v-.637l-.093-1.13-.162-1.757.162-.785.37-1.134.485-2.02.235-1.261.255-1.126-.255-.382-.88-1.132-.859-.77-1.666-1.896-.512-.887-1.114-1.515-1.897-2.502.255-.651-1.273-1.404-1.252-.244-.231.244-.65.133-.626.14-.277-.14-.997-.618-.23-.267-1.53-1.004-.255-.37-.486-.261-.276-.383-.512-.361-.23-.26-1.412-1.139-.35-.265-.394-.243-.645-.244-1.367-1.025-1.021-.754-.625-.376-.485-.267-.629-.117-.924-.255h-.858l-.487.121-.369.134h-.394l-.625-.37-.138-.51v-1.27l.37-.872.532-.644.091-.362-.485-1.144-.787-.63-1.112-1.254-.14-.405-.115-.481-.255-.377-.23-.504-.788.123h-.373l-.787-.268.138-.376.788-.506-.788-1.386-1.134.245-.348.387h-.507v-.632l-.906-.51-.765-1.136-.113-.505-1.484-2.029-.788-.88h-.765l-.348-.112-.298-.375.646-1.659 1.022-1.007.255-.251-.118-2.515-.137-.257-.394-.37-.348-.135-.393.245-.533-.754-.464-1.252 1.39-2.163 1.273.255.858.245.232-.377-.487-1.259-.372-.632-.371-.26-.136-.383.369-1.241.277-.267h.372l.231-.238.372-1.167.762.286.255-.128.139-1.154-.255-.377v-.62l.79-.892.6.255.65.256 1.759-.754v-1.903l-.391-.256-.535-.632.28-.388-1.369-1.367-.255-.279-.904-1.38-.37-1.64.535-1.767.487-.117.507.117h.487l1.137-.367.53-.26.744-.754v-.65l-.255-.244h-.49l-.394.244-.762.268-.394-.121-.348-.257-.255-.377-.649-.394-2.64.637-.276.244h-1.508l-.23-.244-.141-.365-.252-.375-.629-.768-.275-.266-.604-.486-1.504-.643-.116-.112h-.532l-.764.355-.999-1.13-.255-1.125-.509-1.791-.88-2.268-.487-.864h-.416l-.326.254-.393.1h-.277l-.51-.1-.256-.254-.138-.4-.486-.88-.625-.49v-.264l.277-1.004.23-.384-.113-.752-.649-.766-1.25-.758h-.51l-.394-.117-.234-.133-.255-.506.489-.752.253-.383v-.377l-.348-1.902-.67-.255-.603-.11-.371-.51-.414-.378.253-.643v-.382l.16-1.495v-.522l-.413-.383-2.224-1.747-.514-.13-.253-.141-.509-2.77v-1.265l.255-.494-.625-.77-4.054-1.768-.973-.37v-1.023l.834-2.265.74-1.908.788-1.648.14-.352-.787-.887-1.506.099-.21-.245-.161-.753v-.365l.162-.633-.276-1.779-.257-.505-.763-1.264.393-1.374-.14-.504-.253-.39h-.533l-.605-.503-.647-1.27-.208-.51.323-.881.139-1.271-2.385-3.269-.278-.249-.369-.394v-.256l.532-.364 1.643-.134.512.271.972.227.371-.097.786-.4.394-.256.253-3.386-.253-.903 1.622-1.26 1.876 1.26 1.157 1.134.742.134.372.244.277.76.115.375.394 1.033.486.609.28.255z"/><path id="Stroke-6" d="M241.495 76.88h.488l.533-.26 2.022-.521 4.81 2.03 1.881.392 2.556.109 1.37-.109.258-.393.137-.492.607-.647h1.557l1.625.753.512.641.115.629v.505l-.395.12-.346 1.016 1.136 1.753.768.248.256-.607.115-.515 1-.387.534-.242.232-.25.768-.63.138-.26.232-.246.65-.373 1.489.239.373.134.254.246-.254.642.417.375.371.51.604.11.673.254.349 1.896v.374l-.254.384-.49.75.257.503.233.132.395.118h.511l1.255.756.65.762.116.752-.232.382-.278 1.001v.264l.627.486.487.879.139.4.257.252.51.1h.279l.395-.1.327-.253h.417l.488.862.883 2.258.51 1.788.256 1.12 1.002 1.128.766-.354h.534l.117.11 1.509.643.605.484.278.266.629.764.253.376.142.363.23.242h1.512l.279-.242 2.647-.635.651.393.256.375.35.255.394.121.765-.267.395-.242h.491l.256.242v.65l-.747.75-.53.26-1.141.366h-.489l-.508-.118-.489.118-.537 1.762.372 1.635.906 1.376.256.276 1.373 1.365-.28.387.536.63.392.253v1.898l-1.765.752-.65-.254-.603-.255-.793.89v.618l.256.375-.137 1.15-.258.127-.764-.283-.373 1.163-.232.236h-.373l-.278.267-.37 1.236.136.382.373.26.373.631.488 1.255-.233.375-.859-.243-1.278-.255-1.395 2.157.466 1.248.534.751.395-.243.349.133.395.37.139.254.117 2.51-.256.248-1.025 1.006-.648 1.654.3.374.348.11h.769l.79.878 1.487 2.024.113.501.77 1.133.907.51v.63h.508l.35-.388 1.137-.242.79 1.382-.79.503-.137.375.79.268h.372l.79-.125.231.505.256.376.115.48.143.403 1.113 1.248.79.63.487 1.139-.092.363-.534.641-.37.87v1.267l.138.507.627.37h.395l.37-.134.488-.12h.862l.928.254.629.115.488.265.626.378 1.025.751 1.37 1.022.648.243.395.243.352.264 1.416 1.135.232.259.512.358.278.382.486.26.256.37 1.534 1.002.231.266 1 .616.278.14.63-.14.652-.132.23-.244 1.256.244 1.278 1.4-.257.648 1.905 2.495 1.117 1.51.512.883 1.672 1.89.86.77.884 1.127.256.382-.256 1.12-.236 1.258-.486 2.015-.371 1.129-.163.783.163 1.753.093 1.125v.637l.278 1.382.091 1.771 2.046.107h2.79v.772l.512 4.774.09 1.135.143 1.652.486.365.673.14.489.236.255.272 2.021 1.608 1.907 2.022v.509l.14 1.133.743 1.629.37.38 1.024.249.232.393-.373.243h-1.253l-.883-.243-.512-.258-.627-.236-.373-.25-.395-.278-.253-.126-.63-.245-.509-.132-.884-.117h-.372l-1.509.117-.116.278h-.14l-3.046-1.03h-5.205l-1.996.752-.395.278-.395.357-.256.396-.118.354-.138.76-.51 1.774-.746 2.38-.349 1.117-.278.406-.765 1.368-.374.636-.629 1.272-.673 1.508-.347.501-.372.755-.23.132-.537.374-.233.245-.276.377-.119.253-1.625.634-4.323-.385-19.728-1.753-13.687-10.952-11.271-9.08-2.043-1.643-12.502-9.686-9.364-4.273-15.219-9.47-4.67-.877-8.366-1.633-4.066-.874 1.3-1.255-.79-2.012-2.88.874-1.024-2.895 1.419-.376L192 141.468l.117-.106 2.019-1.259 5.58-3.29 2.392-1.514 2.951-1.624 2.648-1.636 2.14-1.26.395-.273 6.065-3.513 4.436-2.641.256-.88.65-2.126 1.49-2.924-.397-2.262-.35-2.393v-.751l-.277-1.26v-.504l.139-.519.139-.867.117-.64v-.365l.116-.52-.116-.734v-.874l.488-.889.79-1.267-.51-3.397-.28-.62-1.487-2.532-.258-.386-.16-4.9.905-1.898.395-.88 5.67-1.26 6.484-7.414v-.145l.139-.12-.395-.62.256-.132 1.997-.51.65-.125v-.255l1.535-2.878.464-.406.256-.099.65.237 1 .514z"/><path id="Stroke-7" d="M145.588 167.618h-.088l-.088-.167v-.069h.088l.088.069z"/><path id="Stroke-8" d="M148.182 144l.669.508h.098l.406-.132h.144l.094.132-.094.486v.136l-.144 1.253v3.155l-.122.508-.141.14.141.102.36.51v.752l.407.27v.625l-.143.51v.618h-.264l-.094.134-.648.618v3.924l.098.102-1.006-.236-.935-1.268-.263-.24-.908-.266h-1.198l-.767-.384-.405.272-1.438.862-.096.406-.143.376-.145.478v.274l.145.242-.145 2.036-.644 1.487.143.26.407 1.269.094.495-.094.638-.119.361-.143 1.767v.508h.143l.501.136h.36l1.053-.274.67.404 1.03.633-.144.368-.742.127-.814.494-1.317 1.009-.239.262-.239.491-.119.261-.143.491.143.892-.143.387-.288.62-.241.526v.489l.24.371.551.134 2.728-.242 1.173-.128.264-.135.262-.38 1.678-1.255.287-.26h1.006l.143.757v.759l-.241.884-.381 2.02.24.382.523.74v1.005l-.646 2.412-.405.382-.119.1-.264.507-.551 1.65v.509l-.383 1.255-.503 1.007-.119.38-.527 2.52v.376l.262 1.653.265 2.764-.169.509-.096.366-.382.386-.144.368-.407 1.52v1.145l.12.376-.743 3.639-.407.994.145.145v.393h-.288l-.264.363-.501.625-.407-.757-.262-1.121.143-.51-.143-.255-.409-1.521-1.676-4.003-.527-1.667-1.794-4.53-1.053-.642-.12-.501.237-.858-1.315-3.291-1.411-2.772-1.963-5.031-.407-.903.91-.619.524-.75-.094-.894.239-.616 1.149-1.258.527-.393.285-.23.241-.523-1.053-.883.143-.134.145-.368.524-.887.36-.755 1.079-2.396.524-1.268.24-.88v-.126l.527-1.884.145-.875.143-.126.239-1.633.384-1.891v-.266l.24-1.51.286-3.279.119-.887v-.89l.527-.227.407.36.24-.134.432-.48.119-.376v-.272l-.119-1.134v-.508l.119-.482.094-.89-.094-.368h2.321l.767.126.525.374.432.118.647-.118 1.005-.5v-.25l.263-.273.145-1.115z"/><path id="Stroke-9" d="M195.293 156.721l1.025 2.916 2.89-.88.792 2.026-1.306 1.264-1.63 1.654-.746.87-7.13 2.025-6.736 2.04-.374.132-3.423 1.135-3.17.893-3.705 1.129-2.634.896 4.475 4.684 2.89 3.185 1.025 1.273 6.688 7.343-4.405 2.805-1.91 5.436-1.26.28-5.126 1.129-4.03.891-3.054 5.96-2.914 2.782-2.68 2.411-7.619-1.398-4.916-.896-3.169-.489-.141-.386.141-1.135.114-.516.257-.764-.371-.365v-.396l-.141-.146.396-1 .723-3.662-.116-.378v-1.153l.396-1.529.14-.37.372-.388.093-.369.164-.511-.257-2.782-.255-1.664v-.378l.512-2.534.117-.384.49-1.013.37-1.263v-.511l.537-1.661.257-.511.117-.1.395-.385.629-2.427v-1.011l-.51-.744-.235-.383.372-2.035.233-.89v-.762l-.14-.763v-1.123l.14-.658v-.623l.396-1.15.094-.37.14-.507-.14-1.023-.35-1.653-.14-1.141-.233-.76.373-2.649.117-.275-.257-2.642-.14-.276-.093-.103v-3.946l.63-.624.093-.134h.257l.511-.382 1.027-.627.396.112 2.028.379 1.024.913.372.868.886 1.135.607.274.535.112.512-.25 1.633 1.28.512.373.884.896 1.167.109.373.135 1.77.275 1.143.236 1.63.385.396-.518 3.822-2.512 4.428-3.193 1.654-1.136 4.429-2.925 4.73-3.174 2.752-1.887 2.211-1.412 1.236-.757 5.359 14.343z"/><path id="Stroke-10" d="M326.67 203l.884 1.51.374.866-.236.27-.649-.27-.26-.262-1.115-.73-.535-.127-.256.128-3.048 3.505v.632l1.676.729h.512v-.116l.347-.143.513-.356.512-.39.14-.127.256.127.233.39.395.356.766 1.396.375.757.513 1.74.488 1.274.371.734.282.247 1.512 2.131 1.258 1.497.256.495.14.51v.368l.626 1.751-1.511.108h-8.636l-1.116-1.107-.256-.373-.515-1.127v-1.129l-.253-.368-.373-.878-.652-1.264-.629-.98-.14-.271-6.563-.868-2.816-.256-2.912-.367-.628-.126.119-.252.277-.373.232-.245.538-.372.231-.13.372-.749.348-.5.675-1.496.631-1.262.374-.634.766-1.358.278-.401.35-1.11.747-2.366.51-1.76.14-.755.117-.353.257-.393.395-.354.396-.275 2-.748h5.213l3.051 1.023h.14l.117.6.603 1.891.117.378.258.625.416.495.489.615z"/><path id="Stroke-11" d="M151.118 121l.931.243h1.146v-.122h2.624l1.027.122 1.17.126v.51l-.787.748-.383.241-.143.642 1.052-.132.38.241 1.17.882.38 1.534.79 1.88.525.374-1.433 1.628-1.551 1.13-.524.64-.383.376-.549.996.812.51h.383l.38.5-.12.387h-.26l-1.696-.508-2.339.508-.668.985-.644.75-.262 1.268h.429l.764.365.502.508-.24.628-1.312 1.378-.646.63-.38.12-.407.248-.144.508-.237.392h-.12l-.144.121-1.933 1.13v.506l-.667-.507-.524 1.265-.145 1.112-.262.271v.25l-1.003.498-.645.118-.43-.118-.524-.373-.766-.125H141l.477-.521.669-.87.144-.63.117-.502v-.875l.501-2.019v-.38l.404-.37.406-.38.36-.507.263-.998.143-.751.118-.888.43-.872.239-.627.143-.37v-1.014l-.143-.62h.907l.381-.131.812-1.642v-1.5l-.284-.635-.145-.993.288-.253-.143-1.002.284-.514 1.91-1.881 1.074-.75 1.17-.894v-.5l-.144-.86z"/><path id="Stroke-12" d="M445.123 279.65l.367 1.393-.367-.262-.51-.26-.113.37 1.244 2.024.256.14.388.12.511-.12.48-.632v-.755l.488-.133.642-.262.116-.109.118-.273.274-.243.369-.127v-.496l-.138-.643.138-.123.14-.126h.252l.14.249.621 1.51 1.497 3.044.369.887.37.621.9 1.514.254.404.484.483.37.256.62.503 1.269 1.536.254.368.23.75.646.895.646.754 1.268 1.144.99.89.877.752.876.62 5.14 1.782 4.427 1.378.488.258.367.133.507.12.115-.12.762-.133h.392l.735.133h.37l.624.254.392.121.506.125.62.506.255.25.487.255.643.12h1.384l.483-.25.254-.375 1.155.123.505.251 2.743 2.672 1.246 1.758.877.768 1.153 1.895.251.618.116.386.254.382.898 1.254.345.384.764.38.229.263.67.48.968 2.025.14.395.226.36 1.407 1.654.787.644.623.514.736.487.508.119h1.13l2.143.512.462.901.254.86v2.292l-.254 1.133-.37.867-.76 1.155-.737 2.77-.876.905-.508 1.127-.254.386-.23.245-.138.366-.137 1.019-.117.882-1.363 3.172-.504.233-.53.267-.877.516-.395.243-1.22 1.016-2.122 2.655-.898 1.241-.116.391-.392.76-1.127 2.405.115 1.016.138.381-.253.384-.649.621-.737.753-.23.621-.161 1.015-.485 2.164-.876 1.002-.508.138-2.002-.25.367-.262-.486.124-.78-.394-.231-.238.113-.776.255-.366.37-1.401v-.368l-.37-.255-.368-.133-1.246.644-.508.37-.254.9-.25.609-1.134 1.284-1.247 2.13-.412.65v.624l.278.508.134.885-.272 1.885-.486 2.03-.389.884-.625.892v.625l.114.394 1.04 3.521.346.772.138.506v.49l-.138.517-.257.615.257.65.898 2.117.62 1.538-.504 1.003-1.271.51h-.618l-.995-.127-1.013-.112h-.484l-2.143.368-.646.15-1.776.475h-.347l-1.384.533-1.52.75-.392.261-1.223.857-.113.268-.9 1.006-.371.368-.621.782-.138.36-.116.626.116 1.66-.276 1.768-.21 1.014-.252.75-.137.503.137.894v.122l-.486.498-.505.134-.392.248-.622 1.022-.762.865v.405h-.622l-.483-.139-.533-.132h-.643l-2.26.271-.737.245-1.73.236h-.784l-2.146.253-1.751.508-.76.242-.368.273-.279.515-.09.493-.372.865-.158.528-.347.377-.392.123-.624.638-.368 1.01-.141 1.021.257.363.53.245.346.51.138.373v.526l-.646 1.65-.484 1.249-1.52 2.13-.234.276-.62.498-.9.382-.899.375-1.359.38-1.016-.25-.622-.373-.138-.514-.483-.13-.625-.099-.251-.146h-2.906l-4.126.375-1.13.625-1.109 1.158-1.406.38-1.129.375-.783.762-.118.25-1.105.853h-2.005l-1.522.265-2.262.768-.876.38-.134.259-4.89-10.49-.505-1.158L395 377.344l41.453-16.45 4.52-20.84 2.65-11.996-7.424-11.522.116-1.632v-.395l-.116-.501v-.617l-.114-.395v-1.635l.23-1.638.276-.63.37-.756.392-.777.113-.618.23-.642.624-3.027.762-2.153.898-2.143-.254-1.904-.252-.249-.486-1.131 1.75-.888.604-.134 1.635.27 1.038-.27 1.844-.62.277-.26-1.292-2.39-.462-.142-.367.262-.392.129-1.13-.391.368-1.251-.114-1.652-.395-.994-.25-1.407.391-.511.368-.864-.51-.893-.134-.511-.254-2.133.138-.395.392-.496.254-.398.23-.372.508-.25.392-.132.347.133h.388l.232.249z"/><path id="Stroke-13" d="M449 259.087v1.607l-1.289-.493v-.372l-.706.491.279.875.535.245.84.62v1.726l-.257.875v.37l-.345.727-.346 1.129-.322.128-.384.498v.975l.128.387-.448.125-.709-.512-.365-.106h-.128l-.218-1.127-.105-1.614.215-1.217.108-1.746-.583-1.109-.9.367.086-.367.257-.607.689-1.745.343-.495.473.727.942.264h.215l.384-.264h.562l-.24-.362h-.427l-.15.244h-.344v-.728l.494-.864.535-.739v1.346l.84.61z"/><path id="Stroke-14" d="M377.956 263.108l.241.251.83-.126.372.126.83.645.569 2.104v1.384l-.458 1.13-.352.12-.238.12-.11.38.11.623-.22.373.22.748.238.268.24.476.112.752-.111.885.111.505.24.248h.566l.395.256.13.615.088.377.13.501.111 2.609-.46 1.52-.501.747-.241.38-.35 1.123v.368l-.326 1.616-.853 1.264-.482.247v-.506l.13-.495-.26-.396h-.81l-.677.396.067.15-.221.223-.238.381-.834.504-1.92-.373-1.553-1.883-.613-.888.261-.103.265-.643-.265-1.256-.13-.731-.7-2.38-.59-1.131-.13-.125-.11-.728-.11-1.283-.24-2.746-.109-1.117.35-.375.35.501.24.515h.241v-.402l-.24-1.22-.11-.51 1.027.12.613-.255.26-.646-.26.155-.483.126-.347-.624-.088-.877.088-.26v-.614l.347-.505.396.366.087-.477v-.28h-.087l-.155-.12-.11-.38.482-1.743.483-1.245 1.66-1.354.94-.509.85.509.482.35.154.397v.607z"/><path id="Stroke-15" d="M280.467 210.532l19.68 1.754 4.315.386 1.622-.634.624.127 2.9.37 2.806.258 6.535.875.142.272.624.988.65 1.275.373.884.253.371v1.138l.51 1.136.256.376 1.11 1.115h8.602l1.507-.108.138.108 1.253.768.255 1.28.139 1.371 1.485 3.536.766 1.25 3.174 3.031.372.389.139 1.122-.394.508v-1.133l-.51-.393-.233.258-.141 1.14.884 2.016 1.136.245.624-.355.232.11.535.506.625.622.394.132 1.392-.132.717.132 1.044.89.277.62h-1.158l-.88-.106-.629.239 1.882 1.644 2.385 3.013.139.5.51-.118.371-.12.255-.378.281-.381.508.245 1.23 1.89.74 1.259.536.511 1.273.75.346.25.766.509h.512l.74.127 2.781 2.647.394.368v.386l-1.157-.754-1.253-.886-.116.634v.375l.534 1.886.697 1.633.553.266.348.115.905.272.604.89.255 1.123v2.005l-.604 1.258-.51.134-.88-1.393-.533-.247-.625 1.015.416 1.885 1.738 1.627.14.77.37.885.627.89.51.37.743 1.264v.502l-.255-.394-.14-.37-.997-.622-.348-.13.231.37 2.41 3.048.63.609.368.38 1.253.265.395.354.762 2.16.256 1.383.487 2.545.255.099v-.249l.533.249.51.755 1.367 1.9.257 1.376v.389l.511.758.717-.393.65.893 1.647 1.9 2.038.377.883-.51.253-.382.234-.225.507.104.768.363-.118.39.118.878.624-.376.65-.892.116-.363h.51l.603.503-.974 1.37-1.022 1.025-.138.266-.139.35-.348 1.027.118.618.369.134h.65l.371-.376h.881l.394.132.462.244.394.51.256.11h.394l.138-.11.096 2.388 15.577 19.295 36.583 5.02.765-1.13L444 328.397l-2.665 11.964-4.545 20.787-41.682 16.405-10.966 2.872-17.085 4.54-17.297 4.553-9.968 13.218-8.67 11.609L317.073 433l-.139-3.417-.626-13.854-12.47-5.543-6.98-3.03-7.324-3.285-.142-.13-.507-.236-1.115-.137-2.78.263-1.392.994-2.041.655-2.64-.787-.235-.228-.998-.897-.276-.387-.233-.365-.28-.252-1.621-.639-1.02-.127-.487.267-.394.389-.51.234-.371.249-.741.768-.905 1.12-.372 3.66-.254 3.284.51 1.389.625 2.008.118.64-.999-.13-.394.13-.392 1.26v.62l-.232.25-1.88 2.03-1.296.634-.487.13-.093-1.403-.765-1.004-.255-.753v-.504l.115-.387v-.624l-1.02-2.018-.37-.494-.278-.148-.626-.237-.627-.63v-2.02l-.485-.483-1.67-1.54-.487.15.115 1.242-.37-.752-.257-1.644-.23-1.149V405l-.139-1.26-.255-.76-1.646-1.606-1.53-1.784-3.268-2.654-.396.12-.857-.36-.626-.865-.279-.278-.74-.88-1.276-2.26v-.512l-1.02-1.133-.233-.637-.626-.993-.277-.511-.23-.757v-.496l-.14-1.02-.511-.747-.741-1.023-.51-.237-.906-.504-.834-1.383.095-.907.394-1.245-.65-.485-.371-.132-.626-1.279.115-.626.279-1.39-.279-.38-.51-.114-.486-.135-.396-.502-.23-.752-1.532-4.43-1.644-1.24-1.113-1.14.255-.244.208-.76-.094-.254-.114-.623-.512-.754-.416-.5h-.998l-2.246-3.048-1.045-.491-1.624-1.144-.764-.514-1.739-1.484-.534-.642-.486-.507-.509-.245h-2.528l-1.159-.78-2.109-1.752-.37-.505-.556-.754-.487-.89-.396-.754-.88-1.642-.742-.488-.093-.37-.162-.516.37.134h.164l-.164-.5-.51-.385h-.485l-.394-.37-1.253-1.274-1.368-2.522-.394-.747-.74-2.16.601-1.617.139-.514v-.884l-.139-.636-.255-.48-.881-1.408-.139-.63-.233-1.134-.531-1.144-.234-.237-.348-.527.094-4.634.14-1.539.879-2.623-.765-3.405-1.529-2.645-.093-.387-.88-1.258-.765-1.273.509.13.255.625.232.518h.37l.28-.244-.395-.622-.626-1.029-.394-.237-1.762-3.166-.742-1.134-.256-.891v-.617l-.138-1.02-.115-.35-.117-.137-.416-.644-.86-.884-.532-.115-1.113-2.777-.509-1.52-3.014-2.777-1.647-1.37-.764-.504-1.022-.26-1.9-1.384-1.9-1.392-1.113-.754-.626.514-.14.372h-.233l-1.042-.515-.602-.613-.65-1.03.117-.62-.117-.618-1.02-1.394-.14-.38-.113-.24-.58-1.022-.302-.268-.625-.735-.374-.255-1.412-2.023h1.018l.255-.236.28-.272.233-1.755-.513-2.523-.115-.252-.254-.609-.372-.393-.394-.249-.74-1.012-.487-.88-.256-.394-.162-.505v-.63l-2.25-3.522-1.53-1.505-.51-.258v.638l-.997-.507-.369-.63-.395-.65-.232-.605.232-.632.395-.897v-.359l-.165-.642-.23-.24-.232-.267-.626-.122h-.279l-.232-.126-.671-.24-.464-.514-.231-.376-.28-.886-2.781-5.027-1.369-2.54-1.067-1.145-.368-.237-.35-.249-.787-1.509-.093-.527-.139-.382-.602-.48-.905-.759-.394-.514-1.251-1.632-.372-.884.116-.497-.116-.371-1.159-1.643-1.366-.754-.394-.502-.628-.89-.51-.892-.254-.381-.115-.37-.14-.38v-.635l-.14-.49-1.623-2.402-.881-1.26-.255-.365-.394-.387-.858-1.018-.255-.25-.37-.26-.533-1-1.507-.88h-.743l-.37.127-.533.37h-.394l-.857.132-2.042-1.131-.347.26-.417.51v.86l-.208.255-.79-1.116.14-.51.65-.774.625-1.881.626-1.643v-.486l.347-1.024.14-.257.254-.768-.115-1.369-.139-.505.394-3.268v-.511l.37-3.786v-.248l.117-1.004.116-.513.532-1.998.14-.132 3.153.486 4.89.89 7.581 1.39 2.666-2.397 2.899-2.764 3.037-5.924 4.01-.886 5.1-1.122 1.252-.278 1.901-5.403 4.382-2.788-6.653-7.298-1.021-1.265-2.874-3.166-4.451-4.655 2.62-.89 3.685-1.123 3.154-.887 3.406-1.128.372-.132 6.7-2.027 7.094-2.012.742-.866 1.622-1.644 4.06.875 8.344 1.635 4.66.88 15.183 9.476 9.344 4.276 12.472 9.696 2.04 1.644 11.244 9.088z"/><path id="Stroke-16" d="M234.605 80.883l.395.617-.14.12v.143l-6.483 7.385-5.67 1.254-.396.876-.905 1.89.161 4.879.256.385 1.489 2.521.278.617.512 3.383-.79 1.261-.489.885v.87l.116.73-.116.519v.363l-.117.637-.139.864-.139.517v.501l.278 1.255v.748l.348 2.382.397 2.253-1.489 2.911-.65 2.117-.255.876-4.438 2.63-6.066 3.498-.395.273-2.137 1.253-2.65 1.63-2.95 1.617-2.393 1.507-5.579 3.276-2.02 1.252-.118.107-1.23.747-2.206 1.397-2.746 1.865-4.715 3.138-4.416 2.894-1.649 1.122-4.416 3.156-3.81 2.484-.396.512-1.626-.379-1.139-.233-1.764-.272-.373-.133-1.163-.108-.882-.888-.512-.368-1.627-1.266-.51.247-.534-.11-.606-.272-.883-1.122-.371-.856-1.02-.905-2.025-.374-.395-.11-1.022.619-.51.378v-.615l.139-.507v-.623l-.395-.27v-.746l-.35-.507-.138-.103.139-.14.117-.505v-3.138l.139-1.248v-.135l.093-.482-.093-.131h-.14l-.394.131h-.093v-.505l1.881-1.127.14-.12h.116l.232-.392.14-.507.394-.25.373-.118.628-.628 1.278-1.376.232-.627-.487-.507-.744-.364h-.418l.255-1.266.628-.747.65-.983 2.277-.507 1.65.507h.256l.115-.386-.371-.501h-.373l-.79-.507.536-.996.37-.374.513-.638 1.51-1.129 1.394-1.623-.512-.373-.766-1.877-.37-1.53-1.14-.88-.372-.243-1.022.132.139-.639.37-.24.769-.75v-.506l-1.14-.125-1-.123h-2.554v.123h-1.115l-.908-.243-.395-.76-.232-.64-.883-2.244-.14-.647-.138-1.23v-1.875l.396-.76.394-.766-.14-.478-.14-.269-.232-.236-.395-2.649-.86-.886-1.16-.345L147 105.7l.487-.874.535-1.13.232-.505.277-2.013.49-1.105 1.254.499 1.417.606.258.148.23.362.116.241.258-.108.139-.495v-.898l.395-.886.998-.099 1.022-.518v-.494l-.115-1.134-.163-1.244.163-.639 1.488-.24.37-.145.65.144.513.241.883-.24v-.9l-.371-.356-1.255-1.501-.28-.393-.254-.985.255-2.133.766-3.257-.117-.248h.629l3.182.863.746.368.742.638 1.394 1.008 1.65-.122h.233l1.417.122 2.138-.363.534-.264 1.278-.753.49-.133h.858l1.556-.501.397-.248.464-.247.395-.254.465-.114.396-.277.534-.357 1.138-.494.742-.12 2.024.234.627.127 1.138.507.395.247 1.278 1.116.86.767.627.366h.65l2.023.134h.604l.534-.265h.512l.372.131.418.134.488.126.486.243.77.136.346-.136.79-.105 1.768-.264 1.927-.38 3.021-.64 1.395-.483.255-.132.883-.367 2.65-1.262.65-.373.231-.133 1.629-1.232.395-.27h.51l.397-.133 1.624-.747.373-.243.256-.126 1.022-.38.51-.114h1.675l2.626.494 1.37.369h2.044l1.14-.122h.394l.884-.12 3.927-.62 2.023-.772.742-.37.395-.247.741-.747.397-.502h.488l1.161.232.768.638.255 1.767z"/><path id="Stroke-17" d="M127.699 2.042V2.8l.625 1.026 1.137 1.387.766.763.394.123 2.246 1.014.374.128h.16l.234.128.649.153h.857l.254-.153 1.762-.507 1.298-.514.348-.249.255-.123.232-.122h.394l1.137.63.278.273.625.765.257.477.091.89-.091.65.091.49.788.89 1.021 1.026 1.507 1.272.74.379.512.256h.485l.28-.134.486-.373.532-.379.372-.897.603-.124.65-.122h.394l.996.122.742.263.881.368 1.159.64.231.38.163.507.113.512.259.374 1.113.38h.255l1.157.132h.764l1.74 1.009 1.137.642.65.117.507-.117.35-.135.115-.507.394-.628.254-.246 1.021.246.394.25.137.652.095.233.394.38 1.113.654h1.182l1.46.377.278.14.626.106 2.25.517.415.11.487-.242.395.132 1.253-.132 2.55-.385.255-.246.37-.377.232-.27.393-.127 1.507-.502.999.117.624-.117.51-.135.395-.105.232-.128.115-.144.164-.246.624.246.231.272.511.105.255-.105.488-.128.417-.274.37-.116.371-.392.881.264 1 .646 1.92.87.488-.128 2.665.914 2.273.491.347.132h.279l.254-.132 1.506-.491.998-.517.14-.141v-.129l.37-.24.928-.39h.255l1.252-.239.742-.402 1.043-1.009.487-.379.995-.507.489.129h.532l1.484-.787 1.554-.862.485-.386.256-.268 1.251-.757h.627l.394-.368.88-1.416.394-.63h.533l2.112.525.487.366 1.02.647.647-.507.234-.506.648-.391.255-.134 1.645.268h.998l1.39.257.511.233.765.273 1.229.387h.277l.882-1.15.253-1.16.14-.105.626-.135h.372l2.04.135.972 1.265 1.925 1.778.372.368 1.251.892 1.763 2.168 1.529-.268h.346l.788.268.372.245.278.512-.161.501v.264l.533 1.132 1.113.512h.532l1.135 1.15 1.253 2.546.139.374.093 1.274-.232.754-.65 1.393-.74.506v.905l.486 1.277 1.043 1.649.996 1.89-.626.128-.277.39.394.372 3.408 1.412h.255l.487.104h1.02l3.174-.623.86.39.788.368 1.251.63 1.044 1.036.09.373.488.758.764.387 1.507 1.263.535.386.346.378.28.654v.231l-1.16-1.14-1.876-1.267-1.624 1.267.254.909-.254 3.404-.394.257-.786.402-.374.099-.973-.229-.51-.272-1.644.134-.535.367v.256l.37.397.278.25 2.388 3.287-.138 1.278-.324.886.208.512.648 1.278.606.506h.532l.254.392.14.507-.394 1.381.765 1.272.255.507.278 1.788-.164.638v.366l.164.758.21.246 1.506-.1.788.892-.14.354-.788 1.657-.743 1.918-.833 2.279v1.027l.974.373 4.055 1.778.627.774-.255.496v1.272l.51 2.786.253.14.512.132 2.226 1.757.416.385v.525l-.162 1.503v.384l-.254-.249-.372-.135-1.483-.24-.651.375-.232.249-.137.262-.765.637-.233.25-.533.245-.996.39-.116.52-.256.612-.764-.25-1.135-1.767.347-1.026.394-.122v-.507l-.115-.636-.513-.647-1.62-.758h-1.552l-.606.653-.138.495-.256.396-1.366.111-2.55-.11-1.878-.397-4.8-2.047-2.015.527-.533.261h-.487l-.396-.13-.996-.517-.65-.24-.255.1-.463.408-1.53 2.903v.257l-.648.127-1.994.515-.254.132-.118-.25-.254-1.79-.766-.646-1.159-.233h-.487l-.395.507-.74.758-.394.25-.74.373-2.018.782-3.918.63-.881.121h-.394l-1.137.123h-2.04l-1.366-.373-2.62-.501h-1.67l-.51.117-1.021.384-.254.128-.372.245-1.62.757-.396.135h-.51l-.394.273-1.624 1.25-.23.132-.651.38-2.642 1.276-.88.374-.255.133-1.391.488-3.014.649-1.925.385-1.762.268-.788.105-.345.14-.768-.14-.485-.244-.487-.129-.418-.135-.37-.133h-.511l-.533.268h-.602l-2.017-.135h-.65l-.626-.372-.857-.777-1.275-1.13-.394-.251-1.135-.512-.627-.129-2.018-.239-.742.124-1.134.5-.532.36-.396.281-.463.116-.394.258-.464.25-.395.251-1.553.506h-.856l-.488.135-1.276.764-.532.268-2.133.366-1.414-.122h-.233l-1.646.122-1.391-1.02-.74-.648-.744-.37-3.176-.876h-.625l.116.25-.764 3.3-.254 2.163.254.997.279.398 1.251 1.52.37.36v.91l-.88.246-.511-.246-.65-.144-.368.144-1.485.246-.163.647.163 1.26.113 1.147v.502l-1.018.525-.996.099-.394.899v.908l-.139.501-.257.111-.115-.246-.232-.366-.255-.15-1.414-.613-1.251-.507.624-1.16-.369-1.126-.255-.397-1.39-2.034-1.02-1.259v-.379l.394-.64 1.251-1.516 1.389-1.417 1.647-.88.394-.13.255-1.009-.395-1.918-.115-.371-.51-.51-.508-.633-.907-.747-.854-.273-.627.512-.256.257-.37.634-1.021 1.01-.37.262h-1.298l-.744.11-.393.391-.488.642.488.129.393.14.14.616v.507l-.394.25-.627.251-.254-.25-.65-.25-1.136.5-.719.514-2.41-1.27-2.294-1.272-.628-.25-.624-.122h-.232l-.138.122-.234-.514-.16-.244-.604-.379-.903-.384h-.881l-.626.116-.394.268-.881.238-1.138 1.15-1.528 1.165-.373.24-.486.372-.255.374-.254.39-.231.509-.905.88-.233.274-.65.758v.512l-.487 1.132-.531.389-.858-.153-.904-.36-.626.757-.881.9-.51.506-.743-.133h-.531l-.881.755h-2.388l-1.02.263-3.293.502-1.366-.126-1.022.523-.65.623h-.623l-1.369-.127-1.276-.758-.254-.135h-.487l-.394-.126-1.901-1.26-1.392-1.528-1.02-1.271-.231-.373-.256-.39-.37-.625-.65-.653-.627-.756-.88-.51-2.526-.633-1.113-.742-2.317-1.03-2.758-1.523-.396-.268-.88-.24-3.385-.53-.766-.105h-1.39l-.881.105-.766.145-.393-.25-.602-.384-.51.129-.511.505-.115.25-.394.643-.117 1.015.117 1.777-.256 2.042-.487 1.118-.115.636.232.396.232.25v.39l-.858 1.516-.279.387-.232-.53-.394-.37-1.23-.633h-1.411l-.372.236v.52l-.65.246-1.623.531-2.642.88-.65-.123-.486.37-.137.4-.744-.904-.763-.5-.883-.123-2.156-.387-.51-.255-.51-.379-.37-.379-1.02-.642-.51-.25-.488-.647-.369-1.516.369-.764v-.24l-.254-.266h-.373l-.486.127-.394.14v-.774l.117-.38.763-.256-.486-.869-1.784-1.167-.79 1.028-.23.505-.764-.261-1.88-.64-.647-1.017-.139-.506-2.112-1.259-.88.25v.384l.486.25-.487.643-1.02-.642-.37-.396h-.416l-.115.28-.14.49.14.647.394.379-.535.63-1.993 1.907-1.159.507-.233-.263-.14-.374.256-.127.511.127.533-.127.232-.246.115-.385-.347-.512-.394-.105-.28.105h-.253l-.373-.244.513-.264.508-.133.626.133.394-.25v-1.27l-.394-.135-.232.268-.51.238-.392.25h-.373l-.903.135-1.484-.135h-1.02l-.28.27-.23.379-.117.385-2.411.373-.256.261-.113.122-1.414-.627-.07-.264 1.344-.764h.372l3.314-.506 2.365-.25 1.39-.51.534-1.772 1.739-.756 1.53-1.027h-1.53l-2.387.245-2.413.135-2.386.273-2.156.106-1.252-.514-1.113.408-.279.374-.255.25-.372.105-.254-.104-.394-1.278v-.512l1.16-1.272h.648l.465.398.533.384 1.507-.52.509-1.654-.51-.647-.625.152h-.512l-.973-.64-.394-.51.394-1.282h-.162l-.486.15-.14.473-.394.41-.254.117-.859.131-.65-.249.28-1.032v-.99l-.396-1.93-.254-.25.37-1.78.28-.518.115-1.004-.115-1.276.115-.105v-.658l-.115-.368-.28-.39-3.615-1.515-.534.122h-.254l-1.554-1.527-.858-1.021-.996.263-.788.891-.093.764h-.279l-.648-.257-.37-.379-.489-.513-.764-.77-1.022-.115h-.23l-.372-.136-.485-.506v-1.773l.347-.122.138.642.489.354.254.13 1.021-.612.254-.276.37-.634.117-.362-.487-.396-.788-.246-.487.246-.51-2.03-.116-.897v-.477l.626-.28h1.021l.624.646.648.496.744 1.137.255 1.281h-.534l.881 2.036.673.368 1.252-.764.602-.24.904-.122 2.55-.396.373-.105.369-.777-1.53-.122-.627.122-.624.27-1.021-1.032-1.739-1.906-.277-.374-.232-1.405 1.252-.506.996-1.016 1.532-.623.648-.274-.232-.887-1.32-.238-.488.135-.394.238-.372.133-.857-.78-.164-.361v-.782l1.161-.758-.279-.379-.394-.483-.324-.519-.765-.246-.533-.757-1.114-.78.255-.636 1.739-1.51 1.136-1.271.511-.15.139-1.127-.28-.391h-.764l-.742.252h-.74l-.882.14h-.532l-.999.237-.625.13-4.404 1.02-.881.261-.396-.126-.509-.397.37-1.779.394-.25.256-.38v-.886l-.256-2.28-.115-1.41v-.617l.256-.514.231-.39h.37l.371.141.533-.276.51-.233.603-1.283.164-.629.485-.891.996-.38 1.162-1.16.88-.99.233-.525 1.39-.244h1.02l1.136.244.765-.111.37-.653.372-.367h.394l2.04-.14.485.898.117.262 1.251.758.394.25.65.25.487.13h.627l.254-.13h2.154l.626-.121 1.162-.88-.65-.39h-.512l-1.527-1.645.533-.396.369-.124 1.393.124 2.131.525.115.384-.23.374-.998.512-.254.379.254.372.349.124 1.158-.24.489-.145.532-.111.486-.133h.768l.507-.129 3.154.129h.37l2.155.505 1.137-.505h.997l.626.244.533.261.233.124h.648l.998-.124.994-1.154-.88-.758h-.74l-.626.275h-.766l-.394-.275-1.485-.758.232-.512.627-.252.533-.255h.232l.488-.63.393-.117.232-.14 2.04-.263h1.252l1.923-.757.394.385.744-.63.369-.11.372.355.232.385 1.946-.385 2.644-.138.485-.107v-.513l-.37-.138-2.55-.241h-1.761l-.394.135h-1.994l-1.044-.652-.74-.618-.513-.387-1.366-.517-.254-.241-1.253-.89-.254-1.032.092-.357.534-1.03v-.38l-.255-.257.255-.256.487-.63.394-.256.74-.146.88.146 2.574.512 1.345.374.627-.117 1.806.25 1.346.246h.256l1.412.133h2.412l.37-.133.881-.753.255-.255.626.116.35.268.276.245.626.133.997.246.28.133 1.227.135 2.041.758 1.646.116h2.665l2.04-.116.883-.512.462-.38.394-.513.37-.63.14-1.142 1.647-1.394.741-.273 1.647-.862.648-.387 2.525-1.411 1.994-1.007.28-.361L90.7 5.976l3.293-1.392.859-.38h.996l.139-.134.372-.116.647-.128h.394l.349-.135 1.158-.268.487-.106.394-.384 1.02-.518 2.018-.64 1.391-.637h.882l1.899.275.394.11.348.127h.51l1.391.124h.51l.742.127h1.136l.996-.127h1.44l1.366.397.604.126.925.118h.627l2.503-.118.765.118h1.367l.394-.118.65-.126.486-.27.14-.127.508-.49.233-.391.394-.893h.719l.278.128.394.259 1.506.623-.51.403z"/><path id="Stroke-19" d="M446.322 268.095l.77.524.486-.128.889.37.253.264.396 1.282.117.886v.625l.118.764.114.634.139.388v4.048l.396 1.527h-.253l-.143.127-.14.123.14.647v.497l-.37.129-.28.244-.117.274-.117.11-.65.263-.492.133v.76l-.486.633-.517.122-.392-.122-.257-.14-1.26-2.033.115-.372.518.261.37.263-.37-1.4-.282-.269-.236-.25h-.393l-.348-.133-.396.133-.515.25-.231.374-.257.4-.396.499-.14.396.257 2.143.136.512.514.899-.371.869-.396.513.253 1.412.4.999.114 1.661-.371 1.257 1.14.393.396-.13.373-.263.467.143 1.305 2.401-.282.262-1.863.623-1.048.27-1.652-.27-.609.134-1.77.893.492 1.136.254.25.256 1.914-.906 2.152-.77 2.162-.632 3.042-.23.647-.116.621-.396.778-.374.761-.28.634-.23 1.644v1.643l.114.397v.621l.117.503v.396l-.117 1.642-.767 1.138-36.762-5.058-15.654-19.437-.097-2.406h2.005l.767 1.383v.777l.4 1.382.254.522.117.237.628.256h1.167l2.118.5 1.794-.237h.233l.396-.135 1.003-.384 1.397-.894 1.142-1.136.767-1.13h.654l.513.502.396.377h3.636l1.651.25h.396l.863-.11 1.163-.14 1.399.625 1.28-.124h.606l1.074.387.464.262.114.237.26.135 4.053-.238 3.447-1.284.884-.757.795-.506 1.863-.647.627-.5.421-.76.118-.64v-.623l.372-.513.627.117.374-.117 1.025-3.695-.233-.882-.163-.516.766-.87 3.194-2.544.838-.387.164-.133.371-.38.257-.135.749-1.129.65-.892.139-.257.256-.266.117-.218.14-.272.374-.634.489-.631.396-.525.49-.887.766-.508.143-.226.37-.159.254-.623.119-.24.256-.658v-.495l.28-.366.256-.268v.122l-.255.384.115.378h.488l.653-.25v-.263l.096-.371.65-.758.652-.634 1.513-.89 2.168-2.678.116-.765.28-1.657v-.62l.98-.375.63 1.136-.118 1.792-.232 1.247.115 1.655.235 1.155h.139z"/><path d="M145.182 167.271h-.128v.111l.128.27h.128v-.27l-.128-.11zm3.37-6.576l-.341 2.692.213.772.128 1.16.32 1.68.128 1.041-.128.515-.085.375-.363 1.172v.63l-.128.67v1.141h-.896l-.254.267-1.495 1.284-.234.388-.235.138-1.047.13-2.43.25-.49-.137-.215-.381v-.499l.215-.539.255-.634.128-.396-.128-.91.128-.504.107-.267.213-.5.212-.27 1.175-1.033.725-.503.662-.13.127-.379-.918-.647-.596-.413-.939.28h-.32l-.448-.139h-.128v-.518l.128-1.807.107-.372.084-.651-.084-.506-.363-1.297-.127-.267.574-1.52.13-2.082-.13-.25v-.28l.13-.487.127-.385.084-.415 1.28-.882.362-.28.685.393h1.065l.812.272.235.246.831 1.297.896.241.128.28.235 2.686-.107.28z" id="Stroke-20"/><path id="Stroke-21" d="M401.318 432.51l-.622 1.136-2.058.76-1.199.506-3.277 1.753-.647.521-.116.503-1.152.51-1.248.626-3.139 1.512-.392.128-.994.381-1.386.246-.993.258-1.892.494-1.64.509-.367.127h-.254l-2.146.375-1.11.522-.276.123-.647.485-3.139 2.283-2.009.255-.116-.376h-1.014l-3.531 1.266-2.496.869-1.637 1.003-2.262 1.142-1.894.881-.37.255-.232.131-.643 1.135-.256 1.393v.38l-2.102 2.777-1.8 1.628-.251.383h-.28l-.946-.12-.923.12-1.753.512-1.617.249h-1.155l-.601-.126-.647-.387-1.014-.368-.51-.139h-.392l-.367.139-.347.12-.393.148-.345.364-.276.394-.509.504-.485.249-.624.36-.762.114-.876.518-.392.241-.138.278-.234.36-2.03 2.148-.486.498-.369.268-1.014.124-.508.252-.37.131-1.247.374-2.284.529-1.13.356-.626.394-.53.38-.484.236-.714.381-1.019.37-3.162.38h-1.617l-.76-.13h-1.916l-1.731.13-1.408.125-1.87.27-2.266.754-.368.123-.9 1.014-.231.39-.785 1.014-.091.345-.276.394-.74 1.136-.254.25-.74.132-.391.118h-.393l-.621.12-.509.261-.369.123-.624.501-.368.39v.133l-.51 1.382-.254 1.74-.506-1.38h-.88l-1.13.524.116.502.647.115v.374l-.255.266h-.76l-1.757-.64-.76-.617-.855-.268h-.393l-.367.268-.534.236-.623.755-.621.775-.37.249-1.641.753-1.499.25-3.415.382-.372-.249-.23-.654-1.27-.605-1.776-.635-1.502-.402-.369.268-.647.77-.254.122h-.138l-.23.132-.233-.255.116-1.275.116-.485v-.4l-1.27-2.521-.762-1.256-1.107-2.015-.37-.504-.37-1.009.139-.762.091-.507.234-3.413v-.889l.158-.733v-.393l-.158-.754-.717-2.535-.53-.383-.371-.386-.878-.742-.505-.38.113-1.378v-1.649l-.6-2.008-.621-2.403v-1.78l-.67-1.362-.37-.902-.255-1.392v-1.496l-.093-.89-.138-.655-1.017-2.635-.483-.507-.785-.403-.485-.352-.623-.249-.37.128-.115-.506.232-.66.392-.358.854 1.13h.255l.138-.488-.138-1.529-.393-1.894-.485-.999-.508-.636-.233-1.136-.254-.999.14-.372.347-.261.277-.26.139-1.26.577-.393.393-.508.138-1.388v-2.012l-.623-3.668-.14-.375-.253-.61.485-.129 1.292-.635 1.87-2.032.232-.25v-.621l.39-1.263.393-.13.995.13-.12-.64-.621-2.011-.507-1.393.253-3.287.37-3.665.9-1.123.739-.767.369-.25.508-.234.393-.39.483-.267 1.017.127 1.615.64.278.252.23.364.277.39.994.897.232.229 2.63.788 2.033-.656 1.386-.995 2.769-.264 1.11.136.505.238.141.13 7.292 3.29 6.95 3.034 12.419 5.55.623 13.874.137 3.422 13.99-18.68 8.633-11.625 9.928-13.237 17.221-4.56 17.015-4.546 10.92-2.875 12.835 26.976.505 1.158L413 416.61l-1.248.248-1.293.389-.325.362-.276.262-.368.116-1.756.908-1.152.238-.485.11-.396.136-.389.252-.855.504-.138.135-.37.238-.348.397-1.916 1.883-.876 1.647-.877 3.019.485 1.892.508 1.768z"/></g><g id="Group-3" transform="rotate(-180 136 77)"><mask id="mask-2" fill="#fff"><use xlink:href="#path-1"/></mask><path d="M16.475 47.776l13.382-20.007C37.63 16.146 29.85 0 16.475 0 3.098 0-4.682 16.146 3.092 27.769l13.383 20.007z" id="Fill-1" fill="#CB9D0E" mask="url(#mask-2)"/></g><g id="drop" transform="rotate(-180 217 154)"><mask id="mask-4" fill="#fff"><use xlink:href="#path-3"/></mask><path d="M16.475 47.776l13.382-20.007C37.63 16.146 29.85 0 16.475 0 3.098 0-4.682 16.146 3.092 27.769l13.383 20.007z" id="Fill-1" fill="#CB9D0E" mask="url(#mask-4)"/></g></g></g></g></svg>