<?xml version="1.0" encoding="utf-8"?>
<!-- Generator: Adobe Illustrator 22.1.0, SVG Export Plug-In . SVG Version: 6.00 Build 0)  -->
<svg version="1.1" id="Слой_1" xmlns="http://www.w3.org/2000/svg" xmlns:xlink="http://www.w3.org/1999/xlink" x="0px" y="0px"
	 width="546px" height="485px" viewBox="0 0 546 485" style="enable-background:new 0 0 546 485;" xml:space="preserve">
<style type="text/css">
	.st0{opacity:9.300000e-02;}
	.st1{fill:none;stroke:#231F20;stroke-width:2;stroke-linejoin:bevel;}
	.st2{filter:url(#Adobe_OpacityMaskFilter);}
	.st3{fill:#FFFFFF;}
	.st4{mask:url(#mask-2_1_);fill:#CB9D0E;}
	.st5{filter:url(#Adobe_OpacityMaskFilter_1_);}
	.st6{mask:url(#mask-4_1_);fill:#CB9D0E;}
</style>
<g id="Page-1">
	<g id="Home-" transform="translate(-976 -214)">
		<g id="Group-2" transform="translate(977 215)">
			<g id="Map" class="st0">
				<path id="Stroke-1" class="st1" d="M5.6,171.8l2,0.6h1.1l1.1-0.2l1.2-0.4l1.6-0.6l1.8-0.5l0.5-0.1h1.4l0.5,0.1h0.3l1.3,0.4
					l1.1,0.4l1.9,0.6l0.5,0.1l0.4,0.1l1.8,0.2l2,0.3l1.8,0.4l1.6,0.4l2.4,0.7l1.5,0.2l1.2,0.1l0.3-0.1l0.6,0.1l0.2,0.1l0.3,0.6
					l0.1,0.5l0.2,0.4l0.3,0.4l0.3,0.2l0.4,0.2h0.2l1.5,0.5l1.3,0.3l1.9-0.6l0.6-0.5L43,177l0.4,0.8l0.1,0.6l0.1,0.5l0.3,0.2l3.8,0.4
					l1.1,0.2l1.1-0.2l0.6-0.1H51l1.9,0.8l2.3,0.8l0.5,0.2l0.9,0.4l0.1,0.5l1,0.8l1.2,0.5l0.8,0.3l0.4,0.1h0.8l0.4-0.1h0.5l0.5-0.3
					l0.4-0.1l1.1-0.5l2-0.9l0.5-0.4l0.8-0.7l0.3-0.3l0.5-0.4l0.7-0.5l0.7-0.7l0.8-0.5l2.5-2.3l0.7-0.5l0.3-0.3l0.5,0.6l0.6,1l1,0.1
					l1-0.4l0.1-0.5v-1.1l0.6-1.9l0.5,0.1l-0.2-0.3l-0.3-0.8l0.5,0.1l0.3,0.4l0.5,0.2l0.5,0.1h0.2l1-0.2l0.3-0.1l1.2-0.4l0.5-0.2
					l0.6-0.3l0.5-0.2l0.5-0.1l1.5-0.4l-3.4,1.8l-1.8,0.6l-0.4,0.5l0.8,0.2l2-0.5l2.2-0.1l0.9-0.5l0.5-0.5l1.3-0.1l0.4-0.1l-0.3-0.8
					l-0.6-0.4l-0.5-0.1l-0.8-0.1l0.5-0.3l1.1-0.1l0.5,0.1l0.7,0.1l0.5,0.3l0.6,0.2l1,0.4L91,172l1.3,0.6l1.3,0.6l0.5,0.1h0.5l1-0.3
					l1.2-0.4l0.7-0.4l0.4-0.2l0.5-0.3l0.2-0.1L99,172l0.5,0.4l0.1,0.5l0.4,0.5l0.4,0.4l0.4,0.6l0.4,0.1l0.4,0.2h0.3l1.4,1.1
					l-0.5-0.3l-0.7-0.4l-0.4-0.2l-0.1-0.3h-0.3l-0.6-0.4l-0.4-0.4l-0.3-0.5l-0.6-1.2l-0.4-0.3l-0.6,0.3l-1,3.8l0.4-0.1l0.5,0.8
					l1.4,1l0.4-0.4l0.7-0.3h0.3l0.3,0.4v0.9l0.2,0.3l0.4,0.8l0.9,0.1v-0.2l-0.1-0.1l0.8-0.5l0.5,0.4h0.4l0.3-0.4V178l0.1-0.1v-0.6
					l-0.3-0.9l-0.3-0.1h-0.1l-0.5-0.1h0.9l0.7,0.1l1,1l1,0.9l0.2,0.3l0.3,0.4l0.8,0.7l0.6,0.3l1,0.1l0.6,0.2l0.9-0.2l3.4-1.8
					l1.1-0.6l0.5,1.5v0.8l0.9-0.1l0.6-0.4l0.8-0.4l1.4-0.8l0.7,0.3l0.3,0.3l0.6,0.1l0.7,0.1h0.3l0.5-0.1h0.5l0.9-0.3l0.9-0.3
					l0.9-0.2l0.9-0.3l0.6-0.4l0.9-0.4l0.8-0.4l1.4-1.2l0.1-0.1l0.2,0.5l0.5,1.2l0.4,0.9l1.9,5.1l1.4,2.8l1.3,3.3l-0.2,0.9l0.1,0.5
					l1,0.6l1.7,4.6l0.5,1.7l1.6,4l0.4,1.5l0.1,0.3l-0.1,0.5l0.3,1.1l0.4,0.8h-0.3l-0.4,0.3l-1.1,2.3l-0.3,0.8l-0.5,2.5l-0.3,1.5
					l-0.5,3.3l0.1,1.4l0.1,0.4l-0.3,0.6l-0.3,0.5l-0.5,1l-0.3,0.6l-0.9,2.1l-0.5,1.9l0.1,1.4l0.3,0.5l0.4,0.5v2.9l-0.1,0.4l-1.4,1.7
					l-0.4,0.2l-0.3,0.6l-0.1,0.5v1l-0.5-0.6l-0.5-0.4l-0.7-0.1l-2.3-1.5l-2.2-1.4l-0.4-0.3l-0.5-0.6l-0.9-0.9l-1.3-1.9l-0.4-0.8
					l-0.6-0.9l-0.6-0.3l-1.1-0.9l-0.4-0.3l-1.6-1.8l-0.3-0.2l-0.6-0.9l-0.4-0.9l-0.4-0.9l-0.6-3.3l-0.1-1.5v-0.3l0.1-0.4l-3.3-3.4
					l-0.4-0.1l-0.5-0.4l-2.3-3.7l-0.4-0.9l-0.5-1.8l-0.1-0.9l0.1-0.9l-0.4-0.5l-0.4-0.5l-0.6-0.6l-0.5-1.5V198l-0.1-0.9l-0.1,0.8
					l-1.2,0.4l-0.3,0.7l0.4,0.4l-0.4,1.3l-0.5,0.6l-0.6,1.3l-0.2,1.4l0.4,0.9l0.5,0.5l0.5,0.2l1.9,1.9l0.5,0.6l0.5,1.8l0.4,1
					l0.1,0.9l0.1,0.1v0.3l-0.4,0.5l-0.1,1.3l1,2l0.7,0.8l0.3,0.3l0.5,0.1l0.3,0.2l0.2,0.5l0.1,0.4l0.1,0.4l0.4,1.3l1.1,1.4l1,0.9
					l0.3,0.5l0.8,1.5l0.8,1.3l0.7,1l0.8,0.8l1.7,1.8l1,0.8l0.4,0.2l0.5,0.4l0.3,0.1l0.5,0.8l0.6,1l0.1,0.4l0.3,0.6v0.5l-0.5-0.4
					l-0.5-0.4l-0.2-0.2l-0.3,0.3l0.4,3l1,1.1l1.2,1.4l0.5,1l0.3,0.9l0.1,0.5l0.3,0.4l0.2,0.2l0.3,0.1l0.5,0.2l0.8,0.4l0.1,0.4
					l0.1,0.5l-0.1,0.6l0.1,0.7l1.6,3l0.2,1.9l-0.1,2.2l0.1,0.5l0.2,0.3l0.6,0.1l0.3,0.2l1,1.8l1,2.3l0.6,1.1l0.4,0.9l0.1,0.4
					l0.1,0.4l1.6,2.9l1.8,2.9l0.8,1.1l0.2,0.3l0.4,0.2l0.2,0.4l1.2,2.4l0.1,0.3l0.6,1.2l1.5,3.3l0.8,1.5l0.5,0.9l0.5,0.8l0.5,0.8
					l0.4,0.6l0.7,1.4l1.5,3.4l0.9,2.9v0.4l1.3,1.5l0.2,0.2l0.9,0.6l0.6,0.6l0.8,0.6l0.5,0.9l0.1,0.3l0.4,0.8l0.5,0.5l1.7,1.1l1.5,1
					l0.4,0.2l0.5,0.3l0.3,0.5l0.5,0.8l-2.9-0.4l-0.8-0.5l-0.3-0.4l-0.3,0.1l-0.3,0.1l-0.2,0.5v2.1l0.4,1l0.3,0.5v0.7l-0.1,1.3
					l-0.1,1.6l0.1,0.4l0.6,1l0.3,0.6v1l0.3,1.1l0.3,0.4l0.3,0.6l0.5,0.8l0.1,0.3l0.4,1.3v0.5l0.1,0.6l1.2,1.6l1.5,1.8l0.4,0.3l1,0.5
					l1.1,0.4l0.5,0.1l1.3,0.4l1.2,0.5l0.6,0.8l1.5,2.1l0.4,0.8l0.6,1l0.4,0.5l0.4,0.1l0.7,0.1l3.1,2.3l0.8,0.6l0.9,0.7l0.4,0.4
					l0.1,0.4v0.4l-0.1,0.1h-31l-0.6,0.1h-8l-0.4-0.1h-37v-0.5l0.6-2.2l-0.1-0.5l-0.4-0.5l-0.5-0.1l-0.4,0.1l-0.4,0.3l-0.7,1.6
					l-0.3,0.5l-0.5,1.3H72.5l-3.9,0.1h-3.3l-5.9-0.1H47l-4.5,0.1h-1.2l-0.9-0.1h-4.2l-0.7,0.1h-3.8l-4.4-0.1H8.4v-0.8l-0.2-3.9
					l-0.5-21.3l-0.2-7.3l-0.1-5.2L7.1,283v-3.4l-0.3-7.3l-0.3-8.8L6.3,255v-1.3l-0.1-2.5l-0.1-3.7v-1l-0.1-1.3l-0.1-5.7l-0.1-3v-2.4
					l-0.1-2.4l-0.1-1.6v-2l-0.1-2.5l-0.4-11.2l-0.3-4.8l-1.3-3L3.2,206l-0.3-0.8V204l-1-3.8l0.1-0.3v-0.7l-0.3-0.6L1.7,198L1,196.6
					l-0.6-1.4l-0.3-0.4L0,194.6l0.1-0.5l0.1-0.6l0.6-1.3l0.6-1l0.4-0.5l0.4-0.5l0.6-1.4l0.6-2l0.4-2.5l-0.3-0.9l-0.4-0.5l-1-2.3
					l-0.1-0.4l-0.5-2l-0.1-3.5l0.2-0.5l1-0.6l0.5-0.6l0.5-0.6l0.3-0.8l0.1-0.4l0.4-0.4l0.4-0.4l0.3-0.1V170v0.3L5.6,171.8z"/>
				<path id="Stroke-3" class="st1" d="M131,176.3l0.4-0.4l0.4-0.4l1.7-1.9l0.9-1l0.3-0.5l0.1-0.3l1.2,0.9l-0.3,0.5l-0.3,0.2
					l-0.6,0.4l-1.3,1.2l-0.3,0.6l0.1,0.9l-0.6,0.7l-1,0.6l-0.6-1.2L131,176.3z"/>
				<path id="Stroke-4" class="st1" d="M264.9,42.8l0.9,0.8l0.9,1l0.3,0.4l0.3,0.6l0.1,0.5l1.2,0.3l0.6,0.1l0.3-0.1l0.6,0.5l1.3,1.6
					l0.1,0.6l0.2,0.4l0.6,0.3l0.6,0.2l0.3,0.1l1,0.2l3.3,0.8l1.5,0.2l1.7,0.2l1.5,0.5h0.1l0.6-0.4l0.4-0.3l0.3-0.2l0.8-0.3h0.4
					l1,0.4l0.9,0.1h0.4l0.3-0.6l1-1l1-1.1l0.1-0.6l1-1.1l0.4-0.1h0.4l0.6,0.1l1-0.7v-0.6l0.7-1.1l0.8-0.5l0.5-0.1l1-0.5l0.4-0.4
					l0.2-0.5l0.6-0.8l0.8-0.4l1.1-0.3l2.8-2l0.1-0.5l0.2-0.3l2.3-0.5l0.4,0.3l0.4,0.3l0.4,0.2l0.3,0.4l1.3,1.1l0.9,0.8l0.5,0.5
					l0.5,0.4l0.6,0.5l0.2,0.4l0.4,0.5l-1,0.7l-0.3,0.1l-0.6,0.1l-0.6,0.5l-0.2,0.4v0.5l0.2,0.6l1.5,1.1l0.6,0.3l0.3,0.2l0.6,0.9v0.4
					l-0.1,0.5l-0.2,0.3l-0.3,0.1l-0.5,0.1H308l-0.8,0.2l-0.6,1v0.5l0.3,0.5l1.2,0.8l0.3,0.3l0.4,0.1l0.5,0.2l0.9,0.5l0.1,0.7
					l1.3,1.1l0.5-0.1l0.4-0.3h0.5l2.2,2.5l0.5,0.9l0.4,0.2l0.6,0.1l1-0.5l0.5-0.4l0.7-0.1l0.6,0.3l11.5,2.9l3.2-1.1l3.1-0.8l1.4-0.4
					l2.5-1.1l2.5-1.3l2.5-0.5l2.5-0.8l2.3-1.5l3,3.8l2.7,3.8l2.5,2.5l2.9,2.8l1.5,0.8l1,0.5l5.6,0.9l1.5,0.4l1.3,0.9l1.9,0.9l2,0.9
					l1,0.8l2.2,1.3l0.2,0.1l4.4,2.5l2-0.1l3-0.2l4,0.4l2-0.5l0.6-0.4l0.3-0.1l0.8-0.4l0.3-0.2l0.4-0.3l0.4-0.1h0.4l0.4,0.1h0.5
					l1-0.9l0.2-0.3l0.3-1.1l-0.4-0.6l-0.1-0.4l0.1-1.1l0.3-0.5l0.4-0.4l0.2-0.1l0.4-0.1l0.5-0.4l0.9-1l0.1-0.4l0.3-0.3l0.8-0.8
					l0.5-0.3l0.6-0.2l1.9-0.9l0.1-0.1l0.3-0.4l0.2-0.3l0.4-0.1l1.1-0.1l1.5-0.1l0.4-0.1l0.5-0.1h1l0.3,0.3l0.5,0.2l1.6,0.2h0.8
					l0.3-0.1h0.5l0.8-0.1l0.7,0.4l1.4-0.3l0.1-0.9l-0.4-0.4l-0.1-0.4l0.5-0.5l0.3-0.3l0.3-0.4l0.3-0.1h0.4l1-0.1l0.4,0.1l1.6-0.1
					l0.8-0.3l0.2,0.3l0.4,0.2l0.6,0.4l0.3,0.1l1.1,0.1l1.7,0.4l0.9-0.8l0.1-0.4v-0.1l0.4-0.3h0.3l0.5,0.3l2.3,2.9l0.1,0.4v1.3
					l0.4,0.3l1.2,0.7l1,0.1h2.3l6.8,2.2l0.4,0.1l0.5,1.2V71l0.2,0.3l2.5,0.6h1.2l2-0.3l0.3,0.1h0.7l1.1-0.4l1.6,0.1l0.7,0.2l1,0.4
					l0.3,0.3l0.9,0.6l1,0.6l0.5,0.2h0.4l0.3-0.2l0.3-0.1l0.4,0.1l0.6,0.6v0.4l0.1,0.8l0.1,0.4l0.4,1l0.1,0.3l1.4,1.5l1,0.4l2.4,1
					l1.4,0.4l3.1,1.4l0.7,0.5l0.3,0.4l0.3,0.5l0.3,0.4l0.6,0.6l0.3,0.4l3,3.5l0.5,0.1H490l0.3,0.3l0.5,1V92l0.7,2.1l0.7,1.8l0.2,0.6
					v1.2l0.5,2.1l0.2,0.5l0.2,0.3l0.5,1.2v2l0.1,0.5l0.2,0.5l0.5,0.4l0.2,0.9v0.6l-0.9,2.7l-0.8,1.1v0.8l0.2,1l0.2,0.1l0.4,0.6
					l0.1,0.8v1l-0.1,2.3l-0.1,1.5l-0.7,2.3l-1.5,1.4l-0.3,0.1H491l-0.5,0.3l-0.2,0.2l0.8,0.9l0.5,0.1l1.4,1.8l0.1,0.6h-2l-0.8,0.1
					l-1.5,1.9l-0.1,0.5l-0.1,0.4l-0.1,0.4l0.1,0.5l0.1,0.5l0.2,0.8l0.3,0.9l0.8,2.3v0.8l-0.4,0.5l0.3,0.9l0.1,0.5l0.3,0.3l0.1,0.3
					l0.4,0.2l0.5,0.3l1,0.5l0.6,0.1h2.5l0.3,0.1l0.5,0.5l-0.1,0.3h-0.7l-0.3,0.4l-0.5,1.5l-0.5,0.8l-0.2,0.5l-1,1.8l-0.5,0.9v1
					l0.1,0.4l0.2,0.4l0.2,0.5l1.4,3.1l1.4,3.2l2.3,5l0.4,1l0.1,0.5l0.1,0.6v1.6l-0.1,1.1l-0.1,0.4l0.4,0.8l0.4,2.9l0.1,1.9l1,2.6
					l3.5,0.5l1.3,0.2l3.6,0.5l3.8,0.6l0.4,0.5l0.5,0.5l0.1,1l0.3,0.6l0.4,0.6l0.9,2.5l-0.6,3.9l-4.4,6.7l-1.2,1.5l-0.6,1l-0.5,0.6
					l-1.5,2.4l-1.5,2.1l-0.5,0.8h-0.1l2.9,3l3.9,4l0.5,0.6l0.8,1.8l0.1,0.4l1.3,1.9l1.3,1.3l0.7,1.4l0.6,1.3l0.9,1.8l0.3,0.3
					l2.8,2.6l1.3,1.1l0.4,0.2l0.3,0.1l3.8,1.3l1.6,0.2l1.1,0.4l1.4,1l0.8,1l1,1l0.5-0.1l0.8-0.1l1.3-0.3l0.2,0.9v3.5l0.1,0.4
					l0.1,0.4l0.6,1.9l0.4,0.8l0.1,0.5v0.3l0.7,4.4l-0.1,0.4l-0.3,1v2l0.5,0.5l1.7,0.3l0.9-0.3l0.5-0.1l2.3-0.4l1.3,0.6l0.7,1.3v0.4
					l-0.7,0.1l-0.3,0.6l0.1,0.5l0.2,1.8l-0.4,1.4v3.5l-0.4,0.1h-1.4l-0.6-0.1l-0.6-0.1h-2.9l-0.3,0.5l-0.5,0.3l-1.6,0.4h-0.7
					l-0.5,0.1l-1,0.1l-1.6,0.9l-0.5,1.5l0.4,0.6l-0.2,0.4l-0.7-0.1l-0.6-0.1l-0.6-0.1l-0.4,1H528l-0.3,0.1l-2.5,1.1l-0.2,0.1v0.4
					l-0.1,0.5l-0.1,1.1v2.5l-0.2,1.4l0.2,0.5l-0.3,0.5l-0.6,0.1l-0.4,0.1v3.3l0.1,1.4l0.1,1.9v1.5l-0.3,1.8l-0.5-0.1l-0.7,0.6
					l-0.3,0.8l-0.7,0.6h-0.6l-2.6-0.8l-0.3-0.5l-0.4-0.3l-2.6-0.6l-0.4-0.2l-2.6-0.5l-0.9-0.1l-1-0.1l-0.4-0.1l-0.2-1l-0.1-0.4v-0.4
					l-0.1-0.3l-0.2-0.4l-0.3-0.3l-0.3-0.1h-0.9l-0.5,0.1l-0.3,0.2l-0.3,0.4l-0.1,0.5l0.3,0.5h0.4l0.5,1.1l-0.4-0.1l-1.9-0.9
					l-0.3-0.4l-1.5-0.3l-1.4-0.2l-1.9,0.1l-1.9-0.6h-1.4l-0.9,0.1l-0.5,0.1h-0.3l-0.4-0.1l-0.4-0.3l-0.5-0.5l-0.7-0.4l-0.5-0.1
					l-0.4,0.1l-0.8,0.1l-1.6,0.6l-1.5,0.5H487l-0.4-0.1l-0.3-0.3l-0.8-1l-0.3-0.4l-0.4-0.2l-1.4-0.8h-0.8l-0.7,0.1l-3.1-0.5
					l-1.5-0.3H477l-0.4,0.1l-0.1,0.2l-2.2,0.6h-0.5l-0.7-0.4l-0.4-0.1l-0.4-0.4L472,269l-0.1-0.4l-0.4-0.6l-0.4-0.3l-1.1,0.4
					l-0.5,0.3l-0.8-0.1v-0.5l-0.5-0.6l-0.4-0.1h-0.9l-0.4,0.2l-1.5-0.1l-3-0.5l-0.2-0.5l-0.1-0.4l-0.1-0.6l-0.4-0.9l-0.6-1.1
					L460,263v-0.1l-0.6-1.2v-0.4l-1.6-5l-0.2-0.8l0.1-0.6V254l-0.1-0.7l-0.2-0.8l-0.3-1.3l-0.3-0.5l-0.4-1v-0.4l-0.2-0.4l-0.3-0.4
					l-2.3-2.3l-0.2-0.4l0.2-0.4l-0.2-0.4l-0.7-0.8l-1.8-0.4l-0.6-0.1h-0.4l-1.3-0.1l-2.5-0.6h-0.4l-2.6,0.6l-0.2,0.2l-1.8,1.4
					l-0.2,0.5l-1.5,0.4h-0.6l-1.5,0.3l-0.4,0.1l-0.3,0.1l-0.5,0.5l-0.3,0.6l0.1,0.9l0.3,0.5v0.4l-1.5,0.6l-0.5,0.1h-0.4l-0.6-0.1
					l-0.3-0.2l-1.1-0.1l-0.5,0.1l-1,1l-4,3.3l-0.9,0.5l-1.4-0.4l-3.2-1.3l-1.6-1.1l-0.6-0.8l-0.4-0.3h-0.4l-0.5,0.1l-0.3,0.2h-0.5
					l-0.4-0.1l-0.4-0.1l-0.5-0.1l-0.4-0.1l-1.9,0.2l-1.3,0.1l-1.2-0.1l-0.9-0.4l-0.6-0.4l-2.4-1.6l-0.2-0.3l-0.1-0.5v-0.5l-0.1-0.4
					l-0.4-0.2l-0.7-0.5l-1.1-0.2l-1-0.4l-1-0.4l-0.9-0.4l-1.7-0.8L397,243l-0.6-0.6l-0.9-0.6l-1-0.5l-0.2-0.1l-0.9-0.4l-0.5-0.6
					l0.5-0.4l0.1-0.9l-1.4-1.6l-0.7-0.8l-1-0.5l-1-0.1l-1.6-0.5l-0.4-0.1l-0.4-0.2l-0.4-0.1l-0.3-0.3l-0.3-0.3l-0.1-0.4l-1.3-0.9
					l-0.3-0.1l-0.6-0.1l-2.3-0.3h-0.7l-0.6,0.3l-1.5-0.2l-0.4-0.1l-2.2-1.5l-1.7-1.8l-1-1.8l-0.6-2l-1.5-2.1l-0.9-1.4l-0.3-1.1
					l-0.1-0.6l-0.1-1.3l-0.1-0.4l-0.3-0.6l-0.5-0.8l-0.2-0.3l-0.9-0.2l-0.4-0.1h-0.3l-0.4-0.1l-0.4-0.4l-0.9-1.2v-0.8l0.2-0.4
					l0.5,0.4l0.5,0.5l0.4-1v-0.3l-0.1-0.7l-0.6-0.6l-0.9-0.5H364l-0.4,0.2l-0.6-0.4l-0.3-0.8l0.3-1l-0.1-2.5l-0.1-0.5l-0.4-0.6
					l-0.3-0.4l-2.4-2.1l-0.3-0.3h-0.4l-0.2-0.2l-1.9-2.5l-0.6-0.9l-0.5-0.3l-0.3-0.2l-0.4-0.4l-0.3-0.3l-0.2-0.3v-1.3l-0.3-0.8
					l-0.4-0.9l-0.3-0.4l-0.3-0.5l-0.4-0.4l-0.3-0.1l-0.2-0.1h-0.3l-1,0.1l-0.4,0.3l-0.4,0.1l-0.5,0.4l-1.4,1.3l-1.9,1.3l-0.4,0.1
					l-0.9-1v-0.5l-0.1-0.5l-0.1-0.4l-0.4-0.1l-0.5-0.2h-1l-0.5,0.1l-1.1-0.4l-3.4-1.8l-1.3-1.5l1.9-0.3l0.8,0.2l1,0.6l0.5-0.3
					l0.4-0.9l-0.5-0.8l-0.5-0.2l-1.4-0.5h-0.7l-0.9,0.1l-0.3,0.2l-0.9,2.3v0.8l0.4,0.6l0.4,0.3l0.4,0.9l0.2,0.5v1.4l-0.1,0.8
					l-0.6,0.4l-1.4-0.1h-0.9l-0.6,0.5l-0.3,0.5l-0.3,0.3H333l-0.6-0.3l-1-0.3l-0.4-0.4l-0.7-1.6l-0.1-1.1v-0.5l-1.9-2l-2-1.6
					L326,190l-0.5-0.2l-0.7-0.1l-0.5-0.4l-0.1-1.7l-0.1-1.1l-0.5-4.8v-0.8h-2.8l-2-0.1l-0.1-1.8l-0.3-1.4V177l-0.1-1.1l-0.2-1.8
					l0.2-0.8l0.4-1.1l0.5-2l0.2-1.3l0.3-1.1l-0.3-0.4l-0.9-1.1l-0.9-0.8l-1.7-1.9l-0.5-0.9l-1.1-1.5l-1.9-2.5l0.3-0.7l-1.3-1.4
					l-1.3-0.2l-0.2,0.2l-0.6,0.1l-0.6,0.1l-0.3-0.1l-1-0.6l-0.2-0.3l-1.5-1l-0.3-0.4l-0.5-0.3l-0.3-0.4l-0.5-0.4l-0.2-0.3l-1.4-1.1
					l-0.4-0.3l-0.4-0.2l-0.6-0.2l-1.4-1l-1-0.8l-0.6-0.4l-0.5-0.3l-0.6-0.1l-0.9-0.3h-0.9l-0.5,0.1l-0.4,0.1h-0.4l-0.6-0.4l-0.1-0.5
					v-1.3l0.4-0.9l0.5-0.6l0.1-0.4l-0.5-1.1l-0.8-0.6l-1.1-1.3l-0.1-0.4l-0.1-0.5l-0.3-0.4L291,140l-0.8,0.1h-0.4l-0.8-0.3l0.1-0.4
					l0.8-0.5l-0.8-1.4l-1.1,0.2l-0.3,0.4h-0.5v-0.6l-0.9-0.5l-0.8-1.1l-0.1-0.5l-1.5-2l-0.8-0.9h-0.8l-0.3-0.1l-0.3-0.4l0.6-1.7l1-1
					l0.3-0.3l-0.1-2.5l-0.1-0.3l-0.4-0.4l-0.3-0.1l-0.4,0.2l-0.5-0.8l-0.5-1.3l1.4-2.2l1.3,0.3l0.9,0.2l0.2-0.4l-0.5-1.3l-0.4-0.6
					l-0.4-0.3l-0.1-0.4l0.4-1.2l0.3-0.3h0.4l0.2-0.2l0.4-1.2l0.8,0.3l0.3-0.1l0.1-1.2l-0.3-0.4v-0.6l0.8-0.9l0.6,0.3l0.6,0.3
					l1.8-0.8v-1.9l-0.4-0.3l-0.5-0.6l0.3-0.4l-1.4-1.4l-0.3-0.3l-0.9-1.4l-0.4-1.6l0.5-1.8l0.5-0.1l0.5,0.1h0.5l1.1-0.4l0.5-0.3
					l0.7-0.8v-0.7l-0.3-0.2h-0.5l-0.4,0.2l-0.8,0.3l-0.4-0.1l-0.3-0.3l-0.3-0.4l-0.6-0.4l-2.6,0.6l-0.3,0.2h-1.5l-0.2-0.2l-0.1-0.4
					l-0.3-0.4l-0.6-0.8l-0.3-0.3l-0.6-0.5l-1.5-0.6l-0.1-0.1h-0.5l-0.8,0.4l-1-1.1l-0.3-1.1l-0.5-1.8l-0.9-2.3l-0.5-0.9h-0.4L274,92
					l-0.4,0.1h-0.3l-0.5-0.1l-0.3-0.3l-0.1-0.4l-0.5-0.9l-0.6-0.5v-0.3l0.3-1l0.2-0.4l-0.1-0.8l-0.6-0.8l-1.3-0.8h-0.5l-0.4-0.1
					l-0.2-0.1l-0.3-0.5l0.5-0.8l0.3-0.4v-0.4l-0.3-1.9l-0.7-0.3l-0.6-0.1l-0.4-0.5l-0.4-0.4l0.3-0.6v-0.4l0.2-1.5v-0.5l-0.4-0.4
					l-2.2-1.7l-0.5-0.1l-0.3-0.1l-0.5-2.8v-1.3l0.3-0.5l-0.6-0.8l-4.1-1.8l-1-0.4v-1l0.8-2.3l0.7-1.9l0.8-1.6l0.1-0.4l-0.8-0.9
					l-1.5,0.1l-0.2-0.2l-0.2-0.8v-0.4l0.2-0.6l-0.3-1.8l-0.3-0.5l-0.8-1.3l0.4-1.4l-0.1-0.5l-0.3-0.4H256l-0.6-0.5l-0.6-1.3
					l-0.2-0.5l0.3-0.9l0.1-1.3l-2.4-3.3l-0.3-0.2l-0.4-0.4v-0.3l0.5-0.4l1.6-0.1l0.5,0.3l1,0.2l0.4-0.1l0.8-0.4l0.4-0.3l0.3-3.4
					l-0.3-0.9l1.6-1.3l1.9,1.3l1.2,1.1l0.7,0.1l0.4,0.2l0.3,0.8l0.1,0.4l0.4,1l0.5,0.6l0.3,0.3L264.9,42.8z"/>
				<path id="Stroke-6" class="st1" d="M241.5,76.9h0.5l0.5-0.3l2-0.5l4.8,2l1.9,0.4l2.6,0.1l1.4-0.1l0.3-0.4l0.1-0.5l0.6-0.6h1.6
					l1.6,0.8l0.5,0.6L260,79v0.5l-0.4,0.1l-0.3,1l1.1,1.8l0.8,0.2l0.3-0.6l0.1-0.5l1-0.4l0.5-0.2l0.2-0.3L264,80l0.1-0.3l0.2-0.2
					l0.6-0.4l1.5,0.2l0.4,0.1l0.3,0.2l-0.3,0.6l0.4,0.4l0.4,0.5l0.6,0.1l0.7,0.3l0.3,1.9v0.4l-0.3,0.4l-0.5,0.8l0.3,0.5l0.2,0.1
					l0.4,0.1h0.5l1.3,0.8l0.6,0.8l0.1,0.8l-0.2,0.4l-0.3,1v0.3l0.6,0.5l0.5,0.9l0.1,0.4l0.3,0.3l0.5,0.1h0.3l0.4-0.1l0.3-0.3h0.4
					l0.5,0.9l0.9,2.3l0.5,1.8l0.3,1.1l1,1.1l0.8-0.4h0.5l0.1,0.1L281,99l0.6,0.5l0.3,0.3l0.6,0.8l0.3,0.4l0.1,0.4l0.2,0.2h1.5
					l0.3-0.2l2.6-0.6l0.7,0.4l0.3,0.4l0.4,0.3l0.4,0.1l0.8-0.3l0.4-0.2h0.5l0.3,0.2v0.7l-0.7,0.8l-0.5,0.3l-1.1,0.4h-0.5l-0.5-0.1
					l-0.5,0.1l-0.5,1.8l0.4,1.6l0.9,1.4l0.3,0.3l1.4,1.4l-0.3,0.4l0.5,0.6l0.4,0.3v1.9l-1.8,0.8l-0.6-0.3l-0.6-0.3l-0.8,0.9v0.6
					l0.3,0.4l-0.1,1.2l-0.3,0.1l-0.8-0.3l-0.4,1.2l-0.2,0.2h-0.4l-0.3,0.3l-0.4,1.2l0.1,0.4l0.4,0.3l0.4,0.6l0.5,1.3l-0.2,0.4
					l-0.9-0.2l-1.3-0.3l-1.4,2.2l0.5,1.2l0.5,0.8l0.4-0.2l0.3,0.1l0.4,0.4l0.1,0.3l0.1,2.5l-0.3,0.2l-1,1l-0.6,1.7l0.3,0.4l0.3,0.1
					h0.8l0.8,0.9l1.5,2l0.1,0.5l0.8,1.1l0.9,0.5v0.6h0.5l0.4-0.4l1.1-0.2l0.8,1.4l-0.8,0.5l-0.1,0.4l0.8,0.3h0.4l0.8-0.1l0.2,0.5
					l0.3,0.4l0.1,0.5l0.1,0.4l1.1,1.2l0.8,0.6l0.5,1.1l-0.1,0.4l-0.5,0.6l-0.4,0.9v1.3l0.1,0.5l0.6,0.4h0.4l0.4-0.1l0.5-0.1h0.9
					l0.9,0.3l0.6,0.1l0.5,0.3l0.6,0.4l1,0.8l1.4,1l0.6,0.2l0.4,0.2l0.4,0.3l1.4,1.1l0.2,0.3l0.5,0.4l0.3,0.4l0.5,0.3l0.3,0.4l1.5,1
					l0.2,0.3l1,0.6l0.3,0.1l0.6-0.1l0.7-0.1l0.2-0.2l1.3,0.2l1.3,1.4l-0.3,0.6l1.9,2.5l1.1,1.5l0.5,0.9l1.7,1.9l0.9,0.8l0.9,1.1
					l0.3,0.4l-0.3,1.1l-0.2,1.3l-0.5,2l-0.4,1.1l-0.2,0.8l0.2,1.8l0.1,1.1v0.6l0.3,1.4l0.1,1.8l2,0.1h2.8v0.8l0.5,4.8l0.1,1.1
					l0.1,1.7l0.5,0.4l0.7,0.1l0.5,0.2l0.3,0.3l2,1.6l1.9,2v0.5l0.1,1.1l0.7,1.6l0.4,0.4l1,0.2l0.2,0.4l-0.4,0.2h-1.3l-0.9-0.2
					l-0.5-0.3l-0.6-0.2l-0.4-0.3l-0.4-0.3l-0.3-0.1l-0.6-0.2l-0.5-0.1l-0.9-0.1h-0.4l-1.5,0.1l-0.1,0.3h-0.1l-3-1h-5.2l-2,0.8
					l-0.4,0.3l-0.4,0.4l-0.3,0.4l-0.1,0.4l-0.1,0.8l-0.5,1.8l-0.7,2.4l-0.3,1.1l-0.3,0.4l-0.8,1.4l-0.4,0.6l-0.6,1.3l-0.7,1.5
					l-0.3,0.5l-0.4,0.8l-0.2,0.1l-0.5,0.4l-0.2,0.2l-0.3,0.4l-0.1,0.3l-1.6,0.6l-4.3-0.4l-19.7-1.8l-13.7-11l-11.3-9.1l-2-1.6
					l-12.5-9.7l-9.4-4.3l-15.2-9.5l-4.7-0.9l-8.4-1.6l-4.1-0.9l1.3-1.3l-0.8-2L197,159l-1-2.9l1.4-0.4l-5.3-14.2l0.1-0.1l2-1.3
					l5.6-3.3l2.4-1.5l3-1.6l2.6-1.6l2.1-1.3l0.4-0.3l6.1-3.5l4.4-2.6l0.3-0.9l0.6-2.1l1.5-2.9l-0.4-2.3l-0.4-2.4V113l-0.3-1.3v-0.5
					l0.1-0.5l0.1-0.9l0.1-0.6v-0.4l0.1-0.5l-0.1-0.7v-0.9l0.5-0.9l0.8-1.3l-0.5-3.4l-0.3-0.6l-1.5-2.5l-0.3-0.4l-0.2-4.9l0.9-1.9
					l0.4-0.9l5.7-1.3l6.5-7.4v-0.1l0.1-0.1l-0.4-0.6l0.3-0.1l2-0.5l0.6-0.1v-0.3l1.5-2.9l0.5-0.4l0.3-0.1l0.6,0.2l1,0.5L241.5,76.9z
					"/>
				<path id="Stroke-7" class="st1" d="M145.6,167.6L145.6,167.6l-0.2-0.2v-0.1h0.1l0.1,0.1V167.6z"/>
				<path id="Stroke-8" class="st1" d="M148.2,144l0.7,0.5h0.1l0.4-0.1h0.1l0.1,0.1l-0.1,0.5v0.1l-0.1,1.3v3.2l-0.1,0.5l-0.1,0.1
					l0.1,0.1l0.4,0.5v0.8l0.4,0.3v0.6l-0.1,0.5v0.6h-0.3l-0.1,0.1l-0.6,0.6v3.9l0.1,0.1l-1-0.2l-0.9-1.3l-0.3-0.2l-0.9-0.3h-1.2
					l-0.8-0.4l-0.4,0.3l-1.4,0.9l-0.1,0.4l-0.1,0.4l-0.1,0.5v0.3l0.1,0.2l-0.1,2l-0.6,1.5l0.1,0.3l0.4,1.3l0.1,0.5l-0.1,0.6
					l-0.1,0.4l-0.1,1.8v0.5h0.1l0.5,0.1h0.4l1.1-0.3l0.7,0.4l1,0.6l-0.1,0.4l-0.7,0.1l-0.8,0.5l-1.3,1l-0.2,0.3l-0.2,0.5l-0.1,0.3
					l-0.1,0.5l0.1,0.9l-0.1,0.4L141,174l-0.2,0.5v0.5l0.2,0.4l0.6,0.1l2.7-0.2l1.2-0.1l0.3-0.1l0.3-0.4l1.7-1.3l0.3-0.3h1l0.1,0.8
					v0.8l-0.2,0.9l-0.4,2l0.2,0.4l0.5,0.7v1l-0.6,2.4l-0.4,0.4l-0.1,0.1l-0.3,0.5l-0.6,1.6v0.5l-0.4,1.3l-0.5,1l-0.1,0.4l-0.5,2.5
					v0.4l0.3,1.7l0.3,2.8l-0.2,0.5L146,196l-0.4,0.4l-0.1,0.4l-0.4,1.5v1.1l0.1,0.4l-0.7,3.6l-0.4,1l0.1,0.1v0.4h-0.3l-0.3,0.4
					l-0.5,0.6l-0.4-0.8l-0.3-1.1l0.1-0.5l-0.1-0.3l-0.4-1.5l-1.7-4l-0.5-1.7l-1.8-4.5L137,191l-0.1-0.5l0.2-0.9l-1.3-3.3l-1.4-2.8
					l-2-5l-0.4-0.9l0.9-0.6l0.5-0.8l-0.1-0.9l0.2-0.6l1.1-1.3l0.5-0.4l0.3-0.2l0.2-0.5l-1.1-0.9l0.1-0.1l0.1-0.4l0.5-0.9l0.4-0.8
					l1.1-2.4l0.5-1.3l0.2-0.9v-0.1l0.5-1.9l0.1-0.9l0.1-0.1l0.2-1.6l0.4-1.9V158l0.2-1.5l0.3-3.3l0.1-0.9v-0.9l0.5-0.2l0.4,0.4
					l0.2-0.1l0.4-0.5l0.1-0.4v-0.3l-0.1-1.1v-0.5l0.1-0.5l0.1-0.9l-0.1-0.4h2.3l0.8,0.1l0.5,0.4l0.4,0.1l0.6-0.1l1-0.5v-0.3l0.3-0.3
					l0.1-1.1L148.2,144z"/>
				<path id="Stroke-9" class="st1" d="M195.3,156.7l1,2.9l2.9-0.9l0.8,2l-1.3,1.3l-1.6,1.7l-0.7,0.9l-7.1,2l-6.7,2l-0.4,0.1
					l-3.4,1.1l-3.2,0.9l-3.7,1.1l-2.6,0.9l4.5,4.7l2.9,3.2l1,1.3l6.7,7.3l-4.4,2.8l-1.9,5.4l-1.3,0.3l-5.1,1.1l-4,0.9l-3.1,6
					l-2.9,2.8l-2.7,2.4l-7.6-1.4l-4.9-0.9l-3.2-0.5l-0.1-0.4l0.1-1.1l0.1-0.5l0.3-0.8l-0.4-0.4v-0.4l-0.1-0.1l0.4-1l0.7-3.7
					l-0.1-0.4v-1.2l0.4-1.5l0.1-0.4l0.4-0.4l0.1-0.4l0.2-0.5l-0.3-2.8l-0.3-1.7v-0.4l0.5-2.5l0.1-0.4l0.5-1l0.4-1.3v-0.5l0.5-1.7
					l0.3-0.5l0.1-0.1l0.4-0.4l0.6-2.4v-1l-0.5-0.7l-0.2-0.4l0.4-2l0.2-0.9v-0.8l-0.1-0.8v-1.1l0.1-0.7v-0.6l0.4-1.1l0.1-0.4l0.1-0.5
					l-0.1-1l-0.4-1.7l-0.1-1.1l-0.2-0.8l0.4-2.6l0.1-0.3l-0.3-2.6l-0.1-0.3l-0.1-0.1V154l0.6-0.6l0.1-0.1h0.3l0.5-0.4l1-0.6l0.4,0.1
					l2,0.4l1,0.9l0.4,0.9l0.9,1.1l0.6,0.3l0.5,0.1l0.5-0.3l1.6,1.3l0.5,0.4l0.9,0.9l1.2,0.1l0.4,0.1l1.8,0.3l1.1,0.2l1.6,0.4
					l0.4-0.5l3.8-2.5l4.4-3.2l1.7-1.1l4.4-2.9l4.7-3.2l2.8-1.9l2.2-1.4l1.2-0.8l5.4,14.3L195.3,156.7z"/>
				<path id="Stroke-10" class="st1" d="M326.7,203l0.9,1.5l0.4,0.9l-0.2,0.3l-0.6-0.3l-0.3-0.3l-1.1-0.7l-0.5-0.1l-0.3,0.1l-3,3.5
					v0.6l1.7,0.7h0.5v-0.1l0.3-0.1l0.5-0.4l0.5-0.4l0.1-0.1l0.3,0.1l0.2,0.4l0.4,0.4l0.8,1.4l0.4,0.8l0.5,1.7l0.5,1.3l0.4,0.7
					l0.3,0.2l1.5,2.1l1.3,1.5l0.3,0.5l0.1,0.5v0.4l0.6,1.8l-1.5,0.1h-8.6l-1.1-1.1l-0.3-0.4l-0.5-1.1v-1.1l-0.3-0.4l-0.4-0.9
					l-0.7-1.3l-0.6-1l-0.1-0.3l-6.6-0.9l-2.8-0.3l-2.9-0.4l-0.6-0.1l0.1-0.3l0.3-0.4l0.2-0.2l0.5-0.4l0.2-0.1l0.4-0.7l0.3-0.5
					l0.7-1.5l0.6-1.3l0.4-0.6l0.8-1.4l0.3-0.4l0.4-1.1l0.7-2.4l0.5-1.8l0.1-0.8l0.1-0.4l0.3-0.4l0.4-0.4l0.4-0.3l2-0.7h5.2l3.1,1
					h0.1l0.1,0.6l0.6,1.9l0.1,0.4l0.3,0.6l0.4,0.5l0.5,0.6L326.7,203z"/>
				<path id="Stroke-11" class="st1" d="M151.1,121l0.9,0.2h1.1v-0.1h2.6l1,0.1l1.2,0.1v0.5l-0.8,0.7l-0.4,0.2l-0.1,0.6l1.1-0.1
					l0.4,0.2l1.2,0.9l0.4,1.5l0.8,1.9l0.5,0.4l-1.4,1.6L158,131l-0.5,0.6l-0.4,0.4l-0.5,1l0.8,0.5h0.4l0.4,0.5l-0.1,0.4h-0.3
					l-1.7-0.5l-2.3,0.5l-0.7,1l-0.6,0.8l-0.3,1.3h0.4l0.8,0.4l0.5,0.5l-0.2,0.6l-1.3,1.4l-0.6,0.6l-0.4,0.1l-0.4,0.2l-0.1,0.5
					l-0.2,0.4h-0.1l-0.1,0.1l-1.9,1.1v0.5l-0.7-0.5l-0.5,1.3l-0.1,1.1l-0.3,0.3v0.3l-1,0.5L145,147l-0.4-0.1l-0.5-0.4l-0.8-0.1H141
					l0.5-0.5l0.7-0.9l0.1-0.6l0.1-0.5V143l0.5-2v-0.4l0.4-0.4l0.4-0.4l0.4-0.5l0.3-1l0.1-0.8l0.1-0.9l0.4-0.9l0.2-0.6l0.1-0.4v-1
					l-0.1-0.6h0.9l0.4-0.1l0.8-1.6v-1.5l-0.3-0.6l-0.1-1l0.3-0.3l-0.1-1l0.3-0.5l1.9-1.9l1.1-0.8l1.2-0.9v-0.5l-0.1-0.9L151.1,121z"
					/>
				<path id="Stroke-12" class="st1" d="M445.1,279.6l0.4,1.4l-0.4-0.3l-0.5-0.3l-0.1,0.4l1.2,2l0.3,0.1l0.4,0.1l0.5-0.1l0.5-0.6
					v-0.8l0.5-0.1l0.6-0.3l0.1-0.1l0.1-0.3l0.3-0.2l0.4-0.1V280l-0.1-0.6l0.1-0.1l0.1-0.1h0.3l0.1,0.2l0.6,1.5l1.5,3l0.4,0.9
					l0.4,0.6l0.9,1.5l0.3,0.4l0.5,0.5l0.4,0.3l0.6,0.5l1.3,1.5l0.3,0.4l0.2,0.8l0.6,0.9l0.6,0.8l1.3,1.1l1,0.9l0.9,0.8l0.9,0.6
					l5.1,1.8l4.4,1.4l0.5,0.3l0.4,0.1l0.5,0.1l0.1-0.1l0.8-0.1h0.4l0.7,0.1h0.4l0.6,0.3l0.4,0.1l0.5,0.1l0.6,0.5l0.3,0.3l0.5,0.3
					l0.6,0.1h1.4l0.5-0.3l0.3-0.4l1.2,0.1l0.5,0.3l2.7,2.7l1.2,1.8l0.9,0.8l1.2,1.9l0.3,0.6l0.1,0.4l0.3,0.4l0.9,1.3l0.3,0.4
					l0.8,0.4l0.2,0.3l0.7,0.5l1,2l0.1,0.4l0.2,0.4l1.4,1.7l0.8,0.6l0.6,0.5l0.7,0.5l0.5,0.1h1.1l2.1,0.5l0.5,0.9l0.3,0.9v2.3
					l-0.3,1.1l-0.4,0.9l-0.8,1.2l-0.7,2.8l-0.9,0.9l-0.5,1.1l-0.3,0.4l-0.2,0.2l-0.1,0.4l-0.1,1l-0.1,0.9l-1.4,3.2l-0.5,0.2
					l-0.5,0.3l-0.9,0.5l-0.4,0.2l-1.2,1l-2.1,2.7l-0.9,1.2l-0.1,0.4l-0.4,0.8l-1.1,2.4l0.1,1l0.1,0.4l-0.3,0.4l-0.6,0.6l-0.7,0.8
					l-0.2,0.6l-0.2,1l-0.5,2.2l-0.9,1l-0.5,0.1l-2-0.3l0.4-0.3l-0.5,0.1l-0.8-0.4l-0.2-0.2l0.1-0.8l0.3-0.4l0.4-1.4v-0.4l-0.4-0.3
					l-0.4-0.1l-1.2,0.6l-0.5,0.4l-0.3,0.9l-0.3,0.6l-1.1,1.3l-1.2,2.1l-0.4,0.6v0.6l0.3,0.5l0.1,0.9l-0.3,1.9l-0.5,2l-0.4,0.9
					l-0.6,0.9v0.6l0.1,0.4l1,3.5l0.3,0.8l0.1,0.5v0.5l-0.1,0.5l-0.3,0.6l0.3,0.6l0.9,2.1l0.6,1.5l-0.5,1l-1.3,0.5h-0.6l-1-0.1
					l-1-0.1H473l-2.1,0.4l-0.6,0.1l-1.8,0.5h-0.3l-1.4,0.5l-1.5,0.8l-0.4,0.3l-1.2,0.9l-0.1,0.3l-0.9,1l-0.4,0.4l-0.6,0.8l-0.1,0.4
					l-0.1,0.6l0.1,1.7l-0.3,1.8l-0.2,1l-0.3,0.8l-0.1,0.5l0.1,0.9v0.1l-0.5,0.5l-0.5,0.1l-0.4,0.2l-0.6,1l-0.8,0.9v0.4h-0.6
					l-0.5-0.1l-0.5-0.1h-0.6l-2.3,0.3l-0.7,0.2l-1.7,0.2h-0.8l-2.1,0.3l-1.8,0.5l-0.8,0.2l-0.4,0.3l-0.3,0.5l-0.1,0.5l-0.4,0.9
					l-0.2,0.5l-0.3,0.4l-0.4,0.1l-0.6,0.6l-0.4,1l-0.1,1l0.3,0.4l0.5,0.2l0.3,0.5l0.1,0.4v0.5l-0.6,1.6l-0.5,1.2l-1.5,2.1l-0.2,0.3
					l-0.6,0.5l-0.9,0.4l-0.9,0.4l-1.4,0.4l-1-0.3l-0.6-0.4l-0.1-0.5l-0.5-0.1l-0.6-0.1l-0.3-0.1h-2.9l-4.1,0.4l-1.1,0.6l-1.1,1.2
					l-1.4,0.4l-1.1,0.4l-0.8,0.8l-0.1,0.3l-1.1,0.9h-2l-1.5,0.3l-2.3,0.8l-0.9,0.4l-0.1,0.3l-4.9-10.5l-0.5-1.2l-12.8-27l41.5-16.5
					l4.5-20.8l2.6-12l-7.4-11.5l0.1-1.6v-0.4l-0.1-0.5v-0.6l-0.1-0.4v-1.6l0.2-1.6l0.3-0.6l0.4-0.8l0.4-0.8l0.1-0.6l0.2-0.6l0.6-3
					l0.8-2.2l0.9-2.1l-0.3-1.9l-0.3-0.2l-0.5-1.1l1.8-0.9l0.6-0.1l1.6,0.3l1-0.3l1.8-0.6l0.3-0.3l-1.3-2.4l-0.5-0.1l-0.4,0.3
					l-0.4,0.1l-1.1-0.4l0.4-1.3l-0.1-1.7l-0.4-1l-0.3-1.4l0.4-0.5l0.4-0.9l-0.5-0.9l-0.1-0.5L442,281l0.1-0.4l0.4-0.5l0.3-0.4
					l0.2-0.4l0.5-0.3l0.4-0.1l0.3,0.1h0.4l0.2,0.2L445.1,279.6z"/>
				<path id="Stroke-13" class="st1" d="M449,259.1v1.6l-1.3-0.5v-0.4l-0.7,0.5l0.3,0.9l0.5,0.2l0.8,0.6v1.7l-0.3,0.9v0.4l-0.3,0.7
					l-0.3,1.1l-0.3,0.1l-0.4,0.5v1l0.1,0.4l-0.4,0.1l-0.7-0.5l-0.4-0.1h-0.1l-0.2-1.1l-0.1-1.6l0.2-1.2l0.1-1.7l-0.6-1.1l-0.9,0.4
					l0.1-0.4l0.3-0.6l0.7-1.7l0.3-0.5l0.5,0.7l0.9,0.3h0.2l0.4-0.3h0.6l-0.2-0.4h-0.4l-0.1,0.2h-0.3v-0.7l0.5-0.9l0.5-0.7v1.3
					l0.8,0.6L449,259.1z"/>
				<path id="Stroke-14" class="st1" d="M378,263.1l0.2,0.3l0.8-0.1l0.4,0.1l0.8,0.6l0.6,2.1v1.4l-0.5,1.1l-0.4,0.1l-0.2,0.1
					l-0.1,0.4l0.1,0.6l-0.2,0.4l0.2,0.7l0.2,0.3l0.2,0.5l0.1,0.8l-0.1,0.9l0.1,0.5l0.2,0.2h0.6l0.4,0.3l0.1,0.6l0.1,0.4l0.1,0.5
					l0.1,2.6l-0.5,1.5l-0.5,0.7l-0.2,0.4l-0.4,1.1v0.4l-0.3,1.6l-0.9,1.3l-0.5,0.2v-0.5l0.1-0.5l-0.3-0.4h-0.8l-0.7,0.4l0.1,0.1
					l-0.2,0.2l-0.2,0.4l-0.8,0.5l-1.9-0.4l-1.6-1.9l-0.6-0.9l0.3-0.1l0.3-0.6l-0.3-1.3l-0.1-0.7l-0.7-2.4l-0.6-1.1l-0.1-0.1
					l-0.1-0.7l-0.1-1.3l-0.2-2.7l-0.1-1.1l0.4-0.4l0.4,0.5l0.2,0.5h0.2v-0.4l-0.2-1.2l-0.1-0.5l1,0.1l0.6-0.3l0.3-0.6l-0.3,0.2
					l-0.5,0.1l-0.3-0.6l-0.1-0.9l0.1-0.3v-0.6l0.3-0.5l0.4,0.4l0.1-0.5v-0.3h-0.1l-0.2-0.1l-0.1-0.4l0.5-1.7l0.5-1.2l1.7-1.4
					l0.9-0.5l0.9,0.5l0.5,0.4l0.2,0.4v0.6L378,263.1z"/>
				<path id="Stroke-15" class="st1" d="M280.5,210.5l19.7,1.8l4.3,0.4l1.6-0.6l0.6,0.1l2.9,0.4l2.8,0.3l6.5,0.9l0.1,0.3l0.6,1
					l0.6,1.3l0.4,0.9l0.3,0.4v1.1l0.5,1.1l0.3,0.4l1.1,1.1h8.6l1.5-0.1l0.1,0.1l1.3,0.8l0.3,1.3l0.1,1.4l1.5,3.5l0.8,1.3l3.2,3
					l0.4,0.4l0.1,1.1l-0.4,0.5v-1.1l-0.5-0.4l-0.2,0.3l-0.1,1.1l0.9,2l1.1,0.2l0.6-0.4l0.2,0.1l0.5,0.5l0.6,0.6l0.4,0.1l1.4-0.1
					l0.7,0.1l1,0.9l0.3,0.6h-1.2l-0.9-0.1l-0.6,0.2l1.9,1.6l2.4,3l0.1,0.5l0.5-0.1l0.4-0.1l0.3-0.4l0.3-0.4l0.5,0.2l1.2,1.9l0.7,1.3
					l0.5,0.5l1.3,0.8l0.3,0.3l0.8,0.5h0.5l0.7,0.1l2.8,2.6l0.4,0.4v0.4l-1.2-0.8l-1.3-0.9l-0.1,0.6v0.4l0.5,1.9l0.7,1.6l0.6,0.3
					l0.3,0.1l0.9,0.3l0.6,0.9l0.3,1.1v2l-0.6,1.3l-0.5,0.1l-0.9-1.4l-0.5-0.2l-0.6,1l0.4,1.9l1.7,1.6l0.1,0.8l0.4,0.9l0.6,0.9
					l0.5,0.4l0.7,1.3v0.5l-0.3-0.4l-0.1-0.4l-1-0.6l-0.3-0.1l0.2,0.4l2.4,3l0.6,0.6l0.4,0.4l1.3,0.3l0.4,0.4l0.8,2.2l0.3,1.4
					l0.5,2.5l0.3,0.1v-0.2l0.5,0.2l0.5,0.8l1.4,1.9l0.3,1.4v0.4l0.5,0.8l0.7-0.4l0.6,0.9l1.6,1.9l2,0.4l0.9-0.5l0.3-0.4l0.2-0.2
					l0.5,0.1l0.8,0.4l-0.1,0.4l0.1,0.9l0.6-0.4l0.6-0.9l0.1-0.4h0.5l0.6,0.5l-1,1.4l-1,1l-0.1,0.3l-0.1,0.4l-0.3,1l0.1,0.6l0.4,0.1
					h0.6l0.4-0.4h0.9l0.4,0.1l0.5,0.2l0.4,0.5l0.3,0.1h0.4l0.1-0.1l0.1,2.4l15.6,19.3l36.6,5l0.8-1.1l7.5,11.5l-2.7,12l-4.5,20.8
					l-41.7,16.4l-11,2.9l-17.1,4.5l-17.3,4.6l-10,13.2l-8.7,11.6l-14,18.7l-0.1-3.4l-0.6-13.9l-12.5-5.5l-7-3l-7.3-3.3l-0.1-0.1
					l-0.5-0.2l-1.1-0.1l-2.8,0.3l-1.4,1l-2,0.7l-2.6-0.8l-0.2-0.2l-1-0.9l-0.3-0.4l-0.2-0.4l-0.3-0.3l-1.6-0.6l-1-0.1l-0.5,0.3
					l-0.4,0.4l-0.5,0.2l-0.4,0.2l-0.7,0.8l-0.9,1.1l-0.4,3.7l-0.3,3.3l0.5,1.4l0.6,2l0.1,0.6l-1-0.1l-0.4,0.1l-0.4,1.3v0.6l-0.2,0.3
					l-1.9,2l-1.3,0.6l-0.5,0.1l-0.1-1.4l-0.8-1l-0.3-0.8v-0.5l0.1-0.4v-0.6l-1-2l-0.4-0.5l-0.3-0.1l-0.6-0.2l-0.6-0.6v-2l-0.5-0.5
					l-1.7-1.5l-0.5,0.1l0.1,1.2l-0.4-0.8l-0.3-1.6l-0.2-1.1V405l-0.1-1.3l-0.3-0.8l-1.6-1.6l-1.5-1.8l-3.3-2.7l-0.4,0.1l-0.9-0.4
					l-0.6-0.9l-0.3-0.3l-0.7-0.9l-1.3-2.3v-0.5l-1-1.1l-0.2-0.6l-0.6-1l-0.3-0.5l-0.2-0.8v-0.5l-0.1-1l-0.5-0.7l-0.7-1l-0.5-0.2
					l-0.9-0.5l-0.8-1.4l0.1-0.9l0.4-1.2l-0.6-0.5l-0.4-0.1l-0.6-1.3l0.1-0.6l0.3-1.4l-0.3-0.4l-0.5-0.1l-0.5-0.1l-0.4-0.5l-0.2-0.8
					l-1.5-4.4l-1.6-1.2l-1.1-1.1l0.3-0.2l0.2-0.8l-0.1-0.3l-0.1-0.6l-0.5-0.8l-0.4-0.5h-1l-2.2-3l-1-0.5l-1.6-1.1l-0.8-0.5l-1.7-1.5
					l-0.5-0.6l-0.5-0.5l-0.5-0.2h-2.5l-1.2-0.8l-2.1-1.8l-0.4-0.5l-0.6-0.8l-0.5-0.9l-0.4-0.8l-0.9-1.6l-0.7-0.5l-0.1-0.4l-0.2-0.5
					l0.4,0.1h0.2l-0.2-0.5l-0.5-0.4h-0.5l-0.4-0.4l-1.3-1.3l-1.4-2.5l-0.4-0.7l-0.7-2.2l0.6-1.6l0.1-0.5v-0.9l-0.1-0.6l-0.3-0.5
					l-0.9-1.4l-0.1-0.6l-0.2-1.1l-0.5-1.1l-0.2-0.2l-0.3-0.5l0.1-4.6l0.1-1.5l0.9-2.6l-0.8-3.4l-1.5-2.6l-0.1-0.4l-0.9-1.3l-0.8-1.3
					l0.5,0.1l0.3,0.6l0.2,0.5h0.4l0.3-0.2l-0.4-0.6l-0.6-1l-0.4-0.2l-1.8-3.2l-0.7-1.1l-0.3-0.9v-0.6l-0.1-1l-0.1-0.4l-0.1-0.1
					l-0.4-0.6l-0.9-0.9l-0.5-0.1l-1.1-2.8l-0.5-1.5l-3-2.8l-1.6-1.4l-0.8-0.5l-1-0.3l-1.9-1.4l-1.9-1.4l-1.1-0.8l-0.6,0.5l-0.1,0.4
					H186l-1-0.5l-0.6-0.6l-0.6-1l0.1-0.6l-0.1-0.6l-1-1.4l-0.1-0.4l-0.1-0.2l-0.6-1l-0.3-0.3l-0.6-0.7l-0.4-0.3l-1.4-2h1l0.3-0.2
					l0.3-0.3l0.2-1.8l-0.5-2.5l-0.1-0.3l-0.3-0.6l-0.4-0.4l-0.4-0.2l-0.7-1l-0.5-0.9l-0.3-0.4l-0.2-0.5v-0.6l-2.3-3.5l-1.5-1.5
					l-0.5-0.3v0.6l-1-0.5l-0.4-0.6l-0.4-0.6l-0.2-0.6l0.2-0.6l0.4-0.9v-0.4l-0.2-0.6l-0.2-0.2l-0.2-0.3l-0.6-0.1h-0.3l-0.2-0.1
					l-0.7-0.2l-0.5-0.5l-0.2-0.4l-0.3-0.9l-2.8-5l-1.4-2.5l-1.1-1.1l-0.4-0.2l-0.4-0.2l-0.8-1.5l-0.1-0.5l-0.1-0.4l-0.6-0.5
					l-0.9-0.8l-0.4-0.5l-1.3-1.6l-0.4-0.9l0.1-0.5l-0.1-0.4l-1.2-1.6l-1.4-0.8l-0.4-0.5l-0.6-0.9l-0.5-0.9l-0.3-0.4l-0.1-0.4
					l-0.1-0.4v-0.6l-0.1-0.5l-1.6-2.4l-0.9-1.3l-0.3-0.4l-0.4-0.4l-0.9-1l-0.3-0.3l-0.4-0.3l-0.5-1l-1.5-0.9H146l-0.4,0.1l-0.5,0.4
					h-0.4l-0.9,0.1l-2-1.1l-0.3,0.3l-0.4,0.5v0.9l-0.2,0.3l-0.8-1.1l0.1-0.5l0.6-0.8l0.6-1.9l0.6-1.6v-0.5l0.3-1l0.1-0.3l0.3-0.8
					l-0.1-1.4l-0.1-0.5l0.4-3.3v-0.5l0.4-3.8v-0.2l0.1-1l0.1-0.5l0.5-2l0.1-0.1l3.2,0.5l4.9,0.9l7.6,1.4l2.7-2.4l2.9-2.8l3-5.9
					l4-0.9l5.1-1.1l1.3-0.3l1.9-5.4l4.4-2.8l-6.7-7.3l-1-1.3l-2.9-3.2l-4.5-4.7l2.6-0.9l3.7-1.1l3.2-0.9l3.4-1.1l0.4-0.1l6.7-2
					l7.1-2l0.7-0.9l1.6-1.6l4.1,0.9l8.3,1.6l4.7,0.9l15.2,9.5l9.3,4.3l12.5,9.7l2,1.6l11.2,9.1L280.5,210.5z"/>
				<path id="Stroke-16" class="st1" d="M234.6,80.9l0.4,0.6l-0.1,0.1v0.1l-6.5,7.4l-5.7,1.3l-0.4,0.9l-0.9,1.9l0.2,4.9l0.3,0.4
					l1.5,2.5l0.3,0.6l0.5,3.4l-0.8,1.3l-0.5,0.9v0.9l0.1,0.7l-0.1,0.5v0.4l-0.1,0.6l-0.1,0.9l-0.1,0.5v0.5l0.3,1.3v0.7l0.3,2.4
					l0.4,2.3l-1.5,2.9l-0.6,2.1l-0.3,0.9l-4.4,2.6l-6.1,3.5l-0.4,0.3l-2.1,1.3l-2.6,1.6l-2.9,1.6l-2.4,1.5l-5.6,3.3l-2,1.3l-0.1,0.1
					l-1.2,0.7l-2.2,1.4l-2.7,1.9l-4.7,3.1l-4.4,2.9l-1.6,1.1l-4.4,3.2l-3.8,2.5l-0.4,0.5l-1.6-0.4l-1.1-0.2l-1.8-0.3l-0.4-0.1
					l-1.2-0.1l-0.9-0.9l-0.5-0.4l-1.6-1.3l-0.5,0.2l-0.5-0.1l-0.6-0.3l-0.9-1.1l-0.4-0.9l-1-0.9l-2-0.4l-0.4-0.1l-1,0.6l-0.5,0.4
					v-0.6l0.1-0.5v-0.6l-0.4-0.3v-0.7l-0.4-0.5l-0.1-0.1l0.1-0.1l0.1-0.5v-3.1l0.1-1.2v-0.1l0.1-0.5l-0.1-0.1h-0.1l-0.4,0.1h-0.1
					v-0.5l1.9-1.1l0.1-0.1h0.1l0.2-0.4l0.1-0.5l0.4-0.3l0.4-0.1l0.6-0.6l1.3-1.4l0.2-0.6l-0.5-0.5l-0.7-0.4h-0.4l0.3-1.3l0.6-0.7
					l0.6-1l2.3-0.5l1.6,0.5h0.3l0.1-0.4l-0.4-0.5h-0.4l-0.8-0.5l0.5-1l0.4-0.4l0.5-0.6l1.5-1.1l1.4-1.6l-0.5-0.4l-0.8-1.9l-0.4-1.5
					l-1.1-0.9l-0.4-0.2l-1,0.1l0.1-0.6l0.4-0.2l0.8-0.8v-0.5l-1.1-0.1l-1-0.1h-2.6v0.1h-1.1l-0.9-0.2l-0.4-0.8l-0.2-0.6l-0.9-2.2
					l-0.1-0.6l-0.1-1.2v-1.9l0.4-0.8l0.4-0.8l-0.1-0.5l-0.1-0.3L150,111l-0.4-2.6l-0.9-0.9l-1.2-0.3l-0.6-1.4l0.5-0.9l0.5-1.1
					l0.2-0.5l0.3-2l0.5-1.1l1.3,0.5l1.4,0.6l0.3,0.1l0.2,0.4l0.1,0.2l0.3-0.1l0.1-0.5v-0.9l0.4-0.9l1-0.1l1-0.5v-0.5l-0.1-1.1
					l-0.2-1.2l0.2-0.6l1.5-0.2l0.4-0.1l0.6,0.1l0.5,0.2l0.9-0.2v-0.9l-0.4-0.4l-1.3-1.5L157,92l-0.3-1l0.3-2.1l0.8-3.3l-0.1-0.2h0.6
					l3.2,0.9l0.7,0.4l0.7,0.6l1.4,1l1.6-0.1h0.2l1.4,0.1l2.1-0.4l0.5-0.3l1.3-0.8l0.5-0.1h0.9l1.6-0.5l0.4-0.2l0.5-0.2l0.4-0.3
					l0.5-0.1l0.4-0.3l0.5-0.4l1.1-0.5l0.7-0.1l2,0.2l0.6,0.1l1.1,0.5l0.4,0.2l1.3,1.1l0.9,0.8l0.6,0.4h0.6l2,0.1h0.6l0.5-0.3h0.5
					l0.4,0.1l0.4,0.1l0.5,0.1l0.5,0.2l0.8,0.1l0.3-0.1l0.8-0.1l1.8-0.3l1.9-0.4l3-0.6l1.4-0.5l0.3-0.1l0.9-0.4l2.6-1.3l0.6-0.4
					l0.2-0.1l1.6-1.2l0.4-0.3h0.5l0.4-0.1l1.6-0.7l0.4-0.2l0.3-0.1l1-0.4l0.5-0.1h1.7l2.6,0.5l1.4,0.4h2l1.1-0.1h0.4l0.9-0.1
					l3.9-0.6l2-0.8l0.7-0.4l0.4-0.2l0.7-0.7l0.4-0.5h0.5l1.2,0.2l0.8,0.6l0.3,1.8L234.6,80.9z"/>
				<path id="Stroke-17" class="st1" d="M127.7,2v0.8l0.6,1l1.1,1.4l0.8,0.8l0.4,0.1l2.2,1l0.4,0.1h0.2l0.2,0.1l0.6,0.2h0.9l0.3-0.2
					l1.8-0.5l1.3-0.5l0.3-0.2l0.3-0.1l0.2-0.1h0.4l1.1,0.6l0.3,0.3l0.6,0.8L142,8l0.1,0.9L142,9.5l0.1,0.5l0.8,0.9l1,1l1.5,1.3
					l0.7,0.4l0.5,0.3h0.5l0.3-0.1l0.5-0.4l0.5-0.4l0.4-0.9l0.6-0.1l0.6-0.1h0.4l1,0.1l0.7,0.3l0.9,0.4l1.2,0.6l0.2,0.4l0.2,0.5
					l0.1,0.5L155,15l1.1,0.4h0.3l1.2,0.1h0.8l1.7,1l1.1,0.6l0.6,0.1l0.5-0.1l0.4-0.1l0.1-0.5l0.4-0.6l0.3-0.2l1,0.2l0.4,0.3l0.1,0.7
					l0.1,0.2l0.4,0.4l1.1,0.7h1.2l1.5,0.4l0.3,0.1l0.6,0.1l2.3,0.5l0.4,0.1l0.5-0.2l0.4,0.1l1.3-0.1l2.6-0.4l0.3-0.2l0.4-0.4
					l0.2-0.3l0.4-0.1l1.5-0.5l1,0.1l0.6-0.1l0.5-0.1l0.4-0.1l0.2-0.1l0.1-0.1l0.2-0.2l0.6,0.2l0.2,0.3l0.5,0.1l0.3-0.1l0.5-0.1
					l0.4-0.3l0.4-0.1l0.4-0.4l0.9,0.3l1,0.6l1.9,0.9l0.5-0.1l2.7,0.9l2.3,0.5l0.3,0.1h0.3l0.3-0.1l1.5-0.5l1-0.5l0.1-0.1v-0.1
					l0.4-0.2l0.9-0.4h0.3l1.3-0.2l0.7-0.4l1-1l0.5-0.4l1-0.5l0.5,0.1h0.5l1.5-0.8l1.6-0.9l0.5-0.4l0.3-0.3l1.3-0.8h0.6l0.4-0.4
					l0.9-1.4l0.4-0.6h0.5l2.1,0.5l0.5,0.4l1,0.6l0.6-0.5l0.2-0.5l0.6-0.4l0.3-0.1l1.6,0.3h1l1.4,0.3l0.5,0.2l0.8,0.3l1.2,0.4h0.3
					l0.9-1.1l0.3-1.2l0.1-0.1l0.6-0.1h0.4l2,0.1l1,1.3l1.9,1.8l0.4,0.4l1.3,0.9l1.8,2.2l1.5-0.3h0.3l0.8,0.3l0.4,0.2l0.3,0.5
					l-0.2,0.5v0.3l0.5,1.1l1.1,0.5h0.5l1.1,1.1l1.3,2.5l0.1,0.4l0.1,1.3l-0.2,0.8l-0.6,1.4l-0.7,0.5v0.9l0.5,1.3l1,1.6l1,1.9
					l-0.6,0.1l-0.3,0.4l0.4,0.4l3.4,1.4h0.3l0.5,0.1h1l3.2-0.6l0.9,0.4l0.8,0.4l1.3,0.6l1,1l0.1,0.4l0.5,0.8l0.8,0.4l1.5,1.3
					l0.5,0.4l0.3,0.4l0.3,0.7v0.2l-1.2-1.1l-1.9-1.3l-1.6,1.3l0.3,0.9l-0.3,3.4l-0.4,0.3l-0.8,0.4l-0.4,0.1l-1-0.2l-0.5-0.3
					l-1.6,0.1l-0.5,0.4v0.3l0.4,0.4l0.3,0.3l2.4,3.3l-0.1,1.3l-0.3,0.9l0.2,0.5l0.6,1.3l0.6,0.5h0.5l0.3,0.4l0.1,0.5l-0.4,1.4
					l0.8,1.3l0.3,0.5l0.3,1.8l-0.2,0.6v0.4l0.2,0.8l0.2,0.2l1.5-0.1l0.8,0.9l-0.1,0.4l-0.8,1.7l-0.7,1.9l-0.8,2.3v1l1,0.4l4.1,1.8
					l0.6,0.8l-0.3,0.5v1.3l0.5,2.8l0.3,0.1l0.5,0.1l2.2,1.8l0.4,0.4v0.5l-0.2,1.5V81l-0.3-0.2l-0.4-0.1l-1.5-0.2l-0.7,0.4l-0.2,0.2
					l-0.1,0.3l-0.8,0.6l-0.2,0.3l-0.5,0.2l-1,0.4l-0.1,0.5l-0.3,0.6l-0.8-0.3l-1.1-1.8l0.3-1l0.4-0.1v-0.5l-0.1-0.6L259,79l-1.6-0.8
					h-1.6l-0.6,0.7l-0.1,0.5l-0.3,0.4l-1.4,0.1l-2.6-0.1l-1.9-0.4l-4.8-2l-2,0.5l-0.5,0.3h-0.5l-0.4-0.1l-1-0.5l-0.6-0.2l-0.3,0.1
					l-0.5,0.4l-1.5,2.9v0.3l-0.6,0.1l-2,0.5l-0.3,0.1l-0.1-0.3l-0.3-1.8l-0.8-0.6l-1.2-0.2h-0.5l-0.4,0.5l-0.7,0.8l-0.4,0.3
					l-0.7,0.4l-2,0.8l-3.9,0.6l-0.9,0.1h-0.4l-1.1,0.1h-2l-1.4-0.4l-2.6-0.5h-1.7l-0.5,0.1l-1,0.4l-0.3,0.1l-0.4,0.2l-1.6,0.8
					l-0.4,0.1h-0.5l-0.4,0.3l-1.6,1.3l-0.2,0.1l-0.7,0.4l-2.6,1.3l-0.9,0.4l-0.3,0.1l-1.4,0.5l-3,0.6l-1.9,0.4l-1.8,0.3l-0.8,0.1
					l-0.3,0.1l-0.8-0.1l-0.5-0.2l-0.5-0.1l-0.4-0.1l-0.4-0.1h-0.5l-0.5,0.3h-0.6l-2-0.1h-0.6l-0.6-0.4l-0.9-0.8l-1.3-1.1l-0.4-0.3
					l-1.1-0.5l-0.6-0.1l-2-0.2l-0.7,0.1l-1.1,0.5l-0.5,0.4l-0.4,0.3l-0.5,0.1l-0.4,0.3l-0.5,0.3l-0.4,0.3l-1.6,0.5h-0.9l-0.5,0.1
					l-1.3,0.8l-0.5,0.3l-2.1,0.4l-1.4-0.1h-0.2l-1.6,0.1l-1.4-1l-0.7-0.6l-0.7-0.4l-3.2-0.9h-0.6l0.1,0.3l-0.8,3.3l-0.3,2.2l0.3,1
					l0.3,0.4l1.3,1.5l0.4,0.4v0.9l-0.9,0.2l-0.5-0.2l-0.6-0.1l-0.4,0.1l-1.5,0.2l-0.2,0.6l0.2,1.3l0.1,1.1v0.5l-1,0.5l-1,0.1
					l-0.4,0.9v0.9l-0.1,0.5l-0.3,0.1l-0.1-0.2l-0.2-0.4l-0.3-0.2l-1.4-0.6l-1.3-0.5l0.6-1.2l-0.4-1.1l-0.3-0.4l-1.4-2l-1-1.3v-0.4
					l0.4-0.6l1.3-1.5l1.4-1.4l1.6-0.9l0.4-0.1l0.3-1l-0.4-1.9l-0.1-0.4l-0.5-0.5l-0.5-0.6l-0.9-0.7l-0.9-0.3l-0.6,0.5l-0.3,0.3
					l-0.4,0.6l-1,1l-0.4,0.3h-1.3l-0.7,0.1l-0.4,0.4l-0.5,0.6l0.5,0.1l0.4,0.1l0.1,0.6v0.5l-0.4,0.3l-0.6,0.3l-0.3-0.3l-0.6-0.3
					l-1.1,0.5l-0.7,0.5l-2.4-1.3l-2.3-1.3l-0.6-0.3L134,88h-0.2l-0.1,0.1l-0.2-0.5l-0.2-0.2l-0.6-0.4l-0.9-0.4h-0.9l-0.6,0.1
					l-0.4,0.3l-0.9,0.2l-1.1,1.2l-1.5,1.2l-0.4,0.2l-0.5,0.4l-0.3,0.4l-0.3,0.4l-0.2,0.5l-0.9,0.9l-0.2,0.3l-0.7,0.8v0.5l-0.5,1.1
					l-0.5,0.4l-0.9-0.2l-0.9-0.4l-0.6,0.8l-0.9,0.9l-0.5,0.5l-0.7-0.1h-0.5l-0.9,0.8h-2.4l-1,0.3l-3.3,0.5l-1.4-0.1l-1,0.5l-0.7,0.6
					h-0.6l-1.4-0.1l-1.3-0.8l-0.3-0.1h-0.5l-0.4-0.1L99.9,97l-1.4-1.5l-1-1.3l-0.2-0.4L97,93.5l-0.4-0.6L96,92.2l-0.6-0.8l-0.9-0.5
					L92,90.3l-1.1-0.7l-2.3-1L85.8,87l-0.4-0.3l-0.9-0.2L81.1,86l-0.8-0.1h-1.4L78.1,86l-0.8,0.1l-0.4-0.3l-0.6-0.4l-0.5,0.1
					l-0.5,0.5l-0.1,0.3L74.8,87l-0.1,1l0.1,1.8l-0.3,2L74,93l-0.1,0.6l0.2,0.4l0.2,0.3v0.4l-0.9,1.5l-0.3,0.4L73,96l-0.4-0.4
					L71.4,95H70l-0.4,0.2v0.5L69,96l-1.6,0.5l-2.6,0.9L64,97.3l-0.5,0.4l-0.1,0.4l-0.7-0.9l-0.8-0.5L61,96.5l-2.2-0.4l-0.5-0.3
					l-0.5-0.4l-0.4-0.4l-1-0.6L56,94.3l-0.5-0.6l-0.4-1.5l0.4-0.8v-0.2l-0.3-0.3h-0.4l-0.5,0.1L54,91.1v-0.8l0.1-0.4l0.8-0.3
					l-0.5-0.9l-1.8-1.2l-0.8,1l-0.2,0.5l-0.8-0.3l-1.9-0.6l-0.6-1l-0.1-0.5L46,85.5l-0.9,0.3v0.4l0.5,0.3L45.1,87l-1-0.6L43.7,86
					h-0.4l-0.1,0.3l-0.1,0.5l0.1,0.6l0.4,0.4l-0.5,0.6l-2,1.9l-1.2,0.5l-0.2-0.3l-0.1-0.4l0.3-0.1l0.5,0.1l0.5-0.1l0.2-0.2l0.1-0.4
					l-0.3-0.5l-0.4-0.1l-0.3,0.1h-0.3l-0.4-0.2l0.5-0.3l0.5-0.1l0.6,0.1l0.4-0.3v-1.3l-0.4-0.1L41,87l-0.5,0.2L40,87.5h-0.4
					l-0.9,0.1l-1.5-0.1h-1L36,87.8l-0.2,0.4l-0.1,0.4l-2.4,0.4L33,89.2l-0.1,0.1l-1.4-0.6l-0.1-0.3l1.3-0.8h0.4l3.3-0.5l2.4-0.3
					l1.4-0.5l0.5-1.8l1.7-0.8l1.5-1h-1.5L40,83.1l-2.4,0.1l-2.4,0.3l-2.2,0.1l-1.3-0.5l-1.1,0.4l-0.3,0.4l-0.3,0.3l-0.4,0.1
					l-0.3-0.1l-0.4-1.3v-0.5l1.2-1.3H31l0.5,0.4l0.5,0.4l1.5-0.5l0.5-1.7L33.5,79l-0.6,0.2h-0.5l-1-0.6L31,78l0.4-1.3h-0.2l-0.5,0.2
					l-0.1,0.5l-0.4,0.4l-0.3,0.1L29.1,78l-0.6-0.2l0.3-1v-1l-0.4-1.9l-0.3-0.3l0.4-1.8l0.3-0.5l0.1-1L28.7,69l0.1-0.1v-0.7l-0.1-0.4
					l-0.3-0.4l-3.6-1.5l-0.5,0.1H24l-1.6-1.5l-0.9-1l-1,0.3l-0.8,0.9l-0.1,0.8h-0.3l-0.6-0.3l-0.4-0.4L18,64.3l-0.8-0.8l-1-0.1h-0.2
					l-0.4-0.1l-0.5-0.5V61l0.3-0.1l0.1,0.6l0.5,0.4l0.3,0.1l1-0.6l0.3-0.3l0.4-0.6l0.1-0.4l-0.5-0.4l-0.8-0.2l-0.5,0.2l-0.5-2
					l-0.1-0.9v-0.5l0.6-0.3h1l0.6,0.6l0.6,0.5l0.7,1.1l0.3,1.3h-0.5l0.9,2l0.7,0.4l1.3-0.8l0.6-0.2l0.9-0.1l2.5-0.4l0.4-0.1l0.4-0.8
					l-1.5-0.1l-0.6,0.1l-0.6,0.3l-1-1l-1.7-1.9l-0.3-0.4l-0.2-1.4l1.3-0.5l1-1l1.5-0.6l0.6-0.3l-0.2-0.9l-1.3-0.2L23,51.7L22.6,52
					l-0.4,0.1l-0.9-0.8l-0.2-0.4v-0.8l1.2-0.8L22.1,49l-0.4-0.5L21.4,48l-0.8-0.2L20.1,47L19,46.2l0.3-0.6l1.7-1.5l1.1-1.3l0.5-0.2
					l0.1-1.1l-0.3-0.4h-0.8L21,41.4h-0.7l-0.9,0.1h-0.5l-1,0.2l-0.6,0.1l-4.4,1l-0.9,0.3l-0.4-0.1L11,42.7l0.4-1.8l0.4-0.3l0.3-0.4
					v-0.9l-0.3-2.3l-0.1-1.4v-0.6l0.3-0.5l0.2-0.4h0.4l0.4,0.1l0.5-0.3l0.5-0.2l0.6-1.3l0.2-0.6l0.5-0.9l1-0.4l1.2-1.2l0.9-1
					l0.2-0.5l1.4-0.2h1l1.1,0.2l0.8-0.1l0.4-0.7l0.4-0.4h0.4l2-0.1l0.5,0.9l0.1,0.3l1.3,0.8l0.4,0.3l0.6,0.3l0.5,0.1h0.6l0.3-0.1
					h2.2L33,29l1.2-0.9l-0.7-0.4H33l-1.5-1.6l0.5-0.4l0.4-0.1l1.4,0.1l2.1,0.5l0.1,0.4l-0.2,0.4l-1,0.5l-0.3,0.4l0.3,0.4l0.3,0.1
					l1.2-0.2l0.5-0.1l0.5-0.1l0.5-0.1h0.8l0.5-0.1l3.2,0.1h0.4l2.2,0.5l1.1-0.5h1l0.6,0.2l0.5,0.3l0.2,0.1h0.6l1-0.1l1-1.2L50,26.3
					h-0.7l-0.6,0.3h-0.8l-0.4-0.3L46,25.5l0.2-0.5l0.6-0.3l0.5-0.3h0.2l0.5-0.6l0.4-0.1l0.2-0.1l2-0.3H52l1.9-0.8l0.4,0.4l0.7-0.6
					l0.4-0.1l0.4,0.4l0.2,0.4l1.9-0.4l2.6-0.1l0.5-0.1v-0.5l-0.4-0.1l-2.5-0.2h-1.8l-0.4,0.1h-2L53,21l-0.7-0.6l-0.5-0.4l-1.4-0.5
					l-0.3-0.2l-1.3-0.9l-0.3-1l0.1-0.4l0.5-1v-0.4L49,15.2l0.3-0.3l0.5-0.6l0.4-0.3l0.7-0.1l0.9,0.1l2.6,0.5l1.3,0.4l0.6-0.1
					l1.8,0.3l1.3,0.2h0.3l1.4,0.1h2.4l0.4-0.1l0.9-0.8l0.3-0.3l0.6,0.1l0.3,0.3l0.3,0.2l0.6,0.1l1,0.2l0.3,0.1l1.2,0.1l2,0.8
					l1.6,0.1h2.7l2-0.1l0.9-0.5l0.5-0.4l0.4-0.5l0.4-0.6l0.1-1.1l1.6-1.4l0.7-0.3l1.6-0.9l0.6-0.4l2.5-1.4l2-1l0.3-0.4L90.7,6
					L94,4.6l0.9-0.4h1L96,4.1L96.4,4L97,3.8h0.4l0.3-0.1l1.2-0.3l0.5-0.1l0.4-0.4l1-0.5l2-0.6l1.4-0.6h0.9l1.9,0.3l0.4,0.1l0.3,0.1
					h0.5l1.4,0.1h0.5l0.7,0.1h1.1l1-0.1h1.4l1.4,0.4l0.6,0.1l0.9,0.1h0.6l2.5-0.1l0.8,0.1h1.4l0.4-0.1l0.7-0.1l0.5-0.3l0.1-0.1
					l0.5-0.5l0.2-0.4l0.4-0.9h0.7l0.3,0.1l0.4,0.3l1.5,0.6l-0.5,0.4L127.7,2z"/>
				<path id="Stroke-19" class="st1" d="M446.3,268.1l0.8,0.5l0.5-0.1l0.9,0.4l0.3,0.3l0.4,1.3l0.1,0.9v0.6l0.1,0.8l0.1,0.6l0.1,0.4
					v4l0.4,1.5h-0.3l-0.1,0.1l-0.1,0.1l0.1,0.6v0.5l-0.4,0.1L449,281l-0.1,0.3l-0.1,0.1l-0.6,0.3l-0.5,0.1v0.8l-0.5,0.6l-0.5,0.1
					l-0.4-0.1l-0.3-0.1l-1.3-2l0.1-0.4l0.5,0.3l0.4,0.3l-0.4-1.4l-0.3-0.3l-0.2-0.3h-0.4l-0.3-0.1l-0.4,0.1l-0.5,0.3l-0.2,0.4
					l-0.3,0.4l-0.4,0.5l-0.1,0.4l0.3,2.1l0.1,0.5l0.5,0.9l-0.4,0.9l-0.4,0.5l0.3,1.4l0.4,1l0.1,1.7l-0.4,1.3l1.1,0.4l0.4-0.1
					l0.4-0.3l0.5,0.1l1.3,2.4l-0.3,0.3l-1.9,0.6l-1,0.3l-1.7-0.3l-0.6,0.1l-1.8,0.9l0.5,1.1l0.3,0.3l0.3,1.9l-0.9,2.2l-0.8,2.2
					l-0.6,3l-0.2,0.6l-0.1,0.6l-0.4,0.8l-0.4,0.8l-0.3,0.6l-0.2,1.6v1.6l0.1,0.4v0.6l0.1,0.5v0.4l-0.1,1.6l-0.8,1.1l-36.8-5.1
					l-15.7-19.4l-0.1-2.4h2l0.8,1.4v0.8l0.4,1.4l0.3,0.5l0.1,0.2l0.6,0.3h1.2l2.1,0.5l1.8-0.2h0.2l0.4-0.1l1-0.4l1.4-0.9l1.1-1.1
					l0.8-1.1h0.7l0.5,0.5l0.4,0.4h3.6l1.7,0.3h0.4l0.9-0.1l1.2-0.1l1.4,0.6l1.3-0.1h0.6l1.1,0.4l0.5,0.3l0.1,0.2l0.3,0.1l4.1-0.2
					l3.4-1.3l0.9-0.8l0.8-0.5l1.9-0.6l0.6-0.5l0.4-0.8l0.1-0.6v-0.6l0.4-0.5l0.6,0.1l0.4-0.1l1-3.7l-0.2-0.9l-0.2-0.5l0.8-0.9
					l3.2-2.5l0.8-0.4l0.2-0.1l0.4-0.4l0.3-0.1l0.7-1.1l0.6-0.9l0.1-0.3l0.3-0.3l0.1-0.2l0.1-0.3l0.4-0.6l0.5-0.6l0.4-0.5l0.5-0.9
					l0.8-0.5l0.1-0.2l0.4-0.2l0.3-0.6l0.1-0.2l0.3-0.7V270l0.3-0.4l0.3-0.3v0.1l-0.3,0.4l0.1,0.4h0.5l0.7-0.3v-0.3l0.1-0.4l0.6-0.8
					l0.7-0.6l1.5-0.9l2.2-2.7l0.1-0.8l0.3-1.7v-0.6l1-0.4l0.6,1.1l-0.1,1.8l-0.2,1.2l0.1,1.7l0.2,1.2h0.1L446.3,268.1z"/>
				<path id="Stroke-20" class="st1" d="M145.2,167.3h-0.1v0.1l0.1,0.3h0.1v-0.3L145.2,167.3L145.2,167.3z M148.6,160.7l-0.3,2.7
					l0.2,0.8l0.1,1.2l0.3,1.7l0.1,1l-0.1,0.5l-0.1,0.4l-0.4,1.2v0.6l-0.1,0.7v1.1h-0.9l-0.3,0.3l-1.5,1.3l-0.2,0.4l-0.2,0.1l-1,0.1
					l-2.4,0.3l-0.5-0.1l-0.2-0.4V174l0.2-0.5l0.3-0.6l0.1-0.4l-0.1-0.9l0.1-0.5l0.1-0.3l0.2-0.5l0.2-0.3l1.2-1l0.7-0.5l0.7-0.1
					l0.1-0.4l-0.9-0.6l-0.6-0.4l-0.9,0.3H142l-0.4-0.1h-0.1v-0.5l0.1-1.8l0.1-0.4l0.1-0.7l-0.1-0.5l-0.4-1.3l-0.1-0.3l0.6-1.5
					l0.1-2.1l-0.1-0.3v-0.3l0.1-0.5l0.1-0.4l0.1-0.4l1.3-0.9l0.4-0.3l0.7,0.4h1.1l0.8,0.3l0.2,0.2l0.8,1.3l0.9,0.2l0.1,0.3l0.2,2.7
					L148.6,160.7L148.6,160.7z"/>
				<path id="Stroke-21" class="st1" d="M401.3,432.5l-0.6,1.1l-2.1,0.8l-1.2,0.5l-3.3,1.8l-0.6,0.5l-0.1,0.5l-1.2,0.5l-1.2,0.6
					l-3.1,1.5l-0.4,0.1l-1,0.4l-1.4,0.2l-1,0.3l-1.9,0.5l-1.6,0.5l-0.4,0.1h-0.3l-2.1,0.4l-1.1,0.5l-0.3,0.1l-0.6,0.5l-3.1,2.3
					l-2,0.3l-0.1-0.4h-1l-3.5,1.3l-2.5,0.9l-1.6,1l-2.3,1.1l-1.9,0.9l-0.4,0.3l-0.2,0.1l-0.6,1.1l-0.3,1.4v0.4l-2.1,2.8l-1.8,1.6
					l-0.3,0.4h-0.3l-0.9-0.1l-0.9,0.1l-1.8,0.5l-1.6,0.2h-1.2l-0.6-0.1l-0.6-0.4l-1-0.4l-0.5-0.1h-0.4l-0.4,0.1l-0.3,0.1l-0.4,0.1
					l-0.3,0.4l-0.3,0.4l-0.5,0.5l-0.5,0.2l-0.6,0.4l-0.8,0.1l-0.9,0.5l-0.4,0.2l-0.1,0.3l-0.2,0.4l-2,2.1l-0.5,0.5l-0.4,0.3l-1,0.1
					l-0.5,0.3l-0.4,0.1l-1.2,0.4l-2.3,0.5l-1.1,0.4l-0.6,0.4l-0.5,0.4l-0.5,0.2l-0.7,0.4l-1,0.4l-3.2,0.4h-1.6l-0.8-0.1h-1.9
					l-1.7,0.1l-1.4,0.1l-1.9,0.3l-2.3,0.8l-0.4,0.1l-0.9,1l-0.2,0.4l-0.8,1l-0.1,0.3l-0.3,0.4l-0.7,1.1l-0.3,0.3l-0.7,0.1l-0.4,0.1
					h-0.4l-0.6,0.1l-0.5,0.3l-0.4,0.1l-0.6,0.5l-0.4,0.4v0.1l-0.5,1.4l-0.3,1.7l-0.5-1.4h-0.9l-1.1,0.5l0.1,0.5l0.6,0.1v0.4
					l-0.3,0.3h-0.8l-1.8-0.6l-0.8-0.6l-0.9-0.3h-0.4l-0.4,0.3l-0.5,0.2l-0.6,0.8l-0.6,0.8l-0.4,0.2l-1.6,0.8l-1.5,0.3l-3.4,0.4
					l-0.4-0.2l-0.2-0.7l-1.3-0.6l-1.8-0.6l-1.5-0.4l-0.4,0.3l-0.6,0.8l-0.3,0.1h-0.1l-0.2,0.1l-0.2-0.3l0.1-1.3l0.1-0.5v-0.4
					l-1.3-2.5l-0.8-1.3l-1.1-2l-0.4-0.5l-0.4-1l0.1-0.8l0.1-0.5l0.2-3.4v-0.9l0.2-0.7v-0.4l-0.2-0.8l-0.7-2.5l-0.5-0.4l-0.4-0.4
					l-0.9-0.7l-0.5-0.4l0.1-1.4v-1.6l-0.6-2l-0.6-2.4v-1.8l-0.7-1.4l-0.4-0.9l-0.3-1.4v-1.5l-0.1-0.9l-0.1-0.7l-1-2.6l-0.5-0.5
					l-0.8-0.4l-0.5-0.4l-0.6-0.2l-0.4,0.1l-0.1-0.5l0.2-0.7l0.4-0.4l0.9,1.1h0.3l0.1-0.5l-0.1-1.5l-0.4-1.9l-0.5-1l-0.5-0.6
					l-0.2-1.1l-0.3-1l0.1-0.4l0.3-0.3l0.3-0.3l0.1-1.3l0.6-0.4l0.4-0.5l0.1-1.4v-2l-0.6-3.7l-0.1-0.4L266,421l0.5-0.1l1.3-0.6l1.9-2
					l0.2-0.3v-0.6l0.4-1.3l0.4-0.1l1,0.1l-0.1-0.6l-0.6-2l-0.5-1.4l0.3-3.3l0.4-3.7l0.9-1.1l0.7-0.8l0.4-0.3l0.5-0.2l0.4-0.4
					l0.5-0.3l1,0.1l1.6,0.6l0.3,0.3l0.2,0.4l0.3,0.4l1,0.9l0.2,0.2l2.6,0.8l2-0.7l1.4-1l2.8-0.3l1.1,0.1l0.5,0.2l0.1,0.1l7.3,3.3
					l7,3l12.4,5.5l0.6,13.9l0.1,3.4l14-18.7l8.6-11.6l9.9-13.2l17.2-4.6l17-4.5l10.9-2.9l12.8,27l0.5,1.2l4.9,10.5l-1.2,0.2
					l-1.3,0.4l-0.3,0.4l-0.3,0.3l-0.4,0.1l-1.8,0.9l-1.2,0.2l-0.5,0.1l-0.4,0.1l-0.4,0.3l-0.9,0.5l-0.1,0.1l-0.4,0.2l-0.3,0.4
					l-1.9,1.9l-0.9,1.6l-0.9,3l0.5,1.9l0.5,1.8L401.3,432.5z"/>
			</g>
			<g id="Group-3" transform="rotate(-180 136 77)">
				<defs>
					<filter id="Adobe_OpacityMaskFilter" filterUnits="userSpaceOnUse">
						<feColorMatrix  type="matrix" values="1 0 0 0 0  0 1 0 0 0  0 0 1 0 0  0 0 0 1 0"/>
					</filter>
				</defs>
				<mask maskUnits="userSpaceOnUse" id="mask-2_1_">
					<g class="st2">
						<path id="path-1_1_" class="st3" d="M0,0h32.9v47.8H0V0z"/>
					</g>
				</mask>
				<path id="Fill-1" class="st4" d="M16.5,47.8l13.4-20C37.6,16.1,29.9,0,16.5,0C3.1,0-4.7,16.1,3.1,27.8L16.5,47.8z"/>
			</g>
			<g id="drop" transform="rotate(-180 217 154)">
				<defs>
					<filter id="Adobe_OpacityMaskFilter_1_" filterUnits="userSpaceOnUse">
						<feColorMatrix  type="matrix" values="1 0 0 0 0  0 1 0 0 0  0 0 1 0 0  0 0 0 1 0"/>
					</filter>
				</defs>
				<mask maskUnits="userSpaceOnUse" id="mask-4_1_">
					<g class="st5">
						<path id="path-3_1_" class="st3" d="M0,0h32.9v47.8H0V0z"/>
					</g>
				</mask>
				<path id="Fill-1_1_" class="st6" d="M16.5,47.8l13.4-20C37.6,16.1,29.9,0,16.5,0C3.1,0-4.7,16.1,3.1,27.8L16.5,47.8z"/>
			</g>
		</g>
	</g>
</g>
</svg>
