<svg width="269" height="120" xmlns="http://www.w3.org/2000/svg" xmlns:xlink="http://www.w3.org/1999/xlink"><defs><path id="path-1" d="M.539.282h18.546v27.503H.54z"/><path id="path-3" d="M.777.265h57.979v71.283H.776z"/></defs><g id="Page-1" stroke="none" stroke-width="1" fill="none" fill-rule="evenodd"><g id="Home-" transform="translate(-173 -40)"><g id="Logo" transform="translate(173 40)"><g id="Group-3" transform="translate(97.724)"><mask id="mask-2" fill="#fff"><use xlink:href="#path-1"/></mask><path d="M9.813.281L2.279 11.8c-4.376 6.692.003 15.986 7.534 15.986 7.528 0 11.907-9.294 7.533-15.986L9.813.28z" id="Fill-1" fill="#CB9D0E" mask="url(#mask-2)"/></g><g id="Group-6" transform="translate(111.828)"><mask id="mask-4" fill="#fff"><use xlink:href="#path-3"/></mask><path id="Fill-4" fill="#020203" mask="url(#mask-4)" d="M16.868 71.548h.114L58.756.264H26.457L.777 44.088z"/></g><path d="M4.873 92.826c-1.08-2.66-1.787-3.657-3.809-3.895l-.844-.093c-.33-.285-.28-.952.095-1.189 1.361.094 2.866.144 4.887.144 2.067 0 3.714-.05 5.688-.144.33.19.425.904.097 1.189l-.71.093c-1.783.238-2.158.523-2.208.901.095.477.897 3.041 2.351 6.648 2.162 5.51 4.326 10.97 6.675 16.382 1.46-3.135 3.433-8.023 4.513-10.54 1.364-3.23 3.576-8.595 4.373-10.635.377-1 .425-1.522.425-1.855 0-.33-.472-.711-2.117-.9l-.847-.094c-.33-.285-.232-1 .095-1.189 1.317.094 3.101.144 4.888.144 1.552 0 3.009-.05 4.56-.144.33.19.33.95.095 1.189l-1.411.093c-1.127.094-1.835.667-2.442 1.664-1.317 2.23-3.151 6.074-5.268 10.917l-2.539 5.84c-1.879 4.372-4.088 9.881-4.887 12.392a.919.919 0 01-.518.144c-.237 0-.47-.045-.702-.144-.522-1.989-1.367-4.318-2.164-6.312L4.873 92.826z" id="Fill-7" fill="#020203"/><path d="M47.882 94.823c0-4.876-.094-5.579-2.82-5.908l-.742-.092c-.276-.187-.185-1.032.093-1.174 1.989.092 3.565.142 5.458.142h8.695c2.96 0 5.691 0 6.244-.142.278.798.553 4.173.738 6.237-.185.281-.922.373-1.158.094-.691-2.203-1.107-3.846-3.513-4.454-.971-.234-2.451-.282-4.484-.282h-3.329c-1.391 0-1.391.093-1.391 1.877v9.375c0 1.316.14 1.316 1.526 1.316h2.685c1.94 0 3.375-.095 3.93-.282.556-.19.878-.468 1.11-1.642l.373-1.922c.229-.284 1.015-.284 1.2.045 0 1.126-.185 2.956-.185 4.738 0 1.685.185 3.47.185 4.501-.185.33-.971.33-1.2.048l-.42-1.83c-.185-.842-.507-1.548-1.434-1.782-.649-.19-1.755-.234-3.56-.234H53.2c-1.386 0-1.526.045-1.526 1.266v6.61c0 2.488.14 4.083.877 4.88.558.564 1.53 1.077 5.598 1.077 3.562 0 4.902-.184 5.92-.703.836-.468 2.082-2.11 3.282-4.546.324-.237.973-.097 1.157.327-.324 1.637-1.48 5.251-2.08 6.518-4.164-.095-8.28-.14-12.397-.14h-4.16c-1.988 0-3.562.045-6.29.14-.278-.14-.367-.893-.094-1.172l1.53-.142c2.637-.237 2.866-.937 2.866-5.86V94.823z" id="Fill-9" fill="#020203"/><path d="M109.68 111.06c0 1.42 0 7.074.141 8.308-.091.285-.374.52-.885.52-.562-.805-1.913-2.466-5.968-7.168L92.15 100.183c-1.261-1.471-4.432-5.366-5.41-6.41h-.095c-.188.57-.233 1.663-.233 3.086v10.354c0 2.228.045 8.404.84 9.825.28.523 1.21.808 2.375.907l1.448.14c.28.382.23.95-.092 1.19-2.1-.096-3.73-.144-5.456-.144-1.958 0-3.22.048-4.853.144-.325-.24-.372-.906-.09-1.19l1.257-.14c1.074-.144 1.817-.43 2.053-.95.654-1.71.604-7.5.604-9.782V93.487c0-1.327-.044-2.324-1.026-3.415-.652-.666-1.77-1-2.887-1.143l-.796-.093c-.28-.286-.28-.997.097-1.187 1.955.142 4.427.142 5.264.142.749 0 1.542-.048 2.147-.142.934 2.423 6.435 8.688 7.974 10.444l4.526 5.177c3.215 3.655 5.5 6.315 7.692 8.597h.094c.186-.24.186-.997.186-1.997V99.71c0-2.231-.045-8.405-.932-9.829-.283-.429-1.026-.714-2.89-.951l-.794-.093c-.327-.286-.282-1.045.09-1.187 2.146.094 3.733.142 5.507.142 2.006 0 3.215-.048 4.802-.142.372.235.372.901.091 1.187l-.654.093c-1.49.237-2.422.62-2.608 1-.793 1.708-.701 7.597-.701 9.78v11.35z" id="Fill-11" fill="#020203"/><path d="M133.879 103.494c-.373 1.093-.328 1.141.981 1.141h5.747c1.354 0 1.451-.19 1.029-1.471l-2.525-7.738c-.372-1.14-.795-2.422-1.073-2.993h-.094c-.142.238-.604 1.378-1.119 2.804l-2.946 8.257zm9.253 4.23c-.323-1.047-.515-1.191-1.916-1.191h-7.06c-1.167 0-1.445.144-1.773 1.14l-1.638 4.987c-.698 2.135-1.026 3.417-1.026 3.94 0 .567.231.852 1.354.948l1.54.144c.329.237.329.997-.089 1.189-1.22-.096-2.666-.096-4.865-.144-1.543 0-3.222.093-4.487.144-.279-.192-.373-.952-.092-1.189l1.54-.144c1.126-.096 2.152-.618 2.806-2.327.842-2.183 2.151-5.266 4.117-10.586l4.763-12.82c.656-1.708.937-2.61.795-3.369 1.126-.333 1.919-1.188 2.433-1.804.283 0 .606.093.7.426.61 2.09 1.357 4.273 2.055 6.362l6.406 19.086c1.357 4.083 1.966 4.795 3.973 5.032l1.26.144c.328.237.239.997 0 1.189a105.788 105.788 0 00-5.655-.144c-2.242 0-4.018.093-5.375.144-.372-.192-.417-.952-.09-1.189l1.355-.144c.981-.096 1.637-.38 1.637-.853 0-.522-.236-1.375-.608-2.516l-2.06-6.455z" id="Fill-13" fill="#020203"/><path d="M194.305 111.06c0 1.42 0 7.074.141 8.308-.09.285-.372.52-.885.52-.56-.805-1.913-2.466-5.968-7.168l-10.817-12.537c-1.259-1.471-4.43-5.366-5.41-6.41h-.095c-.186.57-.233 1.663-.233 3.086v10.354c0 2.228.047 8.404.84 9.825.28.523 1.21.808 2.377.907l1.445.14c.28.382.233.95-.089 1.19a115.294 115.294 0 00-5.455-.144c-1.96 0-3.22.048-4.853.144-.327-.24-.375-.906-.092-1.19l1.26-.14c1.07-.144 1.816-.43 2.051-.95.652-1.71.605-7.5.605-9.782V93.487c0-1.327-.047-2.324-1.026-3.415-.654-.666-1.77-1-2.89-1.143l-.793-.093c-.283-.286-.283-.997.094-1.187 1.958.142 4.43.142 5.265.142.748 0 1.544-.048 2.149-.142.931 2.423 6.431 8.688 7.973 10.444l4.524 5.177c3.217 3.655 5.5 6.315 7.69 8.597h.097c.184-.24.184-.997.184-1.997V99.71c0-2.231-.042-8.405-.93-9.829-.285-.429-1.028-.714-2.892-.951l-.793-.093c-.328-.286-.28-1.045.091-1.187 2.147.094 3.733.142 5.505.142a71.94 71.94 0 004.801-.142c.375.235.375.901.095 1.187l-.655.093c-1.492.237-2.424.62-2.607 1-.793 1.708-.704 7.597-.704 9.78v11.35z" id="Fill-15" fill="#020203"/><path d="M218.409 110.457c0 2.466.14 3.956.932 5.074 1.025 1.44 2.794 1.905 5.724 1.905 9.034 0 13.082-5.906 13.082-14.567 0-5.121-2.47-13.777-14.66-13.777-2.752 0-4.24.373-4.613.653-.371.28-.465 1.442-.465 3.537v17.175zm-3.816-16.618c0-3.258-.232-4.235-2.187-4.515l-1.025-.138c-.373-.23-.42-.978.047-1.16 3.957-.236 7.728-.377 11.68-.377 3.911 0 7.217.28 10.243 1.398 6.283 2.281 9.448 7.585 9.448 13.73 0 5.908-2.839 10.985-8.146 13.872-3.024 1.625-6.84 2.232-10.425 2.232-2.981 0-5.96-.371-7.589-.371-1.952 0-3.632.044-5.817.14-.28-.14-.373-.888-.094-1.165l1.072-.14c2.697-.374 2.793-.93 2.793-5.815V93.84z" id="Fill-17" fill="#020203"/><path d="M261.051 94.917c0-4.97-.096-5.767-2.822-6.002l-1.158-.092c-.278-.19-.185-1.032.09-1.174 2.313.092 3.89.142 5.834.142 1.85 0 3.427-.05 5.74-.142.273.142.369.985.09 1.174l-1.158.092c-2.729.235-2.822 1.032-2.822 6.002v16.693c0 4.972.093 5.63 2.822 5.957l1.159.142c.278.187.182 1.032-.091 1.172-2.313-.095-3.89-.14-5.74-.14-1.944 0-3.52.045-5.833.14-.276-.14-.37-.893-.091-1.172l1.158-.142c2.726-.326 2.822-.985 2.822-5.957V94.917z" id="Fill-19" fill="#020203"/></g></g></g></svg>