<svg version="1.1" id="Шар_1" width="96" height="86" xmlns="http://www.w3.org/2000/svg" x="0" y="0" xml:space="preserve"><style>.st0{fill:#220d03}</style><g id="Page-1"><g id="Index" transform="translate(-530 -1745)"><g id="Group-6" transform="translate(530 1745)"><path id="path1248" class="st0" d="M63.7 64h-32v-2.7h32V64"/><path id="path1250" class="st0" d="M63.7 69.3h-32v-2.6h32v2.6"/><path id="path1252" class="st0" d="M63.7 74.7h-32V72h32v2.7"/><path id="path1254" class="st0" d="M63.7 80h-32v-2.7h32V80"/><path id="path1256" class="st0" d="M53 85.3H42.3v-6.6H45v4h5.3v-4H53v6.6"/><path id="path1258" class="st0" d="M61 78.7h-2.7V48.5l.7-.4c7.7-4.1 12.6-12.6 12.6-21.5 0-13.2-10.8-24-24-24s-24 10.8-24 24c0 8.9 5 17.4 12.6 21.5l.7.4v30.1h-2.7V50.1C26.2 45.4 21 36.3 21 26.7 21 12 33 0 47.7 0s26.7 12 26.7 26.7c0 9.6-5.2 18.7-13.3 23.4v28.6"/><path id="path1260" class="st0" d="M45 62.7h-2.7V49.3H45v13.4"/><path id="path1262" class="st0" d="M53 62.7h-2.7V49.3H53v13.4"/><path id="path1264" class="st0" d="M89 28H47.7v-2.7H89V28"/><path id="path1266" class="st0" d="M82.9 30.7h8.2L88 27.6c-.5-.5-.5-1.4 0-1.9l3.1-3.1h-8.2l-4 4 4 4.1zm11.4 2.6h-12c-.4 0-.7-.1-.9-.4l-5.3-5.3c-.5-.5-.5-1.4 0-1.9l5.3-5.3c.2-.3.6-.4.9-.4h12c.5 0 1 .3 1.2.8.2.5.1 1.1-.3 1.5l-4.4 4.4 4.4 4.4c.4.4.5 1 .3 1.5-.1.4-.6.7-1.2.7"/><path id="path1268" class="st0" d="M47.7 10.7c-8.8 0-16 7.2-16 16s7.2 16 16 16 16-7.2 16-16-7.2-16-16-16zm0 34.6C37.4 45.3 29 37 29 26.7S37.4 8 47.7 8s18.7 8.4 18.7 18.7S58 45.3 47.7 45.3"/><path id="path1270" class="st0" d="M47.7 18.7c-4.4 0-8 3.6-8 8s3.6 8 8 8 8-3.6 8-8-3.6-8-8-8zm0 18.6c-5.9 0-10.7-4.8-10.7-10.7S41.8 16 47.7 16s10.7 4.8 10.7 10.7-4.9 10.6-10.7 10.6"/><path id="path1272" class="st0" d="M47.7 29.3c-1.5 0-2.7-1.2-2.7-2.7s1.2-2.7 2.7-2.7c1.5 0 2.7 1.2 2.7 2.7s-1.3 2.7-2.7 2.7"/></g></g></g></svg>