<svg width="108" height="98" xmlns="http://www.w3.org/2000/svg"><g fill="#512511"><path d="M91.006 20.999l-.015.002c.016-.002.023-.002.015-.002z"/><path d="M75.332 18.932c.21.55.879.967.802 1.535-.076.57-.955.247-1.356.323-.402.076.133.815.133.815l-2.312-.815s1.91 1.024 2.312 1.1c.401.076.363-.038.325.644-.038.683-1.28 1.12-2.198 1.347-.917.228-1.165.758-.726 1.46.44.702-.668.607-.993.626-.325.02-.612.36-.21.645.4.284 1.72.151 2.101.132.382-.019.382 1.517.038 2.086-.344.569-.21 1.915-.21 1.915l-.784.341c-.783.341-.974.645-.974.645s.401-.133.821-.341c.42-.209.67-.38.841-.152.173.228-.114.664-.477 1.1-.364.436.286.512.535.474.248-.038.478.38.496.702.02.322-.706.38-.936.303-.23-.076.134-.55.134-.55s-.249.057-.402.323c-.152.265-.496.322-.61.094-.116-.227-.498-.417-.765-.189-.268.228-.459.19-.554.02-.096-.172-.23-.229-.306-.077-.076.152-.19.341-.458.323-.268-.02-.822-.36-.822-.36s.401.587.478.815c.077.227-.325.019-.593-.228-.267-.247-.668.095-.745.076-.077-.02-.917-3.129-.917-3.129s.19 1.877.42 2.655c.23.777.191.701.02.967-.172.265-.459.455-.172.701.286.247.477.304.688.437.21.132.095.474.286.663.19.19.21-.094.134-.474-.077-.38.076-.436.324-.55.249-.114.306.114.344.512.038.398.363.664.363.664-.114.284-.057.531-.057.531s.057-.531.535-.455c.478.076.306-.038.573.114.268.152.593-.095.746-.284.153-.19.305-.493.688-.341.232.092.324.142.492.176a.95.95 0 01-.526.193c-.403.032-.016.352.259.216.274-.136.08.602.145.49.06-.103.187-.407.578-.85l.027.002c.592.038.592.114.821-.132.23-.246-.076-.417.325-.531.401-.114.172-.455.325-.531.153-.076.363.455.899.929.373.33.28.533.185.792h-1.335s-.242-.288-.436 0c-.156.233-.322.192-.193.288.129.096.129.4.339.465.21.064.274-.08.42-.192.145-.113.129-.37.129-.37l1.058-.14a1.1 1.1 0 00-.071.332c-.02.493.458 1.422.917 1.309.434-.108.44-.046.73.09l-.209.356a.794.794 0 00-.291-.056c-.283.004-.523.194-.739.374.063-.154.365-.624.18-.749-.254-.17-.312.34-.359.464-.059.159-.232.242-.337.374-.042.053-.07.134-.024.184.034.037.092.036.142.031.236-.026.466-.1.673-.215.057-.032.122-.07.185-.049.03.01.053.031.076.051.056.048.112.095.173.135l-1.73 2.934.154.228 1.64-3.123a.8.8 0 00.11.054c.13.05.28.061.407.005.085-.038.16-.114.166-.207a.26.26 0 00-.026-.121c-.062-.136-.195-.227-.333-.288l-.026-.011.19-.362.03.014c.344.152.459-.284.459-.284.268-.493.344-.323.879-.341.535-.02.23.227.21.663-.02.437.02.512.21.038.191-.474.191-1.043.937-.341.745.701.86.038 1.395.284.535.246.076.796-.497.91-.573.114-.42.171-.688.758-.268.589-.344.304-.593.645-.248.341.115.114.554-.02.44-.132.344.115.344.172 0 .057-.42.246-.21.53.21.285.21.115.382-.132.172-.246.268.284.497.323.23.038.344-.038.535.114.19.151.306.076.23-.114-.077-.19.038-.398.44-.323.4.076.573-.038.573-.38 0-.34.286-.549.267-.189-.019.36.23.247.23.247.019.644.382 2.806.382 2.806s-.23-2.845-.02-2.94c.211-.094.058-.303.096-.568.038-.266.383-.304.497-.588.115-.284.172-1.328.325-1.802.153-.474.478-.512.86-1.024s.687-.569 1.222-.91c.535-.34.63.247.84.38.211.133.173-.247.517-.55.344-.303.4-.152.554.341.153.493.343.815.496 1.384.153.57-.095 1.138.287 1.65s.84.303.726-.436c-.115-.74-1.09-2.446-1.07-3.3.02-.853.42-1.138 1.051-1.29.63-.151.44.114.745-.36.306-.474.173-.683.173-.683l1.031.304-1.031-.493c.038-.228.152-.531.515-.493.364.038.402.095.516-.322.115-.418.42-.38.554-.133.134.247.612.531.612.531s-.172-.246-.306-.492c-.134-.247-.134-.399.363-.475.497-.076.21-.929.23-1.156.019-.228 0-1.384.23-1.441.229-.057 1.203.36 1.394-.095.19-.455-.764-1.024-1.013-1.346-.248-.323-.267-.36-.19-.967.076-.607-.42-.532-.536-1.1-.114-.57.23-.114.67-.342.438-.227-.078-.34.056-.588.134-.246.077-.265-.076-.398-.153-.132-.21-.019-.21-.417 0-.398-.191-.095-.325.02-.134.113-.077-.589-.077-.589s-.268.74-.573.91c-.306.17-.191-1.232-.191-1.744s.076-.835-.44-1.48c-.516-.644-.956-1.421-.956-1.421s.893-.266 1.004-.284c-.113.007-1.157.056-1.157.056l-.286-.284 1.28-1.005-1.624.777s-1.07-1.346-1.892-1.668c-.821-.323-1.356-.36-1.356-.36l.267-.759s-.325.493-.783.702c-.459.208-1.796 0-2.331.076-.536.076-.593-.304-.784-.72-.19-.418-.077.492-.267.852-.191.36-.88.095-1.625.02-.745-.077-1.395-.038-1.643.246s-.42.19-.764.265c-.344.077-.459.437-.459.437l-.993.17.974.095s-.038.114-.496.57c-.459.454-1.3.815-1.911.246-.612-.57-1.146-.628-.936-.077z"/><path d="M73.247 44L75 40l-2 3.606zm.721-23l.032-.616L70 17zm4.688-3l.344-.296L77 16zm-6.702 14.964a.654.654 0 01.092.086s-.013-.145-.092-.086zm-3.493-.368c.267-.25.245-.286.445.143.2.428.133 0 .178-.178.044-.179.133-.179.4.285.266.464.155-.178.355-1.142.077-.372.128-.526.161-.574-.174-.259-.42-.14-.895.432-.533.642-.333.214-.866.856-.533.642-.045.428.222.178z"/><path d="M68.092 32.462C67.5 34.204 69.958 31.17 70 31.02c0 0-1.315-.3-1.908 1.442zM68.05 32s-.06-.112-.094 0c-.034.113.094 0 .094 0zm-.087-4.028c-.055.078.087.078.087.078s-.033-.156-.087-.078zM76.96 39.99c-.049.109.09.036.09.036s-.04-.144-.09-.036z"/><path d="M77.05 40.008s-.062-.123-.095-.01c-.032.112.095.01.095.01zm-.087 2.029c.048.051.087-.065.087-.065-.035-.059-.135.013-.087.065zm2.037.218L78.847 42 76 46zm1.989-.305c-.076.014-.017.097-.017.097.11.025.093-.109.017-.096zm-.029 2.067c-.046.088.088-.027.088-.027.013-.055-.043-.06-.088.027zm.997 1.98c-.039.112.093.011.093.011s-.054-.123-.093-.01z"/><path d="M81.966 45.951c-.064.015.084.099.084.099s-.02-.113-.084-.099zm-.92.099s.029-.106-.066-.1c-.095.006.066.1.066.1z"/><path d="M80.992 46.05s.123-.1.011-.1-.011.1-.011.1zm.021-2.1c-.105 0-.047.1-.047.1s.152-.1.047-.1zm-2.037.01c-.087.045.073.09.073.09s.013-.136-.073-.09zm6.987.072c.054.069.087-.082.087-.082s-.142.014-.087.082zm2.087-.026s0-.12-.078-.008c-.078.112.078.008.078.008zm-.081-2.036c-.07.07.081.08.081.08s-.01-.153-.081-.08zM86 38l2 2s-.6-1.398-2-2zm1.95 0l.1 2c.004-1.167-.1-2-.1-2z"/><path d="M88.05 40s-.021-1.733-.084-1.98c-.063-.249.084 1.98.084 1.98zm-2.063-.045c-.079.036-.007.088-.007.088.099.042.086-.124.007-.088z"/><path d="M88.05 37.365s-.015-.534-.055-.31c-.041.222-.068 1.6-.018 1.91.05.311.073-1.6.073-1.6zm4.95.822L95 40l-1.424-2zm-2.05-.067l.1 1.88-.056-2zm1.994-2.194s-.097-.592-.421-.54c-.324.05-.454.411-.486.488C92.004 35.952 91 35 91 35s.357.72.551 1.004c.195.283-.162.18.065.515.226.334.68.617.842.411.162-.206.13-.128.39.026.259.155.161-.154-.098-.463-.26-.31.194-.567.194-.567zm.198-2.925C92.37 32.949 95 35 95 35s-1.083-1.947-1.858-1.999zm-.176 1.949c-.063 0 .084.1.084.1s-.021-.1-.084-.1zm-2.002-1.998c-.058.021.086.098.086.098s-.029-.118-.086-.098z"/><path d="M92.982 32.954c-.098.028.061.096.061.096s.037-.124-.061-.096zm-2.032 2.079c0 .059.098-.055.098-.055.018-.065-.098-.003-.098.055zm-1.998-.077c-.017.022.098.094.098.094.003-.077-.082-.116-.098-.094z"/><path d="M88.954 35.01c-.029.178.096 1.99.096 1.99s-.067-2.166-.096-1.99zm.012-2.059c-.064.012.084.099.084.099s-.02-.111-.084-.099zm-.981 2.099s.132-.1.02-.1c-.111 0-.02.1-.02.1zM94.797 30c-.87-.019-.918.785-.66 1.178.26.392.989.392.989.392l.141.43.047-.56s.635.261.682-.169c.047-.43-.329-1.252-1.2-1.27zm5.19.001c-.039-.045-.057.935-.004 1.737.054.8.067-.49.067-.49s-.025-1.203-.063-1.247zm-3.945-4.017c-.38.101 1.958.056 1.958.056s-1.58-.157-1.958-.056zM95 26.05s-1.526-.156-1.95-.078c-.424.078 1.95.078 1.95.078zm0-1.092s-1.437-.04-1.933.06c-.496.099 1.933-.06 1.933-.06zm.95-1.908c.043-.039.078-.073.1-.1l-.1.1zM97 21c-1.246.673-3.955 1.82-3.955 1.82-.46.758 2.714-1.082 3.955-1.82zm-2.204-.008c.08-.12.479-1.08-.12-1.641-.598-.56-1.636-.52-1.675.64-.04 1.162 1.795 1.001 1.795 1.001z"/><path d="M93.025 21.042c-.286.042 1.975-.092 1.975-.092s-1.69.05-1.975.092zm-1.992.003c.053-.07-.032-.141-.074-.056-.042.085.074.056.074.056zm8.533-2.995c-.33-.195.083-.357-.165-.486-.248-.13-.165-.259-.103-.389.062-.13-.103-.453-.393-.485-.29-.033-.165 0-.248-.26-.083-.258-.186-.42-.393-.129-.206.292 0 0-.289-.259-.29-.259-.723.745-.702 1.198.02.453 0 .323-.186.517-.186.195-.062.195.268.486s.33.291.228.647c-.104.357.04.875.186.713.144-.162.144-.55.33-.648.186-.097.228.907.186 1.036-.04.129.496-1.133.496-1.133l.496.648.02-1.198.703.485s-.103-.55-.434-.744zm.467 0c.038-.021.01-.133-.062-.09-.071.042.062.09.062.09zm6.945 4.99c-.083.35.046 1.96.046 1.96.042-.208.038-2.31-.046-1.96zM95 14s-1.356.507-1.917 1.709C92.52 16.911 95 14 95 14z"/><path d="M93 16s-1.486.521-1.942 1.713C90.6 18.905 93 16 93 16zm.05 0c-.087 0-.127.577-.08 1.728.047 1.152.08-1.728.08-1.728zm-2.01-1.95s.044-.141-.056-.088c-.101.053.056.088.056.088zm3.957-2.09c-.112-.047.011.09.011.09s.101-.043-.01-.09zm-6.947 3.99s-.048-.013-.091.074c-.044.087.091-.073.091-.073zm-4.014.051C83.98 16.063 83.95 18 83.95 18s.144-2.062.086-1.999zm1.952-2.049c-.106-.017.043.098.043.098s.064-.081-.043-.098zm-8.993-.002c-.112-.007.02.1.02.1s.091-.092-.02-.1zm-.528 2.1c1.092.004.386-.141-1.027-.088-1.412.053 1.027.088 1.027.088zm.533-2s-.824-.15-1.794-.082c-.97.068 1.794.082 1.794.082z"/><path d="M77.05 14.05s0-.091-.078-.1c-.078-.008.078.1.078.1zm-6.02 2.022c-.484-.353-.194.707-.194.707s-1.453-.141-1.808-.141 2.81 1.344 2.81 1.344c.517.214-.323-1.556-.808-1.91z"/><path d="M68.266 16.076c-.89-.419.68 1.001 1.4 1.635.2.175.334.289.334.289s-.599-1.39-1.734-1.924zm-17.313-4.081a.54.54 0 00.097.012c-.073-.012-.11-.017-.097-.012zm9.068-6.945c-.016-.057-.042-.1-.042-.1s.009.043.042.1zm15.023 3.932l.006-.032-.1.1a.45.45 0 01.094-.068zm-8.08 19.058c-.055.39.068 1.95.068 1.95.05.194-.012-2.339-.068-1.95zm1.178-1.496C67.424 28.074 69.657 28 69.657 28c1.119-.896-.797-2.985-1.515-1.455zm-.097-.494s.032-.127-.064-.095c-.097.032.064.095.064.095zm-3.081-.018c-.058-.328.086 1.968.086 1.968s-.028-1.64-.086-1.968zm-1.947 1.994c.232.071 1.981-.037 1.981-.037.079-.072-2.214-.035-1.981.037zm-.052 2.012c.06.05.085-.071.085-.071 0-.05-.146.022-.085.071z"/><path d="M62.986 27.952c-.092.016.021.098.021.098.052.008.07-.115-.021-.098z"/><path d="M62.95 28.05s.156-.07.078-.096c-.078-.026-.078.096-.078.096zm2.09 3.951c-.374.089 1.95.03 1.95.03.151-.08-1.574-.119-1.95-.03zm2.956.049s.118-.126.005-.095c-.112.03-.005.095-.005.095zm-.046 1c.015.007.145-.072.084-.097-.061-.025-.084.097-.084.097zm12.443-17.91c.377.158.032.238.062.653.031.414.408.118.91-.12.501-.237.282-.592.501-.77.22-.178.157-.217-.094-.355-.25-.139 0-.495 0-.495-.032-.098-.408-.079-.753.218-.344.297-.439-.158-.814.099-.376.256-.188.612.188.77zm12.657 3.846l-.011-.036-.089.1zm-2.022-.035c-.078-.015-.078.099-.078.099s.156-.083.078-.099zm-3.034-4.998c-.111-.023.024.097.024.097s.086-.074-.024-.097zM52.964 25.97c-.058.08.086.08.086.08.004.012-.03-.158-.086-.08zM51 23.045s-.907-.16-1.815-.064c-.907.096 1.815.064 1.815.064zm.05-4.091s-.058-.027-.094.067.094-.067.094-.067zm-2.96 3.996c.803.323.91-1.034.91-1.034s-.429-1.228-1.498-.84c-1.071.388-.215 1.551.588 1.874zm3.255-7.15c-.174.34.432.17.995.043s.606-.637.606-.637.216-.593-.216-.678c-.433-.085-.693-.254-1.212-.423-.52-.17-1.861-.127-2.424.085-.563.211 1.558.254 2.294.296.737.042.65.255.737.467.086.211-.608.508-.78.848zm1.64-6.792c-.09.16.02 1.99.02 1.99.057.08.07-2.15-.02-1.99zm-2.032 2.005c.025.07.121.035.091-.063 0 0-.115-.007-.09.063zm.544-2.436c.26.24.231.601.288.32.058-.28.174-.44.376-.961.203-.522.752-.762.839-.842 0 0-.52.12-.78.241-.26.12-.29-.521-.608-.28-.318.24-.434.601-.578 1.162-.144.56.202.12.463.36zm4.542.473s.047-.136-.054-.09c-.102.045.054.09.054.09zm-2.043-.1c-.112-.009.014.1.014.1s.098-.09-.014-.1z"/><path d="M53.974 8.953c-.083.022.076.097.076.097s.007-.12-.076-.097z"/><path d="M54.05 9.04s-.007-.157-.08-.057c-.074.101.08.058.08.058zm-.003-1.99s.025-.087-.068-.099c-.093-.012.068.099.068.099zm2.003 0s0-.108-.078-.1c-.078.009.078.1.078.1zm-2.07-5.041C53.922 2.21 53.967 6 53.967 6c.141-.806.074-4.194.015-3.991zm2.06.041c.03-.04-.007-.12-.072-.096-.066.024.071.096.071.096zm4.01 0s-.026-.147-.086-.084c-.06.063.086.084.086.084zm.958-.04c-.156.1 1.946-.018 1.946-.018.388-.037-1.791-.08-1.946.018z"/><path d="M61.337 1.73c.23.58 0 0 .144-.092.143-.09.172-.122.316.184.143.304.115.152.2.03.087-.122.087-.214.202-.305.115-.091.143.091.574-.213.431-.305.115-.458.115-.458-.057-.702-.43-1.007-.89-.824-.46.183-.173.122-.431.336-.259.213-.201.274-.46.762-.257.488.001 0 .23.58zm1.631 5.195C63.036 6.212 63.05 3 63.05 3s-.15 4.639-.082 3.925zM68.05 3s-.136.621-.09 1.74c.045 1.12.09-1.74.09-1.74zM68 7s-1.514.81-1.947 1.79C65.619 9.77 68 7 68 7zm-.972-2.048c-.078-.018-.078.098-.078.098s.156-.08.078-.098zM31.99 76.951a.3.3 0 00.011.076c.016.05.013.01-.012-.076zm-10.943-9.957a.263.263 0 00-.094.012s.035-.003.094-.012zm2.003-14.011c-.045.003-.078.012-.094.026-.022.019.018.005.094-.026zm35-19.933a.588.588 0 00-.1-.1s.034.055.1.1z"/><path d="M72.983 73.322c.225-.289.494-1.135.561-1.29.068-.155.876.289.876.289s.134-.579-.112-.779c-.247-.2-.965-.823-.898-1.067.067-.245 1.234.423 1.234.423s-.673-.557-1.032-.957c-.36-.4.134-1.09.291-1.29.157-.2.54.4.516-.111-.022-.512.427-.423.719-.757.291-.334.965-.09 1.145-.334.18-.244.067-.444-.112-.734-.18-.289-.135-.823-.09-1.156.045-.334.202-.78-.135-.868-.337-.09-.404-.423-.292-.512.113-.089.517-.111.203-.2-.315-.09-.494-.29-.561-.646-.068-.355.427-.766.733-.463.305.303.693.202.672.08-.02-.12-.387-1.009-.611-1.25-.224-.243-1.1-1.212-1.568-1.495-.469-.282-.327-.767-.204-1.232.122-.464 1.16-1.251 1.304-1.312.142-.06.754 0 1.12.182.367.182.693.04.734-.121.04-.162-.143-.788-.49-.909a4.409 4.409 0 01-1.262-.767c-.326-.303-.428-1.393-.49-2.02-.027-.291.349-.646.758-.94 0 .025.047.015.171-.048.555-.286 1.44-.825 1.948-.973a.33.33 0 00.058-.017c.497-.12.537-.2.43-.403-.107-.203-.24-.328.11-.297.209.019.483.02.671.02.014.089.007.183-.063.23-.156.104-.443.232-.443.232s.39.026.443.207c.052.18-.079.258-.313.258-.235 0-.339.439-.339.439s.495-.232.677-.155c.182.078.105.387-.026.646l-.13.258s.417-.104.677-.129c.26-.026.495.645.521.8 0 0 .183-.645.574-.542.39.104.781.775.781.775s-.416-1.291-.234-1.343c.182-.052.495-.129.495-.129s-.495-.8-.156-.878l-.339-.49s.052-.13.052-.285c0-.155-.078.336-.234.026-.156-.31-.26-.49-.39-.542-.13-.052-.21-.181-.287-.284-.079-.104-.079.206-.313.128-.235-.077-.026 0-.235-.077-.208-.078-.312.103-.416.284a1.131 1.131 0 01-.24.264c-.261-.016-.607-.028-.733.021-.202.078-.06-.203-.375.078-.316.282-.201.173-.163.376.037.203-1.917.795-1.917.795-.733.08-1.63.767-1.976.787-.334.02-1.216-1.01-1.554-1.338.314-.104.761-.216.975-.094.348.196.323.566.323.566s.323-.59.67-.468c.347.123.745.664.745.664s-.547-.762-.348-1.058c.2-.295.423-.246.522-.27.099-.025-.72-.664.223-.763 0 0-.894-.566-.521-.64l.372-.073s-.745-.468-.422-.517c.323-.049.968-.098.968-.098s-.447-.173-.795-.246c-.347-.074-.497-.59-.869-.615 0 0 .472-.394.77-.443l.297-.05s-.496-.172-.422-.393c.075-.221.397-.32.397-.32l-.148-.221.322-.173s-.248 0-.397-.172c-.149-.172-.149-.123.05-.295.198-.172-.174-.025-.472-.197-.298-.172-.72-.344-.571-.516.149-.172.248-.517.248-.517s-.372.37-.596.32c-.223-.049-.496-.147-.496-.147l.695-1.23s-.844 1.279-.968 1.255c-.124-.025-.397-.493-.497-.69-.1-.196 0 .345-.074.468-.075.123-.77.27-1.018.222-.248-.05.323.073.174.32-.149.246-.397.368-.397.368s-.447.173-.521.173c-.075 0 .347.32.422.467.033.065.027.257.05.475a46.18 46.18 0 01-.846.069c-.305.02-.04-.606.102-.99.143-.384.917-.585.917-.585s-.346-.02-.245-.121c.102-.101.835-2.04.835-2.04s-.815 1.495-.855 1.616c-.04.12-.224.323-.51.161-.285-.161-.143-.384-.244-.565-.102-.182 0-.404.224-.465.224-.06.896-.484.896-.484s-.204-.04-.367-.06c-.163-.021-.082-.203.122-.404.204-.202.306-.767.306-.767l-.183-.182c-.184-.182.305-.666.142-.606-.162.06-.265-.06-.51-.323-.244-.263-.121-.687-.121-.687-.265.202-.856.101-.978.142-.122.04-.346-.767-.326-.667.02.101-.59.667-.835.869-.245.202-.346-.161-.59-.142-.245.02-.836 1.252-.836 1.252l-.305-.323c-.306-.324-.53-.283-.835-.424-.306-.142-.51-.646-.49-.97.021-.323.367-.626.266-.645a3.83 3.83 0 00-.693-.02c-.163.02-.224-.425-.122-.707.101-.283.224-.606.122-.767-.102-.162-.794-.848-1.14-1.312-.347-.465.468-1.333.468-1.333s-.774.323-1.304.646c-.443.27-.558.089-.763-.06.019-.398.059-.768.142-.822.193-.125.608-.486.336-.548-.308-.07-.837.157-.632.58.08.164.12.466.137.777a.743.743 0 00-.117-.068c-.305-.142-.489-.545-.794-.868-.306-.324-.57-.727-1.019-1.05-.448-.324-.672-.606-.916-.788-.22-.162.937-1.171.305-1.595-.413-.278-.765-.096-1.05.243-.14-.478.064-1.198.091-1.256 0 0-.22-.012-.6.743-.136.272-.14.579-.081.852-.266.583-.662 1.054-1.192.993a1.472 1.472 0 01-.797-.371c.12.225.14.426-.14.452-.672.06-.937.02-.937.02-.326-1.494-.733-1.575-1.283-1.575-.55 0-.611-.363-.57-.565.04-.202.121.686.59-1.07.387-1.453.3-2.283.26-2.528.05.003.1.003.15 0 .477-.027.42-.027.73.278.308.305.476.222 1.233.222.756 0 1.933.056 1.933.056s.084.444.084.777c0 .334.225.528.56.195.337-.333.28-.861.28-.861s.253-.334.926-.39c.673-.055.588-.027 1.037-.693.449-.667 1.29-.834 1.43-1.14.14-.305.28-.11.364.39.084.5.14.222.225-.112.083-.333.056-.777.28-1.222.224-.445.812-.806 1.205-.944.392-.14.168-.612.392-1.112.224-.5.84-.944 1.065-1.417.224-.472.504-.5.532-.166.028.333 0 .638.224.666.225.028.028-.472.225-.11.196.36.729-.084.813-.668.084-.583-.505-1-.84-1.055-.337-.056-.197-.417.14-.5.335-.083 1.485.611 1.485.611s.14-.13-.103-.426-.729-.426-1.233-.685c-.505-.26-.393-.981-.094-.648.3.333.635.463.879.296.242-.167-.15-.926-.654-1-.505-.074-.3-.5-.15-.481.15.018.374-.075.467-.389.094-.315-.075-.574-.355-.24-.28.333-.317.351-.467-.316-.15-.666-.15-1.888-.093-2.481.056-.593 1.42-.927 1.98-1.056.561-.13.374.204 1.01.315.634.111.224-.13.747-.389.523-.26.242-.167.784-.24.542-.075 1.028-.075 1.439-.075.411 0 .037-.13-.448-.148-.486-.019-.86-.055-1.29-.019-.43.037-.448.408-1.028.278-.58-.13-.635-.222-1.084-.26-.448-.036-.317-.184-.523-.48-.205-.297-.205-.408-.691-.704-.486-.297-.486-.945-.13-1.278.354-.334 1.233-.76 1.924-.982.56-.18 2.83-1.377 3.678-1.828-.898.38-3.49 1.55-3.49 1.55l.186-.314s-2.448.944-3.046.981c-.598.037-.58-.852-.374-1.278.206-.426.56-.407.897-.611.336-.204 1.121-.76 1.121-.76s-1.14.556-1.345.667c-.205.112-.467.445-.654.093-.186-.352-.41.722-.467 1.037-.056.315-.784.018-.84-.297-.057-.314.354-.87.728-1.388.374-.519 1.869-2.075 1.869-2.075l-.785.649c-.784.648-1.961 2.222-2.223 2.222-.262 0-1.588-1.574-1.775-2.019-.187-.444-.206-.333-.411-.167-.206.167-.505.223-.897-.259-.392-.481-.617-.148-.86-.648-.242-.5.076-.815 0-1.407-.074-.593-.373-.241-.934.055-.56.296-.654-.463-.654-.852 0-.388-.224-.352-.504-.037s.075 1.241-.28 1.797c-.355.555.186.963-.262 1.333-.316.26-.437-.352-.481-.737.016.288.015.702-.117.774-.205.11-.242-.76-.242-.76s-.43.667-.617.704c-.187.037-.262-1.315-.318-1.352-.056-.037.093 1.296-.075 1.445-.168.148-.374.203-.542.87-.168.667-.523 1.167-.747 1.204-.224.037-.15-.426-.485-.981-.336-.556-.28-1.13-.505-1.056-.224.074.094 1.352-.019 2.278-.112.926-.58.852-.896.722-.318-.129-.56.149-.804.149-.242 0-1.009-.093-1.29-.112-.28-.018.356.204.73.26.374.055.392.222.28.759-.112.537-.617.056-.73.185-.111.13.543.796.71 1.204.17.407-.391.333-.391.333s.392.37.224.481c-.168.11-1.42-.352-2.093-.574-.358-.119-1.844-.378-3.155-.596l1.988-1.71-.044-.078-1.98 1.782c-1.138-.188-2.134-.343-2.134-.343l2.025.44-.839.754.87-.747c1.849.401 4.28.93 4.315.942.049.016-.806.004-1.056-.012.273.04 1.3.23 1.616.512.374.333.243.463.113.74-.13.278-.243.611-.393.74-.149.13-.149-.166-.373-.184-.225-.019-.075.352-.075.352l-1.196.074s-.206.148.299.185c.504.037.691-.037.934.148.243.185-.299.648-.86.76-.56.11-.784.222-1.438.259-.654.037-.729.24-.729.24s.43.037.84-.036c.411-.074.468-.112.617-.075.15.037.3.519 0 .815-.299.296-.448.796-.448.796l.392-.5s.075.13.075.445-.915 1.185-1.158 1.389c-.243.203-.318.148-.467.018-.15-.13-.15.26-.169.315-.019.056-.673.685-.69.74-.02.057.765-.48 1.233-.74.467-.26.766-.481 1.046-.481s.056.593-.598.926c-.654.333-1.308.296-1.513.704-.206.407-.131.852.373 1.037.505.185.486-.26.468-.611-.02-.352.299-.334.635-.334s.41-.296.766-.536c.355-.241.541-.056.822.388.28.445.262.87.112 1.056-.15.185-.28-.093-.485-.26-.206-.166-.187 0-.243.204-.056.204-.448.019-.448.019s.093.148.186.315c.094.167-.69-.056-.69-.056s.485.185.522.352c.038.167-.541.167-.896.408-.355.24-1.72 1.333-1.98 1.703-.263.371-.225.5 0 .5.224 0 1.307-1.296 1.662-1.648.355-.352.617-.481 1.046-.555.43-.075.374 0 .374 0s.037.092.28.259c.243.167-.093.13-.019.352.075.222.262-.093.355.148.093.24-.897 1.444-1.177 1.778-.28.333-.13.76.243.204.374-.556.822-.926 1.102-1.315.28-.389.13.148.205.481.075.333.225.176.28-.157.057-.333-.056-.806.169-.833.224-.028.308.666.616 1.333.309.666.533.916.617 1.194.084.277-.644.139-.84.25-.197.111-.337-.056-.561-.25-.224-.194-.084.611.42.722.505.112.393-.194.645-.194s.084.223-.084.528c-.168.305.028.472.42 0 .393-.473.421-.278.645-.167.225.11-.196.333-.42.583-.225.25-.084.75.448.805.532.056.14-.777.392-1.027.252-.25.365.417.448.667.074.22.473.417.891.444-.094.712-.868 3.008-1.132 3.191-.275.19-.014-.163-.316-.204-.301-.041-.343.34-.645.57-.196.152-.224.245-.414.291.168-.208.349-.507.445-.873.253-.955.253-1.53.253-1.53s-.426 1.483-.458 1.545c-.031.063-.06-.203-.377-1.126-.317-.923-.835-3.145-.835-3.145s.329 3.176.66 3.817c.287.555.313.982.11 1.34a4.202 4.202 0 01-.29.008c-.7 0-1.975-1.305-1.975-1.305s.892.993 1.001 1.102c.11.109-.26.312-.26.312s-1.318.027-1.811-.04c-.494-.068-.398-.571-.81-1.02-.412-.45-.247-.531-.233-.749.014-.218-.576-1.047-.81-.938-.233.109-.425.435-.645.557-.22.123.027.749.014 1.252-.013.502-.453.965-.823 1.02-.37.054-.769-.585-1.25-1.02-.48-.435-.671-.49-.754-.286-.082.204-.058 1.21-.228 1.657-.17.448-.79.634-1.373.858-.584.224-1.035-.056-1.223-.205-.188-.149-.132-.037-1.242-.13-1.11-.093-1.053-.373-1.373-.578-.32-.205-.884.242-1.072.354-.189.111-.96-.354-1.223-.448-.263-.093-1.166.205-1.129.317.038.112.376.503.188.653-.188.149-.64-.28-.902-.28-.264 0-.339.54-.32.746.019.204.865.801 1.072.95.207.15 1.448 1.063 1.26 1.399-.188.335-1.617 1.491-2.125 1.827-.508.335-.357-1.604-.357-1.772 0-.168-.414-1.286-.414-1.286s.15 1.212.15 1.38c0 .168.189 2.386-.15 2.442-.339.057-.49-.484-.734-.82-.244-.335.038-.596.038-.596l-.508-.672s-.32.093-.282.168c.038.075.395.522.583 1.082.189.56-.15.932-.131 1.006.019.075.395.13.47.28.075.15-.264.634-.62.69-.358.056-.509-.373-.847-.41-.339-.038-.979.317-1.242.391-.263.075-.263-.335-.602-.54-.338-.205-.94.074-.884.056.057-.019.696.354.584.596-.113.242-.79-.354-.79-.354s.338.522.507.54c.17.02.659.28.659.579 0 .298-.768.399-.949.709-.18.31.35.37.362.655.012.287-.77.74-.77.74s.252-.37.18-.525c-.072-.155-1.107-.143-1.251-.155-.144-.012-.044-.214-.066-.28-.022-.067-.022-.601-.157-.757-.135-.156-.988-.445-1.235-.579-.246-.133-.471 0-.965.112-.494.11-.426.066-.92-.022-.494-.09-1.145.511-.92.867.224.356.875.312.875.312s.246.312.516.4c.27.09.56.356.763.379.202.022.18-.2.247-.223.067-.022.471 0 .74-.111.27-.111.876-.022.943-.022.067 0 1.1.178.898.334-.202.155-.449 0-.539.177-.09.178.337.623.18.802-.158.178-1.437-.09-1.482 0-.045.089-.651 1.246-1.212 1.557-.562.312-1.46-.022-1.46-.022s.898.445 1.392.912c.494.468-.067 1.18-.426 1.49-.36.313-1.347.045-1.347.045-.067.268.606.623.561.98-.045.355-.382 1.156-.337 1.446.045.289 0 1.178-.224 1.178-.17 0-1.451.154-1.972.209.477-.009 1.534.063 1.478.303-.067.29-.898 1.535-1.055 1.736-.157.2-.09 2.558-.09 2.558-.112-.222-1.01-.222-1.01-.222-.853.334-2.065.312-2.065.312.898.378 1.571-.067 2.29-.067.718 0 .875.556.852 1.224-.022.667-.92 1.668-.83 1.58.09-.09.74-.89.853-.846.083.033.252.468.325.837-1.491.502-1.548.614-1.548.614-.854 0-1.23.57-1.24.618-.37.13-1.7.39-.994.44.706.048.994-.245.994-.245s.977-.374 1.24-.585c.19-.153 1.088-.5 1.574-.682.007.068.01.13.007.183-.022.355.27.556.09.979-.179.423-.696 1.246-1.257 1.802-.56.556-.314.178-.606.178s-1.19 1.246-1.145 1.357c.045.111.539.378.988.423.449.045 1.234-.49 1.482-.534.246-.045.92.445.83 1.001-.09.556-.337 1.135-.696 1.446-.28.243-.572.31-.688.328.063.001.172.036.261.229.135.289.674.49.853.378.18-.111.359.356.18.6-.18.245-.517.356-.472.424.045.066.404.289.606.289.202 0 .022.845.067 1.112.045.267.225.69.225.956 0 .268-.292.535-.292.89 0 .356.853.601.808.734-.045.134-.65.712-.65.712l.426.356s.247-.29.539-.467c.291-.178.426.067.449.4.022.334-.18.601.224.957s1.392.044 1.437.579c.045.534-.36 1.601-.494 1.713-.135.11-.045 1.223-.045 1.223.92.267 1.571-1.468 1.571-1.468.045.49.539.244.628.022.09-.223-.449-.846-.112-1.001.337-.156.92.378.92.378-.134 1.357.827 1.682.827 1.682s-.02-.277.224-.352c.243-.074.523.908.523.908s-.093-.778.28-.778c.283 0 .437.403.48.55-.017-.213.062-1.013.062-1.013l.485.333-.299-.555.318-.074s-.373-.167-.448-.222c-.075-.056.184-.167.184-.167s-.251-.19-.391-.548c-.14-.358.586 0 .586 0s.262.42.918.534c.655.115 1.388-.534 1.388-.534s.294.375.182.686c-.112.312.224 1.157.202.846-.022-.312.54-1.113.719-1.224.18-.111.359.534.404.868.045.333-.315-.022-.629 0s.09.579.18.712.134.556.157.912c.022.356.18.4.18.868 0 .468.179.868.448 1.001.27.133.516-.312.629-.801.112-.49.157-.6.47-.935.315-.333.562-.311.607-.422.045-.112-.225-.89-.157-.98.067-.089 2.087 1.914 2.042 1.825-.045-.09-1.683-1.824-1.728-2.002-.045-.178-.045-.512-.112-.846-.067-.333-.674-.912-.719-1.156-.045-.245.315-.557.382-.557s0 .334.022.512c.023.178.606.423.83.378.225-.044.966-.734 1.19-1 .225-.268.158-.802.247-.869.09-.066.449.379.449.379l.382-.09s-.225-.467-.09-.734c.134-.267.381.58.381.58s.045-.157.225-.313c.18-.155-.045.268-.045.268s.449.044.897.044c.148 0 .335.096.517.218a.427.427 0 01-.295.1c-.245-.025-.637-.025-.637-.025s.098.243-.049.291c-.147.049-.245.219-.367.364-.122.146-.22.097-.367.146-.147.048-.025.267-.05.436-.024.17-.464.17-.758.121-.294-.048.343.22.343.364 0 .146-.49.558-.563.753-.074.193.146-.073.416-.194 0 0 .098.436-.098.752-.195.316-.318.68-.318.68s.587-.777.685-.558c.098.218.368 1.043.881 1.043.514 0 .686.195.833.316.146.12.17-.194.245-.267.074-.074.514-.777.636-.753.123.025 1.175.97 1.175.97s-.685-.776-.538-.945c.147-.17.686-.656.686-.656s.293-.097.293.292c0 .388.294.533.294.533s-.195-.63.05-.728c.244-.097.685-.145.88-.243 0 0 .319.656.294.85-.024.193-.587.703-.587.703l.881-.582c.073-.048.22.485.759.485.497 0 .992-.37 1.086-.485-.075.147-.357.836.211.898.661.073.98-.51.98-.825 0-.316-.588-.558-.588-.558s.171-.485.245-.485h.587s-.024 1.796-.049 2.014c-.024.218.465-.85.686-.558.22.291.073.752.073.752s.49-.533.587-.315c.098.218-.097.873-.097.873s.27-.728.587-.728c.318 0 .538-.194.612-.219.073-.024.392.801.367.922-.015.073-.135.295-.256.476.232-.234.574-.53.648-.427.122.17.196.388.27.388.073 0 .269-.291.269-.291l.073.485.22-.437s.344.51.417.46c.073-.048 0-.508.171-.606.171-.097.686-.048.808.049.122.096-.122-.195.024-.486.147-.29.343-.412.563-.533.22-.121.024-.34-.073-.485-.098-.146-.147-.558-.025-.582a1.64 1.64 0 00.245-.073s-.367-.048-.49-.194c-.121-.146-.269-.825-.269-.825s-.024.12-.49.145c-.464.024-.611-.437-.611-.437s-.025.17-.392.22c-.367.048-.71.023-.759.144-.049.122-.147.656-.343.656a5.38 5.38 0 01-.44-.025s-.245-.557-.22-.873c.024-.315-.123-.194-.196-.121-.074.073-.368-.048-.368-.121s-.245-.146-.245-.146.074.17-.122.17a.674.674 0 01-.44-.17c-.074-.072-.123.073-.343.292-.22.218-.538.412-.538.412s-.221-.218-.245-.364c-.025-.145-.147-.485.146-.607 0 0-.514-.34-.514-.436 0-.097-.294-.607-.294-.607s-.049.145-.49.219c-.44.072-.398-.534-.398-.534s-.311.17-.482.291c-.171.121-.465.073-.49-.267-.024-.34-.17-.558-.17-.873 0-.316-.099-.17 0-.364.097-.194-.099-.413-.099-.413s-.342.461-.416.558c-.073.097.44.146.514.534.074.388-.538.46-.832.533-.294.073-.186-.73-.186-.73s-.157.852-.353.876c-.196.025-.416-.218-.49-.218-.073 0-.562.072-.758.097-.196.024.17-.631.17-.631s-.195.315-.636.412a1.006 1.006 0 01-.455-.019c-.05-.251-.105-.545-.105-.74 0-.312.36.11.36.11s-.046-.267-.023-.8c.022-.535.134-.245.472-.334.337-.09.448-.49.448-.49.203.09.225 1.001.292 1.424.067.423.628.445 1.077.312.45-.134.225-.868.247-.98.022-.11.74-.4.763-.622.023-.223-.381-.779-.381-.779s.112-.2.696-.311c.584-.112.516-.134.696-.223.18-.09.382.4.382.4s.045-.556.358-.578c.314-.023.315.467.427.222.112-.244.202-.044.516.067.315.111.83.778 1.01 1.201.18.423.561.334.853.69.292.356.382.646.382.646l.134-.4s.067.177.292.266c.224.09.785-.222.785-.222.068.178-.583.823-.583.823h.246l.067.645s.404.267.607.245c.202-.022.426-.022.56.133.135.156.405.223.382-.022-.022-.244-.18-1.112-.022-1.09.157.022.427.2.718-.022.292-.223 1.1.178 1.1.178s-.47-.423-.426-.445c.045-.022.584-.379.875-.423.292-.045.988.289.988.289s-.134-.133-.134-.356c0-.222.606-.333.763-.267.157.067.763.267.876.156a.675.675 0 01.628-.156c.292.067.247.512.247.512s.067-.178.336-.267c.27-.09 1.571.355 2.155.556.584.2.135 1.38-.045 1.602-.18.222-.785 1.89-1.257 2.403-.471.511-1.01.934-1.077 1.624-.067.69.584.6.898.468.313-.134.808-1.424.875-1.647.067-.222 1.28-2.113 1.706-2.625.427-.512 1.998-.623 2.425-.467.426.156 1.594.667 1.594.667.045.579.808 1.38.852 1.313.045-.067.562-.067.809.044.246.112.291 1.269.291 1.269s.023-.468.158-.69c.134-.223.673.333 1.032.378.36.045 1.46-1.424 1.707-1.535.246-.112.673.423 1.167.868.494.444.943.8 1.033.333.09-.467-.135-1.49-.203-1.802-.064-.315.565-.47.79-.76zm3.518-20.919l.143.043s-.234.196-.422.373c-.464.158-.967.298-.967.298s-.163.343-.183-.081c-.01-.2.691-.44 1.43-.633zM54.951 7.295c.018.075.208.29.147.38-.062.091-.13.298-.288.187-.159-.11-.352-.596-.344-1.414 0 0 .467.771.485.847zm4.23 26.075c-.122.12-.876-.081-.815-.142.024-.024.109-.374.202-.79l.011-.05c.025.07.054.136.084.196-.157.542.632.672.518.786zm14.021 17.895c-.03.102-.31.306-.534.457-.19-.215-.136-.764-.085-1.08.04.026.081.053.122.082.249.172.547.37.497.54zm-2.368-3.439c.086-.57.406-.818.587-.914.033.269.115.568.367.712.471.27 1.092.295 1.19.517.1.22 0 .566-.223.442a.766.766 0 01-.234-.186c.04.081.073.232-.113.383-.16.13-.931.165-1.4.198-.18-.303-.24-.716-.174-1.152zm.228 1.235c.353-.03.907-.076 1.048.064.124.123.083.264.024.395l-.404-.058a.971.971 0 01-.668-.4zm.628 1.753c-.133-.114.031-.357.258-.597-.008.138.01.247.087.236.128-.018.297.044.475.147-.336.507-.545.45-.82.214zM50.955 79.048a.412.412 0 00.095-.098c-.069.06-.117.11-.095.098z"/><path d="M50.996 73.95s.006.043-.002.1c.026-.055.002-.1.002-.1zm-.416-.293c-.513.058-1.705.936-1.57 1.222.136.286.418.03.994-.408.575-.437.545-.465.786-.494.161-.02.201-.595.21-.977-.023.274-.113.622-.42.657zm3.102 8.71a2.02 2.02 0 00-.891-.367c-.664.082-.747.734-.788 1.141-.041.407.373.815.788.856.414.04 1.036-.326 1.12-.53.083-.204.228-.774-.229-1.1zm5.982 3.694s-.664.484-.664.807c0 .323.492 1.107.92 1.13.429.024.793-.207.943-.53.15-.323.214-.784 0-1.015-.214-.23-.77-.6-1.2-.392zm3.386 2.889c-.059.056-.1.1-.1.1s.049-.034.1-.1zm1.9 0c-.005.036.016.07.068.092.067.03.021-.028-.067-.092zm.038-.913l.005-.007c.041-.103.001-.076-.005.007z"/><path d="M65.755 86.795c-.083 0-.137-.224-.357-.448-.219-.223 0-.574 0-.574s-.164-.033-.657-.16c-.299-.078-.336-.237-.331-.316-.062.152-.52-.035-.627.028-.11.064-.33.288-.575.352-.247.063-.083-.32-.22-.32s-.328-.224-.274-.416c.055-.191.156-2.941.156-2.941-.113.923-.314 2.409-.344 2.626-.05-.096-.473-.384-.688-.356-.246.033-.22-.223-.22-.223s-.246.127-.437.48c-.192.35-.22.35-.137.702.082.352.164.16.137.511-.028.352.137 1.087.164.959.027-.128.164-.416.328-.288s.192.735.192.735.192-.351.192-.096c0 .256.41.927.41.927s-.027-.48-.027-.735.41-.064.657-.064c.246 0 .028.32.164.735.08.244-.037.421-.148.526.14-.098.343-.232.477-.27.22-.064.41.734.41.734l.22-.191c.12-.104.303.103.42.288a.427.427 0 01.347-.384c.328-.064.657.48.465.191-.192-.287.11-.575.137-.799.028-.223.411-.191.411-.191l-.329-.64c.001.001.166-.382.084-.382zm9.295-5.745c-.053-.066-.1-.1-.1-.1s.053.084.1.1z"/><path d="M74.996 81.034c-.041-.373-.453-1.322-.659-1.457-.205-.136-.39-.577-.39-.577s-.392.102-.536.577c-.144.474-.411.542-.411.542s.247.271.247.78c0 .224-.08.27-.17.251.125.098.263.241.314.426.103.373-.103 1.051-.103 1.051s.185-.135.514-.271c.33-.136.206.305.247.407.041.102.206.17.247.034.041-.135.206.203.206.203s.103-.034.185-.17c.083-.135.35-1.424.309-1.796zm14.519-6.291c.258-.152.387-.101.387-.101s-.129-.126-.161-.352c-.032-.226-.032-.579.161-.579.194 0-.549-.302-.387-.578l.16-.277s-.354.05-.71-.226c-.355-.277-.71-.604-1.033-.629-.324-.025-.743.277-.743.277s-.485.05-.517-.2c-.032-.253 0 .452.161.477.162.025.065.855.13.93.065.076-.678-.125-.905-.226-.226-.1.227.377.97.302 0 0 .258.704.065.855-.195.151-.42.176-.42.176s.71.176 1.098.1c0 0 .29.805.485.78.194-.025.161-.578.646-.377C89.386 75.296 90 76 90 76s-.744-1.106-.485-1.257zm-17.59 22.482s-.345-.703-.662-.97c-.317-.267-.778-.34-.979-.146-.202.194-.46.606-.115 1.067.346.46.547.485.922.582.374.096.431.242.431.242s.086-.34.346-.485c.259-.144.057-.29.057-.29zm4.779-14.68A32.051 32.051 0 0075.493 82s-.173.743-.403.941c-.232.199 0 .545.519.842.519.297 1.038.247 1.269.1.23-.15.114-1.19-.174-1.338zm4.453-12.525a1.42 1.42 0 00-.51.007c-.447.087-.72.464-.63.837.031.128.064.244.091.302.084.173.629.834 1.007.834.378 0 .839-.487.88-.868.043-.382-.21-1.008-.838-1.113zm1.303-5.981c-.507-.269-.349-1.122-.57-1.033-.223.09-.953.36-1.207.763-.254.404-.445-.18-.445-.18s-.064 1.436-.158 1.526c-.096.09-.985.09-1.08.09 0 0 1.016.269 1.206.539.19.269 0 1.256 0 1.256s.476-.045.92-.449c.446-.403.953-.493 1.334-.897.382-.404.54-1.66.54-1.66s-.032.315-.54.045zM77.453 63l-.453.774S78.245 65 78.849 65c.604-.001-.755-.194-1.396-2z"/><path d="M80.99 65.046c-.172-.01-1.99-.096-1.99-.096.228.106 2.16.106 1.99.096z"/><path d="M80 65c.473 1.508 2.128 2.225 1.992 1.938C81.858 66.65 80 65 80 65zm7.93 2.908c-.435-.361-2.034-2.14-1.925-1.883.652 1.52 2.36 2.245 1.925 1.883zm-2.161-6.92c.165.027.016-.652.082-.76.066-.11.149-.136.149-.136s-.248-.11-.248-.435.05-1.06-.083-.95c0 0 .166.625-.115.598-.282-.028-.331-.218-.513-.218-.183 0-.183.435-.447.163-.265-.272-.679-.788-.811-.924-.132-.135-.265.3-.331.19-.066-.109-.397-.516-.447-.516-.05 0 .281.326.265.598-.017.272-.182.434-.232.57-.05.136.364 1.413.38 1.549.017.135-.198.543-.165.897.033.353.067-.734.331-.68.265.055.315.544.48.462.166-.081.182-.434.447-.407.265.027.413.163.397.326l-.064.685c.01-.112.074-.63.296-.63.248 0 .43.216.43.216s.033-.625.199-.598z"/><path d="M84.003 59.981a1.373 1.373 0 00-.006.038l.006-.038zM84.02 54c.037-.292.037-1.164.016-1.747-.02-.582-.042-.073-.078.655-.036.729.062 1.092.062 1.092zm2.845-3.52c.178.317.712.555.941.516.229-.04.203-.556.178-.833-.025-.278-.23-.714-.56-.993-.33-.278-.305-.159-.636-.04-.33.12-.788.636-.788.636s.178.199.356.238c.178.04.33.159.51.476zm-11.831-1.43c-.033-.062-.069-.1-.069-.1s.016.04.07.1zM48.766 87.414c-.107-.175-.187-.35-.187-.35s-.187.326-.294.3c-.107-.024-.322-.249-.429-.349-.107-.1-.187.325-.294.5-.107.175-.134.4-.295.475-.16.075-.267.326-.267.326s.16-.15.294.225c.135.375.135.2.135.375s.321.026.455 0c.134-.025.349 0 .349 0s-.027-.225.401-.35c.429-.125.375-.5.349-.675-.03-.176-.11-.302-.217-.477zm.211-1.421c-.031.017-.038.047-.007.052.031.005.08.013.08-.02 0-.032-.045-.075-.045-.075s.003.027-.028.043zm.945-3.365a8.903 8.903 0 01-.914-.628v.314c-.083.628.498 1.608.498 2.196 0 .588.665 1.49.665 1.49l.11-.353c.111-.352.277-.04.527-.117.249-.079.222-.667.11-1.177-.11-.51-.664-1.53-.996-1.725zm-5.399-.346c-.884.233-.38 1.52-.38 1.52s1.074.352 1.58.117c.505-.233.19-1.286.063-1.696-.126-.409-.38-.174-1.263.06zm-1.15-3.279c-.398.032-.625.032-1.023.633-.398.601-.541 1.17.028 1.297.569.126.91.063 1.052-.095.214-.238.597-.886.568-1.266-.028-.379-.227-.6-.625-.57zm2.519-1.969c-.452.23-.521.547-.973.748-.438.195-.713.822-.919 1.122l.433.027c.451.03 1.076.202 1.215-.143s-.278-.46-.347-.719c-.07-.258 1.042-1.265.59-1.035zm-1.904 3.988l.024-.042-.024-.002v.044zm11.536.945c-.34-.028-1.524-.012-1.524-.012l.113.027s.564.056.846.064c.282.008.734.004.96-.024.226-.027-.056-.027-.395-.055zM10.942 39.424a.56.56 0 01.105.576c.259-.091.193-.378.455-.465.076.095.23.158.39.191a.696.696 0 00.348-.001c.105-.036.164-.131.09-.19.204.127.448.228.713.294.136-.134.238-.282.303-.435.206.057.44-.06.52-.193.08-.133.069-.281.134-.417a3.396 3.396 0 01-.654-.072.587.587 0 00.223-.336c-.025.13-.473.169-.62.157-.24-.02-.54-.524-.77-.533-.213-.008-.245.459-.468.447-.32-.018-.691-.191-.979-.28-.117.092-.118.234-.005.328.1.083.291.16.23.258-.057.09-.26.078-.41.056-.148-.022-.363-.01-.38.086.176.06.38.086.58.073.072.18-.124.384-.41.427-.114.017-.243.012-.337.056.082.096.292.117.459.09.167-.026.316-.088.483-.117zm.036-6.412zm-1.644.434c.085-.04.363-.167.687-.303.676-.012 1.457-.011 1.61.05.325.127.013.613.313.533.301-.081.361.011.506.162.144.15.204.37.734.417.529.046.348.66.781.695.433.035.374.475.301.684-.072.208.169.416.229 0 .06-.417-.133-.522-.084-.684.048-.162.577.382.661.463.084.081.013-.614.29-.428.276.185.42.255.973.278.554.023 1.023.104 1.18.162.156.058.42.648.48.73.06.08-.192-.637-.084-.626.109.012.602.024.758.197.157.174.18.278.374.29.192.012.228.092.24.44.012.348-.072.487-.156.58-.084.092.313.162.336.462.025.302-.204.36-.168.719.036.359.288.475.445.52.156.047.192-.023.409.093.217.116-.205-.081.361 0s.506.105.325-.07c-.18-.173-.337-.335-.229-.544.109-.209.084-.058.012-.336-.071-.278.013-.266.085-.347.072-.081.035-.267.192-.348.156-.081.156-.266.276-.406.121-.139.385.07.374.244-.012.173-.18.3-.289.208-.108-.092.048.29.132.545.084.255.289.255.433.347.144.093-.12-.208-.192-.52-.072-.313-.084-.337.235-.487.249.008.258.017.604.152.345.135.486.216.597.953.113.738.159.945.197.486.037-.459-.327-1.286-.216-1.51.113-.226.178-.028.337-.154.158-.126.233-.404.476-.413.243-.01.71-.081.589-.108-.122-.028-.365.018-.355-.153.01-.171.158-.153.336-.324.177-.17 0-.225.336-.144.336.081 1.71-.09 1.065-.08-.645.009-.187-.063-.262-.252a.58.58 0 00-.317-.315c-.075-.027.168.279.028.423-.14.143-.597.018-.7-.117-.103-.135-.02-.648.028-.774.046-.126.196-.53.168-.513-.028.018-.233.018-.309-.08a.525.525 0 00-.42-.19c-.196 0-.392-.341-.308-.476.084-.135.018-.63.121-.764.103-.135.243.251.393.494.15.243-.038-.27-.01-.395.029-.127.888-.216.44-.225-.449-.01-.542.333-.514-.045.028-.378.196-.36-.094-.612-.29-.251-.775-1.07-.803-1.349-.028-.279-.103-.521.14-.53.243-.01 1.018.161 1.28.395s-.206-.584-1.401-.639c-.019-.764.374-.881.392-.665.02.215.224-.19.3-.27.074-.081.196.315.252.054.056-.261-.271-.297-.168-.414.102-.117.308-.324.018-.737-.29-.414.701.063.739-.252.037-.315-.44-.333-.739-.53a.887.887 0 01-.373-.864c.046-.306.878-.36.401-.576-.477-.215-.309-.324-.757-.513s-.43-.422-.28-.746c.149-.324.308-.333.326-.782.02-.45.879-.693.402-1.053s-.588.08-.598-.405c-.01-.485.523-.647.495-.962-.028-.315-.252-.378-.551-.09-.3.288-.271-.216-.533-.153-.261.063-1.046.234-.897.468.15.234.542.27.327.306-.215.036-.654.072-.84-.063-.188-.135-.57-.1-.487-.432.084-.333.206-.639-.093-.935-.3-.297-.402-.675-.523-.351-.122.324-.486.162-.44.018.047-.144 1.02-1.187.972-1.817-.672.963-1.037 1.727-1.214 1.646-.178-.08-.411-.575-.215-.845.196-.27.747-.513.401-.846-.345-.332.122-.494-.364-.62-.486-.127-.346.251-.215.368.13.118.158.396.056.63-.103.234.037.567-.122.774-.159.207-.365.162-.71-.01-.346-.17-1.159-.386-.906-.665.252-.279.747-.468.457-.512-.29-.045-.644 0-.803-.225-.159-.225-.598-.414-.551-.557.046-.144.084-.567-.075-.243-.159.323-.075.45-.327.45s.15-.477-.065-.306c-.215.17-.206.504-.43.324s.355-.702.066-.441c-.29.26-.253.35-.374.135-.122-.216-.458-.288-.449-.531.01-.243.168-.477-.028-.315-.196.162-.046.19-.495.171-.448-.018-.681.018-.85.027-.168.01-.42-.17-.093-.243.327-.071.664.127.393-.143s-.645-.18-.85.054c-.206.233-.458-.225-.43 0 .028.224.112.27-.019.368-.13.1-.645.324-.672.37-.028.044-.103-.172-.187-.01-.084.162-.42-.09-.477.01-.056.098-.345.152-.373.152-.029 0 .074-.584.074-.54 0 .045.336-.535.263-.473 0 0-.384.301-.47.626-.3.011-.914-.719-.805-.499.108.22.191.278-.013.325-.204.046-.42-.197-.553-.325-.133-.127.024.302 0 .452-.024.151-.89.047-.493.14.397.092.253.474.168.509-.084.034-.432.07-.697.602-.47-.811-1.78-2.085-1.408-1.471.373.614 1.54 1.367 1.263 1.599-.276.231-.974.567-1.456 1.123-.48.556-.3.892-.313 1.217-.012.324-.18.312-.18.799 0 .487.205.776-.313.51-.517-.267-.902-.151-.746.15.157.301.794 1.054.806 1.517.013.464-.264.765-.324.811-.06.047.457.07.397.174-.06.104-.24.243 0 .22.24-.024.205-.012.205.255 0 .266.216.336.144.648-.073.313-1.011.684-.782.684.373-.012.686.127.77.359.084.232.169.545-.397.8-.565.254.542-.013.686 0 .144.01.517.52.385.769s.3-.017.625.353.878.823.41 1.147c-.47.324-.82.742-.266.73.554-.012 1.071.07 1.348.313.276.243.782.52.926.579.144.058.12.278-.108.36-.229.08-.975.045-1.36.115-.385.07 1.095.046 1.54.14.445.092 1.696.173.554.381-1.143.209-1.998.522-1.107.37.89-.15 1.827-.3 1.575-.138-.138.089-.633.379-1.063.627a8.035 8.035 0 01-.838.091c-.483.023.022.001.701-.012-.247.142-.456.26-.528.299zm1.948-.729c.188.022-.3.17-.935.29.406-.164.805-.305.935-.29zM5.05 14.05a.442.442 0 00-.1-.1.447.447 0 00.1.1zm-1.001-.02v-.008l.001-.024c0-.015-.005-.015-.014-.022-.007-.005-.012-.014-.02-.02-.01-.007-.021-.007-.033-.005-.008.002-.023.005-.03.013-.004.006-.006.014.004.015-.002.005-.004.01-.004.015.001 0 .003.003.005.003v.013c.003 0 .006.003.007.007 0 .004 0 .009.002.013.003.004.008.005.013.005.004 0 .01-.002.013 0 .008.003.012.014.02.015l.01-.003a2.111 2.111 0 01.026-.017zm-2.106.002c-.124-.124-.296.15-.408.2-.165.072-.338-.038-.504-.048-.192-.012-.376.102-.564.157-.107.031-.22.045-.317.121a.436.436 0 00-.144.4c.023.12.1.2.18.236.08.037.164.04.245.064.014.003.03.01.036.029.007.02 0 .042-.007.06-.07.202-.142.404-.213.605.313.128.641.171.965.128a.422.422 0 00.214-.075c.056-.042.102-.109.149-.173l.314-.447c.044-.063.089-.175.04-.232-.08-.095-.105-.058-.073-.242.02-.118.074-.214.104-.324.034-.122.077-.366-.017-.46zm5.035-.011c.006.009 0 .02-.005.029.01 0 .02-.002.03-.005.024-.009.047-.03.047-.056 0-.03-.058-.047-.08-.035a.039.039 0 00-.02.034c.001.024.018.019.028.033zm-2.021 6.986c.016.012.035.02.048.035l.005.005a.015.015 0 00.018 0 .036.036 0 00.013-.014c.01-.018.02-.087-.016-.083-.013.002-.024.021-.036.026-.01.004-.046.005-.038.024a.018.018 0 00.006.007z"/><path d="M6.97 20.32a.479.479 0 00-.022-.386.705.705 0 00-.14-.157l-.583-.53c-.1-.092-.205-.185-.334-.228-.35-.113-.48.304-.688.497-.113.104-.224.244-.2.398.021.132.136.226.193.345.1.204.04.48.198.641.12.123.322.12.483.059.161-.061.302-.167.461-.23.042-.018.093-.03.13-.007.026.016.041.045.066.062.082.061.188-.035.247-.12.071-.106.147-.217.19-.344z"/><path d="M5.278 20.964c.181.008.321.018.471.028.358.023.783.043 1.251.058a1.553 1.553 0 00-.292-.036 59.855 59.855 0 00-1.272-.054c-.067-.002-.364-.013-.422-.01-.082.006.22.013.264.014z"/><path d="M4.96 21.05c.013-.01.02-.02.022-.031.002-.01 0-.02.014-.025.006-.003.014-.004.021-.006.013-.002.025-.007.03-.014.006-.007.003-.016-.008-.02a.081.081 0 00-.046-.001c-.014.003-.028.008-.043.01l.005.005a.26.26 0 00.006.082zm.01-3.011c.003.003.005.006.01.009.016.006.038-.002.048-.011.027-.024.03-.053.007-.078a.021.021 0 00-.01-.006.053.053 0 00-.02-.003c-.02 0-.04.004-.055.01l.006.003a.105.105 0 00.015.076zm1.997 2.991c.02.01.04.017.061.02.006 0 .013 0 .017-.006.007-.01.005-.03.002-.044a.226.226 0 00-.018-.05l-.017.042v.016a.413.413 0 00-.062-.003c0 .014.01.021.017.025zM6.73 30.4a1.37 1.37 0 00-.193-.152 23.845 23.845 0 01-.198-.137c-.078-.055-.198-.132-.29-.106-.138.04-.104.164-.196.245-.181.161-.305-.104-.498.016-.127.08-.29.496-.33.653-.09.333.077.556.29.736.234.198.504.369.787.342.247-.024.468-.195.677-.362a.56.56 0 00.125-.123.553.553 0 00.076-.203c.066-.33-.036-.7-.25-.91zm-2.226 1.577l-.084-.012c-.134.006-.282-.006-.422-.011a6.381 6.381 0 00-.215-.004c-.391-.001-.762.027-.782.059-.002.002-.002.005.016.008.016.002.043.003.068.004.36.018.77.027 1.186.029a7.9 7.9 0 00.652-.018c.097-.012.103-.028.013-.039a3.638 3.638 0 00-.432-.016zm.513-6.009c-.02-.01-.042-.022-.064-.017l-.003.018a.18.18 0 01.032.063c.001.007.004.016.013.018.005 0 .01-.002.015-.004.02-.01.042-.023.04-.042-.001-.016-.018-.027-.033-.036zm8.173 9.125c-.262-.02-.69-.248-.895.093-.051.084-.078.196-.118.292-.04.097-.103.185-.177.178a.62.62 0 00.289.481c.136.09.287.15.392.314.041.065.073.143.114.208.096.15.231.216.36.275.084.039.17.077.256.063.16-.028.282-.227.381-.425.124-.246.24-.546.2-.852-.077-.584-.503-.605-.802-.627zM12.006 33a.881.881 0 00.113.53c.085.156.2.285.311.414.25.29.48.697.766.931.16.13.678.209.79-.024.04-.087-.012-.193-.063-.27l-.324-.51a1.582 1.582 0 00-.278-.357c-.062-.053-.131-.095-.187-.157a.306.306 0 01-.084-.242A8.11 8.11 0 0112.006 33zM14 38.985c.092.037.207 0 .283-.054.075-.054.129-.122.214-.166.164-.087.386-.06.59-.058.253.002.506-.043.73-.13l-.515-.075c-.095-.014-.195-.03-.262-.081-.118-.09-.074-.237-.022-.356l.096-.219c.015-.034.033-.071.073-.092.035-.02.08-.023.124-.028.382-.045.69-.313.689-.596a.129.129 0 00-.018-.074c-.063-.092-.252-.054-.376-.003l-.36.043-.737.829c-.026.03-.054.06-.062.095-.01.038.006.078.017.116.09.316-.1.665-.464.85zm2.014-.783c-.015.289-.024.597-.035.895-.006.181-.01.783-.029.903a8.35 8.35 0 00.078-.986c.004-.15.006-.3.008-.451.003-.123.015-.32.014-.434-.004-.248-.028-.09-.036.073zm1.771 6.878l-.255.053c-.324.222-.426.593-.51.934-.014.063-.03.127-.012.19a.427.427 0 00.113.164l.205.218c.108.115.22.232.373.303.153.071.36.085.496-.005.116-.078.156-.206.24-.308.12-.141.322-.222.447-.36a.467.467 0 00-.073-.685c-.063-.049-.138-.087-.197-.138a.369.369 0 01-.099-.446c-.236.052-.483.08-.728.08zm7.039-.482c-.112-.058-.27-.081-.421-.105a11.067 11.067 0 01-.667-.125 1.459 1.459 0 01-.4-.131c-.076-.044-.129-.1-.207-.142-.25-.138-.681-.11-.996-.018-.313.092-.575.234-.902.31-.072.017-.15.033-.193.068-.043.034-.04.08-.034.12a.43.43 0 00.114.25c.104.109.29.185.447.273.4.228.637.47 1.249.536.242.026.454.048.667.123.232.08.48.284.798.236a.518.518 0 00.328-.195c.224-.264.356-.55.39-.84.013-.127-.003-.27-.173-.36z"/><path d="M22.744 44.584c-.185-.025-.362-.136-.515-.31-.153-.173-.246-.39-.43-.2-.307.318-.514.94-.67 1.462-.06.202-.118.413-.127.64-.011.248.036.491.083.728.059.293.13.614.294.758.142.125.313.081.473.07.16-.012.346.038.43.268.21-.142.33-.52.389-.888.058-.368.074-.756.166-1.105.04-.152.093-.293.124-.45.04-.205.04-.426.039-.641 0-.061 0-.126-.018-.18-.042-.13-.15-.141-.238-.152zM49 25.751c.212-.063.436-.088.657-.074-.029.142-.059.288-.032.432.026.143.123.284.272.328.088.026.184.017.274.033.14.027.263.12.318.243.027.062.037.135.003.193a.335.335 0 01-.121.106l-.454.282c.222-.051.454-.07.682-.051a.46.46 0 01.085.382 1.383 1.383 0 01-.148.375c.262-.062.366-.352.572-.515.019-.015.041-.03.067-.029.024.001.045.017.064.032l.23.186a.591.591 0 00.144-.203c.134.038.274.055.414.05.09-.003.197-.026.231-.104.025-.056.002-.119.015-.177.023-.109.15-.165.26-.205l.467-.168a3.56 3.56 0 01-.48-.05.148.148 0 01-.074-.027c-.032-.029-.027-.077-.03-.118-.01-.16-.159-.278-.303-.365-.228-.139-.399-.261-.39-.535.005-.178.08-.371.04-.55-.119-.511-.825-.272-1.179-.44a.942.942 0 01-.232-.176L49.703 24l.584.874c-.374.11-.587.49-.948.633-.138.056-.324.105-.339.244zm10.487 6.051c.21-.024.299-.072.457-.58.159-.51-.052-1.041-.246-1.186-.194-.145-.37.196-.458.207-.088.01-.497-.283-.65 0-.135.248-.792.906-.528.857.264-.048.528.739.528.866s.686-.139.897-.164zm-1.486.241c.086.038.033-.093.033-.093-.09.02-.118.055-.033.093zm7.709 1.007c1.163-.003 1.759-.062.843-.089-1.752-.05-2.005.092-.843.089zm8.337 3.989c.021-.042-.09-.089-.09-.089-.036.047.07.13.09.089zM70.7 38s-.747.574-.698 1.372c.05.797.998.573 1.252.414.254-.16.493.383.693.16.199-.224-.15-1.723-1.246-1.946zm8.325 7.958c2.087.073 2.3.104 2.876.087.577-.016 1.15-.023 1.095-.044-.054-.02.17-.07-.544-.043-1.111.042-3.736-.031-3.427 0zm-.798 2.292c.04.323.316.138.783-.093.467-.23 1.662-.862 1.834-.985.172-.123.295-.26-.155-.099-.8.287-2.112 1.007-1.84.777.271-.231 1.017-.802.528-.586-.49.216-.82.47-1.177.628-.358.158-.874.45-1.162.99-.288.538 1.148-.956 1.189-.632zm2.822 2.797c.01-.021-.04-.097-.04-.097-.149.026.03.118.04.097zm.997-.047c.027-1.562-.095-2-.095-2-.014 1.322.095 2 .095 2zm-5.093 2.003c.013.04.058.061.085.036.027-.025 0-.075 0-.075-.055-.033-.1-.001-.085.04zm7.074.041c.06-.026-.014-.12-.049-.087-.061.057-.012.112.049.087zM76.515 58.2c-.907.77-1.456 1.202-1.513 1.671-.057.47.999-.47 1.513-.836.514-.366.767-1.486 0-.836zM78.95 68s.1 2.662.096 1.844c.01-2.253.01-1.599-.096-1.844zM83 75a37.72 37.72 0 00-4-2 37.72 37.72 0 004 2zm-6-3a7.438 7.438 0 002 2 7.419 7.419 0 00-2-2zm.05 2a39.633 39.633 0 00-.1-2c.023.792.057 1.482.1 2zm.925-3.99c.337.016.674.03 1.025.04a54.895 54.895 0 00-2-.1c.307.026.642.042.975.06zM80 77c.472.765 1.155 1.45 2 2-.469-.766-1.157-1.449-2-2zm-.027-5.049c-.55.005-1.035.014-.966.064.002.002.007.004.019.006a.895.895 0 00.08.007c.317.02.781.014 1.183.02.044.002.09.002.133.002.042 0 .08-.003.113-.005A2.08 2.08 0 0081 71.98a12.244 12.244 0 00-1.027-.029zm9.057 3.024l-.062-.024-.008-.001-.008.032c-.002.008-.004.016.004.022l.013.008c.01.008.002.02.008.028.008.014.043.013.057.001.015-.011.016-.027.016-.042 0-.006 0-.012-.006-.017a.037.037 0 00-.014-.007zM68.046 82c.016-.684-.016-1.38-.092-2-.016.684.015 1.38.092 2z"/><path d="M68.028 82.05c.043-.034.022-.073-.055-.1-.045.034-.023.073.055.1zM65.023 82c-.078.66-.094 1.334-.046 2 .078-.66.094-1.334.046-2zm.025-3a14.81 14.81 0 00-.095 2c.07-.652.106-1.323.095-2zm-1.998 1c-.06.566-.092 1.28-.1 2 .057-.586.088-1.274.1-2zm0-5a20.36 20.36 0 00-.1 2c.064-.623.098-1.314.1-2z"/><path d="M63.023 82.046c.002.002.004.004.006.004.004 0 .007-.003.009-.006.035-.052-.013-.112-.064-.089-.069.031.03.07.05.09zm-.939-5.096a5.95 5.95 0 00-.254.006c-.062.003-.094.008-.155.01-.181.01-.454.006-.605.02-.123.01-.065.028.03.039.17.02.521.028.89.024.44-.004.828-.025.964-.05.2-.035-.29-.052-.87-.049zM58 79a25.064 25.064 0 002-4 25.12 25.12 0 00-2 4zm2-2c-.8.61-1.476 1.284-2 2a9.815 9.815 0 002-2zm-4.05 5.047v.003h.002l.012-.004c.055-.025.085-.059.086-.096-.063.023-.094.06-.1.097zM56.021 77a10.512 10.512 0 00-.042 2c.077-.645.092-1.337.042-2zm-.045-2.95c.077-.027.096-.067.048-.1-.076.027-.096.067-.048.1zm.024 1c.067-.031.066-.069 0-.1-.066.031-.067.069 0 .1zm-3.05 0a.199.199 0 00.1-.1.2.2 0 00-.1.1zm-1.97 0c.077-.03.09-.067.04-.1-.077.03-.091.067-.04.1zm7.061 5.97c-.015-.012-.032-.02-.046-.033-.008-.009-.02-.032-.03-.036-.028-.01-.009.089-.005.09.025.01.053.012.08.003.004-.001.01-.004.01-.01s-.004-.011-.009-.014zm-3.991-2.07c-.005.008-.044-.004-.056.005-.013.01-.019.037-.029.051-.004.007-.01.013-.012.02-.003.008-.004.017 0 .024a.372.372 0 00.097-.1zm-12.055-.183c.003.073.005.24.015.233.007-.006.02-.271.025-.334.005-.084.011-.17.014-.272a4.16 4.16 0 00-.005-.332l-.004-.067-.004-.103-.024-.892a60874.96 60874.96 0 00-.005.876 1.01 1.01 0 01-.01.098l-.047.344c.012-.069.04.359.045.449zm-1.964.216l-.018-.024c-.005-.006-.012-.012-.018-.007-.004.004-.006.015-.012.013v-.006a.035.035 0 00-.028.017.037.037 0 000 .036.041.041 0 00.012.012.21.21 0 00.042.022c.012.005.027.007.036-.004.006-.008.006-.021.003-.032a.085.085 0 00-.017-.027zm3.966.067l.002-.002.017-.013.011-.01c.009-.007.018-.015.021-.026.014-.05-.051-.058-.079-.041-.046.028.002.055.02.085.001.004.005.008.008.007zm-9.832-.793c0 .063-.5.095-1 .08-.501-.017.274.508.575.365.3-.143.426-.048.426.095 0 .143.476.43.325.573-.15.143-.725.261-.775.433-.05.17.025 1.617.3 1.077.275-.54.026-.795.2-.795.175 0 .1-.257.3-.462.2-.206.401-.476.301-.747-.1-.27.126-.159.176-.413.05-.255-.176-1.463-.176-1.463-.752.78-.652 1.193-.652 1.257zm-2.889-1.307c-1.437.005-1.624.04-.742.079.882.039 1.624.02 1.437-.024-.184-.045-.695-.055-.695-.055zm-5.142-.665c-.364.475.145 1.466 0 2.073-.145.609.545.943 1.018.273.472-.67.691-.754.8-.95.109-.195 0-2.681 0-2.681-.727.614-1.454.81-1.818 1.285zm-.634 2.76c-.917-.141-.959.062-1.146.447-.188.385-.458 1.2-.312 1.403.145.204.833.113 1.312-.294.48-.407.646-.61.646-.973 0-.362-.5-.583-.5-.583zM31.98 82c0 .975.026 1.765-.03 2 .121-.218.098-.672.098-1.143 0-.47-.069-.857-.069-.857zm6.364 1.29c-.218-.39-.6-1.437-.765-1.273-1.749.42-2.049.898-2.158 1.377-.109.479-.737.868-.218 1.436.52.569.465.988.437 1.407-.028.419.52.763 1.066.763s.82-.374.874-.748c.054-.374.437-.898.6-1.077.164-.18.137-.374.438-.666.3-.291.546-.276.245-.456-.3-.18-.3-.375-.519-.764zM39 81.95c-.008.002-.012.01-.018.015-.042.038-.049.096.019.083.077-.014.053-.106 0-.097zm.032-1.068c.009-.238.018-1.108.018-1.68 0-.573-.11.167-.1 1.077.01.757.073.84.082.603zM23.01 84.071c-.073 2.353-.087 2.399 0 .97.09-1.432 0-.97 0-.97zm-4.004-.048c.065-.047.039-.073.039-.073-.135.11-.105.12-.04.073zm1.884-9.615c-.242-.384-.253-.512-.631-.917-.379-.406-1.005-.491-1.005-.491-.929.235-1.252.576-1.413 1.173-.162.598-.526.576-.626 1.131-.101.555.101.384.161.725.06.341-.722 1.13-.19.768.534-.363.534-.134.735.093.203.227.465.056.869-.093.404-.15.747-.043 1.212-.47.465-.426 1.232-.724.93-1.108-.305-.385.2-.427-.042-.811zm-5.325.667c-1.143.453-1.67 2.025-1.548 1.92 2.003-1.362 2.428-2.269 1.548-1.92zm.104 2.068c-1.552 1.44-2.334 2.39-.954 1.53 1.38-.862 1.563-2.095.954-1.53zm8.635-3.181c-.271-.038-.696.024-.696.039-1.122.015-.503.042.348.044.85.003 1.044.015 1.044-.017 0-.033-.696-.066-.696-.066zm-1.254-2.641c0-.415-.047-1.321-.047-1.321l-.028.264c-.028.264-.039.83 0 1.736 0 0 .075-.264.075-.679zm-2.709-1.127c-.632-.337-.791-.253-1.186.393-.395.646-.047 1.094 1.186 1.376.246.056.659.112.659-.337 0-.45-.026-1.096-.659-1.432zm-1.339-.153c.048.045.048-.091.048-.091-.153.013-.097.046-.048.091z"/><path d="M19.029 69.95c-.06.017-.127.11-.031.099.095-.012.03-.099.03-.099zM21 66.264L20.484 66C18.98 66.943 19 68 19 68c1.485-2 2-1.736 2-1.736zM22.991 66c-1.903 1.014-2.11 2.095-1.945 1.993C23.242 66.777 22.99 66 22.99 66zm-5.831 1.198c.04-.105-.357-.209-.357-.209.673-.417.535-.343.783-.536.247-.193 1.06-.908 1.264-1.147.206-.238.232-.47-.124-.149l-1.14 1.028-.29-.134c-.027.327 0 .461 0 .461-.659.358-1.277.872-1.277.872-.412.067-.838.648-.838.648-.44.327-1.112.461-1.181.968.728-.238.797-.506 1.154-.715.357-.209 1.03-.864 1.099-.9.069-.038.48-.366.907-.187zM13.244 66c-1.6.504-1.268 1.21-1.086 1.463.09.588.18.655.694.386.514-.268.906-.084 1.117-.848.21-.766-.725-1.001-.725-1.001zm.34 4.127c-1.71.678-1.874.827-1.874.827h-1.085c.706.106.923.332.923.332-1.086.325-1.548.707-1.548.707.923.106 3.204-.97 3.584-1.216.38-.247.706-1.095 0-.65zm5.366-3.096l.093.019.007-.077c-.076-.075-.1.058-.1.058zm-.963-5.339c.065-.153-.132-.692-.132-.692-.775.692-1.963 2-1.847 2 1.154-.307 1.913-1.153 1.979-1.308zm-.258-3.733c-1.04-.017-2.081-.015-1.614.05.466.065 1.005.039 1.614.013.61-.027 0-.063 0-.063zm1.266.637c-.046-.637-.163-.478-.537-.584-.373-.106-.91.505-1.33.824-.42.319.327.398.32.717-.008.319.077.72 1.01.186.278-.16.584-.504.537-1.143zm-.727-5.752c.583-.411.886-.411.653-1.046a1.41 1.41 0 00-.51-.667.652.652 0 00-.485-.124c-.804.126-1.223.158-.684.95.583.856.444 1.3 1.026.887zm-.302 1.196c.001.007.011.012.02.01.008-.003.014-.01.02-.015.005-.006.011-.013.02-.015.003 0 .006 0 .01-.002.01-.003.015-.015.014-.025a.069.069 0 00-.013-.029c-.02-.026-.056-.014-.067.016 0 .002-.002.005-.005.004l-.002-.001c-.003-.002-.008 0-.01.003s-.002.008-.003.012c0 .008 0 .018.006.023.003.002.007.003.008.006.003.004.001.008.002.012zm-1.991.009h.008c.005 0 .01 0 .014-.004.005-.003.008-.008.011-.012a.042.042 0 01.028-.016c.003 0 .006 0 .009-.002.004-.003.006-.01.005-.015l-.008-.014c-.012-.015-.027-.05-.047-.03-.008.008-.011.02-.022.026-.002.002-.024.006-.023.01.004.016.019.027.02.043.002.005.001.011.005.014z"/><path d="M18.048 50.994a.047.047 0 00-.018-.035c-.008-.007-.02-.013-.03-.006-.007.006-.002.017-.007.022-.006.008-.025.005-.033.007-.005.002-.009.005-.01.01 0 .005.002.01.006.013a.038.038 0 00.013.006l-.004.004c.014.001.026.012.037.02.012.01.026.018.04.014.008-.002.009-.024.008-.03a.16.16 0 01-.002-.025z"/><path d="M17.09 50.971c-.207.01-.014.02.138.03.257.018.55.03.837.041a4.664 4.664 0 00.874-.032c.03-.003.062-.007.061-.012-.001-.004-.024-.007-.047-.01a5.195 5.195 0 00-.485-.035c-.316-.01-.47.007-.746.015-.193.006-.453-.005-.632.003zm10.876-19.933c-.027.177-.013.916-.008 1.177a6.6 6.6 0 00.04.726c.005.035.01.06.017.059.01-.001.019-.071.025-.155.01-.154.012-.357.008-.542a16.493 16.493 0 00-.019-.525c-.01-.214-.03-.953-.063-.74z"/><path d="M28.034 33.02c.016-.016.023-.035.007-.051-.016-.016-.062-.025-.091-.014l.001.008c-.002.03.014.06.045.087a.165.165 0 00.038-.03zm4.001-.07a.112.112 0 00-.059.032l-.026-.028v.067c0 .011.002.025.01.028.006.003.013-.002.018-.007l.05-.043c.01-.009.022-.02.022-.035 0-.004-.001-.01-.004-.012s-.007-.002-.01-.002zm-.287-.344c.07.016.151.013.229.018.077.005.162.028.16.063a.446.446 0 00.056.235.12.12 0 00.066.062c.088.035.228.006.315-.03.39-.155.533-.424.342-.642-.063-.07-.154-.135-.242-.2-.108-.08-.21-.16-.355-.227-.105-.048-.23-.088-.31-.145-.079-.059-.099-.129-.132-.196-.1-.205-.333-.396-.666-.544-.075.032-.058.09.002.127.06.038.151.062.228.093.202.082.292.22.222.337-.1.168-.53.136-.641.256-.124.132.317.173.496.243.33.13.242.215.132.386-.039.058-.023.134.098.164z"/><path d="M32.14 32.882c.131-.103.197-.262.315-.379.162-.162.418-.244.515-.448a.267.267 0 00.006-.233.42.42 0 00-.111-.12 4.961 4.961 0 00-.86-.57 1.025 1.025 0 00-.365-.13c-.13-.013-.272.025-.352.123-.099.124-.072.297-.068.453 0 .026-.001.054-.019.073-.018.02-.048.026-.074.036-.075.029-.119.107-.125.183a.524.524 0 00.04.224c.131.366.553 1.217 1.098.788z"/><path d="M32.95 33l.088-.353a.35.35 0 00.01-.056.972.972 0 00.002-.092c-.004-.5-.01-1-.015-1.499.002.203-.095.304-.06.515.007.04.019.016.026.06.006.035.007.116.01.16a3.28 3.28 0 01-.002.374c-.005.07-.014.128-.017.202-.003.064-.001.13-.003.195-.003.183-.031.317-.039.494zm-2.904-2.95a.217.217 0 00-.091-.1.395.395 0 00.09.1z"/><path d="M31.817 30.517a.57.57 0 00-.204-.263.614.614 0 00-.449-.08c.043-.054-.058-.115-.162-.12-.102-.006-.2.022-.3.037a1.184 1.184 0 01-.681-.091l-.238.358c-.008.012-.018.026-.038.032a.16.16 0 01-.086-.006.98.98 0 01-.426-.235c.045.143-.061.304-.265.394-.272.12-.664.12-.968.03l.532.346c.059.039.119.078.15.126.076.121-.099.271-.32.274l.508.1.007.083c.296.108.605.219.952.243.51.036.998-.119 1.427-.283.136.19.312.371.522.538-.039-.127-.19-.352-.132-.477.04-.088.163-.1.24-.17.243-.222.039-.598-.07-.836zm-5.767 2.441a.043.043 0 00-.038-.006l-.021.017a.699.699 0 00-.041.08c.042.008.086-.031.1-.09zm1.994-.808c.018-.862-.006-1.42-.05-1.016-.022.213-.06.758-.037 1.258.004.08 0 .2.001.304 0 .158.01.271.018.296.015.045.028-.113.04-.286l.006-.075c.009-.137.018-.282.022-.482zm1.909.851a.012.012 0 00-.003.005c0 .004.002.007.004.01a.176.176 0 00.038.031.01.01 0 00.007.003c.004 0 .007-.003.01-.005.022-.022.063-.059.026-.087-.034-.026-.06.02-.082.043zm2.047.048h.007a.168.168 0 00.043-.013.16.16 0 00-.022-.062.053.053 0 00-.014-.019c-.008-.006-.017-.005-.026-.005l-.038.003.022.019-.003.024c.001.009.005.017.012.02.005.001.01 0 .013.004.006.008-.002.023.005.029z"/><path d="M26.043 32.99c-.002-.004-.013-.005-.017-.01-.004-.007-.001-.018-.007-.024-.018-.02-.075.011-.069.041l.004.008a.097.097 0 00.091.044l.004-.001v-.004c0-.019.003-.041-.006-.055zm-.025-1.023L26 31.95a.09.09 0 00-.051.022.315.315 0 01.094.078c.015-.029 0-.076-.026-.083zm9.001-2.015a.048.048 0 00-.043.008.05.05 0 00-.02.026c-.044.145.172.003.063-.034zm1.931 2.014c0 .03.102.072.1.084.002-.013-.007-.025-.015-.034-.01-.011-.084-.102-.085-.05zm.894-.028c.402.191.952-.083 1.037-.515.017-.087.026-.19.101-.237.047-.03.108-.03.164-.031.502-.016.963-.425 1.03-.916.017-.12.018-.254.103-.34.117-.121.333-.087.46-.198a.498.498 0 00.096-.14c.094-.183.18-.38.163-.585-.026-.293-.27-.533-.546-.645-.283-.114-.578-.096-.872-.136.004-.056-.03-.137-.018-.195-.466.644-1.089.437-1.74.608-.21.055-.808.335-.813.593-.004.139.484.575-.009.64.105.01.17.124.174.228.004.104-.034.205-.046.308-.062.58.69.977.716 1.561zm-.89-3.988a.068.068 0 00.004.054c.003.006.008.012.01.02 0 .006 0 .014.003.02.004.006.013.006.02.006l.033-.002c.012 0 .026-.004.026-.016a.02.02 0 00-.006-.013.054.054 0 00-.028-.017v-.016a.137.137 0 01-.062-.036z"/><path d="M39.006 30.56c.014-.1.029-.164.044-.238-.03-.898-.098.323-.1.755a39.665 39.665 0 01.004.923c.031-.27.048-.723.042-1.149 0-.07-.002-.147.001-.208a.842.842 0 01.009-.082zm2.397 1.25c.115-.17.204-.361.265-.566.026-.088.048-.18.1-.25.052-.071.145-.112.213-.064.076-.346-.081-.74-.357-.9-.217-.125-.413.17-.605.264-.145.07-.31.093-.448.186-.115.078-.272.228-.32.377-.09.273.1.452-.06.767L40 32c.508-.05.972-.414 1.482-.41a.257.257 0 00-.08.22zM21 12.588s1.662.702 2.743.746c1.082.043.217.129.027.286-.189.158.163.144.42.13.256-.015.067.459.35.66.284.2 1.365.831 1.878.98.514.148 1.257.942 1.244 1.027-.014.086-1.014.273-.69.316.325.043.96-.144.96-.144s-.243.387-.46.445c-.215.057-.553.157-.4.344.153.186.265-.029.455-.158.189-.13.472.158.77.359.296.2.311.315.108.63-.203.317-.392 0-.527.145-.136.143-.162.444-.162.588 0 .143.31.186.175.416-.135.23-.446-.1-.608-.058-.162.044-.419.23-.676.015-.257-.215-.08-.158-.446.186-.364.344-.175 0-.513-.114-.338-.115-.27.286-.784.129-.513-.158-1.121-.359-1.527 0-.405.358-.027.56.81.573.839.015 3.352.058 3.542.058.189 0 1.432.588 1.594 1.06.163.474-.284.388-.209.417.075.028.426.186.182.33-.243.143.46.344.528.674.067.33-.555.444-.609.962-.053.517.374 0 .374 0 .033.145.059.292.077.441.004.037.008.078-.012.109a.148.148 0 01-.061.047l-.721.378a.61.61 0 00.605-.002c.083.188.111.404.079.609-.005.032-.011.066.002.096.013.027.04.043.065.057.368.194.826.147 1.173.38.04.027.08.058.126.06.092.005.157-.099.247-.124.046.17.067.349.062.526l.369-.365.273.858c.02.06.038.122.026.183-.039.197-.352.23-.372.43-.007.069.026.134.055.197a1.9 1.9 0 01.116.317l.433-.25c.041-.024.089-.05.135-.037.072.02.096.112.142.175.062.083.173.112.272.096a.653.653 0 00.27-.132c.076-.055.156-.143.127-.234a1.116 1.116 0 01-.512-.159c.247-.22.572-.336.893-.321 0 0 .378-.038.442-.01.063.029.126.947.126.947s.162-.359.13-.674c-.031-.315.559.057.573-.015.013-.071.27.402.31.359.041-.043.109-.215.311-.215.203 0 .027.617.068.516.04-.1.878-.358 1.109-.129.23.23.364.072.54.173.176.1 1.69.143 2.58.114.893-.029 2.393-.689 2.825-1.248.433-.559.743-.889.973-1.075.23-.187.513-.46.757-.775.243-.315.08.287.35.847.271.559.055-.259-.04-.435s.351-.54.257-.498c-.095.044-.46-.186-.46-.444s.446-.316.406-.473c-.04-.158-.04-.99.149-1.205.189-.215.527-.029.608-.574.08-.545.297-.114.473-.215.175-.1.283-.645.405-1.047.122-.402.703-.301.96-.372.257-.072-.81-.287-.905-.617-.095-.33.554-.89.756-1.483.203-.595-.04-1.543.041-1.945.08-.402.635-.273 1.838-.544 0 0-1.446.013-1.797.183-.351.17-.324-.615-.253-.902.072-.286-.166-.487-.355-.186-.19.301-.095-.029-.514-.674-.419-.645.554-1.019.594-1.09.041-.072.5-.846.275-.932-.225-.086-.747-.029-1.129.144-.381.172-.957-.33-.578-.933.379-.602.014-.272-.203-.573-.216-.301-.689.172-.932.172-.243 0-1.121-.344-1.203-.643-.08-.299.324-.949.203-1.063-.122-.115-.176-.46-.216-1.148-.041-.689-1-.746-1.392-.79-.392-.042.094-.917.067-1.318-.027-.402-.675-.115-.743.602-.068.717-.54 1.104-.676.803-.135-.302-.121-.416-.419-.488-.297-.072-1.621-.66-2.419-.96-.797-.301-.96-.244-1.012-.403-.052-.157-.001-.616-.015-.846-.014-.23.08-.731-.083-1.463-.163-.731-.755-1.004-.404-.617.351.388.514 1.994.324 2.223-.189.23-.229.488-.35.588-.122.1-.19-.143-.217-.344-.027-.2-.216-.172-.257-.043-.04.13.068.258 0 .359-.068.1-.432-.115-.608.043s-.379-.23-.5-.33c-.122-.1-.122-.258-.081-.43.04-.173.392-.287.473-.574.08-.287.067-.516-.054-.918-.122-.402-.244-.344-.324-.703-.081-.358-.176-.301-.406-.56-.23-.257-.487.202-.527.632-.04.43.135.646-.054.775-.19.129.068.344.243.56.176.214-.027.386.216.544.244.158.19 0 .217.14.027.14.04.42-.081.434-.122.014-.176.172-.46.272-.284.1-1 .158-1.23.373-.23.215-.77.818-.878.703-.108-.115.04-.388 0-.76-.04-.373-.095-.173-.068-.79.027-.617-.08.158-.284.43-.202.273-.216-.272-.284-.08-.067.19-.216.124-.27.023-.054-.1-.392.13-.392.373 0 .244-.567-.086-.648-.086-.081 0 .391.373.648.502s.203.402.42.774c.215.373.175.574.229.86.054.287-.325.79-.473 1.02-.149.229-.351-.044-1-.145-.19.23.797.23.905.416.108.187-.202.258-.31.746-.109.488-.285.43-1.028-.287.744 1.306.879.904.879.904l-.42 1.707s-.08.243-.54-.044c-.459-.286-.162-.243-.77-.215-.608.029-.284-.057-.379-.502-.094-.444-.797.043-.635.373.163.33.446.243.5.631.055.387.528.344.757.43.23.086 1.014.13.852.431-.163.301-.595 0-.973.23-.379.23.135.544.04.73-.094.187-1.527-.83-1.824-.846-.297-.014-.689-.344-.649-.43.04-.086.392-.387.433-.703.04-.315.148-.989-.095-1.376-.243-.387-.243-.115-.378-.359-.136-.243-.149-.014-.257-.23-.108-.214-.217-.272-.257-.76-.041-.487 0 0-.108.316-.108.315.35.459.175.688-.175.23-.716-.172-1.243-.143.446.214.324.502.068.544-.257.044-.757-.114-.757-.114s.554.344.568.502c.013.157-.636.487-.5.459.135-.029.553.043.567.243.013.201-.54.517-.351.46.189-.058.364.272.838.645.002.675-1.7-.486-3.228-.486zm-.03 1.91c.071-.107.005-.234-.09-.333-.203-.215-.477-.206-.732-.054-.321.191-.648.375-.951.58-.045.03-.091.063-.106.104-.027.075.059.146.148.197.088.05.192.1.22.176.016.042.003.087 0 .131-.003.066.017.132-.005.197a.433.433 0 01-.107.145l-.347.356.499.003c.107 0 .22 0 .314-.033.086-.03.146-.083.214-.13.266-.185.665-.281.89-.49.033-.03.062-.065.06-.102-.002-.032-.028-.062-.051-.09a.987.987 0 01-.13-.204c-.041-.087-.065-.184-.009-.268.046-.068.138-.117.183-.185z"/><path d="M22.992 16.122c-.056.359-.045 1.37-.029 1.814a.21.21 0 00.007.064l.007-.014c.045-.188.059-.574.066-.922.003-.184.03-1.457-.05-.942zm2.058 2.876c.003-.11-.086-.002-.1.03.003-.008.052.023.061.022.012-.002.037.006.039-.052zm-1.33-.949a89.235 89.235 0 00.884-.002 7.73 7.73 0 00.295-.014c.245-.013.518-.024.79-.035.194-.007.394-.015.61-.017.235-.001.488.004.701-.004-.455.001-.871-.02-1.32-.025-.196-.003-.394-.002-.592-.002l-.576.002c-.247 0-.502.002-.719.01a8.949 8.949 0 00-.323.02c-.155.013-.695.046-.365.06.144.007.446.006.614.007zm-7.572-2.045c.098.007.173.014.218.023.012.002.024.005.049.006l.11.004.547.01c.102.002.21.004.309.002.088-.002.154-.007.216-.011l.369-.028c.018-.001.04-.003.033-.005a.247.247 0 00-.032-.003c-.28-.016-.65-.03-.957-.044-.257-.012-.739-.014-.62.018-.077 0-.172 0-.247.002-.082.002-.151.007-.142.013.009.006.085.01.147.013zm-.168-1.96l.05.006c.039.004.012-.052-.003-.07-.014-.015-.036-.033-.055-.03-.023.004-.024.027-.02.055.003.032.006.037.029.04zm2.98-.007c.005.008.015.014.024.013a.037.037 0 00.016-.01c.024-.018.073-.047.038-.08-.023-.02-.074-.013-.085.015a.067.067 0 00-.001.035c.001.01.002.019.008.026zm-.957-1.987c.023 0 .04-.016.045-.032.005-.016 0-.032-.006-.048l-.018-.02c-.016.011-.05-.002-.063.01-.004.003-.005.007-.006.011-.004.017-.008.034-.002.05.007.015.027.03.05.029zm-3.911-.072a4.356 4.356 0 00.744.06l.824.008c.142.001.406.016.325-.02-.126-.057-.96-.045-1.223-.045-.258-.005-.51-.018-.761-.031-.009.011.044.02.091.028zm-.132-.931c.004.002.008.002.012.002h.022c.015.001.031.001.042-.007.015-.012.015-.032.013-.05-.002-.017-.008-.044-.034-.042-.023.003-.033.032-.06.029a.116.116 0 00-.003.053c0 .006.003.012.008.015zm.09 2.963c.003-.02-.021-.041-.045-.06l-.052.005-.003.016.008.078c.046.005.088-.016.092-.038z"/><path d="M13.952 14.047c.007.006.02.001.028-.004.017-.013.034-.025.048-.04.013-.015.023-.032.022-.05l-.049-.003-.047.082c-.003.005-.006.011-.002.015zm5.035-2.097l-.037.02c0 .028.016.055.048.08.074-.027.068-.075-.01-.1z"/><path d="M19.023 12.048a.017.017 0 00.008.002.013.013 0 00.007-.003c.018-.016.014-.04-.001-.056a.213.213 0 00-.065-.041l-.022.036c.014.025.04.047.073.062z"/><path d="M18.963 12.023a.105.105 0 00.073.027c.004 0 .008 0 .01-.005.006-.008.004-.022.002-.034a.176.176 0 00-.013-.044c-.006-.012-.016-.02-.026-.015h-.05c-.007.018-.014.044-.005.061.002.005.006.007.009.01zM44.05 30c.002-.432-.046-1.613-.094-2-.036.114.095 1.73.094 2z"/><path d="M44.432 26.865c-.183.352-.42 1.29-.431 1.674-.012.39.154.704.332 1.058.178.354.723.433 1.142.394.384-.035.676-.32 1.002-.509.267-.155.568-.252.843-.392.276-.141.537-.342.636-.618.177-.493-.212-.994-.577-1.39l-.881-.958c-.041-.044-.094-.093-.155-.085-.086.01-.111.11-.147.182-.098.205-.399.266-.627.192-.23-.075-.401-.247-.564-.413.232.237-.495.714-.573.865z"/><path d="M46.808 30c.179-.113.242-.31.15-.466-.044-.076-.12-.143-.139-.223-.02-.08.054-.181.168-.173-.11-.11-.36-.13-.5-.039a52.275 52.275 0 01-.398-1.511c-.019-.077-.025-.174.068-.215.044-.018.098-.019.14-.037.06-.027.08-.08.09-.13a.793.793 0 00-.087-.562c-.035.2-.205.386-.448.49-.15-.241.09-.531-.031-.78-.056-.114-.183-.205-.242-.318-.086-.162-.023-.345-.074-.514-.063-.21-.29-.373-.505-.522.153.477.255.964.305 1.452.015.156.027.317.126.456.057.08.14.148.205.224.244.289.207.651.306.981.152.505.634.983.49 1.49l.376.397zm-.858-5.05l.003.022c.003.025 0 .055.026.078.174-.035-.025-.066-.029-.1zm-1.966 1.093a.031.031 0 00.023.007.016.016 0 00.01-.005c.018-.018.037-.038.032-.057-.005-.02-.044-.04-.092-.038v.01c-.015.028-.006.058.027.083zM27.493 23.47c-.385-.363-.847-.552-1.313-.436a.204.204 0 00-.119.063c-.06.07-.062.194-.06.302.005.352.024.746.213.982.067.083.15.139.227.204.127.107.242.243.378.326.343.21.764.03 1.032-.332.383-.516-.06-.827-.358-1.109zm-1.536-2.491c-.006.01-.01.024-.003.035.005.009.016.013.024.02.008.006.015.015.025.016.012.001.022-.008.03-.017.01-.012.019-.026.017-.041-.002-.017-.018-.03-.033-.04l.002.008a.031.031 0 00-.026-.01c-.016.002-.029.015-.036.029z"/><path d="M28 20.971c-.695-.017-2.134-.063-1.99.079.384-.023.715-.05 1.157-.058.283-.005.585-.004.833-.02z"/><path d="M28.003 21.046c.016.01.04.002.046-.019a.049.049 0 00-.014-.046.1.1 0 00-.04-.02l-.03-.01c-.006-.003-.017 0-.015.008l.02.037c.006.02.016.041.033.05zm-.747 4.964a193.02 193.02 0 00-2.636-.009c-.04 0-.085.001-.117.036-.045.047-.048.138-.083.198-.085.143-.41.08-.42.282-.011.246.32.2.447.224.044.009.093.018.128.057.046.053.056.142.06.222.022.283.044.567.064.851.003.046.01.099.04.119a.09.09 0 00.045.01c.325.01.725-.137.79-.561.054-.342-.147-.653-.332-.9A13.9 13.9 0 0128 26.204c-.216-.183-.488-.192-.744-.194z"/><path d="M25.95 26.023c0 .009.01.017.012.009l.007.018a.29.29 0 00.075-.077c.004-.007.008-.015.005-.023a.289.289 0 00-.087.052c-.005.005-.011.011-.012.02zm6.05-.006c-.27-.017-.554-.026-.838-.026-.234-.001-.845-.05-.984-.04-.563.041.373.095.556.098.426.006.85-.013 1.266-.032zm-2.037 2.012c.015.02.04.025.062.018a.036.036 0 00.02-.016c.013-.022-.004-.054-.024-.064-.02-.01-.042-.008-.063-.017l.003.003c-.016.02-.014.056.002.076zm-4.058 3.977c.053-.01.108-.02.092-.031a.894.894 0 00-.25-.02l-.615.003a20.925 20.925 0 00-.554-.008c-.188 0-.383.007-.498.02-.082.01-.111.023-.039.034.037.005.095.008.155.012.244.013.52.02.794.028.171.004.36.009.527.003.194-.006.299-.024.388-.04zM45.074 8.4c.1.066.202.133.302.201.177.119.356.237.548.304.122.041.247.061.372.08.134.022.286.036.387-.085a.682.682 0 00.1-.207c.169-.477.443-1.44-.121-1.651-.347-.13-1.24.047-1.426.463a3.52 3.52 0 00-.224.68c-.011.05-.02.108 0 .153.014.028.039.045.062.061zm3.976-3.45l-.005.009a.333.333 0 01-.095.091.117.117 0 00.1-.1zm-.003 2c-.029.03-.063.087-.097.1.025-.01.117-.035.097-.1zm1.903-2.978a.238.238 0 01.094.056.517.517 0 00.006-.05l-.1-.006z"/><path d="M51.003 4.046a.035.035 0 00.013.004.027.027 0 00.02-.009.044.044 0 00.002-.062.102.102 0 00-.048-.029c-.007.016-.034.027-.04.044-.006.022.025.04.053.052zm-10.923.479c.336.278.734.364 1.12.442.192.04.41.073.566-.092.144-.15.191-.423.198-.676.007-.339.12-.97-.095-1.151-.134-.113-.52.004-.67.05-.452.138-.927.565-1.164 1.134-.024.06-.046.13-.028.193a.202.202 0 00.073.1zm-1.119 2.508a.12.12 0 00.05.016c.01.001.02.002.027-.004.032-.025-.009-.085-.03-.094-.021-.009-.07.04-.055.073a.02.02 0 00.008.009zm65.937 35.221c-.246-.53-1.24-.067-1.625-.065-.09.001-.193.006-.243.088-.037.06-.032.14-.025.213l.068.737a.5.5 0 00.053.216c.098.158.331.123.442.27.043.056.061.134.104.19.11.146.313.099.474.04.11-.042.229-.089.301-.193.03-.041.05-.09.077-.133.084-.132.225-.198.323-.316.188-.226.176-.585.105-.886-.016-.055-.031-.11-.054-.16zM26.482 9.049a1.24 1.24 0 00.104-.001c.202-.013.376-.03.649-.035.247-.005.53.002.765-.005a4.266 4.266 0 00-.709-.057c-.207-.003-.409.002-.598.007-.107.002-.567.004-.609.008-.015.002-.019.004-.022.005l-.042.021c-.021.01-.041.022.028.032.083.012.263.019.434.025zM24.31 7.05a46.26 46.26 0 011.054-.013c.275 0 .757-.06.608-.076a8.409 8.409 0 00-.65-.009c-.08.002-.464.02-.488.022a.359.359 0 00-.085-.003h-.479l-.105.002c-.064.004-.006.01.023.014.08.012-.057.025-.188.036.141.007.249.017.31.027zm10.652-3.384c.02.113.027.38.026.623 0 .242-.008.475-.012.711.014-.132.027-.292.038-.472.003-.05.006-.104.01-.134.002-.01.004-.019.005-.034l.004-.07.008-.221c.01-.3.022-1.092-.028-1.068-.016.007-.033.254-.046.348-.015.11-.027.183-.005.317zM10 35c1.844-1.533 2-2 2-2-1.733 1.284-2 2-2 2zm9.044 4.019c.013-.047 0-.069 0-.069-.068.047-.12.033-.08.069.039.036.068.047.08 0zm-.087 1.002c.023.035.07.042.09 0 .019-.042-.045-.096-.06-.058-.012.034-.053.023-.03.058zM28 39.035s-1.31-.017-1.882-.085c-.526.083.812.124 1.882.085zm15.977 44.999c.011.01.026.018.04.016.02-.003.034-.024.033-.044-.002-.096-.163-.057-.073.028zm-1.967-2.062l-.034-.022a.043.043 0 00-.026.04c0 .02.016.04.034.05.02.013.052.015.063-.005a.036.036 0 00-.005-.037.11.11 0 00-.031-.026z"/><path d="M41.95 81.95c.024.033.047.067.072.1.009-.008.018-.013.028-.012l-.1-.088zm1.935-.529c-.123-.19-.312-.325-.497-.453L42 80c.264.55.64 1.047 1.094 1.457.127.115.56.56.736.542.253-.027.182-.38.055-.578z"/></g></svg>