<svg width="1117" height="1022" xmlns="http://www.w3.org/2000/svg"><g fill="#512511" opacity=".034"><path d="M949.558 219.49l-.15.02c.16-.02.23-.02.15-.02z"/><path d="M785.891 197.572c2.192 5.733 9.166 10.084 8.366 16.017-.8 5.933-9.966 2.57-14.149 3.363-4.183.794 1.393 8.503 1.393 8.503l-24.11-8.503s19.927 10.679 24.11 11.473c4.183.793 3.786-.394 3.389 6.72-.397 7.121-13.35 11.667-22.918 14.042-9.563 2.376-12.153 7.909-7.573 15.23 4.58 7.314-6.973 6.326-10.363 6.526-3.389.2-6.375 3.758-2.192 6.721 4.183 2.964 17.935 1.582 21.917 1.382 3.988-.2 3.988 15.818.397 21.75-3.585 5.934-2.192 19.975-2.192 19.975l-8.17 3.558c-8.172 3.557-10.162 6.72-10.162 6.72s4.183-1.381 8.567-3.557c4.385-2.176 6.974-3.957 8.77-1.582 1.795 2.376-1.198 6.921-4.984 11.472-3.786 4.552 2.987 5.34 5.582 4.945 2.589-.393 4.983 3.958 5.178 7.315.202 3.364-7.37 3.958-9.764 3.164-2.394-.794 1.392-5.733 1.392-5.733s-2.59.594-4.183 3.363c-1.594 2.77-5.178 3.364-6.375.988s-5.179-4.351-7.97-1.976c-2.79 2.376-4.781 1.976-5.776.2-.996-1.781-2.394-2.375-3.188-.794-.8 1.582-1.991 3.558-4.782 3.364-2.79-.2-8.567-3.758-8.567-3.758s4.183 6.133 4.983 8.503c.8 2.376-3.39.2-6.18-2.376-2.79-2.57-6.974.988-7.774.794-.8-.2-9.563-32.628-9.563-32.628s1.99 19.574 4.385 27.683c2.393 8.109 1.99 7.315.201 10.084-1.795 2.77-4.782 4.746-1.795 7.315 2.986 2.57 4.983 3.164 7.175 4.551 2.192 1.382.995 4.946 2.986 6.921 1.991 1.976 2.192-.988 1.393-4.945-.8-3.957.8-4.551 3.389-5.733 2.589-1.188 3.187 1.188 3.584 5.34.397 4.15 3.787 6.92 3.787 6.92-1.197 2.964-.599 5.54-.599 5.54s.599-5.54 5.582-4.746c4.983.794 3.187-.394 5.978 1.188 2.79 1.581 6.18-.988 7.774-2.964 1.593-1.976 3.187-5.14 7.175-3.557 2.423.964 3.377 1.487 5.137 1.834-1.392 1.082-3.152 1.835-5.487 2.017-4.206.335-.166 3.675 2.696 2.258 2.862-1.423.842 6.268 1.517 5.098.616-1.07 1.943-4.234 6.02-8.85l.284.018c6.18.394 6.18 1.188 8.568-1.382 2.394-2.57-.8-4.35 3.39-5.539 4.182-1.187 1.794-4.745 3.388-5.539 1.594-.794 3.786 4.746 9.368 9.69 3.898 3.452 2.933 5.557 1.931 8.262H772.91s-2.524-3.005-4.544 0c-1.63 2.429-3.366 2.005-2.02 3.005 1.344 1 1.344 4.175 3.537 4.845 2.186.67 2.861-.835 4.378-2.005s1.345-3.846 1.345-3.846l11.033-1.476c-.362 1.03-.693 2.153-.74 3.47-.202 5.139 4.78 14.83 9.562 13.647 4.527-1.123 4.598-.476 7.626.941l-2.187 3.71c-.971-.364-1.996-.6-3.04-.582-2.944.047-5.45 2.023-7.702 3.905.658-1.611 3.804-6.51 1.873-7.809-2.643-1.776-3.253 3.546-3.74 4.84-.615 1.652-2.422 2.516-3.513 3.898-.438.553-.734 1.4-.254 1.917.355.382.96.376 1.487.323a18.53 18.53 0 007.01-2.246c.598-.335 1.279-.717 1.93-.506.309.1.558.324.8.535.575.5 1.168.982 1.802 1.4l-18.036 30.606 1.594 2.375 17.105-32.57a8.62 8.62 0 001.15.559c1.35.523 2.915.641 4.242.053.889-.394 1.677-1.188 1.736-2.152.03-.435-.095-.87-.272-1.27-.652-1.417-2.039-2.364-3.472-3-.09-.04-.184-.076-.279-.117l1.985-3.775c.107.047.207.094.32.147 3.585 1.582 4.781-2.963 4.781-2.963 2.791-5.14 3.585-3.364 9.167-3.558 5.581-.2 2.393 2.376 2.192 6.921-.202 4.551.201 5.34 2.192.394 1.991-4.945 1.991-10.878 9.765-3.557 7.773 7.314 8.964.394 14.546 2.963 5.581 2.57.8 8.303-5.179 9.49-5.978 1.188-4.384 1.782-7.175 7.91-2.79 6.132-3.585 3.163-6.18 6.72-2.59 3.558 1.197 1.188 5.777-.2 4.58-1.381 3.585 1.188 3.585 1.782 0 .594-4.385 2.57-2.193 5.54 2.193 2.963 2.193 1.187 3.988-1.383 1.795-2.57 2.79 2.964 5.179 3.364 2.393.394 3.584-.394 5.58 1.187 1.992 1.582 3.189.794 2.395-1.187-.794-1.982.397-4.152 4.586-3.364 4.183.794 5.978-.394 5.978-3.957 0-3.557 2.986-5.733 2.79-1.976-.195 3.758 2.395 2.57 2.395 2.57.201 6.72 3.987 29.265 3.987 29.265s-2.394-29.665-.201-30.653c2.192-.988.598-3.163.995-5.933s3.988-3.163 5.179-6.133c1.196-2.963 1.795-13.841 3.389-18.787 1.594-4.945 4.983-5.339 8.964-10.678 3.988-5.339 7.176-5.933 12.751-9.49 5.582-3.558 6.577 2.57 8.77 3.957 2.191 1.388 1.795-2.57 5.38-5.733 3.584-3.164 4.182-1.582 5.776 3.557 1.594 5.14 3.585 8.503 5.179 14.436 1.593 5.933-.996 11.866 2.986 17.205 3.987 5.34 8.769 3.164 7.572-4.551s-11.358-25.508-11.157-34.41c.202-8.897 4.385-11.866 10.962-13.448 6.576-1.582 4.58 1.188 7.773-3.757 3.188-4.946 1.796-7.121 1.796-7.121l10.76 3.163-10.76-5.139c.397-2.375 1.593-5.539 5.38-5.14 3.786.395 4.183.989 5.38-3.362 1.196-4.352 4.384-3.958 5.776-1.382 1.393 2.57 6.376 5.539 6.376 5.539s-1.795-2.57-3.188-5.14c-1.392-2.57-1.392-4.15 3.786-4.945 5.179-.793 2.193-9.69 2.394-12.06.201-2.375 0-14.435 2.394-15.03 2.393-.593 12.555 3.758 14.546-.987 1.99-4.745-7.97-10.678-10.559-14.042-2.589-3.363-2.79-3.757-1.99-10.084s-4.385-5.539-5.582-11.472 2.394-1.188 6.974-3.557c4.58-2.376-.8-3.558.598-6.133 1.393-2.57.8-2.77-.8-4.152-1.593-1.382-2.192-.2-2.192-4.35 0-4.152-1.99-.989-3.389.199-1.392 1.188-.8-6.133-.8-6.133s-2.79 7.715-5.978 9.49c-3.188 1.782-1.991-12.853-1.991-18.192 0-5.34.8-8.703-4.586-15.424-5.38-6.72-9.966-14.83-9.966-14.83s9.308-2.769 10.47-2.957c-1.185.076-12.064.582-12.064.582l-2.986-2.964 13.349-10.478-16.94 8.109s-11.157-14.042-19.724-17.4c-8.568-3.363-14.15-3.757-14.15-3.757l2.791-7.908s-3.389 5.139-8.17 7.314c-4.782 2.176-18.73 0-24.311.794-5.581.794-6.18-3.163-8.17-7.515-1.991-4.35-.8 5.14-2.791 8.897-1.991 3.757-9.166.988-16.94.2-7.774-.794-14.546-.394-17.135 2.57-2.59 2.963-4.385 1.975-7.97 2.769-3.584.794-4.781 4.551-4.781 4.551l-10.363 1.782 10.161.988s-.397 1.187-5.178 5.933c-4.782 4.745-13.55 8.502-19.926 2.57-6.376-5.951-11.951-6.545-9.759-.806z"/><path d="M765.467 459L783 417l-20 37.865zm6.195-240l.338-6.468L730 177zm49.893-31l3.445-2.959L805 168zM751.04 344.143c.32.247.63.527.92.857 0 0-.13-1.45-.92-.857zm-36.427-4.187c2.67-2.494 2.445-2.855 4.446 1.432 2.002 4.287 1.335 0 1.778-1.783.442-1.782 1.334-1.782 3.997 2.855 2.669 4.637 1.552-1.783 3.554-11.418.773-3.724 1.282-5.262 1.612-5.74-1.738-2.589-4.195-1.4-8.945 4.319-5.332 6.42-3.33 2.143-8.668 8.563-5.332 6.42-.443 4.276 2.226 1.772z"/><path d="M710.924 338.624c-5.938 17.418 18.66-12.934 19.076-14.429 0 0-13.15-2.99-19.076 14.429zM710 333.5s-.607-1.124-.944 0c-.336 1.126.944 0 .944 0zm-.875-41.281c-.546.781.875.781.875.781s-.329-1.563-.875-.781zm94.982 125.183c-.496 1.085.893.362.893.362s-.397-1.444-.893-.362z"/><path d="M805 417.576s-.62-1.225-.946-.103c-.328 1.122.946.103.946.103zm-.872 20.293c.48.514.872-.652.872-.652-.35-.583-1.352.138-.872.652zM825 440.68l-1.581-2.68L794 480zm20.388-3.671c-.76.128-.168.959-.168.959 1.096.255.928-1.087.168-.96zm-.292 21.663c-.46.873.884-.273.884-.273.132-.546-.425-.6-.884.273zm9.976 20.798c-.39 1.123.928.112.928.112s-.537-1.232-.928-.111z"/><path d="M855.162 479.013c-.644.148.838.987.838.987s-.194-1.135-.838-.987zm-9.205.987s.293-1.055-.657-.998c-.949.06.657.998.657.998z"/><path d="M845.417 480s1.233-1 .113-1c-1.123 0-.113 1-.113 1zm.213-22c-1.052 0-.469 1-.469 1s1.519-1 .47-1zm-20.373.093c-.866.453.736.907.736.907s.129-1.361-.736-.907zm71.868.729c.546.684.875-.822.875-.822s-1.421.137-.875.822zm21.875-.258s0-1.209-.781-.087c-.782 1.124.781.087.781.087zm-.813-21.372c-.705.717.813.808.813.808s-.108-1.526-.813-.808zM898 397l20 20s-6.007-13.977-20-20zm20 0l.999 20c.044-11.673-.999-20-.999-20z"/><path d="M919 417s-.211-17.329-.843-19.808C917.526 394.713 919 417 919 417zm-21.632.052c-.788.362-.066.881-.066.881.985.414.854-1.244.066-.88z"/><path d="M919 388.652s-.146-5.34-.554-3.106c-.409 2.22-.672 16.007-.175 19.113.496 3.106.729-16.007.729-16.007zm51 10.216L990 417l-14.244-20zm-21-.667L950 417l-.556-20zm20.44-23.944s-.974-5.921-4.213-5.401c-3.238.512-4.539 4.116-4.857 4.889C960.042 374.517 950 365 950 365s3.566 7.207 5.513 10.037c1.947 2.831-1.62 1.798.645 5.15 2.265 3.343 6.805 6.173 8.424 4.115 1.619-2.058 1.3-1.285 3.893.26 2.593 1.546 1.62-1.545-.973-4.628-2.602-3.106 1.937-5.677 1.937-5.677zm1.982-29.247C963.691 344.492 990 365 990 365s-10.83-19.472-18.578-19.99zM970.157 365c-.631 0 .843 1 .843 1s-.21-1-.843-1zm-21.021-20.976c-.576.206.864.976.864.976s-.289-1.182-.864-.976z"/><path d="M970.32 344.04c-.982.275.612.96.612.96s.369-1.235-.613-.96zM949 365.832c0 .587.981-.552.981-.552.178-.655-.981-.033-.981.552zm-20.984-.77c-.164.22.983.938.983.938.032-.773-.82-1.16-.983-.938z"/><path d="M928.044 365.102C927.754 366.877 929 385 929 385s-.667-21.66-.956-19.898zm.118-21.092c-.644.123.838.99.838.99s-.194-1.114-.838-.99zM918.351 366s1.315-1 .202-1c-1.113-.002-.202 1-.202 1zm71.617-52.997c-8.705-.189-9.18 7.846-6.592 11.774 2.59 3.923 9.88 3.923 9.88 3.923l1.414 4.3.469-5.606s6.353 2.617 6.822-1.684c.469-4.3-3.289-12.523-11.993-12.707zm53.398.012c-.381-.45-.57 9.344-.032 17.365.54 8.008.666-4.897.666-4.897s-.253-12.031-.634-12.468zm-40.949-42.675c-3.795 1.01 19.583.56 19.583.56s-15.798-1.572-19.583-.56zM990 271s-15.258-1.563-19.491-.781C966.263 271 990 271 990 271zm0-10.921s-14.368-.398-19.334.595c-4.952.991 19.334-.595 19.334-.595zM1001 241c.43-.39.778-.73 1-1 0 0-.386.394-1 1zm11-21c-13.087 6.727-41.525 18.206-41.525 18.206-4.83 7.575 28.494-10.828 41.525-18.206zm-24.043-1.075c.795-1.203 4.793-10.808-1.198-16.415-5.98-5.606-16.36-5.201-16.752 6.404-.404 11.617 17.95 10.01 17.95 10.01z"/><path d="M970.25 219.917C967.391 220.341 990 219 990 219s-16.891.493-19.75.917zm-20.418.037c.527-.707-.317-1.416-.74-.566-.422.85.74.566.74.566zm88.686-30.438c-3.415-2.042.857-3.74-1.707-5.095-2.565-1.364-1.708-2.718-1.067-4.083.641-1.365-1.066-4.76-4.056-5.094-2.99-.344-1.708 0-2.565-2.72-.857-2.718-1.924-4.416-4.057-1.364-2.133 3.063 0 0-2.99-2.719s-7.471 7.824-7.256 12.574c.216 4.76 0 3.396-1.923 5.438-1.924 2.042-.641 2.042 2.774 5.094 3.415 3.063 3.415 3.063 2.349 6.803-1.067 3.74.425 9.178 1.923 7.48 1.492-1.699 1.492-5.782 3.416-6.803 1.923-1.02 2.349 9.521 1.923 10.876-.425 1.354 5.123-11.897 5.123-11.897l5.123 6.803.216-12.574 7.256 5.094c.006 0-1.067-5.772-4.482-7.813zm5.312-.516c.382-.213.096-1.33-.619-.904-.716.425.62.904.62.904zm72.45 51.392c-.835 3.5.46 19.608.46 19.608.418-2.083.377-23.107-.46-19.608zM990 146s-13.563 5.07-19.171 17.09C965.21 175.111 990 146 990 146z"/><path d="M970 168s-14.858 5.213-19.422 17.13C946.014 197.047 970 168 970 168zm1 0c-.87 0-1.27 5.765-.802 17.281C970.666 196.798 971 168 971 168zm-21.096-21s.44-1.41-.567-.881c-1.008.528.567.881.567.881zm40.567-22.9c-1.121-.474.111.9.111.9s1.01-.426-.11-.9zM919 167.008s-.48-.137-.914.733c-.433.87.914-.733.914-.733zm-42.136 1.006C876.287 168.634 876 188 876 188s1.44-20.617.864-19.986zm20.519-21.997c-1.065-.17.427.983.427.983s.639-.812-.427-.983zm-92.936-.013c-1.113-.076.202.996.202.996s.91-.919-.202-.996zm-6.777 21.995c10.918.044 3.856-1.412-10.27-.883-14.124.53 10.27.883 10.27.883zM803 147s-8.244-1.506-17.938-.822C775.368 146.864 803 147 803 147z"/><path d="M805 147s0-.913-.781-.995c-.782-.084.781.995.781.995zm-65.021 21.722c-5.008-3.537-2.005 7.073-2.005 7.073s-15.015-1.417-18.687-1.417c-3.67 0 29.033 13.444 29.033 13.444 5.345 2.133-3.334-15.564-8.341-19.1z"/><path d="M712.66 168.759c-8.902-4.185 6.803 10.013 14.01 16.348A362.5 362.5 0 00730 188s-5.986-13.901-17.34-19.241zM532.026 124.45c.1.04.446.08.974.12-.734-.12-1.106-.17-.974-.12zM626.71 53c-.16-.57-.42-1-.42-1s.09.43.42 1zm156.231 40.325L783 93s-.376.38-1 1c.594-.47.951-.73.941-.675zm-83.797 199.083c-.555 3.894.673 19.485.673 19.485.497 1.947-.117-23.38-.673-19.485zm12.279-14.964c-7.18 15.29 15.15 14.55 15.15 14.55 11.182-8.96-7.97-29.853-15.15-14.55zM709.949 271s.32-1.265-.64-.95c-.964.316.64.95.64.95zm-31.811 1.321C677.556 269.038 679 292 679 292s-.279-16.406-.862-19.679zm-20.972 20.434c2.326.717 19.814-.368 19.814-.368.786-.716-22.14-.348-19.814.368zm-.018 20.127c.608.493.852-.716.852-.716 0-.494-1.46.223-.852.716z"/><path d="M657.356 292.016c-.912.167.216.98.216.98.52.083.693-1.149-.216-.98z"/><path d="M657 293s1.563-.704.781-.964c-.781-.26-.781.964-.781.964zm21.409 40.51c-3.747.89 19.498.296 19.498.296 1.507-.8-15.751-1.185-19.498-.296zm31.049.49s1.181-1.256.056-.953c-1.123.305-.056.953-.056.953zM709 344.996c.151.07 1.448-.712.838-.962-.611-.25-.838.962-.838.962zm129.93-187.592c3.766 1.58.317 2.373.624 6.521.308 4.148 4.075 1.187 9.09-1.187 5.016-2.373 2.825-5.928 5.016-7.708 2.191-1.78 1.567-2.174-.941-3.554-2.508-1.381 0-4.941 0-4.941-.317-.987-4.075-.793-7.524 2.173-3.45 2.967-4.391-1.58-8.149.987-3.757 2.568-1.873 6.128 1.884 7.709zM971 198.357l-.11-.357-.89 1zm-21.219-.343C949 197.863 949 199 949 199s1.563-.835.781-.986zm-31.345-51.984c-1.108-.23.245.97.245.97s.86-.743-.245-.97zM553.135 270.208c-.573.785.86.785.86.785.049.13-.286-1.57-.86-.785zM532 240.949s-9.074-1.603-18.148-.643c-9.074.964 18.148.643 18.148.643zm1-42.913s-.58-.269-.938.67c-.357.94.938-.67.938-.67zm-30.101 41.467c8.03 3.23 9.101-10.342 9.101-10.342s-4.285-12.277-14.977-8.406c-10.714 3.883-2.154 15.519 5.876 18.748zm33.721-75.497c-1.82 3.396 4.54 1.698 10.451.42 5.91-1.268 6.361-6.362 6.361-6.362s2.27-5.933-2.27-6.782c-4.541-.849-7.271-2.546-12.722-4.236-5.452-1.697-19.543-1.269-25.454.85-5.91 2.117 16.362 2.546 24.093 2.966 7.73.42 6.82 2.546 7.73 4.664.902 2.118-6.378 5.085-8.19 8.48zm16.733-69.924c-.894 1.593.191 19.897.191 19.897.575.804.703-21.491-.19-19.897zm-21.319 20.551c.242.7 1.21.35.908-.631-.001 0-1.15-.07-.908.63zm4.931-25.864c2.603 2.407 2.316 6.015 2.89 3.21.578-2.805 1.736-4.41 3.76-9.622 2.023-5.213 7.52-7.612 8.385-8.415 0 0-5.205 1.2-7.807 2.408-2.602 1.208-2.889-5.212-6.07-2.805-3.18 2.408-4.339 6.015-5.783 11.624-1.445 5.602 2.023 1.192 4.625 3.6zM585.89 94s.475-1.36-.545-.908c-1.02.454.544.908.544.908zm-22.426-.994c-1.12-.095.14.994.14.994s.978-.9-.14-.994z"/><path d="M563.242 93.028c-.834.224.756.972.756.972s.077-1.197-.756-.972z"/><path d="M564 93.908s-.066-1.577-.8-.574c-.736 1.006.8.574.8.574zM563.968 74s.254-.866-.678-.99c-.931-.124.678.99.678.99zM586 74s0-1.08-.781-.995c-.782.082.781.995.781.995zm-22.69-53.909c-.596 2.115-.15 41.909-.15 41.909 1.413-8.467.745-44.032.15-41.909zm22.584.909c.298-.398-.06-1.196-.716-.956-.657.239.716.956.716.956zM627 21s-.264-1.474-.857-.843c-.594.632.857.843.857.843zm10.083-.395c-1.559.986 19.453-.185 19.453-.185 3.888-.37-17.91-.801-19.453.185z"/><path d="M640.374 17.297c2.3 5.794 0 0 1.435-.913s1.725-1.221 3.16 1.833c1.435 3.048 1.15 1.524 2.01.302.86-1.222.86-2.135 2.01-3.048 1.15-.913 1.434.913 5.744-2.135s1.15-4.578 1.15-4.578c-.575-7.015-4.31-10.069-8.904-8.236-4.595 1.832-1.725 1.221-4.31 3.356-2.585 2.135-2.01 2.746-4.595 7.626-2.579 4.88.006 0 2.3 5.793zm16.805 54.92C657.863 64.725 658 31 658 31s-1.506 48.709-.821 41.217zM710 32s-1.36 6.21-.908 17.399C709.546 60.599 710 32 710 32zm-1 41s-15.141 8.108-19.473 17.903C685.195 100.698 709 73 709 73zm-9.219-20.98C699 51.836 699 53 699 53s1.563-.796.781-.98zM334.39 802.013c.03.33.06.6.12.76.16.49.13.1-.12-.76zM219.97 699.441c-.57-.02-.94.12-.94.12s.35-.03.94-.12zM241 552.327c-.447.03-.782.12-.939.26-.223.19.183.05.939-.26zM606 345c-.318-.465-1-1-1-1s.336.552 1 1z"/><path d="M761.948 763.787c2.342-3.015 5.152-11.835 5.853-13.454.702-1.62 9.133 3.014 9.133 3.014s1.403-6.035-1.17-8.12c-2.573-2.09-10.066-8.584-9.365-11.134.701-2.55 12.876 4.41 12.876 4.41s-7.023-5.8-10.772-9.974c-3.744-4.175 1.402-11.37 3.042-13.455 1.64-2.09 5.62 4.175 5.383-1.16-.231-5.335 4.45-4.41 7.493-7.89 3.043-3.48 10.066-.93 11.943-3.48 1.872-2.55.702-4.64-1.17-7.655-1.872-3.014-1.402-8.584-.939-12.064.47-3.48 2.11-8.12-1.402-9.05-3.512-.93-4.213-4.41-3.043-5.335 1.171-.93 5.384-1.16 2.11-2.09-3.28-.93-5.152-3.015-5.853-6.73-.701-3.71 4.462-7.994 7.65-4.836 3.186 3.159 7.225 2.108 7.011.844-.214-1.263-4.039-10.525-6.374-13.052-2.336-2.527-11.474-12.633-16.36-15.58-4.885-2.945-3.401-7.999-2.126-12.845 1.275-4.841 12.111-13.053 13.6-13.684 1.49-.632 7.864 0 11.689 1.895s7.226.419 7.65-1.264c.422-1.682-1.49-8.211-5.1-9.475-3.61-1.263-9.776-4.84-13.172-7.999-3.396-3.158-4.462-14.528-5.1-21.057-.295-3.05 3.628-6.748 7.893-9.814 0 .258.498.16 1.79-.5 5.79-2.986 15.01-8.602 20.312-10.147.307-.069.516-.126.608-.172 5.18-1.263 5.598-2.084 4.48-4.203-1.113-2.12-2.504-3.429 1.153-3.101 2.179.195 5.036.212 7 .2.145.93.076 1.919-.66 2.407-1.629 1.08-4.619 2.423-4.619 2.423s4.074.27 4.619 2.153c.544 1.884-.818 2.694-3.263 2.694s-3.535 4.576-3.535 4.576 5.163-2.423 7.064-1.613c1.9.81 1.09 4.037-.272 6.73l-1.356 2.693s4.346-1.08 7.064-1.344c2.718-.27 5.163 6.73 5.435 8.35 0 0 1.901-6.73 5.98-5.656 4.075 1.08 8.154 8.08 8.154 8.08s-4.346-13.467-2.445-14.007c1.9-.54 5.163-1.343 5.163-1.343s-5.163-8.35-1.628-9.16l-3.535-5.116s.544-1.344.544-2.963c0-1.614-.817 3.503-2.445.27s-2.718-5.117-4.074-5.657c-1.356-.54-2.173-1.883-2.99-2.963-.817-1.08-.817 2.154-3.263 1.344-2.445-.81-.272 0-2.445-.81s-3.263 1.08-4.346 2.963c-.585 1.017-1.652 2.033-2.504 2.757-2.723-.167-6.328-.293-7.643.218-2.104.816-.62-2.119-3.912.816-3.291 2.934-2.097 1.797-1.703 3.916.388 2.119-19.993 8.292-19.993 8.292-7.65.844-16.996 8-20.612 8.212-3.483.2-12.685-10.544-16.203-13.96 3.268-1.08 7.94-2.246 10.17-.982 3.622 2.05 3.367 5.903 3.367 5.903s3.367-6.156 6.989-4.875c3.621 1.28 7.765 6.925 7.765 6.925s-5.697-7.953-3.622-11.031c2.075-3.078 4.404-2.567 5.436-2.82 1.037-.258-7.51-6.925 2.33-7.953 0 0-9.319-5.903-5.436-6.673l3.882-.77s-7.765-4.874-4.404-5.386c3.367-.51 10.095-1.027 10.095-1.027s-4.66-1.798-8.287-2.567c-3.622-.77-5.18-6.156-9.063-6.415 0 0 4.92-4.105 8.026-4.617l3.106-.51s-5.18-1.798-4.404-4.106c.776-2.309 4.143-3.337 4.143-3.337l-1.553-2.308 3.367-1.798s-2.59 0-4.143-1.797c-1.554-1.797-1.554-1.28.515-3.078 2.069-1.797-1.814-.258-4.92-2.05-3.106-1.797-7.51-3.589-5.957-5.386 1.553-1.798 2.59-5.387 2.59-5.387s-3.882 3.848-6.212 3.337c-2.33-.512-5.18-1.54-5.18-1.54l7.25-12.828s-8.803 13.34-10.096 13.087c-1.292-.258-4.143-5.134-5.18-7.184-1.038-2.05 0 3.59-.777 4.876-.776 1.28-8.026 2.819-10.616 2.308-2.59-.511 3.367.77 1.814 3.336-1.553 2.567-4.144 3.848-4.144 3.848s-4.659 1.797-5.435 1.797c-.777 0 3.622 3.336 4.404 4.875.342.672.284 2.676.527 4.95-2.202.196-6.52.569-8.825.718-3.188.213-.423-6.316 1.06-10.319 1.49-4.002 9.562-6.104 9.562-6.104s-3.61-.213-2.55-1.263c1.06-1.051 8.71-21.265 8.71-21.265s-8.501 15.58-8.925 16.843c-.423 1.263-2.335 3.37-5.313 1.682-2.973-1.682-1.49-4.002-2.55-5.897-1.06-1.895 0-4.21 2.335-4.84 2.335-.633 9.347-5.054 9.347-5.054s-2.126-.42-3.824-.632c-1.698-.212-.852-2.107 1.275-4.21 2.126-2.107 3.187-7.998 3.187-7.998l-1.913-1.895c-1.912-1.895 3.188-6.949 1.49-6.317-1.698.632-2.764-.632-5.314-3.37-2.55-2.74-1.275-7.162-1.275-7.162-2.764 2.108-8.924 1.051-10.2 1.476-1.274.42-3.61-8-3.4-6.948.214 1.05-6.16 6.948-8.71 9.056-2.55 2.107-3.61-1.683-6.16-1.476-2.55.212-8.71 13.052-8.71 13.052l-3.187-3.37c-3.188-3.371-5.523-2.946-8.71-4.422-3.187-1.476-5.314-6.736-5.1-10.107.215-3.37 3.825-6.529 2.764-6.736-1.06-.212-5.522-.419-7.226-.212-1.698.212-2.335-4.422-1.275-7.368 1.06-2.946 2.336-6.316 1.275-7.999-1.06-1.682-8.287-8.843-11.897-13.684-3.61-4.841 4.885-13.897 4.885-13.897s-8.072 3.371-13.6 6.736c-4.619 2.814-5.824.925-7.957-.632.197-4.14.614-8.005 1.484-8.567 2.01-1.304 6.334-5.065 3.506-5.708-3.217-.735-8.74 1.63-6.6 6.035.834 1.723 1.245 4.864 1.43 8.114a7.755 7.755 0 00-1.216-.712c-3.188-1.476-5.1-5.685-8.287-9.056-3.187-3.37-5.951-7.58-10.622-10.95-4.677-3.371-7.012-6.317-9.562-8.212-2.283-1.694 9.776-12.214 3.187-16.636-4.311-2.894-7.985-1.005-10.964 2.532-1.448-4.978.678-12.495.962-13.098 0 0-2.306-.12-6.258 7.752-1.426 2.837-1.466 6.035-.852 8.884-2.776 6.075-6.902 10.99-12.43 10.353-3.39-.39-6.166-1.998-8.316-3.87 1.246 2.354 1.466 4.45-1.454 4.714-7.012.632-9.776.213-9.776.213-3.402-15.58-7.65-16.424-13.387-16.424s-6.374-3.79-5.951-5.897c.423-2.107 1.275 7.16 6.16-11.158 4.04-15.148 3.14-23.808 2.712-26.357a16.12 16.12 0 001.57 0c4.972-.287 4.387-.287 7.603 2.894 3.217 3.187 4.972 2.32 12.865 2.32s20.172.58 20.172.58.875 4.634.875 8.108 2.341 5.501 5.847 2.027c3.506-3.474 2.92-8.981 2.92-8.981s2.632-3.474 9.65-4.054c7.017-.58 6.136-.287 10.819-7.241 4.676-6.954 13.45-8.689 14.91-11.876 1.46-3.187 2.92-1.16 3.801 4.054.875 5.215 1.46 2.32 2.342-1.16.875-3.474.585-8.108 2.92-12.748 2.341-4.634 8.478-8.4 12.57-9.848 4.09-1.447 1.755-6.374 4.09-11.588 2.342-5.214 8.768-9.848 11.11-14.776 2.34-4.927 5.261-5.214 5.551-1.74.29 3.475 0 6.662 2.341 6.955 2.341.287.29-4.927 2.341-1.16 2.046 3.767 7.603-.867 8.478-6.954.875-6.082-5.262-10.429-8.768-11.009-3.505-.58-2.045-4.347 1.46-5.214 3.507-.867 15.496 6.374 15.496 6.374s1.46-1.35-1.072-4.444c-2.532-3.09-7.603-4.445-12.864-7.144-5.262-2.705-4.092-10.233-.974-6.759 3.118 3.474 6.624 4.83 9.162 3.09 2.532-1.74-1.559-9.66-6.82-10.429-5.263-.775-3.118-5.214-1.56-5.018 1.56.195 3.9-.776 4.874-4.055.973-3.284-.782-5.989-3.703-2.51-2.92 3.475-3.315 3.67-4.874-3.284-1.558-6.954-1.558-19.696-.973-25.88.585-6.18 14.812-9.66 20.659-11.01 5.847-1.349 3.9 2.126 10.523 3.286 6.624 1.16 2.342-1.35 7.795-4.055 5.458-2.704 2.532-1.74 8.182-2.51 5.65-.774 10.72-.774 15.009-.774 4.288 0 .388-1.35-4.677-1.545-5.064-.195-8.964-.58-13.45-.195-4.48.384-4.676 4.25-10.72 2.894-6.044-1.35-6.624-2.32-11.306-2.705-4.677-.385-3.315-1.93-5.459-5.019-2.144-3.09-2.144-4.25-7.209-7.338-5.065-3.09-5.065-9.849-1.362-13.329 3.703-3.474 12.865-7.918 20.074-10.233 5.835-1.877 29.525-14.367 38.362-19.07-9.364 3.956-36.41 16.176-36.41 16.176l1.948-3.285s-25.533 9.849-31.768 10.233c-6.235.385-6.044-8.883-3.9-13.328 2.144-4.444 5.847-4.25 9.353-6.374 3.506-2.125 11.694-7.919 11.694-7.919s-11.885 5.794-14.03 6.954c-2.143 1.16-4.873 4.635-6.82.965s-4.288 7.534-4.873 10.813c-.586 3.285-8.183.195-8.768-3.09-.585-3.284 3.703-9.078 7.603-14.482 3.9-5.409 19.488-21.631 19.488-21.631l-8.182 6.758c-8.183 6.76-20.462 23.177-23.191 23.177-2.73 0-16.568-16.418-18.515-21.052-1.947-4.634-2.144-3.474-4.288-1.74-2.145 1.74-5.262 2.32-9.353-2.705-4.092-5.018-6.433-1.544-8.965-6.758-2.533-5.214.782-8.5 0-14.678-.783-6.179-3.9-2.51-9.747.58-5.847 3.09-6.82-4.83-6.82-8.884s-2.342-3.669-5.263-.384c-2.92 3.284.783 12.937-2.92 18.732-3.703 5.794 1.947 10.043-2.73 13.902-3.297 2.722-4.56-3.67-5.018-7.683.168 3.003.156 7.321-1.217 8.068-2.144 1.16-2.532-7.92-2.532-7.92s-4.48 6.955-6.433 7.34c-1.947.384-2.73-13.713-3.314-14.098-.586-.385.973 13.518-.783 15.062-1.756 1.545-3.9 2.125-5.65 9.08-1.756 6.953-5.459 12.167-7.794 12.552-2.341.385-1.559-4.444-5.065-10.233-3.506-5.794-2.92-11.778-5.262-11.008-2.34.775.974 14.098-.197 23.756-1.17 9.66-6.044 8.884-9.353 7.534-3.314-1.349-5.847 1.545-8.379 1.545-2.532 0-10.524-.965-13.45-1.16-2.92-.195 3.703 2.125 7.603 2.705 3.9.58 4.091 2.32 2.92 7.919-1.17 5.599-6.432.58-7.602 1.93-1.171 1.349 5.65 8.303 7.406 12.552 1.755 4.25-4.092 3.474-4.092 3.474s4.092 3.865 2.341 5.02c-1.75 1.153-14.811-3.67-21.829-5.99-3.738-1.235-19.233-3.945-32.915-6.214l20.734-17.83-.458-.815-20.659 18.582c-11.856-1.964-22.246-3.577-22.246-3.577s9.4 2.038 21.122 4.588l-8.75 7.867 9.069-7.798c19.285 4.192 44.65 9.71 45.009 9.825.51.167-8.408.04-11.01-.12 2.84.419 13.554 2.388 16.857 5.334 3.9 3.474 2.532 4.83 1.17 7.724-1.361 2.894-2.532 6.374-4.09 7.723-1.56 1.35-1.56-1.74-3.9-1.929-2.342-.195-.783 3.67-.783 3.67l-12.47.775s-2.145 1.544 3.117 1.93c5.262.384 7.209-.386 9.747 1.544 2.533 1.93-3.117 6.759-8.965 7.919-5.847 1.16-8.182 2.32-15.008 2.704-6.821.385-7.603 2.51-7.603 2.51s4.485.385 8.767-.385c4.283-.77 4.874-1.16 6.433-.775 1.559.385 3.117 5.41 0 8.499-3.118 3.089-4.677 8.303-4.677 8.303l4.091-5.214s.783 1.35.783 4.634c0 3.285-9.55 12.358-12.083 14.483-2.532 2.124-3.314 1.544-4.873.195-1.559-1.35-1.559 2.705-1.756 3.284-.197.58-7.018 7.144-7.209 7.724-.197.58 7.991-5.019 12.865-7.724 4.873-2.704 7.991-5.018 10.912-5.018 2.92 0 .585 6.178-6.236 9.658-6.82 3.475-13.64 3.09-15.785 7.34-2.144 4.249-1.362 8.883 3.9 10.812 5.262 1.93 5.065-2.704 4.874-6.374-.198-3.67 3.117-3.474 6.623-3.474 3.506 0 4.288-3.09 7.991-5.599 3.703-2.51 5.65-.58 8.577 4.054 2.92 4.634 2.73 9.079 1.17 11.008-1.558 1.93-2.92-.964-5.064-2.704-2.145-1.74-1.948 0-2.533 2.124-.585 2.125-4.676.196-4.676.196s.973 1.544 1.947 3.284c.973 1.74-7.21-.58-7.21-.58s5.066 1.93 5.46 3.67c.388 1.74-5.65 1.74-9.353 4.25-3.703 2.509-17.93 13.902-20.66 17.766-2.729 3.865-2.34 5.214 0 5.214 2.342 0 13.642-13.517 17.345-17.187 3.703-3.67 6.432-5.019 10.912-5.794 4.485-.775 3.9 0 3.9 0s.388.965 2.92 2.705c2.533 1.74-.973 1.35-.197 3.67.783 2.32 2.73-.965 3.703 1.544.974 2.51-9.353 15.062-12.279 18.542-2.92 3.475-1.362 7.92 2.532 2.125 3.9-5.794 8.577-9.659 11.497-13.713 2.921-4.054 1.362 1.545 2.145 5.019.782 3.474 2.34 1.832 2.92-1.642.586-3.474-.585-8.401 1.756-8.689 2.341-.287 3.216 6.954 6.432 13.903 3.217 6.954 5.552 9.561 6.433 12.455.875 2.894-6.722 1.447-8.768 2.607-2.045 1.16-3.506-.58-5.847-2.607-2.341-2.027-.875 6.374 4.387 7.534 5.262 1.16 4.091-2.027 6.722-2.027 2.63 0 .875 2.32-.875 5.501-1.756 3.187.29 4.927 4.387 0 4.09-4.927 4.386-2.894 6.722-1.74 2.34 1.16-2.046 3.475-4.387 6.082-2.341 2.607-.875 7.82 4.676 8.4 5.552.58 1.46-8.107 4.092-10.715 2.63-2.607 3.801 4.347 4.676 6.955.77 2.29 4.926 4.352 9.29 4.628-.986 7.43-9.058 31.37-11.81 33.283-2.863 1.987-.145-1.7-3.292-2.13-3.147-.431-3.581 3.548-6.728 5.955-2.051 1.573-2.341 2.543-4.323 3.026 1.75-2.165 3.64-5.289 4.647-9.108 2.637-9.951 2.637-15.946 2.637-15.946s-4.445 15.458-4.775 16.107c-.33.655-.626-2.119-3.935-11.749-3.308-9.624-8.71-32.795-8.71-32.795s3.431 33.122 6.885 39.812c2.99 5.789 3.268 10.233 1.153 13.972a44.12 44.12 0 01-3.025.086c-7.301 0-20.612-13.615-20.612-13.615s9.306 10.353 10.448 11.49c1.147 1.137-2.718 3.262-2.718 3.262s-13.74.281-18.891-.425c-5.152-.706-4.15-5.955-8.443-10.64-4.295-4.68-2.58-5.53-2.434-7.805.145-2.268-6.01-10.922-8.444-9.785-2.433 1.137-4.438 4.537-6.727 5.817-2.29 1.275.284 7.804.144 13.047-.139 5.243-4.722 10.072-8.588 10.64-3.865.57-8.014-6.098-13.027-10.64-5.012-4.537-7.011-5.105-7.875-2.98-.858 2.13-.608 12.616-2.376 17.284-1.767 4.669-8.24 6.61-14.325 8.947-6.085 2.337-10.79-.586-12.754-2.136-1.965-1.556-1.374-.39-12.952-1.361-11.578-.97-10.987-3.888-14.325-6.03-3.338-2.136-9.22 2.527-11.184 3.693-1.965 1.165-10.008-3.693-12.755-4.669-2.747-.97-12.163 2.136-11.775 3.308.394 1.166 3.923 5.248 1.964 6.805-1.964 1.556-6.67-2.918-9.416-2.918-2.747 0-3.53 5.64-3.338 7.776.197 2.136 9.028 8.36 11.184 9.917 2.156 1.556 15.107 11.083 13.148 14.58-1.964 3.497-16.874 15.556-22.17 19.053-5.297 3.497-3.727-16.722-3.727-18.473 0-1.752-4.317-13.414-4.317-13.414s1.57 12.639 1.57 14.39c0 1.752 1.965 24.888-1.57 25.474-3.53.585-5.1-5.054-7.65-8.557-2.55-3.497.395-6.219.395-6.219l-5.297-7s-3.338.97-2.944 1.752c.394.78 4.12 5.444 6.085 11.278 1.964 5.834-1.57 9.722-1.374 10.497.197.775 4.12 1.361 4.903 2.917.782 1.556-2.747 6.61-6.473 7.195-3.726.586-5.297-3.887-8.831-4.278-3.53-.39-10.205 3.308-12.952 4.083-2.747.775-2.747-3.497-6.276-5.639-3.53-2.136-9.81.775-9.22.586.591-.195 7.261 3.692 6.085 6.219-1.176 2.527-8.24-3.692-8.24-3.692s3.529 5.443 5.296 5.639c1.768.195 6.867 2.917 6.867 6.03 0 3.112-8.008 4.157-9.892 7.39-1.883 3.233 3.64 3.853 3.767 6.839.127 2.986-8.032 7.706-8.032 7.706s2.637-3.853 1.884-5.472c-.754-1.614-11.544-1.493-13.05-1.614-1.507-.126-.458-2.228-.69-2.923-.232-.695-.232-6.265-1.64-7.89-1.403-1.625-10.304-4.64-12.877-6.035-2.572-1.39-4.92 0-10.065 1.16-5.152 1.16-4.45.695-9.602-.23-5.152-.93-11.944 5.335-9.603 9.05 2.342 3.71 9.133 3.25 9.133 3.25s2.573 3.25 5.384 4.175c2.81.93 5.852 3.71 7.962 3.945 2.11.23 1.872-2.09 2.573-2.32.701-.23 4.92 0 7.724-1.16 2.811-1.16 9.133-.23 9.834-.23.702 0 11.474 1.855 9.365 3.48-2.11 1.626-4.682 0-5.621 1.855-.939 1.855 3.512 6.495 1.872 8.355-1.64 1.855-14.986-.93-15.455 0-.47.93-6.792 12.996-12.645 16.24-5.853 3.25-15.217-.23-15.217-.23s9.364 4.64 14.516 9.516c5.152 4.875-.701 12.294-4.45 15.544-3.75 3.25-14.047.465-14.047.465-.702 2.786 6.322 6.495 5.852 10.21-.469 3.71-3.98 12.065-3.511 15.08.47 3.015 0 12.295-2.341 12.295-1.78 0-15.137 1.602-20.567 2.17 4.972-.086 16 .66 15.415 3.164-.701 3.015-9.365 16.01-11.005 18.1-1.64 2.09-.938 26.686-.938 26.686-1.171-2.32-10.536-2.32-10.536-2.32-8.895 3.48-21.54 3.25-21.54 3.25 9.365 3.945 16.389-.695 23.882-.695 7.492 0 9.132 5.8 8.895 12.76-.232 6.96-9.602 17.4-8.664 16.475.94-.93 7.725-9.28 8.896-8.815.869.345 2.63 4.881 3.395 8.723-15.553 5.243-16.144 6.403-16.144 6.403-8.913 0-12.842 5.943-12.935 6.449-3.859 1.355-17.732 4.07-10.367 4.582 7.366.511 10.367-2.544 10.367-2.544s10.194-3.905 12.935-6.11c1.976-1.59 11.34-5.214 16.41-7.109.082.706.117 1.355.082 1.907-.232 3.71 2.81 5.8.939 10.21-1.872 4.41-7.261 12.995-13.114 18.795-5.853 5.8-3.28 1.854-6.322 1.854-3.043 0-12.407 12.995-11.944 14.155.47 1.16 5.621 3.945 10.304 4.41 4.682.466 12.876-5.104 15.455-5.57 2.573-.465 9.602 4.64 8.663 10.44-.939 5.8-3.512 11.835-7.26 15.08-2.922 2.532-5.97 3.227-7.18 3.417.66.017 1.796.379 2.729 2.388 1.402 3.015 7.023 5.105 8.895 3.945 1.872-1.16 3.743 3.71 1.872 6.265-1.872 2.55-5.384 3.71-4.92 4.41.47.696 4.213 3.015 6.322 3.015 2.11 0 .232 8.815.701 11.6.47 2.785 2.341 7.195 2.341 9.975 0 2.785-3.042 5.57-3.042 9.28 0 3.71 8.895 6.265 8.432 7.654-.47 1.39-6.792 7.425-6.792 7.425l4.45 3.71s2.573-3.015 5.621-4.87c3.043-1.855 4.451.695 4.683 4.175.232 3.48-1.872 6.265 2.34 9.975 4.214 3.71 14.517.465 14.987 6.035.469 5.57-3.744 16.705-5.152 17.865-1.402 1.16-.47 12.76-.47 12.76 9.603 2.784 16.389-15.316 16.389-15.316.469 5.105 5.62 2.55 6.554.23.938-2.32-4.683-8.815-1.171-10.44 3.512-1.625 9.602 3.945 9.602 3.945-1.402 14.155 8.617 17.543 8.617 17.543s-.197-2.894 2.341-3.67c2.533-.769 5.453 9.464 5.453 9.464s-.973-8.108 2.921-8.108c2.95 0 4.56 4.204 5.001 5.743-.174-2.229.65-10.572.65-10.572l5.064 3.474-3.118-5.794 3.315-.77s-3.894-1.74-4.677-2.314c-.782-.58 1.918-1.74 1.918-1.74s-2.619-1.987-4.08-5.72c-1.454-3.732 6.12 0 6.12 0s2.735 4.382 9.574 5.577c6.832 1.194 14.475-5.576 14.475-5.576s3.072 3.916 1.9 7.16c-1.17 3.25 2.342 12.065 2.11 8.815-.232-3.25 5.621-11.6 7.493-12.76 1.872-1.16 3.744 5.57 4.213 9.05.47 3.48-3.28-.23-6.554 0-3.28.23.939 6.036 1.872 7.425.939 1.39 1.402 5.8 1.64 9.516.231 3.71 1.871 4.174 1.871 9.05 0 4.875 1.872 9.05 4.683 10.44 2.81 1.39 5.383-3.25 6.554-8.356 1.17-5.105 1.64-6.265 4.914-9.745 3.28-3.48 5.853-3.25 6.322-4.41.47-1.16-2.341-9.28-1.64-10.21.701-.93 21.777 19.955 21.308 19.025-.47-.93-17.559-19.025-18.028-20.88-.47-1.854-.47-5.334-1.17-8.814-.702-3.48-7.024-9.516-7.493-12.065-.47-2.55 3.28-5.8 3.98-5.8.702 0 0 3.48.233 5.335.231 1.855 6.322 4.41 8.663 3.945 2.341-.465 10.066-7.655 12.407-10.44 2.341-2.785 1.64-8.355 2.573-9.05.939-.695 4.682 3.945 4.682 3.945l3.981-.93s-2.34-4.876-.939-7.655c1.403-2.785 3.982 6.035 3.982 6.035s.469-1.625 2.34-3.25c1.873-1.625-.469 2.785-.469 2.785s4.683.465 9.365.465c1.541 0 3.488 1.005 5.39 2.269-.812.614-1.89 1.16-3.084 1.039-2.555-.253-6.64-.253-6.64-.253s1.02 2.533-.51 3.038c-1.53.505-2.556 2.28-3.831 3.796s-2.3 1.01-3.83 1.516c-1.53.505-.255 2.785-.51 4.554-.255 1.768-4.85 1.768-7.916 1.263-3.066-.505 3.575 2.28 3.575 3.796s-5.105 5.817-5.87 7.844c-.765 2.021 1.53-.758 4.34-2.022 0 0 1.02 4.554-1.02 7.845-2.04 3.29-3.32 7.086-3.32 7.086s6.125-8.097 7.15-5.817c1.02 2.28 3.831 10.882 9.192 10.882 5.36 0 7.15 2.027 8.68 3.29 1.53 1.263 1.785-2.021 2.556-2.785.77-.764 5.36-8.097 6.64-7.844 1.276.252 12.257 10.118 12.257 10.118s-7.15-8.097-5.615-9.866c1.53-1.768 7.15-6.833 7.15-6.833s3.066-1.01 3.066 3.038 3.066 5.564 3.066 5.564-2.04-6.58.51-7.591c2.555-1.011 7.15-1.516 9.19-2.533 0 0 3.321 6.834 3.066 8.855-.255 2.021-6.125 7.339-6.125 7.339l9.19-6.07c.765-.505 2.301 5.06 7.916 5.06 5.181 0 10.35-3.865 11.324-5.066-.783 1.534-3.715 8.717 2.208 9.366 6.895.758 10.21-5.311 10.21-8.602 0-3.29-6.125-5.817-6.125-5.817s1.785-5.059 2.556-5.059h6.125s-.255 18.726-.51 21c-.255 2.274 4.85-8.855 7.15-5.817 2.301 3.038.766 7.844.766 7.844s5.105-5.564 6.125-3.29c1.02 2.28-1.02 9.107-1.02 9.107s2.81-7.591 6.125-7.591c3.32 0 5.615-2.027 6.386-2.28.765-.253 4.086 8.35 3.83 9.613-.156.764-1.413 3.078-2.677 4.967 2.423-2.446 5.992-5.53 6.763-4.462 1.275 1.769 2.046 4.049 2.81 4.049.766 0 2.811-3.038 2.811-3.038l.765 5.059 2.3-4.554s3.576 5.312 4.341 4.807c.765-.506 0-5.312 1.785-6.329 1.785-1.01 7.15-.505 8.426.506 1.275 1.01-1.275-2.027.255-5.06 1.53-3.037 3.575-4.3 5.87-5.564 2.3-1.263.255-3.543-.765-5.059s-1.53-5.817-.255-6.07c1.275-.252 2.556-.758 2.556-.758s-3.83-.505-5.106-2.027c-1.275-1.516-2.81-8.602-2.81-8.602s-.255 1.263-5.106 1.516c-4.85.253-6.386-4.554-6.386-4.554s-.255 1.77-4.085 2.28c-3.83.505-7.406.253-7.916 1.516-.51 1.263-1.53 6.834-3.575 6.834-2.04 0-4.596-.253-4.596-.253s-2.555-5.817-2.3-9.108c.255-3.29-1.275-2.027-2.04-1.263-.765.758-3.83-.505-3.83-1.263 0-.758-2.556-1.516-2.556-1.516s.765 1.768-1.275 1.768-3.83-1.01-4.595-1.768c-.765-.758-1.275.758-3.576 3.038-2.3 2.28-5.615 4.3-5.615 4.3s-2.3-2.28-2.556-3.795c-.255-1.516-1.53-5.06 1.53-6.328 0 0-5.36-3.543-5.36-4.554 0-1.01-3.066-6.328-3.066-6.328s-.51 1.516-5.105 2.28c-4.595.758-4.16-5.565-4.16-5.565s-3.246 1.769-5.03 3.038c-1.786 1.263-4.851.758-5.106-2.785-.255-3.543-1.785-5.817-1.785-9.108 0-3.29-1.02-1.768 0-3.795 1.02-2.028-1.02-4.302-1.02-4.302s-3.575 4.807-4.34 5.818c-.765 1.01 4.595 1.516 5.36 5.564.765 4.048-5.615 4.806-8.68 5.564-3.066.758-1.936-7.626-1.936-7.626s-1.64 8.895-3.686 9.148c-2.045.253-4.34-2.28-5.105-2.28-.765 0-5.87.758-7.916 1.011-2.04.253 1.785-6.58 1.785-6.58s-2.04 3.29-6.641 4.3c-1.6.35-3.263.178-4.752-.195-.527-2.624-1.09-5.685-1.09-7.73 0-3.25 3.744 1.16 3.744 1.16s-.47-2.784-.232-8.355c.232-5.57 1.403-2.55 4.92-3.48 3.518-.93 4.683-5.104 4.683-5.104 2.109.93 2.34 10.44 3.042 14.85.701 4.41 6.554 4.64 11.236 3.25 4.683-1.39 2.341-9.05 2.573-10.21.232-1.16 7.725-4.175 7.962-6.495.232-2.32-3.98-8.12-3.98-8.12s1.17-2.09 7.26-3.25c6.09-1.16 5.384-1.39 7.261-2.32 1.878-.93 3.982 4.175 3.982 4.175s.469-5.8 3.743-6.036c3.274-.235 3.28 4.87 4.45 2.32 1.171-2.55 2.11-.465 5.384.695 3.28 1.16 8.663 8.12 10.535 12.53 1.872 4.41 5.853 3.48 8.895 7.195 3.043 3.71 3.981 6.73 3.981 6.73l1.403-4.174s.701 1.855 3.042 2.785c2.341.93 8.194-2.32 8.194-2.32.701 1.855-6.09 8.585-6.09 8.585h2.573l.7 6.73s4.214 2.785 6.323 2.55c2.11-.23 4.45-.23 5.853 1.39 1.402 1.624 4.213 2.32 3.981-.23-.232-2.55-1.872-11.6-.232-11.37 1.64.23 4.45 2.09 7.493-.23 3.042-2.32 11.474 1.855 11.474 1.855s-4.914-4.41-4.45-4.64c.469-.23 6.09-3.945 9.132-4.41 3.043-.465 10.304 3.014 10.304 3.014s-1.403-1.39-1.403-3.71c0-2.32 6.323-3.479 7.963-2.784 1.64.695 7.962 2.785 9.132 1.625 1.17-1.16 3.512-2.32 6.554-1.625 3.043.695 2.573 5.335 2.573 5.335s.702-1.855 3.512-2.786c2.81-.93 16.388 3.71 22.479 5.8 6.09 2.09 1.402 14.385-.47 16.705-1.872 2.32-8.194 19.72-13.114 25.06-4.914 5.335-10.535 9.745-11.236 16.94-.701 7.195 6.09 6.265 9.365 4.876 3.274-1.39 8.431-14.85 9.132-17.17.701-2.32 13.346-22.04 17.796-27.38 4.451-5.335 20.839-6.495 25.29-4.87 4.45 1.625 16.625 6.96 16.625 6.96.47 6.035 8.432 14.385 8.895 13.69.464-.695 5.853-.695 8.432.465 2.573 1.16 3.042 13.225 3.042 13.225s.232-4.875 1.64-7.195c1.403-2.32 7.024 3.48 10.773 3.945 3.75.465 15.217-14.85 17.796-16.01 2.573-1.16 7.024 4.41 12.175 9.05 5.152 4.64 9.834 8.355 10.773 3.48.939-4.87-1.402-15.545-2.11-18.795-.672-3.285 5.888-4.91 8.23-7.925zm36.694-218.155l1.49.448s-2.44 2.044-4.4 3.893c-4.838 1.643-10.088 3.101-10.088 3.101s-1.698 3.578-1.912-.844c-.105-2.079 7.214-4.576 14.91-6.598zM573.857 75.218c.185.787 2.173 3.032 1.53 3.974-.643.941-1.345 3.095-3.002 1.94-1.651-1.154-3.674-6.219-3.581-14.746 0 .006 4.868 8.045 5.053 8.832zm44.128 271.921c-1.275 1.264-9.138-.844-8.5-1.476.248-.246 1.13-3.904 2.103-8.24.04-.172.08-.35.116-.528.26.735.556 1.424.875 2.056-1.634 5.644 6.594 7.005 5.406 8.188zm146.247 186.624c-.307 1.062-3.228 3.192-5.575 4.766-1.988-2.246-1.42-7.965-.887-11.255.423.264.852.545 1.281.844 2.59 1.797 5.696 3.853 5.18 5.645zM739.534 497.9c.898-5.943 4.23-8.533 6.12-9.538.347 2.808 1.199 5.926 3.824 7.43 4.92 2.82 11.393 3.079 12.424 5.387 1.037 2.308 0 5.903-2.33 4.617-1.315-.724-2.05-1.447-2.445-1.941.417.844.765 2.418-1.176 3.997-1.68 1.36-9.718 1.717-14.61 2.055-1.883-3.158-2.497-7.459-1.807-12.007zm2.37 12.88c3.691-.31 9.463-.792 10.935.666 1.292 1.281.87 2.757.25 4.124-1.166-.173-2.55-.38-4.208-.61-3.042-.436-5.372-1.957-6.977-4.18zm6.554 18.284c-1.385-1.188.324-3.732 2.695-6.23-.087 1.441.098 2.578.91 2.463 1.332-.19 3.088.46 4.954 1.528-3.512 5.288-5.69 4.703-8.56 2.24zm-216.403 294.92c.222-.114.585-.515.945-.984-.688.599-1.167 1.096-.945.984z"/><path d="M532.46 771s.06.428-.02 1c.26-.55.02-1 .02-1zm-4.668-2.433c-5.125.58-17.039 9.36-15.686 12.224 1.353 2.864 4.178.293 9.93-4.077 5.75-4.37 5.452-4.657 7.866-4.945 1.61-.195 2.009-5.951 2.098-9.769-.226 2.737-1.132 6.216-4.208 6.567zm33.031 91.101c-4.564-3.262-8.916-3.668-8.916-3.668-6.634.817-7.466 7.336-7.879 11.41-.412 4.074 3.733 8.147 7.879 8.559 4.145.406 10.367-3.263 11.198-5.296.832-2.04 2.282-7.742-2.282-11.005zm62.813 38.942S617 903.452 617 906.682c0 3.23 4.925 11.07 9.206 11.302 4.28.231 7.923-2.074 9.42-5.304 1.496-3.23 2.14-7.84 0-10.146-2.14-2.306-7.703-5.998-11.99-3.924zM658 928c-.588.562-1 1-1 1s.49-.34 1-1zm20.009 0c-.057.355.155.69.667.918.677.3.216-.277-.667-.918zm.375-9.13l.05-.07c.41-1.03.01-.76-.05.07z"/><path d="M686.449 905.002c-.856 0-1.424-2.332-3.705-4.665-2.28-2.332 0-5.995 0-5.995s-1.706-.336-6.835-1.666c-3.109-.812-3.493-2.472-3.445-3.29-.65 1.578-5.4-.367-6.526.292-1.137.665-3.418 2.998-5.98 3.663-2.561.665-.855-3.333-2.28-3.333-1.424 0-3.417-2.333-2.848-4.335.568-1.996 1.614-30.673 1.614-30.673-1.176 9.626-3.261 25.121-3.57 27.384-.52-.995-4.923-4-7.16-3.708-2.562.336-2.28-2.332-2.28-2.332s-2.562 1.331-4.555 5c-1.993 3.663-2.28 3.663-1.424 7.333.855 3.663 1.706 1.666 1.424 5.33-.287 3.662 1.424 11.33 1.706 9.993.287-1.33 1.706-4.334 3.418-2.997 1.706 1.33 1.993 7.662 1.993 7.662s1.993-3.663 1.993-1.002c0 2.668 4.273 9.665 4.273 9.665s-.287-5-.287-7.662 4.274-.665 6.835-.665c2.562 0 .287 3.333 1.706 7.661.835 2.542-.384 4.392-1.538 5.489 1.452-1.027 3.57-2.421 4.956-2.82 2.28-.666 4.273 7.661 4.273 7.661l2.28-1.996c1.24-1.084 3.147 1.071 4.36 3.004a4.45 4.45 0 013.613-4.005c3.418-.666 6.835 5 4.842 1.996-1.993-2.998 1.138-5.995 1.425-8.334.287-2.332 4.273-1.996 4.273-1.996l-3.418-6.667c.011.007 1.723-3.992.867-3.992zM783 845c-.526-.657-1-1-1-1s.533.843 1 1z"/><path d="M782.957 844.355c-.41-3.913-4.529-13.88-6.583-15.3-2.059-1.422-3.91-6.055-3.91-6.055s-3.91 1.07-5.35 6.054c-1.441 4.984-4.114 5.694-4.114 5.694s2.47 2.852 2.47 8.186c0 2.36-.805 2.842-1.703 2.643 1.254 1.024 2.629 2.53 3.143 4.472 1.03 3.913-1.03 11.038-1.03 11.038s1.852-1.421 5.143-2.852c3.292-1.42 2.06 3.203 2.47 4.273.411 1.07 2.06 1.781 2.47.36.411-1.42 2.06 2.132 2.06 2.132s1.03-.36 1.85-1.781c.822-1.421 3.495-14.95 3.084-18.864zm151.947-65.558c2.712-1.588 4.069-1.056 4.069-1.056s-1.357-1.319-1.694-3.7c-.337-2.374-.337-6.073 1.694-6.073 2.038 0-5.762-3.168-4.07-6.074l1.694-2.906s-3.732.532-7.463-2.374c-3.732-2.906-7.464-6.336-10.85-6.599-3.395-.262-7.8 2.906-7.8 2.906s-5.089.531-5.426-2.112c-.337-2.643 0 4.755 1.694 5.018 1.693.262.674 8.979 1.356 9.766.682.794-7.118-1.318-9.494-2.374-2.375-1.056 2.376 3.961 10.176 3.168 0 0 2.713 7.392.682 8.98-2.038 1.586-4.405 1.849-4.405 1.849s7.463 1.85 11.532 1.056c0 0 3.05 8.448 5.088 8.186 2.038-.263 1.693-6.074 6.78-3.962C933.557 784.608 940 792 940 792s-7.809-11.616-5.096-13.203zm-185.652 235.452s-3.455-7.032-6.622-9.699c-3.168-2.666-7.779-3.392-9.79-1.457-2.018 1.94-4.603 6.058-1.149 10.666 3.455 4.607 5.473 4.849 9.215 5.816 3.742.968 4.317 2.425 4.317 2.425s.861-3.392 3.454-4.85c2.593-1.444.575-2.901.575-2.901zm50.792-152.799c-2.877-1.489-12.114-5.45-12.114-5.45s-1.734 7.426-4.034 9.412c-2.312 1.986 0 5.45 5.19 8.419 5.19 2.968 10.38 2.471 12.693.993 2.3-1.49 1.143-11.895-1.735-13.373zm46.526-131.255a14.197 14.197 0 00-5.096.074c-4.47.867-7.205 4.646-6.302 8.372.313 1.282.635 2.438.912 3.016.84 1.734 6.284 8.343 10.066 8.343 3.781 0 8.385-4.868 8.805-8.684.42-3.816-2.1-10.076-8.385-11.121zm14.765-62.287c-5.33-2.823-3.668-11.774-5.999-10.84-2.331.944-10 3.767-12.666 8.007-2.665 4.24-4.67-1.889-4.67-1.889s-.668 15.08-1.663 16.023c-1.002.945-10.335.945-11.337.945 0 0 10.669 2.823 12.666 5.656 1.997 2.823 0 13.19 0 13.19s4.997-.472 9.667-4.712c4.67-4.239 10-5.183 14.002-9.423 4.002-4.24 5.665-17.43 5.665-17.43s-.334 3.306-5.665.473zM809.53 657l-4.53 7.744S817.454 677 823.488 677c6.042-.014-7.547-1.94-13.959-20z"/><path d="M844.893 677.96C843.183 677.865 825 677 825 677c2.279 1.057 21.602 1.057 19.893.96zM835 678c4.73 15.075 21.275 22.253 19.922 19.376C853.575 694.514 835 678 835 678zm82.302 30.084c-4.349-3.615-20.34-21.397-19.249-18.832 6.52 15.201 23.591 22.447 19.249 18.832zm-21.694-71.71c1.71.286.171-6.85.853-7.987.686-1.143 1.539-1.423 1.539-1.423s-2.563-1.143-2.563-4.562c0-3.418.514-11.125-.854-9.981 0 0 1.71 6.563-1.196 6.277-2.906-.286-3.42-2.281-5.302-2.281-1.881 0-1.881 4.562-4.616 1.71-2.735-2.854-7.012-8.273-8.38-9.703-1.367-1.423-2.734 3.14-3.42 1.996-.685-1.144-4.106-5.42-4.616-5.42-.514 0 2.906 3.424 2.735 6.277-.172 2.853-1.882 4.562-2.396 5.992-.514 1.423 3.763 14.835 3.934 16.258.172 1.423-2.053 5.706-1.71 9.416.343 3.71.686-7.7 3.42-7.129 2.735.572 3.25 5.706 4.96 4.848 1.71-.858 1.881-4.562 4.616-4.276 2.735.286 4.274 1.71 4.106 3.424-.15 1.509-.569 6.132-.664 7.19.113-1.174.77-6.624 3.06-6.624 2.563 0 4.445 2.281 4.445 2.281s.339-6.57 2.049-6.283z"/><path d="M876.53 625.315c-.04.23-.06.37-.06.37s.03-.14.06-.37zm.174-62.315c.363-2.917.363-11.638.156-17.472-.208-5.82-.416-.73-.78 6.548-.364 7.293.624 10.924.624 10.924zm29.947-36.203c1.78 3.172 7.118 5.555 9.409 5.16 2.29-.394 2.032-5.554 1.78-8.331-.253-2.777-2.291-7.14-5.598-9.926-3.306-2.777-3.054-1.586-6.36-.394-3.307 1.191-7.882 6.351-7.882 6.351s1.78 1.989 3.56 2.383c1.784.394 3.306 1.586 5.091 4.757zM782.845 512c-.33-.624-.69-1-.69-1s.16.394.69 1zM509.664 912.144c-1.071-1.75-1.872-3.498-1.872-3.498s-1.873 3.255-2.944 3.002c-1.072-.252-3.215-2.497-4.286-3.498-1.072-1-1.873 3.255-2.944 5.004-1.072 1.749-1.342 4.003-2.944 4.75-1.603.749-2.674 3.255-2.674 3.255s1.602-1.496 2.944 2.254c1.342 3.75 1.342 2.002 1.342 3.75 0 1.75 3.214.253 4.556 0 1.342-.252 3.485 0 3.485 0s-.27-2.253 4.015-3.497c4.286-1.253 3.746-5.004 3.485-6.753-.29-1.767-1.091-3.02-2.163-4.77zm2.608-14.71c-.312.163-.382.462-.07.515.312.055.798.136.798-.19 0-.325-.45-.759-.45-.759s.034.272-.278.434zm8.945-34.844c-3.32-2.058-7.752-5.353-9.136-6.59v3.295c-.831 6.591 4.984 16.884 4.984 23.059 0 6.175 6.647 15.646 6.647 15.646l1.105-3.701c1.104-3.702 2.767-.416 5.262-1.237 2.489-.822 2.216-6.997 1.105-12.351-1.105-5.354-6.64-16.062-9.967-18.12zm-56.989-3.769c-8.838 2.333-3.796 15.205-3.796 15.205s10.737 3.513 15.794 1.166c5.057-2.333 1.898-12.858.638-16.961-1.261-4.09-3.797-1.743-12.636.59zm-11.496-34.791c-3.977.318-6.253.318-10.237 6.326-3.977 6.015-5.405 11.703.287 12.973 5.686 1.262 9.096.63 10.517-.95 2.139-2.38 5.973-8.86 5.686-12.654-.287-3.795-2.276-6.008-6.253-5.696zm25.185-20.69c-4.516 2.3-5.209 5.465-9.725 7.476-4.381 1.952-7.129 8.228-9.192 11.222.35.02 1.37.086 4.325.277 4.516.29 10.77 2.01 12.155-1.438 1.386-3.448-2.78-4.602-3.473-7.186-.693-2.585 10.427-12.653 5.91-10.352zm-18.537 41.38c.08-.13.16-.28.24-.42l-.24-.02v.44zm120.856 9.445c-3.391-.28-15.236-.12-15.236-.12l1.126.28s5.644.558 8.466.639c2.822.08 7.34.04 9.592-.24 2.266-.279-.556-.279-3.948-.559zM113.893 411.24c1.51 1.754 1.909 3.846 1.102 5.76 2.716-.914 2.022-3.779 4.778-4.65.796.95 2.41 1.583 4.094 1.914 1.184.233 2.552.337 3.655-.018 1.102-.356 1.715-1.307.95-1.896 2.133 1.27 4.695 2.276 7.482 2.938 1.43-1.337 2.502-2.815 3.175-4.349 2.165.57 4.615-.601 5.462-1.932.848-1.325.725-2.81 1.409-4.166a37.371 37.371 0 01-6.87-.724c1.275-.963 2.092-2.14 2.347-3.361-.265 1.306-4.971 1.693-6.503 1.57-2.532-.196-5.676-5.233-8.096-5.325-2.235-.086-2.572 4.589-4.91 4.466-3.37-.178-7.259-1.908-10.28-2.803-1.226.926-1.246 2.35-.052 3.288 1.052.828 3.053 1.607 2.41 2.576-.592.896-2.726.78-4.298.565-1.562-.221-3.818-.098-3.992.859 1.848.6 3.992.858 6.085.73.755 1.79-1.297 3.84-4.298 4.263-1.205.172-2.553.129-3.543.565.858.963 3.063 1.165 4.819.895 1.756-.257 3.318-.877 5.074-1.165zm1.391-66.623c.06-.03.22-.11.46-.24-.38.18-.56.27-.46.24z"/><path d="M98.202 349.046a225.51 225.51 0 017.156-3.167c7.053-.117 15.195-.111 16.798.522 3.385 1.328.127 6.405 3.264 5.561 3.137-.844 3.765.122 5.27 1.694 1.506 1.572 2.134 3.867 7.653 4.35 5.518.483 3.638 6.888 8.153 7.255 4.516.361 3.893 4.955 3.137 7.133-.755 2.178 1.76 4.35 2.382 0 .628-4.35-1.378-5.439-.877-7.133.502-1.694 6.02 3.989 6.903 4.833.876.845.127-6.405 3.01-4.472 2.883 1.933 4.394 2.661 10.16 2.9 5.773.244 10.668 1.089 12.295 1.694 1.632.606 4.394 6.767 5.016 7.617.629.844-2.006-6.65-.876-6.528 1.13.122 6.274.245 7.906 2.056 1.632 1.81 1.88 2.9 3.892 3.022 2.007.122 2.382.966 2.509 4.594.126 3.627-.756 5.077-1.632 6.044-.877.966 3.263 1.694 3.511 4.833.254 3.144-2.133 3.75-1.758 7.494.374 3.75 3.01 4.955 4.642 5.438 1.632.484 2.006-.25 4.267.961 2.26 1.211-2.134-.85 3.765 0 5.9.85 5.27 1.095 3.385-.722-1.88-1.81-3.511-3.505-2.381-5.683 1.13-2.177.876-.605.127-3.505-.75-2.9.126-2.778.876-3.628.756-.844.375-2.777 2.007-3.627 1.632-.845 1.632-2.778 2.883-4.233 1.257-1.45 4.014.727 3.892 2.538-.126 1.811-1.88 3.145-3.01 2.178-1.13-.966.502 3.022 1.379 5.683.876 2.661 3.01 2.661 4.515 3.628 1.505.966-1.257-2.178-2.007-5.439-.75-3.26-.87-3.505 2.45-5.077 2.596.089 2.694.183 6.298 1.588 3.604 1.406 5.068 2.25 6.233 9.95 1.17 7.694 1.655 9.855 2.047 5.066.392-4.788-3.408-13.421-2.243-15.766 1.17-2.344 1.851-.283 3.506-1.594 1.655-1.316 2.434-4.222 4.97-4.316 2.532-.095 7.405-.845 6.136-1.128-1.268-.283-3.8.189-3.702-1.594.098-1.784 1.655-1.595 3.506-3.378 1.851-1.783 0-2.344 3.506-1.5 3.506.845 17.83-.939 11.107-.844-6.724.094-1.95-.656-2.728-2.628-.778-1.972-2.531-3.005-3.31-3.283-.778-.283 1.753 2.911.294 4.411-1.459 1.5-6.233.189-7.306-1.222-1.072-1.406-.196-6.755.294-8.072.485-1.316 2.047-5.538 1.753-5.35-.294.19-2.433.19-3.218-.844-.778-1.033-2.335-1.972-4.382-1.972-2.047 0-4.094-3.566-3.218-4.972.877-1.405.196-6.572 1.269-7.977 1.072-1.406 2.531 2.627 4.094 5.16 1.557 2.534-.392-2.816-.098-4.127.294-1.316 9.255-2.25 4.579-2.344-4.677-.095-5.651 3.472-5.357-.467.294-3.944 2.047-3.755-.975-6.383-3.022-2.627-8.085-11.171-8.379-14.077-.294-2.91-1.072-5.444 1.46-5.538 2.53-.095 10.621 1.689 13.349 4.127 2.727 2.44-2.145-6.1-14.613-6.666-.196-7.977 3.899-9.2 4.095-6.944.196 2.25 2.335-1.972 3.12-2.816.778-.845 2.046 3.283 2.629.56.582-2.721-2.826-3.099-1.753-4.316 1.072-1.222 3.217-3.377.196-7.694-3.022-4.316 7.306.656 7.698-2.627.392-3.283-4.578-3.472-7.698-5.539-3.12-2.066-4.383-5.822-3.898-9.01.484-3.189 9.157-3.756 4.186-6.005-4.97-2.25-3.218-3.378-7.894-5.35-4.677-1.972-4.48-4.41-2.924-7.788 1.557-3.378 3.218-3.472 3.408-8.167.196-4.694 9.157-7.227 4.187-10.982-4.971-3.755-6.136.844-6.234-4.222-.098-5.066 5.455-6.755 5.161-10.044-.294-3.283-2.63-3.944-5.749-.939-3.12 3.006-2.826-2.25-5.553-1.594-2.728.655-10.91 2.439-9.353 4.883 1.557 2.439 5.65 2.816 3.408 3.189-2.244.377-6.822.75-8.771-.656-1.95-1.405-5.945-1.033-5.069-4.505.877-3.472 2.145-6.666-.974-9.76-3.12-3.1-4.187-7.04-5.456-3.662-1.268 3.378-5.068 1.69-4.578.19.484-1.5 10.622-12.389 10.132-18.96-7.012 10.043-10.813 18.02-12.664 17.176-1.85-.844-4.284-6.005-2.243-8.821 2.047-2.817 7.797-5.35 4.187-8.822-3.604-3.472 1.268-5.16-3.8-6.477-5.07-1.317-3.604 2.627-2.244 3.85 1.367 1.221 1.655 4.127.583 6.571-1.073 2.439.392 5.91-1.269 8.072-1.655 2.16-3.8 1.689-7.404-.095-3.604-1.783-12.08-4.033-9.451-6.944 2.63-2.91 7.796-4.883 4.774-5.35-3.021-.466-6.723 0-8.378-2.344-1.655-2.344-6.234-4.316-5.75-5.816.485-1.5.877-5.91-.778-2.533-1.655 3.377-.778 4.694-3.408 4.694s1.557-4.972-.68-3.189c-2.243 1.784-2.145 5.256-4.48 3.378-2.336-1.878 3.701-7.322.68-4.6-3.022 2.722-2.63 3.661-3.899 1.406-1.268-2.25-4.774-3.006-4.676-5.539.098-2.533 1.753-4.972-.294-3.283-2.047 1.689-.485 1.972-5.161 1.783-4.677-.189-7.11.19-8.863.284-1.753.094-4.383-1.784-.975-2.534 3.408-.75 6.92 1.317 4.094-1.5-2.825-2.816-6.723-1.877-8.863.562-2.145 2.438-4.774-2.345-4.48 0 .294 2.344 1.17 2.816-.196 3.85-1.367 1.033-6.724 3.377-7.012 3.85-.294.466-1.073-1.784-1.95-.095-.876 1.688-4.382-.94-4.97.094-.583 1.033-3.604 1.594-3.898 1.594-.294 0 .778-6.1.778-5.633 0 .467 3.506-5.588 2.745-4.938 0 0-4.013 3.144-4.896 6.527-3.137.122-9.537-7.494-8.407-5.2 1.13 2.295 1.995 2.9-.133 3.384-2.128.483-4.382-2.056-5.766-3.383-1.384-1.328.253 3.144 0 4.716-.254 1.572-9.284.483-5.144 1.45 4.14.966 2.635 4.955 1.759 5.316-.877.361-4.515.728-7.277 6.283-4.896-8.46-18.569-21.76-14.682-15.349 3.892 6.405 16.06 14.266 13.176 16.682-2.883 2.417-10.16 5.922-15.183 11.727-5.016 5.8-3.137 9.305-3.263 12.694-.127 3.383-1.88 3.26-1.88 8.338 0 5.078 2.133 8.1-3.264 5.317-5.398-2.778-9.411-1.572-7.78 1.572 1.633 3.144 8.282 10.999 8.408 15.832.127 4.833-2.762 7.977-3.385 8.46-.622.484 4.77.728 4.14 1.812-.628 1.088-2.508 2.538 0 2.294 2.51-.245 2.134-.122 2.134 2.66 0 2.778 2.26 3.506 1.505 6.767-.755 3.261-10.54 7.133-8.153 7.133 3.892-.122 7.15 1.328 8.032 3.75.877 2.416 1.76 5.683-4.14 8.338-5.9 2.661 5.645-.122 7.15 0 1.505.122 5.398 5.433 4.014 8.033-1.378 2.6 3.137-.178 6.522 3.688 3.385 3.867 9.157 8.583 4.267 11.966-4.896 3.383-8.534 7.739-2.762 7.617 5.772-.123 11.17.727 14.053 3.26 2.883 2.54 8.154 5.439 9.659 6.044 1.505.606 1.257 2.9-1.13 3.75-2.382.845-10.161.484-14.18 1.211-4.02.728 11.417.484 16.06 1.45 4.641.967 17.69 1.811 5.771 3.989-11.919 2.177-20.828 5.438-11.544 3.866 9.284-1.572 19.058-3.144 16.429-1.45-1.442.928-6.603 3.956-11.09 6.544-2.952.461-6.002.822-8.73.95-5.045.24.225.011 7.306-.128-2.571 1.484-4.751 2.723-5.5 3.123zm20.31-7.606c1.96.228-3.137 1.778-9.746 3.022 4.227-1.705 8.39-3.177 9.746-3.022zM53 147a4.423 4.423 0 00-1-1c.278.383.61.718 1 1zm-10.015-.202a.178.178 0 00.013-.08l.002-.236c0-.15-.05-.153-.14-.218-.075-.054-.12-.14-.193-.195-.098-.077-.221-.078-.333-.058-.084.014-.237.048-.297.131-.043.061-.067.136.034.147-.018.049-.039.102-.044.156.018.003.035.02.05.024-.01.043 0 .089-.002.13.037.004.064.03.073.074.008.041.005.087.025.123.026.045.078.055.124.05.047-.003.094-.015.137.003.075.031.118.146.198.15.033.003.063-.015.093-.032l.2-.116a.118.118 0 00.06-.053zm-23.555-.48c-1.235-1.24-2.965 1.509-4.076 2-1.65.725-3.388-.374-5.047-.48-1.917-.116-3.755 1.018-5.633 1.568-1.072.316-2.2.456-3.17 1.216-.97.76-1.736 2.42-1.44 4 .228 1.193 1.002 2 1.793 2.362.798.363 1.643.398 2.457.632.14.035.297.105.36.292.062.199-.008.421-.07.608-.713 2.012-1.425 4.035-2.137 6.047 3.13 1.274 6.416 1.707 9.656 1.274.735-.093 1.479-.245 2.136-.748.563-.421 1.025-1.088 1.487-1.731 1.048-1.485 2.097-2.982 3.145-4.468.438-.631.884-1.754.407-2.315-.806-.96-1.056-.585-.736-2.421.204-1.181.736-2.14 1.041-3.24.337-1.228.767-3.66-.172-4.596zm54.85.396c.058.083.004.199-.05.286a.952.952 0 00.3-.055c.24-.082.472-.29.47-.556 0-.299-.578-.468-.8-.352a.386.386 0 00-.2.345c.01.236.175.184.28.332zm-22.207 72.857c.156.119.35.194.475.345.016.02.031.04.051.056.052.039.128.035.185.002a.355.355 0 00.127-.145c.096-.177.191-.869-.157-.827-.136.016-.245.208-.368.262-.09.04-.457.045-.374.24.013.028.037.05.06.067z"/><path d="M72.702 212.2c.418-1.257.442-2.713-.222-3.859-.356-.61-.885-1.095-1.4-1.568l-5.827-5.303c-1.008-.921-2.053-1.855-3.344-2.278-3.503-1.133-4.793 3.037-6.883 4.967-1.131 1.045-2.237 2.44-1.991 3.983.209 1.32 1.352 2.253 1.93 3.448.995 2.042.393 4.805 1.978 6.411 1.205 1.232 3.22 1.195 4.831.585 1.61-.61 3.012-1.668 4.61-2.303.418-.174.921-.299 1.303-.062.258.162.405.448.651.622.824.61 1.88-.348 2.47-1.195.714-1.07 1.476-2.178 1.894-3.448z"/><path d="M55.784 219.144c1.806.076 3.207.18 4.709.276 3.582.23 7.828.427 12.507.58-.376-.133-1.4-.259-2.917-.36-1.17-.079-2.6-.142-4.03-.205-2.773-.123-5.59-.247-8.694-.34-.665-.02-3.64-.123-4.218-.088-.823.05 2.196.119 2.643.137z"/><path d="M52.107 220a.523.523 0 00.213-.313c.016-.09.007-.193.139-.25.06-.027.141-.038.213-.053.129-.028.248-.079.302-.147.053-.07.025-.156-.085-.202-.126-.052-.308-.04-.455-.005-.148.035-.28.084-.434.103l.047.045a2.6 2.6 0 00.06.822zm.099-31.113a.188.188 0 00.099.09c.154.064.377-.02.476-.107.266-.236.292-.535.065-.78a.212.212 0 00-.09-.064.529.529 0 00-.207-.026 1.583 1.583 0 00-.549.1l.06.028c-.051.254 0 .513.146.759zM74.167 219.8c.201.103.408.169.617.196.058.009.123.009.168-.057.07-.1.053-.292.018-.44a2.261 2.261 0 00-.178-.499l-.176.421.008.16a4.134 4.134 0 00-.624-.03c.004.136.091.21.167.25zM70.3 316.99c-.598-.584-1.258-1.05-1.926-1.506-.66-.456-1.32-.912-1.98-1.378-.788-.546-1.981-1.319-2.912-1.051-1.376.386-1.034 1.636-1.957 2.448-1.805 1.607-3.046-1.04-4.971.16-1.273.792-2.895 4.956-3.31 6.523-.89 3.33.78 5.561 2.904 7.366 2.347 1.983 5.043 3.688 7.867 3.42 2.474-.238 4.685-1.953 6.777-3.618.454-.357.907-.724 1.25-1.23.389-.575.62-1.299.763-2.032.652-3.302-.366-7.01-2.506-9.101zm-22.26 16.284l-.842-.128c-1.342.064-2.817-.053-4.219-.107a63.81 63.81 0 00-2.154-.039c-3.91-.01-7.613.266-7.82.586-.014.027-.014.056.163.08.162.02.428.035.679.047 3.6.172 7.7.271 11.861.286 2.39.008 5.12-.024 6.521-.184.974-.11 1.033-.27.133-.385-.885-.117-2.67-.18-4.323-.156zm4.625-63.09c-.192-.109-.416-.222-.639-.172l-.026.178c.15.191.258.406.316.632.018.07.046.158.13.175.055.011.11-.014.158-.038.194-.098.412-.234.395-.424-.012-.156-.18-.264-.334-.351zm84.231 95.749c-2.616-.2-6.9-2.484-8.95.93-.507.836-.778 1.952-1.176 2.922-.407.97-1.033 1.846-1.77 1.78.135 2.311 1.533 3.905 2.887 4.809 1.363.903 2.87 1.5 3.92 3.135.415.65.729 1.434 1.144 2.085.956 1.501 2.311 2.152 3.607 2.75.83.385 1.693.77 2.557.624 1.591-.279 2.82-2.271 3.81-4.25 1.236-2.458 2.387-5.46 1.998-8.515-.77-5.845-5.03-6.058-8.027-6.27zM125.065 345c-.259 1.848.284 3.742 1.123 5.294.853 1.568 2.002 2.857 3.113 4.145 2.506 2.904 4.792 6.971 7.66 9.316 1.6 1.304 6.78 2.08 7.89-.249.414-.87-.116-1.925-.62-2.701-1.084-1.692-2.17-3.4-3.241-5.092-.827-1.305-1.68-2.624-2.777-3.571-.62-.528-1.317-.947-1.873-1.568-.555-.621-.981-1.522-.84-2.422-3.512-.808-7-1.863-10.435-3.152zM146 404.852c.92.372 2.071-.01 2.826-.544.754-.533 1.29-1.217 2.14-1.66 1.646-.865 3.868-.594 5.898-.574 2.538.02 5.062-.432 7.298-1.298l-5.144-.754c-.947-.141-1.948-.302-2.62-.815-1.18-.906-.741-2.365-.22-3.552.316-.735.631-1.46.96-2.194.151-.342.33-.714.728-.925.356-.192.809-.222 1.248-.272 3.813-.453 6.9-3.13 6.886-5.967 0-.252-.027-.503-.178-.734-.631-.926-2.524-.544-3.759-.03l-3.608.432c-2.455 2.757-4.91 5.524-7.366 8.281-.26.302-.535.604-.617.956-.096.382.055.775.164 1.157.906 3.16-1 6.651-4.636 8.493zm21.638-5.832c-.147 2.889-.24 5.969-.347 8.946-.064 1.818-.106 7.831-.291 9.034.4-2.61.678-6.116.782-9.855.04-1.496.053-3.007.08-4.518.024-1.231.152-3.197.137-4.34-.034-2.48-.279-.895-.361.733zm18.212 71.787l-2.549.52c-3.245 2.223-4.264 5.928-5.095 9.346-.148.63-.309 1.272-.121 1.902.174.62.657 1.14 1.126 1.637.684.73 1.368 1.45 2.052 2.18 1.073 1.15 2.2 2.322 3.728 3.03 1.529.708 3.594.851 4.961-.056 1.154-.774 1.556-2.057 2.4-3.074 1.194-1.416 3.22-2.223 4.466-3.595 1.824-2.013 1.502-5.143-.724-6.857-.63-.487-1.381-.874-1.971-1.383-1.341-1.161-1.743-2.986-.992-4.457-2.36.52-4.828.807-7.282.807zm74.306-5.823c-1.176-.589-2.845-.814-4.424-1.05a121.43 121.43 0 01-7-1.253c-1.535-.324-3.091-.688-4.211-1.311-.796-.439-1.344-.993-2.162-1.42-2.62-1.38-7.157-1.092-10.461-.18-3.293.919-6.037 2.339-9.475 3.107-.75.167-1.58.323-2.028.67-.448.346-.425.796-.358 1.212.146.86.426 1.732 1.198 2.5 1.098 1.08 3.058 1.836 4.693 2.72 4.212 2.286 6.698 4.705 13.116 5.363 2.542.26 4.771.48 7.011 1.224 2.43.809 5.029 2.841 8.378 2.362 1.691-.243 2.699-1.126 3.438-1.946 2.352-2.639 3.741-5.497 4.088-8.395.146-1.282-.022-2.714-1.803-3.603z"/><path d="M237.437 464.127c-1.852-.257-3.619-1.423-5.15-3.251-1.53-1.818-2.458-4.101-4.304-2.095-3.06 3.33-5.132 9.872-6.69 15.347-.602 2.125-1.182 4.338-1.278 6.71-.107 2.61.366 5.169.839 7.65.585 3.082 1.3 6.452 2.937 7.964 1.418 1.315 3.129.85 4.732.732 1.604-.119 3.461.405 4.288 2.816 2.11-1.492 3.309-5.455 3.894-9.319.585-3.864.749-7.945 1.666-11.612.394-1.59.928-3.073 1.238-4.723.4-2.155.4-4.467.388-6.73 0-.643-.006-1.325-.18-1.898-.416-1.364-1.491-1.472-2.38-1.59zM512 268.389a19.867 19.867 0 016.903-.784c-.308 1.498-.622 3.033-.343 4.535.28 1.503 1.29 2.985 2.86 3.45.926.276 1.93.175 2.879.35 1.473.275 2.763 1.264 3.334 2.55.285.646.388 1.413.034 2.027-.274.482-.782.804-1.273 1.111-1.587.985-3.175 1.974-4.762 2.958 2.33-.54 4.762-.725 7.154-.534.937 1.106 1.142 2.62.891 4.006-.246 1.386-.902 2.672-1.547 3.942 2.746-.656 3.842-3.699 6-5.408.2-.159.434-.312.703-.302.257.01.48.175.674.334l2.415 1.952a6.209 6.209 0 001.518-2.127c1.405.392 2.878.572 4.345.519.948-.032 2.067-.27 2.427-1.09.257-.583.023-1.25.154-1.863.24-1.138 1.57-1.73 2.735-2.149l4.899-1.762a37.389 37.389 0 01-5.042-.518c-.274-.048-.565-.106-.77-.286-.343-.307-.286-.81-.314-1.249-.103-1.672-1.673-2.91-3.186-3.831-2.398-1.455-4.191-2.741-4.1-5.61.057-1.872.845-3.9.417-5.772-1.24-5.377-8.656-2.863-12.373-4.636-.936-.444-1.69-1.148-2.432-1.841a7488.948 7488.948 0 00-6.817-6.361l6.132 9.181c-3.929 1.148-6.167 5.144-9.958 6.646-1.444.588-3.397 1.096-3.557 2.562zm108.868 62.634c2.111-.239 2.99-.724 4.576-5.81 1.585-5.084-.527-10.408-2.465-11.856-1.938-1.448-3.696 1.968-4.575 2.07-.88.11-4.979-2.828-6.508 0-1.344 2.487-7.92 9.063-5.275 8.577 2.637-.485 5.275 7.385 5.275 8.654 0 1.27 6.86-1.388 8.972-1.635zm-15.355 2.907c.854.382.325-.93.325-.93-.895.194-1.18.548-.325.93zM685.104 345c11.628-.028 17.582-.624 8.426-.89-17.52-.509-20.053.917-8.426.89zm86.87 41.887c.21-.417-.896-.887-.896-.887-.37.468.684 1.304.896.887zM737.005 397s-7.473 5.736-6.982 13.716c.5 7.97 9.973 5.736 12.517 4.142 2.543-1.594 4.93 3.828 6.929 1.594 1.991-2.234-1.5-17.218-12.464-19.452zm88.259 82.08c21.915.734 24.143 1.044 30.198.875 6.055-.169 12.072-.238 11.5-.443-.57-.206 1.79-.702-5.712-.433-11.672.42-39.233-.31-35.986 0zm-8.383 23.416c.432 3.236 3.32 1.388 8.225-.921 4.904-2.31 17.45-8.624 19.257-9.855 1.807-1.23 3.097-2.596-1.63-.987-8.402 2.868-22.176 10.072-19.323 7.763 2.854-2.31 10.687-8.012 5.544-5.854-5.143 2.157-8.605 4.705-12.357 6.282-3.752 1.577-9.169 4.5-12.195 9.893-3.03 5.388 12.048-9.557 12.48-6.32zm29.104 30.472c.105-.21-.392-.968-.392-.968-1.491.264.288 1.18.392.968zm9.975-.968c.272-15.622-.948-20-.948-20-.138 13.216.949 20 .949 20zm-51.935 20.532c.138.407.582.609.854.357s0-.754 0-.754c-.544-.326-.992-.01-.854.397zm72.745.405c.608-.253-.142-1.192-.488-.87-.615.572-.12 1.122.488.87zm-78.619 54.053c-9.071 7.711-14.556 12.026-15.129 16.723-.572 4.696 9.986-4.697 15.13-8.361 5.143-3.665 7.664-14.864 0-8.361zM825 710s1 26.623.961 18.436c.095-22.53.095-15.986-.961-18.436zm42 72c-13.334-7.342-27.386-14.026-42-20 13.342 7.337 27.379 14.032 42 20zm-62-31c5.557 8.106 12.359 14.926 20 20-5.546-8.12-12.37-14.926-20-20zm0 20c-.228-7.909-.575-14.835-1-20 .23 7.924.573 14.82 1 20zm9.753-41.404c3.362.162 6.738.313 10.247.404-6.326-.452-13.11-.763-20-1 3.071.255 6.421.424 9.753.596zM835 803c4.72 7.646 11.552 14.502 20 20-4.688-7.658-11.568-14.49-20-20zm-.269-51.99c-5.503.047-10.354.137-9.666.64.024.021.073.043.193.062.17.029.471.05.797.07 3.173.192 7.82.142 11.838.206.434.007.892.016 1.327.01a23.46 23.46 0 001.134-.044c2.655-.157 3.741-.413 4.646-.654-1.907-.123-3.934-.251-6.42-.288-1.267-.018-2.57-.013-3.849-.002zm94.073 30.239l-.626-.234-.077-.015-.085.321c-.019.074-.036.159.04.217.04.031.101.05.139.083.09.076.017.19.073.279.084.137.43.126.577.012.149-.114.155-.274.155-.422 0-.059-.003-.124-.058-.172-.033-.03-.087-.05-.138-.07zM709.956 854c.169-6.835-.152-13.797-.913-20-.165 6.835.149 13.797.913 20zm-.178 1c.434-.337.222-.727-.553-1-.442.337-.22.727.553 1zm-31.046 1a106.38 106.38 0 00-.465 20c.779-6.606.942-13.337.465-20zm.248-32a148.95 148.95 0 00-.949 20c.704-6.517 1.058-13.227.95-20zM658 834c-.594 5.658-.922 12.809-1 20 .57-5.862.881-12.74 1-20zm0-52c-.648 6.291-.978 13.087-1 20 .642-6.233.985-13.136 1-20zm-.265 72.956c.017.02.036.04.06.044.033.004.061-.026.081-.056.357-.528-.121-1.125-.636-.892-.686.309.296.691.495.904zm-9.894-52.953c-.913.005-1.856.017-2.538.053-.624.032-.943.08-1.552.113-1.813.098-4.54.048-6.049.182-1.233.11-.653.287.29.397 1.712.2 5.222.28 8.906.243 4.396-.046 8.283-.253 9.646-.497 2.002-.357-2.9-.52-8.703-.49zM606 824c8.02-13.694 14.69-27.737 20-42-8 13.694-14.699 27.731-20 42z"/><path d="M626 803c-8.004 6.096-14.757 12.836-20 20 8.038-6.096 14.746-12.83 20-20zm-40.993 51.966l-.007.03.017.004c.036-.007.09-.029.121-.04.556-.25.852-.59.862-.96-.631.228-.94.6-.993.966zm.707-51.966c-.771 6.446-.924 13.371-.427 20 .776-6.446.92-13.371.427-20zm-.45-31c.765-.268.953-.667.472-1-.76.268-.957.667-.472 1zm.236 10c.67-.315.665-.685 0-1-.662.315-.671.685 0 1zm-32.5 0c.506-.262.857-.615 1-1-.504.262-.859.615-1 1zm-20.69 0c.762-.308.898-.671.383-1-.763.308-.904.671-.384 1zm73.605 62.696c-.156-.111-.325-.188-.466-.33-.083-.084-.191-.32-.293-.358-.29-.105-.093.892-.058.906.256.104.537.114.797.027.044-.015.096-.043.104-.1.01-.06-.04-.112-.084-.145zM564 823c-.052.078-.442-.038-.556.05-.13.102-.194.373-.291.511-.047.066-.097.13-.128.205-.03.075-.037.164.002.234.383-.267.714-.609.973-1zm-125.555-2.332c.035.737.053 2.411.152 2.33.072-.055.204-2.712.249-3.34.058-.837.117-1.701.142-2.72a41.604 41.604 0 00-.05-3.32c-.015-.22-.03-.428-.042-.665-.018-.318-.027-.682-.037-1.037l-.24-8.916-.022 7.242a34.374 34.374 0 01-.027 1.52c-.023.427-.06.718-.099.982l-.471 3.439c.122-.692.403 3.584.445 4.485zm-20.632 2.659l-.184-.235c-.048-.06-.121-.124-.176-.074-.047.041-.064.153-.12.135l-.003-.06a.348.348 0 00-.278.166.365.365 0 00-.008.362c.032.05.077.085.123.116.132.091.273.166.418.223.122.047.274.073.361-.04.064-.083.066-.214.032-.32a.852.852 0 00-.165-.273zm41.66.67l.022-.014.168-.138.108-.088c.088-.072.18-.153.21-.266.136-.502-.511-.578-.787-.412-.46.276.019.55.191.855.02.035.052.077.088.063zm-102.82-7.8c0 .666-5.006 1-10.011.836-5.006-.17 2.752 5.342 5.759 3.84 3.007-1.502 4.26-.503 4.26 1 0 1.501 4.76 4.505 3.253 6.008-1.5 1.502-7.259 2.75-7.759 4.545-.5 1.796.254 16.987 3.007 11.311 2.753-5.675.254-8.346 1.999-8.346 1.753 0 1-2.694 3.007-4.85 1.999-2.163 4.006-4.998 3.006-7.839-.999-2.84 1.254-1.671 1.754-4.342.5-2.671-1.754-15.36-1.754-15.36-7.52 8.188-6.521 12.53-6.521 13.197zM325.759 802c-14.374.052-16.241.392-7.422.785 8.818.392 16.24.209 14.373-.235-1.836-.446-6.951-.55-6.951-.55zm-51.419-6.507c-3.64 4.99 1.45 15.388 0 21.767-1.451 6.39 5.447 9.901 10.181 2.867 4.722-7.034 6.91-7.917 7.993-9.97 1.094-2.054 0-28.157 0-28.157-7.268 6.449-14.535 8.503-18.174 13.493zm-7.338 28.954c-9.172-1.409-9.588.628-11.463 4.471-1.876 3.851-4.583 11.997-3.123 14.033 1.459 2.037 8.332 1.133 13.126-2.94 4.794-4.072 6.458-6.109 6.458-9.73 0-3.621-4.998-5.834-4.998-5.834zM334.295 856c0 9.75.261 17.646-.295 20 1.212-2.183.983-6.72.983-11.427s-.688-8.573-.688-8.573zm66.817 12.408c-2.29-4.048-6.307-14.938-8.034-13.227-18.359 4.358-21.512 9.337-22.657 14.317-1.145 4.979-7.743 9.026-2.29 14.937s4.88 10.27 4.59 14.628c-.291 4.358 5.453 7.937 11.187 7.937 5.735 0 8.607-3.89 9.18-7.78.572-3.89 4.589-9.337 6.307-11.2 1.717-1.869 1.436-3.89 4.59-6.922 3.153-3.031 5.734-2.879 2.58-4.747-3.153-1.874-3.153-3.9-5.453-7.943zm6.394-14.403c-.088.015-.13.092-.187.144-.42.385-.49.957.187.834.77-.14.538-1.062 0-.978zm.314-11.185c.09-2.384.18-11.076.18-16.807 0-5.726-1.1 1.673-.992 10.774.09 7.57.722 8.412.812 6.033zm-167.213 34.891c-.734 23.534-.882 23.986 0 9.691.884-14.31 0-9.691 0-9.691zm-42.047-1.976c.655-.471.385-.735.385-.735-1.35 1.101-1.041 1.206-.386.735zm20.288-99.953c-2.547-4.03-2.662-5.372-6.63-9.63-3.974-4.258-10.546-5.152-10.546-5.152-9.758 2.462-13.151 6.046-14.844 12.32-1.694 6.273-5.518 6.046-6.572 11.872-1.062 5.826 1.062 4.03 1.693 7.614.638 3.584-7.584 11.873-1.987 8.062 5.596-3.811 5.596-1.402 7.712.977 2.124 2.38 4.879.591 9.119-.977s7.849-.447 12.728-4.925c4.878-4.478 12.935-7.614 9.757-11.645-3.193-4.038 2.11-4.485-.43-8.516zm-57.203 6.966c-11.421 4.535-16.686 20.253-15.475 19.202 20.032-13.616 24.28-22.686 15.475-19.202zm1.045 21.684c-15.522 14.398-23.341 23.905-9.545 15.291 13.797-8.614 15.64-20.943 9.544-15.291zm90.348-33.308c-2.71-.385-6.963.237-6.963.386-11.215.148-5.025.415 3.482.444 8.506.03 10.443.149 10.443-.177 0-.327-6.962-.653-6.962-.653zM241 743.21c0-4.148-.471-13.21-.471-13.21l-.278 2.642c-.277 2.642-.388 8.296 0 17.358.001 0 .749-2.642.749-6.79zm-28.59-11.27c-6.322-3.37-7.91-2.526-11.86 3.93-3.95 6.456-.473 10.937 11.86 13.757 2.461.56 6.59 1.12 6.59-3.37 0-4.491-.259-10.956-6.59-14.317zm-13.895-2.03c.485.446.485-.91.485-.91-1.535.133-.97.464-.485.91z"/><path d="M198.786 729c-.59.17-1.263 1.107-.308.99.954-.117.308-.99.308-.99zM219 691.642L213.842 689C198.789 698.432 199 709 199 709c14.85-20 20-17.358 20-17.358zM239.913 689c-19.037 10.138-21.112 20.95-19.458 19.933C242.423 696.773 239.913 689 239.913 689zm-60.053 12.076c.43-1.095-3.713-2.19-3.713-2.19 7.003-4.381 5.573-3.598 8.144-5.63 2.571-2.031 11.019-9.538 13.15-12.04 2.136-2.503 2.407-4.932-1.295-1.567l-11.86 10.793-3.001-1.407c-.285 3.438 0 4.846 0 4.846-6.858 3.75-13.286 9.147-13.286 9.147-4.287.704-8.714 6.804-8.714 6.804-4.572 3.438-11.57 4.846-12.285 10.168 7.573-2.502 8.288-5.317 12-7.507 3.717-2.19 10.715-9.073 11.43-9.46.715-.391 4.997-3.835 9.43-1.957zM137.443 689c-15.999 5.038-12.68 12.1-10.863 14.625.909 5.88 1.807 6.551 6.942 3.867 5.136-2.684 9.056-.842 11.17-8.484 2.103-7.654-7.249-10.008-7.249-10.008zm4.187 42.271c-17.957 6.783-19.674 8.267-19.674 8.267h-11.398c7.416 1.06 9.692 3.326 9.692 3.326-11.4 3.248-16.25 7.063-16.25 7.063 9.692 1.06 33.637-9.694 37.63-12.16 3.992-2.467 7.415-10.948 0-6.496zM198 699.81l.929.19.071-.774c-.759-.743-1 .584-1 .584zm-10.134-55.887c.658-1.536-1.317-6.923-1.317-6.923-7.749 6.923-19.625 20-18.47 20 11.541-3.07 19.128-11.529 19.787-13.077zm-2.579-39.835c-10.399-.168-20.81-.144-16.138.506 4.66.65 10.047.386 16.138.121 6.104-.266 0-.627 0-.627zm12.666 6.877c-.466-6.373-1.634-4.782-5.369-5.843-3.734-1.06-9.102 5.052-13.302 8.234-4.2 3.19 3.269 3.982 3.19 7.173-.071 3.19.773 7.208 10.112 1.86 2.771-1.59 5.835-5.042 5.369-11.424zm-7.269-60.525c5.828-4.114 8.856-4.114 6.53-10.458a14.103 14.103 0 00-5.095-6.676c-1.49-1.072-3.178-1.49-4.857-1.232-8.044 1.253-12.231 1.575-6.837 9.494 5.827 8.562 4.431 12.998 10.26 8.872zm-2.524 13.45c.013.085.115.126.195.104.08-.021.141-.086.199-.147.057-.062.119-.126.2-.145.033-.009.068-.009.102-.02.098-.03.152-.148.143-.254a.562.562 0 00-.13-.284c-.198-.26-.563-.144-.67.153-.008.023-.023.052-.046.045l-.02-.012c-.032-.023-.078-.003-.101.031-.022.034-.026.076-.03.117-.006.083-.006.181.059.232.028.022.066.033.084.064.02.034.008.078.014.117zm-20.907.098c.023.016.053.012.081.009a.315.315 0 00.138-.042c.046-.032.075-.084.11-.13a.416.416 0 01.278-.155c.03-.003.063-.003.09-.02.044-.028.058-.094.045-.147a.392.392 0 00-.08-.142c-.118-.153-.268-.503-.468-.299-.08.082-.11.205-.213.263-.023.013-.247.055-.233.103.04.156.187.264.208.424.007.05.005.11.044.136z"/><path d="M188.984 532.443a.469.469 0 00-.18-.357c-.083-.066-.207-.126-.3-.052-.075.06-.027.163-.074.22-.062.078-.248.041-.332.07-.045.015-.087.05-.096.098-.01.048.018.097.055.127.036.03.083.045.128.059l-.037.041c.144.012.26.117.376.207.115.09.257.173.395.134.08-.022.086-.24.078-.302a1.61 1.61 0 01-.013-.245z"/><path d="M178.904 532.21c-2.07.092-.141.19 1.376.298 2.568.18 5.49.3 8.37.416.88.037 1.774.073 2.724.076 2.469.008 4.412-.2 6.016-.392.297-.037.624-.079.61-.126-.015-.038-.242-.071-.469-.1-1.248-.16-2.922-.293-4.851-.352-3.164-.098-4.696.07-7.463.152-1.929.058-4.525-.052-6.313.028zm114.26-207.83c-.272 1.769-.135 9.155-.085 11.774.053 2.814.16 5.755.396 7.26.053.344.114.597.177.586.1-.012.187-.713.245-1.551.104-1.54.121-3.573.087-5.422-.034-1.85-.115-3.56-.194-5.25-.103-2.136-.3-9.522-.626-7.397zm.68 20.327c.151-.162.227-.357.066-.517-.16-.16-.623-.252-.91-.142l.013.085c-.026.302.135.606.447.867.154-.088.283-.187.384-.293zm41.01-.702c-.215.037-.42.146-.59.313l-.264-.278.003.675c0 .11.016.243.098.278.061.026.126-.023.18-.069l.507-.437c.1-.085.21-.195.212-.347 0-.044-.012-.094-.042-.12-.03-.024-.068-.022-.104-.015zm-3.374-3.95c.691.167 1.515.131 2.285.185.77.054 1.62.28 1.607.632-.04.787.146 1.58.558 2.349.12.226.28.465.664.62.877.352 2.272.06 3.148-.292 3.905-1.562 5.326-4.25 3.414-6.433-.625-.703-1.541-1.347-2.418-1.997-1.075-.793-2.098-1.604-3.546-2.266-1.05-.483-2.311-.882-3.095-1.454-.797-.585-.996-1.288-1.328-1.956-.996-2.05-3.334-3.964-6.655-5.443-.757.316-.584.894.014 1.27.597.375 1.514.62 2.284.93 2.02.817 2.922 2.2 2.218 3.374-.996 1.676-5.3 1.354-6.415 2.552-1.235 1.324 3.175 1.735 4.968 2.438 3.294 1.3 2.417 2.147 1.315 3.852-.386.584-.226 1.347.983 1.64z"/><path d="M335.4 342.823c1.31-1.03 1.973-2.624 3.145-3.792 1.62-1.619 4.189-2.444 5.154-4.48.345-.735.43-1.61.06-2.328-.25-.483-.68-.85-1.112-1.21a49.613 49.613 0 00-8.6-5.697c-1.147-.596-2.345-1.16-3.646-1.29-1.301-.132-2.723.244-3.516 1.225-.991 1.242-.724 2.967-.69 4.528.01.261-.008.54-.18.735-.181.205-.483.254-.742.352-.75.294-1.189 1.07-1.258 1.83-.077.76.155 1.52.414 2.248 1.301 3.653 5.524 12.161 10.97 7.879z"/><path d="M344 344l.876-3.529a3.42 3.42 0 00.102-.565c.025-.276.023-.6.02-.914-.04-5.001-.09-9.997-.151-14.992.025 2.032-.948 3.036-.59 5.146.068.403.183.162.254.607.056.349.072 1.16.09 1.605.05 1.214.082 2.549-.009 3.727-.053.697-.145 1.287-.177 2.026-.028.637-.007 1.304-.02 1.954-.035 1.821-.32 3.162-.395 4.935zm-30.045-31c-.14-.358-.44-.702-.91-1 .21.349.52.684.91 1zm19.122 5.17c-.448-.942-.985-1.903-2.139-2.634-1.153-.732-3.101-1.172-4.714-.794.448-.545-.616-1.153-1.702-1.209-1.075-.056-2.105.223-3.147.378-2.463.372-5.229.019-7.155-.911-.829 1.19-1.657 2.38-2.497 3.577-.09.124-.19.26-.403.323-.28.08-.616.012-.896-.062-1.87-.509-3.438-1.34-4.48-2.344.471 1.426-.638 3.038-2.776 3.937-2.856 1.196-6.977 1.19-10.168.291 1.859 1.16 3.729 2.313 5.588 3.472.616.384 1.243.775 1.567 1.259.807 1.209-1.03 2.709-3.359 2.74 1.78.328 3.561.657 5.341.992l.068.837c3.113 1.078 6.36 2.188 10 2.43 5.352.36 10.48-1.19 14.982-2.833 1.433 1.903 3.281 3.713 5.487 5.381-.414-1.27-2.004-3.515-1.388-4.774.425-.874 1.713-1.004 2.508-1.692 2.564-2.22.414-5.983-.717-8.364zM273 344.084a.43.43 0 00-.375-.067l-.215.178c-.15.249-.287.512-.41.793.418.086.857-.31 1-.904zm20.941-8.593c.175-8.607-.057-14.188-.492-10.152-.23 2.128-.605 7.582-.38 12.58.037.804.01 2.002.013 3.042.007 1.577.092 2.712.176 2.964.149.441.286-1.135.407-2.87l.05-.74a95.78 95.78 0 00.226-4.824zm19.092 9.023a.117.117 0 00-.03.045c-.011.038.015.074.042.102.11.12.235.226.374.312.023.014.047.028.074.027.036-.001.065-.027.091-.052.227-.223.638-.585.266-.871-.338-.261-.601.208-.817.437zm21.459.473c.023.017.052.014.078.01a1.68 1.68 0 00.43-.141c-.017-.224-.118-.423-.217-.612a.53.53 0 00-.14-.194c-.078-.058-.176-.053-.267-.046-.126.009-.25.019-.376.027l.219.187c-.016.08-.033.164-.024.246.009.082.05.165.114.19.046.016.103.006.135.05.056.075-.022.228.048.283z"/><path d="M272.931 344.394c-.02-.03-.128-.04-.168-.095-.048-.064-.014-.176-.07-.236-.187-.199-.748.11-.689.409a.24.24 0 00.038.08c.208.311.568.485.913.441.013-.002.028-.005.036-.016.008-.011.008-.026.008-.04-.004-.185.024-.407-.068-.543zm-.255-11.219l-.168-.175a.893.893 0 00-.508.218c.346.183.663.452.936.782.157-.287.009-.76-.26-.825zm93.01-21.153a.48.48 0 00-.429.078.504.504 0 00-.197.256c-.44 1.459 1.723.036.626-.334zM386 333.162c-.005.306 1.016.718.997.838.021-.132-.066-.25-.147-.338-.106-.116-.842-1.025-.85-.5zm8.858.188c4.226 2.007 10-.869 10.892-5.405.18-.914.271-1.995 1.062-2.497.497-.312 1.13-.3 1.717-.323 5.277-.167 10.113-4.458 10.824-9.619.17-1.26.181-2.664 1.074-3.566 1.231-1.271 3.502-.914 4.824-2.085.452-.4.735-.936 1.017-1.47.983-1.918 1.898-3.991 1.706-6.142-.27-3.076-2.824-5.595-5.728-6.766-2.972-1.203-6.067-1.014-9.152-1.426.034-.59-.328-1.438-.192-2.051-4.892 6.765-11.434 4.592-18.27 6.386-2.214.58-8.485 3.511-8.542 6.22-.034 1.46 5.085 6.04-.09 6.732 1.107.089 1.785 1.293 1.83 2.385.034 1.092-.361 2.151-.485 3.232-.656 6.086 7.242 10.265 7.513 16.395zM386.036 292a.684.684 0 00.044.54c.034.063.078.12.093.19.014.07-.001.15.039.208.043.062.126.064.198.061l.334-.015c.111-.005.257-.047.256-.166a.2.2 0 00-.057-.124.543.543 0 00-.28-.176v-.156a1.367 1.367 0 01-.627-.362z"/><path d="M407.555 318.608c.141-1.002.294-1.646.445-2.392-.306-8.974-.98 3.23-1 7.554-.002.542.009 1.083.018 1.615.04 2.504.033 5.07.025 7.615.312-2.709.477-7.227.42-11.49-.009-.704-.022-1.471.011-2.084a8.53 8.53 0 01.081-.818zm24.471 12.497a20.759 20.759 0 002.659-5.662c.256-.878.475-1.8.996-2.508.52-.71 1.452-1.112 2.129-.635.758-3.461-.814-7.41-3.573-8.997-2.166-1.249-4.13 1.704-6.049 2.636-1.453.698-3.107.931-4.477 1.862-1.151.784-2.723 2.276-3.207 3.768-.896 2.731 1.014 4.52-.594 7.674-.64 1.249-1.27 2.508-1.91 3.757 5.08-.497 9.722-4.138 14.82-4.107-.584.498-.895 1.376-.794 2.212zM220 130.764s17.337 7.35 28.609 7.803c11.277.452 2.255 1.35.281 3-1.974 1.65 1.693 1.503 4.368 1.35 2.68-.152.705 4.803 3.661 6.905 2.961 2.102 14.233 8.7 19.587 10.256 5.355 1.55 13.108 9.852 12.965 10.75-.144.898-10.571 2.854-7.186 3.3 3.38.452 10.01-1.503 10.01-1.503s-2.537 4.05-4.793 4.65c-2.255.598-5.779 1.65-4.18 3.599 1.6 1.949 2.768-.3 4.743-1.65 1.974-1.35 4.93 1.65 8.029 3.751 3.093 2.102 3.248 3.3 1.13 6.605-2.117 3.306-4.086 0-5.498 1.503s-1.693 4.65-1.693 6.153c0 1.503 3.243 1.95 1.831 4.35-1.412 2.402-4.649-1.05-6.342-.598-1.692.452-4.367 2.4-7.047.152-2.68-2.248-.844-1.655-4.649 1.95-3.805 3.598-1.83 0-5.354-1.198s-2.818 3-8.173 1.35c-5.354-1.65-11.696-3.751-15.925 0-4.23 3.752-.281 5.854 8.453 6 8.74.153 34.95.6 36.925.6 1.974 0 14.939 6.152 16.632 11.101 1.692 4.95-2.962 4.051-2.184 4.35.777.3 4.439 1.95 1.902 3.453-2.536 1.503 4.792 3.599 5.498 7.051.706 3.452-5.779 4.65-6.341 10.063-.563 5.413 3.893 0 3.893 0 .347 1.52.617 3.065.805 4.62.044.388.083.81-.127 1.134-.149.234-.397.37-.634.493a9374.04 9374.04 0 00-7.522 3.963c1.93 1.11 4.39 1.103 6.309-.024a11.48 11.48 0 01.827 6.364c-.055.335-.116.699.022 1.004.132.288.408.458.678.6 3.838 2.03 8.608 1.543 12.231 3.986.408.275.827.598 1.313.622.96.053 1.637-1.04 2.575-1.298.48 1.785.7 3.646.65 5.502 1.28-1.274 2.565-2.548 3.844-3.817.949 2.989 1.903 5.977 2.851 8.971.199.623.397 1.274.27 1.914-.402 2.067-3.672 2.401-3.882 4.497-.072.723.276 1.41.58 2.061a19.912 19.912 0 011.201 3.323c1.506-.875 3.011-1.744 4.517-2.618.435-.253.932-.517 1.411-.388.75.206 1.004 1.174 1.484 1.826.645.875 1.803 1.18 2.834 1.01 1.031-.17 1.963-.752 2.823-1.386.784-.575 1.616-1.49 1.318-2.448-1.869-.1-3.71-.675-5.343-1.655 2.575-2.296 5.967-3.523 9.32-3.365 0 0 3.942-.399 4.604-.1.662.3 1.312 9.905 1.312 9.905s1.693-3.752 1.362-7.051c-.33-3.3 5.824.599 5.967-.153.143-.751 2.818 4.204 3.242 3.752.425-.452 1.13-2.249 3.243-2.249 2.112 0 .281 6.453.706 5.402.424-1.051 9.16-3.752 11.564-1.35 2.404 2.4 3.799.75 5.635 1.802 1.837 1.05 17.613 1.503 26.91 1.197 9.304-.3 24.948-7.203 29.453-13.05 4.511-5.854 7.754-9.306 10.147-11.256 2.393-1.949 5.354-4.802 7.891-8.102 2.537-3.3.844 3 3.662 8.854 2.817 5.853.562-2.7-.425-4.544-.987-1.844 3.662-5.66 2.68-5.208-.987.452-4.792-1.95-4.792-4.65s4.649-3.3 4.23-4.95c-.425-1.649-.425-10.35 1.549-12.604 1.974-2.249 5.498-.3 6.342-6 .843-5.701 3.099-1.198 4.93-2.249 1.83-1.05 2.96-6.752 4.23-10.955 1.267-4.204 7.328-3.153 10.008-3.899 2.68-.745-8.454-3-9.44-6.452-.988-3.452 5.778-9.305 7.89-15.517 2.112-6.217-.424-16.14.425-20.343.844-4.204 6.623-2.853 19.168-5.69 0 0-15.082.136-18.744 1.909-3.661 1.773-3.38-6.429-2.63-9.429s-1.737-5.102-3.711-1.95c-1.974 3.154-.987-.299-5.355-7.05-4.367-6.752 5.78-10.656 6.199-11.402.424-.751 5.216-8.853 2.867-9.752-2.35-.898-7.797-.299-11.779 1.503-3.976 1.803-9.975-3.452-6.027-9.751 3.948-6.3.143-2.854-2.112-6-2.255-3.153-7.185 1.802-9.722 1.802s-11.696-3.599-12.545-6.728c-.844-3.13 3.38-9.928 2.112-11.126-1.269-1.198-1.831-4.802-2.256-12.006-.424-7.204-10.427-7.803-14.514-8.255-4.086-.452.987-9.605.706-13.803-.281-4.203-7.047-1.197-7.753 6.3-.706 7.503-5.636 11.554-7.048 8.401-1.411-3.152-1.268-4.35-4.367-5.101-3.1-.752-16.913-6.905-25.228-10.052-8.316-3.146-10.01-2.548-10.555-4.203-.546-1.65-.017-6.453-.16-8.854-.143-2.401.844-7.65-.86-15.306-1.704-7.65-7.88-10.503-4.213-6.452 3.661 4.051 5.354 20.854 3.38 23.255-1.974 2.402-2.393 5.102-3.662 6.153-1.268 1.051-1.974-1.503-2.255-3.599-.281-2.102-2.255-1.802-2.68-.452-.425 1.35.706 2.7 0 3.752-.706 1.05-4.51-1.198-6.342.452-1.83 1.65-3.948-2.401-5.216-3.452-1.268-1.051-1.268-2.701-.844-4.503.425-1.803 4.086-3 4.93-6 .844-3 .706-5.402-.562-9.606-1.269-4.203-2.537-3.599-3.38-7.35-.844-3.752-1.832-3.153-4.23-5.854-2.394-2.7-5.074 2.102-5.498 6.605-.425 4.503 1.411 6.752-.563 8.102-1.974 1.35.706 3.6 2.537 5.854 1.83 2.248-.281 4.05 2.255 5.7 2.537 1.65 1.974 0 2.256 1.468.281 1.468.424 4.386-.844 4.533-1.268.152-1.83 1.802-4.792 2.853-2.961 1.051-10.428 1.65-12.827 3.898-2.393 2.249-8.034 8.554-9.159 7.35-1.125-1.197.425-4.05 0-7.954-.425-3.899-.987-1.803-.706-8.255.281-6.452-.844 1.65-2.961 4.503-2.112 2.853-2.256-2.853-2.961-.851-.706 1.996-2.256 1.303-2.818.252-.563-1.05-4.086 1.35-4.086 3.899 0 2.548-5.917-.899-6.767-.899-.843 0 4.087 3.899 6.767 5.25 2.68 1.35 2.112 4.203 4.367 8.101 2.255 3.898 1.83 6 2.393 9 .563 3-3.38 8.255-4.93 10.656-1.55 2.402-3.661-.452-10.427-1.503-1.975 2.402 8.315 2.402 9.44 4.35 1.125 1.95-2.112 2.701-3.242 7.803-1.125 5.102-2.961 4.503-10.71-3 7.754 13.656 9.16 9.453 9.16 9.453l-4.367 17.853s-.844 2.548-5.636-.452-1.693-2.548-8.034-2.248c-6.342.3-2.962-.6-3.949-5.255-.987-4.65-8.316.452-6.623 3.898 1.693 3.453 4.649 2.548 5.217 6.605.562 4.051 5.498 3.6 7.891 4.503 2.393.899 10.571 1.35 8.878 4.504-1.693 3.152-6.203 0-10.146 2.4-3.948 2.402 1.412 5.702.424 7.65-.987 1.95-15.925-8.7-19.024-8.853-3.1-.152-7.186-3.599-6.767-4.503.42-.904 4.087-4.05 4.511-7.35.425-3.3 1.55-10.351-.987-14.402-2.536-4.051-2.536-1.198-3.948-3.752-1.412-2.548-1.55-.152-2.68-2.4-1.125-2.25-2.256-2.854-2.68-7.956-.425-5.102 0 0-1.125 3.3-1.125 3.299 3.661 4.802 1.83 7.203-1.83 2.401-7.471-1.802-12.964-1.503 4.649 2.249 3.38 5.255.706 5.701-2.68.452-7.891-1.198-7.891-1.198s5.78 3.6 5.917 5.249c.138 1.65-6.623 5.102-5.217 4.802 1.412-.299 5.78.453 5.917 2.548.144 2.102-5.635 5.402-3.661 4.803 1.974-.599 3.805 2.853 8.74 6.752.022 7.068-17.734-5.085-33.66-5.085zm-1.3 20.219c.714-1.078.05-2.34-.898-3.337-2.037-2.145-4.771-2.053-7.323-.534-3.209 1.911-6.483 3.751-9.51 5.793-.448.305-.913.632-1.063 1.045-.266.752.59 1.465 1.48 1.971.889.507 1.928 1.007 2.202 1.759.158.424.033.87.009 1.312-.034.659.166 1.323-.059 1.965-.183.528-.631.997-1.072 1.449-1.155 1.186-2.31 2.379-3.466 3.566 1.662.01 3.325.016 4.987.027 1.072.005 2.195.005 3.142-.327.865-.3 1.463-.833 2.136-1.296 2.668-1.856 6.658-2.82 8.902-4.9.333-.304.624-.653.599-1.029-.017-.32-.274-.615-.507-.898a9.868 9.868 0 01-1.297-2.036c-.415-.877-.656-1.846-.091-2.684.457-.675 1.38-1.17 1.828-1.846z"/><path d="M240.423 169.218c-.568 3.59-.452 13.697-.292 18.146.01.27.029.604.072.636l.065-.143c.452-1.875.592-5.736.663-9.216.033-1.844.302-14.572-.508-9.423zM261 198.478c.029-1.09-.862-.019-1 .306.033-.08.522.23.61.215.123-.022.373.065.39-.52zm-13.45-9.492c2.157.012 4.325.016 6.493.013.948 0 1.897-.004 2.8-.026 1.152-.028 2.111-.086 3.094-.139 2.574-.138 5.442-.244 8.288-.35 2.043-.075 4.143-.152 6.424-.17 2.462-.018 5.115.034 7.351-.046-4.776.014-9.146-.195-13.866-.25-2.055-.024-4.132-.019-6.21-.014l-6.052.016c-2.586.007-5.262.016-7.543.106-1.276.05-2.36.125-3.399.2-1.626.12-7.294.451-3.827.6 1.513.066 4.686.05 6.447.06zm-78.066-21.442c.976.062 1.727.138 2.175.223.118.024.237.05.487.067.29.02.699.028 1.107.037l5.47.103c1.015.019 2.095.038 3.084.016a38.95 38.95 0 002.161-.113l3.69-.274c.185-.014.396-.031.33-.05a2.471 2.471 0 00-.317-.03c-2.794-.163-6.51-.298-9.568-.441-2.57-.121-7.393-.143-6.194.183a91.165 91.165 0 00-2.477.013c-.818.02-1.516.073-1.424.132.092.056.857.096 1.476.134zm-2.176-20.599c.162.02.325.036.487.053.391.042.13-.523-.023-.692-.141-.157-.365-.335-.554-.302-.223.04-.238.263-.205.543.037.32.07.37.295.398zm30.788-.07c.051.08.15.14.248.122a.373.373 0 00.157-.086c.235-.185.729-.476.376-.792-.227-.203-.734-.14-.849.143-.044.109-.027.23-.01.345a.614.614 0 00.078.268zM188.53 125a.489.489 0 00.452-.32c.047-.16-.007-.325-.066-.482l-.179-.198c-.16.113-.49-.022-.63.102-.036.03-.047.071-.055.113-.043.162-.082.333-.02.49a.531.531 0 00.499.295zm-41.608-.718c1.418.218 2.905.442 4.7.532a67.97 67.97 0 002.735.063l8.239.079c1.427.014 4.065.168 3.252-.2-1.26-.568-9.597-.444-12.224-.444-2.588-.056-5.106-.185-7.614-.312-.09.113.436.206.912.282zm.181-9.309c.035.019.077.02.117.021l.222.005c.147.003.31.003.422-.083.15-.112.145-.314.128-.487-.018-.176-.083-.453-.338-.427-.238.024-.33.322-.613.288a1.149 1.149 0 00-.02.528c.007.06.025.124.082.155zm.894 31.637c.031-.219-.208-.423-.45-.61l-.516.052-.031.161.083.78c.454.051.88-.165.914-.384z"/><path d="M147.024 146.972c.066.062.195.008.273-.046.173-.124.347-.247.48-.395.135-.148.23-.324.223-.504l-.486-.027-.478.82c-.03.05-.057.111-.012.152zM198.374 124l-.374.209c-.004.272.157.543.476.791.74-.266.688-.755-.102-1z"/><path d="M198.73 124.98c.023.01.05.021.077.02a.13.13 0 00.068-.032c.186-.157.148-.389-.007-.56-.154-.17-.405-.291-.648-.408l-.22.358c.14.25.4.47.73.622z"/><path d="M198.126 124.73c.228.19.482.282.735.269.036-.003.075-.007.103-.046.054-.078.037-.225.014-.342a1.761 1.761 0 00-.126-.442c-.063-.124-.165-.204-.257-.154l-.5.003c-.071.185-.142.447-.054.614a.342.342 0 00.085.098zM460 312c.015-4.32-.46-16.135-.935-20-.366 1.137.943 17.3.935 20z"/><path d="M463.532 281.079c-1.915 3.702-4.402 13.539-4.526 17.576-.124 4.09 1.62 7.395 3.487 11.115 1.868 3.71 7.594 4.548 11.996 4.134 4.03-.37 7.098-3.35 10.518-5.342 2.801-1.63 5.965-2.644 8.852-4.116 2.896-1.481 5.64-3.588 6.678-6.488 1.858-5.183-2.23-10.436-6.06-14.596-3.086-3.35-6.164-6.708-9.25-10.057-.43-.468-.982-.979-1.63-.9-.895.115-1.162 1.155-1.534 1.913-1.038 2.15-4.192 2.794-6.593 2.019-2.4-.785-4.211-2.592-5.917-4.337 2.44 2.486-5.202 7.501-6.021 9.079z"/><path d="M488.083 312c1.784-1.17 2.415-3.215 1.5-4.85-.441-.782-1.194-1.478-1.391-2.311-.197-.833.543-1.888 1.675-1.807-1.098-1.14-3.588-1.342-4.992-.398a561.258 561.258 0 01-3.982-15.72c-.19-.803-.257-1.812.679-2.231.434-.192.977-.197 1.404-.394.59-.272.793-.832.902-1.342.42-1.963.115-4.007-.875-5.854-.353 2.084-2.055 4.017-4.484 5.092-1.492-2.498.903-5.516-.312-8.1-.556-1.191-1.824-2.135-2.421-3.316-.855-1.68-.23-3.583-.74-5.344-.63-2.185-2.889-3.87-5.046-5.425a76.27 76.27 0 013.046 15.104c.156 1.615.278 3.29 1.268 4.734.563.828 1.39 1.544 2.042 2.337 2.442 3.002 2.075 6.772 3.066 10.204 1.519 5.248 6.342 10.224 4.904 15.483l3.757 4.138zM479 260c.008.073.016.146.028.22.031.253.003.553.26.78 1.74-.345-.249-.664-.288-1zm-19.662 10.934a.31.31 0 00.231.062.16.16 0 00.092-.05c.189-.18.383-.373.33-.57-.052-.196-.444-.392-.919-.375v.1c-.154.28-.06.58.266.833zm-171.412-26.231c-3.848-3.632-8.463-5.522-13.13-4.363-.424.101-.86.24-1.183.63-.597.704-.624 1.936-.61 3.02.06 3.52.248 7.458 2.135 9.82.672.834 1.498 1.39 2.27 2.038 1.27 1.075 2.418 2.437 3.782 3.261 3.432 2.094 7.636.297 10.323-3.316 3.828-5.16-.598-8.273-3.587-11.09zm-15.859-25.417c-.06.11-.099.248-.03.356.052.085.159.13.24.193.08.063.15.152.255.164.12.014.222-.082.294-.173.097-.12.19-.26.172-.408-.023-.172-.182-.295-.332-.4l.025.08a.312.312 0 00-.26-.096c-.163.022-.29.148-.364.284z"/><path d="M293 219.21c-6.952-.174-21.34-.632-19.9.79 3.836-.231 7.153-.502 11.567-.58 2.833-.047 5.854-.038 8.333-.21zm.529.753a.32.32 0 00.456-.191.487.487 0 00-.137-.46c-.112-.108-.256-.157-.394-.204l-.3-.1c-.066-.023-.177.006-.15.084l.203.367c.053.21.157.415.322.504zm-9.337 52.133c-9.224-.085-18.46-.114-27.684-.085-.427 0-.887.014-1.224.356-.472.471-.506 1.384-.877 1.983-.887 1.427-4.303.799-4.404 2.824-.123 2.454 3.348 1.997 4.685 2.24.472.086.978.171 1.348.57.484.528.585 1.413.64 2.212.226 2.838.45 5.677.664 8.515.033.457.112.985.427 1.184.134.086.303.1.46.1 3.416.1 7.618-1.37 8.303-5.606.562-3.423-1.55-6.533-3.494-9A152.903 152.903 0 01292 274.035c-2.27-1.826-5.123-1.911-7.808-1.94zM272 270.726c-.006.093.092.173.125.091l.062.183c.279-.192.533-.456.748-.774.042-.061.085-.15.055-.226-.305.113-.598.29-.868.52-.056.05-.116.113-.122.206zm61-.058a146.93 146.93 0 00-8.383-.263c-2.34-.006-8.443-.492-9.842-.391-5.62.406 3.74.944 5.562.973 4.268.066 8.512-.127 12.663-.32zm-19.872 22.122a.542.542 0 00.619.177.364.364 0 00.21-.159c.126-.222-.042-.542-.243-.64-.201-.096-.429-.073-.63-.168l.026.027c-.16.197-.137.561.018.762zm-42.08 40.774c.533-.099 1.078-.205.926-.315-.152-.11-1.294-.215-2.512-.19l-6.14.024a209.254 209.254 0 00-5.544-.083c-1.878.005-3.831.067-4.973.2-.825.095-1.117.234-.393.335.367.053.951.089 1.547.121 2.436.132 5.202.208 7.942.281 1.713.047 3.59.093 5.265.037 1.94-.063 2.994-.244 3.882-.41zM470.744 86.992c1.005.671 2.015 1.342 3.02 2.021 1.768 1.186 3.56 2.372 5.48 3.035 1.217.414 2.468.616 3.713.811 1.34.211 2.867.352 3.872-.858.458-.554.734-1.318.998-2.067 1.692-4.775 4.43-14.41-1.21-16.517-3.472-1.295-12.39.476-14.257 4.634a35.238 35.238 0 00-2.239 6.796c-.111.507-.205 1.084 0 1.529.141.28.388.453.623.616zM513 52l-.045.085A3.33 3.33 0 01512 53a1.165 1.165 0 001-1zm-.027 21c-.292.306-.637.867-.973 1 .251-.099 1.168-.35.973-1zM532 41.22c.327.09.648.29.944.56.025-.16.046-.33.056-.5l-1-.06z"/><path d="M532.527 41.96a.35.35 0 00.129.04c.083.004.15-.04.198-.085a.44.44 0 00.03-.625c-.106-.128-.282-.229-.484-.29-.07.16-.34.273-.391.442-.066.216.244.394.518.519zm-113.722 5.287c3.359 2.778 7.33 3.64 11.186 4.428 1.933.4 4.109.728 5.672-.922 1.437-1.5 1.912-4.235 1.975-6.76.074-3.389 1.204-9.704-.95-11.517-1.342-1.13-5.197.045-6.697.505-4.521 1.382-9.274 5.647-11.64 11.338-.243.595-.465 1.308-.286 1.932.127.46.444.743.74.996zM407.114 73.83c.155.1.328.137.5.16.09.014.19.023.269-.04.319-.252-.092-.85-.303-.939-.214-.09-.697.394-.554.726.019.044.053.07.088.092zm686.862 366.711c-2.456-5.3-12.403-.668-16.25-.647-.887.01-1.924.06-2.43.88-.363.596-.318 1.395-.247 2.124.23 2.457.452 4.915.682 7.373.071.748.15 1.537.532 2.154.975 1.588 3.307 1.234 4.415 2.7.434.567.612 1.346 1.046 1.912 1.1 1.457 3.13.982 4.734.385 1.108-.415 2.287-.88 3.014-1.922.293-.415.497-.9.772-1.335.833-1.315 2.242-1.972 3.227-3.156 1.879-2.255 1.764-5.846 1.046-8.86-.16-.546-.31-1.102-.541-1.608zM277.819 93.99c.163.005.35.011.539.01.2-.002.364-.012.502-.02 2.02-.13 3.764-.297 6.487-.35 2.471-.05 5.307.017 7.653-.052-1.092-.21-3.4-.515-7.089-.57-2.07-.03-4.09.023-5.985.068-1.066.026-5.67.045-6.085.087-.15.015-.188.034-.226.052l-.414.205c-.213.11-.414.224.276.324.828.116 2.635.184 4.342.245zM255.108 74a459.33 459.33 0 0110.536-.133c2.75-.004 7.567-.596 6.076-.762-1.01-.112-4.724-.126-6.496-.082-.808.021-4.646.19-4.88.218.187-.022-.434-.037-.854-.035l-4.786.012c-.373 0-.777.002-1.057.017-.637.033-.062.091.233.138.808.12-.575.25-1.88.355 1.414.075 2.486.169 3.108.272zm110.016-35.337c.187 1.131.267 3.806.26 6.224-.006 2.42-.082 4.75-.127 7.113.148-1.32.276-2.918.38-4.716.029-.5.058-1.043.104-1.342.017-.111.036-.189.05-.344.018-.178.028-.444.038-.7l.078-2.208c.106-3.007.222-10.918-.273-10.685-.164.078-.334 2.541-.465 3.484-.152 1.11-.268 1.831-.045 3.174zM105 365c18.442-15.327 20-20 20-20-17.331 12.845-20 20-20 20zm93.945 42.69c.124-.467 0-.69 0-.69-.684.467-1.202.334-.809.69.394.356.685.467.809 0zm-.874 10.02c.233.355.697.417.892 0 .195-.417-.439-.96-.586-.584-.132.34-.54.23-.306.584zM293 407.85s-13.103-.173-18.817-.85c-5.264.827 8.121 1.244 18.817.85zm166.274 467.987c.109.102.253.18.4.16.192-.029.331-.233.326-.433-.021-.96-1.626-.578-.726.273zm-20.666-21.616c-.117-.073-.231-.148-.348-.221a.426.426 0 00-.26.397c.006.212.157.4.34.512.201.121.516.14.627-.062.063-.115.03-.263-.05-.371-.079-.108-.196-.181-.309-.255z"/><path d="M438 854c.237.333.475.667.716 1 .09-.081.182-.126.284-.117l-1-.883zm19.847-5.786c-1.223-1.901-3.118-3.25-4.968-4.539-4.631-3.22-9.247-6.455-13.879-9.675 2.644 5.505 6.405 10.473 10.944 14.567 1.27 1.15 5.595 5.611 7.353 5.427 2.537-.276 1.819-3.802.55-5.78z"/></g></svg>