<svg id="_15212707_copy_7" data-name="15212707 copy 7" xmlns="http://www.w3.org/2000/svg" width="454.05" height="415"><defs><style>.cls-1{fill:#512511}</style></defs><path id="Path" class="cls-1" d="M.056.049H.041h.015z" transform="translate(385.95 87.95)"/><path id="Path-2" data-name="Path" class="cls-1" d="M35.411 12.459c.893 2.336 3.735 4.11 3.41 6.528s-4.061 1.047-5.766 1.371.567 3.465.567 3.465L23.8 20.357s8.121 4.352 9.825 4.675 1.543-.161 1.381 2.739-5.44 4.754-9.34 5.722-4.952 3.223-3.086 6.207-2.842 2.578-4.223 2.66-2.6 1.531-.893 2.739 7.309.645 8.932.563 1.625 6.446.162 8.864-.893 8.14-.893 8.14l-3.33 1.45c-3.33 1.45-4.141 2.739-4.141 2.739a30.126 30.126 0 003.492-1.45c1.787-.887 2.842-1.613 3.574-.645s-.488 2.82-2.031 4.675 1.217 2.176 2.275 2.015 2.031 1.613 2.11 2.981-3 1.613-3.979 1.289.567-2.336.567-2.336a2.915 2.915 0 00-1.7 1.371c-.65 1.129-2.11 1.371-2.6.4a2.213 2.213 0 00-3.248-.805c-1.137.968-1.949.805-2.354.081s-.976-.968-1.3-.324a1.977 1.977 0 01-1.949 1.371 12.191 12.191 0 01-3.492-1.531 25.109 25.109 0 012.031 3.465c.326.968-1.381.081-2.519-.968s-2.842.4-3.168.324S0 63.475 0 63.475s.811 7.977 1.787 11.282.811 2.981.082 4.11-1.949 1.933-.732 2.98A16.941 16.941 0 004.061 83.7c.893.563.406 2.015 1.217 2.82s.893-.4.567-2.015.326-1.855 1.381-2.336 1.3.484 1.461 2.176a4.622 4.622 0 001.543 2.82 4.1 4.1 0 00-.244 2.257s.244-2.257 2.275-1.934 1.3-.161 2.436.484 2.519-.4 3.168-1.208 1.3-2.094 2.924-1.45a11.162 11.162 0 002.094.748 4.038 4.038 0 01-2.236.822c-1.714.137-.068 1.5 1.1.92s.343 2.554.618 2.078a15.94 15.94 0 012.453-3.606l.116.007c2.519.161 2.519.484 3.492-.563s-.326-1.773 1.381-2.257.732-1.934 1.381-2.257 1.543 1.934 3.818 3.949c1.589 1.407 1.2 2.265.787 3.367h-5.672s-1.029-1.225-1.852 0c-.664.99-1.372.817-.823 1.225s.548 1.7 1.442 1.975 1.166-.34 1.784-.817a2.063 2.063 0 00.548-1.567l4.5-.6a4.673 4.673 0 00-.3 1.414c-.082 2.094 1.949 6.044 3.9 5.562 1.845-.458 1.874-.194 3.108.383l-.891 1.512a3.377 3.377 0 00-1.239-.237 5.343 5.343 0 00-3.139 1.591c.268-.657 1.55-2.653.763-3.182-1.077-.724-1.326 1.445-1.524 1.972-.251.673-.988 1.026-1.432 1.589-.179.225-.3.57-.1.781a.716.716 0 00.606.132 7.552 7.552 0 002.857-.915 1.039 1.039 0 01.787-.206.984.984 0 01.326.218 6.98 6.98 0 00.734.57l-7.35 12.473.65.968 6.971-13.273a3.513 3.513 0 00.468.228 2.286 2.286 0 001.729.022.976.976 0 00.6-1.395 2.676 2.676 0 00-1.415-1.222c-.036-.017-.075-.031-.113-.048l.809-1.538.13.06c1.461.645 1.949-1.208 1.949-1.208 1.137-2.094 1.461-1.371 3.735-1.45s.976.968.893 2.82.082 2.176.893.161.811-4.433 3.979-1.45 3.653.161 5.928 1.208.326 3.384-2.11 3.868-1.787.726-2.924 3.223-1.461 1.289-2.519 2.739.488.484 2.354-.081 1.461.484 1.461.726-1.787 1.047-.893 2.257.893.484 1.625-.563 1.137 1.208 2.11 1.371 1.461-.161 2.275.484 1.3.324.976-.484.162-1.692 1.869-1.371 2.436-.161 2.436-1.613 1.217-2.336 1.137-.805.976 1.047.976 1.047c.066 2.736 1.609 11.924 1.609 11.924s-.976-12.09-.082-12.492.244-1.289.406-2.418 1.625-1.289 2.11-2.5.732-5.641 1.381-7.656 2.031-2.176 3.653-4.352 2.924-2.418 5.2-3.868 2.68 1.047 3.574 1.613.732-1.047 2.193-2.336 1.7-.645 2.354 1.45 1.461 3.465 2.11 5.883-.406 4.836 1.217 7.012 3.574 1.289 3.086-1.855-4.629-10.4-4.547-14.023 1.787-4.836 4.467-5.48 1.867.484 3.168-1.531.732-2.9.732-2.9l4.385 1.289-4.385-2.094c.162-.968.65-2.257 2.193-2.094s1.7.4 2.193-1.371 1.787-1.613 2.354-.563a8.97 8.97 0 002.6 2.257s-.732-1.047-1.3-2.094-.567-1.692 1.543-2.015.893-3.949.976-4.915 0-5.883.976-6.125 5.117 1.531 5.928-.4-3.248-4.352-4.3-5.722-1.137-1.531-.811-4.11-1.787-2.257-2.275-4.675.976-.484 2.842-1.45-.326-1.45.244-2.5.326-1.129-.326-1.692-.893-.081-.893-1.773-.811-.4-1.381.081-.326-2.5-.326-2.5-1.137 3.144-2.436 3.868-.811-5.238-.811-7.414.326-3.547-1.869-6.286a52.747 52.747 0 01-4.061-6.044s3.793-1.129 4.267-1.205c-.483.031-4.916.237-4.916.237l-1.217-1.208 5.44-4.27-6.9 3.3s-4.547-5.722-8.038-7.091a21.731 21.731 0 00-5.766-1.531L86.489.214a9.344 9.344 0 01-3.33 2.981c-1.949.887-7.633 0-9.907.324s-2.519-1.29-3.33-3.063-.322 2.094-1.138 3.625-3.735.4-6.9.081S55.953 4 54.9 5.21s-1.787.805-3.248 1.129A2.908 2.908 0 0049.7 8.194l-4.223.726 4.141.4a10.409 10.409 0 01-2.11 2.418c-1.949 1.934-5.522 3.465-8.121 1.047s-4.869-2.665-3.976-.326z" transform="translate(284 67)"/><path id="Path-3" data-name="Path" class="cls-1" d="M.987 17L8 0 0 15.326z" transform="translate(310 170)"/><path id="Path-4" data-name="Path" class="cls-1" d="M16.863 17L17 14.382 0 0z" transform="translate(297 72)"/><path id="Path-5" data-name="Path" class="cls-1" d="M6.622 8L8 6.816 0 0z" transform="translate(327 67)"/><path id="Path-6" data-name="Path" class="cls-1" d="M0 .014A.654.654 0 01.1.1S.083-.045 0 .014z" transform="translate(304.95 138.95)"/><path id="Path-7" data-name="Path" class="cls-1" d="M1.845 6.382c1.068-1 .978-1.142 1.779.573s.534 0 .711-.713.534-.713 1.6 1.142.621-.713 1.422-4.567A8.793 8.793 0 018 .521c-.7-1.036-1.678-.56-3.578 1.727C2.289 4.816 3.09 3.106.955 5.673s-.177 1.711.89.709z" transform="translate(289 131)"/><path id="Path-8" data-name="Path" class="cls-1" d="M.37 5.85C-2.006 12.817 7.834.676 8 .078c0 0-5.26-1.196-7.63 5.772z" transform="translate(289 131)"/><path id="Path-9" data-name="Path" class="cls-1" d="M.1.05S.039-.062.006.05.1.05.1.05z" transform="translate(288.95 135.95)"/><path id="Path-10" data-name="Path" class="cls-1" d="M.013.022C-.042.1.1.1.1.1S.067-.056.013.022z" transform="translate(288.95 117.95)"/><path id="Path-11" data-name="Path" class="cls-1" d="M.011.04C-.039.149.1.076.1.076S.06-.068.011.04z" transform="translate(326.95 169.95)"/><path id="Path-12" data-name="Path" class="cls-1" d="M.1.058S.038-.065.005.047.1.058.1.058z" transform="translate(326.95 169.95)"/><path id="Path-13" data-name="Path" class="cls-1" d="M.013.087C.061.138.1.022.1.022.065-.037-.035.035.013.087z" transform="translate(326.95 177.95)"/><path id="Path-14" data-name="Path" class="cls-1" d="M13 1.085L12.337 0 0 17z" transform="translate(322 178)"/><path id="Path-15" data-name="Path" class="cls-1" d="M.039 0C-.037.014.022.1.022.1c.11.022.093-.112.017-.1z" transform="translate(342.95 177.95)"/><path id="Path-16" data-name="Path" class="cls-1" d="M.01.067C-.036.155.1.04.1.04.111-.015.055-.02.01.067z" transform="translate(342.95 185.95)"/><path id="Path-17" data-name="Path" class="cls-1" d="M.007.047C-.032.159.1.058.1.058S.046-.065.007.047z" transform="translate(347.95 194.95)"/><path id="Path-18" data-name="Path" class="cls-1" d="M.016 0C-.048.016.1.1.1.1S.081-.013.016 0z" transform="translate(347.95 194.95)"/><path id="Path-19" data-name="Path" class="cls-1" d="M.1.1S.125-.006.03 0 .1.1.1.1z" transform="translate(342.95 194.95)"/><path id="Path-20" data-name="Path" class="cls-1" d="M.042.1S.165 0 .053 0 .042.1.042.1z" transform="translate(342.95 194.95)"/><path id="Path-21" data-name="Path" class="cls-1" d="M.063 0C-.042 0 .016.1.016.1S.168 0 .063 0z" transform="translate(342.95 185.95)"/><path id="Path-22" data-name="Path" class="cls-1" d="M.026.009C-.061.055.1.1.1.1S.112-.036.026.009z" transform="translate(334.95 185.95)"/><path id="Path-23" data-name="Path" class="cls-1" d="M.013.082C.067.151.1 0 .1 0S-.042.014.013.082z" transform="translate(363.95 185.95)"/><path id="Path-24" data-name="Path" class="cls-1" d="M.1.056s0-.12-.078-.008S.1.056.1.056z" transform="translate(372.95 185.95)"/><path id="Path-25" data-name="Path" class="cls-1" d="M.019.019C-.052.091.1.1.1.1S.089-.053.019.019z" transform="translate(372.95 177.95)"/><path id="Path-26" data-name="Path" class="cls-1" d="M0 0l8 8a16.819 16.819 0 00-8-8z" transform="translate(365 162)"/><path id="Path-27" data-name="Path" class="cls-1" d="M0 0l.1 8C.1 3.331 0 0 0 0z" transform="translate(372.95 162)"/><path id="Path-28" data-name="Path" class="cls-1" d="M.1 8S.079 1.069.016.077.1 8 .1 8z" transform="translate(372.95 162)"/><path id="Path-29" data-name="Path" class="cls-1" d="M.037.005C-.042.041.03.093.03.093.129.135.116-.031.037.005z" transform="translate(363.95 169.95)"/><path id="Path-30" data-name="Path" class="cls-1" d="M.1 1.461S.085-.675.045.218s-.067 6.4-.018 7.645S.1 1.461.1 1.461z" transform="translate(372.95 157)"/><path id="Path-31" data-name="Path" class="cls-1" d="M0 .747L8 8 2.3 0z" transform="translate(395 162)"/><path id="Path-32" data-name="Path" class="cls-1" d="M0 .48L.1 8 .044 0z" transform="translate(385.95 162)"/><path id="Path-33" data-name="Path" class="cls-1" d="M7.776 3.7s-.39-2.366-1.685-2.158S4.275 3.189 4.148 3.5 0 0 0 0s1.426 2.883 2.205 4.015-.648.719.258 2.06 2.722 2.47 3.369 1.646.52-.514 1.557.1.649-.614-.389-1.847.776-2.274.776-2.274z" transform="translate(386 149)"/><path id="Path-34" data-name="Path" class="cls-1" d="M.569 0C-2.524-.2 8 8 8 8S3.668.211.569 0z" transform="translate(395 140)"/><path id="Path-35" data-name="Path" class="cls-1" d="M.016 0C-.047 0 .1.1.1.1S.079 0 .016 0z" transform="translate(393.95 148.95)"/><path id="Path-36" data-name="Path" class="cls-1" d="M.014 0C-.044.023.1.1.1.1S.071-.018.014 0z" transform="translate(385.95 138.95)"/><path id="Path-37" data-name="Path" class="cls-1" d="M.032 0c-.1.028.061.1.061.1S.13-.024.032 0z" transform="translate(393.95 138.95)"/><path id="Path-38" data-name="Path" class="cls-1" d="M0 .083C0 .142.1.028.1.028.116-.037 0 .025 0 .083z" transform="translate(385.95 148.95)"/><path id="Path-39" data-name="Path" class="cls-1" d="M0 .006C-.015.028.1.1.1.1.1.023.018-.016 0 .006z" transform="translate(376.95 148.95)"/><path id="Path-40" data-name="Path" class="cls-1" d="M0 .041C-.025.751.1 8 .1 8S.033-.664 0 .041z" transform="translate(376.95 149)"/><path id="Path-41" data-name="Path" class="cls-1" d="M.016 0C-.048.013.1.1.1.1S.081-.011.016 0z" transform="translate(376.95 138.95)"/><path id="Path-42" data-name="Path" class="cls-1" d="M.035.1s.132-.1.02-.1-.02.1-.02.1z" transform="translate(372.95 148.95)"/><path id="Path-43" data-name="Path" class="cls-1" d="M3.187 0C-.295-.074-.485 3.139.551 4.711S4.5 6.28 4.5 6.28L5.068 8l.188-2.242S7.8 6.8 7.984 5.084A4.937 4.937 0 003.187 0z" transform="translate(399 127)"/><path id="Path-44" data-name="Path" class="cls-1" d="M.037.006C0-.174-.02 3.744.033 6.952S.1 4.993.1 4.993.075.181.037.006z" transform="translate(424.95 127)"/><path id="Path-45" data-name="Path" class="cls-1" d="M.167.034C-1.351.135 8 .09 8 .09S1.681-.067.167.034z" transform="translate(407 109.95)"/><path id="Path-46" data-name="Path" class="cls-1" d="M8 .1S1.9-.056.2.022 8 .1 8 .1z" transform="translate(395 109.95)"/><path id="Path-47" data-name="Path" class="cls-1" d="M8 .008S2.253-.032.266.067 8 .008 8 .008z" transform="translate(395 105.95)"/><path id="Path-48" data-name="Path" class="cls-1" d="M0 .1A1.052 1.052 0 00.1 0z" transform="translate(406.95 96.95)"/><path id="Path-49" data-name="Path" class="cls-1" d="M17 0C11.7 2.691.192 7.282.192 7.282-1.763 10.312 11.726 2.951 17 0z" transform="translate(395 89)"/><path id="Path-50" data-name="Path" class="cls-1" d="M7.183 7.97C7.5 7.489 9.1 3.647 6.7 1.4S.159-.677 0 3.966 7.183 7.97 7.183 7.97z" transform="translate(395 80)"/><path id="Path-51" data-name="Path" class="cls-1" d="M.1.092C-1.044.134 8 0 8 0S1.244.049.1.092z" transform="translate(395 87.95)"/><path id="Path-52" data-name="Path" class="cls-1" d="M.083.1C.136.025.051-.046.009.039S.083.1.083.1z" transform="translate(385.95 87.95)"/><path id="Path-53" data-name="Path" class="cls-1" d="M11.121 8.709c-1.433-.827.359-1.509-.721-2.062s-.716-1.1-.447-1.653-.447-1.927-1.7-2.062-.716 0-1.076-1.1-.807-1.788-1.7-.552 0 0-1.254-1.1-3.131 3.165-3.04 5.088 0 1.375-.807 2.2S.107 8.3 1.54 9.531s1.432 1.24.985 2.753.175 3.716.806 3.028.626-2.34 1.432-2.753.985 3.854.807 4.4 2.148-4.815 2.148-4.815L9.867 14.9l.091-5.089L13 11.871s-.447-2.336-1.879-3.162z" transform="translate(412 68)"/><path id="Path-54" data-name="Path" class="cls-1" d="M.083.1C.121.079.093-.033.021.01S.083.1.083.1z" transform="translate(424.95 76.95)"/><path id="Path-55" data-name="Path" class="cls-1" d="M.028.157C-.055 1.557.074 8 .074 8 .116 7.167.112-1.243.028.157z" transform="translate(453.95 98)"/><path id="Path-56" data-name="Path" class="cls-1" d="M8 0S2.575 2.028.331 6.836 8 0 8 0z" transform="translate(395 59)"/><path id="Path-57" data-name="Path" class="cls-1" d="M8 0S2.057 2.085.231 6.852 8 0 8 0z" transform="translate(386 67)"/><path id="Path-58" data-name="Path" class="cls-1" d="M.1 0a63.909 63.909 0 00-.08 6.913C.067 11.519.1 0 .1 0z" transform="translate(393.95 67)"/><path id="Path-59" data-name="Path" class="cls-1" d="M.09.1S.134-.041.034.012.09.1.09.1z" transform="translate(385.95 58.95)"/><path id="Path-60" data-name="Path" class="cls-1" d="M.047.01C-.065-.037.058.1.058.1S.159.057.047.01z" transform="translate(402.95 50.95)"/><path id="Path-61" data-name="Path" class="cls-1" d="M.1 0S.052-.013.009.074.1 0 .1 0z" transform="translate(372.95 66.95)"/><path id="Path-62" data-name="Path" class="cls-1" d="M.086.006C.029.253 0 8 0 8S.144-.247.086.006z" transform="translate(355.95 67)"/><path id="Path-63" data-name="Path" class="cls-1" d="M.038 0c-.106-.015.043.1.043.1S.145.019.038 0z" transform="translate(363.95 58.95)"/><path id="Path-64" data-name="Path" class="cls-1" d="M.045 0c-.111-.008.02.1.02.1S.156.008.045 0z" transform="translate(326.95 58.95)"/><path id="Path-65" data-name="Path" class="cls-1" d="M5.868.1C10.235.1 7.41-.041 1.76.012S5.868.1 5.868.1z" transform="translate(319 66.95)"/><path id="Path-66" data-name="Path" class="cls-1" d="M8 .1S4.7-.051.825.018 8 .1 8 .1z" transform="translate(319 58.95)"/><path id="Path-67" data-name="Path" class="cls-1" d="M.1.1S.1.009.022 0 .1.1.1.1z" transform="translate(326.95 58.95)"/><path id="Path-68" data-name="Path" class="cls-1" d="M8.8.289c-2.1-1.415-.841 2.829-.841 2.829S1.66 2.551.121 2.551 12.3 7.929 12.3 7.929c2.237.853-1.4-6.229-3.5-7.64z" transform="translate(292 67)"/><path id="Path-69" data-name="Path" class="cls-1" d="M1.064.3C-2.5-1.37 3.785 4.309 6.668 6.843 7.464 7.542 8 8 8 8S5.606 2.44 1.064.3z" transform="translate(289 67)"/><path id="Path-70" data-name="Path" class="cls-1" d="M0 .045a.548.548 0 00.1.012C.027.045-.011.04 0 .045z" transform="translate(215.95 50.95)"/><path id="Path-71" data-name="Path" class="cls-1" d="M.071.1A.448.448 0 00.029 0a.376.376 0 00.042.1z" transform="translate(254.95 20.95)"/><path id="Path-72" data-name="Path" class="cls-1" d="M.094.032L.1 0 0 .1A.45.45 0 01.094.032z" transform="translate(317.95 37.95)"/><path id="Path-73" data-name="Path" class="cls-1" d="M.014.163c-.055 1.558.068 7.794.068 7.794C.131 8.736.07-1.394.014.163z" transform="translate(283.95 119)"/><path id="Path-74" data-name="Path" class="cls-1" d="M.569 2.178C-2.3 8.293 6.63 8 6.63 8 11.1 4.413 3.441-3.944.569 2.178z" transform="translate(289 110)"/><path id="Path-75" data-name="Path" class="cls-1" d="M.095.1S.127-.027.031.005.095.1.095.1z" transform="translate(288.95 109.95)"/><path id="Path-76" data-name="Path" class="cls-1" d="M.014.129C-.044-1.185.1 8 .1 8S.072 1.438.014.129z" transform="translate(275.95 110)"/><path id="Path-77" data-name="Path" class="cls-1" d="M.066.076C1 .147 7.992.039 7.992.039 8.306-.033-.864 0 .066.076z" transform="translate(268 117.95)"/><path id="Path-78" data-name="Path" class="cls-1" d="M.015.088C.076.137.1.017.1.017c0-.05-.146.022-.085.071z" transform="translate(267.95 126.95)"/><path id="Path-79" data-name="Path" class="cls-1" d="M.036 0c-.092.018.021.1.021.1.052.008.07-.115-.021-.1z" transform="translate(267.95 117.95)"/><path id="Path-80" data-name="Path" class="cls-1" d="M0 .1S.156.03.078 0 0 .1 0 .1z" transform="translate(267.95 117.95)"/><path id="Path-81" data-name="Path" class="cls-1" d="M.164.051c-1.5.089 7.8.03 7.8.03C8.566 0 1.662-.038.164.051z" transform="translate(276 135.95)"/><path id="Path-82" data-name="Path" class="cls-1" d="M.046.1S.164-.026.051 0 .046.1.046.1z" transform="translate(288.95 135.95)"/><path id="Path-83" data-name="Path" class="cls-1" d="M0 .1C.015.107.145.028.084 0S0 .1 0 .1z" transform="translate(288.95 138.95)"/><path id="Path-84" data-name="Path" class="cls-1" d="M1.572 4.561c1.507.632.127.949.25 2.609s1.63.475 3.636-.475 1.13-2.371 2.006-3.083.627-.87-.377-1.422 0-1.976 0-1.976c-.127-.395-1.63-.317-3.01.87S2.321.451.819 1.478s-.75 2.451.753 3.083z" transform="translate(340 59)"/><path id="Path-85" data-name="Path" class="cls-1" d="M.1.036L.089 0 0 .1z" transform="translate(393.95 79.95)"/><path id="Path-86" data-name="Path" class="cls-1" d="M.078 0C0-.014 0 .1 0 .1S.156.017.078 0z" transform="translate(385.95 79.95)"/><path id="Path-87" data-name="Path" class="cls-1" d="M.044 0c-.111-.02.024.1.024.1S.154.026.044 0z" transform="translate(372.95 58.95)"/><path id="Path-88" data-name="Path" class="cls-1" d="M.014.021C-.044.1.1.1.1.1S.071-.058.014.021z" transform="translate(224.95 109.95)"/><path id="Path-89" data-name="Path" class="cls-1" d="M8 .095S4.37-.065.741.031 8 .095 8 .095z" transform="translate(208 96.95)"/><path id="Path-90" data-name="Path" class="cls-1" d="M.1 0S.042-.023.006.071.1 0 .1 0z" transform="translate(215.95 79.95)"/><path id="Path-91" data-name="Path" class="cls-1" d="M4.36 7.8C7.571 9.093 8 3.665 8 3.665S6.286-1.246 2.009.3 1.148 6.51 4.36 7.8z" transform="translate(199 89)"/><path id="Path-92" data-name="Path" class="cls-1" d="M9.965 7.2c-.737 1.358 1.838.679 4.23.168a3.053 3.053 0 002.575-2.542s.919-2.373-.919-2.713A47.818 47.818 0 0110.7.419 23.592 23.592 0 00.4.758c-2.392.847 6.623 1.019 9.752 1.187s2.761 1.019 3.129 1.866S10.7 5.844 9.965 7.2z" transform="translate(207 59)"/><path id="Path-93" data-name="Path" class="cls-1" d="M.035.033C-.054.67.054 7.991.054 7.991.112 8.313.125-.6.035.033z" transform="translate(224.95 38)"/><path id="Path-94" data-name="Path" class="cls-1" d="M0 .063C.028.133.124.1.094 0c0 0-.115-.007-.094.063z" transform="translate(215.95 45.95)"/><path id="Path-95" data-name="Path" class="cls-1" d="M1.986 6.308c1.041.963.926 2.406 1.156 1.284a29.148 29.148 0 011.5-3.849C5.455 1.658 7.654.7 8 .377a21.449 21.449 0 00-3.123.963C3.836 1.823 3.722-.745 2.449.218S.714 2.624.136 4.868s.809.477 1.85 1.44z" transform="translate(217 30)"/><path id="Path-96" data-name="Path" class="cls-1" d="M.089.1S.136-.036.035.009.089.1.089.1z" transform="translate(236.95 37.95)"/><path id="Path-97" data-name="Path" class="cls-1" d="M.046 0C-.066-.009.06.1.06.1S.158.01.046 0z" transform="translate(228.95 37.95)"/><path id="Path-98" data-name="Path" class="cls-1" d="M.024 0C-.059.025.1.1.1.1S.107-.02.024 0z" transform="translate(228.95 37.95)"/><path id="Path-99" data-name="Path" class="cls-1" d="M.1.091S.093-.067.02.033.1.091.1.091z" transform="translate(228.95 37.95)"/><path id="Path-100" data-name="Path" class="cls-1" d="M.1.1A.075.075 0 00.029 0C-.064-.011.1.1.1.1z" transform="translate(228.95 28.95)"/><path id="Path-101" data-name="Path" class="cls-1" d="M.1.1S.1-.008.022 0 .1.1.1.1z" transform="translate(236.95 28.95)"/><path id="Path-102" data-name="Path" class="cls-1" d="M.031.037C-.029.893.016 17 .016 17 .157 13.573.09-.822.031.037z" transform="translate(228.95 8)"/><path id="Path-103" data-name="Path" class="cls-1" d="M.089.1A.063.063 0 00.018 0c-.066.028.071.1.071.1z" transform="translate(236.95 7.95)"/><path id="Path-104" data-name="Path" class="cls-1" d="M.1.1S.074-.047.014.016.1.1.1.1z" transform="translate(254.95 7.95)"/><path id="Path-105" data-name="Path" class="cls-1" d="M.033.06C-.59.159 7.815.042 7.815.042 9.37.005.65-.038.033.06z" transform="translate(258 7.95)"/><path id="Path-106" data-name="Path" class="cls-1" d="M1.35 6.919c.92 2.317 0 0 .574-.365s.69-.489 1.264.733.46.61.8.121.344-.854.8-1.219.574.365 2.3-.854.46-1.831.46-1.831C7.323.7 5.829-.524 3.991.209S3.3.7 2.268 1.551 1.464 2.649.43 4.6s.002 0 .92 2.319z" transform="translate(258)"/><path id="Path-107" data-name="Path" class="cls-1" d="M.018 16.683C.086 13.65.1 0 .1 0S-.051 19.715.018 16.683z" transform="translate(267.95 13)"/><path id="Path-108" data-name="Path" class="cls-1" d="M.1 0S-.036 2.484.009 6.96.1 0 .1 0z" transform="translate(288.95 13)"/><path id="Path-109" data-name="Path" class="cls-1" d="M8 0S1.944 3.243.211 7.161 8 0 8 0z" transform="translate(280 30)"/><path id="Path-110" data-name="Path" class="cls-1" d="M.078 0C0-.016 0 .1 0 .1S.156.02.078 0z" transform="translate(283.95 20.95)"/><path id="Path-111" data-name="Path" class="cls-1" d="M.039 0a.344.344 0 00.012.077C.067.126.064.087.039 0z" transform="translate(135.95 326.95)"/><path id="Path-112" data-name="Path" class="cls-1" d="M.1.044a.263.263 0 00-.1.012S.038.053.1.044z" transform="translate(89.95 283.95)"/><path id="Path-113" data-name="Path" class="cls-1" d="M.1.033a.17.17 0 00-.094.026C-.016.078.024.064.1.033z" transform="translate(97.95 223.95)"/><path id="Path-114" data-name="Path" class="cls-1" d="M.1.1A.588.588 0 000 0a.365.365 0 00.1.1z" transform="translate(245.95 138.95)"/><path id="Shape" class="cls-1" d="M72.716 326.9c-1.145-.565-1.906-2.265-1.906-4.251s-.668-2.175-.762-3.685a11.387 11.387 0 00-.668-3.875c-.38-.566-2.1-2.93-.761-3.024a3.394 3.394 0 011.4.3c.795.306 1.388.613 1.264-.3-.191-1.417-.953-4.158-1.715-3.685s-3.145 3.873-3.05 5.2-1.336-2.265-.859-3.589-.774-2.916-.774-2.916-3.111 2.757-5.893 2.271a5.836 5.836 0 01-3.9-2.271s-3.083-1.52-2.491 0a5.775 5.775 0 001.661 2.329s-1.1.472-.781.708 1.9.942 1.9.942l-1.349.313 1.269 2.36-2.062-1.415s-.335 3.4-.264 4.306c-.179-.627-.835-2.339-2.036-2.339-1.586 0-1.189 3.3-1.189 3.3s-1.189-4.167-2.22-3.854a1.476 1.476 0 00-.953 1.494s-4.079-1.38-3.507-7.143c0 0-2.479-2.269-3.909-1.607s.859 3.307.476 4.251-2.477 1.985-2.668-.094c0 0-2.763 7.371-6.672 6.237 0 0-.38-4.723.191-5.2s2.289-5.007 2.1-7.276-4.386-.947-6.1-2.457-.859-2.645-.953-4.063-.667-2.455-1.905-1.7a11.123 11.123 0 00-2.289 1.984l-1.812-1.511a23 23 0 002.765-3.023c.189-.566-3.433-1.606-3.433-3.118s1.238-2.644 1.238-3.779-.761-2.928-.952-4.062.572-4.723-.286-4.723a5.018 5.018 0 01-2.573-1.228c-.189-.285 1.24-.758 2-1.8s0-3.023-.762-2.551-3.05-.379-3.621-1.607c-.38-.818-.842-.966-1.111-.973a5.969 5.969 0 002.922-1.391 10.7 10.7 0 002.956-6.142c.383-2.362-2.479-4.441-3.526-4.251s-4.386 2.458-6.292 2.268-4-1.324-4.194-1.8 3.623-5.764 4.862-5.764.191 1.606 2.574-.755a28.7 28.7 0 005.338-7.654c.762-1.8-.476-2.647-.382-4.157a4.563 4.563 0 00-.033-.777c-2.065.772-5.876 2.247-6.681 2.9a32.686 32.686 0 01-5.265 2.488s-1.222 1.245-4.22 1.036 2.649-1.314 4.22-1.866a5.888 5.888 0 015.265-2.626s.24-.473 6.572-2.607c-.311-1.564-1.028-3.412-1.382-3.552-.476-.189-3.238 3.211-3.621 3.59s3.433-3.875 3.527-6.71-.571-5.2-3.622-5.2-5.898 1.894-9.712.294a27.522 27.522 0 008.768-1.323s3.812 0 4.288.944c0 0-.285-10.015.383-10.867s4.194-6.143 4.479-7.371c.239-1.02-4.251-1.323-6.275-1.288 2.21-.232 7.648-.885 8.373-.885.953 0 1.144-3.778.953-5.006s1.238-4.631 1.429-6.142-2.668-3.023-2.382-4.157c0 0 4.191 1.134 5.718-.19s3.909-4.344 1.812-6.33a29.77 29.77 0 00-5.909-3.875s3.812 1.418 6.195.094 4.956-6.234 5.148-6.613a7.069 7.069 0 012.483.093c1.6.163 3.437.327 3.808-.093.668-.757-1.144-2.647-.762-3.4s1.43-.094 2.289-.755-3.527-1.417-3.812-1.417-2.859-.379-4 .094a13.051 13.051 0 01-3.145.473c-.285.094-.188 1.038-1.047.945s-2.1-1.229-3.242-1.606a5.852 5.852 0 01-2.191-1.7s-2.765.186-3.718-1.324 1.812-4.064 3.909-3.686 1.812.566 3.91.094 3.05-1.039 4.1-.473 4.671 1.8 5.243 2.458.572 2.93.667 3.213-.332 1.139.281 1.191 5.006 0 5.313.657-.767 2.228-.767 2.228 3.322-1.922 3.27-3.138-2.3-1.469-1.534-2.785 4.027-1.742 4.027-3.01-2.075-2.375-2.8-2.455-2.156-2.3-2.156-2.3 2.875 2.533 3.354 1.5-2.236-2.612-2.477-2.533a3.032 3.032 0 01.724-.278 4.03 4.03 0 013.028.04c1.436.873 1.436 2.613 2.555 2.3s3.836-1.822 5.272-1.662 2.078 1.98 3.595 1.742 2.954-2.3 2.635-2.93-1.915-.873-2-1.188 1.358-1.9.559-4.275a20 20 0 00-2.477-4.593c-.161-.318 1.2-.713 1.2-.713l2.156 2.85a1.881 1.881 0 00-.16 2.533c1.038 1.426 1.677 3.722 3.114 3.484s.639-9.66.639-10.373-.639-5.86-.639-5.86a49.885 49.885 0 011.757 5.463c0 .713-.639 8.947 1.517 7.522s8.225-6.335 9.025-7.759-4.475-5.3-5.352-5.937-4.473-3.169-4.553-4.038.24-3.166 1.359-3.166 3.033 1.822 3.833 1.188-.639-2.3-.8-2.771 3.676-1.742 4.794-1.347 4.392 2.376 5.192 1.9 3.194-2.374 4.552-1.5 1.119 2.06 5.832 2.455 4.472-.079 5.272.554a5.2 5.2 0 005.192.869c2.477-.951 5.112-1.742 5.831-3.643s.618-6.171.968-7.039 1.165-.634 3.206 1.214 3.73 4.565 5.3 4.334a4.778 4.778 0 003.5-4.334c.057-2.135-.991-4.794-.059-5.313s1.748-1.906 2.739-2.369 3.5 3.061 3.437 3.984-.757 1.273.991 3.178 1.34 4.045 3.437 4.333 7.691.173 7.691.173 1.573-.865 1.106-1.328-4.253-4.679-4.253-4.679 5.419 5.545 8.392 5.545c.5 0 .9-.012 1.231-.035.86-1.523.748-3.333-.47-5.69-1.406-2.724-2.8-16.213-2.8-16.213s2.2 9.436 3.546 13.355 1.467 5.051 1.6 4.784 1.943-6.559 1.943-6.559a28.2 28.2 0 01-1.073 6.493 10.091 10.091 0 01-1.892 3.709c.806-.2.924-.591 1.759-1.232 1.281-.98 1.458-2.6 2.739-2.425s.175 1.677 1.34.868c1.121-.779 4.406-10.527 4.808-13.553-1.777-.113-3.468-.952-3.782-1.886-.356-1.061-.832-3.893-1.9-2.831s.594 4.6-1.666 4.363-2.857-2.359-1.9-3.421 2.739-2 1.786-2.476-1.071-1.3-2.736.708-2.5 1.3-1.786 0 1.426-2.24.355-2.24-.594 1.3-2.736.825-2.739-3.893-1.786-3.068 1.547 1.534 2.38 1.062 3.926.116 3.569-1.062-1.309-2.24-2.618-5.072-1.666-5.778-2.619-5.661-.476 2.123-.715 3.538-.87 2.084-1.189.669.316-3.695-.873-2.044-3.092 3.225-4.68 5.585-2.219.549-1.031-.865 5.395-6.529 5-7.551c-.2-.52-.507-.43-.8-.34s-.553.175-.709-.289c-.316-.945 1.111-.786.08-1.495s-1.189-1.1-1.189-1.1.238-.316-1.588 0a7.3 7.3 0 00-4.442 2.359c-1.508 1.495-6.107 7-7.061 7s-1.111-.55 0-2.123 6.9-6.214 8.41-7.235 3.965-1.022 3.807-1.731-2.222-1.494-2.222-1.494 3.331.944 2.935.236-.793-1.337-.793-1.337 1.665.786 1.9-.079.158-1.574 1.031-.866 1.426 1.887 2.061 1.1.713-2.6-.476-4.483-1.984-2.673-3.491-1.651-1.826 2.28-3.253 2.28-2.777-.079-2.7 1.415.158 3.381-1.984 2.6-2.461-2.673-1.588-4.4 3.649-1.573 6.426-2.988 3.727-3.933 2.538-3.933-2.458.942-4.441 2.043-5.317 3.382-5.237 3.146 2.854-2.909 2.934-3.146.081-1.886.715-1.337.953.786 1.984-.079 4.919-4.56 4.919-5.9a4.092 4.092 0 00-.319-1.887l-1.662 2.111a9.252 9.252 0 011.9-3.381c1.269-1.258.634-3.3 0-3.46s-.876 0-2.619.316a15.6 15.6 0 01-3.568.157s.319-.866 3.1-1.022a33.755 33.755 0 006.109-1.1c2.38-.472 4.681-2.439 3.649-3.226s-1.826-.472-3.968-.628-1.269-.786-1.269-.786l5.077-.316s-.635-1.574.319-1.495.953 1.336 1.588.786 1.111-1.966 1.665-3.145 1.111-1.731-.476-3.146c-1.345-1.2-5.707-2-6.863-2.173 1.059.066 4.69.117 4.482.049-.146-.047-10.472-2.294-18.322-4l-3.692 3.176 3.562-3.2c-4.773-1.039-8.6-1.868-8.6-1.868s4.23.657 9.056 1.457l8.41-7.567.186.332-8.441 7.26c5.57.924 11.878 2.028 13.4 2.531 2.857.944 8.174 2.909 8.887 2.439s-.953-2.044-.953-2.044 2.381.316 1.665-1.415-3.491-4.562-3.014-5.112c.178-.206.591-.048 1.062.111.786.264 1.734.528 2.033-.9.476-2.28.4-2.989-1.189-3.225s-4.284-1.181-3.1-1.1 4.444.472 5.475.472 2.062-1.179 3.411-.629 3.331.865 3.808-3.068-.873-9.358.08-9.674.715 2.123 2.142 4.483 1.109 4.324 2.062 4.167 2.458-2.28 3.173-5.112 1.585-3.068 2.3-3.7.08-6.29.319-6.134.556 5.9 1.349 5.741 2.618-2.989 2.618-2.989.158 3.7 1.031 3.225c.559-.3.563-2.062.495-3.285.186 1.634.7 4.237 2.043 3.128 1.9-1.571-.4-3.3 1.111-5.661s0-6.291 1.19-7.628 2.141-1.494 2.141.157.4 4.876 2.777 3.618 3.649-2.752 3.967-.237-1.031 3.854 0 5.978 1.984.708 3.649 2.752 2.935 1.81 3.808 1.1.952-1.179 1.745.708 6.426 8.573 7.537 8.573 6.109-6.685 9.44-9.438l3.331-2.752s-6.346 6.606-7.933 8.809-3.333 4.56-3.094 5.9 3.331 2.6 3.568 1.258 1.192-5.9 1.985-4.4 1.9.08 2.776-.392 5.711-2.832 5.711-2.832-3.333 2.36-4.76 3.225-2.935.786-3.807 2.6-.951 5.585 1.588 5.428 12.931-4.167 12.931-4.167l-.792 1.337s11.009-4.976 14.821-6.587c-3.6 1.915-13.241 7-15.617 7.765-2.934.943-6.664 2.753-8.171 4.168a3.448 3.448 0 00.554 5.427 6.908 6.908 0 012.935 2.989c.872 1.258.318 1.887 2.222 2.044s2.142.552 4.6 1.1 2.541-1.021 4.364-1.178a43.017 43.017 0 015.476.079c2.062.08 3.65.629 1.9.629a43.328 43.328 0 00-6.109.316c-2.3.313-1.109-.079-3.331 1.021s-.477 2.124-3.173 1.651-1.9-1.887-4.284-1.337-8.171 1.966-8.41 4.483a43.216 43.216 0 00.4 10.539c.634 2.831.8 2.752 1.984 1.337s1.9-.316 1.508 1.022a1.965 1.965 0 01-1.985 1.651c-.634-.079-1.507 1.728.635 2.044s3.808 3.538 2.777 4.246-2.46.157-3.73-1.257-1.745 1.651.4 2.752 4.206 1.651 5.237 2.909.437 1.81.437 1.81-4.882-2.948-6.308-2.6-2.022 1.887-.595 2.123 3.926 2.006 3.569 4.483-2.619 4.366-3.451 2.832c-.518-.952-.394-.5-.452-.041-.036.278-.139.557-.5.513-.953-.119-.835-1.417-.953-2.831s-1.307-1.3-2.26.708-3.568 3.89-4.52 6.014 0 4.129-1.666 4.719-4.163 2.123-5.117 4.01-.833 3.776-1.189 5.191-.6 2.6-.953.473-.953-2.948-1.547-1.651-4.166 2-6.07 4.836-1.548 2.713-4.4 2.948a5.5 5.5 0 00-3.928 1.652 4.924 4.924 0 01-1.189 3.657c-1.427 1.415-2.38.589-2.38-.825a21.811 21.811 0 00-.356-3.3s-5-.236-8.212-.236-3.928.353-5.237-.945-1.071-1.3-3.1-1.178a6.485 6.485 0 01-.639 0c.175 1.038.54 4.565-1.1 10.733-1.408 5.281-1.993 4.931-2.275 4.581-.117-.144-.182-.289-.232-.038-.172.859.087 2.4 2.423 2.4s4.064.344 5.449 6.688a19.342 19.342 0 003.98-.086c1.189-.108 1.1-.961.592-1.921a6.247 6.247 0 003.385 1.577c2.25.259 3.93-1.742 5.06-4.217a5.482 5.482 0 01.346-3.618c1.609-3.206 2.548-3.156 2.548-3.156a10.947 10.947 0 00-.391 5.333c1.212-1.44 2.708-2.209 4.463-1.03 2.682 1.8-2.227 6.084-1.3 6.774 1.038.771 1.988 1.971 3.892 3.343a29.718 29.718 0 014.324 4.46c1.3 1.372 2.075 3.087 3.373 3.688a3.108 3.108 0 01.5.29 10.081 10.081 0 00-.583-3.3c-.87-1.794 1.378-2.758 2.687-2.458 1.151.262-.609 1.794-1.427 2.324-.354.229-.524 1.8-.6 3.489.868.634 1.359 1.4 3.239.257a49.938 49.938 0 015.536-2.743s-3.458 3.688-1.988 5.659 4.411 4.887 4.843 5.573-.087 2.057-.519 3.257-.172 3.087.519 3a16.123 16.123 0 012.941.086c.432.084-1.038 1.37-1.125 2.743s.779 3.514 2.076 4.116 2.248.428 3.545 1.8l1.3 1.372s2.507-5.228 3.545-5.314a1.51 1.51 0 011.041.428c.445.342.848.683 1.467.172 1.038-.858 3.632-3.26 3.545-3.687-.044-.222.189.589.5 1.4.286.757.637 1.513.888 1.431a4.211 4.211 0 01.995-.043 5.593 5.593 0 003.157-.558 3.356 3.356 0 00.518 2.916c1.039 1.115 1.472 1.63 2.164 1.372s-1.385 1.8-.607 2.572l.779.772s-.431 2.4-1.3 3.257-1.211 1.628-.519 1.715 1.557.256 1.557.256a26.915 26.915 0 01-3.805 2.058 1.361 1.361 0 00-.95 1.971c.431.772-.173 1.716 1.038 2.4a1.419 1.419 0 002.164-.686c.172-.514 3.632-6.858 3.632-6.858s-3.114 8.231-3.545 8.659 1.038.515 1.038.515-3.286.856-3.893 2.486-1.729 4.288-.432 4.2c.94-.061 2.7-.213 3.593-.292a11.855 11.855 0 00-.214-2.016c-.319-.626-2.109-1.985-1.793-1.985a18.092 18.092 0 002.212-.732 4.576 4.576 0 001.688-1.567c.632-1.045-1.794-1.567-.739-1.358s4.006-.419 4.322-.941-.106-2.82.316-1.985 1.583 2.821 2.109 2.926 4.109-5.33 4.109-5.33l-2.951 5.225a20.358 20.358 0 002.11.626c.948.208 2.529-1.359 2.529-1.359a7.247 7.247 0 01-1.055 2.194c-.633.732 1.16 1.462 2.425 2.193s2.845.1 2 .834-.842.522-.211 1.254a2.449 2.449 0 001.688.732l-1.371.733.632.94s-1.371.419-1.687 1.359 1.793 1.672 1.793 1.672l-1.265.208a10.008 10.008 0 00-3.267 1.88c1.58.105 2.215 2.3 3.689 2.612a27.152 27.152 0 013.374 1.045s-2.74.211-4.109.419 1.793 2.193 1.793 2.193l-1.581.313c-1.58.313 2.213 2.717 2.213 2.717-4.006.419-.526 3.134-.949 3.239a2.5 2.5 0 00-2.212 1.148c-.845 1.254 1.474 4.493 1.474 4.493s-1.687-2.3-3.161-2.821-2.845 1.985-2.845 1.985a2.7 2.7 0 00-1.371-2.4c-.908-.514-2.81-.04-4.14.4 1.432 1.391 5.178 5.767 6.6 5.685 1.472-.086 5.278-3 8.392-3.344 0 0 8.3-2.514 8.138-3.377s-.646-.4.694-1.595c.817-.729.912-.569 1.055-.408.092.1.2.2.537.076a10.9 10.9 0 013.111-.088 4.824 4.824 0 001.02-1.122c.441-.768.885-1.537 1.769-1.207a10.484 10.484 0 001 .329.716.716 0 00.9-.292c.176-.241.259-.482.431-.255a3.213 3.213 0 001.218 1.207c.552.22 1 .986 1.659 2.3.366.729.633.415.8.1.132-.253.2-.5.2-.212a3.571 3.571 0 01-.222 1.207l1.439 2.083c-1.439.329.663 3.73.663 3.73s-1.328.328-2.1.547 1 5.7 1 5.7-1.66-2.85-3.319-3.29-2.434 2.3-2.434 2.3c-.111-.66-1.106-3.51-2.212-3.4a25.879 25.879 0 00-2.875.547l.552-1.1c.554-1.1.885-2.41.111-2.74s-2.875.657-2.875.657.444-1.864 1.439-1.864 1.55-.329 1.328-1.1-1.88-.877-1.88-.877a17.069 17.069 0 001.88-.987.947.947 0 00.269-.98c-.8.005-1.963 0-2.85-.082-1.489-.133-.923.4-.469 1.264s.285 1.2-1.823 1.711a1.384 1.384 0 01-.248.07c-2.158.629-5.911 2.916-8.268 4.133-.526.268-.729.309-.729.2-1.736 1.248-3.333 2.754-3.213 4 .26 2.659.694 7.289 2.076 8.575a18.707 18.707 0 005.362 3.257c1.47.515 2.248 3.173 2.075 3.858s-1.557 1.287-3.113.515a8.88 8.88 0 00-4.758-.771c-.607.257-5.018 3.6-5.537 5.572s-1.123 4.032.866 5.232 5.709 5.315 6.659 6.344a21.037 21.037 0 012.6 5.315c.087.514-1.557.942-2.855-.344s-3.4.458-3.114 1.969a3.147 3.147 0 002.383 2.741c1.332.379-.382.472-.859.851s-.191 1.793 1.238 2.172.762 2.269.572 3.685-.38 3.685.382 4.913 1.238 2.079.477 3.118-3.623 0-4.862 1.417-3.145 1.04-3.05 3.213c.056 1.263-.469.929-1.049.6-.418-.24-.864-.48-1.143-.123-.668.849-2.763 3.779-1.238 5.479a52 52 0 004.385 4.062s-4.956-2.834-5.242-1.8 2.765 3.683 3.812 4.534.476 3.307.476 3.307-3.432-1.887-3.718-1.228-1.429 4.251-2.382 5.478-3.623 1.89-3.35 3.227 1.241 5.671.859 7.654-2.288.473-4.385-1.417-3.91-4.158-4.956-3.686-5.719 6.709-7.245 6.52-3.814-2.551-4.385-1.606a8.1 8.1 0 00-.668 2.93s-.191-4.913-1.238-5.386-3.244-.472-3.433-.189-3.43-3.118-3.621-5.575c0 0-4.956-2.173-6.768-2.834s-8.483-.19-10.3 1.983a95.635 95.635 0 00-7.244 11.15c-.285.944-2.385 6.426-3.718 6.991s-4.1.945-3.812-1.985 2.574-4.726 4.575-6.9 4.576-9.26 5.338-10.2 2.67-5.952.191-6.8-8.006-2.741-9.15-2.362a2.218 2.218 0 00-1.429 1.134s.191-1.889-1.048-2.173a2.863 2.863 0 00-2.668.662c-.477.472-3.05-.379-3.718-.662s-3.242.19-3.242 1.134a2.252 2.252 0 00.572 1.511s-2.956-1.418-4.195-1.228a14.969 14.969 0 00-3.718 1.8c-.188.094 1.812 1.89 1.812 1.89s-3.432-1.7-4.67-.755-2.383.186-3.05.093 0 3.592.094 4.63-1.049.755-1.62.094a2.649 2.649 0 00-2.383-.566c-.859.1-2.573-1.038-2.573-1.038l-.285-2.741h-1.048s2.765-2.741 2.48-3.5c0 0-2.383 1.324-3.336.945a2.2 2.2 0 01-1.238-1.135l-.571 1.7a9.119 9.119 0 00-1.621-2.741c-1.238-1.513-2.858-1.134-3.621-2.929s-2.954-4.631-4.288-5.1-1.715-1.321-2.192-.283c-.282.611-.4.141-.718-.329a1.182 1.182 0 00-1.093-.616c-1.333.1-1.524 2.458-1.524 2.458s-.857-2.079-1.621-1.7-.477.473-2.956.945-2.957 1.323-2.957 1.323 1.715 2.362 1.621 3.307-3.146 2.173-3.241 2.645.859 3.592-1.048 4.158-4.289.472-4.574-1.324-.38-5.668-1.239-6.047a3.135 3.135 0 01-1.905 2.079 2.583 2.583 0 01-1.087.039c-.607-.088-.852-.175-.916 1.378a18.264 18.264 0 00.094 3.4s-1.524-1.8-1.524-.473a18.663 18.663 0 00.444 3.147 4.276 4.276 0 001.934.08 4.422 4.422 0 002.7-1.752s-1.557 2.783-.727 2.68 2.911-.411 3.223-.411 1.246 1.031 2.078.928 1.5-3.725 1.5-3.725-.46 3.415.788 3.106 3.845-.617 3.533-2.266-2.494-1.854-2.182-2.266 1.768-2.369 1.768-2.369.83.926.415 1.751 0 .206 0 1.546.623 2.266.726 3.709a1.3 1.3 0 002.078 1.134c.727-.517 2.048-1.237 2.048-1.237s-.177 2.575 1.694 2.266 2.078-.928 2.078-.928a15.134 15.134 0 011.247 2.577c0 .411 2.183 1.854 2.183 1.854-1.246.518-.726 1.96-.623 2.578a4.286 4.286 0 001.04 1.545 14.691 14.691 0 002.286-1.751c.936-.929 1.144-1.546 1.455-1.238a2.86 2.86 0 001.87.721c.831 0 .519-.721.519-.721s1.04.309 1.04.617 1.247.824 1.559.515.934-.825.831.515a10.762 10.762 0 00.937 3.708s1.04.1 1.87.1 1.248-2.269 1.455-2.783 1.663-.411 3.223-.617 1.663-.929 1.663-.929a2.691 2.691 0 002.6 1.855c1.975-.1 2.078-.617 2.078-.617a14.71 14.71 0 001.145 3.5 4.164 4.164 0 002.078.825 6.909 6.909 0 01-1.04.309c-.519.1-.311 1.855.1 2.472s1.248 1.545.311 2.06a5.013 5.013 0 00-2.39 2.265c-.623 1.235.415 2.472-.1 2.061a4.868 4.868 0 00-3.43-.206c-.727.414-.416 2.371-.727 2.577s-1.767-1.957-1.767-1.957l-.936 1.855-.311-2.06s-.833 1.237-1.145 1.237-.625-.928-1.144-1.648c-.314-.436-1.767.821-2.753 1.816a9.435 9.435 0 001.09-2.022c.1-.515-1.247-4.018-1.559-3.915a5.413 5.413 0 01-2.6.929c-1.349 0-2.493 3.092-2.493 3.092s.83-2.781.415-3.709-2.494 1.34-2.494 1.34a4.01 4.01 0 00-.311-3.2c-.482-.635-1.265.252-1.9 1.139-.6.84-1.064 1.679-1.013 1.23.1-.926.208-8.552.208-8.552h-2.494c-.313 0-1.04 2.06-1.04 2.06s2.494 1.029 2.494 2.369a3.734 3.734 0 01-4.157 3.5c-2.41-.265-1.217-3.19-.9-3.814a7.352 7.352 0 01-4.61 2.063c-2.286 0-2.911-2.266-3.222-2.06l-3.741 2.471s2.39-2.165 2.493-2.988-1.247-3.606-1.247-3.606c-.831.414-2.7.62-3.741 1.031s-.208 3.092-.208 3.092a2.521 2.521 0 01-1.248-2.266c0-1.649-1.247-1.237-1.247-1.237s-2.289 2.062-2.912 2.783 2.286 4.017 2.286 4.017-4.47-4.017-4.989-4.12-2.39 2.884-2.7 3.194-.418 1.649-1.04 1.135a4.528 4.528 0 00-3.534-1.34c-2.182 0-3.326-3.5-3.741-4.432s-2.911 2.369-2.911 2.369a15.964 15.964 0 011.352-2.885 4.875 4.875 0 00.415-3.194c-1.144.514-2.078 1.646-1.767.823s2.389-2.577 2.389-3.194-2.7-1.751-1.455-1.546 3.118.206 3.222-.514-.415-1.649.208-1.855 1.04 0 1.56-.617.936-1.339 1.559-1.545.208-1.237.208-1.237 1.663 0 2.7.1a1.818 1.818 0 001.256-.423 4.552 4.552 0 00-2.194-.924c-1.906 0-3.812-.189-3.812-.189s.953-1.8.191-1.134a3.108 3.108 0 00-.953 1.323s-1.049-3.592-1.621-2.458.382 3.118.382 3.118l-1.621.379s-1.524-1.89-1.906-1.607-.094 2.552-1.047 3.685-4.1 4.062-5.051 4.251-3.433-.85-3.527-1.606.192-2.172-.095-2.172-1.812 1.323-1.62 2.362 2.765 3.5 3.05 4.913.285 2.834.476 3.589 7.148 8.124 7.34 8.5c.1.189-2-1.843-4.159-3.874s-4.373-4.063-4.515-3.874c-.285.379.859 3.685.667 4.158s-1.238.379-2.573 1.8a6.388 6.388 0 00-2 3.968c-.418 1.825-1.276 3.5-2.254 3.5a.927.927 0 01-.445-.074z" transform="translate(72 8)"/><path id="Path-115" data-name="Path" class="cls-1" d="M.005.1A.412.412 0 00.1 0C.031.06-.017.11.005.1z" transform="translate(215.95 334.95)"/><path id="Path-116" data-name="Path" class="cls-1" d="M.046 0a.4.4 0 010 .1.117.117 0 000-.1z" transform="translate(215.95 313.95)"/><path id="Path-117" data-name="Path" class="cls-1" d="M6.317 2.627C4.267 2.859-.5 6.371.043 7.516s1.671.117 3.972-1.631S6.2 4.023 7.161 3.908C7.8 3.83 7.964 1.527 8 0c-.091 1.095-.453 2.486-1.683 2.627z" transform="translate(208 309)"/><path id="Path-118" data-name="Path" class="cls-1" d="M6.729 1.467A8.068 8.068 0 003.163 0C.509.327.176 2.935.011 4.564S1.5 7.823 3.163 7.988s4.146-1.305 4.479-2.119.913-3.097-.913-4.402z" transform="translate(221 348)"/><path id="Path-119" data-name="Path" class="cls-1" d="M2.654.244S0 2.181 0 3.473 1.97 7.9 3.682 7.994A3.877 3.877 0 007.45 5.872c.6-1.292.856-3.136 0-4.058S4.369-.586 2.654.244z" transform="translate(250 364)"/><path id="Path-120" data-name="Path" class="cls-1" d="M.1 0C.041.056 0 .1 0 .1A.513.513 0 00.1 0z" transform="translate(267.95 376.95)"/><path id="Path-121" data-name="Path" class="cls-1" d="M0 0c0 .036.016.069.068.092C.135.122.089.064 0 0z" transform="translate(275.95 376.95)"/><path id="Path-122" data-name="Path" class="cls-1" d="M.038.087V.08c.046-.103.006-.08 0 .007z" transform="translate(275.95 372.95)"/><path id="Path-123" data-name="Path" class="cls-1" d="M19.97 19.864c-.346 0-.575-.926-1.5-1.853s0-2.382 0-2.382-.689-.133-2.76-.662c-1.256-.322-1.411-.982-1.391-1.307-.262.627-2.181-.146-2.636.116a8.828 8.828 0 01-2.415 1.455c-1.035.264-.346-1.324-.921-1.324A1.489 1.489 0 017.2 12.185C7.43 11.392 7.852 0 7.852 0c-.474 3.824-1.317 9.98-1.441 10.878a4.668 4.668 0 00-2.892-1.472c-1.035.133-.921-.926-.921-.926a5 5 0 00-1.84 1.986c-.8 1.455-.921 1.455-.575 2.913s.689.662.575 2.117.575 4.5.689 3.97.689-1.722 1.38-1.191.8 3.044.8 3.044.8-1.455.8-.4 1.737 3.841 1.737 3.841-.116-1.986-.116-3.044 1.726-.264 2.76-.264.116 1.324.689 3.044a2 2 0 01-.621 2.18 8.587 8.587 0 012-1.12C11.8 25.292 12.6 28.6 12.6 28.6l.921-.793c.5-.431 1.271.425 1.761 1.193a1.778 1.778 0 011.459-1.591c1.38-.264 2.76 1.986 1.955.793s.459-2.382.575-3.311S21 24.1 21 24.1l-1.38-2.65s.695-1.586.35-1.586z" transform="translate(258 348)"/><path id="Path-124" data-name="Path" class="cls-1" d="M.1.1A.583.583 0 000 0s.053.084.1.1z" transform="translate(317.95 342.95)"/><path id="Path-125" data-name="Path" class="cls-1" d="M7.983 8.644C7.819 7.06 6.171 3.026 5.35 2.45A6.982 6.982 0 013.786 0a3.437 3.437 0 00-2.14 2.45C1.069 4.468 0 4.755 0 4.755a5.33 5.33 0 01.988 3.314c0 .955-.322 1.15-.681 1.07a3.636 3.636 0 011.257 1.81c.412 1.584-.412 4.468-.412 4.468a10.6 10.6 0 012.057-1.154c1.317-.575.824 1.3.988 1.73s.824.721.988.146.824.863.824.863a1.583 1.583 0 00.74-.721 30.677 30.677 0 001.234-7.637z" transform="translate(310 335)"/><path id="Path-126" data-name="Path" class="cls-1" d="M14.937 11.656c1.1-.642 1.647-.427 1.647-.427a2.748 2.748 0 01-.685-1.5c-.136-.961-.136-2.458.685-2.458s-2.332-1.281-1.647-2.457l.685-1.176a4.319 4.319 0 01-3.022-.961C11.091 1.5 9.581.112 8.21.006a6.154 6.154 0 00-3.157 1.176S2.993 1.4 2.857.327s0 1.925.685 2.031.273 3.634.549 3.953S1.21 5.778.249 5.35s.961 1.6 4.119 1.282c0 0 1.1 2.992.276 3.634a3.937 3.937 0 01-1.783.749 14.646 14.646 0 004.668.427s1.234 3.419 2.059 3.313.685-2.458 2.745-1.6S17 17 17 17s-3.161-4.7-2.063-5.344z" transform="translate(364 305)"/><path id="Path-127" data-name="Path" class="cls-1" d="M7.7 4.9a15.556 15.556 0 00-2.648-3.88C3.785-.047 1.94-.337 1.136.437A3.069 3.069 0 00.676 4.7a5.081 5.081 0 003.686 2.33c1.5.387 1.727.97 1.727.97a3.423 3.423 0 011.382-1.94C8.508 5.482 7.7 4.9 7.7 4.9z" transform="translate(297 407)"/><path id="Path-128" data-name="Path" class="cls-1" d="M6.818 2.18C5.667 1.584 1.972 0 1.972 0S1.279 2.97.359 3.765s0 2.18 2.076 3.368a5.288 5.288 0 005.077.4c.919-.599.457-4.761-.694-5.353z" transform="translate(319 348)"/><path id="Path-129" data-name="Path" class="cls-1" d="M4.628.078a5.679 5.679 0 00-2.038.03A2.879 2.879 0 00.069 3.457a7.614 7.614 0 00.364 1.206C.77 5.356 2.947 8 4.46 8s3.354-1.947 3.522-3.473A4.184 4.184 0 004.628.078z" transform="translate(340 297)"/><path id="Path-130" data-name="Path" class="cls-1" d="M14.707 4.415C12.549 3.272 13.223-.351 12.279.028s-4.048 1.524-5.127 3.24-1.89-.768-1.89-.768-.27 6.1-.673 6.486S.406 9.372 0 9.372c0 0 4.318 1.143 5.127 2.289s0 5.339 0 5.339a7.455 7.455 0 003.913-1.907c1.89-1.716 4.048-2.1 5.668-3.814S17 4.224 17 4.224s-.135 1.338-2.293.191z" transform="translate(335 267)"/><path id="Path-131" data-name="Path" class="cls-1" d="M1.812 0L0 3.1S4.982 8 7.4 8s-3.023-.776-5.588-8z" transform="translate(327 267)"/><path id="Path-132" data-name="Path" class="cls-1" d="M7.957.1C7.274.086 0 0 0 0c.912.106 8.641.106 7.957.1z" transform="translate(335 275.95)"/><path id="Path-133" data-name="Path" class="cls-1" d="M0 0c1.892 6.03 8.51 8.9 7.969 7.75S0 0 0 0z" transform="translate(340 276)"/><path id="Path-134" data-name="Path" class="cls-1" d="M7.721 7.633C5.981 6.187-.416-.925.021.1c2.608 6.081 9.437 8.979 7.7 7.533z" transform="translate(365 280)"/><path id="Path-135" data-name="Path" class="cls-1" d="M12 12.7c.717.116.072-2.772.358-3.233A1.332 1.332 0 0113 8.89a1.983 1.983 0 01-1.075-1.846c0-1.384.216-4.5-.358-4.04 0 0 .717 2.656-.5 2.541s-1.434-.923-2.223-.923-.789 1.846-1.936.692-2.942-3.349-3.516-3.928-1.147 1.27-1.434.808A11.288 11.288 0 00.022 0c-.216 0 1.219 1.386 1.147 2.541a6.449 6.449 0 01-1 2.425c-.216.576 1.578 6 1.65 6.581s-.866 2.309-.719 3.811.287-3.117 1.434-2.885 1.362 2.309 2.08 1.962.786-1.847 1.933-1.735 1.792.692 1.722 1.386c-.063.611-.239 2.482-.278 2.91.047-.475.323-2.681 1.283-2.681a2.771 2.771 0 011.864.923s.142-2.655.862-2.538z" transform="translate(351 246)"/><path id="Path-136" data-name="Path" class="cls-1" d="M.053.032L.047.068.053.032z" transform="translate(355.95 254.95)"/><path id="Path-137" data-name="Path" class="cls-1" d="M.07 8c.037-1.167.037-4.655.016-6.989S.044.719.008 3.63.07 8 .07 8z" transform="translate(355.95 221)"/><path id="Path-138" data-name="Path" class="cls-1" d="M3.46 5.919a4.774 4.774 0 003.764 2.064c.916-.158.813-2.222.712-3.333A6.658 6.658 0 005.7.68C4.374-.431 4.475.046 3.153.522A11.286 11.286 0 000 3.063a3.425 3.425 0 001.424.953c.714.158 1.322.634 2.036 1.903z" transform="translate(365 208)"/><path id="Path-139" data-name="Path" class="cls-1" d="M.084.1A.486.486 0 00.015 0a.406.406 0 00.069.1z" transform="translate(317.95 207.95)"/><path id="Path-140" data-name="Path" class="cls-1" d="M7.066 1.658a14.984 14.984 0 01-.749-1.4s-.749 1.3-1.178 1.2A7.054 7.054 0 013.425.06c-.429-.4-.749 1.3-1.178 2s-.537 1.6-1.178 1.9A2.917 2.917 0 000 5.264s.641-.6 1.178.9.537.8.537 1.5 1.286.1 1.823 0a5.9 5.9 0 011.394 0s-.108-.9 1.606-1.4a2.091 2.091 0 001.394-2.7 5.13 5.13 0 00-.866-1.906z" transform="translate(199 369)"/><path id="Path-141" data-name="Path" class="cls-1" d="M.027.043C0 .06-.011.09.02.095S.1.108.1.076.055 0 .055 0a.045.045 0 01-.028.043z" transform="translate(207.95 363.95)"/><path id="Path-142" data-name="Path" class="cls-1" d="M3.687 2.668A35.634 35.634 0 01.033 0v1.334C-.3 4 2.026 8.167 2.026 10.667S4.685 17 4.685 17l.442-1.5c.442-1.5 1.107-.168 2.105-.5s.886-2.832.442-5-2.657-6.5-3.987-7.332z" transform="translate(208 348)"/><path id="Path-143" data-name="Path" class="cls-1" d="M2.091 1.128C-1.444 2.062.573 7.21.573 7.21s4.295 1.405 6.318.467.759-5.143.254-6.785S5.627.2 2.091 1.128z" transform="translate(186 348)"/><path id="Path-144" data-name="Path" class="cls-1" d="M5.493.012C3.9.139 2.992.139 1.4 2.542s-2.162 4.681.115 5.189 3.638.252 4.207-.38C6.575 6.4 8.109 3.808 7.994 2.29A2.142 2.142 0 005.493.012z" transform="translate(178 335)"/><path id="Path-145" data-name="Path" class="cls-1" d="M7.567.136c-1.807.92-2.084 2.186-3.89 2.991C1.924 3.907.825 6.418 0 7.615c.14.008.548.034 1.73.111 1.807.116 4.308.8 4.862-.575S5.48 5.31 5.2 4.276 9.373-.785 7.567.136z" transform="translate(186 327)"/><path id="Path-146" data-name="Path" class="cls-1" d="M.038.072L.062.03H.038z" transform="translate(185.95 342.95)"/><path id="Path-147" data-name="Path" class="cls-1" d="M6.094.017C4.738-.011 0 0 0 0l.45.032S2.708.088 3.837.1 6.773.1 7.674.072 7.451.045 6.094.017z" transform="translate(229 347.95)"/><path id="Path-148" data-name="Path" class="cls-1" d="M4 5.7A2.141 2.141 0 014.45 8c1.1-.366.818-1.512 1.934-1.86a3 3 0 001.657.766 3.138 3.138 0 001.48-.006c.446-.142.694-.523.384-.758a10.968 10.968 0 003.029 1.175 5.375 5.375 0 001.285-1.74A2.2 2.2 0 0016.43 4.8c.343-.53.293-1.124.57-1.666a15.3 15.3 0 01-2.781-.29 2.341 2.341 0 00.95-1.345c-.107.523-2.012.677-2.632.628C11.512 2.052 10.24.037 9.26 0c-.9-.034-1.041 1.835-1.988 1.786A19.788 19.788 0 013.112.665a.773.773 0 00-.021 1.315c.426.331 1.236.643.975 1.031-.24.358-1.1.312-1.74.226S.781 3.2.711 3.581a6.851 6.851 0 002.463.292c.306.717-.525 1.536-1.74 1.705A5.98 5.98 0 000 5.8a2.461 2.461 0 001.95.358C2.661 6.059 3.293 5.811 4 5.7z" transform="translate(42 162)"/><path id="Path-149" data-name="Path" class="cls-1" d="M.028.062L.074.038C.036.056.018.065.028.062z" transform="translate(46.95 138.95)"/><path id="Shape-2" data-name="Shape" class="cls-1" d="M77.423 94.9c-.479-3.145-1.08-3.489-2.561-4.063a5.591 5.591 0 00-2.587-.649c-1.365.642-1.316.742-1.008 2.073s1.444 2.616.825 2.221-1.5-.4-1.856-1.481-1.03-2.715-.566-2.32 1.184-.15 1.237-.889-1.083-1.629-1.6-1.037-.514 1.383-1.185 1.728-.514 1.137-.824 1.481-.669.3-.36 1.481.412.543-.052 1.432.206 1.58.978 2.32 1.033.642-1.391.3c-1.142-.164-1.345-.064-1.339.036s.282.225-.209-.036c-.929-.495-1.083-.2-1.753-.392a2.449 2.449 0 01-1.908-2.221c-.154-1.529.827-1.776.723-3.06s-1.8-1.579-1.443-1.974a3.1 3.1 0 00.67-2.468c-.052-1.481-.206-1.826-1.031-1.876s-.929-.495-1.6-1.234-2.785-.79-3.249-.84c-.222-.024-.091.661.078 1.346.185.75.417 1.5.282 1.319-.256-.346-1.39-2.862-2.061-3.109a21.666 21.666 0 00-5.053-.692c-2.37-.1-2.991-.394-4.176-1.184-.63-.42-.838.22-.949.86-.1.563-.12 1.128-.288.967-.363-.346-2.631-2.666-2.837-1.974s.618 1.137.36 2.912-1.289.889-.978 0 .566-2.765-1.29-2.912-1.083-2.766-3.351-2.963a3.649 3.649 0 01-3.145-1.776c-.618-.643-.877-1.037-2.166-.692s.05-1.729-1.341-2.271c-.659-.258-4-.261-6.9-.213a94.335 94.335 0 00-2.941 1.293c.309-.164 1.2-.67 2.261-1.275-2.91.057-5.076.15-3 .052a34.7 34.7 0 003.588-.388c1.843-1.057 3.965-2.293 4.557-2.672 1.081-.692-2.936-.049-6.752.592s-.154-.689 4.745-1.579-.464-1.234-2.372-1.629-8.251-.3-6.6-.592 4.848-.149 5.828-.494 1.083-1.284.464-1.531a19.308 19.308 0 01-3.97-2.469c-1.184-1.034-3.4-1.382-5.774-1.331s-.877-1.729 1.135-3.11-.363-3.307-1.754-4.886-3.246-.445-2.68-1.506-1.03-3.23-1.649-3.28a12.8 12.8 0 00-1.669.235c-1.384.237-2.851.473-1.27-.235 2.424-1.084 2.061-2.417 1.7-3.4s-1.7-1.58-3.3-1.531c-.981 0 3.041-1.581 3.351-2.912s-.618-1.629-.618-2.763.154-1.186-.877-1.086-.258-.492 0-.937-1.957-.543-1.7-.74a4.618 4.618 0 001.391-3.455C3.554 29.435.822 26.228.151 24.944s.978-1.776 3.2-.642 1.341-.1 1.341-2.171.721-2.023.773-3.4-.724-2.82 1.335-5.188 5.054-3.8 6.24-4.789-3.815-4.2-5.415-6.812 4.025 2.814 6.036 6.268a4.293 4.293 0 012.991-2.565 1.248 1.248 0 00-.723-2.171c-1.7-.4 2.01.05 2.114-.592s-.569-2.468 0-1.926 1.495 1.579 2.37 1.382.519-.445.054-1.382c-.261-.526.455.223 1.36.974a4.126 4.126 0 002.1 1.149A6.356 6.356 0 0125.934.414c.158-.135-.134.434-.46 1a4.377 4.377 0 01-.668 1.013 12.325 12.325 0 00-.32 2.3c.121 0 1.363-.229 1.6-.651.111-.194.474-.073.87.049.466.142.977.285 1.173-.087.212-.409.412-.254.564-.1.1.107.187.214.237.137.119-.193 2.32-1.15 2.882-1.572s.2-.615.08-1.572c-.06-.475.176-.233.537.009s.86.492 1.3-.009a2.46 2.46 0 013.649-.225c.736.729.425.656-.258.584a4.445 4.445 0 00-1.424.028c-1.4.306-.32 1.073.4 1.035a26.968 26.968 0 013.642-.116c1.922.077 1.28-.039 2.12-.728s.161.306.121 1.34 1.4 1.344 1.922 2.262.36.538 1.6-.573-1.239 1.111-.28 1.878.92-.652 1.841-1.38-.8 1.3.28 1.3.72-.537 1.4-1.917.519.422.32 1.034 1.682 1.418 2.362 2.375 2.2.767 3.443.958-.882 1-1.962 2.184 2.4 2.108 3.883 2.836 2.362.921 3.043.038.081-2.3.521-3.3a2.489 2.489 0 00-.239-2.683c-.559-.5-1.161-2.11.923-1.572s.08 1.228 1.562 2.645-.879 2.452-1.721 3.6.161 3.258.923 3.6 2.322-2.913 5.2-7.015c.2 2.684-3.964 7.13-4.164 7.743s1.361 1.3 1.882-.077.96.229 2.242 1.495.76 2.568.4 3.985 1.283 1.266 2.084 1.84 2.682.422 3.6.268-.76-.307-1.4-1.3 2.723-1.726 3.844-1.993c.467-.112.719.2.947.5.317.431.588.861 1.336.147 1.282-1.228 2.242-.958 2.363.383s-2.161 2.032-2.121 4.1c.022 1.109.169 1.083.617 1.057a2.648 2.648 0 011.946.666c2.042 1.534-1.64 2.568-1.721 4.485s-.76 1.956-1.4 3.335-.72 2.375 1.2 3.181 1.2 1.265 3.244 2.184-1.522 1.15-1.721 2.452a3.771 3.771 0 001.6 3.679c1.283.843 3.325.921 3.164 2.261-.076.631-1.057.515-1.943.4-1-.13-1.878-.26-1.22.674 1.242 1.762.36 2.642-.081 3.141s.96.652.721 1.763c-.139.644-.373.348-.607.053-.169-.214-.34-.428-.474-.283-.322.345-1.2 2.069-1.282 1.15S78.3 56 78.385 59.258c5.124.231 7.126 3.718 6.006 2.722s-4.446-1.723-5.486-1.686-.721 1.074-.6 2.262 2.2 4.676 3.443 5.748.521 1 .4 2.606c-.082 1.081.072.777.766.473a3.323 3.323 0 011.436-.283c1.922.038-1.761.419-1.882.957s.68 2.72.04 1.686-1.242-2.681-1.683-2.108-.161 2.684-.521 3.258.482 2.03 1.322 2.03a2.254 2.254 0 011.8.8 1.482 1.482 0 001.323.345 15.156 15.156 0 01-.721 2.185c-.2.537-.562 2.722-.121 3.3s2.4 1.112 3 .5-.441-1.917-.121-1.8a2.477 2.477 0 011.36 1.341c.32.8-1.642 1.111 1.121 1.073 1.151-.016.8.1-.105.218a18.8 18.8 0 01-4.46.127c-1.441-.345-.679-.116-1.441.612s-1.4.652-1.44 1.38 1 .535 1.521.651-1.481.422-2.522.461-1.363 1.225-2.042 1.762a.808.808 0 01-.708.178c-.253-.035-.461-.069-.733.473-.479.958 1.083 4.483.922 6.438-.058.7-.12 1.036-.2 1.036-.134-.003-.327-1.089-.636-3.103z" transform="translate(21 67)"/><path id="Path-150" data-name="Path" class="cls-1" d="M.1.1A.442.442 0 000 0a.447.447 0 00.1.1z" transform="translate(20.95 58.95)"/><path id="Path-151" data-name="Path" class="cls-1" d="M.1.08a.02.02 0 000-.008V.048C.1.04.095.033.086.026S.074.012.067.007A.041.041 0 00.033 0 .049.049 0 000 .014C0 .02 0 .028.007.029A.067.067 0 000 .044h.005a.075.075 0 000 .013.008.008 0 01.01.01.042.042 0 000 .012.012.012 0 00.015.006.029.029 0 01.014 0C.051.088.055.1.063.1a.018.018 0 00.009 0L.093.085A.012.012 0 00.1.08z" transform="translate(16.95 58.95)"/><path id="Path-152" data-name="Path" class="cls-1" d="M7.772.127c-.495-.5-1.186.6-1.631.8-.66.29-1.355-.15-2.019-.192a7.032 7.032 0 00-2.254.627A3.437 3.437 0 00.6 1.849a1.744 1.744 0 00-.576 1.6 1.3 1.3 0 00.717.945 6.687 6.687 0 00.983.253.183.183 0 01.144.117.407.407 0 01-.028.243c-.285.8-.57 1.614-.854 2.419a7.536 7.536 0 003.862.51 1.688 1.688 0 00.854-.3 3.141 3.141 0 00.598-.693l1.258-1.787c.175-.253.354-.7.163-.926C7.4 3.846 7.3 4 7.425 3.262a12.673 12.673 0 01.416-1.3C7.976 1.475 8.148.5 7.772.127z" transform="translate(0 59)"/><path id="Path-153" data-name="Path" class="cls-1" d="M.028.071C.034.08.028.091.023.1a.1.1 0 00.03-.005A.064.064 0 00.1.039C.1.009.042-.008.02 0A.039.039 0 000 .038c0 .024.018.019.028.033z" transform="translate(29.95 58.95)"/><path id="Path-154" data-name="Path" class="cls-1" d="M.007.057a.256.256 0 01.048.035L.06.1a.017.017 0 00.018 0A.036.036 0 00.091.083C.1.065.11 0 .075 0 .062 0 .051.021.039.026S-.007.031 0 .05a.018.018 0 00.007.007z" transform="translate(20.95 87.95)"/><path id="Path-155" data-name="Path" class="cls-1" d="M7.881 5.28a1.915 1.915 0 00-.089-1.544 2.819 2.819 0 00-.561-.627L4.9.988A3.867 3.867 0 003.564.077C2.162-.376 1.646 1.292.81 2.063a1.926 1.926 0 00-.8 1.593c.084.528.541.9.772 1.379.4.817.157 1.922.792 2.564a1.821 1.821 0 001.932.234c.644-.244 1.2-.667 1.844-.921a.585.585 0 01.521-.025c.1.065.162.179.261.249.329.244.752-.139.988-.478a5.847 5.847 0 00.761-1.378z" transform="translate(21 80)"/><path id="Path-156" data-name="Path" class="cls-1" d="M1.114.014C1.836.022 2.4.032 3 .042 4.43.065 6.128.085 8 .1 7.85.087 7.44.074 6.833.064 6.365.056 5.793.05 5.221.043A943.327 943.327 0 00.057 0c-.33.006.878.013 1.057.014z" transform="translate(21 87.95)"/><path id="Path-157" data-name="Path" class="cls-1" d="M.011.1A.052.052 0 00.032.069c0-.009 0-.019.014-.025A.114.114 0 01.067.038.054.054 0 00.1.024C.1.017.1.008.089 0a.081.081 0 00-.046 0A.419.419 0 010 .013.26.26 0 00.011.1z" transform="translate(20.95 87.95)"/><path id="Path-158" data-name="Path" class="cls-1" d="M.021.089A.02.02 0 00.03.1.053.053 0 00.078.087.051.051 0 00.085.009.021.021 0 00.076 0a.053.053 0 00-.021 0A.158.158 0 000 .01h.006a.105.105 0 00.015.079z" transform="translate(20.95 76.95)"/><path id="Path-159" data-name="Path" class="cls-1" d="M.017.08A.188.188 0 00.078.1.015.015 0 00.1.094.062.062 0 00.1.05.226.226 0 00.079 0L.062.042v.016A.413.413 0 000 .055.028.028 0 00.017.08z" transform="translate(29.95 87.95)"/><path id="Path-160" data-name="Path" class="cls-1" d="M6.92 1.6a5.483 5.483 0 00-.77-.6C5.886.811 5.621.629 5.357.442c-.315-.218-.792-.527-1.164-.42-.55.155-.414.654-.783.98-.722.642-1.219-.416-1.989.063A6.471 6.471 0 00.1 3.674a2.735 2.735 0 001.159 2.947 4.515 4.515 0 003.147 1.368 5.571 5.571 0 002.711-1.448 2.238 2.238 0 00.5-.492 2.213 2.213 0 00.305-.813A4.165 4.165 0 006.92 1.6z" transform="translate(21 127)"/><path id="Path-161" data-name="Path" class="cls-1" d="M6.016.027L5.679.015C5.142.021 4.552.009 3.992 0H3.13C1.566 0 .085.027 0 .059c0 .002 0 .005.067.008h.271C1.779.089 3.419.1 5.083.1c.956 0 2.048 0 2.609-.018.389-.012.408-.028.053-.039S6.677.025 6.016.027z" transform="translate(13 135.95)"/><path id="Path-162" data-name="Path" class="cls-1" d="M.067.018A.093.093 0 000 0v.019a.172.172 0 01.032.063C.033.089.036.1.045.1A.025.025 0 00.06.1C.08.086.1.073.1.054S.082.027.067.018z" transform="translate(20.95 109.95)"/><path id="Path-163" data-name="Path" class="cls-1" d="M4.758.373C3.712.293 2-.621 1.179.745a8.731 8.731 0 00-.471 1.169C.545 2.3.295 2.653 0 2.626a2.49 2.49 0 001.155 1.923A4.438 4.438 0 012.723 5.8c.166.26.291.574.457.834a3.033 3.033 0 001.443 1.1 1.8 1.8 0 001.023.25c.637-.112 1.128-.909 1.524-1.7a6.06 6.06 0 00.8-3.406C7.661.543 5.957.458 4.758.373z" transform="translate(51 149)"/><path id="Path-164" data-name="Path" class="cls-1" d="M.026 0a3.525 3.525 0 00.449 2.118A9.6 9.6 0 001.72 3.776 30.614 30.614 0 004.784 7.5c.641.522 2.712.832 3.157-.1a1.188 1.188 0 00-.248-1.081c-.434-.677-.868-1.36-1.3-2.037a6.327 6.327 0 00-1.108-1.425 7.056 7.056 0 01-.749-.627 1.224 1.224 0 01-.336-.969A32.832 32.832 0 01.026 0z" transform="translate(51 140)"/><path id="Path-165" data-name="Path" class="cls-1" d="M0 7.941a1.269 1.269 0 001.13-.217 7.51 7.51 0 01.856-.664 5.16 5.16 0 012.36-.23 7.99 7.99 0 002.919-.519l-2.058-.3a2.326 2.326 0 01-1.048-.326c-.472-.362-.3-.946-.088-1.421.126-.294.252-.584.384-.877a.692.692 0 01.291-.37 1.413 1.413 0 01.5-.109C6.771 2.724 8.005 1.654 8 .519a.514.514 0 00-.071-.294c-.252-.37-1.01-.217-1.5-.012L4.982.386Q3.509 2.04 2.036 3.7a.987.987 0 00-.247.382.909.909 0 00.066.463A3.037 3.037 0 010 7.941z" transform="translate(59 157)"/><path id="Path-166" data-name="Path" class="cls-1" d="M.064.808C.049 1.964.04 3.2.029 4.386.023 5.114.018 7.519 0 8c.04-1.044.068-2.446.078-3.942 0-.6.005-1.2.008-1.807C.089 1.758.1.972.1.515.1-.477.072.157.064.808z" transform="translate(67.95 162)"/><path id="Path-167" data-name="Path" class="cls-1" d="M3.14.323L2.121.531A5.816 5.816 0 00.082 4.269a1.473 1.473 0 00-.048.761 1.71 1.71 0 00.451.655l.821.872A4.925 4.925 0 002.8 7.769a2.151 2.151 0 001.985-.022c.461-.31.622-.823.96-1.23.477-.566 1.287-.889 1.786-1.438a1.866 1.866 0 00-.29-2.743c-.252-.195-.552-.35-.788-.553A1.476 1.476 0 016.052 0 13.618 13.618 0 013.14.323z" transform="translate(72 191)"/><path id="Path-168" data-name="Path" class="cls-1" d="M16.254 2.394a6.48 6.48 0 00-1.791-.42q-1.442-.211-2.833-.5A6.473 6.473 0 019.93.95C9.6.772 9.381.551 9.05.38A6.647 6.647 0 004.816.308C3.483.675 2.372 1.244.981 1.551a2.346 2.346 0 00-.821.268.449.449 0 00-.145.481 1.725 1.725 0 00.485 1 9.07 9.07 0 001.9 1.091c1.7.915 2.711 1.882 5.309 2.146a13.074 13.074 0 012.838.49c.984.323 2.036 1.136 3.391.945a2.226 2.226 0 001.392-.778 6.165 6.165 0 001.655-3.358 1.27 1.27 0 00-.731-1.442z" transform="translate(89 186)"/><path id="Path-169" data-name="Path" class="cls-1" d="M6.975 2.48a3.389 3.389 0 01-2.06-1.316C4.3.428 3.932-.5 3.193.316c-1.224 1.348-2.053 4-2.676 6.212a11.739 11.739 0 00-.511 2.716 13.736 13.736 0 00.335 3.1c.234 1.248.52 2.612 1.175 3.224.567.532 1.251.344 1.893.3A1.559 1.559 0 015.124 17c.844-.6 1.323-2.208 1.558-3.772s.3-3.216.666-4.7c.158-.644.371-1.244.5-1.912A14.929 14.929 0 008 3.892a2.764 2.764 0 00-.072-.768c-.168-.552-.598-.596-.953-.644z" transform="translate(90 186)"/><path id="Path-170" data-name="Path" class="cls-1" d="M0 7.443a8.042 8.042 0 012.794-.317 4.8 4.8 0 00-.139 1.836 1.763 1.763 0 001.158 1.4 11.062 11.062 0 001.165.141 1.862 1.862 0 011.35 1.032.916.916 0 01.014.82 1.425 1.425 0 01-.515.45L3.9 14a9.53 9.53 0 012.9-.216 1.955 1.955 0 01.355 1.616 5.868 5.868 0 01-.626 1.6c1.112-.266 1.555-1.5 2.429-2.189a.445.445 0 01.284-.122.487.487 0 01.273.135l.978.79a2.513 2.513 0 00.615-.861 5.79 5.79 0 001.759.21c.384-.013.837-.109.982-.441.1-.236.009-.505.062-.754.1-.461.636-.7 1.107-.87L17 12.185a15.134 15.134 0 01-2.041-.21.628.628 0 01-.312-.116c-.139-.124-.116-.328-.127-.505-.042-.677-.677-1.178-1.29-1.551-.971-.589-1.7-1.109-1.659-2.27A9.375 9.375 0 0011.74 5.2c-.5-2.176-3.5-1.159-5.008-1.876a4 4 0 01-.985-.745Q4.368 1.286 2.988 0L5.47 3.716c-1.59.465-2.5 2.082-4.03 2.69C.855 6.644.065 6.85 0 7.443z" transform="translate(207 101)"/><path id="Path-171" data-name="Path" class="cls-1" d="M5.947 7.209c.845-.1 1.2-.29 1.83-2.324A4.856 4.856 0 006.792.143C6.017-.436 5.313.93 4.961.971S2.97-.16 2.358.971C1.821 1.966-.809 4.6.248 4.4s2.11 2.954 2.11 3.462 2.742-.554 3.589-.653z" transform="translate(247 127)"/><path id="Path-172" data-name="Path" class="cls-1" d="M.051.093C.137.131.084 0 .084 0c-.09.019-.118.055-.033.093z" transform="translate(245.95 135.95)"/><path id="Path-173" data-name="Path" class="cls-1" d="M2.842.1C7.493.1 9.874.038 6.212.011-.8-.04-1.809.1 2.842.1z" transform="translate(276 138.95)"/><path id="Path-174" data-name="Path" class="cls-1" d="M.1.089C.118.047.008 0 .008 0-.029.047.076.13.1.089z" transform="translate(313.95 156.95)"/><path id="Path-175" data-name="Path" class="cls-1" d="M2.8 0S-.187 2.294.009 5.487 4 7.781 5.016 7.143s1.972 1.531 2.772.638S7.188.893 2.8 0z" transform="translate(297 162)"/><path id="Path-176" data-name="Path" class="cls-1" d="M.107.008C8.977.081 9.879.112 12.33.1s4.886-.028 4.655-.049.724-.07-2.312-.043C9.948.05-1.207-.023.107.008z" transform="translate(335 194.95)"/><path id="Path-177" data-name="Path" class="cls-1" d="M5.214 5c.175 1.294 1.344.555 3.329-.369S15.606 1.18 16.337.688s1.254-1.039-.66-.395C12.277 1.44 6.7 4.322 7.857 3.4S12.182.194 10.1 1.057s-3.483 1.882-5 2.513A9.894 9.894 0 00.163 7.527C-1.064 9.682 5.039 3.7 5.214 5z" transform="translate(326 199)"/><path id="Path-178" data-name="Path" class="cls-1" d="M.1.1C.109.076.059 0 .059 0-.09.026.088.118.1.1z" transform="translate(342.95 215.95)"/><path id="Path-179" data-name="Path" class="cls-1" d="M.1 8C.123 1.751 0 0 0 0c-.013 5.286.1 8 .1 8z" transform="translate(347.95 208)"/><path id="Path-180" data-name="Path" class="cls-1" d="M0 .053c.016.041.061.061.088.036s0-.075 0-.075C.033-.019-.011.013 0 .053z" transform="translate(326.95 223.95)"/><path id="Path-181" data-name="Path" class="cls-1" d="M.077.094C.138.068.063-.025.028.007-.033.064.016.119.077.094z" transform="translate(355.95 223.95)"/><path id="Path-182" data-name="Path" class="cls-1" d="M6.06.8C2.432 3.881.238 5.606.009 7.485S4 5.606 6.06 4.141 9.126-1.8 6.06.8z" transform="translate(319 245)"/><path id="Path-183" data-name="Path" class="cls-1" d="M0 0s.1 10.649.1 7.374C.106-1.637.106.98 0 0z" transform="translate(334.95 288)"/><path id="Path-184" data-name="Path" class="cls-1" d="M17 8A164.516 164.516 0 000 0a164.516 164.516 0 0017 8z" transform="translate(335 309)"/><path id="Path-185" data-name="Path" class="cls-1" d="M0 0a29.753 29.753 0 008 8 29.675 29.675 0 00-8-8z" transform="translate(327 305)"/><path id="Path-186" data-name="Path" class="cls-1" d="M.1 8A645.152 645.152 0 000 0c.023 3.169.057 5.928.1 8z" transform="translate(326.95 305)"/><path id="Path-187" data-name="Path" class="cls-1" d="M3.9.06C5.246.076 6.6.091 8 .1 5.47.055 2.756.024 0 0c1.228.026 2.569.042 3.9.06z" transform="translate(327 296.95)"/><path id="Path-188" data-name="Path" class="cls-1" d="M0 0a25.962 25.962 0 008 8 25.892 25.892 0 00-8-8z" transform="translate(340 327)"/><path id="Path-189" data-name="Path" class="cls-1" d="M3.892 0C1.691.006-.249.015.026.065A.528.528 0 00.1.071c.068 0 .188.005.319.007C1.691.1 3.55.092 5.157.1h.985A35.162 35.162 0 008 .03C7.237.018 6.426 0 5.432 0h-1.54z" transform="translate(335 304.95)"/><path id="Path-190" data-name="Path" class="cls-1" d="M.08.025L.018 0H.01L0 .032C0 .04 0 .048.006.054s.01 0 .014.008 0 .019.007.028S.07.1.084.091A.047.047 0 00.1.049.021.021 0 00.094.032.046.046 0 00.08.025z" transform="translate(376.95 317.95)"/><path id="Path-191" data-name="Path" class="cls-1" d="M.1 8C.112 5.266.08 2.481 0 0c-.012 2.734.019 5.519.1 8z" transform="translate(288.95 340)"/><path id="Path-192" data-name="Path" class="cls-1" d="M.078.1C.121.066.1.027.023 0-.022.034 0 .073.078.1z" transform="translate(288.95 347.95)"/><path id="Path-193" data-name="Path" class="cls-1" d="M.073 0a169.181 169.181 0 00-.046 8C.1 5.358.121 2.665.073 0z" transform="translate(275.95 348)"/><path id="Path-194" data-name="Path" class="cls-1" d="M.1 0C.024 2.582-.011 5.3 0 8c.074-2.607.109-5.291.1-8z" transform="translate(275.95 335)"/><path id="Path-195" data-name="Path" class="cls-1" d="M.1 0A362.479 362.479 0 000 8c.057-2.345.088-5.1.1-8z" transform="translate(267.95 340)"/><path id="Path-196" data-name="Path" class="cls-1" d="M.1 0C.035 2.517 0 5.235 0 8c.064-2.493.1-5.254.1-8z" transform="translate(267.95 318)"/><path id="Path-197" data-name="Path" class="cls-1" d="M.073.1a.011.011 0 00.006 0S.086.1.088.094A.056.056 0 00.024.005C-.045.036.054.074.073.1z" transform="translate(267.95 347.95)"/><path id="Path-198" data-name="Path" class="cls-1" d="M4.337 0c-.366 0-.743 0-1.015.005-.249 0-.377.008-.621.011C1.975.027.884.022.281.035-.212.046.02.064.4.075 1.082.095 2.486.1 3.959.1 5.717.1 7.272.075 7.817.05A26.839 26.839 0 004.337 0z" transform="translate(258 326.95)"/><path id="Path-199" data-name="Path" class="cls-1" d="M0 17A109.314 109.314 0 008 0a109.558 109.558 0 00-8 17z" transform="translate(247 318)"/><path id="Path-200" data-name="Path" class="cls-1" d="M8 0a39.557 39.557 0 00-8 8 39.26 39.26 0 008-8z" transform="translate(247 327)"/><path id="Path-201" data-name="Path" class="cls-1" d="M0 .1h.014C.069.071.1.037.1 0 .037.023.006.06 0 .1z" transform="translate(236.95 347.95)"/><path id="Path-202" data-name="Path" class="cls-1" d="M.071 0a167.504 167.504 0 00-.042 8c.077-2.579.092-5.349.042-8z" transform="translate(236.95 327)"/><path id="Path-203" data-name="Path" class="cls-1" d="M.026.1C.1.073.122.033.074 0 0 .027-.022.067.026.1z" transform="translate(236.95 313.95)"/><path id="Path-204" data-name="Path" class="cls-1" d="M.05.1C.117.069.116.031.05 0c-.066.031-.067.069 0 .1z" transform="translate(236.95 317.95)"/><path id="Path-205" data-name="Path" class="cls-1" d="M0 .1A.2.2 0 00.1 0a.2.2 0 00-.1.1z" transform="translate(224.95 317.95)"/><path id="Path-206" data-name="Path" class="cls-1" d="M.031.1C.107.069.121.033.069 0c-.076.031-.09.067-.038.1z" transform="translate(215.95 317.95)"/><path id="Path-207" data-name="Path" class="cls-1" d="M.091.07A.323.323 0 01.045.037C.037.028.026 0 .016 0-.013-.01.006.09.01.091a.114.114 0 00.08 0A.014.014 0 00.1.084.016.016 0 00.091.07z" transform="translate(245.95 342.95)"/><path id="Path-208" data-name="Path" class="cls-1" d="M.1 0C.095.008.056 0 .044.005S.025.042.015.056A.107.107 0 000 .077.028.028 0 000 .1.372.372 0 00.1 0z" transform="translate(228.95 334.95)"/><path id="Path-209" data-name="Path" class="cls-1" d="M.045 7.067c0 .295.005.964.015.932s.02-1.085.025-1.336C.09 6.328.1 5.983.1 5.575c0-.448 0-.946-.005-1.328v-.681Q.074 1.781.062 0v3.508c0 .182-.006.287-.01.393Q.024 4.585 0 5.273C.012 5 .04 6.707.045 7.067z" transform="translate(177.95 327)"/><path id="Path-210" data-name="Path" class="cls-1" d="M.081.033L.063.009C.058 0 .051 0 .045 0S.039.017.033.015V.009a.035.035 0 00-.028.017A.037.037 0 000 .062a.041.041 0 00.017.012A.208.208 0 00.059.1a.03.03 0 00.036 0A.036.036 0 00.1.06.085.085 0 00.081.033z" transform="translate(169.95 334.95)"/><path id="Path-211" data-name="Path" class="cls-1" d="M.047.1L.066.085.077.076A.056.056 0 00.1.049C.112 0 .047-.009.019.008c-.046.028 0 .055.019.085C.04.1.044.1.047.1z" transform="translate(185.95 334.95)"/><path id="Path-212" data-name="Path" class="cls-1" d="M4.661 5.342c0 .27-2 .4-4 .338s1.1 2.162 2.3 1.554 1.7-.2 1.7.4 1.9 1.824 1.3 2.432-2.9 1.113-3.1 1.84.1 6.875 1.2 4.578.1-3.378.8-3.378.4-1.09 1.2-1.963 1.6-2.023 1.2-3.173.5-.677.7-1.758S7.27 0 7.27 0C4.261 3.314 4.661 5.072 4.661 5.342z" transform="translate(141 326)"/><path id="Path-213" data-name="Path" class="cls-1" d="M5.1 0C-.649.005-1.4.039 2.131.079S8.631.1 7.884.055 5.1 0 5.1 0z" transform="translate(128 326.95)"/><path id="Path-214" data-name="Path" class="cls-1" d="M.536 5.461c-1.456 2.02.58 6.228 0 8.811s2.179 4.008 4.073 1.161 2.764-3.2 3.2-4.036 0-11.4 0-11.4C4.9 2.61 1.992 3.441.536 5.461z" transform="translate(111 318)"/><path id="Path-215" data-name="Path" class="cls-1" d="M6 .179C2.332-.385 2.166.43 1.415 1.967S-.417 6.766.166 7.581 3.5 8.034 5.417 6.4 8 3.961 8 2.512 6 .179 6 .179z" transform="translate(102 335)"/><path id="Path-216" data-name="Path" class="cls-1" d="M.029 0c0 3.9.027 7.059-.029 8 .121-.873.1-2.688.1-4.571S.029 0 .029 0z" transform="translate(135.95 348)"/><path id="Path-217" data-name="Path" class="cls-1" d="M14.212 5.415C13.285 3.78 11.659-.618 10.96.073c-7.431 1.76-8.707 3.771-9.171 5.782S-1.345 9.5.863 11.887a6.541 6.541 0 011.857 5.908C2.6 19.555 4.927 21 7.249 21a3.556 3.556 0 003.715-3.142 11.257 11.257 0 012.553-4.523c.7-.755.581-1.571 1.858-2.8s2.325-1.158 1.044-1.913-1.276-1.575-2.207-3.207z" transform="translate(148 348)"/><path id="Path-218" data-name="Path" class="cls-1" d="M.051 0C.042 0 .038.01.032.015-.01.053-.017.111.051.1S.1-.008.051 0z" transform="translate(164.95 347.95)"/><path id="Path-219" data-name="Path" class="cls-1" d="M.082 7.528C.091 6.574.1 3.1.1.805s-.11.669-.1 4.31C.01 8.143.073 8.48.082 7.528z" transform="translate(164.95 335)"/><path id="Path-220" data-name="Path" class="cls-1" d="M.061.284c-.074 9.416-.088 9.595 0 3.877s0-3.877 0-3.877z" transform="translate(97.95 356)"/><path id="Path-221" data-name="Path" class="cls-1" d="M.056.073C.121.026.095 0 .095 0-.04.11-.01.121.056.073z" transform="translate(79.95 355.95)"/><path id="Path-222" data-name="Path" class="cls-1" d="M16.534 5.983a17.719 17.719 0 00-2.683-3.9A8.052 8.052 0 009.581 0C5.632 1 4.258 2.447 3.573 4.986S1.34 7.434.913 9.792s.43 1.631.685 3.082-3.07 4.806-.8 3.263 2.265-.567 3.122.4 1.975.239 3.691-.4 3.177-.181 5.152-1.993 5.236-3.082 3.949-4.714.85-1.815-.178-3.447z" transform="translate(72 310)"/><path id="Path-223" data-name="Path" class="cls-1" d="M6.258.3C1.689 2.113-.416 8.4.068 7.98 8.081 2.534 9.78-1.094 6.258.3z" transform="translate(59 318)"/><path id="Path-224" data-name="Path" class="cls-1" d="M6.676.573C.467 6.332-2.661 10.135 2.858 6.689S9.114-1.688 6.676.573z" transform="translate(59 327)"/><path id="Path-225" data-name="Path" class="cls-1" d="M5.215.012C4.131-.026 2.43.036 2.43.051-2.056.066.42.093 3.823.1S8 .11 8 .078 5.215.012 5.215.012z" transform="translate(98 313.95)"/><path id="Path-226" data-name="Path" class="cls-1" d="M.1 5.284C.1 3.625.053 0 .053 0L.025 1.057C0 2.114-.014 4.375.025 8 .025 8 .1 6.943.1 5.284z" transform="translate(97.95 297)"/><path id="Path-227" data-name="Path" class="cls-1" d="M5.364.776C2.835-.572 2.2-.234.62 2.348s-.189 4.375 4.744 5.5C6.348 8.075 8 8.3 8 6.5S7.9 2.12 5.364.776z" transform="translate(80 297)"/><path id="Path-228" data-name="Path" class="cls-1" d="M.052.091C.1.136.1 0 .1 0-.053.013 0 .046.052.091z" transform="translate(79.95 296.95)"/><path id="Path-229" data-name="Path" class="cls-1" d="M.079 0C.02.017-.048.111.048.1S.079 0 .079 0z" transform="translate(79.95 296.95)"/><path id="Path-230" data-name="Path" class="cls-1" d="M8 1.057L5.937 0C-.084 3.773 0 8 0 8c5.94-8 8-6.943 8-6.943z" transform="translate(80 280)"/><path id="Path-231" data-name="Path" class="cls-1" d="M7.965 0C.35 4.055-.48 8.38.182 7.973 8.969 3.109 7.965 0 7.965 0z" transform="translate(90 280)"/><path id="Path-232" data-name="Path" class="cls-1" d="M13.27 9.34c.174-.443-1.5-.887-1.5-.887a19.311 19.311 0 003.29-2.278A66.532 66.532 0 0020.371 1.3c.863-1.013.972-2-.523-.634l-4.79 4.368-1.212-.57a8.021 8.021 0 000 1.962 38.157 38.157 0 00-5.365 3.7c-1.731.285-3.519 2.754-3.519 2.754C3.115 14.276.289 14.846 0 17c3.058-1.013 3.347-2.152 4.846-3.039a54.92 54.92 0 004.616-3.829c.289-.158 2.018-1.552 3.808-.792z" transform="translate(59 276)"/><path id="Path-233" data-name="Path" class="cls-1" d="M4.977 0C-1.422 2.015-.095 4.84.632 5.85 1 8.2 1.355 8.47 3.409 7.4S7.031 7.06 7.877 4s-2.9-4-2.9-4z" transform="translate(51 280)"/><path id="Path-234" data-name="Path" class="cls-1" d="M15.231.508C7.963 3.221 7.268 3.815 7.268 3.815H2.654c3 .424 3.923 1.331 3.923 1.331A20.68 20.68 0 000 7.971c3.923.429 13.615-3.878 15.231-4.864s3.002-4.38 0-2.599z" transform="translate(42 297)"/><path id="Path-235" data-name="Path" class="cls-1" d="M0 .081L.093.1.1.023C.024-.052 0 .081 0 .081z" transform="translate(79.95 283.95)"/><path id="Path-236" data-name="Path" class="cls-1" d="M7.946 2.769C8.21 2.155 7.42 0 7.42 0 4.32 2.769-.431 8 .031 8a14.725 14.725 0 007.915-5.231z" transform="translate(69 258)"/><path id="Path-237" data-name="Path" class="cls-1" d="M6.915.009C2.755-.008-1.409-.006.46.059S4.478.1 6.915.072s0-.063 0-.063z" transform="translate(69 244.95)"/><path id="Path-238" data-name="Path" class="cls-1" d="M7.981 2.386C7.795-.163 7.327.473 5.834.049S2.193 2.069.513 3.342 1.82 4.935 1.789 6.211s.309 2.884 4.045.744a4.539 4.539 0 002.147-4.569z" transform="translate(72 245)"/><path id="Path-239" data-name="Path" class="cls-1" d="M5.074 7.376C7.4 5.73 8.616 5.73 7.685 3.193A5.641 5.641 0 005.648.522 2.608 2.608 0 003.7.029C.487.531-1.188.66.97 3.827 3.3 7.252 2.743 9.026 5.074 7.376z" transform="translate(72 216)"/><path id="Path-240" data-name="Path" class="cls-1" d="M.016.089A.015.015 0 00.036.1.046.046 0 00.055.085.044.044 0 01.075.07h.01A.024.024 0 00.1.043.056.056 0 00.087.014.038.038 0 00.02.03s0 .005 0 0a.008.008 0 00-.01 0A.025.025 0 000 .048a.026.026 0 00.006.023s.007 0 .008.006l.002.012z" transform="translate(76.95 228.95)"/><path id="Path-241" data-name="Path" class="cls-1" d="M.025.1a.011.011 0 00.008 0 .031.031 0 00.014 0A.058.058 0 00.058.083.042.042 0 01.086.067a.019.019 0 00.009 0A.014.014 0 00.1.05.04.04 0 00.092.036C.08.021.065-.014.045.006S.034.027.023.032 0 .038 0 .043s.019.026.021.042S.021.1.025.1z" transform="translate(67.95 228.95)"/><path id="Path-242" data-name="Path" class="cls-1" d="M.1.044A.047.047 0 00.08.009C.072 0 .06 0 .05 0S.048.02.043.025.018.03.01.032a.014.014 0 00-.01.01.014.014 0 00.006.013.038.038 0 00.013.006.076.076 0 01.033.025.047.047 0 00.04.014C.1.1.1.075.1.069a.161.161 0 010-.025z" transform="translate(76.95 215.95)"/><path id="Path-243" data-name="Path" class="cls-1" d="M.362.021C-.467.03.305.04.912.051c1.027.018 2.2.03 3.348.042A77.538 77.538 0 007.756.061 2.24 2.24 0 008 .048c-.006 0-.1-.007-.187-.01C7.313.022 6.644.009 5.872 0 4.606-.007 3.994.01 2.887.018 2.115.024 1.077.013.362.021z" transform="translate(72 215.95)"/><path id="Path-244" data-name="Path" class="cls-1" d="M.016.152C-.011.86 0 3.814.008 4.862c.005 1.126.016 2.3.04 2.9A1.254 1.254 0 00.065 8c.01 0 .019-.285.025-.62C.1 6.764.1 5.951.1 5.211s-.013-1.425-.021-2.1C.069 2.256.049-.7.016.152z" transform="translate(118.95 131)"/><path id="Path-245" data-name="Path" class="cls-1" d="M.084.071C.1.054.107.035.091.019A.1.1 0 000 0v.013A.1.1 0 00.046.1.165.165 0 00.084.071z" transform="translate(118.95 138.95)"/><path id="Path-246" data-name="Path" class="cls-1" d="M.085 0a.112.112 0 00-.059.032L0 0v.071C0 .093 0 .1.01.1S.023.1.028.092L.079.049A.049.049 0 00.1.014.016.016 0 00.1 0a.012.012 0 00-.015 0z" transform="translate(135.95 138.95)"/><path id="Path-247" data-name="Path" class="cls-1" d="M2.992 6.422a5.876 5.876 0 00.914.074c.308.021.648.112.643.253a1.784 1.784 0 00.223.94.482.482 0 00.266.248A1.955 1.955 0 006.3 7.82c1.562-.625 2.13-1.7 1.365-2.573a6.493 6.493 0 00-.967-.8 7.608 7.608 0 00-1.419-.906 8.038 8.038 0 01-1.238-.582 1.753 1.753 0 01-.531-.782A5.214 5.214 0 00.846 0C.543.126.612.358.851.508a6.445 6.445 0 00.914.372c.808.327 1.169.88.887 1.35-.4.67-2.12.541-2.566 1.021-.494.529 1.27.694 1.987.975 1.318.52.967.859.526 1.541-.154.233-.09.538.393.655z" transform="translate(132 131)"/><path id="Path-248" data-name="Path" class="cls-1" d="M4.56 7.529a16.627 16.627 0 001.258-1.517c.648-.647 1.675-.977 2.061-1.792a1.066 1.066 0 00.021-.931 1.68 1.68 0 00-.445-.484A19.845 19.845 0 004.019.527 4.1 4.1 0 002.56.01 1.61 1.61 0 001.154.5a2.712 2.712 0 00-.276 1.812.414.414 0 01-.072.294.7.7 0 01-.3.141.859.859 0 00-.5.732 2.1 2.1 0 00.165.9c.521 1.46 2.21 4.863 4.389 3.15z" transform="translate(132 131)"/><path id="Path-249" data-name="Path" class="cls-1" d="M0 8l.088-1.411c0-.063.008-.13.01-.226S.1 6.122.1 6Q.094 3 .085 0C.087.813-.01 1.214.026 2.058c.007.161.018.065.025.243.006.139.007.464.009.642.005.486.008 1.02 0 1.491-.005.279-.015.515-.018.81v.781C.036 6.754.008 7.291 0 8z" transform="translate(139.95 131)"/><path id="Path-250" data-name="Path" class="cls-1" d="M.1.1A.217.217 0 000 0a.4.4 0 00.1.1z" transform="translate(126.95 126.95)"/><path id="Path-251" data-name="Path" class="cls-1" d="M16.222 2.068a2.3 2.3 0 00-.866-1.054A2.746 2.746 0 0013.448.7c.181-.218-.249-.461-.689-.484a6.442 6.442 0 00-1.274.151A5.317 5.317 0 018.589 0c-.335.476-.671.952-1.011 1.431a.294.294 0 01-.163.129.723.723 0 01-.363-.025A4.243 4.243 0 015.24.6c.19.57-.258 1.215-1.124 1.575A6.868 6.868 0 010 2.289c.752.464 1.509.925 2.262 1.389a2.108 2.108 0 01.635.5c.326.484-.417 1.084-1.36 1.1l2.162.4.027.335a15.453 15.453 0 004.047.972 15.067 15.067 0 006.064-1.133A11.212 11.212 0 0016.059 8c-.168-.508-.811-1.406-.562-1.909.172-.35.693-.4 1.015-.677 1.038-.888.168-2.394-.29-3.346z" transform="translate(119 127)"/><path id="Path-252" data-name="Path" class="cls-1" d="M.1.008A.043.043 0 00.063 0L.041.019A.7.7 0 000 .1C.042.107.086.068.1.008z" transform="translate(110.95 138.95)"/><path id="Path-253" data-name="Path" class="cls-1" d="M.094 4.6C.112 1.153.088-1.079.045.536c-.023.851-.061 3.033-.038 5.031v1.217c0 .631.009 1.085.018 1.185a8.884 8.884 0 00.042-1.147c0-.1 0-.2.005-.3C.081 5.977.09 5.4.094 4.6z" transform="translate(118.95 131)"/><path id="Path-254" data-name="Path" class="cls-1" d="M0 .051a.011.011 0 000 .01A.176.176 0 00.042.1a.013.013 0 00.007 0A.015.015 0 00.058.095C.081.073.122.036.085.008S.025.029 0 .051z" transform="translate(126.95 138.95)"/><path id="Path-255" data-name="Path" class="cls-1" d="M.049.1a.01.01 0 00.008 0A.168.168 0 00.1.086.16.16 0 00.078.024.053.053 0 00.064 0a.038.038 0 00-.026 0H0l.022.022a.082.082 0 000 .025.022.022 0 00.009.018s.01 0 .013.005S.042.093.049.1z" transform="translate(135.95 138.95)"/><path id="Path-256" data-name="Path" class="cls-1" d="M.093.039S.08.035.076.03.075.012.069.006-.006.017 0 .047a.024.024 0 000 .008A.1.1 0 00.1.1.108.108 0 00.093.039z" transform="translate(110.95 138.95)"/><path id="Path-257" data-name="Path" class="cls-1" d="M.068.017L.051 0A.089.089 0 000 .022.315.315 0 01.094.1.061.061 0 00.068.017z" transform="translate(110.95 135.95)"/><path id="Path-258" data-name="Path" class="cls-1" d="M.069 0a.048.048 0 00-.043.01.05.05 0 00-.02.026C-.038.181.178.039.069 0z" transform="translate(148.95 126.95)"/><path id="Path-259" data-name="Path" class="cls-1" d="M0 .016C0 .047.1.088.1.1A.043.043 0 00.085.066C.074.055 0-.036 0 .016z" transform="translate(156.95 135.95)"/><path id="Path-260" data-name="Path" class="cls-1" d="M3.585 16.737a3.274 3.274 0 004.409-2.188c.073-.37.11-.808.43-1.011a1.389 1.389 0 01.7-.131A4.7 4.7 0 0013.5 9.514a2.412 2.412 0 01.434-1.444c.5-.514 1.418-.37 1.953-.844a2.019 2.019 0 00.412-.6 4.678 4.678 0 00.691-2.486 3.516 3.516 0 00-2.319-2.738 14.542 14.542 0 00-3.7-.577c.014-.239-.133-.582-.078-.83-1.984 2.743-4.632 1.864-7.399 2.59C2.6 2.82.059 4.006.037 5.1.023 5.693 2.095 7.547 0 7.827a.949.949 0 01.741.965 9.13 9.13 0 01-.2 1.308c-.262 2.464 2.935 4.156 3.044 6.637z" transform="translate(157 119)"/><path id="Path-261" data-name="Path" class="cls-1" d="M0 0a.068.068 0 000 .054.072.072 0 01.017.019v.021A.021.021 0 00.041.1h.033C.086.1.1.094.1.082A.02.02 0 00.094.069.054.054 0 00.066.052V.036A.137.137 0 010 0z" transform="translate(156.95 117.95)"/><path id="Path-262" data-name="Path" class="cls-1" d="M.056 2.243c.014-.4.029-.658.044-.957C.069-2.3 0 2.578 0 4.308V8c.035-1.083.052-2.891.046-4.6v-.834c.003-.139.006-.233.01-.323z" transform="translate(164.95 127)"/><path id="Path-263" data-name="Path" class="cls-1" d="M5.61 7.242a8.3 8.3 0 001.064-2.265 3.168 3.168 0 01.4-1 .644.644 0 01.852-.254A3.448 3.448 0 006.495.121c-.866-.5-1.652.682-2.42 1.054a12.735 12.735 0 00-1.791.745A3.446 3.446 0 001 3.428C.643 4.52 1.407 5.235.764 6.5.508 7 .256 7.5 0 8c2.032-.2 3.889-1.655 5.928-1.643a1.026 1.026 0 00-.318.885z" transform="translate(170 127)"/><path id="Path-264" data-name="Path" class="cls-1" d="M0 45.2s7.066 3 11.659 3.184.919.551.115 1.224.69.613 1.78.551.288 1.96 1.492 2.818a41.6 41.6 0 007.982 4.186c2.182.633 5.342 4.02 5.283 4.387S24 62.716 25.383 62.9a13.862 13.862 0 004.079-.613s-1.034 1.653-1.953 1.9-2.355.673-1.7 1.469 1.128-.122 1.933-.673 2.009.673 3.272 1.531 1.324 1.346.461 2.7-1.665 0-2.241.613a4.171 4.171 0 00-.69 2.511c0 .613 1.321.8.746 1.775s-1.894-.429-2.584-.244-1.78.98-2.872.062-.344-.676-1.894.8-.746 0-2.182-.489-1.148 1.224-3.331.551-4.767-1.531-6.49 0-.115 2.389 3.445 2.449 14.244.244 15.048.244S34.514 79.983 35.2 82s-1.207 1.653-.89 1.775 1.809.8.775 1.409 1.953 1.469 2.241 2.877-2.355 1.9-2.584 4.107 1.587 0 1.587 0a18.326 18.326 0 01.328 1.886.7.7 0 01-.052.462.627.627 0 01-.258.2l-3.065 1.617a2.585 2.585 0 002.571-.01 4.69 4.69 0 01.337 2.6.724.724 0 00.009.41.568.568 0 00.276.244c1.564.829 3.508.63 4.985 1.627a1.116 1.116 0 00.535.254c.391.022.667-.424 1.049-.529a7.868 7.868 0 01.265 2.245q.782-.78 1.566-1.557l1.162 3.661a1.592 1.592 0 01.11.781c-.164.843-1.5.98-1.582 1.835a1.67 1.67 0 00.236.841 8.133 8.133 0 01.49 1.356l1.841-1.069a.794.794 0 01.575-.158c.306.084.409.479.6.745a1.188 1.188 0 001.155.412 2.768 2.768 0 001.151-.565c.319-.235.658-.609.537-1a4.729 4.729 0 01-2.178-.676 5.376 5.376 0 013.8-1.373 9.093 9.093 0 011.877-.041c.27.122.535 4.042.535 4.042a6.665 6.665 0 00.555-2.877c-.135-1.346 2.373.244 2.432-.062s1.154 1.717 1.329 1.531.461-.918 1.321-.918.115 2.633.288 2.2 3.733-1.531 4.713-.551 1.548.307 2.3.736 7.178.613 10.967.489 10.167-2.94 12-5.326a28.694 28.694 0 014.135-4.593 20.675 20.675 0 003.216-3.306c1.034-1.346.344 1.224 1.492 3.613s.229-1.1-.173-1.854 1.492-2.31 1.092-2.125-1.953-.8-1.953-1.9 1.894-1.346 1.724-2.02-.173-4.224.631-5.144 2.241-.122 2.584-2.449 1.263-.489 2.009-.918 1.207-2.755 1.724-4.471 2.987-1.287 4.079-1.591-3.445-1.224-3.847-2.633 2.355-3.8 3.216-6.332-.173-6.586.173-8.3 2.7-1.164 7.812-2.322c0 0-6.146.055-7.639.779s-1.378-2.624-1.072-3.848-.708-2.082-1.512-.8-.4-.122-2.182-2.877 2.355-4.349 2.526-4.653 2.126-3.613 1.169-3.98a7.813 7.813 0 00-4.8.613c-1.62.736-4.065-1.409-2.456-3.98s.058-1.164-.861-2.449-2.928.736-3.962.736-4.767-1.469-5.113-2.746 1.378-4.051.861-4.54-.746-1.96-.919-4.9-4.25-3.184-5.915-3.369.4-3.92.288-5.633-2.872-.489-3.16 2.571-2.3 4.715-2.872 3.429-.517-1.775-1.78-2.082-6.893-2.818-10.281-4.1-4.079-1.04-4.3-1.715a25.6 25.6 0 01-.065-3.613 23.725 23.725 0 00-.358-6.236c-.694-3.122-3.211-4.286-1.717-2.633s2.182 8.51 1.378 9.49-.975 2.082-1.492 2.511-.8-.613-.919-1.469-.919-.736-1.092-.184.288 1.1 0 1.531-1.838-.489-2.584.184-1.609-.98-2.126-1.409a1.717 1.717 0 01-.344-1.838c.173-.736 1.665-1.224 2.009-2.449a6.28 6.28 0 00-.229-3.92c-.517-1.715-1.034-1.469-1.378-3S55.36 1.421 54.383.319s-2.068.858-2.241 2.7.575 2.755-.229 3.306.287 1.465 1.034 2.385-.115 1.653.919 2.326.8 0 .919.6.173 1.79-.344 1.85-.746.736-1.953 1.164-4.25.673-5.227 1.591-3.274 3.491-3.733 3 .173-1.653 0-3.246-.4-.736-.288-3.369-.344.673-1.207 1.838-.919-1.164-1.207-.347-.919.532-1.148.1-1.665.551-1.665 1.591-2.411-.367-2.757-.367 1.665 1.591 2.757 2.142.861 1.715 1.78 3.306a8.422 8.422 0 01.975 3.673c.229 1.224-1.378 3.369-2.009 4.349s-1.492-.184-4.25-.613c-.8.98 3.389.98 3.847 1.775s-.861 1.1-1.321 3.184-1.207 1.838-4.364-1.224c3.16 5.573 3.733 3.857 3.733 3.857l-1.78 7.286s-.344 1.04-2.3-.184-.69-1.04-3.274-.918-1.207-.244-1.609-2.144-3.389.184-2.7 1.591 1.894 1.04 2.126 2.7 2.241 1.469 3.216 1.838 4.308.551 3.618 1.838-2.528 0-4.135.98.575 2.326.173 3.122-6.49-3.551-7.753-3.613-2.928-1.469-2.757-1.838 1.665-1.653 1.838-3 .631-4.224-.4-5.877-1.034-.489-1.609-1.531-.631-.062-1.092-.98a5.926 5.926 0 01-1.092-3.246c-.173-2.082 0 0-.458 1.346s1.492 1.96.746 2.94-3.045-.736-5.283-.613c1.894.918 1.378 2.144.288 2.326a9.653 9.653 0 01-3.216-.489s2.355 1.469 2.411 2.142-2.7 2.082-2.126 1.96 2.355.184 2.411 1.04-2.3 2.2-1.492 1.96 1.551 1.164 3.562 2.755C13.727 50.161 6.49 45.2 0 45.2z" transform="translate(89 8)"/><path id="Path-265" data-name="Path" class="cls-1" d="M7.88 1.993c.286-.431.02-.936-.359-1.335A2.223 2.223 0 004.592.445C3.308 1.209 2 1.945.788 2.762a1.049 1.049 0 00-.426.418c-.106.3.236.586.592.788s.771.4.881.7a1.268 1.268 0 010 .525 2.705 2.705 0 01-.023.786 1.731 1.731 0 01-.429.579L0 7.989 1.995 8a3.841 3.841 0 001.257-.131 3.5 3.5 0 00.854-.518c1.067-.743 2.663-1.128 3.561-1.96a.571.571 0 00.239-.412.7.7 0 00-.2-.359 3.947 3.947 0 01-.519-.814 1.055 1.055 0 01-.037-1.074c.181-.27.55-.469.73-.739z" transform="translate(80 59)"/><path id="Path-266" data-name="Path" class="cls-1" d="M.042.487C-.014 1.924 0 5.966.013 7.746c0 .108 0 .242.007.254l.007-.057c.045-.75.059-2.295.066-3.687C.1 3.519.123-1.572.042.487z" transform="translate(97.95 67)"/><path id="Path-267" data-name="Path" class="cls-1" d="M.1.048c0-.109-.086 0-.1.031C0 .07.052.1.061.1S.1.106.1.048z" transform="translate(105.95 79.95)"/><path id="Path-268" data-name="Path" class="cls-1" d="M3.056.1h3.761c.466 0 .855-.009 1.252-.014C9.112.07 10.272.059 11.424.048a339.75 339.75 0 012.6-.017h2.975C15.067.028 13.3.007 11.388 0H6.424C5.378 0 4.295 0 3.371.013 2.855.018 2.416.025 2 .033 1.338.045-.957.078.446.093 1.059.1 2.343.1 3.056.1z" transform="translate(98 76.95)"/><path id="Path-269" data-name="Path" class="cls-1" d="M.594.054a33.291 33.291 0 011.07.029h.443L4.289.1h1.234c.353 0 .617-.007.865-.011L7.863.06A.926.926 0 008 .055h-.127C6.751.036 5.264.023 4.041.008 3.013 0 1.084-.006 1.564.026H.573C.246.03-.034.035 0 .041s.346.01.594.013z" transform="translate(69 66.95)"/><path id="Path-270" data-name="Path" class="cls-1" d="M.031.094L.08.1C.119.1.092.048.077.031S.041 0 .022 0 0 .027 0 .055s.008.037.031.039z" transform="translate(67.95 58.95)"/><path id="Path-271" data-name="Path" class="cls-1" d="M.01.087A.026.026 0 00.034.1.037.037 0 00.05.091C.074.073.123.044.088.012A.059.059 0 000 .026a.067.067 0 000 .035.061.061 0 00.01.026z" transform="translate(79.95 58.95)"/><path id="Path-272" data-name="Path" class="cls-1" d="M.053.1A.049.049 0 00.1.068.077.077 0 00.092.02L.074 0C.058.011.025 0 .011.01a.018.018 0 00-.006.011A.078.078 0 000 .07.053.053 0 00.053.1z" transform="translate(76.95 50.95)"/><path id="Path-273" data-name="Path" class="cls-1" d="M.369.028C.936.05 1.531.072 2.248.081c.357 0 .726.005 1.094.006L6.638.1a7.987 7.987 0 001.3-.02C7.435.019 4.1.031 3.05.031A374.331 374.331 0 010 0a1.668 1.668 0 00.369.028z" transform="translate(59 50.95)"/><path id="Path-274" data-name="Path" class="cls-1" d="M.01.1a.027.027 0 00.012 0h.022A.068.068 0 00.086.092.051.051 0 00.1.043C.1.025.091 0 .065 0S.032.032 0 .029a.116.116 0 000 .053A.019.019 0 00.01.1z" transform="translate(58.95 45.95)"/><path id="Path-275" data-name="Path" class="cls-1" d="M.1.061C.1.039.079.019.055 0L0 .005v.016L.008.1C.054.1.1.083.1.061z" transform="translate(58.95 58.95)"/><path id="Path-276" data-name="Path" class="cls-1" d="M0 .1C.009.1.022.1.03.093a.3.3 0 00.048-.04A.074.074 0 00.1 0H.051L0 .082V.1z" transform="translate(58.95 58.95)"/><path id="Path-277" data-name="Path" class="cls-1" d="M.037 0L0 .021A.1.1 0 00.048.1C.122.073.116.025.037 0z" transform="translate(79.95 50.95)"/><path id="Path-278" data-name="Path" class="cls-1" d="M.073.1h.015a.037.037 0 000-.056A.213.213 0 00.022 0L0 .036A.158.158 0 00.073.1z" transform="translate(79.95 50.95)"/><path id="Path-279" data-name="Path" class="cls-1" d="M.013.073A.105.105 0 00.086.1.012.012 0 00.1.1a.051.051 0 000-.039.176.176 0 00-.015-.044C.079 0 .069 0 .059 0H.01A.083.083 0 000 .063a.034.034 0 00.013.01z" transform="translate(79.95 50.95)"/><path id="Path-280" data-name="Path" class="cls-1" d="M.1 8C.1 6.272.054 1.546.006 0-.03.455.1 6.92.1 8z" transform="translate(185.95 119)"/><path id="Path-281" data-name="Path" class="cls-1" d="M1.834 3.675A24.581 24.581 0 000 10.789a9.256 9.256 0 001.411 4.5c.756 1.5 3.074 1.841 4.855 1.673 1.631-.15 2.873-1.356 4.258-2.162 1.134-.66 2.414-1.07 3.583-1.666a5.23 5.23 0 002.7-2.626c.752-2.1-.9-4.224-2.453-5.908L10.615.528a.843.843 0 00-.659-.364c-.363.046-.47.467-.621.774a2.245 2.245 0 01-2.669.817A6.212 6.212 0 014.272 0c.987 1.006-2.106 3.036-2.438 3.675z" transform="translate(186 109)"/><path id="Path-282" data-name="Path" class="cls-1" d="M7.233 21a1.488 1.488 0 00.6-1.959 4.187 4.187 0 01-.556-.933.629.629 0 01.67-.73 1.735 1.735 0 00-2-.161q-.842-3.167-1.593-6.349c-.076-.324-.1-.732.271-.9.174-.077.391-.079.562-.159a.7.7 0 00.361-.542A3.474 3.474 0 005.2 6.9a2.934 2.934 0 01-1.792 2.059c-.6-1.009.361-2.228-.125-3.271-.222-.481-.73-.862-.969-1.339-.342-.679-.092-1.447-.3-2.158A4.861 4.861 0 000 0a31.062 31.062 0 011.218 6.1 3.9 3.9 0 00.507 1.912c.225.334.556.624.817.944.977 1.213.83 2.735 1.226 4.121.608 2.12 2.537 4.129 1.962 6.253z" transform="translate(191 106)"/><path id="Path-283" data-name="Path" class="cls-1" d="M0 0v.022A.106.106 0 00.029.1C.2.065 0 .034 0 0z" transform="translate(194.95 105.95)"/><path id="Path-284" data-name="Path" class="cls-1" d="M.034.093A.031.031 0 00.057.1a.016.016 0 00.009 0C.085.077.1.057.1.038S.055 0 .007 0v.01a.063.063 0 00.027.083z" transform="translate(185.95 109.95)"/><path id="Path-285" data-name="Path" class="cls-1" d="M5.97 1.881A5.667 5.667 0 00.718.136a.817.817 0 00-.473.252A1.921 1.921 0 000 1.6C.025 3 .1 4.579.855 5.524a6.063 6.063 0 00.908.815 13.27 13.27 0 001.513 1.3c1.373.838 3.055.119 4.129-1.327 1.531-2.059-.239-3.304-1.435-4.431z" transform="translate(111 98)"/><path id="Path-286" data-name="Path" class="cls-1" d="M.007.029A.035.035 0 000 .064c.009.009.02.013.028.02S.043.1.053.1a.036.036 0 00.03-.017A.058.058 0 00.1.042C.1.025.082.012.067 0v.008A.031.031 0 00.043 0a.052.052 0 00-.036.029z" transform="translate(110.95 87.95)"/><path id="Path-287" data-name="Path" class="cls-1" d="M8 .021C5.219 0-.536-.042.04.1 1.575.077 2.9.05 4.667.042 5.8.037 7.009.038 8 .021z" transform="translate(111 87.95)"/><path id="Path-288" data-name="Path" class="cls-1" d="M.053.1A.032.032 0 00.1.077.049.049 0 00.085.031a.1.1 0 00-.04-.02L.015 0C.009 0 0 0 0 .009l.02.037A.078.078 0 00.053.1z" transform="translate(118.95 87.95)"/><path id="Path-289" data-name="Path" class="cls-1" d="M13.839.039Q8.239-.013 2.634 0a.653.653 0 00-.5.143c-.191.188-.2.553-.355.793C1.425 1.511.042 1.26 0 2.07c-.05.981 1.355.8 1.9.9a.911.911 0 01.546.228 1.476 1.476 0 01.259.884q.136 1.7.268 3.406c.014.183.045.394.173.474A.349.349 0 003.33 8c1.382.04 3.083-.548 3.361-2.242.227-1.369-.628-2.613-1.414-3.6A62.594 62.594 0 0117 .815a4.92 4.92 0 00-3.161-.776z" transform="translate(102 110)"/><path id="Path-290" data-name="Path" class="cls-1" d="M0 .073C0 .082.009.09.012.082L.019.1A.291.291 0 00.094.023.026.026 0 00.1 0a.289.289 0 00-.088.052A.031.031 0 000 .073z" transform="translate(110.95 109.95)"/><path id="Path-291" data-name="Path" class="cls-1" d="M8 .067A214.942 214.942 0 004.647.041C3.711.04 1.27-.009.71 0c-2.248.042 1.496.1 2.225.1A351.83 351.83 0 008 .067z" transform="translate(128 109.95)"/><path id="Path-292" data-name="Path" class="cls-1" d="M.013.079A.054.054 0 00.075.1.036.036 0 00.1.081.051.051 0 00.071.017C.051.007.029.009.008 0a.067.067 0 00.005.079z" transform="translate(126.95 117.95)"/><path id="Path-293" data-name="Path" class="cls-1" d="M7.619.056c.213-.01.431-.021.37-.031S7.472 0 6.985.006H4.529C3.8 0 3.062 0 2.311 0S.779.007.322.02c-.33.01-.447.023-.157.034.147.005.38.008.619.012.974.013 2.08.02 3.176.028C4.645.1 5.4.1 6.066.1A38.667 38.667 0 007.619.056z" transform="translate(102 135.95)"/><path id="Path-294" data-name="Path" class="cls-1" d="M.3 5.6c.4.268.806.537 1.208.808A9.888 9.888 0 003.7 7.619a8.782 8.782 0 001.485.325A1.547 1.547 0 006.731 7.6a2.727 2.727 0 00.4-.827C7.808 4.864 8.9 1.009 6.647.167 5.258-.351 1.691.357.944 2.021a14.1 14.1 0 00-.9 2.718 1.006 1.006 0 000 .612A.7.7 0 00.3 5.6z" transform="translate(191 30)"/><path id="Path-295" data-name="Path" class="cls-1" d="M.1 0v.009A.333.333 0 010 .1.117.117 0 00.1 0z" transform="translate(207.95 20.95)"/><path id="Path-296" data-name="Path" class="cls-1" d="M.1 0C.068.031.034.087 0 .1.025.09.117.065.1 0z" transform="translate(207.95 28.95)"/><path id="Path-297" data-name="Path" class="cls-1" d="M0 .022a.238.238 0 01.094.056C.1.062.1.045.1.028z" transform="translate(215.95 16.95)"/><path id="Path-298" data-name="Path" class="cls-1" d="M.053.1a.035.035 0 00.013 0A.027.027 0 00.085.091a.044.044 0 000-.062A.1.1 0 00.04 0C.033.016.006.027 0 .044S.025.084.053.1z" transform="translate(215.95 16.95)"/><path id="Path-299" data-name="Path" class="cls-1" d="M.322 6.1A9.637 9.637 0 004.8 7.87a2.27 2.27 0 002.265-.37 4.225 4.225 0 00.79-2.7c.03-1.355.482-3.881-.38-4.606C6.938-.261 5.4.208 4.8.393A7.982 7.982 0 00.14 4.928a1.235 1.235 0 00-.114.772.808.808 0 00.296.4z" transform="translate(170 13)"/><path id="Path-300" data-name="Path" class="cls-1" d="M.011.083A.12.12 0 00.061.1a.034.034 0 00.027 0C.12.07.079.01.058 0S-.012.041 0 .074a.021.021 0 00.011.009z" transform="translate(164.95 28.95)"/><path id="Path-301" data-name="Path" class="cls-1" d="M7.59 1.016C6.608-1.1 2.629.749 1.09.757a1.066 1.066 0 00-.972.352 1.4 1.4 0 00-.1.85c.094.983.182 1.966.274 2.949a2 2 0 00.213.862c.39.635 1.323.494 1.766 1.08.174.227.245.538.418.765.44.583 1.252.392 1.894.154A2.377 2.377 0 005.789 7c.117-.166.2-.36.309-.534.333-.526.9-.789 1.291-1.262a4.172 4.172 0 00.418-3.544 4.8 4.8 0 00-.217-.644z" transform="translate(438 178)"/><path id="Path-302" data-name="Path" class="cls-1" d="M1.927.1h.416C3.152.085 3.85.068 4.939.063c.989 0 2.123 0 3.061-.005A68.435 68.435 0 005.164 0c-.828 0-1.636 0-2.393.008C2.344.01.5.012.336.016a.826.826 0 00-.09.005L.081.042C0 .053-.085.064.191.074.522.086 1.245.093 1.927.1z" transform="translate(111 37.95)"/><path id="Path-303" data-name="Path" class="cls-1" d="M1.243.1C2.573.092 4.015.087 5.457.087A20.673 20.673 0 007.888.011C7.484 0 6 0 5.29 0c-.324 0-1.859.021-1.952.024H.659C.4.027.634.033.752.037 1.075.049.522.062 0 .073.566.08.995.09 1.243.1z" transform="translate(102 28.95)"/><path id="Path-304" data-name="Path" class="cls-1" d="M.012 2.665c.019.453.027 1.522.026 2.49S.03 7.055.026 8c.014-.528.027-1.167.038-1.886 0-.2.006-.417.01-.537 0-.044 0-.075.005-.138s0-.178 0-.28c0-.293.005-.59.008-.883C.1 3.073.113-.091.063 0 .047.033.03 1.018.017 1.4 0 1.84-.01 2.128.012 2.665z" transform="translate(148.95 13)"/><path id="Path-305" data-name="Path" class="cls-1" d="M0 8c7.377-6.131 8-8 8-8-6.933 5.138-8 8-8 8z" transform="translate(43 140)"/><path id="Path-306" data-name="Path" class="cls-1" d="M.094.069a.1.1 0 000-.069c-.068.047-.12.033-.08.069s.068.047.08 0z" transform="translate(79.95 164.95)"/><path id="Path-307" data-name="Path" class="cls-1" d="M.007.071c.023.035.07.042.093 0S.052-.025.038.013-.016.036.007.071z" transform="translate(79.95 169.95)"/><path id="Path-308" data-name="Path" class="cls-1" d="M8 .085S2.759.068.473 0C-1.632.083 3.722.124 8 .085z" transform="translate(111 164.95)"/><path id="Path-309" data-name="Path" class="cls-1" d="M.027.084A.051.051 0 00.067.1.042.042 0 00.1.056C.1-.04-.063 0 .027.084z" transform="translate(185.95 355.95)"/><path id="Path-310" data-name="Path" class="cls-1" d="M.061.022L.026 0A.043.043 0 000 .04a.066.066 0 00.034.051C.054.1.086.1.1.085a.036.036 0 000-.037.112.112 0 00-.039-.026z" transform="translate(177.95 347.95)"/><path id="Path-311" data-name="Path" class="cls-1" d="M0 0l.072.1A.037.037 0 01.1.088z" transform="translate(177.95 347.95)"/><path id="Path-312" data-name="Path" class="cls-1" d="M7.539 5.686A6.961 6.961 0 005.552 3.87Q2.773 1.938 0 0a18.911 18.911 0 004.378 5.827c.507.46 2.238 2.244 2.941 2.173 1.015-.113.727-1.523.22-2.314z" transform="translate(178 340)"/></svg>