<svg width="86" height="75" xmlns="http://www.w3.org/2000/svg"><g fill="#220D03"><path d="M69.284 2.716C61.5 3.275 56 8.448 56 12c0 1.944 2.056 4 4 4 3.552 0 8.725-5.5 9.284-13.284zM60 18.666c-3.427 0-6.667-3.24-6.667-6.666 0-5.55 7.572-12 17.334-12H72v1.333c0 9.762-6.45 17.334-12 17.334m-30.617-5.284c.558 7.784 5.732 13.284 9.284 13.284 1.944 0 4-2.056 4-4 0-3.552-5.5-8.726-13.284-9.284zm9.284 15.95c-5.55 0-12-7.572-12-17.333v-1.333H28c9.761 0 17.333 6.45 17.333 12 0 3.426-3.24 6.666-6.666 6.666m12 10.667H48V12h2.667v28"/><path d="M50.667 26.667H48c0-4.5 2.932-7.484 3.057-7.61l8-8 1.886 1.886-8 8c-.019.02-2.276 2.356-2.276 5.724m0 10.666H48c0-3.408-2.253-5.7-2.276-5.724l-8-8 1.885-1.885 8 8c.126.125 3.058 3.11 3.058 7.61m18.666 15.999h-2.666c0-6.616-7.776-12-17.334-12-5.176 0-10.324 1.864-13.772 4.988l-1.789-1.976c3.983-3.609 9.655-5.678 15.561-5.678 11.028 0 20 6.58 20 14.666"/><path d="M38.667 61.333H36A5.339 5.339 0 0141.333 56H56a2.67 2.67 0 002.667-2.667A2.67 2.67 0 0056 50.667H43.765L29.1 45.333H17.333v-2.666h12.235L44.235 48H56a5.339 5.339 0 015.333 5.333A5.339 5.339 0 0156 58.667H41.333a2.67 2.67 0 00-2.666 2.666"/><path d="M49.659 74.667h-3.22l-22.667-8h-5.105V64h5.561l22.667 8h2.113l32.84-17.077c.365-.42.819-1.124.819-1.59a2.669 2.669 0 00-2.483-2.66l-21.12 6.6-.795-2.546L80 48a5.339 5.339 0 015.333 5.333c0 1.828-1.545 3.43-1.722 3.608l-.33.242L49.66 74.667M13.333 64h-2.666v-2.667h2.666V64M8 64H5.333v-2.667H8V64"/><path d="M16 69.333H0v-2.666h16v-24H0V40h16a2.67 2.67 0 012.667 2.667v24A2.67 2.67 0 0116 69.333"/></g></svg>