<svg width="86" height="86" xmlns="http://www.w3.org/2000/svg"><g fill="#220D03"><path d="M61.334 21.333a2.67 2.67 0 00-2.667 2.666 2.67 2.67 0 002.667 2.667A2.67 2.67 0 0064 23.999a2.67 2.67 0 00-2.666-2.666zm0 8A5.339 5.339 0 0156 23.999a5.339 5.339 0 015.334-5.333 5.339 5.339 0 015.333 5.333 5.339 5.339 0 01-5.333 5.334M8 45.332H5.334v-36c0-2.205 1.794-4 4-4h36V8h-36C8.599 8 8 8.596 8 9.332v36M76 80H40v-2.667h36c.735 0 1.334-.598 1.334-1.334V40H80v36c0 2.206-1.794 4-4 4"/><path d="M29.334 13.333H10.667v-2.667h18.667v2.667m-16 5.333h-2.667v-2.667h2.667v2.667m5.333 0H16v-2.667h2.667v2.667m5.333 0h-2.666v-2.667H24v2.667M44 44h-2.666v-2.668H44V44m30.667 30.666H56v-2.667h18.667v2.667m0-5.333H72v-2.667h2.667v2.667m-5.333 0h-2.667v-2.667h2.667v2.667m-5.334 0h-2.666v-2.667H64v2.667m-40 1.333a5.339 5.339 0 01-5.333-5.334h2.667A2.67 2.67 0 0024 68a2.67 2.67 0 002.667-2.667c0-.865-1.899-2.194-3.212-2.782-.799-.359-4.788-2.294-4.788-5.218A5.339 5.339 0 0124 52a5.339 5.339 0 015.334 5.333h-2.667A2.67 2.67 0 0024 54.666a2.67 2.67 0 00-2.666 2.666c0 .866 1.898 2.195 3.212 2.783.798.359 4.788 2.293 4.788 5.217A5.339 5.339 0 0124 70.666"/><path d="M25.334 53.332h-2.667v-4h2.667v4m0 20h-2.667v-4h2.667v4m9.333-10.666H32v-2.667h2.667v2.667m-18.667 0h-2.666v-2.667H16v2.667m45.334-24c.405 0 .788.184 1.041.5l4.715 5.895L72 43.097v-7.098c0-.737.598-1.333 1.334-1.333h7.097l1.964-4.91L76.5 25.04a1.334 1.334 0 010-2.083l5.895-4.715-1.964-4.91h-7.097A1.333 1.333 0 0172 11.999V4.902l-4.91-1.964-4.715 5.895c-.505.633-1.577.633-2.083 0l-4.714-5.895-4.911 1.964v7.097c0 .738-.597 1.334-1.333 1.334h-7.098l-1.964 4.91 5.895 4.715a1.334 1.334 0 010 2.083l-5.895 4.714 1.964 4.91h7.098c.736 0 1.333.597 1.333 1.334v7.098l4.91 1.964 4.715-5.895c.254-.316.636-.5 1.042-.5zm5.333 9.333c-.396 0-.783-.177-1.041-.5l-4.292-5.365-4.292 5.365a1.34 1.34 0 01-1.538.406l-6.666-2.667A1.336 1.336 0 0148 43.999v-6.666h-6.666a1.335 1.335 0 01-1.239-.84l-2.667-6.666a1.334 1.334 0 01.406-1.536L43.199 24l-5.365-4.292a1.334 1.334 0 01-.406-1.536l2.667-6.666a1.335 1.335 0 011.239-.84H48V4c0-.545.332-1.034.838-1.238L55.504.094a1.34 1.34 0 011.538.405l4.292 5.366L65.626.499a1.34 1.34 0 011.537-.405L73.83 2.76c.505.204.837.693.837 1.238v6.667h6.667c.545 0 1.034.332 1.238.839l2.667 6.666c.217.546.053 1.17-.405 1.536L79.468 24l5.366 4.292c.458.367.622.99.405 1.536l-2.667 6.667a1.335 1.335 0 01-1.238.839h-6.667V44c0 .546-.332 1.035-.837 1.239l-6.667 2.667a1.35 1.35 0 01-.496.094"/><path d="M61.334 14.666c-5.147 0-9.334 4.188-9.334 9.333 0 5.146 4.187 9.334 9.334 9.334 5.146 0 9.333-4.188 9.333-9.334 0-5.145-4.187-9.333-9.333-9.333zm0 21.333c-6.616 0-12-5.382-12-12 0-6.617 5.384-12 12-12s12 5.383 12 12c0 6.618-5.384 12-12 12M24 76c.406 0 .788.183 1.042.5l4.714 5.894 4.911-1.964v-7.098c0-.737.597-1.333 1.333-1.333h7.098l1.964-4.91-5.895-4.715a1.334 1.334 0 010-2.083l5.895-4.715-1.964-4.91H36a1.333 1.333 0 01-1.333-1.334v-7.097l-4.91-1.964-4.715 5.895c-.506.633-1.578.633-2.083 0l-4.715-5.895-4.91 1.964v7.097c0 .738-.598 1.334-1.334 1.334H4.903l-1.964 4.91 5.895 4.715a1.334 1.334 0 010 2.083l-5.895 4.714L4.903 72H12c.736 0 1.334.596 1.334 1.333v7.098l4.91 1.964 4.715-5.895c.253-.316.636-.5 1.041-.5zm5.334 9.332c-.396 0-.783-.177-1.042-.5L24 79.467l-4.292 5.365c-.366.46-.99.622-1.537.406l-6.667-2.667a1.336 1.336 0 01-.837-1.239v-6.666H4a1.335 1.335 0 01-1.238-.839L.095 67.16A1.334 1.334 0 01.5 65.624l5.366-4.292L.5 57.04a1.334 1.334 0 01-.405-1.536l2.667-6.666A1.335 1.335 0 014 47.999h6.667v-6.667c0-.545.332-1.034.837-1.238l6.667-2.667a1.34 1.34 0 011.537.405L24 43.198l4.292-5.366a1.34 1.34 0 011.538-.405l6.666 2.667c.506.204.838.693.838 1.238V48H44c.546 0 1.035.332 1.239.839l2.667 6.666c.217.546.053 1.17-.406 1.536l-5.365 4.292 5.365 4.292c.459.367.623.991.406 1.536l-2.667 6.667a1.335 1.335 0 01-1.239.839h-6.666v6.666c0 .546-.332 1.035-.838 1.24l-6.666 2.666a1.35 1.35 0 01-.496.094"/></g></svg>