<svg width="89" height="72" xmlns="http://www.w3.org/2000/svg"><g fill="none" fill-rule="evenodd"><circle fill="#FFAD15" cx="35.063" cy="35.063" r="35.063"/><g fill="#512511" fill-rule="nonzero"><path d="M82.006 42.999l-.015.002c.016-.002.023-.002.015-.002z"/><path d="M75.976 42.152c.075.216.314.38.286.603-.027.224-.341.097-.484.127-.144.03.047.32.047.32l-.825-.32s.682.402.825.432c.144.03.13-.015.116.253-.013.268-.457.44-.784.53-.328.089-.417.297-.26.573.157.275-.239.238-.355.246-.116.007-.218.141-.075.253.144.112.614.06.75.052.137-.008.137.596.014.82-.122.223-.075.752-.075.752l-.28.134c-.28.134-.347.253-.347.253s.143-.052.293-.134c.15-.082.239-.15.3-.06.062.09-.04.261-.17.433-.13.171.102.2.19.186.09-.015.171.149.178.275.007.127-.252.15-.334.12-.082-.03.047-.216.047-.216s-.088.022-.143.126c-.054.105-.177.127-.218.037-.041-.089-.178-.163-.273-.074-.096.09-.164.074-.198.008-.034-.068-.082-.09-.11-.03-.027.06-.067.134-.163.126-.095-.007-.293-.141-.293-.141s.143.23.17.32c.028.09-.116.008-.211-.09-.096-.096-.24.038-.266.03C73.3 48.09 73 46.868 73 46.868s.068.738.15 1.043c.082.306.068.276.007.38-.061.104-.164.179-.061.276.102.097.17.119.245.171.075.052.034.186.103.26.068.075.075-.036.047-.185-.027-.15.028-.172.116-.216.089-.045.11.044.123.2.014.157.13.261.13.261-.041.112-.02.21-.02.21s.02-.21.19-.18c.171.03.11-.014.205.045.096.06.212-.037.266-.112.055-.074.11-.193.246-.134.083.037.116.057.176.07a.322.322 0 01-.188.076c-.144.012-.006.138.092.085.098-.054.03.236.052.192.021-.04.067-.16.207-.334h.01c.21.016.21.046.293-.051.082-.097-.028-.164.116-.209.143-.045.061-.179.116-.208.054-.03.13.178.32.365.134.13.101.209.067.31h-.477s-.086-.112-.155 0c-.056.092-.116.076-.07.114.046.038.046.157.121.183.075.025.098-.032.15-.076.052-.044.046-.145.046-.145l.378-.055a.47.47 0 00-.025.13c-.007.194.164.559.327.514.155-.042.158-.018.262.036l-.075.14a.261.261 0 00-.104-.022c-.101.001-.187.076-.264.147.022-.061.13-.245.064-.294-.09-.067-.111.133-.128.182-.021.062-.083.095-.12.147-.015.02-.026.052-.01.072.013.014.034.014.052.012a.595.595 0 00.24-.084c.02-.013.044-.028.066-.02a.09.09 0 01.027.02c.02.02.04.038.062.053l-.618 1.153.055.09.586-1.227a.285.285 0 00.04.02c.045.02.099.025.144.003.03-.015.058-.045.06-.081a.111.111 0 00-.01-.048.233.233 0 00-.118-.113l-.01-.004.068-.143a.473.473 0 01.011.006c.123.06.164-.112.164-.112.095-.193.123-.126.314-.134.19-.007.082.09.075.261-.007.171.007.201.075.015.068-.186.068-.41.334-.134.266.275.307.015.498.111.192.097.028.313-.177.358-.205.045-.15.067-.246.298-.095.23-.122.119-.211.253s.04.045.198-.007c.156-.053.122.044.122.067 0 .022-.15.096-.075.208.075.112.075.045.137-.052.061-.097.095.112.177.127.082.015.123-.015.191.045s.11.03.082-.045c-.027-.075.014-.156.157-.127.144.03.205-.015.205-.149s.102-.216.096-.074c-.007.141.082.097.082.097.006.253.136 1.102.136 1.102s-.082-1.118-.007-1.155c.075-.037.02-.119.034-.223.014-.105.137-.12.178-.231.04-.112.061-.522.116-.708.054-.186.17-.201.307-.402.136-.201.246-.224.436-.358.192-.134.226.097.3.15.076.052.062-.097.185-.217.123-.119.143-.06.198.134.054.194.123.32.177.544.055.224-.034.447.102.648.137.201.3.12.26-.171-.041-.29-.39-.961-.382-1.296.007-.336.15-.447.375-.507s.157.045.266-.142c.11-.186.062-.268.062-.268l.368.12-.368-.194c.013-.09.054-.209.184-.194.13.015.143.037.184-.127.041-.163.15-.149.198-.052.048.097.218.21.218.21s-.061-.098-.109-.195c-.047-.096-.047-.156.13-.186s.075-.365.082-.454c.007-.09 0-.544.082-.566.082-.023.43.141.498-.038.068-.178-.273-.402-.362-.529-.088-.126-.095-.141-.068-.38.028-.238-.15-.208-.19-.432-.042-.223.081-.044.238-.134.157-.09-.027-.134.02-.23.048-.097.028-.105-.027-.157-.055-.052-.075-.008-.075-.164s-.068-.037-.116.008c-.048.044-.027-.231-.027-.231s-.096.29-.205.357c-.11.067-.068-.484-.068-.685 0-.201.027-.328-.157-.581-.185-.253-.342-.559-.342-.559s.319-.104.359-.111l-.413.022-.103-.112.458-.395-.58.306s-.383-.53-.676-.656a1.69 1.69 0 00-.485-.141l.096-.298s-.116.193-.28.275c-.164.082-.641 0-.832.03-.192.03-.212-.119-.28-.283-.068-.164-.028.194-.096.335-.068.142-.314.037-.58.008-.266-.03-.498-.015-.587.097-.088.111-.15.074-.273.104-.122.03-.163.171-.163.171l-.355.068.348.037s-.014.044-.178.223c-.163.179-.464.32-.682.097-.218-.224-.41-.247-.334-.03z"/><path d="M75.123 52L76 50l-1 1.803zm.861-9l.016-.308L74 41zm.844-1l.172-.148L76 41zm-1.874 5.964a.654.654 0 01.092.086s-.013-.145-.092-.086zm-1.724-.166c.134-.125.123-.143.223.071.1.215.067 0 .089-.089.022-.089.067-.089.2.143.133.232.077-.09.177-.57.039-.187.064-.264.081-.288-.087-.13-.21-.07-.447.216-.267.321-.167.107-.434.428-.266.321-.022.214.112.089z"/><path d="M73.046 47.731c-.297.871.933-.647.954-.721 0 0-.657-.15-.954.721zM73.05 47s-.06-.112-.094 0c-.034.113.094 0 .094 0zm-.087-1.028c-.055.078.087.078.087.078s-.033-.156-.087-.078zm3.997 4.018c-.049.109.09.036.09.036s-.04-.144-.09-.036z"/><path d="M77.05 50.008s-.062-.123-.095-.01c-.032.112.095.01.095.01zm-.087 1.029c.048.051.087-.065.087-.065-.035-.059-.135.013-.087.065z"/><path d="M77 51.128L76.949 51 76 53zm.989-.178c-.076.014-.017.097-.017.097.11.025.093-.109.017-.096zm-.029 1.067c-.046.088.088-.027.088-.027.013-.055-.043-.06-.088.027zm-.003.98c-.039.112.093.011.093.011s-.054-.123-.093-.01z"/><path d="M77.966 52.951c-.064.015.084.099.084.099s-.02-.113-.084-.099z"/><path d="M78.046 53.05s.029-.106-.066-.1c-.095.006.066.1.066.1z"/><path d="M77.992 53.05s.123-.1.011-.1-.011.1-.011.1zm.021-1.1c-.105 0-.047.1-.047.1s.152-.1.047-.1zm-1.037.01c-.087.045.073.09.073.09s.013-.136-.073-.09zm2.987.072c.054.069.087-.082.087-.082s-.142.014-.087.082zm1.087-.026s0-.12-.078-.008c-.078.112.078.008.078.008zm-.081-1.036c-.07.07.081.08.081.08s-.01-.153-.081-.08zM80 49l1 1s-.3-.699-1-1zm.95 0l.1 1c.004-.584-.1-1-.1-1z"/><path d="M81.05 50s-.021-.866-.084-.99.084.99.084.99zm-1.063-.045c-.079.036-.007.088-.007.088.099.042.086-.124.007-.088z"/><path d="M81.05 49.183s-.015-.267-.055-.156c-.041.111-.068.8-.018.956.05.155.073-.8.073-.8zm.95-.09L83 50l-.712-1zm-.05-.033l.1.94-.056-1zm1.022-.597s-.049-.296-.21-.27c-.163.025-.228.206-.243.244C82.502 48.476 82 48 82 48s.178.36.276.502c.097.141-.081.09.032.257s.34.309.421.206c.081-.103.065-.064.195.013s.08-.077-.049-.231c-.13-.156.097-.284.097-.284z"/><path d="M82.071 48c-.386-.025.929 1 .929 1s-.542-.974-.929-1zm.895-.05c-.063 0 .084.1.084.1s-.021-.1-.084-.1z"/><path d="M81.964 47.952c-.058.021.086.098.086.098s-.029-.118-.086-.098zm1.018.002c-.098.028.061.096.061.096s.037-.124-.061-.096z"/><path d="M81.95 48.033c0 .059.098-.055.098-.055.018-.065-.098-.003-.098.055zm-.998-.077c-.017.022.098.094.098.094.003-.077-.082-.116-.098-.094z"/><path d="M80.954 48.005c-.029.089.096.995.096.995s-.067-1.083-.096-.995z"/><path d="M80.966 47.951c-.064.012.084.099.084.099s-.02-.111-.084-.099z"/><path d="M80.985 48.05s.132-.1.02-.1c-.111 0-.02.1-.02.1zM83.398 46c-.435-.01-.459.392-.33.589.13.196.495.196.495.196l.07.215.024-.28s.318.13.341-.084c.023-.216-.164-.627-.6-.636zm1.589 0c-.039-.022-.057.468-.004.869.054.4.067-.245.067-.245s-.025-.601-.063-.623zm-.967-1.016c-.189.101.98.056.98.056s-.79-.157-.98-.056zM83 45.05s-.763-.156-.975-.078c-.212.078.975.078.975.078z"/><path d="M83 44.958s-.718-.04-.967.06c-.247.099.967-.06.967-.06zm.95-.908c.043-.039.078-.073.1-.1l-.1.1zM84 43c-.623.336-1.977.91-1.977.91-.23.38 1.356-.541 1.977-.91zm-1.102-.004c.04-.06.24-.54-.06-.82-.299-.28-.818-.26-.838.32-.02.58.898.5.898.5z"/><path d="M82.012 43.042c-.142.042.988-.092.988-.092s-.845.05-.988.092z"/><path d="M82.033 43.045c.053-.07-.032-.141-.074-.056-.042.085.074.056.074.056zm2.822-1.02c-.11-.098.028-.179-.055-.243-.082-.065-.055-.13-.034-.194.02-.065-.034-.227-.13-.243-.097-.016-.056 0-.084-.13-.027-.129-.062-.21-.13-.065-.07.146 0 0-.097-.129-.096-.13-.241.373-.234.599.007.226 0 .161-.062.259-.062.097-.02.097.09.242.11.146.11.146.075.324-.034.178.014.437.062.356.048-.08.048-.275.11-.324.062-.048.076.454.062.518-.013.065.166-.566.166-.566l.165.324.007-.599.234.243s-.034-.275-.145-.372zm.178.025c.038-.021.01-.133-.062-.09-.071.042.062.09.062.09zm2.945 1.97c-.083.175.046.98.046.98.042-.104.038-1.155-.046-.98zM83 40s-.678.253-.959.855c-.28.6.959-.855.959-.855zm0 1s-.743.26-.971.856C81.8 42.452 83 41 83 41zm.05 0c-.087 0-.127.288-.08.864.047.576.08-.864.08-.864z"/><path d="M82.04 41.05s.044-.141-.056-.088c-.101.053.056.088.056.088zm.957-1.09c-.112-.047.011.09.011.09s.101-.043-.01-.09zm-1.947.99s-.048-.013-.091.074c-.044.087.091-.073.091-.073zm-2.014.05c-.057.032-.086 1-.086 1s.144-1.03.086-1zm.952-.048c-.106-.017.043.098.043.098s.064-.081-.043-.098zm-2.993-.002c-.112-.007.02.1.02.1s.091-.092-.02-.1z"/><path d="M76.733 41.05c.546.004.193-.141-.513-.088-.706.053.513.088.513.088z"/><path d="M77 41.05s-.412-.15-.897-.082c-.485.068.897.082.897.082zm.05 0s0-.091-.078-.1c-.078-.008.078.1.078.1zm-2.373-.014c-.162-.177-.065.354-.065.354s-.484-.071-.603-.071c-.118 0 .937.672.937.672.172.107-.108-.778-.27-.955zm-1.544.002c-.445-.21.34.5.7.817L74 42s-.3-.695-.867-.962zm-6.18-1.043a.54.54 0 00.097.012c-.073-.012-.11-.017-.097-.012zm3.068-2.945c-.016-.057-.042-.1-.042-.1s.009.043.042.1zm6.023 1.932l.006-.032-.1.1a.45.45 0 01.094-.068zm-3.08 7.038c-.055.195.068.975.068.975.05.097-.012-1.17-.068-.975zm.107-.748c-.359.765.758.728.758.728.559-.448-.399-1.493-.758-.728zm-.026-.222s.032-.127-.064-.095c-.097.032.064.095.064.095zm-1.081-.034c-.058-.164.086.984.086.984s-.028-.82-.086-.984zm-.956 1.01c.117.071.991-.037.991-.037.04-.072-1.107-.035-.99.037zm-.043 1.012c.06.05.085-.071.085-.071 0-.05-.146.022-.085.071z"/><path d="M70.986 45.952c-.092.016.021.098.021.098.052.008.07-.115-.021-.098z"/><path d="M70.95 46.05s.156-.07.078-.096c-.078-.026-.078.096-.078.096zm1.07.951c-.187.089.975.03.975.03.076-.08-.787-.119-.975-.03z"/><path d="M72.996 47.05s.118-.126.005-.095c-.112.03-.005.095-.005.095zm-.046 1c.015.007.145-.072.084-.097-.061-.025-.084.097-.084.097zm5.246-7.48c.189.08.016.119.032.326.015.208.203.06.454-.06.251-.118.141-.295.251-.384.11-.09.078-.11-.047-.178-.125-.07 0-.247 0-.247-.016-.05-.204-.04-.376.108-.173.149-.22-.079-.408.05-.188.128-.093.306.094.385zm4.854 1.416l-.011-.036-.089.1zm-1.022-.035c-.078-.015-.078.099-.078.099s.156-.083.078-.099zm-1.034-.998c-.111-.023.024.097.024.097s.086-.074-.024-.097zm-13.03 4.017c-.058.08.086.08.086.08.004.012-.03-.158-.086-.08zM67 44.045s-.454-.16-.907-.064c-.454.096.907.064.907.064zm.05-2.091s-.058-.027-.094.067.094-.067.094-.067zm-1.505 2.021c.401.162.455-.517.455-.517s-.214-.614-.749-.42c-.536.194-.108.776.294.937zm1.041-3.075c-.043.17.108.085.249.021.14-.063.151-.318.151-.318s.055-.296-.054-.339c-.108-.042-.173-.127-.302-.212-.13-.085-.466-.063-.607.043-.14.106.39.127.574.148.184.021.163.127.184.233.022.106-.152.255-.195.424zm1.399-1.896c-.09.08.02.995.02.995.057.04.07-1.075-.02-.995zm-1.032.009c.025.07.121.035.091-.063 0 0-.115-.007-.09.063zm.295-.225c.13.12.116.301.145.16.029-.14.087-.22.188-.48.1-.26.376-.38.419-.42 0 0-.26.06-.39.12s-.145-.261-.304-.14c-.159.12-.217.3-.289.58-.072.28.101.06.231.18zm1.791.262s.047-.136-.054-.09c-.102.045.054.09.054.09z"/><path d="M67.996 38.95c-.112-.009.014.1.014.1s.098-.09-.014-.1z"/><path d="M67.974 38.953c-.083.022.076.097.076.097s.007-.12-.076-.097z"/><path d="M68.05 39.04s-.007-.157-.08-.057c-.074.101.08.058.08.058zm-.003-.99s.025-.087-.068-.099c-.093-.012.068.099.068.099zm1.003 0s0-.108-.078-.1c-.078.009.078.1.078.1z"/><path d="M67.98 36.004c-.059.101-.014 1.996-.014 1.996.141-.403.074-2.097.015-1.996zm1.06.046c.03-.04-.007-.12-.072-.096-.066.024.071.096.071.096zm1.01 0s-.026-.147-.086-.084c-.06.063.086.084.086.084z"/><path d="M70.004 36.01c-.078.1.973-.018.973-.018.194-.037-.896-.08-.973.018z"/><path d="M70.169 35.865c.115.29 0 0 .071-.046.072-.045.087-.06.158.092.072.152.058.076.1.015.044-.061.044-.107.101-.152.058-.046.072.045.288-.107.215-.153.057-.23.057-.23-.029-.35-.215-.503-.445-.41-.23.09-.086.06-.216.167-.129.107-.1.137-.23.381-.128.244.001 0 .116.29zm.799 2.098c.068-.357.082-1.963.082-1.963s-.15 2.32-.082 1.963zM73.05 36s-.136.31-.09.87c.045.56.09-.87.09-.87zM73 38s-.757.405-.974.895C71.81 39.385 73 38 73 38z"/><path d="M73.028 36.952c-.078-.018-.078.098-.078.098s.156-.08.078-.098zM59.99 63.951a.3.3 0 00.011.076c.016.05.013.01-.012-.076zm-3.943-3.957a.263.263 0 00-.094.012s.035-.003.094-.012zm.003-5.011c-.045.003-.078.012-.094.026-.022.019.018.005.094-.026zm13-6.933c-.032-.046-.1-.1-.1-.1s.034.055.1.1z"/><path d="M74.67 62.862c.084-.11.183-.428.208-.486.025-.059.323.109.323.109s.05-.218-.041-.294c-.091-.075-.357-.31-.332-.402.025-.092.456.16.456.16s-.249-.21-.381-.36c-.133-.152.05-.411.107-.487.058-.075.2.151.191-.042-.008-.192.158-.159.265-.285.108-.125.357-.033.423-.125s.025-.168-.041-.277c-.067-.109-.05-.31-.034-.435.017-.126.075-.294-.05-.327-.124-.034-.148-.16-.107-.193.041-.033.19-.042.075-.075-.116-.034-.183-.11-.208-.243-.024-.134.158-.29.271-.175.113.114.256.076.248.03-.007-.045-.143-.38-.225-.47-.083-.092-.406-.457-.58-.564-.172-.106-.12-.288-.075-.463.046-.175.43-.472.482-.495.053-.023.278 0 .414.069.135.068.255.015.27-.046.015-.06-.052-.296-.18-.342a1.622 1.622 0 01-.466-.289c-.12-.114-.158-.525-.18-.76-.011-.11.128-.244.279-.355 0 .01.017.006.063-.018.205-.108.531-.31.719-.366a.12.12 0 00.021-.007c.184-.045.199-.075.159-.151-.04-.077-.089-.124.04-.112.078.007.18.007.249.007.005.033.002.07-.024.087-.057.039-.163.087-.163.087s.144.01.163.078c.02.068-.029.097-.115.097-.087 0-.125.166-.125.166s.182-.088.25-.059c.067.03.038.146-.01.243l-.048.098s.154-.04.25-.049c.096-.01.183.243.192.302 0 0 .068-.243.212-.205.144.04.289.292.289.292s-.154-.486-.087-.506c.068-.02.183-.048.183-.048s-.183-.302-.058-.33l-.125-.186s.02-.048.02-.107c0-.058-.03.127-.087.01-.058-.117-.096-.185-.144-.204-.048-.02-.077-.068-.106-.107-.029-.04-.029.078-.116.048-.086-.029-.01 0-.086-.029-.077-.03-.116.039-.154.107a.423.423 0 01-.089.1c-.096-.006-.224-.011-.27.007-.075.03-.022-.076-.139.03-.116.106-.074.065-.06.141.014.077-.708.3-.708.3-.27.03-.601.289-.73.296-.123.008-.448-.38-.573-.504.116-.039.281-.08.36-.035.128.074.12.213.12.213s.119-.222.247-.176c.128.046.275.25.275.25s-.202-.287-.129-.398c.074-.112.156-.093.193-.102.037-.01-.266-.25.082-.287 0 0-.33-.214-.192-.241l.137-.028s-.275-.176-.156-.195c.12-.018.358-.037.358-.037s-.165-.065-.294-.093c-.128-.027-.183-.222-.32-.231 0 0 .174-.149.284-.167l.11-.018s-.184-.065-.156-.149c.027-.083.146-.12.146-.12l-.055-.084.12-.064s-.092 0-.147-.065c-.055-.065-.055-.047.018-.112.073-.064-.064-.009-.174-.074-.11-.064-.266-.13-.21-.194.054-.065.09-.195.09-.195s-.137.14-.219.12a1.63 1.63 0 01-.183-.055l.256-.463s-.311.482-.357.473c-.046-.01-.147-.186-.184-.26-.036-.074 0 .13-.027.176-.028.046-.284.102-.376.084-.092-.019.12.027.064.12-.055.093-.146.139-.146.139s-.165.065-.193.065c-.027 0 .129.12.156.176.012.024.01.097.019.179l-.313.026c-.112.007-.015-.228.038-.373s.338-.22.338-.22-.127-.008-.09-.046c.038-.038.309-.768.309-.768s-.301.563-.316.608c-.015.046-.083.122-.188.061-.106-.06-.053-.145-.09-.213-.038-.068 0-.152.082-.175.083-.023.33-.182.33-.182s-.074-.015-.135-.023c-.06-.008-.03-.076.046-.152.075-.076.112-.289.112-.289l-.067-.068c-.068-.069.112-.251.052-.229-.06.023-.097-.022-.188-.121-.09-.1-.045-.259-.045-.259-.098.076-.316.038-.36.053-.046.016-.129-.288-.121-.25.007.037-.218.25-.309.327-.09.076-.127-.061-.218-.054-.09.008-.308.472-.308.472l-.113-.122c-.113-.122-.195-.107-.308-.16-.113-.053-.188-.243-.18-.365.007-.122.135-.236.097-.243a1.377 1.377 0 00-.256-.008c-.06.008-.082-.16-.045-.266.038-.106.083-.228.045-.289-.037-.06-.293-.32-.42-.494-.128-.175.172-.502.172-.502s-.286.122-.481.243c-.164.102-.206.034-.282-.022.007-.15.022-.29.053-.31.07-.047.224-.183.124-.206-.114-.026-.31.059-.234.218.03.062.044.176.05.293a.273.273 0 00-.042-.026c-.113-.053-.18-.205-.294-.327-.112-.121-.21-.273-.376-.395-.165-.122-.248-.228-.338-.297-.08-.06.346-.44.113-.6-.153-.105-.283-.037-.388.091-.052-.18.024-.451.034-.473 0 0-.082-.004-.222.28a.495.495 0 00-.03.32c-.098.22-.244.398-.44.375a.539.539 0 01-.294-.14c.044.085.052.16-.052.17-.248.023-.346.008-.346.008-.12-.563-.27-.593-.474-.593-.203 0-.225-.137-.21-.213.015-.076.045.258.218-.403.143-.547.11-.86.096-.952h.055c.176-.01.155-.01.27.104.113.115.175.084.455.084s.714.021.714.021.03.167.03.293c0 .125.084.199.208.073.124-.125.103-.324.103-.324s.093-.126.342-.147c.248-.02.217-.01.383-.261.165-.251.476-.314.527-.429.052-.115.104-.042.135.146.031.189.052.084.083-.042.03-.125.02-.292.103-.46.083-.167.3-.303.445-.356.145-.052.062-.23.145-.418.083-.188.31-.356.393-.534.083-.178.186-.188.197-.063.01.126 0 .241.083.252.082.01.01-.178.082-.042.073.136.27-.032.3-.251.032-.22-.186-.377-.31-.398-.124-.02-.072-.157.052-.188.124-.032.548.23.548.23s.052-.049-.038-.16c-.09-.112-.269-.161-.455-.259-.186-.097-.145-.37-.034-.244.11.126.234.175.324.112.09-.063-.055-.349-.241-.377-.187-.028-.11-.188-.056-.181.056.007.138-.028.173-.146.034-.119-.028-.217-.131-.091-.104.125-.118.133-.173-.119-.055-.25-.055-.711-.034-.934.02-.223.524-.35.731-.398.207-.049.138.077.373.119.234.042.082-.049.276-.147.193-.097.09-.063.29-.09.2-.028.379-.028.53-.028.152 0 .014-.049-.165-.056-.18-.007-.317-.021-.476-.007-.159.014-.166.153-.38.104-.214-.048-.234-.083-.4-.097-.165-.014-.117-.07-.193-.182-.076-.111-.076-.153-.255-.265-.18-.111-.18-.355-.049-.48.132-.126.456-.287.711-.37.207-.068 1.045-.52 1.358-.69-.331.144-1.289.585-1.289.585l.07-.119s-.905.356-1.125.37c-.221.014-.214-.32-.138-.481.075-.16.206-.154.33-.23.125-.077.415-.287.415-.287s-.421.21-.497.252c-.076.041-.173.167-.242.034-.068-.132-.151.272-.172.39-.02.12-.29.008-.31-.11-.021-.12.13-.329.269-.524.138-.195.69-.78.69-.78l-.29.243c-.29.244-.724.837-.821.837-.097 0-.586-.593-.655-.76-.07-.167-.076-.126-.152-.063s-.186.084-.331-.098c-.145-.18-.228-.055-.318-.244-.09-.188.028-.307 0-.53-.027-.223-.138-.09-.345.021-.207.112-.241-.174-.241-.32 0-.147-.083-.133-.186-.015-.104.12.027.468-.104.677-.13.21.07.363-.096.502-.117.098-.162-.133-.178-.277.006.108.006.264-.043.29-.076.043-.09-.285-.09-.285s-.158.251-.227.265c-.07.014-.097-.495-.118-.51-.02-.013.035.489-.027.545-.063.056-.138.077-.2.328-.063.25-.194.44-.276.453-.083.014-.055-.16-.18-.37-.124-.209-.103-.425-.186-.397-.083.028.035.509-.007.858-.041.349-.214.32-.33.272-.118-.049-.208.056-.297.056-.09 0-.373-.035-.477-.042-.103-.007.131.077.27.098.138.02.144.083.103.286-.042.202-.228.02-.27.07-.04.048.2.3.263.453.062.153-.145.125-.145.125s.145.14.083.181c-.062.042-.524-.132-.773-.216-.132-.045-.68-.143-1.165-.224l.734-.644-.016-.03-.731.671c-.42-.07-.788-.129-.788-.129l.748.166-.31.284.321-.282c.683.152 1.58.351 1.593.355.018.006-.297.002-.39-.004.101.015.48.086.597.192.138.126.09.175.042.28-.048.104-.09.23-.145.278-.055.049-.055-.063-.138-.07-.083-.006-.028.133-.028.133l-.441.028s-.076.056.11.07c.186.014.255-.014.345.056.09.07-.11.244-.317.286-.207.041-.29.083-.532.097-.24.014-.269.09-.269.09s.16.015.31-.013c.152-.028.173-.042.228-.028.056.014.11.195 0 .307-.11.111-.165.3-.165.3l.145-.189s.027.05.027.168c0 .118-.338.446-.427.523-.09.077-.118.056-.173.007-.055-.049-.055.098-.062.119-.007.02-.248.258-.255.278-.007.021.283-.18.455-.278.173-.098.283-.182.386-.182.104 0 .021.223-.22.35-.242.125-.483.11-.559.264-.076.154-.048.321.138.39.186.07.18-.097.173-.23-.007-.132.11-.125.234-.125.124 0 .152-.112.283-.202.131-.09.2-.021.303.146.104.168.097.328.042.398s-.103-.035-.18-.098c-.075-.063-.068 0-.089.077-.02.077-.166.007-.166.007a3 3 0 00.07.118c.034.063-.256-.02-.256-.02s.18.07.193.132c.014.063-.2.063-.33.154-.132.09-.635.502-.732.641-.097.14-.083.188 0 .188s.483-.488.614-.62a.631.631 0 01.386-.21c.16-.027.138 0 .138 0s.014.035.104.098-.035.049-.007.133c.027.084.096-.035.13.056.035.09-.33.543-.434.67-.103.125-.048.285.09.076.138-.21.303-.349.407-.495.103-.147.048.055.076.18.027.126.083.067.103-.058.02-.126-.02-.304.062-.314.083-.01.114.251.228.502s.196.345.228.45c.03.104-.238.052-.31.094-.073.042-.125-.021-.208-.094-.083-.073-.03.23.156.272.186.042.144-.073.238-.073.093 0 .03.083-.031.198-.063.115.01.178.155 0s.155-.104.238-.063c.083.042-.073.126-.156.22-.082.094-.03.283.166.303.197.021.052-.292.145-.387.093-.094.134.157.165.252.028.082.175.157.33.167-.036.268-.321 1.133-.419 1.202-.101.072-.005-.062-.116-.077-.112-.016-.127.128-.239.215-.072.057-.082.092-.153.11a.901.901 0 00.165-.33c.093-.36.093-.576.093-.576s-.157.559-.169.582c-.011.024-.022-.076-.139-.424-.117-.348-.308-1.185-.308-1.185s.121 1.197.243 1.438c.106.21.116.37.041.505a1.521 1.521 0 01-.107.003c-.258 0-.73-.492-.73-.492s.33.374.37.415c.04.041-.096.118-.096.118s-.486.01-.669-.015c-.182-.026-.146-.215-.298-.385-.152-.169-.092-.2-.087-.282.005-.081-.212-.394-.299-.353-.086.041-.157.164-.238.21-.08.046.01.282.005.471-.004.19-.167.364-.304.385-.136.02-.283-.22-.46-.385-.178-.163-.249-.184-.28-.107-.03.077-.021.455-.084.624-.062.169-.291.239-.507.323a.445.445 0 01-.451-.077c-.07-.056-.049-.014-.459-.05-.41-.034-.389-.14-.507-.217-.118-.077-.326.091-.396.133-.07.042-.354-.133-.451-.168-.097-.035-.43.077-.417.12.014.041.139.189.07.245-.07.056-.236-.105-.334-.105-.097 0-.125.203-.118.28.007.078.32.302.396.359.076.056.535.4.466.526-.07.126-.598.562-.785.688-.188.127-.132-.604-.132-.667 0-.063-.153-.484-.153-.484s.056.456.056.52c0 .063.07.898-.056.92-.125.02-.18-.183-.27-.31-.091-.126.013-.224.013-.224l-.187-.253s-.119.035-.105.063c.014.028.146.197.216.407.07.211-.056.352-.049.38.007.028.146.049.174.105.027.056-.097.239-.23.26-.131.02-.187-.14-.312-.155-.125-.014-.361.12-.458.148-.098.028-.098-.127-.223-.204-.125-.077-.347.028-.326.021.02-.007.257.134.215.225-.041.091-.291-.134-.291-.134s.125.197.187.204c.063.007.243.105.243.218 0 .112-.283.15-.35.267-.067.117.129.139.133.247.005.108-.284.278-.284.278s.093-.14.067-.198c-.027-.058-.409-.053-.462-.058-.053-.004-.016-.08-.025-.105-.008-.026-.008-.227-.058-.285-.05-.059-.364-.168-.455-.218-.091-.05-.175 0-.357.042-.182.041-.157.025-.34-.009-.182-.033-.422.193-.34.327.083.134.324.117.324.117s.09.118.19.151c.1.034.208.134.282.143.075.008.066-.076.091-.084.025-.008.174 0 .274-.042.1-.042.323-.008.348-.008.025 0 .406.067.331.125-.074.06-.165 0-.199.067-.033.067.125.235.067.302-.058.067-.53-.033-.548 0-.016.034-.24.47-.447.587-.207.117-.539-.009-.539-.009s.332.168.514.344c.182.176-.025.444-.157.561-.133.118-.498.017-.498.017-.025.1.224.235.207.369-.016.134-.14.436-.124.545.017.108 0 .444-.083.444-.063 0-.535.057-.728.078.176-.003.567.024.546.114-.025.11-.332.578-.39.654-.058.075-.033.964-.033.964-.041-.084-.373-.084-.373-.084-.315.125-.762.117-.762.117.331.143.58-.025.845-.025s.323.21.315.46c-.008.252-.34.63-.307.596.034-.034.274-.335.315-.318.031.012.093.176.12.315-.55.189-.571.23-.571.23-.316 0-.455.215-.458.234-.137.049-.628.147-.367.165.26.019.367-.092.367-.092s.36-.14.458-.22c.07-.058.401-.189.58-.257.004.025.005.049.004.069-.008.134.1.21.033.369a2.54 2.54 0 01-.464.678c-.207.21-.116.067-.224.067s-.44.47-.423.511c.017.042.2.143.365.16.166.017.456-.185.547-.201.091-.017.34.167.307.377-.034.21-.125.427-.257.544a.514.514 0 01-.255.124c.024 0 .064.013.097.086.05.109.249.184.315.142.066-.042.132.134.066.227-.066.092-.19.134-.174.159.017.025.15.109.224.109.075 0 .008.318.025.419.016.1.083.26.083.36 0 .1-.108.201-.108.335s.315.226.298.276c-.016.05-.24.269-.24.269l.157.134s.092-.11.2-.176c.107-.067.157.025.165.15.008.126-.066.227.083.36.15.135.514.018.53.219.017.2-.132.603-.182.645-.05.042-.016.46-.016.46.34.101.58-.552.58-.552.016.184.199.092.232.008.033-.084-.166-.318-.042-.377.125-.059.34.142.34.142-.05.512.305.634.305.634s-.007-.105.083-.133c.09-.027.193.342.193.342s-.034-.293.103-.293c.105 0 .162.152.177.208-.006-.08.023-.382.023-.382l.18.125-.11-.209.117-.028s-.138-.063-.166-.083c-.028-.021.068-.063.068-.063s-.093-.072-.144-.207c-.052-.134.216 0 .216 0s.097.159.34.202c.241.043.512-.202.512-.202s.108.142.067.259c-.042.117.083.436.074.318-.008-.117.2-.419.266-.46.066-.042.132.2.149.326.016.126-.116-.008-.232 0-.116.009.033.218.066.268.033.05.05.21.058.344.008.134.066.15.066.327 0 .176.067.327.166.377.1.05.19-.117.232-.302.042-.184.058-.226.174-.352.116-.125.207-.117.224-.159.017-.042-.083-.335-.058-.369.025-.033.77.721.754.687-.017-.033-.621-.687-.638-.754-.017-.067-.017-.192-.041-.318-.025-.126-.25-.344-.266-.436-.016-.092.116-.21.141-.21.025 0 0 .126.008.193.009.067.224.16.307.143.083-.017.356-.277.44-.377.082-.1.057-.302.09-.327.034-.025.166.143.166.143l.141-.034s-.083-.176-.033-.276c.05-.101.14.217.14.217s.017-.058.084-.117c.066-.059-.017.1-.017.1s.166.017.331.017c.055 0 .124.037.191.082a.156.156 0 01-.109.038c-.09-.01-.235-.01-.235-.01s.036.092-.018.11c-.054.019-.09.083-.136.138-.045.054-.081.036-.135.054-.054.019-.01.1-.018.165-.01.064-.172.064-.28.045-.109-.018.126.083.126.138 0 .054-.18.21-.208.283-.027.073.054-.028.154-.073 0 0 .036.164-.036.283-.072.119-.118.256-.118.256s.217-.292.253-.21c.037.082.136.393.326.393s.253.073.307.119c.054.045.063-.073.09-.1.028-.028.19-.293.236-.284.045.009.433.365.433.365s-.253-.292-.198-.356a5.09 5.09 0 01.253-.247s.108-.036.108.11.109.2.109.2-.072-.237.018-.273c.09-.037.253-.055.325-.092 0 0 .118.247.109.32-.01.073-.217.265-.217.265s.298-.2.325-.22c.027-.017.082.184.28.184.184 0 .367-.14.401-.183-.027.055-.131.314.078.338.245.027.362-.192.362-.31 0-.12-.217-.21-.217-.21s.063-.184.09-.184h.217s-.009.677-.018.759c-.009.082.172-.32.253-.21.082.11.027.283.027.283s.181-.2.217-.119c.036.083-.036.33-.036.33s.1-.275.217-.275c.118 0 .199-.073.226-.082.027-.01.145.301.136.347a.844.844 0 01-.095.18c.086-.09.212-.2.24-.162.044.064.072.146.099.146.027 0 .1-.11.1-.11l.026.183.082-.164s.126.192.153.173c.027-.018 0-.191.064-.228.063-.037.253-.018.298.018.045.037-.045-.073.009-.183a.44.44 0 01.208-.2c.081-.046.009-.129-.027-.183-.037-.055-.055-.21-.01-.22a.597.597 0 00.091-.027s-.136-.018-.18-.073c-.046-.055-.1-.31-.1-.31s-.01.045-.18.054c-.173.01-.227-.164-.227-.164s-.009.063-.145.082c-.135.018-.262.009-.28.055-.018.045-.054.246-.126.246-.073 0-.163-.009-.163-.009s-.09-.21-.081-.329c.009-.118-.046-.073-.073-.045-.027.027-.135-.018-.135-.046 0-.027-.09-.055-.09-.055s.026.064-.046.064a.246.246 0 01-.163-.064c-.027-.027-.045.028-.126.11-.082.082-.199.155-.199.155s-.081-.082-.09-.137c-.01-.054-.054-.182.054-.228 0 0-.19-.128-.19-.165 0-.036-.108-.228-.108-.228s-.018.055-.181.082c-.163.028-.147-.2-.147-.2s-.115.063-.178.109c-.064.046-.172.027-.181-.1-.01-.129-.063-.21-.063-.33 0-.118-.036-.063 0-.137.036-.073-.036-.155-.036-.155l-.154.21c-.027.037.163.055.19.201.027.146-.2.174-.308.201-.108.027-.068-.275-.068-.275s-.058.32-.13.33c-.073.01-.154-.082-.181-.082-.027 0-.208.027-.28.036-.073.01.063-.238.063-.238s-.073.12-.235.156a.364.364 0 01-.169-.007 1.69 1.69 0 01-.038-.28c0-.117.132.043.132.043s-.016-.101-.008-.302c.008-.201.05-.092.174-.126.125-.034.166-.184.166-.184.075.033.083.377.108.536.024.16.232.168.397.117.166-.05.083-.326.092-.368.008-.042.273-.151.281-.235.009-.084-.14-.293-.14-.293s.04-.076.256-.118c.216-.041.191-.05.257-.083.067-.034.141.15.141.15s.017-.209.133-.217c.116-.009.116.175.157.083.042-.092.075-.017.191.025s.307.294.373.453c.066.16.207.126.315.26.108.134.14.243.14.243l.05-.151s.025.067.108.1c.083.034.29-.083.29-.083.025.067-.215.31-.215.31h.09l.025.243s.15.1.224.092c.075-.008.158-.008.207.05.05.059.15.084.141-.008-.008-.092-.066-.419-.008-.41.058.008.158.075.265-.009.108-.084.407.067.407.067s-.174-.16-.158-.168c.017-.008.216-.142.323-.159.108-.017.365.109.365.109s-.05-.05-.05-.134.224-.126.282-.1c.058.025.282.1.323.058a.246.246 0 01.232-.059c.108.026.092.193.092.193s.024-.067.124-.1c.1-.034.58.134.796.209.215.075.05.52-.017.603-.066.084-.29.712-.464.905-.174.193-.373.352-.398.612-.025.26.216.226.331.176.116-.05.299-.536.324-.62.025-.084.472-.796.63-.989.157-.192.737-.234.895-.176.157.06.588.252.588.252.017.218.299.52.315.494.017-.025.207-.025.299.017.09.042.107.478.107.478s.009-.176.059-.26c.05-.084.248.125.38.142.134.017.54-.536.63-.578.092-.042.25.16.432.327s.348.302.381.126c.033-.176-.05-.562-.075-.68-.023-.118.209-.177.292-.285zm1.3-7.879l.052.016s-.086.074-.155.14c-.172.06-.357.113-.357.113s-.06.129-.068-.03c-.004-.076.255-.166.528-.239zm-7.957-16.989c.006.029.077.11.054.144-.023.034-.048.111-.106.07-.059-.042-.13-.225-.127-.533 0 0 .172.29.179.32zm1.562 9.82c-.045.046-.324-.03-.301-.053a2.481 2.481 0 00.078-.316l.031.074c-.058.204.234.253.192.295zm5.177 6.74c-.011.039-.115.116-.198.172-.07-.08-.05-.287-.031-.406l.045.03c.092.065.202.14.184.204zm-.875-1.295c.032-.214.15-.308.217-.344.012.101.042.214.135.268.174.102.404.111.44.195.037.083 0 .213-.082.166a.284.284 0 01-.087-.07c.015.03.027.088-.042.145-.06.049-.344.062-.517.074a.673.673 0 01-.064-.434zm.084.465c.13-.01.335-.028.387.024.046.047.031.1.01.15l-.15-.023a.358.358 0 01-.247-.15zm.232.66c-.049-.042.012-.134.096-.224-.003.052.003.093.032.089.047-.007.11.016.175.055-.124.19-.201.17-.303.08zm-7.238 10.664a.412.412 0 00.095-.098c-.069.06-.117.11-.095.098z"/><path d="M66.996 62.95s.006.043-.002.1c.026-.055.002-.1.002-.1z"/><path d="M66.79 63.328c-.257.03-.852.468-.785.612.068.143.21.014.497-.204.287-.219.272-.233.393-.248.08-.01.1-.297.105-.488-.011.137-.057.31-.21.328zm1.051 2.855a1.008 1.008 0 00-.446-.183c-.331.04-.373.367-.394.57-.02.204.187.408.394.428.208.02.519-.163.56-.264.042-.102.114-.387-.114-.55zm2.491.847s-.332.243-.332.404c0 .162.246.554.46.565a.485.485 0 00.471-.265c.075-.162.107-.392 0-.507-.107-.116-.385-.3-.6-.196zm.718 1.92c-.059.056-.1.1-.1.1s.049-.034.1-.1zm.9 0c-.005.036.016.07.068.092.067.03.021-.028-.067-.092zm.038-.913l.005-.007c.041-.103.001-.076-.005.007z"/><path d="M71.902 68.055c-.033 0-.055-.096-.143-.192-.087-.096 0-.246 0-.246s-.065-.014-.262-.069c-.12-.033-.135-.101-.133-.135-.025.065-.208-.015-.251.012-.044.027-.131.123-.23.15-.099.028-.033-.136-.088-.136-.054 0-.131-.096-.11-.178.023-.083.063-1.261.063-1.261-.045.396-.126 1.032-.137 1.125-.02-.04-.19-.164-.276-.152-.098.014-.088-.096-.088-.096s-.098.055-.175.206c-.076.15-.087.15-.055.301.033.15.066.068.055.219-.01.15.055.466.066.41.01-.054.066-.177.131-.122.066.054.077.314.077.314s.077-.15.077-.04c0 .109.164.396.164.396s-.011-.205-.011-.314c0-.11.164-.028.263-.028.098 0 .01.137.065.315a.218.218 0 01-.059.226.802.802 0 01.19-.116c.089-.028.165.315.165.315l.088-.082c.048-.045.121.044.168.123a.18.18 0 01.139-.165c.131-.027.263.206.186.082-.077-.123.044-.246.055-.342.01-.096.164-.082.164-.082l-.131-.274s.066-.164.033-.164zm4.148-2.005a.583.583 0 00-.1-.1s.053.084.1.1z"/><path d="M75.998 66.017c-.02-.186-.227-.661-.33-.729-.102-.067-.195-.288-.195-.288s-.195.051-.267.288c-.072.238-.206.271-.206.271s.124.136.124.39c0 .113-.04.136-.086.126a.43.43 0 01.158.213c.051.186-.052.526-.052.526s.093-.068.257-.136c.165-.068.103.152.124.203.02.051.103.085.123.017.02-.067.103.102.103.102s.052-.017.093-.085c.04-.067.174-.712.154-.898zm5.759-2.646c.13-.075.194-.05.194-.05s-.065-.063-.08-.176c-.017-.113-.017-.29.08-.29s-.274-.15-.194-.289l.081-.138s-.178.025-.355-.113c-.178-.138-.356-.302-.517-.314-.162-.013-.372.138-.372.138s-.242.025-.258-.1c-.016-.126 0 .226.08.238.081.013.033.428.065.466.033.037-.339-.063-.452-.114-.113-.05.113.19.485.151 0 0 .129.352.032.428a.463.463 0 01-.21.088s.356.088.55.05c0 0 .145.403.242.39.097-.012.08-.29.323-.189.242.101.549.453.549.453s-.372-.553-.243-.629zm-6.794 8.241s-.173-.351-.332-.484c-.158-.134-.388-.17-.489-.073-.1.097-.23.303-.057.533.172.23.273.242.46.29.187.05.216.122.216.122s.043-.17.173-.242c.13-.073.029-.146.029-.146zm1.889-5.339c-.144-.075-.605-.273-.605-.273s-.087.371-.202.47c-.116.1 0 .273.26.422.259.148.518.123.634.05.115-.075.057-.596-.087-.67zm1.726-5.263a.71.71 0 00-.254.003c-.224.044-.36.233-.315.42a.952.952 0 00.045.15c.042.087.314.417.503.417.19 0 .42-.243.44-.434.022-.191-.104-.504-.419-.556zm.152-1.49c-.254-.135-.174-.561-.285-.517-.111.045-.477.18-.604.382-.126.201-.222-.09-.222-.09s-.032.718-.08.763c-.047.045-.491.045-.539.045 0 0 .508.134.603.269.095.134 0 .628 0 .628s.238-.022.46-.224c.223-.202.477-.247.667-.45.19-.201.27-.83.27-.83s-.016.158-.27.023zM76.226 59l-.226.387s.623.613.924.613c.302 0-.377-.097-.698-1z"/><path d="M77.995 60.046c-.086-.01-.995-.096-.995-.096.114.106 1.08.106.995.096z"/><path d="M78 60c.237.754 1.064 1.113.996.969C78.93 60.826 78 60 78 60zm2.965.954c-.217-.18-1.017-1.07-.962-.941.326.76 1.18 1.122.962.941zm-1.042-3.207c.055.007.005-.163.027-.19.022-.027.05-.034.05-.034s-.083-.027-.083-.109c0-.081.017-.265-.027-.237 0 0 .055.156-.039.15-.094-.008-.11-.055-.17-.055-.062 0-.062.108-.15.04-.088-.067-.226-.196-.27-.23-.044-.034-.088.074-.11.047A.765.765 0 0079 57c-.016 0 .094.082.089.15-.006.067-.06.108-.077.142-.017.034.121.353.127.387.005.034-.067.136-.056.224.011.089.023-.183.11-.17.089.014.106.137.16.116.056-.02.061-.109.15-.102.088.007.137.041.132.082a23.52 23.52 0 00-.021.171c.003-.028.024-.158.098-.158.083 0 .144.055.144.055s.01-.157.066-.15zm-.92.234a1.373 1.373 0 00-.006.037l.006-.037zM79.02 56c.037-.146.037-.582.016-.874-.02-.29-.042-.036-.078.328s.062.546.062.546zm1.413-1.26c.089.158.355.278.47.258.115-.02.102-.278.089-.417a.832.832 0 00-.28-.496c-.165-.139-.153-.08-.318-.02s-.394.318-.394.318.089.1.178.119c.09.02.165.08.255.238zm-4.398-.69a.486.486 0 00-.07-.1s.017.04.07.1zM65.883 68.207c-.053-.087-.093-.175-.093-.175s-.094.163-.148.15c-.053-.012-.16-.124-.214-.174-.053-.05-.094.162-.147.25-.054.087-.067.2-.147.237-.08.038-.134.163-.134.163s.08-.075.147.113c.067.187.067.1.067.187 0 .088.161.013.228 0a.737.737 0 01.174 0s-.013-.113.201-.175c.214-.062.187-.25.174-.337-.014-.089-.054-.151-.108-.239zm.094-.214c-.031.017-.038.047-.007.052.031.005.08.013.08-.02 0-.032-.045-.075-.045-.075s.003.027-.028.043zm.483-1.679a4.451 4.451 0 01-.456-.314v.157c-.042.314.25.804.25 1.098 0 .294.332.745.332.745l.055-.176c.055-.177.138-.02.263-.06.124-.038.11-.332.055-.587-.055-.255-.332-.765-.498-.863zm-2.199-.173c-.442.117-.19.76-.19.76s.537.176.79.059c.253-.117.095-.643.032-.848-.063-.205-.19-.088-.632.03zm-.574-1.14c-.2.016-.313.016-.512.317-.2.3-.27.585.014.648.284.064.455.032.526-.047.107-.12.299-.443.284-.633-.014-.19-.114-.3-.312-.285zm1.259-.984c-.226.115-.26.273-.486.374-.22.097-.357.411-.46.56l.216.015c.226.014.539.1.608-.072.07-.173-.139-.23-.174-.36-.034-.129.522-.632.296-.517zm-.958 2.005l.024-.042-.024-.002v.044zm4.774-.055c-.17-.028-.762-.012-.762-.012l.056.027s.283.056.424.064c.14.008.367.004.48-.024.112-.027-.029-.027-.198-.055zM52.236 49.712a.511.511 0 01.026.288c.064-.046.048-.189.114-.233.019.048.057.08.097.096.028.012.06.017.087 0 .026-.019.04-.066.023-.096a.54.54 0 00.178.147.878.878 0 00.075-.217c.052.028.11-.03.13-.097.02-.066.018-.14.034-.208a.45.45 0 01-.164-.036.39.39 0 00.056-.168c-.006.065-.118.084-.155.078-.06-.01-.135-.261-.192-.266-.054-.004-.062.23-.117.223-.08-.009-.173-.095-.245-.14a.167.167 0 00-.001.165c.025.041.072.08.057.128-.014.045-.065.04-.102.029-.037-.011-.091-.005-.095.043.044.03.095.043.145.036.018.09-.031.192-.103.213-.028.009-.06.007-.084.028.02.049.073.059.115.045.042-.013.079-.044.12-.058zm-.258-1.7l.046-.024c-.038.018-.056.027-.046.024z"/><path d="M50.651 47.827a8.24 8.24 0 01.262-.119c.257-.004.555-.004.613.02.124.05.005.24.12.208.114-.032.137.005.192.064.055.059.078.145.28.163.201.018.132.258.297.272.165.013.143.186.115.267-.028.082.064.163.087 0 .023-.163-.05-.204-.032-.267.018-.064.22.15.252.181.032.032.005-.24.11-.168.105.073.16.1.371.11.211.008.39.04.45.063.059.022.16.253.183.285.023.032-.074-.25-.032-.245.04.005.229.01.288.078.06.067.069.108.143.113.073.004.087.036.091.172.005.136-.027.19-.06.227-.031.036.12.063.129.181.01.118-.078.14-.064.281.013.14.11.186.17.204.059.018.072-.01.155.036.083.045-.078-.032.138 0 .215.032.192.041.123-.027-.068-.068-.128-.132-.087-.213.042-.082.032-.023.005-.132-.027-.108.005-.104.032-.136.028-.031.014-.104.073-.136.06-.031.06-.104.106-.158.045-.055.146.027.142.095-.005.068-.069.118-.11.081-.042-.036.018.114.05.214.032.1.11.1.165.136.055.036-.046-.082-.073-.204-.028-.123-.032-.132.09-.19.094.003.098.006.23.059.131.053.184.084.227.373.043.288.06.37.075.19.014-.18-.125-.503-.082-.591.043-.088.067-.01.128-.06.06-.05.089-.158.182-.162.092-.004.27-.032.224-.042-.047-.01-.14.007-.136-.06.004-.067.06-.06.128-.127s0-.088.129-.056c.128.032.65-.035.405-.032-.245.004-.07-.024-.1-.098a.223.223 0 00-.12-.123c-.029-.01.064.109.01.165-.053.056-.227.007-.266-.046-.04-.052-.008-.253.01-.302.018-.05.075-.208.064-.201-.01.007-.089.007-.117-.032a.198.198 0 00-.16-.074c-.075 0-.15-.133-.118-.186.032-.053.007-.246.047-.3.039-.052.092.1.15.194.056.095-.015-.105-.005-.154.011-.05.339-.085.168-.088-.171-.004-.207.13-.196-.018.01-.148.075-.14-.036-.24-.11-.098-.295-.418-.306-.527-.01-.11-.039-.204.054-.208.092-.003.388.064.487.155.1.091-.078-.229-.533-.25-.008-.3.142-.345.15-.26.006.084.084-.074.113-.106.028-.032.075.123.096.021.021-.102-.103-.116-.064-.162.04-.046.118-.126.007-.288-.11-.162.267.024.281-.099.015-.123-.167-.13-.28-.208a.351.351 0 01-.143-.337c.018-.12.334-.141.153-.226-.182-.084-.118-.126-.289-.2-.17-.074-.163-.166-.106-.292.056-.127.117-.13.124-.307.007-.176.335-.27.153-.411-.182-.141-.224.031-.228-.159-.003-.19.2-.253.189-.376-.01-.124-.096-.148-.21-.036-.114.113-.103-.084-.203-.06-.1.025-.399.092-.342.184.057.091.207.105.125.12-.082.013-.25.027-.32-.025-.072-.053-.218-.039-.186-.17.032-.13.079-.25-.035-.365-.114-.116-.153-.264-.2-.138-.046.127-.185.064-.167.008.018-.057.388-.465.37-.711-.256.376-.395.675-.462.644-.068-.032-.157-.226-.082-.331.074-.106.284-.2.153-.33-.132-.131.046-.194-.14-.244-.184-.05-.13.099-.081.145.05.045.06.154.021.246-.039.091.014.222-.046.303-.06.08-.139.063-.27-.004-.132-.067-.442-.151-.346-.26.096-.11.285-.183.174-.2-.11-.018-.245 0-.306-.089-.06-.088-.227-.162-.21-.218.018-.056.032-.222-.028-.095s-.028.176-.125.176c-.096 0 .057-.186-.024-.12-.082.067-.079.198-.164.127-.085-.07.135-.274.025-.172-.11.102-.096.137-.143.052-.046-.084-.174-.112-.17-.207.003-.095.064-.187-.011-.123-.075.063-.018.074-.189.066-.17-.007-.26.008-.323.011-.064.004-.16-.067-.036-.095.124-.028.253.05.15-.056-.104-.106-.246-.07-.324.02-.079.092-.175-.087-.164 0 .01.089.043.107-.007.145-.05.039-.246.127-.256.145-.011.017-.04-.067-.071-.004-.032.063-.16-.035-.182.004-.021.038-.132.06-.142.06-.011 0 .028-.23.028-.212 0 .018.128-.21.1-.185 0 0-.146.118-.179.245-.114.004-.348-.281-.307-.195.042.086.073.109-.005.127-.077.018-.16-.077-.21-.127-.05-.05.01.118 0 .177s-.34.018-.188.054c.151.036.096.186.064.2-.032.013-.165.027-.266.235-.179-.317-.678-.816-.536-.576.142.24.587.535.481.626-.105.09-.37.222-.554.44-.184.217-.115.349-.12.476-.004.127-.068.122-.068.312s.078.304-.12.2c-.197-.104-.343-.06-.284.059.06.118.303.412.308.593a.43.43 0 01-.124.318c-.023.018.174.027.151.068-.023.04-.091.095 0 .086.092-.01.078-.005.078.1 0 .104.083.13.055.253-.028.122-.385.268-.298.268.142-.005.261.05.294.14.032.09.064.213-.152.313-.215.1.207-.005.262 0 .055.005.197.204.146.301-.05.098.115-.006.238.139.124.145.335.321.156.448-.178.127-.311.29-.1.286.21-.005.407.027.513.122.105.095.298.204.353.227.055.023.046.109-.042.14-.087.032-.37.019-.518.046-.146.027.417.018.587.054.17.036.646.068.21.15-.435.081-.76.204-.42.145.338-.06.695-.118.6-.055a16.47 16.47 0 01-.406.246c-.108.017-.22.03-.319.035-.184.01.009 0 .267-.004a10.61 10.61 0 01-.2.117zm.742-.285c.072.008-.114.066-.356.113.155-.064.307-.12.356-.113z"/><path d="M50.05 41.05a.442.442 0 00-.1-.1.447.447 0 00.1.1zm-1.001-.02v-.008l.001-.024c0-.015-.005-.015-.014-.022-.007-.005-.012-.014-.02-.02-.01-.007-.021-.007-.033-.005-.008.002-.023.005-.03.013-.004.006-.006.014.004.015-.002.005-.004.01-.004.015.001 0 .003.003.005.003v.013c.003 0 .006.003.007.007 0 .004 0 .009.002.013.003.004.008.005.013.005.004 0 .01-.002.013 0 .008.003.012.014.02.015l.01-.003.02-.012a.012.012 0 00.006-.005zm-.077-1.014c-.062-.062-.149.075-.204.1-.083.036-.17-.019-.253-.024-.095-.006-.187.05-.281.078-.054.016-.11.023-.159.061a.218.218 0 00-.072.2c.012.06.05.1.09.118.04.018.082.02.123.032.007.002.015.005.018.014.003.01 0 .021-.004.03l-.107.303a.937.937 0 00.483.064.21.21 0 00.107-.038c.028-.02.051-.054.074-.086.053-.074.105-.15.158-.223.021-.032.044-.088.02-.116-.04-.048-.053-.03-.037-.121.01-.06.037-.107.052-.162.017-.062.038-.183-.008-.23z"/><path d="M49.978 41.021c.006.009 0 .02-.005.029.01 0 .02-.002.03-.005.024-.009.047-.03.047-.056 0-.03-.058-.047-.08-.035a.039.039 0 00-.02.034c.001.024.018.019.028.033zm-.021 1.986c.016.012.035.02.048.035l.005.005a.015.015 0 00.018 0 .036.036 0 00.013-.014c.01-.018.02-.087-.016-.083-.013.002-.024.021-.036.026-.01.004-.046.005-.038.024a.018.018 0 00.006.007zm.028-.347a.24.24 0 00-.011-.193.352.352 0 00-.07-.078l-.291-.266a.483.483 0 00-.168-.113c-.175-.057-.24.151-.344.248-.056.052-.112.122-.1.2.011.065.068.112.097.172.05.102.02.24.1.32.06.062.16.06.24.03.081-.031.151-.084.231-.116.021-.009.046-.015.065-.003.013.008.02.022.033.031.041.03.094-.017.123-.06a.72.72 0 00.095-.172z"/><path d="M49.14 42.964c.09.008.16.018.235.028.179.023.391.043.625.058a.421.421 0 00-.146-.036c-.058-.008-.13-.014-.201-.02-.139-.013-.28-.025-.435-.034-.033-.002-.182-.013-.21-.01-.042.006.109.013.131.014z"/><path d="M49.96 43.05c.013-.01.02-.02.022-.031.002-.01 0-.02.014-.025.006-.003.014-.004.021-.006.013-.002.025-.007.03-.014.006-.007.003-.016-.008-.02a.081.081 0 00-.046-.001c-.014.003-.028.008-.043.01l.005.005a.26.26 0 00.006.082zm.01-1.011c.003.003.005.006.01.009.016.006.038-.002.048-.011.027-.024.03-.053.007-.078a.021.021 0 00-.01-.006.053.053 0 00-.02-.003c-.02 0-.04.004-.055.01l.006.003a.105.105 0 00.015.076z"/><path d="M49.967 43.03c.02.01.04.017.061.02.006 0 .013 0 .017-.006.007-.01.005-.03.002-.044a.226.226 0 00-.018-.05l-.017.042v.016a.413.413 0 00-.062-.003c0 .014.01.021.017.025zm-.102 3.17a.685.685 0 00-.096-.076l-.1-.069c-.039-.027-.098-.066-.145-.052-.069.02-.052.082-.098.122-.09.08-.152-.052-.248.008-.064.04-.145.248-.166.326-.044.167.04.278.145.369.118.099.253.184.394.17.123-.011.234-.097.339-.18a.28.28 0 00.062-.062.277.277 0 00.038-.101.52.52 0 00-.125-.455z"/><path d="M49.752 46.977l-.042-.012c-.067.006-.141-.006-.211-.011a1.598 1.598 0 00-.108-.004c-.195-.001-.38.027-.39.059-.001.002-.001.005.007.008a6.856 6.856 0 00.627.033c.12 0 .256-.003.326-.018.05-.012.052-.028.007-.039a.918.918 0 00-.216-.016zm.265-2.009c-.02-.01-.042-.022-.064-.017l-.003.018a.18.18 0 01.032.063c.001.007.004.016.013.018.005 0 .01-.002.015-.004.02-.01.042-.023.04-.042-.001-.016-.018-.027-.033-.036zm2.578 3.079c-.131-.01-.345-.125-.448.046-.025.042-.039.098-.059.146-.02.049-.051.093-.088.09a.311.311 0 00.144.24c.069.045.144.075.196.156.021.033.037.072.058.105a.38.38 0 00.18.137c.041.02.085.039.128.031.08-.014.14-.113.19-.212.062-.123.12-.273.1-.426-.038-.292-.251-.303-.401-.313z"/><path d="M52.003 48a.44.44 0 00.056.265c.043.078.1.143.156.207.125.145.24.349.383.466.08.065.339.104.395-.013.02-.043-.006-.096-.031-.135a55.74 55.74 0 01-.163-.254.79.79 0 00-.138-.179c-.031-.026-.066-.047-.094-.078a.153.153 0 01-.042-.121 4.104 4.104 0 01-.522-.158zM53 49.993c.046.018.104 0 .141-.028.038-.026.065-.06.107-.083.083-.043.194-.03.295-.028a.999.999 0 00.365-.065l-.257-.038a.29.29 0 01-.131-.04c-.06-.046-.037-.119-.011-.178l.048-.11c.007-.017.016-.036.036-.046.018-.01.04-.011.063-.014.19-.022.345-.156.344-.298a.064.064 0 00-.009-.037c-.031-.046-.126-.027-.188-.001l-.18.021-.369.414a.117.117 0 00-.03.048c-.005.02.002.039.008.058.045.158-.05.333-.232.425zm1.014-.892c-.015.144-.024.298-.035.447-.006.091-.01.392-.029.452.04-.13.068-.306.078-.493a8.38 8.38 0 00.008-.226c.003-.061.015-.16.014-.217-.004-.124-.028-.044-.036.037zm.378 2.939l-.127.026c-.162.112-.213.297-.255.468-.007.031-.015.063-.006.095a.214.214 0 00.057.082l.102.109c.054.057.11.116.187.151.076.035.18.043.248-.003.057-.038.077-.103.12-.153.06-.071.16-.112.223-.18a.233.233 0 00-.036-.343c-.032-.024-.07-.044-.099-.07a.184.184 0 01-.05-.222c-.117.026-.24.04-.364.04zm2.52.26c-.056-.03-.135-.041-.21-.053a5.534 5.534 0 01-.334-.063.73.73 0 01-.2-.066c-.038-.021-.064-.05-.103-.07-.125-.07-.341-.055-.498-.01-.157.046-.288.117-.452.156-.035.008-.075.016-.096.033-.022.018-.02.04-.017.061a.22.22 0 00.057.125c.052.054.145.092.223.136.2.114.32.235.625.268.12.013.227.024.334.061.115.04.24.142.399.118a.259.259 0 00.163-.097.79.79 0 00.195-.42c.007-.064-.001-.135-.086-.18z"/><path d="M55.872 52.292a.428.428 0 01-.258-.155c-.076-.087-.123-.195-.215-.1-.153.159-.256.47-.334.731a1.28 1.28 0 00-.064.32c-.006.124.018.246.042.364.029.147.065.307.147.38.07.062.156.04.236.034.08-.006.173.02.215.134.105-.071.165-.26.194-.444.03-.184.038-.378.084-.553.02-.075.046-.146.061-.225.02-.102.02-.212.02-.32 0-.03 0-.063-.01-.09-.02-.065-.074-.07-.118-.076zM66 44.876a.255.255 0 01.164-.038 1.114 1.114 0 00-.008.216c.007.072.03.142.068.165.022.013.046.008.069.016.035.013.066.06.08.122a.222.222 0 010 .096.145.145 0 01-.03.053l-.114.141a.292.292 0 01.17-.025.42.42 0 01.022.19c-.006.066-.022.128-.037.188.065-.031.092-.176.143-.258.005-.007.01-.014.017-.014.006 0 .011.008.016.016l.057.093a.379.379 0 00.036-.101.184.184 0 00.104.024c.022-.001.049-.012.058-.052.006-.027 0-.059.003-.088a.138.138 0 01.065-.103l.117-.083a.468.468 0 01-.12-.025.027.027 0 01-.018-.014c-.009-.014-.007-.038-.008-.06a.298.298 0 00-.076-.182.353.353 0 01-.097-.267c.001-.089.02-.185.01-.275-.03-.256-.206-.136-.295-.22a.356.356 0 01-.058-.088L66.176 44l.146.437c-.094.055-.147.245-.237.317-.035.028-.081.052-.085.122zm3.743 2.025c.106-.012.15-.036.23-.29.078-.255-.027-.52-.124-.593-.097-.073-.185.098-.229.103-.044.006-.249-.141-.325 0-.067.125-.396.453-.264.43.132-.025.264.368.264.432 0 .063.343-.07.448-.082zm-.742.142c.086.038.033-.093.033-.093-.09.02-.118.055-.033.093zm3.354 1.007c.582-.003.88-.062.421-.089-.875-.05-1.002.092-.42.089zm2.692.989c.021-.042-.09-.089-.09-.089-.036.047.07.13.09.089zM74.35 49s-.373.287-.349.686c.025.398.499.287.626.207.127-.08.246.191.346.08.1-.112-.075-.861-.623-.973zm2.663 3.958c1.043.073 1.15.104 1.438.087.288-.016.574-.023.547-.044-.027-.02.085-.07-.272-.043-.556.042-1.868-.031-1.713 0z"/><path d="M77.307 53.625c.01.162.079.07.196-.046.116-.116.415-.431.458-.493.043-.062.074-.13-.039-.05-.2.144-.528.504-.46.389.068-.116.255-.4.132-.293-.122.108-.205.235-.294.314a.965.965 0 00-.29.495c-.073.27.286-.478.297-.316zm.742.422c.01-.021-.04-.097-.04-.097-.149.026.03.118.04.097z"/><path d="M78.046 55c.027-.781-.095-1-.095-1-.014.66.095 1 .095 1zm-1.093.003c.013.04.058.061.085.036.027-.025 0-.075 0-.075-.055-.033-.1-.001-.085.04zm2.074.041c.06-.026-.014-.12-.049-.087-.061.057-.012.112.049.087zM76.758 57.1c-.454.385-.728.6-.757.836-.029.234.5-.235.757-.418.257-.184.383-.744 0-.418zm.192 3.9s.1 1.331.096.922c.01-1.127.01-.8-.096-.922zM79 64a18.86 18.86 0 00-2-1 18.86 18.86 0 002 1zm-3-2a3.72 3.72 0 001 1 3.71 3.71 0 00-1-1zm1.05 1a10.028 10.028 0 00-.1-1c.023.396.057.741.1 1z"/><path d="M76.488 62.01c.168.016.337.03.512.04a13.882 13.882 0 00-1-.1c.154.026.321.042.488.06zM78 64c.236.382.578.725 1 1a3.237 3.237 0 00-1-1zm-.513-2.049c-.276.005-.518.014-.484.064.001.002.004.004.01.006a.232.232 0 00.04.007c.158.02.39.014.592.02.021.002.044.002.066.002.021 0 .04-.003.057-.005A.577.577 0 0078 61.98a3.091 3.091 0 00-.513-.029zm3.543 1.024l-.062-.024-.008-.001-.008.032c-.002.008-.004.016.004.022l.013.008c.01.008.002.02.008.028.008.014.043.013.057.001.015-.011.016-.027.016-.042 0-.006 0-.012-.006-.017a.037.037 0 00-.014-.007zM73.046 66a3.538 3.538 0 00-.092-1c-.016.342.015.69.092 1z"/><path d="M73.028 66.05c.043-.034.022-.073-.055-.1-.045.034-.023.073.055.1zM72.023 66c-.078.33-.094.667-.046 1 .078-.33.094-.667.046-1zm.025-1c-.074.323-.11.663-.095 1 .07-.326.106-.661.095-1zm-.998 0c-.06.283-.092.64-.1 1 .057-.293.088-.637.1-1zm0-2a5.157 5.157 0 00-.1 1c.064-.312.098-.657.1-1z"/><path d="M71.023 66.046c.002.002.004.004.006.004.004 0 .007-.003.009-.006.035-.052-.013-.112-.064-.089-.069.031.03.07.05.09zm-.481-2.096c-.046 0-.093.002-.127.006-.031.003-.047.008-.077.01-.091.01-.227.006-.303.02-.062.01-.033.028.015.039.085.02.26.028.445.024.22-.004.414-.025.482-.05.1-.035-.145-.052-.435-.049zM69 65a12.53 12.53 0 001-2c-.4.652-.735 1.32-1 2z"/><path d="M70 64c-.4.305-.738.642-1 1a4.907 4.907 0 001-1zm-1.05 2.047v.003h.002l.012-.004c.055-.025.085-.059.086-.096-.063.023-.094.06-.1.097zM69.021 64a2.651 2.651 0 00-.042 1c.077-.322.092-.669.042-1zm-.045-.95c.077-.027.096-.067.048-.1-.076.027-.096.067-.048.1z"/><path d="M69 63.05c.067-.031.066-.069 0-.1-.066.031-.067.069 0 .1zm-1.05 0a.199.199 0 00.1-.1.2.2 0 00-.1.1zm-.97 0c.077-.03.09-.067.04-.1-.077.03-.091.067-.04.1zm2.061 2.97c-.015-.012-.032-.02-.046-.033-.008-.009-.02-.032-.03-.036-.028-.01-.009.089-.005.09.025.01.053.012.08.003.004-.001.01-.004.01-.01s-.004-.011-.009-.014zm-.991-1.07c-.005.008-.044-.004-.056.005-.013.01-.019.037-.029.051-.004.007-.01.013-.012.02-.003.008-.004.017 0 .024a.372.372 0 00.097-.1zm-5.055-.067c.003.037.005.12.015.117.007-.003.02-.136.025-.167.005-.042.011-.085.014-.136a1.27 1.27 0 00-.005-.166l-.004-.033-.004-.052-.024-.446a15219.376 15219.376 0 00-.005.438.265.265 0 01-.01.05l-.047.171c.012-.034.04.18.045.224z"/><path d="M63.031 64.983l-.018-.024c-.005-.006-.012-.012-.018-.007-.004.004-.006.015-.012.013v-.006a.035.035 0 00-.028.017.037.037 0 000 .036.041.041 0 00.012.012.21.21 0 00.042.022c.012.005.027.007.036-.004.006-.008.006-.021.003-.032a.085.085 0 00-.017-.027zm.966.067l.002-.002.017-.013.011-.01c.009-.007.018-.015.021-.026.014-.05-.051-.058-.079-.041-.046.028.002.055.02.085.001.004.005.008.008.007zm-3.414-.422c0 .032-.25.048-.5.04-.251-.008.137.255.287.183.15-.071.213-.024.213.048 0 .071.238.214.163.286-.075.071-.363.13-.388.216-.025.086.012.81.15.539.138-.27.013-.398.1-.398.088 0 .05-.128.15-.23.1-.104.2-.239.15-.374-.05-.135.063-.08.088-.207.025-.127-.087-.731-.087-.731-.376.39-.326.597-.326.628zm-.945-.678c-.719.005-.812.04-.371.079.44.039.812.02.718-.024-.091-.045-.347-.055-.347-.055zm-2.571-.307c-.182.237.073.732 0 1.036-.073.304.272.472.51.137.235-.335.345-.377.399-.475.054-.098 0-1.341 0-1.341-.364.307-.727.405-.909.643z"/><path d="M57.75 65.022c-.459-.07-.48.032-.573.224-.094.192-.23.6-.156.702.073.101.416.056.656-.147.24-.204.323-.306.323-.487s-.25-.292-.25-.292zm2.23.978c0 .487.026.882-.03 1 .121-.11.098-.336.098-.571 0-.236-.069-.429-.069-.429zm2.692.516c-.109-.156-.3-.575-.383-.509-.874.168-1.024.36-1.078.55-.055.192-.37.348-.11.575.26.227.233.395.219.563-.014.167.26.305.533.305s.41-.15.437-.3c.027-.149.218-.358.3-.43.082-.072.069-.15.219-.266.15-.117.273-.111.123-.183-.15-.072-.15-.15-.26-.305zM62 65.95c-.008.002-.012.01-.018.015-.042.038-.049.096.019.083.077-.014.053-.106 0-.097z"/><path d="M62.032 65.941c.009-.12.018-.554.018-.84 0-.287-.11.083-.1.538.01.379.073.421.082.302zm-6.022 1.095c-.073 1.176-.087 1.199 0 .484.09-.715 0-.484 0-.484zm-1.004-.013c.065-.047.039-.073.039-.073-.135.11-.105.12-.04.073zm-.033-4.319c-.061-.192-.064-.256-.158-.459a.438.438 0 00-.251-.245c-.233.117-.314.288-.354.587-.04.298-.131.288-.156.565-.026.277.025.192.04.363.015.17-.18.565-.047.383.133-.181.133-.066.183.047.05.113.116.028.217-.047.101-.074.187-.02.303-.234.117-.213.308-.363.233-.555-.076-.192.05-.213-.01-.405z"/><path d="M53.782 63.037c-.57.227-.834 1.013-.773.96 1.001-.68 1.214-1.134.773-.96zm.052 1.035c-.776.72-1.167 1.195-.477.764.69-.43.782-1.047.477-.764zm2.818-1.11c-.136-.038-.348.024-.348.039-.561.015-.252.042.174.044.425.003.522.015.522-.017 0-.033-.348-.066-.348-.066zm-.602-1.302c0-.207-.047-.66-.047-.66l-.028.132c-.028.132-.039.415 0 .868 0 0 .075-.132.075-.34z"/><path d="M55.67 61.097c-.316-.169-.395-.126-.593.197-.197.322-.023.546.594.687.123.028.329.056.329-.168 0-.225-.013-.548-.33-.716zm-.668.944c.048.045.048-.091.048-.091-.153.013-.097.046-.048.091z"/><path d="M55.029 61.95c-.06.017-.127.11-.031.099.095-.012.03-.099.03-.099zM56 60.132L55.742 60c-.753.472-.742 1-.742 1 .742-1 1-.868 1-.868z"/><path d="M55.996 60c-.952.507-1.056 1.048-.973.997 1.098-.608.973-.997.973-.997zm-1.732.099c.016-.052-.143-.104-.143-.104.27-.209.214-.172.313-.269.1-.096.424-.454.506-.573.082-.12.093-.235-.05-.074l-.456.513-.115-.067c-.011.164 0 .231 0 .231a3.746 3.746 0 00-.511.436c-.165.033-.335.324-.335.324-.176.164-.445.23-.473.484.291-.12.319-.253.462-.357.142-.105.412-.433.44-.45.027-.02.191-.184.362-.094zM52.622 60c-.8.252-.634.605-.543.731.045.294.09.328.347.194.257-.135.453-.042.559-.425.105-.382-.363-.5-.363-.5z"/><path d="M52.896 61.064c-.428.339-.468.413-.468.413h-.272c.177.053.23.166.23.166-.27.163-.386.353-.386.353.23.053.8-.484.896-.608.095-.123.177-.547 0-.324zm2.054-1.033l.093.019.007-.077c-.076-.075-.1.058-.1.058zm.043-1.685c.033-.077-.066-.346-.066-.346-.387.346-.98 1-.923 1 .577-.154.956-.576.99-.654zm-.129-1.387c-.52-.017-1.04-.015-.807.05.233.065.503.039.807.013.306-.027 0-.063 0-.063z"/><path d="M54.998 57.298c-.024-.318-.082-.239-.269-.292-.186-.053-.455.253-.665.412-.21.16.164.199.16.358-.004.16.038.36.505.093.139-.08.292-.252.269-.57zm-.364-2.376c.292-.206.443-.206.327-.523a.705.705 0 00-.255-.334.326.326 0 00-.243-.061c-.402.062-.611.078-.342.474.292.428.222.65.513.444zm-.668 1.118c.001.007.011.012.02.01.008-.003.014-.01.02-.015.005-.006.011-.013.02-.015.003 0 .006 0 .01-.002.01-.003.015-.015.014-.025a.069.069 0 00-.013-.029c-.02-.026-.056-.014-.067.016 0 .002-.002.005-.005.004l-.002-.001c-.003-.002-.008 0-.01.003s-.002.008-.003.012c0 .008 0 .018.006.023.003.002.007.003.008.006.003.004.001.008.002.012z"/><path d="M53.975 56.049h.008c.005 0 .01 0 .014-.004.005-.003.008-.008.011-.012a.042.042 0 01.028-.016c.003 0 .006 0 .009-.002.004-.003.006-.01.005-.015l-.008-.014c-.012-.015-.027-.05-.047-.03-.008.008-.011.02-.022.026-.002.002-.024.006-.023.01.004.016.019.027.02.043.002.005.001.011.005.014zm.073-2.055a.047.047 0 00-.018-.035c-.008-.007-.02-.013-.03-.006-.007.006-.002.017-.007.022-.006.008-.025.005-.033.007-.005.002-.009.005-.01.01 0 .005.002.01.006.013a.038.038 0 00.013.006l-.004.004c.014.001.026.012.037.02.012.01.026.018.04.014.008-.002.009-.024.008-.03a.16.16 0 01-.002-.025z"/><path d="M54.045 53.971c-.103.01-.007.02.069.03.128.018.275.03.419.041a1.193 1.193 0 00.437-.032c.014-.003.03-.007.03-.012 0-.004-.012-.007-.023-.01a1.333 1.333 0 00-.243-.035c-.158-.01-.235.007-.373.015-.097.006-.226-.005-.316.003zm3.921-6.952c-.027.088-.013.458-.008.589.005.14.016.287.04.363.005.017.01.03.017.029.01 0 .019-.036.025-.078.01-.077.012-.178.008-.27a4.111 4.111 0 00-.019-.263c-.01-.107-.03-.476-.063-.37z"/><path d="M58.034 48.02c.016-.016.023-.035.007-.051-.016-.016-.062-.025-.091-.014l.001.008c-.002.03.014.06.045.087a.165.165 0 00.038-.03zm2.001-.07a.112.112 0 00-.059.032l-.026-.028v.067c0 .011.002.025.01.028.006.003.013-.002.018-.007l.05-.043c.01-.009.022-.02.022-.035 0-.004-.001-.01-.004-.012s-.007-.002-.01-.002zm-.661-.147c.035.008.076.006.114.009.039.003.081.014.08.032a.223.223 0 00.029.117.06.06 0 00.033.031c.044.018.113.003.157-.015.195-.078.266-.212.17-.321-.03-.035-.076-.068-.12-.1-.054-.04-.105-.08-.177-.113-.053-.024-.116-.044-.155-.073-.04-.03-.05-.064-.067-.098-.05-.102-.166-.198-.332-.272-.038.016-.03.045 0 .063.03.02.076.031.115.047.1.04.146.11.11.169-.05.083-.264.067-.32.127-.062.066.158.087.248.122.165.065.121.108.066.193-.02.029-.011.067.049.082z"/><path d="M59.57 47.941c.065-.051.099-.131.157-.19.081-.08.21-.122.258-.223a.133.133 0 00.003-.117.21.21 0 00-.056-.06 2.48 2.48 0 00-.43-.285.512.512 0 00-.182-.065c-.065-.006-.136.013-.176.062-.05.062-.036.148-.034.226 0 .013 0 .027-.01.037-.008.01-.023.012-.036.017a.107.107 0 00-.063.092.262.262 0 00.02.112c.066.183.277.608.549.394z"/><path d="M59.95 48l.088-.176a.1.1 0 00.01-.029.244.244 0 00.002-.045l-.015-.75c.002.102-.095.152-.06.257.007.02.019.008.026.03.006.018.007.059.01.08a.822.822 0 01-.002.187c-.005.035-.014.065-.017.102-.003.031-.001.065-.003.097-.003.091-.031.158-.039.247zm-.904-.95a.217.217 0 00-.091-.1.395.395 0 00.09.1zm-.092-.791a.345.345 0 00-.05-.132c-.028-.037-.075-.059-.113-.04.01-.027-.015-.058-.04-.06-.026-.003-.05.01-.075.019a.169.169 0 01-.17-.046l-.06.179c-.002.006-.005.013-.01.016-.006.004-.014 0-.021-.003a.273.273 0 01-.107-.117.226.226 0 01-.066.197.206.206 0 01-.242.014l.133.174a.18.18 0 01.037.063c.02.06-.024.135-.08.137.043.016.085.032.128.05l.001.041c.074.054.152.11.238.122.128.018.25-.06.357-.142.034.095.078.186.13.269-.01-.064-.047-.176-.032-.239.01-.043.04-.05.06-.084.06-.111.01-.3-.018-.418zm-1.904 1.699a.043.043 0 00-.038-.006l-.021.017a.699.699 0 00-.041.08c.042.008.086-.031.1-.09zm.994-.383c.018-.43-.006-.71-.05-.508a2.39 2.39 0 00-.037.629c.004.04 0 .1.001.152 0 .079.01.136.018.148.015.022.028-.057.04-.143l.006-.037a2.42 2.42 0 00.022-.241zm.909.426a.012.012 0 00-.003.005c0 .004.002.007.004.01a.176.176 0 00.038.031.01.01 0 00.007.003c.004 0 .007-.003.01-.005.022-.022.063-.059.026-.087-.034-.026-.06.02-.082.043z"/><path d="M60 48.049h.007a.168.168 0 00.043-.013.16.16 0 00-.022-.062.053.053 0 00-.014-.019c-.008-.006-.017-.005-.026-.005l-.038.003.022.019-.003.024c.001.009.005.017.012.02.005.001.01 0 .013.004.006.008-.002.023.005.029zm-2.957-.059c-.002-.004-.013-.005-.017-.01-.004-.007-.001-.018-.007-.024-.018-.02-.075.011-.069.041l.004.008a.097.097 0 00.091.044l.004-.001v-.004c0-.019.003-.041-.006-.055zm-.025-1.023L57 46.95a.09.09 0 00-.051.022.315.315 0 01.094.078c.015-.029 0-.076-.026-.083zm4.001-.015a.048.048 0 00-.043.008.05.05 0 00-.02.026c-.044.145.172.003.063-.034zm.931.014c0 .03.102.072.1.084.002-.013-.007-.025-.015-.034-.01-.011-.084-.102-.085-.05zm-.528.019c.201.047.476-.021.518-.13.01-.02.013-.047.051-.059.024-.007.054-.007.082-.007.251-.004.481-.106.515-.23.008-.03.009-.063.051-.084.059-.03.167-.022.23-.05a.164.164 0 00.049-.035c.046-.046.09-.095.08-.146-.012-.073-.134-.133-.272-.161-.142-.029-.289-.024-.436-.034.002-.014-.015-.034-.009-.049-.233.161-.544.11-.87.152-.105.014-.404.084-.407.148-.001.035.242.144-.004.16.053.003.085.031.087.057.002.026-.017.051-.023.077-.031.145.345.245.358.39z"/><path d="M61.954 45.95a.068.068 0 00.004.054c.003.006.008.012.01.02 0 .006 0 .014.003.02.004.006.013.006.02.006l.033-.002c.012 0 .026-.004.026-.016a.02.02 0 00-.006-.013.054.054 0 00-.028-.017v-.016a.137.137 0 01-.062-.036z"/><path d="M62.006 46.28c.014-.05.029-.082.044-.12-.03-.448-.098.162-.1.378a9.917 9.917 0 01.004.462c.031-.135.048-.361.042-.574 0-.036-.002-.074.001-.105a.22.22 0 01.009-.04zm1.695.625a.994.994 0 00.133-.283c.013-.044.024-.09.05-.125.026-.036.073-.056.106-.032.038-.173-.04-.37-.178-.45-.108-.062-.207.085-.303.132-.072.035-.155.047-.223.093a.43.43 0 00-.16.188c-.046.137.05.226-.03.384L63 47c.254-.025.486-.207.741-.205a.128.128 0 00-.04.11z"/><path d="M56 40.072s.594.27.98.287c.386.017.077.05.01.11-.068.061.057.056.149.05.092-.006.024.177.125.254.102.077.488.32.671.377.184.057.449.362.444.395-.005.033-.362.105-.246.121.116.017.343-.055.343-.055s-.087.15-.164.171c-.078.022-.198.06-.143.132.054.072.094-.01.162-.06.068-.05.169.06.275.138.106.077.111.121.039.243-.073.121-.14 0-.189.055-.048.055-.058.17-.058.226 0 .055.111.072.063.16-.048.088-.16-.039-.217-.022-.058.017-.15.088-.241.006-.092-.083-.03-.061-.16.071-.13.133-.062 0-.183-.044-.12-.044-.097.11-.28.05-.183-.06-.4-.138-.545 0-.145.138-.01.215.29.22.299.006 1.196.022 1.264.022.067 0 .511.227.57.409.057.182-.102.149-.075.16.026.01.152.071.065.126-.087.056.164.133.188.26.024.127-.198.17-.217.37-.02.199.133 0 .133 0 .012.056.021.112.028.17.001.014.003.03-.005.041a.053.053 0 01-.021.018l-.258.146c.066.04.15.04.216 0a.45.45 0 01.028.233c-.001.012-.004.026.001.037.005.01.014.017.023.022.132.075.295.057.42.147.013.01.028.022.044.023.033.001.056-.039.088-.048a.757.757 0 01.023.202l.131-.14.098.33a.153.153 0 01.01.07c-.015.076-.127.088-.134.165-.002.027.01.052.02.076.017.04.03.08.041.122l.155-.096c.015-.01.032-.02.048-.014.026.007.035.043.051.067a.096.096 0 00.097.037.227.227 0 00.097-.051c.027-.021.055-.055.045-.09a.379.379 0 01-.183-.06.434.434 0 01.32-.125s.134-.014.157-.003c.023.01.045.364.045.364s.058-.138.046-.26c-.01-.12.2.023.205-.005.005-.028.096.155.11.138.015-.017.04-.083.112-.083.072 0 .01.238.024.199.015-.039.314-.138.396-.05.082.089.13.028.193.067.063.038.603.055.922.044.318-.011.854-.265 1.008-.48.155-.215.266-.342.348-.414a1.81 1.81 0 00.27-.298c.087-.121.029.11.125.326.097.215.02-.1-.014-.167-.034-.068.125-.209.092-.192-.034.017-.164-.072-.164-.17 0-.1.159-.122.144-.183-.014-.06-.014-.38.053-.463.068-.083.189-.011.218-.22.029-.21.106-.045.168-.084.063-.038.102-.248.145-.402.044-.155.251-.116.343-.144.092-.027-.29-.11-.323-.237-.034-.127.198-.342.27-.57.072-.229-.015-.594.015-.748.028-.155.226-.105.656-.21 0 0-.517.006-.642.07-.125.066-.116-.236-.09-.346.026-.11-.06-.187-.127-.072-.068.116-.034-.01-.183-.259-.15-.248.197-.392.212-.419.014-.028.178-.325.098-.358-.08-.033-.267-.011-.403.055-.137.066-.342-.127-.207-.359.135-.231.005-.105-.072-.22-.077-.116-.246.066-.333.066-.087 0-.4-.132-.43-.247-.029-.115.116-.365.073-.41-.044-.043-.063-.176-.078-.44-.014-.266-.357-.288-.497-.304-.14-.017.034-.353.025-.508-.01-.154-.242-.044-.266.232-.024.276-.193.425-.241.309-.049-.116-.044-.16-.15-.188-.106-.028-.58-.254-.864-.37-.285-.115-.343-.093-.361-.154-.02-.06 0-.237-.006-.325-.005-.089.029-.282-.03-.563-.058-.281-.27-.386-.144-.237.126.149.184.766.116.855-.067.088-.082.187-.125.226-.044.038-.068-.055-.077-.133-.01-.077-.078-.066-.092-.016-.015.05.024.1 0 .138-.024.038-.155-.044-.217.016-.063.061-.136-.088-.18-.127-.043-.038-.043-.099-.028-.165.015-.066.14-.11.169-.22.029-.111.024-.2-.02-.354-.043-.154-.086-.132-.115-.27-.03-.138-.063-.116-.145-.215-.082-.1-.174.077-.188.243-.015.165.048.248-.02.297-.067.05.025.133.087.216.063.082-.01.149.078.21.086.06.067 0 .077.053.01.054.014.161-.03.167-.043.005-.062.066-.163.105-.102.038-.357.06-.44.143-.081.083-.275.315-.313.27-.039-.044.014-.149 0-.292-.015-.143-.034-.066-.024-.304.01-.237-.03.061-.102.166-.072.105-.077-.105-.101-.031-.024.073-.077.048-.097.009-.019-.039-.14.05-.14.143 0 .094-.202-.033-.231-.033-.03 0 .14.144.231.193.092.05.073.155.15.298s.063.22.082.33c.02.111-.116.304-.169.393-.053.088-.125-.017-.357-.056-.068.089.285.089.323.16.039.072-.072.1-.11.287-.04.188-.102.166-.367-.11.265.502.313.347.313.347l-.15.657s-.028.094-.192-.017c-.164-.11-.058-.093-.276-.082-.217.01-.101-.022-.135-.194-.034-.17-.285.017-.227.144.058.127.16.093.18.243.018.148.187.132.27.165.081.033.361.05.303.166-.058.116-.212 0-.347.088-.135.088.048.21.014.281-.033.072-.545-.32-.651-.325-.106-.006-.246-.133-.232-.166.015-.033.14-.149.155-.27.014-.121.053-.38-.034-.53-.087-.149-.087-.044-.135-.138-.049-.093-.053-.005-.092-.088-.039-.082-.077-.105-.092-.292-.014-.188 0 0-.038.121-.039.121.125.177.062.265-.062.088-.256-.066-.444-.055.16.082.116.193.024.21-.091.016-.27-.045-.27-.045s.198.132.203.193c.005.06-.227.188-.179.177.049-.011.198.016.203.093.005.078-.193.199-.126.177.068-.022.13.105.3.248 0 .26-.608-.187-1.153-.187zm-.015.178c.036-.055.002-.118-.045-.168-.102-.107-.238-.102-.366-.026-.16.095-.324.187-.476.29-.022.014-.045.03-.053.052-.013.037.03.073.074.098.045.025.097.05.11.088.008.021.002.044 0 .066 0 .033.01.066-.002.098a.216.216 0 01-.054.072L55 41h.25c.053.001.11.001.156-.015.044-.015.074-.042.107-.065.134-.093.333-.141.445-.245.017-.015.032-.033.03-.052 0-.016-.013-.03-.025-.045a.493.493 0 01-.065-.101c-.02-.044-.033-.093-.004-.135.022-.033.069-.058.091-.092zm.007.81c-.056.18-.045.686-.029.908.001.014.003.03.007.032l.007-.007c.045-.094.059-.287.066-.461.003-.092.03-.729-.05-.471z"/><path d="M57.05 41.998c.003-.11-.086-.002-.1.03.003-.008.052.023.061.022.012-.002.037.006.039-.052z"/><path d="M56.36 42.049a22.309 22.309 0 00.442-.002c.055-.003.1-.008.147-.014.123-.013.26-.024.395-.035.097-.007.197-.015.306-.017.117-.001.244.004.35-.004-.227.001-.436-.02-.66-.025-.098-.003-.197-.002-.296-.002l-.288.002c-.123 0-.25.002-.36.01-.06.006-.112.013-.161.02-.078.013-.348.046-.182.06.072.007.223.006.307.007zm-2.286-1.045a.528.528 0 01.109.023c.006.002.012.005.024.006a.623.623 0 00.056.004l.273.01c.05.002.105.004.154.002a.968.968 0 00.108-.011l.185-.028c.01-.001.02-.003.016-.005a.065.065 0 00-.015-.003c-.14-.016-.326-.03-.479-.044-.128-.012-.37-.014-.31.018-.038 0-.086 0-.123.002-.041.002-.076.007-.072.013.005.006.043.01.074.013z"/><path d="M53.98 41.044l.05.006c.039.004.012-.052-.003-.07-.014-.015-.036-.033-.055-.03-.023.004-.024.027-.02.055.003.032.006.037.029.04zm.98-.007c.005.008.015.014.024.013a.037.037 0 00.016-.01c.024-.018.073-.047.038-.08-.023-.02-.074-.013-.085.015a.067.067 0 00-.001.035c.001.01.002.019.008.026zm-.957-.987c.023 0 .04-.016.045-.032.005-.016 0-.032-.006-.048l-.018-.02c-.016.011-.05-.002-.063.01-.004.003-.005.007-.006.011-.004.017-.008.034-.002.05.007.015.027.03.05.029z"/><path d="M53.046 39.978a1.148 1.148 0 00.372.06l.412.008c.071.001.203.016.162-.02-.063-.057-.48-.045-.61-.045-.13-.005-.256-.018-.382-.031-.004.011.022.02.046.028zm-.086-.931c.004.002.008.002.012.002h.022c.015.001.031.001.042-.007.015-.012.015-.032.013-.05-.002-.017-.008-.044-.034-.042-.023.003-.033.032-.06.029a.116.116 0 00-.003.053c0 .006.003.012.008.015zm.09 1.963c.003-.02-.021-.041-.045-.06l-.052.005-.003.016.008.078c.046.005.088-.016.092-.038z"/><path d="M52.952 41.047c.007.006.02.001.028-.004.017-.013.034-.025.048-.04.013-.015.023-.032.022-.05l-.049-.003-.047.082c-.003.005-.006.011-.002.015zm2.035-1.097l-.037.02c0 .028.016.055.048.08.074-.027.068-.075-.01-.1z"/><path d="M55.023 40.048a.017.017 0 00.008.002.013.013 0 00.007-.003c.018-.016.014-.04-.001-.056a.213.213 0 00-.065-.041l-.022.036c.014.025.04.047.073.062z"/><path d="M54.963 40.023a.105.105 0 00.073.027c.004 0 .008 0 .01-.005.006-.008.004-.022.002-.034a.176.176 0 00-.013-.044c-.006-.012-.016-.02-.026-.015h-.05c-.007.018-.014.044-.005.061.002.005.006.007.009.01zM64.05 47c.002-.216-.046-.807-.094-1-.036.057.095.865.094 1zm.058-1.784a1.446 1.446 0 00-.108.419c-.003.097.039.176.083.264.045.089.181.109.286.099.096-.01.169-.08.25-.127.067-.04.142-.063.211-.098.069-.036.134-.086.159-.155.044-.123-.053-.248-.144-.347l-.22-.24c-.01-.011-.024-.023-.04-.021-.02.002-.027.027-.036.045-.025.051-.1.067-.157.048a.365.365 0 01-.14-.103c.057.06-.125.179-.144.216z"/><path d="M64.904 47c.09-.045.12-.124.075-.187-.022-.03-.06-.056-.07-.088-.01-.032.028-.073.084-.07-.055-.044-.179-.052-.25-.015-.07-.201-.136-.403-.198-.605-.01-.03-.013-.07.034-.086.021-.007.048-.007.07-.015.03-.01.04-.032.045-.051a.263.263 0 00-.044-.226c-.017.08-.103.155-.224.196-.075-.096.045-.212-.016-.311-.027-.046-.09-.082-.12-.128-.043-.064-.012-.138-.038-.205-.031-.084-.144-.15-.252-.209.077.191.128.385.152.58.008.063.014.127.064.183.028.032.07.06.102.09.122.115.104.26.153.392.076.202.317.394.245.596l.188.159zm.046-2.05l.003.022c.003.025 0 .055.026.078.174-.035-.025-.066-.029-.1z"/><path d="M63.984 45.043a.031.031 0 00.023.007.016.016 0 00.01-.005c.018-.018.037-.038.032-.057-.005-.02-.044-.04-.092-.038v.01c-.015.028-.006.058.027.083zm-6.238-.808c-.192-.181-.423-.276-.656-.218a.102.102 0 00-.06.031c-.03.036-.03.097-.03.151.003.177.013.373.107.492.033.041.075.069.113.101.064.054.121.122.19.163.171.105.381.015.516-.165.191-.258-.03-.414-.18-.555zm-.789-1.256c-.006.01-.01.024-.003.035.005.009.016.013.024.02.008.006.015.015.025.016.012.001.022-.008.03-.017.01-.012.019-.026.017-.041-.002-.017-.018-.03-.033-.04l.002.008a.031.031 0 00-.026-.01c-.016.002-.029.015-.036.029z"/><path d="M58 42.971c-.348-.017-1.067-.063-.995.079.192-.023.358-.05.578-.058.142-.005.293-.004.417-.02z"/><path d="M58.003 43.046c.016.01.04.002.046-.019a.049.049 0 00-.014-.046.1.1 0 00-.04-.02l-.03-.01c-.006-.003-.017 0-.015.008l.02.037c.006.02.016.041.033.05zm-.375 1.959c-.44-.004-.879-.006-1.318-.004-.02 0-.042 0-.058.017-.023.024-.024.07-.042.1-.042.07-.205.04-.21.14-.006.123.16.1.223.113.023.004.047.008.064.028.023.027.028.07.03.11l.033.427c.001.022.005.049.02.059a.04.04 0 00.022.005c.162.005.363-.069.395-.28.027-.172-.074-.327-.166-.45A6.95 6.95 0 0158 45.101c-.108-.091-.244-.096-.372-.097z"/><path d="M56.95 45.023c0 .009.01.017.012.009l.007.018a.29.29 0 00.075-.077c.004-.007.008-.015.005-.023a.289.289 0 00-.087.052c-.005.005-.011.011-.012.02zm3.05-.006a3.692 3.692 0 00-.42-.026c-.116-.001-.421-.05-.491-.04-.281.041.187.095.278.098.213.006.425-.013.633-.032zm-1.037 1.012c.015.02.04.025.062.018a.036.036 0 00.02-.016c.013-.022-.004-.054-.024-.064-.02-.01-.042-.008-.063-.017l.003.003c-.016.02-.014.056.002.076zm-1.011.977c.027-.01.054-.02.047-.031-.008-.011-.065-.022-.126-.02l-.307.003a5.237 5.237 0 00-.277-.008c-.094 0-.192.007-.249.02-.041.01-.056.023-.02.034a.54.54 0 00.078.012c.122.013.26.02.397.028.086.004.18.009.263.003a.612.612 0 00.194-.04zm6.085-8.306l.151.1c.089.06.178.12.274.152.061.021.124.031.186.041.067.01.143.018.193-.043a.34.34 0 00.05-.103c.085-.24.222-.72-.06-.826-.174-.065-.62.024-.713.232a1.76 1.76 0 00-.112.34c-.006.025-.01.054 0 .076.007.014.02.022.031.03zm2.013-1.75l-.005.009a.333.333 0 01-.095.091.117.117 0 00.1-.1zm-.003 1c-.029.03-.063.087-.097.1.025-.01.117-.035.097-.1zm.903-.978a.238.238 0 01.094.056.517.517 0 00.006-.05l-.1-.006z"/><path d="M67.003 37.046a.035.035 0 00.013.004.027.027 0 00.02-.009.044.044 0 00.002-.062.102.102 0 00-.048-.029c-.007.016-.034.027-.04.044-.006.022.025.04.053.052zm-3.963-.284c.168.14.367.182.56.222.096.02.205.036.283-.046.072-.075.096-.212.099-.338.004-.17.06-.486-.048-.576-.067-.057-.26.002-.334.025-.227.07-.464.282-.582.567-.013.03-.024.065-.015.097a.101.101 0 00.037.05zm-1.079 1.271a.12.12 0 00.05.016c.01.001.02.002.027-.004.032-.025-.009-.085-.03-.094-.021-.009-.07.04-.055.073a.02.02 0 00.008.009zm24.988 13.094c-.123-.265-.62-.033-.813-.032-.044 0-.096.003-.121.044-.018.03-.016.07-.013.106l.035.369a.25.25 0 00.026.107c.049.08.165.062.22.135.023.029.031.068.053.096.055.073.157.049.237.02.055-.022.114-.045.15-.097.015-.02.025-.045.04-.067.04-.065.111-.098.16-.158.094-.112.089-.292.053-.443-.008-.027-.016-.055-.027-.08zM57.24 39.049a.31.31 0 00.053-.001c.101-.013.188-.03.324-.035.124-.005.266.002.383-.005a1.12 1.12 0 00-.354-.057 3.657 3.657 0 00-.3.007c-.053.002-.283.004-.304.008a.027.027 0 00-.011.005l-.02.021c-.012.01-.022.022.013.032.041.012.132.019.217.025zm-.085-.999c.167-.008.347-.013.527-.013.138 0 .379-.06.304-.076a2.106 2.106 0 00-.325-.009 7.9 7.9 0 00-.244.022c.01-.002-.022-.004-.042-.003h-.24l-.053.002c-.031.004-.003.01.012.014.04.012-.029.025-.094.036a.83.83 0 01.155.027zm3.807-1.717c.02.057.027.19.026.311 0 .121-.008.238-.012.356a2.31 2.31 0 00.038-.236c.003-.025.006-.052.01-.067a.069.069 0 00.005-.017l.004-.035.008-.11c.01-.15.022-.546-.028-.535-.016.004-.033.127-.046.174-.015.056-.027.092-.005.16zM51 49c.922-.766 1-1 1-1-.867.642-1 1-1 1zm4.044 1.019c.013-.047 0-.069 0-.069-.068.047-.12.033-.08.069.039.036.068.047.08 0z"/><path d="M54.957 50.021c.023.035.07.042.09 0 .019-.042-.045-.096-.06-.058-.012.034-.053.023-.03.058zm3.043.014s-.655-.017-.94-.085c-.264.083.405.124.94.085zm5.977 16.999c.011.01.026.018.04.016.02-.003.034-.024.033-.044-.002-.096-.163-.057-.073.028zm-.967-1.062l-.034-.022a.043.043 0 00-.026.04c0 .02.016.04.034.05.02.013.052.015.063-.005a.036.036 0 00-.005-.037.11.11 0 00-.031-.026z"/><path d="M62.95 65.95c.024.033.047.067.072.1.009-.008.018-.013.028-.012l-.1-.088zm.992-.24a.87.87 0 00-.248-.226L63 65c.132.275.32.524.547.728.064.058.28.28.368.272.127-.014.09-.19.027-.29z"/></g><path d="M13 13h44v44H13z"/><path d="M42.333 51.5H27.667A3.666 3.666 0 0124 47.833V22.167a3.666 3.666 0 013.667-3.667h14.666A3.666 3.666 0 0146 22.167v25.666a3.666 3.666 0 01-3.667 3.667z" stroke="#512511" stroke-width="2" stroke-linecap="round" stroke-linejoin="round"/><path d="M34.998 44.625a.459.459 0 10.004.916.459.459 0 00-.004-.916M32.708 24h4.584" stroke="#512511" stroke-width="2" stroke-linecap="round" stroke-linejoin="round"/></g></svg>