<svg width="265" height="242" xmlns="http://www.w3.org/2000/svg"><g fill="none"><g fill="#512511"><path d="M225.006 190.001l-.015-.002c.016.002.023.002.015.002z"/><path d="M186.533 194.776c.518-1.355 2.165-2.383 1.976-3.785-.189-1.402-2.355-.607-3.343-.795-.988-.187.329-2.009.329-2.009l-5.697 2.01s4.709-2.524 5.697-2.712c.989-.187.895.093.8-1.588-.093-1.683-3.154-2.757-5.415-3.318-2.26-.561-2.871-1.869-1.789-3.599 1.082-1.728-1.648-1.495-2.449-1.542-.8-.047-1.506-.888-.518-1.588.989-.7 4.238-.374 5.18-.327.941.048.941-3.737.093-5.14-.847-1.401-.518-4.72-.518-4.72l-1.93-.84c-1.932-.84-2.402-1.588-2.402-1.588s.988.326 2.025.84c1.036.515 1.647.936 2.072.374.424-.561-.283-1.635-1.178-2.71-.894-1.076.706-1.262 1.32-1.17.61.094 1.177-.934 1.223-1.728.047-.794-1.742-.935-2.308-.747-.565.187.33 1.355.33 1.355s-.612-.14-.989-.795-1.224-.795-1.507-.234c-.282.562-1.223 1.029-1.883.467-.66-.561-1.13-.467-1.365-.047-.235.421-.565.561-.753.188-.19-.374-.47-.841-1.13-.795-.66.047-2.024.888-2.024.888s.988-1.45 1.177-2.01c.189-.56-.8-.047-1.46.562-.66.607-1.648-.234-1.837-.188-.19.047-2.26 7.71-2.26 7.71s.47-4.625 1.036-6.541c.566-1.916.47-1.729.048-2.383-.425-.655-1.13-1.121-.425-1.729.706-.607 1.178-.747 1.696-1.075.518-.327.235-1.169.706-1.636.47-.466.518.234.329 1.169-.19.935.189 1.075.8 1.355.612.28.754-.28.848-1.262.093-.98.894-1.635.894-1.635-.283-.7-.141-1.31-.141-1.31s.141 1.31 1.319 1.122c1.177-.187.753.093 1.412-.28.66-.374 1.46.233 1.837.7.377.467.754 1.214 1.696.84.573-.227.798-.351 1.214-.433-.33-.256-.745-.434-1.297-.477-.994-.079-.039-.868.637-.533.677.336.2-1.481.359-1.205.145.253.459 1 1.422 2.091l.067-.004c1.46-.093 1.46-.28 2.025.327.566.607-.189 1.028.8 1.308.99.281.425 1.122.802 1.31.376.187.894-1.122 2.213-2.29.922-.816.693-1.314.457-1.953h-3.29s-.596.71-1.073 0c-.385-.574-.795-.474-.477-.71.317-.236.317-.986.835-1.145.517-.158.677.198 1.035.474.359.277.318.909.318.909l2.607.349a2.71 2.71 0 01-.175-.82c-.048-1.215 1.13-3.504 2.26-3.225 1.07.265 1.086.112 1.802-.222l-.517-.877c-.23.086-.472.142-.718.137-.696-.01-1.288-.478-1.82-.922.155.38.898 1.538.442 1.845-.624.42-.769-.838-.883-1.144-.146-.39-.573-.594-.83-.92-.104-.131-.174-.331-.06-.454.083-.09.226-.089.35-.076a4.379 4.379 0 011.657.53c.141.08.302.17.456.12.073-.024.132-.076.19-.126a4 4 0 01.425-.331l-4.262-7.232.377-.562 4.042 7.697c.088-.05.178-.096.271-.132.32-.124.69-.152 1.003-.013.21.093.396.28.41.509a.642.642 0 01-.064.3c-.154.335-.482.558-.82.708l-.067.028.47.892c.025-.01.048-.022.075-.034.847-.374 1.13.7 1.13.7.66 1.214.847.795 2.166.84 1.319.048.566-.56.518-1.635-.048-1.075.048-1.262.518-.093.47 1.169.47 2.57 2.307.84 1.837-1.728 2.119-.092 3.438-.7 1.318-.607.189-1.962-1.224-2.242s-1.036-.421-1.696-1.87c-.66-1.448-.847-.747-1.46-1.587-.612-.84.283-.28 1.365.047s.847-.28.847-.421c0-.14-1.036-.607-.518-1.309.518-.7.518-.28.942.327.425.607.66-.7 1.224-.795.566-.093.847.093 1.319-.28.47-.375.753-.188.566.28-.188.468.093.98 1.083.795.989-.188 1.413.093 1.413.935 0 .84.706 1.354.66.467-.047-.888.565-.608.565-.608.048-1.588.942-6.915.942-6.915s-.565 7.01-.047 7.243c.518.234.141.748.235 1.402.094.655.942.748 1.224 1.45.283.7.424 3.27.8 4.439.377 1.168 1.178 1.262 2.119 2.523.942 1.262 1.695 1.402 3.013 2.243 1.319.84 1.554-.607 2.072-.935.518-.328.424.607 1.271 1.354.847.748.989.374 1.365-.84.377-1.215.848-2.01 1.224-3.411.377-1.402-.235-2.804.706-4.066.942-1.262 2.072-.748 1.79 1.075-.284 1.823-2.685 6.028-2.637 8.132.047 2.102 1.036 2.804 2.59 3.177 1.554.374 1.082-.28 1.837.888.753 1.169.424 1.683.424 1.683l2.543-.748-2.543 1.215c.094.561.377 1.309 1.271 1.214.895-.093.989-.233 1.272.795.283 1.028 1.036.935 1.365.326.329-.607 1.506-1.308 1.506-1.308s-.424.607-.753 1.214-.329.98.895 1.168c1.223.188.518 2.29.565 2.85.048.562 0 3.411.566 3.552.566.14 2.967-.888 3.437.233.47 1.122-1.883 2.523-2.495 3.318-.612.795-.66.888-.47 2.383.189 1.495-1.036 1.31-1.319 2.711-.283 1.402.566.28 1.648.84 1.082.562-.19.841.141 1.45.33.607.19.654-.189.98-.376.327-.518.048-.518 1.03 0 .98-.47.233-.8-.048-.33-.28-.19 1.45-.19 1.45s-.66-1.824-1.412-2.244c-.754-.42-.47 3.038-.47 4.3 0 1.261.188 2.056-1.084 3.644s-2.355 3.504-2.355 3.504 2.2.655 2.474.7c-.28-.019-2.851-.138-2.851-.138l-.706.7 3.155 2.476-4.003-1.916s-2.637 3.318-4.661 4.111c-2.025.795-3.344.888-3.344.888l.66 1.87s-.801-1.215-1.93-1.73c-1.13-.514-4.427 0-5.745-.187-1.32-.188-1.46.748-1.931 1.776-.47 1.028-.19-1.215-.66-2.103-.47-.887-2.166-.233-4.003-.047-1.836.188-3.437.093-4.049-.607-.612-.7-1.036-.467-1.883-.654-.847-.188-1.13-1.076-1.13-1.076l-2.448-.42 2.4-.234s-.093-.281-1.223-1.402c-1.13-1.122-3.202-2.01-4.709-.608-1.506 1.407-2.824 1.547-2.305.19z"/><path d="M180.617 133L185 143l-5-9.016zm2.303 57l.08 1.54-10 8.46zm11.219 8l.861.74-5 4.26zm-16.185-36.964a.654.654 0 00.092-.086s-.013.145-.092.086zm-8.801-.025c.668.624.611.714 1.112-.358.5-1.072.333 0 .444.446.11.445.334.445 1-.714.667-1.16.388.446.888 2.854.193.931.32 1.316.403 1.435-.434.648-1.049.35-2.236-1.08-1.333-1.604-.833-.535-2.167-2.14-1.333-1.605-.111-1.069.556-.443z"/><path d="M168.231 161.344c-1.484-4.355 4.665 3.234 4.769 3.607 0 0-3.287.748-4.769-3.607zM168.05 163s-.06.112-.094 0c-.034-.113.094 0 .094 0zm-.087 10.028c-.055-.078.087-.078.087-.078s-.033.156-.087.078zm21.997-30.018c-.049-.109.09-.036.09-.036s-.04.144-.09.036z"/><path d="M190.05 142.992s-.062.123-.095.01c-.032-.112.095-.01.095-.01zm-.087-5.029c.048-.051.087.065.087.065-.035.059-.135-.013-.087-.065zm5.037-.601l-.357.638L188 128zm4.989.688c-.076-.014-.017-.097-.017-.097.11-.025.093.109.017.096zm-.029-5.067c-.046-.088.088.027.088.027.013.055-.043.06-.088-.027zm1.997-4.98c-.039-.112.093-.011.093-.011s-.054.123-.093.01z"/><path d="M201.966 128.049c-.064-.015.084-.099.084-.099s-.02.113-.084.099zm-1.92-.099s.029.106-.066.1c-.095-.006.066-.1.066-.1z"/><path d="M199.992 127.95s.123.1.011.1-.011-.1-.011-.1zm.021 5.1c-.105 0-.047-.1-.047-.1s.152.1.047.1zm-5.037-.01c-.087-.045.073-.09.073-.09s.013.136-.073.09zm16.987-.072c.054-.069.087.082.087.082s-.142-.014-.087-.082zm5.087.026s0 .12-.078.008c-.078-.112.078-.008.078-.008zm-.081 5.036c-.07-.07.081-.08.081-.08s-.01.153-.081.08zM212 148l5-5s-1.502 3.494-5 5zm4.95 0l.1-5c.004 2.918-.1 5-.1 5z"/><path d="M217.05 143s-.021 4.332-.084 4.952c-.063.62.084-4.952.084-4.952zm-5.063.045c-.079-.036-.007-.088-.007-.088.099-.042.086.124.007.088z"/><path d="M217.05 150.087s-.015 1.335-.055.776c-.041-.555-.068-4.001-.018-4.778.05-.776.073 4.002.073 4.002zm12.95-2.554l5-4.533-3.561 5zm-5.05.167l.1-4.7-.056 5zm4.91 5.986s-.244 1.48-1.053 1.35c-.81-.128-1.135-1.029-1.214-1.222C227.51 153.62 225 156 225 156s.891-1.802 1.378-2.51c.487-.707-.405-.449.162-1.287.566-.835 1.7-1.543 2.105-1.029.405.515.326.322.974-.065.648-.386.405.387-.244 1.158-.65.776.485 1.419.485 1.419zm.496 7.312C228.423 161.128 235 156 235 156s-2.708 4.868-4.644 4.998zm-.39-4.948c-.063 0 .084-.1.084-.1s-.021.1-.084.1zm-5.002 4.998c-.058-.021.086-.098.086-.098s-.029.118-.086.098z"/><path d="M229.982 161.046c-.098-.028.061-.096.061-.096s.037.124-.061.096zm-5.032-5.079c0-.059.098.055.098.055.018.065-.098.003-.098-.055zm-4.998.077c-.017-.022.098-.094.098-.094.003.077-.082.116-.098.094z"/><path d="M219.954 155.975c-.029-.444.096-4.975.096-4.975s-.067 5.415-.096 4.975zm.012 5.074c-.064-.012.084-.099.084-.099s-.02.111-.084.099zm-2.981-5.099s.132.1.02.1c-.111 0-.02-.1-.02-.1zM233.992 168c-2.176.046-2.295-1.962-1.648-2.944.647-.98 2.47-.98 2.47-.98l.353-1.076.118 1.402s1.588-.655 1.705.42c.117 1.076-.822 3.131-2.998 3.177zm12.995-.004c-.039.113-.057-2.336-.004-4.341.054-2.002.067 1.224.067 1.224s-.025 3.008-.063 3.117zm-9.883 10.02c-.949-.101 4.896-.056 4.896-.056s-3.95.157-4.896.056zM235 177.95s-3.815.156-4.873.078c-1.061-.078 4.873-.078 4.873-.078zm0 2.092s-3.592.04-4.834-.06c-1.237-.099 4.834.06 4.834.06zm1.95 4.908c.043.039.078.073.1.1l-.1-.1zM240 190c-3.116-1.682-9.887-4.551-9.887-4.551-1.15-1.894 6.784 2.707 9.887 4.551zm-5.51.019c.198.3 1.198 2.702-.3 4.103-1.495 1.402-4.09 1.3-4.188-1.6-.101-2.905 4.487-2.503 4.487-2.503z"/><path d="M230.062 189.958c-.714-.042 4.938.092 4.938.092s-4.223-.05-4.938-.092zm-5.029-.003c.053.07-.032.141-.074.056-.042-.085.074-.056.074-.056zm20.955 7.922c-.771.486.193.89-.386 1.213-.579.325-.385.647-.24.972.144.325-.241 1.134-.916 1.213-.676.082-.386 0-.58.648-.193.647-.434 1.051-.916.325-.481-.73 0 0-.675.647s-1.687-1.863-1.638-2.994c.049-1.133 0-.808-.434-1.295-.435-.486-.145-.486.626-1.213.771-.729.771-.729.53-1.62-.24-.89.096-2.184.435-1.78.337.404.337 1.377.77 1.62.435.243.531-2.267.435-2.59-.096-.322 1.157 2.833 1.157 2.833l1.157-1.62.049 2.994 1.638-1.213c.001 0-.24 1.374-1.012 1.86zm1.045.073c.038.021.01.133-.062.09-.071-.042.062-.09.062-.09zm16.945-13.048c-.083-.875.046-4.902.046-4.902.042.52.038 5.777-.046 4.902zM235 207s-3.39-1.267-4.793-4.273C228.803 199.722 235 207 235 207zm-5-4s-3.715-1.303-4.856-4.282C224.004 195.738 230 203 230 203z"/><path d="M230.05 203c-.087 0-.127-1.441-.08-4.32.047-2.88.08 4.32.08 4.32zm-5.01 3.95s.044.141-.056.088c-.101-.053.056-.088.056-.088zm9.957 5.09c-.112.047.011-.09.011-.09s.101.043-.01.09zm-17.947-9.99s-.048.013-.091-.074c-.044-.087.091.073.091.073zm-10.014.946c-.057-.154-.086-4.996-.086-4.996s.144 5.154.086 4.996zm4.952 4.052c-.106.017.043-.098.043-.098s.064.081-.043.098zm-21.993.002c-.112.007.02-.1.02-.1s.091.092-.02.1zm-1.328-5.1c2.73-.004.964.141-2.567.088-3.531-.053 2.567-.088 2.567-.088zm1.333 5s-2.06.15-4.484.082c-2.424-.068 4.484-.082 4.484-.082z"/><path d="M190.05 206.95s0 .091-.078.1c-.078.008.078-.1.078-.1zm-14.313-4.13c-1.13.884-.452-1.769-.452-1.769s-3.391.355-4.22.355c-.83 0 6.556-3.362 6.556-3.362 1.207-.533-.753 3.891-1.884 4.776z"/><path d="M168.665 202.81c-2.226 1.047 1.7-2.503 3.502-4.087.498-.437.833-.723.833-.723s-1.496 3.475-4.335 4.81zm-42.712 9.195a.548.548 0 01.097-.012c-.073.012-.11.017-.097.012zm22.068 17.945c-.016.057-.042.1-.042.1s.009-.043.042-.1zm37.023-9.932l.006.032-.1-.1a.45.45 0 00.094.068zm-20.08-47.12c-.055-.973.068-4.871.068-4.871.05-.487-.012 5.845-.068 4.871zm3.392 3.741c-1.795-3.822 3.787-3.638 3.787-3.638 2.796 2.24-1.992 7.464-3.787 3.638zm-.311 1.311s.032.127-.064.095c-.097-.032.064-.095.064-.095zm-7.081-.03c-.058.82.086-4.92.086-4.92s-.028 4.102-.086 4.92z"/><path d="M156.041 172.974c.582-.071 4.954.037 4.954.037.197.072-5.535.035-4.954-.037zm-.076-5.012c.06-.05.085.071.085.071 0 .05-.146-.022-.085-.071z"/><path d="M155.986 173.048c-.092-.016.021-.098.021-.098.052-.008.07.115-.021.098z"/><path d="M155.95 172.95s.156.07.078.096c-.078.026-.078-.096-.078-.096zm4.152-9.951c-.937-.089 4.875-.03 4.875-.03.376.08-3.938.119-4.875.03zm7.894-.049s.118.126.005.095c-.112-.03-.005-.095-.005-.095zm-.046-2c.015-.007.145.072.084.097-.061.025-.084-.097-.084-.097zm31.032 43.2c.942-.396.08-.594.157-1.631s1.018-.297 2.272.296c1.254.594.706 1.482 1.254 1.927.548.446.392.544-.235.89-.627.344 0 1.234 0 1.234-.08.247-1.019.199-1.881-.543-.863-.742-1.098.395-2.037-.247-.94-.642-.469-1.532.47-1.927zm31.068-9.136l-.011.036-.089-.1zm-5.022.035c-.078.015-.078-.099-.078-.099s.156.083.078.099zm-8.034 11.998c-.111.023.024-.097.024-.097s.086.074-.024.097zm-86.03-29.017c-.058-.08.086-.08.086-.08.004-.012-.03.158-.086.08zM126 184.955s-2.269.16-4.537.064c-2.269-.096 4.537-.064 4.537-.064zm.05 10.091s-.058.027-.094-.067.094.067.094.067zm-7.325-9.922c2.007-.807 2.275 2.586 2.275 2.586s-1.071 3.069-3.744 2.101c-2.679-.97-.539-3.88 1.469-4.687zm8.137 17.374c-.434-.848 1.081-.424 2.488-.105 1.408.318 1.515 1.59 1.515 1.59s.54 1.484-.54 1.696c-1.082.213-1.732.637-3.03 1.06-1.298.424-4.653.317-6.06-.213-1.408-.53 3.896-.636 5.736-.741 1.84-.106 1.624-.637 1.84-1.167.215-.53-1.518-1.27-1.95-2.12zm4.123 17.482c-.09-.399.02-4.975.02-4.975.057-.2.07 5.373-.02 4.975zm-5.032-4.993c.025-.07.121-.035.091.063 0 0-.115.007-.09-.063zm1.288 6.071c.65-.602.58-1.504.723-.803.144.701.434 1.103.94 2.406.505 1.303 1.88 1.903 2.096 2.103 0 0-1.301-.3-1.952-.601-.65-.302-.722 1.303-1.517.7-.795-.601-1.085-1.503-1.446-2.905-.361-1.4.506-.298 1.156-.9zm10.798-1.108s.047.136-.054.09c-.102-.045.054-.09.054-.09zm-5.043.1c-.112.009.014-.1.014-.1s.098.09-.014.1z"/><path d="M132.974 220.047c-.083-.022.076-.097.076-.097s.007.12-.076.097z"/><path d="M133.05 219.96s-.007.157-.08.057c-.074-.101.08-.058.08-.058zm-.003 4.99s.025.087-.068.099c-.093.012.068-.099.068-.099zm5.003 0s0 .108-.078.1c-.078-.009.078-.1.078-.1zm-5.07 12.028c-.059-.503-.014-9.978-.014-9.978.141 2.016.074 10.484.015 9.978zm5.06-.028c.03.04-.007.12-.072.096-.066-.024.071-.096.071-.096zm10.01 0s-.026.147-.086.084c-.06-.063.086-.084.086-.084zm2.97.04c-.389-.1 4.864.018 4.864.018.972.037-4.478.08-4.863-.018z"/><path d="M151.844 237.676c.575-1.449 0 0 .358.228.359.228.432.305.79-.458.359-.762.288-.381.503-.076.215.306.215.534.502.762.288.229.359-.228 1.436.534 1.078.762.288 1.144.288 1.144-.144 1.754-1.078 2.518-2.226 2.06-1.149-.459-.432-.306-1.078-.84-.646-.533-.502-.686-1.148-1.906-.645-1.22.001 0 .575-1.448zm4.124-12.489c.068 1.783.082 9.813.082 9.813s-.15-11.597-.082-9.813zM168.05 235s-.136-1.553-.09-4.35c.045-2.8.09 4.35.09 4.35zm-.05-10s-3.785-2.027-4.868-4.476C162.049 218.075 168 225 168 225zm-2.972 5.048c-.078.018-.078-.098-.078-.098s.156.08.078.098zM78.99 52.049a.344.344 0 01.011-.076c.016-.05.013-.01-.012.076zM52.047 77.006a.263.263 0 01-.094-.012s.035.003.094.012zm5.003 34.011c-.045-.003-.078-.012-.094-.026-.022-.019.018-.005.094.026zm86 49.933c-.032.046-.1.1-.1.1s.034-.055.1-.1z"/><path d="M180.666 61.01c.556.714 1.224 2.8 1.39 3.184.167.383 2.169-.713 2.169-.713s.333 1.428-.278 1.92c-.611.496-2.39 2.032-2.224 2.636.167.603 3.058-1.044 3.058-1.044s-1.668 1.372-2.558 2.36c-.89.988.333 2.69.722 3.184.39.494 1.335-.988 1.278.274-.055 1.262 1.057 1.044 1.78 1.867.722.823 2.39.22 2.836.823.444.604.166 1.098-.278 1.812-.445.713-.333 2.03-.223 2.854.111.824.5 1.922-.333 2.142-.834.22-1 1.043-.723 1.262.278.22 1.279.274.501.494-.779.22-1.223.714-1.39 1.593-.166.878 1.06 1.891 1.817 1.144.757-.747 1.716-.499 1.665-.2-.051.3-.96 2.49-1.514 3.089-.554.597-2.724 2.989-3.884 3.686-1.16.697-.808 1.893-.505 3.04.302 1.145 2.876 3.088 3.23 3.237.353.15 1.867 0 2.775-.448.908-.449 1.716-.1 1.816.299.1.398-.353 1.943-1.21 2.242-.858.299-2.322 1.145-3.129 1.892-.806.748-1.06 3.438-1.21 4.983-.07.721.86 1.596 1.874 2.322 0-.061.118-.038.425.118 1.375.707 3.564 2.036 4.823 2.401a.82.82 0 01.145.04c1.23.3 1.329.494 1.063.995-.264.502-.594.812.274.734a19.43 19.43 0 011.662-.047c.035-.22.018-.454-.156-.57-.387-.255-1.097-.573-1.097-.573s.967-.064 1.097-.51c.129-.445-.194-.637-.775-.637-.58 0-.84-1.083-.84-1.083s1.226.574 1.678.382c.451-.192.259-.955-.065-1.592l-.322-.638s1.032.256 1.678.318c.645.064 1.226-1.592 1.29-1.975 0 0 .452 1.592 1.42 1.338.968-.255 1.937-1.912 1.937-1.912s-1.032 3.186-.581 3.314c.451.128 1.226.318 1.226.318s-1.226 1.976-.387 2.167l-.84 1.21s.13.319.13.702c0 .382-.194-.829-.58-.064-.387.765-.646 1.21-.968 1.339-.322.127-.516.445-.71.7-.194.256-.194-.509-.775-.317-.58.191-.064 0-.58.191-.516.192-.775-.255-1.032-.7-.14-.241-.393-.482-.595-.653-.647.04-1.503.07-1.815-.052-.5-.193-.147.502-.929-.193-.781-.694-.498-.425-.404-.926.092-.502-4.748-1.962-4.748-1.962-1.816-.2-4.036-1.893-4.895-1.943-.827-.048-3.012 2.494-3.847 3.303.776.255 1.885.531 2.415.232.86-.485.8-1.397.8-1.397s.799 1.457 1.66 1.154c.86-.303 1.843-1.639 1.843-1.639s-1.353 1.882-.86 2.61c.493.729 1.046.608 1.29.668.247.06-1.783 1.638.554 1.881 0 0-2.213 1.397-1.29 1.58l.921.181s-1.844 1.154-1.046 1.275c.8.12 2.397.243 2.397.243s-1.106.425-1.967.607c-.86.182-1.23 1.457-2.153 1.518 0 0 1.169.972 1.906 1.093l.738.12s-1.23.426-1.046.972c.184.546.984.79.984.79l-.369.546.8.425s-.615 0-.984.425-.369.303.122.728c.492.426-.43.062-1.168.486-.738.425-1.783.849-1.415 1.274.37.425.615 1.274.615 1.274s-.922-.91-1.475-.789-1.23.364-1.23.364l1.722 3.036s-2.09-3.157-2.398-3.097c-.306.061-.983 1.215-1.23 1.7-.246.485 0-.85-.184-1.154-.185-.303-1.906-.667-2.521-.546s.8-.182.43-.79a2.667 2.667 0 00-.983-.91s-1.107-.425-1.291-.425c-.185 0 .86-.79 1.046-1.154.08-.159.067-.633.125-1.17a114.81 114.81 0 00-2.096-.17c-.757-.05-.1 1.494.252 2.441.354.947 2.27 1.444 2.27 1.444s-.857.05-.605.3c.252.248 2.068 5.03 2.068 5.03s-2.018-3.686-2.119-3.985c-.1-.298-.554-.797-1.262-.398-.706.398-.353.947-.605 1.396-.252.448 0 .996.554 1.145.555.15 2.22 1.196 2.22 1.196s-.505.1-.908.15c-.403.05-.203.498.302.995.506.499.757 1.893.757 1.893l-.454.448c-.454.449.757 1.644.354 1.495-.403-.15-.657.15-1.262.798s-.303 1.694-.303 1.694c-.656-.499-2.119-.249-2.422-.35-.302-.098-.857 1.893-.807 1.645.05-.249-1.463-1.644-2.069-2.143-.605-.499-.857.398-1.462.35-.606-.051-2.069-3.09-2.069-3.09l-.756.798c-.757.798-1.312.697-2.069 1.047-.757.349-1.262 1.593-1.21 2.391.05.798.908 1.545.656 1.594-.252.05-1.312.099-1.716.05-.403-.05-.555 1.046-.303 1.743.252.697.555 1.495.303 1.893-.252.398-1.968 2.093-2.825 3.238-.858 1.145 1.16 3.288 1.16 3.288s-1.917-.797-3.23-1.594c-1.097-.665-1.383-.218-1.89.15.047.98.147 1.894.353 2.027.477.308 1.504 1.198.832 1.35-.763.174-2.075-.385-1.567-1.427.198-.408.296-1.151.34-1.92-.088.06-.182.12-.289.168-.757.35-1.21 1.345-1.968 2.143-.757.797-1.413 1.793-2.522 2.59-1.11.799-1.665 1.496-2.27 1.944-.543.4 2.32 2.89.756 3.936-1.024.685-1.896.238-2.603-.599-.344 1.178.16 2.957.228 3.1 0 0-.548.028-1.486-1.835-.339-.671-.348-1.428-.202-2.102-.66-1.438-1.64-2.6-2.952-2.45-.805.093-1.464.473-1.975.916.296-.557.348-1.053-.345-1.116-1.665-.149-2.322-.05-2.322-.05-.807 3.686-1.816 3.886-3.178 3.886-1.363 0-1.514.897-1.414 1.396.1.498.303-1.695 1.463 2.64.96 3.584.746 5.633.644 6.236.124-.005.25-.007.373 0 1.18.068 1.042.068 1.806-.685.763-.754 1.18-.549 3.054-.549 1.875 0 4.79-.137 4.79-.137s.208-1.096.208-1.918c0-.822.556-1.302 1.389-.48.832.822.693 2.125.693 2.125s.625.822 2.292.96c1.666.137 1.457.067 2.569 1.713 1.11 1.645 3.194 2.056 3.54 2.81.347.754.694.274.903-.96.208-1.233.347-.549.556.275.208.822.139 1.918.694 3.016.555 1.097 2.013 1.988 2.984 2.33.972.343.417 1.509.972 2.742.556 1.234 2.082 2.33 2.638 3.496s1.25 1.234 1.318.412c.069-.822 0-1.576.556-1.645.556-.068.069 1.165.556.274.486-.891 1.805.205 2.013 1.646.208 1.438-1.25 2.467-2.082 2.604-.832.137-.486 1.029.347 1.234.832.205 3.68-1.508 3.68-1.508s.346.32-.255 1.051c-.601.731-1.806 1.052-3.055 1.69-1.25.64-.972 2.422-.231 1.6.74-.822 1.573-1.143 2.175-.731.602.412-.37 2.285-1.62 2.467-1.249.184-.74 1.234-.37 1.188.37-.046.927.183 1.158.96.231.776-.186 1.416-.88.593-.693-.822-.787-.868-1.157.777-.37 1.646-.37 4.66-.23 6.124.138 1.462 3.516 2.285 4.905 2.605 1.388.319.926-.503 2.499-.778 1.573-.274.556.32 1.85.96 1.297.64.602.411 1.944.593 1.341.184 2.545.184 3.564.184 1.018 0 .092.32-1.11.365-1.204.047-2.13.138-3.195.047-1.063-.091-1.11-1.006-2.545-.685-1.436.32-1.573.549-2.685.64-1.11.09-.787.456-1.296 1.187-.51.731-.51 1.006-1.712 1.737-1.203.73-1.203 2.33-.324 3.153.88.822 3.055 1.874 4.767 2.422 1.386.444 7.011 3.4 9.11 4.512-2.224-.936-8.646-3.828-8.646-3.828l.462.778s-6.063-2.33-7.543-2.422c-1.481-.09-1.436 2.102-.927 3.154.51 1.052 1.389 1.005 2.221 1.508.833.503 2.777 1.874 2.777 1.874s-2.822-1.371-3.331-1.646c-.51-.274-1.157-1.096-1.62-.228-.462.868-1.018-1.782-1.157-2.558-.14-.778-1.943-.047-2.082.73-.14.778.88 2.149 1.805 3.427.926 1.28 4.628 5.119 4.628 5.119l-1.943-1.6c-1.943-1.599-4.859-5.483-5.507-5.483-.648 0-3.934 3.884-4.397 4.98-.462 1.097-.509.823-1.018.412s-1.25-.548-2.22.64c-.972 1.188-1.528.366-2.13 1.6-.601 1.233.186 2.01 0 3.473-.185 1.462-.926.593-2.314-.138-1.389-.73-1.62 1.143-1.62 2.102 0 .96-.556.869-1.25.091-.693-.777.186-3.06-.693-4.432-.88-1.37.462-2.376-.648-3.29-.783-.643-1.083.869-1.192 1.819.04-.711.037-1.733-.289-1.91-.509-.274-.601 1.874-.601 1.874s-1.064-1.645-1.528-1.736c-.462-.091-.648 3.245-.787 3.336-.139.09.232-3.199-.185-3.564-.417-.366-.926-.503-1.342-2.149-.417-1.645-1.296-2.879-1.85-2.97-.557-.09-.371 1.052-1.204 2.422-.832 1.37-.693 2.786-1.25 2.604-.555-.183.232-3.335-.046-5.62-.278-2.286-1.435-2.103-2.22-1.784-.788.32-1.39-.365-1.99-.365-.602 0-2.5.228-3.195.274-.693.047.88-.502 1.806-.64.926-.137.971-.548.693-1.873s-1.527-.137-1.805-.457 1.342-1.964 1.759-2.97c.417-1.005-.972-.822-.972-.822s.972-.914.556-1.188c-.416-.273-3.517.869-5.184 1.418-.887.292-4.567.933-7.816 1.47l4.924 4.219-.109.193-4.906-4.397c-2.815.464-5.282.846-5.282.846l5.015-1.085-2.077-1.862 2.153 1.845c4.58-.992 10.603-2.297 10.688-2.324.121-.04-1.997-.01-2.614.028.674-.1 3.218-.565 4.003-1.262.926-.822.601-1.143.278-1.828-.324-.685-.602-1.508-.972-1.827-.37-.32-.37.411-.926.456-.556.047-.186-.868-.186-.868l-2.961-.183s-.51-.366.74-.457c1.25-.09 1.712.091 2.315-.365.601-.457-.74-1.6-2.129-1.874-1.388-.275-1.943-.549-3.564-.64-1.62-.091-1.805-.594-1.805-.594s1.065-.09 2.082.091c1.016.182 1.157.275 1.527.184.37-.091.74-1.28 0-2.011-.74-.731-1.11-1.965-1.11-1.965l.971 1.234s.186-.32.186-1.097c0-.777-2.268-2.924-2.87-3.426-.6-.503-.786-.366-1.157-.047-.37.32-.37-.64-.417-.777-.046-.137-1.666-1.69-1.711-1.827-.047-.138 1.897 1.187 3.054 1.827 1.158.64 1.898 1.188 2.592 1.188.693 0 .139-1.462-1.481-2.286-1.62-.822-3.24-.73-3.748-1.736-.51-1.006-.324-2.102.926-2.559 1.25-.456 1.202.64 1.157 1.509-.047.868.74.822 1.573.822.832 0 1.018.73 1.897 1.324.88.594 1.342.138 2.037-.959.693-1.096.648-2.148.278-2.605-.37-.456-.694.229-1.203.64-.509.412-.462 0-.601-.502-.14-.503-1.11-.047-1.11-.047s.23-.365.462-.777c.23-.411-1.712.137-1.712.137s1.203-.456 1.296-.868c.092-.411-1.342-.411-2.22-1.005-.88-.594-4.258-3.29-4.907-4.204-.648-.915-.555-1.234 0-1.234.556 0 3.24 3.199 4.12 4.067.878.868 1.527 1.187 2.59 1.37 1.065.184.926 0 .926 0s.093-.228.694-.64c.601-.41-.231-.319-.047-.867.186-.55.648.228.88-.366.23-.594-2.222-3.564-2.917-4.387-.693-.822-.323-1.874.602-.503.926 1.37 2.036 2.285 2.73 3.245.694.959.323-.366.51-1.188.185-.822.555-.433.693.389.139.822-.14 1.988.417 2.055.556.068.763-1.645 1.527-3.289.764-1.645 1.318-2.262 1.528-2.947.207-.685-1.597-.343-2.082-.617-.486-.274-.833.137-1.389.617s-.208-1.508 1.042-1.783c1.25-.274.971.48 1.596.48.625 0 .208-.55-.208-1.302-.417-.754.069-1.166 1.042 0 .971 1.166 1.042.685 1.596.412.556-.275-.486-.822-1.042-1.439-.555-.617-.207-1.85 1.11-1.988 1.32-.137.348 1.919.972 2.536.625.616.903-1.029 1.111-1.646.183-.542 1.17-1.03 2.206-1.095-.234-1.758-2.151-7.423-2.805-7.875-.68-.47-.034.402-.781.504-.747.102-.85-.84-1.598-1.41-.487-.371-.556-.601-1.026-.715a5.854 5.854 0 011.103 2.155c.626 2.354.626 3.773.626 3.773s-1.055-3.658-1.134-3.811c-.078-.155-.148.501-.934 2.78-.786 2.277-2.068 7.76-2.068 7.76s.814-7.838 1.635-9.42c.71-1.37.776-2.422.273-3.306-.194-.014-.428-.02-.718-.02-1.734 0-4.895 3.22-4.895 3.22s2.21-2.45 2.481-2.718c.273-.27-.645-.772-.645-.772s-3.263-.066-4.486.1c-1.223.168-.985 1.41-2.005 2.518-1.02 1.108-.612 1.309-.578 1.847.035.537-1.427 2.584-2.005 2.315-.578-.269-1.054-1.073-1.597-1.376-.544-.302.067-1.847.034-3.087-.033-1.24-1.122-2.383-2.04-2.518-.917-.135-1.902 1.443-3.093 2.518-1.19 1.073-1.665 1.208-1.87.705-.204-.504-.144-2.985-.564-4.09-.42-1.105-1.957-1.564-3.402-2.117-1.445-.553-2.562.139-3.028.506-.467.368-.327.092-3.076.322-2.75.23-2.61.92-3.402 1.426-.792.506-2.189-.597-2.656-.873-.466-.276-2.376.873-3.028 1.104-.653.23-2.889-.505-2.796-.782.093-.276.931-1.242.466-1.61-.466-.369-1.584.69-2.236.69-.652 0-.838-1.334-.793-1.84.047-.505 2.144-1.978 2.656-2.346.512-.369 3.588-2.623 3.122-3.45-.466-.828-4.007-3.681-5.264-4.508-1.258-.828-.885 3.956-.885 4.37 0 .415-1.025 3.175-1.025 3.175s.372-2.991.372-3.405c0-.415.467-5.89-.372-6.028-.838-.138-1.211 1.196-1.817 2.025-.605.827.094 1.471.094 1.471l-1.258 1.657s-.793-.23-.7-.415c.094-.185.98-1.288 1.446-2.668.466-1.38-.373-2.3-.326-2.484.046-.184.978-.322 1.164-.69.186-.369-.652-1.564-1.537-1.703-.885-.139-1.258.92-2.097 1.012-.838.093-2.424-.782-3.076-.966-.652-.183-.652.828-1.49 1.335-.838.505-2.33-.184-2.19-.139.14.046 1.725-.874 1.445-1.472-.279-.597-1.956.874-1.956.874s.838-1.288 1.257-1.334c.42-.046 1.63-.69 1.63-1.427 0-.736-1.9-.984-2.348-1.749-.447-.764.864-.911.894-1.618.03-.706-1.907-1.823-1.907-1.823s.626.912.447 1.295c-.179.381-2.74.353-3.099.381-.357.03-.108.528-.163.692-.055.164-.055 1.482-.39 1.867-.333.385-2.446 1.098-3.057 1.428-.611.329-1.169 0-2.39-.274-1.224-.275-1.057-.165-2.28.054-1.224.22-2.837-1.262-2.281-2.141.556-.878 2.169-.77 2.169-.77s.61-.769 1.278-.987c.668-.22 1.39-.878 1.89-.934.502-.054.445.495.612.55.166.054 1.168 0 1.834.274.668.274 2.169.054 2.335.054.167 0 2.725-.439 2.224-.823-.5-.385-1.112 0-1.335-.44-.223-.438.834-1.536.445-1.976-.39-.44-3.559.22-3.67 0-.112-.22-1.613-3.075-3.003-3.843-1.39-.769-3.613.055-3.613.055s2.223-1.098 3.447-2.252c1.223-1.153-.167-2.909-1.057-3.678-.89-.769-3.336-.11-3.336-.11-.166-.659 1.502-1.537 1.39-2.416-.111-.878-.945-2.854-.834-3.568.112-.713 0-2.909-.556-2.909-.422 0-3.594-.379-4.883-.513 1.18.02 3.799-.157 3.66-.75-.167-.712-2.224-3.787-2.613-4.282-.39-.494-.223-6.314-.223-6.314-.278.55-2.502.55-2.502.55-2.112-.824-5.115-.77-5.115-.77 2.224-.933 3.892.164 5.671.164 1.78 0 2.169-1.372 2.112-3.019-.055-1.646-2.28-4.117-2.057-3.898.223.22 1.834 2.196 2.112 2.086.207-.082.625-1.155.807-2.064-3.694-1.24-3.834-1.515-3.834-1.515-2.116 0-3.05-1.406-3.071-1.526-.917-.32-4.211-.963-2.462-1.084 1.749-.121 2.462.602 2.462.602s2.42.924 3.071 1.445c.47.377 2.693 1.234 3.897 1.682.02-.167.028-.32.02-.45-.056-.878.667-1.373.222-2.416-.444-1.044-1.724-3.075-3.114-4.448-1.39-1.372-.779-.438-1.501-.438-.723 0-2.946-3.075-2.836-3.35.111-.274 1.335-.933 2.446-1.043 1.112-.11 3.058 1.208 3.67 1.318.611.11 2.28-1.098 2.058-2.47-.223-1.373-.834-2.8-1.725-3.568a3.489 3.489 0 00-1.705-.809c.157-.004.427-.09.649-.565.333-.713 1.667-1.208 2.112-.934.444.275.889-.877.444-1.482-.444-.603-1.278-.878-1.168-1.043.112-.165 1-.714 1.501-.714.501 0 .055-2.085.167-2.744.111-.66.556-1.703.556-2.36 0-.66-.723-1.319-.723-2.196 0-.878 2.113-1.483 2.003-1.811-.112-.33-1.613-1.757-1.613-1.757l1.057-.878s.61.713 1.334 1.152c.723.439 1.057-.164 1.112-.988.055-.823-.444-1.482.556-2.36 1-.878 3.447-.11 3.559-1.428.111-1.318-.89-3.952-1.224-4.227-.333-.274-.111-3.019-.111-3.019 2.28-.659 3.892 3.624 3.892 3.624.111-1.208 1.334-.603 1.556-.055.223.55-1.112 2.086-.278 2.47.834.385 2.28-.933 2.28-.933-.333-3.35 2.046-4.15 2.046-4.15s-.047.684.556.867c.602.183 1.295-2.239 1.295-2.239s-.231 1.919.694 1.919c.7 0 1.083-.995 1.187-1.359-.041.527.154 2.502.154 2.502l1.203-.823-.74 1.371.787.183s-.925.411-1.11.547c-.186.137.455.412.455.412s-.622.47-.969 1.353c-.345.883 1.453 0 1.453 0s.65-1.037 2.273-1.32c1.623-.282 3.438 1.32 3.438 1.32s.73-.927.451-1.694c-.278-.77.556-2.855.501-2.086-.055.77 1.335 2.745 1.78 3.02.444.274.888-1.319 1-2.142.111-.824-.779.054-1.557 0-.778-.055.223-1.428.445-1.757.223-.329.333-1.372.39-2.251.054-.878.444-.988.444-2.142 0-1.153.444-2.141 1.112-2.47.667-.329 1.278.77 1.556 1.977.278 1.208.39 1.482 1.167 2.306.779.823 1.39.769 1.501 1.043.112.275-.556 2.196-.39 2.416.167.22 5.172-4.722 5.06-4.501-.11.22-4.169 4.501-4.28 4.94-.112.439-.112 1.262-.278 2.086-.167.823-1.668 2.251-1.78 2.854-.111.604.78 1.373.946 1.373.166 0 0-.824.055-1.263.055-.438 1.501-1.043 2.057-.933.556.11 2.39 1.811 2.946 2.47.556.66.39 1.977.611 2.141.223.165 1.112-.933 1.112-.933l.946.22s-.556 1.154-.223 1.811c.333.66.945-1.428.945-1.428s.111.385.556.77c.444.384-.112-.66-.112-.66s1.112-.11 2.224-.11c.366 0 .829-.237 1.28-.536-.193-.146-.449-.275-.732-.246-.607.06-1.577.06-1.577.06s.242-.6-.121-.72c-.363-.119-.607-.539-.91-.897-.303-.36-.546-.24-.91-.36-.363-.119-.06-.658-.12-1.077-.061-.418-1.152-.418-1.88-.299-.728.12.849-.539.849-.898 0-.358-1.212-1.376-1.394-1.856-.182-.478.363.18 1.03.479 0 0 .243-1.078-.242-1.856-.484-.779-.788-1.677-.788-1.677s1.454 1.916 1.698 1.376c.242-.54.91-2.575 2.182-2.575 1.273 0 1.699-.48 2.062-.778.363-.299.424.478.607.659.183.18 1.273 1.916 1.577 1.856.302-.06 2.91-2.394 2.91-2.394s-1.698 1.916-1.333 2.334c.363.419 1.698 1.617 1.698 1.617s.728.24.728-.719c0-.958.728-1.316.728-1.316s-.485 1.557.12 1.796c.608.239 1.699.359 2.183.6 0 0 .789-1.618.728-2.096-.06-.478-1.454-1.737-1.454-1.737l2.182 1.437c.182.12.546-1.197 1.88-1.197 1.23 0 2.457.914 2.689 1.198-.186-.363-.882-2.063.524-2.216 1.637-.18 2.425 1.257 2.425 2.035 0 .779-1.455 1.377-1.455 1.377s.424 1.197.607 1.197h1.454s-.06-4.431-.12-4.97c-.061-.537 1.151 2.096 1.697 1.377.547-.719.182-1.856.182-1.856s1.212 1.317 1.455.779c.242-.54-.243-2.155-.243-2.155s.668 1.796 1.455 1.796c.788 0 1.333.48 1.516.54.182.06.97-1.976.91-2.275-.037-.18-.336-.728-.636-1.175.575.578 1.423 1.308 1.606 1.055.303-.418.486-.958.667-.958.182 0 .668.72.668.72l.181-1.198.547 1.078s.849-1.257 1.03-1.138c.182.12 0 1.257.424 1.498.424.239 1.698.12 2.001-.12.303-.239-.303.48.06 1.197.364.719.85 1.018 1.395 1.317.546.299.06.838-.182 1.197-.242.359-.363 1.376-.06 1.436.302.06.606.18.606.18s-.91.119-1.212.48c-.303.358-.667 2.034-.667 2.034s-.061-.298-1.213-.358c-1.152-.06-1.516 1.077-1.516 1.077s-.06-.418-.97-.54c-.91-.119-1.759-.059-1.88-.358s-.363-1.617-.85-1.617c-.483 0-1.09.06-1.09.06s-.607 1.376-.547 2.155c.06.778-.302.48-.484.299-.182-.18-.91.12-.91.299 0 .18-.606.358-.606.358s.181-.418-.303-.418c-.485 0-.91.24-1.091.418-.182.18-.303-.179-.85-.718-.546-.54-1.333-1.018-1.333-1.018s-.546.54-.607.898c-.06.359-.363 1.197.364 1.497 0 0-1.273.839-1.273 1.078 0 .24-.728 1.497-.728 1.497s-.121-.358-1.213-.54c-1.09-.179-.988 1.317-.988 1.317s-.77-.418-1.194-.718c-.424-.3-1.152-.18-1.212.659-.06.838-.424 1.376-.424 2.155 0 .778-.242.418 0 .898.242.48-.242 1.017-.242 1.017s-.85-1.137-1.031-1.376c-.182-.24 1.091-.359 1.273-1.317.181-.957-1.334-1.137-2.062-1.316-.728-.18-.46 1.804-.46 1.804s-.389-2.104-.874-2.164c-.486-.06-1.031.54-1.213.54-.181 0-1.394-.18-1.88-.24-.484-.06.424 1.557.424 1.557s-.484-.778-1.577-1.018c-.38-.082-.774-.042-1.128.047-.125.62-.259 1.345-.259 1.828 0 .77.89-.274.89-.274s-.112.659-.056 1.977c.055 1.318.333.603 1.169.823.835.22 1.111 1.208 1.111 1.208.501-.22.556-2.47.723-3.513.166-1.044 1.556-1.098 2.668-.77 1.112.33.556 2.142.611 2.416.055.275 1.834.988 1.89 1.537.056.549-.945 1.921-.945 1.921s.278.495 1.725.77c1.446.274 1.278.328 1.724.548.446.22.945-.987.945-.987s.112 1.372.89 1.428c.777.055.778-1.153 1.056-.55.278.604.5.11 1.278-.164.78-.274 2.058-1.921 2.502-2.965.445-1.043 1.39-.823 2.112-1.702.723-.878.946-1.592.946-1.592l.333.987s.166-.439.722-.659c.556-.22 1.946.55 1.946.55.166-.44-1.446-2.032-1.446-2.032h.61l.167-1.592s1-.66 1.502-.604c.5.055 1.056.055 1.39-.329.332-.384 1-.548.945.055-.055.603-.445 2.744-.055 2.69.39-.054 1.056-.494 1.779.054.722.55 2.725-.438 2.725-.438s-1.167 1.043-1.057 1.097c.111.055 1.446.934 2.168 1.044.723.11 2.447-.713 2.447-.713s-.333.328-.333.877c0 .55 1.501.824 1.89.66.39-.165 1.892-.66 2.17-.385.278.274.833.549 1.556.384.722-.164.61-1.262.61-1.262s.167.439.835.66c.667.22 3.891-.879 5.338-1.373 1.446-.495.333-3.404-.112-3.953-.444-.549-1.946-4.666-3.114-5.93-1.167-1.262-2.502-2.305-2.668-4.008-.167-1.702 1.446-1.482 2.224-1.153.777.329 2.002 3.514 2.168 4.062.167.55 3.17 5.215 4.226 6.479 1.057 1.262 4.949 1.537 6.005 1.152 1.057-.384 3.948-1.647 3.948-1.647.112-1.428 2.003-3.403 2.113-3.239.11.165 1.39.165 2.002-.11.61-.274.722-3.13.722-3.13s.055 1.154.39 1.703c.333.55 1.668-.823 2.558-.933.89-.11 3.613 3.514 4.226 3.788.61.275 1.668-1.043 2.891-2.141s2.335-1.977 2.558-.824c.223 1.153-.333 3.678-.5 4.447-.16.778 1.397 1.162 1.953 1.875zm8.714 51.619l.353-.106s-.58-.484-1.044-.921c-1.15-.389-2.396-.734-2.396-.734s-.403-.847-.454.2c-.025.491 1.713 1.082 3.54 1.56zM136 223.935c.044-.186.516-.718.364-.94-.153-.223-.32-.733-.713-.46-.392.273-.873 1.472-.85 3.49 0-.002 1.155-1.904 1.2-2.09zm10.48-64.34c-.303-.3-2.17.2-2.02.349.06.058.269.924.5 1.95.01.04.02.083.028.125a4.19 4.19 0 01.207-.487c-.388-1.335 1.566-1.657 1.284-1.937zm34.727-44.158c-.073-.251-.766-.755-1.323-1.127-.472.53-.338 1.884-.21 2.663.1-.063.201-.13.303-.2.615-.425 1.353-.912 1.23-1.336zm-5.864 8.486c.213 1.406 1.004 2.019 1.453 2.256.082-.664.285-1.402.908-1.758 1.168-.667 2.705-.728 2.95-1.274.247-.547 0-1.397-.553-1.093a1.897 1.897 0 00-.58.46c.098-.2.181-.572-.28-.946-.4-.322-2.308-.406-3.47-.487-.446.748-.592 1.765-.428 2.842zm.562-3.048c.877.073 2.248.187 2.597-.158.307-.303.206-.652.06-.975-.277.04-.606.09-1 .144a2.407 2.407 0 00-1.657.989zm1.557-4.326c-.33.281.077.883.64 1.474-.021-.341.023-.61.216-.583.316.045.733-.109 1.176-.361-.834-1.252-1.351-1.113-2.032-.53zm-51.507-69.597a.412.412 0 01.095.098c-.069-.06-.117-.11-.095-.098z"/><path d="M125.996 59.05s.006-.043-.002-.1c.026.055.002.1.002.1zm-1.048 1.308c-1.281-.145-4.26-2.34-3.921-3.056.338-.716 1.044-.073 2.482 1.02 1.438 1.092 1.363 1.164 1.967 1.236.402.049.502 1.488.524 2.442-.057-.684-.283-1.554-1.052-1.642zm7.258-21.275c-1.141.816-2.23.917-2.23.917-1.658-.204-1.866-1.834-1.969-2.852-.103-1.019.933-2.037 1.97-2.14 1.036-.102 2.591.815 2.8 1.324.207.51.57 1.935-.571 2.751zm15.453-9.236S146 28.637 146 27.83c0-.807 1.231-2.767 2.301-2.825 1.07-.058 1.981.519 2.355 1.326.375.808.536 1.96 0 2.537-.535.576-1.925 1.499-2.997.98zm8.391-7.797c-.059-.056-.1-.1-.1-.1s.049.034.1.1zm4.9 0c-.005-.036.016-.07.068-.092.067-.03.021.028-.067.092zm.038 2.913l.005.007c.041.103.001.076-.005-.007z"/><path d="M162.411 27.356c-.197 0-.328.543-.855 1.086-.526.543 0 1.396 0 1.396s-.393.078-1.577.388c-.717.19-.806.576-.795.766-.15-.367-1.246.086-1.506-.068-.262-.155-.789-.698-1.38-.853-.591-.155-.197.777-.526.777s-.789.543-.657 1.009c.13.465.372 7.143.372 7.143-.271-2.242-.752-5.85-.824-6.377-.12.232-1.136.931-1.652.863-.591-.078-.526.543-.526.543s-.591-.31-1.051-1.164c-.46-.853-.527-.853-.33-1.708.198-.853.395-.388.33-1.24-.067-.854.328-2.64.393-2.328.067.31.394 1.01.789.698.394-.31.46-1.784.46-1.784s.46.853.46.233c0-.621.986-2.25.986-2.25s-.066 1.164-.066 1.784c0 .62.986.155 1.577.155s.066-.777.394-1.785c.192-.592-.089-1.022-.355-1.278.335.24.824.564 1.144.657.526.155.986-1.784.986-1.784l.526.465c.286.252.726-.25 1.006-.7.029.397.318.83.834.933.788.155 1.577-1.165 1.117-.465-.46.698.263 1.396.329 1.94s.986.465.986.465l-.789 1.553c.003-.001.398.93.2.93zM185.05 41.95c-.053.066-.1.1-.1.1s.053-.084.1-.1z"/><path d="M184.99 41.915c-.103.932-1.133 3.305-1.646 3.644-.515.338-.978 1.441-.978 1.441s-.978-.255-1.338-1.441c-.36-1.187-1.028-1.356-1.028-1.356s.618-.68.618-1.95c0-.56-.202-.676-.426-.629.313-.243.657-.602.786-1.064.257-.932-.258-2.628-.258-2.628s.463.338 1.286.679c.823.338.515-.763.617-1.018.103-.255.515-.424.618-.085.103.338.515-.508.515-.508s.257.086.462.424c.206.338.874 3.56.771 4.491zm35.797 15.229c.645.378.968.251.968.251s-.323.314-.403.88c-.08.566-.08 1.447.403 1.447.486 0-1.372.754-.968 1.446l.403.692s-.889-.127-1.777.565c-.889.692-1.777 1.509-2.584 1.571-.808.063-1.857-.691-1.857-.691s-1.211-.127-1.291.502c-.08.63 0-1.132.403-1.194.403-.063.16-2.138.323-2.326.162-.189-1.695.314-2.26.566-.566.251.565-.944 2.422-.755 0 0 .646-1.76.163-2.138a2.316 2.316 0 00-1.05-.44s1.778-.44 2.746-.251c0 0 .726-2.012 1.212-1.95.485.063.403 1.447 1.614.944C220.466 55.76 222 54 222 54s-1.86 2.766-1.213 3.144zM177.813 1.938s-.864 1.758-1.656 2.424c-.791.667-1.944.848-2.447.365-.505-.485-1.15-1.515-.287-2.667S174.79.848 175.727.606c.935-.242 1.079-.606 1.079-.606s.215.848.863 1.212c.649.361.144.726.144.726zm11.448 36.699c-.72.373-3.028 1.363-3.028 1.363s-.434-1.856-1.009-2.353c-.578-.496 0-1.363 1.298-2.105 1.297-.742 2.595-.618 3.173-.248.575.372.286 2.974-.434 3.343zm11.631 30.314a3.55 3.55 0 01-1.273-.018c-1.118-.217-1.802-1.162-1.576-2.093.078-.32.159-.61.228-.754.21-.434 1.571-2.086 2.516-2.086.946 0 2.097 1.217 2.202 2.17.105.955-.525 2.52-2.097 2.781zm2.759 14.452c-1.269.672-.873 2.803-1.428 2.58-.555-.224-2.381-.896-3.016-1.906-.634-1.009-1.112.45-1.112.45s-.159-3.59-.396-3.815c-.238-.225-2.46-.225-2.699-.225 0 0 2.54-.672 3.016-1.346.475-.673 0-3.141 0-3.141s1.19.112 2.301 1.122c1.112 1.01 2.381 1.234 3.334 2.243.953 1.01 1.349 4.15 1.349 4.15s-.08-.787-1.349-.112zM191.132 86L190 84.064S193.113 81 194.622 81c1.51.003-1.887.485-3.49 5z"/><path d="M199.973 80.954c-.427.01-4.973.096-4.973.096.57-.106 5.4-.106 4.973-.096z"/><path d="M198 82c1.183-3.769 5.319-5.563 4.98-4.844C202.644 77.871 198 82 198 82zm18.825-7.77c-1.087.903-5.085 5.348-4.812 4.707 1.63-3.8 5.898-5.612 4.812-4.708zm-5.365 17.3c.386-.068.039 1.63.193 1.902s.347.338.347.338-.579.273-.579 1.087.116 2.648-.193 2.376c0 0 .387-1.562-.27-1.494-.656.068-.772.543-1.197.543-.425 0-.425-1.086-1.042-.407-.618.679-1.584 1.97-1.892 2.31-.31.339-.618-.748-.773-.475-.154.272-.927 1.29-1.042 1.29-.116 0 .656-.815.617-1.495-.038-.679-.424-1.086-.54-1.426-.117-.339.85-3.532.888-3.871.039-.34-.464-1.359-.386-2.242.077-.883.155 1.833.772 1.697.618-.136.734-1.358 1.12-1.154.386.204.425 1.086 1.042 1.018.618-.068.965-.407.927-.815-.033-.36-.128-1.46-.15-1.712.026.28.174 1.577.691 1.577.58 0 1.004-.543 1.004-.543s.077 1.564.463 1.496zm-4.457 2.488l-.006-.036.006.036zM207.02 109c.037.73.037 2.91.016 4.368-.02 1.455-.042.182-.078-1.637-.036-1.823.062-2.731.062-2.731zm7.143 8.3c.445-.792 1.78-1.388 2.352-1.29.573.1.508 1.39.445 2.084-.063.694-.573 1.785-1.4 2.481-.826.694-.763.396-1.59.099-.826-.298-1.97-1.588-1.97-1.588s.445-.497.89-.596c.446-.099.826-.396 1.273-1.19zm-29.128 3.65c-.034.062-.07.1-.07.1s.017-.04.07-.1zm-64.619-94.986a9.365 9.365 0 00-.468.874s-.468-.813-.736-.75c-.268.063-.804.624-1.072.874-.267.25-.468-.813-.736-1.25-.267-.438-.335-1.001-.736-1.188-.4-.187-.668-.814-.668-.814s.4.374.736-.563c.335-.938.335-.5.335-.938 0-.437.804-.063 1.14 0 .335.063.87 0 .87 0s-.067.564 1.005.875c1.071.313.936 1.25.87 1.688-.072.442-.272.755-.54 1.192zm.561 4.043c-.031-.017-.038-.047-.007-.052.031-.005.08-.013.08.02 0 .032-.045.075-.045.075s.003-.027-.028-.043zm2.327 8.423c-.83.49-1.938 1.275-2.284 1.57v-.785c-.208-1.569 1.246-4.02 1.246-5.49 0-1.47 1.662-3.725 1.662-3.725l.276.881c.276.882.692.1 1.316.295.622.195.554 1.666.276 2.94-.276 1.275-1.66 3.825-2.492 4.315zm-12.997.865c-2.21-.584-.949-3.801-.949-3.801s2.684-.879 3.949-.292c1.264.583.474 3.215.159 4.24-.315 1.023-.95.436-3.159-.147zm-2.874 7.698c-.994-.08-1.563-.08-2.56-1.582-.994-1.504-1.35-2.926.073-3.243 1.42-.316 2.273-.158 2.629.237.534.595 1.493 2.215 1.421 3.164-.072.948-.569 1.502-1.563 1.424zm6.297 4.922c-1.13-.575-1.303-1.366-2.432-1.869-1.095-.488-1.782-2.057-2.298-2.805l1.081-.07c1.13-.072 2.693-.502 3.039.36.347.862-.695 1.15-.868 1.796-.173.646 2.606 3.163 1.477 2.588zm-4.742-9.937l.024.042-.024.002v-.044zm27.821-1.945c-.848.028-3.809.012-3.809.012l.282-.027s1.41-.056 2.116-.064a51.15 51.15 0 012.398.024c.566.027-.14.027-.987.055zM27.355 144.44c.36-.439.455-.962.263-1.44.646.229.481.945 1.137 1.163.19-.238.574-.396.975-.479.282-.058.608-.084.87.005.263.089.409.326.226.474a6.231 6.231 0 011.782-.735c.34.334.596.704.756 1.087.515-.142 1.099.15 1.3.483.202.332.173.703.336 1.042a8.49 8.49 0 00-1.636.18c.304.241.498.536.56.841-.064-.327-1.185-.423-1.55-.393-.602.05-1.35 1.309-1.927 1.332-.532.021-.612-1.147-1.169-1.117-.802.045-1.728.477-2.448.701-.291-.231-.296-.587-.012-.822.25-.207.727-.402.574-.644-.141-.224-.65-.195-1.024-.141-.371.055-.909.024-.95-.215.44-.15.95-.215 1.449-.182.18-.448-.309-.96-1.024-1.066-.286-.043-.607-.032-.843-.141.204-.241.73-.292 1.147-.224.418.064.79.219 1.208.291zm-.377 16.548l.046.024c-.038-.018-.056-.027-.046-.024z"/><path d="M22.733 159.764c.21.1.898.413 1.7.752 1.674.028 3.607.027 3.988-.124.803-.315.03-1.521.775-1.32.744.2.894-.03 1.251-.403.357-.373.507-.918 1.817-1.033 1.31-.115.864-1.636 1.936-1.723 1.072-.086.924-1.177.745-1.694-.18-.517.418-1.033.565 0 .15 1.033-.327 1.292-.208 1.694.12.402 1.43-.947 1.64-1.148.207-.2.03 1.521.714 1.062.685-.459 1.043-.632 2.412-.688 1.371-.059 2.534-.26 2.92-.403.387-.144 1.043-1.607 1.19-1.809.15-.2-.476 1.58-.207 1.55.268-.029 1.49-.058 1.877-.488s.446-.688.924-.717c.477-.03.566-.23.596-1.091.03-.862-.18-1.206-.388-1.436-.208-.23.775-.402.834-1.148.06-.747-.507-.89-.418-1.78.09-.89.715-1.176 1.103-1.291.387-.115.476.06 1.013-.228.537-.288-.507.201.894 0 1.4-.202 1.251-.26.804.171-.447.43-.834.833-.566 1.35.269.517.208.144.03.832-.178.689.03.66.208.862.18.2.09.66.477.861.387.2.387.66.685 1.006.298.344.953-.173.924-.603-.03-.43-.447-.747-.715-.517-.268.23.12-.718.327-1.35.208-.632.715-.632 1.072-.862.358-.23-.298.517-.476 1.292-.178.774-.207.832.582 1.206.616-.021.64-.044 1.495-.378.856-.333 1.204-.534 1.48-2.362.278-1.828.393-2.341.486-1.204.093 1.138-.809 3.188-.532 3.745.278.556.44.067.832.378.393.313.578 1.003 1.18 1.025.601.023 1.758.201 1.457.268-.301.068-.902-.045-.879.379.023.423.393.379.833.802.44.424 0 .557.832.356.833-.2 4.234.223 2.637.2-1.596-.022-.463.157-.647.625a1.435 1.435 0 01-.786.78c-.185.067.416-.692.07-1.048-.347-.356-1.48-.045-1.735.29-.255.334-.047 1.605.07 1.917.114.313.486 1.316.416 1.27-.07-.044-.578-.044-.764.201-.185.246-.555.469-1.04.469-.487 0-.973.847-.765 1.18.208.334.047 1.561.301 1.895.255.334.601-.624.972-1.225.37-.602-.093.668-.023.98.07.313 2.198.534 1.087.557-1.11.022-1.342-.825-1.272.11.07.937.486.892-.231 1.516-.718.624-1.92 2.654-1.99 3.344-.07.691-.254 1.293.347 1.315.601.022 2.522-.401 3.17-.98.647-.58-.51 1.448-3.47 1.583-.047 1.895.926 2.185.972 1.65.047-.535.555.468.74.668.186.2.487-.78.625-.133.139.646-.67.736-.416 1.025.255.29.764.802.047 1.827-.718 1.025 1.734-.155 1.827.624.094.78-1.087.825-1.827 1.316-.741.49-1.041 1.382-.926 2.14.115.757 2.174.892.994 1.426-1.18.534-.764.802-1.874 1.27-1.11.469-1.064 1.048-.695 1.85.37.802.764.825.81 1.94.046 1.115 2.174 1.716.994 2.608-1.18.892-1.457-.2-1.48 1.003-.024 1.203 1.295 1.604 1.225 2.385-.07.78-.624.937-1.365.223-.74-.714-.671.534-1.319.379-.647-.156-2.59-.58-2.22-1.16.37-.58 1.341-.669.809-.757-.533-.09-1.62-.178-2.083.155-.463.334-1.412.246-1.203 1.07.208.825.509 1.584-.232 2.319-.74.736-.994 1.671-1.295.869-.301-.802-1.204-.401-1.087-.045.115.356 2.522 2.942 2.405 4.503-1.665-2.385-2.567-4.28-3.006-4.08-.44.201-1.018 1.427-.533 2.096.486.669 1.851 1.27.994 2.095-.856.825.301 1.226-.902 1.538-1.204.313-.856-.624-.533-.914.325-.29.393-.98.138-1.56-.254-.58.094-1.405-.3-1.918-.394-.513-.903-.4-1.759.023-.856.423-2.868.957-2.244 1.649.624.691 1.851 1.16 1.134 1.27-.718.111-1.597 0-1.99.557s-1.48 1.025-1.365 1.382c.115.356.208 1.403-.185.601s-.185-1.115-.809-1.115c-.624 0 .37 1.181-.161.758-.533-.424-.51-1.249-1.064-.803-.555.446.879 1.74.161 1.093-.717-.647-.624-.87-.925-.334-.302.534-1.134.714-1.11 1.315.023.602.415 1.181-.07.78-.487-.4-.116-.468-1.226-.423-1.11.045-1.688-.045-2.105-.068-.416-.022-1.04.424-.23.602.808.178 1.642-.313.971.356-.67.67-1.596.446-2.104-.133-.51-.58-1.134.557-1.064 0 .07-.557.278-.669-.047-.914-.324-.246-1.596-.803-1.665-.915-.07-.11-.254.424-.462.023-.209-.401-1.041.223-1.18-.023-.139-.245-.856-.378-.926-.378-.07 0 .185 1.448.185 1.338 0-.111.832 1.327.651 1.172 0 0-.953-.746-1.162-1.55-.745-.029-2.265 1.78-1.996 1.235.268-.545.473-.689-.032-.803-.505-.115-1.04.488-1.37.803-.328.315.061-.747 0-1.12-.06-.373-2.204-.115-1.22-.344.983-.23.625-1.177.417-1.263-.208-.086-1.072-.173-1.728-1.492-1.162 2.01-4.409 5.168-3.486 3.645.924-1.521 3.813-3.388 3.129-3.962-.685-.574-2.413-1.406-3.605-2.785-1.191-1.377-.745-2.21-.775-3.015-.03-.803-.447-.774-.447-1.98s.507-1.924-.775-1.263c-1.281.66-2.234.374-1.847-.373.388-.747 1.967-2.612 1.997-3.76.03-1.148-.656-1.895-.804-2.01-.148-.114 1.132-.172.983-.43-.15-.258-.596-.603 0-.545.596.058.507.03.507-.632 0-.66.536-.832.357-1.607-.18-.774-2.503-1.694-1.936-1.694.924.03 1.698-.315 1.907-.89.208-.574.418-1.35-.983-1.98-1.4-.633 1.34.028 1.698 0 .357-.03 1.282-1.29.953-1.908-.327-.618.745.042 1.549-.876.803-.919 2.174-2.039 1.013-2.842-1.163-.804-2.027-1.838-.656-1.81 1.37.03 2.652-.172 3.337-.774.684-.603 1.936-1.291 2.293-1.435.357-.144.299-.689-.268-.89-.566-.201-2.413-.115-3.367-.288-.955-.173 2.71-.115 3.813-.345 1.102-.23 4.2-.43 1.37-.947-2.83-.517-4.945-1.292-2.74-.918 2.204.373 4.525.747 3.9.344-.342-.22-1.567-.94-2.633-1.554a19.88 19.88 0 00-2.073-.226c-1.198-.056.054-.002 1.735.03a69.423 69.423 0 00-1.306-.74zm4.822 1.806c.466-.054-.745-.422-2.314-.717 1.004.405 1.993.754 2.314.717zM12.05 206.95a.442.442 0 01-.1.1.447.447 0 01.1-.1zm-2.001.02v.008l.001.024c0 .015-.005.015-.014.022-.007.005-.012.014-.02.02-.01.007-.021.007-.033.005-.008-.002-.023-.005-.03-.013-.004-.006-.006-.014.004-.015-.002-.005-.004-.01-.004-.015.001 0 .003-.003.005-.003v-.013c.003 0 .006-.003.007-.007 0-.004 0-.009.002-.013.003-.004.008-.005.013-.005.004 0 .01.002.013 0 .008-.003.012-.014.02-.015l.01.003a2.112 2.112 0 00.026.017zm-5.191-.05c-.31.31-.742-.377-1.02-.5-.412-.18-.846.094-1.261.12-.48.03-.94-.254-1.409-.391-.268-.08-.55-.114-.792-.305-.242-.19-.434-.605-.36-1a.81.81 0 01.448-.59c.2-.09.411-.1.614-.158.036-.009.075-.026.09-.073.016-.05-.002-.105-.017-.152l-.534-1.512a4.71 4.71 0 012.414-.318c.184.023.37.061.534.187.14.105.256.272.371.433.263.37.525.745.787 1.116.11.158.22.439.101.58-.201.239-.264.145-.183.605.05.295.183.535.26.81.084.306.191.915-.043 1.148zm12.12.059c.006-.009 0-.02-.005-.029.01 0 .02.002.03.005.024.009.047.03.047.056 0 .03-.058.047-.08.035a.039.039 0 01-.02-.034c.001-.024.018-.019.028-.033zm-5.021-16.986c.016-.012.035-.02.048-.035l.005-.005a.015.015 0 01.018 0 .03.03 0 01.013.014c.01.018.02.087-.016.083-.013-.002-.024-.021-.036-.026-.01-.004-.046-.005-.038-.024a.018.018 0 01.006-.007z"/><path d="M16.925 191.7c.105.314.111.678-.055.965a1.764 1.764 0 01-.35.392l-1.457 1.326c-.252.23-.513.463-.836.569-.875.283-1.198-.76-1.72-1.242-.283-.261-.56-.61-.498-.996.052-.33.338-.563.482-.862.249-.51.098-1.2.495-1.602.301-.308.805-.299 1.208-.147.402.153.752.417 1.152.576.104.044.23.075.326.016.064-.04.101-.112.162-.156.206-.152.47.087.618.299.178.268.369.545.473.862z"/><path d="M12.696 190.036c.451-.008.802-.018 1.177-.028.896-.023 1.957-.043 3.127-.058-.094.013-.35.026-.73.036-.292.008-.65.014-1.007.02-.693.013-1.397.025-2.173.034-.166.002-.91.013-1.055.01-.205-.006.55-.013.661-.014z"/><path d="M11.96 189.95c.013.01.02.02.022.031.002.01 0 .02.014.025.006.003.014.004.021.006.013.002.025.007.03.014.006.007.003.016-.008.02a.081.081 0 01-.046.001c-.014-.003-.028-.008-.043-.01l.005-.005a.26.26 0 01.006-.082zm.01 8.011a.02.02 0 01.01-.009c.016-.006.038.002.048.011.027.024.03.053.007.078a.021.021 0 01-.01.006.053.053 0 01-.02.003.158.158 0 01-.055-.01l.006-.003a.105.105 0 01.015-.076zm4.997-7.991c.02-.01.04-.017.061-.02.006 0 .013 0 .017.006.007.01.005.03.002.044a.226.226 0 01-.018.05l-.017-.042v-.016a.413.413 0 01-.062.003c0-.014.01-.021.017-.025zm-.642-22.968c-.15.147-.314.263-.481.377-.166.114-.33.228-.496.345-.197.136-.495.33-.727.262-.344-.096-.259-.409-.49-.612-.451-.401-.761.26-1.243-.04-.318-.198-.723-1.239-.827-1.63-.223-.833.195-1.39.726-1.842.587-.496 1.26-.922 1.967-.855.618.06 1.171.488 1.694.905.113.089.227.18.312.307.098.144.155.325.191.508.163.825-.091 1.752-.626 2.275zm-5.565-3.979l-.21.012c-.336-.006-.705.006-1.055.011-.166.003-.354.004-.539.004-.977.001-1.903-.027-1.955-.059-.003-.002-.003-.005.041-.008.04-.002.107-.003.17-.004.9-.018 1.925-.027 2.965-.029.598 0 1.28.003 1.63.018.244.012.258.028.033.039-.22.012-.667.018-1.08.016zm1.257 15.009c-.02.01-.042.022-.064.017l-.003-.018a.172.172 0 00.032-.063c.001-.007.004-.016.013-.018.005 0 .01.002.015.004.02.01.042.023.04.042-.001.016-.018.027-.033.036zm20.957-22.265c-.654.05-1.725.62-2.237-.233-.127-.209-.195-.488-.295-.73-.101-.243-.258-.462-.442-.445.034-.578.383-.977.722-1.202.34-.226.717-.376.98-.784.104-.163.182-.359.286-.522.239-.375.578-.538.901-.687.208-.096.424-.193.64-.156.398.07.705.568.952 1.063.31.614.597 1.365.5 2.128-.193 1.462-1.258 1.515-2.007 1.568zM30.016 161c-.064-.462.071-.935.281-1.324.213-.392.5-.714.778-1.036.627-.726 1.198-1.743 1.915-2.329.4-.326 1.695-.52 1.973.062.103.218-.03.482-.155.676-.271.423-.543.85-.81 1.273-.207.326-.42.656-.695.893-.155.132-.33.236-.468.392-.139.155-.245.38-.21.605a20.52 20.52 0 00-2.609.788zM35 146.037c.23-.093.518.003.706.136.19.133.323.304.535.415.412.216.967.148 1.475.143a4.994 4.994 0 011.824.325l-1.286.189c-.236.035-.487.075-.655.203-.294.227-.185.591-.054.888.078.184.157.365.24.549.037.085.082.178.181.231.09.048.203.055.312.068.954.113 1.725.782 1.722 1.492a.322.322 0 01-.045.183c-.157.232-.63.136-.94.008l-.901-.108-1.842-2.07c-.065-.076-.133-.151-.154-.24-.024-.095.014-.193.041-.289.226-.79-.25-1.663-1.159-2.123zm5.014 1.458c-.015-.722-.024-1.492-.035-2.236-.006-.455-.01-1.958-.029-2.259.04.653.068 1.529.078 2.464.004.374.006.751.008 1.13.003.307.015.798.014 1.084-.004.62-.028.224-.036-.183zm3.948-16.697l-.637-.13c-.811-.556-1.066-1.482-1.274-2.336-.036-.158-.077-.318-.03-.476.044-.155.165-.285.282-.41.17-.182.342-.361.513-.544.268-.287.55-.58.932-.757.382-.177.898-.213 1.24.013.288.194.389.515.6.77.299.353.805.555 1.117.898.455.503.375 1.285-.181 1.714-.158.122-.346.218-.493.346-.336.29-.436.746-.248 1.114a8.511 8.511 0 00-1.82-.202zm17.599.706c-.28.147-.677.203-1.053.263-.566.088-1.12.193-1.667.313-.365.08-.736.172-1.003.328-.19.11-.32.248-.514.355-.624.345-1.704.272-2.491.044-.784-.23-1.438-.584-2.256-.776-.179-.042-.376-.081-.483-.168-.107-.086-.101-.199-.085-.303.034-.215.101-.433.285-.625.261-.27.728-.459 1.117-.68 1.003-.571 1.595-1.176 3.123-1.34.606-.066 1.136-.12 1.67-.307.578-.202 1.197-.71 1.994-.59.403.06.643.282.819.486.56.66.89 1.375.973 2.1.035.32-.005.678-.429.9z"/><path d="M56.36 131.541c-.464.061-.905.339-1.288.774-.383.433-.615.977-1.076.5-.765-.794-1.283-2.351-1.673-3.655-.15-.506-.295-1.033-.32-1.598-.026-.62.092-1.23.21-1.82.147-.735.325-1.537.735-1.897.354-.313.782-.203 1.183-.174.4.028.865-.097 1.072-.671.527.355.827 1.299.973 2.219.147.92.187 1.892.417 2.765.098.378.232.731.31 1.124.1.513.1 1.064.096 1.603 0 .152-.001.315-.045.451-.104.325-.373.35-.595.38zM121 178.622a4.73 4.73 0 001.644.186c-.074-.356-.149-.722-.082-1.08.067-.357.307-.71.681-.821.22-.065.46-.042.685-.083.351-.066.658-.301.794-.607.068-.154.093-.337.008-.483-.065-.115-.186-.191-.303-.265l-1.134-.704a5.606 5.606 0 001.704.127c.223-.263.272-.623.212-.953-.059-.33-.215-.637-.369-.939.654.156.915.88 1.43 1.288.047.037.102.074.166.071.062-.002.115-.041.16-.079l.576-.465c.156.144.281.318.361.507a3.406 3.406 0 011.035-.124c.226.008.492.064.578.26.06.138.005.297.036.443.058.271.374.412.652.512l1.166.42a8.902 8.902 0 00-1.2.123.37.37 0 00-.184.068c-.081.073-.068.193-.075.297-.024.398-.398.693-.758.912-.571.347-.998.653-.976 1.336.013.446.2.928.099 1.374-.295 1.28-2.061.682-2.946 1.104-.223.106-.402.274-.58.439L122.759 183l1.46-2.186c-.936-.273-1.468-1.225-2.371-1.582-.344-.14-.809-.261-.847-.61zm25.717-15.128c.528.06.748.181 1.144 1.453.396 1.27-.132 2.602-.616 2.964-.485.362-.924-.492-1.144-.518-.22-.027-1.245.707-1.627 0-.336-.622-1.98-2.265-1.319-2.144.66.121 1.319-1.846 1.319-2.164 0-.317 1.715.348 2.243.41zm-3.716-.537c.086-.038.033.093.033.093-.09-.02-.118-.055-.033-.093zm18.775-2.007c2.907.003 4.396.062 2.106.089-4.38.05-5.013-.092-2.106-.089zm21.271-9.989c.021.042-.09.089-.09.089-.036-.047.07-.13.09-.089zM174.751 148s-1.868-1.434-1.745-3.43c.125-1.991 2.493-1.433 3.129-1.035.636.399 1.232-.956 1.732-.398.498.558-.375 4.305-3.116 4.863zm20.312-19.958c5.218-.073 5.748-.104 7.19-.087 1.441.016 2.874.023 2.738.044-.136.02.426.07-1.36.043-2.779-.042-9.341.031-8.568 0zm-1.996-5.166c.103-.81.79-.347 1.958.23 1.168.578 4.155 2.156 4.585 2.464.43.308.738.65-.388.247-2-.717-5.28-2.518-4.6-1.94.679.576 2.544 2.002 1.32 1.463-1.225-.54-2.05-1.177-2.943-1.571-.893-.394-2.183-1.125-2.903-2.473-.722-1.347 2.868 2.389 2.971 1.58zm6.982-6.923c.01.021-.04.097-.04.097-.149-.026.03-.118.04-.097zm1.997.047c.027 3.906-.095 5-.095 5-.014-3.304.095-5 .095-5zm-12.093-5.003c.013-.04.058-.061.085-.036.027.025 0 .075 0 .075-.055.033-.1.001-.085-.04zm17.074-.041c.06.026-.014.12-.049.087-.061-.057-.012-.112.049-.087zm-18.239-12.454c-2.268-1.927-3.64-3.006-3.782-4.18-.144-1.174 2.496 1.174 3.782 2.09 1.286.916 1.916 3.716 0 2.09zM194.95 74s.1-6.656.096-4.609c.01 5.632.01 3.996-.096 4.609zM205 57a94.301 94.301 0 01-10 5 94.301 94.301 0 0110-5zm-15 7c1.39-2.026 3.09-3.731 5-5-1.387 2.03-3.092 3.731-5 5zm.05-5a246.866 246.866 0 01-.1 5c.023-1.98.057-3.705.1-5zm2.388 9.99c.84-.016 1.685-.03 2.562-.04-1.582.045-3.277.076-5 .1.768-.026 1.605-.042 2.438-.06zM198 52c1.18-1.911 2.888-3.626 5-5-1.172 1.914-2.892 3.623-5 5zm-.567 12.049c-1.376-.005-2.589-.014-2.417-.064a.21.21 0 01.049-.006 5.37 5.37 0 01.199-.007c.793-.02 1.955-.014 2.96-.02.108-.002.222-.002.331-.002.106 0 .2.003.284.005.663.015.935.04 1.161.065a76.321 76.321 0 01-2.567.029zm22.597-7.024l-.062.024-.008.001-.008-.032c-.002-.008-.004-.016.004-.022l.013-.008c.01-.008.002-.02.008-.028.008-.014.043-.013.057-.001.015.011.016.027.016.042 0 .006 0 .012-.006.017a.037.037 0 01-.014.007zM168.046 39a86.96 86.96 0 01-.092 5 86.96 86.96 0 01.092-5z"/><path d="M168.028 39.95c.043.034.022.073-.055.1-.045-.034-.023-.073.055-.1zm-7.005.05a66.319 66.319 0 01-.046-5c.078 1.651.094 3.334.046 5zm.025 7a92.74 92.74 0 01-.095-5c.07 1.63.106 3.307.095 5zm-4.998-3c-.06-1.415-.092-3.202-.1-5 .057 1.465.088 3.185.1 5zm0 13a126.775 126.775 0 01-.1-5c.064 1.558.098 3.284.1 5z"/><path d="M156.023 39.954c.002-.002.004-.004.006-.004.004 0 .007.003.009.006.035.052-.013.112-.064.089-.069-.031.03-.07.05-.09zM153.71 52.05c-.228 0-.464-.002-.634-.006-.156-.003-.236-.008-.388-.01-.454-.01-1.135-.006-1.512-.02-.309-.01-.164-.028.072-.039a54.86 54.86 0 012.227-.024c1.098.004 2.07.025 2.411.05.5.035-.725.052-2.176.049zM143 47a62.66 62.66 0 015 10c-2-3.26-3.675-6.603-5-10zm5 5c-2.001-1.524-3.69-3.21-5-5 2.01 1.524 3.686 3.207 5 5zm-10.05-12.047v-.003h.002l.012.004c.055.025.085.059.086.096-.063-.023-.094-.06-.1-.097zM138.021 52a65.54 65.54 0 01-.042-5 65.45 65.45 0 01.042 5zm-.045 6.95c.077.027.096.067.048.1-.076-.027-.096-.067-.048-.1zm.024-2c.067.031.066.069 0 .1-.066-.031-.067-.069 0-.1zm-7.05 0c.05.026.086.062.1.1a.2.2 0 01-.1-.1zm-4.97 0c.077.03.09.067.04.1-.077-.03-.091-.067-.04-.1zm17.061-14.97c-.015.012-.032.02-.046.033-.008.009-.02.032-.03.036-.028.01-.009-.089-.005-.09a.114.114 0 01.08-.003c.004.001.01.004.01.01s-.004.011-.009.014zm-9.991 5.07c-.005-.008-.044.004-.056-.005-.013-.01-.019-.037-.029-.051-.004-.007-.01-.013-.012-.02-.003-.008-.004-.017 0-.024a.37.37 0 01.097.1zm-29.055.533c.003-.184.005-.603.015-.582.007.013.02.678.025.834.005.21.011.426.014.68.002.28 0 .592-.005.83l-.004.167-.004.259-.024 2.229-.002-1.81c0-.13 0-.267-.003-.38a6.228 6.228 0 00-.01-.246l-.047-.86c.012.173.04-.896.045-1.121zm-4.964-.566l-.018.024c-.005.006-.012.012-.018.007-.004-.004-.006-.015-.012-.013v.006a.035.035 0 01-.028-.017.037.037 0 010-.036.041.041 0 01.012-.012.208.208 0 01.042-.022c.012-.005.027-.007.036.004.006.008.006.021.003.032a.085.085 0 01-.017.027zm9.966-.067l.002.002.017.013.011.01c.009.007.018.015.021.026.014.05-.051.058-.079.041-.046-.028.002-.055.02-.085.001-.004.005-.008.008-.007zm-25.084 1.908c0-.159-1.251-.238-2.503-.2-1.251.041.689-1.271 1.44-.913.752.357 1.065.12 1.065-.238s1.19-1.073.813-1.43c-.374-.359-1.814-.656-1.94-1.083-.124-.428.064-4.045.753-2.693.688 1.35.063 1.987.5 1.987.438 0 .25.641.75 1.155.5.515 1.002 1.19.753 1.866-.25.676.313.398.438 1.034S85.544 52 85.544 52c-1.88-1.95-1.63-2.983-1.63-3.142zM77.19 52.05c-3.594-.005-4.06-.04-1.856-.079 2.205-.039 4.06-.02 3.593.024-.458.045-1.737.055-1.737.055zm-12.855 1.737c-.91-1.188.363-3.663 0-5.182-.363-1.522 1.362-2.358 2.545-.683 1.18 1.675 1.728 1.885 1.998 2.374.274.49 0 6.704 0 6.704-1.816-1.535-3.633-2.024-4.543-3.213zm-1.585-6.899c-2.293.352-2.397-.157-2.865-1.118-.47-.962-1.146-2.999-.781-3.508.365-.509 2.083-.283 3.282.735C63.584 44.015 64 44.524 64 45.43c0 .905-1.25 1.458-1.25 1.458zM78.98 40c0-2.437.026-4.412-.03-5 .121.546.098 1.68.098 2.857 0 1.177-.069 2.143-.069 2.143zm15.38-4.094c-.545.934-1.502 3.447-1.913 3.052-4.37-1.005-5.122-2.155-5.394-3.304-.273-1.149-1.844-2.083-.546-3.447 1.299-1.364 1.162-2.37 1.093-3.375C87.53 27.826 88.9 27 90.264 27c1.365 0 2.05.898 2.185 1.795.137.898 1.093 2.155 1.502 2.585.409.431.342.898 1.093 1.597.75.7 1.365.665.614 1.096-.75.432-.75.9-1.298 1.833zM96 40.05c-.008-.002-.012-.01-.018-.015-.042-.038-.049-.096.019-.083.077.014.053.106 0 .097zm.032 2.245c.009.596.018 2.769.018 4.202 0 1.431-.11-.419-.1-2.694.01-1.892.073-2.103.082-1.508zM57.01 34.822c-.073-5.883-.087-5.996 0-2.423.09 3.578 0 2.423 0 2.423zm-10.004.155c.065.047.039.073.039.073-.135-.11-.105-.12-.04-.073zm4.72 23.503c-.607.96-.634 1.28-1.579 2.293-.946 1.014-2.51 1.227-2.51 1.227-2.324-.586-3.132-1.44-3.535-2.933-.403-1.494-1.314-1.44-1.565-2.827-.253-1.387.253-.96.403-1.813.152-.853-1.805-2.827-.473-1.92 1.332.908 1.332.334 1.836-.232.506-.567 1.162-.14 2.172.233 1.01.373 1.868.106 3.03 1.172 1.162 1.066 3.08 1.813 2.323 2.773-.76.961.502 1.068-.102 2.027zm-12.815-1.667c-2.855-1.134-4.171-5.063-3.868-4.8 5.007 3.404 6.07 5.67 3.868 4.8zm.261-5.171c-3.88-3.6-5.835-5.976-2.386-3.823 3.45 2.154 3.91 5.236 2.386 3.823zm21.088 7.396c-.678.038-1.741-.024-1.741-.039-2.804-.015-1.257-.042.87-.044 2.127-.003 2.611-.015 2.611.017 0 .033-1.74.066-1.74.066zm-3.21 6.66c0 1.037-.047 3.302-.047 3.302l-.028-.66c-.028-.661-.039-2.075 0-4.34 0 0 .075.66.075 1.698zm-6.697 2.817c-1.581.843-1.978.631-2.966-.983-.987-1.614-.118-2.734 2.966-3.439.615-.14 1.647-.28 1.647.843s-.065 2.739-1.647 3.58zm-3.351.444c.048-.045.048.091.048.091-.153-.013-.097-.046-.048-.091z"/><path d="M47.029 69.05c-.06-.017-.127-.11-.031-.099.095.012.03.099.03.099zM52 78.34l-1.29.66C46.947 76.642 47 74 47 74c3.712 5 5 4.34 5 4.34zm4.978.66c-4.759-2.535-5.278-5.238-4.864-4.983C57.606 77.057 56.978 79 56.978 79zm-14.395-2.494c.1.26-.857.521-.857.521 1.616 1.043 1.286.857 1.88 1.34.593.484 2.542 2.272 3.034 2.867.493.596.556 1.174-.299.373l-2.737-2.57-.692.336c-.066-.82 0-1.154 0-1.154-1.583-.893-3.066-2.178-3.066-2.178-.99-.168-2.01-1.62-2.01-1.62C36.78 73.602 35.165 73.267 35 72c1.748.596 1.913 1.266 2.77 1.787.857.522 2.472 2.16 2.637 2.253.165.093 1.153.913 2.176.466zM33.11 79c-3.999-1.26-3.17-3.025-2.715-3.656.227-1.47.452-1.638 1.736-.967 1.283.671 2.264.21 2.792 2.121.526 1.913-1.812 2.502-1.812 2.502zm.85-10.318c-4.276-1.695-4.685-2.066-4.685-2.066h-2.714c1.766-.266 2.308-.832 2.308-.832C26.155 64.972 25 64.018 25 64.018c2.308-.265 8.009 2.424 8.96 3.04.95.617 1.765 2.737 0 1.624zm12.99 8.287l.093-.019.007.077c-.076.075-.1-.058-.1-.058zM43.966 89.27c.165.383-.329 1.73-.329 1.73-1.937-1.73-4.906-5-4.617-5 2.885.768 4.782 2.882 4.946 3.27zm-.644 9.771c-2.6.017-5.203.015-4.035-.05 1.165-.065 2.512-.039 4.035-.013 1.526.027 0 .063 0 .063zm3.666-1.532c-.116 1.593-.408 1.195-1.342 1.46-.933.266-2.275-1.262-3.325-2.058-1.05-.798.817-.995.797-1.793-.018-.798.193-1.802 2.528-.465.693.397 1.459 1.26 1.342 2.856zm-1.817 13.881c1.457 1.029 2.214 1.029 1.632 2.615a3.526 3.526 0 01-1.273 1.669 1.63 1.63 0 01-1.215.308c-2.01-.314-3.057-.394-1.709-2.374 1.457-2.14 1.108-3.25 2.565-2.218zm-1.205-2.43c.001-.007.011-.012.02-.01.008.003.014.01.02.015.005.006.011.013.02.015a.02.02 0 01.01.002c.01.003.015.015.014.025a.069.069 0 01-.013.029c-.02.026-.056.014-.067-.016 0-.002-.002-.005-.005-.004l-.002.001c-.003.002-.008 0-.01-.003s-.002-.008-.003-.012c0-.008 0-.018.006-.023.003-.002.007-.003.008-.006.003-.004.001-.008.002-.012zm-3.991-.009h.008c.005 0 .01 0 .014.004.005.003.008.008.011.012a.042.042 0 00.028.016c.003 0 .006 0 .009.002.004.003.006.01.005.015l-.008.014c-.012.015-.027.05-.047.03-.008-.008-.011-.02-.022-.026-.002-.002-.024-.006-.023-.01.004-.016.019-.027.02-.043.002-.005.001-.011.005-.014zm4.073 7.055a.047.047 0 01-.018.035c-.008.007-.02.013-.03.006-.007-.006-.002-.017-.007-.022-.006-.008-.025-.005-.033-.007-.005-.002-.009-.005-.01-.01 0-.005.002-.01.006-.013a.038.038 0 01.013-.006l-.004-.004c.014-.001.026-.012.037-.02.012-.01.026-.018.04-.014.008.002.009.024.008.03a.16.16 0 00-.002.025z"/><path d="M42.226 116.029c-.518-.01-.035-.02.344-.03.642-.018 1.373-.03 2.093-.041a28.958 28.958 0 012.185.032.883.883 0 01.152.012.757.757 0 01-.117.01c-.312.016-.73.03-1.213.035-.791.01-1.174-.007-1.866-.015-.482-.006-1.131.005-1.578-.003zm26.74 48.876c-.027-.442-.013-2.289-.008-2.944.005-.703.016-1.438.04-1.814a.5.5 0 01.017-.147c.01.003.019.178.025.388.01.385.012.893.008 1.355-.003.463-.011.89-.019 1.313-.01.534-.03 2.38-.063 1.849z"/><path d="M69.034 160.98c.016.016.023.035.007.051-.016.016-.062.025-.091.014l.001-.008c-.002-.03.014-.06.045-.087a.165.165 0 01.038.03zm10.001.07a.112.112 0 01-.059-.032l-.026.028v-.067c0-.011.002-.025.01-.028.006-.003.013.002.018.007l.05.043c.01.009.022.02.022.035 0 .004-.001.01-.004.012s-.007.002-.01.002z"/><path d="M78.87 160.986c.173-.042.379-.033.571-.046.193-.013.405-.07.402-.158-.01-.197.037-.395.14-.587a.302.302 0 01.166-.155c.219-.088.567-.015.787.073.976.39 1.331 1.062.853 1.608-.156.176-.385.337-.604.5-.27.198-.525.4-.887.566-.262.12-.578.22-.774.363-.199.146-.249.322-.332.49-.249.512-.833.99-1.663 1.36-.19-.079-.146-.224.003-.317.15-.094.378-.155.571-.233.505-.204.73-.55.555-.844-.25-.418-1.325-.338-1.604-.637-.309-.331.793-.434 1.242-.61.823-.325.604-.537.328-.963-.096-.146-.056-.337.246-.41z"/><path d="M79.85 160.294c.327.258.493.656.786.948.405.405 1.047.611 1.289 1.12.086.184.107.403.015.582-.063.12-.17.213-.278.303a12.403 12.403 0 01-2.15 1.424c-.287.149-.586.29-.912.323-.325.032-.68-.062-.879-.307-.248-.31-.18-.741-.172-1.132.002-.065-.002-.135-.045-.184-.046-.05-.121-.063-.186-.087-.187-.074-.297-.268-.314-.458-.02-.19.039-.38.103-.562.326-.913 1.381-3.04 2.743-1.97z"/><path d="M80.95 160l.088.882c.003.04.008.081.01.141.002.07.002.15.002.229-.004 1.25-.01 2.5-.015 3.748.002-.508-.095-.759-.06-1.286.007-.101.019-.041.026-.152.006-.087.007-.29.01-.401.004-.304.007-.638-.002-.932-.005-.175-.014-.322-.017-.507-.003-.159-.001-.326-.003-.488-.003-.456-.031-.79-.039-1.234zm-6.904 7.95a.217.217 0 01-.092.1.395.395 0 01.092-.1z"/><path d="M78.542 166.707c-.106.236-.234.476-.509.66a1.535 1.535 0 01-1.123.197c.107.137-.146.289-.405.303-.256.014-.501-.056-.749-.095-.587-.093-1.245-.004-1.704.228a197.41 197.41 0 00-.594-.894c-.022-.031-.046-.065-.096-.08a.402.402 0 00-.213.015c-.446.127-.819.334-1.067.585.112-.356-.152-.759-.661-.984-.68-.299-1.661-.297-2.421-.073.443-.29.888-.578 1.33-.868.147-.096.296-.193.374-.314.192-.302-.246-.677-.8-.685.424-.082.848-.164 1.272-.248l.016-.21c.74-.27 1.514-.547 2.38-.607 1.275-.09 2.496.298 3.568.708A6.8 6.8 0 0178.446 163c-.098.318-.477.879-.33 1.193.1.219.408.252.597.424.61.554.098 1.495-.17 2.09zm-14.492-5.665a.043.043 0 01-.037.006l-.022-.017a.699.699 0 01-.041-.08c.042-.008.086.031.1.09zm4.994 1.085c.018 2.152-.006 3.547-.05 2.538a59.128 59.128 0 01-.037-3.145c.004-.2 0-.5.001-.76 0-.394.01-.678.018-.741.015-.11.028.284.04.717l.006.185c.009.343.018.706.022 1.206zm4.909-1.128a.012.012 0 01-.003-.005c0-.004.002-.007.004-.01a.176.176 0 01.038-.031.01.01 0 01.007-.003c.004 0 .007.003.01.005.022.022.063.059.026.087-.034.026-.06-.02-.082-.043zm5.047-.048h.007c.015.002.03.007.043.013a.16.16 0 01-.022.062.053.053 0 01-.014.019c-.008.006-.017.005-.026.005l-.038-.003.022-.019-.003-.024c.001-.009.005-.017.012-.02.005-.001.01 0 .013-.004.006-.008-.002-.023.005-.029z"/><path d="M64.043 161.01c-.002.004-.013.005-.017.01-.004.007-.001.018-.007.024-.018.02-.075-.011-.069-.041l.004-.008a.097.097 0 01.091-.044l.004.001v.004c0 .019.003.041-.006.055zm-.025 2.023l-.017.017a.09.09 0 01-.051-.022.315.315 0 00.094-.078c.015.029 0 .076-.026.083zm22.001 5.015a.048.048 0 01-.043-.008.05.05 0 01-.02-.026c-.044-.145.172-.003.063.034zm4.931-5.014c0-.03.102-.072.1-.084.002.013-.007.025-.015.034-.01.011-.084.102-.085.05zm2.16.121c1.005-.478 2.38.207 2.592 1.287.043.217.065.475.253.594.119.074.27.072.41.077 1.255.04 2.407 1.062 2.576 2.29.04.3.043.635.256.85.293.302.834.217 1.149.496.107.095.174.223.242.35.234.456.452.95.406 1.462-.065.733-.673 1.332-1.364 1.611-.708.287-1.445.242-2.179.34.008.14-.078.342-.046.488-1.165-1.61-2.722-1.093-4.35-1.52-.527-.139-2.02-.837-2.033-1.481-.009-.348 1.21-1.439-.022-1.603.264-.021.425-.308.436-.568.008-.26-.086-.512-.116-.77-.156-1.449 1.725-2.444 1.79-3.903zm-2.156 9.895a.068.068 0 01.004-.054c.003-.006.008-.012.01-.02 0-.006 0-.014.003-.02.004-.006.013-.006.02-.006l.033.002c.012 0 .026.004.026.016a.02.02 0 01-.006.013.054.054 0 01-.028.017v.016a.137.137 0 00-.062.036z"/><path d="M96.006 166.598c.014.25.029.411.044.598-.03 2.244-.098-.808-.1-1.888 0-.136 0-.271.002-.404.004-.626.003-1.268.002-1.904.031.677.048 1.807.042 2.872 0 .177-.002.368.001.522.002.089.005.148.009.204zm6.5-3.124c.288.426.512.905.665 1.415.064.22.119.45.25.627.13.178.362.278.531.16.19.864-.203 1.851-.893 2.248-.541.312-1.032-.426-1.512-.659-.363-.174-.777-.233-1.12-.465-.287-.196-.68-.57-.801-.942-.224-.683.253-1.13-.149-1.919-.16-.312-.317-.627-.477-.939 1.27.124 2.43 1.035 3.705 1.027a.641.641 0 01-.199-.553zM52 210.938s4.097-1.73 6.76-1.836c2.665-.106.533-.318.067-.706-.467-.388.4-.354 1.032-.318.633.036.167-1.13.865-1.624.7-.495 3.363-2.048 4.629-2.414 1.265-.364 3.097-2.318 3.063-2.529-.034-.211-2.498-.671-1.698-.776.799-.107 2.365.353 2.365.353s-.6-.953-1.132-1.094c-.533-.14-1.366-.388-.988-.847.378-.458.654.07 1.12.389.467.317 1.166-.389 1.898-.883.731-.495.768-.777.267-1.554-.5-.778-.965 0-1.299-.354-.334-.354-.4-1.094-.4-1.448 0-.353.766-.458.433-1.023-.334-.565-1.099.247-1.499.14-.4-.106-1.032-.564-1.665-.035-.634.529-.2.39-1.099-.459-.899-.847-.432 0-1.265.282s-.666-.706-1.931-.318c-1.265.388-2.764.883-3.763 0-1-.883-.067-1.377 1.997-1.412 2.066-.036 8.259-.14 8.725-.14.467 0 3.53-1.448 3.93-2.613.4-1.164-.7-.953-.515-1.023.183-.07 1.048-.459.45-.813-.6-.353 1.131-.846 1.298-1.659.167-.812-1.365-1.094-1.498-2.368-.133-1.273.92 0 .92 0 .082-.357.146-.72.19-1.087.01-.09.02-.19-.03-.266a.364.364 0 00-.15-.116l-1.777-.933a1.506 1.506 0 011.49.006 2.69 2.69 0 00.196-1.498c-.013-.078-.027-.164.005-.236.031-.068.097-.108.16-.14.907-.479 2.034-.364 2.89-.939.097-.065.196-.14.31-.146.227-.013.388.244.61.305.113-.42.165-.858.153-1.294l.908.898.674-2.111c.047-.147.094-.3.064-.45-.095-.487-.868-.566-.918-1.059-.017-.17.066-.331.137-.485.118-.25.213-.512.284-.782.356.206.712.41 1.068.617.102.059.22.121.333.09.177-.048.237-.276.35-.429.153-.206.427-.278.67-.237.244.04.464.176.668.326.185.135.381.35.311.576a2.753 2.753 0 00-1.263.39c.609.54 1.41.828 2.203.79 0 0 .931.095 1.088.024.156-.07.31-2.33.31-2.33s.4.882.322 1.659c-.079.776 1.376-.141 1.41.036.033.177.665-.99.766-.883.1.106.267.53.766.53s.066-1.52.167-1.272c.1.247 2.164.883 2.732.318.568-.565.898-.177 1.332-.424.434-.247 4.162-.354 6.359-.282 2.198.07 5.895 1.695 6.96 3.07 1.066 1.378 1.832 2.19 2.397 2.65.566.458 1.266 1.13 1.865 1.905.6.777.2-.705.865-2.083.666-1.377.133.636-.1 1.07-.233.433.865 1.331.633 1.225-.233-.107-1.132.458-1.132 1.094 0 .635 1.098.776 1 1.164-.101.389-.101 2.436.365 2.966.467.53 1.3.07 1.499 1.412.2 1.341.732.282 1.165.53.432.247.7 1.588 1 2.577.299.989 1.731.742 2.364.917.634.176-1.997.706-2.23 1.518-.234.813 1.365 2.19 1.864 3.651.5 1.463-.1 3.798.1 4.787.2.99 1.566.671 4.53 1.339 0 0-3.564-.032-4.43-.45-.864-.416-.798 1.513-.62 2.22.177.705-.411 1.2-.878.458-.466-.742-.233.07-1.265 1.659-1.032 1.589 1.366 2.507 1.465 2.683.1.177 1.232 2.083.677 2.294-.555.212-1.842.07-2.783-.353-.94-.425-2.357.812-1.424 2.294.933 1.482.034.671-.5 1.412-.532.742-1.697-.424-2.297-.424-.6 0-2.763.847-2.964 1.583-.2.736.799 2.336.499 2.618-.3.282-.433 1.13-.533 2.825-.1 1.695-2.464 1.836-3.43 1.942-.965.106.234 2.26.167 3.248-.066.989-1.665.282-1.832-1.483-.167-1.765-1.332-2.718-1.665-1.976-.334.741-.3 1.023-1.032 1.2-.733.177-3.997 1.625-5.962 2.365-1.965.74-2.365.6-2.494.99-.129.387-.004 1.517-.038 2.082s.2 1.8-.203 3.602c-.403 1.8-1.862 2.471-.996 1.518.866-.953 1.266-4.907.8-5.472-.467-.565-.566-1.2-.866-1.448-.3-.247-.467.354-.533.847-.066.495-.533.424-.633.107-.1-.318.167-.636 0-.883s-1.066.282-1.499-.107c-.432-.388-.933.565-1.233.813-.3.247-.3.635-.199 1.06.1.423.966.705 1.165 1.411.2.706.167 1.271-.133 2.26-.3.99-.6.847-.799 1.73-.199.882-.432.741-1 1.377-.565.635-1.198-.495-1.298-1.554-.1-1.06.333-1.589-.133-1.907-.467-.317.167-.846.6-1.377.432-.529-.067-.953.532-1.341.6-.388.467 0 .533-.346.067-.345.1-1.031-.2-1.066-.299-.036-.432-.424-1.132-.671-.7-.248-2.464-.389-3.03-.918-.566-.529-1.9-2.012-2.165-1.73-.266.283.1.954 0 1.873-.1.917-.233.424-.167 1.942.067 1.518-.2-.388-.7-1.06-.499-.671-.532.672-.7.2-.166-.469-.532-.306-.665-.059-.133.248-.966-.317-.966-.917 0-.6-1.398.211-1.598.211-.2 0 .965-.917 1.598-1.235.634-.317.5-.989 1.032-1.906.533-.917.433-1.412.566-2.118.133-.706-.799-1.942-1.165-2.507-.366-.565-.865.106-2.464.354-.467-.565 1.965-.565 2.23-1.024.267-.459-.498-.635-.765-1.836-.266-1.2-.7-1.06-2.531.706 1.832-3.213 2.164-2.224 2.164-2.224l-1.032-4.2s-.199-.6-1.331.105c-1.133.706-.4.6-1.899.53-1.498-.07-.7.14-.933 1.236-.233 1.094-1.965-.106-1.565-.917.4-.813 1.099-.6 1.233-1.554.133-.954 1.299-.847 1.864-1.06.566-.211 2.498-.318 2.098-1.06-.4-.741-1.466 0-2.397-.565-.933-.565.333-1.34.1-1.8-.233-.458-3.763 2.048-4.495 2.084-.733.036-1.698.846-1.6 1.06.1.212.966.952 1.067 1.729.1.776.366 2.435-.234 3.388-.6.954-.6.282-.933.883-.333.6-.366.036-.633.565-.266.53-.533.671-.633 1.872-.1 1.2 0 0-.266-.776-.266-.777.865-1.13.433-1.695-.433-.565-1.766.424-3.064.353 1.098-.529.799-1.236.167-1.341-.633-.107-1.865.282-1.865.282s1.366-.847 1.398-1.235c.033-.389-1.565-1.2-1.232-1.13.333.07 1.365-.107 1.398-.6.034-.494-1.332-1.27-.865-1.13.466.141.899-.671 2.065-1.589.005-1.663-4.19 1.197-7.954 1.197zm-.075-5.184c.179.27.012.585-.225.835-.509.536-1.192.513-1.83.133-.802-.478-1.621-.938-2.378-1.448-.112-.076-.228-.158-.265-.262-.067-.187.147-.366.37-.492.222-.127.481-.252.55-.44.04-.106.008-.218.002-.328-.008-.165.042-.33-.014-.491-.046-.132-.158-.25-.268-.362l-.867-.892 1.247-.007c.268-.001.548-.001.785.082.216.075.366.208.534.324.667.464 1.665.705 2.226 1.225.083.076.156.163.15.257-.005.08-.07.154-.127.225a2.467 2.467 0 00-.324.509c-.104.219-.165.461-.023.67.114.17.345.293.457.462z"/><path d="M56.992 202.696c-.056-.898-.045-3.425-.029-4.537a1.38 1.38 0 01.007-.159l.007.036c.045.469.059 1.434.066 2.304.003.46.03 3.643-.05 2.356zm5.058-7.694c.003.11-.086.002-.1-.03.003.008.052-.023.061-.022.012.002.037-.006.039.052zm-3.252 2.949a557.711 557.711 0 012.212.002c.274.003.503.008.737.014.613.013 1.296.024 1.973.035.487.007.987.015 1.53.017.586.001 1.218-.004 1.75.004-1.137-.001-2.178.02-3.301.025-.49.003-.984.002-1.479.002l-1.441-.002c-.616 0-1.253-.002-1.796-.01a55.653 55.653 0 01-.81-.02c-.386-.013-1.736-.046-.91-.06.36-.007 1.115-.006 1.535-.007zm-19.427 4.045c.244-.007.432-.014.544-.023.03-.002.059-.005.122-.006l.276-.004 1.368-.01c.253-.002.524-.004.77-.002.221.002.386.007.541.011l.923.028a.365.365 0 01.082.005l-.08.003c-.698.016-1.627.03-2.391.044-.643.012-1.849.014-1.549-.018-.194 0-.431 0-.62-.002-.203-.002-.378-.007-.355-.013.023-.006.214-.01.37-.013zm.609 4.96l.05-.006c.039-.004.012.052-.003.07-.014.015-.036.033-.055.03-.023-.004-.024-.027-.02-.055.003-.032.006-.037.029-.04zm6.98.007c.005-.008.015-.014.024-.013a.037.037 0 01.016.009c.024.018.073.047.038.08-.023.02-.074.013-.085-.015a.067.067 0 01-.001-.035.061.061 0 01.008-.026zm-2.957 4.987c.023 0 .04.016.045.032.005.016 0 .032-.006.048l-.018.02c-.016-.011-.05.002-.063-.01-.004-.003-.005-.007-.006-.011-.004-.017-.008-.034-.002-.05a.053.053 0 01.05-.029zm-8.773.072a26.767 26.767 0 011.86-.06l2.059-.008c.357-.001 1.016-.016.813.02-.315.057-2.4.045-3.056.045-.647.005-1.276.018-1.904.031-.022-.011.11-.02.229-.028zm-.27 2.931c.004-.002.008-.002.012-.002h.022c.015-.001.031-.001.042.007.015.012.015.032.013.05-.002.017-.008.044-.034.042-.023-.003-.033-.032-.06-.029a.116.116 0 01-.003-.053c0-.006.003-.012.008-.015zm.09-7.963c.003.02-.021.041-.045.06l-.052-.005-.003-.016.008-.078c.046-.005.088.016.092.038z"/><path d="M34.952 206.953c.007-.006.02-.001.028.004.017.013.034.025.048.04.013.015.023.032.022.05l-.049.003-.047-.082c-.003-.005-.006-.011-.002-.015zm12.035 5.097l-.037-.02c0-.028.016-.055.048-.08.074.027.068.075-.01.1z"/><path d="M47.023 211.952a.017.017 0 01.008-.002l.007.003c.018.016.014.04-.001.056a.213.213 0 01-.065.041l-.022-.036a.158.158 0 01.073-.062z"/><path d="M46.963 211.977a.105.105 0 01.073-.027c.004 0 .008 0 .01.005.006.008.004.022.002.034a.176.176 0 01-.013.044c-.006.012-.016.02-.026.015h-.05c-.007-.018-.014-.044-.005-.061.002-.005.006-.007.009-.01zM109.05 168c.002 1.08-.046 4.034-.094 5-.036-.284.095-4.325.094-5z"/><path d="M110.079 175.838c-.456-.881-1.048-3.223-1.078-4.184-.029-.974.386-1.761.83-2.647.445-.883 1.809-1.083 2.857-.984.96.088 1.69.797 2.504 1.272.667.388 1.42.63 2.108.98.69.352 1.343.854 1.59 1.544.442 1.234-.531 2.485-1.443 3.476-.735.797-1.468 1.597-2.203 2.394-.102.112-.233.233-.388.214-.213-.027-.276-.274-.365-.455-.247-.512-.998-.665-1.57-.48-.571.186-1.002.616-1.408 1.032.58-.592-1.239-1.786-1.434-2.162z"/><path d="M115.52 168c.447.27.605.742.376 1.12-.11.18-.299.34-.348.533-.05.192.136.435.419.416-.275.264-.897.31-1.248.092a121.442 121.442 0 00-.996 3.628c-.047.185-.064.418.17.515.108.044.244.045.351.09.147.064.198.193.226.31.105.454.028.925-.22 1.352-.087-.481-.513-.928-1.12-1.176-.373.577.225 1.273-.078 1.87-.14.274-.456.492-.606.765-.213.388-.057.827-.184 1.233-.158.504-.723.893-1.262 1.252.383-1.146.638-2.313.761-3.486.04-.372.07-.759.317-1.092.141-.191.348-.356.51-.54.611-.692.52-1.562.767-2.354.38-1.211 1.586-2.36 1.226-3.573l.94-.955zm-1.57 12.05l.003-.022c.003-.025 0-.055.026-.078.174.035-.025.066-.029.1zm-4.966-2.093a.031.031 0 01.023-.007c.005.001.007.003.01.005.018.018.037.038.032.057-.005.02-.044.04-.092.038v-.01c-.015-.028-.006-.058.027-.083zm-41.252 5.867c-.963.908-2.116 1.38-3.283 1.091a.51.51 0 01-.296-.157c-.15-.176-.156-.484-.152-.755.015-.88.062-1.865.534-2.456.167-.208.374-.347.567-.51.317-.268.605-.608.945-.814.858-.524 1.91-.074 2.581.829.957 1.29-.15 2.068-.896 2.772zm-3.775 6.197c-.006-.01-.01-.024-.003-.035.005-.009.016-.013.024-.02.008-.006.015-.015.025-.016.012-.001.022.008.03.017.01.012.019.026.017.041-.002.017-.018.03-.033.04l.002-.008a.031.031 0 01-.026.01c-.016-.002-.029-.015-.036-.029z"/><path d="M69 190.029c-1.738.017-5.335.063-4.975-.079.96.023 1.788.05 2.892.058.708.005 1.463.004 2.083.02z"/><path d="M69.003 189.954a.032.032 0 01.046.019.049.049 0 01-.014.046.1.1 0 01-.04.02l-.03.01c-.006.003-.017 0-.015-.008l.02-.037c.006-.02.016-.041.033-.05zm-1.863-11.978a507.62 507.62 0 01-6.59.021c-.102 0-.212-.003-.292-.089-.112-.118-.12-.346-.209-.496-.211-.356-1.024-.2-1.048-.706-.03-.613.797-.499 1.115-.56.113-.02.233-.042.321-.142.115-.132.14-.353.153-.553.053-.71.107-1.42.158-2.129.008-.114.026-.246.101-.296a.195.195 0 01.11-.025c.813-.025 1.814.343 1.977 1.402.133.856-.37 1.633-.832 2.25a34.72 34.72 0 006.896.838c-.54.456-1.22.478-1.86.485z"/><path d="M63.95 177.977c0-.009.01-.017.012-.009l.007-.018a.29.29 0 01.075.077c.004.007.008.015.005.023a.289.289 0 01-.087-.052c-.005-.005-.011-.011-.012-.02zm15.05.006c-.676.017-1.384.026-2.096.026-.585.001-2.11.05-2.46.04-1.405-.041.935-.095 1.39-.098 1.067-.006 2.128.013 3.166.032zm-5.037-5.012a.054.054 0 01.062-.018.036.036 0 01.02.016c.013.022-.004.054-.024.064-.02.01-.042.008-.063.017l.003-.003c-.016-.02-.014-.056.002-.076zm-10.201-9.977c.133.01.27.02.232.031a5.534 5.534 0 01-.628.02l-1.536-.003c-.453.004-.916.008-1.386.008-.469 0-.957-.007-1.243-.02-.206-.01-.279-.023-.098-.034.092-.005.238-.008.387-.012.609-.013 1.3-.02 1.985-.028.428-.004.898-.009 1.316-.003.486.006.749.024.971.04zm47.424 58.508l.755-.505c.442-.297.89-.593 1.37-.759.304-.103.617-.154.928-.203.335-.053.717-.088.968.215.115.138.184.33.25.517.423 1.193 1.107 3.602-.303 4.129-.868.324-3.097-.12-3.564-1.159a8.81 8.81 0 01-.56-1.699c-.028-.126-.051-.27 0-.382a.442.442 0 01.156-.154zm9.864 8.548l-.005-.009a.333.333 0 00-.095-.091c.05.006.094.05.1.1zm-.003-5c-.029-.03-.063-.087-.097-.1.025.01.117.035.097.1zm4.903 6.978a.238.238 0 00.094-.056.517.517 0 01.006.05l-.1.006z"/><path d="M126.003 231.954a.035.035 0 01.013-.004c.008 0 .015.004.02.009a.043.043 0 01.002.062.102.102 0 01-.048.029c-.007-.016-.034-.027-.04-.044-.006-.022.025-.04.053-.052zm-26.802-.766c.84-.694 1.833-.91 2.797-1.107.483-.1 1.027-.182 1.418.23.359.376.478 1.06.494 1.69.018.848.3 2.427-.238 2.88-.335.282-1.3-.011-1.674-.126-1.13-.346-2.319-1.412-2.91-2.835-.061-.148-.117-.327-.072-.483a.505.505 0 01.185-.249zm-3.24-6.221a.12.12 0 01.05-.016c.01-.001.02-.002.027.004.032.025-.009.085-.03.094-.021.009-.07-.04-.055-.073a.02.02 0 01.008-.009zm162.783-87.602c-.614 1.325-3.1.167-4.063.162-.221-.003-.48-.016-.607-.22-.09-.15-.08-.35-.062-.531.058-.615.113-1.23.17-1.844.019-.187.038-.384.134-.538.244-.397.826-.309 1.103-.675.11-.142.153-.337.262-.478.275-.364.782-.246 1.184-.096.277.103.571.22.753.48.073.104.124.225.193.334.208.328.56.493.807.789.47.564.44 1.461.261 2.215-.04.136-.077.275-.135.402zM65.205 219.951a7.747 7.747 0 01.26.001c.505.013.941.03 1.622.035.618.005 1.326-.002 1.913.005-.273.021-.85.052-1.772.057a90.818 90.818 0 01-1.496-.007c-.267-.002-1.418-.004-1.522-.008-.037-.002-.047-.004-.056-.005l-.104-.021c-.053-.01-.103-.022.07-.032a36.87 36.87 0 011.085-.025zm-5.428 4.999c.831.008 1.733.013 2.634.013.688 0 1.892.06 1.519.076-.253.012-1.181.013-1.624.009-.202-.002-1.162-.02-1.22-.022a2.12 2.12 0 01-.213.003h-1.197l-.264-.002c-.16-.004-.016-.01.058-.014.202-.012-.144-.025-.47-.036.354-.007.622-.017.777-.027zm26.185 8.384c.02-.283.027-.951.026-1.556 0-.605-.008-1.187-.012-1.778.014.33.027.73.038 1.179.003.125.006.26.01.336.002.027.004.047.005.086l.004.174.008.552c.01.752.022 2.73-.028 2.672-.016-.02-.033-.636-.046-.871-.015-.278-.027-.458-.005-.794zM25 156c4.61 3.832 5 5 5 5-4.333-3.211-5-5-5-5zm22.044-10.019c.013.047 0 .069 0 .069-.068-.047-.12-.033-.08-.069.039-.036.068-.047.08 0zm-.087-3.002c.023-.035.07-.042.09 0 .019.042-.045.096-.06.058-.012-.034-.053-.023-.03-.058zM69 145.965s-3.276.017-4.704.085c-1.316-.083 2.03-.124 4.704-.085zm39.977-110.999c.011-.01.026-.018.04-.016.02.003.034.024.033.044-.002.096-.163.057-.073-.028zm-4.967 5.062l-.034.022a.043.043 0 01-.026-.04c0-.02.016-.04.034-.05.02-.013.052-.015.063.005a.036.036 0 01-.005.037.11.11 0 01-.031.026z"/><path d="M103.95 40.05c.024-.033.047-.067.072-.1.009.008.018.013.028.012l-.1.088zm4.762.397c-.306.475-.78.812-1.242 1.134-1.158.805-2.312 1.614-3.47 2.419a11.82 11.82 0 012.736-3.642c.317-.287 1.399-1.403 1.838-1.357.635.07.455.951.138 1.446z"/></g><path d="M119.516 163c-7.787 0-14.722-2.01-20.805-6.03-6.084-4.021-10.89-9.686-14.418-16.996C80.764 132.664 79 124.379 79 115.12c0-8.528 1.52-16.813 4.563-24.854 3.041-8.04 7.482-15.534 13.323-22.478 5.84-6.944 12.592-13.036 20.258-18.275 7.665-5.239 16.12-9.076 25.368-11.513l17.885 22.295c-10.463 4.143-18.798 9.625-25.003 16.448-6.205 6.822-9.308 12.67-9.308 17.544 0 2.193.67 4.568 2.008 7.127 1.338 2.558 4.076 5.178 8.213 7.858 6.083 3.899 10.28 7.98 12.593 12.244 2.311 4.264 3.467 9.077 3.467 14.437 0 8.285-3.102 14.864-9.308 19.737-6.205 4.873-14.053 7.31-23.543 7.31zm87.603 0c-7.787 0-14.722-2.01-20.806-6.03-6.083-4.021-10.89-9.686-14.418-16.996-3.528-7.31-5.292-15.595-5.292-24.854 0-8.528 1.52-16.813 4.562-24.854 3.042-8.04 7.483-15.534 13.323-22.478 5.84-6.944 12.593-13.036 20.258-18.275 7.665-5.239 16.122-9.076 25.368-11.513L248 60.295c-10.464 4.143-18.798 9.625-25.003 16.448-6.205 6.822-9.308 12.67-9.308 17.544 0 2.193.67 4.568 2.008 7.127 1.338 2.558 4.075 5.178 8.212 7.858 6.084 3.899 10.281 7.98 12.593 12.244 2.312 4.264 3.468 9.077 3.468 14.437 0 8.285-3.103 14.864-9.308 19.737-6.205 4.873-14.053 7.31-23.543 7.31z" fill="#FFAD15"/></g></svg>