<svg width="455" height="415" xmlns="http://www.w3.org/2000/svg"><g fill="#512511"><path d="M386.006 87.999l-.015.002c.016-.002.023-.002.015-.002z"/><path d="M319.411 79.459c.894 2.336 3.736 4.11 3.41 6.528-.326 2.418-4.062 1.047-5.767 1.37-1.704.324.568 3.465.568 3.465l-9.825-3.465s8.12 4.352 9.825 4.676c1.705.323 1.543-.161 1.381 2.739-.162 2.902-5.44 4.754-9.34 5.722-3.897.968-4.952 3.223-3.086 6.207 1.867 2.98-2.842 2.578-4.223 2.66-1.381.081-2.598 1.53-.894 2.738 1.705 1.208 7.31.645 8.932.564 1.625-.082 1.625 6.446.162 8.864-1.46 2.418-.893 8.14-.893 8.14l-3.33 1.45c-3.33 1.45-4.141 2.739-4.141 2.739s1.704-.563 3.491-1.45c1.787-.887 2.842-1.613 3.574-.645.732.969-.488 2.82-2.03 4.676-1.544 1.854 1.216 2.176 2.274 2.015 1.055-.16 2.03 1.613 2.11 2.981.082 1.37-3.004 1.613-3.979 1.29-.976-.324.567-2.337.567-2.337s-1.055.242-1.704 1.37c-.65 1.13-2.11 1.371-2.599.403-.487-.968-2.11-1.773-3.247-.805-1.138.968-1.949.805-2.355.081-.405-.726-.975-.968-1.299-.323-.326.645-.811 1.45-1.948 1.37-1.138-.08-3.492-1.53-3.492-1.53s1.705 2.499 2.03 3.464c.327.969-1.38.082-2.518-.968-1.137-1.047-2.842.403-3.168.324-.326-.082-3.897-13.297-3.897-13.297s.811 7.977 1.787 11.282c.975 3.304.811 2.98.082 4.11-.732 1.128-1.949 1.933-.732 2.98s2.031 1.29 2.924 1.855c.894.563.406 2.015 1.217 2.82.812.806.894-.402.568-2.015-.326-1.613.326-1.855 1.381-2.336 1.055-.484 1.3.484 1.461 2.176.162 1.691 1.543 2.82 1.543 2.82-.488 1.208-.244 2.257-.244 2.257s.244-2.257 2.275-1.933c2.03.323 1.299-.16 2.436.484s2.519-.403 3.168-1.208c.65-.805 1.3-2.094 2.924-1.45.988.393 1.377.606 2.094.748-.568.44-1.285.747-2.236.822-1.715.136-.068 1.497 1.099.92 1.166-.58.342 2.554.618 2.078.25-.437.792-1.726 2.453-3.607l.116.007c2.518.16 2.518.484 3.492-.563.975-1.047-.326-1.773 1.38-2.257 1.705-.484.732-1.934 1.382-2.258.65-.323 1.543 1.934 3.817 3.95 1.59 1.406 1.196 2.264.788 3.366h-5.672s-1.029-1.224-1.852 0c-.664.99-1.372.818-.824 1.225.548.407.548 1.701 1.442 1.975.89.273 1.166-.34 1.784-.818.618-.476.548-1.567.548-1.567l4.496-.601c-.147.42-.282.877-.301 1.414-.083 2.094 1.948 6.043 3.897 5.561 1.845-.457 1.874-.194 3.108.384l-.891 1.512a3.377 3.377 0 00-1.24-.237c-1.2.019-2.22.824-3.138 1.59.268-.656 1.55-2.652.763-3.181-1.077-.724-1.326 1.445-1.524 1.972-.251.673-.988 1.025-1.432 1.588-.178.226-.3.57-.104.782.145.155.392.153.606.131a7.552 7.552 0 002.857-.915c.244-.137.522-.292.787-.206.126.04.227.132.326.218.234.204.476.4.734.57l-7.35 12.473.65.968 6.97-13.273c.153.086.307.165.47.228.55.213 1.187.261 1.728.021.362-.16.683-.484.708-.877a1.107 1.107 0 00-.112-.517c-.265-.578-.83-.964-1.415-1.222-.036-.017-.074-.032-.113-.048l.809-1.539.13.06c1.461.645 1.949-1.208 1.949-1.208 1.137-2.094 1.46-1.37 3.735-1.45 2.275-.08.976.969.894 2.821-.082 1.855.082 2.176.893.16.812-2.015.812-4.433 3.98-1.45 3.168 2.982 3.653.161 5.928 1.209 2.274 1.047.326 3.383-2.11 3.867-2.437.484-1.788.726-2.925 3.223-1.137 2.5-1.46 1.29-2.518 2.74-1.056 1.45.487.483 2.354-.082 1.866-.563 1.46.484 1.46.726s-1.786 1.047-.893 2.257c.894 1.208.894.484 1.625-.563.732-1.047 1.138 1.208 2.11 1.37.976.161 1.462-.16 2.275.485.812.645 1.3.323.976-.484-.324-.808.162-1.692 1.869-1.37 1.705.323 2.436-.161 2.436-1.614 0-1.45 1.217-2.336 1.138-.805-.08 1.532.975 1.047.975 1.047.082 2.74 1.625 11.927 1.625 11.927s-.975-12.09-.082-12.492c.894-.403.244-1.29.406-2.418.162-1.129 1.625-1.29 2.11-2.5.488-1.207.732-5.64 1.381-7.656.65-2.015 2.031-2.176 3.654-4.351 1.625-2.176 2.924-2.418 5.196-3.868 2.275-1.45 2.68 1.047 3.574 1.613.893.565.732-1.048 2.192-2.337 1.461-1.289 1.705-.644 2.355 1.45.65 2.094 1.46 3.465 2.11 5.883.65 2.418-.406 4.836 1.217 7.012 1.625 2.176 3.574 1.289 3.086-1.855s-4.629-10.395-4.547-14.023c.082-3.626 1.787-4.836 4.467-5.48 2.68-.645 1.867.483 3.168-1.532 1.3-2.015.732-2.902.732-2.902l4.385 1.29-4.385-2.095c.162-.968.65-2.258 2.193-2.095 1.543.16 1.704.403 2.192-1.37.488-1.774 1.787-1.613 2.354-.563.568 1.047 2.599 2.257 2.599 2.257s-.732-1.047-1.3-2.094c-.567-1.048-.567-1.692 1.543-2.016 2.11-.323.894-3.949.976-4.915.082-.968 0-5.883.976-6.125.975-.242 5.116 1.532 5.928-.402.81-1.934-3.248-4.352-4.303-5.723-1.056-1.37-1.138-1.531-.812-4.11.326-2.578-1.787-2.257-2.274-4.675-.488-2.418.975-.484 2.842-1.45 1.866-.968-.326-1.45.244-2.499.567-1.047.326-1.129-.326-1.692-.65-.563-.894-.081-.894-1.773s-.811-.403-1.381.082c-.567.484-.326-2.5-.326-2.5s-1.137 3.144-2.436 3.868c-1.3.726-.812-5.239-.812-7.414 0-2.176.326-3.547-1.869-6.286-2.192-2.739-4.061-6.044-4.061-6.044s3.793-1.128 4.267-1.205c-.483.031-4.917.237-4.917.237l-1.217-1.207 5.44-4.27-6.903 3.304s-4.547-5.723-8.038-7.09c-3.492-1.372-5.767-1.532-5.767-1.532l1.138-3.223s-1.382 2.094-3.33 2.98c-1.949.887-7.633 0-9.908.324-2.274.324-2.518-1.289-3.33-3.062-.81-1.773-.325 2.094-1.137 3.625-.811 1.532-3.735.403-6.903.082-3.168-.324-5.928-.16-6.983 1.047-1.056 1.208-1.787.805-3.248 1.129-1.461.323-1.949 1.855-1.949 1.855l-4.223.726 4.141.402s-.162.484-2.11 2.418c-1.949 1.934-5.523 3.465-8.12 1.047-2.6-2.425-4.871-2.667-3.978-.328z"/><path d="M310.987 187L318 170l-8 15.326zm2.876-98l.137-2.618L297 72zm19.759-14L335 73.816 327 67zm-28.668 63.964a.654.654 0 01.092.086s-.013-.145-.092-.086zm-14.109-1.582c1.068-.997.978-1.142 1.779.573.8 1.715.534 0 .71-.713.178-.713.534-.713 1.6 1.142 1.067 1.855.62-.713 1.421-4.567.31-1.49.513-2.105.645-2.296-.695-1.036-1.678-.56-3.578 1.727-2.133 2.568-1.332.858-3.467 3.425-2.133 2.568-.177 1.71.89.71z"/><path d="M289.37 136.85c-2.376 6.967 7.464-5.174 7.63-5.772 0 0-5.26-1.196-7.63 5.772zm-.32-.85s-.06-.112-.094 0c-.034.113.094 0 .094 0zm-.087-18.028c-.055.078.087.078.087.078s-.033-.156-.087-.078zm37.997 52.018c-.049.109.09.036.09.036s-.04-.144-.09-.036z"/><path d="M327.05 170.008s-.062-.123-.095-.01c-.032.112.095.01.095.01zm-.087 8.029c.048.051.087-.065.087-.065-.035-.059-.135.013-.087.065zm8.037 1.048l-.663-1.085L322 195zm7.989-1.135c-.076.014-.017.097-.017.097.11.025.093-.109.017-.096zm-.029 8.067c-.046.088.088-.027.088-.027.013-.055-.043-.06-.088.027zm4.997 8.98c-.039.112.093.011.093.011s-.054-.123-.093-.01z"/><path d="M347.966 194.951c-.064.015.084.099.084.099s-.02-.113-.084-.099zm-4.92.099s.029-.106-.066-.1c-.095.006.066.1.066.1z"/><path d="M342.992 195.05s.123-.1.011-.1-.011.1-.011.1zm.021-9.1c-.105 0-.047.1-.047.1s.152-.1.047-.1zm-8.037.01c-.087.045.073.09.073.09s.013-.136-.073-.09zm28.987.072c.054.069.087-.082.087-.082s-.142.014-.087.082zm9.087-.026s0-.12-.078-.008c-.078.112.078.008.078.008zm-.081-8.036c-.07.07.081.08.081.08s-.01-.153-.081-.08zM365 162l8 8s-2.403-5.59-8-8zm7.95 0l.1 8c.004-4.67-.1-8-.1-8z"/><path d="M373.05 170s-.021-6.931-.084-7.923.084 7.923.084 7.923zm-9.063-.045c-.079.036-.007.088-.007.088.099.042.086-.124.007-.088z"/><path d="M373.05 158.46s-.015-2.135-.055-1.242c-.041.889-.068 6.403-.018 7.645.05 1.243.073-6.402.073-6.402zm21.95 4.287l8 7.253-5.698-8zm-9.05-.267l.1 7.52-.056-8zm7.826-9.777s-.39-2.369-1.685-2.16c-1.295.204-1.816 1.646-1.943 1.955C390.017 152.807 386 149 386 149s1.426 2.883 2.205 4.015c.779 1.132-.648.72.258 2.06.906 1.337 2.722 2.47 3.37 1.646.647-.823.52-.514 1.557.104s.648-.618-.39-1.851c-1.04-1.243.776-2.271.776-2.271zm1.793-12.699C392.476 139.797 403 148 403 148s-4.332-7.789-7.431-7.996zm-1.603 8.946c-.063 0 .084.1.084.1s-.021-.1-.084-.1zm-8.002-9.998c-.058.021.086.098.086.098s-.029-.118-.086-.098zm8.018.002c-.098.028.061.096.061.096s.037-.124-.061-.096z"/><path d="M385.95 149.033c0 .059.098-.055.098-.055.018-.065-.098-.003-.098.055zm-8.998-.077c-.017.022.098.094.098.094.003-.077-.082-.116-.098-.094z"/><path d="M376.954 149.04c-.029.711.096 7.96.096 7.96s-.067-8.664-.096-7.96zm.012-10.089c-.064.012.084.099.084.099s-.02-.111-.084-.099zm-3.981 10.099s.132-.1.02-.1c-.111 0-.02.1-.02.1zm29.202-22.049c-3.482-.075-3.672 3.138-2.636 4.71 1.035 1.569 3.952 1.569 3.952 1.569l.565 1.72.187-2.242s2.542 1.046 2.73-.674c.187-1.72-1.316-5.01-4.798-5.083zm22.8.005c-.039-.18-.057 3.738-.004 6.946.054 3.203.067-1.959.067-1.959s-.025-4.812-.063-4.987zm-17.82-17.022c-1.518.101 7.833.056 7.833.056s-6.32-.157-7.833-.056zm-4.167.066s-6.103-.156-7.797-.078c-1.698.078 7.797.078 7.797.078zm0-4.092s-5.747-.04-7.734.06c-1.98.099 7.734-.06 7.734-.06zm3.95-8.908c.043-.039.078-.073.1-.1l-.1.1zM412 89c-5.297 2.69-16.808 7.282-16.808 7.282-1.955 3.03 11.534-4.331 16.808-7.282zm-9.817-1.03c.318-.481 1.917-4.323-.48-6.566-2.391-2.242-6.544-2.08-6.7 2.562-.162 4.647 7.18 4.004 7.18 4.004z"/><path d="M395.1 88.042c-1.144.042 7.9-.092 7.9-.092s-6.756.05-7.9.092zm-9.067.003c.053-.07-.032-.141-.074-.056-.042.085.074.056.074.056zm37.087-11.336c-1.432-.827.36-1.514-.716-2.062-1.075-.553-.716-1.1-.447-1.653.269-.552-.447-1.927-1.7-2.062-1.255-.14-.717 0-1.076-1.1-.36-1.101-.807-1.788-1.702-.553-.894 1.24 0 0-1.253-1.1-1.254-1.1-3.134 3.166-3.043 5.09.09 1.926 0 1.374-.807 2.2-.806.827-.269.827 1.164 2.062 1.432 1.24 1.432 1.24.984 2.753-.447 1.514.179 3.715.807 3.028.626-.687.626-2.34 1.432-2.753.807-.414.985 3.853.807 4.402-.178.548 2.148-4.816 2.148-4.816l2.149 2.754.09-5.09L425 79.871c.003 0-.447-2.336-1.88-3.162zm1.913.341c.038-.021.01-.133-.062-.09-.071.042.062.09.062.09zm28.945 21.107c-.083 1.4.046 7.843.046 7.843.042-.833.038-9.243-.046-7.843zM403 59s-5.425 2.028-7.669 6.836C393.084 70.644 403 59 403 59zm-9 8s-5.943 2.085-7.769 6.852C384.405 78.619 394 67 394 67zm.05 0c-.087 0-.127 2.306-.08 6.913.047 4.606.08-6.913.08-6.913zm-8.01-7.95s.044-.141-.056-.088c-.101.053.056.088.056.088zm16.957-8.09c-.112-.047.011.09.011.09s.101-.043-.01-.09zM373.05 66.95s-.048-.013-.091.074c-.044.087.091-.073.091-.073zm-17.014.056c-.057.247-.086 7.994-.086 7.994s.144-8.247.086-7.994zm7.952-8.054c-.106-.017.043.098.043.098s.064-.081-.043-.098zm-36.993-.002c-.112-.007.02.1.02.1s.091-.092-.02-.1zm-2.127 8.1c4.367.004 1.542-.141-4.108-.088-5.65.053 4.108.088 4.108.088zm2.132-8s-3.297-.15-7.175-.082c-3.878.068 7.175.082 7.175.082z"/><path d="M327.05 59.05s0-.091-.078-.1c-.078-.008.078.1.078.1zm-26.252 8.239c-2.1-1.415-.841 2.829-.841 2.829s-6.297-.567-7.836-.567c-1.54 0 12.175 5.378 12.175 5.378 2.24.853-1.399-6.226-3.498-7.64z"/><path d="M290.064 67.304c-3.561-1.674 2.721 4.005 5.604 6.539C296.464 74.543 297 75 297 75s-2.394-5.56-6.936-7.696zm-74.111-16.309a.54.54 0 00.097.012c-.073-.012-.11-.017-.097-.012zm39.068-29.945c-.016-.057-.042-.1-.042-.1s.009.043.042.1zm63.023 16.932l.006-.032-.1.1a.45.45 0 01.094-.068zm-34.08 81.181c-.055 1.558.068 7.794.068 7.794.05.779-.012-9.351-.068-7.794zm5.606-6.985c-2.873 6.115 6.06 5.82 6.06 5.82 4.472-3.585-3.189-11.942-6.06-5.82zm-.525-2.128s.032-.127-.064-.095c-.097.032.064.095.064.095zm-13.081.079c-.058-1.314.086 7.871.086 7.871s-.028-6.562-.086-7.871z"/><path d="M268.066 118.026c.931.071 7.926-.037 7.926-.037.314-.072-8.856-.035-7.926.037zm-.101 9.012c.06.05.085-.071.085-.071 0-.05-.146.022-.085.071z"/><path d="M267.986 117.952c-.092.016.021.098.021.098.052.008.07-.115-.021-.098z"/><path d="M267.95 118.05s.156-.07.078-.096c-.078-.026-.078.096-.078.096zm8.214 17.951c-1.5.089 7.799.03 7.799.03.603-.08-6.3-.119-7.8-.03zm12.832.049s.118-.126.005-.095c-.112.03-.005.095-.005.095zm-.046 3c.015.007.145-.072.084-.097-.061-.025-.084.097-.084.097zm52.622-75.489c1.507.633.127.95.25 2.609.123 1.66 1.63.475 3.636-.475 2.006-.95 1.13-2.37 2.006-3.083.877-.712.627-.87-.377-1.422-1.003-.552 0-1.976 0-1.976-.126-.395-1.63-.317-3.009.87-1.38 1.186-1.757-.633-3.26.394-1.502 1.027-.749 2.451.754 3.083zm52.478 16.425l-.011-.036-.089.1zm-8.022-.035c-.078-.015-.078.099-.078.099s.156-.083.078-.099zm-13.034-20.998c-.111-.023.024.097.024.097s.086-.074-.024-.097zm-148.03 51.017c-.058.08.086.08.086.08.004.012-.03-.158-.086-.08zM216 97.045s-3.63-.16-7.26-.064c-3.629.096 7.26.064 7.26.064zm.05-17.091s-.058-.027-.094.067.094-.067.094-.067zm-12.69 16.847c3.211 1.292 3.64-4.136 3.64-4.136s-1.714-4.911-5.991-3.363c-4.285 1.553-.861 6.208 2.35 7.5zm13.605-30.598c-.737 1.358 1.838.679 4.23.168 2.393-.508 2.575-2.545 2.575-2.545s.92-2.374-.919-2.713c-1.838-.34-2.943-1.019-5.15-1.694-2.206-.68-7.91-.508-10.302.339-2.392.847 6.623 1.019 9.752 1.187 3.13.168 2.76 1.018 3.13 1.866.364.847-2.583 2.033-3.316 3.392zm8.02-28.17c-.09.637.02 7.958.02 7.958.057.322.07-8.596-.02-7.958zm-9.032 7.98c.025.07.121.035.091-.063 0 0-.115-.007-.09.063zm3.033-9.705c1.041.963.926 2.405 1.156 1.284.231-1.122.694-1.764 1.504-3.85.81-2.084 3.008-3.044 3.354-3.365 0 0-2.082.48-3.123.963-1.04.483-1.155-2.085-2.428-1.122-1.272.963-1.735 2.406-2.313 4.65-.578 2.24.81.477 1.85 1.44zm18.053 1.742s.047-.136-.054-.09c-.102.045.054.09.054.09zm-8.043-.1c-.112-.009.014.1.014.1s.098-.09-.014-.1z"/><path d="M228.974 37.953c-.083.022.076.097.076.097s.007-.12-.076-.097z"/><path d="M229.05 38.04s-.007-.157-.08-.057c-.074.101.08.058.08.058zm-.003-8.99s.025-.087-.068-.099c-.093-.012.068.099.068.099zm8.003 0s0-.108-.078-.1c-.078.009.078.1.078.1zm-8.07-21.013c-.059.856-.014 16.963-.014 16.963.141-3.427.074-17.822.015-16.963zm8.06.013c.03-.04-.007-.12-.072-.096-.066.024.071.096.071.096zm18.01 0s-.026-.147-.086-.084c-.06.063.086.084.086.084zm2.983-.04c-.623.1 7.782-.018 7.782-.018 1.555-.037-7.165-.08-7.782.018z"/><path d="M259.35 6.919c.92 2.317 0 0 .574-.365.574-.366.69-.489 1.264.733.573 1.219.46.61.803.12.344-.488.344-.853.804-1.219.46-.365.574.366 2.298-.854 1.724-1.219.46-1.83.46-1.83-.23-2.807-1.724-4.028-3.562-3.295-1.837.733-.69.488-1.723 1.342-1.034.854-.804 1.098-1.838 3.05-1.032 1.953.002 0 .92 2.318zm8.618 22.764c.068-3.033.082-16.683.082-16.683s-.15 19.715-.082 16.683zM289.05 13s-.136 2.484-.09 6.96c.045 4.48.09-6.96.09-6.96zM288 30s-6.056 3.243-7.79 7.161C278.479 41.08 288 30 288 30zm-3.972-9.048c-.078-.018-.078.098-.078.098s.156-.08.078-.098zM135.99 326.951a.3.3 0 00.011.076c.016.05.013.01-.012-.076zm-45.943-42.957a.263.263 0 00-.094.012s.035-.003.094-.012zm8.003-60.011c-.045.003-.078.012-.094.026-.022.019.018.005.094-.026zm148-84.933c-.032-.046-.1-.1-.1-.1s.034.055.1.1z"/><path d="M309.714 310.887c.953-1.227 2.097-4.82 2.382-5.479.286-.66 3.718 1.228 3.718 1.228s.57-2.458-.477-3.307c-1.047-.85-4.097-3.496-3.812-4.534.286-1.038 5.242 1.796 5.242 1.796s-2.86-2.362-4.385-4.062c-1.524-1.7.57-4.63 1.238-5.479.668-.851 2.288 1.7 2.192-.472-.095-2.173 1.811-1.796 3.05-3.213 1.238-1.417 4.097-.38 4.862-1.417.762-1.039.285-1.89-.477-3.118-.762-1.227-.57-3.496-.382-4.913.191-1.417.859-3.306-.57-3.685-1.43-.379-1.716-1.796-1.24-2.172.477-.38 2.192-.473.86-.852-1.336-.378-2.098-1.227-2.383-2.74-.286-1.51 1.816-3.255 3.114-1.97 1.297 1.287 2.941.859 2.854.344-.087-.514-1.644-4.286-2.595-5.315-.95-1.029-4.67-5.144-6.66-6.344-1.988-1.2-1.384-3.257-.865-5.231.519-1.971 4.93-5.315 5.536-5.573.607-.257 3.202 0 4.758.772 1.557.772 2.942.17 3.114-.514.173-.686-.606-3.344-2.076-3.859-1.47-.514-3.98-1.971-5.362-3.257-1.382-1.286-1.816-5.917-2.075-8.575-.12-1.242 1.476-2.748 3.212-3.997 0 .105.203.066.73-.203 2.356-1.216 6.11-3.503 8.268-4.132.125-.028.21-.052.247-.07 2.11-.515 2.28-.85 1.824-1.712-.453-.863-1.02-1.396.47-1.263.886.08 2.05.087 2.849.082.059.379.03.78-.269.98-.663.44-1.88.986-1.88.986s1.658.11 1.88.877c.222.767-.333 1.097-1.328 1.097-.996 0-1.439 1.864-1.439 1.864s2.102-.987 2.876-.657c.773.33.443 1.644-.111 2.74l-.552 1.097s1.769-.44 2.875-.547c1.107-.11 2.102 2.74 2.213 3.4 0 0 .774-2.74 2.435-2.303 1.658.44 3.319 3.29 3.319 3.29s-1.77-5.484-.996-5.704c.774-.22 2.102-.547 2.102-.547s-2.102-3.4-.663-3.73l-1.439-2.083s.222-.547.222-1.207c0-.657-.333 1.427-.996.11-.662-1.316-1.106-2.083-1.658-2.303-.552-.22-.885-.767-1.217-1.207-.333-.44-.333.877-1.328.547-.996-.33-.111 0-.996-.33-.884-.33-1.328.44-1.77 1.207-.237.414-.671.828-1.018 1.123-1.109-.068-2.576-.12-3.112.089-.856.332-.252-.863-1.592.332s-.854.732-.694 1.594c.159.863-8.138 3.377-8.138 3.377-3.114.344-6.919 3.258-8.391 3.344-1.418.082-5.164-4.293-6.596-5.685 1.33-.44 3.232-.914 4.14-.4 1.475.835 1.37 2.404 1.37 2.404s1.371-2.506 2.846-1.985c1.474.522 3.16 2.82 3.16 2.82s-2.318-3.239-1.474-4.492c.845-1.253 1.793-1.045 2.213-1.148.422-.105-3.057-2.82.949-3.239 0 0-3.794-2.404-2.213-2.717l1.58-.314s-3.16-1.985-1.793-2.193c1.371-.208 4.11-.419 4.11-.419s-1.897-.731-3.374-1.045c-1.474-.313-2.108-2.507-3.689-2.612 0 0 2.003-1.672 3.267-1.88l1.265-.208s-2.11-.732-1.793-1.672c.316-.94 1.687-1.359 1.687-1.359l-.633-.94 1.37-.732s-1.054 0-1.686-.732c-.632-.732-.632-.521.21-1.253.842-.732-.738-.105-2.003-.835-1.264-.732-3.057-1.461-2.425-2.193.633-.732 1.055-2.194 1.055-2.194s-1.58 1.567-2.53 1.359c-.947-.208-2.108-.627-2.108-.627l2.951-5.224s-3.583 5.432-4.11 5.33c-.525-.106-1.686-2.091-2.108-2.926-.422-.835 0 1.461-.316 1.985-.316.522-3.268 1.148-4.322.94-1.054-.208 1.37.314.738 1.359-.632 1.045-1.686 1.567-1.686 1.567s-1.897.732-2.213.732c-.316 0 1.474 1.358 1.793 1.985.139.274.115 1.09.214 2.016-.896.08-2.653.231-3.592.292-1.298.087-.172-2.572.431-4.202.607-1.63 3.893-2.486 3.893-2.486s-1.47-.086-1.038-.514c.431-.428 3.545-8.66 3.545-8.66s-3.46 6.345-3.632 6.859c-.173.514-.951 1.373-2.164.685-1.21-.685-.606-1.63-1.038-2.401-.431-.772 0-1.715.951-1.972.95-.257 3.805-2.058 3.805-2.058s-.866-.17-1.557-.257c-.691-.086-.347-.858.52-1.714.865-.858 1.297-3.257 1.297-3.257l-.779-.772c-.778-.772 1.298-2.83.606-2.572-.69.257-1.125-.258-2.163-1.373-1.038-1.115-.519-2.916-.519-2.916-1.125.858-3.633.428-4.152.6-.519.172-1.47-3.257-1.384-2.829.087.428-2.508 2.83-3.546 3.688-1.038.858-1.47-.685-2.508-.6-1.037.086-3.545 5.314-3.545 5.314l-1.298-1.372c-1.297-1.373-2.248-1.2-3.545-1.8-1.298-.602-2.163-2.744-2.076-4.116.087-1.373 1.557-2.66 1.125-2.743-.431-.087-2.248-.171-2.941-.087-.692.087-.951-1.8-.52-3 .432-1.2.951-2.573.52-3.258-.432-.685-3.374-3.6-4.843-5.572-1.47-1.972 1.988-5.66 1.988-5.66s-3.286 1.373-5.536 2.744c-1.88 1.146-2.371.376-3.24-.258.08-1.686.25-3.26.605-3.488.818-.531 2.578-2.063 1.427-2.325-1.31-.3-3.558.664-2.687 2.458.34.701.507 1.98.583 3.304a3.157 3.157 0 00-.496-.29c-1.297-.6-2.076-2.315-3.373-3.688-1.298-1.372-2.423-3.086-4.324-4.46-1.904-1.372-2.855-2.571-3.893-3.343-.929-.69 3.98-4.974 1.298-6.775-1.755-1.178-3.25-.409-4.463 1.032-.59-2.028.276-5.089.391-5.334 0 0-.939-.05-2.547 3.157-.58 1.155-.597 2.457-.347 3.617-1.13 2.474-2.81 4.476-5.06 4.216-1.38-.159-2.51-.813-3.385-1.576.507.96.596 1.813-.593 1.92-2.854.257-3.98.087-3.98.087-1.384-6.345-3.113-6.688-5.448-6.688-2.336 0-2.595-1.544-2.423-2.402.172-.858.519 2.916 2.508-4.543 1.644-6.17 1.278-9.696 1.104-10.734.212.01.427.012.639 0 2.024-.117 1.786-.117 3.095 1.179 1.31 1.297 2.024.944 5.237.944s8.211.237 8.211.237.357 1.887.357 3.301c0 1.415.953 2.24 2.38.826 1.427-1.415 1.189-3.657 1.189-3.657s1.07-1.415 3.928-1.651c2.856-.237 2.498-.117 4.404-2.95 1.903-2.831 5.475-3.537 6.07-4.835.594-1.298 1.188-.472 1.547 1.65.356 2.124.594.946.953-.472.356-1.414.238-3.301 1.189-5.19.953-1.888 3.451-3.422 5.117-4.011 1.665-.59.714-2.596 1.665-4.72.953-2.123 3.57-4.01 4.522-6.016.953-2.007 2.142-2.123 2.26-.709.118 1.415 0 2.713.953 2.832.953.117.118-2.006.953-.472.833 1.534 3.095-.353 3.451-2.832.357-2.476-2.142-4.247-3.569-4.483-1.427-.236-.832-1.77.595-2.123 1.427-.353 6.308 2.596 6.308 2.596s.594-.55-.437-1.81c-1.03-1.259-3.095-1.81-5.237-2.91s-1.665-4.167-.396-2.752c1.27 1.415 2.696 1.967 3.73 1.258 1.03-.708-.635-3.933-2.777-4.246-2.142-.316-1.27-2.124-.635-2.044.635.08 1.588-.316 1.984-1.651.397-1.338-.318-2.44-1.507-1.022-1.189 1.415-1.35 1.494-1.984-1.338-.635-2.831-.635-8.02-.396-10.539.238-2.516 6.03-3.933 8.41-4.483 2.38-.55 1.587.865 4.283 1.338 2.697.472.954-.55 3.173-1.651 2.222-1.102 1.031-.709 3.331-1.022 2.3-.316 4.364-.316 6.11-.316 1.746 0 .158-.55-1.904-.629-2.061-.08-3.65-.236-5.475-.08-1.823.157-1.904 1.731-4.364 1.18-2.46-.55-2.696-.945-4.602-1.102-1.904-.157-1.35-.786-2.223-2.044-.872-1.258-.872-1.73-2.934-2.989-2.062-1.258-2.062-4.01-.555-5.427 1.508-1.415 5.237-3.225 8.172-4.167 2.375-.765 12.019-5.851 15.617-7.766-3.813 1.611-14.822 6.587-14.822 6.587l.793-1.337s-10.394 4.01-12.932 4.167c-2.539.156-2.46-3.618-1.588-5.428.873-1.81 2.38-1.73 3.807-2.595 1.428-.866 4.76-3.225 4.76-3.225s-4.837 2.36-5.71 2.832c-.873.472-1.984 1.887-2.777.393-.792-1.495-1.745 3.068-1.984 4.403-.238 1.337-3.33.08-3.569-1.258-.238-1.338 1.508-3.697 3.095-5.898 1.588-2.203 7.933-8.809 7.933-8.809l-3.33 2.753c-3.331 2.752-8.33 9.438-9.441 9.438-1.111 0-6.745-6.686-7.537-8.573-.793-1.887-.873-1.415-1.746-.709-.873.709-2.142.945-3.807-1.101-1.666-2.044-2.619-.63-3.65-2.752-1.03-2.124.319-3.461 0-5.978-.318-2.516-1.587-1.021-3.967.237s-2.777-1.967-2.777-3.618c0-1.65-.953-1.494-2.142-.157-1.189 1.338.319 5.269-1.189 7.628-1.507 2.36.793 4.09-1.11 5.662-1.343 1.108-1.857-1.494-2.044-3.13.069 1.224.064 2.982-.495 3.286-.873.473-1.031-3.224-1.031-3.224s-1.824 2.832-2.619 2.988c-.792.157-1.11-5.584-1.349-5.74-.238-.157.396 5.504-.318 6.133-.715.63-1.588.865-2.3 3.697-.715 2.832-2.223 4.955-3.173 5.112-.953.157-.635-1.81-2.062-4.167-1.427-2.36-1.189-4.796-2.142-4.483-.953.316.396 5.741-.08 9.674-.477 3.934-2.46 3.618-3.808 3.068-1.349-.55-2.38.63-3.41.63-1.032 0-4.285-.393-5.476-.473-1.189-.08 1.507.865 3.095 1.101 1.588.237 1.666.945 1.189 3.225-.477 2.28-2.618.236-3.095.786-.477.55 2.3 3.381 3.015 5.112.715 1.73-1.666 1.415-1.666 1.415s1.666 1.573.953 2.043c-.712.47-6.03-1.494-8.886-2.439-1.522-.502-7.83-1.606-13.399-2.53l8.44-7.26-.186-.333-8.41 7.567c-4.826-.8-9.056-1.456-9.056-1.456s3.826.83 8.599 1.868l-3.562 3.204 3.691-3.176c7.851 1.707 18.176 3.954 18.323 4.001.207.068-3.423.016-4.482-.049 1.155.17 5.517.973 6.862 2.172 1.588 1.415 1.03 1.967.476 3.146-.554 1.178-1.03 2.595-1.665 3.145-.635.55-.635-.709-1.588-.786-.953-.08-.318 1.494-.318 1.494l-5.077.316s-.872.63 1.27.786c2.141.156 2.934-.157 3.967.629 1.031.786-1.269 2.752-3.65 3.225-2.38.472-3.33.944-6.109 1.101-2.776.157-3.095 1.022-3.095 1.022s1.826.157 3.57-.157c1.743-.313 1.983-.472 2.618-.315.634.156 1.269 2.202 0 3.46-1.27 1.259-1.904 3.382-1.904 3.382l1.666-2.123s.318.549.318 1.887c0 1.337-3.888 5.032-4.918 5.897-1.031.865-1.35.63-1.984.08-.635-.55-.635 1.101-.715 1.337-.08.236-2.857 2.91-2.935 3.146-.08.236 3.253-2.044 5.237-3.146 1.984-1.101 3.253-2.043 4.442-2.043 1.19 0 .238 2.516-2.538 3.933-2.777 1.415-5.553 1.258-6.426 2.988-.873 1.73-.554 3.618 1.588 4.404 2.142.785 2.061-1.102 1.984-2.596-.08-1.494 1.269-1.415 2.696-1.415 1.427 0 1.746-1.258 3.253-2.28 1.507-1.022 2.3-.236 3.491 1.651 1.19 1.887 1.111 3.697.477 4.483-.635.786-1.19-.393-2.062-1.101-.873-.709-.793 0-1.03.865-.24.865-1.905.08-1.905.08s.397.628.793 1.337c.396.708-2.935-.236-2.935-.236s2.062.785 2.223 1.494c.158.708-2.3.708-3.808 1.73-1.507 1.022-7.299 5.662-8.41 7.236-1.11 1.573-.953 2.123 0 2.123s5.553-5.505 7.06-7c1.508-1.493 2.62-2.043 4.443-2.359 1.826-.315 1.587 0 1.587 0s.158.393 1.19 1.102c1.03.708-.397.55-.08 1.494.318.945 1.11-.393 1.507.63.396 1.021-3.808 6.133-5 7.55-1.188 1.415-.554 3.225 1.032.865 1.587-2.36 3.491-3.933 4.68-5.584 1.189-1.651.554.629.873 2.044.318 1.415.953.746 1.189-.669.238-1.415-.239-3.421.714-3.538.954-.117 1.31 2.832 2.619 5.661 1.31 2.832 2.26 3.894 2.618 5.072.357 1.179-2.736.59-3.569 1.062-.832.472-1.427-.236-2.38-1.062-.953-.825-.356 2.596 1.786 3.068 2.142.473 1.665-.825 2.736-.825 1.071 0 .356.945-.356 2.24-.715 1.298.118 2.007 1.786 0 1.665-2.006 1.786-1.178 2.736-.708.953.472-.832 1.414-1.786 2.476-.953 1.062-.356 3.185 1.904 3.421 2.26.236.595-3.302 1.666-4.363 1.07-1.062 1.547 1.77 1.903 2.832.314.933 2.005 1.772 3.782 1.884-.401 3.026-3.687 12.775-4.808 13.554-1.165.81-.059-.692-1.34-.868-1.28-.175-1.458 1.446-2.739 2.425-.835.641-.953 1.036-1.76 1.233a10.088 10.088 0 001.893-3.709c1.073-4.053 1.073-6.494 1.073-6.494s-1.81 6.295-1.944 6.56c-.134.266-.255-.863-1.602-4.785-1.347-3.92-3.545-13.355-3.545-13.355s1.396 13.488 2.802 16.213c1.218 2.357 1.33 4.167.47 5.689-.333.023-.734.035-1.232.035-2.972 0-8.39-5.544-8.39-5.544s3.788 4.216 4.253 4.679c.467.463-1.107 1.328-1.107 1.328s-5.593.115-7.69-.173c-2.097-.288-1.69-2.425-3.437-4.333-1.748-1.906-1.05-2.252-.99-3.178.058-.924-2.447-4.448-3.438-3.985-.99.463-1.807 1.848-2.739 2.37-.932.518.116 3.177.06 5.312-.057 2.135-1.923 4.102-3.497 4.333-1.573.232-3.262-2.483-5.303-4.333-2.04-1.847-2.854-2.079-3.206-1.214-.349.868-.247 5.138-.967 7.04-.72 1.9-3.354 2.69-5.831 3.642-2.477.952-4.393-.238-5.192-.87-.8-.633-.56-.158-5.273-.554-4.713-.395-4.472-1.583-5.831-2.455-1.359-.87-3.753 1.029-4.553 1.504-.8.474-4.074-1.504-5.192-1.902-1.118-.395-4.952.87-4.794 1.347.16.475 1.597 2.138.8 2.771-.8.634-2.715-1.187-3.833-1.187-1.118 0-1.437 2.296-1.36 3.166.081.87 3.676 3.405 4.554 4.038.877.634 6.15 4.513 5.352 5.938-.8 1.424-6.87 6.334-9.025 7.759-2.156 1.424-1.517-6.81-1.517-7.523 0-.713-1.757-5.463-1.757-5.463s.639 5.147.639 5.86c0 .714.8 10.135-.64 10.374-1.436.238-2.075-2.058-3.113-3.485-1.038-1.424.16-2.532.16-2.532l-2.156-2.85s-1.359.394-1.198.713c.16.318 1.677 2.216 2.477 4.592.8 2.376-.64 3.96-.56 4.275.08.316 1.678.554 1.996 1.188.319.634-1.118 2.691-2.635 2.93-1.517.238-2.156-1.583-3.595-1.742-1.437-.16-4.154 1.347-5.272 1.662-1.118.316-1.118-1.424-2.555-2.296-1.437-.87-3.994.316-3.753.239.24-.08 2.956 1.503 2.477 2.532-.48 1.029-3.355-1.504-3.355-1.504s1.437 2.217 2.156 2.297c.72.08 2.796 1.188 2.796 2.455 0 1.268-3.26 1.693-4.027 3.01-.767 1.316 1.481 1.569 1.533 2.785.052 1.216-3.27 3.138-3.27 3.138s1.074-1.569.767-2.228c-.306-.658-4.699-.608-5.312-.658-.613-.051-.186-.907-.28-1.19-.095-.283-.095-2.551-.668-3.213-.571-.662-4.195-1.89-5.242-2.458-1.047-.565-2.003 0-4.098.473-2.097.472-1.811.283-3.909-.094-2.097-.379-4.861 2.173-3.908 3.686.953 1.51 3.717 1.323 3.717 1.323s1.048 1.324 2.192 1.7c1.144.38 2.383 1.51 3.241 1.607.859.093.762-.851 1.048-.945.285-.093 2.002 0 3.144-.472 1.144-.473 3.718-.094 4.003-.094.286 0 4.671.755 3.812 1.417-.858.662-1.906 0-2.288.756-.382.755 1.43 2.644.762 3.402-.667.755-6.1-.379-6.291 0-.191.379-2.765 5.292-5.148 6.613-2.382 1.324-6.194-.093-6.194-.093s3.812 1.89 5.909 3.874c2.097 1.986-.285 5.007-1.812 6.33-1.526 1.324-5.718.19-5.718.19-.285 1.134 2.574 2.645 2.383 4.158-.191 1.51-1.621 4.913-1.43 6.14.191 1.228 0 5.007-.953 5.007-.724 0-6.162.653-8.372.884 2.024-.035 6.513.27 6.275 1.289-.286 1.227-3.812 6.52-4.48 7.37-.667.852-.382 10.867-.382 10.867-.476-.945-4.289-.945-4.289-.945-3.62 1.418-8.768 1.324-8.768 1.324 3.812 1.607 6.671-.283 9.721-.283s3.718 2.362 3.621 5.196c-.094 2.834-3.908 7.086-3.526 6.71.382-.38 3.144-3.78 3.62-3.59.355.14 1.072 1.987 1.383 3.552-6.331 2.135-6.572 2.607-6.572 2.607-3.628 0-5.227 2.42-5.265 2.626-1.571.552-7.219 1.658-4.22 1.866 2.998.208 4.22-1.036 4.22-1.036s4.15-1.59 5.265-2.488c.804-.648 4.617-2.123 6.68-2.895.034.288.048.552.034.777-.095 1.51 1.144 2.361.382 4.157-.762 1.796-2.956 5.292-5.338 7.654-2.383 2.362-1.336.755-2.574.755-1.239 0-5.05 5.292-4.862 5.765.191.472 2.288 1.606 4.194 1.796 1.906.189 5.242-2.08 6.292-2.269 1.047-.19 3.909 1.89 3.526 4.252-.382 2.361-1.43 4.82-2.955 6.14a5.97 5.97 0 01-2.923 1.392c.269.007.731.154 1.11.973.572 1.227 2.86 2.078 3.622 1.606.762-.472 1.524 1.51.762 2.551-.762 1.039-2.192 1.511-2.003 1.796.191.283 1.715 1.228 2.574 1.228.858 0 .094 3.59.285 4.724.191 1.134.953 2.93.953 4.061 0 1.135-1.238 2.269-1.238 3.78 0 1.51 3.62 2.55 3.432 3.117-.191.565-2.765 3.023-2.765 3.023l1.812 1.51s1.047-1.227 2.288-1.982c1.239-.755 1.812.283 1.906 1.7.095 1.417-.762 2.551.953 4.062 1.715 1.51 5.91.19 6.1 2.457.192 2.269-1.523 6.803-2.096 7.275-.571.473-.191 5.196-.191 5.196 3.908 1.135 6.67-6.236 6.67-6.236.192 2.079 2.289 1.038 2.669.093.382-.944-1.906-3.59-.477-4.251 1.43-.662 3.91 1.607 3.91 1.607-.572 5.764 3.507 7.144 3.507 7.144s-.08-1.18.953-1.495c1.03-.313 2.22 3.854 2.22 3.854s-.397-3.302 1.189-3.302c1.2 0 1.856 1.712 2.036 2.339-.071-.908.264-4.306.264-4.306l2.061 1.415-1.269-2.36 1.35-.313s-1.586-.708-1.904-.942c-.318-.236.78-.709.78-.709s-1.065-.809-1.66-2.329c-.592-1.52 2.491 0 2.491 0s1.114 1.785 3.897 2.271c2.781.486 5.893-2.27 5.893-2.27s1.25 1.594.774 2.915c-.477 1.324.953 4.913.858 3.59-.094-1.324 2.289-4.724 3.05-5.196.763-.472 1.524 2.268 1.716 3.685.19 1.417-1.336-.093-2.668 0-1.336.094.382 2.458.762 3.024.382.566.57 2.362.667 3.875.094 1.51.762 1.7.762 3.685s.762 3.685 1.906 4.251c1.144.566 2.192-1.323 2.668-3.402.477-2.079.668-2.551 2-3.968 1.336-1.417 2.383-1.324 2.574-1.796.191-.473-.953-3.78-.667-4.158.285-.379 8.865 8.126 8.674 7.747-.191-.379-7.148-7.747-7.34-8.502-.19-.756-.19-2.173-.476-3.59-.285-1.417-2.859-3.875-3.05-4.913-.19-1.038 1.335-2.362 1.62-2.362.286 0 0 1.417.095 2.173.094.755 2.574 1.796 3.527 1.606.953-.19 4.097-3.117 5.05-4.251.953-1.134.668-3.403 1.048-3.686.382-.283 1.906 1.607 1.906 1.607l1.62-.379s-.953-1.985-.382-3.117c.571-1.134 1.621 2.458 1.621 2.458s.191-.662.953-1.324-.191 1.134-.191 1.134 1.906.19 3.812.19c.628 0 1.42.409 2.194.923-.33.25-.77.473-1.255.424-1.04-.103-2.703-.103-2.703-.103s.415 1.03-.208 1.237c-.623.206-1.04.928-1.56 1.545-.518.618-.936.412-1.559.618-.622.206-.103 1.134-.207 1.854-.104.72-1.975.72-3.223.515-1.248-.206 1.456.928 1.456 1.545 0 .618-2.078 2.37-2.39 3.195-.311.823.623-.309 1.767-.823 0 0 .415 1.854-.415 3.194-.83 1.34-1.352 2.886-1.352 2.886s2.494-3.298 2.911-2.37c.415.929 1.56 4.432 3.742 4.432s2.91.826 3.533 1.34c.623.514.727-.823 1.04-1.134.314-.311 2.183-3.297 2.704-3.195.52.103 4.99 4.12 4.99 4.12s-2.912-3.296-2.287-4.017c.623-.72 2.911-2.782 2.911-2.782s1.248-.412 1.248 1.237c0 1.648 1.248 2.266 1.248 2.266s-.83-2.68.208-3.092c1.04-.411 2.91-.617 3.741-1.031 0 0 1.352 2.783 1.248 3.606-.104.823-2.493 2.988-2.493 2.988l3.741-2.471c.311-.206.937 2.06 3.222 2.06 2.11 0 4.214-1.574 4.61-2.063-.319.625-1.512 3.55.899 3.814 2.807.309 4.156-2.163 4.156-3.503 0-1.34-2.493-2.369-2.493-2.369s.726-2.06 1.04-2.06h2.494s-.104 7.626-.208 8.552c-.104.926 1.974-3.606 2.911-2.369.936 1.237.311 3.194.311 3.194s2.079-2.265 2.494-1.34c.415.929-.415 3.71-.415 3.71s1.144-3.092 2.493-3.092c1.352 0 2.286-.826 2.6-.928.311-.103 1.663 3.4 1.559 3.914-.064.311-.576 1.253-1.09 2.023.986-.996 2.44-2.252 2.753-1.817.52.72.833 1.648 1.144 1.648.312 0 1.144-1.237 1.144-1.237l.312 2.06.936-1.854s1.456 2.163 1.767 1.957c.311-.205 0-2.163.727-2.576.726-.412 2.91-.206 3.43.205.519.412-.52-.825.103-2.06.623-1.237 1.456-1.751 2.39-2.266.937-.514.104-1.443-.311-2.06s-.623-2.369-.104-2.472c.519-.103 1.04-.308 1.04-.308s-1.56-.206-2.078-.826c-.519-.617-1.144-3.503-1.144-3.503s-.104.515-2.078.617c-1.975.103-2.6-1.854-2.6-1.854s-.104.72-1.663.928c-1.56.206-3.015.103-3.223.618-.207.514-.622 2.783-1.455 2.783-.83 0-1.87-.103-1.87-.103s-1.041-2.37-.937-3.71c.104-1.34-.52-.825-.83-.514-.312.31-1.56-.205-1.56-.514 0-.309-1.04-.617-1.04-.617s.311.72-.52.72c-.83 0-1.558-.412-1.87-.72-.311-.31-.519.308-1.455 1.237-.937.928-2.286 1.751-2.286 1.751s-.937-.928-1.04-1.546c-.104-.617-.623-2.06.622-2.577 0 0-2.182-1.442-2.182-1.854 0-.412-1.248-2.577-1.248-2.577s-.207.617-2.078.928c-1.87.31-1.694-2.266-1.694-2.266s-1.32.72-2.047 1.238c-.727.514-1.975.308-2.079-1.135-.103-1.442-.726-2.368-.726-3.708 0-1.34-.415-.72 0-1.546.415-.826-.415-1.752-.415-1.752s-1.456 1.958-1.767 2.37c-.312.41 1.87.617 2.182 2.265.311 1.649-2.286 1.957-3.534 2.266-1.248.309-.788-3.105-.788-3.105s-.667 3.622-1.5 3.725c-.833.103-1.767-.929-2.078-.929-.312 0-2.39.31-3.223.412-.83.103.727-2.68.727-2.68s-.83 1.34-2.704 1.752c-.65.142-1.328.072-1.934-.08-.215-1.068-.444-2.315-.444-3.147 0-1.324 1.524.472 1.524.472s-.19-1.134-.094-3.402c.094-2.269.57-1.039 2.003-1.418 1.432-.378 1.906-2.078 1.906-2.078.859.378.953 4.25 1.238 6.047.286 1.796 2.668 1.89 4.574 1.323 1.906-.566.953-3.685 1.048-4.157.094-.473 3.144-1.7 3.241-2.645.094-.945-1.62-3.307-1.62-3.307s.476-.851 2.955-1.323c2.48-.473 2.192-.566 2.956-.945.764-.379 1.62 1.7 1.62 1.7s.192-2.362 1.525-2.458c1.332-.096 1.335 1.983 1.811.945.477-1.038.859-.19 2.192.283 1.335.472 3.526 3.307 4.288 5.102.762 1.796 2.383 1.418 3.622 2.93 1.238 1.511 1.62 2.741 1.62 2.741l.571-1.7s.285.755 1.238 1.134c.954.38 3.336-.944 3.336-.944.286.755-2.48 3.496-2.48 3.496h1.048l.286 2.74s1.715 1.134 2.573 1.038c.859-.093 1.812-.093 2.383.566.57.662 1.715.945 1.62-.093-.094-1.038-.761-4.724-.094-4.63.668.093 1.812.85 3.05-.094 1.239-.945 4.671.756 4.671.756s-2-1.796-1.812-1.89c.192-.093 2.48-1.606 3.718-1.796 1.239-.19 4.194 1.228 4.194 1.228s-.57-.566-.57-1.51c0-.946 2.573-1.418 3.24-1.135.668.283 3.242 1.134 3.719.662.476-.473 1.43-.945 2.668-.662 1.238.283 1.047 2.172 1.047 2.172s.285-.755 1.43-1.134c1.144-.379 6.67 1.51 9.15 2.362 2.48.851.571 5.858-.19 6.803-.763.944-3.337 8.03-5.34 10.205-2 2.172-4.288 3.968-4.573 6.898-.286 2.93 2.479 2.551 3.812 1.985 1.333-.565 3.432-6.047 3.717-6.992.286-.944 5.433-8.975 7.245-11.15 1.812-2.172 8.483-2.644 10.295-1.982 1.811.662 6.768 2.834 6.768 2.834.19 2.458 3.432 5.858 3.62 5.575.19-.283 2.383-.283 3.433.19 1.047.472 1.238 5.385 1.238 5.385s.095-1.986.668-2.93c.57-.945 2.86 1.417 4.385 1.606 1.527.19 6.195-6.047 7.245-6.52 1.047-.472 2.859 1.796 4.956 3.686 2.097 1.89 4.003 3.402 4.385 1.417.383-1.983-.57-6.33-.858-7.654-.274-1.337 2.397-2 3.35-3.227zm14.937-88.838l.606.183s-.993.832-1.79 1.585c-1.97.67-4.108 1.263-4.108 1.263s-.69 1.457-.778-.344c-.042-.846 2.937-1.863 6.07-2.687zM233.145 30.486c.076.32.885 1.235.623 1.618-.262.384-.547 1.26-1.222.79-.672-.47-1.495-2.532-1.458-6.005 0 .003 1.982 3.277 2.057 3.597zm17.964 110.733c-.519.514-3.72-.344-3.46-.601.1-.1.46-1.59.856-3.356.016-.07.033-.143.047-.215.106.3.226.58.356.837-.665 2.299 2.685 2.853 2.201 3.335zm59.534 75.997c-.125.433-1.314 1.3-2.27 1.94-.809-.914-.577-3.243-.36-4.583.172.108.346.223.521.344 1.055.732 2.319 1.57 2.109 2.299zm-10.054-14.604c.366-2.42 1.722-3.475 2.491-3.884.142 1.144.488 2.413 1.557 3.026 2.003 1.148 4.638 1.253 5.058 2.194.422.94 0 2.403-.949 1.88-.535-.295-.835-.59-.995-.79.17.343.311.984-.479 1.627-.684.554-3.956.699-5.947.837-.767-1.286-1.017-3.038-.736-4.89zm.965 5.245c1.502-.126 3.852-.322 4.451.272.526.521.354 1.122.102 1.679-.475-.07-1.038-.155-1.713-.248-1.238-.178-2.187-.798-2.84-1.703zm2.668 7.446c-.564-.484.132-1.52 1.097-2.537-.036.587.04 1.05.37 1.003.543-.077 1.257.187 2.017.622-1.43 2.154-2.316 1.915-3.484.912zm-88.267 119.745a.412.412 0 00.095-.098c-.069.06-.117.11-.095.098z"/><path d="M215.996 313.95s.006.043-.002.1c.026-.055.002-.1.002-.1zm-1.679-2.323c-2.05.232-6.816 3.744-6.274 4.89.54 1.145 1.67.117 3.971-1.631 2.3-1.748 2.181-1.863 3.147-1.978.644-.078.803-2.38.839-3.908-.09 1.095-.453 2.486-1.683 2.627zm13.413 37.84c-1.827-1.305-3.567-1.467-3.567-1.467-2.654.327-2.987 2.935-3.152 4.564-.165 1.63 1.494 3.259 3.152 3.424 1.658.162 4.146-1.305 4.48-2.119.332-.816.912-3.097-.914-4.402zm24.924 14.777S250 366.181 250 367.473s1.97 4.428 3.682 4.52c1.713.093 3.17-.829 3.768-2.121.599-1.292.856-3.136 0-4.058-.856-.923-3.081-2.4-4.796-1.57zm15.396 12.706c-.059.056-.1.1-.1.1s.049-.034.1-.1zm7.9 0c-.005.036.016.07.068.092.067.03.021-.028-.067-.092zm.038-3.913l.005-.007c.041-.103.001-.076-.005.007z"/><path d="M277.97 367.864c-.346 0-.575-.927-1.496-1.853-.921-.927 0-2.382 0-2.382s-.69-.133-2.76-.662c-1.256-.322-1.411-.982-1.392-1.307-.262.627-2.18-.146-2.635.116-.46.265-1.38 1.191-2.415 1.455-1.035.265-.346-1.324-.921-1.324-.575 0-1.38-.926-1.15-1.722.229-.793.651-12.185.651-12.185-.474 3.824-1.317 9.98-1.441 10.878-.21-.395-1.988-1.588-2.892-1.472-1.034.133-.92-.927-.92-.927s-1.035.529-1.84 1.987c-.805 1.455-.921 1.455-.575 2.912.345 1.456.689.663.575 2.118-.116 1.455.575 4.501.689 3.97.116-.529.689-1.722 1.38-1.19.689.528.805 3.043.805 3.043s.805-1.455.805-.398c0 1.06 1.726 3.84 1.726 3.84s-.116-1.987-.116-3.044c0-1.058 1.725-.265 2.76-.265 1.035 0 .116 1.325.689 3.044.337 1.01-.155 1.745-.621 2.18.586-.408 1.441-.961 2.001-1.12.921-.264 1.726 3.044 1.726 3.044l.92-.793c.502-.43 1.272.425 1.762 1.193a1.778 1.778 0 011.459-1.591c1.38-.264 2.76 1.986 1.955.793-.805-1.19.46-2.382.575-3.31.116-.927 1.726-.794 1.726-.794l-1.38-2.648c.004.002.695-1.586.35-1.586zm40.08-24.814a.583.583 0 00-.1-.1s.053.084.1.1zm-.067.594c-.164-1.584-1.812-5.618-2.633-6.194-.824-.575-1.564-2.45-1.564-2.45s-1.565.433-2.14 2.45c-.577 2.018-1.646 2.305-1.646 2.305s.988 1.155.988 3.314c0 .954-.322 1.15-.681 1.07.501.414 1.051 1.023 1.257 1.81.412 1.583-.412 4.467-.412 4.467s.74-.575 2.057-1.154c1.317-.575.824 1.296.988 1.73.165.433.824.72.988.145.165-.575.824.863.824.863s.412-.146.74-.721c.33-.575 1.398-6.051 1.234-7.635zm60.954-26.988c1.098-.643 1.647-.428 1.647-.428s-.549-.533-.685-1.497c-.137-.961-.137-2.458.685-2.458.825 0-2.332-1.283-1.647-2.459l.686-1.176s-1.51.215-3.021-.96c-1.51-1.177-3.021-2.566-4.392-2.672-1.374-.106-3.157 1.176-3.157 1.176s-2.06.215-2.196-.855c-.136-1.07 0 1.925.685 2.031.686.107.273 3.635.55 3.954.275.32-2.882-.534-3.843-.962-.962-.427.961 1.604 4.118 1.283 0 0 1.098 2.992.277 3.634a3.937 3.937 0 01-1.784.749s3.021.749 4.668.427c0 0 1.234 3.42 2.06 3.314.825-.107.685-2.459 2.744-1.604C378.392 319.008 381 322 381 322s-3.16-4.702-2.063-5.344zM304.7 411.9s-1.381-2.813-2.648-3.88c-1.267-1.067-3.112-1.357-3.916-.583-.807.776-1.841 2.423-.46 4.266 1.382 1.843 2.19 1.94 3.686 2.327 1.497.387 1.727.97 1.727.97s.345-1.357 1.382-1.94c1.037-.578.23-1.16.23-1.16zm21.118-61.72c-1.151-.596-4.846-2.18-4.846-2.18s-.693 2.97-1.613 3.765c-.925.794 0 2.18 2.076 3.367 2.076 1.188 4.152.989 5.076.397.92-.595.458-4.757-.693-5.349zm18.81-53.102a5.679 5.679 0 00-2.038.03c-1.788.346-2.882 1.858-2.521 3.349.125.512.254.975.364 1.206.337.693 2.514 3.337 4.027 3.337 1.512 0 3.354-1.947 3.522-3.473.168-1.527-.84-4.031-3.354-4.45zm5.079-25.663c-2.158-1.143-1.484-4.766-2.428-4.387-.944.382-4.048 1.524-5.127 3.24-1.079 1.716-1.89-.764-1.89-.764s-.27 6.103-.673 6.486c-.406.382-4.183.382-4.589.382 0 0 4.318 1.142 5.127 2.289.808 1.143 0 5.339 0 5.339s2.022-.191 3.912-1.907c1.89-1.716 4.048-2.098 5.668-3.814 1.62-1.716 2.293-7.055 2.293-7.055s-.135 1.338-2.293.191zM328.812 267L327 270.098s4.982 4.902 7.395 4.902c2.417-.006-3.018-.776-5.583-8z"/><path d="M342.957 276.046c-.683-.01-7.957-.096-7.957-.096.912.106 8.641.106 7.957.096z"/><path d="M340 276c1.892 6.03 8.51 8.901 7.969 7.75C347.43 282.606 340 276 340 276zm32.72 11.633c-1.739-1.446-8.136-8.558-7.699-7.532 2.608 6.08 9.437 8.978 7.7 7.532zm-9.723-28.934c.717.116.072-2.772.358-3.233.287-.463.645-.576.645-.576s-1.075-.463-1.075-1.846c0-1.384.216-4.503-.358-4.04 0 0 .717 2.656-.501 2.54-1.22-.115-1.435-.923-2.224-.923-.789 0-.789 1.847-1.936.692-1.147-1.155-2.94-3.348-3.514-3.927-.573-.576-1.147 1.27-1.434.808-.287-.463-1.722-2.194-1.936-2.194-.216 0 1.219 1.386 1.147 2.54-.072 1.155-.79 1.847-1.005 2.426-.215.576 1.578 6.005 1.65 6.58.072.577-.86 2.31-.717 3.812.144 1.502.288-3.117 1.434-2.886 1.147.232 1.363 2.31 2.08 1.963.717-.348.79-1.847 1.936-1.731 1.147.116 1.792.692 1.722 1.386-.063.61-.239 2.482-.278 2.91.047-.475.322-2.681 1.282-2.681 1.075 0 1.864.923 1.864.923s.143-2.659.86-2.543zm-6.994-3.717l-.006.036.006-.036zM356.02 229c.037-1.167.037-4.655.016-6.989-.02-2.328-.042-.292-.078 2.62-.036 2.917.062 4.369.062 4.369zm12.44-15.081c.712 1.268 2.848 2.222 3.764 2.064.916-.158.813-2.222.712-3.333-.101-1.11-.916-2.856-2.239-3.97-1.323-1.11-1.222-.634-2.544-.158-1.323.477-3.153 2.54-3.153 2.54s.712.796 1.424.954c.714.158 1.322.634 2.036 1.903zm-50.426-5.869c-.032-.062-.068-.1-.068-.1s.015.04.068.1zM206.066 370.658c-.429-.7-.75-1.4-.75-1.4s-.748 1.302-1.177 1.201c-.429-.1-1.286-.999-1.714-1.399-.429-.4-.75 1.302-1.178 2.002-.428.7-.537 1.6-1.178 1.9-.64.3-1.069 1.302-1.069 1.302s.64-.599 1.178.901c.536 1.5.536.8.536 1.5s1.286.101 1.823 0c.537-.1 1.394 0 1.394 0s-.108-.901 1.606-1.399c1.714-.501 1.498-2.001 1.394-2.7-.116-.708-.437-1.209-.865-1.908zm1.911-6.665c-.031.017-.038.047-.007.052.031.005.08.013.08-.02 0-.032-.045-.075-.045-.075s.003.027-.028.043zm3.71-13.325c-1.328-.833-3.1-2.167-3.654-2.668v1.334c-.333 2.668 1.993 6.833 1.993 9.333s2.659 6.333 2.659 6.333l.442-1.498c.441-1.498 1.107-.168 2.105-.5.995-.333.886-2.833.442-5-.442-2.167-2.657-6.501-3.987-7.334zm-23.596-1.54c-3.535.934-1.518 6.082-1.518 6.082s4.295 1.406 6.317.467c2.023-.933.76-5.143.255-6.785-.504-1.635-1.518-.697-5.054.236zm-4.598-14.116c-1.591.127-2.501.127-4.095 2.53-1.59 2.406-2.162 4.682.115 5.19 2.274.504 3.638.252 4.207-.38.855-.953 2.389-3.544 2.274-5.062-.115-1.518-.91-2.403-2.501-2.278zm10.074-7.876c-1.807.92-2.084 2.186-3.89 2.99-1.753.781-2.852 3.292-3.677 4.49.14.007.548.033 1.73.11 1.807.116 4.308.804 4.862-.575.554-1.38-1.112-1.84-1.39-2.875-.276-1.034 4.172-5.06 2.365-4.14zm-7.579 15.886l.024-.042-.024-.002v.044zm49.106 4.945c-1.356-.028-6.094-.012-6.094-.012l.45.027s2.258.056 3.387.064 2.936.004 3.837-.024c.906-.027-.223-.027-1.58-.055zM46.004 167.696c.612.702.773 1.538.446 2.304 1.1-.366.819-1.512 1.934-1.86.323.38.976.633 1.657.766.48.093 1.033.135 1.48-.008.446-.142.694-.522.384-.758.864.508 1.9.91 3.029 1.175.578-.535 1.012-1.126 1.285-1.74.876.229 1.868-.24 2.21-.772.344-.53.294-1.124.571-1.667a15.3 15.3 0 01-2.781-.29c.517-.384.847-.855.95-1.344-.107.523-2.012.677-2.632.628-1.025-.078-2.297-2.093-3.277-2.13-.905-.034-1.041 1.836-1.987 1.787-1.364-.071-2.938-.763-4.161-1.122-.496.371-.505.94-.021 1.316.426.331 1.235.643.975 1.03-.24.359-1.103.312-1.74.226-.632-.088-1.545-.04-1.615.344a6.85 6.85 0 002.463.292c.305.716-.525 1.536-1.74 1.705-.488.069-1.033.052-1.434.226.347.385 1.24.466 1.95.358.711-.103 1.343-.35 2.054-.466zm.974-28.684l.046-.024c-.038.018-.056.027-.046.024z"/><path d="M39.576 141.335c.363-.17 1.555-.71 2.941-1.293 2.898-.047 6.245-.045 6.903.214 1.391.542.052 2.615 1.342 2.27 1.289-.345 1.547.05 2.166.692.618.642.876 1.579 3.144 1.776 2.268.197 1.496 2.813 3.351 2.963 1.856.147 1.6 2.023 1.29 2.912-.311.89.722 1.776.978 0 .258-1.776-.566-2.22-.36-2.912.206-.692 2.474 1.628 2.836 1.973.36.345.053-2.615 1.238-1.826 1.184.79 1.805 1.087 4.175 1.184 2.372.1 4.384.445 5.052.692.671.247 1.806 2.763 2.062 3.11.258.345-.825-2.715-.36-2.665.464.05 2.578.1 3.249.839.67.74.772 1.184 1.6 1.234.824.05.978.395 1.03 1.876.053 1.481-.31 2.073-.67 2.468-.36.395 1.341.692 1.443 1.973.104 1.284-.877 1.531-.723 3.06.154 1.531 1.237 2.024 1.908 2.221.67.197.825-.102 1.753.393.93.494-.876-.348 1.548 0 2.424.347 2.166.446 1.391-.295-.773-.74-1.443-1.432-.979-2.32.465-.89.36-.248.052-1.432s.053-1.134.36-1.482c.311-.344.155-1.134.825-1.48.671-.346.671-1.135 1.185-1.73.517-.591 1.65.298 1.6 1.037-.052.74-.773 1.284-1.237.89-.465-.395.206 1.234.566 2.32.36 1.087 1.237 1.087 1.856 1.481.618.395-.517-.889-.825-2.22-.308-1.332-.358-1.432 1.007-2.074 1.067.037 1.107.075 2.588.65 1.481.573 2.083.918 2.562 4.062.48 3.141.68 4.024.841 2.069.161-1.956-1.4-5.48-.922-6.438.481-.957.76-.116 1.441-.651.68-.538 1-1.724 2.043-1.763 1.04-.038 3.043-.344 2.521-.46-.521-.116-1.562.077-1.521-.651.04-.728.68-.651 1.44-1.38.761-.727 0-.957 1.441-.612s7.328-.383 4.565-.345c-2.764.039-.801-.267-1.121-1.073-.32-.805-1.04-1.227-1.36-1.34-.32-.116.72 1.188.12 1.8-.6.613-2.561.078-3.002-.498-.441-.574-.08-2.758.12-3.296.2-.538.842-2.262.721-2.184-.12.077-1 .077-1.322-.345-.32-.422-.96-.806-1.801-.806-.842 0-1.683-1.456-1.323-2.03.36-.574.08-2.683.522-3.257.44-.574 1.04 1.073 1.682 2.107.64 1.035-.16-1.15-.04-1.685.12-.538 3.803-.919 1.882-.957-1.922-.039-2.323 1.417-2.202-.191.12-1.61.841-1.533-.4-2.606-1.242-1.073-3.323-4.562-3.444-5.748-.12-1.189-.44-2.223.6-2.262 1.04-.039 4.365.69 5.486 1.685 1.12.996-.882-2.49-6.005-2.722-.08-3.257 1.602-3.756 1.682-2.835.081.919.96-.805 1.282-1.15.32-.345.842 1.34 1.081.229.24-1.112-1.161-1.266-.72-1.763.44-.499 1.322-1.379.08-3.141-1.242-1.763 3.003.267 3.164-1.073.161-1.34-1.882-1.418-3.164-2.262-1.282-.844-1.8-2.377-1.602-3.679.2-1.302 3.763-1.533 1.72-2.452-2.042-.919-1.322-1.38-3.244-2.185-1.921-.805-1.84-1.8-1.201-3.18.64-1.379 1.322-1.418 1.4-3.334.081-1.917 3.764-2.952 1.721-4.485-2.043-1.533-2.521.345-2.562-1.724-.04-2.069 2.242-2.758 2.121-4.101-.12-1.34-1.08-1.61-2.362-.383-1.283 1.227-1.162-.92-2.283-.651-1.12.267-4.483.995-3.843 1.993.64.996 2.322 1.15 1.4 1.302-.922.155-2.803.307-3.604-.267-.801-.574-2.443-.422-2.083-1.84.36-1.418.881-2.722-.4-3.985-1.283-1.266-1.721-2.874-2.243-1.495-.52 1.379-2.083.69-1.881.077.199-.613 4.365-5.059 4.164-7.742-2.882 4.101-4.444 7.359-5.205 7.014-.76-.345-1.76-2.452-.921-3.602.84-1.15 3.204-2.185 1.72-3.603-1.481-1.417.521-2.107-1.562-2.645-2.083-.537-1.48 1.073-.921 1.572.561.5.68 1.686.239 2.684-.44.996.161 2.413-.521 3.296-.68.882-1.562.69-3.043-.039-1.481-.728-4.965-1.647-3.884-2.835 1.08-1.189 3.204-1.994 1.962-2.185-1.242-.19-2.763 0-3.443-.957-.68-.957-2.562-1.762-2.363-2.375.199-.612.36-2.413-.32-1.034-.68 1.379-.32 1.917-1.4 1.917-1.081 0 .64-2.03-.28-1.302-.922.728-.882 2.145-1.842 1.379-.96-.767 1.522-2.99.28-1.879-1.242 1.112-1.08 1.495-1.602.574-.521-.918-1.962-1.227-1.922-2.261.04-1.035.72-2.03-.12-1.34-.842.689-.2.804-2.122.727-1.921-.077-2.922.077-3.642.116-.72.039-1.801-.728-.4-1.034 1.4-.307 2.843.537 1.682-.613s-2.763-.766-3.642.23c-.882.995-1.962-.958-1.842 0 .121.957.481 1.15-.08 1.571-.562.422-2.763 1.38-2.882 1.572-.12.19-.44-.728-.8-.038-.361.69-1.802-.384-2.044.038-.239.422-1.48.651-1.602.651-.12 0 .32-2.49.32-2.3 0 .19 1.441-2.282 1.128-2.016 0 0-1.649 1.283-2.012 2.665-1.289.05-3.92-3.06-3.455-2.123.465.937.82 1.184-.054 1.381-.875.198-1.801-.84-2.37-1.381-.569-.542.104 1.284 0 1.926-.104.642-3.815.197-2.114.592 1.702.394 1.083 2.023.723 2.17-.36.148-1.856.298-2.99 2.566-2.013-3.455-7.631-8.885-6.034-6.268 1.6 2.616 6.6 5.826 5.415 6.812-1.185.987-4.176 2.418-6.24 4.789-2.062 2.368-1.289 3.8-1.341 5.183-.052 1.382-.773 1.332-.773 3.405 0 2.073.877 3.307-1.341 2.17-2.218-1.133-3.867-.641-3.197.643.67 1.284 3.403 4.491 3.455 6.465.052 1.973-1.135 3.257-1.39 3.454-.257.198 1.96.297 1.7.74-.258.444-1.03 1.036 0 .937 1.032-.1.878-.05.878 1.086 0 1.134.929 1.432.618 2.763-.31 1.332-4.332 2.913-3.35 2.913 1.599-.05 2.938.542 3.3 1.53.36.988.723 2.321-1.701 3.406-2.424 1.086 2.32-.05 2.938 0 .619.05 2.218 2.218 1.65 3.28-.567 1.061 1.289-.073 2.68 1.506 1.391 1.579 3.763 3.505 1.754 4.886-2.012 1.381-3.508 3.16-1.136 3.11 2.373-.05 4.59.297 5.776 1.331 1.185 1.037 3.35 2.221 3.969 2.468.619.248.517 1.185-.464 1.532-.98.344-4.176.197-5.828.494-1.652.297 4.692.197 6.6.592 1.908.395 7.27.74 2.372 1.629s-8.56 2.22-4.744 1.579c3.815-.642 7.832-1.284 6.751-.592-.592.378-2.713 1.615-4.557 2.672-1.213.188-2.467.335-3.588.388-2.073.097.093.004 3.003-.053a120.376 120.376 0 01-2.26 1.275zm8.347-3.105c.805.093-1.29.726-4.005 1.234 1.737-.697 3.448-1.298 4.005-1.234zM21.05 59.05a.442.442 0 00-.1-.1.447.447 0 00.1.1zm-4.001-.02v-.008l.001-.024c0-.015-.005-.015-.014-.022-.007-.005-.012-.014-.02-.02-.01-.007-.021-.007-.033-.005-.008.002-.023.005-.03.013-.004.006-.006.014.004.015-.002.005-.004.01-.004.015.001 0 .003.003.005.003v.013c.003 0 .006.003.007.007 0 .004 0 .009.002.013.003.004.008.005.013.005.004 0 .01-.002.013 0 .008.003.012.014.02.015l.01-.003a2.112 2.112 0 01.026-.017zm-9.277.097c-.494-.496-1.186.604-1.63.8-.66.29-1.356-.15-2.02-.192-.766-.046-1.501.407-2.253.627-.428.127-.879.183-1.267.487-.388.304-.695.968-.576 1.6.09.477.4.8.717.945.319.145.657.159.982.252.057.014.12.042.144.117.025.08-.003.169-.028.243l-.854 2.419a7.535 7.535 0 003.862.51c.294-.037.592-.098.855-.3.225-.168.41-.435.594-.692.42-.594.839-1.193 1.258-1.787.176-.252.354-.702.163-.926-.322-.384-.422-.234-.294-.968.081-.473.294-.857.416-1.296.135-.491.307-1.464-.069-1.839zm22.206-.106c.006.009 0 .02-.005.029.01 0 .02-.002.03-.005.024-.009.047-.03.047-.056 0-.03-.058-.047-.08-.035a.039.039 0 00-.02.034c.001.024.018.019.028.033zm-9.021 28.986c.016.012.035.02.048.035l.005.005a.015.015 0 00.018 0 .036.036 0 00.013-.014c.01-.018.02-.087-.016-.083-.013.002-.024.021-.036.026-.01.004-.046.005-.038.024a.018.018 0 00.006.007z"/><path d="M28.88 85.28c.168-.503.178-1.085-.088-1.543-.142-.244-.354-.439-.56-.628l-2.33-2.121c-.404-.368-.822-.742-1.338-.911-1.402-.453-1.918 1.215-2.754 1.986-.452.419-.894.976-.796 1.594.083.528.54.901.772 1.38.398.816.157 1.921.791 2.563.482.493 1.289.478 1.933.234.644-.244 1.204-.667 1.843-.92.168-.07.37-.12.522-.026.103.065.162.18.26.25.33.243.752-.14.988-.479.286-.428.59-.871.758-1.379z"/><path d="M22.114 87.964c.722.008 1.282.018 1.883.028 1.433.023 3.131.043 5.003.058-.15-.013-.56-.026-1.167-.036-.468-.008-1.04-.014-1.612-.02a758.836 758.836 0 00-3.478-.034c-.265-.002-1.455-.013-1.686-.01-.33.006.878.013 1.057.014z"/><path d="M20.96 88.05c.013-.01.02-.02.022-.031.002-.01 0-.02.014-.025.006-.003.014-.004.021-.006.013-.002.025-.007.03-.014.006-.007.003-.016-.008-.02a.081.081 0 00-.046-.001c-.014.003-.028.008-.043.01l.005.005a.26.26 0 00.006.082zm.01-11.011a.02.02 0 00.01.009c.016.006.038-.002.048-.011.027-.024.03-.053.007-.078a.021.021 0 00-.01-.006.053.053 0 00-.02-.003c-.02 0-.04.004-.055.01l.006.003a.105.105 0 00.015.076zm8.997 10.991c.02.01.04.017.061.02.006 0 .013 0 .017-.006.007-.01.005-.03.002-.044a.226.226 0 00-.018-.05l-.017.042v.016a.413.413 0 00-.062-.003c0 .014.01.021.017.025zm-2.047 40.566a5.483 5.483 0 00-.77-.603c-.264-.182-.529-.364-.793-.55-.315-.219-.792-.528-1.164-.421-.55.155-.414.654-.783.98-.722.642-1.218-.417-1.988.063-.51.317-1.159 1.983-1.324 2.61-.356 1.332.312 2.224 1.161 2.946.939.793 2.018 1.475 3.147 1.368.99-.095 1.874-.781 2.71-1.448.182-.142.364-.29.5-.491.156-.23.249-.52.306-.813.26-1.32-.146-2.804-1.002-3.64zm-8.904 7.381l-.337-.012c-.537.006-1.127-.006-1.687-.011a78.969 78.969 0 00-.862-.004c-1.564-.001-3.045.027-3.128.059-.006.002-.006.005.065.008.065.002.171.003.272.004 1.44.018 3.08.027 4.744.029.956 0 2.048-.003 2.609-.018.39-.012.413-.028.053-.039a58.041 58.041 0 00-1.73-.016zm2.001-26.009c-.02-.01-.042-.022-.064-.017l-.003.018a.18.18 0 01.032.063c.001.007.004.016.013.018.005 0 .01-.002.015-.004.02-.01.042-.023.04-.042-.001-.016-.018-.027-.033-.036zm34.741 39.405c-1.046-.08-2.76-.994-3.58.372-.203.335-.311.781-.47 1.169-.163.388-.413.739-.708.712.054.925.613 1.562 1.155 1.923.545.362 1.148.6 1.568 1.254.166.26.291.574.457.835.383.6.925.86 1.443 1.1.332.154.677.308 1.023.25.637-.112 1.128-.91 1.524-1.701.494-.983.955-2.184.8-3.406-.309-2.338-2.013-2.423-3.212-2.508zM51.026 140c-.103.739.114 1.497.45 2.118.34.627.8 1.142 1.244 1.658 1.003 1.161 1.917 2.788 3.064 3.726.64.522 2.712.832 3.157-.1.165-.347-.047-.77-.248-1.08a460.89 460.89 0 01-1.297-2.037c-.33-.522-.672-1.05-1.11-1.428-.249-.211-.528-.38-.75-.628-.222-.248-.393-.608-.336-.968A32.832 32.832 0 0151.026 140zM59 164.94c.368.15.829-.003 1.13-.217.302-.213.516-.487.856-.664.659-.346 1.548-.237 2.36-.23a7.99 7.99 0 002.919-.518l-2.058-.302c-.378-.057-.779-.121-1.048-.326-.472-.363-.296-.946-.088-1.421.127-.294.253-.584.384-.878.06-.136.132-.285.291-.37.143-.076.324-.088.5-.108 1.525-.182 2.76-1.252 2.754-2.387a.52.52 0 00-.071-.294c-.253-.37-1.01-.217-1.504-.012l-1.443.173c-.982 1.103-1.964 2.21-2.946 3.312-.105.121-.214.242-.247.383-.039.153.022.31.066.463.362 1.263-.401 2.66-1.855 3.397zm9.014-2.132c-.015 1.156-.024 2.387-.035 3.578-.006.728-.01 3.133-.029 3.614.04-1.044.068-2.446.078-3.942.004-.599.006-1.203.008-1.807.003-.493.015-1.279.014-1.736-.004-.992-.028-.358-.036.293zm7.126 28.515l-1.02.208c-1.298.89-1.705 2.371-2.038 3.738-.059.252-.123.509-.048.761.07.248.263.456.45.655l.821.871c.43.46.88.93 1.491 1.213.612.283 1.438.34 1.985-.022.461-.31.622-.823.96-1.23.477-.567 1.287-.89 1.786-1.438.73-.805.601-2.057-.29-2.743-.251-.195-.552-.35-.788-.553-.536-.465-.697-1.195-.397-1.783-.944.208-1.93.323-2.912.323zm30.114-2.929c-.476-.236-1.152-.326-1.791-.42a49.68 49.68 0 01-2.833-.502c-.622-.13-1.252-.275-1.705-.524-.322-.176-.544-.397-.875-.568-1.06-.552-2.897-.437-4.234-.072-1.333.367-2.444.936-3.835 1.243-.304.067-.64.13-.821.268-.181.138-.172.318-.145.485.059.344.172.692.485 1 .444.432 1.238.734 1.9 1.087 1.704.915 2.71 1.883 5.308 2.146 1.03.104 1.931.192 2.838.49.984.323 2.036 1.136 3.391.944.685-.097 1.093-.45 1.392-.778.952-1.056 1.514-2.199 1.655-3.358.058-.513-.01-1.086-.73-1.441z"/><path d="M96.975 188.48c-.74-.104-1.448-.576-2.06-1.316-.612-.736-.983-1.66-1.722-.848-1.224 1.348-2.052 3.996-2.676 6.212-.24.86-.473 1.756-.51 2.716-.044 1.056.145 2.092.334 3.096.235 1.248.52 2.612 1.175 3.224.568.532 1.252.344 1.893.296.642-.048 1.385.164 1.715 1.14.845-.604 1.324-2.208 1.558-3.772.234-1.564.3-3.216.666-4.7.158-.644.372-1.244.495-1.912.16-.872.16-1.808.156-2.724 0-.26-.002-.536-.072-.768-.167-.552-.597-.596-.952-.644zM207 108.443a8.042 8.042 0 012.794-.317c-.125.606-.252 1.227-.139 1.836.114.608.523 1.208 1.158 1.396.375.111.781.07 1.165.141.596.112 1.119.512 1.35 1.033.115.261.157.572.013.82-.11.195-.316.326-.515.45l-1.927 1.197a9.53 9.53 0 012.895-.216c.38.448.463 1.06.361 1.621-.1.561-.365 1.082-.626 1.596 1.111-.266 1.555-1.497 2.429-2.189.08-.064.175-.126.284-.122.104.004.194.07.273.135l.977.79c.266-.244.478-.54.615-.86a5.79 5.79 0 001.759.21c.383-.014.836-.11.982-.442.104-.236.009-.506.062-.754.097-.46.636-.7 1.107-.87l1.983-.713a15.134 15.134 0 01-2.04-.21c-.112-.02-.23-.043-.313-.115-.138-.125-.115-.328-.127-.506-.041-.677-.677-1.178-1.29-1.55-.97-.59-1.696-1.11-1.659-2.271.023-.758.342-1.579.17-2.337-.502-2.176-3.504-1.159-5.009-1.876-.379-.18-.684-.465-.984-.745-.92-.86-1.84-1.718-2.76-2.575l2.482 3.716c-1.59.465-2.496 2.082-4.03 2.69-.585.238-1.375.444-1.44 1.037zm45.947 25.767c.845-.096 1.196-.29 1.83-2.324.635-2.034-.21-4.164-.985-4.743-.775-.58-1.479.787-1.83.828-.352.044-1.992-1.131-2.604 0-.537.995-3.167 3.625-2.11 3.43 1.055-.193 2.11 2.955 2.11 3.462 0 .508 2.745-.555 3.59-.654zm-6.946 1.833c.086.038.033-.093.033-.093-.09.02-.118.055-.033.093zm32.841 3.007c4.65-.003 7.032-.062 3.37-.089-7.008-.05-8.021.092-3.37.089zm35.205 17.989c.021-.042-.09-.089-.09-.089-.036.047.07.13.09.089zM299.802 162s-2.99 2.294-2.793 5.487c.2 3.187 3.99 2.294 5.007 1.656 1.017-.637 1.972 1.531 2.772.638.796-.894-.6-6.888-4.986-7.781zm35.305 32.958c8.87.073 9.772.104 12.223.087 2.45-.016 4.886-.023 4.655-.044-.231-.02.724-.07-2.312-.043-4.725.042-15.88-.031-14.566 0zm-3.893 9.04c.175 1.295 1.344.556 3.329-.368s7.063-3.45 7.794-3.942c.732-.492 1.254-1.039-.66-.395-3.4 1.147-8.975 4.029-7.82 3.105 1.154-.923 4.325-3.204 2.244-2.341-2.082.863-3.484 1.882-5.002 2.513-1.519.63-3.711 1.8-4.936 3.957-1.227 2.155 4.876-3.823 5.05-2.529zm11.835 12.049c.01-.021-.04-.097-.04-.097-.149.026.03.118.04.097zm4.997-.047c.027-6.249-.095-8-.095-8-.014 5.286.095 8 .095 8zm-21.093 8.003c.013.04.058.061.085.036.027-.025 0-.075 0-.075-.055-.033-.1-.001-.085.04zm29.074.041c.06-.026-.014-.12-.049-.087-.061.057-.012.112.049.087zm-30.967 21.752c-3.628 3.085-5.822 4.81-6.051 6.69-.23 1.878 3.994-1.88 6.051-3.345 2.058-1.466 3.066-5.946 0-3.345zM334.95 288s.1 10.65.096 7.374c.01-9.011.01-6.394-.096-7.374zM352 317a164.516 164.516 0 00-17-8 164.516 164.516 0 0017 8zm-25-12c2.223 3.242 4.943 5.97 8 8-2.218-3.248-4.948-5.97-8-8zm.05 8a631.727 631.727 0 00-.1-8c.023 3.17.057 5.928.1 8zm3.851-15.99c1.345.016 2.695.03 4.099.04-2.53-.045-5.244-.076-8-.1 1.228.026 2.569.042 3.901.06zM340 327c1.888 3.058 4.62 5.801 8 8-1.875-3.063-4.627-5.796-8-8zm-1.108-22.049c-2.2.005-4.141.014-3.866.064.01.002.03.004.077.006.068.003.189.005.319.007 1.27.02 3.128.014 4.735.02a37.218 37.218 0 00.985-.003 32.13 32.13 0 001.858-.065 195.32 195.32 0 00-4.108-.029zm38.138 13.024l-.062-.024-.008-.001-.008.032c-.002.008-.004.016.004.022l.013.008c.01.008.002.02.008.028.008.014.043.013.057.001.015-.011.016-.027.016-.042 0-.006 0-.012-.006-.017a.037.037 0 00-.014-.007zM289.046 348a222.52 222.52 0 00-.092-8 222.52 222.52 0 00.092 8z"/><path d="M289.028 348.05c.043-.034.022-.073-.055-.1-.045.034-.023.073.055.1zm-13.005-.05a169.725 169.725 0 00-.046 8c.078-2.642.094-5.335.046-8zm.025-13c-.074 2.582-.11 5.3-.095 8 .07-2.607.106-5.29.095-8zm-7.998 5a358.89 358.89 0 00-.1 8c.057-2.345.088-5.096.1-8zm0-22a324.405 324.405 0 00-.1 8c.064-2.493.098-5.254.1-8z"/><path d="M268.023 348.046c.002.002.004.004.006.004.004 0 .007-.003.009-.006.035-.052-.013-.112-.064-.089-.069.031.03.07.05.09zm-5.686-21.096c-.366 0-.743.002-1.016.006-.25.003-.377.008-.62.01-.726.01-1.817.006-2.42.02-.493.01-.261.028.116.039.685.02 2.089.028 3.562.024 1.758-.004 3.313-.025 3.859-.05.8-.035-1.16-.052-3.481-.049zM247 335a109.314 109.314 0 008-17c-3.2 5.543-5.88 11.224-8 17zm8-8c-3.202 2.438-5.903 5.135-8 8 3.215-2.438 5.898-5.132 8-8zm-18.05 21.047v.003h.002l.012-.004c.055-.025.085-.059.086-.096-.063.023-.094.06-.1.097zm.071-21.047a167.731 167.731 0 00-.042 8c.077-2.579.092-5.349.042-8zm-.045-12.95c.077-.027.096-.067.048-.1-.076.027-.096.067-.048.1zm.024 4c.067-.031.066-.069 0-.1-.066.031-.067.069 0 .1zm-12.05 0a.199.199 0 00.1-.1.2.2 0 00-.1.1zm-8.97 0c.077-.03.09-.067.04-.1-.077.03-.091.067-.04.1zm30.061 24.97c-.015-.012-.032-.02-.046-.033-.008-.009-.02-.032-.03-.036-.028-.01-.009.089-.005.09.025.01.053.012.08.003.004-.001.01-.004.01-.01s-.004-.011-.009-.014zm-16.991-8.07c-.005.008-.044-.004-.056.005-.013.01-.019.037-.029.051-.004.007-.01.013-.012.02-.003.008-.004.017 0 .024a.372.372 0 00.097-.1zm-51.055-.883c.003.295.005.965.015.932.007-.022.02-1.085.025-1.336.005-.335.011-.68.014-1.088.002-.447 0-.946-.005-1.328l-.004-.266-.004-.415-.024-3.566-.002 2.897c0 .207 0 .426-.003.607-.002.172-.006.288-.01.394l-.047 1.375c.012-.276.04 1.434.045 1.794zm-7.964.916l-.018-.024c-.005-.006-.012-.012-.018-.007-.004.004-.006.015-.012.013v-.006a.035.035 0 00-.028.017.037.037 0 000 .036.041.041 0 00.012.012.21.21 0 00.042.022c.012.005.027.007.036-.004.006-.008.006-.021.003-.032a.085.085 0 00-.017-.027zm15.966.067l.002-.002.017-.013.011-.01c.009-.007.018-.015.021-.026.014-.05-.051-.058-.079-.041-.046.028.002.055.02.085.001.004.005.008.008.007zm-40.336-3.708c0 .27-2.002.404-4.004.338-2.003-.069 1.1 2.162 2.303 1.554 1.203-.608 1.705-.203 1.705.405 0 .608 1.903 1.824 1.3 2.432-.6.608-2.903 1.113-3.103 1.84-.2.727.102 6.875 1.203 4.578 1.1-2.297.101-3.378.8-3.378.7 0 .4-1.09 1.202-1.964.8-.875 1.603-2.023 1.203-3.172-.4-1.15.501-.677.701-1.758.2-1.081-.701-6.217-.701-6.217-3.009 3.314-2.609 5.072-2.609 5.342zm-12.558-4.392c-5.749.005-6.496.04-2.968.079 3.527.039 6.496.02 5.749-.024-.734-.045-2.78-.055-2.78-.055zm-21.567-3.489c-1.456 2.02.58 6.229 0 8.81-.58 2.587 2.179 4.009 4.072 1.161 1.89-2.847 2.765-3.204 3.197-4.035.438-.832 0-11.397 0-11.397-2.906 2.61-5.813 3.441-7.27 5.461zM108 335.179c-3.668-.564-3.834.251-4.585 1.788-.75 1.54-1.832 4.799-1.249 5.614.584.814 3.333.453 5.25-1.176 1.918-1.63 2.584-2.444 2.584-3.893 0-1.448-2-2.333-2-2.333zM135.98 348c0 3.9.026 7.059-.03 8 .121-.873.098-2.688.098-4.57 0-1.884-.069-3.43-.069-3.43zm26.232 5.415c-.927-1.635-2.553-6.033-3.252-5.342-7.43 1.76-8.707 3.77-9.17 5.782-.464 2.01-3.135 3.645-.927 6.032 2.207 2.387 1.975 4.147 1.857 5.908-.118 1.76 2.207 3.205 4.529 3.205 2.32 0 3.483-1.57 3.715-3.142.232-1.57 1.858-3.77 2.553-4.523.695-.755.581-1.57 1.858-2.795 1.276-1.225 2.32-1.163 1.044-1.918-1.276-.756-1.276-1.575-2.207-3.207zM165 347.95c-.008.002-.012.01-.018.015-.042.038-.049.096.019.083.077-.014.053-.106 0-.097zm.032-5.422c.009-.954.018-4.43.018-6.723 0-2.29-.11.67-.1 4.31.01 3.028.073 3.365.082 2.413zM98.01 356.284c-.073 9.414-.087 9.595 0 3.877.09-5.724 0-3.877 0-3.877zm-18.004-.261c.065-.047.039-.073.039-.073-.135.11-.105.12-.04.073zm8.528-40.04c-1.031-1.631-1.078-2.174-2.684-3.898-1.609-1.723-4.269-2.085-4.269-2.085-3.949.997-5.323 2.447-6.008 4.986-.685 2.54-2.233 2.448-2.66 4.806-.43 2.358.43 1.631.685 3.082.259 1.45-3.07 4.806-.804 3.263 2.265-1.543 2.265-.567 3.122.396.86.963 1.974.239 3.69-.396 1.717-.635 3.178-.18 5.152-1.993 1.975-1.813 5.236-3.082 3.95-4.714-1.292-1.634.854-1.815-.174-3.447zM65.258 318.3c-4.569 1.813-6.674 8.1-6.19 7.68 8.013-5.446 9.712-9.074 6.19-7.68zm.418 9.273c-6.209 5.759-9.337 9.562-3.818 6.116 5.519-3.446 6.256-8.377 3.818-6.116zm37.539-13.611c-1.084-.038-2.785.024-2.785.039-4.486.015-2.01.042 1.393.044 3.402.003 4.177.015 4.177-.017 0-.033-2.785-.066-2.785-.066zm-5.165-11.678c0-1.66-.047-5.284-.047-5.284l-.028 1.057c-.028 1.057-.039 3.318 0 6.943 0 0 .075-1.057.075-2.716zm-12.686-4.508c-2.529-1.348-3.164-1.01-4.744 1.572-1.58 2.582-.19 4.375 4.744 5.503.984.224 2.636.448 2.636-1.348 0-1.797-.103-4.383-2.636-5.727zm-5.362-.735c.048.045.048-.091.048-.091-.153.013-.097.046-.048.091z"/><path d="M80.029 296.95c-.06.017-.127.11-.031.099.095-.012.03-.099.03-.099zM88 281.057L85.937 280c-6.021 3.773-5.937 8-5.937 8 5.94-8 8-6.943 8-6.943zM97.965 280c-7.615 4.055-8.445 8.38-7.783 7.973C98.97 283.11 97.965 280 97.965 280zm-25.695 5.34c.174-.443-1.499-.886-1.499-.886 2.828-1.773 2.25-1.456 3.289-2.279 1.038-.822 4.45-3.86 5.31-4.874.863-1.012.972-1.995-.523-.633l-4.79 4.368-1.211-.57c-.115 1.392 0 1.962 0 1.962-2.77 1.518-5.366 3.702-5.366 3.702-1.73.285-3.519 2.754-3.519 2.754-1.846 1.392-4.672 1.962-4.961 4.116 3.058-1.013 3.347-2.152 4.846-3.039 1.501-.886 4.327-3.672 4.616-3.828.289-.159 2.018-1.553 3.808-.793zM55.977 280c-6.4 2.015-5.072 4.84-4.345 5.85.363 2.352.723 2.62 2.777 1.547 2.054-1.074 3.622-.337 4.468-3.394.841-3.061-2.9-4.003-2.9-4.003zm1.254 17.508c-7.268 2.713-7.963 3.307-7.963 3.307h-4.614c3.002.425 3.923 1.33 3.923 1.33-4.614 1.3-6.577 2.826-6.577 2.826 3.923.424 13.615-3.878 15.231-4.864 1.616-.987 3.002-4.38 0-2.599zm22.719-13.477l.093.019.007-.077c-.076-.075-.1.058-.1.058zm-3.004-23.262c.264-.614-.526-2.769-.526-2.769-3.1 2.769-7.85 8-7.389 8 4.617-1.228 7.652-4.612 7.915-5.231zm-1.031-15.81c-4.16-.017-8.324-.015-6.455.05 1.863.065 4.018.039 6.455.013 2.441-.027 0-.063 0-.063z"/><path d="M79.981 247.386c-.186-2.55-.654-1.913-2.147-2.337-1.494-.424-3.641 2.02-5.321 3.293-1.68 1.277 1.307 1.593 1.276 2.87-.029 1.276.31 2.883 4.045.744 1.108-.637 2.333-2.017 2.147-4.57zm-2.907-24.01c2.33-1.646 3.542-1.646 2.611-4.183a5.641 5.641 0 00-2.037-2.67c-.596-.43-1.271-.596-1.943-.494-3.218.502-4.893.63-2.735 3.798 2.33 3.425 1.773 5.2 4.104 3.55zm-.108 5.664c.001.007.011.012.02.01.008-.003.014-.01.02-.015.005-.006.011-.013.02-.015.003 0 .006 0 .01-.002.01-.003.015-.015.014-.025a.069.069 0 00-.013-.029c-.02-.026-.056-.014-.067.016 0 .002-.002.005-.005.004l-.002-.001c-.003-.002-.008 0-.01.003s-.002.008-.003.012c0 .008 0 .018.006.023.003.002.007.003.008.006.003.004.001.008.002.012zm-8.991.009h.008c.005 0 .01 0 .014-.004.005-.003.008-.008.011-.012a.042.042 0 01.028-.016c.003 0 .006 0 .009-.002.004-.003.006-.01.005-.015l-.008-.014c-.012-.015-.027-.05-.047-.03-.008.008-.011.02-.022.026-.002.002-.024.006-.023.01.004.016.019.027.02.043.002.005.001.011.005.014zm9.073-13.055a.047.047 0 00-.018-.035c-.008-.007-.02-.013-.03-.006-.007.006-.002.017-.007.022-.006.008-.025.005-.033.007-.005.002-.009.005-.01.01 0 .005.002.01.006.013a.038.038 0 00.013.006l-.004.004c.014.001.026.012.037.02.012.01.026.018.04.014.008-.002.009-.024.008-.03a.16.16 0 01-.002-.025z"/><path d="M72.362 215.971c-.829.01-.057.02.55.03 1.027.018 2.196.03 3.348.041a74.075 74.075 0 003.496-.032c.119-.003.25-.007.244-.012a1.922 1.922 0 00-.187-.01c-.5-.016-1.17-.03-1.941-.035-1.266-.01-1.878.007-2.985.015-.772.006-1.81-.005-2.525.003zm46.604-84.819c-.027.708-.013 3.662-.008 4.71.005 1.125.016 2.302.04 2.904.005.137.01.238.017.234.01-.005.019-.285.025-.62.01-.616.012-1.43.008-2.17-.003-.739-.011-1.424-.019-2.099-.01-.855-.03-3.81-.063-2.959z"/><path d="M119.034 139.02c.016-.016.023-.035.007-.051-.016-.016-.062-.025-.091-.014l.001.008c-.002.03.014.06.045.087a.165.165 0 00.038-.03zm17.001-.07a.112.112 0 00-.059.032l-.026-.028v.067c0 .011.002.025.01.028.006.003.013-.002.018-.007l.05-.043c.01-.009.022-.02.022-.035 0-.004-.001-.01-.004-.012s-.007-.002-.01-.002zm-1.043-1.528c.276.067.606.053.914.074.308.021.648.112.643.253-.016.315.058.632.223.94.048.09.112.185.266.247.35.141.908.024 1.259-.116 1.562-.625 2.13-1.7 1.365-2.574-.25-.281-.616-.539-.967-.798-.43-.318-.84-.642-1.418-.907-.42-.193-.925-.353-1.238-.582-.319-.233-.399-.515-.531-.782-.399-.82-1.334-1.586-2.662-2.177-.303.126-.234.358.005.508.24.15.606.248.914.372.808.327 1.169.88.887 1.35-.398.67-2.12.541-2.566 1.02-.494.53 1.27.694 1.987.976 1.318.52.967.858.526 1.54-.154.234-.09.54.393.656z"/><path d="M136.56 138.53c.524-.413.79-1.05 1.258-1.518.648-.647 1.675-.977 2.062-1.791.137-.294.172-.644.024-.932-.1-.193-.273-.34-.445-.484a19.845 19.845 0 00-3.44-2.278c-.459-.24-.938-.465-1.459-.517-.52-.052-1.089.098-1.406.49-.396.497-.29 1.187-.276 1.812.004.104-.003.215-.072.294-.073.081-.193.101-.297.14-.3.118-.475.429-.503.733-.031.304.062.608.166.899.52 1.461 2.21 4.864 4.388 3.151z"/><path d="M139.95 139l.088-1.411c.003-.063.008-.13.01-.227.002-.11.002-.24.002-.365-.004-2-.01-3.999-.015-5.997.002.813-.095 1.214-.06 2.058.007.161.019.065.026.243.006.14.007.464.01.642.004.486.007 1.02-.002 1.491-.005.279-.014.515-.017.81-.003.255-.001.522-.003.782-.003.728-.031 1.265-.039 1.974zm-12.904-11.95a.217.217 0 00-.092-.1.395.395 0 00.092.1zm8.176 2.018c-.182-.377-.4-.761-.866-1.054-.467-.292-1.255-.468-1.908-.317.181-.218-.25-.461-.69-.484-.434-.022-.851.09-1.273.152-.997.148-2.116.007-2.896-.365-.335.476-.67.952-1.01 1.43-.037.05-.078.105-.164.13-.113.032-.25.005-.362-.025-.757-.203-1.392-.536-1.813-.937.19.57-.259 1.215-1.125 1.574-1.155.479-2.823.476-4.115.117.752.464 1.51.925 2.262 1.389.249.153.503.31.634.503.327.484-.417 1.084-1.36 1.096.721.132 1.442.263 2.162.397l.028.335c1.26.431 2.574.875 4.047.972 2.167.144 4.243-.476 6.065-1.134.58.762 1.328 1.486 2.22 2.153-.167-.508-.81-1.406-.561-1.91.172-.35.693-.401 1.015-.676 1.038-.888.167-2.394-.29-3.346zm-24.172 9.89a.043.043 0 00-.037-.006l-.022.017a.699.699 0 00-.041.08c.042.008.086-.031.1-.09zm7.994-3.362c.018-3.443-.006-5.675-.05-4.06-.022.85-.06 3.033-.037 5.031.004.322 0 .801.001 1.218 0 .63.01 1.084.018 1.185.015.177.028-.454.04-1.148l.006-.296c.009-.549.018-1.129.022-1.93zm7.909 3.405a.012.012 0 00-.003.005c0 .004.002.007.004.01a.176.176 0 00.038.031.01.01 0 00.007.003c.004 0 .007-.003.01-.005.022-.022.063-.059.026-.087-.034-.026-.06.02-.082.043zm9.047.048h.007a.168.168 0 00.043-.013.16.16 0 00-.022-.062.053.053 0 00-.014-.019c-.008-.006-.017-.005-.026-.005l-.038.003.022.019-.003.024c.001.009.005.017.012.02.005.001.01 0 .013.004.006.008-.002.023.005.029z"/><path d="M111.043 138.99c-.002-.004-.013-.005-.017-.01-.004-.007-.001-.018-.007-.024-.018-.02-.075.011-.069.041l.004.008a.097.097 0 00.091.044l.004-.001v-.004c0-.019.003-.041-.006-.055zm-.025-3.023l-.017-.017a.09.09 0 00-.051.022.315.315 0 01.094.078c.015-.029 0-.076-.026-.083zm38.001-9.015a.048.048 0 00-.043.008.05.05 0 00-.02.026c-.044.145.172.003.063-.034zm7.931 9.014c0 .03.102.072.1.084.002-.013-.007-.025-.015-.034-.01-.011-.084-.102-.085-.05zm3.635-.229c1.71.812 4.048-.352 4.409-2.188.073-.37.11-.807.43-1.01.201-.127.457-.122.695-.131 2.136-.068 4.093-1.805 4.381-3.894.069-.51.073-1.078.435-1.443.498-.515 1.417-.37 1.952-.844.183-.162.298-.379.412-.595.398-.776.768-1.615.69-2.486-.11-1.245-1.143-2.265-2.318-2.738-1.203-.488-2.456-.411-3.704-.578.013-.239-.133-.582-.078-.83-1.98 2.738-4.628 1.859-7.395 2.585-.896.235-3.435 1.421-3.457 2.517-.014.591 2.058 2.445-.037 2.725.448.036.723.523.74.966.015.442-.145.87-.196 1.308-.265 2.463 2.932 4.155 3.041 6.636zm-3.631-17.787a.068.068 0 00.004.054c.003.006.008.012.01.02 0 .006 0 .014.003.02.004.006.013.006.02.006l.033-.002c.012 0 .026-.004.026-.016a.02.02 0 00-.006-.013.054.054 0 00-.028-.017v-.016a.137.137 0 01-.062-.036z"/><path d="M165.006 129.243c.014-.4.029-.658.044-.957-.03-3.59-.098 1.292-.1 3.022a634.695 634.695 0 01.004 3.692c.031-1.083.048-2.89.042-4.596 0-.282-.002-.588.001-.834.002-.143.005-.237.009-.327zm10.604 4.999a8.303 8.303 0 001.064-2.265c.102-.351.19-.72.398-1.003.209-.284.581-.445.852-.254.303-1.385-.325-2.964-1.43-3.599-.865-.5-1.651.682-2.419 1.054-.58.28-1.242.373-1.79.746-.461.313-1.09.91-1.284 1.507-.358 1.092.406 1.807-.237 3.07-.256.499-.508 1.002-.764 1.502 2.032-.199 3.889-1.655 5.928-1.643-.234.2-.358.55-.318.885zM89 53.202s7.066 3 11.66 3.184c4.595.184.918.55.114 1.224-.805.673.69.613 1.78.551 1.092-.062.287 1.96 1.492 2.818 1.207.857 5.8 3.55 7.982 4.185 2.182.633 5.342 4.02 5.284 4.387-.059.367-4.308 1.165-2.929 1.347 1.378.184 4.08-.614 4.08-.614s-1.034 1.654-1.954 1.898c-.919.244-2.355.673-1.703 1.469.652.795 1.128-.123 1.933-.674.804-.55 2.009.674 3.272 1.531 1.26.858 1.323 1.347.46 2.696-.863 1.349-1.665 0-2.24.613-.575.613-.69 1.898-.69 2.511 0 .613 1.321.795.746 1.775-.575.98-1.894-.429-2.584-.244-.69.184-1.78.98-2.872.062-1.093-.917-.344-.675-1.895.796-1.55 1.468-.746 0-2.182-.49-1.436-.488-1.148 1.225-3.33.552-2.183-.673-4.767-1.531-6.49 0-1.725 1.53-.115 2.389 3.444 2.449 3.562.062 14.244.244 15.048.244.805 0 6.088 2.51 6.778 4.53.69 2.02-1.207 1.654-.89 1.776.317.122 1.81.795.776 1.409-1.034.613 1.953 1.468 2.24 2.877.288 1.409-2.355 1.898-2.584 4.107-.23 2.209 1.586 0 1.586 0 .142.62.252 1.25.329 1.885.017.158.033.331-.052.463-.06.096-.162.15-.259.201l-3.065 1.617c.787.453 1.789.45 2.571-.01a4.69 4.69 0 01.337 2.598c-.022.136-.047.285.01.41.053.117.165.186.275.244 1.565.829 3.509.63 4.985 1.627.166.112.337.244.535.254.39.021.667-.424 1.05-.53.195.729.285 1.488.265 2.245.52-.52 1.045-1.04 1.566-1.557.386 1.22.775 2.439 1.162 3.66.08.255.162.52.11.782-.164.843-1.497.98-1.582 1.835-.03.295.112.575.236.841.202.434.366.889.49 1.356.613-.357 1.227-.712 1.84-1.068.178-.104.38-.211.576-.159.305.084.409.48.604.746.263.356.735.481 1.155.412.42-.07.8-.307 1.15-.566.32-.235.66-.608.538-.999a4.73 4.73 0 01-2.178-.676c1.05-.936 2.432-1.437 3.798-1.372 0 0 1.607-.163 1.877-.041s.535 4.042.535 4.042.69-1.531.555-2.878c-.135-1.346 2.373.245 2.431-.062.059-.307 1.149 1.715 1.322 1.53.173-.184.46-.917 1.321-.917.86 0 .115 2.633.288 2.205.173-.43 3.733-1.531 4.712-.552.98.98 1.549.307 2.297.736.749.429 7.178.613 10.967.489 3.791-.122 10.167-2.94 12.003-5.326 1.838-2.389 3.16-3.798 4.135-4.593a20.676 20.676 0 003.216-3.307c1.034-1.346.344 1.225 1.492 3.613 1.149 2.39.23-1.102-.173-1.854-.402-.752 1.492-2.31 1.092-2.125-.402.184-1.953-.796-1.953-1.898 0-1.102 1.895-1.346 1.724-2.02-.173-.673-.173-4.223.632-5.143.804-.918 2.24-.123 2.584-2.449.344-2.326 1.263-.489 2.01-.918.745-.429 1.206-2.755 1.723-4.47.517-1.716 2.987-1.287 4.079-1.591 1.092-.305-3.445-1.225-3.848-2.633-.402-1.41 2.356-3.798 3.216-6.333.861-2.537-.173-6.586.173-8.301.344-1.716 2.7-1.165 7.812-2.322 0 0-6.146.055-7.639.779-1.492.723-1.377-2.624-1.072-3.848.306-1.225-.708-2.082-1.512-.796-.805 1.287-.402-.122-2.182-2.877-1.78-2.755 2.355-4.349 2.526-4.653.173-.307 2.126-3.613 1.168-3.98-.957-.366-3.177-.122-4.8.614-1.62.735-4.065-1.409-2.456-3.98 1.609-2.57.058-1.164-.86-2.448-.92-1.287-2.93.735-3.963.735-1.034 0-4.767-1.469-5.113-2.746-.343-1.277 1.378-4.051.861-4.54-.517-.489-.746-1.96-.919-4.9-.173-2.94-4.25-3.184-5.915-3.368-1.665-.185.402-3.92.288-5.633-.115-1.715-2.872-.489-3.16 2.571-.288 3.062-2.297 4.715-2.872 3.429-.575-1.287-.517-1.776-1.78-2.082-1.263-.307-6.893-2.818-10.281-4.102-3.39-1.284-4.08-1.04-4.302-1.716-.222-.673-.007-2.633-.065-3.613s.344-3.122-.35-6.246c-.695-3.122-3.212-4.286-1.718-2.633 1.493 1.653 2.183 8.51 1.378 9.49-.804.98-.975 2.082-1.492 2.511-.517.429-.805-.613-.92-1.469-.114-.857-.918-.735-1.092-.184-.173.551.288 1.102 0 1.53-.287.43-1.838-.488-2.584.185-.746.674-1.609-.98-2.126-1.408-.517-.43-.517-1.102-.344-1.838.173-.736 1.666-1.224 2.01-2.449.343-1.224.287-2.204-.23-3.92-.517-1.715-1.034-1.468-1.377-2.999-.344-1.531-.747-1.287-1.724-2.389-.975-1.102-2.068.858-2.24 2.696-.174 1.837.575 2.755-.23 3.306-.804.551.288 1.469 1.034 2.389.746.917-.115 1.653.919 2.326s.805 0 .92.6c.114.598.172 1.789-.345 1.849-.517.062-.746.735-1.953 1.164-1.206.429-4.25.673-5.227 1.591-.975.918-3.274 3.49-3.733 3-.458-.49.173-1.653 0-3.247-.173-1.59-.402-.735-.287-3.368.114-2.633-.344.673-1.207 1.837-.86 1.165-.92-1.164-1.207-.347-.288.814-.92.532-1.148.103-.23-.429-1.666.551-1.666 1.59 0 1.04-2.411-.366-2.757-.366-.344 0 1.665 1.591 2.757 2.142 1.093.551.861 1.716 1.78 3.306.92 1.591.746 2.45.976 3.673.229 1.225-1.378 3.369-2.01 4.349-.631.98-1.492-.185-4.25-.613-.804.98 3.39.98 3.848 1.775.459.795-.86 1.102-1.321 3.184-.459 2.082-1.207 1.838-4.364-1.224 3.16 5.573 3.732 3.857 3.732 3.857l-1.78 7.286s-.343 1.04-2.296-.184c-1.953-1.225-.69-1.04-3.275-.918-2.584.122-1.206-.244-1.609-2.144-.402-1.898-3.389.184-2.699 1.59.69 1.41 1.895 1.04 2.126 2.696.23 1.653 2.24 1.469 3.216 1.838.975.366 4.308.55 3.618 1.837s-2.528 0-4.135.98c-1.609.98.576 2.327.173 3.122-.402.795-6.49-3.55-7.753-3.613-1.263-.062-2.928-1.469-2.757-1.838.17-.369 1.665-1.653 1.838-3 .173-1.346.631-4.223-.402-5.876-1.034-1.654-1.034-.49-1.61-1.531-.575-1.04-.631-.063-1.092-.98-.458-.918-.919-1.165-1.092-3.247-.173-2.082 0 0-.458 1.347-.459 1.346 1.492 1.96.746 2.94s-3.045-.736-5.284-.614c1.895.918 1.378 2.144.288 2.327-1.092.184-3.216-.49-3.216-.49s2.355 1.47 2.411 2.143c.057.673-2.699 2.082-2.126 1.96.576-.123 2.356.184 2.412 1.04.058.857-2.297 2.204-1.492 1.96.804-.245 1.55 1.164 3.562 2.754.009 2.885-7.228-2.074-13.718-2.074zm-1.12 7.791c.286-.43.02-.936-.36-1.335-.814-.858-1.908-.82-2.928-.213-1.284.764-2.594 1.5-3.804 2.317-.18.122-.366.253-.426.418-.106.3.236.586.592.789.356.202.772.402.881.703.063.17.014.348.004.525-.014.263.066.529-.024.786-.073.211-.252.398-.429.58L80 66.988l1.995.01c.429.003.878.003 1.257-.13.345-.12.585-.333.854-.518 1.067-.743 2.663-1.129 3.561-1.96.133-.122.25-.262.24-.412-.007-.129-.11-.246-.203-.36a3.947 3.947 0 01-.52-.814c-.165-.35-.262-.738-.036-1.073.183-.27.552-.469.732-.739z"/><path d="M97.992 67.487c-.056 1.437-.045 5.479-.029 7.259.001.108.003.241.007.254l.007-.057c.045-.75.059-2.295.066-3.687.003-.737.03-5.828-.05-3.769zm8.058 12.511c.003-.11-.086-.002-.1.03.003-.008.052.023.061.022.012-.002.037.006.039-.052zm-4.994-2.949a1611.783 1611.783 0 003.761-.002c.467-.003.855-.008 1.253-.014 1.042-.013 2.202-.024 3.354-.035.827-.007 1.678-.015 2.6-.017.997-.001 2.071.004 2.976-.004-1.933.001-3.702-.02-5.612-.025-.832-.003-1.673-.002-2.514-.002l-2.45.002c-1.046 0-2.13.002-3.053.01-.516.006-.955.013-1.375.02-.658.013-2.953.046-1.55.06.613.007 1.897.006 2.61.007zM69.594 67.004c.39.007.69.014.87.023.047.002.094.005.195.006l.442.004 2.188.01c.406.002.838.004 1.234.002.353-.002.616-.007.864-.011l1.476-.028a.926.926 0 00.132-.005 3.898 3.898 0 00-.126-.003c-1.118-.016-2.605-.03-3.828-.044-1.028-.012-2.957-.014-2.477.018-.311 0-.69 0-.991.002-.327.002-.607.007-.57.013.037.006.343.01.59.013zm-1.614-7.96l.05.006c.039.004.012-.052-.003-.07-.014-.015-.036-.033-.055-.03-.023.004-.024.027-.02.055.003.032.006.037.029.04zm11.98-.007c.005.008.015.014.024.013a.037.037 0 00.016-.01c.024-.018.073-.047.038-.08-.023-.02-.074-.013-.085.015a.067.067 0 00-.001.035c.001.01.002.019.008.026zm-2.957-7.987c.023 0 .04-.016.045-.032.005-.016 0-.032-.006-.048l-.018-.02c-.016.011-.05-.002-.063.01-.004.003-.005.007-.006.011-.004.017-.008.034-.002.05.007.015.027.03.05.029zm-17.634-.072c.567.022 1.162.044 1.88.053.356.005.725.006 1.094.007l3.295.008c.571.001 1.626.016 1.301-.02-.504-.057-3.839-.045-4.89-.045a371.71 371.71 0 01-3.045-.031c-.036.011.174.02.365.028zm-.409-4.931c.004.002.008.002.012.002h.022c.015.001.031.001.042-.007.015-.012.015-.032.013-.05-.002-.017-.008-.044-.034-.042-.023.003-.033.032-.06.029a.116.116 0 00-.003.053c0 .006.003.012.008.015zm.09 12.963c.003-.02-.021-.041-.045-.06l-.052.005-.003.016.008.078c.046.005.088-.016.092-.038z"/><path d="M58.952 59.047c.007.006.02.001.028-.004.017-.013.034-.025.048-.04.013-.015.023-.032.022-.05l-.049-.003-.047.082c-.003.005-.006.011-.002.015zm21.035-8.097l-.037.02c0 .028.016.055.048.08.074-.027.068-.075-.01-.1z"/><path d="M80.023 51.048a.017.017 0 00.008.002.013.013 0 00.007-.003c.018-.016.014-.04-.001-.056a.213.213 0 00-.065-.041l-.022.036c.014.025.04.047.073.062z"/><path d="M79.963 51.023a.105.105 0 00.073.027c.004 0 .008 0 .01-.005.006-.008.004-.022.002-.034a.176.176 0 00-.013-.044c-.006-.012-.016-.02-.026-.015h-.05c-.007.018-.014.044-.005.061.002.005.006.007.009.01zM186.05 127c.002-1.728-.046-6.454-.094-8-.036.455.095 6.92.094 8z"/><path d="M187.834 112.675c-.775 1.498-1.781 5.48-1.831 7.114-.05 1.655.655 2.993 1.411 4.499.756 1.502 3.074 1.84 4.855 1.673 1.632-.15 2.873-1.356 4.258-2.162 1.134-.66 2.414-1.07 3.582-1.666 1.173-.6 2.283-1.452 2.704-2.626.752-2.098-.903-4.224-2.453-5.908-1.25-1.356-2.495-2.715-3.745-4.071-.173-.19-.397-.396-.659-.364-.363.046-.47.467-.62.774-.421.87-1.698 1.131-2.67.817-.971-.317-1.704-1.049-2.394-1.755.987 1.006-2.106 3.036-2.438 3.675z"/><path d="M198.233 127c.714-.473.966-1.298.6-1.959-.176-.315-.478-.597-.556-.933-.079-.336.217-.762.67-.73-.44-.46-1.435-.542-1.997-.16a228.448 228.448 0 01-1.593-6.35c-.076-.323-.103-.73.272-.9.173-.077.39-.08.561-.159.236-.11.318-.336.361-.542a3.474 3.474 0 00-.35-2.364c-.14.842-.822 1.622-1.793 2.056-.597-1.009.36-2.227-.125-3.27-.223-.482-.73-.863-.969-1.34-.342-.678-.092-1.447-.295-2.158-.253-.883-1.156-1.563-2.019-2.191a31.062 31.062 0 011.218 6.1c.063.652.111 1.329.508 1.912.225.334.556.623.816.943.977 1.213.83 2.735 1.227 4.121.607 2.12 2.536 4.13 1.961 6.253l1.503 1.671zm-3.283-21.05l.003.022c.003.025 0 .055.026.078.174-.035-.025-.066-.029-.1zm-8.966 4.093a.031.031 0 00.023.007.016.016 0 00.01-.005c.018-.018.037-.038.032-.057-.005-.02-.044-.04-.092-.038v.01c-.015.028-.006.058.027.083zM116.97 99.881c-1.539-1.452-3.385-2.208-5.252-1.745-.169.04-.344.096-.473.252-.239.281-.25.774-.244 1.208.024 1.408.1 2.983.854 3.928.269.334.6.556.908.815.508.43.967.975 1.513 1.305 1.373.837 3.054.118 4.13-1.327 1.53-2.064-.24-3.31-1.436-4.436zm-6.013-11.902c-.006.01-.01.024-.003.035.005.009.016.013.024.02.008.006.015.015.025.016.012.001.022-.008.03-.017.01-.012.019-.026.017-.041-.002-.017-.018-.03-.033-.04l.002.008a.031.031 0 00-.026-.01c-.016.002-.029.015-.036.029z"/><path d="M119 87.971c-2.78-.017-8.536-.063-7.96.079 1.535-.023 2.861-.05 4.627-.058 1.133-.005 2.342-.004 3.333-.02z"/><path d="M119.003 88.046c.016.01.04.002.046-.019a.049.049 0 00-.014-.046.1.1 0 00-.04-.02l-.03-.01c-.006-.003-.017 0-.015.008l.02.037c.006.02.016.041.033.05zm-3.163 21.993c-3.734-.035-7.472-.046-11.206-.035-.172 0-.359.006-.495.143-.191.188-.205.553-.355.793-.36.57-1.742.32-1.783 1.13-.05.981 1.355.799 1.897.896.19.034.395.068.545.228.196.21.237.565.26.884.09 1.136.181 2.271.268 3.407.013.182.045.393.173.473a.35.35 0 00.186.04c1.383.04 3.083-.548 3.36-2.242.228-1.37-.627-2.614-1.414-3.6A62.594 62.594 0 01119 110.814c-.919-.73-2.074-.765-3.16-.776z"/><path d="M110.95 110.023c0 .009.01.017.012.009l.007.018a.29.29 0 00.075-.077c.004-.007.008-.015.005-.023a.289.289 0 00-.087.052c-.005.005-.011.011-.012.02zm25.05-.006a234.72 234.72 0 00-3.353-.026c-.936-.001-3.377-.05-3.937-.04-2.248.041 1.496.095 2.225.098a327.66 327.66 0 005.065-.032zm-9.037 8.012c.015.02.04.025.062.018a.036.036 0 00.02-.016c.013-.022-.004-.054-.024-.064-.02-.01-.042-.008-.063-.017l.003.003c-.016.02-.014.056.002.076zm-17.343 17.977c.212-.01.43-.02.37-.031a14.08 14.08 0 00-1.005-.02l-2.456.003c-.726-.004-1.467-.008-2.218-.008-.75 0-1.532.007-1.99.02-.329.01-.446.023-.156.034.147.005.38.008.619.012.974.013 2.08.02 3.176.028.685.004 1.437.009 2.106.003a36.247 36.247 0 001.553-.04zm81.678-100.409c.401.268.806.537 1.207.808.708.475 1.424.949 2.193 1.214.486.166.987.247 1.485.325.536.084 1.147.14 1.548-.344.184-.221.294-.527.4-.827.677-1.91 1.772-5.764-.484-6.606-1.389-.518-4.956.19-5.703 1.854a14.095 14.095 0 00-.895 2.718c-.045.203-.083.434 0 .611.056.113.155.181.249.247zM208.05 20.95l-.005.009a.333.333 0 01-.095.091.117.117 0 00.1-.1zm-.003 8c-.029.03-.063.087-.097.1.025-.01.117-.035.097-.1zm7.903-11.978a.238.238 0 01.094.056.517.517 0 00.006-.05l-.1-.006z"/><path d="M216.003 17.046a.035.035 0 00.013.004.027.027 0 00.02-.009.044.044 0 00.002-.062.102.102 0 00-.048-.029c-.007.016-.034.027-.04.044-.006.022.025.04.053.052zm-45.681 2.053c1.343 1.111 2.932 1.456 4.474 1.77.774.161 1.644.292 2.27-.368.574-.6.764-1.694.79-2.704.029-1.355.481-3.881-.381-4.607-.537-.451-2.079.018-2.679.203-1.808.552-3.71 2.258-4.656 4.535-.097.237-.186.523-.114.772.05.185.178.298.296.399zm-5.361 9.934a.12.12 0 00.05.016c.01.001.02.002.027-.004.032-.025-.009-.085-.03-.094-.021-.009-.07.04-.055.073a.02.02 0 00.008.009zM445.59 179.016c-.982-2.12-4.96-.267-6.5-.259-.354.005-.77.025-.971.352-.146.24-.128.559-.1.85.093.983.181 1.966.273 2.95.029.299.06.614.213.861.39.635 1.323.494 1.766 1.08.174.227.245.538.419.765.44.583 1.251.392 1.893.154.444-.166.915-.352 1.206-.769.117-.166.198-.36.308-.534.334-.526.898-.789 1.291-1.262.752-.902.706-2.339.419-3.544-.064-.219-.124-.441-.217-.644zM112.927 38.049a19.83 19.83 0 00.417-.001c.808-.013 1.506-.03 2.595-.035.988-.005 2.123.002 3.061-.005a67.258 67.258 0 00-2.836-.057c-.828-.003-1.636.002-2.393.007-.427.002-2.269.004-2.435.008-.06.002-.075.004-.09.005l-.165.021c-.086.01-.166.022.11.032.331.012 1.054.019 1.736.025zm-9.684-8.999c1.33-.008 2.772-.013 4.214-.013 1.1 0 3.028-.06 2.43-.076-.403-.012-1.889-.013-2.597-.009-.324.002-1.859.02-1.952.022a5.688 5.688 0 00-.342-.003h-1.914l-.423.002c-.255.004-.025.01.093.014.323.012-.23.025-.752.036.566.007.995.017 1.243.027zm45.719-13.385c.02.453.027 1.522.026 2.49 0 .968-.008 1.9-.012 2.845.014-.528.027-1.167.038-1.886.003-.2.006-.418.01-.537.002-.045.004-.076.005-.138l.004-.28.008-.883c.01-1.203.022-4.367-.028-4.274-.016.031-.033 1.016-.046 1.394-.015.444-.027.732-.005 1.27zM43 148c7.377-6.131 8-8 8-8-6.933 5.138-8 8-8 8zm37.044 17.019c.013-.047 0-.069 0-.069-.068.047-.12.033-.08.069.039.036.068.047.08 0zm-.087 5.002c.023.035.07.042.09 0 .019-.042-.045-.096-.06-.058-.012.034-.053.023-.03.058zM119 165.035s-5.241-.017-7.527-.085c-2.105.083 3.249.124 7.527.085zm66.977 190.999c.011.01.026.018.04.016.02-.003.034-.024.033-.044-.002-.096-.163-.057-.073.028zm-7.967-8.062l-.034-.022a.043.043 0 00-.026.04c0 .02.016.04.034.05.02.013.052.015.063-.005a.036.036 0 00-.005-.037.11.11 0 00-.031-.026z"/><path d="M177.95 347.95c.024.033.047.067.072.1.009-.008.018-.013.028-.012l-.1-.088zm7.589-2.264c-.49-.761-1.247-1.3-1.987-1.816-1.853-1.288-3.7-2.582-5.552-3.87a18.91 18.91 0 004.378 5.827c.507.46 2.238 2.244 2.94 2.17 1.016-.11.728-1.52.22-2.311z"/></g></svg>