<svg width="120" height="29" xmlns="http://www.w3.org/2000/svg" xmlns:xlink="http://www.w3.org/1999/xlink"><defs><path d="M4.58 2.487c-.33 1.01.186 1.83 1.157 1.83.968 0 2.02-.82 2.35-1.83.33-1.01-.188-1.83-1.154-1.83-.972 0-2.022.82-2.352 1.83zm6.801 4.66h-.043l.479-1.466H8.798L5.299 16.395h3.146l1.73-5.299c.456-1.397 1.149-2.752 2.787-2.752 1.617 0 1.115 1.598.709 2.84l-1.702 5.211h3.149l1.919-5.875c.942-2.886 1.078-5.105-2.111-5.105-1.532 0-2.85.889-3.545 1.731zM3.855 5.78L.389 16.395h3.156L7.011 5.781H3.855z" id="path-1"/></defs><g id="Page-1" stroke="none" stroke-width="1" fill="none" fill-rule="evenodd"><g id="Home" transform="translate(-1023 -2816)"><g id="Group-6-Copy" transform="translate(753 2585)"><g id="Group-41" transform="translate(270 231)"><g id="Group-37"><path d="M107.713 28.572h-22.72c-2 0-2.866-2.24-1.933-5.009l6.267-18.389C90.26 2.406 92.66.165 94.66.165h22.787c2 0 2.866 2.241 1.933 5.01l-6.267 18.388c-.933 2.769-3.333 5.01-5.4 5.01" id="Fill-1" fill="#33364E"/><path d="M7.947 6.569h5.42c.057 0 .076.03.056.088l-.38 1.129c-.02.059-.059.088-.116.088H7.508a2.57 2.57 0 00-1.135.282 3.393 3.393 0 00-1.018.764 2.955 2.955 0 00-.635 1.057c-.195.577-.158 1.073.111 1.485.27.412.688.617 1.26.617h5.418c.058 0 .077.03.058.088l-.38 1.13c-.02.058-.06.088-.117.088H5.651c-.61 0-1.122-.153-1.535-.459a2.094 2.094 0 01-.81-1.24c-.125-.523-.083-1.092.125-1.71a4.769 4.769 0 011.028-1.708 5.5 5.5 0 011.644-1.241c.62-.306 1.234-.458 1.844-.458" id="Fill-3" fill="#9B0758"/><path d="M17.593 12.08c.57 0 1.13-.206 1.676-.618.546-.412.917-.908 1.112-1.485.194-.578.156-1.072-.112-1.485-.268-.412-.688-.618-1.26-.618h-2.136c-.372 0-.751.094-1.134.282a3.388 3.388 0 00-1.018.764 2.95 2.95 0 00-.636 1.057c-.194.577-.158 1.073.112 1.485.268.412.688.617 1.259.617h2.137zm-.28-5.511h2.136c.603 0 1.114.153 1.53.458.418.305.689.718.814 1.241.126.522.085 1.092-.123 1.709a4.784 4.784 0 01-1.028 1.708 5.495 5.495 0 01-1.65 1.241c-.623.306-1.236.458-1.84.458h-2.135c-.61 0-1.122-.152-1.536-.458a2.094 2.094 0 01-.808-1.24c-.126-.523-.085-1.092.123-1.71a4.769 4.769 0 011.028-1.708 5.508 5.508 0 011.645-1.241c.62-.305 1.234-.458 1.844-.458z" id="Fill-5" fill="#9B0758"/><path d="M29.133 13.365h-.01l.003-.01-4.41-5.053-1.681 4.994c-.02.059-.059.088-.117.088h-1.117c-.057 0-.076-.03-.056-.088l2.237-6.64c.02-.058.058-.088.116-.088h1.117c.019 0 .034.01.047.03h.01l4.397 5.063 1.686-5.005c.019-.058.058-.088.116-.088h1.116c.058 0 .077.03.057.088l-2.237 6.64c-.02.059-.058.088-.116.088h-1.117c-.019 0-.033-.005-.041-.02" id="Fill-7" fill="#9B0758"/><path d="M39.316 13.365h-.01l.004-.01-4.41-5.053-1.682 4.994c-.02.059-.058.088-.116.088h-1.117c-.057 0-.077-.03-.057-.088l2.237-6.64c.02-.058.059-.088.117-.088h1.116c.019 0 .035.01.048.03h.01l4.396 5.063 1.686-5.005c.02-.058.058-.088.116-.088h1.117c.057 0 .077.03.057.088l-2.238 6.64c-.02.059-.058.088-.116.088h-1.116c-.02 0-.033-.005-.042-.02" id="Fill-9" fill="#9B0758"/><path d="M52.63 7.786c-.02.058-.058.088-.116.088h-7.286l-.489 1.45h5.448c.057 0 .077.03.057.088l-.38 1.13c-.02.059-.059.086-.116.086H44.3l-.489 1.452h7.286c.057 0 .077.03.057.087l-.38 1.13c-.02.058-.059.088-.116.088h-8.49c-.058 0-.077-.03-.057-.089l2.237-6.64c.02-.058.06-.088.116-.088h8.49c.057 0 .076.03.056.089l-.38 1.129z" id="Fill-11" fill="#9B0758"/><path d="M56.977 6.569h5.419c.057 0 .076.03.056.088l-.38 1.129c-.02.059-.058.088-.116.088h-5.419c-.372 0-.75.094-1.135.282a3.393 3.393 0 00-1.017.764 2.955 2.955 0 00-.635 1.057c-.195.577-.158 1.073.111 1.485.268.412.688.617 1.26.617h5.418c.058 0 .077.03.057.088l-.38 1.13c-.02.058-.059.088-.116.088h-5.42c-.61 0-1.122-.153-1.536-.459a2.093 2.093 0 01-.809-1.24c-.125-.523-.084-1.092.124-1.71a4.776 4.776 0 011.028-1.708 5.511 5.511 0 011.645-1.241c.62-.306 1.234-.458 1.844-.458" id="Fill-13" fill="#9B0758"/><path d="M71.886 6.569c.064 0 .086.03.067.088l-.38 1.129c-.02.059-.062.088-.127.088h-3.705l-1.827 5.423c-.02.058-.06.088-.116.088H64.69c-.065 0-.087-.03-.067-.088l1.827-5.424h-3.705c-.058 0-.077-.029-.058-.087l.38-1.13c.02-.058.06-.087.117-.087h8.701z" id="Fill-15" fill="#9B0758"/><path d="M5.384 20.518c.57 0 1.13-.205 1.676-.618.546-.412.917-.907 1.112-1.485.195-.577.157-1.072-.111-1.484-.27-.413-.69-.62-1.26-.62H4.665a2.57 2.57 0 00-1.135.284 3.405 3.405 0 00-1.018.764c-.295.32-.506.674-.635 1.056-.194.578-.158 1.073.11 1.485.27.413.689.618 1.26.618h2.137zm-.28-5.51h2.137c.603 0 1.113.152 1.53.457.417.305.688.719.814 1.242.126.522.084 1.092-.124 1.708a4.792 4.792 0 01-1.028 1.709 5.497 5.497 0 01-1.65 1.241c-.622.306-1.236.458-1.838.458H2.808c-.61 0-1.121-.152-1.535-.458a2.096 2.096 0 01-.81-1.241c-.124-.523-.084-1.092.124-1.709a4.799 4.799 0 011.028-1.708 5.514 5.514 0 011.646-1.242c.619-.305 1.234-.457 1.844-.457z" id="Fill-17" fill="#FFF"/><path d="M16.925 21.803h-.01l.003-.01-4.41-5.053-1.681 4.995c-.02.059-.059.088-.117.088H9.593c-.057 0-.076-.03-.056-.088l2.237-6.64c.02-.059.058-.088.116-.088h1.117c.019 0 .034.01.047.029h.01L17.46 20.1l1.687-5.005c.019-.059.058-.088.116-.088h1.116c.058 0 .077.029.057.088l-2.237 6.64c-.02.059-.058.088-.116.088h-1.117c-.019 0-.033-.006-.041-.02" id="Fill-19" fill="#FFF"/><path d="M24.859 21.823c-.058 0-.077-.03-.057-.088l2.237-6.64c.02-.059.058-.088.116-.088h1.117c.057 0 .076.03.057.088L26.5 20.518h5.362c.057 0 .076.029.056.087l-.38 1.13c-.02.059-.058.088-.116.088h-6.564z" id="Fill-21" fill="#FFF"/><path d="M32.558 21.823c-.058 0-.076-.03-.056-.088l2.237-6.64c.02-.059.058-.088.116-.088h1.117c.057 0 .076.03.056.088l-2.236 6.64c-.02.059-.06.088-.117.088h-1.117z" id="Fill-23" fill="#FFF"/><path d="M42.7 21.803h-.01l.003-.01-4.409-5.053-1.682 4.995c-.02.059-.059.088-.117.088H35.37c-.058 0-.076-.03-.057-.088l2.237-6.64c.02-.059.058-.088.116-.088h1.117c.02 0 .035.01.047.029h.01l4.397 5.064 1.686-5.005c.02-.059.058-.088.116-.088h1.117c.057 0 .076.029.056.088l-2.236 6.64c-.02.059-.059.088-.117.088h-1.117c-.018 0-.032-.006-.041-.02" id="Fill-25" fill="#FFF"/><path d="M54.08 21.823h-1.454a.218.218 0 01-.068-.01.085.085 0 01-.05-.038l-.028-.045a.24.24 0 01-.022-.063.217.217 0 00-.02-.058c-.11-.319-.27-.77-.475-1.359-.207-.587-.335-.949-.385-1.085l-.034-.098h-3.851l-.899 2.668c-.02.059-.058.088-.116.088h-1.116c-.058 0-.077-.03-.058-.088l2.238-6.64c.02-.059.058-.088.116-.088h1.116c.058 0 .078.03.058.088l-.9 2.668h3.85l.1-.098 1.135-1.094a269.28 269.28 0 001.5-1.451.614.614 0 00.048-.044.196.196 0 01.051-.04.565.565 0 01.06-.018.267.267 0 01.066-.01h1.454l-3.526 3.407 1.21 3.408z" id="Fill-27" fill="#FFF"/><path d="M65.6 16.224c-.02.06-.058.088-.115.088h-7.287l-.488 1.45h5.447c.058 0 .077.03.058.088l-.38 1.13c-.02.059-.06.087-.117.087H57.27l-.489 1.451h7.286c.058 0 .077.03.058.087l-.38 1.13c-.02.059-.06.088-.117.088h-8.49c-.057 0-.076-.03-.056-.088l2.237-6.64c.02-.059.058-.088.116-.088h8.49c.057 0 .076.03.056.088l-.38 1.13z" id="Fill-29" fill="#FFF"/><path d="M68.035 16.312l-1.417 4.206h4.216c.57 0 1.129-.206 1.676-.619.546-.412.916-.907 1.111-1.485.195-.577.157-1.071-.11-1.484-.27-.412-.69-.618-1.26-.618h-4.216zm-.763-1.304h5.418c.604 0 1.114.152 1.53.457.417.305.688.72.814 1.242s.084 1.092-.123 1.707a4.79 4.79 0 01-1.029 1.71 5.49 5.49 0 01-1.65 1.241c-.622.306-1.235.458-1.838.458h-5.438c-.045 0-.06-.023-.044-.068l2.244-6.66c.019-.059.058-.087.116-.087z" id="Fill-31" fill="#FFF"/><path d="M75.042 21.823c-.058 0-.076-.03-.056-.088l2.237-6.64c.02-.059.058-.088.116-.088h1.117c.057 0 .076.03.056.088l-2.236 6.64c-.02.059-.06.088-.117.088h-1.117z" id="Fill-33" fill="#FFF"/><path d="M85.184 21.803h-.01l.003-.01-4.409-5.053-1.682 4.995c-.02.059-.059.088-.117.088h-1.116c-.058 0-.076-.03-.057-.088l2.237-6.64c.02-.059.058-.088.116-.088h1.117c.02 0 .035.01.047.029h.01L85.72 20.1l1.686-5.005c.02-.059.058-.088.116-.088h1.117c.057 0 .076.029.056.088l-2.236 6.64c-.02.059-.059.088-.117.088h-1.117c-.018 0-.032-.006-.04-.02" id="Fill-35" fill="#FFF"/></g><g id="Group-40" transform="translate(91 6)"><mask id="mask-2" fill="#fff"><use xlink:href="#path-1"/></mask><path id="Fill-38" fill="#FFF" mask="url(#mask-2)" d="M4.022-1.173H22.61l-6.335 19.398H-2.312z"/></g></g></g></g></g></svg>