<svg width="276" height="49" xmlns="http://www.w3.org/2000/svg" xmlns:xlink="http://www.w3.org/1999/xlink"><defs><path id="path-1" d="M.316.284h72.476v48.674H.316z"/></defs><g id="Page-1" stroke="none" stroke-width="1" fill="none" fill-rule="evenodd"><g id="Home" transform="translate(-310 -51)"><g id="Group-40" transform="translate(310 51)"><path d="M234.966 47H61.494c-3.03 0-4.339-3.39-2.924-7.573l9.419-27.855C69.403 7.39 73.005 4 76.034 4h173.472c3.03 0 4.338 3.39 2.924 7.572l-9.419 27.855C241.597 43.61 237.995 47 234.966 47" id="Fill-1" fill="#060A21"/><path d="M254.808 36.123c.227-.321.426-.615.6-.883.307-.014.608-.03.905-.053l-1.505.936zm-22.684-14.205l.893-.8c.084.612.203 1.22.36 1.824a6.268 6.268 0 00-1.253-1.024zm.798-1.667c-.1-.37-.244-.846-.443-1.38.146.127.256.22.312.266l.077.066c.006.349.025.699.054 1.048zm41.742 10.332c-1.716-2.255-9.445-.904-9.774-.846l.019.104-.163.102 1.706-19.07s.083-4.428-4.69-7.358c-1.543-.948-9.384-5.329-20.31.315-3.722 1.924-6.614 5.765-7.886 10.157-.723-.004-4.218-.006-4.994.337a3.32 3.32 0 00-.57-.087 3.846 3.846 0 00-1.302.131c-1.709.466-3.61 2.246-5.36 4.225-1.58-.448-3.197-.99-4.766-1.717-2.646-1.226-4.403-.288-5.166 1-1.106 1.866-.608 5.057 2.495 7.294.673.485 1.29.93 1.937 1.34-.262 1.873.175 4.081.654 5.768-1.175.304-1.887.338-2.197.33.54-.783 2.675-4.31-.489-7-1.492-1.269-3.83-1.26-6.417.028-2.554 1.27-4.482 3.368-4.388 4.776.158 2.362 2.545 2.849 3.133 2.933-.014.05-.033.114-.053.192-.243.932-.918 4.16.6 6.585.862 1.377 2.285 2.278 4.23 2.68.984.203 1.887.347 2.718.45.143 1.165.907 3.416 4.59 4.337 1.205.301 2.43.411 3.573.411 2.912 0 5.285-.709 5.47-.765.126.04.25.082.38.12.138.04.28.076.423.113.126.031.25.065.378.095.166.038.337.07.509.103.116.022.23.047.348.067.2.033.408.06.616.087.1.012.194.028.295.04.305.032.619.058.94.075l.024.002c.46.024.915.036 1.363.036l.126.003c8.237 0 14.096-3.639 17.627-6.793a30.38 30.38 0 003.479-3.688 71.82 71.82 0 005.02.178c5.753 0 13.887-.734 15.838-4.706.482-.98.493-1.78.034-2.384z" id="Fill-3" fill="#FFF"/><path d="M255.056 35.434a28.28 28.28 0 001.11-.06l-2.013 1.227c.33-.408.631-.8.903-1.167m-37.086 8.404a9.51 9.51 0 01-1.174-.367c1.592-.06 2.637-.297 3.21-.474V43l.052-.017.16-.054.066-.022.16-.062.106-.047c.345.481.752.969 1.223 1.445-1.207.012-2.511-.088-3.803-.404m56.641-13.06c-2.283 3.317-9.58 4.05-15.077 4.105 1.274-.298 2.335-.708 3.07-1.223 1.682-1.178 2.06-2.951 2.06-2.951v-4.334s-.378 1.774-2.06 2.952c-3.34 2.34-22.041-8.157-22.041-8.157s-.881 3.835-3.857 3.596c-2.92-.233-3.68-4.236-4.163-7.766-.65 4.931.84 10.188 5.508 14.014 3 2.458 7.788 3.826 12.423 4.275-2.357 2.99-5.906 6.517-10.588 8.458-11.23 4.657-20.167-1.533-21.099-4.475l.03.117a10.72 10.72 0 01-.137-.497l-.01-.038-.018-.077a1.036 1.036 0 00-.013-.06c-.002-.004-.002-.01-.003-.015 0 0-6.811 2.731-11.493-.358-2.154-1.421-1.747-4.617-1.747-4.617l-.03.033c-.391 1.467-1.666 7.764 4.813 9.075 1.028.209 1.962.352 2.824.454.106 1.098.796 3.374 4.586 4.302 4.464 1.095 9.124-.355 9.124-.355l-.006-.008c1.164.373 2.483.629 3.992.707 11.049.565 18.583-5.662 22.671-10.393 3.367.244 18.534 1.027 21.265-4.42.531-1.057.447-1.812-.024-2.344" id="Fill-5" fill="#DAE0EF"/><path d="M240.198 18.94l-.317.182c.167-.25.319-.524.454-.822l-.137.64zm-2.933 1.69c.02.003.04.002.06.005.218.039 1.072.189 1.96.339 1.6.274 3.224-1.62 3.625-4.23.076-.499.103-.988.084-1.455-.246.665-.66 1.214-1.06 1.15-.697-.111-.952-1.17-.952-1.17l-.004.019a6.842 6.842 0 00-.106-1.288c-.431 2.548-2.03 4.377-3.607 4.11-1.08-.186-1.875-1.31-2.154-2.822a1.892 1.892 0 00-.021.123c-.4 2.608.573 4.946 2.175 5.219z" id="Fill-7" fill="#DAE0EF"/><path d="M226.508 26.562a4.578 4.578 0 01-.377-.058c-.82-.171-1.619-.422-2.423-.649a19.488 19.488 0 01-1.84-.422 3.87 3.87 0 01-.794-.33 51.668 51.668 0 01-4.476-1.32c-3.944-1.378-5.16-6.783-5.16-6.783-2.139 5.904 4.04 8.985 8.047 10.322-.386.478-.74.904-1.048 1.249-.776.869-1.074 2.102-1.105 3.429a3.592 3.592 0 011.305-.452.293.293 0 01.277.098c.21-.071.42-.134.63-.188.08-.02.167 0 .234.045.034-.035.064-.075.1-.11.083-.082.167-.164.247-.25.077-.082.144-.194.234-.261.048-.036.092-.041.143-.053l.056-.018c.07-.024.141-.044.211-.067.129-.041.255-.087.39-.099.097-.008.186.059.236.134.078.116.163.266.147.41 2.54-.161 5.79-.703 6.347-2.402.362-1.103-.181-1.729-1.38-2.225" id="Fill-9" fill="#DAE0EF"/><path d="M25.748 24.5c-.6 1.72-1.583 3.307-2.946 4.763a15.716 15.716 0 01-4.704 3.461c-1.771.85-3.513 1.276-5.223 1.276H6.813c-1.73 0-3.18-.425-4.348-1.276-1.169-.85-1.927-2.004-2.274-3.46-.347-1.457-.22-3.045.38-4.764l3.23-9.255c.056-.163.167-.245.33-.245H7.3c.164 0 .217.082.16.245L4.23 24.5c-.562 1.61-.466 2.99.29 4.139.754 1.15 1.942 1.724 3.563 1.724h6.062c1.62 0 3.208-.575 4.766-1.724 1.557-1.149 2.616-2.529 3.179-4.139l3.23-9.255c.057-.163.167-.245.331-.245h3.167c.164 0 .218.082.16.245l-3.23 9.255z" id="Fill-11" fill="#9B0758"/><path d="M46.928 33.946H46.9l.01-.028-12.391-14.087-4.847 13.925c-.057.162-.167.244-.33.244h-3.16c-.163 0-.217-.082-.16-.244l6.443-18.511c.057-.163.167-.245.33-.245h3.16c.055 0 .1.027.135.082h.027l12.355 14.114 4.856-13.951c.057-.163.167-.245.33-.245h3.16c.163 0 .217.082.16.245l-6.443 18.51c-.057.163-.168.245-.331.245h-3.16c-.054 0-.093-.018-.116-.054" id="Fill-13" fill="#9B0758"/><path d="M54.18 34c-.162 0-.215-.082-.158-.245l6.356-18.51c.056-.163.164-.245.326-.245h3.116c.162 0 .214.082.158.244l-6.356 18.511c-.056.163-.165.245-.326.245h-3.117z" id="Fill-15" fill="#9B0758"/><path d="M70.923 26.318c-1.024 0-1.886-.252-2.586-.76-.7-.506-1.154-1.194-1.362-2.062-.207-.869-.13-1.819.231-2.85.546-1.556 1.574-2.887 3.086-3.99 1.512-1.103 3.044-1.656 4.6-1.656h18.925c.164 0 .218.082.161.245l-1.104 3.148c-.057.163-.167.244-.332.244H73.616c-.567 0-1.122.2-1.663.597-.542.399-.91.874-1.103 1.425-.194.553-.159 1.027.104 1.425.262.399.677.598 1.244.598h13.88c1.572 0 2.725.556 3.46 1.668.734 1.114.829 2.448.283 4.004-.546 1.556-1.574 2.887-3.085 3.99C85.224 33.448 83.682 34 82.109 34H63.183c-.164 0-.218-.082-.161-.245l1.104-3.149c.057-.162.168-.243.333-.243h18.953c.567 0 1.116-.2 1.649-.597.533-.398.896-.873 1.09-1.425.193-.553.163-1.027-.09-1.425-.255-.399-.665-.598-1.231-.598H70.923z" id="Fill-17" fill="#FFF"/><path d="M99.913 18.637l-1.404 4.045h15.787c.562 0 1.11-.2 1.648-.597.536-.399.9-.874 1.093-1.426.191-.552.157-1.026-.103-1.425-.26-.398-.672-.597-1.233-.597H99.913zM94.333 34h-3.152c-.163 0-.216-.082-.16-.244l3.762-10.83 2.667-7.681c.057-.163.167-.245.33-.245h19.157c1.558 0 2.702.552 3.433 1.656.73 1.104.826 2.434.285 3.99a7.57 7.57 0 01-1.23 2.212 9.96 9.96 0 01-1.836 1.805 8.682 8.682 0 01-2.226 1.208c-.81.298-1.596.448-2.357.448h-15.76l-2.583 7.437c-.056.162-.166.244-.33.244z" id="Fill-19" fill="#FFF"/><path d="M125.214 26.481h11.78l-2.996-8.441-.755.706-8.03 7.735zm12.295-10.883L144 34h-4.044a.602.602 0 01-.206-.027.261.261 0 01-.124-.109l-.079-.122a.681.681 0 01-.06-.176c-.024-.091-.05-.145-.08-.163l-1.132-3.285h-16.848l-3.423 3.285a1.838 1.838 0 00-.164.163 1.87 1.87 0 01-.182.176l-.163.122a.63.63 0 01-.213.109.83.83 0 01-.211.027H113l19.171-18.402c.425-.398.736-.598.934-.598h3.909c.197 0 .362.2.495.598z" id="Fill-21" fill="#FFF"/><path d="M160.443 15h15.374c.164 0 .218.082.161.245l-1.1 3.148c-.056.163-.166.244-.33.244h-15.374c-1.056 0-2.13.263-3.224.787a9.696 9.696 0 00-2.9 2.131c-.842.896-1.448 1.878-1.82 2.945-.563 1.61-.467 2.99.289 4.14.755 1.149 1.942 1.723 3.562 1.723h15.375c.163 0 .217.081.16.244l-1.099 3.149c-.056.162-.167.244-.33.244h-15.375c-1.73 0-3.178-.425-4.347-1.276-1.169-.85-1.926-2.004-2.274-3.46-.348-1.457-.22-3.045.38-4.764.6-1.719 1.58-3.307 2.945-4.763a15.78 15.78 0 014.69-3.462c1.762-.85 3.508-1.275 5.237-1.275" id="Fill-23" fill="#FFF"/><path d="M202.882 18.393c-.056.163-.167.244-.33.244h-20.618l-1.408 4.044h15.416c.163 0 .217.081.16.245l-1.096 3.148c-.056.163-.167.244-.33.244H179.26l-1.407 4.045h20.617c.164 0 .217.081.16.244l-1.096 3.148c-.056.163-.166.245-.33.245h-24.022c-.163 0-.217-.082-.16-.245l6.444-18.51c.056-.163.166-.245.33-.245h24.022c.163 0 .217.082.16.245l-1.096 3.148z" id="Fill-25" fill="#FFF"/><g id="Group-29" transform="translate(203)"><mask id="mask-2" fill="#fff"><use xlink:href="#path-1"/></mask><path d="M71.306 32.931c-2.07 4.295-13.06 4.591-18.985 4.259.275-.38.519-.735.731-1.057 3.196-.166 5.882-.836 7.345-1.902 1.494-1.09 2.043-2.614 2.2-3.166.202-.17.402-.343.59-.528 2.964-.44 7.25-.588 8.223.717.106.142.428.574-.104 1.677m-20.404 4.16c-.175-.014-2.3 2.708-3.192 3.554-.806.325-6.712 2.492-13.006-1.03-1.436-.803-3.202-.853-4.723-.135-.04.02-.078.034-.118.053-4.288-2.765-6.882-7.488-7.808-9.416l.569.1a.596.596 0 00.268-1.156c.095-.065-6.958-1.727-8.534-2.684.017-.072-1.872-1.274-2.318-1.6-2.747-2.02-3.228-4.833-2.286-6.454.78-1.34 2.363-1.613 4.234-.729 1.293.612 7.479 2.482 8.561 2.746 2.723.663 5.074 1.235 6.776 2.296.437.273.823.6 1.161.97.724 1.015 1.346 2.41 1.537 3.625.08.514.045 1.057-.018 1.61a.599.599 0 00.52.666.597.597 0 00.657-.528l.002-.023c.705.912 1.51 1.767 2.427 2.549 2.875 2.451 7.673 4.112 13.164 4.558.92.075 1.826.11 2.705.11h.096c-.204.29-.427.597-.674.919M37.81 46.596c-6.45.677-10.042-1.958-11.607-3.591a.53.53 0 01-.132-.515.533.533 0 01.381-.38c.152-.042.313-.095.47-.142a25.556 25.556 0 003.12-1.2c.025-.011.05-.02.075-.035.123-.056.242-.106.366-.165 1.179-.556 2.543-.52 3.648.099a16.638 16.638 0 0011.392 1.85c-2.396 1.853-4.97 3.215-7.713 4.08M19.875 30.911c.334-.187.658-.375.972-.562.8 1.746 3.316 6.613 7.721 9.751-.57.235-1.117.442-1.635.61-1.025-.837-5.178-4.471-7.058-9.799m-5.708-3.27c1.421.81 3.03 1.444 5.502 2.004-1.604.926-3.425 1.835-5.102 2.339-.2-.871-.528-2.624-.4-4.342m-.875 4.644c.023-.075.047-.155.07-.237l.05.215-.12.022m15.53 15.402c-4.089-.218-7.242-1.835-9.371-4.808-.015-.02-.038-.032-.055-.05a.549.549 0 00-.097-.09c-.03-.02-.06-.033-.092-.047l-.002-.001c-.007-.024-.01-.05-.02-.073l-.008-.018c-.145-.327-.331-.623-.508-.927l-.558-.902a35.416 35.416 0 01-1.068-1.907l-.002-.004a.077.077 0 00-.105-.032.08.08 0 00-.041.065c-.02.39.02.773.08 1.152.065.38.152.755.269 1.121.118.365.246.732.425 1.072.088.174.184.343.29.506-2.343.236-8.499.659-11.27-1.05-2.216-1.367-2.907-3.906-2.114-7.762.011-.053.004-.103.001-.154a.589.589 0 00.068-.325c.051-.145.093-.292.121-.443.043-.218.057-.444.073-.672.028-.456.044-.922-.02-1.413a.083.083 0 00-.092-.072.082.082 0 00-.053.03 6.23 6.23 0 00-.752 1.202c-.102.21-.202.422-.268.643-.02.064-.032.13-.048.194-.54-.031-1.162-.356-1.589-.861-.29-.345-.728-1.057-.394-1.95.6-1.604 2.466-3.096 5.12-4.092 1-.376 3.564-.647 5.106.908 1.447 1.459.498 4.521.142 5.502a1.535 1.535 0 00-.375-.064c-.15-.01-.303.003-.459.004a8.32 8.32 0 01-1.018-.047h-.003a.086.086 0 00-.094.078.088.088 0 00.008.046c.175.373.495.656.849.85.178.097.365.18.558.219.193.04.39.052.582.002.006-.002.01-.006.016-.007a.578.578 0 00.272.075h.011l.066-.004.017-.001a9.022 9.022 0 001.883-.285h.007l.004-.003c1.464-.368 3.033-1.046 4.504-1.81 1.77 4.887 5.237 8.32 6.824 9.704a1.737 1.737 0 00-.29 2.654c1.218 1.271 3.552 3.095 7.295 3.785-1.248.11-2.523.132-3.826.062m-12.733-.333c-3.175-.808-3.873-2.39-4.015-3.226a32.84 32.84 0 001.643.044c2.24 0 4.209-.207 4.99-.3a12.266 12.266 0 004.255 3.543c-1.677.314-4.324.59-6.873-.06m8.435-32.261c.845-.235 1.6-.134 2.307.307 2.095 1.308 3.013 5.095 3.154 5.736.024.188.056.372.085.558-.042-.028-.08-.057-.123-.083-1.862-1.162-4.416-1.784-7.12-2.442-.89-.217-1.822-.446-2.771-.702 1.515-1.624 3.109-2.996 4.468-3.374m5.914-.657c-.21.842-.373 1.7-.468 2.572-.015.138-.021.272-.033.408-.523-1.061-1.236-2.117-2.178-2.818a62.77 62.77 0 012.679-.162m.65 3.448c.296 1.846 1.313 3.226 2.745 3.461.023.004.046.003.069.006.238.04 1.107.187 2.012.335.142.024.283.034.422.034.532 0 1.051-.167 1.532-.464.073 3.89 1.435 6.832 4.062 8.741 2.078 1.51 5.793 2.729 9.94 3.26.415.053 2.638.191 2.983.191 1.806 0 3.946-.234 5.74-1.054a4.517 4.517 0 01-.888.86c-1.152.84-3.294 1.407-5.876 1.62.007-.01.011-.019.017-.03-.48.11-3.775.117-4.975.02-5.25-.427-9.805-1.987-12.496-4.28a15.354 15.354 0 01-3.199-3.748c-.182-1.464-.739-2.778-1.62-3.829a14.928 14.928 0 01-.385-1.971c-.002-.011.002-.022 0-.033l-.01-.046a16.461 16.461 0 01-.073-3.073m1.181-2.206c.182-1.138.63-2.153 1.26-2.86.497-.555 1.048-.852 1.576-.852.076 0 .15.006.224.019.595.097 1.109.582 1.449 1.366.378.872.487 1.978.305 3.116-.35 2.18-1.713 3.849-2.998 3.697a.813.813 0 01-.056-.01c-.008 0-.015.003-.022.002-1.295-.229-2.09-2.272-1.738-4.478m5.594-2.81a4.77 4.77 0 00-.25-.49c.687.222 1.21.971 1.464 1.971-.745 1.848-1.07 3.69-1.173 5.312-.478.54-1.033.86-1.584.856.94-.83 1.668-2.202 1.933-3.858.218-1.364.08-2.71-.39-3.791M36.14 6.589c4.268-1.153 6.534 1.162 7.172 1.97a14.385 14.385 0 00-3.535 4.3c-.497-.928-1.25-1.563-2.177-1.716l-2.226-.364-.002.01c-.956-.102-1.917.326-2.722 1.227a5.296 5.296 0 00-.317.395c.889-2.235 2.198-4.242 3.807-5.822m3.122-2.309c10.142-5.342 17.554-1.612 19.583-.342 2.507 1.569 3.575 3.558 4.032 5.004a12.977 12.977 0 00-7.392-3.473c-.455-.07-6.342-.907-11.221 2.383a7.563 7.563 0 00-6.308-2.77 12.55 12.55 0 011.306-.802m33.095 26.25c-1.305-1.749-5.41-1.626-8.015-1.348 1.017-1.41 1.75-3.123 2.183-5.133a24.82 24.82 0 00.525-5.518 13.445 13.445 0 00-2.65-7.876c-.048-.996-.519-4.976-4.932-7.738-2.163-1.355-10.056-5.337-20.753.298-3.645 1.92-6.53 5.647-7.93 10.01-1.47.05-5.934.252-7.154.92-1.585.662-3.291 2.218-4.864 3.961-1.426-.426-2.874-.937-4.277-1.6-2.927-1.383-4.93-.214-5.757 1.207-1.045 1.798-.803 4.677 1.429 6.999-1.448-.342-2.934-.153-3.831.183-2.976 1.117-5.096 2.864-5.817 4.793-.402 1.075-.183 2.225.602 3.154.594.705 1.419 1.16 2.223 1.266-.769 4.18.125 7.004 2.734 8.614 1.23.758 2.984 1.143 4.806 1.32.116 1.128.865 3.445 4.92 4.48 1.26.32 2.526.436 3.702.436 2.612 0 4.77-.574 5.389-.756 1.135.36 2.416.609 3.87.686.51.027 1.011.04 1.504.04a25.94 25.94 0 007.646-1.135l.038-.003a.586.586 0 00.239-.083c4.294-1.371 7.596-3.678 9.905-5.782.128-.116.248-.233.372-.35l.022-.021a31.091 31.091 0 002.963-3.22c1.046.073 2.7.158 4.639.158 5.833 0 14.231-.774 16.285-5.034.565-1.172.56-2.157-.016-2.928" id="Fill-27" fill="#060A21" mask="url(#mask-2)"/></g><path d="M253.445 8l-.052.001c-2.55.096-5.782 1.398-7.213 4.767-.34.799-.194 1.49.398 1.898.327.225.76.334 1.192.334.537 0 1.074-.168 1.409-.491 1.404-1.357 2.22-1.884 4.59-2.532 1.025-.28 1.34-1.395 1.2-2.312C254.84 8.83 254.32 8 253.444 8" id="Fill-30" fill="#FFF"/><path d="M262.543 9.598c-1.079-1.217-2.758-1.804-4.38-1.533-.829.138-1.266.774-1.142 1.66.117.832.715 1.708 1.4 1.632 1.097-.122 2.14.044 2.79.442.22.134.449.201.667.201.308 0 .596-.131.812-.386.399-.47.476-1.314-.147-2.016" id="Fill-32" fill="#FFF"/><path d="M229.495 40c.476-.162.98-.362 1.505-.588-4.054-3.03-6.37-7.727-7.106-9.412-.289.18-.587.362-.894.542 1.73 5.143 5.55 8.65 6.495 9.458" id="Fill-34" fill="#9B0758"/><path d="M241.078 45.9A26.546 26.546 0 00249 42.153c-2.72.47-7.077.612-11.701-1.701-1.135-.569-2.537-.602-3.748-.091-.128.054-.25.1-.375.151-.025.014-.053.022-.08.033a28.32 28.32 0 01-3.203 1.102c-.16.043-.326.092-.482.13a.515.515 0 00-.391.35.45.45 0 00.135.473c1.608 1.5 5.296 3.922 11.923 3.3" id="Fill-36" fill="#9B0758"/><path d="M241.008 46.896c2.84-.826 5.51-2.127 7.992-3.896a18.91 18.91 0 01-5.662.143 22.03 22.03 0 01-2.507 1.187c-2.775 1.103-5.412 1.582-7.831 1.64 1.98.764 4.609 1.255 8.008.926" id="Fill-38" fill="#7A094C"/></g></g></g></svg>