<svg width="214" height="217" xmlns="http://www.w3.org/2000/svg" xmlns:xlink="http://www.w3.org/1999/xlink"><defs><path id="path-1" d="M0 .176h162.811V139H.001z"/></defs><g id="Page-1" stroke="none" stroke-width="1" fill="none" fill-rule="evenodd"><g id="Home" transform="translate(-857 -1271)"><g id="Group-92" transform="rotate(131 224.648 925.873)"><path d="M46.922 83.364c-12.973-2.497-21.194 2.52-21.788 5.81-.594 3.29 6.843 3.913 6.843 3.913s-13.685 3.89-13.377 7.778c.309 3.913 5.346 3.601 5.346 3.601S-.716 128.784 1.66 133.273c2.28 4.344 13.33-4.081 14.207-4.754-.545.65-6.035 6.962-3.207 8.979 2.898 2.041 17.368-12.723 18.106-13.492-.19.457-3.089 6.913 1.782 8.379 5.06 1.512 22.571-20.717 22.571-20.717s0 7.202 3.873 7.825c3.873.577 8.506-16.515 8.506-16.515s-1.568-3.193-4.443-7.057l-.19.143s-2.09 9.025-6.249 7.202c-2.209-1.127-1.07-3.528-.902-3.842-.903.937-14.09 14.837-18.415 11.667-4.443-3.312 12.19-14.403 12.19-14.403s-9.505 2.089-9.505-.912c0-3 8.316-5.401 8.316-5.401s-4.752-1.2-3.872-3.913c.902-2.69 2.494-3.098 2.494-3.098" id="Fill-1" fill="#F6921E"/><path d="M44.971 56.678C41.4 67.082 46.95 80.706 46.95 80.706c17.076 1.802 23.816 22.035 23.816 22.035 7.954 7.208 25.007 4.397 25.007 4.397s-7.93-38.639-50.8-50.46" id="Fill-3" fill="#FFF"/><path d="M95.596 83.757c2.858 0 5.167-2.323 5.167-5.198 0-2.876-2.309-5.199-5.167-5.199-2.859 0-5.168 2.323-5.168 5.199 0 2.875 2.31 5.198 5.168 5.198m-15.672-16.77c2.835 0 5.145-2.323 5.145-5.199 0-2.875-2.31-5.198-5.145-5.198-2.858 0-5.168 2.323-5.168 5.198 0 2.876 2.31 5.199 5.168 5.199M59.466 54.6c2.86 0 5.168-2.324 5.168-5.198a5.173 5.173 0 00-5.168-5.175c-2.835 0-5.144 2.324-5.144 5.175 0 2.874 2.31 5.198 5.144 5.198m59.35 52.109c-9.526 7.594-17.862 4.79-23.03 1.197 0 0-7.93-38.524-50.8-50.311 0 0-5.312-19.525 4.882-27.071 13.243 3.402 30.628 9.773 46.323 26.065 18.171 18.855 25.174 45.473 25.412 46.886-1 1.436-1.928 2.564-2.787 3.234m-17.266-9.775a5.173 5.173 0 005.167 5.174c2.835 0 5.145-2.325 5.145-5.174 0-2.873-2.31-5.199-5.145-5.199-2.858 0-5.167 2.326-5.167 5.199" id="Fill-5" fill="#FFF"/><path d="M48.4 91.115s-8.156 2.383-8.156 5.363c0 2.98 9.322.906 9.322.906s-16.313 11.014-11.955 14.303c4.242 3.148 17.175-10.655 18.06-11.586-.163.312-1.281 2.696.885 3.815 4.079 1.811 6.129-7.151 6.129-7.151l.186-.142c-3.495-4.745-8.947-10.491-15.822-12.47 0 0-1.561.405-2.447 3.076-.862 2.694 3.798 3.886 3.798 3.886" id="Fill-7" fill="#F05A28"/><path d="M58.906 44.376a5.497 5.497 0 00-5.488 5.487c0 3.048 2.464 5.513 5.488 5.513a5.507 5.507 0 005.512-5.513c0-3.023-2.463-5.487-5.512-5.487" id="Fill-9" fill="#060A21"/><path d="M46.83 83.741c6.968 1.904 12.495 7.432 16.038 11.996 2.858 3.692 4.418 6.742 4.418 6.742 1.582.757 3.543-.757 3.543-.757s-6.685-19.31-23.621-21.031l-.379 3.05z" id="Fill-11" fill="#A6A8AB"/><path d="M80.812 55.83a5.5 5.5 0 100 11 5.495 5.495 0 005.488-5.5c0-3.043-2.464-5.5-5.488-5.5" id="Fill-13" fill="#060A21"/><path d="M84.244 19.141v.024c8.217 3.173 17.397 14.696 19.745 17.487 2.347 2.791 8.028-1.598 11.738-4.963 3.473-3.148-11.599-14.623-13.641-16.15a310.293 310.293 0 00-17.842 3.602" id="Fill-15" fill="#9B0758"/><path d="M95.233 72.433a5.494 5.494 0 00-5.5 5.5c0 3.042 2.458 5.5 5.5 5.5s5.5-2.458 5.5-5.5-2.458-5.5-5.5-5.5" id="Fill-17" fill="#060A21"/><path d="M106.758 90.25a5.508 5.508 0 00-5.512 5.513c0 3.021 2.463 5.487 5.512 5.487a5.498 5.498 0 005.488-5.487c0-3.047-2.464-5.513-5.488-5.513" id="Fill-19" fill="#060A21"/><path id="Fill-21" fill="#060A21" d="M114.843 70.175l2.612 3.714 11.388-11.365-2.014-1.635z"/><path d="M101.956 15.33c2.046 1.538 17.145 13.096 13.665 16.268-3.716 3.388-9.407 7.81-11.759 4.998-2.352-2.811-11.548-14.417-19.779-17.613v-.024c-1.787.409-3.574.84-5.315 1.298l.024.12c8.819 2.402 18.226 14.417 22.718 19.415 4.515 5.022 11.57-.385 18.038-6.2 5.808-5.214-10.817-16.58-14.276-18.814-1.104.168-2.21.36-3.316.552" id="Fill-23" fill="#FFF"/><path id="Fill-25" fill="#060A21" d="M131.012 65.344l-10.2 10.453 2.808 3.547 9.192-12.014z"/><path d="M136.061 3.526c-6.914 2.866-11.569 9.981-11.569 9.981 5.339 1.647 9.423 4.178 12.55 7.02l.182-.24 10.268-8.356s-3.605-7.377-11.409-8.357l-.022-.048z" id="Fill-27" fill="#9B0758"/><path d="M49.451 29.48a6.91 6.91 0 01.671-.481c4.833-3.127 15.46-6.689 27.713-9.744l.023.12c8.975 2.406 18.547 14.436 23.119 19.441 4.594 5.029 11.774-.385 18.355-6.208 5.91-5.22-11.008-16.602-14.527-18.84 7.037-1.082 13.664-1.828 19.122-2.02 5.6 1.66 9.883 4.21 13.162 7.073a29.846 29.846 0 014.26 4.524c5.361 7.002 6.102 14.075 6.102 14.075s-15.866 50.506-25.918 65.328c-.238-1.42-7.275-28.153-25.534-47.09-15.77-16.361-33.24-22.76-46.548-26.177zm79.262 32.795l-2.01-1.588-11.966 9.023 2.608 3.609 11.368-11.044zm1.58 2.407l-10.171 10.634 2.8 3.61 9.165-12.224-1.794-2.02z" id="Fill-29" fill="#FFF"/><path d="M152.9 15.514l-11.327 8.566c5.377 6.683 6.12 13.434 6.12 13.434 2.735-1.7 8.592-4.869 11.88-9.576l-.288-.184c1.416-5.35-6.384-12.24-6.384-12.24" id="Fill-31" fill="#9B0758"/><path d="M136.113 2.049c7.992.992 11.684 8.463 11.684 8.463l-10.515 8.463-.187.242a29.674 29.674 0 014.16 4.545l11.029-9.019s7.594 7.254 6.216 12.888l.28.194c3.319-5.126 3.948-11.945-4.16-20.553-6.777-7.182-13.295-7.4-18.53-5.271l.023.048z" id="Fill-33" fill="#FFF"/><path d="M136.804 19.34s11.201 13.544 3.6 38l7.4-19.809s-2-12.33-11-18.19" id="Fill-35" fill="#DAE0EF"/><path d="M128.962 86.514s-5.664 6.398-13 .199l5.24 14.8s7.13-7.8 7.76-15" id="Fill-37" fill="#DAE0EF"/><path d="M80.262 21.356s-22.305 6.738-12.37 13.67l-16.63-5.39s25.552-10.59 29-8.28" id="Fill-39" fill="#DAE0EF"/><path id="Fill-41" fill="#DAE0EF" d="M129.061 15.526l-21.017 1.5-.983-1.5 17.287-2.5z"/><path d="M108.293 20.69s-11.682 5.422-20-2.713l13.466-2.517 6.534 5.23z" id="Fill-43" fill="#7A094C"/><path d="M142.887 5.4s-2.602 4.793-13 3.134c0 0 6.198-5.162 8.4-4.61l4.6 1.476z" id="Fill-45" fill="#7A094C"/><path d="M152.763 15.083l-8.524 5.624s10.015 5.814 13-.749l-4.476-4.875z" id="Fill-47" fill="#7A094C"/><path d="M56.55 33.203s-9.211 1.759-9.211 11.32c0 2.926 3.332 14.24 14.501 19.12l-16.853-6.439s-7.251-15.608 4.898-25.56l6.664 1.56z" id="Fill-49" fill="#DAE0EF"/><path d="M120.262 101.371s-15.7 10.07-29.788-7.65c0 0 4.83 8.257 4.63 12.081 0 0 9.46 8.254 22.34.805 0 0 4.224-2.615 4.023-5.234l-1.205-.002z" id="Fill-51" fill="#DAE0EF"/><path d="M80.201 55.803s5.442.896 3.378 3.132c-2.065 2.236-9.007-.225-3.378-3.132" id="Fill-53" fill="#FFF"/><path d="M59.074 43.693s5.442.897 3.378 3.132c-2.065 2.236-9.007-.226-3.378-3.132" id="Fill-55" fill="#FFF"/><path d="M95.39 71.75s5.441.897 3.377 3.133c-2.065 2.236-9.007-.226-3.378-3.133" id="Fill-57" fill="#FFF"/><path d="M106.804 90.978s5.442.897 3.377 3.133c-2.065 2.236-9.006-.226-3.377-3.133" id="Fill-59" fill="#FFF"/><path d="M71.24 70.037s17.786 35.366-2.543 28.332c1.37 4.017 2.151 5.223 2.151 5.223s11.145 5.625 23.85 4.22c0 0-1.954-17.077-23.458-37.775" id="Fill-61" fill="#DAE0EF"/><path d="M56.188 60.33s-8.772 15.15-2.243 20.853l-5.92-.789s5.51-17.31-1.837-23.211l10 3.146z" id="Fill-63" fill="#DAE0EF"/><path d="M60.268 93.336s-1.179 6.031-2.946 4.222c-1.768-1.81-8.248 7.238-10.604 6.031-2.356-1.206 5.302-9.047 5.302-9.047l-5.302-1.206 4.713-3.015-.59-3.62s4.124.604 9.427 6.635" id="Fill-65" fill="#F05A28"/><path d="M63.666 97.539s-2.96 15.327-7.616 20.167c0 0 2.538 4.84 5.922-1.21 3.385-6.05 5.078-12.504 5.078-12.504l-3.384-6.453z" id="Fill-67" fill="#F05A28"/><path d="M48.228 119.227S35.58 133.632 31.23 132.115c0 0-3.558-1.895-1.186-5.686 0 0 5.138.758 18.184-7.202" id="Fill-69" fill="#F05A28"/><path d="M22.827 131.828s-9.803 7.198-11.438 5.826c-1.635-1.372.816-3.77.816-3.77s5.72.687 10.622-2.056" id="Fill-71" fill="#F05A28"/><path d="M24.575 111.244s-13.046 9.202-17 18l17-18z" id="Fill-73" fill="#F05A28"/><path d="M32.003 97.807s-12.386 2.247-9.589 4.123l2.798 1.877s-2.4-2.626 6.791-6" id="Fill-75" fill="#F05A28"/><path d="M131.253 67.358l-8.304 10.892-1.971-2.505 9.252-9.508 1.023 1.121zm1.234.32a.578.578 0 00-.032-.742l-1.772-1.947c-.111-.121-.344-.192-.44-.194a.582.582 0 00-.424.18L119.773 75.3a.576.576 0 00-.041.762l2.758 3.507c.11.144.284.226.466.226.286-.03.36-.085.471-.233l9.06-11.884z" id="Fill-77" fill="#060A21"/><path d="M127.527 62.624l-10.273 9.464-1.827-2.414 11.008-7.882 1.092.832zm1.307.367a.553.553 0 00.18-.433.57.57 0 00-.222-.415l-1.975-1.508a.62.62 0 00-.726-.01l-11.841 8.478a.55.55 0 00-.123.783l2.567 3.392c.1.132.255.216.426.232.019.002.035.002.053.002a.61.61 0 00.412-.159l11.249-10.362z" id="Fill-79" fill="#060A21"/><path d="M102.164 95.75a4.587 4.587 0 014.58-4.582 4.587 4.587 0 014.584 4.581 4.588 4.588 0 01-4.583 4.583 4.587 4.587 0 01-4.58-4.583m-1.919 0a6.508 6.508 0 006.499 6.501 6.51 6.51 0 006.501-6.5c0-3.585-2.917-6.5-6.501-6.5a6.505 6.505 0 00-6.499 6.5" id="Fill-81" fill="#060A21"/><path d="M100.47 78.686a4.588 4.588 0 01-4.582 4.583 4.587 4.587 0 01-4.58-4.583 4.587 4.587 0 014.58-4.58 4.587 4.587 0 014.583 4.58m1.918 0c0-3.584-2.917-6.498-6.501-6.498a6.505 6.505 0 00-6.499 6.498c0 3.585 2.915 6.502 6.499 6.502a6.51 6.51 0 006.501-6.502" id="Fill-83" fill="#060A21"/><path d="M85.381 61.329a4.587 4.587 0 01-4.583 4.582 4.587 4.587 0 01-4.58-4.582 4.587 4.587 0 014.58-4.581 4.587 4.587 0 014.583 4.58m1.919 0c0-3.583-2.917-6.498-6.502-6.498a6.506 6.506 0 00-6.498 6.499c0 3.584 2.915 6.5 6.498 6.5a6.51 6.51 0 006.502-6.5" id="Fill-85" fill="#060A21"/><path d="M63.5 49.875a4.587 4.587 0 01-4.583 4.582 4.587 4.587 0 01-4.581-4.582 4.587 4.587 0 014.58-4.581 4.587 4.587 0 014.584 4.58m1.918 0a6.507 6.507 0 00-6.501-6.498 6.505 6.505 0 00-6.5 6.499 6.507 6.507 0 006.5 6.5 6.51 6.51 0 006.5-6.5" id="Fill-87" fill="#060A21"/><g id="Group-91" transform="translate(.118 .393)"><mask id="mask-2" fill="#fff"><use xlink:href="#path-1"/></mask><path d="M24.461 105.765c.354-.344.456-.874.256-1.328-.2-.454-.618-.766-1.156-.712-.14-.005-3.898.174-4.105-2.476-.13-1.71 6.5-4.8 12.534-6.506a1.192 1.192 0 00-.228-2.334c-1.85-.151-4.817-.833-5.617-1.875-.15-.196-.195-.368-.153-.596.1-.554.714-1.492 2.137-2.469 3.203-2.2 9.679-3.964 18.24-2.342 10.97 3.117 18.382 16.082 19.648 18.432-2.424 8.629-5.696 15.074-7.017 15.074a.42.42 0 01-.059-.005c-2.326-.358-2.858-4.977-2.86-6.568a1.19 1.19 0 00-.799-1.122 1.198 1.198 0 00-1.323.381c-8.208 10.3-18.687 20.84-21.361 20.152-.85-.252-1.405-.694-1.699-1.355-.75-1.684.217-4.416.652-5.328a1.192 1.192 0 00-1.926-1.35c-7.443 7.59-15.042 13.587-16.682 13.235-.095-.079-.202-.204-.232-.484-.173-1.55 2.095-4.819 3.758-6.645a1.192 1.192 0 00-1.61-1.745c-3.204 2.485-9.196 6.229-11.757 5.689-.368-.08-.59-.242-.751-.543-.991-2.063 9.134-14.51 22.11-27.18zM48.15 81.588c13.541 2.173 20.203 16.366 21.775 20.247-.458.308-1.232.7-1.795.612-1.393-2.62-8.734-15.51-20.173-19.326l.193-1.533zm23.513 20.157a1.194 1.194 0 00-.598-.27c-1.603-3.97-8.569-18.912-22.91-21.097-.005-.012 0-.028-.005-.042-.051-.125-5.034-12.504-2.194-22.175 36.657 10.592 46.95 41.308 48.734 47.795-3.65.438-16.652 1.527-23.027-4.211zm24.892 4.277c-1.432-5.497-11.604-38.623-50.417-49.669-.582-2.36-4.187-18.678 4.417-25.227 12.076 3.162 29.42 9.3 45.075 25.464 16.958 17.513 23.855 41.14 24.987 45.443-.881 1.27-1.71 2.25-2.458 2.843-8.967 7.105-16.698 4.545-21.604 1.146zm51.774-70.066c-.577-2.532-2.082-7.353-5.673-12.207l9.945-7.89c1.408 1.403 6.371 6.704 5.925 11.071-2.564 4.09-7.148 7.106-10.197 9.026zm12.03-13.975a11.076 11.076 0 01-.773 2.883c-.97-5.015-6.27-9.983-6.54-10.234a.599.599 0 00-.775-.03l-10.341 8.202a31.946 31.946 0 00-3.442-3.69l9.952-7.744a.596.596 0 00.166-.742c-.138-.266-2.975-5.636-9-7.837.787-.142 1.587-.23 2.408-.23 4.186 0 8.278 2.017 12.158 5.993 4.603 4.72 6.684 9.238 6.186 13.429zM137.285 3.4c5.846 1.254 9.137 5.9 10.014 7.346l-9.737 7.576c-2.989-2.536-6.743-4.824-11.525-6.457 1.807-2.208 5.945-6.625 11.248-8.465zm-21.838 26.456c.019.366-.084.633-.323.847-5.443 4.875-8.246 5.794-9.67 5.692-.581-.037-1.037-.259-1.39-.67l-.58-.682c-2.895-3.425-10.101-11.93-17.27-15.816a305.565 305.565 0 0115.93-3.09c4.453 3.334 13.133 10.48 13.303 13.72zm-11.67-13.982c.482-.077.962-.153 1.44-.226 4.88 3.181 14.226 10.143 14.605 14.613.077.884-.216 1.585-.919 2.204-7.55 6.634-13.334 10.23-17.014 6.22a169.316 169.316 0 01-2.056-2.295c-4.37-4.926-11.313-12.746-18.334-16.076.954-.228 1.915-.452 2.883-.673 7.366 3.381 15.453 12.93 18.193 16.172l.586.689c.563.658 1.31 1.021 2.215 1.081.086.006.174.01.265.01 2.372 0 5.829-2.017 10.278-6.001.507-.453.754-1.075.717-1.799-.198-3.811-8.767-10.791-12.858-13.919zm42.486 21.917c-5.58 17.647-16.649 49.386-24.329 62.189-2.144-7.483-9.876-28.99-25.023-44.633-15.302-15.802-32.165-22.203-44.36-25.537 5.122-2.816 14.814-5.978 25.922-8.756 7.35 2.254 15.257 11.15 20.022 16.523.772.87 1.47 1.654 2.077 2.318 1.466 1.59 3.16 2.23 4.953 2.23 5.09 0 10.966-5.165 14.555-8.32 1.119-.982 1.645-2.26 1.522-3.697-.428-5.04-9.067-11.623-13.763-14.848 5.85-.836 11.348-1.394 16.049-1.575 19.315 5.819 22.097 22.026 22.375 24.106zM.248 134.067c.49.92 1.305 1.524 2.356 1.75 2.292.49 5.634-.977 8.455-2.606-.51 1.108-.826 2.238-.716 3.239.102.921.548 1.682 1.288 2.2.34.238.754.35 1.23.35 3.445 0 10.156-5.766 15.39-10.834-.05.975.06 1.994.471 2.92.582 1.3 1.689 2.223 3.206 2.67 4.75 1.423 16.52-11.952 22.08-18.713.467 2.415 1.64 5.489 4.57 5.94 4.134.659 7.888-10.343 9.562-16.17 1.024.038 1.987-.332 2.638-.7 7.79 6.148 21.985 4.535 24.813 4.135 2.547 1.69 6.376 3.518 11.005 3.518 3.88 0 8.322-1.286 13.041-5.023 9.388-7.432 27.007-62.278 28.844-68.067l.63-.398c4.422-2.773 12.65-7.937 13.61-16.016.59-4.942-1.715-10.115-6.848-15.376-4.345-4.45-9.008-6.71-13.86-6.71-9.716 0-16.947 8.942-18.58 11.145-22.55.954-62.768 10.367-73.456 17.238-11.014 7.083-6.887 25.467-6.157 28.362-3.203 9.836 1.193 21.93 2.01 24.025l-.207 1.645c-10.94-1.745-17.157 1.757-18.84 2.91-1.773 1.218-2.887 2.643-3.136 4.009-.16.891.049 1.747.61 2.478.637.829 1.7 1.417 2.82 1.836-4.507 1.636-10.245 4.367-9.994 7.607.2 2.622 2.066 3.869 3.933 4.38-8.243 8.18-23.115 23.851-20.768 28.256z" id="Fill-89" fill="#060A21" mask="url(#mask-2)"/></g></g></g></g></svg>