<svg width="22" height="23" fill="none" xmlns="http://www.w3.org/2000/svg"><path fill-rule="evenodd" clip-rule="evenodd" d="M18.845 20.91H2.761a.684.684 0 0 1-.67-.698V9.758h2.68c-.349.522-.467 1.497-.467 2.116 0 3.732 2.927 6.77 6.524 6.77s6.524-3.037 6.524-6.77c0-.619-.085-1.58-.518-2.116h2.681v10.454c0 .385-.3.697-.67.697ZM11.151 7.666a4.182 4.182 0 1 1 0 8.363 4.182 4.182 0 0 1 0-8.363Zm4.88-4.182h2.09c.385 0 .697.312.697.697v2.09a.697.697 0 0 1-.697.698h-2.09a.697.697 0 0 1-.698-.697v-2.09c0-.385.313-.697.697-.697ZM19.037.697H2.568A2.565 2.565 0 0 0 0 3.259v16.482a2.565 2.565 0 0 0 2.568 2.562h16.47a2.565 2.565 0 0 0 2.568-2.562V3.259A2.565 2.565 0 0 0 19.038.697Z" fill="#fff"/></svg>