<svg width="46" height="45" fill="none" xmlns="http://www.w3.org/2000/svg"><path d="M31 34.364V44H1V5h4m22 0h4v12" stroke="#EF3F6B" stroke-width="2"/><path d="M16 21.778V24H6V14h6.667M19 17h7m-7 4h4" stroke="#EF3F6B" stroke-width="2"/><path d="m9 18 2 2 4-4m1 18.778V37H6V27h6.667" stroke="#EF3F6B" stroke-width="2"/><path d="m9 31 2 2 4-4" stroke="#EF3F6B" stroke-width="2"/><path clip-rule="evenodd" d="M25.339 34.809 19.539 37l2.22-5.726L40.976 12.3a1.532 1.532 0 0 1 2.148 0l1.431 1.414a1.486 1.486 0 0 1 0 2.12L25.34 34.81Z" stroke="#EF3F6B" stroke-width="2"/><path d="m38.572 14.672 3.58 3.535" stroke="#EF3F6B" stroke-width="2"/><path clip-rule="evenodd" d="M19.137 4c0-1.657-1.36-3-3.038-3-1.677 0-3.037 1.343-3.037 3h-3.037C8.906 4 8 4.893 8 5.998v1.999h16.199v-2c0-1.104-.907-1.999-2.025-1.999h-3.037Z" stroke="#EF3F6B" stroke-width="2"/></svg>