<svg width="48" height="35" fill="none" xmlns="http://www.w3.org/2000/svg"><path clip-rule="evenodd" d="M1 27h30V2H1v25Zm40-17c-3 0-5 1-5 1v3l2 2v5a3 3 0 1 0 6 0v-5l2-2v-3s-2-1-5-1Z" stroke="#EF3F6B" stroke-width="2"/><path d="M38.171 6.171a4 4 0 0 1 5.657 0m-8.485-2.828a8 8 0 0 1 11.313 0M41 24v6a4 4 0 0 1-4 4h-7a4 4 0 0 1-4-4v-3" stroke="#EF3F6B" stroke-width="2"/><path clip-rule="evenodd" d="M20.654 8A8.147 8.147 0 0 1 16 9.457 8.147 8.147 0 0 1 11.346 8L5 17.558A19.251 19.251 0 0 0 16 21c4.077 0 7.863-1.27 11-3.442L20.654 8Z" stroke="#EF3F6B" stroke-width="2"/></svg>