<svg width="44" height="44" xmlns="http://www.w3.org/2000/svg"><g fill="none" fill-rule="evenodd"><path d="M0 0h44v44H0z"/><path d="M13.98 18.792v6.416a3.208 3.208 0 003.207 3.209h9.625a3.208 3.208 0 003.209-3.209v-6.416a3.208 3.208 0 00-3.209-3.209h-9.625a3.208 3.208 0 00-3.208 3.209z" stroke="#5A77CB" stroke-width="1.5" stroke-linecap="round" stroke-linejoin="round"/><path d="M18.353 20.167l2.727 1.58a1.875 1.875 0 001.879 0l2.727-1.58" stroke="#5A77CB" stroke-width="1.5" stroke-linecap="round" stroke-linejoin="round"/><path d="M8.486 31.467C3.576 24.46 4.838 14.862 11.392 9.36c6.553-5.5 16.224-5.08 22.274.97 6.05 6.05 6.472 15.722.972 22.275-5.5 6.554-15.098 7.816-22.106 2.906L7.33 36.668l1.156-5.201z" stroke="#5A77CB" stroke-width="1.5" stroke-linecap="round" stroke-linejoin="round"/></g></svg>