<svg width="43" height="48" xmlns="http://www.w3.org/2000/svg"><g stroke="#5A77CB" stroke-width="2" fill="none" fill-rule="evenodd"><path d="M10 22c2.29 0 4-1.919 4-4.285v-1.43C14 13.919 12.29 12 10 12s-4 1.919-4 4.285v1.43C6 20.081 7.71 22 10 22z"/><path d="M18 27c-1.333-.708-3.917-1.917-6-2H7c-3.584 0-6 1.512-6 6v4c0 4 3.238 5 6 5h4" stroke-linejoin="round"/><path d="M6 30v4a1 1 0 001 1h6m-8 5v8m11-6v6m6.764-10H19l2-4h3.381a1 1 0 01.895 1.447l-.724 1.447A2 2 0 0122.764 38zM10 30l5 3" stroke-linejoin="round"/><path stroke-linejoin="round" d="M24 34l2-4H16l-6 12h10l2-4M21 1h18a3 3 0 013 3v12a4 4 0 01-4 4h-9l-4.2 5.6c-.577.769-1.8.361-1.8-.6v-5h-2a3 3 0 01-3-3V4a3 3 0 013-3z"/><path d="M25 11l4 4 7-9"/></g></svg>