<svg width="44" height="44" xmlns="http://www.w3.org/2000/svg"><g fill="none" fill-rule="evenodd"><path d="M0 0h44v44H0z"/><path d="M33.002 9.625a.458.458 0 11-.004.917.458.458 0 01.004-.917" stroke="#5A77CB" stroke-width="1.5" stroke-linecap="round" stroke-linejoin="round"/><path d="M39.417 10.083h0A6.417 6.417 0 0033 3.667h0a6.417 6.417 0 00-6.417 6.416h0c0 3.004 3.278 6.213 5.148 7.8.739.6 1.797.6 2.536 0 1.872-1.587 5.15-4.796 5.15-7.8zM9.455 11.289l23.258 23.257" stroke="#5A77CB" stroke-width="1.5" stroke-linecap="round" stroke-linejoin="round"/><path d="M38.5 22c0 9.113-7.387 16.5-16.5 16.5S5.5 31.113 5.5 22 12.887 5.5 22 5.5M9.455 32.712L20.167 22" stroke="#5A77CB" stroke-width="1.5" stroke-linecap="round" stroke-linejoin="round"/></g></svg>