<svg width="171" height="70" xmlns="http://www.w3.org/2000/svg" xmlns:xlink="http://www.w3.org/1999/xlink"><defs><path id="a" d="M0 0h52.946v70H0z"/></defs><g fill="none" fill-rule="evenodd"><g transform="translate(117.644)"><mask id="b" fill="#fff"><use xlink:href="#a"/></mask><path d="M8.963.254c2.028.347 3.927 1.05 5.8 1.883.642.298 1.266.634 1.902.945 1.316.646 2.571 1.394 3.803 2.182.995.589 1.912 1.285 2.866 1.935 1.21.9 2.446 1.787 3.594 2.763.59.498 1.207.973 1.764 1.508.583-.547 1.153-1.105 1.775-1.607 1.937-1.683 3.95-3.188 6.261-4.322 1.212-.633 2.643-1.153 4.025-1.114.57 0 1.112.038 1.634.286.636.29 1.117.849 1.514 1.41.242.336.329.7.456 1.088-.845.023-1.774-.082-2.589.123-1.944.496-3.545 1.468-5.213 2.539-1.738 1.23-3.431 2.566-4.96 4.053.608.635 1.29 1.187 1.89 1.833a25.157 25.157 0 011.861 2.007c.866.919 1.754 1.806 2.55 2.788.273.342.566.664.861.985.448.483.825 1.015 1.25 1.515 1.018 1.202 1.93 2.484 2.897 3.72.157-.276.364-.542.473-.842.339-.965.764-1.895 1.102-2.862.81-2.171 1.456-4.395 2.006-6.646.474-1.817.7-3.63.891-5.492.11-1.556.05-3.106-.323-4.624-.12-.454-.217-.908-.298-1.37.341.12.664.213.967.416a6.517 6.517 0 011.418 1.33c.853 1.061 1.27 2.485 1.51 3.807.254 1.686.198 3.469.048 5.163-.23 1.618-.466 3.212-.899 4.791-.379 1.544-.796 3.073-1.323 4.574-.535 1.632-1.192 3.212-1.82 4.808-.156.39-.357.756-.515 1.142-.048.138-.127.322-.078.466.112.34.358.653.552.953.42.636.758 1.327 1.153 1.983.52.865.883 1.798 1.362 2.687a49.522 49.522 0 012.58 6.167c.395 1.229.75 2.463.953 3.74.112.758.288 1.445.283 2.213-.003.617 0 1.234 0 1.85 0 .686-.14 1.332-.311 1.992-.211.794-.547 1.585-1.056 2.234-.474.59-1.016 1.113-1.66 1.515.01-.303.02-.614.074-.912.188-.864.137-1.793.089-2.672a33.097 33.097 0 00-.578-3.268c-.54-2.189-1.3-4.31-2.212-6.37-.448-.912-.82-1.86-1.298-2.755-.514-.907-.967-1.845-1.507-2.738-.27-.504-.555-.987-.886-1.45a5.973 5.973 0 00-.779 1.283c-.9 1.743-1.93 3.399-2.932 5.082-.385.628-.802 1.233-1.184 1.862-.674 1.093-1.446 2.114-2.15 3.184-.752 1.089-1.556 2.142-2.332 3.21.412.313.83.596 1.295.824 1.158.65 2.281 1.335 3.526 1.816 1.339.586 2.713 1.062 4.139 1.373.73.137 1.514.08 2.26.096.6.01 1.173-.133 1.739-.327-.01 1.029-.543 1.898-1.268 2.585-.44.408-1 .636-1.555.836-.4.144-.787.214-1.212.22-.695.01-1.362.011-2.041-.15-.983-.226-1.95-.533-2.902-.865-.438-.15-.84-.362-1.25-.572 1.128.349 2.192.829 3.347 1.085 1.113.28 2.243.323 3.383.256a3.686 3.686 0 002.26-.961c.632-.62.996-1.41 1.19-2.268-.507.111-1.011.245-1.52.342-.784.14-1.523-.017-2.289-.151-1.751-.28-3.485-1.004-5.096-1.729a40.915 40.915 0 01-2.634-1.403c-.423-.238-.835-.58-1.299-.729-.18-.072-.285.106-.404.21-.362.41-.64.89-.996 1.31-.353.421-.687.853-.957 1.335-.079-.049-.152-.1-.229-.153-.715.953-1.517 1.805-2.288 2.708-.512.594-1.1 1.113-1.601 1.718a34.32 34.32 0 01-2.686 2.662c-.488.44-.921.925-1.433 1.337-1.234 1.018-2.413 2.082-3.734 2.993a28.377 28.377 0 01-4.47 2.722 13.444 13.444 0 01-3.176 1.175c-.963.223-1.84.566-2.844.46-1.255-.135-2.553-.63-3.487-1.503a6.14 6.14 0 01-1.341-2.063c.995.058 1.962.12 2.965.051.804-.061 1.512-.313 2.27-.561 1.187-.385 2.335-.933 3.417-1.553 1.45-.791 2.83-1.749 4.141-2.753.977-.712 1.876-1.492 2.795-2.276.649-.548 1.23-1.165 1.87-1.721.688-.601 1.296-1.273 1.956-1.91.634-.628 1.176-1.337 1.82-1.959 1.362-1.53 2.695-3.083 3.958-4.699.713-.95 1.476-1.852 2.143-2.833.51-.721 1.06-1.408 1.533-2.156.641-.929 1.293-1.849 1.883-2.812 1.07-1.626 2.052-3.304 3.034-4.98.507-1.046 1.064-2.063 1.612-3.087.203-.377.453-.747.603-1.149.12-.232-.191-.527-.308-.71-.657-.824-1.258-1.69-1.91-2.518-.745-.941-1.498-1.88-2.252-2.814-.73-.807-1.413-1.655-2.146-2.457-.522-.526-.998-1.09-1.502-1.633a283.671 283.671 0 00-3.49-3.511 20.452 20.452 0 00-.959-.88c-.443-.386-.837-.82-1.28-1.204-.362-.314-.741-.612-1.1-.928-1.217-1.093-2.515-2.108-3.82-3.091-.892-.719-1.841-1.352-2.778-2.008-2.62-1.757-5.32-3.336-8.232-4.55-1.082-.415-2.176-.83-3.299-1.116-.804-.182-1.598-.404-2.408-.428-.715-.026-1.415-.115-2.133-.053-.723.063-1.397.034-2.07.346-.31.152-.638.2-.964.305.219-.683.438-1.339.815-1.954.605-.94 1.443-1.714 2.474-2.16C5.032-.13 7.119-.136 8.963.254" fill="#5A76C9" mask="url(#b)"/></g><path d="M157.595 4.647a4.936 4.936 0 012.578.268c.575.23.988.677 1.352 1.153.206.263.298.628.41.941-.644.01-1.319-.014-1.953.103-1.206.262-2.339.719-3.428 1.282-1.021.491-1.938 1.12-2.867 1.754a41.289 41.289 0 00-2.377 1.785c-.74.591-1.41 1.255-2.179 1.813-.61-.635-1.27-1.184-1.942-1.749-.189-.17-.428-.364-.527-.6.117-.335.494-.596.748-.833a39.212 39.212 0 014.674-3.556 20.887 20.887 0 013.016-1.623 10.311 10.311 0 012.495-.738" fill="#FFF"/><path d="M119.13 7.891c.049.018.097.037.145.057-.058.702-.13 1.385-.03 2.09.135.907.254 1.787.514 2.67.8 2.82 2.098 5.548 3.551 8.099.272.406.484.83.697 1.269-1.008.03-1.99.24-2.993.314-.25 0-.593.05-.815-.073-.257-.264-.389-.66-.557-.983a32.07 32.07 0 01-2.024-5.019c-.157-.48-.32-.956-.41-1.455-.134-.723-.343-1.366-.328-2.08.005-.428-.002-.855.013-1.282.018-.568.221-1.099.438-1.62a4.01 4.01 0 011.8-1.987" fill="#5A76C9"/><path d="M119.041 7.891c.077 1.119-.048 2.194.214 3.3.481 2.372 1.397 4.71 2.428 6.894.481.99.98 1.976 1.543 2.923.198.34.354.687.527 1.038-.512.093-1.02.177-1.543.178-.567-.001-1.112.154-1.675.174-.257.033-.435-.317-.55-.5-.514-.971-.946-2-1.351-3.022-.672-1.642-1.202-3.324-1.438-5.087-.072-.6-.056-1.225-.061-1.829 0-.685.012-1.371.239-2.026.193-.571.522-1.07.924-1.514.209-.217.494-.365.743-.529m5.73 43.527c-.132.492-.267.983-.43 1.466a30.898 30.898 0 00-.96 3.905c-.122.765-.326 1.449-.338 2.223-.013.59-.008 1.179-.01 1.768-.023.719.22 1.373.302 2.093-.412-.163-.804-.313-1.15-.59-.667-.514-1.082-1.222-1.324-1.999-.308-.896-.387-1.817-.417-2.753.02-1.741.343-3.439.715-5.138.056-.191.12-.474.3-.591.408-.14.886-.132 1.316-.156.675-.018 1.316-.153 1.996-.228m27.315.017c.466.147.878.486 1.306.72.863.49 1.749.964 2.645 1.39 1.621.718 3.365 1.435 5.124 1.711.771.133 1.512.288 2.298.15.515-.096 1.021-.229 1.53-.338-.196.849-.56 1.63-1.196 2.244-.611.564-1.44.9-2.273.952-1.146.066-2.281.023-3.398-.253-1.164-.254-2.233-.73-3.366-1.075a37.554 37.554 0 01-3.377-1.686c-.576-.296-1.097-.676-1.663-.99.27-.476.606-.904.963-1.322.359-.414.636-.889 1-1.296.12-.103.227-.278.407-.207" fill="#FFF"/><path fill="#5A77CB" d="M7.147 21.243l11 19.308-.261-19.308h5.762v26.866H17.1L5.538 27.791 5.8 48.11H0V21.243zm26.431 10.531c-.814.864-1.27 2.09-1.37 3.678l12.449-.03v3.723H32.178c0 .755.085 1.48.253 2.174.169.695.511 1.33 1.028 1.906.456.536.998.869 1.623.998s1.266.193 1.921.193h.268l7.386-.03v3.723h-7.594a18.31 18.31 0 01-3.5-.327c-1.122-.219-2.179-.725-3.172-1.52-1.19-.972-2.025-2.159-2.501-3.558a14.485 14.485 0 01-.775-4.304 9.483 9.483 0 01-.015-.923c.01-.298.025-.596.045-.893.218-3.375 1.137-5.857 2.755-7.446 1.618-1.588 4.045-2.382 7.282-2.382l7.475-.03v3.723h-7.386c-1.648.02-2.88.461-3.693 1.325m12.806-1.296v-3.722H64.85v3.722h-6.94V48.11h-4.645V30.48z"/><path d="M73.562 47.716c-1.485-.262-2.85-1.053-4.098-2.376-1.072-1.122-1.746-2.382-2.02-3.779a22.23 22.23 0 01-.412-4.303V21.243h5.65v14.743c-.025 2.494.25 4.403.824 5.725.573 1.322 2.344 1.983 5.313 1.983l6.66-.038v4.453h-7.146c-1.697 0-3.287-.13-4.771-.393m14.278.394h4.706V26.725H87.84zm10.945-18.674c1.3-1.787 4.154-2.68 8.562-2.68l6.85-.03v3.723h-7.237c-1.886.04-3.271.446-4.154 1.22-.884.775-1.375 2.115-1.475 4.021l12.866-.03v3.693h-12.866v8.756h-4.497v-9.828c0-4.11.65-7.058 1.951-8.845m23.513 2.338c-.815.864-1.271 2.09-1.37 3.678l12.448-.03v3.723h-12.478c0 .755.084 1.48.253 2.174.168.695.511 1.33 1.028 1.906.456.536.997.869 1.623.998a9.474 9.474 0 001.92.193h.269l7.385-.03v3.723h-7.594c-1.211 0-2.378-.109-3.5-.327-1.121-.219-2.179-.725-3.171-1.52-1.191-.972-2.025-2.159-2.502-3.558a14.493 14.493 0 01-.774-4.304 9.485 9.485 0 01-.015-.923c.01-.298.025-.596.045-.893.218-3.375 1.136-5.857 2.754-7.446 1.618-1.588 4.046-2.382 7.282-2.382l7.475-.03v3.723h-7.385c-1.649.02-2.88.461-3.693 1.325" fill="#FFF"/></g></svg>