<svg width="180" height="58" xmlns="http://www.w3.org/2000/svg" xmlns:xlink="http://www.w3.org/1999/xlink"><defs><path id="path-1" d="M0 57h179V0H0z"/></defs><g id="Page-1" stroke="none" stroke-width="1" fill="none" fill-rule="evenodd"><g id="Home" transform="translate(-765 -1866)"><g id="Group-43" transform="translate(765 1867)"><path d="M173.438 56H6.563C3.49 56 1 53.493 1 50.4V5.6C1 2.507 3.49 0 6.563 0h166.875C176.508 0 179 2.507 179 5.6v44.8c0 3.093-2.49 5.6-5.563 5.6" id="Fill-1" fill="#000"/><path d="M173.438 56H6.563C3.49 56 1 53.493 1 50.4V5.6C1 2.507 3.49 0 6.563 0h166.875C176.508 0 179 2.507 179 5.6v44.8c0 3.093-2.49 5.6-5.563 5.6z" id="Stroke-3" stroke="#FFF"/><path d="M38.387 27.957c-.04-4.329 3.56-6.435 3.724-6.534-2.038-2.96-5.198-3.364-6.308-3.395-2.654-.278-5.227 1.58-6.579 1.58-1.379 0-3.461-1.552-5.704-1.506-2.885.044-5.587 1.708-7.069 4.292-3.056 5.27-.776 13.012 2.151 17.271 1.467 2.085 3.178 4.415 5.418 4.333 2.192-.092 3.012-1.392 5.658-1.392 2.62 0 3.389 1.392 5.674 1.34 2.353-.04 3.836-2.095 5.248-4.2 1.695-2.391 2.374-4.747 2.4-4.866-.054-.02-4.569-1.733-4.613-6.923" id="Fill-5" fill="#FFF"/><path d="M34.19 15.552c1.186-1.484 1.998-3.503 1.772-5.552-1.717.076-3.866 1.188-5.103 2.64-1.094 1.278-2.071 3.376-1.819 5.348 1.93.143 3.911-.975 5.15-2.436" id="Fill-7" fill="#FFF"/><path d="M64.806 36.494l-1.502-4.7c-.16-.48-.457-1.61-.896-3.39h-.054a131.78 131.78 0 01-.843 3.39l-1.476 4.7h4.771zM70 44h-3.032l-1.66-5.287h-5.774L57.952 44H55l5.72-18h3.533L70 44z" id="Fill-9" fill="#FFF"/><path d="M81.18 37.51c0-1.227-.274-2.239-.822-3.034-.598-.83-1.402-1.246-2.41-1.246-.683 0-1.303.232-1.858.688-.556.458-.92 1.06-1.09 1.805-.086.345-.129.63-.129.853v2.101c0 .917.279 1.69.835 2.322.554.631 1.277.947 2.165.947 1.044 0 1.855-.406 2.437-1.22.58-.812.871-1.885.871-3.217M84 37.408c0 2.143-.572 3.838-1.718 5.083-1.026 1.106-2.3 1.658-3.82 1.658-1.642 0-2.82-.595-3.538-1.788h-.053V49h-2.768V35.41c0-1.348-.036-2.73-.103-4.15h2.435l.155 1.997h.051C75.564 31.752 76.966 31 78.846 31c1.47 0 2.696.588 3.68 1.762.982 1.18 1.474 2.726 1.474 4.646" id="Fill-11" fill="#FFF"/><path d="M96.18 37.51c0-1.227-.274-2.239-.822-3.034-.6-.83-1.4-1.246-2.409-1.246-.686 0-1.304.232-1.86.688-.556.458-.916 1.06-1.088 1.805-.085.345-.128.63-.128.853v2.101c0 .917.277 1.69.83 2.322.556.631 1.28.947 2.17.947 1.043 0 1.853-.406 2.435-1.22.58-.812.871-1.885.871-3.217M99 37.408c0 2.143-.572 3.838-1.72 5.083-1.023 1.106-2.298 1.658-3.818 1.658-1.642 0-2.822-.595-3.538-1.788h-.051V49h-2.77V35.41c0-1.348-.035-2.73-.103-4.15h2.436l.154 1.997h.051C90.565 31.752 91.965 31 93.846 31c1.468 0 2.696.588 3.68 1.762.982 1.18 1.474 2.726 1.474 4.646" id="Fill-13" fill="#FFF"/><path d="M116 38.839c0 1.487-.523 2.696-1.575 3.63-1.154 1.022-2.763 1.531-4.83 1.531-1.906 0-3.437-.363-4.595-1.09l.66-2.334a7.867 7.867 0 004.105 1.116c1.069 0 1.903-.239 2.5-.714.597-.476.894-1.114.894-1.91 0-.71-.245-1.307-.737-1.792-.489-.487-1.306-.936-2.445-1.352-3.106-1.142-4.655-2.814-4.655-5.015 0-1.436.542-2.614 1.63-3.531 1.086-.919 2.533-1.378 4.34-1.378 1.614 0 2.955.278 4.024.83l-.71 2.283c-1-.535-2.129-.803-3.393-.803-1 0-1.78.24-2.34.726-.474.432-.71.959-.71 1.582 0 .69.27 1.261.815 1.71.472.417 1.331.865 2.579 1.35 1.523.607 2.644 1.314 3.366 2.127.717.812 1.077 1.824 1.077 3.034" id="Fill-15" fill="#FFF"/><path d="M126 33.239h-3.217v6.12c0 1.556.566 2.334 1.704 2.334.52 0 .954-.043 1.296-.13l.08 2.127c-.574.207-1.331.31-2.27.31-1.152 0-2.053-.337-2.703-1.01-.647-.675-.974-1.807-.974-3.399V33.24H118v-2.1h1.916v-2.31l2.867-.83v3.138H126v2.101z" id="Fill-17" fill="#FFF"/><path d="M136.939 37.475c0-1.148-.262-2.135-.792-2.958-.617-.994-1.5-1.49-2.647-1.49-1.185 0-2.085.496-2.704 1.49-.53.823-.79 1.824-.79 3.01 0 1.149.26 2.135.79 2.957.639.994 1.53 1.49 2.677 1.49 1.127 0 2.01-.505 2.647-1.515.547-.84.819-1.837.819-2.984m3.061-.089c0 1.914-.585 3.487-1.747 4.717C137.03 43.37 135.41 44 133.39 44c-1.948 0-3.499-.605-4.656-1.819-1.155-1.215-1.734-2.744-1.734-4.59 0-1.931.595-3.513 1.789-4.744 1.19-1.232 2.798-1.847 4.82-1.847 1.946 0 3.514.607 4.696 1.822 1.13 1.178 1.695 2.7 1.695 4.564" id="Fill-19" fill="#FFF"/><path d="M149 33.752a5.138 5.138 0 00-.915-.078c-1.024 0-1.814.376-2.37 1.128-.486.664-.727 1.501-.727 2.515V44h-2.905l.027-8.727a67.9 67.9 0 00-.11-4.01h2.532l.107 2.437h.08c.307-.837.792-1.513 1.454-2.018a3.58 3.58 0 012.1-.682c.27 0 .512.02.727.052v2.7z" id="Fill-21" fill="#FFF"/><path d="M159.378 36.214c.017-.82-.163-1.532-.534-2.132-.477-.77-1.208-1.155-2.192-1.155-.9 0-1.63.376-2.188 1.131-.459.6-.731 1.318-.815 2.156h5.729zm2.622.72c0 .496-.035.916-.101 1.258h-8.25c.035 1.235.432 2.177 1.198 2.828.694.582 1.593.872 2.697.872 1.22 0 2.334-.196 3.336-.59l.431 1.926c-1.171.514-2.553.772-4.147.772-1.92 0-3.426-.57-4.52-1.71-1.095-1.137-1.644-2.667-1.644-4.586 0-1.883.51-3.451 1.53-4.702 1.067-1.335 2.51-2.002 4.326-2.002 1.782 0 3.133.667 4.05 2.002.727 1.063 1.094 2.374 1.094 3.932z" id="Fill-23" fill="#FFF"/><path d="M61.56 15.323c0-1.033-.263-1.827-.79-2.379-.526-.551-1.295-.827-2.306-.827-.43 0-.797.031-1.1.093v6.62c.167.027.476.041.922.041 1.045 0 1.851-.303 2.42-.906.57-.605.854-1.485.854-2.642m1.44-.039c0 1.594-.46 2.794-1.378 3.6-.85.744-2.06 1.116-3.626 1.116-.775 0-1.441-.035-1.996-.105v-8.71A14.06 14.06 0 0158.35 11c1.492 0 2.616.337 3.374 1.013.849.761 1.276 1.852 1.276 3.271" id="Fill-25" fill="#FFF"/><path d="M69.587 16.486c0-.618-.122-1.15-.365-1.593-.286-.535-.693-.802-1.223-.802-.546 0-.962.267-1.249.802-.242.444-.364.982-.364 1.62 0 .619.122 1.149.364 1.594.295.534.707.8 1.237.8.52 0 .928-.27 1.223-.815.251-.452.377-.988.377-1.606M71 16.438c0 1.03-.27 1.877-.807 2.539-.564.682-1.31 1.023-2.245 1.023-.899 0-1.615-.327-2.15-.98-.533-.654-.798-1.479-.798-2.472 0-1.041.273-1.892.824-2.554.551-.664 1.292-.994 2.225-.994.9 0 1.622.326 2.17.979.52.636.781 1.455.781 2.459" id="Fill-27" fill="#FFF"/><path d="M82 13l-1.944 6h-1.265l-.806-2.606a18.608 18.608 0 01-.499-1.937h-.024c-.12.658-.285 1.305-.5 1.937L76.107 19h-1.279L73 13h1.419l.703 2.852c.17.675.31 1.317.422 1.926h.025c.103-.501.273-1.14.512-1.914l.88-2.864h1.126l.844 2.802c.205.684.371 1.342.499 1.976h.038a18.49 18.49 0 01.423-1.976L80.645 13H82z" id="Fill-29" fill="#FFF"/><path d="M90 19h-1.522v-3.367c0-1.038-.458-1.556-1.38-1.556-.45 0-.815.142-1.098.428-.28.285-.423.621-.423 1.008V19h-1.522v-4.198c0-.516-.018-1.077-.055-1.681h1.337l.07.918h.043c.178-.285.442-.522.79-.71A2.89 2.89 0 0187.618 13c.64 0 1.17.177 1.593.532.526.435.788 1.085.788 1.948V19z" id="Fill-31" fill="#FFF"/><mask id="mask-2" fill="#fff"><use xlink:href="#path-1"/></mask><path id="Fill-33" fill="#FFF" mask="url(#mask-2)" d="M92 19h1v-9h-1z"/><path d="M99.585 16.486c0-.618-.122-1.15-.364-1.593-.284-.535-.693-.802-1.222-.802-.548 0-.964.267-1.248.802-.244.444-.366.982-.366 1.62 0 .619.122 1.149.366 1.594.294.534.705.8 1.237.8.518 0 .924-.27 1.22-.815.252-.452.377-.988.377-1.606m1.415-.048c0 1.03-.27 1.877-.808 2.539-.564.682-1.312 1.023-2.243 1.023-.902 0-1.617-.327-2.15-.98-.532-.654-.799-1.479-.799-2.472 0-1.041.275-1.892.824-2.554.55-.664 1.292-.994 2.224-.994.9 0 1.621.326 2.17.979.52.636.782 1.455.782 2.459" id="Fill-35" fill="#FFF" mask="url(#mask-2)"/><path d="M106.594 17.542v-1.036c-1.493-.027-2.24.424-2.24 1.353 0 .351.086.613.26.787a.892.892 0 00.662.263c.297 0 .574-.104.827-.311a1.29 1.29 0 00.469-.793 1.37 1.37 0 00.022-.263M108 19.85h-1.215l-.103-.774h-.037c-.416.617-1.01.925-1.778.925-.576 0-1.04-.203-1.391-.608-.317-.367-.476-.823-.476-1.367 0-.819.31-1.444.933-1.877.623-.433 1.498-.645 2.627-.636v-.125c0-.882-.423-1.326-1.266-1.326-.6 0-1.13.168-1.587.498l-.274-.98c.565-.387 1.264-.579 2.089-.579 1.593 0 2.389.925 2.389 2.775v2.472c0 .671.032 1.205.089 1.602" id="Fill-36" fill="#FFF" mask="url(#mask-2)"/><path d="M114.551 17.3v-1.013c0-.175-.012-.316-.038-.425a1.525 1.525 0 00-.506-.818 1.395 1.395 0 00-.933-.331c-.521 0-.931.199-1.23.599-.298.401-.447.913-.447 1.537 0 .601.143 1.089.43 1.463.3.4.71.6 1.219.6.46 0 .826-.166 1.105-.5.267-.308.4-.679.4-1.112M116 19.862h-1.241l-.065-.976h-.038c-.396.742-1.07 1.114-2.018 1.114a2.398 2.398 0 01-1.887-.862c-.5-.576-.751-1.321-.751-2.238 0-.983.272-1.78.815-2.388a2.545 2.545 0 011.94-.85c.844 0 1.435.276 1.77.826h.026V11h1.4v7.225c0 .591.013 1.137.049 1.637" id="Fill-37" fill="#FFF" mask="url(#mask-2)"/><path d="M126.589 16.486c0-.618-.122-1.15-.365-1.593-.287-.535-.694-.802-1.225-.802-.545 0-.96.267-1.247.802-.244.444-.366.982-.366 1.62 0 .619.122 1.149.366 1.594.294.534.705.8 1.235.8.52 0 .929-.27 1.224-.815.25-.452.378-.988.378-1.606m1.411-.048c0 1.03-.268 1.877-.807 2.539-.564.682-1.31 1.023-2.245 1.023-.898 0-1.613-.327-2.148-.98-.535-.654-.8-1.479-.8-2.472 0-1.041.273-1.892.824-2.554.552-.664 1.292-.994 2.228-.994.896 0 1.62.326 2.167.979.52.636.781 1.455.781 2.459" id="Fill-38" fill="#FFF" mask="url(#mask-2)"/><path d="M136 19h-1.522v-3.367c0-1.038-.458-1.556-1.38-1.556-.451 0-.817.142-1.098.428-.28.285-.423.621-.423 1.008V19h-1.523v-4.198c0-.516-.017-1.077-.054-1.681h1.336l.072.918h.042c.178-.285.442-.522.788-.71.415-.22.873-.329 1.38-.329.64 0 1.169.177 1.593.532.527.435.789 1.085.789 1.948V19z" id="Fill-39" fill="#FFF" mask="url(#mask-2)"/><path d="M146 14.619h-1.608v3.06c0 .779.285 1.166.852 1.166.26 0 .479-.02.65-.063l.037 1.062c-.287.104-.667.156-1.134.156-.577 0-1.027-.17-1.349-.506-.327-.338-.488-.904-.488-1.698v-3.177H142v-1.05h.96v-1.154l1.432-.415v1.569H146v1.05z" id="Fill-40" fill="#FFF" mask="url(#mask-2)"/><path d="M153 19h-1.539v-3.507c0-1.106-.462-1.659-1.39-1.659-.712 0-1.198.321-1.464.962a1.51 1.51 0 00-.073.494V19H147v-9h1.534v3.718h.027c.485-.676 1.179-1.014 2.077-1.014.635 0 1.162.187 1.58.56.52.463.782 1.153.782 2.068V19z" id="Fill-41" fill="#FFF" mask="url(#mask-2)"/><path d="M159.568 15.809c.011-.443-.088-.827-.291-1.149-.26-.414-.659-.622-1.195-.622-.489 0-.889.203-1.193.608-.25.325-.397.71-.445 1.163h3.124zm1.432.387c0 .267-.02.494-.056.678h-4.5c.018.664.235 1.172.651 1.52.38.315.873.472 1.474.472.665 0 1.273-.106 1.821-.319l.235 1.038c-.641.275-1.394.415-2.265.415-1.046 0-1.868-.306-2.464-.92-.6-.614-.896-1.436-.896-2.47 0-1.014.278-1.857.834-2.53.58-.72 1.366-1.08 2.36-1.08.972 0 1.71.36 2.206 1.08.4.571.6 1.276.6 2.116z" id="Fill-42" fill="#FFF" mask="url(#mask-2)"/></g></g></g></svg>