<?xml version="1.0" encoding="utf-8"?>
<!-- Generator: Adobe Illustrator 22.1.0, SVG Export Plug-In . SVG Version: 6.00 Build 0)  -->
<svg version="1.1" id="Слой_1" xmlns="http://www.w3.org/2000/svg" xmlns:xlink="http://www.w3.org/1999/xlink" x="0px" y="0px"
	 viewBox="0 0 106.5 136" style="enable-background:new 0 0 106.5 136;" xml:space="preserve">
<style type="text/css">
	.st0{opacity:0.112;}
	.st1{fill:#FF0010;stroke:#5B160E;}
</style>
<g id="Page-1" class="st0">
	<g id="Home" transform="translate(-347 -9184)">
		<g id="Group" transform="translate(348 8876)">
			<path id="background-logo" class="st1" d="M101.4,338L101.4,338c-0.4,4.7-4.4,8.4-9.2,8.4c-4.8,0-8.8-3.7-9.2-8.4h0
				c0-16-13.1-29-29.4-29c-16.1,0-29.2,12.8-29.4,28.6h-0.1c-0.4,4.7-4.3,8.4-9.2,8.4c-4.9,0-8.8-3.7-9.2-8.4h0
				C5.7,321.8-7.4,309-23.5,309c-16.2,0-29.4,13-29.4,29V414c0,16,13.1,29,29.4,29c16.2,0,29.4-13,29.4-29V382
				c0.2-4.8,4.2-8.7,9.2-8.7c5.1,0,9.2,4.1,9.2,9.1h0v19.8c0,16,13.1,29,29.4,29s29.4-13,29.4-29v-19.5c0-5,4.1-9.1,9.2-9.1
				c5.1,0,9.2,4.1,9.2,9.1v6.3c0,16,13.1,29,29.4,29c16.2,0,29.4-13,29.4-29V338c0-16-13.1-29-29.4-29
				C114.6,309,101.4,322,101.4,338L101.4,338z"/>
		</g>
	</g>
</g>
</svg>
