<svg width="68" height="53" xmlns="http://www.w3.org/2000/svg"><g id="Page-1" stroke="none" stroke-width="1" fill="none" fill-rule="evenodd"><g id="Home" transform="translate(-346 -7469)" stroke="#FF0010" stroke-width="2"><g id="Group-29" transform="translate(346 7470)"><path id="Stroke-1" d="M17 31.818V42h50V10H17v17.455"/><path d="M28.27 36c0-2.367-1.424-4.286-4.27-4.286V20.286c2.846 0 4.27-1.429 4.27-4.286h28.46c0 2.857 1.912 4.286 4.27 4.286v11.428A4.277 4.277 0 0056.73 36H28.27z" id="Stroke-3"/><path id="Stroke-5" d="M30 26.5h3"/><path id="Stroke-7" d="M53 26.5h3"/><path d="M48 26.5a5.5 5.5 0 01-5.5 5.5 5.5 5.5 0 110-11 5.5 5.5 0 015.5 5.5z" id="Stroke-9"/><path id="Stroke-11" d="M20 31.5H9"/><path id="Stroke-13" d="M17 14.5h-7"/><path id="Stroke-15" d="M7 14.5H4"/><path id="Stroke-17" d="M13 23.5H0"/><path id="Stroke-19" d="M51 .5H40"/><path id="Stroke-21" d="M47 50.5H27"/><path id="Stroke-23" d="M37 .5h-3"/><path id="Stroke-25" d="M31 .5h-3"/><path id="Stroke-27" d="M26 .5h-3"/></g></g></g></svg>