<svg width="78" height="63" xmlns="http://www.w3.org/2000/svg"><g id="Page-1" stroke="none" stroke-width="1" fill="none" fill-rule="evenodd"><g id="Home" transform="translate(-343 -5392)" stroke="#FF0010" stroke-width="2"><g id="Group-27" transform="translate(345 5393)"><path d="M68.713 50c1.613-.784 2.828-2.597 4.287-5.72-3.92-2.713-8.21-1.098-11 4.695" id="Stroke-1"/><path d="M56 56.939c2.983 3.186 7.415 5.348 13-1.187-3.692-3.943-8.791-3.737-13 1.187z" id="Stroke-3"/><path d="M70.6 37.584c1.788-1.397 3.13-3.99 3.4-8.559-4.934-.37-8.608 3.348-9 9.975" id="Stroke-5"/><path d="M68.964 24.65c1.115-1.883 1.485-4.625.328-8.65-4.352 1.576-6.382 6.17-4.707 12" id="Stroke-7"/><path d="M5.288 50C3.675 49.216 2.46 47.403 1 44.28c3.919-2.713 8.211-1.098 11 4.695" id="Stroke-9"/><path d="M18 56.939c-2.983 3.186-7.415 5.348-13-1.187 3.693-3.943 8.791-3.737 13 1.187z" id="Stroke-11"/><path d="M3.4 37.584C1.611 36.187.27 33.594 0 29.025c4.936-.369 8.61 3.348 9 9.975" id="Stroke-13"/><path d="M5.037 24.65C3.92 22.767 3.55 20.025 4.707 16c4.354 1.576 6.383 6.17 4.708 12" id="Stroke-15"/><path id="Stroke-17" d="M25.917 47H18V0h38v47h-7.917"/><path d="M45 41.998c0 4.42-3.582 8-8 8.002-4.42 0-8-3.58-8-8s3.58-8 8-8a8 8 0 018 7.998z" id="Stroke-19"/><path id="Stroke-21" d="M39.75 48L43 59l-6.5-3.143L30 59l3.25-11"/><path id="Stroke-23" d="M26 21h22"/><path id="Stroke-25" d="M30 14h13"/></g></g></g></svg>