<svg width="163" height="25" xmlns="http://www.w3.org/2000/svg"><g id="Page-1" stroke="none" stroke-width="1" fill="none" fill-rule="evenodd"><g id="Home" transform="translate(-1291 -1067)" fill="#FFF" fill-rule="nonzero"><path d="M1299.241 1086c1.855 0 3.518-.323 4.988-.97v-4a22.7 22.7 0 01-2.205.778 7.965 7.965 0 01-2.265.324c-2.578 0-3.867-1.685-3.867-5.054 0-1.62.317-2.892.951-3.815.635-.922 1.518-1.383 2.651-1.383.747 0 1.446.104 2.096.312.651.207 1.302.463 1.952.766l1.458-3.724a12.592 12.592 0 00-5.458-1.234c-1.743 0-3.259.37-4.548 1.108-1.29.738-2.277 1.794-2.964 3.167-.687 1.374-1.03 2.967-1.03 4.779 0 2.898.709 5.114 2.127 6.647 1.417 1.533 3.455 2.299 6.114 2.299zm14.728 0c2.22 0 3.947-.619 5.18-1.856 1.234-1.237 1.851-2.962 1.851-5.174 0-1.408-.287-2.64-.86-3.694a5.888 5.888 0 00-2.445-2.429c-1.056-.565-2.274-.847-3.652-.847-2.228 0-3.959.61-5.192 1.832-1.234 1.221-1.851 2.934-1.851 5.138 0 2.156.63 3.867 1.888 5.132 1.258 1.265 2.952 1.898 5.081 1.898zm.055-3c-.73 0-1.25-.302-1.56-.905-.31-.603-.464-1.48-.464-2.63 0-1.151.155-2.017.464-2.596.31-.58.822-.869 1.536-.869.73 0 1.246.292 1.548.875.301.583.452 1.447.452 2.59 0 1.15-.149 2.027-.446 2.63-.298.603-.808.905-1.53.905zm12.464-12c1.675 0 2.512-.663 2.512-1.988 0-.663-.2-1.164-.601-1.503-.4-.34-1.038-.509-1.911-.509s-1.506.166-1.9.497c-.392.332-.588.836-.588 1.515 0 1.325.83 1.988 2.488 1.988zm2.512 15v-14h-5v14h5zm8.596 0v-6.023c0-1.554.172-2.65.517-3.29.345-.64.905-.96 1.68-.96.565 0 .974.233 1.23.699.254.465.381 1.155.381 2.07V1086H1346v-8.949c0-1.603-.41-2.845-1.228-3.727-.82-.883-1.965-1.324-3.438-1.324-.902 0-1.699.162-2.392.486a3.679 3.679 0 00-1.628 1.457h-.27l-.577-1.7H1333V1086h4.596zm16.478 0c1.91 0 3.375-.37 4.395-1.11 1.02-.74 1.531-1.834 1.531-3.282 0-.724-.113-1.339-.34-1.844a3.45 3.45 0 00-1.061-1.319c-.482-.374-1.212-.756-2.192-1.146-1.316-.501-2.113-.833-2.388-.996-.276-.163-.414-.36-.414-.591 0-.374.395-.561 1.185-.561.453 0 1.037.097 1.753.292.716.195 1.395.432 2.037.71l1.309-3.007a15.811 15.811 0 00-2.525-.854 11.09 11.09 0 00-2.599-.292c-1.835 0-3.255.35-4.259 1.05-1.004.7-1.506 1.68-1.506 2.936 0 .995.255 1.816.765 2.465.51.648 1.408 1.227 2.692 1.737 1.407.54 2.257.905 2.55 1.092.291.187.437.4.437.638 0 .462-.522.692-1.567.692-.7 0-1.496-.103-2.39-.31a14.877 14.877 0 01-2.462-.788v3.736c.798.287 1.58.483 2.345.59.766.108 1.667.162 2.704.162zm14.572 6v-5.532c0-.235-.071-.835-.214-1.8h.214c.531.6 1.066 1.016 1.604 1.247.54.23 1.15.346 1.83.346 1.514 0 2.712-.638 3.595-1.914.883-1.277 1.325-3.026 1.325-5.247 0-2.204-.424-3.939-1.271-5.203-.848-1.265-2.017-1.897-3.506-1.897-1.521 0-2.713.665-3.577 1.994h-.214l-.653-1.75H1364V1092h4.646zm1.479-9c-.735 0-1.273-.275-1.614-.826-.34-.55-.511-1.444-.511-2.68v-.394c.026-1.025.19-1.798.492-2.319.301-.52.828-.781 1.58-.781.69 0 1.185.269 1.482.807.297.538.446 1.425.446 2.661 0 1.262-.149 2.166-.446 2.713-.297.546-.774.819-1.43.819zm15.957 3c1.078 0 2.005-.072 2.78-.215a8.174 8.174 0 002.259-.776v-3.353c-.8.374-1.543.638-2.228.793a10.2 10.2 0 01-2.252.233c-.895 0-1.602-.215-2.121-.644-.52-.43-.795-1.023-.826-1.779H1392v-2.077c0-1.997-.553-3.526-1.658-4.589-1.105-1.062-2.671-1.593-4.7-1.593-2.13 0-3.77.61-4.919 1.832-1.149 1.221-1.723 2.974-1.723 5.258 0 2.212.62 3.916 1.86 5.114 1.24 1.197 2.98 1.796 5.222 1.796zm1.918-8h-4c.063-.689.28-1.194.649-1.517.369-.322.827-.483 1.375-.483.595 0 1.07.181 1.422.544.354.363.538.849.554 1.456zm11.176 8c1.052 0 1.91-.143 2.573-.43.663-.286 1.315-.82 1.954-1.599h.097l.91 1.79h3.29v-8.868c0-1.543-.484-2.745-1.45-3.604-.968-.86-2.333-1.289-4.097-1.289-2.444 0-4.467.406-6.07 1.217l1.372 3.08c1.546-.669 2.82-1.003 3.824-1.003 1.117 0 1.675.557 1.675 1.671v.191l-2.294.072c-1.934.087-3.411.483-4.43 1.187-1.02.704-1.53 1.777-1.53 3.217 0 1.384.372 2.458 1.117 3.222.744.764 1.764 1.146 3.059 1.146zm2-3c-.784 0-1.176-.416-1.176-1.248 0-1.08.682-1.648 2.046-1.704l.954-.048v1.056c0 .576-.178 1.044-.535 1.404a1.75 1.75 0 01-1.288.54zm14.676 3v-3.773l1.568-1.185 3.061 4.958H1426l-5.16-7.95 4.851-5.885h-5.382l-3.136 3.908c-.412.512-.91 1.229-1.494 2.149h-.099c.181-1.221.272-2.47.272-3.749V1067H1411v19h4.852zm18.23 0c1.078 0 2.005-.072 2.78-.215a8.174 8.174 0 002.259-.776v-3.353c-.8.374-1.543.638-2.228.793a10.2 10.2 0 01-2.252.233c-.895 0-1.602-.215-2.121-.644-.52-.43-.795-1.023-.826-1.779H1440v-2.077c0-1.997-.553-3.526-1.658-4.589-1.105-1.062-2.671-1.593-4.7-1.593-2.13 0-3.77.61-4.919 1.832-1.149 1.221-1.723 2.974-1.723 5.258 0 2.212.62 3.916 1.86 5.114 1.24 1.197 2.98 1.796 5.222 1.796zm1.918-8h-4c.063-.689.28-1.194.649-1.517.369-.322.827-.483 1.375-.483.595 0 1.07.181 1.422.544.354.363.538.849.554 1.456zm12.87 8v-6.763c0-.89.24-1.573.722-2.046.481-.474 1.253-.71 2.316-.71.706 0 1.258.048 1.656.145l.436-4.48-.274-.049a7.221 7.221 0 00-1.208-.097c-.739 0-1.472.225-2.198.674a4.805 4.805 0 00-1.7 1.767h-.236l-.76-2.198H1444V1086h4.87z" id="Coinspeaker"/></g></g></svg>