<svg width="171" height="33" xmlns="http://www.w3.org/2000/svg"><defs><linearGradient x1="-49.835%" y1="-95.687%" x2="155.528%" y2="148.248%" id="linearGradient-1"><stop stop-color="#EA3671" offset="0%"/><stop stop-color="#E03A75" offset="4%"/><stop stop-color="#82619B" offset="39%"/><stop stop-color="#3C7EB8" offset="69%"/><stop stop-color="#1190C9" offset="89%"/><stop stop-color="#0197D0" offset="100%"/></linearGradient><linearGradient x1="-87.801%" y1="15.011%" x2="146.189%" y2="99.74%" id="linearGradient-2"><stop stop-color="#EA3671" offset="0%"/><stop stop-color="#E03A75" offset="4%"/><stop stop-color="#82619B" offset="39%"/><stop stop-color="#3C7EB8" offset="69%"/><stop stop-color="#1190C9" offset="89%"/><stop stop-color="#0197D0" offset="100%"/></linearGradient><linearGradient x1="-95.211%" y1="-105.853%" x2="106.732%" y2="84.224%" id="linearGradient-3"><stop stop-color="#EA3671" offset="0%"/><stop stop-color="#E03A75" offset="4%"/><stop stop-color="#82619B" offset="39%"/><stop stop-color="#3C7EB8" offset="69%"/><stop stop-color="#1190C9" offset="89%"/><stop stop-color="#0197D0" offset="100%"/></linearGradient><linearGradient x1="-93.453%" y1="-27.016%" x2="65.885%" y2="58.832%" id="linearGradient-4"><stop stop-color="#EA3671" offset="0%"/><stop stop-color="#E03A75" offset="4%"/><stop stop-color="#82619B" offset="39%"/><stop stop-color="#3C7EB8" offset="69%"/><stop stop-color="#1190C9" offset="89%"/><stop stop-color="#0197D0" offset="100%"/></linearGradient><linearGradient x1="75.772%" y1="69.527%" x2="283.544%" y2="316%" id="linearGradient-5"><stop stop-color="#EA3671" offset="0%"/><stop stop-color="#E03A75" offset="4%"/><stop stop-color="#82619B" offset="39%"/><stop stop-color="#3C7EB8" offset="69%"/><stop stop-color="#1190C9" offset="89%"/><stop stop-color="#0197D0" offset="100%"/></linearGradient><linearGradient x1="22.058%" y1="51.433%" x2="256.351%" y2="137.128%" id="linearGradient-6"><stop stop-color="#EA3671" offset="0%"/><stop stop-color="#E03A75" offset="4%"/><stop stop-color="#82619B" offset="39%"/><stop stop-color="#3C7EB8" offset="69%"/><stop stop-color="#1190C9" offset="89%"/><stop stop-color="#0197D0" offset="100%"/></linearGradient><linearGradient x1="-9.04%" y1="-4.478%" x2="194.145%" y2="185.404%" id="linearGradient-7"><stop stop-color="#EA3671" offset="0%"/><stop stop-color="#E03A75" offset="4%"/><stop stop-color="#82619B" offset="39%"/><stop stop-color="#3C7EB8" offset="69%"/><stop stop-color="#1190C9" offset="89%"/><stop stop-color="#0197D0" offset="100%"/></linearGradient><linearGradient x1="-32.089%" y1="-2.808%" x2="128.71%" y2="82.946%" id="linearGradient-8"><stop stop-color="#EA3671" offset="0%"/><stop stop-color="#E03A75" offset="4%"/><stop stop-color="#82619B" offset="39%"/><stop stop-color="#3C7EB8" offset="69%"/><stop stop-color="#1190C9" offset="89%"/><stop stop-color="#0197D0" offset="100%"/></linearGradient><linearGradient x1="-238.232%" y1="-106.612%" x2="106.586%" y2="90.88%" id="linearGradient-9"><stop stop-color="#EA3671" offset="0%"/><stop stop-color="#E03A75" offset="4%"/><stop stop-color="#82619B" offset="39%"/><stop stop-color="#3C7EB8" offset="69%"/><stop stop-color="#1190C9" offset="89%"/><stop stop-color="#0197D0" offset="100%"/></linearGradient><linearGradient x1="33.629%" y1="7.744%" x2="74.571%" y2="110.077%" id="linearGradient-10"><stop stop-color="#EA3671" offset="0%"/><stop stop-color="#E03A75" offset="4%"/><stop stop-color="#82619B" offset="39%"/><stop stop-color="#3C7EB8" offset="69%"/><stop stop-color="#1190C9" offset="89%"/><stop stop-color="#0197D0" offset="100%"/></linearGradient></defs><g id="Page-1" stroke="none" stroke-width="1" fill="none" fill-rule="evenodd"><g id="Home" transform="translate(-870 -11283)" fill-rule="nonzero"><g id="d9073f92caabb95b29de82219a9c7d50-(1)" transform="translate(870 11283)"><g id="资源-3备份-7"><path d="M35.15 9.344a4.855 4.855 0 002.67-4.759A4.867 4.867 0 0034.37.352a4.906 4.906 0 00-5.237 1.612 17.362 17.362 0 016.08 7.38h-.063z" id="路径" fill="url(#linearGradient-1)"/><path d="M24.168 9.923a10.93 10.93 0 014.04-6.976 16.605 16.605 0 015.739 6.976h-9.779z" id="路径-2" fill="url(#linearGradient-2)"/><path d="M24.067 11.233H34.39a15.879 15.879 0 01.697 7.341h-.089a7.254 7.254 0 01-5.067-2.103c-.189.406-.4.801-.633 1.184a8.552 8.552 0 005.611 2.204c-.176.797-.413 1.58-.709 2.342-5.675-.382-10.093-5.05-10.133-10.704v-.264z" id="路径-3" fill="url(#linearGradient-3)"/><path d="M19.405 23.548a12.313 12.313 0 007.448-3.01 12.32 12.32 0 006.815 3.048 16.592 16.592 0 01-10.032 8.538 10.857 10.857 0 01-4.23-8.576z" id="路径-4" fill="url(#linearGradient-4)"/><path d="M2.533 9.344A4.853 4.853 0 01.051 4.586 4.868 4.868 0 013.48.451a4.907 4.907 0 015.171 1.513 17.35 17.35 0 00-6.118 7.38z" id="路径-5" fill="url(#linearGradient-5)"/><path d="M13.566 9.923a10.93 10.93 0 00-4.053-6.976A16.605 16.605 0 003.8 9.923h9.766z" id="路径-6" fill="url(#linearGradient-6)"/><path d="M13.63 11.233H3.305a15.88 15.88 0 00-.71 7.341h.09a7.254 7.254 0 005.066-2.103c.189.406.4.801.633 1.184a8.552 8.552 0 01-5.611 2.204c.176.801.413 1.589.71 2.354 5.674-.382 10.093-5.049 10.133-10.703.025-.101.012-.177.012-.277z" id="路径-7" fill="url(#linearGradient-7)"/><path d="M18.316 23.548a12.313 12.313 0 01-7.448-3.01 12.32 12.32 0 01-6.815 3.035 16.592 16.592 0 0010.032 8.538 10.857 10.857 0 004.231-8.575v.012z" id="路径-8" fill="url(#linearGradient-8)"/><path d="M18.886 27.389a12.295 12.295 0 01-3.255 5.037c2.146.457 4.364.457 6.51 0a12.295 12.295 0 01-3.255-5.037z" id="路径-9" fill="url(#linearGradient-9)"/><path d="M27.132 2.191A16.411 16.411 0 0019.595 0v6.296H18.33V0a16.41 16.41 0 00-7.6 2.191 12.152 12.152 0 014.242 8.444 12.133 12.133 0 01-3.102 8.921 10.827 10.827 0 0014.174 0 12.133 12.133 0 01-3.102-8.92 12.152 12.152 0 014.242-8.445h-.051z" id="路径-10" fill="url(#linearGradient-10)"/></g><path d="M53.808 24.993a11.6 11.6 0 004.722-.822l-.453-1.803a9.482 9.482 0 01-3.778.724c-4.319 0-6.837-2.71-6.837-6.991 0-4.575 2.783-7.175 6.976-7.175a8.371 8.371 0 013.576.723l.58-1.827a9.896 9.896 0 00-4.244-.773c-2.528-.15-5 .766-6.785 2.515a8.461 8.461 0 00-2.546 6.622c0 5.716 3.765 8.807 8.79 8.807zm14.607 0c4.558 0 8.298-3.201 8.298-9.162 0-5.188-3.148-8.831-8.059-8.831-4.91 0-8.273 3.618-8.273 9.137 0 5.274 3.287 8.856 8.034 8.856zm.138-1.828c-3.651 0-5.729-3.324-5.729-7.077S64.738 8.84 68.58 8.84c3.84 0 5.691 3.618 5.691 7.101 0 3.95-2.065 7.224-5.717 7.224zm13.46 1.546V7.319h-2.329V24.71h2.33zm6.196 0v-7.482c0-2.895 0-4.98-.164-7.175h.076a50.248 50.248 0 003.312 5.814l5.666 8.83h2.33V7.318h-2.154v7.286c0 2.71 0 4.833.265 7.15h-.076a48.419 48.419 0 00-3.186-5.653l-5.691-8.782h-2.519V24.71h2.141zm22.502 0V10.618h4.885v-3.3H101.86v3.3h4.822v14.093h4.03zm11.08 0V7.319h-4.029V24.71h4.03zm12.454.184a20.445 20.445 0 005.968-.982v-9.137h-6.648v3.066h2.757v3.68a6.351 6.351 0 01-1.964.233c-1.57.086-3.1-.5-4.188-1.607a5.155 5.155 0 01-1.466-4.146c0-3.79 2.519-5.63 5.931-5.63a9.574 9.574 0 014.13.749l.844-3.177a13.216 13.216 0 00-4.961-.821c-5.856 0-10.175 3.299-10.2 9.088a8.597 8.597 0 002.519 6.353 10.248 10.248 0 007.278 2.33zm20.512-.184v-3.226h-7.341v-4.133h6.573v-3.19h-6.573v-3.617h6.975V7.319H143.4V24.71h11.358zm6.761 0v-6.832h1.197c1.674 0 2.442.589 2.946 2.784a22.855 22.855 0 001.26 4.048H171c-.34-.675-.869-2.944-1.435-4.906a4.347 4.347 0 00-2.343-3.25v-.074c1.857-.643 3.11-2.338 3.148-4.256a4.367 4.367 0 00-1.674-3.68c-1.26-.98-3.123-1.373-5.78-1.373a36.181 36.181 0 00-5.377.355v17.171l3.98.013zm1.587-9.677h-1.587v-4.772a8.243 8.243 0 011.826-.134c1.851 0 2.972.821 2.972 2.453 0 1.63-1.196 2.453-3.211 2.453z" id="COINTIGER" fill="#FFF"/></g></g></g></svg>