<svg width="55" height="55" xmlns="http://www.w3.org/2000/svg"><g id="Page-1" stroke="none" stroke-width="1" fill="none" fill-rule="evenodd"><g id="Home" transform="translate(-772 -7462)" stroke="#FF0010" stroke-width="2"><g id="Group-21" transform="translate(774 7463)"><path d="M20 29a4 4 0 11-8 0 4 4 0 018 0z" id="Stroke-1"/><path d="M8 53l2.74-12.849c.453-2.127 1.95-3.204 4.295-3.646l7.034-1.179L29.042 29s2.312 3.97-.248 6.4l-5.03 5.002-7.688 2.362" id="Stroke-3"/><path id="Stroke-5" d="M19 53l2-12"/><path d="M38 32a4 4 0 108 0 4 4 0 00-8 0z" id="Stroke-7"/><path d="M52 53l-2.606-9.212C48.944 41.654 47.639 40 43.956 40H30s.775 4.727 4.652 4.727h9.304" id="Stroke-9"/><path id="Stroke-11" d="M43 53l-3-8"/><path id="Stroke-13" d="M16.347 4L0 11.05l5.383 4.192L4.653 22 21 14.95"/><path id="Stroke-15" d="M27 30L14 0"/><path id="Stroke-17" d="M31 40l-2-5"/><path id="Stroke-19" d="M37 53l-3-8"/></g></g></g></svg>