<svg width="58" height="56" xmlns="http://www.w3.org/2000/svg"><g id="Page-1" stroke="none" stroke-width="1" fill="none" fill-rule="evenodd"><g id="Home" transform="translate(-1194 -7353)" stroke="#FF0010" stroke-width="2"><g id="Group-15" transform="translate(1195 7355)"><path d="M50 30.411L53.63 34l1.21-1.196c1.624-1.604 1.489-4.474-.07-6.015L51.95 24" id="Stroke-1"/><path d="M25.887 12.96l3.585-3.508c1.98-1.936 5.189-1.936 7.17 0L56 28.395c-1.98-1.938-5.19-1.938-7.17 0L25.17 51.547c-1.98 1.937-5.19 1.937-7.17 0" id="Stroke-3"/><path id="Stroke-5" d="M6 32l4-4"/><path d="M1.487 28a4.827 4.827 0 000 6.97L18 51a4.827 4.827 0 010-6.97L1.487 28z" id="Stroke-7"/><path d="M18.37 10.414C10.526 4.134 4.06 3.807.79 0-.304 2.737-.173 6.446.633 9.83c1.074 3.29 2.183 4.172 3.78 5.393H2.206c.89 1.22 2.152 3.714 3.214 5.142 3.159 4.025 5.617 3.37 8.927 4.432-.321.323-1.366.735-2.206 1.041 2.866 1.693 11.058 3.505 14.505 4.142.025.038.021.015 0-.018 1.2-4.023-.432-13.268-8.276-19.548z" id="Stroke-9"/><path id="Stroke-11" d="M7 11l23 22"/><path id="Stroke-13" d="M24.5 36l1.167 1.167h1.166v1.166L28 39.5l-1.167 1.167v1.166h-1.166L24.5 43l-1.167-1.167h-1.166v-1.166L21 39.5l1.167-1.167v-1.166h1.166z"/></g></g></g></svg>