<svg width="135" height="41" xmlns="http://www.w3.org/2000/svg"><g id="Page-1" stroke="none" stroke-width="1" fill="none" fill-rule="evenodd"><g id="Home" transform="translate(-1290 -11279)" fill="#FFF" fill-rule="nonzero"><g id="Logo.43b091e1" transform="translate(1290 11279)"><path d="M31.936 0a19.483 19.483 0 00-5.93.912 17.636 17.636 0 012.74 3.142c2.968 4.243 2.968 9.358 2.968 16.446 0 7.088 0 12.196-2.974 16.446A17.878 17.878 0 0126 40.08c1.92.61 3.922.92 5.936.919C42.996 41 52 31.804 52 20.5 52.07 9.27 43.096.1 31.936 0zM8.25 20.504A23.64 23.64 0 0119 .678a16.86 16.86 0 00-4.977-.676H0v40.997h14.023a17.002 17.002 0 004.963-.676A23.688 23.688 0 018.25 20.503z" id="Path"/><path d="M28 20c0-7.273-.115-11.22-2.44-14.48A13.73 13.73 0 0022.049 2C15.255 5.512 11 12.444 11 20c0 7.556 4.255 14.488 11.048 18a13.776 13.776 0 003.52-3.527C27.885 31.213 28 27.267 28 20z" id="Path"/><path d="M76.167 8.8a9.635 9.635 0 00-3.233-2.064A11.495 11.495 0 0068.756 6H61v19.998h7.756a11.495 11.495 0 004.178-.735 9.17 9.17 0 005.322-5.232c.502-1.277.755-2.638.744-4.009.01-1.37-.242-2.73-.744-4.009a9.216 9.216 0 00-2.09-3.214zm-7.438 14.032h-3.72V9.182h3.747a6.833 6.833 0 012.576.467 5.336 5.336 0 011.934 1.336c.554.62.973 1.345 1.23 2.132a8.83 8.83 0 01.433 2.906 8.83 8.83 0 01-.433 2.874 6.069 6.069 0 01-1.23 2.138 5.322 5.322 0 01-1.934 1.336 6.834 6.834 0 01-2.576.441l-.027.02z" id="Shape"/><path d="M92.094 20.814a1.128 1.128 0 00-.665.235c-.179.133-.391.279-.63.444a4.672 4.672 0 01-.87.431c-.428.14-.878.205-1.33.19a3.573 3.573 0 01-1.48-.298 3.023 3.023 0 01-1.163-.881 4.204 4.204 0 01-.717-1.453 7.284 7.284 0 01-.246-1.997c-.008-.656.07-1.31.233-1.947.123-.514.349-1 .664-1.433a3.028 3.028 0 011.136-.901 3.836 3.836 0 011.6-.317c.41-.01.818.043 1.21.158.29.09.57.206.836.35.246.132.452.253.625.36.183.116.398.177.617.178a.887.887 0 00.532-.14c.127-.095.241-.205.338-.329l1.023-1.35-.086-.083a7.504 7.504 0 00-2.311-1.503A7.945 7.945 0 0088.414 10a8.401 8.401 0 00-3.182.565 6.587 6.587 0 00-2.325 1.579 6.672 6.672 0 00-1.421 2.372A8.907 8.907 0 0081 17.478a8.735 8.735 0 00.545 3.171 6.88 6.88 0 001.474 2.366 6.17 6.17 0 002.186 1.478 7.08 7.08 0 002.657.507c.54 0 1.08-.039 1.614-.114a7.766 7.766 0 001.58-.393 7.304 7.304 0 001.541-.71c.494-.326.94-.712 1.329-1.149l.073-.082-1.096-1.332a.889.889 0 00-.81-.406z" id="Path"/><path d="M109.823 13.016a7.219 7.219 0 00-2.52-1.49 9.749 9.749 0 00-3.282-.525 9.85 9.85 0 00-3.288.526 7.224 7.224 0 00-2.535 1.489 6.652 6.652 0 00-1.627 2.357 8.102 8.102 0 00-.57 3.099 8.147 8.147 0 00.57 3.124 6.76 6.76 0 001.627 2.37 7.148 7.148 0 002.535 1.508c2.12.701 4.45.701 6.57 0a7.143 7.143 0 002.52-1.508 6.822 6.822 0 001.613-2.37c.387-1 .578-2.053.563-3.112a8.238 8.238 0 00-.563-3.098 6.709 6.709 0 00-1.613-2.37zm-5.802 10.05c-1.093.066-2.15-.365-2.816-1.147a5.393 5.393 0 01-.93-3.422 5.462 5.462 0 01.93-3.434c.66-.79 1.72-1.226 2.816-1.16 1.098-.084 2.165.353 2.817 1.153a5.501 5.501 0 01.922 3.441 5.455 5.455 0 01-.922 3.435c-.659.79-1.723 1.218-2.817 1.134z" id="Shape"/><path d="M117.82 5.524a2.638 2.638 0 00-1.356-1.326 2.518 2.518 0 00-1.958 0 2.66 2.66 0 00-.787.536c-.22.23-.395.5-.514.797a2.42 2.42 0 000 1.95c.259.592.73 1.063 1.322 1.32.304.131.633.2.965.199a2.539 2.539 0 001.793-.735c.233-.223.421-.49.555-.783.12-.306.173-.634.157-.962.01-.34-.05-.68-.178-.996z" id="Path"/><path id="Rectangle" d="M114 11h4v15h-4z"/><path d="M134.65 14.355a4.936 4.936 0 00-1.045-1.776 4.612 4.612 0 00-1.716-1.167 6.2 6.2 0 00-2.344-.41 7.362 7.362 0 00-1.5.14c-.45.093-.885.235-1.297.423a7.05 7.05 0 00-1.144.642 8.633 8.633 0 00-.823.64l-.21-.91c-.155-.435-.612-.717-1.109-.686H121V26h4.088V15.42c.453-.42.973-.772 1.541-1.046a4.073 4.073 0 011.772-.397c.707-.048 1.4.202 1.883.68a2.81 2.81 0 01.635 1.961v9.337H135v-9.337a7.12 7.12 0 00-.348-2.263zM62 39h5v-.84h-3.823v-2.282h3.1v-.814h-3.1v-2.217H67V32h-5zm9.905-4.934l.047-.065h-.92a.218.218 0 00-.15.052.377.377 0 00-.11.117l-1.119 1.553a1.842 1.842 0 00-.102.202l-1.22-1.775a.33.33 0 00-.103-.11.348.348 0 00-.184-.04h-.955l1.746 2.439-1.787 2.496L67 39h.887a.288.288 0 00.19-.065c.043-.043.082-.088.117-.137l1.207-1.67a.882.882 0 00.082-.182l1.248 1.852c.03.05.067.096.11.137.058.043.13.065.204.065H72l-1.835-2.6 1.74-2.334zm4.55 3.762a.413.413 0 00-.248.083 3.015 3.015 0 01-.273.164 2.433 2.433 0 01-.408.159 2.39 2.39 0 01-.625.07 1.969 1.969 0 01-.713-.121 1.417 1.417 0 01-.529-.336 1.478 1.478 0 01-.345-.557 2.04 2.04 0 01-.128-.76c-.002-.25.036-.498.112-.74a1.478 1.478 0 01.898-.912 2.566 2.566 0 011.314-.064 2.456 2.456 0 01.64.26.4.4 0 00.393 0 .434.434 0 00.104-.089l.305-.33a2.81 2.81 0 00-.881-.474 4.082 4.082 0 00-2.404 0 2.519 2.519 0 00-.913.52 2.257 2.257 0 00-.561.797 2.563 2.563 0 00-.193 1c-.007.36.064.718.209 1.058.126.289.322.555.577.785.238.214.533.383.865.494.34.11.705.167 1.074.165a4.35 4.35 0 001.265-.177 2.357 2.357 0 001.01-.577l-.32-.329a.283.283 0 00-.225-.089zm5.03-3.234a1.677 1.677 0 00-.632-.378 2.66 2.66 0 00-.858-.113 2.81 2.81 0 00-1.084.201c-.286.12-.55.272-.78.453V32H77v7h1.131v-3.531c.202-.187.442-.344.71-.466.255-.115.542-.176.834-.177.339-.02.67.086.897.29.212.235.317.522.297.812V39h1.13v-3.072a2.108 2.108 0 00-.124-.749 1.569 1.569 0 00-.39-.585z" id="Path"/><path d="M87.526 34.51a1.516 1.516 0 00-.565-.378 2.054 2.054 0 00-.757-.132 2.944 2.944 0 00-1.072.189 3 3 0 00-.902.572l.172.296a.52.52 0 00.118.12c.128.086.3.086.428 0l.276-.17c.118-.068.241-.127.368-.177.17-.05.348-.076.526-.075a.889.889 0 01.704.277c.176.238.26.527.237.817v.333a6.424 6.424 0 00-1.401.133 3.8 3.8 0 00-.954.333c-.217.115-.403.28-.54.478-.107.17-.164.366-.164.566-.003.198.035.395.112.578.073.155.178.294.31.41.132.108.286.189.453.238.178.057.365.084.553.082.177 0 .353-.016.526-.05.156-.03.308-.077.454-.139.142-.064.276-.142.401-.233.105-.075.217-.163.33-.257l.085.37a.244.244 0 00.125.19c.07.032.146.047.223.043H88v-3.081a2.455 2.455 0 00-.112-.749 1.565 1.565 0 00-.362-.584zm-.487 2.276v.925a2.146 2.146 0 01-.289.251 1.629 1.629 0 01-.316.195 1.631 1.631 0 01-.763.17 1.188 1.188 0 01-.309-.038.595.595 0 01-.401-.333.72.72 0 01-.06-.308.537.537 0 01.112-.334.924.924 0 01.369-.27c.211-.086.432-.15.658-.189.33-.05.665-.073 1-.069z" id="Shape"/><path d="M92.47 34.519c-.17-.168-.387-.3-.632-.384a2.608 2.608 0 00-.874-.135 2.82 2.82 0 00-1.123.218 3.53 3.53 0 00-.78.512l-.07-.448c-.031-.126-.172-.214-.328-.205H88V39h1.131v-3.591c.202-.19.442-.35.71-.474a2.04 2.04 0 01.834-.18c.339-.02.67.088.897.295.212.24.317.53.297.826V39h1.13v-3.124a2.177 2.177 0 00-.124-.762 1.612 1.612 0 00-.406-.595z" id="Path"/><path d="M97.98 34.073a2.93 2.93 0 00-1.476.047c-.239.067-.46.18-.65.333a1.524 1.524 0 00-.427.526 1.484 1.484 0 00-.154.666 1.514 1.514 0 00.79 1.359c-.082.045-.16.099-.23.16a1.293 1.293 0 00-.217.22.972.972 0 00-.14.246.72.72 0 00-.042.24.721.721 0 00.147.466.816.816 0 00.286.233c-.231.085-.44.22-.608.393a.933.933 0 00-.259.665c0 .185.051.366.147.527.11.175.261.326.44.44.228.138.479.24.742.299.336.077.682.112 1.028.106a3.66 3.66 0 001.049-.14 2.77 2.77 0 00.79-.392 1.83 1.83 0 00.503-.56 1.36 1.36 0 00.175-.666 1.04 1.04 0 00-.16-.6 1.074 1.074 0 00-.42-.359 2.098 2.098 0 00-.58-.186 4.298 4.298 0 00-.658-.054h-.65a3.477 3.477 0 01-.56-.04 1.018 1.018 0 01-.384-.133.263.263 0 01-.133-.246.33.33 0 01.077-.207.92.92 0 01.224-.2c.228.055.463.082.699.08.275.002.548-.036.811-.113.235-.074.453-.189.643-.34.18-.143.323-.322.42-.525a1.605 1.605 0 000-1.372l.545-.073c.21-.047.252-.16.252-.254v-.366h-1.468a2.054 2.054 0 00-.553-.18zm-.658 2.618a1.462 1.462 0 01-.476-.074.897.897 0 01-.342-.2.805.805 0 01-.217-.306 1.04 1.04 0 01-.07-.393.927.927 0 01.28-.706 1.455 1.455 0 011.657 0 .927.927 0 01.28.706 1.192 1.192 0 01-.07.393.864.864 0 01-.56.506 1.462 1.462 0 01-.482.074zm.049 3.63a3.255 3.255 0 01-.665-.06 1.825 1.825 0 01-.461-.167.685.685 0 01-.259-.24.54.54 0 01-.09-.293.65.65 0 01.174-.44c.131-.128.285-.234.455-.313.175.047.356.069.538.067h.553c.17-.01.34-.01.51 0 .145.016.288.045.427.087a.704.704 0 01.28.173.394.394 0 01.097.28.598.598 0 01-.105.346.91.91 0 01-.3.28 1.795 1.795 0 01-.49.18 2.82 2.82 0 01-.664.072v.027zm7.566-3.856a.449.449 0 00.06-.284 2.258 2.258 0 00-.178-.923 2 2 0 00-.487-.689 2.321 2.321 0 00-.738-.423 3.014 3.014 0 00-.944-.146 3.21 3.21 0 00-1.107.183 2.418 2.418 0 00-.834.512 2.279 2.279 0 00-.531.765 2.52 2.52 0 00-.177.948c-.008.376.059.75.199 1.106.12.302.312.58.56.816.242.219.537.39.864.5a3.36 3.36 0 001.085.17c.417 0 .831-.06 1.225-.177.193-.063.378-.141.553-.234a2 2 0 00.443-.335l-.295-.329a.265.265 0 00-.229-.1.495.495 0 00-.243.081c-.089.045-.192.102-.318.152-.146.065-.3.118-.457.158-.201.052-.41.075-.62.07a2.039 2.039 0 01-.738-.108 1.368 1.368 0 01-.531-.322 1.516 1.516 0 01-.355-.544 2.2 2.2 0 01-.14-.74h3.69c.1.013.197-.03.243-.107zm-3.852-.518a1.56 1.56 0 01.487-.91 1.627 1.627 0 011.085-.342c.2-.002.398.03.583.095.163.062.309.153.428.266.119.118.209.256.266.404.057.158.087.322.088.487h-2.937z" id="Shape"/></g></g></g></svg>