<svg width="1920" height="170" xmlns="http://www.w3.org/2000/svg"><g id="Page-1" stroke="none" stroke-width="1" fill="none" fill-rule="evenodd"><g id="Home" transform="translate(0 -4867)"><g id="Group-2" transform="translate(-5 4867)"><path d="M0 0c210.54 79.295 371.397 118.943 482.57 118.943 159.43 0 239.826-62.861 464.32-62.861s416.098 42.557 573.477 42.557c104.92 0 240.13-28.243 405.633-84.73v155.63H0V0z" id="Curve-2" fill-opacity=".185" fill="#FF0010" opacity=".679" transform="matrix(-1 0 0 1 1926 0)"/><path d="M0 115.583c134.927 23.196 257.977 34.794 369.15 34.794 159.43 0 301.925-78.525 526.42-78.525 224.493 0 418.063 53.48 575.442 53.48 104.92 0 256.582-23.11 454.988-69.332v113.54H0v-53.957z" id="curve-1" fill="#171819"/></g></g></g></svg>