<svg width="215" height="136" xmlns="http://www.w3.org/2000/svg"><g id="Page-1" stroke="none" stroke-width="1" fill="none" fill-rule="evenodd" opacity=".112"><g id="Home" transform="translate(-347 -9184)" fill="#FF0010" stroke="#5B160E"><g id="Group" transform="translate(348 8876)"><path d="M154.27 337.959h-.035c-.354 4.694-4.319 8.396-9.168 8.396-4.848 0-8.813-3.702-9.165-8.396h-.037c0-15.993-13.147-28.959-29.365-28.959-16.094 0-29.16 12.77-29.356 28.599h-.065c-.352 4.692-4.317 8.394-9.166 8.394-4.851 0-8.816-3.702-9.168-8.394h-.023C58.524 321.77 45.462 309 29.365 309 13.148 309 0 321.966 0 337.959v76.082C0 430.034 13.148 443 29.365 443c16.218 0 29.366-12.966 29.366-28.959v-32.083c.218-4.821 4.238-8.667 9.182-8.667 5.08 0 9.2 4.063 9.2 9.074h.022v19.826c0 15.994 13.147 28.96 29.365 28.96 16.218 0 29.365-12.966 29.365-28.96v-19.464c0-5.012 4.12-9.074 9.202-9.074 5.083 0 9.202 4.062 9.202 9.074v6.32c0 15.994 13.148 28.959 29.366 28.959 16.219 0 29.365-12.965 29.365-28.959V337.96c0-15.994-13.146-28.96-29.365-28.96-16.218 0-29.366 12.966-29.366 28.959z" id="background-logo"/></g></g></g></svg>