<svg width="122" height="127" xmlns="http://www.w3.org/2000/svg" xmlns:xlink="http://www.w3.org/1999/xlink"><defs><path id="path-1" d="M0 0h122v122H0z"/><path id="path-3" d="M0 122h122V-5H0z"/></defs><g id="Page-1" stroke="none" stroke-width="1" fill="none" fill-rule="evenodd"><g id="Home" transform="translate(-900 -3498)"><g id="Group-12" transform="translate(900 3503)"><path d="M102 90.155L105.714 93A58.206 58.206 0 00108 89.556L104.094 87A53.085 53.085 0 01102 90.155" id="Fill-1" fill="#FF0010"/><mask id="mask-2" fill="#fff"><use xlink:href="#path-1"/></mask><path d="M107.284 36.069c-6.34 12.788-16.936 23.275-29.253 29.807C77.533 42.81 63.12 19.652 42.048 7.489A53.478 53.478 0 0158.56 4.88a53.354 53.354 0 0129.648 8.96L79.8 27.292l4.138 2.589 8.215-13.147a53.975 53.975 0 0115.13 19.335zM73.2 68.194c-7.43 3.2-15.321 5.006-23.18 5.006l-1.15-.002c-3.272-7.574-4.95-15.362-4.95-23.178v-.278C51.928 46.214 60.27 44.24 68.227 44c3.182 7.406 4.973 15.269 4.973 23.1v1.094zm1.854 41.411c-5.278 1.701-10.821 2.635-16.494 2.635a53.344 53.344 0 01-19.52-3.691l5.624-8.999-4.136-2.589-5.99 9.582a54.02 54.02 0 01-24.99-26.132c3.569-6.283 12.868-16.524 12.968-16.631l-3.609-3.287c-.354.39-7.115 7.835-11.529 14.247A53.435 53.435 0 014.88 58.56c0-21.572 12.795-40.199 31.19-48.724 12.834 6.359 23.35 17.014 29.878 29.39-13.569.903-27.967 6.383-40.097 15.443l2.921 3.909a78.19 78.19 0 0110.326-6.498c.283 8.32 2.267 16.572 5.949 24.576 6.332 13.751 17.107 25.495 30.007 32.95zM122 9.76V4.88H93.808l-3.016 4.822C81.539 3.58 70.462 0 58.56 0 26.27 0 0 26.27 0 58.56c0 22.707 13.002 42.422 31.944 52.134l-4.016 6.426H0V122h30.634l5.775-9.242a58.265 58.265 0 0022.15 4.362c14.933 0 29.154-5.621 40.038-15.828l-3.335-3.56c-4.243 3.98-9.062 7.145-14.228 9.53-12.47-6.187-23.109-16.667-29.794-29.233 23.065-.493 46.228-14.908 58.391-35.982a53.494 53.494 0 012.609 16.513 53.448 53.448 0 01-3.338 18.674l-.386 1.015 4.54 1.783.423-1.105a58.325 58.325 0 003.64-20.367c0-18.634-8.76-35.25-22.365-45.984l1.76-2.816H122z" id="Fill-3" fill="#FF0010" mask="url(#mask-2)"/><mask id="mask-4" fill="#fff"><use xlink:href="#path-3"/></mask><path id="Fill-6" fill="#FF0010" mask="url(#mask-4)" d="M95 0h5v-5h-5z"/><path id="Fill-8" fill="#FF0010" mask="url(#mask-4)" d="M105 0h5v-5h-5z"/><path id="Fill-9" fill="#FF0010" mask="url(#mask-4)" d="M115 0h5v-5h-5z"/><path id="Fill-10" fill="#FF0010" mask="url(#mask-4)" d="M5 112h5v-5H5z"/><path id="Fill-11" fill="#FF0010" mask="url(#mask-4)" d="M15 112h5v-5h-5z"/></g></g></g></svg>