<svg width="180" height="57" xmlns="http://www.w3.org/2000/svg" xmlns:xlink="http://www.w3.org/1999/xlink"><defs><path d="M.382 2.233v29.821c0 .808.7 1.573 1.451 1.573.668 0 .997-.2 1.33-.374l27.03-14.948c.58-.32.87-.741.867-1.163.004-.421-.286-.843-.867-1.162L3.163 1.034C2.83.86 2.502.657 1.834.657c-.752 0-1.45.767-1.45 1.576" id="path-1"/><path d="M.176.672L16.33 16.849l5.07-5.077L1.741 1.011C1.41.84 1.087.642.427.642c-.085 0-.17.01-.251.03" id="path-4"/><path d="M.107 5.732l4.906 4.921L12.1 6.766c.569-.31.853-.719.849-1.128.004-.409-.28-.819-.85-1.128L5.136.69.107 5.732z" id="path-7"/><path d="M.354 15.633l-.014.012c.03.003.06.004.087.004.66 0 .985-.189 1.314-.352l19.537-10.3L16.331.225.354 15.633z" id="path-10"/><path id="path-13" d="M0 57h180V0H0z"/><linearGradient x1="32.381%" y1="-5.974%" x2="54.508%" y2="92.814%" id="linearGradient-3"><stop stop-color="#006783" offset="0%"/><stop stop-color="#89D1CF" offset="100%"/></linearGradient><linearGradient x1="-7.728%" y1="30.212%" x2="91.653%" y2="71.293%" id="linearGradient-6"><stop stop-color="#23BAB6" offset="0%"/><stop stop-color="#DBE691" offset="100%"/></linearGradient><linearGradient x1="50.004%" y1="105.136%" x2="50.004%" y2="-4.558%" id="linearGradient-9"><stop stop-color="#FBBF72" offset="0%"/><stop stop-color="#F4895B" offset="100%"/></linearGradient><linearGradient x1="10.887%" y1="86.666%" x2="90.474%" y2="29.129%" id="linearGradient-12"><stop stop-color="#702A8E" offset="0%"/><stop stop-color="#E91C26" offset="100%"/></linearGradient></defs><g id="Page-1" stroke="none" stroke-width="1" fill="none" fill-rule="evenodd"><g id="Home" transform="translate(-975 -1867)"><g id="Group-54" transform="translate(975 1867)"><g id="Group-5"><path d="M173.721 56.305H6.28c-3.084 0-5.582-2.49-5.582-5.561V6.256C.698 3.185 3.196.695 6.28.695h167.44c3.083 0 5.582 2.49 5.582 5.56v44.489c0 3.07-2.5 5.56-5.582 5.56" id="Fill-1" fill="#000"/><path d="M173.721 56.305H6.28c-3.084 0-5.582-2.49-5.582-5.561V6.256C.698 3.185 3.196.695 6.28.695h167.44c3.083 0 5.582 2.49 5.582 5.56v44.489c0 3.07-2.5 5.56-5.582 5.56z" id="Stroke-3" stroke="#FFF"/></g><g id="Group-8" transform="translate(14.078 11)"><mask id="mask-2" fill="#fff"><use xlink:href="#path-1"/></mask><path d="M.382 2.233v29.821c0 .808.7 1.573 1.451 1.573.668 0 .997-.2 1.33-.374l27.03-14.948c.58-.32.87-.741.867-1.163.004-.421-.286-.843-.867-1.162L3.163 1.034C2.83.86 2.502.657 1.834.657c-.752 0-1.45.767-1.45 1.576" id="Fill-6" fill="url(#linearGradient-3)" mask="url(#mask-2)"/></g><g id="Group-11" transform="translate(15.084 11)"><mask id="mask-5" fill="#fff"><use xlink:href="#path-4"/></mask><path d="M.176.672L16.33 16.849l5.07-5.077L1.741 1.011C1.41.84 1.087.642.427.642c-.085 0-.17.01-.251.03" id="Fill-9" fill="url(#linearGradient-6)" mask="url(#mask-5)"/></g><g id="Group-14" transform="translate(32.179 22)"><mask id="mask-8" fill="#fff"><use xlink:href="#path-7"/></mask><path d="M.107 5.732l4.906 4.921L12.1 6.766c.569-.31.853-.719.849-1.128.004-.409-.28-.819-.85-1.128L5.136.69.107 5.732z" id="Fill-12" fill="url(#linearGradient-9)" mask="url(#mask-8)"/></g><g id="Group-17" transform="translate(15.084 29)"><mask id="mask-11" fill="#fff"><use xlink:href="#path-10"/></mask><path d="M.354 15.633l-.014.012c.03.003.06.004.087.004.66 0 .985-.189 1.314-.352l19.537-10.3L16.331.225.354 15.633z" id="Fill-15" fill="url(#linearGradient-12)" mask="url(#mask-11)"/></g><g id="Group-53"><path d="M138.28 33.108c0-1.343-1.06-2.432-2.633-2.432h-2.828v4.865h2.961c1.391 0 2.5-1.09 2.5-2.433zm-21.396 4.714l5.166-2.183c-.536-.92-1.4-1.205-2.14-1.205-1.964 0-3.312 2.227-3.026 3.388zm-10.207 1.268a3.697 3.697 0 00.1-.471 3.766 3.766 0 00-.015-1.275 3.136 3.136 0 00-.13-.519c-.439-1.36-1.61-2.326-2.974-2.313-1.738.014-3.137 1.599-3.125 3.54.014 1.937 1.434 3.5 3.17 3.486 1.365-.01 2.522-.995 2.974-2.448zm-12.315-1.062c0-1.675-1.182-3.522-3.239-3.522-2.055 0-3.238 1.848-3.238 3.523 0 1.677 1.183 3.522 3.238 3.522 2.057 0 3.239-1.848 3.239-3.523zm-12.597 0c0-1.675-1.185-3.522-3.239-3.522-2.057 0-3.24 1.848-3.24 3.523 0 1.677 1.183 3.522 3.24 3.522 2.054 0 3.239-1.848 3.239-3.523zm71.513 1.234c-.577-.39-1.454-.564-2.218-.564-1.674 0-2.62.844-2.62 1.765 0 1.03.99 1.538 1.913 1.538 1.344 0 2.925-1.114 2.925-2.739zm-42.567 4.259V26.316h2.576v17.205h-2.576zm31.509.25V28.396h2.352v15.375h-2.352zm-11.755 0V28.399h4.965c2.993 0 5.25 2.085 5.25 4.654 0 2.571-2.146 4.656-4.791 4.656h-3.07v6.062h-2.354zm-14.538-1.63c-2.068-2.275-2.068-6.001 0-8.276 2.068-2.274 5.598-2.262 7.603-.014.659.737 1.103 1.692 1.492 2.684l-7.74 3.247c.452.908 1.344 1.778 2.753 1.778 1.205 0 2.026-.403 2.891-1.625l2.023 1.358h.002c-.233.305-.52.61-.737.847-2.068 2.275-6.22 2.275-8.287 0zm-58.93-1.042c-3.512-3.527-3.407-9.194.105-12.72a8.984 8.984 0 016.41-2.647 9.084 9.084 0 016.168 2.457l-1.74 1.809a6.354 6.354 0 00-8.988.122c-2.493 2.573-2.55 6.71-.06 9.283 2.512 2.574 6.675 2.725 9.184.151.85-.869 1.137-1.98 1.31-3.115h-5.888v-2.482h8.272c.118.62.138 1.26.138 1.89 0 2.04-.886 4.202-2.256 5.6-1.566 1.597-3.75 2.423-6.058 2.404a9.487 9.487 0 01-6.597-2.752zm28.323-3.07c0-2.778 2.12-5.84 5.803-5.84 3.684 0 5.805 3.06 5.805 5.839 0 2.777-2.121 5.84-5.805 5.84-3.683 0-5.803-3.061-5.803-5.839zm-12.599 0c0-2.778 2.121-5.84 5.805-5.84 3.682 0 5.805 3.06 5.805 5.839 0 2.777-2.123 5.84-5.805 5.84-3.684 0-5.805-3.061-5.805-5.839zm74.339 5.013c-.67-.643-1.035-1.651-1.044-2.579a3.235 3.235 0 01.863-2.264c.954-1.018 2.391-1.454 3.898-1.454.985 0 1.857.197 2.517.575 0-1.697-1.33-2.345-2.46-2.345-1.042 0-1.96.548-2.313 1.496l-2.13-.86c.379-1.025 1.57-2.777 4.39-2.777 1.375 0 2.74.482 3.628 1.423.886.942 1.184 2.115 1.184 3.673v5.83h-2.324v-1.042c-.31.381-.774.76-1.274 1.006-.597.293-1.299.392-1.945.392-1.06 0-2.227-.342-2.99-1.074zm11.262 5.303l2.352-5.553-4.165-9.627h2.372l2.967 6.858 2.905-6.858h2.37l-6.43 15.18h-2.371zm-58.4-.583c-.658-.58-1.22-1.479-1.549-2.109l2.251-.953c.144.273.353.696.687 1.056.576.623 1.349 1.051 2.285 1.051.874 0 1.86-.4 2.38-1.116.463-.643.644-1.46.644-2.336v-.876c-1.607 2.06-5.117 1.771-7.081-.357-2.099-2.273-2.08-5.966.043-8.239 2.096-2.07 5.203-2.33 7.032-.37l.006.003v-.99h2.435V43.08c0 2.685-.99 4.2-2.217 5.085-.9.648-2.16.944-3.271.944-1.443 0-2.68-.496-3.645-1.346z" id="Fill-18" fill="#FFF"/><path d="M160.12 45.538v-.004l-.006.002-.003-.003v-.013c0-.001 0-.002.003-.002.001 0 .004 0 .005.002l.002-.004c-.002-.001-.004-.004-.007-.004a.009.009 0 00-.008.008v.014c0 .004.004.006.008.006.003 0 .005 0 .007-.002" id="Fill-20" fill="#FFF"/><path id="Fill-22" fill="#FFF" d="M160.16 45.536h-.01v-.007h.009v-.004h-.01v-.007h.01l.001-.004h-.016v.026h.016z"/><path id="Fill-24" fill="#FFF" d="M160.197 45.514h-.017v.004h.007v.022h.005v-.022h.004z"/><path id="Fill-26" fill="#FFF" d="M160.215 45.536h-.011v-.007h.01v-.004h-.01v-.007h.01v-.004h-.016v.026h.017z"/><path id="Fill-28" fill="#FFF" d="M160.287 45.514h-.005l-.005.01v.001-.001l-.005-.01h-.004l.007.017v.01h.005v-.01z"/><path id="Fill-30" fill="#FFF" d="M160.324 45.534h-.017v-.032h-.008v.038h.024z"/><path d="M160.381 45.541v-.023h-.012v.007h.007v.006l-.007.003c-.002 0-.006-.003-.006-.004v-.018c0-.003.004-.004.007-.004.001 0 .004 0 .007.004l.004-.006a.013.013 0 00-.011-.005c-.007 0-.014.003-.014.011v.018c0 .007.006.01.013.01.002 0 .007 0 .008-.002l.004.003z" id="Fill-32" fill="#FFF"/><path id="Fill-34" fill="#FFF" d="M160.47 45.54v-.038h-.006l-.012.028-.013-.028h-.006v.038h.006v-.02l-.001-.004.01.024h.006l.01-.024-.001.004v.02z"/><path d="M160.532 45.532c.002-.006-.002-.012-.008-.014-.001-.002-.01-.003-.01-.007 0-.003.003-.004.006-.004s.004 0 .007.002l.004-.005a.018.018 0 00-.011-.003c-.007 0-.011.003-.011.01 0 .005.002.008.007.01.002.002.01.004.008.01 0 .002-.001.003-.006.003a.015.015 0 01-.008-.004l-.004.004a.017.017 0 00.012.006.015.015 0 00.014-.008" id="Fill-36" fill="#FFF"/><path id="Fill-38" fill="#FFF" d="M160.56 45.502h-.028v.005h.01v.032h.008v-.032h.008z"/><path id="Fill-40" fill="#FFF" d="M160.586 45.534h-.017v-.012h.015v-.006h-.015v-.01h.015l.002-.004h-.024v.038h.024z"/><path d="M55.008 14.68c0-2.46 1.832-4.039 4.112-4.039 1.528 0 2.527.726 3.15 1.616l-1.117.645a2.528 2.528 0 00-2.033-1.043c-1.55 0-2.703 1.17-2.703 2.821 0 1.627 1.153 2.82 2.703 2.82.8 0 1.504-.362 1.856-.703v-1.205h-2.349v-1.205h3.712v2.915a4.237 4.237 0 01-3.219 1.428c-2.28 0-4.112-1.603-4.112-4.05" id="Fill-42" fill="#FFF"/><path id="Fill-44" fill="#FFF" d="M64.04 18.578V10.77h5.37v1.206h-3.996v2.013h3.914v1.205h-3.914v2.179h3.996v1.205z"/><path id="Fill-46" fill="#FFF" d="M73.213 18.578v-6.602H70.84V10.77h6.121v1.206h-2.373v6.602z"/><mask id="mask-14" fill="#fff"><use xlink:href="#path-13"/></mask><path id="Fill-48" fill="#FFF" mask="url(#mask-14)" d="M81.738 18.578h1.375V10.77h-1.375z"/><path id="Fill-50" fill="#FFF" mask="url(#mask-14)" d="M86.941 18.578v-6.602H84.57V10.77h6.122v1.206h-2.374v6.602z"/><path d="M101.73 14.68c0-1.615-1.021-2.82-2.595-2.82-1.587 0-2.598 1.205-2.598 2.82 0 1.603 1.011 2.82 2.598 2.82 1.574 0 2.595-1.217 2.595-2.82m-6.603 0c0-2.33 1.657-4.039 4.006-4.039 2.339 0 4.008 1.71 4.008 4.04s-1.67 4.036-4.008 4.036c-2.35 0-4.006-1.707-4.006-4.037" id="Fill-51" fill="#FFF" mask="url(#mask-14)"/><path id="Fill-52" fill="#FFF" mask="url(#mask-14)" d="M110.21 18.578l-4.09-5.585v5.585h-1.373V10.77h1.41l4.007 5.408V10.77h1.374v7.808z"/></g></g></g></g></svg>