<svg width="172" height="33" xmlns="http://www.w3.org/2000/svg" xmlns:xlink="http://www.w3.org/1999/xlink"><defs><path id="path-1" d="M.429.019h6.853V6H.43z"/></defs><g id="Page-1" stroke="none" stroke-width="1" fill="none" fill-rule="evenodd"><g id="Home" transform="translate(-1517 -1063)"><g id="Group-24" transform="translate(1517 1063)"><path d="M35.22 9c2.492-1.181 3.494-4.04 2.238-6.384C36.201.27 33.164-.672 30.671.51A4.987 4.987 0 0029 1.785C31.772 3.589 33.948 6.09 35.285 9h-.066z" id="Fill-1" fill="#FFF"/><path d="M24 10a10.926 10.926 0 014.132-7A16.741 16.741 0 0134 10H24z" id="Fill-3" fill="#FFF"/><path d="M24 12h10.162a16.207 16.207 0 01.686 7.363h-.088a7.072 7.072 0 01-4.987-2.11 12.21 12.21 0 01-.624 1.19 8.345 8.345 0 005.524 2.21A16.248 16.248 0 0133.975 23c-5.586-.383-9.935-5.064-9.975-10.735V12z" id="Fill-5" fill="#FFF"/><path d="M19 23.857c2.893-.136 5.654-1.143 7.833-2.857 1.996 1.61 4.501 2.62 7.167 2.893-2.12 3.894-5.937 6.828-10.55 8.107-2.803-1.955-4.445-4.959-4.45-8.143" id="Fill-7" fill="#FFF"/><path d="M2.618 9C.158 7.71-.725 4.782.645 2.466 2.017.15 5.123-.684 7.584.608A5.038 5.038 0 019 1.708C6.188 3.528 3.978 6.055 2.618 9" id="Fill-9" fill="#FFF"/><path d="M14 10c-.419-2.762-1.903-5.265-4.15-7A16.736 16.736 0 004 10h10z" id="Fill-11" fill="#FFF"/><path d="M12.997 12H2.847a16.185 16.185 0 00-.698 7.354h.087a7.065 7.065 0 004.982-2.107c.185.406.393.804.623 1.187a8.34 8.34 0 01-5.518 2.207A16.2 16.2 0 003.021 23c5.58-.383 9.924-5.058 9.963-10.721.025-.101.013-.178.013-.279" id="Fill-13" fill="#FFF"/><path d="M18 23.86c-2.893-.136-5.654-1.144-7.833-2.86C8.169 22.606 5.664 23.614 3 23.886 5.12 27.783 8.937 30.72 13.55 32c2.803-1.956 4.445-4.964 4.45-8.151v.012z" id="Fill-15" fill="#FFF"/><g id="Group-19" transform="translate(15 27)"><mask id="mask-2" fill="#fff"><use xlink:href="#path-1"/></mask><path d="M3.856.019a13.78 13.78 0 01-3.427 5.6c2.259.508 4.595.508 6.853 0a13.78 13.78 0 01-3.426-5.6" id="Fill-17" fill="#FFF" mask="url(#mask-2)"/></g><path d="M26.95 2.27A15.238 15.238 0 0019.623 0v6.524H18.39V0c-2.6.104-5.14.885-7.39 2.27 4.99 4.54 5.561 12.506 1.275 17.793-.054.067-.11.133-.166.2 3.948 3.65 9.835 3.65 13.782 0-4.39-5.19-3.978-13.166.92-17.817L27 2.27h-.05z" id="Fill-20" fill="#FFF"/><path d="M164.105 15.034h-1.588v-4.772a8.29 8.29 0 011.826-.134c1.852 0 2.973.821 2.973 2.453 0 1.63-1.196 2.453-3.211 2.453zm-1.588 9.678v-6.833h1.196c1.676 0 2.444.59 2.947 2.784a23.07 23.07 0 001.259 4.049H172c-.34-.676-.869-2.945-1.435-4.906a4.348 4.348 0 00-2.343-3.252v-.072c1.857-.644 3.11-2.339 3.148-4.257a4.367 4.367 0 00-1.676-3.68c-1.259-.98-3.121-1.373-5.778-1.373-1.8-.015-3.597.104-5.377.355v17.171l3.978.014zm-6.76 0v-3.226h-7.341v-4.133h6.573v-3.19h-6.573v-3.618h6.976V7.319h-10.993v17.393h11.358zm-20.512.183c2.028-.03 4.04-.361 5.967-.982v-9.137h-6.647v3.066h2.756v3.68a6.31 6.31 0 01-1.963.233c-2.965.163-5.504-2.045-5.672-4.932a4.96 4.96 0 01.018-.82c0-3.79 2.519-5.63 5.931-5.63a9.564 9.564 0 014.13.75l.844-3.177a13.174 13.174 0 00-4.963-.822c-5.853 0-10.174 3.298-10.198 9.087a8.591 8.591 0 002.519 6.354 10.249 10.249 0 007.278 2.33zm-16.484-.183h4.03V7.319h-4.03v17.393zm-7.05 0V10.618h4.885v-3.3h-13.738v3.3h4.822v14.094h4.03zm-22.502 0v-7.483c0-2.893 0-4.98-.163-7.175h.074a50.545 50.545 0 003.313 5.815l5.666 8.83h2.33V7.318h-2.153v7.285c0 2.71 0 4.833.264 7.15h-.076a48.646 48.646 0 00-3.185-5.653l-5.693-8.782h-2.518v17.393h2.141zm-8.524 0h2.33V7.319h-2.33v17.393zm-11.131-1.547c-3.652 0-5.73-3.324-5.73-7.077 0-3.752 1.915-7.248 5.755-7.248s5.691 3.618 5.691 7.101c0 3.95-2.065 7.224-5.716 7.224zm-.139 1.828c4.557 0 8.298-3.2 8.298-9.162 0-5.188-3.148-8.831-8.058-8.831-4.911 0-8.274 3.618-8.274 9.137 0 5.274 3.287 8.856 8.034 8.856zm-14.606 0a11.606 11.606 0 004.722-.822l-.454-1.803a9.463 9.463 0 01-3.777.724c-4.319 0-6.837-2.711-6.837-6.991 0-4.574 2.782-7.174 6.975-7.174a8.37 8.37 0 013.577.722l.579-1.827a9.897 9.897 0 00-4.244-.773c-4.859-.287-9.038 3.315-9.334 8.048a8.26 8.26 0 00.004 1.09c0 5.716 3.764 8.806 8.789 8.806z" id="Fill-22" fill="#FFF"/></g></g></g></svg>