<svg width="37" height="33" xmlns="http://www.w3.org/2000/svg"><g id="Page-1" stroke="none" stroke-width="1" fill="none" fill-rule="evenodd"><g id="Home" transform="translate(-1526 -11019)" fill="#FFF"><g id="Group-5" transform="translate(1526 11019)"><path d="M18.838 8.929c-.975 0-1.766-.8-1.766-1.786s.79-1.786 1.766-1.786c.975 0 1.766.8 1.766 1.786s-.791 1.786-1.766 1.786m-9.42 0c-.974 0-1.765-.8-1.765-1.786s.791-1.786 1.766-1.786 1.766.8 1.766 1.786-.791 1.786-1.766 1.786M14.129 0C6.324 0 0 5.331 0 11.905c0 3.79 2.115 7.152 5.395 9.328L3.532 25l5.075-2.198c1.087.39 2.218.712 3.426.862a10.075 10.075 0 01-.26-2.235c0-6.565 6.337-11.905 14.129-11.905.713 0 1.41.06 2.098.145C26.757 4.164 21.023 0 14.128 0" id="Fill-1"/><path d="M28.95 20.75c-.952 0-1.725-.784-1.725-1.75s.773-1.75 1.725-1.75c.952 0 1.725.784 1.725 1.75s-.773 1.75-1.725 1.75m-6.9 0c-.952 0-1.725-.784-1.725-1.75s.773-1.75 1.725-1.75c.952 0 1.725.784 1.725 1.75s-.773 1.75-1.725 1.75m14.95.583C37 16.18 31.85 12 25.5 12S14 16.179 14 21.333c0 5.155 5.15 9.334 11.5 9.334 1.044 0 2.038-.15 3.002-.362L34.7 33l-2.144-4.347C35.243 26.945 37 24.318 37 21.333" id="Fill-3"/></g></g></g></svg>