<svg width="34" height="30" xmlns="http://www.w3.org/2000/svg" xmlns:xlink="http://www.w3.org/1999/xlink"><defs><path id="path-1" d="M0 0h34v30H0z"/></defs><g id="Page-1" stroke="none" stroke-width="1" fill="none" fill-rule="evenodd"><g id="Home" transform="translate(-1365 -11020)"><g id="Group-3" transform="translate(1365 11020)"><mask id="mask-2" fill="#fff"><use xlink:href="#path-1"/></mask><path d="M22.845 20.39c-1.409 0-2.557-1.14-2.557-2.537 0-1.398 1.148-2.538 2.557-2.538 1.408 0 2.557 1.14 2.557 2.538.057 1.398-1.04 2.575-2.45 2.632h-.126l.019-.095zm.457 4.34a9.852 9.852 0 01-6.307 1.951 9.852 9.852 0 01-6.307-1.952.684.684 0 01.095-.963.693.693 0 01.875 0 8.384 8.384 0 005.311 1.593c1.904.1 3.782-.44 5.336-1.543a.722.722 0 011.01.013.709.709 0 01-.013 1.001v-.1zM8.473 17.764c0-1.398 1.149-2.538 2.557-2.538 1.409 0 2.557 1.14 2.557 2.538s-1.148 2.537-2.557 2.537c-1.415-.012-2.557-1.14-2.557-2.537zM34 15.227c-.076-2.04-1.802-3.634-3.864-3.564a3.755 3.755 0 00-2.443 1.026 18.243 18.243 0 00-9.828-3.117l1.656-7.903 5.463 1.14a2.547 2.547 0 002.81 2.248c1.403-.151 2.418-1.398 2.266-2.79A2.547 2.547 0 0027.25.02a2.528 2.528 0 00-1.93 1.24L19.063.02a.79.79 0 00-.945.598V.63l-1.885 8.79a18.381 18.381 0 00-9.955 3.118 3.742 3.742 0 00-5.267.164 3.675 3.675 0 00.165 5.226c.292.271.629.504 1.003.668a8.168 8.168 0 000 1.114C2.179 25.384 8.84 30 17.059 30c8.216 0 14.878-4.61 14.878-10.29a8.168 8.168 0 000-1.114A3.695 3.695 0 0034 15.226z" id="Fill-1" fill="#FFF" mask="url(#mask-2)"/></g></g></g></svg>