<svg width="40" height="33" xmlns="http://www.w3.org/2000/svg" xmlns:xlink="http://www.w3.org/1999/xlink"><defs><path id="path-1" d="M0 0h40v33H0z"/></defs><g id="Page-1" stroke="none" stroke-width="1" fill="none" fill-rule="evenodd"><g id="Home" transform="translate(-1444 -11018)"><g id="Group-3" transform="translate(1444 11018)"><mask id="mask-2" fill="#fff"><use xlink:href="#path-1"/></mask><path d="M12.537 22.074c.286.003.57.048.84.14 1.165.371 1.521 1.478.805 2.403-.626.924-2.056 1.384-3.132.924-1.07-.46-1.339-1.572-.713-2.4.468-.696 1.341-1.078 2.2-1.067zm3.832-.91a.911.911 0 11-.002 1.824.911.911 0 01.002-1.825zm-1.355-3.689c-2.626.02-5.177 1.462-6.284 3.685-1.366 2.826-.092 5.932 3.182 6.934 3.275 1.094 7.185-.55 8.55-3.56 1.362-2.917-.364-6.02-3.638-6.838a6.962 6.962 0 00-1.81-.222v.001zm.91-1.824c6.786 0 12.286 3.474 12.286 7.762 0 4.285-5.5 7.759-12.287 7.759-6.782 0-12.282-3.474-12.282-7.759 0-4.288 5.5-7.762 12.282-7.762h.001zm.75-10.06c-2.791-.054-7.004 2.158-10.757 5.853C2.184 15.19 0 19.118 0 22.499 0 29.073 8.373 33 16.654 33c10.737 0 17.925-6.208 17.925-11.141 0-3.014-2.548-4.66-4.823-5.39-.544-.183-.907-.272-.635-1.005a6.318 6.318 0 00.444-2.373c0-1.255-.87-2.343-2.608-2.536-.863-.096-4.348-.082-6.661.89 0 0-1.278.551-.913-.454.637-2.008.546-3.655-.456-4.569-.544-.549-1.318-.814-2.252-.831zm12.022-.355c-.37 0-.72.038-1.053.096a.874.874 0 00.299 1.721c.255-.043.506-.071.754-.071a4.343 4.343 0 014.346 4.339 4.39 4.39 0 01-.267 1.514.875.875 0 00.522 1.12.87.87 0 001.115-.523 6.11 6.11 0 00.37-2.087c0-3.364-2.734-6.109-6.086-6.109zm0-5.236c-.676 0-1.328.068-1.957.18a.872.872 0 00-.708 1.011.87.87 0 001.007.712c.55-.1 1.1-.158 1.658-.158 5.292 0 9.565 4.289 9.565 9.6 0 1.149-.21 2.247-.584 3.276a.872.872 0 101.634.596c.438-1.206.689-2.504.689-3.872C40 5.09 34.929 0 28.696 0z" id="Fill-1" fill="#FFF" mask="url(#mask-2)"/></g></g></g></svg>