<svg width="118" height="43" xmlns="http://www.w3.org/2000/svg" xmlns:xlink="http://www.w3.org/1999/xlink"><defs><path id="path-1" d="M.026 0h14.802v15.964H.026z"/><path id="path-3" d="M.029.004H11.99V11H.03z"/><path id="path-5" d="M.003.038h10.975V11H.003z"/><path id="path-7" d="M.029.038h7.968V11H.03z"/></defs><g id="Page-1" stroke="none" stroke-width="1" fill="none" fill-rule="evenodd"><g id="Home" transform="translate(-1110 -1058)"><g id="Group-35" transform="translate(1110 1058)"><path d="M48.248 0l-.004 9.272v.46c.197-.211.356-.393.527-.562 1.059-1.045 2.349-1.537 3.803-1.6 1.36-.058 2.646.203 3.788 1.002 1.238.866 1.938 2.1 2.324 3.543a9.52 9.52 0 01.31 2.451c.007 3.74.003 7.48.003 11.22 0 .068-.008.135-.012.214h-6.242v-.266c0-3.145.006-6.29-.007-9.434a5.554 5.554 0 00-.165-1.349c-.246-.957-.85-1.433-1.828-1.527-.877-.085-1.68.36-2.086 1.161-.233.46-.365.954-.367 1.468-.01 2.999-.01 5.997-.012 8.995v.944h-6.258V.344c0-.115-.015-.23-.022-.344h6.248z" id="Fill-1" fill="#FFF"/><path d="M0 8c.1.005.2.015.3.015 2.131 0 4.262.003 6.393-.006.18 0 .254.056.317.218 1.316 3.408 2.639 6.813 3.96 10.218.027.07.057.14.108.264.149-.375.28-.701.408-1.028 1.226-3.133 2.453-6.266 3.671-9.403.081-.209.183-.27.4-.27 2.046.01 4.092.006 6.138.006H22l-.621 1.522-6.32 15.362c-1.085 2.636-2.17 5.271-3.251 7.909-.054.13-.115.193-.268.193-2.131-.005-4.262-.003-6.393-.004-.052 0-.103-.01-.184-.018l.33-.788c.79-1.882 1.58-3.763 2.363-5.648a.435.435 0 00.004-.302A20451.03 20451.03 0 00.057 8.145C.043 8.11.02 8.08 0 8.047V8z" id="Fill-3" fill="#FFF"/><g id="Group-7" transform="translate(103)"><mask id="mask-2" fill="#fff"><use xlink:href="#path-1"/></mask><path d="M14.828.045c-.26.574-.525 1.144-.778 1.72L8.268 14.948c-.119.271-.246.54-.35.817-.06.154-.148.2-.318.199-1.567-.006-3.134-.004-4.7-.004H.025c.057-.136.101-.243.148-.35L6.95.149c.021-.049.037-.1.056-.149 2.543 0 5.086 0 7.63.002.064 0 .128.028.192.043" id="Fill-5" fill="#FFF" mask="url(#mask-2)"/></g><g id="Group-10" transform="translate(67 32)"><mask id="mask-4" fill="#fff"><use xlink:href="#path-3"/></mask><path d="M8.291 5.512c.042-1.106-.915-2.1-2.039-2.164-1.324-.075-2.362.838-2.424 2.056-.056 1.102.905 2.128 1.973 2.205 1.537.11 2.49-.989 2.49-2.097zM4.81 11c-.269-.045-.541-.075-.806-.138C2.18 10.43 1.008 9.282.416 7.587-.21 5.792-.097 4.012.904 2.365 1.852.804 3.28-.027 5.177.005c1.139.018 2.117.392 2.871 1.253.02.023.049.04.116.097V.313c.117-.01.195-.021.273-.021C9.53.29 10.622.297 11.715.288c.21-.002.276.052.275.265-.007 3.286-.007 6.573 0 9.86 0 .214-.072.266-.278.265a298.41 298.41 0 00-3.278.01c-.195.002-.274-.06-.26-.26.018-.258.005-.516.005-.82-.166.158-.29.285-.425.402a3.805 3.805 0 01-2.205.934c-.07.006-.137.037-.205.056H4.81z" id="Fill-8" fill="#FFF" mask="url(#mask-4)"/></g><g id="Group-13" transform="translate(100 32)"><mask id="mask-6" fill="#fff"><use xlink:href="#path-5"/></mask><path d="M7.282 4.305c.01-.87-.842-1.49-1.944-1.44-.875.04-1.645.735-1.58 1.44h3.524zM5.19 11c-.223-.036-.446-.078-.67-.106C2.23 10.608.523 9.031.12 6.786c-.288-1.606-.074-3.134.901-4.492.885-1.232 2.105-1.963 3.61-2.18 1.258-.183 2.485-.05 3.622.562 1.307.704 2.11 1.802 2.49 3.211a6.52 6.52 0 01.205 2.356c-.016.166-.073.207-.23.206-.968-.006-1.936-.002-2.904-.002H3.911c-.062 0-.124.006-.206.01.006.428.176.774.467 1.053.838.802 2.247.752 3.026-.11.13-.145.224-.163.399-.094.896.353 1.8.69 2.7 1.034.087.034.172.075.276.12a4.816 4.816 0 01-1.75 1.733c-.796.46-1.659.687-2.572.75-.1.006-.2.037-.299.056H5.19z" id="Fill-11" fill="#FFF" mask="url(#mask-6)"/></g><g id="Group-16" transform="translate(92 32)"><mask id="mask-8" fill="#fff"><use xlink:href="#path-7"/></mask><path d="M5.224 11c-.323-.052-.646-.098-.967-.156a5.086 5.086 0 01-4.14-4.245c-.22-1.44-.05-2.82.736-4.08C1.669 1.211 2.867.453 4.357.162c1.176-.23 2.335-.147 3.454.32.123.05.185.114.185.258-.006 1.03-.003 2.06-.004 3.091 0 .023-.009.046-.018.094-.138-.07-.266-.141-.398-.202-.73-.331-1.48-.44-2.26-.2-.982.301-1.542 1.104-1.5 2.037.049 1.08.764 1.842 1.78 2.007a3.172 3.172 0 002.126-.38c.062-.035.124-.067.187-.1.013-.006.03-.006.065-.014.007.06.019.118.019.176.001.975-.004 1.95.004 2.926.002.176-.053.27-.216.337-.553.23-1.121.39-1.72.433-.092.007-.182.036-.273.055h-.564z" id="Fill-14" fill="#FFF" mask="url(#mask-8)"/></g><path d="M33.885 16.518c.005-2.107-1.646-3.74-3.783-3.744-2.156-.003-3.827 1.622-3.835 3.729-.007 2.076 1.663 3.723 3.783 3.728 2.17.005 3.83-1.602 3.835-3.713m-.153-7.447V7.454H40v18.073h-6.245v-1.658c-.06.044-.087.056-.104.076-.87 1.068-2.03 1.663-3.371 1.91-3.592.658-7.042-.95-8.907-4.14-1.108-1.895-1.513-3.945-1.331-6.111.174-2.065.899-3.923 2.245-5.525 1.42-1.691 3.23-2.736 5.454-3.01 1.85-.228 3.587.092 5.11 1.215.31.23.579.515.881.787" id="Fill-17" fill="#FFF"/><path d="M70.487 21.144c1.973.014 3.545-1.554 3.56-3.55.014-2.136-1.47-3.726-3.5-3.746-2.039-.021-3.58 1.535-3.592 3.628-.013 2.074 1.508 3.655 3.532 3.668M61 17.76c.04-3.022.962-5.398 2.976-7.28 1.469-1.373 3.222-2.136 5.194-2.387 1.923-.244 3.786-.014 5.54.836 2.862 1.385 4.587 3.688 5.13 6.864.418 2.44.026 4.756-1.289 6.865-1.31 2.1-3.186 3.438-5.549 4.013-2.862.696-5.586.317-8.052-1.382-2.1-1.447-3.344-3.493-3.786-6.034-.1-.577-.13-1.167-.164-1.495" id="Fill-19" fill="#FFF"/><path d="M90.47 20.156c2.008.025 3.547-1.538 3.572-3.629.024-2.047-1.49-3.64-3.484-3.668-2.001-.027-3.58 1.514-3.606 3.52-.029 2.156 1.457 3.75 3.518 3.777m9.53-3.932c-.062 3.235-1.095 5.708-3.328 7.603-1.309 1.11-2.828 1.767-4.51 2.031-2.083.328-4.101.105-6.001-.847-2.785-1.394-4.469-3.673-4.999-6.783-.457-2.682.042-5.184 1.634-7.405 1.365-1.901 3.22-3.069 5.467-3.561 2.407-.528 4.743-.275 6.928.92 2.477 1.356 3.997 3.474 4.585 6.27.143.677.176 1.378.224 1.772" id="Fill-21" fill="#FFF"/><path d="M81.014 32.284c.101-.004.177-.01.253-.011 1.055 0 2.11.004 3.165-.003.193-.002.255.055.245.239-.015.27-.004.543-.004.884.085-.088.126-.123.158-.165.598-.771 1.398-1.175 2.398-1.222.992-.046 1.897.159 2.637.835.599.546.912 1.239 1.035 2.007.067.421.092.852.094 1.279.01 1.9.003 3.801.003 5.702v.162H90.7c-1.047 0-2.094-.003-3.142.007-.18.002-.238-.035-.238-.218.007-1.679.006-3.358.002-5.037 0-.357-.051-.708-.25-1.021-.255-.401-.652-.555-1.119-.533-.512.025-.908.268-1.087.732-.115.298-.184.63-.187.947a278.073 278.073 0 00-.003 4.837c.002.222-.057.292-.294.29-1.062-.01-2.125-.004-3.187.005-.163.001-.198-.059-.196-.195.006-.333.003-.666.002-.999v-8.298c0-.065.007-.13.012-.224" id="Fill-23" fill="#FFF"/><path d="M60.691 41.982h-.66c-.948.005-1.897.008-2.846.018-.149.002-.186-.057-.183-.185.006-.237 0-.473 0-.71.001-2.859.003-5.718-.002-8.577 0-.184.038-.26.253-.259 1.05.01 2.1.004 3.149.004h.281v1.116c.08-.084.115-.114.142-.15.577-.77 1.369-1.167 2.349-1.228.81-.05 1.583.062 2.276.502.83.527 1.257 1.302 1.441 2.21.073.358.098.731.1 1.098.01 1.98.002 3.96.009 5.94 0 .183-.045.232-.245.23-1.041-.013-2.083-.009-3.125-.005-.312 0-.312.007-.312-.28 0-1.698.002-3.398-.003-5.097a1.99 1.99 0 00-.072-.501c-.16-.599-.615-.933-1.24-.926a1.278 1.278 0 00-1.25 1.025c-.047.222-.06.453-.06.68-.005 1.604-.002 3.207-.002 4.81v.285" id="Fill-25" fill="#FFF"/><path d="M49.979 31.314c-.487-.156-.95-.245-1.442-.18-.998.133-1.361.904-1.286 1.689.005.047.149.118.229.119.683.01 1.367.005 2.05.005h.3v2.915h-.385c-.652 0-1.303.007-1.955-.004-.203-.004-.255.06-.255.247.006 2.195.003 4.389.003 6.583 0 .324.001.313-.338.311-1.077-.006-2.155-.003-3.232-.004h-.258V35.87h-1.382c-.01-.099-.023-.173-.023-.246-.002-.818.003-1.636-.005-2.454-.002-.168.049-.233.231-.226.313.011.628-.005.94.007.196.007.244-.067.244-.242 0-.736.085-1.46.375-2.153.594-1.422 1.724-2.198 3.276-2.463a5.816 5.816 0 012.619.124c.224.064.32.154.315.393-.017.863-.008 1.727-.009 2.591 0 .03-.006.06-.012.113" id="Fill-27" fill="#FFF"/><path d="M102 22.066c.006-2.287 1.811-4.076 4.102-4.066 2.227.01 3.905 1.721 3.898 3.974-.007 2.262-1.818 4.032-4.119 4.026-2.168-.006-3.887-1.747-3.881-3.934" id="Fill-29" fill="#FFF"/><path d="M51.005 37.99c0-1.574.004-3.147-.005-4.72-.001-.212.065-.272.295-.27 1.145.01 2.29.008 3.435 0 .208-.001.27.058.27.247-.006 3.154-.007 6.309 0 9.463 0 .217-.066.289-.31.287a181.88 181.88 0 00-3.385.003c-.248.002-.305-.077-.304-.29.009-1.574.005-3.147.004-4.72" id="Fill-31" fill="#FFF"/><path d="M54.998 30.015c.05.908-.75 1.969-1.962 1.985A1.994 1.994 0 0151 29.997c-.002-1.014.793-2.006 2.022-1.997 1.187.009 2.03 1.028 1.976 2.015" id="Fill-33" fill="#FFF"/></g></g></g></svg>