<svg width="152" height="28" xmlns="http://www.w3.org/2000/svg" xmlns:xlink="http://www.w3.org/1999/xlink"><defs><path id="path-1" d="M0 .21h27.86V28H0z"/><path id="path-3" d="M0 .528h7.625V8.37H0z"/><path id="path-5" d="M.073.201h7.625v7.606H.073z"/><path id="path-7" d="M.183.573h16.383v13.07H.183z"/></defs><g id="Page-1" stroke="none" stroke-width="1" fill="none" fill-rule="evenodd"><g id="Home" transform="translate(-191 -1066)"><g id="Group-37" transform="translate(191 1066)"><g id="Group-3"><mask id="mask-2" fill="#fff"><use xlink:href="#path-1"/></mask><path d="M27.301.21h-5.847a.56.56 0 00-.56.557v19.728a.56.56 0 01-.557.557H.559A.56.56 0 000 21.61v5.832c0 .307.25.558.559.558H27.86V.767a.56.56 0 00-.56-.558" id="Fill-1" fill="#FFF" mask="url(#mask-2)"/></g><g id="Group-6" transform="translate(0 10)"><mask id="mask-4" fill="#fff"><use xlink:href="#path-3"/></mask><path d="M.611 8.371h6.402a.623.623 0 00.612-.63V1.158a.623.623 0 00-.612-.63H.61a.622.622 0 00-.611.63v6.585c0 .346.275.63.611.63" id="Fill-4" fill="#FFF" mask="url(#mask-4)"/></g><g id="Group-9" transform="translate(10)"><mask id="mask-6" fill="#fff"><use xlink:href="#path-5"/></mask><path d="M.685 7.807h6.401a.613.613 0 00.612-.61V.812a.613.613 0 00-.612-.61H.685a.613.613 0 00-.612.61v6.387c0 .335.276.609.612.609" id="Fill-7" fill="#FFF" mask="url(#mask-6)"/></g><path d="M114.688 7.65a.644.644 0 00-.56.394l-5.84 15.75c-.08.217-.252.238-.383.049l-3.754-5.46a1.587 1.587 0 01-.238-.766V7.421a.418.418 0 00-.412-.421h-1.99a.418.418 0 00-.411.42v10.27c0 .23-.108.575-.24.764l-4.786 6.921a.408.408 0 00.107.574l1.475.981a.43.43 0 00.585-.112l4.044-5.763c.132-.188.348-.188.48.001l3.711 5.305c.132.188.35.342.486.342h3.081c.095 0 .237-.177.315-.394l6.618-18.264c.079-.218-.042-.395-.27-.395h-2.018z" id="Fill-10" fill="#FFF"/><path d="M48.384 2c-.225 0-.54.132-.702.294l-8.561 8.585a.417.417 0 000 .587l1.416 1.413a.417.417 0 00.587 0l7.868-7.801a1.15 1.15 0 01.703-.292h4.61c.225 0 .541.13.703.292l7.868 7.801a.417.417 0 00.587 0l1.416-1.413a.418.418 0 00.001-.587l-8.562-8.585A1.144 1.144 0 0055.617 2h-7.233z" id="Fill-12" fill="#FFF"/><path d="M53.477 18.397a.42.42 0 01.424-.41h9.136a.418.418 0 00.425-.408v-1.854a.419.419 0 00-.425-.41h-9.136a.418.418 0 01-.424-.409v-2.798c0-.225.192-.408.424-.408h5.497a.418.418 0 00.424-.41V9.408A.417.417 0 0059.398 9H44.6a.417.417 0 00-.424.409v1.88c0 .226.191.41.424.41h5.527a.42.42 0 01.425.41v2.797a.42.42 0 01-.425.41H40.96a.418.418 0 00-.423.409v1.854c0 .225.19.409.423.409h9.166a.42.42 0 01.425.41v4.494a.42.42 0 01-.425.41h-9.701a.418.418 0 00-.425.409v1.88c0 .225.191.409.425.409h23.15a.418.418 0 00.425-.409v-1.88a.418.418 0 00-.425-.41h-9.674a.418.418 0 01-.424-.41v-4.494z" id="Fill-14" fill="#FFF"/><path d="M99.004 5.09a.43.43 0 01.441-.417h6.11c.241 0 .44.188.44.418v14.492c0 .23.2.417.44.417h2.124a.43.43 0 00.441-.417V2.418a.431.431 0 00-.44-.418H96.441a.432.432 0 00-.442.418v17.165c0 .23.199.417.442.417h2.121a.43.43 0 00.441-.417V5.09z" id="Fill-16" fill="#FFF"/><path d="M119.95 2.415a.418.418 0 00-.42-.415h-2.017a.418.418 0 00-.419.415V3.45a.418.418 0 01-.42.415h-6.256a.418.418 0 00-.419.415v1.872c0 .228.188.415.419.415h6.257c.23 0 .42.187.42.415V23.91a.418.418 0 01-.42.416h-2.042c-.23 0-.42.186-.42.415v1.845c0 .229.19.415.42.415h4.897c.23 0 .419-.186.419-.415V6.98c0-.228.188-.415.42-.415h1.211a.42.42 0 00.419-.415V4.28a.419.419 0 00-.419-.415h-1.212a.418.418 0 01-.42-.415V2.415z" id="Fill-18" fill="#FFF"/><path d="M136 17.252c0 .225.177.409.393.409h5.35c.216 0 .393.185.393.409v4.887a.403.403 0 01-.393.409h-5.35a.402.402 0 00-.393.409v1.816c0 .226.177.409.393.409h14.214a.402.402 0 00.393-.409v-1.816a.402.402 0 00-.393-.41h-5.403a.403.403 0 01-.393-.408V18.07c0-.224.177-.41.393-.41h5.403a.402.402 0 00.393-.408v-1.844a.402.402 0 00-.393-.408h-14.214a.402.402 0 00-.393.408v1.844z" id="Fill-20" fill="#FFF"/><g id="Group-24" transform="translate(135 1)"><mask id="mask-8" fill="#fff"><use xlink:href="#path-7"/></mask><path d="M10.89 7.048c-.176-.14-.176-.369.001-.509l3.811-3.004a.974.974 0 00.322-.677V.995a.414.414 0 00-.402-.422H1.21a.415.415 0 00-.404.422v1.864c0 .234.183.423.404.423h8.926c.222 0 .372.045.335.1-.037.054-.213.212-.391.352L.342 11.378a.421.421 0 00-.073.584l1.147 1.516a.404.404 0 00.572.077l6.05-4.768a.548.548 0 01.645 0l6.023 4.768c.176.14.438.108.58-.07l1.19-1.488a.412.412 0 00-.063-.578L10.89 7.048z" id="Fill-22" fill="#FFF" mask="url(#mask-8)"/></g><path d="M92 23.711a.417.417 0 00-.418-.413H72.28a.417.417 0 01-.417-.414v-3.568c0-.229.188-.415.417-.415h18.865c.23 0 .417-.186.417-.414V8.12a.417.417 0 00-.417-.414h-2.583c-.23 0-.375-.182-.321-.403l1.105-4.596c.053-.221-.091-.403-.321-.403H73.143a.347.347 0 01-.356-.41l.074-.483a.348.348 0 00-.356-.41h-2a.52.52 0 00-.493.407l-.575 3.144a.335.335 0 00.343.408h15.656c.23 0 .379.182.33.404L85.35 7.3a.539.539 0 01-.505.406H69.417A.416.416 0 0069 8.12v17.467c0 .228.188.414.417.414h22.165c.23 0 .418-.186.418-.414V23.71zM81.398 10.795c0-.228.188-.414.419-.414h6.492c.229 0 .417.186.417.414v4.989a.417.417 0 01-.417.414h-6.492a.417.417 0 01-.419-.414v-4.989zm-9.535 0c0-.228.188-.414.417-.414h5.865c.231 0 .419.186.419.414v4.989a.417.417 0 01-.419.414H72.28a.417.417 0 01-.417-.414v-4.989z" id="Fill-25" fill="#FFF"/><path d="M125.424 23c-.234 0-.424.209-.424.465v2.069c0 .256.19.466.424.466h7.153c.233 0 .423-.21.423-.466v-2.07c0-.255-.19-.464-.423-.464h-7.153z" id="Fill-27" fill="#FFF"/><path d="M46 22.551a.45.45 0 01-.45.449h-2.1a.45.45 0 01-.449-.449V20.45a.45.45 0 01.449-.449h2.102a.45.45 0 01.449.449v2.102z" id="Fill-29" fill="#FFF"/><path d="M60 22.551a.45.45 0 01-.45.449h-2.1a.45.45 0 01-.45-.449V20.45a.45.45 0 01.45-.449h2.1a.45.45 0 01.45.449v2.102z" id="Fill-31" fill="#FFF"/><path d="M130.12 18.332c-.22 0-.34-.176-.266-.392l2.214-6.55c.072-.216-.047-.39-.266-.39l-2.16.005a.603.603 0 00-.527.393l-3.094 9.21c-.072.216.047.392.266.392h6.316a.408.408 0 00.397-.414v-1.84a.407.407 0 00-.397-.414h-2.484z" id="Fill-33" fill="#FFF"/><path d="M129.31 9.34c.075-.207.2-.544.28-.75l2.385-6.216c.078-.206-.033-.374-.248-.374h-2.202a.607.607 0 00-.526.377l-2.976 8.247c-.075.207.04.376.256.376h2.045c.215 0 .452-.17.526-.376l.46-1.284z" id="Fill-35" fill="#FFF"/></g></g></g></svg>