<svg width="180" height="28" xmlns="http://www.w3.org/2000/svg" xmlns:xlink="http://www.w3.org/1999/xlink"><defs><path id="path-1" d="M0 .372h28.29v27.62H0z"/><path id="path-3" d="M0 28.64h179.998V1H0z"/></defs><g id="Page-1" stroke="none" stroke-width="1" fill="none" fill-rule="evenodd"><g id="Home" transform="translate(-1718 -1008)"><g id="Group-12" transform="translate(1718 1007)"><g id="Group-3" transform="translate(0 .64)"><mask id="mask-2" fill="#fff"><use xlink:href="#path-1"/></mask><path d="M21.59 14.182a7.23 7.23 0 00-7.42-7.67 7.26 7.26 0 00-7.42 7.67 7.26 7.26 0 007.42 7.67 7.23 7.23 0 007.42-7.67m-21.59 0C0 4.972 6.6.372 12.79.372c4.76 0 7.83 2.61 8.49 4.09h.16V.882h6.85v26.6h-6.85v-3.58h-.16c-.66 1.48-3.73 4.09-8.49 4.09-6.19 0-12.79-4.6-12.79-13.81" id="Fill-1" fill="#FFF" mask="url(#mask-2)"/></g><path d="M31 21.163l5.47-1.48a4.46 4.46 0 004.4 3.53c1.74 0 3.43-.87 3.43-2.76 0-1.28-.82-2.2-2.92-3l-3.27-1.23c-4.4-1.58-6.24-4.4-6.24-7.62-.05-4.73 4.13-7.59 9.13-7.59 4.81 0 8.34 2.71 9.21 6.8l-5.35 1.38a3.54 3.54 0 00-3.53-2.81c-1.79 0-2.86 1-2.86 2.3 0 1.13.66 2.1 2.76 2.81l3 1.13c3.27 1.18 6.85 3.12 6.85 7.83 0 5.32-4.55 8.18-10.12 8.18-5.3 0-9.19-2.55-9.96-7.47" id="Fill-4" fill="#FFF"/><mask id="mask-4" fill="#fff"><use xlink:href="#path-3"/></mask><path id="Fill-6" fill="#FFF" mask="url(#mask-4)" d="M53.92 28.123h6.86v-26.6h-6.86z"/><path d="M85.28 14.823a7.42 7.42 0 10-14.84-.01v.01a7.42 7.42 0 1014.84.01v-.01zm-21.59 0c0-9.21 6.6-13.81 12.79-13.81 4.76 0 7.83 2.61 8.52 4.09h.15v-3.58H92v26.6h-6.88v-3.58H85c-.66 1.48-3.73 4.09-8.49 4.09-6.22 0-12.82-4.6-12.82-13.81z" id="Fill-8" fill="#FFF" mask="url(#mask-4)"/><path d="M108.71 1.013c7.627 0 13.81 6.183 13.81 13.81 0 7.627-6.183 13.81-13.81 13.81-7.627 0-13.81-6.183-13.81-13.81 0-7.627 6.183-13.81 13.81-13.81" id="Fill-9" fill="#FFF" mask="url(#mask-4)"/><path d="M150.5 12.473v15.65h-6.85v-14.53c0-3.89-2.1-6.44-5.68-6.44-3.58 0-5.68 2.55-5.68 6.44v14.53h-6.86v-26.6h6.86v3.63a9.12 9.12 0 018.13-4.14c5.48 0 10.08 3.37 10.08 11.46" id="Fill-10" fill="#FFF" mask="url(#mask-4)"/><path d="M159.81 12.483h13.92c-.41-3.8-3.59-5.66-6.81-5.66a7 7 0 00-7.11 5.65v.01zm20 5h-19.9c1 3.63 4.15 5.53 8.14 5.53a10.007 10.007 0 006.85-2.41l3.1 3.33a13.554 13.554 0 01-10.74 4.699c-7.32 0-13.86-5-13.86-13.81s6.67-13.81 13.47-13.81c6.8 0 14.43 4.75 12.94 16.47z" id="Fill-11" fill="#FFF" mask="url(#mask-4)"/></g></g></g></svg>