<svg width="140" height="28" xmlns="http://www.w3.org/2000/svg" xmlns:xlink="http://www.w3.org/1999/xlink"><defs><path id="path-1" d="M.593.534h14.775v13.028H.593z"/></defs><g id="Page-1" stroke="none" stroke-width="1" fill="none" fill-rule="evenodd"><g id="Home" transform="translate(-51 -1020)"><g id="Group-6" transform="translate(51 1019)"><path d="M120.99 20.548c0 .16-.438.516-.597.675-.417.417-1.149.834-1.745.834-1.33 0-2.143-.675-2.143-2.044 0-1.985 2.221-2.203 3.71-2.5l.754-.16v3.194h.021v.001zm1.746-4.663c0-2.46-1.25-3.671-3.533-3.671-1.29 0-2.46.476-3.512 1.21v1.23h.237c.16-.476 1.013-1.507 2.601-1.507 1.647 0 2.56.932 2.56 2.56 0 1.051-.596 1.17-2.323 1.468-2.063.337-4.048.655-4.048 3.155 0 1.607 1.351 2.66 2.898 2.66 1.31 0 2.322-.457 3.234-1.37l.2-.199c.177 1.29 1.11 1.469 2.241 1.27.24-.039.496-.158.655-.218v-.476c-1.29.278-1.23-.159-1.23-1.012v-5.1h.02zm-18.396 6.906c.278-.02.576-.06.873-.06.278 0 .555.04.874.06v-5.934c0-2.282.893-3.492 2.857-3.492 1.864 0 2.421 1.21 2.421 3.631v5.795c.277-.02.576-.06.873-.06.277 0 .556.04.873.06v-6.31c0-2.759-.992-4.267-3.513-4.267-1.547 0-2.757.794-3.51 2.123V6.379c-.339.02-.597.06-.875.06-.297 0-.595-.04-.873-.06v16.412zm-9.98-1.925h.04c.713 1.35 1.783 2.103 3.352 2.103 2.798 0 4.722-2.163 4.722-5.734 0-2.62-1.567-5-4.385-5-2.639 0-3.314 1.586-3.69 2.34h-.04v-2.202c-.339.02-.597.06-.873.06-.299 0-.597-.04-.874-.06v16.034c.277-.02.575-.06.874-.06.276 0 .534.04.873.06v-7.541zm0-3.016c0-2.025.653-4.902 3.193-4.902 2.362 0 3.017 2.204 3.017 4.346 0 2.54-.794 4.743-2.997 4.743-2.242.02-3.214-1.846-3.214-4.187zM89 22.791c.278-.02.575-.06.873-.06.278 0 .555.04.873.06V6.379c-.337.02-.595.06-.873.06-.298 0-.595-.04-.873-.06v16.412zm-6.549-6.827H77.65l2.381-5.596 2.421 5.596zm-1.627-8.453h-.496l-6.826 15.28c.238-.02.476-.06.773-.06.258 0 .497.04.814.06.615-2.044 1.39-3.97 2.163-5.894h5.555c.874 1.984 1.667 4.088 2.303 5.894.377-.02.734-.06 1.15-.06.377 0 .715.04 1.131.06L80.826 7.51v.001zm-21.49 8.156c0-1.667.892-2.858 2.46-2.858 1.726 0 2.341 1.29 2.341 2.977 0 1.488-.833 2.857-2.42 2.857-1.588 0-2.442-1.428-2.382-2.976zm7.361-3.394c-.516.08-1.052.12-1.568.04l-3.036-.119c-3.195-.12-4.405 1.35-4.405 3.473 0 1.607.813 2.52 2.123 3.115-.853.377-1.509.834-1.509 1.885 0 1.33.696 1.667 1.331 1.767v.178c-1.35.238-2.263 1.072-2.263 2.64 0 2.301 2.163 3.214 3.95 3.214 3.333 0 5.556-1.746 5.556-4.306 0-1.865-1.21-2.897-3.77-2.897h-1.39c-1.31 0-2.103-.14-2.103-1.052 0-1.27 1.31-1.052 1.567-1.052 2.54 0 4.643-1.012 4.643-3.393 0-1.23-.614-2.183-1.507-2.877l2.4.198v-.814h-.019zm-4.624 10.339c1.646 0 3.215.159 3.215 2.421 0 2.044-1.885 2.798-3.453 2.798-1.806 0-3.135-.873-3.135-2.64-.02-1.765 1.091-2.599 3.373-2.579zm-14.883.179c.278-.02.576-.06.873-.06.278 0 .556.04.874.06v-5.06c0-2.68.575-4.366 2.857-4.366 2.044 0 2.421 1.587 2.421 3.631v5.795c.278-.02.576-.06.873-.06.278 0 .556.04.873.06v-6.31c0-2.878-.972-4.267-3.513-4.267-1.547 0-2.757.794-3.51 2.123v-1.984c-.319.02-.597.06-.875.06-.297 0-.595-.04-.873-.06v10.438zM45.562 8.603c0-.616-.516-1.112-1.11-1.112A1.11 1.11 0 0043.34 8.6v.002a1.11 1.11 0 001.11 1.111c.576.02 1.112-.496 1.112-1.11zm-.238 3.75c-.337.02-.595.06-.873.06-.298 0-.595-.04-.873-.06v10.438c.278-.02.575-.06.873-.06.278 0 .555.04.873.06V12.352v.001zM34.826 6.38c-.337.02-.595.06-.873.06-.297 0-.595-.04-.873-.06v16.41c.278-.02.576-.059.873-.059.278 0 .536.04.873.06v-4.465c0-.933.298-1.012.794-.457 1.39 1.588 3.116 3.533 4.167 4.922.358-.02.695-.06 1.092-.06.357 0 .655.04 1.071.06v-.12c-1.726-1.964-3.552-4.147-5.14-5.972 2.005-1.905 3.93-3.433 4.803-4.207v-.16c-.337.02-.595.06-.853.06-.298 0-.595-.04-.873-.06l-1.707 1.886-1.35 1.37c-.277.277-1.448 1.527-1.904 1.29-.199-.12-.1-.437-.1-.715V6.379v.001zM23.753 16.697c.14-1.825 1.032-3.81 3.076-3.81 2.163 0 2.68 1.906 2.74 3.81h-5.816zm7.005 3.85c-.595.576-1.746 1.509-3.234 1.509-2.64 0-3.969-2.104-3.77-4.545h3.075c1.47 0 2.957.02 4.426.06.218-3.652-2.005-5.358-4.426-5.358-3.254 0-5 2.341-5 5.378 0 3.394 2.143 5.377 5.16 5.377 1.33 0 2.678-.516 3.75-1.29l.02-1.13v-.001zm-18.137-3.85c.14-1.825 1.032-3.81 3.076-3.81 2.163 0 2.68 1.906 2.738 3.81h-5.814zm7.005 3.85c-.595.576-1.746 1.509-3.235 1.509-2.639 0-3.969-2.104-3.77-4.545h3.076c1.468 0 2.957.02 4.425.06.218-3.652-2.004-5.358-4.425-5.358-3.255 0-5 2.341-5 5.378 0 3.394 2.142 5.377 5.16 5.377 1.33 0 2.677-.516 3.75-1.29l.02-1.13v-.001zm-19.21-.714c-.079.655-.198 1.31-.416 1.945.734.813 2.48 1.27 3.551 1.27 2.978 0 5.4-1.866 5.4-4.981 0-4.664-6.887-3.036-6.887-7.065 0-1.547 1.25-2.56 2.758-2.56 1.29 0 2.243.715 2.7 1.905h.217c.18-.615.338-1.23.596-1.785C7.541 7.847 6.271 7.51 5.24 7.51 2.62 7.51.396 8.879.396 11.697c0 4.941 6.846 3.155 6.846 7.203 0 1.727-1.27 3.195-3.036 3.195-1.707 0-2.679-.873-3.532-2.262H.416z" id="Fill-1" fill="#FFF"/><g id="Group-5" transform="translate(124 .466)"><mask id="mask-2" fill="#fff"><use xlink:href="#path-1"/></mask><path d="M.6 7.044C1.019.674 6.02.534 6.02.534c3.632.02 4.663 3.89 4.663 3.89.06.22 2.163-3.61 2.163-3.61h1.19c-2.44 5.257-2.34 7.4-2.34 7.4-.2 2.838 1.388 3.81 1.388 3.81 1.489.954 1.588-1.825 1.588-1.825.337-.12.535-.238.535-.238.794 3.85-1.586 3.592-1.586 3.592-1.846.198-2.641-2.818-2.641-2.818-2.618 3.454-5.635 2.699-5.635 2.699C.184 12.799.6 7.044.6 7.044m2.163 0c0 2.977 1.488 5.437 3.474 5.378C9.015 12.342 9.83 10 9.83 7.024S8.22 1.607 6.238 1.626c-2.442.02-3.474 2.44-3.474 5.418" id="Fill-3" fill="#FFF" mask="url(#mask-2)"/></g></g></g></g></svg>