<svg width="58" height="56" xmlns="http://www.w3.org/2000/svg" xmlns:xlink="http://www.w3.org/1999/xlink"><defs><path id="path-1" d="M0 56h58V0H0z"/></defs><g id="Page-1" stroke="none" stroke-width="1" fill="none" fill-rule="evenodd"><g id="Home" transform="translate(-986 -5400)"><g id="Group-18" transform="translate(986 5400)"><path id="Stroke-1" stroke="#FF0010" stroke-width="2" d="M6.17 7.467H1.234"/><mask id="mask-2" fill="#fff"><use xlink:href="#path-1"/></mask><path id="Stroke-3" stroke="#FF0010" stroke-width="2" mask="url(#mask-2)" d="M30.851 47.289h25.915v-33.6H30.851z"/><path id="Stroke-5" stroke="#FF0010" stroke-width="2" mask="url(#mask-2)" d="M30.851 24.889h25.915"/><path id="Stroke-6" stroke="#FF0010" stroke-width="2" mask="url(#mask-2)" d="M30.851 32.356h25.915"/><path id="Stroke-8" stroke="#FF0010" stroke-width="2" mask="url(#mask-2)" d="M31 39.5h17"/><path id="Stroke-9" stroke="#FF0010" stroke-width="2" mask="url(#mask-2)" d="M39.5 47V25"/><path id="Stroke-10" stroke="#FF0010" stroke-width="2" mask="url(#mask-2)" d="M47.5 47V25"/><path d="M5.952 44.953V2.256C5.952 1.56 5.398 1 4.714 1H2.238C1.555 1 1 1.561 1 2.256v42.697l2.476 5.024 2.476-5.024z" id="Stroke-11" stroke="#FF0010" stroke-width="2" mask="url(#mask-2)"/><path d="M53 9.79V3.513C53 2.125 51.89 1 50.524 1H22.048l-9.905 10.047v41.441c0 1.387 1.11 2.512 2.476 2.512h35.905C51.89 55 53 53.875 53 52.488v-1.255" id="Stroke-13" stroke="#FF0010" stroke-width="2" mask="url(#mask-2)"/><path id="Stroke-15" stroke="#FF0010" stroke-width="2" mask="url(#mask-2)" d="M15.857 12.302h7.429V4.767"/></g></g></g></svg>