<svg width="255" height="25" xmlns="http://www.w3.org/2000/svg" xmlns:xlink="http://www.w3.org/1999/xlink"><defs><path id="path-1" d="M0 .233h36.896V17H0z"/><path id="path-3" d="M.184.306H10.68V9.75H.184z"/></defs><g id="Page-1" stroke="none" stroke-width="1" fill="none" fill-rule="evenodd"><g id="Home" transform="translate(-406 -1067)"><g id="Group-35" transform="translate(406 1067)"><path d="M0 0h37L22.377 17S26.214 5.152 0 0" id="Fill-1" fill="#FFF"/><g id="Group-5" transform="translate(0 8)"><mask id="mask-2" fill="#fff"><use xlink:href="#path-1"/></mask><path d="M36.896 17H0L14.585.233S10.755 11.919 36.895 17" id="Fill-3" fill="#FFF" mask="url(#mask-2)"/></g><path id="Fill-6" fill="#FFF" d="M41 19V5h3.823l7.198 12.479L59.148 5H63v14h-2.313V6.305L53.434 19h-2.88L43.312 6.305V19z"/><path d="M75.901 16.39v-1.03c0-.46-.341-.798-1.023-1.016-.683-.217-1.768-.326-3.256-.326-1.367 0-2.28.119-2.737.356-.457.237-.687.691-.69 1.362 0 .764.245 1.276.73 1.531.486.255 1.46.382 2.922.382a10.59 10.59 0 003.012-.327c.697-.215 1.044-.526 1.042-.933zm.108 1.45a2.742 2.742 0 01-1.546.881c-.956.21-1.933.301-2.91.274-2.2 0-3.677-.217-4.427-.653-.748-.434-1.122-1.24-1.122-2.426a4.034 4.034 0 01.26-1.606c.184-.402.486-.73.862-.934a4.008 4.008 0 011.506-.422c.94-.097 1.884-.138 2.829-.124.978-.024 1.957.049 2.922.216a3 3 0 011.518.725v-1.682c0-.792-.223-1.307-.668-1.544-.445-.238-1.564-.354-3.358-.35-1.301 0-2.164.092-2.597.281-.412.167-.68.591-.668 1.058h-2.075v-.222c-.02-.8.453-1.52 1.17-1.78.778-.352 2.123-.53 4.034-.532 1.487 0 2.622.046 3.401.13a5.39 5.39 0 011.729.415c.36.177.664.463.869.823a3.97 3.97 0 01.253 1.685v6.812h-1.898l-.084-1.026z" id="Fill-8" fill="#FFF"/><path d="M82 19V9.137h2v1.35c.32-.536.804-.934 1.37-1.125a7.06 7.06 0 012.476-.358c1.539 0 2.616.256 3.23.768.616.52.924 1.44.924 2.756v.073h-2.092v-.288c0-.787-.176-1.323-.533-1.588-.357-.265-1.024-.407-2.009-.407-1.153 0-1.988.23-2.504.688-.517.459-.775 1.21-.773 2.253V19H82z" id="Fill-10" fill="#FFF"/><path id="Fill-12" fill="#FFF" d="M95 19V5h2.122v7.972h.658l4.706-3.857h2.436l-5.437 4.395L106 19h-2.72l-5.5-4.7h-.658V19z"/><path d="M108.294 13.05h8.438v-.38c0-.911-.25-1.53-.75-1.857-.5-.327-1.49-.49-2.975-.49h-1.03c-1.473 0-2.455.163-2.946.49-.491.326-.737.946-.737 1.858v.379zm3.709 5.947c-2.23 0-3.784-.284-4.674-.85-.89-.564-1.329-1.564-1.329-2.988v-2.312c0-1.43.436-2.429 1.31-2.995.872-.566 2.423-.85 4.653-.852h1.031c2.23 0 3.788.284 4.674.852.886.569 1.33 1.567 1.332 2.995v1.483h-10.719c0 .098-.016.209-.023.326-.006.118 0 .288 0 .503 0 1.006.246 1.68.737 2.022.49.327 1.482.513 2.975.513H113c1.334 0 2.26-.125 2.78-.376.513-.243.857-.74.903-1.306h2.29a2.73 2.73 0 01-1.557 2.286c-.923.466-2.386.7-4.39.702l-1.023-.003z" id="Fill-14" fill="#FFF"/><path d="M120 10.406V9.181h1.863V7h2.266v2.18h7.454v1.226h-7.454v5.337c0 .76.197 1.278.584 1.55.387.274 1.135.41 2.233.41 1.099 0 1.823-.133 2.203-.396.38-.264.571-.787.571-1.564v-.286H132v.081c0 1.362-.354 2.276-1.061 2.753-.708.478-2.18.709-4.413.709-1.743 0-2.953-.25-3.632-.75-.668-.501-1.018-1.402-1.018-2.712v-5.132H120z" id="Fill-16" fill="#FFF"/><path d="M135.002 14.358h2.256v.272a4.43 4.43 0 00.27 1.79c.185.378.508.664.897.795.49.153.996.241 1.506.262.678.052 2.076.078 4.195.078a17.73 17.73 0 002.673-.152c.5-.051.983-.218 1.412-.488.196-.153.333-.371.39-.617.092-.39.133-.79.121-1.19 0-1.01-.151-1.646-.454-1.907-.304-.26-.903-.414-1.798-.462l-6.231-.323c-1.864-.097-3.153-.41-3.869-.94-.715-.534-1.073-1.426-1.073-2.683a4.4 4.4 0 01.345-1.92 2.899 2.899 0 011.14-1.2 4.677 4.677 0 011.71-.516 33.587 33.587 0 013.884-.15h.718a32.536 32.536 0 014.392.201 6.204 6.204 0 012.112.695c.378.208.68.537.86.937.2.479.295.996.279 1.516v.408c0 .084 0 .177-.022.252h-2.253v-.34a3.95 3.95 0 00-.128-1.147 1.083 1.083 0 00-.415-.592 3.573 3.573 0 00-1.515-.387c-.718-.078-2.077-.116-4.079-.114-2.079 0-3.386.159-3.922.476-.535.316-.804.95-.806 1.9 0 .779.173 1.319.52 1.616.35.297 1.023.472 2.018.527l6.353.359c1.674.097 2.841.406 3.502.927.672.52 1.004 1.393 1.004 2.612.03.68-.057 1.361-.257 2.01a2.52 2.52 0 01-.857 1.122 4.571 4.571 0 01-1.973.782 30.238 30.238 0 01-4.527.223h-1.004a28.097 28.097 0 01-3.957-.19 5.352 5.352 0 01-1.936-.67 2.696 2.696 0 01-1.12-1.19 4.427 4.427 0 01-.36-1.903v-.679z" id="Fill-18" fill="#FFF"/><path d="M159.998 19c-2.226 0-3.783-.283-4.667-.85-.885-.566-1.329-1.562-1.331-2.989v-2.313c0-1.43.441-2.43 1.324-2.995.882-.566 2.43-.85 4.642-.853h1.033c2.103 0 3.618.264 4.547.79.928.528 1.412 1.394 1.45 2.598h-2.287c-.046-.79-.32-1.335-.82-1.634-.501-.294-1.465-.444-2.9-.444h-1.023c-1.517 0-2.51.167-2.975.5-.464.333-.703 1.117-.703 2.349v1.666c0 1.24.237 2.025.71 2.359.473.333 1.462.504 2.968.513h1.033c1.45 0 2.431-.163 2.942-.487.51-.325.767-.915.77-1.77v-.168H167v.187c0 1.267-.46 2.174-1.38 2.721-.919.547-2.444.82-4.576.82h-1.046z" id="Fill-20" fill="#FFF"/><path d="M170 19V9.136h2.016v1.35c.32-.536.806-.934 1.372-1.125a7.086 7.086 0 012.466-.357c1.53 0 2.603.259 3.221.777.617.52.925 1.44.925 2.757v.073h-2.096v-.288c0-.788-.176-1.324-.533-1.589-.358-.264-1.027-.407-2.013-.407-1.155 0-1.99.23-2.506.689-.518.456-.774 1.207-.774 2.253V19H170z" id="Fill-22" fill="#FFF"/><path d="M184.294 13.05h8.441v-.38c0-.911-.25-1.53-.75-1.857-.499-.327-1.49-.49-2.974-.49h-1.035c-1.472 0-2.454.163-2.945.49-.491.326-.737.946-.737 1.858v.379zm3.712 5.947c-2.228 0-3.786-.283-4.674-.85-.888-.565-1.332-1.561-1.332-2.988v-2.312c0-1.43.436-2.429 1.31-2.995.872-.566 2.422-.85 4.65-.852h1.034c2.228 0 3.786.284 4.674.852.888.569 1.332 1.567 1.332 2.995v1.483h-10.722c0 .098-.016.209-.02.326-.003.118 0 .288 0 .503 0 1.006.246 1.68.737 2.022.491.327 1.482.513 2.972.513H189c1.333 0 2.258-.125 2.775-.376.515-.242.861-.74.907-1.306h2.29a2.73 2.73 0 01-1.557 2.286c-.927.466-2.39.7-4.39.702l-1.02-.003z" id="Fill-24" fill="#FFF"/><path d="M199.3 13.05h8.442v-.38c0-.911-.251-1.53-.753-1.857-.5-.327-1.49-.49-2.972-.49h-1.034c-1.473 0-2.455.163-2.946.49-.49.326-.736.946-.736 1.858v.379zm3.703 5.947c-2.226 0-3.783-.283-4.67-.85-.89-.565-1.333-1.561-1.333-2.988v-2.312c0-1.43.436-2.429 1.31-2.995.872-.566 2.423-.85 4.653-.852h1.035c2.225 0 3.783.284 4.673.852.89.569 1.334 1.567 1.329 2.995v1.483h-10.72c0 .098-.015.209-.022.326-.006.118 0 .288 0 .503 0 1.006.246 1.68.736 2.022.491.327 1.483.513 2.976.513h1.034c1.329 0 2.254-.125 2.776-.376.514-.243.86-.74.906-1.306h2.291a2.743 2.743 0 01-1.558 2.286c-.927.466-2.391.7-4.392.702l-1.024-.003z" id="Fill-26" fill="#FFF"/><path d="M213 19V9.136h2.062v1.35a3.088 3.088 0 011.692-1.121c1.004-.268 2.04-.39 3.077-.36 1.921 0 3.26.26 4.016.783.756.523 1.14 1.44 1.153 2.75V19h-2.162v-6.154c0-1.028-.224-1.705-.673-2.032-.448-.327-1.319-.489-2.613-.486-1.524 0-2.64.235-3.346.704-.705.474-1.06 1.218-1.06 2.237V19H213z" id="Fill-28" fill="#FFF"/><path d="M230.294 13.05h8.441v-.38c0-.911-.25-1.53-.75-1.857-.499-.327-1.49-.49-2.974-.49h-1.035c-1.472 0-2.454.163-2.945.49-.491.326-.737.946-.737 1.858v.379zm3.712 5.947c-2.23 0-3.788-.283-4.674-.85-.886-.565-1.33-1.561-1.332-2.988v-2.312c0-1.43.436-2.429 1.31-2.995.872-.566 2.422-.85 4.65-.852h1.034c2.23 0 3.788.284 4.674.852.886.569 1.33 1.567 1.332 2.995v1.483h-10.722c0 .098 0 .209-.02.326-.02.118 0 .288 0 .503 0 1.006.246 1.68.737 2.022.49.327 1.482.513 2.972.513H235c1.333 0 2.258-.125 2.775-.376.515-.242.861-.74.907-1.306h2.29a2.73 2.73 0 01-1.557 2.286c-.925.466-2.388.7-4.39.702l-1.02-.003z" id="Fill-30" fill="#FFF"/><g id="Group-34" transform="translate(244 9)"><mask id="mask-4" fill="#fff"><use xlink:href="#path-3"/></mask><path d="M.184 9.75V.434H2.3V1.71A2.66 2.66 0 013.74.647 8.222 8.222 0 016.328.309c1.605 0 2.732.245 3.381.735.65.49.973 1.357.97 2.603v.069H8.484v-.272c0-.744-.188-1.244-.563-1.5-.375-.257-1.08-.385-2.113-.385-1.212 0-2.088.217-2.63.65-.543.432-.812 1.141-.812 2.128V9.75H.185z" id="Fill-32" fill="#FFF" mask="url(#mask-4)"/></g></g></g></g></svg>