<svg width="126" height="35" xmlns="http://www.w3.org/2000/svg" xmlns:xlink="http://www.w3.org/1999/xlink"><defs><path id="path-1" d="M.034.019H16.35v8.18H.034z"/><path id="path-3" d="M0 .02h15.952v34.978H0z"/></defs><g id="Page-1" stroke="none" stroke-width="1" fill="none" fill-rule="evenodd"><g id="Home" transform="translate(-907 -1062)"><g id="Group-42" transform="translate(907 1062)"><path id="Fill-1" fill="#FFF" d="M24 0v14l5-.565V0z"/><path id="Fill-2" fill="#FFF" d="M24 35h5V21.564L24 21z"/><g id="Group-41"><path d="M42.735 11.11a16.994 16.994 0 01-.072-1.715 9.339 9.339 0 01.145-1.666c.084-.498.253-.965.508-1.401a2.817 2.817 0 011.015-.991c.436-.258.992-.386 1.67-.386 1.255 0 2.15.41 2.682 1.232.532.821.798 1.796.798 2.923v1.11h4.93V7.802a7.142 7.142 0 00-.58-2.826 7.869 7.869 0 00-1.669-2.488 8.266 8.266 0 00-2.61-1.787 8.086 8.086 0 00-3.36-.676c-1.417 0-2.658.25-3.722.748a7.409 7.409 0 00-2.635 2.006 8.474 8.474 0 00-1.571 2.993 12.406 12.406 0 00-.532 3.67c-.01 1.096.103 2.18.338 3.251l4.936-.565a3.153 3.153 0 01-.27-1.02" id="Fill-3" fill="#FFF"/><path d="M49.48 24.95c0 .773-.032 1.481-.096 2.125a4.12 4.12 0 01-.46 1.618 2.44 2.44 0 01-1.063 1.015c-.469.242-1.122.363-1.959.362-1.256 0-2.15-.362-2.682-1.086a3.997 3.997 0 01-.6-1.155 3.994 3.994 0 01-.199-1.285v-1.545h-4.929v1.834a7.995 7.995 0 002.994 6.327 8.023 8.023 0 002.083 1.205 8.697 8.697 0 003.336.629c1.579 0 2.917-.257 4.013-.772a6.735 6.735 0 002.635-2.102c.659-.88 1.134-1.942 1.424-3.184.3-1.328.445-2.673.435-4.035 0-.244 0-.482-.01-.711l-4.952-.567c.02.396.03.835.03 1.327" id="Fill-5" fill="#FFF"/><path id="Fill-7" fill="#FFF" d="M63.066 34.71h4.931v-8.965l-4.931-.564z"/><path id="Fill-9" fill="#FFF" d="M63.066.314v9.52l4.931-.562V.314z"/><g id="Group-13" transform="translate(77.3)"><mask id="mask-2" fill="#fff"><use xlink:href="#path-1"/></mask><path d="M5.951 5.797a3.665 3.665 0 012.345-.846 3.665 3.665 0 012.345.846c.348.302.599.67.751 1.106l4.959-.567a7.824 7.824 0 00-.878-2.299A7.832 7.832 0 0013.93 2.12 8.185 8.185 0 0011.27.55 8.558 8.558 0 006.786.153c-.5.09-.987.222-1.463.397a8.181 8.181 0 00-2.66 1.57 7.567 7.567 0 00-1.91 2.634C.296 5.757.06 6.907.033 8.199l4.985-.57c.12-.795.43-1.407.933-1.835" id="Fill-11" fill="#FFF" mask="url(#mask-2)"/></g><path d="M87.94 29.225a3.665 3.665 0 01-2.978.791 3.653 3.653 0 01-1.712-.79c-.505-.43-.816-1.045-.934-1.843l-4.984-.57c.024 1.324.264 2.483.72 3.477a7.639 7.639 0 001.91 2.607 8.15 8.15 0 002.66 1.572 8.581 8.581 0 005.947 0 8.17 8.17 0 002.66-1.57 7.64 7.64 0 001.91-2.608 7.42 7.42 0 00.52-1.607l-4.965-.569a2.564 2.564 0 01-.753 1.112" id="Fill-14" fill="#FFF"/><path id="Fill-16" fill="#FFF" d="M115.427 34.71h4.642v-3.007l-5.989-.685z"/><path id="Fill-18" fill="#FFF" d="M102.856 34.71h4.932v-4.412l-4.932-.565z"/><path id="Fill-20" fill="#FFF" d="M115.136.314v3.564l4.933-.564v-3z"/><path id="Fill-22" fill="#FFF" d="M102.856.314v4.97l6.266-.718-1.528-4.252z"/><path id="Fill-24" fill="#FFF" d="M23.904 14.316v6.385l4.932.565V13.75z"/><path d="M53.469 18.937a5.923 5.923 0 00-1.572-1.98c-.675-.564-1.56-1.055-2.655-1.474l-3.77-1.499a7.66 7.66 0 01-1.523-.772 2.736 2.736 0 01-.846-.895c-.034-.06-.063-.123-.097-.187l-4.936.565c.163.742.413 1.454.75 2.135.725 1.434 2.15 2.585 4.278 3.454l3.53 1.448c.508.207 1 .449 1.474.725.363.216.653.506.87.869.209.354.346.821.41 1.4.03.265.05.566.067.896l4.951.567a24.58 24.58 0 00-.183-2.645 8.36 8.36 0 00-.75-2.607" id="Fill-26" fill="#FFF"/><path id="Fill-28" fill="#FFF" d="M63.066 9.836V25.18l4.931.564V9.271z"/><path d="M93.863 8.43a9.933 9.933 0 00-.212-2.094l-4.96.568c.171.494.25 1.003.24 1.526v18.163c.01.52-.069 1.027-.237 1.52l4.965.569c.14-.69.208-1.385.204-2.088V8.43z" id="Fill-30" fill="#FFF"/><path d="M82.26 26.593V8.43a5.313 5.313 0 01.057-.797l-4.984.572v18.608l4.984.57a5.29 5.29 0 01-.057-.79" id="Fill-32" fill="#FFF"/><path id="Fill-34" fill="#FFF" d="M115.137 3.879v17.159h-.098l-5.917-16.472-6.266.717v24.45l4.932.565V14.033h.097l6.196 16.985 5.988.685V3.314z"/><g id="Group-38"><mask id="mask-4" fill="#fff"><use xlink:href="#path-3"/></mask><path d="M13.676 2.41a8.19 8.19 0 00-2.49-1.738A7.214 7.214 0 008.116.02a11.02 11.02 0 00-2.852.386A6.866 6.866 0 002.66 1.734c-.773.628-1.41 1.458-1.91 2.489C.25 5.253 0 6.557 0 8.135v18.748c0 1.578.25 2.882.75 3.912.498 1.03 1.135 1.86 1.909 2.488a6.836 6.836 0 002.61 1.329 11.02 11.02 0 002.851.386 7.207 7.207 0 003.07-.653 8.184 8.184 0 002.49-1.738 7.93 7.93 0 001.668-2.536 7.76 7.76 0 00.604-3.044v-3.105l-4.982-.847v1.506c0 1.01.016 3.315-.561 4.223-.139.222-.304.42-.496.597a2.815 2.815 0 01-.944.501c-.255.08-.514.132-.78.158-.073 0-.147.01-.226.01h-.034c-1.13 0-1.91-.339-2.345-1.015-.434-.677-.652-1.514-.653-2.511V8.47c0-.998.218-1.835.653-2.51.436-.676 1.217-1.014 2.345-1.015h.034c.078 0 .152.006.227.01.263.026.521.079.774.158.346.107.66.274.943.502.192.176.357.375.496.596.58.91.561 3.213.561 4.224v1.509l4.985-.85V7.988a7.755 7.755 0 00-.604-3.043 7.914 7.914 0 00-1.669-2.535" id="Fill-36" fill="#FFF" mask="url(#mask-4)"/></g><path d="M122.534 2.037a1.713 1.713 0 011.054-1.592 1.71 1.71 0 01.671-.136 1.71 1.71 0 011.22.505 1.711 1.711 0 01.505 1.219 1.718 1.718 0 01-1.725 1.723 1.713 1.713 0 01-1.218-.505 1.718 1.718 0 01-.507-1.223v.01zm3.107-.01a1.42 1.42 0 00-.405-.995 1.381 1.381 0 00-.438-.301 1.334 1.334 0 00-1.076 0 1.38 1.38 0 00-.438.302 1.428 1.428 0 00-.296 1.542c.07.168.17.318.296.448a1.38 1.38 0 00.976.415 1.38 1.38 0 001.27-.862c.075-.176.112-.358.111-.548zm-2.034-1.002h.762c.46 0 .691.188.69.565a.64.64 0 01-.04.243.462.462 0 01-.276.27.856.856 0 01-.193.05l.58.88h-.38l-.58-.87h-.243v.87h-.314l-.006-2.008zm.314.851h.357a.695.695 0 00.351-.07.23.23 0 00.117-.23.207.207 0 00-.103-.202.478.478 0 00-.265-.065h-.457v.567z" id="Fill-39" fill="#FFF"/></g></g></g></g></svg>