<svg width="118" height="127" xmlns="http://www.w3.org/2000/svg"><g id="Page-1" stroke="none" stroke-width="1" fill="none" fill-rule="evenodd"><g id="Home" transform="translate(-481 -3499)" fill="#FF0010"><g id="Group-26" transform="translate(481 3499)"><path id="Fill-1" d="M57 105h4v-4h-4z"/><path id="Fill-2" d="M57 95h4v-4h-4z"/><path id="Fill-3" d="M57 86h4v-4h-4z"/><path id="Fill-4" d="M57 77h4v-4h-4z"/><path id="Fill-5" d="M16 83h4v-4h-4z"/><path id="Fill-6" d="M16 75h4v-4h-4z"/><path id="Fill-7" d="M16 66h4v-4h-4z"/><path id="Fill-8" d="M16 57h4v-4h-4z"/><path id="Fill-9" d="M2 41.046L5.503 44 19.04 27.281l13.457 16.617L36 40.942 19.04 20z"/><path id="Fill-10" d="M0 58.858V107h4.5V60.478L18 44.082l13.5 16.396V107H36V58.858L18 37z"/><path id="Fill-11" d="M101.04 0L84 21.044 87.503 24 101.04 7.28l13.457 16.616L118 20.94z"/><path id="Fill-12" d="M46.503 62L43 59.046 60.04 38 77 58.942l-3.503 2.954L60.04 45.283z"/><path id="Fill-13" d="M77 107h-4.5V77.944L59 61.224l-13.5 16.72V107H41V76.294L59 54l18 22.294z"/><path id="Fill-14" d="M82 38.029v68.969h4.496V39.662l13.488-16.529 13.52 16.53-.035 67.332 4.495.005.036-68.971L99.98 16z"/><path id="Fill-15" d="M0 118h118v-4H0z"/><path id="Fill-16" d="M48 127h54v-4H48z"/><path id="Fill-17" d="M34 127h7v-4h-7z"/><path id="Fill-18" d="M48 12h4V0h-4z"/><path id="Fill-19" d="M48 32h4V20h-4z"/><path id="Fill-20" d="M54 19h12v-4H54z"/><path id="Fill-21" d="M98 66h4v-4h-4z"/><path id="Fill-22" d="M98 57h4v-4h-4z"/><path id="Fill-23" d="M98 48h4v-4h-4z"/><path id="Fill-24" d="M98 38h4v-4h-4z"/><path id="Fill-25" d="M34 19h12v-4H34z"/></g></g></g></svg>