<svg width="1626" height="1022" xmlns="http://www.w3.org/2000/svg"><g id="Page-1" stroke="none" stroke-width="1" fill="none" fill-rule="evenodd"><g id="Home" transform="translate(-127 -85)" stroke="#5B160E"><path d="M1528.11 86h0c-123.656 0-223.899 98.696-223.899 220.433h-.261c-2.697 35.728-32.925 63.91-69.9 63.91-36.965 0-67.193-28.182-69.88-63.91h-.28C1163.89 184.696 1063.656 86 940 86c-122.709 0-222.324 97.21-223.822 217.692h-.493c-2.687 35.719-32.915 63.9-69.89 63.9-36.985 0-67.212-28.181-69.9-63.9h-.174C574.213 183.21 474.618 86 351.89 86 228.243 86 128 184.696 128 306.433v579.134C128 1007.304 228.243 1106 351.89 1106c123.656 0 223.899-98.696 223.899-220.433V641.35c1.663-36.699 32.316-65.974 70.006-65.974 38.734 0 70.151 30.931 70.151 69.077h.164v150.908c0 121.747 100.234 220.442 223.89 220.442 123.656 0 223.89-98.695 223.89-220.442V647.204c0-38.146 31.416-69.068 70.16-69.068 38.754 0 70.161 30.922 70.161 69.068v48.11c0 121.747 100.243 220.433 223.9 220.433 123.655 0 223.889-98.686 223.889-220.433V306.433C1752 184.696 1651.766 86 1528.11 86" id="Hero-background"/></g></g></svg>