<svg width="131" height="32" xmlns="http://www.w3.org/2000/svg"><g id="Page-1" stroke="none" stroke-width="1" fill="none" fill-rule="evenodd"><g id="Home" transform="translate(-1102 -11282)" fill-rule="nonzero"><g id="hotbit" transform="translate(1102 11282)"><path d="M31 16.023v6.554c0 .187-.045.28-.204.373-5.046 2.986-10.069 5.995-15.115 8.98-.136.093-.249.093-.385 0-5.023-3.009-10.069-5.994-15.115-8.98C.045 22.88 0 22.764 0 22.6V9.424c0-.187.045-.28.204-.373C5.25 6.064 10.273 3.055 15.296.07c.136-.093.25-.093.385 0 5.023 3.009 10.07 5.994 15.115 8.98.159.093.204.186.204.373v6.6zm-27.945-.7c0 .117-.023.21-.023.28v4.945c0 .187.045.28.204.373 4.028 2.403 8.055 4.782 12.083 7.184.136.093.249.07.385 0l12.083-7.207c.068-.047.136-.093.226-.163-.113-.07-.18-.117-.249-.164l-2.24-1.329c-2.33-1.4-4.684-2.776-7.015-4.175-.113-.07-.203-.14-.339.023-.86 1.097-1.742 2.17-2.625 3.266-.045.046-.068.093-.113.163 1.697 1.003 3.372 2.006 5.069 3.009a1.58 1.58 0 01-.204.14c-.928.63-1.855 1.236-2.783 1.866-.204.14-.34.14-.543.023-4.548-2.682-9.097-5.388-13.645-8.093-.09-.024-.158-.07-.271-.14zm24.89 1.26c0-.117.023-.163.023-.21v-5.061c0-.163-.09-.257-.204-.327-4.005-2.402-8.033-4.78-12.038-7.183a.4.4 0 00-.452 0C11.269 6.204 7.24 8.583 3.236 10.985c-.068.047-.136.094-.227.164.091.07.159.116.227.14 2.987 1.772 5.973 3.545 8.938 5.317.158.094.249.07.384-.07a310.16 310.16 0 012.24-2.775c.159-.187.295-.373.453-.583a641.293 641.293 0 00-5.34-3.172c.068-.047.09-.093.136-.093C11.065 9.283 12.083 8.63 13.1 8c.136-.093.227-.023.34.023 4.752 2.822 9.526 5.621 14.278 8.443.045.024.136.047.226.117z" id="Shape" fill="#1DA98F"/><path d="M31 16.023v6.554c0 .187-.045.28-.204.373-5.046 2.986-10.069 5.995-15.115 8.98-.136.093-.249.093-.385 0-5.023-3.009-10.069-5.994-15.115-8.98C.045 22.88 0 22.764 0 22.6V9.424c0-.187.045-.28.204-.373C5.25 6.064 10.273 3.055 15.296.07c.136-.093.25-.093.385 0 5.023 3.009 10.07 5.994 15.115 8.98.159.093.204.186.204.373v6.6zm-27.945-.7c0 .117-.023.21-.023.28v4.945c0 .187.045.28.204.373 4.028 2.403 8.055 4.782 12.083 7.184.136.093.249.07.385 0l12.083-7.207c.068-.047.136-.093.226-.163-.113-.07-.18-.117-.249-.164l-2.24-1.329c-2.33-1.4-4.684-2.776-7.015-4.175-.113-.07-.203-.14-.339.023-.86 1.097-1.742 2.17-2.625 3.266-.045.046-.068.093-.113.163 1.697 1.003 3.372 2.006 5.069 3.009a1.58 1.58 0 01-.204.14c-.928.63-1.855 1.236-2.783 1.866-.204.14-.34.14-.543.023-4.548-2.682-9.097-5.388-13.645-8.093-.09-.024-.158-.07-.271-.14zm24.89 1.26c0-.117.023-.163.023-.21v-5.061c0-.163-.09-.257-.204-.327-4.005-2.402-8.033-4.78-12.038-7.183a.4.4 0 00-.452 0C11.269 6.204 7.24 8.583 3.236 10.985c-.068.047-.136.094-.227.164.091.07.159.116.227.14 2.987 1.772 5.973 3.545 8.938 5.317.158.094.249.07.384-.07a310.16 310.16 0 012.24-2.775c.159-.187.295-.373.453-.583a641.293 641.293 0 00-5.34-3.172c.068-.047.09-.093.136-.093C11.065 9.283 12.083 8.63 13.1 8c.136-.093.227-.023.34.023 4.752 2.822 9.526 5.621 14.278 8.443.045.024.136.047.226.117z" id="Shape" fill="#2BB294"/><path d="M77 16.035C77 21.859 74.022 25 68.535 25c-5.557 0-8.558-3.164-8.535-9.034 0-5.824 3.048-9.011 8.63-8.966 5.462.046 8.37 3.165 8.37 9.035zm-13.014-.046c0 3.967 1.618 6.053 4.643 5.961 2.486-.091 3.963-1.559 4.338-4.38.516-3.851-.633-6.626-3.025-7.29-3.61-1.01-5.932 1.215-5.956 5.709z" id="Shape" fill="#1EAA8F"/><path d="M42 7h3.534v6.967h6.82V7H56v18h-3.601v-7.704h-6.775v7.68h-3.601C42 19.032 42 13.063 42 7z" id="Path" fill="#1DA98F"/><path d="M79 7h13v3.095h-4.646V25h-3.708V10.167H79V7zm43.675 3.095H118V7h13v3.095h-4.63V25h-3.695V10.095z" id="Path" fill="#1CA98E"/><path d="M115 25h-4V7h4v18z" id="Path" fill="#1DA98E"/><path d="M94 7h5.463c2.49 0 4.287.356 5.416 1.09 1.13.736 1.683 1.874 1.683 3.463 0 1.068-.253 1.969-.738 2.656a2.97 2.97 0 01-1.959 1.257v.119c1.107.26 1.913.735 2.397 1.423.484.688.738 1.636.738 2.775 0 1.636-.576 2.917-1.729 3.842-1.152.924-2.72 1.375-4.702 1.375h-6.546V7H94zm3.711 7.138h2.167c1.014 0 1.728-.166 2.19-.474.46-.332.668-.854.668-1.589 0-.688-.254-1.186-.738-1.494-.484-.308-1.268-.45-2.328-.45h-1.959v4.007zm0 3.012v4.72h2.42c1.014 0 1.775-.19 2.26-.593.483-.404.737-1.02.737-1.85 0-1.494-1.038-2.253-3.112-2.253h-2.305v-.024z" id="Shape" fill="#1DA98F"/></g></g></g></svg>