<svg width="55" height="56" xmlns="http://www.w3.org/2000/svg"><g id="Page-1" stroke="none" stroke-width="1" fill="none" fill-rule="evenodd"><g id="Home" transform="translate(-355 -7354)" stroke="#FF0010" stroke-width="2"><g id="Group-23" transform="translate(356 7356)"><path d="M1 23.3c10.097-2.889 36.795-1.095 52 6.7" id="Stroke-1"/><path d="M22 22c-9.457 2.02-16.688 7.92-22 15" id="Stroke-3"/><path d="M29 22c-8.306 2.912-17.615 10.094-24 26" id="Stroke-5"/><path d="M36 24c-7.413 2.58-16.03 11.933-19 29" id="Stroke-7"/><path d="M42 26c-7.11 2.544-12.118 11.197-13 25" id="Stroke-9"/><path d="M49 28c-7.272 2.805-7.68 10.632-6.485 21" id="Stroke-11"/><path d="M44 13.063C44 16.313 41.314 19 38 19s-6-2.686-6-5.938C32 9.813 38 0 38 0s6 9.811 6 13.063z" id="Stroke-13"/><path id="Stroke-15" d="M38.5 19v6"/><path d="M45.469 8.513C46.436 6.538 47.27 5 47.27 5S52 13.718 52 16.295 49.882 21 47.27 21A4.72 4.72 0 0144 19.685" id="Stroke-17"/><path id="Stroke-19" d="M47.5 21v6"/><path d="M21 6A6 6 0 119 6a6 6 0 0112 0z" id="Stroke-21" stroke-linejoin="round"/></g></g></g></svg>