<svg width="18" height="18" xmlns="http://www.w3.org/2000/svg"><g id="Page-1" stroke="none" stroke-width="1" fill="none" fill-rule="evenodd"><g id="Home" transform="translate(-1232 -9878)" fill="#FFF" fill-rule="nonzero"><g id="Group" transform="translate(348 8876)"><path d="M896.15 1007.4c3.23 0 5.85 2.604 5.85 5.814v5.885a.902.902 0 01-.9.901H899a.902.902 0 01-.9-.9v-5.766c0-1.019-.733-1.946-1.747-2.047a1.945 1.945 0 00-2.152 1.927v5.885a.902.902 0 01-.901.901h-2.1a.902.902 0 01-.9-.9v-5.886c0-3.21 2.62-5.814 5.85-5.814zm-8.55.9a.9.9 0 01.9.9v9.9a.9.9 0 01-.9.9h-2.699a.9.9 0 01-.901-.9v-9.9a.9.9 0 01.901-.9zm-1.35-6.3a2.25 2.25 0 11-.001 4.502 2.25 2.25 0 01.001-4.502z" id="๐จ-Icon-ะกolor-Copy"/></g></g></g></svg>