<svg width="90" height="87" xmlns="http://www.w3.org/2000/svg" xmlns:xlink="http://www.w3.org/1999/xlink"><defs><path id="path-1" d="M.36.484H25v24.127H.36z"/><path id="path-3" d="M0 .437h90V57H0z"/></defs><g id="Page-1" stroke="none" stroke-width="1" fill="none" fill-rule="evenodd"><g id="Home" transform="translate(-361 -24)"><g id="Logo" transform="translate(361 24)"><g id="Group-3" transform="translate(65)"><mask id="mask-2" fill="#fff"><use xlink:href="#path-1"/></mask><path d="M25 12.548c0 6.662-5.516 12.063-12.32 12.063S.36 19.21.36 12.548C.36 5.885 5.876.484 12.68.484S25 5.885 25 12.548" id="Fill-1" fill="#FFF" mask="url(#mask-2)"/></g><g id="Group-6" transform="translate(0 30)"><mask id="mask-4" fill="#fff"><use xlink:href="#path-3"/></mask><path d="M77.592.437C70.74.437 65.184 5.91 65.184 12.66h-.015c-.149 1.981-1.824 3.544-3.873 3.544-2.049 0-3.724-1.563-3.873-3.544h-.015C57.408 5.91 51.853.437 45 .437c-6.8 0-12.321 5.39-12.404 12.072h-.027c-.15 1.98-1.825 3.543-3.874 3.543-2.05 0-3.724-1.562-3.873-3.543h-.01C24.728 5.828 19.209.437 12.408.437 5.555.437 0 5.91 0 12.66v32.115C0 51.526 5.555 57 12.408 57c6.852 0 12.408-5.473 12.408-12.224V31.233c.092-2.035 1.79-3.658 3.88-3.658 2.146 0 3.887 1.715 3.887 3.83h.01v8.369c0 6.751 5.554 12.224 12.407 12.224s12.408-5.473 12.408-12.224v-8.216c0-2.115 1.74-3.83 3.888-3.83 2.147 0 3.888 1.715 3.888 3.83v2.668c0 6.751 5.555 12.224 12.408 12.224S90 40.977 90 34.226V12.66C90 5.91 84.445.437 77.592.437" id="Fill-4" fill="#FF0010" mask="url(#mask-4)"/></g></g></g></g></svg>