<svg version="1.1" id="Layer_1" xmlns="http://www.w3.org/2000/svg" x="0" y="0" viewBox="0 0 474 391" xml:space="preserve" enable-background="new 0 0 474 391"><style>.st0{fill:none;stroke:#ff0010;stroke-width:5}.st1{fill-rule:evenodd;clip-rule:evenodd;fill:#fff}.st86{fill:#ff0010}</style><g id="Logo" transform="translate(187 152)"><path id="Fill-1" class="st0" d="M112 14.9c0 8.3-6.7 15-15 15s-15-6.7-15-15 6.7-15 15-15 15 6.7 15 15"/><path id="Fill-4" class="st0" d="M96.6 36.9c-8.5 0-15.4 6.9-15.4 15.3-.2 2.5-2.3 4.4-4.8 4.4s-4.6-2-4.8-4.4c0-8.5-6.9-15.3-15.4-15.3s-15.3 6.8-15.4 15.2c-.2 2.5-2.3 4.4-4.8 4.4-2.6 0-4.6-2-4.8-4.4-.1-8.4-7-15.2-15.4-15.2C7 36.9 0 43.8 0 52.2v40.3c0 8.5 6.9 15.3 15.4 15.3s15.4-6.9 15.4-15.3v-17c.2-2.5 2.4-4.5 5-4.5 2.7 0 4.8 2.2 4.8 4.8v10.5c0 8.5 6.9 15.3 15.4 15.3s15.4-6.9 15.4-15.3V76c0-2.7 2.2-4.8 4.8-4.8 2.7 0 4.8 2.2 4.8 4.8v3.3c0 8.5 6.9 15.3 15.4 15.3S112 87.8 112 79.3V52.2c0-8.4-6.9-15.3-15.4-15.3"/></g><g id="Group-11" transform="translate(337 260)"><path id="Fill-1_1_" class="st1" d="M108.3 61.2c4.5-6.2 7.5-15.9 7.5-26 0-11-3.4-20.5-8.7-25.9h1.6c7.7 0 14.1 11.8 14.1 25.9 0 10.7-3.7 21-9 25.2l-5.5.8zm-3.5 14.2l-8.1 1.3 5.8-9.9 7.8-1.2-5.5 9.8zm11.3 22.9c-.7.2-1.6.4-2.7.4-3.3 0-5.3-1.2-7.4-2.4l-9.8-14.7 9-1.5 10.9 18.2zm-25.2-1.6c-1.6 1.1-2.9 2-5.8 2-3.3 0-5.3-1.2-7.4-2.4-1.4-.8-2.9-1.7-4.7-2.1l8.6-12h9.3L98.8 94c-3.9.1-6.1 1.5-7.9 2.7zm-31.4-7.5L68 72.1l4.6-.7 5 8.4L67 94.5c-1.6.5-2.8 1.1-3.8 1.8l-3.7-7.1zm4.4 28.3c-1.7 0-3.1.2-4.2.6L46.4 93.4l9.2-1.5 14.8 27.8c-1.9-1.1-3.8-2.2-6.5-2.2zm-21.5 2.3c-2-1.1-4-2.3-6.7-2.3-4.2 0-6.5 1.5-8.4 2.7-1.6 1.1-2.9 2-5.8 2-3.3 0-5.3-1.2-7.4-2.4-.9-.5-1.9-1.1-2.9-1.5L27.5 94h13.8l14.2 26.3c-1.6 1.1-2.9 1.9-5.7 1.9-3.3 0-5.3-1.2-7.4-2.4zm-19.1-41l26-3.9-7.9 14.4H27.8l-4.5-10.5zm32 8.4l-8.1 1.4 8-14.5 7.2-1.1-7.1 14.2zm13.3-49.7c0-14.5-3.7-26.6-9.5-32.9h2.4c6.8 0 14.1 13.2 14.1 32.9 0 12.9-4.3 25.4-10.3 30.1l-4.9.7c5-6.9 8.2-18.4 8.2-30.8zM18 63.4h-1.2c-2.6 0-4.7-2.1-4.7-4.7 0-1 .2-2.1.7-3.4 3.1 2.2 6.5 3.4 10.1 3.4 11.8 0 22.7-10 30-16.6.9-.8 1.7-1.6 2.5-2.2h8.5c-.2 6.5-1.4 12.7-3.3 17.9L18 63.4zm31.8-40c3 0 8.5.4 12.9.7.7 3.4 1.1 7.1 1.2 11.1H53.6l-.6.6c-.9.8-2 1.8-3.2 2.9C43 44.8 32.9 54 22.9 54c-2.9 0-5.6-1-8.1-3 6.8-11.7 24.7-27.6 35-27.6zM42.5 9.5c2.2-3.2 4.8-4.9 7.3-4.9 2.8 0 5.6 2.2 8 6.1L42.5 9.5zm65.5 9.9c.6 1.3 1.1 2.8 1.5 4.3-14.1-1.4-24.5-2.4-31-3-.3-1.3-.6-2.5-1-3.7l30.5 2.4zM80.4 35.2c-.1-3.4-.4-6.6-.9-9.7 6.8.6 17.2 1.6 31 3 .3 2.1.5 4.4.5 6.7H80.4zm27.7 16.3l-30.3 4c1.5-4.8 2.4-10.1 2.6-15.6h30.4c-.4 4.1-1.4 8.1-2.7 11.6zm-17.3 26h-9.1l-4.2-6.9 19-2.9-5.7 9.8zm9.5-15.1l-27.6 4.2c1.2-1.8 2.3-3.8 3.3-6.1l29.7-3.9c-1.6 2.7-3.4 4.7-5.4 5.8zM96.9 9.3c3.1 0 6 1.9 8.3 5.2l-15.5-1.2c2.2-2.6 4.8-4 7.2-4zM137 39.9v-4.7h-9.4c0-1.7-.1-3.4-.3-5l8.8.9.5-4.7-10-1c-.3-1.6-.7-3.1-1.2-4.6l10.9.9.4-4.7-13.2-1c-3.5-7-8.8-11.4-14.8-11.4H96.9c-4.7 0-9.3 3-12.8 8.2l-8.4-.7C72.3 4.6 67.3-.1 61.6-.1H49.8c-4.8 0-9.2 3.3-12.6 9.2L5.9 6.6l-.4 4.7 54.7 4.3c.5 1.1.9 2.4 1.3 3.7-5.7-.4-9.3-.6-11.7-.6C34 18.7 7.4 46 7.4 58.7c0 2.2.8 4.2 2.1 5.8l-6.6.9.6 4.7 55-7.2c-1.6 3.1-3.6 5.5-5.7 6.8l-50 7.4.7 4.7 14.9-2.2 5.1 11.9-17.4 26.1c-1.9.1-3.5.6-5.1 1.4l-.9.6 2.6 4c.2-.1.4-.3.6-.4.9-.5 2.1-1 4.2-1 1.5 0 2.8.7 4.4 1.7 2.3 1.3 5.2 3 9.8 3 4.2 0 6.5-1.5 8.4-2.7 1.6-1.1 2.9-2 5.8-2 1.5 0 2.8.7 4.4 1.7 2.3 1.3 5.2 3 9.8 3 4.2 0 6.5-1.5 8.4-2.7 1.6-1.1 2.9-2 5.8-2 1.5 0 2.8.7 4.4 1.7 2.3 1.3 5.2 3 9.8 3 4.2 0 6.5-1.5 8.4-2.7 1.6-1.1 2.9-2 5.8-2 1.5 0 2.8.7 4.4 1.7 2.3 1.3 5.2 3 9.7 3v-4.7c-3.3 0-5.3-1.2-7.4-2.4-2-1.1-4-2.3-6.7-2.3-4.2 0-6.5 1.5-8.4 2.7-1.6 1.1-2.9 2-5.8 2-.4 0-.7-.1-1-.1l-11.6-21.7c1.5-1 2.8-1.8 5.5-1.8 1.5 0 2.8.7 4.4 1.7 2.3 1.3 5.2 3 9.8 3 4.2 0 6.5-1.5 8.4-2.7 1.6-1.1 2.9-2 5.8-2 1.5 0 2.8.7 4.4 1.7 2.3 1.3 5.2 3 9.8 3 4.2 0 6.5-1.5 8.4-2.7 1.6-1.1 2.9-2 5.8-2V94c-3.5 0-5.6 1-7.3 2.1l-11.2-18.6 7.2-12.7 13.5-2-.7-4.7-8 1.2c1-1.5 2-3.2 2.8-5.1l12.8-1.7-.6-4.7-10.4 1.4c.9-2.9 1.5-6.1 1.7-9.3h9z"/><path id="Fill-4_1_" class="st1" d="M41 36.7l-2.7-3.8c-5.2 3.6-10.9 8.8-15.3 14l3.6 3c4.1-4.8 9.7-9.9 14.4-13.2"/><path id="Fill-6" class="st1" d="M50 32.9v-5c-2 0-3.4.6-5 1.4l1.9 4.6c1.5-.7 2.1-1 3.1-1"/><defs><filter id="Adobe_OpacityMaskFilter" filterUnits="userSpaceOnUse" x="7" y="18.9" width="12" height="5"><feColorMatrix values="1 0 0 0 0 0 1 0 0 0 0 0 1 0 0 0 0 0 1 0"/></filter></defs><mask maskUnits="userSpaceOnUse" x="7" y="18.9" width="12" height="5" id="mask-2_1_"><g filter="url(#Adobe_OpacityMaskFilter)"><path id="path-1_1_" class="st1" d="M0 126.9h137V-.1H0z"/></g></mask><path id="Fill-8" mask="url(#mask-2_1_)" fill-rule="evenodd" clip-rule="evenodd" fill="#fff" d="M7 23.9h12v-5H7z"/><defs><filter id="Adobe_OpacityMaskFilter_1_" filterUnits="userSpaceOnUse" x="24" y="18.9" width="5" height="5"><feColorMatrix values="1 0 0 0 0 0 1 0 0 0 0 0 1 0 0 0 0 0 1 0"/></filter></defs><mask maskUnits="userSpaceOnUse" x="24" y="18.9" width="5" height="5" id="mask-2_2_"><g filter="url(#Adobe_OpacityMaskFilter_1_)"><path id="path-1_2_" class="st1" d="M0 126.9h137V-.1H0z"/></g></mask><path id="Fill-10" mask="url(#mask-2_2_)" fill-rule="evenodd" clip-rule="evenodd" fill="#fff" d="M24 23.9h5v-5h-5z"/></g><g id="Group-32" transform="translate(18 256)"><defs><filter id="Adobe_OpacityMaskFilter_2_" filterUnits="userSpaceOnUse" x=".2" y=".3" width="90" height="134.6"><feColorMatrix values="1 0 0 0 0 0 1 0 0 0 0 0 1 0 0 0 0 0 1 0"/></filter></defs><mask maskUnits="userSpaceOnUse" x=".2" y=".3" width="90" height="134.6" id="mask-4_1_"><g filter="url(#Adobe_OpacityMaskFilter_2_)"><path id="path-3_1_" class="st1" d="M.2.3h90v134.6H.2z"/></g></mask><path id="Fill-1_2_" d="M49.8 31.5c-3 .2-5.5-.4-7.6-2.6-1.1-1.1-2.4-1.8-3.8-2.9-.9 1.2-1.8 2.3-2.8 3.6 2.2 1.7 4.4 3.3 6.5 4.9 3.8 2.9 7.7 5.8 11.5 8.7 1.4 1.1 1.7 2.1 1 3.4-.7 1.2-1.9 1.6-3.4.9-7.5-3.3-15.2-6.2-22.4-10.1-4.6-2.4-8.4-6.2-12.5-9.5-.3-.2-.4-1-.3-1.4 1.9-3.9 3.8-7.7 5.8-11.6.2-.3.7-.7 1.1-.7 9.2.8 18.3 1.6 27.3 3.7 6 1.5 8.6 4.4 9.2 10.6.1.8.2 1.6.3 2.7-3.4.2-6.7.1-9.9.3zM90.2 116V87.9H71.4V31.4c-2 0-3.9-.1-5.8 0-1 0-1.4-.4-1.4-1.3-.1-1.6-.3-3.3-.7-4.9-1.3-5.4-4.3-9.3-9.9-10.9-6.6-1.9-13.3-2.7-20.1-3.4-3-.4-6.1-.6-9.2-.9.1-2.1-.3-4.1-2.1-5.2-2.5-1.6-5.3-2.9-8-4.4-.8 1.5-1.4 2.8-2.1 4.1 2.2 1.1 4.2 2.1 6.3 3.2 1.1.6 1.5 1.3.9 2.5-3 5.9-5.9 11.8-8.9 17.8-.6 1-1.4 1.4-2.7.7-1.8-.9-3.6-1.8-5.5-2.8-.7 1.4-1.3 2.7-2 4.1 1.7.9 3.3 1.6 4.8 2.5 3 1.7 5.8 1.8 8.4-.9 6.4 6 13.4 11 21.5 14.1 1 .4 1.1 1 1.1 1.9v33.1h4.7V48.3c.5.2.7.3 1 .4 2.7 1.1 5.4 2.2 8.2 3.3 2.7 1.1 5.3.6 7.4-1.3 2-1.8 2.6-4.1 2-6.8-.5-2.3-2.2-3.6-3.9-4.9-1.1-.8-2.3-1.7-3.7-2.7h14.9V88H55.1v46.9h4.5V92.7h26.1V116h4.5z" mask="url(#mask-4_1_)" fill-rule="evenodd" clip-rule="evenodd" fill="#fff"/><defs><filter id="Adobe_OpacityMaskFilter_3_" filterUnits="userSpaceOnUse" x="-6" y="47.9" width="37" height="87"><feColorMatrix values="1 0 0 0 0 0 1 0 0 0 0 0 1 0 0 0 0 0 1 0"/></filter></defs><mask maskUnits="userSpaceOnUse" x="-6" y="47.9" width="37" height="87" id="mask-6_1_"><g filter="url(#Adobe_OpacityMaskFilter_3_)"><path id="path-5_1_" class="st1" d="M-11 133.9h124V-.1H-11z"/></g></mask><path id="Fill-4_2_" d="M3.3 57.2h18.6v-4.7H3.3v4.7zm23.2-9.3H-1.4v9.4H-6v77.6h4.5v-73h28.1v63.5H31V57.2h-4.6v-9.3z" mask="url(#mask-6_1_)" fill-rule="evenodd" clip-rule="evenodd" fill="#fff"/><defs><filter id="Adobe_OpacityMaskFilter_4_" filterUnits="userSpaceOnUse" x="76" y="47.9" width="31" height="82"><feColorMatrix values="1 0 0 0 0 0 1 0 0 0 0 0 1 0 0 0 0 0 1 0"/></filter></defs><mask maskUnits="userSpaceOnUse" x="76" y="47.9" width="31" height="82" id="mask-6_2_"><g filter="url(#Adobe_OpacityMaskFilter_4_)"><path id="path-5_2_" class="st1" d="M-11 133.9h124V-.1H-11z"/></g></mask><path id="Fill-6_1_" d="M105.5 58.3c-6.6-2.3-13.1-4.7-19.7-7-3.2-1.1-6.4-2.3-9.8-3.5v34.9h4.5V54.5c.6.2.9.2 1.2.3 6.3 2.2 12.5 4.5 18.8 6.7 1.2.4 1.7 1 1.7 2.4-.1 21.4 0 42.9 0 64.3v1.8h4.7V60.6c.2-1.3-.3-1.9-1.4-2.3" mask="url(#mask-6_2_)" fill-rule="evenodd" clip-rule="evenodd" fill="#fff"/><defs><filter id="Adobe_OpacityMaskFilter_5_" filterUnits="userSpaceOnUse" x="64" y="98.9" width="16" height="5"><feColorMatrix values="1 0 0 0 0 0 1 0 0 0 0 0 1 0 0 0 0 0 1 0"/></filter></defs><mask maskUnits="userSpaceOnUse" x="64" y="98.9" width="16" height="5" id="mask-6_3_"><g filter="url(#Adobe_OpacityMaskFilter_5_)"><path id="path-5_3_" class="st1" d="M-11 133.9h124V-.1H-11z"/></g></mask><path id="Fill-7" mask="url(#mask-6_3_)" fill-rule="evenodd" clip-rule="evenodd" fill="#fff" d="M64 103.9h16v-5H64z"/><defs><filter id="Adobe_OpacityMaskFilter_6_" filterUnits="userSpaceOnUse" x="64" y="107.9" width="16" height="5"><feColorMatrix values="1 0 0 0 0 0 1 0 0 0 0 0 1 0 0 0 0 0 1 0"/></filter></defs><mask maskUnits="userSpaceOnUse" x="64" y="107.9" width="16" height="5" id="mask-6_4_"><g filter="url(#Adobe_OpacityMaskFilter_6_)"><path id="path-5_4_" class="st1" d="M-11 133.9h124V-.1H-11z"/></g></mask><path id="Fill-8_1_" mask="url(#mask-6_4_)" fill-rule="evenodd" clip-rule="evenodd" fill="#fff" d="M64 112.9h16v-5H64z"/><defs><filter id="Adobe_OpacityMaskFilter_7_" filterUnits="userSpaceOnUse" x="64" y="117.9" width="16" height="5"><feColorMatrix values="1 0 0 0 0 0 1 0 0 0 0 0 1 0 0 0 0 0 1 0"/></filter></defs><mask maskUnits="userSpaceOnUse" x="64" y="117.9" width="16" height="5" id="mask-6_5_"><g filter="url(#Adobe_OpacityMaskFilter_7_)"><path id="path-5_5_" class="st1" d="M-11 133.9h124V-.1H-11z"/></g></mask><path id="Fill-9" mask="url(#mask-6_5_)" fill-rule="evenodd" clip-rule="evenodd" fill="#fff" d="M64 122.9h16v-5H64z"/><defs><filter id="Adobe_OpacityMaskFilter_8_" filterUnits="userSpaceOnUse" x="8" y="7.9" width="5" height="5"><feColorMatrix values="1 0 0 0 0 0 1 0 0 0 0 0 1 0 0 0 0 0 1 0"/></filter></defs><mask maskUnits="userSpaceOnUse" x="8" y="7.9" width="5" height="5" id="mask-6_6_"><g filter="url(#Adobe_OpacityMaskFilter_8_)"><path id="path-5_6_" class="st1" d="M-11 133.9h124V-.1H-11z"/></g></mask><path id="Fill-10_1_" mask="url(#mask-6_6_)" fill-rule="evenodd" clip-rule="evenodd" fill="#fff" d="M8 12.9h5v-5H8z"/><defs><filter id="Adobe_OpacityMaskFilter_9_" filterUnits="userSpaceOnUse" x="85" y="11.9" width="5" height="5"><feColorMatrix values="1 0 0 0 0 0 1 0 0 0 0 0 1 0 0 0 0 0 1 0"/></filter></defs><mask maskUnits="userSpaceOnUse" x="85" y="11.9" width="5" height="5" id="mask-6_7_"><g filter="url(#Adobe_OpacityMaskFilter_9_)"><path id="path-5_7_" class="st1" d="M-11 133.9h124V-.1H-11z"/></g></mask><path id="Fill-11" mask="url(#mask-6_7_)" fill-rule="evenodd" clip-rule="evenodd" fill="#fff" d="M85 16.9h5v-5h-5z"/><defs><filter id="Adobe_OpacityMaskFilter_10_" filterUnits="userSpaceOnUse" x="85" y="21.9" width="5" height="5"><feColorMatrix values="1 0 0 0 0 0 1 0 0 0 0 0 1 0 0 0 0 0 1 0"/></filter></defs><mask maskUnits="userSpaceOnUse" x="85" y="21.9" width="5" height="5" id="mask-6_8_"><g filter="url(#Adobe_OpacityMaskFilter_10_)"><path id="path-5_8_" class="st1" d="M-11 133.9h124V-.1H-11z"/></g></mask><path id="Fill-12" mask="url(#mask-6_8_)" fill-rule="evenodd" clip-rule="evenodd" fill="#fff" d="M85 26.9h5v-5h-5z"/><defs><filter id="Adobe_OpacityMaskFilter_11_" filterUnits="userSpaceOnUse" x="-11" y="23.9" width="5" height="5"><feColorMatrix values="1 0 0 0 0 0 1 0 0 0 0 0 1 0 0 0 0 0 1 0"/></filter></defs><mask maskUnits="userSpaceOnUse" x="-11" y="23.9" width="5" height="5" id="mask-6_9_"><g filter="url(#Adobe_OpacityMaskFilter_11_)"><path id="path-5_9_" class="st1" d="M-11 133.9h124V-.1H-11z"/></g></mask><path id="Fill-13" mask="url(#mask-6_9_)" fill-rule="evenodd" clip-rule="evenodd" fill="#fff" d="M-11 28.9h5v-5h-5z"/><defs><filter id="Adobe_OpacityMaskFilter_12_" filterUnits="userSpaceOnUse" x="108" y="28.9" width="5" height="5"><feColorMatrix values="1 0 0 0 0 0 1 0 0 0 0 0 1 0 0 0 0 0 1 0"/></filter></defs><mask maskUnits="userSpaceOnUse" x="108" y="28.9" width="5" height="5" id="mask-6_10_"><g filter="url(#Adobe_OpacityMaskFilter_12_)"><path id="path-5_10_" class="st1" d="M-11 133.9h124V-.1H-11z"/></g></mask><path id="Fill-14" mask="url(#mask-6_10_)" fill-rule="evenodd" clip-rule="evenodd" fill="#fff" d="M108 33.9h5v-5h-5z"/><defs><filter id="Adobe_OpacityMaskFilter_13_" filterUnits="userSpaceOnUse" x="85" y="30.9" width="5" height="5"><feColorMatrix values="1 0 0 0 0 0 1 0 0 0 0 0 1 0 0 0 0 0 1 0"/></filter></defs><mask maskUnits="userSpaceOnUse" x="85" y="30.9" width="5" height="5" id="mask-6_11_"><g filter="url(#Adobe_OpacityMaskFilter_13_)"><path id="path-5_11_" class="st1" d="M-11 133.9h124V-.1H-11z"/></g></mask><path id="Fill-15" mask="url(#mask-6_11_)" fill-rule="evenodd" clip-rule="evenodd" fill="#fff" d="M85 35.9h5v-5h-5z"/><defs><filter id="Adobe_OpacityMaskFilter_14_" filterUnits="userSpaceOnUse" x="-11" y="32.9" width="5" height="5"><feColorMatrix values="1 0 0 0 0 0 1 0 0 0 0 0 1 0 0 0 0 0 1 0"/></filter></defs><mask maskUnits="userSpaceOnUse" x="-11" y="32.9" width="5" height="5" id="mask-6_12_"><g filter="url(#Adobe_OpacityMaskFilter_14_)"><path id="path-5_12_" class="st1" d="M-11 133.9h124V-.1H-11z"/></g></mask><path id="Fill-16" mask="url(#mask-6_12_)" fill-rule="evenodd" clip-rule="evenodd" fill="#fff" d="M-11 37.9h5v-5h-5z"/><defs><filter id="Adobe_OpacityMaskFilter_15_" filterUnits="userSpaceOnUse" x="108" y="37.9" width="5" height="5"><feColorMatrix values="1 0 0 0 0 0 1 0 0 0 0 0 1 0 0 0 0 0 1 0"/></filter></defs><mask maskUnits="userSpaceOnUse" x="108" y="37.9" width="5" height="5" id="mask-6_13_"><g filter="url(#Adobe_OpacityMaskFilter_15_)"><path id="path-5_13_" class="st1" d="M-11 133.9h124V-.1H-11z"/></g></mask><path id="Fill-17" mask="url(#mask-6_13_)" fill-rule="evenodd" clip-rule="evenodd" fill="#fff" d="M108 42.9h5v-5h-5z"/><defs><filter id="Adobe_OpacityMaskFilter_16_" filterUnits="userSpaceOnUse" x="-11" y="42.9" width="5" height="5"><feColorMatrix values="1 0 0 0 0 0 1 0 0 0 0 0 1 0 0 0 0 0 1 0"/></filter></defs><mask maskUnits="userSpaceOnUse" x="-11" y="42.9" width="5" height="5" id="mask-6_14_"><g filter="url(#Adobe_OpacityMaskFilter_16_)"><path id="path-5_14_" class="st1" d="M-11 133.9h124V-.1H-11z"/></g></mask><path id="Fill-18" mask="url(#mask-6_14_)" fill-rule="evenodd" clip-rule="evenodd" fill="#fff" d="M-11 47.9h5v-5h-5z"/><defs><filter id="Adobe_OpacityMaskFilter_17_" filterUnits="userSpaceOnUse" x="108" y="47.9" width="5" height="5"><feColorMatrix values="1 0 0 0 0 0 1 0 0 0 0 0 1 0 0 0 0 0 1 0"/></filter></defs><mask maskUnits="userSpaceOnUse" x="108" y="47.9" width="5" height="5" id="mask-6_15_"><g filter="url(#Adobe_OpacityMaskFilter_17_)"><path id="path-5_15_" class="st1" d="M-11 133.9h124V-.1H-11z"/></g></mask><path id="Fill-19" mask="url(#mask-6_15_)" fill-rule="evenodd" clip-rule="evenodd" fill="#fff" d="M108 52.9h5v-5h-5z"/><defs><filter id="Adobe_OpacityMaskFilter_18_" filterUnits="userSpaceOnUse" x="5" y="68.9" width="5" height="5"><feColorMatrix values="1 0 0 0 0 0 1 0 0 0 0 0 1 0 0 0 0 0 1 0"/></filter></defs><mask maskUnits="userSpaceOnUse" x="5" y="68.9" width="5" height="5" id="mask-6_16_"><g filter="url(#Adobe_OpacityMaskFilter_18_)"><path id="path-5_16_" class="st1" d="M-11 133.9h124V-.1H-11z"/></g></mask><path id="Fill-20" mask="url(#mask-6_16_)" fill-rule="evenodd" clip-rule="evenodd" fill="#fff" d="M5 73.9h5v-5H5z"/><defs><filter id="Adobe_OpacityMaskFilter_19_" filterUnits="userSpaceOnUse" x="14" y="68.9" width="5" height="5"><feColorMatrix values="1 0 0 0 0 0 1 0 0 0 0 0 1 0 0 0 0 0 1 0"/></filter></defs><mask maskUnits="userSpaceOnUse" x="14" y="68.9" width="5" height="5" id="mask-6_17_"><g filter="url(#Adobe_OpacityMaskFilter_19_)"><path id="path-5_17_" class="st1" d="M-11 133.9h124V-.1H-11z"/></g></mask><path id="Fill-21" mask="url(#mask-6_17_)" fill-rule="evenodd" clip-rule="evenodd" fill="#fff" d="M14 73.9h5v-5h-5z"/><defs><filter id="Adobe_OpacityMaskFilter_20_" filterUnits="userSpaceOnUse" x="5" y="78.9" width="5" height="5"><feColorMatrix values="1 0 0 0 0 0 1 0 0 0 0 0 1 0 0 0 0 0 1 0"/></filter></defs><mask maskUnits="userSpaceOnUse" x="5" y="78.9" width="5" height="5" id="mask-6_18_"><g filter="url(#Adobe_OpacityMaskFilter_20_)"><path id="path-5_18_" class="st1" d="M-11 133.9h124V-.1H-11z"/></g></mask><path id="Fill-22" mask="url(#mask-6_18_)" fill-rule="evenodd" clip-rule="evenodd" fill="#fff" d="M5 83.9h5v-5H5z"/><defs><filter id="Adobe_OpacityMaskFilter_21_" filterUnits="userSpaceOnUse" x="14" y="78.9" width="5" height="5"><feColorMatrix values="1 0 0 0 0 0 1 0 0 0 0 0 1 0 0 0 0 0 1 0"/></filter></defs><mask maskUnits="userSpaceOnUse" x="14" y="78.9" width="5" height="5" id="mask-6_19_"><g filter="url(#Adobe_OpacityMaskFilter_21_)"><path id="path-5_19_" class="st1" d="M-11 133.9h124V-.1H-11z"/></g></mask><path id="Fill-23" mask="url(#mask-6_19_)" fill-rule="evenodd" clip-rule="evenodd" fill="#fff" d="M14 83.9h5v-5h-5z"/><defs><filter id="Adobe_OpacityMaskFilter_22_" filterUnits="userSpaceOnUse" x="36" y="84.9" width="5" height="5"><feColorMatrix values="1 0 0 0 0 0 1 0 0 0 0 0 1 0 0 0 0 0 1 0"/></filter></defs><mask maskUnits="userSpaceOnUse" x="36" y="84.9" width="5" height="5" id="mask-6_20_"><g filter="url(#Adobe_OpacityMaskFilter_22_)"><path id="path-5_20_" class="st1" d="M-11 133.9h124V-.1H-11z"/></g></mask><path id="Fill-24" mask="url(#mask-6_20_)" fill-rule="evenodd" clip-rule="evenodd" fill="#fff" d="M36 89.9h5v-5h-5z"/><defs><filter id="Adobe_OpacityMaskFilter_23_" filterUnits="userSpaceOnUse" x="5" y="87.9" width="5" height="5"><feColorMatrix values="1 0 0 0 0 0 1 0 0 0 0 0 1 0 0 0 0 0 1 0"/></filter></defs><mask maskUnits="userSpaceOnUse" x="5" y="87.9" width="5" height="5" id="mask-6_21_"><g filter="url(#Adobe_OpacityMaskFilter_23_)"><path id="path-5_21_" class="st1" d="M-11 133.9h124V-.1H-11z"/></g></mask><path id="Fill-25" mask="url(#mask-6_21_)" fill-rule="evenodd" clip-rule="evenodd" fill="#fff" d="M5 92.9h5v-5H5z"/><defs><filter id="Adobe_OpacityMaskFilter_24_" filterUnits="userSpaceOnUse" x="14" y="87.9" width="5" height="5"><feColorMatrix values="1 0 0 0 0 0 1 0 0 0 0 0 1 0 0 0 0 0 1 0"/></filter></defs><mask maskUnits="userSpaceOnUse" x="14" y="87.9" width="5" height="5" id="mask-6_22_"><g filter="url(#Adobe_OpacityMaskFilter_24_)"><path id="path-5_22_" class="st1" d="M-11 133.9h124V-.1H-11z"/></g></mask><path id="Fill-26" mask="url(#mask-6_22_)" fill-rule="evenodd" clip-rule="evenodd" fill="#fff" d="M14 92.9h5v-5h-5z"/><defs><filter id="Adobe_OpacityMaskFilter_25_" filterUnits="userSpaceOnUse" x="36" y="94.9" width="5" height="5"><feColorMatrix values="1 0 0 0 0 0 1 0 0 0 0 0 1 0 0 0 0 0 1 0"/></filter></defs><mask maskUnits="userSpaceOnUse" x="36" y="94.9" width="5" height="5" id="mask-6_23_"><g filter="url(#Adobe_OpacityMaskFilter_25_)"><path id="path-5_23_" class="st1" d="M-11 133.9h124V-.1H-11z"/></g></mask><path id="Fill-27" mask="url(#mask-6_23_)" fill-rule="evenodd" clip-rule="evenodd" fill="#fff" d="M36 99.9h5v-5h-5z"/><defs><filter id="Adobe_OpacityMaskFilter_26_" filterUnits="userSpaceOnUse" x="36" y="103.9" width="5" height="5"><feColorMatrix values="1 0 0 0 0 0 1 0 0 0 0 0 1 0 0 0 0 0 1 0"/></filter></defs><mask maskUnits="userSpaceOnUse" x="36" y="103.9" width="5" height="5" id="mask-6_24_"><g filter="url(#Adobe_OpacityMaskFilter_26_)"><path id="path-5_24_" class="st1" d="M-11 133.9h124V-.1H-11z"/></g></mask><path id="Fill-28" mask="url(#mask-6_24_)" fill-rule="evenodd" clip-rule="evenodd" fill="#fff" d="M36 108.9h5v-5h-5z"/><defs><filter id="Adobe_OpacityMaskFilter_27_" filterUnits="userSpaceOnUse" x="36" y="112.9" width="5" height="5"><feColorMatrix values="1 0 0 0 0 0 1 0 0 0 0 0 1 0 0 0 0 0 1 0"/></filter></defs><mask maskUnits="userSpaceOnUse" x="36" y="112.9" width="5" height="5" id="mask-6_25_"><g filter="url(#Adobe_OpacityMaskFilter_27_)"><path id="path-5_25_" class="st1" d="M-11 133.9h124V-.1H-11z"/></g></mask><path id="Fill-29" mask="url(#mask-6_25_)" fill-rule="evenodd" clip-rule="evenodd" fill="#fff" d="M36 117.9h5v-5h-5z"/><defs><filter id="Adobe_OpacityMaskFilter_28_" filterUnits="userSpaceOnUse" x="85" y="119.9" width="5" height="5"><feColorMatrix values="1 0 0 0 0 0 1 0 0 0 0 0 1 0 0 0 0 0 1 0"/></filter></defs><mask maskUnits="userSpaceOnUse" x="85" y="119.9" width="5" height="5" id="mask-6_26_"><g filter="url(#Adobe_OpacityMaskFilter_28_)"><path id="path-5_26_" class="st1" d="M-11 133.9h124V-.1H-11z"/></g></mask><path id="Fill-30" mask="url(#mask-6_26_)" fill-rule="evenodd" clip-rule="evenodd" fill="#fff" d="M85 124.9h5v-5h-5z"/><defs><filter id="Adobe_OpacityMaskFilter_29_" filterUnits="userSpaceOnUse" x="85" y="129.9" width="5" height="5"><feColorMatrix values="1 0 0 0 0 0 1 0 0 0 0 0 1 0 0 0 0 0 1 0"/></filter></defs><mask maskUnits="userSpaceOnUse" x="85" y="129.9" width="5" height="5" id="mask-6_27_"><g filter="url(#Adobe_OpacityMaskFilter_29_)"><path id="path-5_27_" class="st1" d="M-11 133.9h124V-.1H-11z"/></g></mask><path id="Fill-31" mask="url(#mask-6_27_)" fill-rule="evenodd" clip-rule="evenodd" fill="#fff" d="M85 134.9h5v-5h-5z"/></g><g id="Group-20"><path id="Fill-1_3_" class="st1" d="M50 99.9h47v-5H50z"/><path id="Fill-2" class="st1" d="M50 87.9h47v-5H50z"/><path id="Fill-3" class="st1" d="M50 75.9h47v-5H50z"/><path id="Fill-4_3_" class="st1" d="M120 124.9h5v-9h-5z"/><path id="Fill-5" class="st1" d="M111 124.9h5v-9h-5z"/><path id="Fill-6_2_" class="st1" d="M120 110.9h5v-9h-5z"/><path id="Fill-7_1_" class="st1" d="M111 110.9h5v-9h-5z"/><path id="Fill-8_2_" class="st1" d="M120 96.9h5v-9h-5z"/><path id="Fill-9_1_" class="st1" d="M111 96.9h5v-9h-5z"/><path id="Fill-10_2_" class="st1" d="M129.8 86.8v43.4h-23.6V77.3l23.6 9.5zm-85 43.4h56.7V63.9H44.8v66.3zM7 106.5c0-9.6 8.7-25.2 11.8-26 2.9.8 11.8 16.6 11.8 26 0 6.5-5.3 11.8-11.8 11.8S7 113 7 106.5zm99.2-47.4H40.1v71.1H21.2v-7.3c8-1.2 14.2-8.1 14.2-16.4 0-9.7-9.4-30.8-16.5-30.8S2.3 96.8 2.3 106.5c0 8.3 6.2 15.2 14.2 16.4v7.3H4.6v4.7h129.9V83.6l-28.3-11.4V59.1z"/><defs><filter id="Adobe_OpacityMaskFilter_30_" filterUnits="userSpaceOnUse" x="87.3" y="108.9" width="9.4" height="4.7"><feColorMatrix values="1 0 0 0 0 0 1 0 0 0 0 0 1 0 0 0 0 0 1 0"/></filter></defs><mask maskUnits="userSpaceOnUse" x="87.3" y="108.9" width="9.4" height="4.7" id="mask-8_1_"><g filter="url(#Adobe_OpacityMaskFilter_30_)"><path id="path-7_1_" class="st1" d="M0 134.9h136.8V.1H0z"/></g></mask><path id="Fill-12_1_" mask="url(#mask-8_1_)" fill-rule="evenodd" clip-rule="evenodd" fill="#fff" d="M87.3 113.6h9.5v-4.7h-9.5z"/><defs><filter id="Adobe_OpacityMaskFilter_31_" filterUnits="userSpaceOnUse" x="68.4" y="108.9" width="9.4" height="4.7"><feColorMatrix values="1 0 0 0 0 0 1 0 0 0 0 0 1 0 0 0 0 0 1 0"/></filter></defs><mask maskUnits="userSpaceOnUse" x="68.4" y="108.9" width="9.4" height="4.7" id="mask-8_2_"><g filter="url(#Adobe_OpacityMaskFilter_31_)"><path id="path-7_2_" class="st1" d="M0 134.9h136.8V.1H0z"/></g></mask><path id="Fill-14_1_" mask="url(#mask-8_2_)" fill-rule="evenodd" clip-rule="evenodd" fill="#fff" d="M68.4 113.6h9.5v-4.7h-9.5z"/><defs><filter id="Adobe_OpacityMaskFilter_32_" filterUnits="userSpaceOnUse" x="49.5" y="108.9" width="9.4" height="4.7"><feColorMatrix values="1 0 0 0 0 0 1 0 0 0 0 0 1 0 0 0 0 0 1 0"/></filter></defs><mask maskUnits="userSpaceOnUse" x="49.5" y="108.9" width="9.4" height="4.7" id="mask-8_3_"><g filter="url(#Adobe_OpacityMaskFilter_32_)"><path id="path-7_3_" class="st1" d="M0 134.9h136.8V.1H0z"/></g></mask><path id="Fill-15_1_" mask="url(#mask-8_3_)" fill-rule="evenodd" clip-rule="evenodd" fill="#fff" d="M49.5 113.6H59v-4.7h-9.5z"/><defs><filter id="Adobe_OpacityMaskFilter_33_" filterUnits="userSpaceOnUse" x="0" y="7.2" width="47" height="48.5"><feColorMatrix values="1 0 0 0 0 0 1 0 0 0 0 0 1 0 0 0 0 0 1 0"/></filter></defs><mask maskUnits="userSpaceOnUse" x="0" y="7.2" width="47" height="48.5" id="mask-8_4_"><g filter="url(#Adobe_OpacityMaskFilter_33_)"><path id="path-7_4_" class="st1" d="M0 134.9h136.8V.1H0z"/></g></mask><path id="Fill-16_1_" d="M11 30.7h8l4.6-11.1 4.5 11.1h8l-6.4 6.8 3 8.7-9.1-4.6-9.1 4.6 3-8.7-6.5-6.8zm-4.9 25L23.5 47 41 55.7l-6-17.1L47 26H31.3L23.6 7.2 15.8 26H0l12 12.7-5.9 17z" mask="url(#mask-8_4_)" fill-rule="evenodd" clip-rule="evenodd" fill="#fff"/><defs><filter id="Adobe_OpacityMaskFilter_34_" filterUnits="userSpaceOnUse" x="89.8" y="7.2" width="47" height="48.5"><feColorMatrix values="1 0 0 0 0 0 1 0 0 0 0 0 1 0 0 0 0 0 1 0"/></filter></defs><mask maskUnits="userSpaceOnUse" x="89.8" y="7.2" width="47" height="48.5" id="mask-8_5_"><g filter="url(#Adobe_OpacityMaskFilter_34_)"><path id="path-7_5_" class="st1" d="M0 134.9h136.8V.1H0z"/></g></mask><path id="Fill-17_1_" d="M108.8 30.7l4.6-11.1 4.5 11.1h8l-6.4 6.8 3 8.7-9.1-4.6-9.1 4.6 3-8.7-6.4-6.8h7.9zm-7 8l-6 17.1 17.4-8.8 17.4 8.8-6-17.1 12-12.7H121l-7.7-18.8-7.7 18.8H89.8l12 12.7z" mask="url(#mask-8_5_)" fill-rule="evenodd" clip-rule="evenodd" fill="#fff"/><defs><filter id="Adobe_OpacityMaskFilter_35_" filterUnits="userSpaceOnUse" x="44.9" y=".1" width="47" height="48.5"><feColorMatrix values="1 0 0 0 0 0 1 0 0 0 0 0 1 0 0 0 0 0 1 0"/></filter></defs><mask maskUnits="userSpaceOnUse" x="44.9" y=".1" width="47" height="48.5" id="mask-8_6_"><g filter="url(#Adobe_OpacityMaskFilter_35_)"><path id="path-7_6_" class="st1" d="M0 134.9h136.8V.1H0z"/></g></mask><path id="Fill-18_1_" d="M55.9 23.6h8l4.6-11.1L73 23.6h8l-6.4 6.8 3 8.7-9.1-4.6-9.1 4.6 3-8.7-6.5-6.8zm-4.9 25l17.4-8.8 17.4 8.8-6-17.1 12-12.7H76.1L68.4.1l-7.7 18.8H44.9l12 12.7-5.9 17z" mask="url(#mask-8_6_)" fill-rule="evenodd" clip-rule="evenodd" fill="#fff"/></g><g id="Group-10" transform="translate(350)"><defs><filter id="Adobe_OpacityMaskFilter_36_" filterUnits="userSpaceOnUse" x="0" y=".4" width="123.9" height="133.9"><feColorMatrix values="1 0 0 0 0 0 1 0 0 0 0 0 1 0 0 0 0 0 1 0"/></filter></defs><mask maskUnits="userSpaceOnUse" x="0" y=".4" width="123.9" height="133.9" id="mask-10_1_"><g filter="url(#Adobe_OpacityMaskFilter_36_)"><path id="path-9_1_" class="st1" d="M0 .4h123.9v134H0z"/></g></mask><path id="Fill-1_4_" d="M116.2 70H93v5.2h20.6v33.5c0 4.3-3.5 7.7-7.7 7.7 0-9.9-8.1-18-18.1-18-10 0-18.1 8.1-18.1 18H54.2c0-9.9-8.1-18-18.1-18-10 0-18.1 8.1-18.1 18-4.3 0-7.7-3.5-7.7-7.7V75.1h43.9V70H7.8c-1.4 0-2.6-1.2-2.6-2.6 0-1.4 1.2-2.6 2.6-2.6h108.4c1.4 0 2.6 1.2 2.6 2.6 0 1.4-1.2 2.6-2.6 2.6zm-28.4 59.2c-7.1 0-12.9-5.8-12.9-12.9s5.8-12.9 12.9-12.9 12.9 5.8 12.9 12.9-5.8 12.9-12.9 12.9zm-51.6 0c-7.1 0-12.9-5.8-12.9-12.9s5.8-12.9 12.9-12.9 12.9 5.8 12.9 12.9-5.8 12.9-12.9 12.9zM7.8 34.4s-.1-.2 0-.3c.1-.2.3-.2.3-.2h11.5L41 55.2l3.6-3.6-8.9-8.9 16.2-19c.1-.1.3-.1.2-.2l18.4 13 4.3 9.3c.1.3.1.6-.1.8L63 59.7H12.5l2.4-5c.8-1.7.8-3.7 0-5.4L7.8 34.4zM75 33.2c.1-.1.2-.3.5-.4l14-4c.3-.1.5 0 .7.1l15.4 13.5c.3.2.4.6.3 1l-5.5 16.3H70l8.6-9.5c1.6-1.7 1.9-4.2 1-6.4l-4.6-10c-.2-.3-.1-.5 0-.6zm28.6-9.3c.1-.2.3-.3.4-.3.1 0 .3 0 .5.1l9.4 6.6c.1.1.2.2.2.3l4.6 13c.1.2.1.5-.1.7l-8.8 15.4h-4.1l5-14.6c.8-2.3.1-4.9-1.7-6.5l-9.6-8.4 4.2-6.3zm20.3 43.5c0-4.3-3.5-7.7-7.7-7.7h-.4l7.3-12.8c.9-1.5 1-3.3.4-5l-4.6-13c-.4-1.1-1.1-2.1-2.1-2.8l-9.4-6.6c-1.3-.9-2.9-1.2-4.4-1-1.6.3-2.9 1.2-3.8 2.5l-3.8 5.7-2-1.7c-1.5-1.3-3.6-1.7-5.5-1.2l-14 4c-1.4.4-2.6 1.3-3.3 2.5l-3.5-2.5v-9.3c0-.3.2-.6.5-.7l9.5-4.4c.2-.1.4-.1.6 0l11 5.8 2.4-4.5-11-5.8c-1.6-.9-3.5-.9-5.2-.1l-9.5 4.4c-.1.1-.2.1-.4.2L49.4 1.6a5.34 5.34 0 00-5.3-.8L31 5.4c-1.1.4-2.1 1.2-2.7 2.2l-8.7 14.2 4.4 2.7 8.7-14.2 13.1-4.7c.1-.1.3 0 .4.1L62 17.5c-.1.3-.1.7-.1 1v5.6l-7-5c-2.2-1.3-5-.9-6.9 1L32.1 39l-8.8-8.8c-1-1-2.3-1.5-3.6-1.5H8.2c-1.9 0-3.6 1-4.7 2.6-1 1.6-1.1 3.6-.3 5.3l7.1 14.8c.1.3.1.7 0 1l-3.5 7.3C3 60.3 0 63.5 0 67.4c0 3.4 2.2 6.2 5.2 7.3v33.9c0 7.1 5.8 12.9 12.9 12.9h.8c.9 3 2.5 5.6 4.7 7.7H10.4v5.2h43.9v-5.2h-5.4c2.2-2.1 3.8-4.8 4.7-7.7h17c.9 3 2.5 5.6 4.7 7.7h-5.4v5.2h43.9v-5.2h-13.2c2.2-2.1 3.8-4.8 4.7-7.7h.8c7.1 0 12.9-5.8 12.9-12.9V74.7c2.8-1.1 4.9-3.9 4.9-7.3z" mask="url(#mask-10_1_)" fill-rule="evenodd" clip-rule="evenodd" fill="#fff"/><defs><filter id="Adobe_OpacityMaskFilter_37_" filterUnits="userSpaceOnUse" x="59" y="69.9" width="6" height="6"><feColorMatrix values="1 0 0 0 0 0 1 0 0 0 0 0 1 0 0 0 0 0 1 0"/></filter></defs><mask maskUnits="userSpaceOnUse" x="59" y="69.9" width="6" height="6" id="mask-12_1_"><g filter="url(#Adobe_OpacityMaskFilter_37_)"><path id="path-11_1_" class="st1" d="M0 134.9h124V.9H0z"/></g></mask><path id="Fill-4_4_" mask="url(#mask-12_1_)" fill-rule="evenodd" clip-rule="evenodd" fill="#fff" d="M59 75.9h6v-6h-6z"/><defs><filter id="Adobe_OpacityMaskFilter_38_" filterUnits="userSpaceOnUse" x="70" y="69.9" width="6" height="6"><feColorMatrix values="1 0 0 0 0 0 1 0 0 0 0 0 1 0 0 0 0 0 1 0"/></filter></defs><mask maskUnits="userSpaceOnUse" x="70" y="69.9" width="6" height="6" id="mask-12_2_"><g filter="url(#Adobe_OpacityMaskFilter_38_)"><path id="path-11_2_" class="st1" d="M0 134.9h124V.9H0z"/></g></mask><path id="Fill-6_3_" mask="url(#mask-12_2_)" fill-rule="evenodd" clip-rule="evenodd" fill="#fff" d="M70 75.9h6v-6h-6z"/><defs><filter id="Adobe_OpacityMaskFilter_39_" filterUnits="userSpaceOnUse" x="31" y="111.9" width="10" height="10"><feColorMatrix values="1 0 0 0 0 0 1 0 0 0 0 0 1 0 0 0 0 0 1 0"/></filter></defs><mask maskUnits="userSpaceOnUse" x="31" y="111.9" width="10" height="10" id="mask-12_3_"><g filter="url(#Adobe_OpacityMaskFilter_39_)"><path id="path-11_3_" class="st1" d="M0 134.9h124V.9H0z"/></g></mask><path id="Fill-7_2_" d="M36 111.9c-2.8 0-5 2.2-5 5s2.2 5 5 5 5-2.2 5-5-2.2-5-5-5" mask="url(#mask-12_3_)" fill-rule="evenodd" clip-rule="evenodd" fill="#fff"/><defs><filter id="Adobe_OpacityMaskFilter_40_" filterUnits="userSpaceOnUse" x="83" y="111.9" width="10" height="10"><feColorMatrix values="1 0 0 0 0 0 1 0 0 0 0 0 1 0 0 0 0 0 1 0"/></filter></defs><mask maskUnits="userSpaceOnUse" x="83" y="111.9" width="10" height="10" id="mask-12_4_"><g filter="url(#Adobe_OpacityMaskFilter_40_)"><path id="path-11_4_" class="st1" d="M0 134.9h124V.9H0z"/></g></mask><path id="Fill-8_3_" d="M88 111.9c-2.8 0-5 2.2-5 5s2.2 5 5 5 5-2.2 5-5-2.2-5-5-5" mask="url(#mask-12_4_)" fill-rule="evenodd" clip-rule="evenodd" fill="#fff"/><defs><filter id="Adobe_OpacityMaskFilter_41_" filterUnits="userSpaceOnUse" x="59" y="128.9" width="6" height="6"><feColorMatrix values="1 0 0 0 0 0 1 0 0 0 0 0 1 0 0 0 0 0 1 0"/></filter></defs><mask maskUnits="userSpaceOnUse" x="59" y="128.9" width="6" height="6" id="mask-12_5_"><g filter="url(#Adobe_OpacityMaskFilter_41_)"><path id="path-11_5_" class="st1" d="M0 134.9h124V.9H0z"/></g></mask><path id="Fill-9_2_" mask="url(#mask-12_5_)" fill-rule="evenodd" clip-rule="evenodd" fill="#fff" d="M59 134.9h6v-6h-6z"/></g><path id="Line" class="st86" d="M168.7 82.7l-.1 4h.4c18.6 1.3 34.1 6.6 46.7 15.8 12.5 9.2 19.7 22.5 21.4 39.7v.2l4-.2-4.1 9.2-4.9-8.8 4-.2v-.1c-1.7-16.9-8.7-29.9-21-39-12.4-9.1-27.8-14.3-46.2-15.6h-.4l-.1 4-8.8-4.8 9.1-4.2z"/><path id="Line_1_" class="st86" d="M381.7 151.4l-4-.2v.4c-1.4 18.6-6.7 34.1-15.8 46.7-9.1 12.6-22.3 19.7-39.7 21.5h-.2l.2 4-9.2-4.1 8.8-4.9.2 4h.1c17.1-1.7 30-8.7 39-21 9-12.4 14.2-27.8 15.6-46.2v-.4l-4-.2 4.9-8.8 4.1 9.2z"/><path id="Line_2_" class="st86" d="M315 341.4l.1-4h-.4c-18.6-1.3-34.1-6.6-46.7-15.8-12.5-9.2-19.7-22.5-21.4-39.7v-.2l-4 .2 4.1-9.2 4.9 8.8-4 .2v.1c1.7 16.9 8.7 29.9 21 39 12.4 9.1 27.8 14.3 46.2 15.6h.4l.1-4 8.8 4.8-9.1 4.2z"/><path id="Line_3_" class="st86" d="M83 246.7l4 .1v-.4c1.3-18.6 6.6-34.1 15.8-46.7 9.2-12.5 22.5-19.7 39.7-21.4h.2l-.2-4 9.2 4.1-8.8 4.9-.2-4h-.1c-16.9 1.7-29.9 8.7-39 21-9.1 12.4-14.3 27.8-15.6 46.2v.4l4 .1-4.8 8.8-4.2-9.1z"/><circle id="Oval" class="st1" cx="214.5" cy="105.4" r="16.5"/><path id="_x24_" class="st86" d="M215.5 113.7v-1.8h.1c.5 0 1-.1 1.4-.3l.3-.1c.7-.3 1.2-.7 1.5-1.2.4-.5.5-1.1.5-1.7 0-.7-.2-1.3-.7-1.8s-1.2-.9-2.3-1.1l-.9-.2v-4c.3.1.7.2 1 .3l.2.1c.5.3 1 .8 1.4 1.6l1.2-.9c-.5-.8-1.1-1.4-1.8-1.8-.5-.3-1-.5-1.7-.5h-.3v-1.8h-1.2v1.8c-.6 0-1.1.2-1.5.3l-.2.1c-.6.3-1.1.7-1.5 1.2-.3.5-.5 1.1-.5 1.7 0 .5.1.9.3 1.3.2.4.5.7.9 1 .4.3 1 .5 1.7.7l.8.2v4c-.2 0-.5-.1-.7-.2l-.2-.1c-.5-.2-.9-.5-1.3-.8-.3-.3-.6-.7-.9-1.2l-1.2 1c.3.5.7.9 1.1 1.3.5.4 1 .7 1.6.9.5.2 1 .3 1.5.3v1.8h1.4zm-1.2-8.6l-.3-.1c-.5-.1-.9-.3-1.2-.4-.3-.2-.5-.4-.6-.6-.1-.2-.2-.5-.2-.8 0-.4.1-.7.3-1 .2-.3.5-.5.9-.7.3-.1.6-.2 1-.2h.1v3.8zm1.2 5.5v-3.7l.7.2c.6.1 1 .3 1.3.6l.1.1c.2.3.4.6.4 1 0 .6-.3 1.1-.8 1.4-.4.1-.9.3-1.7.4z"/><circle id="Oval_1_" class="st1" cx="94.5" cy="205.4" r="16.5"/><path id="_x24__1_" class="st86" d="M95.5 213.7v-1.8h.1c.5 0 1-.1 1.4-.3l.3-.1c.7-.3 1.2-.7 1.5-1.2.4-.5.5-1.1.5-1.7 0-.7-.2-1.3-.7-1.8-.4-.5-1.2-.9-2.3-1.1l-.9-.2v-4c.3.1.7.2 1 .3l.2.1c.5.3 1 .8 1.4 1.6l1.2-.9c-.5-.8-1.1-1.4-1.8-1.8-.5-.3-1-.5-1.7-.5h-.3v-1.8h-1.2v1.8c-.6 0-1.1.2-1.5.3l-.2.1c-.6.3-1.1.7-1.5 1.2-.3.5-.5 1.1-.5 1.7 0 .5.1.9.3 1.3s.5.7.9 1 1 .5 1.7.7l.8.2v4c-.2 0-.5-.1-.7-.2l-.2-.1c-.5-.2-.9-.5-1.3-.8s-.6-.7-.9-1.2l-1.2 1c.3.5.7.9 1.1 1.3s1 .7 1.6.9c.5.2 1 .3 1.5.3v1.8h1.4zm-1.2-8.6l-.3-.1c-.5-.1-.9-.3-1.2-.4s-.5-.4-.6-.6-.2-.5-.2-.8c0-.4.1-.7.3-1 .2-.3.5-.5.9-.7.3-.1.6-.2 1-.2h.1v3.8zm1.2 5.5v-3.7l.7.2c.6.1 1 .3 1.3.6l.1.1c.2.3.4.6.4 1 0 .6-.3 1.1-.8 1.4-.4.1-.9.3-1.7.4z"/><circle id="Oval_2_" class="st1" cx="265.5" cy="325.4" r="16.5"/><path id="_x24__2_" class="st86" d="M266.5 333.7v-1.8h.1c.5 0 1-.1 1.4-.3l.3-.1c.7-.3 1.2-.7 1.5-1.2s.5-1.1.5-1.7c0-.7-.2-1.3-.7-1.8-.4-.5-1.2-.9-2.3-1.1l-.9-.2v-4c.3.1.7.2 1 .3l.2.1c.5.3 1 .8 1.4 1.6l1.2-.9c-.5-.8-1.1-1.4-1.8-1.8-.5-.3-1-.5-1.7-.5h-.3v-1.8h-1.2v1.8c-.6 0-1.1.2-1.5.3l-.2.1c-.6.3-1.1.7-1.5 1.2-.3.5-.5 1.1-.5 1.7 0 .5.1.9.3 1.3.2.4.5.7.9 1 .4.3 1 .5 1.7.7l.8.2v4c-.2 0-.5-.1-.7-.2l-.2-.1c-.5-.2-.9-.5-1.3-.8s-.6-.7-.9-1.2l-1.2 1c.3.5.7.9 1.1 1.3.5.4 1 .7 1.6.9.5.2 1 .3 1.5.3v1.8h1.4zm-1.2-8.6l-.3-.1c-.5-.1-.9-.3-1.2-.4-.3-.2-.5-.4-.6-.6-.1-.2-.2-.5-.2-.8 0-.4.1-.7.3-1 .2-.3.5-.5.9-.7.3-.1.6-.2 1-.2h.1v3.8zm1.2 5.5v-3.7l.7.2c.6.1 1 .3 1.3.6l.1.1c.2.3.4.6.4 1 0 .6-.3 1.1-.8 1.4-.4.1-.9.3-1.7.4z"/><circle id="Oval_3_" class="st1" cx="362.5" cy="195.4" r="16.5"/><path id="_x24__3_" class="st86" d="M363.5 203.7v-1.8h.1c.5 0 1-.1 1.4-.3l.3-.1c.7-.3 1.2-.7 1.5-1.2s.5-1.1.5-1.7c0-.7-.2-1.3-.7-1.8s-1.2-.9-2.3-1.1l-.9-.2v-4c.3.1.7.2 1 .3l.2.1c.5.3 1 .8 1.4 1.6l1.2-.9c-.5-.8-1.1-1.4-1.8-1.8-.5-.3-1-.5-1.7-.5h-.3v-1.8h-1.2v1.8c-.6 0-1.1.2-1.5.3l-.2.1c-.6.3-1.1.7-1.5 1.2-.3.5-.5 1.1-.5 1.7 0 .5.1.9.3 1.3.2.4.5.7.9 1s1 .5 1.7.7l.8.2v4c-.2 0-.5-.1-.7-.2l-.2-.1c-.5-.2-.9-.5-1.3-.8s-.6-.7-.9-1.2l-1.2 1c.3.5.7.9 1.1 1.3.5.4 1 .7 1.6.9.5.2 1 .3 1.5.3v1.8h1.4zm-1.2-8.6l-.3-.1c-.5-.1-.9-.3-1.2-.4-.3-.2-.5-.4-.6-.6s-.2-.5-.2-.8c0-.4.1-.7.3-1 .2-.3.5-.5.9-.7.3-.1.6-.2 1-.2h.1v3.8zm1.2 5.5v-3.7l.7.2c.6.1 1 .3 1.3.6l.1.1c.2.3.4.6.4 1 0 .6-.3 1.1-.8 1.4-.4.1-.9.3-1.7.4z"/></svg>