<svg width="48" height="61" xmlns="http://www.w3.org/2000/svg"><g id="Page-1" stroke="none" stroke-width="1" fill="none" fill-rule="evenodd"><g id="Home" transform="translate(-988 -5631)" stroke="#FF0010" stroke-width="2"><g id="Group-23" transform="translate(989 5632)"><path id="Stroke-1" d="M39 40v16l-3.5-3.692L32 56V40"/><path d="M21 56v-2.667s4-3 4-6.666V44" id="Stroke-3"/><path d="M10 30l-4.667 4.114C3.685 35.782 3 36.732 3 39.257v9.757L3.001 57" id="Stroke-5"/><path id="Stroke-7" d="M0 60v-4h23v4"/><path d="M7 43.531s8.569-7.665 11.012-9.958c2.442-2.293 5.764 2.807 2.852 6.224a57.626 57.626 0 01-2.852 2.49v2.49c0 4.88-4.727 6.223-5.506 6.223" id="Stroke-9"/><path id="Stroke-11" d="M32 46H18"/><path id="Stroke-13" d="M10 40.889V0h36v46h-6.429"/><path id="Stroke-15" d="M18 10h21"/><path id="Stroke-17" d="M18 16h21"/><path id="Stroke-19" d="M18 23h13"/><path d="M43 34.5a6.5 6.5 0 11-6.5-6.5 6.5 6.5 0 016.5 6.5z" id="Stroke-21"/></g></g></g></svg>