<svg width="344" height="87" xmlns="http://www.w3.org/2000/svg"><g id="Page-1" stroke="none" stroke-width="1" fill="none" fill-rule="evenodd"><g id="Home" transform="translate(-345 -4426)"><g id="pioneer-logo" transform="translate(345 4426)"><g id="Logo"><path d="M90 12.548c0 6.662-5.516 12.063-12.32 12.063S65.36 19.21 65.36 12.548C65.36 5.885 70.876.484 77.68.484S90 5.885 90 12.548" id="Fill-1" fill="#0066B8"/><path d="M77.592 30.437c-6.853 0-12.408 5.473-12.408 12.224h-.015c-.149 1.981-1.824 3.544-3.873 3.544-2.049 0-3.724-1.563-3.873-3.544h-.015c0-6.751-5.555-12.224-12.408-12.224-6.8 0-12.321 5.39-12.404 12.072h-.027c-.15 1.98-1.825 3.543-3.874 3.543-2.05 0-3.724-1.562-3.873-3.543h-.01c-.084-6.681-5.603-12.072-12.404-12.072C5.555 30.437 0 35.91 0 42.66v32.115C0 81.526 5.555 87 12.408 87c6.852 0 12.408-5.473 12.408-12.224V61.233c.092-2.035 1.79-3.658 3.88-3.658 2.146 0 3.887 1.715 3.887 3.83h.01v8.369c0 6.751 5.554 12.224 12.407 12.224s12.408-5.473 12.408-12.224v-8.216c0-2.115 1.74-3.83 3.888-3.83 2.147 0 3.888 1.715 3.888 3.83v2.668c0 6.751 5.555 12.224 12.408 12.224S90 70.977 90 64.226V42.66c0-6.751-5.555-12.224-12.408-12.224" id="Fill-4" fill="#03AFF0"/></g><path d="M118.736 53v-8.256h1.728c1.056 0 2.008-.152 2.856-.456.848-.304 1.52-.852 2.016-1.644.496-.792.744-1.94.744-3.444 0-1.2-.184-2.22-.552-3.06-.368-.84-.928-1.48-1.68-1.92-.752-.44-1.712-.66-2.88-.66h-6.528V53h4.296zm1.44-11.256h-1.44v-5.16h1.416c.576 0 1 .112 1.272.336.272.224.444.524.516.9.072.376.108.812.108 1.308 0 .592-.044 1.08-.132 1.464-.088.384-.268.672-.54.864-.272.192-.672.288-1.2.288zM132.772 53V33.56h-4.296V53h4.296zm8.972.288c1.472 0 2.636-.256 3.492-.768.856-.512 1.468-1.248 1.836-2.208.368-.96.552-2.104.552-3.432v-7.224c0-1.344-.184-2.488-.552-3.432a4.228 4.228 0 00-1.836-2.172c-.856-.504-2.02-.756-3.492-.756-1.456 0-2.608.252-3.456.756-.848.504-1.456 1.228-1.824 2.172-.368.944-.552 2.088-.552 3.432v7.224c0 1.328.184 2.472.552 3.432.368.96.976 1.696 1.824 2.208.848.512 2 .768 3.456.768zm0-3.048c-.448 0-.772-.112-.972-.336-.2-.224-.328-.512-.384-.864a6.864 6.864 0 01-.084-1.08V38.6c0-.384.032-.748.096-1.092.064-.344.2-.628.408-.852.208-.224.52-.336.936-.336.448 0 .776.112.984.336.208.224.344.508.408.852s.096.708.096 1.092v9.36c0 .368-.032.728-.096 1.08-.064.352-.2.64-.408.864-.208.224-.536.336-.984.336zM154.412 53V42.92L158.396 53h2.904V33.56h-3.552v9.36l-3.984-9.36h-3.024V53h3.672zm19.076 0v-2.904H169v-5.808h3.384v-2.976H169v-4.824h4.44V33.56h-8.736V53h8.784zm11.228 0v-2.904h-4.488v-5.808h3.384v-2.976h-3.384v-4.824h4.44V33.56h-8.736V53h8.784zm6.74 0v-8.712h1.224L194.816 53h4.44l-2.664-9.408c.64-.304 1.132-.684 1.476-1.14.344-.456.58-.996.708-1.62.128-.624.192-1.336.192-2.136 0-1.36-.268-2.412-.804-3.156-.536-.744-1.284-1.26-2.244-1.548-.96-.288-2.096-.432-3.408-.432h-5.352V53h4.296zm1.2-11.184h-1.2V36.44h1.392c.816 0 1.376.232 1.68.696.304.464.456 1.112.456 1.944 0 .576-.068 1.068-.204 1.476-.136.408-.372.72-.708.936-.336.216-.808.324-1.416.324zM212.928 53V33.56h-4.296V53h4.296zm7.076 0V42.92L223.988 53h2.904V33.56h-3.552v9.36l-3.984-9.36h-3.024V53h3.672zm17.42 0l3.552-19.44h-3.888l-1.944 13.2-2.088-13.2h-3.672L232.888 53h4.536zm14.78 0v-2.904h-4.488v-5.808h3.384v-2.976h-3.384v-4.824h4.44V33.56h-8.736V53h8.784zm7.604.288c1.04 0 1.94-.216 2.7-.648a4.559 4.559 0 001.764-1.764c.416-.744.624-1.572.624-2.484 0-1.344-.292-2.472-.876-3.384a10.937 10.937 0 00-2.148-2.448l-1.608-1.416c-.56-.496-1.012-.972-1.356-1.428-.344-.456-.516-1.044-.516-1.764 0-.336.092-.672.276-1.008.184-.336.476-.504.876-.504.368 0 .64.116.816.348.176.232.292.56.348.984.056.424.092.924.108 1.5l3.696-.456a11.426 11.426 0 00-.204-1.812 5.705 5.705 0 00-.672-1.8c-.328-.568-.808-1.028-1.44-1.38-.632-.352-1.468-.528-2.508-.528-1.68 0-3.008.436-3.984 1.308-.976.872-1.464 2.132-1.464 3.78 0 1.168.252 2.148.756 2.94a9.369 9.369 0 001.86 2.124l1.68 1.464c.656.56 1.176 1.116 1.56 1.668.384.552.576 1.228.576 2.028 0 .336-.068.656-.204.96-.136.304-.428.456-.876.456-.352 0-.652-.112-.9-.336-.248-.224-.44-.592-.576-1.104-.136-.512-.212-1.184-.228-2.016l-3.672.552c.048 1.44.28 2.612.696 3.516.416.904 1.032 1.572 1.848 2.004.816.432 1.832.648 3.048.648zM273.556 53V36.752h2.904V33.56h-10.152v3.192h2.928V53h4.32zm9.428 0V33.56h-4.296V53h4.296zm8.468.288c.848 0 1.52-.18 2.016-.54.496-.36.872-.812 1.128-1.356l.24 1.608h2.832V42.92h-5.616v2.52h1.752v2.28c0 .432-.048.84-.144 1.224-.096.384-.264.696-.504.936-.24.24-.584.36-1.032.36-.432 0-.764-.116-.996-.348-.232-.232-.392-.536-.48-.912a5.31 5.31 0 01-.132-1.212v-9c0-.4.028-.784.084-1.152.056-.368.188-.676.396-.924.208-.248.544-.372 1.008-.372.448 0 .772.108.972.324.2.216.328.5.384.852.056.352.084.736.084 1.152v1.584h4.2v-1.248c0-1.136-.176-2.128-.528-2.976-.352-.848-.94-1.512-1.764-1.992-.824-.48-1.956-.72-3.396-.72-1.472 0-2.636.276-3.492.828-.856.552-1.46 1.332-1.812 2.34-.352 1.008-.528 2.2-.528 3.576v6.528c0 1.328.164 2.5.492 3.516.328 1.016.88 1.804 1.656 2.364.776.56 1.836.84 3.18.84zM303.976 53l.672-4.104h2.856l.648 4.104h3.96l-3.624-19.44h-4.896L299.92 53h4.056zm3.12-6.672h-2.064l1.032-7.584 1.032 7.584zM317.604 53l.288-13.032 2.4 13.032h2.712l2.256-12.936.36 12.936h3.048l-.336-19.44h-4.44l-2.304 11.304-2.136-11.304h-4.608L314.508 53h3.096zm17.492 0l.672-4.104h2.856l.648 4.104h3.96l-3.624-19.44h-4.896L331.04 53h4.056zm3.12-6.672h-2.064l1.032-7.584 1.032 7.584zM118.76 78V58.56h-4.296V78h4.296zm7.076 0V67.92L129.82 78h2.904V58.56h-3.552v9.36l-3.984-9.36h-3.024V78h3.672zm15.26 0c1.68 0 2.988-.216 3.924-.648.936-.432 1.596-1.108 1.98-2.028.384-.92.576-2.108.576-3.564v-7.056c0-1.44-.192-2.612-.576-3.516-.384-.904-1.048-1.568-1.992-1.992-.944-.424-2.264-.636-3.96-.636h-4.92V78h4.968zm0-2.976h-.672V61.56h.648c.64 0 1.104.08 1.392.24.288.16.476.416.564.768.088.352.132.816.132 1.392v8.472c0 .576-.036 1.056-.108 1.44-.072.384-.252.672-.54.864-.288.192-.76.288-1.416.288zm15.164 3.264c1.472 0 2.636-.256 3.492-.768.856-.512 1.468-1.248 1.836-2.208.368-.96.552-2.104.552-3.432v-7.224c0-1.344-.184-2.488-.552-3.432a4.228 4.228 0 00-1.836-2.172c-.856-.504-2.02-.756-3.492-.756-1.456 0-2.608.252-3.456.756-.848.504-1.456 1.228-1.824 2.172-.368.944-.552 2.088-.552 3.432v7.224c0 1.328.184 2.472.552 3.432.368.96.976 1.696 1.824 2.208.848.512 2 .768 3.456.768zm0-3.048c-.448 0-.772-.112-.972-.336-.2-.224-.328-.512-.384-.864a6.864 6.864 0 01-.084-1.08V63.6c0-.384.032-.748.096-1.092.064-.344.2-.628.408-.852.208-.224.52-.336.936-.336.448 0 .776.112.984.336.208.224.344.508.408.852s.096.708.096 1.092v9.36c0 .368-.032.728-.096 1.08-.064.352-.2.64-.408.864-.208.224-.536.336-.984.336zM168.928 78V67.92L172.912 78h2.904V58.56h-3.552v9.36l-3.984-9.36h-3.024V78h3.672zm19.076 0v-2.904h-4.488v-5.808h3.384v-2.976h-3.384v-4.824h4.44V58.56h-8.736V78h8.784zm7.604.288c1.04 0 1.94-.216 2.7-.648a4.559 4.559 0 001.764-1.764c.416-.744.624-1.572.624-2.484 0-1.344-.292-2.472-.876-3.384a10.937 10.937 0 00-2.148-2.448l-1.608-1.416c-.56-.496-1.012-.972-1.356-1.428-.344-.456-.516-1.044-.516-1.764 0-.336.092-.672.276-1.008.184-.336.476-.504.876-.504.368 0 .64.116.816.348.176.232.292.56.348.984.056.424.092.924.108 1.5l3.696-.456a11.426 11.426 0 00-.204-1.812 5.705 5.705 0 00-.672-1.8c-.328-.568-.808-1.028-1.44-1.38-.632-.352-1.468-.528-2.508-.528-1.68 0-3.008.436-3.984 1.308-.976.872-1.464 2.132-1.464 3.78 0 1.168.252 2.148.756 2.94a9.369 9.369 0 001.86 2.124l1.68 1.464c.656.56 1.176 1.116 1.56 1.668.384.552.576 1.228.576 2.028 0 .336-.068.656-.204.96-.136.304-.428.456-.876.456-.352 0-.652-.112-.9-.336-.248-.224-.44-.592-.576-1.104-.136-.512-.212-1.184-.228-2.016l-3.672.552c.048 1.44.28 2.612.696 3.516.416.904 1.032 1.572 1.848 2.004.816.432 1.832.648 3.048.648zM207.22 78V58.56h-4.296V78h4.296zm6.524 0l.672-4.104h2.856L217.92 78h3.96l-3.624-19.44h-4.896L209.688 78h4.056zm3.12-6.672H214.8l1.032-7.584 1.032 7.584z" id="PIONEERINVESTIGAMAINDONESIA" fill="#0066B8" fill-rule="nonzero"/></g></g></g></svg>