<svg width="143" height="127" xmlns="http://www.w3.org/2000/svg" xmlns:xlink="http://www.w3.org/1999/xlink"><defs><path id="path-1" d="M0 127h143V0H0z"/></defs><g id="Page-1" stroke="none" stroke-width="1" fill="none" fill-rule="evenodd"><g id="Home" transform="translate(-1300 -3499)"><g id="Group-34" transform="translate(1300 3499)"><path id="Fill-1" fill="#FF0010" d="M60 45h6v-6h-6z"/><path id="Fill-2" fill="#FF0010" d="M50 45h6v-6h-6z"/><path id="Fill-3" fill="#FF0010" d="M39 45h6v-6h-6z"/><path id="Fill-4" fill="#FF0010" d="M16 45h8v-6h-8z"/><path id="Fill-5" fill="#FF0010" d="M29 45h6v-6h-6z"/><path id="Fill-6" fill="#FF0010" d="M16 91h8v-6h-8z"/><path id="Fill-7" fill="#FF0010" d="M77 109h6v-6h-6z"/><path id="Fill-8" fill="#FF0010" d="M66 109h5v-6h-5z"/><path id="Fill-9" fill="#FF0010" d="M13 109h48v-6H13z"/><path id="Fill-10" fill="#FF0010" d="M15 119h6v-6h-6z"/><path id="Fill-11" fill="#FF0010" d="M26 119h6v-6h-6z"/><path id="Fill-12" fill="#FF0010" d="M36 119h6v-6h-6z"/><path id="Fill-13" fill="#FF0010" d="M116 88h6v-6h-6z"/><path id="Fill-14" fill="#FF0010" d="M127 51h6v-6h-6z"/><path id="Fill-15" fill="#FF0010" d="M137 51h6v-6h-6z"/><path id="Fill-16" fill="#FF0010" d="M127 88h6v-6h-6z"/><path id="Fill-17" fill="#FF0010" d="M137 88h6v-6h-6z"/><path id="Fill-18" fill="#FF0010" d="M105 19h6v-6h-6z"/><path id="Fill-19" fill="#FF0010" d="M116 19h6v-6h-6z"/><path id="Fill-20" fill="#FF0010" d="M80 19h6v-6h-6z"/><path id="Fill-21" fill="#FF0010" d="M127 19h6v-6h-6z"/><path d="M127.111 121.708c-5.842 0-10.592-4.746-10.592-10.583s4.75-10.583 10.592-10.583c5.842 0 10.593 4.746 10.593 10.583s-4.751 10.583-10.593 10.583m0-26.458c-5.866 0-10.984 3.199-13.738 7.938H87.389v5.291h24.072a15.855 15.855 0 00-.239 2.646c0 .902.093 1.783.239 2.646H47.667v5.291h65.706c2.754 4.74 7.872 7.938 13.738 7.938 8.763 0 15.889-7.12 15.889-15.875 0-8.755-7.126-15.875-15.889-15.875" id="Fill-22" fill="#FF0010"/><path d="M92.685 71.438c5.842 0 10.593 4.746 10.593 10.583s-4.751 10.583-10.593 10.583-10.592-4.746-10.592-10.583 4.75-10.584 10.592-10.584M76.796 82.022c0 .902.093 1.783.239 2.646H29.14v5.291h49.807c2.754 4.739 7.873 7.938 13.738 7.938 8.763 0 15.89-7.12 15.89-15.875 0-8.755-7.127-15.875-15.89-15.875-5.865 0-10.984 3.199-13.738 7.937H0v5.292h77.035a15.855 15.855 0 00-.239 2.646" id="Fill-24" fill="#FF0010"/><path d="M105.926 37.042c5.842 0 10.593 4.746 10.593 10.583s-4.751 10.583-10.593 10.583-10.593-4.746-10.593-10.583 4.751-10.583 10.593-10.583m-13.739 2.645H71.5v5.292h18.775a15.855 15.855 0 00-.238 2.646c0 .902.093 1.783.238 2.646H7.945v5.291h84.242c2.754 4.74 7.873 7.938 13.739 7.938 8.763 0 15.889-7.12 15.889-15.875 0-8.755-7.126-15.875-15.89-15.875-5.865 0-10.984 3.199-13.738 7.938" id="Fill-26" fill="#FF0010"/><path d="M82.093 5.292c5.841 0 10.592 4.746 10.592 10.583s-4.75 10.583-10.592 10.583c-5.842 0-10.593-4.746-10.593-10.583S76.25 5.292 82.093 5.292m0 26.458c8.762 0 15.888-7.12 15.888-15.875C97.981 7.12 90.855 0 82.093 0c-4.69 0-8.898 2.053-11.809 5.292H34.43v5.291h32.7a15.732 15.732 0 00-.927 5.292c0 1.857.336 3.633.927 5.292H2.648v5.291h67.636c2.91 3.239 7.119 5.292 11.809 5.292" id="Fill-28" fill="#FF0010"/><mask id="mask-2" fill="#fff"><use xlink:href="#path-1"/></mask><path id="Fill-30" fill="#FF0010" mask="url(#mask-2)" d="M10.593 10.583h18.534V5.292H10.593z"/><path id="Fill-32" fill="#FF0010" mask="url(#mask-2)" d="M90.037 84.667h5.296v-5.292h-5.296z"/></g></g></g></svg>