<svg width="34" height="54" xmlns="http://www.w3.org/2000/svg"><g id="Page-1" stroke="none" stroke-width="1" fill="none" fill-rule="evenodd" stroke-linejoin="round"><g id="Home" transform="translate(-1207 -7468)" stroke="#FF0010" stroke-width="2"><g id="Group-17" transform="translate(1208 7469)"><path id="Stroke-1" d="M24 24.973v-4.54h8L16 0 0 20.432h6.857V42"/><path id="Stroke-3" d="M6.5 44v2"/><path id="Stroke-4" d="M6.857 48.478v2.261"/><path id="Stroke-6" d="M1.143 33.783v13.565"/><path d="M18.286 27c-1.894 0-3.429 1.518-3.429 3.391s1.535 3.392 3.429 3.392c1.893 0 3.428-1.519 3.428-3.392S20.18 27 18.286 27z" id="Stroke-8"/><path d="M28.571 42.826h0c-1.893 0-3.428-1.518-3.428-3.391s1.535-3.392 3.428-3.392c1.894 0 3.429 1.519 3.429 3.392s-1.535 3.391-3.429 3.391z" id="Stroke-10"/><path id="Stroke-12" d="M17.143 42.826L29.714 27"/><path id="Stroke-14" d="M24 45.087V53"/></g></g></g></svg>