<svg width="54" height="63" xmlns="http://www.w3.org/2000/svg"><g id="Page-1" stroke="none" stroke-width="1" fill="none" fill-rule="evenodd"><g id="Home" transform="translate(-988 -5513)" stroke="#FF0010" stroke-width="2"><g id="Group-19" transform="translate(989 5514)"><path d="M45.333 7H52V5.6C52 2.507 49.612 0 46.667 0H32" id="Stroke-1"/><path id="Stroke-3" d="M7 13.5h28"/><path id="Stroke-5" d="M7 18.5h28"/><path id="Stroke-7" d="M7 24.5h17"/><path id="Stroke-9" d="M11 40.5h7"/><path id="Stroke-11" d="M7 40.5h3"/><path d="M25.13 51H0V5.368C0 2.404 2.369 0 5.29 0H47h-.03C43.82 0 41 2.314 41 5.536V51h-7.935" id="Stroke-13"/><path id="Stroke-15" d="M33 44v16l-4-2.667L25 60V44"/><path d="M36 38.5a6.5 6.5 0 11-6.5-6.5 6.5 6.5 0 016.5 6.5z" id="Stroke-17"/></g></g></g></svg>