<svg width="62" height="62" xmlns="http://www.w3.org/2000/svg" xmlns:xlink="http://www.w3.org/1999/xlink"><defs><path id="path-1" d="M0 62h62V0H0z"/></defs><g id="Page-1" stroke="none" stroke-width="1" fill="none" fill-rule="evenodd"><g id="Home" transform="translate(-351 -5512)"><g id="Group-21" transform="translate(351 5512)"><path id="Stroke-1" stroke="#FF0010" stroke-width="2" d="M14 51.5h9"/><path d="M21.565 10.783H56.61a4.043 4.043 0 014.043 4.043v45.826H25.61V14.826a4.043 4.043 0 10-8.087 0v32.348a4.043 4.043 0 11-8.087 0V5.39a4.043 4.043 0 10-8.087 0v6.74H6.74" id="Stroke-2" stroke="#FF0010" stroke-width="2"/><path d="M6.74 1.348h32.347A4.043 4.043 0 0143.13 5.39v2.696" id="Stroke-4" stroke="#FF0010" stroke-width="2"/><path id="Stroke-6" stroke="#FF0010" stroke-width="2" d="M43.13 25.609h13.479"/><path id="Stroke-8" stroke="#FF0010" stroke-width="2" d="M43.13 31h5.392"/><path id="Stroke-10" stroke="#FF0010" stroke-width="2" d="M43.13 20.217h13.479"/><path id="Stroke-12" stroke="#FF0010" stroke-width="2" stroke-linejoin="round" d="M31 56.609v-12.13h5.391v12.13"/><path id="Stroke-14" stroke="#FF0010" stroke-width="2" stroke-linejoin="round" d="M40.435 56.609V39.087h5.391v17.522"/><path id="Stroke-16" stroke="#FF0010" stroke-width="2" stroke-linejoin="round" d="M49.87 56.609v-8.087h5.39v8.087"/><mask id="mask-2" fill="#fff"><use xlink:href="#path-1"/></mask><path id="Stroke-18" stroke="#FF0010" stroke-width="2" mask="url(#mask-2)" d="M31 31h8.087V20.217H31z"/></g></g></g></svg>