<svg width="50" height="51" xmlns="http://www.w3.org/2000/svg"><g id="Page-1" stroke="none" stroke-width="1" fill="none" fill-rule="evenodd" stroke-linejoin="round"><g id="Home" transform="translate(-778 -7356)" stroke="#FF0010" stroke-width="2"><g id="Group-13" transform="translate(779 7357)"><path d="M27.495 44.775c-3.57 2.446-6.561 4.112-6.995 4.225C19.343 48.7 0 37.353 0 29.628V7.977c5.783 0 18.476-5.182 20.5-7.977C22.524 2.795 35.217 7.977 41 7.977v10.256" id="Stroke-1" stroke-linecap="round"/><path d="M38.91 40h7.959c.915 0 1.45-1.18.922-2.036L36.422 19.547c-.45-.73-1.395-.73-1.844 0l-11.37 18.417c-.527.856.008 2.036.923 2.036h7.96" id="Stroke-3"/><path id="Stroke-5" d="M35 27v9"/><path id="Stroke-7" d="M35 39v2"/><path d="M20 42c-3.059-1.708-14-8.854-14-13.901V18" id="Stroke-9" stroke-linecap="round"/><path d="M11 11.565c3.964-1.27 8.11-3.272 9.056-4.565C21.532 9.016 30.784 12.755 35 12.755V15" id="Stroke-11" stroke-linecap="round"/></g></g></g></svg>