<svg width="62" height="59" xmlns="http://www.w3.org/2000/svg"><g id="Page-1" stroke="none" stroke-width="1" fill="none" fill-rule="evenodd"><g id="Home" transform="translate(-352 -5635)" stroke="#FF0010" stroke-width="2"><g id="Group-15" transform="translate(353 5636)"><path id="Stroke-1" d="M30 35.5h-1"/><path d="M8.178 25.528c-.68-.75-1.36-1.5-1.36-2.58 0-2.167 2.763-3.888 2.763-6.055 0-2.166-4.047-7.246-2.249-8.792 1.67-1.663 7.169 2.38 9.512 2.38 2.342 0 4.212-2.852 6.555-2.852 2.342 0 3.95 2.853 6.293 2.853 2.341 0 3.949-2.852 6.292-2.852 2.341 0 4.212 2.852 6.555 2.852s8.735-4.042 10.194-2.377c1.57 1.545-2.243 6.63-2.243 8.796 0 2.167 2.692 3.587 2.692 5.753 0 2.165-2.692 3.587-2.692 5.753 0 2.167 3.813 7.382 2.243 8.827-1.459 1.557-7.851-2.224-10.194-2.224-2.343 0-4.214 2.669-6.555 2.669-2.343 0-4.213-2.669-6.557-2.669" id="Stroke-2"/><path id="Stroke-4" d="M21.818 39.044v16.39l-4.09-4.097-4.092 4.097v-16.39"/><path d="M24.545 33.58c0 3.773-3.051 6.83-6.818 6.83-3.765 0-6.818-3.058-6.818-6.83 0-3.772 3.053-6.829 6.818-6.829 3.767 0 6.818 3.058 6.818 6.83z" id="Stroke-6"/><path id="Stroke-8" d="M20.455 17.19h19.09"/><path id="Stroke-10" d="M24.545 22.654h10.91"/><path id="Stroke-12" d="M9.545 44.507H0V.8h60v43.707H25.91"/></g></g></g></svg>