<svg width="33" height="27" xmlns="http://www.w3.org/2000/svg" xmlns:xlink="http://www.w3.org/1999/xlink"><defs><path id="path-1" d="M0 0h33v27H0z"/></defs><g id="Page-1" stroke="none" stroke-width="1" fill="none" fill-rule="evenodd"><g id="Home" transform="translate(-1204 -11022)"><g id="Group-3" transform="translate(1204 11022)"><mask id="mask-2" fill="#fff"><use xlink:href="#path-1"/></mask><path d="M2.269 11.623c8.858-3.81 14.765-6.322 17.72-7.536C28.43.622 30.182.02 31.325 0c.251-.004.813.057 1.177.349.308.247.392.579.433.812.04.234.09.766.05 1.182-.457 4.743-2.436 16.255-3.442 21.568-.426 2.248-1.265 3.002-2.077 3.076-1.764.16-3.104-1.152-4.814-2.258-2.674-1.73-4.185-2.808-6.781-4.497-3-1.952-1.055-3.024.655-4.778.447-.459 8.222-7.44 8.373-8.074.018-.079.036-.374-.142-.53-.178-.157-.44-.103-.629-.06-.268.06-4.54 2.848-12.817 8.363-1.213.823-2.312 1.223-3.296 1.202-1.085-.023-3.172-.605-4.723-1.104-1.903-.61-3.416-.933-3.284-1.97.068-.54.822-1.093 2.26-1.658" id="Fill-1" fill="#FFF" mask="url(#mask-2)"/></g></g></g></svg>