<svg width="29" height="24" xmlns="http://www.w3.org/2000/svg"><g id="Page-1" stroke="none" stroke-width="1" fill="none" fill-rule="evenodd"><g id="Home" transform="translate(-1045 -11024)" fill="#DBDBDB"><g id="Icon/LightGrey/Twitter" transform="translate(1045 11024)"><path d="M9.12 24c10.944 0 16.93-9.235 16.93-17.242 0-.263 0-.524-.018-.784A12.212 12.212 0 0029 2.837a11.7 11.7 0 01-3.416.954A6.07 6.07 0 0028.2.44a11.794 11.794 0 01-3.78 1.47 5.88 5.88 0 00-8.418-.262 6.14 6.14 0 00-1.72 5.79C9.498 7.193 5.04 4.892 2.018 1.108c-1.579 2.768-.771 6.31 1.843 8.088a5.824 5.824 0 01-2.701-.758v.077c.001 2.884 1.998 5.368 4.773 5.94a5.815 5.815 0 01-2.685.103c.779 2.47 3.013 4.16 5.558 4.21A11.8 11.8 0 010 21.277a16.627 16.627 0 009.12 2.718" id="Twitter"/></g></g></g></svg>