<svg width="29" height="27" xmlns="http://www.w3.org/2000/svg" xmlns:xlink="http://www.w3.org/1999/xlink"><defs><path id="path-1" d="M0 0h29v27H0z"/></defs><g id="Page-1" stroke="none" stroke-width="1" fill="none" fill-rule="evenodd"><g id="Home" transform="translate(-513 -7863)"><g id="Group-3" transform="translate(513 7863)"><mask id="mask-2" fill="#fff"><use xlink:href="#path-1"/></mask><path d="M7.535 26.786c-.895.47-2.01.14-2.49-.735a1.77 1.77 0 01-.192-1.155l1.33-7.533-5.635-5.338a1.774 1.774 0 01-.02-2.545 1.85 1.85 0 011.044-.519L9.36 7.862l3.48-6.86c.459-.896 1.573-1.258 2.49-.81.357.176.648.46.827.81l3.48 6.86 7.788 1.1c1.006.143 1.702 1.057 1.554 2.04a1.79 1.79 0 01-.53 1.023l-5.637 5.335 1.33 7.533c.173.981-.498 1.912-1.499 2.08a1.868 1.868 0 01-1.183-.187l-6.964-3.553-6.962 3.553z" id="Fill-1" fill="#FFF" mask="url(#mask-2)"/></g></g></g></svg>