<svg width="29" height="29" xmlns="http://www.w3.org/2000/svg"><g id="Page-1" stroke="none" stroke-width="1" fill="none" fill-rule="evenodd" stroke-linecap="round" stroke-linejoin="round"><g id="01_Index" transform="translate(-795 -1149)" stroke="#958671" stroke-width="1.5"><g id="Check-mark,-Сertificate" transform="translate(796 1150)"><path d="M.743 15.697l1.792 2.346.387 2.92a3.617 3.617 0 003.109 3.111l2.928.391 2.345 1.791a3.617 3.617 0 004.393 0l2.347-1.792h-.003l2.922-.387a3.617 3.617 0 003.111-3.108l.39-2.928c0 .002.906-1.185 1.793-2.344a3.618 3.618 0 000-4.394l-1.79-2.347-.387-2.92a3.617 3.617 0 00-3.108-3.111l-2.93-.39L15.697.744a3.617 3.617 0 00-4.393 0l-2.347 1.79h.003l-2.922.389a3.617 3.617 0 00-3.111 3.108l-.392 2.928c0-.002-.906 1.185-1.792 2.344a3.62 3.62 0 000 4.394h0z" id="Path"/><path id="Path" d="M18 11l-4.998 5L10 13"/></g></g></g></svg>