<svg width="20" height="20" xmlns="http://www.w3.org/2000/svg"><g id="Page-1" stroke="none" stroke-width="1" fill="none" fill-rule="evenodd"><g id="01_Index" transform="translate(-1095 -5058)" fill="#768C97"><g id="Group-3" transform="translate(1095 5058)"><path d="M6.624 5.597h.45c.178 0 .355.016.533.403.209.468.676 1.645.725 1.758a.425.425 0 01.016.42c-.08.16-.113.257-.241.403-.113.145-.258.306-.355.42-.113.112-.242.241-.097.483s.613 1.016 1.322 1.645c.902.806 1.676 1.065 1.917 1.178.242.112.371.097.516-.065.146-.161.596-.694.758-.936.16-.241.322-.193.532-.112.225.08 1.385.66 1.627.774.242.113.403.177.451.274.065.13.065.597-.129 1.161-.193.549-1.16 1.097-1.611 1.13-.435.032-.838.193-2.853-.597-2.417-.952-3.948-3.436-4.06-3.597-.114-.162-.968-1.29-.968-2.468 0-1.177.613-1.742.838-1.984a.843.843 0 01.629-.29m3.368-3.178A7.58 7.58 0 003.433 13.79c.258.452.322.984.193 1.484l-.467 1.694 1.805-.468c.161-.048.322-.064.484-.064.322 0 .644.08.918.242a7.844 7.844 0 003.626.903c4.174 0 7.574-3.403 7.574-7.581 0-2.032-.79-3.935-2.224-5.371a7.517 7.517 0 00-5.35-2.21m0-1.451c2.417 0 4.69.936 6.382 2.645 1.708 1.71 2.659 3.984 2.643 6.387 0 4.984-4.045 9.032-9.025 9.032a9.185 9.185 0 01-4.32-1.097.523.523 0 00-.224-.064c-.05 0-.081 0-.13.016l-3.432.903a.47.47 0 01-.467-.129.47.47 0 01-.13-.467l.903-3.323a.493.493 0 00-.048-.37A9.101 9.101 0 01.967 10C.967 5.016 5.012.968 9.992.968m0-.968C4.48 0 0 4.484 0 10a9.86 9.86 0 001.24 4.823l-.853 3.129c-.145.5 0 1.016.37 1.387s.887.516 1.387.387l3.255-.855A9.935 9.935 0 0010.009 20C15.518 20 20 15.516 20 10a9.908 9.908 0 00-2.917-7.065A10.009 10.009 0 009.992 0" id="Fill-1"/></g></g></g></svg>