<svg width="105" height="105" xmlns="http://www.w3.org/2000/svg"><g id="Page-1" stroke="none" stroke-width="1" fill="none" fill-rule="evenodd" stroke-linecap="round" stroke-linejoin="round"><g id="01_Index" transform="translate(-1058 -3565)" stroke="#FFF" stroke-width="8"><g id="Video,-Movies.14" transform="translate(1062 3569)"><path d="M97 48.5h0C97 75.288 75.288 97 48.5 97h0C21.712 97 0 75.288 0 48.5h0C0 21.712 21.712 0 48.5 0h0C75.288 0 97 21.712 97 48.5z" id="Path" stroke-dasharray="1,18"/><path d="M43.693 33.612l20.132 11.654a4.293 4.293 0 010 7.468L43.687 64.388C40.733 66.101 37 64.015 37 60.655v-23.31c0-3.36 3.739-5.446 6.693-3.733h0z" id="Path"/></g></g></g></svg>