<svg width="20" height="15" xmlns="http://www.w3.org/2000/svg"><g id="Page-1" stroke="none" stroke-width="1" fill="none" fill-rule="evenodd" stroke-linecap="round" stroke-linejoin="round"><g id="Blog-Post" transform="translate(-314 -1003)" stroke="#E9941E" stroke-width="1.5"><g id="Quote" transform="translate(315 1004)"><path d="M11 6h5.833C17.477 6 18 6.523 18 7.167v4.666c0 .644-.523 1.167-1.167 1.167h-4.666A1.167 1.167 0 0111 11.833V6" id="Stroke-1"/><path d="M11 7c0-4.667.75-5.444 3-7" id="Stroke-3"/><path d="M0 6h5.833C6.477 6 7 6.523 7 7.167v4.666C7 12.477 6.477 13 5.833 13H1.167A1.167 1.167 0 010 11.833V6" id="Stroke-5"/><path d="M0 7c0-4.667.75-5.444 3-7" id="Stroke-7"/></g></g></g></svg>