<svg width="1600" height="140" xmlns="http://www.w3.org/2000/svg"><g id="Page-1" stroke="none" stroke-width="1" fill="none" fill-rule="evenodd"><g id="01_Index" transform="translate(0 -1494)"><g id="Group-7" transform="translate(-10 1494)"><path d="M0 1c176.325 66.415 311.04 99.623 404.146 99.623 133.52 0 200.851-52.65 388.862-52.65 188.01 0 348.477 35.643 480.28 35.643 87.869 0 201.106-23.655 339.712-70.966V143H0V1z" id="Curve-2" fill="#958671" opacity=".679" transform="matrix(1 0 0 -1 0 144)"/><path d="M0 49.854c113 19.409 216.052 29.113 309.158 29.113 133.52 0 252.859-65.703 440.87-65.703 188.01 0 350.123 44.747 481.926 44.747 87.868 0 214.884-19.337 381.046-58.011v95H0V49.854z" id="curve-1" fill="#FFF" transform="rotate(-180 806.5 47.5)"/></g></g></g></svg>