<svg width="82" height="21" xmlns="http://www.w3.org/2000/svg"><g id="Page-1" stroke="none" stroke-width="1" fill="none" fill-rule="evenodd"><g id="01_Index" transform="translate(-33 -442)" fill="#B7AB95" fill-rule="nonzero"><path d="M41.598 462.422c.164 0 .314-.027.45-.082.138-.055.288-.137.452-.246.273-.219.438-.52.492-.903.055-.382-.054-.738-.328-1.066l-5.198-6.48h75.909c.328 0 .616-.1.864-.302l.12-.109c.274-.273.41-.601.41-.984s-.136-.71-.41-.984a1.343 1.343 0 00-.984-.41h-75.91l5.2-6.481c.238-.287.352-.595.34-.924l-.013-.142c-.054-.383-.219-.684-.492-.903a1.661 1.661 0 00-1.066-.287 1.134 1.134 0 00-.903.533l-7.054 8.696a1.721 1.721 0 00-.247.902c0 .328.083.629.247.902l7.054 8.696a1.328 1.328 0 001.067.574z" id=""/></g></g></svg>