<svg width="1085" height="236" xmlns="http://www.w3.org/2000/svg"><g id="Page-1" stroke="none" stroke-width="1" fill="none" fill-rule="evenodd"><g id="01_Index" transform="translate(-251 -4631)"><g id="Group-10" transform="translate(251 4631)"><path d="M1073.423 157.527l3.437 4.22c.301.37.761.565 1.229.52l5.348-.503c1.18-.111 1.971 1.208 1.34 2.233l-2.862 4.648a1.49 1.49 0 00-.103 1.356l2.12 5.047c.468 1.113-.515 2.29-1.662 1.994l-5.207-1.348a1.405 1.405 0 00-1.293.317l-4.037 3.624c-.89.799-2.289.207-2.368-1.002l-.355-5.48a1.467 1.467 0 00-.696-1.16l-4.616-2.808c-1.017-.619-.9-2.163.2-2.612l4.987-2.04a1.45 1.45 0 00.863-1.035l1.184-5.357c.26-1.182 1.733-1.545 2.49-.614" id="Fill-6" fill="#F5F6F5"/><path d="M694.843 100.757l2.788 8.968a2.5 2.5 0 001.644 1.644l8.968 2.788c1.977.614 2.39 3.229.7 4.425l-7.667 5.421a2.498 2.498 0 00-1.055 2.073l.12 9.39c.026 2.07-2.333 3.272-3.992 2.033l-7.526-5.617a2.502 2.502 0 00-2.297-.363l-8.893 3.016c-1.96.665-3.833-1.207-3.168-3.168l3.016-8.894a2.497 2.497 0 00-.364-2.296l-5.617-7.526c-1.237-1.659-.035-4.018 2.035-3.992l9.39.12a2.499 2.499 0 002.071-1.055l5.423-7.668c1.195-1.69 3.81-1.275 4.424.701" id="Fill-7" fill="#768C97"/><path d="M626.58 220.366l2.5 2.936c.22.257.554.392.894.362l3.89-.35c.857-.078 1.433.84.974 1.554l-2.081 3.233a.996.996 0 00-.076.943l1.542 3.511c.34.774-.374 1.594-1.208 1.386l-3.787-.937a1.06 1.06 0 00-.94.221l-2.936 2.521c-.648.556-1.666.144-1.723-.697l-.258-3.813a1.018 1.018 0 00-.505-.807l-3.358-1.952a1.008 1.008 0 01.145-1.818l3.626-1.42c.318-.124.553-.392.628-.72l.862-3.726c.19-.822 1.26-1.074 1.81-.427" id="Fill-8" fill="#768C97"/><path d="M467.08 184.904l1.442 8.457a2.29 2.29 0 001.299 1.69l7.847 3.617c1.731.797 1.787 3.214.096 4.09l-7.671 3.972a2.288 2.288 0 00-1.22 1.747l-1.045 8.514c-.231 1.878-2.534 2.678-3.896 1.354l-6.184-6.002a2.319 2.319 0 00-2.052-.61l-8.495 1.646c-1.872.362-3.351-1.56-2.503-3.255l3.85-7.682a2.267 2.267 0 00-.05-2.123l-4.203-7.498c-.927-1.653.461-3.641 2.349-3.364l8.562 1.254c.75.11 1.505-.153 2.022-.703l5.896-6.28c1.3-1.383 3.638-.689 3.956 1.176" id="Fill-10" fill="#F0F3F1"/><path d="M530.251 110.779l5.67 6.452c.496.565 1.239.85 1.986.761l8.534-1.008c1.881-.222 3.201 1.807 2.233 3.435l-4.39 7.38a2.282 2.282 0 00-.111 2.123l3.597 7.797c.793 1.72-.731 3.601-2.58 3.184l-8.382-1.89a2.29 2.29 0 00-2.054.55l-6.31 5.827c-1.392 1.285-3.654.418-3.829-1.466l-.79-8.55a2.282 2.282 0 00-1.16-1.782l-7.497-4.196c-1.652-.925-1.526-3.342.214-4.09l7.894-3.394a2.284 2.284 0 001.338-1.652l1.678-8.42c.37-1.857 2.71-2.483 3.96-1.061" id="Fill-11" fill="#958671"/><path d="M357.97 133.747l.742 3.496c.065.306.27.56.548.677l3.171 1.34c.699.297.771 1.304.122 1.705l-2.947 1.82a.956.956 0 00-.445.754l-.238 3.573c-.053.788-.945 1.17-1.51.648l-2.563-2.372a.877.877 0 00-.823-.21l-3.319.867c-.731.19-1.354-.58-1.054-1.304l1.361-3.286a.992.992 0 00-.062-.884l-1.813-3.037c-.4-.67.108-1.53.858-1.454l3.405.341c.297.03.59-.096.784-.336l2.197-2.744c.486-.605 1.422-.365 1.586.406" id="Fill-12" fill="#958671"/><path d="M864.97 115.747l.742 3.496c.066.306.27.559.548.677l3.171 1.342c.7.295.77 1.302.121 1.703l-2.946 1.82a.959.959 0 00-.445.754l-.239 3.573c-.052.788-.944 1.171-1.509.648l-2.563-2.372a.88.88 0 00-.823-.21l-3.319.867c-.73.19-1.354-.58-1.054-1.304l1.361-3.286a.992.992 0 00-.062-.884l-1.813-3.037c-.4-.67.108-1.529.858-1.454l3.405.341a.89.89 0 00.783-.336l2.2-2.744c.483-.604 1.42-.366 1.584.406" id="Fill-13" fill="#D8D3C4"/><path d="M157.97 172.746l.743 3.497c.064.307.269.56.546.676l3.171 1.342c.7.296.772 1.303.123 1.705l-2.946 1.819a.958.958 0 00-.445.754l-.239 3.574c-.053.787-.945 1.17-1.51.647l-2.563-2.371a.88.88 0 00-.822-.211l-3.32.866c-.73.192-1.354-.58-1.054-1.304l1.362-3.285a.994.994 0 00-.063-.885l-1.813-3.037c-.4-.67.108-1.528.859-1.453l3.405.34a.89.89 0 00.783-.335l2.198-2.744c.485-.605 1.421-.365 1.585.405" id="Fill-14" fill="#D8D3C4"/><path d="M787.173 191.996l1.009 4.662c.088.407.365.745.742.902l4.304 1.788c.948.394 1.046 1.737.165 2.272l-3.998 2.427c-.35.213-.576.588-.605 1.005l-.323 4.764c-.072 1.05-1.283 1.56-2.05.864l-3.478-3.163a1.21 1.21 0 00-1.116-.28l-4.504 1.155c-.993.255-1.839-.772-1.431-1.738l1.848-4.38c.162-.385.13-.825-.086-1.18l-2.46-4.05c-.542-.892.147-2.038 1.165-1.937l4.62.454c.405.04.802-.127 1.064-.448l2.983-3.658c.658-.807 1.93-.487 2.151.54" id="Fill-24" fill="#AEC4CF"/><path d="M982.601 133.582l3.61 4.51c.317.395.81.61 1.319.578l5.816-.374c1.282-.083 2.103 1.32 1.39 2.373l-3.236 4.777a1.51 1.51 0 00-.151 1.415l2.159 5.336c.476 1.175-.624 2.379-1.86 2.037l-5.61-1.558a1.568 1.568 0 00-1.412.296l-4.482 3.672c-.988.81-2.489.151-2.54-1.114l-.231-5.74a1.524 1.524 0 00-.722-1.232l-4.928-3.065c-1.087-.676-.915-2.287.29-2.726l5.467-1.99c.48-.174.84-.57.966-1.057l1.435-5.568c.317-1.227 1.924-1.564 2.72-.57" id="Fill-25" fill="#E7E3D2"/><path d="M397.54 74.222l1.17 5.61c.103.492.446.902.922 1.098l5.416 2.245a1.505 1.505 0 01.156 2.727l-5.127 2.814a1.52 1.52 0 00-.79 1.192l-.522 5.702c-.114 1.257-1.662 1.84-2.618.987l-4.338-3.87a1.598 1.598 0 00-1.41-.364l-5.738 1.28c-1.265.283-2.314-.968-1.775-2.116l2.446-5.207a1.486 1.486 0 00-.08-1.416l-3.026-4.91c-.667-1.084.233-2.44 1.522-2.296l5.85.653a1.591 1.591 0 001.359-.512l3.868-4.316c.853-.95 2.458-.539 2.716.699" id="Fill-26" fill="#F0F3F1"/><path d="M279.423 211.526l3.438 4.22c.3.371.76.565 1.228.52l5.348-.503c1.18-.11 1.97 1.21 1.34 2.234l-2.862 4.648a1.49 1.49 0 00-.104 1.356l2.122 5.047c.467 1.112-.515 2.29-1.663 1.993l-5.207-1.347a1.405 1.405 0 00-1.292.318l-4.037 3.623c-.89.798-2.29.207-2.368-1.002l-.356-5.481a1.465 1.465 0 00-.695-1.159l-4.616-2.808c-1.018-.618-.9-2.163.2-2.613l4.986-2.04c.436-.178.759-.565.863-1.034l1.184-5.358c.261-1.181 1.733-1.543 2.491-.614" id="Fill-27" fill="#958671"/><path d="M309.929 173.608l1.886 7.67a2.11 2.11 0 001.312 1.467l7.5 2.823c1.654.621 1.864 2.836.355 3.747l-6.843 4.132c-.6.362-.979.99-1.015 1.68l-.415 7.88c-.091 1.736-2.17 2.617-3.519 1.489l-6.115-5.116a2.167 2.167 0 00-1.939-.43l-7.757 2.047c-1.71.452-3.205-1.219-2.53-2.827l3.064-7.294c.269-.638.2-1.366-.183-1.945l-4.38-6.614c-.966-1.458.19-3.37 1.956-3.237l8.008.608a2.155 2.155 0 001.826-.772l5.05-6.135c1.115-1.353 3.323-.865 3.739.827" id="Fill-28" fill="#F0F3F1"/><path d="M8.055 129.39l2.656 3.118c.232.274.587.418.95.385l4.131-.373c.912-.082 1.524.894 1.036 1.652l-2.212 3.435a1.058 1.058 0 00-.08 1.002l1.639 3.73c.361.823-.398 1.694-1.285 1.475l-4.023-.997a1.124 1.124 0 00-.999.235l-3.12 2.678c-.687.59-1.768.153-1.829-.74l-.275-4.051a1.077 1.077 0 00-.537-.857L.54 138.006a1.07 1.07 0 01.154-1.931l3.853-1.507c.338-.132.587-.418.667-.766l.916-3.96c.201-.872 1.338-1.14 1.925-.453" id="Fill-29" fill="#D8D3C4"/><path d="M57.844 176.758l2.787 8.967c.244.785.859 1.4 1.643 1.643l8.969 2.788c1.977.615 2.391 3.23.7 4.425l-7.667 5.423a2.499 2.499 0 00-1.055 2.07l.12 9.39c.027 2.071-2.333 3.274-3.992 2.035l-7.526-5.616a2.497 2.497 0 00-2.296-.364l-8.894 3.016c-1.96.665-3.833-1.207-3.167-3.168l3.015-8.893a2.494 2.494 0 00-.364-2.296l-5.616-7.526c-1.239-1.66-.037-4.02 2.033-3.992l9.39.119a2.497 2.497 0 002.072-1.055l5.423-7.668c1.195-1.69 3.81-1.276 4.425.702" id="Fill-32" fill="#E3F3F3"/><g id="Group" transform="translate(85)"><path d="M124.172 129.704c-39.404 24.991-89.731 16.571-112.774-19.042C2.993 97.671-.618 82.839.086 67.991c.03-.659.075-1.303.135-1.963l.285-3.041.03-.39.045-.389c.269-2.293.644-4.6 1.153-6.877v-.015c.24-1.229.539-2.457.854-3.671v-.015a84.498 84.498 0 012.278-7.327 74.05 74.05 0 011.333-3.431 83.495 83.495 0 013.446-7.341 64.998 64.998 0 011.828-3.296 78.983 78.983 0 013.116-4.96l2.203-3.101v-.015a83.431 83.431 0 014.974-6.143 55.192 55.192 0 012.562-2.757 84.533 84.533 0 014.36-4.285 75.593 75.593 0 013.056-2.637A92.815 92.815 0 0140.254 0a83.017 83.017 0 00-3.236 7.626 57.202 57.202 0 00-.93 2.667 71.07 71.07 0 00-1.377 4.63 54.86 54.86 0 00-.69 2.711v.015a66.312 66.312 0 00-.973 4.795c-.18.929-.33 1.858-.464 2.786-.18 1.259-.33 2.518-.465 3.791-.09.929-.165 1.858-.225 2.787a81.581 81.581 0 00-.195 4.719 47.085 47.085 0 000 2.862c.015 1.199.06 2.412.135 3.611.045.944.12 1.888.21 2.832.105 1.183.225 2.352.39 3.52.104.9.239 1.799.374 2.683l.225 1.333c.09.479.165.959.27 1.438 2.157 11.402 6.547 22.639 13.304 33.082a94.79 94.79 0 008.96 11.746c.329.36.659.72 1.004 1.079 18.009 19.477 42.94 29.711 67.6 28.991" id="Fill-33" fill="#F5F6F5"/><path d="M27.229 76.472l-2.073-.168a21.64 21.64 0 00-.793-4.59c-.272-.926-1.675-.399-1.404.524.365 1.243.75 3.076.774 4.848 0 .047-.005.094.003.139.008 2.479-.72 4.802-3.268 5.172-3.434.499-6.215-3.98-6.296-6.902-.026-.967-1.52-.83-1.492.132.054 1.955.906 3.98 2.243 5.538a8.336 8.336 0 00-1.883 1.843c-.565.778.579 1.746 1.149.963a7.19 7.19 0 011.806-1.747 7.328 7.328 0 002.44 1.351c.08.7.049 1.374-.157 2.07-.275.928 1.203 1.185 1.474.27.2-.679.24-1.369.202-2.063a5.94 5.94 0 001.18-.04c1.043-.151 1.832-.584 2.432-1.197l1.454.966c.796.529 1.767-.614.962-1.148l-1.562-1.038c.503-1.032.723-2.291.765-3.593l1.774.144c.955.077 1.232-1.397.27-1.474" id="Fill-34" fill="#6D8483"/><path d="M30.1 93.244c-.294-.287-3.255-1.54-8.15 1.863-1.333.928-3.693 3.838-1.552 5.549 2.186 1.747 5.589.137 7.672-1.401 1.65-1.218 4.004-4.094 2.03-6.011" id="Fill-35" fill="#E6BFA3"/><path d="M56.57 100.713c-6.831 6.727-16.885 8.36-25.755 3.88-.87-.434-.104-1.737.75-1.303 8.225 4.165 17.679 2.652 24.002-3.656.329.36.659.72 1.004 1.079" id="Fill-36" fill="#6D8483"/><path d="M28.573 87.234v.187c0 .967 1.498.967 1.498 0v-.187c0-.966-1.498-.966-1.498 0" id="Fill-37" fill="#929D9B"/><path d="M32.318 83.301c-.966 0-.966 1.499 0 1.499.967 0 .967-1.499 0-1.499" id="Fill-38" fill="#929D9B"/><path d="M34.94 88.171c-.966 0-.966 1.498 0 1.498.967 0 .967-1.498 0-1.498" id="Fill-39" fill="#929D9B"/><path d="M32.044 45.832c-10.682.959-20.841 4.135-30.31 9.484.24-1.229.539-2.457.854-3.671v-.015c9.17-4.809 18.998-7.716 29.246-8.63.045.944.12 1.888.21 2.832" id="Fill-40" fill="#6D8483"/><path d="M31.699 36.527a47.085 47.085 0 000 2.862c-9.124.285-18.084 1.933-26.833 4.914a74.05 74.05 0 011.333-3.431 93.343 93.343 0 0125.5-4.345" id="Fill-41" fill="#6D8483"/><path d="M32.119 29.021c-.09.929-.165 1.858-.225 2.787a72.707 72.707 0 00-22.25 1.723 64.998 64.998 0 011.829-3.296 75.721 75.721 0 0120.646-1.214" id="Fill-42" fill="#6D8483"/><path d="M33.048 22.444c-.18.929-.33 1.858-.464 2.786a62.434 62.434 0 00-17.995.045l2.203-3.101v-.015a65.617 65.617 0 0116.256.285" id="Fill-43" fill="#6D8483"/><path d="M34.71 14.923a48.582 48.582 0 00-10.382-1.664 55.192 55.192 0 00-2.562 2.757c4.18.015 8.27.54 12.256 1.618v.015l.689-2.726" id="Fill-44" fill="#6D8483"/><path d="M37.018 7.626a57.202 57.202 0 00-.93 2.667c-2.381-.809-4.823-1.334-7.4-1.319a75.593 75.593 0 013.056-2.637c1.798.24 3.55.69 5.274 1.289" id="Fill-45" fill="#6D8483"/><path d="M33.303 54.806C21.6 56.32 10.529 60.095.22 66.028l.285-3.041.03-.39a91.732 91.732 0 0132.272-10.562l.225 1.333c.09.479.165.959.27 1.438" id="Fill-46" fill="#6D8483"/></g></g></g></g></svg>