<svg width="1600" height="140" xmlns="http://www.w3.org/2000/svg"><g id="Page-1" stroke="none" stroke-width="1" fill="none" fill-rule="evenodd"><g id="01_Index" transform="translate(0 -4624)"><g id="Group-9" transform="translate(-6 4622)"><path d="M0 0c176.325 66.415 311.04 99.623 404.146 99.623 133.52 0 200.851-52.65 388.862-52.65 188.01 0 348.477 35.643 480.28 35.643 87.869 0 201.106-23.655 339.712-70.966V142H0V0z" id="Curve-2" fill="#AEC4CF" opacity=".679" transform="matrix(-1 0 0 1 1613 0)"/><path d="M0 96.854c113 19.409 216.052 29.113 309.158 29.113 133.52 0 252.859-65.703 440.87-65.703 188.01 0 350.123 44.747 481.926 44.747 87.868 0 214.884-19.337 381.046-58.011v95H0V96.854z" id="curve-1" fill="#FFF"/></g></g></g></svg>