<svg id="Layer_1" data-name="Layer 1" xmlns="http://www.w3.org/2000/svg" viewBox="0 0 46 46"><defs><style>.cls-1{fill:#fff;}</style></defs><g id="Page-1"><g id="Logomark-Transparent-White"><path id="Shape" class="cls-1" d="M23,0A23,23,0,1,0,46,23,23,23,0,0,0,23,0ZM11.35,23.77l.09-.15,6-9.36a.21.21,0,0,1,.36,0c1,2.24,1.86,5,1.46,6.76a10.6,10.6,0,0,1-1.18,2.58,3.85,3.85,0,0,1-.23.38.21.21,0,0,1-.17.09H11.52A.21.21,0,0,1,11.35,23.77ZM38,27a.23.23,0,0,1-.12.2A7.37,7.37,0,0,0,35.18,29c-1.68,2.34-3,5.69-5.84,5.69h-12A7.7,7.7,0,0,1,9.66,27v-.14a.2.2,0,0,1,.21-.2h6.68a.23.23,0,0,1,.22.25A2.25,2.25,0,0,0,17,28.2a2.34,2.34,0,0,0,2.1,1.3h3.31V26.92H19.15a.21.21,0,0,1-.17-.33c0-.05.07-.11.12-.17.31-.44.75-1.12,1.19-1.9a14.9,14.9,0,0,0,.82-1.65c.05-.1.09-.21.13-.31s.13-.35.17-.51.09-.29.13-.43a6.73,6.73,0,0,0,.15-1.51c0-.21,0-.42,0-.62s0-.46-.07-.68-.05-.4-.09-.6-.12-.6-.19-.9l0-.11c-.05-.21-.1-.4-.17-.61-.19-.64-.4-1.27-.63-1.86a6.87,6.87,0,0,0-.27-.68c-.14-.34-.28-.65-.41-.94-.07-.13-.12-.25-.18-.38s-.13-.27-.2-.41-.1-.19-.13-.29l-.41-.74A.13.13,0,0,1,19,11.1l2.53.68h0l.33.1.37.1.13,0v-1.5a1.31,1.31,0,0,1,1.3-1.32,1.28,1.28,0,0,1,.92.39,1.33,1.33,0,0,1,.38.93v2.23l.27.07.06,0,.28.21.32.27c.24.19.54.45.85.74l.25.22a18.47,18.47,0,0,1,1.31,1.33l.37.43c.12.15.25.3.36.45a7.61,7.61,0,0,1,.45.62c.07.1.14.2.2.3.19.28.34.56.5.84l.18.41a6.14,6.14,0,0,1,.39,1.14,2,2,0,0,1,.05.26h0a2,2,0,0,1,.05.36,3.93,3.93,0,0,1-.07,1.18,3,3,0,0,1-.14.49,4.84,4.84,0,0,1-.18.49,6.78,6.78,0,0,1-.51,1,2.56,2.56,0,0,1-.22.35l-.24.35-.33.42a4,4,0,0,1-.32.4c-.15.19-.31.36-.47.53a3.08,3.08,0,0,1-.3.33c-.1.11-.2.22-.3.31l-.4.38-.26.24a.17.17,0,0,1-.14.05H25V29.5h2.53a2.3,2.3,0,0,0,1.54-.57,17.31,17.31,0,0,0,1.57-1.53.21.21,0,0,1,.1-.06l7-2a.2.2,0,0,1,.26.2V27Z" transform="translate(0 0)"/></g></g></svg>