<svg width="48" height="39" xmlns="http://www.w3.org/2000/svg"><g id="Page-1" stroke="none" stroke-width="1" fill="none" fill-rule="evenodd"><g id="Home" transform="translate(-439 -2120)" stroke="#FFB700" stroke-width="2"><g id="Group-29" transform="translate(440 2121)"><path d="M11.782 9.688C14 7.206 14.334 2.478 13.874.294 12.584.564 11.087 1.657 10 3.16" id="Stroke-1"/><path d="M8.071 8.872c.085-2.67-1.217-5.599-2.39-6.927C4.452 3.388 3.862 5.99 4.245 8.371" id="Stroke-3"/><path d="M5 13.641c-.625-1.937-3.344-3.277-5-3.813 0 2.95.767 8.98 5.582 9.524" id="Stroke-5"/><path d="M11.206 17.988c1.443-2.254.675-4.89-.373-6.253-2.44 1.3-5.39 5.503-2.096 8.217" id="Stroke-7"/><path d="M14.183 29.848c2.594-3.443-1.17-6.692-3.261-7.594-.444 1.29-1.297 4.575.82 6.488" id="Stroke-9"/><path d="M8 24.128c-1.91-2.355-5.272-2.767-7-2.86.156 2.473 2.54 8.94 8 7.627" id="Stroke-11"/><path d="M6.688 31.993c1.718 2.592 6.811 7.21 13.313 3.575-1.427-4.767-10.67-4.349-13.314-3.575z" id="Stroke-13"/><path d="M34.218 9.688C32 7.206 31.667 2.478 32.126.294 33.402.707 34.914 1.657 36 3.16" id="Stroke-15"/><path d="M37.929 8.872c-.085-2.67 1.217-5.599 2.39-6.927 1.228 1.443 1.818 4.045 1.435 6.426" id="Stroke-17"/><path d="M41 13.641c.625-1.937 3.344-3.277 5-3.813 0 2.95-.768 8.98-5.581 9.524" id="Stroke-19"/><path d="M34.794 17.988c-1.443-2.254-.675-4.89.373-6.253 2.44 1.3 5.39 5.503 2.096 8.217" id="Stroke-21"/><path d="M31.817 29.848c-2.594-3.443 1.17-6.692 3.261-7.594.443 1.29 1.297 4.575-.822 6.488" id="Stroke-23"/><path d="M38 24.128c1.91-2.355 5.272-2.767 7-2.86-.156 2.473-2.54 8.94-8 7.627" id="Stroke-25"/><path d="M39.313 31.993c-1.72 2.592-6.813 7.21-13.314 3.575 1.427-4.767 10.67-4.349 13.314-3.575z" id="Stroke-27"/></g></g></g></svg>