<svg width="34" height="34" xmlns="http://www.w3.org/2000/svg"><g id="Page-1" stroke="none" stroke-width="1" fill="none" fill-rule="evenodd" stroke-linecap="round" stroke-linejoin="round"><g id="Home" transform="translate(-382 -3714)" stroke="#FFB700" stroke-width="1.5"><g id="Phone" transform="translate(383 3715)"><g id="Group"><path d="M5.333 28.444H3.556A3.555 3.555 0 010 24.89V7.442a3.555 3.555 0 013.556-3.556h1.777m11.135 24.558h11.976A3.555 3.555 0 0032 24.89V7.442a3.555 3.555 0 00-3.556-3.556H16.468" id="Path"/><path d="M12.912 32H8.889a3.555 3.555 0 01-3.556-3.556V3.556A3.555 3.555 0 018.89 0h4.023a3.555 3.555 0 013.556 3.556v24.888A3.555 3.555 0 0112.912 32zm8.421-21.333h5.334m-5.245 6.044c.05 0 .09.04.09.089 0 .05-.04.089-.09.089a.088.088 0 01-.089-.089.09.09 0 01.09-.089m-.001 4.445c.05 0 .09.039.09.088 0 .05-.04.09-.09.09a.088.088 0 01-.089-.09.09.09 0 01.09-.088m5.155-4.445c.05 0 .089.04.089.089 0 .05-.04.089-.09.089a.088.088 0 01-.088-.089.087.087 0 01.089-.089m0 4.445c.05 0 .089.039.089.088 0 .05-.04.09-.09.09a.088.088 0 01-.088-.09.087.087 0 01.089-.088" id="Path"/></g></g></g></g></svg>