<svg width="38" height="47" xmlns="http://www.w3.org/2000/svg"><g id="Page-1" stroke="none" stroke-width="1" fill="none" fill-rule="evenodd"><g id="Home" transform="translate(-444 -2336)" stroke="#FFB700" stroke-width="2"><g id="Group-15" transform="translate(445 2337)"><path d="M23 34v-4c0-4.559 7-5.792 7-10V0H6v20c0 4.208 7 5.441 7 10v4" id="Stroke-1"/><path d="M6 5H0v8.343c0 1.061.422 2.079 1.172 2.829l1.242 1.242A2 2 0 003.828 18H5" id="Stroke-3"/><path d="M30 5h6v8.343a4.002 4.002 0 01-1.172 2.829l-1.242 1.242a2 2 0 01-1.414.586H31" id="Stroke-5"/><path d="M21 34h3a2 2 0 012 2v3" id="Stroke-7"/><path d="M10 39v-3a2 2 0 012-2h7" id="Stroke-9"/><path d="M22 39h5a2 2 0 012 2v4H7v-4a2 2 0 012-2h11" id="Stroke-11"/><path id="Stroke-13" d="M18.008 6l1.917 5.062 5.075.266-3.89 3.558 1.219 5.062-4.321-2.699-4.321 2.699 1.219-5.062-3.89-3.559 5.075-.265z"/></g></g></g></svg>