<svg width="132" height="93" xmlns="http://www.w3.org/2000/svg" xmlns:xlink="http://www.w3.org/1999/xlink"><defs><path id="path-1" d="M.027.025h6.578v8.52H.027z"/><path id="path-3" d="M.014.025h7.868v8.52H.014z"/><path id="path-5" d="M.08.025h8.705v8.52H.08z"/><path id="path-7" d="M.02.025h6.578v8.52H.02z"/><path id="path-9" d="M.008.074h7.078V8.43H.008z"/><path id="path-11" d="M.09.025h6.578v8.52H.089z"/><path id="path-13" d="M.074.025h6.578v8.52H.074z"/><path id="path-15" d="M0 .06h131.218v76.712H0z"/></defs><g id="Page-1" stroke="none" stroke-width="1" fill="none" fill-rule="evenodd"><g id="Home" transform="translate(-894 -28)"><g id="Group-38" transform="translate(894 28)"><path id="Fill-1" fill="#042B50" d="M0 84v8h6v-1.385H1.556v-1.838H5.07v-1.339H1.556v-2.054h4.209V84z"/><path d="M10.763 89.178l1.226-3.025 1.237 3.025h-2.463zM11.581 84L8 92h1.624l.645-1.518h3.452L14.366 92H16l-3.591-8h-.828z" id="Fill-2" fill="#042B50"/><g id="Group-37"><g id="Group-5" transform="translate(18.113 83.513)"><mask id="mask-2" fill="#fff"><use xlink:href="#path-1"/></mask><path d="M3.828 3.535c-1.256-.256-2-.477-2-1.127 0-.512.466-.896 1.395-.896.895 0 1.72.233 2.406.524L6.303.664C5.501.28 4.467.024 3.223.024c-2.057 0-3.08 1-3.08 2.488 0 1.616 1.22 2.162 3.022 2.523 1.14.22 1.72.43 1.732 1.069 0 .651-.535.976-1.453.976-.976 0-1.883-.267-2.8-.709L.026 7.79c1.128.512 2.057.756 3.499.756 2.022 0 3.08-.872 3.08-2.557 0-1.616-1.163-2.127-2.778-2.453" id="Fill-3" fill="#042B50" mask="url(#mask-2)"/></g><path id="Fill-6" fill="#042B50" d="M26.345 85.13h2.615v6.765h1.662V85.13h2.615V83.7h-6.892z"/><g id="Group-10" transform="translate(38.732 83.513)"><mask id="mask-4" fill="#fff"><use xlink:href="#path-3"/></mask><path d="M4.337 1.594c1.046 0 1.802.43 2.278 1.093l1.267-1.081C7.092.64 5.918.025 4.291.025 1.64.025.014 1.629.014 4.267c0 2.64 1.627 4.278 4.277 4.278 1.685 0 2.8-.605 3.591-1.558l-1.267-1.08c-.476.662-1.232 1.092-2.278 1.092-1.615 0-2.615-1.058-2.615-2.732 0-1.685 1-2.673 2.615-2.673" id="Fill-8" fill="#042B50" mask="url(#mask-4)"/></g><g id="Group-13" transform="translate(48.3 83.513)"><mask id="mask-6" fill="#fff"><use xlink:href="#path-5"/></mask><path d="M4.426 7.01c-1.615 0-2.638-1.138-2.638-2.72 0-1.662 1.092-2.731 2.638-2.731 1.627 0 2.65 1.14 2.65 2.732 0 1.65-1.092 2.72-2.65 2.72m0-6.986C1.753.025.08 1.792.08 4.29c0 2.568 1.766 4.254 4.346 4.254 2.673 0 4.359-1.767 4.359-4.254 0-2.57-1.779-4.266-4.359-4.266" id="Fill-11" fill="#042B50" mask="url(#mask-6)"/></g><path d="M61.118 89l1.325-3.103 1.337 3.104h-2.662zm.883-5.311l-3.87 8.206h1.755l.698-1.557h3.73l.698 1.557h1.766l-3.882-8.206h-.895z" id="Fill-14" fill="#042B50"/><g id="Group-18" transform="translate(68.35 83.513)"><mask id="mask-8" fill="#fff"><use xlink:href="#path-7"/></mask><path d="M3.82 3.535c-1.255-.256-1.999-.477-1.999-1.127 0-.512.465-.896 1.395-.896.895 0 1.72.233 2.406.524L6.296.664C5.494.28 4.46.024 3.216.024c-2.057 0-3.08 1-3.08 2.488 0 1.616 1.22 2.162 3.022 2.523 1.139.22 1.72.43 1.732 1.069 0 .651-.535.976-1.453.976-.977 0-1.883-.267-2.801-.709L.02 7.79c1.127.512 2.057.756 3.498.756 2.022 0 3.08-.872 3.08-2.557 0-1.616-1.162-2.127-2.778-2.453" id="Fill-16" fill="#042B50" mask="url(#mask-8)"/></g><path id="Fill-19" fill="#042B50" d="M76.575 85.13h2.615v6.765h1.662V85.13h2.615V83.7h-6.892z"/><path id="Fill-21" fill="#042B50" d="M88.767 85.13h2.615v6.765h1.661V85.13h2.616V83.7h-6.892z"/><path d="M100.946 88.164h-1.418v-3.045h1.558c1.185 0 1.732.534 1.732 1.569 0 .871-.593 1.476-1.872 1.476m3.58-1.534c0-1.895-1.15-2.93-3.312-2.93H97.89v8.195h1.638v-2.324h1.686l1.627 2.324h1.987l-1.94-2.638c1.057-.43 1.638-1.314 1.638-2.627" id="Fill-23" fill="#042B50"/><g id="Group-27" transform="translate(106.854 83.627)"><mask id="mask-10" fill="#fff"><use xlink:href="#path-9"/></mask><path d="M5.447 4.642c0 1.58-.605 2.231-1.906 2.231-1.302 0-1.895-.65-1.895-2.231V.074H.008v4.963c0 2.243 1.22 3.394 3.533 3.394 2.359 0 3.545-1.15 3.545-3.394V.074h-1.64v4.568z" id="Fill-25" fill="#042B50" mask="url(#mask-10)"/></g><g id="Group-30" transform="translate(116.082 83.513)"><mask id="mask-12" fill="#fff"><use xlink:href="#path-11"/></mask><path d="M3.89 3.535c-1.256-.256-2-.477-2-1.127 0-.512.466-.896 1.395-.896.895 0 1.72.233 2.406.524L6.365.664C5.563.28 4.53.024 3.285.024c-2.057 0-3.08 1-3.08 2.488 0 1.616 1.22 2.162 3.022 2.523 1.14.22 1.72.43 1.732 1.069 0 .651-.535.976-1.453.976-.976 0-1.883-.267-2.8-.709L.088 7.79c1.128.512 2.057.756 3.499.756 2.022 0 3.08-.872 3.08-2.557 0-1.616-1.163-2.127-2.778-2.453" id="Fill-28" fill="#042B50" mask="url(#mask-12)"/></g><g id="Group-33" transform="translate(124.511 83.513)"><mask id="mask-14" fill="#fff"><use xlink:href="#path-13"/></mask><path d="M3.874 3.535c-1.255-.256-1.999-.477-1.999-1.127 0-.512.465-.896 1.395-.896.895 0 1.72.233 2.406.524L6.35.664C5.548.28 4.513.024 3.27.024c-2.057 0-3.08 1-3.08 2.488 0 1.616 1.22 2.162 3.022 2.523 1.139.22 1.72.43 1.732 1.069 0 .651-.535.976-1.453.976-.977 0-1.883-.267-2.801-.709L.074 7.79c1.127.512 2.057.756 3.498.756 2.022 0 3.08-.872 3.08-2.557 0-1.616-1.162-2.127-2.778-2.453" id="Fill-31" fill="#042B50" mask="url(#mask-14)"/></g><g id="Group-36"><mask id="mask-16" fill="#fff"><use xlink:href="#path-15"/></mask><path d="M108.723 18.57v58.202h7.498V20.445l14.997 3.75v-7.73L93.727 7.09v7.73l14.996 3.75zM65.61 7.79l22.494 5.624v-7.73L65.61.06 43.114 5.684v71.088h44.99v-7.5H50.611V11.54L65.61 7.79zM0 16.465v60.307h37.49v-7.5H7.499V49.546h24.586v-7.5H7.498V22.32l29.993-7.5V7.09L0 16.466z" id="Fill-34" fill="#FFB700" mask="url(#mask-16)"/></g></g></g></g></g></svg>