<svg width="170" height="149" xmlns="http://www.w3.org/2000/svg"><g id="Page-1" stroke="none" stroke-width="1" fill="none" fill-rule="evenodd"><g id="Home" transform="translate(-445 -3055)" fill="#FFB700"><g id="Group-3" transform="translate(445 3055)"><path d="M.532 0l40.435.174L58.668.52s2.815 6.98 2.777 7.118l45.988 2.777c2.582-.146 12.525.575 13.189 1.563 0 0 .744 4.724 1.214 4.513.569.556 2.042.242 2.951.348-.235-1.393.25-2.822.694-4.167l-.694-6.076h.694l-.173-.868c1.385-.051.94-.976 2.082-.868.542-.002 8.279 2.74 8.504 2.951-.528.338-.181.057-.347.521 1.228.216.975.803 1.735 1.041.222-.991.652-1.103.52-1.562h.868l-.694 4.861c-.216-.322-.155-.095-.347-.174 1.824 3.71 2.54 13.825 4.165 15.625l.694 4.513c1.28 1.581 2.205 5.323 2.256 6.25 0 0 .464 1.006.521 1.215.226.833 2.912 4.762 2.256 5.382l5.553 10.07c.174.288.347.578.52.867l.695.868c.033.773 5.455 8.016 4.165 8.506-.595.87-.93.678-1.041 1.216-.956.666-.236 3.735-.174 5.729.112 3.566 2.501 5.824 3.818 9.2l.174 1.042c.233.191.087.046.347.348 0 0 2.951 8.13 2.603 8.68 1.948 3.926 4.264 9.089 5.727 15.45.337 1.468-.331 6.088-.695 7.118l-1.908 20.311c-.174-.058-.347-.115-.52-.174-.079-.714-.015-.362-.348-1.04l-.52.346c-1.36.347-4.01 7.903-3.472 9.548l.521-.347v.695c-.887.216-2.693 2.977-3.123 2.777-.553.778-2.043-.015-2.43-.173-.374 1.137-2.542 1.432-2.95 2.43-1.774-.82-8.511.287-8.33 0-1.07-.44-2.089-2.036-1.736-2.604-.188-.912.282-2.575 1.041-2.43-.577-2.26-1.796-3.286-2.082-4.514.696-.349.204-.192.52-.694h-.867c-.047-1.934-1.12-2.737-.868-3.299l-.347-.695c-.423.216-.342.148-.868.348-.004-.472-.163-2.84-1.04-3.125-.765-1.533-5.56-2.952-7.116-3.125l-.174 1.042h-1.04c-.061-2.114-.4-3.23-1.39-4.167l-.52-5.207c-1.27-2.582-1.379-3.169-3.123-4.514 0 0-1.31-.801-.695-1.736-.66.192-.403.006-.868.347l-.52-1.39h-.521c.062.725.09 1.78.521 1.563l-.347.695-.694-.174c-.017-1.955-.653-4.377-1.91-5.034l.174-.347h1.041l.868 1.735h.347l.174-.347c-.833-2.69 1.414-3.735-.52-6.596.604-.711.677-.376 1.04-.869-1.215-.155-1.392.048-2.43.695-.172-.405-.347-.81-.52-1.216-.729.267-.424-.032-.694.695.94.192 1.49 1.664 1.388 3.993l-.694-.694-.867.867h-.174l.174-.867c-2.077.074-4.949-5.686-5.727-7.465l-.347-2.43c-1.13-.881-4.597-5.643-5.033-7.466.395.28.307.315.868.521-.01-1.543 1.233-1.099 2.43-1.562v-.174c-.494-.542-.297-.268-.521-1.042.457-.181 3.264-4.476 4.512-5.729l-.695-2.256c-1.122.092-.385-.022-1.388-.52-.014 1.958.219 1.617.174 2.776l-1.041-.173-.348-.348c.132-.617.035-2.176-.173-2.43-.174-.878-1.965-1.892-2.603-2.083l-1.388 2.083c1.346.308 1.816.955 2.603 1.736.27 1.556-.36 3.058-.695 4.167-.455.04-.519.059-1.04.347-.234-.59-.107-.36-.521-.694-.034.68-.47 1.697-.868 2.083.23-3.907-.68-2.978-2.256-5.382-.023-1.413.49-3.577.52-5.035.404-.365.465-.052.868-.52l-.174-2.951c1.293-2.683 3.023-6.198 3.125-10.07h.346c.25-.591-.472-3.991-.346-4.687-.575-.046-.688.137-1.042-.52.51-.148.086-.144.347-.868-.69-.196-1.321-.48-.694-.868v-.695l1.389.174a55.103 55.103 0 01-.174-.348c.058-.115.115-.231.174-.346-1.703-.891-2.097-2.495-2.257-4.34-.296.043-1.073-.001-1.388-.695l.347-.347.347.173-.867-1.736c-.072.142-4.783.145-5.206-.52-.595-.455-.369-.663-.521-1.216.514-.334.003-.044.346-.52-.532-.15-2.15-1.118-2.082-1.216-.447-.49-.852-2.361-1.388-3.472-2.482.494-2.554-2.278-3.992-1.91l-.173-3.992c-1.922-.382-2.548-2.182-3.991-2.257.285-5.224-6.382-5.67-9.545-9.028-1.273.29-2.546.58-3.818.868-.122-.7.234-.229-.347-.694-.543.48-.74.183-1.562 0-.07 1.162-.058.636-.52 1.042-.295-.378-.298-.286-1.216-.348V25c.434.207.171-.111.348.347-.223.048-.532.32-.868.868h.347c-.058.116-.115.232-.174.347l.521-.174c-.358.384-.24.327-.868.521-.095-.365-.23-.185-1.04-.52-.117.231-.232.462-.348.694 1.066.075 1.485.033 2.082.52.361.352.238.175.348.869-.427.34-.07.098-.52.173-.169.454.069.21-.695.347-.463-.23-.926-.462-1.388-.694.524-.218.207.004.52-.347-4.843 1.419-6.485 3.12-10.76 5.208.468-.878.424-.666.695-1.562h-.868c-.14 1.753-4.27 2.589-6.768 2.256v.521h1.91c.593-.051.257-.213.693.174.467.084.144-.153.52.347-.643.405-.244.211-.52.868h-1.041c-.59-1.974-2.56-.407-4.165-1.562l.694-.174-.347-3.993a544.51 544.51 0 00-11.974-9.374c-2.678-2.031-6.38-1.536-9.025-3.82l-7.115-.868c-6.206-1.626-15.55 3.354-20.477 2.257v-.52c.8.117.456.148 1.388-.174v-1.91l.867.347c.131-.845.496-.237 1.215-1.388-.909-.174-.813-.21-1.909-.174-.261-2.02-.035-3.268.52-5.555C4.04 8.574-.25 4.254.013 3.646.03 2.33.512 2.31.532 0" id="Fill-1"/></g></g></g></svg>