<svg width="31" height="31" xmlns="http://www.w3.org/2000/svg"><g id="Page-1" stroke="none" stroke-width="1" fill="none" fill-rule="evenodd" stroke-linecap="round" stroke-linejoin="round"><g id="Home" transform="translate(-385 -3640)" stroke="#FFB700" stroke-width="1.5"><g id="Phone,-Call.11" transform="translate(386 3641)"><path d="M12.496 16.505c-2.05-2.05-3.595-4.346-4.622-6.674a1.312 1.312 0 01.29-1.45L9.6 6.95c1.175-1.176 1.175-2.839.149-3.866L7.692 1.026a3.504 3.504 0 00-4.956 0L1.594 2.17C.295 3.467-.246 5.34.104 7.197.97 11.776 3.63 16.788 7.921 21.08s9.304 6.951 13.883 7.817c1.857.35 3.73-.191 5.029-1.49l1.14-1.14a3.503 3.503 0 000-4.955l-2.055-2.056a2.627 2.627 0 00-3.716 0l-1.583 1.584c-.38.38-.956.509-1.449.291-2.328-1.028-4.624-2.575-6.674-4.625z" id="Path"/></g></g></g></svg>