<svg width="27" height="34" xmlns="http://www.w3.org/2000/svg"><g id="Page-1" stroke="none" stroke-width="1" fill="none" fill-rule="evenodd"><g id="Home" transform="translate(-387 -3486)"><g id="Pin,-Location.1" transform="translate(379 3482)"><path id="Path" d="M0 0h42v42H0z"/><path d="M21.5 23h0a5.5 5.5 0 01-5.5-5.5h0a5.5 5.5 0 015.5-5.5h0a5.5 5.5 0 015.5 5.5h0a5.5 5.5 0 01-5.5 5.5z" id="Path" stroke="#FFB700" stroke-width="1.5" stroke-linecap="round" stroke-linejoin="round"/><path d="M21.5 37S9 26.778 9 17.444C9 10.572 14.596 5 21.5 5S34 10.572 34 17.444C34 26.778 21.5 37 21.5 37z" id="Path" stroke="#FFB700" stroke-width="1.5" stroke-linecap="round" stroke-linejoin="round"/></g></g></g></svg>