<svg width="50" height="52" xmlns="http://www.w3.org/2000/svg"><g id="Page-1" stroke="none" stroke-width="1" fill="none" fill-rule="evenodd"><g id="Home" transform="translate(-439 -2219)" stroke="#FFB700" stroke-width="2"><g id="Group-31" transform="translate(440 2220)"><path id="Stroke-1" d="M16 9h17"/><g id="Group-30"><path id="Stroke-2" d="M21.818 3.255V0h4.364v3.255"/><path d="M17.455 8.68c0-3.561 0-7.595 4.363-7.595" id="Stroke-4"/><path d="M30.545 8.68c0-3.561 0-7.595-4.363-7.595" id="Stroke-6"/><path d="M29.455 8.68v3.256c0 2.397-2.442 4.34-5.455 4.34s-5.455-1.943-5.455-4.34V8.681" id="Stroke-8"/><path d="M30.545 35.809c2.358 0 4.364-2.23 4.364-4.34v-9.767c0-3.584-7.12-5.425-10.909-5.425-3.79 0-10.91 1.84-10.91 5.425v9.766c0 2.11 2.007 4.34 4.365 4.34" id="Stroke-10"/><path d="M8.182 6.51c2.711 0 4.909 1.944 4.909 4.341v3.255c0 2.397-2.198 4.34-4.91 4.34-2.71 0-4.908-1.943-4.908-4.34v-3.255c0-2.397 2.198-4.34 4.909-4.34z" id="Stroke-12"/><path d="M4.364 37.979C2.242 37.979 0 36.834 0 34.723v-10.85c0-3.585 3.135-5.426 6.545-5.426h2.182" id="Stroke-14"/><path id="Stroke-16" d="M4.364 51V26.043"/><path d="M39.818 6.51c-2.711 0-4.909 1.944-4.909 4.341v3.255c0 2.397 2.198 4.34 4.91 4.34 2.71 0 4.908-1.943 4.908-4.34v-3.255c0-2.397-2.198-4.34-4.909-4.34z" id="Stroke-18"/><path d="M43.636 37.979c2.122 0 4.364-1.145 4.364-3.256v-10.85c0-3.585-3.135-5.426-6.545-5.426h-2.182" id="Stroke-20"/><path id="Stroke-22" d="M43.636 51V26.043"/><path id="Stroke-24" d="M30.545 51V23.872"/><path id="Stroke-26" d="M17.455 23.872V51"/><path id="Stroke-28" d="M24 34.723V51"/></g></g></g></g></svg>