<svg width="564" height="510" xmlns="http://www.w3.org/2000/svg"><g id="Page-1" stroke="none" stroke-width="1" fill="none" fill-rule="evenodd"><g id="Home-3" transform="translate(-644 -1790)" fill="#ECECEC"><path d="M1300.572 0H547.044l20.417 13.684 355.941 238.555a7.393 7.393 0 008.245 0l267.572-179.331c4.938-3.307 11.552.247 11.552 6.213v325.664c0 4.122-3.326 7.466-7.428 7.466H651.7c-4.103 0-7.431-3.344-7.431-7.466V286.92c0-3.482 2.384-6.383 5.59-7.208h147.388l-20.417-13.684-.29-.194c-.03-.021-.053-.048-.085-.066l-217.86-146.015c-4.938-3.307-11.552.25-11.552 6.215v48.84c0 4.123-3.326 7.468-7.431 7.468H416.784v97.747h122.829c4.105 0 7.43 3.347 7.43 7.469v117.293c0 4.111-3.304 7.444-7.39 7.466H299V510h1009V0h-7.428z" transform="translate(345 1790)" id="Fill-1"/></g></g></svg>