<svg width="20" height="19" xmlns="http://www.w3.org/2000/svg"><g id="Page-1" stroke="none" stroke-width="1" fill="none" fill-rule="evenodd" stroke-linecap="round" stroke-linejoin="round"><g id="Sign-Up" transform="translate(-552 -6413)" stroke="#FFF" stroke-width="1.5"><g id="Group" transform="translate(553 6414)"><path d="M11.75 1.9c-.913.315-1.814.722-2.75 1.247-2.594-1.454-4.912-2.032-7.983-2.131a.996.996 0 00-1.017 1v11.837c0 .541.433.99.974.998 3.092.047 5.42.617 8.026 2.149 2.606-1.532 4.934-2.102 8.026-2.148a.996.996 0 00.974-.999V2.016a.995.995 0 00-1.017-1c-.606.02-1.177.064-1.733.124" id="Path"/><path d="M14.061.016c-.551.098-1.085.223-1.61.376a.993.993 0 00-.701.958v4.196l1.75-1.167 1.75 1.167V1.003c0-.626-.572-1.097-1.189-.987zM9 3.15V17m3-6.227a14.56 14.56 0 013-.64m-12 0c1.054.117 2.039.321 3 .64m0-4a14.496 14.496 0 00-3-.64" id="Path"/></g></g></g></svg>