<svg width="28" height="28" xmlns="http://www.w3.org/2000/svg"><g id="Page-1" stroke="none" stroke-width="1" fill="none" fill-rule="evenodd" stroke-linecap="round" stroke-linejoin="round"><g id="Home-3" transform="translate(-1046 -4056)" stroke="#000" stroke-width="2"><g id="Phone,-Call.8" transform="translate(1047 4057)"><g id="Group"><path d="M10.267 15.866c-1.638-1.662-2.873-3.524-3.693-5.412-.174-.4-.071-.867.232-1.176l1.147-1.163c.94-.954.94-2.302.119-3.135L6.428 3.313a2.77 2.77 0 00-3.959 0l-.913.925C.52 5.291.086 6.81.366 8.316c.692 3.714 2.817 7.78 6.246 11.26 3.428 3.48 7.434 5.637 11.092 6.339 1.484.284 2.98-.155 4.018-1.208l.911-.925a2.872 2.872 0 000-4.019l-1.642-1.667a2.077 2.077 0 00-2.97 0l-1.263 1.285a1.037 1.037 0 01-1.158.236c-1.86-.835-3.695-2.09-5.333-3.75zm4.021-12.361V.179m5.838 5.67l2.31-2.33m.014 8.27h3.262" id="Path"/></g></g></g></g></svg>