<svg width="24" height="24" xmlns="http://www.w3.org/2000/svg"><g id="Page-1" stroke="none" stroke-width="1" fill="none" fill-rule="evenodd"><g id="Sign-Up" transform="translate(-550 -6447)"><g id="Document,-Content.3" transform="translate(550 6447)"><path d="M9 11h6a1 1 0 011 1v4a1 1 0 01-1 1H9a1 1 0 01-1-1v-4a1 1 0 011-1z" id="Path" stroke="#FFF" stroke-width="1.5" stroke-linecap="round" stroke-linejoin="round"/><path id="Path" d="M0 0h24v24H0z"/><g id="Group" stroke-linecap="round" stroke-linejoin="round" transform="translate(4 3)" stroke="#FFF" stroke-width="1.5"><path d="M15.242 3.414L12.414.586A2 2 0 0011 0H2a2 2 0 00-2 2v14a2 2 0 002 2h11.828a2 2 0 002-2V4.828a2 2 0 00-.586-1.414h0zM3.98 5H12m0 6H4m5-3v6" id="Path"/></g></g></g></g></svg>