<svg width="43" height="43" xmlns="http://www.w3.org/2000/svg" xmlns:xlink="http://www.w3.org/1999/xlink"><defs><path id="path-1" d="M.003.002H43V42.99H.003z"/></defs><g id="Page-1" stroke="none" stroke-width="1" fill="none" fill-rule="evenodd"><g id="Home-3" transform="translate(-974 -3482)"><g id="f_logo_RGB-Blue_1024" transform="translate(974 3482)"><g id="Group-3"><mask id="mask-2" fill="#fff"><use xlink:href="#path-1"/></mask><path d="M43 21.627C43 9.683 33.374 0 21.5 0S0 9.683 0 21.627C0 32.42 7.862 41.368 18.14 42.99V27.878h-5.458v-6.251h5.459v-4.765c0-5.42 3.21-8.414 8.12-8.414 2.353 0 4.813.422 4.813.422v5.323h-2.71c-2.672 0-3.505 1.667-3.505 3.377v4.057h5.963l-.953 6.251h-5.01v15.113C35.138 41.368 43 32.42 43 21.627" id="Fill-1" fill="#1877F2" mask="url(#mask-2)"/></g><path d="M30.755 27.98l.985-6.106h-6.16V17.91c0-1.67.86-3.3 3.62-3.3H32V9.414S29.458 9 27.028 9c-5.073 0-8.389 2.925-8.389 8.22v4.654H13v6.107h5.64v14.762a23.5 23.5 0 006.94 0V27.981h5.175" id="Fill-4" fill="#FFF"/></g></g></g></svg>