<svg width="208" height="38" xmlns="http://www.w3.org/2000/svg" xmlns:xlink="http://www.w3.org/1999/xlink"><defs><path id="path-1" d="M.175.187h8.772v24.575H.175z"/><path id="path-3" d="M0 38h38V0H0z"/></defs><g id="Page-1" stroke="none" stroke-width="1" fill="none" fill-rule="evenodd"><g id="Home-3" transform="translate(-391 -46)"><g id="Group-23" transform="translate(391 46)"><g id="Group-12"><g id="Group-3" transform="translate(29 8)"><mask id="mask-2" fill="#fff"><use xlink:href="#path-1"/></mask><path d="M.175.187l8.772 2.526C7.289 5.533 1.662 12.923.175 24.762V.187z" id="Fill-1" fill="#97CEF0" mask="url(#mask-2)"/></g><path d="M29 4c2.004.556 3.996 1.102 6 1.66-1.717 2.813-4.844 13.386-6 27.34V4z" id="Fill-4" fill="#58B7E7"/><path id="Fill-6" fill="#58B7E7" d="M22 26v4H8v-4h11.922z"/><mask id="mask-4" fill="#fff"><use xlink:href="#path-3"/></mask><path id="Fill-8" fill="#58B7E7" mask="url(#mask-4)" d="M0 21h22v-4H0z"/><path id="Fill-10" fill="#58B7E7" mask="url(#mask-4)" d="M8 12h14V8H8z"/><path id="Fill-11" fill="#034422" mask="url(#mask-4)" d="M28.969 0H0v4.219h24.843v29.562H0V38h29V0z"/></g><path id="Fill-4" fill="#000" d="M45 0h10v3.869h-6.043v2.546h5.084v3.869h-5.084V16H45z"/><path id="Fill-6" fill="#000" d="M58 16h4V0h-4z"/><path d="M75.178 5.46a4.41 4.41 0 00-3.527-1.764c-1.033 0-1.537.382-1.537.93 0 1.98 7.886 1.073 7.886 6.414 0 2.838-2.645 4.96-6.45 4.96-3.653 0-5.542-1.359-6.55-2.861l2.948-2.623c.932 1.216 2.192 1.788 3.678 1.788 1.26 0 1.915-.381 1.915-1.097 0-2.074-7.886-1.097-7.886-6.486C65.655 1.98 68.25 0 71.827 0 74.624 0 76.791 1.145 78 2.79l-2.822 2.67z" id="Fill-8" fill="#000"/><path d="M91.336 5.27c-.727-.74-1.938-1.336-3.246-1.336-2.131 0-3.803 1.813-3.803 4.054 0 2.242 1.672 4.078 3.997 4.078 1.138 0 2.35-.501 3.052-1.336L94 13.64C92.692 15.19 90.73 16 88.017 16 83.44 16 80 12.4 80 7.988 80 3.577 83.609 0 88.041 0c2.81 0 4.724.906 5.959 2.265L91.336 5.27z" id="Fill-9" fill="#000"/><path d="M104.402 4.368l-1.788 4.967h3.552l-1.764-4.967zm3.062 8.612h-6.149L100.238 16H96l6.124-16h4.752L113 16h-4.458l-1.078-3.02z" id="Fill-10" fill="#000"/><path id="Fill-11" fill="#000" d="M116 0h3.98v12.131H127V16h-11z"/><path id="Fill-12" fill="#000" d="M49.003 28.89V38H45V22h4.294l5.703 9.26V22H59v16h-4.295z"/><path id="Fill-13" fill="#000" d="M62 22h10v3.87h-6.127v2.096h5.188v3.869h-5.188v2.296H72V38H62z"/><path id="Fill-14" fill="#000" d="M99 22l-5 16h-5.2l-2.4-10.883L84 38h-5l-5-16h4.55l2.95 11.258L84.025 22H89.2l2.525 11.258L94.675 22z"/><path d="M109.178 27.46a4.41 4.41 0 00-3.527-1.764c-1.033 0-1.537.381-1.537.93 0 1.979 7.886 1.073 7.886 6.414 0 2.838-2.645 4.96-6.45 4.96-3.653 0-5.542-1.359-6.55-2.861l2.948-2.624c.932 1.217 2.192 1.789 3.678 1.789 1.26 0 1.915-.381 1.915-1.097 0-2.074-7.886-1.097-7.886-6.486 0-2.742 2.595-4.721 6.172-4.721 2.797 0 4.964 1.144 6.173 2.79l-2.822 2.67z" id="Fill-15" fill="#000"/><path id="Fill-16" fill="#000" d="M114 22h3.98v12.131H125V38h-11z"/><path id="Fill-17" fill="#000" d="M128 22h10v3.87h-6.127v2.096h5.188v3.869h-5.188v2.296H138V38h-10z"/><path id="Fill-18" fill="#000" d="M148.566 25.87V38h-4.157V25.87H140V22h13v3.87z"/><path id="Fill-19" fill="#000" d="M162.566 25.87V38h-4.157V25.87H154V22h13v3.87z"/><path id="Fill-20" fill="#000" d="M169 22h10v3.87h-6.127v2.096h5.188v3.869h-5.188v2.296H179V38h-10z"/><path d="M185.125 25.62v3.419h2.025c1.25 0 2.075-.699 2.075-1.747 0-.999-.825-1.673-2.075-1.673h-2.025zM181 22h5.825c4.075 0 6.775 2.097 6.775 5.292 0 2.072-1.1 3.694-2.975 4.592L194 38h-4.775l-2.75-5.342h-1.35V38H181V22z" id="Fill-21" fill="#000"/><path d="M205.178 27.46a4.41 4.41 0 00-3.527-1.764c-1.033 0-1.537.381-1.537.93 0 1.979 7.886 1.073 7.886 6.414 0 2.838-2.645 4.96-6.45 4.96-3.653 0-5.542-1.359-6.55-2.861l2.948-2.624c.932 1.217 2.192 1.789 3.678 1.789 1.26 0 1.915-.381 1.915-1.097 0-2.074-7.886-1.097-7.886-6.486 0-2.742 2.595-4.721 6.172-4.721 2.797 0 4.964 1.144 6.173 2.79l-2.822 2.67z" id="Fill-22" fill="#000"/></g></g></g></svg>