<svg width="249" height="38" xmlns="http://www.w3.org/2000/svg" xmlns:xlink="http://www.w3.org/1999/xlink"><defs><path id="path-1" d="M0 38h249V0H0z"/></defs><g id="Page-1" stroke="none" stroke-width="1" fill="none" fill-rule="evenodd"><g id="Home-3" transform="translate(-347 -46)"><g id="Group-23" transform="translate(347 46)"><g id="Group-3" fill="#18632D"><path d="M74.3.165H18.402l1.515 1.015L46.32 18.878a.548.548 0 00.611 0l19.85-13.304a.551.551 0 01.857.46v24.16a.553.553 0 01-.551.554H26.165a.553.553 0 01-.551-.554V21.45a.55.55 0 01.414-.534h10.934L35.447 19.9l-.021-.015-.006-.005L19.258 9.05a.551.551 0 00-.857.461v3.623a.553.553 0 01-.551.554H8.738v7.252h9.111c.305 0 .552.248.552.554v8.701a.552.552 0 01-.548.554H0V38h74.851V.165h-.55z" id="Fill-1"/></g><path id="Fill-4" fill="#000" d="M86 0h10v3.869h-6.043v2.546h5.084v3.869h-5.084V16H86z"/><mask id="mask-2" fill="#fff"><use xlink:href="#path-1"/></mask><path id="Fill-6" fill="#000" mask="url(#mask-2)" d="M99 16h4V0h-4z"/><path d="M116.178 5.46a4.41 4.41 0 00-3.527-1.764c-1.033 0-1.537.382-1.537.93 0 1.98 7.886 1.073 7.886 6.414 0 2.838-2.645 4.96-6.45 4.96-3.653 0-5.542-1.359-6.55-2.861l2.948-2.623c.932 1.216 2.192 1.788 3.678 1.788 1.26 0 1.915-.381 1.915-1.097 0-2.074-7.886-1.097-7.886-6.486 0-2.742 2.595-4.721 6.172-4.721 2.797 0 4.964 1.145 6.173 2.79l-2.822 2.67z" id="Fill-8" fill="#000" mask="url(#mask-2)"/><path d="M132.336 5.27c-.727-.74-1.938-1.336-3.246-1.336-2.131 0-3.803 1.813-3.803 4.054 0 2.242 1.672 4.078 3.997 4.078 1.138 0 2.35-.501 3.052-1.336L135 13.64c-1.308 1.55-3.27 2.36-5.983 2.36C124.44 16 121 12.4 121 7.988 121 3.577 124.609 0 129.041 0c2.81 0 4.724.906 5.959 2.265l-2.664 3.005z" id="Fill-9" fill="#000" mask="url(#mask-2)"/><path d="M145.402 4.368l-1.788 4.967h3.552l-1.764-4.967zm3.062 8.612h-6.149L141.238 16H137l6.124-16h4.752L154 16h-4.458l-1.078-3.02z" id="Fill-10" fill="#000" mask="url(#mask-2)"/><path id="Fill-11" fill="#000" mask="url(#mask-2)" d="M157 0h3.98v12.131H168V16h-11z"/><path id="Fill-12" fill="#000" mask="url(#mask-2)" d="M90.003 28.89V38H86V22h4.294l5.703 9.26V22H100v16h-4.295z"/><path id="Fill-13" fill="#000" mask="url(#mask-2)" d="M103 22h10v3.87h-6.127v2.096h5.188v3.869h-5.188v2.296H113V38h-10z"/><path id="Fill-14" fill="#000" mask="url(#mask-2)" d="M140 22l-5 16h-5.2l-2.4-10.883L125 38h-5l-5-16h4.55l2.95 11.258L125.025 22h5.175l2.525 11.258L135.675 22z"/><path d="M150.178 27.46a4.41 4.41 0 00-3.527-1.764c-1.033 0-1.537.381-1.537.93 0 1.979 7.886 1.073 7.886 6.414 0 2.838-2.645 4.96-6.45 4.96-3.653 0-5.542-1.359-6.55-2.861l2.948-2.624c.932 1.217 2.192 1.789 3.678 1.789 1.26 0 1.915-.381 1.915-1.097 0-2.074-7.886-1.097-7.886-6.486 0-2.742 2.595-4.721 6.172-4.721 2.797 0 4.964 1.144 6.173 2.79l-2.822 2.67z" id="Fill-15" fill="#000" mask="url(#mask-2)"/><path id="Fill-16" fill="#000" mask="url(#mask-2)" d="M155 22h3.98v12.131H166V38h-11z"/><path id="Fill-17" fill="#000" mask="url(#mask-2)" d="M169 22h10v3.87h-6.127v2.096h5.188v3.869h-5.188v2.296H179V38h-10z"/><path id="Fill-18" fill="#000" mask="url(#mask-2)" d="M189.566 25.87V38h-4.157V25.87H181V22h13v3.87z"/><path id="Fill-19" fill="#000" mask="url(#mask-2)" d="M203.566 25.87V38h-4.157V25.87H195V22h13v3.87z"/><path id="Fill-20" fill="#000" mask="url(#mask-2)" d="M210 22h10v3.87h-6.127v2.096h5.188v3.869h-5.188v2.296H220V38h-10z"/><path d="M226.125 25.62v3.419h2.025c1.25 0 2.075-.699 2.075-1.747 0-.999-.825-1.673-2.075-1.673h-2.025zM222 22h5.825c4.075 0 6.775 2.097 6.775 5.292 0 2.072-1.1 3.694-2.975 4.592L235 38h-4.775l-2.75-5.342h-1.35V38H222V22z" id="Fill-21" fill="#000" mask="url(#mask-2)"/><path d="M246.178 27.46a4.41 4.41 0 00-3.527-1.764c-1.033 0-1.537.381-1.537.93 0 1.979 7.886 1.073 7.886 6.414 0 2.838-2.645 4.96-6.45 4.96-3.653 0-5.542-1.359-6.55-2.861l2.948-2.624c.932 1.217 2.192 1.789 3.678 1.789 1.26 0 1.915-.381 1.915-1.097 0-2.074-7.886-1.097-7.886-6.486 0-2.742 2.595-4.721 6.172-4.721 2.797 0 4.964 1.144 6.173 2.79l-2.822 2.67z" id="Fill-22" fill="#000" mask="url(#mask-2)"/></g></g></g></svg>