<svg width="29" height="29" xmlns="http://www.w3.org/2000/svg"><g id="Page-1" stroke="none" stroke-width="1" fill="none" fill-rule="evenodd" stroke-linecap="round" stroke-linejoin="round"><g id="Home-3" transform="translate(-767 -1440)" stroke="#18632D" stroke-width="2"><g id="Group" transform="translate(768 1441)"><path d="M24 9h-9.707a1.5 1.5 0 01-1.24-.657l-2.108-3.098a1.5 1.5 0 00-1.239-.655H3a3 3 0 00-3 3V24a3 3 0 003 3h21a3 3 0 003-3V12a3 3 0 00-3-3z" id="Path"/><path d="M27 24V12a3 3 0 00-3-3h-9.707a1.5 1.5 0 01-1.24-.657l-2.108-3.098a1.5 1.5 0 00-1.239-.655H3a3 3 0 00-3 3V24M24 4.41h-6.706a1.5 1.5 0 01-1.241-.657L13.945.655A1.5 1.5 0 0012.706 0H3" id="Path"/></g></g></g></svg>