<svg width="42" height="43" xmlns="http://www.w3.org/2000/svg"><g id="Page-1" stroke="none" stroke-width="1" fill="none" fill-rule="evenodd"><g id="Home-3" transform="translate(-1047 -3482)" fill-rule="nonzero"><g id="Google__G__Logo" transform="translate(1047 3482)"><path d="M42 20.329c0-1.448-.115-2.904-.36-4.329H22v8.204h11.247c-.467 2.645-1.966 4.986-4.162 6.473V36h6.71C39.735 32.29 42 26.81 42 20.329z" id="Path" fill="#4285F4"/><path d="M20.946 43c5.718 0 10.54-1.862 14.054-5.077l-6.832-5.254c-1.901 1.282-4.355 2.009-7.214 2.009-5.531 0-10.221-3.702-11.904-8.678H2v5.417C5.6 38.518 12.93 43 20.946 43z" id="Path" fill="#34A853"/><path d="M9 26.55a13.045 13.045 0 010-8.1V13H2.183a21.762 21.762 0 000 19L9 26.55z" id="Path" fill="#FBBC04"/><path d="M20.87 8.32a11.505 11.505 0 018.101 3.15l6.029-6A20.348 20.348 0 0020.87 0C12.886.001 5.585 4.481 2 11.586L9.014 17c1.669-4.981 6.347-8.68 11.856-8.68z" id="Path" fill="#EA4335"/></g></g></g></svg>