<svg width="31" height="29" xmlns="http://www.w3.org/2000/svg"><g id="Page-1" stroke="none" stroke-width="1" fill="none" fill-rule="evenodd" stroke-linecap="round" stroke-linejoin="round"><g id="Home-3" transform="translate(-766 -1135)" stroke="#18632D" stroke-width="2"><g id="news-2-paper" transform="translate(767 1136)"><path d="M22.556 6.353l3.23.008C27.561 6.365 29 7.786 29 9.537v14.287C29 25.578 27.557 27 25.778 27h0c-1.78 0-3.222-1.422-3.222-3.176V3.176C22.556 1.422 21.113 0 19.333 0H3.223C1.442 0 0 1.422 0 3.176v20.648C0 25.578 1.443 27 3.222 27h22.556M16 21H5m11-5H5" id="Path"/><rect id="Rectangle" x="5" y="7" width="11" height="5" rx=".5"/></g></g></g></svg>