<svg width="17" height="21" xmlns="http://www.w3.org/2000/svg"><g id="Page-1" stroke="none" stroke-width="1" fill="none" fill-rule="evenodd" stroke-linecap="round" stroke-linejoin="round"><g id="Home-3" transform="translate(-454 -2672)" stroke="#000" stroke-width="1.2"><g id="Group" transform="translate(455 2673)"><path d="M14.372 3.604L11.342.619A2.16 2.16 0 009.827 0H2.143C.959 0 0 .945 0 2.111V16.89C0 18.055.959 19 2.143 19h10.714C14.041 19 15 18.055 15 16.889V5.096c0-.56-.226-1.097-.628-1.492h0z" id="Path"/><path d="M15 5h-4a1 1 0 01-1-1V0M6 14.5h4m-4-4v-1c0-.276.335-.5.75-.5h1.5c.415 0 .75.224.75.5v1c0 .276-.335.5-.75.5h-1.5c-.415 0-.75-.225-.75-.5zm-3 5v-1c0-.276.335-.5.75-.5h1.5c.415 0 .75.224.75.5v1c0 .276-.335.5-.75.5h-1.5c-.415 0-.75-.224-.75-.5zm6 0v-1c0-.276.335-.5.75-.5h1.5c.415 0 .75.224.75.5v1c-.001.276-.337.5-.75.5H9.747C9.335 16 9 15.776 9 15.5h0zm1-2.5l-2-2m-3 2l2-2" id="Path"/></g></g></g></svg>