<svg width="27" height="34" xmlns="http://www.w3.org/2000/svg"><g id="Page-1" stroke="none" stroke-width="1" fill="none" fill-rule="evenodd" stroke-linecap="round" stroke-linejoin="round"><g id="Home-3" transform="translate(-439 -551)" stroke="#3BBDFF" stroke-width="2"><g id="Documents,-File,-Pdf" transform="translate(440 552)"><g id="Group"><path d="M23.954 6.07l-5.05-5.028A3.58 3.58 0 0016.379 0H3.57A3.563 3.563 0 000 3.556v24.888A3.563 3.563 0 003.571 32H21.43A3.563 3.563 0 0025 28.444V8.584c0-.943-.377-1.848-1.046-2.515h0z" id="Path"/><path d="M25 8.889h-7.143a1.782 1.782 0 01-1.786-1.778V0M9.536 24.089h5.928m-5.048-6.754V15.26c0-.573.466-1.037 1.041-1.037h2.086c.575 0 1.04.464 1.04 1.037v2.076c0 .573-.465 1.037-1.04 1.037h-2.086a1.041 1.041 0 01-1.04-1.037zM5.357 25.63v-2.076c0-.573.466-1.037 1.041-1.037h2.086c.575 0 1.041.464 1.041 1.037v2.076c0 .573-.466 1.037-1.041 1.037H6.398a1.039 1.039 0 01-1.04-1.037zm10.12 0v-2.076c0-.573.466-1.037 1.04-1.037h2.087c.575 0 1.04.464 1.04 1.037v2.076a1.041 1.041 0 01-1.042 1.037h-2.086a1.04 1.04 0 01-1.04-1.037h0zm1.023-3.106l-2.696-4.195M8.5 22.524l2.696-4.195" id="Path"/></g></g></g></g></svg>