<svg width="67" height="77" xmlns="http://www.w3.org/2000/svg"><g id="Page-1" stroke="none" stroke-width="1" fill="none" fill-rule="evenodd"><g id="Sign-Up" transform="translate(-1314 -6403)" stroke="#042" stroke-width="3"><g id="Group-7" transform="translate(1316 6405)"><path d="M25 47c0 2.762 2.462 5 5.5 5s5.5-2.238 5.5-5-2.462-5-5.5-5-5.5 2.238-5.5 5z" id="Stroke-1"/><path d="M26.134 30.211c0-4.548 6.794-9.34 9.485-12.09 2.287-2.338 2.072-6.294-.738-8.258-1.672-1.167-3.927-1.225-5.639-.125a5.393 5.393 0 00-2.47 4.019c0 1.975-.168 2.876-2.1 2.876H19.69c-1.933 0-1.684-.902-1.677-2.876.156-4.031 1.969-8.01 5.442-10.773 4.68-3.723 11.347-4.002 16.266-.614 7.56 5.205 8.338 15.962 2.084 22.077-1.95 1.908-7.37 5.112-7.37 7.461v3.395c0 .938-.547 1.697-1.463 1.697h-4.98c-.919 0-1.859-.759-1.859-1.697V30.21z" id="Stroke-3"/><path d="M51.081 23h5.108C59.95 23 63 26.033 63 29.773V53.48c0 3.74-3.05 6.773-6.81 6.773H30.132L18.25 72.48c-1.062 1.094-2.927.347-2.927-1.177v-11.05H6.811C3.05 60.253 0 57.22 0 53.48V29.773C0 26.033 3.05 23 6.81 23h5.109" id="Stroke-5" stroke-linejoin="round"/></g></g></g></svg>