<svg width="29" height="29" xmlns="http://www.w3.org/2000/svg"><g id="Page-1" stroke="none" stroke-width="1" fill="none" fill-rule="evenodd" stroke-linecap="round" stroke-linejoin="round"><g id="Home-3" transform="translate(-1209 -1440)" stroke="#18632D" stroke-width="2"><g id="Group" transform="translate(1210 1441)"><path d="M0 19.125h3.501a2 2 0 001.415-.585h0a2 2 0 00.585-1.415v-8h0a2 2 0 00-.586-1.415h0a2 2 0 00-1.414-.585H.01m26.98 0H23.5h0a2 2 0 00-1.414.585h0a2 2 0 00-.585 1.415v8h0a2 2 0 00.585 1.415h0a2 2 0 001.415.585h3.489" id="Path"/><rect id="Rectangle" x="0" y="0" width="27" height="27" rx="2.761"/><path d="M21.531 17.47h-1.29 0c-.43 0-.853.092-1.244.27l-6.31 2.875M11.468 8.502h0a2.982 2.982 0 00-2.513-.252l-3.45 1.244m16.236-1.34l-4.314-1.899h0a3 3 0 00-2.84.228l-3.915 2.536h0a2.259 2.259 0 00-.289 3.569h0a2.26 2.26 0 002.472.373l2.334-1.089" id="Path"/><path d="M15.189 11.871l1.185 1.075h0a3 3 0 01.012 4.436l-3.026 2.769h0a3 3 0 01-4.039.01l-2.079-1.885h0a3 3 0 00-1.778-.75" id="Path"/></g></g></g></svg>