<svg width="330" height="27" xmlns="http://www.w3.org/2000/svg"><g id="Page-1" stroke="none" stroke-width="1" fill="none" fill-rule="evenodd"><g id="Home" transform="translate(-345 -45)" fill="#5F7174"><g id="Group-4" transform="translate(345 45)"><path id="Fill-35" d="M21 7.449h-6.957V27H6.957V7.449H0V1h21z"/><path d="M36.02 20.413c3.874 0 6.679-2.892 6.679-6.912 0-4.022-2.805-6.913-6.68-6.913-3.874 0-6.72 2.911-6.72 6.913 0 4 2.846 6.91 6.72 6.91v.002zM22 13.499C22 5.644 27.838 0 36.02 0 44.182 0 50 5.623 50 13.5 50 21.374 44.182 27 36.02 27 27.838 27 22 21.355 22 13.5z" id="Fill-37"/><path d="M67.531 10.41c0-1.848-1.262-3.154-3.174-3.154h-3.075v6.309h3.075c1.912 0 3.174-1.307 3.174-3.155M75 10.393c0 5.453-4.165 9.425-9.772 9.425h-3.946V27H54V1h11.228C70.835 1 75 4.942 75 10.393" id="Fill-39"/><path d="M90.367 9.692c5.71 0 9.633 3.484 9.633 8.467 0 5.16-3.967 8.841-9.53 8.841-5.556 0-9.47-3.647-9.47-8.803h6.539c0 1.727 1.217 2.96 2.931 2.96 1.68 0 2.9-1.278 2.9-3 0-1.825-1.283-3.07-3.153-3.07h-7.936l-.648-.84L83.057 1H98.17v5.792h-9.855l-.325 2.9h2.377z" id="Fill-41"/><path d="M123 24.25c.483 0 .958-.038 1.425-.113.467-.075.93-.183 1.388-.325.458-.141.904-.32 1.337-.537.417-.2.67-.52.762-.962.092-.442-.029-.871-.362-1.288-.233-.3-.52-.475-.862-.525a1.777 1.777 0 00-1.038.175c-.417.217-.85.367-1.3.45a7.4 7.4 0 01-1.35.125 6.89 6.89 0 01-2.275-.363 4.878 4.878 0 01-1.825-1.112c-.517-.5-.92-1.125-1.213-1.875-.291-.75-.437-1.633-.437-2.65 0-.867.13-1.658.388-2.375a5.242 5.242 0 011.137-1.863 5.067 5.067 0 011.813-1.212c.708-.283 1.512-.425 2.412-.425a6.266 6.266 0 012.65.575c.35.167.696.233 1.037.2.342-.033.621-.2.838-.5.317-.383.438-.808.362-1.275-.075-.467-.329-.808-.762-1.025a8.734 8.734 0 00-1.975-.725 9.25 9.25 0 00-2.15-.25c-1.3 0-2.5.22-3.6.662a8.645 8.645 0 00-2.863 1.85 8.245 8.245 0 00-1.875 2.813c-.441 1.083-.662 2.267-.662 3.55 0 1.483.242 2.788.725 3.913s1.146 2.062 1.988 2.812c.841.75 1.8 1.317 2.875 1.7s2.212.575 3.412.575zm12.7 0c.633 0 1.22-.104 1.763-.313a5.824 5.824 0 001.412-.762c.24-.18.45-.361.63-.544l.121-.131.006.134c.026.312.132.584.318.816l.1.113c.283.291.642.437 1.075.437.433 0 .792-.146 1.075-.438a1.5 1.5 0 00.425-1.087V11.9c0-.45-.142-.817-.425-1.1-.283-.283-.642-.425-1.075-.425-.433 0-.792.146-1.075.438a1.5 1.5 0 00-.425 1.087v.035l-.08-.075a5.847 5.847 0 00-.195-.168l-.213-.167a5.902 5.902 0 00-1.562-.825 5.776 5.776 0 00-1.975-.325 5.507 5.507 0 00-3.05.887c-.917.592-1.646 1.409-2.188 2.45-.541 1.042-.812 2.246-.812 3.613 0 1.35.27 2.546.813 3.588.541 1.041 1.279 1.858 2.212 2.45.933.591 1.975.887 3.125.887zm.375-2.75c-.717 0-1.35-.183-1.9-.55a3.714 3.714 0 01-1.288-1.5c-.308-.633-.462-1.342-.462-2.125 0-.8.154-1.517.462-2.15a3.714 3.714 0 011.288-1.5c.55-.367 1.183-.55 1.9-.55.733 0 1.375.183 1.925.55.55.367.98.867 1.287 1.5.309.633.463 1.35.463 2.15 0 .783-.154 1.492-.463 2.125a3.714 3.714 0 01-1.287 1.5c-.55.367-1.192.55-1.925.55zm11.3 2.5c.433 0 .792-.146 1.075-.438a1.5 1.5 0 00.425-1.087V16.55c0-.6.08-1.12.238-1.563a3.49 3.49 0 01.625-1.112c.258-.3.541-.52.85-.662.308-.142.612-.213.912-.213.333 0 .63.058.887.175l.159.063c.216.075.45.112.704.112.333 0 .642-.12.925-.362.283-.242.425-.638.425-1.188 0-.383-.17-.717-.512-1-.342-.283-.763-.425-1.263-.425-.417 0-.833.05-1.25.15-.417.1-.808.254-1.175.463a4.227 4.227 0 00-.988.774c-.174.185-.33.387-.466.605l-.071.123v-.34c0-.38-.108-.704-.325-.975l-.1-.113c-.283-.291-.642-.437-1.075-.437-.433 0-.792.146-1.075.438a1.5 1.5 0 00-.425 1.087v10.325c0 .433.142.796.425 1.087.283.292.642.438 1.075.438zm24.725.25c.483 0 .958-.038 1.425-.113.467-.075.93-.183 1.387-.325.459-.141.905-.32 1.338-.537.417-.2.67-.52.762-.962.092-.442-.029-.871-.362-1.288-.233-.3-.52-.475-.863-.525a1.777 1.777 0 00-1.037.175c-.417.217-.85.367-1.3.45a7.4 7.4 0 01-1.35.125 6.89 6.89 0 01-2.275-.363A4.878 4.878 0 01168 19.776c-.517-.5-.92-1.125-1.213-1.875-.291-.75-.437-1.633-.437-2.65 0-.867.13-1.658.388-2.375a5.242 5.242 0 011.137-1.863 5.067 5.067 0 011.813-1.212c.708-.283 1.512-.425 2.412-.425a6.266 6.266 0 012.65.575c.35.167.696.233 1.037.2.342-.033.621-.2.838-.5.317-.383.438-.808.363-1.275-.076-.467-.33-.808-.763-1.025a8.734 8.734 0 00-1.975-.725 9.25 9.25 0 00-2.15-.25c-1.3 0-2.5.22-3.6.662a8.645 8.645 0 00-2.863 1.85 8.245 8.245 0 00-1.875 2.813c-.441 1.083-.662 2.267-.662 3.55 0 1.483.242 2.788.725 3.913s1.146 2.062 1.988 2.812c.841.75 1.8 1.317 2.875 1.7s2.212.575 3.412.575zm13.35 0c1.267 0 2.413-.292 3.438-.875a6.55 6.55 0 002.45-2.438c.608-1.041.912-2.245.912-3.612s-.304-2.57-.912-3.612a6.645 6.645 0 00-2.45-2.45c-1.025-.592-2.171-.888-3.438-.888-1.267 0-2.412.296-3.438.887a6.645 6.645 0 00-2.45 2.45c-.608 1.042-.912 2.246-.912 3.613s.304 2.57.912 3.613a6.55 6.55 0 002.45 2.437c1.025.583 2.171.875 3.438.875zm0-2.75c-.7 0-1.337-.175-1.912-.525a3.814 3.814 0 01-1.376-1.463c-.341-.625-.512-1.354-.512-2.187 0-.85.17-1.587.512-2.212.342-.625.8-1.113 1.375-1.463a3.607 3.607 0 011.913-.525c.7 0 1.338.175 1.913.525.575.35 1.033.838 1.375 1.463.341.625.512 1.362.512 2.212 0 .833-.17 1.563-.512 2.188a3.814 3.814 0 01-1.375 1.462 3.607 3.607 0 01-1.913.525zm14.7 2.75c.633 0 1.22-.104 1.762-.313a5.824 5.824 0 001.413-.762c.24-.18.45-.361.63-.544l.121-.131.006.134c.026.312.132.584.318.816l.1.113c.283.291.642.437 1.075.437.433 0 .792-.146 1.075-.438a1.5 1.5 0 00.425-1.087V7.025c0-.45-.142-.817-.425-1.1-.283-.283-.642-.425-1.075-.425-.433 0-.792.146-1.075.438a1.5 1.5 0 00-.425 1.087v4.911l-.08-.076a5.847 5.847 0 00-.195-.168l-.213-.167a5.902 5.902 0 00-1.562-.825 5.776 5.776 0 00-1.975-.325 5.507 5.507 0 00-3.05.887c-.917.592-1.646 1.409-2.188 2.45-.541 1.042-.812 2.246-.812 3.613 0 1.35.27 2.546.813 3.588.541 1.041 1.279 1.858 2.212 2.45.933.591 1.975.887 3.125.887zm.375-2.75c-.717 0-1.35-.183-1.9-.55a3.714 3.714 0 01-1.287-1.5c-.309-.633-.463-1.342-.463-2.125 0-.8.154-1.517.463-2.15a3.714 3.714 0 011.287-1.5c.55-.367 1.183-.55 1.9-.55.733 0 1.375.183 1.925.55.55.367.98.867 1.288 1.5.308.633.462 1.35.462 2.15 0 .783-.154 1.492-.462 2.125a3.714 3.714 0 01-1.288 1.5c-.55.367-1.192.55-1.925.55zm15.975 2.75c.833 0 1.642-.137 2.425-.413.783-.274 1.392-.595 1.825-.962.467-.367.7-.775.7-1.225 0-.333-.12-.625-.362-.875a1.216 1.216 0 00-.913-.375c-.267 0-.55.075-.85.225-.183.1-.387.22-.612.363a3.337 3.337 0 01-.888.362c-.367.1-.858.15-1.475.15a3.862 3.862 0 01-1.887-.488 3.824 3.824 0 01-1.45-1.425 3.802 3.802 0 01-.452-1.168l-.013-.069h8.252c.343 0 .649-.092.918-.276l.132-.099c.3-.25.458-.575.475-.975 0-.9-.17-1.75-.512-2.55a6.988 6.988 0 00-1.388-2.112 6.595 6.595 0 00-2.013-1.438 5.689 5.689 0 00-2.412-.525c-1.1 0-2.142.283-3.125.85-.983.567-1.78 1.38-2.387 2.438-.609 1.058-.913 2.337-.913 3.837 0 1.283.28 2.433.838 3.45a6.129 6.129 0 002.4 2.413c1.041.591 2.27.887 3.687.887zm2.625-8.4h-6.551l.03-.148a4.44 4.44 0 01.057-.22l.064-.207c.183-.533.433-.958.75-1.275a2.682 2.682 0 011.125-.675c.433-.133.9-.2 1.4-.2.517 0 1.004.113 1.463.338.458.225.841.529 1.15.912.308.383.479.817.512 1.3v.175zm25.525 8.138c.283.058.567.058.85 0a1.21 1.21 0 00.7-.413c.283-.317.38-.68.288-1.087a1.407 1.407 0 00-.688-.938.885.885 0 01-.438-.5 3.259 3.259 0 01-.15-.8 13.45 13.45 0 00-.137-1.1 3.749 3.749 0 00-.313-1.262 4.192 4.192 0 00-.725-1.1 3.834 3.834 0 00-.521-.479l-.166-.117.177-.12c.216-.154.422-.328.618-.521l.192-.201a5.783 5.783 0 001.05-1.625c.259-.6.388-1.217.388-1.85 0-1.05-.233-1.98-.7-2.787a5.225 5.225 0 00-1.837-1.9A4.632 4.632 0 00240.8 6.5h-7.2c-.433 0-.796.146-1.088.438a1.476 1.476 0 00-.437 1.087v14.45c0 .433.183.796.55 1.087.367.292.783.438 1.25.438.417 0 .742-.146.975-.438.233-.291.35-.654.35-1.087l-.001-4.85h4.676c.307 0 .581.03.824.088l.176.05c.283.091.517.224.7.4.183.174.325.383.425.625.1.241.15.504.15.787 0 .867.088 1.575.262 2.125.175.55.405.988.688 1.313.283.324.567.57.85.737.183.1.417.18.7.238zm-9.451-14.613h5.476c.45 0 .87.246 1.262.738.392.491.588 1.104.588 1.837 0 .567-.092 1.088-.275 1.563-.183.475-.417.85-.7 1.124-.283.275-.575.413-.875.413h-5.476V9.375zm19.976 14.875c.833 0 1.642-.137 2.425-.413.783-.274 1.392-.595 1.825-.962.467-.367.7-.775.7-1.225 0-.333-.12-.625-.363-.875a1.216 1.216 0 00-.912-.375c-.267 0-.55.075-.85.225-.183.1-.387.22-.613.363-.224.141-.52.262-.887.362-.367.1-.858.15-1.475.15a3.862 3.862 0 01-1.888-.488 3.838 3.838 0 01-1.45-1.425 3.802 3.802 0 01-.45-1.168l-.014-.069h8.252c.343 0 .649-.092.918-.276l.132-.099c.3-.25.458-.575.475-.975 0-.9-.17-1.75-.512-2.55a6.988 6.988 0 00-1.388-2.112 6.595 6.595 0 00-2.013-1.438 5.689 5.689 0 00-2.412-.525c-1.1 0-2.142.283-3.125.85-.983.567-1.78 1.38-2.388 2.438-.608 1.058-.912 2.337-.912 3.837 0 1.283.28 2.433.838 3.45a6.129 6.129 0 002.4 2.413c1.041.591 2.27.887 3.687.887zm2.625-8.4h-6.551l.03-.148c.018-.076.036-.15.057-.22l.064-.207c.183-.533.433-.958.75-1.275a2.682 2.682 0 011.125-.675c.433-.133.9-.2 1.4-.2.517 0 1.004.113 1.462.338a3.34 3.34 0 011.15.912c.309.383.48.817.513 1.3v.175zm11.1 8.4c.633 0 1.22-.104 1.763-.313a5.824 5.824 0 001.412-.762c.24-.18.45-.361.63-.544l.121-.131.006.134c.026.312.132.584.318.816l.1.113c.283.291.642.437 1.075.437.433 0 .792-.146 1.075-.438a1.5 1.5 0 00.425-1.087V11.9c0-.45-.142-.817-.425-1.1-.283-.283-.642-.425-1.075-.425-.433 0-.792.146-1.075.438a1.5 1.5 0 00-.425 1.087v.035l-.08-.075a5.847 5.847 0 00-.195-.168l-.213-.167a5.902 5.902 0 00-1.562-.825 5.776 5.776 0 00-1.975-.325 5.507 5.507 0 00-3.05.887c-.917.592-1.646 1.409-2.188 2.45-.541 1.042-.812 2.246-.812 3.613 0 1.35.27 2.546.813 3.588.541 1.041 1.279 1.858 2.212 2.45.933.591 1.975.887 3.125.887zm.375-2.75c-.717 0-1.35-.183-1.9-.55a3.714 3.714 0 01-1.288-1.5c-.308-.633-.462-1.342-.462-2.125 0-.8.154-1.517.462-2.15a3.714 3.714 0 011.288-1.5c.55-.367 1.183-.55 1.9-.55.733 0 1.375.183 1.925.55.55.367.98.867 1.288 1.5.308.633.462 1.35.462 2.15 0 .783-.154 1.492-.462 2.125a3.714 3.714 0 01-1.288 1.5c-.55.367-1.192.55-1.925.55zm15.2 2.75c.633 0 1.22-.104 1.762-.313a5.824 5.824 0 001.413-.762c.24-.18.45-.361.63-.544l.12-.13.007.133c.026.312.132.584.318.816l.1.113c.283.291.642.437 1.075.437.433 0 .792-.146 1.075-.438a1.5 1.5 0 00.425-1.087V7.025c0-.45-.142-.817-.425-1.1-.283-.283-.642-.425-1.075-.425-.433 0-.792.146-1.075.438a1.5 1.5 0 00-.425 1.087l-.001 4.909-.078-.074a5.847 5.847 0 00-.196-.168l-.212-.167a5.902 5.902 0 00-1.563-.825 5.776 5.776 0 00-1.975-.325 5.507 5.507 0 00-3.05.887c-.917.592-1.646 1.409-2.188 2.45-.541 1.042-.812 2.246-.812 3.613 0 1.35.27 2.546.813 3.588.541 1.041 1.279 1.858 2.212 2.45.933.591 1.975.887 3.125.887zm.375-2.75c-.717 0-1.35-.183-1.9-.55a3.714 3.714 0 01-1.287-1.5c-.309-.633-.463-1.342-.463-2.125 0-.8.154-1.517.463-2.15a3.714 3.714 0 011.287-1.5c.55-.367 1.183-.55 1.9-.55.733 0 1.375.183 1.925.55.55.367.98.867 1.288 1.5.308.633.462 1.35.462 2.15 0 .783-.154 1.492-.462 2.125a3.714 3.714 0 01-1.288 1.5c-.55.367-1.192.55-1.925.55zm15.975 2.75c.833 0 1.642-.137 2.425-.413.783-.274 1.392-.595 1.825-.962.467-.367.7-.775.7-1.225 0-.333-.12-.625-.362-.875a1.216 1.216 0 00-.913-.375c-.267 0-.55.075-.85.225-.183.1-.387.22-.612.363a3.351 3.351 0 01-.888.362c-.367.1-.858.15-1.475.15a3.862 3.862 0 01-1.887-.488 3.824 3.824 0 01-1.45-1.425 3.802 3.802 0 01-.452-1.168l-.013-.069h8.252c.343 0 .649-.092.918-.276l.132-.099c.3-.25.458-.575.475-.975 0-.9-.17-1.75-.512-2.55a6.988 6.988 0 00-1.388-2.112 6.595 6.595 0 00-2.012-1.438 5.689 5.689 0 00-2.413-.525c-1.1 0-2.142.283-3.125.85-.983.567-1.78 1.38-2.387 2.438-.609 1.058-.913 2.337-.913 3.837 0 1.283.28 2.433.838 3.45a6.129 6.129 0 002.4 2.413c1.041.591 2.27.887 3.687.887zm2.625-8.4h-6.551l.03-.148c.018-.076.036-.15.057-.22l.064-.207c.183-.533.433-.958.75-1.275a2.682 2.682 0 011.125-.675c.433-.133.9-.2 1.4-.2.517 0 1.004.113 1.463.338.458.225.841.529 1.15.912.308.383.479.817.512 1.3v.175zm7.2 8.15c.433 0 .792-.146 1.075-.438a1.5 1.5 0 00.425-1.087V16.55c0-.6.08-1.12.238-1.563a3.49 3.49 0 01.625-1.112c.258-.3.541-.52.85-.662.308-.142.612-.213.912-.213.333 0 .63.058.888.175.258.117.545.175.862.175.333 0 .642-.12.925-.362.283-.242.425-.638.425-1.188 0-.383-.17-.717-.512-1-.342-.283-.763-.425-1.263-.425-.417 0-.833.05-1.25.15-.417.1-.808.254-1.175.463a4.227 4.227 0 00-.988.774c-.175.185-.33.387-.466.605l-.072.124.001-.341c0-.38-.108-.704-.325-.975l-.1-.113c-.283-.291-.642-.437-1.075-.437-.433 0-.792.146-1.075.438a1.5 1.5 0 00-.425 1.087v10.325c0 .433.142.796.425 1.087.283.292.642.438 1.075.438zm13.975.25c.783 0 1.55-.154 2.3-.462a4.748 4.748 0 001.875-1.363c.5-.6.75-1.325.75-2.175 0-.733-.133-1.337-.4-1.813a3.44 3.44 0 00-1.05-1.162 6.036 6.036 0 00-1.425-.725 19.882 19.882 0 00-1.525-.475c-.483-.133-.938-.27-1.362-.412-.425-.142-.763-.325-1.013-.55-.25-.226-.375-.53-.375-.913 0-.417.108-.72.325-.912.217-.192.47-.317.762-.376a4.16 4.16 0 01.813-.087c.617 0 1.162.108 1.637.325.476.217.855.508 1.138.875.217.2.492.313.825.338.333.024.625-.063.875-.263.35-.283.508-.6.475-.95a1.774 1.774 0 00-.325-.9 4.016 4.016 0 00-1.3-1.088 6.359 6.359 0 00-1.625-.6 7.546 7.546 0 00-1.625-.187 5.88 5.88 0 00-2.337.475c-.742.317-1.346.767-1.813 1.35-.467.583-.7 1.292-.7 2.125 0 .733.142 1.342.425 1.825.283.483.65.87 1.1 1.163.45.291.946.529 1.488.712.541.183 1.07.35 1.587.5.5.133.954.275 1.363.425.408.15.737.333.987.55.25.217.375.508.375.875 0 .433-.113.754-.338.962a1.582 1.582 0 01-.787.4c-.3.059-.575.096-.825.113-.8 0-1.467-.133-2-.4a5.898 5.898 0 01-1.525-1.125c-.283-.283-.575-.438-.875-.462-.3-.026-.583.045-.85.212-.417.267-.633.583-.65.95-.017.367.058.667.225.9.65.867 1.467 1.47 2.45 1.813a8.939 8.939 0 002.95.512z" id="CarCodeReaders" fill-rule="nonzero"/></g></g></g></svg>