<svg version="1.1" id="Layer_1" xmlns="http://www.w3.org/2000/svg" x="0" y="0" width="496" height="496" xml:space="preserve"><style>.st0{fill:#198a89}</style><path class="st0" d="M448 48V24c0-13.2-10.8-24-24-24h-32c-13.2 0-24 10.8-24 24v24H172.4L96 132.9V160H0v208h96v128h400V48h-48zm-64 192V112h16v128h-16zm41.1 16L408 281.6 390.9 256h34.2zm6.9-16h-16V112h16v128zm0-144h-48V80h48v16zm-40-80h32c4.4 0 8 3.6 8 8v40h-48V24c0-4.4 3.6-8 8-8zM168 76.8V128h-46l46-51.2zM16 176h320v176H16V176zm464 304H112V368h240V160H112v-16h72V64h184v186.4l40 60 40-60V64h32v416z"/><path class="st0" d="M200 80h152v16H200V80zm0 32h152v16H200v-16zm-72 272h336v16H128v-16zm0 32h16v16h-16v-16zm32 0h304v16H160v-16zm-32 32h304v16H128v-16zm320 0h16v16h-16v-16zM184 209.1V192h-16v17.1c-13.8 3.6-24 16-24 30.9 0 17.6 14.4 32 32 32 8.8 0 16 7.2 16 16s-7.2 16-16 16-16-7.2-16-16v-8h-16v8c0 14.9 10.2 27.3 24 30.9V336h16v-17.1c13.8-3.6 24-16 24-30.9 0-17.6-14.4-32-32-32-8.8 0-16-7.2-16-16s7.2-16 16-16 16 7.2 16 16v8h16v-8c0-14.9-10.2-27.3-24-30.9zM304 256h16v16h-16v-16zm-272 0h16v16H32v-16zm240 0h16v16h-16v-16zm-32 0h16v16h-16v-16zm-176 0h16v16H64v-16zm32 0h16v16H96v-16z"/></svg>