<svg version="1.1" id="Layer_5" xmlns="http://www.w3.org/2000/svg" x="0" y="0" width="512" height="512" xml:space="preserve"><style>.st0{fill:#198a89}</style><path class="st0" d="M351 307.8c6.2 2.8 12.8 4.1 19.3 4.1 11.1 0 22.1-3.9 30.7-11.3l51.1-43.8c5.4-4.7 9.2-10.4 10.8-16.6 2.7-10.4.3-21.1-6.6-29.1-6.1-7.1-14.9-11.2-24.3-11.2-7.6 0-15 2.7-20.8 7.7l-33.5 28.7c-13.8-31.3-45.1-52-79.5-52.4 13.4-11.7 21.9-28.9 21.9-48 0-35.3-28.7-64-64-64s-64 28.7-64 64c0 19.1 8.5 36.3 21.8 48-34.4.4-65.7 21.1-79.5 52.4l-33.5-28.7c-5.8-5-13.2-7.7-20.8-7.7-9.3 0-18.2 4.1-24.3 11.2-6.9 8.1-9.4 18.7-6.6 29.2 1.6 6.2 5.4 11.9 10.8 16.6l51.1 43.8c13.7 11.8 33.4 14.6 50 7.2 9.7-4.4 17.9-12.5 23-22.8V325l-22.9 22.9 10.2 17.1-19.3 4.8v60.5l19.3 4.8-10.2 17.1L204 495l17.1-10.2 4.8 19.3h60.5l4.8-19.3 17.1 10.2 42.8-42.8-10.2-17.1 19.3-4.8v-60.5l-19.3-4.8 10.2-17.1-23.1-23V285c5.1 10.3 13.3 18.5 23 22.8zM252.8 296c-3.7-6.8-7.3-13.7-10.5-20.7l11.2-75.3h5.1l11.4 74.9c-3.2 7.1-6.8 14.2-10.7 21.1h-6.5zm-33.5-96h18l-6.8 45.5c-4.9-14.8-8.6-30-11.2-45.5zm62.2 45.1l-6.8-45.1h18c-2.6 15.4-6.3 30.4-11.2 45.1zM208 136c0-26.5 21.5-48 48-48s48 21.5 48 48-21.5 48-48 48-48-21.5-48-48zm-24 88v20.6c-1.9 2.5-3.6 5.1-4.7 8.1l-8.1 21.6c-3.2 8.7-9.4 15.5-16.7 18.8-11.2 5-23.9 3.2-33.1-4.7l-51.1-43.8c-2-1.8-4.7-4.6-5.7-8.5-1.4-5.3-.2-10.6 3.3-14.7 5.5-6.5 16.1-7.3 22.6-1.7l50.7 43.5 6.2-16.6c9.1-24.3 30.8-41.6 55.8-45.7 5.4 33.3 15.9 65.1 31.3 95h-8.8l-4.8 19.3-17.1-10.2-3.8 3.8V224h-16zm140.4 153.4l19.6 4.9v35.5l-15.6 3.9-4.3 1.6-3.7 9.1 10.4 17.3-25.1 25.1-17.3-10.4-9.8 4-4.9 19.6h-35.5l-3.9-15.6-1.6-4.3-9.1-3.7-17.3 10.4-25.1-25.1 10.4-17.3-4-9.8-19.6-4.9v-35.5l15.6-3.9 4.3-1.6 3.7-9.1-10.4-17.3 25.1-25.1 17.3 10.4 9.8-4 4.9-19.6h35.5l3.9 15.6 1.6 4.3 9.1 3.7 17.3-10.4 25.1 25.1-10.4 17.3 4 9.8zm-16.2-72.3l-17.1 10.2-4.8-19.3h-8.8c15.4-29.9 25.9-61.8 31.3-95 25.1 4.1 46.8 21.5 55.9 45.7l6.2 16.6 50.8-43.5c6.5-5.5 17-4.7 22.6 1.7 3.5 4 4.7 9.4 3.3 14.7-1 3.8-3.6 6.7-5.7 8.5l-51.1 43.8c-9.2 7.9-21.9 9.7-33.1 4.7-7.4-3.3-13.5-10.2-16.8-18.8l-8.1-21.6c-1.1-3-2.8-5.7-4.7-8.2V224h-16v84.9l-3.9-3.8z"/><path class="st0" d="M416 184c48.5 0 88-39.5 88-88S464.5 8 416 8s-88 39.5-88 88 39.5 88 88 88zm0-160c39.7 0 72 32.3 72 72s-32.3 72-72 72-72-32.3-72-72 32.3-72 72-72z"/><path class="st0" d="M408 120c-4.4 0-8-3.6-8-8h-16c0 13.2 10.8 24 24 24v16h16v-16h24v-24c0-13.2-10.8-24-24-24h-16c-4.4 0-8-3.6-8-8v-8h24c4.4 0 8 3.6 8 8h16c0-13.2-10.8-24-24-24V40h-16v16h-24v24c0 13.2 10.8 24 24 24h16c4.4 0 8 3.6 8 8v8h-24zM256 344c-30.9 0-56 25.1-56 56s25.1 56 56 56 56-25.1 56-56-25.1-56-56-56zm0 96c-22.1 0-40-17.9-40-40s17.9-40 40-40 40 17.9 40 40-17.9 40-40 40zM70.1 184c9.9 0 17.9-8 17.9-17.9V152h56c13.2 0 24-10.8 24-24V64c0-13.2-10.8-24-24-24H32C18.8 40 8 50.8 8 64v64c0 13.2 10.8 24 24 24h11.1l11.1 22.1c3 6.1 9.1 9.9 15.9 9.9zM32 136c-4.4 0-8-3.6-8-8V64c0-4.4 3.6-8 8-8h112c4.4 0 8 3.6 8 8v64c0 4.4-3.6 8-8 8H72v30.1c0 1.8-2.8 2.4-3.6.8l-15.5-31H32z"/><path class="st0" d="M40 72h96v16H40V72zm0 32h64v16H40v-16zm80 0h16v16h-16v-16zm360 256h-80c-13.2 0-24 10.8-24 24v64c0 13.2 10.8 24 24 24h80c13.2 0 24-10.8 24-24v-64c0-13.2-10.8-24-24-24zm8 88c0 4.4-3.6 8-8 8h-80c-4.4 0-8-3.6-8-8v-64c0-4.4 3.6-8 8-8h80c4.4 0 8 3.6 8 8v64z"/><path class="st0" d="M448 412.7l-16-16-29.7 29.7 11.3 11.3 18.3-18.3 16 16 29.7-29.7-11.3-11.3-18.3 18.3zM81.4 352h-2.8C61.7 352 48 365.7 48 382.6v9.4h16v-9.4c0-8.1 6.6-14.6 14.6-14.6h2.8c8.1 0 14.6 6.6 14.6 14.6 0 3.8-1.6 7.6-4.3 10.3L72 412.7V440h16v-20.7l15-15c5.8-5.8 9-13.5 9-21.7 0-16.9-13.7-30.6-30.6-30.6zM80 456c-13.2 0-24 10.8-24 24s10.8 24 24 24 24-10.8 24-24-10.8-24-24-24zm0 32c-4.4 0-8-3.6-8-8s3.6-8 8-8 8 3.6 8 8-3.6 8-8 8z"/></svg>