<svg version="1.1" id="Isolation_Mode" xmlns="http://www.w3.org/2000/svg" x="0" y="0" width="512" height="512" xml:space="preserve"><style>.st0{fill:#198a89}</style><path class="st0" d="M452.4 221.6c0-10.2-8.3-18.6-18.6-18.6H410V80.6h16.5c3.8 0 7.2-2.1 9-5.5s1.4-7.4-.8-10.5L390.9 4.2C389 1.6 386 0 382.8 0c-3.2 0-6.2 1.5-8.1 4.1l-44.5 60.5c-2.3 3.1-2.6 7.1-.9 10.5 1.7 3.4 5.2 5.5 9 5.5h17.3v122.5h-38.9c-10.2 0-18.6 8.3-18.6 18.6v17.2c0 4.1 1.4 8 3.7 11.1-2.3 3.1-3.7 6.9-3.7 11.1v17.2c0 4.1 1.4 8 3.7 11.1-2.3 3.1-3.7 6.9-3.7 11.1v17.2c0 1.2.1 2.4.4 3.6h-14.7V159h16.5c3.8 0 7.2-2.1 9-5.5s1.4-7.4-.8-10.5l-43.7-60.5c-1.9-2.6-4.9-4.1-8.1-4.2-3.2 0-6.2 1.5-8.1 4.1L203.8 143c-2.3 3.1-2.6 7.1-.9 10.5 1.7 3.4 5.2 5.5 9 5.5h17.3v162.1h-33.5c-10.2 0-18.6 8.3-18.6 18.6v10.1c-6.3-2.7-12.9-4.6-19.8-5.7V242.8h16.5c3.8 0 7.2-2.1 8.9-5.5 1.7-3.4 1.4-7.4-.8-10.5l-43.7-60.5c-1.9-2.6-4.9-4.1-8.1-4.2-3.2 0-6.2 1.5-8.1 4.1l-44.5 60.5c-2.3 3.1-2.6 7.1-.9 10.5 1.7 3.4 5.2 5.5 9 5.5h17.3V269c0 4.1 3.4 7.5 7.5 7.5s7.5-3.4 7.5-7.5v-31.2c0-5.5-4.5-10.1-10.1-10.1H95.3l34.7-47.1 34.1 47.1h-11.7c-5.5 0-10.1 4.5-10.1 10.1V343c-8.5.2-16.8 1.6-24.5 4.2V304c0-4.1-3.4-7.5-7.5-7.5s-7.5 3.4-7.5 7.5v49.9C77 368.4 59.6 396 59.6 427.5c0 46.6 37.9 84.5 84.5 84.5 19.9 0 38.3-7 52.7-18.6h237c10.2 0 18.6-8.3 18.6-18.6v-17.2c0-4.1-1.4-8-3.7-11.1 2.3-3.1 3.7-6.9 3.7-11.1v-17.2c0-4.1-1.4-8-3.7-11.1 2.3-3.1 3.7-6.9 3.7-11.1v-17c0-4.1-1.4-8-3.7-11.1 2.3-3.1 3.7-6.9 3.7-11.1v-17.2c0-4.1-1.4-8-3.7-11.1 2.3-3.1 3.7-6.9 3.7-11.1v-17.2c0-4.1-1.4-8-3.7-11.1 2.3-3.1 3.7-6.9 3.7-11.1v-17c0-4.1-1.4-8-3.7-11.1 2.3-3.1 3.7-6.9 3.7-11.1v-17.2zM348 65.6l34.7-47.1 34.1 47.1h-11.7c-5.5 0-10 4.5-10 10.1v127.5h-24.5V75.6c0-5.5-4.5-10.1-10.1-10.1H348zM221.7 144l34.7-47.1 34.1 47.1h-11.7c-5.5 0-10.1 4.5-10.1 10.1v167.1h-24.5V154c0-5.5-4.5-10.1-10.1-10.1h-12.4zm-77.6 353c-38.3 0-69.5-31.2-69.5-69.5s31.2-69.5 69.5-69.5 69.5 31.2 69.5 69.5-31.2 69.5-69.5 69.5zm172.4-22.1c0 2-1.6 3.6-3.6 3.6H211.5c5.5-7.3 9.9-15.5 12.8-24.3h88.6c2 0 3.6 1.6 3.6 3.6v17.1zm0-78.7c0 2-1.6 3.6-3.6 3.6H284c-4.1 0-7.5 3.4-7.5 7.5s3.4 7.5 7.5 7.5h28.9c2 0 3.6 1.6 3.6 3.6v17.2c0 2-1.6 3.6-3.6 3.6h-85.1c.5-3.8.8-7.7.8-11.6 0-4.3-.3-8.6-1-12.7H249c4.1 0 7.5-3.4 7.5-7.5s-3.4-7.5-7.5-7.5h-25.1c-3.1-8.9-7.6-17.1-13.3-24.3h102.3c2 0 3.6 1.6 3.6 3.6v17zm0-39.3c0 2-1.6 3.6-3.6 3.6H195.4c-1-.7-1.9-1.5-2.9-2.1-.2-.4-.3-.9-.3-1.4v-17.2c0-2 1.6-3.6 3.6-3.6H313c2 0 3.6 1.6 3.6 3.6l-.1 17.1zm120.9 118c0 2-1.6 3.6-3.6 3.6H331.1c.2-1.2.4-2.3.4-3.6v-17.2c0-1.2-.1-2.4-.4-3.6h102.7c2 0 3.6 1.6 3.6 3.6v17.2zm0-39.3c0 2-1.6 3.6-3.6 3.6H331.1c.2-1.2.4-2.3.4-3.6v-17.2c0-1.2-.1-2.4-.4-3.6h102.7c2 0 3.6 1.6 3.6 3.6v17.2zm0-39.4c0 2-1.6 3.6-3.6 3.6H331.1c.2-1.2.4-2.3.4-3.6V379c0-1.2-.1-2.4-.4-3.6h102.7c2 0 3.6 1.6 3.6 3.6v17.2zm0-78.7c0 2-1.6 3.6-3.6 3.6H415c-4.1 0-7.5 3.4-7.5 7.5s3.4 7.5 7.5 7.5h18.8c2 0 3.6 1.6 3.6 3.6v17.2c0 2-1.6 3.6-3.6 3.6H331.1c.2-1.2.4-2.3.4-3.6v-17.2c0-1.2-.1-2.4-.4-3.6H380c4.1 0 7.5-3.4 7.5-7.5s-3.4-7.5-7.5-7.5h-63.4c-2 0-3.6-1.6-3.6-3.6v-17.2c0-2 1.6-3.6 3.6-3.6h117.2c2 0 3.6 1.6 3.6 3.6v17.2zm0-39.3c0 2-1.6 3.6-3.6 3.6H316.6c-2 0-3.6-1.6-3.6-3.6V261c0-2 1.6-3.6 3.6-3.6h117.2c2 0 3.6 1.6 3.6 3.6v17.2zm0-39.3c0 2-1.6 3.6-3.6 3.6H316.6c-2 0-3.6-1.6-3.6-3.6v-17.2c0-2 1.6-3.6 3.6-3.6h117.2c2 0 3.6 1.6 3.6 3.6v17.2z"/><path class="st0" d="M152.4 420h-16.5c-4.1 0-7.4-3.3-7.4-7.4 0-4.1 3.3-7.4 7.4-7.4h29c4.1 0 7.5-3.4 7.5-7.5s-3.4-7.5-7.5-7.5h-13.3v-7.8c0-4.1-3.4-7.5-7.5-7.5s-7.5 3.4-7.5 7.5v7.8h-.7c-12.4 0-22.4 10.1-22.4 22.4s10.1 22.4 22.4 22.4h16.5c4.1 0 7.4 3.3 7.4 7.4 0 4.1-3.3 7.4-7.4 7.4h-29c-4.1 0-7.5 3.4-7.5 7.5s3.4 7.5 7.5 7.5h13.3v7.8c0 4.1 3.4 7.5 7.5 7.5s7.5-3.4 7.5-7.5v-7.8h.7c12.4 0 22.4-10.1 22.4-22.4S164.7 420 152.4 420z"/></svg>