<svg version="1.1" id="Capa_1" xmlns="http://www.w3.org/2000/svg" x="0" y="0" width="512" height="512" xml:space="preserve"><style>.st0{fill:#198a89}</style><path class="st0" d="M186.1 125.6c15.7 0 28.5-12.8 28.5-28.5 0-5-1.3-9.7-3.6-13.8l31.4-30.4c4.3 2.5 9.2 4 14.5 4 6.4 0 12.4-2.2 17.2-5.8l84.4 65c-1.4 3.3-2.1 7-2.1 10.8 0 15.7 12.8 28.5 28.5 28.5s28.5-12.8 28.5-28.5c0-5.3-1.5-10.2-4-14.5l25.7-26.6c4.1 2.2 8.7 3.5 13.7 3.5 15.7 0 28.5-12.8 28.5-28.5s-12.8-28.5-28.5-28.5-28.5 12.8-28.5 28.5c0 5.3 1.5 10.2 4 14.5L398.4 102c-4.1-2.2-8.7-3.5-13.7-3.5-6.4 0-12.4 2.2-17.2 5.8l-84.4-65c1.4-3.3 2.1-7 2.1-10.8 0-15.7-12.8-28.5-28.5-28.5s-28.5 12.8-28.5 28.5c0 5 1.3 9.6 3.5 13.7l-31.5 30.5c-4.2-2.5-9.1-3.9-14.4-3.9-15.7 0-28.5 12.8-28.5 28.5s13.1 28.3 28.8 28.3zm262.5-78.1c7.4 0 13.5 6 13.5 13.5s-6 13.5-13.5 13.5-13.5-6-13.5-13.5 6.1-13.5 13.5-13.5zm-63.9 66c7.4 0 13.5 6 13.5 13.5s-6 13.5-13.5 13.5-13.5-6-13.5-13.5c.1-7.5 6.1-13.5 13.5-13.5zM256.9 15c7.4 0 13.5 6 13.5 13.5s-6 13.5-13.5 13.5-13.5-6-13.5-13.5S249.5 15 256.9 15zm-70.8 68.7c7.4 0 13.5 6 13.5 13.5s-6 13.5-13.5 13.5-13.5-6-13.5-13.5 6.1-13.5 13.5-13.5z"/><path class="st0" d="M490.6 355.1h-13.5V294c0-4.1-3.4-7.5-7.5-7.5s-7.5 3.4-7.5 7.5v61.1h-26.9V154.4h26.9V259c0 4.1 3.4 7.5 7.5 7.5s7.5-3.4 7.5-7.5V150.2c0-6-4.9-10.9-10.9-10.9H431c-6 0-10.9 4.9-10.9 10.9V355h-7V196.4c0-6-4.9-10.9-10.9-10.9H367c-6 0-10.9 4.9-10.9 10.9v158.7h-7V155.5c0-6-4.9-10.9-10.9-10.9H303c-6 0-10.9 4.9-10.9 10.9v103.2c-2.3-2.6-4.6-5.1-7-7.5V182c0-4.1-3.4-7.5-7.5-7.5s-7.5 3.4-7.5 7.5v56.1c-8.3-6.4-17.4-12-26.9-16.6V124h26.9v23c0 4.1 3.4 7.5 7.5 7.5s7.5-3.4 7.5-7.5v-27.1c0-6-4.9-10.9-10.9-10.9H239c-6 0-10.9 4.9-10.9 10.9v95.4c-3.7-1.3-7.5-2.5-11.3-3.5-2.2-4-6.5-6.7-11.3-6.7H188c-1.1-3.4-2.5-6.6-4.1-9.8l12.6-12.6c4.6-4.6 5.1-11.9 1.1-17.1-5.1-6.6-11.1-12.5-17.7-17.7-5.1-4-12.4-3.5-17.1 1.1l-12.6 12.6c-3.2-1.6-6.5-2.9-9.8-4.1v-17.8c0-6.5-4.9-12-11.3-12.8-8.3-1-16.7-1-25 0-6.4.8-11.3 6.3-11.3 12.8v17.8c-3.4 1.1-6.6 2.5-9.8 4.1L70.5 149c-4.6-4.6-11.9-5.1-17.1-1.1-6.6 5.1-12.5 11.1-17.7 17.7-4 5.1-3.5 12.4 1.1 17.1l12.6 12.6c-1.6 3.2-2.9 6.5-4.1 9.8H27.5c-6.5 0-12 4.9-12.8 11.3-.5 4.1-.8 8.3-.8 12.5 0 4.2.3 8.4.8 12.5.8 6.4 6.3 11.3 12.8 11.3h17.8c1.1 3.4 2.5 6.6 4.1 9.8l-12.6 12.6c-4.6 4.6-5.1 11.9-1.1 17.1.9 1.2 1.9 2.4 2.9 3.5-8.9 19.4-13.9 40.9-13.9 63.6 0 84.2 68.5 152.7 152.7 152.7 33.6 0 65.6-10.7 92.3-31 3.3-2.5 3.9-7.2 1.4-10.5s-7.2-3.9-10.5-1.4c-24.1 18.3-52.9 28-83.2 28-76 0-137.7-61.8-137.7-137.7 0-18.5 3.7-36.1 10.3-52.2 1.1 1 2.2 1.9 3.4 2.8 4.2 3.3 9.9 3.6 14.4 1-6.6 14.8-10.2 31.2-10.2 48.4 0 66.1 53.8 119.9 119.9 119.9s119.9-53.8 119.9-119.9c0-52.2-33.6-96.8-80.3-113.2.8-1.4 1.3-3 1.5-4.7.5-4.1.8-8.3.8-12.5v-.9c55.5 17.8 95.8 69.9 95.8 131.2 0 31.5-10.9 62.2-30.7 86.6-2.6 3.2-2.1 7.9 1.1 10.5 3.2 2.6 7.9 2.1 10.5-1.1 19.7-24.3 31.4-54.2 33.6-85.3h160.7c4.1 0 7.5-3.4 7.5-7.5s-3.2-7.4-7.3-7.4zM61.2 296.8c-4.5-3.7-8.7-7.9-12.4-12.4L61.1 272c4-4 4.9-10.1 2.3-15.2-1.7-3.2-3.1-6.6-4.2-10-1.7-5.5-6.7-9.1-12.3-9.1H29.4c-.3-2.9-.4-5.9-.4-8.8s.1-5.9.4-8.8h17.5c5.7 0 10.6-3.7 12.3-9.1 1.1-3.5 2.5-6.8 4.2-10 2.7-5.1 1.7-11.2-2.3-15.2l-12.4-12.4c3.7-4.6 7.9-8.7 12.4-12.4l12.4 12.4c4 4 10.1 4.9 15.2 2.3 3.2-1.7 6.6-3.1 10-4.2 5.5-1.7 9.1-6.7 9.1-12.3v-17.5c5.8-.6 11.8-.6 17.6 0v17.5c0 5.7 3.7 10.6 9.1 12.3 3.5 1.1 6.8 2.5 10 4.2 5.1 2.7 11.2 1.7 15.2-2.3l12.4-12.4c4.6 3.7 8.7 7.9 12.4 12.4l-12.4 12.4c-4 4-4.9 10.1-2.3 15.2 1.7 3.2 3.1 6.6 4.2 10 1.7 5.5 6.7 9.1 12.3 9.1H204c.3 2.9.4 5.9.4 8.8 0 2.9-.1 5.9-.4 8.8h-17.5c-5.7 0-10.6 3.7-12.3 9.1-1.1 3.5-2.5 6.8-4.2 10-2.7 5.1-1.7 11.2 2.3 15.2l12.4 12.4c-3.7 4.5-7.9 8.7-12.4 12.4l-12.4-12.4c-4-4-10.1-4.9-15.2-2.3-3.2 1.7-6.6 3.1-10 4.2-5.5 1.7-9.1 6.7-9.1 12.3v17.5c-5.8.6-11.8.6-17.6 0v-17.5c0-5.7-3.7-10.6-9.1-12.3-3.5-1.1-6.8-2.5-10-4.2-5.1-2.7-11.2-1.7-15.2 2.3l-12.5 12.4zm162.1-31.9l-.4.6c-2.1 3.6-.8 8.2 2.7 10.2 1.2.7 2.5 1 3.7 1 2.6 0 5.1-1.3 6.5-3.8l.4-.6c11 7.5 20.6 17 28.1 28.1l-.6.4c-3.6 2.1-4.8 6.7-2.7 10.2 1.4 2.4 3.9 3.8 6.5 3.8 1.3 0 2.6-.3 3.7-1l.7-.4c5.7 11.7 9.3 24.7 10.3 38.3H262c-4.1 0-7.5 3.4-7.5 7.5s3.4 7.5 7.5 7.5h20.1c-1 13.7-4.6 26.6-10.3 38.3l-.7-.4c-3.6-2.1-8.2-.8-10.2 2.7-2.1 3.6-.8 8.2 2.7 10.2l.6.4c-7.5 11-17 20.6-28.1 28.1l-.4-.6c-2.1-3.6-6.7-4.8-10.2-2.7-3.6 2.1-4.8 6.7-2.7 10.2l.4.7c-11.7 5.7-24.7 9.3-38.3 10.3V444c0-4.1-3.4-7.5-7.5-7.5s-7.5 3.4-7.5 7.5v19.9c-13.7-1-26.6-4.6-38.3-10.3l.4-.7c2.1-3.6.8-8.2-2.7-10.2-3.6-2.1-8.2-.8-10.2 2.7l-.4.6c-11-7.5-20.6-17-28.1-28.1l.6-.4c3.6-2.1 4.8-6.7 2.7-10.2-2.1-3.6-6.7-4.8-10.2-2.7l-.7.4c-5.7-11.7-9.3-24.7-10.3-38.3H93c4.1 0 7.5-3.4 7.5-7.5s-3.4-7.5-7.5-7.5H72.8c1.4-19.3 8-37.1 18.4-52.1.6.2 1.1.4 1.7.6V318c0 6.5 4.9 12 11.3 12.8 4.1.5 8.3.8 12.5.8s8.4-.3 12.5-.8c6.4-.8 11.3-6.3 11.3-12.8v-17.8c3.4-1.1 6.6-2.5 9.8-4.1l12.6 12.6c4.6 4.6 11.9 5.1 17.1 1.1 6.6-5.1 12.5-11.1 17.7-17.7 4-5.1 3.5-12.4-1.1-17.1L184 262.4c1.3-2.5 2.4-5.1 3.3-7.7 12.8 1.3 24.9 4.8 36 10.2zm111 90.2h-4.1c-.8-27.9-9-53.9-22.8-76.1V159.6h26.9v195.5zm63.9 0h-26.9V200.5h26.9v154.6z"/><path class="st0" d="M171 355.4L139.8 408c-2.1 3.6-.9 8.2 2.6 10.3 1.2.7 2.5 1.1 3.8 1.1 2.6 0 5.1-1.3 6.5-3.7l27.4-46.2 31.6 18.3c3.6 2.1 8.2.9 10.2-2.7 2.1-3.6.9-8.2-2.7-10.2l-38-22c-3.5-2.2-8.1-1-10.2 2.5zm-54.3-76.3c27.7 0 50.2-22.5 50.2-50.2s-22.5-50.2-50.2-50.2-50.2 22.5-50.2 50.2 22.5 50.2 50.2 50.2zm0-85.4c19.4 0 35.2 15.8 35.2 35.2s-15.8 35.2-35.2 35.2-35.2-15.8-35.2-35.2 15.8-35.2 35.2-35.2z"/><path class="st0" d="M116.7 251.2c12.3 0 22.3-10 22.3-22.3s-10-22.3-22.3-22.3-22.3 10-22.3 22.3c-.1 12.3 10 22.3 22.3 22.3zm0-29.6c4 0 7.3 3.3 7.3 7.3s-3.3 7.3-7.3 7.3-7.3-3.3-7.3-7.3c-.1-4 3.2-7.3 7.3-7.3zm245 165.7c-2.9-2.9-7.7-2.9-10.6 0-2.9 2.9-2.9 7.7 0 10.6l19.3 19.3-19.3 19.3c-2.9 2.9-2.9 7.7 0 10.6 1.5 1.5 3.4 2.2 5.3 2.2s3.8-.7 5.3-2.2l24.6-24.6c2.9-2.9 2.9-7.7 0-10.6l-24.6-24.6zm52.2 0c-2.9-2.9-7.7-2.9-10.6 0s-2.9 7.7 0 10.6l19.3 19.3-19.3 19.3c-2.9 2.9-2.9 7.7 0 10.6 1.5 1.5 3.4 2.2 5.3 2.2s3.8-.7 5.3-2.2l24.6-24.6c2.9-2.9 2.9-7.7 0-10.6l-24.6-24.6zm52.2 0c-2.9-2.9-7.7-2.9-10.6 0-2.9 2.9-2.9 7.7 0 10.6l19.3 19.3-19.3 19.3c-2.9 2.9-2.9 7.7 0 10.6 1.5 1.5 3.4 2.2 5.3 2.2s3.8-.7 5.3-2.2l24.6-24.6c2.9-2.9 2.9-7.7 0-10.6l-24.6-24.6z"/></svg>