<svg version="1.1" id="Capa_1" xmlns="http://www.w3.org/2000/svg" x="0" y="0" width="512" height="512" xml:space="preserve"><style>.st0{fill:#198a89}</style><path class="st0" d="M504.5 301.5c4.1 0 7.5-3.4 7.5-7.5v-87.6c0-9.6-7.9-17.5-17.5-17.5h-4.9v-84c0-5.8-4.7-10.5-10.5-10.5h-9.8v-61c0-5.8-4.7-10.5-10.5-10.5H119.6c-5.8 0-10.5 4.7-10.5 10.5v25.2H91.3c-5.8 0-10.5 4.7-10.5 10.5v58.5h-4.9c-9.6 0-17.5 7.9-17.5 17.5v103.1c-17.5 13.6-28.9 34.9-28.9 58.8v22.9h-12c-9.6 0-17.5 7.9-17.5 17.5v124.1c0 9.6 7.9 17.5 17.5 17.5h172.7c8.9 0 16.3-6.7 17.3-15.3h286.9c9.6 0 17.5-7.9 17.5-17.5V329c0-4.1-3.4-7.5-7.5-7.5s-7.5 3.4-7.5 7.5v127.3c0 1.4-1.1 2.5-2.5 2.5H207.7V347.4c0-9.6-7.9-17.5-17.5-17.5h-12V307c0-41-33.4-74.3-74.3-74.3-10.9 0-21.2 2.4-30.5 6.6v-35.4h421.1c1.4 0 2.5 1.1 2.5 2.5V294c0 4.1 3.4 7.5 7.5 7.5zM192.7 471.6c0 1.4-1.1 2.5-2.5 2.5H17.5c-1.4 0-2.5-1.1-2.5-2.5v-24.2h177.7v24.2zm-2.5-126.7c1.4 0 2.5 1.1 2.5 2.5v24.2H161c-4.1 0-7.5 3.4-7.5 7.5s3.4 7.5 7.5 7.5h31.7v45.8H15v-45.8h111c4.1 0 7.5-3.4 7.5-7.5s-3.4-7.5-7.5-7.5H15v-24.2c0-1.4 1.1-2.5 2.5-2.5h172.7zm-115.7-15V307c0-16.2 13.2-29.3 29.3-29.3s29.3 13.2 29.3 29.3v22.9H74.5zm29.4-82.2c32.7 0 59.3 26.6 59.3 59.3v22.9h-15V307c0-24.5-19.9-44.3-44.3-44.3S59.6 282.6 59.6 307v22.9h-15V307c-.1-32.7 26.5-59.3 59.3-59.3zm-8.1-174H357c4.1 0 7.5-3.4 7.5-7.5s-3.4-7.5-7.5-7.5H124.1V37.9h330.2v56.4H441V69.2c0-5.8-4.7-10.5-10.5-10.5H392c-4.1 0-7.5 3.4-7.5 7.5s3.4 7.5 7.5 7.5h34v20.7H139.9c-5.8 0-10.5 4.7-10.5 10.5v22.8H95.8v-54zM73.4 188.9v-43.7c0-1.4 1.1-2.5 2.5-2.5h157c.9 0 1.8.5 2.2 1.4l22.8 44.8H73.4zm401.2 0H274.8l-26.3-51.6c-3-5.9-9-9.6-15.6-9.6h-88.5v-18.3h330.2v79.5z"/><path class="st0" d="M321.5 151.1h111.7c4.1 0 7.5-3.4 7.5-7.5s-3.4-7.5-7.5-7.5H321.5c-4.1 0-7.5 3.4-7.5 7.5s3.4 7.5 7.5 7.5zm5.5 218.8c-6.9 0-12.5 5.6-12.5 12.5v31.9c0 6.9 5.6 12.5 12.5 12.5h125.5c6.9 0 12.5-5.6 12.5-12.5v-31.9c0-6.9-5.6-12.5-12.5-12.5H327zm123 41.9H329.5v-26.9H450v26.9z"/></svg>