<svg version="1.1" id="Layer_1" xmlns="http://www.w3.org/2000/svg" x="0" y="0" width="512" height="512" xml:space="preserve"><path d="M488 16H184c-4.4 0-8 3.6-8 8v144h16V32h176v72c0 4.4 3.6 8 8 8h72v272H272v16h216c4.4 0 8-3.6 8-8v-40h-16v32h-16V103.7c-.1-2-.9-3.9-2.3-5.4L395.3 32H480v304h16V24c0-4.4-3.6-8-8-8zm-51.3 80H384V43.3L436.7 96zM352 80h-48V64h48v16zm-48 16h48v16h-48V96zm0 32h120v16H304v-16zm0 32h120v16H304v-16zm-32 32h152v16h-56v16h56v16h-56v16h56v16h-56v16h56v16h-56v16h56v16H272v-16h80v-16h-80v-16h80v-16h-80v-16h80v-16h-80v-16h80v-16h-80v-16zm0 160h152v16H272v-16zm-61.7-212.8l64-64 11.3 11.3-64 64-11.3-11.3zm16.4-73.4c-10.3 0-18.7 8.4-18.7 18.7s8.4 18.7 18.7 18.7 18.7-8.4 18.7-18.7c-.1-10.4-8.4-18.7-18.7-18.7zm0 21.3c-1.5 0-2.7-1.2-2.7-2.7s1.2-2.7 2.7-2.7 2.7 1.2 2.7 2.7c-.1 1.5-1.3 2.7-2.7 2.7zm61.3 54.2c0-10.3-8.4-18.7-18.7-18.7-10.3 0-18.7 8.4-18.7 18.7S259 160 269.3 160c10.3 0 18.7-8.4 18.7-18.7zm-18.7 2.7c-1.5 0-2.7-1.2-2.7-2.7 0-1.5 1.2-2.7 2.7-2.7 1.5 0 2.7 1.2 2.7 2.7 0 1.5-1.2 2.7-2.7 2.7zM224 184h-64v-64c0-4.4-3.6-8-8-8-1.2 0-2.5.3-3.6.8L136 119l-12.4-6.2c-2.3-1.1-4.9-1.1-7.2 0L104 119l-12.4-6.2c-2.3-1.1-4.9-1.1-7.2 0L72 119.1l-12.4-6.2c-4-2-8.8-.4-10.7 3.6-.6 1.1-.8 2.3-.8 3.6v64c-17.7 0-32 14.3-32 32v24h16v-24c0-8.8 7.2-16 16-16v24c0 4.4 3.6 8 8 8h96c4.4 0 8-3.6 8-8v-24h64c8.8 0 16 7.2 16 16v248c0 8.8-7.2 16-16 16H48c-8.8 0-16-7.2-16-16V256H16v208c0 17.7 14.3 32 32 32h176c17.7 0 32-14.3 32-32V216c0-17.7-14.3-32-32-32zm-80 32H64v-83.1l4.4 2.2c2.3 1.1 4.9 1.1 7.2 0l12.4-6.2 12.4 6.2c2.3 1.1 4.9 1.1 7.2 0l12.4-6.2 12.4 6.2c2.3 1.1 4.9 1.1 7.2 0l4.4-2.2V216zm80 40c0-4.4-3.6-8-8-8H56c-4.4 0-8 3.6-8 8v72c0 4.4 3.6 8 8 8h160c4.4 0 8-3.6 8-8v-72zm-16 64H64v-56h144v56zM48 392c0 4.4 3.6 8 8 8h32c4.4 0 8-3.6 8-8v-32c0-4.4-3.6-8-8-8H56c-4.4 0-8 3.6-8 8v32zm16-24h16v16H64v-16zm96-8c0-4.4-3.6-8-8-8h-32c-4.4 0-8 3.6-8 8v32c0 4.4 3.6 8 8 8h32c4.4 0 8-3.6 8-8v-32zm-16 24h-16v-16h16v16zm80-24c0-4.4-3.6-8-8-8h-32c-4.4 0-8 3.6-8 8v32c0 4.4 3.6 8 8 8h32c4.4 0 8-3.6 8-8v-32zm-16 24h-16v-16h16v16zM48 456c0 4.4 3.6 8 8 8h32c4.4 0 8-3.6 8-8v-32c0-4.4-3.6-8-8-8H56c-4.4 0-8 3.6-8 8v32zm16-24h16v16H64v-16zm88-16h-32c-4.4 0-8 3.6-8 8v32c0 4.4 3.6 8 8 8h32c4.4 0 8-3.6 8-8v-32c0-4.4-3.6-8-8-8zm-8 32h-16v-16h16v16zm72-32h-32c-4.4 0-8 3.6-8 8v32c0 4.4 3.6 8 8 8h32c4.4 0 8-3.6 8-8v-32c0-4.4-3.6-8-8-8zm-8 32h-16v-16h16v16zm-16-144h-16v-16h16v16zm-32 0h-16v-16h16v16zm-32 0h-16v-16h16v16zM80 184h48v16H80v-16zm0-32h48v16H80v-16zm392 296h-8v-8c0-13.2-10.8-24-24-24h-56v16h56c4.4 0 8 3.6 8 8v8H312c-1.2 0-2.5.3-3.6.8l-32 16c-4 2-5.6 6.8-3.6 10.7.8 1.5 2 2.8 3.6 3.6l32 16c1.1.6 2.3.8 3.6.8h160c13.3 0 24-10.7 24-24S485.3 448 472 448zm-168 27.1l-6.1-3.1 6.1-3.1v6.2zm144 4.9H320v-16h128v16zm24 0h-8v-16h8c4.4 0 8 3.6 8 8s-3.6 8-8 8zM16 120c0-26.5 21.5-48 48-48v16c-17.7 0-32 14.3-32 32H16z" fill="#198a89" id="Outline"/></svg>