<svg width="200" height="65" xmlns="http://www.w3.org/2000/svg" xmlns:xlink="http://www.w3.org/1999/xlink"><defs><path id="a" d="M0 0h43.718v24.445H0z"/><path id="c" d="M0 0h6.01v8.028H0z"/><path id="e" d="M0 0h14.644v20.808H0z"/></defs><g fill="none" fill-rule="evenodd"><path d="M61.073 9.236h-.01c-14.354 0-33.886 11.637-33.886 25.991 0 0 19.698 4.781 33.896-25.991z" fill="#008CCF"/><path d="M24.98 32.353c1.195-8.554 9.126-15.93 18.273-20.114C44.538 8.746 45.637 4.71 46.443 0l-.01.003c-13.342 3.595-28.5 18.851-26.283 32.35h4.83z" fill="#00ACE7"/><g transform="translate(0 32.156)"><mask id="b" fill="#fff"><use xlink:href="#a"/></mask><path d="M31.497 24.445H12.223c-6.75 0-12.224-5.472-12.224-12.222v-.001C0 5.472 5.473 0 12.223 0h19.274c6.75 0 12.221 5.472 12.221 12.222v.001c0 6.75-5.471 12.222-12.221 12.222" fill="#008CCF" mask="url(#b)"/></g><g transform="translate(27.177 55.99)"><mask id="d" fill="#fff"><use xlink:href="#c"/></mask><path fill="#008CCF" mask="url(#d)" d="M0 0h6.01v8.028z"/></g><path d="M13.156 41.933a2.447 2.447 0 10.001 4.894 2.447 2.447 0 00-.001-4.894m8.704 0a2.447 2.447 0 100 4.894 2.447 2.447 0 000-4.894m8.703 0a2.447 2.447 0 10.002 4.894 2.447 2.447 0 00-.002-4.894" fill="#FEFEFE"/><path d="M64.566 51.987c-1.396 1.238-3.24 1.871-5.477 1.871-2.713 0-4.847-.87-6.4-2.581-1.555-1.713-2.32-4.083-2.32-7.111 0-3.03.765-5.427 2.32-7.138 1.553-1.713 3.66-2.582 6.373-2.582 2.211 0 4.029.607 5.425 1.844.079 1.686-.763 3.056-2.265 3.372-.816-.712-1.764-1.054-2.897-1.054-2.291 0-3.45 1.843-3.45 5.558 0 3.687 1.159 5.53 3.45 5.53 1.133 0 2.107-.368 2.976-1.08 1.475.316 2.292 1.686 2.265 3.371m9.749-5.82c0-2.501-.659-3.74-2.002-3.74-1.343 0-2.027 1.239-2.027 3.74 0 2.501.684 3.767 2.027 3.767 1.291 0 2.002-1.344 2.002-3.767m5.189 0c0 2.397-.633 4.267-1.896 5.635-1.29 1.371-3.056 2.055-5.295 2.055s-4.004-.684-5.294-2.055c-1.29-1.342-1.923-3.238-1.923-5.635 0-4.768 2.713-7.69 7.217-7.69 4.45 0 7.19 2.922 7.19 7.69m14.701-3.293v9.982c-.633.342-1.502.5-2.582.5-1.026 0-1.843-.158-2.476-.5v-9.113c0-.869-.342-1.317-1.027-1.317-.71 0-1.29.475-1.711 1.396v9.034c-.632.342-1.502.5-2.582.5-1.026 0-1.843-.158-2.476-.5V39.503c.606-.342 1.37-.5 2.292-.5.87 0 1.607.158 2.16.5l.447 1.237c.844-1.342 2.424-2.238 3.978-2.238 2.396 0 3.977 1.765 3.977 4.372m4.586 9.798l-4.03-13.195c.58-.315 1.45-.474 2.608-.474 1.238 0 2.133.159 2.686.474l1.922 9.535h.08l1.896-9.535c.554-.315 1.448-.474 2.688-.474 1.08 0 1.895.159 2.5.474l-4.003 13.195c-.869.448-1.923.686-3.213.686-1.263 0-2.317-.238-3.134-.686m19.73-6.505c0-2.501-.658-3.74-2.002-3.74-1.343 0-2.027 1.239-2.027 3.74 0 2.501.684 3.767 2.027 3.767 1.291 0 2.002-1.344 2.002-3.767m5.189 0c0 2.397-.633 4.267-1.896 5.635-1.29 1.371-3.056 2.055-5.295 2.055s-4.004-.684-5.294-2.055c-1.29-1.342-1.923-3.238-1.923-5.635 0-4.768 2.713-7.69 7.217-7.69 4.451 0 7.191 2.922 7.191 7.69" fill="#00ACE7"/><path d="M134.932 47.642c0-1.397-1.002-2.107-2.976-2.107h-1.106v4.082c.394.08.816.106 1.263.106 1.792 0 2.82-.791 2.82-2.081zm-4.082-5.294h.921c1.554 0 2.424-.712 2.424-2 0-1.134-.79-1.793-2.239-1.793h-1.106v3.793zm-2.608 11.22c-1.133-.21-2.027-.5-2.66-.843V34.946h5.742c5.452 0 8.19 1.686 8.19 5.03 0 1.608-1 2.82-3.002 3.662 2.424.765 3.793 2.345 3.793 4.346 0 3.688-3.187 5.874-8.639 5.874-1.133 0-2.292-.106-3.424-.29zm26.236-14.065v13.354c-.659.342-1.449.5-2.318.5-.842 0-1.554-.158-2.133-.5l-.395-1.106c-.869 1.263-2.423 2.107-3.872 2.107-2.423 0-3.976-1.739-3.976-4.373v-9.982c.58-.342 1.448-.5 2.58-.5 1.08 0 1.897.158 2.476.5v9.086c0 .923.343 1.371 1.027 1.371.605 0 1.134-.37 1.528-1.106v-9.35c.606-.343 1.475-.501 2.58-.501 1.054 0 1.897.158 2.503.5m15.227 3.371v9.982c-.633.342-1.502.5-2.582.5-1.026 0-1.843-.158-2.476-.5v-9.113c0-.869-.342-1.317-1.027-1.317-.71 0-1.29.475-1.711 1.396v9.034c-.632.342-1.502.5-2.582.5-1.026 0-1.843-.158-2.475-.5V39.503c.605-.342 1.368-.5 2.291-.5.87 0 1.607.158 2.16.5l.447 1.237c.844-1.342 2.424-2.238 3.978-2.238 2.396 0 3.977 1.765 3.977 4.372m15.095 0v9.982c-.633.342-1.502.5-2.582.5-1.026 0-1.843-.158-2.476-.5v-9.113c0-.869-.342-1.317-1.027-1.317-.71 0-1.29.475-1.711 1.396v9.034c-.632.342-1.502.5-2.582.5-1.026 0-1.843-.158-2.474-.5V39.503c.604-.342 1.368-.5 2.29-.5.87 0 1.607.158 2.16.5l.447 1.237c.844-1.342 2.424-2.238 3.978-2.238 2.396 0 3.977 1.765 3.977 4.372" fill="#008CCF"/><g transform="translate(185.356 39.003)"><mask id="f" fill="#fff"><use xlink:href="#e"/></mask><path d="M14.644.5l-4.399 14.46c-1.08 3.608-4.082 5.715-8.322 5.848-.552-.343-.843-.975-.843-1.87 0-.607.131-1.16.422-1.608 2.66-.342 3.95-1.237 4.37-3.028-.841-.08-1.552-.29-2.106-.633L0 .473C.606.158 1.502 0 2.74 0c1.184 0 2.028.158 2.554.473l1.923 9.614L9.35.5c.552-.342 1.394-.5 2.5-.5 1.291 0 2.214.158 2.793.5" fill="#008CCF" mask="url(#f)"/></g></g></svg>