<svg width="40" height="40" xmlns="http://www.w3.org/2000/svg"><g fill="none" fill-rule="evenodd"><path d="M0 0h40v40H0z"/><circle fill="#008CCF" cx="29.5" cy="10.5" r="7.5"/><path d="M29.81 12.984l-.01-.001c-.03 0-.05.02-.05.05 0 .02.02.05.05.05.02-.01.05-.03.05-.05v-.01c0-.03-.03-.05-.05-.05h-.001M28.01 8.324H28c.18-.8.9-1.35 1.72-1.32h-.01c.91-.06 1.69.64 1.75 1.55 0 1.16-1.68 1.55-1.68 2.33" stroke="#FFF" stroke-width="1.5" stroke-linecap="round" stroke-linejoin="round"/><path d="M16.667 5H10a5 5 0 00-5 5v15.001a5 5 0 005 5h3.345v4.072a.927.927 0 001.506.724L20.845 30H30a5 5 0 005-5v-1.667" stroke="#000" stroke-width="1.5" stroke-linecap="round" stroke-linejoin="round"/></g></svg>