<?xml version="1.0" encoding="UTF-8"?>
<svg width="18px" height="20px" viewBox="0 0 18 20" version="1.1" xmlns="http://www.w3.org/2000/svg" xmlns:xlink="http://www.w3.org/1999/xlink">
    <title>F5C68ECD-368E-461A-9E31-AE982CEA1209</title>
    <g id="Page-1" stroke="none" stroke-width="1" fill="none" fill-rule="evenodd" stroke-linecap="round" stroke-linejoin="round">
        <g id="Model-recruitment" transform="translate(-1319.000000, -884.000000)" stroke="#FFFFFF" stroke-width="1.5">
            <g id="document-file-upload-bottom-center" transform="translate(1320.000000, 885.000000)">
                <path d="M16,5.5 L12.5,5.5 C11.3954305,5.5 10.5,4.6045695 10.5,3.5 L10.5,0" id="Path"></path>
                <line x1="8" y1="18" x2="8" y2="13" id="Path"></line>
                <line x1="8" y1="13" x2="6" y2="15" id="Path"></line>
                <line x1="10" y1="15" x2="8" y2="13" id="Path"></line>
                <path d="M13,18 C14.6568542,18 16,16.6568542 16,15 L16,5.24264 C16,4.4469906 15.6839292,3.68392899 15.12132,3.12132 L12.87868,0.87868 C12.316071,0.316070823 11.5530094,0 10.75736,0 L3,0 C1.34314575,0 0,1.34314575 0,3 L0,15 C0,16.6568542 1.34314575,18 3,18" id="Path"></path>
                <line x1="3" y1="18" x2="4" y2="18" id="Path"></line>
                <line x1="12" y1="18" x2="13" y2="18" id="Path"></line>
            </g>
        </g>
    </g>
</svg>