<svg width="412" height="421" xmlns="http://www.w3.org/2000/svg" xmlns:xlink="http://www.w3.org/1999/xlink"><defs><filter x="-41.7%" y="-20.8%" width="183.3%" height="183.3%" filterUnits="objectBoundingBox" id="a"><feOffset dy="20" in="SourceAlpha" result="shadowOffsetOuter1"/><feGaussianBlur stdDeviation="10" in="shadowOffsetOuter1" result="shadowBlurOuter1"/><feColorMatrix values="0 0 0 0 0 0 0 0 0 0 0 0 0 0 0 0 0 0 0.18980141 0" in="shadowBlurOuter1"/></filter><filter x="-41.7%" y="-20.8%" width="183.3%" height="183.3%" filterUnits="objectBoundingBox" id="c"><feOffset dy="20" in="SourceAlpha" result="shadowOffsetOuter1"/><feGaussianBlur stdDeviation="10" in="shadowOffsetOuter1" result="shadowBlurOuter1"/><feColorMatrix values="0 0 0 0 0 0 0 0 0 0 0 0 0 0 0 0 0 0 0.18980141 0" in="shadowBlurOuter1"/></filter><filter x="-41.7%" y="-20.8%" width="183.3%" height="183.3%" filterUnits="objectBoundingBox" id="i"><feOffset dy="20" in="SourceAlpha" result="shadowOffsetOuter1"/><feGaussianBlur stdDeviation="10" in="shadowOffsetOuter1" result="shadowBlurOuter1"/><feColorMatrix values="0 0 0 0 0 0 0 0 0 0 0 0 0 0 0 0 0 0 0.18980141 0" in="shadowBlurOuter1"/></filter><filter x="-41.7%" y="-20.8%" width="183.3%" height="183.3%" filterUnits="objectBoundingBox" id="k"><feOffset dy="20" in="SourceAlpha" result="shadowOffsetOuter1"/><feGaussianBlur stdDeviation="10" in="shadowOffsetOuter1" result="shadowBlurOuter1"/><feColorMatrix values="0 0 0 0 0 0 0 0 0 0 0 0 0 0 0 0 0 0 0.18980141 0" in="shadowBlurOuter1"/></filter><circle id="b" cx="66.001" cy="79.001" r="48"/><circle id="d" cx="337.001" cy="79.001" r="48"/><circle id="j" cx="66.001" cy="333.001" r="48"/><circle id="l" cx="337.001" cy="333.001" r="48"/><path id="e" d="M0 0h130v73H0z"/><path id="g" d="M0 0h17v23H0z"/></defs><g fill="none" fill-rule="evenodd"><path d="M2.047 208c-.022-1.26-.048-2.522-.048-3.785C1.999 99.64 80.532 13.385 181.933 1L207 22.276l-20.213 24.067C108.33 56.302 47.68 123.188 47.68 204.215c0 .874.019 1.744.033 2.618l-22.25-22.21L2.047 208z" fill="#E7B200"/><path d="M211 409.952c-1.26.022-2.522.048-3.785.048C102.64 410 16.385 331.468 4 230.07L25.276 205l24.067 20.213c9.959 78.455 76.845 139.106 157.872 139.106.874 0 1.744-.018 2.618-.033l-22.21 22.25L211 409.952z" fill="#00ACE7"/><path d="M411.953 201c.022 1.263.048 2.518.048 3.785C412 309.36 333.468 395.615 232.07 408L207 386.727l20.213-24.07c78.456-9.959 139.107-76.845 139.107-157.872 0-.874-.019-1.744-.034-2.618l22.25 22.21L411.954 201z" fill="#633E6B"/><path d="M206.785 0C311.357 0 397.615 78.531 410 179.93L388.724 205l-24.07-20.213c-9.96-78.456-76.842-139.107-157.87-139.107-.877 0-1.747.019-2.62.03l22.212-22.247L203 .047C204.26.025 205.518 0 206.785 0" fill="#008CCF"/><g transform="translate(1.999)"><use fill="#000" filter="url(#a)" xlink:href="#b"/><use fill="#FFF" xlink:href="#b"/></g><g transform="translate(1.999)"><use fill="#000" filter="url(#c)" xlink:href="#d"/><use fill="#FFF" xlink:href="#d"/></g><path d="M341.28 63.504c1.088 0 2.108.255 3.06.765v34.017c-.884.476-1.904.714-3.06.714-1.156 0-2.21-.238-3.162-.714V70.287l-7.191 4.284c-2.006-.646-2.839-2.091-2.499-4.335l9.792-6.018c.85-.476 1.87-.714 3.06-.714z" fill="#008CCF" fill-rule="nonzero"/><path d="M294 130h-.028C251.199 130 193 165.009 193 208.192c0 0 58.695 14.383 101-78.192z" fill="#008CCF"/><path d="M187.044 198c3.557-25.382 27.194-47.27 54.452-59.682 3.829-10.367 7.106-22.342 9.504-36.318l-.028.008c-39.76 10.67-84.93 55.937-78.324 95.992h14.396z" fill="#00ACE7"/><g transform="translate(112 198)"><mask id="f" fill="#fff"><use xlink:href="#e"/></mask><path d="M93.657 73H36.345C16.274 73-.002 56.66-.002 36.502v-.004C-.002 16.341 16.274 0 36.345 0h57.312C113.73 0 130 16.34 130 36.498v.004C130 56.659 113.729 73 93.657 73" fill="#008CCF" mask="url(#f)"/></g><g transform="translate(194 270)"><mask id="h" fill="#fff"><use xlink:href="#g"/></mask><path fill="#008CCF" mask="url(#h)" d="M0 0h17v23.001z"/></g><path d="M151.5 227c-4.14 0-7.5 3.36-7.5 7.5 0 4.14 3.36 7.5 7.5 7.5 4.14 0 7.5-3.36 7.5-7.5 0-4.14-3.36-7.5-7.5-7.5m26 0c-4.14 0-7.5 3.36-7.5 7.5 0 4.14 3.36 7.5 7.5 7.5 4.14 0 7.5-3.36 7.5-7.5 0-4.14-3.36-7.5-7.5-7.5m26 0c-4.14 0-7.5 3.36-7.5 7.5 0 4.14 3.36 7.5 7.5 7.5 4.14 0 7.5-3.36 7.5-7.5 0-4.14-3.36-7.5-7.5-7.5" fill="#FEFEFE"/><g transform="translate(1.999)"><use fill="#000" filter="url(#i)" xlink:href="#j"/><use fill="#FFF" xlink:href="#j"/></g><g transform="translate(1.999)"><use fill="#000" filter="url(#k)" xlink:href="#l"/><use fill="#FFF" xlink:href="#l"/></g><path d="M335.823 347.002h13.515c.442.646.663 1.513.663 2.601 0 1.054-.221 1.853-.663 2.397h-20.196c-.646-.646-.969-1.564-.969-2.754 0-1.292.833-2.771 2.499-4.437l3.162-3.111c1.768-1.768 2.907-2.941 3.417-3.519.782-.918 1.683-2.023 2.703-3.315 1.938-2.584 2.907-5.338 2.907-8.262 0-3.842-1.751-5.763-5.253-5.763-2.278 0-4.25 1.02-5.916 3.06-1.054.102-1.938-.145-2.652-.74-.714-.595-1.088-1.436-1.122-2.524.952-1.428 2.397-2.618 4.335-3.57 1.904-.952 3.893-1.428 5.967-1.428 3.468 0 6.188.91 8.16 2.728 1.972 1.82 2.958 4.361 2.958 7.625 0 3.57-1.292 7.072-3.876 10.506-1.972 2.584-4.726 5.644-8.262 9.18l-1.377 1.326z" fill="#633E6B" fill-rule="nonzero"/><path d="M75.604 322.675l-7.701 9.18c6.868 1.054 10.302 4.437 10.302 10.149 0 3.264-1.105 5.899-3.315 7.905-2.176 1.972-5.1 2.958-8.772 2.958-2.244 0-4.335-.383-6.273-1.148-1.938-.765-3.417-1.81-4.437-3.136 0-1.054.315-1.904.944-2.55.629-.646 1.487-.969 2.575-.969 1.632 1.904 3.842 2.856 6.63 2.856 1.938 0 3.443-.527 4.514-1.581 1.07-1.054 1.606-2.533 1.606-4.437 0-4.352-2.55-6.528-7.65-6.528h-1.632c-.408-.034-.756-.247-1.045-.638-.29-.39-.434-.807-.434-1.249 0-.918.374-1.802 1.122-2.652l7.956-9.384H56.938c-.952-1.768-.952-3.417 0-4.947h19.788a3.71 3.71 0 01.663 2.142c0 1.19-.595 2.533-1.785 4.029z" fill="#00ACE7" fill-rule="nonzero"/><path d="M74.38 98c-.986 0-2.006-.272-3.06-.816v-7.65H57.55c-.544-.646-.816-1.479-.816-2.499 0-1.19.476-2.856 1.428-4.998l8.517-19.329c.51-.136 1.122-.204 1.836-.204 1.666 0 2.839.765 3.519 2.295l-8.874 19.89h8.211l.561-7.905c.782-.476 1.7-.714 2.754-.714.952 0 1.853.238 2.703.714v7.905h3.672c.442.748.663 1.564.663 2.448 0 1.054-.221 1.853-.663 2.397h-3.672v7.65A5.975 5.975 0 0174.38 98z" fill="#E7B200" fill-rule="nonzero"/></g></svg>