<?xml version="1.0" encoding="UTF-8"?>
<svg width="68px" height="58px" viewBox="0 0 68 58" version="1.1" xmlns="http://www.w3.org/2000/svg" xmlns:xlink="http://www.w3.org/1999/xlink">
    <title>FA2B5A39-161E-4436-B89F-FFDA38E06AB8</title>
    <g id="Page-1" stroke="none" stroke-width="1" fill="none" fill-rule="evenodd">
        <g id="-Case-studies-" transform="translate(-409.000000, -2465.000000)" fill="#FFFFFF" fill-rule="nonzero">
            <g id="“" transform="translate(409.000000, 2465.000000)">
                <path d="M23.392,0 C25.568,0 27.6835556,0.856540084 29.7386667,2.56962025 L22.4853333,31.2025316 C26.8373333,34.0168776 29.0133333,38.0548523 29.0133333,43.3164557 C29.0133333,47.4767932 27.5928889,50.964135 24.752,53.778481 C21.9111111,56.592827 18.3751111,58 14.144,58 C10.0337778,58 6.64888889,56.592827 3.98933333,53.778481 C1.32977778,50.964135 0,47.4767932 0,43.3164557 C0,39.1561181 1.87377778,32.9156118 5.62133333,24.5949367 L15.5946667,2.56962025 C18.3751111,0.856540084 20.9742222,0 23.392,0 Z M68,2.56962025 L60.5653333,31.2025316 C64.9173333,34.0168776 67.0933333,38.0548523 67.0933333,43.3164557 C67.0933333,47.4767932 65.6728889,50.964135 62.832,53.778481 C59.9911111,56.592827 56.5155556,58 52.4053333,58 C48.2951111,58 44.88,56.592827 42.16,53.778481 C39.44,50.964135 38.08,47.4767932 38.08,43.3164557 C38.08,39.7679325 40.0142222,33.5274262 43.8826667,24.5949367 L53.6746667,2.56962025 C56.4551111,0.856540084 59.0542222,0 61.472,0 C63.7688889,0 65.9448889,0.856540084 68,2.56962025 Z" id="Shape"></path>
            </g>
        </g>
    </g>
</svg>