<svg width="68" height="58" xmlns="http://www.w3.org/2000/svg"><path d="M23.392 0c2.176 0 4.292.857 6.347 2.57l-7.254 28.633c4.352 2.814 6.528 6.852 6.528 12.113 0 4.16-1.42 7.648-4.261 10.462C21.912 56.593 18.375 58 14.144 58c-4.11 0-7.495-1.407-10.155-4.222C1.33 50.964 0 47.477 0 43.316c0-4.16 1.874-10.4 5.621-18.721L15.595 2.57C18.375.857 20.975 0 23.392 0zM68 2.57l-7.435 28.633c4.352 2.814 6.528 6.852 6.528 12.113 0 4.16-1.42 7.648-4.261 10.462C59.992 56.593 56.516 58 52.405 58c-4.11 0-7.525-1.407-10.245-4.222-2.72-2.814-4.08-6.301-4.08-10.462 0-3.548 1.934-9.789 5.803-18.721L53.675 2.57C56.455.857 59.055 0 61.472 0 63.769 0 65.945.857 68 2.57z" fill="#FFF"/></svg>