<?xml version="1.0" encoding="UTF-8"?>
<svg width="182px" height="109px" viewBox="0 0 182 109" version="1.1" xmlns="http://www.w3.org/2000/svg" xmlns:xlink="http://www.w3.org/1999/xlink">
    <title>AD69D2F1-6864-419F-96B4-F89512289083</title>
    <g id="Page-1" stroke="none" stroke-width="1" fill="none" fill-rule="evenodd">
        <g id="How-it-works" transform="translate(-1069.000000, -884.000000)">
            <g id="Group-2" transform="translate(1069.000000, 888.000000)">
                <circle id="Oval-Copy-6" fill="#008CCF" cx="44.5" cy="60.5" r="44.5"></circle>
                <g id="bell-notification-alarm-copy" transform="translate(23.000000, 14.500000)" stroke-width="2">
                    <path d="M17,58.5 L17,59.3533333 C17,60.4530929 17.4737139,61.507811 18.3169444,62.2854618 C19.1601748,63.0631126 20.3038436,63.5 21.4963566,63.5 L21.5,63.5 C22.6929936,63.500443 23.8373163,63.0638142 24.68123,62.2861667 C25.5251438,61.5085192 25.9995195,60.4535539 26,59.3533511 L26,59.3533511 L26,58.5" id="Path" stroke="#FFFFFF" stroke-linecap="round" stroke-linejoin="round"></path>
                    <path d="M32.375,42.3482143 L32.375,49.5466071 L34.84725,52.010955 C35.5846623,52.748098 35.9991726,53.7467138 36,54.7880979 L36,54.7880979 C36,56.8381248 34.3340214,58.5 32.2789327,58.5 L10.7210673,58.5 C8.66597859,58.5 7,56.8381248 7,54.7880979 L7,54.7880979 C7.00082738,53.7467138 7.41533771,52.748098 8.15275,52.010955 L10.625,49.5466071 L10.625,42.3482143 C10.625,36.356911 15.4939033,31.5 21.5,31.5 L21.5,31.5 C27.5060967,31.5 32.375,36.356911 32.375,42.3482143 Z" id="Path" stroke="#FFFFFF" stroke-linecap="round" stroke-linejoin="round"></path>
                    <line x1="40" y1="29.5" x2="36" y2="32.5" id="Path" stroke="#FFFFFF" stroke-linecap="round" stroke-linejoin="round"></line>
                    <line x1="42" y1="40.5" x2="38" y2="40.5" id="Path" stroke="#FFFFFF" stroke-linecap="round" stroke-linejoin="round"></line>
                    <line x1="2" y1="29.5" x2="6" y2="32.5" id="Path" stroke="#FFFFFF" stroke-linecap="round" stroke-linejoin="round"></line>
                    <line x1="0" y1="40.5" x2="4" y2="40.5" id="Path" stroke="#FFFFFF" stroke-linecap="round" stroke-linejoin="round"></line>
                    <polyline id="Path" stroke="#FFFFFF" stroke-linecap="round" stroke-linejoin="round" points="25 44.5 20.627327 48.5 18 46.0999887"></polyline>
                    <path d="M148.5,0 C151.820417,21.9662882 144.408698,40.1407064 126.264844,54.5232544 C108.12099,68.9058024 85.2488542,74.3339945 57.6484375,70.8078308" id="Line-2" stroke="#008CCF" stroke-linecap="square" stroke-dasharray="4"></path>
                </g>
                <circle id="Oval-Copy-6" stroke="#008CCF" stroke-width="4" cx="171.5" cy="6.5" r="8.5"></circle>
            </g>
        </g>
    </g>
</svg>