<svg width="182" height="109" xmlns="http://www.w3.org/2000/svg"><g transform="translate(0 4)" fill="none" fill-rule="evenodd"><circle fill="#008CCF" cx="44.5" cy="60.5" r="44.5"/><g stroke-width="2"><path d="M40 73v.853c0 1.1.474 2.155 1.317 2.932.843.778 1.987 1.215 3.18 1.215h.003c1.193 0 2.337-.436 3.181-1.214.844-.777 1.319-1.832 1.319-2.933h0V73" stroke="#FFF" stroke-linecap="round" stroke-linejoin="round"/><path d="M55.375 56.848v7.199l2.472 2.464A3.931 3.931 0 0159 69.288h0A3.716 3.716 0 0155.279 73H33.72A3.716 3.716 0 0130 69.288h0c0-1.041.415-2.04 1.153-2.777l2.472-2.464v-7.199C33.625 50.857 38.494 46 44.5 46h0c6.006 0 10.875 4.857 10.875 10.848zM63 44l-4 3m6 8h-4M25 44l4 3m-6 8h4" stroke="#FFF" stroke-linecap="round" stroke-linejoin="round"/><path stroke="#FFF" stroke-linecap="round" stroke-linejoin="round" d="M48 59l-4.373 4L41 60.6"/><path d="M171.5 14.5c3.32 21.966-4.091 40.14-22.235 54.523-18.144 14.383-41.016 19.811-68.617 16.285" stroke="#008CCF" stroke-linecap="square" stroke-dasharray="4"/></g><circle stroke="#008CCF" stroke-width="4" cx="171.5" cy="6.5" r="8.5"/></g></svg>