<svg width="350" height="136" xmlns="http://www.w3.org/2000/svg" xmlns:xlink="http://www.w3.org/1999/xlink"><defs><path id="a" d="M0 0h13.125v7.656H0z"/></defs><g fill="none" fill-rule="evenodd"><rect fill-opacity=".5" fill="#ABABAB" fill-rule="nonzero" style="mix-blend-mode:luminosity" width="350" height="118.125" rx="12"/><rect fill-opacity=".5" fill="#FFF" fill-rule="nonzero" width="350" height="118.125" rx="12"/><path d="M294.947 26.25h1.436v-9.248h-1.43l-2.434 1.73v1.41l2.32-1.66h.108v7.768zm4.06 0h1.378v-4.076c0-1.09.628-1.814 1.757-1.814.973 0 1.493.57 1.493 1.718v4.172h1.378v-4.499c0-1.647-.917-2.589-2.404-2.589-1.051 0-1.787.461-2.127 1.237h-.11V16.56h-1.365v9.69zm13.203.115c.916 0 1.679-.397 2.095-1.102h.11v.987h1.325v-4.762c0-1.46-.986-2.332-2.735-2.332-1.584 0-2.711.762-2.853 1.935h1.334c.153-.506.686-.795 1.454-.795.942 0 1.43.43 1.43 1.192v.61l-1.891.115c-1.66.102-2.596.826-2.596 2.076 0 1.269.982 2.076 2.327 2.076zm.352-1.108c-.75 0-1.294-.378-1.294-1.026 0-.634.435-.974 1.397-1.038l1.705-.115v.602c0 .897-.77 1.577-1.808 1.577zm7.95 3.653c1.975 0 3.224-1.007 3.224-2.59v-7.03h-1.32v1.11h-.109c-.391-.756-1.23-1.23-2.192-1.23-1.781 0-2.897 1.403-2.897 3.511 0 2.09 1.103 3.467 2.884 3.467.962 0 1.73-.416 2.154-1.172h.102v1.34c0 .941-.68 1.505-1.827 1.505-.928 0-1.511-.333-1.627-.859h-1.41c.147 1.173 1.275 1.949 3.018 1.949zm-.02-3.903c-1.185 0-1.85-.904-1.85-2.327 0-1.422.665-2.332 1.85-2.332 1.174 0 1.892.91 1.892 2.332 0 1.423-.712 2.327-1.891 2.327zm8.06 1.378c2.038 0 3.287-1.365 3.287-3.615s-1.255-3.614-3.286-3.614c-2.04 0-3.295 1.371-3.295 3.614 0 2.25 1.25 3.615 3.295 3.615zm0-1.173c-1.198 0-1.87-.891-1.87-2.442 0-1.55.672-2.448 1.87-2.448 1.192 0 1.872.897 1.872 2.448 0 1.545-.68 2.442-1.871 2.442z" fill-opacity=".2" fill="#000" fill-rule="nonzero"/><path d="M294.947 26.25h1.436v-9.248h-1.43l-2.434 1.73v1.41l2.32-1.66h.108v7.768zm4.06 0h1.378v-4.076c0-1.09.628-1.814 1.757-1.814.973 0 1.493.57 1.493 1.718v4.172h1.378v-4.499c0-1.647-.917-2.589-2.404-2.589-1.051 0-1.787.461-2.127 1.237h-.11V16.56h-1.365v9.69zm13.203.115c.916 0 1.679-.397 2.095-1.102h.11v.987h1.325v-4.762c0-1.46-.986-2.332-2.735-2.332-1.584 0-2.711.762-2.853 1.935h1.334c.153-.506.686-.795 1.454-.795.942 0 1.43.43 1.43 1.192v.61l-1.891.115c-1.66.102-2.596.826-2.596 2.076 0 1.269.982 2.076 2.327 2.076zm.352-1.108c-.75 0-1.294-.378-1.294-1.026 0-.634.435-.974 1.397-1.038l1.705-.115v.602c0 .897-.77 1.577-1.808 1.577zm7.95 3.653c1.975 0 3.224-1.007 3.224-2.59v-7.03h-1.32v1.11h-.109c-.391-.756-1.23-1.23-2.192-1.23-1.781 0-2.897 1.403-2.897 3.511 0 2.09 1.103 3.467 2.884 3.467.962 0 1.73-.416 2.154-1.172h.102v1.34c0 .941-.68 1.505-1.827 1.505-.928 0-1.511-.333-1.627-.859h-1.41c.147 1.173 1.275 1.949 3.018 1.949zm-.02-3.903c-1.185 0-1.85-.904-1.85-2.327 0-1.422.665-2.332 1.85-2.332 1.174 0 1.892.91 1.892 2.332 0 1.423-.712 2.327-1.891 2.327zm8.06 1.378c2.038 0 3.287-1.365 3.287-3.615s-1.255-3.614-3.286-3.614c-2.04 0-3.295 1.371-3.295 3.614 0 2.25 1.25 3.615 3.295 3.615zm0-1.173c-1.198 0-1.87-.891-1.87-2.442 0-1.55.672-2.448 1.87-2.448 1.192 0 1.872.897 1.872 2.448 0 1.545-.68 2.442-1.871 2.442z" fill-opacity=".36" fill="#000" fill-rule="nonzero" style="mix-blend-mode:overlay"/><path d="M47.988 27.54c-.678 0-1.312-.12-1.903-.36a4.22 4.22 0 01-1.534-1.067c-.432-.47-.774-1.05-1.025-1.739-.252-.689-.378-1.476-.378-2.362 0-.875.129-1.66.386-2.355.257-.694.607-1.282 1.05-1.763a4.446 4.446 0 011.559-1.1 4.865 4.865 0 011.91-.377c.679 0 1.28.137 1.806.41.525.274.957.591 1.296.952l-1.018 1.23a3.705 3.705 0 00-.918-.68 2.39 2.39 0 00-1.116-.255 2.692 2.692 0 00-2.157 1.042 3.627 3.627 0 00-.624 1.222 5.53 5.53 0 00-.221 1.625c0 1.225.265 2.184.795 2.879.531.694 1.25 1.042 2.158 1.042a2.64 2.64 0 001.28-.304 4.01 4.01 0 001.017-.796l1.017 1.198a4.599 4.599 0 01-1.501 1.157 4.317 4.317 0 01-1.879.402zm9.341 0c-.7 0-1.34-.128-1.92-.385a4.156 4.156 0 01-1.493-1.116c-.415-.486-.738-1.074-.968-1.763-.23-.69-.344-1.471-.344-2.346 0-.864.115-1.638.344-2.322.23-.683.553-1.26.968-1.73a4.193 4.193 0 011.493-1.083 4.771 4.771 0 011.92-.378c.7 0 1.34.126 1.92.378.58.251 1.08.612 1.5 1.082.422.47.747 1.048.977 1.731.23.684.344 1.458.344 2.322 0 .875-.115 1.657-.344 2.346-.23.689-.555 1.277-.976 1.763a4.232 4.232 0 01-1.502 1.116c-.58.257-1.22.386-1.92.386zm0-1.656c.426 0 .81-.093 1.148-.28.34-.185.63-.45.87-.795.24-.345.426-.76.558-1.247a6.27 6.27 0 00.197-1.632c0-1.203-.25-2.147-.747-2.83-.498-.684-1.173-1.026-2.026-1.026-.853 0-1.529.342-2.026 1.026-.498.683-.747 1.627-.747 2.83 0 .601.066 1.145.197 1.632.131.487.317.902.558 1.247.24.345.53.61.87.796.339.186.721.279 1.148.279zm7.437 1.46v-10.73h1.953l3.347 6.038 1.099 2.28h.065a116.98 116.98 0 00-.155-1.796 19.9 19.9 0 01-.09-1.863v-4.659h1.82v10.73h-1.952l-3.347-6.038-1.099-2.28h-.066c.044.569.096 1.165.156 1.788.06.624.09 1.236.09 1.838v4.692h-1.82zm13.229 0l-3.347-10.73h2.018l1.51 5.398c.175.612.33 1.192.467 1.739.137.547.298 1.132.484 1.755h.066a40.74 40.74 0 00.484-1.755c.137-.547.287-1.127.451-1.74l1.493-5.397h1.952l-3.33 10.73h-2.248zm11.425.196c-.7 0-1.34-.128-1.92-.385a4.156 4.156 0 01-1.493-1.116c-.416-.486-.738-1.074-.968-1.763-.23-.69-.344-1.471-.344-2.346 0-.864.114-1.638.344-2.322.23-.683.552-1.26.968-1.73a4.184 4.184 0 011.493-1.083 4.771 4.771 0 011.92-.378c.7 0 1.34.126 1.92.378.579.251 1.08.612 1.5 1.082.421.47.747 1.048.976 1.731.23.684.345 1.458.345 2.322 0 .875-.115 1.657-.345 2.346-.23.689-.555 1.277-.976 1.763a4.232 4.232 0 01-1.5 1.116c-.58.257-1.22.386-1.92.386zm0-1.656c.426 0 .809-.093 1.148-.28.339-.185.629-.45.87-.795.24-.345.426-.76.557-1.247a6.27 6.27 0 00.197-1.632c0-1.203-.249-2.147-.746-2.83-.498-.684-1.173-1.026-2.026-1.026-.854 0-1.529.342-2.027 1.026-.497.683-.746 1.627-.746 2.83 0 .601.065 1.145.197 1.632.131.487.317.902.558 1.247.24.345.53.61.87.796.338.186.721.279 1.148.279zm11.265 1.46v-10.73h3.43c.557 0 1.068.047 1.533.14.465.092.87.24 1.214.442.345.203.613.474.804.813.191.339.287.754.287 1.246 0 .515-.131.99-.394 1.428a2.029 2.029 0 01-1.099.902v.066c.59.131 1.08.407 1.469.828.388.421.582.993.582 1.715 0 .536-.104 1-.312 1.394a2.81 2.81 0 01-.861.985 3.795 3.795 0 01-1.304.582 6.754 6.754 0 01-1.641.189h-3.708zm1.903-6.3h1.362c.755 0 1.299-.137 1.632-.41.334-.274.5-.64.5-1.1 0-.525-.174-.896-.524-1.115-.35-.219-.875-.328-1.575-.328h-1.395v2.953zm0 4.823h1.608c.788 0 1.395-.145 1.821-.435.427-.29.64-.735.64-1.337 0-.568-.208-.981-.623-1.238-.416-.257-1.029-.386-1.838-.386h-1.608v3.396zm12.458 1.673c-.623 0-1.184-.09-1.682-.27a3.142 3.142 0 01-1.28-.861c-.355-.394-.628-.9-.82-1.518-.191-.618-.287-1.37-.287-2.256v-6.02h1.903v6.168c0 .58.052 1.069.156 1.468.104.4.252.72.443.96.192.24.419.413.681.517.263.104.558.156.886.156.328 0 .629-.052.902-.156.274-.104.509-.276.706-.517.197-.24.35-.56.46-.96.109-.399.163-.888.163-1.468v-6.169h1.821v6.021c0 .886-.093 1.638-.278 2.256-.186.618-.457 1.124-.813 1.518-.355.393-.782.68-1.28.86a4.885 4.885 0 01-1.68.272zm7.274-.196v-10.73h1.952l3.347 6.038 1.099 2.28h.066a116.98 116.98 0 00-.156-1.796 19.9 19.9 0 01-.09-1.863v-4.659h1.82v10.73h-1.952l-3.347-6.038-1.099-2.28h-.065c.043.569.095 1.165.155 1.788.06.624.09 1.236.09 1.838v4.692h-1.82zm11.309 0v-10.73h1.952l3.347 6.038 1.1 2.28h.065a116.98 116.98 0 00-.156-1.796 19.9 19.9 0 01-.09-1.863v-4.659h1.821v10.73h-1.952l-3.347-6.038-1.1-2.28h-.065c.044.569.096 1.165.156 1.788.06.624.09 1.236.09 1.838v4.692h-1.821zm13.098 0v-3.987l-3.216-6.743h2.034l1.165 2.74c.153.405.306.796.46 1.173.153.377.317.774.492 1.19h.065c.175-.416.345-.813.509-1.19.164-.377.323-.768.476-1.173l1.165-2.74h1.985l-3.232 6.743v3.987h-1.903z" fill="#676767" fill-rule="nonzero"/><path d="M19.25 61.447c-.853 0-1.564-.142-2.133-.427a4.664 4.664 0 01-1.41-1.05l.902-1.214c.317.317.678.588 1.082.812.405.225.87.337 1.395.337.569 0 1.03-.14 1.386-.419.356-.279.533-.664.533-1.156 0-.274-.049-.52-.147-.739a1.31 1.31 0 00-.5-.557c-.236-.154-.55-.271-.944-.353-.394-.082-.886-.123-1.477-.123V55.18c.515 0 .944-.041 1.288-.123.345-.082.624-.197.837-.345.213-.148.367-.325.46-.533.092-.208.139-.432.139-.673 0-.437-.137-.779-.41-1.025-.274-.246-.651-.37-1.132-.37-.416 0-.79.091-1.124.271-.334.18-.66.419-.976.714l-.968-1.165c.448-.394.927-.71 1.435-.951a3.92 3.92 0 011.698-.361c.503 0 .963.06 1.378.18.416.12.772.298 1.067.533.295.236.525.525.689.87.164.344.246.735.246 1.173 0 .59-.161 1.083-.484 1.477-.323.393-.768.7-1.337.918v.066c.623.164 1.14.465 1.55.902.41.438.616 1.001.616 1.69 0 .481-.096.908-.288 1.28a2.789 2.789 0 01-.787.943 3.654 3.654 0 01-1.165.59 4.787 4.787 0 01-1.419.206zm8.679 0c-1.094 0-1.958-.468-2.592-1.403-.635-.935-.952-2.289-.952-4.06 0-1.772.317-3.11.952-4.012.634-.902 1.498-1.353 2.592-1.353s1.958.454 2.592 1.361c.634.908.952 2.243.952 4.004 0 1.771-.318 3.125-.952 4.06-.634.935-1.498 1.403-2.592 1.403zm0-1.477c.251 0 .484-.068.697-.205.213-.136.397-.363.55-.68.153-.318.273-.728.36-1.231.088-.503.132-1.127.132-1.87 0-.733-.044-1.348-.131-1.846-.088-.498-.208-.9-.361-1.206-.153-.306-.337-.522-.55-.648a1.348 1.348 0 00-.697-.189c-.252 0-.484.063-.697.189-.214.126-.397.342-.55.648-.153.306-.273.708-.36 1.206-.088.498-.132 1.113-.132 1.846 0 .743.044 1.367.131 1.87.088.503.208.913.361 1.23.153.318.336.545.55.681.213.137.445.205.697.205zm8.695 1.28v-8.055h1.559l.131 1.099h.066a5.669 5.669 0 011.107-.919c.4-.252.85-.377 1.354-.377.59 0 1.063.125 1.419.377.355.252.626.607.812 1.066a6.48 6.48 0 011.198-1.033c.415-.274.88-.41 1.394-.41.853 0 1.482.276 1.887.828.404.553.607 1.343.607 2.37v5.054h-1.903v-4.807c0-.667-.101-1.138-.304-1.411-.202-.273-.511-.41-.927-.41-.503 0-1.066.333-1.69 1v5.628h-1.886v-4.807c0-.667-.102-1.138-.304-1.411-.202-.273-.517-.41-.943-.41-.503 0-1.067.333-1.69 1v5.628h-1.887zm13.831 0v-8.055h1.886v8.055h-1.886zm.951-9.466c-.339 0-.618-.099-.836-.296a.989.989 0 01-.329-.77c0-.318.11-.578.329-.78.218-.202.497-.304.836-.304.34 0 .618.102.837.304.219.202.328.462.328.78a.99.99 0 01-.328.77c-.219.197-.498.296-.837.296zm3.347 9.466v-8.055h1.559l.131 1.082h.066c.36-.35.752-.65 1.173-.902.42-.252.91-.377 1.468-.377.864 0 1.493.276 1.887.828.393.553.59 1.343.59 2.37v5.054h-1.886v-4.807c0-.667-.099-1.138-.296-1.411-.197-.273-.52-.41-.968-.41-.35 0-.659.085-.927.254a5.95 5.95 0 00-.91.747v5.627h-1.887zm12.797 0v-6.563h-1.083v-1.41l1.083-.082v-.837c0-.416.05-.801.148-1.157a2.38 2.38 0 01.475-.919c.22-.257.495-.456.829-.598.334-.143.741-.214 1.222-.214.285 0 .555.028.812.082.257.055.479.12.665.197l-.361 1.411a2.166 2.166 0 00-.886-.197c-.678 0-1.017.454-1.017 1.362v.87h1.575v1.492h-1.575v6.563H67.55zm4.873 0v-8.055h1.558l.131 1.427h.066c.284-.525.629-.927 1.034-1.206.404-.279.82-.418 1.247-.418.382 0 .689.054.918.164l-.328 1.64a3.445 3.445 0 00-.394-.098 2.528 2.528 0 00-.443-.033c-.317 0-.65.123-1 .37-.35.245-.651.675-.903 1.287v4.922h-1.886zm9.564.197a4.179 4.179 0 01-1.558-.287 3.701 3.701 0 01-1.263-.829 3.78 3.78 0 01-.845-1.32c-.203-.52-.304-1.113-.304-1.78 0-.657.104-1.247.312-1.772.208-.525.484-.968.828-1.33a3.67 3.67 0 011.19-.836 3.396 3.396 0 011.378-.295c.547 0 1.028.093 1.444.279.415.185.763.448 1.042.787.278.34.489.744.631 1.214.142.47.213.984.213 1.542 0 .186-.008.361-.024.525a3.498 3.498 0 01-.058.394h-5.118c.087.722.341 1.277.763 1.665.42.389.96.583 1.616.583.35 0 .675-.052.976-.156.3-.104.599-.249.894-.435l.64 1.181c-.383.252-.81.46-1.28.624a4.45 4.45 0 01-1.476.246zm-2.149-4.988h3.577c0-.623-.134-1.113-.402-1.468s-.681-.533-1.239-.533c-.481 0-.902.17-1.263.508-.361.34-.585.837-.673 1.493zm10.467 4.988a4.179 4.179 0 01-1.558-.287 3.701 3.701 0 01-1.263-.829 3.78 3.78 0 01-.845-1.32c-.203-.52-.304-1.113-.304-1.78 0-.657.104-1.247.312-1.772.208-.525.484-.968.828-1.33a3.67 3.67 0 011.19-.836 3.396 3.396 0 011.378-.295c.547 0 1.028.093 1.444.279.415.185.763.448 1.042.787.278.34.489.744.631 1.214.142.47.213.984.213 1.542 0 .186-.008.361-.024.525a3.498 3.498 0 01-.058.394h-5.118c.087.722.341 1.277.763 1.665.42.389.96.583 1.616.583.35 0 .675-.052.976-.156.3-.104.599-.249.894-.435l.64 1.181c-.383.252-.81.46-1.28.624a4.45 4.45 0 01-1.477.246zm-2.149-4.988h3.577c0-.623-.134-1.113-.402-1.468s-.681-.533-1.239-.533c-.481 0-.902.17-1.263.508-.361.34-.585.837-.673 1.493zm13.667 4.988a4.177 4.177 0 01-1.534-.279 3.457 3.457 0 01-1.239-.82 3.793 3.793 0 01-.82-1.33c-.197-.524-.296-1.12-.296-1.788 0-.667.11-1.263.329-1.788.218-.525.514-.968.885-1.329.372-.36.802-.637 1.288-.828a4.154 4.154 0 011.534-.287c.525 0 .976.087 1.354.262a4.4 4.4 0 011.009.64l-.919 1.23a3.124 3.124 0 00-.648-.434 1.57 1.57 0 00-.697-.156c-.657 0-1.187.243-1.592.73-.404.487-.607 1.14-.607 1.96 0 .81.2 1.458.6 1.945.398.486.915.73 1.55.73.317 0 .615-.069.894-.205.279-.137.533-.298.763-.484l.77 1.246a4.015 4.015 0 01-1.254.739 4.009 4.009 0 01-1.37.246zm7.514 0c-.503 0-.985-.093-1.444-.279a3.592 3.592 0 01-1.222-.82 3.924 3.924 0 01-.845-1.33c-.208-.524-.312-1.12-.312-1.788 0-.667.104-1.263.312-1.788.208-.525.49-.968.845-1.329a3.717 3.717 0 012.666-1.116c.503 0 .987.096 1.452.288.465.191.872.467 1.222.828.35.361.632.804.845 1.33.213.524.32 1.12.32 1.787 0 .668-.107 1.264-.32 1.789a4.098 4.098 0 01-.845 1.329 3.49 3.49 0 01-1.222.82 3.874 3.874 0 01-1.452.279zm0-1.542c.59 0 1.055-.244 1.394-.73.34-.487.509-1.135.509-1.945 0-.82-.17-1.473-.509-1.96-.339-.487-.804-.73-1.394-.73-.59 0-1.053.243-1.387.73-.333.487-.5 1.14-.5 1.96 0 .81.167 1.458.5 1.945.334.486.796.73 1.387.73zm5.709 1.345v-8.055h1.559l.13 1.082h.067c.36-.35.752-.65 1.173-.902.42-.252.91-.377 1.468-.377.864 0 1.493.276 1.887.828.393.553.59 1.343.59 2.37v5.054h-1.886v-4.807c0-.667-.099-1.138-.296-1.411-.197-.273-.52-.41-.968-.41-.35 0-.659.085-.927.254a5.95 5.95 0 00-.91.747v5.627h-1.887zm11.435.197a4.464 4.464 0 01-1.649-.32 5.335 5.335 0 01-1.402-.796l.886-1.214a5.1 5.1 0 001.074.665c.356.158.741.238 1.157.238.437 0 .76-.09.968-.271a.881.881 0 00.312-.697.686.686 0 00-.148-.435 1.418 1.418 0 00-.394-.337 3.785 3.785 0 00-.558-.27 29.843 29.843 0 01-.623-.255 9.865 9.865 0 01-.804-.344 3.232 3.232 0 01-.73-.476 2.4 2.4 0 01-.525-.648 1.78 1.78 0 01-.205-.878c0-.71.262-1.29.787-1.739.525-.448 1.242-.672 2.15-.672.557 0 1.06.098 1.509.295.448.197.837.421 1.165.673l-.87 1.148a4.5 4.5 0 00-.861-.5 2.263 2.263 0 00-.91-.189c-.405 0-.703.085-.895.254a.81.81 0 00-.287.632c0 .164.047.303.14.418a1.3 1.3 0 00.369.304c.153.087.33.17.533.246.202.076.413.153.632.23.273.098.546.21.82.336.273.126.522.282.746.467.225.186.405.413.542.681.136.268.205.588.205.96a2.255 2.255 0 01-.804 1.764c-.263.224-.59.402-.984.533a4.246 4.246 0 01-1.346.197zm7.219 0c-.864 0-1.493-.276-1.887-.829-.393-.552-.59-1.342-.59-2.37v-5.053h1.886v4.807c0 .667.099 1.137.296 1.41.197.274.514.41.951.41.35 0 .66-.087.927-.262.268-.175.555-.46.862-.853v-5.512h1.886v8.055h-1.542l-.148-1.181h-.049c-.35.415-.73.749-1.14 1-.41.252-.894.378-1.452.378zm8.564 0c-.678 0-1.154-.202-1.427-.607-.274-.405-.41-.957-.41-1.657v-9.516h1.886v9.614c0 .23.044.391.132.484.087.093.18.14.278.14h.123a.694.694 0 00.173-.033l.246 1.41c-.252.11-.585.165-1 .165zm5.446 0c-.47 0-.866-.071-1.189-.213a2.016 2.016 0 01-.787-.6 2.479 2.479 0 01-.443-.918 4.702 4.702 0 01-.14-1.19v-3.839h-1.148v-1.41l1.247-.082.23-2.199h1.575v2.199h2.05v1.492h-2.05v3.84c0 .94.377 1.41 1.132 1.41a2 2 0 00.434-.049c.148-.033.282-.076.402-.131l.329 1.395a6.28 6.28 0 01-.747.205c-.279.06-.577.09-.894.09zm5.038 0c-.711 0-1.285-.216-1.723-.648-.438-.432-.656-1.004-.656-1.715 0-.426.09-.806.27-1.14.18-.333.465-.62.854-.861.388-.24.88-.443 1.476-.607.596-.164 1.31-.29 2.141-.378a3.04 3.04 0 00-.09-.598 1.376 1.376 0 00-.246-.509 1.144 1.144 0 00-.451-.345 1.707 1.707 0 00-.69-.123c-.393 0-.779.077-1.156.23a7.81 7.81 0 00-1.107.558l-.69-1.263a8.07 8.07 0 011.51-.739 5.128 5.128 0 011.805-.311c1.006 0 1.758.298 2.255.894.498.596.747 1.457.747 2.584v4.774h-1.559l-.131-.886h-.066a5.91 5.91 0 01-1.156.771c-.41.208-.856.312-1.337.312zm.607-1.477c.328 0 .626-.076.894-.23a4.8 4.8 0 00.861-.656V57.28a8.612 8.612 0 00-1.378.262c-.372.11-.673.233-.902.37-.23.136-.394.292-.493.467a1.12 1.12 0 00-.147.558c0 .36.11.623.328.787.219.164.498.246.837.246zm8.745 1.477c-.471 0-.868-.071-1.19-.213a2.016 2.016 0 01-.788-.6 2.479 2.479 0 01-.443-.918 4.702 4.702 0 01-.14-1.19v-3.839h-1.148v-1.41l1.247-.082.23-2.199h1.575v2.199h2.05v1.492h-2.05v3.84c0 .94.377 1.41 1.132 1.41a2 2 0 00.435-.049 2.06 2.06 0 00.402-.131l.328 1.395a6.28 6.28 0 01-.747.205c-.279.06-.577.09-.894.09zm3.084-.197v-8.055h1.886v8.055h-1.886zm.951-9.466c-.339 0-.618-.099-.837-.296a.989.989 0 01-.328-.77c0-.318.11-.578.328-.78.22-.202.498-.304.837-.304.34 0 .618.102.837.304.219.202.328.462.328.78a.99.99 0 01-.328.77c-.219.197-.498.296-.837.296zm6.645 9.663c-.503 0-.985-.093-1.444-.279a3.592 3.592 0 01-1.222-.82 3.924 3.924 0 01-.845-1.33c-.208-.524-.312-1.12-.312-1.788 0-.667.104-1.263.312-1.788.208-.525.49-.968.845-1.329a3.717 3.717 0 012.666-1.116c.503 0 .987.096 1.452.288.464.191.872.467 1.222.828.35.361.632.804.845 1.33.213.524.32 1.12.32 1.787 0 .668-.107 1.264-.32 1.789a4.098 4.098 0 01-.845 1.329 3.49 3.49 0 01-1.222.82 3.874 3.874 0 01-1.452.279zm0-1.542c.59 0 1.055-.244 1.394-.73.34-.487.509-1.135.509-1.945 0-.82-.17-1.473-.509-1.96-.339-.487-.804-.73-1.394-.73-.59 0-1.053.243-1.387.73-.333.487-.5 1.14-.5 1.96 0 .81.167 1.458.5 1.945.334.486.796.73 1.387.73zm5.71 1.345v-8.055h1.558l.13 1.082h.067c.36-.35.751-.65 1.173-.902.42-.252.91-.377 1.468-.377.864 0 1.493.276 1.887.828.393.553.59 1.343.59 2.37v5.054h-1.886v-4.807c0-.667-.099-1.138-.296-1.411-.197-.273-.52-.41-.968-.41-.35 0-.659.085-.927.254a5.95 5.95 0 00-.91.747v5.627h-1.887z" fill="#2F2F2F" fill-rule="nonzero"/><path d="M16.472 84.219V74.174h1.27v10.045zm6.446.183c-.939 0-1.686-.336-2.243-1.01-.556-.674-.834-1.633-.834-2.879 0-.602.089-1.146.268-1.63.178-.486.416-.896.712-1.233a3.155 3.155 0 011.026-.781 2.827 2.827 0 011.225-.276c.428 0 .8.077 1.117.23.317.153.638.362.965.628l-.061-1.271v-2.864h1.27V84.22h-1.04l-.108-.873h-.046a4.706 4.706 0 01-1.018.743 2.53 2.53 0 01-1.233.313zm.276-1.056c.347 0 .674-.084.98-.253.306-.168.613-.426.919-.773v-3.89c-.317-.285-.62-.487-.911-.604a2.374 2.374 0 00-.896-.176 1.77 1.77 0 00-.835.206c-.26.138-.487.332-.681.582-.194.25-.347.549-.46.896a3.769 3.769 0 00-.168 1.164c0 .898.179 1.597.536 2.098.357.5.863.75 1.516.75zm8.698 1.056c-.5 0-.968-.089-1.402-.267a3.32 3.32 0 01-1.133-.766 3.545 3.545 0 01-.758-1.217c-.183-.48-.275-1.026-.275-1.639 0-.612.094-1.161.283-1.646.189-.485.439-.896.75-1.233a3.255 3.255 0 011.065-.773 2.998 2.998 0 011.24-.268c.47 0 .89.082 1.263.245.373.163.684.398.934.704.25.307.442.674.574 1.103.133.429.2.909.2 1.44 0 .132-.003.262-.008.39a1.886 1.886 0 01-.038.33h-5.023c.051.795.299 1.426.743 1.89.444.465 1.023.697 1.738.697.357 0 .686-.054.987-.16a4.37 4.37 0 00.865-.422l.445.827a6.34 6.34 0 01-1.088.536c-.398.153-.852.23-1.362.23zm-2.343-4.501h3.981c0-.756-.16-1.33-.482-1.723-.322-.393-.774-.59-1.356-.59-.265 0-.518.051-.757.154-.24.102-.457.252-.651.451-.194.2-.355.442-.483.728a3.284 3.284 0 00-.252.98zm6.921 4.318v-7.442h1.041l.107 1.072h.046a6.063 6.063 0 011.126-.896c.393-.24.85-.36 1.37-.36.786 0 1.36.245 1.723.735.362.49.544 1.215.544 2.175v4.716H41.17V79.67c0-.704-.112-1.212-.337-1.524-.225-.311-.582-.467-1.072-.467-.388 0-.73.097-1.026.291-.296.194-.633.48-1.01.858v5.39H36.47zm10.719.183c-.398 0-.733-.06-1.003-.183a1.735 1.735 0 01-.659-.506 1.969 1.969 0 01-.36-.78 4.449 4.449 0 01-.107-1.011v-4.12h-1.102v-.949l1.164-.076.153-2.083h1.056v2.083h2.006v1.026h-2.006v4.134c0 .46.084.814.253 1.064.168.25.467.376.896.376.132 0 .275-.02.428-.062.154-.04.291-.086.414-.138l.245.95a6.51 6.51 0 01-.666.191c-.24.056-.477.085-.712.085zm2.833-.183v-7.442h1.255v7.442h-1.255zm.643-8.973a.888.888 0 01-.62-.23.752.752 0 01-.253-.582c0-.245.084-.441.253-.59a.906.906 0 01.62-.221c.245 0 .451.074.62.222a.746.746 0 01.253.59.752.752 0 01-.253.58.888.888 0 01-.62.23zm3.338 8.973v-6.416h-1.01v-.95l1.01-.076v-1.18c0-.765.176-1.367.528-1.806.352-.439.901-.658 1.646-.658a3.1 3.1 0 01.666.068c.21.046.401.105.575.176l-.276.965a2.055 2.055 0 00-.842-.184c-.694 0-1.042.48-1.042 1.44v1.179h1.578v1.026h-1.578v6.416h-1.255zm4.379 3.201a2.71 2.71 0 01-.474-.04 1.901 1.901 0 01-.399-.114l.245-.995.276.069c.102.025.2.038.29.038.43 0 .78-.15 1.05-.452.27-.301.482-.681.635-1.14l.169-.552-2.986-7.457h1.301l1.516 4.119.36 1.034c.128.362.248.717.36 1.064h.061c.113-.337.22-.69.322-1.057.102-.367.204-.714.306-1.041l1.332-4.12h1.225l-2.802 8.055c-.133.368-.28.71-.444 1.026-.163.317-.357.59-.582.82-.224.23-.48.41-.766.543a2.34 2.34 0 01-.995.2zm10.214 0a2.71 2.71 0 01-.475-.04 1.901 1.901 0 01-.398-.114l.245-.995.275.069c.103.025.2.038.291.038.43 0 .779-.15 1.05-.452.27-.301.482-.681.635-1.14l.168-.552-2.986-7.457h1.302l1.516 4.119c.112.327.232.671.36 1.034.127.362.247.717.36 1.064h.06c.113-.337.22-.69.322-1.057.102-.367.204-.714.307-1.041l1.332-4.12h1.225l-2.802 8.055a8.49 8.49 0 01-.445 1.026 3.38 3.38 0 01-.581.82c-.225.23-.48.41-.766.543a2.34 2.34 0 01-.995.2zm9.922-3.018c-.46 0-.896-.086-1.31-.26a3.224 3.224 0 01-1.094-.758 3.69 3.69 0 01-.758-1.225c-.189-.485-.283-1.033-.283-1.646 0-.623.094-1.176.283-1.661a3.78 3.78 0 01.758-1.233 3.176 3.176 0 011.095-.766c.413-.173.85-.26 1.31-.26.458 0 .895.087 1.308.26.414.174.779.43 1.095.766.317.337.57.748.758 1.233.189.485.283 1.038.283 1.661 0 .613-.094 1.161-.283 1.646a3.69 3.69 0 01-.758 1.225 3.224 3.224 0 01-1.095.758c-.413.174-.85.26-1.309.26zm0-1.04c.317 0 .608-.07.873-.207.265-.138.492-.332.681-.582.19-.25.335-.549.437-.896.102-.347.153-.735.153-1.164a4.2 4.2 0 00-.153-1.171 2.85 2.85 0 00-.437-.911 1.974 1.974 0 00-.681-.59 1.865 1.865 0 00-.873-.207c-.316 0-.607.07-.873.207a1.974 1.974 0 00-.681.59 2.85 2.85 0 00-.437.91 4.2 4.2 0 00-.153 1.172c0 .429.051.817.154 1.164.102.347.247.646.436.896s.416.444.681.582c.266.137.557.206.873.206zm7.58 1.04c-.796 0-1.376-.245-1.738-.735-.363-.49-.544-1.214-.544-2.174v-4.716h1.271v4.548c0 .704.11 1.212.33 1.523.219.312.574.467 1.064.467.388 0 .73-.1 1.026-.298.296-.2.622-.518.98-.957v-5.283h1.255v7.442h-1.041l-.107-1.164h-.046a4.964 4.964 0 01-1.095.98c-.383.245-.835.367-1.355.367zm6.155-.183v-7.442h1.042l.107 1.347h.046c.255-.47.564-.842.926-1.117a1.918 1.918 0 011.187-.414c.296 0 .561.051.796.153l-.245 1.103a2.832 2.832 0 00-.337-.092c-.102-.02-.23-.03-.383-.03-.316 0-.645.127-.987.382-.342.255-.64.7-.896 1.332v4.778h-1.256zm8.377 0v-7.442h1.04l.108 1.072h.046a6.063 6.063 0 011.125-.896c.393-.24.85-.36 1.37-.36.787 0 1.36.245 1.723.735s.544 1.215.544 2.175v4.716h-1.256V79.67c0-.704-.112-1.212-.337-1.524-.224-.311-.581-.467-1.071-.467-.388 0-.73.097-1.026.291-.296.194-.633.48-1.011.858v5.39h-1.256zm11.392.183c-.5 0-.967-.089-1.401-.267a3.32 3.32 0 01-1.133-.766 3.545 3.545 0 01-.758-1.217c-.184-.48-.276-1.026-.276-1.639 0-.612.094-1.161.283-1.646.19-.485.44-.896.75-1.233a3.255 3.255 0 011.065-.773 2.998 2.998 0 011.24-.268c.47 0 .89.082 1.263.245.373.163.684.398.935.704.25.307.441.674.574 1.103.132.429.199.909.199 1.44 0 .132-.003.262-.008.39a1.886 1.886 0 01-.038.33h-5.023c.051.795.299 1.426.743 1.89.444.465 1.023.697 1.738.697.357 0 .687-.054.988-.16a4.37 4.37 0 00.865-.422l.444.827a6.34 6.34 0 01-1.087.536c-.398.153-.853.23-1.363.23zm-2.343-4.501h3.981c0-.756-.16-1.33-.482-1.723-.322-.393-.773-.59-1.355-.59a1.9 1.9 0 00-.758.154c-.24.102-.457.252-.65.451-.195.2-.356.442-.483.728a3.284 3.284 0 00-.253.98zm9.938 4.501c-.5 0-.967-.089-1.401-.267a3.32 3.32 0 01-1.133-.766 3.545 3.545 0 01-.758-1.217c-.184-.48-.276-1.026-.276-1.639 0-.612.094-1.161.283-1.646.19-.485.44-.896.75-1.233a3.255 3.255 0 011.065-.773 2.998 2.998 0 011.24-.268c.47 0 .89.082 1.263.245.373.163.684.398.935.704.25.307.441.674.574 1.103.132.429.199.909.199 1.44 0 .132-.003.262-.008.39a1.886 1.886 0 01-.038.33h-5.023c.051.795.299 1.426.743 1.89.444.465 1.023.697 1.738.697.357 0 .687-.054.988-.16a4.37 4.37 0 00.865-.422l.444.827a6.34 6.34 0 01-1.087.536c-.398.153-.853.23-1.363.23zm-2.343-4.501h3.981c0-.756-.16-1.33-.482-1.723-.322-.393-.773-.59-1.355-.59a1.9 1.9 0 00-.758.154c-.24.102-.457.252-.65.451-.195.2-.356.442-.483.728a3.284 3.284 0 00-.253.98zm9.463 4.501c-.939 0-1.687-.336-2.243-1.01-.556-.674-.835-1.633-.835-2.879 0-.602.09-1.146.268-1.63a3.87 3.87 0 01.712-1.233 3.155 3.155 0 011.026-.781 2.827 2.827 0 011.225-.276c.43 0 .802.077 1.118.23.317.153.638.362.965.628l-.061-1.271v-2.864h1.27V84.22h-1.04l-.108-.873h-.046a4.706 4.706 0 01-1.018.743 2.53 2.53 0 01-1.233.313zm.276-1.056c.347 0 .674-.084.98-.253.306-.168.612-.426.919-.773v-3.89c-.317-.285-.62-.487-.912-.604a2.374 2.374 0 00-.895-.176c-.296 0-.575.069-.835.206-.26.138-.487.332-.681.582-.194.25-.347.549-.46.896a3.769 3.769 0 00-.168 1.164c0 .898.179 1.597.536 2.098.357.5.862.75 1.516.75zm7.625 1.056a4 4 0 01-1.515-.29 4.729 4.729 0 01-1.256-.735l.628-.843c.326.266.66.48 1.003.643.342.164.737.245 1.186.245.49 0 .858-.112 1.103-.336.245-.225.367-.5.367-.827a.847.847 0 00-.153-.506 1.523 1.523 0 00-.39-.375 2.86 2.86 0 00-.544-.283l-.612-.245a10.52 10.52 0 01-.797-.314 3.18 3.18 0 01-.712-.429 2.17 2.17 0 01-.513-.59 1.568 1.568 0 01-.199-.81c0-.297.06-.575.176-.835a1.93 1.93 0 01.506-.674c.22-.189.487-.337.804-.444a3.33 3.33 0 011.072-.16c.47 0 .9.08 1.293.244.393.163.733.363 1.019.597l-.597.797a4 4 0 00-.797-.475 2.2 2.2 0 00-.903-.184c-.47 0-.814.107-1.034.322-.22.214-.329.464-.329.75 0 .174.046.324.138.452.092.127.214.24.367.337.154.097.33.183.529.26.199.076.405.156.62.237.265.102.533.21.804.322.27.112.513.252.727.42.214.17.39.376.528.621s.207.541.207.888c0 .306-.059.592-.176.858-.117.265-.291.5-.52.704a2.49 2.49 0 01-.858.482 3.6 3.6 0 01-1.172.177zm4.242 2.42l-.306-.735c.439-.194.78-.452 1.026-.773a1.69 1.69 0 00.352-1.095.965.965 0 01-.789-.207c-.178-.148-.268-.365-.268-.65 0-.276.092-.493.276-.652a.976.976 0 01.658-.237.9.9 0 01.774.398c.189.266.283.628.283 1.087 0 .664-.179 1.24-.536 1.73-.357.49-.847.868-1.47 1.134zm10.397-2.42c-.347 0-.707-.084-1.08-.252a4.036 4.036 0 01-1.048-.697h-.046l-.107.766h-1.011V73.316h1.256v2.97l-.031 1.348a5.159 5.159 0 011.102-.742 2.71 2.71 0 011.226-.299c.48 0 .903.09 1.27.268.368.179.677.434.927.766.25.331.439.73.566 1.194.128.465.192.983.192 1.554 0 .633-.087 1.2-.26 1.7-.174.5-.409.924-.705 1.27a2.98 2.98 0 01-1.026.79 2.895 2.895 0 01-1.225.267zm-.214-1.056c.306 0 .59-.069.85-.207a2.03 2.03 0 00.673-.582c.19-.25.337-.559.444-.926a4.4 4.4 0 00.161-1.24c0-.409-.035-.781-.107-1.118a2.498 2.498 0 00-.344-.865 1.65 1.65 0 00-.613-.56 1.896 1.896 0 00-.896-.198c-.602 0-1.266.337-1.99 1.01v3.905c.326.286.65.487.972.605.322.117.605.176.85.176zm7.564 1.056c-.796 0-1.375-.245-1.738-.735-.362-.49-.543-1.214-.543-2.174v-4.716h1.27v4.548c0 .704.11 1.212.33 1.523.22.312.574.467 1.064.467.388 0 .73-.1 1.026-.298.296-.2.623-.518.98-.957v-5.283h1.256v7.442h-1.042l-.107-1.164h-.046a4.964 4.964 0 01-1.095.98c-.382.245-.834.367-1.355.367zm8.698 0c-.94 0-1.687-.336-2.244-1.01-.556-.674-.834-1.633-.834-2.879 0-.602.09-1.146.268-1.63.178-.486.416-.896.712-1.233a3.155 3.155 0 011.026-.781 2.827 2.827 0 011.225-.276c.429 0 .801.077 1.118.23.316.153.638.362.964.628l-.06-1.271v-2.864h1.27V84.22h-1.041l-.107-.873h-.046a4.706 4.706 0 01-1.019.743 2.53 2.53 0 01-1.232.313zm.275-1.056c.347 0 .674-.084.98-.253.307-.168.613-.426.92-.773v-3.89c-.317-.285-.621-.487-.912-.604a2.374 2.374 0 00-.896-.176c-.296 0-.574.069-.834.206-.26.138-.488.332-.682.582-.194.25-.347.549-.46.896a3.769 3.769 0 00-.168 1.164c0 .898.18 1.597.536 2.098.358.5.863.75 1.516.75zm8.193 4.303c-.46 0-.878-.044-1.256-.13a3.054 3.054 0 01-.972-.39 1.94 1.94 0 01-.628-.629 1.626 1.626 0 01-.222-.857c0-.317.097-.618.29-.904.195-.285.46-.546.797-.78v-.062a1.457 1.457 0 01-.467-.467c-.128-.199-.192-.446-.192-.743 0-.316.087-.592.26-.826.174-.235.358-.419.552-.552v-.06a3.045 3.045 0 01-.666-.82 2.316 2.316 0 01-.299-1.187c0-.408.074-.776.222-1.102a2.49 2.49 0 01.605-.835c.255-.23.554-.406.896-.528a3.177 3.177 0 012.136 0h2.588v.965h-1.531c.173.173.319.393.436.658.117.265.176.556.176.873 0 .398-.071.758-.214 1.08a2.36 2.36 0 01-.582.81c-.245.22-.534.391-.865.514a3.048 3.048 0 01-1.064.184c-.184 0-.373-.023-.567-.07a2.813 2.813 0 01-.551-.19 1.795 1.795 0 00-.337.374.905.905 0 00-.138.513c0 .235.092.43.276.582.183.153.53.23 1.04.23h1.44c.868 0 1.519.14 1.953.421.433.28.65.733.65 1.355 0 .347-.086.677-.26.988a2.527 2.527 0 01-.75.82 3.935 3.935 0 01-1.187.558 5.514 5.514 0 01-1.57.207zm0-6.63a1.507 1.507 0 001.11-.475 1.59 1.59 0 00.344-.56c.082-.219.123-.466.123-.742 0-.551-.153-.977-.46-1.278a1.535 1.535 0 00-1.117-.452c-.44 0-.812.15-1.118.452-.307.3-.46.727-.46 1.278 0 .276.041.523.123.743a1.558 1.558 0 00.85.911 1.5 1.5 0 00.605.122zm.183 5.757c.358 0 .682-.043.973-.13a2.7 2.7 0 00.742-.337c.204-.138.363-.299.475-.482.112-.184.168-.373.168-.567 0-.347-.127-.587-.382-.72-.256-.132-.628-.199-1.118-.199h-1.286c-.143 0-.3-.007-.468-.023a2.39 2.39 0 01-.497-.1c-.266.195-.46.399-.582.613a1.286 1.286 0 00-.184.643c0 .398.192.715.574.95.383.235.912.352 1.585.352zm8.039-2.374c-.5 0-.967-.089-1.4-.267a3.32 3.32 0 01-1.134-.766 3.545 3.545 0 01-.758-1.217c-.184-.48-.275-1.026-.275-1.639 0-.612.094-1.161.283-1.646.189-.485.439-.896.75-1.233a3.255 3.255 0 011.064-.773 2.998 2.998 0 011.24-.268c.47 0 .891.082 1.264.245.373.163.684.398.934.704.25.307.441.674.574 1.103.133.429.2.909.2 1.44 0 .132-.003.262-.008.39a1.886 1.886 0 01-.039.33h-5.022c.05.795.298 1.426.742 1.89.445.465 1.024.697 1.738.697.358 0 .687-.054.988-.16a4.37 4.37 0 00.865-.422l.444.827a6.34 6.34 0 01-1.087.536c-.398.153-.852.23-1.363.23zm-2.342-4.501h3.98c0-.756-.16-1.33-.482-1.723-.321-.393-.773-.59-1.355-.59-.265 0-.518.051-.758.154-.24.102-.457.252-.65.451-.194.2-.355.442-.483.728a3.284 3.284 0 00-.252.98zm9.264 4.501c-.399 0-.733-.06-1.003-.183a1.735 1.735 0 01-.659-.506 1.969 1.969 0 01-.36-.78 4.449 4.449 0 01-.107-1.011v-4.12h-1.102v-.949l1.163-.076.154-2.083h1.056v2.083h2.006v1.026h-2.006v4.134c0 .46.084.814.253 1.064.168.25.467.376.896.376.132 0 .275-.02.428-.062a3.04 3.04 0 00.414-.138l.245.95a6.51 6.51 0 01-.666.191c-.24.056-.478.085-.712.085zm2.603 2.42l-.307-.735c.44-.194.781-.452 1.026-.773a1.69 1.69 0 00.353-1.095.965.965 0 01-.789-.207c-.179-.148-.268-.365-.268-.65 0-.276.092-.493.276-.652a.976.976 0 01.658-.237.9.9 0 01.773.398c.19.266.284.628.284 1.087 0 .664-.179 1.24-.536 1.73-.358.49-.848.868-1.47 1.134zm9.647-2.42c-.94 0-1.687-.336-2.244-1.01-.556-.674-.834-1.633-.834-2.879 0-.602.09-1.146.268-1.63.178-.486.416-.896.712-1.233a3.155 3.155 0 011.026-.781 2.827 2.827 0 011.225-.276c.428 0 .801.077 1.118.23.316.153.638.362.964.628l-.061-1.271v-2.864h1.27V84.22h-1.04l-.108-.873h-.046a4.706 4.706 0 01-1.018.743 2.53 2.53 0 01-1.232.313zm.275-1.056c.347 0 .674-.084.98-.253.306-.168.613-.426.919-.773v-3.89c-.317-.285-.62-.487-.911-.604a2.374 2.374 0 00-.896-.176c-.296 0-.574.069-.834.206-.26.138-.488.332-.682.582-.194.25-.347.549-.46.896a3.769 3.769 0 00-.168 1.164c0 .898.179 1.597.536 2.098.358.5.863.75 1.516.75zm7.396 1.056c-.623 0-1.14-.183-1.554-.55-.414-.368-.62-.889-.62-1.563 0-.816.362-1.442 1.087-1.875.725-.434 1.883-.738 3.476-.912a3.43 3.43 0 00-.069-.689 1.724 1.724 0 00-.237-.597 1.247 1.247 0 00-.467-.42c-.2-.108-.452-.162-.758-.162-.43 0-.832.082-1.21.245a5.9 5.9 0 00-1.01.552l-.49-.873c.346-.225.77-.442 1.27-.651.5-.21 1.052-.314 1.654-.314.909 0 1.567.278 1.975.835.409.556.613 1.299.613 2.228v4.563h-1.041l-.108-.888h-.046c-.357.296-.74.548-1.148.758a2.847 2.847 0 01-1.317.313zm.368-1.01a2.12 2.12 0 001.01-.253 5.065 5.065 0 001.01-.742v-2.068c-.622.082-1.145.179-1.569.291-.423.113-.765.245-1.026.398-.26.154-.449.33-.566.529a1.252 1.252 0 00-.176.65c0 .43.127.735.383.92.255.183.566.275.934.275zm5.634.827v-7.442h1.256v7.442h-1.255zm.644-8.973a.888.888 0 01-.62-.23.752.752 0 01-.253-.582c0-.245.084-.441.253-.59a.906.906 0 01.62-.221c.245 0 .451.074.62.222a.746.746 0 01.253.59.752.752 0 01-.253.58.888.888 0 01-.62.23zm4.456 9.156c-.48 0-.822-.142-1.026-.428-.204-.286-.306-.705-.306-1.256v-9.402h1.255v9.494c0 .204.036.347.107.429a.32.32 0 00.245.122h.115a.65.65 0 00.16-.03l.17.949c-.082.04-.18.071-.292.092-.112.02-.255.03-.428.03zm2.695 3.018a2.71 2.71 0 01-.475-.04 1.901 1.901 0 01-.398-.114l.245-.995.276.069c.102.025.199.038.29.038.43 0 .779-.15 1.05-.452.27-.301.482-.681.635-1.14l.168-.552-2.986-7.457h1.302l1.516 4.119a147 147 0 00.36 1.034c.127.362.247.717.36 1.064h.06c.113-.337.22-.69.322-1.057.102-.367.204-.714.307-1.041l1.332-4.12h1.225l-2.802 8.055a8.49 8.49 0 01-.445 1.026 3.38 3.38 0 01-.581.82c-.225.23-.48.41-.766.543a2.34 2.34 0 01-.995.2zm12.035-3.018a4.01 4.01 0 01-1.516-.29 4.729 4.729 0 01-1.255-.735l.628-.843c.326.266.66.48 1.003.643.342.164.737.245 1.186.245.49 0 .858-.112 1.103-.336.245-.225.367-.5.367-.827a.847.847 0 00-.153-.506 1.523 1.523 0 00-.39-.375 2.86 2.86 0 00-.544-.283l-.612-.245a10.52 10.52 0 01-.797-.314 3.18 3.18 0 01-.712-.429 2.17 2.17 0 01-.513-.59 1.568 1.568 0 01-.199-.81c0-.297.059-.575.176-.835a1.93 1.93 0 01.506-.674c.22-.189.487-.337.804-.444a3.33 3.33 0 011.071-.16c.47 0 .901.08 1.294.244.393.163.733.363 1.019.597l-.598.797a4 4 0 00-.796-.475 2.2 2.2 0 00-.903-.184c-.47 0-.814.107-1.034.322-.22.214-.33.464-.33.75 0 .174.047.324.139.452.092.127.214.24.367.337.153.097.33.183.529.26.199.076.405.156.62.237.265.102.533.21.804.322.27.112.513.252.727.42.214.17.39.376.528.621s.207.541.207.888c0 .306-.059.592-.176.858-.118.265-.291.5-.52.704a2.49 2.49 0 01-.858.482 3.6 3.6 0 01-1.172.177zm6.187 0c-.623 0-1.141-.183-1.555-.55-.413-.368-.62-.889-.62-1.563 0-.816.363-1.442 1.087-1.875.725-.434 1.884-.738 3.476-.912a3.43 3.43 0 00-.069-.689 1.724 1.724 0 00-.237-.597 1.247 1.247 0 00-.467-.42c-.199-.108-.452-.162-.758-.162-.429 0-.832.082-1.21.245a5.9 5.9 0 00-1.01.552l-.49-.873c.347-.225.77-.442 1.27-.651.5-.21 1.052-.314 1.654-.314.909 0 1.567.278 1.976.835.408.556.612 1.299.612 2.228v4.563h-1.041l-.107-.888h-.046c-.357.296-.74.548-1.149.758a2.846 2.846 0 01-1.316.313zm.367-1.01a2.12 2.12 0 001.01-.253 5.065 5.065 0 001.011-.742v-2.068c-.622.082-1.146.179-1.57.291-.423.113-.765.245-1.025.398-.26.154-.45.33-.567.529a1.261 1.261 0 00-.176.65c0 .43.128.735.383.92.255.183.567.275.934.275zm6.967 1.01c-.48 0-.822-.142-1.026-.428-.204-.286-.306-.705-.306-1.256v-9.402h1.256v9.494c0 .204.035.347.107.429a.32.32 0 00.245.122h.115a.65.65 0 00.16-.03l.169.949c-.082.04-.179.071-.291.092-.112.02-.255.03-.429.03zm5.589 0c-.5 0-.967-.089-1.4-.267a3.32 3.32 0 01-1.134-.766 3.545 3.545 0 01-.758-1.217c-.184-.48-.275-1.026-.275-1.639 0-.612.094-1.161.283-1.646.189-.485.439-.896.75-1.233a3.255 3.255 0 011.064-.773 2.998 2.998 0 011.24-.268c.47 0 .891.082 1.264.245.373.163.684.398.934.704.25.307.441.674.574 1.103.133.429.2.909.2 1.44 0 .132-.003.262-.008.39a1.886 1.886 0 01-.039.33h-5.022c.05.795.298 1.426.742 1.89.445.465 1.024.697 1.738.697.358 0 .687-.054.988-.16a4.37 4.37 0 00.865-.422l.444.827a6.34 6.34 0 01-1.087.536c-.398.153-.852.23-1.363.23zm-2.343-4.501h3.982c0-.756-.161-1.33-.483-1.723-.321-.393-.773-.59-1.355-.59-.265 0-.518.051-.758.154-.24.102-.457.252-.65.451-.194.2-.355.442-.483.728a3.284 3.284 0 00-.252.98zm8.866 4.501a4 4 0 01-1.515-.29 4.729 4.729 0 01-1.256-.735l.628-.843c.326.266.66.48 1.003.643.342.164.737.245 1.186.245.49 0 .858-.112 1.103-.336.245-.225.367-.5.367-.827a.847.847 0 00-.153-.506 1.523 1.523 0 00-.39-.375 2.86 2.86 0 00-.544-.283l-.612-.245a10.52 10.52 0 01-.797-.314 3.18 3.18 0 01-.712-.429 2.17 2.17 0 01-.513-.59 1.568 1.568 0 01-.199-.81c0-.297.06-.575.176-.835a1.93 1.93 0 01.506-.674c.22-.189.487-.337.804-.444a3.33 3.33 0 011.072-.16c.47 0 .9.08 1.293.244.393.163.733.363 1.019.597l-.597.797a4 4 0 00-.797-.475 2.2 2.2 0 00-.903-.184c-.47 0-.814.107-1.034.322-.22.214-.329.464-.329.75 0 .174.046.324.138.452.092.127.214.24.367.337.153.097.33.183.529.26.199.076.405.156.62.237.265.102.533.21.804.322.27.112.513.252.727.42.214.17.39.376.528.621s.207.541.207.888c0 .306-.059.592-.176.858-.117.265-.291.5-.52.704a2.49 2.49 0 01-.858.482 3.6 3.6 0 01-1.172.177zm10.045 3.247a5.66 5.66 0 01-1.255-.13 3.054 3.054 0 01-.973-.39 1.94 1.94 0 01-.627-.629 1.626 1.626 0 01-.222-.857c0-.317.097-.618.29-.904.195-.285.46-.546.797-.78v-.062a1.457 1.457 0 01-.467-.467c-.128-.199-.192-.446-.192-.743 0-.316.087-.592.26-.826.174-.235.358-.419.552-.552v-.06a3.045 3.045 0 01-.666-.82 2.316 2.316 0 01-.299-1.187c0-.408.074-.776.222-1.102a2.49 2.49 0 01.605-.835c.255-.23.554-.406.896-.528a3.177 3.177 0 012.136 0h2.588v.965h-1.531c.173.173.319.393.436.658.117.265.176.556.176.873 0 .398-.071.758-.214 1.08a2.36 2.36 0 01-.582.81c-.245.22-.534.391-.865.514a3.048 3.048 0 01-1.065.184c-.183 0-.372-.023-.566-.07a2.813 2.813 0 01-.551-.19 1.795 1.795 0 00-.337.374.905.905 0 00-.138.513c0 .235.092.43.276.582.183.153.53.23 1.04.23h1.44c.868 0 1.519.14 1.953.421.433.28.65.733.65 1.355 0 .347-.086.677-.26.988a2.527 2.527 0 01-.75.82 3.935 3.935 0 01-1.187.558 5.514 5.514 0 01-1.57.207zm0-6.63a1.507 1.507 0 001.11-.475 1.59 1.59 0 00.345-.56c.082-.219.123-.466.123-.742 0-.551-.154-.977-.46-1.278a1.535 1.535 0 00-1.118-.452c-.439 0-.811.15-1.117.452-.307.3-.46.727-.46 1.278 0 .276.041.523.123.743a1.558 1.558 0 00.85.911c.188.082.39.122.604.122zm.184 5.757c.357 0 .682-.043.973-.13a2.7 2.7 0 00.742-.337c.204-.138.363-.299.475-.482.112-.184.168-.373.168-.567 0-.347-.127-.587-.382-.72-.256-.132-.628-.199-1.118-.199h-1.287c-.142 0-.298-.007-.467-.023a2.39 2.39 0 01-.497-.1c-.266.195-.46.399-.582.613a1.286 1.286 0 00-.184.643c0 .398.192.715.574.95.383.235.911.352 1.585.352zm7.917-2.374c-.46 0-.896-.086-1.31-.26a3.224 3.224 0 01-1.094-.758 3.69 3.69 0 01-.758-1.225c-.19-.485-.284-1.033-.284-1.646 0-.623.095-1.176.284-1.661a3.78 3.78 0 01.758-1.233 3.176 3.176 0 011.095-.766c.413-.173.85-.26 1.309-.26.46 0 .896.087 1.309.26.413.174.778.43 1.095.766.316.337.569.748.758 1.233.189.485.283 1.038.283 1.661 0 .613-.094 1.161-.283 1.646a3.69 3.69 0 01-.758 1.225 3.224 3.224 0 01-1.095.758 3.34 3.34 0 01-1.31.26zm0-1.04c.316 0 .607-.07.873-.207.265-.138.492-.332.681-.582.189-.25.334-.549.436-.896.102-.347.154-.735.154-1.164a4.2 4.2 0 00-.154-1.171 2.85 2.85 0 00-.436-.911 1.974 1.974 0 00-.681-.59 1.865 1.865 0 00-.873-.207c-.317 0-.608.07-.873.207a1.974 1.974 0 00-.681.59 2.85 2.85 0 00-.437.91 4.2 4.2 0 00-.153 1.172c0 .429.051.817.153 1.164.102.347.248.646.437.896.188.25.416.444.68.582.266.137.557.206.874.206zm7.121 1.04c-.624 0-1.142-.183-1.555-.55-.414-.368-.62-.889-.62-1.563 0-.816.362-1.442 1.087-1.875.725-.434 1.883-.738 3.476-.912a3.43 3.43 0 00-.07-.689 1.724 1.724 0 00-.236-.597 1.247 1.247 0 00-.467-.42c-.2-.108-.452-.162-.758-.162-.43 0-.832.082-1.21.245a5.9 5.9 0 00-1.01.552l-.49-.873c.346-.225.77-.442 1.27-.651.5-.21 1.052-.314 1.654-.314.908 0 1.567.278 1.975.835.409.556.613 1.299.613 2.228v4.563h-1.041l-.108-.888h-.046c-.357.296-.74.548-1.148.758a2.847 2.847 0 01-1.317.313zm.367-1.01a2.12 2.12 0 001.01-.253 5.065 5.065 0 001.01-.742v-2.068c-.622.082-1.145.179-1.569.291-.423.113-.765.245-1.026.398-.26.154-.449.33-.566.529a1.252 1.252 0 00-.176.65c0 .43.127.735.383.92.255.183.566.275.934.275zm6.967 1.01c-.48 0-.822-.142-1.026-.428-.204-.286-.306-.705-.306-1.256v-9.402h1.255v9.494c0 .204.036.347.107.429a.32.32 0 00.245.122h.115a.65.65 0 00.161-.03l.168.949c-.081.04-.178.071-.29.092-.113.02-.256.03-.43.03zm4.516 0c-.53 0-1.035-.096-1.515-.29a4.729 4.729 0 01-1.256-.735l.628-.843c.327.266.661.48 1.003.643.342.164.738.245 1.187.245.49 0 .857-.112 1.102-.336.245-.225.368-.5.368-.827a.847.847 0 00-.153-.506 1.523 1.523 0 00-.39-.375 2.86 2.86 0 00-.544-.283l-.613-.245c-.265-.092-.53-.197-.796-.314a3.18 3.18 0 01-.712-.429 2.17 2.17 0 01-.513-.59 1.568 1.568 0 01-.2-.81c0-.297.06-.575.177-.835.117-.26.286-.485.505-.674.22-.189.488-.337.804-.444a3.33 3.33 0 011.072-.16c.47 0 .9.08 1.294.244a4.04 4.04 0 011.018.597l-.597.797a4 4 0 00-.796-.475 2.2 2.2 0 00-.904-.184c-.47 0-.814.107-1.033.322-.22.214-.33.464-.33.75a.76.76 0 00.138.452c.092.127.215.24.368.337.153.097.33.183.528.26l.62.237c.266.102.534.21.804.322.27.112.513.252.728.42.214.17.39.376.528.621s.207.541.207.888a2.042 2.042 0 01-.697 1.562 2.49 2.49 0 01-.858.482 3.6 3.6 0 01-1.171.177z" fill="#5E5E5E" fill-rule="nonzero"/><path d="M27.83 10.938H15.92a4.983 4.983 0 00-4.982 4.982v11.91a4.983 4.983 0 004.982 4.983h11.91a4.983 4.983 0 004.983-4.983V15.92a4.983 4.983 0 00-4.983-4.982z" fill="#DFEDF5"/><path d="M27.83 10.938H15.92a4.983 4.983 0 00-4.982 4.982v11.91a4.983 4.983 0 004.982 4.983h11.91a4.983 4.983 0 004.983-4.983V15.92a4.983 4.983 0 00-4.983-4.982z" fill="#FFF"/><path d="M30.625 15.313h-.003c-4.169 0-9.84 3.877-9.84 8.66 0 0 5.72 1.593 9.843-8.66z" fill="#008CCF"/><path d="M19.166 21.875c.394-2.603 3.012-4.847 6.031-6.12.424-1.063.787-2.29 1.053-3.724l-.003.001c-4.404 1.094-9.407 5.736-8.675 9.843h1.594z" fill="#00ACE7"/><g transform="translate(12.031 21.875)"><mask id="b" fill="#fff"><use xlink:href="#a"/></mask><path d="M9.456 7.656H3.669C1.643 7.656 0 5.942 0 3.828S1.644 0 3.67 0h5.787c2.026 0 3.669 1.714 3.669 3.828s-1.643 3.828-3.67 3.828" fill="#008CCF" mask="url(#b)"/></g><path d="M20.781 29.531l2.188-.74v2.928z" fill="#008CCF"/><path d="M15.86 25.156a.547.547 0 100 1.094.547.547 0 000-1.094m3.28 0a.547.547 0 100 1.094.547.547 0 000-1.094m3.282 0a.547.547 0 100 1.094.547.547 0 000-1.094" fill="#FEFEFE"/><g fill-rule="nonzero"><path d="M14.219 118.125H335.78a8.75 8.75 0 01-8.75 8.75H22.97a8.75 8.75 0 01-8.75-8.75z" fill-opacity=".1" fill="#C6C6C6" style="mix-blend-mode:luminosity"/><path d="M14.219 118.125H335.78a8.75 8.75 0 01-8.75 8.75H22.97a8.75 8.75 0 01-8.75-8.75z" fill-opacity=".4" fill="#FFF"/><path d="M14.219 118.125H335.78a8.75 8.75 0 01-8.75 8.75H22.97a8.75 8.75 0 01-8.75-8.75z" fill-opacity=".4" fill="#000" style="mix-blend-mode:soft-light"/></g><g fill-rule="nonzero"><path d="M27.344 126.875h295.312a8.75 8.75 0 01-8.75 8.75H36.094a8.75 8.75 0 01-8.75-8.75z" fill-opacity=".1" fill="#C6C6C6" style="mix-blend-mode:luminosity"/><path d="M27.344 126.875h295.312a8.75 8.75 0 01-8.75 8.75H36.094a8.75 8.75 0 01-8.75-8.75z" fill-opacity=".25" fill="#FFF"/><path d="M27.344 126.875h295.312a8.75 8.75 0 01-8.75 8.75H36.094a8.75 8.75 0 01-8.75-8.75z" fill-opacity=".3" fill="#000" style="mix-blend-mode:soft-light"/></g></g></svg>