<?xml version="1.0" encoding="utf-8"?>
<!-- Generator: Adobe Illustrator 22.1.0, SVG Export Plug-In . SVG Version: 6.00 Build 0)  -->
<svg version="1.1" id="Слой_1" xmlns="http://www.w3.org/2000/svg" xmlns:xlink="http://www.w3.org/1999/xlink" x="0px" y="0px"
	 width="207px" height="314px" viewBox="0 0 207 314" style="enable-background:new 0 0 207 314;" xml:space="preserve">
<style type="text/css">
	.st0{fill:#BCBEC0;fill-opacity:0.424;}
</style>
<g id="Page-1">
	<g id="Home-Page" transform="translate(-1305 -957)">
		<g id="back1" transform="translate(965 899)">
			<g id="part" transform="translate(340 58)">
				<path id="Fill-1" class="st0" d="M33,49.1c-9.1,0-16.5-7.3-16.5-16.4c0-9,7.4-16.4,16.5-16.4c9.1,0,16.5,7.3,16.5,16.4
					C49.4,41.7,42,49.1,33,49.1z M127.9,73.6L94.3,24.5H64.7C61,10.5,48.3,0,33,0C14.8,0,0,14.7,0,32.7c0,18,14.8,32.7,33,32.7
					C48.3,65.5,61,55,64.7,40.9h20.8L119.2,90H369V73.6H127.9z"/>
				<path id="Fill-4" class="st0" d="M90.9,297.5c-9.1,0-16.5-7.4-16.5-16.5c0-9.1,7.4-16.5,16.5-16.5s16.5,7.4,16.5,16.5
					C107.4,290,100,297.5,90.9,297.5z M103,250.2c-3.7-1.5-7.8-2.4-12-2.4c-18.2,0-32.9,14.8-32.9,33.1c0,18.2,14.8,33.1,32.9,33.1
					c18.1,0,32.9-14.8,32.9-33.1c0-8-2.9-15.2-7.6-20.9l36-53.5H369V190H143.5L103,250.2L103,250.2z"/>
				<path id="Fill-7" class="st0" d="M33,158.5c-9.1,0-16.5-7.4-16.5-16.5c0-9.1,7.4-16.5,16.5-16.5c9.1,0,16.5,7.4,16.5,16.5
					C49.5,151.1,42.1,158.5,33,158.5z M99,150.3v-16.5H64.8C61.1,119.6,48.3,109,33,109c-18.2,0-33,14.8-33,33c0,18.2,14.8,33,33,33
					c15.3,0,28.1-10.6,31.8-24.8L99,150.3L99,150.3z"/>
				<path id="Fill-9" class="st0" d="M148,149h221v-15H148V149z"/>
				<path id="Fill-11" class="st0" d="M116,149h15v-15h-15V149z"/>
			</g>
		</g>
	</g>
</g>
</svg>
