<svg width="47" height="49" xmlns="http://www.w3.org/2000/svg"><g id="Page-1" stroke="none" stroke-width="1" fill="none" fill-rule="evenodd" stroke-linecap="round" stroke-linejoin="round"><g id="About-Us" transform="translate(-793 -1443)" stroke="#183861" stroke-width="2"><g id="Group-13" transform="translate(794 1444)"><path d="M19.726 40.5C16.888 42.499 14.334 43.914 14 44c-.79-.203-14-7.844-14-13.047v-14.58c3.95 0 12.618-3.49 14-5.373 1.382 1.882 10.05 5.372 14 5.372v7.995" id="Stroke-1"/><path d="M8 18.779c2.613-.792 5.287-1.995 5.91-2.779.996 1.254 7.243 3.581 10.09 3.581V27" id="Stroke-3"/><path d="M18 36.22c-2.157 1.565-4.248 2.717-4.498 2.78C12.966 38.864 4 33.744 4 30.257V23" id="Stroke-5"/><path id="Stroke-7" d="M34 14v-4h4L31 0l-7 10h4v2"/><path id="Stroke-9" d="M41 37V26h4l-7-10-7 10h4v5"/><path id="Stroke-11" d="M24.25 47v-9H21l6.5-9 6.5 9h-3.25v4"/></g></g></g></svg>