<svg width="46" height="48" xmlns="http://www.w3.org/2000/svg"><g id="Page-1" stroke="none" stroke-width="1" fill="none" fill-rule="evenodd" stroke-linecap="round"><g id="Capabilities-&amp;-Services" transform="translate(-441 -725)" stroke="#173861" stroke-width="2"><g id="Group-54" transform="translate(442 725)"><path id="Stroke-1" d="M33 15h-4l-4 6h-3"/><path id="Stroke-2" d="M33 26H18"/><g id="Group-53"><path d="M33 15a3 3 0 106 0 3 3 0 00-6 0z" id="Stroke-3"/><path id="Stroke-5" d="M33 37h-3.917l-3.959-6H18"/><path d="M33 37a3 3 0 116 0 3 3 0 01-6 0z" id="Stroke-7"/><path d="M33 26a3 3 0 106 0 3 3 0 00-6 0z" id="Stroke-9"/><path id="Stroke-11" d="M25 10l-5 6h-7"/><path d="M24 8a3 3 0 106 0 3 3 0 00-6 0z" id="Stroke-13"/><path id="Stroke-15" d="M25 42l-5-6h-6"/><path d="M24 44a3 3 0 116 0 3 3 0 01-6 0z" id="Stroke-17"/><path id="Stroke-19" d="M12 26h6"/><path id="Stroke-21" d="M18 31H0"/><path id="Stroke-23" d="M6 26H4"/><path id="Stroke-25" d="M10 26H8"/><path id="Stroke-27" d="M11 16H9"/><path id="Stroke-29" d="M12 36h-2"/><path id="Stroke-31" d="M18 21h2"/><path d="M32 1h8a4 4 0 014 4v15" id="Stroke-33"/><path id="Stroke-35" d="M44 23v2"/><path id="Stroke-37" d="M44 27v2"/><path id="Stroke-39" d="M1 39v-3h7"/><path d="M21 47H5a4 4 0 01-4-4v-2" id="Stroke-41"/><path d="M44 31v12a4 4 0 01-4 4h-7" id="Stroke-43"/><path id="Stroke-45" d="M1 28v-7h15"/><path d="M7 16H1V5a4 4 0 014-4h17" id="Stroke-47"/><path id="Stroke-49" d="M24 1h2"/><path id="Stroke-51" d="M28 1h2"/></g></g></g></g></svg>