<svg width="63" height="60" xmlns="http://www.w3.org/2000/svg"><g id="Page-1" stroke="none" stroke-width="1" fill="none" fill-rule="evenodd"><g id="Home-Page" transform="translate(-929 -3330)" stroke="#173861" stroke-width="3"><g id="Financial" transform="translate(931 3332)"><path d="M20 41.556C20 42.77 21.07 44 22.359 44h2.308C25.955 44 27 42.77 27 41.556v-.37c0-.947-.63-1.788-1.583-2.087L21.602 37.9C20.649 37.601 20 36.76 20 35.813v-.37C20 34.23 21.045 33 22.333 33h2.334C25.955 33 27 34.23 27 35.444v1.223" id="Stroke-1"/><path id="Stroke-3" d="M23 34v-4"/><path id="Stroke-5" d="M23 45v4"/><path d="M36 38c0 6.627-5.82 12-13 12s-13-5.373-13-12 5.82-12 13-12 13 5.373 13 12z" id="Stroke-7"/><path id="Stroke-9" stroke-linecap="round" stroke-linejoin="round" d="M33 48l8 8"/><path d="M7 19.5a3.5 3.5 0 11-7 0 3.5 3.5 0 017 0z" id="Stroke-11"/><path d="M24 6.5a3.5 3.5 0 11-7 0 3.5 3.5 0 017 0z" id="Stroke-13"/><path d="M44 16.5a3.5 3.5 0 11-7 0 3.5 3.5 0 017 0z" id="Stroke-15"/><path d="M59 3.5a3.5 3.5 0 11-7 0 3.5 3.5 0 017 0z" id="Stroke-17"/><path id="Stroke-19" d="M9 17l9-8"/><path id="Stroke-21" d="M24 8l12 7"/><path id="Stroke-23" d="M43 15l9-8"/><path id="Stroke-25" stroke-linecap="round" d="M4 28v17"/><path id="Stroke-27" stroke-linecap="round" d="M9 24v4"/><path id="Stroke-29" stroke-linecap="round" d="M17 17v7"/><path id="Stroke-31" stroke-linecap="round" d="M23 16v6"/><path id="Stroke-33" stroke-linecap="round" d="M30 20v3"/><path id="Stroke-35" stroke-linecap="round" d="M36 24v4"/><path id="Stroke-37" stroke-linecap="round" d="M42 25v20"/><path id="Stroke-39" stroke-linecap="round" d="M50 19v25"/><path id="Stroke-41" stroke-linecap="round" d="M55 14v31"/></g></g></g></svg>