<svg width="168" height="52" xmlns="http://www.w3.org/2000/svg" xmlns:xlink="http://www.w3.org/1999/xlink"><defs><path id="path-1" d="M0 .22h26.924v22.663H0z"/><path id="path-3" d="M0 52h168V0H0z"/></defs><g id="Page-1" stroke="none" stroke-width="1" fill="none" fill-rule="evenodd"><g id="Contact-Us" transform="translate(-306 -1279)"><g id="Logo-Copy" transform="translate(306 1279)"><path d="M43.64 41.86c.132 0 .245.05.34.15l.948 1.01a5.199 5.199 0 01-1.936 1.47c-.766.34-1.686.51-2.759.51-.96 0-1.823-.161-2.589-.484a5.697 5.697 0 01-1.963-1.346 5.875 5.875 0 01-1.247-2.057c-.29-.798-.434-1.669-.434-2.613 0-.956.161-1.83.483-2.626a6.006 6.006 0 011.36-2.053 6.162 6.162 0 012.097-1.342c.813-.32 1.712-.479 2.696-.479.96 0 1.799.151 2.517.453a5.904 5.904 0 011.847 1.2l-.805 1.1a.718.718 0 01-.184.185.526.526 0 01-.308.079.71.71 0 01-.42-.158 4.494 4.494 0 00-1.382-.686c-.337-.106-.765-.159-1.283-.159-.608 0-1.168.104-1.677.312-.51.209-.948.506-1.315.893a4.097 4.097 0 00-.858 1.412c-.206.554-.309 1.177-.309 1.869 0 .715.103 1.352.309 1.909.205.557.484 1.026.836 1.407s.766.673 1.243.875c.477.203.99.304 1.538.304.328 0 .625-.018.89-.053s.51-.09.733-.167a3.25 3.25 0 00.635-.295c.2-.12.398-.268.595-.444a.863.863 0 01.188-.128.484.484 0 01.215-.048" id="Fill-1" fill="#BCBEC0"/><path d="M53.226 39.947V45h-2.442v-5.053L46 32h2.151c.212 0 .38.05.504.153a1.3 1.3 0 01.313.386l2.406 4.343a10.96 10.96 0 01.644 1.411 8.766 8.766 0 01.626-1.411l2.388-4.343c.067-.131.166-.254.3-.368A.754.754 0 0155.84 32H58l-4.774 7.947z" id="Fill-3" fill="#BCBEC0"/><path d="M61.51 39.3v3.812h2.546c.466 0 .857-.054 1.17-.162.315-.108.567-.251.756-.432.19-.18.327-.389.41-.629a2.3 2.3 0 00.127-.764c0-.281-.047-.535-.14-.76a1.427 1.427 0 00-.439-.575 2.08 2.08 0 00-.765-.364 4.39 4.39 0 00-1.128-.126h-2.538zm0-1.672h2.005c.852 0 1.499-.15 1.94-.45.442-.3.662-.775.662-1.43 0-.676-.199-1.159-.597-1.446-.398-.288-1.02-.432-1.865-.432h-2.146v3.758zM59 45V32h4.655c.883 0 1.637.08 2.262.243.625.161 1.138.392 1.539.692.401.3.695.662.882 1.088.186.426.28.905.28 1.438 0 .306-.047.598-.14.877a2.52 2.52 0 01-.434.782 3.21 3.21 0 01-.746.66 4.592 4.592 0 01-1.078.504c1.853.402 2.78 1.367 2.78 2.895 0 .552-.109 1.06-.327 1.529-.218.467-.535.87-.951 1.209-.417.338-.93.604-1.539.795-.61.192-1.306.288-2.09.288H59z" id="Fill-5" fill="#BCBEC0"/><path id="Fill-7" fill="#BCBEC0" d="M79 32v1.924h-5.623v3.605h4.43v1.861h-4.43v3.677H79V45h-8V32z"/><path d="M83.383 38.185h1.488c.449 0 .84-.056 1.173-.17a2.26 2.26 0 00.824-.472c.216-.201.376-.44.483-.715a2.51 2.51 0 00.16-.908c0-.66-.215-1.166-.643-1.52-.428-.353-1.082-.53-1.962-.53h-1.523v4.315zm0 1.735V45H81V32h3.906c.874 0 1.622.092 2.245.274.624.183 1.134.44 1.533.769.399.33.69.724.877 1.182.186.459.279.964.279 1.515 0 .437-.064.851-.19 1.24a3.603 3.603 0 01-1.436 1.898c-.35.24-.751.431-1.2.575.301.174.561.422.78.746L91 45h-2.143a1.03 1.03 0 01-.527-.126 1.079 1.079 0 01-.368-.36l-2.693-4.162a.948.948 0 00-.332-.333c-.121-.065-.3-.099-.536-.099h-1.018z" id="Fill-9" fill="#BCBEC0"/><path d="M102.018 43.118c.569 0 1.065-.049 1.487-.145a6.54 6.54 0 001.206-.4v-2.314h-1.698a.552.552 0 01-.385-.127.406.406 0 01-.141-.313v-1.337H107v5.146a7.13 7.13 0 01-2.266 1.038 9.67 9.67 0 01-1.356.25c-.481.056-1 .084-1.557.084-.988 0-1.899-.161-2.73-.484a6.522 6.522 0 01-2.158-1.346 6.094 6.094 0 01-1.422-2.058C95.17 40.315 95 39.444 95 38.5c0-.956.165-1.832.497-2.63a5.912 5.912 0 011.412-2.058c.61-.575 1.35-1.02 2.22-1.337.868-.317 1.844-.475 2.926-.475 1.108 0 2.066.154 2.876.462.81.308 1.497.707 2.06 1.2l-.732 1.073c-.144.217-.335.326-.572.326a.89.89 0 01-.46-.14c-.2-.112-.405-.224-.615-.335a4.358 4.358 0 00-.694-.29 5.983 5.983 0 00-.854-.203 6.707 6.707 0 00-1.093-.079 4.96 4.96 0 00-1.816.317 3.845 3.845 0 00-1.383.906 4.036 4.036 0 00-.882 1.416 5.233 5.233 0 00-.31 1.847c0 .733.11 1.385.329 1.957a4.06 4.06 0 00.919 1.447 3.98 3.98 0 001.407.901 4.945 4.945 0 001.783.313" id="Fill-11" fill="#BCBEC0"/><path d="M112.383 38.185h1.488c.449 0 .84-.056 1.173-.17a2.26 2.26 0 00.824-.472c.216-.201.376-.44.483-.715a2.51 2.51 0 00.16-.908c0-.66-.215-1.166-.643-1.52-.428-.353-1.082-.53-1.962-.53h-1.523v4.315zm0 1.735V45H110V32h3.906c.874 0 1.622.092 2.245.274.624.183 1.134.44 1.533.769.399.33.69.724.877 1.182.186.459.279.964.279 1.515 0 .437-.064.851-.19 1.24a3.603 3.603 0 01-1.436 1.898c-.35.24-.751.431-1.2.575.301.174.561.422.78.746L120 45h-2.143a1.03 1.03 0 01-.527-.126 1.079 1.079 0 01-.368-.36l-2.693-4.162a.948.948 0 00-.332-.333c-.121-.065-.3-.099-.536-.099h-1.018z" id="Fill-13" fill="#BCBEC0"/><path d="M131.552 38.5c0-.698-.092-1.324-.279-1.878a3.957 3.957 0 00-.802-1.412 3.46 3.46 0 00-1.273-.888c-.5-.205-1.063-.308-1.69-.308-.626 0-1.19.103-1.693.308-.502.205-.93.501-1.281.888a3.984 3.984 0 00-.812 1.412c-.189.554-.283 1.18-.283 1.878s.094 1.324.283 1.878c.19.554.46 1.023.812 1.407.351.384.779.679 1.281.884a4.442 4.442 0 001.694.308c.626 0 1.19-.103 1.69-.308.499-.205.923-.5 1.272-.884.348-.384.616-.853.802-1.407.187-.554.28-1.18.28-1.878m2.447 0c0 .932-.157 1.796-.47 2.59a6.128 6.128 0 01-1.321 2.063 5.99 5.99 0 01-2.049 1.359c-.798.325-1.682.488-2.651.488-.97 0-1.855-.163-2.656-.488a6.025 6.025 0 01-2.057-1.36 6.094 6.094 0 01-1.326-2.062 6.999 6.999 0 01-.47-2.59 7 7 0 01.47-2.59 6.097 6.097 0 011.326-2.063 6.02 6.02 0 012.057-1.359c.801-.325 1.687-.488 2.656-.488.97 0 1.853.164 2.651.492a6.085 6.085 0 012.049 1.36 6.084 6.084 0 011.32 2.058A7 7 0 01134 38.5" id="Fill-15" fill="#BCBEC0"/><path d="M140.495 42.928a3.35 3.35 0 001.28-.231 2.67 2.67 0 00.955-.65c.26-.278.458-.616.596-1.013.138-.397.206-.842.206-1.333V32H146v7.7a5.79 5.79 0 01-.38 2.121 4.76 4.76 0 01-1.097 1.68 5.013 5.013 0 01-1.734 1.103c-.679.264-1.443.396-2.294.396-.85 0-1.614-.132-2.293-.396a4.969 4.969 0 01-1.73-1.102 4.798 4.798 0 01-1.09-1.681 5.761 5.761 0 01-.382-2.12V32h2.468v7.691c0 .493.069.937.206 1.334.138.397.335.737.592 1.018.257.282.574.5.95.654a3.35 3.35 0 001.28.231" id="Fill-17" fill="#BCBEC0"/><path d="M151.346 38.536h1.761c.43 0 .806-.056 1.125-.166.32-.111.585-.27.794-.477.21-.206.366-.458.471-.755a2.99 2.99 0 00.157-.993c0-.348-.053-.663-.157-.944a1.868 1.868 0 00-.471-.72 2.072 2.072 0 00-.794-.453 3.616 3.616 0 00-1.125-.158h-1.761v4.666zm0 1.888V45H149V32h4.107c.843 0 1.573.102 2.19.305.615.205 1.125.49 1.525.855.402.365.698.803.89 1.312a4.71 4.71 0 01.288 1.673c0 .63-.102 1.206-.305 1.73a3.595 3.595 0 01-.916 1.353c-.407.378-.916.672-1.526.881-.61.21-1.326.315-2.146.315h-1.761z" id="Fill-19" fill="#BCBEC0"/><g id="Group-23" transform="translate(0 1)"><mask id="mask-2" fill="#fff"><use xlink:href="#path-1"/></mask><path d="M13.398 10.127l-3.294 12.302c-.064.227-.352.454-.576.454H6.842c-.256 0-.512-.195-.575-.421L.03 1.03C-.097.577.19.22.606.22h3.006c.32 0 .512.227.64.713L8.185 14.66 11.96.674c.064-.227.32-.453.576-.453h1.854c.256 0 .512.226.576.453l3.838 13.953L22.64.9c.128-.453.32-.68.64-.68h3.037c.416 0 .704.357.576.81l-6.3 21.432c-.064.226-.32.42-.575.42H17.33c-.256 0-.511-.226-.575-.453l-3.358-12.302z" id="Fill-21" fill="#FFF" mask="url(#mask-2)"/></g><path d="M30.254 14.645h6.818c-.455-1.45-1.591-2.699-3.345-2.699-1.785 0-2.987 1.181-3.473 2.7zm.032 3.744c.584 1.585 1.915 2.665 3.506 2.665 1.169 0 2.305-.439 3.052-1.147a.662.662 0 01.844.034l1.85 1.82a.607.607 0 010 .844C38.11 24.157 36.099 25 33.793 25c-2.142 0-4.026-.843-5.422-2.328-1.493-1.55-2.37-3.81-2.37-6.24C26 11.779 29.507 8 33.825 8c1.98 0 3.734.81 5.032 2.159C39.961 11.239 41 12.925 41 16.095c0 .574-.032 1.113-.098 1.755a.603.603 0 01-.584.539H30.286z" id="Fill-24" fill="#FFF"/><path d="M44 .576c0-.32.31-.576.655-.576h2.69c.379 0 .655.256.655.576v22.816c0 .352-.276.608-.655.608h-2.69c-.345 0-.655-.256-.655-.608V.576z" id="Fill-26" fill="#FFF"/><path d="M52 .576c0-.32.31-.576.655-.576h2.69c.379 0 .655.256.655.576v22.816c0 .352-.276.608-.655.608h-2.69c-.345 0-.655-.256-.655-.608V.576z" id="Fill-28" fill="#FFF"/><path d="M70 20.133c0 1.2-.42 2.467-1.388 3.367-1.128 1.1-2.193 1.5-4 1.5-1.71 0-3.807-.967-5.42-2.333-.226-.2-.258-.567-.065-.834l1.484-2.166c.194-.267.549-.3.84-.1.967.733 2.096 1.7 3.42 1.7.644 0 1.29-.4 1.29-1.2 0-.534-1.097-1.4-2.098-2.1a15.868 15.868 0 01-2.516-2.134c-1.065-1.1-1.614-2.1-1.614-3.566 0-2.7 2.42-4.267 4.872-4.267 1.291 0 2.614.367 3.807 1.033.259.167.356.534.227.834l-1.065 2.266c-.13.3-.452.467-.743.334-.935-.467-1.548-.734-2.16-.734-.485 0-1.034.267-1.034.634 0 .4.13.733.517 1.033.516.433 1.032.8 2.226 1.7 1.517 1.134 3.387 2.567 3.42 5.033" id="Fill-30" fill="#FFF"/><path d="M100.754 1c.26 0 .554.263.652.788l3.584 21.49c.065.426-.196.722-.62.722h-3.062c-.293 0-.587-.263-.62-.526L98.572 10.43l-5.474 12.814c-.229.559-.489.756-.848.756h-1.661c-.392 0-.652-.197-.815-.624l-5.442-12.88-2.085 12.978c-.033.263-.326.526-.62.526H78.63c-.423 0-.684-.296-.62-.723l3.585-21.522c.098-.492.391-.755.652-.755h2.313c.228 0 .457.197.652.624L91.5 16.74l6.256-15.082c.196-.46.457-.657.684-.657h2.314z" id="Fill-32" fill="#FFF"/><path d="M114.05 20.919c2.332 0 4.008-2.024 4.008-4.42 0-2.394-1.676-4.418-4.009-4.418-2.168 0-4.074 2.024-4.074 4.419 0 2.395 1.906 4.419 4.074 4.419zm4.139 2.36c-1.183.911-2.793 1.721-4.337 1.721-4.566 0-7.852-3.643-7.852-8.5 0-4.655 3.581-8.5 7.918-8.5 1.511 0 3.088.81 4.27 1.72V8.708c0-.37.297-.64.625-.64h2.563c.361 0 .624.27.624.64v15.584c0 .37-.263.64-.624.64h-2.563a.633.633 0 01-.624-.64V23.28z" id="Fill-34" fill="#FFF"/><path d="M135 20.133c0 1.2-.42 2.467-1.388 3.367-1.129 1.1-2.193 1.5-4 1.5-1.71 0-3.807-.967-5.42-2.333-.226-.2-.258-.567-.065-.834l1.484-2.166c.194-.267.549-.3.84-.1.967.733 2.096 1.7 3.42 1.7.644 0 1.29-.4 1.29-1.2 0-.534-1.097-1.4-2.098-2.1a15.868 15.868 0 01-2.516-2.134c-1.065-1.1-1.614-2.1-1.614-3.566 0-2.7 2.42-4.267 4.872-4.267 1.291 0 2.614.367 3.807 1.033.259.167.356.534.227.834l-1.065 2.266c-.13.3-.452.467-.743.334-.935-.467-1.548-.734-2.16-.734-.485 0-1.034.267-1.034.634 0 .4.13.733.517 1.033.516.433 1.032.8 2.226 1.7 1.517 1.134 3.387 2.567 3.42 5.033" id="Fill-36" fill="#FFF"/><path d="M144 21.02c2.324 0 4.016-2.024 4.016-4.52 0-2.496-1.692-4.52-4.016-4.52-2.29 0-3.983 2.024-3.983 4.52 0 2.496 1.693 4.52 3.983 4.52M144.033 8c4.481 0 7.967 3.744 7.967 8.5s-3.519 8.5-8 8.5-8-3.744-8-8.5 3.552-8.5 8.033-8.5" id="Fill-38" fill="#FFF"/><path d="M158.59 24.356c0 .373-.247.644-.588.644h-2.414c-.31 0-.588-.271-.588-.644V8.711c0-.372.279-.643.588-.643h2.414c.341 0 .588.27.588.643v1.253C159.798 8.88 161.47 8 162.986 8c2.91 0 5.014 2.404 5.014 5.621v10.735c0 .373-.248.644-.588.644h-2.414c-.31 0-.588-.271-.588-.644v-9.448c0-1.829-.836-2.912-2.26-2.912-1.826 0-3.498 1.625-3.498 3.657l-.062 8.703z" id="Fill-40" fill="#FFF"/><path d="M26.6 41.118c0 3.403-7.243 8.032-8.92 8.44V28.41l5.597-.018c.458 1.229 1.697 2.812 3.323 3.377v9.348zm.474-10.672c-1.16-.407-2.129-1.59-2.486-2.55a1.39 1.39 0 00-1.3-.896H11.712c-.577 0-1.1.36-1.3.897-.357.96-1.325 2.142-2.485 2.548A1.398 1.398 0 007 31.77v9.348c0 2.537 2.536 5.045 4.664 6.702C13.63 49.35 16.418 51 17.5 51c1.082 0 3.871-1.65 5.836-3.18C25.464 46.163 28 43.655 28 41.118V31.77c0-.599-.372-1.131-.926-1.324z" id="Fill-42" fill="#173861"/><path id="Fill-44" fill="#BCBEC0" d="M18 30.048V50l1.788-.569 2.231-1.586 2.46-2.087 2.105-2.709.416-6.572v-2.75l-.414-1.313-1.306-.811-1.34-1.945-.556-.658-5.384.076z"/><path d="M12.042 29.526c-.164 0-.31.1-.365.247-.4 1.081-1.48 2.474-2.903 2.977a.394.394 0 00-.256.376v8.887c0 3.742 7.73 8.46 8.982 8.46 1.252 0 8.982-4.718 8.982-8.46v-8.887a.395.395 0 00-.256-.377c-1.424-.502-2.503-1.895-2.903-2.976a.387.387 0 00-.365-.247H12.042zM17.5 51C16.156 51 8 46.12 8 42.013v-8.887a.92.92 0 01.604-.873c1.21-.427 2.218-1.664 2.588-2.665a.907.907 0 01.85-.588h10.916c.379 0 .72.236.85.588.37 1.001 1.378 2.238 2.588 2.664a.922.922 0 01.604.874v8.887C27 46.12 18.843 51 17.5 51z" id="Fill-46" fill="#FFF"/><path id="Fill-48" fill="#BCBEC0" d="M26 37H14.85l-1.501-2.25H11V34h2.738l1.502 2.25H26z"/><path d="M13 34a1 1 0 11-2 0 1 1 0 012 0" id="Fill-50" fill="#173861"/><path d="M11.5 32.75a.75.75 0 10.001 1.501.75.75 0 00-.001-1.5m0 2.249c-.827 0-1.5-.673-1.5-1.5s.673-1.5 1.5-1.5 1.5.673 1.5 1.5-.673 1.5-1.5 1.5" id="Fill-52" fill="#BCBEC0"/><path id="Fill-54" fill="#BCBEC0" d="M13.626 45L13 44.613 15.66 41H26v.692h-9.94z"/><path d="M15 45a1 1 0 10-2 0 1 1 0 002 0" id="Fill-56" fill="#173861"/><path d="M13.5 43.75a.75.75 0 10.001 1.501.75.75 0 00-.001-1.501m0 2.25c-.827 0-1.5-.673-1.5-1.5s.673-1.5 1.5-1.5 1.5.673 1.5 1.5-.673 1.5-1.5 1.5" id="Fill-58" fill="#BCBEC0"/><mask id="mask-4" fill="#fff"><use xlink:href="#path-3"/></mask><path id="Fill-60" fill="#BCBEC0" mask="url(#mask-4)" d="M11 39h3v-1h-3z"/><path d="M13 39a1 1 0 11-2 0 1 1 0 012 0" id="Fill-62" fill="#173861" mask="url(#mask-4)"/><path d="M11.5 37.75a.75.75 0 10.001 1.501.75.75 0 00-.001-1.5m0 2.249c-.827 0-1.5-.673-1.5-1.5s.673-1.5 1.5-1.5 1.5.673 1.5 1.5-.673 1.5-1.5 1.5" id="Fill-63" fill="#BCBEC0" mask="url(#mask-4)"/><path id="Fill-64" fill="#BCBEC0" mask="url(#mask-4)" d="M16 39h10v-1H16z"/><path id="Fill-65" fill="#BCBEC0" mask="url(#mask-4)" d="M15 39h1v-1h-1z"/><path id="Fill-66" fill="#173861" mask="url(#mask-4)" d="M18 36h5v-1h-5z"/><path id="Fill-67" fill="#173861" mask="url(#mask-4)" d="M24 36h2v-1h-2z"/><path id="Fill-68" fill="#173861" mask="url(#mask-4)" d="M18 39h9v-1h-9z"/><path id="Fill-69" fill="#173861" mask="url(#mask-4)" d="M20 42h6v-1h-6z"/><path id="Fill-70" fill="#173861" mask="url(#mask-4)" d="M18 42h2v-1h-2z"/></g></g></g></svg>