<svg width="60" height="60" xmlns="http://www.w3.org/2000/svg"><g id="Page-1" stroke="none" stroke-width="1" fill="none" fill-rule="evenodd"><g id="Home-Page" transform="translate(-684 -3330)" stroke="#173861" stroke-width="3"><g id="Healthcare" transform="translate(686 3332)"><path d="M32 3.5a3.5 3.5 0 11-7 0 3.5 3.5 0 017 0z" id="Stroke-1"/><path id="Stroke-3" stroke-linecap="round" d="M28.5 24V7"/><path d="M32 10.457C35.15 9.844 35.85 5 39.35 5c3.5 0 9.45 8.144 16.65 4.942-1.2 3.202-2.4 7.871-8.4 6.4-1.95 2.39-5.924 2.024-7.2 0" id="Stroke-5" stroke-linecap="round" stroke-linejoin="round"/><path d="M24 10.457C20.85 9.844 20.15 5 16.65 5 13.15 5 7.2 13.144 0 9.942c1.2 3.202 2.4 7.871 8.4 6.4 1.95 2.39 5.924 2.024 7.2 0" id="Stroke-7" stroke-linecap="round" stroke-linejoin="round"/><path d="M23.756 17.635A3.66 3.66 0 0021.692 17C19.652 17 18 18.666 18 20.72c0 4.962 6.154 6.202 9.846 7.442 3.692 1.24 6.154 3.72 6.154 7.441 0 2.48-1.692 5.426-4.103 7.397" id="Stroke-9" stroke-linecap="round" stroke-linejoin="round"/><path d="M24.025 30C22.745 31.294 22 32.97 22 35.025c0 6.658 9 9.216 9 16.182 0 1.22-.759 3.56-1.16 4.793" id="Stroke-11" stroke-linecap="round" stroke-linejoin="round"/><path d="M25.818 48c-1.625 3.56-.321 5.878.156 8" id="Stroke-13" stroke-linecap="round" stroke-linejoin="round"/><path d="M32 17.593A4.136 4.136 0 0134.152 17C36.277 17 38 18.555 38 20.474c0 2.956-2.613 4.497-5.504 5.526" id="Stroke-15" stroke-linecap="round" stroke-linejoin="round"/><path id="Stroke-17" stroke-linecap="round" d="M28.5 32v7"/></g></g></g></svg>