<svg width="48" height="49" xmlns="http://www.w3.org/2000/svg"><g id="Page-1" stroke="none" stroke-width="1" fill="none" fill-rule="evenodd"><g id="About-Us" transform="translate(-504 -1443)" stroke="#173861" stroke-width="2"><g id="Icc" transform="translate(505 1444)"><g id="Group-5"><path id="Stroke-1" d="M13.496 39.592H.885V.496h44.623v39.096h-12.61"/><path id="Stroke-3" d="M.885 6.361h44.624"/></g><path id="Stroke-6" d="M4 4h2"/><path id="Stroke-7" d="M8 4h2"/><path id="Stroke-8" d="M12 4h2"/><g id="Group-18" transform="translate(5 11)"><path d="M24.328 35.111h-12.04a1.778 1.778 0 01-1.778-1.777V25.19c0-.98.796-1.777 1.777-1.777h12.041c.982 0 1.778.796 1.778 1.777v8.143c0 .981-.796 1.777-1.778 1.777z" id="Stroke-9"/><path d="M13.434 18.54a4.875 4.875 0 014.875-4.874 4.875 4.875 0 014.873 4.874v4.875h-9.748V18.54z" id="Stroke-11"/><path id="Stroke-13" d="M.762 10.743h9.747V.996H.762z"/><path id="Stroke-15" d="M15.384 4.894h20.469"/><path id="Stroke-16" d="M15.384.995h20.469"/><path id="Stroke-17" d="M15.384 8.793H29.03"/></g></g></g></g></svg>