<svg width="60" height="60" xmlns="http://www.w3.org/2000/svg"><g id="Page-1" stroke="none" stroke-width="1" fill="none" fill-rule="evenodd" stroke-linecap="round" stroke-linejoin="round"><g id="Home-Page" transform="translate(-1427 -3329)" stroke="#173861" stroke-width="3"><g id="infrastructure" transform="translate(1429 3331)"><path id="Stroke-1" d="M19 7l9 7"/><path id="Stroke-2" d="M19 39.2L29 32l10 7.2v9.6L29 56l-10-7.2z"/><path id="Stroke-4" d="M15 31l6 5"/><path id="Stroke-5" d="M19 40l10 7 10-7"/><g id="Group-10" transform="translate(0 17)"><path id="Stroke-6" d="M15 20.4L10 24 0 16.8V7.2L10 0l10 7.2v7.2"/><path id="Stroke-8" d="M0 7.2l10 7.2 10-7.2"/></g><path id="Stroke-11" d="M17 21l6-5"/><path id="Stroke-12" d="M33 21l-4.5 4-4.5-4"/><path id="Stroke-13" d="M39 15V7.5L29 0 19 7.5V15"/><path id="Stroke-15" d="M37 7l-9 7"/><path id="Stroke-16" d="M41 31l-6 5"/><g id="Group-21" transform="translate(36 17)"><path id="Stroke-17" d="M5 20.4l5 3.6 10-7.2V7.2L10 0 0 7.2v7.2"/><path id="Stroke-19" d="M20 7.2l-10 7.2L0 7.2"/></g><path id="Stroke-22" d="M39 21l-6-5"/><path id="Stroke-23" d="M28.5 15v9"/><path id="Stroke-24" d="M9.5 31v9"/><path id="Stroke-25" d="M28.5 56v-9"/><path id="Stroke-27" d="M46.5 31v9"/></g></g></g></svg>