<svg width="63" height="57" xmlns="http://www.w3.org/2000/svg"><g id="Page-1" stroke="none" stroke-width="1" fill="none" fill-rule="evenodd" stroke-linecap="round"><g id="Home-Page" transform="translate(-1177 -3330)" stroke="#173861" stroke-width="3"><g id="ouil-and-gas" transform="translate(1179 3332)"><path d="M20.506 11.107L22 2.538 17.621 0C9.28 3.019 1.9 12.373 2.001 25.316L4.994 27l15.512-15.893z" id="Stroke-1"/><path id="Stroke-3" d="M5.5 50V27"/><path id="Stroke-5" d="M20.489 12L58 35.951 56.706 41 14 18.28"/><path id="Stroke-7" d="M56.5 41v10"/><path id="Stroke-9" d="M29 26.5v4.864L21 53"/><path id="Stroke-11" d="M36 30.412v1.114L44 53"/><path id="Stroke-13" d="M26 38l17 15"/><path id="Stroke-15" d="M39 38L22 53"/><path id="Stroke-17" d="M0 53.5h59"/><path d="M52 7h-4.172a3.536 3.536 0 00-3.319-2.256c-.473 0-.925.111-1.338.285C42.34 2.724 40.207 1 37.697 1c-3.226 0-5.842 3.264-5.848 6H27" id="Stroke-19"/><path d="M40 18h3.15c.41-1.454 1.377-1.88 2.504-1.88.358 0 .698.093 1.011.237.628-1.922 2.238-3.357 4.13-3.357 2.437 0 4.411 2.092 4.416 5H59" id="Stroke-21"/></g></g></g></svg>