<svg width="47" height="50" xmlns="http://www.w3.org/2000/svg"><g id="Page-1" stroke="none" stroke-width="1" fill="none" fill-rule="evenodd" stroke-linecap="round" stroke-linejoin="round"><g id="About-Us" transform="translate(-1081 -1442)" stroke="#183861" stroke-width="2"><g id="Group-31" transform="translate(1082 1443)"><path d="M40 24.558v4.465C40 36.59 21.128 47.706 20 48c-1.128-.294-20-11.41-20-18.977V7.813c5.642 0 18.025-5.076 20-7.813 1.975 2.737 14.358 7.814 20 7.814v2.232" id="Stroke-1"/><path id="Stroke-3" d="M29 24v3"/><path id="Stroke-5" d="M29 31v3"/><path id="Stroke-7" d="M27 29h-3"/><path id="Stroke-9" d="M35 29h-3"/><path id="Stroke-11" d="M45 13l-2 2"/><path id="Stroke-13" d="M39 19l-2 2"/><path id="Stroke-15" d="M39 15l-2-2"/><path id="Stroke-17" d="M45 21l-2-2"/><path id="Stroke-19" d="M26 11v2"/><path id="Stroke-21" d="M26 16v2"/><path id="Stroke-23" d="M25 15h-2"/><path id="Stroke-25" d="M29 15h-2"/><path d="M5 27V12.607c4.232 0 13.52-3.642 15-5.607" id="Stroke-27"/><path d="M25 38.276c-2.392 1.587-4.33 2.648-4.628 2.724-.568-.146-7.106-3.872-11.372-8" id="Stroke-29"/></g></g></g></svg>