<svg width="275" height="85" xmlns="http://www.w3.org/2000/svg" xmlns:xlink="http://www.w3.org/1999/xlink"><defs><path id="path-1" d="M0 .365h44.873v37.441H0z"/><path id="path-3" d="M0 85h275V0H0z"/></defs><g id="Page-1" stroke="none" stroke-width="1" fill="none" fill-rule="evenodd"><g id="Home-Page" transform="translate(-305 -41)"><g id="Logo" transform="translate(305 41)"><path d="M71.776 68.686a.73.73 0 01.555.253l1.552 1.712a8.543 8.543 0 01-3.168 2.486c-1.255.575-2.76.863-4.515.863-1.571 0-2.983-.273-4.237-.819a9.32 9.32 0 01-3.212-2.277c-.887-.973-1.568-2.134-2.041-3.483-.473-1.35-.71-2.823-.71-4.421 0-1.617.263-3.098.79-4.444.527-1.344 1.268-2.502 2.225-3.475.955-.972 2.1-1.729 3.431-2.27 1.332-.54 2.803-.811 4.413-.811 1.57 0 2.943.256 4.119.766 1.175.512 2.183 1.19 3.022 2.032l-1.318 1.86c-.077.12-.178.225-.3.314-.121.089-.29.134-.504.134-.225 0-.454-.09-.688-.268a8.456 8.456 0 00-.892-.58 7.22 7.22 0 00-1.369-.581c-.551-.179-1.251-.268-2.1-.268-.995 0-1.91.176-2.744.528a6.1 6.1 0 00-2.151 1.511c-.6.655-1.068 1.452-1.405 2.39-.336.936-.505 1.99-.505 3.162 0 1.21.17 2.287.505 3.23.337.943.793 1.737 1.368 2.382a5.85 5.85 0 002.035 1.48c.78.343 1.619.514 2.516.514.537 0 1.023-.03 1.457-.089.434-.06.834-.154 1.2-.283a5.267 5.267 0 001.039-.498 6.54 6.54 0 00.973-.752c.097-.09.2-.161.307-.216a.77.77 0 01.352-.082" id="Fill-1" fill="#BCBEC0"/><path d="M86.44 65.838V74h-3.865v-8.162L75 53h3.407c.335 0 .6.082.797.247.196.164.362.373.496.624l3.808 7.015c.22.416.412.81.575 1.183.163.373.311.739.446 1.097a13.905 13.905 0 01.991-2.28l3.78-7.015c.106-.212.264-.411.474-.595.211-.184.48-.276.805-.276H94l-7.56 12.838z" id="Fill-3" fill="#BCBEC0"/><path d="M100.015 64.793v6.157h4.075c.746 0 1.37-.087 1.872-.26.503-.175.906-.407 1.21-.699.303-.29.522-.628.656-1.016.134-.387.202-.798.202-1.234 0-.455-.075-.864-.224-1.227a2.303 2.303 0 00-.702-.93c-.318-.257-.726-.452-1.224-.588-.497-.135-1.099-.203-1.805-.203h-4.06zm0-2.702h3.209c1.363 0 2.398-.242 3.104-.726.707-.484 1.06-1.253 1.06-2.31 0-1.093-.319-1.872-.955-2.337-.637-.465-1.632-.697-2.986-.697h-3.432v6.07zM96 74V53h7.447c1.413 0 2.62.13 3.62.392 1 .261 1.82.634 2.463 1.118a4.36 4.36 0 011.41 1.757c.299.688.448 1.463.448 2.324 0 .494-.075.966-.224 1.416-.15.45-.38.872-.694 1.264a5.152 5.152 0 01-1.194 1.067c-.482.32-1.058.59-1.724.813 2.965.65 4.448 2.208 4.448 4.677a5.82 5.82 0 01-.523 2.469 5.47 5.47 0 01-1.522 1.954c-.667.546-1.487.975-2.462 1.284-.975.31-2.09.465-3.344.465H96z" id="Fill-5" fill="#BCBEC0"/><path id="Fill-7" fill="#BCBEC0" d="M129 53v3.108h-9.137v5.824h7.198v3.006h-7.198v5.94H129V74h-13V53z"/><path d="M137.05 62.992h2.53c.763 0 1.428-.092 1.996-.276.566-.184 1.033-.438 1.4-.763.366-.324.64-.709.82-1.154.181-.445.271-.935.271-1.467 0-1.065-.363-1.883-1.091-2.454-.728-.572-1.84-.857-3.335-.857h-2.59v6.97zm0 2.802V74H133V53h6.64c1.486 0 2.758.148 3.818.443 1.059.296 1.927.71 2.604 1.242.678.532 1.175 1.169 1.491 1.91.317.74.474 1.556.474 2.447 0 .706-.107 1.374-.323 2.004-.217.63-.527 1.2-.934 1.713a6.21 6.21 0 01-1.505 1.351 8.026 8.026 0 01-2.04.93c.51.28.953.682 1.325 1.204L150 74h-3.643c-.352 0-.651-.067-.896-.203a1.795 1.795 0 01-.626-.582l-4.577-6.723c-.17-.252-.359-.431-.565-.538-.206-.106-.51-.16-.911-.16h-1.731z" id="Fill-9" fill="#BCBEC0"/><path d="M167.112 70.814c.9 0 1.686-.081 2.354-.245a9.897 9.897 0 001.91-.677v-3.916h-2.69c-.257 0-.46-.07-.609-.215a.709.709 0 01-.223-.528V62.97H175v8.708c-.545.397-1.112.742-1.7 1.034-.59.293-1.22.534-1.888.722-.668.189-1.384.33-2.146.425A20.18 20.18 0 01166.8 74c-1.565 0-3.006-.273-4.323-.819a10.252 10.252 0 01-3.417-2.277c-.96-.973-1.711-2.134-2.25-3.483-.54-1.35-.81-2.823-.81-4.421 0-1.618.262-3.101.787-4.45.525-1.35 1.27-2.511 2.236-3.484.966-.973 2.136-1.726 3.513-2.262 1.376-.537 2.921-.804 4.635-.804 1.753 0 3.27.26 4.554.781 1.281.521 2.37 1.198 3.26 2.032l-1.159 1.816c-.227.367-.53.55-.906.55-.238 0-.48-.079-.727-.237a64.893 64.893 0 00-.973-.566 6.664 6.664 0 00-1.1-.491 8.967 8.967 0 00-1.352-.342 9.95 9.95 0 00-1.73-.134c-1.06 0-2.019.178-2.876.536a6.07 6.07 0 00-2.19 1.533c-.605.665-1.07 1.463-1.397 2.396-.327.933-.49 1.974-.49 3.126 0 1.24.173 2.344.52 3.312.347.967.832 1.784 1.456 2.448a6.27 6.27 0 002.228 1.526c.862.352 1.802.528 2.823.528" id="Fill-11" fill="#BCBEC0"/><path d="M183.05 62.992h2.53c.763 0 1.428-.092 1.996-.276.566-.184 1.033-.438 1.4-.763.366-.324.64-.709.82-1.154.181-.445.271-.935.271-1.467 0-1.065-.363-1.883-1.091-2.454-.728-.572-1.84-.857-3.335-.857h-2.59v6.97zm0 2.802V74H179V53h6.64c1.486 0 2.758.148 3.818.443 1.059.296 1.927.71 2.604 1.242.678.532 1.175 1.169 1.491 1.91.317.74.474 1.556.474 2.447 0 .706-.107 1.374-.323 2.004-.217.63-.527 1.2-.934 1.713a6.21 6.21 0 01-1.505 1.351 8.026 8.026 0 01-2.04.93c.51.28.953.682 1.325 1.204L196 74h-3.643c-.352 0-.651-.067-.896-.203a1.795 1.795 0 01-.626-.582l-4.577-6.723c-.17-.252-.359-.431-.565-.538-.206-.106-.51-.16-.911-.16h-1.731z" id="Fill-13" fill="#BCBEC0"/><path d="M214.858 63c0-1.18-.157-2.24-.473-3.178-.314-.938-.767-1.734-1.358-2.389a5.855 5.855 0 00-2.153-1.503c-.846-.347-1.799-.521-2.86-.521-1.06 0-2.015.174-2.865.52a5.9 5.9 0 00-2.168 1.504c-.596.655-1.053 1.451-1.374 2.389-.32.938-.48 1.997-.48 3.178 0 1.181.16 2.24.48 3.178.32.938.778 1.731 1.374 2.381a5.936 5.936 0 002.168 1.496c.85.348 1.806.522 2.866.522s2.013-.174 2.859-.522a5.89 5.89 0 002.153-1.496c.59-.65 1.044-1.443 1.358-2.381.316-.938.473-1.997.473-3.178M219 63c0 1.578-.266 3.04-.796 4.383a10.371 10.371 0 01-2.235 3.491c-.96.982-2.116 1.75-3.467 2.3-1.35.55-2.846.826-4.487.826-1.64 0-3.139-.275-4.494-.826-1.356-.55-2.517-1.318-3.482-2.3a10.313 10.313 0 01-2.243-3.49c-.53-1.345-.796-2.806-.796-4.384 0-1.578.266-3.039.796-4.383a10.319 10.319 0 012.243-3.491c.965-.983 2.126-1.75 3.482-2.3 1.355-.55 2.854-.826 4.494-.826 1.64 0 3.136.278 4.487.833 1.35.556 2.506 1.323 3.467 2.3.96.978 1.705 2.139 2.235 3.484.53 1.344.796 2.805.796 4.383" id="Fill-15" fill="#BCBEC0"/><path d="M229.992 70.494c.781 0 1.48-.13 2.095-.392a4.365 4.365 0 001.561-1.098 4.783 4.783 0 00.976-1.715c.226-.673.338-1.425.338-2.257V52H239v13.032c0 1.294-.208 2.49-.623 3.588a8.106 8.106 0 01-1.794 2.844c-.78.798-1.727 1.42-2.837 1.866-1.112.446-2.362.67-3.754.67-1.391 0-2.642-.224-3.753-.67-1.11-.446-2.054-1.068-2.83-1.866a8.152 8.152 0 01-1.785-2.844c-.417-1.098-.624-2.294-.624-3.588V52h4.039v13.016c0 .833.112 1.586.337 2.257.226.673.549 1.247.969 1.723.42.477.938.846 1.553 1.106.616.262 1.314.392 2.094.392" id="Fill-17" fill="#BCBEC0"/><path d="M247.91 63.558h2.935c.718 0 1.343-.09 1.876-.268.532-.18.974-.436 1.322-.77.35-.334.61-.74.785-1.22.174-.48.262-1.014.262-1.605a4.24 4.24 0 00-.262-1.525 3.011 3.011 0 00-.785-1.162c-.348-.32-.79-.564-1.322-.733-.533-.17-1.158-.254-1.876-.254h-2.935v7.537zm0 3.05V74H244V53h6.845c1.405 0 2.622.165 3.649.493 1.027.33 1.875.79 2.543 1.38a5.399 5.399 0 011.483 2.12c.32.824.48 1.725.48 2.702 0 1.017-.17 1.95-.51 2.796a5.803 5.803 0 01-1.525 2.186c-.679.61-1.526 1.084-2.543 1.423-1.018.339-2.21.507-3.577.507h-2.935z" id="Fill-19" fill="#BCBEC0"/><g id="Group-23" transform="translate(0 2)"><mask id="mask-2" fill="#fff"><use xlink:href="#path-1"/></mask><path d="M22.33 16.732l-5.49 20.325c-.106.375-.586.75-.96.75h-4.476c-.427 0-.853-.322-.96-.696L.051 1.7C-.162.954.318.366 1.011.366h5.01c.532 0 .852.374 1.066 1.177l6.555 22.678 6.29-23.106c.106-.375.533-.75.959-.75h3.091c.427 0 .852.375.96.75l6.396 23.052 6.395-22.678c.213-.749.533-1.123 1.066-1.123h5.063c.693 0 1.173.588.96 1.337l-10.5 35.409c-.107.374-.533.695-.96.695h-4.476c-.427 0-.853-.374-.96-.75L22.33 16.733z" id="Fill-21" fill="#FFF" mask="url(#mask-2)"/></g><path d="M50.09 23.554h11.363c-.758-2.304-2.652-4.286-5.574-4.286-2.976 0-4.979 1.875-5.79 4.286zm.053 5.946c.974 2.518 3.193 4.232 5.844 4.232 1.948 0 3.842-.696 5.087-1.822a1.145 1.145 0 011.406.055l3.085 2.892a.931.931 0 010 1.34C63.184 38.66 59.829 40 55.987 40c-3.571 0-6.71-1.34-9.037-3.697C44.461 33.84 43 30.25 43 26.393 43 19 48.845 13 56.042 13c3.3 0 6.223 1.286 8.387 3.429C66.269 18.143 68 20.82 68 25.857a25.4 25.4 0 01-.163 2.786.987.987 0 01-.974.857h-16.72z" id="Fill-24" fill="#FFF"/><path d="M73 .96c0-.533.465-.96.983-.96h4.034c.569 0 .983.427.983.96v38.026c0 .587-.414 1.014-.983 1.014h-4.034A.998.998 0 0173 38.986V.96z" id="Fill-26" fill="#FFF"/><path d="M85 .96c0-.533.465-.96.983-.96h4.034c.569 0 .983.427.983.96v38.026c0 .587-.414 1.014-.983 1.014h-4.034A.998.998 0 0185 38.986V.96z" id="Fill-28" fill="#FFF"/><path d="M114 32.27c0 1.906-.687 3.918-2.27 5.348-1.848 1.747-3.59 2.382-6.547 2.382-2.798 0-6.23-1.536-8.87-3.706-.369-.317-.422-.9-.105-1.324l2.428-3.44c.317-.424.898-.477 1.373-.16 1.584 1.165 3.432 2.7 5.597 2.7 1.055 0 2.111-.635 2.111-1.905 0-.847-1.794-2.224-3.432-3.336-1.372-.9-2.745-2.011-4.117-3.388-1.743-1.747-2.64-3.335-2.64-5.664 0-4.289 3.959-6.777 7.972-6.777 2.112 0 4.276.583 6.23 1.641.422.265.58.847.37 1.324l-1.743 3.6c-.211.476-.74.74-1.215.53-1.53-.742-2.534-1.165-3.536-1.165-.792 0-1.69.423-1.69 1.005 0 .636.211 1.165.845 1.641.845.689 1.689 1.271 3.643 2.7 2.481 1.8 5.543 4.077 5.596 7.995" id="Fill-30" fill="#FFF"/><path d="M164.08 2c.425 0 .903.434 1.062 1.302l5.842 35.504c.106.705-.319 1.194-1.01 1.194h-4.99c-.479 0-.956-.434-1.01-.869l-3.451-21.55-8.92 21.17c-.373.923-.797 1.249-1.382 1.249h-2.708c-.637 0-1.062-.326-1.327-1.031l-8.868-21.28-3.399 21.442c-.053.435-.531.869-1.009.869h-4.885c-.69 0-1.115-.489-1.009-1.194l5.842-35.558c.159-.814.637-1.248 1.061-1.248h3.77c.372 0 .744.325 1.063 1.031L149 28.003l10.195-24.918c.319-.76.744-1.085 1.115-1.085h3.77z" id="Fill-32" fill="#FFF"/><path d="M186.08 33.518c3.79 0 6.514-3.214 6.514-7.019 0-3.803-2.723-7.017-6.514-7.017-3.524 0-6.62 3.214-6.62 7.017 0 3.805 3.096 7.019 6.62 7.019zm6.727 3.75C190.885 38.714 188.269 40 185.76 40 178.34 40 173 34.214 173 26.5c0-7.393 5.82-13.5 12.867-13.5 2.455 0 5.018 1.286 6.94 2.732v-1.607c0-.59.48-1.018 1.014-1.018h4.164c.588 0 1.015.429 1.015 1.018v24.75c0 .589-.427 1.018-1.015 1.018h-4.164c-.533 0-1.014-.43-1.014-1.018v-1.607z" id="Fill-34" fill="#FFF"/><path d="M221 32.27c0 1.906-.687 3.918-2.27 5.348-1.848 1.747-3.59 2.382-6.547 2.382-2.798 0-6.23-1.536-8.87-3.706-.369-.317-.422-.9-.105-1.324l2.428-3.44c.317-.424.898-.477 1.373-.16 1.584 1.165 3.432 2.7 5.597 2.7 1.055 0 2.111-.635 2.111-1.905 0-.847-1.794-2.224-3.432-3.336-1.372-.9-2.745-2.011-4.117-3.388-1.743-1.747-2.64-3.335-2.64-5.664 0-4.289 3.959-6.777 7.972-6.777 2.112 0 4.276.583 6.23 1.641.422.265.58.847.37 1.324l-1.743 3.6c-.211.476-.74.74-1.215.53-1.53-.742-2.534-1.165-3.536-1.165-.792 0-1.69.423-1.69 1.005 0 .636.211 1.165.845 1.641.845.689 1.689 1.271 3.643 2.7 2.481 1.8 5.543 4.077 5.596 7.995" id="Fill-36" fill="#FFF"/><path d="M236 33.678c3.776 0 6.527-3.214 6.527-7.179 0-3.963-2.751-7.177-6.527-7.177-3.722 0-6.473 3.214-6.473 7.177 0 3.965 2.751 7.18 6.473 7.18M236.054 13C243.336 13 249 18.947 249 26.5S243.282 40 236 40s-13-5.947-13-13.5S228.772 13 236.054 13" id="Fill-38" fill="#FFF"/><path d="M259.076 38.978c0 .591-.418 1.022-.995 1.022h-4.086c-.524 0-.995-.43-.995-1.022V14.13c0-.592.471-1.023.995-1.023h4.086c.577 0 .995.431.995 1.023v1.99c2.043-1.722 4.871-3.12 7.439-3.12 4.923 0 8.485 3.818 8.485 8.928v17.05c0 .591-.42 1.022-.995 1.022h-4.086c-.524 0-.995-.43-.995-1.022V23.972c0-2.905-1.414-4.625-3.824-4.625-3.09 0-5.92 2.581-5.92 5.808l-.104 13.823z" id="Fill-40" fill="#FFF"/><path d="M43.667 67.941c0 5.53-12.072 13.053-14.867 13.715V47.293l9.329-.03c.762 1.998 2.828 4.57 5.538 5.488v15.19zm.789-17.342c-1.933-.66-3.547-2.583-4.143-4.142C39.98 45.586 39.109 45 38.147 45H18.853c-.962 0-1.833.586-2.167 1.458-.594 1.558-2.208 3.481-4.141 4.14A2.275 2.275 0 0011 52.751v15.19c0 4.124 4.227 8.2 7.774 10.892C22.048 81.318 26.697 84 28.5 84c1.803 0 6.452-2.682 9.726-5.167C41.773 76.14 46 72.065 46 67.94V52.75c0-.973-.62-1.838-1.544-2.152z" id="Fill-42" fill="#173861"/><path id="Fill-44" fill="#BCBEC0" d="M29 48.747V82l2.98-.948 3.72-2.642 4.1-3.48 3.508-4.514L44 59.462V54.88l-.69-2.189-2.176-1.352-2.233-3.241L37.973 47 29 47.126z"/><path d="M19.595 47.861a.631.631 0 00-.596.404c-.652 1.77-2.413 4.049-4.737 4.871a.645.645 0 00-.418.616v14.542c0 6.122 12.613 13.845 14.656 13.845 2.042 0 14.656-7.723 14.656-13.845V53.752a.647.647 0 00-.418-.616c-2.324-.822-4.085-3.102-4.737-4.87a.631.631 0 00-.596-.405h-17.81zM28.5 83C26.308 83 13 75.015 13 68.294V53.752c0-.646.396-1.221.985-1.43 1.975-.698 3.62-2.722 4.223-4.36A1.48 1.48 0 0119.595 47h17.81a1.48 1.48 0 011.387.962c.603 1.638 2.248 3.662 4.223 4.36.59.209.985.784.985 1.43v14.542C44 75.015 30.692 83 28.5 83z" id="Fill-46" fill="#FFF"/><path id="Fill-48" fill="#BCBEC0" d="M43 60H24.417l-2.503-3.75H18V55h4.563l2.503 3.75H43z"/><path d="M21 55a2 2 0 11-4 0 2 2 0 014 0" id="Fill-50" fill="#173861"/><path d="M18.5 54.25a1.251 1.251 0 000 2.5 1.25 1.25 0 000-2.5m0 3.75a2.503 2.503 0 01-2.5-2.5c0-1.378 1.122-2.5 2.5-2.5s2.5 1.122 2.5 2.5-1.122 2.5-2.5 2.5" id="Fill-52" fill="#BCBEC0"/><path id="Fill-54" fill="#BCBEC0" d="M23.01 74L22 73.323 26.298 67H43v1.21H26.945z"/><path d="M25 74a2 2 0 10-3.999-.001A2 2 0 0025 74" id="Fill-56" fill="#173861"/><path d="M22.5 72.25a1.251 1.251 0 000 2.5 1.251 1.251 0 000-2.5m0 3.75a2.503 2.503 0 01-2.5-2.5c0-1.379 1.122-2.5 2.5-2.5s2.5 1.121 2.5 2.5-1.122 2.5-2.5 2.5" id="Fill-58" fill="#BCBEC0"/><mask id="mask-4" fill="#fff"><use xlink:href="#path-3"/></mask><path id="Fill-60" fill="#BCBEC0" mask="url(#mask-4)" d="M18 64h5v-1h-5z"/><path d="M21 63a2 2 0 11-4 0 2 2 0 014 0" id="Fill-62" fill="#173861" mask="url(#mask-4)"/><path d="M18.5 62.25a1.251 1.251 0 000 2.5 1.25 1.25 0 000-2.5m0 3.75a2.503 2.503 0 01-2.5-2.5c0-1.378 1.122-2.5 2.5-2.5s2.5 1.122 2.5 2.5-1.122 2.5-2.5 2.5" id="Fill-63" fill="#BCBEC0" mask="url(#mask-4)"/><path id="Fill-64" fill="#BCBEC0" mask="url(#mask-4)" d="M27 64h16v-1H27z"/><path id="Fill-65" fill="#BCBEC0" mask="url(#mask-4)" d="M25 64h1v-1h-1z"/><path id="Fill-66" fill="#173861" mask="url(#mask-4)" d="M29 59h9v-1h-9z"/><path id="Fill-67" fill="#173861" mask="url(#mask-4)" d="M39 59h4v-1h-4z"/><path id="Fill-68" fill="#173861" mask="url(#mask-4)" d="M29 64h15v-1H29z"/><path id="Fill-69" fill="#173861" mask="url(#mask-4)" d="M33 68h10v-1H33z"/><path id="Fill-70" fill="#173861" mask="url(#mask-4)" d="M29 68h3v-1h-3z"/></g></g></g></svg>