<svg width="87" height="87" viewBox="0 0 87 87" fill="none" xmlns="http://www.w3.org/2000/svg">
<g clip-path="url(#clip0_350_873)">
<path d="M84.3465 73.9113C84.3038 73.5597 83.8748 73.4117 83.6243 73.662L81.7426 75.5437C81.5767 75.7096 81.3078 75.7096 81.1417 75.5437L51.2839 45.6861C51.2608 45.663 50.4736 44.8706 49.1351 43.5223C60.8545 31.8999 81.6231 11.3374 81.7424 11.4567L83.6241 13.3384C83.8746 13.5889 84.3036 13.4409 84.3463 13.0891L85.7218 1.75098C85.7549 1.47724 85.5226 1.24479 85.2489 1.27809L73.9108 2.6536C73.559 2.69625 73.411 3.1253 73.6615 3.37576L75.5432 5.25747C75.6625 5.37675 55.126 26.1192 43.4995 37.8425C31.8734 26.1192 11.3369 5.37675 11.4562 5.25747L13.3379 3.37576C13.5883 3.1253 13.4403 2.69625 13.0886 2.6536L1.75046 1.27809C1.47672 1.24479 1.24444 1.47724 1.27757 1.75098L2.65308 13.0891C2.69573 13.4409 3.12478 13.5889 3.37525 13.3384L5.25712 11.4567C5.3764 11.3374 26.145 31.8999 37.8644 43.5223C36.526 44.8706 35.7387 45.663 35.7156 45.6861L5.85779 75.5439C5.69195 75.7097 5.42296 75.7097 5.25695 75.5439L3.37525 73.6622C3.12478 73.4117 2.69573 73.5597 2.65308 73.9115L1.27757 85.2494C1.24444 85.5232 1.47672 85.7556 1.75046 85.7223L13.0886 84.3468C13.4403 84.3042 13.5883 83.8751 13.3379 83.6246L11.4562 81.7429C11.2903 81.5771 11.2903 81.3081 11.4562 81.1421L41.314 51.2843C41.3371 51.2612 42.1381 50.4653 43.4999 49.1137C44.8614 50.4654 45.6624 51.2612 45.6857 51.2843L75.5435 81.1421C75.7094 81.3079 75.7095 81.5769 75.5435 81.7429L73.6618 83.6246C73.4114 83.8751 73.5594 84.3042 73.9111 84.3468L85.2492 85.7223C85.523 85.7555 85.7554 85.5232 85.7221 85.2494L84.3465 73.9113Z" fill="white"/>
<path d="M61.5363 27.4451H53.6111C52.259 27.4451 50.9625 26.908 50.0065 25.952L48.1549 24.1004C44.4815 20.4271 38.6334 20.1032 34.5769 23.3483L29.6512 27.2888C28.3827 28.3036 26.8441 28.9229 25.2264 29.0699L15.7574 29.9307C13.5306 30.1331 11.4454 31.1098 9.86424 32.6909C6.5778 35.9774 6.5778 41.3056 9.86424 44.592L26.585 61.3127C30.0542 64.782 34.4727 67.1466 39.2835 68.1089L54.881 71.2285C58.0147 71.8551 61.2543 70.8744 63.514 68.6146L69.3456 62.7831C70.433 61.6956 70.8835 60.1247 70.5377 58.6261L67.5881 45.8445C67.1709 44.0367 67.9164 42.1594 69.4601 41.1302L70.7652 40.26C73.1073 38.6986 73.4354 35.385 71.4451 33.3947L68.2948 30.2444C66.5024 28.4521 64.0712 27.4451 61.5363 27.4451Z" fill="#58469C"/>
<path d="M71.4449 33.3949L68.2945 30.2446C66.9693 28.9194 65.2948 28.0234 63.4875 27.6465L64.6482 28.807C66.6385 30.7973 66.3104 34.111 63.9683 35.6724L62.6632 36.5425C61.1195 37.5717 60.374 39.4488 60.7912 41.2568L63.7408 54.0384C64.0866 55.537 63.6362 57.1079 62.5487 58.1954L56.7171 64.0269C54.4574 66.2867 51.2178 67.2674 48.0841 66.6408L32.4866 63.5212C30.6017 63.1441 28.7769 62.5518 27.0459 61.7622C30.4418 64.9864 34.6832 67.1889 39.2834 68.1091L54.881 71.2286C58.0147 71.8553 61.2544 70.8745 63.514 68.6148L69.3455 62.7832C70.433 61.6957 70.8836 60.1248 70.5377 58.6263L67.588 45.8447C67.1708 44.0369 67.9163 42.1596 69.46 41.1304L70.7652 40.2602C73.107 38.6988 73.4352 35.3852 71.4449 33.3949Z" fill="#58469C"/>
<path d="M31.2295 44.7862L35.9594 35.3262C37.1436 32.958 39.8465 31.7689 42.3924 32.4963L53.9509 35.7988C56.313 36.4737 57.9417 38.6327 57.9417 41.0894V47.4404C57.9417 48.0317 58.037 48.6193 58.2241 49.1804L59.0504 51.6592C60.0113 54.5421 58.4533 57.6581 55.5705 58.6191L46.925 61.501C44.9478 62.1601 42.7681 61.6454 41.2944 60.1717L32.2604 51.1377C30.5855 49.463 30.1703 46.9046 31.2295 44.7862Z" fill="white"/>
<path d="M54.3018 34.5735L42.7433 31.2711C39.6096 30.3756 36.2776 31.8413 34.8204 34.7563L30.0905 44.2163C28.7839 46.8294 29.2939 49.9729 31.3598 52.0388L40.3938 61.073C41.691 62.37 43.4065 63.0624 45.1699 63.0622C45.8899 63.0622 46.6182 62.9467 47.3288 62.71L55.9742 59.8281C59.5189 58.6465 61.4417 54.8012 60.2601 51.2561L59.4339 48.7775C59.29 48.3459 59.2171 47.8959 59.2171 47.4406V41.0896C59.2169 38.08 57.1957 35.4003 54.3018 34.5735ZM55.1681 57.41L46.5227 60.2918C44.9934 60.8018 43.3356 60.4101 42.1961 59.2705L33.1621 50.2363C31.8733 48.9476 31.555 46.9864 32.3701 45.3561L37.1 35.8961C37.8302 34.4358 39.3139 33.5585 40.8826 33.5585C41.2677 33.5585 41.6578 33.6115 42.043 33.7215L53.6016 37.0242C55.4071 37.5399 56.6681 39.2116 56.6681 41.0894V47.4404C56.6681 48.1704 56.785 48.8913 57.0158 49.5834L57.8419 52.0619C58.5792 54.2738 57.3796 56.673 55.1681 57.41Z" fill="black"/>
<path d="M40.8613 44.7747C41.5652 44.7747 42.1357 44.2041 42.1357 43.5002C42.1357 42.7964 41.5652 42.2258 40.8613 42.2258C40.1575 42.2258 39.5869 42.7964 39.5869 43.5002C39.5869 44.2041 40.1575 44.7747 40.8613 44.7747Z" fill="black"/>
<path d="M51.417 47.4136C52.1208 47.4136 52.6914 46.843 52.6914 46.1392C52.6914 45.4353 52.1208 44.8647 51.417 44.8647C50.7132 44.8647 50.1426 45.4353 50.1426 46.1392C50.1426 46.843 50.7132 47.4136 51.417 47.4136Z" fill="black"/>
<path d="M46.1387 50.053C46.8425 50.053 47.4131 49.4824 47.4131 48.7786C47.4131 48.0747 46.8425 47.5042 46.1387 47.5042C45.4348 47.5042 44.8643 48.0747 44.8643 48.7786C44.8643 49.4824 45.4348 50.053 46.1387 50.053Z" fill="black"/>
<path d="M51.417 52.6919C52.1208 52.6919 52.6914 52.1213 52.6914 51.4175C52.6914 50.7136 52.1208 50.1431 51.417 50.1431C50.7132 50.1431 50.1426 50.7136 50.1426 51.4175C50.1426 52.1213 50.7132 52.6919 51.417 52.6919Z" fill="black"/>
<path d="M40.8613 52.6919C41.5652 52.6919 42.1357 52.1213 42.1357 51.4175C42.1357 50.7136 41.5652 50.1431 40.8613 50.1431C40.1575 50.1431 39.5869 50.7136 39.5869 51.4175C39.5869 52.1213 40.1575 52.6919 40.8613 52.6919Z" fill="black"/>
<path d="M46.1387 42.1355C46.8425 42.1355 47.4131 41.5649 47.4131 40.8611C47.4131 40.1572 46.8425 39.5867 46.1387 39.5867C45.4348 39.5867 44.8643 40.1572 44.8643 40.8611C44.8643 41.5649 45.4348 42.1355 46.1387 42.1355Z" fill="black"/>
<path d="M85.6118 73.7577C85.5329 73.1071 85.0989 72.5701 84.4794 72.3562C83.8592 72.1421 83.1868 72.2972 82.7234 72.7609L81.4424 74.042L70.6446 63.2438C71.7588 61.877 72.1822 60.0847 71.7795 58.3396L71.0813 55.3141C70.9229 54.6283 70.2385 54.2006 69.553 54.359C68.8672 54.5174 68.4396 55.2015 68.5979 55.8873L69.2961 58.9127C69.5447 59.9902 69.2265 61.1001 68.4443 61.8819C68.427 61.8993 62.6927 67.6378 62.3817 67.9359C60.4341 69.7396 57.7481 70.502 55.1308 69.9788L39.5333 66.8594C34.9488 65.9425 30.7839 63.7099 27.4861 60.4118C21.102 54.0277 20.7492 53.6749 10.7653 43.6912C9.41652 42.3425 8.67362 40.5494 8.67362 38.6418C8.67362 36.7343 9.41652 34.9413 10.7653 33.5925C12.1329 32.2248 13.9468 31.3753 15.8728 31.2002C16.9913 31.0985 24.4601 30.4194 25.3418 30.3393C27.214 30.1692 28.9795 29.4585 30.4476 28.2841C35.8112 23.9931 34.5024 25.0402 35.3731 24.3437C38.9279 21.5002 44.0355 21.7835 47.2538 25.0018L49.1053 26.8532C50.3088 28.0568 51.909 28.7195 53.6111 28.7195H61.5365C63.7049 28.7195 65.7988 29.5507 67.3939 31.1458L70.5444 34.2961C71.2218 34.9736 71.5564 35.909 71.4619 36.8626C71.3675 37.8162 70.8562 38.668 70.0587 39.1997L68.7534 40.0699C66.7806 41.385 65.8133 43.8209 66.3466 46.1311L67.2832 50.1897C67.4413 50.8755 68.1255 51.3025 68.8115 51.1448C69.4973 50.9866 69.925 50.3023 69.7666 49.6165L68.83 45.558C68.5339 44.2744 69.0712 42.9213 70.1671 42.1906L71.4725 41.3205C72.9076 40.3637 73.8283 38.8305 73.9982 37.1137C74.1681 35.3972 73.5661 33.7133 72.3464 32.4938L69.196 29.3436C68.5271 28.6746 67.7862 28.104 66.9906 27.6388L81.699 13.2149L82.7236 14.2397C83.1873 14.7031 83.86 14.8585 84.4796 14.6443C85.0991 14.4303 85.5331 13.8934 85.6119 13.2428L86.9876 1.90427C87.0508 1.38244 86.8739 0.869962 86.5023 0.498345C86.1305 0.126388 85.6182 -0.0508391 85.0962 0.0130511L73.7576 1.38856C73.1069 1.4674 72.57 1.90138 72.3561 2.52091C72.1421 3.14044 72.2971 3.81333 72.7608 4.27688L73.7856 5.30167L53.2836 26.1569C52.3858 26.0813 51.5518 25.6952 50.9075 25.0507L49.056 23.1993C44.9177 19.0614 38.3508 18.6976 33.7806 22.3532L31.6447 24.062L26.2696 18.6231C25.775 18.1227 24.9682 18.1176 24.4674 18.6126C23.967 19.1072 23.9621 19.9142 24.4569 20.4148L29.6434 25.6628L28.855 26.2935C27.7785 27.1547 26.4837 27.676 25.1109 27.8007L23.9104 27.9098L7.70015 11.9843C7.19735 11.5002 6.80857 11.1306 6.54451 10.8854C6.39753 10.7488 6.28352 10.6457 6.20501 10.5777C5.21335 9.7208 4.39162 10.5198 4.35593 10.5553L3.7082 11.203L2.67338 2.67367L11.2027 3.70849L10.555 4.35623C10.0626 4.84866 10.0564 5.64525 10.5416 6.14499L20.2427 16.1414C20.7329 16.6463 21.5397 16.6583 22.0447 16.1683C22.5497 15.6781 22.5618 14.8713 22.0715 14.3663L13.2453 5.27091L14.2396 4.27688C14.7031 3.81333 14.8581 3.14044 14.6441 2.52091C14.4302 1.90138 13.8933 1.4674 13.2426 1.38856L1.90415 0.0128812C1.38198 -0.0501594 0.869667 0.126728 0.49822 0.498175C0.126434 0.869962 -0.0504541 1.38227 0.0129264 1.90427L1.38827 13.2428C1.46711 13.8934 1.90109 14.4303 2.52062 14.6443C3.14066 14.8582 3.81304 14.7031 4.27658 14.2395L5.3012 13.2147L20.5897 28.2121L15.6419 28.6619C13.1232 28.8908 10.7511 30.0019 8.96266 31.79C5.18481 35.568 5.18481 41.7154 8.96266 45.4934L21.5344 58.0648L5.55761 74.042L4.27658 72.7608C3.81287 72.2974 3.14032 72.1424 2.52062 72.3562C1.90109 72.5701 1.46711 73.1071 1.38827 73.7577L0.0125865 85.0962C-0.050624 85.618 0.126264 86.1305 0.497881 86.5021C0.820051 86.8243 1.24774 87.0001 1.69599 87.0001C1.76498 87.0001 1.83431 86.9961 1.90415 86.9876L13.2425 85.6119C13.8931 85.533 14.43 85.0991 14.644 84.4795C14.8579 83.86 14.7029 83.1871 14.2392 82.7236L12.9582 81.4425L21.6044 72.7964C22.1021 72.2986 22.1021 71.4918 21.6044 70.9941C21.1066 70.4966 20.2998 70.4966 19.8021 70.9941L10.5548 80.2415C9.89298 80.9037 9.89298 81.9815 10.5553 82.6444L11.2031 83.2921L2.67372 84.3269L3.70854 75.7976L4.35661 76.4457C5.01931 77.1077 6.0966 77.1073 6.75946 76.4453L23.3371 59.8675L25.6837 62.2141C26.1692 62.6996 26.6715 63.1641 27.1896 63.6071L24.1114 66.6852C23.6137 67.1829 23.6137 67.9899 24.1116 68.4874C24.3604 68.7362 24.6866 68.8606 25.0127 68.8606C25.3388 68.8606 25.665 68.7362 25.914 68.4873L29.222 65.1791C32.1538 67.2244 35.4814 68.6482 39.0337 69.3588L54.6313 72.4782C55.3421 72.6202 56.0561 72.6899 56.765 72.6899C59.0699 72.6897 61.3165 71.9535 63.1791 70.5797L74.0422 81.4425L72.761 82.7236C72.2974 83.1871 72.1425 83.86 72.3564 84.4795C72.5703 85.0991 73.1073 85.533 73.7579 85.6119L85.0964 86.9876C85.1659 86.9961 85.2354 87.0001 85.3044 87.0001C85.7526 87.0001 86.1803 86.8243 86.5025 86.5021C86.8743 86.1303 87.051 85.618 86.9878 85.096L85.6118 73.7577ZM74.5863 8.14563C75.2075 7.50299 75.6826 7.00648 75.9983 6.66953C76.1703 6.48619 76.3006 6.34379 76.3867 6.24592C77.2724 5.23999 76.5329 4.44442 76.4449 4.35623L75.7971 3.70849L84.3265 2.67367L83.2917 11.203L82.6429 10.5543C82.6086 10.5201 81.7894 9.72318 80.8072 10.5673C80.7342 10.63 80.6281 10.7255 80.4914 10.8523C80.248 11.0774 79.8902 11.417 79.4273 11.8616L64.4505 26.5649C63.5135 26.3047 62.5351 26.1705 61.5362 26.1705H56.8555L74.5863 8.14563ZM75.7971 83.2919L76.4449 82.6442C77.1069 81.982 77.1072 80.9041 76.4449 80.2409L65.0673 68.8633L68.8632 65.0673L80.2411 76.4452C80.9036 77.1072 81.9809 77.1072 82.6439 76.4446L83.2917 75.7969L84.3265 84.3263L75.7971 83.2919Z" fill="black"/>
</g>
<defs>
<clipPath id="clip0_350_873">
<rect width="87" height="87" fill="white"/>
</clipPath>
</defs>
</svg>
