<svg width="77" height="77" viewBox="0 0 77 77" fill="none" xmlns="http://www.w3.org/2000/svg">
<g clip-path="url(#clip0_348_85)">
<path d="M22.5885 58.7363C31.0608 58.7363 37.9289 51.8682 37.9289 43.3959C37.9289 34.9236 31.0608 28.0554 22.5885 28.0554C14.1162 28.0554 7.24805 34.9236 7.24805 43.3959C7.24805 51.8682 14.1162 58.7363 22.5885 58.7363Z" fill="#58469C"/>
<path d="M12.3322 43.3959C12.3322 35.7897 17.8682 29.4775 25.1305 28.2663C24.3035 28.1284 23.4546 28.0554 22.5885 28.0554C14.1162 28.0554 7.24805 34.9236 7.24805 43.3959C7.24805 51.8681 14.1162 58.7363 22.5885 58.7363C23.4546 58.7363 24.3037 58.6634 25.1305 58.5255C17.8682 57.3141 12.3322 51.002 12.3322 43.3959Z" fill="#58469C"/>
<path d="M22.5884 51.3926C27.0048 51.3926 30.5849 47.8124 30.5849 43.396C30.5849 38.9796 27.0048 35.3994 22.5884 35.3994C18.172 35.3994 14.5918 38.9796 14.5918 43.396C14.5918 47.8124 18.172 51.3926 22.5884 51.3926Z" fill="#58469C"/>
<path d="M19.7012 43.396C19.7012 39.8734 21.98 36.8848 25.1431 35.8187C24.3406 35.5482 23.482 35.3994 22.5884 35.3994C18.172 35.3994 14.5918 38.9796 14.5918 43.396C14.5918 47.8124 18.172 51.3926 22.5884 51.3926C23.4821 51.3926 24.3406 51.2437 25.1431 50.9733C21.98 49.907 19.7012 46.9186 19.7012 43.396Z" fill="#58469C"/>
<path d="M51.6376 39.9688C57.8567 39.9688 62.8983 34.9272 62.8983 28.7082C62.8983 22.4891 57.8567 17.4475 51.6376 17.4475C45.4185 17.4475 40.377 22.4891 40.377 28.7082C40.377 34.9272 45.4185 39.9688 51.6376 39.9688Z" fill="#58469C"/>
<path d="M44.2149 28.7083C44.2149 23.1438 48.2522 18.5252 53.5564 17.6139C52.9325 17.5067 52.292 17.4478 51.6375 17.4478C45.4183 17.4478 40.377 22.4893 40.377 28.7084C40.377 34.9275 45.4185 39.9691 51.6375 39.9691C52.2921 39.9691 52.9325 39.9101 53.5564 39.8029C48.2522 38.8914 44.2149 34.2727 44.2149 28.7083Z" fill="#58469C"/>
<path d="M51.6372 33.6042C54.3411 33.6042 56.5331 31.4122 56.5331 28.7082C56.5331 26.0043 54.3411 23.8123 51.6372 23.8123C48.9332 23.8123 46.7412 26.0043 46.7412 28.7082C46.7412 31.4122 48.9332 33.6042 51.6372 33.6042Z" fill="#58469C"/>
<path d="M50.5147 28.7081C50.5147 26.6728 51.7566 24.9282 53.5238 24.1894C52.9432 23.9467 52.3058 23.8123 51.6372 23.8123C48.9333 23.8123 46.7412 26.0042 46.7412 28.7082C46.7412 31.4121 48.9332 33.6042 51.6372 33.6042C52.306 33.6042 52.9432 33.4697 53.5238 33.227C51.7566 32.488 50.5147 30.7432 50.5147 28.7081Z" fill="#58469C"/>
<path d="M49.1006 13.2305C51.6328 13.2305 53.6855 11.1777 53.6855 8.64551C53.6855 6.1133 51.6328 4.06055 49.1006 4.06055C46.5684 4.06055 44.5156 6.1133 44.5156 8.64551C44.5156 11.1777 46.5684 13.2305 49.1006 13.2305Z" fill="#58469C"/>
<path d="M48.0494 8.64551C48.0494 6.73961 49.2125 5.10576 50.8674 4.41396C50.3236 4.18642 49.7268 4.06055 49.1006 4.06055C46.5683 4.06055 44.5156 6.11323 44.5156 8.64551C44.5156 11.1776 46.5683 13.2305 49.1006 13.2305C49.7268 13.2305 50.3236 13.1046 50.8674 12.8772C49.2125 12.1853 48.0494 10.5514 48.0494 8.64551Z" fill="#58469C"/>
<path d="M29.7041 71.8828C32.2363 71.8828 34.2891 69.8301 34.2891 67.2978C34.2891 64.7656 32.2363 62.7129 29.7041 62.7129C27.1719 62.7129 25.1191 64.7656 25.1191 67.2978C25.1191 69.8301 27.1719 71.8828 29.7041 71.8828Z" fill="white"/>
<path d="M28.6527 67.2979C28.6527 65.392 29.8158 63.7582 31.4707 63.0664C30.9269 62.839 30.3302 62.7131 29.7039 62.7131C27.1718 62.7131 25.1191 64.7658 25.1191 67.2981C25.1191 69.8302 27.1718 71.8831 29.7039 71.8831C30.3302 71.8831 30.9269 71.7572 31.4707 71.5298C29.8157 70.8377 28.6527 69.2038 28.6527 67.2979Z" fill="#616C33"/>
<path d="M27.7293 22.5819C32.9533 22.5819 37.1881 18.3471 37.1881 13.1231C37.1881 7.89916 32.9533 3.66431 27.7293 3.66431C22.5054 3.66431 18.2705 7.89916 18.2705 13.1231C18.2705 18.3471 22.5054 22.5819 27.7293 22.5819Z" fill="white"/>
<path d="M23.3423 13.123C23.3423 8.7778 26.2732 5.11954 30.2652 4.01071C29.4578 3.78648 28.6081 3.66406 27.7293 3.66406C22.5054 3.66406 18.2705 7.89891 18.2705 13.1229C18.2705 18.3469 22.5054 22.5817 27.7293 22.5817C28.6082 22.5817 29.4579 22.4593 30.2652 22.2351C26.2732 21.1265 23.3423 17.4681 23.3423 13.123Z" fill="#616C33"/>
<path d="M53.7594 72.4907C60.7247 72.4907 66.3713 66.8441 66.3713 59.8788C66.3713 52.9134 60.7247 47.2668 53.7594 47.2668C46.794 47.2668 41.1475 52.9134 41.1475 59.8788C41.1475 66.8441 46.794 72.4907 53.7594 72.4907Z" fill="white"/>
<path d="M46.2123 59.8788C46.2123 53.7809 50.5401 48.6939 56.2918 47.5215C55.4737 47.3547 54.6268 47.2668 53.7594 47.2668C46.794 47.2668 41.1475 52.9134 41.1475 59.8788C41.1475 66.8441 46.794 72.4907 53.7594 72.4907C54.6268 72.4907 55.4737 72.4028 56.2918 72.236C50.5401 71.0636 46.2123 65.9766 46.2123 59.8788Z" fill="#616C33"/>
<path d="M39.0569 43.396C39.0569 39.6289 37.751 35.9457 35.3801 33.0246C34.9876 32.541 34.2772 32.4673 33.7935 32.8596C33.3098 33.2522 33.236 33.9626 33.6285 34.4463C35.6743 36.9665 36.801 40.145 36.801 43.396C36.801 51.2327 30.4252 57.6085 22.5885 57.6085C14.7518 57.6085 8.37598 51.2327 8.37598 43.396C8.37598 35.5592 14.7518 29.1833 22.5885 29.1833C25.1887 29.1833 27.7322 29.8918 29.9435 31.2323C30.4763 31.555 31.1698 31.3851 31.4928 30.8524C31.8157 30.3197 31.6456 29.6261 31.1129 29.3031C28.5488 27.7489 25.6011 26.9275 22.5885 26.9275C13.5078 26.9275 6.12012 34.3153 6.12012 43.396C6.12012 52.4768 13.5079 59.8644 22.5885 59.8644C31.6691 59.8644 39.0569 52.4768 39.0569 43.396Z" fill="black"/>
<path d="M29.3824 47.7601C29.9486 48.0207 30.6182 47.773 30.8787 47.2072C31.4324 46.0047 31.713 44.7225 31.713 43.3959C31.713 38.3646 27.6198 34.2712 22.5885 34.2712C17.5572 34.2712 13.4639 38.3647 13.4639 43.396C13.4639 48.4274 17.5572 52.5205 22.5885 52.5205C24.0371 52.5205 25.425 52.1886 26.7137 51.534C27.2691 51.252 27.4908 50.573 27.2087 50.0176C26.9265 49.4624 26.2475 49.2404 25.6923 49.5228C24.723 50.0149 23.6787 50.2647 22.5885 50.2647C18.8011 50.2647 15.7197 47.1835 15.7197 43.396C15.7197 39.6085 18.8011 36.5273 22.5885 36.5273C26.376 36.5273 29.4572 39.6085 29.4572 43.396C29.4572 44.3945 29.246 45.3594 28.8296 46.2638C28.569 46.8298 28.8165 47.4996 29.3824 47.7601Z" fill="black"/>
<path d="M51.6375 41.0968C58.4685 41.0968 64.026 35.5393 64.026 28.7083C64.026 21.8772 58.4685 16.3198 51.6375 16.3198C44.8064 16.3198 39.249 21.8772 39.249 28.7083C39.249 35.5393 44.8066 41.0968 51.6375 41.0968ZM51.6375 18.5757C57.2246 18.5757 61.7702 23.1212 61.7702 28.7083C61.7702 34.2954 57.2246 38.841 51.6375 38.841C46.0504 38.841 41.5049 34.2954 41.5049 28.7083C41.5049 23.1211 46.0504 18.5757 51.6375 18.5757Z" fill="black"/>
<path d="M51.6372 34.732C53.4953 34.732 55.2211 33.893 56.3722 32.4298C56.7575 31.9402 56.6727 31.2311 56.1832 30.8459C55.6935 30.4608 54.9844 30.5453 54.5993 31.035C53.8787 31.9509 52.7989 32.4762 51.6372 32.4762C49.5595 32.4762 47.8691 30.7859 47.8691 28.7081C47.8691 26.6303 49.5594 24.9401 51.6372 24.9401C53.0536 24.9401 54.3374 25.7239 54.9879 26.9856C55.2732 27.5394 55.9538 27.7569 56.5073 27.4712C57.061 27.1859 57.2785 26.5055 56.9929 25.9518C55.954 23.9362 53.9016 22.6841 51.6372 22.6841C48.3156 22.6841 45.6133 25.3865 45.6133 28.708C45.6133 32.0295 48.3158 34.732 51.6372 34.732Z" fill="black"/>
<path d="M49.1004 14.3582C52.2504 14.3582 54.8132 11.7954 54.8132 8.64551C54.8132 5.49557 52.2505 2.93262 49.1004 2.93262C45.9504 2.93262 43.3877 5.49542 43.3877 8.64536C43.3877 11.7953 45.9505 14.3582 49.1004 14.3582ZM49.1004 5.18848C51.0066 5.18848 52.5573 6.7393 52.5573 8.64536C52.5573 10.5514 51.0065 12.1022 49.1004 12.1022C47.1944 12.1022 45.6436 10.5516 45.6436 8.64536C45.6436 6.73915 47.1944 5.18848 49.1004 5.18848Z" fill="black"/>
<path d="M29.7041 61.585C26.554 61.585 23.9912 64.1478 23.9912 67.2977C23.9912 70.4476 26.554 73.0104 29.7041 73.0104C32.8542 73.0104 35.4168 70.4476 35.4168 67.2977C35.4168 64.1478 32.854 61.585 29.7041 61.585ZM29.7041 70.7547C27.7979 70.7547 26.2471 69.2039 26.2471 67.2979C26.2471 65.3918 27.7979 63.841 29.7041 63.841C31.6103 63.841 33.161 65.3918 33.161 67.2979C33.161 69.2039 31.6102 70.7547 29.7041 70.7547Z" fill="black"/>
<path d="M15.7344 14.2509H17.2032C17.3216 15.3636 17.6147 16.4245 18.0517 17.4077L16.7773 18.1434C16.2379 18.4549 16.0531 19.1447 16.3645 19.6842C16.5734 20.046 16.9525 20.2483 17.3424 20.2483C17.5336 20.2483 17.7277 20.1996 17.9053 20.097L19.1821 19.3598C19.8288 20.2435 20.6084 21.0233 21.4922 21.6699L20.755 22.9468C20.4436 23.4862 20.6284 24.176 21.1678 24.4875C21.3454 24.5901 21.5395 24.6388 21.7307 24.6388C22.1206 24.6388 22.4997 24.4365 22.7086 24.0747L23.4445 22.8003C24.4279 23.2375 25.4886 23.5304 26.6014 23.6488V25.1176C26.6014 25.7407 27.1065 26.2456 27.7294 26.2456C28.3523 26.2456 28.8573 25.7407 28.8573 25.1176V23.6488C29.97 23.5304 31.0309 23.2373 32.0143 22.8003L32.7502 24.0747C32.9591 24.4365 33.3382 24.6388 33.728 24.6388C33.9193 24.6388 34.1133 24.5901 34.2909 24.4875C34.8304 24.176 35.0152 23.4862 34.7037 22.9468L33.9665 21.6699C34.8502 21.0233 35.63 20.2435 36.2767 19.3598L37.5535 20.097C37.7311 20.1996 37.9251 20.2483 38.1164 20.2483C38.5062 20.2483 38.8854 20.046 39.0942 19.6842C39.4057 19.1447 39.2209 18.4549 38.6814 18.1434L37.407 17.4077C37.844 16.4243 38.1372 15.3636 38.2555 14.2509H39.7244C40.3475 14.2509 40.8523 13.746 40.8523 13.1229C40.8523 12.4999 40.3475 11.995 39.7244 11.995H38.2555C38.1372 10.8821 37.8441 9.82141 37.4069 8.83801L38.6813 8.10214C39.2207 7.79069 39.4056 7.10084 39.0941 6.56139C38.7826 6.02179 38.0928 5.83726 37.5533 6.14857L36.2765 6.88579C35.63 6.00209 34.8502 5.22247 33.9665 4.57579L34.7037 3.29897C35.0152 2.75952 34.8304 2.06968 34.2909 1.75822C33.7513 1.44676 33.0615 1.63144 32.7502 2.17104L32.0143 3.44545C31.0309 3.00826 29.9702 2.7153 28.8573 2.59695V1.12793C28.8573 0.504861 28.3523 0 27.7294 0C27.1065 0 26.6014 0.504861 26.6014 1.12793V2.59679C25.4887 2.71515 24.4279 3.00826 23.4445 3.4453L22.7086 2.17089C22.3971 1.63129 21.7073 1.44676 21.1678 1.75807C20.6284 2.06953 20.4436 2.75937 20.755 3.29882L21.4922 4.57563C20.6085 5.22216 19.8288 6.00194 19.1822 6.88563L17.9054 6.14842C17.3658 5.83711 16.6761 6.02164 16.3647 6.56124C16.0532 7.10069 16.238 7.79054 16.7775 8.10199L18.0519 8.83786C17.6147 9.82126 17.3217 10.8821 17.2032 11.9949H15.7344C15.1115 11.9949 14.6064 12.4997 14.6064 13.1228C14.6064 13.7459 15.1115 14.2509 15.7344 14.2509ZM27.7294 4.7919C32.3231 4.7919 36.0604 8.52925 36.0604 13.1229C36.0604 17.7166 32.3232 21.454 27.7294 21.454C23.1355 21.454 19.3983 17.7166 19.3983 13.1229C19.3983 8.52925 23.1355 4.7919 27.7294 4.7919Z" fill="black"/>
<path d="M31.4394 10.541C31.728 10.541 32.0168 10.4309 32.2369 10.2107L33.1555 9.29215C33.596 8.85151 33.596 8.13745 33.1555 7.69696C32.715 7.25661 32.0008 7.25661 31.5605 7.69696L30.6419 8.61554C30.2014 9.05619 30.2014 9.77024 30.6419 10.2107C30.8621 10.4308 31.1507 10.541 31.4394 10.541Z" fill="black"/>
<path d="M23.2218 16.0351L22.303 16.9537C21.8625 17.3942 21.8625 18.1084 22.303 18.5488C22.5233 18.7691 22.8119 18.8792 23.1007 18.8792C23.3894 18.8792 23.678 18.7691 23.8982 18.5489L24.817 17.6303C25.2575 17.1898 25.2575 16.4756 24.817 16.0353C24.3765 15.5946 23.6623 15.5948 23.2218 16.0351Z" fill="black"/>
<path d="M31.8477 13.123C31.8477 13.7461 32.3527 14.251 32.9756 14.251H34.2748C34.8977 14.251 35.4027 13.7461 35.4027 13.123C35.4027 12.5 34.8977 11.9951 34.2748 11.9951H32.9756C32.3527 11.9951 31.8477 12.5 31.8477 13.123Z" fill="black"/>
<path d="M21.1836 14.251H22.4828C23.1057 14.251 23.6107 13.7461 23.6107 13.123C23.6107 12.5 23.1057 11.9951 22.4828 11.9951H21.1836C20.5607 11.9951 20.0557 12.5 20.0557 13.123C20.0557 13.7461 20.5607 14.251 21.1836 14.251Z" fill="black"/>
<path d="M27.7295 17.2417C27.1066 17.2417 26.6016 17.7466 26.6016 18.3696V19.6689C26.6016 20.2919 27.1066 20.7968 27.7295 20.7968C28.3524 20.7968 28.8574 20.2919 28.8574 19.6689V18.3696C28.8574 17.7466 28.3524 17.2417 27.7295 17.2417Z" fill="black"/>
<path d="M27.7295 9.0043C28.3524 9.0043 28.8574 8.49944 28.8574 7.87637V6.57715C28.8574 5.95408 28.3524 5.44922 27.7295 5.44922C27.1066 5.44922 26.6016 5.95408 26.6016 6.57715V7.87637C26.6016 8.49944 27.1066 9.0043 27.7295 9.0043Z" fill="black"/>
<path d="M23.2217 10.2105C23.442 10.4307 23.7306 10.5408 24.0192 10.5408C24.3078 10.5408 24.5966 10.4307 24.8169 10.2104C25.2574 9.76988 25.2572 9.05568 24.8169 8.61534L23.8982 7.69675C23.4575 7.25641 22.7436 7.25626 22.303 7.6969C21.8625 8.13739 21.8626 8.8516 22.303 9.29194L23.2217 10.2105Z" fill="black"/>
<path d="M32.2369 16.0353C31.7964 15.595 31.0822 15.595 30.6419 16.0353C30.2014 16.476 30.2014 17.19 30.6419 17.6305L31.5605 18.5491C31.7807 18.7693 32.0694 18.8794 32.358 18.8794C32.6466 18.8794 32.9354 18.7693 33.1555 18.5491C33.596 18.1085 33.596 17.3944 33.1555 16.9539L32.2369 16.0353Z" fill="black"/>
<path d="M28.3118 14.3219C28.532 14.5421 28.8207 14.6522 29.1093 14.6522C29.3979 14.6522 29.6867 14.5421 29.9069 14.3219L30.7101 13.5187C31.1506 13.0781 31.1506 12.364 30.7101 11.9235C30.2696 11.4832 29.5554 11.4832 29.1151 11.9235L28.3118 12.7268C27.8713 13.1674 27.8713 13.8815 28.3118 14.3219Z" fill="black"/>
<path d="M24.7474 13.519L25.5506 14.3222C25.7709 14.5424 26.0595 14.6525 26.3481 14.6525C26.6367 14.6525 26.9255 14.5424 27.1458 14.3221C27.5863 13.8816 27.5861 13.1674 27.1458 12.727L26.3426 11.9238C25.9019 11.4835 25.1879 11.4833 24.7474 11.924C24.3069 12.3643 24.3069 13.0785 24.7474 13.519Z" fill="black"/>
<path d="M69.7521 58.7509H67.452C67.3145 57.0669 66.8721 55.4683 66.1801 54.0096L68.1734 52.8589C68.7129 52.5474 68.8977 51.8576 68.5862 51.3181C68.2749 50.7787 67.5846 50.594 67.0455 50.9053L65.0489 52.058C64.109 50.7051 62.9324 49.5288 61.5797 48.5887L62.7324 46.5921C63.0439 46.0526 62.8591 45.3628 62.3196 45.0513C61.7799 44.7399 61.0902 44.9245 60.7789 45.4641L59.6281 47.4573C58.1696 46.7653 56.5708 46.3229 54.8869 46.1854V43.8855C54.8869 43.2624 54.382 42.7576 53.7589 42.7576C53.1359 42.7576 52.631 43.2624 52.631 43.8855V46.1856C50.9471 46.323 49.3483 46.7655 47.8898 47.4574L46.739 45.4643C46.4275 44.9248 45.7374 44.7402 45.1982 45.0515C44.6588 45.3629 44.474 46.0528 44.7854 46.5922L45.9382 48.5888C44.5852 49.5289 43.4089 50.7053 42.4689 52.0582L40.4724 50.9054C39.9326 50.594 39.2429 50.7787 38.9316 51.3183C38.6201 51.8577 38.805 52.5475 39.3444 52.859L41.3377 54.0098C40.6458 55.4683 40.2033 57.0671 40.0658 58.751H37.7656C37.1427 58.751 36.6377 59.2559 36.6377 59.8789C36.6377 60.502 37.1427 61.0069 37.7656 61.0069H40.0658C40.2033 62.6906 40.6458 64.2894 41.3377 65.7479L39.3444 66.8987C38.805 67.2102 38.6201 67.9 38.9316 68.4395C39.1405 68.8013 39.5196 69.0036 39.9094 69.0036C40.1007 69.0036 40.2949 68.9549 40.4724 68.8523L42.4689 67.6995C43.4089 69.0525 44.5854 70.229 45.9383 71.1689L44.7856 73.1655C44.4741 73.7049 44.6589 74.3948 45.1984 74.7062C45.3761 74.8088 45.57 74.8575 45.7613 74.8575C46.1511 74.8575 46.5302 74.6553 46.7391 74.2934L47.8899 72.3001C49.3484 72.9921 50.9472 73.4345 52.631 73.572V75.8721C52.631 76.4951 53.1359 77 53.7589 77C54.382 77 54.8869 76.4951 54.8869 75.8721V73.572C56.5708 73.4345 58.1694 72.9921 59.6279 72.3001L60.7787 74.2934C60.9877 74.6553 61.3667 74.8575 61.7565 74.8575C61.9478 74.8575 62.142 74.8088 62.3195 74.7062C62.8589 74.3948 63.0437 73.7049 62.7323 73.1655L61.5795 71.1689C62.9324 70.2288 64.1088 69.0525 65.0489 67.6995L67.0455 68.8523C67.2232 68.9549 67.4171 69.0036 67.6084 69.0036C67.9982 69.0036 68.3773 68.8013 68.5862 68.4395C68.8977 67.9 68.7129 67.2102 68.1734 66.8987L66.1801 65.7479C66.8721 64.2894 67.3145 62.6908 67.452 61.0069H69.7521C70.3751 61.0069 70.88 60.502 70.88 59.8789C70.88 59.2559 70.375 58.7509 69.7521 58.7509ZM53.7588 71.3628C47.4266 71.3628 42.2749 66.2111 42.2749 59.8789C42.2749 53.5467 47.4266 48.395 53.7588 48.395C60.091 48.395 65.2426 53.5467 65.2426 59.8789C65.2426 66.2111 60.091 71.3628 53.7588 71.3628Z" fill="black"/>
<path d="M58.706 56.0602C58.9946 56.0602 59.2834 55.9501 59.5037 55.73L60.7286 54.505C61.1691 54.0644 61.1691 53.3503 60.7286 52.9098C60.288 52.4695 59.5739 52.4695 59.1334 52.9098L57.9085 54.1348C57.468 54.5754 57.468 55.2895 57.9085 55.73C58.1287 55.95 58.4174 56.0602 58.706 56.0602Z" fill="black"/>
<path d="M48.0153 64.0278L46.7903 65.2527C46.3498 65.6933 46.3498 66.4074 46.7903 66.8479C47.0107 67.0681 47.2994 67.1781 47.588 67.1781C47.8766 67.1781 48.1654 67.0681 48.3857 66.8479L49.6106 65.623C50.0511 65.1823 50.0511 64.4683 49.6106 64.0278C49.1698 63.5874 48.4558 63.5874 48.0153 64.0278Z" fill="black"/>
<path d="M62.4872 58.7507H60.7549C60.1318 58.7507 59.627 59.2556 59.627 59.8787C59.627 60.5017 60.1318 61.0066 60.7549 61.0066H62.4872C63.1103 61.0066 63.6152 60.5017 63.6152 59.8787C63.6152 59.2556 63.1103 58.7507 62.4872 58.7507Z" fill="black"/>
<path d="M47.8915 59.8787C47.8915 59.2556 47.3867 58.7507 46.7636 58.7507H45.0312C44.4082 58.7507 43.9033 59.2556 43.9033 59.8787C43.9033 60.5017 44.4082 61.0066 45.0312 61.0066H46.7636C47.3867 61.0066 47.8915 60.5017 47.8915 59.8787Z" fill="black"/>
<path d="M53.7588 65.7463C53.1357 65.7463 52.6309 66.2512 52.6309 66.8743V68.6066C52.6309 69.2297 53.1357 69.7345 53.7588 69.7345C54.3819 69.7345 54.8867 69.2297 54.8867 68.6066V66.8743C54.8867 66.2512 54.3817 65.7463 53.7588 65.7463Z" fill="black"/>
<path d="M53.7588 54.0114C54.3819 54.0114 54.8867 53.5065 54.8867 52.8835V51.1511C54.8867 50.5281 54.3819 50.0232 53.7588 50.0232C53.1357 50.0232 52.6309 50.5281 52.6309 51.1511V52.8835C52.6309 53.5064 53.1357 54.0114 53.7588 54.0114Z" fill="black"/>
<path d="M48.0151 55.7297C48.2354 55.9499 48.5242 56.06 48.8128 56.06C49.1014 56.06 49.3901 55.9499 49.6105 55.7297C50.051 55.2891 50.051 54.575 49.6105 54.1345L48.3855 52.9096C47.9449 52.4693 47.2308 52.4693 46.7903 52.9096C46.3498 53.3502 46.3498 54.0643 46.7903 54.5048L48.0151 55.7297Z" fill="black"/>
<path d="M59.5037 64.0278C59.063 63.5874 58.349 63.5874 57.9085 64.0278C57.468 64.4684 57.468 65.1825 57.9085 65.623L59.1334 66.8479C59.3538 67.0681 59.6425 67.1781 59.9311 67.1781C60.2197 67.1781 60.5085 67.0681 60.7288 66.8479C61.1693 66.4072 61.1693 65.6932 60.7288 65.2527L59.5037 64.0278Z" fill="black"/>
<path d="M57.4682 58.5456C57.0275 58.1052 56.3135 58.1052 55.873 58.5456L54.8021 59.6165C54.3616 60.0572 54.3616 60.7712 54.8021 61.2117C55.0224 61.4319 55.3111 61.542 55.5997 61.542C55.8883 61.542 56.1771 61.4319 56.3974 61.2117L57.4683 60.1408C57.9087 59.7003 57.9087 58.9862 57.4682 58.5456Z" fill="black"/>
<path d="M52.7162 59.6165L51.6453 58.5456C51.2046 58.1052 50.4906 58.1052 50.0501 58.5456C49.6096 58.9862 49.6096 59.7003 50.0501 60.1408L51.121 61.2117C51.3414 61.4319 51.6301 61.542 51.9187 61.542C52.2073 61.542 52.4961 61.4319 52.7164 61.2117C53.1567 60.7712 53.1567 60.0572 52.7162 59.6165Z" fill="black"/>
</g>
<defs>
<clipPath id="clip0_348_85">
<rect width="77" height="77" fill="white"/>
</clipPath>
</defs>
</svg>
