<svg width="42" height="42" viewBox="0 0 42 42" fill="none" xmlns="http://www.w3.org/2000/svg">
<path d="M18.2229 35.0314C18.218 35.0314 18.2122 35.0314 18.2073 35.0314C18.0039 35.0273 17.8119 34.9404 17.6741 34.7911L3.60901 19.4972C3.36784 19.2347 3.34569 18.8393 3.55651 18.5513C3.76733 18.2642 4.15124 18.1658 4.47444 18.3167L17.3476 24.3444C17.4559 24.3952 17.5839 24.3706 17.6667 24.2845L37.3033 3.7611C37.5691 3.48302 38.0039 3.45267 38.3058 3.6922C38.6076 3.93173 38.6774 4.36157 38.4665 4.68395L18.9333 34.6073C18.9054 34.6508 18.8726 34.6902 18.8365 34.7271L18.7503 34.8132C18.6101 34.9527 18.4198 35.0314 18.2229 35.0314Z" fill="#616C33"/>
</svg>
