<svg width="34" height="34" viewBox="0 0 34 34" fill="none" xmlns="http://www.w3.org/2000/svg">
<path d="M34 6.37739C34 5.6132 33.3598 5.03137 32.6695 5.04719H6.37499C5.1929 5.04719 4.59862 6.48452 5.44011 7.31849L15.1095 16.9041L5.43051 26.6915C4.60277 27.5286 5.19783 28.9534 6.37499 28.9534H32.6719C33.399 28.9534 33.9979 28.3602 33.9997 27.6289C33.9997 27.6277 34 27.6266 34 27.6253V6.37739ZM31.3437 24.3935L23.9374 16.9041L31.3437 9.56204V24.3935ZM9.6014 7.70344H29.4455L19.5234 17.5393L9.6014 7.70344ZM16.9958 18.7741L18.5883 20.3528C19.1061 20.8659 19.9405 20.8659 20.4583 20.3528L22.0508 18.7741L29.4906 26.2972H9.55626L16.9958 18.7741Z" fill="#616C33"/>
<path d="M3.01025 13.2815H6.37492C7.10851 13.2815 7.70305 12.687 7.70305 11.9534C7.70305 11.2198 7.10851 10.6252 6.37492 10.6252H3.01025C2.27667 10.6252 1.68213 11.2198 1.68213 11.9534C1.68213 12.687 2.27693 13.2815 3.01025 13.2815Z" fill="#616C33"/>
<path d="M6.02092 17.0002C6.02092 16.2667 5.42638 15.6721 4.69279 15.6721H1.32812C0.594543 15.6721 0 16.2667 0 17.0002C0 17.7338 0.594543 18.3284 1.32812 18.3284H4.69279C5.42612 18.3284 6.02092 17.7338 6.02092 17.0002Z" fill="#616C33"/>
<path d="M7.70305 22.0471C7.70305 21.3135 7.10851 20.719 6.37492 20.719H3.01025C2.27667 20.719 1.68213 21.3135 1.68213 22.0471C1.68213 22.7807 2.27667 23.3752 3.01025 23.3752H6.37492C7.10851 23.3752 7.70305 22.7807 7.70305 22.0471Z" fill="#616C33"/>
</svg>
