<svg width="98" height="67" viewBox="0 0 98 67" fill="none" xmlns="http://www.w3.org/2000/svg">
<path d="M71.127 56.6868L60.1709 37.7104H33.2544L22.2983 56.6868C21.6341 57.8372 21.4088 59.0712 21.5323 60.2424H45.1409V64.5466C45.1409 65.103 44.6898 65.5541 44.1334 65.5541H66.0073C70.5581 65.5543 73.4024 60.6279 71.127 56.6868Z" fill="#616C33"/>
<path d="M12.2583 34.7576L16.0411 38.5404C17.7291 40.2284 20.4913 40.2284 22.1791 38.5404C23.8671 36.8524 23.8671 34.0902 22.1791 32.4024L18.3963 28.6196L12.2583 34.7576Z" fill="#58469C"/>
<path d="M97.7102 23.6572C97.2841 22.8614 96.4588 22.367 95.5561 22.367H75.415C74.622 22.367 73.9795 23.0095 73.9795 23.8025C73.9795 24.5955 74.622 25.2381 75.415 25.2381H94.7566L91.8689 29.5694C91.3789 30.3042 91.1201 31.1594 91.1201 32.0427V49.5763H68.6789L62.0045 38.016V25.8176C62.0045 25.498 62.2646 25.2381 62.5843 25.2381H68.7148C69.5078 25.2381 70.1504 24.5955 70.1504 23.8025C70.1504 23.0095 69.5078 22.367 68.7148 22.367H62.5845C60.6817 22.367 59.1336 23.9151 59.1336 25.8176V33.0428L55.3457 26.482C55.0299 25.9348 54.863 25.3119 54.863 24.6805V8.83397C56.9139 8.43412 58.467 6.62476 58.467 4.45862C58.467 2.00001 56.4669 0 54.0085 0H39.4172C36.9588 0 34.9588 2.00001 34.9588 4.45862C34.9588 6.62476 36.5119 8.43412 38.5628 8.83397V12.2489C38.5628 13.0418 39.2054 13.6844 39.9984 13.6844C40.7914 13.6844 41.4339 13.0418 41.4339 12.2489V8.91685H43.3277C44.1207 8.91685 44.7632 8.2743 44.7632 7.48131C44.7632 6.68831 44.1207 6.04576 43.3277 6.04576H39.4172C38.5419 6.04576 37.8299 5.33354 37.8299 4.45843C37.8299 3.58313 38.5419 2.8709 39.4172 2.8709H54.0085C54.8838 2.8709 55.5959 3.58313 55.5959 4.45843C55.5959 5.33354 54.8838 6.04576 54.0085 6.04576H50.381C49.588 6.04576 48.9454 6.68831 48.9454 7.48131C48.9454 8.2743 49.588 8.91685 50.381 8.91685H51.9919V24.6803C51.9919 25.8148 52.2916 26.9339 52.8591 27.9172L57.6847 36.2751H35.7409L40.5664 27.9172C41.134 26.9343 41.4337 25.8152 41.4337 24.6803V18.9481C41.4337 18.1551 40.7912 17.5125 39.9982 17.5125C39.2052 17.5125 38.5626 18.1551 38.5626 18.9481V24.6803C38.5626 25.3119 38.3957 25.9348 38.0801 26.4816L24.9492 49.2247H15.9824C15.1894 49.2247 14.5469 49.8673 14.5469 50.6603C14.5469 51.4533 15.1894 52.0958 15.9824 52.0958H23.2915L21.0553 55.9691C20.5429 56.8568 20.2263 57.8183 20.1128 58.8069H2.87109V52.0958H9.2832C10.0762 52.0958 10.7188 51.4533 10.7188 50.6603C10.7188 49.8673 10.0762 49.2247 9.2832 49.2247H2.4433C1.09618 49.2249 0 50.3209 0 51.668V64.5468C0 65.8939 1.09618 66.9901 2.4433 66.9901H87.956H87.9569C91.2843 66.9901 93.9912 64.283 93.9912 60.9558V32.0426C93.9912 31.7279 94.0833 31.4237 94.2578 31.1619L97.5892 26.165C98.0898 25.414 98.1361 24.4529 97.7102 23.6572ZM43.7055 64.119H2.87109V61.6782H43.7055V64.119ZM43.7055 58.8071H23.0177C23.1115 58.3213 23.2855 57.8483 23.5416 57.4048L26.6068 52.096H43.7055V58.8071ZM69.8836 61.8811C69.0743 63.2823 67.6254 64.119 66.0072 64.119H46.5766V51.668C46.5766 50.3209 45.4804 49.2247 44.1333 49.2247H28.2644L34.0833 39.1462H59.3421L69.8836 57.4048C70.6928 58.8061 70.6928 60.4794 69.8836 61.8811ZM91.1191 60.9558C91.1191 62.6999 89.7001 64.119 87.956 64.119H71.8357C72.0285 63.8658 72.2074 63.5984 72.3701 63.3166C73.6981 61.0161 73.6981 58.2696 72.3701 55.9693L70.3366 52.4472H91.1191V60.9558Z" fill="black"/>
<path d="M80.8118 32.4956H84.0362C84.8292 32.4956 85.4717 31.8531 85.4717 31.0601C85.4717 30.2671 84.8292 29.6245 84.0362 29.6245H80.8118C80.0188 29.6245 79.3762 30.2671 79.3762 31.0601C79.3762 31.8531 80.019 32.4956 80.8118 32.4956Z" fill="black"/>
<path d="M80.8118 39.146H84.0362C84.8292 39.146 85.4717 38.5034 85.4717 37.7104C85.4717 36.9175 84.8292 36.2749 84.0362 36.2749H80.8118C80.0188 36.2749 79.3762 36.9175 79.3762 37.7104C79.3762 38.5034 80.019 39.146 80.8118 39.146Z" fill="black"/>
<path d="M80.8118 45.7969H84.0362C84.8292 45.7969 85.4717 45.1543 85.4717 44.3613C85.4717 43.5683 84.8292 42.9258 84.0362 42.9258H80.8118C80.0188 42.9258 79.3762 43.5683 79.3762 44.3613C79.3762 45.1543 80.019 45.7969 80.8118 45.7969Z" fill="black"/>
<path d="M80.8118 59.0977H84.0362C84.8292 59.0977 85.4717 58.4551 85.4717 57.6621C85.4717 56.8691 84.8292 56.2266 84.0362 56.2266H80.8118C80.0188 56.2266 79.3762 56.8691 79.3762 57.6621C79.3762 58.4551 80.019 59.0977 80.8118 59.0977Z" fill="black"/>
<path d="M15.0259 39.5557C16.152 40.6816 17.631 41.2445 19.11 41.2445C20.5892 41.2445 22.0681 40.6816 23.1944 39.5555C25.4463 37.3034 25.4463 33.6393 23.1944 31.3873L15.6289 23.8217C14.5411 22.7342 13.0906 22.1353 11.5446 22.1353C9.99845 22.1353 8.54798 22.7342 7.4606 23.8217C6.37284 24.9093 5.77393 26.3598 5.77393 27.906C5.77393 29.4519 6.37284 30.9024 7.46041 31.9902L15.0259 39.5557ZM21.1639 33.4177C22.2965 34.5501 22.2965 36.3929 21.1641 37.5255C20.0316 38.658 18.1887 38.658 17.0562 37.5255L14.2884 34.7577L18.3962 30.65L21.1639 33.4177ZM9.49065 25.8518C10.036 25.3065 10.7652 25.0063 11.5444 25.0063C12.3237 25.0063 13.0531 25.3065 13.5982 25.852L16.3658 28.6195L12.258 32.7273L9.49065 29.9597C8.94514 29.4144 8.64502 28.6852 8.64502 27.906C8.64502 27.1267 8.94514 26.3973 9.49065 25.8518Z" fill="black"/>
</svg>
