<svg width="83" height="83" viewBox="0 0 83 83" fill="none" xmlns="http://www.w3.org/2000/svg">
<path d="M54.6964 1.21582H23.5007C19.1484 1.21582 15.6201 4.74413 15.6201 9.09644V35.7083C15.6201 38.2865 16.1844 40.8336 17.2736 43.1704L19.5545 48.0646V57.7312C19.5545 61.0786 22.2681 63.7921 25.6155 63.7921H52.5819C55.9293 63.7921 58.6428 61.0786 58.6428 57.7312V48.0646L60.9237 43.1704C62.0127 40.8334 62.5772 38.2865 62.5772 35.7083V9.09644C62.577 4.74413 59.0487 1.21582 54.6964 1.21582Z" fill="white"/>
<path d="M54.6959 1.21582H50.2378C54.5901 1.21582 58.1184 4.74413 58.1184 9.09644V35.7083C58.1184 38.2865 57.5541 40.8334 56.4649 43.1704L54.184 48.0646V57.7312C54.184 61.0786 51.4704 63.7921 48.123 63.7921H52.5812C55.9286 63.7921 58.6422 61.0786 58.6422 57.7312V48.0646L60.9232 43.1704C62.0123 40.8334 62.5767 38.2865 62.5767 35.7083V9.09644C62.5766 4.74413 59.0482 1.21582 54.6959 1.21582Z" fill="white"/>
<path d="M58.1189 9.0962V35.7091C58.1189 37.6224 57.6912 39.5523 56.8839 41.2876C56.0369 43.1043 54.214 44.2658 52.2095 44.2658H25.9875C23.983 44.2658 22.1601 43.1043 21.3131 41.2876C20.5058 39.5525 20.0781 37.6226 20.0781 35.7091V9.09636C20.0781 7.20617 21.6104 5.67407 23.5004 5.67407H54.6963C56.5866 5.67391 58.1189 7.20617 58.1189 9.0962Z" fill="white"/>
<path d="M54.6968 5.67407H48.9715C50.8617 5.67407 52.3937 7.20633 52.3937 9.09653V35.7094C52.3937 37.6228 51.9661 39.5527 51.1588 41.2879C50.3118 43.1046 48.4889 44.2662 46.4844 44.2662H52.2099C54.2144 44.2662 56.0373 43.1046 56.8843 41.2879C57.6916 39.5528 58.1193 37.6228 58.1193 35.7094V9.09653C58.1193 7.20633 56.587 5.67407 54.6968 5.67407Z" fill="white"/>
<path d="M46.1165 63.7922H32.0801V80.7993C32.0801 81.3432 32.521 81.7841 33.0649 81.7841H45.1315C45.6754 81.7841 46.1163 81.3432 46.1163 80.7993V63.7922H46.1165Z" fill="white"/>
<path d="M41.5317 63.7922V80.7993C41.5317 81.3432 41.0908 81.7841 40.5469 81.7841H45.1317C45.6755 81.7841 46.1165 81.3432 46.1165 80.7993V63.7922H41.5317Z" fill="white"/>
<path d="M39.0983 74.3528C37.7544 74.3528 36.665 75.4422 36.665 76.786V81.7842H41.5316V76.786C41.5316 75.4422 40.4422 74.3528 39.0983 74.3528Z" fill="#616C33"/>
<path d="M34.3559 58.6511H26.2895C25.5859 58.6511 25.0156 58.0808 25.0156 57.3772V50.1857C25.0156 49.4822 25.5859 48.9119 26.2895 48.9119H34.3559C35.6312 48.9119 36.6651 49.9458 36.6651 51.2211V56.3417C36.6653 57.6171 35.6314 58.6511 34.3559 58.6511Z" fill="#616C33"/>
<path d="M34.3556 48.9121H30.415C31.6904 48.9121 32.7243 49.946 32.7243 51.2214V56.3419C32.7243 57.6172 31.6904 58.6512 30.415 58.6512H34.3556C35.6309 58.6512 36.6648 57.6172 36.6648 56.3419V51.2214C36.665 49.9459 35.6311 48.9121 34.3556 48.9121Z" fill="#616C33"/>
<path d="M51.9079 58.6512H43.8415C42.5662 58.6512 41.5322 57.6172 41.5322 56.3419V51.2214C41.5322 49.946 42.5662 48.9121 43.8415 48.9121H51.9079C52.6114 48.9121 53.1817 49.4824 53.1817 50.186V57.3775C53.1817 58.0809 52.6114 58.6512 51.9079 58.6512Z" fill="#616C33"/>
<path d="M51.9074 48.9121H47.9668C48.6704 48.9121 49.2407 49.4824 49.2407 50.186V57.3775C49.2407 58.081 48.6704 58.6513 47.9668 58.6513H51.9074C52.6109 58.6513 53.1812 58.081 53.1812 57.3775V50.1858C53.1812 49.4824 52.6109 48.9121 51.9074 48.9121Z" fill="#616C33"/>
<path d="M34.7263 17.4499C34.7263 19.5959 32.9867 21.3355 30.8407 21.3355C28.6947 21.3355 26.9551 19.5959 26.9551 17.4499C26.9551 15.3039 30.8407 10.1438 30.8407 10.1438C30.8407 10.1438 34.7263 15.3041 34.7263 17.4499Z" fill="#616C33"/>
<path d="M30.8404 10.1438C30.8404 10.1438 29.8506 11.4587 28.8701 13.0368C29.8322 14.5853 30.7854 16.3871 30.7854 17.4501C30.7854 18.8766 30.0161 20.1229 28.8701 20.7988C29.4479 21.1395 30.1211 21.3357 30.8404 21.3357C32.9864 21.3357 34.726 19.5961 34.726 17.4501C34.726 15.3041 30.8404 10.1438 30.8404 10.1438Z" fill="#58469C"/>
<path d="M62.5771 12.5793H65.482C66.5297 12.5793 67.379 13.4286 67.379 14.4763V18.4111C67.379 19.4588 66.5297 20.3081 65.482 20.3081H62.5771V12.5793Z" fill="white"/>
<path d="M57.9859 41.8006C58.868 39.9048 59.3342 37.7985 59.3342 35.7094V9.09636C59.3342 6.53893 57.2535 4.45825 54.6961 4.45825H23.5004C20.943 4.45825 18.8623 6.53893 18.8623 9.09636V35.7094C18.8623 37.7985 19.3285 39.9048 20.2109 41.8014C21.2533 44.0373 23.5205 45.4818 25.9873 45.4818H52.2093C54.676 45.4818 56.9434 44.0373 57.9859 41.8006ZM52.2092 43.0502H25.9872C24.4616 43.0502 23.0593 42.1566 22.4151 40.7748C21.6815 39.198 21.2938 37.4465 21.2938 35.7094V9.09636C21.2938 7.87973 22.2836 6.88989 23.5003 6.88989H54.6961C55.9127 6.88989 56.9026 7.87973 56.9026 9.09636V35.7094C56.9026 37.4465 56.5148 39.1981 55.7816 40.774C55.137 42.1568 53.7349 43.0502 52.2092 43.0502Z" fill="black"/>
<path d="M26.2895 47.6962C24.9166 47.6962 23.7998 48.8131 23.7998 50.1857V57.3772C23.7998 58.75 24.9167 59.8667 26.2895 59.8667H34.3559C36.2996 59.8667 37.8809 58.2854 37.8809 56.3417V51.2211C37.8809 49.2774 36.2996 47.696 34.3559 47.696H26.2895V47.6962ZM35.4493 51.2213V56.3418C35.4493 56.9449 34.9589 57.4353 34.3559 57.4353H26.2895C26.2575 57.4353 26.2314 57.4093 26.2314 57.3774V54.9975H29.1569C29.8285 54.9975 30.3727 54.4533 30.3727 53.7816C30.3727 53.11 29.8285 52.5658 29.1569 52.5658H26.2314V50.1857C26.2314 50.1538 26.2575 50.1278 26.2895 50.1278H34.3559C34.9588 50.1278 35.4493 50.6182 35.4493 51.2213Z" fill="black"/>
<path d="M43.8415 47.6963C41.8978 47.6963 40.3164 49.2777 40.3164 51.2214V56.3419C40.3164 58.2856 41.8978 59.867 43.8415 59.867H51.9079C53.2808 59.867 54.3976 58.75 54.3976 57.3775V50.1858C54.3976 48.8131 53.2806 47.6963 51.9079 47.6963H43.8415ZM51.9659 50.1858V52.5659H49.0405C48.3689 52.5659 47.8247 53.1101 47.8247 53.7817C47.8247 54.4533 48.3689 54.9975 49.0405 54.9975H51.9659V57.3775C51.9659 57.4094 51.9398 57.4353 51.9079 57.4353H43.8415C43.2384 57.4353 42.748 56.945 42.748 56.3419V51.2214C42.748 50.6183 43.2384 50.1279 43.8415 50.1279H51.9079C51.9398 50.1279 51.9659 50.1539 51.9659 50.1858Z" fill="black"/>
<path d="M46.934 29.9939C46.4533 29.9939 46.0445 30.0205 45.6794 30.0712L46.1815 27.0417H50.1612C50.8329 27.0417 51.3771 26.4975 51.3771 25.8259C51.3771 25.1543 50.8329 24.6101 50.1612 24.6101H45.1506C44.5558 24.6101 44.0483 25.0403 43.9512 25.6272L42.9584 31.6184C42.8835 32.0707 43.0712 32.5257 43.4412 32.7968C43.8108 33.0677 44.3031 33.1067 44.7124 32.8992C44.7228 32.8939 44.764 32.8736 44.8303 32.8438C45.3912 32.5912 45.8407 32.4257 46.9343 32.4257C47.7267 32.4257 48.4641 32.7428 49.0106 33.3185C49.5567 33.8936 49.8348 34.6481 49.7934 35.4427C49.7161 36.9316 48.4865 38.1211 46.9939 38.1513C46.1646 38.1637 45.3683 37.8246 44.8115 37.2099C44.3606 36.7121 43.5918 36.6741 43.0941 37.1248C42.5964 37.5755 42.5581 38.3443 43.009 38.8422C44.0145 39.9526 45.4405 40.5836 46.9359 40.5834C46.9714 40.5834 47.0072 40.5831 47.0431 40.5823C49.804 40.5267 52.0787 38.3244 52.2218 35.5687C52.298 34.1014 51.7838 32.7076 50.7739 31.644C49.778 30.5953 48.3787 29.9939 46.934 29.9939Z" fill="black"/>
<path d="M34.0948 30.9732C34.7009 30.2682 35.0684 29.3524 35.0684 28.3519C35.0684 26.1312 33.2617 24.3245 31.041 24.3245C28.8203 24.3245 27.0135 26.1312 27.0135 28.3519C27.0135 29.3524 27.381 30.268 27.9872 30.9732C26.7621 31.9 25.9688 33.369 25.9688 35.0201C25.9688 37.817 28.2441 40.0924 31.041 40.0924C33.8379 40.0924 36.1134 37.817 36.1134 35.0201C36.1134 33.369 35.32 31.9002 34.0948 30.9732ZM29.4453 28.3521C29.4453 27.4721 30.1612 26.7563 31.0412 26.7563C31.9211 26.7563 32.637 27.4721 32.637 28.3521C32.637 29.232 31.9211 29.9479 31.0412 29.9479C30.1612 29.9479 29.4453 29.2318 29.4453 28.3521ZM31.041 37.6607C29.5851 37.6607 28.4004 36.476 28.4004 35.0201C28.4004 33.564 29.5851 32.3794 31.041 32.3794C32.4971 32.3794 33.6818 33.564 33.6818 35.0201C33.6818 36.4762 32.4972 37.6607 31.041 37.6607Z" fill="black"/>
<path d="M30.8405 22.5513C33.6534 22.5513 35.9419 20.2628 35.9419 17.4499C35.9419 16.3132 35.2462 14.6446 33.8151 12.3488C32.8267 10.7634 31.8529 9.46683 31.8119 9.41236C31.5822 9.10727 31.2224 8.92798 30.8407 8.92798C30.4589 8.92798 30.0992 9.10727 29.8695 9.41236C29.8285 9.46683 28.8545 10.7634 27.8661 12.3488C26.435 14.6446 25.7393 16.3132 25.7393 17.4499C25.7389 20.2628 28.0274 22.5513 30.8405 22.5513ZM30.8405 12.2321C32.2538 14.3029 33.5103 16.5755 33.5103 17.4501C33.5103 18.9222 32.3126 20.1198 30.8405 20.1198C29.3684 20.1198 28.1706 18.9222 28.1706 17.4501C28.1706 16.5755 29.4272 14.3029 30.8405 12.2321Z" fill="black"/>
<path d="M40.6563 13.7952H44.6033C45.2749 13.7952 45.8191 13.251 45.8191 12.5793C45.8191 11.9077 45.2749 11.3635 44.6033 11.3635H40.6563C39.9846 11.3635 39.4404 11.9077 39.4404 12.5793C39.4404 13.251 39.9846 13.7952 40.6563 13.7952Z" fill="black"/>
<path d="M51.111 16.2346H40.6562C39.9846 16.2346 39.4404 16.7788 39.4404 17.4504C39.4404 18.1221 39.9846 18.6663 40.6562 18.6663H51.111C51.7826 18.6663 52.3268 18.1221 52.3268 17.4504C52.3268 16.7788 51.7826 16.2346 51.111 16.2346Z" fill="black"/>
<path d="M65.4819 11.3635H63.793V9.09644C63.793 4.08062 59.7126 0 54.6966 0H23.5009C18.4849 0 14.4043 4.08062 14.4043 9.09644V17.84C14.4043 18.5116 14.9485 19.0558 15.6201 19.0558C16.2917 19.0558 16.8359 18.5116 16.8359 17.84V9.09644C16.8359 5.42142 19.8257 2.43164 23.5007 2.43164H54.6966C58.3716 2.43164 61.3614 5.42142 61.3614 9.09644V12.5792V20.3079V35.7083C61.3614 38.0929 60.829 40.4956 59.8217 42.6568L57.5408 47.5511C57.4657 47.7119 57.427 47.8871 57.427 48.0646V57.7312C57.427 60.4028 55.2536 62.5763 52.5819 62.5763H25.6156C22.9441 62.5763 20.7705 60.4029 20.7705 57.7312V48.0646C20.7705 47.8871 20.7318 47.7119 20.6567 47.5511L18.3758 42.6568C17.3685 40.4956 16.8361 38.0929 16.8361 35.7083V23.5451C16.8361 22.8735 16.2919 22.3293 15.6203 22.3293C14.9487 22.3293 14.4045 22.8735 14.4045 23.5451V35.7083C14.4045 38.4454 15.0156 41.2033 16.1718 43.6839L18.3389 48.3342V57.7314C18.3389 61.7437 21.6032 65.0081 25.6156 65.0081H30.8649V80.7994C30.8649 82.0127 31.8521 83 33.0655 83H45.1321C46.3455 83 47.3328 82.0127 47.3328 80.7994V69.4973C47.3328 68.8256 46.7886 68.2814 46.1169 68.2814C45.4453 68.2814 44.9011 68.8256 44.9011 69.4973V80.5684H42.7478V76.786C42.7478 74.7739 41.1107 73.1368 39.0986 73.1368C37.0865 73.1368 35.4495 74.7739 35.4495 76.786V80.5684H33.2964V65.0081H52.5819C56.5942 65.0081 59.8586 61.7437 59.8586 57.7314V48.3342L62.0257 43.6839C63.182 41.2033 63.793 38.4454 63.793 35.7083V21.5237H65.4819C67.1983 21.5237 68.5947 20.1275 68.5947 18.4111V14.4764C68.5949 12.76 67.1983 11.3635 65.4819 11.3635ZM37.8813 76.786C37.8813 76.1146 38.4274 75.5684 39.0987 75.5684C39.7702 75.5684 40.3163 76.1146 40.3163 76.786V80.5684H37.8813V76.786ZM66.1632 18.4111C66.1632 18.7865 65.8577 19.0921 65.482 19.0921H63.7932V13.7952H65.482C65.8577 13.7952 66.1632 14.1008 66.1632 14.4764V18.4111Z" fill="black"/>
<path d="M39.9884 36.2409C39.3943 35.9288 38.6592 36.1576 38.3468 36.7522L37.4941 38.3762C37.182 38.9707 37.4107 39.7057 38.0054 40.0179C38.1856 40.1126 38.379 40.1575 38.5695 40.1575C39.0067 40.1575 39.4295 39.9206 39.6469 39.5064L40.4996 37.8824C40.8118 37.2881 40.5831 36.553 39.9884 36.2409Z" fill="black"/>
</svg>
