<svg width="95" height="101" viewBox="0 0 95 101" fill="none" xmlns="http://www.w3.org/2000/svg">
<path fill-rule="evenodd" clip-rule="evenodd" d="M51.7185 20.2075C48.226 18.1889 35.1074 23.0048 28.4898 34.4663C25.5646 39.5324 24.3967 45.0434 24.3079 49.7983H49.4774C50.0112 49.0476 50.5118 48.2689 50.9846 47.4572C57.6021 35.9955 55.2162 22.2264 51.7185 20.2075Z" fill="#616C33"/>
<path fill-rule="evenodd" clip-rule="evenodd" d="M9.53205 20.2075C13.0242 18.1889 26.143 23.0048 32.7606 34.4663C35.6856 39.5324 36.8535 45.0434 36.9423 49.7983C28.5008 49.7983 20.237 49.7983 11.7728 49.7983C11.239 49.0476 10.7385 48.2689 10.2658 47.4572C3.6483 35.9955 6.03401 22.2264 9.53205 20.2075Z" fill="#616C33"/>
<path fill-rule="evenodd" clip-rule="evenodd" d="M71.5661 18.1335C68.3409 25.6131 64.9706 35.4396 62.0454 46.3561C61.734 47.5128 61.4337 48.6582 61.1445 49.7984H78.0946C80.9031 39.1768 82.8272 29.2779 83.7449 21.3867C83.8952 20.0854 84.1787 19.9187 85.4354 20.23C87.9159 20.8417 90.4626 19.3458 91.1296 16.8711L92.6149 11.3098C93.2878 8.80738 91.7859 6.2047 89.2836 5.5375L74.7025 1.62808C72.1944 0.95519 69.5976 2.45673 68.9247 4.96466L67.434 10.5202C66.7723 13.0005 68.2293 15.5639 70.6819 16.2758C72.0163 16.6541 72.1277 16.8322 71.5661 18.1335Z" fill="#58469C"/>
<path d="M94.1665 49.7981C94.1665 58.4734 91.8141 66.6093 87.7101 73.5997C83.6058 80.5789 77.7611 86.4069 70.7653 90.4887V93.0302C70.7653 95.0713 69.9311 96.923 68.591 98.2689C67.2505 99.6092 65.3933 100.443 63.358 100.443H30.8087C28.7733 100.443 26.9159 99.6092 25.5756 98.2689C24.2353 96.9232 23.4012 95.0713 23.4012 93.0302V90.4887C16.4055 86.4069 10.5608 80.5789 6.46208 73.5997C2.35256 66.6093 0 58.4734 0 49.7981C0 48.9861 0.661706 48.3244 1.47368 48.3244H9.07575C6.27296 43.4917 4.77711 38.0029 4.62684 32.4197C4.44891 25.763 6.41205 20.3075 8.79777 18.9341C10.2936 18.0664 12.5402 18.2388 14.1642 18.5668C16.1217 18.9617 18.4126 19.7904 20.7763 21.0416C21.4936 21.4198 21.7661 22.3095 21.388 23.0269C21.0098 23.7443 20.1256 24.0223 19.408 23.6441C17.2838 22.5153 15.2706 21.7812 13.5912 21.4418C12.757 21.2749 11.0387 21.0081 10.2658 21.4752C8.69203 22.3872 7.40726 26.7582 7.55734 32.3528C7.6517 35.8228 8.32498 39.2987 9.55952 42.5462C10.3323 44.5872 11.3279 46.5113 12.54 48.3242H23.8903L21.0096 43.2803H14.7982C13.9861 43.2803 13.33 42.6184 13.33 41.8066C13.33 40.9946 13.9863 40.3386 14.7982 40.3386H19.3305L12.8853 29.0439C12.4849 28.3431 12.735 27.4423 13.4358 27.0474C14.1424 26.647 15.0376 26.8916 15.438 27.5979L17.9681 32.0301L19.2026 29.4498C19.553 28.7214 20.4319 28.4098 21.1603 28.7602C21.8889 29.1106 22.2002 29.9836 21.85 30.7122L19.7311 35.1222L23.0789 40.9836C23.1177 41.0448 23.1566 41.1115 23.1899 41.1782L27.2663 48.3242H35.4131C35.2797 46.35 34.9517 44.2647 34.3732 42.1568C33.3833 38.5253 31.7705 35.1942 29.5017 32.208C29.4739 32.1747 29.446 32.1356 29.4182 32.1025C29.1123 31.7076 28.801 31.3184 28.484 30.9458C27.2828 29.5333 25.998 28.2821 24.6799 27.1865C24.0572 26.6693 23.9736 25.7406 24.491 25.1233C25.0081 24.5004 25.9313 24.4115 26.5542 24.9287C27.9778 26.1132 29.3515 27.4478 30.6248 28.9326C33.6558 25.4013 37.237 22.7431 40.6126 20.9747C45.5898 18.3665 50.3112 17.6993 52.4466 18.9339C53.2029 19.3731 53.8869 20.1184 54.4598 21.1138C54.9602 21.987 55.3995 23.0991 55.7553 24.3892C55.9666 25.1735 55.5052 25.9798 54.7266 26.1911C53.948 26.4024 53.1419 25.9407 52.9249 25.1623C52.6469 24.1334 52.2965 23.2604 51.9073 22.5763C51.5846 22.0203 51.2733 21.6419 50.9896 21.4752C49.6381 20.6967 46.0624 21.4251 41.9639 23.5717C38.7495 25.2624 35.3184 27.8372 32.4711 31.3017C34.6398 34.3715 36.208 37.7414 37.2034 41.3895C37.8485 43.7585 38.2102 46.1054 38.3491 48.3242H48.7094C49.0598 47.8014 49.399 47.2676 49.7103 46.7226C51.0842 44.3424 52.0517 41.8623 52.6856 39.4209C53.4142 36.6236 53.7143 33.8822 53.7033 31.3853C53.6978 30.5733 54.3539 29.9171 55.1603 29.9114C55.9723 29.9114 56.6285 30.5621 56.6342 31.3741C56.6454 34.1045 56.3174 37.1076 55.5274 40.155C54.7766 43.0301 53.67 45.755 52.1741 48.3242H60.0096C60.2097 47.5401 60.4153 46.7616 60.6211 45.9775C62.1617 40.244 63.8245 34.7997 65.5261 29.828C67.061 25.3457 68.6293 21.2415 70.1752 17.6546C68.6348 17.182 67.4 16.1476 66.6438 14.8352C65.8487 13.4617 65.5762 11.7877 66.0154 10.1416L67.506 4.58607C68.3846 1.29951 71.7991 -0.669323 75.0802 0.209355L89.6612 4.11328C92.9423 4.99196 94.9164 8.40643 94.0378 11.6875L92.5472 17.2487C92.108 18.8948 91.0347 20.2073 89.661 20.9969C88.3486 21.7588 86.7582 22.0368 85.19 21.681C85.0454 22.8988 84.8784 24.1555 84.695 25.4403C84.4282 27.2865 84.1002 29.2775 83.7165 31.4074C83.5719 32.2027 82.8154 32.731 82.0146 32.5919C81.2195 32.4474 80.6912 31.6856 80.8303 30.8903C81.1864 28.9162 81.5032 26.9585 81.7867 25.0289C82.0594 23.127 82.2873 21.3363 82.4541 19.6737C82.5484 18.7783 83.4326 18.1721 84.2946 18.4001L85.7293 18.7838C86.5917 19.0175 87.4701 18.8729 88.1929 18.4611C88.9105 18.044 89.4776 17.3545 89.7056 16.4925L91.1961 10.9314C91.6575 9.20192 90.6286 7.41671 88.8995 6.95511L74.3237 3.04569C72.5942 2.58408 70.8092 3.61303 70.3476 5.34233L68.8572 10.9034C68.6238 11.7654 68.7684 12.644 69.1854 13.3615C69.597 14.0844 70.2864 14.646 71.1484 14.8797L72.583 15.2632C73.5006 15.508 73.94 16.5425 73.5062 17.3709C71.7989 21.1858 70.0363 25.7181 68.3068 30.7732C66.6269 35.6668 64.9865 41.0501 63.4629 46.7391C63.2626 47.4898 63.1183 48.0125 63.0404 48.324H76.9654C77.4159 46.589 77.8272 44.9317 78.2055 43.3468C78.6726 41.4115 79.1175 39.4205 79.5512 37.3851C79.718 36.5898 80.5023 36.0839 81.2919 36.2506C82.0872 36.4174 82.5932 37.2017 82.4262 37.9913C82.0258 39.8654 81.5699 41.8786 81.0583 44.0252C80.7134 45.4767 80.3575 46.9113 79.996 48.324H92.6922C93.51 48.3242 94.1665 48.9861 94.1665 49.7981ZM47.0859 63.267C48.4707 63.267 49.7274 63.8287 50.6339 64.7407C51.546 65.6472 52.1076 66.9039 52.1076 68.2942C52.1076 69.6789 51.5462 70.9358 50.6339 71.8478C49.7274 72.7543 48.4707 73.316 47.0859 73.316C45.6958 73.316 44.4389 72.7543 43.5323 71.8478C42.6203 70.9358 42.0586 69.6789 42.0586 68.2942C42.0586 66.9041 42.6203 65.6472 43.5323 64.7407C44.4389 63.8287 45.6958 63.267 47.0859 63.267ZM48.5541 66.8205C48.1817 66.4423 47.6587 66.2089 47.0861 66.2089C46.5077 66.2089 45.9906 66.4423 45.6124 66.8205C45.2342 67.1988 45.0007 67.7159 45.0007 68.2942C45.0007 68.8671 45.2342 69.3899 45.6124 69.7624C45.9906 70.1407 46.5077 70.3741 47.0861 70.3741C47.6589 70.3741 48.1817 70.1407 48.5541 69.7624C48.9323 69.3899 49.1657 68.8671 49.1657 68.2942C49.1657 67.7159 48.9323 67.1986 48.5541 66.8205ZM62.3126 63.267C63.6972 63.267 64.9539 63.8287 65.8659 64.7407C66.7723 65.6472 67.3396 66.9039 67.3396 68.2942C67.3396 69.6789 66.7723 70.9358 65.8659 71.8478C64.9539 72.7543 63.697 73.316 62.3126 73.316C60.9276 73.316 59.6708 72.7543 58.7588 71.8478C57.8525 70.9358 57.2851 69.6789 57.2851 68.2942C57.2851 66.9041 57.8525 65.6472 58.7588 64.7407C59.6708 63.8287 60.9276 63.267 62.3126 63.267ZM63.7861 66.8205C63.4078 66.4423 62.885 66.2089 62.3124 66.2089C61.7393 66.2089 61.2165 66.4423 60.8383 66.8205C60.4659 67.1988 60.2323 67.7159 60.2323 68.2942C60.2323 68.8671 60.4658 69.3899 60.8383 69.7624C61.2165 70.1407 61.7393 70.3741 62.3124 70.3741C62.885 70.3741 63.4078 70.1407 63.7861 69.7624C64.1588 69.3899 64.3922 68.8671 64.3922 68.2942C64.3922 67.7159 64.1588 67.1986 63.7861 66.8205ZM16.628 63.267C18.0126 63.267 19.2693 63.8287 20.1815 64.7407C21.0879 65.6472 21.6495 66.9039 21.6495 68.2942C21.6495 69.6789 21.0879 70.9358 20.1815 71.8478C19.2693 72.7543 18.0124 73.316 16.628 73.316C15.2377 73.316 13.9808 72.7543 13.0744 71.8478C12.1624 70.9358 11.6007 69.6789 11.6007 68.2942C11.6007 66.9041 12.1622 65.6472 13.0744 64.7407C13.9806 63.8287 15.2377 63.267 16.628 63.267ZM18.096 66.8205C17.7234 66.4423 17.2008 66.2089 16.628 66.2089C16.0497 66.2089 15.5323 66.4423 15.1543 66.8205C14.7761 67.1988 14.5426 67.7159 14.5426 68.2942C14.5426 68.8671 14.7761 69.3899 15.1543 69.7624C15.5323 70.1407 16.0495 70.3741 16.628 70.3741C17.2008 70.3741 17.7234 70.1407 18.096 69.7624C18.4742 69.3899 18.7077 68.8671 18.7077 68.2942C18.7077 67.7159 18.4742 67.1986 18.096 66.8205ZM77.5387 63.267C78.929 63.267 80.1857 63.8287 81.0922 64.7407C82.0041 65.6472 82.5659 66.9039 82.5659 68.2942C82.5659 69.6789 82.0042 70.9358 81.0922 71.8478C80.1857 72.7543 78.929 73.316 77.5387 73.316C76.1539 73.316 74.8971 72.7543 73.9906 71.8478C73.0786 70.9358 72.5169 69.6789 72.5169 68.2942C72.5169 66.9041 73.0784 65.6472 73.9906 64.7407C74.8971 63.8287 76.1539 63.267 77.5387 63.267ZM79.0124 66.8205C78.6341 66.4423 78.1172 66.2089 77.5387 66.2089C76.9658 66.2089 76.4432 66.4423 76.0707 66.8205C75.6924 67.1988 75.459 67.7159 75.459 68.2942C75.459 68.8671 75.6924 69.3899 76.0707 69.7624C76.4432 70.1407 76.966 70.3741 77.5387 70.3741C78.117 70.3741 78.6341 70.1407 79.0124 69.7624C79.3906 69.3899 79.624 68.8671 79.624 68.2942C79.624 67.7159 79.3904 67.1986 79.0124 66.8205ZM31.8541 63.267C33.2446 63.267 34.5013 63.8287 35.4076 64.7407C36.3197 65.6472 36.8813 66.9039 36.8813 68.2942C36.8813 69.6789 36.3199 70.9358 35.4076 71.8478C34.5013 72.7543 33.2446 73.316 31.8541 73.316C30.4693 73.316 29.2126 72.7543 28.3007 71.8478C27.3944 70.9358 26.8327 69.6789 26.8327 68.2942C26.8327 66.9041 27.3944 65.6472 28.3007 64.7407C29.2126 63.8287 30.4693 63.267 31.8541 63.267ZM33.328 66.8205C32.9497 66.4423 32.4326 66.2089 31.8541 66.2089C31.2812 66.2089 30.7586 66.4423 30.3804 66.8205C30.0079 67.1988 29.7742 67.7159 29.7742 68.2942C29.7742 68.8671 30.0077 69.3899 30.3804 69.7624C30.7586 70.1407 31.2812 70.3741 31.8541 70.3741C32.4326 70.3741 32.9497 70.1407 33.328 69.7624C33.7062 69.3899 33.9396 68.8671 33.9396 68.2942C33.9396 67.7159 33.706 67.1986 33.328 66.8205ZM3.55924 57.1775H90.6127C90.9354 55.2479 91.1353 53.2735 91.1967 51.2661C61.7896 51.2661 32.3771 51.2661 2.96993 51.2661C3.03094 53.2735 3.23104 55.2479 3.55924 57.1775ZM90.012 60.1193H4.15445C5.17771 64.396 6.82363 68.4276 8.98708 72.1148C9.87674 73.6273 10.85 75.0788 11.9066 76.4636H43.7493C44.5615 76.4636 45.2232 77.1253 45.2232 77.9373C45.2232 78.7493 44.5615 79.411 43.7493 79.411H14.3478C17.5453 82.9422 21.3047 85.9508 25.4864 88.3033C25.9925 88.5368 26.3431 89.0484 26.3431 89.6379V93.0302C26.3431 94.2593 26.8435 95.3771 27.6553 96.1891C28.4673 96.9954 29.5849 97.5015 30.8083 97.5015H63.3576C64.581 97.5015 65.6988 96.9954 66.5106 96.1891C67.3225 95.3771 67.8228 94.2595 67.8228 93.0302V89.6379C67.8228 89.1263 68.1012 88.6258 68.5849 88.3588C72.8057 86.001 76.5984 82.9701 79.8182 79.411H50.4172C49.605 79.411 48.9433 78.7493 48.9433 77.9373C48.9433 77.1253 49.605 76.4636 50.4172 76.4636H82.2658C83.3167 75.0788 84.2897 73.6273 85.1796 72.1148C87.3428 68.4276 88.9889 64.396 90.012 60.1193Z" fill="black"/>
</svg>
