<svg width="79" height="79" viewBox="0 0 79 79" fill="none" xmlns="http://www.w3.org/2000/svg">
<g clip-path="url(#clip0_348_199)">
<path d="M36.135 1.2085L7.18749 7.54502C6.17547 7.76655 5.4541 8.66287 5.4541 9.6988V31.0601C5.4541 47.8716 13.1666 63.754 26.3786 74.1497L26.6941 74.3979C32.51 78.974 40.7027 78.974 46.5186 74.3979L46.8341 74.1497C60.046 63.754 67.7586 47.8716 67.7586 31.0601V9.6988C67.7586 8.66287 67.0374 7.76655 66.0252 7.54502L37.078 1.2085C36.7673 1.14046 36.4456 1.14046 36.135 1.2085Z" fill="#616C33"/>
<path d="M58.0279 40.5659C46.428 40.5659 37.0244 49.9697 37.0244 61.5696C37.0244 67.3694 39.3752 72.6202 43.176 76.4211C44.3484 75.894 45.4726 75.2213 46.519 74.398L46.8345 74.1498C57.0287 66.1285 63.9475 54.8405 66.577 42.3798C63.9654 41.2146 61.0725 40.5659 58.0279 40.5659Z" fill="#616C33"/>
<path d="M36.6065 71.1441C34.4782 71.1441 32.4691 70.4485 30.7963 69.1323L30.4813 68.8844C24.7827 64.4003 20.0967 58.5829 16.9292 52.0606C13.762 45.5384 12.0879 38.2583 12.0879 31.0076V13.2106L36.6066 7.84351L61.1251 13.2106V31.0076C61.1251 38.2583 59.4509 45.5382 56.2837 52.0606C53.1164 58.5829 48.4304 64.4003 42.7323 68.8839L42.4163 69.1324C40.744 70.4484 38.7348 71.1441 36.6065 71.1441Z" fill="white"/>
<path d="M58.0279 40.5659C46.428 40.5659 37.0244 49.9697 37.0244 61.5696C37.0244 64.8796 37.7911 68.0101 39.1549 70.7948C40.3292 70.4656 41.4316 69.9076 42.4167 69.1326L42.7326 68.8841C48.4307 64.4005 53.1167 58.5831 56.2841 52.0608C58.0366 48.4518 59.3309 44.6107 60.1385 40.6711C59.4443 40.6019 58.7404 40.5659 58.0279 40.5659Z" fill="white"/>
<path d="M30.0877 45.9944L23.7674 39.674C23.1765 39.0832 23.1765 38.1253 23.7674 37.5345L26.3256 34.976C26.9165 34.3852 27.8745 34.3852 28.4654 34.976L31.1343 37.6449C31.7251 38.2358 32.683 38.2358 33.2738 37.6449L44.7476 26.1712C45.3385 25.5803 46.2965 25.5803 46.8872 26.1712L49.4456 28.7296C50.0365 29.3205 50.0365 30.2785 49.4456 30.8692L34.3204 45.9944C33.1518 47.1633 31.2566 47.1633 30.0877 45.9944Z" fill="#F7FCFF"/>
<path d="M58.0272 77.0881C66.5978 77.0881 73.5456 70.1403 73.5456 61.5697C73.5456 52.9991 66.5978 46.0513 58.0272 46.0513C49.4566 46.0513 42.5088 52.9991 42.5088 61.5697C42.5088 70.1403 49.4566 77.0881 58.0272 77.0881Z" fill="white"/>
<path d="M58.0279 69.7792C62.5619 69.7792 66.2374 66.1036 66.2374 61.5696C66.2374 57.0356 62.5619 53.3601 58.0279 53.3601C53.4939 53.3601 49.8184 57.0356 49.8184 61.5696C49.8184 66.1036 53.4939 69.7792 58.0279 69.7792Z" fill="#58469C"/>
<path d="M58.0272 64.8196C59.8221 64.8196 61.2771 63.3646 61.2771 61.5697C61.2771 59.7748 59.8221 58.3198 58.0272 58.3198C56.2324 58.3198 54.7773 59.7748 54.7773 61.5697C54.7773 63.3646 56.2324 64.8196 58.0272 64.8196Z" fill="#58469C"/>
<path d="M5.45391 21.7967C6.09305 21.7967 6.61094 21.2787 6.61094 20.6397V9.69892C6.61094 9.21034 6.95728 8.77993 7.43459 8.67549L36.3821 2.33896C36.5307 2.30625 36.6813 2.30641 36.8302 2.33896L65.7777 8.67549C66.255 8.77993 66.6014 9.21034 66.6014 9.69892V14.408C66.6014 15.047 67.1192 15.5651 67.7584 15.5651C68.3975 15.5651 68.9154 15.047 68.9154 14.408V9.69892C68.9154 8.13122 67.8039 6.75018 66.2724 6.4148L37.3251 0.0782732C36.8479 -0.0260139 36.3643 -0.0261682 35.8872 0.0782732L6.93984 6.41495C5.4084 6.75018 4.29688 8.13122 4.29688 9.69907V20.6398C4.29688 21.2787 4.81492 21.7967 5.45391 21.7967Z" fill="black"/>
<path d="M51.0453 29.7995C51.0453 29.0863 50.7676 28.4159 50.2634 27.9116L47.7049 25.353C46.6637 24.312 44.9699 24.3121 43.9288 25.353L32.4552 36.8267C32.3689 36.913 32.2708 36.931 32.2034 36.931C32.1361 36.931 32.038 36.913 31.9518 36.8269L29.2829 34.158C28.7784 33.6537 28.1081 33.376 27.3949 33.376C26.6817 33.376 26.0113 33.6537 25.507 34.158L22.9485 36.7164C21.9077 37.7576 21.9078 39.4515 22.9487 40.4922L29.2689 46.8125H29.269C30.078 47.6215 31.1408 48.026 32.2034 48.026C33.2663 48.026 34.329 47.6215 35.1381 46.8125L50.2631 31.6875C50.7676 31.1832 51.0453 30.5127 51.0453 29.7995ZM48.6269 30.0511L33.5019 45.1763C32.7861 45.892 31.6212 45.8921 30.9051 45.1763L24.5849 38.8558C24.4462 38.7172 24.4462 38.4913 24.5849 38.3526L27.1433 35.7942C27.2296 35.7079 27.3277 35.6899 27.3949 35.6899C27.4622 35.6899 27.5603 35.7079 27.6467 35.7942L30.3156 38.4629C30.8199 38.9672 31.4904 39.2449 32.2036 39.2449C32.9168 39.2449 33.5872 38.9672 34.0915 38.4629L45.565 26.9893C45.7037 26.8505 45.9297 26.8505 46.0685 26.9893L48.6271 29.5479C48.7132 29.634 48.7312 29.7323 48.7312 29.7995C48.7312 29.8668 48.713 29.9649 48.6269 30.0511Z" fill="black"/>
<path d="M66.5272 47.2289C68.1103 41.9827 68.9151 36.5467 68.9151 31.0602V19.8078C68.9151 19.1688 68.3972 18.6508 67.7581 18.6508C67.1189 18.6508 66.6011 19.1688 66.6011 19.8078V31.0602C66.6011 36.1848 65.8704 41.2638 64.4292 46.1729C63.1127 45.6234 61.7113 45.2383 60.2505 45.0427C61.5971 40.4807 62.2813 35.7843 62.2813 31.06V13.2632C62.2813 12.7195 61.9029 12.2491 61.3717 12.1328L36.8533 6.76574C36.6902 6.7301 36.5216 6.7301 36.3585 6.76574L11.8398 12.133C11.3088 12.2493 10.9302 12.7197 10.9302 13.2633V31.0603C10.9302 38.4851 12.6445 45.9399 15.8879 52.6188C19.1313 59.2976 23.93 65.255 29.7652 69.8464L30.0802 70.0943C31.9589 71.5725 34.2154 72.3537 36.6058 72.3537C38.9964 72.3537 41.2528 71.5725 43.131 70.0946L43.4471 69.8459C43.4718 69.8265 43.4967 69.8064 43.5213 69.7868C44.2386 71.0478 45.1154 72.2066 46.1244 73.2355C46.1222 73.2373 46.1202 73.2389 46.118 73.2406L45.8027 73.4889C40.3878 77.7495 32.8242 77.7495 27.4091 73.4889L27.0936 73.2406C20.748 68.2475 15.5295 61.7691 12.0024 54.5057C8.4753 47.2423 6.61094 39.1349 6.61094 31.0603V26.194C6.61094 25.555 6.09305 25.037 5.45391 25.037C4.81476 25.037 4.29688 25.555 4.29688 26.194V31.0603C4.29688 39.4831 6.24146 47.9399 9.92082 55.5165C13.6 63.0932 19.0435 69.8508 25.6629 75.0593L25.9784 75.3076C29.107 77.7694 32.8566 79.0004 36.6062 79.0004C40.3557 79.0004 44.1051 77.7694 47.234 75.3076L47.5494 75.0595C47.6607 74.9719 47.7706 74.8822 47.8814 74.7938C50.6942 76.957 54.2129 78.2455 58.0274 78.2455C67.2223 78.2455 74.7029 70.7649 74.7029 61.57C74.7024 55.4774 71.4179 50.1387 66.5272 47.2289ZM42.0161 68.0272L41.7 68.2759C40.2335 69.4297 38.4719 70.0397 36.6057 70.0397C34.7395 70.0397 32.9777 69.4297 31.511 68.2756L31.196 68.0277C25.6344 63.6515 21.0607 57.9735 17.9694 51.6078C14.8782 45.2422 13.2443 38.1369 13.2443 31.0602V14.1944L36.606 9.08058L59.9674 14.1944V31.0603C59.9674 35.7378 59.2649 40.388 57.8798 44.8963C48.7528 44.9759 41.3518 52.4242 41.3518 61.5699C41.3518 63.711 41.7579 65.7591 42.4964 67.6415C42.3365 67.7704 42.1773 67.9002 42.0161 68.0272ZM58.027 75.931C50.1081 75.931 43.6656 69.4885 43.6656 61.5696C43.6656 53.6507 50.1081 47.2082 58.027 47.2082C65.9459 47.2082 72.3884 53.6507 72.3884 61.5696C72.3884 69.4885 65.9459 75.931 58.027 75.931Z" fill="black"/>
<path d="M58.027 57.1626C55.5969 57.1626 53.6201 59.1396 53.6201 61.5695C53.6201 63.9994 55.5969 65.9764 58.027 65.9764C60.4571 65.9764 62.4339 63.9994 62.4339 61.5695C62.4339 59.1396 60.4571 57.1626 58.027 57.1626ZM58.027 63.6625C56.8731 63.6625 55.9342 62.7236 55.9342 61.5697C55.9342 60.4157 56.8731 59.4768 58.027 59.4768C59.181 59.4768 60.1199 60.4157 60.1199 61.5697C60.1199 62.7236 59.1811 63.6625 58.027 63.6625Z" fill="black"/>
<path d="M69.5434 60.4127H67.3195C67.1068 58.6951 66.4282 57.121 65.4131 55.8199L66.9885 54.2445C67.4403 53.7926 67.4403 53.06 66.9885 52.6083C66.5365 52.1564 65.804 52.1564 65.3521 52.6083L63.7767 54.1837C62.4757 53.1686 60.9016 52.49 59.1839 52.2772V50.0533C59.1839 49.4143 58.666 48.8962 58.0269 48.8962C57.3877 48.8962 56.8698 49.4143 56.8698 50.0533V52.2772C55.1522 52.4898 53.5782 53.1686 52.277 54.1837L50.7016 52.6083C50.2496 52.1564 49.5171 52.1564 49.0653 52.6083C48.6134 53.0602 48.6134 53.7928 49.0653 54.2445L50.6407 55.8199C49.6256 57.121 48.9469 58.6951 48.7342 60.4127H46.5105C45.8714 60.4127 45.3535 60.9308 45.3535 61.5698C45.3535 62.2087 45.8714 62.7268 46.5105 62.7268H48.7344C48.9471 64.4443 49.6257 66.0185 50.6408 67.3196L49.0654 68.895C48.6136 69.3469 48.6136 70.0795 49.0654 70.5312C49.2914 70.7571 49.5876 70.8701 49.8837 70.8701C50.1797 70.8701 50.4759 70.7572 50.7019 70.5312L52.2772 68.9559C53.5782 69.971 55.1523 70.6497 56.87 70.8624V73.0862C56.87 73.7252 57.3879 74.2433 58.027 74.2433C58.6662 74.2433 59.1841 73.7252 59.1841 73.0862V70.8624C60.9017 70.6498 62.4759 69.971 63.7769 68.9559L65.3521 70.5312C65.5781 70.7571 65.8743 70.8701 66.1704 70.8701C66.4664 70.8701 66.7626 70.7572 66.9886 70.5312C67.4405 70.0793 67.4405 69.3467 66.9886 68.895L65.4132 67.3196C66.4283 66.0186 67.107 64.4444 67.3197 62.7268H69.5435C70.1827 62.7268 70.7005 62.2087 70.7005 61.5698C70.7005 60.9308 70.1823 60.4127 69.5434 60.4127ZM58.0269 68.6223C54.138 68.6223 50.9742 65.4585 50.9742 61.5698C50.9742 57.681 54.138 54.5173 58.0269 54.5173C61.9157 54.5173 65.0795 57.681 65.0795 61.5698C65.0795 65.4585 61.9157 68.6223 58.0269 68.6223Z" fill="black"/>
</g>
<defs>
<clipPath id="clip0_348_199">
<rect width="79" height="79" fill="white"/>
</clipPath>
</defs>
</svg>
