<svg width="87" height="87" viewBox="0 0 87 87" fill="none" xmlns="http://www.w3.org/2000/svg">
<g clip-path="url(#clip0_350_888)">
<path d="M43.4999 6.12085C41.7142 6.12085 39.9587 6.24897 38.2399 6.49094L35.6905 7.28194L28.0865 12.2947L22.1804 19.0491L21.298 22.3779C26.8804 16.512 34.7631 12.8554 43.5001 12.8554C60.4246 12.8554 74.1446 26.5754 74.1446 43.5C74.1446 60.4245 60.4243 74.1445 43.4999 74.1445C34.7629 74.1445 26.8802 70.4879 21.2979 64.622V66.678L28.044 74.2743L33.7364 78.8197L38.2399 80.509C39.9587 80.7511 41.7143 80.8791 43.4999 80.8791C64.1439 80.8791 80.879 64.1438 80.879 43.5C80.879 22.8561 64.1437 6.12085 43.4999 6.12085Z" fill="white"/>
<path d="M21.2982 64.622C16.0669 59.125 12.8557 51.6876 12.8557 43.5C12.8557 35.3124 16.0669 27.875 21.2982 22.378C25.3121 15.6052 31.1957 10.0718 38.2402 6.49097C20.0873 9.04815 6.12109 24.6419 6.12109 43.5001C6.12109 62.3584 20.0873 77.9521 38.2402 80.5091C31.1957 76.9282 25.3121 71.3948 21.2982 64.622Z" fill="white"/>
<path d="M22.2331 36.0953H24.9824C25.4414 36.0953 25.8135 36.4675 25.8135 36.9266V40.8531L26.0471 41.4081L26.3729 41.6064H31.7963L32.3769 41.3231L32.6267 40.8564V36.9266C32.6267 36.4676 32.9988 36.0953 33.4579 36.0953H36.2073C36.827 36.0953 37.1855 35.3927 36.8219 34.8909L29.8347 25.2504C29.5317 24.8322 28.9086 24.8322 28.6055 25.2504L21.6183 34.8909C21.2548 35.3927 21.6134 36.0953 22.2331 36.0953Z" fill="#58469C"/>
<path d="M33.694 51.0291H37.5526C38.1968 51.0291 38.7191 51.5514 38.7191 52.1956V52.7703L38.8874 53.2569L39.7689 53.9897H47.3305L47.9147 53.5224L48.2121 53.1623L48.2811 52.9399V52.1958C48.2811 51.5516 48.8032 51.0293 49.4476 51.0293H53.3062C54.1761 51.0293 54.6792 50.0432 54.1687 49.3389L44.3628 35.8092C43.9375 35.2225 43.0631 35.2225 42.6377 35.8092L32.8318 49.3389C32.321 50.043 32.8241 51.0291 33.694 51.0291Z" fill="#58469C"/>
<path d="M65.3817 34.8909L58.3945 25.2504C58.0915 24.8322 57.4684 24.8322 57.1653 25.2504L50.1781 34.8909C49.8143 35.3927 50.1728 36.0953 50.7927 36.0953H53.542C54.001 36.0953 54.3731 36.4675 54.3731 36.9266V40.7991L54.5947 41.3372L55.0195 41.5638H60.7968L61.0233 41.2523L61.1861 40.8941V36.9264C61.1861 36.4675 61.5582 36.0952 62.0174 36.0952H64.7669C65.3868 36.0953 65.7453 35.3927 65.3817 34.8909Z" fill="#58469C"/>
<path d="M46.7971 53.8191H40.2038C39.3841 53.8191 38.7197 53.1545 38.7197 52.335V60.6219C38.7197 61.4414 39.3841 62.106 40.2038 62.106H46.7971C47.6167 62.106 48.2812 61.4416 48.2812 60.6219V52.335C48.2812 53.1545 47.6167 53.8191 46.7971 53.8191Z" fill="#58469C"/>
<path d="M60.1288 41.5081H55.4306C54.8466 41.5081 54.373 41.0347 54.373 40.4507V49.7964C54.373 50.3804 54.8464 50.8538 55.4306 50.8538H60.1288C60.7128 50.8538 61.1862 50.3804 61.1862 49.7964V40.4507C61.1862 41.0345 60.7128 41.5081 60.1288 41.5081Z" fill="#58469C"/>
<path d="M31.5692 41.5081H26.8711C26.2871 41.5081 25.8135 41.0347 25.8135 40.4507V49.7964C25.8135 50.3804 26.2869 50.8538 26.8711 50.8538H31.5692C32.1533 50.8538 32.6267 50.3804 32.6267 49.7964V40.4507C32.6267 41.0345 32.1533 41.5081 31.5692 41.5081Z" fill="#58469C"/>
<path d="M1.27443 44.7745H4.8695C5.52506 65.1407 21.8904 81.4761 42.2255 82.1307V85.7257C42.2255 86.4296 42.7959 87.0002 43.4999 87.0002C44.2039 87.0002 44.7743 86.4296 44.7743 85.7257V82.1303C53.9042 81.8313 62.6073 78.3293 69.4042 72.1881C69.9264 71.7162 69.9672 70.9103 69.4955 70.3881C69.0233 69.8658 68.2175 69.8251 67.6953 70.2968C61.3677 76.0141 53.2714 79.2822 44.7742 79.5801V75.3913C61.3626 74.7364 74.7361 61.3629 75.391 44.7745H79.5811C79.3142 52.6195 76.5842 59.9745 71.6413 66.1167C71.2 66.6651 71.2868 67.4673 71.8352 67.9086C72.3837 68.3499 73.1857 68.2632 73.627 67.7147C78.8591 61.2131 81.8523 53.1111 82.1302 44.7745H85.7256C86.4296 44.7745 87 44.2039 87 43.5001C87 42.7963 86.4296 42.2257 85.7256 42.2257H82.1305C81.4749 21.8593 65.1094 5.52404 44.7743 4.8695V1.27443C44.7743 0.570603 44.2039 0 43.4999 0C42.7959 0 42.2255 0.570603 42.2255 1.27443V4.8695C21.859 5.52506 5.52404 21.8904 4.8695 42.2257H1.27443C0.570433 42.2257 0 42.7963 0 43.5001C0 44.2039 0.570433 44.7745 1.27443 44.7745ZM44.7743 7.42022C63.6712 8.07935 78.9206 23.3288 79.5798 42.2255H75.3912C74.7363 25.637 61.3628 12.2635 44.7743 11.6087V7.42022ZM43.4999 19.4703C44.2039 19.4703 44.7743 18.8997 44.7743 18.1959V14.1592C59.9572 14.8109 72.1889 27.0426 72.8406 42.2255H68.8041C68.1001 42.2255 67.5296 42.7961 67.5296 43.4999C67.5296 44.2037 68.1001 44.7743 68.8041 44.7743H72.8406C72.1889 59.9572 59.9572 72.1889 44.7743 72.8406V68.8039C44.7743 68.1001 44.2039 67.5295 43.4999 67.5295C42.7959 67.5295 42.2255 68.1001 42.2255 68.8039V72.8406C27.0427 72.1889 14.8109 59.9572 14.1592 44.7743H18.1959C18.8999 44.7743 19.4703 44.2037 19.4703 43.4999C19.4703 42.7961 18.8999 42.2255 18.1959 42.2255H14.1592C14.8109 27.0426 27.0427 14.8109 42.2255 14.1592V18.1959C42.2255 18.8997 42.7959 19.4703 43.4999 19.4703ZM42.2255 7.42022V11.6087C25.637 12.2635 12.2636 25.637 11.6087 42.2255H7.42022C8.07935 23.3288 23.3288 8.07935 42.2255 7.42022ZM11.6087 44.7745C12.2636 61.3629 25.637 74.7364 42.2255 75.3913V79.5798C23.3288 78.9206 8.07935 63.6712 7.42022 44.7745H11.6087Z" fill="black"/>
<path d="M41.6055 35.0612L33.9014 45.6911V37.3699H36.2076C36.9758 37.3699 37.6696 36.9449 38.0188 36.2607C38.368 35.5764 38.3048 34.765 37.8538 34.1431L30.8667 24.5026C30.4854 23.9765 29.8699 23.6624 29.2202 23.6624C28.5705 23.6624 27.9551 23.9765 27.5739 24.5025L20.5865 34.1432C20.1359 34.7652 20.0728 35.5767 20.4219 36.2608C20.771 36.9449 21.4652 37.3699 22.2331 37.3699H24.5393V49.7963C24.5393 51.0821 25.5853 52.1283 26.8713 52.1283H31.5694C31.8839 52.1283 32.1835 52.0649 32.4574 51.9516C32.8208 52.1777 33.2463 52.3035 33.6939 52.3035H37.4446V60.6217C37.4446 62.1427 38.682 63.3803 40.203 63.3803H46.7965C48.3175 63.3803 49.5549 62.1427 49.5549 60.6217V52.3035H53.3056C53.7532 52.3035 54.1789 52.1776 54.5422 51.9514C54.8161 52.0647 55.1157 52.1281 55.4302 52.1281H60.1284C61.414 52.1281 62.4603 51.0821 62.4603 49.7963V46.0846C62.4603 45.3808 61.8898 44.8102 61.1858 44.8102C60.4818 44.8102 59.9114 45.3808 59.9114 46.0846V49.5793H55.647V36.9266C55.647 35.7655 54.7024 34.8209 53.5413 34.8209H51.8021L57.7794 26.574L63.7564 34.8209H62.0171C60.856 34.8209 59.9114 35.7655 59.9114 36.9266V40.1373C59.9114 40.8411 60.4818 41.4117 61.1858 41.4117C61.8898 41.4117 62.4603 40.8411 62.4603 40.1373V37.3697H64.7665C65.5347 37.3697 66.2287 36.9448 66.5779 36.2605C66.927 35.5764 66.8638 34.765 66.4129 34.1431L59.4258 24.5026C59.0445 23.9765 58.429 23.6624 57.7792 23.6624C57.1296 23.6624 56.5141 23.9765 56.133 24.5025L49.1457 34.1429C48.6949 34.7648 48.6317 35.5762 48.9807 36.2603C49.3299 36.9446 50.0241 37.3696 50.7921 37.3696H53.0982V45.6906L45.394 35.0608C44.9554 34.4556 44.2472 34.0943 43.4997 34.0943C42.7522 34.0943 42.0441 34.4559 41.6055 35.0612ZM33.4581 34.8211C32.297 34.8211 31.3524 35.7657 31.3524 36.9268V49.5794H27.088V36.9268C27.088 35.7657 26.1434 34.8211 24.9823 34.8211H23.2429L29.2202 26.5742L35.1972 34.8211H33.4581ZM52.8958 49.7548H49.4472C48.1012 49.7548 47.0062 50.8498 47.0062 52.1957V60.6219C47.0062 60.7375 46.9121 60.8316 46.7967 60.8316H40.2032C40.0876 60.8316 39.9937 60.7375 39.9937 60.6219V52.1957C39.9937 50.8498 38.8987 49.7548 37.5527 49.7548H34.1041L43.5 36.7908L52.8958 49.7548Z" fill="black"/>
</g>
<defs>
<clipPath id="clip0_350_888">
<rect width="87" height="87" fill="white"/>
</clipPath>
</defs>
</svg>
