<svg width="34" height="34" viewBox="0 0 34 34" fill="none" xmlns="http://www.w3.org/2000/svg">
<g clip-path="url(#clip0_317_270)">
<path d="M32.6718 33.9999H1.32812C0.5946 33.9999 0 33.4053 0 32.6718V21.1189C0.0652772 19.3586 2.59157 19.36 2.65624 21.1189V31.3437H31.3437L31.3438 18.0698L17.7512 27.3931C17.2987 27.7034 16.7019 27.7036 16.2491 27.3934L9.07732 22.4783C8.47229 22.0636 8.3179 21.237 8.73267 20.6319C9.14731 20.0268 9.97393 19.8726 10.579 20.2872L13.0724 21.996C12.596 20.2177 11.899 18.9443 11.3181 18.1129C10.9144 17.5351 10.5248 17.107 10.2208 16.8125C8.99179 17.5107 7.51086 17.9219 5.94594 17.9884C3.97168 18.0721 2.07678 17.5993 0.610272 16.6567C-0.15207 16.1852 -0.205261 15.0332 0.509999 14.4933C1.11084 14.0233 1.79429 13.6382 2.54966 13.3432C2.05799 12.8371 1.5553 12.2169 1.19471 11.4695C1.00798 11.0826 1.01993 10.6292 1.22685 10.2526C1.43377 9.87612 1.8101 9.62291 2.23689 9.57317C3.07049 9.47589 3.88901 9.48618 4.64597 9.60113C4.48733 8.79669 4.44682 8.00459 4.52564 7.23714C4.56941 6.81088 4.81624 6.4319 5.18838 6.21946C5.56052 6.0071 6.01234 5.98718 6.40168 6.16621C9.37688 7.47029 11.7541 11.2803 11.6875 14.5557C12.34 15.1224 13.3906 16.2073 14.3236 17.9441C14.3609 17.8302 14.3958 17.7159 14.4277 17.6024L14.4305 17.5922C14.8727 16.019 14.8727 16.019 15.3943 13.8536L15.3987 13.8352C15.5357 13.2665 16.0286 12.8544 16.6125 12.8204C17.1957 12.7859 17.7339 13.1382 17.9362 13.6871C18.1085 14.1548 18.9408 16.5738 18.399 18.2641C17.9763 19.5833 16.5979 20.9712 15.7478 21.7331C15.9224 22.4589 16.0628 23.2437 16.1574 24.0908C16.1582 24.0978 16.1589 24.1048 16.1595 24.1117L16.9996 24.6874L25.3671 18.948V4.33984C25.3671 3.75128 25.4826 3.18145 25.7029 2.65624H10.235C9.55491 2.65624 8.94856 3.06278 8.6903 3.69191C8.41173 4.37045 7.63597 4.69478 6.95724 4.41614C6.2787 4.13757 5.95444 3.36168 6.23301 2.68314C6.90219 1.0532 8.47309 0 10.235 0H29.6752C29.7571 0 29.8373 0.00743749 29.9152 0.0216484C32.1859 0.148086 34 2.05978 34 4.37742V6.97264C34 7.70616 33.4054 8.30076 32.6719 8.30076H28.0234V10.3365L33.4917 14.6269C33.8126 14.8788 34 15.264 34 15.6718L33.9999 32.6718C33.9999 33.4053 33.4053 33.9999 32.6718 33.9999ZM28.0234 13.7128V17.1262L30.3447 15.5341L28.0234 13.7128ZM4.75634 15.3095C6.24941 15.4572 7.83327 15.1579 9.03083 14.4321C9.00587 13.0355 8.40947 11.542 7.48091 10.3663C7.45867 10.8866 7.24637 11.3904 6.87018 11.7732C6.45965 12.1909 5.90184 12.4167 5.33095 12.4143C5.63456 12.8916 5.74121 13.4778 5.60999 14.0433C5.4894 14.5636 5.18061 15.011 4.75634 15.3095ZM28.0234 5.64452H31.3438V4.37749C31.3438 3.44349 30.601 2.67809 29.688 2.67132C29.2455 2.66933 28.8289 2.83713 28.5163 3.14738C28.1984 3.46288 28.0234 3.88635 28.0234 4.33984V5.64452H28.0234Z" fill="#616C33"/>
</g>
<defs>
<clipPath id="clip0_317_270">
<rect width="34" height="34" fill="white"/>
</clipPath>
</defs>
</svg>
