<svg viewBox="0 0 24 24" xmlns="http://www.w3.org/2000/svg" xmlns:xlink="http://www.w3.org/1999/xlink" width="24.000000" height="24.000000" fill="none">
	<rect id="fi_61222" width="24.000000" height="24.000000" x="0.000000" y="0.000000" fill="rgb(255,255,255)" fill-opacity="0"/>
	<g id="Group">
		<g id="check-circle-outline">
			<path id="Vector" d="M7.08 9.72L5.4 11.4L10.8 16.8L22.8 4.8L21.12 3.12L10.8 13.44L7.08 9.72ZM21.6 12C21.6 17.28 17.28 21.6 12 21.6C6.72 21.6 2.4 17.28 2.4 12C2.4 6.72 6.72 2.4 12 2.4C12.96 2.4 13.8 2.52 14.64 2.76L16.56 0.84C15.12 0.36 13.56 0 12 0C5.4 0 0 5.4 0 12C0 18.6 5.4 24 12 24C18.6 24 24 18.6 24 12L21.6 12Z" fill="rgb(97,108,51)" fill-rule="nonzero"/>
			<path id="Vector" d="M7.0799 9.72012L5.3999 11.4001L10.7999 16.8001L22.7999 4.80012L21.1199 3.12012L10.7999 13.4401L7.0799 9.72012Z" fill="rgb(255,255,255)" fill-rule="nonzero"/>
		</g>
	</g>
</svg>
