<svg width="64" height="64" viewBox="0 0 64 64" fill="none" xmlns="http://www.w3.org/2000/svg">
<path d="M43.714 0.9375H17.6248C15.2085 0.9375 13.2498 2.89625 13.2498 5.3125V15.8906H13.8245C15.5504 15.8906 16.9495 17.2897 16.9495 19.0156V20.6276C16.9495 22.3535 15.5504 23.7526 13.8245 23.7526C15.5504 23.7526 16.9495 25.1517 16.9495 26.8776V28.4896C16.9495 30.2155 15.5504 31.6146 13.8245 31.6146C15.5504 31.6146 16.9495 33.0137 16.9495 34.7396V36.3516C16.9495 38.0775 15.5504 39.4766 13.8245 39.4766C15.5504 39.4766 16.9495 40.8757 16.9495 42.6016V44.2136C16.9495 45.9395 15.5504 47.3386 13.8245 47.3386H13.2498V55.6339H38.9904C35.4936 53.5403 33.1475 49.7149 33.1475 45.3512C33.1475 38.7475 38.52 33.375 45.1239 33.375C46.147 33.375 47.1405 33.5042 48.0893 33.7467V5.3125C48.089 2.89625 46.1303 0.9375 43.714 0.9375Z" fill="white"/>
<path d="M42.8394 5.3125V14.6935L48.089 19.9431V5.3125C48.089 2.89625 46.1302 0.9375 43.714 0.9375H38.4644C40.8806 0.9375 42.8394 2.89625 42.8394 5.3125Z" fill="white"/>
<path d="M45.3142 33.3773V28.2866L42.8394 25.8118V33.5943C43.5791 33.4508 44.3426 33.3748 45.1237 33.3748C45.1986 33.3748 45.273 33.3769 45.3476 33.3783C45.3364 33.3783 45.3254 33.3775 45.3142 33.3773Z" fill="white"/>
<path d="M45.1238 57.4525C42.6976 57.4525 40.4386 56.738 38.5448 55.5088H13.2498V58.6875C13.2498 61.1038 15.2085 63.0625 17.6248 63.0625H43.7141C46.1304 63.0625 48.0891 61.1038 48.0891 58.6875V57.086C47.1401 57.325 46.1469 57.4525 45.1238 57.4525Z" fill="#58469C"/>
<path d="M45.1237 57.4524C44.3427 57.4524 43.5792 57.3776 42.8394 57.2362V58.6874C42.8394 61.1037 40.8806 63.0624 38.4644 63.0624H43.714C46.1302 63.0624 48.089 61.1037 48.089 58.6874V57.0859C47.1401 57.3249 46.1469 57.4524 45.1237 57.4524Z" fill="#58469C"/>
<path d="M13.8245 23.7526H9.90015C8.17427 23.7526 6.77515 22.3535 6.77515 20.6276V19.0156C6.77515 17.2897 8.17427 15.8906 9.90015 15.8906H13.8245C15.5504 15.8906 16.9495 17.2897 16.9495 19.0156V20.6276C16.9495 22.3535 15.5504 23.7526 13.8245 23.7526Z" fill="white"/>
<path d="M13.8244 15.8906H9.92432C11.6502 15.8906 13.0493 17.2897 13.0493 19.0156V20.6276C13.0493 22.3535 11.6502 23.7526 9.92432 23.7526H13.8244C15.5503 23.7526 16.9494 22.3535 16.9494 20.6276V19.0156C16.9494 17.2897 15.5503 15.8906 13.8244 15.8906Z" fill="white"/>
<path d="M13.8245 31.6147H9.90015C8.17427 31.6147 6.77515 30.2156 6.77515 28.4897V26.8777C6.77515 25.1518 8.17427 23.7527 9.90015 23.7527H13.8245C15.5504 23.7527 16.9495 25.1518 16.9495 26.8777V28.4897C16.9495 30.2156 15.5504 31.6147 13.8245 31.6147Z" fill="white"/>
<path d="M13.8244 23.7527H9.92432C11.6502 23.7527 13.0493 25.1518 13.0493 26.8777V28.4897C13.0493 30.2156 11.6502 31.6147 9.92432 31.6147H13.8244C15.5503 31.6147 16.9494 30.2156 16.9494 28.4897V26.8777C16.9494 25.1518 15.5503 23.7527 13.8244 23.7527Z" fill="white"/>
<path d="M13.8245 39.4767H9.90015C8.17427 39.4767 6.77515 38.0776 6.77515 36.3517V34.7397C6.77515 33.0139 8.17427 31.6147 9.90015 31.6147H13.8245C15.5504 31.6147 16.9495 33.0139 16.9495 34.7397V36.3517C16.9495 38.0776 15.5504 39.4767 13.8245 39.4767Z" fill="white"/>
<path d="M13.8244 31.6147H9.92432C11.6502 31.6147 13.0493 33.0139 13.0493 34.7397V36.3517C13.0493 38.0776 11.6502 39.4767 9.92432 39.4767H13.8244C15.5503 39.4767 16.9494 38.0776 16.9494 36.3517V34.7397C16.9494 33.0139 15.5503 31.6147 13.8244 31.6147Z" fill="white"/>
<path d="M13.8245 47.3386H9.90015C8.17427 47.3386 6.77515 45.9394 6.77515 44.2136V42.6016C6.77515 40.8757 8.17427 39.4766 9.90015 39.4766H13.8245C15.5504 39.4766 16.9495 40.8757 16.9495 42.6016V44.2136C16.9495 45.9396 15.5504 47.3386 13.8245 47.3386Z" fill="white"/>
<path d="M13.8244 39.4766H9.92432C11.6502 39.4766 13.0493 40.8757 13.0493 42.6016V44.2136C13.0493 45.9394 11.6502 47.3386 9.92432 47.3386H13.8244C15.5503 47.3386 16.9494 45.9394 16.9494 44.2136V42.6016C16.9494 40.8757 15.5503 39.4766 13.8244 39.4766Z" fill="white"/>
<path d="M39.6506 13.5H21.2717C20.9266 13.5 20.6467 13.7799 20.6467 14.125V19.0413C20.6467 19.3864 20.9266 19.6663 21.2717 19.6663H38.0271C37.4964 17.537 38.0384 15.1968 39.6506 13.5Z" fill="#616C33"/>
<path d="M34.875 19.6663H38.0269C37.4962 17.537 38.0383 15.1968 39.6505 13.5H34.875C35.2201 13.5 35.5 13.7799 35.5 14.125V19.0413C35.5 19.3864 35.2203 19.6663 34.875 19.6663Z" fill="#616C33"/>
<path d="M40.0672 29.6663H21.2717C20.9266 29.6663 20.6467 29.3864 20.6467 29.0413V24.125C20.6467 23.7799 20.9266 23.5 21.2717 23.5H40.0674C40.4125 23.5 40.6924 23.7799 40.6924 24.125V29.0413C40.6922 29.3864 40.4125 29.6663 40.0672 29.6663Z" fill="#616C33"/>
<path d="M40.0671 23.5H34.875C35.2201 23.5 35.5 23.7799 35.5 24.125V29.0413C35.5 29.3864 35.2201 29.6663 34.875 29.6663H40.0671C40.4122 29.6663 40.6921 29.3864 40.6921 29.0413V24.125C40.6921 23.7799 40.4124 23.5 40.0671 23.5Z" fill="#616C33"/>
<path d="M45.3144 28.2867V33.3774C49.8844 33.4491 53.8411 36.0925 55.797 39.9217V30.047C55.797 28.5127 55.1875 27.0414 54.1026 25.9565L41.5215 13.3754C41.0376 12.8915 40.253 12.8915 39.7691 13.3754C37.1828 15.9617 37.1828 20.1551 39.7691 22.7415L45.3144 28.2867Z" fill="white"/>
<path d="M51.875 31.3335V35.4647C53.526 36.5957 54.8808 38.1286 55.7967 39.9217V30.047C55.7967 28.5127 55.1872 27.0414 54.1023 25.9565L41.5213 13.3754C41.0375 12.8915 40.2528 12.8915 39.769 13.3754C39.1585 13.9859 38.694 14.6865 38.3716 15.4339L50.1807 27.243C51.2656 28.3279 51.875 29.7992 51.875 31.3335Z" fill="white"/>
<path d="M45.1237 57.4525C51.807 57.4525 57.225 52.0346 57.225 45.3512C57.225 38.6679 51.807 33.25 45.1237 33.25C38.4404 33.25 33.0225 38.6679 33.0225 45.3512C33.0225 52.0346 38.4404 57.4525 45.1237 57.4525Z" fill="#616C33"/>
<path d="M45.1236 33.25C44.2265 33.25 43.3526 33.3485 42.5111 33.5336C47.9385 34.7281 51.9999 39.565 51.9999 45.3512C51.9999 51.1375 47.9385 55.9744 42.511 57.1689C43.3524 57.354 44.2264 57.4525 45.1235 57.4525C51.8069 57.4525 57.2247 52.0346 57.2247 45.3512C57.2247 38.6679 51.8069 33.25 45.1236 33.25Z" fill="#616C33"/>
<path d="M38.3772 6.69116C38.895 6.69116 39.3147 6.27141 39.3147 5.75366C39.3147 5.23591 38.895 4.81616 38.3772 4.81616H22.9617C22.4438 4.81616 22.0242 5.23591 22.0242 5.75366C22.0242 6.27141 22.4438 6.69116 22.9617 6.69116H38.3772Z" fill="black"/>
<path d="M56.7344 39.4214V30.0471C56.7344 28.2515 56.0351 26.5634 54.7656 25.2938L49.0266 19.5548V5.3125C49.0266 2.38313 46.6435 0 43.7141 0H17.6248C14.6954 0 12.3123 2.38313 12.3123 5.3125V14.9531H9.90015C7.66002 14.9531 5.83765 16.7756 5.83765 19.0156V20.6276C5.83765 21.8829 6.41015 23.0069 7.30752 23.7526C6.41015 24.4984 5.83765 25.6224 5.83765 26.8776V28.4896C5.83765 29.7449 6.41015 30.8689 7.30752 31.6146C6.41015 32.3604 5.83765 33.4844 5.83765 34.7396V36.3516C5.83765 37.6069 6.41015 38.7309 7.30752 39.4766C6.41015 40.2224 5.83765 41.3464 5.83765 42.6016V44.2136C5.83765 46.4536 7.66002 48.2761 9.90015 48.2761H12.3123V49.125C12.3123 49.6427 12.7319 50.0625 13.2498 50.0625C13.7676 50.0625 14.1873 49.6427 14.1873 49.125V48.259C16.258 48.0749 17.8871 46.3312 17.8871 44.2135V42.6015C17.8871 41.3463 17.3146 40.2223 16.4173 39.4765C17.3146 38.7308 17.8871 37.6068 17.8871 36.3515V34.7395C17.8871 33.4842 17.3146 32.3602 16.4173 31.6145C17.3146 30.8687 17.8871 29.7448 17.8871 28.4895V26.8775C17.8871 25.6222 17.3146 24.4983 16.4173 23.7525C17.3146 23.0068 17.8871 21.8828 17.8871 20.6275V19.0155C17.8871 16.8977 16.258 15.1543 14.1873 14.97V5.3125C14.1873 3.417 15.7294 1.875 17.6248 1.875H43.7141C45.6095 1.875 47.1516 3.417 47.1516 5.3125V17.6798L42.1844 12.7125C41.3889 11.9174 40.1264 11.8674 39.2724 12.5626H28.5C27.9821 12.5626 27.5625 12.9824 27.5625 13.5001C27.5625 14.0179 27.9821 14.4376 28.5 14.4376H37.8126C37.2119 15.5355 36.8915 16.7722 36.8915 18.0586C36.8915 18.2839 36.9028 18.5072 36.9221 18.7289H21.584V14.4375H24.125C24.6429 14.4375 25.0625 14.0177 25.0625 13.5C25.0625 12.9823 24.6429 12.5625 24.125 12.5625H21.2715C20.4099 12.5625 19.709 13.2634 19.709 14.125V19.0413C19.709 19.9029 20.4099 20.6038 21.2715 20.6038H37.3289C37.5779 21.3021 37.9303 21.9613 38.3781 22.5625H21.2715C20.4099 22.5625 19.709 23.2634 19.709 24.125V29.0413C19.709 29.9029 20.4099 30.6038 21.2715 30.6038H40.0671C40.9288 30.6038 41.6296 29.9029 41.6296 29.0413V25.928L44.3768 28.675V32.3366C41.673 32.4931 39.0596 33.4919 36.948 35.1934C34.677 37.0234 33.068 39.5879 32.4173 42.4145C32.301 42.9191 32.6159 43.4223 33.1205 43.5384C33.6251 43.6549 34.1283 43.3397 34.2444 42.8351C34.8013 40.4162 36.1793 38.2209 38.1245 36.6534C40.1265 35.04 42.5468 34.1872 45.1236 34.1872C51.2793 34.1872 56.2874 39.1953 56.2874 45.351C56.2874 51.5068 51.2794 56.5148 45.1236 56.5148C39.5673 56.5148 34.8125 52.3697 34.0636 46.8731C33.9936 46.3601 33.5211 46.0014 33.0081 46.0709C32.4951 46.1407 32.1359 46.6132 32.2058 47.1264C32.6018 50.0332 33.9589 52.6143 35.9253 54.5711H14.1873V53.5C14.1873 52.9823 13.7676 52.5625 13.2498 52.5625C12.7319 52.5625 12.3123 52.9823 12.3123 53.5V58.6875C12.3123 61.6169 14.6954 64 17.6248 64H43.7141C46.6435 64 49.0266 61.6169 49.0266 58.6875V57.7931C54.3155 56.1305 58.1625 51.1818 58.1625 45.3512C58.1624 43.2173 57.6471 41.2013 56.7344 39.4214ZM16.012 44.2135C16.012 45.4196 15.0306 46.401 13.8245 46.401H9.90015C8.69402 46.401 7.71265 45.4196 7.71265 44.2135V42.6015C7.71265 41.3954 8.69402 40.414 9.90015 40.414H13.8246C15.0308 40.414 16.0121 41.3954 16.0121 42.6015V44.2135H16.012ZM16.012 36.3516C16.012 37.5577 15.0306 38.5391 13.8245 38.5391H9.90015C8.69402 38.5391 7.71265 37.5577 7.71265 36.3516V34.7396C7.71265 33.5335 8.69402 32.5521 9.90015 32.5521H13.8246C15.0308 32.5521 16.0121 33.5335 16.0121 34.7396V36.3516H16.012ZM16.012 28.4896C16.012 29.6958 15.0306 30.6771 13.8245 30.6771H9.90015C8.69402 30.6771 7.71265 29.6958 7.71265 28.4896V26.8776C7.71265 25.6715 8.69402 24.6901 9.90015 24.6901H13.8246C15.0308 24.6901 16.0121 25.6715 16.0121 26.8776V28.4896H16.012ZM16.012 19.0156V20.6276C16.012 21.8337 15.0306 22.8151 13.8245 22.8151H9.90015C8.69402 22.8151 7.71265 21.8337 7.71265 20.6276V19.0156C7.71265 17.8095 8.69402 16.8281 9.90015 16.8281H13.8246C15.0308 16.8281 16.012 17.8095 16.012 19.0156ZM47.1515 58.6875C47.1515 60.583 45.6094 62.125 43.714 62.125H17.6248C15.7294 62.125 14.1873 60.583 14.1873 58.6875V56.4464H38.3001C40.2988 57.6801 42.6421 58.39 45.1238 58.39C45.8134 58.39 46.4907 58.3357 47.1516 58.232V58.6875H47.1515ZM39.7548 28.7288H21.584V24.4375H39.7546V28.7288H39.7548ZM46.2518 32.3619V28.2869C46.2518 28.0382 46.153 27.7998 45.9773 27.624L40.4319 22.0788C39.3581 21.0049 38.7668 19.5772 38.7668 18.0586C38.7668 16.54 39.3581 15.1124 40.432 14.0385C40.5494 13.921 40.7411 13.921 40.8585 14.0385L53.4396 26.6196C54.3551 27.5351 54.8593 28.7524 54.8593 30.0471V36.6883C52.7044 34.269 49.664 32.6556 46.2518 32.3619Z" fill="black"/>
<path d="M43.882 50.3628C44.1219 50.3628 44.3619 50.2713 44.545 50.0882L51.7773 42.856C52.1434 42.4898 52.1434 41.8962 51.7773 41.5302C51.411 41.1641 50.8175 41.1641 50.4514 41.5302L43.882 48.0996L39.879 44.0965C39.5128 43.7303 38.9193 43.7303 38.5532 44.0965C38.187 44.4626 38.187 45.0562 38.5532 45.4222L43.2192 50.0882C43.4022 50.2712 43.6422 50.3628 43.882 50.3628Z" fill="black"/>
<path d="M26.4631 45.907H23.0959C22.2624 45.907 21.5842 45.2289 21.5842 44.3955C21.5842 43.8778 21.1646 43.458 20.6467 43.458C20.1289 43.458 19.7092 43.8778 19.7092 44.3955C19.7092 46.2629 21.2284 47.782 23.0959 47.782H23.842V49.0894C23.842 49.6071 24.2616 50.0269 24.7795 50.0269C25.2974 50.0269 25.717 49.6071 25.717 49.0894V47.782H26.4632C28.3305 47.782 29.8497 46.2629 29.8497 44.3955V43.6813C29.8497 41.814 28.3306 40.2948 26.4632 40.2948H23.096C22.2625 40.2948 21.5844 39.6167 21.5844 38.7832V38.0689C21.5844 37.2355 22.2625 36.5574 23.096 36.5574H26.4632C27.2966 36.5574 27.9747 37.2354 27.9747 38.0689C27.9747 38.5866 28.3944 39.0064 28.9122 39.0064C29.4301 39.0064 29.8497 38.5866 29.8497 38.0689C29.8497 36.2016 28.3306 34.6824 26.4632 34.6824H25.717V33.375C25.717 32.8572 25.2974 32.4375 24.7795 32.4375C24.2616 32.4375 23.842 32.8572 23.842 33.375V34.6824H23.0959C21.2285 34.6824 19.7092 36.2015 19.7092 38.0689V38.7832C19.7092 40.6505 21.2284 42.1698 23.0959 42.1698H26.4631C27.2965 42.1698 27.9746 42.8478 27.9746 43.6813V44.3955C27.9745 45.229 27.2965 45.907 26.4631 45.907Z" fill="black"/>
</svg>
