<svg width="84" height="84" viewBox="0 0 84 84" fill="none" xmlns="http://www.w3.org/2000/svg">
<path d="M68.362 49.185C70.201 46.5055 72.1702 43.8607 73.5302 40.888C75.5358 36.5041 76.3332 31.8062 75.975 27.0953C75.3242 18.5304 70.6328 10.5947 63.4705 5.86085C56.0375 0.948325 47.3817 0.582138 38.8603 1.85789C35.7769 2.3194 32.7226 3.07211 29.8403 4.27404C23.9964 6.71102 19.3029 11.0311 16.4961 16.7205C14.5213 20.7236 13.9599 25.2571 14.8452 29.6289C15.2158 31.459 15.5549 33.0705 15.1037 34.9636C14.5541 37.2691 13.194 39.2335 11.7455 41.067C10.3604 42.8207 8.95204 44.6154 8.19998 46.7196C8.01492 47.2372 7.87021 47.7936 7.97653 48.333C8.21983 49.5681 9.62568 50.1846 10.8735 50.3508C12.0778 50.5111 13.4154 50.5544 14.207 51.5531C16.3695 54.2821 14.7772 59.2346 14.9508 62.4914C15.2414 67.9396 18.2319 70.4801 23.5093 70.6326C26.3681 70.7151 29.6259 70.351 32.5611 69.429C34.2825 68.8882 36.0105 70.2403 35.899 72.0412L35.3758 82.7697H66.8643C66.8643 82.7697 64.3468 62.8539 64.1328 59.8863C63.8933 56.5647 65.2794 53.9307 67.0754 51.1175C67.4902 50.4683 67.9223 49.8257 68.362 49.185Z" fill="white"/>
<path d="M68.362 49.185C70.201 46.5055 72.1702 43.8607 73.5302 40.888C75.5358 36.5041 76.3332 31.8062 75.975 27.0953C75.3242 18.5304 70.6328 10.5947 63.4705 5.86085C56.0375 0.948325 47.3817 0.582138 38.8603 1.85789C35.7769 2.3194 32.7226 3.07211 29.8403 4.27404C23.9964 6.71102 19.3029 11.0311 16.4961 16.7205C14.5213 20.7236 13.9599 25.2571 14.8452 29.6289C15.2158 31.459 15.5549 33.0705 15.1037 34.9636C14.5541 37.2691 13.194 39.2335 11.7455 41.067C10.3604 42.8207 8.95204 44.6154 8.19998 46.7196C8.01492 47.2372 7.87021 47.7936 7.97653 48.333C8.21983 49.5681 9.62568 50.1846 10.8735 50.3508C12.0778 50.5111 13.4154 50.5544 14.207 51.5531C16.3695 54.2821 14.7772 59.2346 14.9508 62.4914C15.2414 67.9396 18.2319 70.4801 23.5093 70.6326C26.3681 70.7151 29.6259 70.351 32.5611 69.429C34.2825 68.8882 36.0105 70.2403 35.899 72.0412L35.3758 82.7697H66.8643C66.8643 82.7697 64.3468 62.8539 64.1328 59.8863C63.8933 56.5647 65.2794 53.9307 67.0754 51.1175C67.4902 50.4683 67.9223 49.8257 68.362 49.185Z" fill="white"/>
<path d="M73.5302 40.8877C72.1704 43.861 70.2002 46.5054 68.3625 49.184C67.9224 49.8255 67.4904 50.4686 67.0748 51.1181C65.2798 53.931 63.8938 56.564 64.1327 59.8858C64.3471 62.8542 66.8638 82.7704 66.8638 82.7704H62.9365C62.9365 82.7704 60.4198 62.8542 60.2053 59.8858C59.9665 56.564 61.3525 53.931 63.1475 51.1181C63.563 50.4685 63.9952 49.8255 64.4352 49.184C66.2729 46.5054 68.2431 43.861 69.6028 40.8877C71.6074 36.504 72.406 31.8059 72.0475 27.0948C71.3962 18.5301 66.7048 10.5954 59.5425 5.86135C54.946 2.82094 49.8799 1.52173 44.668 1.27629C51.2479 0.983441 57.7246 2.06347 63.4699 5.86135C70.6322 10.5954 75.3237 18.5301 75.9749 27.0948C76.3333 31.8059 75.5349 36.504 73.5302 40.8877Z" fill="white"/>
<path d="M45.8876 49.3191C57.5125 49.3191 66.9363 39.8953 66.9363 28.2704C66.9363 16.6455 57.5125 7.22168 45.8876 7.22168C34.2627 7.22168 24.8389 16.6455 24.8389 28.2704C24.8389 39.8953 34.2627 49.3191 45.8876 49.3191Z" fill="white"/>
<path d="M66.9362 28.271C66.9362 39.8946 57.512 49.319 45.8881 49.319C43.1294 49.319 40.4954 48.7893 38.0811 47.8233C39.5852 48.166 41.1515 48.3465 42.7588 48.3465C54.3843 48.3465 63.8085 38.9222 63.8085 27.2984C63.8085 18.4318 58.3255 10.8444 50.5659 7.74463C59.9394 9.87022 66.9362 18.253 66.9362 28.271Z" fill="white"/>
<path d="M35.3051 38.6417C35.1033 38.7097 34.8876 38.693 34.695 38.5944C33.4985 37.9823 32.8096 37.264 32.8096 36.496C32.8096 34.2568 38.6651 32.4414 45.8885 32.4414C53.1118 32.4414 58.9674 34.2568 58.9674 36.496C58.9674 38.7353 53.1118 40.5507 45.8885 40.5507C43.4492 40.5507 41.1659 40.3436 39.2115 39.9832C38.9471 39.9345 38.715 39.7486 38.5764 39.4774L38.0899 38.526C37.8776 38.1109 37.4575 37.9152 37.0637 38.0482L35.3051 38.6417Z" fill="#616C33"/>
<path d="M58.9667 36.4962C58.9667 38.735 53.1113 40.5507 45.8881 40.5507C43.4491 40.5507 41.1644 40.344 39.2111 39.9832C38.9471 39.934 38.7141 39.7486 38.5763 39.4781L38.373 39.0812C39.5244 39.1829 40.7415 39.2387 41.9993 39.2387C49.2225 39.2387 55.0779 37.423 55.0779 35.1842C55.0779 34.4494 54.4464 33.759 53.341 33.1653C56.741 33.8965 58.9667 35.1152 58.9667 36.4962Z" fill="#616C33"/>
<path d="M58.9085 24.5538C58.9915 23.3629 58.9722 22.1611 58.8439 20.9739C58.8352 20.8929 58.8066 20.5838 58.7789 20.2772C58.745 19.9043 58.3952 19.6429 58.0282 19.7166C56.6287 19.9978 55.2424 20.2972 53.8899 20.8004C52.0591 21.4814 50.27 22.407 48.7659 23.6634C46.3322 25.6963 45.2546 28.372 46.2662 31.4905C46.8532 33.3003 48.9432 34.8367 50.8081 34.8876C56.4986 35.0426 58.575 29.3342 58.9085 24.5538Z" fill="white"/>
<path d="M58.9092 24.5543C58.5747 29.3337 56.4982 35.0431 50.8085 34.8872C50.031 34.8659 49.2143 34.5872 48.4844 34.1376C53.6394 33.8177 55.555 28.3905 55.8749 23.8161C55.9569 22.6254 55.9372 21.4231 55.8093 20.2356C55.8093 20.2291 55.8076 20.2209 55.8076 20.2094C56.5425 20.0207 57.2837 19.8667 58.0284 19.7174C58.3957 19.6435 58.7452 19.9044 58.7796 20.2767C58.8075 20.5833 58.8354 20.8934 58.8436 20.9738C58.9714 22.1612 58.9911 23.3635 58.9092 24.5543Z" fill="white"/>
<path d="M32.8674 24.5538C32.7844 23.3629 32.8038 22.1611 32.9321 20.9739C32.9408 20.8929 32.9693 20.5838 32.9971 20.2772C33.031 19.9043 33.3808 19.6429 33.7478 19.7166C35.1473 19.9978 36.5336 20.2972 37.8861 20.8004C39.7169 21.4814 41.506 22.407 43.0101 23.6634C45.4438 25.6963 46.5214 28.372 45.5098 31.4905C44.9228 33.3003 42.8328 34.8367 40.9679 34.8876C35.2772 35.0426 33.2008 29.3342 32.8674 24.5538Z" fill="white"/>
<path d="M45.5094 31.4905C45.1273 32.6681 44.1119 33.7276 42.9344 34.3394C42.9722 34.2508 43.005 34.1622 43.0345 34.072C44.0464 30.9525 42.9689 28.2773 40.5349 26.2436C39.0307 24.9872 37.2415 24.0622 35.411 23.3815C34.5581 23.0651 33.6938 22.8288 32.8213 22.627C32.8361 22.0743 32.8722 21.5232 32.9312 20.9738C32.9411 20.8934 32.9689 20.5835 32.9968 20.2767C33.0313 19.9044 33.3806 19.6435 33.7481 19.7174C35.1472 19.9977 36.533 20.298 37.8862 20.7998C39.7167 21.4805 41.5061 22.4072 43.0101 23.6636C45.4438 25.6958 46.5213 28.3726 45.5094 31.4905Z" fill="white"/>
<path d="M49.454 19.9984C48.7249 18.8672 47.8959 17.7953 46.9786 16.8101C46.9161 16.7429 46.6816 16.4832 46.4495 16.2251C46.1671 15.9114 45.6748 15.9116 45.3932 16.2259C44.3196 17.4247 43.2703 18.6311 42.3891 19.9984C41.1962 21.8492 40.2059 23.8929 39.6963 26.0428C38.8718 29.5214 39.7055 32.6643 42.7246 34.7966C44.4766 36.0342 47.4007 36.01 49.1186 34.7968C54.3604 31.0946 52.3807 24.5391 49.454 19.9984Z" fill="#58469C"/>
<path d="M49.1181 34.797C47.9995 35.5875 46.3676 35.8729 44.8817 35.6334C45.1867 35.5054 45.4721 35.3514 45.7296 35.1693C50.9715 31.4657 48.9918 24.9118 46.0641 20.3702C45.4687 19.445 44.806 18.5611 44.0811 17.7312C44.5075 17.2195 44.9488 16.7209 45.3932 16.2256C45.6752 15.9123 46.1674 15.9106 46.4495 16.2256C46.6824 16.483 46.9169 16.7423 46.9792 16.8095C47.896 17.7952 48.7244 18.8679 49.4543 19.9981C52.3803 24.5395 54.3599 31.0951 49.1181 34.797Z" fill="#58469C"/>
<path d="M77.2016 27.002C76.5232 18.075 71.6437 9.78809 64.1488 4.83455C60.5342 2.44547 56.357 0.926087 51.7341 0.318892C47.8258 -0.194296 43.5552 -0.0889678 38.6786 0.641274C35.1908 1.16316 32.1452 1.98019 29.3673 3.13863C23.1555 5.72885 18.3234 10.2371 15.3934 16.176C13.3237 20.3714 12.701 25.2356 13.6401 29.8729L13.6566 29.9543C14.0102 31.6991 14.2893 33.0769 13.9076 34.6782C13.4071 36.7775 12.109 38.6231 10.7808 40.3045C9.41643 42.0318 7.86998 43.9897 7.04229 46.3056C6.82671 46.909 6.60079 47.7118 6.77027 48.571C6.92744 49.3683 7.40979 50.0528 8.04848 50.543C8.40827 50.8191 8.81219 51.0349 9.23416 51.1991C9.85071 51.439 10.4933 51.5458 11.1483 51.6245C12.2119 51.7527 12.8839 51.8632 13.2437 52.317C14.4236 53.8062 14.1637 56.4229 13.9122 58.9534C13.7846 60.237 13.6642 61.4492 13.7232 62.5568C14.0384 68.4693 17.4105 71.6871 23.4746 71.8621C26.6899 71.9535 30.0488 71.5077 32.9304 70.6026C33.3586 70.4678 33.8068 70.5496 34.1602 70.8261C34.5131 71.1023 34.6996 71.5176 34.6709 71.9814L34.1477 82.7099C34.1313 83.0461 34.2534 83.3745 34.4857 83.6183C34.7178 83.8621 35.0397 84 35.3764 84H41.1816C41.8609 84 42.4117 83.4494 42.4117 82.7698C42.4117 82.0903 41.8611 81.5397 41.1816 81.5397H36.6679L37.1272 72.1172C37.2047 70.8672 36.6623 69.6604 35.6766 68.8886C34.6906 68.1167 33.3884 67.8802 32.1931 68.2554C29.5661 69.0808 26.4929 69.489 23.5457 69.4028C18.767 69.2648 16.4263 67.0479 16.1799 62.4257C16.1309 61.5057 16.2424 60.384 16.3602 59.1965C16.6463 56.3193 16.9704 53.0584 15.1717 50.7886C14.1473 49.496 12.5553 49.3332 11.0364 49.1311C10.2213 49.0227 9.29372 48.652 9.18396 48.095C9.13014 47.8222 9.25795 47.4155 9.35885 47.1335C10.0509 45.1977 11.4032 43.4852 12.7113 41.8292C14.2143 39.9265 15.6895 37.8123 16.3007 35.2485C16.8079 33.1196 16.4483 31.3446 16.0677 29.4654L16.0511 29.3844C15.2197 25.278 15.7696 20.9737 17.5995 17.2643C20.2626 11.8666 24.6592 7.767 30.3141 5.40893C32.9026 4.3294 35.7578 3.56569 39.0427 3.07399C49.0444 1.57709 56.591 2.78803 62.7922 6.88681C69.6577 11.4243 74.1273 19.0136 74.7484 27.1882C75.098 31.7856 74.312 36.2225 72.4117 40.3759C71.3092 42.7855 69.7378 45.0459 68.2179 47.2317C67.478 48.2965 66.7366 49.3624 66.0388 50.4554C64.3026 53.1751 62.6306 56.1507 62.9062 59.9745C63.0895 62.515 64.8912 76.9376 65.4697 81.5393H46.9085C46.2291 81.5393 45.6783 82.0899 45.6783 82.7695C45.6783 83.449 46.2289 83.9996 46.9085 83.9996H66.8646C67.2178 83.9996 67.5538 83.8479 67.7872 83.5831C68.0209 83.3181 68.1292 82.9657 68.0849 82.6153C68.0598 82.4166 65.5693 62.6987 65.3601 59.7976C65.1593 57.012 66.2173 54.7481 68.1127 51.7787C68.7895 50.7197 69.5232 49.6645 70.2382 48.6361C71.8197 46.3614 73.4551 44.0091 74.6492 41.3993C76.7244 36.8633 77.5833 32.0192 77.2016 27.002Z" fill="black"/>
<path d="M68.1669 28.2703C68.1669 15.9857 58.1728 5.99146 45.8881 5.99146C33.6036 5.99146 23.6094 15.9857 23.6094 28.2703C23.6094 40.555 33.6037 50.5492 45.8882 50.5492C58.1727 50.5492 68.1669 40.555 68.1669 28.2703ZM45.8882 48.0889C34.9602 48.0889 26.0698 39.1984 26.0698 28.2703C26.0698 17.3423 34.9602 8.45174 45.8882 8.45174C56.8163 8.45174 65.7068 17.3423 65.7068 28.2703C65.7068 39.1984 56.8161 48.0889 45.8882 48.0889Z" fill="black"/>
<path d="M57.2276 33.1071C57.8096 32.4023 58.3041 31.5989 58.6993 30.7217C59.5588 28.8139 59.991 26.7203 60.136 24.6397C60.2407 23.1382 60.1401 21.6572 60.0042 20.1657C59.9565 19.6405 59.6865 19.1584 59.2638 18.8432C58.8412 18.528 58.3024 18.407 57.7864 18.5108C56.3909 18.791 54.9073 19.1098 53.4614 19.6478C52.6823 19.9375 51.9486 20.26 51.2548 20.6088C51.0149 20.181 50.7605 19.7549 50.4878 19.3323C49.5702 17.9141 48.4912 16.6546 47.3637 15.4025C46.9962 14.994 46.4707 14.76 45.9188 14.76C45.3689 14.7608 44.8432 14.9961 44.4769 15.4056C43.4105 16.5964 42.2911 17.8803 41.3551 19.3323C41.0754 19.766 40.8142 20.1997 40.5697 20.6325C39.8621 20.2743 39.1117 19.9444 38.3149 19.6479C36.869 19.1101 35.3855 18.7915 33.9902 18.5111C33.474 18.407 32.9349 18.5282 32.5123 18.8435C32.0895 19.1587 31.8196 19.6407 31.7717 20.1672C31.6349 21.6616 31.5351 23.1387 31.6401 24.6399C31.8547 27.718 32.7426 30.8908 34.5189 33.1196C32.7187 33.9547 31.5791 35.0737 31.5791 36.4965C31.5791 37.357 32.0224 38.6094 34.1347 39.6901C34.6248 39.9408 35.1799 39.9827 35.6982 39.8078L37.118 39.3284L37.4806 40.0376C37.7951 40.6533 38.3444 41.0745 38.988 41.1936C41.0737 41.5782 43.4597 41.7814 45.888 41.7814C52.7796 41.7814 60.197 40.1277 60.197 36.4967C60.197 35.066 59.044 33.9435 57.2276 33.1071ZM40.8933 26.3266C41.3251 24.5042 42.1762 22.5992 43.4229 20.6648C44.1581 19.5242 45.0207 18.4985 45.9241 17.4792C45.9967 17.5594 46.0522 17.6203 46.0783 17.6483C46.9358 18.5694 47.7238 19.5841 48.4201 20.6648C49.2015 21.877 49.833 23.1113 50.2972 24.3329C50.5383 24.9681 51.2497 25.2871 51.8838 25.0459C52.5189 24.8047 52.8383 24.0943 52.5968 23.4593C52.5151 23.2442 52.4275 23.0291 52.3369 22.8138C52.9556 22.5021 53.6166 22.2145 54.3191 21.9532C55.3905 21.5547 56.4912 21.2912 57.6163 21.0562C57.6184 21.0772 57.6199 21.094 57.6212 21.1058C57.7402 22.2075 57.7605 23.3387 57.6818 24.4679V24.4681C57.5404 26.4941 56.7243 32.7398 52.0868 33.5683C52.8711 32.4484 53.3569 31.1649 53.5348 29.7269C53.6183 29.0526 53.139 28.4386 52.4649 28.355C51.7929 28.2707 51.1765 28.7504 51.093 29.4249C50.8676 31.2467 49.9895 32.6753 48.4086 33.7918C47.1068 34.7112 44.7354 34.711 43.4339 33.7916C40.9841 32.0616 40.1292 29.5499 40.8933 26.3266ZM34.0943 24.4684C34.0156 23.339 34.0359 22.2078 34.1547 21.1071C34.156 21.095 34.1578 21.0779 34.1598 21.0566C35.2846 21.2913 36.3855 21.555 37.4571 21.9535C38.1749 22.2204 38.8451 22.5172 39.4754 22.8368C39.0543 23.8213 38.7273 24.7975 38.4994 25.7594C37.7876 28.7627 38.2336 31.4511 39.7522 33.5796C35.062 32.7969 34.2363 26.5033 34.0943 24.4684ZM54.772 38.1883C52.4165 38.9185 49.2614 39.3207 45.8881 39.3207C43.6771 39.3207 41.5126 39.1428 39.6146 38.8062L39.1849 37.9657C38.6965 37.011 37.6383 36.5556 36.67 36.8824L35.0943 37.4143C34.2235 36.9386 34.0394 36.572 34.0394 36.4958C34.0394 36.3526 34.4994 35.6612 36.541 34.9556C37.7027 35.6901 39.0917 36.1209 40.7379 36.1208C41.2191 36.1208 41.7347 36.0622 42.2184 35.9311C43.2674 36.6023 44.5925 36.9424 45.9216 36.9424C47.2415 36.9422 48.5581 36.6067 49.6038 35.9446C49.9927 36.0465 50.3859 36.1065 50.7751 36.117C52.4273 36.1621 53.907 35.7249 55.1685 34.9328C57.2669 35.6463 57.7369 36.3511 57.7369 36.4958C57.7369 36.6496 57.2093 37.4326 54.772 38.1883Z" fill="black"/>
</svg>
