<svg width="250" height="85" viewBox="0 0 250 85" fill="none" xmlns="http://www.w3.org/2000/svg">
<path d="M41.4531 22.4824C42.8689 22.732 44.3055 22.8583 45.7432 22.8594C48.4169 22.8599 51.0739 22.4209 53.6055 21.5605L52.2354 23.1143C48.6947 26.6989 45.3736 30.9147 42.085 35.999C40.9871 37.7026 39.4083 39.0448 37.5508 39.8555C35.6932 40.6657 33.6361 40.9095 31.6406 40.5557C31.217 40.4805 30.7969 40.3787 30.3857 40.252C24.4787 53.2245 20.4705 65.7678 20.2822 82.2129H46.3818L35.8057 63.8945L35.8037 63.8955L29.9258 53.7139L29.7646 53.4346V44.2188H36.833V46.5752H32.1201V52.8145L37.8379 62.7178V62.7227L49.4336 82.8066L50.4512 84.5693H0L1.01758 82.8066L12.6133 62.7227V62.7178L18.3311 52.8145V46.5752H13.6182V44.2188H20.6875V53.4346L20.5264 53.7139L14.6475 63.8955L14.6455 63.8945L4.06934 82.2129H17.7275C17.9088 65.3398 22.0087 52.4886 28.0576 39.2041C26.5489 38.2877 25.3006 36.9977 24.4355 35.459C23.5707 33.9203 23.117 32.1841 23.1182 30.4189C23.1192 29.8149 23.173 29.211 23.2783 28.6162L24.8672 19.5664L41.4531 22.4824ZM90.9219 71.5449C91.8919 71.545 92.7642 71.7357 93.5381 72.1172C94.3228 72.4878 94.9607 73.0165 95.4512 73.7031C95.9526 74.379 96.2572 75.1752 96.3662 76.0908H93.9141C93.7724 75.2516 93.4287 74.6195 92.8838 74.1943C92.3387 73.7583 91.6897 73.54 90.9375 73.54C90.2726 73.5401 89.6842 73.6985 89.1719 74.0146C88.6704 74.3308 88.2776 74.7882 87.9941 75.3877C87.7107 75.9764 87.5693 76.6909 87.5693 77.5303C87.5694 78.3803 87.7108 79.1161 87.9941 79.7373C88.2884 80.3477 88.6918 80.8222 89.2041 81.1602C89.7165 81.4872 90.3057 81.6504 90.9707 81.6504C91.6791 81.6503 92.3056 81.4377 92.8506 81.0127C93.3956 80.5876 93.7505 79.9556 93.9141 79.1162H96.3994C96.2577 80.0318 95.9359 80.8328 95.4346 81.5195C94.9331 82.1954 94.2955 82.7192 93.5215 83.0898C92.7476 83.4604 91.881 83.6454 90.9219 83.6455C90.0716 83.6455 89.2859 83.4984 88.5664 83.2041C87.8471 82.8989 87.2206 82.4736 86.6865 81.9287C86.1633 81.3836 85.7543 80.7403 85.46 79.999C85.1656 79.2468 85.0186 78.4289 85.0186 77.5459C85.0186 76.663 85.16 75.8563 85.4434 75.126C85.7377 74.3957 86.1467 73.7636 86.6699 73.2295C87.2041 72.6844 87.8313 72.2698 88.5508 71.9863C89.2701 71.6921 90.0609 71.5449 90.9219 71.5449ZM243.309 71.5449C244.279 71.5449 245.151 71.7357 245.925 72.1172C246.71 72.4878 247.347 73.0165 247.838 73.7031C248.339 74.379 248.645 75.1751 248.754 76.0908H246.301C246.159 75.2515 245.816 74.6195 245.271 74.1943C244.726 73.7584 244.077 73.5401 243.325 73.54C242.66 73.54 242.071 73.6985 241.559 74.0146C241.057 74.3307 240.665 74.7884 240.382 75.3877C240.098 75.9764 239.956 76.6909 239.956 77.5303C239.956 78.3804 240.098 79.116 240.382 79.7373C240.676 80.3478 241.079 80.8222 241.592 81.1602C242.104 81.4871 242.693 81.6503 243.357 81.6504C244.066 81.6504 244.693 81.4379 245.238 81.0127C245.783 80.5876 246.137 79.9554 246.301 79.1162H248.786C248.644 80.0317 248.324 80.8329 247.822 81.5195C247.321 82.1954 246.682 82.7192 245.908 83.0898C245.134 83.4604 244.268 83.6455 243.309 83.6455C242.458 83.6455 241.674 83.4984 240.954 83.2041C240.235 82.8989 239.607 82.4738 239.073 81.9287C238.55 81.3837 238.141 80.7403 237.847 79.999C237.552 79.2469 237.405 78.4288 237.405 77.5459C237.405 76.663 237.548 75.8563 237.831 75.126C238.125 74.3959 238.534 73.7635 239.057 73.2295C239.591 72.6844 240.218 72.2698 240.938 71.9863C241.657 71.692 242.447 71.5449 243.309 71.5449ZM68.6602 71.5283C70.0337 71.5283 71.1297 71.8557 71.9473 72.5098C72.7649 73.1529 73.2279 74.0088 73.3369 75.0771H70.917C70.808 74.4995 70.5412 74.0743 70.1162 73.8018C69.702 73.5293 69.1676 73.3926 68.5137 73.3926C67.9469 73.3926 67.4942 73.5017 67.1562 73.7197C66.8184 73.9377 66.6495 74.2321 66.6494 74.6025C66.6494 74.886 66.7424 75.1479 66.9277 75.3877C67.1131 75.6165 67.4995 75.8131 68.0879 75.9766L70.2793 76.5811C71.4347 76.8972 72.2632 77.3338 72.7646 77.8896C73.277 78.4347 73.5332 79.1274 73.5332 79.9668C73.5331 81.1439 73.1241 82.0485 72.3066 82.6807C71.4891 83.3128 70.3502 83.6289 68.8896 83.6289C67.3635 83.6289 66.1423 83.2911 65.2266 82.6152C64.3109 81.9285 63.7766 80.9634 63.624 79.7207H66.0439C66.1203 80.353 66.4258 80.8549 66.96 81.2256C67.4941 81.5853 68.1755 81.7646 69.0039 81.7646C69.6798 81.7646 70.1979 81.6451 70.5576 81.4053C70.9282 81.1655 71.1133 80.8437 71.1133 80.4404C71.1133 80.059 71.0041 79.7533 70.7861 79.5244C70.5681 79.2848 70.1921 79.0938 69.6582 78.9521L67.4668 78.3477C66.3441 78.0315 65.5213 77.6007 64.998 77.0557C64.4857 76.4997 64.2295 75.807 64.2295 74.9785C64.2296 74.2701 64.4089 73.6597 64.7686 73.1475C65.1392 72.6242 65.6573 72.2266 66.3223 71.9541C66.9871 71.6707 67.7664 71.5284 68.6602 71.5283ZM110.757 83.4824H108.238V71.709H110.757V83.4824ZM131.588 73.6377H125.537V76.5156H131.211V78.4131H125.537V81.5527H131.783V83.4824H123.019V71.709H131.588V73.6377ZM151.569 80.5166V71.709H154.022V83.4824H150.768L146.337 74.6748V83.4824H143.884V71.709H147.138L151.569 80.5166ZM176.061 73.6377H172.218V83.4824H169.699V73.6377H165.856V71.709H176.061V73.6377ZM190.415 83.4824H187.897V71.709H190.415V83.4824ZM210.984 73.6377H205.196V76.9902H210.608V78.9199H205.196V83.4824H202.678V71.709H210.984V73.6377ZM225.47 83.4824H222.952V71.709H225.47V83.4824ZM14.0645 72.5781C15.8599 72.4882 17.4202 73.9499 17.5137 75.8096C17.6084 77.6963 16.227 79.2786 14.4053 79.3701C12.5836 79.4616 11.0508 78.0255 10.9561 76.1387C10.8615 74.2521 12.2429 72.6696 14.0645 72.5781ZM35.2041 74.0195C35.92 73.9838 36.541 74.5458 36.5771 75.2617C36.6136 75.9884 36.0616 76.5992 35.335 76.6357C34.6084 76.6722 33.9974 76.1202 33.9609 75.3936C33.9244 74.6669 34.4775 74.056 35.2041 74.0195ZM28.207 62.3105C29.2836 62.2565 30.2174 63.1012 30.2715 64.1777C30.3263 65.2696 29.4971 66.1871 28.4053 66.2422C27.3131 66.297 26.3947 65.4671 26.3398 64.375C26.285 63.283 27.1151 62.3655 28.207 62.3105ZM107.268 39.6758C111.038 39.6758 113.849 40.7427 115.698 42.877C117.548 44.9758 118.473 47.6266 118.473 50.8281H101.345C101.38 53.816 102.233 56.4662 103.905 58.7783C105.613 61.055 107.516 62.1934 109.615 62.1934C112.71 62.1933 115.2 61.0194 117.085 58.6719L118.366 59.3115C117.335 61.019 115.982 62.2643 114.311 63.0469C112.674 63.8295 110.504 64.2207 107.801 64.2207C106.449 64.2207 105.15 64.0251 103.905 63.6338C102.66 63.2069 101.433 62.5312 100.224 61.6064C99.0142 60.646 98.0542 59.2404 97.3428 57.3906C96.6314 55.5409 96.2754 53.3356 96.2754 50.7744C96.2754 47.644 97.2353 45.0113 99.1562 42.877C101.113 40.7426 103.817 39.6758 107.268 39.6758ZM154.292 40.209H158.881V41.8096H154.292V58.7783C154.292 59.8811 154.488 60.7351 154.879 61.3398C155.27 61.909 156 62.1934 157.067 62.1934C157.708 62.1932 158.348 61.8907 158.988 61.2861C159.664 60.6459 160.126 59.7744 160.375 58.6719L161.656 59.3115C160.909 62.5842 158.775 64.2206 155.253 64.2207C151.198 64.2207 149.17 62.2645 149.17 58.3516V41.8096H145.435V40.209C147.106 40.209 148.618 39.5152 149.97 38.1279C151.322 36.7406 151.998 34.8551 151.998 32.4717H154.292V40.209ZM180.667 31.9385C181.699 31.9385 182.979 32.2057 184.509 32.7393C186.038 33.2729 186.911 33.5391 187.124 33.5391C187.551 33.5389 187.764 33.183 187.764 32.4717H188.991L189.525 39.249H188.351C188.137 37.6838 187.355 36.3851 186.003 35.3535C184.651 34.2864 182.891 33.7529 180.721 33.7529C177.661 33.7529 175.029 35.1938 172.823 38.0752C170.618 40.921 169.515 44.3716 169.515 48.4268C169.515 50.8812 169.835 53.0512 170.476 54.9365C171.116 56.8218 171.97 58.2981 173.037 59.3652C174.104 60.3968 175.225 61.1622 176.398 61.6602C177.572 62.1581 178.764 62.4062 179.974 62.4062C181.966 62.4062 183.851 62.0685 185.63 61.3926V50.4541C185.31 49.7427 184.188 49.3867 182.268 49.3867V48.2666H193.9V49.3867C191.98 49.3867 190.859 49.7428 190.539 50.4541V59.4189C189.934 60.5572 188.706 61.6423 186.856 62.6738C185.042 63.7052 182.713 64.2207 179.867 64.2207C175.1 64.2207 171.258 62.6739 168.341 59.5791C165.424 56.4843 163.966 52.802 163.966 48.5332C163.966 43.5886 165.638 39.5866 168.981 36.5273C172.325 33.4681 176.22 31.9385 180.667 31.9385ZM207.837 39.6758C211.607 39.6758 214.418 40.7428 216.268 42.877C218.117 44.9758 219.043 47.6266 219.043 50.8281H201.914C201.95 53.8161 202.804 56.4662 204.476 58.7783C206.183 61.0548 208.086 62.1932 210.185 62.1934C213.279 62.1934 215.77 61.0196 217.655 58.6719L218.936 59.3115C217.904 61.0189 216.553 62.2643 214.881 63.0469C213.245 63.8294 211.074 64.2207 208.371 64.2207C207.019 64.2207 205.721 64.0251 204.476 63.6338C203.231 63.2069 202.003 62.5313 200.794 61.6064C199.584 60.646 198.624 59.2404 197.912 57.3906C197.201 55.5409 196.845 53.3355 196.845 50.7744C196.845 47.644 197.806 45.0113 199.727 42.877C201.683 40.7427 204.387 39.6758 207.837 39.6758ZM88.1582 54.2959V34.6602C87.8381 33.9487 86.7177 33.5928 84.7969 33.5928V32.4717H93.334V33.5928C91.4132 33.5928 90.2928 33.9487 89.9727 34.6602V63.6875H89.4922L68.5225 37.168V61.5C68.8429 62.2112 69.9633 62.5664 71.8838 62.5664V63.6875H63.3467V62.5664C65.2671 62.5663 66.3877 62.2112 66.708 61.5V34.6602C66.3879 33.9488 65.2673 33.5928 63.3467 33.5928V32.4717H70.4961L88.1582 54.2959ZM131.038 41.3301C130.184 41.3301 129.491 41.3835 128.957 41.4902L132.906 47.8926L137.068 41.7031C136.606 41.4541 135.716 41.3301 134.4 41.3301V40.209H143.151V41.3301C141.302 41.3301 140.11 41.6679 139.576 42.3438L134.347 50.1338L141.443 61.5527C141.835 62.2286 142.938 62.5664 144.752 62.5664V63.6875H134.4V62.5664C135.254 62.5664 135.93 62.513 136.428 62.4062L131.465 54.4023L126.236 62.1934C126.699 62.4423 127.588 62.5664 128.904 62.5664V63.6875H120.153V62.5664C122.038 62.5664 123.248 62.1932 123.781 61.4463L130.024 52.1621L123.835 42.1836C123.479 41.6144 122.43 41.3301 120.687 41.3301V40.209H131.038V41.3301ZM237.247 39.6758C240.555 39.6758 242.939 40.2979 244.397 41.543C245.891 42.7525 246.639 44.6562 246.639 47.2529V61.5C246.959 62.2111 248.079 62.5664 250 62.5664V63.6875H238.475V62.5664C240.395 62.5664 241.516 62.2112 241.836 61.5V46.8789C241.836 43.2862 240.199 41.4902 236.927 41.4902C234.686 41.4902 232.676 42.2727 230.897 43.8379V61.5C231.218 62.2112 232.338 62.5664 234.259 62.5664V63.6875H222.733V62.5664C224.654 62.5664 225.774 62.2112 226.095 61.5V43.4639C223.893 43.2863 222.773 43.1976 222.733 43.1973V41.9697C223.409 41.9697 224.725 41.5965 226.682 40.8496C228.674 40.067 230.079 39.6758 230.897 39.6758V42.1299C232.818 40.4937 234.935 39.6758 237.247 39.6758ZM107.054 41.2764C105.809 41.2764 104.6 42.0057 103.426 43.4639C102.287 44.9224 101.611 46.826 101.397 49.1738H113.243C113.03 46.6126 112.479 44.6555 111.59 43.3037C110.736 41.952 109.224 41.2764 107.054 41.2764ZM207.624 41.2764C206.379 41.2764 205.169 42.0054 203.995 43.4639C202.857 44.9224 202.181 46.826 201.968 49.1738H213.813C213.6 46.6126 213.049 44.6555 212.159 43.3037C211.305 41.9522 209.794 41.2764 207.624 41.2764ZM22.4258 37.8213C23.232 37.7808 23.9322 38.4135 23.9727 39.2197C24.0137 40.0376 23.392 40.7244 22.5742 40.7656C21.7563 40.8067 21.0684 40.1851 21.0273 39.3672C20.9865 38.5496 21.6081 37.8625 22.4258 37.8213ZM42.0254 0.520508C44.8533 -0.107185 47.7784 -0.168134 50.6299 0.341797L67.1777 3.25195C65.9314 8.59907 62.7193 13.2828 58.1797 16.3711C54.5218 18.8894 50.1842 20.2373 45.7432 20.2363C44.4534 20.2356 43.1657 20.1226 41.8955 19.8984L41.6172 19.8496L43.8057 12.3896C43.9185 12.0108 43.9755 11.616 43.9756 11.2207C43.9717 10.3283 43.6804 9.45953 43.1455 8.74512C42.6105 8.0309 41.8591 7.5078 41.0039 7.25293C40.4831 7.10029 39.937 7.05114 39.3975 7.10938C38.8579 7.16768 38.3346 7.33243 37.8584 7.59277C37.3823 7.85317 36.9613 8.20522 36.6211 8.62793C36.2811 9.05062 36.0275 9.53703 35.875 10.0576L33.4238 18.4062L25.3477 16.9873C26.5768 11.719 29.7141 7.09184 34.1533 4C36.5212 2.3314 39.1975 1.14834 42.0254 0.520508ZM39.084 9.83301C39.4512 9.63234 39.8836 9.5856 40.2852 9.70312C40.6119 9.8006 40.8991 10.0006 41.1035 10.2734C41.3078 10.5464 41.4193 10.8788 41.4209 11.2197C41.4213 11.3695 41.3998 11.5194 41.3574 11.6631L39.0859 19.4033L35.9561 18.8525L38.3262 10.7744C38.444 10.3729 38.7169 10.0338 39.084 9.83301Z" fill="white"/>
</svg>
