<svg width="34" height="34" viewBox="0 0 34 34" fill="none" xmlns="http://www.w3.org/2000/svg">
<g clip-path="url(#clip0_317_261)">
<path d="M32.669 17.2667C31.9355 17.2667 31.341 16.6722 31.341 15.9387C31.341 8.61628 25.3837 2.65899 18.0613 2.65899C17.3278 2.65899 16.7333 2.06446 16.7333 1.33102C16.7333 0.597584 17.3278 0.00305058 18.0613 0.00305058C26.6269 -0.173902 34.174 7.3731 33.9968 15.9388C33.9969 16.6722 33.4024 17.2667 32.669 17.2667ZM23.3732 15.9387C23.3732 13.0097 20.9902 10.6268 18.0613 10.6268C17.3278 10.6268 16.7333 11.2214 16.7333 11.9548C16.7333 12.6882 17.3278 13.2828 18.0613 13.2828C19.5258 13.2828 20.7172 14.4742 20.7172 15.9387C20.7172 16.6722 21.3117 17.2667 22.0452 17.2667C22.7786 17.2667 23.3732 16.6722 23.3732 15.9387ZM28.685 15.9387C28.685 10.0808 23.9193 5.31494 18.0613 5.31494C17.3278 5.31494 16.7333 5.90947 16.7333 6.64291C16.7333 7.37635 17.3278 7.97088 18.0613 7.97088C22.4547 7.97088 26.0291 11.5453 26.0291 15.9387C26.0291 16.6722 26.6236 17.2667 27.3571 17.2667C28.0905 17.2667 28.685 16.6722 28.685 15.9387ZM23.4021 33.9995C23.744 33.9918 24.0698 33.8527 24.3116 33.6108L29.0923 28.8301C29.6109 28.3115 29.6109 27.4707 29.0923 26.9521L21.8715 19.7313C21.3529 19.2126 20.512 19.2126 19.9935 19.7313L18.1925 21.5323C16.3909 20.6662 13.3009 17.5648 12.463 15.7666L14.2459 13.9837C14.7603 13.4892 14.7603 12.6002 14.2459 12.1057L6.98159 4.84132C6.46295 4.32268 5.62215 4.32268 5.10358 4.84132L0.389276 9.55562C0.145726 9.79917 0.006289 10.1278 0.000512324 10.4722C-0.0200712 20.2057 13.18 33.8783 23.3433 34C23.3715 34 23.3913 33.9997 23.4021 33.9995ZM6.04259 7.65841L11.4289 13.0447L9.95061 14.523C9.61569 14.8579 9.48449 15.346 9.60633 15.8037C10.3036 18.6078 15.3987 23.6961 18.1481 24.3932C18.6062 24.5162 19.0957 24.3853 19.4313 24.0496L20.9325 22.5484L26.2752 27.8912L22.8491 31.3173C15.4841 30.8858 3.63955 20.6472 2.68727 11.0137L6.04259 7.65841Z" fill="#616C33"/>
</g>
<defs>
<clipPath id="clip0_317_261">
<rect width="34" height="34" fill="white"/>
</clipPath>
</defs>
</svg>
