<svg width="57" height="57" viewBox="0 0 57 57" fill="none" xmlns="http://www.w3.org/2000/svg">
<g clip-path="url(#clip0_362_124)">
<path d="M23.2563 41.5727C23.2563 33.6159 29.7296 27.1427 37.6862 27.1427C39.4104 27.1427 41.0646 27.4471 42.5987 28.0043V1.99951C42.5987 1.38465 42.1003 0.88623 41.4854 0.88623H1.94824C1.33338 0.88623 0.834961 1.38465 0.834961 1.99951V52.7147C0.834961 53.3296 1.33338 53.828 1.94824 53.828H30.0774C25.9857 51.2782 23.2563 46.7385 23.2563 41.5727Z" fill="white"/>
<path d="M41.4854 0.88623H36.8496C37.4645 0.88623 37.9629 1.38465 37.9629 1.99951V27.1458C39.5874 27.1765 41.147 27.477 42.5987 28.0042V1.99951C42.5987 1.38465 42.1003 0.88623 41.4854 0.88623Z" fill="#F3EAE6"/>
<path d="M11.6509 16.358V28.8601H7.62451V16.358C7.62451 16.1082 7.82702 15.9058 8.07673 15.9058H11.1986C11.4484 15.9057 11.6509 16.1082 11.6509 16.358Z" fill="#616C33"/>
<path d="M11.1987 15.9058H9.23315C9.48297 15.9058 9.68537 16.1083 9.68537 16.358V28.8601H11.6509V16.358C11.651 16.1083 11.4485 15.9058 11.1987 15.9058Z" fill="#616C33"/>
<path d="M19.7036 8.30524V28.8602H15.6772V8.30524C15.6772 8.05542 15.8798 7.85303 16.1295 7.85303H19.2513C19.5011 7.85303 19.7036 8.05542 19.7036 8.30524Z" fill="#58469C"/>
<path d="M19.2514 7.85303H17.2859C17.5357 7.85303 17.7381 8.05553 17.7381 8.30524V28.8602H19.7036V8.30524C19.7036 8.05542 19.5011 7.85303 19.2514 7.85303Z" fill="#58469C"/>
<path d="M27.7564 16.0079V28.8602H23.73V16.0079C23.73 15.7581 23.9325 15.5557 24.1822 15.5557H27.3041C27.5539 15.5556 27.7564 15.7581 27.7564 16.0079Z" fill="#616C33"/>
<path d="M27.3041 15.5557H25.3386C25.5884 15.5557 25.7908 15.7582 25.7908 16.0079V28.8602H27.7563V16.008C27.7563 15.7582 27.5538 15.5557 27.3041 15.5557Z" fill="#616C33"/>
<path d="M35.8091 27.2649V21.4349C35.8091 21.1851 35.6066 20.9827 35.3569 20.9827H32.2349C31.9851 20.9827 31.7827 21.1852 31.7827 21.4349V28.4067C33.0402 27.8406 34.3927 27.4497 35.8091 27.2649Z" fill="#58469C"/>
<path d="M35.8093 21.4349C35.8093 21.1851 35.6068 20.9827 35.3571 20.9827H33.3916C33.6414 20.9827 33.8438 21.1852 33.8438 21.4349V27.5469C34.4827 27.3721 35.1385 27.2384 35.8093 27.1519V21.4349Z" fill="#616C33"/>
<path d="M37.6863 56.114C45.7172 56.114 52.2275 49.6036 52.2275 41.5727C52.2275 33.5418 45.7172 27.0315 37.6863 27.0315C29.6554 27.0315 23.145 33.5418 23.145 41.5727C23.145 49.6036 29.6554 56.114 37.6863 56.114Z" fill="#58469C"/>
<path d="M37.6863 27.0315C37.2947 27.0315 36.9068 27.0475 36.5229 27.0779C44.0099 27.6706 49.9009 33.9335 49.9009 41.5728C49.9009 49.2122 44.0099 55.4751 36.5229 56.0678C36.9068 56.0982 37.2947 56.1141 37.6863 56.1141C45.7172 56.1141 52.2276 49.6037 52.2276 41.5728C52.2276 33.542 45.7172 27.0315 37.6863 27.0315Z" fill="#58469C"/>
<path d="M37.6864 52.7164C43.841 52.7164 48.8302 47.7272 48.8302 41.5727C48.8302 35.4182 43.841 30.429 37.6864 30.429C31.5319 30.429 26.5427 35.4182 26.5427 41.5727C26.5427 47.7272 31.5319 52.7164 37.6864 52.7164Z" fill="white"/>
<path d="M37.6865 30.4287C37.2991 30.4287 36.9164 30.4485 36.5391 30.4872C42.1545 31.0616 46.5353 35.8054 46.5353 41.5724C46.5353 47.3396 42.1545 52.0834 36.5391 52.6577C36.9164 52.6963 37.2991 52.7162 37.6865 52.7162C43.8411 52.7162 48.8304 47.7269 48.8304 41.5723C48.8304 35.4178 43.8411 30.4287 37.6865 30.4287Z" fill="white"/>
<path d="M50.5395 37.824L48.3752 41.5725L50.5395 45.321C50.6389 45.4933 50.8227 45.5994 51.0215 45.5994H54.7933C55.1007 45.5994 55.35 45.3501 55.35 45.0427V38.1023C55.35 37.7949 55.1007 37.5457 54.7933 37.5457H51.0215C50.8227 37.5457 50.6389 37.6517 50.5395 37.824Z" fill="white"/>
<path d="M54.7933 37.5457H52.5081C52.8154 37.5457 53.0647 37.7949 53.0647 38.1023V45.0427C53.0647 45.3501 52.8154 45.5994 52.5081 45.5994H54.7933C55.1007 45.5994 55.3499 45.3501 55.3499 45.0427V38.1023C55.3499 37.7949 55.1007 37.5457 54.7933 37.5457Z" fill="white"/>
<path d="M37.6865 49.3188C41.9647 49.3188 45.4328 45.8507 45.4328 41.5725C45.4328 37.2943 41.9647 33.8262 37.6865 33.8262C33.4083 33.8262 29.9402 37.2943 29.9402 41.5725C29.9402 45.8507 33.4083 49.3188 37.6865 49.3188Z" fill="#58469C"/>
<path d="M37.6864 33.8262C37.2904 33.8262 36.9013 33.8563 36.521 33.914C40.2414 34.4778 43.1019 37.6973 43.1019 41.5725C43.1019 45.4477 40.2414 48.6672 36.521 49.231C36.9012 49.2885 37.2903 49.3188 37.6864 49.3188C41.9577 49.3188 45.4327 45.8438 45.4327 41.5725C45.4327 37.3012 41.9576 33.8262 37.6864 33.8262Z" fill="#58469C"/>
<path d="M37.6865 45.9213C40.0882 45.9213 42.0353 43.9742 42.0353 41.5724C42.0353 39.1707 40.0882 37.2236 37.6865 37.2236C35.2847 37.2236 33.3376 39.1707 33.3376 41.5724C33.3376 43.9742 35.2847 45.9213 37.6865 45.9213Z" fill="white"/>
<path d="M37.6865 37.2236C37.29 37.2236 36.9062 37.278 36.541 37.3778C38.3847 37.8819 39.7443 39.571 39.7443 41.5724C39.7443 43.5739 38.3847 45.263 36.541 45.7671C36.9063 45.8669 37.29 45.9213 37.6865 45.9213C40.0844 45.9213 42.0353 43.9705 42.0353 41.5724C42.0353 39.1745 40.0844 37.2236 37.6865 37.2236Z" fill="white"/>
<path d="M23.73 8.68774H30.7605C31.2217 8.68774 31.5954 8.31402 31.5954 7.85278C31.5954 7.39155 31.2217 7.01782 30.7605 7.01782H23.73C23.2689 7.01782 22.895 7.39155 22.895 7.85278C22.895 8.31402 23.2689 8.68774 23.73 8.68774Z" fill="black"/>
<path d="M5.43628 8.68774H11.6509C12.1121 8.68774 12.4859 8.31402 12.4859 7.85278C12.4859 7.39155 12.1121 7.01782 11.6509 7.01782H5.43628C4.97516 7.01782 4.60132 7.39155 4.60132 7.85278C4.60132 8.31402 4.97505 8.68774 5.43628 8.68774Z" fill="black"/>
<path d="M5.43628 12.1609H11.6509C12.1121 12.1609 12.4859 11.7872 12.4859 11.3259C12.4859 10.8647 12.1121 10.491 11.6509 10.491H5.43628C4.97516 10.491 4.60132 10.8647 4.60132 11.3259C4.60132 11.7872 4.97505 12.1609 5.43628 12.1609Z" fill="black"/>
<path d="M35.809 8.68774C36.2702 8.68774 36.644 8.31402 36.644 7.85278C36.644 7.39155 36.2702 7.01782 35.809 7.01782H33.8271C33.3659 7.01782 32.9922 7.39155 32.9922 7.85278C32.9922 8.31402 33.3659 8.68774 33.8271 8.68774H35.809Z" fill="black"/>
<path d="M23.73 12.5391H35.8091C36.2703 12.5391 36.644 12.1653 36.644 11.7041C36.644 11.2429 36.2703 10.8691 35.8091 10.8691H23.73C23.2689 10.8691 22.895 11.2429 22.895 11.7041C22.895 12.1653 23.2689 12.5391 23.73 12.5391Z" fill="black"/>
<path d="M35.8093 14.7207H31.783C31.3217 14.7207 30.948 15.0944 30.948 15.5557C30.948 16.0169 31.3217 16.3906 31.783 16.3906H35.8093C36.2705 16.3906 36.6442 16.0169 36.6442 15.5557C36.6442 15.0944 36.2705 14.7207 35.8093 14.7207Z" fill="black"/>
<path d="M19.6308 38.1267H11.6299C11.1688 38.1267 10.7949 38.5004 10.7949 38.9617C10.7949 39.4229 11.1688 39.7966 11.6299 39.7966H19.6308C20.0919 39.7966 20.4658 39.4229 20.4658 38.9617C20.4658 38.5004 20.0919 38.1267 19.6308 38.1267Z" fill="black"/>
<path d="M19.6307 33.9504H5.43628C4.97516 33.9504 4.60132 34.3242 4.60132 34.7854C4.60132 35.2466 4.97516 35.6204 5.43628 35.6204H19.6307C20.0918 35.6204 20.4657 35.2466 20.4657 34.7854C20.4657 34.3242 20.0918 33.9504 19.6307 33.9504Z" fill="black"/>
<path d="M5.43628 39.7966H8.86051C9.32163 39.7966 9.69547 39.4229 9.69547 38.9617C9.69547 38.5004 9.32163 38.1267 8.86051 38.1267H5.43628C4.97516 38.1267 4.60132 38.5004 4.60132 38.9617C4.60132 39.4229 4.97505 39.7966 5.43628 39.7966Z" fill="black"/>
<path d="M19.6307 42.3032H5.43628C4.97516 42.3032 4.60132 42.677 4.60132 43.1382C4.60132 43.5994 4.97516 43.9731 5.43628 43.9731H19.6307C20.0918 43.9731 20.4657 43.5994 20.4657 43.1382C20.4657 42.677 20.0918 42.3032 19.6307 42.3032Z" fill="black"/>
<path d="M5.43628 46.4795C4.97516 46.4795 4.60132 46.8532 4.60132 47.3145C4.60132 47.7757 4.97516 48.1494 5.43628 48.1494H15.3128C15.7739 48.1494 16.1477 47.7757 16.1477 47.3145C16.1477 46.8532 15.7739 46.4795 15.3128 46.4795H5.43628Z" fill="black"/>
<path d="M56.1847 40.7387V38.1024C56.1847 37.3351 55.5605 36.7108 54.7931 36.7108H52.2767C51.308 33.8114 49.4569 31.2148 47.0141 29.3482C45.9021 28.4984 44.7005 27.8142 43.4338 27.3028V1.99951C43.4338 0.925307 42.5597 0.0512695 41.4855 0.0512695H1.94824C0.874037 0.0512695 0 0.925307 0 1.99951V52.7147C0 53.7889 0.874037 54.6629 1.94824 54.6629H19.1484C19.6096 54.6629 19.9834 54.2892 19.9834 53.828C19.9834 53.3668 19.6096 52.993 19.1484 52.993H1.94824C1.79483 52.993 1.66992 52.8682 1.66992 52.7147V1.99951C1.66992 1.84599 1.79483 1.72119 1.94824 1.72119H41.4855C41.6391 1.72119 41.7639 1.84599 41.7639 1.99951V26.7395C40.4509 26.3804 39.0837 26.1965 37.6864 26.1965C37.336 26.1965 36.9888 26.2094 36.6442 26.2325V21.4347C36.6442 20.7249 36.0667 20.1476 35.357 20.1476H32.2353C31.5255 20.1476 30.9481 20.725 30.9481 21.4347V27.7539C30.7701 27.8411 30.5939 27.9315 30.4197 28.0252H28.5916V16.0078C28.5916 15.298 28.0142 14.7206 27.3044 14.7206H24.1826C23.4729 14.7206 22.8954 15.2981 22.8954 16.0078V28.0251H20.5389V8.30514C20.5389 7.59531 19.9615 7.01796 19.2517 7.01796H16.1299C15.4202 7.01796 14.8427 7.59542 14.8427 8.30514V28.0252H12.4862V16.3579C12.4862 15.6481 11.9088 15.0708 11.1991 15.0708H8.07674C7.36703 15.0708 6.78957 15.6482 6.78957 16.3579V18.5919C6.78957 19.0531 7.16341 19.4268 7.62453 19.4268C8.08565 19.4268 8.45949 19.0531 8.45949 18.5919V16.7406H10.816V28.0251H8.45949V22.4883C8.45949 22.0271 8.08565 21.6534 7.62453 21.6534C7.16341 21.6534 6.78957 22.0271 6.78957 22.4883V28.0251H5.43626C4.97514 28.0251 4.6013 28.3989 4.6013 28.8601C4.6013 29.3213 4.97514 29.6951 5.43626 29.6951H27.9322C24.5016 32.5174 22.31 36.7938 22.31 41.5725C22.31 46.1001 24.2775 50.1765 27.402 52.9929H23.0449C22.5838 52.9929 22.21 53.3666 22.21 53.8279C22.21 54.2891 22.5838 54.6628 23.0449 54.6628H29.6285C31.9732 56.1114 34.7337 56.9487 37.6864 56.9487C41.0905 56.9487 44.3161 55.8589 47.0141 53.7969C49.4567 51.9303 51.308 49.3337 52.2767 46.4342H54.7931C55.5605 46.4342 56.1847 45.81 56.1847 45.0426V42.4064C56.6367 42.3958 57 42.027 57 41.5724C57 41.1179 56.6367 40.7493 56.1847 40.7387ZM18.8687 28.0251H16.5122V8.68777H18.8687V28.0251ZM26.9215 28.0251H24.565V16.3906H26.9215V28.0251ZM32.6178 21.8174H34.9742V26.436C34.165 26.5807 33.3781 26.7896 32.6178 27.0559V21.8174ZM46 52.4703C43.5956 54.3078 40.7208 55.279 37.6862 55.279C30.1285 55.279 23.98 49.1305 23.98 41.5728C23.98 34.015 30.1285 27.8665 37.6862 27.8665C40.7208 27.8665 43.5956 28.8377 46 30.6752C48.0546 32.2454 49.6355 34.3951 50.5331 36.8025C50.236 36.9145 49.9794 37.1243 49.8162 37.4068C49.8161 37.4068 49.8161 37.4069 49.8161 37.4069L49.2391 38.4063C47.8414 33.3116 43.1572 29.5942 37.6862 29.5942C31.0811 29.5942 25.7076 34.9679 25.7076 41.573C25.7076 48.1781 31.0811 53.5518 37.6862 53.5518C43.1572 53.5518 47.8415 49.8344 49.2392 44.7396L49.8162 45.7391C49.9793 46.0215 50.2359 46.2314 50.5331 46.3434C49.6356 48.7503 48.0546 50.9002 46 52.4703ZM29.9493 40.6697C30.3991 40.7719 30.8463 40.4902 30.9485 40.0406C31.6569 36.9236 34.4907 34.6613 37.6864 34.6613C41.2146 34.6613 44.1317 37.3194 44.5455 40.7377H42.8019C42.4013 38.2751 40.2604 36.389 37.6864 36.389C34.828 36.389 32.5027 38.7144 32.5027 41.5727C32.5027 44.4309 34.8281 46.7563 37.6864 46.7563C40.2604 46.7563 42.4013 44.8702 42.8019 42.4076H44.5455C44.1317 45.8259 41.2146 48.484 37.6864 48.484C34.6412 48.484 31.9145 46.4414 31.0554 43.5167C30.9254 43.0742 30.462 42.8209 30.0189 42.9509C29.5764 43.0809 29.3232 43.5449 29.4531 43.9875C30.5196 47.6182 33.9052 50.154 37.6862 50.154C42.1362 50.154 45.8051 46.7491 46.2263 42.4077H47.893L47.9496 42.5057C47.4755 47.7825 43.0159 51.8816 37.6862 51.8816C32.0019 51.8816 27.3775 47.2571 27.3775 41.5728C27.3775 35.8885 32.0021 31.2639 37.6862 31.2639C43.0157 31.2639 47.4754 35.363 47.9496 40.6398L47.893 40.7378H46.2263C45.8051 36.3965 42.1364 32.9915 37.6862 32.9915C35.7318 32.9915 33.8184 33.669 32.2984 34.8993C30.8018 36.1106 29.7441 37.8051 29.32 39.6706C29.2178 40.1202 29.4996 40.5676 29.9493 40.6697ZM37.6864 43.3589C38.3698 43.3589 38.9641 42.9728 39.2643 42.4076H41.0991C40.7233 43.9433 39.3361 45.0864 37.6864 45.0864C35.7489 45.0864 34.1726 43.5101 34.1726 41.5727C34.1726 39.6352 35.7489 38.0589 37.6864 38.0589C39.3361 38.0589 40.7233 39.2021 41.0991 40.7377H39.2643C38.9641 40.1725 38.3698 39.7864 37.6864 39.7864C36.7013 39.7864 35.9001 40.5876 35.9001 41.5727C35.9001 42.5577 36.7013 43.3589 37.6864 43.3589ZM54.5148 44.7645H51.182L49.8212 42.4076H54.5147V44.7645H54.5148ZM54.5148 40.7377H49.8213L51.1821 38.3808H54.5149V40.7377H54.5148Z" fill="black"/>
</g>
<defs>
<clipPath id="clip0_362_124">
<rect width="57" height="57" fill="white"/>
</clipPath>
</defs>
</svg>
