<svg width="81" height="81" viewBox="0 0 81 81" fill="none" xmlns="http://www.w3.org/2000/svg">
<g clip-path="url(#clip0_350_840)">
<path d="M40.4846 7.87398V25.0849L28.901 31.7721L22.0714 27.8297L17.3174 25.0849V7.87398L27.3332 2.09166C28.3046 1.53162 29.499 1.53162 30.4688 2.09166L40.4846 7.87398Z" fill="white"/>
<path d="M40.484 7.87398V25.0849L28.9004 31.7721L26.5273 30.4021L35.7379 25.0849V7.87398L26.5273 2.55678L27.3326 2.09166C28.304 1.53162 29.4984 1.53162 30.4682 2.09166L40.484 7.87398Z" fill="white"/>
<path d="M40.4846 22.4366V25.0849L28.9009 31.7721L22.0713 27.8297C22.2485 27.6351 22.432 27.4437 22.6187 27.257C25.9773 23.9 30.6158 21.8228 35.7385 21.8228C37.379 21.8226 38.9705 22.0362 40.4846 22.4366Z" fill="white"/>
<path d="M63.6515 25.0847V7.8747L53.6355 2.0919C52.6655 1.53187 51.4705 1.53187 50.5004 2.0919L40.4844 7.8747V25.0848L52.0679 31.7725L63.6515 25.0847Z" fill="white"/>
<path d="M63.651 7.87398V25.0849L52.0674 31.7721L49.6943 30.4021L58.9049 25.0849V7.87398L49.6943 2.55678L50.4996 2.09166C51.4694 1.53162 52.6654 1.53162 53.6352 2.09166L63.651 7.87398Z" fill="white"/>
<path d="M40.4846 55.6702V72.8795L30.4688 78.6634C29.499 79.2234 28.3046 79.2234 27.3332 78.6634L17.3174 72.8795V55.6702L22.0714 52.9253L28.901 48.9829L40.4846 55.6702Z" fill="white"/>
<path d="M40.484 55.6702V72.8795L30.4682 78.6634C29.4984 79.2234 28.304 79.2234 27.3326 78.6634L26.5273 78.1983L35.7379 72.8795V55.6702L26.5273 50.3529L28.9004 48.9829L40.484 55.6702Z" fill="white"/>
<path d="M40.4846 55.6702V58.3185C38.9705 58.7187 37.379 58.9323 35.7385 58.9323C30.3295 58.9323 25.4616 56.6178 22.0713 52.9253L28.9009 48.9829L40.4846 55.6702Z" fill="white"/>
<path d="M63.6513 72.8801V55.6701L52.0678 48.9824L40.4844 55.6701V72.8803L50.5004 78.6631C51.4703 79.2231 52.6654 79.2231 53.6355 78.6631L63.6513 72.8801Z" fill="white"/>
<path d="M63.651 55.6702V72.8795L53.6352 78.6634C52.6654 79.2234 51.4694 79.2234 50.4996 78.6634L49.6943 78.1983L58.9049 72.8795V55.6702L49.6943 50.3529L52.0674 48.9829L63.651 55.6702Z" fill="white"/>
<path d="M28.9007 31.772V48.983L22.071 52.9254L17.317 55.6702L5.7334 48.983V31.772L17.317 25.085L22.071 27.8296L28.9007 31.772Z" fill="white"/>
<path d="M28.901 31.772V48.983L17.3174 55.6702L14.9443 54.3002L24.1549 48.983V31.772L14.9443 26.4548L17.3174 25.085L28.901 31.772Z" fill="white"/>
<path d="M28.9011 31.772V48.9829L22.0715 52.9254C19.0371 49.6221 17.1846 45.2161 17.1846 40.3767C17.1846 35.5388 19.0371 31.1329 22.0715 27.8296L28.9011 31.772Z" fill="white"/>
<path d="M75.2355 48.9823V31.7723L63.652 25.0845L52.0684 31.7723V48.9823L63.652 55.6702L75.2355 48.9823Z" fill="white"/>
<path d="M75.235 31.772V48.983L63.6514 55.6702L61.2783 54.3002L70.4889 48.983V31.772L61.2783 26.4548L63.6514 25.085L75.235 31.772Z" fill="white"/>
<path d="M40.4842 58.9318C30.2368 58.9318 21.9297 50.6247 21.9297 40.3773C21.9297 30.13 30.2368 21.8228 40.4842 21.8228C50.7315 21.8228 59.0388 30.1298 59.0388 40.3773C59.0388 50.6247 50.7315 58.9318 40.4842 58.9318Z" fill="white"/>
<path d="M46.2556 39.55C49.0179 36.962 48.1942 31.9821 44.7112 30.4341C40.9581 28.5603 36.4066 31.6415 36.6458 35.751C33.8053 34.9947 30.7789 36.5584 29.8296 39.4641C28.9594 42.1286 30.2157 45.0762 32.7417 46.2909C34.5542 47.1625 36.5632 46.9834 38.131 46.0326C38.6254 47.7984 39.9697 49.3025 41.8885 49.9052C44.561 50.7447 47.4914 49.4539 48.6784 46.9165C49.9727 44.1503 48.8382 40.9438 46.2556 39.55Z" fill="#58469C"/>
<path d="M59.0384 40.3768C59.0384 45.501 56.9628 50.1395 53.6042 53.4982C50.2471 56.8553 45.6086 58.9325 40.4844 58.9325C39.6807 58.9325 38.8881 58.8818 38.1113 58.7822C42.2863 58.249 46.0278 56.3284 48.8581 53.4982C52.2167 50.1395 54.2923 45.501 54.2923 40.3768C54.2923 35.2542 52.2167 30.6157 48.8581 27.257C46.0278 24.4268 42.2863 22.5062 38.1113 21.973C38.8881 21.8734 39.6807 21.8228 40.4844 21.8228C45.6086 21.8228 50.2471 23.9 53.6042 27.257C56.9628 30.6157 59.0384 35.2542 59.0384 40.3768Z" fill="white"/>
<path d="M48.679 46.9168C47.4925 49.4543 44.561 50.7437 41.889 49.9052C41.6453 49.8293 41.4112 49.7375 41.1881 49.6331C42.362 49.0936 43.3539 48.1523 43.9329 46.9168C45.0351 44.5602 44.3758 41.8856 42.5599 40.282C42.0684 39.8481 41.9725 39.1196 42.3243 38.5662C44.0511 35.8501 43.0408 31.7799 39.9385 30.4216C39.9385 30.4211 39.9385 30.4212 39.9385 30.4208C41.3892 29.7357 43.1231 29.6408 44.7115 30.4334C48.1951 31.9822 49.0178 36.9625 46.2555 39.5491C48.8388 40.9446 49.9731 44.15 48.679 46.9168Z" fill="#58469C"/>
<path d="M51.2183 37.5173L48.6903 37.94C49.088 36.8439 49.2023 35.6258 48.9952 34.3996C48.6125 32.1343 47.2013 30.2526 45.2179 29.3608C43.0936 28.3107 40.603 28.4903 38.5505 29.8438C36.9032 30.9301 35.8358 32.5645 35.5367 34.3825C32.5183 34.2302 29.6775 36.1106 28.7025 39.0956C27.6452 42.3322 29.1609 45.8852 32.2282 47.3599C33.4381 47.9418 34.7613 48.1468 36.0461 47.9864L35.0417 50.4311C34.7927 51.0372 35.0822 51.7306 35.6882 51.9796C35.8358 52.0402 35.9885 52.0688 36.1388 52.0688C36.6057 52.0688 37.0483 51.7915 37.2367 51.333L38.2679 48.8236C39.1012 49.8493 40.2268 50.6265 41.534 51.0372C42.2045 51.2478 42.887 51.3485 43.5611 51.3484C46.1493 51.3482 48.6104 49.864 49.7541 47.4194C50.8784 45.0162 50.4878 42.2734 48.9492 40.303L51.6101 39.8579C52.2564 39.7497 52.6927 39.1383 52.5847 38.4919C52.4761 37.8458 51.8661 37.4082 51.2183 37.5173ZM47.6043 46.4137C46.6644 48.4229 44.3603 49.4375 42.2447 48.7732C40.7936 48.3172 39.6832 47.1731 39.2741 45.7124C39.1051 45.0405 38.2086 44.5744 37.5163 45.0177C36.2195 45.8045 34.627 45.8804 33.2565 45.2213C31.2567 44.2598 30.2685 41.9429 30.958 39.8325C31.6941 37.579 34.0594 36.2903 36.341 36.8973C36.7087 36.9954 37.1015 36.9109 37.3964 36.6701C37.6913 36.4294 37.8529 36.0617 37.8308 35.6819C37.7422 34.1615 38.4997 32.7197 39.8567 31.8249C41.2018 30.938 42.8189 30.815 44.1815 31.4955C44.1975 31.5034 44.2135 31.511 44.2298 31.5183C45.4972 32.0816 46.4038 33.3064 46.6552 34.7946C46.9069 36.2844 46.4543 37.7383 45.4449 38.6841C45.0157 39.0459 44.9048 40.1674 45.6927 40.5942C47.7675 41.714 48.6071 44.2702 47.6043 46.4137Z" fill="black"/>
<path d="M80.4075 51.086L76.4214 48.3567V32.4581L80.2681 30.2374C80.8356 29.91 81.03 29.1843 80.7024 28.6167C80.3749 28.049 79.6494 27.8549 79.0816 28.1824L75.2357 30.4026L69.0527 26.8331C68.4849 26.5054 67.7593 26.6997 67.4319 27.2674C67.1042 27.835 67.2987 28.5607 67.8661 28.8881L74.0482 32.4572V48.298L63.6511 54.3L57.3335 50.6536C57.6885 50.0738 58.0141 49.4744 58.3088 48.8572L63.0579 51.5989C63.2414 51.7049 63.4463 51.7579 63.6511 51.7579C63.856 51.7579 64.0609 51.7049 64.2444 51.5989L71.4127 47.4603C71.7797 47.2483 72.006 46.8568 72.006 46.4328V34.3224C72.006 33.8984 71.7797 33.5069 71.4127 33.2949L64.2444 29.1563C63.8774 28.9443 63.4249 28.9443 63.0579 29.1563L58.309 31.8978C58.0142 31.2806 57.6886 30.6812 57.3336 30.1014L64.2442 26.1126C64.5744 25.9154 64.8391 25.5477 64.8381 25.0845V8.56022L75.8286 2.2144C76.3961 1.88676 76.5905 1.16109 76.2629 0.593616C75.9352 0.0261439 75.2093 -0.168129 74.6421 0.15935L63.6524 6.5047L54.2289 1.06411C52.8956 0.294455 51.2394 0.294455 49.9067 1.06411L40.4841 6.5039L31.0616 1.06411C29.7298 0.295246 28.0738 0.29493 26.7393 1.06411L17.3158 6.50438L6.32662 0.159192C5.75931 -0.168445 5.03348 0.0258275 4.70584 0.593458C4.3782 1.16093 4.57263 1.88661 5.1401 2.21424L16.1304 8.56006V24.3993L11.8621 26.8638L5.73289 30.4023L1.88714 28.1822C1.31936 27.8546 0.593838 28.0489 0.266359 28.6165C-0.0612781 29.1841 0.133153 29.9098 0.700625 30.2373L4.54684 32.4575V48.3556L0.593838 51.0541C0.0526277 51.4235 -0.0865905 52.1616 0.282812 52.703C0.512522 53.0395 0.884931 53.2206 1.26383 53.2206C1.49417 53.2206 1.72704 53.1536 1.93176 53.0139L5.78604 50.3831L16.1304 56.3549V72.195L5.14058 78.54C4.57311 78.8676 4.37867 79.5933 4.70631 80.1608C4.92606 80.5414 5.32488 80.7542 5.73494 80.7542C5.93618 80.7542 6.14026 80.7029 6.3271 80.595L17.3176 74.2497L26.7403 79.6911C27.4071 80.0753 28.1541 80.2676 28.9012 80.2676C29.6485 80.2676 30.3957 80.0752 31.0617 79.6908L40.4843 74.2495L49.9068 79.6908C50.5733 80.0757 51.3207 80.2679 52.0679 80.2679C52.8151 80.2679 53.5624 80.0755 54.2291 79.6908L63.6402 74.2559L74.6256 80.8314C74.8164 80.9456 75.0264 80.9999 75.2339 80.9999C75.6374 80.9999 76.0308 80.7939 76.2531 80.4226C76.5896 79.8604 76.4067 79.1318 75.8443 78.7952L64.838 72.2071V56.3551L75.1816 50.3837L79.0669 53.0441C79.2719 53.1844 79.5052 53.2516 79.7361 53.2516C80.1145 53.2516 80.4863 53.071 80.7161 52.7353C81.0863 52.1947 80.9482 51.4562 80.4075 51.086ZM40.4843 57.7452C30.9076 57.7452 23.1165 49.9539 23.1165 40.3773C23.1165 30.8006 30.9076 23.0093 40.4843 23.0093C50.0611 23.0093 57.8522 30.8006 57.8522 40.3773C57.8522 49.9539 50.0612 57.7452 40.4843 57.7452ZM6.91988 32.4577L13.4804 28.6697L17.3169 26.4548L23.6343 30.1025C23.2796 30.6822 22.954 31.2814 22.6594 31.8983L17.9102 29.1561C17.5432 28.9441 17.0906 28.9441 16.7235 29.1561L9.55696 33.2947C8.98949 33.6223 8.79521 34.3482 9.12285 34.9157C9.34275 35.2961 9.74142 35.5089 10.1515 35.5089C10.3527 35.5089 10.5568 35.4577 10.7438 35.3498L17.3169 31.5537L21.7607 34.1194C21.1015 36.0867 20.7436 38.1908 20.7436 40.3771C20.7436 42.5636 21.1016 44.6677 21.7609 46.6351L17.3171 49.201L11.3371 45.7475V39.8747C11.3371 39.2192 10.806 38.6881 10.1505 38.6881C9.4951 38.6881 8.96402 39.2192 8.96402 39.8747V46.4325C8.96402 46.8565 9.19009 47.248 9.55712 47.46L16.7237 51.5986C16.9645 51.694 17.2855 51.8911 17.9104 51.5986L22.6598 48.8563C22.9543 49.4731 23.2799 50.0726 23.6346 50.6522L17.3171 54.2999L6.92004 48.2978L6.91988 32.4577ZM34.8822 21.4472C32.4327 22.1734 30.1806 23.3624 28.2275 24.9136L22.9203 21.8495V11.1092L28.9004 7.65578L34.8822 11.1092V21.4472ZM28.2272 55.8406C30.1802 57.392 32.4326 58.5812 34.8822 59.3073V69.6457L28.9004 73.0993L22.9203 69.6457V58.9041L28.2272 55.8406ZM52.741 24.9135C50.788 23.3623 48.5357 22.1732 46.0861 21.4471V11.1092L52.0679 7.65578L58.0495 11.1092V21.8495L52.741 24.9135ZM63.6513 31.5538L69.6331 35.0074V45.7478L63.6513 49.2013L59.2079 46.6362C59.8673 44.6687 60.2254 42.5641 60.2254 40.3774C60.2254 38.1909 59.8674 36.0865 59.208 34.1189L63.6513 31.5538ZM51.0933 3.11916C51.6944 2.77191 52.4411 2.77222 53.0422 3.11916L62.4648 8.55896V24.3996L55.9704 28.1484C55.5388 27.6031 55.0786 27.0813 54.5928 26.5847L59.8288 23.5624C60.196 23.3504 60.4222 22.9587 60.4222 22.5347V10.4242C60.4222 10.0002 60.196 9.60863 59.829 9.39664L52.6608 5.25822C52.2938 5.04623 51.8413 5.04623 51.4743 5.25822L44.306 9.39664C43.9389 9.60863 43.7127 10.0002 43.7127 10.4242V20.9018C43.0426 20.791 42.3614 20.7141 41.6705 20.673V8.55896L51.0933 3.11916ZM27.9254 3.11964C28.5273 2.7727 29.2744 2.77254 29.8751 3.11916L39.2978 8.55896V20.673C38.6069 20.7141 37.9255 20.7912 37.2554 20.9019V10.4242C37.2554 10.0002 37.0291 9.60863 36.6621 9.39664L29.4938 5.25822C29.1268 5.04623 28.6745 5.04623 28.3071 5.25822L21.1405 9.39664C20.7737 9.60863 20.5474 10.0002 20.5474 10.4242V22.5347C20.5474 22.9587 20.7737 23.3503 21.1407 23.5622L26.3759 26.5847C25.8899 27.0818 25.4294 27.6037 24.9975 28.1495L18.5036 24.3998V8.55896L27.9254 3.11964ZM29.8751 77.6359C29.2745 77.9825 28.5275 77.9826 27.9262 77.6359L18.5035 72.1945V56.3551L24.9977 52.6054C25.4294 53.151 25.8898 53.6726 26.3755 54.1695L21.1407 57.1912C20.7735 57.403 20.5473 57.7947 20.5473 58.2187V70.3307C20.5473 70.7547 20.7735 71.1462 21.1404 71.3582L28.307 75.4968C28.4906 75.6028 28.6955 75.6558 28.9004 75.6558C29.1052 75.6558 29.3101 75.6028 29.4936 75.4968L36.6619 71.3582C37.029 71.1462 37.2552 70.7547 37.2552 70.3307V59.8528C37.9254 59.9635 38.6067 60.0404 39.2976 60.0817V72.1945L29.8751 77.6359ZM53.0422 77.6359C52.4409 77.9828 51.6942 77.9828 51.0933 77.6359L41.6706 72.1943V60.0816C45.8383 59.8333 49.6619 58.2866 52.7413 55.8406L58.0494 58.9039V69.6455L52.0677 73.0991L46.0859 69.6455V64.0396C46.0859 63.3842 45.5548 62.8531 44.8994 62.8531C44.244 62.8531 43.7129 63.3842 43.7129 64.0396V70.3306C43.7129 70.7545 43.9391 71.1461 44.3061 71.3581L51.4745 75.4967C51.658 75.6026 51.8628 75.6556 52.0677 75.6556C52.2726 75.6556 52.4775 75.6026 52.661 75.4967L59.8291 71.3581C60.1962 71.1461 60.4224 70.7545 60.4224 70.3306V58.2186C60.4224 57.7946 60.1962 57.4029 59.829 57.1909L54.5933 54.1694C55.0786 53.6729 55.5387 53.1517 55.9701 52.6065L62.4648 56.3551V72.1942L53.0422 77.6359Z" fill="black"/>
<path d="M42.4678 36.4043C43.1231 36.4043 43.6543 35.8731 43.6543 35.2178C43.6543 34.5625 43.1231 34.0312 42.4678 34.0312C41.8125 34.0312 41.2812 34.5625 41.2812 35.2178C41.2812 35.8731 41.8125 36.4043 42.4678 36.4043Z" fill="black"/>
<path d="M35.1191 42.4458C35.7744 42.4458 36.3057 41.9146 36.3057 41.2593C36.3057 40.604 35.7744 40.0728 35.1191 40.0728C34.4638 40.0728 33.9326 40.604 33.9326 41.2593C33.9326 41.9146 34.4638 42.4458 35.1191 42.4458Z" fill="black"/>
<path d="M43.7207 46.0046C44.376 46.0046 44.9072 45.4734 44.9072 44.8181C44.9072 44.1628 44.376 43.6316 43.7207 43.6316C43.0654 43.6316 42.5342 44.1628 42.5342 44.8181C42.5342 45.4734 43.0654 46.0046 43.7207 46.0046Z" fill="black"/>
<path d="M32.1865 31.5986C32.8418 31.5986 33.373 31.0674 33.373 30.4121C33.373 29.7568 32.8418 29.2256 32.1865 29.2256C31.5312 29.2256 31 29.7568 31 30.4121C31 31.0674 31.5312 31.5986 32.1865 31.5986Z" fill="black"/>
</g>
<defs>
<clipPath id="clip0_350_840">
<rect width="81" height="81" fill="white"/>
</clipPath>
</defs>
</svg>
