<svg width="71" height="71" viewBox="0 0 71 71" fill="none" xmlns="http://www.w3.org/2000/svg">
<g clip-path="url(#clip0_350_907)">
<path d="M69.5476 41.0731L61.2522 31.333C60.9727 31.0042 60.4369 31.2485 60.5014 31.6753L61.2527 36.6458C55.3765 33.9054 49.8144 30.8427 44.6917 27.5206C38.5311 23.5256 32.9187 19.1185 28.0115 14.422C22.6429 9.28413 19.0287 4.62345 17.2184 1.91176C16.616 1.00985 15.3935 0.76826 14.4959 1.37657C13.6091 1.97785 13.373 3.18039 13.9677 4.07201C15.6405 6.58057 19.1993 11.3897 25.2256 17.1695C30.311 22.0468 36.1217 26.6192 42.4962 30.7588C47.9001 34.2673 53.7742 37.4947 59.983 40.3689L56.4382 43.8525C56.13 44.1553 56.4116 44.672 56.8331 44.5772L69.3146 41.7697C69.6299 41.6987 69.7567 41.3184 69.5476 41.0731Z" fill="#58469C"/>
<path d="M8.71387 66.7321V19.862C8.71387 19.426 9.06759 19.0723 9.50365 19.0723H15.7997C16.2357 19.0723 16.5895 19.4254 16.5895 19.862V66.7321H8.71387Z" fill="white"/>
<path d="M23.5508 66.7322V31.457C23.5508 31.021 23.9045 30.6672 24.3406 30.6672H30.6366C31.0727 30.6672 31.4264 31.021 31.4264 31.457V66.7322H23.5508Z" fill="white"/>
<path d="M53.2236 66.7322V54.7376C53.2236 54.301 53.5768 53.9473 54.0134 53.9473H60.3094C60.7455 53.9473 61.0992 54.301 61.0992 54.7376V66.7322H53.2236Z" fill="white"/>
<path d="M38.3877 66.7323V43.1125C38.3877 42.6765 38.7409 42.3228 39.1775 42.3228H45.4735C45.9096 42.3228 46.2633 42.6759 46.2633 43.1125V66.7323H38.3877Z" fill="white"/>
<path d="M67.3019 69.9601H2.51126C2.00478 69.9601 1.59473 69.5501 1.59473 69.0436V65.7214C1.59473 65.2155 2.00478 64.8054 2.51126 64.8054H67.3019C67.8084 64.8054 68.2185 65.2155 68.2185 65.7214V69.0436C68.2185 69.5495 67.8079 69.9601 67.3019 69.9601Z" fill="white"/>
<path d="M67.3018 64.8054H61.0068V69.9601H67.3018C67.8077 69.9601 68.2183 69.5495 68.2183 69.0436V65.7214C68.2183 65.2155 67.8077 64.8054 67.3018 64.8054Z" fill="white"/>
<path d="M70.3394 40.3986L62.044 30.6585C61.6144 30.1537 60.92 29.9993 60.3165 30.2745C59.7131 30.5497 59.374 31.1748 59.4731 31.8307L59.9325 34.868C54.7436 32.3638 49.8148 29.6033 45.2576 26.6479C39.1512 22.6881 33.5913 18.3221 28.7307 13.6707C22.7034 7.90225 19.2767 3.12186 18.0833 1.33375C17.6364 0.664762 16.955 0.211369 16.1652 0.0564468C15.3765 -0.0973924 14.5764 0.0656555 13.9123 0.515798C12.5581 1.43396 12.1946 3.28815 13.102 4.64887C14.7151 7.06751 18.3417 12.0082 24.5056 17.9197C29.6381 22.8425 35.5002 27.4555 41.93 31.6309C46.971 34.9043 52.4344 37.9431 58.1871 40.6754L55.7095 43.1108C55.236 43.5756 55.1315 44.2793 55.4489 44.8616C55.7122 45.3442 56.2024 45.6286 56.7316 45.6286C56.8405 45.6286 56.951 45.6167 57.0615 45.5918L69.5431 42.7842C70.0496 42.6704 70.4499 42.3086 70.6145 41.8162C70.7787 41.3233 70.6757 40.7935 70.3394 40.3986ZM58.6958 43.0924L60.7119 41.1104C60.9557 40.871 61.0662 40.5275 61.0077 40.1911C60.9497 39.8548 60.7298 39.5682 60.42 39.4252C54.2567 36.5721 48.4167 33.3626 43.0627 29.8861C36.7423 25.7817 30.9836 21.251 25.9454 16.4187C19.9245 10.6443 16.3987 5.84275 14.8326 3.49454C14.5569 3.08069 14.6674 2.51679 15.0797 2.23728C15.2319 2.13436 15.4079 2.08073 15.5883 2.08073C15.6468 2.08073 15.7064 2.08669 15.766 2.09807C16.0081 2.14519 16.2167 2.28441 16.3532 2.48916C17.585 4.33361 21.1157 9.26242 27.2925 15.1739C32.2468 19.9147 37.9102 24.3625 44.1255 28.3932C49.2764 31.7332 54.891 34.8268 60.8132 37.5883C61.1605 37.7503 61.5689 37.708 61.8755 37.4789C62.1826 37.2492 62.3381 36.8695 62.2812 36.4903L61.85 33.6389L68.1 40.9771L58.6958 43.0924ZM68.7555 41.7474C68.7555 41.7469 68.7555 41.7469 68.7549 41.7469L68.7555 41.7474Z" fill="black"/>
<path d="M67.3019 63.7653H62.1397V62.0097C62.1397 61.4349 61.6738 60.9696 61.0996 60.9696C60.5249 60.9696 60.0596 61.4349 60.0596 62.0097V63.7653H54.2635V54.9878H60.0596V57.1421C60.0596 57.7168 60.5249 58.1821 61.0996 58.1821C61.6738 58.1821 62.1397 57.7168 62.1397 57.1421V54.7375C62.1397 53.7283 61.3185 52.9077 60.3098 52.9077H54.0138C53.0047 52.9077 52.184 53.7283 52.184 54.7375V63.7653H47.3028V43.1124C47.3028 42.1032 46.4822 41.2825 45.473 41.2825H39.177C38.1678 41.2825 37.3472 42.1032 37.3472 43.1124V63.7653H32.4666V31.4569C32.4666 30.4482 31.6454 29.627 30.6362 29.627H24.3407C23.3316 29.627 22.5109 30.4482 22.5109 31.4569V63.7653H17.6298V30.9623C17.6298 30.3876 17.1639 29.9223 16.5897 29.9223C16.015 29.9223 15.5497 30.3876 15.5497 30.9623V63.7653H9.75362V20.1123H15.5491V26.1229C15.5491 26.6971 16.0144 27.1629 16.5892 27.1629C17.1639 27.1629 17.6292 26.6971 17.6292 26.1229V19.862C17.6292 18.8529 16.808 18.0322 15.7994 18.0322H9.50336C8.4942 18.0322 7.67354 18.8529 7.67354 19.862V63.7653H2.51126C1.43222 63.7653 0.554688 64.6428 0.554688 65.7213V69.0435C0.554688 70.1225 1.43222 71 2.51126 71H67.3019C68.381 71 69.2585 70.1225 69.2585 69.0435V65.7213C69.2585 64.6428 68.381 63.7653 67.3019 63.7653ZM39.4273 43.3626H45.2228V63.7647H39.4273V43.3626ZM24.5904 31.7071H30.386V63.7653H24.5904V31.7071ZM67.1784 68.92H2.63477V65.8453H67.1784V68.92Z" fill="black"/>
</g>
<defs>
<clipPath id="clip0_350_907">
<rect width="71" height="71" fill="white"/>
</clipPath>
</defs>
</svg>
