<svg width="81" height="81" viewBox="0 0 81 81" fill="none" xmlns="http://www.w3.org/2000/svg">
<g clip-path="url(#clip0_348_225)">
<path d="M48.0048 31.4259C48.0048 43.1838 36.3535 52.7155 24.5957 52.7155C12.8379 52.7155 1.18652 43.1838 1.18652 31.4259C1.18652 19.6681 12.8379 1.18652 24.5957 1.18652C36.3535 1.18652 48.0048 19.668 48.0048 31.4259Z" fill="white"/>
<path d="M24.5954 1.18652C23.5544 1.18652 22.5146 1.33397 21.4834 1.60624C32.1007 4.4088 41.7805 20.7089 41.7805 31.4259C41.7805 42.1429 32.1007 51.0088 21.4834 52.4948C22.5146 52.6391 23.5546 52.7153 24.5954 52.7153C36.3532 52.7153 48.0046 43.1838 48.0046 31.4258C48.0046 19.6678 36.3534 1.18652 24.5954 1.18652Z" fill="white"/>
<path d="M24.5958 46.3872C20.3796 46.3872 16.0291 44.6887 12.66 41.727C9.34205 38.8101 7.51465 35.1518 7.51465 31.4259C7.51465 27.0292 9.96759 20.6665 13.6184 15.5934C17.2043 10.6102 21.4106 7.51465 24.5958 7.51465C27.7811 7.51465 31.9872 10.6102 35.5732 15.5931C39.2239 20.6664 41.6769 27.029 41.6769 31.4258C41.6769 35.1518 39.8495 38.8102 36.5316 41.7269C33.1625 44.6887 28.8121 46.3872 24.5958 46.3872Z" fill="#616C33"/>
<path d="M37.0483 48.3317L32.6484 47.4749C31.3679 47.2255 30.532 45.9852 30.7813 44.7047L31.3165 41.9568C31.5658 40.6763 32.8061 39.8403 34.0866 40.0896L38.4866 40.9465L37.0483 48.3317Z" fill="white"/>
<path d="M67.155 48.3317L71.555 47.4749C72.8355 47.2255 73.6714 45.9852 73.4221 44.7047L72.8869 41.9568C72.6375 40.6763 71.3972 39.8403 70.1167 40.0896L65.7168 40.9465L67.155 48.3317Z" fill="white"/>
<path d="M70.3361 54.8681C70.3361 66.6259 62.7104 71.4115 52.1012 71.4115C41.4919 71.4115 33.8662 66.6261 33.8662 54.8681C33.8662 43.1101 41.4919 27.7927 52.1012 27.7927C62.7104 27.7927 70.3361 43.1103 70.3361 54.8681Z" fill="white"/>
<path d="M52.1014 27.7927C51.5621 27.7927 51.031 27.8343 50.5078 27.9109C60.2784 29.3426 67.149 43.7078 67.149 54.8681C67.149 66.0282 60.2784 70.9062 50.5078 71.3734C51.031 71.3984 51.5622 71.4114 52.1014 71.4114C62.7107 71.4114 70.3364 66.6259 70.3364 54.8679C70.3362 43.1103 62.7107 27.7927 52.1014 27.7927Z" fill="white"/>
<path d="M52.101 66.6653C47.7126 66.6653 44.2282 65.7048 42.0249 63.8874C39.7284 61.9934 38.6123 59.0432 38.6123 54.8679C38.6123 49.8165 40.3154 43.8869 43.0569 39.3928C44.3139 37.3321 47.712 32.5388 52.1012 32.5388C56.4904 32.5388 59.8883 37.3321 61.1453 39.3928C63.8868 43.8869 65.5899 49.8167 65.5899 54.8679C65.5899 59.0432 64.4736 61.9934 62.1773 63.8874C59.9737 65.7048 56.4896 66.6653 52.101 66.6653Z" fill="white"/>
<path d="M61.1459 39.3931C59.8888 37.3323 56.4909 32.5391 52.1017 32.5391C51.4879 32.5391 50.8943 32.6356 50.3223 32.8025C53.8398 33.829 56.5056 37.6205 57.5869 39.3931C60.3285 43.8871 62.0315 49.8169 62.0315 54.8682C62.0315 59.0435 60.9152 61.9936 58.6189 63.8876C56.7227 65.4516 53.8758 66.379 50.3223 66.6078C50.8978 66.6448 51.49 66.6655 52.1017 66.6655C56.4901 66.6655 59.9744 65.7051 62.1777 63.8876C64.4742 61.9936 65.5903 59.0435 65.5903 54.8682C65.5904 49.8167 63.8874 43.8871 61.1459 39.3931Z" fill="white"/>
<path d="M52.1015 54.775C54.9583 54.775 57.2742 52.4591 57.2742 49.6022C57.2742 46.7454 54.9583 44.4294 52.1015 44.4294C49.2446 44.4294 46.9287 46.7454 46.9287 49.6022C46.9287 52.4591 49.2446 54.775 52.1015 54.775Z" fill="#58469C"/>
<path d="M52.1012 44.4294C51.5739 44.4294 51.0653 44.5089 50.5859 44.6555C52.7033 45.3034 54.2434 47.2727 54.2434 49.6022C54.2434 51.9318 52.7033 53.9012 50.5859 54.5489C51.0653 54.6956 51.5739 54.775 52.1012 54.775C54.958 54.775 57.274 52.459 57.274 49.6022C57.274 46.7454 54.958 44.4294 52.1012 44.4294Z" fill="#58469C"/>
<path d="M58.4608 49.6022C58.4608 46.0956 55.608 43.2429 52.1015 43.2429C48.5949 43.2429 45.7422 46.0956 45.7422 49.6022C45.7422 53.1088 48.5949 55.9615 52.1015 55.9615C55.608 55.9615 58.4608 53.1088 58.4608 49.6022ZM48.1152 49.6022C48.1152 47.4041 49.9036 45.616 52.1015 45.616C54.2994 45.616 56.0877 47.4043 56.0877 49.6022C56.0877 51.8001 54.2994 53.5885 52.1015 53.5885C49.9036 53.5885 48.1152 51.8003 48.1152 49.6022Z" fill="black"/>
<path d="M77.8323 41.0751C76.5077 40.5302 75.0987 40.5541 73.8654 41.0939C73.6043 40.435 73.1519 39.8702 72.5513 39.4655C71.7652 38.9357 70.8198 38.7436 69.8895 38.9249L67.8454 39.3231C67.3445 38.2784 66.7984 37.2678 66.2102 36.3035C62.3956 30.0504 57.385 26.6064 52.1014 26.6064C50.9707 26.6064 49.8523 26.7643 48.7557 27.0736C47.6694 21.3047 44.6516 14.8989 40.5388 9.70133C35.5884 3.44519 29.9265 0 24.5958 0C20.2941 0 15.7725 2.23952 11.52 6.47652C11.0559 6.93895 11.0546 7.69025 11.517 8.15442C11.9793 8.61875 12.7306 8.62001 13.1949 8.15743C15.8434 5.51876 19.9712 2.37305 24.5958 2.37305C29.1195 2.37305 34.2522 5.58077 38.678 11.1737C42.6049 16.1361 45.5627 22.4947 46.4999 27.9376C45.2301 28.5557 44.0001 29.3842 42.8254 30.4122C42.4964 25.8651 40.0523 19.7861 36.5364 14.9002C32.6734 9.53269 28.2097 6.32812 24.5958 6.32812C20.9817 6.32812 16.5178 9.53269 12.6553 14.9004C8.87077 20.1592 6.32812 26.8002 6.32812 31.4259C6.32812 35.4979 8.29854 39.4726 11.8765 42.6182C13.7482 44.2637 15.9075 45.5424 18.1848 46.3885C17.6216 47.2997 17.1918 48.2994 16.9135 49.363L16.7292 50.0675C8.59059 46.9961 2.37305 39.4867 2.37305 31.4259C2.37305 25.515 5.46655 17.6958 10.2539 11.5058C10.6548 10.9874 10.5597 10.2422 10.0413 9.84134C9.5232 9.44061 8.7779 9.53538 8.37686 10.054C3.28809 16.6335 0 25.0224 0 31.4259C0 37.344 2.73407 43.0069 7.69848 47.3709C10.1861 49.5578 13.0725 51.2531 16.1272 52.3678L15.8812 53.3078C15.115 56.2355 15.577 59.2608 17.182 61.8266C18.7869 64.3923 21.3051 66.1313 24.2729 66.7233C27.275 67.3221 29.7384 69.4991 30.7017 72.4048L30.8678 72.9057C32.4729 77.747 36.9781 81 42.0787 81H56.8674C58.5853 81 60.3159 80.6152 61.8715 79.8875L68.6964 76.6953C76.1705 73.199 81 65.6084 81 57.3572V45.8031C81 43.6903 79.7861 41.8786 77.8323 41.0751ZM70.3431 41.2542C70.6518 41.1945 70.9647 41.2578 71.2249 41.4334C71.4854 41.6088 71.6619 41.8754 71.722 42.1836C71.7446 42.3002 72.2253 44.7678 72.2572 44.9314C72.3811 45.5677 71.9641 46.1865 71.3279 46.3103L70.4289 46.4855C70.0061 44.8118 69.4673 43.1534 68.8241 41.5502L70.3431 41.2542ZM13.4435 40.8359C10.3854 38.1475 8.70117 34.8056 8.70117 31.4259C8.70117 27.2579 11.0644 21.1739 14.5816 16.2865C17.8974 11.6786 21.8282 8.70117 24.5958 8.70117C27.3633 8.70117 31.2942 11.6784 34.6101 16.2862C38.1273 21.1739 40.4903 27.2581 40.4903 31.4258C40.4903 31.9286 40.4525 32.4383 40.3782 32.9411C39.5413 33.9496 38.7438 35.0721 37.9926 36.3033C37.4044 37.2676 36.8582 38.2784 36.3575 39.323L34.3132 38.9248C32.4378 38.5584 30.6152 39.7496 30.1809 41.593C30.0637 41.5876 26.0051 40.2912 21.836 42.7932C21.0666 43.2549 20.3664 43.8019 19.7455 44.4203C17.4716 43.6906 15.3 42.468 13.4435 40.8359ZM33.774 46.4853L32.8749 46.3102C32.2388 46.1863 31.8218 45.5677 31.9456 44.9313L32.4807 42.1836C32.6047 41.5471 33.2241 41.1303 33.8596 41.254L35.379 41.5498C34.7356 43.1532 34.1967 44.8117 33.774 46.4853ZM24.5958 45.2007C23.9651 45.2007 23.331 45.1597 22.6977 45.0795C26.235 42.7052 29.5482 43.9194 29.7245 43.9237L29.6403 44.3557C27.9656 44.9166 26.2711 45.2007 24.5958 45.2007ZM19.2093 49.9636C19.4862 48.9053 19.9575 47.9433 20.5751 47.1064C21.9065 47.4138 23.2571 47.5736 24.5958 47.5736C26.3737 47.5736 28.1643 47.2983 29.9328 46.7541C30.4108 47.6989 31.304 48.4217 32.4214 48.6394L33.2649 48.8036C33.2021 49.1404 33.144 49.4769 33.091 49.8131C30.3392 50.9362 27.4095 51.5287 24.596 51.5287C22.6862 51.5287 20.8043 51.2703 18.9928 50.7917L19.2093 49.9636ZM78.627 57.3572C78.627 64.6913 74.3343 71.4382 67.6908 74.5456L60.8658 77.738C59.6228 78.3196 58.2401 78.627 56.8674 78.627H42.0787C38.0029 78.627 34.4029 76.0275 33.1203 72.1588L32.9542 71.658C31.7229 67.944 28.5742 65.1615 24.7371 64.396C22.4171 63.9332 20.4485 62.5738 19.1938 60.5681C17.9391 58.5624 17.5781 56.1972 18.1771 53.9085L18.394 53.08C20.4351 53.6196 22.5239 53.9019 24.596 53.9019C27.3027 53.9019 30.1004 53.4097 32.7761 52.47C32.7126 53.2789 32.68 54.0798 32.68 54.8682C32.68 60.8414 34.5543 65.4157 38.2507 68.4643C41.5763 71.2072 46.2364 72.598 52.1015 72.598C59.8282 72.598 65.5733 70.1115 68.7158 65.4073C69.0799 64.8625 68.9332 64.1256 68.3884 63.7617C67.8434 63.3974 67.1064 63.5445 66.7427 64.0892C63.355 69.1606 56.911 70.2249 52.1017 70.2249C44.3242 70.2249 35.0532 67.5606 35.0532 54.8682C35.0532 43.2486 42.5823 28.9793 52.1017 28.9793C61.8682 28.9793 69.1501 43.624 69.1501 54.8682C69.1501 56.8141 68.927 58.6086 68.4869 60.2017C68.3124 60.8334 68.6831 61.4868 69.3146 61.6614C69.9462 61.8359 70.5997 61.4654 70.7744 60.8337C71.2713 59.0346 71.5232 57.0276 71.5232 54.8683C71.5232 52.9006 71.3211 50.8547 70.9383 48.8038L71.7818 48.6396C73.7026 48.2656 74.9608 46.3986 74.5866 44.4779L74.3961 43.4998C75.2574 42.9275 76.2352 42.9841 76.9299 43.2697C77.7505 43.6073 78.6273 44.4499 78.6273 45.8031V57.3572H78.627Z" fill="black"/>
<path d="M52.1012 31.3525C49.5666 31.3525 47.0778 32.6552 44.7036 35.2247C44.2587 35.706 44.2885 36.4566 44.7697 36.9014C45.251 37.3462 46.0018 37.3166 46.4464 36.8352C48.3532 34.7719 50.2557 33.7257 52.1012 33.7257C55.9955 33.7257 59.233 38.5367 60.1325 40.0112C62.7668 44.3296 64.4034 50.0226 64.4034 54.8683C64.4034 58.6671 63.4282 61.3181 61.4222 62.9724C59.4341 64.6124 56.2108 65.4792 52.1012 65.4792C47.9914 65.4792 44.7681 64.6124 42.78 62.9724C40.774 61.3181 39.7988 58.6671 39.7988 54.8683C39.7988 50.1717 41.3617 44.6024 43.8775 40.3334C44.2102 39.7689 44.0221 39.0415 43.4576 38.7087C42.8936 38.3763 42.1657 38.5639 41.8328 39.1285C39.1144 43.7414 37.4258 49.7724 37.4258 54.8682C37.4258 59.4198 38.6832 62.6695 41.27 64.803C43.6884 66.7976 47.4339 67.8519 52.1012 67.8519C56.7685 67.8519 60.5138 66.7976 62.9322 64.803C65.519 62.6696 66.7764 59.42 66.7764 54.8682C66.7764 49.6112 65.0068 43.4446 62.1583 38.775C60.7968 36.5433 57.0915 31.3525 52.1012 31.3525Z" fill="black"/>
</g>
<defs>
<clipPath id="clip0_348_225">
<rect width="81" height="81" fill="white"/>
</clipPath>
</defs>
</svg>
