<svg width="27" height="27" viewBox="0 0 27 27" fill="none" xmlns="http://www.w3.org/2000/svg">
<path d="M25.5454 12.7047L17.6704 4.82972C17.4582 4.62479 17.174 4.5114 16.8791 4.51396C16.5841 4.51652 16.3019 4.63484 16.0933 4.84342C15.8847 5.05201 15.7664 5.33417 15.7639 5.62914C15.7613 5.92411 15.8747 6.20829 16.0796 6.42047L22.0343 12.3751H2.25C1.95163 12.3751 1.66548 12.4936 1.4545 12.7046C1.24353 12.9156 1.125 13.2017 1.125 13.5001C1.125 13.7985 1.24353 14.0846 1.4545 14.2956C1.66548 14.5066 1.95163 14.6251 2.25 14.6251H22.0343L16.0796 20.5797C15.9722 20.6835 15.8865 20.8076 15.8275 20.9449C15.7686 21.0821 15.7375 21.2298 15.7362 21.3791C15.7349 21.5285 15.7634 21.6767 15.82 21.8149C15.8765 21.9532 15.9601 22.0788 16.0657 22.1844C16.1713 22.29 16.2969 22.3736 16.4352 22.4301C16.5734 22.4867 16.7216 22.5152 16.871 22.5139C17.0203 22.5126 17.168 22.4815 17.3052 22.4226C17.4425 22.3636 17.5666 22.2779 17.6704 22.1705L25.5454 14.2955C25.7563 14.0845 25.8748 13.7984 25.8748 13.5001C25.8748 13.2018 25.7563 12.9157 25.5454 12.7047Z" fill="white"/>
</svg>
