<svg width="27" height="27" viewBox="0 0 27 27" fill="none" xmlns="http://www.w3.org/2000/svg">
<path d="M1.45462 12.7047L9.32962 4.82972C9.5418 4.62479 9.82598 4.5114 10.1209 4.51396C10.4159 4.51652 10.6981 4.63484 10.9067 4.84342C11.1153 5.05201 11.2336 5.33417 11.2361 5.62914C11.2387 5.92411 11.1253 6.20829 10.9204 6.42047L4.96575 12.3751H24.75C25.0484 12.3751 25.3345 12.4936 25.5455 12.7046C25.7565 12.9156 25.875 13.2017 25.875 13.5001C25.875 13.7985 25.7565 14.0846 25.5455 14.2956C25.3345 14.5066 25.0484 14.6251 24.75 14.6251H4.96575L10.9204 20.5797C11.0278 20.6835 11.1135 20.8076 11.1725 20.9449C11.2314 21.0821 11.2625 21.2298 11.2638 21.3791C11.2651 21.5285 11.2366 21.6767 11.18 21.8149C11.1235 21.9532 11.0399 22.0788 10.9343 22.1844C10.8287 22.29 10.7031 22.3736 10.5648 22.4301C10.4266 22.4867 10.2784 22.5152 10.129 22.5139C9.97967 22.5126 9.83205 22.4815 9.69479 22.4226C9.55754 22.3636 9.4334 22.2779 9.32962 22.1705L1.45462 14.2955C1.24372 14.0845 1.12524 13.7984 1.12524 13.5001C1.12524 13.2018 1.24372 12.9157 1.45462 12.7047Z" fill="white"/>
</svg>
