<svg width="87" height="87" viewBox="0 0 87 87" fill="none" xmlns="http://www.w3.org/2000/svg">
<path d="M56.4881 14.0186C55.9828 14.0186 55.5368 13.6976 55.3667 13.2216C52.877 6.25771 46.222 1.27441 38.4023 1.27441C30.5827 1.27441 23.9277 6.25771 21.438 13.2216C21.2679 13.6976 20.8219 14.0186 20.3165 14.0186H6.37207C3.55663 14.0186 1.27441 16.3008 1.27441 19.1162V75.5303C1.27441 78.3457 3.55663 80.6279 6.37207 80.6279H70.4326C73.2481 80.6279 75.5303 78.3457 75.5303 75.5303V19.1162C75.5303 16.3008 73.2481 14.0186 70.4326 14.0186H56.4881Z" fill="white"/>
<path d="M75.5305 75.5303V19.1162C75.5305 16.3008 73.2483 14.0186 70.4329 14.0186H65.3352C68.1506 14.0186 70.4329 16.3009 70.4329 19.1162V42.6966C70.4329 43.6771 69.6059 44.4534 68.6274 44.3909C67.9957 44.3505 67.3569 44.336 66.7124 44.3484C54.5182 44.5833 44.5927 54.5013 44.3494 66.6954C44.2454 71.9069 45.8999 76.7347 48.7571 80.6278H70.4329C73.2483 80.6279 75.5305 78.3457 75.5305 75.5303Z" fill="white"/>
<path d="M50.0672 75.5303H26.7383C26.0814 75.5303 25.5488 74.9977 25.5488 74.3408V71.6221C25.5488 70.9652 26.0814 70.4326 26.7383 70.4326H50.0674C50.7243 70.4326 51.2568 70.9652 51.2568 71.6221V74.3408C51.2566 74.9977 50.7241 75.5303 50.0672 75.5303Z" fill="#58469C"/>
<path d="M38.4019 31.5992C45.2022 31.5992 50.715 26.0865 50.715 19.2862C50.715 12.4859 45.2022 6.97314 38.4019 6.97314C31.6016 6.97314 26.0889 12.4859 26.0889 19.2862C26.0889 26.0865 31.6016 31.5992 38.4019 31.5992Z" fill="#616C33"/>
<path d="M38.4023 6.97314C37.5283 6.97314 36.6761 7.06558 35.8535 7.23873C41.4305 8.41289 45.6177 13.3598 45.6177 19.286C45.6177 25.2122 41.4305 30.1593 35.8535 31.3335C36.6761 31.5066 37.5283 31.5991 38.4023 31.5991C45.2026 31.5991 50.7154 26.0863 50.7154 19.286C50.7154 12.4858 45.2026 6.97314 38.4023 6.97314Z" fill="#616C33"/>
<path d="M38.4023 21.835C39.81 21.835 40.9512 20.6938 40.9512 19.2861C40.9512 17.8785 39.81 16.7373 38.4023 16.7373C36.9947 16.7373 35.8535 17.8785 35.8535 19.2861C35.8535 20.6938 36.9947 21.835 38.4023 21.835Z" fill="#58469C"/>
<path d="M45.9402 75.5305H50.0666C50.7235 75.5305 51.256 74.998 51.256 74.3411V71.6223C51.256 70.9654 50.7235 70.4329 50.0666 70.4329H44.583C44.8393 72.2058 45.2994 73.9129 45.9402 75.5305Z" fill="#58469C"/>
<path d="M67.1585 85.7259C77.4126 85.7259 85.7252 77.4133 85.7252 67.1592C85.7252 56.9051 77.4126 48.5925 67.1585 48.5925C56.9044 48.5925 48.5918 56.9051 48.5918 67.1592C48.5918 77.4133 56.9044 85.7259 67.1585 85.7259Z" fill="#616C33"/>
<path d="M67.1582 48.5925C66.2933 48.5925 65.4428 48.653 64.6094 48.7674C73.6572 50.0098 80.6272 57.7698 80.6272 67.159C80.6272 76.5482 73.6574 84.3082 64.6094 85.5507C65.4428 85.6651 66.2933 85.7256 67.1582 85.7256C77.4123 85.7256 85.7249 77.413 85.7249 67.1589C85.7249 56.9048 77.4123 48.5925 67.1582 48.5925Z" fill="#616C33"/>
<path d="M8.9209 24.2192C10.3286 24.2192 11.4697 23.0781 11.4697 21.6704C11.4697 20.2627 10.3286 19.1216 8.9209 19.1216C7.51322 19.1216 6.37207 20.2627 6.37207 21.6704C6.37207 23.0781 7.51322 24.2192 8.9209 24.2192Z" fill="#58469C"/>
<path d="M67.8838 24.2192C69.2915 24.2192 70.4326 23.0781 70.4326 21.6704C70.4326 20.2627 69.2915 19.1216 67.8838 19.1216C66.4761 19.1216 65.335 20.2627 65.335 21.6704C65.335 23.0781 66.4761 24.2192 67.8838 24.2192Z" fill="#58469C"/>
<path d="M8.9209 75.5303C10.3286 75.5303 11.4697 74.3891 11.4697 72.9814C11.4697 71.5738 10.3286 70.4326 8.9209 70.4326C7.51322 70.4326 6.37207 71.5738 6.37207 72.9814C6.37207 74.3891 7.51322 75.5303 8.9209 75.5303Z" fill="#58469C"/>
<path d="M71.707 21.6703C71.707 19.5623 69.992 17.8471 67.8838 17.8471C65.7756 17.8471 64.0605 19.5623 64.0605 21.6703C64.0605 23.7784 65.7756 25.4935 67.8838 25.4935C69.992 25.4935 71.707 23.7785 71.707 21.6703ZM66.6094 21.6703C66.6094 20.9675 67.181 20.3959 67.8838 20.3959C68.5866 20.3959 69.1582 20.9675 69.1582 21.6703C69.1582 22.3731 68.5866 22.9447 67.8838 22.9447C67.181 22.9447 66.6094 22.3731 66.6094 21.6703ZM8.9209 69.1582C6.81268 69.1582 5.09766 70.8734 5.09766 72.9814C5.09766 75.0895 6.81268 76.8047 8.9209 76.8047C11.0291 76.8047 12.7441 75.0895 12.7441 72.9814C12.7441 70.8734 11.0291 69.1582 8.9209 69.1582ZM8.9209 74.2559C8.2181 74.2559 7.64648 73.6842 7.64648 72.9814C7.64648 72.2786 8.2181 71.707 8.9209 71.707C9.6237 71.707 10.1953 72.2786 10.1953 72.9814C10.1953 73.6842 9.6237 74.2559 8.9209 74.2559ZM38.4023 23.1094C40.5106 23.1094 42.2256 21.3942 42.2256 19.2861C42.2256 17.1781 40.5106 15.4629 38.4023 15.4629C38.2837 15.4629 38.1665 15.4692 38.0506 15.4797L37.0109 13.2248C36.7162 12.5858 35.9592 12.3066 35.32 12.6012C34.6807 12.8959 34.4015 13.6529 34.6963 14.2921L35.7369 16.5489C35.0234 17.2438 34.5791 18.2138 34.5791 19.286C34.5791 21.3942 36.2941 23.1094 38.4023 23.1094ZM38.4023 18.0117C39.1051 18.0117 39.6768 18.5833 39.6768 19.2861C39.6768 19.9889 39.1051 20.5605 38.4023 20.5605C37.6995 20.5605 37.1279 19.9889 37.1279 19.2861C37.1279 18.5833 37.6995 18.0117 38.4023 18.0117ZM76.8047 49.826V19.1162C76.8047 15.6026 73.9463 12.7441 70.4326 12.7441H56.55C53.7996 5.1189 46.5132 0 38.4023 0C35.6511 0 32.9936 0.567709 30.5034 1.68715C29.8614 1.97568 29.5749 2.73013 29.8636 3.3721C30.1521 4.01389 30.9067 4.30004 31.5485 4.01203C33.7079 3.04092 36.0138 2.54883 38.4023 2.54883C45.4565 2.54883 51.7918 7.01047 54.167 13.65C54.5179 14.6327 55.4509 15.293 56.4888 15.293H70.4326C72.5408 15.293 74.2559 17.0082 74.2559 19.1162V48.6311C72.0511 47.7837 69.6586 47.3178 67.1589 47.3178C64.1842 47.3178 61.3233 47.9603 58.6555 49.2276C58.0197 49.5295 57.7491 50.2897 58.0511 50.9254C58.353 51.5613 59.1131 51.8316 59.749 51.5298C62.0725 50.4262 64.5656 49.8666 67.1589 49.8666C76.6939 49.8668 84.4512 57.6239 84.4512 67.1589C84.4512 76.6939 76.6939 84.4512 67.1589 84.4512C57.6239 84.4512 49.8666 76.6941 49.8666 67.1589C49.8666 62.4264 51.7417 58.009 55.1464 54.7203C55.6526 54.2312 55.6666 53.4245 55.1777 52.9183C54.6887 52.4121 53.8821 52.398 53.3757 52.887C49.4694 56.6604 47.318 61.7289 47.318 67.1589C47.318 67.8337 47.3521 68.5006 47.4182 69.1582H26.7372C25.3787 69.1582 24.2733 70.2635 24.2733 71.6221V74.3408C24.2733 75.6993 25.3787 76.8047 26.7372 76.8047H49.8259C50.3254 77.6988 50.8914 78.551 51.5186 79.3535H6.37207C4.26385 79.3535 2.54883 77.6383 2.54883 75.5303V19.1162C2.54883 17.0082 4.26385 15.293 6.37207 15.293H20.3159C21.3536 15.293 22.2868 14.6327 22.6373 13.6508C23.5213 11.1798 25.0033 8.91682 26.9236 7.10613C27.4358 6.62321 27.4594 5.8166 26.9765 5.30445C26.4937 4.79265 25.6871 4.76903 25.1749 5.25144C22.9762 7.32499 21.2757 9.91477 20.2547 12.7441H6.37207C2.85843 12.7441 0 15.6026 0 19.1162V75.5303C0 79.0439 2.85843 81.9023 6.37207 81.9023H53.896C57.413 85.0695 62.0646 87 67.1589 87C78.0993 87 87 78.0993 87 67.1589C87 59.7175 82.8814 53.2209 76.8047 49.826ZM26.8222 74.2559V71.707H47.8447C48.0503 72.5803 48.3142 73.4311 48.6313 74.2559H26.8222ZM38.4023 32.8736C45.8945 32.8736 51.9898 26.7783 51.9898 19.2861C51.9898 11.7939 45.8945 5.69867 38.4023 5.69867C30.9101 5.69867 24.8149 11.7939 24.8149 19.2861C24.8149 26.7783 30.9101 32.8736 38.4023 32.8736ZM38.4023 8.2475C44.4891 8.2475 49.441 13.1995 49.441 19.2861C49.441 25.3727 44.4891 30.3248 38.4023 30.3248C32.3156 30.3248 27.3637 25.3727 27.3637 19.2861C27.3637 13.1995 32.3156 8.2475 38.4023 8.2475ZM8.9209 17.8471C6.81268 17.8471 5.09766 19.5623 5.09766 21.6703C5.09766 23.7784 6.81268 25.4935 8.9209 25.4935C11.0291 25.4935 12.7441 23.7784 12.7441 21.6703C12.7441 19.5623 11.0291 17.8471 8.9209 17.8471ZM8.9209 22.9447C8.2181 22.9447 7.64648 22.3731 7.64648 21.6703C7.64648 20.9675 8.2181 20.3959 8.9209 20.3959C9.6237 20.3959 10.1953 20.9675 10.1953 21.6703C10.1953 22.3731 9.6237 22.9447 8.9209 22.9447ZM67.1589 56.4865C66.4551 56.4865 65.8845 57.0569 65.8845 57.7609V73.4805L62.6084 70.2044C62.1107 69.7065 61.3037 69.7067 60.8062 70.2042C60.3085 70.7021 60.3085 71.5089 60.8062 72.0066L66.2564 77.4568C66.6675 77.8827 67.5302 78.0152 68.06 77.4584L73.5116 72.0066C74.0093 71.5087 74.0093 70.7019 73.5116 70.2042C73.0139 69.7067 72.2069 69.7067 71.7094 70.2042L68.4333 73.4805V57.7609C68.4333 57.0569 67.8627 56.4865 67.1589 56.4865Z" fill="black"/>
</svg>
