<svg width="15.000000" height="15.000000" viewBox="0 0 15 15" fill="none" xmlns="http://www.w3.org/2000/svg" xmlns:xlink="http://www.w3.org/1999/xlink">
	
	<defs>
		<clipPath id="clip9_207">
			<rect id="fi_7955341" rx="0.000000" width="14.000000" height="14.000000" transform="translate(0.500000 0.500000)" fill="white" fill-opacity="0"/>
		</clipPath>
	</defs>
	<rect id="fi_7955341" rx="0.000000" width="14.000000" height="14.000000" transform="translate(0.500000 0.500000)" fill="#FFFFFF" fill-opacity="0"/>
	<g clip-path="url(#clip9_207)">
		<path id="path38548" d="M9.22 2.48C8.85 2.88 8.94 3.25 9.22 3.54L12.44 6.76L0.74 6.76C0.33 6.76 0 7.1 0 7.51C0 7.92 0.33 8.26 0.74 8.26L12.44 8.26L9.22 11.48C8.93 11.77 8.93 12.24 9.22 12.54C9.51 12.83 9.99 12.83 10.28 12.54L14.78 8.04C15.07 7.75 15.07 7.27 14.78 6.98L10.28 2.48C9.97 2.18 9.56 2.12 9.22 2.48Z" fill="#000000" fill-opacity="1.000000" fill-rule="nonzero"/>
	</g>
</svg>
