<svg width="31.000000" height="31.000000" viewBox="0 0 31 31" fill="none" xmlns="http://www.w3.org/2000/svg" xmlns:xlink="http://www.w3.org/1999/xlink">
	
	<defs>
		<clipPath id="clip387_884">
			<rect id="fi_9678508" rx="0.000000" width="30.000000" height="30.000000" transform="translate(0.500000 0.500000)" fill="white" fill-opacity="0"/>
		</clipPath>
	</defs>
	<rect id="fi_9678508" rx="0.000000" width="30.000000" height="30.000000" transform="translate(0.500000 0.500000)" fill="#FFFFFF" fill-opacity="0"/>
	<g clip-path="url(#clip387_884)">
		<path id="Vector" d="M16.79 5.16C16.79 4.45 16.21 3.87 15.5 3.87C14.78 3.87 14.2 4.45 14.2 5.16L14.2 22.71L7.37 15.87C6.86 15.37 6.04 15.37 5.54 15.87C5.04 16.38 5.04 17.2 5.54 17.7L14.58 26.74C15.09 27.25 15.9 27.25 16.41 26.74L25.45 17.7C25.95 17.2 25.95 16.38 25.45 15.87C24.95 15.37 24.13 15.37 23.62 15.87L16.79 22.71L16.79 5.16Z" fill="#FFFFFF" fill-opacity="1.000000" fill-rule="nonzero"/>
	</g>
</svg>
