<svg width="190.000000" height="190.000000" viewBox="0 0 190 190" fill="none" xmlns="http://www.w3.org/2000/svg" xmlns:xlink="http://www.w3.org/1999/xlink">
	
	<defs>
		<clipPath id="clip385_595">
			<rect id="fi_3023800" rx="0.000000" width="189.000000" height="189.000000" transform="translate(0.500000 0.500000)" fill="white" fill-opacity="0"/>
		</clipPath>
	</defs>
	<rect id="fi_3023800" rx="0.000000" width="189.000000" height="189.000000" transform="translate(0.500000 0.500000)" fill="#FFFFFF" fill-opacity="0"/>
	<g clip-path="url(#clip385_595)">
		<path id="Vector" d="M121.71 35.62L121.71 20.78C121.71 14.22 116.4 8.9 109.84 8.9L68.28 8.9L68.28 23.75L109.84 23.75L121.71 35.62Z" fill="#AD954F" fill-opacity="1.000000" fill-rule="nonzero"/>
		<path id="Vector" d="M136.56 173.22C136.56 169.24 133.59 165.89 129.64 165.41L95 161.17L153.54 154.04L159.54 153.3C160.1 153.24 160.66 153.18 161.23 153.18C168.8 153.18 175.15 159.36 175.15 167.14C175.15 174.85 168.92 181.09 161.2 181.09L128.69 181.09C130.86 181.09 132.82 180.2 134.24 178.77C135.67 177.35 136.56 175.39 136.56 173.22Z" fill="#AD954F" fill-opacity="1.000000" fill-rule="nonzero"/>
		<path id="Vector" d="M129.64 165.41C133.59 165.89 136.56 169.24 136.56 173.22C136.56 175.39 135.67 177.35 134.24 178.77C132.82 180.2 130.86 181.09 128.69 181.09L61.3 181.09L28.79 181.09C21.07 181.09 14.84 174.85 14.84 167.14C14.84 159.36 21.19 153.18 28.76 153.18C29.33 153.18 29.89 153.24 30.45 153.3L36.45 154.04L75.85 158.85L75.88 158.85L95 161.17L129.64 165.41Z" fill="#AD954F" fill-opacity="1.000000" fill-rule="nonzero"/>
		<path id="Vector" d="M17.57 154.49C13.95 157.69 11.87 162.31 11.87 167.15C11.87 176.47 19.46 184.06 28.78 184.06L61.3 184.06L128.68 184.06L161.2 184.06C170.53 184.06 178.12 176.47 178.12 167.14C178.12 157.8 170.54 150.21 161.23 150.21C160.62 150.21 160 150.28 159.35 150.34C159.94 148.73 160.31 147.05 160.31 145.32L160.31 92.03C160.31 77.29 148.32 65.31 133.59 65.31L112.73 65.31C119.22 60.45 123.68 53.02 124.53 44.53L127.65 44.53C132.56 44.53 136.56 40.53 136.56 35.62C136.56 30.71 132.56 26.71 127.65 26.71L124.68 26.71L124.68 20.78C124.68 12.59 118.02 5.93 109.84 5.93L68.28 5.93C66.64 5.93 65.31 7.26 65.31 8.9L65.31 26.71L62.34 26.71C57.43 26.71 53.43 30.71 53.43 35.62C53.43 40.53 57.43 44.53 62.34 44.53L65.46 44.53C66.31 53.02 70.77 60.45 77.26 65.31L56.4 65.31C41.67 65.31 29.68 77.29 29.68 92.03L29.68 145.32C29.68 147.05 30.05 148.74 30.64 150.35C25.9 149.83 21.14 151.32 17.57 154.49ZM161.23 156.15C167.27 156.15 172.18 161.08 172.18 167.14C172.18 173.19 167.25 178.12 161.2 178.12L138.3 178.12C139.06 176.64 139.53 174.99 139.53 173.22C139.53 167.74 135.43 163.12 130 162.45L119.49 161.17L159.85 156.25C160.31 156.21 160.77 156.15 161.23 156.15ZM37.91 151.22C36.45 149.58 35.62 147.53 35.62 145.32L35.62 112.81L50.46 112.81L50.46 139.53C50.46 140.82 51.3 141.96 52.53 142.36L85.24 152.75L75.61 155.82L37.91 151.22ZM137.46 142.36C138.69 141.96 139.53 140.82 139.53 139.53L139.53 112.81L154.37 112.81L154.37 145.32C154.37 147.52 153.54 149.57 152.08 151.22L94.96 158.18L89.76 157.55L137.46 142.36ZM106.35 71.25L95 84.5L83.64 71.25L106.35 71.25ZM127.65 32.65C129.29 32.65 130.62 33.98 130.62 35.62C130.62 37.26 129.29 38.59 127.65 38.59L124.68 38.59L124.68 32.65L127.65 32.65ZM109.84 11.87C114.75 11.87 118.75 15.87 118.75 20.78L118.75 28.45L111.94 21.65C111.38 21.09 110.63 20.78 109.84 20.78L71.25 20.78L71.25 11.87L109.84 11.87ZM59.37 35.62C59.37 33.98 60.7 32.65 62.34 32.65L65.31 32.65L65.31 38.59L62.34 38.59C60.7 38.59 59.37 37.26 59.37 35.62ZM71.25 41.56L71.25 29.68L71.25 26.71L108.61 26.71L118.75 36.85L118.75 41.56C118.75 54.65 108.09 65.31 95 65.31C81.9 65.31 71.25 54.65 71.25 41.56ZM56.4 71.25L75.82 71.25L92.74 90.99C93.3 91.65 94.13 92.03 95 92.03C95.86 92.03 96.69 91.65 97.25 90.99L114.17 71.25L133.59 71.25C145.05 71.25 154.37 80.57 154.37 92.03L154.37 106.87L139.53 106.87L139.53 95L133.59 95L133.59 137.36L95.03 149.63L56.4 137.36L56.4 95L50.46 95L50.46 106.87L35.62 106.87L35.62 92.03C35.62 80.57 44.94 71.25 56.4 71.25ZM129.28 168.35C131.74 168.65 133.59 170.74 133.59 173.22C133.59 175.92 131.39 178.12 128.68 178.12L61.3 178.12L28.78 178.12C22.73 178.12 17.81 173.2 17.81 167.15C17.81 164.01 19.16 161.01 21.51 158.93C23.52 157.15 26.12 156.17 28.78 156.17C29.22 156.17 29.67 156.2 30.11 156.25L129.28 168.35Z" fill="#FFFFFF" fill-opacity="1.000000" fill-rule="nonzero"/>
		<path id="Vector" d="M80.41 36.85L76.21 41.05C78.45 43.29 81.43 44.53 84.6 44.53C87.78 44.53 90.76 43.29 93 41.05L88.8 36.85C86.56 39.09 82.65 39.09 80.41 36.85Z" fill="#FFFFFF" fill-opacity="1.000000" fill-rule="nonzero"/>
		<path id="Vector" d="M109.58 36.85C107.34 39.09 103.43 39.09 101.19 36.85L96.99 41.05C99.23 43.29 102.21 44.53 105.39 44.53C108.56 44.53 111.54 43.29 113.78 41.05L109.58 36.85Z" fill="#FFFFFF" fill-opacity="1.000000" fill-rule="nonzero"/>
	</g>
</svg>
