<svg width="1471.000000" height="340.351624" viewBox="0 0 1471 340.352" fill="none" xmlns="http://www.w3.org/2000/svg" xmlns:xlink="http://www.w3.org/1999/xlink">
	
	<defs/>
	<g opacity="0.100000">
		<mask id="mask_5_143" fill="white">
			<path id="Union" d="M304.135 334.205L304.135 0.760925C304.423 0.69519 304.712 0.610535 305.003 0.525452C305.632 0.341248 306.268 0.155212 306.904 0.155884C312.551 0.161865 318.2 0.120056 323.849 0.0782471C338.744 -0.0320435 353.639 -0.142334 368.499 0.624146C376.971 1.06207 385.904 3.63995 393.577 7.78229C412.643 18.074 418.649 38.1036 418.776 60.2477C418.964 92.7391 419.025 125.232 419.025 157.724C419.025 187.594 418.973 217.465 418.922 247.335C418.907 256.089 418.892 264.843 418.878 273.597C418.856 287.86 416.046 301.479 408.486 313.177C398.954 327.927 385.141 333.848 369.878 334.451C354.709 335.049 339.518 334.957 324.328 334.866C318.136 334.828 311.944 334.791 305.754 334.8C305.454 334.801 305.154 334.66 304.786 334.488C304.591 334.397 304.378 334.297 304.135 334.205ZM456.027 0.117126C460.802 0.117126 465.542 0.0966187 470.257 0.0762939C481.368 0.0282593 492.34 -0.019165 503.307 0.203552C512.69 0.39447 522.269 0.251038 531.397 2.33124C554.777 7.65808 567.991 25.333 570.114 52.4742C570.667 59.5392 570.948 66.6547 570.955 73.7482C570.965 83.7003 570.977 93.6524 570.989 103.605C571.017 126.227 571.045 148.85 571.045 171.473C571.045 202.709 570.992 233.945 570.813 265.18C570.75 276.155 569.4 287.458 566.777 298.004C562.064 316.946 549.964 327.948 533.391 332.369C528.031 333.797 522.444 334.69 516.949 334.772C502.737 334.984 488.521 334.945 474.307 334.906L474.302 334.906C469.327 334.892 464.353 334.878 459.379 334.875C458.393 334.874 457.409 334.745 456.027 334.647L456.027 0.117126ZM91.9285 145.351C110.2 156.425 114.696 174.931 115.033 195.278C115.249 208.215 115.338 221.156 115.338 234.099C115.338 248.837 115.223 263.576 115.048 278.31C114.894 291.425 112.829 304.321 106.505 315.684C99.2211 328.767 87.5142 333.717 75.0377 334.175C57.4736 334.818 39.8884 334.687 22.1594 334.554C14.8007 334.499 7.41711 334.444 0 334.444L0 0.468689C1.46619 0.351929 2.92651 0.135315 4.38605 0.133423C5.34698 0.132324 6.30786 0.131226 7.2688 0.130127C25.8363 0.109192 44.4038 0.0882568 62.9713 0.133423C72.2988 0.155273 81.408 1.69403 89.8978 6.36255C101.721 12.8653 107.606 24.7746 109.625 38.5979C111.577 51.9621 112.508 65.3967 112.508 78.8403C112.508 91.8087 111.642 104.785 109.987 117.715C108.437 129.828 102.685 139.425 91.9285 145.351ZM884.897 334.581L838.014 334.581C836.749 315.876 835.487 297.235 834.186 278.012C831.926 278.012 829.681 278.006 827.447 277.999L827.446 277.999C819.43 277.976 811.569 277.953 803.715 278.235C802.763 278.269 801.258 281.341 801.092 283.134C799.517 300.1 798.177 317.095 796.737 334.474L749.998 334.474C762.25 223.034 774.482 111.786 786.732 0.362244L851.811 0.362244C862.835 111.723 873.847 222.966 884.897 334.581ZM152.114 0.443115L197.785 0.443115L197.785 8.09894C197.785 22.7691 197.785 37.4392 197.784 52.1093C197.784 66.7794 197.783 81.4493 197.783 96.1194C197.783 155.395 197.792 214.67 197.846 273.946C197.85 278.092 198.127 282.493 199.356 286.326C201.472 292.922 205.772 295.575 211.061 294.795C216.363 294.013 220.691 288.962 221.346 282.381C221.725 278.576 221.799 274.716 221.801 270.881C221.817 212.663 221.819 154.444 221.819 96.226C221.819 81.7001 221.819 67.1743 221.819 52.6483C221.819 38.1224 221.819 23.5966 221.819 9.07068L221.819 0.57605L266.838 0.57605C266.933 2.55273 267.115 4.57782 267.115 6.60199C267.117 20.2677 267.12 33.9334 267.123 47.5992C267.129 81.4974 267.136 115.396 267.136 149.294C267.136 188.423 267.127 227.553 267.099 266.682C267.087 284.31 263.887 300.978 254.435 315.467C237.734 341.066 207.32 344.597 187.079 334.705C163.643 323.252 154.377 300.97 152.484 273.516C152.162 268.833 152.125 264.119 152.125 259.409C152.125 258.727 152.126 258.046 152.127 257.364C152.128 256.683 152.128 256.003 152.128 255.322L152.128 255.088C152.116 205.03 152.113 154.972 152.113 104.914C152.113 88.9031 152.113 72.892 152.114 56.8808C152.114 40.8697 152.114 24.8586 152.114 8.84741L152.114 0.443115ZM1318.31 334.656L1281.02 334.656C1270.42 283.244 1259.81 231.744 1249.2 180.245L1247.82 180.479C1250.02 206.81 1250.45 233.164 1250.45 259.58C1250.45 267.693 1250.41 275.812 1250.37 283.938C1250.33 292.078 1250.29 300.225 1250.29 308.38C1250.29 317.072 1250.33 325.773 1250.47 334.484L1205.01 334.484L1205.01 0.467346L1241.56 0.467346C1252.26 54.4706 1263 108.641 1273.75 162.81C1273.93 162.769 1274.11 162.727 1274.3 162.686C1273.71 108.822 1273.13 54.9579 1272.54 0.601257L1318.31 0.601257L1318.31 334.656ZM720.741 334.675L675.938 334.675L675.938 166.1L655.346 166.1L655.346 334.575L610.241 334.575L610.241 0.529541L655.185 0.529541L655.185 125.01L675.574 125.01L675.574 0.51532L720.741 0.51532L720.741 334.675ZM967.558 295.052L1016.24 295.052L1016.24 334.544L922.567 334.544L922.567 0.537903L967.558 0.537903L967.558 295.052ZM1144.1 0.543152C1155.12 111.93 1166.11 223.047 1177.14 334.553L1130.24 334.553C1129 315.886 1127.76 297.229 1126.51 278.298L1093.74 278.298C1092.16 296.904 1090.57 315.524 1088.96 334.505L1042.26 334.505C1054.49 223.214 1066.7 112.081 1078.96 0.543152L1144.1 0.543152ZM1356.22 340.319L1356.22 5.83282C1358.15 5.72742 1359.78 5.56122 1361.42 5.56024C1366.43 5.55469 1371.45 5.51599 1376.46 5.47736C1389.46 5.37714 1402.46 5.27686 1415.44 5.75403C1423.54 6.05133 1431.86 7.57489 1439.61 10.2896C1456.24 16.116 1465.36 30.2746 1468.96 49.1853C1470.17 55.5123 1470.84 62.1014 1470.85 68.5738L1470.88 82.85C1470.94 113.336 1471 143.823 1471 174.31C1471 208.236 1470.93 242.161 1470.69 276.085C1470.62 286.941 1468.61 298.308 1465.28 308.492C1459.27 326.853 1445.74 335.571 1429.43 338.854C1424.17 339.913 1418.74 340.204 1413.38 340.256C1401 340.378 1388.61 340.357 1376.23 340.335C1371.45 340.327 1366.67 340.319 1361.89 340.319L1356.22 340.319ZM501.509 39.6768L501.509 294.221C518.807 297.343 525.396 292.772 525.396 273.323C525.396 273.245 525.395 273.167 525.395 273.088C525.306 239.656 525.286 206.224 525.286 172.791C525.286 159.228 525.289 145.665 525.292 132.101C525.296 118.538 525.299 104.974 525.299 91.4106C525.299 80.8546 525.297 70.2986 525.291 59.7426C525.289 56.6926 525.146 53.5627 524.542 50.6106C523.558 45.8024 520.853 42.0296 516.622 41.1025C511.767 40.0387 506.722 40.1156 501.509 39.6768ZM349.813 294.939C351.195 294.939 352.515 294.965 353.791 294.99C356.496 295.042 359.005 295.09 361.497 294.884C367.871 294.358 372.074 289.977 373.13 282.803C373.546 279.979 373.553 277.059 373.553 274.174L373.553 273.865L373.553 273.609C373.565 234.995 373.569 196.38 373.569 157.764C373.569 125.66 373.566 93.5561 373.561 61.4521L373.561 61.2039L373.561 60.9163L373.561 60.6284C373.561 58.2125 373.554 55.7882 373.349 53.3916C372.801 46.9952 369.714 42.3428 364.379 40.9456C361.205 40.114 357.88 40.0338 354.466 39.9515C352.931 39.9144 351.378 39.877 349.813 39.7706L349.813 294.939ZM45.4935 40.7617L45.4935 124.67C59.53 128.144 66.5362 121.917 66.5677 106.13C66.5693 105.36 66.57 104.59 66.57 103.821C66.57 99.3663 66.5466 94.9111 66.5232 90.456C66.4998 86.0009 66.4763 81.5458 66.4763 77.0913C66.4763 71.201 66.5173 65.3118 66.6533 59.4254C66.6615 59.0698 66.6656 58.719 66.6656 58.3732C66.6656 43.8604 59.4239 37.9914 45.4935 40.7617ZM1401.82 299.68C1418.12 302.574 1425.65 298.865 1425.65 280.139C1425.65 279.584 1425.64 279.015 1425.63 278.433C1425.62 277.95 1425.62 277.466 1425.62 276.982C1425.62 276.552 1425.62 276.121 1425.62 275.69C1425.62 275.26 1425.63 274.829 1425.63 274.398L1425.63 157.956C1425.63 150.016 1425.63 142.075 1425.63 134.134C1425.63 126.193 1425.63 118.253 1425.63 110.312C1425.63 95.4495 1425.63 80.5869 1425.6 65.7242L1425.6 65.4535C1425.59 59.413 1425.57 53.344 1420.71 48.9716C1416.4 45.1002 1411.71 45.2687 1406.93 45.441C1405.23 45.5019 1403.53 45.5633 1401.82 45.4467L1401.82 299.68ZM1123.78 238.509C1119.84 176.671 1115.93 115.191 1112.01 53.7114C1111.87 53.7314 1111.73 53.7504 1111.59 53.7694C1106.62 115.207 1101.65 176.646 1096.65 238.509L1123.78 238.509ZM804.401 238.553L831.52 238.553L819.745 53.7936C819.599 53.8051 819.451 53.8164 819.303 53.8268C814.346 115.28 809.389 176.732 804.401 238.553ZM45.6812 165.695L45.6812 294.784C47.5765 294.884 49.0668 295.019 50.5579 295.033C66.4997 295.186 69.7608 291.484 69.7625 273.261Q69.7643 257.861 69.7643 242.46Q69.7643 227.06 69.7625 211.659L69.7625 211.581C69.7625 208.591 69.7764 205.601 69.7903 202.61C69.8043 199.62 69.8182 196.63 69.8182 193.64C69.8182 189.475 69.7911 185.31 69.6993 181.148C69.4852 171.431 64.5304 166.019 56.0207 165.714C53.7507 165.633 51.4781 165.653 49.1002 165.674C47.9871 165.684 46.8509 165.695 45.6812 165.695Z" clip-rule="evenodd" fill="" fill-opacity="1.000000" fill-rule="evenodd"/>
		</mask>
		<path id="Union" d="M92.8985 145.954C92.5796 145.751 92.2562 145.55 91.9285 145.351C92.2638 145.167 92.5942 144.978 92.9199 144.786C103.039 138.824 108.486 129.45 109.987 117.715C111.642 104.785 112.508 91.8087 112.508 78.8403C112.508 65.3967 111.577 51.9621 109.625 38.5979C107.606 24.7746 101.721 12.8653 89.8978 6.36255C81.408 1.69403 72.2988 0.155273 62.9713 0.133423C44.4038 0.0882568 25.8363 0.109192 7.2688 0.130127L4.38605 0.133423C2.92651 0.135315 1.46619 0.351929 0 0.468689L0 334.444L1 334.444C8.08085 334.449 15.1314 334.502 22.1594 334.554C39.8884 334.687 57.4736 334.818 75.0377 334.175C87.5142 333.717 99.2211 328.767 106.505 315.684C112.829 304.321 114.894 291.425 115.048 278.31C115.223 263.576 115.338 248.837 115.338 234.099C115.338 221.156 115.249 208.215 115.033 195.278C114.702 175.296 110.36 157.089 92.8985 145.954ZM1 333.449L22.1668 333.555Q57.4526 333.818 75.001 333.175Q86.9939 332.735 95.2632 326.962Q101.509 322.601 105.631 315.197Q113.787 300.545 114.048 278.302L114.319 244.503L114.338 234.107L114.034 195.294Q113.751 178.301 109.279 167.211Q106.583 160.527 102.162 155.304Q97.6747 150.003 91.4102 146.207L89.931 145.31L91.4459 144.476Q97.6608 141.051 101.728 135.924Q107.596 128.528 108.995 117.588Q111.509 97.9462 111.508 78.8403Q111.509 58.4145 108.636 38.7424Q106.036 20.9412 95.7465 11.7147Q92.8797 9.14391 89.4159 7.23883Q78.3788 1.16949 62.9702 1.13342L39.2032 1.10657L8.26898 1.12903L7.26996 1.13013L7.25085 1.13019L4.38739 1.13342Q3.44293 1.13464 1.50122 1.33167Q1.2316 1.35902 1 1.38168L1 333.449ZM834.186 278.012C835.487 297.235 836.749 315.876 838.014 334.581L884.897 334.581C884.864 334.248 884.831 333.914 884.798 333.581C873.781 222.302 862.802 111.39 851.811 0.362244L786.732 0.362244C774.518 111.453 762.323 222.368 750.108 333.474C750.072 333.807 750.035 334.14 749.998 334.474L796.737 334.474C798.177 317.095 799.517 300.1 801.092 283.134C801.258 281.341 802.763 278.269 803.715 278.235C811.567 277.953 819.426 277.976 827.439 277.999L827.446 277.999L827.447 277.999C829.681 278.006 831.926 278.012 834.186 278.012ZM795.819 333.474L800.096 283.042Q800.243 281.452 801.221 279.565Q802.4 277.288 803.671 277.235L803.679 277.235Q811.547 276.953 827.446 276.999L827.449 276.999L835.121 277.014L838.642 329.05L838.949 333.581L883.793 333.581L858.733 80.4404L850.905 1.36224L787.628 1.36224L770.159 160.254L751.114 333.474L795.819 333.474ZM1249.2 180.245C1259.81 231.744 1270.42 283.244 1281.02 334.656L1318.31 334.656L1318.31 0.601257L1272.54 0.601257C1272.54 0.934609 1272.55 1.26794 1272.55 1.60126C1273.13 54.8284 1273.7 107.586 1274.27 160.337C1274.28 161.12 1274.29 161.903 1274.3 162.686C1274.11 162.727 1273.93 162.769 1273.75 162.81C1273.74 162.771 1273.73 162.732 1273.72 162.692C1273.66 162.405 1273.61 162.117 1273.55 161.829C1273.46 161.366 1273.37 160.903 1273.28 160.44C1262.69 107.061 1252.11 53.6829 1241.56 0.467346L1205.01 0.467346L1205.01 334.484L1250.47 334.484C1250.46 334.15 1250.46 333.817 1250.45 333.484C1250.33 325.107 1250.29 316.739 1250.29 308.38C1250.29 300.225 1250.33 292.078 1250.37 283.938C1250.41 275.812 1250.45 267.693 1250.45 259.58C1250.45 233.164 1250.02 206.81 1247.82 180.479L1249.2 180.245ZM1249.46 333.484L1249.29 308.377L1249.37 283.935L1249.45 259.58Q1249.45 211.845 1246.82 180.562L1246.74 179.646L1249.98 179.098L1281.83 333.656L1317.31 333.656L1317.31 1.60126L1273.55 1.60126L1275.31 163.486L1274.28 163.716L1272.96 164.012L1272.53 161.83L1240.73 1.46735L1206.01 1.46735L1206.01 333.484L1249.46 333.484ZM675.938 167.1L675.938 334.675L720.741 334.675L720.741 0.51532L675.574 0.51532L675.574 125.01L655.185 125.01L655.185 0.529541L610.241 0.529541L610.241 334.575L655.346 334.575L655.346 166.1L675.938 166.1L675.938 167.1ZM654.346 333.575L654.346 165.1L676.938 165.1L676.938 333.675L719.741 333.675L719.741 1.51532L676.574 1.51532L676.574 126.01L654.185 126.01L654.185 1.52954L611.241 1.52954L611.241 333.575L654.346 333.575ZM1126.51 278.298C1127.76 297.229 1129 315.886 1130.24 334.553L1177.14 334.553C1177.11 334.22 1177.07 333.886 1177.04 333.553C1166.04 222.383 1155.08 111.597 1144.1 0.543152L1078.96 0.543152C1066.74 111.747 1054.56 222.548 1042.37 333.505C1042.34 333.838 1042.3 334.171 1042.26 334.505L1088.96 334.505C1090.57 315.524 1092.16 296.904 1093.74 278.298L1126.51 278.298ZM1088.04 333.505L1092.82 277.298L1127.44 277.298L1131.11 332.614L1131.18 333.553L1176.04 333.553L1156.64 137.475L1143.19 1.54315L1079.85 1.54315L1053.56 240.79L1043.38 333.505L1088.04 333.505ZM304.135 0.760925L304.135 334.205C304.378 334.297 304.591 334.397 304.786 334.488C305.154 334.661 305.454 334.801 305.754 334.8C311.944 334.791 318.136 334.828 324.328 334.866C339.518 334.957 354.709 335.049 369.878 334.451C385.141 333.848 398.954 327.927 408.486 313.177C416.046 301.479 418.856 287.86 418.878 273.597C418.892 264.843 418.907 256.089 418.922 247.335C418.973 217.465 419.025 187.594 419.025 157.724C419.025 125.232 418.964 92.7391 418.776 60.2477C418.649 38.1036 412.643 18.074 393.577 7.78229C385.904 3.63995 376.971 1.06207 368.499 0.624146C353.639 -0.142334 338.744 -0.0320435 323.849 0.0782471C318.2 0.120057 312.551 0.161865 306.904 0.155884C306.268 0.155212 305.632 0.341246 305.003 0.525452C304.712 0.610535 304.423 0.69519 304.135 0.760925ZM305.135 1.52835L305.135 333.548Q305.17 333.564 305.21 333.583Q305.675 333.8 305.757 333.8L324.334 333.866Q354.691 334.049 369.839 333.451Q384.025 332.891 394.288 326.26Q402.105 321.208 407.646 312.634Q417.841 296.857 417.878 273.595L417.922 247.333L417.973 216.79L418.025 157.727L417.776 60.2534Q417.603 30.0339 402.414 15.4229Q398.307 11.4719 393.102 8.66223Q384.624 4.0851 375.612 2.4518Q372.071 1.8101 368.448 1.6228Q353.617 0.857849 323.853 1.07819L306.903 1.15588Q306.411 1.15533 305.284 1.48523Q305.207 1.50763 305.135 1.52835ZM457.027 0.116833C456.694 0.117026 456.361 0.117126 456.027 0.117126L456.027 334.647C457.409 334.745 458.393 334.874 459.379 334.875C464.353 334.878 469.327 334.892 474.302 334.906L474.307 334.906C488.521 334.945 502.737 334.984 516.949 334.772C522.444 334.69 528.031 333.797 533.391 332.369C549.964 327.948 562.064 316.946 566.777 298.004C569.4 287.458 570.75 276.155 570.813 265.18C570.992 233.945 571.045 202.709 571.045 171.473C571.045 148.85 571.017 126.227 570.989 103.605C570.977 93.6524 570.965 83.7003 570.955 73.7482C570.948 66.6547 570.667 59.5392 570.114 52.4742C567.991 25.333 554.777 7.65808 531.397 2.33124C522.269 0.251038 512.69 0.39447 503.307 0.203552C492.34 -0.019165 481.368 0.0282593 470.257 0.0762939C465.871 0.0951991 461.464 0.114263 457.027 0.116833ZM457.027 1.11426L457.027 333.724Q457.204 333.738 457.398 333.755Q458.772 333.875 459.381 333.875L474.302 333.906L474.309 333.906Q502.759 333.984 516.934 333.772Q524.675 333.657 533.133 331.403Q545.626 328.07 553.652 320.19Q562.352 311.648 565.806 297.762Q569.716 282.043 569.813 265.177L570.045 171.473L570.024 133.928L569.989 103.606L569.955 73.7491Q569.951 69.5905 569.822 65.4358Q569.621 58.9893 569.117 52.5522Q567.153 27.4503 553.584 14.6753Q544.807 6.41216 531.175 3.30627Q523.348 1.52258 506.999 1.26715Q504.522 1.22845 503.287 1.20337Q492.332 0.980835 470.259 1.07623L457.027 1.11426ZM196.785 0.443115L152.114 0.443115L152.114 8.84741C152.114 24.8586 152.114 40.8697 152.114 56.8808C152.113 72.892 152.113 88.9031 152.113 104.914C152.113 154.972 152.116 205.03 152.128 255.088L152.128 255.322C152.128 256.003 152.128 256.683 152.127 257.364C152.126 258.046 152.125 258.727 152.125 259.409C152.125 264.119 152.162 268.833 152.484 273.516C154.377 300.97 163.643 323.252 187.079 334.705C207.32 344.597 237.734 341.066 254.435 315.467C263.887 300.978 267.087 284.31 267.099 266.682C267.127 227.553 267.136 188.423 267.136 149.294C267.136 115.396 267.129 81.4974 267.123 47.5992C267.12 33.9334 267.117 20.2677 267.115 6.60199C267.115 4.57782 266.933 2.55273 266.838 0.57605L221.819 0.57605L221.819 9.07068C221.819 23.5966 221.819 38.1224 221.819 52.6483C221.819 67.1743 221.819 81.7001 221.819 96.226C221.819 154.444 221.817 212.663 221.801 270.881C221.799 274.716 221.725 278.576 221.346 282.381C220.691 288.962 216.363 294.013 211.061 294.795C205.772 295.575 201.472 292.922 199.356 286.326C198.127 282.493 197.85 278.092 197.846 273.946C197.792 214.67 197.783 155.395 197.783 96.1194C197.783 81.4493 197.784 66.7794 197.784 52.1093C197.785 37.4392 197.785 22.7691 197.785 8.09894L197.785 0.443115L196.785 0.443115ZM196.785 1.44312L153.114 1.44312L153.114 8.90668L153.114 56.8808L153.114 56.8998L153.113 104.914L153.116 176.676L153.128 255.087L153.128 255.323L153.127 257.365L153.125 259.409Q153.125 268.272 153.482 273.447Q155.852 307.826 174.267 324.807Q180.09 330.176 187.518 333.806Q193.958 336.954 200.743 338.161Q210.913 339.97 221.858 337.421Q230.85 335.327 238.145 330.609Q247.169 324.773 253.597 314.921Q266.079 295.787 266.099 266.682L266.12 231.574L266.136 149.294L266.133 103.153L266.123 47.5993L266.123 47.3809L266.115 6.60199Q266.115 5.2514 265.948 2.53424Q265.915 1.99958 265.891 1.57605L222.819 1.57605L222.819 9.07062L222.819 52.6474L222.819 52.6483L222.819 63.9462L222.819 96.2261L222.801 270.881Q222.798 277.888 222.341 282.48Q221.969 286.221 220.259 289.193Q219.589 290.358 218.713 291.404Q216.579 293.955 213.858 295.065Q212.596 295.58 211.207 295.785Q207.336 296.356 204.484 294.912Q200.396 292.842 198.404 286.631Q196.854 281.796 196.846 273.946L196.786 142.25L196.783 96.1194L196.784 52.1093L196.785 8.09894L196.785 1.44312ZM966.558 1.5379L966.558 296.052L1015.24 296.052L1015.24 333.544L923.567 333.544L923.567 1.5379L966.558 1.5379ZM967.558 1.5379L967.558 295.052L1016.24 295.052L1016.24 334.544L922.567 334.544L922.567 0.537903L967.558 0.537903L967.558 1.5379ZM1356.22 339.319L1356.22 340.319L1361.89 340.319C1366.67 340.319 1371.45 340.327 1376.23 340.335C1388.61 340.357 1401 340.378 1413.38 340.256C1418.74 340.204 1424.17 339.913 1429.43 338.854C1445.74 335.571 1459.27 326.853 1465.28 308.492C1468.61 298.308 1470.62 286.941 1470.69 276.085C1470.93 242.161 1471 208.236 1471 174.31C1471 143.823 1470.94 113.336 1470.88 82.85L1470.85 68.5738C1470.84 62.1014 1470.17 55.5123 1468.96 49.1853C1465.36 30.2746 1456.24 16.116 1439.61 10.2896C1431.86 7.57489 1423.54 6.05133 1415.44 5.75403C1402.46 5.2769 1389.46 5.37712 1376.46 5.47733L1376.46 5.47736C1371.45 5.51599 1366.43 5.55469 1361.42 5.56024C1359.78 5.56122 1358.15 5.72742 1356.22 5.83282L1356.22 339.319ZM1357.22 339.319L1361.89 339.319L1376.23 339.335L1376.23 339.335L1386.09 339.349L1410.71 339.28L1413.37 339.256Q1422.82 339.164 1429.24 337.874Q1445.04 334.694 1454.33 325.167Q1461.01 318.315 1464.33 308.181Q1469.59 292.127 1469.69 276.082L1470 174.311L1469.97 132.103L1469.88 82.8519L1469.85 68.5756Q1469.83 59.1119 1467.98 49.3726Q1463.84 27.6645 1450.74 17.4299Q1445.68 13.475 1439.28 11.2333Q1435.78 10.0069 1432.19 9.11192Q1424.01 7.06912 1415.4 6.75336Q1402.44 6.27704 1376.46 6.47736L1361.42 6.56024Q1360.35 6.56085 1358.09 6.71564Q1357.61 6.74854 1357.22 6.77382L1357.22 339.319ZM500.509 38.5891L500.509 295.057L501.331 295.206Q514.995 297.671 520.58 293.003Q526.396 288.144 526.396 273.323L526.395 273.087L526.302 217.058L526.286 172.791L526.292 132.101L526.299 91.4108L526.291 59.7423Q526.287 54.1496 525.521 50.41Q524.276 44.3248 520.581 41.7336Q518.948 40.5884 516.836 40.1257Q513.386 39.3697 506.295 38.9833Q503.171 38.8132 501.593 38.6803L500.509 38.5891ZM348.813 38.7004L348.813 295.939L349.813 295.939Q351.184 295.939 353.771 295.989L353.772 295.989Q359.037 296.091 361.58 295.881Q366.139 295.505 369.085 293.129Q373.098 289.893 374.12 282.949Q374.553 280.004 374.553 274.174L374.553 273.865L374.553 273.61L374.569 157.837L374.569 157.764L374.561 61.452L374.561 61.2038L374.561 60.9164L374.561 60.6284Q374.561 55.834 374.345 53.3064Q373.734 46.1678 369.847 42.687Q367.727 40.7886 364.632 39.9782Q361.345 39.1171 354.49 38.9517Q351.424 38.8778 349.881 38.7729L348.813 38.7004ZM44.4935 39.9409L44.4935 125.453L45.2533 125.641Q55.2527 128.115 60.843 124.236Q61.4167 123.838 61.944 123.373Q67.5432 118.435 67.5677 106.132L67.57 103.822L67.5238 90.5815L67.5231 90.4507L67.4763 77.0878Q67.4763 67.0944 67.653 59.4485Q67.6656 58.9037 67.6656 58.3732Q67.6656 47.2802 62.1742 42.5134Q62.0586 42.413 61.9405 42.3154Q61.7456 42.1544 61.5446 42.0014Q55.8662 37.6793 45.2985 39.7808L44.4935 39.9409ZM501.509 39.6768L501.509 294.221C518.807 297.343 525.396 292.772 525.396 273.323C525.396 273.245 525.395 273.167 525.395 273.088C525.306 239.656 525.286 206.224 525.286 172.791C525.286 159.228 525.289 145.665 525.292 132.101C525.296 118.538 525.299 104.974 525.299 91.4106C525.299 80.8546 525.297 70.2986 525.291 59.7426C525.289 56.6926 525.146 53.5627 524.542 50.6106C523.558 45.8024 520.853 42.0296 516.622 41.1025C512.078 40.1069 507.368 40.1104 502.509 39.7552C502.176 39.7309 501.843 39.7049 501.509 39.6768ZM349.813 40.7729L349.813 39.7706C350.147 39.7933 350.48 39.8129 350.813 39.8299C352.04 39.8929 353.258 39.9223 354.466 39.9515C357.88 40.0338 361.205 40.114 364.379 40.9456C369.714 42.3428 372.801 46.9952 373.349 53.3916C373.554 55.7882 373.561 58.2125 373.561 60.6284L373.561 60.9163L373.561 61.2039L373.561 61.4521C373.566 93.5561 373.569 125.66 373.569 157.764C373.569 196.38 373.565 234.995 373.553 273.609L373.553 273.865L373.553 274.174C373.553 277.059 373.546 279.979 373.13 282.803C372.074 289.977 367.871 294.358 361.497 294.884C359.005 295.09 356.496 295.042 353.791 294.99C352.515 294.965 351.195 294.939 349.813 294.939L349.813 40.7729ZM45.4935 124.67L45.4935 40.7617C59.4239 37.9914 66.6656 43.8604 66.6656 58.3732C66.6656 58.719 66.6615 59.0698 66.6533 59.4254C66.5173 65.3118 66.4763 71.201 66.4763 77.0913C66.4763 81.5458 66.4998 86.0009 66.5232 90.456C66.5466 94.9111 66.57 99.3663 66.57 103.821C66.57 104.59 66.5693 105.36 66.5677 106.13C66.5362 121.917 59.53 128.144 45.4935 124.67ZM1400.82 44.376L1400.82 300.518L1401.65 300.664Q1414.81 303.001 1420.44 298.82Q1426.65 294.219 1426.65 280.139Q1426.65 279.292 1426.63 278.411Q1426.62 277.785 1426.62 276.982L1426.62 275.836L1426.62 275.696L1426.63 274.403L1426.63 157.956L1426.63 145.949L1426.63 134.134L1426.63 110.312L1426.6 65.7234L1426.6 65.4517Q1426.59 59.2985 1425.95 56.3745Q1425.15 52.6769 1423.04 50.0041Q1422.29 49.0506 1421.37 48.2275Q1419.91 46.9103 1418.21 46.0498Q1416.33 45.0993 1414.17 44.7061Q1411.76 44.2664 1406.89 44.4417Q1403.54 44.5621 1401.89 44.449L1400.82 44.376ZM1425.65 280.139C1425.65 298.865 1418.12 302.574 1401.82 299.68L1401.82 45.4467C1402.16 45.4694 1402.49 45.4854 1402.82 45.496C1404.19 45.5393 1405.56 45.49 1406.93 45.441C1411.71 45.2687 1416.4 45.1003 1420.71 48.9716C1425.57 53.344 1425.59 59.413 1425.6 65.4535L1425.6 65.7242C1425.63 80.5869 1425.63 95.4495 1425.63 110.312C1425.63 118.253 1425.63 126.193 1425.63 134.134C1425.63 142.075 1425.63 150.016 1425.63 157.956L1425.63 274.398C1425.63 274.829 1425.62 275.26 1425.62 275.69C1425.62 276.121 1425.62 276.552 1425.62 276.982C1425.62 277.466 1425.62 277.95 1425.63 278.433C1425.64 279.015 1425.65 279.584 1425.65 280.139ZM1095.57 239.509L1124.85 239.509L1124.78 238.446L1113.01 53.6754L1112.94 52.5738L1110.66 52.8883L1095.57 239.509ZM803.317 239.553L832.586 239.553L820.679 52.7203L819.251 52.8281L818.376 52.8901L818.269 54.2076L803.317 239.553ZM1123.72 237.509C1119.89 177.369 1116.08 117.567 1112.27 57.7724C1112.21 56.7523 1112.14 55.7322 1112.08 54.7121C1112.06 54.4094 1112.04 54.1066 1112.02 53.8039C1112.02 53.7731 1112.01 53.7423 1112.01 53.7114C1111.87 53.7314 1111.73 53.7504 1111.59 53.7694C1111.48 55.101 1111.38 56.4326 1111.27 57.7642C1106.43 117.539 1101.6 177.324 1096.73 237.509C1096.71 237.842 1096.68 238.176 1096.65 238.509L1123.78 238.509C1123.76 238.176 1123.74 237.842 1123.72 237.509ZM805.404 238.553L804.401 238.553C804.428 238.22 804.455 237.887 804.482 237.553C809.338 177.365 814.165 117.526 818.992 57.693C819.096 56.4043 819.2 55.1156 819.303 53.8268C819.451 53.8164 819.599 53.8051 819.745 53.7936L819.75 53.8629L819.809 54.7917L819.994 57.7011L831.456 237.553L831.52 238.553L805.404 238.553ZM44.6812 164.7L44.6812 295.733L45.6286 295.783Q46.2588 295.816 47.4019 295.888Q49.5306 296.023 50.5483 296.033Q62.9611 296.152 66.8877 291.699Q70.7612 287.307 70.7625 273.261L70.7643 242.46L70.7625 211.659L70.7625 211.581L70.787 203.326L70.7903 202.615L70.8182 193.643Q70.8182 186.526 70.6991 181.126Q70.5041 172.285 65.9981 168.202Q62.4009 164.942 56.0565 164.715Q53.764 164.633 49.0913 164.674L44.6812 164.7ZM45.6812 294.784L45.6812 165.695C46.8509 165.695 47.9871 165.684 49.1002 165.674C51.4781 165.653 53.7507 165.633 56.0207 165.714C64.5304 166.019 69.4852 171.431 69.6993 181.148C69.7911 185.31 69.8182 189.475 69.8182 193.64C69.8182 196.63 69.8043 199.62 69.7903 202.61C69.7764 205.601 69.7625 208.591 69.7625 211.581L69.7625 211.659Q69.7643 227.06 69.7643 242.46Q69.7643 257.861 69.7625 273.261C69.7608 291.484 66.4997 295.186 50.5579 295.033C49.0668 295.019 47.5765 294.884 45.6812 294.784Z" clip-rule="evenodd" fill="#FFFFFF" fill-opacity="1.000000" fill-rule="evenodd"/>
	</g>
</svg>
