<svg width="212.712341" height="50.000000" viewBox="0 0 212.712 50" fill="none" xmlns="http://www.w3.org/2000/svg" xmlns:xlink="http://www.w3.org/1999/xlink">
	
	<defs/>
	<path id="path2" d="M13.08 15.09L13.08 26.59L25.38 26.59L25.38 38.9L13.08 38.9L13.08 26.59L1.4 26.59L1.4 50L25.25 50L36.29 38.79L36.29 15.09L13.08 15.09Z" fill="#FFFFFF" fill-opacity="1.000000" fill-rule="nonzero"/>
	<path id="path3" d="M13.23 6.62C13.23 10.27 10.27 13.24 6.61 13.24C2.96 13.24 0 10.27 0 6.62C0 2.96 2.96 0 6.61 0C10.27 0 13.23 2.96 13.23 6.62Z" fill="#AD954F" fill-opacity="1.000000" fill-rule="nonzero"/>
	<path id="Union" d="M76.6884 14L81.3987 14L81.3987 14.7896C81.3987 16.3027 81.3987 17.8159 81.3986 19.3291C81.3986 20.8423 81.3985 22.3555 81.3985 23.8687C81.3985 29.9818 81.3994 36.0948 81.405 42.2079C81.4054 42.6355 81.434 43.0894 81.5607 43.4846C81.7789 44.165 82.2224 44.4386 82.7679 44.3582C83.3148 44.2775 83.7611 43.7566 83.8287 43.0778C83.8677 42.6854 83.8754 42.2873 83.8756 41.8917C83.8772 35.8897 83.8774 29.8877 83.8774 23.8857C83.8774 22.3864 83.8774 20.8871 83.8774 19.3877C83.8774 17.8884 83.8774 16.3892 83.8774 14.8898L83.8774 14.0137L88.5205 14.0137C88.5303 14.2175 88.5491 14.4264 88.5491 14.6353C88.5493 16.0472 88.5496 17.4594 88.5499 18.8715C88.5505 22.3657 88.5512 25.8599 88.5512 29.3541C88.5512 33.389 88.5503 37.4239 88.5475 41.4587C88.5462 43.2767 88.2161 44.9958 87.2413 46.4902C85.5188 49.1303 82.3821 49.4945 80.2945 48.4742C77.8775 47.2931 76.9218 44.9951 76.7266 42.1635C76.6933 41.6805 76.6896 41.1944 76.6896 40.7086C76.6896 40.6383 76.6896 40.568 76.6897 40.4977C76.6898 40.4274 76.6899 40.3572 76.6899 40.2869L76.6899 40.2629C76.6885 35.1 76.6883 29.937 76.6883 24.7741C76.6883 23.1229 76.6884 21.4717 76.6884 19.8204C76.6884 18.1692 76.6884 16.5179 76.6884 14.8668L76.6884 14ZM152.264 48.6907L147.429 48.6907C147.298 46.7616 147.168 44.8389 147.034 42.8564C146.801 42.8564 146.569 42.8558 146.339 42.8551C145.512 42.8527 144.702 42.8503 143.892 42.8793C143.793 42.8829 143.638 43.1998 143.621 43.3846C143.458 45.1345 143.32 46.8873 143.172 48.6796L138.351 48.6796C139.615 37.1862 140.876 25.7126 142.14 14.2208L148.852 14.2208C149.989 25.7061 151.125 37.1792 152.264 48.6907ZM196.964 48.6907L193.118 48.6907C192.026 43.3883 190.931 38.0768 189.836 32.7654L189.694 32.7896C189.922 35.5052 189.965 38.2233 189.965 40.9477C189.965 41.7845 189.961 42.6218 189.957 43.46C189.953 44.2995 189.949 45.1397 189.949 45.9808C189.949 46.8772 189.953 47.7745 189.968 48.673L185.279 48.673L185.279 14.224L189.048 14.224C190.153 19.7937 191.261 25.3806 192.368 30.9673C192.387 30.963 192.406 30.9587 192.426 30.9545C192.365 25.3992 192.305 19.8439 192.244 14.2378L196.964 14.2378L196.964 48.6907ZM135.334 48.6907L130.713 48.6907L130.713 31.3046L128.589 31.3046L128.589 48.6803L123.938 48.6803L123.938 14.2284L128.573 14.2284L128.573 27.0668L130.676 27.0668L130.676 14.2269L135.334 14.2269L135.334 48.6907ZM178.997 14.2424C180.134 25.7303 181.267 37.1905 182.405 48.6907L177.568 48.6907L177.183 42.8887L173.803 42.8887C173.64 44.8078 173.477 46.7281 173.311 48.6857L168.494 48.6857C169.755 37.2076 171.015 25.7459 172.279 14.2424L178.997 14.2424ZM160.79 44.6176L165.81 44.6176L165.81 48.6907L156.149 48.6907L156.149 14.2428L160.79 14.2428L160.79 44.6176ZM200.875 48.7904L200.875 14.2931C201.073 14.2822 201.242 14.265 201.411 14.265C201.928 14.2644 202.445 14.2604 202.962 14.2565C204.302 14.2461 205.643 14.2357 206.982 14.2849C207.818 14.3156 208.675 14.4728 209.475 14.7527C211.19 15.3536 212.13 16.8138 212.502 18.7643C212.626 19.4167 212.696 20.0963 212.697 20.7639L212.7 22.2327C212.706 25.3779 212.712 28.5231 212.712 31.6683C212.712 35.1675 212.705 38.6667 212.681 42.1657C212.673 43.2853 212.466 44.4576 212.123 45.5079C211.502 47.4017 210.108 48.3008 208.425 48.6393C207.882 48.7486 207.322 48.7786 206.77 48.7839C205.493 48.7965 204.216 48.7943 202.939 48.7921L202.938 48.7921C202.445 48.7913 201.952 48.7904 201.459 48.7904L200.875 48.7904ZM92.3671 48.7188L92.3671 14.3289C92.3967 14.3221 92.4266 14.3134 92.4566 14.3046C92.5215 14.2856 92.5871 14.2664 92.6526 14.2665C93.2351 14.2671 93.8177 14.2628 94.4003 14.2584C95.9365 14.2471 97.4727 14.2357 99.0054 14.3148C99.8791 14.36 100.8 14.6259 101.592 15.053C103.558 16.1145 104.178 18.1802 104.191 20.4641C104.21 23.8149 104.216 27.1659 104.216 30.517C104.216 33.5977 104.211 36.6785 104.206 39.7592C104.204 40.6622 104.203 41.5651 104.201 42.468C104.199 43.939 103.909 45.3436 103.129 46.55C102.146 48.0713 100.722 48.682 99.1476 48.7441C97.5831 48.8058 96.0164 48.7964 94.4497 48.7869C93.8111 48.7831 93.1725 48.7792 92.5341 48.7802C92.5031 48.7802 92.4722 48.7657 92.4343 48.748C92.4142 48.7386 92.3922 48.7283 92.3671 48.7188ZM108.033 14.2621C108.525 14.2621 109.014 14.2599 109.5 14.2578C110.646 14.2528 111.778 14.2479 112.909 14.271C113.877 14.2906 114.864 14.2759 115.806 14.4904C118.217 15.0398 119.58 16.8627 119.799 19.6619C119.856 20.3905 119.885 21.1244 119.886 21.856C119.887 22.8826 119.888 23.9092 119.889 24.9358C119.892 27.2689 119.895 29.6021 119.895 31.9351C119.895 35.1566 119.89 38.3781 119.871 41.5994C119.865 42.7313 119.725 43.897 119.455 44.9847C118.969 46.9383 117.721 48.0731 116.012 48.5289C115.459 48.6763 114.882 48.7684 114.316 48.7768C112.85 48.7987 111.384 48.7947 109.918 48.7906L109.917 48.7906C109.404 48.7892 108.891 48.7878 108.378 48.7875C108.277 48.7874 108.175 48.774 108.033 48.764L108.033 14.2621ZM70.4811 29.269C72.3655 30.4111 72.8292 32.3197 72.864 34.4182C72.8862 35.7524 72.8954 37.0872 72.8954 38.4221C72.8954 39.942 72.8835 41.4622 72.8656 42.9818C72.8497 44.3344 72.6367 45.6645 71.9844 46.8363C71.2332 48.1857 70.0258 48.6962 68.739 48.7434C66.9276 48.8098 65.114 48.7963 63.2854 48.7826C62.5265 48.7769 61.765 48.7712 61 48.7712L61 14.3265C61.1512 14.3145 61.3018 14.2921 61.4523 14.2919C61.5511 14.2917 61.65 14.2916 61.7488 14.2916C63.6641 14.2894 65.5793 14.2872 67.4946 14.2919C68.4565 14.2942 69.3961 14.4529 70.2717 14.9343C71.491 15.605 72.098 16.8333 72.3063 18.2589C72.5075 19.6373 72.6036 21.0228 72.6036 22.4094C72.6036 23.7469 72.5142 25.0852 72.3436 26.4188C72.1837 27.668 71.5905 28.6578 70.4811 29.269ZM112.723 18.342L112.723 44.5946C114.507 44.9165 115.187 44.4451 115.187 42.4393L115.187 42.415C115.178 38.9664 115.176 35.5178 115.176 32.0692C115.176 30.6708 115.176 29.2724 115.176 27.874C115.177 26.4756 115.177 25.0773 115.177 23.679C115.177 22.5898 115.177 21.5006 115.176 20.4115C115.176 20.0969 115.161 19.7742 115.099 19.4697C114.997 18.9738 114.718 18.5847 114.282 18.4891C113.781 18.3794 113.261 18.3873 112.723 18.342ZM97.0781 44.6691C97.2207 44.6691 97.3568 44.6718 97.4885 44.6743C97.7674 44.6797 98.0261 44.6846 98.2832 44.6635C98.9406 44.6091 99.374 44.1573 99.483 43.4174C99.5259 43.1258 99.5266 42.8242 99.5266 42.5262L99.5266 42.497L99.5266 42.4692C99.5278 38.4878 99.5283 34.5063 99.5283 30.5248C99.5283 27.2126 99.5279 23.9005 99.5274 20.5883L99.5274 20.5631L99.5274 20.5331L99.5274 20.5029C99.5274 20.2539 99.5266 20.004 99.5055 19.757C99.449 19.0973 99.1306 18.6174 98.5804 18.4734C98.253 18.3876 97.9101 18.3793 97.558 18.3708C97.3997 18.3669 97.2396 18.3632 97.0781 18.3522L97.0781 44.6691ZM205.578 44.5991C207.259 44.8976 208.035 44.515 208.035 42.5837C208.035 42.5265 208.034 42.4679 208.033 42.4078C208.032 42.358 208.032 42.3082 208.032 42.2583C208.032 42.2139 208.032 42.1694 208.032 42.125C208.032 42.0806 208.033 42.0361 208.033 41.9917L208.033 29.9824C208.033 29.1644 208.033 28.3463 208.033 27.5283C208.033 26.7103 208.034 25.8923 208.034 25.0742C208.034 23.5395 208.033 22.0048 208.03 20.47L208.03 20.442C208.029 19.8191 208.027 19.1931 207.525 18.7422C207.081 18.3429 206.598 18.3604 206.104 18.3781C205.93 18.3844 205.754 18.3907 205.578 18.3787L205.578 44.5991ZM65.692 18.4822L65.692 27.136C67.1396 27.4943 67.8622 26.8522 67.8655 25.2239C67.8657 25.1445 67.8657 25.0651 67.8657 24.9858C67.8657 24.5263 67.8633 24.0668 67.8609 23.6074C67.8585 23.1479 67.8561 22.6884 67.8561 22.229C67.8561 21.6215 67.8603 21.0142 67.8743 20.407C67.8752 20.3704 67.8756 20.3341 67.8756 20.2985C67.8756 18.8018 67.1287 18.1964 65.692 18.4822ZM176.902 38.7852C176.495 32.4074 176.092 26.0667 175.688 19.726C175.673 19.728 175.659 19.73 175.644 19.7319C175.132 26.0684 174.62 32.4048 174.104 38.7852L176.902 38.7852ZM143.962 38.7868L146.759 38.7868L145.545 19.7316C145.53 19.7327 145.514 19.7339 145.499 19.735C144.988 26.0729 144.477 32.4108 143.962 38.7868ZM65.7114 31.3671L65.7114 44.6808C65.9068 44.6911 66.0605 44.705 66.2143 44.7065C67.8585 44.7223 68.1948 44.3405 68.195 42.4611Q68.1952 40.8727 68.1952 39.2844Q68.1952 37.696 68.195 36.1077L68.195 36.0996C68.195 35.7913 68.1964 35.4828 68.1979 35.1744C68.1993 34.866 68.2007 34.5576 68.2007 34.2493C68.2007 33.8197 68.1979 33.3902 68.1885 32.9609C68.1664 31.9587 67.6554 31.4006 66.7777 31.3692C66.5436 31.3608 66.3093 31.3629 66.0641 31.3651L66.064 31.3651C65.9492 31.3661 65.832 31.3671 65.7114 31.3671Z" clip-rule="evenodd" fill="#FFFFFF" fill-opacity="1.000000" fill-rule="evenodd"/>
</svg>
