<svg width="32.000000" height="32.000000" viewBox="0 0 32 32" fill="none" xmlns="http://www.w3.org/2000/svg" xmlns:xlink="http://www.w3.org/1999/xlink">
	
	<defs>
		<clipPath id="clip383_465">
			<rect id="fi_10883735" rx="0.000000" width="31.000000" height="31.000000" transform="translate(0.500000 0.500000)" fill="white" fill-opacity="0"/>
		</clipPath>
	</defs>
	<rect id="fi_10883735" rx="0.000000" width="31.000000" height="31.000000" transform="translate(0.500000 0.500000)" fill="#FFFFFF" fill-opacity="0"/>
	<g clip-path="url(#clip383_465)">
		<path id="Vector" d="M26 4L23 4L23 3C23 2.73 22.89 2.48 22.7 2.29C22.51 2.1 22.26 2 22 2C21.73 2 21.48 2.1 21.29 2.29C21.1 2.48 21 2.73 21 3L21 4L11 4L11 3C11 2.73 10.89 2.48 10.7 2.29C10.51 2.1 10.26 2 10 2C9.73 2 9.48 2.1 9.29 2.29C9.1 2.48 9 2.73 9 3L9 4L6 4C5.46 4 4.96 4.21 4.58 4.58C4.21 4.96 4 5.46 4 6L4 26C4 26.53 4.21 27.03 4.58 27.41C4.96 27.78 5.46 28 6 28L26 28C26.53 28 27.03 27.78 27.41 27.41C27.78 27.03 28 26.53 28 26L28 6C28 5.46 27.78 4.96 27.41 4.58C27.03 4.21 26.53 4 26 4ZM21.18 16.72L15.35 22.22C15.25 22.31 15.15 22.38 15.03 22.43C14.91 22.47 14.78 22.5 14.66 22.5C14.4 22.5 14.15 22.4 13.97 22.22L10.81 19.22C10.71 19.13 10.62 19.02 10.56 18.9C10.51 18.78 10.47 18.65 10.47 18.51C10.46 18.38 10.48 18.24 10.53 18.12C10.57 17.99 10.65 17.88 10.74 17.78C10.83 17.68 10.94 17.6 11.07 17.55C11.19 17.5 11.32 17.47 11.46 17.47C11.59 17.47 11.73 17.49 11.85 17.54C11.98 17.6 12.09 17.67 12.18 17.77L14.66 20.12L19.81 15.27C19.9 15.18 20.01 15.11 20.14 15.06C20.26 15.01 20.39 14.99 20.52 14.99C20.65 14.99 20.78 15.02 20.9 15.08C21.02 15.13 21.13 15.21 21.22 15.31C21.4 15.5 21.5 15.76 21.49 16.02C21.49 16.29 21.37 16.54 21.18 16.72ZM26 10L6 10L6 6L9 6L9 7C9 7.26 9.1 7.51 9.29 7.7C9.48 7.89 9.73 8 10 8C10.26 8 10.51 7.89 10.7 7.7C10.89 7.51 11 7.26 11 7L11 6L21 6L21 7C21 7.26 21.1 7.51 21.29 7.7C21.48 7.89 21.73 8 22 8C22.26 8 22.51 7.89 22.7 7.7C22.89 7.51 23 7.26 23 7L23 6L26 6L26 10Z" fill="#FFFFFF" fill-opacity="1.000000" fill-rule="nonzero"/>
	</g>
</svg>
