<svg width="70.000000" height="70.000000" viewBox="0 0 70 70" fill="none" xmlns="http://www.w3.org/2000/svg" xmlns:xlink="http://www.w3.org/1999/xlink">
	
	<defs>
		<clipPath id="clip9_188">
			<rect id="fi_10108365" rx="0.000000" width="69.000000" height="69.000000" transform="translate(0.500000 0.500000)" fill="white" fill-opacity="0"/>
		</clipPath>
	</defs>
	<rect id="fi_10108365" rx="0.000000" width="69.000000" height="69.000000" transform="translate(0.500000 0.500000)" fill="#FFFFFF" fill-opacity="0"/>
	<g clip-path="url(#clip9_188)">
		<path id="Vector" d="M35 10.77C25.09 10.77 17.03 18.83 17.03 28.73C17.03 33.38 18.44 35.8 19.94 38.36C21.56 41.13 23.4 44.28 23.83 51.39L23.83 54.1C23.83 55.83 24.98 57.3 26.57 57.77L26.57 59.58C26.57 61.34 27.76 62.83 29.38 63.28L29.38 65.07C29.38 67.18 31.1 68.9 33.22 68.9L36.77 68.9C38.89 68.9 40.61 67.18 40.61 65.07L40.61 63.28C42.23 62.83 43.42 61.34 43.42 59.58L43.42 57.77C45.01 57.3 46.16 55.83 46.16 54.1L46.16 51.39C46.59 44.28 48.43 41.13 50.05 38.36C51.55 35.8 52.96 33.39 52.96 28.73C52.96 18.83 44.9 10.77 35 10.77ZM39.33 24.4L39.33 33.07L36.09 33.07L36.09 24.4L39.33 24.4ZM26.27 34.09C25.71 33.17 25.29 32.16 25.04 31.11C24.96 30.76 24.7 30.47 24.37 30.34L22.88 29.77L22.88 27.7L24.37 27.12C24.7 26.99 24.96 26.71 25.04 26.36C25.29 25.3 25.71 24.3 26.27 23.38C26.46 23.07 26.49 22.69 26.34 22.36L25.7 20.9L27.16 19.43L28.62 20.08C28.95 20.23 29.33 20.2 29.64 20.01C30.56 19.44 31.57 19.03 32.62 18.78C32.97 18.69 33.26 18.44 33.39 18.11L33.9 16.77L33.9 21.49C30.38 22.02 27.67 25.06 27.67 28.73C27.67 32.4 30.38 35.45 33.9 35.98L33.9 40.7L33.39 39.36C33.26 39.02 32.97 38.77 32.62 38.69C31.57 38.44 30.56 38.02 29.64 37.45C29.33 37.26 28.95 37.24 28.62 37.38L27.16 38.03L25.7 36.57L26.34 35.11C26.49 34.78 26.46 34.4 26.27 34.09ZM33.9 33.76C31.59 33.25 29.85 31.19 29.85 28.73C29.85 26.27 31.59 24.21 33.9 23.71L33.9 33.76ZM19.22 28.73C19.22 20.4 25.71 13.56 33.9 12.99L33.9 14.43L33.21 14.43C32.75 14.43 32.35 14.71 32.19 15.13L31.55 16.8C30.66 17.05 29.81 17.41 29 17.85L27.36 17.13C26.95 16.95 26.47 17.03 26.15 17.36L23.62 19.88C23.3 20.2 23.21 20.69 23.39 21.1L24.12 22.73C23.67 23.54 23.32 24.4 23.06 25.28L21.39 25.92C20.97 26.09 20.69 26.49 20.69 26.95L20.69 30.52C20.69 30.97 20.97 31.38 21.39 31.54L23.06 32.18C23.32 33.07 23.67 33.92 24.12 34.73L23.39 36.36C23.21 36.78 23.3 37.26 23.62 37.58L26.15 40.11C26.47 40.43 26.95 40.52 27.36 40.34L29 39.61C29.81 40.06 30.66 40.41 31.55 40.67L32.19 42.33C32.35 42.76 32.75 43.04 33.21 43.04L33.9 43.04L33.9 50.26L25.94 50.26C25.38 43.33 23.5 40.11 21.83 37.25C20.37 34.76 19.22 32.79 19.22 28.73ZM36.77 66.71L33.22 66.71C32.31 66.71 31.57 65.97 31.57 65.07L31.57 63.42L38.42 63.42L38.42 65.07C38.42 65.97 37.68 66.71 36.77 66.71ZM39.59 61.23L30.4 61.23C29.5 61.23 28.76 60.49 28.76 59.58L28.76 57.93L41.23 57.93L41.23 59.58C41.23 60.49 40.49 61.23 39.59 61.23ZM42.33 55.75L27.66 55.75C26.75 55.75 26.01 55.01 26.01 54.1L26.01 52.45L43.98 52.45L43.98 54.1C43.98 55.01 43.24 55.75 42.33 55.75ZM48.16 37.25C46.49 40.11 44.61 43.33 44.05 50.26L36.09 50.26L36.09 35.26L36.76 35.26L36.76 38.24C36.76 38.84 37.25 39.33 37.86 39.33L40.42 39.33C40.87 40.5 41.99 41.33 43.31 41.33C45.02 41.33 46.41 39.94 46.41 38.24C46.41 36.53 45.02 35.15 43.31 35.15C41.99 35.15 40.87 35.98 40.42 37.15L38.95 37.15L38.95 35.26L39.51 35.26C40.62 35.26 41.52 34.36 41.52 33.25L41.52 29.83L42.99 29.83C43.44 30.99 44.56 31.83 45.88 31.83C47.59 31.83 48.98 30.44 48.98 28.73C48.98 27.03 47.59 25.64 45.88 25.64C44.56 25.64 43.44 26.47 42.99 27.64L41.52 27.64L41.52 24.22C41.52 23.11 40.62 22.21 39.51 22.21L38.95 22.21L38.95 20.32L40.42 20.32C40.87 21.49 41.99 22.32 43.31 22.32C45.02 22.32 46.41 20.93 46.41 19.23C46.41 17.52 45.02 16.14 43.31 16.14C41.99 16.14 40.87 16.97 40.42 18.13L37.86 18.13C37.25 18.13 36.76 18.62 36.76 19.23L36.76 22.21L36.09 22.21L36.09 12.99C44.28 13.56 50.77 20.4 50.77 28.73C50.77 32.79 49.62 34.76 48.16 37.25ZM42.41 38.24C42.41 37.74 42.82 37.33 43.31 37.33C43.81 37.33 44.22 37.74 44.22 38.24C44.22 38.74 43.81 39.14 43.31 39.14C42.82 39.14 42.41 38.74 42.41 38.24ZM44.98 28.73C44.98 28.23 45.39 27.83 45.88 27.83C46.38 27.83 46.79 28.23 46.79 28.73C46.79 29.23 46.38 29.64 45.88 29.64C45.39 29.64 44.98 29.23 44.98 28.73ZM42.41 19.23C42.41 18.73 42.82 18.32 43.31 18.32C43.81 18.32 44.22 18.73 44.22 19.23C44.22 19.73 43.81 20.13 43.31 20.13C42.82 20.13 42.41 19.73 42.41 19.23ZM33.9 6.16L33.9 2.18C33.9 1.58 34.39 1.09 35 1.09C35.6 1.09 36.09 1.58 36.09 2.18L36.09 6.16C36.09 6.76 35.6 7.25 35 7.25C34.39 7.25 33.9 6.76 33.9 6.16ZM19.34 6.67C19.03 6.15 19.21 5.48 19.74 5.18C20.26 4.88 20.93 5.05 21.23 5.58L23.22 9.02C23.52 9.54 23.34 10.21 22.82 10.51C22.64 10.61 22.46 10.66 22.27 10.66C21.89 10.66 21.52 10.46 21.32 10.11L19.34 6.67ZM13.9 19.43C13.7 19.78 13.33 19.98 12.95 19.98C12.77 19.98 12.58 19.93 12.41 19.83L8.96 17.84C8.44 17.54 8.26 16.87 8.56 16.35C8.87 15.83 9.54 15.65 10.06 15.95L13.5 17.94C14.02 18.24 14.2 18.91 13.9 19.43ZM9.54 32.7L5.57 32.7C4.97 32.7 4.48 32.21 4.48 31.61C4.48 31 4.97 30.51 5.57 30.51L9.54 30.51C10.15 30.51 10.64 31 10.64 31.61C10.64 32.21 10.15 32.7 9.54 32.7ZM13.9 43.79C14.2 44.31 14.02 44.98 13.5 45.28L10.06 47.27C9.89 47.37 9.7 47.42 9.51 47.42C9.13 47.42 8.77 47.22 8.56 46.87C8.26 46.35 8.44 45.68 8.96 45.37L12.41 43.39C12.93 43.08 13.6 43.26 13.9 43.79ZM46.77 9.02L48.76 5.58C49.06 5.05 49.73 4.88 50.25 5.18C50.78 5.48 50.96 6.15 50.66 6.67L48.67 10.11C48.47 10.46 48.1 10.66 47.72 10.66C47.53 10.66 47.35 10.61 47.17 10.51C46.65 10.21 46.47 9.54 46.77 9.02ZM56.09 19.43C55.79 18.91 55.97 18.24 56.49 17.94L59.93 15.95C60.46 15.65 61.12 15.83 61.43 16.35C61.73 16.87 61.55 17.54 61.03 17.84L57.58 19.83C57.41 19.93 57.22 19.98 57.04 19.98C56.66 19.98 56.29 19.78 56.09 19.43ZM65.51 31.61C65.51 32.21 65.02 32.7 64.42 32.7L60.45 32.7C59.84 32.7 59.35 32.21 59.35 31.61C59.35 31 59.84 30.51 60.45 30.51L64.42 30.51C65.02 30.51 65.51 31 65.51 31.61ZM61.43 46.87C61.22 47.22 60.86 47.42 60.48 47.42C60.29 47.42 60.1 47.37 59.93 47.27L56.49 45.28C55.97 44.98 55.79 44.31 56.09 43.79C56.39 43.26 57.06 43.08 57.58 43.39L61.03 45.37C61.55 45.68 61.73 46.35 61.43 46.87Z" fill="#FFFFFF" fill-opacity="1.000000" fill-rule="nonzero"/>
	</g>
</svg>
