<svg width="263.517822" height="363.056396" viewBox="0 0 263.518 363.056" fill="none" xmlns="http://www.w3.org/2000/svg" xmlns:xlink="http://www.w3.org/1999/xlink">
	
	<defs/>
	<mask id="mask_385_673" fill="white">
		<path id="Union" d="M48.0518 96.1493C74.5901 96.1493 96.1038 74.6257 96.1038 48.0748C96.1038 21.5238 74.5901 0 48.0518 0C21.5137 0 0 21.5238 0 48.0748C0 74.6257 21.5137 96.1493 48.0518 96.1493ZM95.01 109.6L95.01 193.144L10.1807 193.144L10.1807 363.056L183.392 363.056L263.518 281.715L263.518 109.6L95.01 109.6ZM95.01 193.144L95.01 282.501L184.324 282.501L184.324 193.144L95.01 193.144Z" clip-rule="evenodd" fill="" fill-opacity="1.000000" fill-rule="evenodd"/>
	</mask>
	<path id="Union" d="M96.1038 48.0748C96.1038 74.6257 74.5901 96.1493 48.0518 96.1493C21.5137 96.1493 0 74.6257 0 48.0748C0 21.5238 21.5137 0 48.0518 0C74.5901 0 96.1038 21.5238 96.1038 48.0748ZM66.1012 91.7078Q57.7889 95.1493 48.0518 95.1493Q38.3154 95.1493 30.0037 91.7083Q21.6777 88.2614 14.7812 81.3617Q7.89629 74.4734 4.45098 66.1597Q1 57.8323 1 48.0748Q1 38.3172 4.451 29.9897Q7.89631 21.676 14.7812 14.7877Q21.6778 7.88789 30.0039 4.44096Q38.3156 1 48.0518 1Q57.7879 1 66.0996 4.44096Q74.4257 7.88789 81.3223 14.7877Q88.2071 21.6759 91.6525 29.9894Q95.1036 38.317 95.1038 48.0748Q95.1036 57.8321 91.6527 66.1593Q88.2074 74.4733 81.3223 81.3617Q74.4264 88.2609 66.1012 91.7078ZM94.01 193.144L10.1807 193.144L10.1807 363.056L183.392 363.056L263.518 281.715L263.518 109.6L95.01 109.6L95.01 193.144L94.01 193.144ZM96.01 193.144L95.01 193.144L95.01 282.501L184.324 282.501L184.324 193.144L96.01 193.144ZM96.01 192.144L185.324 192.144L185.324 283.501L94.01 283.501L94.01 194.144L11.1807 194.144L11.1807 362.056L182.973 362.056L262.518 281.305L262.518 110.6L96.01 110.6L96.01 192.144Z" clip-rule="evenodd" fill="#FFFFFF" fill-opacity="0.100000" fill-rule="evenodd"/>
</svg>
