<svg width="190.000000" height="190.000000" viewBox="0 0 190 190" fill="none" xmlns="http://www.w3.org/2000/svg" xmlns:xlink="http://www.w3.org/1999/xlink">
	
	<defs>
		<clipPath id="clip385_532">
			<rect id="fi_5966337" rx="0.000000" width="189.000000" height="189.000000" transform="translate(0.500000 0.500000)" fill="white" fill-opacity="0"/>
		</clipPath>
	</defs>
	<rect id="fi_5966337" rx="0.000000" width="189.000000" height="189.000000" transform="translate(0.500000 0.500000)" fill="#FFFFFF" fill-opacity="0"/>
	<g clip-path="url(#clip385_532)">
		<path id="Vector" d="M175.15 187.03L127.65 187.03L127.65 163.28L175.15 163.28C181.71 163.28 187.03 168.59 187.03 175.15C187.03 181.71 181.71 187.03 175.15 187.03Z" fill="#AD954F" fill-opacity="1.000000" fill-rule="nonzero"/>
		<path id="Vector" d="M44.53 71.25L53.43 47.5L62.34 71.25L44.53 71.25Z" fill="#AD954F" fill-opacity="1.000000" fill-rule="nonzero"/>
		<path id="Vector" d="M62.34 71.25L71.25 47.5L80.15 71.25L62.34 71.25Z" fill="#AD954F" fill-opacity="1.000000" fill-rule="nonzero"/>
		<path id="Vector" d="M121.71 145.46L139.53 109.84L160.31 145.46L121.71 145.46Z" fill="#AD954F" fill-opacity="1.000000" fill-rule="nonzero"/>
		<path id="Vector" d="M106.87 145.46L121.71 118.75L136.56 145.46L106.87 145.46Z" fill="#AD954F" fill-opacity="1.000000" fill-rule="nonzero"/>
		<path id="Vector" d="M158.81 44.53L141 53.43L158.81 62.34L158.81 44.53Z" fill="#AD954F" fill-opacity="1.000000" fill-rule="nonzero"/>
		<path id="Vector" d="M175.15 26.71L35.62 26.71L35.62 2.96C35.62 1.32 34.29 0 32.65 0L26.71 0C11.98 0 0 11.98 0 26.71L0 139.53C0 154.26 11.98 166.25 26.71 166.25L121.71 166.25L121.71 187.03C121.71 188.67 123.04 190 124.68 190L175.15 190C183.34 190 190 183.34 190 175.15L190 41.56C190 33.37 183.34 26.71 175.15 26.71ZM5.93 26.71C5.93 15.26 15.26 5.93 26.71 5.93L29.68 5.93L29.68 112.81L26.71 112.81C18.33 112.81 10.83 116.69 5.93 122.75L5.93 26.71ZM5.93 139.53C5.93 128.07 15.26 118.75 26.71 118.75L32.65 118.75C34.29 118.75 35.62 117.42 35.62 115.78L35.62 32.65L175.15 32.65C180.06 32.65 184.06 36.65 184.06 41.56L184.06 163.28C181.58 161.42 178.49 160.31 175.15 160.31L26.71 160.31C15.26 160.31 5.93 150.98 5.93 139.53ZM175.15 184.06L127.65 184.06L127.65 166.25L175.15 166.25C180.06 166.25 184.06 170.24 184.06 175.15C184.06 180.06 180.06 184.06 175.15 184.06Z" fill="#FFFFFF" fill-opacity="1.000000" fill-rule="nonzero"/>
		<path id="Vector" d="M45.4 128.52L38.59 135.33L31.78 128.52L27.58 132.72L34.39 139.53L27.58 146.33L31.78 150.53L38.59 143.72L45.4 150.53L49.59 146.33L42.79 139.53L49.59 132.72L45.4 128.52Z" fill="#FFFFFF" fill-opacity="1.000000" fill-rule="nonzero"/>
		<path id="Vector" d="M47.5 74.21L53.43 74.21L53.43 80.15L59.37 80.15L59.37 74.21L65.31 74.21L71.25 74.21L71.25 80.15L77.18 80.15L77.18 74.21L83.12 74.21C84.09 74.21 85.01 73.74 85.56 72.93C86.12 72.13 86.24 71.11 85.9 70.2L76.99 46.45C76.56 45.3 75.45 44.53 74.21 44.53C72.98 44.53 71.87 45.3 71.43 46.45L65.31 62.79L59.18 46.45C58.75 45.3 57.64 44.53 56.4 44.53C55.16 44.53 54.06 45.3 53.62 46.45L44.71 70.2C44.37 71.11 44.5 72.13 45.05 72.93C45.61 73.74 46.52 74.21 47.5 74.21ZM74.21 55.95L78.84 68.28L69.59 68.28L74.21 55.95ZM56.4 55.95L61.02 68.28L51.78 68.28L56.4 55.95Z" fill="#FFFFFF" fill-opacity="1.000000" fill-rule="nonzero"/>
		<path id="Vector" d="M142.09 108.34C141.54 107.4 140.53 106.8 139.43 106.87C138.34 106.91 137.36 107.54 136.87 108.51L128.61 125.04L124.31 117.31C123.26 115.42 120.16 115.42 119.12 117.31L104.28 144.02C103.77 144.94 103.78 146.07 104.31 146.97C104.84 147.87 105.82 148.43 106.87 148.43L136.56 148.43L160.31 148.43C161.37 148.43 162.35 147.87 162.88 146.94C163.41 146.02 163.41 144.89 162.87 143.97L142.09 108.34ZM111.91 142.5L121.71 124.86L131.51 142.5L111.91 142.5ZM138.3 142.5L132.1 131.33L139.73 116.08L155.14 142.5L138.3 142.5Z" fill="#FFFFFF" fill-opacity="1.000000" fill-rule="nonzero"/>
		<path id="Vector" d="M141.48 56.09L157.65 64.17L157.65 83.12L163.59 83.12L163.59 62.34L163.59 44.53L163.59 41.56L157.65 41.56L157.65 42.69L141.48 50.78C140.47 51.28 139.84 52.31 139.84 53.43C139.84 54.56 140.47 55.58 141.48 56.09ZM157.65 49.33L157.65 57.54L149.45 53.43L157.65 49.33Z" fill="#FFFFFF" fill-opacity="1.000000" fill-rule="nonzero"/>
		<path id="Vector" d="M69.41 147.75C67.91 147.75 66.38 147.69 64.87 147.57L65.32 141.65C66.72 141.76 67.99 141.82 69.51 141.82C69.99 141.82 70.47 141.81 70.95 141.79L71.11 147.73C70.55 147.75 69.97 147.74 69.41 147.75ZM77.47 147.11L76.41 141.28L76.78 141.21C78.19 140.95 79.67 140.4 80.98 139.63L84 144.74C82.09 145.87 79.94 146.67 77.76 147.07C77.76 147.06 77.47 147.11 77.47 147.11ZM58.69 146.79C56.53 146.41 54.46 145.92 52.57 145.33L54.31 139.66C55.97 140.17 57.8 140.6 59.73 140.95L58.69 146.79ZM89.3 139.81L84.33 136.57C84.93 135.64 85.25 134.68 85.25 133.74C85.25 133.51 85.23 133.27 85.19 133.03L91.05 132.06C91.14 132.63 91.19 133.19 91.19 133.74C91.18 135.83 90.53 137.93 89.3 139.81ZM83.18 129.46C82.11 128.34 80.78 127.32 79.13 126.33L82.16 121.23C84.29 122.49 86.02 123.84 87.47 125.35L83.18 129.46ZM74.18 123.91C72.42 123.19 70.6 122.52 68.76 121.85L70.78 116.27C72.7 116.96 74.62 117.67 76.46 118.43L74.18 123.91ZM63.13 119.8C60.86 118.93 59.05 118.15 57.41 117.34L60.06 112.02C61.52 112.75 63.17 113.46 65.25 114.25L63.13 119.8ZM51.73 113.53C50.05 111.87 48.72 109.89 47.78 107.65L53.27 105.37C53.89 106.88 54.77 108.19 55.89 109.29L51.73 113.53ZM112.81 109.84C111.59 109.84 110.37 109.77 109.15 109.65L109.75 103.74C111.55 103.93 113.33 103.95 115.19 103.83L115.57 109.75C114.63 109.81 113.71 109.84 112.81 109.84ZM121.79 109.01L120.76 103.16C122.56 102.84 124.42 102.42 126.28 101.91L127.85 107.64C125.82 108.19 123.78 108.66 121.79 109.01ZM102.89 108.53C100.97 108.05 99.01 107.44 96.91 106.67L98.96 101.1C100.86 101.79 102.61 102.34 104.33 102.77L102.89 108.53ZM133.75 105.73L131.69 100.17C133.49 99.5 135.25 98.76 136.94 97.97L139.47 103.34C137.63 104.21 135.71 105.01 133.75 105.73ZM91.22 104.32C89.38 103.49 87.55 102.59 85.75 101.68L88.44 96.39C90.15 97.26 91.9 98.11 93.67 98.91L91.22 104.32ZM47.65 100.68L46.37 100.65C46.37 98.13 46.85 95.79 47.76 93.74L53.19 96.15C52.61 97.44 52.3 98.96 52.3 100.53L47.65 100.68ZM144.97 100.44L141.95 95.33C143.63 94.34 145.19 93.29 146.6 92.22L150.19 96.95C148.61 98.15 146.85 99.33 144.97 100.44ZM80.44 98.93C78.66 97.99 76.92 97.07 75.21 96.22L77.88 90.91C79.61 91.79 81.39 92.72 83.21 93.67L80.44 98.93ZM70.01 93.77C68.06 92.94 66.36 92.34 64.83 91.94L66.32 86.2C68.14 86.66 70.11 87.36 72.33 88.3L70.01 93.77ZM55.89 92.83L52.47 87.98C54.52 86.53 56.88 85.68 59.47 85.47L59.94 91.39C58.41 91.52 57.08 91.98 55.89 92.83ZM154.99 92.68L150.67 88.61C151.97 87.22 152.97 85.84 153.65 84.51L158.95 87.2C158.01 89.04 156.68 90.88 154.99 92.68Z" fill="#FFFFFF" fill-opacity="1.000000" fill-rule="nonzero"/>
	</g>
</svg>
