<svg width="68.078583" height="68.079468" viewBox="0 0 68.0786 68.0795" fill="none" xmlns="http://www.w3.org/2000/svg" xmlns:xlink="http://www.w3.org/1999/xlink">
	
	<defs/>
	<path id="Vector" d="M53.23 8.63C48.77 5.25 43.35 3 37.37 2.37C19.88 0.53 4.21 13.21 2.37 30.7C1.63 37.69 3.22 44.39 6.5 50.03C6.81 50.55 6.63 51.23 6.11 51.53C5.58 51.84 4.91 51.66 4.6 51.14C1.1 45.1 -0.6 37.95 0.18 30.47C2.15 11.78 18.9 -1.78 37.6 0.18C43.8 0.84 49.44 3.12 54.14 6.56L53.43 4.08C53.26 3.5 53.6 2.89 54.18 2.72C54.76 2.56 55.37 2.9 55.54 3.48L57.21 9.32C57.3 9.65 57.24 10 57.04 10.27C56.84 10.54 56.53 10.71 56.19 10.72L50.12 10.94C49.51 10.96 49 10.49 48.98 9.88C48.96 9.28 49.43 8.77 50.04 8.75C50.04 8.75 51.87 8.68 53.23 8.63ZM13.93 61.51L14.64 63.99C14.81 64.57 14.47 65.18 13.89 65.34C13.3 65.51 12.7 65.17 12.53 64.59L10.86 58.75C10.77 58.42 10.83 58.07 11.03 57.8C11.23 57.53 11.54 57.36 11.88 57.35L17.95 57.13C18.56 57.11 19.07 57.58 19.09 58.19C19.11 58.79 18.64 59.3 18.03 59.32C18.03 59.32 16.2 59.39 14.83 59.44C19.3 62.82 24.72 65.07 30.7 65.7C48.19 67.54 63.86 54.86 65.7 37.37C66.44 30.38 64.85 23.68 61.57 18.04C61.26 17.52 61.44 16.84 61.96 16.54C62.49 16.23 63.16 16.41 63.46 16.93C66.98 22.96 68.67 30.13 67.88 37.6C65.92 56.29 49.17 69.85 30.47 67.88C24.27 67.23 18.63 64.95 13.93 61.51ZM34.03 16.52C43.71 16.52 51.55 24.36 51.55 34.03C51.55 43.71 43.71 51.55 34.03 51.55C24.36 51.55 16.52 43.71 16.52 34.03C16.52 24.36 24.36 16.52 34.03 16.52ZM46.07 43.5C48.13 40.9 49.35 37.61 49.35 34.03C49.35 25.58 42.49 18.72 34.03 18.72C25.57 18.72 18.72 25.58 18.72 34.03C18.72 37.61 19.94 40.9 22 43.5C23.13 39.67 26.06 36.6 29.8 35.25C28.18 33.99 27.14 32.02 27.14 29.82C27.14 26.03 30.24 22.93 34.03 22.93C37.83 22.93 40.93 26.03 40.93 29.82C40.93 32.02 39.89 33.99 38.27 35.25C42.01 36.6 44.93 39.67 46.07 43.5ZM23.8 45.43C26.52 47.87 30.1 49.35 34.03 49.35C37.97 49.35 41.55 47.87 44.26 45.43C43.48 40.49 39.19 36.72 34.03 36.72C28.87 36.72 24.59 40.49 23.8 45.43ZM34.03 34.52C36.62 34.52 38.73 32.41 38.73 29.82C38.73 27.24 36.62 25.12 34.03 25.12C31.45 25.12 29.34 27.24 29.34 29.82C29.34 32.41 31.45 34.52 34.03 34.52ZM30.96 15.5C30.56 15.95 29.86 15.98 29.41 15.57C28.97 15.17 28.93 14.47 29.34 14.02C30.54 12.71 32.2 11.91 34.04 11.91C35.86 11.91 37.53 12.71 38.73 14.02C39.14 14.47 39.11 15.17 38.66 15.57C38.21 15.98 37.52 15.95 37.11 15.5C36.32 14.64 35.24 14.1 34.04 14.1C32.83 14.1 31.75 14.64 30.96 15.5ZM41.24 11.28C41.64 11.72 41.61 12.42 41.17 12.83C40.72 13.24 40.02 13.2 39.61 12.76C38.19 11.19 36.21 10.22 34.04 10.22C31.85 10.22 29.89 11.19 28.46 12.76C28.05 13.2 27.35 13.24 26.91 12.83C26.46 12.42 26.43 11.72 26.84 11.28C28.68 9.26 31.22 8.02 34.04 8.02C36.84 8.02 39.39 9.26 41.24 11.28ZM25.95 10.01C25.54 10.46 24.84 10.49 24.39 10.08C23.95 9.67 23.92 8.98 24.33 8.53C26.81 5.81 30.25 4.14 34.04 4.14C37.83 4.14 41.26 5.81 43.74 8.53C44.15 8.98 44.12 9.67 43.67 10.08C43.23 10.49 42.53 10.46 42.12 10.01C40.05 7.74 37.19 6.33 34.04 6.33C30.88 6.33 28.02 7.74 25.95 10.01ZM52.56 30.97C52.12 30.56 52.09 29.86 52.49 29.41C52.9 28.97 53.6 28.94 54.05 29.34C55.36 30.54 56.16 32.2 56.16 34.04C56.16 35.86 55.36 37.53 54.05 38.73C53.6 39.14 52.9 39.11 52.49 38.66C52.09 38.21 52.12 37.52 52.56 37.11C53.43 36.32 53.97 35.24 53.97 34.04C53.97 32.83 53.43 31.75 52.56 30.97ZM56.79 41.24C56.35 41.64 55.65 41.61 55.24 41.17C54.83 40.72 54.86 40.02 55.31 39.62C56.88 38.19 57.85 36.22 57.85 34.04C57.85 31.85 56.88 29.89 55.31 28.46C54.86 28.05 54.83 27.35 55.24 26.91C55.65 26.46 56.35 26.43 56.79 26.84C58.81 28.68 60.05 31.22 60.05 34.04C60.05 36.85 58.81 39.39 56.79 41.24ZM58.06 25.95C57.61 25.54 57.58 24.84 57.99 24.4C58.4 23.95 59.09 23.92 59.54 24.33C62.26 26.81 63.93 30.25 63.93 34.04C63.93 37.83 62.26 41.26 59.54 43.74C59.09 44.15 58.39 44.12 57.99 43.67C57.58 43.23 57.61 42.53 58.06 42.12C60.32 40.05 61.74 37.2 61.74 34.04C61.74 30.88 60.32 28.02 58.06 25.95ZM37.1 52.56C37.51 52.12 38.21 52.09 38.66 52.5C39.1 52.9 39.13 53.6 38.73 54.05C37.52 55.36 35.87 56.16 34.03 56.16C32.2 56.16 30.54 55.36 29.34 54.05C28.93 53.6 28.96 52.9 29.41 52.5C29.86 52.09 30.55 52.12 30.96 52.56C31.75 53.43 32.83 53.97 34.03 53.97C35.23 53.97 36.32 53.43 37.1 52.56ZM26.83 56.79C26.42 56.35 26.46 55.65 26.9 55.24C27.35 54.83 28.05 54.87 28.45 55.31C29.88 56.88 31.85 57.85 34.03 57.85C36.21 57.85 38.18 56.88 39.61 55.31C40.02 54.87 40.72 54.83 41.16 55.24C41.61 55.65 41.64 56.35 41.23 56.79C39.39 58.81 36.85 60.05 34.03 60.05C31.22 60.05 28.67 58.81 26.83 56.79ZM42.12 58.06C42.53 57.61 43.23 57.58 43.67 57.99C44.12 58.4 44.15 59.09 43.74 59.54C41.26 62.26 37.82 63.93 34.03 63.93C30.24 63.93 26.81 62.26 24.32 59.54C23.92 59.09 23.95 58.4 24.4 57.99C24.84 57.58 25.54 57.61 25.95 58.06C28.02 60.33 30.87 61.74 34.03 61.74C37.19 61.74 40.05 60.33 42.12 58.06ZM15.5 37.1C15.95 37.51 15.98 38.21 15.57 38.66C15.17 39.1 14.47 39.13 14.02 38.73C12.71 37.53 11.91 35.87 11.91 34.03C11.91 32.2 12.71 30.54 14.02 29.34C14.47 28.93 15.17 28.96 15.57 29.41C15.98 29.86 15.95 30.55 15.5 30.96C14.64 31.75 14.1 32.83 14.1 34.03C14.1 35.23 14.64 36.32 15.5 37.1ZM11.28 26.83C11.72 26.42 12.42 26.46 12.83 26.9C13.24 27.35 13.2 28.05 12.76 28.45C11.19 29.88 10.22 31.85 10.22 34.03C10.22 36.22 11.19 38.18 12.76 39.61C13.2 40.02 13.24 40.72 12.83 41.16C12.42 41.61 11.72 41.64 11.28 41.23C9.26 39.39 8.02 36.85 8.02 34.03C8.02 31.22 9.26 28.68 11.28 26.83ZM10.01 42.12C10.46 42.53 10.49 43.23 10.08 43.67C9.67 44.12 8.98 44.15 8.53 43.74C5.81 41.26 4.14 37.82 4.14 34.03C4.14 30.24 5.81 26.81 8.53 24.33C8.98 23.92 9.67 23.95 10.08 24.4C10.49 24.84 10.46 25.54 10.01 25.95C7.74 28.02 6.33 30.87 6.33 34.03C6.33 37.19 7.74 40.05 10.01 42.12Z" fill="#FFFFFF" fill-opacity="1.000000" fill-rule="evenodd"/>
</svg>
