<svg width="60.000000" height="60.000000" viewBox="0 0 60 60" fill="none" xmlns="http://www.w3.org/2000/svg" xmlns:xlink="http://www.w3.org/1999/xlink">
	
	<defs>
		<clipPath id="clip36_37">
			<rect id="fi_1384015" rx="0.000000" width="59.000000" height="59.000000" transform="translate(0.500000 0.500000)" fill="white" fill-opacity="0"/>
		</clipPath>
	</defs>
	<rect id="fi_1384015" rx="0.000000" width="59.000000" height="59.000000" transform="translate(0.500000 0.500000)" fill="#FFFFFF" fill-opacity="0"/>
	<g clip-path="url(#clip36_37)">
		<path id="Vector" d="M35.74 30C35.74 33.17 33.17 35.74 30 35.74C26.82 35.74 24.25 33.17 24.25 30C24.25 26.82 26.82 24.25 30 24.25C33.17 24.25 35.74 26.82 35.74 30Z" fill="#FFFFFF" fill-opacity="1.000000" fill-rule="nonzero"/>
		<path id="Vector" d="M43.42 19.84C43.15 19.09 42.71 18.41 42.14 17.85C41.58 17.28 40.9 16.84 40.15 16.57C39.55 16.33 38.64 16.05 36.96 15.97C35.14 15.89 34.59 15.87 30 15.87C25.39 15.87 24.85 15.89 23.03 15.97C21.35 16.05 20.44 16.33 19.84 16.57C19.09 16.84 18.41 17.28 17.85 17.85C17.28 18.41 16.84 19.09 16.57 19.84C16.33 20.44 16.05 21.35 15.97 23.03C15.89 24.85 15.87 25.4 15.87 30C15.87 34.6 15.89 35.14 15.97 36.96C16.05 38.64 16.33 39.55 16.57 40.16C16.84 40.9 17.28 41.58 17.85 42.14C18.41 42.71 19.09 43.15 19.83 43.42C20.44 43.66 21.35 43.94 23.03 44.02C24.85 44.1 25.39 44.12 29.99 44.12C34.6 44.12 35.14 44.1 36.96 44.02C38.64 43.94 39.55 43.66 40.15 43.42C41.66 42.84 42.84 41.66 43.42 40.16C43.66 39.55 43.94 38.64 44.02 36.96C44.1 35.14 44.12 34.6 44.12 30C44.12 25.4 44.1 24.85 44.02 23.03C43.94 21.35 43.66 20.44 43.42 19.84ZM30 38.84C25.11 38.84 21.15 34.88 21.15 30C21.15 25.11 25.11 21.15 30 21.15C34.88 21.15 38.84 25.11 38.84 30C38.84 34.88 34.88 38.84 30 38.84ZM39.19 22.87C38.05 22.87 37.12 21.94 37.12 20.8C37.12 19.66 38.05 18.73 39.19 18.73C40.33 18.73 41.26 19.66 41.26 20.8C41.26 21.94 40.33 22.87 39.19 22.87Z" fill="#FFFFFF" fill-opacity="1.000000" fill-rule="nonzero"/>
		<path id="Vector" d="M30 0C13.43 0 0 13.43 0 30C0 46.56 13.43 60 30 60C46.56 60 60 46.56 60 30C60 13.43 46.56 0 30 0ZM47.12 37.1C47.03 38.93 46.74 40.18 46.32 41.28C45.42 43.59 43.59 45.42 41.28 46.32C40.18 46.74 38.93 47.03 37.1 47.12C35.26 47.2 34.67 47.22 30 47.22C25.32 47.22 24.73 47.2 22.89 47.12C21.06 47.03 19.81 46.74 18.71 46.32C17.56 45.88 16.52 45.21 15.66 44.33C14.78 43.47 14.11 42.43 13.67 41.28C13.25 40.18 12.96 38.93 12.87 37.1C12.79 35.26 12.77 34.67 12.77 30C12.77 25.32 12.79 24.73 12.87 22.89C12.96 21.06 13.25 19.81 13.67 18.71C14.11 17.56 14.78 16.52 15.66 15.66C16.52 14.78 17.56 14.11 18.71 13.67C19.81 13.25 21.06 12.96 22.89 12.87C24.73 12.79 25.32 12.77 30 12.77C34.67 12.77 35.26 12.79 37.1 12.87C38.93 12.96 40.18 13.25 41.28 13.67C42.43 14.11 43.47 14.78 44.33 15.66C45.21 16.52 45.88 17.56 46.32 18.71C46.74 19.81 47.03 21.06 47.12 22.89C47.2 24.73 47.22 25.32 47.22 30C47.22 34.67 47.2 35.26 47.12 37.1Z" fill="#FFFFFF" fill-opacity="1.000000" fill-rule="nonzero"/>
	</g>
</svg>
