<svg width="190.000000" height="190.000000" viewBox="0 0 190 190" fill="none" xmlns="http://www.w3.org/2000/svg" xmlns:xlink="http://www.w3.org/1999/xlink">
	
	<defs>
		<clipPath id="clip268_1439">
			<rect id="fi_648109" rx="0.000000" width="189.000000" height="189.000000" transform="translate(0.500000 0.500000)" fill="white" fill-opacity="0"/>
		</clipPath>
	</defs>
	<rect id="fi_648109" rx="0.000000" width="189.000000" height="189.000000" transform="translate(0.500000 0.500000)" fill="#FFFFFF" fill-opacity="0"/>
	<g clip-path="url(#clip268_1439)">
		<path id="Vector" d="M15.83 57L90.52 57L83.26 49.73C82.66 49.14 82.33 48.33 82.33 47.5L82.33 15.83C82.33 10.59 78.07 6.33 72.83 6.33L15.83 6.33C10.59 6.33 6.33 10.59 6.33 15.83L6.33 47.5C6.33 52.73 10.59 57 15.83 57ZM53.83 28.5L60.16 28.5L60.16 34.83L53.83 34.83L53.83 28.5ZM41.16 28.5L47.5 28.5L47.5 34.83L41.16 34.83L41.16 28.5ZM28.5 28.5L34.83 28.5L34.83 34.83L28.5 34.83L28.5 28.5Z" fill="#AD954F" fill-opacity="1.000000" fill-rule="nonzero"/>
		<path id="Vector" d="M148.83 6.33C129.62 6.33 114 21.96 114 41.16L114 57L123.5 57C125.25 57 126.66 58.41 126.66 60.16L126.66 72.25C130.34 70.93 133 67.45 133 63.33L139.33 63.33C139.33 70.97 133.88 77.37 126.66 78.84L126.66 85.5L158.33 85.5C160.08 85.5 161.5 86.91 161.5 88.66L161.5 107.66L183.66 107.66L183.66 41.16C183.66 21.96 168.03 6.33 148.83 6.33ZM136.16 41.16C130.92 41.16 126.66 36.9 126.66 31.66L133 31.66C133 33.41 134.41 34.83 136.16 34.83C137.91 34.83 139.33 33.41 139.33 31.66L145.66 31.66C145.66 36.9 141.4 41.16 136.16 41.16Z" fill="#AD954F" fill-opacity="1.000000" fill-rule="nonzero"/>
		<path id="Vector" d="M148.83 0C126.13 0 107.66 18.46 107.66 41.16L107.66 60.16C107.66 61.91 109.08 63.33 110.83 63.33L120.33 63.33L120.33 88.66C120.33 90.41 121.74 91.83 123.5 91.83L155.16 91.83L155.16 110.83C155.16 112.58 156.58 114 158.33 114L186.83 114C188.58 114 190 112.58 190 110.83L190 41.16C190 18.46 171.53 0 148.83 0ZM183.66 107.66L161.5 107.66L161.5 88.66C161.5 86.91 160.08 85.5 158.33 85.5L126.66 85.5L126.66 78.84C133.88 77.37 139.33 70.98 139.33 63.33L133 63.33C133 67.45 130.34 70.93 126.66 72.25L126.66 60.16C126.66 58.41 125.25 57 123.5 57L114 57L114 41.16C114 21.96 129.62 6.33 148.83 6.33C168.03 6.33 183.66 21.96 183.66 41.16L183.66 107.66Z" fill="#FFFFFF" fill-opacity="1.000000" fill-rule="nonzero"/>
		<path id="Vector" d="M15.83 63.33L98.16 63.33C99.44 63.33 100.6 62.56 101.09 61.37C101.58 60.19 101.31 58.83 100.4 57.92L88.66 46.18L88.66 15.83C88.66 7.1 81.56 0 72.83 0L15.83 0C7.1 0 0 7.1 0 15.83L0 47.5C0 56.23 7.1 63.33 15.83 63.33ZM6.33 15.83C6.33 10.59 10.59 6.33 15.83 6.33L72.83 6.33C78.07 6.33 82.33 10.59 82.33 15.83L82.33 47.5C82.33 48.33 82.66 49.14 83.26 49.73L90.52 57L15.83 57C10.59 57 6.33 52.73 6.33 47.5L6.33 15.83Z" fill="#FFFFFF" fill-opacity="1.000000" fill-rule="nonzero"/>
		<path id="Vector" d="M164.66 120.33L107.66 120.33C98.93 120.33 91.83 127.43 91.83 136.16L91.83 166.52L80.09 178.26C79.18 179.16 78.91 180.52 79.4 181.71C79.89 182.89 81.05 183.66 82.33 183.66L164.66 183.66C173.39 183.66 180.5 176.56 180.5 167.83L180.5 136.16C180.5 127.43 173.39 120.33 164.66 120.33ZM174.16 167.83C174.16 173.07 169.9 177.33 164.66 177.33L89.97 177.33L97.23 170.07C97.83 169.48 98.16 168.67 98.16 167.83L98.16 136.16C98.16 130.92 102.42 126.66 107.66 126.66L164.66 126.66C169.9 126.66 174.16 130.92 174.16 136.16L174.16 167.83Z" fill="#FFFFFF" fill-opacity="1.000000" fill-rule="nonzero"/>
		<path id="Vector" d="M28.5 28.5L34.83 28.5L34.83 34.83L28.5 34.83L28.5 28.5Z" fill="#FFFFFF" fill-opacity="1.000000" fill-rule="evenodd"/>
		<path id="Vector" d="M41.16 28.5L47.5 28.5L47.5 34.83L41.16 34.83L41.16 28.5Z" fill="#FFFFFF" fill-opacity="1.000000" fill-rule="evenodd"/>
		<path id="Vector" d="M53.83 28.5L60.16 28.5L60.16 34.83L53.83 34.83L53.83 28.5Z" fill="#FFFFFF" fill-opacity="1.000000" fill-rule="evenodd"/>
		<path id="Vector" d="M120.33 148.83L126.66 148.83L126.66 155.16L120.33 155.16L120.33 148.83Z" fill="#FFFFFF" fill-opacity="1.000000" fill-rule="evenodd"/>
		<path id="Vector" d="M133 148.83L139.33 148.83L139.33 155.16L133 155.16L133 148.83Z" fill="#FFFFFF" fill-opacity="1.000000" fill-rule="evenodd"/>
		<path id="Vector" d="M145.66 148.83L152 148.83L152 155.16L145.66 155.16L145.66 148.83Z" fill="#FFFFFF" fill-opacity="1.000000" fill-rule="evenodd"/>
		<path id="Vector" d="M82.33 136.16L82.33 117.16C82.33 94.46 63.86 76 41.16 76C18.46 76 0 94.46 0 117.16L0 186.83C0 188.58 1.41 190 3.16 190L31.66 190C33.41 190 34.83 188.58 34.83 186.83L34.83 167.83L66.5 167.83C68.25 167.83 69.66 166.41 69.66 164.66L69.66 155.16C69.66 153.41 68.25 152 66.5 152C64.15 152 62.11 150.72 61.01 148.83L66.5 148.83C68.25 148.83 69.66 147.41 69.66 145.66L69.66 139.33L79.16 139.33C80.91 139.33 82.33 137.91 82.33 136.16ZM76 133L66.5 133C64.74 133 63.33 134.41 63.33 136.16L63.33 142.5L57 142.5C55.24 142.5 53.83 143.91 53.83 145.66C53.83 151.55 57.87 156.52 63.33 157.93L63.33 161.5L31.66 161.5C29.91 161.5 28.5 162.91 28.5 164.66L28.5 183.66L6.33 183.66L6.33 117.16C6.33 97.96 21.96 82.33 41.16 82.33C60.37 82.33 76 97.96 76 117.16L76 133Z" fill="#FFFFFF" fill-opacity="1.000000" fill-rule="nonzero"/>
		<path id="Vector" d="M50.66 110.83C48.91 110.83 47.5 109.41 47.5 107.66L41.16 107.66C41.16 112.9 45.42 117.16 50.66 117.16C55.9 117.16 60.16 112.9 60.16 107.66L53.83 107.66C53.83 109.41 52.41 110.83 50.66 110.83Z" fill="#FFFFFF" fill-opacity="1.000000" fill-rule="nonzero"/>
		<path id="Vector" d="M136.16 34.83C134.41 34.83 133 33.41 133 31.66L126.66 31.66C126.66 36.9 130.92 41.16 136.16 41.16C141.4 41.16 145.66 36.9 145.66 31.66L139.33 31.66C139.33 33.41 137.91 34.83 136.16 34.83Z" fill="#FFFFFF" fill-opacity="1.000000" fill-rule="nonzero"/>
	</g>
</svg>
