<svg width="190.000000" height="190.000000" viewBox="0 0 190 190" fill="none" xmlns="http://www.w3.org/2000/svg" xmlns:xlink="http://www.w3.org/1999/xlink">
	
	<defs>
		<clipPath id="clip385_621">
			<rect id="fi_647951" rx="0.000000" width="189.000000" height="189.000000" transform="translate(0.500000 0.500000)" fill="white" fill-opacity="0"/>
		</clipPath>
	</defs>
	<rect id="fi_647951" rx="0.000000" width="189.000000" height="189.000000" transform="translate(0.500000 0.500000)" fill="#FFFFFF" fill-opacity="0"/>
	<g clip-path="url(#clip385_621)">
		<path id="Vector" d="M139.33 41.16C139.33 37.7 136.53 34.88 133.08 34.83C132.95 34.84 132.67 34.88 132.64 34.88C131.53 34.97 130.52 34.5 129.87 33.64C129.22 32.78 129.05 31.66 129.41 30.65C129.7 29.88 129.83 29.18 129.83 28.5C129.83 25 126.99 22.16 123.5 22.16C122.81 22.16 122.11 22.29 121.35 22.57C120.34 22.93 119.2 22.77 118.35 22.11C117.49 21.47 117.03 20.42 117.11 19.35C117.11 19.28 117.15 18.98 117.16 18.91C117.16 15.5 114.32 12.66 110.83 12.66C109.27 12.66 107.76 13.26 106.57 14.35C105.67 15.17 104.38 15.41 103.25 14.95C102.13 14.5 101.35 13.44 101.27 12.23C101.04 8.92 98.29 6.33 95 6.33C91.7 6.33 88.95 8.92 88.72 12.23C88.64 13.45 87.86 14.5 86.74 14.95C85.61 15.4 84.32 15.17 83.42 14.35C82.23 13.26 80.72 12.66 79.16 12.66C75.67 12.66 72.83 15.5 72.83 19C72.84 19.06 72.88 19.29 72.88 19.35C72.96 20.42 72.5 21.47 71.64 22.11C70.78 22.77 69.65 22.94 68.64 22.57C67.88 22.29 67.18 22.16 66.5 22.16C63 22.16 60.16 25 60.16 28.5C60.16 29.18 60.29 29.88 60.57 30.65C60.94 31.66 60.77 32.79 60.11 33.64C59.46 34.5 58.45 34.97 57.35 34.88C57.28 34.88 56.98 34.84 56.91 34.83L56.91 34.83C53.5 34.83 50.66 37.67 50.66 41.16C50.66 44.65 53.5 47.5 57 47.5L133 47.5C136.49 47.5 139.33 44.65 139.33 41.16ZM85.5 41.16L79.16 41.16L79.16 34.83L85.5 34.83L85.5 41.16ZM98.16 41.16L91.83 41.16L91.83 34.83L98.16 34.83L98.16 41.16ZM110.83 41.16L104.5 41.16L104.5 34.83L110.83 34.83L110.83 41.16Z" fill="#AD954F" fill-opacity="1.000000" fill-rule="nonzero"/>
		<path id="Vector" d="M148.83 107.66C148.83 109.41 147.41 110.83 145.66 110.83C143.91 110.83 142.5 109.41 142.5 107.66C142.5 105.91 143.91 104.5 145.66 104.5C147.41 104.5 148.83 105.91 148.83 107.66Z" fill="#AD954F" fill-opacity="1.000000" fill-rule="evenodd"/>
		<path id="Vector" d="M47.5 107.66C47.5 109.41 46.08 110.83 44.33 110.83C42.58 110.83 41.16 109.41 41.16 107.66C41.16 105.91 42.58 104.5 44.33 104.5C46.08 104.5 47.5 105.91 47.5 107.66Z" fill="#AD954F" fill-opacity="1.000000" fill-rule="evenodd"/>
		<path id="Vector" d="M144.08 69.66C134.99 69.66 126.54 72.35 119.4 76.92L110.83 68.35L110.83 53.83L133 53.83C139.98 53.83 145.66 48.15 145.66 41.16C145.66 35.27 141.62 30.3 136.16 28.89C136.16 28.76 136.16 28.63 136.16 28.5C136.16 21.38 130.14 15.6 123.1 15.83C121.69 10.37 116.72 6.33 110.83 6.33C109.29 6.33 107.78 6.61 106.36 7.16C104.3 2.91 99.95 0 95 0C90.04 0 85.69 2.91 83.63 7.16C82.21 6.61 80.7 6.33 79.16 6.33C73.27 6.33 68.3 10.37 66.89 15.83C59.78 15.6 53.83 21.38 53.83 28.5C53.83 28.63 53.83 28.76 53.83 28.89C48.37 30.3 44.33 35.27 44.33 41.16C44.33 48.15 50.01 53.83 57 53.83L79.16 53.83L79.16 68.35L70.59 76.92C63.46 72.35 55 69.66 45.91 69.66C20.59 69.66 0 90.26 0 115.58L0 190L3.16 190L6.33 190L6.33 115.58C6.33 93.75 24.08 76 45.91 76C53.24 76 60.09 78.03 65.99 81.52L48.4 99.11C47.16 98.52 45.79 98.16 44.33 98.16C39.09 98.16 34.83 102.42 34.83 107.66C34.83 112.9 39.09 117.16 44.33 117.16C49.57 117.16 53.83 112.9 53.83 107.66C53.83 106.2 53.47 104.83 52.88 103.59L71.26 85.21C79.95 92.48 85.5 103.39 85.5 115.58L85.5 139.33L76 139.33C74.24 139.33 72.83 140.74 72.83 142.5L72.83 152C69.34 152 66.5 149.15 66.5 145.66L60.16 145.66C60.16 152.65 65.84 158.33 72.83 158.33L72.83 164.66L44.33 164.66L41.16 164.66C39.41 164.66 38 166.08 38 167.83L38 190L41.16 190L44.33 190L44.33 171L76 171C77.75 171 79.16 169.58 79.16 167.83L79.16 145.66L88.66 145.66C90.41 145.66 91.83 144.25 91.83 142.5L91.83 115.58C91.83 101.64 85.56 89.16 75.73 80.74L84.57 71.9C85.16 71.31 85.5 70.5 85.5 69.66L85.5 53.83L104.5 53.83L104.5 69.66C104.5 70.5 104.83 71.31 105.42 71.9L114.26 80.74C104.43 89.16 98.16 101.64 98.16 115.58L98.16 142.5C98.16 144.25 99.58 145.66 101.33 145.66L110.83 145.66L110.83 167.83C110.83 169.58 112.24 171 114 171L145.66 171L145.66 190L148.83 190L152 190L152 167.83C152 166.08 150.58 164.66 148.83 164.66L145.66 164.66L117.16 164.66L117.16 158.33C124.15 158.33 129.83 152.65 129.83 145.66L123.5 145.66C123.5 149.15 120.66 152 117.16 152L117.16 142.5C117.16 140.74 115.75 139.33 114 139.33L104.5 139.33L104.5 115.58C104.5 103.39 110.04 92.48 118.73 85.21L137.12 103.59C136.52 104.83 136.16 106.2 136.16 107.66C136.16 112.9 140.42 117.16 145.66 117.16C150.9 117.16 155.16 112.9 155.16 107.66C155.16 102.42 150.9 98.16 145.66 98.16C144.2 98.16 142.83 98.52 141.59 99.11L124 81.52C129.9 78.03 136.75 76 144.08 76C165.91 76 183.66 93.75 183.66 115.58L183.66 190L186.83 190L190 190L190 115.58C190 90.26 169.4 69.66 144.08 69.66ZM44.33 110.83C42.58 110.83 41.16 109.41 41.16 107.66C41.16 105.91 42.58 104.5 44.33 104.5C46.08 104.5 47.5 105.91 47.5 107.66C47.5 109.41 46.08 110.83 44.33 110.83ZM57 47.5C53.5 47.5 50.66 44.65 50.66 41.16C50.66 37.67 53.5 34.83 56.91 34.83L56.92 34.83C56.98 34.84 57.29 34.88 57.35 34.88C58.46 34.97 59.47 34.5 60.12 33.64C60.77 32.78 60.94 31.66 60.58 30.65C60.29 29.88 60.16 29.18 60.16 28.5C60.16 25 63 22.16 66.5 22.16C67.18 22.16 67.88 22.29 68.65 22.57C69.65 22.94 70.79 22.77 71.64 22.11C72.5 21.47 72.96 20.42 72.88 19.35C72.88 19.29 72.84 19.06 72.83 19C72.83 15.5 75.67 12.66 79.16 12.66C80.72 12.66 82.23 13.26 83.42 14.35C84.32 15.17 85.61 15.41 86.74 14.95C87.87 14.5 88.64 13.44 88.72 12.23C88.95 8.92 91.71 6.33 95 6.33C98.29 6.33 101.04 8.92 101.27 12.23C101.35 13.45 102.13 14.5 103.25 14.95C104.38 15.41 105.67 15.17 106.57 14.35C107.76 13.26 109.27 12.66 110.83 12.66C114.32 12.66 117.16 15.5 117.16 18.92C117.15 18.98 117.11 19.29 117.11 19.35C117.03 20.43 117.49 21.47 118.35 22.12C119.21 22.77 120.34 22.94 121.35 22.58C122.11 22.29 122.81 22.16 123.5 22.16C126.99 22.16 129.83 25 129.83 28.5C129.83 29.18 129.7 29.88 129.42 30.65C129.05 31.66 129.22 32.79 129.88 33.64C130.53 34.5 131.54 34.97 132.64 34.88C132.67 34.88 132.95 34.84 133.08 34.83C136.53 34.88 139.33 37.7 139.33 41.16C139.33 44.65 136.49 47.5 133 47.5L57 47.5ZM145.66 104.5C147.41 104.5 148.83 105.91 148.83 107.66C148.83 109.41 147.41 110.83 145.66 110.83C143.91 110.83 142.5 109.41 142.5 107.66C142.5 105.91 143.91 104.5 145.66 104.5Z" fill="#FFFFFF" fill-opacity="1.000000" fill-rule="nonzero"/>
		<path id="Vector" d="M104.5 34.83L110.83 34.83L110.83 41.16L104.5 41.16L104.5 34.83Z" fill="#FFFFFF" fill-opacity="1.000000" fill-rule="evenodd"/>
		<path id="Vector" d="M91.83 34.83L98.16 34.83L98.16 41.16L91.83 41.16L91.83 34.83Z" fill="#FFFFFF" fill-opacity="1.000000" fill-rule="evenodd"/>
		<path id="Vector" d="M79.16 34.83L85.5 34.83L85.5 41.16L79.16 41.16L79.16 34.83Z" fill="#FFFFFF" fill-opacity="1.000000" fill-rule="evenodd"/>
		<path id="Vector" d="M31.66 12.66L38 12.66L38 18.99L31.66 18.99L31.66 12.66Z" fill="#FFFFFF" fill-opacity="1.000000" fill-rule="evenodd"/>
		<path id="Vector" d="M19 0L25.33 0L25.33 6.33L19 6.33L19 0Z" fill="#FFFFFF" fill-opacity="1.000000" fill-rule="evenodd"/>
		<path id="Vector" d="M19 12.66L25.33 12.66L25.33 18.99L19 18.99L19 12.66Z" fill="#FFFFFF" fill-opacity="1.000000" fill-rule="evenodd"/>
		<path id="Vector" d="M19 25.33L25.33 25.33L25.33 31.66L19 31.66L19 25.33Z" fill="#FFFFFF" fill-opacity="1.000000" fill-rule="evenodd"/>
		<path id="Vector" d="M152 12.66L158.33 12.66L158.33 18.99L152 18.99L152 12.66Z" fill="#FFFFFF" fill-opacity="1.000000" fill-rule="evenodd"/>
		<path id="Vector" d="M164.66 25.33L171 25.33L171 31.66L164.66 31.66L164.66 25.33Z" fill="#FFFFFF" fill-opacity="1.000000" fill-rule="evenodd"/>
		<path id="Vector" d="M164.66 12.66L171 12.66L171 18.99L164.66 18.99L164.66 12.66Z" fill="#FFFFFF" fill-opacity="1.000000" fill-rule="evenodd"/>
		<path id="Vector" d="M164.66 0L171 0L171 6.33L164.66 6.33L164.66 0Z" fill="#FFFFFF" fill-opacity="1.000000" fill-rule="evenodd"/>
	</g>
</svg>
