<svg width="190.000000" height="190.000000" viewBox="0 0 190 190" fill="none" xmlns="http://www.w3.org/2000/svg" xmlns:xlink="http://www.w3.org/1999/xlink">
	
	<defs>
		<clipPath id="clip36_66">
			<rect id="fi_2103658" rx="0.000000" width="189.000000" height="189.000000" transform="matrix(-1 0 0 1 190.5 0.5)" fill="white" fill-opacity="0"/>
		</clipPath>
	</defs>
	<rect id="fi_2103658" rx="0.000000" width="189.000000" height="189.000000" transform="matrix(-1 0 0 1 190.5 0.5)" fill="#FFFFFF" fill-opacity="0"/>
	<g clip-path="url(#clip36_66)">
		<path id="Vector" d="M29.68 74.21C18.19 74.21 8.9 83.51 8.9 95C8.9 106.48 18.19 115.78 29.68 115.78C35.26 115.78 40.31 113.61 44.02 109.99C48 106.25 50.46 100.9 50.46 95C50.46 94.05 50.4 93.12 50.26 92.2C49.66 87.57 47.52 83.45 44.38 80.3C40.61 76.53 35.44 74.21 29.68 74.21Z" fill="#AD954F" fill-opacity="1.000000" fill-rule="nonzero"/>
		<path id="Vector" d="M150.02 109.25C153.14 107.74 156.62 106.87 160.31 106.87C173.4 106.87 184.06 117.53 184.06 130.62C184.06 143.72 173.4 154.37 160.31 154.37C152.09 154.37 144.84 150.17 140.57 143.81L118.14 155.04C118.52 156.74 118.75 158.5 118.75 160.31C118.75 173.4 108.09 184.06 95 184.06C81.9 184.06 71.25 173.4 71.25 160.31C71.25 155.39 72.75 150.81 75.33 147.01L43.8 114.05C39.85 116.99 34.97 118.75 29.68 118.75C16.59 118.75 5.93 108.09 5.93 95C5.93 81.9 16.59 71.25 29.68 71.25C35.16 71.25 40.2 73.13 44.22 76.26L76.26 44.22C73.13 40.2 71.25 35.16 71.25 29.68C71.25 16.59 81.9 5.93 95 5.93C108.09 5.93 118.75 16.59 118.75 29.68C118.75 31.49 118.53 33.24 118.14 34.93L139.19 42.61C143.14 34.94 151.11 29.68 160.31 29.68C173.4 29.68 184.06 40.34 184.06 53.43C184.06 66.53 173.4 77.18 160.31 77.18C156.93 77.18 153.72 76.46 150.81 75.18L139.88 93.58L150.02 109.25ZM160.31 148.43C170.13 148.43 178.12 140.44 178.12 130.62C178.12 120.8 170.13 112.81 160.31 112.81C150.48 112.81 142.5 120.8 142.5 130.62C142.5 140.44 150.48 148.43 160.31 148.43ZM137.93 138.49C137.06 136.02 136.56 133.38 136.56 130.62C136.56 123.34 139.86 116.82 145.03 112.46L136.5 99.27L110.75 142.59C112.92 144.52 114.73 146.83 116.08 149.43L137.93 138.49ZM95 53.43C89.51 53.43 84.48 51.55 80.45 48.42L48.42 80.46C50.34 82.93 51.78 85.78 52.6 88.89L71.25 86.32C71.26 86.24 71.25 86.17 71.25 86.09C71.25 72.99 81.9 62.34 95 62.34C103.21 62.34 110.47 66.54 114.73 72.9L118.27 71.13L105.28 51.06C102.16 52.56 98.68 53.43 95 53.43ZM92.03 136.76L92.03 109.63C82.38 108.42 74.53 101.41 72.07 92.2L53.42 94.76C53.42 94.84 53.43 94.92 53.43 95C53.43 100.67 51.43 105.87 48.1 109.96L79.28 142.55C82.77 139.46 87.17 137.37 92.03 136.76ZM95 68.28C85.17 68.28 77.18 76.27 77.18 86.09C77.18 95.91 85.17 103.9 95 103.9C104.82 103.9 112.81 95.91 112.81 86.09C112.81 76.27 104.82 68.28 95 68.28ZM117.38 78.22C118.25 80.69 118.75 83.33 118.75 86.09C118.75 98.18 109.66 108.16 97.96 109.63L97.96 136.77C100.78 137.12 103.44 137.96 105.86 139.21L132.89 93.71L121.52 76.15L117.38 78.22ZM95 178.12C104.82 178.12 112.81 170.13 112.81 160.31C112.81 150.48 104.82 142.5 95 142.5C85.17 142.5 77.18 150.48 77.18 160.31C77.18 170.13 85.17 178.12 95 178.12ZM29.68 77.18C19.86 77.18 11.87 85.17 11.87 95C11.87 104.82 19.86 112.81 29.68 112.81C39.51 112.81 47.5 104.82 47.5 95C47.5 85.17 39.51 77.18 29.68 77.18ZM95 11.87C85.17 11.87 77.18 19.86 77.18 29.68C77.18 39.51 85.17 47.5 95 47.5C104.82 47.5 112.81 39.51 112.81 29.68C112.81 19.86 104.82 11.87 95 11.87ZM116.11 40.51C114.65 43.33 112.67 45.82 110.27 47.84L123.61 68.46L137.92 61.3C137.06 58.84 136.56 56.19 136.56 53.43C136.56 51.63 136.78 49.87 137.16 48.18L116.11 40.51ZM178.12 53.43C178.12 43.61 170.13 35.62 160.31 35.62C150.48 35.62 142.5 43.61 142.5 53.43C142.5 63.26 150.48 71.25 160.31 71.25C170.13 71.25 178.12 63.26 178.12 53.43ZM145.72 72.13C143.73 70.58 141.98 68.72 140.57 66.62L126.87 73.47L136.28 88.01L145.72 72.13Z" fill="#FFFFFF" fill-opacity="1.000000" fill-rule="nonzero"/>
	</g>
</svg>
