<svg width="60.000000" height="60.000000" viewBox="0 0 60 60" fill="none" xmlns="http://www.w3.org/2000/svg" xmlns:xlink="http://www.w3.org/1999/xlink">
	
	<defs/>
	<path id="10.Linkedin" d="M30 0C24.06 0 18.26 1.75 13.33 5.05C8.39 8.35 4.55 13.03 2.28 18.51C0.01 24 -0.59 30.03 0.57 35.85C1.73 41.67 4.59 47.01 8.78 51.21C12.98 55.4 18.32 58.26 24.14 59.42C29.96 60.58 35.99 59.98 41.48 57.71C46.96 55.44 51.64 51.6 54.94 46.66C58.24 41.73 60 35.93 60 30C60 22.04 56.83 14.41 51.21 8.78C45.58 3.16 37.95 0 30 0ZM21.27 45.78L14.73 45.78L14.73 24.7L21.27 24.7L21.27 45.78ZM18 21.82C17.24 21.83 16.5 21.61 15.88 21.19C15.25 20.78 14.76 20.18 14.47 19.49C14.18 18.79 14.1 18.03 14.24 17.29C14.38 16.55 14.74 15.87 15.27 15.33C15.8 14.8 16.48 14.43 17.22 14.28C17.96 14.13 18.72 14.2 19.42 14.49C20.12 14.77 20.71 15.26 21.14 15.88C21.56 16.51 21.78 17.24 21.79 18C21.79 19 21.39 19.98 20.68 20.69C19.97 21.41 19.01 21.82 18 21.82ZM45.78 45.78L39.24 45.78L39.24 35.52C39.24 33.07 39.2 29.94 35.84 29.94C32.49 29.94 31.89 32.6 31.89 35.34L31.89 45.78L25.38 45.78L25.38 24.7L31.66 24.7L31.66 27.58L31.75 27.58C32.62 25.92 34.76 24.17 37.94 24.17C44.56 24.17 45.78 28.53 45.78 34.2L45.78 45.78Z" fill="#FFFFFF" fill-opacity="1.000000" fill-rule="nonzero"/>
</svg>
