<svg width="354.477539" height="354.644775" viewBox="0 0 354.478 354.645" fill="none" xmlns="http://www.w3.org/2000/svg" xmlns:xlink="http://www.w3.org/1999/xlink">
	
	<defs/>
	<g opacity="0.100000">
		<path id="path2" d="M118.69 115.89L118.69 0L354.47 0L354.47 240.82L242.36 354.64L0 354.64L0 116.89L118.69 116.89L118.69 115.89ZM118.69 117.89L118.69 116.89L243.66 116.89L243.66 241.93L242.66 241.93L119.69 241.93L118.69 241.93L118.69 117.89ZM119.69 115.89L244.66 115.89L244.66 242.93L117.69 242.93L117.69 117.89L1 117.89L1 353.64L241.94 353.64L353.47 240.41L353.47 1L119.69 1L119.69 115.89Z" fill="#FFFFFF" fill-opacity="1.000000" fill-rule="evenodd"/>
	</g>
</svg>
