<svg width="60.000000" height="60.000000" viewBox="0 0 60 60" fill="none" xmlns="http://www.w3.org/2000/svg" xmlns:xlink="http://www.w3.org/1999/xlink">
	
	<defs>
		<clipPath id="clip346_107">
			<rect id="fi_5968933" rx="0.000000" width="59.000000" height="59.000000" transform="translate(0.500000 0.500000)" fill="white" fill-opacity="0"/>
		</clipPath>
	</defs>
	<rect id="fi_5968933" rx="0.000000" width="59.000000" height="59.000000" transform="translate(0.500000 0.500000)" fill="#FFFFFF" fill-opacity="0"/>
	<g clip-path="url(#clip346_107)">
		<path id="Vector" d="M60 30C60 46.56 46.56 60 30 60C13.43 60 0 46.56 0 30C0 13.43 13.43 0 30 0C46.56 0 60 13.43 60 30Z" fill="#FFFFFF" fill-opacity="1.000000" fill-rule="evenodd"/>
		<path id="Vector" d="M32.91 30C32.91 37.14 27.16 42.94 20.06 42.94C12.96 42.94 7.2 37.14 7.2 30C7.2 22.85 12.96 17.05 20.06 17.05C27.16 17.05 32.91 22.85 32.91 30Z" fill="#000000" fill-opacity="1.000000" fill-rule="nonzero"/>
		<path id="Vector" d="M47.02 30C47.02 36.73 44.14 42.18 40.59 42.18C37.04 42.18 34.16 36.73 34.16 30C34.16 23.27 37.04 17.81 40.59 17.81C44.14 17.81 47.02 23.27 47.02 30Z" fill="#000000" fill-opacity="1.000000" fill-rule="nonzero"/>
		<path id="Vector" d="M52.79 30C52.79 36.02 51.78 40.91 50.53 40.91C49.28 40.91 48.27 36.02 48.27 30C48.27 23.97 49.28 19.08 50.53 19.08C51.78 19.08 52.79 23.97 52.79 30Z" fill="#000000" fill-opacity="1.000000" fill-rule="nonzero"/>
	</g>
</svg>
