<svg width="499.017578" height="687.505615" viewBox="0 0 499.018 687.506" fill="none" xmlns="http://www.w3.org/2000/svg" xmlns:xlink="http://www.w3.org/1999/xlink">
	
	<defs/>
	<g opacity="0.100000">
		<path id="path2" d="M179.92 364.74L179.92 207.54L499.01 207.54L499.01 533.47L347.28 687.5L19.28 687.5L19.28 365.74L179.92 365.74L179.92 364.74ZM179.92 366.74L179.92 365.74L349.05 365.74L349.05 534.96L179.92 534.96L179.92 366.74ZM180.92 364.74L350.05 364.74L350.05 535.96L178.92 535.96L178.92 366.74L20.28 366.74L20.28 686.5L346.86 686.5L498.01 533.06L498.01 208.54L180.92 208.54L180.92 364.74Z" fill="#FFFFFF" fill-opacity="1.000000" fill-rule="evenodd"/>
		<path id="path3" d="M90.99 182.07C141.24 182.07 181.98 141.31 181.98 91.03C181.98 40.75 141.24 0 90.99 0C40.73 0 0 40.75 0 91.03C0 141.31 40.73 182.07 90.99 182.07ZM71.2 178.9Q80.85 181.07 90.99 181.07Q101.13 181.07 110.78 178.9Q118.56 177.15 126.02 173.99Q133.57 170.8 140.32 166.37Q148 161.33 154.62 154.7Q161.22 148.1 166.24 140.46Q170.7 133.68 173.91 126.08Q177.06 118.64 178.81 110.88Q180.98 101.2 180.98 91.03Q180.98 80.87 178.81 71.2Q177.06 63.44 173.91 55.99Q170.7 48.4 166.25 41.62Q161.23 33.98 154.62 27.37Q147.99 20.73 140.32 15.69Q133.57 11.27 126.02 8.07Q118.56 4.91 110.78 3.16Q101.13 1 90.99 1Q80.85 1 71.2 3.16Q63.42 4.91 55.96 8.07Q48.41 11.27 41.66 15.69Q33.99 20.73 27.35 27.37Q20.75 33.97 15.73 41.62Q11.28 48.39 8.07 55.99Q4.92 63.43 3.17 71.2Q1 80.87 1 91.03Q1 101.19 3.17 110.87Q4.92 118.63 8.07 126.08Q11.28 133.67 15.73 140.45Q20.75 148.09 27.35 154.7Q33.98 161.33 41.66 166.37Q48.41 170.8 55.96 173.99Q63.42 177.15 71.2 178.9Z" fill="#FFFFFF" fill-opacity="1.000000" fill-rule="evenodd"/>
	</g>
</svg>
