<svg width="190.000000" height="190.000000" viewBox="0 0 190 190" fill="none" xmlns="http://www.w3.org/2000/svg" xmlns:xlink="http://www.w3.org/1999/xlink">
	
	<defs>
		<clipPath id="clip385_611">
			<rect id="fi_649642" rx="0.000000" width="189.000000" height="189.000000" transform="translate(0.500000 0.500000)" fill="white" fill-opacity="0"/>
		</clipPath>
	</defs>
	<rect id="fi_649642" rx="0.000000" width="189.000000" height="189.000000" transform="translate(0.500000 0.500000)" fill="#FFFFFF" fill-opacity="0"/>
	<g clip-path="url(#clip385_611)">
		<path id="Vector" d="M99.33 121.71L99.33 91.57L86.23 89.39L71.31 121.71L99.33 121.71Z" fill="#AD954F" fill-opacity="1.000000" fill-rule="nonzero"/>
		<path id="Vector" d="M60.36 148.43L70.37 148.43L63.82 125.5L63.83 125.5C63.63 124.82 63.67 124.09 63.98 123.44L81.55 85.36L84.39 34.28L74.12 28.12L51.9 86.44L60.36 148.43Z" fill="#AD954F" fill-opacity="1.000000" fill-rule="nonzero"/>
		<path id="Vector" d="M118.36 89.39L105.27 91.57L105.27 121.71L133.28 121.71L118.36 89.39Z" fill="#AD954F" fill-opacity="1.000000" fill-rule="nonzero"/>
		<path id="Vector" d="M162.35 0.08C161.02 -0.24 159.63 0.41 159.01 1.64L118.13 83.41L102.3 86.05L87.6 83.6L90.42 32.82C90.48 31.72 89.93 30.68 88.98 30.11L74.61 21.2C73.86 20.76 72.61 20.67 72.61 20.94L72.61 20.93L27.61 35.78C26.31 36.21 25.24 37.48 25.36 38.84C25.47 40.21 26.39 41.31 27.75 41.53L60.78 46.62L46.12 85.04C45.94 85.5 45.87 86 45.93 86.49L54.83 151.81C55.03 153.28 56.28 154.37 57.77 154.37L72.07 154.37L75.69 167.06C75.85 167.61 76.16 168.1 76.59 168.48L100.34 189.26C100.9 189.75 101.6 190 102.3 190C102.99 190 103.69 189.75 104.25 189.26L128 168.48C128.43 168.1 128.74 167.61 128.9 167.06L140.67 125.88L164.2 87.64C164.49 87.18 164.64 86.64 164.64 86.09L164.64 2.96C164.64 1.59 163.69 0.39 162.35 0.08ZM86.23 89.39L99.33 91.57L99.33 121.71L71.31 121.71L86.23 89.39ZM105.27 91.57L118.36 89.39L133.28 121.71L105.27 121.71L105.27 91.57ZM40.67 37.52L67.6 28.55L62.88 40.94L40.67 37.52ZM60.36 148.43L51.9 86.44L74.12 28.12L84.39 34.28L81.55 85.36L63.98 123.44C63.68 124.09 63.64 124.82 63.83 125.5L63.82 125.5L70.37 148.43L60.36 148.43ZM123.43 164.59L102.3 183.08L81.16 164.59L70.61 127.65L133.98 127.65L123.43 164.59ZM158.7 85.25L138.3 118.41L123.4 86.14L158.7 15.54L158.7 85.25Z" fill="#FFFFFF" fill-opacity="1.000000" fill-rule="nonzero"/>
	</g>
</svg>
