<svg width="190.000000" height="190.000000" viewBox="0 0 190 190" fill="none" xmlns="http://www.w3.org/2000/svg" xmlns:xlink="http://www.w3.org/1999/xlink">
	
	<defs>
		<clipPath id="clip36_75">
			<rect id="fi_1240422" rx="0.000000" width="189.000000" height="189.000000" transform="matrix(-1 0 0 1 190.5 0.5)" fill="white" fill-opacity="0"/>
		</clipPath>
	</defs>
	<rect id="fi_1240422" rx="0.000000" width="189.000000" height="189.000000" transform="matrix(-1 0 0 1 190.5 0.5)" fill="#FFFFFF" fill-opacity="0"/>
	<g clip-path="url(#clip36_75)">
		<path id="Vector" d="M33.25 50.66L80.75 129.83L64.91 60.16L33.25 50.66Z" fill="#AD954F" fill-opacity="1.000000" fill-rule="nonzero"/>
		<path id="Vector" d="M33.25 50.66L64.91 60.16L52.24 31.66L33.25 50.66Z" fill="#AD954F" fill-opacity="1.000000" fill-rule="nonzero"/>
		<path id="Vector" d="M52.25 31.66L64.91 60.16L80.75 31.66L52.25 31.66Z" fill="#AD954F" fill-opacity="1.000000" fill-rule="nonzero"/>
		<path id="Vector" d="M80.74 31.66L64.91 60.16L96.58 60.16L80.74 31.66Z" fill="#AD954F" fill-opacity="1.000000" fill-rule="nonzero"/>
		<path id="Vector" d="M64.91 60.16L80.74 129.83L96.58 60.16L64.91 60.16Z" fill="#AD954F" fill-opacity="1.000000" fill-rule="nonzero"/>
		<path id="Vector" d="M80.74 0C124.4 0 159.91 35.51 159.91 79.16L159.91 81.34L187.85 121.69C188.22 122.22 188.41 122.85 188.41 123.5L188.41 129.83C188.41 131.58 187 133 185.25 133L159.91 133L159.91 167.83C159.91 169.58 158.5 171 156.75 171L102.91 171L102.91 186.83C102.91 188.58 101.5 190 99.74 190L20.58 190C18.83 190 17.41 188.58 17.41 186.83L17.41 140.64L2.51 125.73C1.91 125.14 1.58 124.34 1.58 123.5L1.58 79.16C1.58 35.51 37.09 0 80.74 0ZM7.91 122.18L22.82 137.09C23.41 137.68 23.74 138.49 23.74 139.33L23.74 183.66L96.58 183.66L96.58 171L90.24 171L90.24 164.66L153.58 164.66L153.58 151.71C144.61 150.2 137.75 142.39 137.75 133L144.08 133C144.08 138.88 148.13 143.8 153.58 145.21L153.58 129.83C153.58 128.08 154.99 126.66 156.75 126.66L182.08 126.66L182.08 124.48L154.14 84.13C153.78 83.6 153.58 82.97 153.58 82.33L153.58 79.16C153.58 39 120.91 6.33 80.74 6.33C40.58 6.33 7.91 39 7.91 79.16L7.91 122.18Z" fill="#FFFFFF" fill-opacity="1.000000" fill-rule="nonzero"/>
		<path id="Vector" d="M50.01 29.42C50.6 28.83 51.4 28.5 52.25 28.5L109.25 28.5C110.09 28.5 110.89 28.83 111.48 29.42L130.48 48.42C131.51 49.45 131.71 51.05 130.96 52.29L83.46 131.46C83.45 131.47 83.44 131.48 83.43 131.49C83.4 131.55 83.35 131.59 83.31 131.65C83.16 131.86 82.99 132.05 82.8 132.21C82.72 132.28 82.65 132.33 82.56 132.39C82.37 132.53 82.18 132.64 81.97 132.72C81.88 132.76 81.79 132.8 81.7 132.83C81.39 132.93 81.08 133 80.75 133C80.41 133 80.1 132.93 79.79 132.83C79.69 132.8 79.61 132.76 79.52 132.72C79.31 132.63 79.11 132.52 78.93 132.39C78.84 132.33 78.77 132.28 78.69 132.21C78.5 132.04 78.33 131.85 78.18 131.65C78.15 131.59 78.09 131.55 78.06 131.49C78.05 131.48 78.04 131.47 78.03 131.46L30.53 52.29C29.78 51.04 29.98 49.45 31.01 48.42L50.01 29.42ZM68.88 63.33L80.75 115.54L92.61 63.33L68.88 63.33ZM91.2 57L80.75 38.19L70.29 57L91.2 57ZM51.22 37.16L39.23 49.15L59.22 55.15L51.22 37.16ZM65.23 53.08L75.36 34.83L57.12 34.83L65.23 53.08ZM96.26 53.08L104.37 34.83L86.13 34.83L96.26 53.08ZM102.27 55.15L122.26 49.15L110.27 37.16L102.27 55.15ZM99.26 62.66L88.22 111.21L121.32 56.05L99.26 62.66ZM62.23 62.66L40.17 56.05L73.27 111.21L62.23 62.66Z" fill="#FFFFFF" fill-opacity="1.000000" fill-rule="nonzero"/>
		<path id="Vector" d="M52.25 114L45.91 114L45.91 120.33L52.25 120.33L52.25 114Z" fill="#FFFFFF" fill-opacity="1.000000" fill-rule="nonzero"/>
		<path id="Vector" d="M52.25 126.66L45.91 126.66L45.91 133L52.25 133L52.25 126.66Z" fill="#FFFFFF" fill-opacity="1.000000" fill-rule="nonzero"/>
		<path id="Vector" d="M64.91 126.66L58.58 126.66L58.58 133L64.91 133L64.91 126.66Z" fill="#FFFFFF" fill-opacity="1.000000" fill-rule="nonzero"/>
		<path id="Vector" d="M39.58 126.66L33.24 126.66L33.24 133L39.58 133L39.58 126.66Z" fill="#FFFFFF" fill-opacity="1.000000" fill-rule="nonzero"/>
		<path id="Vector" d="M115.58 114L109.25 114L109.25 120.33L115.58 120.33L115.58 114Z" fill="#FFFFFF" fill-opacity="1.000000" fill-rule="nonzero"/>
		<path id="Vector" d="M115.58 126.66L109.25 126.66L109.25 133L115.58 133L115.58 126.66Z" fill="#FFFFFF" fill-opacity="1.000000" fill-rule="nonzero"/>
		<path id="Vector" d="M102.91 126.66L96.58 126.66L96.58 133L102.91 133L102.91 126.66Z" fill="#FFFFFF" fill-opacity="1.000000" fill-rule="nonzero"/>
		<path id="Vector" d="M128.25 126.66L121.91 126.66L121.91 133L128.25 133L128.25 126.66Z" fill="#FFFFFF" fill-opacity="1.000000" fill-rule="nonzero"/>
	</g>
</svg>
