<svg width="190.000000" height="190.000000" viewBox="0 0 190 190" fill="none" xmlns="http://www.w3.org/2000/svg" xmlns:xlink="http://www.w3.org/1999/xlink">
	
	<defs>
		<clipPath id="clip266_1400">
			<rect id="fi_3023711" rx="0.000000" width="189.000000" height="189.000000" transform="translate(0.500000 0.500000)" fill="white" fill-opacity="0"/>
		</clipPath>
	</defs>
	<rect id="fi_3023711" rx="0.000000" width="189.000000" height="189.000000" transform="translate(0.500000 0.500000)" fill="#FFFFFF" fill-opacity="0"/>
	<g clip-path="url(#clip266_1400)">
		<path id="Vector" d="M95 112.81L71.25 181.09L44.53 181.09L68.28 112.81L68.28 74.21L35.62 106.87L20.78 92.03L55.38 57.42C59.84 52.97 65.88 50.46 72.18 50.46L117.81 50.46C124.11 50.46 130.15 52.97 134.61 57.42L169.21 92.03L154.37 106.87L121.71 74.21L121.71 112.81L148.43 181.09L121.71 181.09L95 112.81Z" fill="#AD954F" fill-opacity="1.000000" fill-rule="nonzero"/>
		<path id="Vector" d="M115.78 29.68C115.78 41.16 106.47 50.46 95 50.46C83.52 50.46 74.21 41.16 74.21 29.68C74.21 18.21 83.52 8.9 95 8.9C106.47 8.9 115.78 18.21 115.78 29.68Z" fill="#AD954F" fill-opacity="1.000000" fill-rule="evenodd"/>
		<path id="Vector" d="M97.54 73.25L95 75.66L92.45 73.25C89.64 70.58 85.07 70.58 82.26 73.25C79.45 75.92 79.45 80.24 82.26 82.91L95 95L107.73 82.91C110.54 80.24 110.54 75.92 107.73 73.25C104.92 70.58 100.36 70.58 97.54 73.25Z" fill="#000000" fill-opacity="1.000000" fill-rule="nonzero"/>
		<path id="Vector" d="M79.34 47.5L72.18 47.5C65.04 47.5 58.33 50.27 53.28 55.32L18.68 89.93C18.12 90.48 17.81 91.24 17.81 92.03C17.81 92.81 18.12 93.57 18.68 94.13L33.52 108.97C34.68 110.13 36.56 110.13 37.72 108.97L65.31 81.38L65.31 112.31L41.72 180.11C41.41 181.02 41.55 182.03 42.11 182.81C42.66 183.59 43.57 184.06 44.53 184.06L71.25 184.06C72.51 184.06 73.63 183.26 74.05 182.06L95.16 121.37L118.95 182.17C119.39 183.31 120.49 184.06 121.71 184.06L148.43 184.06C149.41 184.06 150.33 183.57 150.89 182.76C151.44 181.95 151.56 180.92 151.2 180.01L124.68 112.25L124.68 81.38L152.27 108.97C153.43 110.13 155.31 110.13 156.47 108.97L171.31 94.13C171.87 93.57 172.18 92.81 172.18 92.03C172.18 91.24 171.87 90.48 171.31 89.93L136.71 55.32C131.66 50.27 124.95 47.5 117.81 47.5L110.65 47.5C115.6 43.14 118.75 36.78 118.75 29.68C118.75 16.59 108.09 5.93 95 5.93C81.9 5.93 71.25 16.59 71.25 29.68C71.25 36.78 74.39 43.14 79.34 47.5ZM117.81 53.43C123.37 53.43 128.58 55.59 132.51 59.52L165.02 92.03L154.37 102.67L123.81 72.11C122.96 71.27 121.69 71.01 120.58 71.47C119.47 71.93 118.75 73.01 118.75 74.21L118.75 112.81C118.75 113.18 118.81 113.54 118.95 113.89L144.08 178.12L123.74 178.12L97.76 111.73C97.31 110.59 96.22 109.84 95 109.84C94.98 109.84 94.96 109.84 94.94 109.84C93.7 109.86 92.6 110.66 92.19 111.83L69.13 178.12L48.7 178.12L71.08 113.78C71.19 113.47 71.25 113.14 71.25 112.81L71.25 74.21C71.25 73.01 70.52 71.93 69.41 71.47C68.3 71.01 67.03 71.27 66.18 72.11L35.62 102.67L24.97 92.03L57.48 59.52C61.41 55.59 66.62 53.43 72.18 53.43L117.81 53.43ZM95 11.87C104.82 11.87 112.81 19.86 112.81 29.68C112.81 39.5 104.82 47.5 95 47.5C85.17 47.5 77.18 39.5 77.18 29.68C77.18 19.86 85.17 11.87 95 11.87Z" fill="#FFFFFF" fill-opacity="1.000000" fill-rule="nonzero"/>
		<path id="Vector" d="M92.95 97.15C93.53 97.69 94.26 97.96 95 97.96C95.73 97.96 96.46 97.69 97.04 97.15L109.77 85.07C111.73 83.21 112.81 80.73 112.81 78.08C112.81 75.43 111.73 72.95 109.77 71.09C105.84 67.36 99.43 67.36 95.5 71.09C95.5 71.09 95.5 71.09 95.5 71.09L95 71.57L94.49 71.09C90.56 67.36 84.16 67.36 80.22 71.09C78.26 72.95 77.18 75.43 77.18 78.08C77.18 80.73 78.26 83.21 80.22 85.07L92.95 97.15ZM84.31 75.4C85.15 74.6 86.25 74.2 87.36 74.2C88.46 74.2 89.56 74.6 90.41 75.4L92.95 77.82C94.1 78.9 95.89 78.9 97.04 77.82L99.58 75.4C101.27 73.81 104 73.81 105.69 75.4C106.45 76.13 106.87 77.08 106.87 78.08C106.87 79.08 106.45 80.03 105.68 80.76L95 90.9L84.3 80.76C83.54 80.03 83.12 79.08 83.12 78.08C83.12 77.08 83.54 76.13 84.31 75.4Z" fill="#FFFFFF" fill-opacity="1.000000" fill-rule="nonzero"/>
		<path id="Vector" d="M179.97 108.9L174.11 107.95C173.8 109.84 173.42 111.75 172.98 113.61L178.76 114.98C179.23 112.98 179.64 110.93 179.97 108.9Z" fill="#FFFFFF" fill-opacity="1.000000" fill-rule="nonzero"/>
		<path id="Vector" d="M181.07 96.56L175.14 96.46C175.11 98.38 175 100.31 174.83 102.22L180.74 102.75C180.93 100.7 181.04 98.62 181.07 96.56Z" fill="#FFFFFF" fill-opacity="1.000000" fill-rule="nonzero"/>
		<path id="Vector" d="M175.04 90.68L180.97 90.37C180.85 88.3 180.67 86.22 180.42 84.19L174.53 84.93C174.76 86.82 174.93 88.75 175.04 90.68Z" fill="#FFFFFF" fill-opacity="1.000000" fill-rule="nonzero"/>
		<path id="Vector" d="M172.52 132.47L167.18 129.88C166.34 131.59 165.43 133.31 164.47 134.98L169.61 137.95C170.65 136.15 171.63 134.31 172.52 132.47Z" fill="#FFFFFF" fill-opacity="1.000000" fill-rule="nonzero"/>
		<path id="Vector" d="M166.32 143.2L161.41 139.87C160.34 141.45 159.19 143.02 158 144.53L162.66 148.21C163.95 146.58 165.18 144.89 166.32 143.2Z" fill="#FFFFFF" fill-opacity="1.000000" fill-rule="nonzero"/>
		<path id="Vector" d="M150.22 153.06L154.32 157.37C155.81 155.95 157.26 154.46 158.66 152.94L154.27 148.94C152.97 150.36 151.61 151.75 150.22 153.06Z" fill="#FFFFFF" fill-opacity="1.000000" fill-rule="nonzero"/>
		<path id="Vector" d="M173.6 79.23L179.43 78.07C179.02 76.04 178.54 74.01 177.99 72.03L172.27 73.62C172.78 75.45 173.23 77.34 173.6 79.23Z" fill="#FFFFFF" fill-opacity="1.000000" fill-rule="nonzero"/>
		<path id="Vector" d="M136.9 19.8C135.1 18.79 133.24 17.84 131.38 16.97L128.87 22.35C130.6 23.16 132.33 24.04 134.01 24.98L136.9 19.8Z" fill="#FFFFFF" fill-opacity="1.000000" fill-rule="nonzero"/>
		<path id="Vector" d="M147.26 26.6C145.64 25.36 143.93 24.15 142.2 23.01L138.94 27.98C140.56 29.03 142.14 30.16 143.65 31.31L147.26 26.6Z" fill="#FFFFFF" fill-opacity="1.000000" fill-rule="nonzero"/>
		<path id="Vector" d="M159.76 47.77L164.55 44.27C163.33 42.6 162.04 40.96 160.71 39.4L156.19 43.24C157.42 44.69 158.62 46.22 159.76 47.77Z" fill="#FFFFFF" fill-opacity="1.000000" fill-rule="nonzero"/>
		<path id="Vector" d="M156.54 34.81C155.08 33.33 153.57 31.89 152.04 30.54L148.11 34.99C149.53 36.24 150.94 37.58 152.3 38.97L156.54 34.81Z" fill="#FFFFFF" fill-opacity="1.000000" fill-rule="nonzero"/>
		<path id="Vector" d="M165.88 57.55L171.13 54.77C170.16 52.95 169.12 51.14 168.03 49.4L163 52.55C164.01 54.17 164.98 55.85 165.88 57.55Z" fill="#FFFFFF" fill-opacity="1.000000" fill-rule="nonzero"/>
		<path id="Vector" d="M170.53 68.11L176.12 66.12C175.43 64.18 174.66 62.24 173.83 60.35L168.39 62.75C169.17 64.5 169.89 66.31 170.53 68.11Z" fill="#FFFFFF" fill-opacity="1.000000" fill-rule="nonzero"/>
		<path id="Vector" d="M177.1 120.96L171.44 119.17C170.86 121.01 170.21 122.83 169.5 124.6L175.02 126.8C175.77 124.9 176.47 122.93 177.1 120.96Z" fill="#FFFFFF" fill-opacity="1.000000" fill-rule="nonzero"/>
		<path id="Vector" d="M39.72 153.02C38.31 151.68 36.95 150.29 35.68 148.89L31.29 152.88C32.65 154.38 34.11 155.88 35.62 157.32L39.72 153.02Z" fill="#FFFFFF" fill-opacity="1.000000" fill-rule="nonzero"/>
		<path id="Vector" d="M20.46 124.53C19.75 122.74 19.1 120.91 18.53 119.09L12.86 120.87C13.48 122.83 14.18 124.8 14.94 126.72L20.46 124.53Z" fill="#FFFFFF" fill-opacity="1.000000" fill-rule="nonzero"/>
		<path id="Vector" d="M51.13 27.92L47.88 22.95C46.17 24.07 44.47 25.28 42.82 26.53L46.42 31.26C47.95 30.08 49.54 28.96 51.13 27.92Z" fill="#FFFFFF" fill-opacity="1.000000" fill-rule="nonzero"/>
		<path id="Vector" d="M31.95 144.48C30.77 142.98 29.62 141.42 28.54 139.82L23.63 143.14C24.79 144.86 26.02 146.55 27.29 148.15L31.95 144.48Z" fill="#FFFFFF" fill-opacity="1.000000" fill-rule="nonzero"/>
		<path id="Vector" d="M41.95 34.92L38.02 30.47C36.47 31.84 34.96 33.28 33.53 34.74L37.77 38.89C39.1 37.54 40.51 36.2 41.95 34.92Z" fill="#FFFFFF" fill-opacity="1.000000" fill-rule="nonzero"/>
		<path id="Vector" d="M25.48 134.92C24.53 133.27 23.63 131.55 22.79 129.81L17.44 132.4C18.34 134.26 19.32 136.11 20.34 137.88L25.48 134.92Z" fill="#FFFFFF" fill-opacity="1.000000" fill-rule="nonzero"/>
		<path id="Vector" d="M61.22 22.31L58.71 16.93C56.84 17.8 54.98 18.74 53.19 19.74L56.07 24.93C57.74 24 59.47 23.12 61.22 22.31Z" fill="#FFFFFF" fill-opacity="1.000000" fill-rule="nonzero"/>
		<path id="Vector" d="M15.48 84.83L9.59 84.08C9.33 86.11 9.14 88.18 9.03 90.26L14.95 90.58C15.06 88.65 15.24 86.72 15.48 84.83Z" fill="#FFFFFF" fill-opacity="1.000000" fill-rule="nonzero"/>
		<path id="Vector" d="M17.75 73.52L12.03 71.93C11.48 73.9 11 75.93 10.59 77.96L16.41 79.13C16.79 77.24 17.24 75.35 17.75 73.52Z" fill="#FFFFFF" fill-opacity="1.000000" fill-rule="nonzero"/>
		<path id="Vector" d="M15.15 102.12C14.98 100.23 14.88 98.29 14.85 96.35L8.91 96.45C8.95 98.53 9.06 100.61 9.24 102.64L15.15 102.12Z" fill="#FFFFFF" fill-opacity="1.000000" fill-rule="nonzero"/>
		<path id="Vector" d="M27.05 52.47L22.02 49.31C20.92 51.06 19.88 52.86 18.91 54.68L24.16 57.46C25.06 55.78 26.03 54.09 27.05 52.47Z" fill="#FFFFFF" fill-opacity="1.000000" fill-rule="nonzero"/>
		<path id="Vector" d="M33.87 43.16L29.35 39.31C28.01 40.88 26.72 42.52 25.5 44.18L30.29 47.69C31.42 46.15 32.62 44.62 33.87 43.16Z" fill="#FFFFFF" fill-opacity="1.000000" fill-rule="nonzero"/>
		<path id="Vector" d="M21.63 62.65L16.2 60.26C15.36 62.17 14.59 64.11 13.91 66.02L19.49 68.01C20.13 66.24 20.85 64.43 21.63 62.65Z" fill="#FFFFFF" fill-opacity="1.000000" fill-rule="nonzero"/>
		<path id="Vector" d="M10 108.8C10.33 110.82 10.74 112.87 11.21 114.89L16.99 113.52C16.55 111.64 16.17 109.74 15.87 107.86L10 108.8Z" fill="#FFFFFF" fill-opacity="1.000000" fill-rule="nonzero"/>
		<path id="Vector" d="M91.88 181.03L92.1 175.1C90.19 175.03 88.25 174.89 86.34 174.68L85.7 180.58C87.75 180.81 89.83 180.96 91.88 181.03Z" fill="#FFFFFF" fill-opacity="1.000000" fill-rule="nonzero"/>
		<path id="Vector" d="M98.09 181.03C100.16 180.96 102.24 180.81 104.28 180.58L103.63 174.68C101.73 174.89 99.8 175.03 97.87 175.1L98.09 181.03Z" fill="#FFFFFF" fill-opacity="1.000000" fill-rule="nonzero"/>
	</g>
</svg>
