<svg width="70.000000" height="70.000000" viewBox="0 0 70 70" fill="none" xmlns="http://www.w3.org/2000/svg" xmlns:xlink="http://www.w3.org/1999/xlink">
	
	<defs>
		<clipPath id="clip9_185">
			<rect id="fi_18252226" rx="0.000000" width="69.000000" height="69.000000" transform="translate(0.500000 0.500000)" fill="white" fill-opacity="0"/>
		</clipPath>
	</defs>
	<rect id="fi_18252226" rx="0.000000" width="69.000000" height="69.000000" transform="translate(0.500000 0.500000)" fill="#FFFFFF" fill-opacity="0"/>
	<g clip-path="url(#clip9_185)">
		<path id="Vector" d="M34.97 53.48C31.85 56.18 27.9 59.84 23.85 62.44C20.77 64.42 17.62 65.77 14.71 65.77C7.12 65.77 0.96 59.61 0.96 52.02C0.96 44.42 7.12 38.27 14.71 38.27C18.03 38.27 21.66 40.04 25.15 42.47L24.69 40.74C24.53 40.16 24.88 39.56 25.46 39.4C26.05 39.24 26.65 39.59 26.81 40.17L27.94 44.38C28.09 44.97 27.74 45.57 27.16 45.72L22.95 46.85C22.37 47.01 21.77 46.66 21.61 46.08C21.45 45.49 21.8 44.89 22.39 44.73C22.39 44.73 23.17 44.52 23.96 44.31C20.86 42.13 17.66 40.46 14.71 40.46C8.33 40.46 3.15 45.63 3.15 52.02C3.15 58.4 8.33 63.58 14.71 63.58C17.25 63.58 19.98 62.32 22.67 60.6C26.95 57.84 31.12 53.86 34.29 51.18L34.3 51.2C37.53 48.47 41.78 44.43 46.14 41.63C49.22 39.65 52.37 38.3 55.28 38.3C62.87 38.3 69.03 44.46 69.03 52.05C69.03 59.65 62.87 65.81 55.28 65.81C52.37 65.81 49.22 64.46 46.14 62.48C42.07 59.87 38.11 56.18 34.97 53.48ZM36.68 52.05C39.71 54.68 43.47 58.15 47.32 60.63C50.01 62.36 52.74 63.61 55.28 63.61C61.66 63.61 66.84 58.44 66.84 52.05C66.84 45.67 61.66 40.5 55.28 40.5C52.74 40.5 50.01 41.75 47.32 43.48C43.47 45.95 39.71 49.43 36.68 52.05ZM22.52 34.09L8.44 34.09C7.84 34.09 7.35 33.59 7.35 32.99L7.35 28.24C7.35 27.79 7.63 27.38 8.05 27.22L11.92 25.73C12.47 23.66 13.29 21.68 14.36 19.83L12.68 16.04C12.49 15.63 12.58 15.14 12.91 14.82L17.98 9.74C18.31 9.42 18.79 9.33 19.21 9.52C19.21 9.52 23 11.2 23 11.2C24.84 10.12 26.82 9.3 28.89 8.76L30.38 4.89C30.55 4.46 30.95 4.18 31.41 4.18L38.59 4.18C39.05 4.18 39.45 4.46 39.62 4.89L41.1 8.76C43.17 9.31 45.15 10.12 46.99 11.2L50.78 9.52C51.2 9.33 51.69 9.42 52.01 9.74L57.09 14.82C57.41 15.14 57.5 15.63 57.31 16.04C57.31 16.04 55.63 19.83 55.63 19.83C56.71 21.68 57.53 23.66 58.07 25.73L61.94 27.22C62.36 27.38 62.64 27.79 62.64 28.24L62.64 32.99C62.64 33.59 62.15 34.09 61.55 34.09L47.48 34.09C47.17 34.09 46.88 33.96 46.67 33.73C46.46 33.5 46.36 33.2 46.39 32.89C46.42 32.54 46.43 32.19 46.43 31.83C46.43 25.52 41.31 20.4 35 20.4C28.68 20.4 23.56 25.52 23.56 31.83C23.56 32.19 23.58 32.54 23.61 32.89C23.64 33.2 23.54 33.5 23.33 33.73C23.12 33.96 22.83 34.09 22.52 34.09ZM21.37 31.89C21.37 31.87 21.37 31.85 21.37 31.83C21.37 24.3 27.46 18.2 35 18.2C42.53 18.2 48.63 24.3 48.63 31.83C48.63 31.85 48.63 31.87 48.63 31.89L60.45 31.89L60.45 29L56.75 27.58C56.42 27.45 56.16 27.16 56.08 26.8C55.55 24.57 54.67 22.44 53.46 20.49C53.27 20.18 53.25 19.8 53.39 19.47L55 15.84L50.99 11.83L47.36 13.44C47.03 13.59 46.65 13.56 46.34 13.37C44.39 12.17 42.26 11.29 40.03 10.76C39.68 10.67 39.39 10.42 39.26 10.08L37.84 6.38L32.16 6.38L30.73 10.08C30.6 10.42 30.31 10.67 29.96 10.76C27.73 11.29 25.6 12.17 23.65 13.37C23.34 13.56 22.96 13.59 22.63 13.44L19 11.83L14.99 15.84L16.6 19.46C16.75 19.79 16.72 20.18 16.53 20.49C15.33 22.44 14.45 24.57 13.91 26.81C13.83 27.16 13.57 27.45 13.24 27.58L9.54 29L9.54 31.89L21.37 31.89ZM40.19 30.99L35 24.4L29.8 30.99L31.55 30.99C32.16 30.99 32.65 31.48 32.65 32.09L32.65 42.24C32.65 42.84 32.16 43.34 31.55 43.34C30.94 43.34 30.45 42.84 30.45 42.24L30.45 33.19L29.11 33.19C27.54 33.19 26.68 31.39 27.64 30.18L27.64 30.18L33.53 22.7C34.28 21.75 35.71 21.75 36.46 22.7L42.35 30.18C43.31 31.39 42.45 33.19 40.88 33.19L39.54 33.19L39.54 42.24C39.54 42.84 39.05 43.34 38.44 43.34C37.83 43.34 37.34 42.84 37.34 42.24L37.34 32.09C37.34 31.48 37.83 30.99 38.44 30.99L40.19 30.99Z" fill="#FFFFFF" fill-opacity="1.000000" fill-rule="evenodd"/>
	</g>
</svg>
