<svg width="60.000000" height="60.000000" viewBox="0 0 60 60" fill="none" xmlns="http://www.w3.org/2000/svg" xmlns:xlink="http://www.w3.org/1999/xlink">
	
	<defs>
		<clipPath id="clip346_102">
			<rect id="fi_5969020" rx="0.000000" width="59.000000" height="59.000000" transform="translate(0.500000 0.500000)" fill="white" fill-opacity="0"/>
		</clipPath>
	</defs>
	<rect id="fi_5969020" rx="0.000000" width="59.000000" height="59.000000" transform="translate(0.500000 0.500000)" fill="#FFFFFF" fill-opacity="0"/>
	<g clip-path="url(#clip346_102)">
		<path id="Vector" d="M30 0C13.43 0 0 13.43 0 30C0 46.56 13.43 60 30 60C46.56 60 60 46.56 60 30C60 13.43 46.56 0 30 0Z" fill="#FFFFFF" fill-opacity="1.000000" fill-rule="nonzero"/>
		<path id="Vector" d="M33.28 27.28L46.12 12.35L43.08 12.35L31.93 25.31L23.02 12.35L12.75 12.35L26.21 31.95L12.75 47.61L15.79 47.61L27.57 33.92L36.97 47.61L47.24 47.61L33.28 27.28L33.28 27.28ZM16.89 14.64L21.56 14.64L43.08 45.42L38.4 45.42L16.89 14.64Z" fill="#000000" fill-opacity="1.000000" fill-rule="nonzero"/>
	</g>
</svg>
