<svg width="70.000000" height="70.000000" viewBox="0 0 70 70" fill="none" xmlns="http://www.w3.org/2000/svg" xmlns:xlink="http://www.w3.org/1999/xlink">
	
	<defs>
		<clipPath id="clip9_179">
			<rect id="fi_14246016" rx="0.000000" width="69.000000" height="69.000000" transform="translate(0.500000 0.500000)" fill="white" fill-opacity="0"/>
		</clipPath>
	</defs>
	<rect id="fi_14246016" rx="0.000000" width="69.000000" height="69.000000" transform="translate(0.500000 0.500000)" fill="#FFFFFF" fill-opacity="0"/>
	<g clip-path="url(#clip9_179)">
		<path id="Vector" d="M38 35.17C38.68 35.27 39.36 35.41 40.02 35.62C42.44 36.37 45.06 38.2 45.07 41.25C45.07 41.55 45.19 47.91 45.06 49.28C44.93 50.7 44.42 51.48 44.22 51.75C43.99 52.06 43.31 52.77 42.72 53.1C42.35 53.31 41.92 53.52 41.47 53.65L41.47 65.32C41.47 66.3 41.07 67.25 40.37 67.95C39.67 68.64 38.72 69.03 37.73 69.03C36.73 69.03 35.78 68.64 35.08 67.95C35.07 67.93 35.06 67.92 35.04 67.91C35.03 67.92 35.02 67.93 35 67.95C34.31 68.64 33.36 69.03 32.38 69.03C31.39 69.03 30.44 68.64 29.75 67.95C29.05 67.25 28.66 66.3 28.66 65.32L28.66 53.69C28.2 53.58 27.81 53.37 27.44 53.1C26.71 52.56 26.35 52.22 25.89 51.54C25.5 50.95 25.24 50.42 25 49.18C24.75 47.9 24.96 41.88 24.98 41.27C24.83 38.04 27.84 36.24 30.14 35.61C30.79 35.43 31.47 35.29 32.15 35.2C30.89 34.07 30.03 32.15 30.03 29.64C30.03 27.47 30.71 26.22 31.65 25.49C32.56 24.77 33.79 24.53 35.15 24.53C36.52 24.53 37.71 24.78 38.59 25.51C39.46 26.24 40.09 27.48 40.09 29.64C40.09 32.14 39.25 34.04 38 35.17ZM41.47 51.29C41.52 51.26 41.58 51.22 41.64 51.19C41.96 51.01 42.32 50.62 42.45 50.45C42.56 50.3 42.8 49.86 42.88 49.08C43 47.72 42.87 41.29 42.87 41.29C42.87 41.28 42.87 41.27 42.87 41.26C42.87 39.25 40.96 38.21 39.37 37.72C38.03 37.3 36.59 37.19 35.19 37.19C33.74 37.19 32.17 37.33 30.72 37.73C29.91 37.95 28.95 38.35 28.2 38.99C27.58 39.52 27.12 40.24 27.17 41.21C27.17 41.24 27.17 41.27 27.17 41.31C27.17 41.31 26.91 47.5 27.15 48.76C27.31 49.58 27.46 49.93 27.72 50.32C28 50.74 28.23 50.95 28.66 51.27L28.66 42.24C28.66 41.63 29.15 41.14 29.76 41.14C30.36 41.14 30.86 41.63 30.86 42.24L30.86 65.32C30.86 65.72 31.02 66.11 31.3 66.39C31.59 66.68 31.97 66.84 32.38 66.84C32.78 66.84 33.17 66.68 33.45 66.39C33.73 66.11 33.97 65.75 33.98 65.36C33.98 65.33 33.98 65.29 33.98 65.26L33.98 55.57C33.98 54.96 34.47 54.47 35.08 54.47C35.68 54.47 36.18 54.96 36.18 55.57L36.18 65.21C36.18 65.24 36.18 65.28 36.18 65.32C36.18 65.72 36.34 66.1 36.63 66.39C36.92 66.68 37.31 66.84 37.73 66.84C38.14 66.84 38.53 66.68 38.82 66.39C39.11 66.1 39.27 65.72 39.27 65.32L39.27 42.24C39.27 41.63 39.76 41.14 40.37 41.14C40.97 41.14 41.47 41.63 41.47 42.24L41.47 51.29ZM35.06 34.15C36.75 34.15 37.9 32.3 37.9 29.64C37.9 28.39 37.69 27.62 37.18 27.19C36.67 26.77 35.94 26.72 35.15 26.72C34.33 26.72 33.56 26.78 33 27.21C32.47 27.63 32.23 28.4 32.23 29.64C32.23 32.3 33.38 34.15 35.06 34.15ZM26.79 57.02C27.36 57.23 27.65 57.86 27.43 58.43C27.22 59 26.59 59.29 26.02 59.08C16.22 55.43 9.24 45.99 9.24 34.93C9.24 20.71 20.78 9.17 35 9.17C49.21 9.17 60.75 20.71 60.75 34.93C60.75 46.07 53.66 55.58 43.74 59.16C43.17 59.37 42.54 59.07 42.34 58.5C42.13 57.93 42.43 57.3 43 57.1C52.07 53.82 58.56 45.12 58.56 34.93C58.56 21.92 48 11.36 35 11.36C21.99 11.36 11.43 21.92 11.43 34.93C11.43 45.05 17.82 53.68 26.79 57.02ZM23.68 43.55C24.05 44.03 23.95 44.72 23.47 45.09C22.99 45.46 22.3 45.36 21.93 44.88C19.82 42.12 18.57 38.67 18.57 34.93C18.57 25.86 25.93 18.5 35 18.5C44.06 18.5 51.42 25.86 51.42 34.93C51.42 38.69 50.15 42.16 48.02 44.94C47.65 45.42 46.96 45.51 46.48 45.14C45.99 44.77 45.91 44.08 46.28 43.6C48.12 41.2 49.22 38.19 49.22 34.93C49.22 27.07 42.85 20.7 35 20.7C27.14 20.7 20.77 27.07 20.77 34.93C20.77 38.17 21.85 41.16 23.68 43.55ZM36.09 6.35C36.09 6.95 35.6 7.45 35 7.45C34.39 7.45 33.9 6.95 33.9 6.35L33.9 2.05C33.9 1.45 34.39 0.96 35 0.96C35.6 0.96 36.09 1.45 36.09 2.05L36.09 6.35ZM15.56 13.94C15.99 14.37 15.99 15.07 15.56 15.49C15.13 15.92 14.44 15.92 14.01 15.49L10.97 12.46C10.55 12.03 10.55 11.33 10.97 10.91C11.4 10.48 12.1 10.48 12.53 10.91L15.56 13.94ZM6.42 33.83C7.02 33.83 7.51 34.32 7.51 34.93C7.51 35.53 7.02 36.03 6.42 36.03L2.12 36.03C1.52 36.03 1.02 35.53 1.02 34.93C1.02 34.32 1.52 33.83 2.12 33.83L6.42 33.83ZM14.01 54.36C14.44 53.93 15.13 53.93 15.56 54.36C15.99 54.79 15.99 55.48 15.56 55.91L12.53 58.95C12.1 59.38 11.4 59.38 10.97 58.95C10.55 58.52 10.55 57.82 10.97 57.4L14.01 54.36ZM55.98 15.49C55.55 15.92 54.86 15.92 54.43 15.49C54 15.07 54 14.37 54.43 13.94L57.46 10.91C57.89 10.48 58.59 10.48 59.02 10.91C59.44 11.33 59.44 12.03 59.02 12.46L55.98 15.49ZM63.57 36.03C62.97 36.03 62.48 35.53 62.48 34.93C62.48 34.32 62.97 33.83 63.57 33.83L67.87 33.83C68.47 33.83 68.97 34.32 68.97 34.93C68.97 35.53 68.47 36.03 67.87 36.03L63.57 36.03ZM54.43 55.91C54 55.48 54 54.79 54.43 54.36C54.86 53.93 55.55 53.93 55.98 54.36L59.02 57.4C59.44 57.82 59.44 58.52 59.02 58.95C58.59 59.38 57.89 59.38 57.46 58.95L54.43 55.91Z" fill="#FFFFFF" fill-opacity="1.000000" fill-rule="evenodd"/>
	</g>
</svg>
