<svg width="60.000000" height="60.000000" viewBox="0 0 60 60" fill="none" xmlns="http://www.w3.org/2000/svg" xmlns:xlink="http://www.w3.org/1999/xlink">
	
	<defs>
		<clipPath id="clip36_42">
			<rect id="fi_3669688" rx="0.000000" width="59.000000" height="59.000000" transform="translate(0.500000 0.500000)" fill="white" fill-opacity="0"/>
		</clipPath>
	</defs>
	<rect id="fi_3669688" rx="0.000000" width="59.000000" height="59.000000" transform="translate(0.500000 0.500000)" fill="#FFFFFF" fill-opacity="0"/>
	<g clip-path="url(#clip36_42)">
		<path id="Vector" d="M25.83 34.83L34.16 30.01L25.83 25.16L25.83 34.83Z" fill="#FFFFFF" fill-opacity="1.000000" fill-rule="nonzero"/>
		<path id="Vector" d="M30 0C24.06 0 18.26 1.75 13.33 5.05C8.39 8.35 4.55 13.03 2.28 18.51C0.01 24 -0.59 30.03 0.57 35.85C1.73 41.67 4.59 47.01 8.78 51.21C12.98 55.4 18.32 58.26 24.14 59.42C29.96 60.58 35.99 59.98 41.48 57.71C46.96 55.44 51.64 51.6 54.94 46.66C58.24 41.73 60 35.93 60 30C60 22.04 56.83 14.41 51.21 8.78C45.58 3.16 37.95 0 30 0ZM45.78 35.3C45.79 36.09 45.63 36.87 45.33 37.59C45.03 38.32 44.59 38.98 44.04 39.53C43.48 40.08 42.82 40.53 42.1 40.83C41.37 41.13 40.6 41.28 39.81 41.28L20.18 41.28C19.39 41.28 18.62 41.13 17.89 40.83C17.17 40.53 16.51 40.08 15.95 39.53C15.4 38.98 14.96 38.32 14.66 37.59C14.36 36.87 14.21 36.09 14.21 35.3L14.21 24.69C14.21 23.9 14.36 23.12 14.66 22.4C14.96 21.67 15.4 21.02 15.95 20.46C16.51 19.91 17.17 19.46 17.89 19.16C18.62 18.86 19.39 18.71 20.18 18.71L39.81 18.71C40.6 18.71 41.37 18.86 42.1 19.16C42.82 19.46 43.48 19.91 44.04 20.46C44.59 21.02 45.03 21.67 45.33 22.4C45.63 23.12 45.79 23.9 45.78 24.69L45.78 35.3Z" fill="#FFFFFF" fill-opacity="1.000000" fill-rule="nonzero"/>
	</g>
</svg>
